<svg height="20" viewBox="0 0 20 20" width="20" xmlns="http://www.w3.org/2000/svg"><path d="M12.563 9.5c0 1.383-1.14 2.5-2.563 2.5-1.423 0-2.571-1.117-2.571-2.5v-5C7.429 3.117 8.577 2 10 2c1.423 0 2.571 1.117 2.571 2.5zm-2.508-6c-.554 0-1.004.446-1.008 1l-.04 5a.992.992 0 0 0 .993 1c.554 0 1.003-.446 1.008-1l.039-5v-.008a.992.992 0 0 0-.992-.992zM10 13.874c-2.366 0-4.543-1.769-4.543-4.295H4c0 2.88 2.331 5.246 5.143 5.659V18h1.714v-2.762C13.67 14.834 16 12.458 16 9.578h-1.457c0 2.527-2.177 4.296-4.543 4.296z" fill="#E8EAED" fill-rule="evenodd"/></svg>