<svg width="3300" height="2200" viewBox="0 0 3300 2200" fill="none" xmlns="http://www.w3.org/2000/svg">
<g id="passport.cr" clip-path="url(#clip0_2538_5204)">
<g id="Notes">
<path id="artboard" d="M3300 0H0V2200H3300V0Z" fill="white"/>
<path id="Vector" d="M263 292H3036" stroke="black" stroke-width="0.5"/>
<text id="Weight/Scale Variations" fill="black" style="white-space: pre" xml:space="preserve" font-family="Inter" font-size="13" font-weight="bold" letter-spacing="0em"><tspan x="263" y="321.727">Weight/Scale Variations</tspan></text>
<text id="Ultralight" fill="black" style="white-space: pre" xml:space="preserve" font-family="Inter" font-size="13" letter-spacing="0em"><tspan x="531.661" y="321.727">Ultralight</tspan></text>
<text id="Thin" fill="black" style="white-space: pre" xml:space="preserve" font-family="Inter" font-size="13" letter-spacing="0em"><tspan x="843.067" y="321.727">Thin</tspan></text>
<text id="Light" fill="black" style="white-space: pre" xml:space="preserve" font-family="Inter" font-size="13" letter-spacing="0em"><tspan x="1137.77" y="321.727">Light</tspan></text>
<text id="Regular" fill="black" style="white-space: pre" xml:space="preserve" font-family="Inter" font-size="13" letter-spacing="0em"><tspan x="1426.58" y="321.727">Regular</tspan></text>
<text id="Medium" fill="black" style="white-space: pre" xml:space="preserve" font-family="Inter" font-size="13" letter-spacing="0em"><tspan x="1721.99" y="321.727">Medium</tspan></text>
<text id="Semibold" fill="black" style="white-space: pre" xml:space="preserve" font-family="Inter" font-size="13" letter-spacing="0em"><tspan x="2014.65" y="321.727">Semibold</tspan></text>
<text id="Bold" fill="black" style="white-space: pre" xml:space="preserve" font-family="Inter" font-size="13" letter-spacing="0em"><tspan x="2326.29" y="321.727">Bold</tspan></text>
<text id="Heavy" fill="black" style="white-space: pre" xml:space="preserve" font-family="Inter" font-size="13" letter-spacing="0em"><tspan x="2617.32" y="321.727">Heavy</tspan></text>
<text id="Black" fill="black" style="white-space: pre" xml:space="preserve" font-family="Inter" font-size="13" letter-spacing="0em"><tspan x="2916.8" y="321.727">Black</tspan></text>
<path id="Vector_2" d="M263 1903H3036" stroke="black" stroke-width="0.5"/>
<g id="Group">
<path id="Vector_3" d="M272.248 1933.83C276.604 1933.83 280.139 1930.31 280.139 1925.95C280.139 1921.6 276.604 1918.07 272.248 1918.07C267.902 1918.07 264.367 1921.6 264.367 1925.95C264.367 1930.31 267.902 1933.83 272.248 1933.83ZM272.248 1932.35C268.713 1932.35 265.861 1929.49 265.861 1925.95C265.861 1922.42 268.713 1919.55 272.248 1919.55C275.783 1919.55 278.645 1922.42 278.645 1925.95C278.645 1929.49 275.783 1932.35 272.248 1932.35ZM272.971 1928.79V1923.1C272.971 1922.65 272.678 1922.35 272.229 1922.35C271.799 1922.35 271.506 1922.65 271.506 1923.1V1928.79C271.506 1929.23 271.799 1929.54 272.229 1929.54C272.678 1929.54 272.971 1929.23 272.971 1928.79ZM269.406 1926.67H275.09C275.529 1926.67 275.832 1926.38 275.832 1925.95C275.832 1925.51 275.529 1925.21 275.09 1925.21H269.406C268.957 1925.21 268.654 1925.51 268.654 1925.95C268.654 1926.38 268.957 1926.67 269.406 1926.67Z" fill="black"/>
</g>
<g id="Group_2">
<path id="Vector_4" d="M293.215 1935.91C298.713 1935.91 303.176 1931.44 303.176 1925.95C303.176 1920.45 298.713 1915.98 293.215 1915.98C287.717 1915.98 283.254 1920.45 283.254 1925.95C283.254 1931.44 287.717 1935.91 293.215 1935.91ZM293.215 1934.25C288.625 1934.25 284.914 1930.54 284.914 1925.95C284.914 1921.36 288.625 1917.64 293.215 1917.64C297.805 1917.64 301.516 1921.36 301.516 1925.95C301.516 1930.54 297.805 1934.25 293.215 1934.25ZM294.026 1929.63V1922.24C294.026 1921.75 293.684 1921.4 293.195 1921.4C292.717 1921.4 292.385 1921.75 292.385 1922.24V1929.63C292.385 1930.12 292.717 1930.46 293.195 1930.46C293.684 1930.46 294.026 1930.13 294.026 1929.63ZM289.514 1926.75H296.906C297.395 1926.75 297.736 1926.42 297.736 1925.95C297.736 1925.46 297.395 1925.12 296.906 1925.12H289.514C289.016 1925.12 288.684 1925.46 288.684 1925.95C288.684 1926.42 289.016 1926.75 289.514 1926.75Z" fill="black"/>
</g>
<g id="Group_3">
<path id="Vector_5" d="M319.895 1938.67C326.916 1938.67 332.619 1932.97 332.619 1925.95C332.619 1918.93 326.916 1913.23 319.895 1913.23C312.873 1913.23 307.18 1918.93 307.18 1925.95C307.18 1932.97 312.873 1938.67 319.895 1938.67ZM319.895 1936.85C313.869 1936.85 308.996 1931.98 308.996 1925.95C308.996 1919.93 313.869 1915.05 319.895 1915.05C325.92 1915.05 330.793 1919.93 330.793 1925.95C330.793 1931.98 325.92 1936.85 319.895 1936.85ZM320.783 1930.79V1921.09C320.783 1920.54 320.412 1920.16 319.875 1920.16C319.358 1920.16 318.987 1920.54 318.987 1921.09V1930.79C318.987 1931.32 319.358 1931.7 319.875 1931.7C320.412 1931.7 320.783 1931.33 320.783 1930.79ZM315.041 1926.83H324.738C325.276 1926.83 325.656 1926.47 325.656 1925.95C325.656 1925.4 325.285 1925.03 324.738 1925.03H315.041C314.494 1925.03 314.123 1925.4 314.123 1925.95C314.123 1926.47 314.494 1926.83 315.041 1926.83Z" fill="black"/>
</g>
<text id="Design Variations" fill="black" style="white-space: pre" xml:space="preserve" font-family="Inter" font-size="13" font-weight="bold" letter-spacing="0em"><tspan x="263" y="1952.73">Design Variations</tspan></text>
<text id="Symbols are supported in up to nine weights and three scales." fill="black" style="white-space: pre" xml:space="preserve" font-family="Inter" font-size="13" letter-spacing="0em"><tspan x="263" y="1970.73">Symbols are supported in up to nine weights and three scales.</tspan></text>
<text id="For optimal layout with text and other symbols, vertically align" fill="black" style="white-space: pre" xml:space="preserve" font-family="Inter" font-size="13" letter-spacing="0em"><tspan x="263" y="1988.73">For optimal layout with text and other symbols, vertically align</tspan></text>
<text id="symbols with the adjacent text." fill="black" style="white-space: pre" xml:space="preserve" font-family="Inter" font-size="13" letter-spacing="0em"><tspan x="263" y="2006.73">symbols with the adjacent text.</tspan></text>
<path id="Vector_6" d="M776 1919V1933" stroke="#00AEEF" stroke-width="0.5"/>
<g id="Group_4">
<path id="Vector_7" d="M779.311 1933.16C779.828 1933.16 780.082 1932.96 780.268 1932.42L784.379 1920.91H784.428L788.549 1932.42C788.734 1932.96 788.988 1933.16 789.496 1933.16C790.014 1933.16 790.346 1932.85 790.346 1932.36C790.346 1932.19 790.316 1932.04 790.238 1931.83L785.658 1919.63C785.434 1919.04 785.033 1918.73 784.408 1918.73C783.803 1918.73 783.393 1919.03 783.178 1919.62L778.598 1931.84C778.52 1932.04 778.49 1932.2 778.49 1932.37C778.49 1932.86 778.803 1933.16 779.311 1933.16ZM781.352 1928.97H787.484C787.885 1928.97 788.217 1928.64 788.217 1928.24C788.217 1927.83 787.885 1927.5 787.484 1927.5H781.352C780.951 1927.5 780.619 1927.83 780.619 1928.24C780.619 1928.64 780.951 1928.97 781.352 1928.97Z" fill="black"/>
</g>
<path id="Vector_8" d="M792.836 1919V1933" stroke="#00AEEF" stroke-width="0.5"/>
<text id="Margins" fill="black" style="white-space: pre" xml:space="preserve" font-family="Inter" font-size="13" font-weight="bold" letter-spacing="0em"><tspan x="776" y="1952.73">Margins</tspan></text>
<text id="Leading and trailing margins on the left and right side of each symbol" fill="black" style="white-space: pre" xml:space="preserve" font-family="Inter" font-size="13" letter-spacing="0em"><tspan x="776" y="1970.73">Leading and trailing margins on the left and right side of each symbol</tspan></text>
<text id="can be adjusted by modifying the x-location of the margin guidelines." fill="black" style="white-space: pre" xml:space="preserve" font-family="Inter" font-size="13" letter-spacing="0em"><tspan x="776" y="1988.73">can be adjusted by modifying the x-location of the margin guidelines.</tspan></text>
<text id="Modifications are automatically applied proportionally to all" fill="black" style="white-space: pre" xml:space="preserve" font-family="Inter" font-size="13" letter-spacing="0em"><tspan x="776" y="2006.73">Modifications are automatically applied proportionally to all</tspan></text>
<text id="scales and weights." fill="black" style="white-space: pre" xml:space="preserve" font-family="Inter" font-size="13" letter-spacing="0em"><tspan x="776" y="2024.73">scales and weights.</tspan></text>
<g id="Group_5">
<path id="Vector_9" d="M1291.84 1935.63L1293.41 1937.2C1294.27 1938.08 1295.28 1938.02 1296.19 1936.99L1308.33 1923.35L1307.35 1922.37L1295.3 1935.91C1294.94 1936.3 1294.61 1936.4 1294.14 1935.93L1293.1 1934.9C1292.64 1934.45 1292.74 1934.11 1293.14 1933.74L1306.64 1921.31L1305.66 1920.34L1292.05 1932.86C1291.05 1933.78 1290.98 1934.76 1291.84 1935.63ZM1300.82 1916.13C1300.41 1916.53 1300.37 1917.11 1300.6 1917.49C1300.83 1917.85 1301.29 1918.1 1301.92 1917.94C1303.09 1917.61 1304.44 1917.46 1305.7 1918.13L1305.16 1919.55C1304.84 1920.35 1305.02 1920.93 1305.5 1921.44L1307.55 1923.5C1308.02 1923.98 1308.46 1923.99 1308.97 1923.89L1309.86 1923.74L1310.38 1924.25L1310.34 1924.7C1310.32 1925.16 1310.45 1925.56 1310.89 1926L1311.57 1926.66C1312.03 1927.12 1312.67 1927.16 1313.13 1926.7L1315.73 1924.09C1316.19 1923.62 1316.16 1923.02 1315.69 1922.56L1315.01 1921.88C1314.57 1921.44 1314.2 1921.27 1313.74 1921.3L1313.27 1921.35L1312.78 1920.86L1312.98 1919.92C1313.11 1919.38 1312.94 1918.93 1312.41 1918.4L1310.15 1916.16C1307.56 1913.6 1303.03 1913.96 1300.82 1916.13ZM1302.23 1916.54C1303.99 1915.27 1307.43 1915.41 1308.97 1916.94L1311.43 1919.38C1311.64 1919.58 1311.68 1919.74 1311.62 1920.04L1311.32 1921.37L1312.67 1922.71L1313.55 1922.66C1313.78 1922.65 1313.85 1922.67 1314.02 1922.83L1314.53 1923.33L1312.36 1925.5L1311.86 1925C1311.7 1924.83 1311.67 1924.76 1311.68 1924.52L1311.73 1923.65L1310.4 1922.31L1309.03 1922.54C1308.75 1922.6 1308.62 1922.58 1308.39 1922.36L1306.61 1920.59C1306.39 1920.38 1306.37 1920.25 1306.51 1919.91L1307.43 1917.62C1306.21 1916.35 1304.02 1916.11 1302.31 1916.7C1302.17 1916.75 1302.12 1916.62 1302.23 1916.54Z" fill="black"/>
</g>
<text id="Exporting" fill="black" style="white-space: pre" xml:space="preserve" font-family="Inter" font-size="13" font-weight="bold" letter-spacing="0em"><tspan x="1289" y="1952.73">Exporting</tspan></text>
<text id="Symbols should be outlined when exporting to ensure the" fill="black" style="white-space: pre" xml:space="preserve" font-family="Inter" font-size="13" letter-spacing="0em"><tspan x="1289" y="1970.73">Symbols should be outlined when exporting to ensure the</tspan></text>
<text id="design is preserved when submitting to Xcode." fill="black" style="white-space: pre" xml:space="preserve" font-family="Inter" font-size="13" letter-spacing="0em"><tspan x="1289" y="1988.73">design is preserved when submitting to Xcode.</tspan></text>
<text id="template-version" fill="black" style="white-space: pre" xml:space="preserve" font-family="Inter" font-size="13" letter-spacing="0em"><tspan x="2948.26" y="1932.73">Template v.7.0</tspan></text>
<text id="Requires Xcode 26 or greater" fill="black" style="white-space: pre" xml:space="preserve" font-family="Inter" font-size="13" letter-spacing="0em"><tspan x="2856.34" y="1950.73">Requires Xcode 26 or greater</tspan></text>
<text id="descriptive-name" fill="black" style="white-space: pre" xml:space="preserve" font-family="Inter" font-size="13" letter-spacing="0em"><tspan x="2863.39" y="1968.73">Generated from lanyardcard</tspan></text>
<text id="Typeset at 100.0 points" fill="black" style="white-space: pre" xml:space="preserve" font-family="Inter" font-size="13" letter-spacing="0em"><tspan x="2892.56" y="1986.73">Typeset at 100.0 points</tspan></text>
<text id="Small" fill="black" style="white-space: pre" xml:space="preserve" font-family="Inter" font-size="13" letter-spacing="0em"><tspan x="263" y="725.727">Small</tspan></text>
<text id="Medium_2" fill="black" style="white-space: pre" xml:space="preserve" font-family="Inter" font-size="13" letter-spacing="0em"><tspan x="263" y="1155.73">Medium</tspan></text>
<text id="Large" fill="black" style="white-space: pre" xml:space="preserve" font-family="Inter" font-size="13" letter-spacing="0em"><tspan x="263" y="1585.73">Large</tspan></text>
</g>
<g id="Guides">
<g id="H-reference">
<path id="Vector_10" d="M339.994 695.998H342.638L368.328 628.866H369.03V625.539H367.123L339.994 695.998ZM350.688 671.518H385.981L385.231 669.27H351.438L350.688 671.518ZM394.12 695.998H396.764L369.638 625.539H368.433V628.866L394.12 695.998Z" fill="#27AAE1"/>
</g>
<path id="Baseline-S" d="M263 696H3036" stroke="#27AAE1" stroke-width="0.5"/>
<path id="Capline-S" d="M263 625.539H3036" stroke="#27AAE1" stroke-width="0.5"/>
<g id="H-reference_2">
<path id="Vector_11" d="M339.994 1126H342.638L368.328 1058.87H369.03V1055.54H367.123L339.994 1126ZM350.688 1101.52H385.981L385.231 1099.27H351.438L350.688 1101.52ZM394.12 1126H396.764L369.638 1055.54H368.433V1058.87L394.12 1126Z" fill="#27AAE1"/>
</g>
<path id="Baseline-M" d="M263 1126H3036" stroke="#27AAE1" stroke-width="0.5"/>
<path id="Capline-M" d="M263 1055.54H3036" stroke="#27AAE1" stroke-width="0.5"/>
<g id="H-reference_3">
<path id="Vector_12" d="M339.994 1556H342.638L368.328 1488.87H369.03V1485.54H367.123L339.994 1556ZM350.688 1531.52H385.981L385.231 1529.27H351.438L350.688 1531.52ZM394.12 1556H396.764L369.638 1485.54H368.433V1488.87L394.12 1556Z" fill="#27AAE1"/>
</g>
<path id="Baseline-L" d="M263 1556H3036" stroke="#27AAE1" stroke-width="0.5"/>
<path id="Capline-L" d="M263 1485.54H3036" stroke="#27AAE1" stroke-width="0.5"/>
<path id="right-margin-Regular-M" d="M1500.25 1030.79V1150.12" stroke="#00AEEF" stroke-width="0.5"/>
<path id="left-margin-Regular-M" d="M1399.44 1030.79V1150.12" stroke="#00AEEF" stroke-width="0.5"/>
</g>
<g id="Symbols">
<g id="Black-L">
<g id="Vector_13">
<path d="M2953 1552C2955.76 1552 2958 1554.24 2958 1557C2958 1559.76 2955.76 1562 2953 1562H2915C2912.24 1562 2910 1559.76 2910 1557C2910 1554.24 2912.24 1552 2915 1552H2953Z" fill="black"/>
<path fill-rule="evenodd" clip-rule="evenodd" d="M2933.1 1474C2951.83 1474.06 2967 1489.26 2967 1508C2967 1526.74 2951.83 1541.94 2933.1 1542C2933.08 1542 2933.06 1542 2933.04 1542C2933.02 1542 2933.01 1542 2933 1542C2932.99 1542 2932.98 1542 2932.96 1542C2932.94 1542 2932.92 1542 2932.9 1542C2914.17 1541.94 2899 1526.74 2899 1508C2899 1489.26 2914.17 1474.06 2932.9 1474C2932.91 1474 2932.92 1474 2932.93 1474H2933.07C2933.08 1474 2933.09 1474 2933.1 1474ZM2947.72 1513C2946.99 1519.57 2944.93 1525.4 2942.87 1529.88C2949.73 1526.78 2954.88 1520.55 2956.48 1513H2947.72ZM2909.52 1513C2911.12 1520.55 2916.27 1526.78 2923.13 1529.88C2921.07 1525.4 2919.01 1519.57 2918.28 1513H2909.52ZM2928.36 1513C2929.08 1518.06 2930.76 1522.67 2932.51 1526.35C2932.68 1526.69 2932.84 1527.02 2933 1527.34C2933.16 1527.02 2933.32 1526.69 2933.49 1526.35C2935.24 1522.67 2936.92 1518.06 2937.64 1513H2928.36ZM2923.13 1486.12C2916.27 1489.22 2911.12 1495.45 2909.52 1503H2918.28C2919.02 1496.43 2921.07 1490.6 2923.13 1486.12ZM2942.87 1486.12C2944.93 1490.6 2946.99 1496.43 2947.72 1503H2956.48C2954.88 1495.45 2949.73 1489.22 2942.87 1486.12ZM2933 1488.66C2932.84 1488.98 2932.68 1489.31 2932.51 1489.65C2930.76 1493.33 2929.08 1497.94 2928.36 1503H2937.64C2936.92 1497.94 2935.24 1493.33 2933.49 1489.65C2933.32 1489.31 2933.16 1488.98 2933 1488.66Z" fill="black"/>
<path fill-rule="evenodd" clip-rule="evenodd" d="M2953.8 1450C2966.12 1450 2972.28 1450 2976.99 1452.4C2981.13 1454.51 2984.49 1457.87 2986.6 1462.01C2989 1466.72 2989 1472.88 2989 1485.2V1555.8C2989 1568.12 2989 1574.28 2986.6 1578.99C2984.49 1583.13 2981.13 1586.49 2976.99 1588.6C2972.28 1591 2966.12 1591 2953.8 1591H2877V1450H2953.8ZM2896 1572H2953.8C2960.27 1572 2963.99 1571.99 2966.7 1571.76C2967.74 1571.68 2968.33 1571.58 2968.62 1571.52C2968.98 1571.29 2969.29 1570.98 2969.52 1570.62C2969.58 1570.33 2969.68 1569.74 2969.76 1568.7C2969.99 1565.99 2970 1562.27 2970 1555.8V1485.2C2970 1478.73 2969.99 1475.01 2969.76 1472.3C2969.68 1471.26 2969.58 1470.66 2969.52 1470.38C2969.29 1470.02 2968.98 1469.71 2968.62 1469.48C2968.33 1469.42 2967.74 1469.32 2966.7 1469.24C2963.99 1469.01 2960.27 1469 2953.8 1469H2896V1572Z" fill="black"/>
</g>
</g>
<g id="Heavy-L">
<g id="Vector_14">
<path d="M2656.5 1553C2658.99 1553 2661 1555.01 2661 1557.5C2661 1559.99 2658.99 1562 2656.5 1562H2617.5C2615.01 1562 2613 1559.99 2613 1557.5C2613 1555.01 2615.01 1553 2617.5 1553H2656.5Z" fill="black"/>
<path fill-rule="evenodd" clip-rule="evenodd" d="M2637 1473C2655.78 1473 2671 1488.22 2671 1507C2671 1525.78 2655.78 1541 2637 1541C2618.22 1541 2603 1525.78 2603 1507C2603 1488.22 2618.22 1473 2637 1473ZM2652.24 1512C2651.46 1519.45 2649.06 1525.57 2646.62 1530.08C2654.17 1526.93 2659.84 1520.19 2661.5 1512H2652.24ZM2612.5 1512C2614.16 1520.19 2619.83 1526.93 2627.37 1530.08C2624.94 1525.57 2622.54 1519.45 2621.76 1512H2612.5ZM2630.82 1512C2631.56 1517.78 2633.5 1522.54 2635.44 1526.08C2635.97 1527.04 2636.5 1527.91 2637 1528.67C2637.5 1527.91 2638.03 1527.04 2638.56 1526.08C2640.5 1522.54 2642.44 1517.78 2643.18 1512H2630.82ZM2627.37 1483.92C2619.53 1487.2 2613.71 1494.36 2612.32 1503H2621.67C2622.32 1495.1 2624.83 1488.63 2627.37 1483.92ZM2646.62 1483.92C2649.17 1488.63 2651.68 1495.1 2652.33 1503H2661.68C2660.29 1494.36 2654.47 1487.2 2646.62 1483.92ZM2637 1485.33C2636.5 1486.09 2635.97 1486.96 2635.44 1487.92C2633.39 1491.66 2631.34 1496.77 2630.71 1503H2643.29C2642.66 1496.77 2640.61 1491.66 2638.56 1487.92C2638.03 1486.96 2637.5 1486.09 2637 1485.33Z" fill="black"/>
<path fill-rule="evenodd" clip-rule="evenodd" d="M2660 1451C2671.2 1451 2676.8 1451 2681.08 1453.18C2684.84 1455.1 2687.9 1458.16 2689.82 1461.92C2692 1466.2 2692 1471.8 2692 1483V1559C2692 1570.2 2692 1575.8 2689.82 1580.08L2689.64 1580.43C2687.71 1584.03 2684.73 1586.96 2681.08 1588.82L2680.67 1589.02C2676.45 1591 2670.85 1591 2660 1591H2581V1451H2660ZM2598.5 1573.5H2660C2665.89 1573.5 2669.25 1573.49 2671.71 1573.29C2672.6 1573.21 2673.12 1573.13 2673.38 1573.08C2673.66 1572.89 2673.89 1572.66 2674.08 1572.38C2674.13 1572.12 2674.21 1571.6 2674.29 1570.71C2674.49 1568.25 2674.5 1564.89 2674.5 1559V1483C2674.5 1477.11 2674.49 1473.75 2674.29 1471.29C2674.21 1470.4 2674.13 1469.88 2674.08 1469.61C2673.89 1469.34 2673.66 1469.1 2673.38 1468.92C2673.12 1468.87 2672.6 1468.79 2671.71 1468.71C2669.25 1468.51 2665.89 1468.5 2660 1468.5H2598.5V1573.5Z" fill="black"/>
</g>
</g>
<g id="Bold-L">
<g id="Vector_15">
<path d="M2359.75 1553.99C2362.1 1553.99 2364 1555.89 2364 1558.24C2364 1560.59 2362.1 1562.49 2359.75 1562.49H2320.25C2317.9 1562.49 2316 1560.59 2316 1558.24C2316 1555.89 2317.9 1553.99 2320.25 1553.99H2359.75Z" fill="black"/>
<path fill-rule="evenodd" clip-rule="evenodd" d="M2340 1473.99C2358.78 1473.99 2374 1489.21 2374 1507.99C2374 1526.77 2358.78 1541.99 2340 1541.99C2321.22 1541.99 2306 1526.77 2306 1507.99C2306 1489.21 2321.22 1473.99 2340 1473.99ZM2355.04 1512.49C2354.3 1520.31 2351.76 1526.68 2349.22 1531.29C2349.11 1531.5 2348.99 1531.7 2348.88 1531.9C2357.22 1528.8 2363.51 1521.46 2365.1 1512.49H2355.04ZM2314.9 1512.49C2316.49 1521.46 2322.78 1528.8 2331.12 1531.9C2331.01 1531.7 2330.89 1531.5 2330.78 1531.29C2328.24 1526.68 2325.7 1520.31 2324.96 1512.49H2314.9ZM2333.51 1512.49C2334.2 1518.55 2336.21 1523.53 2338.22 1527.19C2338.83 1528.3 2339.43 1529.27 2340 1530.12C2340.57 1529.27 2341.17 1528.3 2341.78 1527.19C2343.79 1523.53 2345.8 1518.55 2346.49 1512.49H2333.51ZM2331.12 1484.08C2322.62 1487.24 2316.26 1494.8 2314.81 1503.99H2324.92C2325.59 1495.95 2328.19 1489.4 2330.78 1484.69C2330.89 1484.49 2331.01 1484.28 2331.12 1484.08ZM2349.22 1484.69C2351.81 1489.4 2354.41 1495.95 2355.08 1503.99H2365.19C2363.74 1494.8 2357.38 1487.24 2348.88 1484.08C2348.99 1484.28 2349.11 1484.49 2349.22 1484.69ZM2340 1485.86C2339.43 1486.71 2338.83 1487.69 2338.22 1488.79C2336.15 1492.56 2334.09 1497.71 2333.45 1503.99H2346.55C2345.91 1497.71 2343.85 1492.56 2341.78 1488.79C2341.17 1487.69 2340.57 1486.71 2340 1485.86Z" fill="black"/>
<path fill-rule="evenodd" clip-rule="evenodd" d="M2364.6 1451.99C2375.24 1451.99 2380.56 1451.99 2384.63 1454.06C2388.2 1455.89 2391.11 1458.79 2392.93 1462.37C2395 1466.43 2395 1471.75 2395 1482.39V1559.59C2395 1570.23 2395 1575.55 2392.93 1579.62L2392.58 1580.28C2390.74 1583.55 2387.98 1586.21 2384.63 1587.92L2384.24 1588.11C2380.22 1589.99 2374.91 1589.99 2364.6 1589.99H2285V1451.99H2364.6ZM2300 1574.99H2364.6C2370.17 1574.99 2373.44 1574.98 2375.86 1574.78C2377.13 1574.68 2377.73 1574.55 2377.93 1574.49C2378.59 1574.13 2379.14 1573.58 2379.5 1572.92C2379.56 1572.72 2379.69 1572.12 2379.79 1570.85C2379.99 1568.43 2380 1565.16 2380 1559.59V1482.39C2380 1476.82 2379.99 1473.55 2379.79 1471.13C2379.69 1469.86 2379.56 1469.26 2379.5 1469.06C2379.14 1468.4 2378.59 1467.85 2377.93 1467.49C2377.73 1467.44 2377.13 1467.3 2375.86 1467.2C2373.44 1467 2370.17 1466.99 2364.6 1466.99H2300V1574.99Z" fill="black"/>
</g>
</g>
<g id="Semibold-L">
<g id="Vector_16">
<path d="M2063.75 1554C2066.1 1554 2068 1555.9 2068 1558.25C2068 1560.6 2066.1 1562.5 2063.75 1562.5H2024.25C2021.9 1562.5 2020 1560.6 2020 1558.25C2020 1555.9 2021.9 1554 2024.25 1554H2063.75Z" fill="black"/>
<path fill-rule="evenodd" clip-rule="evenodd" d="M2044 1474C2062.78 1474 2078 1489.22 2078 1508C2078 1526.78 2062.78 1542 2044 1542C2025.22 1542 2010 1526.78 2010 1508C2010 1489.22 2025.22 1474 2044 1474ZM2059.04 1512.5C2058.3 1520.31 2055.76 1526.69 2053.22 1531.3C2053.11 1531.51 2052.99 1531.71 2052.88 1531.91C2061.22 1528.81 2067.51 1521.47 2069.1 1512.5H2059.04ZM2018.9 1512.5C2020.49 1521.47 2026.78 1528.81 2035.12 1531.91C2035.01 1531.71 2034.89 1531.51 2034.78 1531.3C2032.24 1526.69 2029.7 1520.31 2028.96 1512.5H2018.9ZM2037.51 1512.5C2038.2 1518.56 2040.21 1523.54 2042.22 1527.2C2042.83 1528.3 2043.43 1529.28 2044 1530.13C2044.57 1529.28 2045.17 1528.3 2045.78 1527.2C2047.79 1523.54 2049.8 1518.56 2050.49 1512.5H2037.51ZM2035.12 1484.09C2026.62 1487.25 2020.26 1494.81 2018.81 1504H2028.92C2029.59 1495.96 2032.19 1489.41 2034.78 1484.7C2034.89 1484.49 2035.01 1484.29 2035.12 1484.09ZM2053.22 1484.7C2055.81 1489.41 2058.41 1495.96 2059.08 1504H2069.19C2067.74 1494.81 2061.38 1487.24 2052.88 1484.09C2052.99 1484.29 2053.11 1484.49 2053.22 1484.7ZM2044 1485.87C2043.43 1486.72 2042.83 1487.7 2042.22 1488.8C2040.15 1492.56 2038.09 1497.72 2037.45 1504H2050.55C2049.91 1497.72 2047.85 1492.56 2045.78 1488.8C2045.17 1487.7 2044.57 1486.72 2044 1485.87Z" fill="black"/>
<path fill-rule="evenodd" clip-rule="evenodd" d="M2070.45 1452C2079.08 1452.03 2083.84 1452.27 2087.58 1454.18C2091.34 1456.1 2094.4 1459.16 2096.32 1462.92C2098.5 1467.2 2098.5 1472.8 2098.5 1484L2098.5 1560.95C2098.47 1569.58 2098.23 1574.34 2096.32 1578.08L2096.14 1578.43C2094.21 1582.03 2091.23 1584.96 2087.58 1586.82L2087.18 1587.02C2083.49 1588.74 2078.77 1588.97 2070.45 1589L1989.5 1589V1452L2070.45 1452ZM2002.5 1576H2066.5C2072.32 1576 2075.89 1575.99 2078.58 1575.77C2081.08 1575.57 2081.66 1575.25 2081.68 1575.24C2083 1574.57 2084.07 1573.49 2084.74 1572.18C2084.75 1572.16 2085.07 1571.58 2085.27 1569.08C2085.49 1566.39 2085.5 1562.81 2085.5 1557V1484C2085.5 1478.19 2085.49 1474.61 2085.27 1471.92C2085.07 1469.42 2084.75 1468.84 2084.74 1468.82C2084.07 1467.51 2083 1466.43 2081.68 1465.76C2081.66 1465.75 2081.08 1465.43 2078.58 1465.23C2075.89 1465.01 2072.32 1465 2066.5 1465H2002.5V1576Z" fill="black"/>
</g>
</g>
<g id="Medium-L">
<g id="Vector_17">
<path d="M1767 1555C1769.21 1555 1771 1556.79 1771 1559C1771 1561.21 1769.21 1563 1767 1563H1727C1724.79 1563 1723 1561.21 1723 1559C1723 1556.79 1724.79 1555 1727 1555H1767Z" fill="black"/>
<path fill-rule="evenodd" clip-rule="evenodd" d="M1747.03 1475C1765.79 1475.02 1781 1490.23 1781 1509C1781 1527.77 1765.79 1542.98 1747.03 1543C1747.02 1543 1747.02 1543 1747.01 1543C1747.01 1543 1747.01 1543 1747 1543L1747 1543C1747 1543 1746.99 1543 1746.99 1543C1746.98 1543 1746.98 1543 1746.97 1543C1728.21 1542.98 1713 1527.77 1713 1509C1713 1490.23 1728.21 1475.02 1746.97 1475H1747.03ZM1761.83 1513C1761.16 1521.04 1758.59 1527.74 1756.04 1532.61C1755.87 1532.94 1755.7 1533.25 1755.53 1533.57C1764.48 1530.46 1771.21 1522.6 1772.69 1513H1761.83ZM1721.31 1513C1722.79 1522.6 1729.52 1530.46 1738.47 1533.57C1738.3 1533.26 1738.13 1532.93 1737.96 1532.61C1735.41 1527.74 1732.84 1521.04 1732.17 1513H1721.31ZM1740.2 1513C1740.84 1519.42 1742.93 1524.85 1745.04 1528.89C1745.71 1530.17 1746.38 1531.3 1747 1532.27C1747.62 1531.3 1748.29 1530.17 1748.96 1528.89C1751.07 1524.85 1753.16 1519.42 1753.8 1513H1740.2ZM1738.47 1484.43C1729.52 1487.54 1722.79 1495.4 1721.31 1505H1732.17C1732.84 1496.96 1735.41 1490.26 1737.96 1485.39C1738.13 1485.06 1738.3 1484.74 1738.47 1484.43ZM1756.04 1485.39C1758.59 1490.26 1761.16 1496.96 1761.83 1505H1772.69C1771.21 1495.4 1764.48 1487.54 1755.53 1484.43C1755.7 1484.74 1755.87 1485.06 1756.04 1485.39ZM1747 1485.73C1746.38 1486.7 1745.71 1487.83 1745.04 1489.11C1742.93 1493.15 1740.84 1498.58 1740.2 1505H1753.8C1753.16 1498.58 1751.07 1493.15 1748.96 1489.11C1748.29 1487.83 1747.62 1486.7 1747 1485.73Z" fill="black"/>
<path fill-rule="evenodd" clip-rule="evenodd" d="M1772.95 1453C1781.58 1453.03 1786.34 1453.27 1790.08 1455.18C1793.84 1457.1 1796.9 1460.16 1798.82 1463.92C1801 1468.2 1801 1473.8 1801 1485V1557C1801 1568.2 1801 1573.8 1798.82 1578.08L1798.64 1578.43C1796.71 1582.03 1793.73 1584.96 1790.08 1586.82L1789.67 1587.02C1785.99 1588.74 1781.27 1588.97 1772.95 1589L1693 1589V1453L1772.95 1453ZM1704 1578H1769C1774.78 1578 1778.46 1577.99 1781.24 1577.76C1783.89 1577.55 1784.76 1577.19 1785.09 1577.02C1786.78 1576.16 1788.16 1574.78 1789.02 1573.09C1789.19 1572.76 1789.55 1571.89 1789.76 1569.24C1789.99 1566.46 1790 1562.78 1790 1557V1485C1790 1479.22 1789.99 1475.54 1789.76 1472.76C1789.55 1470.11 1789.19 1469.24 1789.02 1468.91C1788.16 1467.22 1786.78 1465.84 1785.09 1464.98C1784.76 1464.81 1783.89 1464.45 1781.24 1464.24C1778.46 1464.01 1774.78 1464 1769 1464H1704V1578Z" fill="black"/>
</g>
</g>
<g id="Regular-L">
<g id="Vector_18">
<path d="M1470.25 1555.5C1472.32 1555.5 1474 1557.18 1474 1559.25C1474 1561.32 1472.32 1563 1470.25 1563H1429.75C1427.68 1563 1426 1561.32 1426 1559.25C1426 1557.18 1427.68 1555.5 1429.75 1555.5H1470.25Z" fill="black"/>
<path fill-rule="evenodd" clip-rule="evenodd" d="M1450 1475C1468.78 1475 1484 1490.22 1484 1509C1484 1527.78 1468.78 1543 1450 1543C1431.22 1543 1416 1527.78 1416 1509C1416 1490.22 1431.22 1475 1450 1475ZM1464.6 1512.75C1463.97 1520.85 1461.38 1527.6 1458.82 1532.49C1458.48 1533.13 1458.15 1533.75 1457.81 1534.33C1467.48 1531.35 1474.78 1522.99 1476.23 1512.75H1464.6ZM1423.77 1512.75C1425.22 1522.99 1432.52 1531.35 1442.19 1534.33C1441.85 1533.75 1441.52 1533.13 1441.18 1532.49C1438.62 1527.6 1436.03 1520.85 1435.4 1512.75H1423.77ZM1442.92 1512.75C1443.54 1519.33 1445.67 1524.89 1447.82 1529.01C1448.57 1530.44 1449.32 1531.69 1450 1532.73C1450.68 1531.69 1451.43 1530.44 1452.18 1529.01C1454.33 1524.89 1456.46 1519.33 1457.08 1512.75H1442.92ZM1442.19 1483.67C1432.52 1486.65 1425.22 1495.01 1423.77 1505.25H1435.4C1436.03 1497.15 1438.62 1490.4 1441.18 1485.51C1441.52 1484.87 1441.85 1484.25 1442.19 1483.67ZM1457.81 1483.67C1458.15 1484.25 1458.48 1484.87 1458.82 1485.51C1461.38 1490.4 1463.97 1497.15 1464.6 1505.25H1476.23C1474.78 1495.01 1467.48 1486.65 1457.81 1483.67ZM1450 1485.27C1449.32 1486.31 1448.57 1487.56 1447.82 1488.99C1445.67 1493.11 1443.54 1498.67 1442.92 1505.25H1457.08C1456.46 1498.67 1454.33 1493.11 1452.18 1488.99C1451.43 1487.56 1450.68 1486.31 1450 1485.27Z" fill="black"/>
<path fill-rule="evenodd" clip-rule="evenodd" d="M1474.95 1453C1483.58 1453.03 1488.34 1453.27 1492.08 1455.18C1495.84 1457.1 1498.9 1460.16 1500.82 1463.92C1503 1468.2 1503 1473.8 1503 1485L1503 1559.95C1502.97 1568.58 1502.73 1573.34 1500.82 1577.08L1500.64 1577.43C1498.71 1581.03 1495.73 1583.96 1492.08 1585.82L1491.67 1586.02C1487.99 1587.74 1483.27 1587.97 1474.95 1588L1397 1588V1453L1474.95 1453ZM1405.5 1579.5H1471C1476.74 1579.5 1480.53 1579.49 1483.44 1579.26C1486.25 1579.03 1487.48 1578.62 1488.22 1578.25C1490.38 1577.14 1492.14 1575.38 1493.25 1573.22C1493.62 1572.48 1494.03 1571.25 1494.26 1568.44C1494.49 1565.53 1494.5 1561.74 1494.5 1556V1485C1494.5 1479.26 1494.49 1475.47 1494.26 1472.56C1494.03 1469.75 1493.62 1468.52 1493.25 1467.78C1492.14 1465.62 1490.38 1463.86 1488.22 1462.75C1487.48 1462.38 1486.25 1461.97 1483.44 1461.74C1480.53 1461.51 1476.74 1461.5 1471 1461.5H1405.5V1579.5Z" fill="black"/>
</g>
</g>
<g id="Light-L">
<g id="Vector_19">
<path d="M1173.75 1556.49C1175.55 1556.49 1177 1557.95 1177 1559.74C1177 1561.54 1175.55 1562.99 1173.75 1562.99H1132.25C1130.46 1562.99 1129 1561.54 1129 1559.74C1129 1557.95 1130.46 1556.49 1132.25 1556.49H1173.75Z" fill="black"/>
<path fill-rule="evenodd" clip-rule="evenodd" d="M1153 1475.99C1171.78 1475.99 1187 1491.21 1187 1509.99C1187 1528.77 1171.78 1543.99 1153 1543.99C1134.22 1543.99 1119 1528.77 1119 1509.99C1119 1491.21 1134.22 1475.99 1153 1475.99ZM1125.76 1513.24C1127.29 1524.22 1135.41 1533.08 1145.99 1535.7C1145.54 1534.94 1145.08 1534.13 1144.62 1533.25C1142.04 1528.31 1139.43 1521.46 1138.86 1513.24H1125.76ZM1167.14 1513.24C1166.57 1521.46 1163.96 1528.31 1161.38 1533.25C1160.99 1534 1160.59 1534.71 1160.2 1535.38C1170.2 1532.4 1177.77 1523.8 1179.24 1513.24H1167.14ZM1145.38 1513.24C1145.93 1520.15 1148.14 1525.96 1150.38 1530.23C1151.29 1531.98 1152.21 1533.45 1153 1534.63C1153.79 1533.45 1154.71 1531.98 1155.62 1530.23C1157.86 1525.96 1160.07 1520.15 1160.62 1513.24H1145.38ZM1146.7 1483.12C1135.45 1485.58 1126.82 1495.06 1125.64 1506.74H1138.86C1139.43 1498.53 1142.04 1491.67 1144.62 1486.73C1145.33 1485.39 1146.03 1484.18 1146.7 1483.12ZM1159.48 1483.4C1160.09 1484.39 1160.74 1485.51 1161.38 1486.73C1163.96 1491.67 1166.57 1498.53 1167.14 1506.74H1179.36C1178.22 1495.47 1170.15 1486.25 1159.48 1483.4ZM1153 1485.36C1152.21 1486.53 1151.29 1488 1150.38 1489.75C1148.14 1494.02 1145.93 1499.84 1145.38 1506.74H1160.62C1160.07 1499.84 1157.86 1494.02 1155.62 1489.75C1154.71 1488 1153.79 1486.53 1153 1485.36Z" fill="black"/>
<path fill-rule="evenodd" clip-rule="evenodd" d="M1178.8 1453.99C1188.32 1453.99 1193.08 1453.99 1196.72 1455.84C1199.92 1457.47 1202.52 1460.08 1204.15 1463.27C1206 1466.91 1206 1471.67 1206 1481.19V1560.79C1206 1570.31 1206 1575.07 1204.15 1578.71L1203.83 1579.3C1202.19 1582.23 1199.72 1584.61 1196.72 1586.14L1196.37 1586.31C1192.78 1587.99 1188.02 1587.99 1178.8 1587.99H1100V1453.99H1178.8ZM1106.5 1581.49H1178.8C1183.67 1581.49 1186.93 1581.49 1189.44 1581.28C1191.87 1581.08 1193.02 1580.73 1193.77 1580.35C1195.74 1579.34 1197.35 1577.73 1198.36 1575.76C1198.74 1575.01 1199.09 1573.86 1199.29 1571.43C1199.5 1568.92 1199.5 1565.66 1199.5 1560.79V1481.19C1199.5 1476.32 1199.5 1473.06 1199.29 1470.56C1199.09 1468.12 1198.74 1466.97 1198.36 1466.23C1197.35 1464.25 1195.74 1462.64 1193.77 1461.64C1193.02 1461.26 1191.87 1460.9 1189.44 1460.7C1186.93 1460.5 1183.67 1460.49 1178.8 1460.49H1106.5V1581.49Z" fill="black"/>
</g>
</g>
<g id="Thin-L">
<g id="Vector_20">
<path d="M877.5 1557.5C878.881 1557.5 880 1558.62 880 1560C880 1561.38 878.881 1562.5 877.5 1562.5H834.5C833.119 1562.5 832 1561.38 832 1560C832 1558.62 833.119 1557.5 834.5 1557.5H877.5Z" fill="black"/>
<path fill-rule="evenodd" clip-rule="evenodd" d="M856 1476C874.778 1476 890 1491.22 890 1510C890 1528.78 874.778 1544 856 1544C837.222 1544 822 1528.78 822 1510C822 1491.22 837.222 1476 856 1476ZM827.157 1512.5C828.504 1525.38 838.424 1535.7 851.106 1537.66C850.238 1536.36 849.26 1534.77 848.285 1532.91C845.661 1527.9 843.018 1520.9 842.568 1512.5H827.157ZM869.432 1512.5C868.982 1520.9 866.339 1527.9 863.715 1532.91C862.79 1534.68 861.861 1536.2 861.027 1537.46C873.164 1535.08 882.536 1524.99 883.843 1512.5H869.432ZM847.576 1512.5C848.02 1519.89 850.357 1526.09 852.715 1530.59C853.893 1532.84 855.069 1534.65 856 1535.95C856.931 1534.65 858.107 1532.84 859.285 1530.59C861.643 1526.09 863.98 1519.89 864.424 1512.5H847.576ZM851.868 1481.23C838.493 1482.93 828.014 1493.9 827.071 1507.5H842.568C843.018 1499.1 845.661 1492.1 848.285 1487.09C849.559 1484.66 850.835 1482.68 851.868 1481.23ZM860.248 1481.4C861.26 1482.83 862.489 1484.75 863.715 1487.09C866.339 1492.1 868.982 1499.1 869.432 1507.5H883.929C883.012 1494.28 873.086 1483.55 860.248 1481.4ZM856 1484.05C855.069 1485.35 853.893 1487.16 852.715 1489.41C850.357 1493.91 848.02 1500.11 847.576 1507.5H864.424C863.98 1500.11 861.643 1493.91 859.285 1489.41C858.107 1487.16 856.931 1485.35 856 1484.05Z" fill="black"/>
<path fill-rule="evenodd" clip-rule="evenodd" d="M886.557 1454C893.464 1454.03 897.269 1454.22 900.264 1455.74C903.274 1457.28 905.722 1459.73 907.256 1462.74C909 1466.16 909 1470.64 909 1479.6L908.997 1565.56C908.973 1572.46 908.782 1576.27 907.256 1579.26C905.722 1582.27 903.274 1584.72 900.264 1586.26C897.269 1587.78 893.464 1587.97 886.557 1588L803 1588V1454L886.557 1454ZM807 1584H883.4C887.947 1584 891.116 1584 893.583 1583.79C896.004 1583.6 897.395 1583.23 898.448 1582.69C900.706 1581.54 902.542 1579.71 903.692 1577.45C904.229 1576.39 904.597 1575 904.795 1572.58C904.997 1570.12 905 1566.95 905 1562.4V1479.6C905 1475.05 904.997 1471.88 904.795 1469.42C904.597 1467 904.229 1465.61 903.692 1464.55C902.542 1462.29 900.706 1460.46 898.448 1459.31C897.395 1458.77 896.004 1458.4 893.583 1458.21C891.116 1458 887.947 1458 883.4 1458H807V1584Z" fill="black"/>
</g>
</g>
<g id="Ultralight-L">
<g id="Vector_21">
<path d="M581.75 1558.99C582.993 1558.99 584 1560 584 1561.24C584 1562.48 582.993 1563.49 581.75 1563.49H538.25C537.008 1563.49 536 1562.48 536 1561.24C536 1560 537.008 1558.99 538.25 1558.99H581.75Z" fill="black"/>
<path fill-rule="evenodd" clip-rule="evenodd" d="M560 1476.99C578.778 1476.99 594 1492.21 594 1510.99C594 1529.77 578.778 1544.99 560 1544.99C541.223 1544.99 526 1529.77 526 1510.99C526 1492.21 541.223 1476.99 560 1476.99ZM573.195 1513.24C572.786 1521.73 570.136 1529 567.513 1534.25C566.295 1536.68 565.075 1538.7 564.073 1540.21C577.709 1538.33 588.368 1527.13 589.415 1513.24H573.195ZM530.585 1513.24C531.632 1527.13 542.291 1538.33 555.926 1540.21C554.924 1538.7 553.705 1536.68 552.487 1534.25C549.865 1529 547.215 1521.73 546.806 1513.24H530.585ZM551.311 1513.24C551.715 1520.84 554.1 1527.41 556.513 1532.24C557.773 1534.76 559.034 1536.78 560 1538.2C560.967 1536.78 562.227 1534.76 563.487 1532.24C565.9 1527.41 568.285 1520.84 568.69 1513.24H551.311ZM555.926 1481.77C542.291 1483.66 531.632 1494.86 530.585 1508.74H546.806C547.215 1500.25 549.865 1492.98 552.487 1487.74C553.705 1485.3 554.924 1483.29 555.926 1481.77ZM564.073 1481.77C565.075 1483.29 566.295 1485.3 567.513 1487.74C570.136 1492.98 572.786 1500.25 573.195 1508.74H589.415C588.368 1494.86 577.709 1483.66 564.073 1481.77ZM560 1483.78C559.034 1485.2 557.774 1487.23 556.513 1489.75C554.1 1494.57 551.715 1501.15 551.311 1508.74H568.69C568.285 1501.15 565.9 1494.57 563.487 1489.75C562.227 1487.23 560.967 1485.2 560 1483.78Z" fill="black"/>
<path fill-rule="evenodd" clip-rule="evenodd" d="M588.5 1454.99C596.901 1454.99 601.101 1454.99 604.31 1456.63C607.132 1458.07 609.427 1460.36 610.865 1463.18C612.5 1466.39 612.5 1470.59 612.5 1478.99L612.497 1566.95C612.475 1573.43 612.296 1576.99 610.865 1579.8L610.586 1580.33C609.139 1582.91 606.956 1585.01 604.31 1586.36L604.006 1586.51C601.244 1587.8 597.704 1587.97 591.46 1587.99L507.5 1587.99V1454.99H588.5ZM509.5 1585.99H588.5C592.734 1585.99 595.789 1585.99 598.19 1585.79C600.567 1585.6 602.127 1585.23 603.403 1584.58C605.848 1583.33 607.837 1581.34 609.083 1578.89C609.733 1577.62 610.109 1576.06 610.303 1573.68C610.499 1571.28 610.5 1568.23 610.5 1563.99V1478.99C610.5 1474.76 610.499 1471.7 610.303 1469.3C610.109 1466.93 609.733 1465.37 609.083 1464.09C607.837 1461.64 605.848 1459.66 603.403 1458.41C602.127 1457.76 600.567 1457.38 598.19 1457.19C595.789 1456.99 592.734 1456.99 588.5 1456.99H509.5V1585.99Z" fill="black"/>
</g>
</g>
<g id="Black-M">
<g id="Vector_22">
<path d="M2947 1116.49C2949.21 1116.49 2951 1118.28 2951 1120.49C2951 1122.7 2949.21 1124.49 2947 1124.49H2919C2916.79 1124.49 2915 1122.7 2915 1120.49C2915 1118.28 2916.79 1116.49 2919 1116.49H2947Z" fill="black"/>
<path fill-rule="evenodd" clip-rule="evenodd" d="M2933.05 1056.99C2933.06 1056.99 2933.07 1056.99 2933.08 1056.99C2946.85 1057.04 2958 1068.21 2958 1081.99C2958 1095.77 2946.85 1106.95 2933.08 1106.99C2933.06 1106.99 2933.04 1106.99 2933.02 1106.99C2933.02 1106.99 2933.01 1106.99 2933 1106.99C2932.99 1106.99 2932.99 1106.99 2932.98 1106.99C2932.98 1106.99 2932.97 1106.99 2932.97 1106.99C2932.96 1106.99 2932.94 1106.99 2932.93 1106.99C2932.9 1106.99 2932.88 1106.99 2932.85 1106.99C2919.11 1106.91 2908 1095.75 2908 1081.99C2908 1068.21 2919.15 1057.04 2932.92 1056.99C2932.93 1056.99 2932.94 1056.99 2932.95 1056.99H2933.05ZM2929.2 1085.99C2929.71 1091 2931.13 1094.32 2932.41 1096.4C2932.61 1096.72 2932.81 1097.02 2933 1097.29C2933.19 1097.02 2933.39 1096.72 2933.59 1096.4C2934.87 1094.32 2936.29 1091 2936.8 1085.99H2929.2ZM2916.47 1085.99C2917.47 1090.11 2919.96 1093.64 2923.34 1095.98C2922.31 1093.27 2921.49 1089.97 2921.16 1085.99H2916.47ZM2944.84 1085.99C2944.51 1089.97 2943.69 1093.27 2942.66 1095.98C2946.04 1093.64 2948.53 1090.11 2949.53 1085.99H2944.84ZM2923.34 1068C2919.96 1070.34 2917.47 1073.87 2916.47 1077.99H2921.16C2921.49 1074.02 2922.31 1070.72 2923.34 1068ZM2942.66 1068C2943.69 1070.72 2944.51 1074.02 2944.84 1077.99H2949.53C2948.53 1073.87 2946.04 1070.34 2942.66 1068ZM2933 1066.69C2932.81 1066.96 2932.61 1067.26 2932.41 1067.59C2931.13 1069.67 2929.71 1072.99 2929.2 1077.99H2936.8C2936.29 1072.99 2934.87 1069.67 2933.59 1067.59C2933.39 1067.26 2933.19 1066.96 2933 1066.69Z" fill="black"/>
<path fill-rule="evenodd" clip-rule="evenodd" d="M2950.75 1035C2958.52 1035.02 2962.8 1035.24 2966.17 1036.95C2969.56 1038.68 2972.31 1041.43 2974.04 1044.82C2976 1048.67 2976 1053.71 2976 1063.79V1117.19L2976 1120.74C2975.97 1128.51 2975.75 1132.8 2974.04 1136.16L2973.7 1136.79C2971.97 1139.89 2969.35 1142.41 2966.17 1144.03L2965.81 1144.21C2962.49 1145.76 2958.25 1145.96 2950.75 1145.99L2947.2 1145.99H2890V1034.99H2947.2L2950.75 1035ZM2906 1129.99H2947.2C2952.5 1129.99 2955.52 1129.98 2957.72 1129.8C2958.46 1129.74 2958.91 1129.67 2959.15 1129.63C2959.34 1129.49 2959.5 1129.33 2959.64 1129.14C2959.68 1128.9 2959.75 1128.45 2959.81 1127.71C2959.99 1125.51 2960 1122.5 2960 1117.19V1063.79C2960 1058.49 2959.99 1055.47 2959.81 1053.27C2959.75 1052.53 2959.68 1052.08 2959.64 1051.84C2959.5 1051.65 2959.34 1051.49 2959.15 1051.36C2958.91 1051.31 2958.46 1051.24 2957.72 1051.18C2955.52 1051 2952.5 1050.99 2947.2 1050.99H2906V1129.99Z" fill="black"/>
</g>
</g>
<g id="Heavy-M">
<g id="Vector_23">
<path d="M2651.25 1117C2653.32 1117 2655 1118.68 2655 1120.75C2655 1122.82 2653.32 1124.5 2651.25 1124.5H2622.75C2620.68 1124.5 2619 1122.82 2619 1120.75C2619 1118.68 2620.68 1117 2622.75 1117H2651.25Z" fill="black"/>
<path fill-rule="evenodd" clip-rule="evenodd" d="M2637 1057C2650.81 1057 2662 1068.19 2662 1082C2662 1095.81 2650.81 1107 2637 1107C2623.19 1107 2612 1095.81 2612 1082C2612 1068.19 2623.19 1057 2637 1057ZM2632.91 1085.75C2633.37 1090.99 2634.75 1094.46 2636 1096.63C2636.34 1097.22 2636.69 1097.73 2637 1098.15C2637.32 1097.73 2637.66 1097.22 2638 1096.63C2639.25 1094.46 2640.63 1090.99 2641.09 1085.75H2632.91ZM2619.9 1085.75C2620.93 1090.45 2623.85 1094.45 2627.83 1096.9C2626.66 1093.99 2625.72 1090.32 2625.39 1085.75H2619.9ZM2648.61 1085.75C2648.28 1090.32 2647.34 1093.99 2646.17 1096.9C2650.15 1094.45 2653.07 1090.46 2654.1 1085.75H2648.61ZM2627.83 1067.09C2623.85 1069.55 2620.93 1073.54 2619.9 1078.25H2625.39C2625.72 1073.68 2626.66 1070.01 2627.83 1067.09ZM2646.17 1067.09C2647.34 1070.01 2648.28 1073.68 2648.61 1078.25H2654.1C2653.07 1073.54 2650.15 1069.55 2646.17 1067.09ZM2637 1065.85C2636.69 1066.27 2636.34 1066.77 2636 1067.37C2634.75 1069.54 2633.37 1073.01 2632.91 1078.25H2641.09C2640.63 1073.01 2639.25 1069.54 2638 1067.37C2637.66 1066.77 2637.32 1066.27 2637 1065.85Z" fill="black"/>
<path fill-rule="evenodd" clip-rule="evenodd" d="M2653.75 1036C2661.52 1036.03 2665.8 1036.25 2669.17 1037.96C2672.56 1039.69 2675.31 1042.44 2677.04 1045.83C2679 1049.68 2679 1054.72 2679 1064.8V1117.2L2679 1120.75C2678.97 1128.52 2678.75 1132.8 2677.04 1136.17L2676.7 1136.8C2674.97 1139.9 2672.35 1142.42 2669.17 1144.04L2668.81 1144.22C2665.49 1145.77 2661.25 1145.97 2653.75 1146L2650.2 1146H2595V1036H2650.2L2653.75 1036ZM2610 1131H2650.2C2655.49 1131 2658.55 1130.99 2660.8 1130.8C2661.79 1130.72 2662.31 1130.63 2662.53 1130.58C2662.96 1130.32 2663.32 1129.96 2663.58 1129.53C2663.63 1129.31 2663.72 1128.79 2663.8 1127.8C2663.99 1125.55 2664 1122.49 2664 1117.2V1064.8C2664 1059.51 2663.99 1056.45 2663.8 1054.2C2663.72 1053.21 2663.63 1052.69 2663.58 1052.47C2663.32 1052.04 2662.96 1051.68 2662.53 1051.42C2662.31 1051.37 2661.79 1051.28 2660.8 1051.2C2658.55 1051.01 2655.49 1051 2650.2 1051H2610V1131Z" fill="black"/>
</g>
</g>
<g id="Bold-M">
<g id="Vector_24">
<path d="M2354.38 1117C2356.38 1117 2358 1118.62 2358 1120.62C2358 1122.63 2356.38 1124.25 2354.38 1124.25H2325.63C2323.62 1124.25 2322 1122.63 2322 1120.62C2322 1118.62 2323.62 1117 2325.63 1117H2354.38Z" fill="black"/>
<path fill-rule="evenodd" clip-rule="evenodd" d="M2340 1057C2354.36 1057 2366 1068.64 2366 1083C2366 1097.36 2354.36 1109 2340 1109C2325.64 1109 2314 1097.36 2314 1083C2314 1068.64 2325.64 1057 2340 1057ZM2351.5 1086.65C2351.1 1092.17 2349.83 1096.38 2348.33 1099.52C2353.32 1097 2357.01 1092.29 2358.14 1086.65H2351.5ZM2321.86 1086.65C2322.99 1092.29 2326.68 1097 2331.67 1099.52C2330.17 1096.38 2328.9 1092.17 2328.5 1086.65H2321.86ZM2335.78 1086.65C2336.23 1091.97 2337.62 1095.49 2338.89 1097.69C2339.28 1098.36 2339.65 1098.91 2340 1099.36C2340.35 1098.91 2340.73 1098.36 2341.11 1097.69C2342.38 1095.49 2343.77 1091.97 2344.23 1086.65H2335.78ZM2331.67 1066.48C2326.67 1069 2322.97 1073.74 2321.85 1079.4H2328.5C2328.89 1073.86 2330.17 1069.63 2331.67 1066.48ZM2348.33 1066.48C2349.83 1069.63 2351.11 1073.85 2351.5 1079.4H2358.15C2357.03 1073.74 2353.33 1069 2348.33 1066.48ZM2340 1066.63C2339.65 1067.09 2339.28 1067.64 2338.89 1068.31C2337.62 1070.51 2336.22 1074.05 2335.77 1079.4H2344.23C2343.78 1074.05 2342.38 1070.51 2341.11 1068.31C2340.73 1067.64 2340.35 1067.09 2340 1066.63Z" fill="black"/>
<path fill-rule="evenodd" clip-rule="evenodd" d="M2354.8 1037C2364.32 1037 2369.08 1037 2372.72 1038.85C2375.92 1040.48 2378.52 1043.08 2380.15 1046.28C2382 1049.92 2382 1054.68 2382 1064.2V1117.8C2382 1127.32 2382 1132.08 2380.15 1135.72L2379.83 1136.31C2378.19 1139.24 2375.72 1141.62 2372.72 1143.15L2372.37 1143.32C2368.78 1145 2364.02 1145 2354.8 1145H2298V1037H2354.8ZM2308.75 1134.25H2354.8C2359.74 1134.25 2362.79 1134.24 2365.09 1134.05C2367.26 1133.88 2367.79 1133.59 2367.84 1133.57C2369.01 1132.97 2369.97 1132.01 2370.57 1130.84C2370.59 1130.79 2370.88 1130.26 2371.05 1128.09C2371.24 1125.79 2371.25 1122.74 2371.25 1117.8V1064.2C2371.25 1059.26 2371.24 1056.21 2371.05 1053.91C2370.88 1051.74 2370.59 1051.21 2370.57 1051.16C2369.97 1049.99 2369.01 1049.03 2367.84 1048.43C2367.79 1048.41 2367.26 1048.12 2365.09 1047.95C2362.79 1047.76 2359.74 1047.75 2354.8 1047.75H2308.75V1134.25Z" fill="black"/>
</g>
</g>
<g id="Semibold-M">
<g id="Vector_25">
<path d="M2057.5 1117.5C2059.43 1117.5 2061 1119.07 2061 1121C2061 1122.93 2059.43 1124.5 2057.5 1124.5H2028.5C2026.57 1124.5 2025 1122.93 2025 1121C2025 1119.07 2026.57 1117.5 2028.5 1117.5H2057.5Z" fill="black"/>
<path fill-rule="evenodd" clip-rule="evenodd" d="M2043 1057C2057.36 1057 2069 1068.64 2069 1083C2069 1097.36 2057.36 1109 2043 1109C2028.64 1109 2017 1097.36 2017 1083C2017 1068.64 2028.64 1057 2043 1057ZM2054.37 1086.5C2053.92 1092.67 2052.31 1097.22 2050.49 1100.46C2056.23 1098 2060.5 1092.8 2061.68 1086.5H2054.37ZM2024.32 1086.5C2025.5 1092.8 2029.77 1098 2035.51 1100.46C2033.69 1097.22 2032.08 1092.67 2031.63 1086.5H2024.32ZM2038.65 1086.5C2039.12 1091.88 2040.61 1095.44 2041.98 1097.67C2042.33 1098.23 2042.68 1098.72 2043 1099.13C2043.32 1098.72 2043.67 1098.23 2044.02 1097.67C2045.39 1095.44 2046.89 1091.88 2047.35 1086.5H2038.65ZM2035.51 1065.53C2029.77 1068 2025.5 1073.2 2024.32 1079.5H2031.63C2032.08 1073.33 2033.69 1068.78 2035.51 1065.53ZM2050.49 1065.53C2052.31 1068.78 2053.92 1073.33 2054.37 1079.5H2061.68C2060.5 1073.2 2056.23 1068 2050.49 1065.53ZM2043 1066.87C2042.68 1067.28 2042.33 1067.77 2041.98 1068.33C2040.61 1070.56 2039.12 1074.12 2038.65 1079.5H2047.35C2046.89 1074.12 2045.39 1070.56 2044.02 1068.33C2043.67 1067.77 2043.32 1067.28 2043 1066.87Z" fill="black"/>
<path fill-rule="evenodd" clip-rule="evenodd" d="M2062.56 1037.5C2069.46 1037.53 2073.27 1037.72 2076.26 1039.24C2079.27 1040.78 2081.72 1043.23 2083.26 1046.24C2085 1049.66 2085 1054.14 2085 1063.1L2085 1122.06C2084.97 1128.96 2084.78 1132.77 2083.26 1135.76C2081.72 1138.77 2079.27 1141.22 2076.26 1142.76C2073.27 1144.28 2069.46 1144.47 2062.56 1144.5L2001 1144.5V1037.5L2062.56 1037.5ZM2011.75 1133.75H2059.4C2064.06 1133.75 2066.9 1133.74 2069.03 1133.57C2070.02 1133.49 2070.62 1133.39 2070.98 1133.3C2071.15 1133.26 2071.26 1133.23 2071.31 1133.21C2071.36 1133.19 2071.38 1133.18 2071.38 1133.18C2072.37 1132.67 2073.17 1131.87 2073.68 1130.88C2073.68 1130.88 2073.69 1130.86 2073.71 1130.81C2073.73 1130.76 2073.76 1130.65 2073.8 1130.48C2073.89 1130.12 2073.99 1129.52 2074.07 1128.53C2074.24 1126.4 2074.25 1123.56 2074.25 1118.9V1063.1C2074.25 1058.44 2074.24 1055.6 2074.07 1053.47C2073.99 1052.48 2073.89 1051.88 2073.8 1051.52C2073.76 1051.35 2073.73 1051.24 2073.71 1051.19C2073.69 1051.14 2073.68 1051.12 2073.68 1051.12C2073.17 1050.13 2072.37 1049.33 2071.38 1048.82C2071.38 1048.82 2071.36 1048.81 2071.31 1048.79C2071.26 1048.77 2071.15 1048.74 2070.98 1048.7C2070.62 1048.61 2070.02 1048.51 2069.03 1048.43C2066.9 1048.26 2064.06 1048.25 2059.4 1048.25H2011.75V1133.75Z" fill="black"/>
</g>
</g>
<g id="Medium-M">
<g id="Vector_26">
<path d="M1761.75 1117.5C1763.55 1117.5 1765 1118.96 1765 1120.75C1765 1122.54 1763.55 1124 1761.75 1124H1732.25C1730.46 1124 1729 1122.54 1729 1120.75C1729 1118.96 1730.46 1117.5 1732.25 1117.5H1761.75Z" fill="black"/>
<path fill-rule="evenodd" clip-rule="evenodd" d="M1747 1057C1761.36 1057 1773 1068.64 1773 1083C1773 1097.36 1761.36 1109 1747 1109C1732.64 1109 1721 1097.36 1721 1083C1721 1068.64 1732.64 1057 1747 1057ZM1758.14 1086.25C1757.68 1093.08 1755.79 1097.92 1753.77 1101.2C1753.74 1101.24 1753.72 1101.28 1753.69 1101.32C1760.18 1098.95 1765.06 1093.23 1766.23 1086.25H1758.14ZM1727.77 1086.25C1728.94 1093.23 1733.82 1098.95 1740.31 1101.32C1740.28 1101.28 1740.26 1101.24 1740.23 1101.2C1738.21 1097.92 1736.32 1093.08 1735.86 1086.25H1727.77ZM1742.38 1086.25C1742.82 1091.82 1744.36 1095.5 1745.77 1097.8C1746.19 1098.49 1746.62 1099.06 1747 1099.53C1747.39 1099.06 1747.81 1098.49 1748.23 1097.8C1749.64 1095.5 1751.18 1091.82 1751.62 1086.25H1742.38ZM1740.31 1064.68C1733.82 1067.05 1728.94 1072.77 1727.77 1079.75H1735.86C1736.32 1072.92 1738.21 1068.08 1740.23 1064.8C1740.26 1064.76 1740.28 1064.72 1740.31 1064.68ZM1753.77 1064.8C1755.79 1068.08 1757.68 1072.92 1758.14 1079.75H1766.23C1765.06 1072.77 1760.18 1067.05 1753.69 1064.68C1753.72 1064.72 1753.74 1064.76 1753.77 1064.8ZM1747 1066.46C1746.62 1066.93 1746.19 1067.51 1745.77 1068.2C1744.36 1070.5 1742.82 1074.18 1742.38 1079.75H1751.62C1751.18 1074.18 1749.64 1070.5 1748.23 1068.2C1747.81 1067.51 1747.39 1066.93 1747 1066.46Z" fill="black"/>
<path fill-rule="evenodd" clip-rule="evenodd" d="M1765 1038C1773.4 1038 1777.6 1038 1780.81 1039.63C1783.63 1041.07 1785.93 1043.37 1787.37 1046.19C1789 1049.4 1789 1053.6 1789 1062L1789 1122.96C1788.98 1129.44 1788.8 1133 1787.37 1135.81L1787.09 1136.33C1785.64 1138.92 1783.46 1141.02 1780.81 1142.37L1780.51 1142.51C1777.74 1143.81 1774.2 1143.98 1767.96 1144L1705 1144V1038H1765ZM1714.42 1134.58H1765C1769.36 1134.58 1772.06 1134.57 1774.09 1134.41C1776 1134.25 1776.48 1134 1776.53 1133.97C1777.58 1133.44 1778.44 1132.58 1778.97 1131.53C1779 1131.48 1779.25 1131 1779.41 1129.08C1779.57 1127.06 1779.58 1124.36 1779.58 1120V1062C1779.58 1057.64 1779.57 1054.94 1779.41 1052.92C1779.25 1051 1779 1050.52 1778.97 1050.47C1778.44 1049.42 1777.58 1048.56 1776.53 1048.03C1776.48 1048 1776 1047.75 1774.09 1047.59C1772.06 1047.43 1769.36 1047.42 1765 1047.42H1714.42V1134.58Z" fill="black"/>
</g>
</g>
<g id="Regular-M">
<g id="Vector_27">
<path d="M1464.5 1117C1466.43 1117 1468 1118.57 1468 1120.5C1468 1122.43 1466.43 1124 1464.5 1124H1435.5C1433.57 1124 1432 1122.43 1432 1120.5C1432 1118.57 1433.57 1117 1435.5 1117H1464.5Z" fill="black"/>
<path fill-rule="evenodd" clip-rule="evenodd" d="M1450 1057C1464.36 1057 1476 1068.64 1476 1083C1476 1097.36 1464.36 1109 1450 1109C1435.64 1109 1424 1097.36 1424 1083C1424 1068.64 1435.64 1057 1450 1057ZM1461.38 1086.5C1460.95 1092.43 1459.47 1096.98 1457.78 1100.34C1463.37 1097.82 1467.52 1092.69 1468.68 1086.5H1461.38ZM1431.32 1086.5C1432.48 1092.69 1436.63 1097.82 1442.21 1100.34C1440.53 1096.98 1439.05 1092.43 1438.62 1086.5H1431.32ZM1445.65 1086.5C1446.11 1091.97 1447.62 1095.79 1449.04 1098.26C1449.37 1098.84 1449.69 1099.34 1450 1099.78C1450.31 1099.34 1450.63 1098.84 1450.96 1098.26C1452.38 1095.79 1453.89 1091.97 1454.35 1086.5H1445.65ZM1442.21 1065.66C1436.63 1068.18 1432.48 1073.31 1431.32 1079.5H1438.62C1439.05 1073.57 1440.53 1069.02 1442.21 1065.66ZM1457.78 1065.66C1459.47 1069.02 1460.95 1073.57 1461.38 1079.5H1468.68C1467.52 1073.31 1463.37 1068.18 1457.78 1065.66ZM1450 1066.22C1449.69 1066.66 1449.37 1067.16 1449.04 1067.74C1447.62 1070.21 1446.11 1074.03 1445.65 1079.5H1454.35C1453.89 1074.03 1452.38 1070.21 1450.96 1067.74C1450.63 1067.16 1450.31 1066.66 1450 1066.22Z" fill="black"/>
<path fill-rule="evenodd" clip-rule="evenodd" d="M1469.6 1038.5C1477.44 1038.5 1481.36 1038.5 1484.36 1040.03C1486.99 1041.37 1489.13 1043.51 1490.47 1046.14C1492 1049.14 1492 1053.06 1492 1060.9V1121.1C1492 1128.94 1492 1132.86 1490.47 1135.86C1489.13 1138.49 1486.99 1140.63 1484.36 1141.97C1481.36 1143.5 1477.44 1143.5 1469.6 1143.5H1408V1038.5H1469.6ZM1416 1135.5H1469.6C1473.65 1135.5 1476.21 1135.49 1478.14 1135.34C1479.98 1135.19 1480.54 1134.94 1480.72 1134.85C1481.85 1134.27 1482.77 1133.35 1483.35 1132.22C1483.44 1132.04 1483.69 1131.48 1483.84 1129.64C1483.99 1127.71 1484 1125.15 1484 1121.1V1060.9C1484 1056.85 1483.99 1054.29 1483.84 1052.36C1483.69 1050.52 1483.44 1049.96 1483.35 1049.78C1482.77 1048.65 1481.85 1047.73 1480.72 1047.15C1480.54 1047.06 1479.98 1046.81 1478.14 1046.66C1476.21 1046.51 1473.65 1046.5 1469.6 1046.5H1416V1135.5Z" fill="black"/>
</g>
</g>
<g id="Light-M">
<g id="Vector_28">
<path d="M1168.25 1119C1169.77 1119 1171 1120.23 1171 1121.75C1171 1123.27 1169.77 1124.5 1168.25 1124.5H1137.75C1136.23 1124.5 1135 1123.27 1135 1121.75C1135 1120.23 1136.23 1119 1137.75 1119H1168.25Z" fill="black"/>
<path fill-rule="evenodd" clip-rule="evenodd" d="M1153 1056.5C1167.36 1056.5 1179 1068.14 1179 1082.5C1179 1096.86 1167.36 1108.5 1153 1108.5C1138.64 1108.5 1127 1096.86 1127 1082.5C1127 1068.14 1138.64 1056.5 1153 1056.5ZM1163.44 1085C1163.07 1092.16 1161.17 1097.5 1159.21 1101.18C1158.76 1102.02 1158.31 1102.77 1157.87 1103.43C1166.49 1101.38 1173.05 1094.02 1173.9 1085H1163.44ZM1132.1 1085C1132.95 1094.02 1139.51 1101.38 1148.13 1103.43C1147.69 1102.77 1147.24 1102.02 1146.79 1101.18C1144.84 1097.5 1142.93 1092.16 1142.56 1085H1132.1ZM1147.57 1085C1147.93 1091.26 1149.59 1095.8 1151.21 1098.82C1151.83 1100 1152.46 1100.95 1153 1101.69C1153.54 1100.95 1154.17 1100 1154.79 1098.82C1156.41 1095.8 1158.07 1091.26 1158.43 1085H1147.57ZM1147.39 1062.76C1139.45 1064.95 1133.4 1071.69 1132.22 1080H1142.56C1142.93 1072.84 1144.84 1067.5 1146.79 1063.82C1146.99 1063.45 1147.19 1063.1 1147.39 1062.76ZM1158.61 1062.76C1158.81 1063.1 1159.01 1063.45 1159.21 1063.82C1161.17 1067.5 1163.07 1072.84 1163.44 1080H1173.79C1172.6 1071.69 1166.55 1064.95 1158.61 1062.76ZM1153 1063.31C1152.46 1064.05 1151.83 1065 1151.21 1066.18C1149.59 1069.2 1147.93 1073.74 1147.57 1080H1158.43C1158.07 1073.74 1156.41 1069.2 1154.79 1066.18C1154.17 1065 1153.54 1064.05 1153 1063.31Z" fill="black"/>
<path fill-rule="evenodd" clip-rule="evenodd" d="M1178.57 1038.5C1183.32 1038.52 1185.94 1038.65 1187.99 1039.7C1190.06 1040.75 1191.75 1042.44 1192.8 1044.51C1194 1046.86 1194 1049.94 1194 1056.1L1194 1126.07C1193.98 1130.82 1193.85 1133.44 1192.8 1135.49L1192.6 1135.88C1191.53 1137.77 1189.93 1139.31 1187.99 1140.3L1187.77 1140.41C1185.75 1141.36 1183.15 1141.48 1178.57 1141.5L1112 1141.5V1038.5L1178.57 1038.5ZM1117.5 1136H1176.4C1179.57 1136 1181.62 1136 1183.18 1135.87C1184.67 1135.75 1185.23 1135.54 1185.5 1135.4C1186.53 1134.87 1187.37 1134.03 1187.9 1133C1188.04 1132.73 1188.25 1132.17 1188.37 1130.68C1188.5 1129.12 1188.5 1127.07 1188.5 1123.9V1056.1C1188.5 1052.93 1188.5 1050.88 1188.37 1049.32C1188.25 1047.83 1188.04 1047.27 1187.9 1047C1187.37 1045.97 1186.53 1045.13 1185.5 1044.6C1185.23 1044.46 1184.67 1044.25 1183.18 1044.13C1181.62 1044 1179.57 1044 1176.4 1044H1117.5V1136Z" fill="black"/>
</g>
</g>
<g id="Thin-M">
<g id="Vector_29">
<path d="M872 1120.99C873.105 1120.99 874 1121.89 874 1122.99C874 1124.1 873.105 1124.99 872 1124.99H840C838.896 1124.99 838 1124.1 838 1122.99C838 1121.89 838.896 1120.99 840 1120.99H872Z" fill="black"/>
<path fill-rule="evenodd" clip-rule="evenodd" d="M856 1058.49C869.807 1058.49 881 1069.69 881 1083.49C881 1097.3 869.807 1108.49 856 1108.49C842.193 1108.49 831 1097.3 831 1083.49C831 1069.69 842.193 1058.49 856 1058.49ZM865.958 1085.49C865.657 1092.82 863.734 1098.24 861.765 1101.93C861.225 1102.95 860.682 1103.82 860.171 1104.58C869.295 1102.74 876.277 1094.99 876.947 1085.49H865.958ZM835.054 1085.49C835.724 1094.99 842.705 1102.74 851.828 1104.58C851.318 1103.82 850.775 1102.95 850.236 1101.93C848.266 1098.24 846.343 1092.82 846.042 1085.49H835.054ZM850.045 1085.49C850.342 1092.1 852.076 1096.88 853.765 1100.05C854.567 1101.56 855.365 1102.7 856 1103.51C856.636 1102.7 857.433 1101.56 858.236 1100.05C859.925 1096.88 861.659 1092.1 861.955 1085.49H850.045ZM851.078 1063.57C842.643 1065.6 836.19 1072.72 835.149 1081.49H846.042C846.343 1074.17 848.266 1068.74 850.236 1065.05C850.518 1064.52 850.8 1064.03 851.078 1063.57ZM860.921 1063.57C861.2 1064.03 861.483 1064.52 861.765 1065.05C863.734 1068.74 865.657 1074.17 865.958 1081.49H876.852C875.811 1072.72 869.357 1065.6 860.921 1063.57ZM856 1063.47C855.364 1064.28 854.568 1065.43 853.765 1066.93C852.076 1070.1 850.342 1074.89 850.045 1081.49H861.955C861.659 1074.89 859.925 1070.1 858.236 1066.93C857.433 1065.43 856.636 1064.28 856 1063.47Z" fill="black"/>
<path fill-rule="evenodd" clip-rule="evenodd" d="M881.571 1039.49C886.32 1039.51 888.936 1039.64 890.995 1040.69C893.064 1041.75 894.747 1043.43 895.801 1045.5C897 1047.85 897 1050.93 897 1057.09L896.998 1127.06C896.982 1131.81 896.85 1134.43 895.801 1136.49L895.596 1136.87C894.535 1138.76 892.935 1140.3 890.995 1141.29L890.772 1141.4C888.746 1142.35 886.15 1142.47 881.571 1142.49L815 1142.49V1039.49L881.571 1039.49ZM818.42 1139.07H879.401C882.537 1139.07 884.684 1139.07 886.347 1138.93C887.97 1138.8 888.828 1138.56 889.442 1138.25C890.868 1137.52 892.028 1136.36 892.754 1134.93C893.067 1134.32 893.309 1133.46 893.442 1131.84C893.578 1130.18 893.58 1128.03 893.58 1124.89V1057.09C893.58 1053.96 893.578 1051.81 893.442 1050.15C893.309 1048.52 893.067 1047.66 892.754 1047.05C892.028 1045.62 890.868 1044.46 889.442 1043.74C888.828 1043.43 887.97 1043.18 886.347 1043.05C884.684 1042.91 882.537 1042.91 879.401 1042.91H818.42V1139.07Z" fill="black"/>
</g>
</g>
<g id="Ultralight-M">
<g id="Vector_30">
<path d="M576.29 1122C577.235 1122 578 1122.77 578 1123.71C578 1124.65 577.235 1125.42 576.29 1125.42H543.71C542.766 1125.42 542 1124.65 542 1123.71C542 1122.77 542.766 1122 543.71 1122H576.29Z" fill="black"/>
<path fill-rule="evenodd" clip-rule="evenodd" d="M560 1058.5C573.807 1058.5 585 1069.69 585 1083.5C585 1097.31 573.807 1108.5 560 1108.5C546.193 1108.5 535 1097.31 535 1083.5C535 1069.69 546.193 1058.5 560 1058.5ZM569.671 1085.42C569.381 1092.74 567.465 1098.14 565.509 1101.8C564.913 1102.92 564.312 1103.88 563.757 1104.67C573.224 1103 580.554 1095.14 581.414 1085.42H569.671ZM538.586 1085.42C539.447 1095.14 546.776 1103 556.242 1104.67C555.688 1103.88 555.088 1102.92 554.491 1101.8C552.535 1098.14 550.619 1092.74 550.329 1085.42H538.586ZM553.752 1085.42C554.039 1092.12 555.792 1096.98 557.509 1100.2C558.419 1101.9 559.323 1103.15 560 1103.98C560.678 1103.15 561.582 1101.9 562.491 1100.2C564.208 1096.98 565.962 1092.12 566.248 1085.42H553.752ZM556.242 1062.33C546.64 1064.02 539.236 1072.09 538.553 1082H550.313C550.545 1074.47 552.498 1068.93 554.491 1065.2C555.088 1064.08 555.688 1063.12 556.242 1062.33ZM563.757 1062.33C564.312 1063.12 564.913 1064.08 565.509 1065.2C567.502 1068.93 569.456 1074.47 569.688 1082H581.448C580.764 1072.09 573.36 1064.02 563.757 1062.33ZM560 1063.02C559.323 1063.85 558.419 1065.1 557.509 1066.8C555.757 1070.09 553.965 1075.08 553.736 1082H566.265C566.035 1075.08 564.244 1070.09 562.491 1066.8C561.582 1065.1 560.678 1063.85 560 1063.02Z" fill="black"/>
<path fill-rule="evenodd" clip-rule="evenodd" d="M585.571 1039.5C590.319 1039.52 592.935 1039.65 594.994 1040.7C597.064 1041.75 598.746 1043.44 599.801 1045.51C601 1047.86 601 1050.94 601 1057.1L600.998 1127.07C600.982 1131.82 600.85 1134.44 599.801 1136.49L599.596 1136.88C598.535 1138.77 596.935 1140.31 594.994 1141.3L594.772 1141.41C592.746 1142.36 590.15 1142.48 585.571 1142.5L519 1142.5V1039.5L585.571 1039.5ZM521.401 1140.1H583.401C586.52 1140.1 588.716 1140.1 590.43 1139.96C592.115 1139.82 593.123 1139.56 593.905 1139.16C595.523 1138.34 596.839 1137.02 597.663 1135.4C598.062 1134.62 598.321 1133.62 598.458 1131.93C598.598 1130.22 598.6 1128.02 598.6 1124.9V1057.1C598.6 1053.98 598.598 1051.78 598.458 1050.07C598.321 1048.38 598.062 1047.38 597.663 1046.6C596.839 1044.98 595.523 1043.66 593.905 1042.84C593.123 1042.44 592.115 1042.18 590.43 1042.04C588.716 1041.9 586.52 1041.9 583.401 1041.9H521.401V1140.1Z" fill="black"/>
</g>
</g>
<g id="Black-S">
<g id="Vector_31">
<path d="M2945 678C2946.66 678 2948 679.343 2948 681C2948 682.657 2946.66 684 2945 684H2921C2919.34 684 2918 682.657 2918 681C2918 679.343 2919.34 678 2921 678H2945Z" fill="black"/>
<path fill-rule="evenodd" clip-rule="evenodd" d="M2933 633C2944.05 633 2953 641.954 2953 653C2953 664.046 2944.05 673 2933 673C2921.95 673 2913 664.046 2913 653C2913 641.954 2921.95 633 2933 633ZM2919.32 656C2920.22 660.121 2922.94 663.563 2926.59 665.447C2925.48 662.957 2924.49 659.793 2924.14 656H2919.32ZM2941.86 656C2941.51 659.793 2940.52 662.957 2939.41 665.447C2943.06 663.563 2945.78 660.121 2946.68 656H2941.86ZM2930.17 656C2930.58 659.491 2931.62 662.252 2932.66 664.237C2932.77 664.454 2932.89 664.661 2933 664.859C2933.11 664.661 2933.23 664.454 2933.34 664.237C2934.38 662.252 2935.42 659.491 2935.83 656H2930.17ZM2926.59 640.552C2922.94 642.436 2920.22 645.879 2919.32 650H2924.14C2924.49 646.207 2925.48 643.042 2926.59 640.552ZM2939.41 640.552C2940.52 643.042 2941.51 646.207 2941.86 650H2946.68C2945.78 645.879 2943.06 642.436 2939.41 640.552ZM2933 641.14C2932.89 641.338 2932.77 641.545 2932.66 641.763C2931.62 643.748 2930.58 646.509 2930.17 650H2935.83C2935.42 646.509 2934.38 643.748 2933.34 641.763C2933.23 641.545 2933.11 641.338 2933 641.14Z" fill="black"/>
<path fill-rule="evenodd" clip-rule="evenodd" d="M2945.56 617.003C2952.46 617.027 2956.27 617.218 2959.26 618.744C2962.27 620.278 2964.72 622.726 2966.26 625.736C2968 629.159 2968 633.639 2968 642.6L2968 681.557C2967.97 688.464 2967.78 692.269 2966.26 695.264C2964.72 698.274 2962.27 700.722 2959.26 702.256C2956.27 703.782 2952.46 703.973 2945.56 703.997L2898 704V617L2945.56 617.003ZM2912 690H2942.4C2947.11 690 2949.8 689.989 2951.77 689.828C2952.48 689.77 2952.9 689.704 2953.11 689.663C2953.33 689.516 2953.52 689.328 2953.66 689.107C2953.7 688.896 2953.77 688.477 2953.83 687.769C2953.99 685.803 2954 683.111 2954 678.4V642.6C2954 637.889 2953.99 635.197 2953.83 633.231C2953.77 632.522 2953.7 632.103 2953.66 631.892C2953.52 631.671 2953.33 631.483 2953.11 631.336C2952.9 631.295 2952.48 631.23 2951.77 631.172C2949.8 631.011 2947.11 631 2942.4 631H2912V690Z" fill="black"/>
</g>
</g>
<g id="Heavy-S">
<g id="Vector_32">
<path d="M2649 679C2650.66 679 2652 680.343 2652 682C2652 683.657 2650.66 685 2649 685H2625C2623.34 685 2622 683.657 2622 682C2622 680.343 2623.34 679 2625 679H2649Z" fill="black"/>
<path fill-rule="evenodd" clip-rule="evenodd" d="M2637 634C2648.05 634 2657 642.954 2657 654C2657 665.046 2648.05 674 2637 674C2625.95 674 2617 665.046 2617 654C2617 642.954 2625.95 634 2637 634ZM2623.32 657C2624.22 661.121 2626.94 664.563 2630.59 666.447C2629.48 663.957 2628.49 660.793 2628.14 657H2623.32ZM2645.86 657C2645.51 660.793 2644.52 663.957 2643.41 666.447C2647.06 664.563 2649.78 661.121 2650.68 657H2645.86ZM2634.17 657C2634.58 660.491 2635.63 663.252 2636.66 665.237C2636.77 665.454 2636.89 665.661 2637 665.859C2637.11 665.661 2637.23 665.454 2637.34 665.237C2638.38 663.252 2639.42 660.491 2639.83 657H2634.17ZM2630.59 641.552C2626.94 643.436 2624.22 646.879 2623.32 651H2628.14C2628.49 647.207 2629.48 644.042 2630.59 641.552ZM2643.41 641.552C2644.52 644.042 2645.51 647.207 2645.86 651H2650.68C2649.78 646.879 2647.06 643.436 2643.41 641.552ZM2637 642.14C2636.89 642.338 2636.77 642.545 2636.66 642.763C2635.63 644.748 2634.58 647.509 2634.17 651H2639.83C2639.42 647.509 2638.38 644.748 2637.34 642.763C2637.23 642.545 2637.11 642.338 2637 642.14Z" fill="black"/>
<path fill-rule="evenodd" clip-rule="evenodd" d="M2647.5 618C2655.9 618 2660.1 618 2663.31 619.635C2666.13 621.073 2668.43 623.368 2669.87 626.19C2671.5 629.399 2671.5 633.599 2671.5 642L2671.5 682.96C2671.48 689.435 2671.3 693.002 2669.87 695.81L2669.59 696.333C2668.14 698.916 2665.96 701.017 2663.31 702.365L2663.01 702.514C2660.24 703.808 2656.7 703.976 2650.46 703.997L2602.5 704V618H2647.5ZM2615.5 691H2647.5C2651.92 691 2654.44 690.99 2656.29 690.839C2656.99 690.782 2657.39 690.716 2657.59 690.677C2657.82 690.524 2658.02 690.323 2658.18 690.087C2658.22 689.891 2658.28 689.489 2658.34 688.793C2658.49 686.944 2658.5 684.415 2658.5 680V642C2658.5 637.585 2658.49 635.056 2658.34 633.207C2658.28 632.51 2658.22 632.108 2658.18 631.912C2658.02 631.676 2657.82 631.475 2657.59 631.322C2657.39 631.284 2656.99 631.218 2656.29 631.161C2654.44 631.01 2651.92 631 2647.5 631H2615.5V691Z" fill="black"/>
</g>
</g>
<g id="Bold-S">
<g id="Vector_33">
<path d="M2352 680.992C2353.66 680.992 2355 682.335 2355 683.992C2355 685.649 2353.66 686.992 2352 686.992H2328C2326.34 686.992 2325 685.649 2325 683.992C2325 682.335 2326.34 680.992 2328 680.992H2352Z" fill="black"/>
<path fill-rule="evenodd" clip-rule="evenodd" d="M2340 632.992C2351.05 632.992 2360 641.946 2360 652.992C2360 664.038 2351.05 672.992 2340 672.992C2328.95 672.992 2320 664.038 2320 652.992C2320 641.946 2328.95 632.992 2340 632.992ZM2326.32 655.992C2327.22 660.113 2329.94 663.555 2333.59 665.439C2332.48 662.95 2331.49 659.785 2331.14 655.992H2326.32ZM2348.86 655.992C2348.51 659.785 2347.52 662.95 2346.41 665.439C2350.06 663.555 2352.78 660.113 2353.68 655.992H2348.86ZM2337.17 655.992C2337.58 659.483 2338.62 662.245 2339.66 664.229C2339.77 664.446 2339.89 664.653 2340 664.852C2340.11 664.653 2340.23 664.446 2340.34 664.229C2341.38 662.245 2342.42 659.483 2342.83 655.992H2337.17ZM2333.59 640.544C2329.94 642.428 2327.22 645.871 2326.32 649.992H2331.14C2331.49 646.199 2332.48 643.034 2333.59 640.544ZM2346.41 640.544C2347.52 643.034 2348.51 646.199 2348.86 649.992H2353.68C2352.78 645.871 2350.06 642.428 2346.41 640.544ZM2340 641.132C2339.89 641.33 2339.77 641.538 2339.66 641.755C2338.62 643.74 2337.58 646.501 2337.17 649.992H2342.83C2342.42 646.501 2341.38 643.74 2340.34 641.755C2340.23 641.538 2340.11 641.33 2340 641.132Z" fill="black"/>
<path fill-rule="evenodd" clip-rule="evenodd" d="M2351.6 617.992C2359.44 617.992 2363.36 617.993 2366.36 619.519C2368.99 620.861 2371.13 623.002 2372.47 625.637C2374 628.631 2374 632.552 2374 640.393V680.592C2374 688.432 2374 692.353 2372.47 695.348C2371.13 697.982 2368.99 700.124 2366.36 701.466C2363.74 702.801 2360.41 702.968 2354.36 702.989L2351.6 702.992H2306V617.992H2351.6ZM2317 691.992H2351.6C2355.7 691.992 2358.12 691.984 2359.9 691.838C2360.84 691.761 2361.29 691.662 2361.44 691.622C2361.94 691.347 2362.35 690.934 2362.63 690.43C2362.67 690.281 2362.77 689.837 2362.85 688.892C2362.99 687.109 2363 684.694 2363 680.592V640.393C2363 636.291 2362.99 633.875 2362.85 632.093C2362.77 631.146 2362.67 630.702 2362.63 630.554C2362.35 630.05 2361.94 629.637 2361.44 629.361C2361.29 629.322 2360.84 629.224 2359.9 629.146C2358.12 629.001 2355.7 628.992 2351.6 628.992H2317V691.992Z" fill="black"/>
</g>
</g>
<g id="Semibold-S">
<g id="Vector_34">
<path d="M2055 681.992C2056.66 681.992 2058 683.335 2058 684.992C2058 686.649 2056.66 687.992 2055 687.992H2031C2029.34 687.992 2028 686.649 2028 684.992C2028 683.335 2029.34 681.992 2031 681.992H2055Z" fill="black"/>
<path fill-rule="evenodd" clip-rule="evenodd" d="M2043 632.992C2054.05 632.992 2063 641.946 2063 652.992C2063 664.038 2054.05 672.992 2043 672.992C2031.95 672.992 2023 664.038 2023 652.992C2023 641.946 2031.95 632.992 2043 632.992ZM2029.22 655.492C2030.01 659.834 2032.79 663.479 2036.59 665.439C2035.43 662.841 2034.41 659.507 2034.1 655.492H2029.22ZM2051.9 655.492C2051.59 659.507 2050.57 662.841 2049.41 665.439C2053.21 663.479 2055.99 659.834 2056.78 655.492H2051.9ZM2040.12 655.492C2040.48 659.221 2041.58 662.151 2042.66 664.229C2042.77 664.446 2042.89 664.653 2043 664.852C2043.11 664.653 2043.23 664.446 2043.34 664.229C2044.42 662.151 2045.53 659.221 2045.88 655.492H2040.12ZM2036.59 640.544C2032.79 642.504 2030.01 646.151 2029.22 650.492H2034.1C2034.41 646.477 2035.43 643.142 2036.59 640.544ZM2049.41 640.544C2050.57 643.143 2051.59 646.476 2051.9 650.492H2056.78C2055.99 646.15 2053.21 642.504 2049.41 640.544ZM2043 641.132C2042.89 641.33 2042.77 641.538 2042.66 641.755C2041.58 643.834 2040.48 646.764 2040.12 650.492H2045.88C2045.53 646.764 2044.42 643.834 2043.34 641.755C2043.23 641.538 2043.11 641.33 2043 641.132Z" fill="black"/>
<path fill-rule="evenodd" clip-rule="evenodd" d="M2057.3 618.992C2064.02 618.992 2067.38 618.992 2069.95 620.3C2072.21 621.45 2074.04 623.286 2075.19 625.544C2076.5 628.111 2076.5 631.472 2076.5 638.192V683.792C2076.5 690.513 2076.5 693.873 2075.19 696.44L2074.97 696.858C2073.81 698.925 2072.07 700.606 2069.95 701.685L2069.71 701.803C2067.5 702.839 2064.66 702.972 2059.67 702.989L2057.3 702.992H2009.5V618.992H2057.3ZM2018.5 693.992H2057.3C2060.81 693.992 2062.9 693.985 2064.45 693.858C2065.4 693.781 2065.79 693.677 2065.9 693.645C2066.43 693.362 2066.87 692.926 2067.15 692.391C2067.19 692.285 2067.29 691.888 2067.37 690.94C2067.49 689.391 2067.5 687.3 2067.5 683.792V638.192C2067.5 634.684 2067.49 632.593 2067.37 631.044C2067.29 630.094 2067.19 629.697 2067.15 629.593C2066.87 629.058 2066.43 628.621 2065.9 628.339C2065.79 628.306 2065.39 628.203 2064.45 628.126C2062.9 627.999 2060.81 627.992 2057.3 627.992H2018.5V693.992Z" fill="black"/>
</g>
</g>
<g id="Medium-S">
<g id="Vector_35">
<path d="M1759 681.992C1760.66 681.992 1762 683.335 1762 684.992C1762 686.649 1760.66 687.992 1759 687.992H1735C1733.34 687.992 1732 686.649 1732 684.992C1732 683.335 1733.34 681.992 1735 681.992H1759Z" fill="black"/>
<path fill-rule="evenodd" clip-rule="evenodd" d="M1747 632.992C1758.05 632.992 1767 641.946 1767 652.992C1767 664.038 1758.05 672.992 1747 672.992C1735.95 672.992 1727 664.038 1727 652.992C1727 641.946 1735.95 632.992 1747 632.992ZM1733.22 655.492C1734.01 659.834 1736.79 663.479 1740.59 665.439C1739.43 662.841 1738.41 659.507 1738.1 655.492H1733.22ZM1755.9 655.492C1755.59 659.507 1754.57 662.841 1753.41 665.439C1757.21 663.479 1760 659.834 1760.78 655.492H1755.9ZM1744.12 655.492C1744.48 659.221 1745.58 662.151 1746.66 664.229C1746.77 664.446 1746.89 664.653 1747 664.852C1747.11 664.653 1747.23 664.446 1747.34 664.229C1748.42 662.151 1749.53 659.221 1749.88 655.492H1744.12ZM1740.59 640.544C1736.79 642.504 1734.01 646.151 1733.22 650.492H1738.1C1738.41 646.477 1739.43 643.142 1740.59 640.544ZM1753.41 640.544C1754.57 643.143 1755.59 646.476 1755.9 650.492H1760.78C1760 646.15 1757.21 642.504 1753.41 640.544ZM1747 641.132C1746.89 641.33 1746.77 641.538 1746.66 641.755C1745.58 643.834 1744.48 646.764 1744.12 650.492H1749.88C1749.53 646.764 1748.42 643.834 1747.34 641.755C1747.23 641.538 1747.11 641.33 1747 641.132Z" fill="black"/>
<path fill-rule="evenodd" clip-rule="evenodd" d="M1761.3 618.992C1768.02 618.992 1771.38 618.992 1773.95 620.3C1776.21 621.45 1778.04 623.286 1779.19 625.544C1780.5 628.111 1780.5 631.472 1780.5 638.192V683.292C1780.5 690.013 1780.5 693.373 1779.19 695.94L1778.97 696.358C1777.81 698.425 1776.07 700.106 1773.95 701.185L1773.71 701.303C1771.17 702.492 1767.81 702.492 1761.3 702.492H1713.5V618.992H1761.3ZM1722 693.992H1761.3C1764.8 693.992 1766.92 693.985 1768.49 693.856C1769.59 693.767 1770 693.641 1770.09 693.607C1770.67 693.314 1771.15 692.869 1771.48 692.322L1771.62 692.087C1771.65 691.999 1771.77 691.588 1771.86 690.481C1771.99 688.907 1772 686.792 1772 683.292V638.192C1772 634.692 1771.99 632.578 1771.86 631.003C1771.77 629.896 1771.65 629.485 1771.62 629.397C1771.28 628.743 1770.75 628.211 1770.09 627.876C1770 627.842 1769.59 627.718 1768.49 627.628C1766.92 627.499 1764.8 627.492 1761.3 627.492H1722V693.992Z" fill="black"/>
</g>
</g>
<g id="Regular-S">
<g id="Vector_36">
<path d="M1462.5 682C1463.88 682 1465 683.119 1465 684.5C1465 685.881 1463.88 687 1462.5 687H1437.5C1436.12 687 1435 685.881 1435 684.5C1435 683.119 1436.12 682 1437.5 682H1462.5Z" fill="black"/>
<path fill-rule="evenodd" clip-rule="evenodd" d="M1450 633C1461.05 633 1470 641.954 1470 653C1470 664.046 1461.05 673 1450 673C1438.95 673 1430 664.046 1430 653C1430 641.954 1438.95 633 1450 633ZM1459.39 655.5C1458.95 660.356 1457.3 664.198 1455.64 666.925C1455.49 667.159 1455.35 667.384 1455.21 667.602C1460.45 665.733 1464.39 661.125 1465.3 655.5H1459.39ZM1434.7 655.5C1435.61 661.124 1439.55 665.732 1444.79 667.602C1444.65 667.384 1444.51 667.159 1444.36 666.925C1442.7 664.198 1441.05 660.356 1440.61 655.5H1434.7ZM1445.64 655.5C1446.05 659.247 1447.35 662.206 1448.64 664.325C1449.11 665.098 1449.58 665.757 1450 666.299C1450.42 665.757 1450.89 665.098 1451.36 664.325C1452.65 662.206 1453.95 659.247 1454.36 655.5H1445.64ZM1444.79 638.397C1439.55 640.267 1435.61 644.876 1434.7 650.5H1440.61C1441.05 645.644 1442.7 641.802 1444.36 639.075C1444.51 638.841 1444.65 638.615 1444.79 638.397ZM1455.21 638.397C1455.35 638.616 1455.49 638.841 1455.64 639.075C1457.3 641.802 1458.95 645.644 1459.39 650.5H1465.3C1464.39 644.875 1460.45 640.266 1455.21 638.397ZM1450 639.7C1449.58 640.242 1449.11 640.901 1448.64 641.675C1447.35 643.794 1446.05 646.753 1445.64 650.5H1454.36C1453.95 646.753 1452.65 643.794 1451.36 641.675C1450.89 640.901 1450.42 640.242 1450 639.7Z" fill="black"/>
<path fill-rule="evenodd" clip-rule="evenodd" d="M1463.8 619C1470.52 619 1473.88 619 1476.45 620.308C1478.71 621.458 1480.54 623.294 1481.69 625.552C1483 628.119 1483 631.48 1483 638.2V682.8C1483 689.52 1483 692.881 1481.69 695.448L1481.47 695.866C1480.31 697.933 1478.57 699.614 1476.45 700.692L1476.21 700.811C1473.67 702 1470.31 702 1463.8 702H1416V619H1463.8ZM1423 695H1463.8C1467.28 695 1469.46 694.994 1471.11 694.859C1472.68 694.731 1473.14 694.523 1473.27 694.455C1474.21 693.976 1474.98 693.21 1475.46 692.27C1475.52 692.137 1475.73 691.678 1475.86 690.111C1475.99 688.461 1476 686.275 1476 682.8V638.2C1476 634.725 1475.99 632.539 1475.86 630.889C1475.73 629.322 1475.52 628.863 1475.46 628.73C1474.98 627.79 1474.21 627.024 1473.27 626.545C1473.14 626.477 1472.68 626.269 1471.11 626.141C1469.46 626.006 1467.28 626 1463.8 626H1423V695Z" fill="black"/>
</g>
</g>
<g id="Light-S">
<g id="Vector_37">
<path d="M1165.5 683.992C1166.88 683.992 1168 685.111 1168 686.492C1168 687.873 1166.88 688.992 1165.5 688.992H1140.5C1139.12 688.992 1138 687.873 1138 686.492C1138 685.111 1139.12 683.992 1140.5 683.992H1165.5Z" fill="black"/>
<path fill-rule="evenodd" clip-rule="evenodd" d="M1153 632.992C1164.05 632.992 1173 641.946 1173 652.992C1173 664.038 1164.05 672.992 1153 672.992C1141.95 672.992 1133 664.038 1133 652.992C1133 641.946 1141.95 632.992 1153 632.992ZM1162.36 655.992C1161.92 660.625 1160.5 664.181 1158.96 666.759C1163.39 664.837 1166.72 660.84 1167.7 655.992H1162.36ZM1138.3 655.992C1139.28 660.84 1142.61 664.837 1147.04 666.759C1145.5 664.181 1144.08 660.625 1143.64 655.992H1138.3ZM1148.67 655.992C1149.12 659.892 1150.39 662.728 1151.61 664.65C1152.09 665.411 1152.57 666.035 1153 666.528C1153.43 666.035 1153.91 665.411 1154.39 664.65C1155.61 662.728 1156.89 659.892 1157.33 655.992H1148.67ZM1147.04 639.225C1142.3 641.277 1138.84 645.698 1138.13 650.992H1143.56C1143.88 645.867 1145.4 641.985 1147.04 639.225ZM1158.96 639.225C1160.6 641.985 1162.12 645.867 1162.44 650.992H1167.87C1167.16 645.698 1163.7 641.277 1158.96 639.225ZM1153 639.455C1152.57 639.949 1152.09 640.573 1151.61 641.334C1150.28 643.417 1148.9 646.573 1148.57 650.992H1157.43C1157.1 646.573 1155.72 643.417 1154.39 641.334C1153.91 640.573 1153.43 639.949 1153 639.455Z" fill="black"/>
<path fill-rule="evenodd" clip-rule="evenodd" d="M1171.6 619.992C1176.64 619.992 1179.16 619.992 1181.09 620.973C1182.78 621.836 1184.16 623.213 1185.02 624.906C1186 626.831 1186 629.352 1186 634.393V687.592C1186 692.632 1186 695.153 1185.02 697.078L1184.85 697.392C1183.98 698.942 1182.67 700.203 1181.09 701.012L1180.72 701.184C1179.09 701.884 1176.98 701.978 1173.38 701.99L1171.6 701.992H1120V619.992H1171.6ZM1125.5 696.492H1171.6C1174.21 696.492 1175.84 696.488 1177.06 696.388C1178.22 696.293 1178.53 696.14 1178.59 696.11C1179.25 695.775 1179.78 695.24 1180.12 694.581C1180.15 694.523 1180.3 694.216 1180.4 693.056C1180.5 691.831 1180.5 690.203 1180.5 687.592V634.393C1180.5 631.782 1180.5 630.154 1180.4 628.929C1180.3 627.768 1180.15 627.461 1180.12 627.403C1179.78 626.745 1179.25 626.21 1178.59 625.874C1178.53 625.844 1178.22 625.692 1177.06 625.597C1175.84 625.497 1174.21 625.492 1171.6 625.492H1125.5V696.492Z" fill="black"/>
</g>
</g>
<g id="Thin-S">
<g id="Vector_38">
<path d="M869 684C870.105 684 871 684.895 871 686C871 687.105 870.105 688 869 688H843C841.895 688 841 687.105 841 686C841 684.895 841.895 684 843 684H869Z" fill="black"/>
<path fill-rule="evenodd" clip-rule="evenodd" d="M856.047 633C867.071 633.025 876 641.97 876 653C876 664.03 867.071 672.974 856.047 672.999C856.04 672.999 856.033 672.999 856.026 672.999C856.018 672.999 856.009 673 856 673C855.991 673 855.982 672.999 855.973 672.999C855.966 672.999 855.959 672.999 855.952 672.999C844.928 672.973 836 664.03 836 653C836 641.97 844.928 633.026 855.952 633H856.047ZM864.937 655C864.598 660.424 862.924 664.599 861.228 667.508C861.071 667.777 860.912 668.033 860.756 668.28C866.655 666.446 871.091 661.29 871.875 655H864.937ZM840.125 655C840.909 661.29 845.344 666.446 851.243 668.28C851.087 668.033 850.929 667.776 850.772 667.508C849.076 664.599 847.402 660.424 847.063 655H840.125ZM851.071 655C851.401 659.595 852.824 663.087 854.228 665.492C854.854 666.566 855.479 667.425 856 668.067C856.521 667.425 857.146 666.566 857.772 665.492C859.176 663.087 860.599 659.595 860.929 655H851.071ZM851.243 637.719C845.344 639.553 840.909 644.71 840.125 651H847.063C847.402 645.576 849.076 641.401 850.772 638.492C850.929 638.223 851.087 637.966 851.243 637.719ZM860.756 637.719C860.912 637.966 861.071 638.223 861.228 638.492C862.924 641.401 864.598 645.576 864.937 651H871.875C871.091 644.709 866.655 639.553 860.756 637.719ZM856 637.932C855.478 638.575 854.854 639.433 854.228 640.508C852.824 642.913 851.401 646.405 851.071 651H860.929C860.599 646.405 859.176 642.913 857.772 640.508C857.146 639.433 856.522 638.575 856 637.932Z" fill="black"/>
<path fill-rule="evenodd" clip-rule="evenodd" d="M874.1 620C879.14 620 881.661 620 883.586 620.98C885.279 621.843 886.657 623.221 887.52 624.914C888.5 626.839 888.5 629.36 888.5 634.4V686.6C888.5 691.64 888.5 694.161 887.52 696.086L887.352 696.399C886.483 697.949 885.174 699.211 883.586 700.02L883.218 700.191C881.336 701 878.825 701 874.1 701H823.5V620H874.1ZM826.92 697.58H874.1C876.676 697.58 878.403 697.577 879.732 697.469C881.022 697.363 881.633 697.176 882.033 696.972C883.083 696.437 883.937 695.583 884.472 694.533C884.676 694.133 884.863 693.522 884.969 692.232C885.077 690.903 885.08 689.176 885.08 686.6V634.4C885.08 631.824 885.077 630.097 884.969 628.768C884.863 627.478 884.676 626.867 884.472 626.467C883.937 625.417 883.083 624.563 882.033 624.028C881.633 623.824 881.022 623.637 879.732 623.531C878.403 623.423 876.676 623.42 874.1 623.42H826.92V697.58Z" fill="black"/>
</g>
</g>
<g id="Ultralight-S">
<g id="Vector_39">
<path d="M574 685C574.552 685 575 685.448 575 686C575 686.552 574.552 687 574 687H546C545.448 687 545 686.552 545 686C545 685.448 545.448 685 546 685H574Z" fill="black"/>
<path fill-rule="evenodd" clip-rule="evenodd" d="M560 634C571.046 634 580 642.954 580 654C580 665.046 571.046 674 560 674C548.954 674 540 665.046 540 654C540 642.954 548.954 634 560 634ZM567.985 655C567.817 661.181 566.105 665.769 564.372 668.863C563.685 670.09 562.995 671.08 562.4 671.84C570.883 670.709 577.497 663.673 577.972 655H567.985ZM542.028 655C542.503 663.673 549.117 670.709 557.599 671.84C557.004 671.08 556.315 670.09 555.628 668.863C553.895 665.769 552.183 661.181 552.015 655H542.028ZM554.016 655C554.183 660.799 555.787 665.056 557.372 667.887C558.211 669.385 559.047 670.487 559.665 671.209C559.785 671.349 559.898 671.472 560 671.583C560.102 671.472 560.215 671.349 560.335 671.209C560.953 670.487 561.789 669.385 562.628 667.887C564.213 665.056 565.817 660.799 565.984 655H554.016ZM557.599 636.159C549.117 637.29 542.503 644.327 542.028 653H552.015C552.183 646.819 553.895 642.231 555.628 639.137C556.315 637.91 557.004 636.919 557.599 636.159ZM562.4 636.159C562.995 636.919 563.685 637.909 564.372 639.137C566.105 642.231 567.817 646.819 567.985 653H577.972C577.497 644.327 570.883 637.29 562.4 636.159ZM559.665 636.791C559.047 637.513 558.211 638.615 557.372 640.113C555.787 642.944 554.183 647.201 554.016 653H565.984C565.817 647.201 564.213 642.944 562.628 640.113C561.789 638.615 560.953 637.513 560.335 636.791C560.215 636.651 560.102 636.527 560 636.416C559.898 636.527 559.785 636.651 559.665 636.791Z" fill="black"/>
<path fill-rule="evenodd" clip-rule="evenodd" d="M577.6 621C582.64 621 585.161 621 587.086 621.98C588.779 622.843 590.157 624.221 591.02 625.914C592 627.839 592 630.36 592 635.4V686.6C592 691.64 592 694.161 591.02 696.086L590.852 696.399C589.983 697.949 588.674 699.211 587.086 700.02L586.718 700.191C584.836 701 582.325 701 577.6 701H528V621H577.6ZM530 699H577.6C580.153 699 581.948 698.998 583.349 698.884C584.725 698.771 585.544 698.56 586.178 698.237C587.495 697.566 588.566 696.495 589.237 695.178C589.56 694.544 589.771 693.725 589.884 692.349C589.998 690.948 590 689.153 590 686.6V635.4C590 632.847 589.998 631.052 589.884 629.651C589.771 628.275 589.56 627.456 589.237 626.822C588.566 625.505 587.495 624.434 586.178 623.763C585.544 623.44 584.725 623.229 583.349 623.116C581.948 623.002 580.153 623 577.6 623H530V699Z" fill="black"/>
</g>
</g>
</g>
</g>
<defs>
<clipPath id="clip0_2538_5204">
<rect width="3300" height="2200" fill="white"/>
</clipPath>
</defs>
</svg>
