<?xml version="1.0" encoding="UTF-8"?>
<!--Generator: Apple Native CoreSVG 149-->
<!DOCTYPE svg
PUBLIC "-//W3C//DTD SVG 1.1//EN"
       "http://www.w3.org/Graphics/SVG/1.1/DTD/svg11.dtd">
<svg version="1.1" xmlns="http://www.w3.org/2000/svg" xmlns:xlink="http://www.w3.org/1999/xlink" width="3300" height="2200">
 <!--glyph: "", point size: 100.0, font version: "17.0d8e1", template writer version: "58"-->
 <g id="Notes">
  <rect height="2200" id="artboard" style="fill:white;opacity:1" width="3300" x="0" y="0"/>
  <line style="fill:none;stroke:black;opacity:1;stroke-width:0.5;" x1="263" x2="3036" y1="292" y2="292"/>
  <text style="stroke:none;fill:black;font-family:SF Pro,SF Pro Display,SF Pro Text,sans-serif;font-size:13;font-weight:bold;" transform="matrix(1 0 0 1 263 322)">Weight/Scale Variations</text>
  <text style="stroke:none;fill:black;font-family:SF Pro,SF Pro Display,SF Pro Text,sans-serif;font-size:13;text-anchor:middle;" transform="matrix(1 0 0 1 559.711 322)">Ultralight</text>
  <text style="stroke:none;fill:black;font-family:SF Pro,SF Pro Display,SF Pro Text,sans-serif;font-size:13;text-anchor:middle;" transform="matrix(1 0 0 1 856.422 322)">Thin</text>
  <text style="stroke:none;fill:black;font-family:SF Pro,SF Pro Display,SF Pro Text,sans-serif;font-size:13;text-anchor:middle;" transform="matrix(1 0 0 1 1153.13 322)">Light</text>
  <text style="stroke:none;fill:black;font-family:SF Pro,SF Pro Display,SF Pro Text,sans-serif;font-size:13;text-anchor:middle;" transform="matrix(1 0 0 1 1449.84 322)">Regular</text>
  <text style="stroke:none;fill:black;font-family:SF Pro,SF Pro Display,SF Pro Text,sans-serif;font-size:13;text-anchor:middle;" transform="matrix(1 0 0 1 1746.56 322)">Medium</text>
  <text style="stroke:none;fill:black;font-family:SF Pro,SF Pro Display,SF Pro Text,sans-serif;font-size:13;text-anchor:middle;" transform="matrix(1 0 0 1 2043.27 322)">Semibold</text>
  <text style="stroke:none;fill:black;font-family:SF Pro,SF Pro Display,SF Pro Text,sans-serif;font-size:13;text-anchor:middle;" transform="matrix(1 0 0 1 2339.98 322)">Bold</text>
  <text style="stroke:none;fill:black;font-family:SF Pro,SF Pro Display,SF Pro Text,sans-serif;font-size:13;text-anchor:middle;" transform="matrix(1 0 0 1 2636.69 322)">Heavy</text>
  <text style="stroke:none;fill:black;font-family:SF Pro,SF Pro Display,SF Pro Text,sans-serif;font-size:13;text-anchor:middle;" transform="matrix(1 0 0 1 2933.4 322)">Black</text>
  <line style="fill:none;stroke:black;opacity:1;stroke-width:0.5;" x1="263" x2="3036" y1="1903" y2="1903"/>
  <g transform="matrix(1 0 0 1 263 1933)">
   <path d="M9.24805 0.830078Q10.8691 0.830078 12.2949 0.214844Q13.7207-0.400391 14.8096-1.49414Q15.8984-2.58789 16.5186-4.01367Q17.1387-5.43945 17.1387-7.05078Q17.1387-8.66211 16.5186-10.0879Q15.8984-11.5137 14.8047-12.6074Q13.7109-13.7012 12.2852-14.3164Q10.8594-14.9316 9.23828-14.9316Q7.62695-14.9316 6.20117-14.3164Q4.77539-13.7012 3.69141-12.6074Q2.60742-11.5137 1.9873-10.0879Q1.36719-8.66211 1.36719-7.05078Q1.36719-5.43945 1.9873-4.01367Q2.60742-2.58789 3.69629-1.49414Q4.78516-0.400391 6.21094 0.214844Q7.63672 0.830078 9.24805 0.830078ZM9.24805-0.654297Q7.91992-0.654297 6.7627-1.14746Q5.60547-1.64062 4.73145-2.51953Q3.85742-3.39844 3.36426-4.56055Q2.87109-5.72266 2.87109-7.05078Q2.87109-8.37891 3.35938-9.54102Q3.84766-10.7031 4.72168-11.582Q5.5957-12.4609 6.75293-12.9541Q7.91016-13.4473 9.23828-13.4473Q10.5762-13.4473 11.7334-12.9541Q12.8906-12.4609 13.7695-11.582Q14.6484-10.7031 15.1465-9.54102Q15.6445-8.37891 15.6445-7.05078Q15.6445-5.72266 15.1514-4.56055Q14.6582-3.39844 13.7842-2.51953Q12.9102-1.64062 11.748-1.14746Q10.5859-0.654297 9.24805-0.654297ZM5.83984-7.04102Q5.83984-6.71875 6.04492-6.51855Q6.25-6.31836 6.5918-6.31836L8.50586-6.31836L8.50586-4.39453Q8.50586-4.0625 8.70605-3.85742Q8.90625-3.65234 9.22852-3.65234Q9.56055-3.65234 9.76562-3.85742Q9.9707-4.0625 9.9707-4.39453L9.9707-6.31836L11.8945-6.31836Q12.2266-6.31836 12.4316-6.51855Q12.6367-6.71875 12.6367-7.04102Q12.6367-7.37305 12.4316-7.57812Q12.2266-7.7832 11.8945-7.7832L9.9707-7.7832L9.9707-9.69727Q9.9707-10.0391 9.76562-10.2441Q9.56055-10.4492 9.22852-10.4492Q8.90625-10.4492 8.70605-10.2441Q8.50586-10.0391 8.50586-9.69727L8.50586-7.7832L6.5918-7.7832Q6.25-7.7832 6.04492-7.57812Q5.83984-7.37305 5.83984-7.04102Z"/>
  </g>
  <g transform="matrix(1 0 0 1 281.867 1933)">
   <path d="M11.709 2.91016Q13.75 2.91016 15.5518 2.12891Q17.3535 1.34766 18.7305-0.0292969Q20.1074-1.40625 20.8887-3.20801Q21.6699-5.00977 21.6699-7.05078Q21.6699-9.0918 20.8887-10.8936Q20.1074-12.6953 18.7305-14.0723Q17.3535-15.4492 15.5469-16.2305Q13.7402-17.0117 11.6992-17.0117Q9.6582-17.0117 7.85645-16.2305Q6.05469-15.4492 4.68262-14.0723Q3.31055-12.6953 2.5293-10.8936Q1.74805-9.0918 1.74805-7.05078Q1.74805-5.00977 2.5293-3.20801Q3.31055-1.40625 4.6875-0.0292969Q6.06445 1.34766 7.86621 2.12891Q9.66797 2.91016 11.709 2.91016ZM11.709 1.25Q9.98047 1.25 8.47656 0.605469Q6.97266-0.0390625 5.83496-1.17676Q4.69727-2.31445 4.05762-3.81836Q3.41797-5.32227 3.41797-7.05078Q3.41797-8.7793 4.05762-10.2832Q4.69727-11.7871 5.83008-12.9297Q6.96289-14.0723 8.4668-14.7119Q9.9707-15.3516 11.6992-15.3516Q13.4277-15.3516 14.9316-14.7119Q16.4355-14.0723 17.5781-12.9297Q18.7207-11.7871 19.3652-10.2832Q20.0098-8.7793 20.0098-7.05078Q20.0098-5.32227 19.3701-3.81836Q18.7305-2.31445 17.5928-1.17676Q16.4551-0.0390625 14.9463 0.605469Q13.4375 1.25 11.709 1.25ZM7.39258-7.04102Q7.39258-6.68945 7.62695-6.46484Q7.86133-6.24023 8.23242-6.24023L10.8789-6.24023L10.8789-3.57422Q10.8789-3.21289 11.1035-2.9834Q11.3281-2.75391 11.6797-2.75391Q12.0508-2.75391 12.2852-2.9834Q12.5195-3.21289 12.5195-3.57422L12.5195-6.24023L15.1758-6.24023Q15.5371-6.24023 15.7715-6.46484Q16.0059-6.68945 16.0059-7.04102Q16.0059-7.41211 15.7715-7.6416Q15.5371-7.87109 15.1758-7.87109L12.5195-7.87109L12.5195-10.5176Q12.5195-10.8984 12.2852-11.1279Q12.0508-11.3574 11.6797-11.3574Q11.3281-11.3574 11.1035-11.1279Q10.8789-10.8984 10.8789-10.5176L10.8789-7.87109L8.23242-7.87109Q7.85156-7.87109 7.62207-7.6416Q7.39258-7.41211 7.39258-7.04102Z"/>
  </g>
  <g transform="matrix(1 0 0 1 305.646 1933)">
   <path d="M14.9707 5.66406Q17.0605 5.66406 18.96 5.01465Q20.8594 4.36523 22.4512 3.19336Q24.043 2.02148 25.2197 0.429688Q26.3965-1.16211 27.0459-3.06641Q27.6953-4.9707 27.6953-7.05078Q27.6953-9.14062 27.0459-11.04Q26.3965-12.9395 25.2197-14.5312Q24.043-16.123 22.4512-17.2998Q20.8594-18.4766 18.9551-19.126Q17.0508-19.7754 14.9609-19.7754Q12.8711-19.7754 10.9717-19.126Q9.07227-18.4766 7.48535-17.2998Q5.89844-16.123 4.72168-14.5312Q3.54492-12.9395 2.90039-11.04Q2.25586-9.14062 2.25586-7.05078Q2.25586-4.9707 2.90527-3.06641Q3.55469-1.16211 4.72656 0.429688Q5.89844 2.02148 7.49023 3.19336Q9.08203 4.36523 10.9814 5.01465Q12.8809 5.66406 14.9707 5.66406ZM14.9707 3.84766Q13.1641 3.84766 11.5283 3.2959Q9.89258 2.74414 8.53516 1.74805Q7.17773 0.751953 6.17676-0.610352Q5.17578-1.97266 4.62891-3.6084Q4.08203-5.24414 4.08203-7.05078Q4.08203-8.86719 4.62891-10.5029Q5.17578-12.1387 6.17188-13.501Q7.16797-14.8633 8.52539-15.8594Q9.88281-16.8555 11.5186-17.4023Q13.1543-17.9492 14.9609-17.9492Q16.7773-17.9492 18.4131-17.4023Q20.0488-16.8555 21.4111-15.8594Q22.7734-14.8633 23.7695-13.501Q24.7656-12.1387 25.3174-10.5029Q25.8691-8.86719 25.8691-7.05078Q25.8789-5.24414 25.332-3.6084Q24.7852-1.97266 23.7842-0.610352Q22.7832 0.751953 21.4209 1.74805Q20.0586 2.74414 18.4229 3.2959Q16.7871 3.84766 14.9707 3.84766ZM9.45312-7.04102Q9.45312-6.66016 9.71191-6.41113Q9.9707-6.16211 10.3711-6.16211L14.0625-6.16211L14.0625-2.46094Q14.0625-2.06055 14.3115-1.80664Q14.5605-1.55273 14.9414-1.55273Q15.3516-1.55273 15.6055-1.80664Q15.8594-2.06055 15.8594-2.46094L15.8594-6.16211L19.5605-6.16211Q19.9609-6.16211 20.2148-6.41113Q20.4688-6.66016 20.4688-7.04102Q20.4688-7.45117 20.2148-7.70508Q19.9609-7.95898 19.5605-7.95898L15.8594-7.95898L15.8594-11.6504Q15.8594-12.0605 15.6055-12.3145Q15.3516-12.5684 14.9414-12.5684Q14.5605-12.5684 14.3115-12.3096Q14.0625-12.0508 14.0625-11.6504L14.0625-7.95898L10.3711-7.95898Q9.96094-7.95898 9.70703-7.70508Q9.45312-7.45117 9.45312-7.04102Z"/>
  </g>
  <text style="stroke:none;fill:black;font-family:SF Pro,SF Pro Display,SF Pro Text,sans-serif;font-size:13;font-weight:bold;" transform="matrix(1 0 0 1 263 1953)">Design Variations</text>
  <text style="stroke:none;fill:black;font-family:SF Pro,SF Pro Display,SF Pro Text,sans-serif;font-size:13;" transform="matrix(1 0 0 1 263 1971)">Symbols are supported in up to nine weights and three scales.</text>
  <text style="stroke:none;fill:black;font-family:SF Pro,SF Pro Display,SF Pro Text,sans-serif;font-size:13;" transform="matrix(1 0 0 1 263 1989)">For optimal layout with text and other symbols, vertically align</text>
  <text style="stroke:none;fill:black;font-family:SF Pro,SF Pro Display,SF Pro Text,sans-serif;font-size:13;" transform="matrix(1 0 0 1 263 2007)">symbols with the adjacent text.</text>
  <line style="fill:none;stroke:#00AEEF;stroke-width:0.5;opacity:1.0;" x1="776" x2="776" y1="1919" y2="1933"/>
  <g transform="matrix(1 0 0 1 776 1933)">
   <path d="M3.31055 0.15625Q3.70117 0.15625 3.91602-0.00976562Q4.13086-0.175781 4.26758-0.585938L5.52734-4.0332L11.2891-4.0332L12.5488-0.585938Q12.6855-0.175781 12.9004-0.00976562Q13.1152 0.15625 13.4961 0.15625Q13.8867 0.15625 14.1162-0.0585938Q14.3457-0.273438 14.3457-0.644531Q14.3457-0.869141 14.2383-1.17188L9.6582-13.3691Q9.48242-13.8184 9.17969-14.043Q8.87695-14.2676 8.4082-14.2676Q7.5-14.2676 7.17773-13.3789L2.59766-1.16211Q2.49023-0.859375 2.49023-0.634766Q2.49023-0.263672 2.70996-0.0537109Q2.92969 0.15625 3.31055 0.15625ZM6.00586-5.51758L8.37891-12.0898L8.42773-12.0898L10.8008-5.51758Z"/>
  </g>
  <line style="fill:none;stroke:#00AEEF;stroke-width:0.5;opacity:1.0;" x1="793.197" x2="793.197" y1="1919" y2="1933"/>
  <text style="stroke:none;fill:black;font-family:SF Pro,SF Pro Display,SF Pro Text,sans-serif;font-size:13;font-weight:bold;" transform="matrix(1 0 0 1 776 1953)">Margins</text>
  <text style="stroke:none;fill:black;font-family:SF Pro,SF Pro Display,SF Pro Text,sans-serif;font-size:13;" transform="matrix(1 0 0 1 776 1971)">Leading and trailing margins on the left and right side of each symbol</text>
  <text style="stroke:none;fill:black;font-family:SF Pro,SF Pro Display,SF Pro Text,sans-serif;font-size:13;" transform="matrix(1 0 0 1 776 1989)">can be adjusted by modifying the x-location of the margin guidelines.</text>
  <text style="stroke:none;fill:black;font-family:SF Pro,SF Pro Display,SF Pro Text,sans-serif;font-size:13;" transform="matrix(1 0 0 1 776 2007)">Modifications are automatically applied proportionally to all</text>
  <text style="stroke:none;fill:black;font-family:SF Pro,SF Pro Display,SF Pro Text,sans-serif;font-size:13;" transform="matrix(1 0 0 1 776 2025)">scales and weights.</text>
  <g transform="matrix(1 0 0 1 1289 1933)">
   <path d="M2.8418 1.86523L4.54102 3.57422Q5.18555 4.22852 5.90332 4.17969Q6.62109 4.13086 7.31445 3.35938L18.0078-8.42773L17.041-9.4043L6.42578 2.27539Q6.16211 2.57812 5.89355 2.61719Q5.625 2.65625 5.27344 2.30469L4.10156 1.14258Q3.75 0.791016 3.79395 0.522461Q3.83789 0.253906 4.14062-0.0195312L15.6152-10.8203L14.6387-11.7871L3.04688-0.898438Q2.30469-0.214844 2.25098 0.498047Q2.19727 1.21094 2.8418 1.86523ZM9.25781-16.3281Q8.94531-16.0254 8.90625-15.6348Q8.86719-15.2441 9.04297-14.9512Q9.21875-14.6777 9.55566-14.541Q9.89258-14.4043 10.3809-14.5215Q11.4746-14.7754 12.5977-14.7314Q13.7207-14.6875 14.7949-13.9844L14.209-12.5293Q13.9551-11.9043 14.0674-11.4404Q14.1797-10.9766 14.5801-10.5664L16.875-8.25195Q17.2363-7.88086 17.5781-7.82227Q17.9199-7.76367 18.3398-7.8418L19.4043-8.03711L20.0684-7.36328L20.0293-6.80664Q20-6.43555 20.1221-6.12305Q20.2441-5.81055 20.6055-5.44922L21.3672-4.70703Q21.7285-4.3457 22.1533-4.33105Q22.5781-4.31641 22.9297-4.66797L25.8398-7.58789Q26.1914-7.93945 26.1816-8.35449Q26.1719-8.76953 25.8105-9.13086L25.0391-9.89258Q24.6875-10.2539 24.3799-10.3857Q24.0723-10.5176 23.7109-10.4883L23.1348-10.4395L22.4902-11.0742L22.7344-12.1973Q22.832-12.6172 22.6953-12.9834Q22.5586-13.3496 22.1191-13.7891L19.9219-15.9766Q18.6719-17.2168 17.2607-17.8369Q15.8496-18.457 14.4189-18.4814Q12.9883-18.5059 11.665-17.959Q10.3418-17.4121 9.25781-16.3281ZM10.752-15.957Q11.6602-16.6211 12.7002-16.9043Q13.7402-17.1875 14.8047-17.085Q15.8691-16.9824 16.8701-16.5137Q17.8711-16.0449 18.7012-15.2051L21.1328-12.793Q21.3086-12.6172 21.3525-12.4512Q21.3965-12.2852 21.3379-12.0312L21.0156-10.5469L22.5195-9.0625L23.5059-9.12109Q23.6914-9.13086 23.7891-9.09668Q23.8867-9.0625 24.0332-8.91602L24.6094-8.33984L22.168-5.89844L21.5918-6.47461Q21.4453-6.62109 21.4062-6.71875Q21.3672-6.81641 21.377-7.01172L21.4453-7.98828L19.9512-9.47266L18.4277-9.21875Q18.1836-9.16992 18.042-9.2041Q17.9004-9.23828 17.7148-9.41406L15.7129-11.416Q15.5176-11.5918 15.4932-11.7529Q15.4688-11.9141 15.5859-12.1875L16.4648-14.2773Q15.293-15.3711 13.8281-15.791Q12.3633-16.2109 10.8398-15.7617Q10.7227-15.7324 10.6885-15.8057Q10.6543-15.8789 10.752-15.957Z"/>
  </g>
  <text style="stroke:none;fill:black;font-family:SF Pro,SF Pro Display,SF Pro Text,sans-serif;font-size:13;font-weight:bold;" transform="matrix(1 0 0 1 1289 1953)">Exporting</text>
  <text style="stroke:none;fill:black;font-family:SF Pro,SF Pro Display,SF Pro Text,sans-serif;font-size:13;" transform="matrix(1 0 0 1 1289 1971)">Symbols should be outlined when exporting to ensure the</text>
  <text style="stroke:none;fill:black;font-family:SF Pro,SF Pro Display,SF Pro Text,sans-serif;font-size:13;" transform="matrix(1 0 0 1 1289 1989)">design is preserved when submitting to Xcode.</text>
  <text id="template-version" style="stroke:none;fill:black;font-family:SF Pro,SF Pro Display,SF Pro Text,sans-serif;font-size:13;text-anchor:end;" transform="matrix(1 0 0 1 3036 1933)">Template v.2.0</text>
  <text style="stroke:none;fill:black;font-family:SF Pro,SF Pro Display,SF Pro Text,sans-serif;font-size:13;text-anchor:end;" transform="matrix(1 0 0 1 3036 1951)">Requires Xcode 13 or greater</text>
  <text id="descriptive-name" style="stroke:none;fill:black;font-family:SF Pro,SF Pro Display,SF Pro Text,sans-serif;font-size:13;text-anchor:end;" transform="matrix(1 0 0 1 3036 1969)">Generated from arrow.clockwise.cr</text>
  <text style="stroke:none;fill:black;font-family:SF Pro,SF Pro Display,SF Pro Text,sans-serif;font-size:13;text-anchor:end;" transform="matrix(1 0 0 1 3036 1987)">Typeset at 100 points</text>
  <text style="stroke:none;fill:black;font-family:SF Pro,SF Pro Display,SF Pro Text,sans-serif;font-size:13;" transform="matrix(1 0 0 1 263 726)">Small</text>
  <text style="stroke:none;fill:black;font-family:SF Pro,SF Pro Display,SF Pro Text,sans-serif;font-size:13;" transform="matrix(1 0 0 1 263 1156)">Medium</text>
  <text style="stroke:none;fill:black;font-family:SF Pro,SF Pro Display,SF Pro Text,sans-serif;font-size:13;" transform="matrix(1 0 0 1 263 1586)">Large</text>
 </g>
 <g id="Guides">
  <g id="H-reference" style="fill:#27AAE1;stroke:none;" transform="matrix(1 0 0 1 339 696)">
   <path d="M0.993347 0L3.6377 0L29.3282-67.1326L30.0301-67.1326L30.0301-70.459L28.1227-70.459ZM11.6882-24.4797L46.9818-24.4797L46.2311-26.7288L12.4382-26.7288ZM55.1193 0L57.7637 0L30.6381-70.459L29.4327-70.459L29.4327-67.1326Z"/>
  </g>
  <line id="Baseline-S" style="fill:none;stroke:#27AAE1;opacity:1;stroke-width:0.5;" x1="263" x2="3036" y1="696" y2="696"/>
  <line id="Capline-S" style="fill:none;stroke:#27AAE1;opacity:1;stroke-width:0.5;" x1="263" x2="3036" y1="625.541" y2="625.541"/>
  <g id="H-reference" style="fill:#27AAE1;stroke:none;" transform="matrix(1 0 0 1 339 1126)">
   <path d="M0.993347 0L3.6377 0L29.3282-67.1326L30.0301-67.1326L30.0301-70.459L28.1227-70.459ZM11.6882-24.4797L46.9818-24.4797L46.2311-26.7288L12.4382-26.7288ZM55.1193 0L57.7637 0L30.6381-70.459L29.4327-70.459L29.4327-67.1326Z"/>
  </g>
  <line id="Baseline-M" style="fill:none;stroke:#27AAE1;opacity:1;stroke-width:0.5;" x1="263" x2="3036" y1="1126" y2="1126"/>
  <line id="Capline-M" style="fill:none;stroke:#27AAE1;opacity:1;stroke-width:0.5;" x1="263" x2="3036" y1="1055.54" y2="1055.54"/>
  <g id="H-reference" style="fill:#27AAE1;stroke:none;" transform="matrix(1 0 0 1 339 1556)">
   <path d="M0.993347 0L3.6377 0L29.3282-67.1326L30.0301-67.1326L30.0301-70.459L28.1227-70.459ZM11.6882-24.4797L46.9818-24.4797L46.2311-26.7288L12.4382-26.7288ZM55.1193 0L57.7637 0L30.6381-70.459L29.4327-70.459L29.4327-67.1326Z"/>
  </g>
  <line id="Baseline-L" style="fill:none;stroke:#27AAE1;opacity:1;stroke-width:0.5;" x1="263" x2="3036" y1="1556" y2="1556"/>
  <line id="Capline-L" style="fill:none;stroke:#27AAE1;opacity:1;stroke-width:0.5;" x1="263" x2="3036" y1="1485.54" y2="1485.54"/>
  <line id="left-margin" style="fill:none;stroke:#00AEEF;stroke-width:0.5;opacity:1.0;" x1="1397.96" x2="1397.96" y1="1126" y2="1126"/>
  <line id="right-margin" style="fill:none;stroke:#00AEEF;stroke-width:0.5;opacity:1.0;" x1="1501.72" x2="1501.72" y1="1126" y2="1126"/>
 </g>
 <g id="Symbols">
  <g id="Black-L" transform="matrix(1 0 0 1 2862.27 1556)">
   <path d="M71.21-90.25C43.72-90.25 21.54-68.14 21.54-41C21.54-13.86 43.72 8.25 71.21 8.25C79.92 8.25 88.08 6.04 95.17 2.15C99.41-0.17 104.73 1.39 107.05 5.63C109.37 9.87 107.81 15.19 103.57 17.51C93.96 22.76 82.92 25.75 71.21 25.75C34.17 25.75 4.04-4.08 4.04-41C4.04-77.92 34.17-107.75 71.21-107.75C90.44-107.75 107.79-99.72 120.04-86.84L120.04-99C120.04-103.83 123.96-107.75 128.79-107.75C133.62-107.75 137.54-103.83 137.54-99L137.54-59.57C137.54-54.46 133.4-50.32 128.29-50.32L88.69-50.32C83.86-50.32 79.94-54.24 79.94-59.07C79.94-63.9 83.86-67.82 88.69-67.82L112.88-67.82C104.02-81.31 88.68-90.25 71.21-90.25Z"/>
  </g>
  <g id="Heavy-L" transform="matrix(1 0 0 1 2566.56 1556)">
   <path d="M70.21-89.25C42.17-89.25 19.54-66.7 19.54-39C19.54-11.3 42.17 11.25 70.21 11.25C79.09 11.25 87.41 8.99 94.65 5.03C98.4 2.98 103.11 4.35 105.17 8.11C107.22 11.86 105.84 16.57 102.09 18.63C92.63 23.81 81.75 26.75 70.21 26.75C33.72 26.75 4.04-2.63 4.04-39C4.04-75.37 33.72-104.75 70.21-104.75C90.08-104.75 107.91-96.05 120.04-82.26L120.04-97C120.04-101.28 123.51-104.75 127.79-104.75C132.07-104.75 135.54-101.28 135.54-97L135.54-57.57C135.54-53.02 131.85-49.32 127.29-49.32L87.69-49.32C83.41-49.32 79.94-52.79 79.94-57.07C79.94-61.35 83.41-64.82 87.69-64.82L113.69-64.82C104.84-79.45 88.69-89.25 70.21-89.25Z"/>
  </g>
  <g id="Bold-L" transform="matrix(1 0 0 1 2271.6 1556)">
   <path d="M68.46-92C39.47-92 16.04-68.68 16.04-40C16.04-11.32 39.47 12 68.46 12C77.64 12 86.25 9.66 93.74 5.57C96.65 3.98 100.29 5.04 101.88 7.95C103.47 10.86 102.41 14.5 99.5 16.09C90.29 21.14 79.7 24 68.46 24C32.92 24 4.04-4.61 4.04-40C4.04-75.39 32.92-104 68.46-104C89.55-104 108.29-93.93 120.04-78.35L120.04-98C120.04-101.31 122.73-104 126.04-104C129.35-104 132.04-101.31 132.04-98L132.04-58.57C132.04-54.98 129.13-52.07 125.54-52.07L85.94-52.07C82.63-52.07 79.94-54.76 79.94-58.07C79.94-61.39 82.63-64.07 85.94-64.07L114.94-64.07C106.19-80.66 88.66-92 68.46-92Z"/>
  </g>
  <g id="Semibold-L" transform="matrix(1 0 0 1 1975.39 1556)">
   <path d="M67.96-91.5C38.7-91.5 15.04-67.96 15.04-39C15.04-10.04 38.7 13.5 67.96 13.5C77.23 13.5 85.92 11.14 93.48 7.01C96.14 5.55 99.49 6.53 100.94 9.19C102.4 11.85 101.42 15.2 98.76 16.65C89.62 21.66 79.11 24.5 67.96 24.5C32.7 24.5 4.04-3.89 4.04-39C4.04-74.11 32.7-102.5 67.96-102.5C89.44-102.5 108.45-91.98 120.04-75.82L120.04-97C120.04-100.04 122.5-102.5 125.54-102.5C128.58-102.5 131.04-100.04 131.04-97L131.04-57.57C131.04-54.26 128.35-51.57 125.04-51.57L85.44-51.57C82.41-51.57 79.94-54.03 79.94-57.07C79.94-60.11 82.41-62.57 85.44-62.57L115.26-62.57C106.56-79.72 88.65-91.5 67.96-91.5Z"/>
  </g>
  <g id="Medium-L" transform="matrix(1 0 0 1 1679.18 1556)">
   <path d="M67.46-91C37.92-91 14.04-67.24 14.04-38C14.04-8.76 37.92 15 67.46 15C76.81 15 85.59 12.62 93.22 8.44C95.64 7.12 98.68 8.01 100.01 10.43C101.33 12.85 100.44 15.89 98.02 17.22C88.95 22.18 78.53 25 67.46 25C32.47 25 4.04-3.17 4.04-38C4.04-72.83 32.47-101 67.46-101C89.34-101 108.64-89.99 120.04-73.24L120.04-96C120.04-98.76 122.28-101 125.04-101C127.8-101 130.04-98.76 130.04-96L130.04-56.57C130.04-53.53 127.58-51.07 124.54-51.07L84.94-51.07C82.18-51.07 79.94-53.31 79.94-56.07C79.94-58.83 82.18-61.07 84.94-61.07L115.57-61.07C106.92-78.78 88.64-91 67.46-91Z"/>
  </g>
  <g id="Regular-L" transform="matrix(1 0 0 1 1383.46 1556)">
   <path d="M66.46-92C36.38-92 12.04-67.8 12.04-38C12.04-8.2 36.38 16 66.46 16C75.98 16 84.92 13.58 92.7 9.32C94.64 8.26 97.07 8.97 98.13 10.91C99.19 12.85 98.48 15.28 96.54 16.34C87.61 21.22 77.36 24 66.46 24C32.01 24 4.04-3.73 4.04-38C4.04-72.27 32.01-100 66.46-100C89.21-100 109.13-87.91 120.04-69.82L120.04-96C120.04-98.21 121.83-100 124.04-100C126.25-100 128.04-98.21 128.04-96L128.04-56.57C128.04-54.09 126.03-52.07 123.54-52.07L83.94-52.07C81.74-52.07 79.94-53.86 79.94-56.07C79.94-58.28 81.74-60.07 83.94-60.07L116.14-60.07C107.64-78.89 88.6-92 66.46-92Z"/>
  </g>
  <g id="Light-L" transform="matrix(1 0 0 1 1087.25 1556)">
   <path d="M65.96-92.5C35.6-92.5 11.04-68.08 11.04-38C11.04-7.92 35.6 16.5 65.96 16.5C75.57 16.5 84.59 14.05 92.44 9.76C94.14 8.83 96.26 9.45 97.19 11.15C98.12 12.85 97.5 14.97 95.8 15.9C86.95 20.75 76.77 23.5 65.96 23.5C31.79 23.5 4.04-4.01 4.04-38C4.04-71.99 31.79-99.5 65.96-99.5C89.2-99.5 109.45-86.79 120.04-67.97L120.04-96C120.04-97.93 121.61-99.5 123.54-99.5C125.47-99.5 127.04-97.93 127.04-96L127.04-56.57C127.04-54.36 125.25-52.57 123.04-52.57L83.44-52.57C81.51-52.57 79.94-54.14 79.94-56.07C79.94-58.01 81.51-59.57 83.44-59.57L116.41-59.57C107.99-78.94 88.58-92.5 65.96-92.5Z"/>
  </g>
  <g id="Thin-L" transform="matrix(1 0 0 1 791.542 1556)">
   <path d="M64.96-93.5C34.059-93.5 9.04-68.63 9.04-38C9.04-7.37 34.059 17.5 64.96 17.5C74.741 17.5 83.928 15.01 91.92 10.64C93.131 9.97 94.65 10.42 95.313 11.63C95.976 12.84 95.531 14.36 94.32 15.02C85.609 19.79 75.6 22.5 64.96 22.5C31.332 22.5 4.04-4.57 4.04-38C4.04-71.43 31.332-98.5 64.96-98.5C89.277-98.5 110.271-84.35 120.04-63.88L120.04-96C120.04-97.38 121.159-98.5 122.54-98.5C123.921-98.5 125.04-97.38 125.04-96L125.04-56.57C125.04-54.92 123.697-53.57 122.04-53.57L82.444-53.57C81.064-53.57 79.944-54.69 79.944-56.07C79.944-57.45 81.064-58.57 82.444-58.57L116.914-58.57C108.681-79.03 88.526-93.5 64.96-93.5Z"/>
  </g>
  <g id="Ultralight-L" transform="matrix(1 0 0 1 495.331 1556)">
   <path d="M64.46-94C33.287-94 8.04-68.91 8.04-38C8.04-7.09 33.287 18 64.46 18C74.327 18 83.596 15.49 91.66 11.08C92.629 10.55 93.844 10.9 94.374 11.87C94.905 12.84 94.549 14.05 93.58 14.58C84.941 19.31 75.014 22 64.46 22C31.105 22 4.04-4.85 4.04-38C4.04-71.15 31.105-98 64.46-98C89.4-98 110.816-82.99 120.04-61.57L120.04-96C120.04-97.1 120.936-98 122.04-98C123.145-98 124.04-97.1 124.04-96L124.04-56.57C124.04-55.19 122.921-54.07 121.54-54.07L81.944-54.07C80.84-54.07 79.944-54.97 79.944-56.07C79.944-57.18 80.84-58.07 81.944-58.07L117.149-58.07C109.019-79.08 88.498-94 64.46-94Z"/>
  </g>
  <g id="Black-M" transform="matrix(1 0 0 1 2878.52 1126)">
   <path d="M54.86-75C34.47-75 18.04-58.61 18.04-38.5C18.04-18.39 34.47-2 54.86-2C61.31-2 67.36-3.64 72.61-6.52C76.01-8.37 80.26-7.13 82.12-3.74C83.97-0.35 82.73 3.91 79.34 5.76C72.07 9.74 63.71 12 54.86 12C26.84 12 4.04-10.56 4.04-38.5C4.04-66.44 26.84-89 54.86-89C69.01-89 81.82-83.25 91.04-73.95L91.04-82C91.04-85.87 94.17-89 98.04-89C101.91-89 105.04-85.87 105.04-82L105.04-52.55C105.04-48.41 101.68-45.05 97.54-45.05L67.97-45.05C64.1-45.05 60.97-48.19 60.97-52.05C60.97-55.92 64.1-59.05 67.97-59.05L85.28-59.05C78.66-68.67 67.51-75 54.86-75Z"/>
  </g>
  <g id="Heavy-M" transform="matrix(1 0 0 1 2582.31 1126)">
   <path d="M54.36-73.5C33.7-73.5 17.04-56.89 17.04-36.5C17.04-16.11 33.7 0.5 54.36 0.5C60.9 0.5 67.03-1.16 72.35-4.08C75.5-5.8 79.45-4.65 81.18-1.5C82.9 1.65 81.74 5.6 78.6 7.32C71.4 11.26 63.13 13.5 54.36 13.5C26.61 13.5 4.04-8.84 4.04-36.5C4.04-64.16 26.61-86.5 54.36-86.5C68.82-86.5 81.86-80.44 91.04-70.72L91.04-80C91.04-83.59 93.95-86.5 97.54-86.5C101.13-86.5 104.04-83.59 104.04-80L104.04-50.55C104.04-46.69 100.91-43.55 97.04-43.55L67.47-43.55C63.88-43.55 60.97-46.46 60.97-50.05C60.97-53.64 63.88-56.55 67.47-56.55L85.72-56.55C79.08-66.74 67.52-73.5 54.36-73.5Z"/>
  </g>
  <g id="Bold-M" transform="matrix(1 0 0 1 2286.6 1126)">
   <path d="M53.36-75.5C32.16-75.5 15.04-58.45 15.04-37.5C15.04-16.55 32.16 0.5 53.36 0.5C60.07 0.5 66.36-1.21 71.83-4.2C74.5-5.66 77.84-4.68 79.3-2.02C80.76 0.65 79.78 3.99 77.12 5.45C70.06 9.31 61.96 11.5 53.36 11.5C26.16 11.5 4.04-10.4 4.04-37.5C4.04-64.6 26.16-86.5 53.36-86.5C68.46-86.5 81.99-79.75 91.04-69.11L91.04-81C91.04-84.04 93.5-86.5 96.54-86.5C99.58-86.5 102.04-84.04 102.04-81L102.04-51.55C102.04-48.24 99.35-45.55 96.04-45.55L66.47-45.55C63.43-45.55 60.97-48.02 60.97-51.05C60.97-54.09 63.43-56.55 66.47-56.55L86.51-56.55C79.88-67.88 67.52-75.5 53.36-75.5Z"/>
  </g>
  <g id="Semibold-M" transform="matrix(1 0 0 1 1990.39 1126)">
   <path d="M52.86-75C31.38-75 14.04-57.73 14.04-36.5C14.04-15.27 31.38 2 52.86 2C59.65 2 66.03 0.27 71.57-2.76C74-4.09 77.04-3.2 78.36-0.78C79.69 1.64 78.8 4.68 76.37 6.01C69.39 9.83 61.37 12 52.86 12C25.93 12 4.04-9.68 4.04-36.5C4.04-63.32 25.93-85 52.86-85C68.31-85 82.09-77.86 91.04-66.72L91.04-80C91.04-82.76 93.28-85 96.04-85C98.8-85 101.04-82.76 101.04-80L101.04-50.55C101.04-47.52 98.58-45.05 95.54-45.05L65.97-45.05C63.21-45.05 60.97-47.29 60.97-50.05C60.97-52.82 63.21-55.05 65.97-55.05L86.87-55.05C80.27-66.94 67.52-75 52.86-75Z"/>
  </g>
  <g id="Medium-M" transform="matrix(1 0 0 1 1694.18 1126)">
   <path d="M52.36-74.5C30.61-74.5 13.04-57.01 13.04-35.5C13.04-13.99 30.61 3.5 52.36 3.5C59.24 3.5 65.7 1.75 71.31-1.33C73.49-2.52 76.23-1.72 77.42 0.46C78.62 2.64 77.82 5.38 75.63 6.57C68.72 10.35 60.79 12.5 52.36 12.5C25.7 12.5 4.04-8.96 4.04-35.5C4.04-62.04 25.7-83.5 52.36-83.5C68.17-83.5 82.22-75.95 91.04-64.26L91.04-79C91.04-81.49 93.05-83.5 95.54-83.5C98.03-83.5 100.04-81.49 100.04-79L100.04-49.55C100.04-46.79 97.8-44.55 95.04-44.55L65.47-44.55C62.98-44.55 60.97-46.57 60.97-49.05C60.97-51.54 62.98-53.55 65.47-53.55L87.21-53.55C80.65-66 67.51-74.5 52.36-74.5Z"/>
  </g>
  <g id="Regular-M" transform="matrix(1 0 0 1 1397.96 1126)">
   <path d="M51.86-75C29.84-75 12.04-57.29 12.04-35.5C12.04-13.71 29.84 4 51.86 4C58.83 4 65.37 2.23 71.05-0.89C72.99-1.95 75.42-1.24 76.48 0.7C77.54 2.64 76.83 5.07 74.9 6.13C68.06 9.87 60.2 12 51.86 12C25.47 12 4.04-9.24 4.04-35.5C4.04-61.76 25.47-83 51.86-83C68.06-83 82.39-74.99 91.04-62.73L91.04-79C91.04-81.21 92.83-83 95.04-83C97.25-83 99.04-81.21 99.04-79L99.04-49.55C99.04-47.07 97.03-45.05 94.54-45.05L64.97-45.05C62.76-45.05 60.97-46.84 60.97-49.05C60.97-51.26 62.76-53.05 64.97-53.05L87.53-53.05C81.02-66.06 67.5-75 51.86-75Z"/>
  </g>
  <g id="Light-M" transform="matrix(1 0 0 1 1102.25 1126)">
   <path d="M50.86-76C28.29-76 10.04-57.85 10.04-35.5C10.04-13.15 28.29 5 50.86 5C58 5 64.7 3.18 70.53-0.01C71.99-0.8 73.81-0.27 74.61 1.18C75.4 2.64 74.87 4.46 73.41 5.25C66.72 8.92 59.03 11 50.86 11C25.02 11 4.04-9.8 4.04-35.5C4.04-61.2 25.02-82 50.86-82C67.92-82 82.86-72.93 91.04-59.37L91.04-79C91.04-80.66 92.38-82 94.04-82C95.7-82 97.04-80.66 97.04-79L97.04-49.55C97.04-47.62 95.47-46.05 93.54-46.05L63.97-46.05C62.31-46.05 60.97-47.4 60.97-49.05C60.97-50.71 62.31-52.05 63.97-52.05L88.12-52.05C81.74-66.16 67.46-76 50.86-76Z"/>
  </g>
  <g id="Thin-M" transform="matrix(1 0 0 1 806.792 1126)">
   <path d="M49.605-77.25C26.361-77.25 7.54-58.55 7.54-35.5C7.54-12.45 26.361 6.25 49.605 6.25C56.962 6.25 63.873 4.38 69.885 1.09C70.733 0.62 71.796 0.93 72.26 1.78C72.724 2.63 72.413 3.69 71.565 4.16C65.05 7.72 57.563 9.75 49.605 9.75C24.452 9.75 4.04-10.5 4.04-35.5C4.04-60.5 24.452-80.75 49.605-80.75C67.993-80.75 83.84-69.93 91.04-54.35L91.04-79C91.04-79.97 91.823-80.75 92.79-80.75C93.756-80.75 94.54-79.97 94.54-79L94.54-49.55C94.54-48.31 93.532-47.3 92.29-47.3L62.718-47.3C61.752-47.3 60.968-48.09 60.968-49.05C60.968-50.02 61.752-50.8 62.718-50.8L88.755-50.8C82.605-66.29 67.397-77.25 49.605-77.25Z"/>
  </g>
  <g id="Ultralight-M" transform="matrix(1 0 0 1 510.581 1126)">
   <path d="M49.105-77.75C25.589-77.75 6.54-58.83 6.54-35.5C6.54-12.17 25.589 6.75 49.105 6.75C56.548 6.75 63.541 4.85 69.625 1.53C70.23 1.19 70.99 1.42 71.321 2.02C71.653 2.63 71.43 3.39 70.825 3.72C64.382 7.24 56.977 9.25 49.105 9.25C24.225 9.25 4.04-10.78 4.04-35.5C4.04-60.22 24.225-80.25 49.105-80.25C68.154-80.25 84.446-68.51 91.04-51.92L91.04-79C91.04-79.69 91.599-80.25 92.29-80.25C92.98-80.25 93.54-79.69 93.54-79L93.54-49.55C93.54-48.59 92.756-47.8 91.79-47.8L62.218-47.8C61.528-47.8 60.968-48.36 60.968-49.05C60.968-49.74 61.528-50.3 62.218-50.3L88.985-50.3C82.942-66.33 67.368-77.75 49.105-77.75Z"/>
  </g>
  <g id="Black-S" transform="matrix(1 0 0 1 2888.52 696)">
   <path d="M44.79-65C28.87-65 16.04-52.199 16.04-36.5C16.04-20.801 28.87-8 44.79-8C49.83-8 54.55-9.282 58.66-11.529C61.57-13.119 65.21-12.052 66.8-9.145C68.39-6.238 67.33-2.592 64.42-1.002C58.59 2.189 51.89 4 44.79 4C22.33 4 4.04-14.092 4.04-36.5C4.04-58.908 22.33-77 44.79-77C55.75-77 65.71-72.695 73.04-65.687L73.04-71C73.04-74.314 75.73-77 79.04-77C82.35-77 85.04-74.314 85.04-71L85.04-47.75C85.04-44.16 82.13-41.25 78.54-41.25L55.19-41.25C51.88-41.25 49.19-43.936 49.19-47.25C49.19-50.564 51.88-53.25 55.19-53.25L68.05-53.25C62.83-60.366 54.36-65 44.79-65Z"/>
  </g>
  <g id="Heavy-S" transform="matrix(1 0 0 1 2592.81 696)">
   <path d="M43.79-66C27.33-66 14.04-52.758 14.04-36.5C14.04-20.242 27.33-7 43.79-7C49-7 53.89-8.326 58.14-10.651C60.56-11.977 63.6-11.088 64.93-8.665C66.25-6.243 65.36-3.204 62.94-1.879C57.25 1.233 50.72 3 43.79 3C21.87 3 4.04-14.651 4.04-36.5C4.04-58.349 21.87-76 43.79-76C55.36-76 65.77-71.09 73.04-63.247L73.04-71C73.04-73.761 75.28-76 78.04-76C80.8-76 83.04-73.761 83.04-71L83.04-47.75C83.04-44.712 80.58-42.25 77.54-42.25L54.19-42.25C51.43-42.25 49.19-44.489 49.19-47.25C49.19-50.011 51.43-52.25 54.19-52.25L68.95-52.25C63.68-60.508 54.39-66 43.79-66Z"/>
  </g>
  <g id="Bold-S" transform="matrix(1 0 0 1 2296.6 696)">
   <path d="M43.29-65.5C26.55-65.5 13.04-52.038 13.04-35.5C13.04-18.962 26.55-5.5 43.29-5.5C48.59-5.5 53.56-6.848 57.88-9.213C60.06-10.406 62.79-9.605 63.99-7.425C65.18-5.245 64.38-2.51 62.2-1.317C56.59 1.755 50.14 3.5 43.29 3.5C21.64 3.5 4.04-13.93 4.04-35.5C4.04-57.07 21.64-74.5 43.29-74.5C55.18-74.5 65.84-69.246 73.04-60.94L73.04-70C73.04-72.485 75.05-74.5 77.54-74.5C80.03-74.5 82.04-72.485 82.04-70L82.04-46.75C82.04-43.988 79.8-41.75 77.04-41.75L53.69-41.75C51.2-41.75 49.19-43.765 49.19-46.25C49.19-48.735 51.2-50.75 53.69-50.75L69.35-50.75C64.08-59.574 54.39-65.5 43.29-65.5Z"/>
  </g>
  <g id="Semibold-S" transform="matrix(1 0 0 1 2000.14 696)">
   <path d="M43.04-65.75C26.17-65.75 12.54-52.178 12.54-35.5C12.54-18.822 26.17-5.25 43.04-5.25C48.38-5.25 53.39-6.609 57.75-8.993C59.81-10.12 62.39-9.364 63.52-7.305C64.65-5.246 63.89-2.664 61.83-1.537C56.25 1.516 49.84 3.25 43.04 3.25C21.53 3.25 4.04-14.07 4.04-35.5C4.04-56.93 21.53-74.25 43.04-74.25C55.1-74.25 65.88-68.811 73.04-60.261L73.04-70C73.04-72.347 74.94-74.25 77.29-74.25C79.64-74.25 81.54-72.347 81.54-70L81.54-46.75C81.54-44.127 79.41-42 76.79-42L53.44-42C51.09-42 49.19-43.903 49.19-46.25C49.19-48.597 51.09-50.5 53.44-50.5L69.53-50.5C64.28-59.606 54.39-65.75 43.04-65.75Z"/>
  </g>
  <g id="Medium-S" transform="matrix(1 0 0 1 1703.68 696)">
   <path d="M42.79-66C25.78-66 12.04-52.318 12.04-35.5C12.04-18.682 25.78-5 42.79-5C48.18-5 53.23-6.37 57.62-8.774C59.56-9.835 61.99-9.123 63.05-7.185C64.11-5.247 63.4-2.817 61.46-1.756C55.92 1.277 49.55 3 42.79 3C21.42 3 4.04-14.21 4.04-35.5C4.04-56.79 21.42-74 42.79-74C55.02-74 65.94-68.367 73.04-59.563L73.04-70C73.04-72.209 74.83-74 77.04-74C79.25-74 81.04-72.209 81.04-70L81.04-46.75C81.04-44.265 79.03-42.25 76.54-42.25L53.19-42.25C50.98-42.25 49.19-44.041 49.19-46.25C49.19-48.459 50.98-50.25 53.19-50.25L69.71-50.25C64.47-59.637 54.38-66 42.79-66Z"/>
  </g>
  <g id="Regular-S" transform="matrix(1 0 0 1 1407.46 696)">
   <path d="M42.29-67.5C25.01-67.5 11.04-53.597 11.04-36.5C11.04-19.403 25.01-5.5 42.29-5.5C47.76-5.5 52.9-6.892 57.36-9.335C59.06-10.263 61.18-9.641 62.11-7.945C63.04-6.249 62.42-4.123 60.72-3.195C55.25-0.201 48.96 1.5 42.29 1.5C21.19 1.5 4.04-15.489 4.04-36.5C4.04-57.511 21.19-74.5 42.29-74.5C54.89-74.5 66.07-68.448 73.04-59.103L73.04-71C73.04-72.933 74.61-74.5 76.54-74.5C78.47-74.5 80.04-72.933 80.04-71L80.04-47.75C80.04-45.541 78.25-43.75 76.04-43.75L52.69-43.75C50.76-43.75 49.19-45.317 49.19-47.25C49.19-49.183 50.76-50.75 52.69-50.75L70.05-50.75C64.85-60.696 54.38-67.5 42.29-67.5Z"/>
  </g>
  <g id="Light-S" transform="matrix(1 0 0 1 1111.75 696)">
   <path d="M41.29-68.5C23.46-68.5 9.04-54.156 9.04-36.5C9.04-18.844 23.46-4.5 41.29-4.5C46.93-4.5 52.23-5.936 56.84-8.458C58.05-9.121 59.57-8.676 60.23-7.465C60.9-6.254 60.45-4.735 59.24-4.072C53.91-1.157 47.79 0.5 41.29 0.5C20.73 0.5 4.04-16.048 4.04-36.5C4.04-56.952 20.73-73.5 41.29-73.5C54.71-73.5 66.48-66.446 73.04-55.859L73.04-71C73.04-72.381 74.16-73.5 75.54-73.5C76.92-73.5 78.04-72.381 78.04-71L78.04-47.75C78.04-46.093 76.7-44.75 75.04-44.75L51.69-44.75C50.31-44.75 49.19-45.869 49.19-47.25C49.19-48.631 50.31-49.75 51.69-49.75L70.65-49.75C65.58-60.807 54.34-68.5 41.29-68.5Z"/>
  </g>
  <g id="Thin-S" transform="matrix(1 0 0 1 815.917 696)">
   <path d="M40.415-68.375C22.109-68.375 7.29-53.645 7.29-35.5C7.29-17.355 22.109-2.625 40.415-2.625C46.209-2.625 51.651-4.1 56.385-6.691C57.172-7.121 58.16-6.832 58.591-6.045C59.021-5.258 58.732-4.27 57.945-3.84C52.744-0.993 46.767 0.625 40.415 0.625C20.337 0.625 4.04-15.538 4.04-35.5C4.04-55.462 20.337-71.625 40.415-71.625C54.72-71.625 67.099-63.424 73.04-51.492L73.04-70C73.04-70.897 73.768-71.625 74.665-71.625C75.562-71.625 76.29-70.897 76.29-70L76.29-46.75C76.29-45.576 75.339-44.625 74.165-44.625L50.815-44.625C49.918-44.625 49.19-45.352 49.19-46.25C49.19-47.147 49.918-47.875 50.815-47.875L71.113-47.875C66.189-59.895 54.302-68.375 40.415-68.375Z"/>
  </g>
  <g id="Ultralight-S" transform="matrix(1 0 0 1 519.706 696)">
   <path d="M39.915-68.875C21.337-68.875 6.29-53.925 6.29-35.5C6.29-17.075 21.337-2.125 39.915-2.125C45.795-2.125 51.319-3.622 56.125-6.252C56.67-6.55 57.354-6.35 57.652-5.805C57.95-5.26 57.75-4.576 57.205-4.278C52.076-1.471 46.181 0.125 39.915 0.125C20.109 0.125 4.04-15.817 4.04-35.5C4.04-55.183 20.109-71.125 39.915-71.125C54.836-71.125 67.633-62.078 73.04-49.202L73.04-70C73.04-70.621 73.544-71.125 74.165-71.125C74.786-71.125 75.29-70.621 75.29-70L75.29-46.75C75.29-45.852 74.562-45.125 73.665-45.125L50.315-45.125C49.694-45.125 49.19-45.629 49.19-46.25C49.19-46.871 49.694-47.375 50.315-47.375L71.35-47.375C66.528-59.942 54.274-68.875 39.915-68.875Z"/>
  </g>
 </g>
</svg>
