<svg width="3300" height="2200" viewBox="0 0 3300 2200" fill="none" xmlns="http://www.w3.org/2000/svg">
<g id="arrow.clockwise.bling">
<g id="Notes">
<path id="artboard" d="M3300 0H0V2200H3300V0Z" fill="white"/>
<path id="Vector" d="M263 292H3036" stroke="black" stroke-width="0.5"/>
<text id="Weight/Scale Variations" fill="black" xml:space="preserve" style="white-space: pre" font-family="Roboto" font-size="13" font-weight="bold" letter-spacing="0em"><tspan x="263" y="320.943">Weight/Scale Variations</tspan></text>
<text id="Ultralight" fill="black" xml:space="preserve" style="white-space: pre" font-family="Roboto" font-size="13" letter-spacing="0em"><tspan x="533.211" y="320.943">Ultralight</tspan></text>
<text id="Thin" fill="black" xml:space="preserve" style="white-space: pre" font-family="Roboto" font-size="13" letter-spacing="0em"><tspan x="843.422" y="320.943">Thin</tspan></text>
<text id="Light" fill="black" xml:space="preserve" style="white-space: pre" font-family="Roboto" font-size="13" letter-spacing="0em"><tspan x="1138.63" y="320.943">Light</tspan></text>
<text id="Regular" fill="black" xml:space="preserve" style="white-space: pre" font-family="Roboto" font-size="13" letter-spacing="0em"><tspan x="1427.34" y="320.943">Regular</tspan></text>
<text id="Medium" fill="black" xml:space="preserve" style="white-space: pre" font-family="Roboto" font-size="13" letter-spacing="0em"><tspan x="1722.56" y="320.943">Medium</tspan></text>
<text id="Semibold" fill="black" xml:space="preserve" style="white-space: pre" font-family="Roboto" font-size="13" letter-spacing="0em"><tspan x="2015.77" y="320.943">Semibold</tspan></text>
<text id="Bold" fill="black" xml:space="preserve" style="white-space: pre" font-family="Roboto" font-size="13" letter-spacing="0em"><tspan x="2326.48" y="320.943">Bold</tspan></text>
<text id="Heavy" fill="black" xml:space="preserve" style="white-space: pre" font-family="Roboto" font-size="13" letter-spacing="0em"><tspan x="2618.69" y="320.943">Heavy</tspan></text>
<text id="Black" fill="black" xml:space="preserve" style="white-space: pre" font-family="Roboto" font-size="13" letter-spacing="0em"><tspan x="2917.4" y="320.943">Black</tspan></text>
<path id="Vector_2" d="M263 1903H3036" stroke="black" stroke-width="0.5"/>
<g id="Group">
<path id="Vector_3" d="M272.248 1933.83C273.329 1933.83 274.344 1933.62 275.295 1933.21C276.245 1932.8 277.084 1932.23 277.81 1931.51C278.535 1930.78 279.105 1929.94 279.519 1928.99C279.932 1928.04 280.139 1927.02 280.139 1925.95C280.139 1924.87 279.932 1923.86 279.519 1922.91C279.105 1921.96 278.534 1921.12 277.805 1920.39C277.075 1919.66 276.236 1919.09 275.285 1918.68C274.335 1918.27 273.319 1918.07 272.238 1918.07C271.164 1918.07 270.152 1918.27 269.201 1918.68C268.251 1919.09 267.414 1919.66 266.691 1920.39C265.969 1921.12 265.401 1921.96 264.987 1922.91C264.574 1923.86 264.367 1924.87 264.367 1925.95C264.367 1927.02 264.574 1928.04 264.987 1928.99C265.401 1929.94 265.97 1930.78 266.696 1931.51C267.422 1932.23 268.26 1932.8 269.211 1933.21C270.161 1933.62 271.174 1933.83 272.248 1933.83ZM272.248 1932.35C271.363 1932.35 270.534 1932.18 269.763 1931.85C268.991 1931.52 268.314 1931.07 267.731 1930.48C267.149 1929.89 266.693 1929.21 266.364 1928.44C266.035 1927.66 265.871 1926.83 265.871 1925.95C265.871 1925.06 266.034 1924.23 266.359 1923.46C266.685 1922.68 267.139 1922 267.722 1921.42C268.304 1920.83 268.981 1920.37 269.753 1920.05C270.524 1919.72 271.353 1919.55 272.238 1919.55C273.13 1919.55 273.962 1919.72 274.733 1920.05C275.505 1920.37 276.184 1920.83 276.769 1921.42C277.355 1922 277.814 1922.68 278.146 1923.46C278.478 1924.23 278.644 1925.06 278.644 1925.95C278.644 1926.83 278.48 1927.66 278.151 1928.44C277.823 1929.21 277.367 1929.89 276.784 1930.48C276.202 1931.07 275.523 1931.52 274.748 1931.85C273.973 1932.18 273.14 1932.35 272.248 1932.35ZM268.654 1925.95C268.654 1926.16 268.723 1926.34 268.859 1926.47C268.996 1926.61 269.178 1926.67 269.406 1926.67H271.516V1928.79C271.516 1929.01 271.581 1929.18 271.711 1929.32C271.841 1929.46 272.017 1929.53 272.238 1929.53C272.453 1929.53 272.631 1929.46 272.771 1929.32C272.91 1929.18 272.98 1929.01 272.98 1928.79V1926.67H275.09C275.311 1926.67 275.49 1926.61 275.627 1926.47C275.764 1926.34 275.832 1926.16 275.832 1925.95C275.832 1925.73 275.764 1925.55 275.627 1925.41C275.49 1925.28 275.311 1925.21 275.09 1925.21H272.98V1923.1C272.98 1922.88 272.91 1922.7 272.771 1922.56C272.631 1922.42 272.453 1922.35 272.238 1922.35C272.017 1922.35 271.841 1922.42 271.711 1922.56C271.581 1922.7 271.516 1922.88 271.516 1923.1V1925.21H269.406C269.178 1925.21 268.996 1925.28 268.859 1925.41C268.723 1925.55 268.654 1925.73 268.654 1925.95Z" fill="black"/>
</g>
<g id="Group_2">
<path id="Vector_4" d="M293.576 1935.91C294.937 1935.91 296.218 1935.65 297.419 1935.13C298.62 1934.61 299.68 1933.89 300.598 1932.97C301.516 1932.05 302.235 1930.99 302.756 1929.79C303.277 1928.59 303.537 1927.31 303.537 1925.95C303.537 1924.59 303.277 1923.31 302.756 1922.11C302.235 1920.91 301.516 1919.85 300.598 1918.93C299.68 1918.01 298.618 1917.29 297.414 1916.77C296.21 1916.25 294.927 1915.99 293.566 1915.99C292.206 1915.99 290.925 1916.25 289.724 1916.77C288.522 1917.29 287.465 1918.01 286.55 1918.93C285.635 1919.85 284.917 1920.91 284.396 1922.11C283.876 1923.31 283.615 1924.59 283.615 1925.95C283.615 1927.31 283.876 1928.59 284.396 1929.79C284.917 1930.99 285.637 1932.05 286.555 1932.97C287.473 1933.89 288.532 1934.61 289.733 1935.13C290.935 1935.65 292.215 1935.91 293.576 1935.91ZM293.576 1934.25C292.424 1934.25 291.346 1934.04 290.344 1933.61C289.341 1933.18 288.461 1932.58 287.702 1931.82C286.944 1931.06 286.351 1930.18 285.925 1929.18C285.498 1928.18 285.285 1927.1 285.285 1925.95C285.285 1924.8 285.498 1923.72 285.925 1922.72C286.351 1921.71 286.942 1920.83 287.697 1920.07C288.452 1919.31 289.331 1918.71 290.334 1918.29C291.337 1917.86 292.414 1917.65 293.566 1917.65C294.719 1917.65 295.796 1917.86 296.799 1918.29C297.801 1918.71 298.684 1919.31 299.445 1920.07C300.207 1920.83 300.803 1921.71 301.232 1922.72C301.662 1923.72 301.877 1924.8 301.877 1925.95C301.877 1927.1 301.664 1928.18 301.237 1929.18C300.811 1930.18 300.218 1931.06 299.46 1931.82C298.702 1932.58 297.819 1933.18 296.813 1933.61C295.808 1934.04 294.729 1934.25 293.576 1934.25ZM289.045 1925.95C289.045 1926.18 289.123 1926.38 289.279 1926.53C289.436 1926.68 289.637 1926.75 289.885 1926.75H292.756V1929.63C292.756 1929.88 292.831 1930.08 292.98 1930.23C293.13 1930.38 293.322 1930.46 293.557 1930.46C293.804 1930.46 294.004 1930.38 294.157 1930.23C294.31 1930.08 294.387 1929.88 294.387 1929.63V1926.75H297.268C297.515 1926.75 297.715 1926.68 297.868 1926.53C298.021 1926.38 298.098 1926.18 298.098 1925.95C298.098 1925.7 298.021 1925.5 297.868 1925.35C297.715 1925.2 297.515 1925.12 297.268 1925.12H294.387V1922.25C294.387 1921.99 294.31 1921.79 294.157 1921.64C294.004 1921.48 293.804 1921.41 293.557 1921.41C293.322 1921.41 293.13 1921.49 292.98 1921.64C292.831 1921.8 292.756 1922 292.756 1922.25V1925.12H289.885C289.631 1925.12 289.427 1925.2 289.274 1925.35C289.121 1925.5 289.045 1925.7 289.045 1925.95Z" fill="black"/>
</g>
<g id="Group_3">
<path id="Vector_5" d="M320.617 1938.66C322.01 1938.66 323.34 1938.45 324.606 1938.01C325.872 1937.58 327.036 1936.97 328.097 1936.19C329.158 1935.41 330.081 1934.49 330.866 1933.43C331.65 1932.37 332.259 1931.2 332.692 1929.93C333.125 1928.66 333.341 1927.34 333.341 1925.95C333.341 1924.56 333.125 1923.23 332.692 1921.96C332.259 1920.69 331.65 1919.53 330.866 1918.47C330.081 1917.41 329.158 1916.48 328.097 1915.7C327.036 1914.92 325.871 1914.31 324.601 1913.87C323.332 1913.44 322 1913.22 320.607 1913.22C319.214 1913.22 317.884 1913.44 316.618 1913.87C315.351 1914.31 314.189 1914.92 313.131 1915.7C312.073 1916.48 311.152 1917.41 310.368 1918.47C309.583 1919.53 308.976 1920.69 308.546 1921.96C308.117 1923.23 307.902 1924.56 307.902 1925.95C307.902 1927.34 308.118 1928.66 308.551 1929.93C308.984 1931.2 309.591 1932.37 310.373 1933.43C311.154 1934.49 312.075 1935.41 313.136 1936.19C314.197 1936.97 315.361 1937.58 316.627 1938.01C317.894 1938.45 319.223 1938.66 320.617 1938.66ZM320.617 1936.85C319.412 1936.85 318.265 1936.66 317.174 1936.3C316.084 1935.93 315.086 1935.41 314.181 1934.75C313.276 1934.08 312.49 1933.3 311.823 1932.39C311.155 1931.48 310.639 1930.48 310.275 1929.39C309.91 1928.3 309.728 1927.15 309.728 1925.95C309.728 1924.74 309.91 1923.59 310.275 1922.5C310.639 1921.41 311.154 1920.41 311.818 1919.5C312.482 1918.59 313.266 1917.8 314.171 1917.14C315.076 1916.48 316.074 1915.96 317.165 1915.6C318.255 1915.23 319.402 1915.05 320.607 1915.05C321.818 1915.05 322.969 1915.23 324.059 1915.6C325.15 1915.96 326.149 1916.48 327.057 1917.14C327.965 1917.8 328.751 1918.59 329.415 1919.5C330.08 1920.41 330.596 1921.41 330.963 1922.5C331.331 1923.59 331.515 1924.74 331.515 1925.95C331.522 1927.15 331.343 1928.3 330.978 1929.39C330.613 1930.48 330.098 1931.48 329.43 1932.39C328.763 1933.3 327.975 1934.08 327.067 1934.75C326.159 1935.41 325.159 1935.93 324.069 1936.3C322.978 1936.66 321.828 1936.85 320.617 1936.85ZM314.845 1925.95C314.845 1926.2 314.931 1926.41 315.104 1926.58C315.277 1926.75 315.496 1926.83 315.763 1926.83H319.708V1930.78C319.708 1931.05 319.791 1931.27 319.957 1931.44C320.123 1931.61 320.337 1931.7 320.597 1931.7C320.864 1931.7 321.084 1931.62 321.256 1931.45C321.429 1931.28 321.515 1931.06 321.515 1930.78V1926.83H325.47C325.737 1926.83 325.955 1926.75 326.124 1926.58C326.294 1926.41 326.378 1926.2 326.378 1925.95C326.378 1925.68 326.294 1925.45 326.124 1925.29C325.955 1925.12 325.737 1925.03 325.47 1925.03H321.515V1921.09C321.515 1920.81 321.429 1920.59 321.256 1920.42C321.084 1920.24 320.864 1920.16 320.597 1920.16C320.337 1920.16 320.123 1920.24 319.957 1920.42C319.791 1920.59 319.708 1920.81 319.708 1921.09V1925.03H315.763C315.49 1925.03 315.268 1925.12 315.099 1925.29C314.93 1925.45 314.845 1925.68 314.845 1925.95Z" fill="black"/>
</g>
<text id="Design Variations" fill="black" xml:space="preserve" style="white-space: pre" font-family="Roboto" font-size="13" font-weight="bold" letter-spacing="0em"><tspan x="263" y="1951.94">Design Variations</tspan></text>
<text id="Symbols are supported in up to nine weights and three scales." fill="black" xml:space="preserve" style="white-space: pre" font-family="Roboto" font-size="13" letter-spacing="0em"><tspan x="263" y="1969.94">Symbols are supported in up to nine weights and three scales.</tspan></text>
<text id="For optimal layout with text and other symbols, vertically align" fill="black" xml:space="preserve" style="white-space: pre" font-family="Roboto" font-size="13" letter-spacing="0em"><tspan x="263" y="1987.94">For optimal layout with text and other symbols, vertically align</tspan></text>
<text id="symbols with the adjacent text." fill="black" xml:space="preserve" style="white-space: pre" font-family="Roboto" font-size="13" letter-spacing="0em"><tspan x="263" y="2005.94">symbols with the adjacent text.</tspan></text>
<path id="Vector_6" d="M776 1919V1933" stroke="#00AEEF" stroke-width="0.5"/>
<g id="Group_4">
<path id="Vector_7" d="M779.311 1933.16C779.571 1933.16 779.773 1933.1 779.916 1932.99C780.059 1932.88 780.176 1932.69 780.268 1932.41L781.527 1928.97H787.289L788.549 1932.41C788.64 1932.69 788.757 1932.88 788.9 1932.99C789.044 1933.1 789.242 1933.16 789.496 1933.16C789.757 1933.16 789.963 1933.08 790.116 1932.94C790.269 1932.8 790.346 1932.6 790.346 1932.36C790.346 1932.21 790.31 1932.03 790.238 1931.83L785.658 1919.63C785.541 1919.33 785.382 1919.11 785.18 1918.96C784.978 1918.81 784.721 1918.73 784.408 1918.73C783.803 1918.73 783.393 1919.03 783.178 1919.62L778.598 1931.84C778.526 1932.04 778.49 1932.22 778.49 1932.37C778.49 1932.61 778.563 1932.81 778.71 1932.95C778.856 1933.09 779.057 1933.16 779.311 1933.16ZM782.006 1927.48L784.379 1920.91H784.428L786.801 1927.48H782.006Z" fill="black"/>
</g>
<path id="Vector_8" d="M793.197 1919V1933" stroke="#00AEEF" stroke-width="0.5"/>
<text id="Margins" fill="black" xml:space="preserve" style="white-space: pre" font-family="Roboto" font-size="13" font-weight="bold" letter-spacing="0em"><tspan x="776" y="1951.94">Margins</tspan></text>
<text id="Leading and trailing margins on the left and right side of each symbol" fill="black" xml:space="preserve" style="white-space: pre" font-family="Roboto" font-size="13" letter-spacing="0em"><tspan x="776" y="1969.94">Leading and trailing margins on the left and right side of each symbol</tspan></text>
<text id="can be adjusted by modifying the x-location of the margin guidelines." fill="black" xml:space="preserve" style="white-space: pre" font-family="Roboto" font-size="13" letter-spacing="0em"><tspan x="776" y="1987.94">can be adjusted by modifying the x-location of the margin guidelines.</tspan></text>
<text id="Modifications are automatically applied proportionally to all" fill="black" xml:space="preserve" style="white-space: pre" font-family="Roboto" font-size="13" letter-spacing="0em"><tspan x="776" y="2005.94">Modifications are automatically applied proportionally to all</tspan></text>
<text id="scales and weights." fill="black" xml:space="preserve" style="white-space: pre" font-family="Roboto" font-size="13" letter-spacing="0em"><tspan x="776" y="2023.94">scales and weights.</tspan></text>
<g id="Group_5">
<path id="Vector_9" d="M1291.84 1934.87L1293.54 1936.57C1293.97 1937.01 1294.42 1937.21 1294.9 1937.18C1295.38 1937.15 1295.85 1936.87 1296.31 1936.36L1307.01 1924.57L1306.04 1923.6L1295.43 1935.28C1295.25 1935.48 1295.07 1935.59 1294.89 1935.62C1294.71 1935.64 1294.51 1935.54 1294.27 1935.3L1293.1 1934.14C1292.87 1933.91 1292.76 1933.7 1292.79 1933.52C1292.82 1933.34 1292.94 1933.16 1293.14 1932.98L1304.62 1922.18L1303.64 1921.21L1292.05 1932.1C1291.55 1932.56 1291.29 1933.02 1291.25 1933.5C1291.22 1933.97 1291.41 1934.43 1291.84 1934.87ZM1298.26 1916.67C1298.05 1916.87 1297.93 1917.1 1297.91 1917.37C1297.88 1917.63 1297.93 1917.85 1298.04 1918.05C1298.16 1918.23 1298.33 1918.37 1298.56 1918.46C1298.78 1918.55 1299.06 1918.56 1299.38 1918.48C1300.11 1918.31 1300.85 1918.24 1301.6 1918.27C1302.35 1918.3 1303.08 1918.55 1303.79 1919.02L1303.21 1920.47C1303.04 1920.89 1302.99 1921.25 1303.07 1921.56C1303.14 1921.87 1303.31 1922.16 1303.58 1922.43L1305.87 1924.75C1306.12 1925 1306.35 1925.14 1306.58 1925.18C1306.81 1925.22 1307.06 1925.21 1307.34 1925.16L1308.4 1924.96L1309.07 1925.64L1309.03 1926.19C1309.01 1926.44 1309.04 1926.67 1309.12 1926.88C1309.2 1927.09 1309.36 1927.31 1309.61 1927.55L1310.37 1928.29C1310.61 1928.53 1310.87 1928.66 1311.15 1928.67C1311.44 1928.68 1311.7 1928.57 1311.93 1928.33L1314.84 1925.41C1315.07 1925.18 1315.19 1924.92 1315.18 1924.65C1315.18 1924.37 1315.05 1924.11 1314.81 1923.87L1314.04 1923.11C1313.8 1922.87 1313.58 1922.7 1313.38 1922.61C1313.17 1922.53 1312.95 1922.49 1312.71 1922.51L1312.13 1922.56L1311.49 1921.93L1311.73 1920.8C1311.8 1920.52 1311.79 1920.26 1311.7 1920.02C1311.6 1919.77 1311.41 1919.5 1311.12 1919.21L1308.92 1917.02C1308.09 1916.2 1307.2 1915.58 1306.26 1915.16C1305.32 1914.75 1304.37 1914.53 1303.42 1914.52C1302.47 1914.5 1301.55 1914.68 1300.66 1915.04C1299.78 1915.41 1298.98 1915.95 1298.26 1916.67ZM1299.75 1917.04C1300.36 1916.6 1301.01 1916.28 1301.7 1916.1C1302.39 1915.91 1303.1 1915.85 1303.8 1915.92C1304.51 1915.98 1305.2 1916.17 1305.87 1916.49C1306.54 1916.8 1307.15 1917.24 1307.7 1917.79L1310.13 1920.21C1310.25 1920.32 1310.32 1920.44 1310.35 1920.55C1310.38 1920.66 1310.38 1920.8 1310.34 1920.97L1310.02 1922.45L1311.52 1923.94L1312.51 1923.88C1312.63 1923.87 1312.72 1923.88 1312.79 1923.9C1312.85 1923.93 1312.94 1923.99 1313.03 1924.08L1313.61 1924.66L1311.17 1927.1L1310.59 1926.53C1310.49 1926.43 1310.43 1926.35 1310.41 1926.28C1310.38 1926.22 1310.37 1926.12 1310.38 1925.99L1310.45 1925.01L1308.95 1923.53L1307.43 1923.78C1307.26 1923.81 1307.14 1923.82 1307.04 1923.8C1306.95 1923.77 1306.84 1923.7 1306.71 1923.59L1304.71 1921.58C1304.58 1921.47 1304.51 1921.35 1304.49 1921.25C1304.48 1921.14 1304.51 1920.99 1304.59 1920.81L1305.46 1918.72C1304.68 1917.99 1303.8 1917.49 1302.83 1917.21C1301.85 1916.93 1300.86 1916.94 1299.84 1917.24C1299.76 1917.26 1299.71 1917.24 1299.69 1917.19C1299.67 1917.15 1299.69 1917.1 1299.75 1917.04Z" fill="black"/>
</g>
<text id="Exporting" fill="black" xml:space="preserve" style="white-space: pre" font-family="Roboto" font-size="13" font-weight="bold" letter-spacing="0em"><tspan x="1289" y="1951.94">Exporting</tspan></text>
<text id="Symbols should be outlined when exporting to ensure the" fill="black" xml:space="preserve" style="white-space: pre" font-family="Roboto" font-size="13" letter-spacing="0em"><tspan x="1289" y="1969.94">Symbols should be outlined when exporting to ensure the</tspan></text>
<text id="design is preserved when submitting to Xcode." fill="black" xml:space="preserve" style="white-space: pre" font-family="Roboto" font-size="13" letter-spacing="0em"><tspan x="1289" y="1987.94">design is preserved when submitting to Xcode.</tspan></text>
<text id="template-version" fill="black" xml:space="preserve" style="white-space: pre" font-family="Roboto" font-size="13" letter-spacing="0em"><tspan x="2951" y="1931.94">Template v.3.0</tspan></text>
<text id="Requires Xcode 13 or greater" fill="black" xml:space="preserve" style="white-space: pre" font-family="Roboto" font-size="13" letter-spacing="0em"><tspan x="2868" y="1949.94">Requires Xcode 13 or greater</tspan></text>
<text id="descriptive-name" fill="black" xml:space="preserve" style="white-space: pre" font-family="Roboto" font-size="13" letter-spacing="0em"><tspan x="2849" y="1967.94">Generated from arrow.clockwise</tspan></text>
<text id="Typeset at 100 points" fill="black" xml:space="preserve" style="white-space: pre" font-family="Roboto" font-size="13" letter-spacing="0em"><tspan x="2911" y="1985.94">Typeset at 100 points</tspan></text>
<text id="Small" fill="black" xml:space="preserve" style="white-space: pre" font-family="Roboto" font-size="13" letter-spacing="0em"><tspan x="263" y="724.943">Small</tspan></text>
<text id="Medium_2" fill="black" xml:space="preserve" style="white-space: pre" font-family="Roboto" font-size="13" letter-spacing="0em"><tspan x="263" y="1154.94">Medium</tspan></text>
<text id="Large" fill="black" xml:space="preserve" style="white-space: pre" font-family="Roboto" font-size="13" letter-spacing="0em"><tspan x="263" y="1584.94">Large</tspan></text>
</g>
<g id="Guides">
<g id="H-reference">
<path id="Vector_10" d="M339.977 696H342.662L368.346 628.861H369.029V625.541H367.125L339.977 696ZM350.67 671.537H385.973L385.24 669.291H351.451L350.67 671.537ZM394.127 696H396.764L369.615 625.541H368.443V628.861L394.127 696Z" fill="#27AAE1"/>
</g>
<path id="Baseline-S" d="M263 696H3036" stroke="#27AAE1" stroke-width="0.5"/>
<path id="Capline-S" d="M263 625.541H3036" stroke="#27AAE1" stroke-width="0.5"/>
<g id="H-reference_2">
<path id="Vector_11" d="M339.977 1126H342.662L368.346 1058.86H369.029V1055.54H367.125L339.977 1126ZM350.67 1101.54H385.973L385.24 1099.29H351.451L350.67 1101.54ZM394.127 1126H396.764L369.615 1055.54H368.443V1058.86L394.127 1126Z" fill="#27AAE1"/>
</g>
<path id="Baseline-M" d="M263 1126H3036" stroke="#27AAE1" stroke-width="0.5"/>
<path id="Capline-M" d="M263 1055.54H3036" stroke="#27AAE1" stroke-width="0.5"/>
<g id="H-reference_3">
<path id="Vector_12" d="M339.977 1556H342.662L368.346 1488.86H369.029V1485.54H367.125L339.977 1556ZM350.67 1531.54H385.973L385.24 1529.29H351.451L350.67 1531.54ZM394.127 1556H396.764L369.615 1485.54H368.443V1488.86L394.127 1556Z" fill="#27AAE1"/>
</g>
<path id="Baseline-L" d="M263 1556H3036" stroke="#27AAE1" stroke-width="0.5"/>
<path id="Capline-L" d="M263 1485.54H3036" stroke="#27AAE1" stroke-width="0.5"/>
<path id="left-margin-Regular-M" d="M1397.96 1030.79V1150.12" stroke="#00AEEF" stroke-width="0.5"/>
<path id="right-margin-Regular-M" d="M1501.72 1030.79V1150.12" stroke="#00AEEF" stroke-width="0.5"/>
</g>
<g id="Symbols">
<g id="Black-L">
<path id="Union (Stroke)" fill-rule="evenodd" clip-rule="evenodd" d="M2934.42 1465.75C2906.93 1465.75 2884.75 1487.86 2884.75 1515C2884.75 1542.14 2906.93 1564.25 2934.42 1564.25C2943.13 1564.25 2951.29 1562.04 2958.38 1558.15C2962.62 1555.83 2967.94 1557.39 2970.26 1561.63C2972.58 1565.87 2971.02 1571.19 2966.78 1573.51C2957.17 1578.76 2946.13 1581.75 2934.42 1581.75C2897.38 1581.75 2867.25 1551.92 2867.25 1515C2867.25 1478.08 2897.38 1448.25 2934.42 1448.25C2953.65 1448.25 2971 1456.28 2983.25 1469.16V1457C2983.25 1452.17 2987.17 1448.25 2992 1448.25C2996.83 1448.25 3000.75 1452.17 3000.75 1457V1496.43C3000.75 1501.54 2996.61 1505.68 2991.5 1505.68H2951.9C2947.07 1505.68 2943.15 1501.76 2943.15 1496.93C2943.15 1492.1 2947.07 1488.18 2951.9 1488.18H2976.09C2967.23 1474.69 2951.89 1465.75 2934.42 1465.75Z" fill="black"/>
</g>
<g id="Heavy-L">
<path id="Union (Stroke)_2" fill-rule="evenodd" clip-rule="evenodd" d="M2637.42 1466.75C2609.38 1466.75 2586.75 1489.3 2586.75 1517C2586.75 1544.7 2609.38 1567.25 2637.42 1567.25C2646.3 1567.25 2654.62 1564.99 2661.86 1561.03C2665.61 1558.98 2670.32 1560.35 2672.38 1564.11C2674.43 1567.86 2673.05 1572.57 2669.3 1574.63C2659.84 1579.81 2648.96 1582.75 2637.42 1582.75C2600.93 1582.75 2571.25 1553.37 2571.25 1517C2571.25 1480.63 2600.93 1451.25 2637.42 1451.25C2657.29 1451.25 2675.12 1459.95 2687.25 1473.74V1459C2687.25 1454.72 2690.72 1451.25 2695 1451.25C2699.28 1451.25 2702.75 1454.72 2702.75 1459V1498.43C2702.75 1502.98 2699.06 1506.68 2694.5 1506.68H2654.9C2650.62 1506.68 2647.15 1503.21 2647.15 1498.93C2647.15 1494.65 2650.62 1491.18 2654.9 1491.18H2680.9C2672.05 1476.55 2655.9 1466.75 2637.42 1466.75Z" fill="black"/>
</g>
<g id="Bold-L">
<path id="Union (Stroke)_3" fill-rule="evenodd" clip-rule="evenodd" d="M2340.42 1464C2311.43 1464 2288 1487.32 2288 1516C2288 1544.68 2311.43 1568 2340.42 1568C2349.6 1568 2358.21 1565.66 2365.7 1561.57C2368.61 1559.98 2372.25 1561.04 2373.84 1563.95C2375.43 1566.86 2374.37 1570.5 2371.46 1572.09C2362.25 1577.14 2351.66 1580 2340.42 1580C2304.88 1580 2276 1551.39 2276 1516C2276 1480.61 2304.88 1452 2340.42 1452C2361.51 1452 2380.25 1462.07 2392 1477.65V1458C2392 1454.69 2394.69 1452 2398 1452C2401.31 1452 2404 1454.69 2404 1458V1497.43C2404 1501.02 2401.09 1503.93 2397.5 1503.93H2357.9C2354.59 1503.93 2351.9 1501.24 2351.9 1497.93C2351.9 1494.61 2354.59 1491.93 2357.9 1491.93H2386.9C2378.15 1475.34 2360.62 1464 2340.42 1464Z" fill="black"/>
</g>
<g id="Semibold-L">
<path id="Union (Stroke)_4" fill-rule="evenodd" clip-rule="evenodd" d="M2045.42 1464.5C2016.16 1464.5 1992.5 1488.04 1992.5 1517C1992.5 1545.96 2016.16 1569.5 2045.42 1569.5C2054.69 1569.5 2063.38 1567.14 2070.94 1563.01C2073.6 1561.55 2076.95 1562.53 2078.4 1565.19C2079.86 1567.85 2078.88 1571.2 2076.22 1572.65C2067.08 1577.66 2056.57 1580.5 2045.42 1580.5C2010.16 1580.5 1981.5 1552.11 1981.5 1517C1981.5 1481.89 2010.16 1453.5 2045.42 1453.5C2066.9 1453.5 2085.91 1464.02 2097.5 1480.18V1459C2097.5 1455.96 2099.96 1453.5 2103 1453.5C2106.04 1453.5 2108.5 1455.96 2108.5 1459V1498.43C2108.5 1501.74 2105.81 1504.43 2102.5 1504.43H2062.9C2059.87 1504.43 2057.4 1501.97 2057.4 1498.93C2057.4 1495.89 2059.87 1493.43 2062.9 1493.43H2092.72C2084.02 1476.28 2066.11 1464.5 2045.42 1464.5Z" fill="black"/>
</g>
<g id="Medium-L">
<path id="Union (Stroke)_5" fill-rule="evenodd" clip-rule="evenodd" d="M1747.42 1465C1717.88 1465 1694 1488.76 1694 1518C1694 1547.24 1717.88 1571 1747.42 1571C1756.77 1571 1765.55 1568.62 1773.18 1564.44C1775.6 1563.12 1778.64 1564.01 1779.97 1566.43C1781.29 1568.85 1780.4 1571.89 1777.98 1573.22C1768.91 1578.18 1758.49 1581 1747.42 1581C1712.43 1581 1684 1552.83 1684 1518C1684 1483.17 1712.43 1455 1747.42 1455C1769.3 1455 1788.6 1466.01 1800 1482.76V1460C1800 1457.24 1802.24 1455 1805 1455C1807.76 1455 1810 1457.24 1810 1460V1499.43C1810 1502.47 1807.54 1504.93 1804.5 1504.93H1764.9C1762.14 1504.93 1759.9 1502.69 1759.9 1499.93C1759.9 1497.17 1762.14 1494.93 1764.9 1494.93H1795.53C1786.88 1477.22 1768.6 1465 1747.42 1465Z" fill="black"/>
</g>
<g id="Regular-L">
<path id="Union (Stroke)_6" fill-rule="evenodd" clip-rule="evenodd" d="M1451.42 1464C1421.34 1464 1397 1488.2 1397 1518C1397 1547.8 1421.34 1572 1451.42 1572C1460.94 1572 1469.88 1569.58 1477.66 1565.32C1479.6 1564.26 1482.03 1564.97 1483.09 1566.91C1484.15 1568.85 1483.44 1571.28 1481.5 1572.34C1472.57 1577.22 1462.32 1580 1451.42 1580C1416.97 1580 1389 1552.27 1389 1518C1389 1483.73 1416.97 1456 1451.42 1456C1474.17 1456 1494.09 1468.09 1505 1486.18V1460C1505 1457.79 1506.79 1456 1509 1456C1511.21 1456 1513 1457.79 1513 1460V1499.43C1513 1501.91 1510.99 1503.93 1508.5 1503.93H1468.9C1466.7 1503.93 1464.9 1502.14 1464.9 1499.93C1464.9 1497.72 1466.7 1495.93 1468.9 1495.93H1501.1C1492.6 1477.11 1473.56 1464 1451.42 1464Z" fill="black"/>
</g>
<g id="Light-L">
<path id="Union (Stroke)_7" fill-rule="evenodd" clip-rule="evenodd" d="M1153.42 1463.5C1123.06 1463.5 1098.5 1487.92 1098.5 1518C1098.5 1548.08 1123.06 1572.5 1153.42 1572.5C1163.03 1572.5 1172.05 1570.05 1179.9 1565.76C1181.6 1564.83 1183.72 1565.45 1184.65 1567.15C1185.58 1568.85 1184.96 1570.97 1183.26 1571.9C1174.41 1576.75 1164.23 1579.5 1153.42 1579.5C1119.25 1579.5 1091.5 1551.99 1091.5 1518C1091.5 1484.01 1119.25 1456.5 1153.42 1456.5C1176.66 1456.5 1196.91 1469.21 1207.5 1488.03V1460C1207.5 1458.07 1209.07 1456.5 1211 1456.5C1212.93 1456.5 1214.5 1458.07 1214.5 1460V1499.43C1214.5 1501.64 1212.71 1503.43 1210.5 1503.43H1170.9C1168.97 1503.43 1167.4 1501.86 1167.4 1499.93C1167.4 1497.99 1168.97 1496.43 1170.9 1496.43H1203.87C1195.45 1477.06 1176.04 1463.5 1153.42 1463.5Z" fill="black"/>
</g>
<g id="Thin-L">
<path id="Union (Stroke)_8" fill-rule="evenodd" clip-rule="evenodd" d="M857.42 1462.5C826.519 1462.5 801.5 1487.37 801.5 1518C801.5 1548.63 826.519 1573.5 857.42 1573.5C867.201 1573.5 876.388 1571.01 884.38 1566.64C885.591 1565.97 887.11 1566.42 887.773 1567.63C888.436 1568.84 887.991 1570.36 886.78 1571.02C878.069 1575.79 868.06 1578.5 857.42 1578.5C823.792 1578.5 796.5 1551.43 796.5 1518C796.5 1484.57 823.792 1457.5 857.42 1457.5C881.737 1457.5 902.731 1471.65 912.5 1492.12V1460C912.5 1458.62 913.619 1457.5 915 1457.5C916.381 1457.5 917.5 1458.62 917.5 1460V1499.43C917.5 1501.08 916.157 1502.43 914.5 1502.43H874.904C873.524 1502.43 872.404 1501.31 872.404 1499.93C872.404 1498.55 873.524 1497.43 874.904 1497.43H909.374C901.141 1476.97 880.986 1462.5 857.42 1462.5Z" fill="black"/>
</g>
<g id="Ultralight-L">
<path id="Union (Stroke)_9" fill-rule="evenodd" clip-rule="evenodd" d="M560.42 1462C529.247 1462 504 1487.09 504 1518C504 1548.91 529.247 1574 560.42 1574C570.287 1574 579.556 1571.49 587.62 1567.08C588.589 1566.55 589.804 1566.9 590.334 1567.87C590.865 1568.84 590.509 1570.05 589.54 1570.58C580.901 1575.31 570.974 1578 560.42 1578C527.065 1578 500 1551.15 500 1518C500 1484.85 527.065 1458 560.42 1458C585.36 1458 606.776 1473.01 616 1494.43V1460C616 1458.9 616.896 1458 618 1458C619.105 1458 620 1458.9 620 1460V1499.43C620 1500.81 618.881 1501.93 617.5 1501.93H577.904C576.8 1501.93 575.904 1501.03 575.904 1499.93C575.904 1498.82 576.8 1497.93 577.904 1497.93H613.109C604.979 1476.92 584.458 1462 560.42 1462Z" fill="black"/>
</g>
<g id="Black-M">
<path id="Union (Stroke)_10" fill-rule="evenodd" clip-rule="evenodd" d="M2933.82 1051C2913.43 1051 2897 1067.39 2897 1087.5C2897 1107.61 2913.43 1124 2933.82 1124C2940.27 1124 2946.32 1122.36 2951.57 1119.48C2954.97 1117.63 2959.22 1118.87 2961.08 1122.26C2962.93 1125.65 2961.69 1129.91 2958.3 1131.76C2951.03 1135.74 2942.67 1138 2933.82 1138C2905.8 1138 2883 1115.44 2883 1087.5C2883 1059.56 2905.8 1037 2933.82 1037C2947.97 1037 2960.78 1042.75 2970 1052.05V1044C2970 1040.13 2973.13 1037 2977 1037C2980.87 1037 2984 1040.13 2984 1044V1073.45C2984 1077.59 2980.64 1080.95 2976.5 1080.95H2946.93C2943.06 1080.95 2939.93 1077.81 2939.93 1073.95C2939.93 1070.08 2943.06 1066.95 2946.93 1066.95H2964.24C2957.62 1057.33 2946.47 1051 2933.82 1051Z" fill="black"/>
</g>
<g id="Heavy-M">
<path id="Union (Stroke)_11" fill-rule="evenodd" clip-rule="evenodd" d="M2635.82 1052.5C2615.16 1052.5 2598.5 1069.11 2598.5 1089.5C2598.5 1109.89 2615.16 1126.5 2635.82 1126.5C2642.36 1126.5 2648.49 1124.84 2653.81 1121.92C2656.96 1120.2 2660.91 1121.35 2662.64 1124.5C2664.36 1127.65 2663.2 1131.6 2660.06 1133.32C2652.86 1137.26 2644.59 1139.5 2635.82 1139.5C2608.07 1139.5 2585.5 1117.16 2585.5 1089.5C2585.5 1061.84 2608.07 1039.5 2635.82 1039.5C2650.28 1039.5 2663.32 1045.56 2672.5 1055.28V1046C2672.5 1042.41 2675.41 1039.5 2679 1039.5C2682.59 1039.5 2685.5 1042.41 2685.5 1046V1075.45C2685.5 1079.31 2682.37 1082.45 2678.5 1082.45H2648.93C2645.34 1082.45 2642.43 1079.54 2642.43 1075.95C2642.43 1072.36 2645.34 1069.45 2648.93 1069.45H2667.18C2660.54 1059.26 2648.98 1052.5 2635.82 1052.5Z" fill="black"/>
</g>
<g id="Bold-M">
<path id="Union (Stroke)_12" fill-rule="evenodd" clip-rule="evenodd" d="M2339.82 1050.5C2318.62 1050.5 2301.5 1067.55 2301.5 1088.5C2301.5 1109.45 2318.62 1126.5 2339.82 1126.5C2346.53 1126.5 2352.82 1124.79 2358.29 1121.8C2360.96 1120.34 2364.3 1121.32 2365.76 1123.98C2367.22 1126.65 2366.24 1129.99 2363.58 1131.45C2356.52 1135.31 2348.42 1137.5 2339.82 1137.5C2312.62 1137.5 2290.5 1115.6 2290.5 1088.5C2290.5 1061.4 2312.62 1039.5 2339.82 1039.5C2354.92 1039.5 2368.45 1046.25 2377.5 1056.89V1045C2377.5 1041.96 2379.96 1039.5 2383 1039.5C2386.04 1039.5 2388.5 1041.96 2388.5 1045V1074.45C2388.5 1077.76 2385.81 1080.45 2382.5 1080.45H2352.93C2349.89 1080.45 2347.43 1077.98 2347.43 1074.95C2347.43 1071.91 2349.89 1069.45 2352.93 1069.45H2372.97C2366.34 1058.12 2353.98 1050.5 2339.82 1050.5Z" fill="black"/>
</g>
<g id="Semibold-M">
<path id="Union (Stroke)_13" fill-rule="evenodd" clip-rule="evenodd" d="M2042.82 1051C2021.34 1051 2004 1068.27 2004 1089.5C2004 1110.73 2021.34 1128 2042.82 1128C2049.61 1128 2055.99 1126.27 2061.53 1123.24C2063.96 1121.91 2067 1122.8 2068.32 1125.22C2069.65 1127.64 2068.76 1130.68 2066.33 1132.01C2059.35 1135.83 2051.33 1138 2042.82 1138C2015.89 1138 1994 1116.32 1994 1089.5C1994 1062.68 2015.89 1041 2042.82 1041C2058.27 1041 2072.05 1048.14 2081 1059.28V1046C2081 1043.24 2083.24 1041 2086 1041C2088.76 1041 2091 1043.24 2091 1046V1075.45C2091 1078.48 2088.54 1080.95 2085.5 1080.95H2055.93C2053.17 1080.95 2050.93 1078.71 2050.93 1075.95C2050.93 1073.18 2053.17 1070.95 2055.93 1070.95H2076.83C2070.23 1059.06 2057.48 1051 2042.82 1051Z" fill="black"/>
</g>
<g id="Medium-M">
<path id="Union (Stroke)_14" fill-rule="evenodd" clip-rule="evenodd" d="M1746.82 1051.5C1725.07 1051.5 1707.5 1068.99 1707.5 1090.5C1707.5 1112.01 1725.07 1129.5 1746.82 1129.5C1753.7 1129.5 1760.16 1127.75 1765.77 1124.67C1767.95 1123.48 1770.69 1124.28 1771.88 1126.46C1773.08 1128.64 1772.28 1131.38 1770.09 1132.57C1763.18 1136.35 1755.25 1138.5 1746.82 1138.5C1720.16 1138.5 1698.5 1117.04 1698.5 1090.5C1698.5 1063.96 1720.16 1042.5 1746.82 1042.5C1762.63 1042.5 1776.68 1050.05 1785.5 1061.74V1047C1785.5 1044.51 1787.51 1042.5 1790 1042.5C1792.49 1042.5 1794.5 1044.51 1794.5 1047V1076.45C1794.5 1079.21 1792.26 1081.45 1789.5 1081.45H1759.93C1757.44 1081.45 1755.43 1079.43 1755.43 1076.95C1755.43 1074.46 1757.44 1072.45 1759.93 1072.45H1781.67C1775.11 1060 1761.97 1051.5 1746.82 1051.5Z" fill="black"/>
</g>
<g id="Regular-M">
<path id="Union (Stroke)_15" fill-rule="evenodd" clip-rule="evenodd" d="M1449.82 1051C1427.8 1051 1410 1068.71 1410 1090.5C1410 1112.29 1427.8 1130 1449.82 1130C1456.79 1130 1463.33 1128.23 1469.01 1125.11C1470.95 1124.05 1473.38 1124.76 1474.44 1126.7C1475.5 1128.64 1474.79 1131.07 1472.86 1132.13C1466.02 1135.87 1458.16 1138 1449.82 1138C1423.43 1138 1402 1116.76 1402 1090.5C1402 1064.24 1423.43 1043 1449.82 1043C1466.02 1043 1480.35 1051.01 1489 1063.27V1047C1489 1044.79 1490.79 1043 1493 1043C1495.21 1043 1497 1044.79 1497 1047V1076.45C1497 1078.93 1494.99 1080.95 1492.5 1080.95H1462.93C1460.72 1080.95 1458.93 1079.16 1458.93 1076.95C1458.93 1074.74 1460.72 1072.95 1462.93 1072.95H1485.49C1478.98 1059.94 1465.46 1051 1449.82 1051Z" fill="black"/>
</g>
<g id="Light-M">
<path id="Union (Stroke)_16" fill-rule="evenodd" clip-rule="evenodd" d="M1153.82 1050C1131.25 1050 1113 1068.15 1113 1090.5C1113 1112.85 1131.25 1131 1153.82 1131C1160.96 1131 1167.66 1129.18 1173.49 1125.99C1174.95 1125.2 1176.77 1125.73 1177.57 1127.18C1178.36 1128.64 1177.83 1130.46 1176.37 1131.25C1169.68 1134.92 1161.99 1137 1153.82 1137C1127.98 1137 1107 1116.2 1107 1090.5C1107 1064.8 1127.98 1044 1153.82 1044C1170.88 1044 1185.82 1053.07 1194 1066.63V1047C1194 1045.34 1195.34 1044 1197 1044C1198.66 1044 1200 1045.34 1200 1047V1076.45C1200 1078.38 1198.43 1079.95 1196.5 1079.95H1166.93C1165.27 1079.95 1163.93 1078.6 1163.93 1076.95C1163.93 1075.29 1165.27 1073.95 1166.93 1073.95H1191.08C1184.7 1059.84 1170.42 1050 1153.82 1050Z" fill="black"/>
</g>
<g id="Thin-M">
<path id="Union (Stroke)_17" fill-rule="evenodd" clip-rule="evenodd" d="M856.815 1048.75C833.571 1048.75 814.75 1067.45 814.75 1090.5C814.75 1113.55 833.571 1132.25 856.815 1132.25C864.172 1132.25 871.083 1130.38 877.095 1127.09C877.943 1126.62 879.006 1126.93 879.47 1127.78C879.934 1128.63 879.623 1129.69 878.775 1130.16C872.26 1133.72 864.773 1135.75 856.815 1135.75C831.662 1135.75 811.25 1115.5 811.25 1090.5C811.25 1065.5 831.662 1045.25 856.815 1045.25C875.203 1045.25 891.05 1056.07 898.25 1071.65V1047C898.25 1046.03 899.033 1045.25 900 1045.25C900.966 1045.25 901.75 1046.03 901.75 1047V1076.45C901.75 1077.69 900.742 1078.7 899.5 1078.7H869.928C868.962 1078.7 868.178 1077.91 868.178 1076.95C868.178 1075.98 868.962 1075.2 869.928 1075.2H895.965C889.815 1059.71 874.607 1048.75 856.815 1048.75Z" fill="black"/>
</g>
<g id="Ultralight-M">
<path id="Union (Stroke)_18" fill-rule="evenodd" clip-rule="evenodd" d="M559.815 1048.25C536.299 1048.25 517.25 1067.17 517.25 1090.5C517.25 1113.83 536.299 1132.75 559.815 1132.75C567.258 1132.75 574.251 1130.85 580.335 1127.53C580.94 1127.19 581.7 1127.42 582.031 1128.02C582.363 1128.63 582.14 1129.39 581.535 1129.72C575.092 1133.24 567.687 1135.25 559.815 1135.25C534.935 1135.25 514.75 1115.22 514.75 1090.5C514.75 1065.78 534.935 1045.75 559.815 1045.75C578.864 1045.75 595.156 1057.49 601.75 1074.08V1047C601.75 1046.31 602.309 1045.75 603 1045.75C603.69 1045.75 604.25 1046.31 604.25 1047V1076.45C604.25 1077.41 603.466 1078.2 602.5 1078.2H572.928C572.238 1078.2 571.678 1077.64 571.678 1076.95C571.678 1076.26 572.238 1075.7 572.928 1075.7H599.695C593.652 1059.67 578.078 1048.25 559.815 1048.25Z" fill="black"/>
</g>
<g id="Black-S">
<path id="Union (Stroke)_19" fill-rule="evenodd" clip-rule="evenodd" d="M2931.75 631C2915.83 631 2903 643.801 2903 659.5C2903 675.199 2915.83 688 2931.75 688C2936.79 688 2941.51 686.718 2945.62 684.471C2948.53 682.881 2952.17 683.948 2953.76 686.855C2955.35 689.762 2954.29 693.408 2951.38 694.998C2945.55 698.189 2938.85 700 2931.75 700C2909.29 700 2891 681.908 2891 659.5C2891 637.092 2909.29 619 2931.75 619C2942.71 619 2952.67 623.305 2960 630.313V625C2960 621.686 2962.69 619 2966 619C2969.31 619 2972 621.686 2972 625V648.25C2972 651.84 2969.09 654.75 2965.5 654.75H2942.15C2938.84 654.75 2936.15 652.064 2936.15 648.75C2936.15 645.436 2938.84 642.75 2942.15 642.75H2955.01C2949.79 635.634 2941.32 631 2931.75 631Z" fill="black"/>
</g>
<g id="Heavy-S">
<path id="Union (Stroke)_20" fill-rule="evenodd" clip-rule="evenodd" d="M2636.75 630C2620.29 630 2607 643.242 2607 659.5C2607 675.758 2620.29 689 2636.75 689C2641.96 689 2646.85 687.674 2651.1 685.349C2653.52 684.023 2656.56 684.912 2657.89 687.335C2659.21 689.757 2658.32 692.796 2655.9 694.121C2650.21 697.233 2643.68 699 2636.75 699C2614.83 699 2597 681.349 2597 659.5C2597 637.651 2614.83 620 2636.75 620C2648.32 620 2658.73 624.91 2666 632.753V625C2666 622.239 2668.24 620 2671 620C2673.76 620 2676 622.239 2676 625V648.25C2676 651.288 2673.54 653.75 2670.5 653.75H2647.15C2644.39 653.75 2642.15 651.511 2642.15 648.75C2642.15 645.989 2644.39 643.75 2647.15 643.75H2661.91C2656.64 635.492 2647.35 630 2636.75 630Z" fill="black"/>
</g>
<g id="Bold-S">
<path id="Union (Stroke)_21" fill-rule="evenodd" clip-rule="evenodd" d="M2339.75 630.5C2323.01 630.5 2309.5 643.962 2309.5 660.5C2309.5 677.038 2323.01 690.5 2339.75 690.5C2345.05 690.5 2350.02 689.152 2354.34 686.787C2356.52 685.594 2359.25 686.395 2360.45 688.575C2361.64 690.755 2360.84 693.49 2358.66 694.683C2353.05 697.755 2346.6 699.5 2339.75 699.5C2318.1 699.5 2300.5 682.07 2300.5 660.5C2300.5 638.93 2318.1 621.5 2339.75 621.5C2351.64 621.5 2362.3 626.754 2369.5 635.06V626C2369.5 623.515 2371.51 621.5 2374 621.5C2376.49 621.5 2378.5 623.515 2378.5 626V649.25C2378.5 652.012 2376.26 654.25 2373.5 654.25H2350.15C2347.66 654.25 2345.65 652.235 2345.65 649.75C2345.65 647.265 2347.66 645.25 2350.15 645.25H2365.81C2360.54 636.426 2350.85 630.5 2339.75 630.5Z" fill="black"/>
</g>
<g id="Semibold-S">
<path id="Union (Stroke)_22" fill-rule="evenodd" clip-rule="evenodd" d="M2043.75 630.25C2026.88 630.25 2013.25 643.822 2013.25 660.5C2013.25 677.178 2026.88 690.75 2043.75 690.75C2049.09 690.75 2054.1 689.391 2058.46 687.007C2060.52 685.88 2063.1 686.636 2064.23 688.695C2065.36 690.754 2064.6 693.336 2062.54 694.463C2056.96 697.516 2050.55 699.25 2043.75 699.25C2022.24 699.25 2004.75 681.93 2004.75 660.5C2004.75 639.07 2022.24 621.75 2043.75 621.75C2055.81 621.75 2066.59 627.189 2073.75 635.739V626C2073.75 623.653 2075.65 621.75 2078 621.75C2080.35 621.75 2082.25 623.653 2082.25 626V649.25C2082.25 651.873 2080.12 654 2077.5 654H2054.15C2051.8 654 2049.9 652.097 2049.9 649.75C2049.9 647.403 2051.8 645.5 2054.15 645.5H2070.24C2064.99 636.394 2055.1 630.25 2043.75 630.25Z" fill="black"/>
</g>
<g id="Medium-S">
<path id="Union (Stroke)_23" fill-rule="evenodd" clip-rule="evenodd" d="M1746.75 630C1729.74 630 1716 643.682 1716 660.5C1716 677.318 1729.74 691 1746.75 691C1752.14 691 1757.19 689.63 1761.58 687.226C1763.52 686.165 1765.95 686.877 1767.01 688.815C1768.07 690.753 1767.36 693.183 1765.42 694.244C1759.88 697.277 1753.51 699 1746.75 699C1725.38 699 1708 681.79 1708 660.5C1708 639.21 1725.38 622 1746.75 622C1758.98 622 1769.9 627.633 1777 636.437V626C1777 623.791 1778.79 622 1781 622C1783.21 622 1785 623.791 1785 626V649.25C1785 651.735 1782.99 653.75 1780.5 653.75H1757.15C1754.94 653.75 1753.15 651.959 1753.15 649.75C1753.15 647.541 1754.94 645.75 1757.15 645.75H1773.67C1768.43 636.363 1758.34 630 1746.75 630Z" fill="black"/>
</g>
<g id="Regular-S">
<path id="Union (Stroke)_24" fill-rule="evenodd" clip-rule="evenodd" d="M1449.75 628.5C1432.47 628.5 1418.5 642.403 1418.5 659.5C1418.5 676.597 1432.47 690.5 1449.75 690.5C1455.22 690.5 1460.36 689.108 1464.82 686.665C1466.52 685.737 1468.64 686.359 1469.57 688.055C1470.5 689.751 1469.88 691.877 1468.18 692.805C1462.71 695.799 1456.42 697.5 1449.75 697.5C1428.65 697.5 1411.5 680.511 1411.5 659.5C1411.5 638.489 1428.65 621.5 1449.75 621.5C1462.35 621.5 1473.53 627.552 1480.5 636.897V625C1480.5 623.067 1482.07 621.5 1484 621.5C1485.93 621.5 1487.5 623.067 1487.5 625V648.25C1487.5 650.459 1485.71 652.25 1483.5 652.25H1460.15C1458.22 652.25 1456.65 650.683 1456.65 648.75C1456.65 646.817 1458.22 645.25 1460.15 645.25H1477.51C1472.31 635.304 1461.84 628.5 1449.75 628.5Z" fill="black"/>
</g>
<g id="Light-S">
<path id="Union (Stroke)_25" fill-rule="evenodd" clip-rule="evenodd" d="M1150.75 627.5C1132.92 627.5 1118.5 641.844 1118.5 659.5C1118.5 677.156 1132.92 691.5 1150.75 691.5C1156.39 691.5 1161.69 690.064 1166.3 687.542C1167.51 686.879 1169.03 687.324 1169.69 688.535C1170.36 689.746 1169.91 691.265 1168.7 691.928C1163.37 694.843 1157.25 696.5 1150.75 696.5C1130.19 696.5 1113.5 679.952 1113.5 659.5C1113.5 639.048 1130.19 622.5 1150.75 622.5C1164.17 622.5 1175.94 629.554 1182.5 640.141V625C1182.5 623.619 1183.62 622.5 1185 622.5C1186.38 622.5 1187.5 623.619 1187.5 625V648.25C1187.5 649.907 1186.16 651.25 1184.5 651.25H1161.15C1159.77 651.25 1158.65 650.131 1158.65 648.75C1158.65 647.369 1159.77 646.25 1161.15 646.25H1180.11C1175.04 635.193 1163.8 627.5 1150.75 627.5Z" fill="black"/>
</g>
<g id="Thin-S">
<path id="Union (Stroke)_26" fill-rule="evenodd" clip-rule="evenodd" d="M856.75 627.625C838.444 627.625 823.625 642.355 823.625 660.5C823.625 678.645 838.444 693.375 856.75 693.375C862.544 693.375 867.986 691.9 872.72 689.309C873.507 688.879 874.495 689.168 874.926 689.955C875.356 690.742 875.067 691.73 874.28 692.16C869.079 695.007 863.102 696.625 856.75 696.625C836.672 696.625 820.375 680.462 820.375 660.5C820.375 640.538 836.672 624.375 856.75 624.375C871.055 624.375 883.434 632.576 889.375 644.508V626C889.375 625.103 890.103 624.375 891 624.375C891.897 624.375 892.625 625.103 892.625 626V649.25C892.625 650.424 891.674 651.375 890.5 651.375H867.15C866.253 651.375 865.525 650.648 865.525 649.75C865.525 648.853 866.253 648.125 867.15 648.125H887.448C882.524 636.105 870.637 627.625 856.75 627.625Z" fill="black"/>
</g>
<g id="Ultralight-S">
<path id="Union (Stroke)_27" fill-rule="evenodd" clip-rule="evenodd" d="M559.75 627.125C541.172 627.125 526.125 642.075 526.125 660.5C526.125 678.925 541.172 693.875 559.75 693.875C565.63 693.875 571.154 692.378 575.96 689.748C576.505 689.45 577.189 689.65 577.487 690.195C577.785 690.74 577.585 691.424 577.04 691.722C571.911 694.529 566.016 696.125 559.75 696.125C539.944 696.125 523.875 680.183 523.875 660.5C523.875 640.817 539.944 624.875 559.75 624.875C574.671 624.875 587.468 633.922 592.875 646.798V626C592.875 625.379 593.379 624.875 594 624.875C594.621 624.875 595.125 625.379 595.125 626V649.25C595.125 650.148 594.397 650.875 593.5 650.875H570.15C569.529 650.875 569.025 650.371 569.025 649.75C569.025 649.129 569.529 648.625 570.15 648.625H591.185C586.363 636.058 574.109 627.125 559.75 627.125Z" fill="black"/>
</g>
</g>
</g>
</svg>
