<svg xmlns="http://www.w3.org/2000/svg" xml:space="preserve" id="Layer_1" x="0" y="0" style="enable-background:new 0 0 32 32" version="1.1" viewBox="0 0 32 32"><style>.st0{fill:#fff}</style><g id="art_layer"><path d="M12 16.2h7.9v1.5H12zM12 18.7h5.8v1.5H12z" class="st0"/><path d="m18.1 11.4 2.1.1 2.5-.1-4.6-4.6-.1 2.8z" style="fill:#0066da"/><path d="M0 0h32v32H0z" style="fill:none"/><path d="M12 13.7h7.9v1.5H12z" class="st0"/><path d="M18.1 11.4V6.8h-7.5c-.7 0-1.2.6-1.2 1.2v15.8c0 .7.6 1.2 1.2 1.2h10.8c.7 0 1.2-.6 1.2-1.2V11.4h-4.5zm-.4 8.6h-5.4v-1h5.4v1zm2.1-2.5h-7.5v-1h7.5v1zm0-2.5h-7.5v-1h7.5v1z" style="fill:#2684fc"/></g></svg>