<?xml version="1.0" encoding="UTF-8"?>
<!--Generator: Apple Native CoreSVG 329.6-->
<!DOCTYPE svg
PUBLIC "-//W3C//DTD SVG 1.1//EN"
       "http://www.w3.org/Graphics/SVG/1.1/DTD/svg11.dtd">
<svg version="1.1" xmlns="http://www.w3.org/2000/svg" xmlns:xlink="http://www.w3.org/1999/xlink" viewBox="0 0 3300 2200">
 <!--glyph: "", point size: 100.0, font version: "20.0d10e1", template writer version: "138.0.0"-->
 <style>.monochrome-0 {-sfsymbols-motion-group:1;-sfsymbols-layer-tags:-7a68393706884d72}
.monochrome-1 {-sfsymbols-motion-group:0;-sfsymbols-layer-tags:-7a68393706884d72}

.multicolor-0:tintColor {-sfsymbols-motion-group:1;-sfsymbols-layer-tags:-7a68393706884d72}
.multicolor-1:tintColor {-sfsymbols-motion-group:0;-sfsymbols-layer-tags:-7a68393706884d72}

.hierarchical-0:secondary {-sfsymbols-motion-group:1;-sfsymbols-layer-tags:-7a68393706884d72}
.hierarchical-1:primary {-sfsymbols-motion-group:0;-sfsymbols-layer-tags:-7a68393706884d72}

.SFSymbolsPreviewWireframe {fill:none;opacity:1.0;stroke:black;stroke-width:0.5}
</style>
 <g id="Notes">
  <rect height="2200" id="artboard" style="fill:white;opacity:1" width="3300" x="0" y="0"/>
  <line style="fill:none;stroke:black;opacity:1;stroke-width:0.5;" x1="263" x2="3036" y1="292" y2="292"/>
  <text style="stroke:none;fill:black;font-family:sans-serif;font-size:13;font-weight:bold;" transform="matrix(1 0 0 1 263 322)">Weight/Scale Variations</text>
  <text style="stroke:none;fill:black;font-family:sans-serif;font-size:13;text-anchor:middle;" transform="matrix(1 0 0 1 559.711 322)">Ultralight</text>
  <text style="stroke:none;fill:black;font-family:sans-serif;font-size:13;text-anchor:middle;" transform="matrix(1 0 0 1 856.422 322)">Thin</text>
  <text style="stroke:none;fill:black;font-family:sans-serif;font-size:13;text-anchor:middle;" transform="matrix(1 0 0 1 1153.13 322)">Light</text>
  <text style="stroke:none;fill:black;font-family:sans-serif;font-size:13;text-anchor:middle;" transform="matrix(1 0 0 1 1449.84 322)">Regular</text>
  <text style="stroke:none;fill:black;font-family:sans-serif;font-size:13;text-anchor:middle;" transform="matrix(1 0 0 1 1746.56 322)">Medium</text>
  <text style="stroke:none;fill:black;font-family:sans-serif;font-size:13;text-anchor:middle;" transform="matrix(1 0 0 1 2043.27 322)">Semibold</text>
  <text style="stroke:none;fill:black;font-family:sans-serif;font-size:13;text-anchor:middle;" transform="matrix(1 0 0 1 2339.98 322)">Bold</text>
  <text style="stroke:none;fill:black;font-family:sans-serif;font-size:13;text-anchor:middle;" transform="matrix(1 0 0 1 2636.69 322)">Heavy</text>
  <text style="stroke:none;fill:black;font-family:sans-serif;font-size:13;text-anchor:middle;" transform="matrix(1 0 0 1 2933.4 322)">Black</text>
  <line style="fill:none;stroke:black;opacity:1;stroke-width:0.5;" x1="263" x2="3036" y1="1903" y2="1903"/>
  <g transform="matrix(0.2 0 0 0.2 263 1933)">
   <path d="m46.2402 4.15039c21.7773 0 39.4531-17.627 39.4531-39.4043s-17.6758-39.4043-39.4531-39.4043c-21.7285 0-39.4043 17.627-39.4043 39.4043s17.6758 39.4043 39.4043 39.4043Zm0-7.42188c-17.6758 0-31.9336-14.3066-31.9336-31.9824s14.2578-31.9824 31.9336-31.9824 31.9824 14.3066 31.9824 31.9824-14.3066 31.9824-31.9824 31.9824Zm-17.9688-31.9824c0 2.14844 1.51367 3.61328 3.75977 3.61328h10.498v10.5957c0 2.19727 1.46484 3.71094 3.61328 3.71094 2.24609 0 3.71094-1.51367 3.71094-3.71094v-10.5957h10.5957c2.19727 0 3.71094-1.46484 3.71094-3.61328 0-2.19727-1.51367-3.71094-3.71094-3.71094h-10.5957v-10.5469c0-2.24609-1.46484-3.75977-3.71094-3.75977-2.14844 0-3.61328 1.51367-3.61328 3.75977v10.5469h-10.498c-2.24609 0-3.75977 1.51367-3.75977 3.71094Z"/>
  </g>
  <g transform="matrix(0.2 0 0 0.2 281.506 1933)">
   <path d="m58.5449 14.5508c27.4902 0 49.8047-22.3145 49.8047-49.8047s-22.3145-49.8047-49.8047-49.8047-49.8047 22.3145-49.8047 49.8047 22.3145 49.8047 49.8047 49.8047Zm0-8.30078c-22.9492 0-41.5039-18.5547-41.5039-41.5039s18.5547-41.5039 41.5039-41.5039 41.5039 18.5547 41.5039 41.5039-18.5547 41.5039-41.5039 41.5039Zm-22.6562-41.5039c0 2.39258 1.66016 4.00391 4.15039 4.00391h14.3555v14.4043c0 2.44141 1.66016 4.15039 4.05273 4.15039 2.44141 0 4.15039-1.66016 4.15039-4.15039v-14.4043h14.4043c2.44141 0 4.15039-1.61133 4.15039-4.00391 0-2.44141-1.70898-4.15039-4.15039-4.15039h-14.4043v-14.3555c0-2.49023-1.70898-4.19922-4.15039-4.19922-2.39258 0-4.05273 1.70898-4.05273 4.19922v14.3555h-14.3555c-2.49023 0-4.15039 1.70898-4.15039 4.15039Z"/>
  </g>
  <g transform="matrix(0.2 0 0 0.2 304.924 1933)">
   <path d="m74.8535 28.3203c35.1074 0 63.623-28.4668 63.623-63.5742s-28.5156-63.623-63.623-63.623-63.5742 28.5156-63.5742 63.623 28.4668 63.5742 63.5742 63.5742Zm0-9.08203c-30.127 0-54.4922-24.3652-54.4922-54.4922s24.3652-54.4922 54.4922-54.4922 54.4922 24.3652 54.4922 54.4922-24.3652 54.4922-54.4922 54.4922Zm-28.8574-54.4922c0 2.58789 1.85547 4.39453 4.58984 4.39453h19.7266v19.7754c0 2.68555 1.85547 4.58984 4.44336 4.58984 2.68555 0 4.54102-1.85547 4.54102-4.58984v-19.7754h19.7754c2.68555 0 4.58984-1.80664 4.58984-4.39453 0-2.73438-1.85547-4.58984-4.58984-4.58984h-19.7754v-19.7266c0-2.73438-1.85547-4.63867-4.54102-4.63867-2.58789 0-4.44336 1.9043-4.44336 4.63867v19.7266h-19.7266c-2.73438 0-4.58984 1.85547-4.58984 4.58984Z"/>
  </g>
  <text style="stroke:none;fill:black;font-family:sans-serif;font-size:13;font-weight:bold;" transform="matrix(1 0 0 1 263 1953)">Design Variations</text>
  <text style="stroke:none;fill:black;font-family:sans-serif;font-size:13;" transform="matrix(1 0 0 1 263 1971)">Symbols are supported in up to nine weights and three scales.</text>
  <text style="stroke:none;fill:black;font-family:sans-serif;font-size:13;" transform="matrix(1 0 0 1 263 1989)">For optimal layout with text and other symbols, vertically align</text>
  <text style="stroke:none;fill:black;font-family:sans-serif;font-size:13;" transform="matrix(1 0 0 1 263 2007)">symbols with the adjacent text.</text>
  <line style="fill:none;stroke:#00AEEF;stroke-width:0.5;opacity:1.0;" x1="776" x2="776" y1="1919" y2="1933"/>
  <g transform="matrix(0.2 0 0 0.2 776 1933)">
   <path d="m16.5527 0.78125c2.58789 0 3.85742-0.976562 4.78516-3.71094l6.29883-17.2363h28.8086l6.29883 17.2363c0.927734 2.73438 2.19727 3.71094 4.73633 3.71094 2.58789 0 4.24805-1.5625 4.24805-4.00391 0-0.830078-0.146484-1.61133-0.537109-2.63672l-22.9004-60.9863c-1.12305-2.97852-3.125-4.49219-6.25-4.49219-3.02734 0-5.07812 1.46484-6.15234 4.44336l-22.9004 61.084c-0.390625 1.02539-0.537109 1.80664-0.537109 2.63672 0 2.44141 1.5625 3.95508 4.10156 3.95508Zm13.4766-28.3691 11.8652-32.8613h0.244141l11.8652 32.8613Z"/>
  </g>
  <line style="fill:none;stroke:#00AEEF;stroke-width:0.5;opacity:1.0;" x1="792.836" x2="792.836" y1="1919" y2="1933"/>
  <text style="stroke:none;fill:black;font-family:sans-serif;font-size:13;font-weight:bold;" transform="matrix(1 0 0 1 776 1953)">Margins</text>
  <text style="stroke:none;fill:black;font-family:sans-serif;font-size:13;" transform="matrix(1 0 0 1 776 1971)">Leading and trailing margins on the left and right side of each symbol</text>
  <text style="stroke:none;fill:black;font-family:sans-serif;font-size:13;" transform="matrix(1 0 0 1 776 1989)">can be adjusted by modifying the x-location of the margin guidelines.</text>
  <text style="stroke:none;fill:black;font-family:sans-serif;font-size:13;" transform="matrix(1 0 0 1 776 2007)">Modifications are automatically applied proportionally to all</text>
  <text style="stroke:none;fill:black;font-family:sans-serif;font-size:13;" transform="matrix(1 0 0 1 776 2025)">scales and weights.</text>
  <g transform="matrix(0.2 0 0 0.2 1289 1933)">
   <path d="m14.209 9.32617 8.49609 8.54492c4.29688 4.3457 9.22852 4.05273 13.8672-1.07422l53.4668-58.9355-4.83398-4.88281-53.0762 58.3984c-1.75781 2.00195-3.41797 2.49023-5.76172 0.146484l-5.85938-5.81055c-2.34375-2.29492-1.80664-4.00391 0.195312-5.81055l57.373-54.0039-4.88281-4.83398-57.959 54.4434c-4.93164 4.58984-5.32227 9.47266-1.02539 13.8184Zm32.0801-90.9668c-2.09961 2.05078-2.24609 4.93164-1.07422 6.88477 1.17188 1.80664 3.4668 2.97852 6.68945 2.14844 7.32422-1.70898 14.9414-2.00195 22.0703 2.68555l-2.92969 7.27539c-1.70898 4.15039-0.830078 7.08008 1.85547 9.81445l11.4746 11.5723c2.44141 2.44141 4.49219 2.53906 7.32422 2.05078l5.32227-0.976562 3.32031 3.36914-0.195312 2.7832c-0.195312 2.49023 0.439453 4.39453 2.88086 6.78711l3.80859 3.71094c2.39258 2.39258 5.46875 2.53906 7.8125 0.195312l14.5508-14.5996c2.34375-2.34375 2.24609-5.32227-0.146484-7.71484l-3.85742-3.80859c-2.39258-2.39258-4.24805-3.17383-6.64062-2.97852l-2.88086 0.244141-3.22266-3.17383 1.2207-5.61523c0.634766-2.83203-0.146484-5.0293-3.07617-7.95898l-10.9863-10.9375c-16.6992-16.6016-38.8672-16.2109-53.3203-1.75781Zm7.4707 1.85547c12.1582-8.88672 28.6133-7.37305 39.7461 3.75977l12.1582 12.0605c1.17188 1.17188 1.36719 2.09961 1.02539 3.80859l-1.61133 7.42188 7.51953 7.42188 4.93164-0.292969c1.26953-0.0488281 1.66016 0.0488281 2.63672 1.02539l2.88086 2.88086-12.207 12.207-2.88086-2.88086c-0.976562-0.976562-1.12305-1.36719-1.07422-2.68555l0.341797-4.88281-7.4707-7.42188-7.61719 1.26953c-1.61133 0.341797-2.34375 0.195312-3.56445-0.976562l-10.0098-10.0098c-1.26953-1.17188-1.41602-2.00195-0.634766-3.85742l4.39453-10.4492c-7.8125-7.27539-17.9688-10.4004-28.125-7.42188-0.78125 0.195312-1.07422-0.439453-0.439453-0.976562Z"/>
  </g>
  <text style="stroke:none;fill:black;font-family:sans-serif;font-size:13;font-weight:bold;" transform="matrix(1 0 0 1 1289 1953)">Exporting</text>
  <text style="stroke:none;fill:black;font-family:sans-serif;font-size:13;" transform="matrix(1 0 0 1 1289 1971)">Symbols should be outlined when exporting to ensure the</text>
  <text style="stroke:none;fill:black;font-family:sans-serif;font-size:13;" transform="matrix(1 0 0 1 1289 1989)">design is preserved when submitting to Xcode.</text>
  <text id="template-version" style="stroke:none;fill:black;font-family:sans-serif;font-size:13;text-anchor:end;" transform="matrix(1 0 0 1 3036 1933)">Template v.6.0</text>
  <text style="stroke:none;fill:black;font-family:sans-serif;font-size:13;text-anchor:end;" transform="matrix(1 0 0 1 3036 1951)">Requires Xcode 16 or greater</text>
  <text id="descriptive-name" style="stroke:none;fill:black;font-family:sans-serif;font-size:13;text-anchor:end;" transform="matrix(1 0 0 1 3036 1969)">Generated from magnifyingglass.spark.cr</text>
  <text style="stroke:none;fill:black;font-family:sans-serif;font-size:13;text-anchor:end;" transform="matrix(1 0 0 1 3036 1987)">Typeset at 100.0 points</text>
  <text style="stroke:none;fill:black;font-family:sans-serif;font-size:13;" transform="matrix(1 0 0 1 263 726)">Small</text>
  <text style="stroke:none;fill:black;font-family:sans-serif;font-size:13;" transform="matrix(1 0 0 1 263 1156)">Medium</text>
  <text style="stroke:none;fill:black;font-family:sans-serif;font-size:13;" transform="matrix(1 0 0 1 263 1586)">Large</text>
 </g>
 <g id="Guides">
  <g id="H-reference" style="fill:#27AAE1;stroke:none;" transform="matrix(1 0 0 1 339 696)">
   <path d="M0.993654 0L3.63775 0L29.3281-67.1323L30.0303-67.1323L30.0303-70.459L28.1226-70.459ZM11.6885-24.4799L46.9815-24.4799L46.2315-26.7285L12.4385-26.7285ZM55.1196 0L57.7637 0L30.6382-70.459L29.4326-70.459L29.4326-67.1323Z"/>
  </g>
  <line id="Baseline-S" style="fill:none;stroke:#27AAE1;opacity:1;stroke-width:0.5;" x1="263" x2="3036" y1="696" y2="696"/>
  <line id="Capline-S" style="fill:none;stroke:#27AAE1;opacity:1;stroke-width:0.5;" x1="263" x2="3036" y1="625.541" y2="625.541"/>
  <g id="H-reference" style="fill:#27AAE1;stroke:none;" transform="matrix(1 0 0 1 339 1126)">
   <path d="M0.993654 0L3.63775 0L29.3281-67.1323L30.0303-67.1323L30.0303-70.459L28.1226-70.459ZM11.6885-24.4799L46.9815-24.4799L46.2315-26.7285L12.4385-26.7285ZM55.1196 0L57.7637 0L30.6382-70.459L29.4326-70.459L29.4326-67.1323Z"/>
  </g>
  <line id="Baseline-M" style="fill:none;stroke:#27AAE1;opacity:1;stroke-width:0.5;" x1="263" x2="3036" y1="1126" y2="1126"/>
  <line id="Capline-M" style="fill:none;stroke:#27AAE1;opacity:1;stroke-width:0.5;" x1="263" x2="3036" y1="1055.54" y2="1055.54"/>
  <g id="H-reference" style="fill:#27AAE1;stroke:none;" transform="matrix(1 0 0 1 339 1556)">
   <path d="M0.993654 0L3.63775 0L29.3281-67.1323L30.0303-67.1323L30.0303-70.459L28.1226-70.459ZM11.6885-24.4799L46.9815-24.4799L46.2315-26.7285L12.4385-26.7285ZM55.1196 0L57.7637 0L30.6382-70.459L29.4326-70.459L29.4326-67.1323Z"/>
  </g>
  <line id="Baseline-L" style="fill:none;stroke:#27AAE1;opacity:1;stroke-width:0.5;" x1="263" x2="3036" y1="1556" y2="1556"/>
  <line id="Capline-L" style="fill:none;stroke:#27AAE1;opacity:1;stroke-width:0.5;" x1="263" x2="3036" y1="1485.54" y2="1485.54"/>
  <line id="right-margin-Regular-M" style="fill:none;stroke:#FF3B30;stroke-width:0.5;opacity:1.0;" x1="1508.75" x2="1508.75" y1="1030.79" y2="1150.12"/>
  <line id="left-margin-Regular-M" style="fill:none;stroke:#00AEEF;stroke-width:0.5;opacity:1.0;" x1="1390.94" x2="1390.94" y1="1030.79" y2="1150.12"/>
 </g>
 <g id="Symbols">
  <g id="Black-L" transform="matrix(1 0 0 1 2855.07 1556)">
   <path class="monochrome-0 multicolor-0:tintColor hierarchical-0:secondary SFSymbolsPreviewWireframe" d="M63.41-98.91C78.62-98.91 92.27-92.3 101.68-81.8C95.76-76.24 88.9-73.25 80.71-72.74C75.79-76.12 69.83-78.11 63.41-78.11C46.54-78.11 32.86-64.43 32.86-47.55C32.86-30.68 46.54-17 63.41-17C80.28-17 93.96-30.68 93.96-47.55C93.96-48.03 93.95-48.5 93.93-48.96C97.04-47.36 99.92-45.23 102.6-42.55L103.22-41.91C107.43-37.52 110.2-34.25 111.58-29.75C110.31-26.3 108.67-23.01 106.72-19.96L138.6 11.93L138.64 11.97L138.89 12.23L138.93 12.28L138.98 12.33C143.24 17.05 143.1 24.34 138.55 28.89C134 33.44 126.72 33.58 121.99 29.31L121.94 29.27L121.9 29.22L121.64 28.98L121.59 28.93L89.4-3.26C81.77 1.22 72.89 3.8 63.41 3.8C35.05 3.8 12.06-19.19 12.06-47.55C12.06-75.92 35.05-98.91 63.41-98.91Z"/>
   <path class="monochrome-1 multicolor-1:tintColor hierarchical-1:primary SFSymbolsPreviewWireframe" d="M122.67-22.23C122.67-33.48 118.75-43.03 110.92-50.86C103.08-58.7 93.54-62.62 82.29-62.62C93.54-62.62 103.08-66.54 110.92-74.37C118.75-82.21 122.67-91.75 122.67-103C122.67-91.75 126.59-82.21 134.43-74.37C142.26-66.54 151.81-62.62 163.06-62.62C151.81-62.62 142.26-58.7 134.43-50.86C126.59-43.03 122.67-33.48 122.67-22.23Z"/>
  </g>
  <g id="Heavy-L" transform="matrix(1 0 0 1 2559.01 1556)">
   <path class="monochrome-0 multicolor-0:tintColor hierarchical-0:secondary SFSymbolsPreviewWireframe" d="M93.95-46.73C96-45.49 97.94-43.98 99.79-42.21L100.38-41.63L100.98-41.02L100.98-41.02C104.53-37.31 107.01-33.24 108.47-28.67C107.19-25.54 105.61-22.56 103.75-19.79L112.36-11.18C112.97-10.38 113.69-9.66 114.49-9.05L136.33 12.8L136.37 12.83L136.4 12.87L136.65 13.12L136.68 13.16L136.71 13.19C140.52 17.41 140.39 23.91 136.33 27.96C132.27 32.02 125.78 32.15 121.56 28.34L121.53 28.31L121.49 28.28L121.24 28.03L121.2 28L121.17 27.96L88.3-4.9C80.68-0.21 71.71 2.49 62.11 2.49C34.47 2.49 12.06-19.91 12.06-47.56C12.06-75.2 34.47-97.61 62.11-97.61C76.47-97.61 89.41-91.56 98.54-81.88C93.17-77.19 87.03-74.61 79.76-74.07C74.71-77.44 68.64-79.41 62.11-79.41C44.52-79.41 30.26-65.15 30.26-47.56C30.26-29.97 44.52-15.71 62.11-15.71C79.43-15.71 93.52-29.52 93.95-46.73Z"/>
   <path class="monochrome-1 multicolor-1:tintColor hierarchical-1:primary SFSymbolsPreviewWireframe" d="M121.37-22.23C121.37-33.48 117.45-43.03 109.62-50.86C101.78-58.7 92.24-62.62 80.99-62.62C92.24-62.62 101.78-66.54 109.62-74.37C117.45-82.21 121.37-91.75 121.37-103C121.37-91.75 125.29-82.21 133.13-74.37C140.96-66.54 150.51-62.62 161.75-62.62C150.51-62.62 140.96-58.7 133.13-50.86C125.29-43.03 121.37-33.48 121.37-22.23Z"/>
  </g>
  <g id="Bold-L" transform="matrix(1 0 0 1 2262.95 1556)">
   <path class="monochrome-0 multicolor-0:tintColor hierarchical-0:secondary SFSymbolsPreviewWireframe" d="M60.81-97.3C74.3-97.3 86.51-91.83 95.33-82.97C90.54-79.11 85.13-76.94 78.81-76.4C73.62-79.75 67.45-81.7 60.81-81.7C42.5-81.7 27.66-66.86 27.66-48.55C27.66-30.24 42.5-15.4 60.81-15.4C78.06-15.4 92.23-28.57 93.81-45.41C95.12-44.48 96.38-43.43 97.59-42.26L98.16-41.71L98.76-41.09C102.04-37.66 104.37-33.92 105.78-29.72C104.43-26.5 102.75-23.45 100.77-20.63L110.09-11.31C110.74-10.47 111.49-9.72 112.32-9.07L134.11 12.72L134.14 12.74L134.16 12.77L134.4 13.02L134.42 13.05L134.45 13.07C137.79 16.77 137.68 22.48 134.11 26.05C130.55 29.62 124.84 29.73 121.13 26.38L121.11 26.36L121.09 26.34L120.83 26.1L120.81 26.07L120.78 26.05L87.18-7.55C79.58-2.65 70.53 0.2 60.81 0.2C33.89 0.2 12.06-21.63 12.06-48.55C12.06-75.48 33.89-97.3 60.81-97.3Z"/>
   <path class="monochrome-1 multicolor-1:tintColor hierarchical-1:primary SFSymbolsPreviewWireframe" d="M120.07-23.23C120.07-34.48 116.15-44.03 108.32-51.86C100.48-59.7 90.94-63.62 79.69-63.62C90.94-63.62 100.48-67.54 108.32-75.37C116.15-83.21 120.07-92.75 120.07-104C120.07-92.75 123.99-83.21 131.83-75.37C139.66-67.54 149.21-63.62 160.46-63.62C149.21-63.62 139.66-59.7 131.83-51.86C123.99-44.03 120.07-34.48 120.07-23.23Z"/>
  </g>
  <g id="Semibold-L" transform="matrix(1 0 0 1 1966.56 1556)">
   <path class="monochrome-0 multicolor-0:tintColor hierarchical-0:secondary SFSymbolsPreviewWireframe" d="M60.16-97.66C73.44-97.66 85.47-92.27 94.17-83.57C89.77-80.16 84.84-78.16 79.18-77.5C73.76-81.2 67.21-83.36 60.16-83.36C41.49-83.36 26.36-68.22 26.36-49.55C26.36-30.89 41.49-15.75 60.16-15.75C77.62-15.75 91.98-28.98 93.77-45.96C94.86-45.15 95.92-44.25 96.94-43.26L97.51-42.71L98.11-42.09C101.15-38.92 103.37-35.46 104.81-31.64C103.36-28.04 101.5-24.66 99.27-21.56L133.02 12.2L133.04 12.21L133.28 12.47L133.3 12.49L133.32 12.5C136.43 15.95 136.32 21.27 133 24.59C129.68 27.91 124.37 28.01 120.92 24.9L120.9 24.88L120.88 24.86L120.63 24.62L120.61 24.61L86.62-9.38C79.03-4.37 69.94-1.45 60.16-1.45C33.6-1.45 12.06-22.99 12.06-49.55C12.06-76.12 33.6-97.66 60.16-97.66Z"/>
   <path class="monochrome-1 multicolor-1:tintColor hierarchical-1:primary SFSymbolsPreviewWireframe" d="M119.42-24.23C119.42-35.48 115.5-45.03 107.67-52.86C99.83-60.7 90.29-64.62 79.04-64.62C90.29-64.62 99.83-68.54 107.67-76.37C115.5-84.21 119.42-93.75 119.42-105C119.42-93.75 123.34-84.21 131.18-76.37C139.01-68.54 148.56-64.62 159.81-64.62C148.56-64.62 139.01-60.7 131.18-52.86C123.34-45.03 119.42-35.48 119.42-24.23Z"/>
  </g>
  <g id="Medium-L" transform="matrix(1 0 0 1 1670.18 1556)">
   <path class="monochrome-0 multicolor-0:tintColor hierarchical-0:secondary SFSymbolsPreviewWireframe" d="M59.51-97.01C73.05-97.01 85.27-91.34 93.91-82.24C90.02-79.32 85.73-77.43 80.92-76.55C75.04-81.22 67.6-84.01 59.51-84.01C40.48-84.01 25.06-68.58 25.06-49.56C25.06-30.53 40.48-15.1 59.51-15.1C77.69-15.1 92.58-29.18 93.87-47.03C95.01-46.18 96.12-45.24 97.19-44.21L97.78-43.63L98.38-43.02L98.38-43.01C100.96-40.32 102.98-37.43 104.45-34.29C102.87-29.66 100.61-25.35 97.77-21.49L131.91 12.65L131.92 12.66L132.16 12.92L132.17 12.93L132.18 12.94C135.06 16.13 134.97 21.05 131.89 24.13C128.82 27.2 123.9 27.3 120.71 24.41L120.69 24.4L120.68 24.39L120.43 24.15L120.41 24.14L86.06-10.22C78.48-5.1 69.34-2.1 59.51-2.1C33.3-2.1 12.06-23.35 12.06-49.56C12.06-75.76 33.3-97.01 59.51-97.01Z"/>
   <path class="monochrome-1 multicolor-1:tintColor hierarchical-1:primary SFSymbolsPreviewWireframe" d="M118.77-24.23C118.77-35.48 114.85-45.03 107.02-52.86C99.18-60.7 89.64-64.62 78.39-64.62C89.64-64.62 99.18-68.54 107.02-76.37C114.85-84.21 118.77-93.75 118.77-105C118.77-93.75 122.69-84.21 130.53-76.37C138.36-68.54 147.91-64.62 159.15-64.62C147.91-64.62 138.36-60.7 130.53-52.86C122.69-45.03 118.77-35.48 118.77-24.23Z"/>
  </g>
  <g id="Regular-L" transform="matrix(1 0 0 1 1374.11 1556)">
   <path class="monochrome-0 multicolor-0:tintColor hierarchical-0:secondary SFSymbolsPreviewWireframe" d="M58.21-94.7C71.32-94.7 83.15-89.24 91.55-80.47C88.39-78.29 84.98-76.77 81.25-75.89C75.03-81.14 66.99-84.3 58.21-84.3C38.47-84.3 22.46-68.3 22.46-48.55C22.46-28.81 38.47-12.8 58.21-12.8C76.78-12.8 92.04-26.96 93.79-45.07C94.51-44.48 95.2-43.86 95.89-43.2L96.48-42.62L97.08-42.01L97.08-42.01C99.21-39.79 100.95-37.44 102.32-34.93C100.67-29.6 98.09-24.68 94.75-20.36L129.68 14.56L129.92 14.81C132.34 17.49 132.26 21.63 129.68 24.21C127.09 26.79 122.96 26.88 120.28 24.45L120.02 24.21L84.92-10.89L84.99-10.96C77.44-5.57 68.2-2.4 58.21-2.4C32.72-2.4 12.06-23.06 12.06-48.55C12.06-74.04 32.72-94.7 58.21-94.7Z"/>
   <path class="monochrome-1 multicolor-1:tintColor hierarchical-1:primary SFSymbolsPreviewWireframe" d="M117.47-23.23C117.47-34.48 113.55-44.03 105.72-51.86C97.88-59.7 88.34-63.62 77.09-63.62C88.34-63.62 97.88-67.54 105.72-75.37C113.55-83.21 117.47-92.75 117.47-104C117.47-92.75 121.39-83.21 129.23-75.37C137.06-67.54 146.61-63.62 157.86-63.62C146.61-63.62 137.06-59.7 129.23-51.86C121.39-44.03 117.47-34.48 117.47-23.23Z"/>
  </g>
  <g id="Light-L" transform="matrix(1 0 0 1 1077.4 1556)">
   <path class="monochrome-0 multicolor-0:tintColor hierarchical-0:secondary SFSymbolsPreviewWireframe" d="M58.21-93.7C71.32-93.7 83.15-88.24 91.55-79.47C88.83-77.59 85.92-76.2 82.77-75.29C76.23-81.08 67.64-84.6 58.21-84.6C37.75-84.6 21.16-68.01 21.16-47.55C21.16-27.09 37.75-10.5 58.21-10.5C77.15-10.5 92.76-24.7 94.99-43.04C95.29-42.77 95.59-42.49 95.89-42.2L96.48-41.62L97.08-41.01L97.08-41.01C99.21-38.79 100.95-36.44 102.32-33.93C100.61-28.38 97.88-23.28 94.35-18.85L127.92 14.72L128.13 14.95C130.32 17.37 130.25 21.12 127.92 23.45C125.58 25.79 121.84 25.86 119.41 23.67L119.18 23.45L85.44-10.29C77.81-4.7 68.4-1.4 58.21-1.4C32.72-1.4 12.06-22.06 12.06-47.55C12.06-73.04 32.72-93.7 58.21-93.7Z"/>
   <path class="monochrome-1 multicolor-1:tintColor hierarchical-1:primary SFSymbolsPreviewWireframe" d="M117.47-22.23C117.47-33.48 113.55-43.03 105.72-50.86C97.88-58.7 88.34-62.62 77.09-62.62C88.34-62.62 97.88-66.54 105.72-74.37C113.55-82.21 117.47-91.75 117.47-103C117.47-91.75 121.39-82.21 129.23-74.37C137.06-66.54 146.61-62.62 157.86-62.62C146.61-62.62 137.06-58.7 129.23-50.86C121.39-43.03 117.47-33.48 117.47-22.23Z"/>
  </g>
  <g id="Thin-L" transform="matrix(1 0 0 1 784.123 1556)">
   <path class="monochrome-0 multicolor-0:tintColor hierarchical-0:secondary SFSymbolsPreviewWireframe" d="M55.187-88.81C67.351-88.81 78.338-83.77 86.178-75.67C83.87-74.22 81.42-73.12 78.803-72.36C72.517-77.93 64.247-81.31 55.187-81.31C35.511-81.31 19.56-65.36 19.56-45.69C19.56-26.01 35.511-10.06 55.187-10.06C73.394-10.06 88.408-23.72 90.55-41.35C90.84-41.08 91.13-40.82 91.416-40.54L91.986-39.99L92.564-39.4L92.564-39.4C94.18-37.71 95.567-35.94 96.729-34.07C95.175-28.51 92.533-23.39 89.044-18.97L122.21 14.19L122.42 14.41C124.526 16.74 124.456 20.34 122.21 22.59C119.963 24.83 116.364 24.9 114.033 22.8L113.812 22.59L80.473-10.75C73.369-5.6 64.634-2.56 55.187-2.56C31.369-2.56 12.06-21.87 12.06-45.69C12.06-69.5 31.369-88.81 55.187-88.81Z"/>
   <path class="monochrome-1 multicolor-1:tintColor hierarchical-1:primary SFSymbolsPreviewWireframe" d="M112.168-21.34C112.168-32.16 108.4-41.33 100.865-48.87C93.33-56.4 84.155-60.17 73.338-60.17C84.155-60.17 93.33-63.94 100.865-71.47C108.4-79.01 112.168-88.18 112.168-99C112.168-88.18 115.936-79.01 123.471-71.47C131.006-63.94 140.181-60.17 150.998-60.17C140.181-60.17 131.006-56.4 123.471-48.87C115.936-41.33 112.168-32.16 112.168-21.34Z"/>
  </g>
  <g id="Ultralight-L" transform="matrix(1 0 0 1 485.284 1556)">
   <path class="monochrome-0 multicolor-0:tintColor hierarchical-0:secondary SFSymbolsPreviewWireframe" d="M55.613-92.11C67.787-92.11 78.793-87.11 86.696-79.06C84.635-77.88 82.466-76.96 80.174-76.3C73.636-82.09 65.036-85.61 55.613-85.61C35.15-85.61 18.562-69.02 18.562-48.56C18.562-28.09 35.15-11.51 55.613-11.51C74.548-11.51 90.163-25.71 92.389-44.05C92.692-43.77 92.993-43.5 93.291-43.21L93.884-42.63L94.485-42.02L94.485-42.02C95.741-40.7 96.863-39.34 97.856-37.93C96.241-31.5 93.197-25.63 89.078-20.69L123.097 13.33L123.27 13.51C124.998 15.43 124.941 18.38 123.097 20.23C121.253 22.07 118.299 22.13 116.385 20.4L116.202 20.23L82.035-13.94C74.707-8.34 65.55-5.01 55.613-5.01C31.56-5.01 12.06-24.5 12.06-48.56C12.06-72.61 31.56-92.11 55.613-92.11Z"/>
   <path class="monochrome-1 multicolor-1:tintColor hierarchical-1:primary SFSymbolsPreviewWireframe" d="M114.872-23.23C114.872-34.48 110.954-44.03 103.118-51.86C95.281-59.7 85.739-63.62 74.49-63.62C85.739-63.62 95.281-67.54 103.118-75.37C110.954-83.21 114.872-92.75 114.872-104C114.872-92.75 118.791-83.21 126.627-75.37C134.463-67.54 144.006-63.62 155.255-63.62C144.006-63.62 134.463-59.7 126.627-51.86C118.791-44.03 114.872-34.48 114.872-23.23Z"/>
  </g>
  <g id="Black-M" transform="matrix(1 0 0 1 2872.49 1126)">
   <path class="monochrome-0 multicolor-0:tintColor hierarchical-0:secondary SFSymbolsPreviewWireframe" d="M51.56-82.85C63.26-82.85 73.76-77.77 80.99-69.69C76.44-65.42 71.16-63.12 64.86-62.72C61.08-65.33 56.5-66.85 51.56-66.85C38.58-66.85 28.06-56.33 28.06-43.35C28.06-30.37 38.58-19.85 51.56-19.85C64.54-19.85 75.06-30.37 75.06-43.35C75.06-43.72 75.05-44.08 75.03-44.44C77.43-43.21 79.64-41.56 81.71-39.5L82.18-39.01C85.41-35.63 87.55-33.11 88.61-29.66C87.63-27 86.37-24.48 84.87-22.12L109.39 2.4L109.43 2.44L109.62 2.63L109.65 2.67L109.68 2.71C112.97 6.34 112.86 11.95 109.36 15.45C105.86 18.95 100.25 19.05 96.62 15.77L96.58 15.74L96.55 15.7L96.35 15.52L96.31 15.48L71.55-9.28C65.68-5.83 58.85-3.85 51.56-3.85C29.74-3.85 12.06-21.54 12.06-43.35C12.06-65.17 29.74-82.85 51.56-82.85Z"/>
   <path class="monochrome-1 multicolor-1:tintColor hierarchical-1:primary SFSymbolsPreviewWireframe" d="M97.14-23.88C97.14-32.53 94.13-39.87 88.1-45.9C82.07-51.92 74.73-54.94 66.08-54.94C74.73-54.94 82.07-57.95 88.1-63.98C94.13-70.01 97.14-77.35 97.14-86C97.14-77.35 100.16-70.01 106.18-63.98C112.21-57.95 119.55-54.94 128.21-54.94C119.55-54.94 112.21-51.92 106.18-45.9C100.16-39.87 97.14-32.53 97.14-23.88Z"/>
  </g>
  <g id="Heavy-M" transform="matrix(1 0 0 1 2576.28 1126)">
   <path class="monochrome-0 multicolor-0:tintColor hierarchical-0:secondary SFSymbolsPreviewWireframe" d="M75.05-43.72C76.63-42.76 78.12-41.6 79.54-40.24L80-39.79L80.46-39.32L80.46-39.32C83.19-36.47 85.1-33.34 86.22-29.82C85.23-27.41 84.02-25.13 82.59-22.99L89.21-16.37C89.68-15.75 90.23-15.2 90.85-14.73L107.65 2.07L107.68 2.1L107.7 2.13L107.89 2.32L107.92 2.35L107.94 2.38C110.87 5.62 110.77 10.62 107.65 13.74C104.53 16.86 99.53 16.96 96.29 14.03L96.26 14.01L96.23 13.98L96.04 13.79L96.01 13.77L95.98 13.74L70.7-11.54C64.84-7.93 57.94-5.85 50.56-5.85C29.3-5.85 12.06-23.09 12.06-44.35C12.06-65.61 29.3-82.85 50.56-82.85C61.6-82.85 71.56-78.2 78.58-70.75C74.45-67.14 69.72-65.16 64.14-64.75C60.25-67.34 55.58-68.85 50.56-68.85C37.03-68.85 26.06-57.88 26.06-44.35C26.06-30.82 37.03-19.85 50.56-19.85C63.88-19.85 74.72-30.48 75.05-43.72Z"/>
   <path class="monochrome-1 multicolor-1:tintColor hierarchical-1:primary SFSymbolsPreviewWireframe" d="M96.14-24.88C96.14-33.53 93.13-40.87 87.1-46.9C81.07-52.92 73.73-55.94 65.08-55.94C73.73-55.94 81.07-58.95 87.1-64.98C93.13-71.01 96.14-78.35 96.14-87C96.14-78.35 99.16-71.01 105.18-64.98C111.21-58.95 118.55-55.94 127.21-55.94C118.55-55.94 111.21-52.92 105.18-46.9C99.16-40.87 96.14-33.53 96.14-24.88Z"/>
  </g>
  <g id="Bold-M" transform="matrix(1 0 0 1 2280.07 1126)">
   <path class="monochrome-0 multicolor-0:tintColor hierarchical-0:secondary SFSymbolsPreviewWireframe" d="M49.56-82.85C59.93-82.85 69.33-78.64 76.11-71.83C72.43-68.86 68.27-67.19 63.4-66.77C59.42-69.35 54.66-70.85 49.56-70.85C35.48-70.85 24.06-59.43 24.06-45.35C24.06-31.27 35.48-19.85 49.56-19.85C62.83-19.85 73.73-29.98 74.94-42.93C75.95-42.22 76.92-41.41 77.85-40.51L78.29-40.08L78.75-39.61C81.27-36.98 83.06-34.09 84.15-30.87C83.11-28.39 81.82-26.04 80.29-23.87L87.46-16.7C87.96-16.06 88.54-15.48 89.18-14.98L105.94 1.78L105.96 1.8L105.98 1.82L106.17 2.01L106.18 2.03L106.2 2.05C108.77 4.9 108.69 9.29 105.94 12.03C103.2 14.78 98.81 14.86 95.96 12.29L95.94 12.27L95.92 12.25L95.73 12.07L95.71 12.05L95.69 12.03L69.85-13.81C64-10.04 57.03-7.85 49.56-7.85C28.85-7.85 12.06-24.64 12.06-45.35C12.06-66.06 28.85-82.85 49.56-82.85Z"/>
   <path class="monochrome-1 multicolor-1:tintColor hierarchical-1:primary SFSymbolsPreviewWireframe" d="M95.14-25.88C95.14-34.53 92.13-41.87 86.1-47.9C80.07-53.92 72.73-56.94 64.08-56.94C72.73-56.94 80.07-59.95 86.1-65.98C92.13-72.01 95.14-79.35 95.14-88C95.14-79.35 98.16-72.01 104.18-65.98C110.21-59.95 117.55-56.94 126.21-56.94C117.55-56.94 110.21-53.92 104.18-47.9C98.16-41.87 95.14-34.53 95.14-25.88Z"/>
  </g>
  <g id="Semibold-M" transform="matrix(1 0 0 1 1983.61 1126)">
   <path class="monochrome-0 multicolor-0:tintColor hierarchical-0:secondary SFSymbolsPreviewWireframe" d="M49.06-82.35C59.28-82.35 68.52-78.21 75.22-71.52C71.83-68.9 68.04-67.36 63.68-66.85C59.52-69.69 54.48-71.35 49.06-71.35C34.7-71.35 23.06-59.71 23.06-45.35C23.06-30.99 34.7-19.35 49.06-19.35C62.49-19.35 73.53-29.53 74.91-42.59C75.75-41.96 76.56-41.27 77.35-40.51L77.79-40.08L78.25-39.61C80.59-37.17 82.3-34.51 83.4-31.57C82.29-28.8 80.86-26.2 79.14-23.81L105.1 2.15L105.12 2.16L105.3 2.36L105.32 2.37L105.33 2.38C107.72 5.03 107.64 9.12 105.09 11.68C102.54 14.23 98.45 14.31 95.8 11.92L95.78 11.91L95.77 11.89L95.57 11.71L95.56 11.69L69.41-14.45C63.57-10.6 56.58-8.35 49.06-8.35C28.63-8.35 12.06-24.92 12.06-45.35C12.06-65.79 28.63-82.35 49.06-82.35Z"/>
   <path class="monochrome-1 multicolor-1:tintColor hierarchical-1:primary SFSymbolsPreviewWireframe" d="M94.64-25.88C94.64-34.53 91.63-41.87 85.6-47.9C79.57-53.92 72.23-56.94 63.58-56.94C72.23-56.94 79.57-59.95 85.6-65.98C91.63-72.01 94.64-79.35 94.64-88C94.64-79.35 97.66-72.01 103.68-65.98C109.71-59.95 117.05-56.94 125.71-56.94C117.05-56.94 109.71-53.92 103.68-47.9C97.66-41.87 94.64-34.53 94.64-25.88Z"/>
  </g>
  <g id="Medium-M" transform="matrix(1 0 0 1 1687.15 1126)">
   <path class="monochrome-0 multicolor-0:tintColor hierarchical-0:secondary SFSymbolsPreviewWireframe" d="M48.56-80.85C58.98-80.85 68.37-76.49 75.02-69.49C72.03-67.24 68.73-65.79 65.03-65.11C60.5-68.71 54.78-70.85 48.56-70.85C33.92-70.85 22.06-58.99 22.06-44.35C22.06-29.72 33.92-17.85 48.56-17.85C62.54-17.85 73.99-28.68 74.99-42.41C75.87-41.75 76.72-41.03 77.54-40.24L78-39.79L78.46-39.32L78.46-39.32C80.44-37.25 81.99-35.02 83.13-32.61C81.91-29.05 80.17-25.73 77.99-22.76L104.25 3.5L104.25 3.5L104.44 3.7L104.45 3.71L104.46 3.72C106.68 6.17 106.6 9.96 104.24 12.33C101.87 14.69 98.09 14.76 95.63 12.55L95.62 12.54L95.61 12.53L95.42 12.34L95.41 12.33L68.98-14.1C63.15-10.16 56.12-7.85 48.56-7.85C28.4-7.85 12.06-24.19 12.06-44.35C12.06-64.51 28.4-80.85 48.56-80.85Z"/>
   <path class="monochrome-1 multicolor-1:tintColor hierarchical-1:primary SFSymbolsPreviewWireframe" d="M94.14-24.88C94.14-33.53 91.13-40.87 85.1-46.9C79.07-52.92 71.73-55.94 63.08-55.94C71.73-55.94 79.07-58.95 85.1-64.98C91.13-71.01 94.14-78.35 94.14-87C94.14-78.35 97.16-71.01 103.18-64.98C109.21-58.95 116.55-55.94 125.21-55.94C116.55-55.94 109.21-52.92 103.18-46.9C97.16-40.87 94.14-33.53 94.14-24.88Z"/>
  </g>
  <g id="Regular-M" transform="matrix(1 0 0 1 1390.94 1126)">
   <path class="monochrome-0 multicolor-0:tintColor hierarchical-0:secondary SFSymbolsPreviewWireframe" d="M47.56-78C57.64-78 66.74-73.8 73.2-67.05C70.78-65.38 68.15-64.21 65.28-63.53C60.5-67.56 54.31-70 47.56-70C32.37-70 20.06-57.69 20.06-42.5C20.06-27.31 32.37-15 47.56-15C61.84-15 73.58-25.89 74.93-39.82C75.48-39.37 76.02-38.89 76.54-38.39L77-37.94L77.46-37.47L77.46-37.47C79.09-35.76 80.43-33.96 81.49-32.02C80.22-27.92 78.23-24.14 75.67-20.82L102.53 6.04L102.72 6.24C104.58 8.3 104.52 11.48 102.53 13.47C100.54 15.46 97.36 15.52 95.3 13.66L95.1 13.47L68.1-13.53L68.16-13.59C62.35-9.44 55.24-7 47.56-7C27.95-7 12.06-22.89 12.06-42.5C12.06-62.11 27.95-78 47.56-78Z"/>
   <path class="monochrome-1 multicolor-1:tintColor hierarchical-1:primary SFSymbolsPreviewWireframe" d="M93.14-23.02C93.14-31.68 90.13-39.02 84.1-45.04C78.07-51.07 70.73-54.09 62.08-54.09C70.73-54.09 78.07-57.1 84.1-63.13C90.13-69.16 93.14-76.5 93.14-85.15C93.14-76.5 96.16-69.16 102.18-63.13C108.21-57.1 115.55-54.09 124.21-54.09C115.55-54.09 108.21-51.07 102.18-45.04C96.16-39.02 93.14-31.68 93.14-23.02Z"/>
  </g>
  <g id="Light-M" transform="matrix(1 0 0 1 1094.23 1126)">
   <path class="monochrome-0 multicolor-0:tintColor hierarchical-0:secondary SFSymbolsPreviewWireframe" d="M47.56-77.91C57.64-77.91 66.74-73.71 73.2-66.96C71.11-65.52 68.87-64.45 66.45-63.75C61.42-68.21 54.81-70.91 47.56-70.91C31.82-70.91 19.06-58.15 19.06-42.41C19.06-26.67 31.82-13.91 47.56-13.91C62.12-13.91 74.14-24.84 75.85-38.94C76.08-38.73 76.31-38.52 76.54-38.3L77-37.85L77.46-37.38L77.46-37.38C79.09-35.68 80.43-33.87 81.49-31.94C80.17-27.67 78.07-23.75 75.36-20.33L101.18 5.49L101.34 5.66C103.03 7.53 102.97 10.41 101.18 12.2C99.38 14 96.5 14.06 94.64 12.37L94.46 12.2L68.5-13.75C62.63-9.45 55.39-6.91 47.56-6.91C27.95-6.91 12.06-22.81 12.06-42.41C12.06-62.02 27.95-77.91 47.56-77.91Z"/>
   <path class="monochrome-1 multicolor-1:tintColor hierarchical-1:primary SFSymbolsPreviewWireframe" d="M93.14-22.94C93.14-31.59 90.13-38.93 84.1-44.96C78.07-50.99 70.73-54 62.08-54C70.73-54 78.07-57.01 84.1-63.04C90.13-69.07 93.14-76.41 93.14-85.06C93.14-76.41 96.16-69.07 102.18-63.04C108.21-57.01 115.55-54 124.21-54C115.55-54 108.21-50.99 102.18-44.96C96.16-38.93 93.14-31.59 93.14-22.94Z"/>
  </g>
  <g id="Thin-M" transform="matrix(1 0 0 1 798.019 1126)">
   <path class="monochrome-0 multicolor-0:tintColor hierarchical-0:secondary SFSymbolsPreviewWireframe" d="M46.56-76.91C56.291-76.91 65.08-72.88 71.352-66.4C69.506-65.24 67.546-64.36 65.453-63.75C60.423-68.21 53.808-70.91 46.56-70.91C30.82-70.91 18.06-58.15 18.06-42.41C18.06-26.67 30.82-13.91 46.56-13.91C61.125-13.91 73.136-24.84 74.849-38.94C75.082-38.73 75.313-38.52 75.542-38.3L75.998-37.85L76.46-37.38L76.46-37.38C77.753-36.03 78.863-34.62 79.792-33.12C78.549-28.67 76.436-24.58 73.645-21.05L100.176 5.49L100.344 5.66C102.029 7.53 101.973 10.41 100.176 12.2C98.379 14 95.5 14.06 93.635 12.37L93.458 12.2L66.789-14.47C61.105-10.35 54.117-7.91 46.56-7.91C27.506-7.91 12.06-23.36 12.06-42.41C12.06-61.47 27.506-76.91 46.56-76.91Z"/>
   <path class="monochrome-1 multicolor-1:tintColor hierarchical-1:primary SFSymbolsPreviewWireframe" d="M92.143-22.94C92.143-31.59 89.129-38.93 83.101-44.96C77.074-50.99 69.733-54 61.081-54C69.733-54 77.074-57.01 83.101-63.04C89.129-69.07 92.143-76.41 92.143-85.06C92.143-76.41 95.157-69.07 101.185-63.04C107.212-57.01 114.553-54 123.206-54C114.553-54 107.212-50.99 101.185-44.96C95.157-38.93 92.143-31.59 92.143-22.94Z"/>
  </g>
  <g id="Ultralight-M" transform="matrix(1 0 0 1 501.808 1126)">
   <path class="monochrome-0 multicolor-0:tintColor hierarchical-0:secondary SFSymbolsPreviewWireframe" d="M45.561-78.91C54.925-78.91 63.391-75.07 69.47-68.88C67.884-67.97 66.216-67.26 64.453-66.75C59.424-71.21 52.809-73.91 45.561-73.91C29.821-73.91 17.061-61.15 17.061-45.41C17.061-29.67 29.821-16.91 45.561-16.91C60.126-16.91 72.136-27.84 73.849-41.94C74.082-41.73 74.314-41.52 74.543-41.3L74.999-40.85L75.461-40.38L75.461-40.38C76.428-39.37 77.291-38.33 78.054-37.24C76.812-32.29 74.471-27.78 71.302-23.98L97.47 2.19L97.603 2.33C98.932 3.8 98.888 6.08 97.47 7.5C96.051 8.91 93.779 8.96 92.307 7.63L92.166 7.5L65.885-18.79C60.248-14.48 53.204-11.91 45.561-11.91C27.059-11.91 12.06-26.91 12.06-45.41C12.06-63.92 27.059-78.91 45.561-78.91Z"/>
   <path class="monochrome-1 multicolor-1:tintColor hierarchical-1:primary SFSymbolsPreviewWireframe" d="M91.143-25.94C91.143-34.59 88.129-41.93 82.102-47.96C76.074-53.99 68.733-57 60.081-57C68.733-57 76.074-60.01 82.102-66.04C88.129-72.07 91.143-79.41 91.143-88.06C91.143-79.41 94.157-72.07 100.185-66.04C106.213-60.01 113.553-57 122.206-57C113.553-57 106.213-53.99 100.185-47.96C94.157-41.93 91.143-34.59 91.143-25.94Z"/>
  </g>
  <g id="Black-S" transform="matrix(1 0 0 1 2884.11 696)">
   <path class="monochrome-0 multicolor-0:tintColor hierarchical-0:secondary SFSymbolsPreviewWireframe" d="M43.66-74.484C53.02-74.484 61.42-70.417 67.21-63.955C63.57-60.537 59.35-58.697 54.3-58.381C51.28-60.464 47.61-61.684 43.66-61.684C33.28-61.684 24.86-53.267 24.86-42.883C24.86-32.5 33.28-24.082 43.66-24.082C54.04-24.082 62.46-32.5 62.46-42.883C62.46-43.174 62.45-43.463 62.44-43.751C64.36-42.766 66.13-41.452 67.78-39.801L68.16-39.41C70.75-36.709 72.45-34.693 73.31-31.926C72.52-29.801 71.51-27.782 70.31-25.9L89.93-6.279L89.96-6.25L90.11-6.093L90.14-6.064L90.16-6.034C92.79-3.127 92.7 1.357 89.9 4.157C87.1 6.957 82.62 7.044 79.71 4.418L79.68 4.391L79.65 4.363L79.49 4.214L79.46 4.186L59.65-15.625C54.96-12.866 49.49-11.282 43.66-11.282C26.21-11.282 12.06-25.43 12.06-42.883C12.06-60.336 26.21-74.484 43.66-74.484Z"/>
   <path class="monochrome-1 multicolor-1:tintColor hierarchical-1:primary SFSymbolsPreviewWireframe" d="M80.13-27.298C80.13-34.221 77.72-40.093 72.9-44.915C68.07-49.738 62.2-52.149 55.28-52.149C62.2-52.149 68.07-54.56 72.9-59.383C77.72-64.205 80.13-70.078 80.13-77C80.13-70.078 82.54-64.205 87.36-59.383C92.19-54.56 98.06-52.149 104.98-52.149C98.06-52.149 92.19-49.738 87.36-44.915C82.54-40.093 80.13-34.221 80.13-27.298Z"/>
  </g>
  <g id="Heavy-S" transform="matrix(1 0 0 1 2587.8 696)">
   <path class="monochrome-0 multicolor-0:tintColor hierarchical-0:secondary SFSymbolsPreviewWireframe" d="M62.45-42.372C63.72-41.604 64.91-40.678 66.05-39.588L66.41-39.231L66.78-38.853L66.78-38.853C68.96-36.575 70.49-34.067 71.39-31.255C70.6-29.328 69.63-27.498 68.48-25.789L73.78-20.489C74.16-19.998 74.6-19.558 75.09-19.181L88.54-5.738L88.56-5.717L88.58-5.694L88.73-5.537L88.75-5.515L88.77-5.493C91.11-2.9 91.03 1.099 88.54 3.596C86.04 6.093 82.04 6.171 79.45 3.83L79.42 3.809L79.4 3.788L79.25 3.639L79.22 3.618L79.2 3.596L58.98-16.628C54.29-13.743 48.77-12.077 42.86-12.077C25.85-12.077 12.06-25.867 12.06-42.878C12.06-59.89 25.85-73.68 42.86-73.68C51.7-73.68 59.66-69.96 65.28-64.002C61.97-61.111 58.19-59.527 53.72-59.195C50.61-61.269 46.88-62.479 42.86-62.479C32.04-62.479 23.26-53.704 23.26-42.878C23.26-32.053 32.04-23.278 42.86-23.278C53.52-23.278 62.19-31.781 62.45-42.372Z"/>
   <path class="monochrome-1 multicolor-1:tintColor hierarchical-1:primary SFSymbolsPreviewWireframe" d="M79.33-27.298C79.33-34.221 76.92-40.093 72.1-44.915C67.27-49.738 61.4-52.149 54.48-52.149C61.4-52.149 67.27-54.56 72.1-59.383C76.92-64.205 79.33-70.078 79.33-77C79.33-70.078 81.74-64.205 86.56-59.383C91.38-54.56 97.26-52.149 104.18-52.149C97.26-52.149 91.38-49.738 86.56-44.915C81.74-40.093 79.33-34.221 79.33-27.298Z"/>
  </g>
  <g id="Bold-S" transform="matrix(1 0 0 1 2291.49 696)">
   <path class="monochrome-0 multicolor-0:tintColor hierarchical-0:secondary SFSymbolsPreviewWireframe" d="M42.06-72.883C50.36-72.883 57.87-69.512 63.31-64.064C60.36-61.687 57.03-60.353 53.14-60.017C49.95-62.082 46.14-63.282 42.06-63.282C30.79-63.282 21.66-54.149 21.66-42.882C21.66-31.615 30.79-22.481 42.06-22.481C52.68-22.481 61.39-30.587 62.37-40.946C63.17-40.374 63.95-39.73 64.7-39.011L65.05-38.668L65.42-38.29C67.43-36.181 68.87-33.874 69.74-31.293C68.9-29.31 67.87-27.435 66.65-25.696L72.38-19.961C72.78-19.447 73.25-18.984 73.76-18.585L87.17-5.175L87.18-5.161L87.2-5.147L87.35-4.99L87.36-4.975L87.38-4.96C89.43-2.682 89.36 0.833 87.17 3.027C84.98 5.222 81.46 5.29 79.18 3.233L79.17 3.219L79.15 3.205L79 3.056L78.98 3.042L78.97 3.027L58.29-17.649C53.61-14.634 48.04-12.88 42.06-12.88C25.49-12.88 12.06-26.312 12.06-42.882C12.06-59.451 25.49-72.883 42.06-72.883Z"/>
   <path class="monochrome-1 multicolor-1:tintColor hierarchical-1:primary SFSymbolsPreviewWireframe" d="M78.53-27.298C78.53-34.221 76.12-40.093 71.3-44.915C66.47-49.738 60.6-52.149 53.68-52.149C60.6-52.149 66.47-54.56 71.3-59.383C76.12-64.205 78.53-70.078 78.53-77C78.53-70.078 80.94-64.205 85.76-59.383C90.59-54.56 96.46-52.149 103.38-52.149C96.46-52.149 90.59-49.738 85.76-44.915C80.94-40.093 78.53-34.221 78.53-27.298Z"/>
  </g>
  <g id="Semibold-S" transform="matrix(1 0 0 1 1994.98 696)">
   <path class="monochrome-0 multicolor-0:tintColor hierarchical-0:secondary SFSymbolsPreviewWireframe" d="M41.66-73.484C49.83-73.484 57.23-70.172 62.59-64.817C59.88-62.719 56.85-61.488 53.36-61.083C50.03-63.355 46-64.684 41.66-64.684C30.17-64.684 20.86-55.371 20.86-43.883C20.86-32.395 30.17-23.082 41.66-23.082C52.4-23.082 61.24-31.224 62.34-41.673C63.01-41.171 63.66-40.619 64.3-40.013L64.65-39.67L65.02-39.292C66.88-37.337 68.25-35.212 69.14-32.857C68.25-30.644 67.1-28.563 65.73-26.653L86.5-5.883L86.51-5.872L86.66-5.715L86.67-5.704L86.68-5.693C88.59-3.573 88.53-0.3 86.49 1.743C84.44 3.786 81.17 3.85 79.05 1.934L79.04 1.924L79.03 1.913L78.87 1.764L78.86 1.754L57.95-19.162C53.27-16.078 47.68-14.282 41.66-14.282C25.31-14.282 12.06-27.535 12.06-43.883C12.06-60.231 25.31-73.484 41.66-73.484Z"/>
   <path class="monochrome-1 multicolor-1:tintColor hierarchical-1:primary SFSymbolsPreviewWireframe" d="M78.13-28.298C78.13-35.221 75.72-41.093 70.9-45.915C66.07-50.738 60.2-53.149 53.28-53.149C60.2-53.149 66.07-55.56 70.9-60.383C75.72-65.205 78.13-71.078 78.13-78C78.13-71.078 80.54-65.205 85.36-60.383C90.19-55.56 96.06-53.149 102.98-53.149C96.06-53.149 90.19-50.738 85.36-45.915C80.54-41.093 78.13-35.221 78.13-28.298Z"/>
  </g>
  <g id="Medium-S" transform="matrix(1 0 0 1 1698.47 696)">
   <path class="monochrome-0 multicolor-0:tintColor hierarchical-0:secondary SFSymbolsPreviewWireframe" d="M41.26-73.078C49.59-73.078 57.11-69.588 62.43-63.989C60.04-62.192 57.39-61.031 54.43-60.488C50.82-63.361 46.24-65.078 41.26-65.078C29.55-65.078 20.06-55.586 20.06-43.877C20.06-32.168 29.55-22.676 41.26-22.676C52.45-22.676 61.61-31.339 62.4-42.322C63.11-41.798 63.79-41.22 64.45-40.586L64.81-40.229L65.18-39.852L65.18-39.851C66.77-38.194 68.01-36.414 68.91-34.484C67.95-31.635 66.55-28.983 64.8-26.605L85.81-5.598L85.82-5.59L85.97-5.433L85.97-5.426L85.98-5.418C87.76-3.455 87.7-0.425 85.8 1.466C83.91 3.358 80.88 3.417 78.92 1.644L78.91 1.637L78.9 1.63L78.75 1.48L78.74 1.473L57.6-19.671C52.93-16.519 47.31-14.676 41.26-14.676C25.13-14.676 12.06-27.75 12.06-43.877C12.06-60.004 25.13-73.078 41.26-73.078Z"/>
   <path class="monochrome-1 multicolor-1:tintColor hierarchical-1:primary SFSymbolsPreviewWireframe" d="M77.73-28.298C77.73-35.221 75.32-41.093 70.5-45.915C65.67-50.738 59.8-53.149 52.88-53.149C59.8-53.149 65.67-55.56 70.5-60.383C75.32-65.205 77.73-71.078 77.73-78C77.73-71.078 80.14-65.205 84.96-60.383C89.78-55.56 95.66-53.149 102.58-53.149C95.66-53.149 89.78-50.738 84.96-45.915C80.14-41.093 77.73-35.221 77.73-28.298Z"/>
  </g>
  <g id="Regular-S" transform="matrix(1 0 0 1 1402.15 696)">
   <path class="monochrome-0 multicolor-0:tintColor hierarchical-0:secondary SFSymbolsPreviewWireframe" d="M40.46-71.281C48.53-71.281 55.81-67.92 60.98-62.522C59.03-61.184 56.94-60.247 54.64-59.702C50.81-62.933 45.86-64.881 40.46-64.881C28.31-64.881 18.46-55.031 18.46-42.88C18.46-30.729 28.31-20.879 40.46-20.879C51.89-20.879 61.28-29.591 62.36-40.735C62.8-40.375 63.23-39.994 63.65-39.589L64.01-39.232L64.38-38.855L64.38-38.854C65.69-37.49 66.76-36.044 67.6-34.499C66.59-31.217 65-28.189 62.95-25.533L84.44-4.043L84.59-3.886C86.08-2.237 86.03 0.309 84.44 1.897C82.85 3.486 80.3 3.536 78.66 2.047L78.5 1.897L56.9-19.703L56.94-19.749C52.29-16.431 46.61-14.479 40.46-14.479C24.78-14.479 12.06-27.195 12.06-42.88C12.06-58.566 24.78-71.281 40.46-71.281Z"/>
   <path class="monochrome-1 multicolor-1:tintColor hierarchical-1:primary SFSymbolsPreviewWireframe" d="M76.93-27.298C76.93-34.221 74.52-40.093 69.7-44.915C64.87-49.738 59-52.149 52.08-52.149C59-52.149 64.87-54.56 69.7-59.383C74.52-64.205 76.93-70.077 76.93-77C76.93-70.077 79.34-64.205 84.16-59.383C88.99-54.56 94.86-52.149 101.78-52.149C94.86-52.149 88.99-49.738 84.16-44.915C79.34-40.093 76.93-34.221 76.93-27.298Z"/>
  </g>
  <g id="Light-S" transform="matrix(1 0 0 1 1105.44 696)">
   <path class="monochrome-0 multicolor-0:tintColor hierarchical-0:secondary SFSymbolsPreviewWireframe" d="M40.46-71.281C48.53-71.281 55.81-67.92 60.98-62.522C59.3-61.368 57.51-60.513 55.58-59.95C51.55-63.515 46.26-65.681 40.46-65.681C27.87-65.681 17.66-55.473 17.66-42.88C17.66-30.288 27.87-20.079 40.46-20.079C52.11-20.079 61.72-28.82 63.09-40.103C63.28-39.935 63.46-39.765 63.65-39.589L64.01-39.232L64.38-38.855L64.38-38.854C65.69-37.49 66.76-36.043 67.6-34.498C66.55-31.084 64.87-27.945 62.7-25.215L83.36-4.559L83.49-4.418C84.84-2.926 84.79-0.623 83.36 0.815C81.92 2.252 79.61 2.298 78.12 0.95L77.98 0.815L57.22-19.95C52.52-16.511 46.73-14.479 40.46-14.479C24.78-14.479 12.06-27.195 12.06-42.88C12.06-58.566 24.78-71.281 40.46-71.281Z"/>
   <path class="monochrome-1 multicolor-1:tintColor hierarchical-1:primary SFSymbolsPreviewWireframe" d="M76.93-27.298C76.93-34.221 74.52-40.093 69.7-44.915C64.87-49.738 59-52.149 52.08-52.149C59-52.149 64.87-54.56 69.7-59.383C74.52-64.205 76.93-70.077 76.93-77C76.93-70.077 79.34-64.205 84.16-59.383C88.99-54.56 94.86-52.149 101.78-52.149C94.86-52.149 88.99-49.738 84.16-44.915C79.34-40.093 76.93-34.221 76.93-27.298Z"/>
  </g>
  <g id="Thin-S" transform="matrix(1 0 0 1 809.132 696)">
   <path class="monochrome-0 multicolor-0:tintColor hierarchical-0:secondary SFSymbolsPreviewWireframe" d="M39.661-71.484C47.446-71.484 54.478-68.26 59.496-63.075C58.019-62.146 56.45-61.44 54.776-60.953C50.752-64.518 45.46-66.684 39.661-66.684C27.069-66.684 16.86-56.476 16.86-43.883C16.86-31.291 27.069-21.082 39.661-21.082C51.313-21.082 60.923-29.823 62.293-41.106C62.479-40.939 62.665-40.768 62.848-40.593L63.213-40.235L63.582-39.858L63.582-39.857C64.617-38.777 65.504-37.644 66.248-36.452C65.253-32.888 63.563-29.614 61.33-26.788L82.556-5.562L82.69-5.421C84.038-3.929 83.993-1.626 82.556-0.189C81.118 1.249 78.815 1.295 77.323-0.053L77.181-0.189L55.845-21.525C51.298-18.228 45.707-16.282 39.661-16.282C24.417-16.282 12.06-28.64 12.06-43.883C12.06-59.127 24.417-71.484 39.661-71.484Z"/>
   <path class="monochrome-1 multicolor-1:tintColor hierarchical-1:primary SFSymbolsPreviewWireframe" d="M76.129-28.298C76.129-35.22 73.718-41.093 68.895-45.915C64.073-50.738 58.2-53.149 51.278-53.149C58.2-53.149 64.073-55.56 68.895-60.383C73.718-65.205 76.129-71.077 76.129-78C76.129-71.077 78.54-65.205 83.362-60.383C88.185-55.56 94.057-53.149 100.98-53.149C94.057-53.149 88.185-50.738 83.362-45.915C78.54-41.093 76.129-35.22 76.129-28.298Z"/>
  </g>
  <g id="Ultralight-S" transform="matrix(1 0 0 1 512.821 696)">
   <path class="monochrome-0 multicolor-0:tintColor hierarchical-0:secondary SFSymbolsPreviewWireframe" d="M38.862-70.68C46.354-70.68 53.126-67.604 57.99-62.648C56.721-61.924 55.387-61.359 53.976-60.948C49.953-64.514 44.661-66.679 38.862-66.68C26.269-66.68 16.061-56.471 16.061-43.879C16.061-31.286 26.269-21.078 38.862-21.078C50.514-21.078 60.123-29.819 61.493-41.102C61.679-40.935 61.865-40.764 62.049-40.588L62.413-40.231L62.783-39.854L62.783-39.853C63.556-39.045 64.247-38.208 64.857-37.339C63.864-33.379 61.99-29.768 59.455-26.727L80.391-5.792L80.497-5.68C81.561-4.503 81.525-2.685 80.391-1.55C79.256-0.415 77.438-0.379 76.26-1.443L76.147-1.55L55.122-22.576C50.612-19.128 44.977-17.078 38.862-17.078C24.06-17.078 12.06-29.077 12.06-43.879C12.06-58.68 24.06-70.68 38.862-70.68Z"/>
   <path class="monochrome-1 multicolor-1:tintColor hierarchical-1:primary SFSymbolsPreviewWireframe" d="M75.329-28.298C75.329-35.221 72.918-41.093 68.095-45.916C63.273-50.738 57.4-53.149 50.478-53.149C57.4-53.149 63.273-55.56 68.095-60.383C72.918-65.205 75.329-71.078 75.329-78C75.329-71.078 77.74-65.205 82.562-60.383C87.385-55.56 93.257-53.149 100.18-53.149C93.257-53.149 87.385-50.738 82.562-45.916C77.74-41.093 75.329-35.221 75.329-28.298Z"/>
  </g>
 </g>
</svg>
