<svg xmlns="http://www.w3.org/2000/svg" width="24" height="24" fill-rule="evenodd" class="vector-svg"><path fill="gray" d="m21 18.15-2-2V5h-2v3h-6.15l-5-5h3.32a2.72 2.72 0 0 1 1.07-1.44A2.98 2.98 0 0 1 12 1c.67 0 1.26.19 1.79.56.52.38.88.86 1.06 1.44H19c.55 0 1.02.2 1.41.59.39.39.59.86.59 1.41ZM12 5c.28 0 .52-.1.71-.29A.96.96 0 0 0 13 4a.96.96 0 0 0-.29-.71A.96.96 0 0 0 12 3a.96.96 0 0 0-.71.29A.96.96 0 0 0 11 4c0 .28.1.52.29.71.19.19.43.29.71.29Zm4.15 14L5 7.85V19ZM5 21c-.55 0-1.02-.19-1.41-.59A1.94 1.94 0 0 1 3 19V5.85L1.38 4.23 2.8 2.8l18.4 18.4-1.43 1.43L18.15 21Z" shape-rendering="geometricPrecision"/></svg>