<svg xmlns="http://www.w3.org/2000/svg" width="24" height="24" fill-rule="evenodd" class="vector-svg"><path fill="gray" d="M3.57 2.56 2.15 3.98l18.59 18.59 1.41-1.41L3.57 2.56Z" shape-rendering="geometricPrecision"/><path fill="gray" d="M5.31 4.3c-1.04.66-1.56 1.41-1.56 2.26v10c0 1.12.87 2.07 2.6 2.85 1.75.77 3.88 1.15 6.4 1.15 2.52 0 4.64-.38 6.38-1.15.32-.14.6-.29.86-.44l-1.48-1.48c-.36.16-.77.3-1.23.44-.67.18-1.4.33-2.2.45a15.76 15.76 0 0 1-2.33.17c-.77 0-1.55-.06-2.35-.17a19.8 19.8 0 0 1-2.2-.45c-.67-.2-1.23-.42-1.67-.65-.43-.23-.69-.47-.77-.72v-2.47c.42.23.88.44 1.4.63.52.18 1.07.34 1.65.48a20.81 20.81 0 0 0 3.95.37 19.84 19.84 0 0 0 3.52-.31l-1.78-1.77c-.56.05-1.15.07-1.75.07a20.81 20.81 0 0 1-3.95-.37 14.79 14.79 0 0 1-1.65-.47 9.07 9.07 0 0 1-1.4-.62v-3c.42.23.88.44 1.4.63.52.18 1.07.34 1.65.48a20.81 20.81 0 0 0 2.74.34L9.21 8.2a16.62 16.62 0 0 1-.94-.24c-1.45-.42-2.29-.87-2.52-1.37.14-.29.48-.57 1.02-.83L5.31 4.3Zm3.57.75L7.24 3.4c1.58-.56 3.42-.83 5.51-.83 2.48 0 4.6.39 6.35 1.17 1.77.78 2.65 1.73 2.65 2.83v10c0 .37-.1.72-.29 1.06l-1.71-1.71V14.1a9.49 9.49 0 0 1-1.26.56l-1.53-1.54c.48-.12.93-.25 1.35-.4a9.73 9.73 0 0 0 1.45-.62v-3a9.73 9.73 0 0 1-1.45.63c-.52.18-1.07.34-1.67.48a19.68 19.68 0 0 1-2.28.31L12.44 8.6h.33c1.48 0 2.98-.21 4.47-.62 1.5-.43 2.34-.89 2.53-1.37-.18-.48-1.02-.94-2.52-1.37a15.89 15.89 0 0 0-4.47-.65c-1.31 0-2.59.16-3.86.48Z" shape-rendering="geometricPrecision"/></svg>