<svg xmlns="http://www.w3.org/2000/svg" width="24" height="24" fill-rule="evenodd" class="vector-svg"><path fill="gray" d="M12 21c-2.52 0-4.64-.39-6.39-1.16C3.87 19.06 3 18.12 3 17V7c0-1.1.88-2.04 2.64-2.82C7.4 3.39 9.52 3 12 3c2.48 0 4.61.39 6.36 1.18C20.12 4.96 21 5.9 21 7v10c0 1.12-.87 2.06-2.61 2.84C16.65 20.61 14.52 21 12 21Zm0-11.98c1.48 0 2.98-.21 4.48-.64 1.5-.43 2.34-.88 2.52-1.36-.18-.48-1.02-.94-2.51-1.37A16.01 16.01 0 0 0 12 5c-1.52 0-3 .21-4.46.64-1.46.43-2.31.89-2.54 1.39.23.5 1.08.96 2.54 1.38 1.46.42 2.94.63 4.46.63ZM12 14c.7 0 1.38-.04 2.02-.1.65-.07 1.27-.16 1.86-.28a13.4 13.4 0 0 0 1.68-.46 9.95 9.95 0 0 0 1.44-.64v-3a9.95 9.95 0 0 1-1.44.63c-.52.18-1.08.34-1.67.47-.59.13-1.21.22-1.86.28-.65.07-1.33.1-2.03.1-.7 0-1.38-.04-2.05-.1a17.58 17.58 0 0 1-1.89-.28 13.21 13.21 0 0 1-1.66-.46A9.08 9.08 0 0 1 5 9.52v3c.42.24.88.44 1.4.63.52.18 1.08.34 1.67.47.59.13 1.22.22 1.89.28.67.07 1.35.1 2.05.1Zm0 5c.77 0 1.55-.06 2.34-.18.79-.12 1.52-.27 2.19-.46.67-.19 1.23-.41 1.68-.65.45-.24.72-.48.8-.73v-2.45a9.95 9.95 0 0 1-1.44.63c-.52.18-1.08.34-1.67.47-.59.13-1.21.22-1.86.28-.66.06-1.34.09-2.04.09s-1.38-.04-2.05-.1a17.58 17.58 0 0 1-1.89-.28 13.21 13.21 0 0 1-1.66-.46 9.08 9.08 0 0 1-1.4-.64V17c.08.25.35.49.79.73.44.23 1 .45 1.66.64.67.19 1.4.34 2.2.46.8.12 1.59.18 2.35.18Z" shape-rendering="geometricPrecision"/></svg>