<svg xmlns="http://www.w3.org/2000/svg" width="20" height="20" fill-rule="evenodd" class="vector-svg"><path fill="gray" d="M10 13.5c.97 0 1.8-.34 2.48-1.02.68-.68 1.02-1.51 1.02-2.48s-.34-1.8-1.02-2.48C11.8 6.84 10.97 6.5 10 6.5s-1.8.34-2.48 1.02C6.84 8.2 6.5 9.03 6.5 10s.34 1.8 1.02 2.48c.68.68 1.51 1.02 2.48 1.02Zm0-1.6c-.52 0-.97-.18-1.34-.55A1.84 1.84 0 0 1 8.11 10c0-.52.18-.97.55-1.34.37-.37.82-.55 1.34-.55.52 0 .97.18 1.34.55.37.37.55.82.55 1.34 0 .52-.18.97-.55 1.34-.37.37-.82.55-1.34.55Zm0 4.26c-2.02 0-3.85-.56-5.51-1.69A9.936 9.936 0 0 1 .84 10c.78-1.85 1.99-3.35 3.65-4.47A9.633 9.633 0 0 1 10 3.84c2.02 0 3.86.56 5.51 1.69 1.66 1.12 2.87 2.61 3.65 4.47-.78 1.86-1.99 3.35-3.65 4.47-1.65 1.13-3.49 1.69-5.51 1.69ZM10 10Zm0 4.5c1.55 0 2.99-.4 4.3-1.21A8.12 8.12 0 0 0 17.34 10a8.12 8.12 0 0 0-3.04-3.29A8.06 8.06 0 0 0 10 5.5c-1.55 0-2.99.4-4.3 1.21A8.12 8.12 0 0 0 2.66 10a8.12 8.12 0 0 0 3.04 3.29A8.06 8.06 0 0 0 10 14.5Z" shape-rendering="geometricPrecision"/></svg>