<svg xmlns="http://www.w3.org/2000/svg" width="20" height="20" fill-rule="evenodd" class="vector-svg"><path fill="gray" d="M10 18a.78.78 0 0 1-.49-.16.82.82 0 0 1-.29-.41 14.33 14.33 0 0 0-.95-2.09c-.37-.66-.9-1.43-1.59-2.32-.68-.87-1.23-1.71-1.66-2.52-.42-.8-.64-1.77-.64-2.9 0-1.55.55-2.87 1.63-3.96C7.11 2.55 8.44 2 10 2s2.89.54 3.97 1.63c1.09 1.09 1.63 2.42 1.63 3.98 0 1.22-.23 2.22-.7 3.02a23.89 23.89 0 0 1-1.59 2.38c-.72.95-1.26 1.74-1.64 2.39a11.54 11.54 0 0 0-.91 2.03.96.96 0 0 1-.3.41.72.72 0 0 1-.46.16Zm0-2.64c.23-.47.5-.94.8-1.4.3-.46.74-1.08 1.33-1.85.58-.75 1.06-1.45 1.43-2.09.37-.64.55-1.45.55-2.41 0-1.12-.4-2.09-1.21-2.9-.81-.81-1.78-1.21-2.91-1.21A3.93 3.93 0 0 0 7.1 4.71c-.8.81-1.2 1.77-1.2 2.9 0 .96.19 1.77.56 2.41.38.64.85 1.34 1.42 2.09.58.77 1.02 1.39 1.32 1.85.3.46.57.93.8 1.4Zm0-5.75c.56 0 1.03-.19 1.42-.58A1.93 1.93 0 0 0 12 7.61c0-.56-.19-1.03-.58-1.42A1.92 1.92 0 0 0 10 5.61c-.56 0-1.03.19-1.42.58A1.92 1.92 0 0 0 8 7.6c0 .56.19 1.03.58 1.42.39.39.86.59 1.42.59Zm0-2.03Z" shape-rendering="geometricPrecision"/></svg>