<svg xmlns="http://www.w3.org/2000/svg" width="20" height="20" fill-rule="evenodd" class="vector-svg"><path fill="gray" d="M10 12a2.4 2.4 0 0 1-1.77-.73A2.4 2.4 0 0 1 7.5 9.5v-5c0-.69.24-1.28.73-1.77A2.4 2.4 0 0 1 10 2c.7 0 1.29.24 1.77.73.49.49.73 1.08.73 1.77v5c0 .7-.24 1.29-.73 1.77A2.4 2.4 0 0 1 10 12Zm0-5Zm-.75 10v-2.06c-1.37-.18-2.51-.78-3.4-1.81-.9-1.03-1.35-2.24-1.35-3.63H6c0 1.11.39 2.05 1.17 2.83.78.78 1.73 1.17 2.83 1.17 1.11 0 2.05-.39 2.83-1.17.78-.78 1.17-1.72 1.17-2.83h1.5c0 1.39-.45 2.6-1.35 3.63-.89 1.03-2.03 1.63-3.4 1.81V17Zm.75-6.5c.28 0 .52-.1.71-.29A.96.96 0 0 0 11 9.5v-5a.96.96 0 0 0-.29-.71.96.96 0 0 0-.71-.29.96.96 0 0 0-.71.29.96.96 0 0 0-.29.71v5c0 .28.1.52.29.71.19.19.43.29.71.29Z" shape-rendering="geometricPrecision"/></svg>