<svg xmlns="http://www.w3.org/2000/svg" width="20" height="20" fill-rule="evenodd" class="vector-svg"><path fill="gray" d="m14.61 12.48-1.11-1.1c.15-.29.27-.59.36-.9.09-.31.13-.64.13-.97h1.51c0 .53-.08 1.04-.23 1.55-.15.51-.37.98-.66 1.43ZM9.94 7.86Zm2.44 2.4L11 8.88V4.5a.96.96 0 0 0-.29-.71.96.96 0 0 0-.71-.29.96.96 0 0 0-.71.29.96.96 0 0 0-.29.71v2.38L7.5 5.37V4.5c0-.69.24-1.28.73-1.77A2.4 2.4 0 0 1 10 2c.7 0 1.29.24 1.77.73.49.49.73 1.08.73 1.77v5a2.43 2.43 0 0 1-.12.75ZM9.25 17v-2.06c-1.37-.17-2.51-.76-3.41-1.8C4.95 12.1 4.5 10.89 4.5 9.5H6c0 1.11.39 2.05 1.17 2.83.78.78 1.72 1.17 2.83 1.17.47 0 .92-.09 1.34-.27a4.73 4.73 0 0 0 1.18-.73l1.09 1.08a6.51 6.51 0 0 1-1.33.89 4.8 4.8 0 0 1-1.52.47V17ZM16 18.13 1.88 3.98l1.06-1.06 14.12 14.15Z" shape-rendering="geometricPrecision"/></svg>