<svg xmlns="http://www.w3.org/2000/svg" width="20" height="20" fill-rule="evenodd" class="vector-svg"><path fill="gray" d="M4.5 17c-.4 0-.75-.15-1.05-.45-.3-.3-.45-.65-.45-1.05v-11c0-.41.15-.77.45-1.06A1.45 1.45 0 0 1 4.5 3h11c.41 0 .77.15 1.06.44.29.29.44.65.44 1.06v11c0 .4-.15.75-.44 1.05-.29.3-.64.45-1.06.45Zm0-1.5H7V12h-.5a.47.47 0 0 1-.35-.14.47.47 0 0 1-.15-.36v-7H4.5Zm8.5 0h2.5v-11H14v7c0 .14-.05.26-.14.36a.47.47 0 0 1-.36.14H13Zm-5 0h4V12h-.5a.47.47 0 0 1-.35-.14.47.47 0 0 1-.15-.36v-7H9v7c0 .14-.05.26-.14.36a.47.47 0 0 1-.36.14H8Z" shape-rendering="geometricPrecision"/></svg>