<svg xmlns="http://www.w3.org/2000/svg" width="20" height="20" fill-rule="evenodd" class="vector-svg"><path fill="gray" d="M16 18.13 14.88 17H4.5c-.41 0-.77-.15-1.06-.44A1.44 1.44 0 0 1 3 15.5V5.13L1.88 4l1.06-1.06 14.12 14.13Zm1-3.25-1.5-1.5V4.5H14v7a.43.43 0 0 1-.1.27L11 8.88V4.5H9v2.38L5.13 3H15.5c.41 0 .77.15 1.06.44.29.29.44.65.44 1.06Zm-12.5.62H7V12h-.5a.47.47 0 0 1-.35-.14.47.47 0 0 1-.15-.36V8.13l-1.5-1.5Zm3.5 0h4v-1.37l-3-3v.38a.48.48 0 0 1-.14.36.48.48 0 0 1-.36.13H8Zm5-.04h.19l-.19-.19Z" shape-rendering="geometricPrecision"/></svg>