<svg xmlns="http://www.w3.org/2000/svg" width="20" height="20" fill-rule="evenodd" class="vector-svg"><path fill="gray" d="M10 14.48a.76.76 0 0 1-.55-.22.74.74 0 0 1-.23-.55c0-.21.07-.4.22-.55a.73.73 0 0 1 .55-.23c.22 0 .4.08.55.22a.73.73 0 0 1 .23.55.76.76 0 0 1-.22.55.73.73 0 0 1-.55.23ZM9.25 12V9.25l1.5 1.5V12Zm9.78 4.91-4.8-4.8L10 5.06 8.95 6.82 7.73 5.6 10 1.83ZM3.77 15.43h9.43L7.3 9.54Zm13.31 3.88-2.22-2.22h-14l5.25-8.75L.7 2.93l1.11-1.11L18.19 18.2Zm-6.82-6.82Zm1.34-3.03Z" shape-rendering="geometricPrecision"/></svg>