<svg xmlns="http://www.w3.org/2000/svg" width="20" height="20" fill-rule="evenodd" class="vector-svg"><path fill="gray" d="M4 15.5V14h1V9c0-.57.09-1.11.28-1.64.19-.52.44-1.01.76-1.47L7.15 7a3.46 3.46 0 0 0-.48.95A3.32 3.32 0 0 0 6.5 9v5H12L1.88 3.88 2.94 2.8l14.12 14.15L16 18l-2.5-2.5Zm11-2.75-1.5-1.5V9c0-.97-.34-1.8-1.02-2.48C11.8 5.84 10.97 5.5 10 5.5c-.32 0-.62.04-.91.13a4.05 4.05 0 0 0-.86.36l-1.08-1.1c.28-.2.57-.37.89-.49A5.53 5.53 0 0 1 9 4.11V3c0-.28.1-.52.29-.71A.96.96 0 0 1 10 2c.28 0 .52.1.71.29.2.19.29.43.29.71v1.11c1.18.22 2.14.79 2.89 1.71C14.63 6.73 15 7.79 15 9Zm-5.75-1.5ZM10 18c-.41 0-.77-.15-1.06-.44a1.44 1.44 0 0 1-.44-1.06h3c0 .42-.15.77-.44 1.06A1.45 1.45 0 0 1 10 18Zm.88-9.39Z" shape-rendering="geometricPrecision"/></svg>