<svg xmlns="http://www.w3.org/2000/svg" width="20" height="20" fill-rule="evenodd" class="vector-svg"><path fill="gray" d="M6 12c.55 0 1.02-.19 1.41-.59.39-.39.59-.86.59-1.41 0-.55-.19-1.02-.59-1.41A1.94 1.94 0 0 0 6 8c-.55 0-1.02.2-1.41.59C4.2 8.98 4 9.45 4 10c0 .55.2 1.02.59 1.41.39.39.86.59 1.41.59Zm0 3c-1.39 0-2.57-.48-3.54-1.46C1.48 12.57 1 11.39 1 10c0-1.39.48-2.57 1.46-3.54C3.43 5.48 4.61 5 6 5c1 0 1.91.27 2.73.81A5.09 5.09 0 0 1 10.58 8h6.92c.41 0 .77.15 1.06.44.29.29.44.65.44 1.06v4c0 .41-.15.77-.44 1.06a1.44 1.44 0 0 1-1.06.44h-3c-.41 0-.77-.15-1.06-.44A1.44 1.44 0 0 1 13 13.5V12h-2.42a5.09 5.09 0 0 1-1.85 2.19A4.84 4.84 0 0 1 6 15Zm3.46-4.5h5.04v3h1V12c0-.14.05-.27.14-.36a.49.49 0 0 1 .36-.14c.14 0 .27.05.36.14.09.09.14.22.14.36v1.5h1v-4H9.46A3.27 3.27 0 0 0 8.3 7.34 3.45 3.45 0 0 0 6 6.5c-.97 0-1.8.34-2.48 1.02C2.84 8.2 2.5 9.03 2.5 10s.34 1.8 1.02 2.48c.68.68 1.51 1.02 2.48 1.02.87 0 1.64-.28 2.3-.84a3.27 3.27 0 0 0 1.16-2.16Z" shape-rendering="geometricPrecision"/></svg>