<svg xmlns="http://www.w3.org/2000/svg" width="20" height="20" fill-rule="evenodd" class="vector-svg"><path fill="gray" d="m16 18.13-5.64-5.64a4.96 4.96 0 0 1-1.83 1.84A4.96 4.96 0 0 1 6 15c-1.39 0-2.57-.48-3.54-1.46C1.48 12.57 1 11.39 1 10c0-.9.22-1.74.67-2.52a4.81 4.81 0 0 1 1.85-1.83L1.88 4l1.06-1.06 14.12 14.13ZM6 13.5c.71 0 1.36-.19 1.94-.57a3.53 3.53 0 0 0 1.31-1.57L4.64 6.77a3.39 3.39 0 0 0-1.57 1.29 3.46 3.46 0 0 0-.57 1.95c0 .96.34 1.78 1.02 2.47A3.38 3.38 0 0 0 6 13.5Zm5.63-4ZM19 15h-1.87L15 12.88v-.62c0-.21.07-.39.22-.53a.71.71 0 0 1 .53-.21c.21 0 .39.07.54.22a.73.73 0 0 1 .22.54v1.25h1v-4h-5.87l-1.5-1.5H19ZM6 12c-.55 0-1.02-.19-1.41-.59A1.94 1.94 0 0 1 4 10c0-.55.2-1.02.59-1.41C4.98 8.2 5.45 8 6 8c.55 0 1.02.2 1.41.59.39.39.59.86.59 1.41 0 .55-.19 1.02-.59 1.41-.39.39-.86.59-1.41.59Zm0-1.87Z" shape-rendering="geometricPrecision"/></svg>