<svg xmlns="http://www.w3.org/2000/svg" width="20" height="20" fill-rule="evenodd" class="vector-svg"><path fill="gray" d="M8.94 12.54c.32.31.71.45 1.19.43.47-.02.82-.2 1.04-.53L15.5 6l-6.44 4.34c-.34.23-.53.58-.56 1.05-.03.47.12.85.44 1.16ZM10.02 4c.84 0 1.59.11 2.25.32a8.83 8.83 0 0 1 1.81.8l-1.44.94a6.15 6.15 0 0 0-1.22-.42 6.25 6.25 0 0 0-1.4-.14c-1.8 0-3.34.65-4.61 1.95C4.14 8.74 3.5 10.27 3.5 12c0 .53.04.96.11 1.3.08.34.2.74.37 1.2H16c.18-.46.31-.88.39-1.26.07-.38.11-.79.11-1.24 0-.58-.08-1.17-.24-1.75a6.05 6.05 0 0 0-.7-1.6l.9-1.35a7.98 7.98 0 0 1 1.13 2.2c.27.81.41 1.63.41 2.46 0 .71-.06 1.33-.18 1.86a4.96 4.96 0 0 1-.57 1.46A1.4 1.4 0 0 1 16 16H4a1.4 1.4 0 0 1-1.25-.73 4.96 4.96 0 0 1-.57-1.46c-.12-.53-.18-1.14-.18-1.85 0-1.1.21-2.14.64-3.11a8.01 8.01 0 0 1 1.72-2.52 8.1 8.1 0 0 1 2.55-1.7A7.83 7.83 0 0 1 10.02 4ZM10 9.81Z" shape-rendering="geometricPrecision"/></svg>