<svg xmlns="http://www.w3.org/2000/svg" width="20" height="20" fill-rule="evenodd" class="vector-svg"><path fill="gray" d="M7.88 16.4a.97.97 0 0 1-.39-.08 1.18 1.18 0 0 1-.35-.25l-4.89-5.4a1.08 1.08 0 0 1-.19-.32 1 1 0 0 1 .19-1.01l4.88-5.39c.11-.11.23-.19.36-.25a.97.97 0 0 1 .78 0c.12.06.23.14.34.25L10 5.48l1.4-1.54a1.3 1.3 0 0 1 .34-.25.97.97 0 0 1 .78 0c.13.06.25.14.36.25l4.88 5.4c.08.1.14.21.19.32.04.12.06.24.06.34a1.08 1.08 0 0 1-.25.67l-4.87 5.4c-.11.11-.23.2-.35.25a.97.97 0 0 1-.78 0 1.3 1.3 0 0 1-.34-.25L10 14.52l-1.39 1.54a1.3 1.3 0 0 1-.34.25.92.92 0 0 1-.39.08Zm0-1.75L9 13.42l-2.5-2.75a.99.99 0 0 1-.25-.67c0-.25.08-.47.25-.67L9 6.58 7.88 5.36 3.67 10Zm4.25 0 4.2-4.65-4.21-4.64L11 6.58l2.5 2.75c.17.2.25.42.25.67 0 .25-.08.47-.25.67L11 13.42Z" shape-rendering="geometricPrecision"/></svg>