<svg xmlns="http://www.w3.org/2000/svg" width="20" height="20" fill-rule="evenodd" class="vector-svg"><path fill="gray" d="m16 18.13-2.62-2.63-.5.56a.97.97 0 0 1-.33.25 1.04 1.04 0 0 1-.42.08c-.15 0-.29-.03-.42-.08a.81.81 0 0 1-.31-.25L10 14.52l-1.39 1.54a.98.98 0 0 1-.33.25 1.04 1.04 0 0 1-.81 0 .97.97 0 0 1-.33-.25l-4.89-5.39a.84.84 0 0 1-.19-.3A1.05 1.05 0 0 1 2 10a.99.99 0 0 1 .25-.67l2.36-2.6L1.88 4l1.06-1.06 14.12 14.13Zm-3.69-3.69-1.17-1.19Zm-4.44.21L9 13.42l-2.5-2.75a.99.99 0 0 1-.25-.67c0-.25.08-.47.25-.67l.33-.37L5.67 7.8l-2 2.21Zm7.52-1.37-1.06-1.06 2-2.21-4.35-4.5L11 6.58l2.5 2.75c.17.2.25.42.25.67 0 .25-.08.47-.25.67l-.33.38L6.63 4.5l.5-.56c.11-.11.23-.19.34-.25a.96.96 0 0 1 .41-.08c.14 0 .27.03.4.08s.24.14.34.25L10 5.48l1.4-1.54a.98.98 0 0 1 .34-.25 1.04 1.04 0 0 1 .81 0c.13.06.23.14.33.25l4.88 5.4A.99.99 0 0 1 18 10a.99.99 0 0 1-.25.67Z" shape-rendering="geometricPrecision"/></svg>