<svg xmlns="http://www.w3.org/2000/svg" width="20" height="20" fill-rule="evenodd" class="vector-svg"><path fill="gray" d="m16 18.13-9.29-9.3a3.53 3.53 0 0 0-.16.56c-.04.2-.05.4-.05.61 0 .48.09.94.27 1.36.18.43.43.8.75 1.12l-1.04 1.04A4.86 4.86 0 0 1 5 10c0-.42.05-.82.16-1.2a5.72 5.72 0 0 1 .43-1.09L4.48 6.58c-.31.5-.55 1.04-.72 1.62A6.12 6.12 0 0 0 3.5 10a6.36 6.36 0 0 0 1.92 4.58l-1.06 1.06a7.89 7.89 0 0 1-1.73-2.53A7.75 7.75 0 0 1 2 10a7.92 7.92 0 0 1 1.38-4.5L1.88 4l1.06-1.06 14.12 14.13Zm.63-3.62-1.1-1.08c.31-.5.55-1.04.72-1.62A6.12 6.12 0 0 0 16.5 10a6.36 6.36 0 0 0-1.92-4.58l1.06-1.06a7.89 7.89 0 0 1 1.73 2.53A7.75 7.75 0 0 1 18 10c0 .83-.12 1.63-.35 2.4a7.51 7.51 0 0 1-1.02 2.11Zm-2.19-2.19-1.14-1.14c.07-.19.12-.39.16-.57.04-.19.05-.39.05-.59 0-.48-.09-.94-.27-1.36a3.6 3.6 0 0 0-.75-1.12l1.04-1.04A4.86 4.86 0 0 1 15 10c0 .42-.05.82-.14 1.21-.09.39-.23.76-.42 1.11Z" shape-rendering="geometricPrecision"/></svg>