<svg xmlns="http://www.w3.org/2000/svg" width="20" height="20" fill-rule="evenodd" class="vector-svg"><path fill="gray" d="M4.36 15.65a7.89 7.89 0 0 1-1.73-2.53A7.72 7.72 0 0 1 2 10.01c0-1.12.21-2.16.63-3.12a8.37 8.37 0 0 1 1.71-2.56L5.4 5.39a6.81 6.81 0 0 0-1.38 2.08 6.28 6.28 0 0 0-.51 2.52 6.33 6.33 0 0 0 1.92 4.59Zm2.1-2.1a5.5 5.5 0 0 1-1.06-1.59A4.85 4.85 0 0 1 5 10c0-.7.13-1.36.4-1.96a5.48 5.48 0 0 1 1.06-1.59l1.06 1.07a3.59 3.59 0 0 0-.75 1.12A3.4 3.4 0 0 0 6.5 10c0 .48.09.94.27 1.36.18.42.43.8.75 1.12ZM10 11.76a1.67 1.67 0 0 1-1.24-.52A1.7 1.7 0 0 1 8.25 10c0-.48.17-.89.52-1.23.34-.34.76-.51 1.24-.51s.89.17 1.23.52c.34.34.51.76.51 1.24s-.17.89-.52 1.23c-.34.34-.76.51-1.24.51Zm3.52 1.77-1.04-1.04c.32-.32.57-.69.75-1.12a3.4 3.4 0 0 0 .27-1.36c0-.48-.09-.94-.27-1.36a3.57 3.57 0 0 0-.75-1.12l1.06-1.06c.44.46.8.99 1.06 1.59a4.89 4.89 0 0 1 .4 1.95 4.83 4.83 0 0 1-1.48 3.51Zm2.13 2.13-1.06-1.06A6.33 6.33 0 0 0 16 12.54c.34-.78.51-1.62.51-2.52 0-.9-.17-1.75-.51-2.54a6.84 6.84 0 0 0-1.38-2.07l1.06-1.06a8.37 8.37 0 0 1 1.71 2.56 7.76 7.76 0 0 1 .63 3.12c0 1.11-.21 2.14-.62 3.11a7.89 7.89 0 0 1-1.73 2.53Z" shape-rendering="geometricPrecision"/></svg>