<svg xmlns="http://www.w3.org/2000/svg" width="20" height="20" fill-rule="evenodd" class="vector-svg"><path fill="gray" d="M2 18v-2.5c0-.42.15-.77.44-1.06A1.44 1.44 0 0 1 3.5 14h13c.41 0 .77.15 1.06.44.29.29.44.65.44 1.06V18Zm1.5-1.5h13v-1h-13Zm1-3.5V3.5c0-.46.14-.82.41-1.09C5.18 2.14 5.54 2 6 2h8c.46 0 .82.14 1.09.41.27.27.41.63.41 1.09V13H14V3.5H6V13ZM7 11.5h.43c.55 0 .99-.27 1.32-.82.33-.55.5-1.28.5-2.18 0-.9-.16-1.62-.5-2.17-.33-.55-.77-.82-1.32-.82H7Zm4.5-1.5c.41 0 .77-.15 1.06-.44.29-.3.44-.65.44-1.06 0-.41-.15-.77-.44-1.06A1.45 1.45 0 0 0 11.5 7c-.41 0-.77.15-1.06.44A1.45 1.45 0 0 0 10 8.5c0 .41.15.77.44 1.06.3.29.65.44 1.06.44ZM10 16.5Zm0-8.25Z" shape-rendering="geometricPrecision"/></svg>