<svg xmlns="http://www.w3.org/2000/svg" width="20" height="20" fill-rule="evenodd" class="vector-svg"><path fill="gray" d="M14 1.17c.46 0 .82.13 1.09.41.27.27.41.63.41 1.09v9.51h-.39L14 11.06V2.67H5.65l-.9-.9c.13-.19.3-.34.51-.45.22-.1.46-.16.74-.16Zm-1.98 7.91-1.91-1.94a1.56 1.56 0 0 1 .54-.7 1.38 1.38 0 0 1 .86-.28c.41 0 .76.14 1.06.44.29.29.44.65.44 1.06 0 .32-.09.61-.28.87a1.57 1.57 0 0 1-.7.55ZM7 10.67v-4.5l2.21 2.21c-.08.71-.28 1.27-.59 1.68-.31.41-.71.62-1.18.62Zm-3.5 5h10.88l-1-1H3.5Zm13.23 2.35-.85-.85H2v-2.5c0-.41.15-.77.44-1.06a1.44 1.44 0 0 1 1.06-.44h8.38L6 7.29v4.88H4.5V5.79L1.15 2.44l1.06-1.06L17.8 16.96Zm-7.79-2.35Zm.9-8.81Zm-1.4 2.87Z" shape-rendering="geometricPrecision"/></svg>