<svg xmlns="http://www.w3.org/2000/svg" width="20" height="20" fill-rule="evenodd" class="vector-svg"><path fill="gray" d="m18 15.88-1.5-1.5V9.5h-4.87L10.13 8h6.37c.41 0 .77.15 1.06.44.29.29.44.65.44 1.06ZM13.08 6.5a4.92 4.92 0 0 0-1.84-2.19A4.87 4.87 0 0 0 8.5 3.5c-.4 0-.79.05-1.18.14a5.1 5.1 0 0 0-1.12.44l-1.12-1.1a6.9 6.9 0 0 1 1.65-.73A6.26 6.26 0 0 1 8.5 2a6.34 6.34 0 0 1 3.82 1.24 6.46 6.46 0 0 1 2.37 3.26Zm-1.14 7.56Zm4.79 4.79-.85-.85H9.5c-.41 0-.77-.15-1.06-.44A1.44 1.44 0 0 1 8 16.5v-6.37L4.06 6.19A4.97 4.97 0 0 0 3.5 8.5c0 1 .27 1.91.81 2.73a4.97 4.97 0 0 0 2.19 1.83v1.63a6.46 6.46 0 0 1-3.26-2.36A6.34 6.34 0 0 1 2 8.5c0-.63.08-1.23.25-1.8a6.7 6.7 0 0 1 .71-1.61l-1.79-1.8 1.06-1.06 15.56 15.56ZM9.04 6.54Zm-1.6.89ZM10 15.5l1.48-2 1.27 1.29.88-1.17 1.87 1.88Zm-.5 1h4.88L9.5 11.63Zm4.56-4.56Z" shape-rendering="geometricPrecision"/></svg>