<svg xmlns="http://www.w3.org/2000/svg" width="20" height="20" fill-rule="evenodd" class="vector-svg"><path fill="gray" d="M6.5 14.69a6.46 6.46 0 0 1-3.26-2.36A6.34 6.34 0 0 1 2 8.5c0-1.8.63-3.34 1.9-4.61C5.16 2.63 6.7 2 8.5 2a6.34 6.34 0 0 1 3.82 1.24 6.46 6.46 0 0 1 2.37 3.26h-1.61a4.92 4.92 0 0 0-1.84-2.19A4.87 4.87 0 0 0 8.5 3.5c-1.39 0-2.57.48-3.54 1.46-.98.97-1.46 2.15-1.46 3.54 0 1 .27 1.91.81 2.73a4.97 4.97 0 0 0 2.19 1.83Zm3 3.31c-.41 0-.77-.15-1.06-.44A1.44 1.44 0 0 1 8 16.5v-7c0-.41.15-.77.44-1.06A1.44 1.44 0 0 1 9.5 8h7c.41 0 .77.15 1.06.44.29.29.44.65.44 1.06v7c0 .41-.15.77-.44 1.06a1.44 1.44 0 0 1-1.06.44Zm0-1.5h7v-7h-7Zm.5-1h6L14.11 13l-1.5 1.98-1.11-1.48Zm3-2.5ZM8.29 8.27Z" shape-rendering="geometricPrecision"/></svg>