<svg xmlns="http://www.w3.org/2000/svg" width="16" height="16" fill-rule="evenodd" class="vector-svg"><path fill="gray" d="m8 14.52-.81-2.44H2.7a1.25 1.25 0 0 1-.87-.36 1.16 1.16 0 0 1-.35-.86V2.7c0-.33.12-.62.36-.86s.53-.37.87-.37h3.67l.81 2.44h6.11c.33 0 .62.12.86.36s.36.53.36.86v8.16c0 .34-.12.63-.36.87a1.19 1.19 0 0 1-.86.36ZM4.79 9.63c.65 0 1.2-.21 1.66-.63.46-.42.69-1.01.69-1.77 0-.08 0-.16-.01-.23a1.33 1.33 0 0 0-.04-.25h-2.3v.83h1.43c-.04.38-.19.66-.46.88a1.56 1.56 0 0 1-.97.31c-.43 0-.79-.15-1.09-.46a1.55 1.55 0 0 1-.45-1.12c0-.43.15-.8.45-1.11.3-.31.67-.46 1.1-.46.18 0 .36.03.53.1.17.07.32.16.46.29l.65-.63a2.18 2.18 0 0 0-.77-.47 2.58 2.58 0 0 0-.87-.16c-.68 0-1.26.24-1.74.72a2.37 2.37 0 0 0-.71 1.73c0 .68.24 1.25.71 1.73a2.37 2.37 0 0 0 1.74.72Zm4.31.57.33-.32c-.16-.17-.3-.35-.43-.53a7.06 7.06 0 0 1-.36-.59Zm.8-.83c.23-.27.44-.56.63-.86.2-.3.34-.63.43-.99h-2.7l.24.71.66-.02c.1.22.21.42.33.61.12.19.26.37.42.54Zm-1.09 4.34h4.49a.41.41 0 0 0 .29-.11.4.4 0 0 0 .12-.3V5.14a.4.4 0 0 0-.12-.29.4.4 0 0 0-.29-.12H7.39l.65 2.1H9.4v-.7h.68v.7h2.46v.7h-.86a4.86 4.86 0 0 1-.51 1.26 7.07 7.07 0 0 1-.78 1.1l1.84 1.8-.49.49-1.8-1.8-.59.58.61 1.93Z" shape-rendering="geometricPrecision"/></svg>