<svg xmlns="http://www.w3.org/2000/svg" width="20" height="20" fill-rule="evenodd" class="vector-svg"><path fill="gray" d="m18 13.98-3-3v1.88l-1.5-1.5V5.5H7.63L6.13 4h7.37c.41 0 .77.15 1.06.44.29.29.44.65.44 1.06v3.48l3-3Zm-1.27 4.83L1.17 3.27l1.06-1.06 15.56 15.54ZM10.56 8.42Zm-2.1 2.1ZM4.04 4.04 5.5 5.48h-1v9.02h9v-1.04l1.5 1.5c-.11.28-.28.52-.52.73-.24.21-.56.31-.98.31h-9a1.45 1.45 0 0 1-1.05-.44c-.3-.29-.45-.65-.45-1.06V5.48c0-.35.1-.66.3-.91.2-.25.45-.42.74-.52Z" shape-rendering="geometricPrecision"/></svg>