<svg xmlns="http://www.w3.org/2000/svg" width="20" height="20" fill-rule="evenodd" class="vector-svg"><path fill="gray" d="m16 18.13-2.23-2.23a6.93 6.93 0 0 1-1.09.55c-.42.17-.82.3-1.18.38v-1.54c.17-.07.36-.15.59-.24.23-.09.42-.18.57-.26L10 12.13v3.9l-4-4H3v-4h2.88l-4-4.02 1.06-1.06 14.12 14.13Zm-.12-4.36-1.08-1.08c.22-.4.4-.83.52-1.28.12-.45.19-.91.19-1.39a5.27 5.27 0 0 0-1.11-3.3 5.64 5.64 0 0 0-2.9-1.99V3.19c1.63.32 2.95 1.13 3.97 2.42S17 8.37 17 10.02c0 .67-.1 1.32-.29 1.95a7.31 7.31 0 0 1-.83 1.8Zm-2.58-2.58L11.5 9.4V6.86a3.21 3.21 0 0 1 1.47 1.28 3.51 3.51 0 0 1 .53 1.88c0 .2-.02.39-.04.59a2.37 2.37 0 0 1-.16.58ZM10 7.89 8.06 5.96 10 4.02Zm-1.5 4.5v-1.77L7 9.13l-.37.4H4.5v1h2.13Zm-.75-2.52Z" shape-rendering="geometricPrecision"/></svg>