<svg xmlns="http://www.w3.org/2000/svg" width="20" height="20" fill-rule="evenodd" class="vector-svg"><path fill="gray" d="m15.94 17-4.98-5c-.41.32-.87.57-1.37.74A4.71 4.71 0 0 1 8 13c-1.39 0-2.57-.48-3.54-1.46C3.48 10.57 3 9.39 3 8c0-1.39.48-2.57 1.46-3.54C5.43 3.48 6.61 3 8 3c1.39 0 2.57.48 3.54 1.46C12.52 5.43 13 6.61 13 8c0 .56-.09 1.09-.26 1.59s-.41.96-.72 1.37L17 15.94ZM8 11.5c.97 0 1.8-.34 2.48-1.02.68-.68 1.02-1.51 1.02-2.48s-.34-1.8-1.02-2.48C9.8 4.84 8.97 4.5 8 4.5s-1.8.34-2.48 1.02C4.84 6.2 4.5 7.03 4.5 8s.34 1.8 1.02 2.48c.68.68 1.51 1.02 2.48 1.02ZM6 8.75v-1.5h4v1.5Z" shape-rendering="geometricPrecision"/></svg>