<svg width="24px" height="24px" viewBox="0 0 24 24" version="1.1" xmlns="http://www.w3.org/2000/svg" xmlns:xlink="http://www.w3.org/1999/xlink">
    <defs>
        <filter x="-52.5%" y="-52.5%" width="205.0%" height="205.0%" filterUnits="objectBoundingBox" id="filter-1">
            <feOffset dx="0" dy="0" in="SourceAlpha" result="shadowOffsetOuter1"></feOffset>
            <feGaussianBlur stdDeviation="1.5" in="shadowOffsetOuter1" result="shadowBlurOuter1"></feGaussianBlur>
            <feColorMatrix values="0 0 0 0 0.125490196   0 0 0 0 0.129411765   0 0 0 0 0.141176471  0 0 0 0.3 0" type="matrix" in="shadowBlurOuter1" result="shadowMatrixOuter1"></feColorMatrix>
            <feMerge>
                <feMergeNode in="shadowMatrixOuter1"></feMergeNode>
                <feMergeNode in="SourceGraphic"></feMergeNode>
            </feMerge>
        </filter>
        <path d="M11.6628542,19 L8.33386438,19 C7.66806642,19 7.11023569,18.5256223 7.02926026,17.8843338 L6.78633397,16.2240117 C6.54340769,16.1010249 6.30947867,15.9692533 6.07554965,15.8199122 L4.45604108,16.4524158 C3.82623219,16.6808199 3.13344241,16.4260615 2.82753524,15.8814056 L1.18103486,13.0966325 C0.866130414,12.5168375 1.00108946,11.8316252 1.50493657,11.4450952 L2.88151886,10.3997072 C2.87252159,10.2679356 2.86352432,10.136164 2.86352432,9.99560761 C2.86352432,9.86383602 2.87252159,9.72327965 2.88151886,9.59150805 L1.51393384,8.54612006 C0.983094922,8.15080527 0.848135875,7.43923865 1.18103486,6.89458272 L2.84552978,4.09224012 C3.15143695,3.54758419 3.84422673,3.30161054 4.45604108,3.53879941 L6.08454692,4.18008785 C6.31847594,4.03074671 6.55240496,3.89897511 6.78633397,3.77598829 L7.02926026,2.09809663 C7.11023569,1.48316252 7.66806642,1 8.32486711,1 L11.653857,1 C12.3196549,1 12.8774857,1.47437775 12.9584611,2.11566618 L13.2013874,3.77598829 C13.4443137,3.89897511 13.6782427,4.03074671 13.9121717,4.18008785 L15.5316803,3.54758419 C16.1704864,3.31918009 16.8632762,3.57393851 17.1691834,4.11859444 L18.824681,6.91215227 C19.1485827,7.49194729 19.0046264,8.17715959 18.5007793,8.5636896 L17.1331943,9.6090776 C17.1421916,9.74084919 17.1511888,9.87262079 17.1511888,10.0131772 C17.1511888,10.1537335 17.1421916,10.2855051 17.1331943,10.4172767 L18.5007793,11.4626647 C19.0046264,11.8579795 19.1485827,12.5431918 18.8336783,13.0966325 L17.1601861,15.9253294 C16.8542789,16.4699854 16.1614891,16.715959 15.5406775,16.4787701 L13.921169,15.8462665 C13.6872399,15.9956076 13.4533109,16.1273792 13.2193819,16.250366 L12.9764556,17.9282577 C12.8864829,18.5256223 12.3286522,19 11.6628542,19 Z M11.1859989,17.6559297 L11.1859989,17.6734993 L11.1859989,17.6559297 Z M8.81071969,17.6383602 L8.81071969,17.6559297 C8.81971696,17.6559297 8.81971696,17.6471449 8.81071969,17.6383602 Z M8.75673607,17.2430454 L11.2399825,17.2430454 L11.5728815,15.0029283 L12.0497368,14.8096633 C12.4456167,14.6515373 12.8414966,14.4231332 13.255371,14.124451 L13.6602481,13.8257687 L15.8015984,14.6691069 L17.0432216,12.5607613 L15.2167758,11.1727672 L15.2797567,10.6808199 C15.3067485,10.4524158 15.3337403,10.2327965 15.3337403,9.99560761 C15.3337403,9.75841874 15.3067485,9.53001464 15.2797567,9.31039531 L15.2167758,8.81844802 L17.0432216,7.43045388 L15.7926011,5.32210835 L13.6422536,6.16544656 L13.2373764,5.8579795 C12.8594911,5.57686676 12.454614,5.34846266 12.0407396,5.18155198 L11.5728815,4.98828697 L11.2399825,2.74816984 L8.75673607,2.74816984 L8.42383708,4.98828697 L7.94698178,5.1727672 C7.55110191,5.33967789 7.15522203,5.55929722 6.74134762,5.86676428 L6.33647048,6.15666179 L4.19512026,5.32210835 L2.94449975,7.42166911 L4.77094553,8.80966325 L4.70796464,9.30161054 C4.68097283,9.53001464 4.65398102,9.76720351 4.65398102,9.99560761 C4.65398102,10.2240117 4.67197556,10.4612006 4.70796464,10.6808199 L4.77094553,11.1727672 L2.94449975,12.5607613 L4.18612299,14.6691069 L6.33647048,13.8257687 L6.74134762,14.1332357 C7.12823023,14.4231332 7.51511283,14.6427526 7.93798451,14.8096633 L8.41483981,15.0029283 L8.75673607,17.2430454 Z M15.5946611,15.0204978 C15.5946611,15.0292826 15.5856639,15.0380673 15.5856639,15.0468521 L15.5946611,15.0204978 Z M4.39306019,15.011713 L4.40205746,15.0292826 C4.40205746,15.0204978 4.39306019,15.011713 4.39306019,15.011713 Z M15.5946611,4.96193265 C15.5946611,4.97071742 15.6036584,4.9795022 15.6036584,4.9795022 L15.5946611,4.96193265 Z M4.41105473,4.9443631 L4.40205746,4.96193265 C4.40205746,4.96193265 4.41105473,4.95314788 4.41105473,4.9443631 Z M11.1770017,2.33528551 L11.1770017,2.35285505 L11.1770017,2.33528551 Z M9.99835931,6.92093704 C8.87331407,6.92093702 7.83372939,7.50696591 7.27120676,8.45827231 C6.70868414,9.4095787 6.70868414,10.5816365 7.27120676,11.5329429 C7.83372939,12.4842493 8.87331407,13.0702782 9.99835931,13.0702782 C11.7375285,13.0702782 13.1474038,11.6937013 13.1474038,9.99560761 C13.1474038,8.29751395 11.7375285,6.92093704 9.99835931,6.92093704 Z" id="path-2"></path>
    </defs>
    <g id="Mocks" stroke="none" stroke-width="1" fill="none" fill-rule="evenodd">
        <g id="camera_grid_3:3-copy" transform="translate(-24.000000, -35.000000)">
            <g id="Left-bar" transform="translate(26.000000, 35.000000)">
                <g id="ic_settings" filter="url(#filter-1)">
                    <polygon id="Shape" points="0 0 20 0 20 20 0 20"></polygon>
                    <mask id="mask-3" fill="white">
                        <use xlink:href="#path-2"></use>
                    </mask>
                    <use id="ic_settings_24px" fill="#FFFFFF" fill-rule="nonzero" xlink:href="#path-2"></use>
                </g>
            </g>
        </g>
    </g>
</svg>
