<svg width="20" height="20" viewBox="0 0 20 20" fill="none" xmlns="http://www.w3.org/2000/svg">
<path fill-rule="evenodd" clip-rule="evenodd" d="M2 2.08579L17.5563 17.6421L16.1421 19.0563L15.0858 18H4C2.89543 18 2 17.1046 2 16L1.99978 4.914L0.585785 3.5L2 2.08579ZM10.0858 13H8V16H12L11.9998 14.914L10.0858 13ZM7 13H4V16H7V13ZM16 2C17.1046 2 18 2.89543 18 4V15L15 12H16V8H13V10L12 9V8H11L10 7H12V4H8V5L5 2H16ZM9.08578 12L7.99978 10.914L8 12H9.08578ZM5.08578 8H4V12H7L6.99978 9.914L5.08578 8ZM16 4H13V7H16V4Z" fill="#E8EAED"/>
</svg>
