<svg width="20" height="20" viewBox="0 0 20 20" fill="none" xmlns="http://www.w3.org/2000/svg">
<path fill-rule="evenodd" clip-rule="evenodd" d="M2 2.08579L17.5563 17.6421L16.1421 19.0563L14.9998 17.914L15 18H13V16H13.0858L10.9998 13.914L11 19H9L8.99978 11.914L3.99978 6.914L4 16H7V18H4C2.94564 18 2.08183 17.1841 2.00548 16.1493L2 16L1.99978 4.914L0.585785 3.5L2 2.08579ZM18 12V14H17L16 13V12H18ZM18 9V11H16V9H18ZM18 6V8H16V6H18ZM11 1V8L9 6V1H11ZM16 2L16.1493 2.00549C17.1324 2.07802 17.9179 2.86123 17.994 3.84335L18 4V5H16V2ZM7 2V4L5 2H7ZM15 2V4H13V2H15Z" fill="#E8EAED"/>
</svg>
