<svg width="28" height="27" viewBox="0 0 28 27" fill="none" xmlns="http://www.w3.org/2000/svg">
<path d="M9.70296 2.36212C8.71328 3.11638 8.13596 3.95445 7.80606 5.04394C7.64111 5.63059 7.64111 6.21724 7.64111 6.80388C7.72359 7.80957 7.97101 8.81525 8.46585 9.65332C9.04317 10.4914 9.86791 11.1618 10.7751 11.2457C12.0122 11.4133 13.3318 10.8266 14.0741 9.82093C14.8988 8.81525 15.2287 7.55815 15.3112 6.30104C15.3937 5.29536 15.2287 4.12207 14.6514 3.284C14.1566 2.44593 13.2493 1.94308 12.3421 1.77547C11.5999 1.60786 10.6927 1.77547 9.70296 2.36212Z" stroke="#7CB1F2" stroke-width="2" stroke-miterlimit="10" stroke-linecap="round" stroke-linejoin="round"/>
<path d="M7.97061 4.625C7.3933 5.96591 6.40361 7.72586 5.49639 8.64773C4.50671 9.56961 2.9397 10.3239 1.62012 10.2401" stroke="#7CB1F2" stroke-width="2" stroke-miterlimit="10" stroke-linecap="round" stroke-linejoin="round"/>
<path d="M17.207 2.78125C14.8152 7.13921 15.0627 12.419 14.4854 17.2798C14.2379 19.1236 13.8256 21.0512 12.8359 22.6435C11.5988 24.6549 9.04207 26.2472 6.7328 25.4091C5.08332 24.8225 4.1761 22.9787 4.58847 21.2188C4.8359 20.0455 5.49569 18.956 6.23795 18.1179C8.79465 15.3523 12.506 14.2628 16.0524 13.2571C19.7637 12.2514 23.5575 11.4972 26.8565 9.48581" stroke="#7CB1F2" stroke-width="2" stroke-miterlimit="10" stroke-linecap="round" stroke-linejoin="round"/>
</svg>
