<?xml version="1.0" encoding="UTF-8"?>
<!--Generator: Apple Native CoreSVG 175.5-->
<!DOCTYPE svg
PUBLIC "-//W3C//DTD SVG 1.1//EN"
       "http://www.w3.org/Graphics/SVG/1.1/DTD/svg11.dtd">
<svg version="1.1" xmlns="http://www.w3.org/2000/svg" xmlns:xlink="http://www.w3.org/1999/xlink" width="3300" height="2200">
 <!--glyph: "", point size: 100.0, font version: "18.0d12e2", template writer version: "101"-->
 <g id="Notes">
  <rect height="2200" id="artboard" style="fill:white;opacity:1" width="3300" x="0" y="0"/>
  <line style="fill:none;stroke:black;opacity:1;stroke-width:0.5;" x1="263" x2="3036" y1="292" y2="292"/>
  <text style="stroke:none;fill:black;font-family:sans-serif;font-size:13;font-weight:bold;" transform="matrix(1 0 0 1 263 322)">Weight/Scale Variations</text>
  <text style="stroke:none;fill:black;font-family:sans-serif;font-size:13;text-anchor:middle;" transform="matrix(1 0 0 1 559.711 322)">Ultralight</text>
  <text style="stroke:none;fill:black;font-family:sans-serif;font-size:13;text-anchor:middle;" transform="matrix(1 0 0 1 856.422 322)">Thin</text>
  <text style="stroke:none;fill:black;font-family:sans-serif;font-size:13;text-anchor:middle;" transform="matrix(1 0 0 1 1153.13 322)">Light</text>
  <text style="stroke:none;fill:black;font-family:sans-serif;font-size:13;text-anchor:middle;" transform="matrix(1 0 0 1 1449.84 322)">Regular</text>
  <text style="stroke:none;fill:black;font-family:sans-serif;font-size:13;text-anchor:middle;" transform="matrix(1 0 0 1 1746.56 322)">Medium</text>
  <text style="stroke:none;fill:black;font-family:sans-serif;font-size:13;text-anchor:middle;" transform="matrix(1 0 0 1 2043.27 322)">Semibold</text>
  <text style="stroke:none;fill:black;font-family:sans-serif;font-size:13;text-anchor:middle;" transform="matrix(1 0 0 1 2339.98 322)">Bold</text>
  <text style="stroke:none;fill:black;font-family:sans-serif;font-size:13;text-anchor:middle;" transform="matrix(1 0 0 1 2636.69 322)">Heavy</text>
  <text style="stroke:none;fill:black;font-family:sans-serif;font-size:13;text-anchor:middle;" transform="matrix(1 0 0 1 2933.4 322)">Black</text>
  <line style="fill:none;stroke:black;opacity:1;stroke-width:0.5;" x1="263" x2="3036" y1="1903" y2="1903"/>
  <g transform="matrix(1 0 0 1 263 1933)">
   <path d="M9.24805 0.830078C13.5547 0.830078 17.1387-2.74414 17.1387-7.05078C17.1387-11.3574 13.5449-14.9316 9.23828-14.9316C4.94141-14.9316 1.36719-11.3574 1.36719-7.05078C1.36719-2.74414 4.95117 0.830078 9.24805 0.830078ZM9.24805-0.654297C5.70312-0.654297 2.87109-3.49609 2.87109-7.05078C2.87109-10.6055 5.69336-13.4473 9.23828-13.4473C12.793-13.4473 15.6445-10.6055 15.6445-7.05078C15.6445-3.49609 12.8027-0.654297 9.24805-0.654297ZM5.6543-7.05078C5.6543-6.62109 5.95703-6.32812 6.40625-6.32812L8.50586-6.32812L8.50586-4.20898C8.50586-3.76953 8.79883-3.4668 9.22852-3.4668C9.67773-3.4668 9.9707-3.76953 9.9707-4.20898L9.9707-6.32812L12.0898-6.32812C12.5293-6.32812 12.832-6.62109 12.832-7.05078C12.832-7.49023 12.5293-7.79297 12.0898-7.79297L9.9707-7.79297L9.9707-9.90234C9.9707-10.3516 9.67773-10.6543 9.22852-10.6543C8.79883-10.6543 8.50586-10.3516 8.50586-9.90234L8.50586-7.79297L6.40625-7.79297C5.95703-7.79297 5.6543-7.49023 5.6543-7.05078Z"/>
  </g>
  <g transform="matrix(1 0 0 1 281.867 1933)">
   <path d="M11.709 2.91016C17.1582 2.91016 21.6699-1.61133 21.6699-7.05078C21.6699-12.5 17.1484-17.0117 11.6992-17.0117C6.25977-17.0117 1.74805-12.5 1.74805-7.05078C1.74805-1.61133 6.26953 2.91016 11.709 2.91016ZM11.709 1.25C7.09961 1.25 3.41797-2.44141 3.41797-7.05078C3.41797-11.6602 7.08984-15.3516 11.6992-15.3516C16.3086-15.3516 20.0098-11.6602 20.0098-7.05078C20.0098-2.44141 16.3184 1.25 11.709 1.25ZM7.17773-7.05078C7.17773-6.57227 7.50977-6.25 8.00781-6.25L10.8789-6.25L10.8789-3.36914C10.8789-2.88086 11.2109-2.53906 11.6895-2.53906C12.1777-2.53906 12.5195-2.87109 12.5195-3.36914L12.5195-6.25L15.4004-6.25C15.8887-6.25 16.2305-6.57227 16.2305-7.05078C16.2305-7.53906 15.8887-7.88086 15.4004-7.88086L12.5195-7.88086L12.5195-10.752C12.5195-11.25 12.1777-11.5918 11.6895-11.5918C11.2109-11.5918 10.8789-11.25 10.8789-10.752L10.8789-7.88086L8.00781-7.88086C7.50977-7.88086 7.17773-7.53906 7.17773-7.05078Z"/>
  </g>
  <g transform="matrix(1 0 0 1 305.646 1933)">
   <path d="M14.9707 5.66406C21.9336 5.66406 27.6953-0.0976562 27.6953-7.05078C27.6953-14.0137 21.9238-19.7754 14.9609-19.7754C8.00781-19.7754 2.25586-14.0137 2.25586-7.05078C2.25586-0.0976562 8.01758 5.66406 14.9707 5.66406ZM14.9707 3.84766C8.93555 3.84766 4.08203-1.01562 4.08203-7.05078C4.08203-13.0957 8.92578-17.9492 14.9609-17.9492C21.0059-17.9492 25.8691-13.0957 25.8691-7.05078C25.8691-1.01562 21.0156 3.84766 14.9707 3.84766ZM9.19922-7.05078C9.19922-6.5332 9.57031-6.17188 10.1172-6.17188L14.0625-6.17188L14.0625-2.2168C14.0625-1.67969 14.4336-1.29883 14.9512-1.29883C15.4883-1.29883 15.8594-1.66992 15.8594-2.2168L15.8594-6.17188L19.8145-6.17188C20.3516-6.17188 20.7324-6.5332 20.7324-7.05078C20.7324-7.59766 20.3613-7.96875 19.8145-7.96875L15.8594-7.96875L15.8594-11.9141C15.8594-12.4609 15.4883-12.8418 14.9512-12.8418C14.4336-12.8418 14.0625-12.4609 14.0625-11.9141L14.0625-7.96875L10.1172-7.96875C9.57031-7.96875 9.19922-7.59766 9.19922-7.05078Z"/>
  </g>
  <text style="stroke:none;fill:black;font-family:sans-serif;font-size:13;font-weight:bold;" transform="matrix(1 0 0 1 263 1953)">Design Variations</text>
  <text style="stroke:none;fill:black;font-family:sans-serif;font-size:13;" transform="matrix(1 0 0 1 263 1971)">Symbols are supported in up to nine weights and three scales.</text>
  <text style="stroke:none;fill:black;font-family:sans-serif;font-size:13;" transform="matrix(1 0 0 1 263 1989)">For optimal layout with text and other symbols, vertically align</text>
  <text style="stroke:none;fill:black;font-family:sans-serif;font-size:13;" transform="matrix(1 0 0 1 263 2007)">symbols with the adjacent text.</text>
  <line style="fill:none;stroke:#00AEEF;stroke-width:0.5;opacity:1.0;" x1="776" x2="776" y1="1919" y2="1933"/>
  <g transform="matrix(1 0 0 1 776 1933)">
   <path d="M3.31055 0.15625C3.82812 0.15625 4.08203-0.0390625 4.26758-0.585938L5.52734-4.0332L11.2891-4.0332L12.5488-0.585938C12.7344-0.0390625 12.9883 0.15625 13.4961 0.15625C14.0137 0.15625 14.3457-0.15625 14.3457-0.644531C14.3457-0.810547 14.3164-0.966797 14.2383-1.17188L9.6582-13.3691C9.43359-13.9648 9.0332-14.2676 8.4082-14.2676C7.80273-14.2676 7.39258-13.9746 7.17773-13.3789L2.59766-1.16211C2.51953-0.957031 2.49023-0.800781 2.49023-0.634766C2.49023-0.146484 2.80273 0.15625 3.31055 0.15625ZM6.00586-5.51758L8.37891-12.0898L8.42773-12.0898L10.8008-5.51758Z"/>
  </g>
  <line style="fill:none;stroke:#00AEEF;stroke-width:0.5;opacity:1.0;" x1="793.197" x2="793.197" y1="1919" y2="1933"/>
  <text style="stroke:none;fill:black;font-family:sans-serif;font-size:13;font-weight:bold;" transform="matrix(1 0 0 1 776 1953)">Margins</text>
  <text style="stroke:none;fill:black;font-family:sans-serif;font-size:13;" transform="matrix(1 0 0 1 776 1971)">Leading and trailing margins on the left and right side of each symbol</text>
  <text style="stroke:none;fill:black;font-family:sans-serif;font-size:13;" transform="matrix(1 0 0 1 776 1989)">can be adjusted by modifying the x-location of the margin guidelines.</text>
  <text style="stroke:none;fill:black;font-family:sans-serif;font-size:13;" transform="matrix(1 0 0 1 776 2007)">Modifications are automatically applied proportionally to all</text>
  <text style="stroke:none;fill:black;font-family:sans-serif;font-size:13;" transform="matrix(1 0 0 1 776 2025)">scales and weights.</text>
  <g transform="matrix(1 0 0 1 1289 1933)">
   <path d="M2.8418 1.86523L4.54102 3.57422C5.40039 4.44336 6.38672 4.38477 7.31445 3.35938L18.0078-8.42773L17.041-9.4043L6.42578 2.27539C6.07422 2.67578 5.74219 2.77344 5.27344 2.30469L4.10156 1.14258C3.63281 0.683594 3.74023 0.341797 4.14062-0.0195312L15.6152-10.8203L14.6387-11.7871L3.04688-0.898438C2.06055 0.0195312 1.98242 0.996094 2.8418 1.86523ZM9.25781-16.3281C8.83789-15.918 8.80859-15.3418 9.04297-14.9512C9.27734-14.5898 9.73633-14.3555 10.3809-14.5215C11.8457-14.8633 13.3691-14.9219 14.7949-13.9844L14.209-12.5293C13.8672-11.6992 14.043-11.1133 14.5801-10.5664L16.875-8.25195C17.3633-7.76367 17.7734-7.74414 18.3398-7.8418L19.4043-8.03711L20.0684-7.36328L20.0293-6.80664C19.9902-6.30859 20.1172-5.92773 20.6055-5.44922L21.3672-4.70703C21.8457-4.22852 22.4609-4.19922 22.9297-4.66797L25.8398-7.58789C26.3086-8.05664 26.2891-8.65234 25.8105-9.13086L25.0391-9.89258C24.5605-10.3711 24.1895-10.5273 23.7109-10.4883L23.1348-10.4395L22.4902-11.0742L22.7344-12.1973C22.8613-12.7637 22.7051-13.2031 22.1191-13.7891L19.9219-15.9766C16.582-19.2969 12.1484-19.2188 9.25781-16.3281ZM10.752-15.957C13.1836-17.7344 16.4746-17.4316 18.7012-15.2051L21.1328-12.793C21.3672-12.5586 21.4062-12.373 21.3379-12.0312L21.0156-10.5469L22.5195-9.0625L23.5059-9.12109C23.7598-9.13086 23.8379-9.11133 24.0332-8.91602L24.6094-8.33984L22.168-5.89844L21.5918-6.47461C21.3965-6.66992 21.3672-6.74805 21.377-7.01172L21.4453-7.98828L19.9512-9.47266L18.4277-9.21875C18.1055-9.15039 17.959-9.17969 17.7148-9.41406L15.7129-11.416C15.459-11.6504 15.4297-11.8164 15.5859-12.1875L16.4648-14.2773C14.9023-15.7324 12.8711-16.3574 10.8398-15.7617C10.6836-15.7227 10.625-15.8496 10.752-15.957Z"/>
  </g>
  <text style="stroke:none;fill:black;font-family:sans-serif;font-size:13;font-weight:bold;" transform="matrix(1 0 0 1 1289 1953)">Exporting</text>
  <text style="stroke:none;fill:black;font-family:sans-serif;font-size:13;" transform="matrix(1 0 0 1 1289 1971)">Symbols should be outlined when exporting to ensure the</text>
  <text style="stroke:none;fill:black;font-family:sans-serif;font-size:13;" transform="matrix(1 0 0 1 1289 1989)">design is preserved when submitting to Xcode.</text>
  <text id="template-version" style="stroke:none;fill:black;font-family:sans-serif;font-size:13;text-anchor:end;" transform="matrix(1 0 0 1 3036 1933)">Template v.2.0</text>
  <text style="stroke:none;fill:black;font-family:sans-serif;font-size:13;text-anchor:end;" transform="matrix(1 0 0 1 3036 1951)">Requires Xcode 12 or greater</text>
  <text id="descriptive-name" style="stroke:none;fill:black;font-family:sans-serif;font-size:13;text-anchor:end;" transform="matrix(1 0 0 1 3036 1969)">Generated from dino.cr</text>
  <text style="stroke:none;fill:black;font-family:sans-serif;font-size:13;text-anchor:end;" transform="matrix(1 0 0 1 3036 1987)">Typeset at 100 points</text>
  <text style="stroke:none;fill:black;font-family:sans-serif;font-size:13;" transform="matrix(1 0 0 1 263 726)">Small</text>
  <text style="stroke:none;fill:black;font-family:sans-serif;font-size:13;" transform="matrix(1 0 0 1 263 1156)">Medium</text>
  <text style="stroke:none;fill:black;font-family:sans-serif;font-size:13;" transform="matrix(1 0 0 1 263 1586)">Large</text>
 </g>
 <g id="Guides">
  <g id="H-reference" style="fill:#27AAE1;stroke:none;" transform="matrix(1 0 0 1 339 696)">
   <path d="M0.993654 0L3.63775 0L29.3281-67.1323L30.0303-67.1323L30.0303-70.459L28.1226-70.459ZM11.6885-24.4799L46.9815-24.4799L46.2315-26.7285L12.4385-26.7285ZM55.1196 0L57.7637 0L30.6382-70.459L29.4326-70.459L29.4326-67.1323Z"/>
  </g>
  <line id="Baseline-S" style="fill:none;stroke:#27AAE1;opacity:1;stroke-width:0.5;" x1="263" x2="3036" y1="696" y2="696"/>
  <line id="Capline-S" style="fill:none;stroke:#27AAE1;opacity:1;stroke-width:0.5;" x1="263" x2="3036" y1="625.541" y2="625.541"/>
  <g id="H-reference" style="fill:#27AAE1;stroke:none;" transform="matrix(1 0 0 1 339 1126)">
   <path d="M0.993654 0L3.63775 0L29.3281-67.1323L30.0303-67.1323L30.0303-70.459L28.1226-70.459ZM11.6885-24.4799L46.9815-24.4799L46.2315-26.7285L12.4385-26.7285ZM55.1196 0L57.7637 0L30.6382-70.459L29.4326-70.459L29.4326-67.1323Z"/>
  </g>
  <line id="Baseline-M" style="fill:none;stroke:#27AAE1;opacity:1;stroke-width:0.5;" x1="263" x2="3036" y1="1126" y2="1126"/>
  <line id="Capline-M" style="fill:none;stroke:#27AAE1;opacity:1;stroke-width:0.5;" x1="263" x2="3036" y1="1055.54" y2="1055.54"/>
  <g id="H-reference" style="fill:#27AAE1;stroke:none;" transform="matrix(1 0 0 1 339 1556)">
   <path d="M0.993654 0L3.63775 0L29.3281-67.1323L30.0303-67.1323L30.0303-70.459L28.1226-70.459ZM11.6885-24.4799L46.9815-24.4799L46.2315-26.7285L12.4385-26.7285ZM55.1196 0L57.7637 0L30.6382-70.459L29.4326-70.459L29.4326-67.1323Z"/>
  </g>
  <line id="Baseline-L" style="fill:none;stroke:#27AAE1;opacity:1;stroke-width:0.5;" x1="263" x2="3036" y1="1556" y2="1556"/>
  <line id="Capline-L" style="fill:none;stroke:#27AAE1;opacity:1;stroke-width:0.5;" x1="263" x2="3036" y1="1485.54" y2="1485.54"/>
  <line id="left-margin" style="fill:none;stroke:#00AEEF;stroke-width:0.5;opacity:1.0;" x1="1389.97" x2="1389.97" y1="1030.79" y2="1150.12"/>
  <line id="right-margin" style="fill:none;stroke:#00AEEF;stroke-width:0.5;opacity:1.0;" x1="1509.72" x2="1509.72" y1="1030.79" y2="1150.12"/>
 </g>
 <g id="Symbols">
  <g id="Black-L" transform="matrix(1 0 0 1 2853.87 1556)">
   <path d="M46.15 43.34L46.15 16.09L39.38 16.09L39.38 9.15L32.6 9.15L32.6 2.38L25.83 2.38L25.83-4.39L18.9-4.39L18.9-11.16L11.96-11.16L11.96-52.12L18.73-52.12L18.73-38.41L25.67-38.41L25.67-31.64L32.6-31.64L32.6-24.87L46.15-24.87L46.15-31.64L52.76-31.64L52.92-38.41L65.34-38.41L65.34-45.35L77.59-45.35L77.59-52.12L84.36-52.12L84.36-94.37L91.14-94.37L91.14-101.14L141.61-101.14L141.61-94.37L148.54-94.37L148.54-65.67L114.36-65.67L114.36-58.89L134.83-58.89L134.83-52.12L107.42-52.12L107.42-38.58L121.13-38.58L121.13-24.87L114.36-24.87L114.36-31.64L107.42-31.64L107.42-9.87L100.65-9.87L100.65-1.65L93.88-1.65L93.88 5.28L87.11 5.28L87.11 36.57L93.88 36.57L93.88 43.34L80.17 43.34L80.17 23.02L73.4 23.02L73.4 16.09L66.63 16.09L66.63 23.02L59.85 23.02L59.85 29.79L53.08 29.79L53.08 36.57L59.85 36.57L59.85 43.34L46.15 43.34ZM93.39-83.56L100.17-83.56L100.17-90.34L93.39-90.34L93.39-83.56ZM5.19 24.96L32.6 24.96L32.6 21.57L5.19 21.57L5.19 24.96ZM100.65 24.96L154.51 24.96L154.51 21.57L100.65 21.57L100.65 24.96ZM25.67 38.66L39.38 38.66L39.38 35.12L25.67 35.12L25.67 38.66ZM5.19 48.82L18.73 48.82L18.73 45.44L5.19 45.44L5.19 48.82ZM144.99 45.44L148.54 45.44L148.54 42.05L144.99 42.05L144.99 45.44Z"/>
  </g>
  <g id="Heavy-L" transform="matrix(1 0 0 1 2557.16 1556)">
   <path d="M46.14 43.34L46.14 16.09L39.37 16.09L39.37 9.15L32.6 9.15L32.6 2.38L25.83 2.38L25.83-4.39L18.89-4.39L18.89-11.16L11.96-11.16L11.96-52.12L18.73-52.12L18.73-38.41L25.66-38.41L25.66-31.64L32.6-31.64L32.6-24.87L46.14-24.87L46.14-31.64L52.75-31.64L52.92-38.41L65.33-38.41L65.33-45.35L77.59-45.35L77.59-52.12L84.36-52.12L84.36-94.37L91.13-94.37L91.13-101.14L141.6-101.14L141.6-94.37L148.54-94.37L148.54-65.67L114.35-65.67L114.35-58.89L134.83-58.89L134.83-52.12L107.42-52.12L107.42-38.58L121.12-38.58L121.12-24.87L114.35-24.87L114.35-31.64L107.42-31.64L107.42-9.87L100.65-9.87L100.65-1.65L93.87-1.65L93.87 5.28L87.1 5.28L87.1 36.57L93.87 36.57L93.87 43.34L80.17 43.34L80.17 23.02L73.39 23.02L73.39 16.09L66.62 16.09L66.62 23.02L59.85 23.02L59.85 29.79L53.08 29.79L53.08 36.57L59.85 36.57L59.85 43.34L46.14 43.34ZM93.39-83.56L100.16-83.56L100.16-90.34L93.39-90.34L93.39-83.56ZM5.19 24.96L32.6 24.96L32.6 21.57L5.19 21.57L5.19 24.96ZM100.65 24.96L154.5 24.96L154.5 21.57L100.65 21.57L100.65 24.96ZM25.66 38.66L39.37 38.66L39.37 35.12L25.66 35.12L25.66 38.66ZM5.19 48.82L18.73 48.82L18.73 45.44L5.19 45.44L5.19 48.82ZM144.99 45.44L148.54 45.44L148.54 42.05L144.99 42.05L144.99 45.44Z"/>
  </g>
  <g id="Bold-L" transform="matrix(1 0 0 1 2260.45 1556)">
   <path d="M46.14 41.34L46.14 14.09L39.37 14.09L39.37 7.15L32.6 7.15L32.6 0.38L25.83 0.38L25.83-6.39L18.89-6.39L18.89-13.16L11.96-13.16L11.96-54.12L18.73-54.12L18.73-40.41L25.66-40.41L25.66-33.64L32.6-33.64L32.6-26.87L46.14-26.87L46.14-33.64L52.75-33.64L52.92-40.41L65.33-40.41L65.33-47.35L77.59-47.35L77.59-54.12L84.36-54.12L84.36-96.37L91.13-96.37L91.13-103.14L141.6-103.14L141.6-96.37L148.54-96.37L148.54-67.67L114.35-67.67L114.35-60.89L134.83-60.89L134.83-54.12L107.42-54.12L107.42-40.58L121.12-40.58L121.12-26.87L114.35-26.87L114.35-33.64L107.42-33.64L107.42-11.87L100.65-11.87L100.65-3.65L93.87-3.65L93.87 3.28L87.1 3.28L87.1 34.57L93.87 34.57L93.87 41.34L80.17 41.34L80.17 21.02L73.39 21.02L73.39 14.09L66.62 14.09L66.62 21.02L59.85 21.02L59.85 27.79L53.08 27.79L53.08 34.57L59.85 34.57L59.85 41.34L46.14 41.34ZM93.39-85.56L100.16-85.56L100.16-92.34L93.39-92.34L93.39-85.56ZM5.19 22.96L32.6 22.96L32.6 19.57L5.19 19.57L5.19 22.96ZM100.65 22.96L154.5 22.96L154.5 19.57L100.65 19.57L100.65 22.96ZM25.66 36.66L39.37 36.66L39.37 33.12L25.66 33.12L25.66 36.66ZM5.19 46.82L18.73 46.82L18.73 43.44L5.19 43.44L5.19 46.82ZM144.99 43.44L148.54 43.44L148.54 40.05L144.99 40.05L144.99 43.44Z"/>
  </g>
  <g id="Semibold-L" transform="matrix(1 0 0 1 1965.35 1556)">
   <path d="M45.18 40.69L45.18 14.08L38.57 14.08L38.57 7.31L31.96 7.31L31.96 0.7L25.18 0.7L25.18-5.92L18.57-5.92L18.57-12.69L11.8-12.69L11.8-52.52L18.41-52.52L18.41-39.29L25.18-39.29L25.18-32.52L31.8-32.52L31.8-25.91L45.18-25.91L45.18-32.52L51.63-32.52L51.79-39.29L62.92-39.29L62.92-45.91L74.2-45.91L74.2-52.52L80.82-52.52L80.82-94.76L87.43-94.76L87.43-101.38L138.38-101.38L138.38-94.76L145.16-94.76L145.16-65.9L111.78-65.9L111.78-59.29L131.77-59.29L131.77-52.52L105-52.52L105-39.29L118.39-39.29L118.39-25.91L111.78-25.91L111.78-32.52L105-32.52L105-10.43L98.39-10.43L98.39-1.56L91.78-1.56L91.78 5.05L85.17 5.05L85.17 34.07L91.78 34.07L91.78 40.69L78.4 40.69L78.4 20.69L71.79 20.69L71.79 14.08L65.18 14.08L65.18 20.69L58.56 20.69L58.56 27.3L51.79 27.3L51.79 34.07L58.56 34.07L58.56 40.69L45.18 40.69ZM91.46-84.44L98.07-84.44L98.07-91.06L91.46-91.06L91.46-84.44ZM5.19 21.82L31.96 21.82L31.96 18.43L5.19 18.43L5.19 21.82ZM98.39 21.82L151.28 21.82L151.28 18.43L98.39 18.43L98.39 21.82ZM25.18 35.2L38.57 35.2L38.57 31.82L25.18 31.82L25.18 35.2ZM5.19 45.2L18.41 45.2L18.41 41.82L5.19 41.82L5.19 45.2ZM141.77 41.82L145.16 41.82L145.16 38.43L141.77 38.43L141.77 41.82Z"/>
  </g>
  <g id="Medium-L" transform="matrix(1 0 0 1 1669.77 1556)">
   <path d="M44.53 40.05L44.53 13.93L37.92 13.93L37.92 7.48L31.47 7.48L31.47 0.87L24.86 0.87L24.86-5.58L18.41-5.58L18.41-12.19L11.8-12.19L11.8-51.38L18.41-51.38L18.41-38.32L24.86-38.32L24.86-31.87L31.47-31.87L31.47-25.26L44.53-25.26L44.53-31.87L50.98-31.87L50.98-38.32L61.3-38.32L61.3-44.93L71.62-44.93L71.62-51.38L78.23-51.38L78.23-93.46L84.68-93.46L84.68-99.91L136.12-99.91L136.12-93.46L142.57-93.46L142.57-64.44L109.84-64.44L109.84-57.99L129.51-57.99L129.51-51.38L103.39-51.38L103.39-38.32L116.45-38.32L116.45-25.26L109.84-25.26L109.84-31.87L103.39-31.87L103.39-9.45L96.78-9.45L96.78-0.1L90.33-0.1L90.33 6.51L83.72 6.51L83.72 33.6L90.33 33.6L90.33 40.05L77.11 40.05L77.11 20.54L70.66 20.54L70.66 13.93L64.21 13.93L64.21 20.54L57.59 20.54L57.59 26.99L50.98 26.99L50.98 33.6L57.59 33.6L57.59 40.05L44.53 40.05ZM90.17-83.47L96.62-83.47L96.62-90.08L90.17-90.08L90.17-83.47ZM5.19 21.02L31.47 21.02L31.47 17.8L5.19 17.8L5.19 21.02ZM96.78 21.02L149.02 21.02L149.02 17.8L96.78 17.8L96.78 21.02ZM24.86 34.08L37.92 34.08L37.92 30.86L24.86 30.86L24.86 34.08ZM5.19 43.92L18.25 43.92L18.25 40.7L5.19 40.7L5.19 43.92ZM139.35 40.7L142.57 40.7L142.57 37.31L139.35 37.31L139.35 40.7Z"/>
  </g>
  <g id="Regular-L" transform="matrix(1 0 0 1 1374.02 1556)">
   <path d="M43.89 39.72L43.89 13.92L37.44 13.92L37.44 7.47L30.99 7.47L30.99 1.02L24.54 1.02L24.54-5.43L18.09-5.43L18.09-11.88L11.64-11.88L11.64-50.58L18.09-50.58L18.09-37.68L24.54-37.68L24.54-31.23L30.99-31.23L30.99-24.78L43.89-24.78L43.89-31.23L50.34-31.23L50.34-37.68L60.01-37.68L60.01-44.13L69.69-44.13L69.69-50.58L76.14-50.58L76.14-92.5L82.59-92.5L82.59-98.95L134.19-98.95L134.19-92.5L140.64-92.5L140.64-63.48L108.39-63.48L108.39-57.03L127.74-57.03L127.74-50.58L101.94-50.58L101.94-37.68L114.84-37.68L114.84-24.78L108.39-24.78L108.39-31.23L101.94-31.23L101.94-8.65L95.49-8.65L95.49 1.02L89.04 1.02L89.04 7.47L82.59 7.47L82.59 33.27L89.04 33.27L89.04 39.72L76.14 39.72L76.14 20.37L69.69 20.37L69.69 13.92L63.24 13.92L63.24 20.37L56.79 20.37L56.79 26.82L50.34 26.82L50.34 33.27L56.79 33.27L56.79 39.72L43.89 39.72ZM89.04-82.83L95.49-82.83L95.49-89.28L89.04-89.28L89.04-82.83ZM5.19 20.37L30.99 20.37L30.99 17.15L5.19 17.15L5.19 20.37ZM95.49 20.37L147.09 20.37L147.09 17.15L95.49 17.15L95.49 20.37ZM24.54 33.27L37.44 33.27L37.44 30.05L24.54 30.05L24.54 33.27ZM5.19 42.95L18.09 42.95L18.09 39.72L5.19 39.72L5.19 42.95ZM137.41 39.72L140.64 39.72L140.64 36.5L137.41 36.5L137.41 39.72Z"/>
  </g>
  <g id="Light-L" transform="matrix(1 0 0 1 1082.79 1556)">
   <path d="M40.82 34.56L40.82 10.7L34.86 10.7L34.86 4.73L29.05 4.73L29.05-1.23L23.09-1.23L23.09-7.2L17.12-7.2L17.12-13.17L11.15-13.17L11.15-48.8L17.12-48.8L17.12-36.87L23.09-36.87L23.09-30.9L29.05-30.9L29.05-25.1L40.82-25.1L40.82-30.9L46.79-30.9L46.79-36.87L55.82-36.87L55.82-42.84L64.69-42.84L64.69-48.8L70.65-48.8L70.65-87.5L76.62-87.5L76.62-93.47L124.19-93.47L124.19-87.5L130.16-87.5L130.16-60.73L100.49-60.73L100.49-54.77L118.22-54.77L118.22-48.8L94.52-48.8L94.52-36.87L106.45-36.87L106.45-25.1L100.49-25.1L100.49-30.9L94.52-30.9L94.52-10.1L88.55-10.1L88.55-1.23L82.59-1.23L82.59 4.73L76.62 4.73L76.62 28.6L82.59 28.6L82.59 34.56L70.65 34.56L70.65 16.67L64.69 16.67L64.69 10.7L58.72 10.7L58.72 16.67L52.76 16.67L52.76 22.63L46.79 22.63L46.79 28.6L52.76 28.6L52.76 34.56L40.82 34.56ZM82.59-78.63L88.55-78.63L88.55-84.6L82.59-84.6L82.59-78.63ZM5.19 16.67L29.05 16.67L29.05 13.6L5.19 13.6L5.19 16.67ZM88.55 16.67L136.12 16.67L136.12 13.6L88.55 13.6L88.55 16.67ZM23.09 28.6L34.86 28.6L34.86 25.53L23.09 25.53L23.09 28.6ZM5.19 37.47L17.12 37.47L17.12 34.56L5.19 34.56L5.19 37.47ZM127.25 34.56L130.16 34.56L130.16 31.5L127.25 31.5L127.25 34.56Z"/>
  </g>
  <g id="Thin-L" transform="matrix(1 0 0 1 791.562 1556)">
   <path d="M37.924 29.24L37.924 7.48L32.441 7.48L32.441 1.99L26.959 1.99L26.959-3.49L21.476-3.49L21.476-8.97L15.994-8.97L15.994-14.29L10.673-14.29L10.673-47.03L15.994-47.03L15.994-36.22L21.476-36.22L21.476-30.74L26.959-30.74L26.959-25.26L37.924-25.26L37.924-30.74L43.406-30.74L43.406-36.22L51.469-36.22L51.469-41.71L59.693-41.71L59.693-47.03L65.175-47.03L65.175-82.5L70.658-82.5L70.658-87.98L114.356-87.98L114.356-82.5L119.678-82.5L119.678-57.99L92.426-57.99L92.426-52.51L108.874-52.51L108.874-47.03L86.944-47.03L86.944-36.22L97.909-36.22L97.909-25.26L92.426-25.26L92.426-30.74L86.944-30.74L86.944-11.55L81.623-11.55L81.623-3.49L76.14-3.49L76.14 1.99L70.658 1.99L70.658 23.92L76.14 23.92L76.14 29.24L65.175 29.24L65.175 12.96L59.693 12.96L59.693 7.48L54.21 7.48L54.21 12.96L48.728 12.96L48.728 18.44L43.406 18.44L43.406 23.92L48.728 23.92L48.728 29.24L37.924 29.24ZM76.14-74.44L81.623-74.44L81.623-79.92L76.14-79.92L76.14-74.44ZM5.19 12.96L26.959 12.96L26.959 10.22L5.19 10.22L5.19 12.96ZM81.623 12.96L125.16 12.96L125.16 10.22L81.623 10.22L81.623 12.96ZM21.476 23.92L32.441 23.92L32.441 21.18L21.476 21.18L21.476 23.92ZM5.19 31.99L15.994 31.99L15.994 29.24L5.19 29.24L5.19 31.99ZM117.098 29.24L119.678 29.24L119.678 26.5L117.098 26.5L117.098 29.24Z"/>
  </g>
  <g id="Ultralight-L" transform="matrix(1 0 0 1 498.076 1556)">
   <path d="M36.15 26.18L36.15 5.54L30.99 5.54L30.99 0.38L25.83 0.38L25.83-4.78L20.67-4.78L20.67-9.94L15.51-9.94L15.51-15.1L10.35-15.1L10.35-46.06L15.51-46.06L15.51-35.74L20.67-35.74L20.67-30.58L25.83-30.58L25.83-25.42L36.15-25.42L36.15-30.58L41.31-30.58L41.31-35.74L49.05-35.74L49.05-40.9L56.79-40.9L56.79-46.06L61.95-46.06L61.95-79.6L67.11-79.6L67.11-84.76L108.39-84.76L108.39-79.6L113.55-79.6L113.55-56.38L87.75-56.38L87.75-51.22L103.23-51.22L103.23-46.06L82.59-46.06L82.59-35.74L92.91-35.74L92.91-25.42L87.75-25.42L87.75-30.58L82.59-30.58L82.59-12.52L77.43-12.52L77.43-4.78L72.27-4.78L72.27 0.38L67.11 0.38L67.11 21.02L72.27 21.02L72.27 26.18L61.95 26.18L61.95 10.7L56.79 10.7L56.79 5.54L51.63 5.54L51.63 10.7L46.47 10.7L46.47 15.86L41.31 15.86L41.31 21.02L46.47 21.02L46.47 26.18L36.15 26.18ZM72.27-71.86L77.43-71.86L77.43-77.02L72.27-77.02L72.27-71.86ZM5.19 10.7L25.83 10.7L25.83 8.12L5.19 8.12L5.19 10.7ZM77.43 10.7L118.71 10.7L118.71 8.12L77.43 8.12L77.43 10.7ZM20.67 21.02L30.99 21.02L30.99 18.44L20.67 18.44L20.67 21.02ZM5.19 28.76L15.51 28.76L15.51 26.18L5.19 26.18L5.19 28.76ZM110.97 26.18L113.55 26.18L113.55 23.6L110.97 23.6L110.97 26.18Z"/>
  </g>
  <g id="Black-M" transform="matrix(1 0 0 1 2869.65 1126)">
   <path d="M37.57 21.52L37.57 0.02L32.19 0.02L32.19-5.48L26.81-5.48L26.81-10.86L21.44-10.86L21.44-16.23L16.07-16.23L16.07-21.61L10.57-21.61L10.57-53.86L15.94-53.86L15.94-43.11L21.44-43.11L21.44-37.73L26.81-37.73L26.81-32.36L37.57-32.36L37.57-37.73L42.69-37.73L42.94-43.11L53.19-43.11L53.19-48.48L63.31-48.48L63.31-53.86L68.69-53.86L68.69-86.73L74.07-86.73L74.07-92.11L112.94-92.11L112.94-86.73L118.31-86.73L118.31-64.61L91.31-64.61L91.31-59.23L107.57-59.23L107.57-53.86L85.94-53.86L85.94-43.11L96.69-43.11L96.69-32.36L91.31-32.36L91.31-37.73L85.94-37.73L85.94-20.98L80.57-20.98L80.57-14.98L75.19-14.98L75.19-9.61L69.81-9.61L69.81 16.14L75.19 16.14L75.19 21.52L64.44 21.52L64.44 5.39L59.07 5.39L59.07 0.02L53.69 0.02L53.69 5.39L48.31 5.39L48.31 10.77L42.94 10.77L42.94 16.14L48.31 16.14L48.31 21.52L37.57 21.52ZM74.69-77.98L80.07-77.98L80.07-83.36L74.69-83.36L74.69-77.98ZM5.19 7.39L26.81 7.39L26.81 4.77L5.19 4.77L5.19 7.39ZM80.57 7.39L122.94 7.39L122.94 4.77L80.57 4.77L80.57 7.39ZM21.44 18.27L32.19 18.27L32.19 15.52L21.44 15.52L21.44 18.27ZM5.19 26.27L15.94 26.27L15.94 23.64L5.19 23.64L5.19 26.27ZM115.57 23.64L118.31 23.64L118.31 20.89L115.57 20.89L115.57 23.64Z"/>
  </g>
  <g id="Heavy-M" transform="matrix(1 0 0 1 2572.94 1126)">
   <path d="M37.57 21.52L37.57 0.02L32.19 0.02L32.19-5.48L26.81-5.48L26.81-10.86L21.44-10.86L21.44-16.23L16.07-16.23L16.07-21.61L10.57-21.61L10.57-53.86L15.94-53.86L15.94-43.11L21.44-43.11L21.44-37.73L26.81-37.73L26.81-32.36L37.57-32.36L37.57-37.73L42.69-37.73L42.94-43.11L53.19-43.11L53.19-48.48L63.31-48.48L63.31-53.86L68.69-53.86L68.69-86.73L74.07-86.73L74.07-92.11L112.94-92.11L112.94-86.73L118.31-86.73L118.31-64.61L91.31-64.61L91.31-59.23L107.57-59.23L107.57-53.86L85.94-53.86L85.94-43.11L96.69-43.11L96.69-32.36L91.31-32.36L91.31-37.73L85.94-37.73L85.94-20.98L80.57-20.98L80.57-14.98L75.19-14.98L75.19-9.61L69.81-9.61L69.81 16.14L75.19 16.14L75.19 21.52L64.44 21.52L64.44 5.39L59.07 5.39L59.07 0.02L53.69 0.02L53.69 5.39L48.31 5.39L48.31 10.77L42.94 10.77L42.94 16.14L48.31 16.14L48.31 21.52L37.57 21.52ZM74.69-77.98L80.07-77.98L80.07-83.36L74.69-83.36L74.69-77.98ZM5.19 7.39L26.81 7.39L26.81 4.77L5.19 4.77L5.19 7.39ZM80.57 7.39L122.94 7.39L122.94 4.77L80.57 4.77L80.57 7.39ZM21.44 18.27L32.19 18.27L32.19 15.52L21.44 15.52L21.44 18.27ZM5.19 26.27L15.94 26.27L15.94 23.64L5.19 23.64L5.19 26.27ZM115.57 23.64L118.31 23.64L118.31 20.89L115.57 20.89L115.57 23.64Z"/>
  </g>
  <g id="Bold-M" transform="matrix(1 0 0 1 2276.23 1126)">
   <path d="M37.57 21.52L37.57 0.02L32.19 0.02L32.19-5.48L26.82-5.48L26.82-10.86L21.44-10.86L21.44-16.23L16.07-16.23L16.07-21.61L10.57-21.61L10.57-53.86L15.94-53.86L15.94-43.11L21.44-43.11L21.44-37.73L26.82-37.73L26.82-32.36L37.57-32.36L37.57-37.73L42.69-37.73L42.94-43.11L53.19-43.11L53.19-48.48L63.32-48.48L63.32-53.86L68.69-53.86L68.69-86.73L74.07-86.73L74.07-92.11L112.94-92.11L112.94-86.73L118.32-86.73L118.32-64.61L91.32-64.61L91.32-59.23L107.57-59.23L107.57-53.86L85.94-53.86L85.94-43.11L96.69-43.11L96.69-32.36L91.32-32.36L91.32-37.73L85.94-37.73L85.94-20.98L80.57-20.98L80.57-14.98L75.19-14.98L75.19-9.61L69.82-9.61L69.82 16.14L75.19 16.14L75.19 21.52L64.44 21.52L64.44 5.39L59.07 5.39L59.07 0.02L53.69 0.02L53.69 5.39L48.32 5.39L48.32 10.77L42.94 10.77L42.94 16.14L48.32 16.14L48.32 21.52L37.57 21.52ZM74.69-77.98L80.07-77.98L80.07-83.36L74.69-83.36L74.69-77.98ZM5.19 7.39L26.82 7.39L26.82 4.77L5.19 4.77L5.19 7.39ZM80.57 7.39L122.94 7.39L122.94 4.77L80.57 4.77L80.57 7.39ZM21.44 18.27L32.19 18.27L32.19 15.52L21.44 15.52L21.44 18.27ZM5.19 26.27L15.94 26.27L15.94 23.64L5.19 23.64L5.19 26.27ZM115.57 23.64L118.32 23.64L118.32 20.89L115.57 20.89L115.57 23.64Z"/>
  </g>
  <g id="Semibold-M" transform="matrix(1 0 0 1 1981.14 1126)">
   <path d="M36.57 20.77L36.57-0.11L31.44-0.11L31.44-5.36L26.19-5.36L26.19-10.61L20.94-10.61L20.94-15.86L15.69-15.86L15.69-20.98L10.44-20.98L10.44-52.23L15.69-52.23L15.69-41.86L20.94-41.86L20.94-36.61L26.19-36.61L26.19-31.48L36.57-31.48L36.57-36.61L41.69-36.61L41.82-41.86L50.82-41.86L50.82-47.11L59.82-47.11L59.82-52.23L65.07-52.23L65.07-84.98L70.32-84.98L70.32-90.23L109.69-90.23L109.69-84.98L114.82-84.98L114.82-62.73L88.69-62.73L88.69-57.48L104.44-57.48L104.44-52.23L83.44-52.23L83.44-41.86L93.94-41.86L93.94-31.48L88.69-31.48L88.69-36.61L83.44-36.61L83.44-19.61L78.32-19.61L78.32-12.86L73.07-12.86L73.07-7.73L67.82-7.73L67.82 15.52L73.07 15.52L73.07 20.77L62.69 20.77L62.69 5.14L57.44 5.14L57.44-0.11L52.19-0.11L52.19 5.14L47.07 5.14L47.07 10.39L41.82 10.39L41.82 15.52L47.07 15.52L47.07 20.77L36.57 20.77ZM72.82-76.73L78.07-76.73L78.07-81.98L72.82-81.98L72.82-76.73ZM5.19 6.27L26.19 6.27L26.19 3.64L5.19 3.64L5.19 6.27ZM78.32 6.27L119.69 6.27L119.69 3.64L78.32 3.64L78.32 6.27ZM20.94 16.77L31.44 16.77L31.44 14.14L20.94 14.14L20.94 16.77ZM5.19 24.52L15.69 24.52L15.69 22.02L5.19 22.02L5.19 24.52ZM112.19 22.02L114.82 22.02L114.82 19.27L112.19 19.27L112.19 22.02Z"/>
  </g>
  <g id="Medium-M" transform="matrix(1 0 0 1 1685.81 1126)">
   <path d="M35.69 20.14L35.69-0.23L30.57-0.23L30.57-5.23L25.57-5.23L25.57-10.36L20.44-10.36L20.44-15.48L15.32-15.48L15.32-20.61L10.19-20.61L10.19-51.11L15.32-51.11L15.32-40.98L20.44-40.98L20.44-35.86L25.57-35.86L25.57-30.73L35.69-30.73L35.69-35.86L40.69-35.86L40.82-40.98L48.94-40.98L48.94-45.98L57.07-45.98L57.07-51.11L62.19-51.11L62.19-83.73L67.32-83.73L67.32-88.73L106.94-88.73L106.94-83.73L112.07-83.73L112.07-61.23L86.57-61.23L86.57-56.23L101.94-56.23L101.94-51.11L81.57-51.11L81.57-40.98L91.69-40.98L91.69-30.73L86.57-30.73L86.57-35.86L81.57-35.86L81.57-18.48L76.44-18.48L76.44-11.36L71.32-11.36L71.32-6.23L66.19-6.23L66.19 15.14L71.32 15.14L71.32 20.14L61.19 20.14L61.19 4.89L56.07 4.89L56.07-0.23L50.94-0.23L50.94 4.89L45.94 4.89L45.94 10.02L40.82 10.02L40.82 15.14L45.94 15.14L45.94 20.14L35.69 20.14ZM71.19-75.86L76.32-75.86L76.32-80.98L71.19-80.98L71.19-75.86ZM5.19 5.39L25.57 5.39L25.57 2.89L5.19 2.89L5.19 5.39ZM76.44 5.39L116.94 5.39L116.94 2.89L76.44 2.89L76.44 5.39ZM20.44 15.64L30.57 15.64L30.57 13.02L20.44 13.02L20.44 15.64ZM5.19 23.27L15.32 23.27L15.32 20.64L5.19 20.64L5.19 23.27ZM109.57 20.64L112.07 20.64L112.07 18.14L109.57 18.14L109.57 20.64Z"/>
  </g>
  <g id="Regular-M" transform="matrix(1 0 0 1 1389.97 1126)">
   <path d="M35.19 19.77L35.19-0.23L30.19-0.23L30.19-5.23L25.19-5.23L25.19-10.23L20.19-10.23L20.19-15.23L15.19-15.23L15.19-20.23L10.19-20.23L10.19-50.23L15.19-50.23L15.19-40.23L20.19-40.23L20.19-35.23L25.19-35.23L25.19-30.23L35.19-30.23L35.19-35.23L40.19-35.23L40.19-40.23L47.69-40.23L47.69-45.23L55.19-45.23L55.19-50.23L60.19-50.23L60.19-82.73L65.19-82.73L65.19-87.73L105.19-87.73L105.19-82.73L110.19-82.73L110.19-60.23L85.19-60.23L85.19-55.23L100.19-55.23L100.19-50.23L80.19-50.23L80.19-40.23L90.19-40.23L90.19-30.23L85.19-30.23L85.19-35.23L80.19-35.23L80.19-17.73L75.19-17.73L75.19-10.23L70.19-10.23L70.19-5.23L65.19-5.23L65.19 14.77L70.19 14.77L70.19 19.77L60.19 19.77L60.19 4.77L55.19 4.77L55.19-0.23L50.19-0.23L50.19 4.77L45.19 4.77L45.19 9.77L40.19 9.77L40.19 14.77L45.19 14.77L45.19 19.77L35.19 19.77ZM70.19-75.23L75.19-75.23L75.19-80.23L70.19-80.23L70.19-75.23ZM5.19 4.77L25.19 4.77L25.19 2.27L5.19 2.27L5.19 4.77ZM75.19 4.77L115.19 4.77L115.19 2.27L75.19 2.27L75.19 4.77ZM20.19 14.77L30.19 14.77L30.19 12.27L20.19 12.27L20.19 14.77ZM5.19 22.27L15.19 22.27L15.19 19.77L5.19 19.77L5.19 22.27ZM107.69 19.77L110.19 19.77L110.19 17.27L107.69 17.27L107.69 19.77Z"/>
  </g>
  <g id="Light-M" transform="matrix(1 0 0 1 1097.51 1126)">
   <path d="M32.81 15.77L32.81-2.73L28.19-2.73L28.19-7.36L23.69-7.36L23.69-11.98L19.06-11.98L19.06-16.61L14.44-16.61L14.44-21.23L9.81-21.23L9.81-48.86L14.44-48.86L14.44-39.61L19.06-39.61L19.06-34.98L23.69-34.98L23.69-30.48L32.81-30.48L32.81-34.98L37.44-34.98L37.44-39.61L44.44-39.61L44.44-44.23L51.31-44.23L51.31-48.86L55.94-48.86L55.94-78.86L60.56-78.86L60.56-83.48L97.44-83.48L97.44-78.86L102.06-78.86L102.06-58.11L79.06-58.11L79.06-53.48L92.81-53.48L92.81-48.86L74.44-48.86L74.44-39.61L83.69-39.61L83.69-30.48L79.06-30.48L79.06-34.98L74.44-34.98L74.44-18.86L69.81-18.86L69.81-11.98L65.19-11.98L65.19-7.36L60.56-7.36L60.56 11.14L65.19 11.14L65.19 15.77L55.94 15.77L55.94 1.89L51.31 1.89L51.31-2.73L46.69-2.73L46.69 1.89L42.06 1.89L42.06 6.52L37.44 6.52L37.44 11.14L42.06 11.14L42.06 15.77L32.81 15.77ZM65.19-71.98L69.81-71.98L69.81-76.61L65.19-76.61L65.19-71.98ZM5.19 1.89L23.69 1.89L23.69-0.48L5.19-0.48L5.19 1.89ZM69.81 1.89L106.69 1.89L106.69-0.48L69.81-0.48L69.81 1.89ZM19.06 11.14L28.19 11.14L28.19 8.77L19.06 8.77L19.06 11.14ZM5.19 18.02L14.44 18.02L14.44 15.77L5.19 15.77L5.19 18.02ZM99.81 15.77L102.06 15.77L102.06 13.39L99.81 13.39L99.81 15.77Z"/>
  </g>
  <g id="Thin-M" transform="matrix(1 0 0 1 805.047 1126)">
   <path d="M30.565 11.64L30.565-5.23L26.315-5.23L26.315-9.48L22.065-9.48L22.065-13.73L17.815-13.73L17.815-17.98L13.565-17.98L13.565-22.11L9.44-22.11L9.44-47.48L13.565-47.48L13.565-39.11L17.815-39.11L17.815-34.86L22.065-34.86L22.065-30.61L30.565-30.61L30.565-34.86L34.815-34.86L34.815-39.11L41.065-39.11L41.065-43.36L47.44-43.36L47.44-47.48L51.69-47.48L51.69-74.98L55.94-74.98L55.94-79.23L89.815-79.23L89.815-74.98L93.94-74.98L93.94-55.98L72.815-55.98L72.815-51.73L85.565-51.73L85.565-47.48L68.565-47.48L68.565-39.11L77.065-39.11L77.065-30.61L72.815-30.61L72.815-34.86L68.565-34.86L68.565-19.98L64.44-19.98L64.44-13.73L60.19-13.73L60.19-9.48L55.94-9.48L55.94 7.52L60.19 7.52L60.19 11.64L51.69 11.64L51.69-0.98L47.44-0.98L47.44-5.23L43.19-5.23L43.19-0.98L38.94-0.98L38.94 3.27L34.815 3.27L34.815 7.52L38.94 7.52L38.94 11.64L30.565 11.64ZM60.19-68.73L64.44-68.73L64.44-72.98L60.19-72.98L60.19-68.73ZM5.19-0.98L22.065-0.98L22.065-3.11L5.19-3.11L5.19-0.98ZM64.44-0.98L98.19-0.98L98.19-3.11L64.44-3.11L64.44-0.98ZM17.815 7.52L26.315 7.52L26.315 5.39L17.815 5.39L17.815 7.52ZM5.19 13.77L13.565 13.77L13.565 11.64L5.19 11.64L5.19 13.77ZM91.94 11.64L93.94 11.64L93.94 9.52L91.94 9.52L91.94 11.64Z"/>
  </g>
  <g id="Ultralight-M" transform="matrix(1 0 0 1 510.836 1126)">
   <path d="M29.19 9.27L29.19-6.73L25.19-6.73L25.19-10.73L21.19-10.73L21.19-14.73L17.19-14.73L17.19-18.73L13.19-18.73L13.19-22.73L9.19-22.73L9.19-46.73L13.19-46.73L13.19-38.73L17.19-38.73L17.19-34.73L21.19-34.73L21.19-30.73L29.19-30.73L29.19-34.73L33.19-34.73L33.19-38.73L39.19-38.73L39.19-42.73L45.19-42.73L45.19-46.73L49.19-46.73L49.19-72.73L53.19-72.73L53.19-76.73L85.19-76.73L85.19-72.73L89.19-72.73L89.19-54.73L69.19-54.73L69.19-50.73L81.19-50.73L81.19-46.73L65.19-46.73L65.19-38.73L73.19-38.73L73.19-30.73L69.19-30.73L69.19-34.73L65.19-34.73L65.19-20.73L61.19-20.73L61.19-14.73L57.19-14.73L57.19-10.73L53.19-10.73L53.19 5.27L57.19 5.27L57.19 9.27L49.19 9.27L49.19-2.73L45.19-2.73L45.19-6.73L41.19-6.73L41.19-2.73L37.19-2.73L37.19 1.27L33.19 1.27L33.19 5.27L37.19 5.27L37.19 9.27L29.19 9.27ZM57.19-66.73L61.19-66.73L61.19-70.73L57.19-70.73L57.19-66.73ZM5.19-2.73L21.19-2.73L21.19-4.73L5.19-4.73L5.19-2.73ZM61.19-2.73L93.19-2.73L93.19-4.73L61.19-4.73L61.19-2.73ZM17.19 5.27L25.19 5.27L25.19 3.27L17.19 3.27L17.19 5.27ZM5.19 11.27L13.19 11.27L13.19 9.27L5.19 9.27L5.19 11.27ZM87.19 9.27L89.19 9.27L89.19 7.27L87.19 7.27L87.19 9.27Z"/>
  </g>
  <g id="Black-S" transform="matrix(1 0 0 1 2883.85 696)">
   <path d="M29.75 8.756L29.75-7.519L25.71-7.519L25.71-11.662L21.56-11.662L21.56-15.804L17.52-15.804L17.52-19.946L13.38-19.946L13.38-23.989L9.24-23.989L9.24-48.45L13.38-48.45L13.38-40.26L17.42-40.26L17.42-36.217L21.56-36.217L21.56-32.174L29.75-32.174L29.75-36.217L33.59-36.217L33.79-40.26L41.68-40.26L41.68-44.407L49.48-44.407L49.48-48.45L53.52-48.45L53.52-73.398L57.56-73.398L57.56-77.445L87.05-77.445L87.05-73.398L91.09-73.398L91.09-56.635L70.58-56.635L70.58-52.592L82.91-52.592L82.91-48.45L66.54-48.45L66.54-40.26L74.62-40.26L74.62-32.174L70.58-32.174L70.58-36.217L66.54-36.217L66.54-23.596L62.4-23.596L62.4-19.056L58.35-19.056L58.35-15.013L54.21-15.013L54.21 4.713L58.35 4.713L58.35 8.756L50.16 8.756L50.16-3.477L46.12-3.477L46.12-7.519L41.98-7.519L41.98-3.477L37.94-3.477L37.94 0.666L33.79 0.666L33.79 4.713L37.94 4.713L37.94 8.756L29.75 8.756ZM57.96-66.694L62-66.694L62-70.837L57.96-70.837L57.96-66.694ZM5.19-1.895L21.56-1.895L21.56-3.869L5.19-3.869L5.19-1.895ZM62.4-1.895L94.55-1.895L94.55-3.869L62.4-3.869L62.4-1.895ZM17.52 6.389L25.71 6.389L25.71 4.316L17.52 4.316L17.52 6.389ZM5.19 12.501L13.28 12.501L13.28 10.432L5.19 10.432L5.19 12.501ZM89.02 10.432L91.09 10.432L91.09 8.358L89.02 8.358L89.02 10.432Z"/>
  </g>
  <g id="Heavy-S" transform="matrix(1 0 0 1 2587.13 696)">
   <path d="M29.75 8.756L29.75-7.519L25.71-7.519L25.71-11.662L21.56-11.662L21.56-15.804L17.52-15.804L17.52-19.946L13.38-19.946L13.38-23.989L9.24-23.989L9.24-48.45L13.38-48.45L13.38-40.26L17.42-40.26L17.42-36.217L21.56-36.217L21.56-32.174L29.75-32.174L29.75-36.217L33.59-36.217L33.79-40.26L41.68-40.26L41.68-44.407L49.48-44.407L49.48-48.45L53.52-48.45L53.52-73.398L57.56-73.398L57.56-77.445L87.05-77.445L87.05-73.398L91.09-73.398L91.09-56.635L70.58-56.635L70.58-52.592L82.91-52.592L82.91-48.45L66.54-48.45L66.54-40.26L74.62-40.26L74.62-32.174L70.58-32.174L70.58-36.217L66.54-36.217L66.54-23.596L62.4-23.596L62.4-19.056L58.35-19.056L58.35-15.013L54.21-15.013L54.21 4.713L58.35 4.713L58.35 8.756L50.16 8.756L50.16-3.477L46.12-3.477L46.12-7.519L41.98-7.519L41.98-3.477L37.94-3.477L37.94 0.666L33.79 0.666L33.79 4.713L37.94 4.713L37.94 8.756L29.75 8.756ZM57.96-66.694L62-66.694L62-70.837L57.96-70.837L57.96-66.694ZM5.19-1.895L21.56-1.895L21.56-3.869L5.19-3.869L5.19-1.895ZM62.4-1.895L94.55-1.895L94.55-3.869L62.4-3.869L62.4-1.895ZM17.52 6.389L25.71 6.389L25.71 4.316L17.52 4.316L17.52 6.389ZM5.19 12.501L13.28 12.501L13.28 10.432L5.19 10.432L5.19 12.501ZM89.02 10.432L91.09 10.432L91.09 8.358L89.02 8.358L89.02 10.432Z"/>
  </g>
  <g id="Bold-S" transform="matrix(1 0 0 1 2290.42 696)">
   <path d="M29.75 8.756L29.75-7.519L25.71-7.519L25.71-11.662L21.57-11.662L21.57-15.804L17.52-15.804L17.52-19.946L13.38-19.946L13.38-23.989L9.24-23.989L9.24-48.45L13.38-48.45L13.38-40.26L17.42-40.26L17.42-36.217L21.57-36.217L21.57-32.174L29.75-32.174L29.75-36.217L33.59-36.217L33.79-40.26L41.68-40.26L41.68-44.407L49.48-44.407L49.48-48.45L53.52-48.45L53.52-73.398L57.56-73.398L57.56-77.445L87.05-77.445L87.05-73.398L91.09-73.398L91.09-56.635L70.58-56.635L70.58-52.592L82.91-52.592L82.91-48.45L66.54-48.45L66.54-40.26L74.62-40.26L74.62-32.174L70.58-32.174L70.58-36.217L66.54-36.217L66.54-23.596L62.4-23.596L62.4-19.056L58.35-19.056L58.35-15.013L54.21-15.013L54.21 4.713L58.35 4.713L58.35 8.756L50.16 8.756L50.16-3.477L46.12-3.477L46.12-7.519L41.98-7.519L41.98-3.477L37.94-3.477L37.94 0.666L33.79 0.666L33.79 4.713L37.94 4.713L37.94 8.756L29.75 8.756ZM57.96-66.694L62-66.694L62-70.837L57.96-70.837L57.96-66.694ZM5.19-1.895L21.57-1.895L21.57-3.869L5.19-3.869L5.19-1.895ZM62.4-1.895L94.55-1.895L94.55-3.869L62.4-3.869L62.4-1.895ZM17.52 6.389L25.71 6.389L25.71 4.316L17.52 4.316L17.52 6.389ZM5.19 12.501L13.28 12.501L13.28 10.432L5.19 10.432L5.19 12.501ZM89.02 10.432L91.09 10.432L91.09 8.358L89.02 8.358L89.02 10.432Z"/>
  </g>
  <g id="Semibold-S" transform="matrix(1 0 0 1 1994.99 696)">
   <path d="M28.96 8.167L28.96-7.616L25.02-7.616L25.02-11.659L21.08-11.659L21.08-15.602L17.13-15.602L17.13-19.551L13.09-19.551L13.09-23.494L9.14-23.494L9.14-47.164L13.09-47.164L13.09-39.272L17.13-39.272L17.13-35.329L21.08-35.329L21.08-31.48L28.96-31.48L28.96-35.329L32.81-35.329L32.91-39.272L39.81-39.272L39.81-43.221L46.72-43.221L46.72-47.164L50.66-47.164L50.66-72.018L54.61-72.018L54.61-75.961L84.39-75.961L84.39-72.018L88.34-72.018L88.34-55.15L68.51-55.15L68.51-51.207L80.45-51.207L80.45-47.164L64.57-47.164L64.57-39.272L72.46-39.272L72.46-31.386L68.51-31.386L68.51-35.329L64.57-35.329L64.57-22.505L60.62-22.505L60.62-17.477L56.68-17.477L56.68-13.534L52.63-13.534L52.63 4.219L56.68 4.219L56.68 8.167L48.79 8.167L48.79-3.668L44.84-3.668L44.84-7.616L40.9-7.616L40.9-3.668L36.85-3.668L36.85 0.275L32.91 0.275L32.91 4.219L36.95 4.219L36.95 8.167L28.96 8.167ZM56.48-65.707L60.43-65.707L60.43-69.75L56.48-69.75L56.48-65.707ZM5.19-2.783L21.08-2.783L21.08-4.752L5.19-4.752L5.19-2.783ZM60.62-2.783L91.99-2.783L91.99-4.752L60.62-4.752L60.62-2.783ZM17.13 5.208L25.12 5.208L25.12 3.234L17.13 3.234L17.13 5.208ZM5.19 11.126L13.09 11.126L13.09 9.152L5.19 9.152L5.19 11.126ZM86.36 9.152L88.34 9.152L88.34 7.083L86.36 7.083L86.36 9.152Z"/>
  </g>
  <g id="Medium-S" transform="matrix(1 0 0 1 1699.37 696)">
   <path d="M28.27 7.666L28.27-7.719L24.42-7.719L24.42-11.563L20.57-11.563L20.57-15.407L16.73-15.407L16.73-19.256L12.79-19.256L12.79-23.2L8.94-23.2L8.94-46.278L12.79-46.278L12.79-38.585L16.73-38.585L16.73-34.741L20.57-34.741L20.57-30.892L28.27-30.892L28.27-34.741L32.11-34.741L32.11-38.585L38.33-38.585L38.33-42.434L44.54-42.434L44.54-46.278L48.39-46.278L48.39-70.937L52.23-70.937L52.23-74.781L82.31-74.781L82.31-71.032L86.16-71.032L86.16-54.07L66.83-54.07L66.83-50.226L78.47-50.226L78.47-46.278L62.98-46.278L62.98-38.585L70.68-38.585L70.68-30.892L66.83-30.892L66.83-34.741L62.98-34.741L62.98-21.623L59.14-21.623L59.14-16.198L55.29-16.198L55.29-12.354L51.34-12.354L51.34 3.922L55.29 3.922L55.29 7.666L47.6 7.666L47.6-3.871L43.75-3.871L43.75-7.719L39.91-7.719L39.91-3.771L35.96-3.771L35.96 0.073L32.11 0.073L32.11 3.922L36.06 3.922L36.06 7.666L28.27 7.666ZM55.19-65.02L59.04-65.02L59.04-68.963L55.19-68.963L55.19-65.02ZM5.19-3.478L20.57-3.478L20.57-5.352L5.19-5.352L5.19-3.478ZM59.14-3.478L89.81-3.478L89.81-5.352L59.14-5.352L59.14-3.478ZM16.73 4.314L24.42 4.314L24.42 2.345L16.73 2.345L16.73 4.314ZM5.19 10.133L12.79 10.133L12.79 8.064L5.19 8.064L5.19 10.133ZM84.29 8.064L86.16 8.064L86.16 6.189L84.29 6.189L84.29 8.064Z"/>
  </g>
  <g id="Regular-S" transform="matrix(1 0 0 1 1403.35 696)">
   <path d="M27.87 7.376L27.87-7.716L24.12-7.716L24.12-11.56L20.28-11.56L20.28-15.31L16.53-15.31L16.53-19.154L12.69-19.154L12.69-22.903L8.94-22.903L8.94-45.588L12.69-45.588L12.69-37.99L16.53-37.99L16.53-34.246L20.28-34.246L20.28-30.496L27.87-30.496L27.87-34.246L31.62-34.246L31.62-37.99L37.34-37.99L37.34-41.839L43.06-41.839L43.06-45.588L46.81-45.588L46.81-70.243L50.56-70.243L50.56-73.992L80.93-73.992L80.93-70.243L84.68-70.243L84.68-53.182L65.75-53.182L65.75-49.432L77.09-49.432L77.09-45.588L62-45.588L62-37.99L69.5-37.99L69.5-30.496L65.75-30.496L65.75-34.246L62-34.246L62-21.028L58.15-21.028L58.15-15.31L54.4-15.31L54.4-11.56L50.56-11.56L50.56 3.626L54.4 3.626L54.4 7.376L46.81 7.376L46.81-3.967L43.06-3.967L43.06-7.716L39.22-7.716L39.22-3.967L35.47-3.967L35.47-0.118L31.62-0.118L31.62 3.626L35.47 3.626L35.47 7.376L27.87 7.376ZM54.4-64.524L58.15-64.524L58.15-68.368L54.4-68.368L54.4-64.524ZM5.19-3.967L20.28-3.967L20.28-5.842L5.19-5.842L5.19-3.967ZM58.15-3.967L88.43-3.967L88.43-5.842L58.15-5.842L58.15-3.967ZM16.53 3.626L24.12 3.626L24.12 1.752L16.53 1.752L16.53 3.626ZM5.19 9.35L12.69 9.35L12.69 7.376L5.19 7.376L5.19 9.35ZM82.81 7.376L84.68 7.376L84.68 5.501L82.81 5.501L82.81 7.376Z"/>
  </g>
  <g id="Light-S" transform="matrix(1 0 0 1 1109.99 696)">
   <path d="M25.99 4.213L25.99-9.69L22.54-9.69L22.54-13.241L19.09-13.241L19.09-16.692L15.64-16.692L15.64-20.143L12.09-20.143L12.09-23.694L8.64-23.694L8.64-44.504L12.09-44.504L12.09-37.602L15.54-37.602L15.54-34.052L19.09-34.052L19.09-30.7L25.99-30.7L25.99-34.052L29.54-34.052L29.54-37.503L34.77-37.503L34.77-41.053L40-41.053L40-44.504L43.45-44.504L43.45-67.19L46.9-67.19L46.9-70.641L74.81-70.641L74.81-67.19L78.26-67.19L78.26-51.511L60.91-51.511L60.91-48.055L71.26-48.055L71.26-44.504L57.36-44.504L57.36-37.602L64.36-37.602L64.36-30.6L60.91-30.6L60.91-34.052L57.36-34.052L57.36-21.923L53.9-21.923L53.9-16.692L50.45-16.692L50.45-13.241L46.9-13.241L46.9 0.762L50.45 0.762L50.45 4.213L43.45 4.213L43.45-6.239L40-6.239L40-9.69L36.45-9.69L36.45-6.239L33-6.239L33-2.689L29.45-2.689L29.45 0.762L33 0.762L33 4.213L25.99 4.213ZM50.45-61.963L53.9-61.963L53.9-65.514L50.45-65.514L50.45-61.963ZM5.19-6.239L19.09-6.239L19.09-8.015L5.19-8.015L5.19-6.239ZM53.9-6.239L81.72-6.239L81.72-8.015L53.9-8.015L53.9-6.239ZM15.64 0.762L22.54 0.762L22.54-1.013L15.64-1.013L15.64 0.762ZM5.19 5.989L12.09 5.989L12.09 4.213L5.19 4.213L5.19 5.989ZM76.59 4.213L78.26 4.213L78.26 2.438L76.59 2.438L76.59 4.213Z"/>
  </g>
  <g id="Thin-S" transform="matrix(1 0 0 1 816.634 696)">
   <path d="M24.225 0.961L24.225-11.665L21.068-11.665L21.068-14.917L17.815-14.917L17.815-18.074L14.658-18.074L14.658-21.232L11.406-21.232L11.406-24.385L8.347-24.385L8.347-43.42L11.5-43.42L11.5-37.11L14.658-37.11L14.658-33.952L17.815-33.952L17.815-30.795L24.225-30.795L24.225-33.952L27.378-33.952L27.378-37.11L32.112-37.11L32.112-40.263L36.946-40.263L36.946-43.42L40.103-43.42L40.103-64.131L43.261-64.131L43.261-67.289L68.706-67.289L68.706-64.131L71.859-64.131L71.859-49.929L55.981-49.929L55.981-46.677L65.548-46.677L65.548-43.42L52.828-43.42L52.828-37.11L59.139-37.11L59.139-30.795L55.981-30.795L55.981-33.952L52.828-33.952L52.828-22.808L49.671-22.808L49.671-18.074L46.513-18.074L46.513-14.917L43.261-14.917L43.261-2.097L46.513-2.097L46.513 0.961L40.103 0.961L40.103-8.507L36.946-8.507L36.946-11.665L33.793-11.665L33.793-8.507L30.536-8.507L30.536-5.354L27.378-5.354L27.378-2.097L30.536-2.097L30.536 0.961L24.225 0.961ZM46.513-59.397L49.671-59.397L49.671-62.654L46.513-62.654L46.513-59.397ZM5.19-8.507L17.815-8.507L17.815-10.088L5.19-10.088L5.19-8.507ZM49.671-8.507L75.016-8.507L75.016-10.088L49.671-10.088L49.671-8.507ZM14.658-2.097L21.068-2.097L21.068-3.674L14.658-3.674L14.658-2.097ZM5.19 2.637L11.406 2.637L11.406 0.961L5.19 0.961L5.19 2.637ZM70.382 0.961L71.859 0.961L71.859-0.62L70.382-0.62L70.382 0.961Z"/>
  </g>
  <g id="Ultralight-S" transform="matrix(1 0 0 1 521.897 696)">
   <path d="M23.136-0.911L23.136-12.846L20.178-12.846L20.178-15.904L17.12-15.904L17.12-18.862L14.166-18.862L14.166-21.921L11.107-21.921L11.107-24.875L8.149-24.875L8.149-42.826L11.107-42.826L11.107-36.809L14.166-36.809L14.166-33.85L17.12-33.85L17.12-30.892L23.136-30.892L23.136-33.85L26.095-33.85L26.095-36.809L30.635-36.809L30.635-39.867L35.17-39.867L35.17-42.826L38.129-42.826L38.129-62.354L41.088-62.354L41.088-65.312L65.151-65.312L65.151-62.354L68.109-62.354L68.109-48.843L53.122-48.843L53.122-45.884L62.093-45.884L62.093-42.826L50.163-42.826L50.163-36.809L56.08-36.809L56.08-30.892L53.122-30.892L53.122-33.85L50.163-33.85L50.163-23.398L47.105-23.398L47.105-18.862L44.146-18.862L44.146-15.904L41.088-15.904L41.088-3.87L44.146-3.87L44.146-0.911L38.129-0.911L38.129-9.887L35.17-9.887L35.17-12.846L32.112-12.846L32.112-9.887L29.153-9.887L29.153-6.829L26.095-6.829L26.095-3.87L29.153-3.87L29.153-0.911L23.136-0.911ZM44.146-57.819L47.105-57.819L47.105-60.877L44.146-60.877L44.146-57.819ZM5.19-9.887L17.12-9.887L17.12-11.364L5.19-11.364L5.19-9.887ZM47.105-9.887L71.068-9.887L71.068-11.364L47.105-11.364L47.105-9.887ZM14.166-3.87L20.178-3.87L20.178-5.352L14.166-5.352L14.166-3.87ZM5.19 0.665L11.107 0.665L11.107-0.911L5.19-0.911L5.19 0.665ZM66.632-0.911L68.109-0.911L68.109-2.388L66.632-2.388L66.632-0.911Z"/>
  </g>
 </g>
</svg>
