<svg width="133" height="109" viewBox="0 0 133 109" fill="none" xmlns="http://www.w3.org/2000/svg">
<path d="M16.2349 42.2184C16.108 40.4801 17.4841 39 19.227 39H36C37.6569 39 39 40.3431 39 42V44H87.2269C88.7925 44 90.0948 45.2038 90.2177 46.7645L94.7452 104.265C94.8826 106.009 93.5042 107.5 91.7545 107.5H23.789C22.2169 107.5 20.9114 106.286 20.797 104.718L16.2349 42.2184Z" fill="#DADCE0" stroke="#DADCE0" stroke-width="2"/>
<path d="M102.93 17.6177C104.098 16.2444 106.344 16.9958 106.45 18.7955L107.353 34.0822L121.513 39.9123C123.18 40.5986 123.159 42.9668 121.481 43.624L107.221 49.2065L106.052 64.4752C105.915 66.2727 103.656 66.9849 102.512 65.5914L92.7964 53.7549L77.9138 57.3614C76.1618 57.786 74.7865 55.8579 75.7583 54.3395L84.0132 41.4416L75.9842 28.4019C75.039 26.8668 76.4477 24.963 78.1921 25.418L93.0096 29.2832L102.93 17.6177Z" fill="#FBBC04"/>
<path d="M35.1349 13.0646C35.2195 11.2638 37.4561 10.4853 38.6405 11.8444L45.2022 19.3741L54.8352 16.7366C56.574 16.2605 58.0056 18.1471 57.079 19.6935L51.9455 28.2609L57.4307 36.6074C58.4208 38.1139 57.0689 40.0584 55.3119 39.6551L45.5775 37.4203L39.3345 45.2162C38.2077 46.6234 35.9406 45.9386 35.7812 44.1428L34.8985 34.1944L25.555 30.666C23.8684 30.0291 23.8192 27.6614 25.4778 26.9549L34.6666 23.0412L35.1349 13.0646Z" fill="#4285F4"/>
<circle r="5" transform="matrix(-1 0 0 1 75 5)" fill="#E8EAED"/>
<rect width="7" height="7" rx="2" transform="matrix(-0.852995 0.521919 0.521919 0.852995 5.97095 10)" fill="#34A853"/>
<path d="M25.7839 46.7663C25.9059 45.2049 27.2085 44 28.7748 44H46C47.6569 44 49 45.3431 49 47V49H96.735C98.4918 49 99.8726 50.5028 99.7243 52.2533L95.2328 105.253C95.1012 106.806 93.8021 108 92.2435 108H24.2435C22.4946 108 21.1164 106.51 21.2526 104.766L25.7839 46.7663Z" fill="white" stroke="#E8EAED" stroke-width="2"/>
</svg>
