<svg xmlns="http://www.w3.org/2000/svg" width="200" height="108" fill="none" viewBox="0 0 200 108"><rect width="42" height="31" x="147.129" y="64.541" fill="#D2E3FC" rx="15.5" transform="rotate(13.447 147.129 64.541)"/><rect width="28" height="21" x="28" y="77.297" fill="#D2E3FC" rx="10.5" transform="rotate(-12.566 28 77.297)"/><rect width="34.987" height="25.371" x="142.923" y="57.995" fill="#D2E3FC" stroke="#1B6EF3" stroke-width="2" rx="3" transform="rotate(13.113 142.923 57.995)"/><path fill="#1A73E8" d="m132.028 84.053 43.228 10.07a2.22 2.22 0 0 1-2.665 1.657l-38.905-9.062a2.22 2.22 0 0 1-1.658-2.665Z"/><mask id="a" width="42" height="35" x="136" y="57" maskUnits="userSpaceOnUse" style="mask-type:alpha"><rect width="36.987" height="27.371" x="142.176" y="56.794" fill="#D2E3FC" rx="4" transform="rotate(13.113 142.176 56.794)"/></mask><g mask="url(#a)"><path fill="#000" d="m175.526 79.24-36.843-.48c-4.473-.058-5.653 6.152-1.471 7.74l35.454 13.453c2.45.93 5.117-.708 5.396-3.314l1.39-12.974a4 4 0 0 0-3.926-4.426Z"/></g><rect width="34.987" height="25.371" x="142.923" y="57.995" fill="#D2E3FC" stroke="#1B6EF3" stroke-width="2" rx="3" transform="rotate(13.113 142.923 57.995)"/><mask id="b" width="42" height="35" x="136" y="57" maskUnits="userSpaceOnUse" style="mask-type:alpha"><rect width="36.987" height="27.371" x="142.176" y="56.794" fill="#D2E3FC" rx="4" transform="rotate(13.113 142.176 56.794)"/></mask><g mask="url(#b)"><path fill="#AECBFA" d="m175.526 79.24-36.843-.48c-4.473-.058-5.653 6.152-1.471 7.74l35.454 13.453c2.45.93 5.117-.708 5.396-3.314l1.39-12.974a4 4 0 0 0-3.926-4.426Z"/></g><rect width="34.987" height="25.371" x="142.923" y="57.995" stroke="#1B6EF3" stroke-width="2" rx="3" transform="rotate(13.113 142.923 57.995)"/><rect width="14.806" height="29.035" x="34.428" y="60.062" fill="#D2E3FC" stroke="#1B6EF3" stroke-width="2" rx="3" transform="rotate(-12.516 34.428 60.062)"/><mask id="c" width="18" height="29" x="36" y="58" maskUnits="userSpaceOnUse" style="mask-type:alpha"><rect width="12.806" height="27.035" x="35.621" y="60.821" fill="#D2E3FC" rx="2" transform="rotate(-12.516 35.621 60.821)"/></mask><g mask="url(#c)"><path fill="#AECBFA" d="m57.327 78.599-20.85-2.363a4 4 0 0 0-4.439 4.29l1.085 13.733a4 4 0 0 0 5.056 3.54l20.222-5.607a4 4 0 0 0 2.918-4.17l-.455-5.764a4 4 0 0 0-3.537-3.66Z"/></g><path fill="#1B6EF3" d="m87.648 34.962-3.628-11.55a1.4 1.4 0 0 1 .096-1.108c.185-.354.47-.592.855-.713l6.468-2.031a1.4 1.4 0 0 1 1.109.095 1.4 1.4 0 0 1 .712.855l3.628 11.55-5.2-.397-4.04 3.3Zm.74-2.495 2.828-2.305 3.64.274-2.982-9.49-6.468 2.031 2.981 9.49Zm-2.982-9.49 6.468-2.031-3.234 1.015-3.234 1.016Zm20.304 6.525 2.873-.876 2.164 2.109.024-2.986 2.632-1.329-2.819-.96-.499-2.968-1.814 2.402-2.943-.45 1.739 2.399-1.357 2.659Zm-2.851 2.397 2.511-4.911-3.257-4.515 5.524.853 3.321-4.4.908 5.456 5.299 1.775-4.975 2.5-.041 5.516-3.969-3.9-5.321 1.626Z"/><circle cx="3.562" cy="3.562" r="3.562" fill="#FBBC04" transform="scale(1 -1) rotate(40.924 84.545 80.835)"/><circle cx="2" cy="2" r="2" fill="#D2E3FC" transform="scale(1 -1) rotate(40.924 96.146 50.482)"/><path fill="#FCC934" d="M65.894 36.557a1 1 0 0 1 .66 1.602l-2.644 3.43a1 1 0 0 1-1.717-.23l-1.648-4.004a1 1 0 0 1 1.057-1.372l4.292.574Z"/><circle cx="140.768" cy="54.109" r="1.626" fill="#D2E3FC" transform="rotate(-157.147 140.768 54.11)"/><circle cx="53.079" cy="55.13" r="1.626" fill="#D2E3FC" transform="rotate(-157.147 53.08 55.13)"/><circle cx="137.698" cy="47.749" r="2.098" fill="#D2E3FC" transform="rotate(-157.147 137.698 47.749)"/><circle cx="131.879" cy="40.93" r="3" fill="#5BB974" transform="rotate(-157.147 131.879 40.93)"/><path stroke="#D2E3FC" stroke-linecap="round" stroke-width="2" d="m99.95 6 .499 5.5m21.732 3.714-2.464 2.21M77.725 16.17l2.099 2.296m.126 22.092L82.048 38m36.7 1.537L116.949 37"/><rect width="7" height="7" x="121.572" y="28" fill="#34A853" rx="2" transform="rotate(13.403 121.572 28)"/><path stroke="#D2E3FC" stroke-linecap="round" stroke-width="2" d="M57.95 62c16.5-22 52.32-31.504 76.999-1.91"/><path stroke="#D2E3FC" stroke-linecap="round" stroke-width="2" d="M63.95 66c14-19 45.499-25 64.999-3"/><path fill="#D2E3FC" d="M136.382 57.056a1 1 0 0 0-1.614-.642l-3.588 2.86a1 1 0 0 0 .253 1.711l4.232 1.684a1 1 0 0 0 1.359-1.07l-.642-4.543ZM63.261 62.18a1 1 0 0 1 1.72-.242l2.807 3.631a1 1 0 0 1-.653 1.602l-4.51.63a1 1 0 0 1-1.067-1.36l1.703-4.262Z"/></svg>