<svg version="1.1" viewBox="0 0 264 264" xmlns="http://www.w3.org/2000/svg">
  <g fill="none" fill-rule="evenodd">
    <path d="m171.6 82.336-6.413-6.413c-0.885-0.885-0.885-2.321 0-3.206l6.413-6.413c0.885-0.886 2.321-0.886 3.207 0l6.412 6.413c0.886 0.885 0.886 2.321 0 3.206l-6.412 6.413c-0.886 0.885-2.322 0.885-3.207 0" fill="#EA4335"/>
    <path d="m105.87 48.101-6.413-6.413c-0.885-0.885-0.885-2.321 0-3.206l6.413-6.413c0.886-0.885 2.321-0.885 3.207 0l6.413 6.413c0.885 0.885 0.885 2.321 0 3.206l-6.413 6.413c-0.886 0.885-2.321 0.885-3.207 0" fill="#FBBC04"/>
    <path d="m96.554 123.42 6.413-6.413c0.885-0.885 2.321-0.885 3.207 0l6.412 6.413c0.886 0.885 0.886 2.321 0 3.207l-6.412 6.412c-0.886 0.886-2.322 0.886-3.207 0l-6.413-6.412c-0.885-0.886-0.885-2.322 0-3.207" fill="#F1F3F4"/>
    <path d="m129.01 65.679c-2.214-2.214-2.214-5.802 0-8.016l4.81-4.81c2.213-2.213 5.802-2.213 8.016 0 2.213 2.214 2.213 5.803 0 8.016l-4.81 4.81c-2.214 2.213-5.803 2.213-8.016 0" fill="#4285F4"/>
    <path d="m133.77 102.36c-2.214-2.214-2.214-5.802 0-8.016l4.81-4.81c2.213-2.214 5.802-2.214 8.016 0 2.213 2.214 2.213 5.803 0 8.016l-4.81 4.81c-2.214 2.213-5.803 2.213-8.016 0" fill="#F1F3F4"/>
    <path d="m146.85 97.289 0.741-0.741c2.214-2.214 2.214-5.802 0-8.016-2.213-2.213-5.803-2.213-8.016 0l-4.809 4.809c-0.745 0.745-1.217 1.651-1.461 2.602 4.621 0.068 9.146 0.527 13.545 1.346" fill="#FBBC04"/>
    <path d="m87.07 75.282 11.947 3.201c1.686 0.452 2.25 2.559 1.016 3.793l-8.745 8.746c-1.235 1.234-3.342 0.67-3.794-1.016l-3.201-11.947c-0.452-1.686 1.091-3.229 2.777-2.777" fill="#34A853"/>
    <path d="m151.38 118.92 11.947 3.201c1.686 0.452 2.25 2.559 1.016 3.793l-8.745 8.746c-1.235 1.234-3.342 0.67-3.794-1.016l-3.201-11.947c-0.452-1.686 1.091-3.229 2.777-2.777" fill="#F1F3F4"/>
    <path d="m159 17c0 3.866-3.134 7-7 7s-7-3.134-7-7 3.134-7 7-7 7 3.134 7 7" fill="#34A853"/>
    <path d="m212 175c0 44.183-35.817 80-80 80s-80-35.817-80-80 35.817-80 80-80 80 35.817 80 80z" stroke="#DADCE0" stroke-width="4"/>
    <path d="m137 183.81 11.191-11.166 7.063 7.0791-23.394 23.341-23.393-23.341 7.0632-7.079 11.468 11.443v-35.086h10v34.809z" fill="#DADCE0" fill-rule="nonzero"/>
    <path d="m101 151 62 62" stroke="#DADCE0" stroke-width="4"/>
  </g>
</svg>
