<svg width="520" height="320" fill="none" xmlns="http://www.w3.org/2000/svg"><g clip-path="url(#clip0)"><path fill="#fff" d="M0 0h520v320H0z"/><g clip-path="url(#clip1)"><path fill="#fff" d="M-23.2986 12h566.597v296h-566.597z"/><path d="M391.427 118.45l-29.568 53.192c-3.571 6.602-9.605 11.509-16.776 13.643-7.171 2.134-14.892 1.32-21.465-2.263-3.257-1.773-6.133-4.174-8.466-7.065a28.3764 28.3764 0 01-5.129-9.783 28.4668 28.4668 0 01-1.01-11.01c.387-3.702 1.495-7.29 3.262-10.561l29.568-53.1771c3.569-6.6044 9.602-11.5148 16.773-13.6517 7.171-2.1368 14.893-1.3252 21.469 2.2565 6.573 3.5849 11.461 9.6458 13.588 16.8502 2.127 7.2041 1.319 14.9621-2.246 21.5691z" fill="#E8E9EC"/><path d="M263.399 23.0692h-65.948a12.221 12.221 0 00-6.083 1.6731 12.295 12.295 0 00-4.452 4.4885l-32.974 57.3819a12.3245 12.3245 0 00-1.646 6.1542c0 2.1612.568 4.2841 1.646 6.1543l32.974 57.3818c1.077 1.873 2.625 3.429 4.489 4.51a12.2268 12.2268 0 006.132 1.652h65.862c2.152-.002 4.266-.572 6.13-1.654a12.2952 12.2952 0 004.49-4.508l32.974-57.3818a12.3148 12.3148 0 001.646-6.1543c0-2.1612-.567-4.2841-1.646-6.1542l-32.945-57.3819a12.3122 12.3122 0 00-4.502-4.5155 12.2388 12.2388 0 00-6.147-1.6461v0z" stroke="#EA4335" stroke-width="5.0634" stroke-miterlimit="10" stroke-dasharray="19.75 19.75"/><path d="M208.822 71.0277l43.263 43.4783M252.085 71.0277l-43.263 43.4783" stroke="#EA4335" stroke-width="5.0634" stroke-miterlimit="10"/><path d="M251.349 288.522c-.76.324-1.58.483-2.406.466a5.8123 5.8123 0 01-2.385-.563 5.8576 5.8576 0 01-1.948-1.494 5.9014 5.9014 0 01-1.169-2.164c-4.14-13.934-3.02-28.912 3.145-42.069 6.165-13.157 16.942-23.568 30.269-29.241 13.327-5.673 28.269-6.211 41.966-1.509 13.697 4.701 25.187 14.312 32.273 26.992a5.9409 5.9409 0 01.443 4.799 5.9103 5.9103 0 01-1.254 2.117 5.8965 5.8965 0 01-2.003 1.42l-96.931 41.246z" stroke="#E4E4E4" stroke-width="5.0634" stroke-miterlimit="10"/><path d="M135.788 152.182L115.4 176.593c-2.572 3.079-2.172 7.669.893 10.253l24.01 20.241c3.065 2.583 7.634 2.182 10.206-.897l20.388-24.411c2.572-3.079 2.172-7.67-.892-10.253l-24.011-20.241c-3.065-2.584-7.634-2.182-10.206.897z" fill="#F882FF"/><path d="M217.019 268.443c.441-5.497.581-11.015.418-16.528.04-7.589 3.076-14.852 8.442-20.195 3.107-2.865 6.06-5.895 8.846-9.075 9.264-11.526 6.898-28.807-6.147-36.433-11.458-6.698-27.419-2.523-33.292 9.67-2.742 5.625-3.463 11.96-5.686 17.774-2.299 6.209-6.676 11.422-12.381 14.744-4.921 2.827-10.101 5.219-14.676 8.699-4.466 3.362-8.031 7.786-10.376 12.874-3.682 8.045-4.142 17.205-1.284 25.582 2.857 8.376 8.814 15.327 16.635 19.411 7.82 4.084 16.905 4.989 25.371 2.526 8.467-2.463 15.665-8.104 20.103-15.755 2.252-4.1 3.624-8.629 4.027-13.294z" fill="#BBC0C7"/><path d="M388.281 229.836c10.512 0 19.034-8.562 19.034-19.123 0-10.561-8.522-19.122-19.034-19.122-10.512 0-19.034 8.561-19.034 19.122s8.522 19.123 19.034 19.123z" stroke="#FBBC05" stroke-width="5.0634" stroke-miterlimit="10"/></g></g><defs><clipPath id="clip0"><path fill="#fff" d="M0 0h520v320H0z"/></clipPath><clipPath id="clip1"><path fill="#fff" transform="translate(-23.2986 12)" d="M0 0h566.597v296H0z"/></clipPath></defs></svg>