<svg xmlns="http://www.w3.org/2000/svg" xmlns:xlink="http://www.w3.org/1999/xlink" width="264" height="264">
  <defs>
    <path id="a" d="M50 256h164V9H50z"/>
  </defs>
  <g fill="none" fill-rule="evenodd">
    <path fill="#EA4335" d="M96.554 122.415l6.413-6.413a2.269 2.269 0 0 1 3.207 0l6.412 6.413a2.267 2.267 0 0 1 0 3.207l-6.412 6.414a2.269 2.269 0 0 1-3.207 0l-6.413-6.413a2.269 2.269 0 0 1 0-3.208"/>
    <path fill="#FBBC04" d="M133.766 101.358a5.667 5.667 0 0 1 0-8.016l4.81-4.81a5.67 5.67 0 0 1 8.016 8.016l-4.81 4.81a5.67 5.67 0 0 1-8.016 0"/>
    <path fill="#34A853" d="M151.384 117.925l11.947 3.2c1.686.453 2.25 2.56 1.016 3.795l-8.745 8.745c-1.235 1.234-3.342.67-3.794-1.016l-3.2-11.947c-.453-1.686 1.09-3.23 2.776-2.777"/>
    <path stroke="#4285F4" stroke-linecap="round" stroke-linejoin="round" stroke-width="4" d="M212 174c0 44.183-35.817 80-80 80s-80-35.817-80-80 35.817-80 80-80 80 35.817 80 80z"/>
    <mask id="b" fill="#fff">
      <use xlink:href="#a"/>
    </mask>
    <path fill="#4285F4" d="M127 190.423h10v-40h-10z" mask="url(#b)"/>
    <path stroke="#4285F4" stroke-width="10" d="M112.139 177.605L132 197.422l19.862-19.817" mask="url(#b)"/>
    <path fill="#EA4335" d="M171.605 81.336l-6.413-6.413a2.268 2.268 0 0 1 0-3.206l6.413-6.413a2.269 2.269 0 0 1 3.207 0l6.412 6.413a2.266 2.266 0 0 1 0 3.206l-6.412 6.413a2.269 2.269 0 0 1-3.207 0" mask="url(#b)"/>
    <path fill="#FBBC04" d="M105.869 47.101l-6.413-6.413a2.268 2.268 0 0 1 0-3.206l6.413-6.413a2.269 2.269 0 0 1 3.207 0l6.413 6.413a2.268 2.268 0 0 1 0 3.206l-6.413 6.413a2.267 2.267 0 0 1-3.207 0" mask="url(#b)"/>
    <path fill="#4285F4" d="M129.012 64.68a5.667 5.667 0 0 1 0-8.017l4.81-4.81a5.67 5.67 0 0 1 8.016 8.016l-4.81 4.81a5.667 5.667 0 0 1-8.016 0" mask="url(#b)"/>
    <path fill="#34A853" d="M87.07 74.282l11.947 3.201c1.686.452 2.25 2.56 1.016 3.794l-8.745 8.745c-1.235 1.234-3.342.67-3.794-1.016L84.293 77.06c-.452-1.686 1.09-3.229 2.777-2.777M159 16a7 7 0 1 1-14 0 7 7 0 0 1 14 0" mask="url(#b)"/>
    <path d="M0 0h264v264H0z"/>
  </g>
</svg>
