<svg height="264" viewBox="0 0 264 264" width="264" xmlns="http://www.w3.org/2000/svg"><g fill="none" transform="translate(52 9)"><path d="m44.5542 113.4155 6.413-6.413c.885-.885 2.321-.885 3.207 0l6.412 6.413c.886.886.886 2.321 0 3.207l-6.412 6.413c-.886.885-2.322.885-3.207 0l-6.413-6.413c-.885-.886-.885-2.321 0-3.207" fill="#ea4335"/><path d="m81.7661 92.3578c-2.214-2.214-2.214-5.803 0-8.016l4.81-4.81c2.213-2.214 5.802-2.214 8.016 0 2.213 2.214 2.213 5.803 0 8.016l-4.81 4.81c-2.214 2.213-5.803 2.213-8.016 0" fill="#fbbc04"/><path d="m99.3843 108.9247 11.947 3.201c1.686.452 2.25 2.559 1.016 3.794l-8.745 8.745c-1.235 1.234-3.342.67-3.794-1.016l-3.201-11.947c-.452-1.686 1.091-3.229 2.777-2.777" fill="#34a853"/><path d="m162 164.9999c0 45.287569-36.712431 82-82 82-45.2875695 0-82-36.712431-82-82s36.7124305-82 82-82c45.287569 0 82 36.712431 82 82zm-4 0c0-43.078431-34.921569-78-78-78-43.0784305 0-78 34.921569-78 78s34.9215695 78 78 78c43.078431 0 78-34.921569 78-78z" fill="#4285f4"/><path d="m75 176.371v-34.948h10v34.947l11.33-11.304 7.063 7.079-23.393 23.341-23.393-23.341 7.063-7.079z" fill="#4285f4"/><path d="m119.605 72.3359-6.413-6.413c-.885-.885-.885-2.321 0-3.206l6.413-6.413c.885-.885 2.321-.885 3.207 0l6.412 6.413c.886.885.886 2.321 0 3.206l-6.412 6.413c-.886.885-2.322.885-3.207 0" fill="#ea4335"/><path d="m53.8687 38.101-6.413-6.413c-.885-.885-.885-2.321 0-3.206l6.413-6.413c.886-.885 2.321-.885 3.207 0l6.413 6.413c.885.885.885 2.321 0 3.206l-6.413 6.413c-.886.886-2.321.886-3.207 0" fill="#fbbc04"/><path d="m77.0122 55.6791c-2.214-2.213-2.214-5.802 0-8.016l4.81-4.81c2.213-2.213 5.802-2.213 8.016 0 2.213 2.214 2.213 5.803 0 8.016l-4.81 4.81c-2.214 2.214-5.803 2.214-8.016 0" fill="#4285f4"/><path d="m35.0698 65.2822 11.947 3.201c1.686.452 2.25 2.559 1.016 3.794l-8.745 8.745c-1.235 1.234-3.342.67-3.794-1.016l-3.201-11.947c-.452-1.686 1.091-3.229 2.777-2.777m71.9302-58.2823c0 3.866-3.134 7-7 7s-7-3.134-7-7 3.134-7 7-7 7 3.134 7 7" fill="#34a853"/></g></svg>