<svg width="520" height="320" fill="none" xmlns="http://www.w3.org/2000/svg"><path fill="#fff" d="M0 0h520v320H0z"/><g clip-path="url(#a)"><path d="M263.709 249.715c49.05 0 88.813-39.763 88.813-88.813 0-49.049-39.763-88.812-88.813-88.812-49.049 0-88.812 39.763-88.812 88.812 0 49.05 39.763 88.813 88.812 88.813z" fill="#D2E3FC"/><path d="m399.874 75.036-22.476-6.001c-.982-.218-1.527-1.31-1.309-2.291l6.001-22.476c.218-.982 1.309-1.528 2.291-1.31l22.476 6.002c.982.218 1.527 1.309 1.309 2.29l-6.001 22.477a1.954 1.954 0 0 1-2.291 1.309z" fill="#34A853"/><path d="M115.216 275.682c-3.273-5.564-1.31-12.765 4.255-16.038l17.348-10.038c5.564-3.273 12.765-1.31 16.038 4.255 3.274 5.564 1.31 12.765-4.255 16.039l-17.348 10.037c-5.673 3.273-12.874 1.31-16.038-4.255z" stroke="#EA4335" stroke-width="3.51" stroke-miterlimit="10" stroke-linejoin="round"/><path d="m126.563 77.109-10.692-10.693c-1.309-1.309-1.746-3.055-1.309-4.8l3.927-14.62c.437-1.746 1.855-3.056 3.492-3.492l14.62-3.928c1.746-.436 3.601 0 4.801 1.31l10.692 10.692c1.309 1.31 1.746 3.055 1.309 4.8l-3.927 14.62c-.437 1.746-1.855 3.056-3.492 3.492l-14.62 3.928c-1.746.436-3.601 0-4.801-1.31z" fill="#FBBC05"/><path d="m126.345 234.767-10.038-7.419c-.436-.327-.545-.982-.218-1.418l7.419-10.038c.328-.437.982-.546 1.419-.218l10.038 7.419c.436.327.545.982.218 1.418l-7.419 10.038c-.328.436-.982.545-1.419.218z" fill="#F882FF"/><path d="M263.709 289.32c70.924 0 128.418-57.494 128.418-128.418 0-70.923-57.494-128.418-128.418-128.418-70.923 0-128.417 57.495-128.417 128.418 0 70.924 57.494 128.418 128.417 128.418z" stroke="#4285F4" stroke-width="3.252" stroke-miterlimit="10" stroke-linejoin="round"/><path d="m302.988 123.915-34.914-12.983c-1.418-.437-2.837-.546-4.364-.546-1.528 0-2.946.218-4.365.546l-34.913 12.983c-2.292.655-3.819 2.51-3.819 4.692v25.749c0 21.276 10.365 41.569 28.695 54.553 6.11 4.364 11.565 6.765 14.402 6.765 2.836 0 8.292-2.401 14.402-6.765 18.33-13.093 28.695-33.386 28.695-54.553v-25.749c0-2.182-1.528-4.037-3.819-4.692z" fill="#4285F4"/><path d="M263.709 183.705c12.594 0 22.803-10.209 22.803-22.803 0-12.594-10.209-22.803-22.803-22.803-12.594 0-22.803 10.209-22.803 22.803 0 12.594 10.209 22.803 22.803 22.803z" fill="#D2E3FC"/><path d="m252.581 156.756 8.946 8.947c.546.546 1.528.546 2.182 0l21.822-21.712" stroke="#fff" stroke-width="3.252" stroke-miterlimit="10" stroke-linecap="round" stroke-linejoin="round"/></g><defs><clipPath id="a"><path fill="#fff" transform="translate(111.834 30.848)" d="M0 0h296.332v260H0z"/></clipPath></defs></svg>