<svg id="cloud_done" width="12" height="12" fill="none" xmlns="http://www.w3.org/2000/svg"><g clip-path="url(#clip)"><path d="M6 1a5 5 0 110 10A5 5 0 016 1zm0-1a6 6 0 100 12A6 6 0 006 0z" fill="var(--xf-icon-base-color, #fff)"/><path d="M6 11A5 5 0 106 1a5 5 0 000 10z" fill="var(--xf-icon-positive-color, #00885E)"/><path d="M5.269 7.93a.58.58 0 01-.42-.18l-1.2-1.2a.6.6 0 01.84-.85l.78.78 2.24-2.23a.594.594 0 11.84.84l-2.65 2.66a.61.61 0 01-.43.18z" fill="var(--xf-icon-base-color, #fff)"/></g><defs><clipPath id="clip"><path fill="#fff" d="M0 0h12v12H0z"/></clipPath></defs></svg>
