<svg id="cloud_sync" width="12" height="12" fill="none" xmlns="http://www.w3.org/2000/svg"><g clip-path="url(#clip)">
  <path d="M6 1a5 5 0 110 10A5 5 0 016 1zm0-1a6 6 0 100 12A6 6 0 006 0z" fill="var(--xf-icon-base-color, #fff)"/>
  <path d="M6 11A5 5 0 106 1a5 5 0 000 10z" fill="var(--xf-icon-progress-color, #5973C4)"/><path d="M3.325 8.285A3.49 3.49 0 012.47 6a3.5 3.5 0 013.03-3.42v1a2.49 2.49 0 00-.8 4.6V7.11h.77v2.34a3.49 3.49 0 01-2.144-1.165zM6.499 5V2.66a3.48 3.48 0 010 6.89v-1a2.49 2.49 0 00.8-4.55v1h-.8z" fill="var(--xf-icon-base-color, #fff)"/></g>
  <defs>
    <clipPath id="clip"><path fill="#fff" d="M0 0h12v12H0z"/></clipPath>
  </defs>
</svg>
