<svg xmlns="http://www.w3.org/2000/svg" height="24" viewBox="0 0 192 192" width="24"><path fill="none" d="M0 0h192v192H0z"/><path d="M128.3 122l7.6 26.2 20 21.4a18 18 0 006.5-6.6l18.5-32a18 18 0 002.4-9l-28.4-5.5-26.6 5.5z" fill="#EA4335"/><path d="M123.5 18.4a18 18 0 00-9-2.4h-37c-3.2 0-6.3.9-9 2.4l8 26.8L95.9 66l.1.1 19.6-20.9 7.9-26.7z" fill="#188038"/><path d="M63.7 122l-28.4-6.5L8.7 122c0 3.1.8 6.2 2.4 9l18.5 32c1.6 2.8 3.9 5 6.6 6.6l19.6-20.2 7.9-27.4z" fill="#1967D2"/><path d="M155.5 69L130 25a18 18 0 00-6.6-6.6L96 66l32.3 56h55a18 18 0 00-2.4-9l-25.4-44z" fill="#FBBC04"/><path d="M128.3 122H63.7l-27.5 47.6a18 18 0 009 2.4h101.6a18 18 0 009-2.4L128.3 122z" fill="#4285F4"/><path d="M96 66L68.5 18.4A18 18 0 0062 25L11 113a18 18 0 00-2.4 9h55L96 66z" fill="#34A853"/></svg>