<svg xmlns="http://www.w3.org/2000/svg" xml:space="preserve" style="enable-background:new 0 0 32 32" viewBox="0 0 32 32"><path d="M23.1 7.9c1.6 0 2.9 1.3 2.9 2.9v3c-.8-.2-1.7-.3-2.5-.2v-3h-18v12h10c.1.9.2 1.7.5 2.5H5.9C4.3 25 3 23.7 3 22.1V7c0-1.1.9-2 2-2h9.5l2.9 2.9h5.7zm2.6 10.8c.3-.3.7-.3 1-.1s.3.7.1 1l-.1.1-2.9 2.9c-.3.3-.7.3-1 0l-1.5-1.5c-.3-.3-.2-.8.1-1 .3-.3.7-.3 1 0l.9.9 2.4-2.3zm-4.5 5.1c-.4 0-.7.3-.7.7s.3.7.7.7h5.7c.4 0 .7-.3.7-.7s-.3-.7-.7-.7h-5.7z"/><path d="M31 22c0 3.9-3.1 7-7 7s-7-3.1-7-7 3.1-7 7-7 7 3.1 7 7zm-1.8 0c0 2.9-2.4 5.2-5.2 5.2s-5.2-2.4-5.2-5.2 2.4-5.2 5.2-5.2 5.2 2.3 5.2 5.2z" style="fill-rule:evenodd;clip-rule:evenodd"/></svg>
