<svg width="32" height="32" fill="none" xmlns="http://www.w3.org/2000/svg">
  <path d="M23.143 7.857A2.857 2.857 0 0 1 26 10.714v3.023a8.52 8.52 0 0 0-2.5-.223V10.5h-18v12h10.014c.051.875.235 1.715.53 2.5H5.876a2.873 2.873 0 0 1-2.873-2.875l.01-15.126a2 2 0 0 1 2-1.999H14.5l2.875 2.857h5.768ZM25.672 18.714a.73.73 0 1 1 1.031 1.03l-2.916 2.917a.73.73 0 0 1-1.032 0l-1.458-1.458a.73.73 0 0 1 1.031-1.031l.943.943 2.4-2.401ZM21.156 23.75a.656.656 0 1 0 0 1.313h5.688a.656.656 0 0 0 0-1.313h-5.688Z" fill="#1A73E8"/>
  <path fill-rule="evenodd" clip-rule="evenodd" d="M31 22a7 7 0 1 1-14 0 7 7 0 0 1 14 0Zm-1.75 0a5.25 5.25 0 1 1-10.5 0 5.25 5.25 0 0 1 10.5 0Z" fill="#1A73E8"/>
</svg>
