<svg xmlns="http://www.w3.org/2000/svg" xml:space="preserve" style="enable-background:new 0 0 32 32" viewBox="0 0 32 32">
  <path d="M19.87 18.639a8.558 8.558 0 0 1 6.961-3.86L20.098 3h-9.154v.013L19.87 18.64Zm-.886 1.759h-6.501l-4.59 8.03h12.244a8.527 8.527 0 0 1-1.672-5.086c0-1.034.183-2.026.52-2.944ZM1 20.398 9.78 5.034s4.582 8.03 4.59 8.03l-8.78 15.35L1 20.398Zm28.076-1.06a.853.853 0 0 1 1.261 0 .997.997 0 0 1 0 1.346l-3.569 3.807a.853.853 0 0 1-1.261 0l-1.785-1.903a.997.997 0 0 1 0-1.346.853.853 0 0 1 1.262 0l1.154 1.23 2.938-3.134Zm-5.526 6.574c-.443 0-.803.383-.803.856s.36.857.803.857h6.96c.443 0 .803-.384.803-.857s-.36-.856-.803-.856h-6.96Z"/>
</svg>
