<svg version="1.1" id="empty_trash_folder" xmlns="http://www.w3.org/2000/svg" x="0" y="0" viewBox="0 0 200 100" xml:space="preserve">
  <path style="fill:var(--empty-folder-svg-folder-color)" d="M110.4 91.3H85.2c-1.9 0-3.4-1.5-3.5-3.5l-2-36.9c-.1-1.3.9-2.5 2.2-2.5h32c1.3 0 2.3 1.1 2.2 2.5l-2 36.9c-.2 1.9-1.8 3.5-3.7 3.5z"/>
  <path style="fill:var(--empty-folder-svg-dot-color)" d="M94.2 87.3a.8.8 0 0 1-.8-.8V53.2c0-.4.3-.8.8-.8s.8.3.8.8v33.3c0 .4-.4.8-.8.8zM88 87.2a.7.7 0 0 1-.7-.7l-1.7-33.3c0-.4.3-.8.7-.8.4 0 .8.3.8.7l1.7 33.3c-.1.5-.4.8-.8.8zM101.4 87.3a.8.8 0 0 1-.8-.8V53.2c0-.4.3-.8.8-.8s.8.3.8.8v33.3c-.1.4-.4.8-.8.8zM107.7 87.2c-.1 0-.1 0 0 0a.8.8 0 0 1-.8-.8l1.7-33.3c0-.4.4-.7.8-.7s.7.4.7.8l-1.7 33.3c0 .4-.3.7-.7.7z"/>
  <path style="fill:var(--empty-folder-svg-folder-color)" d="M115.8 38.7a4.4 4.4 0 0 0-5.5-3L78 44.9a4.4 4.4 0 0 0-3 5.5l.5 1.8 40.9-11.7-.6-1.8zM99.3 34.7a2.1 2.1 0 0 0-2.7-1.5l-8.1 2.3a2.1 2.1 0 0 0-1.5 2.7l.8 2.8 12.3-3.5-.8-2.8z"/>
  <path style="fill:var(--empty-folder-svg-dot-color)" d="M123.9 45.1c.5.8.2 1.9-.6 2.3-.8.5-1.9.2-2.3-.6-.5-.8-.2-1.9.6-2.3.8-.5 1.8-.2 2.3.6z"/>
  <path style="fill:var(--empty-folder-svg-folder-color)" d="m172.6 29.9-2 1c-.3.1-.6 0-.8-.3l-1-2c-.1-.3 0-.6.3-.8l2-1c.3-.1.6 0 .8.3l1 2c.1.3 0 .7-.3.8z"/>
  <path style="fill:var(--empty-folder-svg-ellipse-color)" d="M134.3 23.1a5 5 0 0 1-1.2-.2 4.6 4.6 0 0 1-1.2-8.4h.1a4.7 4.7 0 0 1 6.4 1.7c1.3 2.2.5 5.1-1.7 6.4h-.1a6 6 0 0 1-2.3.5zm0-8.2a4 4 0 0 0-1.8.5h-.1c-.8.5-1.4 1.2-1.6 2.1-.2.9-.1 1.9.4 2.7.5.8 1.2 1.4 2.1 1.6.9.2 1.9.1 2.7-.4h.1c1.7-1 2.2-3.1 1.3-4.8a3.7 3.7 0 0 0-3.1-1.7z"/>
  <path style="fill:var(--empty-folder-svg-dot-color)" d="M160 32.8c-.3-.7-.6-1.3-1.1-1.8a6.7 6.7 0 0 0-9.5-.9l-11.3 9.3a6.9 6.9 0 0 0-.9 9.5 6.7 6.7 0 0 0 4.5 2.4h.7c1.6 0 3-.5 4.3-1.5l11.3-9.3c2.3-2 3.1-5 2-7.7zm-2.8 6.6L146 48.7a5.2 5.2 0 0 1-4 1.2 5.1 5.1 0 0 1-3.7-2 6 6 0 0 1-.9-1.5 5.6 5.6 0 0 1 1.6-6.2l11.3-9.3c1-.8 2.2-1.2 3.5-1.2 1.6 0 3.2.7 4.2 2l.9 1.5c.8 2.2.1 4.7-1.7 6.2z"/>
  <path style="fill:var(--empty-folder-svg-file-color)" d="M51.9 51.5c2.3-.9 4.9.2 5.8 2.5v.1a4.5 4.5 0 1 1-8.3 3.3v-.1c-.9-2.3.2-4.9 2.5-5.8z"/>
  <g>
    <path style="fill:var(--empty-folder-svg-folder-color)" d="m42.4 23.2 8.6 9.9c.3.3.1.8-.3.9L38 36.2c-.4.1-.7-.3-.6-.7l4.1-12.1c.1-.4.7-.5.9-.2z"/>
  </g>
  <g>
    <path style="fill:var(--empty-folder-svg-folder-color)" d="M27.5 92.1c-.3 0-.5-.2-.5-.5s.2-.5.5-.5l144-.5c.3 0 .5.2.5.5s-.2.5-.5.5l-144 .5z"/>
  </g>
  <g>
    <path style="fill:var(--empty-folder-svg-ellipse-color)" d="M131.7 91.8a10 10 0 0 0-10-10 10 10 0 0 0-10 10"/>
  </g>
  <g>
    <path style="fill:var(--empty-folder-svg-dot-color)" d="M83.6 91.9a11 11 0 0 0-3.6-8.8 9.7 9.7 0 0 0-8.7-2.4c-3.3.7-6.3 3.2-9.7 3.2-2.5 0-4.9-1.4-7.4-1.7-4.8-.5-9.4 4.7-9.4 9.7h38.8z"/>
  </g>
</svg>
