<svg version="1.1" id="empty_folder" xmlns="http://www.w3.org/2000/svg" x="0" y="0" viewBox="0 0 200 100" style="enable-background:new 0 0 200 100" xml:space="preserve">
   <style>.file{fill-rule:evenodd;clip-rule:evenodd;}</style>
   <path d="M189 39.9h-4.9c-.3 0-.6.1-.7.4l-2.4 4.3c-.1.3-.1.6 0 .9l2.4 4.3c.1.3.4.4.7.4h4.9c.3 0 .6-.1.7-.4l2.4-4.3c.1-.3.1-.6 0-.9l-2.4-4.3c-.1-.3-.4-.4-.7-.4z" style="fill:var(--empty-folder-svg-dot-color)"/>
   <path class="file" d="m143.3 6.1-3.1 4.5c-.3.5-.8.9-1.3 1.2-.5.3-1.1.5-1.7.6-1.2.1-2.5-.2-3.6-.9 0 0-2-1.4-4.1-2.9l-.3-.2-6.8 9.6c-1.1 1.5-.7 3.6.8 4.7l15.4 10.9c1.5 1.1 3.6.7 4.7-.8l10.9-15.4c1.1-1.5.7-3.6-.8-4.7l-9.8-6.9-.3.3z" style="fill:var(--empty-folder-svg-file-color)"/>
   <path class="file" d="M136.9 10.7c-.8.1-1.6-.1-2.4-.6l-.1-.1-.4-.3-1.4-1-.8-.6 9.2-1.6-2.2 3.1c-.2.3-.5.5-.8.7-.3.2-.7.3-1.1.4z" style="fill:var(--empty-folder-svg-file-color)"/>
   <path d="M28.2 48.2a6 6 0 0 1 .2 8.5L18.7 67a6 6 0 1 1-8.7-8.3l9.8-10.4c2.2-2.3 6-2.4 8.4-.1z" style="fill:none;stroke:var(--empty-folder-svg-ellipse-color);stroke-width:3;stroke-linecap:round;stroke-linejoin:round;stroke-miterlimit:10"/>
   <path d="M38.4 90.6c2.9 0 5.2-2.3 5.2-5.2 0-2.9-2.3-5.2-5.2-5.2-2.9 0-5.2 2.3-5.2 5.2 0 2.9 2.3 5.2 5.2 5.2z" style="fill:var(--empty-folder-svg-dot-color)"/>
   <path d="M136 59.9c10-3.2 21-2.4 30.7 1.5 5.1 2 9.5 5.2 13.7 8.6 4 3.2 8.5 7.3 13.3 9.9" style="fill:none;stroke:var(--empty-folder-svg-folder-color);stroke-width:3;stroke-linecap:round;stroke-linejoin:round;stroke-miterlimit:10"/>
   <path d="M72.7 34.1c-3.9 0-6.6 3.2-6.6 6.8v34.3c0 3.9 2.6 6.6 6.6 6.6h45.7c2.6 0 5.2-2.6 5.2-6.6V46c0-3.2-2.6-5.2-5.2-5.2H94.9l-5.2-6.7h-17z" style="fill:var(--empty-folder-svg-folder-color)"/>
</svg>
