<svg xmlns="http://www.w3.org/2000/svg" xml:space="preserve" id="empty_search_results" x="0" y="0" style="enable-background:new 0 0 200 100" version="1.1" viewBox="0 0 200 100"><circle cx="90.9" cy="45.7" r="20.6" style="fill:var(--empty-folder-svg-folder-color);"/><path d="m153.3 10-3.2 1-5 1.6-2.5.8-3.3-2.3-7.7 2.4c-1.8.6-2.5 2.4-2 4l4.9 15.6c.6 1.8 2.1 2.6 3.9 2l20.8-6.5c1.2-.4 2-1.9 1.4-3.7l-4.1-13.2c-.5-1.5-2-2-3.2-1.7z" style="fill:var(--empty-folder-svg-folder-color)"/><path d="M92.3 50.1c-.6-.8-1-1.7-1.1-2.7-.1-1.2 0-2.4.2-3.6.2-.9.3-1.9.3-2.8-.1-.7-.3-1.5-.8-2.1-.6-.8-1.5-1.4-2.5-1.5-1.1-.1-2.1.2-3 .9-.8.5-1.4 1.4-1.6 2.4-.2 1-.1 1.9.2 2.8l-2.8.7c-.4-1.4-.5-2.9-.1-4.3.4-1.6 1.3-3 2.7-3.9 1-.7 2.2-1.2 3.4-1.5 2.3-.4 4.6.6 6 2.5.7.9 1.1 2 1.1 3.2 0 1.2-.1 2.4-.4 3.6-.2.8-.2 1.7-.2 2.5.2.7.5 1.4.9 2.1l.8 1.1-2.4 1.8-.7-1.2zm4.8 6.6c-1.2-.2-2-1.3-1.8-2.5.2-1.2 1.3-1.9 2.5-1.8.6 0 1.1.3 1.4.8.4.4.5 1 .4 1.6 0 .6-.3 1.1-.8 1.4-.5.4-1.1.6-1.7.5zM180.3 40.9h-5.7c-.4 0-.7.1-.8.5l-2.8 5c-.1.4-.1.7 0 1.1l2.8 5c.1.4.5.5.8.5h5.7c.4 0 .7-.1.8-.5l2.8-5c.1-.4.1-.7 0-1.1l-2.8-5c-.1-.4-.5-.5-.8-.5z" style="fill:var(--empty-folder-svg-dot-color);"/><path d="M36.1 51c2.8 2.7 2.9 7.1.2 10L25 73c-2.7 2.8-7.1 2.9-10 .2s-2.9-7.1-.2-10L26.3 51c2.5-2.6 7-2.7 9.8 0z" style="fill:none;stroke:var(--empty-folder-svg-ellipse-color);stroke-width:1.5;stroke-linecap:round;stroke-linejoin:round;stroke-miterlimit:10"/><path d="M56 82.8c3.4 0 6.1-2.7 6.1-6.1 0-3.4-2.7-6.1-6.1-6.1-3.4 0-6.1 2.7-6.1 6.1 0 3.4 2.7 6.1 6.1 6.1z" style="fill:var(--empty-folder-svg-dot-color);"/><path d="M127.2 56.5c12.1-2.1 24.7.7 35.3 6.8 5.6 3.2 10.2 7.6 14.5 12.2 4.1 4.4 8.7 9.9 13.8 13.7" style="fill:none;stroke:var(--empty-folder-svg-folder-color);stroke-width:1.5;stroke-linecap:round;stroke-linejoin:round;stroke-miterlimit:10"/><circle cx="90.9" cy="45.7" r="24.4" style="fill:none;stroke:var(--empty-folder-svg-ellipse-color);stroke-width:1.4;stroke-miterlimit:10;"/><path stroke-width="1.4000279999999998" d="m103.881 66.573 3.753-2.83 8.006 10.622-3.754 2.829z" style="fill:none;stroke:var(--empty-folder-svg-dot-color);stroke-width:1.4;stroke-miterlimit:10;"/><path d="M124.3 89.3c-2.2 1.7-5.3 1.2-7-1l-8.6-11.4c-.5-.6-.3-1.5.3-2l5.7-4.3c.6-.5 1.5-.3 2 .3l8.6 11.4c1.6 2.2 1.2 5.3-1 7z" style="fill:var(--empty-folder-svg-dot-color);"/><path d="m110 78.6 8-6" style="fill:none;stroke:var(--empty-folder-svg-ellipse-color);stroke-width:1.4;stroke-miterlimit:10"/><path d="m25 15.2 2.8 7.3c1.7 4.4 6.3 7 11 6.2h0c4.3-.8 8.7 1.4 10.6 5.3l2.1 4.3" style="fill:none;stroke:var(--empty-folder-svg-file-color);stroke-width:1.5;stroke-linecap:round;stroke-linejoin:round;stroke-miterlimit:10"/></svg>
