<svg xmlns="http://www.w3.org/2000/svg" width="20" height="20"><path d="M8.746 12.54h2.508l-.465-2.708c.234-.129.418-.316.55-.555.134-.238.2-.5.2-.789 0-.422-.148-.781-.45-1.082a1.51 1.51 0 0 0-1.093-.445c-.426 0-.789.148-1.09.45-.297.3-.445.663-.445 1.089 0 .285.066.543.2.781.132.239.316.422.55.551ZM10 18.175c-1.926-.469-3.52-1.551-4.777-3.25-1.262-1.7-1.891-3.582-1.891-5.656V4.387L10 1.824l6.668 2.563V9.27c0 2.074-.629 3.957-1.89 5.656-1.258 1.699-2.852 2.781-4.778 3.25Zm0-1.793c1.422-.469 2.602-1.363 3.535-2.688a7.477 7.477 0 0 0 1.406-4.425V5.566L10 3.676l-4.941 1.89V9.27c0 1.628.468 3.101 1.406 4.425.933 1.325 2.113 2.22 3.535 2.688Zm0-6.352Zm0 0" style="stroke:none;fill-rule:nonzero;fill:#000;fill-opacity:1"/></svg>