<svg id="holding_space" viewBox="0 0 48 48" fill="none" xmlns="http://www.w3.org/2000/svg">
  <g clip-path="url(#clip0_1307_57555)">
    <path d="M0 24C0 17.6348 2.52856 11.5303 7.02944 7.02944C11.5303 2.52856 17.6348 0 24 0C30.3652 0 36.4697 2.52856 40.9706 7.02944C45.4714 11.5303 48 17.6348 48 24C48 30.3652 45.4714 36.4697 40.9706 40.9706C36.4697 45.4714 30.3652 48 24 48C17.6348 48 11.5303 45.4714 7.02944 40.9706C2.52856 36.4697 0 30.3652 0 24Z" fill="var(--holding-space-svg-color-1)"/>
    <path d="M23 30H25V40L24 41L23 40V30Z" fill="white"/>
    <path fill-rule="evenodd" clip-rule="evenodd" d="M20 10C19.2044 10 18.4413 10.3161 17.8787 10.8787C17.3161 11.4413 17 12.2044 17 13V24L15.21 27.1C15.0562 27.4052 14.9832 27.7448 14.998 28.0862C15.0127 28.4277 15.1147 28.7597 15.2942 29.0505C15.4737 29.3413 15.7248 29.5813 16.0234 29.7475C16.322 29.9138 16.6583 30.0007 17 30H31C31.3418 30.0007 31.6781 29.9138 31.9767 29.7475C32.2753 29.5813 32.5264 29.3413 32.7059 29.0505C32.8854 28.7597 32.9874 28.4277 33.0021 28.0862C33.0169 27.7448 32.9438 27.4052 32.79 27.1L31 24V13C31 12.2044 30.684 11.4413 30.1214 10.8787C29.5587 10.3161 28.7957 10 28 10H20Z" fill="var(--holding-space-svg-color-2)"/>
    <path fill-rule="evenodd" clip-rule="evenodd" d="M32.829 1.68311C32.5122 1.55777 32.1927 1.43917 31.8707 1.32739C31.8292 1.68844 31.8081 2.05325 31.8081 2.42018C31.8081 4.90224 32.7734 7.28701 34.5 9.07018C35.3437 9.94112 36.3539 10.6336 37.4705 11.1065C38.5871 11.5795 39.7874 11.8232 41 11.8232C42.1305 11.8232 43.2502 11.6114 44.3014 11.1995C44.1188 10.9098 43.9298 10.6238 43.7345 10.3416C42.8585 10.6571 41.9333 10.819 41 10.819C39.9177 10.819 38.8465 10.6014 37.8501 10.1789C36.8537 9.75652 35.9525 9.138 35.2 8.36018C33.6586 6.76899 32.7967 4.64053 32.7967 2.42518C32.7967 2.17652 32.8076 1.92895 32.829 1.68311Z" fill="var(--holding-space-svg-color-2)"/>
    <path fill-rule="evenodd" clip-rule="evenodd" d="M40 31C40.2652 31 40.5196 30.8946 40.7071 30.7071C40.8946 30.5196 41 30.2652 41 30C41 29.7348 40.8946 29.4804 40.7071 29.2929C40.5196 29.1054 40.2652 29 40 29C39.7348 29 39.4804 29.1054 39.2929 29.2929C39.1054 29.4804 39 29.7348 39 30C39 30.2652 39.1054 30.5196 39.2929 30.7071C39.4804 30.8946 39.7348 31 40 31ZM40 32C40.5304 32 41.0391 31.7893 41.4142 31.4142C41.7893 31.0391 42 30.5304 42 30C42 29.4696 41.7893 28.9609 41.4142 28.5858C41.0391 28.2107 40.5304 28 40 28C39.4696 28 38.9609 28.2107 38.5858 28.5858C38.2107 28.9609 38 29.4696 38 30C38 30.5304 38.2107 31.0391 38.5858 31.4142C38.9609 31.7893 39.4696 32 40 32Z" fill="var(--hoding-space-svg-color-3)"/>
    <path fill-rule="evenodd" clip-rule="evenodd" d="M18.7687 47.423C19.0155 46.2984 19.066 45.135 18.9141 43.9859C18.7011 42.3739 18.0966 40.8408 17.1549 39.5244C15.7678 37.5991 13.6818 36.1604 11.3873 35.6314L9.08232 34.8169C7.04791 34.0985 5.37346 32.5976 4.42024 30.6382L3.2104 28.1628L2.6159 27.1049C2.06921 26.2886 1.3605 25.5971 0.535138 25.0747C0.364923 24.9669 0.190522 24.8668 0.0124512 24.7747C0.026184 25.2003 0.0512049 25.6245 0.0873458 26.0469C0.538548 26.3456 0.951336 26.7076 1.31219 27.126L1.32262 27.1366C1.47138 27.3048 1.61066 27.4814 1.73981 27.6656L2.28215 28.66L3.48157 31.1143C4.55897 33.3183 6.44666 35.0051 8.73814 35.8113L11.0953 36.647H11.1057L11.1683 36.6682C13.2313 37.1752 15.052 38.4038 16.3101 40.138C17.5933 41.9013 18.1672 44.0937 17.9154 46.2704C17.8801 46.5759 17.8289 46.8779 17.7623 47.1753C18.0957 47.265 18.4312 47.3476 18.7687 47.423Z" fill="var(--holding-space-svg-color-4)"/>
    <path d="M5.24458 19.9754C4.59852 19.6077 4.56531 18.6886 5.18314 18.2752L7.48027 16.7382C8.09811 16.3248 8.93499 16.7061 9.02845 17.4436L9.41693 20.5092C9.52052 21.3268 8.64636 21.9117 7.93019 21.504L5.24458 19.9754Z" fill="var(--holding-space-svg-color-5)"/>
  </g>
  <defs>
    <clipPath id="clip0_1307_57555">
      <rect width="48" height="48" fill="white"/>
    </clipPath>
  </defs>
</svg>
