<svg id="odfs_reauthentication_required" xmlns="http://www.w3.org/2000/svg" x="0" y="0" viewBox="0 0 200 100" xml:space="preserve" fill="none">
<path d="M123.7 57.3004C123.7 49.8004 119.4 43.2004 113.2 39.9004C104 41.6004 97 49.6004 97 59.2004V92.7004H123.6L123.7 57.3004Z" fill="var(--cros-sys-illo-color1)" />
<path d="M105.9 76.6996C107.5 74.6996 107.2 71.6996 105.2 70.0996L105.1 69.9997L96.1001 62.9997C94.0001 61.3997 90.9001 61.7997 89.3001 63.8997C87.7001 65.9997 88.0001 68.9996 90.1001 70.6996C90.1001 70.6996 90.1001 70.6997 90.2001 70.7997L99.2001 77.6996C101.2 79.2996 104.2 78.9997 105.8 76.9997C105.8 76.7996 105.8 76.7996 105.9 76.6996Z" fill="var(--cros-sys-illo-color1-2)" />
<path d="M84.5 75.6002V57.3002C84.5 46.5002 93.3 37.7002 104.1 37.7002C114.9 37.7002 123.7 46.5002 123.7 57.3002V92.7002H84.5V75.6002Z" stroke="var(--cros-sys-illo-color1)" stroke-width="1.5" stroke-miterlimit="10" stroke-linecap="round" />
<path d="M115.7 66.0996C115.3 66.0996 114.8 66.1996 114.5 66.4996L108.9 72.4996C108.6 72.7996 108.4 73.2996 108.6 73.7996L110.8 81.5996C111 81.9996 111.4 82.3996 111.8 82.5996L119.8 84.4996C120.3 84.6996 120.8 84.4996 121 84.0996L123.2 81.7996V67.8996L115.7 66.0996Z" fill="var(--cros-sys-illo-secondary)" />
<path d="M59.5 42.4004L56.9001 44.7004L59.2001 47.3004L55.3 50.7004L57.6 53.3004L61.5 49.9004L66.2 55.4004C64.8 57.6004 65.0001 60.5004 66.8001 62.6004C69.0001 65.1004 72.8001 65.4004 75.3001 63.1004C77.8001 60.9004 78.1001 57.1004 75.8001 54.6004C74.0001 52.5004 71.1 52.0004 68.7 53.1004L59.5 42.4004ZM69.6 56.7004C70.7 55.8004 72.3001 55.9004 73.3001 56.9004C74.2001 58.0004 74.1 59.6004 73.1 60.6004C72 61.5004 70.4001 61.4004 69.4001 60.4004C68.4001 59.3004 68.5 57.6004 69.6 56.7004Z" fill="var(--cros-sys-illo-color3)" />
<path d="M135.6 44.2996C136.76 44.2996 137.7 43.3594 137.7 42.1996C137.7 41.0398 136.76 40.0996 135.6 40.0996C134.44 40.0996 133.5 41.0398 133.5 42.1996C133.5 43.3594 134.44 44.2996 135.6 44.2996Z" fill="var(--cros-sys-illo-color5)" />
<path d="M157.6 47.2004L153 39.8004C152.4 38.9004 152.7 37.6004 153.6 37.0004L161.1 32.3004C162 31.7004 163.3 32.0004 163.9 32.9004L168.5 40.3004C169.1 41.2004 168.8 42.5004 167.9 43.1004L160.4 47.8004C159.4 48.5004 158.2 48.2004 157.6 47.2004Z" fill="var(--cros-sys-illo-color3)" />
<path d="M141.7 26.4996C144.572 26.4996 146.9 24.1715 146.9 21.2996C146.9 18.4277 144.572 16.0996 141.7 16.0996C138.828 16.0996 136.5 18.4277 136.5 21.2996C136.5 24.1715 138.828 26.4996 141.7 26.4996Z" fill="var(--cros-sys-illo-color1)" />
<path d="M27.4 23.8008C27.1 23.8008 26.7 23.8008 26.4 23.9008C24.8 24.2008 23.4 25.1008 22.5 26.6008C21.7 27.9008 21.5 29.6008 22 31.2008C22.3 32.2008 22.8 33.1008 23.6 33.7008C27.5 32.7008 30.6 29.6008 31.8 25.8008C31.6 25.6008 31.4 25.4008 31.2 25.3008C30.1 24.3008 28.8 23.8008 27.4 23.8008Z" fill="var(--cros-sys-illo-color2)" />
<path d="M52.4999 36.4C51.8999 33.7 50.1999 31.4 47.8999 30C46.7999 29.4 45.5999 29 44.0999 28.8C42.8999 28.7 41.6999 28.6 40.5999 28.6H39.5999C37.7999 28.6 35.9999 27.8 34.6999 26.5C34.4999 26.3 34.2999 26 34.0999 25.8C33.4999 25.2 32.8999 24.6 32.2999 24C32.1999 24.6 32.0999 25.1 31.8999 25.7C32.2999 26.1 32.5999 26.4 32.9999 26.8C33.1999 27 33.3999 27.3 33.6999 27.5C35.2999 29.1 37.3999 30 39.5999 30H40.5999C41.6999 30 42.8999 30 43.9999 30.1C45.2999 30.3 46.2999 30.6 47.1999 31.1C49.1999 32.3 50.5999 34.3 51.0999 36.6C51.5999 38.9 51.1999 41.3 49.7999 43.2C47.4999 46.6 42.8999 47.9 39.1999 46.1C37.8999 45.5 36.8999 44.6 36.0999 43.5C35.4999 42.7 34.9999 41.8 34.4999 40.8C34.2999 40.4 34.0999 40 33.7999 39.6C32.8999 37.9 31.3999 36.6 29.4999 35.9C28.7999 35.6 28.0999 35.4 27.3999 35.2C26.4999 34.9 25.5999 34.7 24.7999 34.3C24.3999 34.1 23.9999 33.8 23.5999 33.5C22.9999 33.7 22.3999 33.8 21.7999 33.8C22.3999 34.6 23.1999 35.2 23.9999 35.6C24.8999 36.1 25.8999 36.3 26.7999 36.6C27.4999 36.8 28.0999 37 28.7999 37.2C30.2999 37.8 31.5999 38.9 32.2999 40.2C32.4999 40.6 32.6999 41 32.8999 41.4C33.3999 42.4 33.8999 43.3 34.5999 44.3C35.5999 45.6 36.7999 46.7 38.2999 47.4C39.6999 48 41.0999 48.4 42.4999 48.4C45.6999 48.4 48.8999 46.8 50.7999 44.1C52.4999 41.9 53.0999 39.1 52.4999 36.4Z" fill="var(--cros-sys-illo-color1-2)" />
<path d="M21.2 25.8004C22.3 24.0004 24 22.8004 26.1 22.4004C28.2 22.0004 30.4 22.6004 32.1 24.0004C32.2 23.4004 32.2 22.8004 32.2 22.2004C32.2 15.7004 26.9 10.4004 20.4 10.4004C13.9 10.4004 8.59998 15.7004 8.59998 22.2004C8.69998 28.8004 14 34.0004 20.5 34.0004C20.9 34.0004 21.4 34.0004 21.8 33.9004C21.2 33.2004 20.8 32.4004 20.6 31.5004C20 29.6004 20.2 27.5004 21.2 25.8004Z" fill="var(--cros-sys-illo-color2)" />
<path d="M22 31.1004C21.5 29.5004 21.7 27.9004 22.5 26.5004C23.4 25.1004 24.7 24.1004 26.4 23.8004C26.7 23.7004 27.1 23.7004 27.4 23.7004C28.8 23.7004 30.1 24.2004 31.2 25.1004C31.4 25.3004 31.6 25.5004 31.8 25.6004C32 25.1004 32.1 24.5004 32.2 23.9004C30.5 22.5004 28.3 21.9004 26.2 22.3004C24.1 22.7004 22.4 23.9004 21.3 25.7004C20.3 27.4004 20 29.5004 20.6 31.5004C20.9 32.4004 21.3 33.2004 21.8 33.9004C22.4 33.8004 23 33.7004 23.6 33.6004C22.8 33.0004 22.3 32.1004 22 31.1004Z" fill="var(--cros-sys-illo-base)" />
</svg>