<svg id="odfs_frozen_account" xmlns="http://www.w3.org/2000/svg" viewBox="0 0 200 100" xml:space="preserve" fill="none">
<path d="M194 59.999C197.314 59.999 200 57.3127 200 53.999C200 50.6853 197.314 47.999 194 47.999C190.686 47.999 188 50.6853 188 53.999C188 57.3127 190.686 59.999 194 59.999Z" fill="var(--cros-sys-illo-color3)"/>
<path d="M13.626 14.5788L0.78066 24.2145C0.16416 24.677 0.27916 25.5797 0.95266 25.8352L15.2626 31.5318C15.9361 31.7873 16.6554 31.2477 16.5985 30.5297L15.1338 15.1973C15.0404 14.4306 14.1911 14.1548 13.626 14.5788Z" fill="var(--cros-sys-illo-color1-2)"/>
<path d="M191.635 27.9106C193.065 26.9587 193.245 25.0328 192.154 23.781C185.228 16.0913 173.691 14.3943 164.769 20.2447C155.947 26.1149 152.861 37.3707 157.184 46.7064C157.918 48.1962 159.764 48.7735 161.076 47.9009L191.635 27.9106Z" fill="var(--cros-sys-illo-color1-2)"/>
<path d="M152.949 32.9237C164.944 32.8539 174.629 42.7498 174.561 54.9214L174.6 55.2391C174.453 67.2915 164.655 76.9932 152.6 76.8445C140.545 76.6959 130.84 66.8993 130.988 54.8469L130.948 54.5292C130.977 42.5561 140.874 32.8744 152.949 32.9237Z" stroke="var(--cros-sys-illo-color1)" stroke-width="2" stroke-linecap="round" stroke-linejoin="round" stroke-dasharray="3.61 3.61"/>
<path d="M106.119 69.2059C105.604 67.1356 105.549 65.3246 105.955 63.7729C106.392 62.1695 107.413 60.1788 109.02 57.8007C110.265 55.9086 111.11 54.3574 111.557 53.1473C112.034 51.8854 112.088 50.5092 111.717 49.0186C111.223 47.0311 110.185 45.5965 108.603 44.7149C107.01 43.7919 105.075 43.6135 102.798 44.1798C100.728 44.6945 99.2405 45.7016 98.3385 47.2009C97.4265 48.6589 96.8755 50.3346 96.6865 52.228L91.2705 51.3985C91.5015 48.791 92.4465 46.3138 94.1055 43.9669C95.7535 41.5786 98.2345 39.9726 101.547 39.1489C104.031 38.5312 106.355 38.5031 108.517 39.0647C110.71 39.5745 112.545 40.591 114.023 42.1141C115.542 43.6268 116.575 45.4805 117.121 47.675C117.512 49.2484 117.546 50.8007 117.223 52.3318C116.89 53.8215 116.438 55.099 115.868 56.1641C115.329 57.1775 114.597 58.3925 113.675 59.809C112.617 61.391 111.896 62.8233 111.512 64.106C111.168 65.3784 111.182 66.7599 111.553 68.2505L112.201 70.859L106.86 72.1871L106.119 69.2059ZM112.882 85.0007C111.805 85.2684 110.781 85.1274 109.809 84.5777C108.868 83.9763 108.259 83.1166 107.981 81.9987C107.713 80.9221 107.859 79.9185 108.419 78.9879C109.01 78.0056 109.844 77.3806 110.921 77.1129C112.039 76.8349 113.068 76.9966 114.009 77.598C114.981 78.1477 115.601 78.9608 115.869 80.0374C116.147 81.1553 115.99 82.2055 115.399 83.1878C114.839 84.1184 114 84.7227 112.882 85.0007Z" fill="var(--cros-sys-illo-color1-2)"/>
<path d="M57.3399 77.4977L52.2765 62.8173C51.3651 60.1849 52.7828 57.2488 55.4158 56.3376L70.0996 51.2754C72.7325 50.3642 75.6693 51.7817 76.5807 54.414L81.6441 69.0944C82.5555 71.7268 81.1378 74.6629 78.5048 75.5741L63.821 80.6363C61.188 81.5475 58.2513 80.1301 57.3399 77.4977Z" fill="var(--cros-sys-illo-color1)"/>
<path d="M36.8435 26.2944L22.4635 35.8114C20.1343 37.3301 18.8179 39.9624 19.0204 42.696L20.0331 59.9076C20.2356 62.6412 21.8559 65.071 24.2863 66.286L39.679 73.9805C42.1094 75.1954 45.0462 74.993 47.3754 73.4743L61.7553 63.9573C64.0845 62.4387 65.401 59.8063 65.1984 57.0727L64.1858 39.8612C63.9832 37.1276 62.363 34.6977 59.9325 33.4828L44.5398 25.7882C42.0081 24.5733 39.0714 24.7758 36.8435 26.2944Z" stroke="var(--cros-sys-illo-secondary)" stroke-width="2" stroke-miterlimit="10" stroke-linecap="round" stroke-linejoin="round"/>
</svg>