<svg xmlns="http://www.w3.org/2000/svg" xml:space="preserve" style="enable-background:new 0 0 20 20" viewBox="0 0 20 20">
  <path d="M11.9 6.2c.3-.3.9-.3 1.2 0 .3.3.3.9 0 1.2l-3.3 3.3c-.3.3-.9.3-1.2 0L6.9 9.1c-.3-.3-.3-.9 0-1.2.3-.3.8-.3 1.2 0L9.2 9l2.7-2.8zM6.8 12c-.5 0-.8.3-.8.8s.3.8.8.8h6.5c.4 0 .8-.3.8-.8s-.4-.8-.9-.8H6.8z"/>
  <path d="M18 10c0 4.4-3.6 8-8 8s-8-3.6-8-8 3.6-8 8-8 8 3.6 8 8zm-2 0c0 3.3-2.7 6-6 6s-6-2.7-6-6 2.7-6 6-6 6 2.7 6 6z" style="fill-rule:evenodd;clip-rule:evenodd"/>
</svg>
