<svg xmlns="http://www.w3.org/2000/svg" width="20" height="20" viewBox="0 0 20 20">
  <path d="M7.5 11c2.1058 0 6.279 1.0336 6.4916 3.0859L14 14.25V17H1v-2.75C1 12.0887 5.3388 11 7.5 11zm4.4947 3.3433c-.008.0043-.0254-.0087-.0618-.0422l-.0897-.0765c-.2273-.1805-.5796-.3746-1.026-.5533C9.7915 13.2607 8.4275 13 7.5 13c-.9275 0-2.2915.2607-3.3172.6713-.4464.1787-.7987.3728-1.026.5533l-.0897.0765c-.0486.0447-.0633.0528-.0671.0324V15h9v-.6665l-.0053.0098zM17 6v2h2v2h-2v2h-2v-2h-2V8h2V6h2zM7.5 3C9.425 3 11 4.575 11 6.5S9.425 10 7.5 10 4 8.425 4 6.5 5.575 3 7.5 3zm0 2C6.6796 5 6 5.6796 6 6.5S6.6796 8 7.5 8 9 7.3204 9 6.5 8.3204 5 7.5 5z"/>
</svg>
