<svg xmlns="http://www.w3.org/2000/svg" xml:space="preserve" style="enable-background:new 0 0 32 32" viewBox="0 0 32 32"><path d="M28.1 14.7h-6.4c1-1.3 1.5-3 1.5-4.8 0-4.2-3.5-7.6-7.2-7.6-.9 0-1.7.8-1.7 1.8v6.4C13 9.5 11.3 9 9.5 9 5.4 9 2 12.4 2 16.2c0 .9.8 1.7 1.8 1.7h6.4c-1 1.3-1.5 3-1.5 4.8 0 4.2 3.5 7.6 7.2 7.6.9 0 1.7-.8 1.7-1.8V22c1.3.9 3 1.5 4.8 1.5 4.2 0 7.6-3.5 7.6-7.2 0-.8-.9-1.6-1.9-1.6zM16 16.3zm1.5-10.2c1.5.7 2.6 2.3 2.6 3.8 0 1-.3 2-.9 2.7l-1.7 2V6.1zm-7.9 6c1 0 2 .3 2.7.9l2 1.7H5.8c.6-1.5 2.2-2.6 3.8-2.6zm2.2 10.5c0-1 .3-2 .9-2.7l1.7-2v8.6c-1.5-.7-2.6-2.3-2.6-3.9zm10.5-2.1c-1 0-2-.3-2.7-.9l-2-1.7h8.6c-.7 1.5-2.3 2.6-3.9 2.6z" style="fill-rule:evenodd;clip-rule:evenodd"/></svg>
