<svg xmlns="http://www.w3.org/2000/svg" width="20" height="20" fill="none"><path fill="#5F6368" fill-rule="evenodd" d="M2 10c0-4.424 3.576-8 8-8 4.424 0 8 3.576 8 8 0 4.424-3.576 8-8 8-4.424 0-8-3.576-8-8Zm2 0c0 3.3075 2.6925 6 6 6s6-2.6925 6-6-2.6925-6-6-6-6 2.6925-6 6Zm7.8011 1.801-5.73958 2.1375 2.1375-5.7396 5.73958-2.1375-2.1375 5.7396Zm-2.47395-1.1083c.18472.1847.40903.2704.67295.2572.2639 0 .4882-.0923.6729-.277.1847-.1848.2771-.4091.2771-.67296 0-.26389-.0924-.48819-.2771-.67291-.1847-.18473-.409-.27709-.6729-.27709-.26392 0-.48823.09236-.67295.27709-.18472.18472-.27708.40902-.27708.67291 0 .26386.09236.49476.27708.69276Z" clip-rule="evenodd"/></svg>