<svg xmlns="http://www.w3.org/2000/svg" width="20" height="20" viewBox="0 0 20 20">
  <path d="M14 12c-.79 0-1.5.31-2.03.81L7.91 10.7c.05-.23.09-.46.09-.7 0-.24-.04-.47-.09-.7l4.05-2.11c.53.5 1.25.81 2.04.81 1.66 0 3-1.34 3-3s-1.34-3-3-3-3 1.34-3 3c0 .24.04.48.09.7L7.04 7.81C6.5 7.31 5.79 7 5 7c-1.66 0-3 1.34-3 3s1.34 3 3 3c.79 0 1.5-.31 2.04-.81l4.05 2.12c-.05.22-.09.45-.09.69 0 1.66 1.34 3 3 3s3-1.34 3-3-1.34-3-3-3zm0-8c.55 0 1 .45 1 1s-.45 1-1 1-1-.45-1-1 .45-1 1-1zm-9 7c-.55 0-1-.45-1-1s.45-1 1-1 1 .45 1 1-.45 1-1 1zm9 5c-.55 0-1-.45-1-1s.45-1 1-1 1 .45 1 1-.45 1-1 1z"/>
</svg>
