<?xml version="1.0" standalone="no"?>
<!DOCTYPE svg PUBLIC "-//W3C//DTD SVG 20010904//EN"
 "http://www.w3.org/TR/2001/REC-SVG-20010904/DTD/svg10.dtd">
<svg version="1.0" xmlns="http://www.w3.org/2000/svg"
 width="148.000000pt" height="160.000000pt" viewBox="0 0 148.000000 160.000000"
 preserveAspectRatio="xMidYMid meet">
<metadata>
Created by potrace 1.16, written by Peter Selinger 2001-2019
</metadata>
<g transform="translate(0.000000,160.000000) scale(0.100000,-0.100000)"
fill="#000000" stroke="none">
<path d="M623 1346 c-88 -22 -164 -66 -234 -135 -275 -274 -153 -727 225 -836
80 -23 228 -16 306 14 188 74 320 266 320 465 0 138 -46 252 -142 352 -123
128 -303 181 -475 140z m299 -73 c90 -42 133 -76 184 -145 57 -77 86 -167 86
-266 1 -98 -20 -171 -70 -248 -195 -301 -635 -272 -790 53 -36 76 -37 81 -37
194 0 113 1 116 38 192 46 93 115 166 198 207 82 42 119 49 229 47 83 -2 104
-7 162 -34z"/>
<path d="M453 1162 c-62 -59 -97 -119 -117 -198 -25 -95 -30 -90 92 -103 59
-6 128 -14 155 -18 44 -5 47 -4 47 16 0 30 17 62 46 87 l25 20 -88 122 c-48
67 -93 121 -100 122 -6 0 -34 -21 -60 -48z"/>
<path d="M871 1090 l-89 -120 34 -34 c24 -24 34 -43 34 -65 0 -18 5 -31 13
-31 6 0 77 7 156 16 l143 17 -6 50 c-11 79 -58 170 -120 232 -30 30 -60 55
-66 55 -5 0 -50 -54 -99 -120z"/>
<path d="M710 927 c-13 -7 -31 -24 -39 -38 -30 -54 29 -119 92 -104 54 14 73
77 35 118 -29 32 -56 40 -88 24z"/>
<path d="M608 636 c-32 -74 -58 -139 -58 -144 0 -6 21 -19 48 -29 68 -26 229
-25 294 2 l47 20 -62 143 c-49 113 -65 141 -77 135 -19 -9 -100 -10 -120 0
-12 5 -28 -22 -72 -127z"/>
<path d="M0 60 l0 -60 740 0 740 0 0 60 0 60 -740 0 -740 0 0 -60z m205 0 c3
-5 11 -10 16 -10 6 0 8 4 5 8 -2 4 8 8 24 7 15 0 26 -4 22 -9 -3 -5 2 -7 11
-3 9 3 18 3 21 -1 9 -14 -98 -10 -112 4 -7 8 -9 14 -3 14 5 0 13 -4 16 -10z
m1138 -17 c-7 -2 -19 -2 -25 0 -7 3 -2 5 12 5 14 0 19 -2 13 -5z"/>
</g>
</svg>
