<svg width="32" height="32" fill="none" xmlns="http://www.w3.org/2000/svg"><path fill-rule="evenodd" clip-rule="evenodd" d="M14.4 16h3.2V9.6h-3.2V16zM16 3.2C8.934 3.2 3.2 8.934 3.2 16c0 7.066 5.734 12.8 12.8 12.8 7.066 0 12.8-5.734 12.8-12.8 0-7.066-5.734-12.8-12.8-12.8zm0 22.4c-5.292 0-9.6-4.308-9.6-9.6s4.308-9.6 9.6-9.6 9.6 4.308 9.6 9.6-4.308 9.6-9.6 9.6zm-1.6-3.2h3.2v-3.2h-3.2v3.2z" fill="#202124"/><circle cx="16" cy="16" r="16" fill="#FEF7E0"/><path d="M15 18h2v-4h-2v4zM17 21h-2v-2h2v2z" fill="#E37400"/><path fill-rule="evenodd" clip-rule="evenodd" d="M15.132 8.504a1 1 0 011.736 0l8 14A1 1 0 0124 24H8a1 1 0 01-.868-1.496l8-14zM16 11.016L9.723 22h12.554L16 11.016z" fill="#E37400"/></svg>
