<svg width="270" height="117" xmlns="http://www.w3.org/2000/svg" xmlns:xlink="http://www.w3.org/1999/xlink"><defs><linearGradient x1="22.739%" y1="50%" x2="50%" y2="50%" id="a"><stop stop-color="#E8EAED" offset="0%"/><stop stop-color="#FFF" offset="100%"/></linearGradient><path id="b" d="M0 .195h94.65v14.023H0z"/><path id="d" d="M.062.195h136.716v14.023H.062z"/><path id="f" d="M0 116.114h217.344V.426H0z"/><path d="M35.238 19.048h-2.857v-7.62a3.808 3.808 0 0 0-3.81-3.809h-7.619V4.762A4.764 4.764 0 0 0 16.19 0a4.764 4.764 0 0 0-4.761 4.762v2.857h-7.62a3.792 3.792 0 0 0-3.79 3.81l-.01 7.238h2.848A5.146 5.146 0 0 1 8 23.81a5.146 5.146 0 0 1-5.143 5.142H.01L0 36.19A3.808 3.808 0 0 0 3.81 40h7.238v-2.857A5.146 5.146 0 0 1 16.19 32a5.146 5.146 0 0 1 5.143 5.143V40h7.238a3.808 3.808 0 0 0 3.81-3.81v-7.619h2.857A4.764 4.764 0 0 0 40 23.81a4.764 4.764 0 0 0-4.762-4.762z" id="h"/><path id="j" d="M0 0h12v12H0z"/></defs><g fill="none" fill-rule="evenodd"><path fill="url(#a)" transform="matrix(-1 0 0 1 57 0)" d="M0 109h57v7H0z"/><g transform="translate(51)"><path d="M.79 104.807V5.166a3.954 3.954 0 0 1 3.95-3.95h15.503v103.59H.79z" fill="#F8F9FA"/><path d="M21.033.426H4.74A4.74 4.74 0 0 0 0 5.166v100.43h21.033V.426zm-1.58 1.58v102.01H1.58V5.167a3.164 3.164 0 0 1 3.16-3.16h14.713z" fill="#E8EAED"/><path d="M7.801 104.807V5.166a3.954 3.954 0 0 1 3.95-3.95h123.73a3.954 3.954 0 0 1 3.95 3.95v99.64H7.801z" fill="#FFF"/><path d="M135.482.426H11.751a4.74 4.74 0 0 0-4.74 4.74v100.43h133.21V5.166a4.74 4.74 0 0 0-4.739-4.74m0 1.58a3.163 3.163 0 0 1 3.16 3.16v98.85H8.592V5.167a3.163 3.163 0 0 1 3.159-3.16h123.731" fill="#E8EAED"/><path d="M4.74 115.324a3.954 3.954 0 0 1-3.95-3.95v-8.493h93.07v12.443H4.74z" fill="#F8F9FA"/><g transform="translate(0 101.896)"><mask id="c" fill="#fff"><use xlink:href="#b"/></mask><path d="M94.65.195H0V9.48a4.74 4.74 0 0 0 4.739 4.74h89.91V.194zm-1.58 1.58v10.863H4.739a3.164 3.164 0 0 1-3.16-3.16V1.776H93.07z" fill="#E8EAED" mask="url(#c)"/></g><path d="M85.367 115.324a3.954 3.954 0 0 1-3.95-3.95v-8.493h135.137v8.493a3.954 3.954 0 0 1-3.95 3.95H85.367z" fill="#FFF"/><g transform="translate(80.565 101.896)"><mask id="e" fill="#fff"><use xlink:href="#d"/></mask><path d="M136.778.195H.062V9.48a4.74 4.74 0 0 0 4.74 4.74h127.237a4.74 4.74 0 0 0 4.74-4.74V.195zm-1.58 1.58v7.704a3.163 3.163 0 0 1-3.159 3.16H4.801a3.164 3.164 0 0 1-3.16-3.16V1.775h133.557z" fill="#E8EAED" mask="url(#e)"/></g><path d="M163.629 109.102h-29.287a2.884 2.884 0 0 1-2.884-2.884v-4.127h35.055v4.127a2.884 2.884 0 0 1-2.884 2.884" fill="#E8EAED"/><mask id="g" fill="#fff"><use xlink:href="#f"/></mask><path fill="#F8F9FA" mask="url(#g)" d="M18.318 94.29h110.597V11.734H18.318z"/><path d="M17.528 95.08h112.177V10.943H17.528V95.08zm1.58-1.58h109.018V12.522H19.108V93.5z" fill="#E8EAED" mask="url(#g)"/></g><g transform="translate(106 32)"><mask id="i" fill="#fff"><use xlink:href="#h"/></mask><use fill="#3C4043" fill-rule="nonzero" xlink:href="#h"/><g mask="url(#i)" fill="#1A73E8"><path d="M-3.81-1.905h46v46h-46z"/></g></g><path d="M162.83 24.905L166 24l-3.17-.906a5.714 5.714 0 0 1-3.924-3.924L158 16l-.906 3.17a5.714 5.714 0 0 1-3.924 3.924L150 24l3.17.905a5.714 5.714 0 0 1 3.924 3.925L158 32l.906-3.17a5.714 5.714 0 0 1 3.924-3.925m9.585 43.548L174 68l-1.585-.453a2.856 2.856 0 0 1-1.962-1.962L170 64l-.453 1.585a2.856 2.856 0 0 1-1.962 1.962L166 68l1.585.453a2.856 2.856 0 0 1 1.962 1.962L170 72l.453-1.585a2.856 2.856 0 0 1 1.962-1.962" fill="#FBBC04"/><g transform="translate(74 80)"><mask id="k" fill="#fff"><use xlink:href="#j"/></mask><path d="M9.623 6.68L12 6l-2.377-.68A4.284 4.284 0 0 1 6.68 2.378L6 0l-.68 2.377A4.284 4.284 0 0 1 2.379 5.32L0 6l2.378.68A4.283 4.283 0 0 1 5.32 9.623L6 12l.68-2.377A4.283 4.283 0 0 1 9.623 6.68" fill="#FBBC04" mask="url(#k)"/></g></g></svg>