<svg width="270" height="117" xmlns="http://www.w3.org/2000/svg" xmlns:xlink="http://www.w3.org/1999/xlink"><defs><path id="b" d="M0 116h218V0H0z"/><path d="M35.238 19.048h-2.857v-7.62a3.808 3.808 0 0 0-3.81-3.809h-7.619V4.762A4.764 4.764 0 0 0 16.19 0a4.764 4.764 0 0 0-4.761 4.762v2.857h-7.62a3.792 3.792 0 0 0-3.79 3.81l-.01 7.238h2.848A5.146 5.146 0 0 1 8 23.81a5.146 5.146 0 0 1-5.143 5.142H.01L0 36.19A3.808 3.808 0 0 0 3.81 40h7.238v-2.857A5.146 5.146 0 0 1 16.19 32a5.146 5.146 0 0 1 5.143 5.143V40h7.238a3.808 3.808 0 0 0 3.81-3.81v-7.619h2.857A4.764 4.764 0 0 0 40 23.81a4.764 4.764 0 0 0-4.762-4.762z" id="d"/><path id="f" d="M0 0h12v12H0z"/><linearGradient x1="23.421%" y1="50%" x2="64.093%" y2="50%" id="a"><stop offset="0%"/><stop stop-color="#28292C" offset="100%"/></linearGradient></defs><g fill="none" fill-rule="evenodd"><path fill="url(#a)" transform="matrix(-1 0 0 1 57 0)" d="M0 109h57v7H0z"/><g transform="translate(50)"><path d="M2 104V10.793C2 5.945 6.037 2 11 2h9v102H2z" fill="#2A2B2E"/><path d="M21 0H10.5C4.702 0 0 4.702 0 10.5V105h21V0zm-3.5 3.5v98h-14v-91c0-3.859 3.14-7 7-7h7z" fill="#3B3F42"/><path d="M9 104V10.793C9 5.945 12.94 2 17.784 2h112.432C135.06 2 139 5.945 139 10.793V104H9z" fill="#1F2123"/><path d="M130.421 0H17.58C11.738 0 7 4.702 7 10.5V105h134V10.5C141 4.702 136.262 0 130.421 0m0 3.5c3.89 0 7.053 3.141 7.053 7v91H10.526v-91c0-3.859 3.163-7 7.053-7H130.42" fill="#3B3F42"/><path d="M10.75 114C5.925 114 2 109.888 2 104.833V103h91v11H10.75z" fill="#2A2B2E"/><path d="M95 102H0v3.5c0 5.798 4.727 10.5 10.556 10.5H95v-14zm-3.519 3.5v7H10.556c-3.881 0-7.037-3.141-7.037-7H91.48z" fill="#3B3F42"/><path d="M90.816 114c-4.861 0-8.816-4.112-8.816-9.167V103h134v1.833c0 5.055-3.955 9.167-8.816 9.167H90.816z" fill="#1F2123"/><path d="M218 102H81v3.5c0 5.798 4.72 10.5 10.538 10.5h115.924c5.819 0 10.538-4.702 10.538-10.5V102zm-3.513 3.5c0 3.859-3.15 7-7.025 7H91.538c-3.874 0-7.025-3.141-7.025-7h129.974z" fill="#3B3F42"/><path d="M160.61 109h-22.219a6.39 6.39 0 0 1-6.391-6.39V102h35v.61a6.39 6.39 0 0 1-6.39 6.39" fill="#3B3F42"/><mask id="c" fill="#fff"><use xlink:href="#b"/></mask><path fill="#2A2B2E" mask="url(#c)" d="M19 93h109V12H19z"/><path d="M17 95h113V11H17v84zm3.531-3.5H126.47v-77H20.53v77z" fill="#3B3F42" mask="url(#c)"/></g><g transform="translate(106 32)"><mask id="e" fill="#fff"><use xlink:href="#d"/></mask><use fill="#3C4043" fill-rule="nonzero" xlink:href="#d"/><g mask="url(#e)" fill="#1A73E8"><path d="M-3.81-1.905h46v46h-46z"/></g></g><path d="M162.83 24.905 166 24l-3.17-.906a5.714 5.714 0 0 1-3.924-3.924L158 16l-.906 3.17a5.714 5.714 0 0 1-3.924 3.924L150 24l3.17.905a5.714 5.714 0 0 1 3.924 3.925L158 32l.906-3.17a5.714 5.714 0 0 1 3.924-3.925m9.585 43.548L174 68l-1.585-.453a2.856 2.856 0 0 1-1.962-1.962L170 64l-.453 1.585a2.856 2.856 0 0 1-1.962 1.962L166 68l1.585.453a2.856 2.856 0 0 1 1.962 1.962L170 72l.453-1.585a2.856 2.856 0 0 1 1.962-1.962" fill="#FBBC04"/><g transform="translate(74 80)"><mask id="g" fill="#fff"><use xlink:href="#f"/></mask><path d="M9.623 6.68 12 6l-2.377-.68A4.284 4.284 0 0 1 6.68 2.378L6 0l-.68 2.377A4.284 4.284 0 0 1 2.379 5.32L0 6l2.378.68A4.283 4.283 0 0 1 5.32 9.623L6 12l.68-2.377A4.283 4.283 0 0 1 9.623 6.68" fill="#FBBC04" mask="url(#g)"/></g></g></svg>