<svg width="32" height="32" viewBox="0 0 32 32" fill="none" xmlns="http://www.w3.org/2000/svg"><path d="M6.2 25.333c-1.134 0-2.033-.422-2.699-1.266-.668-.845-.924-1.833-.768-2.966l1.4-9.768c.2-1.356.795-2.472 1.784-3.349.989-.878 2.172-1.317 3.55-1.317h13.066c1.378 0 2.562.44 3.55 1.317.99.877 1.584 1.993 1.784 3.349l1.4 9.768c.177 1.133-.067 2.121-.734 2.966-.667.844-1.566 1.266-2.7 1.266a3.57 3.57 0 0 1-1.35-.25 3.35 3.35 0 0 1-1.116-.75L20.434 21.4H11.6l-2.933 2.933a3.351 3.351 0 0 1-1.116.75 3.56 3.56 0 0 1-1.35.25Zm.567-3.066 3.667-3.667H21.6l3.667 3.667c.044.044.244.133.6.266a.717.717 0 0 0 .55-.232.61.61 0 0 0 .15-.568L25.1 11.667a2.505 2.505 0 0 0-.851-1.566c-.478-.423-1.05-.634-1.717-.634H9.501c-.668 0-1.24.211-1.717.634a2.504 2.504 0 0 0-.851 1.566L5.467 21.733a.613.613 0 0 0 .15.568.722.722 0 0 0 .55.232c.09 0 .29-.089.6-.266Zm15.833-4.9c.378 0 .706-.14.984-.417.277-.278.416-.606.416-.984 0-.377-.139-.705-.416-.982a1.346 1.346 0 0 0-.984-.418c-.377 0-.705.14-.984.418a1.343 1.343 0 0 0-.416.982c0 .378.139.706.416.984.279.278.607.416.984.416Zm-2.667-3.9c.378 0 .706-.139.984-.417.277-.278.416-.605.416-.983 0-.377-.139-.705-.416-.984a1.349 1.349 0 0 0-.984-.416c-.378 0-.705.139-.982.416a1.346 1.346 0 0 0-.418.984c0 .378.14.705.418.983.277.278.604.417.982.417ZM10.367 17.4H12.4v-2.333h2.333V13H12.4v-2.333h-2.033V13H8.034v2.067h2.333V17.4Z" fill="#1A73E8"/></svg>