<svg xmlns="http://www.w3.org/2000/svg" xmlns:xlink="http://www.w3.org/1999/xlink" viewBox="0 0 370 200" style="enable-background:new 0 0 370 200" xml:space="preserve"><style>.st0{fill:#FFFFFF}.st1{fill:#5185EC}.st2{fill:#D5E3FA}.st4{fill:#255FDB}.st5{fill:#34A853}.st6{fill:#FBBC05}.st7{fill:#E6E7EA}.st8{fill:none;stroke:#34A853;stroke-width:3;stroke-linecap:round;stroke-linejoin:round;stroke-miterlimit:10}.st9{clip-path:url(#SVGID_00000106126685215738370340000003632929646450224313_)}.st10{fill:#4285F4}.st11{fill:#FFFFFF;stroke:#2A84FC;stroke-width:3;stroke-linecap:round;stroke-linejoin:round;stroke-miterlimit:10}.st12{fill:#5EF1F2}.st13{fill:#202124}.st14{fill:#F882FF}.st15{fill:none;stroke:#D2E3FC;stroke-width:1.2273;stroke-linecap:round;stroke-linejoin:round;stroke-miterlimit:10}.st16{fill:#7CB1F2}.st17{fill:none;stroke:#4285F4;stroke-width:2.2114;stroke-linejoin:round;stroke-miterlimit:10}.st18{fill:none;stroke:#E6E6E6;stroke-width:1.2273;stroke-linecap:round;stroke-linejoin:round;stroke-miterlimit:10}.st19{fill:none;stroke:#4285F4;stroke-width:1.2273;stroke-linecap:round;stroke-linejoin:round;stroke-miterlimit:10}.st20{fill:#7CB1F2;stroke:#4285F4;stroke-width:1.2273;stroke-linecap:round;stroke-linejoin:round;stroke-miterlimit:10}.st21{fill:none;stroke:#FFFFFF;stroke-width:1.2273;stroke-linecap:round;stroke-linejoin:round;stroke-miterlimit:10}.st22{fill:#FFFFFF;stroke:#4285F4;stroke-width:1.2273;stroke-linecap:round;stroke-linejoin:round;stroke-miterlimit:10}.st23{fill:#E6E6E6}.st24{fill:none;stroke:#4285F4;stroke-width:1.1148;stroke-linecap:round;stroke-linejoin:round;stroke-miterlimit:10}.st26{clip-path:url(#SVGID_00000097465618372519100330000012473935193583413687_);fill:none;stroke:#FFFFFF;stroke-width:1.2273;stroke-linecap:round;stroke-linejoin:round;stroke-miterlimit:10}.st27{clip-path:url(#SVGID_00000131353379606927044110000009349329175626600884_)}.st28{fill:none;stroke:#4285F4;stroke-width:1.2273;stroke-linejoin:round;stroke-miterlimit:10}.st29{clip-path:url(#SVGID_00000131353379606927044110000009349329175626600884_);fill:none;stroke:#FFFFFF;stroke-width:1.2273;stroke-linecap:round;stroke-linejoin:round;stroke-miterlimit:10}.st30{fill:none;stroke:#4285F4;stroke-width:1.1563;stroke-linecap:round;stroke-linejoin:round;stroke-miterlimit:10}.st31{fill:none;stroke:#669DF6;stroke-width:4;stroke-linecap:round;stroke-linejoin:round}.st32{fill:none;stroke:#669DF6;stroke-width:2;stroke-miterlimit:10}.st33{fill:none;stroke:#000000;stroke-miterlimit:10}.st34{fill:#5BB974}.st35{fill:#FCC934}.st36{fill:#404D64}.st37{fill:#1E3A5F}.st38{fill:#669DF6}.st39{clip-path:url(#SVGID_00000141443909439474255570000004520035530543871884_);fill:none;stroke:#202124;stroke-width:2;stroke-miterlimit:10}.st40{fill:none;stroke:#669DF6;stroke-width:3;stroke-linecap:round;stroke-linejoin:round;stroke-miterlimit:10}.st41{fill:none}.st42{fill:#202124;stroke:#202124;stroke-miterlimit:10}.st43{fill:#202124;stroke:#669DF6;stroke-width:4;stroke-linecap:round;stroke-linejoin:round}.st44{fill:#5C5D60}.st45{fill:none;stroke:#4285F4;stroke-width:4;stroke-linecap:round;stroke-linejoin:round}.st46{fill:none;stroke:#4285F4;stroke-width:2;stroke-miterlimit:10}.st47{fill:#FBBC04}.st48{fill:#8AB4F8}.st49{fill:#719CEE}.st50{clip-path:url(#SVGID_00000151520086899680064870000014512986913057364121_);fill:none;stroke:#FFFFFF;stroke-width:2;stroke-miterlimit:10}.st51{fill:none;stroke:#4285F4;stroke-width:3;stroke-linecap:round;stroke-linejoin:round;stroke-miterlimit:10}.st52{fill:#EE5FFA}.st53{fill:#FFFFFF;stroke:#FFFFFF;stroke-miterlimit:10}.st54{fill:#FFFFFF;stroke:#4285F4;stroke-width:4;stroke-linecap:round;stroke-linejoin:round}.st55{fill:#FCFCFC;stroke:#4285F4;stroke-width:4;stroke-linecap:round;stroke-linejoin:round}.st56{fill:#E8EAED}.st57{fill:none;stroke:#4285F4;stroke-width:2;stroke-linecap:round;stroke-linejoin:round;stroke-miterlimit:10}.st58{fill:none;stroke:#D85140;stroke-width:3;stroke-linecap:round;stroke-linejoin:round;stroke-miterlimit:10}.st59{fill:#E7E9EC}.st60{fill:none;stroke:#5184EB;stroke-width:3;stroke-linecap:round;stroke-linejoin:round;stroke-miterlimit:10}.st61{fill:#DD6BF2}.st62{fill:#F1BD42}.st63{fill:none;stroke:#5184EB;stroke-width:3;stroke-miterlimit:10}.st64{fill:#56A45C}.st65{fill:#D4E2F9}.st66{fill:#5184EB}.st67{fill:#91B3F1}.st68{clip-path:url(#SVGID_00000004519818115361796380000002671499623678953648_);fill:none;stroke:#FBFBFB;stroke-width:3;stroke-miterlimit:10}.st69{clip-path:url(#SVGID_00000072272554473464152700000017685298138597220024_)}.st71{fill:#4384F4}.st72{fill:none;stroke:#4384F4;stroke-width:3;stroke-linecap:round;stroke-linejoin:round;stroke-miterlimit:10}.st73{fill:none;stroke:#5185EC;stroke-width:3;stroke-linecap:round;stroke-linejoin:round;stroke-miterlimit:10}.st74{fill-rule:evenodd;clip-rule:evenodd;fill:#D7503F}.st75{fill-rule:evenodd;clip-rule:evenodd;fill:#FFFFFF}.st76{fill-rule:evenodd;clip-rule:evenodd;fill:#D5E3FA}.st77{fill-rule:evenodd;clip-rule:evenodd;fill:#F0BE42}.st78{fill:#4383F3}.st79{fill-rule:evenodd;clip-rule:evenodd;fill:#5381EB}.st80{fill:#E8EFFC}.st81{fill-rule:evenodd;clip-rule:evenodd;fill:#E8EFFC;stroke:#4383F3;stroke-width:1.8;stroke-linejoin:round}.st82{fill-rule:evenodd;clip-rule:evenodd;fill:#E8EFFC}.st83{fill-rule:evenodd;clip-rule:evenodd;fill:#4383F3}.st84{fill-rule:evenodd;clip-rule:evenodd;fill:#5184EB}.st85{fill-rule:evenodd;clip-rule:evenodd;fill:#E7EFFD}.st86{fill:#5381EB}.st87{fill:#59A55C}.st88{fill-rule:evenodd;clip-rule:evenodd;fill:#E989F7}.st89{fill:none;stroke:#404D64;stroke-width:2;stroke-linecap:round;stroke-linejoin:round;stroke-miterlimit:10}.st90{fill-rule:evenodd;clip-rule:evenodd;fill:#404D64;stroke:#404D64;stroke-width:2;stroke-miterlimit:10}.st91{fill-rule:evenodd;clip-rule:evenodd;fill:#404D64}.st92{fill:none;stroke:#669DF6;stroke-width:2;stroke-linecap:round;stroke-miterlimit:10}.st93{fill:none;stroke:#5184EB;stroke-width:2;stroke-linecap:round;stroke-miterlimit:10}.st94{fill-rule:evenodd;clip-rule:evenodd;fill:#669DF6}.st95{fill:none;stroke:#1E3A5F;stroke-width:2;stroke-linecap:round;stroke-miterlimit:10}.st96{clip-path:url(#SVGID_00000137107150155395940150000009580990911609649833_)}.st97{fill-rule:evenodd;clip-rule:evenodd;fill:#F882FF}.st99{fill-rule:evenodd;clip-rule:evenodd;fill:#D2E3FC;stroke:#D2E3FC;stroke-width:2;stroke-miterlimit:10}.st101{fill:none;stroke:#4285F4;stroke-width:2;stroke-linecap:round;stroke-miterlimit:10}.st102{fill-rule:evenodd;clip-rule:evenodd;fill:#4285F4}.st104{clip-path:url(#SVGID_00000114773779826512363950000013344172277858821823_)}.st108{fill:#D2E3FC;stroke:#4285F4;stroke-width:2;stroke-linecap:round;stroke-linejoin:round;stroke-miterlimit:10}.st109{fill:none;stroke:#4285F4;stroke-width:6;stroke-linejoin:round;stroke-miterlimit:10}.st110{fill:none;stroke:#FE2C25;stroke-width:2;stroke-linecap:round;stroke-linejoin:round;stroke-miterlimit:10}.st111{clip-path:url(#SVGID_00000099647873836205207520000015726006317649610933_);fill:none;stroke:#FFFFFF;stroke-width:2;stroke-linecap:round;stroke-linejoin:round;stroke-miterlimit:10}.st112{clip-path:url(#SVGID_00000013171339936714367220000007501225552441183889_);fill:none;stroke:#FFFFFF;stroke-width:2;stroke-linecap:round;stroke-linejoin:round;stroke-miterlimit:10}.st113{fill:#E5E6E9}.st114{fill:none;stroke:#D5E3FA;stroke-width:3;stroke-linecap:round;stroke-linejoin:round;stroke-miterlimit:10}.st115{clip-path:url(#SVGID_00000021835913897020411430000006661941684998955672_);fill:none;stroke:#FFFFFF;stroke-width:3;stroke-linecap:round;stroke-linejoin:round;stroke-miterlimit:10}.st116{clip-path:url(#SVGID_00000137833098641548655950000004231178574168315789_)}.st117{fill:none;stroke:#E6E6E6;stroke-width:2;stroke-linecap:round;stroke-linejoin:round;stroke-miterlimit:10}</style><g id="Shape_04"><path style="fill:none;stroke:#D2E3FC;stroke-width:2;stroke-linecap:round;stroke-linejoin:round;stroke-miterlimit:10" d="M363.1 185H10.5"/><path id="Combined-Shape_00000109731859565627721610000010666448578586818182_" class="st99" d="M146.4 88.7c5.2 0 9.5 4.2 9.5 9.5 0 4.1-2.6 7.6-6.3 8.9l1.5 7.6-2.7 13.3-12.6-12.1c1.1-.5 1.8-1.7 2.1-3.6.3-1.9.4-5 .2-9.4h.1c-.8-1.4-1.3-3-1.3-4.7 0-5.3 4.3-9.5 9.5-9.5z"/><path id="Path-18_00000148642888917738193910000006421278975513977504_" class="st46" d="M148.9 101.9h-10.6c-.5 0-1 .4-.9 1v8.1l-.1.5c0 .2-.1.5-.1.7-.3 1.5-.8 2.4-1.5 2.8l-.1.1c-.6.3-.7 1.1-.3 1.5l12.6 12.1c.5.5 1.4.2 1.6-.5l2.7-13.3v-.4l-2.4-11.8c-.1-.4-.5-.8-.9-.8z"/><circle id="Oval_00000104708016019993127750000006049162518500522399_" cx="146.6" cy="97.7" r="9.9" style="fill-rule:evenodd;clip-rule:evenodd;fill:#D4E2F9"/><path id="Oval_00000163769577105429515190000012999320306398781870_" class="st46" d="M146.3 86.8c-5.7 0-10.4 4.7-10.4 10.4s4.7 10.4 10.4 10.4 10.4-4.7 10.4-10.4-4.6-10.4-10.4-10.4z"/><g id="Hand_00000029729558467303016170000009839397713691239089_" transform="translate(53.64 61.502)"><g id="Group-13_00000137848082271672949110000017988564976038232714_" transform="scale(-1 1) rotate(-8 27.101 418.919)"><path id="Combined-Shape_00000062915045505344661940000017214811377903352219_" class="st99" d="M-89 63.9c3.3-1.4 7-2.3 10.6-2 8.3.8 20.6 10.5 29.1 18.2l-1.1 1.3-14 14.4-11.4-16.4h-.1c-1.1.4-1.9.4-3 .5h-.2l.5.5c.4.6-.4 1.7-.9 2.7l-.1.9-.8.5c-.3.4-.5.7-.7.9-1.2 1.5-3 3.3-5.1 3.1-1-.1-1.6-.5-2.1-1.1l-1-.5c-.9-.2-1.8-.5-2.4-1.2l-1-.5c-1.8.5-3.6-1.1-4.1-2.9-.5-1.8.1-3.7 1-5.4 1.4-2.8 3.4-5.3 5.9-7.3-3.8 3-7.7 6-11.5 9-.8.6-1.9 1.3-2.8.7-1.1-.7-.5-2.4.3-3.5 3.8-5.2 9-9.4 14.9-11.9z"/></g><g transform="scale(-1 1) rotate(-8 27.101 418.919)"><path id="Stroke-1_00000075155324927610750330000004471122233274143880_" class="st101" d="M-92.6 86.1c-2.3.6-4.4-1.3-5-3.6-.5-1.9 0-3.8 1-6 .1-.2.2-.3.2-.5l.1-.2-4.5 3.5c-1.4 1.1-2.6 1.5-3.8.8-1.6-1-1.3-3.1 0-4.8 3.9-5.4 9.2-9.7 15.3-12.3 3.8-1.6 7.5-2.4 11-2.1 4.4.4 10 3.1 16.3 7.6l1 .7c.5.3 1 .7 1.5 1.1l1 .7c.2.1.3.3.5.4l1 .8 1 .8 1 .8 1 .9 1 .9 1.1.9 1.1.9 1.1.9 1.1 1"/><path id="Stroke-5_00000036224478447338011030000013617822151349306529_" class="st101" d="m-65 96.8-10.8-17.2"/><path id="Stroke-7_00000172404036198007141620000018070114040524131739_" class="st101" d="M-89.3 87.9c-1.4-.3-2.4-.7-3.1-1.6-.6-.8-.8-1.7-.8-3-.1-4.5 2-8.9 5.5-11.7"/><path id="Stroke-9_00000127030887162488536730000015777710176220948363_" class="st101" d="M-84.4 74.2c-2.2 2-3.9 4.4-4.8 7-.5 1.5-.8 3.2-.6 4.6.2 2.1 1.4 3.5 3.5 3.6 2.2.1 4.1-1.2 5.9-3.5l.4-.5.6-.9.9-1.5s1-2.2 1.2-3"/><path id="Stroke-11_00000048476777100873547350000016836910985209867917_" class="st101" d="M-76 79.5c-.9.2-1 .3-1.7.4h-.3l-.5.1-1.5.2-.5.1-.5.1s-2.3.5-3.2 2.3c0 0-.3.7-.4 1.4"/></g></g><path class="st101" d="M135.8 146.5v.1l3.4 10.3c.2.7 1 1 1.7.7l6.7-3.2c.4-.2.8-.1 1.1.2l.1.1 15.6 22.1c.7.9.5 2.2-.4 2.9-2.3 1.9-4.5 3.5-6.7 4.8m-34.7.1c-.6-.4-1.2-.9-1.9-1.4-5.4-4.2-10.2-11.8-12.3-20.1-2.5-10.2-1-21 5.4-31.2 4-6.5 11.3-12.1 21.7-16.9m17.8-.5c6.1-.7 12.8.7 20.2 4.3.2.1.5.2.8.4l.5.3c.1 0 .2.1.3.2l.5.3.5.3.6.4c.3.2.6.4.8.6l.6.4.6.5c.1.1.2.2.3.2l.6.5.6.5.6.5.3.3.6.6.6.6.3.3.7.6.7.7.7.7.7.7.7.7.7.8.7.8.7.8.7.8.8.9.8.9.8.9.8.9c.1.2.3.3.4.5l.8 1 1.2 1.5.8 1 1.3 1.6.9 1.1.9 1.1.9 1.1.9 1.2.9 1.2 1.4 1.8 1.4 1.9.9 1.3.7.9h13.1m-42.4 26.8s3 1 8.8 3.9m-36-54.9s4.2 8 7 21.3m19.3 9 .2 5.5c0 1.4.5 2.6 1.5 3.6 3 2.8 10.8 7.8 27.5 5.3"/><path class="st101" d="m177.7 169.1-1.4 10.9-16 2.6"/><g id="Laptop_00000036238056896846449550000009004211598405031072_" transform="rotate(1 -7001.11 10200.279)"><path id="Rectangle_00000075865044893750716900000011412745718966194332_" class="st102" d="M35.6 16.9H92c1 0 1.7.8 1.7 1.7 0 .2 0 .3-.1.4L82.9 59.8c-.2.7-.9 1.2-1.6 1.2H24.9c-1 0-1.7-.8-1.7-1.7 0-.2 0-.3.1-.4L34 18.2c.2-.7.9-1.3 1.6-1.3z"/><path id="Rectangle_00000046327586939625475480000009235620139635621286_" class="st102" d="M4.8 58.4H80c.7 0 1.3.6 1.3 1.3 0 .7-.6 1.3-1.3 1.3H4.8c-.7 0-1.3-.6-1.3-1.3 0-.7.6-1.3 1.3-1.3z"/></g><path class="st10" d="M138.1 102.1c-.5-4.4-1-8.7-1.5-13.1-.1-1-.2-2-.9-2.8-.6-.8-1.9-1.2-2.8-.7-.4.3-.7.7-.9 1.2-.9 2.3-.5 4.9 1.1 6.8-.4-1-2.2-.7-2.7.3s0 2.1.5 3c1.4 2.4 3.6 4.3 6.3 5.5"/><path class="st10" d="m146.2 93.9-6.5 1.7c-.2 0-.3.2-.4.3l-1.9 4.3c-.2.5-1 .4-1.1-.1l-1.1-6.3c-.1-.3.2-.7.6-.7l10.2-.4c.7.1.9 1.1.2 1.2z"/><path class="st10" d="M135.5 87.2c.8-1.2 2.8-1.5 4.1-1.7 3.1-.7 6.5-.7 9.7-.8 1.3 0 2.8 0 3.9.6 1.6.9 1.9 2.8 1.2 4.4-.9 2.1-2.8 3.1-4.8 3.6-2.3.6-4.7.8-7.1 1.1-1.6.2-3.4.3-4.9-.3-.3-.1-.7-.3-.9-.7-.5-.7-.5-1.7-.7-2.5-.2-1-.9-2.9-.1-3.8"/><path d="M139.8 93.4s.3-10.6 5.2-9.1" style="fill:none;stroke:#8AB4F8;stroke-width:2;stroke-linecap:round;stroke-miterlimit:10"/><ellipse class="st48" cx="139.8" cy="99.5" rx="4.6" ry="6"/><path class="st47" d="m208.5 122-1.4-4.1c-.1-.3-.5-.3-.7-.1l-2.1 3.3c0 .1-.1.1-.2.1l-4.1 1.4c-.3.1-.3.5-.1.7l3.5 2.1c.1 0 .1.1.1.2l1.3 4.1c.1.3.5.3.7.1l2.5-3.6c0-.1.1-.1.2-.1l3.8-1.1c.3-.1.3-.5.1-.7l-3.3-2.1c-.2-.1-.3-.1-.3-.2zm-7.3-11.7-.8-2.2c-.1-.2-.3-.2-.4-.1l-1.1 1.8-.1.1-2.2.8c-.2.1-.2.3-.1.4l1.9 1.2.1.1.7 2.2c.1.2.3.2.4.1l1.3-2 .1-.1 2.1-.6c.2-.1.2-.3.1-.4l-2-1.3c0 .1 0 0 0 0z"/><path class="st10" d="M204.6 38.3c-2-.6-3.1-2.7-2.4-4.7l2.1-6.7c.6-2 2.7-3.1 4.7-2.4 2 .6 3.1 2.7 2.4 4.7l-2.1 6.7c-.6 2-2.7 3.1-4.7 2.4zm4-12.6c-1.3-.4-2.8.3-3.2 1.6l-2.1 6.7c-.4 1.3.3 2.8 1.6 3.2 1.3.4 2.8-.3 3.2-1.6l2.1-6.7c.5-1.4-.3-2.8-1.6-3.2z"/><path class="st5" d="m223 35.5-9.9-3.1.4-1.2c.3-.9 1.2-1.4 2.1-1.1l6.7 2.1c.9.3 1.4 1.2 1.1 2.1l-.4 1.2z"/><path class="st47" d="m200.6 28.4-9.9-3.1.4-1.2c.3-.9 1.2-1.4 2.1-1.1l6.7 2.1c.9.3 1.4 1.2 1.1 2.1l-.4 1.2z"/><path d="M223.3 36.2 190.9 26c-.2-.1-.4-.1-.6-.2-8.1-2.6-16.9 2-19.3 10.2-2.4 7.9 2 16.4 9.9 19 4.2 1.4 8.5.8 12.1-1.1 1.7-.9 3.8-1.1 5.6-.5l1.3.4c1.9.6 3.4 1.9 4.3 3.7 1.8 3.7 5.1 6.6 9.3 7.9 8 2.5 16.7-2.1 19.1-10.1 2.6-8-1.6-16.3-9.3-19.1z" style="fill:#D2E3FC"/><path class="st10" d="m190.9 39.7-3-1c-.3-.1-.5-.4-.4-.7l1-3c.1-.3-.1-.6-.4-.7l-3.3-1c-.3-.1-.6.1-.7.4l-1 3c-.1.3-.4.5-.7.4l-3.1-1c-.3-.1-.6.1-.7.4l-1 3.3c-.1.3.1.6.4.7l3.1 1c.3.1.5.4.4.7l-1 3c-.1.3.1.6.4.7l3.3 1c.3.1.6-.1.7-.4l1-3c.1-.3.4-.5.7-.4l3 1c.3.1.6-.1.7-.4l1-3.3c.1-.3-.1-.6-.4-.7z"/><circle class="st10" cx="215.2" cy="49.9" r="2.1"/><circle class="st10" cx="224.2" cy="52.7" r="2.1"/><circle class="st48" cx="218.2" cy="55.8" r="2.1"/><circle class="st48" cx="221.1" cy="46.8" r="2.1"/><defs><path id="SVGID_00000023273499898376660590000002855453116529149373_" d="M223.3 36.3 191 26c-.2-.1-.4-.1-.6-.2-8.1-2.6-16.9 2-19.3 10.2-2.4 7.9 2 16.4 9.9 19 4.2 1.4 8.5.8 12.1-1.1 1.7-.9 3.8-1.1 5.6-.5l1.3.4c1.9.6 3.4 1.9 4.3 3.7 1.8 3.7 5.1 6.6 9.3 7.9 8 2.5 16.7-2.1 19.1-10.1 2.5-7.9-1.7-16.3-9.4-19z"/></defs><clipPath id="SVGID_00000057864039683382811890000002356341101458849442_"><use xlink:href="#SVGID_00000023273499898376660590000002855453116529149373_" style="overflow:visible"/></clipPath><g style="clip-path:url(#SVGID_00000057864039683382811890000002356341101458849442_)"><path d="M204.6 38.3c-2-.6-3.1-2.7-2.4-4.7l2-6.4c.6-2 2.7-3.1 4.7-2.4 2 .6 3.1 2.7 2.4 4.7l-2 6.4c-.6 2-2.7 3.1-4.7 2.4zm3.9-12.3c-1.3-.4-2.8.3-3.2 1.6l-2 6.4c-.4 1.3.3 2.8 1.6 3.2s2.8-.3 3.2-1.6l2-6.4c.5-1.4-.3-2.8-1.6-3.2z" style="fill:#FBFBFB"/></g><path id="Stroke-1_00000054982033099395466710000007742921285362511489_" d="M230.1 19.4c15 3 28.8 12.7 35.6 24.9l.3.6.3.6.3.6.3.6.3.6.4.9.3.6.3.6.4 1 .5 1.1.3.7.5 1.2.5 1.3.7 1.9 1.4 3.6.5 1.4.5 1.3.5 1.2.4 1.1.4 1 .3.6.3.6.3.6.3.6.3.6.4.9.3.6.3.6c.1.1.1.2.2.3 4.8 8.8 11.4 15.8 19.7 20.4 4.3 2.4 8.3 4 12.1 4.6.4.1.7.5.6.9s-.5.7-.9.6c-4-.7-8.1-2.4-12.6-4.8-8.6-4.7-15.4-12-20.3-21l-.3-.6-.5-.9-.3-.6-.3-.6-.3-.6-.3-.6-.3-.6-.4-1-.3-.7-.4-1.1-.3-.8-.3-.8-.5-1.3-.7-1.9-1.2-3.1-.9-2.3-.6-1.6-.5-1.1-.4-1-.3-.6-.4-.9-.4-.9c0-.1-.1-.2-.1-.3l-.3-.6-.3-.6-.3-.6c-.3-.6-.6-1.1-.9-1.7-6.6-11.8-20.1-21.3-34.6-24.2-.4-.1-.7-.5-.6-.9.1-.2.5-.5 1-.4z" style="fill:#30E2EA"/><path class="st47" d="M158.6 39.3c-1.3-4-4-7.1-7.5-8.8-.3.7-.7 1.4-1.2 2 2.9 1.5 5.3 4.1 6.4 7.5 1.8 5.8-.9 12.1-6.4 14.8-1.9.9-3.9 1.3-6 1.2-1.2-.1-2-.2-2.8-.5h-.2l-3.3-.6c-3.1-.5-6.3.2-8.9 1.9l-1 .7-1.9 1.4-.4.3-.4.3-.4.2-.4.2c-4.4 2.5-10 .7-12-3.9l-.2-.5-.1-.3c-.9-2.8-.2-6 1.8-8.2 1.5-1.6 3.2-2.2 6.6-2.6l1.9-.2.6-.1.5-.1.5-.1c3.2-.6 5.9-2.1 7.8-4.4l2.1-2.6c-.7-.3-1.4-.7-2.1-1.2l-1.9 2.3c-1.5 1.9-3.7 3.1-6.4 3.6l-.5.1-.5.1-.9.1-1.6.2c-3.9.5-6.1 1.2-8.1 3.4-2.4 2.7-3.4 6.5-2.4 10l.2.7c0 .1.1.3.2.4 2.3 6 9.5 8.5 15.2 5.5l.5-.3.4-.2c.1-.1.3-.2.4-.3l.5-.3.5-.4 1.7-1.3.3-.2.5-.4c2.2-1.4 4.7-1.9 7.2-1.5l3.3.6h-.1c1 .3 2.1.5 3.4.6 2.5.1 5-.4 7.2-1.5 6.8-3.2 10-10.7 7.9-17.6z"/><path class="st5" d="M139.9 32c-1.6.5-2.9 1.4-4.2 2.6-.6.6-1.2 1.3-1.9 2.3 3.2 1.5 7 1.6 10.5.1 2.4-1 4.3-2.6 5.6-4.5-2.9-1.5-6.6-1.8-10-.5z"/><path class="st5" d="M134.1 32.9c1.5-1.4 3.1-2.5 5-3.1 4.1-1.5 8.5-1.1 12.1.7 1.2-2.7 1.5-5.7.7-8.7-.3-1-1.4-1.6-2.3-1.2l-20.9 8.7c-1 .4-1.3 1.6-.8 2.5 1 1.6 2.3 2.9 3.8 4l.2-.2c.7-1.2 1.4-2 2.2-2.7z"/><path id="Oval_00000044158682689262996450000001430106502570241968_" d="M259.9 68c.4.1.7.5.6.9-.1.4-.5.7-.9.6-.8-.1-1.6-.2-2.4-.2-.4 0-.8-.3-.8-.8s.3-.8.8-.8c1 .1 1.8.1 2.7.3zm6.5 2.4c.4.2.5.7.2 1.1s-.7.5-1.1.2c-.7-.4-1.4-.8-2.1-1.1-.4-.2-.6-.6-.4-1 .2-.4.6-.6 1-.4.8.3 1.6.7 2.4 1.2zm4.9 4.9c.2.3.1.8-.2 1.1-.3.2-.8.1-1.1-.2-.5-.7-1-1.3-1.5-1.9-.3-.3-.3-.8 0-1.1s.8-.3 1.1 0c.7.6 1.2 1.3 1.7 2.1zm2.7 6.3c.1.4-.2.8-.6.9-.4.1-.8-.2-.9-.6-.2-.8-.4-1.6-.6-2.3-.1-.4.1-.8.5-1 .4-.1.8.1 1 .5.2.8.4 1.6.6 2.5zm-.1 7c-.1.4-.5.7-.9.6s-.7-.5-.6-.9c.2-.8.3-1.6.3-2.4 0-.4.4-.7.8-.7s.7.4.7.8c0 .9-.1 1.7-.3 2.6zM271 95c-.2.3-.7.4-1.1.2s-.4-.7-.2-1.1c.5-.7.9-1.3 1.3-2.1.2-.4.7-.5 1-.3.4.2.5.7.3 1-.3.8-.8 1.5-1.3 2.3zm-5.1 4.6c-.4.2-.8.1-1-.3s-.1-.8.3-1c.7-.4 1.4-.9 2-1.4.3-.3.8-.2 1.1.1.3.3.2.8-.1 1.1-.8.6-1.6 1.1-2.3 1.5zm-6.5 2.2c-.4.1-.8-.2-.9-.7-.1-.4.2-.8.7-.9.8-.1 1.6-.3 2.4-.5.4-.1.8.1.9.5.1.4-.1.8-.5.9-.8.4-1.7.6-2.6.7zm-6.9-.5c-.4-.1-.6-.5-.5-1 .1-.4.5-.6.9-.5.8.2 1.6.4 2.4.5.4.1.7.4.7.9-.1.4-.4.7-.9.7-.9-.2-1.8-.4-2.6-.6zm-6.1-3.3c-.3-.3-.4-.8-.1-1.1.3-.3.7-.4 1.1-.1.6.5 1.3 1 2 1.4.4.2.5.7.3 1.1-.2.4-.7.5-1 .3-.9-.5-1.6-1-2.3-1.6zm-4.4-5.5c-.2-.4 0-.8.3-1 .4-.2.8 0 1 .3.4.7.8 1.4 1.3 2.1.2.3.2.8-.2 1.1-.3.2-.8.2-1.1-.2-.4-.7-.9-1.5-1.3-2.3zm-1.7-6.6c0-.4.3-.8.7-.8.4 0 .8.3.8.7 0 .8.2 1.6.3 2.4.1.4-.2.8-.6.9-.4.1-.8-.2-.9-.6-.2-.8-.3-1.7-.3-2.6zm1-6.9c.1-.4.6-.6 1-.5.4.1.6.6.5 1-.3.8-.5 1.5-.6 2.3-.1.4-.5.7-.9.6-.4-.1-.7-.5-.6-.9 0-.8.3-1.7.6-2.5zm3.6-5.9c.3-.3.8-.3 1.1 0s.3.8 0 1.1c-.6.6-1.1 1.2-1.5 1.9-.2.3-.7.4-1.1.2-.3-.2-.4-.7-.2-1.1.5-.7 1.1-1.4 1.7-2.1zm5.6-4c.4-.2.8 0 1 .4s0 .8-.4 1c-.7.3-1.5.7-2.1 1.1-.4.2-.8.1-1.1-.2-.2-.4-.1-.8.2-1.1l2.4-1.2zm6.7-1.3c.4 0 .8.3.8.8 0 .4-.3.8-.8.8-.8 0-1.6.1-2.3.2-.4.1-.8-.2-.9-.6-.1-.4.2-.8.6-.9.9-.3 1.8-.3 2.6-.3z" style="fill:#EA4335"/><g id="Group-3_00000155836122979934686000000011264041424629732497_" transform="translate(209 61)"><path id="Fill-1_00000078021349752126174750000000182552061793982380_" d="m73.7-6.9-2.5-2.5c-.3-.3-.4-.7-.3-1.1l.9-3.4c.1-.4.4-.7.8-.8l3.4-.9c.4-.1.8 0 1.1.3l2.5 2.5c.3.3.4.7.3 1.1L79-8.3c-.1.4-.4.7-.8.8l-3.4.9c-.4.2-.8 0-1.1-.3" style="fill-rule:evenodd;clip-rule:evenodd;fill:#EE5FFA"/></g><path class="st10" d="m98.4 78.4-10-1.8c-1.1-.2-1.9-1.3-1.7-2.4l1.8-10c.2-1.1 1.3-1.9 2.4-1.7l10 1.8c1.1.2 1.9 1.3 1.7 2.4l-1.8 10c-.2 1.1-1.2 1.9-2.4 1.7z"/><path class="st101" d="M150.2 100.9c.4 1.2 1.6 2 2.8 1.9 1.1 0 2.2-.7 2.8-1.7"/><path style="fill:none;stroke:#D5E3FA;stroke-width:2;stroke-linecap:round;stroke-linejoin:round;stroke-miterlimit:10" d="M177.7 185h-164"/></g></svg>