<svg xmlns="http://www.w3.org/2000/svg" xmlns:xlink="http://www.w3.org/1999/xlink" viewBox="0 0 370 200" style="enable-background:new 0 0 370 200" xml:space="preserve"><style>.st0{fill:#FFFFFF}.st1{fill:#5185EC}.st2{fill:#D5E3FA}.st3{fill:#D2E3FC}.st4{fill:#255FDB}.st5{fill:#34A853}.st6{fill:#FBBC05}.st7{fill:#E6E7EA}.st8{fill:none;stroke:#34A853;stroke-width:3;stroke-linecap:round;stroke-linejoin:round;stroke-miterlimit:10}.st9{clip-path:url(#SVGID_00000127763028718443401350000018028218181636495250_)}.st10{fill:#4285F4}.st11{fill:#FFFFFF;stroke:#2A84FC;stroke-width:3;stroke-linecap:round;stroke-linejoin:round;stroke-miterlimit:10}.st12{fill:#5EF1F2}.st13{fill:none;stroke:#4285F4;stroke-width:4;stroke-linecap:round;stroke-linejoin:round}.st14{fill:#202124}.st17{fill:none;stroke:#D2E3FC;stroke-width:1.2273;stroke-linecap:round;stroke-linejoin:round;stroke-miterlimit:10}.st18{fill:#7CB1F2}.st19{fill:none;stroke:#4285F4;stroke-width:2.2114;stroke-linejoin:round;stroke-miterlimit:10}.st20{fill:none;stroke:#E6E6E6;stroke-width:1.2273;stroke-linecap:round;stroke-linejoin:round;stroke-miterlimit:10}.st21{fill:none;stroke:#4285F4;stroke-width:1.2273;stroke-linecap:round;stroke-linejoin:round;stroke-miterlimit:10}.st22{fill:#7CB1F2;stroke:#4285F4;stroke-width:1.2273;stroke-linecap:round;stroke-linejoin:round;stroke-miterlimit:10}.st23{fill:none;stroke:#FFFFFF;stroke-width:1.2273;stroke-linecap:round;stroke-linejoin:round;stroke-miterlimit:10}.st24{fill:#FFFFFF;stroke:#4285F4;stroke-width:1.2273;stroke-linecap:round;stroke-linejoin:round;stroke-miterlimit:10}.st25{fill:#E6E6E6}.st26{fill:none;stroke:#4285F4;stroke-width:1.1148;stroke-linecap:round;stroke-linejoin:round;stroke-miterlimit:10}.st28{clip-path:url(#SVGID_00000170996059661274126110000009533435703621401267_);fill:none;stroke:#FFFFFF;stroke-width:1.2273;stroke-linecap:round;stroke-linejoin:round;stroke-miterlimit:10}.st29{clip-path:url(#SVGID_00000137109059103753585960000012527480174514239372_)}.st30{fill:none;stroke:#4285F4;stroke-width:1.2273;stroke-linejoin:round;stroke-miterlimit:10}.st31{clip-path:url(#SVGID_00000137109059103753585960000012527480174514239372_);fill:none;stroke:#FFFFFF;stroke-width:1.2273;stroke-linecap:round;stroke-linejoin:round;stroke-miterlimit:10}.st32{fill:none;stroke:#4285F4;stroke-width:1.1563;stroke-linecap:round;stroke-linejoin:round;stroke-miterlimit:10}.st35{fill:#5BB974}.st36{fill:#FCC934}.st38{fill:#1E3A5F}.st39{fill:#669DF6}.st40{clip-path:url(#SVGID_00000132771534276146612370000009961192681835339680_);fill:none;stroke:#202124;stroke-width:2;stroke-miterlimit:10}.st42{fill:none}.st44{fill:#202124;stroke:#669DF6;stroke-width:4;stroke-linecap:round;stroke-linejoin:round}.st46{fill:none;stroke:#4285F4;stroke-width:2;stroke-miterlimit:10}.st47{fill:#FBBC04}.st48{fill:#8AB4F8}.st49{fill:#719CEE}.st50{clip-path:url(#SVGID_00000138558601750682597300000004229135017016277660_);fill:none;stroke:#FFFFFF;stroke-width:2;stroke-miterlimit:10}.st51{fill:none;stroke:#4285F4;stroke-width:3;stroke-linecap:round;stroke-linejoin:round;stroke-miterlimit:10}.st52{fill:#EE5FFA}.st53{fill:#FFFFFF;stroke:#FFFFFF;stroke-miterlimit:10}.st54{fill:#FCFCFC;stroke:#4285F4;stroke-width:4;stroke-linecap:round;stroke-linejoin:round}.st55{fill:#E8EAED}.st56{fill:none;stroke:#4285F4;stroke-width:2;stroke-linecap:round;stroke-linejoin:round;stroke-miterlimit:10}.st57{fill:none;stroke:#D85140;stroke-width:3;stroke-linecap:round;stroke-linejoin:round;stroke-miterlimit:10}.st58{fill:#E7E9EC}.st59{fill:none;stroke:#5184EB;stroke-width:3;stroke-linecap:round;stroke-linejoin:round;stroke-miterlimit:10}.st60{fill:#DD6BF2}.st61{fill:#F1BD42}.st62{fill:none;stroke:#5184EB;stroke-width:3;stroke-miterlimit:10}.st63{fill:#56A45C}.st64{fill:#D4E2F9}.st65{fill:#5184EB}.st66{fill:#91B3F1}.st67{clip-path:url(#SVGID_00000045595319821646268860000001152888786652887431_);fill:none;stroke:#FBFBFB;stroke-width:3;stroke-miterlimit:10}.st68{clip-path:url(#SVGID_00000026150662405331604790000014037942638647764889_)}.st69{fill:#FBFBFB}.st70{fill:#4384F4}.st71{fill:none;stroke:#4384F4;stroke-width:3;stroke-linecap:round;stroke-linejoin:round;stroke-miterlimit:10}.st72{fill:none;stroke:#5185EC;stroke-width:3;stroke-linecap:round;stroke-linejoin:round;stroke-miterlimit:10}.st73{fill-rule:evenodd;clip-rule:evenodd;fill:#D7503F}.st74{fill-rule:evenodd;clip-rule:evenodd;fill:#FFFFFF}.st75{fill-rule:evenodd;clip-rule:evenodd;fill:#D5E3FA}.st76{fill-rule:evenodd;clip-rule:evenodd;fill:#F0BE42}.st77{fill:#4383F3}.st78{fill-rule:evenodd;clip-rule:evenodd;fill:#5381EB}.st79{fill:#E8EFFC}.st80{fill-rule:evenodd;clip-rule:evenodd;fill:#E8EFFC;stroke:#4383F3;stroke-width:1.8;stroke-linejoin:round}.st81{fill-rule:evenodd;clip-rule:evenodd;fill:#E8EFFC}.st82{fill-rule:evenodd;clip-rule:evenodd;fill:#4383F3}.st83{fill-rule:evenodd;clip-rule:evenodd;fill:#5184EB}.st84{fill-rule:evenodd;clip-rule:evenodd;fill:#E7EFFD}.st85{fill:#5381EB}.st86{fill:#59A55C}.st87{fill-rule:evenodd;clip-rule:evenodd;fill:#E989F7}.st88{fill:none;stroke:#404D64;stroke-width:2;stroke-linecap:round;stroke-linejoin:round;stroke-miterlimit:10}.st89{fill-rule:evenodd;clip-rule:evenodd;fill:#404D64;stroke:#404D64;stroke-width:2;stroke-miterlimit:10}.st90{fill-rule:evenodd;clip-rule:evenodd;fill:#404D64}.st91{fill:none;stroke:#669DF6;stroke-width:2;stroke-linecap:round;stroke-miterlimit:10}.st92{fill:none;stroke:#5184EB;stroke-width:2;stroke-linecap:round;stroke-miterlimit:10}.st93{fill-rule:evenodd;clip-rule:evenodd;fill:#669DF6}.st94{fill:none;stroke:#1E3A5F;stroke-width:2;stroke-linecap:round;stroke-miterlimit:10}.st95{clip-path:url(#SVGID_00000084530329393431488870000017287805236971055543_)}.st96{fill-rule:evenodd;clip-rule:evenodd;fill:#F882FF}.st97{fill:none;stroke:#D2E3FC;stroke-width:2;stroke-linecap:round;stroke-linejoin:round;stroke-miterlimit:10}.st98{fill-rule:evenodd;clip-rule:evenodd;fill:#D2E3FC;stroke:#D2E3FC;stroke-width:2;stroke-miterlimit:10}.st99{fill-rule:evenodd;clip-rule:evenodd;fill:#D4E2F9}.st100{fill:none;stroke:#4285F4;stroke-width:2;stroke-linecap:round;stroke-miterlimit:10}.st101{fill-rule:evenodd;clip-rule:evenodd;fill:#4285F4}.st102{fill:none;stroke:#8AB4F8;stroke-width:2;stroke-linecap:round;stroke-miterlimit:10}.st103{clip-path:url(#SVGID_00000183952303682582406110000009404473924173642677_)}.st104{fill:#30E2EA}.st105{fill-rule:evenodd;clip-rule:evenodd;fill:#EE5FFA}.st106{fill:none;stroke:#D5E3FA;stroke-width:2;stroke-linecap:round;stroke-linejoin:round;stroke-miterlimit:10}.st107{fill:#D2E3FC;stroke:#4285F4;stroke-width:2;stroke-linecap:round;stroke-linejoin:round;stroke-miterlimit:10}.st108{fill:none;stroke:#4285F4;stroke-width:6;stroke-linejoin:round;stroke-miterlimit:10}.st109{fill:none;stroke:#FE2C25;stroke-width:2;stroke-linecap:round;stroke-linejoin:round;stroke-miterlimit:10}.st110{clip-path:url(#SVGID_00000138553088488480514240000004433292457246983088_);fill:none;stroke:#FFFFFF;stroke-width:2;stroke-linecap:round;stroke-linejoin:round;stroke-miterlimit:10}.st111{clip-path:url(#SVGID_00000064337210669792142400000013275911821072891805_);fill:none;stroke:#FFFFFF;stroke-width:2;stroke-linecap:round;stroke-linejoin:round;stroke-miterlimit:10}.st112{fill:#E5E6E9}.st113{fill:none;stroke:#D5E3FA;stroke-width:3;stroke-linecap:round;stroke-linejoin:round;stroke-miterlimit:10}.st114{clip-path:url(#SVGID_00000088853612069334430860000001806398436652717186_);fill:none;stroke:#FFFFFF;stroke-width:3;stroke-linecap:round;stroke-linejoin:round;stroke-miterlimit:10}.st115{clip-path:url(#SVGID_00000136380518968004661460000011446039210138363781_)}.st116{fill:none;stroke:#E6E6E6;stroke-width:2;stroke-linecap:round;stroke-linejoin:round;stroke-miterlimit:10}</style><g id="Shape_04"><path d="m280.4 134.7.3.6c-5.3-4.4-8.7-10.7-13-16.1l-4.2-4.8c-5.5-5.7-11.3-11.1-17.5-16-3.4-2.4-8.5-6.5-12.5-3.5-1.8 1.8-2.5 4.4-1.8 6.8 1.2 3.1 3.2 5.8 5.6 7.9l7.3 8.4c4.7 5.7 9.8 11.3 14.9 16.6l-22.9-24.9c-2.4-2.4-6.5-6.7-9.7-7.7-3.2-1.1-7.2.1-6.9 4.4.4 2.4 1.3 4.6 2.8 6.5 3.8 4.7 7.9 9.2 12.2 13.4 6.3 6.4 10.6 11 15.8 16.8-5-5.8-10.2-11.4-15.8-16.8l-8.2-7.9c-2.2-2.1-5.9-7-8.9-6-7 2.2-2.3 9.9-.4 12.1l25.5 27.3-16-17.1c-2.5-3.3-5.7-6-9.4-7.9-2-1.2-4.6-.7-6 1.2-1.4 1.7-1.8 4.1-1.1 6.2 1.4 3 3.3 5.7 5.6 7.9 7.1 8.1 10.3 11.9 17 20.6 6.7 8.7 6.6 14.7 11.6 22.2 2.4 3.5 5.3 6.5 8.5 9.3M96.3 131.6l-.3.6c5.2-4.5 8.3-11 12.5-16.5l4.1-5c5.3-5.9 10.9-11.4 17-16.6 3.3-2.5 8.3-6.7 12.4-3.9 1.9 1.7 2.6 4.3 2 6.7-1.1 3.1-3 5.9-5.4 8.1l-7 8.6c-4.5 5.9-9.4 11.6-14.3 17l22.1-25.6c2.3-2.4 6.3-6.9 9.4-8.1 3.2-1.2 7.2-.1 7 4.2-.3 2.4-1.2 4.6-2.6 6.5-3.6 4.8-7.6 9.4-11.7 13.8-6.1 6.6-10.2 11.3-15.2 17.3 4.8-5.9 9.8-11.7 15.2-17.3l7.9-8.1c2.1-2.1 5.7-7.2 8.7-6.3 7.1 1.9 2.6 9.8.8 12.1l-24.6 28.1 15.4-17.6c2.4-3.3 5.5-6.2 9.1-8.2 2-1.3 4.6-.9 6.1 1 1.5 1.7 2 4 1.3 6.1-1.3 3-3.1 5.8-5.4 8.1-6.8 8.3-9.9 12.2-16.3 21.2-6.4 8.9-6.1 14.9-10.9 22.6-4 6.4-9.5 11.7-16 15.5" style="fill:none;stroke:#669DF6;stroke-width:4;stroke-linecap:round;stroke-linejoin:round"/><path d="M193 71.3c-4.7 0-8.5-3.8-8.5-8.5V48c0-4.7 3.8-8.5 8.5-8.5s8.5 3.8 8.5 8.5v14.8c0 4.7-3.8 8.5-8.5 8.5z" style="fill:none;stroke:#669DF6;stroke-width:2;stroke-miterlimit:10"/><circle cx="146.4" cy="78.3" r="4.2" style="fill:none;stroke:#000000;stroke-miterlimit:10"/><path class="st35" d="M238.7 52.8h-28.2v-3.4c0-2.5 2-4.6 4.6-4.6h19.1c2.5 0 4.6 2 4.6 4.6v3.4z"/><path class="st36" d="M174.5 52.8h-28.2v-3.4c0-2.5 2-4.6 4.6-4.6H170c2.5 0 4.6 2 4.6 4.6v3.4z"/><path d="M240 54.5h-94c-23.3 0-42.1 19-41.8 42.4.3 22.5 18.8 40.9 41.3 41.2 12 .1 22.9-4.8 30.6-12.8 3.7-3.9 8.8-6 14.2-6h3.8c5.4 0 10.5 2.2 14.2 6 7.7 8 18.5 13 30.6 12.8 22.9-.2 41.5-19.2 41.3-42.1-.2-22.5-18-40.7-40.2-41.5z" style="fill:#404D64"/><path class="st38" d="M158.8 90h-8.7c-.9 0-1.6-.7-1.6-1.6v-8.7c0-.9-.7-1.6-1.6-1.6h-9.3c-.9 0-1.6.7-1.6 1.6v8.7c0 .9-.7 1.6-1.6 1.6h-8.8c-.9 0-1.6.7-1.6 1.6v9.3c0 .9.7 1.6 1.6 1.6h8.8c.9 0 1.6.7 1.6 1.6v8.7c0 .9.7 1.6 1.6 1.6h9.3c.9 0 1.6-.7 1.6-1.6v-8.7c0-.9.7-1.6 1.6-1.6h8.7c.9 0 1.6-.7 1.6-1.6v-9.3c0-.9-.8-1.6-1.6-1.6z"/><circle class="st38" cx="230.2" cy="96.6" r="5.6"/><circle class="st38" cx="255.9" cy="96.6" r="5.6"/><circle class="st39" cx="243" cy="109.5" r="5.6"/><circle class="st39" cx="243" cy="83.7" r="5.6"/><defs><path id="SVGID_00000125570306358680480470000010541586000306718896_" d="M240 54.5h-94c-23.3 0-42.1 19-41.8 42.4.3 22.5 18.8 40.9 41.3 41.2 12 .1 22.9-4.8 30.6-12.8 3.7-3.9 8.8-6 14.2-6h3.8c5.4 0 10.5 2.2 14.2 6 7.7 8 18.5 13 30.6 12.8 22.9-.2 41.5-19.2 41.3-42.1-.2-22.5-18-40.7-40.2-41.5z"/></defs><clipPath id="SVGID_00000069377639325447495890000011697052336823006647_"><use xlink:href="#SVGID_00000125570306358680480470000010541586000306718896_" style="overflow:visible"/></clipPath><path style="clip-path:url(#SVGID_00000069377639325447495890000011697052336823006647_);fill:none;stroke:#202124;stroke-width:2;stroke-miterlimit:10" d="M192.9 71.3c-4.7 0-8.5-3.8-8.5-8.5V48.3c0-4.7 3.8-8.5 8.5-8.5s8.5 3.8 8.5 8.5v14.5c.1 4.7-3.7 8.5-8.5 8.5z"/><path class="st35" d="M41.8 91.9 39 86.3c-.1-.3-.4-.5-.7-.5l-6.3-.4c-.3 0-.6.1-.8.4L27.7 91c-.2.3-.2.6-.1.9l2.8 5.6c.1.3.4.5.7.5l6.2.4c.3 0 .6-.1.8-.4l3.5-5.2c.3-.2.3-.6.2-.9z"/><path d="m51.6 44.1 19.7 14c.8.6 1.9.1 2-.9l2.3-24c.1-1-.9-1.7-1.8-1.3l-21.9 10c-1 .4-1.1 1.6-.3 2.2z" style="fill:none;stroke:#669DF6;stroke-width:3;stroke-linecap:round;stroke-linejoin:round;stroke-miterlimit:10"/><path d="m59.6 67.8 8.5-18.5c.5-1 1.6-1.4 2.6-1l18.5 8.5c1 .5 1.4 1.6 1 2.6L81.7 78c-.5 1-1.6 1.4-2.6 1l-18.5-8.5c-1-.5-1.5-1.7-1-2.7z" style="fill:#F882FF"/><path class="st42" d="M74.4 32.9c-.1 0-.1 0 0 0-.1 0-.1 0 0 0l-22 10-.1.1v.1l14 10 1.9-4.1c.4-.8 1.3-1.2 2.2-.8l2.4 1.1 1.6-16.4c0 .1 0 0 0 0z"/><path class="st42" d="M68.3 48.9 66.4 53l5.6 4h.1l.1-.1.7-7.7-2.4-1.1c-.9-.3-1.9 0-2.2.8z"/><path d="M72 59.5c.4 0 .7-.1 1-.2.8-.4 1.4-1.1 1.4-2l.6-6.9-2.3-1.1-.6 7.7s0 .1-.1.1h-.1l-5.6-4-1 2.2 5.3 3.7c.4.3.9.5 1.4.5z" style="fill:#202124;stroke:#202124;stroke-miterlimit:10"/><path class="st44" d="M106.4 149.7c7.9-9.7 4.2-18.3 5.5-25.4.9-5.1 4.7-9.5 7.2-13.9 2.6-4.4 6.2-8.9 6-14.3 0-.8-.2-1.6-.5-2.3-1-2-3.6-2.2-5.5-1.7-8.5 2.1-17.4 13.1-22.4 19.8-7.7 10.1-14.3 21.6-19.1 33.5-4.3 10.8-6.6 22.1-10.8 33"/><circle class="st36" cx="305.3" cy="33" r="14.6"/><path d="m339 55.1-7.4-3.1c-.3-.1-.5-.5-.3-.8l3.1-7.4c.1-.3.5-.5.8-.3l7.4 3.1c.3.1.5.5.3.8l-3.1 7.4c-.1.3-.4.4-.8.3z" style="fill:#EA4335"/><path d="M315.4 85.1c.2-.7.4-1.3.4-2l.4-2.2c.4-1.9 1.4-3.3 2.9-4.4 2-1.5 4.5-2.4 5.2-5.1.6-2.1-.1-4.5-1.7-6.1-.1-.1-.2-.2-.3-.2-3-2.7-7.5-2.2-9.6 1-.6.9-1 1.9-1.5 2.9-.9 1.7-2.4 3-4.3 3.5l-2.1.6c-.7.1-1.3.3-2 .6-1.3.6-2.5 1.5-3.4 2.7-2.6 3.4-2.2 8.4.9 11.7 3.7 3.9 9.8 3.9 13.2.2.9-1.1 1.5-2.1 1.9-3.2z" style="fill:#5C5D60"/><path class="st44" d="M266.2 146.3c-3.3-9.9-7.6-20.7-2-29.6.8-.9-2.4-6.1-3-7.4-.7-1.2-3.2-8.1-2.6-11.9.1-2.2 1.8-4 4.1-4.2 2.7-.4 4.5 1.9 6.3 3.9 9.9 11.3 17.6 24.3 22.8 38.4 0 0 4.1 11.7 6.3 31"/></g></svg>