<?xml version="1.0" encoding="UTF-8"?>
<!--Generator: Apple Native CoreSVG 175-->
<!DOCTYPE svg
PUBLIC "-//W3C//DTD SVG 1.1//EN"
       "http://www.w3.org/Graphics/SVG/1.1/DTD/svg11.dtd">
<svg version="1.1" xmlns="http://www.w3.org/2000/svg" xmlns:xlink="http://www.w3.org/1999/xlink" width="3300" height="2200">
 <!--glyph: "", point size: 100.0, font version: "17.1d1e1", template writer version: "65.1"-->
 <g id="Notes">
  <rect height="2200" id="artboard" style="fill:white;opacity:1" width="3300" x="0" y="0"/>
  <line style="fill:none;stroke:black;opacity:1;stroke-width:0.5;" x1="263" x2="3036" y1="292" y2="292"/>
  <text style="stroke:none;fill:black;font-family:sans-serif;font-size:13;font-weight:bold;" transform="matrix(1 0 0 1 263 322)">Weight/Scale Variations</text>
  <text style="stroke:none;fill:black;font-family:sans-serif;font-size:13;text-anchor:middle;" transform="matrix(1 0 0 1 559.711 322)">Ultralight</text>
  <text style="stroke:none;fill:black;font-family:sans-serif;font-size:13;text-anchor:middle;" transform="matrix(1 0 0 1 856.422 322)">Thin</text>
  <text style="stroke:none;fill:black;font-family:sans-serif;font-size:13;text-anchor:middle;" transform="matrix(1 0 0 1 1153.13 322)">Light</text>
  <text style="stroke:none;fill:black;font-family:sans-serif;font-size:13;text-anchor:middle;" transform="matrix(1 0 0 1 1449.84 322)">Regular</text>
  <text style="stroke:none;fill:black;font-family:sans-serif;font-size:13;text-anchor:middle;" transform="matrix(1 0 0 1 1746.56 322)">Medium</text>
  <text style="stroke:none;fill:black;font-family:sans-serif;font-size:13;text-anchor:middle;" transform="matrix(1 0 0 1 2043.27 322)">Semibold</text>
  <text style="stroke:none;fill:black;font-family:sans-serif;font-size:13;text-anchor:middle;" transform="matrix(1 0 0 1 2339.98 322)">Bold</text>
  <text style="stroke:none;fill:black;font-family:sans-serif;font-size:13;text-anchor:middle;" transform="matrix(1 0 0 1 2636.69 322)">Heavy</text>
  <text style="stroke:none;fill:black;font-family:sans-serif;font-size:13;text-anchor:middle;" transform="matrix(1 0 0 1 2933.4 322)">Black</text>
  <line style="fill:none;stroke:black;opacity:1;stroke-width:0.5;" x1="263" x2="3036" y1="1903" y2="1903"/>
  <g transform="matrix(1 0 0 1 263 1933)">
   <path d="M9.24805 0.830078Q10.8691 0.830078 12.2949 0.214844Q13.7207-0.400391 14.8096-1.49414Q15.8984-2.58789 16.5186-4.01367Q17.1387-5.43945 17.1387-7.05078Q17.1387-8.66211 16.5186-10.0879Q15.8984-11.5137 14.8047-12.6074Q13.7109-13.7012 12.2852-14.3164Q10.8594-14.9316 9.23828-14.9316Q7.62695-14.9316 6.20117-14.3164Q4.77539-13.7012 3.69141-12.6074Q2.60742-11.5137 1.9873-10.0879Q1.36719-8.66211 1.36719-7.05078Q1.36719-5.43945 1.9873-4.01367Q2.60742-2.58789 3.69629-1.49414Q4.78516-0.400391 6.21094 0.214844Q7.63672 0.830078 9.24805 0.830078ZM9.24805-0.654297Q7.91992-0.654297 6.7627-1.14746Q5.60547-1.64062 4.73145-2.51953Q3.85742-3.39844 3.36426-4.56055Q2.87109-5.72266 2.87109-7.05078Q2.87109-8.37891 3.35938-9.54102Q3.84766-10.7031 4.72168-11.582Q5.5957-12.4609 6.75293-12.9541Q7.91016-13.4473 9.23828-13.4473Q10.5762-13.4473 11.7334-12.9541Q12.8906-12.4609 13.7695-11.582Q14.6484-10.7031 15.1465-9.54102Q15.6445-8.37891 15.6445-7.05078Q15.6445-5.72266 15.1514-4.56055Q14.6582-3.39844 13.7842-2.51953Q12.9102-1.64062 11.748-1.14746Q10.5859-0.654297 9.24805-0.654297ZM5.6543-7.05078Q5.6543-6.72852 5.85938-6.52832Q6.06445-6.32812 6.40625-6.32812L8.51562-6.32812L8.51562-4.20898Q8.51562-3.88672 8.71094-3.67676Q8.90625-3.4668 9.23828-3.4668Q9.56055-3.4668 9.77051-3.67676Q9.98047-3.88672 9.98047-4.20898L9.98047-6.32812L12.0898-6.32812Q12.4219-6.32812 12.627-6.52832Q12.832-6.72852 12.832-7.05078Q12.832-7.38281 12.627-7.58789Q12.4219-7.79297 12.0898-7.79297L9.98047-7.79297L9.98047-9.90234Q9.98047-10.2344 9.77051-10.4443Q9.56055-10.6543 9.23828-10.6543Q8.90625-10.6543 8.71094-10.4443Q8.51562-10.2344 8.51562-9.90234L8.51562-7.79297L6.40625-7.79297Q6.06445-7.79297 5.85938-7.58789Q5.6543-7.38281 5.6543-7.05078Z"/>
  </g>
  <g transform="matrix(1 0 0 1 281.867 1933)">
   <path d="M11.709 2.91016Q13.75 2.91016 15.5518 2.12891Q17.3535 1.34766 18.7305-0.0292969Q20.1074-1.40625 20.8887-3.20801Q21.6699-5.00977 21.6699-7.05078Q21.6699-9.0918 20.8887-10.8936Q20.1074-12.6953 18.7305-14.0723Q17.3535-15.4492 15.5469-16.2305Q13.7402-17.0117 11.6992-17.0117Q9.6582-17.0117 7.85645-16.2305Q6.05469-15.4492 4.68262-14.0723Q3.31055-12.6953 2.5293-10.8936Q1.74805-9.0918 1.74805-7.05078Q1.74805-5.00977 2.5293-3.20801Q3.31055-1.40625 4.6875-0.0292969Q6.06445 1.34766 7.86621 2.12891Q9.66797 2.91016 11.709 2.91016ZM11.709 1.25Q9.98047 1.25 8.47656 0.605469Q6.97266-0.0390625 5.83496-1.17676Q4.69727-2.31445 4.05762-3.81836Q3.41797-5.32227 3.41797-7.05078Q3.41797-8.7793 4.05762-10.2832Q4.69727-11.7871 5.83008-12.9297Q6.96289-14.0723 8.4668-14.7119Q9.9707-15.3516 11.6992-15.3516Q13.4277-15.3516 14.9316-14.7119Q16.4355-14.0723 17.5781-12.9297Q18.7207-11.7871 19.3652-10.2832Q20.0098-8.7793 20.0098-7.05078Q20.0098-5.32227 19.3701-3.81836Q18.7305-2.31445 17.5928-1.17676Q16.4551-0.0390625 14.9463 0.605469Q13.4375 1.25 11.709 1.25ZM7.17773-7.05078Q7.17773-6.69922 7.41211-6.47461Q7.64648-6.25 8.01758-6.25L10.8887-6.25L10.8887-3.36914Q10.8887-2.99805 11.1133-2.76855Q11.3379-2.53906 11.6895-2.53906Q12.0605-2.53906 12.29-2.76855Q12.5195-2.99805 12.5195-3.36914L12.5195-6.25L15.4004-6.25Q15.7715-6.25 16.001-6.47461Q16.2305-6.69922 16.2305-7.05078Q16.2305-7.42188 16.001-7.65137Q15.7715-7.88086 15.4004-7.88086L12.5195-7.88086L12.5195-10.752Q12.5195-11.1328 12.29-11.3623Q12.0605-11.5918 11.6895-11.5918Q11.3379-11.5918 11.1133-11.3574Q10.8887-11.123 10.8887-10.752L10.8887-7.88086L8.01758-7.88086Q7.63672-7.88086 7.40723-7.65137Q7.17773-7.42188 7.17773-7.05078Z"/>
  </g>
  <g transform="matrix(1 0 0 1 305.646 1933)">
   <path d="M14.9707 5.66406Q17.0605 5.66406 18.96 5.01465Q20.8594 4.36523 22.4512 3.19336Q24.043 2.02148 25.2197 0.429688Q26.3965-1.16211 27.0459-3.06641Q27.6953-4.9707 27.6953-7.05078Q27.6953-9.14062 27.0459-11.04Q26.3965-12.9395 25.2197-14.5312Q24.043-16.123 22.4512-17.2998Q20.8594-18.4766 18.9551-19.126Q17.0508-19.7754 14.9609-19.7754Q12.8711-19.7754 10.9717-19.126Q9.07227-18.4766 7.48535-17.2998Q5.89844-16.123 4.72168-14.5312Q3.54492-12.9395 2.90039-11.04Q2.25586-9.14062 2.25586-7.05078Q2.25586-4.9707 2.90527-3.06641Q3.55469-1.16211 4.72656 0.429688Q5.89844 2.02148 7.49023 3.19336Q9.08203 4.36523 10.9814 5.01465Q12.8809 5.66406 14.9707 5.66406ZM14.9707 3.84766Q13.1641 3.84766 11.5283 3.2959Q9.89258 2.74414 8.53516 1.74805Q7.17773 0.751953 6.17676-0.610352Q5.17578-1.97266 4.62891-3.6084Q4.08203-5.24414 4.08203-7.05078Q4.08203-8.86719 4.62891-10.5029Q5.17578-12.1387 6.17188-13.501Q7.16797-14.8633 8.52539-15.8594Q9.88281-16.8555 11.5186-17.4023Q13.1543-17.9492 14.9609-17.9492Q16.7773-17.9492 18.4131-17.4023Q20.0488-16.8555 21.4111-15.8594Q22.7734-14.8633 23.7695-13.501Q24.7656-12.1387 25.3174-10.5029Q25.8691-8.86719 25.8691-7.05078Q25.8789-5.24414 25.332-3.6084Q24.7852-1.97266 23.7842-0.610352Q22.7832 0.751953 21.4209 1.74805Q20.0586 2.74414 18.4229 3.2959Q16.7871 3.84766 14.9707 3.84766ZM9.19922-7.05078Q9.19922-6.66992 9.45801-6.4209Q9.7168-6.17188 10.1172-6.17188L14.0625-6.17188L14.0625-2.2168Q14.0625-1.81641 14.3115-1.55762Q14.5605-1.29883 14.9512-1.29883Q15.3516-1.29883 15.6104-1.55273Q15.8691-1.80664 15.8691-2.2168L15.8691-6.17188L19.8242-6.17188Q20.2246-6.17188 20.4785-6.4209Q20.7324-6.66992 20.7324-7.05078Q20.7324-7.46094 20.4785-7.71484Q20.2246-7.96875 19.8242-7.96875L15.8691-7.96875L15.8691-11.9141Q15.8691-12.3242 15.6104-12.583Q15.3516-12.8418 14.9512-12.8418Q14.5605-12.8418 14.3115-12.583Q14.0625-12.3242 14.0625-11.9141L14.0625-7.96875L10.1172-7.96875Q9.70703-7.96875 9.45312-7.71484Q9.19922-7.46094 9.19922-7.05078Z"/>
  </g>
  <text style="stroke:none;fill:black;font-family:sans-serif;font-size:13;font-weight:bold;" transform="matrix(1 0 0 1 263 1953)">Design Variations</text>
  <text style="stroke:none;fill:black;font-family:sans-serif;font-size:13;" transform="matrix(1 0 0 1 263 1971)">Symbols are supported in up to nine weights and three scales.</text>
  <text style="stroke:none;fill:black;font-family:sans-serif;font-size:13;" transform="matrix(1 0 0 1 263 1989)">For optimal layout with text and other symbols, vertically align</text>
  <text style="stroke:none;fill:black;font-family:sans-serif;font-size:13;" transform="matrix(1 0 0 1 263 2007)">symbols with the adjacent text.</text>
  <line style="fill:none;stroke:#00AEEF;stroke-width:0.5;opacity:1.0;" x1="776" x2="776" y1="1919" y2="1933"/>
  <g transform="matrix(1 0 0 1 776 1933)">
   <path d="M3.31055 0.15625Q3.70117 0.15625 3.91602-0.00976562Q4.13086-0.175781 4.26758-0.585938L5.52734-4.0332L11.2891-4.0332L12.5488-0.585938Q12.6855-0.175781 12.9004-0.00976562Q13.1152 0.15625 13.4961 0.15625Q13.8867 0.15625 14.1162-0.0585938Q14.3457-0.273438 14.3457-0.644531Q14.3457-0.869141 14.2383-1.17188L9.6582-13.3691Q9.48242-13.8184 9.17969-14.043Q8.87695-14.2676 8.4082-14.2676Q7.5-14.2676 7.17773-13.3789L2.59766-1.16211Q2.49023-0.859375 2.49023-0.634766Q2.49023-0.263672 2.70996-0.0537109Q2.92969 0.15625 3.31055 0.15625ZM6.00586-5.51758L8.37891-12.0898L8.42773-12.0898L10.8008-5.51758Z"/>
  </g>
  <line style="fill:none;stroke:#00AEEF;stroke-width:0.5;opacity:1.0;" x1="793.197" x2="793.197" y1="1919" y2="1933"/>
  <text style="stroke:none;fill:black;font-family:sans-serif;font-size:13;font-weight:bold;" transform="matrix(1 0 0 1 776 1953)">Margins</text>
  <text style="stroke:none;fill:black;font-family:sans-serif;font-size:13;" transform="matrix(1 0 0 1 776 1971)">Leading and trailing margins on the left and right side of each symbol</text>
  <text style="stroke:none;fill:black;font-family:sans-serif;font-size:13;" transform="matrix(1 0 0 1 776 1989)">can be adjusted by modifying the x-location of the margin guidelines.</text>
  <text style="stroke:none;fill:black;font-family:sans-serif;font-size:13;" transform="matrix(1 0 0 1 776 2007)">Modifications are automatically applied proportionally to all</text>
  <text style="stroke:none;fill:black;font-family:sans-serif;font-size:13;" transform="matrix(1 0 0 1 776 2025)">scales and weights.</text>
  <g transform="matrix(1 0 0 1 1289 1933)">
   <path d="M2.8418 1.86523L4.54102 3.57422Q5.18555 4.22852 5.90332 4.17969Q6.62109 4.13086 7.31445 3.35938L18.0078-8.42773L17.041-9.4043L6.42578 2.27539Q6.16211 2.57812 5.89355 2.61719Q5.625 2.65625 5.27344 2.30469L4.10156 1.14258Q3.75 0.791016 3.79395 0.522461Q3.83789 0.253906 4.14062-0.0195312L15.6152-10.8203L14.6387-11.7871L3.04688-0.898438Q2.30469-0.214844 2.25098 0.498047Q2.19727 1.21094 2.8418 1.86523ZM9.25781-16.3281Q8.94531-16.0254 8.90625-15.6348Q8.86719-15.2441 9.04297-14.9512Q9.21875-14.6777 9.55566-14.541Q9.89258-14.4043 10.3809-14.5215Q11.4746-14.7754 12.5977-14.7314Q13.7207-14.6875 14.7949-13.9844L14.209-12.5293Q13.9551-11.9043 14.0674-11.4404Q14.1797-10.9766 14.5801-10.5664L16.875-8.25195Q17.2363-7.88086 17.5781-7.82227Q17.9199-7.76367 18.3398-7.8418L19.4043-8.03711L20.0684-7.36328L20.0293-6.80664Q20-6.43555 20.1221-6.12305Q20.2441-5.81055 20.6055-5.44922L21.3672-4.70703Q21.7285-4.3457 22.1533-4.33105Q22.5781-4.31641 22.9297-4.66797L25.8398-7.58789Q26.1914-7.93945 26.1816-8.35449Q26.1719-8.76953 25.8105-9.13086L25.0391-9.89258Q24.6875-10.2539 24.3799-10.3857Q24.0723-10.5176 23.7109-10.4883L23.1348-10.4395L22.4902-11.0742L22.7344-12.1973Q22.832-12.6172 22.6953-12.9834Q22.5586-13.3496 22.1191-13.7891L19.9219-15.9766Q18.6719-17.2168 17.2607-17.8369Q15.8496-18.457 14.4189-18.4814Q12.9883-18.5059 11.665-17.959Q10.3418-17.4121 9.25781-16.3281ZM10.752-15.957Q11.6602-16.6211 12.7002-16.9043Q13.7402-17.1875 14.8047-17.085Q15.8691-16.9824 16.8701-16.5137Q17.8711-16.0449 18.7012-15.2051L21.1328-12.793Q21.3086-12.6172 21.3525-12.4512Q21.3965-12.2852 21.3379-12.0312L21.0156-10.5469L22.5195-9.0625L23.5059-9.12109Q23.6914-9.13086 23.7891-9.09668Q23.8867-9.0625 24.0332-8.91602L24.6094-8.33984L22.168-5.89844L21.5918-6.47461Q21.4453-6.62109 21.4062-6.71875Q21.3672-6.81641 21.377-7.01172L21.4453-7.98828L19.9512-9.47266L18.4277-9.21875Q18.1836-9.16992 18.042-9.2041Q17.9004-9.23828 17.7148-9.41406L15.7129-11.416Q15.5176-11.5918 15.4932-11.7529Q15.4688-11.9141 15.5859-12.1875L16.4648-14.2773Q15.293-15.3711 13.8281-15.791Q12.3633-16.2109 10.8398-15.7617Q10.7227-15.7324 10.6885-15.8057Q10.6543-15.8789 10.752-15.957Z"/>
  </g>
  <text style="stroke:none;fill:black;font-family:sans-serif;font-size:13;font-weight:bold;" transform="matrix(1 0 0 1 1289 1953)">Exporting</text>
  <text style="stroke:none;fill:black;font-family:sans-serif;font-size:13;" transform="matrix(1 0 0 1 1289 1971)">Symbols should be outlined when exporting to ensure the</text>
  <text style="stroke:none;fill:black;font-family:sans-serif;font-size:13;" transform="matrix(1 0 0 1 1289 1989)">design is preserved when submitting to Xcode.</text>
  <text id="template-version" style="stroke:none;fill:black;font-family:sans-serif;font-size:13;text-anchor:end;" transform="matrix(1 0 0 1 3036 1933)">Template v.2.0</text>
  <text style="stroke:none;fill:black;font-family:sans-serif;font-size:13;text-anchor:end;" transform="matrix(1 0 0 1 3036 1951)">Requires Xcode 12 or greater</text>
  <text id="descriptive-name" style="stroke:none;fill:black;font-family:sans-serif;font-size:13;text-anchor:end;" transform="matrix(1 0 0 1 3036 1969)">Generated from camera.fill.bling</text>
  <text style="stroke:none;fill:black;font-family:sans-serif;font-size:13;text-anchor:end;" transform="matrix(1 0 0 1 3036 1987)">Typeset at 100 points</text>
  <text style="stroke:none;fill:black;font-family:sans-serif;font-size:13;" transform="matrix(1 0 0 1 263 726)">Small</text>
  <text style="stroke:none;fill:black;font-family:sans-serif;font-size:13;" transform="matrix(1 0 0 1 263 1156)">Medium</text>
  <text style="stroke:none;fill:black;font-family:sans-serif;font-size:13;" transform="matrix(1 0 0 1 263 1586)">Large</text>
 </g>
 <g id="Guides">
  <g id="H-reference" style="fill:#27AAE1;stroke:none;" transform="matrix(1 0 0 1 339 696)">
   <path d="M0.993347 0L3.6377 0L29.3282-67.1326L30.0301-67.1326L30.0301-70.459L28.1227-70.459ZM11.6882-24.4797L46.9818-24.4797L46.2311-26.7288L12.4382-26.7288ZM55.1193 0L57.7637 0L30.6381-70.459L29.4327-70.459L29.4327-67.1326Z"/>
  </g>
  <line id="Baseline-S" style="fill:none;stroke:#27AAE1;opacity:1;stroke-width:0.5;" x1="263" x2="3036" y1="696" y2="696"/>
  <line id="Capline-S" style="fill:none;stroke:#27AAE1;opacity:1;stroke-width:0.5;" x1="263" x2="3036" y1="625.541" y2="625.541"/>
  <g id="H-reference" style="fill:#27AAE1;stroke:none;" transform="matrix(1 0 0 1 339 1126)">
   <path d="M0.993347 0L3.6377 0L29.3282-67.1326L30.0301-67.1326L30.0301-70.459L28.1227-70.459ZM11.6882-24.4797L46.9818-24.4797L46.2311-26.7288L12.4382-26.7288ZM55.1193 0L57.7637 0L30.6381-70.459L29.4327-70.459L29.4327-67.1326Z"/>
  </g>
  <line id="Baseline-M" style="fill:none;stroke:#27AAE1;opacity:1;stroke-width:0.5;" x1="263" x2="3036" y1="1126" y2="1126"/>
  <line id="Capline-M" style="fill:none;stroke:#27AAE1;opacity:1;stroke-width:0.5;" x1="263" x2="3036" y1="1055.54" y2="1055.54"/>
  <g id="H-reference" style="fill:#27AAE1;stroke:none;" transform="matrix(1 0 0 1 339 1556)">
   <path d="M0.993347 0L3.6377 0L29.3282-67.1326L30.0301-67.1326L30.0301-70.459L28.1227-70.459ZM11.6882-24.4797L46.9818-24.4797L46.2311-26.7288L12.4382-26.7288ZM55.1193 0L57.7637 0L30.6381-70.459L29.4327-70.459L29.4327-67.1326Z"/>
  </g>
  <line id="Baseline-L" style="fill:none;stroke:#27AAE1;opacity:1;stroke-width:0.5;" x1="263" x2="3036" y1="1556" y2="1556"/>
  <line id="Capline-L" style="fill:none;stroke:#27AAE1;opacity:1;stroke-width:0.5;" x1="263" x2="3036" y1="1485.54" y2="1485.54"/>
  <line id="left-margin" style="fill:none;stroke:#00AEEF;stroke-width:0.5;opacity:1.0;" x1="1377.43" x2="1377.43" y1="1030.78" y2="1150.12"/>
  <line id="right-margin" style="fill:none;stroke:#00AEEF;stroke-width:0.5;opacity:1.0;" x1="1522.26" x2="1522.26" y1="1030.78" y2="1150.12"/>
 </g>
 <g id="Symbols">
  <g id="Black-L" transform="matrix(1 0 0 1 2838.93 1556)">
   <path d="M101.25 25.28L43.31 25.28C32.89 25.28 24.99 23 19.62 18.44C14.25 13.93 11.57 6.87 11.57-2.74L11.57-65.61C11.57-75.31 14.25-82.8 19.62-88.08C25.04-93.36 32.93-96 43.31-96L101.25-96C111.63-96 119.5-93.36 124.87-88.08C130.17-82.96 132.87-75.72 132.99-66.36L132.99-4.43C132.87 4.93 130.17 12.2 124.87 17.36C119.5 22.64 111.63 25.28 101.25 25.28ZM145.59 2.06L152.21 8.16C154.78 10.37 157.22 12.15 159.52 13.5C161.87 14.81 164.3 15.47 166.83 15.47C170.49 15.47 173.51 14.32 175.9 12.01C178.34 9.67 179.55 6.44 179.55 2.34L179.55-71.3C179.55-75.45 178.34-78.67 175.9-80.98C173.51-83.32 170.49-84.49 166.83-84.49C164.3-84.49 161.87-83.82 159.52-82.46C157.22-81.11 154.78-79.35 152.21-77.19L145.59-71.09L145.59 2.06Z"/>
  </g>
  <g id="Heavy-L" transform="matrix(1 0 0 1 2543.58 1556)">
   <path d="M100.43 23.97L42.09 23.97C32.17 23.97 24.59 21.69 19.35 17.13C14.16 12.58 11.57 5.65 11.57-3.64L11.57-65.63C11.57-74.97 14.21-82.19 19.49-87.29C24.77-92.43 32.3-95 42.09-95L100.43-95C110.31-95 117.87-92.45 123.1-87.35C128.34-82.25 130.95-75.04 130.95-65.7L130.95-58.41L130.97-58.42L130.97-11.32L130.95-11.34L130.95-5.4C130.95 3.94 128.34 11.16 123.1 16.26C117.87 21.4 110.31 23.97 100.43 23.97ZM142-1.21L151.59 7.59C153.89 9.58 156.1 11.16 158.22 12.33C160.35 13.5 162.53 14.09 164.79 14.09C168.31 14.09 171.2 12.98 173.45 10.77C175.71 8.52 176.83 5.45 176.83 1.57L176.83-71.25C176.83-75.17 175.71-78.24 173.45-80.45C171.2-82.71 168.31-83.83 164.79-83.83C162.53-83.83 160.35-83.22 158.22-82.01C156.1-80.83 153.89-79.28 151.59-77.34L142-68.54L142-1.21Z"/>
  </g>
  <g id="Bold-L" transform="matrix(1 0 0 1 2248.4 1556)">
   <path d="M99.47 23.25L40.67 23.25C31.33 23.25 24.13 20.97 19.08 16.42C14.07 11.86 11.57 5.12 11.57-3.82L11.57-64.78C11.57-73.76 14.12-80.71 19.22-85.62C24.36-90.54 31.51-93 40.67-93L99.47-93C108.77-93 115.92-90.54 120.92-85.62C125.62-81.06 128.13-74.75 128.46-66.72L128.46-3.1C128.13 4.94 125.62 11.24 120.92 15.81C115.92 20.77 108.77 23.25 99.47 23.25ZM139.49-2.61L150.9 7.82C152.89 9.49 154.8 10.84 156.65 11.88C158.55 12.87 160.49 13.37 162.47 13.37C165.76 13.37 168.47 12.29 170.59 10.12C172.71 7.96 173.77 5.07 173.77 1.46L173.77-70.33C173.77-73.99 172.71-76.9 170.59-79.06C168.47-81.23 165.76-82.31 162.47-82.31C160.49-82.31 158.55-81.79 156.65-80.75C154.8-79.71 152.89-78.38 150.9-76.76L139.49-66.36L139.49-2.61Z"/>
  </g>
  <g id="Semibold-L" transform="matrix(1 0 0 1 1952.75 1556)">
   <path d="M98.82 22.38L39.66 22.38C30.72 22.38 23.8 20.1 18.88 15.54C14.01 10.99 11.57 4.38 11.57-4.29L11.57-64.59C11.57-73.3 14.07-80.04 19.08-84.83C24.09-89.61 30.95-92 39.66-92L98.82-92C107.71-92 114.61-89.61 119.53-84.83C124.22-80.26 126.67-73.94 126.89-65.85L126.89-3.83C126.67 4.3 124.22 10.64 119.53 15.21C114.61 19.99 107.71 22.38 98.82 22.38ZM137.13-4.51L150.46 7.63C152.17 9.07 153.89 10.24 155.6 11.15C157.36 12.05 159.12 12.5 160.88 12.5C164.04 12.5 166.61 11.46 168.59 9.39C170.63 7.26 171.64 4.49 171.64 1.06L171.64-70.07C171.64-73.55 170.63-76.32 168.59-78.4C166.61-80.52 164.04-81.58 160.88-81.58C159.12-81.58 157.36-81.13 155.6-80.22C153.89-79.32 152.17-78.15 150.46-76.7L137.13-64.6L137.13-4.51Z"/>
  </g>
  <g id="Medium-L" transform="matrix(1 0 0 1 1656.79 1556)">
   <path d="M98.33 22.15L38.98 22.15C30.32 22.15 23.57 19.85 18.74 15.25C13.96 10.69 11.57 4.15 11.57-4.38L11.57-64.13C11.57-72.62 14.05-79.2 19.01-83.89C23.98-88.63 30.63-91 38.98-91L98.33-91C107-91 113.72-88.63 118.5-83.89C123.25-79.24 125.64-72.71 125.67-64.31L125.67-64.31L125.67-4.46L125.67-4.46C125.61 3.91 123.22 10.41 118.5 15.04C113.72 19.78 107 22.15 98.33 22.15ZM135.91-5.14L150.1 7.74C151.68 9.09 153.26 10.17 154.84 10.98C156.47 11.8 158.09 12.2 159.71 12.2C162.83 12.2 165.33 11.19 167.23 9.16C169.17 7.08 170.14 4.37 170.14 1.04L170.14-69.62C170.14-72.95 169.17-75.64 167.23-77.67C165.33-79.7 162.83-80.71 159.71-80.71C158.09-80.71 156.47-80.31 154.84-79.5C153.26-78.68 151.68-77.62 150.1-76.31L135.91-63.44L135.91-5.14Z"/>
  </g>
  <g id="Regular-L" transform="matrix(1 0 0 1 1361.95 1556)">
   <path d="M96.09 20.26L37.96 20.26C29.71 20.26 23.23 17.98 18.54 13.42C13.89 8.82 11.57 2.39 11.57-5.86L11.57-64.94C11.57-73.16 13.98-79.54 18.81-84.1C23.68-88.7 30.07-91 37.96-91L96.09-91C104.34-91 110.79-88.7 115.44-84.1C120.13-79.54 122.48-73.16 122.48-64.94L122.48-54.15L122.5-54.17L122.5-16.64L122.48-16.65L122.48-5.86C122.48 2.39 120.13 8.82 115.44 13.42C110.79 17.98 104.34 20.26 96.09 20.26ZM131.95-8.08L148.06 6.52C149.41 7.65 150.81 8.57 152.26 9.3C153.7 9.97 155.12 10.31 156.52 10.31C159.5 10.31 161.89 9.32 163.69 7.33C165.5 5.35 166.4 2.78 166.4-0.38L166.4-70.36C166.4-73.52 165.5-76.09 163.69-78.07C161.89-80.06 159.5-81.05 156.52-81.05C155.12-81.05 153.7-80.69 152.26-79.97C150.81-79.29 149.41-78.39 148.06-77.26L131.95-62.7L131.95-8.08Z"/>
  </g>
  <g id="Light-L" transform="matrix(1 0 0 1 1065.2 1556)">
   <path d="M98 19.31L36.47 19.31C28.62 19.31 22.51 17.17 18.13 12.88C13.76 8.59 11.57 2.5 11.57-5.39L11.57-66.37C11.57-74.22 13.8-80.28 18.27-84.57C22.78-88.86 28.85-91 36.47-91L98-91C105.89-91 112.01-88.86 116.34-84.57C120.71-80.28 122.9-74.22 122.9-66.37L122.9-61.01L122.87-61.01L122.87-10.61L122.9-10.61L122.9-5.39C122.9 2.5 120.71 8.59 116.34 12.88C112.01 17.17 105.89 19.31 98 19.31ZM130.74-11.81L149.84 5.1C151.14 6.14 152.45 6.99 153.76 7.67C155.07 8.3 156.42 8.62 157.82 8.62C160.44 8.62 162.54 7.76 164.12 6.05C165.69 4.29 166.48 1.96 166.48-0.92L166.48-70.77C166.48-73.65 165.69-75.95 164.12-77.67C162.54-79.43 160.44-80.31 157.82-80.31C156.42-80.31 155.07-79.97 153.76-79.29C152.45-78.66 151.14-77.83 149.84-76.79L130.74-59.88L130.74-11.81Z"/>
  </g>
  <g id="Thin-L" transform="matrix(1 0 0 1 769.472 1556)">
   <path d="M98.465 19.22L34.578 19.22C27.179 19.22 21.495 17.26 17.525 13.33C13.555 9.36 11.57 3.7 11.57-3.65L11.57-67.13C11.57-74.48 13.578-80.12 17.593-84.05C21.608-88.02 27.27-90 34.578-90L98.465-90C105.864-90 111.548-88.02 115.518-84.05C119.488-80.12 121.473-74.48 121.473-67.13L121.473-50.45L121.487-50.46L121.487-20.32L121.473-20.33L121.473-3.65C121.473 3.7 119.488 9.36 115.518 13.33C111.548 17.26 105.864 19.22 98.465 19.22ZM127.786-14.89L150.03 4.26C151.293 5.21 152.511 6 153.684 6.63C154.857 7.22 156.098 7.51 157.406 7.51C159.526 7.51 161.24 6.79 162.549 5.35C163.857 3.9 164.511 1.92 164.511-0.61L164.511-70.17C164.511-72.7 163.857-74.68 162.549-76.13C161.24-77.57 159.526-78.29 157.406-78.29C156.098-78.29 154.857-78 153.684-77.41C152.511-76.83 151.293-76.04 150.03-75.04L127.786-55.89L127.786-14.89Z"/>
  </g>
  <g id="Ultralight-L" transform="matrix(1 0 0 1 472.43 1556)">
   <path d="M100.301 19.75L33.577 19.75C26.445 19.75 20.982 17.88 17.19 14.13C13.443 10.34 11.57 4.88 11.57-2.26L11.57-66.99C11.57-74.13 13.443-79.57 17.19-83.31C20.982-87.1 26.445-89 33.577-89L100.301-89C107.434-89 112.896-87.1 116.688-83.31C120.48-79.57 122.376-74.13 122.376-66.99L122.376-48.68L122.378-48.69L122.378-20.57L122.376-20.57L122.376-2.26C122.376 4.88 120.48 10.34 116.688 14.13C112.896 17.88 107.434 19.75 100.301 19.75ZM127.106-16.55L151.764 4.38C152.983 5.33 154.134 6.09 155.218 6.68C156.346 7.22 157.565 7.49 158.874 7.49C160.77 7.49 162.283 6.86 163.411 5.6C164.585 4.33 165.172 2.51 165.172 0.11L165.172-69.36C165.172-71.76 164.585-73.58 163.411-74.85C162.283-76.11 160.77-76.74 158.874-76.74C157.565-76.74 156.346-76.47 155.218-75.93C154.134-75.39 152.983-74.62 151.764-73.63L127.106-52.7L127.106-16.55Z"/>
  </g>
  <g id="Black-M" transform="matrix(1 0 0 1 2855.73 1126)">
   <path d="M83.31 12.02L36.96 12.02C28.62 12.02 22.31 10.2 18.01 6.55C13.72 2.94 11.57-2.71 11.57-10.39L11.57-60.69C11.57-68.45 13.72-74.44 18.01-78.67C22.34-82.89 28.66-85 36.96-85L83.31-85C91.61-85 97.91-82.89 102.21-78.67C106.45-74.57 108.61-68.78 108.7-61.29L108.7-11.74C108.61-4.26 106.45 1.55 102.21 5.69C97.91 9.91 91.61 12.02 83.31 12.02ZM118.78-6.56L124.08-1.68C126.14 0.09 128.09 1.52 129.93 2.6C131.8 3.65 133.75 4.17 135.77 4.17C138.7 4.17 141.12 3.25 143.03 1.41C144.98-0.47 145.95-3.05 145.95-6.33L145.95-65.24C145.95-68.56 144.98-71.14 143.03-72.98C141.12-74.86 138.7-75.8 135.77-75.8C133.75-75.8 131.8-75.25 129.93-74.17C128.09-73.09 126.14-71.68 124.08-69.95L118.78-65.07L118.78-6.56Z"/>
  </g>
  <g id="Heavy-M" transform="matrix(1 0 0 1 2560.1 1126)">
   <path d="M82.66 11.18L35.99 11.18C28.05 11.18 21.98 9.36 17.8 5.71C13.65 2.07 11.57-3.47 11.57-10.91L11.57-60.5C11.57-67.97 13.68-73.75 17.9-77.83C22.13-81.94 28.16-84 35.99-84L82.66-84C90.57-84 96.61-81.96 100.8-77.88C104.99-73.8 107.08-68.03 107.08-60.56L107.08-54.72L107.1-54.74L107.1-17.05L107.08-17.07L107.08-12.32C107.08-4.85 104.99 0.93 100.8 5.01C96.61 9.12 90.57 11.18 82.66 11.18ZM115.92-8.96L123.59-1.92C125.43-0.33 127.2 0.93 128.9 1.87C130.6 2.81 132.35 3.28 134.15 3.28C136.97 3.28 139.28 2.39 141.08 0.62C142.89-1.18 143.79-3.64 143.79-6.74L143.79-65C143.79-68.14 142.89-70.59 141.08-72.36C139.28-74.16 136.97-75.07 134.15-75.07C132.35-75.07 130.6-74.58 128.9-73.6C127.2-72.67 125.43-71.42 123.59-69.87L115.92-62.83L115.92-8.96Z"/>
  </g>
  <g id="Bold-M" transform="matrix(1 0 0 1 2264.62 1126)">
   <path d="M81.89 12L34.85 12C27.38 12 21.62 10.18 17.58 6.53C13.57 2.89 11.57-2.51 11.57-9.65L11.57-58.43C11.57-65.61 13.61-71.17 17.69-75.1C21.8-79.03 27.52-81 34.85-81L81.89-81C89.33-81 95.05-79.03 99.05-75.1C102.81-71.44 104.82-66.4 105.09-59.97L105.09-9.08C104.82-2.65 102.81 2.39 99.05 6.05C95.05 10.02 89.33 12 81.89 12ZM113.9-8.69L123.03-0.34C124.62 0.99 126.16 2.08 127.64 2.91C129.15 3.7 130.7 4.1 132.29 4.1C134.93 4.1 137.09 3.23 138.79 1.5C140.48-0.23 141.33-2.54 141.33-5.43L141.33-62.87C141.33-65.79 140.48-68.12 138.79-69.85C137.09-71.58 134.93-72.45 132.29-72.45C130.7-72.45 129.15-72.03 127.64-71.2C126.16-70.37 124.62-69.31 123.03-68.01L113.9-59.68L113.9-8.69Z"/>
  </g>
  <g id="Semibold-M" transform="matrix(1 0 0 1 1968.76 1126)">
   <path d="M81.36 9.5L34.04 9.5C26.89 9.5 21.35 7.68 17.42 4.03C13.52 0.39 11.57-4.9 11.57-11.83L11.57-60.07C11.57-67.04 13.57-72.43 17.58-76.26C21.59-80.09 27.07-82 34.04-82L81.36-82C88.47-82 94-80.09 97.93-76.26C101.68-72.61 103.65-67.55 103.82-61.08L103.82-11.47C103.65-4.97 101.68 0.11 97.93 3.76C94 7.59 88.47 9.5 81.36 9.5ZM112.01-12.01L122.67-2.3C124.05-1.15 125.42-0.21 126.79 0.51C128.2 1.23 129.6 1.6 131.01 1.6C133.54 1.6 135.6 0.77 137.18-0.9C138.81-2.59 139.62-4.81 139.62-7.55L139.62-64.46C139.62-67.24 138.81-69.46 137.18-71.12C135.6-72.81 133.54-73.66 131.01-73.66C129.6-73.66 128.2-73.3 126.79-72.58C125.42-71.86 124.05-70.92 122.67-69.76L112.01-60.08L112.01-12.01Z"/>
  </g>
  <g id="Medium-M" transform="matrix(1 0 0 1 1672.65 1126)">
   <path d="M80.98 10.52L33.5 10.52C26.57 10.52 21.17 8.68 17.31 5C13.48 1.35 11.57-3.88 11.57-10.7L11.57-58.51C11.57-65.29 13.55-70.56 17.53-74.32C21.5-78.11 26.82-80 33.5-80L80.98-80C87.91-80 93.29-78.11 97.11-74.32C100.91-70.59 102.83-65.37 102.85-58.65L102.85-58.65L102.85-10.77L102.85-10.77C102.8-4.07 100.89 1.13 97.11 4.84C93.29 8.63 87.91 10.52 80.98 10.52ZM111.04-11.31L122.4-1.01C123.66 0.07 124.92 0.94 126.19 1.59C127.49 2.24 128.79 2.56 130.08 2.56C132.57 2.56 134.58 1.75 136.09 0.13C137.65-1.53 138.42-3.7 138.42-6.37L138.42-62.89C138.42-65.56 137.65-67.71 136.09-69.33C134.58-70.96 132.57-71.77 130.08-71.77C128.79-71.77 127.49-71.45 126.19-70.8C124.92-70.15 123.66-69.3 122.4-68.25L111.04-57.95L111.04-11.31Z"/>
  </g>
  <g id="Regular-M" transform="matrix(1 0 0 1 1377.43 1126)">
   <path d="M79.18 8.01L32.69 8.01C26.08 8.01 20.9 6.19 17.15 2.54C13.43-1.14 11.57-6.28 11.57-12.89L11.57-60.16C11.57-66.72 13.5-71.83 17.36-75.48C21.26-79.16 26.37-81 32.69-81L79.18-81C85.79-81 90.95-79.16 94.67-75.48C98.42-71.83 100.3-66.72 100.3-60.16L100.3-51.52L100.31-51.53L100.31-21.51L100.3-21.52L100.3-12.89C100.3-6.28 98.42-1.14 94.67 2.54C90.95 6.19 85.79 8.01 79.18 8.01ZM107.87-14.66L120.77-2.98C121.85-2.08 122.97-1.34 124.12-0.76C125.28-0.22 126.41 0.05 127.53 0.05C129.92 0.05 131.83-0.74 133.27-2.33C134.72-3.92 135.44-5.98 135.44-8.5L135.44-64.49C135.44-67.01 134.72-69.07 133.27-70.66C131.83-72.25 129.92-73.04 127.53-73.04C126.41-73.04 125.28-72.75 124.12-72.17C122.97-71.63 121.85-70.91 120.77-70.01L107.87-58.36L107.87-14.66Z"/>
  </g>
  <g id="Light-M" transform="matrix(1 0 0 1 1080.69 1126)">
   <path d="M80.71 7.25L31.49 7.25C25.21 7.25 20.32 5.54 16.82 2.11C13.32-1.32 11.57-6.2 11.57-12.51L11.57-61.29C11.57-67.57 13.36-72.43 16.93-75.86C20.54-79.29 25.39-81 31.49-81L80.71-81C87.03-81 91.92-79.29 95.39-75.86C98.89-72.43 100.64-67.57 100.64-61.29L100.64-57.01L100.61-57.01L100.61-16.69L100.64-16.69L100.64-12.51C100.64-6.2 98.89-1.32 95.39 2.11C91.92 5.54 87.03 7.25 80.71 7.25ZM106.91-17.65L122.19-4.12C123.23-3.29 124.28-2.6 125.33-2.06C126.37-1.56 127.45-1.3 128.57-1.3C130.67-1.3 132.35-1.99 133.61-3.36C134.87-4.77 135.5-6.63 135.5-8.94L135.5-64.81C135.5-67.12 134.87-68.96 133.61-70.33C132.35-71.74 130.67-72.45 128.57-72.45C127.45-72.45 126.37-72.17 125.33-71.63C124.28-71.13 123.23-70.46 122.19-69.63L106.91-56.1L106.91-17.65Z"/>
  </g>
  <g id="Thin-M" transform="matrix(1 0 0 1 784.763 1126)">
   <path d="M81.089 8.38L29.977 8.38C24.058 8.38 19.51 6.81 16.334 3.67C13.158 0.49 11.57-4.04 11.57-9.92L11.57-60.7C11.57-66.58 13.176-71.1 16.388-74.24C19.601-77.41 24.13-79 29.977-79L81.089-79C87.008-79 91.556-77.41 94.732-74.24C97.908-71.1 99.496-66.58 99.496-60.7L99.496-47.36L99.507-47.37L99.507-23.25L99.496-23.26L99.496-9.92C99.496-4.04 97.908 0.49 94.732 3.67C91.556 6.81 87.008 8.38 81.089 8.38ZM104.547-18.91L122.343-3.58C123.353-2.83 124.328-2.2 125.266-1.69C126.205-1.22 127.197-0.99 128.244-0.99C129.94-0.99 131.312-1.56 132.359-2.72C133.405-3.87 133.929-5.46 133.929-7.48L133.929-63.14C133.929-65.16 133.405-66.75 132.359-67.9C131.312-69.06 129.94-69.63 128.244-69.63C127.197-69.63 126.205-69.4 125.266-68.93C124.328-68.46 123.353-67.83 122.343-67.04L104.547-51.71L104.547-18.91Z"/>
  </g>
  <g id="Ultralight-M" transform="matrix(1 0 0 1 487.791 1126)">
   <path d="M82.555 8L29.176 8C23.47 8 19.1 6.5 16.066 3.5C13.069 0.47 11.57-3.9 11.57-9.61L11.57-61.39C11.57-67.1 13.069-71.45 16.066-74.45C19.1-77.48 23.47-79 29.176-79L82.555-79C88.261-79 92.631-77.48 95.664-74.45C98.698-71.45 100.215-67.1 100.215-61.39L100.215-46.75L100.216-46.75L100.216-24.25L100.215-24.25L100.215-9.61C100.215-3.9 98.698 0.47 95.664 3.5C92.631 6.5 88.261 8 82.555 8ZM103.999-21.04L123.725-4.3C124.701-3.54 125.621-2.92 126.488-2.46C127.391-2.02 128.366-1.81 129.413-1.81C130.93-1.81 132.14-2.31 133.043-3.32C133.982-4.33 134.451-5.8 134.451-7.71L134.451-63.29C134.451-65.2 133.982-66.67 133.043-67.68C132.14-68.69 130.93-69.19 129.413-69.19C128.366-69.19 127.391-68.98 126.488-68.54C125.621-68.11 124.701-67.5 123.725-66.7L103.999-49.96L103.999-21.04Z"/>
  </g>
  <g id="Black-S" transform="matrix(1 0 0 1 2869.6 696)">
   <path d="M68.51 0.477L31.72 0.477C25.11 0.477 20.09-0.97 16.69-3.863C13.28-6.728 11.57-11.211 11.57-17.312L11.57-57.23C11.57-63.389 13.28-68.145 16.69-71.496C20.12-74.848 25.14-76.523 31.72-76.523L68.51-76.523C75.1-76.523 80.1-74.848 83.51-71.496C86.87-68.244 88.59-63.647 88.66-57.706L88.66-18.383C88.59-12.442 86.87-7.831 83.51-4.551C80.1-1.199 75.1 0.477 68.51 0.477ZM96.66-14.267L100.87-10.395C102.5-8.991 104.05-7.859 105.51-7C107-6.169 108.54-5.754 110.15-5.754C112.47-5.754 114.39-6.484 115.9-7.945C117.45-9.435 118.22-11.483 118.22-14.09L118.22-60.84C118.22-63.475 117.45-65.523 115.9-66.984C114.39-68.474 112.47-69.219 110.15-69.219C108.54-69.219 107-68.789 105.51-67.93C104.05-67.07 102.5-65.953 100.87-64.578L96.66-60.705L96.66-14.267Z"/>
  </g>
  <g id="Heavy-S" transform="matrix(1 0 0 1 2573.74 696)">
   <path d="M67.99 1.746L30.95 1.746C24.64 1.746 19.83 0.299 16.51-2.594C13.21-5.487 11.57-9.884 11.57-15.785L11.57-55.145C11.57-61.074 13.24-65.658 16.59-68.895C19.95-72.16 24.73-73.793 30.95-73.793L67.99-73.793C74.26-73.793 79.06-72.174 82.38-68.938C85.71-65.701 87.37-61.117 87.37-55.188L87.37-50.558L87.38-50.569L87.38-20.661L87.37-20.672L87.37-16.902C87.37-10.973 85.71-6.389 82.38-3.152C79.06 0.113 74.26 1.746 67.99 1.746ZM94.38-14.241L100.47-8.652C101.93-7.392 103.34-6.389 104.68-5.645C106.03-4.9 107.42-4.527 108.85-4.527C111.09-4.527 112.92-5.229 114.35-6.633C115.78-8.065 116.5-10.013 116.5-12.477L116.5-58.711C116.5-61.203 115.78-63.151 114.35-64.555C112.92-65.987 111.09-66.703 108.85-66.703C107.42-66.703 106.03-66.316 104.68-65.543C103.34-64.798 101.93-63.81 100.47-62.578L94.38-56.99L94.38-14.241Z"/>
  </g>
  <g id="Bold-S" transform="matrix(1 0 0 1 2278 696)">
   <path d="M67.39 0.887L30.05 0.887C24.12 0.887 19.55-0.56 16.34-3.453C13.16-6.346 11.57-10.629 11.57-16.301L11.57-55.016C11.57-60.716 13.19-65.128 16.43-68.25C19.69-71.372 24.23-72.934 30.05-72.934L67.39-72.934C73.29-72.934 77.83-71.372 81.01-68.25C83.99-65.349 85.59-61.346 85.8-56.243L85.8-15.846C85.59-10.744 83.99-6.741 81.01-3.84C77.83-0.689 73.29 0.887 67.39 0.887ZM92.8-15.536L100.05-8.91C101.31-7.85 102.52-6.991 103.7-6.332C104.9-5.702 106.13-5.387 107.39-5.387C109.49-5.387 111.2-6.074 112.55-7.449C113.9-8.824 114.57-10.658 114.57-12.949L114.57-58.539C114.57-60.859 113.9-62.707 112.55-64.082C111.2-65.457 109.49-66.145 107.39-66.145C106.13-66.145 104.9-65.815 103.7-65.156C102.52-64.497 101.31-63.652 100.05-62.621L92.8-56.014L92.8-15.536Z"/>
  </g>
  <g id="Semibold-S" transform="matrix(1 0 0 1 1981.98 696)">
   <path d="M66.96 1.285L29.4 1.285C23.73 1.285 19.33-0.161 16.21-3.055C13.11-5.948 11.57-10.145 11.57-15.645L11.57-53.93C11.57-59.458 13.16-63.741 16.34-66.777C19.52-69.814 23.87-71.332 29.4-71.332L66.96-71.332C72.6-71.332 76.98-69.814 80.11-66.777C83.08-63.881 84.64-59.865 84.78-54.728L84.78-15.358C84.64-10.195 83.08-6.165 80.11-3.27C76.98-0.233 72.6 1.285 66.96 1.285ZM91.28-15.79L99.74-8.082C100.83-7.165 101.92-6.421 103.01-5.848C104.13-5.275 105.24-4.988 106.36-4.988C108.37-4.988 110-5.647 111.26-6.965C112.55-8.311 113.19-10.073 113.19-12.25L113.19-57.41C113.19-59.616 112.55-61.378 111.26-62.695C110-64.042 108.37-64.715 106.36-64.715C105.24-64.715 104.13-64.428 103.01-63.855C101.92-63.283 100.83-62.538 99.74-61.621L91.28-53.935L91.28-15.79Z"/>
  </g>
  <g id="Medium-S" transform="matrix(1 0 0 1 1685.74 696)">
   <path d="M66.66 0.898L28.98 0.898C23.48 0.898 19.19-0.562 16.13-3.484C13.09-6.378 11.57-10.531 11.57-15.945L11.57-53.887C11.57-59.272 13.15-63.454 16.3-66.434C19.45-69.441 23.68-70.945 28.98-70.945L66.66-70.945C72.16-70.945 76.43-69.441 79.47-66.434C82.48-63.475 84-59.331 84.02-54L84.02-54L84.02-16L84.02-16C83.98-10.684 82.47-6.555 79.47-3.613C76.43-0.605 72.16 0.898 66.66 0.898ZM90.52-16.428L99.53-8.254C100.54-7.395 101.54-6.707 102.54-6.191C103.57-5.676 104.61-5.418 105.64-5.418C107.61-5.418 109.2-6.062 110.41-7.352C111.64-8.669 112.25-10.388 112.25-12.508L112.25-57.367C112.25-59.487 111.64-61.191 110.41-62.48C109.2-63.77 107.61-64.414 105.64-64.414C104.61-64.414 103.57-64.156 102.54-63.641C101.54-63.125 100.54-62.452 99.53-61.621L90.52-53.447L90.52-16.428Z"/>
  </g>
  <g id="Regular-S" transform="matrix(1 0 0 1 1390.21 696)">
   <path d="M65.23 0.297L28.33 0.297C23.09 0.297 18.98-1.15 16-4.043C13.05-6.965 11.57-11.047 11.57-16.289L11.57-53.801C11.57-59.014 13.1-63.068 16.17-65.961C19.26-68.883 23.32-70.344 28.33-70.344L65.23-70.344C70.47-70.344 74.57-68.883 77.52-65.961C80.5-63.068 81.99-59.014 81.99-53.801L81.99-46.948L82-46.957L82-23.13L81.99-23.14L81.99-16.289C81.99-11.047 80.5-6.965 77.52-4.043C74.57-1.15 70.47 0.297 65.23 0.297ZM88-17.694L98.23-8.426C99.09-7.71 99.98-7.122 100.9-6.664C101.81-6.234 102.71-6.02 103.6-6.02C105.49-6.02 107.01-6.65 108.16-7.91C109.3-9.171 109.88-10.803 109.88-12.809L109.88-57.238C109.88-59.243 109.3-60.876 108.16-62.137C107.01-63.397 105.49-64.027 103.6-64.027C102.71-64.027 101.81-63.798 100.9-63.34C99.98-62.91 99.09-62.337 98.23-61.621L88-52.378L88-17.694Z"/>
  </g>
  <g id="Light-S" transform="matrix(1 0 0 1 1093.48 696)">
   <path d="M66.44-0.004L27.38-0.004C22.39-0.004 18.51-1.365 15.73-4.086C12.95-6.807 11.57-10.674 11.57-15.688L11.57-54.402C11.57-59.387 12.98-63.24 15.82-65.961C18.68-68.682 22.54-70.043 27.38-70.043L66.44-70.043C71.45-70.043 75.33-68.682 78.08-65.961C80.86-63.24 82.25-59.387 82.25-54.402L82.25-51L82.23-51L82.23-19L82.25-19L82.25-15.688C82.25-10.674 80.86-6.807 78.08-4.086C75.33-1.365 71.45-0.004 66.44-0.004ZM87.23-19.764L99.35-9.027C100.19-8.368 101.02-7.824 101.85-7.395C102.68-6.993 103.54-6.793 104.42-6.793C106.09-6.793 107.42-7.337 108.42-8.426C109.42-9.543 109.92-11.018 109.92-12.852L109.92-57.195C109.92-59.029 109.42-60.49 108.42-61.578C107.42-62.695 106.09-63.254 104.42-63.254C103.54-63.254 102.68-63.039 101.85-62.609C101.02-62.208 100.19-61.678 99.35-61.02L87.23-50.283L87.23-19.764Z"/>
  </g>
  <g id="Thin-S" transform="matrix(1 0 0 1 797.386 696)">
   <path d="M66.746-0.348L26.18-0.348C21.482-0.348 17.872-1.594 15.351-4.086C12.831-6.607 11.57-10.202 11.57-14.871L11.57-55.176C11.57-59.845 12.845-63.426 15.394-65.918C17.944-68.439 21.539-69.699 26.18-69.699L66.746-69.699C71.444-69.699 75.053-68.439 77.574-65.918C80.095-63.426 81.355-59.845 81.355-55.176L81.355-44.584L81.364-44.592L81.364-25.455L81.355-25.463L81.355-14.871C81.355-10.202 80.095-6.607 77.574-4.086C75.053-1.594 71.444-0.348 66.746-0.348ZM85.364-22.01L99.488-9.844C100.29-9.242 101.064-8.741 101.808-8.34C102.553-7.967 103.341-7.781 104.172-7.781C105.518-7.781 106.607-8.24 107.437-9.156C108.268-10.073 108.683-11.333 108.683-12.938L108.683-57.109C108.683-58.714 108.268-59.974 107.437-60.891C106.607-61.807 105.518-62.266 104.172-62.266C103.341-62.266 102.553-62.079 101.808-61.707C101.064-61.335 100.29-60.833 99.488-60.203L85.364-48.037L85.364-22.01Z"/>
  </g>
  <g id="Ultralight-S" transform="matrix(1 0 0 1 500.497 696)">
   <path d="M67.875-0.52L25.535-0.52C21.009-0.52 17.543-1.708 15.137-4.086C12.759-6.492 11.57-9.958 11.57-14.484L11.57-55.562C11.57-60.089 12.759-63.54 15.137-65.918C17.543-68.324 21.009-69.527 25.535-69.527L67.875-69.527C72.401-69.527 75.867-68.324 78.273-65.918C80.68-63.54 81.883-60.089 81.883-55.562L81.883-43.944L81.884-43.945L81.884-26.102L81.883-26.103L81.883-14.484C81.883-9.958 80.68-6.492 78.273-4.086C75.867-1.708 72.401-0.52 67.875-0.52ZM84.884-23.555L100.531-10.273C101.305-9.672 102.035-9.185 102.723-8.812C103.439-8.469 104.212-8.297 105.043-8.297C106.246-8.297 107.206-8.698 107.922-9.5C108.667-10.302 109.039-11.462 109.039-12.98L109.039-57.066C109.039-58.585 108.667-59.745 107.922-60.547C107.206-61.349 106.246-61.75 105.043-61.75C104.212-61.75 103.439-61.578 102.723-61.234C102.035-60.891 101.305-60.404 100.531-59.773L84.884-46.492L84.884-23.555Z"/>
  </g>
 </g>
</svg>
