<svg width="3300" height="2200" viewBox="0 0 3300 2200" fill="none" xmlns="http://www.w3.org/2000/svg">
<g id="camera.fill.bling">
<g id="Notes">
<path id="artboard" d="M3300 0H0V2200H3300V0Z" fill="white"/>
<path id="Vector" d="M263 292H3036" stroke="black" stroke-width="0.5"/>
<text id="Weight/Scale Variations" fill="black" xml:space="preserve" style="white-space: pre" font-family="Roboto" font-size="13" font-weight="bold" letter-spacing="0em"><tspan x="263" y="320.943">Weight/Scale Variations</tspan></text>
<text id="Ultralight" fill="black" xml:space="preserve" style="white-space: pre" font-family="Roboto" font-size="13" letter-spacing="0em"><tspan x="533.211" y="320.943">Ultralight</tspan></text>
<text id="Thin" fill="black" xml:space="preserve" style="white-space: pre" font-family="Roboto" font-size="13" letter-spacing="0em"><tspan x="843.422" y="320.943">Thin</tspan></text>
<text id="Light" fill="black" xml:space="preserve" style="white-space: pre" font-family="Roboto" font-size="13" letter-spacing="0em"><tspan x="1138.63" y="320.943">Light</tspan></text>
<text id="Regular" fill="black" xml:space="preserve" style="white-space: pre" font-family="Roboto" font-size="13" letter-spacing="0em"><tspan x="1427.34" y="320.943">Regular</tspan></text>
<text id="Medium" fill="black" xml:space="preserve" style="white-space: pre" font-family="Roboto" font-size="13" letter-spacing="0em"><tspan x="1722.56" y="320.943">Medium</tspan></text>
<text id="Semibold" fill="black" xml:space="preserve" style="white-space: pre" font-family="Roboto" font-size="13" letter-spacing="0em"><tspan x="2015.77" y="320.943">Semibold</tspan></text>
<text id="Bold" fill="black" xml:space="preserve" style="white-space: pre" font-family="Roboto" font-size="13" letter-spacing="0em"><tspan x="2326.48" y="320.943">Bold</tspan></text>
<text id="Heavy" fill="black" xml:space="preserve" style="white-space: pre" font-family="Roboto" font-size="13" letter-spacing="0em"><tspan x="2618.69" y="320.943">Heavy</tspan></text>
<text id="Black" fill="black" xml:space="preserve" style="white-space: pre" font-family="Roboto" font-size="13" letter-spacing="0em"><tspan x="2917.4" y="320.943">Black</tspan></text>
<path id="Vector_2" d="M263 1903H3036" stroke="black" stroke-width="0.5"/>
<g id="Group">
<path id="Vector_3" d="M272.248 1933.83C273.329 1933.83 274.344 1933.62 275.295 1933.21C276.245 1932.8 277.084 1932.23 277.81 1931.51C278.535 1930.78 279.105 1929.94 279.519 1928.99C279.932 1928.04 280.139 1927.02 280.139 1925.95C280.139 1924.87 279.932 1923.86 279.519 1922.91C279.105 1921.96 278.534 1921.12 277.805 1920.39C277.075 1919.66 276.236 1919.09 275.285 1918.68C274.335 1918.27 273.319 1918.07 272.238 1918.07C271.164 1918.07 270.152 1918.27 269.201 1918.68C268.251 1919.09 267.414 1919.66 266.691 1920.39C265.969 1921.12 265.401 1921.96 264.987 1922.91C264.574 1923.86 264.367 1924.87 264.367 1925.95C264.367 1927.02 264.574 1928.04 264.987 1928.99C265.401 1929.94 265.97 1930.78 266.696 1931.51C267.422 1932.23 268.26 1932.8 269.211 1933.21C270.161 1933.62 271.174 1933.83 272.248 1933.83ZM272.248 1932.35C271.363 1932.35 270.534 1932.18 269.763 1931.85C268.991 1931.52 268.314 1931.07 267.731 1930.48C267.149 1929.89 266.693 1929.21 266.364 1928.44C266.035 1927.66 265.871 1926.83 265.871 1925.95C265.871 1925.06 266.034 1924.23 266.359 1923.46C266.685 1922.68 267.139 1922 267.722 1921.42C268.304 1920.83 268.981 1920.37 269.753 1920.05C270.524 1919.72 271.353 1919.55 272.238 1919.55C273.13 1919.55 273.962 1919.72 274.733 1920.05C275.505 1920.37 276.184 1920.83 276.769 1921.42C277.355 1922 277.814 1922.68 278.146 1923.46C278.478 1924.23 278.644 1925.06 278.644 1925.95C278.644 1926.83 278.48 1927.66 278.151 1928.44C277.823 1929.21 277.367 1929.89 276.784 1930.48C276.202 1931.07 275.523 1931.52 274.748 1931.85C273.973 1932.18 273.14 1932.35 272.248 1932.35ZM268.654 1925.95C268.654 1926.16 268.723 1926.34 268.859 1926.47C268.996 1926.61 269.178 1926.67 269.406 1926.67H271.516V1928.79C271.516 1929.01 271.581 1929.18 271.711 1929.32C271.841 1929.46 272.017 1929.53 272.238 1929.53C272.453 1929.53 272.631 1929.46 272.771 1929.32C272.91 1929.18 272.98 1929.01 272.98 1928.79V1926.67H275.09C275.311 1926.67 275.49 1926.61 275.627 1926.47C275.764 1926.34 275.832 1926.16 275.832 1925.95C275.832 1925.73 275.764 1925.55 275.627 1925.41C275.49 1925.28 275.311 1925.21 275.09 1925.21H272.98V1923.1C272.98 1922.88 272.91 1922.7 272.771 1922.56C272.631 1922.42 272.453 1922.35 272.238 1922.35C272.017 1922.35 271.841 1922.42 271.711 1922.56C271.581 1922.7 271.516 1922.88 271.516 1923.1V1925.21H269.406C269.178 1925.21 268.996 1925.28 268.859 1925.41C268.723 1925.55 268.654 1925.73 268.654 1925.95Z" fill="black"/>
</g>
<g id="Group_2">
<path id="Vector_4" d="M293.576 1935.91C294.937 1935.91 296.218 1935.65 297.419 1935.13C298.62 1934.61 299.679 1933.89 300.597 1932.97C301.515 1932.05 302.235 1930.99 302.756 1929.79C303.276 1928.59 303.537 1927.31 303.537 1925.95C303.537 1924.59 303.276 1923.31 302.756 1922.11C302.235 1920.91 301.515 1919.85 300.597 1918.93C299.679 1918.01 298.618 1917.29 297.414 1916.77C296.209 1916.25 294.927 1915.99 293.566 1915.99C292.205 1915.99 290.925 1916.25 289.723 1916.77C288.522 1917.29 287.464 1918.01 286.55 1918.93C285.635 1919.85 284.917 1920.91 284.396 1922.11C283.875 1923.31 283.615 1924.59 283.615 1925.95C283.615 1927.31 283.875 1928.59 284.396 1929.79C284.917 1930.99 285.636 1932.05 286.554 1932.97C287.472 1933.89 288.532 1934.61 289.733 1935.13C290.934 1935.65 292.215 1935.91 293.576 1935.91ZM293.576 1934.25C292.424 1934.25 291.346 1934.04 290.344 1933.61C289.341 1933.18 288.46 1932.58 287.702 1931.82C286.943 1931.06 286.351 1930.18 285.925 1929.18C285.498 1928.18 285.285 1927.1 285.285 1925.95C285.285 1924.8 285.498 1923.72 285.925 1922.72C286.351 1921.71 286.942 1920.83 287.697 1920.07C288.452 1919.31 289.331 1918.71 290.334 1918.29C291.336 1917.86 292.414 1917.65 293.566 1917.65C294.718 1917.65 295.796 1917.86 296.799 1918.29C297.801 1918.71 298.683 1919.31 299.445 1920.07C300.207 1920.83 300.802 1921.71 301.232 1922.72C301.662 1923.72 301.877 1924.8 301.877 1925.95C301.877 1927.1 301.664 1928.18 301.237 1929.18C300.811 1930.18 300.218 1931.06 299.46 1931.82C298.701 1932.58 297.819 1933.18 296.813 1933.61C295.807 1934.04 294.728 1934.25 293.576 1934.25ZM289.045 1925.95C289.045 1926.18 289.123 1926.38 289.279 1926.53C289.435 1926.68 289.637 1926.75 289.885 1926.75H292.756V1929.63C292.756 1929.88 292.831 1930.08 292.98 1930.23C293.13 1930.38 293.322 1930.46 293.556 1930.46C293.804 1930.46 294.004 1930.38 294.157 1930.23C294.31 1930.08 294.386 1929.88 294.386 1929.63V1926.75H297.267C297.515 1926.75 297.715 1926.68 297.868 1926.53C298.021 1926.38 298.097 1926.18 298.097 1925.95C298.097 1925.7 298.021 1925.5 297.868 1925.35C297.715 1925.2 297.515 1925.12 297.267 1925.12H294.386V1922.25C294.386 1921.99 294.31 1921.79 294.157 1921.64C294.004 1921.48 293.804 1921.41 293.556 1921.41C293.322 1921.41 293.13 1921.49 292.98 1921.64C292.831 1921.8 292.756 1922 292.756 1922.25V1925.12H289.885C289.631 1925.12 289.427 1925.2 289.274 1925.35C289.121 1925.5 289.045 1925.7 289.045 1925.95Z" fill="black"/>
</g>
<g id="Group_3">
<path id="Vector_5" d="M320.617 1938.66C322.01 1938.66 323.34 1938.45 324.606 1938.01C325.872 1937.58 327.036 1936.97 328.097 1936.19C329.158 1935.41 330.081 1934.49 330.866 1933.43C331.65 1932.37 332.259 1931.2 332.692 1929.93C333.125 1928.66 333.341 1927.34 333.341 1925.95C333.341 1924.56 333.125 1923.23 332.692 1921.96C332.259 1920.69 331.65 1919.53 330.866 1918.47C330.081 1917.41 329.158 1916.48 328.097 1915.7C327.036 1914.92 325.871 1914.31 324.601 1913.87C323.332 1913.44 322 1913.22 320.607 1913.22C319.214 1913.22 317.884 1913.44 316.618 1913.87C315.351 1914.31 314.189 1914.92 313.131 1915.7C312.073 1916.48 311.152 1917.41 310.368 1918.47C309.583 1919.53 308.976 1920.69 308.546 1921.96C308.117 1923.23 307.902 1924.56 307.902 1925.95C307.902 1927.34 308.118 1928.66 308.551 1929.93C308.984 1931.2 309.591 1932.37 310.373 1933.43C311.154 1934.49 312.075 1935.41 313.136 1936.19C314.197 1936.97 315.361 1937.58 316.627 1938.01C317.894 1938.45 319.223 1938.66 320.617 1938.66ZM320.617 1936.85C319.412 1936.85 318.265 1936.66 317.174 1936.3C316.084 1935.93 315.086 1935.41 314.181 1934.75C313.276 1934.08 312.49 1933.3 311.823 1932.39C311.155 1931.48 310.639 1930.48 310.275 1929.39C309.91 1928.3 309.728 1927.15 309.728 1925.95C309.728 1924.74 309.91 1923.59 310.275 1922.5C310.639 1921.41 311.154 1920.41 311.818 1919.5C312.482 1918.59 313.266 1917.8 314.171 1917.14C315.076 1916.48 316.074 1915.96 317.165 1915.6C318.255 1915.23 319.402 1915.05 320.607 1915.05C321.818 1915.05 322.969 1915.23 324.059 1915.6C325.15 1915.96 326.149 1916.48 327.057 1917.14C327.965 1917.8 328.751 1918.59 329.415 1919.5C330.08 1920.41 330.596 1921.41 330.963 1922.5C331.331 1923.59 331.515 1924.74 331.515 1925.95C331.522 1927.15 331.343 1928.3 330.978 1929.39C330.613 1930.48 330.098 1931.48 329.43 1932.39C328.763 1933.3 327.975 1934.08 327.067 1934.75C326.159 1935.41 325.159 1935.93 324.069 1936.3C322.978 1936.66 321.828 1936.85 320.617 1936.85ZM314.845 1925.95C314.845 1926.2 314.931 1926.41 315.104 1926.58C315.277 1926.75 315.496 1926.83 315.763 1926.83H319.708V1930.78C319.708 1931.05 319.791 1931.27 319.957 1931.44C320.123 1931.61 320.337 1931.7 320.597 1931.7C320.864 1931.7 321.084 1931.62 321.256 1931.45C321.429 1931.28 321.515 1931.06 321.515 1930.78V1926.83H325.47C325.737 1926.83 325.955 1926.75 326.124 1926.58C326.294 1926.41 326.378 1926.2 326.378 1925.95C326.378 1925.68 326.294 1925.45 326.124 1925.29C325.955 1925.12 325.737 1925.03 325.47 1925.03H321.515V1921.09C321.515 1920.81 321.429 1920.59 321.256 1920.42C321.084 1920.24 320.864 1920.16 320.597 1920.16C320.337 1920.16 320.123 1920.24 319.957 1920.42C319.791 1920.59 319.708 1920.81 319.708 1921.09V1925.03H315.763C315.49 1925.03 315.268 1925.12 315.099 1925.29C314.93 1925.45 314.845 1925.68 314.845 1925.95Z" fill="black"/>
</g>
<text id="Design Variations" fill="black" xml:space="preserve" style="white-space: pre" font-family="Roboto" font-size="13" font-weight="bold" letter-spacing="0em"><tspan x="263" y="1951.94">Design Variations</tspan></text>
<text id="Symbols are supported in up to nine weights and three scales." fill="black" xml:space="preserve" style="white-space: pre" font-family="Roboto" font-size="13" letter-spacing="0em"><tspan x="263" y="1969.94">Symbols are supported in up to nine weights and three scales.</tspan></text>
<text id="For optimal layout with text and other symbols, vertically align" fill="black" xml:space="preserve" style="white-space: pre" font-family="Roboto" font-size="13" letter-spacing="0em"><tspan x="263" y="1987.94">For optimal layout with text and other symbols, vertically align</tspan></text>
<text id="symbols with the adjacent text." fill="black" xml:space="preserve" style="white-space: pre" font-family="Roboto" font-size="13" letter-spacing="0em"><tspan x="263" y="2005.94">symbols with the adjacent text.</tspan></text>
<path id="Vector_6" d="M776 1919V1933" stroke="#00AEEF" stroke-width="0.5"/>
<g id="Group_4">
<path id="Vector_7" d="M779.311 1933.16C779.571 1933.16 779.773 1933.1 779.916 1932.99C780.059 1932.88 780.176 1932.69 780.268 1932.41L781.527 1928.97H787.289L788.549 1932.41C788.64 1932.69 788.757 1932.88 788.9 1932.99C789.044 1933.1 789.242 1933.16 789.496 1933.16C789.757 1933.16 789.963 1933.08 790.116 1932.94C790.269 1932.8 790.346 1932.6 790.346 1932.36C790.346 1932.21 790.31 1932.03 790.238 1931.83L785.658 1919.63C785.541 1919.33 785.382 1919.11 785.18 1918.96C784.978 1918.81 784.721 1918.73 784.408 1918.73C783.803 1918.73 783.393 1919.03 783.178 1919.62L778.598 1931.84C778.526 1932.04 778.49 1932.22 778.49 1932.37C778.49 1932.61 778.563 1932.81 778.71 1932.95C778.856 1933.09 779.057 1933.16 779.311 1933.16ZM782.006 1927.48L784.379 1920.91H784.428L786.801 1927.48H782.006Z" fill="black"/>
</g>
<path id="Vector_8" d="M793.197 1919V1933" stroke="#00AEEF" stroke-width="0.5"/>
<text id="Margins" fill="black" xml:space="preserve" style="white-space: pre" font-family="Roboto" font-size="13" font-weight="bold" letter-spacing="0em"><tspan x="776" y="1951.94">Margins</tspan></text>
<text id="Leading and trailing margins on the left and right side of each symbol" fill="black" xml:space="preserve" style="white-space: pre" font-family="Roboto" font-size="13" letter-spacing="0em"><tspan x="776" y="1969.94">Leading and trailing margins on the left and right side of each symbol</tspan></text>
<text id="can be adjusted by modifying the x-location of the margin guidelines." fill="black" xml:space="preserve" style="white-space: pre" font-family="Roboto" font-size="13" letter-spacing="0em"><tspan x="776" y="1987.94">can be adjusted by modifying the x-location of the margin guidelines.</tspan></text>
<text id="Modifications are automatically applied proportionally to all" fill="black" xml:space="preserve" style="white-space: pre" font-family="Roboto" font-size="13" letter-spacing="0em"><tspan x="776" y="2005.94">Modifications are automatically applied proportionally to all</tspan></text>
<text id="scales and weights." fill="black" xml:space="preserve" style="white-space: pre" font-family="Roboto" font-size="13" letter-spacing="0em"><tspan x="776" y="2023.94">scales and weights.</tspan></text>
<g id="Group_5">
<path id="Vector_9" d="M1291.84 1934.87L1293.54 1936.57C1293.97 1937.01 1294.42 1937.21 1294.9 1937.18C1295.38 1937.15 1295.85 1936.87 1296.31 1936.36L1307.01 1924.57L1306.04 1923.6L1295.43 1935.28C1295.25 1935.48 1295.07 1935.59 1294.89 1935.62C1294.71 1935.64 1294.51 1935.54 1294.27 1935.3L1293.1 1934.14C1292.87 1933.91 1292.76 1933.7 1292.79 1933.52C1292.82 1933.34 1292.94 1933.16 1293.14 1932.98L1304.62 1922.18L1303.64 1921.21L1292.05 1932.1C1291.55 1932.56 1291.29 1933.02 1291.25 1933.5C1291.22 1933.97 1291.41 1934.43 1291.84 1934.87ZM1298.26 1916.67C1298.05 1916.87 1297.93 1917.1 1297.91 1917.37C1297.88 1917.63 1297.93 1917.85 1298.04 1918.05C1298.16 1918.23 1298.33 1918.37 1298.56 1918.46C1298.78 1918.55 1299.06 1918.56 1299.38 1918.48C1300.11 1918.31 1300.85 1918.24 1301.6 1918.27C1302.35 1918.3 1303.08 1918.55 1303.79 1919.02L1303.21 1920.47C1303.04 1920.89 1302.99 1921.25 1303.07 1921.56C1303.14 1921.87 1303.31 1922.16 1303.58 1922.43L1305.87 1924.75C1306.12 1925 1306.35 1925.14 1306.58 1925.18C1306.81 1925.22 1307.06 1925.21 1307.34 1925.16L1308.4 1924.96L1309.07 1925.64L1309.03 1926.19C1309.01 1926.44 1309.04 1926.67 1309.12 1926.88C1309.2 1927.09 1309.36 1927.31 1309.61 1927.55L1310.37 1928.29C1310.61 1928.53 1310.87 1928.66 1311.15 1928.67C1311.44 1928.68 1311.7 1928.57 1311.93 1928.33L1314.84 1925.41C1315.07 1925.18 1315.19 1924.92 1315.18 1924.65C1315.18 1924.37 1315.05 1924.11 1314.81 1923.87L1314.04 1923.11C1313.8 1922.87 1313.58 1922.7 1313.38 1922.61C1313.17 1922.53 1312.95 1922.49 1312.71 1922.51L1312.13 1922.56L1311.49 1921.93L1311.73 1920.8C1311.8 1920.52 1311.79 1920.26 1311.7 1920.02C1311.6 1919.77 1311.41 1919.5 1311.12 1919.21L1308.92 1917.02C1308.09 1916.2 1307.2 1915.58 1306.26 1915.16C1305.32 1914.75 1304.37 1914.53 1303.42 1914.52C1302.47 1914.5 1301.55 1914.68 1300.66 1915.04C1299.78 1915.41 1298.98 1915.95 1298.26 1916.67ZM1299.75 1917.04C1300.36 1916.6 1301.01 1916.28 1301.7 1916.1C1302.39 1915.91 1303.1 1915.85 1303.8 1915.92C1304.51 1915.98 1305.2 1916.17 1305.87 1916.49C1306.54 1916.8 1307.15 1917.24 1307.7 1917.79L1310.13 1920.21C1310.25 1920.32 1310.32 1920.44 1310.35 1920.55C1310.38 1920.66 1310.38 1920.8 1310.34 1920.97L1310.02 1922.45L1311.52 1923.94L1312.51 1923.88C1312.63 1923.87 1312.72 1923.88 1312.79 1923.9C1312.85 1923.93 1312.94 1923.99 1313.03 1924.08L1313.61 1924.66L1311.17 1927.1L1310.59 1926.53C1310.49 1926.43 1310.43 1926.35 1310.41 1926.28C1310.38 1926.22 1310.37 1926.12 1310.38 1925.99L1310.45 1925.01L1308.95 1923.53L1307.43 1923.78C1307.26 1923.81 1307.14 1923.82 1307.04 1923.8C1306.95 1923.77 1306.84 1923.7 1306.71 1923.59L1304.71 1921.58C1304.58 1921.47 1304.51 1921.35 1304.49 1921.25C1304.48 1921.14 1304.51 1920.99 1304.59 1920.81L1305.46 1918.72C1304.68 1917.99 1303.8 1917.49 1302.83 1917.21C1301.85 1916.93 1300.86 1916.94 1299.84 1917.24C1299.76 1917.26 1299.71 1917.24 1299.69 1917.19C1299.67 1917.15 1299.69 1917.1 1299.75 1917.04Z" fill="black"/>
</g>
<text id="Exporting" fill="black" xml:space="preserve" style="white-space: pre" font-family="Roboto" font-size="13" font-weight="bold" letter-spacing="0em"><tspan x="1289" y="1951.94">Exporting</tspan></text>
<text id="Symbols should be outlined when exporting to ensure the" fill="black" xml:space="preserve" style="white-space: pre" font-family="Roboto" font-size="13" letter-spacing="0em"><tspan x="1289" y="1969.94">Symbols should be outlined when exporting to ensure the</tspan></text>
<text id="design is preserved when submitting to Xcode." fill="black" xml:space="preserve" style="white-space: pre" font-family="Roboto" font-size="13" letter-spacing="0em"><tspan x="1289" y="1987.94">design is preserved when submitting to Xcode.</tspan></text>
<text id="template-version" fill="black" xml:space="preserve" style="white-space: pre" font-family="Roboto" font-size="13" letter-spacing="0em"><tspan x="2951" y="1931.94">Template v.3.0</tspan></text>
<text id="Requires Xcode 13 or greater" fill="black" xml:space="preserve" style="white-space: pre" font-family="Roboto" font-size="13" letter-spacing="0em"><tspan x="2868" y="1949.94">Requires Xcode 13 or greater</tspan></text>
<text id="descriptive-name" fill="black" xml:space="preserve" style="white-space: pre" font-family="Roboto" font-size="13" letter-spacing="0em"><tspan x="2899" y="1967.94">Generated from camera</tspan></text>
<text id="Typeset at 100 points" fill="black" xml:space="preserve" style="white-space: pre" font-family="Roboto" font-size="13" letter-spacing="0em"><tspan x="2911" y="1985.94">Typeset at 100 points</tspan></text>
<text id="Small" fill="black" xml:space="preserve" style="white-space: pre" font-family="Roboto" font-size="13" letter-spacing="0em"><tspan x="263" y="724.943">Small</tspan></text>
<text id="Medium_2" fill="black" xml:space="preserve" style="white-space: pre" font-family="Roboto" font-size="13" letter-spacing="0em"><tspan x="263" y="1154.94">Medium</tspan></text>
<text id="Large" fill="black" xml:space="preserve" style="white-space: pre" font-family="Roboto" font-size="13" letter-spacing="0em"><tspan x="263" y="1584.94">Large</tspan></text>
</g>
<g id="Guides">
<g id="H-reference">
<path id="Vector_10" d="M339.977 696H342.662L368.346 628.861H369.029V625.541H367.125L339.977 696ZM350.67 671.537H385.973L385.24 669.291H351.451L350.67 671.537ZM394.127 696H396.764L369.615 625.541H368.443V628.861L394.127 696Z" fill="#27AAE1"/>
</g>
<path id="Baseline-S" d="M263 696H3036" stroke="#27AAE1" stroke-width="0.5"/>
<path id="Capline-S" d="M263 625.541H3036" stroke="#27AAE1" stroke-width="0.5"/>
<g id="H-reference_2">
<path id="Vector_11" d="M339.977 1126H342.662L368.346 1058.86H369.029V1055.54H367.125L339.977 1126ZM350.67 1101.54H385.973L385.24 1099.29H351.451L350.67 1101.54ZM394.127 1126H396.764L369.615 1055.54H368.443V1058.86L394.127 1126Z" fill="#27AAE1"/>
</g>
<path id="Baseline-M" d="M263 1126H3036" stroke="#27AAE1" stroke-width="0.5"/>
<path id="Capline-M" d="M263 1055.54H3036" stroke="#27AAE1" stroke-width="0.5"/>
<g id="H-reference_3">
<path id="Vector_12" d="M339.977 1556H342.662L368.346 1488.86H369.029V1485.54H367.125L339.977 1556ZM350.67 1531.54H385.973L385.24 1529.29H351.451L350.67 1531.54ZM394.127 1556H396.764L369.615 1485.54H368.443V1488.86L394.127 1556Z" fill="#27AAE1"/>
</g>
<path id="Baseline-L" d="M263 1556H3036" stroke="#27AAE1" stroke-width="0.5"/>
<path id="Capline-L" d="M263 1485.54H3036" stroke="#27AAE1" stroke-width="0.5"/>
<path id="left-margin-Regular-M" d="M1377.43 1030.79V1150.12" stroke="#00AEEF" stroke-width="0.5"/>
<path id="right-margin-Regular-M" d="M1522.26 1030.79V1150.12" stroke="#00AEEF" stroke-width="0.5"/>
</g>
<g id="Symbols">
<g id="Black-L">
<path id="Subtract" fill-rule="evenodd" clip-rule="evenodd" d="M2937.68 1581.28H2879.74C2869.32 1581.28 2861.42 1579 2856.05 1574.44C2850.68 1569.93 2848 1562.87 2848 1553.26V1490.39C2848 1480.69 2850.68 1473.2 2856.05 1467.92C2861.47 1462.64 2869.36 1460 2879.74 1460H2937.68C2948.06 1460 2955.93 1462.64 2961.3 1467.92C2966.6 1473.04 2969.3 1480.28 2969.42 1489.64V1551.57C2969.3 1560.93 2966.6 1568.2 2961.3 1573.36C2955.93 1578.64 2948.06 1581.28 2937.68 1581.28ZM2982.02 1558.06L2988.64 1564.16C2991.21 1566.37 2993.65 1568.15 2995.95 1569.5C2998.3 1570.81 3000.73 1571.47 3003.26 1571.47C3006.92 1571.47 3009.94 1570.32 3012.33 1568.01C3014.77 1565.67 3015.98 1562.44 3015.98 1558.34V1484.7C3015.98 1480.55 3014.77 1477.33 3012.33 1475.02C3009.94 1472.68 3006.92 1471.51 3003.26 1471.51C3000.73 1471.51 2998.3 1472.18 2995.95 1473.54C2993.65 1474.89 2991.21 1476.65 2988.64 1478.81L2982.02 1484.91V1558.06Z" fill="black"/>
</g>
<g id="Heavy-L">
<path id="Subtract_2" fill-rule="evenodd" clip-rule="evenodd" d="M2643.86 1579.97H2585.52C2575.6 1579.97 2568.02 1577.69 2562.78 1573.13C2557.59 1568.58 2555 1561.65 2555 1552.36V1490.37C2555 1481.03 2557.64 1473.81 2562.92 1468.71C2568.2 1463.57 2575.73 1461 2585.52 1461H2643.86C2653.74 1461 2661.3 1463.55 2666.53 1468.65C2671.77 1473.75 2674.38 1480.96 2674.38 1490.3V1497.59L2674.4 1497.58V1544.68L2674.38 1544.66V1550.6C2674.38 1559.94 2671.77 1567.16 2666.53 1572.26C2661.3 1577.4 2653.74 1579.97 2643.86 1579.97ZM2685.43 1554.79L2695.02 1563.59C2697.32 1565.58 2699.53 1567.16 2701.65 1568.33C2703.78 1569.5 2705.96 1570.09 2708.22 1570.09C2711.74 1570.09 2714.63 1568.98 2716.88 1566.77C2719.14 1564.52 2720.26 1561.45 2720.26 1557.57V1484.75C2720.26 1480.83 2719.14 1477.76 2716.88 1475.55C2714.63 1473.29 2711.74 1472.17 2708.22 1472.17C2705.96 1472.17 2703.78 1472.78 2701.65 1473.99C2699.53 1475.17 2697.32 1476.72 2695.02 1478.66L2685.43 1487.46V1554.79Z" fill="black"/>
</g>
<g id="Bold-L">
<path id="Subtract_3" fill-rule="evenodd" clip-rule="evenodd" d="M2348.9 1579.25H2290.1C2280.76 1579.25 2273.56 1576.97 2268.51 1572.42C2263.5 1567.86 2261 1561.12 2261 1552.18V1491.22C2261 1482.24 2263.55 1475.29 2268.65 1470.38C2273.79 1465.46 2280.94 1463 2290.1 1463H2348.9C2358.2 1463 2365.35 1465.46 2370.35 1470.38C2375.05 1474.94 2377.56 1481.25 2377.89 1489.28V1552.9C2377.56 1560.94 2375.05 1567.24 2370.35 1571.81C2365.35 1576.77 2358.2 1579.25 2348.9 1579.25ZM2388.92 1553.39L2400.33 1563.82C2402.32 1565.49 2404.23 1566.84 2406.08 1567.88C2407.98 1568.87 2409.92 1569.37 2411.9 1569.37C2415.19 1569.37 2417.9 1568.29 2420.02 1566.12C2422.14 1563.96 2423.2 1561.07 2423.2 1557.46V1485.67C2423.2 1482.01 2422.14 1479.1 2420.02 1476.94C2417.9 1474.77 2415.19 1473.69 2411.9 1473.69C2409.92 1473.69 2407.98 1474.21 2406.08 1475.25C2404.23 1476.29 2402.32 1477.62 2400.33 1479.24L2388.92 1489.64V1553.39Z" fill="black"/>
</g>
<g id="Semibold-L">
<path id="Subtract_4" fill-rule="evenodd" clip-rule="evenodd" d="M2051.25 1578.38H1992.09C1983.15 1578.38 1976.23 1576.1 1971.31 1571.54C1966.44 1566.99 1964 1560.38 1964 1551.71V1491.41C1964 1482.7 1966.5 1475.96 1971.51 1471.17C1976.52 1466.39 1983.38 1464 1992.09 1464H2051.25C2060.14 1464 2067.04 1466.39 2071.96 1471.17C2076.65 1475.74 2079.1 1482.06 2079.32 1490.15V1552.17C2079.1 1560.3 2076.65 1566.64 2071.96 1571.21C2067.04 1575.99 2060.14 1578.38 2051.25 1578.38ZM2089.56 1551.49L2102.89 1563.63C2104.6 1565.07 2106.32 1566.24 2108.03 1567.15C2109.79 1568.05 2111.55 1568.5 2113.31 1568.5C2116.47 1568.5 2119.04 1567.46 2121.02 1565.39C2123.06 1563.26 2124.07 1560.49 2124.07 1557.06V1485.93C2124.07 1482.45 2123.06 1479.68 2121.02 1477.6C2119.04 1475.48 2116.47 1474.42 2113.31 1474.42C2111.55 1474.42 2109.79 1474.87 2108.03 1475.78C2106.32 1476.68 2104.6 1477.85 2102.89 1479.3L2089.56 1491.4V1551.49Z" fill="black"/>
</g>
<g id="Medium-L">
<path id="Subtract_5" fill-rule="evenodd" clip-rule="evenodd" d="M1756.76 1578.15H1697.41C1688.75 1578.15 1682 1575.85 1677.17 1571.25C1672.39 1566.69 1670 1560.15 1670 1551.62V1491.87C1670 1483.38 1672.48 1476.8 1677.44 1472.11C1682.41 1467.37 1689.06 1465 1697.41 1465H1756.76C1765.43 1465 1772.15 1467.37 1776.93 1472.11C1781.68 1476.76 1784.07 1483.29 1784.1 1491.69H1784.1V1551.54H1784.1C1784.04 1559.91 1781.65 1566.41 1776.93 1571.04C1772.15 1575.78 1765.43 1578.15 1756.76 1578.15ZM1794.34 1550.86L1808.53 1563.74C1810.11 1565.09 1811.69 1566.17 1813.27 1566.98C1814.9 1567.8 1816.52 1568.2 1818.14 1568.2C1821.26 1568.2 1823.76 1567.19 1825.66 1565.16C1827.6 1563.08 1828.57 1560.37 1828.57 1557.04V1486.38C1828.57 1483.05 1827.6 1480.36 1825.66 1478.33C1823.76 1476.3 1821.26 1475.29 1818.14 1475.29C1816.52 1475.29 1814.9 1475.69 1813.27 1476.5C1811.69 1477.32 1810.11 1478.38 1808.53 1479.69L1794.34 1492.56V1550.86Z" fill="black"/>
</g>
<g id="Regular-L">
<path id="Subtract_6" fill-rule="evenodd" clip-rule="evenodd" d="M1458.52 1576.26H1400.39C1392.14 1576.26 1385.66 1573.98 1380.97 1569.42C1376.32 1564.82 1374 1558.39 1374 1550.14V1491.06C1374 1482.84 1376.41 1476.46 1381.24 1471.9C1386.11 1467.3 1392.5 1465 1400.39 1465H1458.52C1466.77 1465 1473.22 1467.3 1477.87 1471.9C1482.56 1476.46 1484.91 1482.84 1484.91 1491.06V1501.85L1484.93 1501.83V1539.36L1484.91 1539.35V1550.14C1484.91 1558.39 1482.56 1564.82 1477.87 1569.42C1473.22 1573.98 1466.77 1576.26 1458.52 1576.26ZM1494.38 1547.92L1510.49 1562.52C1511.84 1563.65 1513.24 1564.57 1514.69 1565.3C1516.13 1565.97 1517.55 1566.31 1518.95 1566.31C1521.93 1566.31 1524.32 1565.32 1526.12 1563.33C1527.93 1561.35 1528.83 1558.78 1528.83 1555.62V1485.64C1528.83 1482.48 1527.93 1479.91 1526.12 1477.93C1524.32 1475.94 1521.93 1474.95 1518.95 1474.95C1517.55 1474.95 1516.13 1475.31 1514.69 1476.03C1513.24 1476.71 1511.84 1477.61 1510.49 1478.74L1494.38 1493.3V1547.92Z" fill="black"/>
</g>
<g id="Light-L">
<path id="Subtract_7" fill-rule="evenodd" clip-rule="evenodd" d="M1162.43 1575.31H1100.9C1093.05 1575.31 1086.94 1573.17 1082.56 1568.88C1078.19 1564.59 1076 1558.5 1076 1550.61V1489.63C1076 1481.78 1078.23 1475.72 1082.7 1471.43C1087.21 1467.14 1093.28 1465 1100.9 1465H1162.43C1170.32 1465 1176.44 1467.14 1180.77 1471.43C1185.14 1475.72 1187.33 1481.78 1187.33 1489.63V1494.99H1187.3V1545.39H1187.33V1550.61C1187.33 1558.5 1185.14 1564.59 1180.77 1568.88C1176.44 1573.17 1170.32 1575.31 1162.43 1575.31ZM1195.17 1544.19L1214.27 1561.1C1215.57 1562.14 1216.88 1562.99 1218.19 1563.67C1219.5 1564.3 1220.85 1564.62 1222.25 1564.62C1224.87 1564.62 1226.97 1563.76 1228.55 1562.05C1230.12 1560.29 1230.91 1557.96 1230.91 1555.08V1485.23C1230.91 1482.35 1230.12 1480.05 1228.55 1478.33C1226.97 1476.57 1224.87 1475.69 1222.25 1475.69C1220.85 1475.69 1219.5 1476.03 1218.19 1476.71C1216.88 1477.34 1215.57 1478.17 1214.27 1479.21L1195.17 1496.12V1544.19Z" fill="black"/>
</g>
<g id="Thin-L">
<path id="Subtract_8" fill-rule="evenodd" clip-rule="evenodd" d="M867.895 1575.22H804.008C796.609 1575.22 790.925 1573.26 786.955 1569.33C782.985 1565.36 781 1559.7 781 1552.35V1488.87C781 1481.52 783.008 1475.88 787.023 1471.95C791.038 1467.98 796.7 1466 804.008 1466H867.895C875.294 1466 880.978 1467.98 884.948 1471.95C888.918 1475.88 890.903 1481.52 890.903 1488.87V1505.55L890.917 1505.54V1535.68L890.903 1535.67V1552.35C890.903 1559.7 888.918 1565.36 884.948 1569.33C880.978 1573.26 875.294 1575.22 867.895 1575.22ZM897.216 1541.11L919.46 1560.26C920.723 1561.21 921.941 1562 923.114 1562.63C924.287 1563.22 925.528 1563.51 926.836 1563.51C928.956 1563.51 930.67 1562.79 931.979 1561.35C933.287 1559.9 933.941 1557.92 933.941 1555.39V1485.83C933.941 1483.3 933.287 1481.32 931.979 1479.87C930.67 1478.43 928.956 1477.71 926.836 1477.71C925.528 1477.71 924.287 1478 923.114 1478.59C921.941 1479.17 920.723 1479.96 919.46 1480.96L897.216 1500.11V1541.11Z" fill="black"/>
</g>
<g id="Ultralight-L">
<path id="Subtract_9" fill-rule="evenodd" clip-rule="evenodd" d="M573.731 1575.75H507.007C499.875 1575.75 494.412 1573.88 490.62 1570.13C486.873 1566.34 485 1560.88 485 1553.74V1489.01C485 1481.87 486.873 1476.43 490.62 1472.69C494.412 1468.9 499.875 1467 507.007 1467H573.731C580.864 1467 586.326 1468.9 590.118 1472.69C593.91 1476.43 595.806 1481.87 595.806 1489.01V1507.32L595.808 1507.31V1535.43L595.806 1535.43V1553.74C595.806 1560.88 593.91 1566.34 590.118 1570.13C586.326 1573.88 580.864 1575.75 573.731 1575.75ZM600.536 1539.45L625.194 1560.38C626.413 1561.33 627.564 1562.09 628.648 1562.68C629.776 1563.22 630.995 1563.49 632.304 1563.49C634.2 1563.49 635.713 1562.86 636.841 1561.6C638.015 1560.33 638.602 1558.51 638.602 1556.11V1486.64C638.602 1484.24 638.015 1482.42 636.841 1481.15C635.713 1479.89 634.2 1479.26 632.304 1479.26C630.995 1479.26 629.776 1479.53 628.648 1480.07C627.564 1480.61 626.413 1481.38 625.194 1482.37L600.536 1503.3V1539.45Z" fill="black"/>
</g>
<g id="Black-M">
<path id="Subtract_10" fill-rule="evenodd" clip-rule="evenodd" d="M2940.74 1138.02H2894.39C2886.05 1138.02 2879.74 1136.2 2875.44 1132.55C2871.15 1128.94 2869 1123.29 2869 1115.61V1065.31C2869 1057.55 2871.15 1051.56 2875.44 1047.33C2879.77 1043.11 2886.09 1041 2894.39 1041H2940.74C2949.04 1041 2955.34 1043.11 2959.64 1047.33C2963.88 1051.43 2966.04 1057.22 2966.13 1064.71V1114.26C2966.04 1121.74 2963.88 1127.55 2959.64 1131.69C2955.34 1135.91 2949.04 1138.02 2940.74 1138.02ZM2976.21 1119.44L2981.51 1124.32C2983.57 1126.09 2985.52 1127.52 2987.36 1128.6C2989.23 1129.65 2991.18 1130.17 2993.2 1130.17C2996.13 1130.17 2998.55 1129.25 3000.46 1127.41C3002.41 1125.53 3003.38 1122.95 3003.38 1119.67V1060.76C3003.38 1057.44 3002.41 1054.86 3000.46 1053.02C2998.55 1051.14 2996.13 1050.2 2993.2 1050.2C2991.18 1050.2 2989.23 1050.75 2987.36 1051.83C2985.52 1052.91 2983.57 1054.32 2981.51 1056.05L2976.21 1060.93V1119.44Z" fill="black"/>
</g>
<g id="Heavy-M">
<path id="Subtract_11" fill-rule="evenodd" clip-rule="evenodd" d="M2644.09 1137.18H2597.42C2589.48 1137.18 2583.41 1135.36 2579.23 1131.71C2575.08 1128.07 2573 1122.53 2573 1115.09V1065.5C2573 1058.03 2575.11 1052.25 2579.33 1048.17C2583.56 1044.06 2589.59 1042 2597.42 1042H2644.09C2652 1042 2658.04 1044.04 2662.23 1048.12C2666.42 1052.2 2668.51 1057.97 2668.51 1065.44V1071.28L2668.53 1071.26V1108.95L2668.51 1108.93V1113.68C2668.51 1121.15 2666.42 1126.93 2662.23 1131.01C2658.04 1135.12 2652 1137.18 2644.09 1137.18ZM2677.35 1117.04L2685.02 1124.08C2686.86 1125.67 2688.63 1126.93 2690.33 1127.87C2692.03 1128.81 2693.78 1129.28 2695.58 1129.28C2698.4 1129.28 2700.71 1128.39 2702.51 1126.62C2704.32 1124.82 2705.22 1122.36 2705.22 1119.26V1061C2705.22 1057.86 2704.32 1055.41 2702.51 1053.64C2700.71 1051.84 2698.4 1050.93 2695.58 1050.93C2693.78 1050.93 2692.03 1051.42 2690.33 1052.4C2688.63 1053.33 2686.86 1054.58 2685.02 1056.13L2677.35 1063.17V1117.04Z" fill="black"/>
</g>
<g id="Bold-M">
<path id="Subtract_12" fill-rule="evenodd" clip-rule="evenodd" d="M2347.32 1138H2300.28C2292.81 1138 2287.05 1136.18 2283.01 1132.53C2279 1128.89 2277 1123.49 2277 1116.35V1067.57C2277 1060.39 2279.04 1054.83 2283.12 1050.9C2287.23 1046.97 2292.95 1045 2300.28 1045H2347.32C2354.76 1045 2360.48 1046.97 2364.48 1050.9C2368.24 1054.56 2370.25 1059.6 2370.52 1066.03V1116.92C2370.25 1123.35 2368.24 1128.39 2364.48 1132.05C2360.48 1136.02 2354.76 1138 2347.32 1138ZM2379.33 1117.31L2388.46 1125.66C2390.05 1126.99 2391.59 1128.08 2393.07 1128.91C2394.58 1129.7 2396.13 1130.1 2397.72 1130.1C2400.36 1130.1 2402.52 1129.23 2404.22 1127.5C2405.91 1125.77 2406.76 1123.46 2406.76 1120.57V1063.13C2406.76 1060.21 2405.91 1057.88 2404.22 1056.15C2402.52 1054.42 2400.36 1053.55 2397.72 1053.55C2396.13 1053.55 2394.58 1053.97 2393.07 1054.8C2391.59 1055.63 2390.05 1056.69 2388.46 1057.99L2379.33 1066.32V1117.31Z" fill="black"/>
</g>
<g id="Semibold-M">
<path id="Subtract_13" fill-rule="evenodd" clip-rule="evenodd" d="M2049.79 1135.5H2002.47C1995.32 1135.5 1989.78 1133.68 1985.85 1130.03C1981.95 1126.39 1980 1121.1 1980 1114.17V1065.93C1980 1058.96 1982 1053.57 1986.01 1049.74C1990.02 1045.91 1995.5 1044 2002.47 1044H2049.79C2056.9 1044 2062.43 1045.91 2066.36 1049.74C2070.11 1053.39 2072.08 1058.45 2072.25 1064.92V1114.53C2072.08 1121.03 2070.11 1126.11 2066.36 1129.76C2062.43 1133.59 2056.9 1135.5 2049.79 1135.5ZM2080.44 1113.99L2091.1 1123.7C2092.48 1124.85 2093.85 1125.79 2095.22 1126.51C2096.63 1127.23 2098.03 1127.6 2099.44 1127.6C2101.97 1127.6 2104.03 1126.77 2105.61 1125.1C2107.24 1123.41 2108.05 1121.19 2108.05 1118.45V1061.54C2108.05 1058.76 2107.24 1056.54 2105.61 1054.88C2104.03 1053.19 2101.97 1052.34 2099.44 1052.34C2098.03 1052.34 2096.63 1052.7 2095.22 1053.42C2093.85 1054.14 2092.48 1055.08 2091.1 1056.24L2080.44 1065.92V1113.99Z" fill="black"/>
</g>
<g id="Medium-M">
<path id="Subtract_14" fill-rule="evenodd" clip-rule="evenodd" d="M1755.41 1136.52H1707.93C1701 1136.52 1695.6 1134.68 1691.74 1131C1687.91 1127.35 1686 1122.12 1686 1115.3V1067.49C1686 1060.71 1687.98 1055.44 1691.96 1051.68C1695.93 1047.89 1701.25 1046 1707.93 1046H1755.41C1762.34 1046 1767.72 1047.89 1771.54 1051.68C1775.34 1055.41 1777.26 1060.63 1777.28 1067.35H1777.28V1115.23H1777.28C1777.23 1121.93 1775.32 1127.13 1771.54 1130.84C1767.72 1134.63 1762.34 1136.52 1755.41 1136.52ZM1785.47 1114.69L1796.83 1124.99C1798.09 1126.07 1799.35 1126.94 1800.62 1127.59C1801.92 1128.24 1803.22 1128.56 1804.51 1128.56C1807 1128.56 1809.01 1127.75 1810.52 1126.13C1812.08 1124.47 1812.85 1122.3 1812.85 1119.63V1063.11C1812.85 1060.44 1812.08 1058.29 1810.52 1056.67C1809.01 1055.04 1807 1054.23 1804.51 1054.23C1803.22 1054.23 1801.92 1054.55 1800.62 1055.2C1799.35 1055.85 1798.09 1056.7 1796.83 1057.75L1785.47 1068.05V1114.69Z" fill="black"/>
</g>
<g id="Regular-M">
<path id="Subtract_15" fill-rule="evenodd" clip-rule="evenodd" d="M1456.61 1134.01H1410.12C1403.51 1134.01 1398.33 1132.19 1394.58 1128.54C1390.86 1124.86 1389 1119.72 1389 1113.11V1065.84C1389 1059.28 1390.93 1054.17 1394.79 1050.52C1398.69 1046.84 1403.8 1045 1410.12 1045H1456.61C1463.22 1045 1468.38 1046.84 1472.1 1050.52C1475.85 1054.17 1477.73 1059.28 1477.73 1065.84V1074.48L1477.74 1074.47V1104.49L1477.73 1104.48V1113.11C1477.73 1119.72 1475.85 1124.86 1472.1 1128.54C1468.38 1132.19 1463.22 1134.01 1456.61 1134.01ZM1485.3 1111.34L1498.2 1123.02C1499.28 1123.92 1500.4 1124.66 1501.55 1125.24C1502.71 1125.78 1503.84 1126.05 1504.96 1126.05C1507.35 1126.05 1509.26 1125.26 1510.7 1123.67C1512.15 1122.08 1512.87 1120.02 1512.87 1117.5V1061.51C1512.87 1058.99 1512.15 1056.93 1510.7 1055.34C1509.26 1053.75 1507.35 1052.96 1504.96 1052.96C1503.84 1052.96 1502.71 1053.25 1501.55 1053.83C1500.4 1054.37 1499.28 1055.09 1498.2 1055.99L1485.3 1067.64V1111.34Z" fill="black"/>
</g>
<g id="Light-M">
<path id="Subtract_16" fill-rule="evenodd" clip-rule="evenodd" d="M1160.14 1133.25H1110.92C1104.64 1133.25 1099.75 1131.54 1096.25 1128.11C1092.75 1124.68 1091 1119.8 1091 1113.49V1064.71C1091 1058.43 1092.79 1053.57 1096.36 1050.14C1099.97 1046.71 1104.82 1045 1110.92 1045H1160.14C1166.46 1045 1171.35 1046.71 1174.82 1050.14C1178.32 1053.57 1180.07 1058.43 1180.07 1064.71V1068.99H1180.04V1109.31H1180.07V1113.49C1180.07 1119.8 1178.32 1124.68 1174.82 1128.11C1171.35 1131.54 1166.46 1133.25 1160.14 1133.25ZM1186.34 1108.35L1201.62 1121.88C1202.66 1122.71 1203.71 1123.4 1204.76 1123.94C1205.8 1124.44 1206.88 1124.7 1208 1124.7C1210.1 1124.7 1211.78 1124.01 1213.04 1122.64C1214.3 1121.23 1214.93 1119.37 1214.93 1117.06V1061.19C1214.93 1058.88 1214.3 1057.04 1213.04 1055.67C1211.78 1054.26 1210.1 1053.55 1208 1053.55C1206.88 1053.55 1205.8 1053.83 1204.76 1054.37C1203.71 1054.87 1202.66 1055.54 1201.62 1056.37L1186.34 1069.9V1108.35Z" fill="black"/>
</g>
<g id="Thin-M">
<path id="Subtract_17" fill-rule="evenodd" clip-rule="evenodd" d="M866.519 1134.38H815.407C809.488 1134.38 804.94 1132.81 801.764 1129.67C798.588 1126.49 797 1121.96 797 1116.08V1065.3C797 1059.42 798.606 1054.9 801.818 1051.76C805.031 1048.59 809.56 1047 815.407 1047H866.519C872.438 1047 876.986 1048.59 880.162 1051.76C883.338 1054.9 884.926 1059.42 884.926 1065.3V1078.64L884.937 1078.63V1102.75L884.926 1102.74V1116.08C884.926 1121.96 883.338 1126.49 880.162 1129.67C876.986 1132.81 872.438 1134.38 866.519 1134.38ZM889.977 1107.09L907.773 1122.42C908.783 1123.17 909.758 1123.8 910.696 1124.31C911.635 1124.78 912.627 1125.01 913.674 1125.01C915.37 1125.01 916.742 1124.44 917.789 1123.28C918.835 1122.13 919.359 1120.54 919.359 1118.52V1062.86C919.359 1060.84 918.835 1059.25 917.789 1058.1C916.742 1056.94 915.37 1056.37 913.674 1056.37C912.627 1056.37 911.635 1056.6 910.696 1057.07C909.758 1057.54 908.783 1058.17 907.773 1058.96L889.977 1074.29V1107.09Z" fill="black"/>
</g>
<g id="Ultralight-M">
<path id="Subtract_18" fill-rule="evenodd" clip-rule="evenodd" d="M569.985 1134H516.606C510.9 1134 506.53 1132.5 503.496 1129.5C500.499 1126.47 499 1122.1 499 1116.39V1064.61C499 1058.9 500.499 1054.55 503.496 1051.55C506.53 1048.52 510.9 1047 516.606 1047H569.985C575.691 1047 580.061 1048.52 583.094 1051.55C586.128 1054.55 587.645 1058.9 587.645 1064.61V1079.25L587.646 1079.25V1101.75L587.645 1101.75V1116.39C587.645 1122.1 586.128 1126.47 583.094 1129.5C580.061 1132.5 575.691 1134 569.985 1134ZM591.429 1104.96L611.155 1121.7C612.131 1122.46 613.051 1123.08 613.918 1123.54C614.821 1123.98 615.796 1124.19 616.843 1124.19C618.36 1124.19 619.57 1123.69 620.473 1122.68C621.412 1121.67 621.881 1120.2 621.881 1118.29V1062.71C621.881 1060.8 621.412 1059.33 620.473 1058.32C619.57 1057.31 618.36 1056.81 616.843 1056.81C615.796 1056.81 614.821 1057.02 613.918 1057.46C613.051 1057.89 612.131 1058.5 611.155 1059.3L591.429 1076.04V1104.96Z" fill="black"/>
</g>
<g id="Black-S">
<path id="Subtract_19" fill-rule="evenodd" clip-rule="evenodd" d="M2943.25 696.477H2906.46C2899.85 696.477 2894.83 695.03 2891.43 692.137C2888.02 689.272 2886.31 684.789 2886.31 678.688V638.77C2886.31 632.611 2888.02 627.855 2891.43 624.504C2894.86 621.152 2899.88 619.477 2906.46 619.477H2943.25C2949.84 619.477 2954.84 621.152 2958.25 624.504C2961.61 627.756 2963.33 632.353 2963.4 638.294V677.617C2963.33 683.558 2961.61 688.169 2958.25 691.449C2954.84 694.801 2949.84 696.477 2943.25 696.477ZM2971.4 681.733L2975.61 685.605C2977.24 687.009 2978.79 688.141 2980.25 689C2981.74 689.831 2983.28 690.246 2984.89 690.246C2987.21 690.246 2989.13 689.516 2990.64 688.055C2992.19 686.565 2992.96 684.517 2992.96 681.91V635.16C2992.96 632.525 2992.19 630.477 2990.64 629.016C2989.13 627.526 2987.21 626.781 2984.89 626.781C2983.28 626.781 2981.74 627.211 2980.25 628.07C2978.79 628.93 2977.24 630.047 2975.61 631.422L2971.4 635.295V681.733Z" fill="black"/>
</g>
<g id="Heavy-S">
<path id="Subtract_20" fill-rule="evenodd" clip-rule="evenodd" d="M2647.11 697.746H2610.07C2603.76 697.746 2598.95 696.299 2595.63 693.406C2592.33 690.513 2590.69 686.116 2590.69 680.215V640.855C2590.69 634.926 2592.36 630.342 2595.71 627.105C2599.07 623.84 2603.85 622.207 2610.07 622.207H2647.11C2653.38 622.207 2658.18 623.826 2661.5 627.062C2664.83 630.299 2666.49 634.883 2666.49 640.812V645.442L2666.5 645.431V675.339L2666.49 675.328V679.098C2666.49 685.027 2664.83 689.611 2661.5 692.848C2658.18 696.113 2653.38 697.746 2647.11 697.746ZM2673.5 681.759L2679.59 687.348C2681.05 688.608 2682.46 689.611 2683.8 690.355C2685.15 691.1 2686.54 691.473 2687.97 691.473C2690.21 691.473 2692.04 690.771 2693.47 689.367C2694.9 687.935 2695.62 685.987 2695.62 683.523V637.289C2695.62 634.797 2694.9 632.849 2693.47 631.445C2692.04 630.013 2690.21 629.297 2687.97 629.297C2686.54 629.297 2685.15 629.684 2683.8 630.457C2682.46 631.202 2681.05 632.19 2679.59 633.422L2673.5 639.01V681.759Z" fill="black"/>
</g>
<g id="Bold-S">
<path id="Subtract_21" fill-rule="evenodd" clip-rule="evenodd" d="M2347.14 696.887H2309.8C2303.87 696.887 2299.3 695.44 2296.09 692.547C2292.91 689.654 2291.32 685.371 2291.32 679.699V640.984C2291.32 635.284 2292.94 630.872 2296.18 627.75C2299.44 624.628 2303.98 623.066 2309.8 623.066H2347.14C2353.04 623.066 2357.58 624.628 2360.76 627.75C2363.74 630.651 2365.34 634.654 2365.55 639.757V680.154C2365.34 685.256 2363.74 689.259 2360.76 692.16C2357.58 695.311 2353.04 696.887 2347.14 696.887ZM2372.55 680.464L2379.8 687.09C2381.06 688.15 2382.27 689.009 2383.45 689.668C2384.65 690.298 2385.88 690.613 2387.14 690.613C2389.24 690.613 2390.95 689.926 2392.3 688.551C2393.65 687.176 2394.32 685.342 2394.32 683.051V637.461C2394.32 635.141 2393.65 633.293 2392.3 631.918C2390.95 630.543 2389.24 629.855 2387.14 629.855C2385.88 629.855 2384.65 630.185 2383.45 630.844C2382.27 631.503 2381.06 632.348 2379.8 633.379L2372.55 639.986V680.464Z" fill="black"/>
</g>
<g id="Semibold-S">
<path id="Subtract_22" fill-rule="evenodd" clip-rule="evenodd" d="M2050.83 697.285H2013.27C2007.6 697.285 2003.2 695.839 2000.08 692.945C1996.98 690.052 1995.44 685.855 1995.44 680.355V642.07C1995.44 636.542 1997.03 632.259 2000.21 629.223C2003.39 626.186 2007.74 624.668 2013.27 624.668H2050.83C2056.47 624.668 2060.85 626.186 2063.98 629.223C2066.95 632.119 2068.51 636.135 2068.65 641.272V680.642C2068.51 685.805 2066.95 689.835 2063.98 692.73C2060.85 695.767 2056.47 697.285 2050.83 697.285ZM2075.15 680.21L2083.61 687.918C2084.7 688.835 2085.79 689.579 2086.88 690.152C2088 690.725 2089.11 691.012 2090.23 691.012C2092.24 691.012 2093.87 690.353 2095.13 689.035C2096.42 687.689 2097.06 685.927 2097.06 683.75V638.59C2097.06 636.384 2096.42 634.622 2095.13 633.305C2093.87 631.958 2092.24 631.285 2090.23 631.285C2089.11 631.285 2088 631.572 2086.88 632.145C2085.79 632.717 2084.7 633.462 2083.61 634.379L2075.15 642.065V680.21Z" fill="black"/>
</g>
<g id="Medium-S">
<path id="Subtract_23" fill-rule="evenodd" clip-rule="evenodd" d="M1757.34 696.898H1719.66C1714.16 696.898 1709.87 695.438 1706.81 692.516C1703.77 689.622 1702.25 685.469 1702.25 680.055V642.113C1702.25 636.728 1703.83 632.546 1706.98 629.566C1710.13 626.559 1714.36 625.055 1719.66 625.055H1757.34C1762.84 625.055 1767.11 626.559 1770.15 629.566C1773.16 632.525 1774.68 636.669 1774.7 642H1774.7V680H1774.7C1774.66 685.316 1773.15 689.445 1770.15 692.387C1767.11 695.395 1762.84 696.898 1757.34 696.898ZM1781.2 679.572L1790.21 687.746C1791.22 688.605 1792.22 689.293 1793.22 689.809C1794.25 690.324 1795.29 690.582 1796.32 690.582C1798.29 690.582 1799.88 689.938 1801.09 688.648C1802.32 687.331 1802.93 685.612 1802.93 683.492V638.633C1802.93 636.513 1802.32 634.809 1801.09 633.52C1799.88 632.23 1798.29 631.586 1796.32 631.586C1795.29 631.586 1794.25 631.844 1793.22 632.359C1792.22 632.875 1791.22 633.548 1790.21 634.379L1781.2 642.553V679.572Z" fill="black"/>
</g>
<g id="Regular-S">
<path id="Subtract_24" fill-rule="evenodd" clip-rule="evenodd" d="M1456.03 696.297H1419.13C1413.89 696.297 1409.78 694.85 1406.8 691.957C1403.85 689.035 1402.37 684.953 1402.37 679.711V642.199C1402.37 636.986 1403.9 632.932 1406.97 630.039C1410.06 627.117 1414.12 625.656 1419.13 625.656H1456.03C1461.27 625.656 1465.37 627.117 1468.32 630.039C1471.3 632.932 1472.79 636.986 1472.79 642.199V649.052L1472.8 649.043V672.87L1472.79 672.86V679.711C1472.79 684.953 1471.3 689.035 1468.32 691.957C1465.37 694.85 1461.27 696.297 1456.03 696.297ZM1478.8 678.306L1489.03 687.574C1489.89 688.29 1490.78 688.878 1491.7 689.336C1492.61 689.766 1493.51 689.98 1494.4 689.98C1496.29 689.98 1497.81 689.35 1498.96 688.09C1500.1 686.829 1500.68 685.197 1500.68 683.191V638.762C1500.68 636.757 1500.1 635.124 1498.96 633.863C1497.81 632.603 1496.29 631.973 1494.4 631.973C1493.51 631.973 1492.61 632.202 1491.7 632.66C1490.78 633.09 1489.89 633.663 1489.03 634.379L1478.8 643.622V678.306Z" fill="black"/>
</g>
<g id="Light-S">
<path id="Subtract_25" fill-rule="evenodd" clip-rule="evenodd" d="M1159.16 695.996H1120.1C1115.11 695.996 1111.23 694.635 1108.45 691.914C1105.67 689.193 1104.29 685.326 1104.29 680.312V641.598C1104.29 636.613 1105.7 632.76 1108.54 630.039C1111.4 627.318 1115.26 625.957 1120.1 625.957H1159.16C1164.17 625.957 1168.05 627.318 1170.8 630.039C1173.58 632.76 1174.97 636.613 1174.97 641.598V645H1174.95V677H1174.97V680.312C1174.97 685.326 1173.58 689.193 1170.8 691.914C1168.05 694.635 1164.17 695.996 1159.16 695.996ZM1179.95 676.236L1192.07 686.973C1192.91 687.632 1193.74 688.176 1194.57 688.605C1195.4 689.007 1196.26 689.207 1197.14 689.207C1198.81 689.207 1200.14 688.663 1201.14 687.574C1202.14 686.457 1202.64 684.982 1202.64 683.148V638.805C1202.64 636.971 1202.14 635.51 1201.14 634.422C1200.14 633.305 1198.81 632.746 1197.14 632.746C1196.26 632.746 1195.4 632.961 1194.57 633.391C1193.74 633.792 1192.91 634.322 1192.07 634.98L1179.95 645.717V676.236Z" fill="black"/>
</g>
<g id="Thin-S">
<path id="Subtract_26" fill-rule="evenodd" clip-rule="evenodd" d="M863.332 695.652H822.766C818.068 695.652 814.458 694.406 811.937 691.914C809.417 689.393 808.156 685.798 808.156 681.129V640.824C808.156 636.155 809.431 632.574 811.98 630.082C814.53 627.561 818.125 626.301 822.766 626.301H863.332C868.03 626.301 871.639 627.561 874.16 630.082C876.681 632.574 877.941 636.155 877.941 640.824V651.416L877.95 651.408V670.545L877.941 670.537V681.129C877.941 685.798 876.681 689.393 874.16 691.914C871.639 694.406 868.03 695.652 863.332 695.652ZM881.95 673.99L896.074 686.156C896.876 686.758 897.65 687.259 898.394 687.66C899.139 688.033 899.927 688.219 900.758 688.219C902.104 688.219 903.193 687.76 904.023 686.844C904.854 685.927 905.269 684.667 905.269 683.062V638.891C905.269 637.286 904.854 636.026 904.023 635.109C903.193 634.193 902.104 633.734 900.758 633.734C899.927 633.734 899.139 633.921 898.394 634.293C897.65 634.665 896.876 635.167 896.074 635.797L881.95 647.963V673.99Z" fill="black"/>
</g>
<g id="Ultralight-S">
<path id="Subtract_27" fill-rule="evenodd" clip-rule="evenodd" d="M570.461 695.48H528.121C523.595 695.48 520.129 694.292 517.723 691.914C515.345 689.508 514.156 686.042 514.156 681.516V640.438C514.156 635.911 515.345 632.46 517.723 630.082C520.129 627.676 523.595 626.473 528.121 626.473H570.461C574.987 626.473 578.453 627.676 580.859 630.082C583.266 632.46 584.469 635.911 584.469 640.438V652.056L584.47 652.055V669.898L584.469 669.897V681.516C584.469 686.042 583.266 689.508 580.859 691.914C578.453 694.292 574.987 695.48 570.461 695.48ZM587.47 672.445L603.117 685.727C603.891 686.328 604.621 686.815 605.309 687.188C606.025 687.531 606.798 687.703 607.629 687.703C608.832 687.703 609.792 687.302 610.508 686.5C611.253 685.698 611.625 684.538 611.625 683.02V638.934C611.625 637.415 611.253 636.255 610.508 635.453C609.792 634.651 608.832 634.25 607.629 634.25C606.798 634.25 606.025 634.422 605.309 634.766C604.621 635.109 603.891 635.596 603.117 636.227L587.47 649.508V672.445Z" fill="black"/>
</g>
</g>
</g>
</svg>
