<svg width="50" height="50" viewBox="0 0 50 50" fill="none" xmlns="http://www.w3.org/2000/svg"><path d="m29.326 8.64 2.052-6.205A2.102 2.102 0 0 1 33.38 1h13.514a2.103 2.103 0 0 1 2.004 2.743l-1.62 4.897" stroke="#4285F4" stroke-width="1.2" stroke-miterlimit="10" stroke-linecap="round" stroke-linejoin="round"/><path d="M23.058 14.462h-7.085a.877.877 0 0 1-.882-.877V6.519c0-.495.4-.877.882-.877h7.101c.497 0 .882.398.882.877v7.066a.89.89 0 0 1-.898.877z" fill="#FBBC04"/><path d="M34.76 26.041c2.452 0 4.44-1.978 4.44-4.418 0-2.44-1.988-4.418-4.44-4.418-2.453 0-4.44 1.978-4.44 4.418 0 2.44 1.987 4.418 4.44 4.418z" fill="#34A853"/><path d="M8.871 14.462c2.452 0 4.44-1.978 4.44-4.418 0-2.44-1.988-4.419-4.44-4.419-2.452 0-4.44 1.979-4.44 4.419 0 2.44 1.988 4.418 4.44 4.418zm21.289 0c-2.454 0-4.441-1.978-4.441-4.418 0-2.44 1.987-4.419 4.44-4.419h8.865c2.453 0 4.44 1.978 4.44 4.419 0 2.44-1.987 4.418-4.44 4.418h-8.865zm-4.714 2.743H11.628a.9.9 0 0 0-.77.447l-2.035 3.525a.86.86 0 0 0 0 .877l2.036 3.54c.16.272.449.447.77.447h13.817c.321 0 .61-.175.77-.446l2.052-3.525a.86.86 0 0 0 0-.878l-2.052-3.524a.849.849 0 0 0-.77-.463z" fill="#E8EAED"/><path d="M15 49a2 2 0 1 0 0-4 2 2 0 0 0 0 4zm19.093 0a2 2 0 1 0 0-4 2 2 0 0 0 0 4z" fill="#4285F4"/><path d="M40.226 29.9 47.28 8.64H1L8.037 29.9h32.19zm.001 0-4.168 12.601H13.215" stroke="#4285F4" stroke-width="1.2" stroke-miterlimit="10" stroke-linecap="round" stroke-linejoin="round"/></svg>