<svg xmlns="http://www.w3.org/2000/svg" height="24" viewBox="0 0 24 24" width="24" fill="#455A64"><path fill="none" d="M0 0h24v24H0z"/><path d="M19 2h-5.87c-.8 0-1.56.32-2.12.88l-8.13 8.13a3 3 0 0 0 0 4.24l5.87 5.87c.59.59 1.36.88 2.12.88s1.54-.29 2.12-.88L21.12 13c.56-.56.88-1.33.88-2.12V5c0-1.66-1.34-3-3-3zm1 8.88c0 .27-.1.52-.29.71l-8.13 8.12c-.25.26-.55.29-.71.29s-.45-.04-.71-.29l-5.87-5.87a1.017 1.017 0 0 1 0-1.42l8.13-8.13c.19-.19.45-.29.71-.29H19c.55 0 1 .45 1 1v5.88z"/><circle cx="16.5" cy="7.5" r="1.5"/></svg>