<svg width="129" height="109" viewBox="0 0 129 109" fill="none" xmlns="http://www.w3.org/2000/svg"><path d="M87.04 39.418s-.807-7.896 4.958-12.456c8.285-6.553 16.093-1.584 23.532-7.658 6.49-5.299 7.223-14.102 7.223-14.102" stroke="#AECBFA" stroke-width="1.823" stroke-miterlimit="10"/><path d="M93.88 29.245 87.242 46.66l18.401 2.96-14.456 11.76 14.456 11.763-18.4 2.96 6.637 17.415-17.415-6.639-2.96 18.401-11.762-14.456L49.98 105.28l-2.959-18.4-17.415 6.638 6.638-17.415-18.402-2.96L32.3 61.381 17.842 49.62l18.402-2.959-6.638-17.415 17.415 6.637 2.959-18.4 11.763 14.456L73.505 17.48l2.96 18.401 17.415-6.637z" fill="#D2E3FC"/><path d="M17.36 90.384a4.334 4.334 0 1 1 4.225 7.569l-7.568 4.225a4.333 4.333 0 0 1-6.282-4.966 4.334 4.334 0 0 1 2.057-2.603l7.568-4.225z" fill="#34A853"/><path d="M122.753 71.327a5.387 5.387 0 1 0 0-10.773 5.387 5.387 0 0 0 0 10.773z" fill="#FBBC04"/><path d="m33.846 11.62-9.06 4.021a1.073 1.073 0 0 0-.197 1.848l8.013 5.836a1.073 1.073 0 0 0 1.699-.753l1.047-9.858a1.073 1.073 0 0 0-1.502-1.095z" fill="#EA4335"/><path d="m71.862 28.142-31.63 31.63a3.049 3.049 0 0 0 0 4.313l18.807 18.808a3.05 3.05 0 0 0 4.312 0l31.63-31.63a3.05 3.05 0 0 0 .894-2.157V30.298a3.049 3.049 0 0 0-3.05-3.048H74.019a3.047 3.047 0 0 0-2.156.892z" fill="#4285F4"/><path d="M87 39.922a3.798 3.798 0 1 0 0-7.596 3.798 3.798 0 0 0 0 7.596z" fill="#D2E3FC"/><path d="M88.497 39.342s-1.77-7.737 3.392-12.97c7.418-7.52 15.777-3.549 22.414-10.49C120.093 9.828 119.74 1 119.74 1M8.508 48.091 1 45.62M105.055 108l-4.329-6.614" stroke="#AECBFA" stroke-width="1.823" stroke-miterlimit="10"/><path d="M72.819 50.388 70.85 58.13l4.265 6.756-7.972.52-5.108 6.144-2.959-7.422-7.421-2.959 6.144-5.106.52-7.973 6.757 4.265 7.742-1.968z" fill="#FBBC04"/></svg>