<svg xmlns="http://www.w3.org/2000/svg" height="20" width="20" viewBox="0 96 960 960" fill="#041E49"><path d="M263.788 960Q234 960 213 938.788q-21-21.213-21-51Q192 858 213.212 837q21.213-21 51-21Q294 816 315 837.212q21 21.213 21 51Q336 918 314.788 939q-21.213 21-51 21Zm432 0Q666 960 645 938.788q-21-21.213-21-51Q624 858 645.212 837q21.213-21 51-21Q726 816 747 837.212q21 21.213 21 51Q768 918 746.788 939q-21.213 21-51 21ZM253 360l83 192h301l82-192H253Zm-31-72h570q14 0 20.5 11t1.5 23L702.627 579.855Q694 600 676.5 612 659 624 637 624H317l-42 72h493v72H276q-43 0-63.5-36.153Q192 695.695 213 660l52-90-131-306H48v-72h133l41 96Zm114 264h301-301Z"/></svg>
