<svg width="76" height="64" viewBox="0 0 76 64" fill="none" xmlns="http://www.w3.org/2000/svg">
<g clip-path="url(#clip0)">
<path d="M69.9984 17.9325V46.7703C69.9984 47.8132 69.1889 48.6294 68.1544 48.6294H39.5501C38.5156 48.6294 37.7061 47.8132 37.7061 46.7703V17.9325C37.7061 16.8897 38.5156 16.0735 39.5501 16.0735H68.1544C69.1889 16.0735 69.9984 16.935 69.9984 17.9325Z" fill="white"/>
<path d="M61.0492 53.0729H24.6191C23.3148 53.0729 22.2804 52.03 22.2804 50.7151V13.9877C22.2804 12.6728 23.3148 11.6299 24.6191 11.6299H61.0492C62.3535 11.6299 63.3879 12.6728 63.3879 13.9877V50.7151C63.3879 52.03 62.3535 53.0729 61.0492 53.0729Z" fill="#053975"/>
<path d="M51.2457 55.7027H10.1382C8.69902 55.7027 7.48469 54.5238 7.48469 53.0275V11.6752C7.52966 10.1789 8.69902 9 10.1382 9H51.2008C52.64 9 53.8543 10.1789 53.8543 11.6752V53.0728C53.8543 54.5238 52.685 55.7027 51.2457 55.7027Z" fill="#4285F4"/>
<path d="M41.6656 22.376C41.2609 22.5573 40.9011 22.784 40.5413 23.0561L39.2819 23.7362C38.2025 24.371 36.9432 24.5524 35.7289 24.235L34.1997 23.8269L33.5251 23.6456V23.6909C33.3452 23.6909 33.2103 23.6456 33.0304 23.6456C30.8266 23.6456 29.0725 25.4592 29.0725 27.6357C29.0725 29.8575 30.8715 31.6258 33.0304 31.6258C33.2103 31.6258 33.3452 31.6258 33.5251 31.5805V31.6258L34.1997 31.4445L35.7289 31.0364C36.9432 30.719 38.2025 30.855 39.2819 31.4898L40.4963 32.1699C40.8561 32.442 41.2159 32.6687 41.6207 32.8047C42.4752 33.1675 43.4197 33.3488 44.4091 33.2128C47.1526 32.9408 49.3115 30.6736 49.4914 27.9077C49.6713 24.5977 47.0627 21.8772 43.8245 21.8772C43.0599 21.9225 42.3403 22.1039 41.6656 22.376Z" fill="white"/>
<path d="M41.6656 22.376C41.2609 22.5573 40.9011 22.784 40.5413 23.0561L39.2819 23.7362C38.2025 24.371 36.9432 24.5524 35.7289 24.235L34.1997 23.8269L33.5251 23.6456V23.6909C33.3452 23.6909 33.2103 23.6456 33.0304 23.6456C30.8266 23.6456 29.0725 25.4592 29.0725 27.6357C29.0725 29.8575 30.8715 31.6258 33.0304 31.6258C33.2103 31.6258 33.3452 31.6258 33.5251 31.5805V31.6258L34.1997 31.4445L35.7289 31.0364C36.9432 30.719 38.2025 30.855 39.2819 31.4898L40.4963 32.1699C40.8561 32.442 41.2159 32.6687 41.6207 32.8047C42.4752 33.1675 43.4197 33.3488 44.4091 33.2128C47.1526 32.9408 49.3115 30.6736 49.4914 27.9077C49.6713 24.5977 47.0627 21.8772 43.8245 21.8772C43.0599 21.9225 42.3403 22.1039 41.6656 22.376Z" fill="#E8F0FE"/>
<mask id="mask0" mask-type="alpha" maskUnits="userSpaceOnUse" x="7" y="9" width="47" height="47">
<path d="M51.244 55.7027H10.1364C8.69723 55.7027 7.48289 54.5238 7.48289 53.0275V11.6752C7.52787 10.1789 8.69723 9 10.1364 9H51.199C52.6382 9 53.8525 10.1789 53.8525 11.6752V53.0728C53.8525 54.5238 52.6832 55.7027 51.244 55.7027Z" fill="#4285F4"/>
</mask>
<g mask="url(#mask0)">
<path d="M6.62817 48.4025L24.7982 19.4287C25.8327 17.7964 28.2164 17.7964 29.2058 19.4287L43.2381 41.7825L44.8123 39.2434C45.8467 37.611 48.2304 37.611 49.2199 39.2434L54.9317 48.3572" stroke="white" stroke-width="1.81293" stroke-miterlimit="10" stroke-linecap="square" stroke-linejoin="round"/>
</g>
<mask id="mask1" mask-type="alpha" maskUnits="userSpaceOnUse" x="29" y="21" width="21" height="13">
<path d="M41.6656 22.4215C41.2609 22.6029 40.9011 22.8296 40.5413 23.1016L39.2819 23.7818C38.2025 24.4166 36.9432 24.5979 35.7289 24.2805L34.1997 23.8725L33.5251 23.6911V23.7364C33.3452 23.7364 33.2103 23.6911 33.0304 23.6911C30.8266 23.6911 29.0725 25.5048 29.0725 27.6812C29.0725 29.903 30.8715 31.6714 33.0304 31.6714C33.2103 31.6714 33.3452 31.6714 33.5251 31.626V31.6714L34.1997 31.49L35.7289 31.0819C36.9432 30.7645 38.2025 30.9005 39.2819 31.5353L40.4963 32.2155C40.8561 32.4875 41.2159 32.7142 41.6207 32.8503C42.4752 33.213 43.4197 33.3944 44.4091 33.2583C47.1526 32.9863 49.3115 30.7192 49.4914 27.9533C49.6713 24.6433 47.0627 21.9227 43.8245 21.9227C43.0599 21.9681 42.3403 22.1494 41.6656 22.4215Z" fill="#E8F0FE"/>
</mask>
<g mask="url(#mask1)">
<path d="M6.63007 48.4025L24.8001 19.4287C25.8346 17.7964 28.2183 17.7964 29.2077 19.4287L43.24 41.7825L44.8142 39.2434C45.8486 37.611 48.2323 37.611 49.2218 39.2434L54.9336 48.3572" stroke="#FBBC05" stroke-width="1.81293" stroke-miterlimit="10" stroke-linecap="square" stroke-linejoin="round"/>
</g>
</g>
<defs>
<clipPath id="clip0">
<rect width="64" height="46.7027" fill="white" transform="translate(6 9)"/>
</clipPath>
</defs>
</svg>
