<svg width="880" height="720" fill="none" xmlns="http://www.w3.org/2000/svg"><path fill="#fff" d="M0 0h880v720H0z"/><path d="M724.122 361.986c22.58 0 40.884-18.291 40.884-40.855 0-22.563-18.304-40.855-40.884-40.855-22.579 0-40.884 18.292-40.884 40.855 0 22.564 18.305 40.855 40.884 40.855z" fill="#4285F4"/><path d="M789.966 361.126c10.886 0 19.711-8.818 19.711-19.696 0-10.878-8.825-19.696-19.711-19.696-10.885 0-19.71 8.818-19.71 19.696 0 10.878 8.825 19.696 19.71 19.696z" fill="#EA4335"/><path d="M819.288 327.955c5.34 0 9.669-4.326 9.669-9.662 0-5.336-4.329-9.662-9.669-9.662-5.34 0-9.669 4.326-9.669 9.662 0 5.336 4.329 9.662 9.669 9.662z" fill="#34A853"/><path d="M789.968 414.223c12.787 0 23.153-10.358 23.153-23.137 0-12.778-10.366-23.136-23.153-23.136-12.787 0-23.154 10.358-23.154 23.136 0 12.779 10.367 23.137 23.154 23.137z" fill="#FBBC05"/><path d="M538.209 279.531c-2.869 8.945-14.345 13.36-26.596 12.5l2.869-5.504 3.673-4.903 6.312-3.555 7.287-1.032 6.828 1.261" fill="#4285F4"/><path d="M656.614 418.323c6.656 1.434 18.907 3.555 19.194 12.328.401 11.182-16.096 9.949-23.326 10.608M544.834 296.705a11.488 11.488 0 0 1-5.738.946 17.228 17.228 0 0 1-6.627-2.466" stroke="#4285F4" stroke-width="6.573" stroke-linecap="round" stroke-linejoin="round"/><path d="M529.399 310.409c9.222 0 16.698-7.471 16.698-16.686 0-9.216-7.476-16.686-16.698-16.686-9.222 0-16.698 7.47-16.698 16.686 0 9.215 7.476 16.686 16.698 16.686z" stroke="#4285F4" stroke-width="6.573" stroke-linecap="round" stroke-linejoin="round"/><path d="M389.634 305.185c0 14.951-12.129 27.075-27.096 27.075-14.968 0-27.097-12.124-27.097-27.075 0-14.951 12.129-27.075 27.097-27.075 14.967 0 27.096 12.124 27.096 27.075zm79.62-35.503c16.822 3.826 35.257 5.409 52.624 6.684-.374.244-.769.493-1.185.749-.462.285-.96.586-1.473.895a106.49 106.49 0 0 0-2.987 1.847c-1.457.949-2.975 2.048-4.199 3.344l-.006.007-.007.006c-1.819 1.95-2.471 4.142-2.665 6.189-.133 1.398-.054 2.963.012 4.26.015.301.03.588.041.855-.25 2.202.054 4.421.87 6.46a138.826 138.826 0 0 1-32.047 32.683l-.011.009a68.482 68.482 0 0 1-42.615 13.271 41.948 41.948 0 0 1-20.982-7.889l-1.936 2.655 1.879-2.695a48.633 48.633 0 0 1-13.045-13.523 40.414 40.414 0 0 1-3.675-31.749l.003-.01a41.19 41.19 0 0 1 7.59-14.356 41.245 41.245 0 0 1 12.485-10.277 47.62 47.62 0 0 1 25.171-4.341c8.79.983 17.494 2.619 26.04 4.897l.059.015.059.014z" fill="#4285F4" stroke="#4285F4" stroke-width="6.573"/><path d="M471.273 355.765c-9.812 32.684-9.984 78.011 19.136 104.359 14.346 12.988 35.663 15.826 54.311 15.941l72.96-.602v-48.854a42.062 42.062 0 0 0-19.538-12.529 68.91 68.91 0 0 0-26.682-2.867c-12.767 1.147-24.1 4.042-37.039 2.867" stroke="#4285F4" stroke-width="6.573" stroke-linecap="round" stroke-linejoin="round"/><path d="M534.419 414.166a369.504 369.504 0 0 0-6.255-48.739c-3.27-15.023-7.89-31.537-19.222-42.661a49.874 49.874 0 0 0-38.302-13.504 62.067 62.067 0 0 0-30.642 10.751 60.259 60.259 0 0 0-8.894 7.283l-.315.286c-1.349 1.376-2.64 2.867-3.845 4.272a134.185 134.185 0 0 0-10.558 15.396c-4.963 8.257-9.123 17.202-16.497 23.767-7.373 6.566-17.214 11.038-13.57 22.306" stroke="#4285F4" stroke-width="6.573" stroke-linecap="round" stroke-linejoin="round"/><path d="M521.856 343.466c-2.123-9.117 4.074-16.916 9.324-21.847a101.243 101.243 0 0 0 11.792-11.009 21.877 21.877 0 0 0 3.012-5.189 23.996 23.996 0 0 0 1.148-6.021 9.29 9.29 0 0 1 3.5-7.024 5.08 5.08 0 0 1 7.029 1.433 11.664 11.664 0 0 1 .517 7.34 34.876 34.876 0 0 1-7.374 18.607m10.959 4.013a36.608 36.608 0 0 0 4.734-8.601 37.545 37.545 0 0 0 2.467-12.529c0-3.125-.487-7.167-3.442-8.916a4.767 4.767 0 0 0-5.079 0m10.301 32.885a35.5 35.5 0 0 0 4.734-8.601 36.243 36.243 0 0 0 2.467-12.558c0-3.125-.459-7.167-3.443-8.916a4.909 4.909 0 0 0-5.078 0m-6.803 50.889l-36.953 7.225m36.955-7.225c7.546 8.343 9.927 13.303 11.218 24.484 1.492 13.016-1.664 26.893 3.5 38.963m-190.993-17.546l15.837 85.437m-137.599-93.035c14.345-3.641 38.416-9.203 53.02-11.468a95.83 95.83 0 0 1 20.083-1.118l2.726.172a80.015 80.015 0 0 1 45.905 20.069m15.866 85.38H64.815v-96.045c28.26 0 68.512-10.895 95.74-1.176" stroke="#4285F4" stroke-width="6.573" stroke-linecap="round" stroke-linejoin="round"/><path d="M13.545 427.956v-18.177l51.327-.86v69.726c-14.087.258-23.928 1.089-28.203 1.634a11.27 11.27 0 0 0-9.64 8.601 14.134 14.134 0 0 1-4.246 6.881 13.176 13.176 0 0 1-9.18 2.236v-32.942a37.02 37.02 0 0 1 6.524-21.576 37.063 37.063 0 0 1 17.834-13.803l-24.301-1.72" fill="#4285F4"/><path d="M13.545 427.956v-18.177l51.327-.86v69.726c-14.087.258-23.928 1.089-28.203 1.634a11.27 11.27 0 0 0-9.64 8.601 14.134 14.134 0 0 1-4.246 6.881 13.176 13.176 0 0 1-9.18 2.236v-32.942a37.02 37.02 0 0 1 6.524-21.576 37.063 37.063 0 0 1 17.834-13.803v0l-24.301-1.72" stroke="#4285F4" stroke-width="6.573" stroke-linecap="round" stroke-linejoin="round"/><path d="M660.36 419.12c-2.231-.707-6.592-1.557-8.68-.376-2.25 1.272-4.295 5.34-.454 9.037" stroke="#4285F4" stroke-width="6.573"/><path d="M257.157 478.76a82.331 82.331 0 0 1-34.259-7.548 82.283 82.283 0 0 1-27.999-21.122c-16.44-19.496-24.129-45.7-34.429-68.809l-45.015-101.09 82.801-36.239c4.619 15.654 16.439 28.412 25.219 42.173a107.984 107.984 0 0 1 11.046 22.707c4.59 13.188 6.598 27.122 10.299 40.597 3.702 13.475 9.382 26.95 19.768 36.296" stroke="#4285F4" stroke-width="6.573" stroke-linecap="round" stroke-linejoin="round"/><path d="M141.793 213.59l8.148 22.936a37.117 37.117 0 0 0-42.175-8.114l-30.211 13.246a13.187 13.187 0 0 0 5.738 7.511 13.931 13.931 0 0 0 8.004 1.119 11.223 11.223 0 0 1 11.735 5.418 270.809 270.809 0 0 1 12.423 24.484l64.008-28.01-21.001-45.872-16.669 7.282z" fill="#4285F4" stroke="#4285F4" stroke-width="6.573" stroke-linecap="round" stroke-linejoin="round"/><path d="M617.881 424.487a153.524 153.524 0 0 0 15.034-11.468 13.806 13.806 0 0 1 7.373-4.157 3.839 3.839 0 0 1 1.98.287 4.18 4.18 0 0 1 1.52 4.73 16.033 16.033 0 0 1-2.611 5.362 48.377 48.377 0 0 1-7.373 8.601l29.408-.201m6.914 11.382c.546.944.749 2.048.574 3.125a7.622 7.622 0 0 1-1.808 5.103 8.808 8.808 0 0 1-2.668 1.921 38.107 38.107 0 0 1-14.345 3.211M668.951 449a9.363 9.363 0 0 1-2.065 8.372 17.988 17.988 0 0 1-8.292 4.644 36.668 36.668 0 0 1-7.832 1.463" stroke="#4285F4" stroke-width="6.573" stroke-linecap="round" stroke-linejoin="round"/><path d="M722.059 471.936h97.031l47.396-88.82" stroke="#4285F4" stroke-width="6.573" stroke-miterlimit="10"/><path d="M617.682 475.348h12.738c9.33.29 18.664-.373 27.859-1.978a10.581 10.581 0 0 0 7.66-6.308 6.904 6.904 0 0 0-.316-5.017M398.771 478.76h27.256a77.349 77.349 0 0 0 16.268-1.577 57.06 57.06 0 0 0 15.091-5.275 90.736 90.736 0 0 0 25.535-19.754m95.913-150.662a4.906 4.906 0 0 1 5.624-.284 4.905 4.905 0 0 1 1.434 1.374c2.323 3.498 1.606 9.805 1.032 13.704a37.771 37.771 0 0 1-6.971 15.711 44.095 44.095 0 0 1-17.215 15.425" stroke="#4285F4" stroke-width="6.573" stroke-linecap="round" stroke-linejoin="round"/></svg>