<svg width="440" height="360" fill="none" xmlns="http://www.w3.org/2000/svg"><path fill="#fff" d="M0 0h440v360H0z"/><path d="M362.061 180.993c11.29 0 20.442-9.146 20.442-20.427 0-11.282-9.152-20.428-20.442-20.428-11.29 0-20.442 9.146-20.442 20.428 0 11.281 9.152 20.427 20.442 20.427z" fill="#4285F4"/><path d="M394.983 180.563c5.443 0 9.855-4.409 9.855-9.848 0-5.439-4.412-9.848-9.855-9.848-5.443 0-9.855 4.409-9.855 9.848 0 5.439 4.412 9.848 9.855 9.848z" fill="#EA4335"/><path d="M409.644 163.977a4.832 4.832 0 1 0 0-9.661 4.832 4.832 0 1 0 0 9.661z" fill="#34A853"/><path d="M394.984 207.112c6.393 0 11.576-5.18 11.576-11.569 0-6.389-5.183-11.568-11.576-11.568-6.394 0-11.577 5.179-11.577 11.568 0 6.389 5.183 11.569 11.577 11.569z" fill="#FBBC05"/><path d="M269.105 139.766c-1.435 4.472-7.173 6.68-13.298 6.25l1.434-2.753 1.836-2.451 3.156-1.778 3.644-.516 3.414.631" fill="#4285F4"/><path d="M328.307 209.161c3.328.717 9.453 1.778 9.597 6.165.201 5.59-8.048 4.974-11.663 5.304m-53.824-72.278c-.9.402-1.888.564-2.869.473a8.62 8.62 0 0 1-3.314-1.232" stroke="#4285F4" stroke-width="3.286" stroke-linecap="round" stroke-linejoin="round"/><path d="M264.7 155.204c4.61 0 8.348-3.735 8.348-8.343 0-4.607-3.738-8.343-8.348-8.343-4.611 0-8.349 3.736-8.349 8.343 0 4.608 3.738 8.343 8.349 8.343z" stroke="#4285F4" stroke-width="3.286" stroke-linecap="round" stroke-linejoin="round"/><path d="M194.817 152.592c0 7.476-6.065 13.538-13.548 13.538-7.484 0-13.549-6.062-13.549-13.538 0-7.475 6.065-13.537 13.549-13.537 7.483 0 13.548 6.062 13.548 13.537zm39.81-17.751c8.411 1.913 17.628 2.705 26.312 3.342-.187.122-.385.246-.592.375-.232.142-.481.292-.737.447-.498.3-1.022.617-1.493.923-.729.475-1.488 1.024-2.1 1.672l-.006.007c-.91.975-1.236 2.071-1.333 3.095-.067.699-.027 1.481.006 2.129.008.151.015.294.02.428a6.682 6.682 0 0 0 .436 3.23 69.446 69.446 0 0 1-16.024 16.342l-.006.004a34.235 34.235 0 0 1-21.307 6.635 20.975 20.975 0 0 1-10.491-3.944l-.968 1.328.94-1.348a24.316 24.316 0 0 1-6.523-6.761 20.212 20.212 0 0 1-1.838-15.875l.002-.005a20.595 20.595 0 0 1 10.038-12.316 23.808 23.808 0 0 1 12.585-2.171 88.982 88.982 0 0 1 13.02 2.448l.029.008.03.007z" fill="#4285F4" stroke="#4285F4" stroke-width="3.286"/><path d="M235.636 177.882c-4.906 16.342-4.992 39.006 9.569 52.18 7.172 6.494 17.831 7.913 27.155 7.97l36.48-.301v-24.427a21.037 21.037 0 0 0-9.769-6.264 34.446 34.446 0 0 0-13.341-1.434c-6.384.574-12.05 2.022-18.52 1.434" stroke="#4285F4" stroke-width="3.286" stroke-linecap="round" stroke-linejoin="round"/><path d="M267.209 207.083a184.664 184.664 0 0 0-3.127-24.37c-1.635-7.511-3.945-15.768-9.611-21.33a24.939 24.939 0 0 0-19.151-6.752 31.024 31.024 0 0 0-15.321 5.376 30.095 30.095 0 0 0-4.447 3.641l-.158.143c-.674.688-1.319 1.434-1.922 2.136a67.156 67.156 0 0 0-5.279 7.698c-2.482 4.128-4.562 8.601-8.248 11.884-3.687 3.282-8.608 5.519-6.786 11.152" stroke="#4285F4" stroke-width="3.286" stroke-linecap="round" stroke-linejoin="round"/><path d="M260.928 171.733c-1.062-4.559 2.037-8.458 4.662-10.923a50.669 50.669 0 0 0 5.896-5.505 10.925 10.925 0 0 0 1.506-2.595c.319-.975.512-1.986.574-3.01a4.639 4.639 0 0 1 1.75-3.512 2.544 2.544 0 0 1 3.515.717c.48 1.163.57 2.45.258 3.669a17.44 17.44 0 0 1-3.687 9.304m5.48 2.007a18.361 18.361 0 0 0 2.367-4.301 18.784 18.784 0 0 0 1.233-6.264c0-1.563-.244-3.584-1.721-4.459a2.385 2.385 0 0 0-2.539 0m5.15 16.443a17.718 17.718 0 0 0 2.367-4.301 18.115 18.115 0 0 0 1.233-6.278c0-1.563-.229-3.584-1.721-4.459a2.459 2.459 0 0 0-2.539 0m-3.401 25.445l-18.477 3.612m18.478-3.612c3.772 4.171 4.963 6.651 5.609 12.242.745 6.508-.833 13.446 1.75 19.481m-95.497-8.773l7.918 42.719m-68.799-46.517c7.173-1.821 19.208-4.602 26.51-5.734a47.815 47.815 0 0 1 10.042-.559l1.362.086a40.007 40.007 0 0 1 22.953 10.034m7.933 42.69H32.407v-48.023c14.13 0 34.257-5.447 47.87-.587" stroke="#4285F4" stroke-width="3.286" stroke-linecap="round" stroke-linejoin="round"/><path d="M6.772 213.978v-9.088l25.664-.43v34.862c-7.043.129-11.964.545-14.101.818a5.635 5.635 0 0 0-4.82 4.3 7.06 7.06 0 0 1-2.123 3.44 6.589 6.589 0 0 1-4.59 1.119v-16.471a18.512 18.512 0 0 1 3.262-10.789 18.533 18.533 0 0 1 8.916-6.901l-12.15-.86" fill="#4285F4"/><path d="M6.772 213.978v-9.088l25.664-.43v34.862c-7.043.129-11.964.545-14.101.818a5.635 5.635 0 0 0-4.82 4.3 7.06 7.06 0 0 1-2.123 3.44 6.589 6.589 0 0 1-4.59 1.119v-16.471a18.512 18.512 0 0 1 3.262-10.789 18.533 18.533 0 0 1 8.916-6.901v0l-12.15-.86" stroke="#4285F4" stroke-width="3.286" stroke-linecap="round" stroke-linejoin="round"/><path d="M330.18 209.56c-1.115-.354-3.296-.779-4.34-.188-1.125.636-2.147 2.67-.227 4.519" stroke="#4285F4" stroke-width="3.286"/><path d="M128.579 239.38a41.168 41.168 0 0 1-31.13-14.335c-8.22-9.748-12.064-22.85-17.214-34.404l-22.508-50.546 41.4-18.119c2.31 7.827 8.221 14.206 12.61 21.087a53.94 53.94 0 0 1 5.523 11.353c2.296 6.594 3.3 13.561 5.15 20.298 1.851 6.738 4.691 13.475 9.884 18.149" stroke="#4285F4" stroke-width="3.286" stroke-linecap="round" stroke-linejoin="round"/><path d="M70.896 106.795l4.074 11.468a18.555 18.555 0 0 0-21.087-4.057l-15.106 6.623a6.596 6.596 0 0 0 2.87 3.756 6.965 6.965 0 0 0 4.002.559 5.608 5.608 0 0 1 5.867 2.709 135.327 135.327 0 0 1 6.211 12.242l32.005-14.005-10.501-22.936-8.335 3.641z" fill="#4285F4" stroke="#4285F4" stroke-width="3.286" stroke-linecap="round" stroke-linejoin="round"/><path d="M308.94 212.244a76.583 76.583 0 0 0 7.517-5.734 6.906 6.906 0 0 1 3.687-2.079c.337-.04.678.009.99.143a2.095 2.095 0 0 1 .76 2.366 8.02 8.02 0 0 1-1.305 2.68 24.18 24.18 0 0 1-3.687 4.301l14.704-.101m3.457 5.691a2.37 2.37 0 0 1 .287 1.563c.021.932-.3 1.84-.904 2.552-.38.401-.833.726-1.334.96a19.073 19.073 0 0 1-7.173 1.606m8.537-1.692a4.69 4.69 0 0 1-1.033 4.186 8.999 8.999 0 0 1-4.146 2.322 18.24 18.24 0 0 1-3.916.731" stroke="#4285F4" stroke-width="3.286" stroke-linecap="round" stroke-linejoin="round"/><path d="M361.029 235.968h48.516l23.698-44.41" stroke="#4285F4" stroke-width="3.286" stroke-miterlimit="10"/><path d="M308.841 237.674h6.369a68.638 68.638 0 0 0 13.929-.989 5.296 5.296 0 0 0 3.831-3.154 3.456 3.456 0 0 0-.158-2.509m-133.426 8.358h13.628a38.632 38.632 0 0 0 8.133-.789 28.497 28.497 0 0 0 7.546-2.637 45.343 45.343 0 0 0 12.767-9.877m47.957-75.331a2.464 2.464 0 0 1 1.882-.489 2.45 2.45 0 0 1 1.647 1.034c1.162 1.749.803 4.902.516 6.852a18.89 18.89 0 0 1-3.486 7.856 22.034 22.034 0 0 1-8.607 7.712" stroke="#4285F4" stroke-width="3.286" stroke-linecap="round" stroke-linejoin="round"/></svg>