<svg width="880" height="721" fill="none" xmlns="http://www.w3.org/2000/svg"><path fill="#fff" d="M0 .74h880v720H0z"/><path d="M207.022 125.904H786.75c5.145 0 9.477 4.319 9.477 9.447v442.67c0 5.129-4.332 9.447-9.477 9.447H93.568c-5.145 0-9.477-4.318-9.477-9.447v-442.67c0-5.128 4.332-9.447 9.477-9.447h50.635" fill="#fff"/><path d="M207.022 125.904H786.75c5.145 0 9.477 4.319 9.477 9.447v442.67c0 5.129-4.332 9.447-9.477 9.447H93.568c-5.145 0-9.477-4.318-9.477-9.447v-442.67c0-5.128 4.332-9.447 9.477-9.447h50.635" stroke="#4285F4" stroke-width="6.002" stroke-miterlimit="10" stroke-linejoin="round"/><path d="M144.202 125.904h62.82" stroke="#4285F4" stroke-width="6.648" stroke-miterlimit="10" stroke-linejoin="round"/><path d="M771.858 583.421H108.731c-3.249 0-5.686-2.7-5.686-5.669V236.573c0-3.24 2.708-5.669 5.686-5.669h663.127c3.249 0 5.686 2.699 5.686 5.669v341.179c0 3.239-2.708 5.669-5.686 5.669z" fill="#fff"/><path d="M614.808 595.836h63.902m48.469 0h27.348" stroke="#4285F4" stroke-width="6.002" stroke-miterlimit="10" stroke-linejoin="round"/><path d="M139.328 358.848h275.648c6.769 0 12.456 5.398 12.456 12.416v112.017h-300.56V371.264c0-6.748 5.686-12.416 12.456-12.416z" fill="#A8CBFC"/><path d="M126.872 482.471h300.56v54.254a12.403 12.403 0 0 1-12.456 12.416H139.328c-6.77 0-12.456-5.398-12.456-12.416v-54.254z" fill="#A8CBFC"/><path d="M466.153 358.848h275.648c6.77 0 12.456 5.398 12.456 12.416v112.017h-300.56V371.264a12.403 12.403 0 0 1 12.456-12.416z" fill="#FFE08C"/><path d="M453.697 482.471h300.56v54.254a12.403 12.403 0 0 1-12.456 12.416H466.153c-6.769 0-12.456-5.398-12.456-12.416v-54.254z" fill="#FFE08C"/><path d="M126.062 211.741h192.249m-192.249 73.956h192.249m-192.249 28.072h192.249" stroke="#D2E3FC" stroke-width="6.648" stroke-miterlimit="10" stroke-linejoin="round"/><path d="M223.54 169.903h-97.478v16.195h97.478v-16.195z" fill="#D2E3FC"/><path d="M126.062 254.656H216.5m86.646 0h75.547" stroke="#D2E3FC" stroke-width="6.648" stroke-miterlimit="10" stroke-linejoin="round"/><path d="M295.835 240.622h-62.007v27.262h62.007v-27.262z" fill="#4285F4"/><path d="M244.66 254.656h40.346" stroke="#D2E3FC" stroke-width="6.648" stroke-miterlimit="10" stroke-linejoin="round"/><path d="M743.967 391.238H326.162c-8.935 0-16.246-7.288-16.246-16.196V230.365c0-8.908 7.311-16.195 16.246-16.195h417.805c8.936 0 16.247 7.287 16.247 16.195v144.407c.27 9.178-7.04 16.466-16.247 16.466z" fill="#fff" stroke="#D9DBDF" stroke-width="11.951" stroke-miterlimit="10"/><path d="M390.067 271.936a2.974 2.974 0 0 0 2.979-2.969 2.974 2.974 0 0 0-2.979-2.969 2.973 2.973 0 0 0-2.978 2.969 2.973 2.973 0 0 0 2.978 2.969z" fill="#34A753"/><path d="M381.132 281.923c3.29 0 5.957-2.659 5.957-5.938 0-3.28-2.667-5.939-5.957-5.939s-5.957 2.659-5.957 5.939c0 3.279 2.667 5.938 5.957 5.938z" fill="#E94335"/><path d="M381.132 297.576c3.888 0 7.04-3.142 7.04-7.018s-3.152-7.018-7.04-7.018-7.04 3.142-7.04 7.018 3.152 7.018 7.04 7.018z" fill="#FABB05"/><path d="M361.364 281.921c6.58 0 11.914-5.317 11.914-11.876 0-6.559-5.334-11.877-11.914-11.877s-11.914 5.318-11.914 11.877c0 6.559 5.334 11.876 11.914 11.876z" fill="#4285F4"/><path d="M554.968 247.099H417.686v13.496h137.282v-13.496zm-21.12 43.726H417.686v13.496h116.162v-13.496zm167.88 28.885H417.686v13.496h284.042V319.71zm0 27.532H417.686v13.496h284.042v-13.496zm-57.947-56.417h-95.584v13.496h95.584v-13.496z" fill="#D2E3FC"/></svg>