<svg xmlns="http://www.w3.org/2000/svg" width="20" height="20" viewBox="0 0 20 20">
  <path d="M16.8167 9.0667l-2.55-1.45L11.8833 10l2.3834 2.3833 2.55-1.45c.4583-.2583.6833-.5916.6833-.9333s-.225-.675-.6833-.9333zM3.925 2.0417l7.0167 7.0166 2.125-2.125-8.9167-5.05C4.0917 1.85 4.0333 1.825 3.975 1.8c-.1417-.0583-.25.0417-.125.175.025.0167.05.0417.075.0667zm0 15.9166l-.0667.0667c-.125.125-.0166.2333.125.175.0584-.025.1167-.05.175-.0833l8.9084-5.05-2.125-2.125s-6 6.0083-7.0167 7.0166zM10 10L2.8167 2.8167C2.6583 2.6583 2.5 2.7583 2.5 2.975v14.05c0 .2167.1583.3167.3167.1583L10 10z"/>
</svg>
