<svg xmlns="http://www.w3.org/2000/svg" width="20" height="20" viewBox="0 0 20 20">
  <path d="M7.5 11c2.106 0 6.279 1.034 6.492 3.086l.008.164V17H1v-2.75C1 12.089 5.339 11 7.5 11zm5.901.05c2.21.232 5.405 1.247 5.59 3.036l.009.164V17h-3.5v-2.75l-.01-.241c-.127-1.227-.932-2.22-2.089-2.959zM7.5 13c-.927 0-2.292.26-3.317.671-.447.179-.799.373-1.026.554l-.09.076c-.048.045-.063.053-.067.032V15h9v-.666l-.005.01c-.008.004-.026-.01-.062-.043l-.09-.076c-.227-.18-.58-.375-1.026-.554C9.791 13.261 8.427 13 7.5 13zm5-10C14.425 3 16 4.575 16 6.5S14.425 10 12.5 10c-.432 0-.846-.08-1.229-.224a4.978 4.978 0 00.001-6.552A3.458 3.458 0 0112.5 3zm-5 0C9.425 3 11 4.575 11 6.5S9.425 10 7.5 10 4 8.425 4 6.5 5.575 3 7.5 3zm0 2C6.68 5 6 5.68 6 6.5S6.68 8 7.5 8 9 7.32 9 6.5 8.32 5 7.5 5z"/>
</svg>
