<svg xmlns="http://www.w3.org/2000/svg" width="20" height="20" viewBox="0 0 20 20">
  <path d="M12.5423 9.5472h.7394v1.5094H11V5.0189h1.5423L10.25 2 8 5.0189h1.5v6.0377H7.3662V9.4943c.5176-.2792.8873-.815.8873-1.4566 0-.9132-.732-1.6603-1.6267-1.6603C5.732 6.3774 5 7.1245 5 8.0377c0 .6415.3697 1.1774.8873 1.4566v1.5623c0 .8377.542 1.4434 1.3627 1.4434H9.5V15c-.525.2792-.8028.6981-.8028 1.3396 0 .9208.732 1.6604 1.6267 1.6604.8948 0 1.6268-.7396 1.6268-1.6604 0-.6415-.4257-1.0604-.9507-1.3396v-2.5h2.2817c.8208 0 1.4789-.6057 1.4789-1.4434V9.5472H15.5V6.5283h-2.9577v3.0189z"/>
</svg>
