<?xml version="1.0" encoding="UTF-8"?>
<!--Generator: Apple Native CoreSVG 175-->
<!DOCTYPE svg
PUBLIC "-//W3C//DTD SVG 1.1//EN"
       "http://www.w3.org/Graphics/SVG/1.1/DTD/svg11.dtd">
<svg version="1.1" xmlns="http://www.w3.org/2000/svg" xmlns:xlink="http://www.w3.org/1999/xlink" width="3300" height="2200">
 <!--glyph: "", point size: 100.0, font version: "17.3d3e1", template writer version: "65.1"-->
 <style>.hierarchical-0:secondary {fill:#4D4D4D}
.hierarchical-1:primary {fill:#212121}

.SFSymbolsPreview212121 {fill:#212121;opacity:1.0}
.SFSymbolsPreview4D4D4D {fill:#4D4D4D;opacity:1.0}
</style>
 <g id="Notes">
  <rect height="2200" id="artboard" style="fill:white;opacity:1" width="3300" x="0" y="0"/>
  <line style="fill:none;stroke:black;opacity:1;stroke-width:0.5;" x1="263" x2="3036" y1="292" y2="292"/>
  <text style="stroke:none;fill:black;font-family:sans-serif;font-size:13;font-weight:bold;" transform="matrix(1 0 0 1 263 322)">Weight/Scale Variations</text>
  <text style="stroke:none;fill:black;font-family:sans-serif;font-size:13;text-anchor:middle;" transform="matrix(1 0 0 1 559.711 322)">Ultralight</text>
  <text style="stroke:none;fill:black;font-family:sans-serif;font-size:13;text-anchor:middle;" transform="matrix(1 0 0 1 856.422 322)">Thin</text>
  <text style="stroke:none;fill:black;font-family:sans-serif;font-size:13;text-anchor:middle;" transform="matrix(1 0 0 1 1153.13 322)">Light</text>
  <text style="stroke:none;fill:black;font-family:sans-serif;font-size:13;text-anchor:middle;" transform="matrix(1 0 0 1 1449.84 322)">Regular</text>
  <text style="stroke:none;fill:black;font-family:sans-serif;font-size:13;text-anchor:middle;" transform="matrix(1 0 0 1 1746.56 322)">Medium</text>
  <text style="stroke:none;fill:black;font-family:sans-serif;font-size:13;text-anchor:middle;" transform="matrix(1 0 0 1 2043.27 322)">Semibold</text>
  <text style="stroke:none;fill:black;font-family:sans-serif;font-size:13;text-anchor:middle;" transform="matrix(1 0 0 1 2339.98 322)">Bold</text>
  <text style="stroke:none;fill:black;font-family:sans-serif;font-size:13;text-anchor:middle;" transform="matrix(1 0 0 1 2636.69 322)">Heavy</text>
  <text style="stroke:none;fill:black;font-family:sans-serif;font-size:13;text-anchor:middle;" transform="matrix(1 0 0 1 2933.4 322)">Black</text>
  <line style="fill:none;stroke:black;opacity:1;stroke-width:0.5;" x1="263" x2="3036" y1="1903" y2="1903"/>
  <g transform="matrix(1 0 0 1 263 1933)">
   <path d="M9.24805 0.830078Q10.8691 0.830078 12.2949 0.214844Q13.7207-0.400391 14.8096-1.49414Q15.8984-2.58789 16.5186-4.01367Q17.1387-5.43945 17.1387-7.05078Q17.1387-8.66211 16.5186-10.0879Q15.8984-11.5137 14.8047-12.6074Q13.7109-13.7012 12.2852-14.3164Q10.8594-14.9316 9.23828-14.9316Q7.62695-14.9316 6.20117-14.3164Q4.77539-13.7012 3.69141-12.6074Q2.60742-11.5137 1.9873-10.0879Q1.36719-8.66211 1.36719-7.05078Q1.36719-5.43945 1.9873-4.01367Q2.60742-2.58789 3.69629-1.49414Q4.78516-0.400391 6.21094 0.214844Q7.63672 0.830078 9.24805 0.830078ZM9.24805-0.654297Q7.91992-0.654297 6.7627-1.14746Q5.60547-1.64062 4.73145-2.51953Q3.85742-3.39844 3.36426-4.56055Q2.87109-5.72266 2.87109-7.05078Q2.87109-8.37891 3.35938-9.54102Q3.84766-10.7031 4.72168-11.582Q5.5957-12.4609 6.75293-12.9541Q7.91016-13.4473 9.23828-13.4473Q10.5762-13.4473 11.7334-12.9541Q12.8906-12.4609 13.7695-11.582Q14.6484-10.7031 15.1465-9.54102Q15.6445-8.37891 15.6445-7.05078Q15.6445-5.72266 15.1514-4.56055Q14.6582-3.39844 13.7842-2.51953Q12.9102-1.64062 11.748-1.14746Q10.5859-0.654297 9.24805-0.654297ZM5.6543-7.05078Q5.6543-6.72852 5.85938-6.52832Q6.06445-6.32812 6.40625-6.32812L8.51562-6.32812L8.51562-4.20898Q8.51562-3.88672 8.71094-3.67676Q8.90625-3.4668 9.23828-3.4668Q9.56055-3.4668 9.77051-3.67676Q9.98047-3.88672 9.98047-4.20898L9.98047-6.32812L12.0898-6.32812Q12.4219-6.32812 12.627-6.52832Q12.832-6.72852 12.832-7.05078Q12.832-7.38281 12.627-7.58789Q12.4219-7.79297 12.0898-7.79297L9.98047-7.79297L9.98047-9.90234Q9.98047-10.2344 9.77051-10.4443Q9.56055-10.6543 9.23828-10.6543Q8.90625-10.6543 8.71094-10.4443Q8.51562-10.2344 8.51562-9.90234L8.51562-7.79297L6.40625-7.79297Q6.06445-7.79297 5.85938-7.58789Q5.6543-7.38281 5.6543-7.05078Z"/>
  </g>
  <g transform="matrix(1 0 0 1 281.867 1933)">
   <path d="M11.709 2.91016Q13.75 2.91016 15.5518 2.12891Q17.3535 1.34766 18.7305-0.0292969Q20.1074-1.40625 20.8887-3.20801Q21.6699-5.00977 21.6699-7.05078Q21.6699-9.0918 20.8887-10.8936Q20.1074-12.6953 18.7305-14.0723Q17.3535-15.4492 15.5469-16.2305Q13.7402-17.0117 11.6992-17.0117Q9.6582-17.0117 7.85645-16.2305Q6.05469-15.4492 4.68262-14.0723Q3.31055-12.6953 2.5293-10.8936Q1.74805-9.0918 1.74805-7.05078Q1.74805-5.00977 2.5293-3.20801Q3.31055-1.40625 4.6875-0.0292969Q6.06445 1.34766 7.86621 2.12891Q9.66797 2.91016 11.709 2.91016ZM11.709 1.25Q9.98047 1.25 8.47656 0.605469Q6.97266-0.0390625 5.83496-1.17676Q4.69727-2.31445 4.05762-3.81836Q3.41797-5.32227 3.41797-7.05078Q3.41797-8.7793 4.05762-10.2832Q4.69727-11.7871 5.83008-12.9297Q6.96289-14.0723 8.4668-14.7119Q9.9707-15.3516 11.6992-15.3516Q13.4277-15.3516 14.9316-14.7119Q16.4355-14.0723 17.5781-12.9297Q18.7207-11.7871 19.3652-10.2832Q20.0098-8.7793 20.0098-7.05078Q20.0098-5.32227 19.3701-3.81836Q18.7305-2.31445 17.5928-1.17676Q16.4551-0.0390625 14.9463 0.605469Q13.4375 1.25 11.709 1.25ZM7.17773-7.05078Q7.17773-6.69922 7.41211-6.47461Q7.64648-6.25 8.01758-6.25L10.8887-6.25L10.8887-3.36914Q10.8887-2.99805 11.1133-2.76855Q11.3379-2.53906 11.6895-2.53906Q12.0605-2.53906 12.29-2.76855Q12.5195-2.99805 12.5195-3.36914L12.5195-6.25L15.4004-6.25Q15.7715-6.25 16.001-6.47461Q16.2305-6.69922 16.2305-7.05078Q16.2305-7.42188 16.001-7.65137Q15.7715-7.88086 15.4004-7.88086L12.5195-7.88086L12.5195-10.752Q12.5195-11.1328 12.29-11.3623Q12.0605-11.5918 11.6895-11.5918Q11.3379-11.5918 11.1133-11.3574Q10.8887-11.123 10.8887-10.752L10.8887-7.88086L8.01758-7.88086Q7.63672-7.88086 7.40723-7.65137Q7.17773-7.42188 7.17773-7.05078Z"/>
  </g>
  <g transform="matrix(1 0 0 1 305.646 1933)">
   <path d="M14.9707 5.66406Q17.0605 5.66406 18.96 5.01465Q20.8594 4.36523 22.4512 3.19336Q24.043 2.02148 25.2197 0.429688Q26.3965-1.16211 27.0459-3.06641Q27.6953-4.9707 27.6953-7.05078Q27.6953-9.14062 27.0459-11.04Q26.3965-12.9395 25.2197-14.5312Q24.043-16.123 22.4512-17.2998Q20.8594-18.4766 18.9551-19.126Q17.0508-19.7754 14.9609-19.7754Q12.8711-19.7754 10.9717-19.126Q9.07227-18.4766 7.48535-17.2998Q5.89844-16.123 4.72168-14.5312Q3.54492-12.9395 2.90039-11.04Q2.25586-9.14062 2.25586-7.05078Q2.25586-4.9707 2.90527-3.06641Q3.55469-1.16211 4.72656 0.429688Q5.89844 2.02148 7.49023 3.19336Q9.08203 4.36523 10.9814 5.01465Q12.8809 5.66406 14.9707 5.66406ZM14.9707 3.84766Q13.1641 3.84766 11.5283 3.2959Q9.89258 2.74414 8.53516 1.74805Q7.17773 0.751953 6.17676-0.610352Q5.17578-1.97266 4.62891-3.6084Q4.08203-5.24414 4.08203-7.05078Q4.08203-8.86719 4.62891-10.5029Q5.17578-12.1387 6.17188-13.501Q7.16797-14.8633 8.52539-15.8594Q9.88281-16.8555 11.5186-17.4023Q13.1543-17.9492 14.9609-17.9492Q16.7773-17.9492 18.4131-17.4023Q20.0488-16.8555 21.4111-15.8594Q22.7734-14.8633 23.7695-13.501Q24.7656-12.1387 25.3174-10.5029Q25.8691-8.86719 25.8691-7.05078Q25.8789-5.24414 25.332-3.6084Q24.7852-1.97266 23.7842-0.610352Q22.7832 0.751953 21.4209 1.74805Q20.0586 2.74414 18.4229 3.2959Q16.7871 3.84766 14.9707 3.84766ZM9.19922-7.05078Q9.19922-6.66992 9.45801-6.4209Q9.7168-6.17188 10.1172-6.17188L14.0625-6.17188L14.0625-2.2168Q14.0625-1.81641 14.3115-1.55762Q14.5605-1.29883 14.9512-1.29883Q15.3516-1.29883 15.6104-1.55273Q15.8691-1.80664 15.8691-2.2168L15.8691-6.17188L19.8242-6.17188Q20.2246-6.17188 20.4785-6.4209Q20.7324-6.66992 20.7324-7.05078Q20.7324-7.46094 20.4785-7.71484Q20.2246-7.96875 19.8242-7.96875L15.8691-7.96875L15.8691-11.9141Q15.8691-12.3242 15.6104-12.583Q15.3516-12.8418 14.9512-12.8418Q14.5605-12.8418 14.3115-12.583Q14.0625-12.3242 14.0625-11.9141L14.0625-7.96875L10.1172-7.96875Q9.70703-7.96875 9.45312-7.71484Q9.19922-7.46094 9.19922-7.05078Z"/>
  </g>
  <text style="stroke:none;fill:black;font-family:sans-serif;font-size:13;font-weight:bold;" transform="matrix(1 0 0 1 263 1953)">Design Variations</text>
  <text style="stroke:none;fill:black;font-family:sans-serif;font-size:13;" transform="matrix(1 0 0 1 263 1971)">Symbols are supported in up to nine weights and three scales.</text>
  <text style="stroke:none;fill:black;font-family:sans-serif;font-size:13;" transform="matrix(1 0 0 1 263 1989)">For optimal layout with text and other symbols, vertically align</text>
  <text style="stroke:none;fill:black;font-family:sans-serif;font-size:13;" transform="matrix(1 0 0 1 263 2007)">symbols with the adjacent text.</text>
  <line style="fill:none;stroke:#00AEEF;stroke-width:0.5;opacity:1.0;" x1="776" x2="776" y1="1919" y2="1933"/>
  <g transform="matrix(1 0 0 1 776 1933)">
   <path d="M3.31055 0.15625Q3.70117 0.15625 3.91602-0.00976562Q4.13086-0.175781 4.26758-0.585938L5.52734-4.0332L11.2891-4.0332L12.5488-0.585938Q12.6855-0.175781 12.9004-0.00976562Q13.1152 0.15625 13.4961 0.15625Q13.8867 0.15625 14.1162-0.0585938Q14.3457-0.273438 14.3457-0.644531Q14.3457-0.869141 14.2383-1.17188L9.6582-13.3691Q9.48242-13.8184 9.17969-14.043Q8.87695-14.2676 8.4082-14.2676Q7.5-14.2676 7.17773-13.3789L2.59766-1.16211Q2.49023-0.859375 2.49023-0.634766Q2.49023-0.263672 2.70996-0.0537109Q2.92969 0.15625 3.31055 0.15625ZM6.00586-5.51758L8.37891-12.0898L8.42773-12.0898L10.8008-5.51758Z"/>
  </g>
  <line style="fill:none;stroke:#00AEEF;stroke-width:0.5;opacity:1.0;" x1="793.197" x2="793.197" y1="1919" y2="1933"/>
  <text style="stroke:none;fill:black;font-family:sans-serif;font-size:13;font-weight:bold;" transform="matrix(1 0 0 1 776 1953)">Margins</text>
  <text style="stroke:none;fill:black;font-family:sans-serif;font-size:13;" transform="matrix(1 0 0 1 776 1971)">Leading and trailing margins on the left and right side of each symbol</text>
  <text style="stroke:none;fill:black;font-family:sans-serif;font-size:13;" transform="matrix(1 0 0 1 776 1989)">can be adjusted by modifying the x-location of the margin guidelines.</text>
  <text style="stroke:none;fill:black;font-family:sans-serif;font-size:13;" transform="matrix(1 0 0 1 776 2007)">Modifications are automatically applied proportionally to all</text>
  <text style="stroke:none;fill:black;font-family:sans-serif;font-size:13;" transform="matrix(1 0 0 1 776 2025)">scales and weights.</text>
  <g transform="matrix(1 0 0 1 1289 1933)">
   <path d="M2.8418 1.86523L4.54102 3.57422Q5.18555 4.22852 5.90332 4.17969Q6.62109 4.13086 7.31445 3.35938L18.0078-8.42773L17.041-9.4043L6.42578 2.27539Q6.16211 2.57812 5.89355 2.61719Q5.625 2.65625 5.27344 2.30469L4.10156 1.14258Q3.75 0.791016 3.79395 0.522461Q3.83789 0.253906 4.14062-0.0195312L15.6152-10.8203L14.6387-11.7871L3.04688-0.898438Q2.30469-0.214844 2.25098 0.498047Q2.19727 1.21094 2.8418 1.86523ZM9.25781-16.3281Q8.94531-16.0254 8.90625-15.6348Q8.86719-15.2441 9.04297-14.9512Q9.21875-14.6777 9.55566-14.541Q9.89258-14.4043 10.3809-14.5215Q11.4746-14.7754 12.5977-14.7314Q13.7207-14.6875 14.7949-13.9844L14.209-12.5293Q13.9551-11.9043 14.0674-11.4404Q14.1797-10.9766 14.5801-10.5664L16.875-8.25195Q17.2363-7.88086 17.5781-7.82227Q17.9199-7.76367 18.3398-7.8418L19.4043-8.03711L20.0684-7.36328L20.0293-6.80664Q20-6.43555 20.1221-6.12305Q20.2441-5.81055 20.6055-5.44922L21.3672-4.70703Q21.7285-4.3457 22.1533-4.33105Q22.5781-4.31641 22.9297-4.66797L25.8398-7.58789Q26.1914-7.93945 26.1816-8.35449Q26.1719-8.76953 25.8105-9.13086L25.0391-9.89258Q24.6875-10.2539 24.3799-10.3857Q24.0723-10.5176 23.7109-10.4883L23.1348-10.4395L22.4902-11.0742L22.7344-12.1973Q22.832-12.6172 22.6953-12.9834Q22.5586-13.3496 22.1191-13.7891L19.9219-15.9766Q18.6719-17.2168 17.2607-17.8369Q15.8496-18.457 14.4189-18.4814Q12.9883-18.5059 11.665-17.959Q10.3418-17.4121 9.25781-16.3281ZM10.752-15.957Q11.6602-16.6211 12.7002-16.9043Q13.7402-17.1875 14.8047-17.085Q15.8691-16.9824 16.8701-16.5137Q17.8711-16.0449 18.7012-15.2051L21.1328-12.793Q21.3086-12.6172 21.3525-12.4512Q21.3965-12.2852 21.3379-12.0312L21.0156-10.5469L22.5195-9.0625L23.5059-9.12109Q23.6914-9.13086 23.7891-9.09668Q23.8867-9.0625 24.0332-8.91602L24.6094-8.33984L22.168-5.89844L21.5918-6.47461Q21.4453-6.62109 21.4062-6.71875Q21.3672-6.81641 21.377-7.01172L21.4453-7.98828L19.9512-9.47266L18.4277-9.21875Q18.1836-9.16992 18.042-9.2041Q17.9004-9.23828 17.7148-9.41406L15.7129-11.416Q15.5176-11.5918 15.4932-11.7529Q15.4688-11.9141 15.5859-12.1875L16.4648-14.2773Q15.293-15.3711 13.8281-15.791Q12.3633-16.2109 10.8398-15.7617Q10.7227-15.7324 10.6885-15.8057Q10.6543-15.8789 10.752-15.957Z"/>
  </g>
  <text style="stroke:none;fill:black;font-family:sans-serif;font-size:13;font-weight:bold;" transform="matrix(1 0 0 1 1289 1953)">Exporting</text>
  <text style="stroke:none;fill:black;font-family:sans-serif;font-size:13;" transform="matrix(1 0 0 1 1289 1971)">Symbols should be outlined when exporting to ensure the</text>
  <text style="stroke:none;fill:black;font-family:sans-serif;font-size:13;" transform="matrix(1 0 0 1 1289 1989)">design is preserved when submitting to Xcode.</text>
  <text id="template-version" style="stroke:none;fill:black;font-family:sans-serif;font-size:13;text-anchor:end;" transform="matrix(1 0 0 1 3036 1933)">Template v.3.0</text>
  <text style="stroke:none;fill:black;font-family:sans-serif;font-size:13;text-anchor:end;" transform="matrix(1 0 0 1 3036 1951)">Requires Xcode 13 or greater</text>
  <text id="descriptive-name" style="stroke:none;fill:black;font-family:sans-serif;font-size:13;text-anchor:end;" transform="matrix(1 0 0 1 3036 1969)">Generated from plus.circle.fill.cr</text>
  <text style="stroke:none;fill:black;font-family:sans-serif;font-size:13;text-anchor:end;" transform="matrix(1 0 0 1 3036 1987)">Typeset at 100 points</text>
  <text style="stroke:none;fill:black;font-family:sans-serif;font-size:13;" transform="matrix(1 0 0 1 263 726)">Small</text>
  <text style="stroke:none;fill:black;font-family:sans-serif;font-size:13;" transform="matrix(1 0 0 1 263 1156)">Medium</text>
  <text style="stroke:none;fill:black;font-family:sans-serif;font-size:13;" transform="matrix(1 0 0 1 263 1586)">Large</text>
 </g>
 <g id="Guides">
  <g id="H-reference" style="fill:#27AAE1;stroke:none;" transform="matrix(1 0 0 1 339 696)">
   <path d="M0.993347 0L3.6377 0L29.3282-67.1326L30.0301-67.1326L30.0301-70.459L28.1227-70.459ZM11.6882-24.4797L46.9818-24.4797L46.2311-26.7288L12.4382-26.7288ZM55.1193 0L57.7637 0L30.6381-70.459L29.4327-70.459L29.4327-67.1326Z"/>
  </g>
  <line id="Baseline-S" style="fill:none;stroke:#27AAE1;opacity:1;stroke-width:0.5;" x1="263" x2="3036" y1="696" y2="696"/>
  <line id="Capline-S" style="fill:none;stroke:#27AAE1;opacity:1;stroke-width:0.5;" x1="263" x2="3036" y1="625.541" y2="625.541"/>
  <g id="H-reference" style="fill:#27AAE1;stroke:none;" transform="matrix(1 0 0 1 339 1126)">
   <path d="M0.993347 0L3.6377 0L29.3282-67.1326L30.0301-67.1326L30.0301-70.459L28.1227-70.459ZM11.6882-24.4797L46.9818-24.4797L46.2311-26.7288L12.4382-26.7288ZM55.1193 0L57.7637 0L30.6381-70.459L29.4327-70.459L29.4327-67.1326Z"/>
  </g>
  <line id="Baseline-M" style="fill:none;stroke:#27AAE1;opacity:1;stroke-width:0.5;" x1="263" x2="3036" y1="1126" y2="1126"/>
  <line id="Capline-M" style="fill:none;stroke:#27AAE1;opacity:1;stroke-width:0.5;" x1="263" x2="3036" y1="1055.54" y2="1055.54"/>
  <g id="H-reference" style="fill:#27AAE1;stroke:none;" transform="matrix(1 0 0 1 339 1556)">
   <path d="M0.993347 0L3.6377 0L29.3282-67.1326L30.0301-67.1326L30.0301-70.459L28.1227-70.459ZM11.6882-24.4797L46.9818-24.4797L46.2311-26.7288L12.4382-26.7288ZM55.1193 0L57.7637 0L30.6381-70.459L29.4327-70.459L29.4327-67.1326Z"/>
  </g>
  <line id="Baseline-L" style="fill:none;stroke:#27AAE1;opacity:1;stroke-width:0.5;" x1="263" x2="3036" y1="1556" y2="1556"/>
  <line id="Capline-L" style="fill:none;stroke:#27AAE1;opacity:1;stroke-width:0.5;" x1="263" x2="3036" y1="1485.54" y2="1485.54"/>
  <line id="left-margin-Regular-M" style="fill:none;stroke:#FF3B30;stroke-width:0.5;opacity:1.0;" x1="1374.84" x2="1374.84" y1="1030.78" y2="1150.12"/>
  <line id="right-margin-Regular-M" style="fill:none;stroke:#FF3B30;stroke-width:0.5;opacity:1.0;" x1="1524.84" x2="1524.84" y1="1030.78" y2="1150.12"/>
 </g>
 <g id="Symbols">
  <g id="Black-L" transform="matrix(1 0 0 1 2843.4 1556)">
   <path class="hierarchical-0:secondary SFSymbolsPreview4D4D4D" d="M124.7 47.29C113.85 52 102.26 54.35 89.96 54.35C77.65 54.35 66.07 52 55.21 47.29C44.35 42.65 34.78 36.17 26.47 27.86C18.23 19.56 11.76 9.97 7.05-0.89C2.35-11.75 0-23.34 0-35.65C0-47.96 2.35-59.55 7.05-70.41C11.76-81.27 18.23-90.83 26.47-99.08C34.78-107.38 44.33-113.89 55.12-118.59C65.98-123.3 77.56-125.65 89.87-125.65C102.24-125.65 113.85-123.3 124.7-118.59C135.56-113.89 145.14-107.38 153.44-99.08C161.74-90.83 168.24-81.27 172.95-70.41C177.65-59.55 180-47.96 180-35.65C180-23.34 177.65-11.75 172.95-0.89C168.24 9.97 161.74 19.56 153.44 27.86C145.14 36.17 135.56 42.65 124.7 47.29Z"/>
   <path class="hierarchical-1:primary SFSymbolsPreview212121" d="M79.34-7.83C79.34-1.75 84.26 3.17 90.34 3.17C96.42 3.17 101.34-1.75 101.34-7.83L101.34-24.67L118.17-24.67C124.25-24.67 129.17-29.59 129.17-35.67C129.17-41.74 124.25-46.67 118.17-46.67L101.34-46.67L101.34-63.5C101.34-69.58 96.42-74.5 90.34-74.5C84.26-74.5 79.34-69.58 79.34-63.5L79.34-46.67L62.5-46.67C56.43-46.67 51.5-41.74 51.5-35.67C51.5-29.59 56.43-24.67 62.5-24.67L79.34-24.67L79.34-7.83Z"/>
  </g>
  <g id="Heavy-L" transform="matrix(1 0 0 1 2545.69 1556)">
   <path class="hierarchical-0:secondary SFSymbolsPreview4D4D4D" d="M126.09 48.26C115.11 53.02 103.4 55.4 90.96 55.4C78.51 55.4 66.8 53.02 55.82 48.26C44.85 43.57 35.16 37.02 26.77 28.62C18.43 20.22 11.89 10.53 7.13-0.45C2.38-11.43 0-23.15 0-35.6C0-48.05 2.38-59.77 7.13-70.75C11.89-81.73 18.43-91.39 26.77-99.73C35.16-108.13 44.82-114.71 55.74-119.46C66.71-124.22 78.42-126.6 90.87-126.6C103.37-126.6 115.11-124.22 126.09-119.46C137.07-114.71 146.75-108.13 155.14-99.73C163.54-91.39 170.11-81.73 174.87-70.75C179.62-59.77 182-48.05 182-35.6C182-23.15 179.62-11.43 174.87-0.45C170.11 10.53 163.54 20.22 155.14 28.62C146.75 37.02 137.07 43.57 126.09 48.26Z"/>
   <path class="hierarchical-1:primary SFSymbolsPreview212121" d="M81.84-7.83C81.84-2.58 86.09 1.67 91.34 1.67C96.59 1.67 100.84-2.58 100.84-7.83L100.84-26.17L119.17-26.17C124.42-26.17 128.67-30.42 128.67-35.67C128.67-40.91 124.42-45.17 119.17-45.17L100.84-45.17L100.84-63.5C100.84-68.75 96.59-73 91.34-73C86.09-73 81.84-68.75 81.84-63.5L81.84-45.17L63.5-45.17C58.25-45.17 54-40.91 54-35.67C54-30.42 58.25-26.17 63.5-26.17L81.84-26.17L81.84-7.83Z"/>
  </g>
  <g id="Bold-L" transform="matrix(1 0 0 1 2249.98 1556)">
   <path class="hierarchical-0:secondary SFSymbolsPreview4D4D4D" d="M124.7 47.74C113.85 52.45 102.26 54.8 89.96 54.8C77.65 54.8 66.07 52.45 55.21 47.74C44.35 43.1 34.78 36.62 26.47 28.31C18.23 20.01 11.76 10.42 7.05-0.44C2.35-11.3 0-22.89 0-35.2C0-47.51 2.35-59.1 7.05-69.96C11.76-80.83 18.23-90.38 26.47-98.63C34.78-106.93 44.33-113.44 55.12-118.14C65.98-122.85 77.56-125.2 89.87-125.2C102.24-125.2 113.85-122.85 124.7-118.14C135.56-113.44 145.14-106.93 153.44-98.63C161.74-90.38 168.24-80.83 172.95-69.96C177.65-59.1 180-47.51 180-35.2C180-22.89 177.65-11.3 172.95-0.44C168.24 10.42 161.74 20.01 153.44 28.31C145.14 36.62 135.56 43.1 124.7 47.74Z"/>
   <path class="hierarchical-1:primary SFSymbolsPreview212121" d="M81.99-7.33C81.99-2.91 85.57 0.67 89.99 0.67C94.41 0.67 97.99-2.91 97.99-7.33L97.99-27.17L117.82-27.17C122.24-27.17 125.82-30.75 125.82-35.17C125.82-39.59 122.24-43.17 117.82-43.17L97.99-43.17L97.99-63C97.99-67.42 94.41-71 89.99-71C85.57-71 81.99-67.42 81.99-63L81.99-43.17L62.15-43.17C57.73-43.17 54.15-39.59 54.15-35.17C54.15-30.75 57.73-27.17 62.15-27.17L81.99-27.17L81.99-7.33Z"/>
  </g>
  <g id="Semibold-L" transform="matrix(1 0 0 1 1953.27 1556)">
   <path class="hierarchical-0:secondary SFSymbolsPreview4D4D4D" d="M124.7 47.44C113.85 52.15 102.26 54.5 89.96 54.5C77.65 54.5 66.07 52.15 55.21 47.44C44.35 42.8 34.78 36.32 26.47 28.01C18.23 19.71 11.76 10.12 7.05-0.74C2.35-11.6 0-23.19 0-35.5C0-47.81 2.35-59.4 7.05-70.26C11.76-81.12 18.23-90.68 26.47-98.93C34.78-107.23 44.33-113.74 55.12-118.44C65.98-123.15 77.56-125.5 89.87-125.5C102.24-125.5 113.85-123.15 124.7-118.44C135.56-113.74 145.14-107.23 153.44-98.93C161.74-90.68 168.24-81.12 172.95-70.26C177.65-59.4 180-47.81 180-35.5C180-23.19 177.65-11.6 172.95-0.74C168.24 10.12 161.74 19.71 153.44 28.01C145.14 36.32 135.56 42.8 124.7 47.44Z"/>
   <path class="hierarchical-1:primary SFSymbolsPreview212121" d="M83.34-7.63C83.34-4.04 86.25-1.13 89.84-1.13C93.43-1.13 96.34-4.04 96.34-7.63L96.34-28.97L117.67-28.97C121.26-28.97 124.17-31.88 124.17-35.47C124.17-39.06 121.26-41.97 117.67-41.97L96.34-41.97L96.34-63.3C96.34-66.89 93.43-69.8 89.84-69.8C86.25-69.8 83.34-66.89 83.34-63.3L83.34-41.97L62-41.97C58.41-41.97 55.5-39.06 55.5-35.47C55.5-31.88 58.41-28.97 62-28.97L83.34-28.97L83.34-7.63Z"/>
  </g>
  <g id="Medium-L" transform="matrix(1 0 0 1 1656.56 1556)">
   <path class="hierarchical-0:secondary SFSymbolsPreview4D4D4D" d="M124.7 47.44C113.85 52.15 102.26 54.5 89.96 54.5C77.65 54.5 66.07 52.15 55.21 47.44C44.35 42.8 34.78 36.32 26.47 28.01C18.23 19.71 11.76 10.12 7.05-0.74C2.35-11.6 0-23.19 0-35.5C0-47.81 2.35-59.4 7.05-70.26C11.76-81.12 18.23-90.68 26.47-98.93C34.78-107.23 44.33-113.74 55.12-118.44C65.98-123.15 77.56-125.5 89.87-125.5C102.24-125.5 113.85-123.15 124.7-118.44C135.56-113.74 145.14-107.23 153.44-98.93C161.74-90.68 168.24-81.12 172.95-70.26C177.65-59.4 180-47.81 180-35.5C180-23.19 177.65-11.6 172.95-0.74C168.24 10.12 161.74 19.71 153.44 28.01C145.14 36.32 135.56 42.8 124.7 47.44Z"/>
   <path class="hierarchical-1:primary SFSymbolsPreview212121" d="M84.34-7.63C84.34-4.43 86.94-1.83 90.14-1.83C93.34-1.83 95.94-4.43 95.94-7.63L95.94-29.67L117.97-29.67C121.17-29.67 123.77-32.26 123.77-35.47C123.77-38.67 121.17-41.27 117.97-41.27L95.94-41.27L95.94-63.3C95.94-66.5 93.34-69.1 90.14-69.1C86.94-69.1 84.34-66.5 84.34-63.3L84.34-41.27L62.3-41.27C59.1-41.27 56.5-38.67 56.5-35.47C56.5-32.26 59.1-29.67 62.3-29.67L84.34-29.67L84.34-7.63Z"/>
  </g>
  <g id="Regular-L" transform="matrix(1 0 0 1 1359.84 1556)">
   <path class="hierarchical-0:secondary SFSymbolsPreview4D4D4D" d="M124.7 47.74C113.85 52.45 102.26 54.8 89.96 54.8C77.65 54.8 66.07 52.45 55.21 47.74C44.35 43.1 34.77 36.62 26.47 28.31C18.23 20.01 11.76 10.43 7.05-0.44C2.35-11.3 0-22.89 0-35.2C0-47.51 2.35-59.1 7.05-69.96C11.76-80.82 18.23-90.38 26.47-98.63C34.77-106.93 44.32-113.44 55.12-118.14C65.98-122.85 77.56-125.2 89.87-125.2C102.23-125.2 113.85-122.85 124.7-118.14C135.56-113.44 145.14-106.93 153.44-98.63C161.74-90.38 168.24-80.82 172.95-69.96C177.65-59.1 180-47.51 180-35.2C180-22.89 177.65-11.3 172.95-0.44C168.24 10.43 161.74 20.01 153.44 28.31C145.14 36.62 135.56 43.1 124.7 47.74Z"/>
   <path class="hierarchical-1:primary SFSymbolsPreview212121" d="M85.34-7.38C85.34-4.7 87.51-2.53 90.19-2.53C92.87-2.53 95.04-4.7 95.04-7.38L95.04-30.15L117.67-30.15C120.35-30.15 122.52-32.32 122.52-35C122.52-37.68 120.35-39.85 117.67-39.85L95.04-39.85L95.04-63.05C95.04-65.73 92.87-67.9 90.19-67.9C87.51-67.9 85.34-65.73 85.34-63.05L85.34-39.85L62-39.85C59.32-39.85 57.15-37.68 57.15-35C57.15-32.32 59.32-30.15 62-30.15L85.34-30.15L85.34-7.38Z"/>
  </g>
  <g id="Light-L" transform="matrix(1 0 0 1 1063.13 1556)">
   <path class="hierarchical-0:secondary SFSymbolsPreview4D4D4D" d="M124.7 46.94C113.85 51.65 102.26 54 89.96 54C77.65 54 66.07 51.65 55.21 46.94C44.35 42.3 34.78 35.82 26.47 27.51C18.23 19.21 11.76 9.62 7.05-1.24C2.35-12.1 0-23.69 0-36C0-48.31 2.35-59.9 7.05-70.76C11.76-81.62 18.23-91.18 26.47-99.43C34.78-107.73 44.33-114.24 55.12-118.94C65.98-123.65 77.56-126 89.87-126C102.24-126 113.85-123.65 124.7-118.94C135.56-114.24 145.14-107.73 153.44-99.43C161.74-91.18 168.24-81.62 172.95-70.76C177.65-59.9 180-48.31 180-36C180-23.69 177.65-12.1 172.95-1.24C168.24 9.62 161.74 19.21 153.44 27.51C145.14 35.82 135.56 42.3 124.7 46.94Z"/>
   <path class="hierarchical-1:primary SFSymbolsPreview212121" d="M86.84-8.03C86.84-6.21 88.32-4.73 90.14-4.73C91.96-4.73 93.44-6.21 93.44-8.03L93.44-32.57L117.97-32.57C119.79-32.57 121.27-34.05 121.27-35.87C121.27-37.69 119.79-39.17 117.97-39.17L93.44-39.17L93.44-63.7C93.44-65.52 91.96-67 90.14-67C88.32-67 86.84-65.52 86.84-63.7L86.84-39.17L62.3-39.17C60.48-39.17 59-37.69 59-35.87C59-34.05 60.48-32.57 62.3-32.57L86.84-32.57L86.84-8.03Z"/>
  </g>
  <g id="Thin-L" transform="matrix(1 0 0 1 766.422 1556)">
   <path class="hierarchical-0:secondary SFSymbolsPreview4D4D4D" d="M124.702 45.34C113.846 50.05 102.264 52.4 89.956 52.4C77.649 52.4 66.067 50.05 55.21 45.34C44.354 40.7 34.775 34.22 26.473 25.91C18.229 17.61 11.756 8.02 7.054-2.84C2.351-13.7 0-25.29 0-37.6C0-49.91 2.351-61.5 7.054-72.36C11.756-83.22 18.229-92.78 26.473-101.03C34.775-109.33 44.325-115.84 55.123-120.54C65.98-125.25 77.562-127.6 89.869-127.6C102.235-127.6 113.846-125.25 124.702-120.54C135.559-115.84 145.138-109.33 153.44-101.03C161.742-92.78 168.244-83.22 172.946-72.36C177.649-61.5 180-49.91 180-37.6C180-25.29 177.649-13.7 172.946-2.84C168.244 8.02 161.742 17.61 153.44 25.91C145.138 34.22 135.559 40.7 124.702 45.34Z"/>
   <path class="hierarchical-1:primary SFSymbolsPreview212121" d="M87.64-9.78C87.64-8.68 88.535-7.78 89.64-7.78C90.744-7.78 91.64-8.68 91.64-9.78L91.64-35.62L117.47-35.62C118.574-35.62 119.47-36.51 119.47-37.62C119.47-38.72 118.574-39.62 117.47-39.62L91.64-39.62L91.64-65.45C91.64-66.56 90.744-67.45 89.64-67.45C88.535-67.45 87.64-66.56 87.64-65.45L87.64-39.62L61.8-39.62C60.695-39.62 59.8-38.72 59.8-37.62C59.8-36.51 60.695-35.62 61.8-35.62L87.64-35.62L87.64-9.78Z"/>
  </g>
  <g id="Ultralight-L" transform="matrix(1 0 0 1 469.711 1556)">
   <path class="hierarchical-0:secondary SFSymbolsPreview4D4D4D" d="M124.702 47.94C113.846 52.65 102.264 55 89.956 55C77.649 55 66.067 52.65 55.21 47.94C44.354 43.3 34.775 36.82 26.473 28.51C18.229 20.21 11.756 10.62 7.054-0.24C2.351-11.1 0-22.69 0-35C0-47.31 2.351-58.9 7.054-69.76C11.756-80.62 18.229-90.18 26.473-98.43C34.775-106.73 44.325-113.24 55.123-117.94C65.98-122.65 77.562-125 89.869-125C102.235-125 113.846-122.65 124.702-117.94C135.559-113.24 145.138-106.73 153.44-98.43C161.742-90.18 168.244-80.62 172.946-69.76C177.649-58.9 180-47.31 180-35C180-22.69 177.649-11.1 172.946-0.24C168.244 10.62 161.742 20.21 153.44 28.51C145.138 36.82 135.559 43.3 124.702 47.94Z"/>
   <path class="hierarchical-1:primary SFSymbolsPreview212121" d="M88.875-7.46C88.875-6.84 89.379-6.33 90-6.33C90.621-6.33 91.125-6.84 91.125-7.46L91.125-34.17L117.83-34.17C118.451-34.17 118.955-34.68 118.955-35.3C118.955-35.92 118.451-36.42 117.83-36.42L91.125-36.42L91.125-63.13C91.125-63.75 90.621-64.25 90-64.25C89.379-64.25 88.875-63.75 88.875-63.13L88.875-36.42L62.16-36.42C61.539-36.42 61.035-35.92 61.035-35.3C61.035-34.68 61.539-34.17 62.16-34.17L88.875-34.17L88.875-7.46Z"/>
  </g>
  <g id="Black-M" transform="matrix(1 0 0 1 2858.4 1126)">
   <path class="hierarchical-0:secondary SFSymbolsPreview4D4D4D" d="M103.92 34.32C94.87 38.24 85.22 40.2 74.96 40.2C64.71 40.2 55.06 38.24 46.01 34.32C36.96 30.45 28.98 25.05 22.06 18.13C15.19 11.21 9.8 3.22 5.88-5.83C1.96-14.88 0-24.54 0-34.8C0-45.06 1.96-54.72 5.88-63.77C9.8-72.82 15.19-80.78 22.06-87.65C28.98-94.58 36.94-100 45.94-103.92C54.98-107.84 64.63-109.8 74.89-109.8C85.2-109.8 94.87-107.84 103.92-103.92C112.97-100 120.95-94.58 127.87-87.65C134.78-80.78 140.2-72.82 144.12-63.77C148.04-54.72 150-45.06 150-34.8C150-24.54 148.04-14.88 144.12-5.83C140.2 3.22 134.78 11.21 127.87 18.13C120.95 25.05 112.97 30.45 103.92 34.32Z"/>
   <path class="hierarchical-1:primary SFSymbolsPreview212121" d="M65.5-6.96C65.5-1.71 69.75 2.54 75 2.54C80.25 2.54 84.5-1.71 84.5-6.96L84.5-25.3L102.83-25.3C108.08-25.3 112.33-29.55 112.33-34.8C112.33-40.05 108.08-44.3 102.83-44.3L84.5-44.3L84.5-62.63C84.5-67.88 80.25-72.13 75-72.13C69.75-72.13 65.5-67.88 65.5-62.63L65.5-44.3L47.16-44.3C41.91-44.3 37.66-40.05 37.66-34.8C37.66-29.55 41.91-25.3 47.16-25.3L65.5-25.3L65.5-6.96Z"/>
  </g>
  <g id="Heavy-M" transform="matrix(1 0 0 1 2561.69 1126)">
   <path class="hierarchical-0:secondary SFSymbolsPreview4D4D4D" d="M103.92 34.32C94.87 38.24 85.22 40.2 74.96 40.2C64.71 40.2 55.06 38.24 46.01 34.32C36.96 30.45 28.98 25.05 22.06 18.13C15.19 11.21 9.8 3.22 5.88-5.83C1.96-14.88 0-24.54 0-34.8C0-45.06 1.96-54.72 5.88-63.77C9.8-72.82 15.19-80.78 22.06-87.65C28.98-94.58 36.94-100 45.94-103.92C54.98-107.84 64.63-109.8 74.89-109.8C85.2-109.8 94.87-107.84 103.92-103.92C112.97-100 120.95-94.58 127.87-87.65C134.78-80.78 140.2-72.82 144.12-63.77C148.04-54.72 150-45.06 150-34.8C150-24.54 148.04-14.88 144.12-5.83C140.2 3.22 134.78 11.21 127.87 18.13C120.95 25.05 112.97 30.45 103.92 34.32Z"/>
   <path class="hierarchical-1:primary SFSymbolsPreview212121" d="M66.5-6.96C66.5-2.27 70.31 1.54 75 1.54C79.69 1.54 83.5-2.27 83.5-6.96L83.5-26.3L102.83-26.3C107.52-26.3 111.33-30.1 111.33-34.8C111.33-39.49 107.52-43.3 102.83-43.3L83.5-43.3L83.5-62.63C83.5-67.33 79.69-71.13 75-71.13C70.31-71.13 66.5-67.33 66.5-62.63L66.5-43.3L47.16-43.3C42.47-43.3 38.66-39.49 38.66-34.8C38.66-30.1 42.47-26.3 47.16-26.3L66.5-26.3L66.5-6.96Z"/>
  </g>
  <g id="Bold-M" transform="matrix(1 0 0 1 2264.98 1126)">
   <path class="hierarchical-0:secondary SFSymbolsPreview4D4D4D" d="M103.92 34.32C94.87 38.24 85.22 40.2 74.96 40.2C64.71 40.2 55.06 38.24 46.01 34.32C36.96 30.45 28.98 25.05 22.06 18.13C15.19 11.21 9.8 3.22 5.88-5.83C1.96-14.88 0-24.54 0-34.8C0-45.06 1.96-54.72 5.88-63.77C9.8-72.82 15.19-80.78 22.06-87.65C28.98-94.58 36.94-100 45.94-103.92C54.98-107.84 64.63-109.8 74.89-109.8C85.2-109.8 94.87-107.84 103.92-103.92C112.97-100 120.95-94.58 127.87-87.65C134.78-80.78 140.2-72.82 144.12-63.77C148.04-54.72 150-45.06 150-34.8C150-24.54 148.04-14.88 144.12-5.83C140.2 3.22 134.78 11.21 127.87 18.13C120.95 25.05 112.97 30.45 103.92 34.32Z"/>
   <path class="hierarchical-1:primary SFSymbolsPreview212121" d="M68-6.96C68-3.09 71.13 0.04 75 0.04C78.87 0.04 82-3.09 82-6.96L82-27.8L102.83-27.8C106.7-27.8 109.83-30.93 109.83-34.8C109.83-38.66 106.7-41.8 102.83-41.8L82-41.8L82-62.63C82-66.5 78.87-69.63 75-69.63C71.13-69.63 68-66.5 68-62.63L68-41.8L47.16-41.8C43.29-41.8 40.16-38.66 40.16-34.8C40.16-30.93 43.29-27.8 47.16-27.8L68-27.8L68-6.96Z"/>
  </g>
  <g id="Semibold-M" transform="matrix(1 0 0 1 1968.27 1126)">
   <path class="hierarchical-0:secondary SFSymbolsPreview4D4D4D" d="M103.92 34.32C94.87 38.24 85.22 40.2 74.96 40.2C64.71 40.2 55.06 38.24 46.01 34.32C36.96 30.45 28.98 25.05 22.06 18.13C15.19 11.21 9.8 3.22 5.88-5.83C1.96-14.88 0-24.54 0-34.8C0-45.06 1.96-54.72 5.88-63.77C9.8-72.82 15.19-80.78 22.06-87.65C28.98-94.58 36.94-100 45.94-103.92C54.98-107.84 64.63-109.8 74.89-109.8C85.2-109.8 94.87-107.84 103.92-103.92C112.97-100 120.95-94.58 127.87-87.65C134.78-80.78 140.2-72.82 144.12-63.77C148.04-54.72 150-45.06 150-34.8C150-24.54 148.04-14.88 144.12-5.83C140.2 3.22 134.78 11.21 127.87 18.13C120.95 25.05 112.97 30.45 103.92 34.32Z"/>
   <path class="hierarchical-1:primary SFSymbolsPreview212121" d="M69-6.96C69-3.65 71.69-0.96 75-0.96C78.31-0.96 81-3.65 81-6.96L81-28.8L102.83-28.8C106.14-28.8 108.83-31.49 108.83-34.8C108.83-38.11 106.14-40.8 102.83-40.8L81-40.8L81-62.63C81-65.94 78.31-68.63 75-68.63C71.69-68.63 69-65.94 69-62.63L69-40.8L47.16-40.8C43.85-40.8 41.16-38.11 41.16-34.8C41.16-31.49 43.85-28.8 47.16-28.8L69-28.8L69-6.96Z"/>
  </g>
  <g id="Medium-M" transform="matrix(1 0 0 1 1671.56 1126)">
   <path class="hierarchical-0:secondary SFSymbolsPreview4D4D4D" d="M103.92 34.32C94.87 38.24 85.22 40.2 74.96 40.2C64.71 40.2 55.06 38.24 46.01 34.32C36.96 30.45 28.98 25.05 22.06 18.13C15.19 11.21 9.8 3.22 5.88-5.83C1.96-14.88 0-24.54 0-34.8C0-45.06 1.96-54.72 5.88-63.77C9.8-72.82 15.19-80.78 22.06-87.65C28.98-94.58 36.94-100 45.94-103.92C54.98-107.84 64.63-109.8 74.89-109.8C85.2-109.8 94.87-107.84 103.92-103.92C112.97-100 120.95-94.58 127.87-87.65C134.78-80.78 140.2-72.82 144.12-63.77C148.04-54.72 150-45.06 150-34.8C150-24.54 148.04-14.88 144.12-5.83C140.2 3.22 134.78 11.21 127.87 18.13C120.95 25.05 112.97 30.45 103.92 34.32Z"/>
   <path class="hierarchical-1:primary SFSymbolsPreview212121" d="M69.7-6.96C69.7-4.03 72.07-1.66 75-1.66C77.93-1.66 80.3-4.03 80.3-6.96L80.3-29.5L102.83-29.5C105.76-29.5 108.13-31.87 108.13-34.8C108.13-37.73 105.76-40.1 102.83-40.1L80.3-40.1L80.3-62.63C80.3-65.56 77.93-67.93 75-67.93C72.07-67.93 69.7-65.56 69.7-62.63L69.7-40.1L47.16-40.1C44.23-40.1 41.86-37.73 41.86-34.8C41.86-31.87 44.23-29.5 47.16-29.5L69.7-29.5L69.7-6.96Z"/>
  </g>
  <g id="Regular-M" transform="matrix(1 0 0 1 1374.84 1126)">
   <path class="hierarchical-0:secondary SFSymbolsPreview4D4D4D" d="M103.92 33.82C94.87 37.74 85.22 39.7 74.96 39.7C64.71 39.7 55.06 37.74 46.01 33.82C36.96 29.95 28.98 24.55 22.06 17.63C15.19 10.71 9.8 2.72 5.88-6.33C1.96-15.38 0-25.04 0-35.3C0-45.56 1.96-55.22 5.88-64.27C9.8-73.32 15.19-81.28 22.06-88.15C28.98-95.08 36.94-100.5 45.94-104.42C54.98-108.34 64.63-110.3 74.89-110.3C85.2-110.3 94.87-108.34 103.92-104.42C112.97-100.5 120.95-95.08 127.87-88.15C134.78-81.28 140.2-73.32 144.12-64.27C148.04-55.22 150-45.56 150-35.3C150-25.04 148.04-15.38 144.12-6.33C140.2 2.72 134.78 10.71 127.87 17.63C120.95 24.55 112.97 29.95 103.92 33.82Z"/>
   <path class="hierarchical-1:primary SFSymbolsPreview212121" d="M70.65-7.46C70.65-5.06 72.6-3.11 75-3.11C77.4-3.11 79.35-5.06 79.35-7.46L79.35-30.95L102.83-30.95C105.23-30.95 107.18-32.9 107.18-35.3C107.18-37.7 105.23-39.65 102.83-39.65L79.35-39.65L79.35-63.13C79.35-65.54 77.4-67.48 75-67.48C72.6-67.48 70.65-65.54 70.65-63.13L70.65-39.65L47.16-39.65C44.76-39.65 42.81-37.7 42.81-35.3C42.81-32.9 44.76-30.95 47.16-30.95L70.65-30.95L70.65-7.46Z"/>
  </g>
  <g id="Light-M" transform="matrix(1 0 0 1 1078.13 1126)">
   <path class="hierarchical-0:secondary SFSymbolsPreview4D4D4D" d="M103.92 34.32C94.87 38.24 85.22 40.2 74.96 40.2C64.71 40.2 55.06 38.24 46.01 34.32C36.96 30.45 28.98 25.05 22.06 18.13C15.19 11.21 9.8 3.22 5.88-5.83C1.96-14.88 0-24.54 0-34.8C0-45.06 1.96-54.72 5.88-63.77C9.8-72.82 15.19-80.78 22.06-87.65C28.98-94.58 36.94-100 45.94-103.92C54.98-107.84 64.63-109.8 74.89-109.8C85.2-109.8 94.87-107.84 103.92-103.92C112.97-100 120.95-94.58 127.87-87.65C134.78-80.78 140.2-72.82 144.12-63.77C148.04-54.72 150-45.06 150-34.8C150-24.54 148.04-14.88 144.12-5.83C140.2 3.22 134.78 11.21 127.87 18.13C120.95 25.05 112.97 30.45 103.92 34.32Z"/>
   <path class="hierarchical-1:primary SFSymbolsPreview212121" d="M71.7-6.96C71.7-5.14 73.18-3.66 75-3.66C76.82-3.66 78.3-5.14 78.3-6.96L78.3-31.5L102.83-31.5C104.65-31.5 106.13-32.98 106.13-34.8C106.13-36.62 104.65-38.1 102.83-38.1L78.3-38.1L78.3-62.63C78.3-64.46 76.82-65.93 75-65.93C73.18-65.93 71.7-64.46 71.7-62.63L71.7-38.1L47.16-38.1C45.34-38.1 43.86-36.62 43.86-34.8C43.86-32.98 45.34-31.5 47.16-31.5L71.7-31.5L71.7-6.96Z"/>
  </g>
  <g id="Thin-M" transform="matrix(1 0 0 1 781.422 1126)">
   <path class="hierarchical-0:secondary SFSymbolsPreview4D4D4D" d="M103.919 34.32C94.872 38.24 85.221 40.2 74.964 40.2C64.708 40.2 55.056 38.24 46.009 34.32C36.962 30.45 28.98 25.05 22.061 18.13C15.192 11.21 9.797 3.22 5.878-5.83C1.96-14.88 0-24.54 0-34.8C0-45.06 1.96-54.71 5.878-63.77C9.797-72.82 15.192-80.78 22.061-87.65C28.98-94.57 36.938-100 45.937-103.92C54.983-107.84 64.635-109.8 74.892-109.8C85.196-109.8 94.872-107.84 103.919-103.92C112.966-100 120.949-94.57 127.867-87.65C134.785-80.78 140.204-72.82 144.122-63.77C148.041-54.71 150-45.06 150-34.8C150-24.54 148.041-14.88 144.122-5.83C140.204 3.22 134.785 11.21 127.867 18.13C120.949 25.05 112.966 30.45 103.919 34.32Z"/>
   <path class="hierarchical-1:primary SFSymbolsPreview212121" d="M73.201-6.96C73.201-5.96 74.006-5.16 75.001-5.16C75.995-5.16 76.801-5.96 76.801-6.96L76.801-33L102.831-33C103.825-33 104.631-33.8 104.631-34.8C104.631-35.79 103.825-36.6 102.831-36.6L76.801-36.6L76.801-62.63C76.801-63.62 75.995-64.43 75.001-64.43C74.006-64.43 73.201-63.62 73.201-62.63L73.201-36.6L47.161-36.6C46.167-36.6 45.361-35.79 45.361-34.8C45.361-33.8 46.167-33 47.161-33L73.201-33L73.201-6.96Z"/>
  </g>
  <g id="Ultralight-M" transform="matrix(1 0 0 1 484.711 1126)">
   <path class="hierarchical-0:secondary SFSymbolsPreview4D4D4D" d="M103.919 34.32C94.872 38.24 85.22 40.2 74.964 40.2C64.707 40.2 55.056 38.24 46.009 34.32C36.962 30.45 28.979 25.05 22.061 18.13C15.191 11.21 9.797 3.22 5.878-5.83C1.959-14.88 0-24.54 0-34.8C0-45.06 1.959-54.72 5.878-63.77C9.797-72.82 15.191-80.78 22.061-87.65C28.979-94.58 36.938-100 45.936-103.92C54.983-107.84 64.635-109.8 74.891-109.8C85.196-109.8 94.872-107.84 103.919-103.92C112.966-100 120.948-94.58 127.866-87.65C134.785-80.78 140.203-72.82 144.122-63.77C148.041-54.72 150-45.06 150-34.8C150-24.54 148.041-14.88 144.122-5.83C140.203 3.22 134.785 11.21 127.866 18.13C120.948 25.05 112.966 30.45 103.919 34.32Z"/>
   <path class="hierarchical-1:primary SFSymbolsPreview212121" d="M73.875-6.96C73.875-6.34 74.379-5.83 75-5.83C75.621-5.83 76.125-6.34 76.125-6.96L76.125-33.67L102.83-33.67C103.451-33.67 103.955-34.18 103.955-34.8C103.955-35.42 103.451-35.92 102.83-35.92L76.125-35.92L76.125-62.63C76.125-63.25 75.621-63.75 75-63.75C74.379-63.75 73.875-63.25 73.875-62.63L73.875-35.92L47.16-35.92C46.539-35.92 46.035-35.42 46.035-34.8C46.035-34.18 46.539-33.67 47.16-33.67L73.875-33.67L73.875-6.96Z"/>
  </g>
  <g id="Black-S" transform="matrix(1 0 0 1 2879.4 696)">
   <path class="hierarchical-0:secondary SFSymbolsPreview4D4D4D" d="M74.82 13.967C68.31 16.79 61.36 18.201 53.97 18.201C46.59 18.201 39.64 16.79 33.13 13.967C26.61 11.179 20.87 7.293 15.88 2.31C10.94-2.674 7.05-8.424 4.23-14.941C1.41-21.458 0-28.411 0-35.799C0-43.187 1.41-50.14 4.23-56.657C7.05-63.173 10.94-68.906 15.88-73.855C20.87-78.839 26.6-82.742 33.07-85.565C39.59-88.387 46.54-89.799 53.92-89.799C61.34-89.799 68.31-88.387 74.82-85.565C81.34-82.742 87.08-78.839 92.06-73.855C97.05-68.906 100.95-63.173 103.77-56.657C106.59-50.14 108-43.187 108-35.799C108-28.411 106.59-21.458 103.77-14.941C100.95-8.424 97.05-2.674 92.06 2.31C87.08 7.293 81.34 11.179 74.82 13.967Z"/>
   <path class="hierarchical-1:primary SFSymbolsPreview212121" d="M44.84-7.83C44.84-2.583 49.09 1.67 54.34 1.67C59.59 1.67 63.84-2.583 63.84-7.83L63.84-26.168L82.17-26.168C87.42-26.168 91.67-30.421 91.67-35.668C91.67-40.915 87.42-45.168 82.17-45.168L63.84-45.168L63.84-63.5C63.84-68.747 59.59-73 54.34-73C49.09-73 44.84-68.747 44.84-63.5L44.84-45.168L26.5-45.168C21.25-45.168 17-40.915 17-35.668C17-30.421 21.25-26.168 26.5-26.168L44.84-26.168L44.84-7.83Z"/>
  </g>
  <g id="Heavy-S" transform="matrix(1 0 0 1 2582.69 696)">
   <path class="hierarchical-0:secondary SFSymbolsPreview4D4D4D" d="M74.82 13.967C68.31 16.79 61.36 18.201 53.97 18.201C46.59 18.201 39.64 16.79 33.13 13.967C26.61 11.179 20.87 7.293 15.88 2.31C10.94-2.674 7.05-8.424 4.23-14.941C1.41-21.458 0-28.411 0-35.799C0-43.187 1.41-50.14 4.23-56.657C7.05-63.173 10.94-68.906 15.88-73.855C20.87-78.839 26.6-82.742 33.07-85.565C39.59-88.387 46.54-89.799 53.92-89.799C61.34-89.799 68.31-88.387 74.82-85.565C81.34-82.742 87.08-78.839 92.06-73.855C97.05-68.906 100.95-63.173 103.77-56.657C106.59-50.14 108-43.187 108-35.799C108-28.411 106.59-21.458 103.77-14.941C100.95-8.424 97.05-2.674 92.06 2.31C87.08 7.293 81.34 11.179 74.82 13.967Z"/>
   <path class="hierarchical-1:primary SFSymbolsPreview212121" d="M45.34-8.33C45.34-3.636 49.15 0.17 53.84 0.17C58.53 0.17 62.34-3.636 62.34-8.33L62.34-27.668L81.67-27.668C86.36-27.668 90.17-31.473 90.17-36.168C90.17-40.862 86.36-44.668 81.67-44.668L62.34-44.668L62.34-64C62.34-68.694 58.53-72.5 53.84-72.5C49.15-72.5 45.34-68.694 45.34-64L45.34-44.668L26-44.668C21.31-44.668 17.5-40.862 17.5-36.168C17.5-31.473 21.31-27.668 26-27.668L45.34-27.668L45.34-8.33Z"/>
  </g>
  <g id="Bold-S" transform="matrix(1 0 0 1 2285.98 696)">
   <path class="hierarchical-0:secondary SFSymbolsPreview4D4D4D" d="M74.82 13.967C68.31 16.79 61.36 18.201 53.97 18.201C46.59 18.201 39.64 16.79 33.13 13.967C26.61 11.179 20.87 7.293 15.88 2.31C10.94-2.674 7.05-8.424 4.23-14.941C1.41-21.458 0-28.411 0-35.799C0-43.187 1.41-50.14 4.23-56.657C7.05-63.173 10.94-68.906 15.88-73.855C20.87-78.839 26.6-82.742 33.07-85.565C39.59-88.387 46.54-89.799 53.92-89.799C61.34-89.799 68.31-88.387 74.82-85.565C81.34-82.742 87.08-78.839 92.06-73.855C97.05-68.906 100.95-63.173 103.77-56.657C106.59-50.14 108-43.187 108-35.799C108-28.411 106.59-21.458 103.77-14.941C100.95-8.424 97.05-2.674 92.06 2.31C87.08 7.293 81.34 11.179 74.82 13.967Z"/>
   <path class="hierarchical-1:primary SFSymbolsPreview212121" d="M46.84-8.33C46.84-4.464 49.97-1.33 53.84-1.33C57.71-1.33 60.84-4.464 60.84-8.33L60.84-29.168L81.67-29.168C85.54-29.168 88.67-32.302 88.67-36.168C88.67-40.034 85.54-43.168 81.67-43.168L60.84-43.168L60.84-64C60.84-67.866 57.71-71 53.84-71C49.97-71 46.84-67.866 46.84-64L46.84-43.168L26-43.168C22.13-43.168 19-40.034 19-36.168C19-32.302 22.13-29.168 26-29.168L46.84-29.168L46.84-8.33Z"/>
  </g>
  <g id="Semibold-S" transform="matrix(1 0 0 1 1989.27 696)">
   <path class="hierarchical-0:secondary SFSymbolsPreview4D4D4D" d="M74.82 13.967C68.31 16.79 61.36 18.201 53.97 18.201C46.59 18.201 39.64 16.79 33.13 13.967C26.61 11.179 20.87 7.293 15.88 2.31C10.94-2.674 7.05-8.424 4.23-14.941C1.41-21.458 0-28.411 0-35.799C0-43.187 1.41-50.14 4.23-56.657C7.05-63.173 10.94-68.906 15.88-73.855C20.87-78.839 26.6-82.742 33.07-85.565C39.59-88.387 46.54-89.799 53.92-89.799C61.34-89.799 68.31-88.387 74.82-85.565C81.34-82.742 87.08-78.839 92.06-73.855C97.05-68.906 100.95-63.173 103.77-56.657C106.59-50.14 108-43.187 108-35.799C108-28.411 106.59-21.458 103.77-14.941C100.95-8.424 97.05-2.674 92.06 2.31C87.08 7.293 81.34 11.179 74.82 13.967Z"/>
   <path class="hierarchical-1:primary SFSymbolsPreview212121" d="M47.84-8.33C47.84-5.016 50.53-2.33 53.84-2.33C57.15-2.33 59.84-5.016 59.84-8.33L59.84-30.168L81.67-30.168C84.98-30.168 87.67-32.854 87.67-36.168C87.67-39.482 84.98-42.168 81.67-42.168L59.84-42.168L59.84-64C59.84-67.314 57.15-70 53.84-70C50.53-70 47.84-67.314 47.84-64L47.84-42.168L26-42.168C22.69-42.168 20-39.482 20-36.168C20-32.854 22.69-30.168 26-30.168L47.84-30.168L47.84-8.33Z"/>
  </g>
  <g id="Medium-S" transform="matrix(1 0 0 1 1692.56 696)">
   <path class="hierarchical-0:secondary SFSymbolsPreview4D4D4D" d="M74.82 13.967C68.31 16.79 61.36 18.201 53.97 18.201C46.59 18.201 39.64 16.79 33.13 13.967C26.61 11.179 20.87 7.293 15.88 2.31C10.94-2.674 7.05-8.424 4.23-14.941C1.41-21.458 0-28.411 0-35.799C0-43.187 1.41-50.14 4.23-56.657C7.05-63.173 10.94-68.906 15.88-73.855C20.87-78.839 26.6-82.742 33.07-85.565C39.59-88.387 46.54-89.799 53.92-89.799C61.34-89.799 68.31-88.387 74.82-85.565C81.34-82.742 87.08-78.839 92.06-73.855C97.05-68.906 100.95-63.173 103.77-56.657C106.59-50.14 108-43.187 108-35.799C108-28.411 106.59-21.458 103.77-14.941C100.95-8.424 97.05-2.674 92.06 2.31C87.08 7.293 81.34 11.179 74.82 13.967Z"/>
   <path class="hierarchical-1:primary SFSymbolsPreview212121" d="M48.84-8.03C48.84-5.103 51.21-2.73 54.14-2.73C57.07-2.73 59.44-5.103 59.44-8.03L59.44-30.568L81.97-30.568C84.9-30.568 87.27-32.941 87.27-35.868C87.27-38.795 84.9-41.168 81.97-41.168L59.44-41.168L59.44-63.7C59.44-66.627 57.07-69 54.14-69C51.21-69 48.84-66.627 48.84-63.7L48.84-41.168L26.3-41.168C23.37-41.168 21-38.795 21-35.868C21-32.941 23.37-30.568 26.3-30.568L48.84-30.568L48.84-8.03Z"/>
  </g>
  <g id="Regular-S" transform="matrix(1 0 0 1 1395.84 696)">
   <path class="hierarchical-0:secondary SFSymbolsPreview4D4D4D" d="M74.82 13.965C68.31 16.788 61.36 18.199 53.97 18.199C46.59 18.199 39.64 16.788 33.13 13.965C26.61 11.177 20.87 7.291 15.88 2.308C10.94-2.676 7.05-8.426 4.23-14.943C1.41-21.46 0-28.413 0-35.801C0-43.189 1.41-50.142 4.23-56.658C7.05-63.175 10.94-68.908 15.88-73.857C20.87-78.84 26.6-82.744 33.07-85.567C39.59-88.389 46.54-89.801 53.92-89.801C61.34-89.801 68.31-88.389 74.82-85.567C81.34-82.744 87.08-78.84 92.06-73.857C97.04-68.908 100.95-63.175 103.77-56.658C106.59-50.142 108-43.189 108-35.801C108-28.413 106.59-21.46 103.77-14.943C100.95-8.426 97.04-2.676 92.06 2.308C87.08 7.291 81.34 11.177 74.82 13.965Z"/>
   <path class="hierarchical-1:primary SFSymbolsPreview212121" d="M49.84-7.98C49.84-5.578 51.79-3.63 54.19-3.63C56.59-3.63 58.54-5.578 58.54-7.98L58.54-31.468L82.02-31.468C84.42-31.468 86.37-33.415 86.37-35.818C86.37-38.22 84.42-40.168 82.02-40.168L58.54-40.168L58.54-63.65C58.54-66.052 56.59-68 54.19-68C51.79-68 49.84-66.052 49.84-63.65L49.84-40.168L26.35-40.168C23.95-40.168 22-38.22 22-35.818C22-33.415 23.95-31.468 26.35-31.468L49.84-31.468L49.84-7.98Z"/>
  </g>
  <g id="Light-S" transform="matrix(1 0 0 1 1099.13 696)">
   <path class="hierarchical-0:secondary SFSymbolsPreview4D4D4D" d="M74.82 13.967C68.31 16.79 61.36 18.201 53.97 18.201C46.59 18.201 39.64 16.79 33.13 13.967C26.61 11.179 20.87 7.293 15.88 2.31C10.94-2.674 7.05-8.424 4.23-14.941C1.41-21.458 0-28.411 0-35.799C0-43.187 1.41-50.14 4.23-56.657C7.05-63.173 10.94-68.906 15.88-73.855C20.87-78.839 26.6-82.742 33.07-85.565C39.59-88.387 46.54-89.799 53.92-89.799C61.34-89.799 68.31-88.387 74.82-85.565C81.34-82.742 87.08-78.839 92.06-73.855C97.05-68.906 100.95-63.173 103.77-56.657C106.59-50.14 108-43.187 108-35.799C108-28.411 106.59-21.458 103.77-14.941C100.95-8.424 97.05-2.674 92.06 2.31C87.08 7.293 81.34 11.179 74.82 13.967Z"/>
   <path class="hierarchical-1:primary SFSymbolsPreview212121" d="M50.84-8.03C50.84-6.207 52.32-4.73 54.14-4.73C55.96-4.73 57.44-6.207 57.44-8.03L57.44-32.568L81.97-32.568C83.79-32.568 85.27-34.045 85.27-35.868C85.27-37.69 83.79-39.168 81.97-39.168L57.44-39.168L57.44-63.7C57.44-65.523 55.96-67 54.14-67C52.32-67 50.84-65.523 50.84-63.7L50.84-39.168L26.3-39.168C24.48-39.168 23-37.69 23-35.868C23-34.045 24.48-32.568 26.3-32.568L50.84-32.568L50.84-8.03Z"/>
  </g>
  <g id="Thin-S" transform="matrix(1 0 0 1 802.422 696)">
   <path class="hierarchical-0:secondary SFSymbolsPreview4D4D4D" d="M74.821 13.967C68.308 16.79 61.358 18.201 53.974 18.201C46.589 18.201 39.64 16.79 33.126 13.967C26.612 11.179 20.865 7.293 15.884 2.31C10.938-2.674 7.054-8.424 4.232-14.941C1.411-21.458 0-28.411 0-35.799C0-43.187 1.411-50.14 4.232-56.657C7.054-63.173 10.938-68.906 15.884-73.855C20.865-78.839 26.595-82.742 33.074-85.565C39.588-88.387 46.537-89.799 53.922-89.799C61.341-89.799 68.308-88.387 74.821-85.565C81.335-82.742 87.083-78.839 92.064-73.855C97.045-68.906 100.946-63.173 103.768-56.657C106.589-50.14 108-43.187 108-35.799C108-28.411 106.589-21.458 103.768-14.941C100.946-8.424 97.045-2.674 92.064 2.31C87.083 7.293 81.335 11.179 74.821 13.967Z"/>
   <path class="hierarchical-1:primary SFSymbolsPreview212121" d="M52.04-8.331C52.04-7.337 52.846-6.531 53.84-6.531C54.834-6.531 55.64-7.337 55.64-8.331L55.64-34.369L81.67-34.369C82.664-34.369 83.47-35.175 83.47-36.169C83.47-37.163 82.664-37.969 81.67-37.969L55.64-37.969L55.64-64.001C55.64-64.995 54.834-65.801 53.84-65.801C52.846-65.801 52.04-64.995 52.04-64.001L52.04-37.969L26-37.969C25.006-37.969 24.2-37.163 24.2-36.169C24.2-35.175 25.006-34.369 26-34.369L52.04-34.369L52.04-8.331Z"/>
  </g>
  <g id="Ultralight-S" transform="matrix(1 0 0 1 505.711 696)">
   <path class="hierarchical-0:secondary SFSymbolsPreview4D4D4D" d="M74.821 13.967C68.308 16.79 61.358 18.201 53.974 18.201C46.589 18.201 39.64 16.79 33.126 13.967C26.612 11.179 20.865 7.293 15.884 2.31C10.938-2.674 7.054-8.424 4.232-14.941C1.411-21.458 0-28.411 0-35.799C0-43.187 1.411-50.14 4.232-56.657C7.054-63.173 10.938-68.906 15.884-73.855C20.865-78.839 26.595-82.742 33.074-85.565C39.588-88.387 46.537-89.799 53.922-89.799C61.341-89.799 68.308-88.387 74.821-85.565C81.335-82.742 87.083-78.839 92.064-73.855C97.045-68.906 100.946-63.173 103.768-56.657C106.589-50.14 108-43.187 108-35.799C108-28.411 106.589-21.458 103.768-14.941C100.946-8.424 97.045-2.674 92.064 2.31C87.083 7.293 81.335 11.179 74.821 13.967Z"/>
   <path class="hierarchical-1:primary SFSymbolsPreview212121" d="M52.84-8.205C52.84-7.584 53.344-7.08 53.965-7.08C54.586-7.08 55.09-7.584 55.09-8.205L55.09-34.918L81.795-34.918C82.416-34.918 82.92-35.422 82.92-36.043C82.92-36.664 82.416-37.168 81.795-37.168L55.09-37.168L55.09-63.875C55.09-64.496 54.586-65 53.965-65C53.344-65 52.84-64.496 52.84-63.875L52.84-37.168L26.125-37.168C25.504-37.168 25-36.664 25-36.043C25-35.422 25.504-34.918 26.125-34.918L52.84-34.918L52.84-8.205Z"/>
  </g>
 </g>
</svg>
