<svg xmlns="http://www.w3.org/2000/svg" width="201" height="100" fill="none"><path fill="#E2E1EC" d="m159.57 41.48-21.13-16.6a12.67 12.67 0 0 1-4.82-8.35c-.46-3.33.4-6.72 2.4-9.42a12.63 12.63 0 0 1 8.2-4.98 12.17 12.17 0 0 1 9.2 2.4l21.14 16.59a12.67 12.67 0 0 1 4.82 8.35c.46 3.33-.4 6.72-2.39 9.42a12.48 12.48 0 0 1-8.2 4.98 12.2 12.2 0 0 1-9.22-2.39Z"/><path fill="#FF5167" d="m39.25 23.14-9 10.72a3.2 3.2 0 0 0 .4 4.5l10.6 8.9a3.2 3.2 0 0 0 4.5-.4l9-10.72a3.2 3.2 0 0 0-.4-4.5l-10.6-8.9a3.2 3.2 0 0 0-4.5.4Z"/><path fill="#DBE1FF" d="M58.4 92.1c3.06-.67 6.1-1.52 9.08-2.52 4.14-1.25 8.6-.82 12.39 1.17 2.07 1.2 4.2 2.28 6.4 3.24 7.79 3.06 16.83-1.09 18.86-9.37 1.79-7.28-3.1-15.16-10.7-16.29-3.52-.54-7.09.13-10.62-.1a16.16 16.16 0 0 1-10.07-4.2c-2.34-2.17-4.49-4.56-7.13-6.44a19.2 19.2 0 0 0-8.72-3.43 20.02 20.02 0 0 0-14.16 3.57 19.61 19.61 0 0 0-7.88 12.18c-.95 4.88.04 9.92 2.76 14.06a19.29 19.29 0 0 0 11.87 8.18c2.6.53 5.3.51 7.91-.05Z"/><path stroke="#E2E1EC" stroke-dasharray="4 6" stroke-linecap="round" stroke-linejoin="round" stroke-miterlimit="10" stroke-width="3" d="M146.52 95.12a2.77 2.77 0 0 1-3.32.23c-.34-.21-.63-.5-.85-.83a28.71 28.71 0 0 1-4.66-19.8 27.97 27.97 0 0 1 28.67-24.4c6.96.22 13.62 3 18.7 7.83a2.88 2.88 0 0 1 .64 3.3c-.17.36-.41.68-.71.94l-38.47 32.73Z"/><path stroke="#C6A0BF" stroke-miterlimit="10" stroke-width="3" d="M122.5 82a9 9 0 1 0 0-18 9 9 0 0 0 0 18Z"/><path fill="#B5C4FF" d="M97.5 65a32 32 0 1 0 0-64 32 32 0 0 0 0 64Z"/><path fill="#fff" fill-rule="evenodd" d="M88.64 40.8a2 2 0 1 0 2.95 2.7l6.44-7.05 6.91 6.59a2 2 0 0 0 2.76-2.9l-6.97-6.64 6.5-7.1a2 2 0 1 0-2.95-2.7l-6.44 7.04-6.9-6.59a2 2 0 1 0-2.77 2.9l6.97 6.64-6.5 7.1Z" clip-rule="evenodd"/></svg>
