<svg xmlns="http://www.w3.org/2000/svg" width="200" height="100" viewBox="0 0 200 100" fill="none">
<g clip-path="url(#clip0_2195_26319)">
<path d="M159.075 41.481L137.937 24.8853C135.307 22.8697 133.574 19.8651 133.119 16.5318C132.664 13.1985 133.525 9.80944 135.511 7.10954C136.495 5.77196 137.725 4.64398 139.133 3.78998C140.541 2.93607 142.098 2.37281 143.715 2.13248C145.332 1.89214 146.978 1.97943 148.559 2.38933C150.14 2.79931 151.624 3.52384 152.927 4.52159L174.058 21.1163C176.69 23.131 178.424 26.1354 178.88 29.4689C179.337 32.8024 178.477 36.1922 176.49 38.893C174.503 41.5929 171.552 43.3821 168.286 43.8674C165.02 44.3527 161.707 43.4943 159.075 41.481Z" fill="var(--cros-sys-illo-secondary)" />
<path d="M38.7502 23.1417L29.7484 33.8612C28.6129 35.2134 28.7894 37.2292 30.1426 38.3635L40.7437 47.2518C42.0969 48.3868 44.1144 48.2105 45.2498 46.8584L54.2515 36.1386C55.3874 34.7866 55.2103 32.7707 53.8571 31.6362L43.2563 22.7478C41.9032 21.6132 39.8857 21.7895 38.7502 23.1417Z" fill="var(--cros-sys-illo-color4)" />
<path d="M57.8929 92.104C60.9634 91.4255 63.9958 90.5816 66.9762 89.5758C71.1224 88.3328 75.5794 88.7553 79.3682 90.7498C81.4382 91.9432 83.5718 93.026 85.7611 93.9942C93.5586 97.0549 102.599 92.9034 104.631 84.6198C106.417 77.3437 101.536 69.4587 93.928 68.332C90.413 67.7949 86.8396 68.4626 83.3059 68.2362C79.5443 68.0349 75.9874 66.5496 73.2446 64.0357C70.9002 61.8616 68.7508 59.4748 66.107 57.5949C63.5447 55.7538 60.5505 54.574 57.3929 54.1612C52.4041 53.5215 47.3326 54.8004 43.2294 57.7323C39.1263 60.6642 36.3062 65.0244 35.3537 69.9091C34.4012 74.7944 35.3893 79.8291 38.1133 83.9704C40.8373 88.1122 45.0881 91.0423 49.9848 92.1542C52.5885 92.6816 55.2824 92.6645 57.8929 92.104Z" fill="var(--cros-sys-illo-color1-2)" />
<path d="M146.019 95.1237C145.717 95.3808 145.365 95.5701 144.983 95.6795C144.602 95.7891 144.201 95.8165 143.808 95.7597C143.414 95.7027 143.035 95.5624 142.698 95.3485C142.361 95.1349 142.071 94.8525 141.849 94.519C137.93 88.697 136.272 81.6476 137.192 74.7205C138.112 67.7925 141.545 61.473 146.833 56.9712C152.122 52.4687 158.896 50.1001 165.858 50.3184C172.821 50.5365 179.483 53.3259 184.57 58.1531C184.861 58.4285 185.091 58.7618 185.246 59.1312C185.401 59.5008 185.477 59.898 185.469 60.2974C185.462 60.697 185.37 61.0896 185.202 61.4494C185.032 61.8095 184.789 62.1293 184.489 62.3875L146.019 95.1237Z" stroke="var(--cros-sys-illo-secondary)" stroke-width="3" stroke-miterlimit="10" stroke-linecap="round" stroke-linejoin="round" stroke-dasharray="4 6" />
<path d="M122 82C126.97 82 131 77.9704 131 73C131 68.0292 126.97 64 122 64C117.029 64 113 68.0292 113 73C113 77.9704 117.029 82 122 82Z" stroke="var(--cros-sys-illo-color5)" stroke-width="3" stroke-miterlimit="10" />
<path d="M97 65C114.673 65 129 50.6731 129 33C129 15.3269 114.673 1 97 1C79.3269 1 65 15.3269 65 33C65 50.6731 79.3269 65 97 65Z" fill="var(--cros-sys-illo-color1-1)" />
<path fill-rule="evenodd" clip-rule="evenodd" d="M88.1366 40.7918C87.3907 41.6065 87.4464 42.8716 88.2611 43.6175C89.0758 44.3634 90.3409 44.3076 91.0868 43.4929L97.5324 36.453L104.44 43.0403C105.239 43.8026 106.505 43.7726 107.268 42.9732C108.03 42.1738 108 40.9079 107.201 40.1456L100.234 33.5021L106.735 26.402C107.481 25.5873 107.425 24.3222 106.61 23.5763C105.795 22.8304 104.53 22.8862 103.784 23.7009L97.3387 30.7411L90.4311 24.1538C89.6317 23.3915 88.3657 23.4215 87.6034 24.2209C86.8411 25.0203 86.8712 26.2862 87.6706 27.0485L94.637 33.6919L88.1366 40.7918Z" fill="var(--cros-sys-base_elevated)" />
</g>
<defs>
<clipPath id="clip0_2195_26319">
<rect width="200" height="100" fill="var(--cros-sys-base_elevated)" />
</clipPath>
</defs>
</svg>