<svg xmlns="http://www.w3.org/2000/svg" width="201" height="100" fill="none"><path stroke="#C6A0BF" stroke-miterlimit="10" stroke-width="3" d="M40.458 69.35c8.03-.7 13.974-7.778 13.273-15.808-.7-8.032-7.778-13.974-15.809-13.274-8.031.7-13.974 7.778-13.273 15.81.7 8.03 7.777 13.973 15.809 13.273Z"/><path fill="#E2E1EC" d="M156.993 71.305c-2.221-.627-2.933-3.422-1.282-5.034l19.568-19.11c1.651-1.613 4.428-.836 5.002 1.399l6.822 26.558c.575 2.24-1.494 4.262-3.721 3.634l-26.389-7.447Z"/><rect width="29.518" height="29.518" x="6" y="53.2" stroke="#3F5AA9" stroke-dasharray="3 6" stroke-linecap="round" stroke-linejoin="round" stroke-width="3" rx="14.759" transform="rotate(-21 6 53.2)"/><path stroke="#E89C00" stroke-width="3" d="M151.185 38.389a.5.5 0 0 1 .841-.251l22.637 22.436a.5.5 0 0 1-.214.835l-29.188 8.429a.5.5 0 0 1-.628-.584l6.552-30.865Z"/><path fill="#DBE1FF" d="M106.332 10.267c2.38-2.355 6.493-1.268 7.369 1.948l1.731 6.353c.583 2.142 2.733 3.51 4.964 3.158l6.618-1.042c3.349-.527 6.04 2.713 4.82 5.806l-2.41 6.11c-.812 2.059.114 4.396 2.138 5.396l6.007 2.966c3.04 1.501 3.28 5.657.43 7.445l-5.631 3.533a4.223 4.223 0 0 0-1.505 5.575l3.102 5.84c1.569 2.958-.733 6.441-4.125 6.242l-6.7-.395c-2.259-.132-4.24 1.437-4.573 3.624l-.989 6.484c-.5 3.284-4.465 4.764-7.103 2.654l-5.211-4.17c-1.757-1.406-4.31-1.281-5.895.287l-4.7 4.652c-2.38 2.355-6.493 1.268-7.37-1.948l-1.73-6.353c-.584-2.142-2.734-3.51-4.965-3.158l-6.618 1.042c-3.35.528-6.04-2.712-4.82-5.806l2.41-6.11c.813-2.06-.113-4.396-2.138-5.395l-6.007-2.967c-3.04-1.501-3.28-5.657-.43-7.445l5.631-3.533a4.22 4.22 0 0 0 1.504-5.574l-3.1-5.841c-1.57-2.957.732-6.44 4.123-6.241l6.701.393c2.26.133 4.24-1.436 4.573-3.622l.989-6.485c.5-3.283 4.466-4.764 7.103-2.653l5.212 4.17c1.756 1.405 4.308 1.28 5.893-.288l4.702-4.652Z"/><path fill="#3F5AA9" d="m98.418 51.32-.018-1.198c-.012-.848.074-1.576.26-2.185a5.18 5.18 0 0 1 .955-1.794c.476-.589 1.121-1.216 1.935-1.882.527-.444.957-.85 1.291-1.218.357-.393.618-.809.781-1.247.187-.463.277-.986.268-1.567-.014-.969-.352-1.74-1.015-2.311-.638-.597-1.551-.886-2.738-.87-.703.011-1.33.154-1.884.428-.529.274-.96.668-1.291 1.182-.332.49-.554 1.074-.665 1.754l-3.604-.42c.103-1.237.462-2.345 1.078-3.323.615-1.002 1.464-1.802 2.546-2.4 1.081-.597 2.349-.906 3.802-.927 1.575-.023 2.924.236 4.046.777 1.146.517 2.03 1.28 2.65 2.288.62.984.94 2.155.96 3.511.014 1.018-.13 1.916-.434 2.696a7.88 7.88 0 0 1-1.206 2.053c-.5.613-1.037 1.154-1.612 1.622-.551.445-.993.875-1.326 1.292a3.924 3.924 0 0 0-.672 1.245c-.115.438-.168.96-.159 1.565l.012.872-3.96.058Zm2.091 8.839c-.776.01-1.433-.246-1.974-.771a2.69 2.69 0 0 1-.791-1.915 2.69 2.69 0 0 1 .735-1.937c.525-.54 1.175-.817 1.951-.828.75-.01 1.384.247 1.901.772.54.525.816 1.163.827 1.914a2.625 2.625 0 0 1-.771 1.938c-.501.54-1.127.816-1.878.827Z"/></svg>
