<svg xmlns="http://www.w3.org/2000/svg" width="200" height="100" viewBox="0 0 200 100" fill="none">
<g clip-path="url(#clip0_2195_26312)">
<path d="M40.4587 69.3503C48.4895 68.6502 54.4326 61.5719 53.7325 53.5412C53.0323 45.5097 45.954 39.5673 37.9233 40.2674C29.8918 40.9676 23.9494 48.0451 24.6496 56.0766C25.3497 64.1073 32.4273 70.0505 40.4587 69.3503Z" stroke="var(--cros-sys-illo-color5)" stroke-width="3" stroke-miterlimit="10" />
<path d="M156.993 71.3054C154.772 70.6787 154.06 67.8842 155.711 66.272L175.279 47.1611C176.93 45.5489 179.707 46.3261 180.281 48.561L187.103 75.1194C187.678 77.3599 185.609 79.3812 183.382 78.7529L156.993 71.3054Z" fill="var(--cros-sys-illo-secondary)" />
<rect x="6" y="53.2012" width="29.5179" height="29.5179" rx="14.759" transform="rotate(-20.9825 6 53.2012)" stroke="var(--cros-sys-illo-color1)" stroke-width="3" stroke-linecap="round" stroke-linejoin="round" stroke-dasharray="3 6" />
<path d="M152.026 38.1377L174.663 60.5736C174.934 60.8423 174.817 61.3033 174.45 61.4091L145.261 69.8377C144.899 69.9425 144.555 69.6228 144.634 69.2535L151.185 38.389C151.267 38.0019 151.745 37.8592 152.026 38.1377Z" stroke="var(--cros-sys-illo-color3)" stroke-width="3" />
<path d="M106.332 10.2669C108.712 7.91182 112.825 8.99923 113.701 12.2153L115.432 18.5682C116.015 20.71 118.165 22.0775 120.396 21.7262L127.014 20.684C130.363 20.1565 133.054 23.3967 131.834 26.4896L129.424 32.5992C128.612 34.659 129.538 36.9961 131.562 37.996L137.569 40.962C140.609 42.4634 140.849 46.6189 137.999 48.4072L132.368 51.9399C130.47 53.1308 129.819 55.545 130.863 57.5145L133.965 63.3553C135.534 66.3126 133.232 69.796 129.84 69.5966L123.14 69.2023C120.881 69.0697 118.9 70.6386 118.567 72.8255L117.578 79.3104C117.078 82.5935 113.113 84.074 110.475 81.9637L105.264 77.7938C103.508 76.3882 100.954 76.5127 99.3694 78.0807L94.6686 82.7333C92.2886 85.088 88.1757 84.0009 87.2998 80.7846L85.5686 74.4323C84.9852 72.2905 82.835 70.9228 80.604 71.2737L73.9863 72.3158C70.6361 72.8435 67.9456 69.6038 69.1661 66.5102L71.5766 60.4006C72.3888 58.3409 71.4626 56.0042 69.438 55.0046L63.4315 52.0382C60.3909 50.5367 60.1504 46.3813 63.0016 44.593L68.6321 41.0603C70.5302 39.8693 71.1818 37.4555 70.1362 35.4861L67.0356 29.6449C65.466 26.6879 67.7679 23.2045 71.1593 23.4038L77.8605 23.7974C80.1193 23.9301 82.0991 22.3614 82.4329 20.175L83.4219 13.6896C83.9227 10.4066 87.8876 8.92588 90.5251 11.0365L95.7366 15.2062C97.4929 16.612 100.045 16.4876 101.63 14.9192L106.332 10.2669Z" fill="var(--cros-sys-illo-color1-2)" />
<path d="M98.4177 51.3209L98.4003 50.1218C98.388 49.2739 98.4744 48.5458 98.6594 47.9374C98.844 47.3047 99.1625 46.7065 99.6146 46.1426C100.091 45.5542 100.736 44.927 101.55 44.261C102.077 43.8172 102.507 43.4111 102.841 43.0429C103.198 42.65 103.459 42.2343 103.622 41.7958C103.809 41.3327 103.899 40.8105 103.89 40.2291C103.876 39.2601 103.538 38.4897 102.875 37.9178C102.237 37.3213 101.324 37.0317 100.137 37.0489C99.4343 37.0591 98.8064 37.2015 98.2531 37.476C97.7241 37.7502 97.2936 38.1442 96.9619 38.6578C96.6298 39.1472 96.4081 39.7319 96.2968 40.412L92.6926 39.9918C92.7958 38.7546 93.1553 37.6469 93.771 36.6688C94.3865 35.6665 95.235 34.8667 96.3167 34.2695C97.3983 33.6723 98.6659 33.3631 100.119 33.342C101.694 33.3191 103.043 33.5782 104.165 34.1192C105.311 34.6356 106.195 35.3982 106.815 36.4068C107.435 37.3912 107.755 38.5617 107.775 39.9183C107.789 40.9357 107.645 41.8343 107.341 42.6141C107.037 43.3696 106.635 44.0539 106.135 44.6669C105.635 45.2799 105.098 45.8207 104.523 46.2894C103.972 46.7336 103.53 47.164 103.197 47.5808C102.888 47.9729 102.664 48.3881 102.525 48.8262C102.41 49.264 102.357 49.7857 102.366 50.3914L102.378 51.2634L98.4177 51.3209ZM100.509 60.1587C99.7334 60.1699 99.0755 59.9129 98.5348 59.3877C98.0184 58.8622 97.7547 58.2239 97.7438 57.4729C97.7329 56.722 97.9779 56.0763 98.4789 55.536C99.0041 54.9953 99.6543 54.7194 100.43 54.7081C101.18 54.6972 101.814 54.9545 102.331 55.4801C102.871 56.0053 103.147 56.6434 103.158 57.3944C103.169 58.1453 102.912 58.7911 102.387 59.3318C101.886 59.8721 101.26 60.1478 100.509 60.1587Z" fill="var(--cros-sys-illo-color1)" />
</g>
<defs>
<clipPath id="clip0_2195_26312">
<rect width="200" height="100" fill="var(--cros-sys-base_elevated)" />
</clipPath>
</defs>
</svg>