<svg xmlns="http://www.w3.org/2000/svg" width="512" height="236" viewBox="0 0 512 236" fill="none">
<rect width="512" height="236" fill="var(--cros-sys-illo-color1-2)" />
<path d="M86 47H290V143H86V47Z" fill="var(--cros-sys-illo-base)" />
<rect x="86" y="82.9199" width="3" height="7.32478" rx="1.5" fill="var(--cros-sys-illo-color1)" />
<rect x="114" y="71" width="3" height="30.9895" rx="1.5" fill="var(--cros-sys-illo-color1)" />
<rect x="142" y="71" width="3" height="30.9895" rx="1.5" fill="var(--cros-sys-illo-color1)" />
<rect x="170" y="79.4141" width="3" height="14.0861" rx="1.5" fill="var(--cros-sys-illo-color1)" />
<rect x="198" y="71" width="3" height="30.9895" rx="1.5" fill="var(--cros-sys-illo-color1)" />
<rect x="93" y="80.8164" width="3" height="12.3958" rx="1.5" fill="var(--cros-sys-illo-color1)" />
<rect x="121" y="74.5059" width="3" height="24.7916" rx="1.5" fill="var(--cros-sys-illo-color1)" />
<rect x="149" y="81.5176" width="3" height="10.142" rx="1.5" fill="var(--cros-sys-illo-color1)" />
<rect x="177" y="80.8164" width="3" height="12.3958" rx="1.5" fill="var(--cros-sys-illo-color1)" />
<rect x="205" y="80.8164" width="3" height="12.3958" rx="1.5" fill="var(--cros-sys-illo-color1)" />
<rect x="100" y="83.6211" width="3" height="5.63445" rx="1.5" fill="var(--cros-sys-illo-color1)" />
<rect x="128" y="79.4141" width="3" height="14.6496" rx="1.5" fill="var(--cros-sys-illo-color1)" />
<rect x="156" y="84.3223" width="3" height="4.50756" rx="1.5" fill="var(--cros-sys-illo-color1)" />
<rect x="184" y="74.5059" width="3" height="24.7916" rx="1.5" fill="var(--cros-sys-illo-color1)" />
<rect x="212" y="78.7129" width="3" height="15.7765" rx="1.5" fill="var(--cros-sys-illo-color1)" />
<rect x="107" y="77.3105" width="3" height="19.1571" rx="1.5" fill="var(--cros-sys-illo-color1)" />
<rect x="135" y="74.5059" width="3" height="24.7916" rx="1.5" fill="var(--cros-sys-illo-color1)" />
<rect x="163" y="84.3223" width="3" height="4.50756" rx="1.5" fill="var(--cros-sys-illo-color1)" />
<rect x="191" y="78.0117" width="3" height="18.0302" rx="1.5" fill="var(--cros-sys-illo-color1)" />
<rect x="219" y="77" width="3" height="19" rx="1.5" fill="var(--cros-sys-illo-color1)" />
<rect x="226" y="77" width="3" height="19" rx="1.5" fill="var(--cros-sys-illo-color1)" />
<rect x="233" y="77" width="3" height="19" rx="1.5" fill="var(--cros-sys-illo-color1)" />
<rect x="240" y="77" width="3" height="19" rx="1.5" fill="var(--cros-sys-illo-color1)" />
<rect x="72" y="84.3223" width="3" height="4.50756" rx="1.5" fill="var(--cros-sys-illo-color1-1)" />
<rect x="44" y="84.3223" width="3" height="4.50756" rx="1.5" fill="var(--cros-sys-illo-color1-1)" />
<rect x="16" y="84.3223" width="3" height="4.50756" rx="1.5" fill="var(--cros-sys-illo-color1-1)" />
<rect x="58" y="84.3223" width="3" height="4.50756" rx="1.5" fill="var(--cros-sys-illo-color1-1)" />
<rect x="30" y="84.3223" width="3" height="4.50756" rx="1.5" fill="var(--cros-sys-illo-color1-1)" />
<rect x="2" y="84.3223" width="3" height="4.50756" rx="1.5" fill="var(--cros-sys-illo-color1-1)" />
<rect x="79" y="84.3223" width="3" height="4.50756" rx="1.5" fill="var(--cros-sys-illo-color1-1)" />
<rect x="51" y="84.3223" width="3" height="4.50756" rx="1.5" fill="var(--cros-sys-illo-color1-1)" />
<rect x="23" y="84.3223" width="3" height="4.50756" rx="1.5" fill="var(--cros-sys-illo-color1-1)" />
<rect x="65" y="84.3223" width="3" height="4.50756" rx="1.5" fill="var(--cros-sys-illo-color1-1)" />
<rect x="37" y="84.3223" width="3" height="4.50756" rx="1.5" fill="var(--cros-sys-illo-color1-1)" />
<rect x="9" y="84.3223" width="3" height="4.50756" rx="1.5" fill="var(--cros-sys-illo-color1-1)" />
<path d="M287 47H412C417.523 47 422 51.4772 422 57V133C422 138.523 417.523 143 412 143H287V47Z" fill="var(--cros-sys-illo-color1-1)" />
<rect x="289" y="82.9199" width="3" height="7.32478" rx="1.5" fill="var(--cros-sys-illo-base)" />
<rect x="317" y="71" width="3" height="30.9895" rx="1.5" fill="var(--cros-sys-illo-base)" />
<rect x="345" y="71" width="3" height="30.9895" rx="1.5" fill="var(--cros-sys-illo-base)" />
<rect x="373" y="79.4141" width="3" height="14.0861" rx="1.5" fill="var(--cros-sys-illo-base)" />
<rect x="401" y="71" width="3" height="30.9895" rx="1.5" fill="var(--cros-sys-illo-base)" />
<rect x="296" y="80.8164" width="3" height="12.3958" rx="1.5" fill="var(--cros-sys-illo-base)" />
<rect x="324" y="74.5059" width="3" height="24.7916" rx="1.5" fill="var(--cros-sys-illo-base)" />
<rect x="352" y="81.5176" width="3" height="10.142" rx="1.5" fill="var(--cros-sys-illo-base)" />
<rect x="380" y="80.8164" width="3" height="12.3958" rx="1.5" fill="var(--cros-sys-illo-base)" />
<rect x="408" y="80.8164" width="3" height="12.3958" rx="1.5" fill="var(--cros-sys-illo-base)" />
<rect x="303" y="83.6211" width="3" height="5.63445" rx="1.5" fill="var(--cros-sys-illo-base)" />
<rect x="331" y="79.4141" width="3" height="14.6496" rx="1.5" fill="var(--cros-sys-illo-base)" />
<rect x="359" y="84.3223" width="3" height="4.50756" rx="1.5" fill="var(--cros-sys-illo-base)" />
<rect x="387" y="74.5059" width="3" height="24.7916" rx="1.5" fill="var(--cros-sys-illo-base)" />
<rect x="415" y="78.7129" width="3" height="15.7765" rx="1.5" fill="var(--cros-sys-illo-base)" />
<rect x="310" y="77.3105" width="3" height="19.1571" rx="1.5" fill="var(--cros-sys-illo-base)" />
<rect x="338" y="74.5059" width="3" height="24.7916" rx="1.5" fill="var(--cros-sys-illo-base)" />
<rect x="366" y="84.3223" width="3" height="4.50756" rx="1.5" fill="var(--cros-sys-illo-base)" />
<rect x="394" y="78.0117" width="3" height="18.0302" rx="1.5" fill="var(--cros-sys-illo-base)" />
<rect x="492" y="84.3223" width="3" height="4.50756" rx="1.5" fill="var(--cros-sys-illo-color1-1)" />
<rect x="464" y="84.3223" width="3" height="4.50756" rx="1.5" fill="var(--cros-sys-illo-color1-1)" />
<rect x="506" y="84.3223" width="3" height="4.50756" rx="1.5" fill="var(--cros-sys-illo-color1-1)" />
<rect x="478" y="84.3223" width="3" height="4.50756" rx="1.5" fill="var(--cros-sys-illo-color1-1)" />
<rect x="450" y="84.3223" width="3" height="4.50756" rx="1.5" fill="var(--cros-sys-illo-color1-1)" />
<rect x="499" y="84.3223" width="3" height="4.50756" rx="1.5" fill="var(--cros-sys-illo-color1-1)" />
<rect x="471" y="84.3223" width="3" height="4.50756" rx="1.5" fill="var(--cros-sys-illo-color1-1)" />
<rect x="485" y="84.3223" width="3" height="4.50756" rx="1.5" fill="var(--cros-sys-illo-color1-1)" />
<rect x="457" y="84.3223" width="3" height="4.50756" rx="1.5" fill="var(--cros-sys-illo-color1-1)" />
<rect x="422" y="84.3223" width="3" height="4.50756" rx="1.5" fill="var(--cros-sys-illo-color1-1)" />
<rect x="429" y="84.3223" width="3" height="4.50756" rx="1.5" fill="var(--cros-sys-illo-color1-1)" />
<rect x="436" y="84.3223" width="3" height="4.50756" rx="1.5" fill="var(--cros-sys-illo-color1-1)" />
<rect x="443" y="84.3223" width="3" height="4.50756" rx="1.5" fill="var(--cros-sys-illo-color1-1)" />
<rect x="275" y="84.3223" width="3" height="4.50756" rx="1.5" fill="var(--cros-sys-illo-color1)" />
<rect x="247" y="81" width="3" height="11" rx="1.5" fill="var(--cros-sys-illo-color1)" />
<rect x="261" y="79" width="3" height="15" rx="1.5" fill="var(--cros-sys-illo-color1)" />
<rect x="282" y="84.3223" width="3" height="4.50756" rx="1.5" fill="var(--cros-sys-illo-color1)" />
<rect x="254" y="84.3223" width="3" height="4.50756" rx="1.5" fill="var(--cros-sys-illo-color1)" />
<rect x="268" y="80" width="3" height="13" rx="1.5" fill="var(--cros-sys-illo-color1)" />
<path d="M87.5 33L87.5 143" stroke="var(--cros-sys-illo-color1)" stroke-width="3" stroke-linecap="round" />
<path d="M86 31C86 25.4772 90.4772 21 96 21H139C144.523 21 149 25.4772 149 31V37C149 42.5228 144.523 47 139 47H88C86.8954 47 86 46.1046 86 45V31Z" fill="var(--cros-sys-illo-color1)" />
<path d="M87.5 221V237.5H225L221.5 221L213.5 204.5L200.5 186L185 171.5L169.5 167.5H158.5L154 189L133.5 169.5L112.5 180.5L96.5 197L87.5 221Z" fill="var(--cros-sys-illo-base)" />
<path fill-rule="evenodd" clip-rule="evenodd" d="M150.812 123.779C168.589 124.1 172.433 148.283 156.097 154.369L158.659 167.182L154.015 189.443L133.034 169.103C138.159 166.381 137.038 156.131 136.878 147.322H137.038C130.952 137.232 138.8 123.619 150.812 123.779Z" fill="var(--cros-sys-illo-base)" stroke="var(--cros-sys-illo-color1)" stroke-width="3" stroke-linejoin="round" />
<path d="M150.812 122.178C146.209 122.178 141.793 123.995 138.523 127.234C135.254 130.473 133.396 134.873 133.354 139.475C134.315 162.537 167.147 162.537 168.108 139.635C168.129 137.35 167.697 135.083 166.838 132.966C165.978 130.849 164.707 128.924 163.099 127.3C161.491 125.677 159.577 124.389 157.468 123.51C155.358 122.63 153.097 122.178 150.812 122.178ZM150.812 125.381C154.591 125.381 158.217 126.883 160.89 129.556C163.563 132.229 165.065 135.854 165.065 139.635C164.265 158.373 137.198 158.373 136.558 139.475C136.558 137.61 136.928 135.764 137.645 134.044C138.364 132.323 139.416 130.763 140.743 129.452C142.067 128.141 143.64 127.106 145.368 126.407C147.098 125.709 148.947 125.36 150.812 125.381Z" fill="var(--cros-sys-illo-color1)" />
<path fill-rule="evenodd" clip-rule="evenodd" d="M145.527 123.139C148.69 122.839 151.882 123.055 154.976 123.779C155.738 123.814 156.469 124.095 157.058 124.58C159.494 125.506 161.608 127.12 163.144 129.225C166.667 134.19 168.269 136.912 167.949 137.713L154.656 129.065L136.558 145.561C132.394 133.229 137.519 126.983 148.089 124.74L145.527 123.139Z" fill="var(--cros-sys-illo-color1)" />
<path fill-rule="evenodd" clip-rule="evenodd" d="M135.978 124.541C129.749 117.358 117.851 122.334 118.243 131.664C117.535 130.304 116.527 129.124 115.295 128.212C114.061 127.301 112.637 126.682 111.13 126.402C109.623 126.123 108.072 126.191 106.595 126.602C105.119 127.011 103.754 127.753 102.606 128.769C102.15 129.103 101.629 129.337 101.078 129.455C100.525 129.573 99.954 129.573 99.401 129.455C98.8496 129.337 98.3283 129.103 97.8733 128.77C97.4167 128.436 97.0372 128.01 96.7583 127.519C95.1308 125.862 92.9891 124.807 90.6837 124.526C88.3783 124.245 86.0461 124.756 84.0696 125.973L81.6302 128.11C81.2856 128.488 80.8631 128.786 80.3935 128.985C79.9224 129.183 79.4132 129.277 78.9024 129.259C78.3916 129.241 77.8905 129.112 77.4343 128.882C76.9782 128.651 76.5792 128.324 76.2617 127.923L71.5322 122.14C70.7031 121.114 69.6237 120.318 68.3982 119.83C67.1726 119.341 65.8419 119.177 64.5342 119.351C63.2266 119.526 61.9859 120.034 60.9315 120.827C59.8772 121.621 59.0446 122.672 58.5141 123.879C58.0449 125.123 57.8927 126.464 58.0711 127.781C58.2496 129.098 58.7532 130.35 59.5364 131.424C60.3195 132.498 61.3577 133.36 62.5573 133.933C63.7569 134.505 65.0801 134.77 66.4076 134.704L75.8272 133.813C76.6967 133.76 77.5563 134.016 78.2538 134.536C78.953 135.056 79.4446 135.807 79.6413 136.655C79.9376 138.406 80.7368 140.033 81.9437 141.336C82.7997 142.354 83.8523 143.189 85.0378 143.793C86.2249 144.396 87.5187 144.754 88.8466 144.847C90.1728 144.94 91.5053 144.766 92.763 144.334C94.0222 143.902 95.1805 143.222 96.1708 142.334L96.3293 142.31C96.7166 141.948 97.1821 141.678 97.6899 141.52C98.1962 141.363 98.7325 141.322 99.2587 141.401C99.7833 141.48 100.283 141.676 100.722 141.976C101.16 142.276 101.526 142.671 101.79 143.131C103.162 144.732 105.003 145.863 107.05 146.365C109.1 146.866 111.255 146.713 113.211 145.927C115.168 145.141 116.83 143.762 117.962 141.983C119.094 140.204 119.642 138.114 119.525 136.009C120.218 137.384 121.216 138.583 122.444 139.513C123.671 140.444 125.094 141.081 126.607 141.375C128.118 141.67 129.677 141.615 131.164 141.214C132.651 140.813 134.028 140.077 135.186 139.062C137.186 137.224 138.389 134.676 138.538 131.963C138.686 129.25 137.768 126.586 135.978 124.541Z" fill="var(--cros-sys-illo-color1)" />
<path d="M132.233 167.662C132.422 167.568 132.629 167.511 132.839 167.495C133.05 167.481 133.263 167.508 133.463 167.574C133.663 167.641 133.849 167.747 134.009 167.886C134.169 168.024 134.301 168.194 134.395 168.383C134.49 168.572 134.546 168.778 134.562 168.99C134.576 169.2 134.549 169.413 134.482 169.613C134.416 169.815 134.31 170 134.171 170.159C134.032 170.319 133.864 170.45 133.675 170.545C116.698 178.232 105.167 187.201 98.7605 197.451C63.8461 251.744 121.983 322.533 177.878 273.045L152.66 245.818L138.8 243.256C138.417 243.419 137.984 243.427 137.595 243.278C137.208 243.128 136.892 242.833 136.718 242.455H136.557L129.671 221.475C129.632 221.124 129.711 220.771 129.893 220.47C130.077 220.169 130.354 219.937 130.683 219.809C131.011 219.681 131.371 219.666 131.709 219.764C132.047 219.862 132.345 220.07 132.553 220.353H132.714L139.12 239.572L152.5 242.455C152.815 242.314 153.168 242.268 153.509 242.325C153.85 242.383 154.169 242.538 154.422 242.775H154.582L181.241 272.404C181.44 272.723 181.531 273.098 181.502 273.471C181.473 273.846 181.326 274.201 181.081 274.486C154.655 296.588 129.831 298.99 107.249 281.213C84.6667 263.435 77.2995 223.236 96.0378 195.689C102.764 184.959 114.936 175.67 132.233 167.662Z" fill="var(--cros-sys-illo-color1)" />
<path d="M153.534 187.842C153.937 187.742 154.362 187.805 154.721 188.015C155.079 188.223 155.344 188.564 155.456 188.963L156.577 192.806C156.897 193.927 158.018 197.611 158.178 198.572C158.339 199.533 160.1 205.299 160.741 208.342C161.382 211.385 162.342 216.349 162.983 220.193L163.624 223.717L164.104 227.72C164.151 227.922 164.154 228.13 164.112 228.332C164.071 228.536 163.987 228.726 163.866 228.894C163.744 229.061 163.588 229.2 163.407 229.301C163.228 229.402 163.028 229.465 162.823 229.482C162.421 229.53 162.017 229.425 161.691 229.188C161.364 228.949 161.14 228.597 161.061 228.201L160.581 225.158C159.94 220.834 159.139 216.029 158.178 211.865C157.302 207.164 156.181 202.513 154.815 197.931L153.053 191.685L152.413 189.763C152.35 189.363 152.427 188.953 152.631 188.602C152.836 188.253 153.154 187.984 153.534 187.842Z" fill="var(--cros-sys-illo-color1)" />
<path d="M159 167C171.5 165.667 185.553 169.5 194.5 179.5C221.7 209.9 225.5 231.5 225.5 250" stroke="var(--cros-sys-illo-color1)" stroke-width="3" />
<path d="M193 220L193 237" stroke="var(--cros-sys-illo-color1)" stroke-width="3" stroke-linecap="round" />
<path d="M164.091 145C159.654 146.743 156.045 146.967 152.212 145.671C151.461 145.418 150.681 146.039 150.95 146.785C153.599 154.137 164.091 151.521 164.091 145Z" fill="var(--cros-sys-illo-base)" stroke="var(--cros-sys-illo-color1)" stroke-width="3" />
<path d="M305.976 203.598L298.3 235.264C298.147 235.894 298.624 236.5 299.271 236.5H328.256C328.698 236.5 329.087 236.21 329.214 235.787L333.848 220.34C334.147 219.343 335.582 219.41 335.786 220.432L338.839 235.696C338.933 236.164 339.343 236.5 339.82 236.5H431.803C432.222 236.5 432.596 236.239 432.741 235.846L435.92 227.218C435.973 227.074 435.992 226.921 435.976 226.769L434.509 212.59C434.503 212.53 434.492 212.471 434.475 212.414L430.041 197.14C430.014 197.047 429.974 196.959 429.921 196.878L421.097 183.151C421.033 183.051 420.951 182.963 420.856 182.892L407.149 172.612C407.051 172.538 406.939 172.483 406.82 172.449L391.133 168.037C391.045 168.013 390.954 168 390.862 168H344.185C344.063 168 343.942 168.022 343.828 168.066L327.18 174.431C327.061 174.477 326.952 174.544 326.859 174.631L314.143 186.368C314.049 186.455 313.972 186.56 313.917 186.677L306.043 203.408C306.014 203.469 305.992 203.533 305.976 203.598Z" fill="var(--cros-sys-illo-base)" />
<path d="M434 236H451" stroke="var(--cros-sys-illo-color1-2)" stroke-width="3" stroke-linecap="round" stroke-linejoin="round" />
<path d="M336.812 203C336.812 203 333.94 215.855 339 236" stroke="var(--cros-sys-illo-color1)" stroke-width="3" stroke-miterlimit="10" stroke-linecap="round" />
<path d="M360 167.053C312.269 165.34 306.319 206.042 304.204 211.575L294 256.5L319.5 263C324.128 265.766 325.026 252.28 336 212.5" stroke="var(--cros-sys-illo-color1)" stroke-width="3" stroke-miterlimit="10" stroke-linecap="round" />
<path d="M345 196H357V203.533C357 205.446 355.304 207 353.217 207H348.783C346.696 207 345 205.565 345 203.652C345 203.652 345 203.652 345 203.533V196Z" stroke="var(--cros-sys-illo-color1)" stroke-width="3" stroke-linecap="round" stroke-linejoin="round" />
<path d="M375 276C406.685 273.348 439.579 252.662 435.685 217.522C430.986 176.547 401.449 167.928 382.384 167" stroke="var(--cros-sys-illo-color1)" stroke-width="3" stroke-miterlimit="10" stroke-linecap="round" />
<path d="M396.52 211C399.173 216.671 397.581 224.637 396.918 227.743C396.653 228.553 396.122 229.228 395.459 229.633L368 243.675L376.224 275" stroke="var(--cros-sys-illo-color1)" stroke-width="3" stroke-miterlimit="10" stroke-linecap="round" />
<path d="M362.229 156L360.924 166.858L351 167.281C351 167.281 354.264 178.14 372.153 177.999C379.857 177.858 387.038 174.05 392 167.704L380.248 166.012L378.551 156.564C378.551 156.564 365.363 158.679 362.229 156Z" fill="var(--cros-sys-illo-color1-2)" stroke="var(--cros-sys-illo-color1)" stroke-width="3" stroke-linecap="round" stroke-linejoin="round" />
<path d="M385 143.499C385 134.888 377.979 128 369.5 128C361.021 128 354 135.021 354 143.499C354 152.11 361.021 158.998 369.5 158.998C377.979 159.131 385 152.11 385 143.499Z" fill="var(--cros-sys-illo-color1-2)" stroke="var(--cros-sys-illo-color1)" stroke-width="3" stroke-linecap="round" stroke-linejoin="round" />
<path d="M388.453 135.571C388.453 135.571 399.685 133.262 400.338 128.781C401.122 123.212 383.49 130.139 383.49 130.139C383.49 130.139 397.203 123.077 394.33 118.323C391.196 113.027 378.919 127.287 378.919 127.287C378.919 127.287 389.759 110.854 384.012 109.224C376.307 106.78 371.474 125.114 371.474 125.114C371.474 125.114 373.956 114.385 369.123 114.249C364.291 114.113 365.728 125.793 365.728 125.793C365.728 125.793 362.593 114.792 358.544 116.422C354.234 118.052 360.373 127.287 360.373 127.287C360.373 127.287 353.843 119.682 351.231 122.398C348.618 125.114 356.716 130.546 356.716 130.546C347.704 129.188 343.002 131.497 344.178 134.484C345.353 137.88 356.455 135.435 356.455 135.435L367.034 138.966C369.515 141.275 372.258 143.176 375.262 144.806C378.135 146.3 381.27 147.522 384.404 148.473C384.535 147.25 384.665 146.028 384.796 144.806C384.796 144.806 392.763 157.436 396.812 153.09C399.554 150.102 390.02 141.411 390.02 141.411C398.379 146.707 403.081 145.077 403.864 143.04C405.693 137.201 388.453 135.571 388.453 135.571Z" fill="var(--cros-sys-illo-color1)" />
<path d="M365.5 150L361.5 155C361.5 155 359.5 154 358.5 152L358 151L365.5 150Z" fill="var(--cros-sys-illo-base)" />
<path d="M355 149C359.569 151.109 364.631 149.759 367.237 148.771C367.995 148.483 368.772 149.099 368.426 149.833C367.112 152.622 363.637 156.013 358 154" stroke="var(--cros-sys-illo-color1)" stroke-width="3" />
<path d="M181.206 152.014C191.888 149.837 193.485 140.845 192.714 135.22C192.628 134.589 193.102 134 193.739 134H206.826C207.442 134 207.909 134.569 207.797 135.174C204.085 155.244 191.117 156.668 180.97 154.114C179.901 153.845 180.126 152.234 181.206 152.014Z" fill="var(--cros-sys-illo-base)" />
<path d="M339.794 152.014C329.112 149.837 327.515 140.845 328.286 135.22C328.372 134.589 327.898 134 327.261 134H314.174C313.558 134 313.091 134.569 313.203 135.174C316.915 155.244 329.883 156.668 340.03 154.114C341.099 153.845 340.874 152.234 339.794 152.014Z" fill="var(--cros-sys-illo-color1-1)" />
<path d="M287 31C287 25.4772 291.477 21 297 21H340C345.523 21 350 25.4772 350 31V37C350 42.5228 345.523 47 340 47H289C287.895 47 287 46.1046 287 45V31Z" fill="var(--cros-sys-illo-base)" />
</svg>
