<svg xmlns="http://www.w3.org/2000/svg" width="300" height="100" viewBox="0 0 300 100" fill="none">
<path d="M216.82 38.5746C216.82 38.3846 216.859 38.1966 216.937 38.0231C217.014 37.8496 217.127 37.6941 217.269 37.5676C217.411 37.4411 217.578 37.3456 217.759 37.2886C217.94 37.2311 218.131 37.2126 218.32 37.2346C221.612 37.5981 224.655 39.1611 226.868 41.6256C229.081 44.0901 230.309 47.2836 230.317 50.5956C230.325 53.9076 229.113 57.1071 226.912 59.5821C224.711 62.0571 221.675 63.6351 218.385 64.0146C218.197 64.0366 218.006 64.0181 217.825 63.9611C217.644 63.9041 217.478 63.8091 217.336 63.6831C217.194 63.5571 217.081 63.4026 217.003 63.2296C216.925 63.0566 216.885 62.8691 216.885 62.6796L216.82 38.5746Z" fill="var(--cros-sys-illo-secondary)"/>
<path d="M164.36 40.9148C162.819 41.6043 161.316 42.3788 159.86 43.2348C157.817 44.3413 155.419 44.5933 153.19 43.9348C151.96 43.5158 150.709 43.1633 149.44 42.8798C144.97 42.0748 140.67 45.2548 140.55 49.8798C140.445 53.9598 143.92 57.6448 148.075 57.4548C149.99 57.3648 151.8 56.6248 153.69 56.3748C155.707 56.0823 157.763 56.5053 159.5 57.5698C161 58.4798 162.4 59.5348 164 60.2598C165.566 60.9733 167.284 61.2848 169 61.1648C171.717 60.9873 174.26 59.7683 176.1 57.7618C177.939 55.7553 178.934 53.1163 178.875 50.3943C178.816 47.6728 177.709 45.0788 175.785 43.1533C173.86 41.2283 171.267 40.1198 168.545 40.0598C167.106 40.0503 165.681 40.3413 164.36 40.9148Z" stroke="var(--cros-sys-illo-secondary)" stroke-width="1.5" stroke-miterlimit="10"/>
<path d="M113 52.15L125.64 59.65C125.937 59.826 126.275 59.9215 126.62 59.9255C126.965 59.93 127.306 59.8435 127.607 59.675C127.908 59.506 128.16 59.2615 128.337 58.9645C128.514 58.668 128.61 58.3305 128.615 57.985L128.805 43.275C128.809 42.9295 128.723 42.589 128.554 42.2875C128.385 41.986 128.14 41.7345 127.843 41.5575C127.546 41.381 127.208 41.285 126.863 41.2805C126.517 41.2755 126.177 41.3615 125.875 41.53L113.05 48.74C112.748 48.9085 112.496 49.1535 112.319 49.4505C112.142 49.747 112.047 50.085 112.041 50.4305C112.036 50.776 112.122 51.117 112.291 51.4185C112.459 51.7205 112.703 51.9725 113 52.15Z" fill="var(--cros-sys-illo-color1-2)"/>
<path d="M244.485 55.3146C247.075 55.3146 249.175 53.2146 249.175 50.6246C249.175 48.0346 247.075 45.9346 244.485 45.9346C241.894 45.9346 239.795 48.0346 239.795 50.6246C239.795 53.2146 241.894 55.3146 244.485 55.3146Z" fill="var(--cros-sys-illo-secondary)"/>
<path d="M74.945 61.3899C86.6035 61.3899 96.055 51.9384 96.055 40.2799C96.055 28.6214 86.6035 19.1699 74.945 19.1699C63.286 19.1699 53.835 28.6214 53.835 40.2799C53.835 51.9384 63.286 61.3899 74.945 61.3899Z" stroke="var(--cros-sys-illo-color1)" stroke-width="1.5" stroke-miterlimit="10"/>
<path d="M64.1552 58.4248L50.8252 80.8348" stroke="var(--cros-sys-illo-color1)" stroke-width="5.37" stroke-miterlimit="10"/>
<path d="M194.952 42.3006L189.101 48.1521C187.734 49.5186 187.734 51.7346 189.101 53.1016L194.952 58.9531C196.319 60.3196 198.535 60.3196 199.902 58.9531L205.753 53.1016C207.12 51.7346 207.12 49.5186 205.753 48.1521L199.902 42.3006C198.535 40.9336 196.319 40.9336 194.952 42.3006Z" fill="var(--cros-sys-illo-color1)"/>
</svg>