<svg xmlns="http://www.w3.org/2000/svg" width="640" height="600" viewBox="0 0 640 600" fill="none">
<path d="M350.952 303.287L374.115 301.568L400.709 303.287C393.846 342.396 386.394 390.077 389.826 432.624H357.628C345.804 396.571 350.952 343.256 350.952 303.287Z" fill="var(--cros-sys-illo-color1-1)" stroke="var(--cros-sys-illo-color1)" stroke-width="3.5" stroke-linecap="round" stroke-linejoin="round" />
<path d="M431 388.5C431 388.5 428.782 392.225 426.614 412.437C425.313 430.928 418.848 432.625 418.848 432.625" stroke="var(--cros-sys-illo-color1)" stroke-width="3.5" stroke-linecap="round" stroke-linejoin="round" />
<path d="M198.456 270.278C209.071 278.129 215.688 297.034 215.688 297.034L178.956 315.173L165.564 308.378C165.564 308.378 133.72 316.229 122.139 309.36C115.43 305.38 111.236 298.921 114.131 293.033C125.713 289.108 112.49 288.751 117.313 282.863C119.243 277.958 137.451 277.987 144.334 276.976C156.295 275.22 161.705 273.05 161.705 273.05C161.705 273.05 149.159 274.032 149.159 267.162C149.159 260.294 187.84 262.428 198.456 270.278Z" fill="var(--cros-sys-illo-color1-2)" />
<path d="M215.688 296.126C215.688 296.126 211.963 270.742 187.582 265.973C173.536 264.242 157.708 261.784 153.449 262.811C149.188 263.837 146.14 267.619 149.242 270.837C152.343 274.055 164.898 273.198 164.898 273.198C164.898 273.198 156.484 276.225 146.107 277.44C135.728 278.656 124.682 278.137 120.579 279.817C116.476 281.496 115.155 282.827 116.337 286.269C117.517 289.711 133.215 288.225 137.045 287.622" stroke="var(--cros-sys-illo-color1)" stroke-width="3.3" stroke-linecap="round" stroke-linejoin="round" />
<path d="M179.135 314.265C179.135 314.265 171.178 309.451 166.797 308.602C162.416 307.754 145.09 313.928 136.855 313.477C128.619 313.026 118.939 312.235 120.657 306.751C122.375 301.267 135.586 303.62 142.195 301.62C148.806 299.618 154.036 297.362 164.232 292.458C174.43 287.552 184.851 290.881 184.851 290.881" stroke="var(--cros-sys-illo-color1)" stroke-width="3.5" stroke-linecap="round" stroke-linejoin="round" />
<path d="M153.108 289.777C153.108 289.777 144.853 294.133 134.833 296.5C124.813 298.868 116.212 296.082 115.062 302.06C114.656 304.166 116.948 305.417 120.255 306.103" stroke="var(--cros-sys-illo-color1)" stroke-width="3.5" stroke-linecap="round" />
<path d="M324.271 377.081C324.271 377.081 308.776 420.615 251.02 420.615C193.264 420.615 159.456 325.12 159.456 325.12L217.212 297.034L252.429 357.42C304.549 297.034 329.905 302.651 391.886 302.651" stroke="var(--cros-sys-illo-color1)" stroke-width="3.5" stroke-linecap="round" stroke-linejoin="round" />
<path d="M149.48 283.429C149.48 283.429 145.287 285.635 134.047 288.909C122.806 292.18 111.384 289.314 113.444 297.36C113.765 298.616 114.988 298.924 116.28 299.754" stroke="var(--cros-sys-illo-color1)" stroke-width="3.5" stroke-linecap="round" />
<path d="M333.65 147.009L355.807 159.882C361.282 163.064 361.243 170.986 355.736 174.112L333.279 186.862C327.772 189.989 320.949 185.963 321.023 179.631L321.323 154.007C321.397 147.724 328.217 143.852 333.65 147.009Z" stroke="var(--cros-sys-illo-color3)" stroke-width="3.5" />
<path d="M220.716 165.314H324.911C335.209 165.314 343.557 173.63 343.557 183.888V235.327C343.557 245.585 335.209 253.901 324.911 253.901H270.87L238.213 286.438C235.391 289.249 230.559 287.26 230.559 283.28V253.906H220.716C210.418 253.906 202.07 245.591 202.07 235.333V183.894C202.07 173.636 210.418 165.32 220.716 165.32V165.314Z" fill="var(--cros-sys-illo-color1-2)" />
<path d="M222.811 223.895C223.124 224.003 223.409 224.177 223.649 224.405C223.889 224.632 224.078 224.908 224.204 225.215C224.329 225.522 224.387 225.852 224.375 226.185C224.364 226.517 224.282 226.843 224.135 227.143C221.587 232.407 217.198 236.563 211.808 238.818C206.419 241.073 200.407 241.267 194.924 239.364C189.441 237.461 184.87 233.594 182.088 228.504C179.306 223.413 178.507 217.456 179.844 211.772C179.92 211.448 180.063 211.142 180.264 210.875C180.466 210.609 180.72 210.387 181.012 210.224C181.304 210.062 181.626 209.962 181.957 209.932C182.288 209.902 182.622 209.942 182.935 210.049L222.811 223.895Z" fill="var(--cros-sys-illo-color5)" />
<path fill-rule="evenodd" clip-rule="evenodd" d="M322.945 164.976L322.773 179.651C322.715 184.633 328.083 187.8 332.415 185.34L343.202 179.216C343.494 180.42 343.668 181.669 343.712 182.951L334.143 188.384C327.462 192.178 319.184 187.293 319.273 179.61L319.445 164.976H322.945Z" fill="var(--cros-sys-illo-base)" />
<path d="M325.013 353.265C323.586 356.672 322.016 369.105 327.155 391.587C333.578 419.69 326.298 432.464 354.134 432.89C376.402 433.231 405.951 433.032 417.941 432.89" stroke="var(--cros-sys-illo-color1)" stroke-width="3.5" stroke-linecap="round" stroke-linejoin="round" />
<path d="M391.886 302.65C448.093 304.4 479 340 496 379C505.154 400 511.5 419 514.5 455.5" stroke="var(--cros-sys-illo-color1)" stroke-width="3.5" stroke-linecap="round" stroke-linejoin="round" />
<path d="M424.5 360C428.5 380.5 443.7 444.4 444.5 456" stroke="var(--cros-sys-illo-color1)" stroke-width="3.5" stroke-linecap="round" stroke-linejoin="round" />
<path d="M341.756 432.171C338.531 440.857 333.467 453.678 332.5 457.5" stroke="var(--cros-sys-illo-color1)" stroke-width="3.5" stroke-linecap="round" stroke-linejoin="round" />
<path d="M418.848 433.078C425.035 439.837 431 446.5 434.5 456.5" stroke="var(--cros-sys-illo-color1)" stroke-width="3.5" stroke-linecap="round" stroke-linejoin="round" />
<path d="M374.596 289.544C367.842 290.43 361.71 287.402 361.71 287.402L362.455 301.435C362.455 301.435 362.455 311.15 372.891 311.51C382.955 312.229 388.918 301.795 388.918 301.795L385.023 285.243C385.023 285.243 381.349 288.659 374.596 289.544Z" fill="var(--cros-sys-illo-color1-2)" stroke="var(--cros-sys-illo-color1)" stroke-width="3.5" stroke-linecap="round" stroke-linejoin="round" />
<path d="M373.5 291.591C387.024 291.591 397.988 280.628 397.988 267.103C397.988 253.579 387.024 242.615 373.5 242.615C359.976 242.615 349.012 253.579 349.012 267.103C349.012 280.628 359.976 291.591 373.5 291.591Z" fill="var(--cros-sys-illo-color1-2)" stroke="var(--cros-sys-illo-color1)" stroke-width="3.5" />
<path d="M367.851 252.204C367.851 252.204 361.443 257.108 350.826 256.998C354.133 250.452 364.59 233.363 386.902 246.61C401.9 254.201 398.091 274.576 395.82 276.174C370.484 270.181 367.851 252.204 367.851 252.204Z" fill="var(--cros-sys-illo-color1)" />
<path d="M355.415 272.206C357.307 276.26 362.298 278.083 366.446 276.191" stroke="var(--cros-sys-illo-color1)" stroke-width="3.5" stroke-linecap="round" stroke-linejoin="round" />
<path d="M383.62 235.163C384.728 223.01 395.54 213.966 407.461 215.096C414.116 215.662 419.938 219.619 423.542 224.706C423.264 223.01 423.264 221.314 423.542 219.336C424.65 207.183 435.462 198.138 447.383 199.269C451.819 199.834 455.7 196.16 455.978 191.638C455.978 191.072 455.978 190.507 456.256 189.942C457.642 179.484 466.237 171.571 476.493 170.723C478.989 170.44 481.206 170.723 483.424 171.288C487.861 172.418 492.296 169.027 492.851 164.222L493.96 147.829C494.791 135.111 508.376 127.762 518.911 134.545C529.445 141.046 529.445 156.874 518.633 163.374L500.89 174.114C497.564 176.093 496.178 180.332 497.842 184.007C499.226 187.398 500.059 191.355 499.504 195.312C498.395 207.465 487.583 216.51 475.662 215.379H475.385C470.949 214.814 467.068 218.205 466.79 222.728C466.79 223.01 466.79 223.576 466.79 223.858C465.681 236.011 454.869 245.056 442.948 243.925C436.294 243.36 430.472 239.403 426.868 234.316C427.146 236.011 427.146 237.707 426.868 239.686C425.759 251.839 414.947 260.883 403.026 259.753C391.105 258.34 382.233 247.317 383.62 235.163Z" fill="var(--cros-sys-illo-color1)" />
<path d="M388.546 186.559C393.354 185.559 396.441 180.851 395.442 176.043C394.442 171.235 389.735 168.148 384.927 169.147C380.119 170.146 377.031 174.854 378.03 179.662C379.03 184.47 383.738 187.558 388.546 186.559Z" fill="var(--cros-sys-illo-color2)" />
<path d="M151.204 133.166C154.373 130.4 159.098 130.4 162.267 133.166L165.086 135.626C166.471 136.835 168.214 137.557 170.047 137.681L173.781 137.935C177.977 138.22 181.318 141.561 181.603 145.758L181.857 149.491C181.982 151.325 182.704 153.067 183.912 154.452L186.373 157.272C189.138 160.441 189.138 165.165 186.373 168.335L183.912 171.154C182.704 172.539 181.982 174.281 181.857 176.115L181.603 179.848C181.318 184.045 177.977 187.386 173.781 187.671L170.047 187.925C168.214 188.049 166.471 188.771 165.086 189.98L162.267 192.44C159.098 195.206 154.373 195.206 151.204 192.44L148.385 189.98C147 188.771 145.257 188.049 143.424 187.925L139.69 187.671C135.494 187.386 132.153 184.045 131.868 179.848L131.614 176.115C131.489 174.281 130.767 172.539 129.559 171.154L127.098 168.335C124.333 165.165 124.333 160.441 127.098 157.272L129.559 154.452C130.767 153.067 131.489 151.325 131.614 149.491L131.868 145.758C132.153 141.561 135.494 138.22 139.69 137.935L143.424 137.681C145.257 137.557 147 136.835 148.385 135.626L151.204 133.166Z" fill="var(--cros-sys-illo-color1-1)" />
</svg>
