<svg id="error" xmlns="http://www.w3.org/2000/svg" width="400" height="168" viewBox="0 0 400 168" fill="none">
<path d="M114.288 89.2796C118.977 89.2796 122.778 85.4757 122.778 80.7834C122.778 76.091 118.977 72.2871 114.288 72.2871C109.598 72.2871 105.797 76.091 105.797 80.7834C105.797 85.4757 109.598 89.2796 114.288 89.2796Z" stroke="var(--cros-sys-illo-color5)" stroke-width="3" stroke-linecap="round" stroke-linejoin="round" />
<path d="M288.717 93.6144C288.715 94.0766 288.608 94.5324 288.405 94.9474C288.202 95.3624 287.907 95.7259 287.543 96.0103C287.179 96.2948 286.755 96.4929 286.303 96.5896C285.852 96.6864 285.384 96.6793 284.936 96.5689C281.406 95.6988 278.27 93.67 276.028 90.8066C273.786 87.9432 272.567 84.4105 272.567 80.7729C272.567 77.1353 273.786 73.6026 276.028 70.7392C278.27 67.8759 281.406 65.8471 284.936 64.9769C285.384 64.8656 285.853 64.8578 286.305 64.9541C286.757 65.0504 287.182 65.2483 287.547 65.5329C287.911 65.8175 288.207 66.1813 288.41 66.5968C288.614 67.0123 288.72 67.4687 288.722 67.9314L288.717 93.6144Z" fill="var(--cros-sys-illo-color4)" />
<path d="M312.734 68.5359L303.323 77.9539C301.877 79.4008 301.877 81.7467 303.323 83.1936L312.734 92.6115C314.18 94.0584 316.525 94.0584 317.97 92.6115L327.382 83.1935C328.828 81.7467 328.828 79.4008 327.382 77.9539L317.97 68.5359C316.525 67.089 314.18 67.089 312.734 68.5359Z" stroke="var(--cros-sys-illo-color3)" stroke-width="3" stroke-linecap="round" stroke-linejoin="round" />
<path d="M171.885 99.9062C168.456 102.066 164.509 103.262 160.459 103.37C156.409 103.478 152.404 102.494 148.865 100.52C145.326 98.5462 142.382 95.656 140.343 92.1524C138.305 88.6487 137.245 84.6607 137.276 80.6064C137.308 76.552 138.429 72.5808 140.521 69.1091C142.614 65.6374 145.602 62.793 149.171 60.8743C152.74 58.9555 156.759 58.0331 160.807 58.2036C164.856 58.3741 168.783 59.6314 172.179 61.8436C171.296 62.5131 170.46 63.2425 169.677 64.0267C167.275 66.4299 165.411 69.3164 164.208 72.4951C163.005 75.6737 162.491 79.0719 162.7 82.4644C162.909 85.8569 163.836 89.1662 165.419 92.1732C167.002 95.1802 169.206 97.816 171.885 99.9062V99.9062Z" fill="var(--cros-sys-illo-color4)" />
<path d="M182.437 80.7832C182.439 84.6039 181.473 88.3628 179.627 91.7076C177.782 95.0523 175.118 97.8734 171.885 99.9064C169.207 97.8162 167.003 95.1803 165.419 92.1734C163.836 89.1664 162.909 85.8571 162.7 82.4646C162.491 79.0721 163.005 75.6739 164.208 72.4953C165.411 69.3166 167.275 66.4301 169.677 64.0269C170.46 63.2427 171.296 62.5133 172.179 61.8438C175.331 63.8947 177.921 66.7017 179.712 70.0095C181.504 73.3173 182.44 77.0209 182.437 80.7832V80.7832Z" fill="var(--cros-sys-illo-color5)" />
<path d="M258.971 80.9879C258.97 87.3504 256.443 93.4518 251.947 97.9503C247.45 102.449 241.352 104.976 234.994 104.976H186.627C181.284 104.985 176.093 103.2 171.885 99.9064C175.09 97.8863 177.737 95.0918 179.58 91.7802C181.423 88.4685 182.405 84.7461 182.434 80.9555C182.463 77.1648 181.54 73.4277 179.747 70.088C177.955 66.7483 175.352 63.9132 172.179 61.8438C176.337 58.6935 181.411 56.9923 186.627 57H234.994C238.143 56.9993 241.26 57.6193 244.169 58.8245C247.078 60.0297 249.722 61.7965 251.948 64.0241C254.175 66.2516 255.941 68.8963 257.146 71.8069C258.351 74.7176 258.971 77.8374 258.971 80.9879V80.9879Z" fill="var(--cros-sys-illo-secondary)" />
<path d="M91.8738 79.2719L72.6222 68.1517C72.3577 67.9945 72.0563 67.9105 71.7487 67.9083C71.4411 67.906 71.1385 67.9855 70.8717 68.1387C70.605 68.292 70.3837 68.5134 70.2305 68.7803C70.0773 69.0472 69.9978 69.3501 70 69.6578V91.9087C69.9978 92.2165 70.0773 92.5193 70.2305 92.7863C70.3837 93.0532 70.605 93.2746 70.8717 93.4278C71.1385 93.581 71.4411 93.6606 71.7487 93.6583C72.0563 93.656 72.3577 93.572 72.6222 93.4148L91.8738 82.2946C92.1397 82.1421 92.3606 81.922 92.5142 81.6566C92.6679 81.3912 92.7488 81.09 92.7488 80.7833C92.7488 80.4766 92.6679 80.1753 92.5142 79.9099C92.3606 79.6446 92.1397 79.4245 91.8738 79.2719V79.2719Z" fill="var(--cros-sys-illo-color3)" />
</svg>