<svg id="offline" xmlns="http://www.w3.org/2000/svg" width="400" height="168" viewBox="0 0 400 168" fill="none">
<path d="M141.831 126.794L139.31 119.448C138.85 118.109 137.39 117.395 136.049 117.854L128.687 120.371C127.346 120.829 126.631 122.286 127.09 123.625L129.612 130.972C130.072 132.311 131.532 133.024 132.873 132.565L140.235 130.049C141.576 129.59 142.291 128.133 141.831 126.794Z" fill="var(--cros-sys-illo-color1)" />
<path d="M104.335 80.1436C103.482 79.9117 102.605 79.7783 101.721 79.7459L98.9054 79.3155C96.5678 78.9308 94.4477 77.7177 92.9339 75.8989C90.7452 73.4082 89.2948 70.3502 85.7472 69.6199C84.3687 69.3328 82.9388 69.411 81.6 69.8469C80.2611 70.2827 79.06 71.061 78.1163 72.1041C78.0183 72.2084 77.9203 72.3258 77.8288 72.4367C77.1104 73.3524 76.5993 74.4126 76.3306 75.5443C76.062 76.6759 76.0421 77.8523 76.2725 78.9924C76.5028 80.1324 76.9778 81.2092 77.6649 82.1485C78.352 83.0879 79.2349 83.8676 80.2527 84.4339C81.4875 85.1251 82.866 85.6206 84.1269 86.1879C86.4309 87.1938 88.242 89.0692 89.1641 91.4041L90.2029 94.0513C90.7112 95.9917 91.722 97.7644 93.134 99.1915C94.5459 100.619 96.3093 101.65 98.2469 102.182C100.185 102.713 102.228 102.727 104.173 102.221C106.117 101.715 107.894 100.707 109.325 99.2991C110.756 97.8909 111.791 96.1318 112.325 94.1983C112.859 92.2649 112.874 90.2253 112.368 88.2843C111.862 86.3433 110.854 84.5692 109.444 83.1403C108.034 81.7114 106.271 80.6779 104.335 80.1436V80.1436Z" stroke="var(--cros-sys-illo-secondary)" stroke-width="3" stroke-linecap="round" stroke-linejoin="round" />
<path d="M367.308 80.3001C369.924 80.3001 372.045 78.1837 372.045 75.5729C372.045 72.9621 369.924 70.8457 367.308 70.8457C364.692 70.8457 362.571 72.9621 362.571 75.5729C362.571 78.1837 364.692 80.3001 367.308 80.3001Z" fill="var(--cros-sys-illo-secondary)" />
<path d="M308.423 119.252C310.004 119.252 311.285 117.973 311.285 116.396C311.285 114.819 310.004 113.54 308.423 113.54C306.843 113.54 305.562 114.819 305.562 116.396C305.562 117.973 306.843 119.252 308.423 119.252Z" fill="var(--cros-sys-illo-color1)" />
<path d="M31 65.4044C33.2091 65.4044 35 63.6171 35 61.4124C35 59.2077 33.2091 57.4204 31 57.4204C28.7909 57.4204 27 59.2077 27 61.4124C27 63.6171 28.7909 65.4044 31 65.4044Z" fill="var(--cros-sys-illo-color1)" />
<path d="M262.624 108.852L255.438 113.612C254.863 113.985 254.397 114.504 254.09 115.116C253.782 115.728 253.643 116.41 253.687 117.094L254.209 125.707C254.25 126.382 254.469 127.035 254.843 127.599C255.217 128.163 255.733 128.619 256.339 128.921L264.081 132.742C264.687 133.046 265.362 133.185 266.039 133.145C266.716 133.104 267.37 132.887 267.936 132.514L275.123 127.754C275.687 127.38 276.144 126.865 276.446 126.259C276.749 125.654 276.887 124.98 276.847 124.305L276.325 115.685C276.282 115.01 276.063 114.358 275.69 113.794C275.316 113.23 274.8 112.774 274.195 112.471L266.479 108.617C265.872 108.315 265.197 108.178 264.52 108.219C263.843 108.26 263.19 108.479 262.624 108.852V108.852Z" stroke="var(--cros-sys-illo-secondary)" stroke-width="2" stroke-linecap="round" stroke-linejoin="round" />
<path d="M51.8982 96.4834H39.1843C39.0492 96.4852 38.917 96.5224 38.8009 96.5913C38.6848 96.6602 38.5888 96.7583 38.5226 96.8759C38.4565 96.9934 38.4224 97.1262 38.4239 97.2611C38.4253 97.3959 38.4623 97.5279 38.531 97.644L44.8814 108.618C44.9495 108.73 45.0455 108.822 45.1599 108.886C45.2743 108.951 45.4034 108.984 45.5347 108.984C45.666 108.984 45.7951 108.951 45.9095 108.886C46.024 108.822 46.1199 108.73 46.188 108.618L52.545 97.631C52.6102 97.5157 52.6446 97.3856 52.6447 97.2532C52.6449 97.1208 52.6108 96.9906 52.5457 96.8752C52.4807 96.7598 52.3869 96.6631 52.2735 96.5945C52.16 96.5258 52.0308 96.4876 51.8982 96.4834V96.4834Z" fill="var(--cros-sys-illo-color1-2)" />
<path d="M300.394 85.5159C300.255 85.6541 300.148 85.8207 300.08 86.0042C300.012 86.1876 299.984 86.3837 299.999 86.5788C300.014 86.7739 300.071 86.9635 300.166 87.1346C300.262 87.3056 300.393 87.4541 300.551 87.5698C302.585 89.0877 305.098 89.8269 307.632 89.6531C310.166 89.4793 312.553 88.404 314.36 86.6226C316.167 84.8412 317.274 82.4719 317.48 79.9453C317.685 77.4186 316.975 74.9023 315.48 72.8535C315.365 72.6948 315.218 72.5625 315.047 72.4657C314.877 72.3689 314.688 72.3098 314.492 72.2925C314.297 72.2751 314.1 72.3 313.916 72.3653C313.731 72.4306 313.562 72.5348 313.422 72.6709L300.394 85.5159Z" fill="var(--cros-sys-illo-color1-2)" />
<path d="M318.504 80.6978C317.09 80.9782 315.635 80.9755 314.223 80.6899C312.81 80.4042 311.469 79.8413 310.276 79.0339C309.083 78.2264 308.063 77.1905 307.275 75.9863C306.487 74.7822 305.947 73.4337 305.685 72.0193L305.653 71.8432C305.111 68.998 305.722 66.0545 307.352 63.6586C308.983 61.2627 311.499 59.6101 314.349 59.0635V59.0635C317.202 58.5188 320.156 59.1268 322.561 60.7541C324.965 62.3813 326.624 64.8947 327.173 67.742L327.206 67.918C327.75 70.7644 327.138 73.7096 325.506 76.1061C323.874 78.5027 321.356 80.1543 318.504 80.6978V80.6978Z" stroke="var(--cros-sys-illo-color1)" stroke-width="2" stroke-linecap="round" stroke-linejoin="round" stroke-dasharray="2 3" />
<path d="M255.621 73.6167L247.918 65.9228C235.135 53.1664 217.798 46 199.721 46C181.644 46 164.308 53.1664 151.525 65.9228L143.822 73.6167C143.232 74.2052 142.764 74.904 142.445 75.6732C142.125 76.4424 141.961 77.2668 141.961 78.0994C141.961 78.9319 142.125 79.7564 142.445 80.5255C142.764 81.2947 143.232 81.9935 143.822 82.582L157.059 95.7986C157.237 95.5376 157.438 95.2931 157.66 95.0684L163.455 89.2849C173.073 79.6891 186.115 74.2985 199.715 74.2985C213.314 74.2985 226.357 79.6891 235.975 89.2849L241.77 95.0684C241.992 95.2931 242.193 95.5376 242.371 95.7986L255.608 82.582C256.199 81.9943 256.668 81.2962 256.988 80.5275C257.309 79.7588 257.474 78.9346 257.475 78.1021C257.477 77.2695 257.313 76.4448 256.995 75.6752C256.677 74.9056 256.21 74.2061 255.621 73.6167Z" fill="var(--cros-sys-illo-color1-2)" />
<path d="M235.988 89.2847C226.371 79.6889 213.328 74.2983 199.728 74.2983C186.129 74.2983 173.086 79.6889 163.468 89.2847L157.673 95.0682C157.451 95.2929 157.25 95.5374 157.072 95.7984L175.104 113.834L176.607 112.334C179.641 109.302 183.244 106.896 187.21 105.255C191.176 103.614 195.428 102.769 199.722 102.769C204.015 102.769 208.267 103.614 212.233 105.255C216.2 106.896 219.803 109.302 222.837 112.334L224.339 113.834L242.384 95.8245C242.207 95.5634 242.005 95.319 241.783 95.0942L235.988 89.2847Z" fill="var(--cros-sys-illo-color1-1)" />
<path d="M204.217 133.89L224.34 113.808L222.837 112.308C219.803 109.276 216.2 106.87 212.234 105.229C208.267 103.588 204.016 102.743 199.722 102.743C195.428 102.743 191.177 103.588 187.211 105.229C183.244 106.87 179.641 109.276 176.607 112.308L175.105 113.808L195.227 133.89C196.419 135.08 198.036 135.748 199.722 135.748C201.408 135.748 203.025 135.08 204.217 133.89Z" fill="var(--cros-sys-illo-color1)" />
</svg>