<svg width="400" height="168" viewBox="0 0 400 168" fill="none" xmlns="http://www.w3.org/2000/svg">
<path d="M114.287 89.2796C118.977 89.2796 122.778 85.4757 122.778 80.7833C122.778 76.091 118.977 72.287 114.287 72.287C109.598 72.287 105.797 76.091 105.797 80.7833C105.797 85.4757 109.598 89.2796 114.287 89.2796Z" stroke="#F882FE" stroke-width="3" stroke-linecap="round" stroke-linejoin="round"/>
<path d="M288.717 93.6142C288.715 94.0764 288.608 94.5322 288.405 94.9472C288.202 95.3623 287.907 95.7257 287.543 96.0102C287.179 96.2946 286.755 96.4927 286.303 96.5895C285.852 96.6862 285.384 96.6791 284.936 96.5687C281.406 95.6986 278.27 93.6698 276.028 90.8064C273.786 87.943 272.567 84.4104 272.567 80.7727C272.567 77.1351 273.786 73.6024 276.028 70.7391C278.27 67.8757 281.406 65.8469 284.936 64.9767C285.384 64.8654 285.853 64.8576 286.305 64.9539C286.757 65.0502 287.182 65.2482 287.547 65.5327C287.911 65.8173 288.207 66.1811 288.41 66.5966C288.614 67.0121 288.72 67.4685 288.722 67.9312L288.717 93.6142Z" fill="#EA4335"/>
<path d="M312.734 68.5357L303.323 77.9537C301.877 79.4005 301.877 81.7464 303.323 83.1933L312.734 92.6113C314.18 94.0582 316.525 94.0582 317.97 92.6113L327.382 83.1933C328.828 81.7464 328.828 79.4005 327.382 77.9537L317.97 68.5357C316.525 67.0888 314.18 67.0888 312.734 68.5357Z" stroke="#FCC934" stroke-width="3" stroke-linecap="round" stroke-linejoin="round"/>
<path d="M171.885 99.9064C168.456 102.066 164.509 103.262 160.459 103.37C156.409 103.478 152.404 102.494 148.865 100.52C145.326 98.5464 142.382 95.6563 140.343 92.1526C138.304 88.649 137.245 84.6609 137.276 80.6066C137.308 76.5523 138.428 72.5811 140.521 69.1094C142.614 65.6376 145.602 62.7933 149.171 60.8745C152.74 58.9558 156.759 58.0333 160.807 58.2038C164.855 58.3744 168.783 59.6316 172.179 61.8438C171.296 62.5134 170.46 63.2428 169.677 64.0269C167.275 66.4301 165.411 69.3167 164.208 72.4953C163.005 75.674 162.491 79.0721 162.7 82.4646C162.909 85.8571 163.835 89.1665 165.419 92.1734C167.002 95.1804 169.206 97.8163 171.885 99.9064V99.9064Z" fill="#EA4335"/>
<path d="M182.437 80.7832C182.44 84.6039 181.473 88.3628 179.627 91.7076C177.782 95.0523 175.118 97.8734 171.885 99.9064C169.207 97.8162 167.003 95.1803 165.419 92.1734C163.836 89.1664 162.909 85.8571 162.7 82.4646C162.491 79.0721 163.006 75.6739 164.208 72.4953C165.411 69.3166 167.275 66.4301 169.677 64.0269C170.46 63.2427 171.296 62.5133 172.179 61.8438C175.331 63.8947 177.921 66.7017 179.712 70.0095C181.504 73.3173 182.44 77.0209 182.437 80.7832V80.7832Z" fill="#F882FE"/>
<path d="M258.971 80.9879C258.97 87.3504 256.443 93.4518 251.947 97.9503C247.45 102.449 241.353 104.976 234.994 104.976H186.627C181.284 104.985 176.093 103.2 171.885 99.9064C175.09 97.8863 177.737 95.0918 179.58 91.7802C181.424 88.4685 182.405 84.7461 182.434 80.9555C182.464 77.1648 181.54 73.4277 179.747 70.088C177.955 66.7483 175.353 63.9132 172.179 61.8438C176.337 58.6935 181.411 56.9923 186.627 57H234.994C238.143 56.9993 241.261 57.6193 244.17 58.8245C247.078 60.0297 249.722 61.7965 251.948 64.0241C254.175 66.2516 255.941 68.8963 257.146 71.8069C258.351 74.7176 258.971 77.8374 258.971 80.9879V80.9879Z" fill="#5F6368"/>
<path d="M91.8738 79.272L72.6222 68.1518C72.3577 67.9946 72.0563 67.9106 71.7487 67.9083C71.4411 67.906 71.1385 67.9856 70.8717 68.1388C70.605 68.292 70.3837 68.5134 70.2305 68.7803C70.0773 69.0473 69.9978 69.3501 70 69.6579V91.9088C69.9978 92.2165 70.0773 92.5194 70.2305 92.7863C70.3837 93.0532 70.605 93.2746 70.8717 93.4279C71.1385 93.5811 71.4411 93.6606 71.7487 93.6583C72.0563 93.6561 72.3577 93.5721 72.6222 93.4149L91.8738 82.2947C92.1397 82.1421 92.3606 81.922 92.5142 81.6567C92.6679 81.3913 92.7488 81.09 92.7488 80.7833C92.7488 80.4766 92.6679 80.1754 92.5142 79.91C92.3606 79.6446 92.1397 79.4245 91.8738 79.272V79.272Z" fill="#FCC934"/>
</svg>
