<?xml version="1.0" encoding="UTF-8"?>
<!--Generator: Apple Native CoreSVG 175.5-->
<!DOCTYPE svg
PUBLIC "-//W3C//DTD SVG 1.1//EN"
       "http://www.w3.org/Graphics/SVG/1.1/DTD/svg11.dtd">
<svg version="1.1" xmlns="http://www.w3.org/2000/svg" xmlns:xlink="http://www.w3.org/1999/xlink" width="3300" height="2200">
 <!--glyph: "", point size: 100.0, font version: "18.0d12e2", template writer version: "101"-->
 <style>.hierarchical-0:secondary {fill:#4D4D4D}
.hierarchical-1:primary {fill:#212121}

.SFSymbolsPreview212121 {fill:#212121;opacity:1.0}
.SFSymbolsPreview4D4D4D {fill:#4D4D4D;opacity:1.0}
.SFSymbolsPreviewFFFFFF {fill:#FFFFFF;opacity:1.0}
</style>
 <g id="Notes">
  <rect height="2200" id="artboard" style="fill:white;opacity:1" width="3300" x="0" y="0"/>
  <line style="fill:none;stroke:black;opacity:1;stroke-width:0.5;" x1="263" x2="3036" y1="292" y2="292"/>
  <text style="stroke:none;fill:black;font-family:sans-serif;font-size:13;font-weight:bold;" transform="matrix(1 0 0 1 263 322)">Weight/Scale Variations</text>
  <text style="stroke:none;fill:black;font-family:sans-serif;font-size:13;text-anchor:middle;" transform="matrix(1 0 0 1 559.711 322)">Ultralight</text>
  <text style="stroke:none;fill:black;font-family:sans-serif;font-size:13;text-anchor:middle;" transform="matrix(1 0 0 1 856.422 322)">Thin</text>
  <text style="stroke:none;fill:black;font-family:sans-serif;font-size:13;text-anchor:middle;" transform="matrix(1 0 0 1 1153.13 322)">Light</text>
  <text style="stroke:none;fill:black;font-family:sans-serif;font-size:13;text-anchor:middle;" transform="matrix(1 0 0 1 1449.84 322)">Regular</text>
  <text style="stroke:none;fill:black;font-family:sans-serif;font-size:13;text-anchor:middle;" transform="matrix(1 0 0 1 1746.56 322)">Medium</text>
  <text style="stroke:none;fill:black;font-family:sans-serif;font-size:13;text-anchor:middle;" transform="matrix(1 0 0 1 2043.27 322)">Semibold</text>
  <text style="stroke:none;fill:black;font-family:sans-serif;font-size:13;text-anchor:middle;" transform="matrix(1 0 0 1 2339.98 322)">Bold</text>
  <text style="stroke:none;fill:black;font-family:sans-serif;font-size:13;text-anchor:middle;" transform="matrix(1 0 0 1 2636.69 322)">Heavy</text>
  <text style="stroke:none;fill:black;font-family:sans-serif;font-size:13;text-anchor:middle;" transform="matrix(1 0 0 1 2933.4 322)">Black</text>
  <line style="fill:none;stroke:black;opacity:1;stroke-width:0.5;" x1="263" x2="3036" y1="1903" y2="1903"/>
  <g transform="matrix(1 0 0 1 263 1933)">
   <path d="M9.24805 0.830078C13.5547 0.830078 17.1387-2.74414 17.1387-7.05078C17.1387-11.3574 13.5449-14.9316 9.23828-14.9316C4.94141-14.9316 1.36719-11.3574 1.36719-7.05078C1.36719-2.74414 4.95117 0.830078 9.24805 0.830078ZM9.24805-0.654297C5.70312-0.654297 2.87109-3.49609 2.87109-7.05078C2.87109-10.6055 5.69336-13.4473 9.23828-13.4473C12.793-13.4473 15.6445-10.6055 15.6445-7.05078C15.6445-3.49609 12.8027-0.654297 9.24805-0.654297ZM5.6543-7.05078C5.6543-6.62109 5.95703-6.32812 6.40625-6.32812L8.50586-6.32812L8.50586-4.20898C8.50586-3.76953 8.79883-3.4668 9.22852-3.4668C9.67773-3.4668 9.9707-3.76953 9.9707-4.20898L9.9707-6.32812L12.0898-6.32812C12.5293-6.32812 12.832-6.62109 12.832-7.05078C12.832-7.49023 12.5293-7.79297 12.0898-7.79297L9.9707-7.79297L9.9707-9.90234C9.9707-10.3516 9.67773-10.6543 9.22852-10.6543C8.79883-10.6543 8.50586-10.3516 8.50586-9.90234L8.50586-7.79297L6.40625-7.79297C5.95703-7.79297 5.6543-7.49023 5.6543-7.05078Z"/>
  </g>
  <g transform="matrix(1 0 0 1 281.867 1933)">
   <path d="M11.709 2.91016C17.1582 2.91016 21.6699-1.61133 21.6699-7.05078C21.6699-12.5 17.1484-17.0117 11.6992-17.0117C6.25977-17.0117 1.74805-12.5 1.74805-7.05078C1.74805-1.61133 6.26953 2.91016 11.709 2.91016ZM11.709 1.25C7.09961 1.25 3.41797-2.44141 3.41797-7.05078C3.41797-11.6602 7.08984-15.3516 11.6992-15.3516C16.3086-15.3516 20.0098-11.6602 20.0098-7.05078C20.0098-2.44141 16.3184 1.25 11.709 1.25ZM7.17773-7.05078C7.17773-6.57227 7.50977-6.25 8.00781-6.25L10.8789-6.25L10.8789-3.36914C10.8789-2.88086 11.2109-2.53906 11.6895-2.53906C12.1777-2.53906 12.5195-2.87109 12.5195-3.36914L12.5195-6.25L15.4004-6.25C15.8887-6.25 16.2305-6.57227 16.2305-7.05078C16.2305-7.53906 15.8887-7.88086 15.4004-7.88086L12.5195-7.88086L12.5195-10.752C12.5195-11.25 12.1777-11.5918 11.6895-11.5918C11.2109-11.5918 10.8789-11.25 10.8789-10.752L10.8789-7.88086L8.00781-7.88086C7.50977-7.88086 7.17773-7.53906 7.17773-7.05078Z"/>
  </g>
  <g transform="matrix(1 0 0 1 305.646 1933)">
   <path d="M14.9707 5.66406C21.9336 5.66406 27.6953-0.0976562 27.6953-7.05078C27.6953-14.0137 21.9238-19.7754 14.9609-19.7754C8.00781-19.7754 2.25586-14.0137 2.25586-7.05078C2.25586-0.0976562 8.01758 5.66406 14.9707 5.66406ZM14.9707 3.84766C8.93555 3.84766 4.08203-1.01562 4.08203-7.05078C4.08203-13.0957 8.92578-17.9492 14.9609-17.9492C21.0059-17.9492 25.8691-13.0957 25.8691-7.05078C25.8691-1.01562 21.0156 3.84766 14.9707 3.84766ZM9.19922-7.05078C9.19922-6.5332 9.57031-6.17188 10.1172-6.17188L14.0625-6.17188L14.0625-2.2168C14.0625-1.67969 14.4336-1.29883 14.9512-1.29883C15.4883-1.29883 15.8594-1.66992 15.8594-2.2168L15.8594-6.17188L19.8145-6.17188C20.3516-6.17188 20.7324-6.5332 20.7324-7.05078C20.7324-7.59766 20.3613-7.96875 19.8145-7.96875L15.8594-7.96875L15.8594-11.9141C15.8594-12.4609 15.4883-12.8418 14.9512-12.8418C14.4336-12.8418 14.0625-12.4609 14.0625-11.9141L14.0625-7.96875L10.1172-7.96875C9.57031-7.96875 9.19922-7.59766 9.19922-7.05078Z"/>
  </g>
  <text style="stroke:none;fill:black;font-family:sans-serif;font-size:13;font-weight:bold;" transform="matrix(1 0 0 1 263 1953)">Design Variations</text>
  <text style="stroke:none;fill:black;font-family:sans-serif;font-size:13;" transform="matrix(1 0 0 1 263 1971)">Symbols are supported in up to nine weights and three scales.</text>
  <text style="stroke:none;fill:black;font-family:sans-serif;font-size:13;" transform="matrix(1 0 0 1 263 1989)">For optimal layout with text and other symbols, vertically align</text>
  <text style="stroke:none;fill:black;font-family:sans-serif;font-size:13;" transform="matrix(1 0 0 1 263 2007)">symbols with the adjacent text.</text>
  <line style="fill:none;stroke:#00AEEF;stroke-width:0.5;opacity:1.0;" x1="776" x2="776" y1="1919" y2="1933"/>
  <g transform="matrix(1 0 0 1 776 1933)">
   <path d="M3.31055 0.15625C3.82812 0.15625 4.08203-0.0390625 4.26758-0.585938L5.52734-4.0332L11.2891-4.0332L12.5488-0.585938C12.7344-0.0390625 12.9883 0.15625 13.4961 0.15625C14.0137 0.15625 14.3457-0.15625 14.3457-0.644531C14.3457-0.810547 14.3164-0.966797 14.2383-1.17188L9.6582-13.3691C9.43359-13.9648 9.0332-14.2676 8.4082-14.2676C7.80273-14.2676 7.39258-13.9746 7.17773-13.3789L2.59766-1.16211C2.51953-0.957031 2.49023-0.800781 2.49023-0.634766C2.49023-0.146484 2.80273 0.15625 3.31055 0.15625ZM6.00586-5.51758L8.37891-12.0898L8.42773-12.0898L10.8008-5.51758Z"/>
  </g>
  <line style="fill:none;stroke:#00AEEF;stroke-width:0.5;opacity:1.0;" x1="793.197" x2="793.197" y1="1919" y2="1933"/>
  <text style="stroke:none;fill:black;font-family:sans-serif;font-size:13;font-weight:bold;" transform="matrix(1 0 0 1 776 1953)">Margins</text>
  <text style="stroke:none;fill:black;font-family:sans-serif;font-size:13;" transform="matrix(1 0 0 1 776 1971)">Leading and trailing margins on the left and right side of each symbol</text>
  <text style="stroke:none;fill:black;font-family:sans-serif;font-size:13;" transform="matrix(1 0 0 1 776 1989)">can be adjusted by modifying the x-location of the margin guidelines.</text>
  <text style="stroke:none;fill:black;font-family:sans-serif;font-size:13;" transform="matrix(1 0 0 1 776 2007)">Modifications are automatically applied proportionally to all</text>
  <text style="stroke:none;fill:black;font-family:sans-serif;font-size:13;" transform="matrix(1 0 0 1 776 2025)">scales and weights.</text>
  <g transform="matrix(1 0 0 1 1289 1933)">
   <path d="M2.8418 1.86523L4.54102 3.57422C5.40039 4.44336 6.38672 4.38477 7.31445 3.35938L18.0078-8.42773L17.041-9.4043L6.42578 2.27539C6.07422 2.67578 5.74219 2.77344 5.27344 2.30469L4.10156 1.14258C3.63281 0.683594 3.74023 0.341797 4.14062-0.0195312L15.6152-10.8203L14.6387-11.7871L3.04688-0.898438C2.06055 0.0195312 1.98242 0.996094 2.8418 1.86523ZM9.25781-16.3281C8.83789-15.918 8.80859-15.3418 9.04297-14.9512C9.27734-14.5898 9.73633-14.3555 10.3809-14.5215C11.8457-14.8633 13.3691-14.9219 14.7949-13.9844L14.209-12.5293C13.8672-11.6992 14.043-11.1133 14.5801-10.5664L16.875-8.25195C17.3633-7.76367 17.7734-7.74414 18.3398-7.8418L19.4043-8.03711L20.0684-7.36328L20.0293-6.80664C19.9902-6.30859 20.1172-5.92773 20.6055-5.44922L21.3672-4.70703C21.8457-4.22852 22.4609-4.19922 22.9297-4.66797L25.8398-7.58789C26.3086-8.05664 26.2891-8.65234 25.8105-9.13086L25.0391-9.89258C24.5605-10.3711 24.1895-10.5273 23.7109-10.4883L23.1348-10.4395L22.4902-11.0742L22.7344-12.1973C22.8613-12.7637 22.7051-13.2031 22.1191-13.7891L19.9219-15.9766C16.582-19.2969 12.1484-19.2188 9.25781-16.3281ZM10.752-15.957C13.1836-17.7344 16.4746-17.4316 18.7012-15.2051L21.1328-12.793C21.3672-12.5586 21.4062-12.373 21.3379-12.0312L21.0156-10.5469L22.5195-9.0625L23.5059-9.12109C23.7598-9.13086 23.8379-9.11133 24.0332-8.91602L24.6094-8.33984L22.168-5.89844L21.5918-6.47461C21.3965-6.66992 21.3672-6.74805 21.377-7.01172L21.4453-7.98828L19.9512-9.47266L18.4277-9.21875C18.1055-9.15039 17.959-9.17969 17.7148-9.41406L15.7129-11.416C15.459-11.6504 15.4297-11.8164 15.5859-12.1875L16.4648-14.2773C14.9023-15.7324 12.8711-16.3574 10.8398-15.7617C10.6836-15.7227 10.625-15.8496 10.752-15.957Z"/>
  </g>
  <text style="stroke:none;fill:black;font-family:sans-serif;font-size:13;font-weight:bold;" transform="matrix(1 0 0 1 1289 1953)">Exporting</text>
  <text style="stroke:none;fill:black;font-family:sans-serif;font-size:13;" transform="matrix(1 0 0 1 1289 1971)">Symbols should be outlined when exporting to ensure the</text>
  <text style="stroke:none;fill:black;font-family:sans-serif;font-size:13;" transform="matrix(1 0 0 1 1289 1989)">design is preserved when submitting to Xcode.</text>
  <text id="template-version" style="stroke:none;fill:black;font-family:sans-serif;font-size:13;text-anchor:end;" transform="matrix(1 0 0 1 3036 1933)">Template v.3.0</text>
  <text style="stroke:none;fill:black;font-family:sans-serif;font-size:13;text-anchor:end;" transform="matrix(1 0 0 1 3036 1951)">Requires Xcode 13 or greater</text>
  <text id="descriptive-name" style="stroke:none;fill:black;font-family:sans-serif;font-size:13;text-anchor:end;" transform="matrix(1 0 0 1 3036 1969)">Generated from top.omnibox.cr</text>
  <text style="stroke:none;fill:black;font-family:sans-serif;font-size:13;text-anchor:end;" transform="matrix(1 0 0 1 3036 1987)">Typeset at 100 points</text>
  <text style="stroke:none;fill:black;font-family:sans-serif;font-size:13;" transform="matrix(1 0 0 1 263 726)">Small</text>
  <text style="stroke:none;fill:black;font-family:sans-serif;font-size:13;" transform="matrix(1 0 0 1 263 1156)">Medium</text>
  <text style="stroke:none;fill:black;font-family:sans-serif;font-size:13;" transform="matrix(1 0 0 1 263 1586)">Large</text>
 </g>
 <g id="Guides">
  <g id="H-reference" style="fill:#27AAE1;stroke:none;" transform="matrix(1 0 0 1 339 696)">
   <path d="M0.993654 0L3.63775 0L29.3281-67.1323L30.0303-67.1323L30.0303-70.459L28.1226-70.459ZM11.6885-24.4799L46.9815-24.4799L46.2315-26.7285L12.4385-26.7285ZM55.1196 0L57.7637 0L30.6382-70.459L29.4326-70.459L29.4326-67.1323Z"/>
  </g>
  <line id="Baseline-S" style="fill:none;stroke:#27AAE1;opacity:1;stroke-width:0.5;" x1="263" x2="3036" y1="696" y2="696"/>
  <line id="Capline-S" style="fill:none;stroke:#27AAE1;opacity:1;stroke-width:0.5;" x1="263" x2="3036" y1="625.541" y2="625.541"/>
  <g id="H-reference" style="fill:#27AAE1;stroke:none;" transform="matrix(1 0 0 1 339 1126)">
   <path d="M0.993654 0L3.63775 0L29.3281-67.1323L30.0303-67.1323L30.0303-70.459L28.1226-70.459ZM11.6885-24.4799L46.9815-24.4799L46.2315-26.7285L12.4385-26.7285ZM55.1196 0L57.7637 0L30.6382-70.459L29.4326-70.459L29.4326-67.1323Z"/>
  </g>
  <line id="Baseline-M" style="fill:none;stroke:#27AAE1;opacity:1;stroke-width:0.5;" x1="263" x2="3036" y1="1126" y2="1126"/>
  <line id="Capline-M" style="fill:none;stroke:#27AAE1;opacity:1;stroke-width:0.5;" x1="263" x2="3036" y1="1055.54" y2="1055.54"/>
  <g id="H-reference" style="fill:#27AAE1;stroke:none;" transform="matrix(1 0 0 1 339 1556)">
   <path d="M0.993654 0L3.63775 0L29.3281-67.1323L30.0303-67.1323L30.0303-70.459L28.1226-70.459ZM11.6885-24.4799L46.9815-24.4799L46.2315-26.7285L12.4385-26.7285ZM55.1196 0L57.7637 0L30.6382-70.459L29.4326-70.459L29.4326-67.1323Z"/>
  </g>
  <line id="Baseline-L" style="fill:none;stroke:#27AAE1;opacity:1;stroke-width:0.5;" x1="263" x2="3036" y1="1556" y2="1556"/>
  <line id="Capline-L" style="fill:none;stroke:#27AAE1;opacity:1;stroke-width:0.5;" x1="263" x2="3036" y1="1485.54" y2="1485.54"/>
  <line id="left-margin-Regular-M" style="fill:none;stroke:#00AEEF;stroke-width:0.5;opacity:1.0;" x1="1399.77" x2="1399.77" y1="1030.79" y2="1150.12"/>
  <line id="right-margin-Regular-M" style="fill:none;stroke:#00AEEF;stroke-width:0.5;opacity:1.0;" x1="1499.92" x2="1499.92" y1="1030.79" y2="1150.12"/>
 </g>
 <g id="Symbols">
  <g id="Black-L" transform="matrix(1 0 0 1 2864.13 1556)">
   <path class="hierarchical-0:secondary SFSymbolsPreview4D4D4D" d="M38.67-62.67L38.67-84.21C38.67-88.17 41.16-90.42 45.06-90.42L93.51-90.42C97.37-90.42 99.85-88.05 99.85-84.15L99.85-62.67L38.67-62.67Z"/>
   <path class="hierarchical-1:primary SFSymbolsPreviewFFFFFF" d="M38.67 13.41L38.67-84.21C38.67-88.16 41.16-90.42 45.07-90.42L93.51-90.42C97.37-90.42 99.85-88.05 99.85-84.15L99.85 13.36C99.85 17.25 97.37 19.63 93.51 19.63L45.07 19.63C41.16 19.63 38.67 17.37 38.67 13.41ZM44.53-76.55C44.53-79.45 46.88-81.8 49.79-81.8L88.75-81.8C91.65-81.8 94-79.45 94-76.55C94-73.65 91.65-71.29 88.75-71.29L49.79-71.29C46.88-71.29 44.53-73.65 44.53-76.55ZM18.69 20.42C18.69 32.8 27.35 41.13 40.23 41.13L99.51 41.13C111.69 41.13 119.85 32.8 119.85 20.36L119.85-91.15C119.85-103.59 111.69-111.92 99.51-111.92L40.23-111.92C27.35-111.92 18.69-103.59 18.69-91.21L18.69 20.42Z"/>
  </g>
  <g id="Heavy-L" transform="matrix(1 0 0 1 2569.93 1556)">
   <path class="hierarchical-0:secondary SFSymbolsPreview4D4D4D" d="M36.19-63.57L36.19-84.09C36.19-88.39 38.83-90.79 43.12-90.79L90.41-90.79C94.69-90.79 97.29-88.3 97.29-84.05L97.29-63.57L36.19-63.57Z"/>
   <path class="hierarchical-1:primary SFSymbolsPreviewFFFFFF" d="M36.2 13.35L36.2-84.09C36.2-88.39 38.83-90.79 43.12-90.79L90.41-90.79C94.69-90.79 97.29-88.3 97.29-84.05L97.29 13.31C97.29 17.55 94.69 20.05 90.41 20.05L43.12 20.05C38.83 20.05 36.2 17.64 36.2 13.35ZM41.93-77.18C41.93-80.01 44.22-82.3 47.05-82.3L86.46-82.3C89.29-82.3 91.59-80.01 91.59-77.18C91.59-74.35 89.29-72.06 86.46-72.06L47.05-72.06C44.22-72.06 41.93-74.35 41.93-77.18ZM18.69 19.06C18.69 30.84 26.89 38.71 39.14 38.71L95.28 38.71C106.99 38.71 114.82 30.84 114.82 19.02L114.82-89.76C114.82-101.58 106.99-109.45 95.28-109.45L39.14-109.45C26.89-109.45 18.69-101.58 18.69-89.8L18.69 19.06Z"/>
  </g>
  <g id="Bold-L" transform="matrix(1 0 0 1 2276.3 1556)">
   <path class="hierarchical-0:secondary SFSymbolsPreview4D4D4D" d="M33.13-64.67L33.13-83.87C33.13-88.66 35.94-91.26 40.79-91.26L86.55-91.26C91.41-91.26 94.18-88.6 94.18-83.84L94.18-64.67L33.13-64.67Z"/>
   <path class="hierarchical-1:primary SFSymbolsPreviewFFFFFF" d="M33.13 13.19L33.13-83.87C33.13-88.66 35.94-91.26 40.79-91.26L86.55-91.26C91.41-91.26 94.18-88.6 94.18-83.84L94.18 13.16C94.18 17.92 91.41 20.59 86.55 20.59L40.79 20.59C35.94 20.59 33.13 17.98 33.13 13.19ZM38.71-77.96C38.71-80.7 40.94-82.92 43.68-82.92L83.67-82.92C86.41-82.92 88.63-80.7 88.63-77.96C88.63-75.21 86.41-72.99 83.67-72.99L43.68-72.99C40.94-72.99 38.71-75.21 38.71-77.96ZM18.69 17.38C18.69 28.49 26.27 35.78 37.82 35.78L90.1 35.78C101.29 35.78 108.66 28.49 108.66 17.35L108.66-88.03C108.66-99.17 101.29-106.46 90.1-106.46L37.82-106.46C26.27-106.46 18.69-99.17 18.69-88.06L18.69 17.38Z"/>
  </g>
  <g id="Semibold-L" transform="matrix(1 0 0 1 1981.71 1556)">
   <path class="hierarchical-0:secondary SFSymbolsPreview4D4D4D" d="M31.02-65.42L31.02-83.71C31.02-88.85 33.95-91.58 39.19-91.58L83.9-91.58C89.16-91.58 92.05-88.82 92.05-83.69L92.05-65.42L31.02-65.42Z"/>
   <path class="hierarchical-1:primary SFSymbolsPreview212121" d="M18.69 16.22C18.69 26.87 25.85 33.76 36.91 33.76L86.54 33.76C97.36 33.76 104.42 26.87 104.42 16.2L104.42-86.84C104.42-97.5 97.36-104.39 86.54-104.39L36.91-104.39C25.85-104.39 18.69-97.5 18.69-86.85L18.69 16.22ZM31.02 13.07L31.02-83.71C31.02-88.85 33.95-91.58 39.19-91.58L83.9-91.58C89.16-91.58 92.04-88.81 92.04-83.69L92.04 13.05C92.04 18.18 89.16 20.96 83.9 20.96L39.19 20.96C33.95 20.96 31.02 18.22 31.02 13.07ZM36.5-78.49C36.5-81.18 38.67-83.35 41.36-83.35L81.75-83.35C84.43-83.35 86.61-81.18 86.61-78.49C86.61-75.81 84.43-73.64 81.75-73.64L41.36-73.64C38.67-73.64 36.5-75.81 36.5-78.49Z"/>
  </g>
  <g id="Medium-L" transform="matrix(1 0 0 1 1686.61 1556)">
   <path class="hierarchical-0:secondary SFSymbolsPreview4D4D4D" d="M29.43-66.01L29.43-83.59C29.43-89 32.45-91.83 37.98-91.83L81.89-91.83C87.45-91.83 90.43-88.98 90.43-83.58L90.43-66.01L29.43-66.01Z"/>
   <path class="hierarchical-1:primary SFSymbolsPreview212121" d="M18.69 15.34C18.69 25.63 25.54 32.23 36.23 32.23L83.84 32.23C94.39 32.23 101.21 25.63 101.21 15.33L101.21-85.93C101.21-96.24 94.39-102.83 83.84-102.83L36.23-102.83C25.54-102.83 18.69-96.24 18.69-85.94L18.69 15.34ZM29.43 12.98L29.43-83.59C29.43-89 32.45-91.83 37.98-91.83L81.89-91.83C87.45-91.83 90.43-88.98 90.43-83.58L90.43 12.97C90.43 18.37 87.45 21.24 81.89 21.24L37.98 21.24C32.45 21.24 29.43 18.39 29.43 12.98ZM33.76-78.92C33.76-81.56 35.9-83.7 38.53-83.7L79.23-83.7C81.87-83.7 84.01-81.56 84.01-78.92C84.01-76.28 81.87-74.15 79.23-74.15L38.53-74.15C35.9-74.15 33.76-76.28 33.76-78.92Z"/>
  </g>
  <g id="Regular-L" transform="matrix(1 0 0 1 1391.99 1556)">
   <path class="hierarchical-0:secondary SFSymbolsPreview4D4D4D" d="M27.33-66.74L27.33-83.44C27.33-89.19 30.48-92.15 36.39-92.15L79.26-92.15C85.22-92.15 88.31-89.19 88.31-83.44L88.31-66.74L27.33-66.74Z"/>
   <path class="hierarchical-1:primary SFSymbolsPreviewFFFFFF" d="M27.33 12.87L27.33-83.44C27.33-89.19 30.48-92.15 36.39-92.15L79.26-92.15C85.22-92.15 88.31-89.19 88.31-83.44L88.31 12.87C88.31 18.62 85.22 21.61 79.26 21.61L36.39 21.61C30.48 21.61 27.33 18.62 27.33 12.87ZM32.63-79.44C32.63-82.02 34.72-84.11 37.3-84.11L78.4-84.11C80.97-84.11 83.06-82.02 83.06-79.44C83.06-76.87 80.97-74.78 78.4-74.78L37.3-74.78C34.72-74.78 32.63-76.87 32.63-79.44ZM18.69 14.19C18.69 24.03 25.12 30.23 35.33 30.23L80.32 30.23C90.5 30.23 97.01 24.03 97.01 14.19L97.01-84.76C97.01-94.59 90.5-100.79 80.32-100.79L35.33-100.79C25.12-100.79 18.69-94.59 18.69-84.76L18.69 14.19Z"/>
  </g>
  <g id="Light-L" transform="matrix(1 0 0 1 1097.11 1556)">
   <path class="hierarchical-0:secondary SFSymbolsPreview4D4D4D" d="M25.32-67.31L86.7-67.31L86.7-82.71C86.7-89.38 83.41-92.55 76.61-92.55L35.4-92.55C28.64-92.55 25.32-89.38 25.32-82.71L25.32-67.31Z"/>
   <path class="hierarchical-1:primary SFSymbolsPreviewFFFFFF" d="M25.32 12.18L25.32-82.71C25.32-89.38 28.64-92.55 35.4-92.55L76.61-92.55C83.42-92.55 86.7-89.38 86.7-82.71L86.7 12.18C86.7 18.85 83.42 22.06 76.61 22.06L35.4 22.06C28.64 22.06 25.32 18.85 25.32 12.18ZM30.61-79.93C30.61-82.45 32.66-84.5 35.18-84.5L76.87-84.5C79.39-84.5 81.44-82.45 81.44-79.93C81.44-77.4 79.39-75.35 76.87-75.35L35.18-75.35C32.66-75.35 30.61-77.4 30.61-79.93ZM18.69 13.03C18.69 22.88 24.58 28.64 34.67 28.64L77.35 28.64C87.39 28.64 93.36 22.88 93.36 13.03L93.36-83.55C93.36-93.41 87.39-99.17 77.35-99.17L34.67-99.17C24.58-99.17 18.69-93.41 18.69-83.55L18.69 13.03Z"/>
  </g>
  <g id="Thin-L" transform="matrix(1 0 0 1 802.825 1556)">
   <path class="hierarchical-0:secondary SFSymbolsPreview4D4D4D" d="M22.641-68.1L22.641-81.75C22.641-89.63 26.184-93.08 34.087-93.08L73.101-93.08C81.013-93.08 84.548-89.63 84.548-81.75L84.548-68.1L22.641-68.1Z"/>
   <path class="hierarchical-1:primary SFSymbolsPreview212121" d="M18.69 11.48C18.69 21.37 23.84 26.55 33.782 26.55L73.404 26.55C83.275 26.55 88.505 21.37 88.505 11.48L88.505-81.96C88.505-91.85 83.275-97.03 73.404-97.03L33.782-97.03C23.84-97.03 18.69-91.85 18.69-81.96L18.69 11.48ZM22.64 11.27L22.64-81.75C22.64-89.63 26.183-93.08 34.086-93.08L73.1-93.08C81.012-93.08 84.547-89.63 84.547-81.75L84.547 11.27C84.547 19.15 81.012 22.67 73.1 22.67L34.086 22.67C26.183 22.67 22.64 19.15 22.64 11.27ZM27.916-80.59C27.916-83.04 29.906-85.03 32.361-85.03L74.831-85.03C77.286-85.03 79.276-83.04 79.276-80.59C79.276-78.13 77.286-76.14 74.831-76.14L32.361-76.14C29.906-76.14 27.916-78.13 27.916-80.59Z"/>
  </g>
  <g id="Ultralight-L" transform="matrix(1 0 0 1 507.355 1556)">
   <path class="hierarchical-0:secondary SFSymbolsPreview4D4D4D" d="M21.27-68.51L21.27-81.26C21.27-89.75 24.929-93.34 33.415-93.34L71.304-93.34C79.785-93.34 83.449-89.75 83.449-81.26L83.449-68.51L21.27-68.51Z"/>
   <path class="hierarchical-1:primary SFSymbolsPreview212121" d="M33.33 25.48C23.465 25.48 18.69 20.6 18.69 10.7L18.69-81.15C18.69-91.04 23.465-95.92 33.33-95.92L71.388-95.92C81.168-95.92 86.023-91.04 86.023-81.15L86.023 10.7C86.023 20.6 81.168 25.48 71.388 25.48L33.33 25.48ZM21.27-81.26L21.27 10.81C21.27 19.31 24.929 22.98 33.414 22.98L71.303 22.98C79.784 22.98 83.448 19.31 83.448 10.81L83.448-81.26C83.448-89.76 79.784-93.35 71.303-93.35L33.414-93.35C24.929-93.35 21.27-89.76 21.27-81.26ZM30.922-85.31C28.503-85.31 26.542-83.35 26.542-80.93C26.542-78.51 28.503-76.55 30.922-76.55L73.792-76.55C76.211-76.55 78.172-78.51 78.172-80.93C78.172-83.35 76.211-85.31 73.792-85.31L30.922-85.31Z"/>
  </g>
  <g id="Black-M" transform="matrix(1 0 0 1 2873.61 1126)">
   <path class="hierarchical-0:secondary SFSymbolsPreview4D4D4D" d="M36.02-55.78L36.02-73.17C36.02-76.07 37.87-77.72 40.67-77.72L78.97-77.72C81.72-77.72 83.55-75.96 83.55-73.11L83.55-55.78L36.02-55.78Z"/>
   <path class="hierarchical-1:primary SFSymbolsPreview212121" d="M36.22 25.79C25.73 25.79 18.69 19.01 18.69 8.89L18.69-79.65C18.69-89.76 25.73-96.55 36.22-96.55L84.55-96.55C94.36-96.55 100.9-89.76 100.9-79.59L100.9 8.84C100.9 19.01 94.36 25.79 84.55 25.79L36.22 25.79ZM36.02-73.17L36.02 2.42C36.02 5.32 37.87 6.97 40.67 6.97L78.97 6.97C81.72 6.97 83.55 5.2 83.55 2.36L83.55-73.12C83.55-75.96 81.72-77.73 78.97-77.73L40.67-77.73C37.87-77.73 36.02-76.07 36.02-73.17ZM44.23-70.92C41.93-70.92 40.06-69.06 40.06-66.76C40.06-64.45 41.93-62.59 44.23-62.59L75.35-62.59C77.65-62.59 79.52-64.45 79.52-66.76C79.52-69.06 77.65-70.92 75.35-70.92L44.23-70.92Z"/>
  </g>
  <g id="Heavy-M" transform="matrix(1 0 0 1 2579.19 1126)">
   <path class="hierarchical-0:secondary SFSymbolsPreview4D4D4D" d="M33.79-56.62L33.79-73.13C33.79-76.27 35.75-78.05 38.85-78.05L76.18-78.05C79.25-78.05 81.2-76.19 81.2-73.09L81.2-56.62L33.79-56.62Z"/>
   <path class="hierarchical-1:primary SFSymbolsPreviewFFFFFF" d="M33.79 2.42L33.79-73.13C33.79-76.27 35.75-78.05 38.85-78.05L76.18-78.05C79.25-78.05 81.2-76.19 81.2-73.09L81.2 2.38C81.2 5.48 79.25 7.34 76.18 7.34L38.85 7.34C35.75 7.34 33.79 5.56 33.79 2.42ZM37.7-67.33C37.7-69.57 39.51-71.38 41.75-71.38L73.26-71.38C75.49-71.38 77.31-69.57 77.31-67.33C77.31-65.1 75.49-63.28 73.26-63.28L41.75-63.28C39.51-63.28 37.7-65.1 37.7-67.33ZM18.69 7.67C18.69 17.2 25.32 23.57 35.22 23.57L80.68 23.57C90.05 23.57 96.31 17.2 96.31 7.63L96.31-78.34C96.31-87.91 90.05-94.28 80.68-94.28L35.22-94.28C25.32-94.28 18.69-87.91 18.69-78.38L18.69 7.67Z"/>
  </g>
  <g id="Bold-M" transform="matrix(1 0 0 1 2285.04 1126)">
   <path class="hierarchical-0:secondary SFSymbolsPreview4D4D4D" d="M31.29-57.55L31.29-73.08C31.29-76.5 33.38-78.41 36.82-78.41L73.05-78.41C76.5-78.41 78.56-76.44 78.56-73.05L78.56-57.55L31.29-57.55Z"/>
   <path class="hierarchical-1:primary SFSymbolsPreview212121" d="M34.1 21.09C24.87 21.09 18.69 15.17 18.69 6.3L18.69-76.97C18.69-85.83 24.87-91.75 34.1-91.75L76.35-91.75C85.24-91.75 91.18-85.83 91.18-76.94L91.18 6.28C91.18 15.17 85.24 21.09 76.35 21.09L34.1 21.09ZM31.29-73.09L31.29 2.42C31.29 5.84 33.38 7.75 36.82 7.75L73.05 7.75C76.5 7.75 78.56 5.78 78.56 2.39L78.56-73.06C78.56-76.44 76.5-78.41 73.05-78.41L36.82-78.41C33.38-78.41 31.29-76.5 31.29-73.09ZM38.97-71.9C36.8-71.9 35.05-70.14 35.05-67.98C35.05-65.82 36.8-64.06 38.97-64.06L70.91-64.06C73.08-64.06 74.83-65.82 74.83-67.98C74.83-70.14 73.08-71.9 70.91-71.9L38.97-71.9Z"/>
  </g>
  <g id="Semibold-M" transform="matrix(1 0 0 1 1990.1 1126)">
   <path class="hierarchical-0:secondary SFSymbolsPreview4D4D4D" d="M29.56-58.19L29.56-73.05C29.56-76.58 31.66-78.58 35.21-78.66L71.1-78.66C74.68-78.58 76.74-76.55 76.74-73.03L76.74-58.19L29.56-58.19Z"/>
   <path class="hierarchical-1:primary SFSymbolsPreview212121" d="M33.32 19.38C24.55 19.38 18.69 13.77 18.69 5.37L18.69-75.99C18.69-84.4 24.55-90 33.32-90L73.36-90C81.91-90 87.65-84.4 87.65-75.97L87.65 5.35C87.65 13.77 81.91 19.38 73.36 19.38L33.32 19.38ZM29.56-73.05L29.56 2.43C29.56 6.03 31.74 8.04 35.42 8.04L70.9 8.04C74.6 8.04 76.74 5.99 76.74 2.41L76.74-73.03C76.74-76.62 74.6-78.66 70.9-78.66L35.42-78.66C31.74-78.66 29.56-76.65 29.56-73.05ZM37.05-72.25C34.94-72.25 33.22-70.54 33.22-68.42C33.22-66.31 34.94-64.6 37.05-64.6L69.29-64.6C71.4-64.6 73.11-66.31 73.11-68.42C73.11-70.54 71.4-72.25 69.29-72.25L37.05-72.25Z"/>
  </g>
  <g id="Medium-M" transform="matrix(1 0 0 1 1694.73 1126)">
   <path class="hierarchical-0:secondary SFSymbolsPreview4D4D4D" d="M28.25-58.65L28.25-73.02C28.25-76.75 30.47-78.82 34.29-78.85L69.33-78.85C73.17-78.82 75.35-76.73 75.35-73.01L75.35-58.65L28.25-58.65Z"/>
   <path class="hierarchical-1:primary SFSymbolsPreview212121" d="M32.73 18.08C24.3 18.08 18.69 12.71 18.69 4.65L18.69-75.25C18.69-83.31 24.3-88.68 32.73-88.68L71.09-88.68C79.38-88.68 84.96-83.31 84.96-75.24L84.96 4.64C84.96 12.71 79.38 18.08 71.09 18.08L32.73 18.08ZM28.25-73.02L28.25 2.43C28.25 6.17 30.5 8.26 34.35 8.26L69.26 8.26C73.15 8.26 75.35 6.15 75.35 2.42L75.35-73.01C75.35-76.75 73.15-78.85 69.26-78.85L34.35-78.85C30.5-78.85 28.25-76.77 28.25-73.02ZM35.59-72.51C33.51-72.51 31.83-70.83 31.83-68.75C31.83-66.68 33.51-64.99 35.59-64.99L68.05-64.99C70.13-64.99 71.81-66.68 71.81-68.75C71.81-70.83 70.13-72.51 68.05-72.51L35.59-72.51Z"/>
  </g>
  <g id="Regular-M" transform="matrix(1 0 0 1 1399.77 1126)">
   <path class="hierarchical-0:secondary SFSymbolsPreview4D4D4D" d="M67.5-79.09C71.41-78.96 73.56-76.81 73.56-72.99L73.56-59.29L50.05-59.29L26.54-59.29L26.54-72.99C26.54-76.81 28.74-78.96 32.61-79.09L67.5-79.09Z"/>
   <path class="hierarchical-1:primary SFSymbolsPreview212121" d="M31.97 16.39C23.99 16.39 18.69 11.33 18.69 3.72L18.69-74.29C18.69-81.9 23.99-86.95 31.97-86.95L68.13-86.95C76.1-86.95 81.46-81.9 81.46-74.29L81.46 3.72C81.46 11.33 76.1 16.39 68.13 16.39L31.97 16.39ZM26.54-72.99L26.54 2.43C26.54 6.36 28.88 8.54 32.97 8.54L67.13 8.54C71.27 8.54 73.56 6.36 73.56 2.43L73.56-72.99C73.56-76.92 71.27-79.1 67.13-79.1L32.97-79.1C28.88-79.1 26.54-76.92 26.54-72.99ZM33.67-72.86C31.65-72.86 30-71.22 30-69.19C30-67.17 31.65-65.52 33.67-65.52L66.42-65.52C68.45-65.52 70.09-67.17 70.09-69.19C70.09-71.22 68.45-72.86 66.42-72.86L33.67-72.86Z"/>
  </g>
  <g id="Light-M" transform="matrix(1 0 0 1 1104.7 1126)">
   <path class="hierarchical-0:secondary SFSymbolsPreview4D4D4D" d="M24.73-59.83L24.73-72.34C24.73-77.1 27.22-79.46 32.08-79.46L64.75-79.46C69.64-79.46 72.1-77.1 72.1-72.34L72.1-59.83L24.73-59.83Z"/>
   <path class="hierarchical-1:primary SFSymbolsPreview212121" d="M31.37 14.96C23.5 14.96 18.69 10.31 18.69 2.68L18.69-73.21C18.69-80.84 23.5-85.5 31.37-85.5L65.47-85.5C73.31-85.5 78.18-80.84 78.18-73.21L78.18 2.68C78.18 10.31 73.31 14.96 65.47 14.96L31.37 14.96ZM24.73-72.34L24.73 1.81C24.73 6.56 27.22 8.95 32.08 8.95L64.75 8.95C69.64 8.95 72.1 6.56 72.1 1.81L72.1-72.34C72.1-77.1 69.64-79.46 64.75-79.46L32.08-79.46C27.22-79.46 24.73-77.1 24.73-72.34ZM31.79-73.23C29.81-73.23 28.21-71.62 28.21-69.64C28.21-67.66 29.81-66.06 31.79-66.06L65.07-66.06C67.05-66.06 68.66-67.66 68.66-69.64C68.66-71.62 67.05-73.23 65.07-73.23L31.79-73.23Z"/>
  </g>
  <g id="Thin-M" transform="matrix(1 0 0 1 810.162 1126)">
   <path class="hierarchical-0:secondary SFSymbolsPreview4D4D4D" d="M22.33-60.54L22.33-71.48C22.33-77.32 25.026-79.93 30.903-79.93L61.605-79.93C67.493-79.93 70.177-77.32 70.177-71.48L70.177-60.54L22.33-60.54Z"/>
   <path class="hierarchical-1:primary SFSymbolsPreview212121" d="M30.574 13.09C22.838 13.09 18.69 8.95 18.69 1.3L18.69-71.78C18.69-79.43 22.838-83.57 30.574-83.57L61.934-83.57C69.619-83.57 73.83-79.43 73.83-71.78L73.83 1.3C73.83 8.95 69.619 13.09 61.934 13.09L30.574 13.09ZM22.33-71.48L22.33 1C22.33 6.84 25.026 9.5 30.903 9.5L61.605 9.5C67.494 9.5 70.177 6.84 70.177 1L70.177-71.48C70.177-77.32 67.494-79.93 61.605-79.93L30.903-79.93C25.026-79.93 22.33-77.32 22.33-71.48ZM29.268-73.7C27.352-73.7 25.798-72.15 25.798-70.23C25.798-68.31 27.352-66.76 29.268-66.76L63.258-66.76C65.175-66.76 66.728-68.31 66.728-70.23C66.728-72.15 65.175-73.7 63.258-73.7L29.268-73.7Z"/>
  </g>
  <g id="Ultralight-M" transform="matrix(1 0 0 1 514.564 1126)">
   <path class="hierarchical-0:secondary SFSymbolsPreview4D4D4D" d="M21.102-71.04L21.102-60.89L69.192-60.89L69.192-71.04C69.192-77.44 66.393-80.18 59.994-80.18L30.3-80.18C23.902-80.18 21.102-77.44 21.102-71.04Z"/>
   <path class="hierarchical-1:primary SFSymbolsPreview212121" d="M30.169 12.13C22.503 12.13 18.69 8.25 18.69 0.59L18.69-71.05C18.69-78.71 22.503-82.59 30.169-82.59L60.126-82.59C67.73-82.59 71.605-78.71 71.605-71.05L71.605 0.59C71.605 8.25 67.73 12.13 60.126 12.13L30.169 12.13ZM21.102-71.04L21.102 0.58C21.102 6.98 23.902 9.78 30.301 9.78L59.994 9.78C66.393 9.78 69.193 6.98 69.193 0.58L69.193-71.04C69.193-77.44 66.393-80.17 59.994-80.17L30.301-80.17C23.902-80.17 21.102-77.44 21.102-71.04ZM27.975-73.95C26.09-73.95 24.563-72.42 24.563-70.53C24.563-68.65 26.09-67.12 27.975-67.12L62.32-67.12C64.205-67.12 65.733-68.65 65.733-70.53C65.733-72.42 64.205-73.95 62.32-73.95L27.975-73.95Z"/>
  </g>
  <g id="Black-S" transform="matrix(1 0 0 1 2881.9 696)">
   <path class="hierarchical-0:secondary SFSymbolsPreview4D4D4D" d="M32.85-51.115L32.85-64.939C32.85-67.186 34.26-68.455 36.41-68.455L66.64-68.455C68.74-68.455 70.15-67.088 70.15-64.891L70.15-51.115L32.85-51.115Z"/>
   <path class="hierarchical-1:primary SFSymbolsPreviewFFFFFF" d="M32.85-5.761L32.85-64.94C32.85-67.187 34.26-68.456 36.41-68.456L66.64-68.456C68.74-68.456 70.15-67.089 70.15-64.892L70.15-5.81C70.15-3.612 68.74-2.245 66.64-2.245L36.41-2.245C34.26-2.245 32.85-3.515 32.85-5.761ZM35.45-59.794C35.45-61.614 36.93-63.089 38.75-63.089L64.26-63.089C66.08-63.089 67.55-61.614 67.55-59.794C67.55-57.974 66.08-56.499 64.26-56.499L38.75-56.499C36.93-56.499 35.45-57.974 35.45-59.794ZM18.69-0.341C18.69 7.765 24.3 13.185 32.7 13.185L71.32 13.185C79.14 13.185 84.31 7.765 84.31-0.39L84.31-70.312C84.31-78.466 79.14-83.886 71.32-83.886L32.7-83.886C24.3-83.886 18.69-78.466 18.69-70.36L18.69-0.341Z"/>
  </g>
  <g id="Heavy-S" transform="matrix(1 0 0 1 2586.94 696)">
   <path class="hierarchical-0:secondary SFSymbolsPreview4D4D4D" d="M31.17-51.762L31.17-64.989C31.17-67.339 32.67-68.689 34.98-68.689L64.56-68.689C66.84-68.689 68.33-67.265 68.33-64.952L68.33-51.762L31.17-51.762Z"/>
   <path class="hierarchical-1:primary SFSymbolsPreviewFFFFFF" d="M31.17-5.684L31.17-64.99C31.17-67.34 32.67-68.69 34.98-68.69L64.56-68.69C66.84-68.69 68.33-67.265 68.33-64.953L68.33-5.721C68.33-3.409 66.84-1.984 64.56-1.984L34.98-1.984C32.67-1.984 31.17-3.334 31.17-5.684ZM33.66-60.223C33.66-61.995 35.1-63.431 36.87-63.431L62.64-63.431C64.41-63.431 65.84-61.995 65.84-60.223C65.84-58.452 64.41-57.016 62.64-57.016L36.87-57.016C35.1-57.016 33.66-58.452 33.66-60.223ZM18.69-1.255C18.69 6.343 24.02 11.464 31.92 11.464L68.36 11.464C75.81 11.464 80.81 6.343 80.81-1.292L80.81-69.382C80.81-77.017 75.81-82.138 68.36-82.138L31.92-82.138C24.02-82.138 18.69-77.017 18.69-69.419L18.69-1.255Z"/>
  </g>
  <g id="Bold-S" transform="matrix(1 0 0 1 2292.19 696)">
   <path class="hierarchical-0:secondary SFSymbolsPreview4D4D4D" d="M29.28-52.474L66.27-52.474L66.27-65.014C66.27-67.455 64.71-68.944 62.22-68.944L33.36-68.944C30.87-68.944 29.28-67.504 29.28-65.038L29.28-52.474Z"/>
   <path class="hierarchical-1:primary SFSymbolsPreviewFFFFFF" d="M29.28-5.59L29.28-65.038C29.28-67.504 30.87-68.944 33.36-68.944L62.22-68.944C64.71-68.944 66.27-67.455 66.27-65.014L66.27-5.614C66.27-3.173 64.71-1.684 62.22-1.684L33.36-1.684C30.87-1.684 29.28-3.124 29.28-5.59ZM31.65-60.712C31.65-62.428 33.04-63.819 34.76-63.819L60.82-63.819C62.53-63.819 63.92-62.428 63.92-60.712C63.92-58.995 62.53-57.604 60.82-57.604L34.76-57.604C33.04-57.604 31.65-58.995 31.65-60.712ZM18.69-2.27C18.69 4.762 23.69 9.547 31.04 9.547L65.02 9.547C72.08 9.547 76.89 4.762 76.89-2.294L76.89-68.334C76.89-75.39 72.08-80.175 65.02-80.175L31.04-80.175C23.69-80.175 18.69-75.39 18.69-68.358L18.69-2.27Z"/>
  </g>
  <g id="Semibold-S" transform="matrix(1 0 0 1 1996.83 696)">
   <path class="hierarchical-0:secondary SFSymbolsPreview4D4D4D" d="M27.99-52.958L27.99-65.075C27.99-67.62 29.64-69.123 32.25-69.123L60.61-69.123C63.25-69.123 64.86-67.589 64.86-65.059L64.86-52.958L27.99-52.958Z"/>
   <path class="hierarchical-1:primary SFSymbolsPreviewFFFFFF" d="M27.99-5.529L27.99-65.075C27.99-67.621 29.64-69.123 32.25-69.123L60.61-69.123C63.25-69.123 64.86-67.59 64.86-65.059L64.86-5.544C64.86-3.014 63.25-1.48 60.61-1.48L32.25-1.48C29.64-1.48 27.99-2.983 27.99-5.529ZM30.27-61.046C30.27-62.723 31.63-64.083 33.31-64.083L59.57-64.083C61.25-64.083 62.61-62.723 62.61-61.046C62.61-59.368 61.25-58.008 59.57-58.008L33.31-58.008C31.63-58.008 30.27-59.368 30.27-61.046ZM18.69-2.973C18.69 3.667 23.47 8.222 30.44 8.222L62.74 8.222C69.52 8.222 74.19 3.667 74.19-2.988L74.19-67.615C74.19-74.271 69.52-78.825 62.74-78.825L30.44-78.825C23.47-78.825 18.69-74.271 18.69-67.631L18.69-2.973Z"/>
  </g>
  <g id="Medium-S" transform="matrix(1 0 0 1 1701.14 696)">
   <path class="hierarchical-0:secondary SFSymbolsPreview4D4D4D" d="M27-53.363L27-65.102C27-67.708 28.7-69.258 31.41-69.258L59.39-69.258C62.13-69.258 63.79-67.69 63.79-65.093L63.79-53.363L27-53.363Z"/>
   <path class="hierarchical-1:primary SFSymbolsPreviewFFFFFF" d="M27-5.481L27-65.102C27-67.708 28.7-69.258 31.41-69.258L59.39-69.258C62.13-69.258 63.79-67.69 63.79-65.093L63.79-5.49C63.79-2.893 62.13-1.325 59.39-1.325L31.41-1.325C28.7-1.325 27-2.875 27-5.481ZM29.22-61.304C29.22-62.953 30.56-64.289 32.21-64.289L58.62-64.289C60.27-64.289 61.6-62.953 61.6-61.304C61.6-59.655 60.27-58.319 58.62-58.319L32.21-58.319C30.56-58.319 29.22-59.655 29.22-61.304ZM18.69-3.505C18.69 2.839 23.3 7.218 29.98 7.218L60.99 7.218C67.57 7.218 72.14 2.839 72.14-3.514L72.14-67.069C72.14-73.422 67.57-77.801 60.99-77.801L29.98-77.801C23.3-77.801 18.69-73.422 18.69-67.078L18.69-3.505Z"/>
  </g>
  <g id="Regular-S" transform="matrix(1 0 0 1 1405.76 696)">
   <path class="hierarchical-0:secondary SFSymbolsPreview4D4D4D" d="M25.72-53.825L25.72-65.138C25.72-67.823 27.48-69.435 30.31-69.435L57.8-69.435C60.68-69.435 62.39-67.823 62.39-65.138L62.39-53.825L25.72-53.825Z"/>
   <path class="hierarchical-1:primary SFSymbolsPreviewFFFFFF" d="M25.72-5.42L25.72-65.137C25.72-67.822 27.48-69.434 30.31-69.434L57.8-69.434C60.68-69.434 62.39-67.822 62.39-65.137L62.39-5.42C62.39-2.734 60.68-1.123 57.8-1.123L30.31-1.123C27.48-1.123 25.72-2.734 25.72-5.42ZM27.86-61.632C27.86-63.244 29.17-64.55 30.78-64.55L57.38-64.55C58.99-64.55 60.3-63.244 60.3-61.632C60.3-60.021 58.99-58.715 57.38-58.715L30.78-58.715C29.17-58.715 27.86-60.021 27.86-61.632ZM18.69-4.199C18.69 1.758 23.08 5.908 29.38 5.908L58.73 5.908C65.03 5.908 69.47 1.758 69.47-4.199L69.47-66.357C69.47-72.315 65.03-76.465 58.73-76.465L29.38-76.465C23.08-76.465 18.69-72.315 18.69-66.357L18.69-4.199Z"/>
  </g>
  <g id="Light-S" transform="matrix(1 0 0 1 1110.51 696)">
   <path class="hierarchical-0:secondary SFSymbolsPreview4D4D4D" d="M24.11-54.31L24.11-64.563C24.11-67.975 26.01-69.753 29.52-69.753L55.7-69.753C59.24-69.753 61.1-67.975 61.1-64.563L61.1-54.31L24.11-54.31Z"/>
   <path class="hierarchical-1:primary SFSymbolsPreviewFFFFFF" d="M24.11-5.965L24.11-64.562C24.11-67.974 26.01-69.752 29.52-69.752L55.69-69.752C59.24-69.752 61.1-67.974 61.1-64.562L61.1-5.965C61.1-2.553 59.24-0.76 55.69-0.76L29.52-0.76C26.01-0.76 24.11-2.553 24.11-5.965ZM26.24-62.028C26.24-63.597 27.52-64.87 29.09-64.87L56.16-64.87C57.73-64.87 59-63.597 59-62.028C59-60.458 57.73-59.185 56.16-59.185L29.09-59.185C27.52-59.185 26.24-60.458 26.24-62.028ZM18.69-5.123C18.69 0.849 22.64 4.651 28.85 4.651L56.37 4.651C62.56 4.651 66.56 0.849 66.56-5.123L66.56-65.404C66.56-71.377 62.56-75.179 56.37-75.179L28.85-75.179C22.64-75.179 18.69-71.377 18.69-65.404L18.69-5.123Z"/>
  </g>
  <g id="Thin-S" transform="matrix(1 0 0 1 815.716 696)">
   <path class="hierarchical-0:secondary SFSymbolsPreview4D4D4D" d="M21.995-54.91L59.403-54.91L59.403-63.801C59.403-68.174 57.343-70.172 52.915-70.172L28.483-70.172C24.069-70.172 21.995-68.174 21.995-63.801L21.995-54.91Z"/>
   <path class="hierarchical-1:primary SFSymbolsPreviewFFFFFF" d="M21.995-6.686L21.995-63.801C21.995-68.174 24.069-70.172 28.483-70.172L52.915-70.172C57.343-70.172 59.403-68.174 59.403-63.801L59.403-6.686C59.403-2.312 57.343-0.279 52.915-0.279L28.483-0.279C24.069-0.279 21.995-2.312 21.995-6.686ZM24.116-62.547C24.116-64.061 25.344-65.289 26.858-65.289L54.553-65.289C56.068-65.289 57.296-64.061 57.296-62.547C57.296-61.032 56.068-59.804 54.553-59.804L26.858-59.804C25.344-59.804 24.116-61.032 24.116-62.547ZM18.69-6.344C18.69-0.352 22.065 2.99 28.153 2.99L53.245 2.99C59.298 2.99 62.722-0.352 62.722-6.344L62.722-64.143C62.722-70.135 59.298-73.477 53.245-73.477L28.153-73.477C22.065-73.477 18.69-70.135 18.69-64.143L18.69-6.344Z"/>
  </g>
  <g id="Ultralight-S" transform="matrix(1 0 0 1 519.99 696)">
   <path class="hierarchical-0:secondary SFSymbolsPreview4D4D4D" d="M20.908-55.242L20.908-63.413C20.908-68.278 23.075-70.389 27.95-70.389L51.49-70.389C56.369-70.389 58.532-68.278 58.532-63.413L58.532-55.242L20.908-55.242Z"/>
   <path class="hierarchical-1:primary SFSymbolsPreviewFFFFFF" d="M20.908-7.053L20.908-63.41C20.908-68.275 23.074-70.386 27.95-70.386L51.489-70.386C56.368-70.386 58.531-68.275 58.531-63.41L58.531-7.053C58.531-2.188 56.368-0.032 51.489-0.032L27.95-0.032C23.074-0.032 20.908-2.188 20.908-7.053ZM23.02-62.816C23.02-64.302 24.224-65.506 25.71-65.506L53.73-65.506C55.216-65.506 56.42-64.302 56.42-62.816C56.42-61.33 55.216-60.126 53.73-60.126L25.71-60.126C24.224-60.126 23.02-61.33 23.02-62.816ZM18.69-6.968C18.69-0.965 21.767 2.141 27.794 2.141L51.645 2.141C57.626 2.141 60.752-0.965 60.752-6.968L60.752-63.495C60.752-69.498 57.626-72.604 51.645-72.604L27.794-72.604C21.767-72.604 18.69-69.498 18.69-63.495L18.69-6.968Z"/>
  </g>
 </g>
</svg>
