<?xml version="1.0" encoding="UTF-8"?>
<!--Generator: Apple Native CoreSVG 232.5-->
<!DOCTYPE svg
PUBLIC "-//W3C//DTD SVG 1.1//EN"
       "http://www.w3.org/Graphics/SVG/1.1/DTD/svg11.dtd">
<svg version="1.1" xmlns="http://www.w3.org/2000/svg" xmlns:xlink="http://www.w3.org/1999/xlink" width="3300" height="2200">
 <!--glyph: "", point size: 100.0, font version: "19.0d7e1", template writer version: "128"-->
 <style>.multicolor-0:secondaryLabelColor {}
.multicolor-1:labelColor {}
.multicolor-2:tintColor {opacity:0.0;-sfsymbols-clear-behind:true}

.hierarchical-0:secondary {}
.hierarchical-1:primary {}
.hierarchical-2:primary {opacity:0.0;-sfsymbols-clear-behind:true}

.SFSymbolsPreview212121 {fill:#212121;opacity:1.0}
.SFSymbolsPreview8A8A8E {fill:#8A8A8E;opacity:1.0}
</style>
 <g id="Notes">
  <rect height="2200" id="artboard" style="fill:white;opacity:1" width="3300" x="0" y="0"/>
  <line style="fill:none;stroke:black;opacity:1;stroke-width:0.5;" x1="263" x2="3036" y1="292" y2="292"/>
  <text style="stroke:none;fill:black;font-family:sans-serif;font-size:13;font-weight:bold;" transform="matrix(1 0 0 1 263 322)">Weight/Scale Variations</text>
  <text style="stroke:none;fill:black;font-family:sans-serif;font-size:13;text-anchor:middle;" transform="matrix(1 0 0 1 559.711 322)">Ultralight</text>
  <text style="stroke:none;fill:black;font-family:sans-serif;font-size:13;text-anchor:middle;" transform="matrix(1 0 0 1 856.422 322)">Thin</text>
  <text style="stroke:none;fill:black;font-family:sans-serif;font-size:13;text-anchor:middle;" transform="matrix(1 0 0 1 1153.13 322)">Light</text>
  <text style="stroke:none;fill:black;font-family:sans-serif;font-size:13;text-anchor:middle;" transform="matrix(1 0 0 1 1449.84 322)">Regular</text>
  <text style="stroke:none;fill:black;font-family:sans-serif;font-size:13;text-anchor:middle;" transform="matrix(1 0 0 1 1746.56 322)">Medium</text>
  <text style="stroke:none;fill:black;font-family:sans-serif;font-size:13;text-anchor:middle;" transform="matrix(1 0 0 1 2043.27 322)">Semibold</text>
  <text style="stroke:none;fill:black;font-family:sans-serif;font-size:13;text-anchor:middle;" transform="matrix(1 0 0 1 2339.98 322)">Bold</text>
  <text style="stroke:none;fill:black;font-family:sans-serif;font-size:13;text-anchor:middle;" transform="matrix(1 0 0 1 2636.69 322)">Heavy</text>
  <text style="stroke:none;fill:black;font-family:sans-serif;font-size:13;text-anchor:middle;" transform="matrix(1 0 0 1 2933.4 322)">Black</text>
  <line style="fill:none;stroke:black;opacity:1;stroke-width:0.5;" x1="263" x2="3036" y1="1903" y2="1903"/>
  <g transform="matrix(0.2 0 0 0.2 263 1933)">
   <path d="m46.2402 4.15039c21.5332 0 39.4531-17.8711 39.4531-39.4043s-17.9688-39.4043-39.502-39.4043c-21.4844 0-39.3555 17.8711-39.3555 39.4043s17.9199 39.4043 39.4043 39.4043Zm0-7.42188c-17.7246 0-31.8848-14.209-31.8848-31.9824s14.1113-31.9824 31.8359-31.9824c17.7734 0 32.0312 14.209 32.0312 31.9824s-14.209 31.9824-31.9824 31.9824Zm-17.9688-31.9824c0 2.14844 1.51367 3.61328 3.75977 3.61328h10.498v10.5957c0 2.19727 1.46484 3.71094 3.61328 3.71094 2.24609 0 3.71094-1.51367 3.71094-3.71094v-10.5957h10.5957c2.19727 0 3.71094-1.46484 3.71094-3.61328 0-2.19727-1.51367-3.71094-3.71094-3.71094h-10.5957v-10.5469c0-2.24609-1.46484-3.75977-3.71094-3.75977-2.14844 0-3.61328 1.51367-3.61328 3.75977v10.5469h-10.498c-2.24609 0-3.75977 1.51367-3.75977 3.71094Z"/>
  </g>
  <g transform="matrix(0.2 0 0 0.2 281.506 1933)">
   <path d="m58.5449 14.5508c27.2461 0 49.8047-22.6074 49.8047-49.8047 0-27.2461-22.6074-49.8047-49.8535-49.8047-27.1973 0-49.7559 22.5586-49.7559 49.8047 0 27.1973 22.6074 49.8047 49.8047 49.8047Zm0-8.30078c-23.0469 0-41.4551-18.457-41.4551-41.5039s18.3594-41.5039 41.4062-41.5039 41.5527 18.457 41.5527 41.5039-18.457 41.5039-41.5039 41.5039Zm-22.6562-41.5039c0 2.39258 1.66016 4.00391 4.15039 4.00391h14.3555v14.4043c0 2.44141 1.66016 4.15039 4.05273 4.15039 2.44141 0 4.15039-1.66016 4.15039-4.15039v-14.4043h14.4043c2.44141 0 4.15039-1.61133 4.15039-4.00391 0-2.44141-1.70898-4.15039-4.15039-4.15039h-14.4043v-14.3555c0-2.49023-1.70898-4.19922-4.15039-4.19922-2.39258 0-4.05273 1.70898-4.05273 4.19922v14.3555h-14.3555c-2.49023 0-4.15039 1.70898-4.15039 4.15039Z"/>
  </g>
  <g transform="matrix(0.2 0 0 0.2 304.924 1933)">
   <path d="m74.8535 28.3203c34.8145 0 63.623-28.8086 63.623-63.5742 0-34.8145-28.8574-63.623-63.6719-63.623-34.7656 0-63.5254 28.8086-63.5254 63.623 0 34.7656 28.8086 63.5742 63.5742 63.5742Zm0-9.08203c-30.1758 0-54.4434-24.3164-54.4434-54.4922 0-30.2246 24.2188-54.4922 54.3945-54.4922 30.2246 0 54.541 24.2676 54.541 54.4922 0 30.1758-24.2676 54.4922-54.4922 54.4922Zm-28.8574-54.4922c0 2.58789 1.85547 4.39453 4.58984 4.39453h19.7266v19.7754c0 2.68555 1.85547 4.58984 4.44336 4.58984 2.68555 0 4.54102-1.85547 4.54102-4.58984v-19.7754h19.7754c2.68555 0 4.58984-1.80664 4.58984-4.39453 0-2.73438-1.85547-4.58984-4.58984-4.58984h-19.7754v-19.7266c0-2.73438-1.85547-4.63867-4.54102-4.63867-2.58789 0-4.44336 1.9043-4.44336 4.63867v19.7266h-19.7266c-2.73438 0-4.58984 1.85547-4.58984 4.58984Z"/>
  </g>
  <text style="stroke:none;fill:black;font-family:sans-serif;font-size:13;font-weight:bold;" transform="matrix(1 0 0 1 263 1953)">Design Variations</text>
  <text style="stroke:none;fill:black;font-family:sans-serif;font-size:13;" transform="matrix(1 0 0 1 263 1971)">Symbols are supported in up to nine weights and three scales.</text>
  <text style="stroke:none;fill:black;font-family:sans-serif;font-size:13;" transform="matrix(1 0 0 1 263 1989)">For optimal layout with text and other symbols, vertically align</text>
  <text style="stroke:none;fill:black;font-family:sans-serif;font-size:13;" transform="matrix(1 0 0 1 263 2007)">symbols with the adjacent text.</text>
  <line style="fill:none;stroke:#00AEEF;stroke-width:0.5;opacity:1.0;" x1="776" x2="776" y1="1919" y2="1933"/>
  <g transform="matrix(0.2 0 0 0.2 776 1933)">
   <path d="m16.5527 0.78125c2.58789 0 3.85742-0.976562 4.78516-3.71094l6.29883-17.2363h28.8086l6.29883 17.2363c0.927734 2.73438 2.19727 3.71094 4.73633 3.71094 2.58789 0 4.24805-1.5625 4.24805-4.00391 0-0.830078-0.146484-1.61133-0.537109-2.63672l-22.9004-60.9863c-1.12305-2.97852-3.125-4.49219-6.25-4.49219-3.02734 0-5.07812 1.46484-6.15234 4.44336l-22.9004 61.084c-0.390625 1.02539-0.537109 1.80664-0.537109 2.63672 0 2.44141 1.5625 3.95508 4.10156 3.95508Zm13.4766-28.3691 11.8652-32.8613h0.244141l11.8652 32.8613Z"/>
  </g>
  <line style="fill:none;stroke:#00AEEF;stroke-width:0.5;opacity:1.0;" x1="792.836" x2="792.836" y1="1919" y2="1933"/>
  <text style="stroke:none;fill:black;font-family:sans-serif;font-size:13;font-weight:bold;" transform="matrix(1 0 0 1 776 1953)">Margins</text>
  <text style="stroke:none;fill:black;font-family:sans-serif;font-size:13;" transform="matrix(1 0 0 1 776 1971)">Leading and trailing margins on the left and right side of each symbol</text>
  <text style="stroke:none;fill:black;font-family:sans-serif;font-size:13;" transform="matrix(1 0 0 1 776 1989)">can be adjusted by modifying the x-location of the margin guidelines.</text>
  <text style="stroke:none;fill:black;font-family:sans-serif;font-size:13;" transform="matrix(1 0 0 1 776 2007)">Modifications are automatically applied proportionally to all</text>
  <text style="stroke:none;fill:black;font-family:sans-serif;font-size:13;" transform="matrix(1 0 0 1 776 2025)">scales and weights.</text>
  <g transform="matrix(0.2 0 0 0.2 1289 1933)">
   <path d="m14.209 9.32617 8.49609 8.54492c4.29688 4.3457 9.22852 4.05273 13.8672-1.07422l53.4668-58.9355-4.83398-4.88281-53.0762 58.3984c-1.75781 2.00195-3.41797 2.49023-5.76172 0.146484l-5.85938-5.81055c-2.34375-2.29492-1.80664-4.00391 0.195312-5.81055l57.373-54.0039-4.88281-4.83398-57.959 54.4434c-4.93164 4.58984-5.32227 9.47266-1.02539 13.8184Zm32.0801-90.9668c-2.09961 2.05078-2.24609 4.93164-1.07422 6.88477 1.17188 1.80664 3.4668 2.97852 6.68945 2.14844 7.32422-1.70898 14.9414-2.00195 22.0703 2.68555l-2.92969 7.27539c-1.70898 4.15039-0.830078 7.08008 1.85547 9.81445l11.4746 11.5723c2.44141 2.44141 4.49219 2.53906 7.32422 2.05078l5.32227-0.976562 3.32031 3.36914-0.195312 2.7832c-0.195312 2.49023 0.439453 4.39453 2.88086 6.78711l3.80859 3.71094c2.39258 2.39258 5.46875 2.53906 7.8125 0.195312l14.5508-14.5996c2.34375-2.34375 2.24609-5.32227-0.146484-7.71484l-3.85742-3.80859c-2.39258-2.39258-4.24805-3.17383-6.64062-2.97852l-2.88086 0.244141-3.22266-3.17383 1.2207-5.61523c0.634766-2.83203-0.146484-5.0293-3.07617-7.95898l-10.9863-10.9375c-16.6992-16.6016-38.8672-16.2109-53.3203-1.75781Zm7.4707 1.85547c12.1582-8.88672 28.6133-7.37305 39.7461 3.75977l12.1582 12.0605c1.17188 1.17188 1.36719 2.09961 1.02539 3.80859l-1.61133 7.42188 7.51953 7.42188 4.93164-0.292969c1.26953-0.0488281 1.66016 0.0488281 2.63672 1.02539l2.88086 2.88086-12.207 12.207-2.88086-2.88086c-0.976562-0.976562-1.12305-1.36719-1.07422-2.68555l0.341797-4.88281-7.4707-7.42188-7.61719 1.26953c-1.61133 0.341797-2.34375 0.195312-3.56445-0.976562l-10.0098-10.0098c-1.26953-1.17188-1.41602-2.00195-0.634766-3.85742l4.39453-10.4492c-7.8125-7.27539-17.9688-10.4004-28.125-7.42188-0.78125 0.195312-1.07422-0.439453-0.439453-0.976562Z"/>
  </g>
  <text style="stroke:none;fill:black;font-family:sans-serif;font-size:13;font-weight:bold;" transform="matrix(1 0 0 1 1289 1953)">Exporting</text>
  <text style="stroke:none;fill:black;font-family:sans-serif;font-size:13;" transform="matrix(1 0 0 1 1289 1971)">Symbols should be outlined when exporting to ensure the</text>
  <text style="stroke:none;fill:black;font-family:sans-serif;font-size:13;" transform="matrix(1 0 0 1 1289 1989)">design is preserved when submitting to Xcode.</text>
  <text id="template-version" style="stroke:none;fill:black;font-family:sans-serif;font-size:13;text-anchor:end;" transform="matrix(1 0 0 1 3036 1933)">Template v.3.0</text>
  <text style="stroke:none;fill:black;font-family:sans-serif;font-size:13;text-anchor:end;" transform="matrix(1 0 0 1 3036 1951)">Requires Xcode 13 or greater</text>
  <text id="descriptive-name" style="stroke:none;fill:black;font-family:sans-serif;font-size:13;text-anchor:end;" transform="matrix(1 0 0 1 3036 1969)">Generated from top.omnibox.cr</text>
  <text style="stroke:none;fill:black;font-family:sans-serif;font-size:13;text-anchor:end;" transform="matrix(1 0 0 1 3036 1987)">Typeset at 100.0 points</text>
  <text style="stroke:none;fill:black;font-family:sans-serif;font-size:13;" transform="matrix(1 0 0 1 263 726)">Small</text>
  <text style="stroke:none;fill:black;font-family:sans-serif;font-size:13;" transform="matrix(1 0 0 1 263 1156)">Medium</text>
  <text style="stroke:none;fill:black;font-family:sans-serif;font-size:13;" transform="matrix(1 0 0 1 263 1586)">Large</text>
 </g>
 <g id="Guides">
  <g id="H-reference" style="fill:#27AAE1;stroke:none;" transform="matrix(1 0 0 1 339 696)">
   <path d="M0.993654 0L3.63775 0L29.3281-67.1323L30.0303-67.1323L30.0303-70.459L28.1226-70.459ZM11.6885-24.4799L46.9815-24.4799L46.2315-26.7285L12.4385-26.7285ZM55.1196 0L57.7637 0L30.6382-70.459L29.4326-70.459L29.4326-67.1323Z"/>
  </g>
  <line id="Baseline-S" style="fill:none;stroke:#27AAE1;opacity:1;stroke-width:0.5;" x1="263" x2="3036" y1="696" y2="696"/>
  <line id="Capline-S" style="fill:none;stroke:#27AAE1;opacity:1;stroke-width:0.5;" x1="263" x2="3036" y1="625.541" y2="625.541"/>
  <g id="H-reference" style="fill:#27AAE1;stroke:none;" transform="matrix(1 0 0 1 339 1126)">
   <path d="M0.993654 0L3.63775 0L29.3281-67.1323L30.0303-67.1323L30.0303-70.459L28.1226-70.459ZM11.6885-24.4799L46.9815-24.4799L46.2315-26.7285L12.4385-26.7285ZM55.1196 0L57.7637 0L30.6382-70.459L29.4326-70.459L29.4326-67.1323Z"/>
  </g>
  <line id="Baseline-M" style="fill:none;stroke:#27AAE1;opacity:1;stroke-width:0.5;" x1="263" x2="3036" y1="1126" y2="1126"/>
  <line id="Capline-M" style="fill:none;stroke:#27AAE1;opacity:1;stroke-width:0.5;" x1="263" x2="3036" y1="1055.54" y2="1055.54"/>
  <g id="H-reference" style="fill:#27AAE1;stroke:none;" transform="matrix(1 0 0 1 339 1556)">
   <path d="M0.993654 0L3.63775 0L29.3281-67.1323L30.0303-67.1323L30.0303-70.459L28.1226-70.459ZM11.6885-24.4799L46.9815-24.4799L46.2315-26.7285L12.4385-26.7285ZM55.1196 0L57.7637 0L30.6382-70.459L29.4326-70.459L29.4326-67.1323Z"/>
  </g>
  <line id="Baseline-L" style="fill:none;stroke:#27AAE1;opacity:1;stroke-width:0.5;" x1="263" x2="3036" y1="1556" y2="1556"/>
  <line id="Capline-L" style="fill:none;stroke:#27AAE1;opacity:1;stroke-width:0.5;" x1="263" x2="3036" y1="1485.54" y2="1485.54"/>
  <line id="left-margin-Regular-M" style="fill:none;stroke:#00AEEF;stroke-width:0.5;opacity:1.0;" x1="1399.77" x2="1399.77" y1="1030.79" y2="1150.12"/>
  <line id="right-margin-Regular-M" style="fill:none;stroke:#00AEEF;stroke-width:0.5;opacity:1.0;" x1="1499.92" x2="1499.92" y1="1030.79" y2="1150.12"/>
 </g>
 <g id="Symbols">
  <g id="Black-L" transform="matrix(1 0 0 1 2864.13 1556)">
   <path class="multicolor-0:secondaryLabelColor hierarchical-0:secondary SFSymbolsPreview8A8A8E" d="M38.67-84.21L38.67-62.67L99.85-62.67L99.85-84.15C99.85-88.05 97.37-90.42 93.51-90.42L45.07-90.42C41.16-90.42 38.67-88.16 38.67-84.21Z"/>
   <path class="multicolor-1:labelColor hierarchical-1:primary SFSymbolsPreview212121" d="M40.23 41.13C27.35 41.13 18.69 32.81 18.69 20.42L18.69-91.21C18.69-103.59 27.35-111.91 40.23-111.91L99.51-111.91C111.69-111.91 119.85-103.59 119.85-91.15L119.85 20.37C119.85 32.81 111.69 41.13 99.51 41.13L40.23 41.13ZM38.67-84.2L38.67 13.42C38.67 17.38 41.16 19.64 45.07 19.64L93.51 19.64C97.37 19.64 99.85 17.26 99.85 13.36L99.85-84.14C99.85-88.04 97.37-90.41 93.51-90.41L45.07-90.41C41.16-90.41 38.67-88.16 38.67-84.2ZM49.79-81.79C46.88-81.79 44.53-79.44 44.53-76.54C44.53-73.64 46.88-71.29 49.79-71.29L88.75-71.29C91.65-71.29 94-73.64 94-76.54C94-79.44 91.65-81.79 88.75-81.79L49.79-81.79ZM47.94-76.58C47.94-75.18 49.1-74.03 50.49-74.03C50.86-74.03 51.2-74.11 51.52-74.25L52.36-73.41C52.53-73.25 52.75-73.17 52.99-73.17C53.48-73.17 53.85-73.55 53.85-74.04C53.85-74.26 53.78-74.48 53.6-74.65L52.78-75.48C52.94-75.81 53.04-76.18 53.04-76.58C53.04-77.97 51.88-79.12 50.49-79.12C49.1-79.12 47.94-77.97 47.94-76.58ZM51.83-76.58C51.83-75.83 51.24-75.23 50.49-75.23C49.74-75.23 49.14-75.83 49.14-76.58C49.14-77.33 49.74-77.92 50.49-77.92C51.24-77.92 51.83-77.33 51.83-76.58Z"/>
   <path class="multicolor-1:labelColor multicolor-2:tintColor hierarchical-1:primary hierarchical-2:primary SFSymbolsPreview8A8A8E" d="M47.94-76.58C47.94-75.18 49.1-74.03 50.49-74.03C50.86-74.03 51.2-74.11 51.52-74.25L52.36-73.41C52.53-73.25 52.75-73.17 52.99-73.17C53.48-73.17 53.85-73.55 53.85-74.04C53.85-74.26 53.78-74.48 53.6-74.65L52.78-75.48C52.94-75.81 53.04-76.18 53.04-76.58C53.04-77.97 51.88-79.12 50.49-79.12C49.1-79.12 47.94-77.97 47.94-76.58ZM51.83-76.58C51.83-75.83 51.24-75.23 50.49-75.23C49.74-75.23 49.14-75.83 49.14-76.58C49.14-77.33 49.74-77.92 50.49-77.92C51.24-77.92 51.83-77.33 51.83-76.58Z"/>
  </g>
  <g id="Heavy-L" transform="matrix(1 0 0 1 2569.94 1556)">
   <path class="multicolor-0:secondaryLabelColor hierarchical-0:secondary SFSymbolsPreview8A8A8E" d="M36.19-84.09L36.19-63.56L97.28-63.56L97.28-84.04C97.28-88.29 94.68-90.78 90.4-90.78L43.11-90.78C38.82-90.78 36.19-88.38 36.19-84.09Z"/>
   <path class="multicolor-1:labelColor hierarchical-1:primary SFSymbolsPreview212121" d="M39.14 38.71C26.88 38.71 18.69 30.85 18.69 19.06L18.69-89.8C18.69-101.58 26.88-109.45 39.14-109.45L95.27-109.45C106.98-109.45 114.81-101.58 114.81-89.75L114.81 19.02C114.81 30.85 106.98 38.71 95.27 38.71L39.14 38.71ZM36.19-84.09L36.19 13.36C36.19 17.65 38.82 20.06 43.11 20.06L90.4 20.06C94.68 20.06 97.28 17.56 97.28 13.31L97.28-84.05C97.28-88.29 94.68-90.78 90.4-90.78L43.11-90.78C38.82-90.78 36.19-88.38 36.19-84.09ZM47.04-82.3C44.21-82.3 41.92-80 41.92-77.17C41.92-74.35 44.21-72.05 47.04-72.05L86.46-72.05C89.28-72.05 91.58-74.35 91.58-77.17C91.58-80 89.28-82.3 86.46-82.3L47.04-82.3ZM45.13-77.28C45.13-75.89 46.29-74.74 47.68-74.74C48.05-74.74 48.39-74.81 48.71-74.96L49.55-74.12C49.72-73.95 49.94-73.87 50.18-73.87C50.67-73.87 51.04-74.25 51.04-74.74C51.04-74.96 50.97-75.18 50.79-75.36L49.97-76.18C50.13-76.51 50.23-76.89 50.23-77.28C50.23-78.68 49.07-79.82 47.68-79.82C46.29-79.82 45.13-78.68 45.13-77.28ZM49.02-77.28C49.02-76.53 48.43-75.93 47.68-75.93C46.93-75.93 46.33-76.53 46.33-77.28C46.33-78.03 46.93-78.63 47.68-78.63C48.43-78.63 49.02-78.03 49.02-77.28Z"/>
   <path class="multicolor-1:labelColor multicolor-2:tintColor hierarchical-1:primary hierarchical-2:primary SFSymbolsPreview8A8A8E" d="M45.13-77.28C45.13-75.89 46.29-74.74 47.68-74.74C48.05-74.74 48.39-74.81 48.71-74.96L49.55-74.12C49.72-73.95 49.94-73.87 50.18-73.87C50.67-73.87 51.04-74.25 51.04-74.74C51.04-74.96 50.97-75.18 50.79-75.36L49.97-76.18C50.13-76.51 50.23-76.89 50.23-77.28C50.23-78.68 49.07-79.82 47.68-79.82C46.29-79.82 45.13-78.68 45.13-77.28ZM49.02-77.28C49.02-76.53 48.43-75.93 47.68-75.93C46.93-75.93 46.33-76.53 46.33-77.28C46.33-78.03 46.93-78.63 47.68-78.63C48.43-78.63 49.02-78.03 49.02-77.28Z"/>
  </g>
  <g id="Bold-L" transform="matrix(1 0 0 1 2276.3 1556)">
   <path class="multicolor-0:secondaryLabelColor hierarchical-0:secondary SFSymbolsPreview8A8A8E" d="M33.13-83.86L33.13-64.67L94.18-64.67L94.18-83.83C94.18-88.6 91.41-91.25 86.55-91.25L40.79-91.25C35.94-91.25 33.13-88.66 33.13-83.86Z"/>
   <path class="multicolor-1:labelColor hierarchical-1:primary SFSymbolsPreview212121" d="M37.82 35.78C26.27 35.78 18.69 28.49 18.69 17.38L18.69-88.05C18.69-99.16 26.27-106.45 37.82-106.45L90.1-106.45C101.29-106.45 108.66-99.16 108.66-88.02L108.66 17.35C108.66 28.49 101.29 35.78 90.1 35.78L37.82 35.78ZM33.13-83.86L33.13 13.19C33.13 17.99 35.94 20.59 40.79 20.59L86.55 20.59C91.41 20.59 94.18 17.93 94.18 13.16L94.18-83.83C94.18-88.6 91.41-91.25 86.55-91.25L40.79-91.25C35.94-91.25 33.13-88.66 33.13-83.86ZM43.68-82.92C40.94-82.92 38.71-80.7 38.71-77.95C38.71-75.21 40.94-72.99 43.68-72.99L83.67-72.99C86.41-72.99 88.63-75.21 88.63-77.95C88.63-80.7 86.41-82.92 83.67-82.92L43.68-82.92ZM41.77-78.08C41.77-76.68 42.93-75.53 44.32-75.53C44.69-75.53 45.03-75.61 45.35-75.75L46.19-74.91C46.36-74.75 46.58-74.67 46.82-74.67C47.31-74.67 47.68-75.05 47.68-75.54C47.68-75.76 47.61-75.98 47.43-76.15L46.61-76.98C46.77-77.31 46.87-77.68 46.87-78.08C46.87-79.47 45.71-80.62 44.32-80.62C42.93-80.62 41.77-79.47 41.77-78.08ZM45.66-78.08C45.66-77.33 45.07-76.73 44.32-76.73C43.57-76.73 42.97-77.33 42.97-78.08C42.97-78.83 43.57-79.42 44.32-79.42C45.07-79.42 45.66-78.83 45.66-78.08Z"/>
   <path class="multicolor-1:labelColor multicolor-2:tintColor hierarchical-1:primary hierarchical-2:primary SFSymbolsPreview8A8A8E" d="M41.77-78.08C41.77-76.68 42.93-75.53 44.32-75.53C44.69-75.53 45.03-75.61 45.35-75.75L46.19-74.91C46.36-74.75 46.58-74.67 46.82-74.67C47.31-74.67 47.68-75.05 47.68-75.54C47.68-75.76 47.61-75.98 47.43-76.15L46.61-76.98C46.77-77.31 46.87-77.68 46.87-78.08C46.87-79.47 45.71-80.62 44.32-80.62C42.93-80.62 41.77-79.47 41.77-78.08ZM45.66-78.08C45.66-77.33 45.07-76.73 44.32-76.73C43.57-76.73 42.97-77.33 42.97-78.08C42.97-78.83 43.57-79.42 44.32-79.42C45.07-79.42 45.66-78.83 45.66-78.08Z"/>
  </g>
  <g id="Semibold-L" transform="matrix(1 0 0 1 1981.71 1556)">
   <path class="multicolor-0:secondaryLabelColor hierarchical-0:secondary SFSymbolsPreview8A8A8E" d="M31.02-83.71L31.02-65.41L92.05-65.41L92.05-83.69C92.05-88.81 89.16-91.58 83.9-91.58L39.19-91.58C33.95-91.58 31.02-88.85 31.02-83.71Z"/>
   <path class="multicolor-1:labelColor hierarchical-1:primary SFSymbolsPreview212121" d="M36.92 33.76C25.85 33.76 18.69 26.87 18.69 16.22L18.69-86.85C18.69-97.5 25.85-104.39 36.92-104.39L86.54-104.39C97.36-104.39 104.42-97.5 104.42-86.83L104.42 16.2C104.42 26.87 97.36 33.76 86.54 33.76L36.92 33.76ZM31.02-83.7L31.02 13.08C31.02 18.22 33.95 20.97 39.19 20.97L83.9 20.97C89.16 20.97 92.05 18.18 92.05 13.06L92.05-83.69C92.05-88.81 89.16-91.57 83.9-91.57L39.19-91.57C33.95-91.57 31.02-88.85 31.02-83.7ZM41.36-83.35C38.68-83.35 36.5-81.17 36.5-78.49C36.5-75.81 38.68-73.63 41.36-73.63L81.75-73.63C84.44-73.63 86.61-75.81 86.61-78.49C86.61-81.17 84.44-83.35 81.75-83.35L41.36-83.35ZM39.46-78.68C39.46-77.29 40.62-76.13 42.01-76.13C42.38-76.13 42.72-76.21 43.04-76.35L43.88-75.52C44.05-75.35 44.27-75.27 44.51-75.27C45-75.27 45.37-75.65 45.37-76.14C45.37-76.36 45.3-76.58 45.12-76.75L44.3-77.58C44.46-77.91 44.56-78.28 44.56-78.68C44.56-80.07 43.4-81.22 42.01-81.22C40.62-81.22 39.46-80.07 39.46-78.68ZM43.35-78.68C43.35-77.93 42.76-77.33 42.01-77.33C41.26-77.33 40.67-77.93 40.67-78.68C40.67-79.43 41.26-80.02 42.01-80.02C42.76-80.02 43.35-79.43 43.35-78.68Z"/>
   <path class="multicolor-1:labelColor multicolor-2:tintColor hierarchical-1:primary hierarchical-2:primary SFSymbolsPreview8A8A8E" d="M39.46-78.68C39.46-77.29 40.62-76.13 42.01-76.13C42.38-76.13 42.72-76.21 43.04-76.35L43.88-75.52C44.05-75.35 44.27-75.27 44.51-75.27C45-75.27 45.37-75.65 45.37-76.14C45.37-76.36 45.3-76.58 45.12-76.75L44.3-77.58C44.46-77.91 44.56-78.28 44.56-78.68C44.56-80.07 43.4-81.22 42.01-81.22C40.62-81.22 39.46-80.07 39.46-78.68ZM43.35-78.68C43.35-77.93 42.76-77.33 42.01-77.33C41.26-77.33 40.67-77.93 40.67-78.68C40.67-79.43 41.26-80.02 42.01-80.02C42.76-80.02 43.35-79.43 43.35-78.68Z"/>
  </g>
  <g id="Medium-L" transform="matrix(1 0 0 1 1686.61 1556)">
   <path class="multicolor-0:secondaryLabelColor hierarchical-0:secondary SFSymbolsPreview8A8A8E" d="M29.43-83.59L29.43-66L90.43-66L90.43-83.58C90.43-88.97 87.45-91.82 81.89-91.82L37.98-91.82C32.45-91.82 29.43-88.99 29.43-83.59Z"/>
   <path class="multicolor-1:labelColor hierarchical-1:primary SFSymbolsPreview212121" d="M36.23 32.23C25.54 32.23 18.69 25.64 18.69 15.34L18.69-85.94C18.69-96.24 25.54-102.83 36.23-102.83L83.84-102.83C94.39-102.83 101.21-96.24 101.21-85.93L101.21 15.33C101.21 25.64 94.39 32.23 83.84 32.23L36.23 32.23ZM29.43-83.59L29.43 12.99C29.43 18.4 32.45 21.25 37.98 21.25L81.89 21.25C87.45 21.25 90.43 18.38 90.43 12.98L90.43-83.58C90.43-88.97 87.45-91.82 81.89-91.82L37.98-91.82C32.45-91.82 29.43-88.99 29.43-83.59ZM38.53-83.69C35.9-83.69 33.76-81.55 33.76-78.92C33.76-76.28 35.9-74.14 38.53-74.14L79.23-74.14C81.87-74.14 84.01-76.28 84.01-78.92C84.01-81.55 81.87-83.69 79.23-83.69L38.53-83.69ZM36.56-79.08C36.56-77.68 37.72-76.53 39.11-76.53C39.48-76.53 39.82-76.61 40.14-76.75L40.98-75.91C41.15-75.75 41.37-75.67 41.61-75.67C42.1-75.67 42.47-76.05 42.47-76.54C42.47-76.76 42.4-76.98 42.22-77.15L41.4-77.98C41.56-78.31 41.66-78.68 41.66-79.08C41.66-80.47 40.5-81.62 39.11-81.62C37.72-81.62 36.56-80.47 36.56-79.08ZM40.45-79.08C40.45-78.33 39.86-77.73 39.11-77.73C38.36-77.73 37.77-78.33 37.77-79.08C37.77-79.83 38.36-80.42 39.11-80.42C39.86-80.42 40.45-79.83 40.45-79.08Z"/>
   <path class="multicolor-1:labelColor multicolor-2:tintColor hierarchical-1:primary hierarchical-2:primary SFSymbolsPreview8A8A8E" d="M36.56-79.08C36.56-77.68 37.72-76.53 39.11-76.53C39.48-76.53 39.82-76.61 40.14-76.75L40.98-75.91C41.15-75.75 41.37-75.67 41.61-75.67C42.1-75.67 42.47-76.05 42.47-76.54C42.47-76.76 42.4-76.98 42.22-77.15L41.4-77.98C41.56-78.31 41.66-78.68 41.66-79.08C41.66-80.47 40.5-81.62 39.11-81.62C37.72-81.62 36.56-80.47 36.56-79.08ZM40.45-79.08C40.45-78.33 39.86-77.73 39.11-77.73C38.36-77.73 37.77-78.33 37.77-79.08C37.77-79.83 38.36-80.42 39.11-80.42C39.86-80.42 40.45-79.83 40.45-79.08Z"/>
  </g>
  <g id="Regular-L" transform="matrix(1 0 0 1 1391.99 1556)">
   <path class="multicolor-0:secondaryLabelColor hierarchical-0:secondary SFSymbolsPreview8A8A8E" d="M27.34-83.43L27.34-66.73L88.31-66.73L88.31-83.43C88.31-89.18 85.22-92.14 79.26-92.14L36.39-92.14C30.48-92.14 27.34-89.18 27.34-83.43Z"/>
   <path class="multicolor-1:labelColor hierarchical-1:primary SFSymbolsPreview212121" d="M35.33 30.23C25.12 30.23 18.69 24.03 18.69 14.19L18.69-84.75C18.69-94.59 25.12-100.79 35.33-100.79L80.32-100.79C90.5-100.79 97.01-94.59 97.01-84.75L97.01 14.19C97.01 24.03 90.5 30.23 80.32 30.23L35.33 30.23ZM27.34-83.43L27.34 12.88C27.34 18.63 30.48 21.61 36.39 21.61L79.26 21.61C85.22 21.61 88.31 18.63 88.31 12.88L88.31-83.43C88.31-89.18 85.22-92.14 79.26-92.14L36.39-92.14C30.48-92.14 27.34-89.18 27.34-83.43ZM37.3-84.11C34.72-84.11 32.64-82.02 32.64-79.44C32.64-76.86 34.72-74.77 37.3-74.77L78.4-74.77C80.98-74.77 83.07-76.86 83.07-79.44C83.07-82.02 80.98-84.11 78.4-84.11L37.3-84.11ZM35.37-79.58C35.37-78.18 36.53-77.03 37.92-77.03C38.29-77.03 38.63-77.11 38.95-77.25L39.79-76.41C39.96-76.25 40.18-76.17 40.42-76.17C40.91-76.17 41.28-76.55 41.28-77.04C41.28-77.26 41.21-77.48 41.03-77.65L40.21-78.48C40.37-78.81 40.47-79.18 40.47-79.58C40.47-80.97 39.31-82.12 37.92-82.12C36.53-82.12 35.37-80.97 35.37-79.58ZM39.26-79.58C39.26-78.83 38.67-78.23 37.92-78.23C37.17-78.23 36.58-78.83 36.58-79.58C36.58-80.33 37.17-80.92 37.92-80.92C38.67-80.92 39.26-80.33 39.26-79.58Z"/>
   <path class="multicolor-1:labelColor multicolor-2:tintColor hierarchical-1:primary hierarchical-2:primary SFSymbolsPreview8A8A8E" d="M35.37-79.58C35.37-78.18 36.53-77.03 37.92-77.03C38.29-77.03 38.63-77.11 38.95-77.25L39.79-76.41C39.96-76.25 40.18-76.17 40.42-76.17C40.91-76.17 41.28-76.55 41.28-77.04C41.28-77.26 41.21-77.48 41.03-77.65L40.21-78.48C40.37-78.81 40.47-79.18 40.47-79.58C40.47-80.97 39.31-82.12 37.92-82.12C36.53-82.12 35.37-80.97 35.37-79.58ZM39.26-79.58C39.26-78.83 38.67-78.23 37.92-78.23C37.17-78.23 36.58-78.83 36.58-79.58C36.58-80.33 37.17-80.92 37.92-80.92C38.67-80.92 39.26-80.33 39.26-79.58Z"/>
  </g>
  <g id="Light-L" transform="matrix(1 0 0 1 1097.11 1556)">
   <path class="multicolor-0:secondaryLabelColor hierarchical-0:secondary SFSymbolsPreview8A8A8E" d="M86.69-67.31L25.31-67.31L25.31-82.71C25.31-89.38 28.63-92.55 35.4-92.55L76.61-92.55C83.41-92.55 86.69-89.38 86.69-82.71L86.69-67.31Z"/>
   <path class="multicolor-1:labelColor hierarchical-1:primary SFSymbolsPreview212121" d="M34.66 28.64C24.57 28.64 18.69 22.88 18.69 13.03L18.69-83.55C18.69-93.41 24.57-99.17 34.66-99.17L77.34-99.17C87.39-99.17 93.35-93.41 93.35-83.55L93.35 13.03C93.35 22.88 87.39 28.64 77.34 28.64L34.66 28.64ZM25.31-82.71L25.31 12.18C25.31 18.85 28.63 22.06 35.4 22.06L76.61 22.06C83.41 22.06 86.69 18.85 86.69 12.18L86.69-82.71C86.69-89.38 83.41-92.55 76.61-92.55L35.4-92.55C28.63-92.55 25.31-89.38 25.31-82.71ZM35.18-84.5C32.65-84.5 30.6-82.45 30.6-79.93C30.6-77.4 32.65-75.35 35.18-75.35L76.86-75.35C79.39-75.35 81.43-77.4 81.43-79.93C81.43-82.45 79.39-84.5 76.86-84.5L35.18-84.5ZM33.25-80.08C33.25-78.68 34.41-77.53 35.8-77.53C36.17-77.53 36.51-77.61 36.83-77.75L37.67-76.91C37.84-76.75 38.06-76.67 38.3-76.67C38.79-76.67 39.16-77.05 39.16-77.54C39.16-77.76 39.09-77.98 38.91-78.15L38.09-78.98C38.25-79.31 38.35-79.68 38.35-80.08C38.35-81.47 37.19-82.62 35.8-82.62C34.41-82.62 33.25-81.47 33.25-80.08ZM37.14-80.08C37.14-79.33 36.55-78.73 35.8-78.73C35.05-78.73 34.46-79.33 34.46-80.08C34.46-80.83 35.05-81.42 35.8-81.42C36.55-81.42 37.14-80.83 37.14-80.08Z"/>
   <path class="multicolor-1:labelColor multicolor-2:tintColor hierarchical-1:primary hierarchical-2:primary SFSymbolsPreview8A8A8E" d="M33.25-80.08C33.25-78.68 34.41-77.53 35.8-77.53C36.17-77.53 36.51-77.61 36.83-77.75L37.67-76.91C37.84-76.75 38.06-76.67 38.3-76.67C38.79-76.67 39.16-77.05 39.16-77.54C39.16-77.76 39.09-77.98 38.91-78.15L38.09-78.98C38.25-79.31 38.35-79.68 38.35-80.08C38.35-81.47 37.19-82.62 35.8-82.62C34.41-82.62 33.25-81.47 33.25-80.08ZM37.14-80.08C37.14-79.33 36.55-78.73 35.8-78.73C35.05-78.73 34.46-79.33 34.46-80.08C34.46-80.83 35.05-81.42 35.8-81.42C36.55-81.42 37.14-80.83 37.14-80.08Z"/>
  </g>
  <g id="Thin-L" transform="matrix(1 0 0 1 802.824 1556)">
   <path class="multicolor-0:secondaryLabelColor hierarchical-0:secondary SFSymbolsPreview8A8A8E" d="M22.64-81.75L22.64-68.09L84.547-68.09L84.547-81.75C84.547-89.62 81.013-93.07 73.101-93.07L34.087-93.07C26.183-93.07 22.64-89.62 22.64-81.75Z"/>
   <path class="multicolor-1:labelColor hierarchical-1:primary SFSymbolsPreview212121" d="M33.783 26.55C23.84 26.55 18.69 21.37 18.69 11.49L18.69-81.96C18.69-91.84 23.84-97.02 33.783-97.02L73.405-97.02C83.275-97.02 88.506-91.84 88.506-81.96L88.506 11.49C88.506 21.37 83.275 26.55 73.405 26.55L33.783 26.55ZM22.64-81.75L22.64 11.28C22.64 19.16 26.183 22.67 34.087 22.67L73.101 22.67C81.013 22.67 84.547 19.16 84.547 11.28L84.547-81.75C84.547-89.63 81.013-93.07 73.101-93.07L34.087-93.07C26.183-93.07 22.64-89.63 22.64-81.75ZM32.361-85.03C29.906-85.03 27.916-83.04 27.916-80.58C27.916-78.13 29.906-76.14 32.361-76.14L74.831-76.14C77.286-76.14 79.276-78.13 79.276-80.58C79.276-83.04 77.286-85.03 74.831-85.03L32.361-85.03ZM30.55-80.88C30.55-79.48 31.701-78.33 33.096-78.33C33.462-78.33 33.811-78.41 34.127-78.55L34.965-77.71C35.132-77.54 35.361-77.46 35.592-77.46C36.084-77.46 36.459-77.84 36.459-78.33C36.459-78.55 36.383-78.77 36.21-78.95L35.387-79.77C35.548-80.11 35.642-80.48 35.642-80.88C35.642-82.27 34.49-83.42 33.096-83.42C31.701-83.42 30.55-82.27 30.55-80.88ZM34.441-80.88C34.441-80.13 33.843-79.53 33.096-79.53C32.349-79.53 31.751-80.13 31.751-80.88C31.751-81.62 32.349-82.22 33.096-82.22C33.843-82.22 34.441-81.62 34.441-80.88Z"/>
   <path class="multicolor-1:labelColor multicolor-2:tintColor hierarchical-1:primary hierarchical-2:primary SFSymbolsPreview8A8A8E" d="M30.55-80.88C30.55-79.48 31.701-78.33 33.096-78.33C33.462-78.33 33.811-78.41 34.127-78.55L34.965-77.71C35.132-77.54 35.361-77.46 35.592-77.46C36.084-77.46 36.459-77.84 36.459-78.33C36.459-78.55 36.383-78.77 36.21-78.95L35.387-79.77C35.548-80.11 35.642-80.48 35.642-80.88C35.642-82.27 34.49-83.42 33.096-83.42C31.701-83.42 30.55-82.27 30.55-80.88ZM34.441-80.88C34.441-80.13 33.843-79.53 33.096-79.53C32.349-79.53 31.751-80.13 31.751-80.88C31.751-81.62 32.349-82.22 33.096-82.22C33.843-82.22 34.441-81.62 34.441-80.88Z"/>
  </g>
  <g id="Ultralight-L" transform="matrix(1 0 0 1 507.355 1556)">
   <path class="multicolor-0:secondaryLabelColor hierarchical-0:secondary SFSymbolsPreview8A8A8E" d="M21.27-81.26L21.27-68.51L83.448-68.51L83.448-81.26C83.448-89.76 79.784-93.34 71.303-93.34L33.414-93.34C24.929-93.34 21.27-89.76 21.27-81.26Z"/>
   <path class="multicolor-1:labelColor hierarchical-1:primary SFSymbolsPreview212121" d="M18.69 10.7C18.69 20.6 23.465 25.48 33.33 25.48L71.388 25.48C81.168 25.48 86.023 20.6 86.023 10.7L86.023-81.14C86.023-91.04 81.168-95.92 71.388-95.92L33.33-95.92C23.465-95.92 18.69-91.04 18.69-81.14L18.69 10.7ZM21.27 10.81L21.27-81.26C21.27-89.75 24.929-93.34 33.414-93.34L71.303-93.34C79.784-93.34 83.448-89.75 83.448-81.26L83.448 10.81C83.448 19.31 79.784 22.99 71.303 22.99L33.414 22.99C24.929 22.99 21.27 19.31 21.27 10.81ZM26.542-80.92C26.542-83.34 28.503-85.3 30.922-85.3L73.792-85.3C76.211-85.3 78.172-83.34 78.172-80.92C78.172-78.51 76.211-76.54 73.792-76.54L30.922-76.54C28.503-76.54 26.542-78.51 26.542-80.92ZM29.32-81.08C29.32-79.68 30.471-78.53 31.866-78.53C32.232-78.53 32.581-78.61 32.897-78.75L33.735-77.91C33.902-77.75 34.13-77.67 34.362-77.67C34.854-77.67 35.229-78.05 35.229-78.54C35.229-78.76 35.153-78.98 34.98-79.15L34.157-79.98C34.318-80.31 34.412-80.68 34.412-81.08C34.412-82.47 33.26-83.62 31.866-83.62C30.471-83.62 29.32-82.47 29.32-81.08ZM33.21-81.08C33.21-80.33 32.613-79.73 31.866-79.73C31.119-79.73 30.521-80.33 30.521-81.08C30.521-81.83 31.119-82.42 31.866-82.42C32.613-82.42 33.21-81.83 33.21-81.08Z"/>
   <path class="multicolor-1:labelColor multicolor-2:tintColor hierarchical-1:primary hierarchical-2:primary SFSymbolsPreview8A8A8E" d="M29.32-81.08C29.32-79.68 30.471-78.53 31.866-78.53C32.232-78.53 32.581-78.61 32.897-78.75L33.735-77.91C33.902-77.75 34.13-77.67 34.362-77.67C34.854-77.67 35.229-78.05 35.229-78.54C35.229-78.76 35.153-78.98 34.98-79.15L34.157-79.98C34.318-80.31 34.412-80.68 34.412-81.08C34.412-82.47 33.26-83.62 31.866-83.62C30.471-83.62 29.32-82.47 29.32-81.08ZM33.21-81.08C33.21-80.33 32.613-79.73 31.866-79.73C31.119-79.73 30.521-80.33 30.521-81.08C30.521-81.83 31.119-82.42 31.866-82.42C32.613-82.42 33.21-81.83 33.21-81.08Z"/>
  </g>
  <g id="Black-M" transform="matrix(1 0 0 1 2873.61 1126)">
   <path class="multicolor-0:secondaryLabelColor hierarchical-0:secondary SFSymbolsPreview8A8A8E" d="M36.03-73.17L36.03-55.78L83.55-55.78L83.55-73.11C83.55-75.95 81.72-77.72 78.97-77.72L40.67-77.72C37.87-77.72 36.03-76.07 36.03-73.17Z"/>
   <path class="multicolor-1:labelColor hierarchical-1:primary SFSymbolsPreview212121" d="M18.69 8.89C18.69 19.01 25.73 25.79 36.22 25.79L84.55 25.79C94.36 25.79 100.9 19.01 100.9 8.84L100.9-79.59C100.9-89.76 94.36-96.55 84.55-96.55L36.22-96.55C25.73-96.55 18.69-89.76 18.69-79.65L18.69 8.89ZM36.03 2.42L36.03-73.17C36.03-76.07 37.87-77.72 40.67-77.72L78.97-77.72C81.72-77.72 83.55-75.96 83.55-73.11L83.55 2.36C83.55 5.2 81.72 6.97 78.97 6.97L40.67 6.97C37.87 6.97 36.03 5.32 36.03 2.42ZM40.06-66.75C40.06-69.06 41.93-70.92 44.23-70.92L75.35-70.92C77.65-70.92 79.52-69.06 79.52-66.75C79.52-64.45 77.65-62.59 75.35-62.59L44.23-62.59C41.93-62.59 40.06-64.45 40.06-66.75ZM42.75-66.85C42.75-65.69 43.71-64.73 44.87-64.73C45.18-64.73 45.47-64.8 45.73-64.91L46.43-64.21C46.57-64.08 46.76-64.01 46.95-64.01C47.36-64.01 47.68-64.32 47.68-64.73C47.68-64.92 47.61-65.1 47.47-65.25L46.78-65.93C46.92-66.21 46.99-66.52 46.99-66.85C46.99-68.01 46.04-68.97 44.87-68.97C43.71-68.97 42.75-68.01 42.75-66.85ZM45.99-66.85C45.99-66.23 45.5-65.73 44.87-65.73C44.25-65.73 43.75-66.23 43.75-66.85C43.75-67.47 44.25-67.97 44.87-67.97C45.5-67.97 45.99-67.47 45.99-66.85Z"/>
   <path class="multicolor-1:labelColor multicolor-2:tintColor hierarchical-1:primary hierarchical-2:primary SFSymbolsPreview8A8A8E" d="M42.75-66.85C42.75-65.69 43.71-64.73 44.87-64.73C45.18-64.73 45.47-64.8 45.73-64.91L46.43-64.21C46.57-64.08 46.76-64.01 46.95-64.01C47.36-64.01 47.68-64.32 47.68-64.73C47.68-64.92 47.61-65.1 47.47-65.25L46.78-65.93C46.92-66.21 46.99-66.52 46.99-66.85C46.99-68.01 46.04-68.97 44.87-68.97C43.71-68.97 42.75-68.01 42.75-66.85ZM45.99-66.85C45.99-66.23 45.5-65.73 44.87-65.73C44.25-65.73 43.75-66.23 43.75-66.85C43.75-67.47 44.25-67.97 44.87-67.97C45.5-67.97 45.99-67.47 45.99-66.85Z"/>
  </g>
  <g id="Heavy-M" transform="matrix(1 0 0 1 2579.19 1126)">
   <path class="multicolor-0:secondaryLabelColor hierarchical-0:secondary SFSymbolsPreview8A8A8E" d="M33.79-73.13L33.79-56.62L81.2-56.62L81.2-73.08C81.2-76.18 79.25-78.05 76.18-78.05L38.85-78.05C35.75-78.05 33.79-76.27 33.79-73.13Z"/>
   <path class="multicolor-1:labelColor hierarchical-1:primary SFSymbolsPreview212121" d="M35.22 23.57C25.32 23.57 18.69 17.2 18.69 7.67L18.69-78.38C18.69-87.9 25.32-94.28 35.22-94.28L80.68-94.28C90.05-94.28 96.31-87.9 96.31-78.34L96.31 7.63C96.31 17.2 90.05 23.57 80.68 23.57L35.22 23.57ZM33.79-73.13L33.79 2.42C33.79 5.57 35.75 7.34 38.85 7.34L76.18 7.34C79.25 7.34 81.2 5.48 81.2 2.38L81.2-73.08C81.2-76.18 79.25-78.05 76.18-78.05L38.85-78.05C35.75-78.05 33.79-76.27 33.79-73.13ZM41.75-71.38C39.51-71.38 37.7-69.57 37.7-67.33C37.7-65.1 39.51-63.28 41.75-63.28L73.26-63.28C75.49-63.28 77.31-65.1 77.31-67.33C77.31-69.57 75.49-71.38 73.26-71.38L41.75-71.38ZM40.17-67.45C40.17-66.28 41.13-65.32 42.29-65.32C42.6-65.32 42.89-65.39 43.15-65.51L43.85-64.81C43.99-64.67 44.18-64.6 44.37-64.6C44.78-64.6 45.1-64.92 45.1-65.33C45.1-65.51 45.03-65.69 44.89-65.84L44.2-66.53C44.34-66.81 44.41-67.12 44.41-67.45C44.41-68.61 43.46-69.56 42.29-69.56C41.13-69.56 40.17-68.61 40.17-67.45ZM43.41-67.45C43.41-66.82 42.92-66.32 42.29-66.32C41.67-66.32 41.17-66.82 41.17-67.45C41.17-68.07 41.67-68.57 42.29-68.57C42.92-68.57 43.41-68.07 43.41-67.45Z"/>
   <path class="multicolor-1:labelColor multicolor-2:tintColor hierarchical-1:primary hierarchical-2:primary SFSymbolsPreview8A8A8E" d="M40.17-67.45C40.17-66.28 41.13-65.32 42.29-65.32C42.6-65.32 42.89-65.39 43.15-65.51L43.85-64.81C43.99-64.67 44.18-64.6 44.37-64.6C44.78-64.6 45.1-64.92 45.1-65.33C45.1-65.51 45.03-65.69 44.89-65.84L44.2-66.53C44.34-66.81 44.41-67.12 44.41-67.45C44.41-68.61 43.46-69.56 42.29-69.56C41.13-69.56 40.17-68.61 40.17-67.45ZM43.41-67.45C43.41-66.82 42.92-66.32 42.29-66.32C41.67-66.32 41.17-66.82 41.17-67.45C41.17-68.07 41.67-68.57 42.29-68.57C42.92-68.57 43.41-68.07 43.41-67.45Z"/>
  </g>
  <g id="Bold-M" transform="matrix(1 0 0 1 2285.05 1126)">
   <path class="multicolor-0:secondaryLabelColor hierarchical-0:secondary SFSymbolsPreview8A8A8E" d="M31.28-73.08L31.28-57.55L78.55-57.55L78.55-73.05C78.55-76.44 76.49-78.41 73.04-78.41L36.82-78.41C33.37-78.41 31.28-76.49 31.28-73.08Z"/>
   <path class="multicolor-1:labelColor hierarchical-1:primary SFSymbolsPreview212121" d="M18.69 6.31C18.69 15.17 24.86 21.09 34.09 21.09L76.34 21.09C85.23 21.09 91.17 15.17 91.17 6.28L91.17-76.94C91.17-85.83 85.23-91.75 76.34-91.75L34.09-91.75C24.86-91.75 18.69-85.83 18.69-76.97L18.69 6.31ZM31.28 2.42L31.28-73.08C31.28-76.5 33.37-78.41 36.82-78.41L73.04-78.41C76.49-78.41 78.55-76.44 78.55-73.05L78.55 2.39C78.55 5.78 76.49 7.76 73.04 7.76L36.82 7.76C33.37 7.76 31.28 5.84 31.28 2.42ZM35.04-67.98C35.04-70.14 36.79-71.89 38.96-71.89L70.9-71.89C73.07-71.89 74.82-70.14 74.82-67.98C74.82-65.81 73.07-64.06 70.9-64.06L38.96-64.06C36.79-64.06 35.04-65.81 35.04-67.98ZM37.31-68.05C37.31-66.88 38.27-65.93 39.43-65.93C39.74-65.93 40.03-65.99 40.29-66.11L40.99-65.41C41.13-65.27 41.32-65.21 41.51-65.21C41.92-65.21 42.24-65.52 42.24-65.93C42.24-66.11 42.17-66.3 42.03-66.44L41.34-67.13C41.48-67.41 41.55-67.72 41.55-68.05C41.55-69.21 40.6-70.17 39.43-70.17C38.27-70.17 37.31-69.21 37.31-68.05ZM40.55-68.05C40.55-67.42 40.06-66.92 39.43-66.92C38.81-66.92 38.31-67.42 38.31-68.05C38.31-68.67 38.81-69.17 39.43-69.17C40.06-69.17 40.55-68.67 40.55-68.05Z"/>
   <path class="multicolor-1:labelColor multicolor-2:tintColor hierarchical-1:primary hierarchical-2:primary SFSymbolsPreview8A8A8E" d="M37.31-68.05C37.31-66.88 38.27-65.93 39.43-65.93C39.74-65.93 40.03-65.99 40.29-66.11L40.99-65.41C41.13-65.27 41.32-65.21 41.51-65.21C41.92-65.21 42.24-65.52 42.24-65.93C42.24-66.11 42.17-66.3 42.03-66.44L41.34-67.13C41.48-67.41 41.55-67.72 41.55-68.05C41.55-69.21 40.6-70.17 39.43-70.17C38.27-70.17 37.31-69.21 37.31-68.05ZM40.55-68.05C40.55-67.42 40.06-66.92 39.43-66.92C38.81-66.92 38.31-67.42 38.31-68.05C38.31-68.67 38.81-69.17 39.43-69.17C40.06-69.17 40.55-68.67 40.55-68.05Z"/>
  </g>
  <g id="Semibold-M" transform="matrix(1 0 0 1 1990.1 1126)">
   <path class="multicolor-0:secondaryLabelColor hierarchical-0:secondary SFSymbolsPreview8A8A8E" d="M29.56-73.05L29.56-58.19L76.74-58.19L76.74-73.03C76.74-76.55 74.68-78.58 71.11-78.66L35.22-78.66C31.66-78.58 29.56-76.58 29.56-73.05Z"/>
   <path class="multicolor-1:labelColor hierarchical-1:primary SFSymbolsPreview212121" d="M18.69 5.37C18.69 13.77 24.55 19.38 33.33 19.38L73.36 19.38C81.91 19.38 87.65 13.77 87.65 5.35L87.65-75.97C87.65-84.4 81.91-90 73.36-90L33.33-90C24.55-90 18.69-84.4 18.69-75.99L18.69 5.37ZM29.56 2.43L29.56-73.05C29.56-76.65 31.74-78.66 35.42-78.66L70.9-78.66C74.6-78.66 76.74-76.61 76.74-73.03L76.74 2.41C76.74 5.99 74.6 8.04 70.9 8.04L35.42 8.04C31.74 8.04 29.56 6.03 29.56 2.43ZM33.23-68.42C33.23-70.54 34.94-72.25 37.05-72.25L69.29-72.25C71.4-72.25 73.12-70.54 73.12-68.42C73.12-66.31 71.4-64.59 69.29-64.59L37.05-64.59C34.94-64.59 33.23-66.31 33.23-68.42ZM35.46-68.45C35.46-67.28 36.42-66.32 37.58-66.32C37.89-66.32 38.18-66.39 38.44-66.51L39.14-65.81C39.28-65.67 39.47-65.6 39.66-65.6C40.07-65.6 40.39-65.92 40.39-66.33C40.39-66.51 40.32-66.69 40.18-66.84L39.49-67.53C39.63-67.81 39.7-68.12 39.7-68.45C39.7-69.61 38.75-70.56 37.58-70.56C36.42-70.56 35.46-69.61 35.46-68.45ZM38.7-68.45C38.7-67.82 38.21-67.32 37.58-67.32C36.96-67.32 36.46-67.82 36.46-68.45C36.46-69.07 36.96-69.57 37.58-69.57C38.21-69.57 38.7-69.07 38.7-68.45Z"/>
   <path class="multicolor-1:labelColor multicolor-2:tintColor hierarchical-1:primary hierarchical-2:primary SFSymbolsPreview8A8A8E" d="M35.46-68.45C35.46-67.28 36.42-66.32 37.58-66.32C37.89-66.32 38.18-66.39 38.44-66.51L39.14-65.81C39.28-65.67 39.47-65.6 39.66-65.6C40.07-65.6 40.39-65.92 40.39-66.33C40.39-66.51 40.32-66.69 40.18-66.84L39.49-67.53C39.63-67.81 39.7-68.12 39.7-68.45C39.7-69.61 38.75-70.56 37.58-70.56C36.42-70.56 35.46-69.61 35.46-68.45ZM38.7-68.45C38.7-67.82 38.21-67.32 37.58-67.32C36.96-67.32 36.46-67.82 36.46-68.45C36.46-69.07 36.96-69.57 37.58-69.57C38.21-69.57 38.7-69.07 38.7-68.45Z"/>
  </g>
  <g id="Medium-M" transform="matrix(1 0 0 1 1694.73 1126)">
   <path class="multicolor-0:secondaryLabelColor hierarchical-0:secondary SFSymbolsPreview8A8A8E" d="M28.25-73.02L28.25-58.64L75.35-58.64L75.35-73.01C75.35-76.72 73.18-78.82 69.33-78.84L34.29-78.84C30.47-78.82 28.25-76.74 28.25-73.02Z"/>
   <path class="multicolor-1:labelColor hierarchical-1:primary SFSymbolsPreview212121" d="M18.69 4.66C18.69 12.72 24.3 18.08 32.73 18.08L71.09 18.08C79.38 18.08 84.96 12.72 84.96 4.65L84.96-75.23C84.96-83.31 79.38-88.67 71.09-88.67L32.73-88.67C24.3-88.67 18.69-83.31 18.69-75.24L18.69 4.66ZM28.25 2.43L28.25-73.02C28.25-76.77 30.5-78.84 34.35-78.84L69.26-78.84C73.15-78.84 75.35-76.74 75.35-73.01L75.35 2.42C75.35 6.16 73.15 8.27 69.26 8.27L34.35 8.27C30.5 8.27 28.25 6.18 28.25 2.43ZM31.83-68.75C31.83-70.82 33.51-72.51 35.59-72.51L68.05-72.51C70.13-72.51 71.81-70.82 71.81-68.75C71.81-66.67 70.13-64.99 68.05-64.99L35.59-64.99C33.51-64.99 31.83-66.67 31.83-68.75ZM33.83-68.85C33.83-67.69 34.79-66.73 35.95-66.73C36.26-66.73 36.55-66.8 36.81-66.91L37.51-66.21C37.65-66.08 37.84-66.01 38.03-66.01C38.44-66.01 38.76-66.32 38.76-66.73C38.76-66.92 38.69-67.1 38.55-67.25L37.86-67.93C38-68.21 38.07-68.52 38.07-68.85C38.07-70.01 37.12-70.97 35.95-70.97C34.79-70.97 33.83-70.01 33.83-68.85ZM37.07-68.85C37.07-68.23 36.58-67.73 35.95-67.73C35.33-67.73 34.83-68.23 34.83-68.85C34.83-69.47 35.33-69.97 35.95-69.97C36.58-69.97 37.07-69.47 37.07-68.85Z"/>
   <path class="multicolor-1:labelColor multicolor-2:tintColor hierarchical-1:primary hierarchical-2:primary SFSymbolsPreview8A8A8E" d="M33.83-68.85C33.83-67.69 34.79-66.73 35.95-66.73C36.26-66.73 36.55-66.8 36.81-66.91L37.51-66.21C37.65-66.08 37.84-66.01 38.03-66.01C38.44-66.01 38.76-66.32 38.76-66.73C38.76-66.92 38.69-67.1 38.55-67.25L37.86-67.93C38-68.21 38.07-68.52 38.07-68.85C38.07-70.01 37.12-70.97 35.95-70.97C34.79-70.97 33.83-70.01 33.83-68.85ZM37.07-68.85C37.07-68.23 36.58-67.73 35.95-67.73C35.33-67.73 34.83-68.23 34.83-68.85C34.83-69.47 35.33-69.97 35.95-69.97C36.58-69.97 37.07-69.47 37.07-68.85Z"/>
  </g>
  <g id="Regular-M" transform="matrix(1 0 0 1 1399.77 1126)">
   <path class="multicolor-0:secondaryLabelColor hierarchical-0:secondary SFSymbolsPreview8A8A8E" d="M73.56-72.99C73.56-76.8 71.41-78.96 67.5-79.09L32.61-79.09C28.74-78.96 26.55-76.8 26.55-72.99L26.55-59.29L50.05-59.29L73.56-59.29L73.56-72.99Z"/>
   <path class="multicolor-1:labelColor hierarchical-1:primary SFSymbolsPreview212121" d="M18.69 3.73C18.69 11.34 23.99 16.39 31.97 16.39L68.14 16.39C76.1 16.39 81.46 11.34 81.46 3.73L81.46-74.28C81.46-81.89 76.1-86.95 68.14-86.95L31.97-86.95C23.99-86.95 18.69-81.89 18.69-74.28L18.69 3.73ZM26.55 2.43L26.55-72.99C26.55-76.92 28.88-79.09 32.97-79.09L67.13-79.09C71.27-79.09 73.56-76.92 73.56-72.99L73.56 2.43C73.56 6.36 71.27 8.55 67.13 8.55L32.97 8.55C28.88 8.55 26.55 6.36 26.55 2.43ZM30-69.19C30-71.22 31.65-72.86 33.67-72.86L66.42-72.86C68.45-72.86 70.09-71.22 70.09-69.19C70.09-67.16 68.45-65.52 66.42-65.52L33.67-65.52C31.65-65.52 30-67.16 30-69.19ZM31.79-69.35C31.79-68.19 32.75-67.23 33.91-67.23C34.22-67.23 34.51-67.3 34.77-67.41L35.47-66.71C35.61-66.58 35.8-66.51 35.99-66.51C36.4-66.51 36.72-66.82 36.72-67.23C36.72-67.42 36.65-67.6 36.51-67.75L35.82-68.43C35.96-68.71 36.03-69.02 36.03-69.35C36.03-70.51 35.08-71.47 33.91-71.47C32.75-71.47 31.79-70.51 31.79-69.35ZM35.03-69.35C35.03-68.73 34.54-68.23 33.91-68.23C33.29-68.23 32.79-68.73 32.79-69.35C32.79-69.97 33.29-70.47 33.91-70.47C34.54-70.47 35.03-69.97 35.03-69.35Z"/>
   <path class="multicolor-1:labelColor multicolor-2:tintColor hierarchical-1:primary hierarchical-2:primary SFSymbolsPreview8A8A8E" d="M31.79-69.35C31.79-68.19 32.75-67.23 33.91-67.23C34.22-67.23 34.51-67.3 34.77-67.41L35.47-66.71C35.61-66.58 35.8-66.51 35.99-66.51C36.4-66.51 36.72-66.82 36.72-67.23C36.72-67.42 36.65-67.6 36.51-67.75L35.82-68.43C35.96-68.71 36.03-69.02 36.03-69.35C36.03-70.51 35.08-71.47 33.91-71.47C32.75-71.47 31.79-70.51 31.79-69.35ZM35.03-69.35C35.03-68.73 34.54-68.23 33.91-68.23C33.29-68.23 32.79-68.73 32.79-69.35C32.79-69.97 33.29-70.47 33.91-70.47C34.54-70.47 35.03-69.97 35.03-69.35Z"/>
  </g>
  <g id="Light-M" transform="matrix(1 0 0 1 1104.7 1126)">
   <path class="multicolor-0:secondaryLabelColor hierarchical-0:secondary SFSymbolsPreview8A8A8E" d="M24.73-72.34L24.73-59.82L72.1-59.82L72.1-72.34C72.1-77.09 69.65-79.45 64.75-79.45L32.08-79.45C27.22-79.45 24.73-77.09 24.73-72.34Z"/>
   <path class="multicolor-1:labelColor hierarchical-1:primary SFSymbolsPreview212121" d="M18.69 2.68C18.69 10.31 23.5 14.97 31.37 14.97L65.47 14.97C73.31 14.97 78.18 10.31 78.18 2.68L78.18-73.2C78.18-80.83 73.31-85.49 65.47-85.49L31.37-85.49C23.5-85.49 18.69-80.83 18.69-73.2L18.69 2.68ZM24.73 1.81L24.73-72.34C24.73-77.09 27.22-79.45 32.08-79.45L64.75-79.45C69.65-79.45 72.1-77.09 72.1-72.34L72.1 1.81C72.1 6.57 69.65 8.96 64.75 8.96L32.08 8.96C27.22 8.96 24.73 6.57 24.73 1.81ZM28.21-69.64C28.21-71.62 29.81-73.22 31.79-73.22L65.07-73.22C67.05-73.22 68.66-71.62 68.66-69.64C68.66-67.66 67.05-66.05 65.07-66.05L31.79-66.05C29.81-66.05 28.21-67.66 28.21-69.64ZM30.16-69.85C30.16-68.69 31.12-67.73 32.28-67.73C32.59-67.73 32.88-67.8 33.14-67.91L33.84-67.21C33.98-67.08 34.17-67.01 34.36-67.01C34.77-67.01 35.09-67.32 35.09-67.73C35.09-67.92 35.02-68.1 34.88-68.25L34.19-68.93C34.33-69.21 34.4-69.52 34.4-69.85C34.4-71.01 33.45-71.97 32.28-71.97C31.12-71.97 30.16-71.01 30.16-69.85ZM33.4-69.85C33.4-69.23 32.91-68.73 32.28-68.73C31.66-68.73 31.16-69.23 31.16-69.85C31.16-70.47 31.66-70.97 32.28-70.97C32.91-70.97 33.4-70.47 33.4-69.85Z"/>
   <path class="multicolor-1:labelColor multicolor-2:tintColor hierarchical-1:primary hierarchical-2:primary SFSymbolsPreview8A8A8E" d="M30.16-69.85C30.16-68.69 31.12-67.73 32.28-67.73C32.59-67.73 32.88-67.8 33.14-67.91L33.84-67.21C33.98-67.08 34.17-67.01 34.36-67.01C34.77-67.01 35.09-67.32 35.09-67.73C35.09-67.92 35.02-68.1 34.88-68.25L34.19-68.93C34.33-69.21 34.4-69.52 34.4-69.85C34.4-71.01 33.45-71.97 32.28-71.97C31.12-71.97 30.16-71.01 30.16-69.85ZM33.4-69.85C33.4-69.23 32.91-68.73 32.28-68.73C31.66-68.73 31.16-69.23 31.16-69.85C31.16-70.47 31.66-70.97 32.28-70.97C32.91-70.97 33.4-70.47 33.4-69.85Z"/>
  </g>
  <g id="Thin-M" transform="matrix(1 0 0 1 810.162 1126)">
   <path class="multicolor-0:secondaryLabelColor hierarchical-0:secondary SFSymbolsPreview8A8A8E" d="M22.331-71.48L22.331-60.54L70.178-60.54L70.178-71.48C70.178-77.32 67.494-79.93 61.605-79.93L30.903-79.93C25.026-79.93 22.331-77.32 22.331-71.48Z"/>
   <path class="multicolor-1:labelColor hierarchical-1:primary SFSymbolsPreview212121" d="M18.69 1.3C18.69 8.95 22.838 13.09 30.574 13.09L61.934 13.09C69.619 13.09 73.83 8.95 73.83 1.3L73.83-71.78C73.83-79.43 69.619-83.57 61.934-83.57L30.574-83.57C22.838-83.57 18.69-79.43 18.69-71.78L18.69 1.3ZM22.33 1L22.33-71.48C22.33-77.32 25.026-79.93 30.903-79.93L61.605-79.93C67.494-79.93 70.177-77.32 70.177-71.48L70.177 1C70.177 6.84 67.494 9.5 61.605 9.5L30.903 9.5C25.026 9.5 22.33 6.84 22.33 1ZM25.798-70.23C25.798-72.15 27.352-73.7 29.268-73.7L63.258-73.7C65.175-73.7 66.728-72.15 66.728-70.23C66.728-68.31 65.175-66.76 63.258-66.76L29.268-66.76C27.352-66.76 25.798-68.31 25.798-70.23ZM27.699-70.45C27.699-69.28 28.659-68.32 29.821-68.32C30.126-68.32 30.417-68.39 30.68-68.51L31.379-67.81C31.518-67.67 31.708-67.6 31.901-67.6C32.311-67.6 32.624-67.92 32.624-68.33C32.624-68.51 32.56-68.69 32.416-68.84L31.73-69.53C31.864-69.81 31.942-70.12 31.942-70.45C31.942-71.61 30.983-72.56 29.821-72.56C28.659-72.56 27.699-71.61 27.699-70.45ZM30.942-70.45C30.942-69.82 30.443-69.32 29.821-69.32C29.198-69.32 28.7-69.82 28.7-70.45C28.7-71.07 29.198-71.57 29.821-71.57C30.443-71.57 30.942-71.07 30.942-70.45Z"/>
   <path class="multicolor-1:labelColor multicolor-2:tintColor hierarchical-1:primary hierarchical-2:primary SFSymbolsPreview8A8A8E" d="M27.699-70.45C27.699-69.28 28.659-68.32 29.821-68.32C30.126-68.32 30.417-68.39 30.68-68.51L31.379-67.81C31.518-67.67 31.708-67.6 31.901-67.6C32.311-67.6 32.624-67.92 32.624-68.33C32.624-68.51 32.56-68.69 32.416-68.84L31.73-69.53C31.864-69.81 31.942-70.12 31.942-70.45C31.942-71.61 30.983-72.56 29.821-72.56C28.659-72.56 27.699-71.61 27.699-70.45ZM30.942-70.45C30.942-69.82 30.443-69.32 29.821-69.32C29.198-69.32 28.7-69.82 28.7-70.45C28.7-71.07 29.198-71.57 29.821-71.57C30.443-71.57 30.942-71.07 30.942-70.45Z"/>
  </g>
  <g id="Ultralight-M" transform="matrix(1 0 0 1 514.563 1126)">
   <path class="multicolor-0:secondaryLabelColor hierarchical-0:secondary SFSymbolsPreview8A8A8E" d="M21.103-60.89L21.103-71.04C21.103-77.44 23.902-80.17 30.301-80.17L59.995-80.17C66.393-80.17 69.193-77.44 69.193-71.04L69.193-60.89L21.103-60.89Z"/>
   <path class="multicolor-1:labelColor hierarchical-1:primary SFSymbolsPreview212121" d="M18.69 0.59C18.69 8.25 22.503 12.13 30.169 12.13L60.126 12.13C67.731 12.13 71.606 8.25 71.606 0.59L71.606-71.05C71.606-78.71 67.731-82.59 60.126-82.59L30.169-82.59C22.503-82.59 18.69-78.71 18.69-71.05L18.69 0.59ZM21.103 0.58L21.103-71.04C21.103-77.44 23.903-80.17 30.301-80.17L59.995-80.17C66.394-80.17 69.193-77.44 69.193-71.04L69.193 0.58C69.193 6.98 66.394 9.78 59.995 9.78L30.301 9.78C23.903 9.78 21.103 6.98 21.103 0.58ZM24.563-70.53C24.563-72.42 26.091-73.95 27.975-73.95L62.32-73.95C64.205-73.95 65.733-72.42 65.733-70.53C65.733-68.65 64.205-67.12 62.32-67.12L27.975-67.12C26.091-67.12 24.563-68.65 24.563-70.53ZM26.298-70.65C26.298-69.49 27.258-68.53 28.42-68.53C28.725-68.53 29.016-68.59 29.279-68.71L29.978-68.01C30.117-67.87 30.307-67.81 30.5-67.81C30.91-67.81 31.223-68.12 31.223-68.53C31.223-68.71 31.159-68.9 31.015-69.04L30.329-69.73C30.463-70.01 30.541-70.32 30.541-70.65C30.541-71.81 29.582-72.77 28.42-72.77C27.258-72.77 26.298-71.81 26.298-70.65ZM29.541-70.65C29.541-70.03 29.042-69.53 28.42-69.53C27.797-69.53 27.299-70.03 27.299-70.65C27.299-71.27 27.797-71.77 28.42-71.77C29.042-71.77 29.541-71.27 29.541-70.65Z"/>
   <path class="multicolor-1:labelColor multicolor-2:tintColor hierarchical-1:primary hierarchical-2:primary SFSymbolsPreview8A8A8E" d="M26.298-70.65C26.298-69.49 27.258-68.53 28.42-68.53C28.725-68.53 29.016-68.59 29.279-68.71L29.978-68.01C30.117-67.87 30.307-67.81 30.5-67.81C30.91-67.81 31.223-68.12 31.223-68.53C31.223-68.71 31.159-68.9 31.015-69.04L30.329-69.73C30.463-70.01 30.541-70.32 30.541-70.65C30.541-71.81 29.582-72.77 28.42-72.77C27.258-72.77 26.298-71.81 26.298-70.65ZM29.541-70.65C29.541-70.03 29.042-69.53 28.42-69.53C27.797-69.53 27.299-70.03 27.299-70.65C27.299-71.27 27.797-71.77 28.42-71.77C29.042-71.77 29.541-71.27 29.541-70.65Z"/>
  </g>
  <g id="Black-S" transform="matrix(1 0 0 1 2881.9 696)">
   <path class="multicolor-0:secondaryLabelColor hierarchical-0:secondary SFSymbolsPreview8A8A8E" d="M32.85-64.938L32.85-51.113L70.15-51.113L70.15-64.889C70.15-67.086 68.74-68.453 66.64-68.453L36.41-68.453C34.26-68.453 32.85-67.184 32.85-64.938Z"/>
   <path class="multicolor-1:labelColor hierarchical-1:primary SFSymbolsPreview212121" d="M32.7 13.187C24.3 13.187 18.69 7.768 18.69-0.338L18.69-70.357C18.69-78.463 24.3-83.883 32.7-83.883L71.32-83.883C79.14-83.883 84.31-78.463 84.31-70.309L84.31-0.387C84.31 7.768 79.14 13.187 71.32 13.187L32.7 13.187ZM32.85-64.938L32.85-5.758C32.85-3.512 34.26-2.242 36.41-2.242L66.64-2.242C68.74-2.242 70.15-3.609 70.15-5.807L70.15-64.889C70.15-67.086 68.74-68.453 66.64-68.453L36.41-68.453C34.26-68.453 32.85-67.184 32.85-64.938ZM38.75-63.086C36.93-63.086 35.45-61.611 35.45-59.791C35.45-57.971 36.93-56.496 38.75-56.496L64.26-56.496C66.08-56.496 67.55-57.971 67.55-59.791C67.55-61.611 66.08-63.086 64.26-63.086L38.75-63.086ZM37.55-59.961C37.55-59.031 38.32-58.264 39.25-58.264C39.49-58.264 39.72-58.316 39.93-58.41L40.49-57.852C40.6-57.74 40.76-57.688 40.91-57.688C41.24-57.688 41.49-57.939 41.49-58.266C41.49-58.414 41.44-58.561 41.32-58.678L40.77-59.227C40.88-59.449 40.94-59.697 40.94-59.961C40.94-60.891 40.18-61.656 39.25-61.656C38.32-61.656 37.55-60.891 37.55-59.961ZM40.14-59.961C40.14-59.463 39.74-59.062 39.25-59.062C38.75-59.062 38.35-59.463 38.35-59.961C38.35-60.459 38.75-60.857 39.25-60.857C39.74-60.857 40.14-60.459 40.14-59.961Z"/>
   <path class="multicolor-1:labelColor multicolor-2:tintColor hierarchical-1:primary hierarchical-2:primary SFSymbolsPreview8A8A8E" d="M37.55-59.961C37.55-59.031 38.32-58.264 39.25-58.264C39.49-58.264 39.72-58.316 39.93-58.41L40.49-57.852C40.6-57.74 40.76-57.688 40.91-57.688C41.24-57.688 41.49-57.939 41.49-58.266C41.49-58.414 41.44-58.561 41.32-58.678L40.77-59.227C40.88-59.449 40.94-59.697 40.94-59.961C40.94-60.891 40.18-61.656 39.25-61.656C38.32-61.656 37.55-60.891 37.55-59.961ZM40.14-59.961C40.14-59.463 39.74-59.062 39.25-59.062C38.75-59.062 38.35-59.463 38.35-59.961C38.35-60.459 38.75-60.857 39.25-60.857C39.74-60.857 40.14-60.459 40.14-59.961Z"/>
  </g>
  <g id="Heavy-S" transform="matrix(1 0 0 1 2586.93 696)">
   <path class="multicolor-0:secondaryLabelColor hierarchical-0:secondary SFSymbolsPreview8A8A8E" d="M31.17-64.988L31.17-51.76L68.33-51.76L68.33-64.95C68.33-67.263 66.84-68.688 64.56-68.688L34.98-68.688C32.67-68.688 31.17-67.337 31.17-64.988Z"/>
   <path class="multicolor-1:labelColor hierarchical-1:primary SFSymbolsPreview212121" d="M31.92 11.469C24.02 11.469 18.69 6.348 18.69-1.25L18.69-69.414C18.69-77.013 24.02-82.133 31.92-82.133L68.36-82.133C75.81-82.133 80.82-77.013 80.82-69.377L80.82-1.287C80.82 6.348 75.81 11.469 68.36 11.469L31.92 11.469ZM31.17-64.985L31.17-5.679C31.17-3.329 32.67-1.979 34.98-1.979L64.56-1.979C66.84-1.979 68.33-3.404 68.33-5.716L68.33-64.948C68.33-67.261 66.84-68.685 64.56-68.685L34.98-68.685C32.67-68.685 31.17-67.335 31.17-64.985ZM36.87-63.426C35.1-63.426 33.66-61.99 33.66-60.219C33.66-58.447 35.1-57.011 36.87-57.011L62.64-57.011C64.41-57.011 65.84-58.447 65.84-60.219C65.84-61.99 64.41-63.426 62.64-63.426L36.87-63.426ZM35.52-60.32C35.52-59.391 36.29-58.623 37.22-58.623C37.46-58.623 37.69-58.676 37.9-58.77L38.46-58.211C38.57-58.1 38.73-58.047 38.88-58.047C39.21-58.047 39.46-58.299 39.46-58.625C39.46-58.773 39.41-58.92 39.29-59.037L38.74-59.586C38.85-59.809 38.91-60.057 38.91-60.32C38.91-61.25 38.15-62.016 37.22-62.016C36.29-62.016 35.52-61.25 35.52-60.32ZM38.11-60.32C38.11-59.822 37.71-59.422 37.22-59.422C36.72-59.422 36.32-59.822 36.32-60.32C36.32-60.818 36.72-61.217 37.22-61.217C37.71-61.217 38.11-60.818 38.11-60.32Z"/>
   <path class="multicolor-1:labelColor multicolor-2:tintColor hierarchical-1:primary hierarchical-2:primary SFSymbolsPreview8A8A8E" d="M35.52-60.32C35.52-59.391 36.29-58.623 37.22-58.623C37.46-58.623 37.69-58.676 37.9-58.77L38.46-58.211C38.57-58.1 38.73-58.047 38.88-58.047C39.21-58.047 39.46-58.299 39.46-58.625C39.46-58.773 39.41-58.92 39.29-59.037L38.74-59.586C38.85-59.809 38.91-60.057 38.91-60.32C38.91-61.25 38.15-62.016 37.22-62.016C36.29-62.016 35.52-61.25 35.52-60.32ZM38.11-60.32C38.11-59.822 37.71-59.422 37.22-59.422C36.72-59.422 36.32-59.822 36.32-60.32C36.32-60.818 36.72-61.217 37.22-61.217C37.71-61.217 38.11-60.818 38.11-60.32Z"/>
  </g>
  <g id="Bold-S" transform="matrix(1 0 0 1 2292.19 696)">
   <path class="multicolor-0:secondaryLabelColor hierarchical-0:secondary SFSymbolsPreview8A8A8E" d="M66.27-52.468L29.28-52.468L29.28-65.031C29.28-67.497 30.87-68.938 33.36-68.938L62.22-68.938C64.71-68.938 66.27-67.448 66.27-65.007L66.27-52.468Z"/>
   <path class="multicolor-1:labelColor hierarchical-1:primary SFSymbolsPreview212121" d="M31.04 9.55C23.69 9.55 18.69 4.765 18.69-2.267L18.69-68.355C18.69-75.387 23.69-80.172 31.04-80.172L65.03-80.172C72.08-80.172 76.89-75.387 76.89-68.331L76.89-2.291C76.89 4.765 72.08 9.55 65.03 9.55L31.04 9.55ZM29.28-65.035L29.28-5.587C29.28-3.121 30.87-1.681 33.36-1.681L62.22-1.681C64.71-1.681 66.27-3.17 66.27-5.611L66.27-65.011C66.27-67.452 64.71-68.941 62.22-68.941L33.36-68.941C30.87-68.941 29.28-67.501 29.28-65.035ZM34.76-63.816C33.05-63.816 31.65-62.425 31.65-60.709C31.65-58.992 33.05-57.601 34.76-57.601L60.82-57.601C62.53-57.601 63.92-58.992 63.92-60.709C63.92-62.425 62.53-63.816 60.82-63.816L34.76-63.816ZM33.66-60.719C33.66-59.789 34.43-59.021 35.36-59.021C35.6-59.021 35.83-59.074 36.04-59.168L36.6-58.609C36.71-58.498 36.87-58.445 37.02-58.445C37.35-58.445 37.6-58.697 37.6-59.023C37.6-59.172 37.55-59.318 37.43-59.436L36.88-59.984C36.99-60.207 37.05-60.455 37.05-60.719C37.05-61.648 36.29-62.414 35.36-62.414C34.43-62.414 33.66-61.648 33.66-60.719ZM36.25-60.719C36.25-60.221 35.85-59.82 35.36-59.82C34.86-59.82 34.46-60.221 34.46-60.719C34.46-61.217 34.86-61.615 35.36-61.615C35.85-61.615 36.25-61.217 36.25-60.719Z"/>
   <path class="multicolor-1:labelColor multicolor-2:tintColor hierarchical-1:primary hierarchical-2:primary SFSymbolsPreview8A8A8E" d="M33.66-60.719C33.66-59.789 34.43-59.021 35.36-59.021C35.6-59.021 35.83-59.074 36.04-59.168L36.6-58.609C36.71-58.498 36.87-58.445 37.02-58.445C37.35-58.445 37.6-58.697 37.6-59.023C37.6-59.172 37.55-59.318 37.43-59.436L36.88-59.984C36.99-60.207 37.05-60.455 37.05-60.719C37.05-61.648 36.29-62.414 35.36-62.414C34.43-62.414 33.66-61.648 33.66-60.719ZM36.25-60.719C36.25-60.221 35.85-59.82 35.36-59.82C34.86-59.82 34.46-60.221 34.46-60.719C34.46-61.217 34.86-61.615 35.36-61.615C35.85-61.615 36.25-61.217 36.25-60.719Z"/>
  </g>
  <g id="Semibold-S" transform="matrix(1 0 0 1 1996.83 696)">
   <path class="multicolor-0:secondaryLabelColor hierarchical-0:secondary SFSymbolsPreview8A8A8E" d="M27.99-65.069L27.99-52.952L64.86-52.952L64.86-65.053C64.86-67.584 63.25-69.117 60.61-69.117L32.25-69.117C29.64-69.117 27.99-67.615 27.99-65.069Z"/>
   <path class="multicolor-1:labelColor hierarchical-1:primary SFSymbolsPreview212121" d="M30.44 8.226C23.48 8.226 18.69 3.672 18.69-2.968L18.69-67.626C18.69-74.266 23.48-78.82 30.44-78.82L62.74-78.82C69.52-78.82 74.19-74.266 74.19-67.61L74.19-2.983C74.19 3.672 69.52 8.226 62.74 8.226L30.44 8.226ZM27.99-65.07L27.99-5.524C27.99-2.978 29.64-1.475 32.25-1.475L60.61-1.475C63.25-1.475 64.86-3.009 64.86-5.539L64.86-65.054C64.86-67.585 63.25-69.118 60.61-69.118L32.25-69.118C29.64-69.118 27.99-67.616 27.99-65.07ZM33.31-64.078C31.63-64.078 30.27-62.718 30.27-61.041C30.27-59.363 31.63-58.003 33.31-58.003L59.58-58.003C61.25-58.003 62.61-59.363 62.61-61.041C62.61-62.718 61.25-64.078 59.58-64.078L33.31-64.078ZM32.03-61.219C32.03-60.289 32.8-59.521 33.73-59.521C33.97-59.521 34.2-59.574 34.41-59.668L34.97-59.109C35.08-58.998 35.24-58.945 35.39-58.945C35.72-58.945 35.97-59.197 35.97-59.523C35.97-59.672 35.92-59.818 35.8-59.936L35.25-60.484C35.36-60.707 35.42-60.955 35.42-61.219C35.42-62.148 34.66-62.914 33.73-62.914C32.8-62.914 32.03-62.148 32.03-61.219ZM34.62-61.219C34.62-60.721 34.22-60.32 33.73-60.32C33.23-60.32 32.83-60.721 32.83-61.219C32.83-61.717 33.23-62.115 33.73-62.115C34.22-62.115 34.62-61.717 34.62-61.219Z"/>
   <path class="multicolor-1:labelColor multicolor-2:tintColor hierarchical-1:primary hierarchical-2:primary SFSymbolsPreview8A8A8E" d="M32.03-61.219C32.03-60.289 32.8-59.521 33.73-59.521C33.97-59.521 34.2-59.574 34.41-59.668L34.97-59.109C35.08-58.998 35.24-58.945 35.39-58.945C35.72-58.945 35.97-59.197 35.97-59.523C35.97-59.672 35.92-59.818 35.8-59.936L35.25-60.484C35.36-60.707 35.42-60.955 35.42-61.219C35.42-62.148 34.66-62.914 33.73-62.914C32.8-62.914 32.03-62.148 32.03-61.219ZM34.62-61.219C34.62-60.721 34.22-60.32 33.73-60.32C33.23-60.32 32.83-60.721 32.83-61.219C32.83-61.717 33.23-62.115 33.73-62.115C34.22-62.115 34.62-61.717 34.62-61.219Z"/>
  </g>
  <g id="Medium-S" transform="matrix(1 0 0 1 1701.14 696)">
   <path class="multicolor-0:secondaryLabelColor hierarchical-0:secondary SFSymbolsPreview8A8A8E" d="M27-65.102L27-53.363L63.79-53.363L63.79-65.093C63.79-67.69 62.13-69.258 59.39-69.258L31.41-69.258C28.7-69.258 27-67.708 27-65.102Z"/>
   <path class="multicolor-1:labelColor hierarchical-1:primary SFSymbolsPreview212121" d="M29.98 7.222C23.3 7.222 18.69 2.843 18.69-3.501L18.69-67.074C18.69-73.418 23.3-77.797 29.98-77.797L61-77.797C67.57-77.797 72.14-73.418 72.14-67.065L72.14-3.51C72.14 2.843 67.57 7.222 61 7.222L29.98 7.222ZM27-65.098L27-5.478C27-2.871 28.7-1.321 31.41-1.321L59.39-1.321C62.13-1.321 63.79-2.889 63.79-5.486L63.79-65.089C63.79-67.686 62.13-69.254 59.39-69.254L31.41-69.254C28.7-69.254 27-67.704 27-65.098ZM32.21-64.285C30.56-64.285 29.23-62.949 29.23-61.3C29.23-59.652 30.56-58.315 32.21-58.315L58.62-58.315C60.27-58.315 61.61-59.652 61.61-61.3C61.61-62.949 60.27-64.285 58.62-64.285L32.21-64.285ZM31.01-61.422C31.01-60.492 31.78-59.725 32.71-59.725C32.95-59.725 33.18-59.777 33.39-59.871L33.95-59.312C34.06-59.201 34.22-59.148 34.37-59.148C34.7-59.148 34.95-59.4 34.95-59.727C34.95-59.875 34.9-60.021 34.78-60.139L34.23-60.688C34.34-60.91 34.4-61.158 34.4-61.422C34.4-62.352 33.64-63.117 32.71-63.117C31.78-63.117 31.01-62.352 31.01-61.422ZM33.6-61.422C33.6-60.924 33.2-60.523 32.71-60.523C32.21-60.523 31.81-60.924 31.81-61.422C31.81-61.92 32.21-62.318 32.71-62.318C33.2-62.318 33.6-61.92 33.6-61.422Z"/>
   <path class="multicolor-1:labelColor multicolor-2:tintColor hierarchical-1:primary hierarchical-2:primary SFSymbolsPreview8A8A8E" d="M31.01-61.422C31.01-60.492 31.78-59.725 32.71-59.725C32.95-59.725 33.18-59.777 33.39-59.871L33.95-59.312C34.06-59.201 34.22-59.148 34.37-59.148C34.7-59.148 34.95-59.4 34.95-59.727C34.95-59.875 34.9-60.021 34.78-60.139L34.23-60.688C34.34-60.91 34.4-61.158 34.4-61.422C34.4-62.352 33.64-63.117 32.71-63.117C31.78-63.117 31.01-62.352 31.01-61.422ZM33.6-61.422C33.6-60.924 33.2-60.523 32.71-60.523C32.21-60.523 31.81-60.924 31.81-61.422C31.81-61.92 32.21-62.318 32.71-62.318C33.2-62.318 33.6-61.92 33.6-61.422Z"/>
  </g>
  <g id="Regular-S" transform="matrix(1 0 0 1 1405.76 696)">
   <path class="multicolor-0:secondaryLabelColor hierarchical-0:secondary SFSymbolsPreview8A8A8E" d="M25.72-65.133L25.72-53.82L62.39-53.82L62.39-65.133C62.39-67.818 60.68-69.43 57.8-69.43L30.31-69.43C27.48-69.43 25.72-67.818 25.72-65.133Z"/>
   <path class="multicolor-1:labelColor hierarchical-1:primary SFSymbolsPreview212121" d="M29.38 5.912C23.08 5.912 18.69 1.762 18.69-4.195L18.69-66.354C18.69-72.311 23.08-76.461 29.38-76.461L58.73-76.461C65.03-76.461 69.47-72.311 69.47-66.354L69.47-4.195C69.47 1.762 65.03 5.912 58.73 5.912L29.38 5.912ZM25.72-65.133L25.72-5.416C25.72-2.731 27.48-1.119 30.31-1.119L57.8-1.119C60.68-1.119 62.39-2.731 62.39-5.416L62.39-65.133C62.39-67.818 60.68-69.43 57.8-69.43L30.31-69.43C27.48-69.43 25.72-67.818 25.72-65.133ZM30.78-64.546C29.17-64.546 27.86-63.24 27.86-61.629C27.86-60.017 29.17-58.711 30.78-58.711L57.38-58.711C58.99-58.711 60.3-60.017 60.3-61.629C60.3-63.24 58.99-64.546 57.38-64.546L30.78-64.546ZM29.68-61.719C29.68-60.789 30.45-60.021 31.38-60.021C31.62-60.021 31.85-60.074 32.06-60.168L32.62-59.609C32.73-59.498 32.89-59.445 33.04-59.445C33.37-59.445 33.62-59.697 33.62-60.023C33.62-60.172 33.57-60.318 33.45-60.436L32.9-60.984C33.01-61.207 33.07-61.455 33.07-61.719C33.07-62.648 32.31-63.414 31.38-63.414C30.45-63.414 29.68-62.648 29.68-61.719ZM32.27-61.719C32.27-61.221 31.87-60.82 31.38-60.82C30.88-60.82 30.48-61.221 30.48-61.719C30.48-62.217 30.88-62.615 31.38-62.615C31.87-62.615 32.27-62.217 32.27-61.719Z"/>
   <path class="multicolor-1:labelColor multicolor-2:tintColor hierarchical-1:primary hierarchical-2:primary SFSymbolsPreview8A8A8E" d="M29.68-61.719C29.68-60.789 30.45-60.021 31.38-60.021C31.62-60.021 31.85-60.074 32.06-60.168L32.62-59.609C32.73-59.498 32.89-59.445 33.04-59.445C33.37-59.445 33.62-59.697 33.62-60.023C33.62-60.172 33.57-60.318 33.45-60.436L32.9-60.984C33.01-61.207 33.07-61.455 33.07-61.719C33.07-62.648 32.31-63.414 31.38-63.414C30.45-63.414 29.68-62.648 29.68-61.719ZM32.27-61.719C32.27-61.221 31.87-60.82 31.38-60.82C30.88-60.82 30.48-61.221 30.48-61.719C30.48-62.217 30.88-62.615 31.38-62.615C31.87-62.615 32.27-62.217 32.27-61.719Z"/>
  </g>
  <g id="Light-S" transform="matrix(1 0 0 1 1110.51 696)">
   <path class="multicolor-0:secondaryLabelColor hierarchical-0:secondary SFSymbolsPreview8A8A8E" d="M24.12-64.56L24.12-54.307L61.1-54.307L61.1-64.56C61.1-67.972 59.24-69.75 55.7-69.75L29.52-69.75C26.01-69.75 24.12-67.972 24.12-64.56Z"/>
   <path class="multicolor-1:labelColor hierarchical-1:primary SFSymbolsPreview212121" d="M28.85 4.65C22.64 4.65 18.69 0.848 18.69-5.124L18.69-65.405C18.69-71.377 22.64-75.18 28.85-75.18L56.37-75.18C62.56-75.18 66.56-71.377 66.56-65.405L66.56-5.124C66.56 0.848 62.56 4.65 56.37 4.65L28.85 4.65ZM24.12-64.563L24.12-5.966C24.12-2.554 26.01-0.761 29.52-0.761L55.7-0.761C59.24-0.761 61.1-2.554 61.1-5.966L61.1-64.563C61.1-67.975 59.24-69.753 55.7-69.753L29.52-69.753C26.01-69.753 24.12-67.975 24.12-64.563ZM29.09-64.871C27.52-64.871 26.25-63.598 26.25-62.029C26.25-60.459 27.52-59.186 29.09-59.186L56.16-59.186C57.73-59.186 59.01-60.459 59.01-62.029C59.01-63.598 57.73-64.871 56.16-64.871L29.09-64.871ZM27.94-62.219C27.94-61.289 28.71-60.521 29.64-60.521C29.88-60.521 30.11-60.574 30.32-60.668L30.88-60.109C30.99-59.998 31.15-59.945 31.3-59.945C31.63-59.945 31.88-60.197 31.88-60.523C31.88-60.672 31.83-60.818 31.71-60.936L31.16-61.484C31.27-61.707 31.33-61.955 31.33-62.219C31.33-63.148 30.57-63.914 29.64-63.914C28.71-63.914 27.94-63.148 27.94-62.219ZM30.53-62.219C30.53-61.721 30.13-61.32 29.64-61.32C29.14-61.32 28.74-61.721 28.74-62.219C28.74-62.717 29.14-63.115 29.64-63.115C30.13-63.115 30.53-62.717 30.53-62.219Z"/>
   <path class="multicolor-1:labelColor multicolor-2:tintColor hierarchical-1:primary hierarchical-2:primary SFSymbolsPreview8A8A8E" d="M27.94-62.219C27.94-61.289 28.71-60.521 29.64-60.521C29.88-60.521 30.11-60.574 30.32-60.668L30.88-60.109C30.99-59.998 31.15-59.945 31.3-59.945C31.63-59.945 31.88-60.197 31.88-60.523C31.88-60.672 31.83-60.818 31.71-60.936L31.16-61.484C31.27-61.707 31.33-61.955 31.33-62.219C31.33-63.148 30.57-63.914 29.64-63.914C28.71-63.914 27.94-63.148 27.94-62.219ZM30.53-62.219C30.53-61.721 30.13-61.32 29.64-61.32C29.14-61.32 28.74-61.721 28.74-62.219C28.74-62.717 29.14-63.115 29.64-63.115C30.13-63.115 30.53-62.717 30.53-62.219Z"/>
  </g>
  <g id="Thin-S" transform="matrix(1 0 0 1 815.717 696)">
   <path class="multicolor-0:secondaryLabelColor hierarchical-0:secondary SFSymbolsPreview8A8A8E" d="M59.403-54.91L21.994-54.91L21.994-63.801C21.994-68.174 24.069-70.172 28.483-70.172L52.914-70.172C57.342-70.172 59.403-68.174 59.403-63.801L59.403-54.91Z"/>
   <path class="multicolor-1:labelColor hierarchical-1:primary SFSymbolsPreview212121" d="M28.153 2.99C22.065 2.99 18.69-0.352 18.69-6.344L18.69-64.143C18.69-70.135 22.065-73.477 28.153-73.477L53.245-73.477C59.297-73.477 62.721-70.135 62.721-64.143L62.721-6.344C62.721-0.352 59.297 2.99 53.245 2.99L28.153 2.99ZM21.995-63.801L21.995-6.686C21.995-2.312 24.069-0.279 28.483-0.279L52.914-0.279C57.342-0.279 59.403-2.312 59.403-6.686L59.403-63.801C59.403-68.174 57.342-70.172 52.914-70.172L28.483-70.172C24.069-70.172 21.995-68.174 21.995-63.801ZM26.858-65.289C25.343-65.289 24.115-64.061 24.115-62.547C24.115-61.032 25.343-59.804 26.858-59.804L54.553-59.804C56.068-59.804 57.295-61.032 57.295-62.547C57.295-64.061 56.068-65.289 54.553-65.289L26.858-65.289ZM25.732-62.719C25.732-61.789 26.5-61.021 27.429-61.021C27.674-61.021 27.906-61.074 28.117-61.168L28.676-60.609C28.787-60.498 28.939-60.445 29.094-60.445C29.422-60.445 29.672-60.697 29.672-61.023C29.672-61.172 29.621-61.318 29.506-61.436L28.957-61.984C29.064-62.207 29.127-62.455 29.127-62.719C29.127-63.648 28.359-64.414 27.429-64.414C26.5-64.414 25.732-63.648 25.732-62.719ZM28.326-62.719C28.326-62.221 27.928-61.82 27.429-61.82C26.931-61.82 26.533-62.221 26.533-62.719C26.533-63.217 26.931-63.615 27.429-63.615C27.928-63.615 28.326-63.217 28.326-62.719Z"/>
   <path class="multicolor-1:labelColor multicolor-2:tintColor hierarchical-1:primary hierarchical-2:primary SFSymbolsPreview8A8A8E" d="M25.732-62.719C25.732-61.789 26.5-61.021 27.429-61.021C27.674-61.021 27.906-61.074 28.117-61.168L28.676-60.609C28.787-60.498 28.939-60.445 29.094-60.445C29.422-60.445 29.672-60.697 29.672-61.023C29.672-61.172 29.621-61.318 29.506-61.436L28.957-61.984C29.064-62.207 29.127-62.455 29.127-62.719C29.127-63.648 28.359-64.414 27.429-64.414C26.5-64.414 25.732-63.648 25.732-62.719ZM28.326-62.719C28.326-62.221 27.928-61.82 27.429-61.82C26.931-61.82 26.533-62.221 26.533-62.719C26.533-63.217 26.931-63.615 27.429-63.615C27.928-63.615 28.326-63.217 28.326-62.719Z"/>
  </g>
  <g id="Ultralight-S" transform="matrix(1 0 0 1 519.99 696)">
   <path class="multicolor-0:secondaryLabelColor hierarchical-0:secondary SFSymbolsPreview8A8A8E" d="M20.908-63.415L20.908-55.244L58.532-55.244L58.532-63.415C58.532-68.28 56.368-70.391 51.49-70.391L27.95-70.391C23.074-70.391 20.908-68.28 20.908-63.415Z"/>
   <path class="multicolor-1:labelColor hierarchical-1:primary SFSymbolsPreview212121" d="M27.794 2.143C21.768 2.143 18.69-0.963 18.69-6.966L18.69-63.493C18.69-69.496 21.768-72.602 27.794-72.602L51.645-72.602C57.626-72.602 60.753-69.496 60.753-63.493L60.753-6.966C60.753-0.963 57.626 2.143 51.645 2.143L27.794 2.143ZM20.908-63.408L20.908-7.051C20.908-2.186 23.074-0.03 27.95-0.03L51.49-0.03C56.368-0.03 58.532-2.186 58.532-7.051L58.532-63.408C58.532-68.273 56.368-70.384 51.49-70.384L27.95-70.384C23.074-70.384 20.908-68.273 20.908-63.408ZM25.71-65.504C24.225-65.504 23.02-64.3 23.02-62.814C23.02-61.328 24.225-60.124 25.71-60.124L53.73-60.124C55.216-60.124 56.42-61.328 56.42-62.814C56.42-64.3 55.216-65.504 53.73-65.504L25.71-65.504ZM24.46-63.016C24.46-62.086 25.228-61.318 26.157-61.318C26.402-61.318 26.634-61.371 26.845-61.465L27.404-60.906C27.515-60.795 27.667-60.742 27.822-60.742C28.15-60.742 28.4-60.994 28.4-61.32C28.4-61.469 28.349-61.615 28.234-61.732L27.685-62.281C27.792-62.504 27.855-62.752 27.855-63.016C27.855-63.945 27.087-64.711 26.157-64.711C25.228-64.711 24.46-63.945 24.46-63.016ZM27.054-63.016C27.054-62.518 26.656-62.117 26.157-62.117C25.659-62.117 25.261-62.518 25.261-63.016C25.261-63.514 25.659-63.912 26.157-63.912C26.656-63.912 27.054-63.514 27.054-63.016Z"/>
   <path class="multicolor-1:labelColor multicolor-2:tintColor hierarchical-1:primary hierarchical-2:primary SFSymbolsPreview8A8A8E" d="M24.46-63.016C24.46-62.086 25.228-61.318 26.157-61.318C26.402-61.318 26.634-61.371 26.845-61.465L27.404-60.906C27.515-60.795 27.667-60.742 27.822-60.742C28.15-60.742 28.4-60.994 28.4-61.32C28.4-61.469 28.349-61.615 28.234-61.732L27.685-62.281C27.792-62.504 27.855-62.752 27.855-63.016C27.855-63.945 27.087-64.711 26.157-64.711C25.228-64.711 24.46-63.945 24.46-63.016ZM27.054-63.016C27.054-62.518 26.656-62.117 26.157-62.117C25.659-62.117 25.261-62.518 25.261-63.016C25.261-63.514 25.659-63.912 26.157-63.912C26.656-63.912 27.054-63.514 27.054-63.016Z"/>
  </g>
 </g>
</svg>
