<svg width="224" height="224" viewBox="0 0 224 224" fill="none" xmlns="http://www.w3.org/2000/svg"><g clip-path="url(#a)"><path d="M79.108 205.546c-48.664-12.62-70.19-68.16-59.058-111.222C31.185 51.27 75.444 19.71 124.11 32.34c48.664 12.62 81.185 58.943 70.053 102.006-11.132 43.062-66.398 83.832-115.053 71.208l-.003-.009Z" fill="#F2F2F2"/><path d="m107.077 55.103-54.793 11.27c-16.813 3.458-27.64 19.891-24.181 36.704l11.27 54.793c3.458 16.813 19.891 27.639 36.704 24.181l54.793-11.27c16.813-3.458 27.639-19.891 24.181-36.704l-11.27-54.793c-3.458-16.813-19.891-27.64-36.704-24.181Z" fill="#C2E7FF"/><path d="M92.55 102.457c5.725-3.327 7.668-10.664 4.341-16.388-3.326-5.724-10.663-7.668-16.387-4.341s-7.668 10.664-4.341 16.388c3.327 5.724 10.664 7.667 16.388 4.341Z" fill="#3998D3"/><path fill-rule="evenodd" clip-rule="evenodd" d="M80.68 82.03c-5.557 3.23-7.444 10.353-4.215 15.91 3.23 5.557 10.353 7.444 15.91 4.214 5.557-3.23 7.443-10.352 4.214-15.91-3.23-5.556-10.352-7.443-15.91-4.213Zm-4.82 16.262c-3.424-5.892-1.423-13.443 4.468-16.867 5.891-3.423 13.442-1.423 16.866 4.468 3.424 5.891 1.424 13.443-4.468 16.866-5.89 3.424-13.442 1.424-16.866-4.467Z" fill="#000"/><path d="M89.022 107.891c-11.853 1.863-29 8.628-25.573 30.336 1.675 10.586 6.912 16.316 13.174 19.129 4.746 2.117 10.056 2.663 14.913 2.461 2.966-.148 5.221-2.802 4.759-5.768-.4-2.57-2.707-4.314-5.313-4.176-6.257.336-10.251-1.058-12.788-3.083 3.132-6.083 9.97-8.415 15.499-9.289 5.528-.875 12.745-.757 17.594 4.021 1.817 1.813 3.345 4.242 4.266 7.538.27.921 1.511 1.145 2.173.429 4.094-4.569 6.484-11.215 5.009-20.574-3.469-21.75-21.867-22.9-33.72-21.037l.007.013Zm4.057 25.671c-4.346.685-8.46-2.314-9.145-6.66-.684-4.345 2.315-8.46 6.66-9.144 4.345-.685 8.46 2.314 9.144 6.66.685 4.345-2.314 8.46-6.66 9.144Z" fill="#3998D3"/><path fill-rule="evenodd" clip-rule="evenodd" d="M88.868 107.561a.328.328 0 0 1 .093-.028c5.954-.936 13.593-1.124 20.195 1.687 6.631 2.822 12.172 8.651 13.925 19.64 1.49 9.452-.922 16.207-5.095 20.863l-.003.003c-.82.887-2.409.652-2.766-.567l-.001-.005c-.905-3.238-2.402-5.614-4.175-7.384-4.724-4.653-11.79-4.794-17.294-3.923-5.424.858-11.996 3.111-15.106 8.847 2.463 1.862 6.314 3.152 12.322 2.83 2.773-.147 5.249 1.71 5.678 4.472.496 3.178-1.922 6.012-5.087 6.17h-.003c-4.89.204-10.258-.344-15.07-2.491h-.002c-6.376-2.864-11.684-8.698-13.375-19.393-1.732-10.968 1.737-18.208 7.172-22.929 5.382-4.674 12.656-6.847 18.592-7.792Zm.301.648a.362.362 0 0 1-.092.028c-5.899.927-13.074 3.069-18.342 7.645-5.245 4.555-8.636 11.55-6.94 22.29 1.657 10.478 6.824 16.103 12.97 18.864 4.68 2.088 9.93 2.632 14.755 2.431 2.766-.139 4.859-2.612 4.43-5.364h-.001c-.37-2.38-2.508-4.01-4.948-3.88-6.316.338-10.403-1.067-13.025-3.16a.35.35 0 0 1-.093-.433c3.213-6.24 10.203-8.597 15.755-9.475 5.553-.878 12.92-.784 17.895 4.117l.002.002c1.86 1.856 3.418 4.338 4.354 7.69.184.62 1.074.832 1.578.289 4.016-4.482 6.383-11.019 4.922-20.283-1.716-10.762-7.108-16.383-13.507-19.106-6.391-2.721-13.83-2.569-19.713-1.655Zm1.48 9.895c-4.155.654-7.023 4.59-6.369 8.744.654 4.155 4.59 7.023 8.744 6.368 4.155-.654 7.023-4.59 6.369-8.744-.655-4.155-4.59-7.023-8.745-6.368Zm-7.06 8.853c-.715-4.537 2.415-8.83 6.95-9.545 4.537-.715 8.83 2.415 9.545 6.951.715 4.537-2.415 8.83-6.95 9.545-4.537.715-8.83-2.415-9.546-6.951Z" fill="#000"/><path d="M65.363 182.723c-12.748-1.837-23.597-11.462-26.335-24.788l-11.263-54.786c-1.695-8.226-.083-16.611 4.544-23.623 4.617-7.014 11.693-11.804 19.918-13.498l54.786-11.264c16.982-3.495 33.627 7.48 37.123 24.453l11.273 54.787c3.495 16.981-7.48 33.627-24.452 37.123l-.072-.344.072.344L76.17 182.4a31.417 31.417 0 0 1-10.787.326l-.02-.003ZM117.691 55.12a30.748 30.748 0 0 0-10.543.32L52.361 66.714c-8.038 1.65-14.957 6.342-19.47 13.198-4.515 6.857-6.09 15.056-4.44 23.104l11.273 54.787c3.419 16.597 19.695 27.327 36.292 23.908l54.787-11.273c16.597-3.419 27.328-19.695 23.909-36.292l-11.274-54.787c-2.68-13.026-13.285-22.444-25.747-24.239Z" fill="#000"/><path d="m183.184 33.593-39.949-5.643C131.497 26.294 115.901 44.89 109 54.5l-2 .5c-3 17 8.989 32.453 25.455 34.779l1.022.144-1.022 9.48c-.344 2.432 2.252 4.189 4.383 2.973l1.948-1.048s44.109-68.12 44.398-67.735Z" fill="#000"/><path d="m183.184 33.593-39.949-5.643c-16.45-2.323-31.686 9.128-34.011 25.594-2.324 16.45 9.127 31.686 25.593 34.012l1.022.144-1.45 10.27c-.344 2.432 2.252 4.189 4.383 2.973l18.12-10.285 17.86 2.522c16.451 2.324 31.687-9.127 34.012-25.593 2.324-16.45-9.127-31.687-25.593-34.012l.013.018Z" fill="#1B6EF3"/><path fill-rule="evenodd" clip-rule="evenodd" d="M183.967 34.053c15.819 2.692 26.707 17.509 24.451 33.485-2.299 16.274-17.358 27.592-33.617 25.296l-17.978-2.54-18.224 10.344c-1.879 1.072-4.166-.476-3.864-2.62l1.5-10.616-1.369-.193c-16.274-2.299-27.592-17.357-25.296-33.616 2.299-16.275 17.358-27.593 33.617-25.296l40.783 5.76-.003-.004Zm-1.569-.925-.014-.018.836.118c16.657 2.353 28.241 17.766 25.891 34.408-2.353 16.657-17.766 28.241-34.408 25.89l-17.742-2.505-18.016 10.226c-2.383 1.359-5.287-.606-4.903-3.326l1.402-9.923-.676-.096c-16.657-2.353-28.241-17.766-25.891-34.407 2.353-16.658 17.766-28.242 34.407-25.891l39.114 5.524Z" fill="#000"/><path d="M140.337 64.353a6.32 6.32 0 1 1 1.768-12.516 6.32 6.32 0 0 1-1.768 12.516ZM158.151 66.87a6.32 6.32 0 1 1 1.768-12.517 6.32 6.32 0 0 1-1.768 12.516ZM175.964 69.385a6.32 6.32 0 1 1 1.768-12.516 6.32 6.32 0 0 1-1.768 12.516Z" fill="#ECF3FE"/><path fill-rule="evenodd" clip-rule="evenodd" d="M169.184 186.798a.35.35 0 0 1-.482-.114l-10-16.134a.35.35 0 0 1 .595-.369l10 16.135a.35.35 0 0 1-.113.482ZM194.624 149.846a.35.35 0 0 1-.356.344l-21.555-.378a.35.35 0 0 1 .012-.7l21.556.378a.349.349 0 0 1 .343.356ZM196.301 175.539a.35.35 0 0 1-.467.164l-29.985-14.387a.35.35 0 0 1 .302-.632l29.985 14.388a.35.35 0 0 1 .165.467Z" fill="#000"/></g><defs><clipPath id="a"><rect width="224" height="224" rx="28" fill="#fff"/></clipPath></defs></svg>