<svg width="201" height="200" viewBox="0 0 201 200" fill="none" xmlns="http://www.w3.org/2000/svg"><path d="M122.984 41.38c-25.952 0-46.99 21.015-46.99 46.939s21.038 46.94 46.99 46.94 46.991-21.016 46.991-46.94-21.039-46.94-46.991-46.94zm0 1.928c24.886 0 45.06 20.152 45.06 45.011s-20.174 45.011-45.06 45.011c-24.886 0-45.06-20.152-45.06-45.011s20.174-45.01 45.06-45.01z" fill="#8AB4F8" fill-opacity=".4"/><path d="M133.249 89.338h-11.877v11.574h-13.557a.39.39 0 0 1-.272-.668l25.044-24.408a.39.39 0 0 1 .662.28v13.222zm-1.288 3.1-1.815-1.814-2.691 2.688-2.69-2.688-1.816 1.813 2.691 2.688-2.691 2.688 1.816 1.813 2.69-2.675 2.691 2.675 1.815-1.813-2.677-2.688 2.677-2.688z" fill="#8AB4F8" fill-opacity=".4"/><path fill-rule="evenodd" clip-rule="evenodd" d="M157.595 158.993c0-13.495-10.951-24.435-24.461-24.435-13.509 0-24.461 10.94-24.461 24.435" fill="#5F6368"/><path fill-rule="evenodd" clip-rule="evenodd" d="m48.74 134.835 1.893 2.7a2.532 2.532 0 0 1-.62 3.527l-.002.002-24.851 17.382a2.533 2.533 0 0 1-3.525-.622l-1.893-2.7a2.532 2.532 0 0 1 .62-3.527l.002-.002 24.851-17.382a2.532 2.532 0 0 1 3.525.622z" fill="#F882FE"/><path d="M50.548 159.017c4.33.999 8.65-1.697 9.648-6.022.999-4.326-1.702-8.643-6.032-9.642-4.33-1-8.649 1.696-9.647 6.022-.999 4.325 1.701 8.642 6.031 9.642z" fill="#5F6368"/><path d="M68.12 147.061c11.198 0 20.276-9.068 20.276-20.254 0-11.187-9.078-20.255-20.277-20.255-11.198 0-20.276 9.068-20.276 20.255 0 11.186 9.078 20.254 20.276 20.254z" fill="#FCC934"/><path d="M69.88 130.279v-.746c0-.617.116-1.14.348-1.569.232-.429.64-.909 1.223-1.44.72-.669 1.296-1.334 1.725-1.994.43-.66.644-1.444.644-2.353 0-.909-.228-1.732-.683-2.469-.454-.738-1.09-1.321-1.905-1.749-.815-.429-1.746-.643-2.794-.643-1.407 0-2.566.394-3.476 1.183-.91.789-1.536 1.697-1.88 2.726l2.473 1.029c.223-.669.57-1.222 1.042-1.659.472-.437 1.095-.656 1.867-.656.807 0 1.442.219 1.906.656.463.437.695.99.695 1.659 0 .549-.133 1.02-.4 1.415-.266.394-.699.857-1.3 1.389-.858.771-1.454 1.448-1.79 2.031-.334.583-.501 1.295-.501 2.135v1.055h2.806zm-1.416 6.018a1.82 1.82 0 0 0 1.352-.565c.369-.378.553-.832.553-1.364 0-.531-.184-.986-.553-1.363a1.82 1.82 0 0 0-1.352-.566c-.532 0-.987.185-1.364.553a1.846 1.846 0 0 0-.567 1.376c0 .532.189.986.567 1.364.377.377.832.565 1.364.565z" fill="#323336"/><path fill-rule="evenodd" clip-rule="evenodd" d="M62.197 156.996c-.52.906.13 2.039 1.17 2.039H73.98c1.039 0 1.688-1.133 1.169-2.039l-5.308-9.255a1.346 1.346 0 0 0-2.338 0l-5.307 9.255z" fill="#EA4335"/><path d="M191.495 159.035a.965.965 0 0 1 .093 1.925l-.093.004H13.831a.965.965 0 0 1-.093-1.924l.093-.005h177.664z" fill="#8AB4F8" fill-opacity=".4"/><path d="M97.578 158.993c7.638 0 13.83-6.192 13.83-13.83s-6.192-13.83-13.83-13.83-13.83 6.192-13.83 13.83 6.192 13.83 13.83 13.83z" fill="#669DF6"/></svg>