<svg width="201" height="200" viewBox="0 0 201 200" fill="none" xmlns="http://www.w3.org/2000/svg"><path d="M100.366 109.293c-23.295 0-42.18 18.794-42.18 41.977 0 23.183 18.885 41.976 42.18 41.976 23.295 0 42.179-18.793 42.179-41.976s-18.884-41.977-42.179-41.977zm0 1.908c22.236 0 40.262 17.939 40.262 40.069 0 22.129-18.026 40.068-40.262 40.068s-40.262-17.939-40.262-40.068c0-22.13 18.026-40.069 40.262-40.069z" fill="#D2E3FC"/><path fill-rule="evenodd" clip-rule="evenodd" d="M72.382 80.903c0 15.456 12.528 27.985 27.984 27.985 15.455 0 27.984-12.53 27.984-27.985" fill="#D2E3FC"/><path d="M100.366 124.705c-14.784 0-26.768 11.984-26.768 26.768 0 14.783 11.984 26.767 26.768 26.767 14.783 0 26.767-11.984 26.767-26.767 0-14.784-11.984-26.768-26.767-26.768zm0 2.549c13.375 0 24.218 10.843 24.218 24.219 0 13.375-10.843 24.218-24.218 24.218-13.376 0-24.219-10.843-24.219-24.218 0-13.376 10.843-24.219 24.219-24.219z" fill="#4285F4"/><path d="M106.609 138.351h4.995v22.475h-4.995v-22.475zm-17.48 12.486h4.994v9.989h-4.995v-9.989zm8.74-6.243h4.994v16.232h-4.994v-16.232z" fill="#4285F4"/><path fill-rule="evenodd" clip-rule="evenodd" d="m114.565 49.036 1.13 2.792a2.636 2.636 0 0 1-1.455 3.433l-.003.001-27.656 11.155a2.636 2.636 0 0 1-3.43-1.456l-1.13-2.792a2.636 2.636 0 0 1 1.455-3.433h.003l27.656-11.156a2.637 2.637 0 0 1 3.43 1.456z" fill="#4285F4"/><path d="M100.366 50.643c8.96 0 16.223-7.264 16.223-16.223 0-8.96-7.263-16.223-16.223-16.223-8.96 0-16.223 7.263-16.223 16.223 0 8.96 7.263 16.223 16.223 16.223z" fill="#34A853"/><path fill-rule="evenodd" clip-rule="evenodd" d="m101.896 61.021 8.657 8.643c.476.475.477 1.245.002 1.72l-.002.002-8.657 8.643a1.216 1.216 0 0 1-1.719 0l-8.658-8.643a1.217 1.217 0 0 1-.002-1.72l.002-.002 8.658-8.643a1.217 1.217 0 0 1 1.719 0z" fill="#FBBC04"/><path fill-rule="evenodd" clip-rule="evenodd" d="M94.252 8.37c-.49-.86.123-1.934 1.104-1.934h10.02c.981 0 1.594 1.075 1.103 1.934l-5.01 8.778a1.267 1.267 0 0 1-2.207 0l-5.01-8.778z" fill="#2FE2EA"/><path fill-rule="evenodd" clip-rule="evenodd" d="M111.439 25.828c.66.5.791 1.44.291 2.1l-11.965 15.82a1.5 1.5 0 0 1-2.15.253l-7.03-5.79a1.5 1.5 0 1 1 1.907-2.316l5.824 4.796 11.022-14.57a1.5 1.5 0 0 1 2.101-.292z" fill="#fff"/></svg>