<svg xmlns="http://www.w3.org/2000/svg" width="464" height="116" fill="none" viewBox="0 0 464 116"><rect width="464" height="116" fill="#D3E3FD" rx="12"/><path fill="#F8FAFD" d="M22 22c0-5.523 4.477-10 10-10h97c5.523 0 10 4.477 10 10v24H22V22Z"/><path fill="#F8FAFD" fill-rule="evenodd" d="M22 34v12H10c6.627 0 12-5.373 12-12Zm117.043 0H139v12h12c-6.608-.023-11.957-5.387-11.957-12Z" clip-rule="evenodd"/><path fill="#F8FAFD" d="M0 54a8 8 0 0 1 8-8h448a8 8 0 0 1 8 8v50c0 6.627-5.373 12-12 12H12c-6.627 0-12-5.373-12-12V54Z"/><rect width="375" height="37" x="44.5" y="61.5" fill="#fff" rx="18.5"/><rect width="375" height="37" x="44.5" y="61.5" stroke="#0B57D0" rx="18.5"/><rect width="102" height="12" x="87" y="74" fill="#EFF3FA" rx="6"/><path fill="#0B57D0" fill-rule="evenodd" d="M70.448 82.744 77 89.296 75.296 91l-6.552-6.552c-1.224.88-2.699 1.418-4.311 1.418a7.433 7.433 0 1 1 0-14.866 7.433 7.433 0 0 1 7.433 7.433c0 1.612-.538 3.087-1.418 4.31Zm-6.015-9.457a5.139 5.139 0 0 0-5.146 5.146 5.139 5.139 0 0 0 5.146 5.146 5.139 5.139 0 0 0 5.146-5.146 5.139 5.139 0 0 0-5.146-5.146Z" clip-rule="evenodd"/></svg>