<svg width="214" height="328" viewBox="0 0 214 328" fill="none" xmlns="http://www.w3.org/2000/svg">
<path d="M17.1879 88.0112C20.0036 61.1533 21.4114 47.7244 26.5809 37.1282C34.0616 21.7946 47.1152 9.95484 63.0304 4.06806C74.0286 0 87.4265 0 114.222 0H249.524C281.93 0 298.132 0 310.501 5.30399C328.41 12.9836 342.037 28.2463 347.733 47.0038C351.666 59.9587 349.964 76.1988 346.559 108.679L332.812 239.806C329.996 266.664 328.589 280.092 323.419 290.689C315.938 306.022 302.885 317.862 286.97 323.749C275.971 327.817 262.574 327.817 235.778 327.817H100.476C68.0705 327.817 51.868 327.817 39.499 322.513C21.59 314.833 7.96272 299.571 2.26727 280.813C-1.66633 267.858 0.0361996 251.618 3.44126 219.138L17.1879 88.0112Z" fill="#2E69CD"/>
<mask id="mask0_6367_90933" style="mask-type:alpha" maskUnits="userSpaceOnUse" x="0" y="0" width="350" height="328">
<path d="M17.1879 88.0112C20.0036 61.1533 21.4114 47.7244 26.5809 37.1282C34.0616 21.7946 47.1152 9.95484 63.0304 4.06806C74.0286 0 87.4265 0 114.222 0H249.524C281.93 0 298.132 0 310.501 5.30399C328.41 12.9836 342.037 28.2463 347.733 47.0038C351.666 59.9587 349.964 76.1988 346.559 108.679L332.812 239.806C329.996 266.664 328.589 280.092 323.419 290.689C315.938 306.022 302.885 317.862 286.97 323.749C275.971 327.817 262.574 327.817 235.778 327.817H100.476C68.0705 327.817 51.868 327.817 39.499 322.513C21.59 314.833 7.96272 299.571 2.26727 280.813C-1.66633 267.858 0.0361996 251.618 3.44126 219.138L17.1879 88.0112Z" fill="#E4F381"/>
<path d="M17.1879 88.0112C20.0036 61.1533 21.4114 47.7244 26.5809 37.1282C34.0616 21.7946 47.1152 9.95484 63.0304 4.06806C74.0286 0 87.4265 0 114.222 0H249.524C281.93 0 298.132 0 310.501 5.30399C328.41 12.9836 342.037 28.2463 347.733 47.0038C351.666 59.9587 349.964 76.1988 346.559 108.679L332.812 239.806C329.996 266.664 328.589 280.092 323.419 290.689C315.938 306.022 302.885 317.862 286.97 323.749C275.971 327.817 262.574 327.817 235.778 327.817H100.476C68.0705 327.817 51.868 327.817 39.499 322.513C21.59 314.833 7.96272 299.571 2.26727 280.813C-1.66633 267.858 0.0361996 251.618 3.44126 219.138L17.1879 88.0112Z" fill="#B3CBF7"/>
</mask>
<g mask="url(#mask0_6367_90933)">
<g filter="url(#filter0_f_6367_90933)">
<ellipse cx="55.2715" cy="97.6112" rx="55.2715" ry="97.6112" transform="matrix(-0.890775 -0.454445 -0.454445 0.890775 126.187 -3.76562)" fill="#A7A7FF"/>
</g>
<g filter="url(#filter1_f_6367_90933)">
<circle cx="250.151" cy="250.151" r="250.151" transform="matrix(-1 0 0 1 546.302 132)" fill="#3186FF"/>
</g>
</g>
<defs>
<filter id="filter0_f_6367_90933" x="-104.377" y="-103.161" width="273.942" height="322.455" filterUnits="userSpaceOnUse" color-interpolation-filters="sRGB">
<feFlood flood-opacity="0" result="BackgroundImageFix"/>
<feBlend mode="normal" in="SourceGraphic" in2="BackgroundImageFix" result="shape"/>
<feGaussianBlur stdDeviation="35.35" result="effect1_foregroundBlur_6367_90933"/>
</filter>
<filter id="filter1_f_6367_90933" x="-64.8" y="21.2" width="721.902" height="721.901" filterUnits="userSpaceOnUse" color-interpolation-filters="sRGB">
<feFlood flood-opacity="0" result="BackgroundImageFix"/>
<feBlend mode="normal" in="SourceGraphic" in2="BackgroundImageFix" result="shape"/>
<feGaussianBlur stdDeviation="55.4" result="effect1_foregroundBlur_6367_90933"/>
</filter>
</defs>
</svg>
