<svg width="1024" height="1024" viewBox="0 0 1024 1024" fill="none" xmlns="http://www.w3.org/2000/svg">
<path d="M716.976 511.949C717.015 547.938 707.532 583.296 689.49 614.436L689.512 614.448L511.977 921.948C583.942 921.933 654.635 902.98 716.956 866.993C779.277 831.006 831.031 779.253 867.019 716.932C903.006 654.611 921.96 583.918 921.976 511.953C921.992 439.988 903.071 369.285 867.111 306.948H511.977C538.898 306.948 565.555 312.251 590.427 322.553C615.298 332.856 637.897 347.956 656.933 366.992C675.969 386.028 691.069 408.627 701.372 433.499C711.674 458.371 716.976 485.028 716.976 511.949V511.949Z" fill="#AECBFA" style="fill:#AECBFA;fill:color(display-p3 0.6824 0.7961 0.9804);fill-opacity:1;"/>
</svg>
