<svg width="1024" height="1024" viewBox="0 0 1024 1024" fill="none" xmlns="http://www.w3.org/2000/svg">
<path d="M409.468 334.515C440.616 316.487 475.979 307.02 511.968 307.076V307.051H867.038C831.042 244.735 779.281 192.99 716.955 157.012C654.63 121.034 583.933 102.091 511.969 102.085C440.004 102.08 369.305 121.012 306.974 156.98C244.642 192.948 192.873 244.685 156.867 306.995L334.434 614.551C320.974 591.237 312.237 565.5 308.723 538.809C305.209 512.118 306.986 484.997 313.954 458.993C320.921 432.989 332.942 408.612 349.331 387.254C365.719 365.896 386.154 347.975 409.468 334.515Z" fill="#1967D2" style="fill:#1967D2;fill:color(display-p3 0.0980 0.4039 0.8235);fill-opacity:1;"/>
</svg>
