<svg width="1024" height="1024" viewBox="0 0 1024 1024" fill="none" xmlns="http://www.w3.org/2000/svg">
<path d="M186.855 235.968C180.869 235.968 175.375 234.902 170.373 232.77C165.453 230.556 161.148 227.44 157.458 223.422C153.85 219.322 151.062 214.484 149.094 208.908C147.126 203.25 146.142 196.936 146.142 189.966C146.142 182.996 147.126 176.682 149.094 171.024C151.144 165.366 153.973 160.528 157.581 156.51C161.271 152.492 165.617 149.417 170.619 147.285C175.703 145.071 181.238 143.964 187.224 143.964C193.538 143.964 199.401 145.071 204.813 147.285C210.225 149.499 214.694 152.779 218.22 157.125C221.828 161.471 224.001 166.924 224.739 173.484L207.765 176.313C207.027 172.787 205.715 169.794 203.829 167.334C201.943 164.874 199.606 162.988 196.818 161.676C194.03 160.282 190.832 159.585 187.224 159.585C182.714 159.585 178.573 160.774 174.801 163.152C171.111 165.448 168.159 168.851 165.945 173.361C163.813 177.871 162.747 183.406 162.747 189.966C162.747 196.444 163.813 201.938 165.945 206.448C168.077 210.958 170.988 214.402 174.678 216.78C178.368 219.076 182.55 220.224 187.224 220.224C192.472 220.224 196.941 218.789 200.631 215.919C204.321 213.049 206.699 209.031 207.765 203.865L225.108 205.71C223.878 211.614 221.664 216.862 218.466 221.454C215.35 225.964 211.168 229.531 205.92 232.155C200.754 234.697 194.399 235.968 186.855 235.968ZM238.535 234V169.302H253.664V177.666H254.648C255.55 175.698 256.739 173.935 258.215 172.377C259.773 170.819 261.577 169.589 263.627 168.687C265.759 167.785 268.137 167.334 270.761 167.334C272.319 167.334 273.59 167.416 274.574 167.58C275.558 167.744 276.419 167.908 277.157 168.072V184.062C276.009 183.57 274.697 183.16 273.221 182.832C271.745 182.504 270.064 182.34 268.178 182.34C265.554 182.34 263.217 182.996 261.167 184.308C259.117 185.62 257.518 187.506 256.37 189.966C255.222 192.426 254.648 195.337 254.648 198.699V234H238.535Z" fill="#1967D2" style="fill:#1967D2;fill:color(display-p3 0.0980 0.4039 0.8235);fill-opacity:1;"/>
</svg>
