<?xml version="1.0" encoding="UTF-8"?>
<!--Generator: Apple Native CoreSVG 175-->
<!DOCTYPE svg
PUBLIC "-//W3C//DTD SVG 1.1//EN"
       "http://www.w3.org/Graphics/SVG/1.1/DTD/svg11.dtd">
<svg version="1.1" xmlns="http://www.w3.org/2000/svg" xmlns:xlink="http://www.w3.org/1999/xlink" width="3300" height="2200">
 <!--glyph: "", point size: 100.0, font version: "17.3d3e1", template writer version: "65.1"-->
 <g id="Notes">
  <rect height="2200" id="artboard" style="fill:white;opacity:1" width="3300" x="0" y="0"/>
  <line style="fill:none;stroke:black;opacity:1;stroke-width:0.5;" x1="263" x2="3036" y1="292" y2="292"/>
  <text style="stroke:none;fill:black;font-family:sans-serif;font-size:13;font-weight:bold;" transform="matrix(1 0 0 1 263 322)">Weight/Scale Variations</text>
  <text style="stroke:none;fill:black;font-family:sans-serif;font-size:13;text-anchor:middle;" transform="matrix(1 0 0 1 559.711 322)">Ultralight</text>
  <text style="stroke:none;fill:black;font-family:sans-serif;font-size:13;text-anchor:middle;" transform="matrix(1 0 0 1 856.422 322)">Thin</text>
  <text style="stroke:none;fill:black;font-family:sans-serif;font-size:13;text-anchor:middle;" transform="matrix(1 0 0 1 1153.13 322)">Light</text>
  <text style="stroke:none;fill:black;font-family:sans-serif;font-size:13;text-anchor:middle;" transform="matrix(1 0 0 1 1449.84 322)">Regular</text>
  <text style="stroke:none;fill:black;font-family:sans-serif;font-size:13;text-anchor:middle;" transform="matrix(1 0 0 1 1746.56 322)">Medium</text>
  <text style="stroke:none;fill:black;font-family:sans-serif;font-size:13;text-anchor:middle;" transform="matrix(1 0 0 1 2043.27 322)">Semibold</text>
  <text style="stroke:none;fill:black;font-family:sans-serif;font-size:13;text-anchor:middle;" transform="matrix(1 0 0 1 2339.98 322)">Bold</text>
  <text style="stroke:none;fill:black;font-family:sans-serif;font-size:13;text-anchor:middle;" transform="matrix(1 0 0 1 2636.69 322)">Heavy</text>
  <text style="stroke:none;fill:black;font-family:sans-serif;font-size:13;text-anchor:middle;" transform="matrix(1 0 0 1 2933.4 322)">Black</text>
  <line style="fill:none;stroke:black;opacity:1;stroke-width:0.5;" x1="263" x2="3036" y1="1903" y2="1903"/>
  <g transform="matrix(1 0 0 1 263 1933)">
   <path d="M9.24805 0.830078Q10.8691 0.830078 12.2949 0.214844Q13.7207-0.400391 14.8096-1.49414Q15.8984-2.58789 16.5186-4.01367Q17.1387-5.43945 17.1387-7.05078Q17.1387-8.66211 16.5186-10.0879Q15.8984-11.5137 14.8047-12.6074Q13.7109-13.7012 12.2852-14.3164Q10.8594-14.9316 9.23828-14.9316Q7.62695-14.9316 6.20117-14.3164Q4.77539-13.7012 3.69141-12.6074Q2.60742-11.5137 1.9873-10.0879Q1.36719-8.66211 1.36719-7.05078Q1.36719-5.43945 1.9873-4.01367Q2.60742-2.58789 3.69629-1.49414Q4.78516-0.400391 6.21094 0.214844Q7.63672 0.830078 9.24805 0.830078ZM9.24805-0.654297Q7.91992-0.654297 6.7627-1.14746Q5.60547-1.64062 4.73145-2.51953Q3.85742-3.39844 3.36426-4.56055Q2.87109-5.72266 2.87109-7.05078Q2.87109-8.37891 3.35938-9.54102Q3.84766-10.7031 4.72168-11.582Q5.5957-12.4609 6.75293-12.9541Q7.91016-13.4473 9.23828-13.4473Q10.5762-13.4473 11.7334-12.9541Q12.8906-12.4609 13.7695-11.582Q14.6484-10.7031 15.1465-9.54102Q15.6445-8.37891 15.6445-7.05078Q15.6445-5.72266 15.1514-4.56055Q14.6582-3.39844 13.7842-2.51953Q12.9102-1.64062 11.748-1.14746Q10.5859-0.654297 9.24805-0.654297ZM5.6543-7.05078Q5.6543-6.72852 5.85938-6.52832Q6.06445-6.32812 6.40625-6.32812L8.51562-6.32812L8.51562-4.20898Q8.51562-3.88672 8.71094-3.67676Q8.90625-3.4668 9.23828-3.4668Q9.56055-3.4668 9.77051-3.67676Q9.98047-3.88672 9.98047-4.20898L9.98047-6.32812L12.0898-6.32812Q12.4219-6.32812 12.627-6.52832Q12.832-6.72852 12.832-7.05078Q12.832-7.38281 12.627-7.58789Q12.4219-7.79297 12.0898-7.79297L9.98047-7.79297L9.98047-9.90234Q9.98047-10.2344 9.77051-10.4443Q9.56055-10.6543 9.23828-10.6543Q8.90625-10.6543 8.71094-10.4443Q8.51562-10.2344 8.51562-9.90234L8.51562-7.79297L6.40625-7.79297Q6.06445-7.79297 5.85938-7.58789Q5.6543-7.38281 5.6543-7.05078Z"/>
  </g>
  <g transform="matrix(1 0 0 1 281.867 1933)">
   <path d="M11.709 2.91016Q13.75 2.91016 15.5518 2.12891Q17.3535 1.34766 18.7305-0.0292969Q20.1074-1.40625 20.8887-3.20801Q21.6699-5.00977 21.6699-7.05078Q21.6699-9.0918 20.8887-10.8936Q20.1074-12.6953 18.7305-14.0723Q17.3535-15.4492 15.5469-16.2305Q13.7402-17.0117 11.6992-17.0117Q9.6582-17.0117 7.85645-16.2305Q6.05469-15.4492 4.68262-14.0723Q3.31055-12.6953 2.5293-10.8936Q1.74805-9.0918 1.74805-7.05078Q1.74805-5.00977 2.5293-3.20801Q3.31055-1.40625 4.6875-0.0292969Q6.06445 1.34766 7.86621 2.12891Q9.66797 2.91016 11.709 2.91016ZM11.709 1.25Q9.98047 1.25 8.47656 0.605469Q6.97266-0.0390625 5.83496-1.17676Q4.69727-2.31445 4.05762-3.81836Q3.41797-5.32227 3.41797-7.05078Q3.41797-8.7793 4.05762-10.2832Q4.69727-11.7871 5.83008-12.9297Q6.96289-14.0723 8.4668-14.7119Q9.9707-15.3516 11.6992-15.3516Q13.4277-15.3516 14.9316-14.7119Q16.4355-14.0723 17.5781-12.9297Q18.7207-11.7871 19.3652-10.2832Q20.0098-8.7793 20.0098-7.05078Q20.0098-5.32227 19.3701-3.81836Q18.7305-2.31445 17.5928-1.17676Q16.4551-0.0390625 14.9463 0.605469Q13.4375 1.25 11.709 1.25ZM7.17773-7.05078Q7.17773-6.69922 7.41211-6.47461Q7.64648-6.25 8.01758-6.25L10.8887-6.25L10.8887-3.36914Q10.8887-2.99805 11.1133-2.76855Q11.3379-2.53906 11.6895-2.53906Q12.0605-2.53906 12.29-2.76855Q12.5195-2.99805 12.5195-3.36914L12.5195-6.25L15.4004-6.25Q15.7715-6.25 16.001-6.47461Q16.2305-6.69922 16.2305-7.05078Q16.2305-7.42188 16.001-7.65137Q15.7715-7.88086 15.4004-7.88086L12.5195-7.88086L12.5195-10.752Q12.5195-11.1328 12.29-11.3623Q12.0605-11.5918 11.6895-11.5918Q11.3379-11.5918 11.1133-11.3574Q10.8887-11.123 10.8887-10.752L10.8887-7.88086L8.01758-7.88086Q7.63672-7.88086 7.40723-7.65137Q7.17773-7.42188 7.17773-7.05078Z"/>
  </g>
  <g transform="matrix(1 0 0 1 305.646 1933)">
   <path d="M14.9707 5.66406Q17.0605 5.66406 18.96 5.01465Q20.8594 4.36523 22.4512 3.19336Q24.043 2.02148 25.2197 0.429688Q26.3965-1.16211 27.0459-3.06641Q27.6953-4.9707 27.6953-7.05078Q27.6953-9.14062 27.0459-11.04Q26.3965-12.9395 25.2197-14.5312Q24.043-16.123 22.4512-17.2998Q20.8594-18.4766 18.9551-19.126Q17.0508-19.7754 14.9609-19.7754Q12.8711-19.7754 10.9717-19.126Q9.07227-18.4766 7.48535-17.2998Q5.89844-16.123 4.72168-14.5312Q3.54492-12.9395 2.90039-11.04Q2.25586-9.14062 2.25586-7.05078Q2.25586-4.9707 2.90527-3.06641Q3.55469-1.16211 4.72656 0.429688Q5.89844 2.02148 7.49023 3.19336Q9.08203 4.36523 10.9814 5.01465Q12.8809 5.66406 14.9707 5.66406ZM14.9707 3.84766Q13.1641 3.84766 11.5283 3.2959Q9.89258 2.74414 8.53516 1.74805Q7.17773 0.751953 6.17676-0.610352Q5.17578-1.97266 4.62891-3.6084Q4.08203-5.24414 4.08203-7.05078Q4.08203-8.86719 4.62891-10.5029Q5.17578-12.1387 6.17188-13.501Q7.16797-14.8633 8.52539-15.8594Q9.88281-16.8555 11.5186-17.4023Q13.1543-17.9492 14.9609-17.9492Q16.7773-17.9492 18.4131-17.4023Q20.0488-16.8555 21.4111-15.8594Q22.7734-14.8633 23.7695-13.501Q24.7656-12.1387 25.3174-10.5029Q25.8691-8.86719 25.8691-7.05078Q25.8789-5.24414 25.332-3.6084Q24.7852-1.97266 23.7842-0.610352Q22.7832 0.751953 21.4209 1.74805Q20.0586 2.74414 18.4229 3.2959Q16.7871 3.84766 14.9707 3.84766ZM9.19922-7.05078Q9.19922-6.66992 9.45801-6.4209Q9.7168-6.17188 10.1172-6.17188L14.0625-6.17188L14.0625-2.2168Q14.0625-1.81641 14.3115-1.55762Q14.5605-1.29883 14.9512-1.29883Q15.3516-1.29883 15.6104-1.55273Q15.8691-1.80664 15.8691-2.2168L15.8691-6.17188L19.8242-6.17188Q20.2246-6.17188 20.4785-6.4209Q20.7324-6.66992 20.7324-7.05078Q20.7324-7.46094 20.4785-7.71484Q20.2246-7.96875 19.8242-7.96875L15.8691-7.96875L15.8691-11.9141Q15.8691-12.3242 15.6104-12.583Q15.3516-12.8418 14.9512-12.8418Q14.5605-12.8418 14.3115-12.583Q14.0625-12.3242 14.0625-11.9141L14.0625-7.96875L10.1172-7.96875Q9.70703-7.96875 9.45312-7.71484Q9.19922-7.46094 9.19922-7.05078Z"/>
  </g>
  <text style="stroke:none;fill:black;font-family:sans-serif;font-size:13;font-weight:bold;" transform="matrix(1 0 0 1 263 1953)">Design Variations</text>
  <text style="stroke:none;fill:black;font-family:sans-serif;font-size:13;" transform="matrix(1 0 0 1 263 1971)">Symbols are supported in up to nine weights and three scales.</text>
  <text style="stroke:none;fill:black;font-family:sans-serif;font-size:13;" transform="matrix(1 0 0 1 263 1989)">For optimal layout with text and other symbols, vertically align</text>
  <text style="stroke:none;fill:black;font-family:sans-serif;font-size:13;" transform="matrix(1 0 0 1 263 2007)">symbols with the adjacent text.</text>
  <line style="fill:none;stroke:#00AEEF;stroke-width:0.5;opacity:1.0;" x1="776" x2="776" y1="1919" y2="1933"/>
  <g transform="matrix(1 0 0 1 776 1933)">
   <path d="M3.31055 0.15625Q3.70117 0.15625 3.91602-0.00976562Q4.13086-0.175781 4.26758-0.585938L5.52734-4.0332L11.2891-4.0332L12.5488-0.585938Q12.6855-0.175781 12.9004-0.00976562Q13.1152 0.15625 13.4961 0.15625Q13.8867 0.15625 14.1162-0.0585938Q14.3457-0.273438 14.3457-0.644531Q14.3457-0.869141 14.2383-1.17188L9.6582-13.3691Q9.48242-13.8184 9.17969-14.043Q8.87695-14.2676 8.4082-14.2676Q7.5-14.2676 7.17773-13.3789L2.59766-1.16211Q2.49023-0.859375 2.49023-0.634766Q2.49023-0.263672 2.70996-0.0537109Q2.92969 0.15625 3.31055 0.15625ZM6.00586-5.51758L8.37891-12.0898L8.42773-12.0898L10.8008-5.51758Z"/>
  </g>
  <line style="fill:none;stroke:#00AEEF;stroke-width:0.5;opacity:1.0;" x1="793.197" x2="793.197" y1="1919" y2="1933"/>
  <text style="stroke:none;fill:black;font-family:sans-serif;font-size:13;font-weight:bold;" transform="matrix(1 0 0 1 776 1953)">Margins</text>
  <text style="stroke:none;fill:black;font-family:sans-serif;font-size:13;" transform="matrix(1 0 0 1 776 1971)">Leading and trailing margins on the left and right side of each symbol</text>
  <text style="stroke:none;fill:black;font-family:sans-serif;font-size:13;" transform="matrix(1 0 0 1 776 1989)">can be adjusted by modifying the x-location of the margin guidelines.</text>
  <text style="stroke:none;fill:black;font-family:sans-serif;font-size:13;" transform="matrix(1 0 0 1 776 2007)">Modifications are automatically applied proportionally to all</text>
  <text style="stroke:none;fill:black;font-family:sans-serif;font-size:13;" transform="matrix(1 0 0 1 776 2025)">scales and weights.</text>
  <g transform="matrix(1 0 0 1 1289 1933)">
   <path d="M2.8418 1.86523L4.54102 3.57422Q5.18555 4.22852 5.90332 4.17969Q6.62109 4.13086 7.31445 3.35938L18.0078-8.42773L17.041-9.4043L6.42578 2.27539Q6.16211 2.57812 5.89355 2.61719Q5.625 2.65625 5.27344 2.30469L4.10156 1.14258Q3.75 0.791016 3.79395 0.522461Q3.83789 0.253906 4.14062-0.0195312L15.6152-10.8203L14.6387-11.7871L3.04688-0.898438Q2.30469-0.214844 2.25098 0.498047Q2.19727 1.21094 2.8418 1.86523ZM9.25781-16.3281Q8.94531-16.0254 8.90625-15.6348Q8.86719-15.2441 9.04297-14.9512Q9.21875-14.6777 9.55566-14.541Q9.89258-14.4043 10.3809-14.5215Q11.4746-14.7754 12.5977-14.7314Q13.7207-14.6875 14.7949-13.9844L14.209-12.5293Q13.9551-11.9043 14.0674-11.4404Q14.1797-10.9766 14.5801-10.5664L16.875-8.25195Q17.2363-7.88086 17.5781-7.82227Q17.9199-7.76367 18.3398-7.8418L19.4043-8.03711L20.0684-7.36328L20.0293-6.80664Q20-6.43555 20.1221-6.12305Q20.2441-5.81055 20.6055-5.44922L21.3672-4.70703Q21.7285-4.3457 22.1533-4.33105Q22.5781-4.31641 22.9297-4.66797L25.8398-7.58789Q26.1914-7.93945 26.1816-8.35449Q26.1719-8.76953 25.8105-9.13086L25.0391-9.89258Q24.6875-10.2539 24.3799-10.3857Q24.0723-10.5176 23.7109-10.4883L23.1348-10.4395L22.4902-11.0742L22.7344-12.1973Q22.832-12.6172 22.6953-12.9834Q22.5586-13.3496 22.1191-13.7891L19.9219-15.9766Q18.6719-17.2168 17.2607-17.8369Q15.8496-18.457 14.4189-18.4814Q12.9883-18.5059 11.665-17.959Q10.3418-17.4121 9.25781-16.3281ZM10.752-15.957Q11.6602-16.6211 12.7002-16.9043Q13.7402-17.1875 14.8047-17.085Q15.8691-16.9824 16.8701-16.5137Q17.8711-16.0449 18.7012-15.2051L21.1328-12.793Q21.3086-12.6172 21.3525-12.4512Q21.3965-12.2852 21.3379-12.0312L21.0156-10.5469L22.5195-9.0625L23.5059-9.12109Q23.6914-9.13086 23.7891-9.09668Q23.8867-9.0625 24.0332-8.91602L24.6094-8.33984L22.168-5.89844L21.5918-6.47461Q21.4453-6.62109 21.4062-6.71875Q21.3672-6.81641 21.377-7.01172L21.4453-7.98828L19.9512-9.47266L18.4277-9.21875Q18.1836-9.16992 18.042-9.2041Q17.9004-9.23828 17.7148-9.41406L15.7129-11.416Q15.5176-11.5918 15.4932-11.7529Q15.4688-11.9141 15.5859-12.1875L16.4648-14.2773Q15.293-15.3711 13.8281-15.791Q12.3633-16.2109 10.8398-15.7617Q10.7227-15.7324 10.6885-15.8057Q10.6543-15.8789 10.752-15.957Z"/>
  </g>
  <text style="stroke:none;fill:black;font-family:sans-serif;font-size:13;font-weight:bold;" transform="matrix(1 0 0 1 1289 1953)">Exporting</text>
  <text style="stroke:none;fill:black;font-family:sans-serif;font-size:13;" transform="matrix(1 0 0 1 1289 1971)">Symbols should be outlined when exporting to ensure the</text>
  <text style="stroke:none;fill:black;font-family:sans-serif;font-size:13;" transform="matrix(1 0 0 1 1289 1989)">design is preserved when submitting to Xcode.</text>
  <text id="template-version" style="stroke:none;fill:black;font-family:sans-serif;font-size:13;text-anchor:end;" transform="matrix(1 0 0 1 3036 1933)">Template v.2.0</text>
  <text style="stroke:none;fill:black;font-family:sans-serif;font-size:13;text-anchor:end;" transform="matrix(1 0 0 1 3036 1951)">Requires Xcode 12 or greater</text>
  <text id="descriptive-name" style="stroke:none;fill:black;font-family:sans-serif;font-size:13;text-anchor:end;" transform="matrix(1 0 0 1 3036 1969)">Generated from laptopcomputer.and.phone.cr</text>
  <text style="stroke:none;fill:black;font-family:sans-serif;font-size:13;text-anchor:end;" transform="matrix(1 0 0 1 3036 1987)">Typeset at 100 points</text>
  <text style="stroke:none;fill:black;font-family:sans-serif;font-size:13;" transform="matrix(1 0 0 1 263 726)">Small</text>
  <text style="stroke:none;fill:black;font-family:sans-serif;font-size:13;" transform="matrix(1 0 0 1 263 1156)">Medium</text>
  <text style="stroke:none;fill:black;font-family:sans-serif;font-size:13;" transform="matrix(1 0 0 1 263 1586)">Large</text>
 </g>
 <g id="Guides">
  <g id="H-reference" style="fill:#27AAE1;stroke:none;" transform="matrix(1 0 0 1 339 696)">
   <path d="M0.993347 0L3.6377 0L29.3282-67.1326L30.0301-67.1326L30.0301-70.459L28.1227-70.459ZM11.6882-24.4797L46.9818-24.4797L46.2311-26.7288L12.4382-26.7288ZM55.1193 0L57.7637 0L30.6381-70.459L29.4327-70.459L29.4327-67.1326Z"/>
  </g>
  <line id="Baseline-S" style="fill:none;stroke:#27AAE1;opacity:1;stroke-width:0.5;" x1="263" x2="3036" y1="696" y2="696"/>
  <line id="Capline-S" style="fill:none;stroke:#27AAE1;opacity:1;stroke-width:0.5;" x1="263" x2="3036" y1="625.541" y2="625.541"/>
  <g id="H-reference" style="fill:#27AAE1;stroke:none;" transform="matrix(1 0 0 1 339 1126)">
   <path d="M0.993347 0L3.6377 0L29.3282-67.1326L30.0301-67.1326L30.0301-70.459L28.1227-70.459ZM11.6882-24.4797L46.9818-24.4797L46.2311-26.7288L12.4382-26.7288ZM55.1193 0L57.7637 0L30.6381-70.459L29.4327-70.459L29.4327-67.1326Z"/>
  </g>
  <line id="Baseline-M" style="fill:none;stroke:#27AAE1;opacity:1;stroke-width:0.5;" x1="263" x2="3036" y1="1126" y2="1126"/>
  <line id="Capline-M" style="fill:none;stroke:#27AAE1;opacity:1;stroke-width:0.5;" x1="263" x2="3036" y1="1055.54" y2="1055.54"/>
  <g id="H-reference" style="fill:#27AAE1;stroke:none;" transform="matrix(1 0 0 1 339 1556)">
   <path d="M0.993347 0L3.6377 0L29.3282-67.1326L30.0301-67.1326L30.0301-70.459L28.1227-70.459ZM11.6882-24.4797L46.9818-24.4797L46.2311-26.7288L12.4382-26.7288ZM55.1193 0L57.7637 0L30.6381-70.459L29.4327-70.459L29.4327-67.1326Z"/>
  </g>
  <line id="Baseline-L" style="fill:none;stroke:#27AAE1;opacity:1;stroke-width:0.5;" x1="263" x2="3036" y1="1556" y2="1556"/>
  <line id="Capline-L" style="fill:none;stroke:#27AAE1;opacity:1;stroke-width:0.5;" x1="263" x2="3036" y1="1485.54" y2="1485.54"/>
  <line id="left-margin" style="fill:none;stroke:#00AEEF;stroke-width:0.5;opacity:1.0;" x1="1380.56" x2="1380.56" y1="1030.78" y2="1150.12"/>
  <line id="right-margin" style="fill:none;stroke:#00AEEF;stroke-width:0.5;opacity:1.0;" x1="1519.13" x2="1519.13" y1="1030.78" y2="1150.12"/>
 </g>
 <g id="Symbols">
  <g id="Black-L" transform="matrix(1 0 0 1 2839.77 1556)">
   <path d="M43.34 2.8L43.34-78.5L142.24-78.5L142.24-73.8L159.04-73.8L159.35-73.8C159.48-73.8 159.61-73.8 159.74-73.8L159.74-83C159.74-90.18 153.92-96 146.74-96L38.84-96C31.66-96 25.84-90.18 25.84-83L25.84 2.8L18.69 2.8C13.31 2.8 8.94 7.17 8.94 12.55C8.94 17.94 13.31 22.3 18.69 22.3L116.34 22.3C115.93 21.68 115.56 21.04 115.22 20.38C113.87 17.72 113.42 15.05 113.22 12.66C113.04 10.45 113.04 7.82 113.04 5.01L113.04 2.8L43.34 2.8ZM160.841-64.7987C165.824-64.7874 168.521-64.6769 170.63-63.6C172.7-62.55 174.39-60.86 175.44-58.79C176.548-56.6208 176.633-53.8295 176.639-48.5679L176.639 6.06793C176.633 11.3295 176.548 14.1208 175.44 16.29C174.39 18.36 172.7 20.05 170.63 21.1C168.401 22.2385 165.514 22.2968 159.964 22.2998L138.716 22.2998C133.166 22.2968 130.279 22.2385 128.05 21.1C125.98 20.05 124.29 18.36 123.24 16.29C122.132 14.1208 122.047 11.3295 122.041 6.06793L122.041-48.5679C122.047-53.8295 122.132-56.6208 123.24-58.79C124.29-60.86 125.98-62.55 128.05-63.6C130.159-64.6769 132.856-64.7874 137.839-64.7987ZM159.14-47.3L139.54-47.3L139.54-47.3L139.54 4.8L139.54 4.8L159.14 4.8L159.14 4.8L159.14-47.3L159.14-47.3Z"/>
  </g>
  <g id="Heavy-L" transform="matrix(1 0 0 1 2545.65 1556)">
   <path d="M41.34 0.9L41.34-78.5L139.04-78.5L139.04-73.1L153.84-73.1L154.15-73.1C154.28-73.1 154.41-73.1 154.54-73.1L154.54-81C154.54-88.18 148.72-94 141.54-94L38.84-94C31.66-94 25.84-88.18 25.84-81L25.84 0.9L18.04 0.9C13.01 0.9 8.94 4.97 8.94 10C8.94 15.02 13.01 19.1 18.04 19.1L25.84 19.1L25.84 19.1L112.44 19.1C112.03 18.48 111.66 17.84 111.32 17.18C109.97 14.52 109.52 11.85 109.32 9.46C109.14 7.25 109.14 4.62 109.14 1.81L109.14 0.9L41.34 0.9ZM155.641-64.0987C160.624-64.0874 163.321-63.9769 165.43-62.9C167.5-61.85 169.19-60.17 170.24-58.1C171.348-55.9215 171.433-53.1296 171.439-47.8679L171.44-46.9678L171.44-46.9678L171.44-46.5L171.44 1.5C171.44 1.65795 171.44 1.81387 171.44 1.96781L171.439 2.86793C171.433 8.12953 171.348 10.9208 170.24 13.09C169.19 15.16 167.5 16.84 165.43 17.9C163.201 19.0385 160.314 19.0968 154.764 19.0998L134.816 19.0998C129.266 19.0968 126.379 19.0385 124.15 17.9C122.08 16.84 120.39 15.16 119.34 13.09C118.232 10.9208 118.147 8.12953 118.141 2.86793L118.141-47.8679C118.147-53.1296 118.232-55.9215 119.34-58.1C120.39-60.17 122.08-61.85 124.15-62.9C126.259-63.9769 128.956-64.0874 133.939-64.0987ZM155.94-48.6L133.64-48.6L133.64-48.6L133.64 3.6L133.64 3.6L155.94 3.6L155.94 3.6L155.94-48.6L155.94-48.6Z"/>
  </g>
  <g id="Bold-L" transform="matrix(1 0 0 1 2252.84 1556)">
   <path d="M37.54-78.5L135.04-78.5C135.32-78.5 135.54-78.28 135.54-78L135.54-71.4L146.04-71.4L146.35-71.4C146.92-71.4 147.48-71.4 148.04-71.4L148.04-78C148.04-85.18 142.22-91 135.04-91L37.54-91C30.36-91 24.54-85.18 24.54-78L24.54 1.3L16.74 1.3C12.43 1.3 8.94 4.79 8.94 9.1C8.94 13.41 12.43 16.9 16.74 16.9L107.24 16.9C106.83 16.28 106.46 15.64 106.12 14.98C104.77 12.32 104.32 9.65 104.12 7.26C103.98 5.5 103.95 3.48 103.94 1.3L37.04 1.3L37.04-78C37.04-78.28 37.26-78.5 37.54-78.5ZM147.841-62.3987C152.824-62.3874 155.521-62.2769 157.63-61.2C159.7-60.14 161.39-58.46 162.44-56.39C163.578-54.1605 163.637-51.274 163.64-45.7237L163.64 0.223711C163.637 5.774 163.578 8.66103 162.44 10.9C161.39 12.97 159.7 14.65 157.63 15.7C155.401 16.8385 152.514 16.8968 146.964 16.8998L129.616 16.8998C124.066 16.8968 121.179 16.8385 118.95 15.7C116.88 14.65 115.19 12.97 114.14 10.9C113.063 8.78205 112.953 6.08422 112.941 1.10073L112.941-46.6007C112.953-51.5841 113.063-54.281 114.14-56.39C115.19-58.46 116.88-60.14 118.95-61.2C121.059-62.2769 123.756-62.3874 128.739-62.3987ZM146.843-49.8996L129.737-49.8996C127.811-49.8972 126.486-49.8853 125.48-49.85C125.454-48.8529 125.443-47.5289 125.44-45.6031L125.44 0.10309C125.443 2.02903 125.454 3.35412 125.48 4.36C126.419 4.39294 127.636 4.39875 129.36 4.39978L147.22 4.39978C148.944 4.39875 150.161 4.39294 151.1 4.36C151.126 3.35412 151.137 2.02903 151.14 0.10309L151.14-45.6031C151.137-47.5289 151.126-48.8529 151.1-49.85C150.094-49.8853 148.769-49.8972 146.843-49.8996Z"/>
  </g>
  <g id="Semibold-L" transform="matrix(1 0 0 1 1956.13 1556)">
   <path d="M37.54-80L135.04-80C136.14-80 137.04-79.1 137.04-78L137.04-71.4L146.04-71.4L146.35-71.4C146.92-71.4 147.48-71.4 148.04-71.4L148.04-78C148.04-85.18 142.22-91 135.04-91L37.54-91C30.36-91 24.54-85.18 24.54-78L24.54 2.6L15.94 2.6C12.07 2.6 8.94 5.74 8.94 9.6L8.94 9.9C8.94 13.77 12.07 16.9 15.94 16.9L107.24 16.9C106.83 16.28 106.46 15.64 106.12 14.98C104.77 12.32 104.32 9.65 104.12 7.26C104.01 5.86 103.96 4.28 103.95 2.6L35.54 2.6L35.54-78C35.54-79.1 36.44-80 37.54-80ZM147.841-62.3987C152.824-62.3874 155.521-62.2769 157.63-61.2C159.7-60.14 161.39-58.46 162.44-56.39C163.578-54.1605 163.637-51.274 163.64-45.7237L163.64 0.223711C163.637 5.774 163.578 8.66103 162.44 10.9C161.39 12.97 159.7 14.65 157.63 15.7C155.401 16.8385 152.514 16.8968 146.964 16.8998L129.616 16.8998C124.066 16.8968 121.179 16.8385 118.95 15.7C116.88 14.65 115.19 12.97 114.14 10.9C113.063 8.78205 112.953 6.08422 112.941 1.10073L112.941-46.6007C112.953-51.5841 113.063-54.281 114.14-56.39C115.19-58.46 116.88-60.14 118.95-61.2C121.059-62.2769 123.756-62.3874 128.739-62.3987ZM146.795-51.3998L129.785-51.3998C126.997-51.3978 125.388-51.382 124.21-51.29C124.16-51.28 124.11-51.28 124.07-51.27C124.06-51.23 124.06-51.18 124.05-51.13C123.958-49.9524 123.942-48.3431 123.94-45.5547L123.94 0.0546675C123.942 2.84314 123.958 4.4524 124.05 5.63L124.07 5.78L124.07 5.78C124.11 5.78 124.16 5.78 124.21 5.79C125.388 5.882 126.997 5.89782 129.785 5.89977L146.795 5.89977C149.583 5.89782 151.192 5.882 152.37 5.79C152.42 5.78 152.47 5.78 152.51 5.78L152.53 5.63L152.53 5.63C152.622 4.4524 152.638 2.84314 152.64 0.0546675L152.64-45.5547C152.638-48.3431 152.622-49.9524 152.53-51.13C152.52-51.18 152.52-51.23 152.51-51.27C152.47-51.28 152.42-51.28 152.37-51.29C151.192-51.382 149.583-51.3978 146.795-51.3998Z"/>
  </g>
  <g id="Medium-L" transform="matrix(1 0 0 1 1659.42 1556)">
   <path d="M37.54-82.5L135.04-82.5C137.53-82.5 139.54-80.49 139.54-78L139.54-71.4L148.04-71.4L148.04-78C148.04-85.18 142.22-91 135.04-91L37.54-91C30.36-91 24.54-85.18 24.54-78L24.54 2.6L15.94 2.6C12.07 2.6 8.94 5.74 8.94 9.6L8.94 9.9C8.94 13.77 12.07 16.9 15.94 16.9L107.23 16.9C105.15 13.75 103.94 9.97 103.94 5.9L103.94 2.6L33.04 2.6L33.04-78C33.04-80.49 35.05-82.5 37.54-82.5ZM147.408-62.3995C152.67-62.3929 155.461-62.3077 157.63-61.2C159.7-60.14 161.39-58.46 162.44-56.39C163.548-54.2208 163.633-51.4295 163.639-46.1679L163.64-45.2678L163.64-45.2678L163.64-44.8L163.64-0.7C163.64-0.542051 163.64-0.386127 163.64-0.232189L163.639 0.667938C163.633 5.92959 163.548 8.72154 162.44 10.9C161.39 12.97 159.7 14.65 157.63 15.7C155.461 16.8077 152.67 16.8929 147.408 16.8995L129.172 16.8995C123.91 16.8929 121.119 16.8077 118.95 15.7C116.88 14.65 115.19 12.97 114.14 10.9C113.032 8.72154 112.947 5.92959 112.941 0.667938L112.941-46.1679C112.947-51.4295 113.032-54.2208 114.14-56.39C115.19-58.46 116.88-60.14 118.95-61.2C121.119-62.3077 123.91-62.3929 129.172-62.3995ZM146.04-53.9L130.54-53.9L130.127-53.8999L130.127-53.8999L129.346-53.8993C126.833-53.8957 125.236-53.8757 124.01-53.78C123.22-53.71 122.86-53.63 122.75-53.6C122.32-53.37 121.97-53.01 121.74-52.59C121.71-52.48 121.63-52.12 121.56-51.33C121.464-50.1039 121.444-48.5073 121.441-45.9945L121.441 0.494913C121.444 3.00958 121.464 4.61261 121.56 5.83C121.63 6.63 121.71 6.98 121.74 7.09C121.97 7.52 122.32 7.87 122.75 8.1L122.827 8.11958C122.992 8.15917 123.352 8.23 124.01 8.28C125.236 8.37565 126.833 8.39569 129.346 8.39929L147.234 8.39929C149.747 8.39569 151.344 8.37565 152.57 8.28C153.228 8.23 153.588 8.15917 153.753 8.11958L153.83 8.1L153.83 8.1C154.26 7.87 154.61 7.52 154.84 7.09C154.87 6.98 154.95 6.63 155.02 5.83C155.116 4.61261 155.136 3.00958 155.139 0.494913L155.139-45.9945C155.136-48.5073 155.116-50.1039 155.02-51.33C154.95-52.12 154.87-52.48 154.84-52.59C154.61-53.01 154.26-53.37 153.83-53.6C153.72-53.63 153.36-53.71 152.57-53.78C151.344-53.8757 149.747-53.8957 147.234-53.8993L146.453-53.8999C146.318-53.9 146.18-53.9 146.04-53.9Z"/>
  </g>
  <g id="Regular-L" transform="matrix(1 0 0 1 1362.71 1556)">
   <path d="M37.54-83L135.04-83C137.8-83 140.04-80.76 140.04-78L140.04-71.4L146.04-71.4L146.35-71.4C146.92-71.4 147.48-71.4 148.04-71.4L148.04-78C148.04-85.18 142.22-91 135.04-91L37.54-91C30.36-91 24.54-85.18 24.54-78L24.54 2.6L15.94 2.6C12.07 2.6 8.94 5.74 8.94 9.6L8.94 9.9C8.94 13.77 12.07 16.9 15.94 16.9L107.24 16.9C106.83 16.28 106.46 15.64 106.12 14.98C104.77 12.32 104.32 9.65 104.12 7.26C104.01 5.86 103.96 4.28 103.95 2.6L32.54 2.6L32.54-78C32.54-80.76 34.78-83 37.54-83ZM147.841-62.3987C152.824-62.3874 155.521-62.2769 157.63-61.2C159.7-60.14 161.39-58.46 162.44-56.39C163.578-54.1605 163.637-51.274 163.64-45.7237L163.64 0.223711C163.637 5.774 163.578 8.66103 162.44 10.9C161.39 12.97 159.7 14.65 157.63 15.7C155.401 16.8385 152.514 16.8968 146.964 16.8998L129.616 16.8998C124.066 16.8968 121.179 16.8385 118.95 15.7C116.88 14.65 115.19 12.97 114.14 10.9C113.063 8.78205 112.953 6.08422 112.941 1.10073L112.941-46.6007C112.953-51.5841 113.063-54.281 114.14-56.39C115.19-58.46 116.88-60.14 118.95-61.2C121.059-62.2769 123.756-62.3874 128.739-62.3987ZM146.849-54.3997L129.731-54.3997C126.998-54.3975 125.276-54.3804 123.97-54.28C123.02-54.2 122.65-54.09 122.56-54.06C122.01-53.78 121.56-53.33 121.28-52.78C121.25-52.69 121.14-52.32 121.06-51.37C120.96-50.0643 120.942-48.3419 120.94-45.6089L120.94 0.108868C120.942 2.84187 120.96 4.56435 121.06 5.87C121.14 6.82 121.25 7.19 121.28 7.28C121.56 7.83 122.01 8.28 122.56 8.57C122.65 8.6 123.02 8.7 123.97 8.78C125.213 8.88435 126.835 8.89796 129.348 8.89973L147.232 8.89973C149.745 8.89796 151.367 8.88435 152.61 8.78C153.56 8.7 153.93 8.6 154.02 8.57C154.57 8.28 155.02 7.83 155.3 7.28C155.33 7.19 155.44 6.82 155.52 5.87C155.62 4.56435 155.638 2.84187 155.64 0.108868L155.64-45.6089C155.638-48.3419 155.62-50.0643 155.52-51.37C155.44-52.32 155.33-52.69 155.3-52.78C155.02-53.33 154.57-53.78 154.02-54.06C153.93-54.09 153.56-54.2 152.61-54.28C151.304-54.3804 149.582-54.3975 146.849-54.3997Z"/>
  </g>
  <g id="Light-L" transform="matrix(1 0 0 1 1070.55 1556)">
   <path d="M36.54-80L128.24-80C131-80 133.24-77.76 133.24-75L133.24-71.3L140.24-71.3L140.24-75C140.24-81.63 134.87-87 128.24-87L36.54-87C29.91-87 24.54-81.63 24.54-75L24.54 1.4L14.79 1.4C11.56 1.4 8.94 4.02 8.94 7.25C8.94 10.48 11.56 13.1 14.79 13.1L102.03 13.1C99.95 9.94 98.74 6.16 98.74 2.1L98.74 1.4L31.54 1.4L31.54-75C31.54-77.76 33.78-80 36.54-80ZM138.741-62.2987C143.724-62.2874 146.421-62.1769 148.53-61.1C150.6-60.05 152.29-58.36 153.34-56.29C154.448-54.1208 154.533-51.3295 154.539-46.0679L154.539-3.13207C154.533 2.12953 154.448 4.92077 153.34 7.09C152.29 9.16 150.6 10.85 148.53 11.9C146.301 13.0385 143.414 13.0968 137.864 13.0998L124.416 13.0998C118.866 13.0968 115.979 13.0385 113.75 11.9C111.68 10.85 109.99 9.16 108.94 7.09C107.832 4.92077 107.747 2.12953 107.741-3.13207L107.741-46.0679C107.747-51.3295 107.832-54.1208 108.94-56.29C109.99-58.36 111.68-60.05 113.75-61.1C115.859-62.1769 118.556-62.2874 123.539-62.2987ZM138.131-55.2997L124.149-55.2997C121.634-55.2978 119.977-55.283 118.69-55.17C117.31-55.06 116.96-54.88 116.93-54.87C116.92-54.87 116.92-54.87 116.92-54.86C116.245-54.518 115.683-53.9897 115.301-53.3407L115.18-53.12L115.18-53.12C115.16-53.08 114.98-52.74 114.87-51.36C114.766-50.0643 114.744-48.4057 114.741-45.8911L114.741-3.30896C114.744-0.794423 114.766 0.863044 114.87 2.15C114.98 3.53 115.16 3.88 115.18 3.91L115.18 3.92C115.56 4.67 116.17 5.28 116.92 5.66L116.93 5.66C116.96 5.68 117.31 5.86 118.69 5.97C120.041 6.07957 121.801 6.09743 124.533 6.09971L137.747 6.09971C140.479 6.09743 142.239 6.07957 143.59 5.97C144.97 5.86 145.32 5.68 145.35 5.66L145.36 5.66C146.11 5.28 146.72 4.67 147.1 3.92L147.1 3.91C147.12 3.88 147.3 3.53 147.41 2.15C147.514 0.863044 147.536-0.794423 147.539-3.30896L147.539-45.8911C147.536-48.4057 147.514-50.0643 147.41-51.36C147.306-52.6674 147.139-53.0413 147.104-53.1111L147.1-53.12C146.72-53.87 146.11-54.48 145.36-54.86L145.35-54.87C145.32-54.88 144.97-55.06 143.59-55.17C142.303-55.283 140.646-55.2978 138.131-55.2997Z"/>
  </g>
  <g id="Thin-L" transform="matrix(1 0 0 1 774.487 1556)">
   <path d="M35.24-83L126.94-83C131.358-83 134.94-79.42 134.94-75L134.94-72.6L138.94-72.6L138.94-75C138.94-81.63 133.567-87 126.94-87L35.24-87C28.612-87 23.24-81.63 23.24-75L23.24 1.4L13.49 1.4C10.977 1.4 8.94 3.44 8.94 5.95C8.94 8.46 10.977 10.5 13.49 10.5L23.24 10.5L23.24 10.5L99.946 10.5C98.441 7.79 97.546 4.69 97.449 1.4L27.24 1.4L27.24-75C27.24-79.42 30.822-83 35.24-83ZM137.441-63.5987C142.425-63.5874 145.122-63.4769 147.234-62.4C149.304-61.35 150.986-59.67 152.041-57.6C153.179-55.361 153.237-52.474 153.24-46.9237L153.24-4.87629C153.237 0.673978 153.179 3.56051 152.041 5.79C150.986 7.86 149.304 9.54 147.234 10.6C145.002 11.7385 142.115 11.7968 136.564 11.7998L123.116 11.7998C117.565 11.7968 114.678 11.7385 112.446 10.6C110.376 9.54 108.694 7.86 107.639 5.79C106.563 3.68103 106.453 0.984116 106.441-3.99928L106.441-47.8007C106.453-52.7842 106.563-55.4821 107.639-57.6C108.694-59.67 110.376-61.35 112.446-62.4C114.558-63.4769 117.255-63.5874 122.239-63.5987ZM136.988-59.5995L122.692-59.5995C120.269-59.5968 118.53-59.579 117.141-59.46C115.554-59.34 114.781-59.1 114.262-58.84C112.945-58.17 111.874-57.1 111.203-55.78C110.939-55.26 110.706-54.49 110.577-52.9C110.456-51.433 110.442-49.5691 110.44-46.9146L110.44-4.88806C110.442-2.2408 110.456-0.376 110.577 1.1C110.706 2.68 110.939 3.46 111.203 3.98C111.874 5.29 112.945 6.36 114.262 7.04C114.781 7.3 115.554 7.53 117.141 7.66C118.612 7.786 120.475 7.7986 123.126 7.79986L136.554 7.79986C139.205 7.7986 141.068 7.786 142.539 7.66C144.126 7.53 144.899 7.3 145.418 7.04C146.735 6.36 147.806 5.29 148.477 3.98C148.741 3.46 148.974 2.68 149.103 1.1C149.224-0.376 149.238-2.2408 149.24-4.88806L149.24-46.9146C149.238-49.5691 149.224-51.433 149.103-52.9C148.974-54.49 148.741-55.26 148.477-55.78C147.806-57.1 146.735-58.17 145.418-58.84C144.899-59.1 144.126-59.34 142.539-59.46C141.15-59.579 139.411-59.5968 136.988-59.5995Z"/>
  </g>
  <g id="Ultralight-L" transform="matrix(1 0 0 1 477.776 1556)">
   <path d="M32.24-83L129.94-83C133.806-83 136.94-79.87 136.94-76L136.94-73.2C137.621-73.2 138.288-73.2 138.94-73.19L138.94-76C138.94-80.97 134.91-85 129.94-85L32.24-85C27.269-85 23.24-80.97 23.24-76L23.24 2.1L12.84 2.1C10.686 2.1 8.94 3.85 8.94 6C8.94 8.16 10.686 9.9 12.84 9.9L99.95 9.9C99.837 9.7 99.726 9.49 99.62 9.28C98.368 6.82 97.888 4.35 97.668 2.1L25.24 2.1L25.24-76C25.24-79.87 28.374-83 32.24-83ZM137.441-64.1987C142.425-64.1874 145.122-64.0769 147.234-63C149.304-61.95 150.986-60.26 152.041-58.19C153.179-55.9605 153.237-53.074 153.24-47.5237L153.24-5.47629C153.237 0.0739776 153.179 2.96051 152.041 5.19C150.986 7.26 149.304 8.95 147.234 10C145.002 11.1385 142.115 11.1968 136.564 11.1998L123.116 11.1998C117.565 11.1968 114.678 11.1385 112.446 10C110.376 8.95 108.694 7.26 107.639 5.19C106.563 3.08103 106.453 0.384116 106.441-4.59928L106.441-48.4007C106.453-53.3841 106.563-56.081 107.639-58.19C108.694-60.26 110.376-61.95 112.446-63C114.558-64.0769 117.255-64.1874 122.239-64.1987ZM136.645-62.1998L123.035-62.1998C120.441-62.1983 118.519-62.1844 116.978-62.06C115.267-61.92 114.202-61.65 113.354-61.22C111.661-60.36 110.284-58.98 109.421-57.29C108.989-56.44 108.723-55.37 108.583-53.66C108.458-52.1222 108.442-50.1973 108.44-47.6043L108.44-5.39575C108.442-2.80272 108.458-0.877778 108.583 0.66C108.723 2.37 108.989 3.44 109.421 4.29C110.284 5.98 111.661 7.36 113.354 8.22C114.202 8.65 115.267 8.92 116.978 9.06C118.519 9.18444 120.441 9.19827 123.035 9.19981L136.645 9.19981C139.239 9.19827 141.161 9.18444 142.702 9.06C144.413 8.92 145.478 8.65 146.326 8.22C148.019 7.36 149.396 5.98 150.259 4.29C150.691 3.44 150.957 2.37 151.097 0.66C151.222-0.877778 151.238-2.80272 151.24-5.39575L151.24-47.6043C151.238-50.1973 151.222-52.1222 151.097-53.66C150.957-55.37 150.691-56.44 150.259-57.29C149.396-58.98 148.019-60.36 146.326-61.22C145.478-61.65 144.413-61.92 142.702-62.06C141.161-62.1844 139.239-62.1983 136.645-62.1998Z"/>
  </g>
  <g id="Black-M" transform="matrix(1 0 0 1 2859.12 1126)">
   <path d="M36.94-8L36.94-68L109.94-68L109.94-66L124.94-66L124.94-72C124.94-78.08 120.02-83 113.94-83L32.94-83C26.86-83 21.94-78.08 21.94-72L21.94-8L16.94-8C12.52-8 8.94-4.42 8.94 0C8.94 4.42 12.52 8 16.94 8L21.94 8L91.25 8C91.01 7.61 90.78 7.22 90.57 6.81C89.55 4.8 89.22 2.79 89.07 1.02C88.94-0.6 88.94-2.53 88.94-4.57L88.94-4.57L88.94-8L36.94-8ZM124.854-58.9993C129.033-58.9919 131.275-58.9109 133.03-58.02C134.72-57.16 136.1-55.78 136.96-54.09C137.881-52.277 137.936-49.9433 137.94-45.489L137.94-5.51098C137.936-1.05671 137.881 1.27697 136.96 3.09C136.1 4.78 134.72 6.16 133.03 7.02C131.217 7.94061 128.883 7.9964 124.429 7.99978L109.451 7.99978C104.997 7.9964 102.663 7.94061 100.85 7.02C99.16 6.16 97.78 4.78 96.92 3.09C96.0291 1.33545 95.9481-0.906694 95.9407-5.08648L95.9407-45.9135C95.9481-50.0933 96.0291-52.3355 96.92-54.09C97.78-55.78 99.16-57.16 100.85-58.02C102.605-58.9109 104.847-58.9919 109.026-58.9993ZM122.94-44L110.94-44L110.94-7L122.94-7L122.94-44Z"/>
  </g>
  <g id="Heavy-M" transform="matrix(1 0 0 1 2564.4 1126)">
   <path d="M34.94-9L34.94-68L107.94-68L107.94-65L120.94-65L120.94-70C120.94-76.08 116.02-81 109.94-81L32.94-81C26.86-81 21.94-76.08 21.94-70L21.94-9L16.44-9C12.3-9 8.94-5.64 8.94-1.5C8.94 2.64 12.3 6 16.44 6L21.94 6L88.71 6C86.96 3.44 85.94 0.34 85.94-3L85.94-9L34.94-9ZM122.379-57.9992C126.049-57.9919 128.025-57.9158 129.57-57.13C131.08-56.36 132.3-55.14 133.07-53.63C133.94-51.92 133.94-49.68 133.94-45.2L133.94-6.37339C133.939-2.17604 133.912-0.0248387 133.07 1.63C132.3 3.14 131.08 4.36 129.57 5.13C127.86 6 125.62 6 121.14 6L105.313 5.99997C101.116 5.99909 98.9648 5.97194 97.31 5.13C95.8 4.36 94.58 3.14 93.81 1.63C93.0242 0.0854839 92.9481-1.89142 92.9408-5.56074L92.9408-46.4393C92.9481-50.1086 93.0242-52.0855 93.81-53.63C94.58-55.14 95.8-56.36 97.31-57.13C98.8545-57.9158 100.831-57.9919 104.501-57.9992ZM120.94-45L105.94-45L105.94-7L120.94-7L120.94-45Z"/>
  </g>
  <g id="Bold-M" transform="matrix(1 0 0 1 2270.69 1126)">
   <path d="M31.94-68L104.94-68L104.94-64L115.94-64L115.94-68C115.94-74.08 111.02-79 104.94-79L31.94-79C25.86-79 20.94-74.08 20.94-68L20.94-9L15.44-9C11.85-9 8.94-6.09 8.94-2.5C8.94 1.09 11.85 4 15.44 4L20.94 4L84.71 4C82.96 1.44 81.94-1.66 81.94-5L81.94-9L31.94-9L31.94-68ZM116.379-56.9992C120.049-56.9919 122.025-56.9158 123.57-56.13C125.08-55.36 126.3-54.14 127.07-52.63C127.94-50.92 127.94-48.68 127.94-44.2L127.94-8.37339C127.939-4.17604 127.912-2.02484 127.07-0.37C126.3 1.14 125.08 2.36 123.57 3.13C121.86 4 119.62 4 115.14 4L101.313 3.99997C97.116 3.99909 94.9648 3.97194 93.31 3.13C91.8 2.36 90.58 1.14 89.81-0.37C89.0242-1.91452 88.9481-3.89142 88.9408-7.56074L88.9408-45.4393C88.9481-49.1086 89.0242-51.0855 89.81-52.63C90.58-54.14 91.8-55.36 93.31-56.13C94.8545-56.9158 96.8314-56.9919 100.501-56.9992ZM116.94-46L99.94-46L99.94-46L99.94-7L99.94-7L116.94-7L116.94-7L116.94-46L116.94-46Z"/>
  </g>
  <g id="Semibold-M" transform="matrix(1 0 0 1 1973.98 1126)">
   <path d="M31.94-69.5L104.94-69.5C105.77-69.5 106.44-68.83 106.44-68L106.44-64L113.54-64L113.78-64C114.52-64 115.24-64 115.94-64L115.94-68C115.94-74.08 111.02-79 104.94-79L31.94-79C25.86-79 20.94-74.08 20.94-68L20.94-8L14.94-8C11.63-8 8.94-5.31 8.94-2C8.94 1.31 11.63 4 14.94 4L20.94 4L84.71 4C84.33 3.45 83.99 2.87 83.68 2.26C82.61 0.15 82.24-1.99 82.09-3.92C81.99-5.14 81.95-6.51 81.94-8L30.44-8L30.44-68C30.44-68.83 31.11-69.5 31.94-69.5ZM116.379-56.9992C120.049-56.9919 122.025-56.9158 123.57-56.13C125.08-55.36 126.3-54.14 127.07-52.63C127.94-50.92 127.94-48.68 127.94-44.2L127.94-8.37339C127.939-4.17604 127.912-2.02484 127.07-0.37C126.3 1.14 125.08 2.36 123.57 3.13C121.86 4 119.62 4 115.14 4L101.313 3.99997C97.116 3.99909 94.9648 3.97194 93.31 3.13C91.8 2.36 90.58 1.14 89.81-0.37C89.0242-1.91452 88.9481-3.89142 88.9408-7.56074L88.9408-45.4393C88.9481-49.1086 89.0242-51.0855 89.81-52.63C90.58-54.14 91.8-55.36 93.31-56.13C94.8545-56.9158 96.8314-56.9919 100.501-56.9992ZM116.204-47.4996L100.676-47.4996C100.013-47.4989 99.44-47.4967 98.92-47.49C98.76-47.48 98.6-47.48 98.46-47.48C98.46-47.34 98.46-47.18 98.45-47.02C98.4433-46.5 98.4411-45.9267 98.4404-45.2644L98.4404-7.73556C98.4411-7.07333 98.4433-6.5 98.45-5.98C98.46-5.82 98.46-5.66 98.46-5.52C98.6-5.52 98.76-5.52 98.92-5.51C99.5267-5.50222 100.206-5.50049 101.014-5.50011L115.866-5.50011C116.674-5.50049 117.353-5.50222 117.96-5.51C118.12-5.52 118.28-5.52 118.42-5.52C118.42-5.66 118.42-5.82 118.43-5.98C118.438-6.58667 118.44-7.26593 118.44-8.07424L118.44-44.9258C118.44-45.7341 118.438-46.4133 118.43-47.02C118.42-47.18 118.42-47.34 118.42-47.48C118.28-47.48 118.12-47.48 117.96-47.49C117.44-47.4967 116.867-47.4989 116.204-47.4996Z"/>
  </g>
  <g id="Medium-M" transform="matrix(1 0 0 1 1677.27 1126)">
   <path d="M31.94-68.5L104.94-68.5C106.32-68.5 107.44-67.38 107.44-66L107.44-62L113.54-62L113.78-62L113.78-62C114.52-62 115.24-62 115.94-62L115.94-66C115.94-72.08 111.02-77 104.94-77L31.94-77C25.86-77 20.94-72.08 20.94-66L20.94-5L14.44-5C11.4-5 8.94-2.54 8.94 0.5C8.94 3.54 11.4 6 14.44 6L20.94 6L84.71 6C84.33 5.45 83.99 4.87 83.68 4.26C82.61 2.15 82.24 0.01 82.09-1.92C82.01-2.86 81.97-3.89 81.96-5L29.44-5L29.44-66C29.44-67.38 30.56-68.5 31.94-68.5ZM116.379-54.9992C120.049-54.9919 122.025-54.9158 123.57-54.13C125.08-53.36 126.3-52.14 127.07-50.63C127.94-48.92 127.94-46.68 127.94-42.2L127.94-6.37339C127.939-2.17604 127.912-0.0248387 127.07 1.63C126.3 3.14 125.08 4.36 123.57 5.13C121.86 6 119.62 6 115.14 6L101.313 5.99997C97.116 5.99909 94.9648 5.97194 93.31 5.13C91.8 4.36 90.58 3.14 89.81 1.63C89.0242 0.0854839 88.9481-1.89142 88.9408-5.56074L88.9408-43.4393C88.9481-47.1086 89.0242-49.0855 89.81-50.63C90.58-52.14 91.8-53.36 93.31-54.13C94.8545-54.9158 96.8314-54.9919 100.501-54.9992ZM115.849-46.4995L101.031-46.4995C99.3431-46.4971 98.2853-46.4841 97.5-46.44C97.4559-45.6547 97.4429-44.5969 97.4405-42.9094L97.4405-6.09057C97.4429-4.40308 97.4559-3.34529 97.5-2.56C98.3376-2.51294 99.4853-2.50131 101.377-2.50011L115.14-2.5C117.25-2.5 118.49-2.51 119.38-2.56C119.427-3.39765 119.439-4.54533 119.44-6.43657L119.44-42.2C119.44-44.31 119.43-45.55 119.38-46.44C118.595-46.4841 117.537-46.4971 115.849-46.4995Z"/>
  </g>
  <g id="Regular-M" transform="matrix(1 0 0 1 1380.56 1126)">
   <path d="M31.94-69.5L104.94-69.5C106.87-69.5 108.44-67.93 108.44-66L108.44-62L113.54-62L113.78-62C114.52-62 115.24-62 115.94-62L115.94-66C115.94-72.08 111.02-77 104.94-77L31.94-77C25.86-77 20.94-72.08 20.94-66L20.94-5L14.44-5C11.4-5 8.94-2.54 8.94 0.5C8.94 3.54 11.4 6 14.44 6L20.94 6L84.71 6C84.33 5.45 83.99 4.87 83.68 4.26C82.61 2.15 82.24 0.01 82.09-1.92C82.01-2.86 81.97-3.89 81.96-5L28.44-5L28.44-66C28.44-67.93 30.01-69.5 31.94-69.5ZM116.379-54.9992C120.049-54.9919 122.025-54.9158 123.57-54.13C125.08-53.36 126.3-52.14 127.07-50.63C127.94-48.92 127.94-46.68 127.94-42.2L127.94-6.37339C127.939-2.17604 127.912-0.0248387 127.07 1.63C126.3 3.14 125.08 4.36 123.57 5.13C121.86 6 119.62 6 115.14 6L101.313 5.99997C97.116 5.99909 94.9648 5.97194 93.31 5.13C91.8 4.36 90.58 3.14 89.81 1.63C89.0242 0.0854839 88.9481-1.89142 88.9408-5.56074L88.9408-43.4393C88.9481-47.1086 89.0242-49.0855 89.81-50.63C90.58-52.14 91.8-53.36 93.31-54.13C94.8545-54.9158 96.8314-54.9919 100.501-54.9992ZM115.852-47.4996L101.028-47.4996C99.1042-47.4972 97.95-47.4826 97.1-47.42C96.86-47.4 96.7-47.38 96.59-47.36L96.58-47.35L96.58-47.35C96.56-47.24 96.54-47.08 96.52-46.84C96.4574-45.99 96.4428-44.8358 96.4404-42.9118L96.4404-6.08822C96.4428-4.16421 96.4574-3.01 96.52-2.16C96.54-1.92 96.56-1.76 96.58-1.65L96.59-1.64L96.59-1.64C96.7-1.62 96.86-1.6 97.1-1.58C98-1.51368 99.2411-1.50122 101.376-1.50009L115.14-1.5C117.5-1.5 118.83-1.51 119.78-1.58C120.02-1.6 120.18-1.62 120.29-1.64L120.3-1.65L120.3-1.65C120.32-1.76 120.34-1.92 120.36-2.16C120.426-3.06 120.439-4.30105 120.44-6.43583L120.44-42.2C120.44-44.56 120.43-45.89 120.36-46.84C120.34-47.08 120.32-47.24 120.3-47.35L120.29-47.36L120.29-47.36C120.18-47.38 120.02-47.4 119.78-47.42C118.93-47.4826 117.776-47.4972 115.852-47.4996Z"/>
  </g>
  <g id="Light-M" transform="matrix(1 0 0 1 1087.35 1126)">
   <path d="M30.94-68L99.94-68C102.15-68 103.94-66.21 103.94-64L103.94-62L106.54-62L106.78-62C107.88-62 108.94-62 109.94-61.98L109.94-64C109.94-69.52 105.46-74 99.94-74L30.94-74C25.42-74 20.94-69.52 20.94-64L20.94-6L13.44-6C10.95-6 8.94-3.99 8.94-1.5C8.94 0.99 10.95 3 13.44 3L80.71 3C80.33 2.45 79.99 1.87 79.68 1.26C78.61-0.85 78.24-2.99 78.09-4.92C78.06-5.27 78.03-5.63 78.02-6L26.94-6L26.94-64C26.94-66.21 28.73-68 30.94-68ZM109.379-54.9992C113.049-54.9919 115.025-54.9158 116.57-54.13C118.08-53.36 119.3-52.14 120.07-50.63C120.94-48.92 120.94-46.68 120.94-42.2L120.94-9.37339C120.939-5.17604 120.912-3.02484 120.07-1.37C119.3 0.14 118.08 1.36 116.57 2.13C114.86 3 112.62 3 108.14 3L97.3134 2.99997C93.116 2.99909 90.9648 2.97194 89.31 2.13C87.8 1.36 86.58 0.14 85.81-1.37C85.0242-2.91452 84.9481-4.89142 84.9408-8.56074L84.9408-43.4393C84.9481-47.1086 85.0242-49.0855 85.81-50.63C86.58-52.14 87.8-53.36 89.31-54.13C90.8545-54.9158 92.8314-54.9919 96.5007-54.9992ZM109.234-48.9996L96.6464-48.9996C94.9464-48.9975 93.8367-48.985 92.97-48.91C92.34-48.86 92.08-48.79 92.01-48.77C91.65-48.58 91.36-48.29 91.17-47.93C91.15-47.86 91.08-47.6 91.03-46.97C90.955-46.1033 90.9425-44.9936 90.9404-43.2936L90.9404-8.70639C90.9425-7.00639 90.955-5.89667 91.03-5.03C91.08-4.4 91.15-4.14 91.17-4.07C91.36-3.71 91.65-3.42 92.01-3.23C92.08-3.21 92.34-3.14 92.97-3.09C93.8944-3.01 95.0954-3.00111 96.9944-3.00012L108.886-3.00012C110.785-3.00111 111.986-3.01 112.91-3.09C113.54-3.14 113.8-3.21 113.87-3.23C114.23-3.42 114.52-3.71 114.71-4.07C114.73-4.14 114.8-4.4 114.85-5.03C114.93-5.95444 114.939-7.15543 114.94-9.05436L114.94-42.9456C114.939-44.8446 114.93-46.0456 114.85-46.97C114.8-47.6 114.73-47.86 114.71-47.93C114.52-48.29 114.23-48.58 113.87-48.77C113.8-48.79 113.54-48.86 112.91-48.91C112.043-48.985 110.934-48.9975 109.234-48.9996Z"/>
  </g>
  <g id="Thin-M" transform="matrix(1 0 0 1 791.137 1126)">
   <path d="M29.94-70L98.94-70C102.254-70 104.94-67.31 104.94-64L104.94-63L105.54-63L105.782-63C106.88-63 107.939-63 108.94-62.98L108.94-64C108.94-69.52 104.463-74 98.94-74L29.94-74C24.417-74 19.94-69.52 19.94-64L19.94-6L12.44-6C10.507-6 8.94-4.43 8.94-2.5C8.94-0.57 10.507 1 12.44 1L19.94 1L79.084 1C78.944 0.76 78.811 0.51 78.684 0.26C77.607-1.85 77.244-3.99 77.086-5.92C77.084-5.95 77.082-5.97 77.079-6L23.94-6L23.94-64C23.94-67.31 26.626-70 29.94-70ZM108.379-55.9992C112.049-55.9919 114.027-55.9158 115.572-55.13C117.077-54.36 118.301-53.14 119.068-51.63C119.94-49.92 119.94-47.68 119.94-43.2L119.94-10.3734C119.939-6.17604 119.912-4.02484 119.068-2.37C118.301-0.86 117.077 0.36 115.572 1.13C113.861 2 111.62 2 107.14 2L96.3134 1.99997C92.116 1.99909 89.9638 1.97194 88.308 1.13C86.803 0.36 85.579-0.86 84.812-2.37C84.0244-3.91452 83.9482-5.89142 83.9408-9.56074L83.9408-44.4393C83.9482-48.1086 84.0244-50.0855 84.812-51.63C85.579-53.14 86.803-54.36 88.308-55.13C89.8534-55.9158 91.8312-55.9919 95.5007-55.9992ZM108.287-51.9995L95.593-51.9995C93.9195-51.9969 92.7449-51.9824 91.811-51.9C90.725-51.82 90.322-51.66 90.124-51.56C89.371-51.18 88.759-50.57 88.376-49.82C88.275-49.62 88.124-49.22 88.036-48.13C87.9594-47.1994 87.9439-46.0247 87.9408-44.3489L87.9408-9.65114C87.9439-7.97533 87.9594-6.80059 88.036-5.87C88.124-4.78 88.275-4.38 88.376-4.18C88.759-3.43 89.371-2.82 90.124-2.44C90.322-2.34 90.725-2.18 91.811-2.1C92.8116-2.01176 94.0886-2.00138 95.9593-2.00016L107.921-2.00016C109.791-2.00138 111.068-2.01176 112.069-2.1C113.155-2.18 113.558-2.34 113.756-2.44C114.509-2.82 115.121-3.43 115.504-4.18C115.605-4.38 115.756-4.78 115.844-5.87C115.932-6.93353 115.939-8.31595 115.94-10.4008L115.94-43.2C115.94-45.51 115.937-47 115.844-48.13C115.756-49.22 115.605-49.62 115.504-49.82C115.121-50.57 114.509-51.18 113.756-51.56C113.558-51.66 113.155-51.82 112.069-51.9C111.135-51.9824 109.96-51.9969 108.287-51.9995Z"/>
  </g>
  <g id="Ultralight-M" transform="matrix(1 0 0 1 494.426 1126)">
   <path d="M28.94-71L99.94-71C103.806-71 106.94-67.87 106.94-64L106.94-64C107.627-64 108.296-63.99 108.94-63.98L108.94-64C108.94-68.97 104.911-73 99.94-73L28.94-73C23.969-73 19.94-68.97 19.94-64L19.94-6L11.94-6C10.283-6 8.94-4.66 8.94-3C8.94-1.34 10.283 0 11.94 0L19.94 0L79.084 0C78.944-0.24 78.811-0.49 78.684-0.74C77.775-2.52 77.375-4.32 77.177-6L21.94-6L21.94-64C21.94-67.87 25.074-71 28.94-71ZM108.379-56.9992C112.049-56.9919 114.027-56.9158 115.572-56.13C117.077-55.36 118.301-54.14 119.068-52.63C119.94-50.92 119.94-48.68 119.94-44.2L119.94-11.3734C119.939-7.17604 119.912-5.02484 119.068-3.37C118.301-1.86 117.077-0.64 115.572 0.13C113.861 1 111.62 1 107.14 1L96.3134 0.999971C92.116 0.999095 89.9638 0.971935 88.308 0.13C86.803-0.64 85.579-1.86 84.812-3.37C84.0244-4.91452 83.9482-6.89142 83.9408-10.5607L83.9408-45.4393C83.9482-49.1086 84.0244-51.0855 84.812-52.63C85.579-54.14 86.803-55.36 88.308-56.13C89.8534-56.9158 91.8312-56.9919 95.5007-56.9992ZM108.348-54.9993L95.5318-54.9993C93.885-54.9965 92.6506-54.9813 91.648-54.9C90.438-54.8 89.743-54.61 89.216-54.35C88.087-53.77 87.169-52.85 86.594-51.72C86.326-51.2 86.141-50.5 86.042-49.29C85.9545-48.2137 85.942-46.8619 85.9403-45.02L85.9403-10.98C85.942-9.13812 85.9545-7.78625 86.042-6.71C86.141-5.5 86.326-4.8 86.594-4.28C87.169-3.15 88.087-2.23 89.216-1.65C89.743-1.39 90.438-1.2 91.648-1.1C92.7278-1.0125 94.0762-1.00156 95.9192-1.0002L107.961-1.0002C109.804-1.00156 111.152-1.0125 112.232-1.1C113.442-1.2 114.137-1.39 114.664-1.65C115.793-2.23 116.711-3.15 117.286-4.28C117.554-4.8 117.739-5.5 117.838-6.71C117.932-7.86313 117.939-9.33266 117.94-11.3823L117.94-44.2C117.94-46.47 117.938-48.06 117.838-49.29C117.739-50.5 117.554-51.2 117.286-51.72C116.711-52.85 115.793-53.77 114.664-54.35C114.137-54.61 113.442-54.8 112.232-54.9C111.229-54.9813 109.995-54.9965 108.348-54.9993Z"/>
  </g>
  <g id="Black-S" transform="matrix(1 0 0 1 2872.02 696)">
   <path d="M31.34-14L31.34-62L89.74-62L89.74-60.801L89.74-60.801L100.94-60.801L101.14-60.801C101.34-60.801 101.54-60.801 101.74-60.801L101.74-64C101.74-69.523 97.26-74 91.74-74L29.34-74C23.82-74 19.34-69.523 19.34-64L19.34-14L15.34-14C11.81-14 8.94-11.135 8.94-7.6C8.94-4.065 11.81-1.2 15.34-1.2L19.34-1.2L74.59-1.2C74.36-1.555 74.15-1.921 73.96-2.299C73.07-4.034 72.78-5.776 72.66-7.315C72.54-8.73 72.54-10.413 72.54-12.199L72.54-12.199L72.54-14L31.34-14ZM102.095-54.8002C105.261-54.7928 106.975-54.7221 108.32-54.038C109.64-53.367 110.71-52.296 111.38-50.979C112.14-49.481 112.14-47.521 112.14-43.601L112.14-12.0023C112.139-8.34538 112.114-6.46838 111.38-5.023C110.71-3.706 109.64-2.635 108.32-1.964C106.82-1.201 104.86-1.201 100.94-1.201L89.3414-1.20103C85.6854-1.20191 83.8083-1.22731 82.36-1.964C81.05-2.635 79.97-3.706 79.3-5.023C78.6186-6.36514 78.5481-8.07944 78.5408-11.2454L78.5408-44.7563C78.5481-47.9216 78.6186-49.636 79.3-50.979C79.97-52.296 81.05-53.367 82.36-54.038C83.7048-54.7221 85.4194-54.7928 88.5847-54.8002ZM100.14-42.801L90.54-42.801L90.54-13.201L100.14-13.201L100.14-42.801Z"/>
  </g>
  <g id="Heavy-S" transform="matrix(1 0 0 1 2576.9 696)">
   <path d="M29.34-61L88.54-61L88.54-58.602L97.74-58.602L97.94-58.602C98.14-58.602 98.34-58.602 98.54-58.601L98.54-61C98.54-66.523 94.06-71 88.54-71L29.34-71C23.82-71 19.34-66.523 19.34-61L19.34-13.398L14.94-13.398C11.63-13.398 8.94-10.712 8.94-7.398C8.94-4.085 11.63-1.398 14.94-1.398L72.19-1.398C71.96-1.754 71.75-2.121 71.56-2.5C70.67-4.235 70.38-5.977 70.26-7.515C70.14-8.931 70.14-10.614 70.14-12.4L70.14-12.4L70.14-13.398L29.34-13.398L29.34-61ZM98.8953-52.6012C102.061-52.5938 103.775-52.5231 105.12-51.839C106.44-51.167 107.51-50.097 108.18-48.779C108.94-47.282 108.94-45.322 108.94-41.402L108.94-12.2033C108.939-8.54638 108.914-6.66938 108.18-5.224C107.51-3.906 106.44-2.836 105.12-2.165C103.62-1.402 101.66-1.402 97.74-1.402L86.9414-1.40203C83.2854-1.40291 81.4083-1.42831 79.96-2.165C78.64-2.836 77.57-3.906 76.9-5.224C76.2186-6.56614 76.1481-8.28044 76.1408-11.4464L76.1408-42.5573C76.1481-45.7226 76.2186-47.4369 76.9-48.779C77.57-50.097 78.64-51.167 79.96-51.839C81.3048-52.5231 83.0194-52.5938 86.1847-52.6012ZM98.6625-42.6016L86.4175-42.6016C86.3225-42.6014 86.23-42.6013 86.14-42.601L86.14-11.403L86.14-11.403C86.32-11.4025 86.51-11.4022 86.71-11.4021L98.37-11.4021C98.57-11.4022 98.76-11.4025 98.94-11.403L98.94-42.601L98.94-42.601L98.6625-42.6016L98.6625-42.6016Z"/>
  </g>
  <g id="Bold-S" transform="matrix(1 0 0 1 2282.59 696)">
   <path d="M28.54-61L84.54-61C85.09-61 85.54-60.552 85.54-60L85.54-58.398L92.94-58.398L93.14-58.398C93.62-58.398 94.08-58.399 94.54-58.396L94.54-60C94.54-65.523 90.06-70 84.54-70L28.54-70C23.02-70 18.54-65.523 18.54-60L18.54-14L14.14-14C11.27-14 8.94-11.672 8.94-8.8C8.94-5.928 11.27-3.6 14.14-3.6L18.54-3.6L68.98-3.6C68.76-3.954 68.55-4.32 68.36-4.697C67.47-6.432 67.18-8.174 67.06-9.712C66.95-10.969 66.94-12.436 66.94-14L27.54-14L27.54-60C27.54-60.552 27.99-61 28.54-61ZM94.0953-52.3972C97.2606-52.3898 98.9752-52.3191 100.32-51.635C101.64-50.964 102.71-49.894 103.38-48.576C104.14-47.079 104.14-45.119 104.14-41.198L104.14-14.3994C104.139-10.7434 104.114-8.86638 103.38-7.421C102.71-6.103 101.64-5.033 100.32-4.361C98.82-3.598 96.86-3.598 92.94-3.598L83.7414-3.59803C80.0854-3.59891 78.2083-3.62431 76.76-4.361C75.44-5.033 74.37-6.103 73.7-7.421C73.0186-8.76314 72.9481-10.4774 72.9408-13.6427L72.9408-42.3536C72.9481-45.5196 73.0186-47.2339 73.7-48.576C74.37-49.894 75.44-50.964 76.76-51.635C78.1048-52.3191 79.8194-52.3898 82.9847-52.3972ZM93.9751-43.3974L83.1049-43.3974C82.6798-43.3967 82.2986-43.395 81.95-43.391C81.9443-43.0407 81.9418-42.6601 81.9408-42.235L81.9408-13.7618C81.9418-13.3369 81.9443-12.9563 81.95-12.606C82.4729-12.6 83.0692-12.5984 83.7768-12.5981L92.94-12.598C93.81-12.598 94.52-12.599 95.13-12.606C95.1386-13.1314 95.1398-13.7252 95.14-14.4339L95.14-41.198C95.14-42.072 95.14-42.778 95.13-43.391C94.7814-43.395 94.4002-43.3967 93.9751-43.3974Z"/>
  </g>
  <g id="Semibold-S" transform="matrix(1 0 0 1 1985.88 696)">
   <path d="M28.54-61.5L84.54-61.5C85.37-61.5 86.04-60.828 86.04-60L86.04-58.398L92.94-58.398L93.14-58.398C93.62-58.398 94.08-58.399 94.54-58.396L94.54-60C94.54-65.523 90.06-70 84.54-70L28.54-70C23.02-70 18.54-65.523 18.54-60L18.54-13.199L13.74-13.199C11.09-13.199 8.94-11.05 8.94-8.399C8.94-5.748 11.09-3.599 13.74-3.599L68.99-3.599C68.76-3.953 68.55-4.32 68.36-4.697C67.47-6.432 67.18-8.174 67.06-9.712C66.97-10.752 66.95-11.936 66.94-13.199L27.04-13.199L27.04-60C27.04-60.828 27.71-61.5 28.54-61.5ZM94.0953-52.3972C97.2606-52.3898 98.9752-52.3191 100.32-51.635C101.64-50.964 102.71-49.894 103.38-48.576C104.088-47.1822 104.136-45.3871 104.14-41.9818L104.14-14.0144C104.136-10.6099 104.088-8.81476 103.38-7.421C102.71-6.103 101.64-5.033 100.32-4.361C98.9234-3.65062 97.1282-3.60163 93.7236-3.59825L83.3564-3.59825C79.9518-3.60163 78.1566-3.65062 76.76-4.361C75.44-5.033 74.37-6.103 73.7-7.421C73.0186-8.76314 72.9481-10.4774 72.9408-13.6427L72.9408-42.3536C72.9481-45.5196 73.0186-47.2339 73.7-48.576C74.37-49.894 75.44-50.964 76.76-51.635C78.1048-52.3191 79.8194-52.3898 82.9847-52.3972ZM93.6506-43.8978L83.4294-43.8978C82.7562-43.8974 82.19-43.8955 81.68-43.888C81.6-43.886 81.53-43.885 81.45-43.884L81.45-43.661L81.45-43.661C81.4425-43.1525 81.4406-42.5838 81.4402-41.9094L81.4402-14.0872C81.4406-13.4132 81.4425-12.8445 81.45-12.336L81.45-12.113L81.45-12.113L81.68-12.109L81.68-12.109C82.19-12.1015 82.7562-12.0991 83.4294-12.0983L93.6506-12.0983C94.3238-12.0991 94.89-12.1015 95.4-12.109L95.63-12.113L95.63-12.113L95.63-12.336L95.63-12.336C95.6363-12.7597 95.6386-13.2253 95.6395-13.7588L95.6395-42.238C95.6386-42.7717 95.6363-43.2373 95.63-43.661L95.63-43.884L95.63-43.884C95.55-43.885 95.48-43.886 95.4-43.888C94.89-43.8955 94.3238-43.8974 93.6506-43.8978Z"/>
  </g>
  <g id="Medium-S" transform="matrix(1 0 0 1 1689.17 696)">
   <path d="M28.54-61L84.54-61C85.64-61 86.54-60.105 86.54-59L86.54-57.398L92.94-57.398L93.14-57.398C93.62-57.398 94.08-57.399 94.54-57.396L94.54-59C94.54-64.523 90.06-69 84.54-69L28.54-69C23.02-69 18.54-64.523 18.54-59L18.54-11.398L13.34-11.398C10.91-11.398 8.94-9.428 8.94-6.998C8.94-4.568 10.91-2.598 13.34-2.598L68.99-2.598C68.76-2.953 68.55-3.319 68.36-3.697C67.47-5.432 67.18-7.174 67.06-8.712C66.99-9.529 66.96-10.435 66.95-11.398L26.54-11.398L26.54-59C26.54-60.105 27.44-61 28.54-61ZM94.0953-51.3972C97.2606-51.3898 98.9752-51.3191 100.32-50.635C101.64-49.964 102.71-48.894 103.38-47.576C104.14-46.079 104.14-44.119 104.14-40.198L104.14-13.3994C104.139-9.74338 104.114-7.86638 103.38-6.421C102.71-5.103 101.64-4.033 100.32-3.361C98.82-2.598 96.86-2.598 92.94-2.598L83.7414-2.59803C80.0854-2.59891 78.2083-2.62431 76.76-3.361C75.44-4.033 74.37-5.103 73.7-6.421C73.0186-7.76314 72.9481-9.47744 72.9408-12.6427L72.9408-41.3536C72.9481-44.5196 73.0186-46.2339 73.7-47.576C74.37-48.894 75.44-49.964 76.76-50.635C78.1048-51.3191 79.8194-51.3898 82.9847-51.3972ZM93.8876-43.3973L83.1924-43.3973C82.2221-43.3955 81.5162-43.3895 80.97-43.371C80.9469-42.8202 80.9416-42.115 80.9404-41.1452L80.9404-12.8513C80.9416-11.8819 80.9469-11.1765 80.97-10.625C81.6254-10.6038 82.5108-10.5987 83.8072-10.5981L92.94-10.598C94.42-10.598 95.4-10.602 96.11-10.625C96.1354-11.2317 96.1393-12.0245 96.1399-13.1501L96.1399-40.8462C96.1393-41.9724 96.1354-42.7652 96.11-43.371C95.5638-43.3895 94.8579-43.3955 93.8876-43.3973Z"/>
  </g>
  <g id="Regular-S" transform="matrix(1 0 0 1 1392.46 696)">
   <path d="M28.54-62L84.54-62C86.2-62 87.54-60.657 87.54-59L87.54-57.398L92.94-57.398L93.14-57.398C93.62-57.398 94.08-57.399 94.54-57.396L94.54-59C94.54-64.523 90.06-69 84.54-69L28.54-69C23.02-69 18.54-64.523 18.54-59L18.54-11.398L13.34-11.398C10.91-11.398 8.94-9.428 8.94-6.998C8.94-4.568 10.91-2.598 13.34-2.598L68.99-2.598C68.76-2.953 68.55-3.319 68.36-3.697C67.47-5.432 67.18-7.174 67.06-8.712C66.99-9.529 66.96-10.435 66.95-11.398L25.54-11.398L25.54-59C25.54-60.657 26.88-62 28.54-62ZM94.0953-51.3972C97.2606-51.3898 98.9752-51.3191 100.32-50.635C101.64-49.964 102.71-48.894 103.38-47.576C104.14-46.079 104.14-44.119 104.14-40.198L104.14-13.3994C104.139-9.74338 104.114-7.86638 103.38-6.421C102.71-5.103 101.64-4.033 100.32-3.361C98.82-2.598 96.86-2.598 92.94-2.598L83.7414-2.59803C80.0854-2.59891 78.2083-2.62431 76.76-3.361C75.44-4.033 74.37-5.103 73.7-6.421C73.0186-7.76314 72.9481-9.47744 72.9408-12.6427L72.9408-41.3536C72.9481-44.5196 73.0186-46.2339 73.7-47.576C74.37-48.894 75.44-49.964 76.76-50.635C78.1048-51.3191 79.8194-51.3898 82.9847-51.3972ZM93.9038-44.3973L83.1762-44.3973C81.6919-44.3946 80.7933-44.3818 80.11-44.326C80.08-44.324 80.05-44.321 80.02-44.318C80.02-44.289 80.01-44.258 80.01-44.226C79.9567-43.5007 79.9428-42.5225 79.9404-40.856L79.9404-13.1403C79.9428-11.4745 79.9567-10.4963 80.01-9.771C80.01-9.738 80.02-9.708 80.02-9.679L80.11-9.671L80.11-9.671C80.8844-9.60772 81.9354-9.59885 83.802-9.59807L92.94-9.598C95.02-9.598 96.15-9.604 96.97-9.671L97.06-9.679L97.06-9.679C97.06-9.708 97.07-9.738 97.07-9.771C97.1267-10.5417 97.1387-11.5978 97.1399-13.4608L97.14-40.198C97.14-42.274 97.13-43.41 97.07-44.226C97.07-44.258 97.06-44.289 97.06-44.318C97.03-44.321 97-44.324 96.97-44.326C96.2867-44.3818 95.3881-44.3946 93.9038-44.3973Z"/>
  </g>
  <g id="Light-S" transform="matrix(1 0 0 1 1098.55 696)">
   <path d="M26.54-61L81.74-61C83.4-61 84.74-59.657 84.74-58L84.74-56.801L87.34-56.801L87.54-56.801C88.3-56.801 89.03-56.801 89.74-56.792L89.74-58C89.74-62.418 86.16-66 81.74-66L26.54-66C22.12-66 18.54-62.418 18.54-58L18.54-11.602L12.54-11.602C10.55-11.602 8.94-9.99 8.94-8.002C8.94-6.013 10.55-4.402 12.54-4.402L65.79-4.402C65.56-4.756 65.35-5.122 65.16-5.499C64.27-7.234 63.98-8.976 63.86-10.515C63.83-10.862 63.81-11.225 63.79-11.602L23.54-11.602L23.54-58C23.54-59.657 24.88-61 26.54-61ZM88.4953-50.8002C91.6606-50.7928 93.3752-50.7221 94.72-50.038C96.04-49.367 97.11-48.296 97.78-46.979C98.54-45.481 98.54-43.521 98.54-39.601L98.54-15.2023C98.5391-11.5454 98.5138-9.66838 97.78-8.223C97.11-6.906 96.04-5.835 94.72-5.164C93.22-4.401 91.26-4.401 87.34-4.401L80.5414-4.40103C76.8854-4.40191 75.0083-4.42731 73.56-5.164C72.24-5.835 71.17-6.906 70.5-8.223C69.8186-9.56514 69.7481-11.2794 69.7408-14.4454L69.7408-40.7563C69.7481-43.9216 69.8186-45.636 70.5-46.979C71.17-48.296 72.24-49.367 73.56-50.038C74.9048-50.7221 76.6194-50.7928 79.7847-50.8002ZM88.3471-45.8003L79.9329-45.8003C78.4755-45.7974 77.5076-45.7838 76.75-45.722C76.12-45.67 75.88-45.599 75.83-45.58C75.45-45.389 75.15-45.086 74.96-44.715C74.94-44.663 74.87-44.424 74.82-43.791C74.7541-43.0366 74.7425-42.068 74.7404-40.6091L74.7404-14.5925C74.7425-13.1333 74.7541-12.1652 74.82-11.41C74.87-10.777 74.94-10.539 74.96-10.487C75.15-10.115 75.45-9.813 75.83-9.622C75.88-9.603 76.12-9.531 76.75-9.48C77.6159-9.40941 78.7564-9.40172 80.5883-9.40106L87.34-9.401C89.38-9.401 90.61-9.405 91.53-9.48C92.16-9.531 92.4-9.603 92.45-9.622C92.83-9.813 93.13-10.115 93.32-10.487C93.34-10.539 93.41-10.777 93.46-11.41C93.5306-12.2191 93.5389-13.2727 93.5399-14.9128L93.5399-40.2889C93.5389-41.9285 93.5306-42.9828 93.46-43.791C93.41-44.424 93.34-44.663 93.32-44.715C93.13-45.086 92.83-45.389 92.45-45.58C92.4-45.599 92.16-45.67 91.53-45.722C90.7724-45.7838 89.8045-45.7974 88.3471-45.8003Z"/>
  </g>
  <g id="Thin-S" transform="matrix(1 0 0 1 802.237 696)">
   <path d="M25.74-62.75L80.94-62.75C83.563-62.75 85.69-60.623 85.69-58L85.69-57.602L86.54-57.602L86.742-57.602C87.497-57.602 88.234-57.602 88.94-57.593L88.94-58C88.94-62.418 85.358-66 80.94-66L25.74-66C21.322-66 17.74-62.418 17.74-58L17.74-11.602L11.74-11.602C10.194-11.602 8.94-10.348 8.94-8.802C8.94-7.255 10.194-6.002 11.74-6.002L17.74-6.002L17.74-6L64.515-6C64.461-6.099 64.408-6.199 64.357-6.3C63.473-8.035 63.181-9.777 63.055-11.315C63.048-11.41 63.04-11.505 63.034-11.602L20.99-11.602L20.99-58C20.99-60.623 23.116-62.75 25.74-62.75ZM87.6953-51.6012C90.8608-51.5938 92.5759-51.5231 93.918-50.839C95.235-50.167 96.306-49.097 96.977-47.779C97.74-46.282 97.74-44.322 97.74-40.402L97.74-16.0033C97.7391-12.3464 97.7137-10.4694 96.977-9.024C96.306-7.706 95.235-6.636 93.918-5.965C92.421-5.202 90.46-5.202 86.54-5.202L79.7414-5.20203C76.0853-5.20291 74.2074-5.22831 72.762-5.965C71.445-6.636 70.374-7.706 69.703-9.024C69.0189-10.3661 68.9482-12.0804 68.9408-15.2464L68.9408-41.5573C68.9482-44.7226 69.0189-46.4369 69.703-47.779C70.374-49.097 71.445-50.167 72.762-50.839C74.1041-51.5231 75.8192-51.5938 78.9847-51.6012ZM87.6017-48.3512L79.0783-48.3512C77.6438-48.3481 76.6227-48.3336 75.807-48.267C74.841-48.188 74.452-48.052 74.238-47.943C73.532-47.583 72.958-47.01 72.599-46.304C72.49-46.09 72.354-45.701 72.275-44.734C72.2084-43.9182 72.1939-42.8972 72.1908-41.4632L72.1908-15.3403C72.1939-13.9058 72.2084-12.8847 72.275-12.069C72.354-11.102 72.49-10.713 72.599-10.499C72.958-9.793 73.532-9.22 74.238-8.86C74.452-8.751 74.841-8.615 75.807-8.536C76.7483-8.45912 77.9628-8.45256 79.7705-8.45204L86.54-8.452C88.554-8.452 89.869-8.454 90.873-8.536C91.839-8.615 92.228-8.751 92.442-8.86C93.148-9.22 93.722-9.793 94.081-10.499C94.19-10.713 94.326-11.102 94.405-12.069C94.4819-13.0103 94.4893-14.2248 94.4899-16.0325L94.49-40.402C94.49-42.415 94.487-43.73 94.405-44.734C94.326-45.701 94.19-46.09 94.081-46.304C93.722-47.01 93.148-47.583 92.442-47.943C92.228-48.052 91.839-48.188 90.873-48.267C90.0573-48.3336 89.0362-48.3481 87.6017-48.3512Z"/>
  </g>
  <g id="Ultralight-S" transform="matrix(1 0 0 1 505.526 696)">
   <path d="M25.74-63L80.94-63C83.843-63 86.264-60.938 86.82-58.199C87.517-58.199 88.197-58.199 88.852-58.192C88.276-62.045 84.953-65 80.94-65L25.74-65C21.322-65 17.74-61.418 17.74-57L17.74-11.398L11.34-11.398C10.015-11.398 8.94-10.324 8.94-8.998C8.94-7.673 10.015-6.598 11.34-6.598L64.514-6.598C64.461-6.697 64.408-6.797 64.357-6.897C63.57-8.442 63.252-9.992 63.103-11.398L19.74-11.398L19.74-57C19.74-60.314 22.426-63 25.74-63ZM87.6953-52.1982C90.8608-52.1908 92.5759-52.1201 93.918-51.436C95.235-50.765 96.306-49.694 96.977-48.377C97.74-46.88 97.74-44.92 97.74-40.999L97.74-16.6004C97.7391-12.9444 97.7137-11.0673 96.977-9.621C96.306-8.304 95.235-7.233 93.918-6.562C92.421-5.799 90.46-5.799 86.54-5.799L79.7414-5.79903C76.0853-5.79991 74.2074-5.82531 72.762-6.562C71.445-7.233 70.374-8.304 69.703-9.621C69.0189-10.964 68.9482-12.6784 68.9408-15.8437L68.9408-42.1546C68.9482-45.3206 69.0189-47.0349 69.703-48.377C70.374-49.694 71.445-50.765 72.762-51.436C74.1041-52.1201 75.8192-52.1908 78.9847-52.1982ZM87.6641-50.1982L79.0159-50.1982C77.6093-50.1951 76.5586-50.1804 75.705-50.11C74.662-50.025 74.09-49.868 73.67-49.654C72.729-49.175 71.964-48.41 71.485-47.469C71.271-47.049 71.114-46.478 71.029-45.434C70.9536-44.5093 70.942-43.3532 70.9403-41.764L70.9403-16.234C70.942-14.6448 70.9536-13.4887 71.029-12.564C71.114-11.521 71.271-10.949 71.485-10.529C71.964-9.588 72.729-8.824 73.67-8.344C74.09-8.13 74.662-7.973 75.705-7.888C76.7009-7.8068 77.965-7.79964 79.7495-7.79905L86.54-7.799C88.533-7.799 89.908-7.801 90.975-7.888C92.018-7.973 92.59-8.13 93.01-8.344C93.951-8.824 94.716-9.588 95.195-10.529C95.409-10.949 95.566-11.521 95.651-12.564C95.7322-13.5599 95.7394-14.824 95.7399-16.6085L95.74-40.999C95.74-42.992 95.738-44.367 95.651-45.434C95.566-46.478 95.409-47.049 95.195-47.469C94.716-48.41 93.951-49.175 93.01-49.654C92.59-49.868 92.018-50.025 90.975-50.11C90.1214-50.1804 89.0707-50.1951 87.6641-50.1982Z"/>
  </g>
 </g>
</svg>
