<svg width="76px" height="57px" viewBox="0 0 76 57" version="1.1" xmlns="http://www.w3.org/2000/svg" xmlns:xlink="http://www.w3.org/1999/xlink">
  <g fill-rule="evenodd" fill="#FDD663">
    <circle cx="14" cy="13" r="2"></circle>
    <circle cx="14" cy="2" r="2"></circle>
    <circle cx="14" cy="23" r="2"></circle>
    <circle cx="14" cy="34" r="2"></circle>
    <circle cx="14" cy="45" r="2"></circle>
    <circle cx="14" cy="55" r="2"></circle>
    <circle cx="2" cy="13" r="2"></circle>
    <circle cx="2" cy="2" r="2"></circle>
    <circle cx="2" cy="23" r="2"></circle>
    <circle cx="2" cy="34" r="2"></circle>
    <circle cx="2" cy="45" r="2"></circle>
    <circle cx="2" cy="55" r="2"></circle>
    <circle cx="26" cy="13" r="2"></circle>
    <circle cx="26" cy="2" r="2"></circle>
    <circle cx="26" cy="23" r="2"></circle>
    <circle cx="26" cy="34" r="2"></circle>
    <circle cx="26" cy="45" r="2"></circle>
    <circle cx="26" cy="55" r="2"></circle>
    <circle cx="38" cy="13" r="2"></circle>
    <circle cx="38" cy="2" r="2"></circle>
    <circle cx="38" cy="23" r="2"></circle>
    <circle cx="38" cy="34" r="2"></circle>
    <circle cx="38" cy="45" r="2"></circle>
    <circle cx="38" cy="55" r="2"></circle>
    <circle cx="50" cy="13" r="2"></circle>
    <circle cx="50" cy="2" r="2"></circle>
    <circle cx="50" cy="23" r="2"></circle>
    <circle cx="50" cy="34" r="2"></circle>
    <circle cx="50" cy="45" r="2"></circle>
    <circle cx="50" cy="55" r="2"></circle>
    <circle cx="62" cy="13" r="2"></circle>
    <circle cx="62" cy="2" r="2"></circle>
    <circle cx="62" cy="23" r="2"></circle>
    <circle cx="62" cy="34" r="2"></circle>
    <circle cx="62" cy="45" r="2"></circle>
    <circle cx="62" cy="55" r="2"></circle>
    <circle cx="74" cy="13" r="2"></circle>
    <circle cx="74" cy="2" r="2"></circle>
    <circle cx="74" cy="23" r="2"></circle>
    <circle cx="74" cy="34" r="2"></circle>
    <circle cx="74" cy="45" r="2"></circle>
    <circle cx="74" cy="55" r="2"></circle>
  </g>
</svg>