<svg xmlns="http://www.w3.org/2000/svg" xmlns:xlink="http://www.w3.org/1999/xlink" width="264" height="264">
  <defs>
    <path id="a" d="M0 0h228v228H0z"/>
  </defs>
  <g fill="none" fill-rule="evenodd">
    <g transform="translate(18 18)">
      <mask id="b" fill="#fff">
        <use xlink:href="#a"/>
      </mask>
      <path fill="#DADCE0" d="M114 0C51.04 0 0 51.04 0 114s51.04 114 114 114 114-51.04 114-114S176.96 0 114 0m0 4c29.382 0 57.005 11.442 77.781 32.218 20.777 20.777 32.22 48.4 32.22 77.782 0 29.382-11.443 57.005-32.22 77.782C171.005 212.558 143.382 224 114.001 224c-29.384 0-57.007-11.442-77.783-32.218C15.441 171.005 4 143.382 4 114c0-29.382 11.441-57.005 32.218-77.782C56.994 15.442 84.618 4 114 4" mask="url(#b)"/>
    </g>
    <path fill="#D2E3FC" d="M171.62 108H93.38C85.99 108 80 114.005 80 121.412v58.177C80 186.996 85.99 193 93.38 193h78.24c7.39 0 13.38-6.004 13.38-13.41v-58.178c0-7.407-5.99-13.412-13.38-13.412m0 8.031c2.96 0 5.367 2.414 5.367 5.38v58.178c0 2.967-2.408 5.38-5.367 5.38H93.38c-2.96 0-5.367-2.413-5.367-5.38v-58.177c0-2.967 2.408-5.38 5.367-5.38h78.24"/>
    <path stroke="#4285F4" stroke-width="4" d="M88.826 193h87.348c4.875 0 8.826-3.961 8.826-8.847v-67.306c0-4.887-3.951-8.847-8.826-8.847H88.826c-4.874 0-8.826 3.96-8.826 8.847v67.306c0 4.886 3.952 8.847 8.826 8.847z"/>
    <path stroke="#34A853" stroke-width="4" d="M123 55c-8.815 3.705-15 12.38-15 22.49V91"/>
    <path stroke="#FBBC05" stroke-width="4" d="M153 64c-4.331-6.616-11.902-11-20.518-11-3.364 0-6.568.668-9.482 1.876"/>
    <path stroke="#EA4335" stroke-width="4" d="M157 94V77.964c0-4.774-1.47-9.224-4-12.964"/>
    <path stroke="#4285F4" stroke-width="4" d="M157 107V93"/>
    <path stroke="#34A853" stroke-width="4" d="M120 151.996l9.002 9.004L149 141"/>
    <path d="M0 0h264v264H0z"/>
  </g>
</svg>
