<svg xmlns="http://www.w3.org/2000/svg" height="24" viewBox="0 0 192 192" width="24"><path fill="none" d="M0 0h192v192H0z"/><path fill="#FFF" d="m136 56-36-4-44 4-4 40 4 40 40 5 40-5 4-41z"/><path d="M72.41 118.06c-2.99-2.02-5.06-4.97-6.19-8.87l6.94-2.86c.63 2.4 1.73 4.26 3.3 5.58 1.56 1.32 3.46 1.97 5.68 1.97 2.27 0 4.22-.69 5.85-2.07s2.45-3.14 2.45-5.27c0-2.18-.86-3.96-2.58-5.34s-3.88-2.07-6.46-2.07h-4.01v-6.87h3.6c2.22 0 4.09-.6 5.61-1.8 1.52-1.2 2.28-2.84 2.28-4.93 0-1.86-.68-3.34-2.04-4.45-1.36-1.11-3.08-1.67-5.17-1.67-2.04 0-3.66.54-4.86 1.63s-2.07 2.43-2.62 4.01l-6.87-2.86c.91-2.58 2.58-4.86 5.03-6.83 2.45-1.97 5.58-2.96 9.38-2.96 2.81 0 5.34.54 7.58 1.63 2.24 1.09 4 2.6 5.27 4.52 1.27 1.93 1.9 4.09 1.9 6.49 0 2.45-.59 4.52-1.77 6.22-1.18 1.7-2.63 3-4.35 3.91v.41c2.27.95 4.12 2.4 5.58 4.35 1.45 1.95 2.18 4.28 2.18 7 0 2.72-.69 5.15-2.07 7.28s-3.29 3.81-5.71 5.03c-2.43 1.22-5.16 1.84-8.19 1.84-3.51.01-6.75-1-9.74-3.02zM115 83.62l-7.58 5.51-3.81-5.78 13.67-9.86h5.24V120H115V83.62z" fill="#1A73E8"/><path fill="#EA4335" d="m136 172 36-36-18-8-18 8-8 18z"/><path fill="#34A853" d="m48 154 8 18h80v-36H56z"/><path d="M32 20c-6.63 0-12 5.37-12 12v104l18 8 18-8V56h80l8-18-8-18H32z" fill="#4285F4"/><path d="M20 136v24c0 6.63 5.37 12 12 12h24v-36H20z" fill="#188038"/><path fill="#FBBC04" d="M136 56v80h36V56l-18-8z"/><path d="M172 56V32c0-6.63-5.37-12-12-12h-24v36h36z" fill="#1967D2"/></svg>