<svg xmlns="http://www.w3.org/2000/svg" width="16" height="16" fill="none" viewBox="0 0 16 16"><g fill="#000" clip-path="url(#a)"><path d="M10.75 9c-.83 0-1.55.46-1.94 1.13-.26-.08-.53-.13-.81-.13s-.55.05-.81.13A2.249 2.249 0 0 0 5.25 9C4.01 9 3 10.01 3 11.25s1.01 2.25 2.25 2.25c1.12 0 2.04-.82 2.21-1.89.17-.07.35-.11.54-.11.19 0 .37.05.54.11.17 1.07 1.1 1.89 2.21 1.89 1.24 0 2.25-1.01 2.25-2.25S11.99 9 10.75 9Zm-5.5 3c-.41 0-.75-.34-.75-.75s.34-.75.75-.75.75.34.75.75-.34.75-.75.75Zm5.5 0c-.41 0-.75-.34-.75-.75s.34-.75.75-.75.75.34.75.75-.34.75-.75.75Zm.87-5.5-1.41-4a.763.763 0 0 0-.43-.45.787.787 0 0 0-.62.02L8 2.65l-1.16-.58a.764.764 0 0 0-1.05.43l-1.41 4H2V8h12V6.5h-2.38Zm-5.65 0 .95-2.7.74.37c.21.11.46.11.67 0l.74-.37.95 2.7H5.97Z"/></g><defs><clipPath id="a"><path fill="#fff" d="M0 0h16v16H0z"/></clipPath></defs></svg>