<svg width="3300" height="2200" viewBox="0 0 3300 2200" fill="none" xmlns="http://www.w3.org/2000/svg">
<g id="location.fill.cr" clip-path="url(#clip0_1121_4154)">
<g id="Notes">
<path id="artboard" d="M3300 0H0V2200H3300V0Z" fill="white"/>
<path id="Vector" d="M263 292H3036" stroke="black" stroke-width="0.5"/>
<text id="Weight/Scale Variations" fill="black" xml:space="preserve" style="white-space: pre" font-family="Inter" font-size="13" font-weight="bold" letter-spacing="0em"><tspan x="263" y="321.727">Weight/Scale Variations</tspan></text>
<text id="Ultralight" fill="black" xml:space="preserve" style="white-space: pre" font-family="Inter" font-size="13" letter-spacing="0em"><tspan x="532.161" y="321.727">Ultralight</tspan></text>
<text id="Thin" fill="black" xml:space="preserve" style="white-space: pre" font-family="Inter" font-size="13" letter-spacing="0em"><tspan x="843.566" y="321.727">Thin</tspan></text>
<text id="Light" fill="black" xml:space="preserve" style="white-space: pre" font-family="Inter" font-size="13" letter-spacing="0em"><tspan x="1138.27" y="321.727">Light</tspan></text>
<text id="Regular" fill="black" xml:space="preserve" style="white-space: pre" font-family="Inter" font-size="13" letter-spacing="0em"><tspan x="1427.08" y="321.727">Regular</tspan></text>
<text id="Medium" fill="black" xml:space="preserve" style="white-space: pre" font-family="Inter" font-size="13" letter-spacing="0em"><tspan x="1721.99" y="321.727">Medium</tspan></text>
<text id="Semibold" fill="black" xml:space="preserve" style="white-space: pre" font-family="Inter" font-size="13" letter-spacing="0em"><tspan x="2014.65" y="321.727">Semibold</tspan></text>
<text id="Bold" fill="black" xml:space="preserve" style="white-space: pre" font-family="Inter" font-size="13" letter-spacing="0em"><tspan x="2326.29" y="321.727">Bold</tspan></text>
<text id="Heavy" fill="black" xml:space="preserve" style="white-space: pre" font-family="Inter" font-size="13" letter-spacing="0em"><tspan x="2617.82" y="321.727">Heavy</tspan></text>
<text id="Black" fill="black" xml:space="preserve" style="white-space: pre" font-family="Inter" font-size="13" letter-spacing="0em"><tspan x="2916.8" y="321.727">Black</tspan></text>
<path id="Vector_2" d="M263 1903H3036" stroke="black" stroke-width="0.5"/>
<g id="Group">
<path id="Vector_3" d="M272.248 1933.83C276.555 1933.83 280.139 1930.26 280.139 1925.95C280.139 1921.64 276.545 1918.07 272.238 1918.07C267.941 1918.07 264.367 1921.64 264.367 1925.95C264.367 1930.26 267.951 1933.83 272.248 1933.83ZM272.248 1932.35C268.703 1932.35 265.871 1929.51 265.871 1925.95C265.871 1922.4 268.693 1919.55 272.238 1919.55C275.793 1919.55 278.644 1922.4 278.644 1925.95C278.644 1929.51 275.803 1932.35 272.248 1932.35ZM268.654 1925.95C268.654 1926.38 268.957 1926.67 269.406 1926.67H271.506V1928.79C271.506 1929.23 271.799 1929.54 272.229 1929.54C272.678 1929.54 272.971 1929.23 272.971 1928.79V1926.67H275.09C275.529 1926.67 275.832 1926.38 275.832 1925.95C275.832 1925.51 275.529 1925.21 275.09 1925.21H272.971V1923.1C272.971 1922.65 272.678 1922.35 272.229 1922.35C271.799 1922.35 271.506 1922.65 271.506 1923.1V1925.21H269.406C268.957 1925.21 268.654 1925.51 268.654 1925.95Z" fill="black"/>
</g>
<g id="Group_2">
<path id="Vector_4" d="M293.576 1935.91C299.025 1935.91 303.537 1931.38 303.537 1925.95C303.537 1920.5 299.016 1915.98 293.566 1915.98C288.127 1915.98 283.615 1920.5 283.615 1925.95C283.615 1931.38 288.137 1935.91 293.576 1935.91ZM293.576 1934.25C288.967 1934.25 285.285 1930.55 285.285 1925.95C285.285 1921.34 288.957 1917.64 293.566 1917.64C298.176 1917.64 301.877 1921.34 301.877 1925.95C301.877 1930.55 298.186 1934.25 293.576 1934.25ZM289.045 1925.95C289.045 1926.42 289.377 1926.75 289.875 1926.75H292.746V1929.63C292.746 1930.12 293.078 1930.46 293.557 1930.46C294.045 1930.46 294.387 1930.12 294.387 1929.63V1926.75H297.268C297.756 1926.75 298.098 1926.42 298.098 1925.95C298.098 1925.46 297.756 1925.12 297.268 1925.12H294.387V1922.24C294.387 1921.75 294.045 1921.4 293.557 1921.4C293.078 1921.4 292.746 1921.75 292.746 1922.24V1925.12H289.875C289.377 1925.12 289.045 1925.46 289.045 1925.95Z" fill="black"/>
</g>
<g id="Group_3">
<path id="Vector_5" d="M320.617 1938.67C327.58 1938.67 333.341 1932.9 333.341 1925.95C333.341 1918.99 327.57 1913.23 320.607 1913.23C313.654 1913.23 307.902 1918.99 307.902 1925.95C307.902 1932.9 313.664 1938.67 320.617 1938.67ZM320.617 1936.85C314.582 1936.85 309.728 1931.99 309.728 1925.95C309.728 1919.91 314.572 1915.05 320.607 1915.05C326.652 1915.05 331.515 1919.91 331.515 1925.95C331.515 1931.99 326.662 1936.85 320.617 1936.85ZM314.845 1925.95C314.845 1926.47 315.216 1926.83 315.763 1926.83H319.708V1930.79C319.708 1931.32 320.08 1931.7 320.597 1931.7C321.134 1931.7 321.505 1931.33 321.505 1930.79V1926.83H325.46C325.998 1926.83 326.378 1926.47 326.378 1925.95C326.378 1925.4 326.007 1925.03 325.46 1925.03H321.505V1921.09C321.505 1920.54 321.134 1920.16 320.597 1920.16C320.08 1920.16 319.708 1920.54 319.708 1921.09V1925.03H315.763C315.216 1925.03 314.845 1925.4 314.845 1925.95Z" fill="black"/>
</g>
<text id="Design Variations" fill="black" xml:space="preserve" style="white-space: pre" font-family="Inter" font-size="13" font-weight="bold" letter-spacing="0em"><tspan x="263" y="1952.73">Design Variations</tspan></text>
<text id="Symbols are supported in up to nine weights and three scales." fill="black" xml:space="preserve" style="white-space: pre" font-family="Inter" font-size="13" letter-spacing="0em"><tspan x="263" y="1970.73">Symbols are supported in up to nine weights and three scales.</tspan></text>
<text id="For optimal layout with text and other symbols, vertically align" fill="black" xml:space="preserve" style="white-space: pre" font-family="Inter" font-size="13" letter-spacing="0em"><tspan x="263" y="1988.73">For optimal layout with text and other symbols, vertically align</tspan></text>
<text id="symbols with the adjacent text." fill="black" xml:space="preserve" style="white-space: pre" font-family="Inter" font-size="13" letter-spacing="0em"><tspan x="263" y="2006.73">symbols with the adjacent text.</tspan></text>
<path id="Vector_6" d="M776 1919V1933" stroke="#00AEEF" stroke-width="0.5"/>
<g id="Group_4">
<path id="Vector_7" d="M779.311 1933.16C779.828 1933.16 780.082 1932.96 780.268 1932.42L781.527 1928.97H787.289L788.549 1932.42C788.734 1932.96 788.988 1933.16 789.496 1933.16C790.014 1933.16 790.346 1932.85 790.346 1932.36C790.346 1932.19 790.316 1932.04 790.238 1931.83L785.658 1919.63C785.434 1919.04 785.033 1918.73 784.408 1918.73C783.803 1918.73 783.393 1919.03 783.178 1919.62L778.598 1931.84C778.52 1932.04 778.49 1932.2 778.49 1932.37C778.49 1932.86 778.803 1933.16 779.311 1933.16ZM782.006 1927.48L784.379 1920.91H784.428L786.801 1927.48H782.006Z" fill="black"/>
</g>
<path id="Vector_8" d="M793.197 1919V1933" stroke="#00AEEF" stroke-width="0.5"/>
<text id="Margins" fill="black" xml:space="preserve" style="white-space: pre" font-family="Inter" font-size="13" font-weight="bold" letter-spacing="0em"><tspan x="776" y="1952.73">Margins</tspan></text>
<text id="Leading and trailing margins on the left and right side of each symbol" fill="black" xml:space="preserve" style="white-space: pre" font-family="Inter" font-size="13" letter-spacing="0em"><tspan x="776" y="1970.73">Leading and trailing margins on the left and right side of each symbol</tspan></text>
<text id="can be adjusted by modifying the x-location of the margin guidelines." fill="black" xml:space="preserve" style="white-space: pre" font-family="Inter" font-size="13" letter-spacing="0em"><tspan x="776" y="1988.73">can be adjusted by modifying the x-location of the margin guidelines.</tspan></text>
<text id="Modifications are automatically applied proportionally to all" fill="black" xml:space="preserve" style="white-space: pre" font-family="Inter" font-size="13" letter-spacing="0em"><tspan x="776" y="2006.73">Modifications are automatically applied proportionally to all</tspan></text>
<text id="scales and weights." fill="black" xml:space="preserve" style="white-space: pre" font-family="Inter" font-size="13" letter-spacing="0em"><tspan x="776" y="2024.73">scales and weights.</tspan></text>
<g id="Group_5">
<path id="Vector_9" d="M1291.84 1934.86L1293.54 1936.57C1294.4 1937.44 1295.39 1937.38 1296.31 1936.36L1307.01 1924.57L1306.04 1923.59L1295.43 1935.27C1295.07 1935.67 1294.74 1935.77 1294.27 1935.3L1293.1 1934.14C1292.63 1933.68 1292.74 1933.34 1293.14 1932.98L1304.62 1922.18L1303.64 1921.21L1292.05 1932.1C1291.06 1933.02 1290.98 1933.99 1291.84 1934.86ZM1298.26 1916.67C1297.84 1917.08 1297.81 1917.66 1298.04 1918.05C1298.28 1918.41 1298.74 1918.64 1299.38 1918.48C1300.85 1918.13 1302.37 1918.08 1303.79 1919.01L1303.21 1920.47C1302.87 1921.3 1303.04 1921.88 1303.58 1922.43L1305.87 1924.75C1306.36 1925.23 1306.77 1925.25 1307.34 1925.16L1308.4 1924.96L1309.07 1925.63L1309.03 1926.19C1308.99 1926.69 1309.12 1927.07 1309.61 1927.55L1310.37 1928.29C1310.85 1928.77 1311.46 1928.8 1311.93 1928.33L1314.84 1925.41C1315.31 1924.94 1315.29 1924.35 1314.81 1923.87L1314.04 1923.11C1313.56 1922.63 1313.19 1922.47 1312.71 1922.51L1312.13 1922.56L1311.49 1921.92L1311.73 1920.8C1311.86 1920.23 1311.71 1919.8 1311.12 1919.21L1308.92 1917.02C1305.58 1913.7 1301.15 1913.78 1298.26 1916.67ZM1299.75 1917.04C1302.18 1915.26 1305.47 1915.57 1307.7 1917.79L1310.13 1920.21C1310.37 1920.44 1310.41 1920.63 1310.34 1920.97L1310.02 1922.45L1311.52 1923.94L1312.51 1923.88C1312.76 1923.87 1312.84 1923.89 1313.03 1924.08L1313.61 1924.66L1311.17 1927.1L1310.59 1926.52C1310.4 1926.33 1310.37 1926.25 1310.38 1925.99L1310.45 1925.01L1308.95 1923.53L1307.43 1923.78C1307.11 1923.85 1306.96 1923.82 1306.71 1923.58L1304.71 1921.58C1304.46 1921.35 1304.43 1921.18 1304.59 1920.81L1305.46 1918.72C1303.9 1917.27 1301.87 1916.64 1299.84 1917.24C1299.68 1917.28 1299.62 1917.15 1299.75 1917.04Z" fill="black"/>
</g>
<text id="Exporting" fill="black" xml:space="preserve" style="white-space: pre" font-family="Inter" font-size="13" font-weight="bold" letter-spacing="0em"><tspan x="1289" y="1952.73">Exporting</tspan></text>
<text id="Symbols should be outlined when exporting to ensure the" fill="black" xml:space="preserve" style="white-space: pre" font-family="Inter" font-size="13" letter-spacing="0em"><tspan x="1289" y="1970.73">Symbols should be outlined when exporting to ensure the</tspan></text>
<text id="design is preserved when submitting to Xcode." fill="black" xml:space="preserve" style="white-space: pre" font-family="Inter" font-size="13" letter-spacing="0em"><tspan x="1289" y="1988.73">design is preserved when submitting to Xcode.</tspan></text>
<text id="template-version" fill="black" xml:space="preserve" style="white-space: pre" font-family="Inter" font-size="13" letter-spacing="0em"><tspan x="2946" y="1932.73">Template v.2.0</tspan></text>
<text id="Requires Xcode 12 or greater" fill="black" xml:space="preserve" style="white-space: pre" font-family="Inter" font-size="13" letter-spacing="0em"><tspan x="2858.41" y="1950.73">Requires Xcode 12 or greater</tspan></text>
<text id="descriptive-name" fill="black" xml:space="preserve" style="white-space: pre" font-family="Inter" font-size="13" letter-spacing="0em"><tspan x="2871.2" y="1968.73">Generated from location.cr</tspan></text>
<text id="Typeset at 100 points" fill="black" xml:space="preserve" style="white-space: pre" font-family="Inter" font-size="13" letter-spacing="0em"><tspan x="2903.6" y="1986.73">Typeset at 100 points</tspan></text>
<text id="Small" fill="black" xml:space="preserve" style="white-space: pre" font-family="Inter" font-size="13" letter-spacing="0em"><tspan x="263" y="725.727">Small</tspan></text>
<text id="Medium_2" fill="black" xml:space="preserve" style="white-space: pre" font-family="Inter" font-size="13" letter-spacing="0em"><tspan x="263" y="1155.73">Medium</tspan></text>
<text id="Large" fill="black" xml:space="preserve" style="white-space: pre" font-family="Inter" font-size="13" letter-spacing="0em"><tspan x="263" y="1585.73">Large</tspan></text>
</g>
<g id="Guides">
<g id="H-reference">
<path id="Vector_10" d="M339.994 695.998H342.638L368.328 628.866H369.03V625.539H367.123L339.994 695.998ZM350.688 671.518H385.981L385.231 669.27H351.438L350.688 671.518ZM394.12 695.998H396.764L369.638 625.539H368.433V628.866L394.12 695.998Z" fill="#27AAE1"/>
</g>
<path id="Baseline-S" d="M263 696H3036" stroke="#27AAE1" stroke-width="0.5"/>
<path id="Capline-S" d="M263 625.539H3036" stroke="#27AAE1" stroke-width="0.5"/>
<g id="H-reference_2">
<path id="Vector_11" d="M339.994 1126H342.638L368.328 1058.87H369.03V1055.54H367.123L339.994 1126ZM350.688 1101.52H385.981L385.231 1099.27H351.438L350.688 1101.52ZM394.12 1126H396.764L369.638 1055.54H368.433V1058.87L394.12 1126Z" fill="#27AAE1"/>
</g>
<path id="Baseline-M" d="M263 1126H3036" stroke="#27AAE1" stroke-width="0.5"/>
<path id="Capline-M" d="M263 1055.54H3036" stroke="#27AAE1" stroke-width="0.5"/>
<g id="H-reference_3">
<path id="Vector_12" d="M339.994 1556H342.638L368.328 1488.87H369.03V1485.54H367.123L339.994 1556ZM350.688 1531.52H385.981L385.231 1529.27H351.438L350.688 1531.52ZM394.12 1556H396.764L369.638 1485.54H368.433V1488.87L394.12 1556Z" fill="#27AAE1"/>
</g>
<path id="Baseline-L" d="M263 1556H3036" stroke="#27AAE1" stroke-width="0.5"/>
<path id="Capline-L" d="M263 1485.54H3036" stroke="#27AAE1" stroke-width="0.5"/>
<path id="left-margin" d="M1395.73 1030.79V1150.12" stroke="#00AEEF" stroke-width="0.5"/>
<path id="right-margin" d="M1503.96 1030.79V1150.12" stroke="#00AEEF" stroke-width="0.5"/>
</g>
<g id="Symbols">
<g id="Black-L">
<path id="Subtract" fill-rule="evenodd" clip-rule="evenodd" d="M2933.41 1442C2947.94 1442 2960.14 1447.02 2970.23 1457.12C2980.32 1467.2 2985.34 1479.4 2985.34 1493.93C2985.34 1505.55 2983.14 1514.91 2978.98 1522.21C2974.75 1529.63 2969.91 1536.97 2964.45 1544.23L2963.41 1545.6L2963.4 1545.62L2962.27 1547.13C2955.61 1556.08 2950.48 1563.65 2946.91 1569.8C2943.55 1575.61 2941.5 1581.7 2939.35 1588.09C2939.08 1588.89 2938.82 1589.68 2938.54 1590.49C2938.1 1591.72 2937.51 1592.44 2936.86 1592.9C2936.11 1593.44 2934.33 1593.69 2933.41 1593.69C2932.33 1593.69 2930.61 1593.4 2930.03 1592.94C2929.29 1592.35 2928.69 1591.55 2928.25 1590.44L2926.66 1585.73C2924.65 1579.83 2922.59 1574.22 2919.5 1568.91L2918.42 1567.22C2912.86 1558.62 2907.98 1551.58 2903.78 1546.1L2903.38 1545.57C2896.71 1536.95 2891.36 1528.77 2887.3 1521.04C2883.47 1513.74 2881.47 1504.75 2881.47 1493.93C2881.47 1479.4 2886.49 1467.2 2896.58 1457.12C2906.67 1447.02 2918.87 1442 2933.41 1442ZM2933.65 1476C2923.61 1476 2915.47 1484.14 2915.47 1494.18C2915.47 1504.22 2923.61 1512.36 2933.65 1512.36C2943.69 1512.36 2951.83 1504.22 2951.83 1494.18C2951.83 1484.14 2943.69 1476 2933.65 1476Z" fill="black"/>
</g>
<g id="Heavy-L">
<path id="Subtract_2" fill-rule="evenodd" clip-rule="evenodd" d="M2636.69 1444C2650.81 1444 2662.65 1448.87 2672.44 1458.67C2682.24 1468.46 2687.11 1480.31 2687.11 1494.42C2687.11 1505.7 2684.98 1514.79 2680.94 1521.87C2676.57 1529.52 2671.54 1537.1 2665.83 1544.57L2665.81 1544.6L2664.69 1546.1C2658.23 1554.78 2653.26 1562.11 2649.81 1568.08C2646.14 1574.41 2643.11 1581.11 2640.71 1588.16C2640.28 1589.36 2639.71 1590.06 2639.07 1590.51C2638.35 1591.03 2637.59 1591.27 2636.69 1591.27C2635.65 1591.27 2634.95 1590.99 2634.38 1590.54C2633.67 1589.97 2633.09 1589.19 2632.66 1588.12C2630.14 1580.7 2626.98 1573.73 2623.2 1567.21C2619.53 1560.91 2614.51 1553.63 2608.18 1545.38L2607.54 1544.56C2601.07 1536.19 2595.87 1528.24 2591.93 1520.74C2588.22 1513.65 2586.27 1504.93 2586.27 1494.42C2586.27 1480.31 2591.14 1468.46 2600.94 1458.67C2610.74 1448.87 2622.58 1444 2636.69 1444ZM2636.37 1476C2626.37 1476 2618.27 1484.1 2618.27 1494.09C2618.27 1504.09 2626.37 1512.19 2636.37 1512.19C2646.36 1512.19 2654.46 1504.09 2654.46 1494.09C2654.46 1484.1 2646.36 1476 2636.37 1476Z" fill="black"/>
</g>
<g id="Bold-L">
<path id="Subtract_3" fill-rule="evenodd" clip-rule="evenodd" d="M2339.98 1445.98C2353.65 1445.98 2365.11 1450.69 2374.59 1460.18C2384.08 1469.66 2388.8 1481.13 2388.8 1494.79C2388.8 1505.71 2386.73 1514.51 2382.81 1521.36C2378.84 1528.33 2374.29 1535.24 2369.16 1542.06L2368.18 1543.35L2368.17 1543.37L2367.06 1544.86C2360.82 1553.25 2356.02 1560.33 2352.68 1566.09C2349.13 1572.23 2346.19 1578.71 2343.87 1585.54C2343.46 1586.69 2342.9 1587.37 2342.29 1587.81C2341.59 1588.32 2340.86 1588.55 2339.98 1588.55C2338.98 1588.55 2338.29 1588.27 2337.75 1587.84C2337.06 1587.29 2336.49 1586.54 2336.08 1585.49C2333.64 1578.32 2330.59 1571.56 2326.92 1565.26C2323.37 1559.15 2318.51 1552.11 2312.38 1544.13L2311.76 1543.32C2305.5 1535.22 2300.47 1527.53 2296.65 1520.26C2293.05 1513.41 2291.17 1504.96 2291.17 1494.79C2291.17 1481.13 2295.89 1469.66 2305.38 1460.18C2314.86 1450.69 2326.32 1445.98 2339.98 1445.98ZM2339.35 1477.98C2329.86 1477.98 2322.17 1485.68 2322.17 1495.17C2322.17 1504.66 2329.86 1512.35 2339.35 1512.35C2348.84 1512.35 2356.54 1504.66 2356.54 1495.17C2356.54 1485.68 2348.84 1477.98 2339.35 1477.98Z" fill="black"/>
</g>
<g id="Semibold-L">
<path id="Vector_13" fill-rule="evenodd" clip-rule="evenodd" d="M2043.27 1447C2056.71 1447 2067.98 1451.64 2077.3 1460.97C2086.63 1470.29 2091.27 1481.57 2091.27 1495C2091.27 1505.74 2089.24 1514.39 2085.39 1521.13C2081.24 1528.42 2076.45 1535.63 2071.01 1542.74L2070.99 1542.77C2064.33 1551.66 2059.23 1559.12 2055.76 1565.12C2052.26 1571.15 2049.38 1577.53 2047.09 1584.24C2046.69 1585.38 2046.14 1586.05 2045.54 1586.47C2044.85 1586.97 2044.13 1587.2 2043.27 1587.2C2042.28 1587.2 2041.61 1586.93 2041.07 1586.5C2040.39 1585.96 2039.84 1585.22 2039.43 1584.2C2037.03 1577.14 2034.03 1570.5 2030.42 1564.3C2027.05 1558.49 2022.47 1551.83 2016.73 1544.3L2015.52 1542.73C2009.36 1534.76 2004.41 1527.19 2000.66 1520.05C1997.12 1513.31 1995.27 1505 1995.27 1495C1995.27 1481.57 1999.91 1470.29 2009.24 1460.97C2018.56 1451.64 2029.84 1447 2043.27 1447ZM2026.27 1495.57C2026.27 1486.42 2033.68 1479 2042.84 1479C2051.99 1479 2059.41 1486.42 2059.41 1495.57C2059.41 1504.72 2051.99 1512.14 2042.84 1512.14C2033.68 1512.14 2026.27 1504.72 2026.27 1495.57Z" fill="black"/>
</g>
<g id="Medium-L">
<path id="Vector_14" fill-rule="evenodd" clip-rule="evenodd" d="M1746.56 1448C1759.67 1448 1770.68 1452.53 1779.78 1461.64C1788.89 1470.74 1793.42 1481.75 1793.42 1494.86C1793.42 1505.35 1791.43 1513.79 1787.68 1520.38C1783.86 1527.07 1779.49 1533.7 1774.57 1540.25L1773.63 1541.49L1773.62 1541.5L1772.52 1542.98C1766.55 1551.01 1761.94 1557.8 1758.75 1563.32C1755.33 1569.21 1752.52 1575.44 1750.29 1581.99C1749.89 1583.1 1749.36 1583.76 1748.77 1584.17C1748.1 1584.66 1747.39 1584.88 1746.56 1584.88C1745.59 1584.88 1744.93 1584.62 1744.41 1584.2C1743.75 1583.67 1743.2 1582.95 1742.81 1581.95C1740.46 1575.06 1737.53 1568.57 1734.01 1562.52C1730.61 1556.66 1725.95 1549.91 1720.07 1542.26L1719.46 1541.46C1713.44 1533.68 1708.62 1526.29 1704.95 1519.32C1701.5 1512.74 1699.69 1504.63 1699.69 1494.86C1699.69 1481.75 1704.22 1470.74 1713.33 1461.64C1722.43 1452.53 1733.44 1448 1746.56 1448ZM1746.6 1511.46C1755.53 1511.46 1762.77 1504.22 1762.77 1495.29C1762.77 1486.35 1755.53 1479.11 1746.6 1479.11C1737.66 1479.11 1730.42 1486.35 1730.42 1495.29C1730.42 1504.22 1737.66 1511.46 1746.6 1511.46Z" fill="black"/>
</g>
<g id="Regular-L">
<path id="Vector_15" fill-rule="evenodd" clip-rule="evenodd" d="M1449.85 1451C1462.68 1451 1473.45 1455.43 1482.35 1464.34C1491.26 1473.24 1495.7 1484.02 1495.7 1496.85C1495.7 1507.11 1493.75 1515.37 1490.08 1521.81C1486.11 1528.76 1481.53 1535.65 1476.34 1542.45L1476.33 1542.47L1474.68 1544.69C1469.11 1552.21 1464.8 1558.59 1461.77 1563.82C1458.44 1569.58 1455.68 1575.67 1453.5 1582.08C1453.11 1583.17 1452.59 1583.81 1452.01 1584.22C1451.36 1584.69 1450.67 1584.91 1449.85 1584.91C1448.9 1584.91 1448.26 1584.65 1447.75 1584.24C1447.1 1583.73 1446.57 1583.02 1446.18 1582.04C1443.89 1575.3 1441.02 1568.96 1437.58 1563.03C1434.25 1557.31 1429.69 1550.7 1423.94 1543.21L1423.34 1542.43C1417.46 1534.82 1412.73 1527.6 1409.15 1520.77C1405.77 1514.33 1404 1506.4 1404 1496.85C1404 1484.02 1408.43 1473.24 1417.34 1464.34C1426.25 1455.43 1437.02 1451 1449.85 1451ZM1449.95 1511.07C1458.69 1511.07 1465.77 1503.99 1465.77 1495.25C1465.77 1486.51 1458.69 1479.42 1449.95 1479.42C1441.21 1479.42 1434.12 1486.51 1434.12 1495.25C1434.12 1503.99 1441.21 1511.07 1449.95 1511.07Z" fill="black"/>
</g>
<g id="Light-L">
<path id="Vector_16" fill-rule="evenodd" clip-rule="evenodd" d="M1153.13 1449C1140.18 1449 1129.2 1453.51 1120.18 1462.52C1111.16 1471.54 1106.65 1482.53 1106.65 1495.48C1106.65 1504.88 1108.39 1512.9 1111.87 1519.55C1115.22 1525.93 1119.56 1532.6 1124.88 1539.56L1125.58 1540.47C1131.19 1547.74 1135.6 1554.12 1138.78 1559.56L1139.33 1560.53C1142.21 1565.61 1144.64 1571.08 1146.62 1576.9L1146.7 1577.1C1147.25 1578.47 1148.05 1579.58 1149.11 1580.45C1150.27 1581.36 1151.59 1581.8 1153.13 1581.8L1153.44 1581.79C1154.16 1581.76 1154.84 1581.63 1155.48 1581.38L1155.71 1581.29H1156L1157.04 1580.54C1158.19 1579.72 1159.03 1578.55 1159.58 1577.01C1161.61 1571.08 1164.13 1565.52 1167.15 1560.29L1167.43 1559.81C1170.38 1554.79 1174.62 1548.58 1180.14 1541.18L1180.51 1540.69L1180.52 1540.68L1180.68 1540.47C1185.67 1533.92 1190.07 1527.31 1193.89 1520.62C1197.7 1513.93 1199.61 1505.54 1199.61 1495.48C1199.61 1482.53 1195.1 1471.55 1186.07 1462.52C1177.06 1453.51 1166.07 1449 1153.13 1449ZM1153.12 1510.57C1161.79 1510.57 1168.82 1503.54 1168.82 1494.87C1168.82 1486.21 1161.79 1479.18 1153.12 1479.18C1144.46 1479.18 1137.43 1486.21 1137.43 1494.87C1137.43 1503.54 1144.46 1510.57 1153.12 1510.57Z" fill="black"/>
</g>
<g id="Thin-L">
<path id="Vector_17" fill-rule="evenodd" clip-rule="evenodd" d="M856.422 1450C843.716 1450 832.938 1454.43 824.089 1463.27C815.235 1472.13 810.808 1482.91 810.808 1495.61C810.808 1504.85 812.518 1512.73 815.936 1519.23C819.218 1525.49 823.471 1532.03 828.694 1538.87L830.509 1541.23C835.509 1547.79 839.45 1553.54 842.334 1558.5L842.88 1559.45C845.718 1564.47 848.111 1569.85 850.052 1575.56L850.092 1575.66C850.636 1577.05 851.443 1578.17 852.512 1579.02C853.6 1579.89 854.903 1580.33 856.422 1580.33C857.831 1580.33 859.105 1579.92 860.25 1579.11C861.388 1578.29 862.225 1577.14 862.769 1575.63C864.735 1569.84 867.204 1564.39 870.192 1559.23L870.751 1558.28C873.434 1553.76 877.154 1548.29 881.908 1541.86L883.467 1539.77C888.354 1533.35 892.672 1526.86 896.42 1520.29C900.165 1513.72 902.037 1505.5 902.037 1495.61C902.037 1482.91 897.61 1472.13 888.757 1463.27C879.907 1454.42 869.129 1450 856.422 1450ZM856.422 1510.42C864.928 1510.42 871.824 1503.53 871.824 1495.02C871.824 1486.52 864.928 1479.62 856.422 1479.62C847.915 1479.62 841.019 1486.52 841.019 1495.02C841.019 1503.53 847.915 1510.42 856.422 1510.42Z" fill="black"/>
</g>
<g id="Ultralight-L">
<path id="Vector_18" fill-rule="evenodd" clip-rule="evenodd" d="M559.712 1450C572.089 1450 582.473 1454.27 591.062 1462.87C599.655 1471.45 603.93 1481.85 603.93 1494.22C603.93 1504.11 602.054 1512.08 598.511 1518.29C594.684 1525 590.27 1531.64 585.264 1538.2L585.249 1538.22L584.148 1539.7C578.543 1547.24 574.219 1553.62 571.213 1558.81C567.994 1564.37 565.335 1570.24 563.233 1576.42C562.859 1577.47 562.354 1578.09 561.798 1578.48C561.165 1578.94 560.502 1579.15 559.712 1579.15C558.799 1579.15 558.181 1578.9 557.687 1578.51C557.061 1578.01 556.55 1577.33 556.175 1576.38C553.964 1569.88 551.198 1563.76 547.876 1558.05C544.667 1552.53 540.279 1546.17 534.744 1538.96L534.147 1538.18C528.471 1530.84 523.916 1523.87 520.459 1517.29C517.199 1511.08 515.493 1503.43 515.493 1494.22C515.493 1481.85 519.768 1471.45 528.361 1462.87C536.95 1454.27 547.334 1450 559.712 1450ZM559.756 1509.53C568.185 1509.53 575.019 1502.69 575.019 1494.26C575.019 1485.83 568.185 1479 559.756 1479C551.327 1479 544.493 1485.83 544.493 1494.26C544.493 1502.69 551.327 1509.53 559.756 1509.53Z" fill="black"/>
</g>
<g id="Black-M">
<path id="Vector_19" fill-rule="evenodd" clip-rule="evenodd" d="M2933.4 1029C2944.99 1029 2954.72 1033 2962.77 1041.06C2970.82 1049.1 2974.83 1058.84 2974.83 1070.43C2974.83 1079.7 2973.07 1087.16 2969.75 1092.98C2966.39 1098.87 2962.54 1104.71 2958.21 1110.48L2957.33 1111.64L2957.32 1111.66C2951.57 1119.33 2947.17 1125.76 2944.17 1130.94C2941.16 1136.15 2938.67 1141.65 2936.7 1147.45C2936.35 1148.43 2935.87 1149.01 2935.35 1149.37C2934.76 1149.8 2934.14 1150 2933.4 1150C2932.54 1150 2931.96 1149.77 2931.5 1149.4C2930.91 1148.93 2930.44 1148.29 2930.08 1147.41C2928.01 1141.32 2925.42 1135.59 2922.31 1130.23C2919.31 1125.07 2915.2 1119.12 2910.03 1112.37L2909.45 1111.62C2904.13 1104.74 2899.86 1098.21 2896.62 1092.05C2893.57 1086.23 2891.97 1079.06 2891.97 1070.43C2891.97 1058.84 2895.98 1049.1 2904.03 1041.06C2912.07 1033 2921.8 1029 2933.4 1029ZM2918.97 1070.5C2918.97 1062.49 2925.46 1056 2933.47 1056C2941.48 1056 2947.97 1062.49 2947.97 1070.5C2947.97 1078.51 2941.48 1085 2933.47 1085C2925.46 1085 2918.97 1078.51 2918.97 1070.5Z" fill="black"/>
</g>
<g id="Heavy-M">
<path id="Vector_20" fill-rule="evenodd" clip-rule="evenodd" d="M2636.69 1030C2648 1030 2657.49 1033.9 2665.33 1041.76C2673.19 1049.6 2677.09 1059.1 2677.09 1070.4C2677.09 1079.44 2675.38 1086.72 2672.14 1092.39C2668.64 1098.53 2664.61 1104.6 2660.04 1110.58L2660.02 1110.61C2654.41 1118.09 2650.12 1124.36 2647.2 1129.42C2644.26 1134.49 2641.83 1139.86 2639.91 1145.51C2639.57 1146.47 2639.11 1147.03 2638.6 1147.39C2638.02 1147.81 2637.41 1148 2636.69 1148C2635.86 1148 2635.29 1147.77 2634.84 1147.41C2634.27 1146.96 2633.8 1146.34 2633.46 1145.47C2631.44 1139.53 2628.91 1133.94 2625.88 1128.72C2622.95 1123.69 2618.95 1117.89 2613.9 1111.3L2613.33 1110.57C2608.15 1103.87 2603.99 1097.5 2600.83 1091.48C2597.85 1085.81 2596.29 1078.82 2596.29 1070.4C2596.29 1059.1 2600.2 1049.6 2608.05 1041.76C2615.89 1033.9 2625.38 1030 2636.69 1030ZM2622.29 1070.5C2622.29 1062.49 2628.78 1056 2636.79 1056C2644.8 1056 2651.29 1062.49 2651.29 1070.5C2651.29 1078.51 2644.8 1085 2636.79 1085C2628.78 1085 2622.29 1078.51 2622.29 1070.5Z" fill="black"/>
</g>
<g id="Bold-M">
<path id="Vector_21" fill-rule="evenodd" clip-rule="evenodd" d="M2339.98 1031C2350.81 1031 2359.89 1034.74 2367.41 1042.26C2374.93 1049.77 2378.67 1058.86 2378.67 1069.69C2378.67 1078.34 2377.03 1085.32 2373.93 1090.75C2370.58 1096.62 2366.72 1102.43 2362.34 1108.17L2362.32 1108.19L2361.3 1109.56C2356.42 1116.13 2352.66 1121.68 2350.04 1126.2C2347.23 1131.07 2344.9 1136.2 2343.06 1141.61C2342.73 1142.53 2342.29 1143.07 2341.81 1143.42C2341.25 1143.82 2340.67 1144 2339.98 1144C2339.18 1144 2338.64 1143.78 2338.21 1143.44C2337.66 1143 2337.21 1142.41 2336.88 1141.58C2334.95 1135.89 2332.53 1130.54 2329.62 1125.54C2326.92 1120.9 2323.27 1115.57 2318.69 1109.56L2317.61 1108.16C2312.65 1101.74 2308.66 1095.64 2305.63 1089.88C2302.78 1084.44 2301.29 1077.75 2301.29 1069.69C2301.29 1058.86 2305.03 1049.77 2312.55 1042.26C2320.06 1034.74 2329.15 1031 2339.98 1031ZM2339.79 1084C2347.25 1084 2353.29 1077.96 2353.29 1070.5C2353.29 1063.04 2347.25 1057 2339.79 1057C2332.33 1057 2326.29 1063.04 2326.29 1070.5C2326.29 1077.96 2332.33 1084 2339.79 1084Z" fill="black"/>
</g>
<g id="Semibold-M">
<path id="Vector_22" fill-rule="evenodd" clip-rule="evenodd" d="M2043.27 1033C2053.81 1033 2062.66 1036.64 2069.97 1043.96C2077.29 1051.27 2080.93 1060.12 2080.93 1070.66C2080.93 1079.09 2079.34 1085.87 2076.32 1091.16C2073.28 1096.5 2069.8 1101.78 2065.88 1107L2065.03 1108.13L2065.02 1108.14L2064.03 1109.48C2059.28 1115.87 2055.62 1121.27 2053.07 1125.68C2050.33 1130.41 2048.06 1135.41 2046.27 1140.68C2045.95 1141.57 2045.52 1142.1 2045.05 1142.43C2044.51 1142.82 2043.95 1143 2043.27 1143C2042.49 1143 2041.97 1142.79 2041.55 1142.45C2041.01 1142.03 2040.58 1141.45 2040.26 1140.64C2038.38 1135.11 2036.02 1129.9 2033.19 1125.03C2030.47 1120.34 2026.74 1114.94 2022.04 1108.82L2021.5 1108.11C2016.66 1101.86 2012.78 1095.92 2009.84 1090.32C2007.06 1085.03 2005.61 1078.51 2005.61 1070.66C2005.61 1060.12 2009.25 1051.27 2016.57 1043.96C2023.89 1036.64 2032.73 1033 2043.27 1033ZM2043.61 1084C2050.79 1084 2056.61 1078.18 2056.61 1071C2056.61 1063.82 2050.79 1058 2043.61 1058C2036.43 1058 2030.61 1063.82 2030.61 1071C2030.61 1078.18 2036.43 1084 2043.61 1084Z" fill="black"/>
</g>
<g id="Medium-M">
<path id="Vector_23" fill-rule="evenodd" clip-rule="evenodd" d="M1746.55 1033C1757.09 1033 1765.94 1036.64 1773.25 1043.96C1780.57 1051.27 1784.21 1060.12 1784.21 1070.66C1784.21 1079.09 1782.62 1085.87 1779.6 1091.16C1776.56 1096.5 1773.08 1101.78 1769.16 1107L1768.31 1108.13L1768.3 1108.14L1767.31 1109.48C1762.56 1115.87 1758.9 1121.27 1756.35 1125.68C1753.61 1130.41 1751.34 1135.41 1749.55 1140.68C1749.23 1141.57 1748.8 1142.1 1748.33 1142.43C1747.79 1142.82 1747.23 1143 1746.55 1143C1745.77 1143 1745.25 1142.79 1744.83 1142.45C1744.29 1142.03 1743.86 1141.45 1743.54 1140.64C1741.66 1135.11 1739.3 1129.9 1736.47 1125.03C1733.75 1120.34 1730.02 1114.94 1725.32 1108.82L1724.78 1108.11C1719.94 1101.86 1716.06 1095.92 1713.12 1090.32C1710.34 1085.03 1708.89 1078.51 1708.89 1070.66C1708.89 1060.12 1712.53 1051.27 1719.85 1043.96C1727.17 1036.64 1736.01 1033 1746.55 1033ZM1733.89 1071C1733.89 1063.82 1739.71 1058 1746.89 1058C1754.07 1058 1759.89 1063.82 1759.89 1071C1759.89 1078.18 1754.07 1084 1746.89 1084C1739.71 1084 1733.89 1078.18 1733.89 1071Z" fill="black"/>
</g>
<g id="Regular-M">
<path id="Subtract_4" fill-rule="evenodd" clip-rule="evenodd" d="M1475.76 1045.63C1468.66 1038.52 1460.08 1034.99 1449.85 1034.99C1439.62 1034.99 1431.03 1038.52 1423.94 1045.63C1416.83 1052.72 1413.3 1061.31 1413.3 1071.54C1413.3 1079.15 1414.71 1085.48 1417.4 1090.61C1420.26 1096.05 1424.03 1101.81 1428.72 1107.87L1429.77 1109.25C1434.08 1114.91 1437.52 1119.92 1440.06 1124.29C1442.81 1129.02 1445.1 1134.07 1446.92 1139.45C1447.23 1140.23 1447.66 1140.79 1448.17 1141.2C1448.58 1141.53 1449.09 1141.73 1449.85 1141.73C1450.5 1141.73 1451.05 1141.56 1451.57 1141.18C1452.03 1140.85 1452.45 1140.35 1452.76 1139.48C1454.49 1134.37 1456.69 1129.51 1459.35 1124.92C1462 1120.35 1465.88 1114.68 1470.95 1107.91L1470.96 1107.89C1475.1 1102.47 1478.75 1096.98 1481.91 1091.43C1484.84 1086.3 1486.39 1079.71 1486.39 1071.54C1486.39 1061.31 1482.86 1052.72 1475.76 1045.63ZM1449.91 1058.99C1442.94 1058.99 1437.3 1064.64 1437.3 1071.6C1437.3 1078.57 1442.94 1084.22 1449.91 1084.22C1456.88 1084.22 1462.52 1078.57 1462.52 1071.6C1462.52 1064.64 1456.88 1058.99 1449.91 1058.99Z" fill="black"/>
</g>
<g id="Light-M">
<path id="Vector_24" fill-rule="evenodd" clip-rule="evenodd" d="M1153.13 1038.99C1163.06 1038.99 1171.38 1042.42 1178.27 1049.31C1185.16 1056.19 1188.59 1064.53 1188.59 1074.44C1188.59 1082.38 1187.08 1088.77 1184.24 1093.75C1181.38 1098.77 1178.1 1103.74 1174.42 1108.65L1173.61 1109.73C1168.68 1116.29 1164.92 1121.8 1162.36 1126.23C1159.77 1130.69 1157.64 1135.4 1155.96 1140.36C1155.66 1141.2 1155.25 1141.69 1154.81 1142.01C1154.3 1142.37 1153.77 1142.54 1153.13 1142.54C1152.4 1142.54 1151.91 1142.34 1151.51 1142.03C1151.01 1141.63 1150.6 1141.08 1150.3 1140.33C1148.53 1135.11 1146.31 1130.21 1143.64 1125.63C1141.18 1121.4 1137.86 1116.55 1133.7 1111.08L1132.64 1109.7C1128.09 1103.81 1124.43 1098.22 1121.66 1092.95C1119.05 1087.97 1117.68 1081.83 1117.68 1074.44C1117.68 1064.53 1121.11 1056.19 1128 1049.31C1134.88 1042.42 1143.21 1038.99 1153.13 1038.99ZM1152.92 1087.47C1159.68 1087.47 1165.15 1081.99 1165.15 1075.23C1165.15 1068.47 1159.68 1062.99 1152.92 1062.99C1146.16 1062.99 1140.68 1068.47 1140.68 1075.23C1140.68 1081.99 1146.16 1087.47 1152.92 1087.47Z" fill="black"/>
</g>
<g id="Thin-M">
<path id="Vector_25" fill-rule="evenodd" clip-rule="evenodd" d="M856.423 1038.99C866.346 1038.99 874.672 1042.42 881.559 1049.31C888.449 1056.19 891.876 1064.53 891.876 1074.44C891.876 1082.38 890.372 1088.77 887.531 1093.75C884.668 1098.77 881.394 1103.74 877.707 1108.65L876.898 1109.73C871.973 1116.29 868.21 1121.8 865.644 1126.23C863.064 1130.69 860.932 1135.4 859.246 1140.36C858.946 1141.2 858.541 1141.69 858.096 1142.01C857.588 1142.37 857.057 1142.54 856.423 1142.54C855.691 1142.54 855.196 1142.34 854.8 1142.03C854.298 1141.63 853.888 1141.08 853.587 1140.33C851.815 1135.11 849.597 1130.21 846.933 1125.63C844.473 1121.4 841.15 1116.55 836.984 1111.08L835.925 1109.7C831.375 1103.81 827.722 1098.22 824.95 1092.95C822.337 1087.97 820.969 1081.83 820.969 1074.44C820.969 1064.53 824.397 1056.19 831.286 1049.31C838.173 1042.42 846.499 1038.99 856.423 1038.99ZM856.207 1086.47C862.965 1086.47 868.444 1080.99 868.444 1074.23C868.444 1067.47 862.965 1061.99 856.207 1061.99C849.448 1061.99 843.969 1067.47 843.969 1074.23C843.969 1080.99 849.448 1086.47 856.207 1086.47Z" fill="black"/>
</g>
<g id="Ultralight-M">
<path id="Vector_26" fill-rule="evenodd" clip-rule="evenodd" d="M559.713 1038C569.502 1038 577.715 1041.38 584.509 1048.18C591.305 1054.97 594.686 1063.19 594.686 1072.97C594.686 1080.8 593.203 1087.1 590.4 1092.01C587.59 1096.94 584.379 1101.82 580.764 1106.65L579.917 1107.77L579.911 1107.78L578.954 1109.06C574.563 1114.98 571.172 1119.98 568.809 1124.06C566.264 1128.46 564.161 1133.1 562.498 1137.99C562.202 1138.82 561.802 1139.31 561.363 1139.62C560.862 1139.98 560.338 1140.15 559.713 1140.15C558.99 1140.15 558.502 1139.95 558.111 1139.64C557.616 1139.25 557.212 1138.71 556.915 1137.96C555.167 1132.82 552.979 1127.98 550.351 1123.46C547.823 1119.12 544.371 1114.11 540.019 1108.43L539.492 1107.75C535.003 1101.94 531.4 1096.43 528.666 1091.23C526.088 1086.31 524.738 1080.26 524.738 1072.97C524.738 1063.19 528.119 1054.97 534.916 1048.18C541.709 1041.38 549.923 1038 559.713 1038ZM559.81 1085.14C566.477 1085.14 571.882 1079.74 571.882 1073.07C571.882 1066.4 566.477 1061 559.81 1061C553.143 1061 547.738 1066.4 547.738 1073.07C547.738 1079.74 553.143 1085.14 559.81 1085.14Z" fill="black"/>
</g>
<g id="Black-S">
<path id="Subtract_5" fill-rule="evenodd" clip-rule="evenodd" d="M2933.41 611.992C2942.53 611.992 2950.19 615.142 2956.52 621.481C2962.86 627.811 2966.01 635.474 2966.01 644.596C2966.01 651.891 2964.63 657.766 2962.01 662.347C2959.19 667.294 2955.94 672.193 2952.25 677.025L2952.24 677.044L2951.31 678.28C2947.23 683.777 2944.08 688.428 2941.89 692.225C2939.51 696.322 2937.55 700.651 2936 705.212C2935.73 705.985 2935.35 706.439 2934.94 706.729C2934.48 707.068 2933.99 707.222 2933.41 707.222C2932.73 707.222 2932.28 707.039 2931.91 706.749C2931.45 706.381 2931.07 705.879 2930.8 705.183C2929.17 700.39 2927.13 695.878 2924.68 691.665L2923.82 690.337C2920.43 685.104 2917.45 680.802 2914.87 677.432L2914.55 677.015C2910.37 671.604 2907.01 666.463 2904.46 661.612C2902.06 657.032 2900.8 651.389 2900.8 644.596C2900.8 635.474 2903.95 627.811 2910.29 621.481C2916.62 615.142 2924.28 611.992 2933.41 611.992ZM2933.21 632.992C2926.91 632.992 2921.8 638.102 2921.8 644.405C2921.8 650.707 2926.91 655.817 2933.21 655.817C2939.51 655.817 2944.62 650.707 2944.62 644.405C2944.62 638.102 2939.51 632.992 2933.21 632.992Z" fill="black"/>
</g>
<g id="Heavy-S">
<path id="Subtract_6" fill-rule="evenodd" clip-rule="evenodd" d="M2629.67 695.573C2628.78 693.629 2627.82 691.747 2626.77 689.928C2624.59 686.155 2621.55 681.727 2617.65 676.645C2613.75 671.562 2610.6 666.711 2608.19 662.091C2605.78 657.471 2604.58 651.888 2604.58 645.342C2604.58 636.333 2607.7 628.689 2613.93 622.412C2620.16 616.137 2627.74 613 2636.69 613C2645.63 613 2653.22 616.137 2659.45 622.412C2665.68 628.689 2668.79 636.333 2668.79 645.342C2668.79 652.35 2667.48 658.182 2664.84 662.839C2662.2 667.5 2659.16 672.101 2655.72 676.645C2651.59 682.189 2648.48 686.789 2646.38 690.446C2645.42 692.119 2644.53 693.837 2643.72 695.599L2643.65 695.768L2643.57 695.937C2643.25 696.642 2642.94 697.355 2642.64 698.074C2642.57 698.255 2642.5 698.436 2642.42 698.618C2641.97 699.747 2641.55 700.893 2641.16 702.057C2640.78 703.135 2640.18 703.962 2639.38 704.538C2638.58 705.117 2637.68 705.406 2636.69 705.406C2635.62 705.406 2634.7 705.098 2633.93 704.482C2633.17 703.866 2632.6 703.058 2632.21 702.057C2631.82 700.89 2631.4 699.744 2630.96 698.617L2630.87 698.41C2630.54 697.579 2630.2 696.759 2629.84 695.95L2629.84 695.95C2629.78 695.824 2629.72 695.698 2629.67 695.573ZM2636.69 633.359C2630.41 633.359 2625.33 638.443 2625.33 644.714C2625.33 650.986 2630.41 656.069 2636.69 656.069C2642.96 656.069 2648.04 650.986 2648.04 644.714C2648.04 638.443 2642.96 633.359 2636.69 633.359Z" fill="black"/>
</g>
<g id="Bold-S">
<path id="Vector_27" fill-rule="evenodd" clip-rule="evenodd" d="M2339.98 615C2348.54 615 2355.73 617.956 2361.67 623.903C2367.62 629.842 2370.57 637.031 2370.57 645.59C2370.57 652.435 2369.28 657.948 2366.82 662.245C2364.18 666.887 2361.12 671.484 2357.66 676.017L2357.65 676.035L2356.75 677.236C2352.94 682.376 2350 686.726 2347.94 690.279C2345.71 694.123 2343.87 698.185 2342.42 702.464C2342.16 703.189 2341.81 703.616 2341.43 703.888C2340.99 704.205 2340.53 704.35 2339.98 704.35C2339.35 704.35 2338.92 704.178 2338.58 703.906C2338.15 703.561 2337.79 703.09 2337.54 702.437C2336.01 697.94 2334.09 693.706 2331.79 689.753L2330.5 687.753C2327.67 683.415 2325.16 679.786 2322.95 676.864L2322.3 676.008C2318.37 670.931 2315.22 666.108 2312.83 661.556C2310.57 657.259 2309.39 651.964 2309.39 645.59C2309.39 637.031 2312.35 629.842 2318.29 623.903C2324.23 617.956 2331.42 615 2339.98 615ZM2340.16 655.54C2346.11 655.54 2350.93 650.718 2350.93 644.77C2350.93 638.822 2346.11 634 2340.16 634C2334.21 634 2329.39 638.822 2329.39 644.77C2329.39 650.718 2334.21 655.54 2340.16 655.54Z" fill="black"/>
</g>
<g id="Semibold-S">
<path id="Vector_28" fill-rule="evenodd" clip-rule="evenodd" d="M2043.27 615C2051.6 615 2058.59 617.876 2064.37 623.663C2070.16 629.442 2073.03 636.437 2073.03 644.765C2073.03 651.426 2071.77 656.789 2069.39 660.971C2066.81 665.488 2063.84 669.96 2060.47 674.371L2060.46 674.389L2059.55 675.6C2055.86 680.583 2053 684.801 2051.01 688.248C2048.84 691.989 2047.05 695.941 2045.64 700.105C2045.39 700.811 2045.05 701.225 2044.67 701.49C2044.25 701.799 2043.8 701.94 2043.27 701.94C2042.65 701.94 2042.24 701.772 2041.9 701.508C2041.48 701.172 2041.14 700.714 2040.89 700.079C2039.5 696.015 2037.8 692.173 2035.77 688.565L2035.3 687.737C2033.16 684.058 2030.24 679.821 2026.56 675.021L2026.06 674.363C2022.24 669.422 2019.17 664.729 2016.84 660.3C2014.65 656.119 2013.5 650.967 2013.5 644.765C2013.5 636.437 2016.38 629.442 2022.16 623.663C2027.94 617.876 2034.93 615 2043.27 615ZM2043.76 655.307C2049.44 655.307 2054.04 650.707 2054.04 645.033C2054.04 639.358 2049.44 634.758 2043.76 634.758C2038.09 634.758 2033.49 639.358 2033.49 645.033C2033.49 650.707 2038.09 655.307 2043.76 655.307Z" fill="black"/>
</g>
<g id="Medium-S">
<path id="Vector_29" fill-rule="evenodd" clip-rule="evenodd" d="M1746.56 617C1754.69 617 1761.52 619.808 1767.16 625.457C1772.81 631.098 1775.62 637.927 1775.62 646.056C1775.62 652.558 1774.38 657.794 1772.05 661.876C1769.54 666.286 1766.64 670.652 1763.35 674.958L1763.34 674.975L1762.46 676.157C1758.85 681.021 1756.06 685.139 1754.12 688.504C1752 692.156 1750.25 696.014 1748.87 700.079C1748.63 700.768 1748.29 701.172 1747.93 701.431C1747.51 701.732 1747.08 701.87 1746.56 701.87C1745.96 701.87 1745.55 701.706 1745.23 701.448C1744.82 701.121 1744.48 700.673 1744.23 700.053C1742.89 696.087 1741.22 692.335 1739.24 688.814L1738.78 688.005C1736.69 684.413 1733.84 680.278 1730.25 675.592L1729.76 674.949C1726.03 670.127 1723.04 665.545 1720.76 661.222C1718.62 657.14 1717.5 652.111 1717.5 646.056C1717.5 637.927 1720.31 631.098 1725.96 625.457C1731.6 619.808 1738.42 617 1746.56 617ZM1746.2 655.348C1751.74 655.348 1756.23 650.858 1756.23 645.319C1756.23 639.78 1751.74 635.289 1746.2 635.289C1740.66 635.289 1736.17 639.78 1736.17 645.319C1736.17 650.858 1740.66 655.348 1746.2 655.348Z" fill="black"/>
</g>
<g id="Regular-S">
<path id="Subtract_7" fill-rule="evenodd" clip-rule="evenodd" d="M1469.87 625.218C1464.38 619.728 1457.75 617 1449.85 617C1441.94 617 1435.31 619.728 1429.83 625.218C1424.34 630.699 1421.61 637.335 1421.61 645.235C1421.61 651.118 1422.7 656.005 1424.78 659.971C1426.99 664.172 1429.9 668.624 1433.52 673.311L1434 673.935C1437.49 678.489 1440.26 682.507 1442.29 685.997C1444.41 689.646 1446.18 693.554 1447.59 697.704C1447.83 698.307 1448.15 698.742 1448.55 699.06C1448.87 699.311 1449.26 699.47 1449.85 699.47C1450.35 699.47 1450.77 699.336 1451.18 699.043C1451.53 698.792 1451.86 698.399 1452.1 697.729C1453.44 693.78 1455.14 690.031 1457.19 686.482C1459 683.358 1461.55 679.566 1464.84 675.107L1466.16 673.319C1469.36 669.135 1472.18 664.892 1474.62 660.607C1476.88 656.641 1478.08 651.553 1478.08 645.235C1478.08 637.335 1475.35 630.699 1469.87 625.218ZM1459.1 645.746C1459.1 651.129 1454.74 655.493 1449.36 655.493C1443.97 655.493 1439.61 651.129 1439.61 645.746C1439.61 640.364 1443.97 636 1449.36 636C1454.74 636 1459.1 640.364 1459.1 645.746Z" fill="black"/>
</g>
<g id="Light-S">
<path id="Subtract_8" fill-rule="evenodd" clip-rule="evenodd" d="M1172.94 626.13C1167.51 620.699 1160.95 618 1153.14 618C1145.32 618 1138.76 620.699 1133.33 626.13C1127.9 631.553 1125.2 638.118 1125.2 645.933C1125.2 651.754 1126.28 656.589 1128.34 660.513C1130.52 664.669 1133.4 669.073 1136.98 673.71L1137.46 674.327C1140.91 678.833 1143.65 682.808 1145.66 686.261C1147.76 689.87 1149.5 693.737 1150.9 697.843C1151.14 698.439 1151.46 698.87 1151.86 699.184C1152.17 699.433 1152.56 699.59 1153.14 699.59C1153.63 699.59 1154.05 699.458 1154.45 699.168C1154.8 698.919 1155.12 698.53 1155.36 697.868C1156.69 693.96 1158.37 690.251 1160.4 686.741C1162.19 683.65 1164.72 679.899 1167.96 675.486L1169.28 673.718C1172.44 669.579 1175.23 665.381 1177.65 661.142C1179.88 657.218 1181.07 652.184 1181.07 645.933C1181.07 638.118 1178.37 631.553 1172.94 626.13ZM1162.98 645.182C1162.98 650.508 1158.66 654.825 1153.33 654.825C1148.01 654.825 1143.69 650.508 1143.69 645.182C1143.69 639.856 1148.01 635.539 1153.33 635.539C1158.66 635.539 1162.98 639.856 1162.98 645.182Z" fill="black"/>
</g>
<g id="Thin-S">
<path id="Subtract_9" fill-rule="evenodd" clip-rule="evenodd" d="M875.704 625.915C870.422 620.628 864.035 618 856.424 618C848.811 618 842.424 620.628 837.142 625.915C831.857 631.194 829.228 637.586 829.228 645.194C829.228 650.86 830.277 655.567 832.282 659.387C834.408 663.434 837.21 667.721 840.7 672.235L841.657 673.485C844.785 677.605 847.286 681.259 849.143 684.454L849.609 685.269C851.447 688.548 852.993 692.039 854.248 695.729C854.479 696.31 854.793 696.729 855.178 697.035C855.482 697.277 855.862 697.43 856.424 697.43C856.91 697.43 857.317 697.301 857.707 697.019C858.049 696.777 858.359 696.398 858.589 695.754C859.882 691.949 861.517 688.338 863.497 684.921C865.314 681.781 867.913 677.941 871.273 673.407L872.129 672.259L872.139 672.243C875.218 668.213 877.932 664.127 880.286 660C882.465 656.18 883.618 651.279 883.618 645.194C883.618 637.586 880.989 631.194 875.704 625.915ZM866.002 645.387C866.002 650.571 861.8 654.774 856.615 654.774C851.431 654.774 847.228 650.571 847.228 645.387C847.228 640.203 851.431 636 856.615 636C861.8 636 866.002 640.203 866.002 645.387Z" fill="black"/>
</g>
<g id="Ultralight-S">
<path id="Subtract_10" fill-rule="evenodd" clip-rule="evenodd" d="M578.847 625.855C573.605 620.608 567.267 618 559.712 618C552.157 618 545.819 620.608 540.576 625.855C535.331 631.094 532.722 637.438 532.722 644.989C532.722 650.612 533.764 655.283 535.753 659.075C537.863 663.09 540.644 667.346 544.108 671.825L544.587 672.449C547.912 676.791 550.551 680.623 552.488 683.952C554.515 687.439 556.204 691.175 557.553 695.142C557.782 695.718 558.094 696.134 558.476 696.438C558.778 696.678 559.155 696.83 559.712 696.83C560.195 696.83 560.599 696.702 560.986 696.422C561.325 696.182 561.633 695.806 561.862 695.166C563.145 691.391 564.768 687.807 566.732 684.416C568.535 681.3 571.115 677.489 574.45 672.989L575.299 671.849L575.309 671.833C578.364 667.834 581.058 663.778 583.394 659.683C585.557 655.891 586.702 651.028 586.702 644.989C586.702 637.438 584.092 631.094 578.847 625.855ZM569.356 645.317C569.356 650.462 565.184 654.633 560.039 654.633C554.893 654.633 550.722 650.462 550.722 645.317C550.722 640.171 554.893 636 560.039 636C565.184 636 569.356 640.171 569.356 645.317Z" fill="black"/>
</g>
</g>
</g>
<defs>
<clipPath id="clip0_1121_4154">
<rect width="3300" height="2200" fill="white"/>
</clipPath>
</defs>
</svg>
