<svg xmlns="http://www.w3.org/2000/svg" width="420" height="140" fill="none"><rect width="420" height="140" fill="#3C4043" rx="16"/><path stroke="#5F6368" stroke-linecap="round" stroke-width="3.332" d="M273.197 70.838c0 34.889-28.283 63.173-63.172 63.173-10.31 0-20.042-2.47-28.638-6.85m89.176-74.432c-7.786-26.063-31.943-45.063-60.538-45.063-18.754 0-35.599 8.172-47.169 21.15m-5.459 7.067c-6.662 10.01-10.544 22.03-10.544 34.955 0 21.964 11.208 41.309 28.216 52.628"/><path stroke="#5F6368" stroke-linecap="round" stroke-width="2.371" d="M162.881 70.829c0 26.036 21.107 47.143 47.144 47.143a47.042 47.042 0 0 0 16.166-2.845m-61.493-57.303c5.645-19.712 23.801-34.138 45.327-34.138 14.08 0 26.719 6.172 35.357 15.96m-10.973 71.538c13.642-8.261 22.759-23.243 22.759-40.355a46.92 46.92 0 0 0-7.552-25.604"/><path fill="#8AB4F8" stroke="#1967D2" stroke-width="2.833" d="M225.072 87.51c-3.987 5.493-8.995 9.007-15.047 10.613-6.053-1.606-11.086-5.12-15.119-10.613-4.069-5.654-6.094-11.893-6.094-18.755V52.482l21.213-7.955 21.212 7.955v16.273c0 6.86-2.047 13.099-6.164 18.754l-.001.002Z"/><circle r="10.843" fill="#FDD663" transform="matrix(1 0 0 -1 149.21 53.386)"/><rect width="28.286" height="14.143" fill="#8AB4F8" rx="7.071" transform="scale(-1 1) rotate(26.08 -99.404 -409.555)"/><rect width="13.2" height="13.2" fill="#185ABC" rx="1.865" transform="scale(-1 1) rotate(22.513 -290.632 -345.225)"/><rect width="9.429" height="9.429" fill="#185ABC" rx="1.865" transform="scale(-1 1) rotate(55.732 -134.147 -225.148)"/><circle r="7.543" fill="#81C995" transform="matrix(-1 0 0 1 264.711 37.84)"/><circle r="5.657" fill="#8AB4F8" transform="matrix(-1 0 0 1 241.139 125.526)"/><path fill="#FDC69C" d="M274.756 78.104a8.485 8.485 0 0 0-11.222 4.251l-6.971 15.474a8.486 8.486 0 0 0 15.474 6.971l6.971-15.474a8.486 8.486 0 0 0-4.252-11.222Z"/><path fill="#FCAD70" d="M162.522 115.489c-.408-1.369.811-2.669 2.203-2.351l6.487 1.484c1.403.321 1.929 2.043.945 3.093l-4.586 4.894c-.984 1.05-2.736.637-3.148-.743l-1.901-6.377Z"/></svg>
