<svg width="100" height="100" viewBox="0 0 100 100" fill="none" xmlns="http://www.w3.org/2000/svg"><circle cx="50.402" cy="50.6" r="41.4" fill="url(#paint0_radial_1417_11842)"/><path d="M23.402 50.6c0 22.865 12.089 41.4 27 41.4 14.912 0 27-18.535 27-41.4 0-22.864-12.088-41.4-27-41.4-14.911 0-27 18.536-27 41.4z" stroke="#185ABC" stroke-width="2" stroke-miterlimit="10"/><path d="M79.629 79.97c10.726-10.726 6.315-32.528-9.852-48.696-16.168-16.168-37.97-20.579-48.696-9.852" stroke="#1A73E8" stroke-width="2" stroke-miterlimit="10"/><path d="M79.867 21.468c-4.317-4.317-20.923 5.29-37.09 21.458C26.609 59.094 17.002 75.7 21.319 80.016" stroke="#1A73E8" stroke-width="2" stroke-miterlimit="10"/><path d="M91.802 50.6c0 17.894-18.535 32.4-41.4 32.4-22.864 0-41.4-14.506-41.4-32.4" stroke="#1A73E8" stroke-width="2" stroke-miterlimit="10"/><path d="M91.802 51.05c0 5.219-18.535 9.45-41.4 9.45-22.864 0-41.4-4.231-41.4-9.45" stroke="#1A73E8" stroke-width="2" stroke-miterlimit="10"/><path d="M33.402 37.048l17-7.749 17 7.749v11.756c0 11.418-7.273 21.9-17 25.145-9.727-3.244-17-13.727-17-25.145V37.048z" fill="#188038" fill-opacity=".7" stroke="#34A853" stroke-width="2" stroke-miterlimit="10"/><path d="M50.402 92c22.865 0 41.4-18.535 41.4-41.4 0-22.864-18.535-41.4-41.4-41.4-22.864 0-41.4 18.536-41.4 41.4 0 22.865 18.536 41.4 41.4 41.4z" stroke="#669DF6" stroke-width="2" stroke-miterlimit="10"/><defs><radialGradient id="paint0_radial_1417_11842" cx="0" cy="0" r="1" gradientUnits="userSpaceOnUse" gradientTransform="matrix(0 41.4 -41.4 0 50.402 50.6)"><stop offset=".547" stop-color="#202123"/><stop offset="1" stop-color="#174EA6"/></radialGradient></defs></svg>