<svg width="100" height="100" viewBox="0 0 100 100" fill="none" xmlns="http://www.w3.org/2000/svg"><circle cx="49.9" cy="50.6" r="41.4" fill="url(#paint0_radial_929_47464)"/><path d="M22.9 50.6c0 22.864 12.088 41.4 27 41.4s27-18.535 27-41.4-12.088-41.4-27-41.4-27 18.535-27 41.4z" stroke="#AECBFA" stroke-width="2" stroke-miterlimit="10"/><path d="M79.127 79.97c10.726-10.726 6.315-32.528-9.853-48.696s-37.97-20.579-48.696-9.852" stroke="#8AB4F8" stroke-width="2" stroke-miterlimit="10"/><path d="M79.365 21.468c-4.317-4.317-20.923 5.29-37.09 21.458C26.106 59.093 16.5 75.699 20.815 80.016" stroke="#8AB4F8" stroke-width="2" stroke-miterlimit="10"/><path d="M91.3 50.6C91.3 68.494 72.765 83 49.9 83S8.5 68.494 8.5 50.6" stroke="#8AB4F8" stroke-width="2" stroke-miterlimit="10"/><path d="M91.3 51.05c0 5.22-18.535 9.45-41.4 9.45S8.5 56.27 8.5 51.05" stroke="#8AB4F8" stroke-width="2" stroke-miterlimit="10"/><path d="M32.9 37.048l17-7.749 17 7.749v11.756c0 11.418-7.273 21.9-17 25.145-9.727-3.244-17-13.727-17-25.145V37.048z" fill="#CEEAD6" fill-opacity=".68" stroke="#34A853" stroke-width="2" stroke-miterlimit="10"/><path d="M49.9 92c22.865 0 41.4-18.535 41.4-41.4S72.765 9.2 49.9 9.2 8.5 27.735 8.5 50.6C8.5 73.464 27.035 92 49.9 92z" stroke="#669DF6" stroke-width="2" stroke-miterlimit="10"/><defs><radialGradient id="paint0_radial_929_47464" cx="0" cy="0" r="1" gradientUnits="userSpaceOnUse" gradientTransform="matrix(0 41.4 -41.4 0 49.9 50.6)"><stop offset=".547" stop-color="#E8F0FE" stop-opacity="0"/><stop offset="1" stop-color="#D2E3FC"/></radialGradient></defs></svg>