<svg width="100" height="100" viewBox="0 0 100 100" fill="none" xmlns="http://www.w3.org/2000/svg"><path d="M70 61h17v2.995L75.386 69l4.608-5.99L70 61z" fill="#174EA6"/><path d="M50 82c17.673 0 32-14.327 32-32 0-17.673-14.327-32-32-32-17.673 0-32 14.327-32 32 0 17.673 14.327 32 32 32z" stroke="#1E8E3E" stroke-width="2" stroke-miterlimit="10"/><path d="M45.2 46.413V33.048c0-.349-.149-.68-.409-.913-.837-.748-.308-2.135.815-2.135h8.788c1.123 0 1.652 1.387.815 2.135-.26.232-.409.564-.409.913v13.365a4 4 0 0 0 .55 2.024l9.116 15.539C66.03 66.642 64.107 70 61.016 70H38.984c-3.091 0-5.014-3.358-3.45-6.024l9.116-15.539a4 4 0 0 0 .55-2.024z" stroke="#4285F4" stroke-width="2" stroke-linejoin="round"/><path fill-rule="evenodd" clip-rule="evenodd" d="m56.388 55.91 5.477 8.927a1.5 1.5 0 0 1-1.278 2.284H39.765a1.5 1.5 0 0 1-1.279-2.284l5.477-8.928h12.425z" fill="#174EA6"/><path d="M50 44h37v20H50V44z" fill="#1A73E8"/><path d="M54.327 58.934V48.841h4.032c.592 0 1.113.099 1.564.296.451.197.804.484 1.058.86.263.376.394.831.394 1.367s-.127.982-.38 1.34c-.254.357-.574.63-.959.817v.085c.498.169.902.46 1.212.874.31.413.466.911.466 1.494 0 .602-.141 1.128-.423 1.579a2.778 2.778 0 0 1-1.128 1.03 3.526 3.526 0 0 1-1.593.352h-4.243zm4.06-8.683h-2.524v2.678h2.467c.48 0 .855-.113 1.128-.338.273-.226.409-.56.409-1.001 0-.442-.132-.776-.395-1.001-.263-.226-.625-.338-1.085-.338zm-2.524 7.26h2.693c.498 0 .888-.146 1.17-.437.291-.292.437-.682.437-1.17 0-.49-.146-.88-.437-1.17-.291-.292-.7-.438-1.227-.438h-2.636v3.215zm10.591 1.649c-.714 0-1.339-.164-1.874-.493a3.43 3.43 0 0 1-1.227-1.382c-.282-.592-.423-1.273-.423-2.044 0-.79.15-1.48.451-2.072a3.42 3.42 0 0 1 1.24-1.382c.537-.329 1.148-.493 1.834-.493 1.118 0 1.964.315 2.537.944.583.63.874 1.49.874 2.58 0 .273-.014.517-.042.733H64.41c.047.733.264 1.292.649 1.678.385.385.87.578 1.452.578.517 0 .916-.113 1.198-.339.291-.235.503-.526.635-.874l1.325.353a3.137 3.137 0 0 1-1.072 1.593c-.526.413-1.24.62-2.142.62zm.015-6.583c-.508 0-.94.155-1.297.465-.348.31-.578.766-.691 1.367h3.89c-.027-.554-.201-.996-.52-1.325-.32-.338-.78-.507-1.382-.507zm5.434 4.271v-4.004h-1.198V51.52h1.198v-2.03h1.509v2.03h1.692v1.325h-1.692v3.736c0 .696.305 1.043.916 1.043.16 0 .3-.018.423-.056.122-.047.25-.108.38-.183v1.466c-.15.056-.314.103-.493.14-.169.038-.37.057-.606.057-.648 0-1.165-.192-1.55-.578-.386-.394-.579-.935-.579-1.62zm6.95 2.312c-.77 0-1.391-.211-1.861-.634-.47-.423-.705-.992-.705-1.706 0-.498.127-.916.38-1.255.264-.347.607-.61 1.03-.79a3.693 3.693 0 0 1 1.424-.267c.394 0 .76.023 1.1.07.337.047.676.118 1.014.212v-.705c0-.46-.16-.827-.48-1.1-.319-.282-.742-.422-1.268-.422-.423 0-.785.103-1.085.31-.292.197-.494.488-.606.874l-1.34-.31c.15-.696.508-1.227 1.072-1.593.573-.367 1.23-.55 1.973-.55 1.043 0 1.838.249 2.383.747.545.498.817 1.212.817 2.143v4.75h-1.466v-.86h-.084c-.216.282-.517.536-.903.762-.376.216-.84.324-1.395.324zm.338-1.24c.62 0 1.114-.189 1.48-.564a1.91 1.91 0 0 0 .564-1.382 5.745 5.745 0 0 0-1.875-.324c-.488 0-.87.099-1.142.296-.272.197-.408.489-.408.874 0 .32.126.583.38.79.263.206.597.31 1.001.31z" fill="#fff"/></svg>