<svg xmlns="http://www.w3.org/2000/svg" width="420" height="160" fill="none"><rect width="420" height="160" fill="#FEEFE3" rx="16"/><rect width="162" height="32" x="129" y="121" fill="#FEEFC3" rx="4"/><path fill="#F9AB00" d="m143.075 128.8 2 4h3l-2-4h2l2 4h3l-2-4h2l2 4h3l-2-4h2.85c.633 0 1.167.225 1.6.675.45.433.675.967.675 1.6v11.85c0 .633-.225 1.175-.675 1.625-.433.433-.967.65-1.6.65h-15.85a2.26 2.26 0 0 1-1.625-.65 2.23 2.23 0 0 1-.65-1.6v-11.875c0-.633.217-1.167.65-1.6.45-.45.992-.675 1.625-.675Zm0 6.275v7.85h15.85v-7.85h-15.85Zm0 0v7.85-7.85ZM263.4 144.2l-1.6-1.6 5.6-5.6-5.6-5.6 1.6-1.6 5.6 5.6 5.6-5.6 1.6 1.6-5.6 5.6 5.6 5.6-1.6 1.6-5.6-5.6-5.6 5.6Z"/><rect width="162" height="32" x="129" y="121" stroke="#fff" stroke-width="2" rx="4"/><rect width="162" height="32" x="129" y="83" fill="#FEDFC8" rx="4"/><path fill="#E8710A" d="M148.93 108.221c-1.133-.002-2.107-.404-2.923-1.205-.798-.819-1.196-1.794-1.194-2.928.002-1.15.404-2.124 1.205-2.922.818-.816 1.794-1.222 2.928-1.22.366 0 .699.043.999.127.3.084.592.201.875.351l.019-10.65 6.4.012-.007 4.275-4.125-.007-.019 10.05c-.002 1.133-.412 2.107-1.231 2.922-.801.799-1.777 1.197-2.927 1.195ZM263.4 106.2l-1.6-1.6 5.6-5.6-5.6-5.6 1.6-1.6 5.6 5.6 5.6-5.6 1.6 1.6-5.6 5.6 5.6 5.6-1.6 1.6-5.6-5.6-5.6 5.6Z"/><rect width="162" height="32" x="129" y="83" stroke="#fff" stroke-width="2" rx="4"/><rect width="162" height="32" x="129" y="45" fill="#CEEAD6" rx="4"/><path fill="#1E8E3E" d="m149.35 68.725.3-1.375a.974.974 0 0 1 .3-.525c.167-.15.367-.242.6-.275l3.075-.25a.763.763 0 0 1 .575.125c.183.117.317.275.4.475l.4.95a8.288 8.288 0 0 0 1.75-1.375c.517-.55.942-1.15 1.275-1.8l-.3-.175a1.037 1.037 0 0 1-.4-.45 1.131 1.131 0 0 1-.025-.625l.675-3.025c.05-.2.15-.367.3-.5.167-.133.35-.217.55-.25a9.42 9.42 0 0 0-.325-1.175 5.787 5.787 0 0 0-.475-1.15.878.878 0 0 1-.475.125.88.88 0 0 1-.45-.175l-2.65-1.575a1.012 1.012 0 0 1-.4-.475 1.131 1.131 0 0 1-.025-.625l.2-.825a7.83 7.83 0 0 0-1.6-.525 7.578 7.578 0 0 0-1.625-.175c-.233 0-.475.017-.725.05-.25.017-.492.05-.725.1l.75 1.675c.083.2.1.408.05.625a.802.802 0 0 1-.3.525l-2.325 2.025a.977.977 0 0 1-.6.25.952.952 0 0 1-.6-.15l-2.25-1.375a8.368 8.368 0 0 0-.9 2c-.2.717-.3 1.45-.3 2.2 0 .267.033.7.1 1.3l2.175-.2a.982.982 0 0 1 .625.1c.2.1.342.258.425.475l1.175 2.825c.083.2.1.408.05.625a.802.802 0 0 1-.3.525l-.95.775c.433.333.9.608 1.4.825a7.775 7.775 0 0 0 1.575.475Zm1.8-4.275a.925.925 0 0 1-.6-.1 1.012 1.012 0 0 1-.4-.475L148.8 60.8c-.083-.2-.1-.408-.05-.625.067-.217.183-.392.35-.525l2.55-2.125a.821.821 0 0 1 .525-.25.952.952 0 0 1 .6.15l2.775 1.65c.183.1.325.25.425.45.1.2.125.408.075.625l-.8 3.225c-.05.217-.15.4-.3.55-.15.133-.333.217-.55.25l-3.25.275ZM151 71.2c-1.417 0-2.75-.267-4-.8a10.29 10.29 0 0 1-3.225-2.175A10.273 10.273 0 0 1 141.6 65a10.09 10.09 0 0 1-.8-4c0-1.417.267-2.742.8-3.975a10.198 10.198 0 0 1 2.175-3.25A10.29 10.29 0 0 1 147 51.6c1.25-.533 2.583-.8 4-.8 1.4 0 2.717.267 3.95.8a10.21 10.21 0 0 1 3.25 2.175c.933.917 1.667 2 2.2 3.25.533 1.233.8 2.558.8 3.975 0 1.417-.267 2.75-.8 4a10.079 10.079 0 0 1-2.2 3.225c-.917.917-2 1.642-3.25 2.175-1.233.533-2.55.8-3.95.8ZM263.4 68.2l-1.6-1.6 5.6-5.6-5.6-5.6 1.6-1.6 5.6 5.6 5.6-5.6 1.6 1.6-5.6 5.6 5.6 5.6-1.6 1.6-5.6-5.6-5.6 5.6Z"/><rect width="162" height="32" x="129" y="45" stroke="#fff" stroke-width="2" rx="4"/><rect width="162" height="32" x="129" y="7" fill="#D2E3FC" rx="4"/><path fill="#1A73E8" d="M143.155 32.21a2.26 2.26 0 0 1-1.624-.653 2.216 2.216 0 0 1-.672-1.626l.031-16.225 1.721 1.678 1.679-1.672 1.696 1.678 1.704-1.671 1.671 1.678 1.679-1.672 1.671 1.678 1.679-1.672 1.696 1.678 1.704-1.672 1.671 1.679 1.729-1.672-.031 16.225a2.214 2.214 0 0 1-.678 1.623c-.45.433-.993.649-1.626.648l-15.7-.03Zm.004-2.275 6.75.013.012-6-6.75-.013-.012 6Zm8.95.017 6.75.012.004-1.9-6.75-.012-.004 1.9Zm.008-4.1 6.75.012.004-1.9-6.75-.012-.004 1.9Zm-8.942-4.092 15.7.03.005-2.825-15.7-.03-.005 2.825ZM263.4 30.2l-1.6-1.6 5.6-5.6-5.6-5.6 1.6-1.6 5.6 5.6 5.6-5.6 1.6 1.6-5.6 5.6 5.6 5.6-1.6 1.6-5.6-5.6-5.6 5.6Z"/><rect width="162" height="32" x="129" y="7" stroke="#fff" stroke-width="2" rx="4"/></svg>
