<?xml version="1.0" encoding="UTF-8"?>
<!--Generator: Apple Native CoreSVG 175.5-->
<!DOCTYPE svg
PUBLIC "-//W3C//DTD SVG 1.1//EN"
       "http://www.w3.org/Graphics/SVG/1.1/DTD/svg11.dtd">
<svg version="1.1" xmlns="http://www.w3.org/2000/svg" xmlns:xlink="http://www.w3.org/1999/xlink" width="3300" height="2200">
 <!--glyph: "", point size: 100.0, font version: "18.0d12e2", template writer version: "101"-->
 <g id="Notes">
  <rect height="2200" id="artboard" style="fill:white;opacity:1" width="3300" x="0" y="0"/>
  <line style="fill:none;stroke:black;opacity:1;stroke-width:0.5;" x1="263" x2="3036" y1="292" y2="292"/>
  <text style="stroke:none;fill:black;font-family:sans-serif;font-size:13;font-weight:bold;" transform="matrix(1 0 0 1 263 322)">Weight/Scale Variations</text>
  <text style="stroke:none;fill:black;font-family:sans-serif;font-size:13;text-anchor:middle;" transform="matrix(1 0 0 1 559.711 322)">Ultralight</text>
  <text style="stroke:none;fill:black;font-family:sans-serif;font-size:13;text-anchor:middle;" transform="matrix(1 0 0 1 856.422 322)">Thin</text>
  <text style="stroke:none;fill:black;font-family:sans-serif;font-size:13;text-anchor:middle;" transform="matrix(1 0 0 1 1153.13 322)">Light</text>
  <text style="stroke:none;fill:black;font-family:sans-serif;font-size:13;text-anchor:middle;" transform="matrix(1 0 0 1 1449.84 322)">Regular</text>
  <text style="stroke:none;fill:black;font-family:sans-serif;font-size:13;text-anchor:middle;" transform="matrix(1 0 0 1 1746.56 322)">Medium</text>
  <text style="stroke:none;fill:black;font-family:sans-serif;font-size:13;text-anchor:middle;" transform="matrix(1 0 0 1 2043.27 322)">Semibold</text>
  <text style="stroke:none;fill:black;font-family:sans-serif;font-size:13;text-anchor:middle;" transform="matrix(1 0 0 1 2339.98 322)">Bold</text>
  <text style="stroke:none;fill:black;font-family:sans-serif;font-size:13;text-anchor:middle;" transform="matrix(1 0 0 1 2636.69 322)">Heavy</text>
  <text style="stroke:none;fill:black;font-family:sans-serif;font-size:13;text-anchor:middle;" transform="matrix(1 0 0 1 2933.4 322)">Black</text>
  <line style="fill:none;stroke:black;opacity:1;stroke-width:0.5;" x1="263" x2="3036" y1="1903" y2="1903"/>
  <g transform="matrix(1 0 0 1 263 1933)">
   <path d="M9.24805 0.830078C13.5547 0.830078 17.1387-2.74414 17.1387-7.05078C17.1387-11.3574 13.5449-14.9316 9.23828-14.9316C4.94141-14.9316 1.36719-11.3574 1.36719-7.05078C1.36719-2.74414 4.95117 0.830078 9.24805 0.830078ZM9.24805-0.654297C5.70312-0.654297 2.87109-3.49609 2.87109-7.05078C2.87109-10.6055 5.69336-13.4473 9.23828-13.4473C12.793-13.4473 15.6445-10.6055 15.6445-7.05078C15.6445-3.49609 12.8027-0.654297 9.24805-0.654297ZM5.6543-7.05078C5.6543-6.62109 5.95703-6.32812 6.40625-6.32812L8.50586-6.32812L8.50586-4.20898C8.50586-3.76953 8.79883-3.4668 9.22852-3.4668C9.67773-3.4668 9.9707-3.76953 9.9707-4.20898L9.9707-6.32812L12.0898-6.32812C12.5293-6.32812 12.832-6.62109 12.832-7.05078C12.832-7.49023 12.5293-7.79297 12.0898-7.79297L9.9707-7.79297L9.9707-9.90234C9.9707-10.3516 9.67773-10.6543 9.22852-10.6543C8.79883-10.6543 8.50586-10.3516 8.50586-9.90234L8.50586-7.79297L6.40625-7.79297C5.95703-7.79297 5.6543-7.49023 5.6543-7.05078Z"/>
  </g>
  <g transform="matrix(1 0 0 1 281.867 1933)">
   <path d="M11.709 2.91016C17.1582 2.91016 21.6699-1.61133 21.6699-7.05078C21.6699-12.5 17.1484-17.0117 11.6992-17.0117C6.25977-17.0117 1.74805-12.5 1.74805-7.05078C1.74805-1.61133 6.26953 2.91016 11.709 2.91016ZM11.709 1.25C7.09961 1.25 3.41797-2.44141 3.41797-7.05078C3.41797-11.6602 7.08984-15.3516 11.6992-15.3516C16.3086-15.3516 20.0098-11.6602 20.0098-7.05078C20.0098-2.44141 16.3184 1.25 11.709 1.25ZM7.17773-7.05078C7.17773-6.57227 7.50977-6.25 8.00781-6.25L10.8789-6.25L10.8789-3.36914C10.8789-2.88086 11.2109-2.53906 11.6895-2.53906C12.1777-2.53906 12.5195-2.87109 12.5195-3.36914L12.5195-6.25L15.4004-6.25C15.8887-6.25 16.2305-6.57227 16.2305-7.05078C16.2305-7.53906 15.8887-7.88086 15.4004-7.88086L12.5195-7.88086L12.5195-10.752C12.5195-11.25 12.1777-11.5918 11.6895-11.5918C11.2109-11.5918 10.8789-11.25 10.8789-10.752L10.8789-7.88086L8.00781-7.88086C7.50977-7.88086 7.17773-7.53906 7.17773-7.05078Z"/>
  </g>
  <g transform="matrix(1 0 0 1 305.646 1933)">
   <path d="M14.9707 5.66406C21.9336 5.66406 27.6953-0.0976562 27.6953-7.05078C27.6953-14.0137 21.9238-19.7754 14.9609-19.7754C8.00781-19.7754 2.25586-14.0137 2.25586-7.05078C2.25586-0.0976562 8.01758 5.66406 14.9707 5.66406ZM14.9707 3.84766C8.93555 3.84766 4.08203-1.01562 4.08203-7.05078C4.08203-13.0957 8.92578-17.9492 14.9609-17.9492C21.0059-17.9492 25.8691-13.0957 25.8691-7.05078C25.8691-1.01562 21.0156 3.84766 14.9707 3.84766ZM9.19922-7.05078C9.19922-6.5332 9.57031-6.17188 10.1172-6.17188L14.0625-6.17188L14.0625-2.2168C14.0625-1.67969 14.4336-1.29883 14.9512-1.29883C15.4883-1.29883 15.8594-1.66992 15.8594-2.2168L15.8594-6.17188L19.8145-6.17188C20.3516-6.17188 20.7324-6.5332 20.7324-7.05078C20.7324-7.59766 20.3613-7.96875 19.8145-7.96875L15.8594-7.96875L15.8594-11.9141C15.8594-12.4609 15.4883-12.8418 14.9512-12.8418C14.4336-12.8418 14.0625-12.4609 14.0625-11.9141L14.0625-7.96875L10.1172-7.96875C9.57031-7.96875 9.19922-7.59766 9.19922-7.05078Z"/>
  </g>
  <text style="stroke:none;fill:black;font-family:sans-serif;font-size:13;font-weight:bold;" transform="matrix(1 0 0 1 263 1953)">Design Variations</text>
  <text style="stroke:none;fill:black;font-family:sans-serif;font-size:13;" transform="matrix(1 0 0 1 263 1971)">Symbols are supported in up to nine weights and three scales.</text>
  <text style="stroke:none;fill:black;font-family:sans-serif;font-size:13;" transform="matrix(1 0 0 1 263 1989)">For optimal layout with text and other symbols, vertically align</text>
  <text style="stroke:none;fill:black;font-family:sans-serif;font-size:13;" transform="matrix(1 0 0 1 263 2007)">symbols with the adjacent text.</text>
  <line style="fill:none;stroke:#00AEEF;stroke-width:0.5;opacity:1.0;" x1="776" x2="776" y1="1919" y2="1933"/>
  <g transform="matrix(1 0 0 1 776 1933)">
   <path d="M3.31055 0.15625C3.82812 0.15625 4.08203-0.0390625 4.26758-0.585938L5.52734-4.0332L11.2891-4.0332L12.5488-0.585938C12.7344-0.0390625 12.9883 0.15625 13.4961 0.15625C14.0137 0.15625 14.3457-0.15625 14.3457-0.644531C14.3457-0.810547 14.3164-0.966797 14.2383-1.17188L9.6582-13.3691C9.43359-13.9648 9.0332-14.2676 8.4082-14.2676C7.80273-14.2676 7.39258-13.9746 7.17773-13.3789L2.59766-1.16211C2.51953-0.957031 2.49023-0.800781 2.49023-0.634766C2.49023-0.146484 2.80273 0.15625 3.31055 0.15625ZM6.00586-5.51758L8.37891-12.0898L8.42773-12.0898L10.8008-5.51758Z"/>
  </g>
  <line style="fill:none;stroke:#00AEEF;stroke-width:0.5;opacity:1.0;" x1="793.197" x2="793.197" y1="1919" y2="1933"/>
  <text style="stroke:none;fill:black;font-family:sans-serif;font-size:13;font-weight:bold;" transform="matrix(1 0 0 1 776 1953)">Margins</text>
  <text style="stroke:none;fill:black;font-family:sans-serif;font-size:13;" transform="matrix(1 0 0 1 776 1971)">Leading and trailing margins on the left and right side of each symbol</text>
  <text style="stroke:none;fill:black;font-family:sans-serif;font-size:13;" transform="matrix(1 0 0 1 776 1989)">can be adjusted by modifying the x-location of the margin guidelines.</text>
  <text style="stroke:none;fill:black;font-family:sans-serif;font-size:13;" transform="matrix(1 0 0 1 776 2007)">Modifications are automatically applied proportionally to all</text>
  <text style="stroke:none;fill:black;font-family:sans-serif;font-size:13;" transform="matrix(1 0 0 1 776 2025)">scales and weights.</text>
  <g transform="matrix(1 0 0 1 1289 1933)">
   <path d="M2.8418 1.86523L4.54102 3.57422C5.40039 4.44336 6.38672 4.38477 7.31445 3.35938L18.0078-8.42773L17.041-9.4043L6.42578 2.27539C6.07422 2.67578 5.74219 2.77344 5.27344 2.30469L4.10156 1.14258C3.63281 0.683594 3.74023 0.341797 4.14062-0.0195312L15.6152-10.8203L14.6387-11.7871L3.04688-0.898438C2.06055 0.0195312 1.98242 0.996094 2.8418 1.86523ZM9.25781-16.3281C8.83789-15.918 8.80859-15.3418 9.04297-14.9512C9.27734-14.5898 9.73633-14.3555 10.3809-14.5215C11.8457-14.8633 13.3691-14.9219 14.7949-13.9844L14.209-12.5293C13.8672-11.6992 14.043-11.1133 14.5801-10.5664L16.875-8.25195C17.3633-7.76367 17.7734-7.74414 18.3398-7.8418L19.4043-8.03711L20.0684-7.36328L20.0293-6.80664C19.9902-6.30859 20.1172-5.92773 20.6055-5.44922L21.3672-4.70703C21.8457-4.22852 22.4609-4.19922 22.9297-4.66797L25.8398-7.58789C26.3086-8.05664 26.2891-8.65234 25.8105-9.13086L25.0391-9.89258C24.5605-10.3711 24.1895-10.5273 23.7109-10.4883L23.1348-10.4395L22.4902-11.0742L22.7344-12.1973C22.8613-12.7637 22.7051-13.2031 22.1191-13.7891L19.9219-15.9766C16.582-19.2969 12.1484-19.2188 9.25781-16.3281ZM10.752-15.957C13.1836-17.7344 16.4746-17.4316 18.7012-15.2051L21.1328-12.793C21.3672-12.5586 21.4062-12.373 21.3379-12.0312L21.0156-10.5469L22.5195-9.0625L23.5059-9.12109C23.7598-9.13086 23.8379-9.11133 24.0332-8.91602L24.6094-8.33984L22.168-5.89844L21.5918-6.47461C21.3965-6.66992 21.3672-6.74805 21.377-7.01172L21.4453-7.98828L19.9512-9.47266L18.4277-9.21875C18.1055-9.15039 17.959-9.17969 17.7148-9.41406L15.7129-11.416C15.459-11.6504 15.4297-11.8164 15.5859-12.1875L16.4648-14.2773C14.9023-15.7324 12.8711-16.3574 10.8398-15.7617C10.6836-15.7227 10.625-15.8496 10.752-15.957Z"/>
  </g>
  <text style="stroke:none;fill:black;font-family:sans-serif;font-size:13;font-weight:bold;" transform="matrix(1 0 0 1 1289 1953)">Exporting</text>
  <text style="stroke:none;fill:black;font-family:sans-serif;font-size:13;" transform="matrix(1 0 0 1 1289 1971)">Symbols should be outlined when exporting to ensure the</text>
  <text style="stroke:none;fill:black;font-family:sans-serif;font-size:13;" transform="matrix(1 0 0 1 1289 1989)">design is preserved when submitting to Xcode.</text>
  <text id="template-version" style="stroke:none;fill:black;font-family:sans-serif;font-size:13;text-anchor:end;" transform="matrix(1 0 0 1 3036 1933)">Template v.3.0</text>
  <text style="stroke:none;fill:black;font-family:sans-serif;font-size:13;text-anchor:end;" transform="matrix(1 0 0 1 3036 1951)">Requires Xcode 13 or greater</text>
  <text id="descriptive-name" style="stroke:none;fill:black;font-family:sans-serif;font-size:13;text-anchor:end;" transform="matrix(1 0 0 1 3036 1969)">Generated from Custom iOS 15.0.platter.filled.bottom.and.arrow.down.iphone.cr</text>
  <text style="stroke:none;fill:black;font-family:sans-serif;font-size:13;text-anchor:end;" transform="matrix(1 0 0 1 3036 1987)">Typeset at 100 points</text>
  <text style="stroke:none;fill:black;font-family:sans-serif;font-size:13;" transform="matrix(1 0 0 1 263 726)">Small</text>
  <text style="stroke:none;fill:black;font-family:sans-serif;font-size:13;" transform="matrix(1 0 0 1 263 1156)">Medium</text>
  <text style="stroke:none;fill:black;font-family:sans-serif;font-size:13;" transform="matrix(1 0 0 1 263 1586)">Large</text>
 </g>
 <g id="Guides">
  <g id="H-reference" style="fill:#27AAE1;stroke:none;" transform="matrix(1 0 0 1 339 696)">
   <path d="M0.993654 0L3.63775 0L29.3281-67.1323L30.0303-67.1323L30.0303-70.459L28.1226-70.459ZM11.6885-24.4799L46.9815-24.4799L46.2315-26.7285L12.4385-26.7285ZM55.1196 0L57.7637 0L30.6382-70.459L29.4326-70.459L29.4326-67.1323Z"/>
  </g>
  <line id="Baseline-S" style="fill:none;stroke:#27AAE1;opacity:1;stroke-width:0.5;" x1="263" x2="3036" y1="696" y2="696"/>
  <line id="Capline-S" style="fill:none;stroke:#27AAE1;opacity:1;stroke-width:0.5;" x1="263" x2="3036" y1="625.541" y2="625.541"/>
  <g id="H-reference" style="fill:#27AAE1;stroke:none;" transform="matrix(1 0 0 1 339 1126)">
   <path d="M0.993654 0L3.63775 0L29.3281-67.1323L30.0303-67.1323L30.0303-70.459L28.1226-70.459ZM11.6885-24.4799L46.9815-24.4799L46.2315-26.7285L12.4385-26.7285ZM55.1196 0L57.7637 0L30.6382-70.459L29.4326-70.459L29.4326-67.1323Z"/>
  </g>
  <line id="Baseline-M" style="fill:none;stroke:#27AAE1;opacity:1;stroke-width:0.5;" x1="263" x2="3036" y1="1126" y2="1126"/>
  <line id="Capline-M" style="fill:none;stroke:#27AAE1;opacity:1;stroke-width:0.5;" x1="263" x2="3036" y1="1055.54" y2="1055.54"/>
  <g id="H-reference" style="fill:#27AAE1;stroke:none;" transform="matrix(1 0 0 1 339 1556)">
   <path d="M0.993654 0L3.63775 0L29.3281-67.1323L30.0303-67.1323L30.0303-70.459L28.1226-70.459ZM11.6885-24.4799L46.9815-24.4799L46.2315-26.7285L12.4385-26.7285ZM55.1196 0L57.7637 0L30.6382-70.459L29.4326-70.459L29.4326-67.1323Z"/>
  </g>
  <line id="Baseline-L" style="fill:none;stroke:#27AAE1;opacity:1;stroke-width:0.5;" x1="263" x2="3036" y1="1556" y2="1556"/>
  <line id="Capline-L" style="fill:none;stroke:#27AAE1;opacity:1;stroke-width:0.5;" x1="263" x2="3036" y1="1485.54" y2="1485.54"/>
  <line id="left-margin-Regular-M" style="fill:none;stroke:#00AEEF;stroke-width:0.5;opacity:1.0;" x1="1399.77" x2="1399.77" y1="1030.79" y2="1150.12"/>
  <line id="right-margin-Regular-M" style="fill:none;stroke:#00AEEF;stroke-width:0.5;opacity:1.0;" x1="1499.92" x2="1499.92" y1="1030.79" y2="1150.12"/>
 </g>
 <g id="Symbols">
  <g id="Black-L" transform="matrix(1 0 0 1 2864.13 1556)">
   <path d="M50.1986-36.2086C50.1986-34.7823 50.6151-33.5932 51.6041-32.5261L64.749-18.0188C65.9744-16.6973 67.5944-16.0432 69.2728-16.0432C70.9303-16.0432 72.6295-16.7557 73.7745-18.0188L86.9206-32.5261C87.9304-33.5932 88.3469-34.7823 88.3469-36.2086C88.3469-38.9657 86.3064-40.8673 83.4337-40.8673C81.9282-40.8881 80.4702-40.1976 79.5164-39.0102L76.0994-35.031L74.5687-32.7441L74.888-38.0658L74.888-53.2251C74.888-56.2557 72.4971-58.4923 69.2728-58.4923C66.0484-58.4923 63.6367-56.2557 63.6367-53.2251L63.6367-38.0658L63.9548-32.7441L62.4241-35.031L59.0083-39.0102C58.0545-40.1976 56.6162-40.8881 55.091-40.8673C52.2391-40.8673 50.1986-38.9657 50.1986-36.2086ZM52.8511 11.0031L85.6736 11.0031C88.9756 11.0031 91.2262 8.75257 91.2262 5.29092L91.2262-4.2941C91.2262-7.75455 88.9756-10.0051 85.6736-10.0051L52.8511-10.0051C49.5491-10.0051 47.2985-7.75455 47.2985-4.2941L47.2985 5.29092C47.2985 8.75257 49.5491 11.0031 52.8511 11.0031ZM18.6914 20.4185C18.6914 32.8008 27.3547 41.1276 40.2332 41.1276L99.5178 41.1276C111.695 41.1276 119.854 32.8008 119.854 20.3601L119.854-91.1528C119.854-103.593 111.695-111.92 99.5178-111.92L40.2332-111.92C27.3547-111.92 18.6914-103.593 18.6914-91.2112ZM38.6725 13.415L38.6725-84.2076C38.6725-88.1625 41.1695-90.4206 45.07-90.4206L93.5131-90.4206C97.376-90.4206 99.8518-88.0457 99.8518-84.1492L99.8518 13.3565C99.8518 17.253 97.376 19.6292 93.5131 19.6292L45.07 19.6292C41.1695 19.6292 38.6725 17.3698 38.6725 13.415Z"/>
  </g>
  <g id="Heavy-L" transform="matrix(1 0 0 1 2569.94 1556)">
   <path d="M48.2326-34.143C48.2326-32.849 48.6077-31.7504 49.4964-30.7926L62.708-16.5592C63.8154-15.3927 65.2622-14.7931 66.7536-14.7931C68.2148-14.7931 69.7364-15.4373 70.7634-16.5592L83.9807-30.7926C84.8995-31.7504 85.2746-32.849 85.2746-34.143C85.2746-36.7009 83.4068-38.4437 80.7652-38.4437C79.3964-38.4739 78.1161-37.8655 77.2307-36.8016L73.4792-32.6397L71.4936-29.8858L71.8041-35.7579L71.8041-51.7407C71.8041-54.5028 69.6685-56.5346 66.7536-56.5346C63.8387-56.5346 61.6729-54.5028 61.6729-51.7407L61.6729-35.7579L61.9778-29.8858L59.9922-32.6397L56.2463-36.8016C55.3609-37.8655 54.1052-38.4739 52.7118-38.4437C50.1004-38.4437 48.2326-36.7009 48.2326-34.143ZM50.2459 11.564L83.2311 11.564C86.5508 11.564 88.797 9.31785 88.797 5.84295L88.797-3.21759C88.797-6.68688 86.5508-8.93302 83.2311-8.93302L50.2459-8.93302C46.9262-8.93302 44.6801-6.68688 44.6801-3.21759L44.6801 5.84295C44.6801 9.31785 46.9262 11.564 50.2459 11.564ZM18.6914 19.0602C18.6914 30.8404 26.882 38.7072 39.1413 38.7072L95.2728 38.7072C106.991 38.7072 114.816 30.8404 114.816 19.0155L114.816-89.758C114.816-101.583 106.991-109.45 95.2728-109.45L39.1413-109.45C26.882-109.45 18.6914-101.583 18.6914-89.8026ZM36.1918 13.3524L36.1918-84.0949C36.1918-88.3858 38.8251-90.7891 43.1173-90.7891L90.4043-90.7891C94.6821-90.7891 97.2856-88.2966 97.2856-84.0503L97.2856 13.3078C97.2856 17.5541 94.6821 20.0522 90.4043 20.0522L43.1173 20.0522C38.8251 20.0522 36.1918 17.6434 36.1918 13.3524Z"/>
  </g>
  <g id="Bold-L" transform="matrix(1 0 0 1 2276.3 1556)">
   <path d="M45.8191-31.7333C45.8191-30.6008 46.148-29.6248 46.9136-28.8051L60.2321-14.8354C61.1861-13.8609 62.4177-13.3305 63.6786-13.3305C64.9014-13.3305 66.2003-13.8901 67.0739-14.8354L80.4055-28.8051C81.2092-29.6248 81.538-30.6008 81.538-31.7333C81.538-34.023 79.8928-35.5586 77.5579-35.5586C76.3582-35.5966 75.3006-35.0882 74.4997-34.1705L70.2215-29.6514L67.7272-26.4181L68.0224-32.7132L68.0224-50.0159C68.0224-52.4401 66.2019-54.211 63.6786-54.211C61.1553-54.211 59.2968-52.4401 59.2968-50.0159L59.2968-32.7132L59.5788-26.4181L57.0844-29.6514L52.8194-34.1705C52.0185-35.0882 50.9857-35.5966 49.7613-35.5586C47.4644-35.5586 45.8191-34.023 45.8191-31.7333ZM47.0559 12.2556L80.2633 12.2556C83.6134 12.2556 85.852 10.0171 85.852 6.51937L85.852-1.8956C85.852-5.38012 83.6134-7.61864 80.2633-7.61864L47.0559-7.61864C43.7057-7.61864 41.4672-5.38012 41.4672-1.8956L41.4672 6.51937C41.4672 10.0171 43.7057 12.2556 47.0559 12.2556ZM18.6914 17.3774C18.6914 28.4868 26.2756 35.7775 37.8261 35.7775L90.1063 35.7775C101.294 35.7775 108.666 28.4868 108.666 17.3482L108.666-88.0292C108.666-99.1678 101.294-106.458 90.1063-106.458L37.8261-106.458C26.2756-106.458 18.6914-99.1678 18.6914-88.0584ZM33.1332 13.1862L33.1332-83.8671C33.1332-88.6624 35.9429-91.2574 40.7938-91.2574L86.5546-91.2574C91.4142-91.2574 94.186-88.604 94.186-83.8379L94.186 13.157C94.186 17.9231 91.4142 20.5897 86.5546 20.5897L40.7938 20.5897C35.9429 20.5897 33.1332 17.9815 33.1332 13.1862Z"/>
  </g>
  <g id="Semibold-L" transform="matrix(1 0 0 1 1981.71 1556)">
   <path d="M44.1553-30.0721C44.1553-29.0508 44.4523-28.1594 45.1332-27.435L58.5252-13.647C59.3734-12.805 60.4568-12.3222 61.5587-12.3222C62.6172-12.3222 63.7625-12.8235 64.5303-13.647L77.9409-27.435C78.6651-28.1594 78.9621-29.0508 78.9621-30.0721C78.9621-32.1768 77.4702-33.5696 75.3468-33.5696C74.2637-33.613 73.3597-33.1735 72.617-32.3566L67.9757-27.5914L65.1306-24.0275L65.4153-30.6142L65.4153-48.8269C65.4153-51.0181 63.812-52.609 61.5587-52.609C59.3054-52.609 57.6587-51.0181 57.6587-48.8269L57.6587-30.6142L57.925-24.0275L55.0798-27.5914L50.457-32.3566C49.7144-33.1735 48.8352-33.613 47.7272-33.5696C45.6472-33.5696 44.1553-32.1768 44.1553-30.0721ZM44.8567 12.7325L78.2173 12.7325C81.5885 12.7325 83.8218 10.4992 83.8218 6.98569L83.8218-0.984225C83.8218-4.47924 81.5885-6.71252 78.2173-6.71252L44.8567-6.71252C41.4856-6.71252 39.2523-4.47924 39.2523-0.984225L39.2523 6.98569C39.2523 10.4992 41.4856 12.7325 44.8567 12.7325ZM18.6914 16.2173C18.6914 26.8642 25.8576 33.7578 36.9195 33.7578L86.5446 33.7578C97.3651 33.7578 104.426 26.8642 104.426 16.1987L104.426-86.8373C104.426-97.5028 97.3651-104.396 86.5446-104.396L36.9195-104.396C25.8576-104.396 18.6914-97.5028 18.6914-86.8559ZM31.0246 13.0715L31.0246-83.7101C31.0246-88.8532 33.956-91.5803 39.192-91.5803L83.9006-91.5803C89.1614-91.5803 92.0495-88.816 92.0495-83.6915L92.0495 13.053C92.0495 18.1774 89.1614 20.9602 83.9006 20.9602L39.192 20.9602C33.956 20.9602 31.0246 18.2146 31.0246 13.0715Z"/>
  </g>
  <g id="Medium-L" transform="matrix(1 0 0 1 1686.61 1556)">
   <path d="M42.8937-28.8124C42.8937-27.8756 43.1665-27.0482 43.7831-26.3961L57.231-12.7459C57.999-12.0043 58.9699-11.5576 59.9513-11.5576C60.8853-11.5576 61.9141-12.0148 62.6017-12.7459L76.0721-26.3961C76.7361-27.0482 77.0089-27.8756 77.0089-28.8124C77.0089-30.7769 75.6334-32.0615 73.6703-32.0615C72.6755-32.1089 71.888-31.7217 71.1895-30.9812L66.2729-26.0293L63.1618-22.2148L63.4385-29.0226L63.4385-47.9253C63.4385-49.9399 61.9999-51.3944 59.9513-51.3944C57.9027-51.3944 56.4167-49.9399 56.4167-47.9253L56.4167-29.0226L56.671-22.2148L53.5599-26.0293L48.6657-30.9812C47.9672-31.7217 47.2046-32.1089 46.1849-32.0615C44.2692-32.0615 42.8937-30.7769 42.8937-28.8124ZM43.1892 13.094L76.666 13.094C80.0531 13.094 82.2824 10.8647 82.2824 7.33927L82.2824-0.293182C82.2824-3.79617 80.0531-6.02546 76.666-6.02546L43.1892-6.02546C39.8021-6.02546 37.5728-3.79617 37.5728-0.293182L37.5728 7.33927C37.5728 10.8647 39.8021 13.094 43.1892 13.094ZM18.6914 15.3377C18.6914 25.6339 25.5406 32.2263 36.2321 32.2263L83.8439 32.2263C94.3867 32.2263 101.211 25.6339 101.211 15.3271L101.211-85.9336C101.211-96.2404 94.3867-102.833 83.8439-102.833L36.2321-102.833C25.5406-102.833 18.6914-96.2404 18.6914-85.9441ZM29.4257 12.9846L29.4257-83.591C29.4257-88.9977 32.4494-91.8251 37.9774-91.8251L81.8883-91.8251C87.4532-91.8251 90.4295-88.9767 90.4295-83.5805L90.4295 12.9741C90.4295 18.3703 87.4532 21.2411 81.8883 21.2411L37.9774 21.2411C32.4494 21.2411 29.4257 18.3913 29.4257 12.9846Z"/>
  </g>
  <g id="Regular-L" transform="matrix(1 0 0 1 1391.99 1556)">
   <path d="M41.2482-27.1695C41.2482-26.3427 41.4894-25.5989 42.0222-25.0411L55.5429-11.5705C56.2063-10.9599 57.0305-10.5604 57.8547-10.5604C58.6261-10.5604 59.5031-10.9599 60.0861-11.5705L73.6345-25.0411C74.22-25.5989 74.4612-26.3427 74.4612-27.1695C74.4612-28.951 73.2375-30.0944 71.4835-30.0944C70.604-30.1471 69.9683-29.828 69.3275-29.1872L64.0517-23.9919L60.5937-19.8505L60.86-26.9466L60.86-46.7494C60.86-48.5335 59.6363-49.81 57.8547-49.81C56.0731-49.81 54.7966-48.5335 54.7966-46.7494L54.7966-26.9466L55.0353-19.8505L51.5772-23.9919L46.3291-29.1872C45.6883-29.828 45.0777-30.1471 44.1731-30.0944C42.4719-30.0944 41.2482-28.951 41.2482-27.1695ZM41.0142 13.5656L74.6425 13.5656C78.0503 13.5656 80.2744 11.3415 80.2744 7.80046L80.2744 0.608178C80.2744-2.90519 78.0503-5.12929 74.6425-5.12929L41.0142-5.12929C37.6063-5.12929 35.3822-2.90519 35.3822 0.608178L35.3822 7.80046C35.3822 11.3415 37.6063 13.5656 41.0142 13.5656ZM18.6914 14.1903C18.6914 24.0292 25.1271 30.2288 35.3354 30.2288L80.3213 30.2288C90.5018 30.2288 97.0184 24.0292 97.0184 14.1903L97.0184-84.7548C97.0184-94.5937 90.5018-100.793 80.3213-100.793L35.3354-100.793C25.1271-100.793 18.6914-94.5937 18.6914-84.7548ZM27.3402 12.8712L27.3402-83.4357C27.3402-89.1864 30.4843-92.1444 36.3932-92.1444L79.2635-92.1444C85.2251-92.1444 88.3164-89.1864 88.3164-83.4357L88.3164 12.8712C88.3164 18.6218 85.2251 21.6076 79.2635 21.6076L36.3932 21.6076C30.4843 21.6076 27.3402 18.6218 27.3402 12.8712Z"/>
  </g>
  <g id="Light-L" transform="matrix(1 0 0 1 1097.11 1556)">
   <path d="M39.7214-26.4633C39.7214-25.732 39.9626-25.1409 40.419-24.6975L54.1688-10.9216C54.6795-10.4446 55.351-10.1023 56.0225-10.1023C56.6604-10.1023 57.3656-10.4446 57.7958-10.9216L71.5923-24.6975C72.0824-25.1409 72.3237-25.732 72.3237-26.4633C72.3237-27.9204 71.3098-28.8538 69.8994-28.8538C69.1344-28.8875 68.6705-28.6256 68.0869-28.0421L61.7233-21.7589L58.2653-17.9228L58.4935-23.6449L58.4935-46.2913C58.4935-47.8083 57.4797-48.8557 56.0225-48.8557C54.5654-48.8557 53.5179-47.8083 53.5179-46.2913L53.5179-23.6449L53.6993-17.9228L50.2413-21.7589L43.9244-28.0421C43.3408-28.6256 42.8638-28.8875 42.1119-28.8538C40.7352-28.8538 39.7214-27.9204 39.7214-26.4633ZM39.0484 14.0236L72.9629 14.0236C76.4471 14.0236 78.6521 11.8186 78.6521 8.22034L78.6521 1.44793C78.6521-2.10361 76.4471-4.30863 72.9629-4.30863L39.0484-4.30863C35.5642-4.30863 33.3592-2.10361 33.3592 1.44793L33.3592 8.22034C33.3592 11.8186 35.5642 14.0236 39.0484 14.0236ZM18.6914 13.0261C18.6914 22.8841 24.5737 28.6447 34.6674 28.6447L77.344 28.6447C87.3909 28.6447 93.3536 22.8841 93.3536 13.0261L93.3536-83.5524C93.3536-93.4104 87.3909-99.1711 77.344-99.1711L34.6674-99.1711C24.5737-99.1711 18.6914-93.4104 18.6914-83.5524ZM25.3172 12.1842L25.3172-82.7105C25.3172-89.3772 28.633-92.5452 35.4007-92.5452L76.6106-92.5452C83.412-92.5452 86.6941-89.3772 86.6941-82.7105L86.6941 12.1842C86.6941 18.8509 83.412 22.0656 76.6106 22.0656L35.4007 22.0656C28.633 22.0656 25.3172 18.8509 25.3172 12.1842Z"/>
  </g>
  <g id="Thin-L" transform="matrix(1 0 0 1 802.825 1556)">
   <path d="M37.702-25.5293C37.702-24.9242 37.9433-24.5351 38.2987-24.2432L52.3514-10.0634C52.6601-9.7631 53.1297-9.49654 53.5993-9.49654C54.0604-9.49654 54.5385-9.7631 54.7668-10.0634L68.8915-24.2432C69.2553-24.5351 69.4966-24.9242 69.4966-25.5293C69.4966-26.5574 68.7604-27.2131 67.8044-27.2131C67.1908-27.2216 66.954-27.0354 66.4462-26.5276L58.6438-18.8056L55.1858-15.3734L55.3635-19.278L55.3635-45.6855C55.3635-46.8491 54.6273-47.5937 53.5993-47.5937C52.5713-47.5937 51.8267-46.8491 51.8267-45.6855L51.8267-19.278L51.9324-15.3734L48.4743-18.8056L40.7439-26.5276C40.2361-27.0354 39.9358-27.2216 39.3858-27.2131C38.4382-27.2131 37.702-26.5574 37.702-25.5293ZM36.4485 14.6294L70.7417 14.6294C74.3268 14.6294 76.5066 12.4497 76.5066 8.77566L76.5066 2.55857C76.5066-1.04345 74.3268-3.22323 70.7417-3.22323L36.4485-3.22323C32.8633-3.22323 30.6836-1.04345 30.6836 2.55857L30.6836 8.77566C30.6836 12.4497 32.8633 14.6294 36.4485 14.6294ZM18.6914 11.4864C18.6914 21.3696 23.8416 26.5496 33.7839 26.5496L73.4062 26.5496C83.2765 26.5496 88.5072 21.3696 88.5072 11.4864L88.5072-81.9622C88.5072-91.8454 83.2765-97.0255 73.4062-97.0255L33.7839-97.0255C23.8416-97.0255 18.6914-91.8454 18.6914-81.9622ZM22.6416 11.2755L22.6416-81.7513C22.6416-89.6296 26.1845-93.0753 34.0882-93.0753L73.102-93.0753C81.0141-93.0753 84.5486-89.6296 84.5486-81.7513L84.5486 11.2755C84.5486 19.1538 81.0141 22.6714 73.102 22.6714L34.0882 22.6714C26.1845 22.6714 22.6416 19.1538 22.6416 11.2755Z"/>
  </g>
  <g id="Ultralight-L" transform="matrix(1 0 0 1 507.355 1556)">
   <path d="M36.6677-25.051C36.6677-24.5105 36.909-24.2248 37.2127-24.0105L51.4205-9.62384C51.6258-9.41403 51.992-9.18625 52.3581-9.18625C52.7288-9.18625 53.0905-9.41403 53.2154-9.62384L67.5081-24.0105C67.8073-24.2248 68.0486-24.5105 68.0486-25.051C68.0486-25.8592 67.4546-26.3728 66.7313-26.3728C66.1953-26.3683 66.0749-26.2209 65.6059-25.7519L57.0665-17.2929L53.6085-14.0676L53.7603-17.0414L53.7603-45.3752C53.7603-46.3578 53.1664-46.9472 52.3581-46.9472C51.5499-46.9472 50.9604-46.3578 50.9604-45.3752L50.9604-17.0414L51.0274-14.0676L47.5693-17.2929L39.1149-25.7519C38.6459-26.2209 38.4361-26.3683 37.9895-26.3728C37.2617-26.3728 36.6677-25.8592 36.6677-25.051ZM35.1168 14.9397L69.6039 14.9397C73.2408 14.9397 75.4077 12.7729 75.4077 9.06009L75.4077 3.12743C75.4077-0.500447 73.2408-2.66729 69.6039-2.66729L35.1168-2.66729C31.48-2.66729 29.3131-0.500447 29.3131 3.12743L29.3131 9.06009C29.3131 12.7729 31.48 14.9397 35.1168 14.9397ZM18.6914 10.6977C18.6914 20.5938 23.4667 25.4766 33.3314 25.4766L71.3894 25.4766C81.1691 25.4766 86.0249 20.5938 86.0249 10.6977L86.0249-81.1477C86.0249-91.0438 81.1691-95.9266 71.3894-95.9266L33.3314-95.9266C23.4667-95.9266 18.6914-91.0438 18.6914-81.1477ZM21.2711 10.81L21.2711-81.26C21.2711-89.7589 24.9304-93.3468 33.4159-93.3468L71.3049-93.3468C79.7858-93.3468 83.4496-89.7589 83.4496-81.26L83.4496 10.81C83.4496 19.3089 79.7858 22.9817 71.3049 22.9817L33.4159 22.9817C24.9304 22.9817 21.2711 19.3089 21.2711 10.81Z"/>
  </g>
  <g id="Black-M" transform="matrix(1 0 0 1 2873.61 1126)">
   <path d="M44.5842-37.6676C44.5842-36.4618 44.9424-35.4835 45.7845-34.5784L55.942-23.0622C56.9722-21.9233 58.3554-21.3773 59.7956-21.3773C61.2304-21.3773 62.6762-21.9804 63.6441-23.0622L73.8013-34.5784C74.6489-35.4835 75.0071-36.4618 75.0071-37.6676C75.0071-39.9308 73.3064-41.5122 70.9287-41.5122C69.6603-41.5177 68.4014-40.9198 67.6114-39.9015L65.1041-36.8284L64.3092-35.4993L64.559-38.963L64.559-50.3851C64.559-52.9277 62.5156-54.8053 59.7956-54.8053C57.0757-54.8053 55.0268-52.9277 55.0268-50.3851L55.0268-38.963L55.2769-35.4993L54.482-36.8284L51.9744-39.9015C51.1844-40.9198 49.9313-41.5177 48.6571-41.5122C46.2849-41.5122 44.5842-39.9308 44.5842-37.6676ZM47.1289 0.16889L72.4569 0.16889C75.0102 0.16889 76.755-1.57592 76.755-4.25418L76.755-12.0739C76.755-14.7525 75.0102-16.4973 72.4569-16.4973L47.1289-16.4973C44.5756-16.4973 42.8308-14.7525 42.8308-12.0739L42.8308-4.25418C42.8308-1.57592 44.5756 0.16889 47.1289 0.16889ZM18.6914 8.89302C18.6914 19.0061 25.7344 25.7931 36.2286 25.7931L84.5562 25.7931C94.3655 25.7931 100.9 19.0061 100.9 8.83592L100.9-79.5914C100.9-89.7616 94.3655-96.5485 84.5562-96.5485L36.2286-96.5485C25.7344-96.5485 18.6914-89.7616 18.6914-79.6485ZM36.0293 2.41804L36.0293-73.1735C36.0293-76.0728 37.8701-77.7261 40.6717-77.7261L78.9712-77.7261C81.7212-77.7261 83.5565-75.9586 83.5565-73.1164L83.5565 2.36094C83.5565 5.20315 81.7212 6.97032 78.9712 6.97032L40.6717 6.97032C37.8701 6.97032 36.0293 5.31734 36.0293 2.41804Z"/>
  </g>
  <g id="Heavy-M" transform="matrix(1 0 0 1 2579.19 1126)">
   <path d="M42.8031-35.7135C42.8031-34.6282 43.1209-33.7243 43.8719-32.9154L54.0736-21.6952C55.0025-20.6954 56.2305-20.1976 57.5021-20.1976C58.7573-20.1976 60.0453-20.7391 60.9119-21.6952L71.1158-32.9154C71.8833-33.7243 72.201-34.6282 72.201-35.7135C72.201-37.812 70.6497-39.2574 68.4662-39.2574C67.3209-39.2738 66.2198-38.751 65.4914-37.8481L62.7575-34.6967L61.5179-32.8829L61.7626-37.0115L61.7626-48.9762C61.7626-51.281 59.9495-52.9796 57.5021-52.9796C55.0546-52.9796 53.2251-51.281 53.2251-48.9762L53.2251-37.0115L53.4675-32.8829L52.2279-34.6967L49.4963-37.8481C48.7679-38.751 47.6809-39.2738 46.5215-39.2574C44.3545-39.2574 42.8031-37.812 42.8031-35.7135ZM44.7636 0.674921L70.2242 0.674921C72.7877 0.674921 74.53-1.06734 74.53-3.75326L74.53-11.0991C74.53-13.7827 72.7877-15.525 70.2242-15.525L44.7636-15.525C42.2-15.525 40.4577-13.7827 40.4577-11.0991L40.4577-3.75326C40.4577-1.06734 42.2 0.674921 44.7636 0.674921ZM18.6914 7.67254C18.6914 17.1953 25.3234 23.5731 35.2228 23.5731L80.6809 23.5731C90.0546 23.5731 96.3127 17.1953 96.3127 7.62892L96.3127-78.3388C96.3127-87.9053 90.0546-94.283 80.6809-94.283L35.2228-94.283C25.3234-94.283 18.6914-87.9053 18.6914-78.3825ZM33.791 2.42031L33.791-73.1302C33.791-76.2735 35.7491-78.0492 38.8544-78.0492L76.1769-78.0492C79.255-78.0492 81.1967-76.1863 81.1967-73.0866L81.1967 2.37669C81.1967 5.47637 79.255 7.34161 76.1769 7.34161L38.8544 7.34161C35.7491 7.34161 33.791 5.56362 33.791 2.42031Z"/>
  </g>
  <g id="Bold-M" transform="matrix(1 0 0 1 2285.04 1126)">
   <path d="M40.8107-33.5275C40.8107-32.5772 41.0832-31.7564 41.7324-31.0551L51.9834-20.1659C52.799-19.3219 53.8534-18.8778 54.9363-18.8778C55.9906-18.8778 57.1021-19.3504 57.8554-20.1659L68.1116-31.0551C68.7894-31.7564 69.0619-32.5772 69.0619-33.5275C69.0619-35.4417 67.6777-36.7351 65.7115-36.7351C64.704-36.7637 63.7794-36.3249 63.1198-35.5511L60.1325-32.3121L58.3955-29.9562L58.6344-34.8285L58.6344-47.4003C58.6344-49.4388 57.0789-50.9373 54.9363-50.9373C52.7937-50.9373 51.2096-49.4388 51.2096-47.4003L51.2096-34.8285L51.4434-29.9562L49.7064-32.3121L46.7241-35.5511C46.0646-36.3249 45.1635-36.7637 44.1324-36.7351C42.1949-36.7351 40.8107-35.4417 40.8107-33.5275ZM42.1175 1.24099L67.7265 1.24099C70.3015 1.24099 72.0409-0.498408 72.0409-3.19291L72.0409-10.0085C72.0409-12.6979 70.3015-14.4373 67.7265-14.4373L42.1175-14.4373C39.5425-14.4373 37.8031-12.6979 37.8031-10.0085L37.8031-3.19291C37.8031-0.498408 39.5425 1.24099 42.1175 1.24099ZM18.6914 6.30727C18.6914 15.1697 24.8636 21.0898 34.0977 21.0898L76.3458 21.0898C85.2321 21.0898 91.1812 15.1697 91.1812 6.27872L91.1812-76.9377C91.1812-85.8287 85.2321-91.7487 76.3458-91.7487L34.0977-91.7487C24.8636-91.7487 18.6914-85.8287 18.6914-76.9662ZM31.2871 2.42286L31.2871-73.0818C31.2871-76.4981 33.3764-78.4108 36.8215-78.4108L73.051-78.4108C76.4961-78.4108 78.5569-76.441 78.5569-73.0533L78.5569 2.39431C78.5569 5.78202 76.4961 7.75694 73.051 7.75694L36.8215 7.75694C33.3764 7.75694 31.2871 5.83911 31.2871 2.42286Z"/>
  </g>
  <g id="Semibold-M" transform="matrix(1 0 0 1 1990.1 1126)">
   <path d="M39.4371-32.0205C39.4371-31.1632 39.6785-30.3997 40.2574-29.7727L50.5425-19.1117C51.2799-18.375 52.2146-17.968 53.1675-17.968C54.0833-17.968 55.0731-18.3931 55.7483-19.1117L66.0405-29.7727C66.6565-30.3997 66.8978-31.1632 66.8978-32.0205C66.8978-33.8077 65.6288-34.9963 63.8125-34.9963C62.8999-35.0333 62.0969-34.6523 61.4849-33.9676L58.3228-30.6681L56.2428-27.9385L56.4778-33.3235L56.4778-46.3138C56.4778-48.1689 55.0999-49.5294 53.1675-49.5294C51.2351-49.5294 49.8201-48.1689 49.8201-46.3138L49.8201-33.3235L50.048-27.9385L47.968-30.6681L44.813-33.9676C44.201-34.6523 43.4279-35.0333 42.4854-34.9963C40.7061-34.9963 39.4371-33.8077 39.4371-32.0205ZM40.2933 1.63123L66.0046 1.63123C68.5875 1.63123 70.3249-0.106192 70.3249-2.80661L70.3249-9.25669C70.3249-11.95 68.5875-13.6874 66.0046-13.6874L40.2933-13.6874C37.7104-13.6874 35.9729-11.95 35.9729-9.25669L35.9729-2.80661C35.9729-0.106192 37.7104 1.63123 40.2933 1.63123ZM18.6914 5.36606C18.6914 13.7732 24.5466 19.3778 33.322 19.3778L73.3571 19.3778C81.9075 19.3778 87.6436 13.7732 87.6436 5.3479L87.6436-75.9718C87.6436-84.3971 81.9075-90.0016 73.3571-90.0016L33.322-90.0016C24.5466-90.0016 18.6914-84.3971 18.6914-75.9899ZM29.5609 2.42461L29.5609-73.0485C29.5609-76.6529 31.7407-78.66 35.42-78.66L70.8961-78.66C74.5942-78.66 76.737-76.6166 76.737-73.0303L76.737 2.40646C76.737 5.99273 74.5942 8.04327 70.8961 8.04327L35.42 8.04327C31.7407 8.04327 29.5609 6.02904 29.5609 2.42461Z"/>
  </g>
  <g id="Medium-M" transform="matrix(1 0 0 1 1694.73 1126)">
   <path d="M38.3957-30.8779C38.3957-30.091 38.6134-29.371 39.1391-28.8002L49.45-18.3123C50.1282-17.657 50.9721-17.2781 51.8263-17.2781C52.6371-17.2781 53.5348-17.6673 54.1507-18.3123L64.4702-28.8002C65.0393-29.371 65.257-30.091 65.257-30.8779C65.257-32.5687 64.0754-33.6778 62.3726-33.6778C61.532-33.7212 60.8213-33.3841 60.2453-32.7669L56.9506-29.4216L54.6107-26.4087L54.8427-32.1823L54.8427-45.49C54.8427-47.2059 53.5994-48.4619 51.8263-48.4619C50.0533-48.4619 48.7665-47.2059 48.7665-45.49L48.7665-32.1823L48.99-26.4087L46.65-29.4216L43.364-32.7669C42.788-33.3841 42.1121-33.7212 41.2367-33.6778C39.5773-33.6778 38.3957-32.5687 38.3957-30.8779ZM38.9102 1.92713L64.6991 1.92713C67.288 1.92713 69.0239 0.191202 69.0239-2.5137L69.0239-8.68663C69.0239-11.3829 67.288-13.1189 64.6991-13.1189L38.9102-13.1189C36.3213-13.1189 34.5854-11.3829 34.5854-8.68663L34.5854-2.5137C34.5854 0.191202 36.3213 1.92713 38.9102 1.92713ZM18.6914 4.65239C18.6914 12.7144 24.3064 18.0797 32.734 18.0797L71.0911 18.0797C79.3868 18.0797 84.9613 12.7144 84.9613 4.64211L84.9613-75.2393C84.9613-83.3116 79.3868-88.6769 71.0911-88.6769L32.734-88.6769C24.3064-88.6769 18.6914-83.3116 18.6914-75.2496ZM28.2521 2.42595L28.2521-73.0232C28.2521-76.7703 30.5005-78.849 34.3574-78.849L69.2622-78.849C73.1521-78.849 75.3572-76.7497 75.3572-73.0129L75.3572 2.41567C75.3572 6.1525 73.1521 8.26037 69.2622 8.26037L34.3574 8.26037C30.5005 8.26037 28.2521 6.17305 28.2521 2.42595Z"/>
  </g>
  <g id="Regular-M" transform="matrix(1 0 0 1 1399.77 1126)">
   <path d="M37.0372-29.3874C37.0372-28.6925 37.2241-28.0293 37.6803-27.5319L48.0249-17.2697C48.6258-16.7205 49.3514-16.3783 50.0769-16.3783C50.7507-16.3783 51.528-16.7205 52.0667-17.2697L62.4218-27.5319C62.9298-28.0293 63.1167-28.6925 63.1167-29.3874C63.1167-30.9526 62.049-31.958 60.4944-31.958C59.7477-32.0098 59.1573-31.7299 58.6282-31.2008L55.1608-27.7957L52.4817-24.4132L52.7098-30.6939L52.7098-44.4154C52.7098-45.9499 51.6421-47.0694 50.0769-47.0694C48.5118-47.0694 47.3923-45.9499 47.3923-44.4154L47.3923-30.6939L47.6099-24.4132L44.9308-27.7957L41.4739-31.2008C40.9448-31.7299 40.3956-32.0098 39.6078-31.958C38.1049-31.958 37.0372-30.9526 37.0372-29.3874ZM37.106 2.31309L62.9961 2.31309C65.5928 2.31309 67.3268 0.579108 67.3268-2.13165L67.3268-7.94308C67.3268-10.6433 65.5928-12.3773 62.9961-12.3773L37.106-12.3773C34.5093-12.3773 32.7753-10.6433 32.7753-7.94308L32.7753-2.13165C32.7753 0.579108 34.5093 2.31309 37.106 2.31309ZM18.6914 3.72152C18.6914 11.3332 23.9928 16.3865 31.9668 16.3865L68.1353 16.3865C76.0987 16.3865 81.4625 11.3332 81.4625 3.72152L81.4625-74.284C81.4625-81.8957 76.0987-86.949 68.1353-86.949L31.9668-86.949C23.9928-86.949 18.6914-81.8957 18.6914-74.284ZM26.5449 2.42768L26.5449-72.9902C26.5449-76.9234 28.8828-79.0955 32.9713-79.0955L67.1309-79.0955C71.2711-79.0955 73.5573-76.9234 73.5573-72.9902L73.5573 2.42768C73.5573 6.36089 71.2711 8.54356 67.1309 8.54356L32.9713 8.54356C28.8828 8.54356 26.5449 6.36089 26.5449 2.42768Z"/>
  </g>
  <g id="Light-M" transform="matrix(1 0 0 1 1104.7 1126)">
   <path d="M35.6683-28.7543C35.6683-28.145 35.8552-27.6186 36.243-27.2239L46.7929-16.6879C47.257-16.2585 47.8456-15.9677 48.4343-15.9677C48.9883-15.9677 49.6116-16.2585 50.0134-16.6879L60.5909-27.2239C61.0134-27.6186 61.2003-28.145 61.2003-28.7543C61.2003-30.0286 60.3208-30.8458 59.0742-30.8458C58.4302-30.8805 57.9938-30.6519 57.516-30.1742L53.0733-25.7937L50.3942-22.6849L50.5881-27.7337L50.5881-44.0048C50.5881-45.2997 49.7086-46.2139 48.4343-46.2139C47.16-46.2139 46.2459-45.2997 46.2459-44.0048L46.2459-27.7337L46.4121-22.6849L43.733-25.7937L39.3179-30.1742C38.8402-30.6519 38.4107-30.8805 37.7598-30.8458C36.5478-30.8458 35.6683-30.0286 35.6683-28.7543ZM35.3436 2.72375L61.4904 2.72375C64.1555 2.72375 65.8724 1.00688 65.8724-1.75521L65.8724-7.1902C65.8724-9.92462 64.1555-11.6415 61.4904-11.6415L35.3436-11.6415C32.6784-11.6415 30.9616-9.92462 30.9616-7.1902L30.9616-1.75521C30.9616 1.00688 32.6784 2.72375 35.3436 2.72375ZM18.6914 2.67776C18.6914 10.3066 23.4966 14.9663 31.368 14.9663L65.466 14.9663C73.3097 14.9663 78.1772 10.3066 78.1772 2.67776L78.1772-73.206C78.1772-80.8349 73.3097-85.4945 65.466-85.4945L31.368-85.4945C23.4966-85.4945 18.6914-80.8349 18.6914-73.206ZM24.7311 1.81169L24.7311-72.34C24.7311-77.0945 27.223-79.4548 32.0815-79.4548L64.7524-79.4548C69.6455-79.4548 72.1028-77.0945 72.1028-72.34L72.1028 1.81169C72.1028 6.56622 69.6455 8.95422 64.7524 8.95422L32.0815 8.95422C27.223 8.95422 24.7311 6.56622 24.7311 1.81169Z"/>
  </g>
  <g id="Thin-M" transform="matrix(1 0 0 1 810.162 1126)">
   <path d="M33.8578-27.917C33.8578-27.4208 34.0448-27.0755 34.342-26.8165L45.1635-15.9185C45.4465-15.6475 45.8541-15.4245 46.2618-15.4245C46.6574-15.4245 47.077-15.6475 47.2977-15.9185L58.1695-26.8165C58.4788-27.0755 58.6657-27.4208 58.6657-27.917C58.6657-28.8066 58.0351-29.3748 57.1958-29.3748C56.6876-29.3868 56.4549-29.2262 56.045-28.8163L50.3124-23.1459L47.6333-20.3993L47.7819-23.8186L47.7819-43.4616C47.7819-44.4398 47.1513-45.0823 46.2618-45.0823C45.3722-45.0823 44.7296-44.4398 44.7296-43.4616L44.7296-23.8186L44.828-20.3993L42.1489-23.1459L36.4665-28.8163C36.0566-29.2262 35.7856-29.3868 35.3157-29.3748C34.4884-29.3748 33.8578-28.8066 33.8578-27.917ZM33.0126 3.26689L59.4989 3.26689C62.2545 3.26689 63.9488 1.57265 63.9488-1.25733L63.9488-6.19445C63.9488-8.97414 62.2545-10.6684 59.4989-10.6684L33.0126-10.6684C30.257-10.6684 28.5627-8.97414 28.5627-6.19445L28.5627-1.25733C28.5627 1.57265 30.257 3.26689 33.0126 3.26689ZM18.6914 1.29729C18.6914 8.94875 22.8403 13.0879 30.5759 13.0879L61.9356 13.0879C69.6209 13.0879 73.8321 8.94875 73.8321 1.29729L73.8321-71.7803C73.8321-79.4318 69.6209-83.5709 61.9356-83.5709L30.5759-83.5709C22.8403-83.5709 18.6914-79.4318 18.6914-71.7803ZM22.3323 0.996987L22.3323-71.48C22.3323-77.3208 25.0279-79.9301 30.9047-79.9301L61.6068-79.9301C67.4956-79.9301 70.1792-77.3208 70.1792-71.48L70.1792 0.996987C70.1792 6.83779 67.4956 9.49735 61.6068 9.49735L30.9047 9.49735C25.0279 9.49735 22.3323 6.83779 22.3323 0.996987Z"/>
  </g>
  <g id="Ultralight-M" transform="matrix(1 0 0 1 514.564 1126)">
   <path d="M32.9305-27.4881C32.9305-27.0499 33.1175-26.7973 33.3684-26.6079L44.3289-15.5244C44.5192-15.3345 44.8341-15.1463 45.149-15.1463C45.4635-15.1463 45.7788-15.3345 45.9068-15.5244L56.9292-26.6079C57.1805-26.7973 57.3674-27.0499 57.3674-27.4881C57.3674-28.1806 56.8644-28.6214 56.2338-28.6214C55.7951-28.6218 55.6667-28.4959 55.2916-28.1209L48.8982-21.7898L46.2191-19.2285L46.3446-21.8133L46.3446-43.1834C46.3446-43.9993 45.8415-44.5028 45.149-44.5028C44.4565-44.5028 43.953-43.9993 43.953-43.1834L43.953-21.8133L44.0166-19.2285L41.3375-21.7898L35.006-28.1209C34.6309-28.4959 34.441-28.6218 34.0638-28.6214C33.4336-28.6214 32.9305-28.1806 32.9305-27.4881ZM31.8187 3.54508L58.4788 3.54508C61.2809 3.54508 62.9635 1.86243 62.9635-1.00232L62.9635-5.68443C62.9635-8.4873 61.2809-10.17 58.4788-10.17L31.8187-10.17C29.0167-10.17 27.3341-8.4873 27.3341-5.68443L27.3341-1.00232C27.3341 1.86243 29.0167 3.54508 31.8187 3.54508ZM18.6914 0.590222C18.6914 8.25328 22.5042 12.1258 30.1702 12.1258L60.1274 12.1258C67.7315 12.1258 71.6066 8.25328 71.6066 0.590222L71.6066-71.05C71.6066-78.7131 67.7315-82.5857 60.1274-82.5857L30.1702-82.5857C22.5042-82.5857 18.6914-78.7131 18.6914-71.05ZM21.1036 0.579701L21.1036-71.0395C21.1036-77.4367 23.9035-80.1735 30.302-80.1735L59.9956-80.1735C66.3945-80.1735 69.194-77.4367 69.194-71.0395L69.194 0.579701C69.194 6.97688 66.3945 9.77554 59.9956 9.77554L30.302 9.77554C23.9035 9.77554 21.1036 6.97688 21.1036 0.579701Z"/>
  </g>
  <g id="Black-S" transform="matrix(1 0 0 1 2881.9 696)">
   <path d="M39.4434-37.6953C39.4434-36.7188 39.7364-35.9375 40.4199-35.2051L48.3789-26.0742C49.209-25.1465 50.3321-24.707 51.5039-24.707C52.6758-24.707 53.8477-25.1953 54.6289-26.0742L62.5879-35.2051C63.2715-35.9375 63.5645-36.7188 63.5645-37.6953C63.5645-39.502 62.1973-40.7715 60.293-40.7715C59.2676-40.7715 58.2422-40.2832 57.6074-39.4531L55.6543-37.0117L55.166-36.1328L55.3614-38.5742L55.3614-47.5098C55.3614-49.5605 53.7012-51.0742 51.5039-51.0742C49.3067-51.0742 47.6465-49.5605 47.6465-47.5098L47.6465-38.5742L47.8418-36.1328L47.3535-37.0117L45.4004-39.4531C44.7656-40.2832 43.7403-40.7715 42.7149-40.7715C40.8106-40.7715 39.4434-39.502 39.4434-37.6953ZM41.5918-7.61719L61.416-7.61719C63.418-7.61719 64.7852-8.98438 64.7852-11.084L64.7852-17.334C64.7852-19.4336 63.418-20.8008 61.416-20.8008L41.5918-20.8008C39.5899-20.8008 38.2227-19.4336 38.2227-17.334L38.2227-11.084C38.2227-8.98438 39.5899-7.61719 41.5918-7.61719ZM18.6914-0.341797C18.6914 7.76367 24.3067 13.1836 32.7051 13.1836L71.3282 13.1836C79.1406 13.1836 84.3164 7.76367 84.3164-0.390625L84.3164-70.3125C84.3164-78.4668 79.1406-83.8867 71.3282-83.8867L32.7051-83.8867C24.3067-83.8867 18.6914-78.4668 18.6914-70.3613ZM32.8516-5.76172L32.8516-64.9414C32.8516-67.1875 34.2676-68.457 36.416-68.457L66.6406-68.457C68.7403-68.457 70.1563-67.0898 70.1563-64.8926L70.1563-5.81055C70.1563-3.61328 68.7403-2.24609 66.6406-2.24609L36.416-2.24609C34.2676-2.24609 32.8516-3.51562 32.8516-5.76172Z"/>
  </g>
  <g id="Heavy-S" transform="matrix(1 0 0 1 2586.94 696)">
   <path d="M38.0949-36.1049C38.0949-35.2206 38.3533-34.4854 38.9678-33.8221L46.9383-24.9794C47.6992-24.1554 48.707-23.7505 49.7521-23.7505C50.7857-23.7505 51.8423-24.1927 52.5545-24.9794L60.525-33.8221C61.1509-34.4854 61.4093-35.2206 61.4093-36.1049C61.4093-37.8079 60.1459-38.9852 58.3683-38.9852C57.4351-38.9967 56.525-38.5661 55.9363-37.8282L53.9141-35.4444L53.0455-34.116L53.2408-37.2835L53.2408-46.3573C53.2408-48.2352 51.7535-49.6221 49.7521-49.6221C47.7508-49.6221 46.252-48.2352 46.252-46.3573L46.252-37.2835L46.4473-34.116L45.5787-35.4444L43.5564-37.8282C42.9678-38.5661 42.0691-38.9967 41.1244-38.9852C39.3584-38.9852 38.0949-37.8079 38.0949-36.1049ZM39.7939-7.23688L59.6988-7.23688C61.7008-7.23688 63.068-8.60407 63.068-10.7037L63.068-16.5964C63.068-18.696 61.7008-20.0632 59.6988-20.0632L39.7939-20.0632C37.792-20.0632 36.4248-18.696 36.4248-16.5964L36.4248-10.7037C36.4248-8.60407 37.792-7.23688 39.7939-7.23688ZM18.6914-1.25223C18.6914 6.34616 24.0185 11.4664 31.9214 11.4664L68.3548 11.4664C75.81 11.4664 80.8129 6.34616 80.8129-1.28953L80.8129-69.379C80.8129-77.0147 75.81-82.135 68.3548-82.135L31.9214-82.135C24.0185-82.135 18.6914-77.0147 18.6914-69.4163ZM31.1689-5.68105L31.1689-64.9875C31.1689-67.3373 32.6656-68.6875 34.9754-68.6875L64.5546-68.6875C66.8386-68.6875 68.3238-67.2627 68.3238-64.9502L68.3238-5.71835C68.3238-3.40584 66.8386-1.98103 64.5546-1.98103L34.9754-1.98103C32.6656-1.98103 31.1689-3.33123 31.1689-5.68105Z"/>
  </g>
  <g id="Bold-S" transform="matrix(1 0 0 1 2292.19 696)">
   <path d="M36.5869-34.3262C36.5869-33.5449 36.8067-32.8613 37.3438-32.2754L45.3272-23.7549C46.0108-23.0469 46.8897-22.6807 47.793-22.6807C48.6719-22.6807 49.5996-23.0713 50.2344-23.7549L58.2178-32.2754C58.7793-32.8613 58.9991-33.5449 58.9991-34.3262C58.9991-35.9131 57.8516-36.9873 56.2158-36.9873C55.3858-37.0117 54.6045-36.6455 54.0674-36.0107L51.9678-33.6914L50.6739-31.8604L50.8692-35.8398L50.8692-45.0684C50.8692-46.7529 49.5752-47.998 47.793-47.998C46.0108-47.998 44.6924-46.7529 44.6924-45.0684L44.6924-35.8398L44.8877-31.8604L43.5938-33.6914L41.4942-36.0107C40.9571-36.6455 40.2002-37.0117 39.3457-36.9873C37.7344-36.9873 36.5869-35.9131 36.5869-34.3262ZM37.7832-6.81152L57.7783-6.81152C59.7803-6.81152 61.1475-8.17871 61.1475-10.2783L61.1475-15.7715C61.1475-17.8711 59.7803-19.2383 57.7783-19.2383L37.7832-19.2383C35.7813-19.2383 34.4141-17.8711 34.4141-15.7715L34.4141-10.2783C34.4141-8.17871 35.7813-6.81152 37.7832-6.81152ZM18.6914-2.27051C18.6914 4.76074 23.6963 9.5459 31.0449 9.5459L65.0293 9.5459C72.085 9.5459 76.8946 4.76074 76.8946-2.29492L76.8946-68.335C76.8946-75.3906 72.085-80.1758 65.0293-80.1758L31.0449-80.1758C23.6963-80.1758 18.6914-75.3906 18.6914-68.3594ZM29.2871-5.59082L29.2871-65.0391C29.2871-67.5049 30.8741-68.9453 33.3643-68.9453L62.2217-68.9453C64.7119-68.9453 66.2744-67.4561 66.2744-65.0146L66.2744-5.61523C66.2744-3.17383 64.7119-1.68457 62.2217-1.68457L33.3643-1.68457C30.8741-1.68457 29.2871-3.125 29.2871-5.59082Z"/>
  </g>
  <g id="Semibold-S" transform="matrix(1 0 0 1 1996.83 696)">
   <path d="M35.5471-33.0998C35.5471-32.3896 35.7402-31.7416 36.224-31.209L44.2163-22.9106C44.8465-22.2826 45.6366-21.9431 46.4422-21.9431C47.2144-21.9431 48.0533-22.2981 48.6347-22.9106L56.627-31.209C57.1441-31.7416 57.3372-32.3896 57.3372-33.0998C57.3372-34.6067 56.2697-35.6099 54.7317-35.6099C53.9727-35.6432 53.2803-35.3214 52.7788-34.7577L50.6258-32.4828L49.0386-30.3052L49.2339-34.8445L49.2339-44.1797C49.2339-45.731 48.0733-46.8783 46.4422-46.8783C44.811-46.8783 43.6171-45.731 43.6171-44.1797L43.6171-34.8445L43.8124-30.3052L42.2252-32.4828L40.0722-34.7577C39.5707-35.3214 38.9116-35.6432 38.1193-35.6099C36.6146-35.6099 35.5471-34.6067 35.5471-33.0998ZM36.3968-6.51826L56.4542-6.51826C58.4561-6.51826 59.8233-7.88545 59.8233-9.98506L59.8233-15.2027C59.8233-17.3023 58.4561-18.6695 56.4542-18.6695L36.3968-18.6695C34.3949-18.6695 33.0277-17.3023 33.0277-15.2027L33.0277-9.98506C33.0277-7.88545 34.3949-6.51826 36.3968-6.51826ZM18.6914-2.97256C18.6914 3.66768 23.4741 8.22178 30.4406 8.22178L62.7365 8.22178C69.5167 8.22178 74.1929 3.66768 74.1929-2.98809L74.1929-67.6151C74.1929-74.2709 69.5167-78.825 62.7365-78.825L30.4406-78.825C23.4741-78.825 18.6914-74.2709 18.6914-67.6307ZM27.9896-5.52861L27.9896-65.0746C27.9896-67.6204 29.6387-69.123 32.2534-69.123L60.6131-69.123C63.2456-69.123 64.8614-67.5894 64.8614-65.0591L64.8614-5.54414C64.8614-3.01387 63.2456-1.48018 60.6131-1.48018L32.2534-1.48018C29.6387-1.48018 27.9896-2.98281 27.9896-5.52861Z"/>
  </g>
  <g id="Medium-S" transform="matrix(1 0 0 1 1701.14 696)">
   <path d="M34.7588-32.1699C34.7588-31.5137 34.9316-30.8926 35.375-30.4004L43.374-22.2705C43.9638-21.7031 44.6865-21.3838 45.4179-21.3838C46.1094-21.3838 46.8808-21.7119 47.4219-22.2705L55.4209-30.4004C55.9043-30.8926 56.0771-31.5137 56.0771-32.1699C56.0771-33.6162 55.0703-34.5654 53.6064-34.5654C52.9013-34.6055 52.2763-34.3174 51.8017-33.8076L49.6084-31.5664L47.7988-29.126L47.9941-34.0898L47.9941-43.5059C47.9941-44.9561 46.9345-46.0293 45.4179-46.0293C43.9013-46.0293 42.8017-44.9561 42.8017-43.5059L42.8017-34.0898L42.997-29.126L41.1875-31.5664L38.9941-33.8076C38.5195-34.3174 37.9345-34.6055 37.1894-34.5654C35.7656-34.5654 34.7588-33.6162 34.7588-32.1699ZM35.3457-6.2959L55.4502-6.2959C57.4521-6.2959 58.8193-7.66309 58.8193-9.7627L58.8193-14.7715C58.8193-16.8711 57.4521-18.2383 55.4502-18.2383L35.3457-18.2383C33.3437-18.2383 31.9765-16.8711 31.9765-14.7715L31.9765-9.7627C31.9765-7.66309 33.3437-6.2959 35.3457-6.2959ZM18.6914-3.50488C18.6914 2.83887 23.3056 7.21777 29.9824 7.21777L60.998 7.21777C67.5693 7.21777 72.1445 2.83887 72.1445-3.51367L72.1445-67.0693C72.1445-73.4219 67.5693-77.8008 60.998-77.8008L29.9824-77.8008C23.3056-77.8008 18.6914-73.4219 18.6914-67.0781ZM27.0058-5.48145L27.0058-65.1016C27.0058-67.708 28.7021-69.2578 31.4111-69.2578L59.3935-69.2578C62.1338-69.2578 63.79-67.6904 63.79-65.0928L63.79-5.49023C63.79-2.89258 62.1338-1.3252 59.3935-1.3252L31.4111-1.3252C28.7021-1.3252 27.0058-2.875 27.0058-5.48145Z"/>
  </g>
  <g id="Regular-S" transform="matrix(1 0 0 1 1405.76 696)">
   <path d="M33.7305-30.957C33.7305-30.3711 33.877-29.7852 34.2676-29.3457L42.2754-21.4355C42.8125-20.9473 43.4473-20.6543 44.0821-20.6543C44.668-20.6543 45.3516-20.9473 45.8399-21.4355L53.8477-29.3457C54.2871-29.7852 54.4336-30.3711 54.4336-30.957C54.4336-32.3242 53.5059-33.2031 52.1387-33.2031C51.5039-33.252 50.9668-33.0078 50.5274-32.5684L48.2813-30.3711L46.1817-27.5879L46.377-33.1055L46.377-42.627C46.377-43.9453 45.4492-44.9219 44.0821-44.9219C42.7149-44.9219 41.7383-43.9453 41.7383-42.627L41.7383-33.1055L41.9336-27.5879L39.834-30.3711L37.5879-32.5684C37.1485-33.0078 36.6602-33.252 35.9766-33.2031C34.6582-33.2031 33.7305-32.3242 33.7305-30.957ZM33.9746-6.00586L54.1407-6.00586C56.1426-6.00586 57.5098-7.37305 57.5098-9.47266L57.5098-14.209C57.5098-16.3086 56.1426-17.6758 54.1407-17.6758L33.9746-17.6758C31.9727-17.6758 30.6055-16.3086 30.6055-14.209L30.6055-9.47266C30.6055-7.37305 31.9727-6.00586 33.9746-6.00586ZM18.6914-4.19922C18.6914 1.75781 23.086 5.9082 29.3848 5.9082L58.7305 5.9082C65.0293 5.9082 69.4727 1.75781 69.4727-4.19922L69.4727-66.3574C69.4727-72.3145 65.0293-76.4648 58.7305-76.4648L29.3848-76.4648C23.086-76.4648 18.6914-72.3145 18.6914-66.3574ZM25.7227-5.41992L25.7227-65.1367C25.7227-67.8223 27.4805-69.4336 30.3125-69.4336L57.8028-69.4336C60.6836-69.4336 62.3926-67.8223 62.3926-65.1367L62.3926-5.41992C62.3926-2.73438 60.6836-1.12305 57.8028-1.12305L30.3125-1.12305C27.4805-1.12305 25.7227-2.73438 25.7227-5.41992Z"/>
  </g>
  <g id="Light-S" transform="matrix(1 0 0 1 1110.51 696)">
   <path d="M32.5196-30.397C32.5196-29.8867 32.6661-29.4219 32.9961-29.0732L41.1856-20.9209C41.6016-20.5386 42.1153-20.291 42.6289-20.291C43.1089-20.291 43.6563-20.5386 44.0235-20.9209L52.2281-29.0732C52.5918-29.4219 52.7383-29.8867 52.7383-30.397C52.7383-31.5068 51.9771-32.2192 50.8824-32.2192C50.3384-32.2529 49.9375-32.0542 49.5435-31.6602L46.4346-28.6001L44.335-26.0591L44.5-30.4868L44.5-42.2637C44.5-43.3701 43.7388-44.165 42.6289-44.165C41.5191-44.165 40.7242-43.3701 40.7242-42.2637L40.7242-30.4868L40.8741-26.0591L38.7745-28.6001L35.6807-31.6602C35.2867-32.0542 34.9043-32.2529 34.3418-32.2192C33.2808-32.2192 32.5196-31.5068 32.5196-30.397ZM32.4156-5.64258L52.8086-5.64258C54.8711-5.64258 56.2232-6.99463 56.2232-9.13965L56.2232-13.543C56.2232-15.6729 54.8711-17.0249 52.8086-17.0249L32.4156-17.0249C30.3531-17.0249 29.001-15.6729 29.001-13.543L29.001-9.13965C29.001-6.99463 30.3531-5.64258 32.4156-5.64258ZM18.6914-5.12255C18.6914 0.849617 22.647 4.65187 28.855 4.65187L56.3692 4.65187C62.5621 4.65187 66.5665 0.849617 66.5665-5.12255L66.5665-65.4038C66.5665-71.376 62.5621-75.1782 56.3692-75.1782L28.855-75.1782C22.647-75.1782 18.6914-71.376 18.6914-65.4038ZM24.1182-5.96484L24.1182-64.5615C24.1182-67.9736 26.0122-69.7515 29.5254-69.7515L55.6988-69.7515C59.2456-69.7515 61.106-67.9736 61.106-64.5615L61.106-5.96484C61.106-2.55274 59.2456-0.759768 55.6988-0.759768L29.5254-0.759768C26.0122-0.759768 24.1182-2.55274 24.1182-5.96484Z"/>
  </g>
  <g id="Thin-S" transform="matrix(1 0 0 1 815.717 696)">
   <path d="M30.918-29.6563C30.918-29.2461 31.0645-28.9414 31.3145-28.7129L39.7442-20.2402C40.0001-19.9981 40.3536-19.8106 40.7071-19.8106C41.0469-19.8106 41.4141-19.9981 41.6212-20.2402L50.086-28.7129C50.3497-28.9414 50.4962-29.2461 50.4962-29.6563C50.4962-30.4258 49.9551-30.918 49.2208-30.918C48.7969-30.9317 48.5762-30.793 48.2422-30.459L43.9923-26.2578L41.8926-24.0371L42.0176-27.0235L42.0176-41.7832C42.0176-42.6094 41.4766-43.1641 40.7071-43.1641C39.9376-43.1641 39.3829-42.6094 39.3829-41.7832L39.3829-27.0235L39.4727-24.0371L37.3731-26.2578L33.1583-30.459C32.8243-30.793 32.5821-30.9317 32.1797-30.918C31.459-30.918 30.918-30.4258 30.918-29.6563ZM30.3536-5.16212L51.0469-5.16212C53.1895-5.16212 54.5215-6.49415 54.5215-8.69922L54.5215-12.6621C54.5215-14.832 53.1895-16.1641 51.0469-16.1641L30.3536-16.1641C28.211-16.1641 26.879-14.832 26.879-12.6621L26.879-8.69922C26.879-6.49415 28.211-5.16212 30.3536-5.16212ZM18.6914-6.34373C18.6914-0.351546 22.0664 2.99026 28.1543 2.99026L53.2462 2.99026C59.2989 2.99026 62.7227-0.351546 62.7227-6.34373L62.7227-64.1426C62.7227-70.1348 59.2989-73.4766 53.2462-73.4766L28.1543-73.4766C22.0664-73.4766 18.6914-70.1348 18.6914-64.1426ZM21.9962-6.68554L21.9962-63.8008C21.9962-68.1738 24.0704-70.1719 28.4844-70.1719L52.9161-70.1719C57.3438-70.1719 59.4044-68.1738 59.4044-63.8008L59.4044-6.68554C59.4044-2.3125 57.3438-0.279304 52.9161-0.279304L28.4844-0.279304C24.0704-0.279304 21.9962-2.3125 21.9962-6.68554Z"/>
  </g>
  <g id="Ultralight-S" transform="matrix(1 0 0 1 519.99 696)">
   <path d="M30.0977-29.2769C30.0977-28.918 30.2442-28.6953 30.4532-28.5283L39.0059-19.8916C39.1797-19.7212 39.4512-19.5645 39.7227-19.5645C39.9908-19.5645 40.2657-19.7212 40.3907-19.8916L48.9888-28.5283C49.2012-28.6953 49.3477-28.918 49.3477-29.2769C49.3477-29.8721 48.9195-30.2515 48.3697-30.2515C48.0074-30.2549 47.879-30.147 47.5757-29.8438L42.7413-25.0581L40.6417-23.0015L40.7462-25.2496L40.7462-41.5371C40.7462-42.2197 40.3179-42.6514 39.7227-42.6514C39.1275-42.6514 38.6959-42.2197 38.6959-41.5371L38.6959-25.2496L38.7549-23.0015L36.6553-25.0581L31.8663-29.8438C31.5631-30.147 31.3927-30.2549 31.0723-30.2515C30.5259-30.2515 30.0977-29.8721 30.0977-29.2769ZM29.2974-4.91602L50.1446-4.91602C52.3282-4.91602 53.65-6.2378 53.65-8.47364L53.65-12.211C53.65-14.4014 52.3282-15.7232 50.1446-15.7232L29.2974-15.7232C27.1138-15.7232 25.7921-14.4014 25.7921-12.211L25.7921-8.47364C25.7921-6.2378 27.1138-4.91602 29.2974-4.91602ZM18.6914-6.96922C18.6914-0.966775 21.7691 2.13919 27.7955 2.13919L51.6466 2.13919C57.6275 2.13919 60.754-0.966775 60.754-6.96922L60.754-63.4966C60.754-69.499 57.6275-72.605 51.6466-72.605L27.7955-72.605C21.7691-72.605 18.6914-69.499 18.6914-63.4966ZM20.9092-7.05467L20.9092-63.4111C20.9092-68.2764 23.0757-70.3872 27.9512-70.3872L51.4908-70.3872C56.3697-70.3872 58.5328-68.2764 58.5328-63.4111L58.5328-7.05467C58.5328-2.18946 56.3697-0.0332117 51.4908-0.0332117L27.9512-0.0332117C23.0757-0.0332117 20.9092-2.18946 20.9092-7.05467Z"/>
  </g>
 </g>
</svg>
