<svg width="102" height="48" viewBox="0 0 102 48" fill="none" xmlns="http://www.w3.org/2000/svg"><path d="M68.256 3.72a7.444 7.444 0 0 0-6.574 6.574.734.734 0 0 0 .73.806h5.894a.73.73 0 0 0 .73-.73V4.476a.708.708 0 0 0-.78-.755z" fill="#E8EAED"/><path d="M66.543 13.569h-3.425c-.278 0-.504.15-.655.377l-1.713 2.947a.753.753 0 0 0 0 .73l1.713 2.973a.751.751 0 0 0 .655.377h3.425c.277 0 .504-.15.655-.377l1.712-2.972a.753.753 0 0 0 0-.73l-1.712-2.973a.792.792 0 0 0-.655-.352z" fill="#34A853"/><path d="M51.557 7.348a3.708 3.708 0 0 1 3.702-3.702 3.708 3.708 0 0 1 3.703 3.702v7.43a3.708 3.708 0 0 1-3.703 3.702 3.708 3.708 0 0 1-3.702-3.702v-7.43z" fill="#FBBC04"/><path d="M49.29 20.369H37.73c-.277 0-.504.151-.655.378l-1.713 2.972a.753.753 0 0 0 0 .73l1.713 2.972a.752.752 0 0 0 .655.378h11.56c.277 0 .504-.151.655-.378l1.713-2.972a.753.753 0 0 0 0-.73l-1.713-2.972a.751.751 0 0 0-.655-.378zm-9.898-5.214a3.766 3.766 0 0 0-1.033-2.972 2.694 2.694 0 0 1-.806-1.89v-.327c0-.705.303-1.385.806-1.889a3.68 3.68 0 0 0 1.033-2.972c-.177-1.712-1.562-3.123-3.274-3.324a3.71 3.71 0 0 0-4.13 3.677c0 1.007.402 1.94 1.082 2.62a2.61 2.61 0 0 1 .78 1.863v.327a2.61 2.61 0 0 1-.78 1.864c-.655.68-1.083 1.587-1.083 2.62a3.696 3.696 0 0 0 4.13 3.677c1.713-.151 3.099-1.562 3.275-3.274zm9.998-3.224v5.692a.85.85 0 0 1-.856.857h-5.692c-.78 0-1.158-.932-.604-1.486L47.93 11.3c.529-.528 1.46-.15 1.46.63z" fill="#E8EAED"/><path d="M41.608 11.856V6.164a.85.85 0 0 1 .857-.856h5.692c.78 0 1.158.932.604 1.486l-5.692 5.692c-.529.529-1.46.15-1.46-.63z" fill="#34A853"/><path d="M66.845 29.687H34.53L27 7.725h47.35l-7.505 21.962zm0 .001l-4.155 12.09H36.924M74.35 7.725l1.89-5.465h5.037" stroke="#4285F4" stroke-miterlimit="10" stroke-linecap="round" stroke-linejoin="round"/><path d="M38.899 48a2 2 0 1 0 0-4 2 2 0 0 0 0 4zm21.408 0a2 2 0 1 0 0-4 2 2 0 0 0 0 4zM83.252 4a2 2 0 1 0 0-4 2 2 0 0 0 0 4zM57.35 27.874a3.702 3.702 0 1 0 0-7.405 3.702 3.702 0 0 0 0 7.405z" fill="#4285F4"/></svg>