<svg width="102" height="48" viewBox="0 0 102 48" fill="none" xmlns="http://www.w3.org/2000/svg">
<path d="M68.2557 3.72056C64.8051 4.09835 62.0598 6.84366 61.6821 10.2942C61.6317 10.7223 61.9843 11.1001 62.4125 11.1001H68.306C68.709 11.1001 69.0364 10.7727 69.0364 10.3697V4.47615C69.0616 4.02279 68.6838 3.67019 68.2557 3.72056Z" fill="#E8EAED"/>
<path d="M66.5429 13.5687H63.1176C62.8405 13.5687 62.6139 13.7198 62.4628 13.9465L60.7501 16.8932C60.6242 17.1199 60.6242 17.397 60.7501 17.6236L62.4628 20.5956C62.5887 20.8223 62.8405 20.9734 63.1176 20.9734H66.5429C66.82 20.9734 67.0467 20.8223 67.1978 20.5956L68.9104 17.6236C69.0364 17.397 69.0364 17.1199 68.9104 16.8932L67.1978 13.9213C67.0467 13.6946 66.7948 13.5687 66.5429 13.5687Z" fill="#34A853"/>
<path d="M51.557 7.34789C51.557 5.3078 53.2193 3.64551 55.2594 3.64551C57.2995 3.64551 58.9618 5.3078 58.9618 7.34789V14.7778C58.9618 16.8179 57.2995 18.4802 55.2594 18.4802C53.2193 18.4802 51.557 16.8179 51.557 14.7778V7.34789Z" fill="#FBBC04"/>
<path d="M49.2903 20.3689H37.7298C37.4527 20.3689 37.2261 20.52 37.0749 20.7467L35.3623 23.7187C35.2363 23.9453 35.2363 24.2224 35.3623 24.4491L37.0749 27.421C37.2009 27.6477 37.4527 27.7988 37.7298 27.7988H49.2903C49.5673 27.7988 49.794 27.6477 49.9451 27.421L51.6578 24.4491C51.7837 24.2224 51.7837 23.9453 51.6578 23.7187L49.9451 20.7467C49.8192 20.52 49.5673 20.3689 49.2903 20.3689Z" fill="#E8EAED"/>
<path d="M39.3918 15.1546C39.4926 13.9961 39.0896 12.9382 38.3592 12.1827C37.8555 11.6789 37.5532 10.9989 37.5532 10.2937V9.96627C37.5532 9.26105 37.8555 8.58102 38.3592 8.0773C39.0896 7.32171 39.5177 6.26389 39.3918 5.10532C39.2155 3.39265 37.8303 1.98223 36.1176 1.78074C33.876 1.52887 31.9871 3.29191 31.9871 5.45793C31.9871 6.46538 32.39 7.39727 33.0701 8.0773C33.5738 8.58102 33.8508 9.23586 33.8508 9.94108V10.2685C33.8508 10.9737 33.5738 11.6286 33.0701 12.1323C32.4152 12.8123 31.9871 13.719 31.9871 14.7517C31.9871 16.9429 33.876 18.6807 36.1176 18.4288C37.8303 18.2777 39.2155 16.8673 39.3918 15.1546Z" fill="#E8EAED"/>
<path d="M49.3908 11.9311V17.6232C49.3908 18.1017 49.013 18.4795 48.5344 18.4795H42.8423C42.0616 18.4795 41.6838 17.5476 42.2379 16.9935L47.93 11.3014C48.4589 10.7725 49.3908 11.1503 49.3908 11.9311Z" fill="#E8EAED"/>
<path d="M41.6084 11.8561V6.16401C41.6084 5.68547 41.9862 5.30768 42.4647 5.30768H48.1568C48.9376 5.30768 49.3154 6.23957 48.7613 6.79367L43.0692 12.4858C42.5403 13.0147 41.6084 12.6369 41.6084 11.8561Z" fill="#34A853"/>
<path d="M66.8447 29.6873H34.5307L27 7.72485H74.3502L66.8447 29.6873Z" stroke="#4285F4" stroke-miterlimit="10" stroke-linecap="round" stroke-linejoin="round"/>
<path d="M66.8452 29.688L62.6895 41.7775H36.924" stroke="#4285F4" stroke-miterlimit="10" stroke-linecap="round" stroke-linejoin="round"/>
<path d="M74.3506 7.72543L76.2396 2.26001H81.2768" stroke="#4285F4" stroke-miterlimit="10" stroke-linecap="round" stroke-linejoin="round"/>
<path d="M38.8986 48C40.0031 48 40.8986 47.1046 40.8986 46C40.8986 44.8954 40.0031 44 38.8986 44C37.794 44 36.8986 44.8954 36.8986 46C36.8986 47.1046 37.794 48 38.8986 48Z" fill="#4285F4"/>
<path d="M60.3068 48C61.4113 48 62.3068 47.1046 62.3068 46C62.3068 44.8954 61.4113 44 60.3068 44C59.2022 44 58.3068 44.8954 58.3068 46C58.3068 47.1046 59.2022 48 60.3068 48Z" fill="#4285F4"/>
<path d="M83.2518 4C84.3564 4 85.2518 3.10457 85.2518 2C85.2518 0.895431 84.3564 0 83.2518 0C82.1473 0 81.2518 0.895431 81.2518 2C81.2518 3.10457 82.1473 4 83.2518 4Z" fill="#4285F4"/>
<path d="M57.3497 27.8742C59.3945 27.8742 61.0521 26.2166 61.0521 24.1718C61.0521 22.127 59.3945 20.4694 57.3497 20.4694C55.3049 20.4694 53.6473 22.127 53.6473 24.1718C53.6473 26.2166 55.3049 27.8742 57.3497 27.8742Z" fill="#4285F4"/>
</svg>
