<svg xmlns="http://www.w3.org/2000/svg" width="130" height="40"><path d="M52.792 16.638c-1.558-.64-2.468-1.578-3.063-3.157-.258-.686-.303-1.064-.253-2.158.075-1.668.544-2.71 1.692-3.759 1.13-1.031 2.114-1.367 3.8-1.294 1.165.05 1.439.118 2.258.556 1.7.91 2.652 2.416 2.778 4.395.166 2.6-1.34 4.847-3.73 5.566-1.069.322-2.485.261-3.482-.149zM56.47 14.4c1.672-1.344 1.808-3.922.28-5.33-1.044-.963-2.202-1.121-3.47-.474-.664.339-.948.656-1.32 1.479-.6 1.32-.312 3.055.667 4.032.653.653 1.188.836 2.296.787.844-.037 1.066-.108 1.547-.494zM93.244 16.791c-1.323-.431-2.606-1.588-3.17-2.857-.444-.997-.539-3.115-.187-4.18.46-1.391 1.29-2.403 2.499-3.047.656-.35.897-.392 2.21-.392 1.75 0 2.262.211 3.365 1.39.739.79 1.547 2.312 1.328 2.502-.07.061-1.701.762-3.626 1.557-1.924.795-3.498 1.502-3.498 1.57 0 .286 1.09 1.3 1.564 1.457.645.213 1.77.21 2.344-.006.24-.09.684-.404.984-.696l.547-.531.816.541c.449.298.816.601.816.674 0 .245-1.458 1.446-2.169 1.786-.874.42-2.878.54-3.823.232zm1.315-6.424c1.257-.532 2.172-1.001 2.172-1.115 0-.348-.956-.944-1.67-1.042-.933-.128-1.865.242-2.511.997-.45.525-.827 1.486-.827 2.104 0 .266-.146.315 2.836-.944z" fill="#d93025"/><path d="M85.978 8.598V.643h2.209v15.91h-2.209z" fill="#1e8e3e"/><path d="M76.853 21.599a7.671 7.671 0 01-1.259-.713c-.645-.462-1.625-1.763-1.533-2.037.027-.083.437-.306.911-.497.823-.33.869-.334 1.007-.078.08.147.394.508.699.802.996.962 2.691 1.08 3.833.266.567-.403.988-1.368 1.105-2.531.11-1.085 0-1.225-.555-.707-.644.6-1.325.816-2.552.812-1.055-.004-1.277-.057-2.11-.505-3.862-2.074-3.867-7.55-.008-9.65 1.098-.598 2.689-.694 3.77-.229.417.179.872.452 1.012.606.358.397.503.35.503-.16v-.442h2.062v5.296c0 3.363-.06 5.58-.165 6.076-.36 1.69-1.29 2.955-2.612 3.55-.954.43-3.221.507-4.108.14zm3.009-6.823c1.131-.428 1.868-1.67 1.873-3.158.003-.865-.066-1.158-.426-1.816-.676-1.237-1.92-1.816-3.204-1.493-1.451.365-2.322 1.598-2.322 3.287 0 1.537.698 2.683 1.937 3.179.475.19 1.639.19 2.142 0zM37.703 16.572c-3.608-1.039-6.261-4.439-6.261-8.025 0-2.287.798-4.165 2.489-5.858 3.118-3.122 7.698-3.493 11.098-.9l.705.537-.76.77-.76.769-.463-.353c-.255-.194-.858-.538-1.34-.764-.787-.368-1.04-.41-2.433-.41-1.5 0-1.593.018-2.676.554-3.84 1.897-4.67 7.02-1.633 10.057 2.929 2.929 8.493 1.989 9.609-1.623.168-.545.306-1.084.306-1.197 0-.168-.503-.205-2.799-.205h-2.799v-2.21h7.808v1.319c0 .725-.074 1.67-.163 2.099-.548 2.629-2.66 4.78-5.383 5.482-1.198.309-3.397.289-4.545-.042z" fill="#1a73e8"/><path d="M64.866 16.648c-1.44-.592-2.16-1.252-2.901-2.657-.362-.685-.397-.898-.397-2.373 0-1.476.036-1.695.411-2.459.536-1.091 1.755-2.208 2.867-2.627.7-.264 1.076-.31 2.172-.262 1.165.05 1.44.118 2.258.556 1.688.904 2.648 2.43 2.783 4.424.13 1.939-.71 3.74-2.24 4.792-1.466 1.01-3.396 1.246-4.953.606zm3.654-2.249c1.166-.937 1.64-2.559 1.165-3.99-.89-2.68-4.316-2.984-5.576-.496-.713 1.407-.506 3.033.523 4.116.689.725 1.2.914 2.341.864.845-.037 1.067-.108 1.547-.494z" fill="#f9ab00"/><path d="M3.759 39.742c-1.016-.273-1.588-.63-2.364-1.472C.428 37.222.137 36.45.147 34.967c.006-1.008.077-1.395.362-1.989.519-1.08 1.672-2.172 2.697-2.556l.85-.318 61.165.038 61.165.037.778.41c1.996 1.052 3.042 3.124 2.657 5.262-.294 1.632-1.313 2.918-2.902 3.663l-.828.388-60.767.028c-52.87.024-60.87 0-61.565-.188z" fill="none"/><path d="M3.586 39.61c-.385-.139-1.066-.56-1.513-.935-2.708-2.273-2.233-6.47.908-8.035l1.075-.536h60.925c45.633 0 61.127.061 61.731.242.444.133 1.173.555 1.62.938 2.838 2.429 1.95 7.049-1.597 8.315-1.1.392-122.065.404-123.149.012z" fill="#dadce0"/></svg>