<svg width="24" height="24" viewBox="0 0 24 24" fill="none" xmlns="http://www.w3.org/2000/svg">
<g clip-path="url(#clip0_1500_179770)">
<path d="M12 20C10.9028 20 9.86806 19.7917 8.89583 19.375C7.92361 18.9583 7.06944 18.3889 6.33333 17.6667C5.61111 16.9306 5.04167 16.0764 4.625 15.1042C4.20833 14.1319 4 13.0972 4 12C4 10.8889 4.20833 9.85417 4.625 8.89583C5.04167 7.92361 5.61111 7.07639 6.33333 6.35417C7.06944 5.61805 7.92361 5.04167 8.89583 4.625C9.86806 4.20833 10.9028 4 12 4C13.9722 4 15.6806 4.61805 17.125 5.85417C18.5833 7.09028 19.4931 8.63889 19.8542 10.5H18.3125C18.0764 9.48611 17.6181 8.59028 16.9375 7.8125C16.2708 7.02083 15.4583 6.42361 14.5 6.02083V6.5C14.5 6.91667 14.3542 7.27083 14.0625 7.5625C13.7708 7.85417 13.4167 8 13 8H11V9C11 9.27778 10.9028 9.51389 10.7083 9.70833C10.5139 9.90278 10.2778 10 10 10H9V12H10V14H9L5.64583 10.6458C5.60417 10.8681 5.56944 11.0903 5.54167 11.3125C5.51389 11.5347 5.5 11.7639 5.5 12C5.5 13.8056 6.13194 15.3403 7.39583 16.6042C8.65972 17.8681 10.1944 18.5 12 18.5V20ZM18.9375 19.5L16.375 16.9375C16.0972 17.1181 15.7986 17.2569 15.4792 17.3542C15.1736 17.4514 14.8472 17.5 14.5 17.5C13.5278 17.5 12.7014 17.1597 12.0208 16.4792C11.3403 15.7986 11 14.9722 11 14C11 13.0278 11.3403 12.2014 12.0208 11.5208C12.7014 10.8403 13.5278 10.5 14.5 10.5C15.4722 10.5 16.2986 10.8403 16.9792 11.5208C17.6597 12.2014 18 13.0278 18 14C18 14.3472 17.9514 14.6806 17.8542 15C17.7569 15.3056 17.6181 15.5972 17.4375 15.875L20 18.4375L18.9375 19.5ZM14.5 16C15.0556 16 15.5278 15.8056 15.9167 15.4167C16.3056 15.0278 16.5 14.5556 16.5 14C16.5 13.4444 16.3056 12.9722 15.9167 12.5833C15.5278 12.1944 15.0556 12 14.5 12C13.9444 12 13.4722 12.1944 13.0833 12.5833C12.6944 12.9722 12.5 13.4444 12.5 14C12.5 14.5556 12.6944 15.0278 13.0833 15.4167C13.4722 15.8056 13.9444 16 14.5 16Z" fill="#1F1F1F"/>
</g>
<defs>
<clipPath id="clip0_1500_179770">
<rect width="24" height="24" fill="white"/>
</clipPath>
</defs>
</svg>
