<svg width="24" height="24" viewBox="0 0 24 24" fill="none" xmlns="http://www.w3.org/2000/svg">
<g clip-path="url(#clip0_7628_137143)">
<path d="M12 22C10.6167 22 9.31667 21.7417 8.1 21.225C6.88333 20.6917 5.825 19.975 4.925 19.075C4.025 18.175 3.30833 17.1167 2.775 15.9C2.25833 14.6833 2 13.3833 2 12C2 10.6167 2.25833 9.31667 2.775 8.1C3.30833 6.88333 4.025 5.825 4.925 4.925C5.825 4.025 6.88333 3.31667 8.1 2.8C9.31667 2.26667 10.6167 2 12 2C14.4333 2 16.5583 2.76667 18.375 4.3C20.2083 5.81667 21.35 7.725 21.8 10.025H19.75C19.4333 8.80833 18.8583 7.725 18.025 6.775C17.2083 5.80833 16.2 5.08333 15 4.6V5C15 5.55 14.8 6.025 14.4 6.425C14.0167 6.80833 13.55 7 13 7H11V9C11 9.28333 10.9 9.525 10.7 9.725C10.5167 9.90833 10.2833 10 10 10H8V12H10V15H9L4.2 10.2C4.15 10.5 4.1 10.8 4.05 11.1C4.01667 11.4 4 11.7 4 12C4 14.1833 4.76667 16.0583 6.3 17.625C7.83333 19.1917 9.73333 19.9833 12 20V22ZM21.1 21.5L17.9 18.3C17.55 18.5 17.175 18.6667 16.775 18.8C16.375 18.9333 15.95 19 15.5 19C14.25 19 13.1833 18.5667 12.3 17.7C11.4333 16.8167 11 15.75 11 14.5C11 13.25 11.4333 12.1917 12.3 11.325C13.1833 10.4417 14.25 10 15.5 10C16.75 10 17.8083 10.4417 18.675 11.325C19.5583 12.1917 20 13.25 20 14.5C20 14.95 19.9333 15.375 19.8 15.775C19.6667 16.175 19.5 16.55 19.3 16.9L22.5 20.1L21.1 21.5ZM15.5 17C16.2 17 16.7917 16.7583 17.275 16.275C17.7583 15.7917 18 15.2 18 14.5C18 13.8 17.7583 13.2083 17.275 12.725C16.7917 12.2417 16.2 12 15.5 12C14.8 12 14.2083 12.2417 13.725 12.725C13.2417 13.2083 13 13.8 13 14.5C13 15.2 13.2417 15.7917 13.725 16.275C14.2083 16.7583 14.8 17 15.5 17Z" fill="#474747"/>
</g>
<defs>
<clipPath id="clip0_7628_137143">
<rect width="24" height="24" fill="white"/>
</clipPath>
</defs>
</svg>
