<svg width="59" height="45" viewBox="0 0 59 45" fill="none" xmlns="http://www.w3.org/2000/svg"><path d="M40.333 13.747H1.583v29.708h38.75V13.747Z" fill="#F1F3F4"/><path d="M40.333 13.747h-23.25v19.375h23.25V13.747Z" fill="#CCC"/><path fill-rule="evenodd" clip-rule="evenodd" d="M.614 12.778H6.75v1.938H2.552v4.198H.614v-6.136Zm38.75 29.709v-4.198h1.938v6.135h-6.136v-1.937h4.198ZM.614 38.289h1.938v4.198H6.75v1.937H.614V38.29Z" fill="#BDC1C6"/><path d="M19.666 30.253h38.75V.545h-38.75v29.708Z" fill="#AECBFA"/><path d="M19.666 21.843v8.41h38.75V19.74l-8.75-7.334a5.625 5.625 0 0 0-3.739-1.305 5.62 5.62 0 0 0-3.673 1.478l-8.837 8.212-5-3.537a3.565 3.565 0 0 0-4.55.396l-4.2 4.192Z" fill="#669DF6"/><path d="M30.006 12.939a3.125 3.125 0 1 0 0-6.25 3.125 3.125 0 0 0 0 6.25Z" fill="#E8F0FE"/></svg>