<svg xmlns="http://www.w3.org/2000/svg" height="20" width="20" fill="#041E49"><path d="M4.958 16h10.084l1.916-3.312L11.896 4H8.104l-5.062 8.688Zm0 1.5q-.416 0-.76-.198-.344-.198-.552-.552L1.75 13.438q-.188-.355-.198-.75-.01-.396.198-.75L6.792 3.25q.187-.354.541-.552.355-.198.771-.198h3.792q.396 0 .75.198t.562.552l5.042 8.688q.167.354.177.75.011.395-.177.75l-1.896 3.312q-.229.354-.573.552-.343.198-.739.198Zm1.292-3.562-.562-1 3.604-6.292h1.416l3.604 6.292-.562 1Zm1.438-1.48h4.624L10 8.417Z"/></svg>
