<svg xmlns="http://www.w3.org/2000/svg" viewBox="0 0 192 192">
  <path fill="none" d="M0 0h192v192H0z"/>
  <circle cx="96" cy="104.15" r="28" fill="#4285f4"/>
  <path fill="#ea4335" d="M160 72v64c0 1.69-.34 3.29-.82 4.82-1.57 4.92-5.43 8.78-10.35 10.35-1.53.49-3.13.82-4.82.82H66l16 16h62c4.42 0 8.63-.9 12.46-2.51 3.83-1.62 7.28-3.96 10.17-6.86 1.45-1.45 2.76-3.03 3.91-4.74 2.3-3.4 3.96-7.28 4.81-11.44.43-2.08.65-4.24.65-6.45V84l-6-19-10.82 2.18c.48 1.53.82 3.13.82 4.82z"/>
  <path fill="#4285f4" d="M32 72c0-1.69.34-3.29.82-4.82 1.57-4.92 5.43-8.78 10.35-10.35 1.54-.49 3.14-.83 4.83-.83h96c1.69 0 3.29.34 4.82.82L149 45l-17-5-16-16H76L60 40H48c-17.67 0-32 14.33-32 32v32l16 16V72z"/>
  <path fill="#34a853" d="M144 40h-12l16.83 16.83c1.23.39 2.39.93 3.47 1.59 2.16 1.32 3.97 3.13 5.29 5.29.66 1.08 1.2 2.24 1.59 3.47L176 84V72c0-17.67-14.33-32-32-32z"/>
  <path fill="#fbbc05" d="M48 168h39.89l-16-16H48c-8.82 0-16-7.18-16-16v-23.89l-16-16V136c0 17.67 14.33 32 32 32z"/>
</svg>