<svg width="24" height="24" viewBox="0 0 24 24" fill="none" xmlns="http://www.w3.org/2000/svg">
<g clip-path="url(#clip0_140_36353)">
<path d="M18.5 10C18.4 10 18.3333 9.95 18.3 9.85C18.0333 8.83333 17.525 7.95833 16.775 7.225C16.0417 6.475 15.1667 5.96667 14.15 5.7C14.05 5.66667 14 5.6 14 5.5C14 5.38333 14.05 5.31667 14.15 5.3C15.1667 5.03333 16.0417 4.53333 16.775 3.8C17.525 3.05 18.0333 2.16667 18.3 1.15C18.3333 1.05 18.4 1 18.5 1C18.6167 1 18.6833 1.05 18.7 1.15C18.9833 2.16667 19.4917 3.05 20.225 3.8C20.9583 4.53333 21.8333 5.03333 22.85 5.3C22.95 5.31667 23 5.38333 23 5.5C23 5.6 22.95 5.66667 22.85 5.7C21.8333 5.96667 20.95 6.475 20.2 7.225C19.4667 7.95833 18.9667 8.83333 18.7 9.85C18.6833 9.95 18.6167 10 18.5 10ZM19.6 21L13.35 14.75C12.7833 15.1667 12.175 15.4833 11.525 15.7C10.875 15.9 10.2 16 9.5 16C7.68333 16 6.14167 15.375 4.875 14.125C3.625 12.8583 3 11.3167 3 9.5C3 7.68333 3.625 6.15 4.875 4.9C6.14167 3.63333 7.68333 3 9.5 3C9.98333 3 10.4583 3.05833 10.925 3.175C11.3917 3.275 11.8417 3.425 12.275 3.625L11.275 5.375C10.9917 5.24167 10.7 5.15 10.4 5.1C10.1 5.03333 9.8 5 9.5 5C8.25 5 7.18333 5.44167 6.3 6.325C5.43333 7.19167 5 8.25 5 9.5C5 10.75 5.43333 11.8167 6.3 12.7C7.18333 13.5667 8.25 14 9.5 14C10.65 14 11.65 13.625 12.5 12.875C13.35 12.1083 13.8417 11.15 13.975 10H15.975C15.925 10.6 15.8 11.1917 15.6 11.775C15.4 12.3417 15.1167 12.8667 14.75 13.35L21 19.6L19.6 21Z" fill="#474747"/>
</g>
<defs>
<clipPath id="clip0_140_36353">
<rect width="24" height="24" fill="white"/>
</clipPath>
</defs>
</svg>
