<svg width="18" height="18" viewBox="0 0 18 18" fill="none" xmlns="http://www.w3.org/2000/svg">
<path fill-rule="evenodd" clip-rule="evenodd" d="M10.9775 12.6075C11.375 12.2325 11.9075 12 12.5 12C13.745 12 14.75 13.005 14.75 14.25C14.75 15.495 13.745 16.5 12.5 16.5C11.255 16.5 10.25 15.495 10.25 14.25C10.25 14.07 10.28 13.8975 10.3175 13.7325L5.03 10.6425C4.625 11.0175 4.0925 11.25 3.5 11.25C2.255 11.25 1.25 10.245 1.25 9C1.25 7.755 2.255 6.75 3.5 6.75C4.0925 6.75 4.625 6.9825 5.03 7.3575L10.3175 4.275C10.28 4.11 10.25 3.93 10.25 3.75C10.25 2.505 11.255 1.5 12.5 1.5C13.745 1.5 14.75 2.505 14.75 3.75C14.75 4.995 13.745 6 12.5 6C11.9075 6 11.3675 5.7675 10.97 5.3925L5.6825 8.475C5.72 8.6475 5.75 8.82 5.75 9C5.75 9.18 5.72 9.3525 5.6825 9.525L10.9775 12.6075ZM13.25 3.75C13.25 3.3375 12.9125 3 12.5 3C12.0875 3 11.75 3.3375 11.75 3.75C11.75 4.1625 12.0875 4.5 12.5 4.5C12.9125 4.5 13.25 4.1625 13.25 3.75ZM3.5 9.75C3.0875 9.75 2.75 9.4125 2.75 9C2.75 8.5875 3.0875 8.25 3.5 8.25C3.9125 8.25 4.25 8.5875 4.25 9C4.25 9.4125 3.9125 9.75 3.5 9.75ZM11.75 14.25C11.75 14.6625 12.0875 15 12.5 15C12.9125 15 13.25 14.6625 13.25 14.25C13.25 13.8375 12.9125 13.5 12.5 13.5C12.0875 13.5 11.75 13.8375 11.75 14.25Z" fill="#5F6368"/>
</svg>
