<svg width="116" height="42" xmlns="http://www.w3.org/2000/svg"><path d="M6.009 11.38a5.575 5.575 0 110-11.15 5.575 5.575 0 010 11.15zm52.034 0a5.575 5.575 0 110-11.15 5.575 5.575 0 010 11.15zm-26.017 0a5.575 5.575 0 110-11.15 5.575 5.575 0 010 11.15zm52.035 0a5.575 5.575 0 110-11.15 5.575 5.575 0 010 11.15zm26.017 0a5.575 5.575 0 110-11.15 5.575 5.575 0 010 11.15zM6.008 41.114a5.575 5.575 0 110-11.15 5.575 5.575 0 010 11.15zm52.035 0a5.575 5.575 0 110-11.15 5.575 5.575 0 010 11.15zm-26.017 0a5.575 5.575 0 110-11.15 5.575 5.575 0 010 11.15zm52.035 0a5.575 5.575 0 110-11.15 5.575 5.575 0 010 11.15zm26.017 0a5.575 5.575 0 110-11.15 5.575 5.575 0 010 11.15z" fill="#000" fill-rule="evenodd"/></svg>