<svg width="24" height="24" viewBox="0 0 24 24" fill="none" xmlns="http://www.w3.org/2000/svg">
<g clip-path="url(#clip0_4551_19025)">
<path d="M15 19L13.6 17.575L17.175 14H7.5C6.25 14 5.18333 13.5667 4.3 12.7C3.43333 11.8167 3 10.75 3 9.5C3 8.25 3.43333 7.19167 4.3 6.325C5.18333 5.44167 6.25 5 7.5 5H8V7H7.5C6.8 7 6.20833 7.24167 5.725 7.725C5.24167 8.20833 5 8.8 5 9.5C5 10.2 5.24167 10.7917 5.725 11.275C6.20833 11.7583 6.8 12 7.5 12H17.175L13.6 8.4L15 7L21 13L15 19Z" fill="#474747"/>
</g>
<defs>
<clipPath id="clip0_4551_19025">
<rect width="24" height="24" fill="white"/>
</clipPath>
</defs>
</svg>
