<svg xmlns="http://www.w3.org/2000/svg" width="56" height="45" fill="none" viewBox="0 0 56 45"><path fill="#474747" d="M.5 44.407h55V10.136H28V.344H.5v44.063ZM6 39.511v-4.896h5.5v4.896H6Zm0-9.792v-4.896h5.5v4.896H6Zm0-9.791v-4.896h5.5v4.896H6Zm0-9.792V5.24h5.5v4.896H6ZM17 39.51v-4.896h5.5v4.896H17Zm0-9.792v-4.896h5.5v4.896H17Zm0-9.791v-4.896h5.5v4.896H17Zm0-9.792V5.24h5.5v4.896H17ZM28 39.51v-4.896h5.5V29.72H28v-4.896h5.5v-4.895H28v-4.896h22v24.48H28Zm11-14.688h5.5v-4.895H39v4.895Zm0 9.792h5.5V29.72H39v4.896Z"/></svg>