<svg width="69" height="70" viewBox="0 0 69 70" fill="none" xmlns="http://www.w3.org/2000/svg">
<path d="M60 50.975L30.975 21.95H45.75V14.825C45.75 12.075 44.75 9.75 42.75 7.85C40.8 5.95 38.45 5 35.7 5C32.95 5 30.6 5.95 28.65 7.85C26.7 9.75 25.725 12.075 25.725 14.825V16.7L21.6 12.575C22.05 9.075 23.6 6.2 26.25 3.95C28.95 1.65 32.1 0.499997 35.7 0.499997C39.75 0.499997 43.175 1.9 45.975 4.7C48.825 7.45 50.25 10.825 50.25 14.825V21.95H55.5C56.75 21.95 57.8 22.4 58.65 23.3C59.55 24.15 60 25.2 60 26.45V50.975ZM65.025 70.85L57.3 63.125C57 63.225 56.7 63.325 56.4 63.425C56.1 63.475 55.8 63.5 55.5 63.5H16.5C15.25 63.5 14.175 63.075 13.275 62.225C12.425 61.325 12 60.25 12 59V26.45C12 25.3 12.4 24.3 13.2 23.45C14 22.55 14.975 22.05 16.125 21.95L-1.05 4.775L2.175 1.625L68.25 67.7L65.025 70.85ZM32.175 37.925C31.625 38.475 31.2 39.1 30.9 39.8C30.65 40.5 30.525 41.225 30.525 41.975C30.525 43.525 31.075 44.85 32.175 45.95C33.275 47 34.6 47.525 36.15 47.525C36.9 47.525 37.6 47.4 38.25 47.15C38.95 46.9 39.575 46.5 40.125 45.95L32.175 37.925Z" fill="#474747"/>
</svg>
