<svg xmlns="http://www.w3.org/2000/svg" width="16" height="16" fill="none" viewBox="0 0 16 16"><g clip-path="url(#a)"><path fill="url(#b)" d="M1.5 13c-.417 0-.77-.146-1.063-.438A1.447 1.447 0 0 1 0 11.5v-7c0-.417.146-.77.438-1.063A1.447 1.447 0 0 1 1.5 3h13c.417 0 .77.146 1.063.438.291.291.437.645.437 1.062v7c0 .417-.146.77-.438 1.063A1.446 1.446 0 0 1 14.5 13h-13Zm0-1.5h13v-7h-13v7Zm4.25-.5h4.5c.208 0 .382-.07.52-.208a.74.74 0 0 0 .23-.542.675.675 0 0 0-.23-.52.675.675 0 0 0-.52-.23h-4.5a.74.74 0 0 0-.542.23.707.707 0 0 0-.208.52c0 .208.07.389.208.542A.779.779 0 0 0 5.75 11Zm-4.25.5v-7 7Zm2.25-5c.208 0 .382-.07.52-.208a.74.74 0 0 0 .23-.542.675.675 0 0 0-.23-.52.675.675 0 0 0-.52-.23.74.74 0 0 0-.542.23.707.707 0 0 0-.208.52c0 .208.07.389.208.542a.779.779 0 0 0 .542.208Zm2.125 0c.208 0 .382-.07.52-.208a.74.74 0 0 0 .23-.542.675.675 0 0 0-.23-.52.675.675 0 0 0-.52-.23.74.74 0 0 0-.542.23.707.707 0 0 0-.208.52c0 .208.07.389.208.542a.779.779 0 0 0 .542.208ZM8 6.5c.208 0 .382-.07.52-.208a.74.74 0 0 0 .23-.542.675.675 0 0 0-.23-.52A.675.675 0 0 0 8 5a.74.74 0 0 0-.542.23.707.707 0 0 0-.208.52c0 .208.07.389.208.542A.779.779 0 0 0 8 6.5Zm2.125 0c.208 0 .382-.07.52-.208a.74.74 0 0 0 .23-.542.675.675 0 0 0-.23-.52.675.675 0 0 0-.52-.23.74.74 0 0 0-.542.23.707.707 0 0 0-.208.52c0 .208.07.389.208.542a.779.779 0 0 0 .542.208Zm2.125 0c.208 0 .382-.07.52-.208A.74.74 0 0 0 13 5.75a.675.675 0 0 0-.23-.52.675.675 0 0 0-.52-.23.74.74 0 0 0-.542.23.707.707 0 0 0-.208.52c0 .208.07.389.208.542a.779.779 0 0 0 .542.208Zm-8.5 2c.208 0 .382-.07.52-.208a.74.74 0 0 0 .23-.542.675.675 0 0 0-.23-.52.675.675 0 0 0-.52-.23.74.74 0 0 0-.542.23.707.707 0 0 0-.208.52c0 .208.07.389.208.542a.779.779 0 0 0 .542.208Zm2.125 0c.208 0 .382-.07.52-.208a.74.74 0 0 0 .23-.542.675.675 0 0 0-.23-.52.675.675 0 0 0-.52-.23.74.74 0 0 0-.542.23.707.707 0 0 0-.208.52c0 .208.07.389.208.542a.779.779 0 0 0 .542.208ZM8 8.5c.208 0 .382-.07.52-.208a.74.74 0 0 0 .23-.542.675.675 0 0 0-.23-.52A.675.675 0 0 0 8 7a.74.74 0 0 0-.542.23.707.707 0 0 0-.208.52c0 .208.07.389.208.542A.779.779 0 0 0 8 8.5Zm2.125 0c.208 0 .382-.07.52-.208a.74.74 0 0 0 .23-.542.675.675 0 0 0-.23-.52.675.675 0 0 0-.52-.23.74.74 0 0 0-.542.23.707.707 0 0 0-.208.52c0 .208.07.389.208.542a.779.779 0 0 0 .542.208Zm2.125 0c.208 0 .382-.07.52-.208A.74.74 0 0 0 13 7.75a.675.675 0 0 0-.23-.52.675.675 0 0 0-.52-.23.74.74 0 0 0-.542.23.707.707 0 0 0-.208.52c0 .208.07.389.208.542a.779.779 0 0 0 .542.208Z"/></g><defs><linearGradient id="b" x1="-1" x2="21.262" y1="9" y2="2.183" gradientUnits="userSpaceOnUse"><stop stop-color="#3186FF"/><stop offset=".45" stop-color="#346BF1"/><stop offset="1" stop-color="#4FA0FF"/></linearGradient><clipPath id="a"><path fill="#fff" d="M0 0h16v16H0z"/></clipPath></defs></svg>