<svg xmlns="http://www.w3.org/2000/svg" enable-background="new 0 0 192 192" height="32px" viewBox="0 0 192 192" width="32px"><path d="M0 0h192v192H0V0z" fill="none"/><g><path d="M95.153 92.052 21.6 169.308v.1C23.898 177.804 31.593 184 40.788 184c3.698 0 7.096-.999 10.094-2.698l.2-.1 82.748-47.273c.099-.2-38.677-41.877-38.677-41.877z" fill="#EA4335"/><path d="m169.507 78.86-35.778-20.588-40.175 35.48 40.375 39.977 35.578-20.288c6.196-3.298 10.493-9.794 10.493-17.29-.1-7.497-4.297-13.993-10.493-17.291z" fill="#FBBC04"/><path d="M21.7 22.592c-.4 1.599-.7 3.298-.7 5.097v136.522c0 1.799.2 3.398.7 5.097l76.052-75.357L21.7 22.592z" fill="#4285F4"/><path d="m95.753 95.95 38.076-37.679-82.748-47.473C47.983 8.999 44.485 8 40.887 8 31.693 8 23.998 14.196 21.7 22.592L95.753 95.95z" fill="#34A853"/></g></svg>