<svg width="3300" height="2200" viewBox="0 0 3300 2200" fill="none" xmlns="http://www.w3.org/2000/svg">
<g id="arrow.clockwise.bling" clip-path="url(#clip0_907_3757)">
<g id="Notes">
<path id="artboard" d="M3300 0H0V2200H3300V0Z" fill="white"/>
<path id="Vector" d="M263 292H3036" stroke="black" stroke-width="0.5"/>
<text id="Weight/Scale Variations" fill="black" xml:space="preserve" style="white-space: pre" font-family="Roboto" font-size="13" font-weight="bold" letter-spacing="0em"><tspan x="263" y="320.943">Weight/Scale Variations</tspan></text>
<text id="Ultralight" fill="black" xml:space="preserve" style="white-space: pre" font-family="Roboto" font-size="13" letter-spacing="0em"><tspan x="533.211" y="320.943">Ultralight</tspan></text>
<text id="Thin" fill="black" xml:space="preserve" style="white-space: pre" font-family="Roboto" font-size="13" letter-spacing="0em"><tspan x="843.422" y="320.943">Thin</tspan></text>
<text id="Light" fill="black" xml:space="preserve" style="white-space: pre" font-family="Roboto" font-size="13" letter-spacing="0em"><tspan x="1138.63" y="320.943">Light</tspan></text>
<text id="Regular" fill="black" xml:space="preserve" style="white-space: pre" font-family="Roboto" font-size="13" letter-spacing="0em"><tspan x="1427.34" y="320.943">Regular</tspan></text>
<text id="Medium" fill="black" xml:space="preserve" style="white-space: pre" font-family="Roboto" font-size="13" letter-spacing="0em"><tspan x="1722.56" y="320.943">Medium</tspan></text>
<text id="Semibold" fill="black" xml:space="preserve" style="white-space: pre" font-family="Roboto" font-size="13" letter-spacing="0em"><tspan x="2015.77" y="320.943">Semibold</tspan></text>
<text id="Bold" fill="black" xml:space="preserve" style="white-space: pre" font-family="Roboto" font-size="13" letter-spacing="0em"><tspan x="2326.48" y="320.943">Bold</tspan></text>
<text id="Heavy" fill="black" xml:space="preserve" style="white-space: pre" font-family="Roboto" font-size="13" letter-spacing="0em"><tspan x="2618.69" y="320.943">Heavy</tspan></text>
<text id="Black" fill="black" xml:space="preserve" style="white-space: pre" font-family="Roboto" font-size="13" letter-spacing="0em"><tspan x="2917.4" y="320.943">Black</tspan></text>
<path id="Vector_2" d="M263 1903H3036" stroke="black" stroke-width="0.5"/>
<g id="Group">
<path id="Vector_3" d="M272.248 1933.83C273.329 1933.83 274.344 1933.62 275.295 1933.21C276.245 1932.8 277.084 1932.23 277.81 1931.51C278.535 1930.78 279.105 1929.94 279.519 1928.99C279.932 1928.04 280.139 1927.02 280.139 1925.95C280.139 1924.87 279.932 1923.86 279.519 1922.91C279.105 1921.96 278.534 1921.12 277.805 1920.39C277.075 1919.66 276.236 1919.09 275.285 1918.68C274.335 1918.27 273.319 1918.07 272.238 1918.07C271.164 1918.07 270.152 1918.27 269.201 1918.68C268.251 1919.09 267.414 1919.66 266.691 1920.39C265.969 1921.12 265.401 1921.96 264.987 1922.91C264.574 1923.86 264.367 1924.87 264.367 1925.95C264.367 1927.02 264.574 1928.04 264.987 1928.99C265.401 1929.94 265.97 1930.78 266.696 1931.51C267.422 1932.23 268.26 1932.8 269.211 1933.21C270.161 1933.62 271.174 1933.83 272.248 1933.83ZM272.248 1932.35C271.363 1932.35 270.534 1932.18 269.763 1931.85C268.991 1931.52 268.314 1931.07 267.731 1930.48C267.149 1929.89 266.693 1929.21 266.364 1928.44C266.035 1927.66 265.871 1926.83 265.871 1925.95C265.871 1925.06 266.034 1924.23 266.359 1923.46C266.685 1922.68 267.139 1922 267.722 1921.42C268.304 1920.83 268.981 1920.37 269.753 1920.05C270.524 1919.72 271.353 1919.55 272.238 1919.55C273.13 1919.55 273.962 1919.72 274.733 1920.05C275.505 1920.37 276.184 1920.83 276.769 1921.42C277.355 1922 277.814 1922.68 278.146 1923.46C278.478 1924.23 278.644 1925.06 278.644 1925.95C278.644 1926.83 278.48 1927.66 278.151 1928.44C277.823 1929.21 277.367 1929.89 276.784 1930.48C276.202 1931.07 275.523 1931.52 274.748 1931.85C273.973 1932.18 273.14 1932.35 272.248 1932.35ZM268.654 1925.95C268.654 1926.16 268.723 1926.34 268.859 1926.47C268.996 1926.61 269.178 1926.67 269.406 1926.67H271.516V1928.79C271.516 1929.01 271.581 1929.18 271.711 1929.32C271.841 1929.46 272.017 1929.53 272.238 1929.53C272.453 1929.53 272.631 1929.46 272.771 1929.32C272.91 1929.18 272.98 1929.01 272.98 1928.79V1926.67H275.09C275.311 1926.67 275.49 1926.61 275.627 1926.47C275.764 1926.34 275.832 1926.16 275.832 1925.95C275.832 1925.73 275.764 1925.55 275.627 1925.41C275.49 1925.28 275.311 1925.21 275.09 1925.21H272.98V1923.1C272.98 1922.88 272.91 1922.7 272.771 1922.56C272.631 1922.42 272.453 1922.35 272.238 1922.35C272.017 1922.35 271.841 1922.42 271.711 1922.56C271.581 1922.7 271.516 1922.88 271.516 1923.1V1925.21H269.406C269.178 1925.21 268.996 1925.28 268.859 1925.41C268.723 1925.55 268.654 1925.73 268.654 1925.95Z" fill="black"/>
</g>
<g id="Group_2">
<path id="Vector_4" d="M293.576 1935.91C294.937 1935.91 296.218 1935.65 297.419 1935.13C298.62 1934.61 299.68 1933.89 300.598 1932.97C301.516 1932.05 302.235 1930.99 302.756 1929.79C303.277 1928.59 303.537 1927.31 303.537 1925.95C303.537 1924.59 303.277 1923.31 302.756 1922.11C302.235 1920.91 301.516 1919.85 300.598 1918.93C299.68 1918.01 298.618 1917.29 297.414 1916.77C296.21 1916.25 294.927 1915.99 293.566 1915.99C292.206 1915.99 290.925 1916.25 289.724 1916.77C288.522 1917.29 287.465 1918.01 286.55 1918.93C285.635 1919.85 284.917 1920.91 284.396 1922.11C283.876 1923.31 283.615 1924.59 283.615 1925.95C283.615 1927.31 283.876 1928.59 284.396 1929.79C284.917 1930.99 285.637 1932.05 286.555 1932.97C287.473 1933.89 288.532 1934.61 289.733 1935.13C290.935 1935.65 292.215 1935.91 293.576 1935.91ZM293.576 1934.25C292.424 1934.25 291.346 1934.04 290.344 1933.61C289.341 1933.18 288.461 1932.58 287.702 1931.82C286.944 1931.06 286.351 1930.18 285.925 1929.18C285.498 1928.18 285.285 1927.1 285.285 1925.95C285.285 1924.8 285.498 1923.72 285.925 1922.72C286.351 1921.71 286.942 1920.83 287.697 1920.07C288.452 1919.31 289.331 1918.71 290.334 1918.29C291.337 1917.86 292.414 1917.65 293.566 1917.65C294.719 1917.65 295.796 1917.86 296.799 1918.29C297.801 1918.71 298.684 1919.31 299.445 1920.07C300.207 1920.83 300.803 1921.71 301.232 1922.72C301.662 1923.72 301.877 1924.8 301.877 1925.95C301.877 1927.1 301.664 1928.18 301.237 1929.18C300.811 1930.18 300.218 1931.06 299.46 1931.82C298.702 1932.58 297.819 1933.18 296.813 1933.61C295.808 1934.04 294.729 1934.25 293.576 1934.25ZM289.045 1925.95C289.045 1926.18 289.123 1926.38 289.279 1926.53C289.436 1926.68 289.637 1926.75 289.885 1926.75H292.756V1929.63C292.756 1929.88 292.831 1930.08 292.98 1930.23C293.13 1930.38 293.322 1930.46 293.557 1930.46C293.804 1930.46 294.004 1930.38 294.157 1930.23C294.31 1930.08 294.387 1929.88 294.387 1929.63V1926.75H297.268C297.515 1926.75 297.715 1926.68 297.868 1926.53C298.021 1926.38 298.098 1926.18 298.098 1925.95C298.098 1925.7 298.021 1925.5 297.868 1925.35C297.715 1925.2 297.515 1925.12 297.268 1925.12H294.387V1922.25C294.387 1921.99 294.31 1921.79 294.157 1921.64C294.004 1921.48 293.804 1921.41 293.557 1921.41C293.322 1921.41 293.13 1921.49 292.98 1921.64C292.831 1921.8 292.756 1922 292.756 1922.25V1925.12H289.885C289.631 1925.12 289.427 1925.2 289.274 1925.35C289.121 1925.5 289.045 1925.7 289.045 1925.95Z" fill="black"/>
</g>
<g id="Group_3">
<path id="Vector_5" d="M320.617 1938.66C322.01 1938.66 323.34 1938.45 324.606 1938.01C325.872 1937.58 327.036 1936.97 328.097 1936.19C329.158 1935.41 330.081 1934.49 330.866 1933.43C331.65 1932.37 332.259 1931.2 332.692 1929.93C333.125 1928.66 333.341 1927.34 333.341 1925.95C333.341 1924.56 333.125 1923.23 332.692 1921.96C332.259 1920.69 331.65 1919.53 330.866 1918.47C330.081 1917.41 329.158 1916.48 328.097 1915.7C327.036 1914.92 325.871 1914.31 324.601 1913.87C323.332 1913.44 322 1913.22 320.607 1913.22C319.214 1913.22 317.884 1913.44 316.618 1913.87C315.351 1914.31 314.189 1914.92 313.131 1915.7C312.073 1916.48 311.152 1917.41 310.368 1918.47C309.583 1919.53 308.976 1920.69 308.546 1921.96C308.117 1923.23 307.902 1924.56 307.902 1925.95C307.902 1927.34 308.118 1928.66 308.551 1929.93C308.984 1931.2 309.591 1932.37 310.373 1933.43C311.154 1934.49 312.075 1935.41 313.136 1936.19C314.197 1936.97 315.361 1937.58 316.627 1938.01C317.894 1938.45 319.223 1938.66 320.617 1938.66ZM320.617 1936.85C319.412 1936.85 318.265 1936.66 317.174 1936.3C316.084 1935.93 315.086 1935.41 314.181 1934.75C313.276 1934.08 312.49 1933.3 311.823 1932.39C311.155 1931.48 310.639 1930.48 310.275 1929.39C309.91 1928.3 309.728 1927.15 309.728 1925.95C309.728 1924.74 309.91 1923.59 310.275 1922.5C310.639 1921.41 311.154 1920.41 311.818 1919.5C312.482 1918.59 313.266 1917.8 314.171 1917.14C315.076 1916.48 316.074 1915.96 317.165 1915.6C318.255 1915.23 319.402 1915.05 320.607 1915.05C321.818 1915.05 322.969 1915.23 324.059 1915.6C325.15 1915.96 326.149 1916.48 327.057 1917.14C327.965 1917.8 328.751 1918.59 329.415 1919.5C330.08 1920.41 330.596 1921.41 330.963 1922.5C331.331 1923.59 331.515 1924.74 331.515 1925.95C331.522 1927.15 331.343 1928.3 330.978 1929.39C330.613 1930.48 330.098 1931.48 329.43 1932.39C328.763 1933.3 327.975 1934.08 327.067 1934.75C326.159 1935.41 325.159 1935.93 324.069 1936.3C322.978 1936.66 321.828 1936.85 320.617 1936.85ZM314.845 1925.95C314.845 1926.2 314.931 1926.41 315.104 1926.58C315.277 1926.75 315.496 1926.83 315.763 1926.83H319.708V1930.78C319.708 1931.05 319.791 1931.27 319.957 1931.44C320.123 1931.61 320.337 1931.7 320.597 1931.7C320.864 1931.7 321.084 1931.62 321.256 1931.45C321.429 1931.28 321.515 1931.06 321.515 1930.78V1926.83H325.47C325.737 1926.83 325.955 1926.75 326.124 1926.58C326.294 1926.41 326.378 1926.2 326.378 1925.95C326.378 1925.68 326.294 1925.45 326.124 1925.29C325.955 1925.12 325.737 1925.03 325.47 1925.03H321.515V1921.09C321.515 1920.81 321.429 1920.59 321.256 1920.42C321.084 1920.24 320.864 1920.16 320.597 1920.16C320.337 1920.16 320.123 1920.24 319.957 1920.42C319.791 1920.59 319.708 1920.81 319.708 1921.09V1925.03H315.763C315.49 1925.03 315.268 1925.12 315.099 1925.29C314.93 1925.45 314.845 1925.68 314.845 1925.95Z" fill="black"/>
</g>
<text id="Design Variations" fill="black" xml:space="preserve" style="white-space: pre" font-family="Roboto" font-size="13" font-weight="bold" letter-spacing="0em"><tspan x="263" y="1951.94">Design Variations</tspan></text>
<text id="Symbols are supported in up to nine weights and three scales." fill="black" xml:space="preserve" style="white-space: pre" font-family="Roboto" font-size="13" letter-spacing="0em"><tspan x="263" y="1969.94">Symbols are supported in up to nine weights and three scales.</tspan></text>
<text id="For optimal layout with text and other symbols, vertically align" fill="black" xml:space="preserve" style="white-space: pre" font-family="Roboto" font-size="13" letter-spacing="0em"><tspan x="263" y="1987.94">For optimal layout with text and other symbols, vertically align</tspan></text>
<text id="symbols with the adjacent text." fill="black" xml:space="preserve" style="white-space: pre" font-family="Roboto" font-size="13" letter-spacing="0em"><tspan x="263" y="2005.94">symbols with the adjacent text.</tspan></text>
<path id="Vector_6" d="M776 1919V1933" stroke="#00AEEF" stroke-width="0.5"/>
<g id="Group_4">
<path id="Vector_7" d="M779.311 1933.16C779.571 1933.16 779.773 1933.1 779.916 1932.99C780.059 1932.88 780.176 1932.69 780.268 1932.41L781.527 1928.97H787.289L788.549 1932.41C788.64 1932.69 788.757 1932.88 788.9 1932.99C789.044 1933.1 789.242 1933.16 789.496 1933.16C789.757 1933.16 789.963 1933.08 790.116 1932.94C790.269 1932.8 790.346 1932.6 790.346 1932.36C790.346 1932.21 790.31 1932.03 790.238 1931.83L785.658 1919.63C785.541 1919.33 785.382 1919.11 785.18 1918.96C784.978 1918.81 784.721 1918.73 784.408 1918.73C783.803 1918.73 783.393 1919.03 783.178 1919.62L778.598 1931.84C778.526 1932.04 778.49 1932.22 778.49 1932.37C778.49 1932.61 778.563 1932.81 778.71 1932.95C778.856 1933.09 779.057 1933.16 779.311 1933.16ZM782.006 1927.48L784.379 1920.91H784.428L786.801 1927.48H782.006Z" fill="black"/>
</g>
<path id="Vector_8" d="M793.197 1919V1933" stroke="#00AEEF" stroke-width="0.5"/>
<text id="Margins" fill="black" xml:space="preserve" style="white-space: pre" font-family="Roboto" font-size="13" font-weight="bold" letter-spacing="0em"><tspan x="776" y="1951.94">Margins</tspan></text>
<text id="Leading and trailing margins on the left and right side of each symbol" fill="black" xml:space="preserve" style="white-space: pre" font-family="Roboto" font-size="13" letter-spacing="0em"><tspan x="776" y="1969.94">Leading and trailing margins on the left and right side of each symbol</tspan></text>
<text id="can be adjusted by modifying the x-location of the margin guidelines." fill="black" xml:space="preserve" style="white-space: pre" font-family="Roboto" font-size="13" letter-spacing="0em"><tspan x="776" y="1987.94">can be adjusted by modifying the x-location of the margin guidelines.</tspan></text>
<text id="Modifications are automatically applied proportionally to all" fill="black" xml:space="preserve" style="white-space: pre" font-family="Roboto" font-size="13" letter-spacing="0em"><tspan x="776" y="2005.94">Modifications are automatically applied proportionally to all</tspan></text>
<text id="scales and weights." fill="black" xml:space="preserve" style="white-space: pre" font-family="Roboto" font-size="13" letter-spacing="0em"><tspan x="776" y="2023.94">scales and weights.</tspan></text>
<g id="Group_5">
<path id="Vector_9" d="M1291.84 1934.87L1293.54 1936.57C1293.97 1937.01 1294.42 1937.21 1294.9 1937.18C1295.38 1937.15 1295.85 1936.87 1296.31 1936.36L1307.01 1924.57L1306.04 1923.6L1295.43 1935.28C1295.25 1935.48 1295.07 1935.59 1294.89 1935.62C1294.71 1935.64 1294.51 1935.54 1294.27 1935.3L1293.1 1934.14C1292.87 1933.91 1292.76 1933.7 1292.79 1933.52C1292.82 1933.34 1292.94 1933.16 1293.14 1932.98L1304.62 1922.18L1303.64 1921.21L1292.05 1932.1C1291.55 1932.56 1291.29 1933.02 1291.25 1933.5C1291.22 1933.97 1291.41 1934.43 1291.84 1934.87ZM1298.26 1916.67C1298.05 1916.87 1297.93 1917.1 1297.91 1917.37C1297.88 1917.63 1297.93 1917.85 1298.04 1918.05C1298.16 1918.23 1298.33 1918.37 1298.56 1918.46C1298.78 1918.55 1299.06 1918.56 1299.38 1918.48C1300.11 1918.31 1300.85 1918.24 1301.6 1918.27C1302.35 1918.3 1303.08 1918.55 1303.79 1919.02L1303.21 1920.47C1303.04 1920.89 1302.99 1921.25 1303.07 1921.56C1303.14 1921.87 1303.31 1922.16 1303.58 1922.43L1305.87 1924.75C1306.12 1925 1306.35 1925.14 1306.58 1925.18C1306.81 1925.22 1307.06 1925.21 1307.34 1925.16L1308.4 1924.96L1309.07 1925.64L1309.03 1926.19C1309.01 1926.44 1309.04 1926.67 1309.12 1926.88C1309.2 1927.09 1309.36 1927.31 1309.61 1927.55L1310.37 1928.29C1310.61 1928.53 1310.87 1928.66 1311.15 1928.67C1311.44 1928.68 1311.7 1928.57 1311.93 1928.33L1314.84 1925.41C1315.07 1925.18 1315.19 1924.92 1315.18 1924.65C1315.18 1924.37 1315.05 1924.11 1314.81 1923.87L1314.04 1923.11C1313.8 1922.87 1313.58 1922.7 1313.38 1922.61C1313.17 1922.53 1312.95 1922.49 1312.71 1922.51L1312.13 1922.56L1311.49 1921.93L1311.73 1920.8C1311.8 1920.52 1311.79 1920.26 1311.7 1920.02C1311.6 1919.77 1311.41 1919.5 1311.12 1919.21L1308.92 1917.02C1308.09 1916.2 1307.2 1915.58 1306.26 1915.16C1305.32 1914.75 1304.37 1914.53 1303.42 1914.52C1302.47 1914.5 1301.55 1914.68 1300.66 1915.04C1299.78 1915.41 1298.98 1915.95 1298.26 1916.67ZM1299.75 1917.04C1300.36 1916.6 1301.01 1916.28 1301.7 1916.1C1302.39 1915.91 1303.1 1915.85 1303.8 1915.92C1304.51 1915.98 1305.2 1916.17 1305.87 1916.49C1306.54 1916.8 1307.15 1917.24 1307.7 1917.79L1310.13 1920.21C1310.25 1920.32 1310.32 1920.44 1310.35 1920.55C1310.38 1920.66 1310.38 1920.8 1310.34 1920.97L1310.02 1922.45L1311.52 1923.94L1312.51 1923.88C1312.63 1923.87 1312.72 1923.88 1312.79 1923.9C1312.85 1923.93 1312.94 1923.99 1313.03 1924.08L1313.61 1924.66L1311.17 1927.1L1310.59 1926.53C1310.49 1926.43 1310.43 1926.35 1310.41 1926.28C1310.38 1926.22 1310.37 1926.12 1310.38 1925.99L1310.45 1925.01L1308.95 1923.53L1307.43 1923.78C1307.26 1923.81 1307.14 1923.82 1307.04 1923.8C1306.95 1923.77 1306.84 1923.7 1306.71 1923.59L1304.71 1921.58C1304.58 1921.47 1304.51 1921.35 1304.49 1921.25C1304.48 1921.14 1304.51 1920.99 1304.59 1920.81L1305.46 1918.72C1304.68 1917.99 1303.8 1917.49 1302.83 1917.21C1301.85 1916.93 1300.86 1916.94 1299.84 1917.24C1299.76 1917.26 1299.71 1917.24 1299.69 1917.19C1299.67 1917.15 1299.69 1917.1 1299.75 1917.04Z" fill="black"/>
</g>
<text id="Exporting" fill="black" xml:space="preserve" style="white-space: pre" font-family="Roboto" font-size="13" font-weight="bold" letter-spacing="0em"><tspan x="1289" y="1951.94">Exporting</tspan></text>
<text id="Symbols should be outlined when exporting to ensure the" fill="black" xml:space="preserve" style="white-space: pre" font-family="Roboto" font-size="13" letter-spacing="0em"><tspan x="1289" y="1969.94">Symbols should be outlined when exporting to ensure the</tspan></text>
<text id="design is preserved when submitting to Xcode." fill="black" xml:space="preserve" style="white-space: pre" font-family="Roboto" font-size="13" letter-spacing="0em"><tspan x="1289" y="1987.94">design is preserved when submitting to Xcode.</tspan></text>
<text id="template-version" fill="black" xml:space="preserve" style="white-space: pre" font-family="Roboto" font-size="13" letter-spacing="0em"><tspan x="2951" y="1931.94">Template v.3.0</tspan></text>
<text id="Requires Xcode 13 or greater" fill="black" xml:space="preserve" style="white-space: pre" font-family="Roboto" font-size="13" letter-spacing="0em"><tspan x="2868" y="1949.94">Requires Xcode 13 or greater</tspan></text>
<text id="descriptive-name" fill="black" xml:space="preserve" style="white-space: pre" font-family="Roboto" font-size="13" letter-spacing="0em"><tspan x="2849" y="1967.94">Generated from arrow.clockwise</tspan></text>
<text id="Typeset at 100 points" fill="black" xml:space="preserve" style="white-space: pre" font-family="Roboto" font-size="13" letter-spacing="0em"><tspan x="2911" y="1985.94">Typeset at 100 points</tspan></text>
<text id="Small" fill="black" xml:space="preserve" style="white-space: pre" font-family="Roboto" font-size="13" letter-spacing="0em"><tspan x="263" y="724.943">Small</tspan></text>
<text id="Medium_2" fill="black" xml:space="preserve" style="white-space: pre" font-family="Roboto" font-size="13" letter-spacing="0em"><tspan x="263" y="1154.94">Medium</tspan></text>
<text id="Large" fill="black" xml:space="preserve" style="white-space: pre" font-family="Roboto" font-size="13" letter-spacing="0em"><tspan x="263" y="1584.94">Large</tspan></text>
</g>
<g id="Guides">
<g id="H-reference">
<path id="Vector_10" d="M339.977 696H342.662L368.346 628.861H369.029V625.541H367.125L339.977 696ZM350.67 671.537H385.973L385.24 669.291H351.451L350.67 671.537ZM394.127 696H396.764L369.615 625.541H368.443V628.861L394.127 696Z" fill="#27AAE1"/>
</g>
<path id="Baseline-S" d="M263 696H3036" stroke="#27AAE1" stroke-width="0.5"/>
<path id="Capline-S" d="M263 625.541H3036" stroke="#27AAE1" stroke-width="0.5"/>
<g id="H-reference_2">
<path id="Vector_11" d="M339.977 1126H342.662L368.346 1058.86H369.029V1055.54H367.125L339.977 1126ZM350.67 1101.54H385.973L385.24 1099.29H351.451L350.67 1101.54ZM394.127 1126H396.764L369.615 1055.54H368.443V1058.86L394.127 1126Z" fill="#27AAE1"/>
</g>
<path id="Baseline-M" d="M263 1126H3036" stroke="#27AAE1" stroke-width="0.5"/>
<path id="Capline-M" d="M263 1055.54H3036" stroke="#27AAE1" stroke-width="0.5"/>
<g id="H-reference_3">
<path id="Vector_12" d="M339.977 1556H342.662L368.346 1488.86H369.029V1485.54H367.125L339.977 1556ZM350.67 1531.54H385.973L385.24 1529.29H351.451L350.67 1531.54ZM394.127 1556H396.764L369.615 1485.54H368.443V1488.86L394.127 1556Z" fill="#27AAE1"/>
</g>
<path id="Baseline-L" d="M263 1556H3036" stroke="#27AAE1" stroke-width="0.5"/>
<path id="Capline-L" d="M263 1485.54H3036" stroke="#27AAE1" stroke-width="0.5"/>
<path id="left-margin-Regular-M" d="M1397.96 1030.79V1150.12" stroke="#00AEEF" stroke-width="0.5"/>
<path id="right-margin-Regular-M" d="M1501.72 1030.79V1150.12" stroke="#00AEEF" stroke-width="0.5"/>
</g>
<g id="Symbols">
<g id="Black-L">
<path id="Union (Stroke)" fill-rule="evenodd" clip-rule="evenodd" d="M2934.42 1465.75C2906.93 1465.75 2884.75 1487.86 2884.75 1515C2884.75 1542.14 2906.93 1564.25 2934.42 1564.25C2943.13 1564.25 2951.29 1562.04 2958.38 1558.15C2962.62 1555.83 2967.94 1557.39 2970.26 1561.63C2972.58 1565.87 2971.02 1571.19 2966.78 1573.51C2957.17 1578.76 2946.13 1581.75 2934.42 1581.75C2897.38 1581.75 2867.25 1551.92 2867.25 1515C2867.25 1478.08 2897.38 1448.25 2934.42 1448.25C2953.65 1448.25 2971 1456.28 2983.25 1469.16V1457C2983.25 1452.17 2987.17 1448.25 2992 1448.25C2996.83 1448.25 3000.75 1452.17 3000.75 1457V1496.43C3000.75 1501.54 2996.61 1505.68 2991.5 1505.68H2951.9C2947.07 1505.68 2943.15 1501.76 2943.15 1496.93C2943.15 1492.1 2947.07 1488.18 2951.9 1488.18H2976.09C2967.23 1474.69 2951.89 1465.75 2934.42 1465.75Z" fill="black"/>
</g>
<g id="Heavy-L">
<path id="Union (Stroke)_2" fill-rule="evenodd" clip-rule="evenodd" d="M2638.42 1468.75C2610.93 1468.75 2588.75 1490.86 2588.75 1518C2588.75 1545.14 2610.93 1567.25 2638.42 1567.25C2647.13 1567.25 2655.29 1565.04 2662.38 1561.15C2666.62 1558.83 2671.94 1560.39 2674.26 1564.63C2676.58 1568.87 2675.02 1574.19 2670.78 1576.51C2661.17 1581.76 2650.13 1584.75 2638.42 1584.75C2601.38 1584.75 2571.25 1554.92 2571.25 1518C2571.25 1481.08 2601.38 1451.25 2638.42 1451.25C2657.65 1451.25 2675 1459.28 2687.25 1472.16V1460C2687.25 1455.17 2691.17 1451.25 2696 1451.25C2700.83 1451.25 2704.75 1455.17 2704.75 1460V1499.43C2704.75 1504.54 2700.61 1508.68 2695.5 1508.68H2655.9C2651.07 1508.68 2647.15 1504.76 2647.15 1499.93C2647.15 1495.1 2651.07 1491.18 2655.9 1491.18H2680.09C2671.23 1477.69 2655.89 1468.75 2638.42 1468.75Z" fill="black"/>
</g>
<g id="Bold-L">
<path id="Union (Stroke)_3" fill-rule="evenodd" clip-rule="evenodd" d="M2342.42 1467.75C2314.38 1467.75 2291.75 1490.3 2291.75 1518C2291.75 1545.7 2314.38 1568.25 2342.42 1568.25C2351.3 1568.25 2359.62 1565.99 2366.86 1562.03C2370.61 1559.98 2375.32 1561.35 2377.38 1565.11C2379.43 1568.86 2378.05 1573.57 2374.3 1575.63C2364.84 1580.81 2353.96 1583.75 2342.42 1583.75C2305.93 1583.75 2276.25 1554.37 2276.25 1518C2276.25 1481.63 2305.93 1452.25 2342.42 1452.25C2362.29 1452.25 2380.12 1460.95 2392.25 1474.74V1460C2392.25 1455.72 2395.72 1452.25 2400 1452.25C2404.28 1452.25 2407.75 1455.72 2407.75 1460V1499.43C2407.75 1503.98 2404.06 1507.68 2399.5 1507.68H2359.9C2355.62 1507.68 2352.15 1504.21 2352.15 1499.93C2352.15 1495.65 2355.62 1492.18 2359.9 1492.18H2385.9C2377.05 1477.55 2360.9 1467.75 2342.42 1467.75Z" fill="black"/>
</g>
<g id="Semibold-L">
<path id="Union (Stroke)_4" fill-rule="evenodd" clip-rule="evenodd" d="M2045.42 1466C2016.43 1466 1993 1489.32 1993 1518C1993 1546.68 2016.43 1570 2045.42 1570C2054.6 1570 2063.21 1567.66 2070.7 1563.57C2073.61 1561.98 2077.25 1563.04 2078.84 1565.95C2080.43 1568.86 2079.37 1572.5 2076.46 1574.09C2067.25 1579.14 2056.66 1582 2045.42 1582C2009.88 1582 1981 1553.39 1981 1518C1981 1482.61 2009.88 1454 2045.42 1454C2066.51 1454 2085.25 1464.07 2097 1479.65V1460C2097 1456.69 2099.69 1454 2103 1454C2106.31 1454 2109 1456.69 2109 1460V1499.43C2109 1503.02 2106.09 1505.93 2102.5 1505.93H2062.9C2059.59 1505.93 2056.9 1503.24 2056.9 1499.93C2056.9 1496.61 2059.59 1493.93 2062.9 1493.93H2091.9C2083.15 1477.34 2065.62 1466 2045.42 1466Z" fill="black"/>
</g>
<g id="Medium-L">
<path id="Union (Stroke)_5" fill-rule="evenodd" clip-rule="evenodd" d="M1747.42 1466.5C1718.16 1466.5 1694.5 1490.04 1694.5 1519C1694.5 1547.96 1718.16 1571.5 1747.42 1571.5C1756.69 1571.5 1765.38 1569.14 1772.94 1565.01C1775.6 1563.55 1778.95 1564.53 1780.4 1567.19C1781.86 1569.85 1780.89 1573.2 1778.22 1574.65C1769.08 1579.66 1758.57 1582.5 1747.42 1582.5C1712.16 1582.5 1683.5 1554.11 1683.5 1519C1683.5 1483.89 1712.16 1455.5 1747.42 1455.5C1768.9 1455.5 1787.91 1466.02 1799.5 1482.18V1461C1799.5 1457.96 1801.96 1455.5 1805 1455.5C1808.04 1455.5 1810.5 1457.96 1810.5 1461V1500.43C1810.5 1503.74 1807.81 1506.43 1804.5 1506.43H1764.9C1761.87 1506.43 1759.4 1503.97 1759.4 1500.93C1759.4 1497.89 1761.87 1495.43 1764.9 1495.43H1794.72C1786.02 1478.28 1768.11 1466.5 1747.42 1466.5Z" fill="black"/>
</g>
<g id="Regular-L">
<path id="Union (Stroke)_6" fill-rule="evenodd" clip-rule="evenodd" d="M1452.42 1467C1422.88 1467 1399 1490.76 1399 1520C1399 1549.24 1422.88 1573 1452.42 1573C1461.77 1573 1470.55 1570.62 1478.18 1566.44C1480.6 1565.12 1483.64 1566.01 1484.97 1568.43C1486.29 1570.85 1485.4 1573.89 1482.98 1575.22C1473.91 1580.18 1463.49 1583 1452.42 1583C1417.43 1583 1389 1554.83 1389 1520C1389 1485.17 1417.43 1457 1452.42 1457C1474.3 1457 1493.6 1468.01 1505 1484.76V1462C1505 1459.24 1507.24 1457 1510 1457C1512.76 1457 1515 1459.24 1515 1462V1501.43C1515 1504.47 1512.54 1506.93 1509.5 1506.93H1469.9C1467.14 1506.93 1464.9 1504.69 1464.9 1501.93C1464.9 1499.17 1467.14 1496.93 1469.9 1496.93H1500.53C1491.88 1479.22 1473.6 1467 1452.42 1467Z" fill="black"/>
</g>
<g id="Light-L">
<path id="Union (Stroke)_7" fill-rule="evenodd" clip-rule="evenodd" d="M1153.42 1465C1123.34 1465 1099 1489.2 1099 1519C1099 1548.8 1123.34 1573 1153.42 1573C1162.94 1573 1171.88 1570.58 1179.66 1566.32C1181.6 1565.26 1184.03 1565.97 1185.09 1567.91C1186.15 1569.85 1185.44 1572.28 1183.5 1573.34C1174.57 1578.22 1164.32 1581 1153.42 1581C1118.97 1581 1091 1553.27 1091 1519C1091 1484.73 1118.97 1457 1153.42 1457C1176.17 1457 1196.09 1469.09 1207 1487.18V1461C1207 1458.79 1208.79 1457 1211 1457C1213.21 1457 1215 1458.79 1215 1461V1500.43C1215 1502.91 1212.99 1504.93 1210.5 1504.93H1170.9C1168.7 1504.93 1166.9 1503.14 1166.9 1500.93C1166.9 1498.72 1168.7 1496.93 1170.9 1496.93H1203.1C1194.6 1478.11 1175.56 1465 1153.42 1465Z" fill="black"/>
</g>
<g id="Thin-L">
<path id="Union (Stroke)_8" fill-rule="evenodd" clip-rule="evenodd" d="M858.42 1464.5C828.065 1464.5 803.5 1488.92 803.5 1519C803.5 1549.08 828.065 1573.5 858.42 1573.5C868.029 1573.5 877.051 1571.05 884.9 1566.76C886.595 1565.83 888.722 1566.45 889.65 1568.15C890.578 1569.85 889.956 1571.97 888.26 1572.9C879.406 1577.75 869.231 1580.5 858.42 1580.5C824.247 1580.5 796.5 1552.99 796.5 1519C796.5 1485.01 824.247 1457.5 858.42 1457.5C881.655 1457.5 901.907 1470.21 912.5 1489.03V1461C912.5 1459.07 914.067 1457.5 916 1457.5C917.933 1457.5 919.5 1459.07 919.5 1461V1500.43C919.5 1502.64 917.709 1504.43 915.5 1504.43H875.904C873.971 1504.43 872.404 1502.86 872.404 1500.93C872.404 1498.99 873.971 1497.43 875.904 1497.43H908.872C900.452 1478.06 881.036 1464.5 858.42 1464.5Z" fill="black"/>
</g>
<g id="Ultralight-L">
<path id="Union (Stroke)_9" fill-rule="evenodd" clip-rule="evenodd" d="M560.42 1463.5C529.519 1463.5 504.5 1488.37 504.5 1519C504.5 1549.63 529.519 1574.5 560.42 1574.5C570.201 1574.5 579.388 1572.01 587.38 1567.64C588.591 1566.97 590.11 1567.42 590.773 1568.63C591.436 1569.84 590.991 1571.36 589.78 1572.02C581.069 1576.79 571.06 1579.5 560.42 1579.5C526.792 1579.5 499.5 1552.43 499.5 1519C499.5 1485.57 526.792 1458.5 560.42 1458.5C584.737 1458.5 605.731 1472.65 615.5 1493.12V1461C615.5 1459.62 616.619 1458.5 618 1458.5C619.381 1458.5 620.5 1459.62 620.5 1461V1500.43C620.5 1502.08 619.157 1503.43 617.5 1503.43H577.904C576.524 1503.43 575.404 1502.31 575.404 1500.93C575.404 1499.55 576.524 1498.43 577.904 1498.43H612.374C604.141 1477.97 583.986 1463.5 560.42 1463.5Z" fill="black"/>
</g>
<g id="Black-M">
<path id="Union (Stroke)_10" fill-rule="evenodd" clip-rule="evenodd" d="M2932.81 1057C2912.98 1057 2897 1072.94 2897 1092.5C2897 1112.06 2912.98 1128 2932.81 1128C2939.09 1128 2944.97 1126.4 2950.08 1123.61C2953.47 1121.75 2957.73 1122.99 2959.58 1126.39C2961.44 1129.78 2960.19 1134.03 2956.8 1135.89C2949.68 1139.79 2941.49 1142 2932.81 1142C2905.35 1142 2883 1119.89 2883 1092.5C2883 1065.11 2905.35 1043 2932.81 1043C2946.54 1043 2958.99 1048.53 2968 1057.47V1050C2968 1046.13 2971.13 1043 2975 1043C2978.87 1043 2982 1046.13 2982 1050V1078.76C2982 1082.9 2978.64 1086.26 2974.5 1086.26H2945.62C2941.75 1086.26 2938.62 1083.12 2938.62 1079.26C2938.62 1075.39 2941.75 1072.26 2945.62 1072.26H2962.23C2955.77 1063.04 2945 1057 2932.81 1057Z" fill="black"/>
</g>
<g id="Heavy-M">
<path id="Union (Stroke)_11" fill-rule="evenodd" clip-rule="evenodd" d="M2634.81 1057C2614.98 1057 2599 1072.94 2599 1092.5C2599 1112.06 2614.98 1128 2634.81 1128C2641.09 1128 2646.97 1126.4 2652.08 1123.61C2655.47 1121.75 2659.73 1122.99 2661.58 1126.39C2663.44 1129.78 2662.19 1134.03 2658.8 1135.89C2651.68 1139.79 2643.49 1142 2634.81 1142C2607.35 1142 2585 1119.89 2585 1092.5C2585 1065.11 2607.35 1043 2634.81 1043C2648.54 1043 2660.99 1048.53 2670 1057.47V1050C2670 1046.13 2673.13 1043 2677 1043C2680.87 1043 2684 1046.13 2684 1050V1078.76C2684 1082.9 2680.64 1086.26 2676.5 1086.26H2647.62C2643.75 1086.26 2640.62 1083.12 2640.62 1079.26C2640.62 1075.39 2643.75 1072.26 2647.62 1072.26H2664.23C2657.77 1063.04 2647 1057 2634.81 1057Z" fill="black"/>
</g>
<g id="Bold-M">
<path id="Union (Stroke)_12" fill-rule="evenodd" clip-rule="evenodd" d="M2339.81 1056C2319.71 1056 2303.5 1072.16 2303.5 1092C2303.5 1111.84 2319.71 1128 2339.81 1128C2346.17 1128 2352.14 1126.38 2357.32 1123.54C2360.47 1121.82 2364.42 1122.98 2366.14 1126.13C2367.87 1129.27 2366.71 1133.22 2363.56 1134.95C2356.51 1138.81 2348.41 1141 2339.81 1141C2312.62 1141 2290.5 1119.11 2290.5 1092C2290.5 1064.89 2312.62 1043 2339.81 1043C2353.84 1043 2366.52 1048.83 2375.5 1058.19V1049.5C2375.5 1045.91 2378.41 1043 2382 1043C2385.59 1043 2388.5 1045.91 2388.5 1049.5V1078.26C2388.5 1082.12 2385.37 1085.26 2381.5 1085.26H2352.62C2349.03 1085.26 2346.12 1082.35 2346.12 1078.76C2346.12 1075.17 2349.03 1072.26 2352.62 1072.26H2370.18C2363.69 1062.47 2352.52 1056 2339.81 1056Z" fill="black"/>
</g>
<g id="Semibold-M">
<path id="Union (Stroke)_13" fill-rule="evenodd" clip-rule="evenodd" d="M2042.81 1055.5C2022.3 1055.5 2005.75 1071.99 2005.75 1092.25C2005.75 1112.51 2022.3 1129 2042.81 1129C2049.3 1129 2055.39 1127.35 2060.68 1124.45C2063.47 1122.93 2066.96 1123.95 2068.49 1126.74C2070.01 1129.52 2068.99 1133.02 2066.2 1134.54C2059.26 1138.34 2051.28 1140.5 2042.81 1140.5C2016.03 1140.5 1994.25 1118.94 1994.25 1092.25C1994.25 1065.56 2016.03 1044 2042.81 1044C2057.32 1044 2070.35 1050.33 2079.25 1060.36V1049.75C2079.25 1046.57 2081.82 1044 2085 1044C2088.18 1044 2090.75 1046.57 2090.75 1049.75V1078.51C2090.75 1081.96 2087.95 1084.76 2084.5 1084.76H2055.62C2052.44 1084.76 2049.87 1082.18 2049.87 1079.01C2049.87 1075.83 2052.44 1073.26 2055.62 1073.26H2074.54C2068.05 1062.62 2056.27 1055.5 2042.81 1055.5Z" fill="black"/>
</g>
<g id="Medium-M">
<path id="Union (Stroke)_14" fill-rule="evenodd" clip-rule="evenodd" d="M1744.81 1055C1723.89 1055 1707 1071.82 1707 1092.5C1707 1113.18 1723.89 1130 1744.81 1130C1751.43 1130 1757.64 1128.32 1763.04 1125.36C1765.46 1124.03 1768.5 1124.92 1769.83 1127.35C1771.15 1129.77 1770.26 1132.81 1767.84 1134.13C1761 1137.87 1753.15 1140 1744.81 1140C1718.44 1140 1697 1118.77 1697 1092.5C1697 1066.23 1718.44 1045 1744.81 1045C1759.83 1045 1773.23 1051.88 1782 1062.65V1050C1782 1047.24 1784.24 1045 1787 1045C1789.76 1045 1792 1047.24 1792 1050V1078.76C1792 1081.79 1789.54 1084.26 1786.5 1084.26H1757.62C1754.86 1084.26 1752.62 1082.02 1752.62 1079.26C1752.62 1076.5 1754.86 1074.26 1757.62 1074.26H1777.85C1771.39 1062.78 1759.02 1055 1744.81 1055Z" fill="black"/>
</g>
<g id="Regular-M">
<path id="Union (Stroke)_15" fill-rule="evenodd" clip-rule="evenodd" d="M1450.81 1054.5C1429.76 1054.5 1412.75 1071.43 1412.75 1092.25C1412.75 1113.07 1429.76 1130 1450.81 1130C1457.47 1130 1463.73 1128.3 1469.16 1125.33C1471.46 1124.07 1474.35 1124.91 1475.61 1127.22C1476.87 1129.52 1476.02 1132.4 1473.72 1133.66C1466.92 1137.39 1459.11 1139.5 1450.81 1139.5C1424.57 1139.5 1403.25 1118.38 1403.25 1092.25C1403.25 1066.12 1424.57 1045 1450.81 1045C1466 1045 1479.54 1052.08 1488.25 1063.11V1049.75C1488.25 1047.13 1490.38 1045 1493 1045C1495.62 1045 1497.75 1047.13 1497.75 1049.75V1078.51C1497.75 1081.41 1495.4 1083.76 1492.5 1083.76H1463.62C1461 1083.76 1458.87 1081.63 1458.87 1079.01C1458.87 1076.38 1461 1074.26 1463.62 1074.26H1484.27C1477.83 1062.5 1465.27 1054.5 1450.81 1054.5Z" fill="black"/>
</g>
<g id="Light-M">
<path id="Union (Stroke)_16" fill-rule="evenodd" clip-rule="evenodd" d="M1153.81 1053.5C1132.48 1053.5 1115.25 1070.65 1115.25 1091.75C1115.25 1112.85 1132.48 1130 1153.81 1130C1160.56 1130 1166.89 1128.28 1172.4 1125.27C1174.46 1124.14 1177.04 1124.9 1178.17 1126.96C1179.3 1129.01 1178.54 1131.6 1176.48 1132.72C1169.75 1136.41 1162.02 1138.5 1153.81 1138.5C1127.85 1138.5 1106.75 1117.6 1106.75 1091.75C1106.75 1065.9 1127.85 1045 1153.81 1045C1169.37 1045 1183.18 1052.51 1191.75 1064.09V1049.25C1191.75 1046.9 1193.65 1045 1196 1045C1198.35 1045 1200.25 1046.9 1200.25 1049.25V1078.01C1200.25 1080.63 1198.12 1082.76 1195.5 1082.76H1166.62C1164.27 1082.76 1162.37 1080.85 1162.37 1078.51C1162.37 1076.16 1164.27 1074.26 1166.62 1074.26H1188.11C1181.71 1061.94 1168.76 1053.5 1153.81 1053.5Z" fill="black"/>
</g>
<g id="Thin-M">
<path id="Union (Stroke)_17" fill-rule="evenodd" clip-rule="evenodd" d="M856.808 1052.5C834.666 1052.5 816.75 1070.32 816.75 1092.25C816.75 1114.18 834.666 1132 856.808 1132C863.817 1132 870.398 1130.22 876.122 1127.08C877.454 1126.35 879.125 1126.84 879.855 1128.18C880.584 1129.51 880.095 1131.18 878.762 1131.91C872.248 1135.47 864.762 1137.5 856.808 1137.5C831.666 1137.5 811.25 1117.26 811.25 1092.25C811.25 1067.24 831.666 1047 856.808 1047C873.652 1047 888.366 1056.08 896.25 1069.59V1049.75C896.25 1048.23 897.481 1047 899 1047C900.519 1047 901.75 1048.23 901.75 1049.75V1078.51C901.75 1080.3 900.295 1081.76 898.5 1081.76H869.62C868.101 1081.76 866.87 1080.53 866.87 1079.01C866.87 1077.49 868.101 1076.26 869.62 1076.26H893.493C887.292 1062.27 873.203 1052.5 856.808 1052.5Z" fill="black"/>
</g>
<g id="Ultralight-M">
<path id="Union (Stroke)_18" fill-rule="evenodd" clip-rule="evenodd" d="M558.808 1051.5C536.12 1051.5 517.75 1069.76 517.75 1092.25C517.75 1114.74 536.12 1133 558.808 1133C565.989 1133 572.734 1131.17 578.602 1127.96C579.45 1127.5 580.513 1127.81 580.977 1128.66C581.441 1129.5 581.13 1130.57 580.282 1131.03C573.911 1134.52 566.59 1136.5 558.808 1136.5C534.211 1136.5 514.25 1116.7 514.25 1092.25C514.25 1067.8 534.211 1048 558.808 1048C576.724 1048 592.174 1058.5 599.25 1073.65V1049.75C599.25 1048.78 600.033 1048 601 1048C601.966 1048 602.75 1048.78 602.75 1049.75V1078.51C602.75 1079.75 601.743 1080.76 600.5 1080.76H571.62C570.653 1080.76 569.87 1079.97 569.87 1079.01C569.87 1078.04 570.653 1077.26 571.62 1077.26H596.998C590.982 1062.17 576.153 1051.5 558.808 1051.5Z" fill="black"/>
</g>
<g id="Black-S">
<path id="Union (Stroke)_19" fill-rule="evenodd" clip-rule="evenodd" d="M2931.75 631C2915.83 631 2903 643.801 2903 659.5C2903 675.199 2915.83 688 2931.75 688C2936.79 688 2941.51 686.718 2945.62 684.471C2948.53 682.881 2952.17 683.948 2953.76 686.855C2955.35 689.762 2954.29 693.408 2951.38 694.998C2945.55 698.189 2938.85 700 2931.75 700C2909.29 700 2891 681.908 2891 659.5C2891 637.092 2909.29 619 2931.75 619C2942.71 619 2952.67 623.305 2960 630.313V625C2960 621.686 2962.69 619 2966 619C2969.31 619 2972 621.686 2972 625V648.25C2972 651.84 2969.09 654.75 2965.5 654.75H2942.15C2938.84 654.75 2936.15 652.064 2936.15 648.75C2936.15 645.436 2938.84 642.75 2942.15 642.75H2955.01C2949.79 635.634 2941.32 631 2931.75 631Z" fill="black"/>
</g>
<g id="Heavy-S">
<path id="Union (Stroke)_20" fill-rule="evenodd" clip-rule="evenodd" d="M2637.75 632C2621.83 632 2609 644.801 2609 660.5C2609 676.199 2621.83 689 2637.75 689C2642.79 689 2647.51 687.718 2651.62 685.471C2654.53 683.881 2658.17 684.948 2659.76 687.855C2661.35 690.762 2660.29 694.408 2657.38 695.998C2651.55 699.189 2644.85 701 2637.75 701C2615.29 701 2597 682.908 2597 660.5C2597 638.092 2615.29 620 2637.75 620C2648.71 620 2658.67 624.305 2666 631.313V626C2666 622.686 2668.69 620 2672 620C2675.31 620 2678 622.686 2678 626V649.25C2678 652.84 2675.09 655.75 2671.5 655.75H2648.15C2644.84 655.75 2642.15 653.064 2642.15 649.75C2642.15 646.436 2644.84 643.75 2648.15 643.75H2661.01C2655.79 636.634 2647.32 632 2637.75 632Z" fill="black"/>
</g>
<g id="Bold-S">
<path id="Union (Stroke)_21" fill-rule="evenodd" clip-rule="evenodd" d="M2339.75 632C2323.29 632 2310 645.242 2310 661.5C2310 677.758 2323.29 691 2339.75 691C2344.96 691 2349.85 689.674 2354.1 687.349C2356.52 686.023 2359.56 686.912 2360.89 689.335C2362.21 691.757 2361.32 694.796 2358.9 696.121C2353.21 699.233 2346.68 701 2339.75 701C2317.83 701 2300 683.349 2300 661.5C2300 639.651 2317.83 622 2339.75 622C2351.32 622 2361.73 626.91 2369 634.753V627C2369 624.239 2371.24 622 2374 622C2376.76 622 2379 624.239 2379 627V650.25C2379 653.288 2376.54 655.75 2373.5 655.75H2350.15C2347.39 655.75 2345.15 653.511 2345.15 650.75C2345.15 647.989 2347.39 645.75 2350.15 645.75H2364.91C2359.64 637.492 2350.35 632 2339.75 632Z" fill="black"/>
</g>
<g id="Semibold-S">
<path id="Union (Stroke)_22" fill-rule="evenodd" clip-rule="evenodd" d="M2044.75 630.5C2028.01 630.5 2014.5 643.962 2014.5 660.5C2014.5 677.038 2028.01 690.5 2044.75 690.5C2050.05 690.5 2055.02 689.152 2059.34 686.787C2061.52 685.594 2064.25 686.395 2065.45 688.575C2066.64 690.755 2065.84 693.49 2063.66 694.683C2058.05 697.755 2051.6 699.5 2044.75 699.5C2023.1 699.5 2005.5 682.07 2005.5 660.5C2005.5 638.93 2023.1 621.5 2044.75 621.5C2056.64 621.5 2067.3 626.754 2074.5 635.06V626C2074.5 623.515 2076.51 621.5 2079 621.5C2081.49 621.5 2083.5 623.515 2083.5 626V649.25C2083.5 652.012 2081.26 654.25 2078.5 654.25H2055.15C2052.66 654.25 2050.65 652.235 2050.65 649.75C2050.65 647.265 2052.66 645.25 2055.15 645.25H2070.81C2065.54 636.426 2055.85 630.5 2044.75 630.5Z" fill="black"/>
</g>
<g id="Medium-S">
<path id="Union (Stroke)_23" fill-rule="evenodd" clip-rule="evenodd" d="M1746.75 631.25C1729.88 631.25 1716.25 644.822 1716.25 661.5C1716.25 678.178 1729.88 691.75 1746.75 691.75C1752.09 691.75 1757.1 690.391 1761.46 688.007C1763.52 686.88 1766.1 687.636 1767.23 689.695C1768.36 691.754 1767.6 694.336 1765.54 695.463C1759.96 698.516 1753.55 700.25 1746.75 700.25C1725.24 700.25 1707.75 682.93 1707.75 661.5C1707.75 640.07 1725.24 622.75 1746.75 622.75C1758.81 622.75 1769.59 628.189 1776.75 636.739V627C1776.75 624.653 1778.65 622.75 1781 622.75C1783.35 622.75 1785.25 624.653 1785.25 627V650.25C1785.25 652.873 1783.12 655 1780.5 655H1757.15C1754.8 655 1752.9 653.097 1752.9 650.75C1752.9 648.403 1754.8 646.5 1757.15 646.5H1773.24C1767.99 637.394 1758.1 631.25 1746.75 631.25Z" fill="black"/>
</g>
<g id="Regular-S">
<path id="Union (Stroke)_24" fill-rule="evenodd" clip-rule="evenodd" d="M1450.75 629C1433.74 629 1420 642.682 1420 659.5C1420 676.318 1433.74 690 1450.75 690C1456.14 690 1461.19 688.63 1465.58 686.226C1467.52 685.165 1469.95 685.877 1471.01 687.815C1472.07 689.753 1471.36 692.183 1469.42 693.244C1463.88 696.277 1457.51 698 1450.75 698C1429.38 698 1412 680.79 1412 659.5C1412 638.21 1429.38 621 1450.75 621C1462.98 621 1473.9 626.633 1481 635.437V625C1481 622.791 1482.79 621 1485 621C1487.21 621 1489 622.791 1489 625V648.25C1489 650.735 1486.99 652.75 1484.5 652.75H1461.15C1458.94 652.75 1457.15 650.959 1457.15 648.75C1457.15 646.541 1458.94 644.75 1461.15 644.75H1477.67C1472.43 635.363 1462.34 629 1450.75 629Z" fill="black"/>
</g>
<g id="Light-S">
<path id="Union (Stroke)_25" fill-rule="evenodd" clip-rule="evenodd" d="M1151.75 630.5C1134.47 630.5 1120.5 644.403 1120.5 661.5C1120.5 678.597 1134.47 692.5 1151.75 692.5C1157.22 692.5 1162.36 691.108 1166.82 688.665C1168.52 687.737 1170.64 688.359 1171.57 690.055C1172.5 691.751 1171.88 693.877 1170.18 694.805C1164.71 697.799 1158.42 699.5 1151.75 699.5C1130.65 699.5 1113.5 682.511 1113.5 661.5C1113.5 640.489 1130.65 623.5 1151.75 623.5C1164.35 623.5 1175.53 629.552 1182.5 638.897V627C1182.5 625.067 1184.07 623.5 1186 623.5C1187.93 623.5 1189.5 625.067 1189.5 627V650.25C1189.5 652.459 1187.71 654.25 1185.5 654.25H1162.15C1160.22 654.25 1158.65 652.683 1158.65 650.75C1158.65 648.817 1160.22 647.25 1162.15 647.25H1179.51C1174.31 637.304 1163.84 630.5 1151.75 630.5Z" fill="black"/>
</g>
<g id="Thin-S">
<path id="Union (Stroke)_26" fill-rule="evenodd" clip-rule="evenodd" d="M857.75 629.5C839.922 629.5 825.5 643.844 825.5 661.5C825.5 679.156 839.922 693.5 857.75 693.5C863.394 693.5 868.692 692.064 873.3 689.542C874.511 688.879 876.03 689.324 876.693 690.535C877.356 691.746 876.911 693.265 875.7 693.928C870.373 696.843 864.252 698.5 857.75 698.5C837.194 698.5 820.5 681.952 820.5 661.5C820.5 641.048 837.194 624.5 857.75 624.5C871.174 624.5 882.944 631.554 889.5 642.141V627C889.5 625.619 890.619 624.5 892 624.5C893.381 624.5 894.5 625.619 894.5 627V650.25C894.5 651.907 893.157 653.25 891.5 653.25H868.15C866.769 653.25 865.65 652.131 865.65 650.75C865.65 649.369 866.769 648.25 868.15 648.25H887.115C882.039 637.193 870.803 629.5 857.75 629.5Z" fill="black"/>
</g>
<g id="Ultralight-S">
<path id="Union (Stroke)_27" fill-rule="evenodd" clip-rule="evenodd" d="M559.75 628.625C541.444 628.625 526.625 643.355 526.625 661.5C526.625 679.645 541.444 694.375 559.75 694.375C565.544 694.375 570.986 692.9 575.72 690.309C576.507 689.879 577.495 690.168 577.926 690.955C578.356 691.742 578.067 692.73 577.28 693.16C572.079 696.007 566.102 697.625 559.75 697.625C539.672 697.625 523.375 681.462 523.375 661.5C523.375 641.538 539.672 625.375 559.75 625.375C574.055 625.375 586.434 633.576 592.375 645.508V627C592.375 626.103 593.103 625.375 594 625.375C594.897 625.375 595.625 626.103 595.625 627V650.25C595.625 651.424 594.674 652.375 593.5 652.375H570.15C569.253 652.375 568.525 651.648 568.525 650.75C568.525 649.853 569.253 649.125 570.15 649.125H590.448C585.524 637.105 573.637 628.625 559.75 628.625Z" fill="black"/>
</g>
</g>
</g>
<defs>
<clipPath id="clip0_907_3757">
<rect width="3300" height="2200" fill="white"/>
</clipPath>
</defs>
</svg>
