<svg xmlns="http://www.w3.org/2000/svg" width="20" height="20" viewBox="0 0 20 20">
<path d="M16.002 8.00201C16.3427 8.00201 16.6768 8.03042 17.002 8.08498V5.002C17.002 4.1111 15.9249 3.66493 15.2949 4.2949L4.2949 15.2949C3.66493 15.9249 4.1111 17.002 5.002 17.002H10.8046C10.2941 16.1195 10.002 15.0949 10.002 14.002C10.002 10.6883 12.6882 8.00201 16.002 8.00201Z"/>
<path d="M15.5 14.5C16.0523 14.5 16.5 14.0523 16.5 13.5C16.5 12.9477 16.0523 12.5 15.5 12.5C14.9477 12.5 14.5 12.9477 14.5 13.5C14.5 14.0523 14.9477 14.5 15.5 14.5Z"/>
<path fill-rule="evenodd" clip-rule="evenodd" d="M14.854 17.002H16.1486C16.4075 17.002 16.6245 16.8175 16.6595 16.5852L16.7539 15.9327C16.8449 15.8849 16.9359 15.8336 17.0269 15.7756L17.6567 16.0215C17.8981 16.1138 18.1675 16.0181 18.2865 15.8063L18.9373 14.7063C19.0597 14.491 19.0038 14.2246 18.8078 14.0708L18.276 13.6643C18.2795 13.613 18.283 13.5618 18.283 13.5071C18.283 13.4525 18.2795 13.4012 18.276 13.35L18.8078 12.9434C19.0038 12.7931 19.0597 12.5267 18.9338 12.3012L18.29 11.2148C18.171 11.003 17.9016 10.9039 17.6532 10.9927L17.0234 11.2387C16.9324 11.1806 16.8414 11.1294 16.7469 11.0816L16.6525 10.4359C16.621 10.1865 16.404 10.002 16.1451 10.002H14.8505C14.5951 10.002 14.3782 10.1899 14.3467 10.4291L14.2522 11.0816C14.1612 11.1294 14.0702 11.1806 13.9793 11.2387L13.346 10.9893C13.108 10.8971 12.8386 10.9927 12.7197 11.2046L12.0724 12.2944C11.9429 12.5062 11.9954 12.7829 12.2018 12.9366L12.7337 13.3432C12.7302 13.3944 12.7267 13.4491 12.7267 13.5003C12.7267 13.555 12.7302 13.6062 12.7337 13.6575L12.1983 14.064C12.0024 14.2143 11.9499 14.4808 12.0724 14.7063L12.7127 15.7892C12.8316 16.001 13.101 16.1001 13.346 16.0113L13.9758 15.7653C14.0668 15.8234 14.1577 15.8746 14.2522 15.9225L14.3467 16.5681C14.3782 16.8175 14.5951 17.002 14.854 17.002ZM15.9439 16.002H15.0632L14.942 15.2293L14.7729 15.1626C14.6229 15.105 14.4857 15.0293 14.3485 14.9293L14.2049 14.8232L13.4423 15.1141L13.002 14.3869L13.6497 13.9081L13.6274 13.7384C13.6146 13.6626 13.6082 13.5808 13.6082 13.502C13.6082 13.4232 13.6178 13.3414 13.6274 13.2626L13.6497 13.0929L13.002 12.6141L13.4455 11.8899L14.2049 12.1778L14.3485 12.0778C14.4953 11.9717 14.6356 11.896 14.776 11.8384L14.9452 11.7747L15.0632 11.002H15.9439L16.0619 11.7747L16.2279 11.8414C16.3746 11.899 16.5182 11.9778 16.6522 12.0747L16.7958 12.1808L17.5584 11.8899L18.002 12.6172L17.3542 13.096L17.3766 13.2657C17.3861 13.3414 17.3957 13.4202 17.3957 13.502C17.3957 13.581 17.3868 13.6544 17.3775 13.7302L17.3766 13.7384L17.3542 13.9081L18.002 14.3869L17.5616 15.1141L16.8022 14.8232L16.6586 14.9263C16.5118 15.0293 16.3714 15.1081 16.2311 15.1626L16.0619 15.2293L15.9439 16.002Z"/>
</svg>