<svg width="20" height="20" viewBox="0 0 20 20" fill="none" xmlns="http://www.w3.org/2000/svg">
<path fill-rule="evenodd" clip-rule="evenodd" d="M4.5 17.8333C4.83333 18.1667 5.24306 18.3333 5.72917 18.3333H14.6042C15.0903 18.3333 15.5 18.1667 15.8333 17.8333C16.1667 17.5 16.3333 17.0903 16.3333 16.6042V3.72917C16.3333 3.24306 16.1667 2.83333 15.8333 2.5C15.5 2.16667 15.0903 2 14.6042 2H8.10417L4 6.10417V16.6042C4 17.0903 4.16667 17.5 4.5 17.8333ZM8.8125 16.6042H5.72917V6.8125L8.8125 3.72917H14.6042V16.6042H8.8125ZM12.2 13.0047C12.0125 13.2016 11.7812 13.3 11.5062 13.3H8.99375C8.71875 13.3 8.48125 13.2016 8.28125 13.0047C8.09375 12.7947 8 12.5453 8 12.2566V10.15C8 9.92688 8.06875 9.74312 8.20625 9.59875C8.35625 9.44125 8.5375 9.3625 8.75 9.3625V8.575C8.75 8.14187 8.89375 7.77437 9.18125 7.4725C9.48125 7.1575 9.8375 7 10.25 7C10.6625 7 11.0125 7.1575 11.3 7.4725C11.6 7.77437 11.75 8.14187 11.75 8.575V9.3625C11.9625 9.3625 12.1375 9.44125 12.275 9.59875C12.425 9.74312 12.5 9.92688 12.5 10.15V12.2566C12.5 12.5453 12.4 12.7947 12.2 13.0047ZM9.5 8.575V9.3625H11V8.575C11 8.35187 10.925 8.16812 10.775 8.02375C10.6375 7.86625 10.4625 7.7875 10.25 7.7875C10.0375 7.7875 9.85625 7.86625 9.70625 8.02375C9.56875 8.16812 9.5 8.35187 9.5 8.575Z" fill="#1B1B1F"/>
</svg>
