<svg xmlns="http://www.w3.org/2000/svg" width="277" height="217" fill="none" viewBox="0 0 277 217"><path stroke="#E9F1FF" stroke-linecap="round" stroke-width="12" d="M42.905 64.764c-20.486 40.276 6.153 94.97 59.501 122.162 53.348 27.193 113.202 16.587 133.689-23.689 20.486-40.276-6.153-94.97-59.501-122.163"/><path stroke="#E9F1FF" stroke-linecap="round" d="M182.95 28.601c-29.129-14.848-60.505-19.634-87.968-14.767C67.51 18.702 43.1 33.502 30.426 58.417m153.59 155.751c-27.463 4.866-58.839.08-87.968-14.768m3.82-157.996c20.923-3.708 46.149-.201 70.367 12.143 24.218 12.345 41.894 30.706 51.209 49.833m-163.89 21.242c9.316 19.126 26.991 37.487 51.209 49.832 9.53 4.858 19.217 8.347 28.736 10.566m86.116-28.131c-7.813 15.362-23.573 26.003-44.485 29.708-6.664 1.181-13.765 1.63-21.131 1.295"/><path stroke="#C4EED0" stroke-linecap="round" d="M246.618 91.118c12.223 25.095 14.627 53.554 1.955 78.466-8.816 17.333-23.315 29.771-40.573 37.375"/><path stroke="url(#a)" stroke-linecap="round" stroke-width="12" d="M176.594 41.074c-35.7-18.197-74.314-19.467-102.094-6.246"/><path fill="#7CACF8" d="M56.96 162.171c.151-.125.227-.188.296-.24a4.51 4.51 0 0 1 5.488 0c.07.052.145.115.296.24l.134.11a4.52 4.52 0 0 0 2.673.982c.042.002.085.002.172.003.195.003.293.004.38.008 2.032.104 3.75 1.56 4.204 3.565.019.085.037.182.073.375l.033.172a4.608 4.608 0 0 0 1.553 2.603c.148.129.222.193.285.252a4.63 4.63 0 0 1 .953 5.462 12.4 12.4 0 0 1-.182.335l-.084.153a4.637 4.637 0 0 0-.467 3.002c.031.195.047.292.058.379a4.602 4.602 0 0 1-2.744 4.802c-.08.034-.171.069-.354.139l-.161.062a4.564 4.564 0 0 0-2.179 1.847l-.089.15c-.1.17-.15.254-.196.328a4.525 4.525 0 0 1-5.158 1.896c-.082-.025-.174-.058-.358-.123l-.164-.057a4.506 4.506 0 0 0-2.844 0l-.164.057c-.184.065-.276.098-.358.123a4.525 4.525 0 0 1-5.158-1.896 11.391 11.391 0 0 1-.196-.328l-.09-.15a4.564 4.564 0 0 0-2.178-1.847l-.161-.062c-.183-.07-.274-.105-.354-.139a4.602 4.602 0 0 1-2.744-4.802c.01-.087.027-.184.058-.379l.027-.172a4.637 4.637 0 0 0-.494-2.83l-.084-.153a12.4 12.4 0 0 1-.182-.335 4.63 4.63 0 0 1 .953-5.462c.063-.059.137-.123.285-.252l.13-.114a4.608 4.608 0 0 0 1.456-2.661c.036-.193.054-.29.073-.375.454-2.005 2.172-3.461 4.205-3.565.086-.004.184-.005.379-.008.087-.001.13-.001.172-.003a4.52 4.52 0 0 0 2.673-.982l.134-.11Z"/><rect width="57" height="41" x="13.5" y="39.5" fill="#D3E3FD" stroke="url(#b)" stroke-width="3" rx="3.5"/><path fill="#7CACF8" d="M6 84h72a4 4 0 0 1-4 4H10a4 4 0 0 1-4-4Z"/><path fill="url(#c)" d="M0 88h84v3H0v-3Z"/><path fill="#6DD58C" fill-rule="evenodd" d="M122.363 15.364c-.668.668-2.19.338-4.026-.721C117.787 16.69 116.944 18 116 18c-.945 0-1.787-1.31-2.337-3.357-1.837 1.059-3.359 1.389-4.026.721-.668-.668-.338-2.19.721-4.027C108.31 10.787 107 9.945 107 9c0-.945 1.31-1.787 3.357-2.337-1.059-1.837-1.39-3.359-.722-4.027.668-.668 2.191-.337 4.027.722C114.212 1.31 115.055 0 116 0c.945 0 1.787 1.31 2.337 3.358 1.837-1.06 3.359-1.39 4.027-.722.668.668.338 2.19-.721 4.027C123.69 7.213 125 8.055 125 9c0 .945-1.31 1.787-3.358 2.337 1.059 1.837 1.389 3.359.721 4.027Z" clip-rule="evenodd"/><circle cx="272.5" cy="89.5" r="4.5" fill="#6DD58C"/><rect width="54" height="38" fill="url(#d)" rx="2" transform="matrix(-1 0 0 1 69 41)"/><path fill="#FCC934" d="M235.303 70.296c6.035 1.548 10.845-5.095 7.491-10.345l-.554-.868a6.862 6.862 0 0 1-.864-5.401l.256-.998c1.547-6.034-5.096-10.845-10.346-7.491l-.868.554a6.865 6.865 0 0 1-5.401.864l-.998-.255c-6.034-1.548-10.844 5.095-7.491 10.345l.555.868a6.87 6.87 0 0 1 .864 5.401l-.256.998c-1.548 6.034 5.095 10.844 10.345 7.491l.868-.555a6.865 6.865 0 0 1 5.401-.864l.998.256Z"/><path fill="#D3E3FD" d="M67.352 41a2 2 0 0 1 2 2v1.527c-9.062 5.81-16.306 13.533-21.1 22.956A56.7 56.7 0 0 0 43.898 79h-12.33a68.85 68.85 0 0 1 5.99-16.957c4.168-8.193 9.79-15.214 16.51-21.043h13.285Z"/><path fill="url(#e)" stroke="url(#f)" stroke-width="3" d="M80 21.5a3.5 3.5 0 0 1 3.5 3.5v31a3.5 3.5 0 0 1-3.5 3.5H68a3.5 3.5 0 0 1-3.5-3.5V25a3.5 3.5 0 0 1 3.5-3.5h12Z"/><path fill="#D3E3FD" d="M82 38.112c-5.849 2.294-11.218 5.21-16 8.711V32.525c4.993-2.885 10.357-5.278 16-7.17v12.757Z"/><path stroke="url(#g)" stroke-linecap="round" stroke-width="12" d="M236.095 163.236c-20.487 40.276-80.341 50.883-133.689 23.69"/><path fill="#C4EED0" stroke="url(#h)" stroke-width="3" d="M240.179 123.732a.508.508 0 0 0-.408 0l-23.974 10.674a.5.5 0 0 0-.297.457v16.189c0 15.998 10.394 30.717 24.381 35.336a.384.384 0 0 0 .237 0c13.965-4.62 24.382-19.339 24.382-35.336v-16.188a.5.5 0 0 0-.297-.457l-24.024-10.675Z"/><path stroke="#6DD58C" stroke-linecap="round" d="M240 128v54M261 154h-42"/><circle cx="25" cy="137" r="3" fill="#A8C7FA"/><circle cx="29.5" cy="146.5" r="2.5" fill="#D3E3FD"/><circle cx="35" cy="154" r="2" fill="#D3E3FD"/><circle cx="201" cy="28" r="3" fill="#D3E3FD"/><circle cx="193.5" cy="23.5" r="2.5" fill="#D3E3FD"/><circle cx="185" cy="20" r="2" fill="#D3E3FD"/><defs><linearGradient id="a" x1="42.905" x2="176.594" y1="45.382" y2="45.382" gradientUnits="userSpaceOnUse"><stop stop-color="#D3E3FD"/><stop offset="1" stop-color="#A8C7FA"/></linearGradient><linearGradient id="b" x1="51.5" x2="21.5" y1="51.5" y2="76" gradientUnits="userSpaceOnUse"><stop offset=".354" stop-color="#A8C7FA"/><stop offset=".953" stop-color="#4C8DF6"/></linearGradient><linearGradient id="c" x1="83.452" x2="-.16" y1="86.999" y2="86.999" gradientUnits="userSpaceOnUse"><stop stop-color="#fff"/><stop offset=".356" stop-color="#0B57D0"/><stop offset=".688" stop-color="#0B57D0"/><stop offset="1" stop-color="#fff"/></linearGradient><linearGradient id="d" x1="24.5" x2="50" y1="13.5" y2="33.5" gradientUnits="userSpaceOnUse"><stop stop-color="#fff"/><stop offset="1" stop-color="#D3E3FD"/></linearGradient><linearGradient id="e" x1="80.5" x2="68.5" y1="36.5" y2="56" gradientUnits="userSpaceOnUse"><stop stop-color="#fff"/><stop offset="1" stop-color="#D3E3FD"/></linearGradient><linearGradient id="f" x1="78.5" x2="64.5" y1="40" y2="58" gradientUnits="userSpaceOnUse"><stop stop-color="#A8C7FA"/><stop offset=".953" stop-color="#4C8DF6"/></linearGradient><linearGradient id="g" x1="169.25" x2="169.25" y1="163.236" y2="202" gradientUnits="userSpaceOnUse"><stop stop-color="#C4EED0"/><stop offset="1" stop-color="#6DD58C"/></linearGradient><linearGradient id="h" x1="240" x2="240" y1="122" y2="188" gradientUnits="userSpaceOnUse"><stop stop-color="#C4EED0"/><stop offset="1" stop-color="#37BE5F"/></linearGradient></defs></svg>