<svg width="478" height="178" viewBox="0 0 478 178" fill="none" xmlns="http://www.w3.org/2000/svg">
<g filter="url(#filter0_d_2147_50551)">
<rect width="468" height="172" transform="translate(0 6)" fill="#F3F3F3"/>
<g clip-path="url(#clip0_2147_50551)">
<path d="M371.881 18.5435C371.826 18.5435 371.774 18.5331 371.724 18.5121C371.677 18.4912 371.635 18.4624 371.598 18.4257C371.562 18.3891 371.533 18.3472 371.512 18.3C371.491 18.2503 371.48 18.1979 371.48 18.1429C371.48 18.0879 371.491 18.0369 371.512 17.9898C371.533 17.94 371.562 17.8968 371.598 17.8602C371.635 17.8209 371.677 17.7908 371.724 17.7698C371.774 17.7489 371.826 17.7384 371.881 17.7384H379.123C379.178 17.7384 379.229 17.7489 379.277 17.7698C379.326 17.7908 379.369 17.8209 379.406 17.8602C379.443 17.8968 379.472 17.94 379.493 17.9898C379.513 18.0369 379.524 18.0879 379.524 18.1429C379.524 18.1979 379.513 18.2503 379.493 18.3C379.472 18.3472 379.443 18.3891 379.406 18.4257C379.369 18.4624 379.326 18.4912 379.277 18.5121C379.229 18.5331 379.178 18.5435 379.123 18.5435H371.881Z" fill="#9B9B9B"/>
<path d="M409.667 22.5652C409.509 22.5652 409.359 22.5338 409.215 22.4709C409.071 22.4055 408.944 22.3191 408.834 22.2117C408.727 22.1018 408.64 21.9748 408.575 21.8308C408.512 21.6868 408.48 21.5362 408.48 21.3791V15.7078C408.48 15.5507 408.512 15.4002 408.575 15.2562C408.64 15.1122 408.727 14.9865 408.834 14.8791C408.944 14.7692 409.071 14.6828 409.215 14.6199C409.359 14.5545 409.509 14.5217 409.667 14.5217H415.338C415.495 14.5217 415.646 14.5545 415.79 14.6199C415.934 14.6828 416.059 14.7692 416.167 14.8791C416.277 14.9865 416.363 15.1122 416.426 15.2562C416.491 15.4002 416.524 15.5507 416.524 15.7078V21.3791C416.524 21.5362 416.491 21.6868 416.426 21.8308C416.363 21.9748 416.277 22.1018 416.167 22.2117C416.059 22.3191 415.934 22.4055 415.79 22.4709C415.646 22.5338 415.495 22.5652 415.338 22.5652H409.667ZM415.318 21.7601C415.373 21.7601 415.424 21.7496 415.471 21.7287C415.521 21.7077 415.564 21.6789 415.601 21.6422C415.638 21.6056 415.666 21.5637 415.687 21.5166C415.708 21.4668 415.719 21.4145 415.719 21.3595V15.7275C415.719 15.6725 415.708 15.6214 415.687 15.5743C415.666 15.5245 415.638 15.4813 415.601 15.4447C415.564 15.408 415.521 15.3792 415.471 15.3583C415.424 15.3373 415.373 15.3269 415.318 15.3269H409.686C409.631 15.3269 409.579 15.3373 409.529 15.3583C409.482 15.3792 409.44 15.408 409.403 15.4447C409.367 15.4813 409.338 15.5245 409.317 15.5743C409.296 15.6214 409.286 15.6725 409.286 15.7275V21.3595C409.286 21.4145 409.296 21.4668 409.317 21.5166C409.338 21.5637 409.367 21.6056 409.403 21.6422C409.44 21.6789 409.482 21.7077 409.529 21.7287C409.579 21.7496 409.631 21.7601 409.686 21.7601H415.318Z" fill="#9B9B9B"/>
<path d="M449.498 19.113L446.164 22.4474C446.085 22.5259 445.991 22.5652 445.881 22.5652C445.766 22.5652 445.669 22.5272 445.59 22.4513C445.515 22.3728 445.477 22.2759 445.477 22.1607C445.477 22.0507 445.516 21.9564 445.594 21.8779L448.929 18.5435L445.594 15.209C445.516 15.1305 445.477 15.0349 445.477 14.9223C445.477 14.8673 445.487 14.815 445.508 14.7652C445.529 14.7155 445.558 14.6736 445.594 14.6396C445.631 14.6029 445.674 14.5741 445.724 14.5531C445.774 14.5322 445.826 14.5217 445.881 14.5217C445.991 14.5217 446.085 14.561 446.164 14.6396L449.498 17.974L452.833 14.6396C452.911 14.561 453.007 14.5217 453.119 14.5217C453.174 14.5217 453.225 14.5322 453.273 14.5531C453.322 14.5741 453.366 14.6029 453.402 14.6396C453.439 14.6762 453.468 14.7194 453.489 14.7692C453.51 14.8163 453.52 14.8673 453.52 14.9223C453.52 15.0349 453.481 15.1305 453.402 15.209L450.068 18.5435L453.402 21.8779C453.481 21.9564 453.52 22.0507 453.52 22.1607C453.52 22.2157 453.51 22.268 453.489 22.3178C453.468 22.3675 453.439 22.4107 453.402 22.4474C453.368 22.484 453.326 22.5128 453.277 22.5338C453.227 22.5547 453.174 22.5652 453.119 22.5652C453.007 22.5652 452.911 22.5259 452.833 22.4474L449.498 19.113Z" fill="#9B9B9B"/>
</g>
<path d="M18.1875 72.5L24.4688 55.6953H27.6094L33.832 72.5H30.8086L29.3555 68.4805H22.6055L21.2109 72.5H18.1875ZM23.3438 66.1484H28.6055L26.2852 59.4805C26.2305 59.3086 26.1797 59.1445 26.1328 58.9883C26.0938 58.832 26.0547 58.6406 26.0156 58.4141H25.9453C25.8906 58.6172 25.8438 58.8008 25.8047 58.9648C25.7656 59.1211 25.7148 59.2891 25.6523 59.4688L23.3438 66.1484ZM38.1333 71.0938H38.0864V78.0195H35.3559V60.5H38.0864V62.3281H38.1333C38.602 61.625 39.1723 61.0977 39.8442 60.7461C40.5239 60.3945 41.2934 60.2188 42.1528 60.2188C43.7231 60.2188 44.9458 60.75 45.8208 61.8125C46.7036 62.875 47.145 64.332 47.145 66.1836C47.145 68.168 46.6489 69.7656 45.6567 70.9766C44.6723 72.1797 43.3442 72.7812 41.6723 72.7812C40.9145 72.7812 40.2388 72.6406 39.645 72.3594C39.0513 72.0781 38.5473 71.6562 38.1333 71.0938ZM38.0513 66.0078V67.4258C38.0513 68.332 38.3364 69.0859 38.9067 69.6875C39.477 70.2891 40.2036 70.5898 41.0864 70.5898C42.1098 70.5898 42.9067 70.2031 43.477 69.4297C44.0552 68.6484 44.3442 67.5781 44.3442 66.2188C44.3442 64.9766 44.0786 64.0312 43.5473 63.3828C43.0239 62.7344 42.2895 62.4102 41.3442 62.4102C40.3677 62.4102 39.5747 62.7461 38.9653 63.418C38.3559 64.0898 38.0513 64.9531 38.0513 66.0078ZM52.1142 71.0938H52.0673V78.0195H49.3369V60.5H52.0673V62.3281H52.1142C52.583 61.625 53.1533 61.0977 53.8252 60.7461C54.5048 60.3945 55.2744 60.2188 56.1338 60.2188C57.7041 60.2188 58.9267 60.75 59.8017 61.8125C60.6845 62.875 61.1259 64.332 61.1259 66.1836C61.1259 68.168 60.6298 69.7656 59.6377 70.9766C58.6533 72.1797 57.3252 72.7812 55.6533 72.7812C54.8955 72.7812 54.2197 72.6406 53.6259 72.3594C53.0322 72.0781 52.5283 71.6562 52.1142 71.0938ZM52.0322 66.0078V67.4258C52.0322 68.332 52.3173 69.0859 52.8877 69.6875C53.458 70.2891 54.1845 70.5898 55.0673 70.5898C56.0908 70.5898 56.8877 70.2031 57.458 69.4297C58.0361 68.6484 58.3252 67.5781 58.3252 66.2188C58.3252 64.9766 58.0595 64.0312 57.5283 63.3828C57.0048 62.7344 56.2705 62.4102 55.3252 62.4102C54.3486 62.4102 53.5556 62.7461 52.9463 63.418C52.3369 64.0898 52.0322 64.9531 52.0322 66.0078ZM62.3686 71L63.8217 69.3477C64.267 69.8086 64.7436 70.1523 65.2514 70.3789C65.7592 70.5977 66.3217 70.707 66.9389 70.707C67.5717 70.707 68.0717 70.5781 68.4389 70.3203C68.8139 70.0625 69.0014 69.6875 69.0014 69.1953C69.0014 68.8125 68.8413 68.4883 68.5209 68.2227C68.2006 67.9492 67.6733 67.7383 66.9389 67.5898C65.4155 67.2695 64.3491 66.8125 63.7397 66.2188C63.1381 65.625 62.8373 64.8672 62.8373 63.9453C62.8373 62.8359 63.2475 61.9375 64.0678 61.25C64.8959 60.5625 65.9584 60.2188 67.2553 60.2188C68.0366 60.2188 68.7631 60.3398 69.435 60.582C70.1147 60.8242 70.7084 61.2031 71.2163 61.7188L69.81 63.3359C69.3881 62.9688 68.9702 62.7031 68.5561 62.5391C68.1498 62.3672 67.6967 62.2812 67.1967 62.2812C66.5952 62.2812 66.1225 62.4023 65.7788 62.6445C65.4428 62.8867 65.2748 63.2227 65.2748 63.6523C65.2748 64.0664 65.4428 64.3828 65.7788 64.6016C66.1147 64.8203 66.7163 65.0234 67.5834 65.2109C68.9038 65.4844 69.8803 65.9219 70.5131 66.5234C71.1538 67.1172 71.4741 67.9219 71.4741 68.9375C71.4741 70.125 71.0444 71.0625 70.185 71.75C69.3334 72.4375 68.2319 72.7812 66.8803 72.7812C65.9428 72.7812 65.0952 72.6289 64.3373 72.3242C63.5795 72.0117 62.9233 71.5703 62.3686 71Z" fill="#5C5C5C"/>
<path d="M86.2482 68.5999L90.1015 64.478L85.9998 60.6036" stroke="#5C5C5C" stroke-width="1.2" stroke-linecap="round" stroke-linejoin="round"/>
<path d="M106.016 72.5V55.6953H111.254C114.207 55.6953 116.43 56.375 117.922 57.7344C119.414 59.0859 120.16 61.1367 120.16 63.8867C120.16 66.5195 119.344 68.6133 117.711 70.168C116.078 71.7227 113.891 72.5 111.148 72.5H106.016ZM108.805 58.0742V70.1211H111.031C112.977 70.1211 114.496 69.5859 115.59 68.5156C116.684 67.4375 117.23 65.9102 117.23 63.9336C117.23 62.0039 116.707 60.5469 115.66 59.5625C114.621 58.5703 113.094 58.0742 111.078 58.0742H108.805ZM132.665 67.1914H124.426C124.465 68.332 124.786 69.1953 125.387 69.7812C125.997 70.3672 126.793 70.6602 127.778 70.6602C128.317 70.6602 128.848 70.543 129.372 70.3086C129.895 70.0664 130.379 69.6992 130.825 69.207L132.512 70.6016C131.872 71.3203 131.145 71.8633 130.333 72.2305C129.528 72.5977 128.602 72.7812 127.555 72.7812C125.743 72.7812 124.309 72.25 123.254 71.1875C122.208 70.1172 121.684 68.5977 121.684 66.6289C121.684 64.7227 122.223 63.1797 123.301 62C124.387 60.8125 125.758 60.2188 127.415 60.2188C129.063 60.2188 130.348 60.7227 131.27 61.7305C132.2 62.7383 132.665 64.1875 132.665 66.0781V67.1914ZM130.028 65.2695C130.028 64.293 129.797 63.5469 129.336 63.0312C128.883 62.5078 128.247 62.2461 127.426 62.2461C126.614 62.2461 125.938 62.5273 125.399 63.0898C124.868 63.6523 124.543 64.3789 124.426 65.2695H130.028ZM141.208 56.9844C140.997 56.875 140.79 56.793 140.587 56.7383C140.392 56.6836 140.177 56.6562 139.942 56.6562C139.403 56.6562 138.993 56.8164 138.712 57.1367C138.431 57.457 138.29 57.9336 138.29 58.5664V60.5H141.067V62.6328H138.29V72.5H135.571V62.6328H133.532V60.5H135.571V58.4844C135.571 57.25 135.95 56.2734 136.708 55.5547C137.466 54.8281 138.501 54.4648 139.813 54.4648C140.243 54.4648 140.638 54.5078 140.997 54.5938C141.364 54.6719 141.731 54.793 142.099 54.957L141.208 56.9844ZM151.685 72.5H149.048V70.8594H149.001C148.587 71.4922 148.076 71.9727 147.466 72.3008C146.865 72.6211 146.181 72.7812 145.415 72.7812C144.314 72.7812 143.408 72.4648 142.697 71.832C141.986 71.1914 141.63 70.3359 141.63 69.2656C141.63 68.1797 141.986 67.3008 142.697 66.6289C143.408 65.9492 144.447 65.5234 145.814 65.3516L149.06 64.9531V64.5312C149.06 63.7578 148.849 63.1875 148.427 62.8203C148.013 62.4531 147.458 62.2695 146.763 62.2695C146.146 62.2695 145.576 62.3945 145.052 62.6445C144.537 62.8945 144.072 63.2695 143.658 63.7695L142.017 62.4453C142.58 61.7578 143.275 61.2148 144.103 60.8164C144.931 60.418 145.884 60.2188 146.962 60.2188C148.525 60.2188 149.701 60.6172 150.49 61.4141C151.287 62.2031 151.685 63.3711 151.685 64.918V72.5ZM149.06 67.625V66.793L146.318 67.1211C145.607 67.2148 145.08 67.4102 144.736 67.707C144.4 68.0039 144.232 68.4219 144.232 68.9609C144.232 69.5078 144.408 69.9414 144.759 70.2617C145.119 70.582 145.576 70.7422 146.13 70.7422C147.013 70.7422 147.72 70.4492 148.251 69.8633C148.79 69.2695 149.06 68.5234 149.06 67.625ZM165.057 72.5H162.326V70.7656H162.279C161.873 71.4062 161.35 71.9023 160.709 72.2539C160.068 72.6055 159.365 72.7812 158.6 72.7812C157.193 72.7812 156.135 72.3633 155.424 71.5273C154.713 70.6836 154.357 69.4414 154.357 67.8008V60.5H157.064V67.4609C157.064 68.5 157.264 69.2812 157.662 69.8047C158.068 70.3281 158.689 70.5898 159.525 70.5898C160.346 70.5898 161.018 70.293 161.541 69.6992C162.064 69.0977 162.326 68.3203 162.326 67.3672V60.5H165.057V72.5ZM168.116 72.5V54.7344H170.846V72.5H168.116ZM180.725 71.9961C180.366 72.2461 179.972 72.4375 179.542 72.5703C179.112 72.7031 178.636 72.7695 178.112 72.7695C176.987 72.7695 176.128 72.4805 175.534 71.9023C174.948 71.3164 174.655 70.4531 174.655 69.3125V62.6328H172.64V60.5H174.655V57.5703L177.374 56.9258V60.5H180.35V62.6328H177.374V69.1602C177.374 69.6914 177.475 70.0781 177.679 70.3203C177.882 70.5625 178.194 70.6836 178.616 70.6836C178.827 70.6836 179.03 70.6523 179.225 70.5898C179.421 70.5195 179.612 70.4062 179.8 70.25L180.725 71.9961ZM197.402 72.5H194.765V70.8594H194.719C194.305 71.4922 193.793 71.9727 193.183 72.3008C192.582 72.6211 191.898 72.7812 191.133 72.7812C190.031 72.7812 189.125 72.4648 188.414 71.832C187.703 71.1914 187.348 70.3359 187.348 69.2656C187.348 68.1797 187.703 67.3008 188.414 66.6289C189.125 65.9492 190.164 65.5234 191.531 65.3516L194.777 64.9531V64.5312C194.777 63.7578 194.566 63.1875 194.144 62.8203C193.73 62.4531 193.176 62.2695 192.48 62.2695C191.863 62.2695 191.293 62.3945 190.769 62.6445C190.254 62.8945 189.789 63.2695 189.375 63.7695L187.734 62.4453C188.297 61.7578 188.992 61.2148 189.82 60.8164C190.648 60.418 191.601 60.2188 192.68 60.2188C194.242 60.2188 195.418 60.6172 196.207 61.4141C197.004 62.2031 197.402 63.3711 197.402 64.918V72.5ZM194.777 67.625V66.793L192.035 67.1211C191.324 67.2148 190.797 67.4102 190.453 67.707C190.117 68.0039 189.949 68.4219 189.949 68.9609C189.949 69.5078 190.125 69.9414 190.476 70.2617C190.836 70.582 191.293 70.7422 191.848 70.7422C192.73 70.7422 193.437 70.4492 193.969 69.8633C194.508 69.2695 194.777 68.5234 194.777 67.625ZM203.075 71.0938H203.028V78.0195H200.297V60.5H203.028V62.3281H203.075C203.543 61.625 204.114 61.0977 204.785 60.7461C205.465 60.3945 206.235 60.2188 207.094 60.2188C208.664 60.2188 209.887 60.75 210.762 61.8125C211.645 62.875 212.086 64.332 212.086 66.1836C212.086 68.168 211.59 69.7656 210.598 70.9766C209.614 72.1797 208.285 72.7812 206.614 72.7812C205.856 72.7812 205.18 72.6406 204.586 72.3594C203.993 72.0781 203.489 71.6562 203.075 71.0938ZM202.993 66.0078V67.4258C202.993 68.332 203.278 69.0859 203.848 69.6875C204.418 70.2891 205.145 70.5898 206.028 70.5898C207.051 70.5898 207.848 70.2031 208.418 69.4297C208.996 68.6484 209.285 67.5781 209.285 66.2188C209.285 64.9766 209.02 64.0312 208.489 63.3828C207.965 62.7344 207.231 62.4102 206.285 62.4102C205.309 62.4102 204.516 62.7461 203.907 63.418C203.297 64.0898 202.993 64.9531 202.993 66.0078ZM217.055 71.0938H217.009V78.0195H214.278V60.5H217.009V62.3281H217.055C217.524 61.625 218.095 61.0977 218.766 60.7461C219.446 60.3945 220.216 60.2188 221.075 60.2188C222.645 60.2188 223.868 60.75 224.743 61.8125C225.626 62.875 226.067 64.332 226.067 66.1836C226.067 68.168 225.571 69.7656 224.579 70.9766C223.595 72.1797 222.266 72.7812 220.595 72.7812C219.837 72.7812 219.161 72.6406 218.567 72.3594C217.973 72.0781 217.47 71.6562 217.055 71.0938ZM216.973 66.0078V67.4258C216.973 68.332 217.259 69.0859 217.829 69.6875C218.399 70.2891 219.126 70.5898 220.009 70.5898C221.032 70.5898 221.829 70.2031 222.399 69.4297C222.977 68.6484 223.266 67.5781 223.266 66.2188C223.266 64.9766 223.001 64.0312 222.47 63.3828C221.946 62.7344 221.212 62.4102 220.266 62.4102C219.29 62.4102 218.497 62.7461 217.887 63.418C217.278 64.0898 216.973 64.9531 216.973 66.0078ZM227.31 71L228.763 69.3477C229.208 69.8086 229.685 70.1523 230.193 70.3789C230.7 70.5977 231.263 70.707 231.88 70.707C232.513 70.707 233.013 70.5781 233.38 70.3203C233.755 70.0625 233.943 69.6875 233.943 69.1953C233.943 68.8125 233.783 68.4883 233.462 68.2227C233.142 67.9492 232.615 67.7383 231.88 67.5898C230.357 67.2695 229.29 66.8125 228.681 66.2188C228.079 65.625 227.779 64.8672 227.779 63.9453C227.779 62.8359 228.189 61.9375 229.009 61.25C229.837 60.5625 230.9 60.2188 232.197 60.2188C232.978 60.2188 233.704 60.3398 234.376 60.582C235.056 60.8242 235.65 61.2031 236.158 61.7188L234.751 63.3359C234.329 62.9688 233.911 62.7031 233.497 62.5391C233.091 62.3672 232.638 62.2812 232.138 62.2812C231.536 62.2812 231.064 62.4023 230.72 62.6445C230.384 62.8867 230.216 63.2227 230.216 63.6523C230.216 64.0664 230.384 64.3828 230.72 64.6016C231.056 64.8203 231.658 65.0234 232.525 65.2109C233.845 65.4844 234.822 65.9219 235.454 66.5234C236.095 67.1172 236.415 67.9219 236.415 68.9375C236.415 70.125 235.986 71.0625 235.126 71.75C234.275 72.4375 233.173 72.7812 231.822 72.7812C230.884 72.7812 230.036 72.6289 229.279 72.3242C228.521 72.0117 227.865 71.5703 227.31 71Z" fill="#5C5C5C"/>
<path d="M251.248 68.5999L255.102 64.478L251 60.6036" stroke="#5C5C5C" stroke-width="1.2" stroke-linecap="round" stroke-linejoin="round"/>
<path d="M284.34 71.0117C283.527 71.5586 282.605 71.9922 281.574 72.3125C280.551 72.625 279.469 72.7812 278.328 72.7812C275.758 72.7812 273.715 72.0391 272.199 70.5547C270.691 69.0625 269.938 66.9922 269.938 64.3438C269.938 61.6953 270.715 59.5469 272.27 57.8984C273.832 56.2422 275.887 55.4141 278.434 55.4141C279.73 55.4141 280.863 55.6211 281.832 56.0352C282.801 56.4492 283.645 57.0391 284.363 57.8047L282.664 59.4336C282.102 58.8867 281.48 58.4844 280.801 58.2266C280.121 57.9688 279.355 57.8398 278.504 57.8398C276.84 57.8398 275.484 58.3984 274.438 59.5156C273.398 60.625 272.879 62.1719 272.879 64.1562C272.879 66.1719 273.379 67.7109 274.379 68.7734C275.379 69.8281 276.723 70.3555 278.41 70.3555C279.012 70.3555 279.578 70.2891 280.109 70.1562C280.648 70.0234 281.129 69.8281 281.551 69.5703V65.8086H277.918V63.4414H284.34V71.0117ZM292.344 72.7812C290.454 72.7812 288.954 72.2227 287.844 71.1055C286.743 69.9883 286.192 68.4844 286.192 66.5938C286.2 64.6406 286.782 63.0898 287.938 61.9414C289.094 60.793 290.629 60.2188 292.543 60.2188C294.434 60.2188 295.918 60.7852 296.997 61.918C298.075 63.043 298.614 64.5352 298.614 66.3945C298.614 68.3008 298.043 69.8438 296.903 71.0234C295.762 72.1953 294.243 72.7812 292.344 72.7812ZM292.461 70.5898C293.54 70.5898 294.368 70.2266 294.946 69.5C295.532 68.7734 295.825 67.7617 295.825 66.4648C295.825 65.1992 295.532 64.207 294.946 63.4883C294.36 62.7695 293.528 62.4102 292.45 62.4102C291.379 62.4102 290.532 62.7852 289.907 63.5352C289.282 64.2852 288.969 65.2852 288.969 66.5352C288.969 67.8164 289.278 68.8125 289.895 69.5234C290.52 70.2344 291.375 70.5898 292.461 70.5898ZM306.208 72.7812C304.317 72.7812 302.817 72.2227 301.708 71.1055C300.606 69.9883 300.056 68.4844 300.056 66.5938C300.063 64.6406 300.645 63.0898 301.802 61.9414C302.958 60.793 304.493 60.2188 306.407 60.2188C308.298 60.2188 309.782 60.7852 310.86 61.918C311.938 63.043 312.478 64.5352 312.478 66.3945C312.478 68.3008 311.907 69.8438 310.767 71.0234C309.626 72.1953 308.106 72.7812 306.208 72.7812ZM306.325 70.5898C307.403 70.5898 308.231 70.2266 308.81 69.5C309.395 68.7734 309.688 67.7617 309.688 66.4648C309.688 65.1992 309.395 64.207 308.81 63.4883C308.224 62.7695 307.392 62.4102 306.313 62.4102C305.243 62.4102 304.395 62.7852 303.77 63.5352C303.145 64.2852 302.833 65.2852 302.833 66.5352C302.833 67.8164 303.142 68.8125 303.759 69.5234C304.384 70.2344 305.239 70.5898 306.325 70.5898ZM325.72 71.6797C325.72 73.7109 325.158 75.2969 324.033 76.4375C322.915 77.5781 321.345 78.1484 319.322 78.1484C318.267 78.1484 317.33 77.9961 316.509 77.6914C315.689 77.3867 314.931 76.9375 314.236 76.3438L315.689 74.6445C316.22 75.1055 316.775 75.4453 317.353 75.6641C317.931 75.8906 318.595 76.0039 319.345 76.0039C320.501 76.0039 321.396 75.6719 322.029 75.0078C322.669 74.3516 322.99 73.3867 322.99 72.1133V70.7656H322.943C322.505 71.4297 321.962 71.9336 321.314 72.2773C320.673 72.6133 319.904 72.7812 319.005 72.7812C317.466 72.7812 316.232 72.2539 315.302 71.1992C314.38 70.1367 313.919 68.6836 313.919 66.8398C313.919 64.8086 314.439 63.1992 315.478 62.0117C316.525 60.8164 317.869 60.2188 319.509 60.2188C320.251 60.2188 320.915 60.3633 321.501 60.6523C322.095 60.9336 322.576 61.3477 322.943 61.8945H322.99V60.5H325.72V71.6797ZM323.013 66.9219V65.5273C323.013 64.668 322.728 63.9336 322.158 63.3242C321.595 62.7148 320.873 62.4102 319.99 62.4102C318.966 62.4102 318.162 62.7773 317.576 63.5117C316.99 64.2461 316.697 65.3086 316.697 66.6992C316.697 67.9258 316.97 68.8828 317.517 69.5703C318.064 70.25 318.822 70.5898 319.79 70.5898C320.744 70.5898 321.517 70.25 322.111 69.5703C322.712 68.8906 323.013 68.0078 323.013 66.9219ZM328.674 72.5V54.7344H331.404V72.5H328.674ZM344.682 67.1914H336.444C336.483 68.332 336.803 69.1953 337.405 69.7812C338.014 70.3672 338.811 70.6602 339.795 70.6602C340.334 70.6602 340.866 70.543 341.389 70.3086C341.912 70.0664 342.397 69.6992 342.842 69.207L344.53 70.6016C343.889 71.3203 343.162 71.8633 342.35 72.2305C341.545 72.5977 340.62 72.7812 339.573 72.7812C337.76 72.7812 336.327 72.25 335.272 71.1875C334.225 70.1172 333.702 68.5977 333.702 66.6289C333.702 64.7227 334.241 63.1797 335.319 62C336.405 60.8125 337.776 60.2188 339.432 60.2188C341.08 60.2188 342.366 60.7227 343.287 61.7305C344.217 62.7383 344.682 64.1875 344.682 66.0781V67.1914ZM342.045 65.2695C342.045 64.293 341.815 63.5469 341.354 63.0312C340.901 62.5078 340.264 62.2461 339.444 62.2461C338.631 62.2461 337.955 62.5273 337.416 63.0898C336.885 63.6523 336.561 64.3789 336.444 65.2695H342.045ZM366.351 70.1328C365.656 70.9375 364.812 71.582 363.82 72.0664C362.827 72.543 361.671 72.7812 360.351 72.7812C357.827 72.7812 355.82 72.0312 354.327 70.5312C352.843 69.0312 352.101 66.9883 352.101 64.4023C352.101 61.7148 352.882 59.5469 354.445 57.8984C356.015 56.2422 358.05 55.4141 360.55 55.4141C361.808 55.4141 362.906 55.6445 363.843 56.1055C364.781 56.5586 365.577 57.207 366.234 58.0508L364.511 59.6328C364.003 59.0391 363.429 58.6016 362.788 58.3203C362.156 58.0312 361.421 57.8867 360.585 57.8867C358.96 57.8867 357.628 58.4648 356.589 59.6211C355.55 60.7773 355.031 62.3086 355.031 64.2148C355.031 66.0898 355.531 67.5703 356.531 68.6562C357.531 69.7422 358.867 70.2852 360.538 70.2852C361.351 70.2852 362.093 70.1289 362.765 69.8164C363.445 69.5039 364.05 69.0547 364.581 68.4688L366.351 70.1328ZM377.965 72.5H375.246V65.5508C375.246 64.5039 375.047 63.7188 374.648 63.1953C374.25 62.6719 373.656 62.4102 372.867 62.4102C372.039 62.4102 371.359 62.7188 370.828 63.3359C370.297 63.9453 370.031 64.7227 370.031 65.668V72.5H367.301V54.7344H370.031V62.2461H370.078C370.515 61.582 371.062 61.0781 371.719 60.7344C372.375 60.3906 373.101 60.2188 373.898 60.2188C375.219 60.2188 376.226 60.6289 376.922 61.4492C377.617 62.2695 377.965 63.4883 377.965 65.1055V72.5ZM387.551 62.8672C387.364 62.8047 387.176 62.7578 386.989 62.7266C386.809 62.6875 386.606 62.668 386.379 62.668C385.496 62.668 384.797 63.0273 384.282 63.7461C383.774 64.4648 383.52 65.4023 383.52 66.5586V72.5H380.789V60.5H383.52V62.7383H383.567C383.848 61.9414 384.262 61.3359 384.809 60.9219C385.356 60.5 385.996 60.2891 386.731 60.2891C386.989 60.2891 387.223 60.3086 387.434 60.3477C387.653 60.3789 387.879 60.4414 388.114 60.5352L387.551 62.8672ZM394.36 72.7812C392.47 72.7812 390.97 72.2227 389.86 71.1055C388.759 69.9883 388.208 68.4844 388.208 66.5938C388.216 64.6406 388.798 63.0898 389.954 61.9414C391.11 60.793 392.645 60.2188 394.559 60.2188C396.45 60.2188 397.934 60.7852 399.012 61.918C400.091 63.043 400.63 64.5352 400.63 66.3945C400.63 68.3008 400.059 69.8438 398.919 71.0234C397.778 72.1953 396.259 72.7812 394.36 72.7812ZM394.477 70.5898C395.555 70.5898 396.384 70.2266 396.962 69.5C397.548 68.7734 397.841 67.7617 397.841 66.4648C397.841 65.1992 397.548 64.207 396.962 63.4883C396.376 62.7695 395.544 62.4102 394.466 62.4102C393.395 62.4102 392.548 62.7852 391.923 63.5352C391.298 64.2852 390.985 65.2852 390.985 66.5352C390.985 67.8164 391.294 68.8125 391.911 69.5234C392.536 70.2344 393.391 70.5898 394.477 70.5898ZM420.798 72.5H418.079V65.6094C418.079 64.5078 417.892 63.6992 417.517 63.1836C417.15 62.668 416.556 62.4102 415.736 62.4102C415.009 62.4102 414.4 62.7305 413.908 63.3711C413.423 64.0117 413.181 64.793 413.181 65.7148V72.5H410.462V65.4688C410.462 64.4531 410.267 63.6914 409.876 63.1836C409.486 62.668 408.896 62.4102 408.107 62.4102C407.357 62.4102 406.747 62.7148 406.279 63.3242C405.81 63.9336 405.575 64.7383 405.575 65.7383V72.5H402.845V60.5H405.575V62.2461H405.622C406.029 61.6055 406.556 61.1094 407.204 60.7578C407.861 60.3984 408.591 60.2188 409.396 60.2188C410.216 60.2188 410.923 60.418 411.517 60.8164C412.118 61.2148 412.548 61.7578 412.806 62.4453C413.275 61.7031 413.845 61.1484 414.517 60.7812C415.197 60.4062 415.978 60.2188 416.861 60.2188C418.142 60.2188 419.118 60.625 419.79 61.4375C420.462 62.25 420.798 63.4609 420.798 65.0703V72.5ZM433.83 67.1914H425.592C425.631 68.332 425.951 69.1953 426.553 69.7812C427.162 70.3672 427.959 70.6602 428.943 70.6602C429.482 70.6602 430.013 70.543 430.537 70.3086C431.06 70.0664 431.545 69.6992 431.99 69.207L433.678 70.6016C433.037 71.3203 432.31 71.8633 431.498 72.2305C430.693 72.5977 429.767 72.7812 428.72 72.7812C426.908 72.7812 425.474 72.25 424.42 71.1875C423.373 70.1172 422.849 68.5977 422.849 66.6289C422.849 64.7227 423.388 63.1797 424.467 62C425.553 60.8125 426.924 60.2188 428.58 60.2188C430.228 60.2188 431.513 60.7227 432.435 61.7305C433.365 62.7383 433.83 64.1875 433.83 66.0781V67.1914ZM431.193 65.2695C431.193 64.293 430.963 63.5469 430.502 63.0312C430.049 62.5078 429.412 62.2461 428.592 62.2461C427.779 62.2461 427.103 62.5273 426.564 63.0898C426.033 63.6523 425.709 64.3789 425.592 65.2695H431.193Z" fill="#1F1F1F"/>
<rect x="18.5" y="95" width="430" height="55" rx="3.5" fill="white" stroke="#ECECEC"/>
<rect x="361" y="109.5" width="74" height="26" rx="5.5" stroke="#3380EF"/>
<path d="M371.65 126.688V125.625C371.772 125.732 371.917 125.829 372.085 125.915C372.257 126.001 372.436 126.074 372.622 126.135C372.812 126.193 373.002 126.237 373.191 126.27C373.381 126.302 373.557 126.318 373.718 126.318C374.273 126.318 374.686 126.216 374.958 126.012C375.234 125.804 375.372 125.507 375.372 125.12C375.372 124.912 375.326 124.732 375.232 124.578C375.143 124.424 375.018 124.284 374.856 124.159C374.695 124.03 374.504 123.908 374.282 123.793C374.063 123.675 373.827 123.552 373.573 123.423C373.304 123.287 373.054 123.149 372.821 123.009C372.588 122.87 372.386 122.716 372.214 122.547C372.042 122.379 371.906 122.189 371.806 121.978C371.709 121.763 371.661 121.513 371.661 121.226C371.661 120.875 371.738 120.571 371.892 120.313C372.046 120.052 372.248 119.837 372.499 119.668C372.749 119.5 373.034 119.375 373.353 119.292C373.675 119.21 374.002 119.169 374.335 119.169C375.095 119.169 375.648 119.26 375.995 119.443V120.458C375.54 120.143 374.957 119.985 374.244 119.985C374.047 119.985 373.85 120.007 373.653 120.05C373.456 120.089 373.281 120.155 373.127 120.249C372.973 120.342 372.848 120.462 372.751 120.608C372.654 120.755 372.606 120.934 372.606 121.146C372.606 121.342 372.642 121.513 372.713 121.656C372.789 121.799 372.898 121.93 373.041 122.048C373.184 122.166 373.358 122.281 373.562 122.392C373.77 122.503 374.008 122.624 374.276 122.757C374.552 122.893 374.813 123.036 375.061 123.187C375.308 123.337 375.524 123.503 375.71 123.686C375.897 123.869 376.043 124.071 376.151 124.293C376.262 124.515 376.317 124.769 376.317 125.056C376.317 125.435 376.242 125.757 376.092 126.022C375.945 126.284 375.744 126.497 375.49 126.662C375.24 126.826 374.95 126.944 374.62 127.016C374.291 127.091 373.943 127.129 373.578 127.129C373.456 127.129 373.306 127.118 373.127 127.097C372.948 127.079 372.765 127.05 372.579 127.011C372.393 126.975 372.216 126.93 372.047 126.876C371.883 126.819 371.75 126.757 371.65 126.688ZM382.156 124.47H378.272C378.287 125.083 378.451 125.555 378.767 125.888C379.082 126.221 379.515 126.388 380.066 126.388C380.686 126.388 381.255 126.184 381.774 125.775V126.603C381.291 126.953 380.652 127.129 379.857 127.129C379.08 127.129 378.469 126.88 378.025 126.382C377.581 125.881 377.359 125.177 377.359 124.271C377.359 123.416 377.601 122.719 378.084 122.182C378.571 121.641 379.175 121.371 379.895 121.371C380.614 121.371 381.171 121.604 381.565 122.069C381.959 122.535 382.156 123.181 382.156 124.008V124.47ZM381.253 123.724C381.25 123.215 381.126 122.819 380.883 122.537C380.643 122.254 380.308 122.112 379.878 122.112C379.463 122.112 379.11 122.261 378.82 122.558C378.53 122.855 378.351 123.244 378.283 123.724H381.253ZM386.044 126.946C385.837 127.061 385.563 127.118 385.223 127.118C384.259 127.118 383.778 126.581 383.778 125.507V122.252H382.833V121.5H383.778V120.157L384.659 119.873V121.5H386.044V122.252H384.659V125.351C384.659 125.72 384.721 125.983 384.847 126.141C384.972 126.298 385.18 126.377 385.47 126.377C385.692 126.377 385.883 126.316 386.044 126.194V126.946ZM394.934 127H394.053V126.065H394.031C393.623 126.774 392.993 127.129 392.141 127.129C391.45 127.129 390.896 126.884 390.481 126.393C390.069 125.899 389.863 125.228 389.863 124.379C389.863 123.469 390.092 122.741 390.551 122.193C391.009 121.645 391.62 121.371 392.382 121.371C393.138 121.371 393.688 121.668 394.031 122.263H394.053V118.857H394.934V127ZM394.053 124.513V123.702C394.053 123.258 393.906 122.882 393.612 122.574C393.319 122.266 392.946 122.112 392.495 122.112C391.958 122.112 391.535 122.309 391.228 122.703C390.92 123.097 390.766 123.641 390.766 124.336C390.766 124.97 390.912 125.471 391.206 125.84C391.503 126.205 391.901 126.388 392.398 126.388C392.889 126.388 393.286 126.21 393.591 125.856C393.899 125.501 394.053 125.054 394.053 124.513ZM401.137 124.47H397.254C397.268 125.083 397.433 125.555 397.748 125.888C398.063 126.221 398.496 126.388 399.048 126.388C399.667 126.388 400.237 126.184 400.756 125.775V126.603C400.272 126.953 399.633 127.129 398.838 127.129C398.061 127.129 397.451 126.88 397.007 126.382C396.563 125.881 396.341 125.177 396.341 124.271C396.341 123.416 396.583 122.719 397.066 122.182C397.553 121.641 398.156 121.371 398.876 121.371C399.596 121.371 400.153 121.604 400.546 122.069C400.94 122.535 401.137 123.181 401.137 124.008V124.47ZM400.235 123.724C400.231 123.215 400.108 122.819 399.864 122.537C399.624 122.254 399.29 122.112 398.86 122.112C398.444 122.112 398.092 122.261 397.802 122.558C397.512 122.855 397.333 123.244 397.265 123.724H400.235ZM405.192 119.631C405.021 119.534 404.825 119.486 404.607 119.486C403.991 119.486 403.683 119.874 403.683 120.651V121.5H404.972V122.252H403.683V127H402.808V122.252H401.868V121.5H402.808V120.608C402.808 120.032 402.974 119.577 403.307 119.244C403.64 118.908 404.056 118.739 404.553 118.739C404.822 118.739 405.035 118.771 405.192 118.836V119.631ZM409.86 127H408.979V126.141H408.958C408.574 126.799 408.01 127.129 407.266 127.129C406.718 127.129 406.288 126.984 405.977 126.694C405.669 126.404 405.515 126.019 405.515 125.539C405.515 124.511 406.12 123.913 407.33 123.745L408.979 123.514C408.979 122.58 408.601 122.112 407.846 122.112C407.183 122.112 406.585 122.338 406.052 122.789V121.887C406.592 121.543 407.215 121.371 407.921 121.371C409.214 121.371 409.86 122.055 409.86 123.423V127ZM408.979 124.218L407.652 124.4C407.244 124.458 406.936 124.56 406.729 124.707C406.521 124.85 406.417 125.106 406.417 125.475C406.417 125.743 406.512 125.963 406.702 126.135C406.895 126.304 407.151 126.388 407.47 126.388C407.907 126.388 408.266 126.236 408.549 125.931C408.836 125.623 408.979 125.235 408.979 124.766V124.218ZM415.967 127H415.086V126.13H415.064C414.699 126.796 414.133 127.129 413.367 127.129C412.057 127.129 411.401 126.348 411.401 124.787V121.5H412.277V124.647C412.277 125.808 412.721 126.388 413.609 126.388C414.039 126.388 414.391 126.23 414.667 125.915C414.946 125.596 415.086 125.181 415.086 124.669V121.5H415.967V127ZM418.631 127H417.75V118.857H418.631V127ZM422.965 126.946C422.758 127.061 422.484 127.118 422.144 127.118C421.18 127.118 420.699 126.581 420.699 125.507V122.252H419.753V121.5H420.699V120.157L421.58 119.873V121.5H422.965V122.252H421.58V125.351C421.58 125.72 421.642 125.983 421.768 126.141C421.893 126.298 422.101 126.377 422.391 126.377C422.613 126.377 422.804 126.316 422.965 126.194V126.946Z" fill="#1F1F1F"/>
<path fill-rule="evenodd" clip-rule="evenodd" d="M432.576 118.753C433.739 117.676 435.436 117.407 436.876 118.07L456.232 126.992C457.67 127.655 458.567 129.118 458.506 130.7C458.445 132.282 457.437 133.672 455.952 134.222L455.095 134.539L458.474 138.145C459.184 138.903 459.564 139.913 459.53 140.952C459.496 141.991 459.05 142.973 458.291 143.683L455.598 146.202C454.019 147.679 451.542 147.597 450.064 146.019L446.267 141.965L445.928 142.67C445.247 144.086 443.785 144.958 442.215 144.884C440.645 144.81 439.271 143.806 438.725 142.332L431.563 122.987C431.013 121.501 431.413 119.829 432.576 118.753ZM445.217 135.113L452.923 143.342L455.616 140.823L455.614 140.821L448.205 132.914L454.592 130.549L435.236 121.627L442.399 140.972L445.217 135.113Z" fill="#E8F0FE"/>
<path fill-rule="evenodd" clip-rule="evenodd" d="M442.397 140.972L435.234 121.627L454.591 130.549L448.203 132.914L455.614 140.823L452.921 143.342L445.216 135.113L442.397 140.972Z" fill="#3380EF"/>
<path d="M39.9912 127.5H39.019V122.387C39.019 122.179 39.0244 121.948 39.0352 121.694C39.0495 121.44 39.0692 121.166 39.0942 120.872H39.0674C39.0244 121.051 38.9832 121.205 38.9438 121.334C38.908 121.463 38.8722 121.567 38.8364 121.646L36.2798 127.5H35.748L33.1968 121.688C33.161 121.603 33.1234 121.492 33.084 121.355C33.0446 121.219 33.0052 121.058 32.9658 120.872H32.939C32.9569 121.048 32.9694 121.264 32.9766 121.522C32.9837 121.78 32.9873 122.081 32.9873 122.424V127.5H32.0527V119.798H33.3687L35.6567 125.094C35.7498 125.294 35.825 125.473 35.8823 125.631C35.9396 125.785 35.9808 125.917 36.0059 126.028H36.0381C36.1133 125.817 36.1813 125.633 36.2422 125.475C36.3031 125.314 36.3568 125.18 36.4033 125.072L38.7344 119.798H39.9912V127.5ZM46.0283 127.5H45.0776V126.614H45.0562C44.8628 126.95 44.6229 127.205 44.3364 127.376C44.05 127.548 43.717 127.634 43.3374 127.634C42.8075 127.634 42.3796 127.48 42.0537 127.172C41.7279 126.864 41.5649 126.458 41.5649 125.953C41.5649 125.463 41.7297 125.06 42.0591 124.745C42.3885 124.43 42.863 124.227 43.4824 124.138L45.083 123.923V123.794C45.083 123.339 44.9738 123.012 44.7554 122.811C44.5405 122.611 44.2505 122.51 43.8853 122.51C43.5952 122.51 43.3123 122.566 43.0366 122.677C42.7609 122.788 42.4995 122.954 42.2524 123.176L41.7314 122.596C42.0501 122.303 42.3903 122.086 42.752 121.946C43.1172 121.803 43.5164 121.731 43.9497 121.731C44.6372 121.731 45.1546 121.909 45.502 122.263C45.8529 122.618 46.0283 123.149 46.0283 123.858V127.5ZM45.083 125.201V124.659L43.7402 124.841C43.3285 124.899 43.0205 125.002 42.8164 125.153C42.6123 125.303 42.5103 125.54 42.5103 125.862C42.5103 126.181 42.6051 126.428 42.7949 126.603C42.9883 126.778 43.2282 126.866 43.5146 126.866C43.9873 126.866 44.3669 126.71 44.6533 126.399C44.9398 126.084 45.083 125.685 45.083 125.201ZM52.5327 127.5H51.2222L48.7837 124.782H48.7622V127.5H47.8062V119.357H48.7622V124.449H48.7837L51.0986 121.866H52.334L49.772 124.578L52.5327 127.5ZM58.0918 124.9H54.1279C54.1458 125.523 54.3123 126.003 54.6274 126.34C54.9425 126.673 55.3848 126.839 55.9541 126.839C56.2012 126.839 56.4536 126.802 56.7114 126.727C56.9728 126.648 57.2342 126.521 57.4956 126.345L57.9307 127.011C57.6048 127.226 57.2772 127.384 56.9478 127.484C56.6183 127.584 56.2567 127.634 55.8628 127.634C55.0106 127.634 54.3464 127.382 53.8701 126.877C53.3939 126.368 53.154 125.66 53.1504 124.75C53.1468 123.844 53.3867 123.115 53.8701 122.564C54.3571 122.009 54.9873 121.731 55.7607 121.731C56.4984 121.731 57.0713 121.971 57.4795 122.451C57.8877 122.927 58.0918 123.592 58.0918 124.444V124.9ZM57.1304 124.148C57.1268 123.629 57.0015 123.226 56.7544 122.94C56.5109 122.653 56.1743 122.51 55.7446 122.51C55.3221 122.51 54.964 122.659 54.6704 122.956C54.3804 123.25 54.2031 123.647 54.1387 124.148H57.1304ZM68.458 126.968C68.0713 127.187 67.6613 127.351 67.228 127.462C66.7948 127.573 66.3382 127.629 65.8584 127.629C64.7197 127.629 63.8156 127.291 63.146 126.614C62.4764 125.937 62.1416 124.983 62.1416 123.751C62.1416 122.508 62.5122 121.518 63.2534 120.781C63.9982 120.04 64.9578 119.669 66.1323 119.669C66.5692 119.669 66.9702 119.714 67.3354 119.803C67.7043 119.889 68.0767 120.027 68.4526 120.217L68.0605 121.006C67.7454 120.842 67.4357 120.723 67.1313 120.652C66.827 120.58 66.4922 120.544 66.127 120.544C65.264 120.544 64.555 120.818 64 121.366C63.4486 121.914 63.1729 122.688 63.1729 123.687C63.1729 124.7 63.4163 125.466 63.9033 125.985C64.3939 126.501 65.0814 126.759 65.9658 126.759C66.2559 126.759 66.5262 126.73 66.7769 126.673C67.0311 126.616 67.2638 126.53 67.4751 126.415V124.32H65.7993V123.45H68.458V126.968ZM72.5938 127.634C71.7523 127.634 71.0809 127.371 70.5796 126.845C70.0819 126.315 69.833 125.613 69.833 124.739C69.833 123.798 70.0908 123.062 70.6064 122.532C71.1221 122.002 71.8257 121.735 72.7173 121.731C73.5623 121.728 74.223 121.987 74.6992 122.51C75.179 123.029 75.4189 123.744 75.4189 124.653C75.4189 125.559 75.1629 126.283 74.6509 126.823C74.1388 127.364 73.4531 127.634 72.5938 127.634ZM72.6582 126.839C73.2311 126.839 73.6698 126.653 73.9741 126.281C74.2821 125.905 74.436 125.373 74.436 124.686C74.436 123.991 74.2821 123.457 73.9741 123.085C73.6662 122.713 73.2275 122.526 72.6582 122.526C72.0889 122.526 71.6377 122.722 71.3047 123.112C70.9753 123.499 70.8105 124.032 70.8105 124.712C70.8105 125.375 70.9771 125.896 71.3101 126.275C71.6431 126.651 72.0924 126.839 72.6582 126.839ZM79.2969 127.634C78.4554 127.634 77.784 127.371 77.2827 126.845C76.785 126.315 76.5361 125.613 76.5361 124.739C76.5361 123.798 76.7939 123.062 77.3096 122.532C77.8252 122.002 78.5288 121.735 79.4204 121.731C80.2655 121.728 80.9261 121.987 81.4023 122.51C81.8822 123.029 82.1221 123.744 82.1221 124.653C82.1221 125.559 81.866 126.283 81.354 126.823C80.842 127.364 80.1562 127.634 79.2969 127.634ZM79.3613 126.839C79.9342 126.839 80.3729 126.653 80.6772 126.281C80.9852 125.905 81.1392 125.373 81.1392 124.686C81.1392 123.991 80.9852 123.457 80.6772 123.085C80.3693 122.713 79.9307 122.526 79.3613 122.526C78.792 122.526 78.3408 122.722 78.0078 123.112C77.6784 123.499 77.5137 124.032 77.5137 124.712C77.5137 125.375 77.6802 125.896 78.0132 126.275C78.3462 126.651 78.7956 126.839 79.3613 126.839ZM88.4761 127.092C88.4761 128.084 88.2201 128.83 87.708 129.332C87.1995 129.836 86.4906 130.089 85.5811 130.089C85.1908 130.089 84.8291 130.049 84.4961 129.971C84.1631 129.896 83.8265 129.777 83.4863 129.616L83.8301 128.891C84.1237 129.031 84.4084 129.131 84.6841 129.192C84.9598 129.256 85.257 129.289 85.5757 129.289C86.1844 129.289 86.6606 129.115 87.0044 128.768C87.3481 128.42 87.52 127.903 87.52 127.215V126.56H87.4985C87.2873 126.918 87.0205 127.187 86.6982 127.366C86.376 127.545 86.0018 127.634 85.5757 127.634C84.8739 127.634 84.3081 127.384 83.8784 126.882C83.4523 126.377 83.2393 125.702 83.2393 124.857C83.2393 123.93 83.4738 123.178 83.9429 122.602C84.4155 122.021 85.0404 121.731 85.8174 121.731C86.1969 121.731 86.5264 121.807 86.8057 121.957C87.085 122.107 87.3159 122.335 87.4985 122.639H87.52V121.866H88.4761V127.092ZM87.52 124.949V124.138C87.52 123.694 87.3714 123.314 87.0742 122.999C86.7806 122.684 86.4118 122.526 85.9678 122.526C85.4235 122.526 84.9956 122.716 84.6841 123.096C84.3726 123.475 84.2168 124.043 84.2168 124.798C84.2168 125.45 84.3618 125.953 84.6519 126.308C84.9419 126.662 85.3394 126.839 85.8442 126.839C86.342 126.839 86.7448 126.662 87.0527 126.308C87.3643 125.953 87.52 125.5 87.52 124.949ZM90.3345 127.5V119.357H91.2905V127.5H90.3345ZM97.7197 124.9H93.7559C93.7738 125.523 93.9403 126.003 94.2554 126.34C94.5705 126.673 95.0127 126.839 95.582 126.839C95.8291 126.839 96.0815 126.802 96.3394 126.727C96.6007 126.648 96.8621 126.521 97.1235 126.345L97.5586 127.011C97.2327 127.226 96.9051 127.384 96.5757 127.484C96.2463 127.584 95.8846 127.634 95.4907 127.634C94.6385 127.634 93.9743 127.382 93.498 126.877C93.0218 126.368 92.7819 125.66 92.7783 124.75C92.7747 123.844 93.0146 123.115 93.498 122.564C93.985 122.009 94.6152 121.731 95.3887 121.731C96.1263 121.731 96.6992 121.971 97.1074 122.451C97.5156 122.927 97.7197 123.592 97.7197 124.444V124.9ZM96.7583 124.148C96.7547 123.629 96.6294 123.226 96.3823 122.94C96.1388 122.653 95.8022 122.51 95.3726 122.51C94.95 122.51 94.592 122.659 94.2983 122.956C94.0083 123.25 93.8311 123.647 93.7666 124.148H96.7583ZM107.731 127.108C107.359 127.291 106.994 127.423 106.636 127.505C106.278 127.588 105.889 127.629 105.47 127.629C104.303 127.629 103.393 127.278 102.742 126.576C102.094 125.874 101.77 124.945 101.77 123.789C101.77 122.539 102.131 121.54 102.854 120.792C103.581 120.043 104.527 119.669 105.69 119.669C106.063 119.669 106.41 119.703 106.732 119.771C107.055 119.839 107.382 119.948 107.715 120.099L107.355 120.904C107.08 120.779 106.809 120.689 106.544 120.636C106.279 120.578 105.995 120.55 105.69 120.55C104.813 120.55 104.111 120.834 103.585 121.404C103.062 121.973 102.801 122.748 102.801 123.729C102.801 124.657 103.05 125.393 103.547 125.937C104.045 126.481 104.711 126.753 105.545 126.753C105.85 126.753 106.149 126.719 106.442 126.651C106.74 126.58 107.039 126.467 107.339 126.313L107.731 127.108ZM113.838 127.5H112.882V124.25C112.882 123.674 112.775 123.243 112.56 122.956C112.345 122.67 112.025 122.526 111.599 122.526C111.165 122.526 110.802 122.693 110.508 123.026C110.215 123.355 110.068 123.783 110.068 124.31V127.5H109.112V119.357H110.068V122.795H110.089C110.304 122.44 110.566 122.175 110.874 122C111.181 121.821 111.534 121.731 111.932 121.731C112.569 121.731 113.045 121.923 113.36 122.306C113.679 122.689 113.838 123.264 113.838 124.03V127.5ZM118.42 122.682C118.348 122.661 118.282 122.645 118.221 122.634C118.16 122.623 118.087 122.618 118.001 122.618C117.546 122.618 117.188 122.811 116.927 123.198C116.665 123.581 116.535 124.066 116.535 124.653V127.5H115.579V121.866H116.535V122.983H116.556C116.685 122.585 116.88 122.285 117.142 122.081C117.407 121.873 117.713 121.769 118.06 121.769C118.171 121.769 118.266 121.774 118.345 121.785C118.427 121.796 118.502 121.812 118.57 121.833L118.42 122.682ZM122.019 127.634C121.177 127.634 120.506 127.371 120.004 126.845C119.507 126.315 119.258 125.613 119.258 124.739C119.258 123.798 119.516 123.062 120.031 122.532C120.547 122.002 121.25 121.735 122.142 121.731C122.987 121.728 123.648 121.987 124.124 122.51C124.604 123.029 124.844 123.744 124.844 124.653C124.844 125.559 124.588 126.283 124.076 126.823C123.564 127.364 122.878 127.634 122.019 127.634ZM122.083 126.839C122.656 126.839 123.095 126.653 123.399 126.281C123.707 125.905 123.861 125.373 123.861 124.686C123.861 123.991 123.707 123.457 123.399 123.085C123.091 122.713 122.652 122.526 122.083 122.526C121.514 122.526 121.062 122.722 120.729 123.112C120.4 123.499 120.235 124.032 120.235 124.712C120.235 125.375 120.402 125.896 120.735 126.275C121.068 126.651 121.517 126.839 122.083 126.839ZM134.399 127.5H133.438V124.261C133.438 123.649 133.343 123.207 133.153 122.935C132.963 122.662 132.646 122.526 132.202 122.526C131.823 122.526 131.5 122.698 131.235 123.042C130.974 123.386 130.843 123.801 130.843 124.288V127.5H129.887V124.159C129.887 123.615 129.782 123.207 129.57 122.935C129.363 122.662 129.049 122.526 128.63 122.526C128.24 122.526 127.918 122.689 127.664 123.015C127.413 123.341 127.288 123.767 127.288 124.293V127.5H126.332V121.866H127.288V122.757H127.309C127.51 122.417 127.757 122.161 128.05 121.989C128.344 121.817 128.682 121.731 129.065 121.731C129.452 121.731 129.787 121.837 130.07 122.048C130.356 122.26 130.555 122.541 130.666 122.892C130.874 122.505 131.133 122.215 131.445 122.021C131.76 121.828 132.123 121.731 132.535 121.731C133.155 121.731 133.62 121.923 133.932 122.306C134.243 122.686 134.399 123.259 134.399 124.025V127.5ZM140.71 124.9H136.746C136.764 125.523 136.931 126.003 137.246 126.34C137.561 126.673 138.003 126.839 138.572 126.839C138.819 126.839 139.072 126.802 139.33 126.727C139.591 126.648 139.852 126.521 140.114 126.345L140.549 127.011C140.223 127.226 139.895 127.384 139.566 127.484C139.236 127.584 138.875 127.634 138.481 127.634C137.629 127.634 136.965 127.382 136.488 126.877C136.012 126.368 135.772 125.66 135.769 124.75C135.765 123.844 136.005 123.115 136.488 122.564C136.975 122.009 137.605 121.731 138.379 121.731C139.117 121.731 139.689 121.971 140.098 122.451C140.506 122.927 140.71 123.592 140.71 124.444V124.9ZM139.749 124.148C139.745 123.629 139.62 123.226 139.373 122.94C139.129 122.653 138.792 122.51 138.363 122.51C137.94 122.51 137.582 122.659 137.289 122.956C136.999 123.25 136.821 123.647 136.757 124.148H139.749ZM149.707 121.866L147.08 128.51C146.872 129.04 146.607 129.437 146.285 129.702C145.963 129.967 145.582 130.1 145.141 130.1C145.023 130.1 144.912 130.092 144.808 130.078C144.708 130.064 144.613 130.044 144.523 130.019L144.706 129.219C144.778 129.244 144.844 129.262 144.905 129.272C144.969 129.283 145.034 129.289 145.098 129.289C145.334 129.289 145.533 129.226 145.694 129.101C145.855 128.975 145.986 128.798 146.086 128.569L146.543 127.489L144.335 121.866H145.394L146.887 126.136C146.897 126.172 146.912 126.229 146.93 126.308C146.951 126.383 146.976 126.478 147.005 126.592H147.037C147.048 126.542 147.062 126.481 147.08 126.41C147.102 126.334 147.127 126.247 147.155 126.146L148.724 121.866H149.707ZM153.128 127.634C152.286 127.634 151.615 127.371 151.114 126.845C150.616 126.315 150.367 125.613 150.367 124.739C150.367 123.798 150.625 123.062 151.141 122.532C151.656 122.002 152.36 121.735 153.251 121.731C154.097 121.728 154.757 121.987 155.233 122.51C155.713 123.029 155.953 123.744 155.953 124.653C155.953 125.559 155.697 126.283 155.185 126.823C154.673 127.364 153.987 127.634 153.128 127.634ZM153.192 126.839C153.765 126.839 154.204 126.653 154.508 126.281C154.816 125.905 154.97 125.373 154.97 124.686C154.97 123.991 154.816 123.457 154.508 123.085C154.2 122.713 153.762 122.526 153.192 122.526C152.623 122.526 152.172 122.722 151.839 123.112C151.509 123.499 151.345 124.032 151.345 124.712C151.345 125.375 151.511 125.896 151.844 126.275C152.177 126.651 152.627 126.839 153.192 126.839ZM162.055 127.5H161.099V126.603H161.077C160.887 126.947 160.646 127.205 160.352 127.376C160.062 127.548 159.722 127.634 159.332 127.634C158.662 127.634 158.159 127.434 157.822 127.033C157.489 126.632 157.323 126.032 157.323 125.233V121.866H158.279V125.088C158.279 125.672 158.39 126.111 158.612 126.404C158.834 126.694 159.169 126.839 159.616 126.839C160.049 126.839 160.404 126.68 160.68 126.361C160.959 126.043 161.099 125.624 161.099 125.104V121.866H162.055V127.5ZM166.749 122.682C166.677 122.661 166.611 122.645 166.55 122.634C166.489 122.623 166.416 122.618 166.33 122.618C165.875 122.618 165.517 122.811 165.256 123.198C164.994 123.581 164.864 124.066 164.864 124.653V127.5H163.908V121.866H164.864V122.983H164.885C165.014 122.585 165.209 122.285 165.471 122.081C165.736 121.873 166.042 121.769 166.389 121.769C166.5 121.769 166.595 121.774 166.674 121.785C166.756 121.796 166.831 121.812 166.899 121.833L166.749 122.682ZM174.865 126.555C174.657 126.913 174.392 127.183 174.07 127.366C173.751 127.545 173.375 127.634 172.942 127.634C172.233 127.634 171.665 127.382 171.239 126.877C170.817 126.372 170.605 125.685 170.605 124.814C170.605 123.88 170.84 123.133 171.309 122.575C171.778 122.013 172.403 121.731 173.184 121.731C173.57 121.731 173.903 121.807 174.183 121.957C174.462 122.107 174.689 122.335 174.865 122.639H174.886V119.357H175.842V127.5H174.886V126.555H174.865ZM171.583 124.766C171.583 125.411 171.732 125.917 172.029 126.286C172.326 126.655 172.723 126.839 173.221 126.839C173.722 126.839 174.125 126.66 174.43 126.302C174.734 125.944 174.886 125.491 174.886 124.943V124.138C174.886 123.687 174.738 123.305 174.44 122.994C174.147 122.682 173.774 122.526 173.323 122.526C172.783 122.526 172.356 122.725 172.045 123.123C171.737 123.52 171.583 124.068 171.583 124.766ZM182.271 124.9H178.308C178.326 125.523 178.492 126.003 178.807 126.34C179.122 126.673 179.564 126.839 180.134 126.839C180.381 126.839 180.633 126.802 180.891 126.727C181.153 126.648 181.414 126.521 181.675 126.345L182.11 127.011C181.785 127.226 181.457 127.384 181.127 127.484C180.798 127.584 180.436 127.634 180.042 127.634C179.19 127.634 178.526 127.382 178.05 126.877C177.574 126.368 177.334 125.66 177.33 124.75C177.326 123.844 177.566 123.115 178.05 122.564C178.537 122.009 179.167 121.731 179.94 121.731C180.678 121.731 181.251 121.971 181.659 122.451C182.067 122.927 182.271 123.592 182.271 124.444V124.9ZM181.31 124.148C181.306 123.629 181.181 123.226 180.934 122.94C180.691 122.653 180.354 122.51 179.924 122.51C179.502 122.51 179.144 122.659 178.85 122.956C178.56 123.25 178.383 123.647 178.318 124.148H181.31ZM186.396 120.12C186.296 120.084 186.205 120.059 186.123 120.045C186.04 120.031 185.954 120.023 185.865 120.023C185.568 120.023 185.346 120.102 185.199 120.26C185.056 120.417 184.984 120.648 184.984 120.953V121.866H186.278V122.661H184.984V127.5H184.033V122.661H183.088V121.866H184.033V120.904C184.033 120.378 184.196 119.966 184.522 119.669C184.851 119.372 185.299 119.223 185.865 119.223C186.008 119.223 186.139 119.234 186.257 119.255C186.375 119.277 186.497 119.307 186.622 119.347L186.396 120.12ZM191.392 127.5H190.441V126.614H190.419C190.226 126.95 189.986 127.205 189.7 127.376C189.413 127.548 189.08 127.634 188.701 127.634C188.171 127.634 187.743 127.48 187.417 127.172C187.091 126.864 186.928 126.458 186.928 125.953C186.928 125.463 187.093 125.06 187.422 124.745C187.752 124.43 188.226 124.227 188.846 124.138L190.446 123.923V123.794C190.446 123.339 190.337 123.012 190.119 122.811C189.904 122.611 189.614 122.51 189.249 122.51C188.958 122.51 188.676 122.566 188.4 122.677C188.124 122.788 187.863 122.954 187.616 123.176L187.095 122.596C187.413 122.303 187.754 122.086 188.115 121.946C188.48 121.803 188.88 121.731 189.313 121.731C190 121.731 190.518 121.909 190.865 122.263C191.216 122.618 191.392 123.149 191.392 123.858V127.5ZM190.446 125.201V124.659L189.104 124.841C188.692 124.899 188.384 125.002 188.18 125.153C187.976 125.303 187.874 125.54 187.874 125.862C187.874 126.181 187.968 126.428 188.158 126.603C188.352 126.778 188.591 126.866 188.878 126.866C189.351 126.866 189.73 126.71 190.017 126.399C190.303 126.084 190.446 125.685 190.446 125.201ZM197.783 127.5H196.827V126.603H196.806C196.616 126.947 196.374 127.205 196.081 127.376C195.791 127.548 195.45 127.634 195.06 127.634C194.39 127.634 193.887 127.434 193.551 127.033C193.218 126.632 193.051 126.032 193.051 125.233V121.866H194.007V125.088C194.007 125.672 194.118 126.111 194.34 126.404C194.562 126.694 194.897 126.839 195.345 126.839C195.778 126.839 196.132 126.68 196.408 126.361C196.688 126.043 196.827 125.624 196.827 125.104V121.866H197.783V127.5ZM199.636 127.5V119.357H200.592V127.5H199.636ZM205.211 127.43C205.057 127.495 204.903 127.541 204.75 127.57C204.599 127.602 204.429 127.618 204.239 127.618C203.777 127.618 203.416 127.486 203.154 127.221C202.896 126.956 202.768 126.564 202.768 126.044V122.661H201.806V121.866H202.768V120.577L203.729 120.271V121.866H205.136V122.661H203.729V125.942C203.729 126.261 203.786 126.49 203.901 126.63C204.015 126.77 204.187 126.839 204.417 126.839C204.524 126.839 204.628 126.827 204.728 126.802C204.828 126.777 204.914 126.746 204.986 126.71L205.211 127.43ZM210.411 126.759H210.389V127.5H209.433V119.357H210.389V122.849H210.411C210.633 122.476 210.907 122.197 211.232 122.011C211.558 121.825 211.934 121.731 212.36 121.731C213.08 121.731 213.644 121.984 214.052 122.489C214.46 122.99 214.665 123.665 214.665 124.514C214.665 125.459 214.434 126.216 213.972 126.786C213.513 127.351 212.889 127.634 212.097 127.634C211.725 127.634 211.397 127.563 211.114 127.419C210.835 127.273 210.6 127.052 210.411 126.759ZM210.384 124.417V125.18C210.384 125.645 210.532 126.039 210.83 126.361C211.127 126.68 211.506 126.839 211.968 126.839C212.502 126.839 212.921 126.633 213.225 126.222C213.529 125.81 213.682 125.237 213.682 124.503C213.682 123.887 213.54 123.404 213.257 123.053C212.974 122.702 212.59 122.526 212.103 122.526C211.583 122.526 211.166 122.707 210.851 123.069C210.54 123.427 210.384 123.876 210.384 124.417ZM218.988 122.682C218.917 122.661 218.85 122.645 218.79 122.634C218.729 122.623 218.655 122.618 218.569 122.618C218.115 122.618 217.757 122.811 217.495 123.198C217.234 123.581 217.103 124.066 217.103 124.653V127.5H216.147V121.866H217.103V122.983H217.125C217.253 122.585 217.449 122.285 217.71 122.081C217.975 121.873 218.281 121.769 218.628 121.769C218.739 121.769 218.834 121.774 218.913 121.785C218.995 121.796 219.071 121.812 219.139 121.833L218.988 122.682ZM222.587 127.634C221.745 127.634 221.074 127.371 220.573 126.845C220.075 126.315 219.826 125.613 219.826 124.739C219.826 123.798 220.084 123.062 220.6 122.532C221.115 122.002 221.819 121.735 222.71 121.731C223.556 121.728 224.216 121.987 224.692 122.51C225.172 123.029 225.412 123.744 225.412 124.653C225.412 125.559 225.156 126.283 224.644 126.823C224.132 127.364 223.446 127.634 222.587 127.634ZM222.651 126.839C223.224 126.839 223.663 126.653 223.967 126.281C224.275 125.905 224.429 125.373 224.429 124.686C224.429 123.991 224.275 123.457 223.967 123.085C223.659 122.713 223.221 122.526 222.651 122.526C222.082 122.526 221.631 122.722 221.298 123.112C220.968 123.499 220.804 124.032 220.804 124.712C220.804 125.375 220.97 125.896 221.303 126.275C221.636 126.651 222.086 126.839 222.651 126.839ZM234.081 121.866L232.395 127.5H231.401L230.262 123.509C230.234 123.409 230.214 123.321 230.203 123.246C230.192 123.167 230.183 123.08 230.176 122.983H230.155C230.148 123.076 230.133 123.16 230.112 123.235C230.094 123.311 230.069 123.4 230.037 123.504L228.807 127.5H227.845L226.148 121.866H227.147L228.291 126.066C228.309 126.13 228.323 126.206 228.334 126.292C228.348 126.377 228.359 126.474 228.366 126.582H228.409C228.416 126.499 228.427 126.413 228.441 126.324C228.459 126.234 228.483 126.145 228.511 126.055L229.784 121.866H230.66L231.804 126.077C231.822 126.141 231.838 126.216 231.852 126.302C231.866 126.388 231.879 126.485 231.89 126.592H231.933C231.936 126.517 231.945 126.437 231.959 126.351C231.977 126.265 231.999 126.173 232.024 126.077L233.141 121.866H234.081ZM234.693 127.081L235.139 126.361C235.375 126.519 235.61 126.639 235.843 126.721C236.076 126.804 236.332 126.845 236.611 126.845C236.987 126.845 237.273 126.777 237.47 126.641C237.667 126.501 237.766 126.293 237.766 126.018C237.766 125.788 237.678 125.599 237.502 125.448C237.331 125.294 237.058 125.169 236.686 125.072C235.988 124.897 235.508 124.673 235.247 124.401C234.985 124.125 234.854 123.783 234.854 123.375C234.854 122.902 235.034 122.51 235.392 122.199C235.753 121.887 236.246 121.731 236.869 121.731C237.169 121.731 237.454 121.771 237.723 121.85C237.995 121.925 238.269 122.052 238.544 122.231L238.131 122.94C237.88 122.782 237.655 122.673 237.454 122.612C237.254 122.548 237.049 122.516 236.842 122.516C236.487 122.516 236.215 122.582 236.025 122.714C235.836 122.847 235.741 123.038 235.741 123.289C235.741 123.533 235.834 123.719 236.02 123.848C236.206 123.973 236.516 124.091 236.949 124.202C237.526 124.356 237.955 124.571 238.238 124.847C238.525 125.119 238.668 125.482 238.668 125.937C238.668 126.456 238.48 126.87 238.104 127.178C237.732 127.482 237.223 127.634 236.579 127.634C236.228 127.634 235.893 127.588 235.574 127.495C235.259 127.398 234.965 127.26 234.693 127.081ZM244.641 124.9H240.677C240.695 125.523 240.861 126.003 241.176 126.34C241.491 126.673 241.934 126.839 242.503 126.839C242.75 126.839 243.002 126.802 243.26 126.727C243.522 126.648 243.783 126.521 244.044 126.345L244.479 127.011C244.154 127.226 243.826 127.384 243.497 127.484C243.167 127.584 242.806 127.634 242.412 127.634C241.559 127.634 240.895 127.382 240.419 126.877C239.943 126.368 239.703 125.66 239.699 124.75C239.696 123.844 239.936 123.115 240.419 122.564C240.906 122.009 241.536 121.731 242.31 121.731C243.047 121.731 243.62 121.971 244.028 122.451C244.437 122.927 244.641 123.592 244.641 124.444V124.9ZM243.679 124.148C243.676 123.629 243.55 123.226 243.303 122.94C243.06 122.653 242.723 122.51 242.293 122.51C241.871 122.51 241.513 122.659 241.219 122.956C240.929 123.25 240.752 123.647 240.688 124.148H243.679ZM248.895 122.682C248.823 122.661 248.757 122.645 248.696 122.634C248.635 122.623 248.562 122.618 248.476 122.618C248.021 122.618 247.663 122.811 247.401 123.198C247.14 123.581 247.009 124.066 247.009 124.653V127.5H246.053V121.866H247.009V122.983H247.031C247.16 122.585 247.355 122.285 247.616 122.081C247.881 121.873 248.187 121.769 248.535 121.769C248.646 121.769 248.741 121.774 248.819 121.785C248.902 121.796 248.977 121.812 249.045 121.833L248.895 122.682Z" fill="#1F1F1F"/>
</g>
<defs>
<filter id="filter0_d_2147_50551" x="-10" y="0" width="488" height="192" filterUnits="userSpaceOnUse" color-interpolation-filters="sRGB">
<feFlood flood-opacity="0" result="BackgroundImageFix"/>
<feColorMatrix in="SourceAlpha" type="matrix" values="0 0 0 0 0 0 0 0 0 0 0 0 0 0 0 0 0 0 127 0" result="hardAlpha"/>
<feOffset dy="4"/>
<feGaussianBlur stdDeviation="5"/>
<feComposite in2="hardAlpha" operator="out"/>
<feColorMatrix type="matrix" values="0 0 0 0 0 0 0 0 0 0 0 0 0 0 0 0 0 0 0.4 0"/>
<feBlend mode="normal" in2="BackgroundImageFix" result="effect1_dropShadow_2147_50551"/>
<feBlend mode="normal" in="SourceGraphic" in2="effect1_dropShadow_2147_50551" result="shape"/>
</filter>
<clipPath id="clip0_2147_50551">
<path d="M357 10.5H462.37C465.479 10.5 468 13.0208 468 16.1304V26.587H357V10.5Z" fill="white"/>
</clipPath>
</defs>
</svg>