<svg xmlns="http://www.w3.org/2000/svg" width="20" height="20" viewBox="0 0 20 20" fill="none"><path fill-rule="evenodd" clip-rule="evenodd" d="M18 10a8 8 0 1 1-16 0 8 8 0 0 1 16 0Zm-5.335-3.549a33.45 33.45 0 0 0-.762.79l.039.042c.696.775 1.467 1.633 1.413 2.738.068 1.127-.67 2.053-1.434 2.805.216.286.434.57.653.855 1.258-.839 2.037-2.313 1.937-3.812-.02-1.355-.798-2.58-1.846-3.418Zm3.772 5.35a6.562 6.562 0 0 1-2.562 3.566c-.233-.31-.458-.624-.678-.942l.205-.203c.524-.519 1.054-1.044 1.404-1.694.869-1.564.818-3.568-.099-5.102-.309-.514-.735-.943-1.158-1.37a31.85 31.85 0 0 1-.306-.311c.233-.306.467-.61.704-.914 2.262 1.469 3.192 4.445 2.49 6.97ZM8.768 3.68c-.11-.003-.225-.008-.345-.014-2.921.698-5.09 3.281-5.09 6.361 0 2.658 1.614 4.946 3.934 5.972a23.226 23.226 0 0 1 1.48-.387c.206-1.043.328-2.1.379-3.162-.481-.277-.981-.52-1.481-.763-.228-.11-.456-.221-.682-.335l.557-.104c.652-.12 1.305-.24 1.946-.416l.042-.633c.02-.295.038-.59.061-.886a61.936 61.936 0 0 1 1.548-.978 11.89 11.89 0 0 0-.813-1.77 29.416 29.416 0 0 1-.575-1.117c-.3-.6-.599-1.2-.96-1.767Z" fill="#fff"/></svg>