<svg width="520" height="320" viewBox="0 0 520 320" fill="none" xmlns="http://www.w3.org/2000/svg"><g clip-path="url(#a)"><g clip-path="url(#b)"><path d="M436.814 96.953h-48.887c-3.69 0-6.682 3.109-6.682 6.945v115.916c0 3.835 2.992 6.945 6.682 6.945h48.887c3.691 0 6.682-3.11 6.682-6.945V103.898c0-3.836-2.991-6.945-6.682-6.945z" fill="#8AB4F8" fill-opacity=".4"/><path d="M285.74 114.525c3.734 0 6.76-3.146 6.76-7.027 0-3.881-3.026-7.027-6.76-7.027s-6.76 3.146-6.76 7.027c0 3.881 3.026 7.027 6.76 7.027z" fill="#5BB974"/><path d="m195.782 126.636-48.819 13.809c-.35.099-.67.292-.926.56a2.213 2.213 0 0 0-.525 2.08c.096.364.283.695.542.96l35.904 37.035c.26.266.583.456.937.55.353.094.724.09 1.075-.014.351-.103.669-.301.922-.574.254-.273.433-.61.52-.979l12.904-50.844c.085-.362.078-.74-.02-1.097a2.162 2.162 0 0 0-.54-.944 2.047 2.047 0 0 0-.918-.542 1.992 1.992 0 0 0-1.056 0z" fill="#FCC934"/><path d="M381.245 146.577c-5.174.222-10.228-1.651-14.098-5.227l-5.058-4.678-2.299-1.921a16.94 16.94 0 0 0-1.839-1.129 16.251 16.251 0 0 0-12.871-.987 16.688 16.688 0 0 0-5.723 3.374 17.428 17.428 0 0 0-4.043 5.395 18.05 18.05 0 0 0-1.747 6.594 18.16 18.16 0 0 0 .817 6.786 17.671 17.671 0 0 0 3.255 5.943 16.948 16.948 0 0 0 5.197 4.195c.635.325 1.288.61 1.956.854h.049s2.749.752 2.827.763l6.634 1.423c5.186 1.121 9.734 4.331 12.649 8.929l3.288 5.196a24.817 24.817 0 0 0 3.062 4.83 24.058 24.058 0 0 0 7.954 6.427" fill="#8AB4F8" fill-opacity=".4"/><path d="M381.245 193.374a23.24 23.24 0 0 0 11.94 2.428 23.381 23.381 0 0 0 9.905-2.937 24.357 24.357 0 0 0 7.815-6.973 25.491 25.491 0 0 0 4.296-9.731 25.99 25.99 0 0 0-.012-10.706 25.469 25.469 0 0 0-4.316-9.72 24.352 24.352 0 0 0-7.831-6.955 23.387 23.387 0 0 0-9.91-2.915c-1.859-.113-3.724 0-5.557.336l-5.978.366h-.342" fill="#669DF6"/><path d="M334.706 163c12.475 0 22.589-10.513 22.589-23.48 0-12.968-10.114-23.48-22.589-23.48-12.476 0-22.59 10.512-22.59 23.48 0 12.967 10.114 23.48 22.59 23.48zm76.163-58.39h11.769" stroke="#669DF6" stroke-width="3" stroke-linecap="round" stroke-linejoin="round"/><path d="M404.373 106.196c.843 0 1.526-.71 1.526-1.586 0-.876-.683-1.587-1.526-1.587s-1.527.711-1.527 1.587.684 1.586 1.527 1.586z" fill="#669DF6"/><mask id="c" style="mask-type:alpha" maskUnits="userSpaceOnUse" x="333" y="131" width="49" height="63"><path d="M381.245 146.577c-5.174.222-10.228-1.651-14.098-5.227l-5.058-4.678-2.299-1.921a16.94 16.94 0 0 0-1.839-1.129 16.251 16.251 0 0 0-12.871-.987 16.688 16.688 0 0 0-5.723 3.374 17.428 17.428 0 0 0-4.043 5.395 18.05 18.05 0 0 0-1.747 6.594 18.16 18.16 0 0 0 .817 6.786 17.671 17.671 0 0 0 3.255 5.943 16.948 16.948 0 0 0 5.197 4.195c.635.325 1.288.61 1.956.854h.049s2.749.752 2.827.763l6.634 1.423c5.186 1.121 9.734 4.331 12.649 8.929l3.288 5.196a24.817 24.817 0 0 0 3.062 4.83 24.058 24.058 0 0 0 7.954 6.427" fill="#D2E3FC"/></mask><g mask="url(#c)"><path d="M334.706 163c12.475 0 22.589-10.512 22.589-23.48s-10.114-23.48-22.589-23.48c-12.476 0-22.59 10.512-22.59 23.48S322.23 163 334.706 163z" stroke="#202124" stroke-width="3" stroke-linecap="round" stroke-linejoin="round"/></g><path d="M102.322 162.4a24.214 24.214 0 0 1 9.773-1.022 24.448 24.448 0 0 1 9.403 2.952 25.378 25.378 0 0 1 7.596 6.474 26.482 26.482 0 0 1 4.627 9.006 27.105 27.105 0 0 1 .951 10.162 26.894 26.894 0 0 1-2.87 9.764 25.95 25.95 0 0 1-6.253 7.874 24.825 24.825 0 0 1-8.679 4.78" fill="#F882FF"/><path d="m87.813 118.308 30.691 108.807 106.276-1.302" stroke="#669DF6" stroke-width="6" stroke-linejoin="round"/><path d="M180.09 130.164a17.172 17.172 0 0 1 .28-6.464 16.86 16.86 0 0 1 2.643-5.859 16.158 16.158 0 0 1 4.602-4.359 15.548 15.548 0 0 1 5.858-2.191l36.854-5.919a15.352 15.352 0 0 1 6.213.291 15.673 15.673 0 0 1 5.632 2.741 16.332 16.332 0 0 1 4.195 4.772 16.976 16.976 0 0 1 2.118 6.077v0c.317 2.15.223 4.344-.276 6.456a16.856 16.856 0 0 1-2.633 5.855 16.176 16.176 0 0 1-4.59 4.361 15.552 15.552 0 0 1-5.845 2.202l-36.854 5.908a15.344 15.344 0 0 1-6.223-.274 15.675 15.675 0 0 1-5.647-2.734 16.354 16.354 0 0 1-4.205-4.776 16.968 16.968 0 0 1-2.122-6.087v0z" stroke="#EE675C" stroke-width="3" stroke-linecap="round" stroke-linejoin="round"/><mask id="d" style="mask-type:alpha" maskUnits="userSpaceOnUse" x="145" y="126" width="54" height="56"><path d="m195.782 126.636-48.819 13.809c-.35.099-.67.292-.926.56a2.213 2.213 0 0 0-.525 2.08c.096.364.283.695.542.96l35.904 37.035c.26.266.583.456.937.55.353.094.724.09 1.075-.014.351-.103.669-.301.922-.574.254-.273.433-.61.52-.979l12.904-50.844c.085-.362.078-.74-.02-1.097a2.162 2.162 0 0 0-.54-.944 2.047 2.047 0 0 0-.918-.542 1.992 1.992 0 0 0-1.056 0z" fill="#FFBA00"/></mask><g mask="url(#d)"><path d="M180.09 130.165a17.178 17.178 0 0 1 .28-6.465 16.86 16.86 0 0 1 2.643-5.859 16.168 16.168 0 0 1 4.602-4.358 15.55 15.55 0 0 1 5.858-2.192l36.854-5.918a15.352 15.352 0 0 1 6.213.291 15.671 15.671 0 0 1 5.632 2.74 16.358 16.358 0 0 1 4.195 4.772 16.988 16.988 0 0 1 2.118 6.078v0c.317 2.15.223 4.344-.276 6.456a16.864 16.864 0 0 1-2.633 5.855 16.187 16.187 0 0 1-4.59 4.36 15.552 15.552 0 0 1-5.845 2.202l-36.854 5.908a15.344 15.344 0 0 1-6.223-.274 15.659 15.659 0 0 1-5.647-2.734 16.337 16.337 0 0 1-4.205-4.775 16.975 16.975 0 0 1-2.122-6.087v0z" stroke="#fff" stroke-width="3" stroke-linecap="round" stroke-linejoin="round"/></g></g></g><defs><clipPath id="a"><path fill="#fff" d="M0 0h520v320H0z"/></clipPath><clipPath id="b"><path fill="#fff" transform="translate(-33.5 9.5)" d="M0 0h587v301H0z"/></clipPath></defs></svg>