<svg width="1040" height="640" fill="none" xmlns="http://www.w3.org/2000/svg"><path fill="#fff" d="M0 0h1040v640H0z"/><path d="M873.039 193.068h-98.441c-7.431 0-13.455 6.26-13.455 13.983v233.371c0 7.723 6.024 13.983 13.455 13.983h98.441c7.431 0 13.455-6.26 13.455-13.983V207.051c0-7.723-6.024-13.983-13.455-13.983z" fill="#D2E3FC"/><path d="M873.039 193.068h-98.441c-7.431 0-13.455 6.26-13.455 13.983v233.371c0 7.723 6.024 13.983 13.455 13.983h98.441c7.431 0 13.455-6.26 13.455-13.983V207.051c0-7.723-6.024-13.983-13.455-13.983z" fill="#D2E3FC"/><path d="M568.831 228.445c7.519 0 13.613-6.334 13.613-14.147 0-7.813-6.094-14.147-13.613-14.147-7.518 0-13.612 6.334-13.612 14.147 0 7.813 6.094 14.147 13.612 14.147z" fill="#34A853"/><path d="m387.689 252.828-98.303 27.803a4.128 4.128 0 0 0-1.865 1.126 4.372 4.372 0 0 0-1.07 1.946 4.48 4.48 0 0 0 .012 2.242c.194.733.57 1.4 1.091 1.933l72.299 74.563a4.13 4.13 0 0 0 1.885 1.107 4.01 4.01 0 0 0 2.165-.028 4.122 4.122 0 0 0 1.858-1.157 4.364 4.364 0 0 0 1.046-1.97l25.984-102.365a4.49 4.49 0 0 0-.04-2.209 4.364 4.364 0 0 0-1.087-1.899 4.115 4.115 0 0 0-1.849-1.092 4.006 4.006 0 0 0-2.126 0z" fill="#FFBA00"/><path d="M761.142 292.976c-10.417.448-20.595-3.325-28.388-10.523l-10.185-9.418-4.629-3.869a34.255 34.255 0 0 0-3.704-2.273 32.946 32.946 0 0 0-12.768-3.675 32.732 32.732 0 0 0-13.149 1.688 33.644 33.644 0 0 0-11.524 6.793 35.106 35.106 0 0 0-8.141 10.863 36.309 36.309 0 0 0-3.517 13.275 36.552 36.552 0 0 0 1.644 13.662 35.654 35.654 0 0 0 6.554 11.966 34.13 34.13 0 0 0 10.465 8.444 34.818 34.818 0 0 0 3.94 1.72h.098s5.536 1.515 5.693 1.535l13.357 2.866c10.443 2.257 19.602 8.72 25.472 17.976l6.619 10.461a50.166 50.166 0 0 0 6.166 9.725c4.394 5.446 9.854 9.857 16.017 12.939" fill="#D2E3FC"/><path d="M761.143 387.192a52.023 52.023 0 0 0 3.546 1.597 46.793 46.793 0 0 0 20.497 3.292 47.103 47.103 0 0 0 19.944-5.915c6.159-3.445 11.528-8.234 15.738-14.038 4.21-5.805 7.16-12.488 8.649-19.591a52.284 52.284 0 0 0-.023-21.554c-1.504-7.098-4.469-13.775-8.691-19.57s-9.602-10.572-15.768-14.002a47.09 47.09 0 0 0-19.957-5.869 46.49 46.49 0 0 0-11.19.676l-12.036.737h-.69" fill="#4285F4"/><path d="M667.429 326.04c25.122 0 45.487-21.165 45.487-47.273 0-26.107-20.365-47.272-45.487-47.272-25.122 0-45.488 21.165-45.488 47.272 0 26.108 20.366 47.273 45.488 47.273zm153.364-117.556h23.699" stroke="#4285F4" stroke-width="6" stroke-linecap="round" stroke-linejoin="round"/><path d="M807.714 211.678c1.697 0 3.073-1.43 3.073-3.194s-1.376-3.194-3.073-3.194-3.073 1.43-3.073 3.194 1.376 3.194 3.073 3.194z" fill="#4285F4"/><mask id="a" maskUnits="userSpaceOnUse" x="665" y="263" width="97" height="125"><path d="M761.142 292.976c-10.417.447-20.595-3.325-28.388-10.524l-10.185-9.417-4.629-3.87a34.405 34.405 0 0 0-3.704-2.272 32.946 32.946 0 0 0-12.768-3.675 32.732 32.732 0 0 0-13.149 1.688 33.628 33.628 0 0 0-11.524 6.793 35.106 35.106 0 0 0-8.141 10.863 36.304 36.304 0 0 0-3.517 13.274 36.557 36.557 0 0 0 1.644 13.663 35.64 35.64 0 0 0 6.554 11.965 34.119 34.119 0 0 0 10.465 8.445 34.818 34.818 0 0 0 3.94 1.72h.098s5.536 1.515 5.693 1.535l13.357 2.866c10.443 2.257 19.602 8.72 25.472 17.975l6.619 10.462a50.197 50.197 0 0 0 6.166 9.725c4.394 5.446 9.854 9.857 16.017 12.939" fill="#D2E3FC"/></mask><g mask="url(#a)"><path d="M667.429 326.04c25.122 0 45.487-21.165 45.487-47.273 0-26.107-20.365-47.272-45.487-47.272-25.122 0-45.488 21.165-45.488 47.272 0 26.108 20.366 47.273 45.488 47.273z" stroke="#fff" stroke-width="6" stroke-linecap="round" stroke-linejoin="round"/></g><path d="M199.496 324.832a48.765 48.765 0 0 1 19.68-2.056 49.19 49.19 0 0 1 18.934 5.943c5.873 3.256 11.071 7.685 15.294 13.033a53.257 53.257 0 0 1 9.317 18.132 54.55 54.55 0 0 1 1.915 20.458A54.092 54.092 0 0 1 258.857 400c-3.152 6.093-7.431 11.481-12.59 15.852-5.16 4.372-11.099 7.643-17.477 9.625" fill="#F882FF"/><path d="m170.279 236.061 61.799 219.061 214.001-2.621" stroke="#4285F4" stroke-width="12" stroke-linejoin="round"/><path d="M356.091 259.932a34.598 34.598 0 0 1 .564-13.015 33.917 33.917 0 0 1 5.323-11.796 32.527 32.527 0 0 1 9.267-8.774 31.303 31.303 0 0 1 11.795-4.413l74.21-11.915a30.918 30.918 0 0 1 12.51.586 31.566 31.566 0 0 1 11.342 5.517 32.914 32.914 0 0 1 8.446 9.607 34.203 34.203 0 0 1 4.266 12.236v0a34.616 34.616 0 0 1-.556 12.999 33.93 33.93 0 0 1-5.303 11.787 32.561 32.561 0 0 1-9.241 8.779 31.31 31.31 0 0 1-11.771 4.433l-74.21 11.894c-4.171.675-8.43.488-12.531-.551a31.546 31.546 0 0 1-11.37-5.504 32.897 32.897 0 0 1-8.468-9.615 34.155 34.155 0 0 1-4.273-12.255v0z" stroke="#FE2C25" stroke-width="6" stroke-linecap="round" stroke-linejoin="round"/><mask id="b" maskUnits="userSpaceOnUse" x="286" y="252" width="107" height="112"><path d="m387.689 252.828-98.303 27.802a4.13 4.13 0 0 0-1.865 1.127 4.367 4.367 0 0 0-1.07 1.946 4.477 4.477 0 0 0 .012 2.241c.194.733.57 1.4 1.091 1.934l72.299 74.562a4.123 4.123 0 0 0 1.885 1.108 4.01 4.01 0 0 0 2.165-.029 4.129 4.129 0 0 0 1.858-1.156 4.37 4.37 0 0 0 1.046-1.97l25.984-102.365a4.49 4.49 0 0 0-.04-2.209 4.364 4.364 0 0 0-1.087-1.899 4.126 4.126 0 0 0-1.849-1.093 4.006 4.006 0 0 0-2.126.001z" fill="#FFBA00"/></mask><g mask="url(#b)"><path d="M356.091 259.932a34.598 34.598 0 0 1 .564-13.015 33.917 33.917 0 0 1 5.323-11.796 32.527 32.527 0 0 1 9.267-8.774 31.303 31.303 0 0 1 11.795-4.413l74.21-11.915a30.918 30.918 0 0 1 12.51.586 31.566 31.566 0 0 1 11.342 5.517 32.914 32.914 0 0 1 8.446 9.607 34.203 34.203 0 0 1 4.266 12.236v0a34.616 34.616 0 0 1-.556 12.999 33.93 33.93 0 0 1-5.303 11.787 32.561 32.561 0 0 1-9.241 8.779 31.31 31.31 0 0 1-11.771 4.433l-74.21 11.894c-4.171.675-8.43.488-12.531-.551a31.546 31.546 0 0 1-11.37-5.504 32.897 32.897 0 0 1-8.468-9.615 34.155 34.155 0 0 1-4.273-12.255v0z" stroke="#fff" stroke-width="6" stroke-linecap="round" stroke-linejoin="round"/></g></svg>