<?xml version="1.0" encoding="UTF-8"?>
<!--Generator: Apple Native CoreSVG 175.5-->
<!DOCTYPE svg
PUBLIC "-//W3C//DTD SVG 1.1//EN"
       "http://www.w3.org/Graphics/SVG/1.1/DTD/svg11.dtd">
<svg version="1.1" xmlns="http://www.w3.org/2000/svg" xmlns:xlink="http://www.w3.org/1999/xlink" width="3300" height="2200">
 <!--glyph: "", point size: 100.0, font version: "18.0d12e2", template writer version: "101"-->
 <g id="Notes">
  <rect height="2200" id="artboard" style="fill:white;opacity:1" width="3300" x="0" y="0"/>
  <line style="fill:none;stroke:black;opacity:1;stroke-width:0.5;" x1="263" x2="3036" y1="292" y2="292"/>
  <text style="stroke:none;fill:black;font-family:sans-serif;font-size:13;font-weight:bold;" transform="matrix(1 0 0 1 263 322)">Weight/Scale Variations</text>
  <text style="stroke:none;fill:black;font-family:sans-serif;font-size:13;text-anchor:middle;" transform="matrix(1 0 0 1 559.711 322)">Ultralight</text>
  <text style="stroke:none;fill:black;font-family:sans-serif;font-size:13;text-anchor:middle;" transform="matrix(1 0 0 1 856.422 322)">Thin</text>
  <text style="stroke:none;fill:black;font-family:sans-serif;font-size:13;text-anchor:middle;" transform="matrix(1 0 0 1 1153.13 322)">Light</text>
  <text style="stroke:none;fill:black;font-family:sans-serif;font-size:13;text-anchor:middle;" transform="matrix(1 0 0 1 1449.84 322)">Regular</text>
  <text style="stroke:none;fill:black;font-family:sans-serif;font-size:13;text-anchor:middle;" transform="matrix(1 0 0 1 1746.56 322)">Medium</text>
  <text style="stroke:none;fill:black;font-family:sans-serif;font-size:13;text-anchor:middle;" transform="matrix(1 0 0 1 2043.27 322)">Semibold</text>
  <text style="stroke:none;fill:black;font-family:sans-serif;font-size:13;text-anchor:middle;" transform="matrix(1 0 0 1 2339.98 322)">Bold</text>
  <text style="stroke:none;fill:black;font-family:sans-serif;font-size:13;text-anchor:middle;" transform="matrix(1 0 0 1 2636.69 322)">Heavy</text>
  <text style="stroke:none;fill:black;font-family:sans-serif;font-size:13;text-anchor:middle;" transform="matrix(1 0 0 1 2933.4 322)">Black</text>
  <line style="fill:none;stroke:black;opacity:1;stroke-width:0.5;" x1="263" x2="3036" y1="1903" y2="1903"/>
  <g transform="matrix(1 0 0 1 263 1933)">
   <path d="M9.24805 0.830078C13.5547 0.830078 17.1387-2.74414 17.1387-7.05078C17.1387-11.3574 13.5449-14.9316 9.23828-14.9316C4.94141-14.9316 1.36719-11.3574 1.36719-7.05078C1.36719-2.74414 4.95117 0.830078 9.24805 0.830078ZM9.24805-0.654297C5.70312-0.654297 2.87109-3.49609 2.87109-7.05078C2.87109-10.6055 5.69336-13.4473 9.23828-13.4473C12.793-13.4473 15.6445-10.6055 15.6445-7.05078C15.6445-3.49609 12.8027-0.654297 9.24805-0.654297ZM5.6543-7.05078C5.6543-6.62109 5.95703-6.32812 6.40625-6.32812L8.50586-6.32812L8.50586-4.20898C8.50586-3.76953 8.79883-3.4668 9.22852-3.4668C9.67773-3.4668 9.9707-3.76953 9.9707-4.20898L9.9707-6.32812L12.0898-6.32812C12.5293-6.32812 12.832-6.62109 12.832-7.05078C12.832-7.49023 12.5293-7.79297 12.0898-7.79297L9.9707-7.79297L9.9707-9.90234C9.9707-10.3516 9.67773-10.6543 9.22852-10.6543C8.79883-10.6543 8.50586-10.3516 8.50586-9.90234L8.50586-7.79297L6.40625-7.79297C5.95703-7.79297 5.6543-7.49023 5.6543-7.05078Z"/>
  </g>
  <g transform="matrix(1 0 0 1 281.867 1933)">
   <path d="M11.709 2.91016C17.1582 2.91016 21.6699-1.61133 21.6699-7.05078C21.6699-12.5 17.1484-17.0117 11.6992-17.0117C6.25977-17.0117 1.74805-12.5 1.74805-7.05078C1.74805-1.61133 6.26953 2.91016 11.709 2.91016ZM11.709 1.25C7.09961 1.25 3.41797-2.44141 3.41797-7.05078C3.41797-11.6602 7.08984-15.3516 11.6992-15.3516C16.3086-15.3516 20.0098-11.6602 20.0098-7.05078C20.0098-2.44141 16.3184 1.25 11.709 1.25ZM7.17773-7.05078C7.17773-6.57227 7.50977-6.25 8.00781-6.25L10.8789-6.25L10.8789-3.36914C10.8789-2.88086 11.2109-2.53906 11.6895-2.53906C12.1777-2.53906 12.5195-2.87109 12.5195-3.36914L12.5195-6.25L15.4004-6.25C15.8887-6.25 16.2305-6.57227 16.2305-7.05078C16.2305-7.53906 15.8887-7.88086 15.4004-7.88086L12.5195-7.88086L12.5195-10.752C12.5195-11.25 12.1777-11.5918 11.6895-11.5918C11.2109-11.5918 10.8789-11.25 10.8789-10.752L10.8789-7.88086L8.00781-7.88086C7.50977-7.88086 7.17773-7.53906 7.17773-7.05078Z"/>
  </g>
  <g transform="matrix(1 0 0 1 305.646 1933)">
   <path d="M14.9707 5.66406C21.9336 5.66406 27.6953-0.0976562 27.6953-7.05078C27.6953-14.0137 21.9238-19.7754 14.9609-19.7754C8.00781-19.7754 2.25586-14.0137 2.25586-7.05078C2.25586-0.0976562 8.01758 5.66406 14.9707 5.66406ZM14.9707 3.84766C8.93555 3.84766 4.08203-1.01562 4.08203-7.05078C4.08203-13.0957 8.92578-17.9492 14.9609-17.9492C21.0059-17.9492 25.8691-13.0957 25.8691-7.05078C25.8691-1.01562 21.0156 3.84766 14.9707 3.84766ZM9.19922-7.05078C9.19922-6.5332 9.57031-6.17188 10.1172-6.17188L14.0625-6.17188L14.0625-2.2168C14.0625-1.67969 14.4336-1.29883 14.9512-1.29883C15.4883-1.29883 15.8594-1.66992 15.8594-2.2168L15.8594-6.17188L19.8145-6.17188C20.3516-6.17188 20.7324-6.5332 20.7324-7.05078C20.7324-7.59766 20.3613-7.96875 19.8145-7.96875L15.8594-7.96875L15.8594-11.9141C15.8594-12.4609 15.4883-12.8418 14.9512-12.8418C14.4336-12.8418 14.0625-12.4609 14.0625-11.9141L14.0625-7.96875L10.1172-7.96875C9.57031-7.96875 9.19922-7.59766 9.19922-7.05078Z"/>
  </g>
  <text style="stroke:none;fill:black;font-family:sans-serif;font-size:13;font-weight:bold;" transform="matrix(1 0 0 1 263 1953)">Design Variations</text>
  <text style="stroke:none;fill:black;font-family:sans-serif;font-size:13;" transform="matrix(1 0 0 1 263 1971)">Symbols are supported in up to nine weights and three scales.</text>
  <text style="stroke:none;fill:black;font-family:sans-serif;font-size:13;" transform="matrix(1 0 0 1 263 1989)">For optimal layout with text and other symbols, vertically align</text>
  <text style="stroke:none;fill:black;font-family:sans-serif;font-size:13;" transform="matrix(1 0 0 1 263 2007)">symbols with the adjacent text.</text>
  <line style="fill:none;stroke:#00AEEF;stroke-width:0.5;opacity:1.0;" x1="776" x2="776" y1="1919" y2="1933"/>
  <g transform="matrix(1 0 0 1 776 1933)">
   <path d="M3.31055 0.15625C3.82812 0.15625 4.08203-0.0390625 4.26758-0.585938L5.52734-4.0332L11.2891-4.0332L12.5488-0.585938C12.7344-0.0390625 12.9883 0.15625 13.4961 0.15625C14.0137 0.15625 14.3457-0.15625 14.3457-0.644531C14.3457-0.810547 14.3164-0.966797 14.2383-1.17188L9.6582-13.3691C9.43359-13.9648 9.0332-14.2676 8.4082-14.2676C7.80273-14.2676 7.39258-13.9746 7.17773-13.3789L2.59766-1.16211C2.51953-0.957031 2.49023-0.800781 2.49023-0.634766C2.49023-0.146484 2.80273 0.15625 3.31055 0.15625ZM6.00586-5.51758L8.37891-12.0898L8.42773-12.0898L10.8008-5.51758Z"/>
  </g>
  <line style="fill:none;stroke:#00AEEF;stroke-width:0.5;opacity:1.0;" x1="793.197" x2="793.197" y1="1919" y2="1933"/>
  <text style="stroke:none;fill:black;font-family:sans-serif;font-size:13;font-weight:bold;" transform="matrix(1 0 0 1 776 1953)">Margins</text>
  <text style="stroke:none;fill:black;font-family:sans-serif;font-size:13;" transform="matrix(1 0 0 1 776 1971)">Leading and trailing margins on the left and right side of each symbol</text>
  <text style="stroke:none;fill:black;font-family:sans-serif;font-size:13;" transform="matrix(1 0 0 1 776 1989)">can be adjusted by modifying the x-location of the margin guidelines.</text>
  <text style="stroke:none;fill:black;font-family:sans-serif;font-size:13;" transform="matrix(1 0 0 1 776 2007)">Modifications are automatically applied proportionally to all</text>
  <text style="stroke:none;fill:black;font-family:sans-serif;font-size:13;" transform="matrix(1 0 0 1 776 2025)">scales and weights.</text>
  <g transform="matrix(1 0 0 1 1289 1933)">
   <path d="M2.8418 1.86523L4.54102 3.57422C5.40039 4.44336 6.38672 4.38477 7.31445 3.35938L18.0078-8.42773L17.041-9.4043L6.42578 2.27539C6.07422 2.67578 5.74219 2.77344 5.27344 2.30469L4.10156 1.14258C3.63281 0.683594 3.74023 0.341797 4.14062-0.0195312L15.6152-10.8203L14.6387-11.7871L3.04688-0.898438C2.06055 0.0195312 1.98242 0.996094 2.8418 1.86523ZM9.25781-16.3281C8.83789-15.918 8.80859-15.3418 9.04297-14.9512C9.27734-14.5898 9.73633-14.3555 10.3809-14.5215C11.8457-14.8633 13.3691-14.9219 14.7949-13.9844L14.209-12.5293C13.8672-11.6992 14.043-11.1133 14.5801-10.5664L16.875-8.25195C17.3633-7.76367 17.7734-7.74414 18.3398-7.8418L19.4043-8.03711L20.0684-7.36328L20.0293-6.80664C19.9902-6.30859 20.1172-5.92773 20.6055-5.44922L21.3672-4.70703C21.8457-4.22852 22.4609-4.19922 22.9297-4.66797L25.8398-7.58789C26.3086-8.05664 26.2891-8.65234 25.8105-9.13086L25.0391-9.89258C24.5605-10.3711 24.1895-10.5273 23.7109-10.4883L23.1348-10.4395L22.4902-11.0742L22.7344-12.1973C22.8613-12.7637 22.7051-13.2031 22.1191-13.7891L19.9219-15.9766C16.582-19.2969 12.1484-19.2188 9.25781-16.3281ZM10.752-15.957C13.1836-17.7344 16.4746-17.4316 18.7012-15.2051L21.1328-12.793C21.3672-12.5586 21.4062-12.373 21.3379-12.0312L21.0156-10.5469L22.5195-9.0625L23.5059-9.12109C23.7598-9.13086 23.8379-9.11133 24.0332-8.91602L24.6094-8.33984L22.168-5.89844L21.5918-6.47461C21.3965-6.66992 21.3672-6.74805 21.377-7.01172L21.4453-7.98828L19.9512-9.47266L18.4277-9.21875C18.1055-9.15039 17.959-9.17969 17.7148-9.41406L15.7129-11.416C15.459-11.6504 15.4297-11.8164 15.5859-12.1875L16.4648-14.2773C14.9023-15.7324 12.8711-16.3574 10.8398-15.7617C10.6836-15.7227 10.625-15.8496 10.752-15.957Z"/>
  </g>
  <text style="stroke:none;fill:black;font-family:sans-serif;font-size:13;font-weight:bold;" transform="matrix(1 0 0 1 1289 1953)">Exporting</text>
  <text style="stroke:none;fill:black;font-family:sans-serif;font-size:13;" transform="matrix(1 0 0 1 1289 1971)">Symbols should be outlined when exporting to ensure the</text>
  <text style="stroke:none;fill:black;font-family:sans-serif;font-size:13;" transform="matrix(1 0 0 1 1289 1989)">design is preserved when submitting to Xcode.</text>
  <text id="template-version" style="stroke:none;fill:black;font-family:sans-serif;font-size:13;text-anchor:end;" transform="matrix(1 0 0 1 3036 1933)">Template v.3.0</text>
  <text style="stroke:none;fill:black;font-family:sans-serif;font-size:13;text-anchor:end;" transform="matrix(1 0 0 1 3036 1951)">Requires Xcode 13 or greater</text>
  <text id="descriptive-name" style="stroke:none;fill:black;font-family:sans-serif;font-size:13;text-anchor:end;" transform="matrix(1 0 0 1 3036 1969)">Generated from Custom iOS 15.platter.filled.top.and.arrow.up.iphone.cr</text>
  <text style="stroke:none;fill:black;font-family:sans-serif;font-size:13;text-anchor:end;" transform="matrix(1 0 0 1 3036 1987)">Typeset at 100 points</text>
  <text style="stroke:none;fill:black;font-family:sans-serif;font-size:13;" transform="matrix(1 0 0 1 263 726)">Small</text>
  <text style="stroke:none;fill:black;font-family:sans-serif;font-size:13;" transform="matrix(1 0 0 1 263 1156)">Medium</text>
  <text style="stroke:none;fill:black;font-family:sans-serif;font-size:13;" transform="matrix(1 0 0 1 263 1586)">Large</text>
 </g>
 <g id="Guides">
  <g id="H-reference" style="fill:#27AAE1;stroke:none;" transform="matrix(1 0 0 1 339 696)">
   <path d="M0.993654 0L3.63775 0L29.3281-67.1323L30.0303-67.1323L30.0303-70.459L28.1226-70.459ZM11.6885-24.4799L46.9815-24.4799L46.2315-26.7285L12.4385-26.7285ZM55.1196 0L57.7637 0L30.6382-70.459L29.4326-70.459L29.4326-67.1323Z"/>
  </g>
  <line id="Baseline-S" style="fill:none;stroke:#27AAE1;opacity:1;stroke-width:0.5;" x1="263" x2="3036" y1="696" y2="696"/>
  <line id="Capline-S" style="fill:none;stroke:#27AAE1;opacity:1;stroke-width:0.5;" x1="263" x2="3036" y1="625.541" y2="625.541"/>
  <g id="H-reference" style="fill:#27AAE1;stroke:none;" transform="matrix(1 0 0 1 339 1126)">
   <path d="M0.993654 0L3.63775 0L29.3281-67.1323L30.0303-67.1323L30.0303-70.459L28.1226-70.459ZM11.6885-24.4799L46.9815-24.4799L46.2315-26.7285L12.4385-26.7285ZM55.1196 0L57.7637 0L30.6382-70.459L29.4326-70.459L29.4326-67.1323Z"/>
  </g>
  <line id="Baseline-M" style="fill:none;stroke:#27AAE1;opacity:1;stroke-width:0.5;" x1="263" x2="3036" y1="1126" y2="1126"/>
  <line id="Capline-M" style="fill:none;stroke:#27AAE1;opacity:1;stroke-width:0.5;" x1="263" x2="3036" y1="1055.54" y2="1055.54"/>
  <g id="H-reference" style="fill:#27AAE1;stroke:none;" transform="matrix(1 0 0 1 339 1556)">
   <path d="M0.993654 0L3.63775 0L29.3281-67.1323L30.0303-67.1323L30.0303-70.459L28.1226-70.459ZM11.6885-24.4799L46.9815-24.4799L46.2315-26.7285L12.4385-26.7285ZM55.1196 0L57.7637 0L30.6382-70.459L29.4326-70.459L29.4326-67.1323Z"/>
  </g>
  <line id="Baseline-L" style="fill:none;stroke:#27AAE1;opacity:1;stroke-width:0.5;" x1="263" x2="3036" y1="1556" y2="1556"/>
  <line id="Capline-L" style="fill:none;stroke:#27AAE1;opacity:1;stroke-width:0.5;" x1="263" x2="3036" y1="1485.54" y2="1485.54"/>
  <line id="left-margin-Regular-M" style="fill:none;stroke:#00AEEF;stroke-width:0.5;opacity:1.0;" x1="1399.77" x2="1399.77" y1="1030.79" y2="1150.12"/>
  <line id="right-margin-Regular-M" style="fill:none;stroke:#00AEEF;stroke-width:0.5;opacity:1.0;" x1="1499.92" x2="1499.92" y1="1030.79" y2="1150.12"/>
 </g>
 <g id="Symbols">
  <g id="Black-L" transform="matrix(1 0 0 1 2864.13 1556)">
   <path d="M49.9905-34.3759C49.9905-31.6188 52.0518-29.7184 54.9036-29.7184C56.4092-29.6975 57.8683-30.4089 58.8209-31.5951L62.4241-35.7604L63.9548-38.0277L63.6367-32.7269L63.6367-17.5664C63.6367-14.5369 66.0484-12.3004 69.2728-12.3004C72.4971-12.3004 74.888-14.5369 74.888-17.5664L74.888-32.7269L74.5687-38.0277L76.0994-35.7604L79.7234-31.5951C80.6772-30.4089 82.1155-29.6975 83.6419-29.7184C86.4937-29.7184 88.533-31.6188 88.533-34.3759C88.533-35.8022 88.1165-37.0121 87.1275-38.0595L73.7745-52.7738C72.6295-54.0369 70.9303-54.7483 69.2728-54.7483C67.5944-54.7483 65.9744-54.0953 64.749-52.7738L51.4168-38.0595C50.407-37.0121 49.9905-35.8022 49.9905-34.3759ZM52.8511-60.7875L85.6736-60.7875C88.9756-60.7875 91.2262-63.0381 91.2262-66.4986L91.2262-76.0836C91.2262-79.544 88.9756-81.7946 85.6736-81.7946L52.8511-81.7946C49.5491-81.7946 47.2985-79.544 47.2985-76.0836L47.2985-66.4986C47.2985-63.0381 49.5491-60.7875 52.8511-60.7875ZM18.6914 20.4185C18.6914 32.8008 27.3547 41.1276 40.2332 41.1276L99.5178 41.1276C111.695 41.1276 119.854 32.8008 119.854 20.3601L119.854-91.1528C119.854-103.593 111.695-111.92 99.5178-111.92L40.2332-111.92C27.3547-111.92 18.6914-103.593 18.6914-91.2112ZM38.6725 13.415L38.6725-84.2076C38.6725-88.1625 41.1695-90.4206 45.07-90.4206L93.5131-90.4206C97.376-90.4206 99.8518-88.0457 99.8518-84.1492L99.8518 13.3565C99.8518 17.253 97.376 19.6292 93.5131 19.6292L45.07 19.6292C41.1695 19.6292 38.6725 17.3698 38.6725 13.415Z"/>
  </g>
  <g id="Heavy-L" transform="matrix(1 0 0 1 2569.94 1556)">
   <path d="M47.9307-36.2976C47.9307-33.7397 49.8288-32.0025 52.4402-32.0025C53.8089-31.9723 55.0949-32.6109 55.9747-33.6692L59.9922-38.0972L61.9778-40.8265L61.6729-34.9845L61.6729-18.9962C61.6729-16.2397 63.8387-14.2078 66.7536-14.2078C69.6685-14.2078 71.8041-16.2397 71.8041-18.9962L71.8041-34.9845L71.4936-40.8265L73.4792-38.0972L77.5269-33.6692C78.4123-32.6109 79.6681-31.9723 81.067-32.0025C83.6784-32.0025 85.5407-33.7397 85.5407-36.2976C85.5407-37.5916 85.1655-38.7204 84.2769-39.6537L70.7634-54.1833C69.7364-55.3052 68.2148-55.9437 66.7536-55.9437C65.2622-55.9437 63.8154-55.3498 62.708-54.1833L49.2247-39.6537C48.3059-38.7204 47.9307-37.5916 47.9307-36.2976ZM50.2459-61.8094L83.2311-61.8094C86.5508-61.8094 88.797-64.0556 88.797-67.5249L88.797-76.5854C88.797-80.0547 86.5508-82.3008 83.2311-82.3008L50.2459-82.3008C46.9262-82.3008 44.6801-80.0547 44.6801-76.5854L44.6801-67.5249C44.6801-64.0556 46.9262-61.8094 50.2459-61.8094ZM18.6914 19.0602C18.6914 30.8404 26.882 38.7072 39.1413 38.7072L95.2728 38.7072C106.991 38.7072 114.816 30.8404 114.816 19.0155L114.816-89.758C114.816-101.583 106.991-109.45 95.2728-109.45L39.1413-109.45C26.882-109.45 18.6914-101.583 18.6914-89.8026ZM36.1918 13.3524L36.1918-84.0949C36.1918-88.3858 38.8251-90.7891 43.1173-90.7891L90.4043-90.7891C94.6821-90.7891 97.2856-88.2966 97.2856-84.0503L97.2856 13.3078C97.2856 17.5541 94.6821 20.0522 90.4043 20.0522L43.1173 20.0522C38.8251 20.0522 36.1918 17.6434 36.1918 13.3524Z"/>
  </g>
  <g id="Bold-L" transform="matrix(1 0 0 1 2276.3 1556)">
   <path d="M45.4393-38.5678C45.4393-36.2781 47.1225-34.7557 49.4194-34.7557C50.6191-34.7177 51.6899-35.2641 52.4776-36.1686L57.0844-41.0163L59.5788-44.2249L59.2968-37.9678L59.2968-20.6518C59.2968-18.2409 61.1553-16.47 63.6786-16.47C66.2019-16.47 68.0224-18.2409 68.0224-20.6518L68.0224-37.9678L67.7272-44.2249L70.2215-41.0163L74.8664-36.1686C75.6673-35.2641 76.7001-34.7177 77.9378-34.7557C80.2346-34.7557 81.8667-36.2781 81.8667-38.5678C81.8667-39.7003 81.5378-40.7143 80.7722-41.5092L67.0739-55.8456C66.2003-56.7908 64.9014-57.3372 63.6786-57.3372C62.4177-57.3372 61.1861-56.82 60.2321-55.8456L46.5718-41.5092C45.7681-40.7143 45.4393-39.7003 45.4393-38.5678ZM47.0559-63.0623L80.2633-63.0623C83.6134-63.0623 85.852-65.3009 85.852-68.7854L85.852-77.2003C85.852-80.6849 83.6134-82.9234 80.2633-82.9234L47.0559-82.9234C43.7057-82.9234 41.4672-80.6849 41.4672-77.2003L41.4672-68.7854C41.4672-65.3009 43.7057-63.0623 47.0559-63.0623ZM18.6914 17.3774C18.6914 28.4868 26.2756 35.7775 37.8261 35.7775L90.1063 35.7775C101.294 35.7775 108.666 28.4868 108.666 17.3482L108.666-88.0292C108.666-99.1678 101.294-106.458 90.1063-106.458L37.8261-106.458C26.2756-106.458 18.6914-99.1678 18.6914-88.0584ZM33.1332 13.1862L33.1332-83.8671C33.1332-88.6624 35.9429-91.2574 40.7938-91.2574L86.5546-91.2574C91.4142-91.2574 94.186-88.604 94.186-83.8379L94.186 13.157C94.186 17.9231 91.4142 20.5897 86.5546 20.5897L40.7938 20.5897C35.9429 20.5897 33.1332 17.9815 33.1332 13.1862Z"/>
  </g>
  <g id="Semibold-L" transform="matrix(1 0 0 1 1981.71 1556)">
   <path d="M43.7217-40.1329C43.7217-38.0281 45.2569-36.6538 47.3369-36.6538C48.4201-36.6104 49.3426-37.0933 50.0667-37.8917L55.0798-43.0287L57.925-46.5677L57.6587-40.0244L57.6587-21.7932C57.6587-19.6205 59.3054-18.0296 61.5587-18.0296C63.812-18.0296 65.4153-19.6205 65.4153-21.7932L65.4153-40.0244L65.1306-46.5677L67.9757-43.0287L73.0322-37.8917C73.7748-37.0933 74.654-36.6104 75.7805-36.6538C77.8605-36.6538 79.3339-38.0281 79.3339-40.1329C79.3339-41.1541 79.0369-42.0889 78.356-42.7884L64.5303-56.9916C63.7625-57.815 62.6172-58.2979 61.5587-58.2979C60.4568-58.2979 59.3734-57.8336 58.5252-56.9916L44.7429-42.7884C44.0186-42.0889 43.7217-41.1541 43.7217-40.1329ZM44.8567-63.9261L78.2173-63.9261C81.5885-63.9261 83.8218-66.1593 83.8218-69.6544L83.8218-77.6243C83.8218-81.1193 81.5885-83.3526 78.2173-83.3526L44.8567-83.3526C41.4856-83.3526 39.2523-81.1193 39.2523-77.6243L39.2523-69.6544C39.2523-66.1593 41.4856-63.9261 44.8567-63.9261ZM18.6914 16.2173C18.6914 26.8642 25.8576 33.7578 36.9195 33.7578L86.5446 33.7578C97.3651 33.7578 104.426 26.8642 104.426 16.1987L104.426-86.8373C104.426-97.5028 97.3651-104.396 86.5446-104.396L36.9195-104.396C25.8576-104.396 18.6914-97.5028 18.6914-86.8559ZM31.0246 13.0715L31.0246-83.7101C31.0246-88.8532 33.956-91.5803 39.192-91.5803L83.9006-91.5803C89.1614-91.5803 92.0495-88.816 92.0495-83.6915L92.0495 13.053C92.0495 18.1774 89.1614 20.9602 83.9006 20.9602L39.192 20.9602C33.956 20.9602 31.0246 18.2146 31.0246 13.0715Z"/>
  </g>
  <g id="Medium-L" transform="matrix(1 0 0 1 1686.61 1556)">
   <path d="M42.4193-41.3196C42.4193-39.3551 43.8423-38.093 45.7579-38.093C46.7527-38.0455 47.5627-38.4802 48.2387-39.1983L53.5599-44.5547L56.671-48.3442L56.4167-41.5839L56.4167-22.6587C56.4167-20.6666 57.9027-19.2121 59.9513-19.2121C61.9999-19.2121 63.4385-20.6666 63.4385-22.6587L63.4385-41.5839L63.1618-48.3442L66.2729-44.5547L71.6415-39.1983C72.3399-38.4802 73.1025-38.0455 74.1448-38.093C76.0604-38.093 77.4134-39.3551 77.4134-41.3196C77.4134-42.2564 77.1406-43.1312 76.524-43.7583L62.6017-57.8606C61.9141-58.5916 60.8853-59.0263 59.9513-59.0263C58.9699-59.0263 57.999-58.6021 57.231-57.8606L43.3561-43.7583C42.6921-43.1312 42.4193-42.2564 42.4193-41.3196ZM43.1892-64.581L76.666-64.581C80.0531-64.581 82.2824-66.8103 82.2824-70.3133L82.2824-77.9457C82.2824-81.4487 80.0531-83.678 76.666-83.678L43.1892-83.678C39.8021-83.678 37.5728-81.4487 37.5728-77.9457L37.5728-70.3133C37.5728-66.8103 39.8021-64.581 43.1892-64.581ZM18.6914 15.3377C18.6914 25.6339 25.5406 32.2263 36.2321 32.2263L83.8439 32.2263C94.3867 32.2263 101.211 25.6339 101.211 15.3271L101.211-85.9336C101.211-96.2404 94.3867-102.833 83.8439-102.833L36.2321-102.833C25.5406-102.833 18.6914-96.2404 18.6914-85.9441ZM29.4257 12.9846L29.4257-83.591C29.4257-88.9977 32.4494-91.8251 37.9774-91.8251L81.8883-91.8251C87.4532-91.8251 90.4295-88.9767 90.4295-83.5805L90.4295 12.9741C90.4295 18.3703 87.4532 21.2411 81.8883 21.2411L37.9774 21.2411C32.4494 21.2411 29.4257 18.3913 29.4257 12.9846Z"/>
  </g>
  <g id="Regular-L" transform="matrix(1 0 0 1 1391.99 1556)">
   <path d="M40.7205-42.8674C40.7205-41.0858 41.9971-39.9702 43.6982-39.9702C44.5778-39.9174 45.2411-40.2893 45.8543-40.9024L51.5772-46.545L55.0353-50.6613L54.7966-43.6179L54.7966-23.7875C54.7966-22.031 56.0731-20.7545 57.8547-20.7545C59.6363-20.7545 60.86-22.031 60.86-23.7875L60.86-43.6179L60.5937-50.6613L64.0517-46.545L69.8275-40.9024C70.4683-40.2893 71.0789-39.9174 72.0112-39.9702C73.7123-39.9702 74.9084-41.0858 74.9084-42.8674C74.9084-43.6942 74.6672-44.4907 74.1344-45.0235L60.0861-58.994C59.5031-59.6046 58.6261-59.9765 57.8547-59.9765C57.0305-59.9765 56.2063-59.6046 55.5429-58.994L41.5473-45.0235C40.9618-44.4907 40.7205-43.6942 40.7205-42.8674ZM41.0142-65.4352L74.6425-65.4352C78.0503-65.4352 80.2744-67.6593 80.2744-71.1727L80.2744-78.365C80.2744-81.8783 78.0503-84.1024 74.6425-84.1024L41.0142-84.1024C37.6063-84.1024 35.3822-81.8783 35.3822-78.365L35.3822-71.1727C35.3822-67.6593 37.6063-65.4352 41.0142-65.4352ZM18.6914 14.1903C18.6914 24.0292 25.1271 30.2288 35.3354 30.2288L80.3213 30.2288C90.5018 30.2288 97.0184 24.0292 97.0184 14.1903L97.0184-84.7548C97.0184-94.5937 90.5018-100.793 80.3213-100.793L35.3354-100.793C25.1271-100.793 18.6914-94.5937 18.6914-84.7548ZM27.3402 12.8712L27.3402-83.4357C27.3402-89.1864 30.4843-92.1444 36.3932-92.1444L79.2635-92.1444C85.2251-92.1444 88.3164-89.1864 88.3164-83.4357L88.3164 12.8712C88.3164 18.6218 85.2251 21.6076 79.2635 21.6076L36.3932 21.6076C30.4843 21.6076 27.3402 18.6218 27.3402 12.8712Z"/>
  </g>
  <g id="Light-L" transform="matrix(1 0 0 1 1097.11 1556)">
   <path d="M39.3846-43.7263C39.3846-42.2691 40.4321-41.3825 41.8088-41.3825C42.5738-41.3488 43.0845-41.6443 43.6213-42.1811L50.2413-48.7207L53.6993-52.5698L53.5179-46.8815L53.5179-24.1883C53.5179-22.7181 54.5654-21.6706 56.0225-21.6706C57.4797-21.6706 58.4935-22.7181 58.4935-24.1883L58.4935-46.8815L58.2653-52.5698L61.7233-48.7207L68.377-42.1811C68.9605-41.6443 69.4375-41.3488 70.2362-41.3825C71.6129-41.3825 72.58-42.2691 72.58-43.7263C72.58-44.4576 72.3388-45.0824 71.8824-45.5388L57.7958-59.6047C57.3656-60.0817 56.6604-60.3773 56.0225-60.3773C55.351-60.3773 54.6795-60.0817 54.1688-59.6047L40.1159-45.5388C39.6258-45.0824 39.3846-44.4576 39.3846-43.7263ZM39.0484-66.2177L72.9629-66.2177C76.4471-66.2177 78.6521-68.4227 78.6521-71.9743L78.6521-78.7467C78.6521-82.2982 76.4471-84.5032 72.9629-84.5032L39.0484-84.5032C35.5642-84.5032 33.3592-82.2982 33.3592-78.7467L33.3592-71.9743C33.3592-68.4227 35.5642-66.2177 39.0484-66.2177ZM18.6914 13.0261C18.6914 22.8841 24.5737 28.6447 34.6674 28.6447L77.344 28.6447C87.3909 28.6447 93.3536 22.8841 93.3536 13.0261L93.3536-83.5524C93.3536-93.4104 87.3909-99.1711 77.344-99.1711L34.6674-99.1711C24.5737-99.1711 18.6914-93.4104 18.6914-83.5524ZM25.3172 12.1842L25.3172-82.7105C25.3172-89.3772 28.633-92.5452 35.4007-92.5452L76.6106-92.5452C83.412-92.5452 86.6941-89.3772 86.6941-82.7105L86.6941 12.1842C86.6941 18.8509 83.412 22.0656 76.6106 22.0656L35.4007 22.0656C28.633 22.0656 25.3172 18.8509 25.3172 12.1842Z"/>
  </g>
  <g id="Thin-L" transform="matrix(1 0 0 1 802.825 1556)">
   <path d="M37.6176-44.8621C37.6176-43.8341 38.3622-43.2504 39.3099-43.2504C39.9234-43.2419 40.2322-43.4365 40.668-43.8724L48.4743-51.5983L51.9324-55.094L51.8267-51.1978L51.8267-24.7184C51.8267-23.6268 52.5713-22.8822 53.5993-22.8822C54.6273-22.8822 55.3635-23.6268 55.3635-24.7184L55.3635-51.1978L55.1858-55.094L58.6438-51.5983L66.4586-43.8724C66.9664-43.4365 67.2667-43.2419 67.8887-43.2504C68.8363-43.2504 69.5005-43.8341 69.5005-44.8621C69.5005-45.4673 69.2593-45.8649 68.9038-46.2203L54.7668-60.4124C54.5385-60.7128 54.0604-60.9073 53.5993-60.9073C53.1297-60.9073 52.6601-60.7128 52.3514-60.4124L38.2228-46.2203C37.8589-45.8649 37.6176-45.4673 37.6176-44.8621ZM36.4485-67.2526L70.7417-67.2526C74.3268-67.2526 76.5066-69.4324 76.5066-73.0344L76.5066-79.2515C76.5066-82.8535 74.3268-85.0333 70.7417-85.0333L36.4485-85.0333C32.8633-85.0333 30.6836-82.8535 30.6836-79.2515L30.6836-73.0344C30.6836-69.4324 32.8633-67.2526 36.4485-67.2526ZM18.6914 11.4864C18.6914 21.3696 23.8416 26.5496 33.7839 26.5496L73.4062 26.5496C83.2765 26.5496 88.5072 21.3696 88.5072 11.4864L88.5072-81.9622C88.5072-91.8454 83.2765-97.0255 73.4062-97.0255L33.7839-97.0255C23.8416-97.0255 18.6914-91.8454 18.6914-81.9622ZM22.6416 11.2755L22.6416-81.7513C22.6416-89.6296 26.1845-93.0753 34.0882-93.0753L73.102-93.0753C81.0141-93.0753 84.5486-89.6296 84.5486-81.7513L84.5486 11.2755C84.5486 19.1538 81.0141 22.6714 73.102 22.6714L34.0882 22.6714C26.1845 22.6714 22.6416 19.1538 22.6416 11.2755Z"/>
  </g>
  <g id="Ultralight-L" transform="matrix(1 0 0 1 507.355 1556)">
   <path d="M36.7126-45.4439C36.7126-44.6357 37.3021-44.2071 38.0299-44.2071C38.5659-44.2116 38.7712-44.3544 39.1553-44.7386L47.5693-53.0721L51.0274-56.3869L50.9604-53.4086L50.9604-24.9899C50.9604-24.0922 51.5499-23.5028 52.3581-23.5028C53.1664-23.5028 53.7603-24.0922 53.7603-24.9899L53.7603-53.4086L53.6085-56.3869L57.0665-53.0721L65.476-44.7386C65.9451-44.3544 66.1549-44.2116 66.6864-44.2071C67.4142-44.2071 67.9232-44.6357 67.9232-45.4439C67.9232-45.9844 67.682-46.2657 67.3782-46.5694L53.2154-60.8262C53.0905-61.036 52.7288-61.1788 52.3581-61.1788C51.992-61.1788 51.6258-61.036 51.4205-60.8262L37.2531-46.5694C36.9539-46.2657 36.7126-45.9844 36.7126-45.4439ZM35.1168-67.7827L69.6039-67.7827C73.2408-67.7827 75.4077-69.9496 75.4077-73.5774L75.4077-79.5101C75.4077-83.138 73.2408-85.3048 69.6039-85.3048L35.1168-85.3048C31.48-85.3048 29.3131-83.138 29.3131-79.5101L29.3131-73.5774C29.3131-69.9496 31.48-67.7827 35.1168-67.7827ZM18.6914 10.6977C18.6914 20.5938 23.4667 25.4766 33.3314 25.4766L71.3894 25.4766C81.1691 25.4766 86.0249 20.5938 86.0249 10.6977L86.0249-81.1477C86.0249-91.0438 81.1691-95.9266 71.3894-95.9266L33.3314-95.9266C23.4667-95.9266 18.6914-91.0438 18.6914-81.1477ZM21.2711 10.81L21.2711-81.26C21.2711-89.7589 24.9304-93.3468 33.4159-93.3468L71.3049-93.3468C79.7858-93.3468 83.4496-89.7589 83.4496-81.26L83.4496 10.81C83.4496 19.3089 79.7858 22.9817 71.3049 22.9817L33.4159 22.9817C24.9304 22.9817 21.2711 19.3089 21.2711 10.81Z"/>
  </g>
  <g id="Black-M" transform="matrix(1 0 0 1 2873.61 1126)">
   <path d="M44.5292-33.0329C44.5292-30.7697 46.2355-29.1881 48.6077-29.1881C49.8761-29.1826 51.1347-29.7859 51.925-30.8046L54.482-33.9273L55.2769-35.2507L55.0268-31.7924L55.0268-20.3707C55.0268-17.8277 57.0757-15.9502 59.7956-15.9502C62.5156-15.9502 64.559-17.8277 64.559-20.3707L64.559-31.7924L64.3092-35.2507L65.1041-33.9273L67.6666-30.8046C68.4566-29.7859 69.7097-29.1826 70.9836-29.1881C73.3558-29.1881 75.0568-30.7697 75.0568-33.0329C75.0568-34.2388 74.6986-35.2226 73.8565-36.1218L63.6441-47.6933C62.6762-48.7751 61.2304-49.3784 59.7956-49.3784C58.3554-49.3784 56.9722-48.8321 55.942-47.6933L45.7351-36.1218C44.8874-35.2226 44.5292-34.2388 44.5292-33.0329ZM47.1289-54.2582L72.4569-54.2582C75.0102-54.2582 76.755-56.003 76.755-58.6815L76.755-66.5013C76.755-69.1798 75.0102-70.9246 72.4569-70.9246L47.1289-70.9246C44.5756-70.9246 42.8308-69.1798 42.8308-66.5013L42.8308-58.6815C42.8308-56.003 44.5756-54.2582 47.1289-54.2582ZM18.6914 8.89302C18.6914 19.0061 25.7344 25.7931 36.2286 25.7931L84.5562 25.7931C94.3655 25.7931 100.9 19.0061 100.9 8.83592L100.9-79.5914C100.9-89.7616 94.3655-96.5485 84.5562-96.5485L36.2286-96.5485C25.7344-96.5485 18.6914-89.7616 18.6914-79.6485ZM36.0293 2.41804L36.0293-73.1735C36.0293-76.0728 37.8701-77.7261 40.6717-77.7261L78.9712-77.7261C81.7212-77.7261 83.5565-75.9586 83.5565-73.1164L83.5565 2.36094C83.5565 5.20315 81.7212 6.97032 78.9712 6.97032L40.6717 6.97032C37.8701 6.97032 36.0293 5.31734 36.0293 2.41804Z"/>
  </g>
  <g id="Heavy-M" transform="matrix(1 0 0 1 2579.19 1126)">
   <path d="M42.639-34.8323C42.639-32.7339 44.2068-31.2907 46.3738-31.2907C47.5191-31.2743 48.6225-31.8135 49.3486-32.7141L52.2279-36.011L53.4675-37.8106L53.2251-33.6984L53.2251-21.7314C53.2251-19.429 55.0546-17.7303 57.5021-17.7303C59.9495-17.7303 61.7626-19.429 61.7626-21.7314L61.7626-33.6984L61.5179-37.8106L62.7575-36.011L65.6532-32.7141C66.3816-31.8135 67.4686-31.2743 68.6303-31.2907C70.7973-31.2907 72.3464-32.7339 72.3464-34.8323C72.3464-35.9176 72.0287-36.838 71.2776-37.6326L60.9119-49.0147C60.0453-49.9709 58.7573-50.5101 57.5021-50.5101C56.2305-50.5101 55.0025-50.0145 54.0736-49.0147L43.7243-37.6326C42.9568-36.838 42.639-35.9176 42.639-34.8323ZM44.7636-55.1849L70.2242-55.1849C72.7877-55.1849 74.53-56.9272 74.53-59.6109L74.53-66.9567C74.53-69.6403 72.7877-71.3826 70.2242-71.3826L44.7636-71.3826C42.2-71.3826 40.4577-69.6403 40.4577-66.9567L40.4577-59.6109C40.4577-56.9272 42.2-55.1849 44.7636-55.1849ZM18.6914 7.67254C18.6914 17.1953 25.3234 23.5731 35.2228 23.5731L80.6809 23.5731C90.0546 23.5731 96.3127 17.1953 96.3127 7.62892L96.3127-78.3388C96.3127-87.9053 90.0546-94.283 80.6809-94.283L35.2228-94.283C25.3234-94.283 18.6914-87.9053 18.6914-78.3825ZM33.791 2.42031L33.791-73.1302C33.791-76.2735 35.7491-78.0492 38.8544-78.0492L76.1769-78.0492C79.255-78.0492 81.1967-76.1863 81.1967-73.0866L81.1967 2.37669C81.1967 5.47637 79.255 7.34161 76.1769 7.34161L38.8544 7.34161C35.7491 7.34161 33.791 5.56362 33.791 2.42031Z"/>
  </g>
  <g id="Bold-M" transform="matrix(1 0 0 1 2285.04 1126)">
   <path d="M40.5244-36.8452C40.5244-34.931 41.9373-33.6428 43.8748-33.6428C44.8824-33.6142 45.8121-34.0816 46.4665-34.8502L49.7064-38.3418L51.4434-40.6741L51.2096-35.8305L51.2096-23.2536C51.2096-21.2201 52.7937-19.7216 54.9363-19.7216C57.0789-19.7216 58.6344-21.2201 58.6344-23.2536L58.6344-35.8305L58.3955-40.6741L60.1325-38.3418L63.4009-34.8502C64.0605-34.0816 64.9616-33.6142 65.9978-33.6428C67.9353-33.6428 69.3144-34.931 69.3144-36.8452C69.3144-37.7956 69.0418-38.645 68.3927-39.3227L57.8554-50.493C57.1021-51.3085 55.9906-51.776 54.9363-51.776C53.8534-51.776 52.799-51.3371 51.9834-50.493L41.4748-39.3227C40.797-38.645 40.5244-37.7956 40.5244-36.8452ZM42.1175-56.2217L67.7265-56.2217C70.3015-56.2217 72.0409-57.9611 72.0409-60.6505L72.0409-67.4661C72.0409-70.1554 70.3015-71.8948 67.7265-71.8948L42.1175-71.8948C39.5425-71.8948 37.8031-70.1554 37.8031-67.4661L37.8031-60.6505C37.8031-57.9611 39.5425-56.2217 42.1175-56.2217ZM18.6914 6.30727C18.6914 15.1697 24.8636 21.0898 34.0977 21.0898L76.3458 21.0898C85.2321 21.0898 91.1812 15.1697 91.1812 6.27872L91.1812-76.9377C91.1812-85.8287 85.2321-91.7487 76.3458-91.7487L34.0977-91.7487C24.8636-91.7487 18.6914-85.8287 18.6914-76.9662ZM31.2871 2.42286L31.2871-73.0818C31.2871-76.4981 33.3764-78.4108 36.8215-78.4108L73.051-78.4108C76.4961-78.4108 78.5569-76.441 78.5569-73.0533L78.5569 2.39431C78.5569 5.78202 76.4961 7.75694 73.051 7.75694L36.8215 7.75694C33.3764 7.75694 31.2871 5.83911 31.2871 2.42286Z"/>
  </g>
  <g id="Semibold-M" transform="matrix(1 0 0 1 1990.1 1126)">
   <path d="M39.0667-38.2329C39.0667-36.4458 40.3727-35.2643 42.152-35.2643C43.0646-35.2272 43.8747-35.6453 44.4796-36.3228L47.968-39.9486L50.048-42.6483L49.8201-37.3004L49.8201-24.303C49.8201-22.455 51.2351-21.0944 53.1675-21.0944C55.0999-21.0944 56.4778-22.455 56.4778-24.303L56.4778-37.3004L56.2428-42.6483L58.3228-39.9486L61.8482-36.3228C62.4602-35.6453 63.2333-35.2272 64.1829-35.2643C65.9622-35.2643 67.2241-36.4458 67.2241-38.2329C67.2241-39.0903 66.9827-39.8908 66.4038-40.4879L55.7483-51.5122C55.0731-52.2307 54.0833-52.6487 53.1675-52.6487C52.2146-52.6487 51.2799-52.2489 50.5425-51.5122L39.924-40.4879C39.308-39.8908 39.0667-39.0903 39.0667-38.2329ZM40.2933-56.9364L66.0046-56.9364C68.5875-56.9364 70.3249-58.6738 70.3249-61.3672L70.3249-67.8172C70.3249-70.5106 68.5875-72.248 66.0046-72.248L40.2933-72.248C37.7104-72.248 35.9729-70.5106 35.9729-67.8172L35.9729-61.3672C35.9729-58.6738 37.7104-56.9364 40.2933-56.9364ZM18.6914 5.36606C18.6914 13.7732 24.5466 19.3778 33.322 19.3778L73.3571 19.3778C81.9075 19.3778 87.6436 13.7732 87.6436 5.3479L87.6436-75.9718C87.6436-84.3971 81.9075-90.0016 73.3571-90.0016L33.322-90.0016C24.5466-90.0016 18.6914-84.3971 18.6914-75.9899ZM29.5609 2.42461L29.5609-73.0485C29.5609-76.6529 31.7407-78.66 35.42-78.66L70.8961-78.66C74.5942-78.66 76.737-76.6166 76.737-73.0303L76.737 2.40646C76.737 5.99273 74.5942 8.04327 70.8961 8.04327L35.42 8.04327C31.7407 8.04327 29.5609 6.02904 29.5609 2.42461Z"/>
  </g>
  <g id="Medium-M" transform="matrix(1 0 0 1 1694.73 1126)">
   <path d="M37.9614-39.2851C37.9614-37.5943 39.1865-36.4938 40.8458-36.4938C41.6864-36.4504 42.4057-36.8309 42.9732-37.4394L46.65-41.167L48.99-44.1451L48.7665-38.4149L48.7665-25.0987C48.7665-23.3913 50.0533-22.1354 51.8263-22.1354C53.5994-22.1354 54.8427-23.3913 54.8427-25.0987L54.8427-38.4149L54.6107-44.1451L56.9506-41.167L60.6709-37.4394C61.247-36.8309 61.9229-36.4504 62.8069-36.4938C64.4662-36.4938 65.6393-37.5943 65.6393-39.2851C65.6393-40.072 65.4215-40.8353 64.8958-41.3713L54.1507-52.2849C53.5348-52.9299 52.6371-53.3105 51.8263-53.3105C50.9721-53.3105 50.1282-52.9402 49.45-52.2849L38.7483-41.3713C38.1791-40.8353 37.9614-40.072 37.9614-39.2851ZM38.9102-57.4784L64.6991-57.4784C67.288-57.4784 69.0239-59.2143 69.0239-61.9106L69.0239-68.0835C69.0239-70.7798 67.288-72.5158 64.6991-72.5158L38.9102-72.5158C36.3213-72.5158 34.5854-70.7798 34.5854-68.0835L34.5854-61.9106C34.5854-59.2143 36.3213-57.4784 38.9102-57.4784ZM18.6914 4.65239C18.6914 12.7144 24.3064 18.0797 32.734 18.0797L71.0911 18.0797C79.3868 18.0797 84.9613 12.7144 84.9613 4.64211L84.9613-75.2393C84.9613-83.3116 79.3868-88.6769 71.0911-88.6769L32.734-88.6769C24.3064-88.6769 18.6914-83.3116 18.6914-75.2496ZM28.2521 2.42595L28.2521-73.0232C28.2521-76.7703 30.5005-78.849 34.3574-78.849L69.2622-78.849C73.1521-78.849 75.3572-76.7497 75.3572-73.0129L75.3572 2.41567C75.3572 6.1525 73.1521 8.26037 69.2622 8.26037L34.3574 8.26037C30.5005 8.26037 28.2521 6.17305 28.2521 2.42595Z"/>
  </g>
  <g id="Regular-M" transform="matrix(1 0 0 1 1399.77 1126)">
   <path d="M36.5196-40.6575C36.5196-39.0923 37.6391-38.0975 39.142-38.0975C39.8886-38.0457 40.4896-38.3773 41.0081-38.8959L44.9308-42.7562L47.6099-46.0976L47.3923-39.8686L47.3923-26.1365C47.3923-24.6126 48.5118-23.4931 50.0769-23.4931C51.6421-23.4931 52.7098-24.6126 52.7098-26.1365L52.7098-39.8686L52.4817-46.0976L55.1608-42.7562L59.1352-38.8959C59.6643-38.3773 60.2135-38.0457 61.0119-38.0975C62.5148-38.0975 63.572-39.0923 63.572-40.6575C63.572-41.3524 63.385-42.0674 62.9288-42.5236L52.0667-53.2928C51.528-53.842 50.7507-54.1736 50.0769-54.1736C49.3514-54.1736 48.6258-53.842 48.0249-53.2928L37.2145-42.5236C36.7065-42.0674 36.5196-41.3524 36.5196-40.6575ZM37.106-58.1852L62.9961-58.1852C65.5928-58.1852 67.3268-59.9192 67.3268-62.6194L67.3268-68.4308C67.3268-71.131 65.5928-72.865 62.9961-72.865L37.106-72.865C34.5093-72.865 32.7753-71.131 32.7753-68.4308L32.7753-62.6194C32.7753-59.9192 34.5093-58.1852 37.106-58.1852ZM18.6914 3.72152C18.6914 11.3332 23.9928 16.3865 31.9668 16.3865L68.1353 16.3865C76.0987 16.3865 81.4625 11.3332 81.4625 3.72152L81.4625-74.284C81.4625-81.8957 76.0987-86.949 68.1353-86.949L31.9668-86.949C23.9928-86.949 18.6914-81.8957 18.6914-74.284ZM26.5449 2.42768L26.5449-72.9902C26.5449-76.9234 28.8828-79.0955 32.9713-79.0955L67.1309-79.0955C71.2711-79.0955 73.5573-76.9234 73.5573-72.9902L73.5573 2.42768C73.5573 6.36089 71.2711 8.54356 67.1309 8.54356L32.9713 8.54356C28.8828 8.54356 26.5449 6.36089 26.5449 2.42768Z"/>
  </g>
  <g id="Light-M" transform="matrix(1 0 0 1 1104.7 1126)">
   <path d="M35.3219-41.4275C35.3219-40.1532 36.236-39.3637 37.448-39.3637C38.092-39.329 38.556-39.5922 39.0061-40.0423L43.733-44.7069L46.4121-47.8087L46.2459-42.7946L46.2459-26.4958C46.2459-25.2285 47.16-24.3144 48.4343-24.3144C49.7086-24.3144 50.5881-25.2285 50.5881-26.4958L50.5881-42.7946L50.3942-47.8087L53.0733-44.7069L57.8348-40.0423C58.3126-39.5922 58.742-39.329 59.4206-39.3637C60.6326-39.3637 61.4844-40.1532 61.4844-41.4275C61.4844-42.0369 61.2975-42.5979 60.9097-42.9856L50.0134-53.8404C49.6116-54.2698 48.9883-54.533 48.4343-54.533C47.8456-54.533 47.257-54.2698 46.7929-53.8404L35.9312-42.9856C35.5088-42.5979 35.3219-42.0369 35.3219-41.4275ZM35.3436-58.8868L61.4904-58.8868C64.1555-58.8868 65.8724-60.6036 65.8724-63.3381L65.8724-68.7731C65.8724-71.5075 64.1555-73.2244 61.4904-73.2244L35.3436-73.2244C32.6784-73.2244 30.9616-71.5075 30.9616-68.7731L30.9616-63.3381C30.9616-60.6036 32.6784-58.8868 35.3436-58.8868ZM18.6914 2.67776C18.6914 10.3066 23.4966 14.9663 31.368 14.9663L65.466 14.9663C73.3097 14.9663 78.1772 10.3066 78.1772 2.67776L78.1772-73.206C78.1772-80.8349 73.3097-85.4945 65.466-85.4945L31.368-85.4945C23.4966-85.4945 18.6914-80.8349 18.6914-73.206ZM24.7311 1.81169L24.7311-72.34C24.7311-77.0945 27.223-79.4548 32.0815-79.4548L64.7524-79.4548C69.6455-79.4548 72.1028-77.0945 72.1028-72.34L72.1028 1.81169C72.1028 6.56622 69.6455 8.95422 64.7524 8.95422L32.0815 8.95422C27.223 8.95422 24.7311 6.56622 24.7311 1.81169Z"/>
  </g>
  <g id="Thin-M" transform="matrix(1 0 0 1 810.162 1126)">
   <path d="M33.7377-42.4459C33.7377-41.5563 34.3803-41.0383 35.2076-41.0383C35.7158-41.0263 35.9988-41.199 36.3583-41.5586L42.1489-47.2868L44.828-50.0717L44.7296-46.6644L44.7296-26.9711C44.7296-26.0432 45.3722-25.4007 46.2618-25.4007C47.1513-25.4007 47.7819-26.0432 47.7819-26.9711L47.7819-46.6644L47.6333-50.0717L50.3124-47.2868L56.1149-41.5586C56.5247-41.199 56.7957-41.0263 57.316-41.0383C58.1432-41.0383 58.7235-41.5563 58.7235-42.4459C58.7235-42.9421 58.5366-43.2994 58.2393-43.5967L47.2977-54.5645C47.077-54.8355 46.6574-55.0082 46.2618-55.0082C45.8541-55.0082 45.4465-54.8355 45.1635-54.5645L34.2339-43.5967C33.9246-43.2994 33.7377-42.9421 33.7377-42.4459ZM33.0126-59.8146L59.4989-59.8146C62.2545-59.8146 63.9488-61.5089 63.9488-64.2886L63.9488-69.2257C63.9488-72.0054 62.2545-73.6996 59.4989-73.6996L33.0126-73.6996C30.257-73.6996 28.5627-72.0054 28.5627-69.2257L28.5627-64.2886C28.5627-61.5089 30.257-59.8146 33.0126-59.8146ZM18.6914 1.29729C18.6914 8.94875 22.8403 13.0879 30.5759 13.0879L61.9356 13.0879C69.6209 13.0879 73.8321 8.94875 73.8321 1.29729L73.8321-71.7803C73.8321-79.4318 69.6209-83.5709 61.9356-83.5709L30.5759-83.5709C22.8403-83.5709 18.6914-79.4318 18.6914-71.7803ZM22.3323 0.996987L22.3323-71.48C22.3323-77.3208 25.0279-79.9301 30.9047-79.9301L61.6068-79.9301C67.4956-79.9301 70.1792-77.3208 70.1792-71.48L70.1792 0.996987C70.1792 6.83779 67.4956 9.49735 61.6068 9.49735L30.9047 9.49735C25.0279 9.49735 22.3323 6.83779 22.3323 0.996987Z"/>
  </g>
  <g id="Ultralight-M" transform="matrix(1 0 0 1 514.564 1126)">
   <path d="M32.9263-42.9675C32.9263-42.275 33.4298-41.8961 34.06-41.8961C34.4987-41.8957 34.689-42.022 35.0022-42.3352L41.3375-48.6082L44.0166-51.2309L43.953-48.6465L43.953-27.2145C43.953-26.4605 44.4565-25.957 45.149-25.957C45.8415-25.957 46.3446-26.4605 46.3446-27.2145L46.3446-48.6465L46.2191-51.2309L48.8982-48.6082L55.2339-42.3352C55.609-42.022 55.7989-41.8957 56.238-41.8961C56.8682-41.8961 57.3093-42.275 57.3093-42.9675C57.3093-43.4057 57.1224-43.6587 56.8715-43.9096L45.9068-54.9355C45.7788-55.1253 45.4635-55.2516 45.149-55.2516C44.8341-55.2516 44.5192-55.1253 44.3289-54.9355L33.3646-43.9096C33.1132-43.6587 32.9263-43.4057 32.9263-42.9675ZM31.8187-60.2899L58.4788-60.2899C61.2809-60.2899 62.9635-61.9725 62.9635-64.7754L62.9635-69.4575C62.9635-72.2604 61.2809-73.943 58.4788-73.943L31.8187-73.943C29.0167-73.943 27.3341-72.2604 27.3341-69.4575L27.3341-64.7754C27.3341-61.9725 29.0167-60.2899 31.8187-60.2899ZM18.6914 0.590222C18.6914 8.25328 22.5042 12.1258 30.1702 12.1258L60.1274 12.1258C67.7315 12.1258 71.6066 8.25328 71.6066 0.590222L71.6066-71.05C71.6066-78.7131 67.7315-82.5857 60.1274-82.5857L30.1702-82.5857C22.5042-82.5857 18.6914-78.7131 18.6914-71.05ZM21.1036 0.579701L21.1036-71.0395C21.1036-77.4367 23.9035-80.1735 30.302-80.1735L59.9956-80.1735C66.3945-80.1735 69.194-77.4367 69.194-71.0395L69.194 0.579701C69.194 6.97688 66.3945 9.77554 59.9956 9.77554L30.302 9.77554C23.9035 9.77554 21.1036 6.97688 21.1036 0.579701Z"/>
  </g>
  <g id="Black-S" transform="matrix(1 0 0 1 2881.9 696)">
   <path d="M39.4434-33.0078C39.4434-31.2012 40.8106-29.9316 42.7149-29.9316C43.7403-29.9316 44.7656-30.4199 45.4004-31.25L47.3535-33.6914L47.8418-34.5703L47.6465-32.1289L47.6465-23.1934C47.6465-21.1426 49.3067-19.6289 51.5039-19.6289C53.7012-19.6289 55.3614-21.1426 55.3614-23.1934L55.3614-32.1289L55.166-34.5703L55.6543-33.6914L57.6074-31.25C58.2422-30.4199 59.2676-29.9316 60.293-29.9316C62.1973-29.9316 63.5645-31.2012 63.5645-33.0078C63.5645-33.9844 63.2715-34.7656 62.5879-35.498L54.6289-44.6289C53.8477-45.5078 52.6758-45.9961 51.5039-45.9961C50.3321-45.9961 49.209-45.5566 48.3789-44.6289L40.4199-35.498C39.7364-34.7656 39.4434-33.9844 39.4434-33.0078ZM41.5918-49.9023L61.416-49.9023C63.418-49.9023 64.7852-51.2695 64.7852-53.3691L64.7852-59.6191C64.7852-61.7188 63.418-63.0859 61.416-63.0859L41.5918-63.0859C39.5899-63.0859 38.2227-61.7188 38.2227-59.6191L38.2227-53.3691C38.2227-51.2695 39.5899-49.9023 41.5918-49.9023ZM18.6914-0.341797C18.6914 7.76367 24.3067 13.1836 32.7051 13.1836L71.3282 13.1836C79.1406 13.1836 84.3164 7.76367 84.3164-0.390625L84.3164-70.3125C84.3164-78.4668 79.1406-83.8867 71.3282-83.8867L32.7051-83.8867C24.3067-83.8867 18.6914-78.4668 18.6914-70.3613ZM32.8516-5.76172L32.8516-64.9414C32.8516-67.1875 34.2676-68.457 36.416-68.457L66.6406-68.457C68.7403-68.457 70.1563-67.0898 70.1563-64.8926L70.1563-5.81055C70.1563-3.61328 68.7403-2.24609 66.6406-2.24609L36.416-2.24609C34.2676-2.24609 32.8516-3.51562 32.8516-5.76172Z"/>
  </g>
  <g id="Heavy-S" transform="matrix(1 0 0 1 2586.94 696)">
   <path d="M37.9797-34.4484C37.9797-32.7455 39.2547-31.5681 41.0207-31.5681C41.9539-31.5566 42.864-31.9988 43.4527-32.7367L45.5787-35.2242L46.4473-36.541L46.252-33.3851L46.252-24.3112C46.252-22.4333 47.7508-21.0464 49.7521-21.0464C51.7535-21.0464 53.2408-22.4333 53.2408-24.3112L53.2408-33.3851L53.0455-36.541L53.9141-35.2242L56.0516-32.7367C56.6402-31.9988 57.5389-31.5566 58.4836-31.5681C60.2496-31.5681 61.513-32.7455 61.513-34.4484C61.513-35.3327 61.2547-36.0794 60.6402-36.7312L52.5545-45.6892C51.8423-46.4759 50.7857-46.9181 49.7521-46.9181C48.707-46.9181 47.6992-46.5132 46.9383-45.6892L38.8641-36.7312C38.2381-36.0794 37.9797-35.3327 37.9797-34.4484ZM39.7939-50.6053L59.6988-50.6053C61.7008-50.6053 63.068-51.9725 63.068-54.0721L63.068-59.9649C63.068-62.0645 61.7008-63.4317 59.6988-63.4317L39.7939-63.4317C37.792-63.4317 36.4248-62.0645 36.4248-59.9649L36.4248-54.0721C36.4248-51.9725 37.792-50.6053 39.7939-50.6053ZM18.6914-1.25223C18.6914 6.34616 24.0185 11.4664 31.9214 11.4664L68.3548 11.4664C75.81 11.4664 80.8129 6.34616 80.8129-1.28953L80.8129-69.379C80.8129-77.0147 75.81-82.135 68.3548-82.135L31.9214-82.135C24.0185-82.135 18.6914-77.0147 18.6914-69.4163ZM31.1689-5.68105L31.1689-64.9875C31.1689-67.3373 32.6656-68.6875 34.9754-68.6875L64.5546-68.6875C66.8386-68.6875 68.3238-67.2627 68.3238-64.9502L68.3238-5.71835C68.3238-3.40584 66.8386-1.98103 64.5546-1.98103L34.9754-1.98103C32.6656-1.98103 31.1689-3.33123 31.1689-5.68105Z"/>
  </g>
  <g id="Bold-S" transform="matrix(1 0 0 1 2292.19 696)">
   <path d="M36.3428-36.0596C36.3428-34.4727 37.5147-33.3984 39.126-33.3984C39.9561-33.374 40.7373-33.7646 41.2744-34.3994L43.5938-36.9385L44.8877-38.7451L44.6924-34.79L44.6924-25.5615C44.6924-23.877 46.0108-22.6318 47.793-22.6318C49.5752-22.6318 50.8692-23.877 50.8692-25.5615L50.8692-34.79L50.6739-38.7451L51.9678-36.9385L54.3116-34.3994C54.8487-33.7646 55.6055-33.374 56.46-33.3984C58.0713-33.3984 59.2188-34.4727 59.2188-36.0596C59.2188-36.8408 58.9991-37.5488 58.4619-38.1104L50.2344-46.875C49.5996-47.5586 48.6719-47.9492 47.793-47.9492C46.8897-47.9492 46.0108-47.583 45.3272-46.875L37.1241-38.1104C36.5625-37.5488 36.3428-36.8408 36.3428-36.0596ZM37.7832-51.3916L57.7783-51.3916C59.7803-51.3916 61.1475-52.7588 61.1475-54.8584L61.1475-60.3516C61.1475-62.4512 59.7803-63.8184 57.7783-63.8184L37.7832-63.8184C35.7813-63.8184 34.4141-62.4512 34.4141-60.3516L34.4141-54.8584C34.4141-52.7588 35.7813-51.3916 37.7832-51.3916ZM18.6914-2.27051C18.6914 4.76074 23.6963 9.5459 31.0449 9.5459L65.0293 9.5459C72.085 9.5459 76.8946 4.76074 76.8946-2.29492L76.8946-68.335C76.8946-75.3906 72.085-80.1758 65.0293-80.1758L31.0449-80.1758C23.6963-80.1758 18.6914-75.3906 18.6914-68.3594ZM29.2871-5.59082L29.2871-65.0391C29.2871-67.5049 30.8741-68.9453 33.3643-68.9453L62.2217-68.9453C64.7119-68.9453 66.2744-67.4561 66.2744-65.0146L66.2744-5.61523C66.2744-3.17383 64.7119-1.68457 62.2217-1.68457L33.3643-1.68457C30.8741-1.68457 29.2871-3.125 29.2871-5.59082Z"/>
  </g>
  <g id="Semibold-S" transform="matrix(1 0 0 1 1996.83 696)">
   <path d="M35.2141-37.1704C35.2141-35.6635 36.3149-34.6604 37.8196-34.6604C38.5786-34.6271 39.271-34.9821 39.7725-35.5458L42.2252-38.1204L43.8124-40.2647L43.6171-35.7587L43.6171-26.4235C43.6171-24.8723 44.811-23.7249 46.4422-23.7249C48.0733-23.7249 49.2339-24.8723 49.2339-26.4235L49.2339-35.7587L49.0386-40.2647L50.6258-38.1204L53.1118-35.5458C53.6133-34.9821 54.2724-34.6271 55.0647-34.6604C56.5694-34.6604 57.6369-35.6635 57.6369-37.1704C57.6369-37.8806 57.4438-38.5619 56.96-39.0612L48.6347-47.6926C48.0533-48.3051 47.2144-48.6602 46.4422-48.6602C45.6366-48.6602 44.8465-48.3206 44.2163-47.6926L35.9243-39.0612C35.4072-38.5619 35.2141-37.8806 35.2141-37.1704ZM36.3968-51.9337L56.4542-51.9337C58.4561-51.9337 59.8233-53.3009 59.8233-55.4005L59.8233-60.6182C59.8233-62.7178 58.4561-64.085 56.4542-64.085L36.3968-64.085C34.3949-64.085 33.0277-62.7178 33.0277-60.6182L33.0277-55.4005C33.0277-53.3009 34.3949-51.9337 36.3968-51.9337ZM18.6914-2.97256C18.6914 3.66768 23.4741 8.22178 30.4406 8.22178L62.7365 8.22178C69.5167 8.22178 74.1929 3.66768 74.1929-2.98809L74.1929-67.6151C74.1929-74.2709 69.5167-78.825 62.7365-78.825L30.4406-78.825C23.4741-78.825 18.6914-74.2709 18.6914-67.6307ZM27.9896-5.52861L27.9896-65.0746C27.9896-67.6204 29.6387-69.123 32.2534-69.123L60.6131-69.123C63.2456-69.123 64.8614-67.5894 64.8614-65.0591L64.8614-5.54414C64.8614-3.01387 63.2456-1.48018 60.6131-1.48018L32.2534-1.48018C29.6387-1.48018 27.9896-2.98281 27.9896-5.52861Z"/>
  </g>
  <g id="Medium-S" transform="matrix(1 0 0 1 1701.14 696)">
   <path d="M34.3584-38.0127C34.3584-36.5664 35.4053-35.6172 36.8291-35.6172C37.5342-35.5771 38.1592-35.9053 38.6338-36.415L41.1875-39.0166L42.997-41.417L42.8017-36.4932L42.8017-27.0771C42.8017-25.627 43.9013-24.5537 45.4179-24.5537C46.9345-24.5537 47.9941-25.627 47.9941-27.0771L47.9941-36.4932L47.7988-41.417L49.6084-39.0166L52.2021-36.415C52.6767-35.9053 53.2617-35.5771 54.0068-35.6172C55.4306-35.6172 56.4375-36.5664 56.4375-38.0127C56.4375-38.6689 56.2646-39.3301 55.8213-39.7822L47.4219-48.3125C46.8808-48.8711 46.1094-49.1992 45.4179-49.1992C44.6865-49.1992 43.9638-48.8799 43.374-48.3125L35.0146-39.7822C34.5312-39.3301 34.3584-38.6689 34.3584-38.0127ZM35.3457-52.3447L55.4502-52.3447C57.4521-52.3447 58.8193-53.7119 58.8193-55.8115L58.8193-60.8203C58.8193-62.9199 57.4521-64.2871 55.4502-64.2871L35.3457-64.2871C33.3437-64.2871 31.9765-62.9199 31.9765-60.8203L31.9765-55.8115C31.9765-53.7119 33.3437-52.3447 35.3457-52.3447ZM18.6914-3.50488C18.6914 2.83887 23.3056 7.21777 29.9824 7.21777L60.998 7.21777C67.5693 7.21777 72.1445 2.83887 72.1445-3.51367L72.1445-67.0693C72.1445-73.4219 67.5693-77.8008 60.998-77.8008L29.9824-77.8008C23.3056-77.8008 18.6914-73.4219 18.6914-67.0781ZM27.0058-5.48145L27.0058-65.1016C27.0058-67.708 28.7021-69.2578 31.4111-69.2578L59.3935-69.2578C62.1338-69.2578 63.79-67.6904 63.79-65.0928L63.79-5.49023C63.79-2.89258 62.1338-1.3252 59.3935-1.3252L31.4111-1.3252C28.7021-1.3252 27.0058-2.875 27.0058-5.48145Z"/>
  </g>
  <g id="Regular-S" transform="matrix(1 0 0 1 1405.76 696)">
   <path d="M33.2422-39.1113C33.2422-37.7441 34.2188-36.8652 35.5371-36.8652C36.1719-36.8164 36.709-37.1094 37.1485-37.5488L39.834-40.1855L41.9336-42.9199L41.7383-37.4512L41.7383-27.9297C41.7383-26.6113 42.7149-25.6348 44.0821-25.6348C45.4492-25.6348 46.377-26.6113 46.377-27.9297L46.377-37.4512L46.1817-42.9199L48.2813-40.1855L51.0157-37.5488C51.4551-37.1094 51.9434-36.8164 52.627-36.8652C53.9453-36.8652 54.8731-37.7441 54.8731-39.1113C54.8731-39.6973 54.7266-40.332 54.336-40.7227L45.8399-49.1211C45.3516-49.6094 44.668-49.9023 44.0821-49.9023C43.4473-49.9023 42.8125-49.6094 42.2754-49.1211L33.8282-40.7227C33.3887-40.332 33.2422-39.6973 33.2422-39.1113ZM33.9746-52.8809L54.1407-52.8809C56.1426-52.8809 57.5098-54.248 57.5098-56.3477L57.5098-61.084C57.5098-63.1836 56.1426-64.5508 54.1407-64.5508L33.9746-64.5508C31.9727-64.5508 30.6055-63.1836 30.6055-61.084L30.6055-56.3477C30.6055-54.248 31.9727-52.8809 33.9746-52.8809ZM18.6914-4.19922C18.6914 1.75781 23.086 5.9082 29.3848 5.9082L58.7305 5.9082C65.0293 5.9082 69.4727 1.75781 69.4727-4.19922L69.4727-66.3574C69.4727-72.3145 65.0293-76.4648 58.7305-76.4648L29.3848-76.4648C23.086-76.4648 18.6914-72.3145 18.6914-66.3574ZM25.7227-5.41992L25.7227-65.1367C25.7227-67.8223 27.4805-69.4336 30.3125-69.4336L57.8028-69.4336C60.6836-69.4336 62.3926-67.8223 62.3926-65.1367L62.3926-5.41992C62.3926-2.73438 60.6836-1.12305 57.8028-1.12305L30.3125-1.12305C27.4805-1.12305 25.7227-2.73438 25.7227-5.41992Z"/>
  </g>
  <g id="Light-S" transform="matrix(1 0 0 1 1110.51 696)">
   <path d="M32.1827-39.7925C32.1827-38.6826 32.9776-37.9853 34.0386-37.9853C34.5826-37.9517 34.9986-38.1841 35.3775-38.563L38.7745-41.9111L40.8741-44.4336L40.7242-40.0395L40.7242-28.2476C40.7242-27.1562 41.5191-26.3613 42.6289-26.3613C43.7388-26.3613 44.5-27.1562 44.5-28.2476L44.5-40.0395L44.335-44.4336L46.4346-41.9111L49.8653-38.563C50.2593-38.1841 50.6416-37.9517 51.2193-37.9853C52.2803-37.9853 53.0264-38.6826 53.0264-39.7925C53.0264-40.3027 52.8799-40.8013 52.5499-41.1313L44.0235-49.6055C43.6563-49.9878 43.1089-50.2202 42.6289-50.2202C42.1153-50.2202 41.6016-49.9878 41.1856-49.6055L32.6929-41.1313C32.3291-40.8013 32.1827-40.3027 32.1827-39.7925ZM32.4156-53.5015L52.8086-53.5015C54.8711-53.5015 56.2232-54.8535 56.2232-56.9834L56.2232-61.3867C56.2232-63.5166 54.8711-64.8686 52.8086-64.8686L32.4156-64.8686C30.3531-64.8686 29.001-63.5166 29.001-61.3867L29.001-56.9834C29.001-54.8535 30.3531-53.5015 32.4156-53.5015ZM18.6914-5.12255C18.6914 0.849617 22.647 4.65187 28.855 4.65187L56.3692 4.65187C62.5621 4.65187 66.5665 0.849617 66.5665-5.12255L66.5665-65.4038C66.5665-71.376 62.5621-75.1782 56.3692-75.1782L28.855-75.1782C22.647-75.1782 18.6914-71.376 18.6914-65.4038ZM24.1182-5.96484L24.1182-64.5615C24.1182-67.9736 26.0122-69.7515 29.5254-69.7515L55.6988-69.7515C59.2456-69.7515 61.106-67.9736 61.106-64.5615L61.106-5.96484C61.106-2.55274 59.2456-0.759768 55.6988-0.759768L29.5254-0.759768C26.0122-0.759768 24.1182-2.55274 24.1182-5.96484Z"/>
  </g>
  <g id="Thin-S" transform="matrix(1 0 0 1 815.717 696)">
   <path d="M30.7813-40.6933C30.7813-39.9238 31.336-39.4668 32.0567-39.4668C32.4805-39.4531 32.7364-39.6054 33.0352-39.9043L37.3731-44.1933L39.4727-46.4355L39.3829-43.4628L39.3829-28.668C39.3829-27.8769 39.9376-27.3223 40.7071-27.3223C41.4766-27.3223 42.0176-27.8769 42.0176-28.668L42.0176-43.4628L41.8926-46.4355L43.9923-44.1933L48.3438-39.9043C48.6778-39.6054 48.92-39.4531 49.3575-39.4668C50.0782-39.4668 50.584-39.9238 50.584-40.6933C50.584-41.1035 50.4376-41.4219 50.1876-41.6719L41.6212-50.2461C41.4141-50.4883 41.0469-50.6406 40.7071-50.6406C40.3536-50.6406 40.0001-50.4883 39.7442-50.2461L31.1915-41.6719C30.9278-41.4219 30.7813-41.1035 30.7813-40.6933ZM30.3536-54.3223L51.0469-54.3223C53.1895-54.3223 54.5215-55.6543 54.5215-57.8242L54.5215-61.7871C54.5215-63.957 53.1895-65.2891 51.0469-65.2891L30.3536-65.2891C28.211-65.2891 26.879-63.957 26.879-61.7871L26.879-57.8242C26.879-55.6543 28.211-54.3223 30.3536-54.3223ZM18.6914-6.34373C18.6914-0.351546 22.0664 2.99026 28.1543 2.99026L53.2462 2.99026C59.2989 2.99026 62.7227-0.351546 62.7227-6.34373L62.7227-64.1426C62.7227-70.1348 59.2989-73.4766 53.2462-73.4766L28.1543-73.4766C22.0664-73.4766 18.6914-70.1348 18.6914-64.1426ZM21.9962-6.68554L21.9962-63.8008C21.9962-68.1738 24.0704-70.1719 28.4844-70.1719L52.9161-70.1719C57.3438-70.1719 59.4044-68.1738 59.4044-63.8008L59.4044-6.68554C59.4044-2.3125 57.3438-0.279304 52.9161-0.279304L28.4844-0.279304C24.0704-0.279304 21.9962-2.3125 21.9962-6.68554Z"/>
  </g>
  <g id="Ultralight-S" transform="matrix(1 0 0 1 519.99 696)">
   <path d="M30.0635-41.1548C30.0635-40.5595 30.4952-40.2256 31.0416-40.2256C31.4039-40.2221 31.5777-40.3335 31.8355-40.5913L36.6553-45.3623L38.7549-47.4609L38.6959-45.2162L38.6959-28.8833C38.6959-28.2461 39.1275-27.8144 39.7227-27.8144C40.3179-27.8144 40.7462-28.2461 40.7462-28.8833L40.7462-45.2162L40.6417-47.4609L42.7413-45.3623L47.5645-40.5913C47.8677-40.3335 48.0381-40.2221 48.4039-40.2256C48.9503-40.2256 49.3331-40.5595 49.3331-41.1548C49.3331-41.5137 49.1866-41.7397 48.9776-41.9487L40.3907-50.5742C40.2657-50.7446 39.9908-50.8559 39.7227-50.8559C39.4512-50.8559 39.1797-50.7446 39.0059-50.5742L30.4224-41.9487C30.21-41.7397 30.0635-41.5137 30.0635-41.1548ZM29.2974-54.7427L50.1446-54.7427C52.3282-54.7427 53.65-56.0644 53.65-58.2549L53.65-61.9922C53.65-64.1826 52.3282-65.5044 50.1446-65.5044L29.2974-65.5044C27.1138-65.5044 25.7921-64.1826 25.7921-61.9922L25.7921-58.2549C25.7921-56.0644 27.1138-54.7427 29.2974-54.7427ZM18.6914-6.96922C18.6914-0.966775 21.7691 2.13919 27.7955 2.13919L51.6466 2.13919C57.6275 2.13919 60.754-0.966775 60.754-6.96922L60.754-63.4966C60.754-69.499 57.6275-72.605 51.6466-72.605L27.7955-72.605C21.7691-72.605 18.6914-69.499 18.6914-63.4966ZM20.9092-7.05467L20.9092-63.4111C20.9092-68.2764 23.0757-70.3872 27.9512-70.3872L51.4908-70.3872C56.3697-70.3872 58.5328-68.2764 58.5328-63.4111L58.5328-7.05467C58.5328-2.18946 56.3697-0.0332117 51.4908-0.0332117L27.9512-0.0332117C23.0757-0.0332117 20.9092-2.18946 20.9092-7.05467Z"/>
  </g>
 </g>
</svg>
