<?xml version="1.0" encoding="UTF-8"?>
<!--Generator: Apple Native CoreSVG 175-->
<!DOCTYPE svg
PUBLIC "-//W3C//DTD SVG 1.1//EN"
       "http://www.w3.org/Graphics/SVG/1.1/DTD/svg11.dtd">
<svg version="1.1" xmlns="http://www.w3.org/2000/svg" xmlns:xlink="http://www.w3.org/1999/xlink" width="3300" height="2200">
 <!--glyph: "", point size: 100.0, font version: "17.3d3e1", template writer version: "65.1"-->
 <g id="Notes">
  <rect height="2200" id="artboard" style="fill:white;opacity:1" width="3300" x="0" y="0"/>
  <line style="fill:none;stroke:black;opacity:1;stroke-width:0.5;" x1="263" x2="3036" y1="292" y2="292"/>
  <text style="stroke:none;fill:black;font-family:sans-serif;font-size:13;font-weight:bold;" transform="matrix(1 0 0 1 263 322)">Weight/Scale Variations</text>
  <text style="stroke:none;fill:black;font-family:sans-serif;font-size:13;text-anchor:middle;" transform="matrix(1 0 0 1 559.711 322)">Ultralight</text>
  <text style="stroke:none;fill:black;font-family:sans-serif;font-size:13;text-anchor:middle;" transform="matrix(1 0 0 1 856.422 322)">Thin</text>
  <text style="stroke:none;fill:black;font-family:sans-serif;font-size:13;text-anchor:middle;" transform="matrix(1 0 0 1 1153.13 322)">Light</text>
  <text style="stroke:none;fill:black;font-family:sans-serif;font-size:13;text-anchor:middle;" transform="matrix(1 0 0 1 1449.84 322)">Regular</text>
  <text style="stroke:none;fill:black;font-family:sans-serif;font-size:13;text-anchor:middle;" transform="matrix(1 0 0 1 1746.56 322)">Medium</text>
  <text style="stroke:none;fill:black;font-family:sans-serif;font-size:13;text-anchor:middle;" transform="matrix(1 0 0 1 2043.27 322)">Semibold</text>
  <text style="stroke:none;fill:black;font-family:sans-serif;font-size:13;text-anchor:middle;" transform="matrix(1 0 0 1 2339.98 322)">Bold</text>
  <text style="stroke:none;fill:black;font-family:sans-serif;font-size:13;text-anchor:middle;" transform="matrix(1 0 0 1 2636.69 322)">Heavy</text>
  <text style="stroke:none;fill:black;font-family:sans-serif;font-size:13;text-anchor:middle;" transform="matrix(1 0 0 1 2933.4 322)">Black</text>
  <line style="fill:none;stroke:black;opacity:1;stroke-width:0.5;" x1="263" x2="3036" y1="1903" y2="1903"/>
  <g transform="matrix(1 0 0 1 263 1933)">
   <path d="M9.24805 0.830078Q10.8691 0.830078 12.2949 0.214844Q13.7207-0.400391 14.8096-1.49414Q15.8984-2.58789 16.5186-4.01367Q17.1387-5.43945 17.1387-7.05078Q17.1387-8.66211 16.5186-10.0879Q15.8984-11.5137 14.8047-12.6074Q13.7109-13.7012 12.2852-14.3164Q10.8594-14.9316 9.23828-14.9316Q7.62695-14.9316 6.20117-14.3164Q4.77539-13.7012 3.69141-12.6074Q2.60742-11.5137 1.9873-10.0879Q1.36719-8.66211 1.36719-7.05078Q1.36719-5.43945 1.9873-4.01367Q2.60742-2.58789 3.69629-1.49414Q4.78516-0.400391 6.21094 0.214844Q7.63672 0.830078 9.24805 0.830078ZM9.24805-0.654297Q7.91992-0.654297 6.7627-1.14746Q5.60547-1.64062 4.73145-2.51953Q3.85742-3.39844 3.36426-4.56055Q2.87109-5.72266 2.87109-7.05078Q2.87109-8.37891 3.35938-9.54102Q3.84766-10.7031 4.72168-11.582Q5.5957-12.4609 6.75293-12.9541Q7.91016-13.4473 9.23828-13.4473Q10.5762-13.4473 11.7334-12.9541Q12.8906-12.4609 13.7695-11.582Q14.6484-10.7031 15.1465-9.54102Q15.6445-8.37891 15.6445-7.05078Q15.6445-5.72266 15.1514-4.56055Q14.6582-3.39844 13.7842-2.51953Q12.9102-1.64062 11.748-1.14746Q10.5859-0.654297 9.24805-0.654297ZM5.6543-7.05078Q5.6543-6.72852 5.85938-6.52832Q6.06445-6.32812 6.40625-6.32812L8.51562-6.32812L8.51562-4.20898Q8.51562-3.88672 8.71094-3.67676Q8.90625-3.4668 9.23828-3.4668Q9.56055-3.4668 9.77051-3.67676Q9.98047-3.88672 9.98047-4.20898L9.98047-6.32812L12.0898-6.32812Q12.4219-6.32812 12.627-6.52832Q12.832-6.72852 12.832-7.05078Q12.832-7.38281 12.627-7.58789Q12.4219-7.79297 12.0898-7.79297L9.98047-7.79297L9.98047-9.90234Q9.98047-10.2344 9.77051-10.4443Q9.56055-10.6543 9.23828-10.6543Q8.90625-10.6543 8.71094-10.4443Q8.51562-10.2344 8.51562-9.90234L8.51562-7.79297L6.40625-7.79297Q6.06445-7.79297 5.85938-7.58789Q5.6543-7.38281 5.6543-7.05078Z"/>
  </g>
  <g transform="matrix(1 0 0 1 281.867 1933)">
   <path d="M11.709 2.91016Q13.75 2.91016 15.5518 2.12891Q17.3535 1.34766 18.7305-0.0292969Q20.1074-1.40625 20.8887-3.20801Q21.6699-5.00977 21.6699-7.05078Q21.6699-9.0918 20.8887-10.8936Q20.1074-12.6953 18.7305-14.0723Q17.3535-15.4492 15.5469-16.2305Q13.7402-17.0117 11.6992-17.0117Q9.6582-17.0117 7.85645-16.2305Q6.05469-15.4492 4.68262-14.0723Q3.31055-12.6953 2.5293-10.8936Q1.74805-9.0918 1.74805-7.05078Q1.74805-5.00977 2.5293-3.20801Q3.31055-1.40625 4.6875-0.0292969Q6.06445 1.34766 7.86621 2.12891Q9.66797 2.91016 11.709 2.91016ZM11.709 1.25Q9.98047 1.25 8.47656 0.605469Q6.97266-0.0390625 5.83496-1.17676Q4.69727-2.31445 4.05762-3.81836Q3.41797-5.32227 3.41797-7.05078Q3.41797-8.7793 4.05762-10.2832Q4.69727-11.7871 5.83008-12.9297Q6.96289-14.0723 8.4668-14.7119Q9.9707-15.3516 11.6992-15.3516Q13.4277-15.3516 14.9316-14.7119Q16.4355-14.0723 17.5781-12.9297Q18.7207-11.7871 19.3652-10.2832Q20.0098-8.7793 20.0098-7.05078Q20.0098-5.32227 19.3701-3.81836Q18.7305-2.31445 17.5928-1.17676Q16.4551-0.0390625 14.9463 0.605469Q13.4375 1.25 11.709 1.25ZM7.17773-7.05078Q7.17773-6.69922 7.41211-6.47461Q7.64648-6.25 8.01758-6.25L10.8887-6.25L10.8887-3.36914Q10.8887-2.99805 11.1133-2.76855Q11.3379-2.53906 11.6895-2.53906Q12.0605-2.53906 12.29-2.76855Q12.5195-2.99805 12.5195-3.36914L12.5195-6.25L15.4004-6.25Q15.7715-6.25 16.001-6.47461Q16.2305-6.69922 16.2305-7.05078Q16.2305-7.42188 16.001-7.65137Q15.7715-7.88086 15.4004-7.88086L12.5195-7.88086L12.5195-10.752Q12.5195-11.1328 12.29-11.3623Q12.0605-11.5918 11.6895-11.5918Q11.3379-11.5918 11.1133-11.3574Q10.8887-11.123 10.8887-10.752L10.8887-7.88086L8.01758-7.88086Q7.63672-7.88086 7.40723-7.65137Q7.17773-7.42188 7.17773-7.05078Z"/>
  </g>
  <g transform="matrix(1 0 0 1 305.646 1933)">
   <path d="M14.9707 5.66406Q17.0605 5.66406 18.96 5.01465Q20.8594 4.36523 22.4512 3.19336Q24.043 2.02148 25.2197 0.429688Q26.3965-1.16211 27.0459-3.06641Q27.6953-4.9707 27.6953-7.05078Q27.6953-9.14062 27.0459-11.04Q26.3965-12.9395 25.2197-14.5312Q24.043-16.123 22.4512-17.2998Q20.8594-18.4766 18.9551-19.126Q17.0508-19.7754 14.9609-19.7754Q12.8711-19.7754 10.9717-19.126Q9.07227-18.4766 7.48535-17.2998Q5.89844-16.123 4.72168-14.5312Q3.54492-12.9395 2.90039-11.04Q2.25586-9.14062 2.25586-7.05078Q2.25586-4.9707 2.90527-3.06641Q3.55469-1.16211 4.72656 0.429688Q5.89844 2.02148 7.49023 3.19336Q9.08203 4.36523 10.9814 5.01465Q12.8809 5.66406 14.9707 5.66406ZM14.9707 3.84766Q13.1641 3.84766 11.5283 3.2959Q9.89258 2.74414 8.53516 1.74805Q7.17773 0.751953 6.17676-0.610352Q5.17578-1.97266 4.62891-3.6084Q4.08203-5.24414 4.08203-7.05078Q4.08203-8.86719 4.62891-10.5029Q5.17578-12.1387 6.17188-13.501Q7.16797-14.8633 8.52539-15.8594Q9.88281-16.8555 11.5186-17.4023Q13.1543-17.9492 14.9609-17.9492Q16.7773-17.9492 18.4131-17.4023Q20.0488-16.8555 21.4111-15.8594Q22.7734-14.8633 23.7695-13.501Q24.7656-12.1387 25.3174-10.5029Q25.8691-8.86719 25.8691-7.05078Q25.8789-5.24414 25.332-3.6084Q24.7852-1.97266 23.7842-0.610352Q22.7832 0.751953 21.4209 1.74805Q20.0586 2.74414 18.4229 3.2959Q16.7871 3.84766 14.9707 3.84766ZM9.19922-7.05078Q9.19922-6.66992 9.45801-6.4209Q9.7168-6.17188 10.1172-6.17188L14.0625-6.17188L14.0625-2.2168Q14.0625-1.81641 14.3115-1.55762Q14.5605-1.29883 14.9512-1.29883Q15.3516-1.29883 15.6104-1.55273Q15.8691-1.80664 15.8691-2.2168L15.8691-6.17188L19.8242-6.17188Q20.2246-6.17188 20.4785-6.4209Q20.7324-6.66992 20.7324-7.05078Q20.7324-7.46094 20.4785-7.71484Q20.2246-7.96875 19.8242-7.96875L15.8691-7.96875L15.8691-11.9141Q15.8691-12.3242 15.6104-12.583Q15.3516-12.8418 14.9512-12.8418Q14.5605-12.8418 14.3115-12.583Q14.0625-12.3242 14.0625-11.9141L14.0625-7.96875L10.1172-7.96875Q9.70703-7.96875 9.45312-7.71484Q9.19922-7.46094 9.19922-7.05078Z"/>
  </g>
  <text style="stroke:none;fill:black;font-family:sans-serif;font-size:13;font-weight:bold;" transform="matrix(1 0 0 1 263 1953)">Design Variations</text>
  <text style="stroke:none;fill:black;font-family:sans-serif;font-size:13;" transform="matrix(1 0 0 1 263 1971)">Symbols are supported in up to nine weights and three scales.</text>
  <text style="stroke:none;fill:black;font-family:sans-serif;font-size:13;" transform="matrix(1 0 0 1 263 1989)">For optimal layout with text and other symbols, vertically align</text>
  <text style="stroke:none;fill:black;font-family:sans-serif;font-size:13;" transform="matrix(1 0 0 1 263 2007)">symbols with the adjacent text.</text>
  <line style="fill:none;stroke:#00AEEF;stroke-width:0.5;opacity:1.0;" x1="776" x2="776" y1="1919" y2="1933"/>
  <g transform="matrix(1 0 0 1 776 1933)">
   <path d="M3.31055 0.15625Q3.70117 0.15625 3.91602-0.00976562Q4.13086-0.175781 4.26758-0.585938L5.52734-4.0332L11.2891-4.0332L12.5488-0.585938Q12.6855-0.175781 12.9004-0.00976562Q13.1152 0.15625 13.4961 0.15625Q13.8867 0.15625 14.1162-0.0585938Q14.3457-0.273438 14.3457-0.644531Q14.3457-0.869141 14.2383-1.17188L9.6582-13.3691Q9.48242-13.8184 9.17969-14.043Q8.87695-14.2676 8.4082-14.2676Q7.5-14.2676 7.17773-13.3789L2.59766-1.16211Q2.49023-0.859375 2.49023-0.634766Q2.49023-0.263672 2.70996-0.0537109Q2.92969 0.15625 3.31055 0.15625ZM6.00586-5.51758L8.37891-12.0898L8.42773-12.0898L10.8008-5.51758Z"/>
  </g>
  <line style="fill:none;stroke:#00AEEF;stroke-width:0.5;opacity:1.0;" x1="793.197" x2="793.197" y1="1919" y2="1933"/>
  <text style="stroke:none;fill:black;font-family:sans-serif;font-size:13;font-weight:bold;" transform="matrix(1 0 0 1 776 1953)">Margins</text>
  <text style="stroke:none;fill:black;font-family:sans-serif;font-size:13;" transform="matrix(1 0 0 1 776 1971)">Leading and trailing margins on the left and right side of each symbol</text>
  <text style="stroke:none;fill:black;font-family:sans-serif;font-size:13;" transform="matrix(1 0 0 1 776 1989)">can be adjusted by modifying the x-location of the margin guidelines.</text>
  <text style="stroke:none;fill:black;font-family:sans-serif;font-size:13;" transform="matrix(1 0 0 1 776 2007)">Modifications are automatically applied proportionally to all</text>
  <text style="stroke:none;fill:black;font-family:sans-serif;font-size:13;" transform="matrix(1 0 0 1 776 2025)">scales and weights.</text>
  <g transform="matrix(1 0 0 1 1289 1933)">
   <path d="M2.8418 1.86523L4.54102 3.57422Q5.18555 4.22852 5.90332 4.17969Q6.62109 4.13086 7.31445 3.35938L18.0078-8.42773L17.041-9.4043L6.42578 2.27539Q6.16211 2.57812 5.89355 2.61719Q5.625 2.65625 5.27344 2.30469L4.10156 1.14258Q3.75 0.791016 3.79395 0.522461Q3.83789 0.253906 4.14062-0.0195312L15.6152-10.8203L14.6387-11.7871L3.04688-0.898438Q2.30469-0.214844 2.25098 0.498047Q2.19727 1.21094 2.8418 1.86523ZM9.25781-16.3281Q8.94531-16.0254 8.90625-15.6348Q8.86719-15.2441 9.04297-14.9512Q9.21875-14.6777 9.55566-14.541Q9.89258-14.4043 10.3809-14.5215Q11.4746-14.7754 12.5977-14.7314Q13.7207-14.6875 14.7949-13.9844L14.209-12.5293Q13.9551-11.9043 14.0674-11.4404Q14.1797-10.9766 14.5801-10.5664L16.875-8.25195Q17.2363-7.88086 17.5781-7.82227Q17.9199-7.76367 18.3398-7.8418L19.4043-8.03711L20.0684-7.36328L20.0293-6.80664Q20-6.43555 20.1221-6.12305Q20.2441-5.81055 20.6055-5.44922L21.3672-4.70703Q21.7285-4.3457 22.1533-4.33105Q22.5781-4.31641 22.9297-4.66797L25.8398-7.58789Q26.1914-7.93945 26.1816-8.35449Q26.1719-8.76953 25.8105-9.13086L25.0391-9.89258Q24.6875-10.2539 24.3799-10.3857Q24.0723-10.5176 23.7109-10.4883L23.1348-10.4395L22.4902-11.0742L22.7344-12.1973Q22.832-12.6172 22.6953-12.9834Q22.5586-13.3496 22.1191-13.7891L19.9219-15.9766Q18.6719-17.2168 17.2607-17.8369Q15.8496-18.457 14.4189-18.4814Q12.9883-18.5059 11.665-17.959Q10.3418-17.4121 9.25781-16.3281ZM10.752-15.957Q11.6602-16.6211 12.7002-16.9043Q13.7402-17.1875 14.8047-17.085Q15.8691-16.9824 16.8701-16.5137Q17.8711-16.0449 18.7012-15.2051L21.1328-12.793Q21.3086-12.6172 21.3525-12.4512Q21.3965-12.2852 21.3379-12.0312L21.0156-10.5469L22.5195-9.0625L23.5059-9.12109Q23.6914-9.13086 23.7891-9.09668Q23.8867-9.0625 24.0332-8.91602L24.6094-8.33984L22.168-5.89844L21.5918-6.47461Q21.4453-6.62109 21.4062-6.71875Q21.3672-6.81641 21.377-7.01172L21.4453-7.98828L19.9512-9.47266L18.4277-9.21875Q18.1836-9.16992 18.042-9.2041Q17.9004-9.23828 17.7148-9.41406L15.7129-11.416Q15.5176-11.5918 15.4932-11.7529Q15.4688-11.9141 15.5859-12.1875L16.4648-14.2773Q15.293-15.3711 13.8281-15.791Q12.3633-16.2109 10.8398-15.7617Q10.7227-15.7324 10.6885-15.8057Q10.6543-15.8789 10.752-15.957Z"/>
  </g>
  <text style="stroke:none;fill:black;font-family:sans-serif;font-size:13;font-weight:bold;" transform="matrix(1 0 0 1 1289 1953)">Exporting</text>
  <text style="stroke:none;fill:black;font-family:sans-serif;font-size:13;" transform="matrix(1 0 0 1 1289 1971)">Symbols should be outlined when exporting to ensure the</text>
  <text style="stroke:none;fill:black;font-family:sans-serif;font-size:13;" transform="matrix(1 0 0 1 1289 1989)">design is preserved when submitting to Xcode.</text>
  <text id="template-version" style="stroke:none;fill:black;font-family:sans-serif;font-size:13;text-anchor:end;" transform="matrix(1 0 0 1 3036 1933)">Template v.2.0</text>
  <text style="stroke:none;fill:black;font-family:sans-serif;font-size:13;text-anchor:end;" transform="matrix(1 0 0 1 3036 1951)">Requires Xcode 12 or greater</text>
  <text id="descriptive-name" style="stroke:none;fill:black;font-family:sans-serif;font-size:13;text-anchor:end;" transform="matrix(1 0 0 1 3036 1969)">Generated from shield.cr</text>
  <text style="stroke:none;fill:black;font-family:sans-serif;font-size:13;text-anchor:end;" transform="matrix(1 0 0 1 3036 1987)">Typeset at 100 points</text>
  <text style="stroke:none;fill:black;font-family:sans-serif;font-size:13;" transform="matrix(1 0 0 1 263 726)">Small</text>
  <text style="stroke:none;fill:black;font-family:sans-serif;font-size:13;" transform="matrix(1 0 0 1 263 1156)">Medium</text>
  <text style="stroke:none;fill:black;font-family:sans-serif;font-size:13;" transform="matrix(1 0 0 1 263 1586)">Large</text>
 </g>
 <g id="Guides">
  <g id="H-reference" style="fill:#27AAE1;stroke:none;" transform="matrix(1 0 0 1 339 696)">
   <path d="M0.993347 0L3.6377 0L29.3282-67.1326L30.0301-67.1326L30.0301-70.459L28.1227-70.459ZM11.6882-24.4797L46.9818-24.4797L46.2311-26.7288L12.4382-26.7288ZM55.1193 0L57.7637 0L30.6381-70.459L29.4327-70.459L29.4327-67.1326Z"/>
  </g>
  <line id="Baseline-S" style="fill:none;stroke:#27AAE1;opacity:1;stroke-width:0.5;" x1="263" x2="3036" y1="696" y2="696"/>
  <line id="Capline-S" style="fill:none;stroke:#27AAE1;opacity:1;stroke-width:0.5;" x1="263" x2="3036" y1="625.541" y2="625.541"/>
  <g id="H-reference" style="fill:#27AAE1;stroke:none;" transform="matrix(1 0 0 1 339 1126)">
   <path d="M0.993347 0L3.6377 0L29.3282-67.1326L30.0301-67.1326L30.0301-70.459L28.1227-70.459ZM11.6882-24.4797L46.9818-24.4797L46.2311-26.7288L12.4382-26.7288ZM55.1193 0L57.7637 0L30.6381-70.459L29.4327-70.459L29.4327-67.1326Z"/>
  </g>
  <line id="Baseline-M" style="fill:none;stroke:#27AAE1;opacity:1;stroke-width:0.5;" x1="263" x2="3036" y1="1126" y2="1126"/>
  <line id="Capline-M" style="fill:none;stroke:#27AAE1;opacity:1;stroke-width:0.5;" x1="263" x2="3036" y1="1055.54" y2="1055.54"/>
  <g id="H-reference" style="fill:#27AAE1;stroke:none;" transform="matrix(1 0 0 1 339 1556)">
   <path d="M0.993347 0L3.6377 0L29.3282-67.1326L30.0301-67.1326L30.0301-70.459L28.1227-70.459ZM11.6882-24.4797L46.9818-24.4797L46.2311-26.7288L12.4382-26.7288ZM55.1193 0L57.7637 0L30.6381-70.459L29.4327-70.459L29.4327-67.1326Z"/>
  </g>
  <line id="Baseline-L" style="fill:none;stroke:#27AAE1;opacity:1;stroke-width:0.5;" x1="263" x2="3036" y1="1556" y2="1556"/>
  <line id="Capline-L" style="fill:none;stroke:#27AAE1;opacity:1;stroke-width:0.5;" x1="263" x2="3036" y1="1485.54" y2="1485.54"/>
  <line id="left-margin" style="fill:none;stroke:#00AEEF;stroke-width:0.5;opacity:1.0;" x1="1390.47" x2="1390.47" y1="1030.78" y2="1150.12"/>
  <line id="right-margin" style="fill:none;stroke:#00AEEF;stroke-width:0.5;opacity:1.0;" x1="1509.22" x2="1509.22" y1="1030.78" y2="1150.12"/>
 </g>
 <g id="Symbols">
  <g id="Black-L" transform="matrix(1 0 0 1 2860.53 1556)">
   <path d="M68.18-99.4525C70.98-100.543 74.08-100.543 76.88-99.4525L118.88-83.0725C123.49-81.2725 126.53-76.8125 126.53-71.8525L126.53-43.9725C126.53-6.3525 104.34 20.1375 75.95 30.1375C73.74 30.9275 71.32 30.9275 69.11 30.1375C40.72 20.1375 18.53-6.3525 18.53-43.9725L18.53-71.8525C18.53-76.8125 21.57-81.2725 26.18-83.0725L68.18-99.4525Z"/>
  </g>
  <g id="Heavy-L" transform="matrix(1 0 0 1 2563.81 1556)">
   <path d="M68.18-99.46C70.98-100.54 74.08-100.54 76.88-99.46L118.88-83.2C123.49-81.41 126.53-76.99 126.53-72.07L126.53-44.4C126.53-7.07 104.34 19.22 75.95 29.15C73.74 29.92 71.32 29.92 69.11 29.15C40.72 19.22 18.53-7.07 18.53-44.4L18.53-72.07C18.53-76.99 21.57-81.41 26.18-83.2L68.18-99.46Z"/>
  </g>
  <g id="Bold-L" transform="matrix(1 0 0 1 2268.1 1556)">
   <path d="M67.26-98.4675C70.01-99.5375 73.05-99.5375 75.8-98.4675L117.02-82.4575C121.55-80.6975 124.53-76.3475 124.53-71.4975L124.53-44.2575C124.53-7.4975 102.75 18.3825 74.89 28.1625C72.72 28.9225 70.34 28.9225 68.17 28.1625C40.31 18.3825 18.53-7.4975 18.53-44.2575L18.53-71.4975C18.53-76.3475 21.51-80.6975 26.04-82.4575L67.26-98.4675Z"/>
  </g>
  <g id="Semibold-L" transform="matrix(1 0 0 1 1971.39 1556)">
   <path d="M67.26-98.4675C70.01-99.5375 73.05-99.5375 75.8-98.4675L117.02-82.4575C121.55-80.6975 124.53-76.3475 124.53-71.4975L124.53-44.2575C124.53-7.4975 102.75 18.3825 74.89 28.1625C72.72 28.9225 70.34 28.9225 68.17 28.1625C40.31 18.3825 18.53-7.4975 18.53-44.2575L18.53-71.4975C18.53-76.3475 21.51-80.6975 26.04-82.4575L67.26-98.4675Z"/>
  </g>
  <g id="Medium-L" transform="matrix(1 0 0 1 1675.18 1556)">
   <path d="M66.8-97.4725C69.52-98.5225 72.54-98.5225 75.26-97.4725L116.09-81.5825C120.58-79.8425 123.53-75.5225 123.53-70.7125L123.53-43.6825C123.53-7.2125 101.95 18.4675 74.36 28.1675C72.2 28.9275 69.86 28.9275 67.7 28.1675C40.11 18.4675 18.53-7.2125 18.53-43.6825L18.53-70.7125C18.53-75.5225 21.48-79.8425 25.97-81.5825L66.8-97.4725Z"/>
  </g>
  <g id="Regular-L" transform="matrix(1 0 0 1 1379.31 1556)">
   <path d="M66.03-96.48C68.7-97.52 71.67-97.52 74.35-96.48L114.53-80.85C118.94-79.13 121.85-74.88 121.85-70.14L121.85-43.54C121.85-7.64 100.61 17.63 73.46 27.18C71.34 27.93 69.03 27.93 66.91 27.18C39.76 17.63 18.53-7.64 18.53-43.54L18.53-70.14C18.53-74.88 21.44-79.13 25.85-80.85L66.03-96.48Z"/>
  </g>
  <g id="Light-L" transform="matrix(1 0 0 1 1082.6 1556)">
   <path d="M66.03-96.48C68.7-97.52 71.67-97.52 74.35-96.48L114.53-80.85C118.94-79.13 121.85-74.88 121.85-70.14L121.85-43.54C121.85-7.64 100.61 17.63 73.46 27.18C71.34 27.93 69.03 27.93 66.91 27.18C39.76 17.63 18.53-7.64 18.53-43.54L18.53-70.14C18.53-74.88 21.44-79.13 25.85-80.85L66.03-96.48Z"/>
  </g>
  <g id="Thin-L" transform="matrix(1 0 0 1 787.047 1556)">
   <path d="M64.963-95.4925C67.579-96.5025 70.481-96.5025 73.097-95.4925L112.375-80.2325C116.689-78.5525 119.53-74.4025 119.53-69.7825L119.53-43.8225C119.53-8.7825 98.774 15.8875 72.231 25.1975C70.16 25.9275 67.9 25.9275 65.829 25.1975C39.286 15.8875 18.53-8.7825 18.53-43.8225L18.53-69.7825C18.53-74.4025 21.371-78.5525 25.685-80.2325L64.963-95.4925Z"/>
  </g>
  <g id="Ultralight-L" transform="matrix(1 0 0 1 490.336 1556)">
   <path d="M64.963-95.4925C67.579-96.5025 70.481-96.5025 73.097-95.4925L112.375-80.2325C116.689-78.5525 119.53-74.4025 119.53-69.7825L119.53-43.8225C119.53-8.7825 98.774 15.8875 72.231 25.1975C70.16 25.9275 67.9 25.9275 65.829 25.1975C39.286 15.8875 18.53-8.7825 18.53-43.8225L18.53-69.7825C18.53-74.4025 21.371-78.5525 25.685-80.2325L64.963-95.4925Z"/>
  </g>
  <g id="Black-M" transform="matrix(1 0 0 1 2871.53 1126)">
   <path d="M58.07-87.5675C60.29-88.4375 62.77-88.4375 64.99-87.5675L98.44-74.5575C102.11-73.1275 104.53-69.5975 104.53-65.6575L104.53-43.5175C104.53-13.6575 86.86 7.3725 64.26 15.3125C62.49 15.9425 60.57 15.9425 58.8 15.3125C36.2 7.3725 18.53-13.6575 18.53-43.5175L18.53-65.6575C18.53-69.5975 20.95-73.1275 24.62-74.5575L58.07-87.5675Z"/>
  </g>
  <g id="Heavy-M" transform="matrix(1 0 0 1 2575.81 1126)">
   <path d="M57.15-85.58C59.32-86.42 61.74-86.42 63.91-85.58L96.58-72.95C100.17-71.56 102.53-68.12 102.53-64.3L102.53-42.8C102.53-13.8 85.27 6.62 63.19 14.34C61.47 14.94 59.59 14.94 57.87 14.34C35.79 6.62 18.53-13.8 18.53-42.8L18.53-64.3C18.53-68.12 20.89-71.56 24.48-72.95L57.15-85.58Z"/>
  </g>
  <g id="Bold-M" transform="matrix(1 0 0 1 2279.6 1126)">
   <path d="M56.69-84.5875C58.84-85.4175 61.22-85.4175 63.37-84.5875L95.65-72.0775C99.2-70.6975 101.53-67.2975 101.53-63.5075L101.53-42.2275C101.53-13.5175 84.47 6.7125 62.66 14.3425C60.96 14.9425 59.1 14.9425 57.4 14.3425C35.59 6.7125 18.53-13.5175 18.53-42.2275L18.53-63.5075C18.53-67.2975 20.86-70.6975 24.41-72.0775L56.69-84.5875Z"/>
  </g>
  <g id="Semibold-M" transform="matrix(1 0 0 1 1983.39 1126)">
   <path d="M56.23-83.5875C58.35-84.4175 60.71-84.4175 62.83-83.5875L94.72-71.2075C98.22-69.8475 100.53-66.4775 100.53-62.7275L100.53-41.6575C100.53-13.2275 83.68 6.7925 62.13 14.3525C60.45 14.9425 58.61 14.9425 56.93 14.3525C35.38 6.7925 18.53-13.2275 18.53-41.6575L18.53-62.7275C18.53-66.4775 20.84-69.8475 24.34-71.2075L56.23-83.5875Z"/>
  </g>
  <g id="Medium-M" transform="matrix(1 0 0 1 1686.68 1126)">
   <path d="M56.23-83.5875C58.35-84.4175 60.71-84.4175 62.83-83.5875L94.72-71.2075C98.22-69.8475 100.53-66.4775 100.53-62.7275L100.53-41.6575C100.53-13.2275 83.68 6.7925 62.13 14.3525C60.45 14.9425 58.61 14.9425 56.93 14.3525C35.38 6.7925 18.53-13.2275 18.53-41.6575L18.53-62.7275C18.53-66.4775 20.84-69.8475 24.34-71.2075L56.23-83.5875Z"/>
  </g>
  <g id="Regular-M" transform="matrix(1 0 0 1 1390.47 1126)">
   <path d="M55.77-83.5925C57.87-84.4025 60.19-84.4025 62.29-83.5925L93.79-71.3325C97.25-69.9825 99.53-66.6525 99.53-62.9425L99.53-42.0825C99.53-13.9425 82.88 5.8775 61.6 13.3575C59.94 13.9475 58.12 13.9475 56.46 13.3575C35.18 5.8775 18.53-13.9425 18.53-42.0825L18.53-62.9425C18.53-66.6525 20.81-69.9825 24.27-71.3325L55.77-83.5925Z"/>
  </g>
  <g id="Light-M" transform="matrix(1 0 0 1 1093.76 1126)">
   <path d="M55.77-80.5925C57.87-81.4025 60.19-81.4025 62.29-80.5925L93.79-68.3325C97.25-66.9825 99.53-63.6525 99.53-59.9425L99.53-39.0825C99.53-10.9425 82.88 8.8775 61.6 16.3575C59.94 16.9475 58.12 16.9475 56.46 16.3575C35.18 8.8775 18.53-10.9425 18.53-39.0825L18.53-59.9425C18.53-63.6525 20.81-66.9825 24.27-68.3325L55.77-80.5925Z"/>
  </g>
  <g id="Thin-M" transform="matrix(1 0 0 1 797.047 1126)">
   <path d="M55.768-80.5925C57.866-81.4025 60.194-81.4025 62.292-80.5925L93.792-68.3325C97.251-66.9825 99.53-63.6525 99.53-59.9425L99.53-39.0825C99.53-10.9425 82.884 8.8775 61.597 16.3575C59.936 16.9475 58.124 16.9475 56.463 16.3575C35.176 8.8775 18.53-10.9425 18.53-39.0825L18.53-59.9425C18.53-63.6525 20.809-66.9825 24.268-68.3325L55.768-80.5925Z"/>
  </g>
  <g id="Ultralight-M" transform="matrix(1 0 0 1 500.336 1126)">
   <path d="M55.768-80.5925C57.866-81.4025 60.194-81.4025 62.292-80.5925L93.792-68.3325C97.251-66.9825 99.53-63.6525 99.53-59.9425L99.53-39.0825C99.53-10.9425 82.884 8.8775 61.597 16.3575C59.936 16.9475 58.124 16.9475 56.463 16.3575C35.176 8.8775 18.53-10.9425 18.53-39.0825L18.53-59.9425C18.53-63.6525 20.809-66.9825 24.268-68.3325L55.768-80.5925Z"/>
  </g>
  <g id="Black-S" transform="matrix(1 0 0 1 2881.53 696)">
   <path d="M48.87-74.6667C50.58-75.3338 52.48-75.3338 54.19-74.6667L79.85-64.6527C82.67-63.5527 84.53-60.8297 84.53-57.7957L84.53-40.7577C84.53-17.7637 70.97-1.57375 53.62 4.54125C52.27 5.01825 50.79 5.01825 49.44 4.54125C32.09-1.57375 18.53-17.7637 18.53-40.7577L18.53-57.7957C18.53-60.8297 20.39-63.5527 23.21-64.6527L48.87-74.6667Z"/>
  </g>
  <g id="Heavy-S" transform="matrix(1 0 0 1 2585.49 696)">
   <path d="M48.25-73.6733C49.93-74.3263 51.78-74.3263 53.46-73.6733L78.6-63.8643C81.36-62.7873 83.18-60.1193 83.18-57.1473L83.18-40.4573C83.18-17.9333 69.9-2.07425 52.91 3.91575C51.58 4.38375 50.13 4.38375 48.81 3.91575C31.82-2.07425 18.53-17.9333 18.53-40.4573L18.53-57.1473C18.53-60.1193 20.35-62.7873 23.11-63.8643L48.25-73.6733Z"/>
  </g>
  <g id="Bold-S" transform="matrix(1 0 0 1 2288.6 696)">
   <path d="M48.41-73.6712C50.1-74.3283 51.96-74.3283 53.65-73.6712L78.93-63.8093C81.7-62.7263 83.53-60.0453 83.53-57.0563L83.53-40.2763C83.53-17.6313 70.17-1.68625 53.09 4.33575C51.76 4.80575 50.3 4.80575 48.97 4.33575C31.89-1.68625 18.53-17.6313 18.53-40.2763L18.53-57.0563C18.53-60.0453 20.36-62.7263 23.13-63.8093L48.41-73.6712Z"/>
  </g>
  <g id="Semibold-S" transform="matrix(1 0 0 1 1991.66 696)">
   <path d="M48.63-73.6693C50.33-74.3302 52.21-74.3302 53.9-73.6693L79.36-63.7353C82.16-62.6443 84-59.9433 84-56.9333L84-40.0312C84-17.2213 70.55-1.16025 53.34 4.90575C52 5.37875 50.53 5.37875 49.19 4.90575C31.99-1.16025 18.53-17.2213 18.53-40.0312L18.53-56.9333C18.53-59.9433 20.37-62.6443 23.17-63.7353L48.63-73.6693Z"/>
  </g>
  <g id="Medium-S" transform="matrix(1 0 0 1 1694.94 696)">
   <path d="M48.63-73.6693C50.33-74.3302 52.21-74.3302 53.9-73.6693L79.37-63.7342C82.16-62.6432 84.01-59.9423 84.01-56.9323L84.01-40.0293C84.01-17.2183 70.55-1.15625 53.34 4.90975C52 5.38275 50.54 5.38275 49.19 4.90975C31.99-1.15625 18.53-17.2183 18.53-40.0293L18.53-56.9323C18.53-59.9423 20.37-62.6432 23.17-63.7342L48.63-73.6693Z"/>
  </g>
  <g id="Regular-S" transform="matrix(1 0 0 1 1399.64 696)">
   <path d="M47.33-72.6833C48.95-73.3163 50.75-73.3163 52.38-72.6833L76.74-63.1783C79.42-62.1343 81.18-59.5493 81.18-56.6693L81.18-40.4963C81.18-18.6703 68.3-3.30225 51.84 2.50175C50.55 2.95475 49.15 2.95475 47.87 2.50175C31.4-3.30225 18.53-18.6703 18.53-40.4963L18.53-56.6693C18.53-59.5493 20.29-62.1343 22.97-63.1783L47.33-72.6833Z"/>
  </g>
  <g id="Light-S" transform="matrix(1 0 0 1 1103.76 696)">
   <path d="M46.57-71.692C48.15-72.308 49.91-72.308 51.49-71.692L75.21-62.437C77.81-61.42 79.53-58.903 79.53-56.099L79.53-40.352C79.53-19.1 66.99-4.136 50.96 1.515C49.71 1.956 48.35 1.956 47.1 1.515C31.07-4.136 18.53-19.1 18.53-40.352L18.53-56.099C18.53-58.903 20.25-61.42 22.85-62.437L46.57-71.692Z"/>
  </g>
  <g id="Thin-S" transform="matrix(1 0 0 1 807.047 696)">
   <path d="M46.573-71.692C48.154-72.308 49.906-72.308 51.487-71.692L75.209-62.437C77.814-61.42 79.53-58.903 79.53-56.099L79.53-40.352C79.53-19.1 66.994-4.136 50.964 1.515C49.712 1.956 48.348 1.956 47.096 1.515C31.066-4.136 18.53-19.1 18.53-40.352L18.53-56.099C18.53-58.903 20.246-61.42 22.851-62.437L46.573-71.692Z"/>
  </g>
  <g id="Ultralight-S" transform="matrix(1 0 0 1 510.336 696)">
   <path d="M46.573-71.692C48.154-72.308 49.906-72.308 51.487-71.692L75.209-62.437C77.814-61.42 79.53-58.903 79.53-56.099L79.53-40.352C79.53-19.1 66.994-4.136 50.964 1.515C49.712 1.956 48.348 1.956 47.096 1.515C31.066-4.136 18.53-19.1 18.53-40.352L18.53-56.099C18.53-58.903 20.246-61.42 22.851-62.437L46.573-71.692Z"/>
  </g>
 </g>
</svg>
