<svg width="200" height="72" viewBox="0 0 200 72" fill="none" xmlns="http://www.w3.org/2000/svg">
<path d="M69.9043 55.1479L68.5888 51.3154C68.349 50.617 67.5873 50.2447 66.8875 50.484L63.0474 51.7969C62.3475 52.0362 61.9746 52.7963 62.2143 53.4947L63.5298 57.3272C63.7696 58.0256 64.5312 58.3979 65.2311 58.1586L69.0712 56.8457C69.771 56.6064 70.144 55.8463 69.9043 55.1479Z" fill="#4285F4"/>
<path d="M50.3433 30.8118C49.8983 30.6909 49.4409 30.6213 48.98 30.6044L47.511 30.3799C46.2916 30.1791 45.1856 29.5463 44.3959 28.5975C43.2541 27.2982 42.4975 25.7029 40.6468 25.3219C39.9276 25.1721 39.1817 25.213 38.4833 25.4403C37.7848 25.6677 37.1583 26.0737 36.6659 26.6179C36.6148 26.6723 36.5637 26.7335 36.516 26.7913C36.1412 27.2691 35.8746 27.8221 35.7344 28.4125C35.5943 29.0029 35.5839 29.6165 35.7041 30.2113C35.8242 30.806 36.072 31.3677 36.4305 31.8578C36.7889 32.3478 37.2495 32.7545 37.7804 33.05C38.4246 33.4106 39.1437 33.6691 39.8015 33.965C41.0034 34.4897 41.9482 35.4681 42.4293 36.6861L42.9712 38.0671C43.2363 39.0793 43.7637 40.0041 44.5003 40.7486C45.2368 41.4931 46.1567 42.031 47.1675 42.3084C48.1783 42.5858 49.2445 42.5929 50.2589 42.329C51.2734 42.065 52.2003 41.5393 52.9468 40.8047C53.6932 40.0701 54.2328 39.1524 54.5115 38.1438C54.7901 37.1352 54.7979 36.0712 54.534 35.0586C54.2702 34.046 53.7441 33.1206 53.0085 32.3751C52.2729 31.6297 51.3537 31.0906 50.3433 30.8118V30.8118Z" stroke="#E8EAED" stroke-linecap="round" stroke-linejoin="round"/>
<path d="M187.529 30.893C188.894 30.893 190 29.7889 190 28.427C190 27.065 188.894 25.9609 187.529 25.9609C186.164 25.9609 185.058 27.065 185.058 28.427C185.058 29.7889 186.164 30.893 187.529 30.893Z" fill="#E8EAED"/>
<path d="M156.811 51.2131C157.635 51.2131 158.303 50.546 158.303 49.7232C158.303 48.9004 157.635 48.2334 156.811 48.2334C155.986 48.2334 155.318 48.9004 155.318 49.7232C155.318 50.546 155.986 51.2131 156.811 51.2131Z" fill="#4285F4"/>
<path d="M12.0867 23.1221C13.2391 23.1221 14.1734 22.1897 14.1734 21.0395C14.1734 19.8894 13.2391 18.957 12.0867 18.957C10.9342 18.957 10 19.8894 10 21.0395C10 22.1897 10.9342 23.1221 12.0867 23.1221Z" fill="#4285F4"/>
<path d="M132.918 45.788L129.169 48.271C128.869 48.4658 128.627 48.7366 128.466 49.0558C128.306 49.375 128.233 49.731 128.256 50.0874L128.529 54.5807C128.55 54.933 128.664 55.2734 128.859 55.5677C129.054 55.8621 129.323 56.1 129.64 56.2576L133.678 58.2509C133.995 58.4092 134.347 58.4816 134.7 58.4607C135.053 58.4398 135.394 58.3264 135.689 58.1318L139.438 55.6488C139.733 55.4536 139.971 55.1847 140.129 54.869C140.287 54.5532 140.359 54.2017 140.338 53.8494L140.066 49.3527C140.043 49.0006 139.929 48.6605 139.734 48.3662C139.539 48.072 139.27 47.8339 138.954 47.6758L134.929 45.6655C134.613 45.508 134.26 45.4363 133.907 45.4578C133.554 45.4793 133.213 45.5932 132.918 45.788V45.788Z" stroke="#E8EAED" stroke-linecap="round" stroke-linejoin="round"/>
<path d="M22.9887 39.3359H16.3563C16.2858 39.3369 16.2168 39.3563 16.1562 39.3922C16.0956 39.4282 16.0456 39.4794 16.0111 39.5407C15.9766 39.602 15.9588 39.6713 15.9596 39.7416C15.9603 39.8119 15.9796 39.8808 16.0154 39.9414L19.3283 45.666C19.3638 45.7244 19.4138 45.7727 19.4735 45.8063C19.5332 45.8398 19.6006 45.8574 19.6691 45.8574C19.7376 45.8574 19.8049 45.8398 19.8646 45.8063C19.9243 45.7727 19.9743 45.7244 20.0099 45.666L23.3261 39.9346C23.3602 39.8745 23.3781 39.8066 23.3782 39.7375C23.3783 39.6684 23.3605 39.6005 23.3265 39.5403C23.2926 39.4801 23.2437 39.4297 23.1845 39.3939C23.1253 39.3581 23.0579 39.3381 22.9887 39.3359V39.3359Z" fill="#D2E3FC"/>
<path d="M152.622 33.614C152.55 33.6861 152.494 33.773 152.458 33.8687C152.422 33.9644 152.408 34.0667 152.416 34.1685C152.424 34.2703 152.453 34.3692 152.503 34.4584C152.553 34.5476 152.621 34.6251 152.704 34.6854C153.765 35.4773 155.076 35.8629 156.398 35.7722C157.72 35.6816 158.965 35.1206 159.908 34.1913C160.85 33.262 161.428 32.026 161.535 30.7079C161.642 29.3899 161.272 28.0772 160.492 27.0084C160.432 26.9255 160.355 26.8565 160.266 26.806C160.177 26.7555 160.078 26.7247 159.977 26.7157C159.875 26.7066 159.772 26.7196 159.676 26.7537C159.579 26.7877 159.491 26.8421 159.418 26.9131L152.622 33.614Z" fill="#D2E3FC"/>
<path d="M129.265 27.4068L125.247 23.3931C118.578 16.7385 109.534 13 100.104 13C90.6736 13 81.6296 16.7385 74.9612 23.3931L70.9428 27.4068C70.635 27.7139 70.3908 28.0784 70.2242 28.4797C70.0576 28.8809 69.9719 29.311 69.9719 29.7453C69.9719 30.1797 70.0576 30.6097 70.2242 31.011C70.3908 31.4122 70.635 31.7768 70.9428 32.0838L77.8479 38.9785C77.9407 38.8423 78.0456 38.7148 78.1615 38.5976L81.1846 35.5805C86.2019 30.5747 93.0059 27.7625 100.1 27.7625C107.195 27.7625 113.999 30.5747 119.016 35.5805L122.039 38.5976C122.155 38.7148 122.26 38.8423 122.353 38.9785L129.258 32.0838C129.566 31.7772 129.811 31.413 129.978 31.012C130.145 30.611 130.232 30.1811 130.232 29.7467C130.233 29.3124 130.148 28.8822 129.982 28.4807C129.816 28.0792 129.572 27.7143 129.265 27.4068Z" fill="#D2E3FC"/>
<path d="M119.023 35.5806C114.006 30.5748 107.202 27.7627 100.107 27.7627C93.013 27.7627 86.2089 30.5748 81.1917 35.5806L78.1685 38.5977C78.0527 38.715 77.9477 38.8425 77.855 38.9787L87.2618 48.3871L88.0457 47.6047C89.6284 46.023 91.5081 44.7681 93.5772 43.9119C95.6462 43.0557 97.8642 42.615 100.104 42.615C102.344 42.615 104.562 43.0557 106.631 43.9119C108.7 44.7681 110.58 46.023 112.162 47.6047L112.946 48.3871L122.36 38.9923C122.267 38.8561 122.162 38.7286 122.046 38.6113L119.023 35.5806Z" fill="#8AB4F8"/>
<path d="M102.449 58.85L112.947 48.3736L112.163 47.5913C110.58 46.0095 108.7 44.7546 106.631 43.8984C104.562 43.0423 102.344 42.6016 100.104 42.6016C97.8644 42.6016 95.6464 43.0423 93.5774 43.8984C91.5083 44.7546 89.6286 46.0095 88.0459 47.5913L87.262 48.3736L97.7594 58.85C98.3813 59.4707 99.2248 59.8193 100.104 59.8193C100.984 59.8193 101.827 59.4707 102.449 58.85Z" fill="#4285F4"/>
<circle cx="163.5" cy="26.5" r="5.5" stroke="#4285F4" stroke-linecap="round" stroke-dasharray="2 2"/>
<line x1="1.5" y1="-1.5" x2="67.7929" y2="-1.5" transform="matrix(0.734803 0.67828 -0.734803 0.67828 72.0833 9)" stroke="white" stroke-width="3" stroke-linecap="round"/>
<line x1="1.5" y1="-1.5" x2="67.7929" y2="-1.5" transform="matrix(0.734803 0.67828 -0.734803 0.67828 71 12)" stroke="#4285F4" stroke-width="3" stroke-linecap="round"/>
</svg>
