<svg xmlns="http://www.w3.org/2000/svg" width="156.552" height="50.216" fill="none"><path d="M131.435 15.892c0-.621.544-1.087 1.165-1.048 5.24.582 9.316 5.008 9.316 10.365 0 5.396-4.037 9.821-9.277 10.404-.621.077-1.165-.427-1.165-1.049z" fill="#e6e7ea"/><path d="M90.713 17.716c-1.204.505-2.369 1.165-3.495 1.786a6.846 6.846 0 0 1-5.163.544c-.97-.272-1.902-.622-2.911-.816-3.455-.62-6.793 1.864-6.91 5.435-.078 3.183 2.6 6.017 5.823 5.862 1.475-.078 2.911-.66 4.348-.854 1.591-.194 3.144.078 4.503.893 1.165.699 2.252 1.514 3.494 2.096a8.238 8.238 0 0 0 3.882.699c3.998-.272 7.259-3.455 7.608-7.454.428-4.774-3.26-8.812-7.957-8.928a9.08 9.08 0 0 0-3.222.737z" stroke="#e4e4e4" stroke-width="1.659" stroke-miterlimit="10"/><path d="m50.844 26.45 9.821 5.824c1.01.582 2.29-.117 2.33-1.281l.155-11.413c0-1.165-1.242-1.941-2.29-1.36l-9.977 5.591c-1.048.543-1.048 2.019-.04 2.64z" fill="#d2e3fc"/><path d="M152.903 28.897a3.65 3.65 0 1 0 0-7.299 3.65 3.65 0 0 0 0 7.299z" fill="#bbc0c7"/><path d="M21.302 33.594c9.047 0 16.382-7.335 16.382-16.382C37.684 8.164 30.349.83 21.302.83 12.254.83 4.919 8.164 4.919 17.212c0 9.047 7.335 16.382 16.383 16.382z" stroke="#4285f4" stroke-width="1.659" stroke-miterlimit="10"/><path d="M12.916 31.304 2.551 48.695" stroke="#4285f4" stroke-width="5.94" stroke-miterlimit="10"/><path d="m122.855 27.189-4.541 4.542c-1.048 1.048-2.795 1.048-3.843 0l-4.542-4.542c-1.048-1.049-1.048-2.796 0-3.844l4.542-4.542c1.048-1.048 2.795-1.048 3.843 0l4.54 4.542c1.05 1.048 1.05 2.757 0 3.844z" fill="#4285f4"/></svg>