<svg width="168" height="62" viewBox="0 0 168 62" fill="none" xmlns="http://www.w3.org/2000/svg"><path d="M135.809 21.98c0-.621.544-1.087 1.165-1.048 5.24.582 9.316 5.008 9.316 10.365 0 5.396-4.037 9.821-9.277 10.404-.621.077-1.165-.427-1.165-1.048l-.039-18.673z" fill="#1A73E8" fill-opacity=".3"/><path d="M95.087 23.804c-1.204.505-2.368 1.165-3.494 1.786a6.845 6.845 0 0 1-5.163.543c-.97-.271-1.903-.62-2.912-.815-3.455-.621-6.793 1.863-6.91 5.435-.078 3.183 2.601 6.017 5.823 5.862 1.475-.078 2.912-.66 4.348-.854 1.592-.195 3.145.077 4.503.892 1.165.7 2.252 1.514 3.494 2.097a8.239 8.239 0 0 0 3.882.699c3.998-.272 7.259-3.455 7.608-7.454.428-4.775-3.26-8.812-7.957-8.929a9.08 9.08 0 0 0-3.222.738z" stroke="#8AB4F8" stroke-opacity=".3" stroke-width="1.659" stroke-miterlimit="10"/><path d="m55.218 32.537 9.822 5.823c1.009.583 2.29-.116 2.329-1.28l.155-11.414c0-1.165-1.242-1.94-2.29-1.359l-9.977 5.59c-1.048.544-1.048 2.02-.039 2.64zm102.059 2.449a3.65 3.65 0 1 0 0-7.299 3.65 3.65 0 0 0 0 7.299z" fill="#8AB4F8" fill-opacity=".3"/><path d="M25.676 39.682c9.048 0 16.382-7.334 16.382-16.382 0-9.048-7.334-16.382-16.382-16.382-9.048 0-16.382 7.334-16.382 16.382 0 9.048 7.334 16.382 16.382 16.382z" stroke="#4285F4" stroke-width="1.659" stroke-miterlimit="10"/><path d="M17.29 37.39 6.927 54.783" stroke="#4285F4" stroke-width="5.94" stroke-miterlimit="10"/><path d="m127.229 33.277-4.541 4.542c-1.048 1.048-2.795 1.048-3.843 0l-4.542-4.542c-1.048-1.048-1.048-2.795 0-3.843l4.542-4.542c1.048-1.049 2.795-1.049 3.843 0l4.541 4.542c1.049 1.048 1.049 2.756 0 3.843z" fill="#4285F4"/></svg>