<?xml version="1.0" encoding="UTF-8"?>
<!--Generator: Apple Native CoreSVG 175.5-->
<!DOCTYPE svg
PUBLIC "-//W3C//DTD SVG 1.1//EN"
       "http://www.w3.org/Graphics/SVG/1.1/DTD/svg11.dtd">
<svg version="1.1" xmlns="http://www.w3.org/2000/svg" xmlns:xlink="http://www.w3.org/1999/xlink" width="3300" height="2200">
 <!--glyph: "", point size: 100.0, font version: "18.0d12e2", template writer version: "101"-->
 <style>.hierarchical-0:secondary {fill:#4D4D4D}
.hierarchical-1:primary {fill:#212121}

.SFSymbolsPreview212121 {fill:#212121;opacity:1.0}
.SFSymbolsPreview4D4D4D {fill:#4D4D4D;opacity:1.0}
.SFSymbolsPreviewFFFFFF {fill:#FFFFFF;opacity:1.0}
</style>
 <g id="Notes">
  <rect height="2200" id="artboard" style="fill:white;opacity:1" width="3300" x="0" y="0"/>
  <line style="fill:none;stroke:black;opacity:1;stroke-width:0.5;" x1="263" x2="3036" y1="292" y2="292"/>
  <text style="stroke:none;fill:black;font-family:sans-serif;font-size:13;font-weight:bold;" transform="matrix(1 0 0 1 263 322)">Weight/Scale Variations</text>
  <text style="stroke:none;fill:black;font-family:sans-serif;font-size:13;text-anchor:middle;" transform="matrix(1 0 0 1 559.711 322)">Ultralight</text>
  <text style="stroke:none;fill:black;font-family:sans-serif;font-size:13;text-anchor:middle;" transform="matrix(1 0 0 1 856.422 322)">Thin</text>
  <text style="stroke:none;fill:black;font-family:sans-serif;font-size:13;text-anchor:middle;" transform="matrix(1 0 0 1 1153.13 322)">Light</text>
  <text style="stroke:none;fill:black;font-family:sans-serif;font-size:13;text-anchor:middle;" transform="matrix(1 0 0 1 1449.84 322)">Regular</text>
  <text style="stroke:none;fill:black;font-family:sans-serif;font-size:13;text-anchor:middle;" transform="matrix(1 0 0 1 1746.56 322)">Medium</text>
  <text style="stroke:none;fill:black;font-family:sans-serif;font-size:13;text-anchor:middle;" transform="matrix(1 0 0 1 2043.27 322)">Semibold</text>
  <text style="stroke:none;fill:black;font-family:sans-serif;font-size:13;text-anchor:middle;" transform="matrix(1 0 0 1 2339.98 322)">Bold</text>
  <text style="stroke:none;fill:black;font-family:sans-serif;font-size:13;text-anchor:middle;" transform="matrix(1 0 0 1 2636.69 322)">Heavy</text>
  <text style="stroke:none;fill:black;font-family:sans-serif;font-size:13;text-anchor:middle;" transform="matrix(1 0 0 1 2933.4 322)">Black</text>
  <line style="fill:none;stroke:black;opacity:1;stroke-width:0.5;" x1="263" x2="3036" y1="1903" y2="1903"/>
  <g transform="matrix(1 0 0 1 263 1933)">
   <path d="M9.24805 0.830078C13.5547 0.830078 17.1387-2.74414 17.1387-7.05078C17.1387-11.3574 13.5449-14.9316 9.23828-14.9316C4.94141-14.9316 1.36719-11.3574 1.36719-7.05078C1.36719-2.74414 4.95117 0.830078 9.24805 0.830078ZM9.24805-0.654297C5.70312-0.654297 2.87109-3.49609 2.87109-7.05078C2.87109-10.6055 5.69336-13.4473 9.23828-13.4473C12.793-13.4473 15.6445-10.6055 15.6445-7.05078C15.6445-3.49609 12.8027-0.654297 9.24805-0.654297ZM5.6543-7.05078C5.6543-6.62109 5.95703-6.32812 6.40625-6.32812L8.50586-6.32812L8.50586-4.20898C8.50586-3.76953 8.79883-3.4668 9.22852-3.4668C9.67773-3.4668 9.9707-3.76953 9.9707-4.20898L9.9707-6.32812L12.0898-6.32812C12.5293-6.32812 12.832-6.62109 12.832-7.05078C12.832-7.49023 12.5293-7.79297 12.0898-7.79297L9.9707-7.79297L9.9707-9.90234C9.9707-10.3516 9.67773-10.6543 9.22852-10.6543C8.79883-10.6543 8.50586-10.3516 8.50586-9.90234L8.50586-7.79297L6.40625-7.79297C5.95703-7.79297 5.6543-7.49023 5.6543-7.05078Z"/>
  </g>
  <g transform="matrix(1 0 0 1 281.867 1933)">
   <path d="M11.709 2.91016C17.1582 2.91016 21.6699-1.61133 21.6699-7.05078C21.6699-12.5 17.1484-17.0117 11.6992-17.0117C6.25977-17.0117 1.74805-12.5 1.74805-7.05078C1.74805-1.61133 6.26953 2.91016 11.709 2.91016ZM11.709 1.25C7.09961 1.25 3.41797-2.44141 3.41797-7.05078C3.41797-11.6602 7.08984-15.3516 11.6992-15.3516C16.3086-15.3516 20.0098-11.6602 20.0098-7.05078C20.0098-2.44141 16.3184 1.25 11.709 1.25ZM7.17773-7.05078C7.17773-6.57227 7.50977-6.25 8.00781-6.25L10.8789-6.25L10.8789-3.36914C10.8789-2.88086 11.2109-2.53906 11.6895-2.53906C12.1777-2.53906 12.5195-2.87109 12.5195-3.36914L12.5195-6.25L15.4004-6.25C15.8887-6.25 16.2305-6.57227 16.2305-7.05078C16.2305-7.53906 15.8887-7.88086 15.4004-7.88086L12.5195-7.88086L12.5195-10.752C12.5195-11.25 12.1777-11.5918 11.6895-11.5918C11.2109-11.5918 10.8789-11.25 10.8789-10.752L10.8789-7.88086L8.00781-7.88086C7.50977-7.88086 7.17773-7.53906 7.17773-7.05078Z"/>
  </g>
  <g transform="matrix(1 0 0 1 305.646 1933)">
   <path d="M14.9707 5.66406C21.9336 5.66406 27.6953-0.0976562 27.6953-7.05078C27.6953-14.0137 21.9238-19.7754 14.9609-19.7754C8.00781-19.7754 2.25586-14.0137 2.25586-7.05078C2.25586-0.0976562 8.01758 5.66406 14.9707 5.66406ZM14.9707 3.84766C8.93555 3.84766 4.08203-1.01562 4.08203-7.05078C4.08203-13.0957 8.92578-17.9492 14.9609-17.9492C21.0059-17.9492 25.8691-13.0957 25.8691-7.05078C25.8691-1.01562 21.0156 3.84766 14.9707 3.84766ZM9.19922-7.05078C9.19922-6.5332 9.57031-6.17188 10.1172-6.17188L14.0625-6.17188L14.0625-2.2168C14.0625-1.67969 14.4336-1.29883 14.9512-1.29883C15.4883-1.29883 15.8594-1.66992 15.8594-2.2168L15.8594-6.17188L19.8145-6.17188C20.3516-6.17188 20.7324-6.5332 20.7324-7.05078C20.7324-7.59766 20.3613-7.96875 19.8145-7.96875L15.8594-7.96875L15.8594-11.9141C15.8594-12.4609 15.4883-12.8418 14.9512-12.8418C14.4336-12.8418 14.0625-12.4609 14.0625-11.9141L14.0625-7.96875L10.1172-7.96875C9.57031-7.96875 9.19922-7.59766 9.19922-7.05078Z"/>
  </g>
  <text style="stroke:none;fill:black;font-family:sans-serif;font-size:13;font-weight:bold;" transform="matrix(1 0 0 1 263 1953)">Design Variations</text>
  <text style="stroke:none;fill:black;font-family:sans-serif;font-size:13;" transform="matrix(1 0 0 1 263 1971)">Symbols are supported in up to nine weights and three scales.</text>
  <text style="stroke:none;fill:black;font-family:sans-serif;font-size:13;" transform="matrix(1 0 0 1 263 1989)">For optimal layout with text and other symbols, vertically align</text>
  <text style="stroke:none;fill:black;font-family:sans-serif;font-size:13;" transform="matrix(1 0 0 1 263 2007)">symbols with the adjacent text.</text>
  <line style="fill:none;stroke:#00AEEF;stroke-width:0.5;opacity:1.0;" x1="776" x2="776" y1="1919" y2="1933"/>
  <g transform="matrix(1 0 0 1 776 1933)">
   <path d="M3.31055 0.15625C3.82812 0.15625 4.08203-0.0390625 4.26758-0.585938L5.52734-4.0332L11.2891-4.0332L12.5488-0.585938C12.7344-0.0390625 12.9883 0.15625 13.4961 0.15625C14.0137 0.15625 14.3457-0.15625 14.3457-0.644531C14.3457-0.810547 14.3164-0.966797 14.2383-1.17188L9.6582-13.3691C9.43359-13.9648 9.0332-14.2676 8.4082-14.2676C7.80273-14.2676 7.39258-13.9746 7.17773-13.3789L2.59766-1.16211C2.51953-0.957031 2.49023-0.800781 2.49023-0.634766C2.49023-0.146484 2.80273 0.15625 3.31055 0.15625ZM6.00586-5.51758L8.37891-12.0898L8.42773-12.0898L10.8008-5.51758Z"/>
  </g>
  <line style="fill:none;stroke:#00AEEF;stroke-width:0.5;opacity:1.0;" x1="793.197" x2="793.197" y1="1919" y2="1933"/>
  <text style="stroke:none;fill:black;font-family:sans-serif;font-size:13;font-weight:bold;" transform="matrix(1 0 0 1 776 1953)">Margins</text>
  <text style="stroke:none;fill:black;font-family:sans-serif;font-size:13;" transform="matrix(1 0 0 1 776 1971)">Leading and trailing margins on the left and right side of each symbol</text>
  <text style="stroke:none;fill:black;font-family:sans-serif;font-size:13;" transform="matrix(1 0 0 1 776 1989)">can be adjusted by modifying the x-location of the margin guidelines.</text>
  <text style="stroke:none;fill:black;font-family:sans-serif;font-size:13;" transform="matrix(1 0 0 1 776 2007)">Modifications are automatically applied proportionally to all</text>
  <text style="stroke:none;fill:black;font-family:sans-serif;font-size:13;" transform="matrix(1 0 0 1 776 2025)">scales and weights.</text>
  <g transform="matrix(1 0 0 1 1289 1933)">
   <path d="M2.8418 1.86523L4.54102 3.57422C5.40039 4.44336 6.38672 4.38477 7.31445 3.35938L18.0078-8.42773L17.041-9.4043L6.42578 2.27539C6.07422 2.67578 5.74219 2.77344 5.27344 2.30469L4.10156 1.14258C3.63281 0.683594 3.74023 0.341797 4.14062-0.0195312L15.6152-10.8203L14.6387-11.7871L3.04688-0.898438C2.06055 0.0195312 1.98242 0.996094 2.8418 1.86523ZM9.25781-16.3281C8.83789-15.918 8.80859-15.3418 9.04297-14.9512C9.27734-14.5898 9.73633-14.3555 10.3809-14.5215C11.8457-14.8633 13.3691-14.9219 14.7949-13.9844L14.209-12.5293C13.8672-11.6992 14.043-11.1133 14.5801-10.5664L16.875-8.25195C17.3633-7.76367 17.7734-7.74414 18.3398-7.8418L19.4043-8.03711L20.0684-7.36328L20.0293-6.80664C19.9902-6.30859 20.1172-5.92773 20.6055-5.44922L21.3672-4.70703C21.8457-4.22852 22.4609-4.19922 22.9297-4.66797L25.8398-7.58789C26.3086-8.05664 26.2891-8.65234 25.8105-9.13086L25.0391-9.89258C24.5605-10.3711 24.1895-10.5273 23.7109-10.4883L23.1348-10.4395L22.4902-11.0742L22.7344-12.1973C22.8613-12.7637 22.7051-13.2031 22.1191-13.7891L19.9219-15.9766C16.582-19.2969 12.1484-19.2188 9.25781-16.3281ZM10.752-15.957C13.1836-17.7344 16.4746-17.4316 18.7012-15.2051L21.1328-12.793C21.3672-12.5586 21.4062-12.373 21.3379-12.0312L21.0156-10.5469L22.5195-9.0625L23.5059-9.12109C23.7598-9.13086 23.8379-9.11133 24.0332-8.91602L24.6094-8.33984L22.168-5.89844L21.5918-6.47461C21.3965-6.66992 21.3672-6.74805 21.377-7.01172L21.4453-7.98828L19.9512-9.47266L18.4277-9.21875C18.1055-9.15039 17.959-9.17969 17.7148-9.41406L15.7129-11.416C15.459-11.6504 15.4297-11.8164 15.5859-12.1875L16.4648-14.2773C14.9023-15.7324 12.8711-16.3574 10.8398-15.7617C10.6836-15.7227 10.625-15.8496 10.752-15.957Z"/>
  </g>
  <text style="stroke:none;fill:black;font-family:sans-serif;font-size:13;font-weight:bold;" transform="matrix(1 0 0 1 1289 1953)">Exporting</text>
  <text style="stroke:none;fill:black;font-family:sans-serif;font-size:13;" transform="matrix(1 0 0 1 1289 1971)">Symbols should be outlined when exporting to ensure the</text>
  <text style="stroke:none;fill:black;font-family:sans-serif;font-size:13;" transform="matrix(1 0 0 1 1289 1989)">design is preserved when submitting to Xcode.</text>
  <text id="template-version" style="stroke:none;fill:black;font-family:sans-serif;font-size:13;text-anchor:end;" transform="matrix(1 0 0 1 3036 1933)">Template v.3.0</text>
  <text style="stroke:none;fill:black;font-family:sans-serif;font-size:13;text-anchor:end;" transform="matrix(1 0 0 1 3036 1951)">Requires Xcode 13 or greater</text>
  <text id="descriptive-name" style="stroke:none;fill:black;font-family:sans-serif;font-size:13;text-anchor:end;" transform="matrix(1 0 0 1 3036 1969)">Generated from bottom.omnibox.cr</text>
  <text style="stroke:none;fill:black;font-family:sans-serif;font-size:13;text-anchor:end;" transform="matrix(1 0 0 1 3036 1987)">Typeset at 100 points</text>
  <text style="stroke:none;fill:black;font-family:sans-serif;font-size:13;" transform="matrix(1 0 0 1 263 726)">Small</text>
  <text style="stroke:none;fill:black;font-family:sans-serif;font-size:13;" transform="matrix(1 0 0 1 263 1156)">Medium</text>
  <text style="stroke:none;fill:black;font-family:sans-serif;font-size:13;" transform="matrix(1 0 0 1 263 1586)">Large</text>
 </g>
 <g id="Guides">
  <g id="H-reference" style="fill:#27AAE1;stroke:none;" transform="matrix(1 0 0 1 339 696)">
   <path d="M0.993654 0L3.63775 0L29.3281-67.1323L30.0303-67.1323L30.0303-70.459L28.1226-70.459ZM11.6885-24.4799L46.9815-24.4799L46.2315-26.7285L12.4385-26.7285ZM55.1196 0L57.7637 0L30.6382-70.459L29.4326-70.459L29.4326-67.1323Z"/>
  </g>
  <line id="Baseline-S" style="fill:none;stroke:#27AAE1;opacity:1;stroke-width:0.5;" x1="263" x2="3036" y1="696" y2="696"/>
  <line id="Capline-S" style="fill:none;stroke:#27AAE1;opacity:1;stroke-width:0.5;" x1="263" x2="3036" y1="625.541" y2="625.541"/>
  <g id="H-reference" style="fill:#27AAE1;stroke:none;" transform="matrix(1 0 0 1 339 1126)">
   <path d="M0.993654 0L3.63775 0L29.3281-67.1323L30.0303-67.1323L30.0303-70.459L28.1226-70.459ZM11.6885-24.4799L46.9815-24.4799L46.2315-26.7285L12.4385-26.7285ZM55.1196 0L57.7637 0L30.6382-70.459L29.4326-70.459L29.4326-67.1323Z"/>
  </g>
  <line id="Baseline-M" style="fill:none;stroke:#27AAE1;opacity:1;stroke-width:0.5;" x1="263" x2="3036" y1="1126" y2="1126"/>
  <line id="Capline-M" style="fill:none;stroke:#27AAE1;opacity:1;stroke-width:0.5;" x1="263" x2="3036" y1="1055.54" y2="1055.54"/>
  <g id="H-reference" style="fill:#27AAE1;stroke:none;" transform="matrix(1 0 0 1 339 1556)">
   <path d="M0.993654 0L3.63775 0L29.3281-67.1323L30.0303-67.1323L30.0303-70.459L28.1226-70.459ZM11.6885-24.4799L46.9815-24.4799L46.2315-26.7285L12.4385-26.7285ZM55.1196 0L57.7637 0L30.6382-70.459L29.4326-70.459L29.4326-67.1323Z"/>
  </g>
  <line id="Baseline-L" style="fill:none;stroke:#27AAE1;opacity:1;stroke-width:0.5;" x1="263" x2="3036" y1="1556" y2="1556"/>
  <line id="Capline-L" style="fill:none;stroke:#27AAE1;opacity:1;stroke-width:0.5;" x1="263" x2="3036" y1="1485.54" y2="1485.54"/>
  <line id="left-margin-Regular-M" style="fill:none;stroke:#00AEEF;stroke-width:0.5;opacity:1.0;" x1="1399.77" x2="1399.77" y1="1030.79" y2="1150.12"/>
  <line id="right-margin-Regular-M" style="fill:none;stroke:#00AEEF;stroke-width:0.5;opacity:1.0;" x1="1499.92" x2="1499.92" y1="1030.79" y2="1150.12"/>
 </g>
 <g id="Symbols">
  <g id="Black-L" transform="matrix(1 0 0 1 2864.13 1556)">
   <path class="hierarchical-0:secondary SFSymbolsPreview4D4D4D" d="M38.67-8.12L38.67 13.42C38.67 17.37 41.16 19.63 45.06 19.63L93.51 19.63C97.37 19.63 99.85 17.25 99.85 13.36L99.85-8.12L38.67-8.12Z"/>
   <path class="hierarchical-1:primary SFSymbolsPreviewFFFFFF" d="M38.67-84.21L38.67 13.41C38.67 17.37 41.16 19.63 45.07 19.63L93.51 19.63C97.37 19.63 99.85 17.25 99.85 13.36L99.85-84.15C99.85-88.05 97.37-90.42 93.51-90.42L45.07-90.42C41.16-90.42 38.67-88.16 38.67-84.21ZM44.53 5.75C44.53 8.65 46.88 11 49.79 11L88.75 11C91.65 11 94 8.65 94 5.75C94 2.85 91.65 0.5 88.75 0.5L49.79 0.5C46.88 0.5 44.53 2.85 44.53 5.75ZM18.69-91.21C18.69-103.59 27.35-111.92 40.23-111.92L99.51-111.92C111.69-111.92 119.85-103.59 119.85-91.15L119.85 20.36C119.85 32.8 111.69 41.13 99.51 41.13L40.23 41.13C27.35 41.13 18.69 32.8 18.69 20.42L18.69-91.21Z"/>
  </g>
  <g id="Heavy-L" transform="matrix(1 0 0 1 2569.93 1556)">
   <path class="hierarchical-0:secondary SFSymbolsPreview4D4D4D" d="M36.19-7.17L36.19 13.35C36.19 17.64 38.83 20.05 43.12 20.05L90.41 20.05C94.69 20.05 97.29 17.55 97.29 13.31L97.29-7.17L36.19-7.17Z"/>
   <path class="hierarchical-1:primary SFSymbolsPreviewFFFFFF" d="M36.2-84.1L36.2 13.35C36.2 17.64 38.83 20.05 43.12 20.05L90.41 20.05C94.69 20.05 97.29 17.55 97.29 13.31L97.29-84.05C97.29-88.3 94.69-90.8 90.41-90.8L43.12-90.8C38.83-90.8 36.2-88.39 36.2-84.1ZM41.93 6.44C41.93 9.27 44.22 11.56 47.05 11.56L86.46 11.56C89.29 11.56 91.59 9.27 91.59 6.44C91.59 3.61 89.29 1.31 86.46 1.31L47.05 1.31C44.22 1.31 41.93 3.61 41.93 6.44ZM18.69-89.8C18.69-101.58 26.89-109.45 39.14-109.45L95.28-109.45C106.99-109.45 114.82-101.58 114.82-89.76L114.82 19.02C114.82 30.84 106.99 38.71 95.28 38.71L39.14 38.71C26.89 38.71 18.69 30.84 18.69 19.06L18.69-89.8Z"/>
  </g>
  <g id="Bold-L" transform="matrix(1 0 0 1 2276.3 1556)">
   <path class="hierarchical-0:secondary SFSymbolsPreview4D4D4D" d="M33.13-6.01L33.13 13.19C33.13 17.98 35.94 20.58 40.79 20.58L86.55 20.58C91.41 20.58 94.18 17.92 94.18 13.16L94.18-6.01L33.13-6.01Z"/>
   <path class="hierarchical-1:primary SFSymbolsPreviewFFFFFF" d="M33.13-83.87L33.13 13.19C33.13 17.98 35.94 20.58 40.79 20.58L86.55 20.58C91.41 20.58 94.18 17.92 94.18 13.16L94.18-83.84C94.18-88.6 91.41-91.27 86.55-91.27L40.79-91.27C35.94-91.27 33.13-88.66 33.13-83.87ZM38.71 7.28C38.71 10.02 40.94 12.24 43.68 12.24L83.67 12.24C86.41 12.24 88.63 10.02 88.63 7.28C88.63 4.54 86.41 2.31 83.67 2.31L43.68 2.31C40.94 2.31 38.71 4.54 38.71 7.28ZM18.69-88.06C18.69-99.17 26.27-106.46 37.82-106.46L90.1-106.46C101.29-106.46 108.66-99.17 108.66-88.03L108.66 17.35C108.66 28.49 101.29 35.78 90.1 35.78L37.82 35.78C26.27 35.78 18.69 28.49 18.69 17.38L18.69-88.06Z"/>
  </g>
  <g id="Semibold-L" transform="matrix(1 0 0 1 1981.71 1556)">
   <path class="hierarchical-0:secondary SFSymbolsPreview4D4D4D" d="M31.02-5.22L31.02 13.08C31.02 18.22 33.95 20.95 39.19 20.95L83.9 20.95C89.16 20.95 92.05 18.18 92.05 13.06L92.05-5.22L31.02-5.22Z"/>
   <path class="hierarchical-1:primary SFSymbolsPreview212121" d="M18.69-86.86C18.69-97.5 25.85-104.4 36.91-104.4L86.54-104.4C97.36-104.4 104.42-97.5 104.42-86.84L104.42 16.2C104.42 26.86 97.36 33.76 86.54 33.76L36.91 33.76C25.85 33.76 18.69 26.86 18.69 16.22L18.69-86.86ZM31.02-83.71L31.02 13.07C31.02 18.22 33.95 20.94 39.19 20.94L83.9 20.94C89.16 20.94 92.04 18.18 92.04 13.05L92.04-83.69C92.04-88.82 89.16-91.6 83.9-91.6L39.19-91.6C33.95-91.6 31.02-88.85 31.02-83.71ZM36.5 7.86C36.5 10.54 38.67 12.71 41.36 12.71L81.75 12.71C84.43 12.71 86.61 10.54 86.61 7.86C86.61 5.17 84.43 3 81.75 3L41.36 3C38.67 3 36.5 5.17 36.5 7.86Z"/>
  </g>
  <g id="Medium-L" transform="matrix(1 0 0 1 1686.61 1556)">
   <path class="hierarchical-0:secondary SFSymbolsPreview4D4D4D" d="M29.43-4.6L29.43 12.98C29.43 18.39 32.45 21.22 37.98 21.22L81.89 21.22C87.45 21.22 90.43 18.37 90.43 12.97L90.43-4.6L29.43-4.6Z"/>
   <path class="hierarchical-1:primary SFSymbolsPreview212121" d="M18.69-85.95C18.69-96.24 25.54-102.83 36.23-102.83L83.84-102.83C94.39-102.83 101.21-96.24 101.21-85.93L101.21 15.33C101.21 25.63 94.39 32.23 83.84 32.23L36.23 32.23C25.54 32.23 18.69 25.63 18.69 15.34L18.69-85.95ZM29.43-83.59L29.43 12.98C29.43 18.39 32.45 21.22 37.98 21.22L81.89 21.22C87.45 21.22 90.43 18.37 90.43 12.97L90.43-83.58C90.43-88.98 87.45-91.85 81.89-91.85L37.98-91.85C32.45-91.85 29.43-89 29.43-83.59ZM33.76 8.31C33.76 10.95 35.9 13.09 38.53 13.09L79.23 13.09C81.87 13.09 84.01 10.95 84.01 8.31C84.01 5.68 81.87 3.54 79.23 3.54L38.53 3.54C35.9 3.54 33.76 5.68 33.76 8.31Z"/>
  </g>
  <g id="Regular-L" transform="matrix(1 0 0 1 1391.99 1556)">
   <path class="hierarchical-0:secondary SFSymbolsPreview4D4D4D" d="M27.33-3.83L27.33 12.87C27.33 18.62 30.48 21.58 36.39 21.58L79.26 21.58C85.22 21.58 88.31 18.62 88.31 12.87L88.31-3.83L27.33-3.83Z"/>
   <path class="hierarchical-1:primary SFSymbolsPreviewFFFFFF" d="M27.33-83.43L27.33 12.87C27.33 18.62 30.48 21.58 36.39 21.58L79.26 21.58C85.22 21.58 88.31 18.62 88.31 12.87L88.31-83.43C88.31-89.19 85.22-92.17 79.26-92.17L36.39-92.17C30.48-92.17 27.33-89.19 27.33-83.43ZM32.63 8.88C32.63 11.46 34.72 13.55 37.3 13.55L78.4 13.55C80.97 13.55 83.06 11.46 83.06 8.88C83.06 6.3 80.97 4.21 78.4 4.21L37.3 4.21C34.72 4.21 32.63 6.3 32.63 8.88ZM18.69-84.75C18.69-94.59 25.12-100.79 35.33-100.79L80.32-100.79C90.5-100.79 97.01-94.59 97.01-84.75L97.01 14.19C97.01 24.03 90.5 30.23 80.32 30.23L35.33 30.23C25.12 30.23 18.69 24.03 18.69 14.19L18.69-84.75Z"/>
  </g>
  <g id="Light-L" transform="matrix(1 0 0 1 1097.11 1556)">
   <path class="hierarchical-0:secondary SFSymbolsPreview4D4D4D" d="M25.32-3.22L86.7-3.22L86.7 12.18C86.7 18.85 83.41 22.02 76.61 22.02L35.4 22.02C28.64 22.02 25.32 18.85 25.32 12.18L25.32-3.22Z"/>
   <path class="hierarchical-1:primary SFSymbolsPreviewFFFFFF" d="M25.32-82.71L25.32 12.18C25.32 18.85 28.64 22.02 35.4 22.02L76.61 22.02C83.42 22.02 86.7 18.85 86.7 12.18L86.7-82.71C86.7-89.38 83.42-92.59 76.61-92.59L35.4-92.59C28.64-92.59 25.32-89.38 25.32-82.71ZM30.61 9.4C30.61 11.93 32.66 13.97 35.18 13.97L76.87 13.97C79.39 13.97 81.44 11.93 81.44 9.4C81.44 6.87 79.39 4.83 76.87 4.83L35.18 4.83C32.66 4.83 30.61 6.87 30.61 9.4ZM18.69-83.55C18.69-93.41 24.58-99.17 34.67-99.17L77.35-99.17C87.39-99.17 93.36-93.41 93.36-83.55L93.36 13.03C93.36 22.88 87.39 28.64 77.35 28.64L34.67 28.64C24.58 28.64 18.69 22.88 18.69 13.03L18.69-83.55Z"/>
  </g>
  <g id="Thin-L" transform="matrix(1 0 0 1 802.825 1556)">
   <path class="hierarchical-0:secondary SFSymbolsPreview4D4D4D" d="M22.641-2.39L22.641 11.27C22.641 19.15 26.184 22.6 34.087 22.6L73.101 22.6C81.013 22.6 84.548 19.15 84.548 11.27L84.548-2.39L22.641-2.39Z"/>
   <path class="hierarchical-1:primary SFSymbolsPreview212121" d="M18.69-81.97C18.69-91.85 23.84-97.03 33.782-97.03L73.404-97.03C83.275-97.03 88.505-91.85 88.505-81.97L88.505 11.48C88.505 21.37 83.275 26.55 73.404 26.55L33.782 26.55C23.84 26.55 18.69 21.37 18.69 11.48L18.69-81.97ZM22.64-81.75L22.64 11.27C22.64 19.15 26.183 22.6 34.086 22.6L73.1 22.6C81.012 22.6 84.547 19.15 84.547 11.27L84.547-81.75C84.547-89.63 81.012-93.15 73.1-93.15L34.086-93.15C26.183-93.15 22.64-89.63 22.64-81.75ZM27.916 10.11C27.916 12.56 29.906 14.55 32.361 14.55L74.831 14.55C77.286 14.55 79.276 12.56 79.276 10.11C79.276 7.65 77.286 5.66 74.831 5.66L32.361 5.66C29.906 5.66 27.916 7.65 27.916 10.11Z"/>
  </g>
  <g id="Ultralight-L" transform="matrix(1 0 0 1 507.355 1556)">
   <path class="hierarchical-0:secondary SFSymbolsPreview4D4D4D" d="M21.27-1.94L21.27 10.81C21.27 19.31 24.929 22.9 33.415 22.9L71.304 22.9C79.785 22.9 83.449 19.31 83.449 10.81L83.449-1.94L21.27-1.94Z"/>
   <path class="hierarchical-1:primary SFSymbolsPreview212121" d="M33.33-95.93C23.465-95.93 18.69-91.04 18.69-81.15L18.69 10.7C18.69 20.59 23.465 25.48 33.33 25.48L71.388 25.48C81.168 25.48 86.023 20.59 86.023 10.7L86.023-81.15C86.023-91.04 81.168-95.93 71.388-95.93L33.33-95.93ZM21.27 10.81L21.27-81.26C21.27-89.76 24.929-93.43 33.414-93.43L71.303-93.43C79.784-93.43 83.448-89.76 83.448-81.26L83.448 10.81C83.448 19.31 79.784 22.9 71.303 22.9L33.414 22.9C24.929 22.9 21.27 19.31 21.27 10.81ZM30.922 14.86C28.503 14.86 26.542 12.9 26.542 10.48C26.542 8.06 28.503 6.1 30.922 6.1L73.792 6.1C76.211 6.1 78.172 8.06 78.172 10.48C78.172 12.9 76.211 14.86 73.792 14.86L30.922 14.86Z"/>
  </g>
  <g id="Black-M" transform="matrix(1 0 0 1 2873.61 1126)">
   <path class="hierarchical-0:secondary SFSymbolsPreview4D4D4D" d="M36.02-14.97L36.02 2.42C36.02 5.31 37.87 6.97 40.67 6.97L78.97 6.97C81.72 6.97 83.55 5.2 83.55 2.36L83.55-14.97L36.02-14.97Z"/>
   <path class="hierarchical-1:primary SFSymbolsPreview212121" d="M36.22-96.55C25.73-96.55 18.69-89.76 18.69-79.65L18.69 8.89C18.69 19.01 25.73 25.79 36.22 25.79L84.55 25.79C94.36 25.79 100.9 19.01 100.9 8.83L100.9-79.59C100.9-89.76 94.36-96.55 84.55-96.55L36.22-96.55ZM36.02 2.42L36.02-73.17C36.02-76.07 37.87-77.73 40.67-77.73L78.97-77.73C81.72-77.73 83.55-75.96 83.55-73.12L83.55 2.36C83.55 5.2 81.72 6.97 78.97 6.97L40.67 6.97C37.87 6.97 36.02 5.32 36.02 2.42ZM44.23 0.17C41.93 0.17 40.06-1.7 40.06-4C40.06-6.3 41.93-8.17 44.23-8.17L75.35-8.17C77.65-8.17 79.52-6.3 79.52-4C79.52-1.7 77.65 0.17 75.35 0.17L44.23 0.17Z"/>
  </g>
  <g id="Heavy-M" transform="matrix(1 0 0 1 2579.19 1126)">
   <path class="hierarchical-0:secondary SFSymbolsPreview4D4D4D" d="M33.79-14.09L33.79 2.42C33.79 5.56 35.75 7.34 38.85 7.34L76.18 7.34C79.25 7.34 81.2 5.47 81.2 2.38L81.2-14.09L33.79-14.09Z"/>
   <path class="hierarchical-1:primary SFSymbolsPreviewFFFFFF" d="M33.79-73.13L33.79 2.42C33.79 5.56 35.75 7.34 38.85 7.34L76.18 7.34C79.25 7.34 81.2 5.48 81.2 2.38L81.2-73.09C81.2-76.19 79.25-78.05 76.18-78.05L38.85-78.05C35.75-78.05 33.79-76.27 33.79-73.13ZM37.7-3.38C37.7-1.14 39.51 0.67 41.75 0.67L73.26 0.67C75.49 0.67 77.31-1.14 77.31-3.38C77.31-5.61 75.49-7.43 73.26-7.43L41.75-7.43C39.51-7.43 37.7-5.61 37.7-3.38ZM18.69-78.38C18.69-87.91 25.32-94.28 35.22-94.28L80.68-94.28C90.05-94.28 96.31-87.91 96.31-78.34L96.31 7.63C96.31 17.19 90.05 23.57 80.68 23.57L35.22 23.57C25.32 23.57 18.69 17.19 18.69 7.67L18.69-78.38Z"/>
  </g>
  <g id="Bold-M" transform="matrix(1 0 0 1 2285.04 1126)">
   <path class="hierarchical-0:secondary SFSymbolsPreview4D4D4D" d="M31.29-13.11L31.29 2.42C31.29 5.84 33.38 7.75 36.82 7.75L73.05 7.75C76.5 7.75 78.56 5.78 78.56 2.39L78.56-13.11L31.29-13.11Z"/>
   <path class="hierarchical-1:primary SFSymbolsPreview212121" d="M34.1-91.75C24.87-91.75 18.69-85.83 18.69-76.97L18.69 6.31C18.69 15.17 24.87 21.09 34.1 21.09L76.35 21.09C85.24 21.09 91.18 15.17 91.18 6.28L91.18-76.94C91.18-85.83 85.24-91.75 76.35-91.75L34.1-91.75ZM31.29 2.42L31.29-73.08C31.29-76.5 33.38-78.42 36.82-78.42L73.05-78.42C76.5-78.42 78.56-76.44 78.56-73.06L78.56 2.39C78.56 5.78 76.5 7.75 73.05 7.75L36.82 7.75C33.38 7.75 31.29 5.84 31.29 2.42ZM38.97 1.23C36.8 1.23 35.05-0.52 35.05-2.69C35.05-4.85 36.8-6.6 38.97-6.6L70.91-6.6C73.08-6.6 74.83-4.85 74.83-2.69C74.83-0.52 73.08 1.23 70.91 1.23L38.97 1.23Z"/>
  </g>
  <g id="Semibold-M" transform="matrix(1 0 0 1 1990.1 1126)">
   <path class="hierarchical-0:secondary SFSymbolsPreview4D4D4D" d="M29.56-12.44L29.56 2.42C29.56 5.96 31.66 7.96 35.21 8.03L71.1 8.03C74.68 7.96 76.74 5.93 76.74 2.41L76.74-12.44L29.56-12.44Z"/>
   <path class="hierarchical-1:primary SFSymbolsPreview212121" d="M33.32-90C24.55-90 18.69-84.4 18.69-75.99L18.69 5.37C18.69 13.77 24.55 19.38 33.32 19.38L73.36 19.38C81.91 19.38 87.65 13.77 87.65 5.35L87.65-75.97C87.65-84.4 81.91-90 73.36-90L33.32-90ZM29.56 2.42L29.56-73.05C29.56-76.65 31.74-78.67 35.42-78.67L70.9-78.67C74.6-78.67 76.74-76.62 76.74-73.03L76.74 2.41C76.74 5.99 74.6 8.04 70.9 8.04L35.42 8.04C31.74 8.04 29.56 6.03 29.56 2.42ZM37.05 1.63C34.94 1.63 33.22-0.09 33.22-2.2C33.22-4.31 34.94-6.03 37.05-6.03L69.29-6.03C71.4-6.03 73.11-4.31 73.11-2.2C73.11-0.09 71.4 1.63 69.29 1.63L37.05 1.63Z"/>
  </g>
  <g id="Medium-M" transform="matrix(1 0 0 1 1694.73 1126)">
   <path class="hierarchical-0:secondary SFSymbolsPreview4D4D4D" d="M28.25-11.95L28.25 2.43C28.25 6.15 30.47 8.23 34.29 8.25L69.33 8.25C73.17 8.23 75.35 6.13 75.35 2.42L75.35-11.95L28.25-11.95Z"/>
   <path class="hierarchical-1:primary SFSymbolsPreview212121" d="M32.73-88.68C24.3-88.68 18.69-83.31 18.69-75.25L18.69 4.65C18.69 12.72 24.3 18.08 32.73 18.08L71.09 18.08C79.38 18.08 84.96 12.72 84.96 4.64L84.96-75.24C84.96-83.31 79.38-88.68 71.09-88.68L32.73-88.68ZM28.25 2.43L28.25-73.02C28.25-76.77 30.5-78.86 34.35-78.86L69.26-78.86C73.15-78.86 75.35-76.75 75.35-73.01L75.35 2.42C75.35 6.15 73.15 8.25 69.26 8.25L34.35 8.25C30.5 8.25 28.25 6.17 28.25 2.43ZM35.59 1.92C33.51 1.92 31.83 0.23 31.83-1.84C31.83-3.92 33.51-5.6 35.59-5.6L68.05-5.6C70.13-5.6 71.81-3.92 71.81-1.84C71.81 0.23 70.13 1.92 68.05 1.92L35.59 1.92Z"/>
  </g>
  <g id="Regular-M" transform="matrix(1 0 0 1 1399.77 1126)">
   <path class="hierarchical-0:secondary SFSymbolsPreview4D4D4D" d="M67.5 8.53C71.41 8.4 73.56 6.24 73.56 2.43L73.56-11.27L50.05-11.27L26.54-11.27L26.54 2.43C26.54 6.24 28.74 8.4 32.61 8.53L67.5 8.53Z"/>
   <path class="hierarchical-1:primary SFSymbolsPreview212121" d="M31.97-86.95C23.99-86.95 18.69-81.9 18.69-74.28L18.69 3.72C18.69 11.33 23.99 16.39 31.97 16.39L68.13 16.39C76.1 16.39 81.46 11.33 81.46 3.72L81.46-74.28C81.46-81.9 76.1-86.95 68.13-86.95L31.97-86.95ZM26.54 2.43L26.54-72.99C26.54-76.92 28.88-79.11 32.97-79.11L67.13-79.11C71.27-79.11 73.56-76.92 73.56-72.99L73.56 2.43C73.56 6.36 71.27 8.53 67.13 8.53L32.97 8.53C28.88 8.53 26.54 6.36 26.54 2.43ZM33.67 2.3C31.65 2.3 30 0.66 30-1.37C30-3.4 31.65-5.04 33.67-5.04L66.42-5.04C68.45-5.04 70.09-3.4 70.09-1.37C70.09 0.66 68.45 2.3 66.42 2.3L33.67 2.3Z"/>
  </g>
  <g id="Light-M" transform="matrix(1 0 0 1 1104.7 1126)">
   <path class="hierarchical-0:secondary SFSymbolsPreview4D4D4D" d="M24.73-10.7L24.73 1.81C24.73 6.56 27.22 8.92 32.08 8.92L64.75 8.92C69.64 8.92 72.1 6.56 72.1 1.81L72.1-10.7L24.73-10.7Z"/>
   <path class="hierarchical-1:primary SFSymbolsPreview212121" d="M31.37-85.5C23.5-85.5 18.69-80.84 18.69-73.21L18.69 2.68C18.69 10.31 23.5 14.96 31.37 14.96L65.47 14.96C73.31 14.96 78.18 10.31 78.18 2.68L78.18-73.21C78.18-80.84 73.31-85.5 65.47-85.5L31.37-85.5ZM24.73 1.81L24.73-72.34C24.73-77.1 27.22-79.48 32.08-79.48L64.75-79.48C69.64-79.48 72.1-77.1 72.1-72.34L72.1 1.81C72.1 6.56 69.64 8.93 64.75 8.93L32.08 8.93C27.22 8.93 24.73 6.56 24.73 1.81ZM31.79 2.7C29.81 2.7 28.21 1.09 28.21-0.89C28.21-2.87 29.81-4.47 31.79-4.47L65.07-4.47C67.05-4.47 68.66-2.87 68.66-0.89C68.66 1.09 67.05 2.7 65.07 2.7L31.79 2.7Z"/>
  </g>
  <g id="Thin-M" transform="matrix(1 0 0 1 810.162 1126)">
   <path class="hierarchical-0:secondary SFSymbolsPreview4D4D4D" d="M22.33-9.94L22.33 1C22.33 6.84 25.026 9.45 30.903 9.45L61.605 9.45C67.493 9.45 70.177 6.84 70.177 1L70.177-9.94L22.33-9.94Z"/>
   <path class="hierarchical-1:primary SFSymbolsPreview212121" d="M30.574-83.57C22.838-83.57 18.69-79.43 18.69-71.78L18.69 1.3C18.69 8.95 22.838 13.09 30.574 13.09L61.934 13.09C69.619 13.09 73.83 8.95 73.83 1.3L73.83-71.78C73.83-79.43 69.619-83.57 61.934-83.57L30.574-83.57ZM22.33 1L22.33-71.48C22.33-77.32 25.026-79.98 30.903-79.98L61.605-79.98C67.494-79.98 70.177-77.32 70.177-71.48L70.177 1C70.177 6.84 67.494 9.45 61.605 9.45L30.903 9.45C25.026 9.45 22.33 6.84 22.33 1ZM29.268 3.22C27.352 3.22 25.798 1.67 25.798-0.25C25.798-2.17 27.352-3.72 29.268-3.72L63.258-3.72C65.175-3.72 66.728-2.17 66.728-0.25C66.728 1.67 65.175 3.22 63.258 3.22L29.268 3.22Z"/>
  </g>
  <g id="Ultralight-M" transform="matrix(1 0 0 1 514.564 1126)">
   <path class="hierarchical-0:secondary SFSymbolsPreview4D4D4D" d="M21.102 0.58L21.102-9.57L69.192-9.57L69.192 0.58C69.192 6.98 66.393 9.71 59.994 9.71L30.3 9.71C23.902 9.71 21.102 6.98 21.102 0.58Z"/>
   <path class="hierarchical-1:primary SFSymbolsPreview212121" d="M30.169-82.59C22.503-82.59 18.69-78.71 18.69-71.05L18.69 0.59C18.69 8.25 22.503 12.12 30.169 12.12L60.126 12.12C67.73 12.12 71.605 8.25 71.605 0.59L71.605-71.05C71.605-78.71 67.73-82.59 60.126-82.59L30.169-82.59ZM21.102 0.58L21.102-71.04C21.102-77.44 23.902-80.24 30.301-80.24L59.994-80.24C66.393-80.24 69.193-77.44 69.193-71.04L69.193 0.58C69.193 6.98 66.393 9.71 59.994 9.71L30.301 9.71C23.902 9.71 21.102 6.98 21.102 0.58ZM27.975 3.48C26.09 3.48 24.563 1.96 24.563 0.07C24.563-1.81 26.09-3.34 27.975-3.34L62.32-3.34C64.205-3.34 65.733-1.81 65.733 0.07C65.733 1.96 64.205 3.48 62.32 3.48L27.975 3.48Z"/>
  </g>
  <g id="Black-S" transform="matrix(1 0 0 1 2881.9 696)">
   <path class="hierarchical-0:secondary SFSymbolsPreview4D4D4D" d="M32.85-19.587L32.85-5.762C32.85-3.516 34.26-2.246 36.41-2.246L66.64-2.246C68.73-2.246 70.15-3.613 70.15-5.81L70.15-19.587L32.85-19.587Z"/>
   <path class="hierarchical-1:primary SFSymbolsPreviewFFFFFF" d="M32.85-64.94L32.85-5.761C32.85-3.515 34.26-2.245 36.41-2.245L66.64-2.245C68.73-2.245 70.15-3.612 70.15-5.81L70.15-64.892C70.15-67.089 68.73-68.456 66.64-68.456L36.41-68.456C34.26-68.456 32.85-67.187 32.85-64.94ZM35.45-10.907C35.45-9.087 36.92-7.612 38.74-7.612L64.25-7.612C66.07-7.612 67.55-9.087 67.55-10.907C67.55-12.727 66.07-14.202 64.25-14.202L38.74-14.202C36.92-14.202 35.45-12.727 35.45-10.907ZM18.69-70.36C18.69-78.466 24.3-83.886 32.7-83.886L71.32-83.886C79.14-83.886 84.31-78.466 84.31-70.312L84.31-0.39C84.31 7.765 79.14 13.185 71.32 13.185L32.7 13.185C24.3 13.185 18.69 7.765 18.69-0.341L18.69-70.36Z"/>
  </g>
  <g id="Heavy-S" transform="matrix(1 0 0 1 2586.94 696)">
   <path class="hierarchical-0:secondary SFSymbolsPreview4D4D4D" d="M31.17-18.912L31.17-5.684C31.17-3.335 32.67-1.984 34.98-1.984L64.56-1.984C66.84-1.984 68.33-3.409 68.33-5.722L68.33-18.912L31.17-18.912Z"/>
   <path class="hierarchical-1:primary SFSymbolsPreviewFFFFFF" d="M31.17-64.99L31.17-5.684C31.17-3.334 32.67-1.984 34.98-1.984L64.56-1.984C66.84-1.984 68.33-3.408 68.33-5.721L68.33-64.953C68.33-67.265 66.84-68.69 64.56-68.69L34.98-68.69C32.67-68.69 31.17-67.34 31.17-64.99ZM33.66-10.45C33.66-8.679 35.1-7.243 36.87-7.243L62.64-7.243C64.41-7.243 65.84-8.679 65.84-10.45C65.84-12.222 64.41-13.658 62.64-13.658L36.87-13.658C35.1-13.658 33.66-12.222 33.66-10.45ZM18.69-69.419C18.69-77.017 24.02-82.138 31.92-82.138L68.36-82.138C75.81-82.138 80.81-77.017 80.81-69.382L80.81-1.292C80.81 6.344 75.81 11.464 68.36 11.464L31.92 11.464C24.02 11.464 18.69 6.344 18.69-1.255L18.69-69.419Z"/>
  </g>
  <g id="Bold-S" transform="matrix(1 0 0 1 2292.19 696)">
   <path class="hierarchical-0:secondary SFSymbolsPreview4D4D4D" d="M29.28-18.153L66.27-18.153L66.27-5.613C66.27-3.172 64.71-1.683 62.22-1.683L33.36-1.683C30.87-1.683 29.28-3.123 29.28-5.589L29.28-18.153Z"/>
   <path class="hierarchical-1:primary SFSymbolsPreviewFFFFFF" d="M29.28-65.037L29.28-5.589C29.28-3.123 30.87-1.683 33.36-1.683L62.22-1.683C64.71-1.683 66.27-3.172 66.27-5.613L66.27-65.013C66.27-67.454 64.71-68.943 62.22-68.943L33.36-68.943C30.87-68.943 29.28-67.503 29.28-65.037ZM31.65-9.915C31.65-8.199 33.04-6.808 34.76-6.808L60.82-6.808C62.53-6.808 63.92-8.199 63.92-9.915C63.92-11.632 62.53-13.023 60.82-13.023L34.76-13.023C33.04-13.023 31.65-11.632 31.65-9.915ZM18.69-68.357C18.69-75.389 23.69-80.174 31.04-80.174L65.02-80.174C72.08-80.174 76.89-75.389 76.89-68.333L76.89-2.293C76.89 4.763 72.08 9.548 65.02 9.548L31.04 9.548C23.69 9.548 18.69 4.763 18.69-2.269L18.69-68.357Z"/>
  </g>
  <g id="Semibold-S" transform="matrix(1 0 0 1 1996.83 696)">
   <path class="hierarchical-0:secondary SFSymbolsPreview4D4D4D" d="M27.99-17.646L27.99-5.529C27.99-2.983 29.64-1.48 32.25-1.48L60.61-1.48C63.25-1.48 64.86-3.014 64.86-5.544L64.86-17.646L27.99-17.646Z"/>
   <path class="hierarchical-1:primary SFSymbolsPreviewFFFFFF" d="M27.99-65.075L27.99-5.529C27.99-2.983 29.64-1.48 32.25-1.48L60.61-1.48C63.25-1.48 64.86-3.014 64.86-5.544L64.86-65.059C64.86-67.589 63.25-69.123 60.61-69.123L32.25-69.123C29.64-69.123 27.99-67.621 27.99-65.075ZM30.27-9.558C30.27-7.88 31.63-6.521 33.31-6.521L59.57-6.521C61.25-6.521 62.61-7.88 62.61-9.558C62.61-11.236 61.25-12.596 59.57-12.596L33.31-12.596C31.63-12.596 30.27-11.236 30.27-9.558ZM18.69-67.631C18.69-74.271 23.47-78.825 30.44-78.825L62.74-78.825C69.52-78.825 74.19-74.271 74.19-67.615L74.19-2.988C74.19 3.668 69.52 8.222 62.74 8.222L30.44 8.222C23.47 8.222 18.69 3.668 18.69-2.973L18.69-67.631Z"/>
  </g>
  <g id="Medium-S" transform="matrix(1 0 0 1 1701.14 696)">
   <path class="hierarchical-0:secondary SFSymbolsPreview4D4D4D" d="M27-17.219L27-5.48C27-2.874 28.7-1.324 31.41-1.324L59.39-1.324C62.13-1.324 63.79-2.892 63.79-5.489L63.79-17.219L27-17.219Z"/>
   <path class="hierarchical-1:primary SFSymbolsPreviewFFFFFF" d="M27-65.101L27-5.48C27-2.874 28.7-1.324 31.41-1.324L59.39-1.324C62.13-1.324 63.79-2.892 63.79-5.489L63.79-65.092C63.79-67.689 62.13-69.257 59.39-69.257L31.41-69.257C28.7-69.257 27-67.707 27-65.101ZM29.22-9.278C29.22-7.629 30.56-6.293 32.21-6.293L58.62-6.293C60.27-6.293 61.6-7.629 61.6-9.278C61.6-10.927 60.27-12.263 58.62-12.263L32.21-12.263C30.56-12.263 29.22-10.927 29.22-9.278ZM18.69-67.077C18.69-73.421 23.3-77.8 29.98-77.8L60.99-77.8C67.57-77.8 72.14-73.421 72.14-67.068L72.14-3.513C72.14 2.84 67.57 7.219 60.99 7.219L29.98 7.219C23.3 7.219 18.69 2.84 18.69-3.504L18.69-67.077Z"/>
  </g>
  <g id="Regular-S" transform="matrix(1 0 0 1 1405.76 696)">
   <path class="hierarchical-0:secondary SFSymbolsPreview4D4D4D" d="M25.72-16.734L25.72-5.421C25.72-2.735 27.48-1.124 30.31-1.124L57.8-1.124C60.68-1.124 62.39-2.735 62.39-5.421L62.39-16.734L25.72-16.734Z"/>
   <path class="hierarchical-1:primary SFSymbolsPreviewFFFFFF" d="M25.72-65.139L25.72-5.422C25.72-2.736 27.48-1.125 30.31-1.125L57.8-1.125C60.68-1.125 62.39-2.736 62.39-5.422L62.39-65.139C62.39-67.824 60.68-69.436 57.8-69.436L30.31-69.436C27.48-69.436 25.72-67.824 25.72-65.139ZM27.86-8.926C27.86-7.315 29.16-6.009 30.78-6.009L57.38-6.009C58.99-6.009 60.3-7.315 60.3-8.926C60.3-10.537 58.99-11.844 57.38-11.844L30.78-11.844C29.16-11.844 27.86-10.537 27.86-8.926ZM18.69-66.359C18.69-72.316 23.08-76.467 29.38-76.467L58.73-76.467C65.02-76.467 69.47-72.316 69.47-66.359L69.47-4.201C69.47 1.756 65.02 5.906 58.73 5.906L29.38 5.906C23.08 5.906 18.69 1.756 18.69-4.201L18.69-66.359Z"/>
  </g>
  <g id="Light-S" transform="matrix(1 0 0 1 1110.51 696)">
   <path class="hierarchical-0:secondary SFSymbolsPreview4D4D4D" d="M24.11-16.219L24.11-5.966C24.11-2.554 26.01-0.776 29.52-0.776L55.7-0.776C59.24-0.776 61.1-2.554 61.1-5.966L61.1-16.219L24.11-16.219Z"/>
   <path class="hierarchical-1:primary SFSymbolsPreviewFFFFFF" d="M24.11-64.564L24.11-5.967C24.11-2.555 26.01-0.777 29.52-0.777L55.69-0.777C59.24-0.777 61.1-2.555 61.1-5.967L61.1-64.564C61.1-67.976 59.24-69.769 55.69-69.769L29.52-69.769C26.01-69.769 24.11-67.976 24.11-64.564ZM26.24-8.502C26.24-6.932 27.52-5.659 29.09-5.659L56.16-5.659C57.73-5.659 59-6.932 59-8.502C59-10.072 57.73-11.344 56.16-11.344L29.09-11.344C27.52-11.344 26.24-10.072 26.24-8.502ZM18.69-65.406C18.69-71.378 22.64-75.181 28.85-75.181L56.37-75.181C62.56-75.181 66.56-71.378 66.56-65.406L66.56-5.125C66.56 0.847 62.56 4.649 56.37 4.649L28.85 4.649C22.64 4.649 18.69 0.847 18.69-5.125L18.69-65.406Z"/>
  </g>
  <g id="Thin-S" transform="matrix(1 0 0 1 815.716 696)">
   <path class="hierarchical-0:secondary SFSymbolsPreview4D4D4D" d="M21.995-15.575L59.403-15.575L59.403-6.684C59.403-2.311 57.343-0.312 52.915-0.312L28.483-0.312C24.069-0.312 21.995-2.311 21.995-6.684L21.995-15.575Z"/>
   <path class="hierarchical-1:primary SFSymbolsPreviewFFFFFF" d="M21.995-63.799L21.995-6.684C21.995-2.311 24.069-0.313 28.483-0.313L52.915-0.313C57.343-0.313 59.403-2.311 59.403-6.684L59.403-63.799C59.403-68.172 57.343-70.205 52.915-70.205L28.483-70.205C24.069-70.205 21.995-68.172 21.995-63.799ZM24.116-7.938C24.116-6.423 25.344-5.195 26.858-5.195L54.553-5.195C56.068-5.195 57.296-6.423 57.296-7.938C57.296-9.452 56.068-10.68 54.553-10.68L26.858-10.68C25.344-10.68 24.116-9.452 24.116-7.938ZM18.69-64.141C18.69-70.133 22.065-73.475 28.153-73.475L53.245-73.475C59.298-73.475 62.722-70.133 62.722-64.141L62.722-6.342C62.722-0.35 59.298 2.992 53.245 2.992L28.153 2.992C22.065 2.992 18.69-0.35 18.69-6.342L18.69-64.141Z"/>
  </g>
  <g id="Ultralight-S" transform="matrix(1 0 0 1 519.99 696)">
   <path class="hierarchical-0:secondary SFSymbolsPreview4D4D4D" d="M20.908-15.219L20.908-7.048C20.908-2.183 23.075-0.072 27.95-0.072L51.49-0.072C56.369-0.072 58.532-2.183 58.532-7.048L58.532-15.219L20.908-15.219Z"/>
   <path class="hierarchical-1:primary SFSymbolsPreviewFFFFFF" d="M20.908-63.408L20.908-7.051C20.908-2.186 23.074-0.075 27.95-0.075L51.489-0.075C56.368-0.075 58.531-2.186 58.531-7.051L58.531-63.408C58.531-68.273 56.368-70.429 51.489-70.429L27.95-70.429C23.074-70.429 20.908-68.273 20.908-63.408ZM23.02-7.645C23.02-6.159 24.224-4.955 25.71-4.955L53.73-4.955C55.216-4.955 56.42-6.159 56.42-7.645C56.42-9.131 55.216-10.335 53.73-10.335L25.71-10.335C24.224-10.335 23.02-9.131 23.02-7.645ZM18.69-63.493C18.69-69.496 21.767-72.602 27.794-72.602L51.645-72.602C57.626-72.602 60.752-69.496 60.752-63.493L60.752-6.966C60.752-0.963 57.626 2.143 51.645 2.143L27.794 2.143C21.767 2.143 18.69-0.963 18.69-6.966L18.69-63.493Z"/>
  </g>
 </g>
</svg>
