<svg id="EXPORT_image" xmlns="http://www.w3.org/2000/svg" width="448" height="200" fill="none"><g clip-path="url(#a)"><circle cx="225.5" cy="100.5" r="41.5" fill="var(--cros-illustration-base-color)"/><path fill="#0364B8" d="m221.263 94.981 8.394 5.069 5.07-2.098a8.24 8.24 0 0 1 3.234-.67h.547a12.51 12.51 0 0 0-17.115-8.34 12.505 12.505 0 0 0-5.442 4.58h.131a9.979 9.979 0 0 1 5.181 1.46Z"/><path fill="#0078D4" d="M221.263 94.98a10.14 10.14 0 0 0-5.221-1.49h-.132a9.99 9.99 0 0 0-5.151 1.477 9.99 9.99 0 0 0-3.646 3.927 9.993 9.993 0 0 0-1.091 5.246 9.982 9.982 0 0 0 1.777 5.054l7.401-3.112 3.336-1.348 7.33-3.042 3.822-1.612-8.425-5.1Z"/><path fill="#1490DF" d="M238.427 97.262h-.548a8.217 8.217 0 0 0-3.223.66l-4.999 2.108 1.45.872 4.755 2.818 2.028 1.237 7.096 4.258a8.098 8.098 0 0 0 .983-3.897 8.123 8.123 0 0 0-1.009-3.891 8.111 8.111 0 0 0-6.574-4.175l.041.01Z"/><path fill="#28A8EA" d="m237.93 104.977-2.028-1.247-4.754-2.849-1.45-.872-3.822 1.612-7.33 3.041-3.295 1.379-7.401 3.123a9.982 9.982 0 0 0 3.573 3.153 9.99 9.99 0 0 0 4.629 1.135h21.827a8.109 8.109 0 0 0 4.164-1.147 8.12 8.12 0 0 0 2.984-3.121l-7.097-4.207Z"/><circle cx="225" cy="100" r="82.5" stroke="var(--cros-illustration-color-1-shade-2)" stroke-width="3"/><circle cx="225" cy="100" r="174" stroke="var(--cros-illustration-color-1-shade-2)" stroke-dasharray="4 12" stroke-linecap="round" stroke-width="3"/></g><defs><clipPath id="a"><rect width="448" height="200" fill="var(--cros-illustration-base-color)" rx="12"/></clipPath></defs></svg>