<svg id="EXPORT_image" xmlns="http://www.w3.org/2000/svg" data-name="Layer 1" viewBox="0 0 448 200"><defs><clipPath id="a"><rect width="448" height="200" rx="12" style="fill:none"/></clipPath></defs><g style="clip-path:url(#a)"><circle cx="224" cy="100" r="174" style="stroke:var(--cros-illustration-color-1-shade-2);stroke-linecap:round;stroke-width:3px;stroke-dasharray:4 12;fill:none"/><path d="M223.16 111.89a2 2 0 0 1-2-2v-6.16H215a2 2 0 0 1-2-2v-1.57a2 2 0 0 1 2-2h6.16V92a2 2 0 0 1 2-2h1.57a2 2 0 0 1 2 2v6.16h6.21a2 2 0 0 1 2 2v1.57a2 2 0 0 1-2 2h-6.21v6.16a2 2 0 0 1-2 2Z" style="fill:var(--cros-illustration-color-1-shade-1)"/><image href="images/connect_one_drive_app_icon.svg" height="200" width="448"/></g></svg>