<svg viewBox="0 0 448 200" fill="none" xmlns="http://www.w3.org/2000/svg"><g clip-path="url(#a)"><circle cx="224" cy="100" r="174" stroke="#d2e3fc" stroke-width="3" stroke-linecap="round" stroke-dasharray="4 12"/><circle cx="299.5" cy="100.5" r="41.5" fill="#fff"/><path d="m292.44 91.364 13.441 8.133 8.117-3.367a13.177 13.177 0 0 1 5.179-1.073h.876a20.074 20.074 0 0 0-5.863-9.784 20.02 20.02 0 0 0-10.239-5 19.994 19.994 0 0 0-11.303 1.4 20.044 20.044 0 0 0-8.715 7.349h.211c2.927.004 5.797.814 8.296 2.342Z" fill="#0364B8"/><path d="M292.44 91.364a16.21 16.21 0 0 0-8.361-2.391h-.211a15.965 15.965 0 0 0-8.247 2.37 16.006 16.006 0 0 0-5.838 6.3 16.054 16.054 0 0 0 1.098 16.526l11.851-4.994 5.341-2.163 11.737-4.88 6.12-2.586-13.49-8.182Z" fill="#0078D4"/><path d="M319.923 95.024h-.876c-1.775 0-3.531.36-5.163 1.057l-8.003 3.384 2.321 1.399 7.614 4.522 3.247 1.984 11.363 6.832a13.035 13.035 0 0 0-.042-12.495 12.993 12.993 0 0 0-10.526-6.7l.065.017Z" fill="#1490DF"/><path d="m319.128 107.401-3.247-2.001-7.614-4.57-2.321-1.4-6.12 2.587-11.737 4.88-5.276 2.212-11.851 5.01A15.958 15.958 0 0 0 284.095 121h34.952c2.347.001 4.65-.635 6.666-1.841a13.003 13.003 0 0 0 4.778-5.007l-11.363-6.751Z" fill="#28A8EA"/><circle cx="148.5" cy="100.5" r="41.5" fill="#fff"/><path d="m143.775 73.06.111-.079c-.267.12-.531.25-.79.39l-15.143 8.212A11.387 11.387 0 0 0 122 91.596v17.736c0 4.18 2.286 8.024 5.954 10.013l3.67 1.99h3.626l15.145-8.434-5.481-3.025a11.388 11.388 0 0 1-5.878-9.972v-5.39c.593-1.163 1.802-3.496 1.892-3.536.091-.041 5.086-1.282 7.572-1.898V73.06h-4.725Z" fill="url(#b)"/><path d="m143.775 73.06.111-.079c-.267.12-.531.25-.79.39l-15.143 8.212A11.387 11.387 0 0 0 122 91.596v17.736c0 4.18 2.286 8.024 5.954 10.013l3.67 1.99h3.626l15.145-8.434-5.481-3.025a11.388 11.388 0 0 1-5.878-9.972v-5.39c.593-1.163 1.802-3.496 1.892-3.536.091-.041 5.086-1.282 7.572-1.898V73.06h-4.725Z" fill="url(#c)"/><path d="M157.964 92.333v7.767c0 4.18-2.286 8.024-5.954 10.013l-15.143 8.21a11.333 11.333 0 0 1-9.82.474c.292.196.594.379.907.548l15.143 8.21a11.332 11.332 0 0 0 10.806 0l15.143-8.21A11.389 11.389 0 0 0 175 109.332v-4.802l-11.358-9.758-5.678-2.439Z" fill="url(#d)"/><path d="M157.964 92.333v7.767c0 4.18-2.286 8.024-5.954 10.013l-15.143 8.21a11.333 11.333 0 0 1-9.82.474c.292.196.594.379.907.548l15.143 8.21a11.332 11.332 0 0 0 10.806 0l15.143-8.21A11.389 11.389 0 0 0 175 109.332v-4.802l-11.358-9.758-5.678-2.439Z" fill="url(#e)"/><path d="m169.047 81.583-15.143-8.212a11.334 11.334 0 0 0-10.018-.39 11.392 11.392 0 0 0-4.85 9.331v11.895l4.342-2.199a11.333 11.333 0 0 1 10.244 0l15.143 7.67a11.387 11.387 0 0 1 6.232 9.907c.002-.084.003-.168.003-.253V91.596c0-4.18-2.285-8.024-5.953-10.013Z" fill="url(#f)"/><path d="m169.047 81.583-15.143-8.212a11.334 11.334 0 0 0-10.018-.39 11.392 11.392 0 0 0-4.85 9.331v11.895l4.342-2.199a11.333 11.333 0 0 1 10.244 0l15.143 7.67a11.387 11.387 0 0 1 6.232 9.907c.002-.084.003-.168.003-.253V91.596c0-4.18-2.285-8.024-5.953-10.013Z" fill="url(#g)"/><path d="M223.16 111.888a2 2 0 0 1-2-2v-6.16H215a2 2 0 0 1-2-2v-1.568a2 2 0 0 1 2-2h6.16V92a2 2 0 0 1 2-2h1.568a2 2 0 0 1 2 2v6.16h6.208a2 2 0 0 1 2 2v1.568a2 2 0 0 1-2 2h-6.208v6.16a2 2 0 0 1-2 2h-1.568Z" fill="#8ab4f8"/></g><defs><radialGradient id="b" cx="0" cy="0" r="1" gradientUnits="userSpaceOnUse" gradientTransform="rotate(112.739 44.656 90.424) scale(55.7516 69.7111)"><stop offset=".06" stop-color="#AE7FE2"/><stop offset="1" stop-color="#0078D4"/></radialGradient><radialGradient id="d" cx="0" cy="0" r="1" gradientUnits="userSpaceOnUse" gradientTransform="rotate(-18.764 423.159 -348.08) scale(38.4313 29.5878)"><stop offset=".111" stop-color="#D59DFF"/><stop offset="1" stop-color="#5E438F"/></radialGradient><radialGradient id="f" cx="0" cy="0" r="1" gradientUnits="userSpaceOnUse" gradientTransform="rotate(-160.513 96.746 35.481) scale(46.2332 45.9547)"><stop offset=".096" stop-color="#50E6FF"/><stop offset="1" stop-color="#436DCD"/></radialGradient><linearGradient id="c" x1="143.373" y1="116.741" x2="139.2" y2="106.805" gradientUnits="userSpaceOnUse"><stop stop-color="#114A8B"/><stop offset="1" stop-color="#0078D4" stop-opacity="0"/></linearGradient><linearGradient id="e" x1="170.128" y1="100.975" x2="163.183" y2="110.801" gradientUnits="userSpaceOnUse"><stop stop-color="#493474"/><stop offset="1" stop-color="#8C66BA" stop-opacity="0"/></linearGradient><linearGradient id="g" x1="139.036" y1="73.367" x2="148.356" y2="73.367" gradientUnits="userSpaceOnUse"><stop stop-color="#2D3F80"/><stop offset="1" stop-color="#436DCD" stop-opacity="0"/></linearGradient><clipPath id="a"><rect width="448" height="200" rx="12" fill="#fff"/></clipPath></defs></svg>