<svg id="EXPORT_image" xmlns="http://www.w3.org/2000/svg" width="448" height="200" viewBox="0 0 448 200" fill="none"><defs><clipPath id="a"><rect width="448" height="200" rx="12"/></clipPath></defs><g clip-path="url(#a)"><circle cx="224" cy="100" r="174" stroke="var(--cros-sys-illo-color1-2)" stroke-width="3" stroke-linecap="round" stroke-dasharray="4 12"/><path d="M223.16 111.888a2 2 0 0 1-2-2v-6.16H215a2 2 0 0 1-2-2v-1.568a2 2 0 0 1 2-2h6.16V92a2 2 0 0 1 2-2h1.568a2 2 0 0 1 2 2v6.16h6.208a2 2 0 0 1 2 2v1.568a2 2 0 0 1-2 2h-6.208v6.16a2 2 0 0 1-2 2h-1.568Z" fill="var(--cros-sys-illo-color1-1)"/><image href="images/connect_one_drive_app_icon.svg" height="200" width="448"/></g></svg>