<svg xmlns="http://www.w3.org/2000/svg" id="Layer_1" data-name="Layer 1" viewBox="0 0 448 200"><defs><radialGradient id="radial-gradient" cx="188.24" cy="133.16" r="1" gradientTransform="matrix(-21.55 51.42 64.29 26.95 -4359.13 -13183.07)" gradientUnits="userSpaceOnUse"><stop offset=".06" stop-color="#ae7fe2"/><stop offset="1" stop-color="#0078d4"/></radialGradient><radialGradient id="radial-gradient-2" cx="183.9" cy="140.09" r="1" gradientTransform="matrix(36.39 -12.36 -9.52 -28.02 -5224.29 6315.75)" gradientUnits="userSpaceOnUse"><stop offset=".11" stop-color="#d59dff"/><stop offset="1" stop-color="#5e438f"/></radialGradient><radialGradient id="radial-gradient-3" cx="192.3" cy="136.05" r="1" gradientTransform="matrix(-43.58 -15.42 -15.33 43.32 10642.96 -2827.09)" gradientUnits="userSpaceOnUse"><stop offset=".1" stop-color="#50e6ff"/><stop offset="1" stop-color="#436dcd"/></radialGradient><linearGradient id="linear-gradient" x1="145.18" x2="141" y1="84.02" y2="93.95" gradientTransform="matrix(1 0 0 -1 0 200)" gradientUnits="userSpaceOnUse"><stop offset="0" stop-color="#114a8b"/><stop offset="1" stop-color="#0078d4" stop-opacity="0"/></linearGradient><linearGradient id="linear-gradient-2" x1="164.41" x2="157.47" y1="103.07" y2="93.24" gradientTransform="matrix(1 0 0 -1 0 200)" gradientUnits="userSpaceOnUse"><stop offset="0" stop-color="#493474"/><stop offset="1" stop-color="#8c66ba" stop-opacity="0"/></linearGradient><linearGradient id="linear-gradient-3" x1="139.04" x2="148.36" y1="109.21" y2="109.21" gradientTransform="matrix(1 0 0 -1 0 200)" gradientUnits="userSpaceOnUse"><stop offset="0" stop-color="#2d3f80"/><stop offset="1" stop-color="#436dcd" stop-opacity="0"/></linearGradient><style>.cls-1{fill:#fff}</style></defs><circle cx="299.5" cy="100.5" r="41.5" class="cls-1"/><path d="m292.44 91.36 13.44 8.14 8.12-3.37a13.16 13.16 0 0 1 5.18-1.07h.87a20 20 0 0 0-36.12-6h.21a16.08 16.08 0 0 1 8.3 2.34Z" style="fill:#0364b8"/><path d="M292.44 91.36a16.25 16.25 0 0 0-8.36-2.36h-.21a16 16 0 0 0-13 25.2l11.85-5 5.34-2.17 11.74-4.88 6.12-2.58Z" style="fill:#0078d4"/><path d="M319.92 95h-.87a13.14 13.14 0 0 0-5.17 1.06l-8 3.38 2.32 1.4 7.62 4.53 3.24 2 11.37 6.83A13 13 0 0 0 319.86 95Z" style="fill:#1490df"/><path d="m319.13 107.4-3.25-2-7.61-4.57-2.27-1.4-6.17 2.57-11.74 4.88-5.28 2.21-11.85 5A15.95 15.95 0 0 0 284.1 121h34.95a13 13 0 0 0 11.44-6.85Z" style="fill:#28a8ea"/><circle cx="148.5" cy="100.5" r="41.5" class="cls-1"/><path d="m143.77 73.06.12-.08c-.27.12-.54.25-.79.39L128 81.58a11.41 11.41 0 0 0-6 10v17.73a11.41 11.41 0 0 0 6 10l3.67 2h3.63l15.15-8.43-5.49-3a11.41 11.41 0 0 1-5.87-10v-5.37c.59-1.16 1.8-3.49 1.89-3.53s5.08-1.28 7.57-1.9v-16Z" style="fill:url(#radial-gradient)"/><path d="m143.77 73.06.12-.08c-.27.12-.54.25-.79.39L128 81.58a11.41 11.41 0 0 0-6 10v17.73a11.41 11.41 0 0 0 6 10l3.67 2h3.63l15.15-8.43-5.49-3a11.41 11.41 0 0 1-5.87-10v-5.37c.59-1.16 1.8-3.49 1.89-3.53s5.08-1.28 7.57-1.9v-16Z" style="fill:url(#linear-gradient)"/><path d="M158 92.33v7.77a11.38 11.38 0 0 1-6 10l-15.14 8.21a11.37 11.37 0 0 1-9.82.48c.29.19.59.38.9.55l15.15 8.21a11.36 11.36 0 0 0 10.8 0l15.15-8.21a11.41 11.41 0 0 0 5.95-10v-4.8l-11.36-9.76Z" style="fill:url(#radial-gradient-2)"/><path d="M158 92.33v7.77a11.38 11.38 0 0 1-6 10l-15.14 8.21a11.37 11.37 0 0 1-9.82.48c.29.19.59.38.9.55l15.15 8.21a11.36 11.36 0 0 0 10.8 0l15.15-8.21a11.41 11.41 0 0 0 5.95-10v-4.8l-11.36-9.76Z" style="fill:url(#linear-gradient-2)"/><path d="m169.05 81.58-15.15-8.21a11.3 11.3 0 0 0-10-.39 11.4 11.4 0 0 0-4.9 9.33v11.9l4.34-2.2a11.33 11.33 0 0 1 10.24 0l15.14 7.67a11.4 11.4 0 0 1 6.24 9.9v-18a11.41 11.41 0 0 0-5.95-10Z" style="fill:url(#radial-gradient-3)"/><path d="m169.05 81.58-15.15-8.21a11.3 11.3 0 0 0-10-.39 11.4 11.4 0 0 0-4.9 9.33v11.9l4.34-2.2a11.33 11.33 0 0 1 10.24 0l15.14 7.67a11.4 11.4 0 0 1 6.24 9.9v-18a11.41 11.41 0 0 0-5.95-10Z" style="fill:url(#linear-gradient-3)"/></svg>