<svg xmlns="http://www.w3.org/2000/svg" xmlns:xlink="http://www.w3.org/1999/xlink" xml:space="preserve" style="enable-background:new 0 0 448 200" viewBox="0 0 448 200"><style>.st0{clip-path:url(#SVGID_00000173136697956536124710000004002100925065020856_)}.st4{fill:url(#SVGID_00000021080509412141823710000007136870070858813593_)}.st5{fill:url(#SVGID_00000012437721065096551750000010829676840888606858_)}.st6{fill:url(#SVGID_00000041274702689331096740000012826996192353384890_)}.st7{fill:url(#SVGID_00000179626773307672832510000009386940324630283408_)}.st8{fill:url(#SVGID_00000052798436535611716100000007665159501939102138_)}.st9{fill:url(#SVGID_00000056427274212823439890000012225188038279059094_)}</style><defs><path id="SVGID_1_" d="M12 0h424c6.6 0 12 5.4 12 12v176c0 6.6-5.4 12-12 12H12c-6.6 0-12-5.4-12-12V12C0 5.4 5.4 0 12 0z"/></defs><clipPath id="SVGID_00000003077751439833384990000017843268318149683610_"><use xlink:href="#SVGID_1_" style="overflow:visible"/></clipPath><g style="clip-path:url(#SVGID_00000003077751439833384990000017843268318149683610_)"><circle cx="225" cy="100" r="82.5" style="fill:none;stroke:#556784;stroke-width:3"/><circle cx="225" cy="100" r="174" style="fill:none;stroke:#556784;stroke-width:3;stroke-linecap:round;stroke-dasharray:4,12"/><circle cx="225.5" cy="100.5" r="41.5" style="fill:#323336"/><radialGradient id="SVGID_00000023973924681393859680000009636512867339569554_" cx="312.566" cy="67.462" r="1" gradientTransform="matrix(-21.55 51.42 -64.29 -26.95 11295.07 -14169.15)" gradientUnits="userSpaceOnUse"><stop offset=".06" style="stop-color:#ae7fe2"/><stop offset="1" style="stop-color:#0078d4"/></radialGradient><path d="m220.8 73.1.1-.1c-.3.1-.5.2-.8.4L205 81.6c-3.7 2-6 5.8-6 10v17.7c0 4.2 2.3 8 6 10l3.7 2h3.6l15.1-8.4-5.5-3c-3.6-2-5.9-5.8-5.9-10v-5.4c.6-1.2 1.8-3.5 1.9-3.5s5.1-1.3 7.6-1.9v-16h-4.7z" style="fill:url(#SVGID_00000023973924681393859680000009636512867339569554_)"/><linearGradient id="SVGID_00000026862449930888423110000009207386793141713586_" x1="222.225" x2="218.045" y1="115.961" y2="106.031" gradientUnits="userSpaceOnUse"><stop offset="0" style="stop-color:#114a8b"/><stop offset="1" style="stop-color:#0078d4;stop-opacity:0"/></linearGradient><path d="m220.8 73.1.1-.1c-.3.1-.5.2-.8.4L205 81.6c-3.7 2-6 5.8-6 10v17.7c0 4.2 2.3 8 6 10l3.7 2h3.6l15.1-8.4-5.5-3c-3.6-2-5.9-5.8-5.9-10v-5.4c.6-1.2 1.8-3.5 1.9-3.5s5.1-1.3 7.6-1.9v-16h-4.7z" style="fill:url(#SVGID_00000026862449930888423110000009207386793141713586_)"/><radialGradient id="SVGID_00000176040618633335548820000011690649566176746136_" cx="306.742" cy="59.399" r="1" gradientTransform="matrix(36.39 -12.36 9.52 28.02 -11516.65 2244.39)" gradientUnits="userSpaceOnUse"><stop offset=".11" style="stop-color:#d59dff"/><stop offset="1" style="stop-color:#5e438f"/></radialGradient><path d="M235 92.3v7.8c0 4.2-2.3 8-6 10l-15.1 8.2c-3 1.6-6.6 1.8-9.8.5l.9.6 15.1 8.2c3.4 1.8 7.4 1.8 10.8 0l15.1-8.2c3.7-2 5.9-5.8 5.9-10v-4.8l-11.4-9.8-5.5-2.5z" style="fill:url(#SVGID_00000176040618633335548820000011690649566176746136_)"/><linearGradient id="SVGID_00000178893334924036980610000007134273658016713367_" x1="241.393" x2="234.453" y1="96.918" y2="106.748" gradientUnits="userSpaceOnUse"><stop offset="0" style="stop-color:#493474"/><stop offset="1" style="stop-color:#8c66ba;stop-opacity:0"/></linearGradient><path d="M235 92.3v7.8c0 4.2-2.3 8-6 10l-15.1 8.2c-3 1.6-6.6 1.8-9.8.5l.9.6 15.1 8.2c3.4 1.8 7.4 1.8 10.8 0l15.1-8.2c3.7-2 5.9-5.8 5.9-10v-4.8l-11.4-9.8-5.5-2.5z" style="fill:url(#SVGID_00000178893334924036980610000007134273658016713367_)"/><radialGradient id="SVGID_00000038415341632842321310000004592402179458006195_" cx="317.259" cy="63.609" r="1" gradientTransform="matrix(-43.58 -15.42 15.33 -43.32 13104.88 7748.99)" gradientUnits="userSpaceOnUse"><stop offset=".1" style="stop-color:#50e6ff"/><stop offset="1" style="stop-color:#436dcd"/></radialGradient><path d="M246.1 81.6 231 73.4c-3.1-1.7-6.8-1.8-10-.4-3.1 2.1-4.9 5.6-4.9 9.3v11.9l4.3-2.2c3.2-1.6 7-1.6 10.2 0l15.1 7.7c3.7 1.9 6.1 5.7 6.2 9.9v-18c.1-4.2-2.2-8-5.8-10z" style="fill:url(#SVGID_00000038415341632842321310000004592402179458006195_)"/><linearGradient id="SVGID_00000118387864761112565940000010157542861745218688_" x1="216.04" x2="225.36" y1="90.79" y2="90.79" gradientUnits="userSpaceOnUse"><stop offset="0" style="stop-color:#2d3f80"/><stop offset="1" style="stop-color:#436dcd;stop-opacity:0"/></linearGradient><path d="M246.1 81.6 231 73.4c-3.1-1.7-6.8-1.8-10-.4-3.1 2.1-4.9 5.6-4.9 9.3v11.9l4.3-2.2c3.2-1.6 7-1.6 10.2 0l15.1 7.7c3.7 1.9 6.1 5.7 6.2 9.9v-18c.1-4.2-2.2-8-5.8-10z" style="fill:url(#SVGID_00000118387864761112565940000010157542861745218688_)"/></g></svg>