<svg id="EXPORT_image" xmlns="http://www.w3.org/2000/svg" width="448" height="200" viewBox="0 0 448 200" fill="none"><g clip-path="url(#a)"><path d="m96 139.474 49.409-27.726s6.416 0 7.7 6c1.283 6-5.134 10.667-5.134 10.667s8.342 1.333 8.984 6.666c.641 5.334-6.417 8.667-6.417 8.667L96 139.474Z" fill="var(--cros-sys-illo-color3)" stroke="var(--cros-sys-illo-color3)" stroke-width="2.5" stroke-linecap="round" stroke-linejoin="round"/><rect x="144.242" y="110.695" width="270.437" height="34.937" rx="2" transform="rotate(-8 144.242 110.695)" fill="var(--cros-sys-illo-color3)"/><path stroke="var(--cros-sys-base_elevated)" stroke-linecap="round" d="m151.593 140.807 261.689-36.778M147.991 115.18l261.69-36.778"/><path d="M338.16 91.889c-4.404.595-8.16-.085-8.16-.085l.5 11.696s.5-2 7-2.5 10 .5 10 .5L344.96 89s-2.396 2.294-6.8 2.889Z" fill="var(--cros-sys-base_elevated)" stroke="var(--cros-sys-illo-color1)" stroke-width="2.5" stroke-linecap="round" stroke-linejoin="round"/><path d="M338.16 91.889c-4.404.595-8.16-.085-8.16-.085l.5 11.696s.5-2 7-2.5 10 .5 10 .5L344.96 89s-2.396 2.294-6.8 2.889Z" fill="var(--cros-sys-illo-color1-2)" stroke="var(--cros-sys-illo-color1)" stroke-width="2.5" stroke-linecap="round" stroke-linejoin="round"/><path d="m290 126.933 2.111 12.302L302.955 147l7.545-22-20.5 1.933Z" fill="var(--cros-sys-base_elevated)"/><path d="M291.222 139 289 126.901 310.5 125" stroke="var(--cros-sys-illo-color1)" stroke-width="2.5" stroke-linecap="round" stroke-linejoin="round"/><path d="M302.257 78.138 308.5 81.5l-2.982 4.817a2.691 2.691 0 0 1-1.666 1.203 2.712 2.712 0 0 0-2.022 2.085c-.636 3.046-1.955 9.179-2.33 9.486-.422.345-16.491-1.38-21.515-1.928-.881-.096-1.589-.758-1.7-1.638-.366-2.907-.882-9.365 1.215-12.525 1.301-1.96 2.822-2.738 4.066-3.013 1.537-.34 3.213-.4 4.657-1.027 1.845-.8 4.553-1.831 6.999-2.212 3.613-.562 7.471.754 8.508 1.145.183.07.356.152.527.245Z" fill="var(--cros-sys-base_elevated)"/><path d="M302.257 78.138 308.5 81.5l-2.982 4.817a2.691 2.691 0 0 1-1.666 1.203 2.712 2.712 0 0 0-2.022 2.085c-.636 3.046-1.955 9.179-2.33 9.486-.422.345-16.491-1.38-21.515-1.928-.881-.096-1.589-.758-1.7-1.638-.366-2.907-.882-9.365 1.215-12.525 1.301-1.96 2.822-2.738 4.066-3.013 1.537-.34 3.213-.4 4.657-1.027 1.845-.8 4.553-1.831 6.999-2.212 3.613-.562 7.471.754 8.508 1.145.183.07.356.152.527.245Z" fill="var(--cros-sys-illo-color1-2)"/><path d="M303.473 146.054S316.5 95.5 342 100.5s16.443 38 15.443 50c-1 12 1.482 13.991-4.943 20.5-5 1.5-9.5 2-15.5 1.5-8.5 11-21.75 19.86-36.74 16.518-32.125-7.16-46.26-46.219-46.26-46.219l26.985-18.227 22.488 21.482Z" fill="var(--cros-sys-base_elevated)"/><path d="M309 82.208s-3.808-4.46-7.721-4.46c-3.913 0-5.218 5.734-5.218 5.734s-2.609 10.194-1.956 13.38c.652 3.185 5.217 4.459 6.521 0 1.305-4.46 2.504-8.92 2.504-8.92l2.609.637" stroke="var(--cros-sys-illo-color1)" stroke-width="2.5" stroke-linecap="round" stroke-linejoin="round"/><path d="M299 78.014s0-1.266-3.295-1.266c-7.726 0-9.225 14.561-8.566 18.993.659 4.432 5.272 3.165 6.589 1.266" stroke="var(--cros-sys-illo-color1)" stroke-width="2.5" stroke-linecap="round" stroke-linejoin="round"/><path d="M287.678 98.12s-5.893 2.514-6.542-2.515c-.648-5.028.828-18.857 8.499-18.857 1.138 0 1.88.152 2.365.35" stroke="var(--cros-sys-illo-color1)" stroke-width="2.5" stroke-linecap="round" stroke-linejoin="round"/><path d="M283.5 81c-8.654-1.235-7.489 8.095-7.488 12.828 0 4.732 4.301 3.857 4.301 3.857M336.5 172.5c18.417 0 20.385-1.088 21-16.5.941-23.582 8.5-55.251-17.62-55.251C313.759 100.749 303 146 303 146" stroke="var(--cros-sys-illo-color1)" stroke-width="2.5" stroke-linecap="round" stroke-linejoin="round"/><path d="M253 144.014s19.489 42.424 52.38 45.59c32.891 3.166 44.62-46.856 44.62-46.856" stroke="var(--cros-sys-illo-color1)" stroke-width="2.5" stroke-linecap="round" stroke-linejoin="round"/><path d="M266.698 103.698 277 125.365 257.5 140l-4.324-8.899s-11.59-3.187-16.097-10.834c-4.508-7.647-8.291-20.63-9.579-21.267-1 0-3.625.625-6.5 1-3.219-.637-.662-9.047 3.201-10.959 3.863-1.912 6.439-3.186 8.37-3.823 1.932-.638 6.439-2.55 9.659-3.187 3.219-.637 5.151 0 10.302 0s9.015 6.373 9.015 6.373 4.507-2.55 5.795 3.186c1.287 5.736-.644 12.108-.644 12.108Z" fill="var(--cros-sys-base_elevated)"/><path d="M266.698 103.698 277 125.365 257.5 140l-4.324-8.899s-11.59-3.187-16.097-10.834c-4.508-7.647-8.291-20.63-9.579-21.267-1 0-3.625.625-6.5 1-3.219-.637-.662-9.047 3.201-10.959 3.863-1.912 6.439-3.186 8.37-3.823 1.932-.638 6.439-2.55 9.659-3.187 3.219-.637 5.151 0 10.302 0s9.015 6.373 9.015 6.373 4.507-2.55 5.795 3.186c1.287 5.736-.644 12.108-.644 12.108Z" fill="var(--cros-sys-illo-color1-2)"/><path d="m310.547 154.32-29.851-30.76L253 144m24-18.252s-4.8-7.508-7.8-14.583-4.2-14.895-9.6-23.739c-5.4-8.843-12.6-4.716-12.6-4.716" stroke="var(--cros-sys-illo-color1)" stroke-width="2.5" stroke-linecap="round" stroke-linejoin="round"/><path d="M257.625 96.413s-1.172-2.016-7.14-10.37c-5.967-8.354-11.519-2.416-11.519-2.416" stroke="var(--cros-sys-illo-color1)" stroke-width="2.5" stroke-linecap="round" stroke-linejoin="round"/><path d="M250.363 98.56s-.57-1.273-7.155-10.134c-6.584-8.862-11.542-2.037-11.542-2.037m10.143 14.237s-4.729-7.421-9.616-12.26c-6.825-4.958-15.021 3.629-11.786 10.745" stroke="var(--cros-sys-illo-color1)" stroke-width="2.5" stroke-linecap="round" stroke-linejoin="round"/><path d="m226 98.657 1.285-1.909s7.508 23.386 13.491 28.636 11.564 5.091 11.564 5.091l5.16 9.025m9-37.752s1.125-6.802 0-11.131c-1.125-4.329-4.5-2.474-4.5-2.474" stroke="var(--cros-sys-illo-color1)" stroke-width="2.5" stroke-linecap="round" stroke-linejoin="round"/><circle cx="215" cy="44" r="11" fill="var(--cros-sys-illo-color2)"/><path d="M53.723 70.85c7.677-5.84 18.802-2.83 22.49 6.083a14.703 14.703 0 0 0 7.902 7.941c8.896 3.73 11.853 14.869 5.977 22.518a14.704 14.704 0 0 0-2.925 10.815c1.218 9.568-6.95 17.699-16.513 16.435a14.7 14.7 0 0 0-10.829 2.874c-7.677 5.839-18.803 2.83-22.49-6.083a14.704 14.704 0 0 0-7.902-7.941c-8.896-3.729-11.853-14.869-5.977-22.518a14.703 14.703 0 0 0 2.925-10.815c-1.218-9.568 6.95-17.699 16.513-16.435a14.7 14.7 0 0 0 10.829-2.874Z" fill="var(--cros-sys-illo-color1-1)"/><path d="M220.029 33.986c2.732-6.859 10.446-10.404 17.396-7.917l29.148 10.625c6.869 2.538 10.269 10.087 7.588 17.023-2.732 6.859-10.446 10.404-17.396 7.917L227.617 51.01c-6.95-2.486-10.269-10.087-7.588-17.023Z" stroke="var(--cros-sys-base_elevated)" stroke-width="3" stroke-miterlimit="10" stroke-linecap="round" stroke-linejoin="round"/><circle cx="337" cy="78" r="14.75" fill="var(--cros-sys-base_elevated)" stroke="var(--cros-sys-illo-color1)" stroke-width="2.5"/><circle cx="337" cy="78" r="14.75" fill="var(--cros-sys-illo-color1-2)" stroke="var(--cros-sys-illo-color1)" stroke-width="2.5"/><path d="M335.789 70.804s-8.185 4.906-14.593 4.838c1.996-4.007 10.637-17.14 24.103-9.028 13.465 8.11 2.614 21.744 2.171 22.352-11.589-7.521-11.681-18.162-11.681-18.162Z" fill="var(--cros-sys-illo-color1)"/><path d="M327.349 80.897c.844 2.594 3.694 4.055 6.302 3.206" stroke="var(--cros-sys-illo-color1)" stroke-width="2.5" stroke-linecap="round" stroke-linejoin="round"/><path d="M313.75 86.248c0 2.247-2.022 4.25-4.75 4.25s-4.75-2.003-4.75-4.25 2.022-4.25 4.75-4.25 4.75 2.003 4.75 4.25Z" fill="var(--cros-sys-illo-color1-2)" stroke="var(--cros-sys-illo-color1)" stroke-width="2.5"/><path d="M345.08 61.295c.619-6.748 6.655-11.769 13.31-11.141 3.715.314 6.965 2.51 8.977 5.335-.155-.941-.155-1.883 0-2.981.619-6.748 6.655-11.77 13.31-11.142 2.476.314 4.643-1.726 4.798-4.236 0-.314 0-.628.155-.942.774-5.806 5.572-10.2 11.298-10.67 1.393-.157 2.631 0 3.869.313 2.477.628 4.953-1.255 5.263-3.923l.619-9.1c.464-7.062 8.048-11.142 13.929-7.376 5.881 3.609 5.881 12.396-.155 16.006l-9.905 5.963a4.3 4.3 0 0 0-1.702 5.492c.773 1.883 1.238 4.08.928 6.276-.619 6.748-6.655 11.77-13.31 11.142h-.155c-2.476-.314-4.643 1.569-4.798 4.08v.627c-.619 6.748-6.655 11.77-13.31 11.141-3.715-.313-6.965-2.51-8.977-5.335.155.942.155 1.883 0 2.982-.619 6.747-6.655 11.769-13.31 11.141-6.655-.785-11.608-6.904-10.834-13.652Z" fill="var(--cros-sys-illo-color1)"/><path stroke="var(--cros-sys-illo-color1)" stroke-width="2.5" stroke-linecap="round" d="M332.25 179.75h82.5"/><path d="m44.697 108.774 13.814 5.68L68.798 92" stroke="var(--cros-sys-illo-color1)" stroke-width="4" stroke-linecap="round" stroke-linejoin="round"/><path stroke="var(--cros-sys-illo-color1)" stroke-width="2.5" stroke-linecap="round" d="M30.25 179.75h249.5"/><path d="M102.281 67.68c11.286 13.343 28.286 21.324 19.972 7.292-16.701-28.188-13.894-41.24-1.865-32.247 12.764 9.542 45.341 40.667 77.912 20.889" stroke="var(--cros-sys-illo-color1-1)" stroke-width="3" stroke-linecap="round"/><path d="m353.5 171.5 3 8H332l5-6.5h7.5l9-1.5Z" fill="var(--cros-sys-illo-color1)"/></g><defs><clipPath id="a"><rect width="448" height="200" rx="12" fill="var(--cros-sys-base_elevated)"/></clipPath></defs></svg>