<svg xmlns="http://www.w3.org/2000/svg" xml:space="preserve" style="enable-background:new 0 0 448 200" viewBox="0 0 448 200"><circle cx="225.5" cy="100.5" r="41.5" style="fill:#fff"/><path d="m218.4 91.4 13.4 8.1 8.1-3.4c1.6-.7 3.4-1.1 5.2-1.1h.9c-2.7-10.7-13.6-17.2-24.3-14.4-4.8 1.2-9.1 4.2-11.8 8.4h.2c3 .1 5.8.9 8.3 2.4z" style="fill:#0364b8"/><path d="M218.4 91.4c-2.5-1.5-5.4-2.3-8.4-2.4h-.2c-8.8 0-16 7.3-15.9 16.1 0 3.3 1 6.4 2.9 9.1l11.9-5 5.3-2.2 11.7-4.9 6.1-2.6-13.4-8.1z" style="fill:#0078d4"/><path d="M245.9 95h-.9c-1.8 0-3.5.4-5.2 1.1l-8 3.4 2.3 1.4 7.6 4.5 3.2 2 11.4 6.8c3.4-6.3 1.1-14.2-5.2-17.6-1.5-.9-3.4-1.5-5.2-1.6z" style="fill:#1490df"/><path d="m245.1 107.4-3.2-2-7.6-4.6-2.3-1.4-6.2 2.6-11.7 4.9-5.3 2.2-11.9 5c3 4.3 7.9 6.9 13.1 6.9h35c4.8 0 9.2-2.6 11.4-6.8l-11.3-6.8z" style="fill:#28a8ea"/></svg>