<svg id="EXPORT_image" width="448" height="200" viewBox="0 0 448 200" fill="none" xmlns="http://www.w3.org/2000/svg"><g clip-path="url(#a)"><path fill-rule="evenodd" clip-rule="evenodd" d="M205.76 178.065c6.948 0 13.099-3.413 16.867-8.655 3.768 5.242 9.919 8.655 16.868 8.655 11.465 0 20.76-9.294 20.76-20.76a20.69 20.69 0 0 0-5.685-14.272 20.694 20.694 0 0 0 5.685-14.273c0-11.465-9.295-20.76-20.76-20.76-6.949 0-13.1 3.413-16.868 8.655-3.768-5.242-9.919-8.655-16.867-8.655-11.465 0-20.76 9.295-20.76 20.76a20.69 20.69 0 0 0 5.685 14.273A20.685 20.685 0 0 0 185 157.305c0 11.466 9.295 20.76 20.76 20.76Z" fill="var(--cros-sys-illo-color1-1)"/><rect x="272.5" y="101.5" width="75" height="75" rx="37.5" stroke="var(--cros-sys-base_elevated)" stroke-width="3"/><path d="M127.493 102.467a14.756 14.756 0 0 1 19.404 0 14.747 14.747 0 0 0 8.701 3.604c7.36.5 13.22 6.36 13.72 13.721a14.757 14.757 0 0 0 3.605 8.701 14.757 14.757 0 0 1 0 19.404 14.754 14.754 0 0 0-3.605 8.701c-.5 7.36-6.36 13.22-13.72 13.72a14.754 14.754 0 0 0-8.701 3.605 14.757 14.757 0 0 1-19.404 0 14.757 14.757 0 0 0-8.701-3.605 14.755 14.755 0 0 1-13.721-13.72 14.747 14.747 0 0 0-3.604-8.701 14.756 14.756 0 0 1 0-19.404 14.75 14.75 0 0 0 3.604-8.701 14.755 14.755 0 0 1 13.721-13.721 14.75 14.75 0 0 0 8.701-3.604Z" fill="var(--cros-sys-base_elevated)"/><path d="M99.867 55.417c-7.475-17.21 9.993-34.678 27.203-27.204a20.679 20.679 0 0 0 16.475 0c17.211-7.474 34.678 9.993 27.204 27.204a20.678 20.678 0 0 0 0 16.475c7.474 17.21-9.993 34.678-27.204 27.203a20.679 20.679 0 0 0-16.475 0c-17.21 7.475-34.678-9.993-27.203-27.203a20.677 20.677 0 0 0 0-16.475Z" fill="var(--cros-sys-illo-color1-2)"/><path d="M185 66.5c0-20.158 16.342-36.5 36.5-36.5H248c6.075 0 11 4.925 11 11v26.5c0 20.158-16.342 36.5-36.5 36.5h-1c-20.158 0-36.5-16.342-36.5-36.5v-1Z" fill="var(--cros-sys-base_elevated)"/><path stroke="var(--cros-sys-illo-color1)" stroke-width="2.5" stroke-linecap="round" d="M28.25 179.75h390.5"/><path d="M319.669 94.923c-3.845 6.687-13.493 6.687-17.338 0l-28.715-49.938c-3.833-6.667.979-14.985 8.669-14.985h57.43c7.69 0 12.502 8.318 8.669 14.985l-28.715 49.938Z" fill="var(--cros-sys-illo-color1-2)"/><path d="M257.562 96.534c.322-.87 1.554-.87 1.876 0l3.629 9.808c.101.274.317.49.591.591l9.807 3.629c.871.322.871 1.554 0 1.876l-9.807 3.629a.998.998 0 0 0-.591.591l-3.629 9.807c-.322.871-1.554.871-1.876 0l-3.629-9.807a.998.998 0 0 0-.591-.591l-9.807-3.629c-.871-.322-.871-1.554 0-1.876l9.807-3.629a.998.998 0 0 0 .591-.591l3.629-9.808Z" fill="var(--cros-sys-illo-color3)"/><path d="M320.925 125.567h-21.313a3.054 3.054 0 0 0-3.045 3.045v21.313a3.054 3.054 0 0 0 3.045 3.045h21.313a3.054 3.054 0 0 0 3.045-3.045v-21.313a3.054 3.054 0 0 0-3.045-3.045Zm-5.328 21.314h-2.284l-3.045-11.418-3.044 11.418h-2.284l-3.654-15.224h2.589l2.344 11.433 2.984-11.433h2.131l2.999 11.433 2.329-11.433h2.588l-3.653 15.224Z" fill="var(--cros-sys-file_ms_word)"/><path d="M147.184 126.45h-20.767a2.967 2.967 0 0 0-2.967 2.967v20.767a2.966 2.966 0 0 0 2.967 2.966h20.767a2.965 2.965 0 0 0 2.966-2.966v-20.767a2.966 2.966 0 0 0-2.966-2.967Zm-4.154 20.767h-2.966l-3.264-5.637-3.263 5.637h-2.967l4.747-7.417-4.747-7.416h2.967l3.263 5.636 3.264-5.636h2.966l-4.747 7.416 4.747 7.417Z" fill="var(--cros-sys-file_ms_excel)"/><path d="M233.5 52.5h-21c-1.65 0-3 1.35-3 3v21c0 1.65 1.35 3 3 3h21c1.65 0 3-1.35 3-3v-21c0-1.65-1.35-3-3-3Zm-13.8 15.6v5.4H217v-15h6.45c2.295 0 3.225.45 4.2 1.335.975.885 1.35 2.055 1.35 3.51 0 1.53-.39 2.7-1.35 3.525-.96.825-1.95 1.23-4.2 1.23h-3.75Zm0-2.1v-5.4h3.45c.99 0 1.755.375 2.25.9.495.525.75 1.08.75 1.875 0 .825-.27 1.425-.75 1.875-.48.465-1.05.75-2.07.75h-3.63Z" fill="var(--cros-sys-file_ms_ppt)"/></g><defs><clipPath id="a"><rect width="448" height="200" rx="12"/></clipPath></defs></svg>