<svg xmlns="http://www.w3.org/2000/svg" xmlns:xlink="http://www.w3.org/1999/xlink" width="15" height="15"><defs><path d="M0 0h18v18H0V0z" id="a"/><path d="M10.12.47l1.16.55 1.05.74.91.91.74 1.04.55 1.17.35 1.27L15 7.5l-.12 1.35-.35 1.27-.55 1.16-.74 1.05-.91.91-1.05.74-1.16.55-1.27.35L7.5 15l-1.35-.12-1.27-.35-1.17-.55-1.04-.74-.91-.91-.74-1.05-.55-1.16-.35-1.27L0 7.5l.12-1.35.35-1.27.55-1.17.74-1.04.91-.91 1.04-.74L4.88.47 6.15.12 7.5 0l1.35.12 1.27.35zM3.31 6.44L2.25 7.5 6 11.25l6.75-6.75-1.06-1.06L6 9.13 3.31 6.44z" id="b"/></defs><use xlink:href="#a" fill-opacity="0"/><use xlink:href="#a" fill-opacity="0" stroke="#000" stroke-opacity="0"/><g><use xlink:href="#b" fill="#4285f4"/><use xlink:href="#b" fill-opacity="0" stroke="#000" stroke-opacity="0"/></g></svg>