<svg xmlns="http://www.w3.org/2000/svg" xmlns:xlink="http://www.w3.org/1999/xlink" width="16" height="16"><defs><path id="a" d="M8 5.3h5.34C12.38 3.32 10.34 2 8 2c-1.86 0-3.54.84-4.62 2.16l1.98 3.42C5.54 6.32 6.68 5.3 8 5.3zm0 5.4c-1.02 0-1.86-.54-2.34-1.38L2.96 4.7C2.36 5.66 2 6.8 2 8c0 3 2.16 5.46 5.04 5.94l1.98-3.42c-.36.12-.66.18-1.02.18zM10.7 8c0-.84-.42-1.62-1.02-2.1h3.96c.24.66.36 1.38.36 2.1 0 3.3-2.7 6-6 6h-.36l2.7-4.68c.24-.36.36-.84.36-1.32zM8 10.1a2.1 2.1 0 1 1 0-4.2 2.1 2.1 0 0 1 0 4.2z"/></defs><use fill="#5F6368" xlink:href="#a" fill-rule="evenodd"/></svg>