<?xml version="1.0" encoding="UTF-8" standalone="no"?>
<svg
   xmlns:dc="http://purl.org/dc/elements/1.1/"
   xmlns:cc="http://creativecommons.org/ns#"
   xmlns:rdf="http://www.w3.org/1999/02/22-rdf-syntax-ns#"
   xmlns:svg="http://www.w3.org/2000/svg"
   xmlns="http://www.w3.org/2000/svg"
   xmlns:sodipodi="http://sodipodi.sourceforge.net/DTD/sodipodi-0.dtd"
   xmlns:inkscape="http://www.inkscape.org/namespaces/inkscape"
   width="130px"
   height="40px"
   viewBox="0 0 130 40"
   version="1.1"
   id="svg4765"
   sodipodi:docname="colored-header.svg"
   inkscape:version="0.92.3 (2405546, 2018-03-11)">
  <metadata
     id="metadata4771">
    <rdf:RDF>
      <cc:Work
         rdf:about="">
        <dc:format>image/svg+xml</dc:format>
        <dc:type
           rdf:resource="http://purl.org/dc/dcmitype/StillImage" />
        <dc:title>ic-ntp-shortcuts-header</dc:title>
      </cc:Work>
    </rdf:RDF>
  </metadata>
  <defs
     id="defs4769" />
  <sodipodi:namedview
     pagecolor="#ffffff"
     bordercolor="#666666"
     borderopacity="1"
     objecttolerance="10"
     gridtolerance="10"
     guidetolerance="10"
     inkscape:pageopacity="0"
     inkscape:pageshadow="2"
     inkscape:window-width="1297"
     inkscape:window-height="688"
     id="namedview4767"
     showgrid="false"
     inkscape:zoom="4.8"
     inkscape:cx="76.144652"
     inkscape:cy="32.314819"
     inkscape:window-x="3486"
     inkscape:window-y="298"
     inkscape:window-maximized="0"
     inkscape:current-layer="svg4765" />
  <!-- Generator: Sketch 54.1 (76490) - https://sketchapp.com -->
  <title
     id="title4758">ic-ntp-shortcuts-header</title>
  <desc
     id="desc4760">Created with Sketch.</desc>
  <path
     style="fill:#d93025;fill-opacity:1;stroke:#1a73e8;stroke-width:0.42092341;stroke-miterlimit:4;stroke-dasharray:none;stroke-opacity:0"
     d="m 52.792125,16.638275 c -1.558053,-0.640709 -2.46799,-1.578762 -3.063032,-3.157678 -0.258437,-0.685749 -0.302859,-1.064041 -0.253341,-2.157386 0.07554,-1.6677974 0.544737,-2.7097496 1.692666,-3.7588922 1.12893,-1.0317787 2.113309,-1.3670063 3.799505,-1.2939114 1.164657,0.050487 1.439108,0.1180822 2.257734,0.5560648 1.700233,0.9096603 2.652276,2.4152882 2.778616,4.3942958 0.16603,2.600723 -1.339494,4.846853 -3.731181,5.566645 -1.067754,0.321347 -2.484458,0.260649 -3.480967,-0.149138 z m 3.677461,-2.238987 C 58.141804,13.055014 58.277858,10.477094 56.75087,9.0695662 55.705568,8.10604 54.548174,7.9476031 53.280665,8.5945264 c -0.664803,0.3393084 -0.94822,0.6565765 -1.321342,1.4791646 -0.598485,1.319424 -0.311237,3.055032 0.667322,4.032083 0.653851,0.652843 1.188222,0.836121 2.296145,0.787527 0.844457,-0.03704 1.066592,-0.107983 1.546796,-0.494013 z"
     id="path4775"
     inkscape:connector-curvature="0" />
  <path
     style="fill:#d93025;fill-opacity:1;stroke:#1a73e8;stroke-width:0.42092341;stroke-miterlimit:4;stroke-dasharray:none;stroke-opacity:0"
     d="m 93.243638,16.791187 c -1.322385,-0.431646 -2.605435,-1.58809 -3.170464,-2.857618 -0.443424,-0.996302 -0.537766,-3.114174 -0.186146,-4.1787327 0.459731,-1.3918707 1.289274,-2.403738 2.498628,-3.0477998 0.656316,-0.3495315 0.897078,-0.3922845 2.209709,-0.3923856 1.750154,-1.347e-4 2.263078,0.211741 3.365322,1.3901286 0.739022,0.7900748 1.5471,2.3122585 1.328555,2.5026125 -0.06993,0.06091 -1.701563,0.761437 -3.625851,1.556728 -1.924288,0.795291 -3.498705,1.501853 -3.498705,1.570138 0,0.285461 1.0896,1.299941 1.564555,1.456691 0.644907,0.212838 1.770254,0.209983 2.343655,-0.0059 0.240652,-0.09062 0.683662,-0.403876 0.984466,-0.696115 l 0.546916,-0.531343 0.815738,0.541619 c 0.448656,0.29789 0.815737,0.60109 0.815737,0.673777 0,0.244635 -1.458021,1.445674 -2.168455,1.786257 -0.873904,0.41895 -2.878317,0.540562 -3.82366,0.231989 z m 1.314899,-6.424686 c 1.257312,-0.5311184 2.17288,-1.0008387 2.17288,-1.1147688 0,-0.3474108 -0.956531,-0.9438591 -1.67065,-1.04174 -0.932951,-0.1278751 -1.864461,0.242135 -2.510919,0.997376 -0.449206,0.5247962 -0.827104,1.4859958 -0.827104,2.1037728 0,0.266282 -0.145753,0.314835 2.835793,-0.94464 z"
     id="path4777"
     inkscape:connector-curvature="0" />
  <path
     style="fill:#1e8e3e;fill-opacity:1;stroke:#1a73e8;stroke-width:0.42092341;stroke-miterlimit:4;stroke-dasharray:none;stroke-opacity:0"
     d="M 85.977501,8.5979031 V 0.64295185 h 1.104855 1.104854 V 8.5979031 16.552854 h -1.104854 -1.104855 z"
     id="path4779"
     inkscape:connector-curvature="0" />
  <path
     style="fill:#1a73e8;fill-opacity:1;stroke:#1a73e8;stroke-width:0.42092341;stroke-miterlimit:4;stroke-dasharray:none;stroke-opacity:0"
     d="m 76.853462,21.598658 c -0.343214,-0.141956 -0.909847,-0.462726 -1.259185,-0.712823 -0.645316,-0.461992 -1.625016,-1.763251 -1.533724,-2.037126 0.02754,-0.08262 0.437826,-0.306096 0.911747,-0.49661 0.822217,-0.330527 0.868306,-0.334119 1.006551,-0.07845 0.07968,0.147368 0.394194,0.508587 0.698913,0.80271 0.996155,0.961517 2.691209,1.078986 3.833419,0.26566 0.566545,-0.403415 0.98745,-1.36764 1.104998,-2.531367 0.109543,-1.08448 -3.39e-4,-1.224342 -0.555555,-0.707086 -0.643892,0.599876 -1.324944,0.81664 -2.55194,0.812228 -1.054528,-0.0038 -1.276472,-0.05685 -2.109672,-0.504311 -3.862174,-2.074153 -3.866917,-7.5505053 -0.0084,-9.6505955 1.098347,-0.5977958 2.689293,-0.6943715 3.771247,-0.2289274 0.41605,0.1789801 0.870894,0.451871 1.010762,0.6064241 0.358633,0.3962852 0.503271,0.3500329 0.503271,-0.1609361 V 6.5355084 h 1.031197 1.031198 v 5.2960496 c 0,3.363351 -0.0605,5.580934 -0.165782,6.076699 -0.358712,1.689134 -1.289475,2.954312 -2.611208,3.549392 -0.95478,0.429866 -3.221381,0.507672 -4.107878,0.141009 z m 3.008287,-6.822942 c 1.131717,-0.427593 1.868493,-1.669606 1.873289,-3.157878 0.0028,-0.86476 -0.0659,-1.157805 -0.425589,-1.8156234 -0.676343,-1.2369441 -1.920296,-1.8165584 -3.204597,-1.4931677 -1.451145,0.3654025 -2.321474,1.597539 -2.321474,3.2865421 0,1.537167 0.698039,2.683174 1.936465,3.179195 0.475504,0.190451 1.638963,0.190957 2.141906,9.28e-4 z"
     id="path5324"
     inkscape:connector-curvature="0" />
  <path
     style="fill:#1a73e8;fill-opacity:1;stroke:#1a73e8;stroke-width:0.42092341;stroke-miterlimit:4;stroke-dasharray:none;stroke-opacity:0"
     d="m 37.702732,16.572061 c -3.608224,-1.03865 -6.260841,-4.438713 -6.260841,-8.0249993 0,-2.2866039 0.798299,-4.1654259 2.489127,-5.8582377 3.117921,-3.12157795 7.698154,-3.49323118 11.097943,-0.9005189 l 0.704548,0.5372957 -0.760012,0.769572 -0.760013,0.769572 -0.462627,-0.352863 C 43.496412,3.317807 42.893279,2.9741312 42.410562,2.7481575 41.624111,2.3799977 41.37134,2.3372843 39.978457,2.3371791 c -1.500588,-1.131e-4 -1.59332,0.0191 -2.676931,0.5546499 -3.83901,1.8973419 -4.670343,7.0194203 -1.632356,10.057408 2.928466,2.928465 8.493062,1.988634 9.608529,-1.622829 0.16848,-0.545475 0.306327,-1.084227 0.306327,-1.197226 0,-0.16852 -0.50316,-0.2054536 -2.798964,-0.2054536 H 39.986098 V 8.818874 7.7140197 h 3.903818 3.903819 v 1.3185742 c 0,0.7252158 -0.07326,1.6698661 -0.162794,2.0992231 -0.548224,2.628905 -2.660726,4.780475 -5.382742,5.482292 -1.197723,0.308808 -3.397293,0.288461 -4.545467,-0.04205 z"
     id="path5326"
     inkscape:connector-curvature="0" />
  <path
     style="fill:#f9ab00;fill-opacity:1;stroke:#1a73e8;stroke-width:0.42092341;stroke-miterlimit:4;stroke-dasharray:none;stroke-opacity:0"
     d="m 64.866306,16.647989 c -1.439659,-0.592221 -2.160555,-1.252384 -2.901767,-2.6573 -0.361404,-0.685017 -0.396953,-0.897517 -0.396953,-2.372851 0,-1.475786 0.03675,-1.6952858 0.41163,-2.4586817 0.535869,-1.0912251 1.754624,-2.2082083 2.866597,-2.6272209 0.69966,-0.2636455 1.07663,-0.309028 2.172388,-0.261528 1.164657,0.050487 1.439108,0.1180822 2.257735,0.5560648 1.687943,0.9030855 2.648433,2.4297048 2.782833,4.4230818 0.130768,1.939493 -0.710405,3.739671 -2.239559,4.79284 -1.466601,1.010086 -3.396096,1.246007 -4.952904,0.605595 z m 3.653558,-2.248701 c 1.16647,-0.93771 1.639777,-2.558997 1.164655,-3.989457 -0.890126,-2.6799185 -4.315102,-2.9848143 -5.575768,-0.4963623 -0.712317,1.4060553 -0.505574,3.0327553 0.523065,4.1155843 0.689046,0.725346 1.200834,0.914267 2.341252,0.864248 0.844457,-0.03704 1.066592,-0.107983 1.546796,-0.494013 z"
     id="path5328"
     inkscape:connector-curvature="0" />
  <path
     style="fill:#dadce0;fill-opacity:0;stroke:#1a73e8;stroke-width:0.42092341;stroke-miterlimit:4;stroke-dasharray:none;stroke-opacity:0"
     d="M 3.7588617,39.742214 C 2.7434871,39.468647 2.1711297,39.11218 1.3945889,38.269732 0.42844335,37.221588 0.13699821,36.450285 0.14665102,34.967094 c 0.006563,-1.008469 0.0770533,-1.395522 0.36218888,-1.988738 0.5191587,-1.080096 1.671775,-2.172239 2.697566,-2.556037 l 0.849882,-0.317981 61.1647091,0.03753 61.164713,0.03753 0.77843,0.410145 c 1.9957,1.051511 3.04206,3.123768 2.65669,5.261441 -0.29425,1.632204 -1.31274,2.917822 -2.90184,3.662936 l -0.82791,0.388197 -60.766989,0.02759 C 12.45324,39.953695 4.4533772,39.929334 3.7588617,39.742214 Z"
     id="path5330"
     inkscape:connector-curvature="0" />
  <path
     style="fill:#dadce0;fill-opacity:1;stroke:none;stroke-width:0.59527564;stroke-miterlimit:4;stroke-dasharray:none;stroke-opacity:0"
     d="M 3.5863687,39.610766 C 3.201034,39.47132 2.5199554,39.050116 2.072861,38.674757 -0.6345187,36.401774 -0.1604641,32.205634 2.9805331,30.640409 L 4.0562879,30.104338 H 64.980795 c 45.632965,0 61.127055,0.06068 61.731505,0.241783 0.44385,0.13298 1.17305,0.555106 1.62044,0.938057 2.8374,2.428712 1.9498,7.048709 -1.59742,8.314586 -1.09987,0.392503 -122.0649315,0.404292 -123.1489513,0.012 z"
     id="path5391"
     inkscape:connector-curvature="0" />
</svg>
