<?xml version="1.0" encoding="UTF-8"?>
<svg width="24px" height="24px" viewBox="0 0 24 24" version="1.1" xmlns="http://www.w3.org/2000/svg" xmlns:xlink="http://www.w3.org/1999/xlink">
    <!-- Generator: Sketch 54.1 (76490) - https://sketchapp.com -->
    <title>ic-ntp-colors</title>
    <desc>Created with Sketch.</desc>
    <defs>
        <path d="M12,3 C7.03,3 3,7.03 3,12 C3,16.97 7.03,21 12,21 C12.83,21 13.5,20.33 13.5,19.5 C13.5,19.11 13.35,18.76 13.11,18.49 C12.88,18.23 12.73,17.88 12.73,17.5 C12.73,16.67 13.4,16 14.23,16 L16,16 C18.76,16 21,13.76 21,11 C21,6.58 16.97,3 12,3 Z M6.5,12 C5.67,12 5,11.33 5,10.5 C5,9.67 5.67,9 6.5,9 C7.33,9 8,9.67 8,10.5 C8,11.33 7.33,12 6.5,12 Z M9.5,8 C8.67,8 8,7.33 8,6.5 C8,5.67 8.67,5 9.5,5 C10.33,5 11,5.67 11,6.5 C11,7.33 10.33,8 9.5,8 Z M14.5,8 C13.67,8 13,7.33 13,6.5 C13,5.67 13.67,5 14.5,5 C15.33,5 16,5.67 16,6.5 C16,7.33 15.33,8 14.5,8 Z M17.5,12 C16.67,12 16,11.33 16,10.5 C16,9.67 16.67,9 17.5,9 C18.33,9 19,9.67 19,10.5 C19,11.33 18.33,12 17.5,12 Z" id="path-1"></path>
    </defs>
    <g id="ic-ntp-colors" stroke="none" stroke-width="1" fill="none" fill-rule="evenodd">
        <mask id="mask-2" fill="white">
            <use xlink:href="#path-1"></use>
        </mask>
        <use id="Shape" fill="#000000" fill-rule="nonzero" xlink:href="#path-1"></use>
    </g>
</svg>