<?xml version="1.0" encoding="UTF-8"?>
<svg width="130px" height="40px" viewBox="0 0 130 40" version="1.1" xmlns="http://www.w3.org/2000/svg" xmlns:xlink="http://www.w3.org/1999/xlink">
    <!-- Generator: Sketch 54.1 (76490) - https://sketchapp.com -->
    <title>ic-ntp-shortcuts-header</title>
    <desc>Created with Sketch.</desc>
    <g id="ic-ntp-shortcuts-header" stroke="none" stroke-width="1" fill="none" fill-rule="evenodd">
        <path d="M39.9720015,16.9685185 C35.2874047,16.9685185 31.3516129,13.1592593 31.3516129,8.48425926 C31.3516129,3.80925926 35.2874047,0 39.9720015,0 C42.5654235,0 44.4100406,1.01154971 45.7980692,2.34205653 L44.1634828,3.97329435 C43.1681202,3.04376218 41.8166186,2.31471735 39.9720015,2.31471735 C36.5475887,2.31471735 33.8719808,5.0668616 33.8719808,8.48425926 C33.8719808,11.9007456 36.5475887,14.6538012 39.9720015,14.6538012 C42.191021,14.6538012 43.451205,13.7598099 44.2639323,12.9587719 C44.9305513,12.2935185 45.3597444,11.3457602 45.5241162,10.0425926 L39.9720015,10.0425926 L39.9720015,7.71876218 L47.7887946,7.71876218 C47.8709805,8.1288499 47.9166393,8.63006823 47.9166393,9.16773879 C47.9166393,10.9083333 47.4417874,13.0590156 45.9076504,14.5900097 C44.4100406,16.13923 42.5106329,16.9685185 39.9720015,16.9685185 Z M57.7623449,11.6019069 C57.7623449,9.61860141 56.3528333,8.26885183 54.7236576,8.26885183 C53.0944819,8.26885183 51.6849704,9.62778338 51.6849704,11.6019069 C51.6849704,13.5576665 53.0944819,14.934962 54.7236576,14.934962 C56.3528333,14.934962 57.7623449,13.5668485 57.7623449,11.6019069 Z M60.132887,11.6019069 C60.132887,14.7696866 57.7074288,17.1019069 54.7236576,17.1019069 C51.7398864,17.1019069 49.3144282,14.7696866 49.3144282,11.6019069 C49.3144282,8.41576335 51.7398864,6.10190692 54.7236576,6.10190692 C57.7074288,6.10190692 60.132887,8.41576335 60.132887,11.6019069 Z M69.8146875,11.6019069 C69.8146875,9.61860141 68.405176,8.26885183 66.7760003,8.26885183 C65.1468246,8.26885183 63.737313,9.62778338 63.737313,11.6019069 C63.737313,13.5576665 65.1468246,14.934962 66.7760003,14.934962 C68.405176,14.944144 69.8146875,13.5668485 69.8146875,11.6019069 Z M72.176077,11.6019069 C72.176077,14.7696866 69.7506188,17.1019069 66.7668476,17.1019069 C63.7922291,17.1019069 61.3576182,14.7696866 61.3576182,11.6019069 C61.3576182,8.41576335 63.7830764,6.10190692 66.7668476,6.10190692 C69.7506188,6.10190692 72.176077,8.41576335 72.176077,11.6019069 Z M81.7090477,11.6177388 C81.7090477,9.68765502 80.4315539,8.26982095 78.8097711,8.26982095 C77.1608075,8.26982095 75.7836511,9.6785077 75.7836511,11.6177388 C75.7836511,13.529528 77.1608075,14.9199201 78.8097711,14.9199201 C80.4315539,14.9199201 81.7090477,13.529528 81.7090477,11.6177388 Z M83.8110232,6.44035763 L83.8110232,16.2828703 C83.8110232,20.3351315 81.4463007,21.9907958 78.6466868,21.9907958 C76.0101571,21.9907958 74.4345815,20.2070691 73.8366057,18.7526457 L75.9114005,17.8836507 C76.2828703,18.7810024 77.1888943,19.8320291 78.6466868,19.8320291 C80.4415202,19.8320291 81.5459634,18.7069092 81.5459634,16.6121737 L81.5459634,15.8255044 L81.4644212,15.8255044 C80.9307731,16.4941733 79.8969998,17.0695395 78.6013856,17.0695395 C75.8833138,17.0695395 73.4008082,14.6820899 73.4008082,11.6085915 C73.4008082,8.5167985 75.892374,6.10190692 78.6013856,6.10190692 C79.8969998,6.10190692 80.9307731,6.68733518 81.4644212,7.32764734 L81.5459634,7.32764734 L81.5459634,6.44035763 L83.8110232,6.44035763 Z M85.8522419,16.6944995 L85.8522419,0.60190692 L88.3017042,0.60190692 L88.3017042,16.6944995 L85.8522419,16.6944995 Z M91.8324784,11.4274495 L96.71994,9.38905216 C96.4472999,8.70040442 95.6448808,8.22294198 94.6865371,8.22294198 C93.4646717,8.22294198 91.7695614,9.30641443 91.8324784,11.4274495 Z M97.5679511,13.410755 L99.4281043,14.6595029 C98.82629,15.559336 97.3764647,17.1019069 94.8689051,17.1019069 C91.7595312,17.1019069 89.5264354,14.6870488 89.5264354,11.6019069 C89.5264354,8.33312562 91.7868864,6.10190692 94.6044715,6.10190692 C97.4402935,6.10190692 98.82629,8.3698535 99.28221,9.60023747 L99.5284067,10.2246114 L92.2254814,13.2730255 C92.7807918,14.3748618 93.6561581,14.944144 94.8780235,14.944144 C96.1008007,14.944144 96.9479,14.328952 97.5679511,13.410755 Z" id="Combined-Shape" fill="#000000"></path>
        <rect id="Rectangle" fill="#000000" x="0" y="30" width="130" height="10" rx="5"></rect>
    </g>
</svg>