<?xml version="1.0" encoding="UTF-8"?>
<svg width="116px" height="42px" viewBox="0 0 116 42" version="1.1" xmlns="http://www.w3.org/2000/svg" xmlns:xlink="http://www.w3.org/1999/xlink">
    <!-- Generator: Sketch 54.1 (76490) - https://sketchapp.com -->
    <title>ic-ntp-shortcuts-shortcuts</title>
    <desc>Created with Sketch.</desc>
    <g id="ic-ntp-shortcuts-shortcuts" stroke="none" stroke-width="1" fill="none" fill-rule="evenodd">
        <path d="M6.00869565,11.3801242 C2.92962241,11.3801242 0.433540373,8.88404218 0.433540373,5.80496894 C0.433540373,2.72589571 2.92962241,0.229813665 6.00869565,0.229813665 C9.08776889,0.229813665 11.5838509,2.72589571 11.5838509,5.80496894 C11.5838509,8.88404218 9.08776889,11.3801242 6.00869565,11.3801242 Z M58.0434783,11.3801242 C54.964405,11.3801242 52.468323,8.88404218 52.468323,5.80496894 C52.468323,2.72589571 54.964405,0.229813665 58.0434783,0.229813665 C61.1225515,0.229813665 63.6186335,2.72589571 63.6186335,5.80496894 C63.6186335,8.88404218 61.1225515,11.3801242 58.0434783,11.3801242 Z M32.026087,11.3801242 C28.9470137,11.3801242 26.4509317,8.88404218 26.4509317,5.80496894 C26.4509317,2.72589571 28.9470137,0.229813665 32.026087,0.229813665 C35.1051602,0.229813665 37.6012422,2.72589571 37.6012422,5.80496894 C37.6012422,8.88404218 35.1051602,11.3801242 32.026087,11.3801242 Z M84.0608696,11.3801242 C80.9817963,11.3801242 78.4857143,8.88404218 78.4857143,5.80496894 C78.4857143,2.72589571 80.9817963,0.229813665 84.0608696,0.229813665 C87.1399428,0.229813665 89.6360248,2.72589571 89.6360248,5.80496894 C89.6360248,8.88404218 87.1399428,11.3801242 84.0608696,11.3801242 Z M110.078261,11.3801242 C106.999188,11.3801242 104.503106,8.88404218 104.503106,5.80496894 C104.503106,2.72589571 106.999188,0.229813665 110.078261,0.229813665 C113.157334,0.229813665 115.653416,2.72589571 115.653416,5.80496894 C115.653416,8.88404218 113.157334,11.3801242 110.078261,11.3801242 Z M6.00869565,41.1142857 C2.92962241,41.1142857 0.433540373,38.6182037 0.433540373,35.5391304 C0.433540373,32.4600572 2.92962241,29.9639752 6.00869565,29.9639752 C9.08776889,29.9639752 11.5838509,32.4600572 11.5838509,35.5391304 C11.5838509,38.6182037 9.08776889,41.1142857 6.00869565,41.1142857 Z M58.0434783,41.1142857 C54.964405,41.1142857 52.468323,38.6182037 52.468323,35.5391304 C52.468323,32.4600572 54.964405,29.9639752 58.0434783,29.9639752 C61.1225515,29.9639752 63.6186335,32.4600572 63.6186335,35.5391304 C63.6186335,38.6182037 61.1225515,41.1142857 58.0434783,41.1142857 Z M32.026087,41.1142857 C28.9470137,41.1142857 26.4509317,38.6182037 26.4509317,35.5391304 C26.4509317,32.4600572 28.9470137,29.9639752 32.026087,29.9639752 C35.1051602,29.9639752 37.6012422,32.4600572 37.6012422,35.5391304 C37.6012422,38.6182037 35.1051602,41.1142857 32.026087,41.1142857 Z M84.0608696,41.1142857 C80.9817963,41.1142857 78.4857143,38.6182037 78.4857143,35.5391304 C78.4857143,32.4600572 80.9817963,29.9639752 84.0608696,29.9639752 C87.1399428,29.9639752 89.6360248,32.4600572 89.6360248,35.5391304 C89.6360248,38.6182037 87.1399428,41.1142857 84.0608696,41.1142857 Z M110.078261,41.1142857 C106.999188,41.1142857 104.503106,38.6182037 104.503106,35.5391304 C104.503106,32.4600572 106.999188,29.9639752 110.078261,29.9639752 C113.157334,29.9639752 115.653416,32.4600572 115.653416,35.5391304 C115.653416,38.6182037 113.157334,41.1142857 110.078261,41.1142857 Z" id="Combined-Shape" fill="#000000"></path>
    </g>
</svg>