<svg xmlns="http://www.w3.org/2000/svg" width="48" height="48"><path d="M43.5 48h-39C2 48 0 46 0 43.5v-39C0 2 2 0 4.5 0h39C46 0 48 2 48 4.5v39c0 2.5-2 4.5-4.5 4.5z" fill="#3aaae1"/><path d="M39.3 15.5c-1.1.5-2.3.8-3.5.9 1.2-.7 2.2-1.9 2.6-3.3-1.1.7-2.5 1.2-3.8 1.5-1.1-1.1-2.6-1.9-4.4-1.9-3.3 0-6 2.7-6 6 0 .5.1.9.1 1.3-4.9-.3-9.4-2.6-12.4-6.3-.5.9-.8 1.9-.8 3 0 2 1.1 3.9 2.7 5-1 0-1.9-.3-2.7-.8v.1c0 2.9 2 5.3 4.8 5.9-.5.1-1.1.2-1.6.2-.4 0-.8-.1-1.1-.1.8 2.4 3 4.1 5.6 4.2-2 1.6-4.7 2.5-7.4 2.5-.5 0-1 0-1.4-.1 2.7 1.7 5.8 2.7 9.2 2.7 11 0 17-9.1 17-17v-.8c1.3-.8 2.3-1.8 3.1-3z" fill="#fff"/></svg>