<svg width="48" height="48" viewBox="0 0 48 48" fill="none" xmlns="http://www.w3.org/2000/svg"><path d="M11 17h26v20H11V17Z" fill="#8AB4F8" fill-opacity=".4"/><path fill-rule="evenodd" clip-rule="evenodd" d="M8 17a3 3 0 0 1 3-3h26a3 3 0 0 1 3 3v20a3 3 0 0 1-3 3H11a3 3 0 0 1-3-3V17Zm3 0v20h26V17H11Z" fill="#669DF6"/><path fill-rule="evenodd" clip-rule="evenodd" d="M13.5 21a1 1 0 0 1 1-1h1a1 1 0 0 1 1 1v1a1 1 0 0 1-1 1h-1a1 1 0 0 1-1-1v-1ZM18 33h12v2H18v-2Zm2.5-13a1 1 0 0 0-1 1v1a1 1 0 0 0 1 1h1a1 1 0 0 0 1-1v-1a1 1 0 0 0-1-1h-1Zm5 1a1 1 0 0 1 1-1h1a1 1 0 0 1 1 1v1a1 1 0 0 1-1 1h-1a1 1 0 0 1-1-1v-1Zm7-1a1 1 0 0 0-1 1v1a1 1 0 0 0 1 1h1a1 1 0 0 0 1-1v-1a1 1 0 0 0-1-1h-1Zm-7 8a1 1 0 0 1 1-1h1a1 1 0 0 1 1 1v1a1 1 0 0 1-1 1h-1a1 1 0 0 1-1-1v-1Zm7-1a1 1 0 0 0-1 1v1a1 1 0 0 0 1 1h1a1 1 0 0 0 1-1v-1a1 1 0 0 0-1-1h-1Zm-13 1a1 1 0 0 1 1-1h1a1 1 0 0 1 1 1v1a1 1 0 0 1-1 1h-1a1 1 0 0 1-1-1v-1Zm-5-1a1 1 0 0 0-1 1v1a1 1 0 0 0 1 1h1a1 1 0 0 0 1-1v-1a1 1 0 0 0-1-1h-1Z" fill="#669DF6"/><path fill-rule="evenodd" clip-rule="evenodd" d="M16 8a1 1 0 0 0-1 1v11.868h18V9a1 1 0 0 0-1-1H16Zm7.418 18.887L15 20.867h18l-8.418 6.019a1 1 0 0 1-1.164 0Z" fill="#669DF6"/><path d="m25 12 3 3-3 3" stroke="#323336" stroke-width="2" stroke-linecap="square" stroke-linejoin="round"/><path d="M27 15h-6a1 1 0 0 0-1 1v3" stroke="#323336" stroke-width="2" stroke-linejoin="round"/></svg>