<svg width="200" height="200" viewBox="0 0 200 200" fill="none" xmlns="http://www.w3.org/2000/svg"><path d="M192.841 132.878h-28.462a2.242 2.242 0 0 1-2.158-2.158V69.159A2.157 2.157 0 0 1 164.379 67h28.462A2.24 2.24 0 0 1 195 69.159v61.481a2.239 2.239 0 0 1-2.159 2.238Z" fill="#8AB4F8" fill-opacity=".4"/><path d="M192.841 132.878h-28.462a2.242 2.242 0 0 1-2.158-2.158V69.159A2.157 2.157 0 0 1 164.379 67h28.462A2.24 2.24 0 0 1 195 69.159v61.481a2.239 2.239 0 0 1-2.159 2.238Z" fill="#8AB4F8" fill-opacity=".4"/><path d="m82.431 68.789-19.427 2.958a9.623 9.623 0 0 0 2.878 19.028l19.428-3.038a9.592 9.592 0 0 0 7.17-14.604 9.594 9.594 0 0 0-10.049-4.344Zm8.555 8.394a7.117 7.117 0 0 1-5.996 8.155l-19.508 3.038a7.197 7.197 0 1 1-2.158-14.23l19.507-3.039a7.196 7.196 0 0 1 8.155 6.076Z" fill="#EA4335"/><path d="M111.853 75.954a3.596 3.596 0 0 0 3.063-3.557 3.596 3.596 0 0 0-6.868-1.5 3.595 3.595 0 0 0 2.273 4.956 3.6 3.6 0 0 0 1.532.101Z" fill="#5BB974"/><path d="M65.082 80.541 37.98 87.897a.64.64 0 0 0-.32 1.119l19.987 19.827a.723.723 0 0 0 .641.125.71.71 0 0 0 .479-.445l7.195-27.182a.72.72 0 0 0-.88-.8Z" fill="#FBBC04"/><path d="M162.221 92.184a10.47 10.47 0 0 1-7.435-2.638l-2.719-2.399-1.199-.96-.959-.559a8.796 8.796 0 0 0-11.913 3.918 8.95 8.95 0 0 0-.474 6.756 8.95 8.95 0 0 0 4.392 5.156l1.039.4h.08l1.439.4 3.518.719a10.876 10.876 0 0 1 6.636 4.557l1.759 2.639a26.206 26.206 0 0 0 1.598 2.478 13.203 13.203 0 0 0 4.238 3.198" fill="#8AB4F8" fill-opacity=".4"/><path d="m162.221 115.929.879.4a12.717 12.717 0 0 0 16.057-6.744 12.715 12.715 0 0 0-5.743-16.442 13.273 13.273 0 0 0-7.915-1.119l-3.118.16h-.16M137.676 75.475a13.11 13.11 0 1 0 0 26.22 13.11 13.11 0 0 0 0-26.22Zm0 2.398a10.711 10.711 0 0 1 10.508 12.803 10.72 10.72 0 0 1-8.418 8.418 10.71 10.71 0 0 1-10.997-4.556 10.707 10.707 0 0 1 1.332-13.527 10.713 10.713 0 0 1 7.575-3.138ZM182.608 70.198a.644.644 0 0 1 .616.45.63.63 0 0 1 .023.27.636.636 0 0 1-.559.639h-6.316a.718.718 0 0 1-.64-.64.8.8 0 0 1 .56-.72h6.316ZM172.934 71.717a.799.799 0 0 0 .799-.8.726.726 0 0 0-.205-.593.725.725 0 0 0-.594-.206.799.799 0 0 0-.8.8.878.878 0 0 0 .8.8v-.001Z" fill="#669DF6"/><path fill-rule="evenodd" clip-rule="evenodd" d="M147.67 84.829c.784.146 1.54.416 2.239.8l.559.319c.225.861.332 1.748.32 2.638a13.111 13.111 0 0 1-9.354 12.552 9.015 9.015 0 0 1-2.318-1.919 10.796 10.796 0 0 0 9.274-10.633c0-1.287-.244-2.562-.72-3.757ZM57.167 82.7a7.355 7.355 0 0 0 6.876 5.916l-.56 1.999a9.354 9.354 0 0 1-8.234-7.355l1.918-.56Z" fill="#323336"/><path d="M15.114 98.93a13.191 13.191 0 0 1 10.314 24.224c-.834.473-1.72.849-2.639 1.119" fill="#F882FE"/><path d="m8.958 76.064 15.91 54.126 54.845-.72v3.118l-56.044.72a1.52 1.52 0 0 1-1.44-1.04L6 76.943l2.958-.879Z" fill="#669DF6"/></svg>