<svg width="300" height="200" viewBox="0 0 300 200" fill="none" xmlns="http://www.w3.org/2000/svg"><path d="m8.3 182.5 283.8.7" stroke="#4285F4" stroke-width="2" stroke-linecap="round"/><path d="M61.8 115.7a16.998 16.998 0 0 1 19.826-2.6A17.01 17.01 0 0 1 87 117.7a23.901 23.901 0 0 1-.1 28.8l-2.6 3.3c-7.9 10.4-1.2 24.8 11.8 26.4a94.75 94.75 0 0 0 14.1 1.2h6.3a2.5 2.5 0 0 1 2.5 2.4 2.39 2.39 0 0 1-.703 1.697 2.39 2.39 0 0 1-1.697.703h-4.1c-3.5 0-7.1-.1-10.6-.4-6.4-.5-11.2-1.7-14.5-3.4a21.201 21.201 0 0 1-7.1-31.3l.2-.3 2.6-3.3a18.8 18.8 0 0 0-.9-23.9 12 12 0 0 0-17.1-.4l-2.8 2.7c-2.2 2.1-5.5-1.1-3.5-3.4h.2l2.8-2.8z" fill="#4285F4"/><path fill-rule="evenodd" clip-rule="evenodd" d="M162.5 180.3v-1.8a5.004 5.004 0 0 0-1.464-3.536 5.004 5.004 0 0 0-3.536-1.464c-.652 0-1.297-.13-1.899-.382a4.905 4.905 0 0 1-3.001-4.618c.2-2 0-41.1.8-41.5l1.5-7.1a54.797 54.797 0 0 0 .8-18.5l-1-7.7c6.3-6.3 7.3-12.4 4.4-20.6a3 3 0 0 0-3.2-1.9l-13.7 1.9-5.9-11.9a1.002 1.002 0 0 0-1.7 0L129 72.5a18.908 18.908 0 0 0-.1 16.4 7.1 7.1 0 0 1-3.4 9.3c-10.4 2.8-17.9 8.6-21 18.2-2 5.9-4.8 14.6-8.4 26a29 29 0 0 0 18.8 36.5 28.702 28.702 0 0 0 8.7 1.3l38.9.1z" fill="#fff"/><path fill-rule="evenodd" clip-rule="evenodd" d="M134.7 60.6a.338.338 0 0 1 .45-.15.333.333 0 0 1 .15.45c-2.3 7.8-1.6 13.2.9 16.7s4.6 3.1 5.7 6.2c2.1 5.9-4.1 13.3-7.4 17.2-5.2 6.1-7.3 5.9-11.4 10.3-7.3 7.8-12.9 21.5-9.5 32.9 2.6 8.4 8.1 8.7 9.5 17.5 1.1 6.8-.5 15.9-5.3 17.8-4.8 1.9-16.3-6.6-20.7-15.4a34.199 34.199 0 0 1-3.1-18.8c.5-6 2-5.2 7.6-21.9 2.8-8.3 3.5-11.6 6.5-14.9a49.11 49.11 0 0 1 9.9-8c5.3-2.7 8.2-2.3 9.8-5 4.1-7.9-10.2-14 6.9-34.9z" fill="#D2E3FC"/><path d="M134.2 59a3.5 3.5 0 0 0-1.4 1.3l-5.5 11.4a20.696 20.696 0 0 0-.2 18 5.003 5.003 0 0 1-3.2 7c-12.4 3.3-19.3 11.1-22.4 22.5l-2 6.1-2.5 8-2.8 8.6a30.901 30.901 0 0 0 20.1 38.8c3 .992 6.14 1.498 9.3 1.5h38.9a2.002 2.002 0 0 0 1.9-1.9v-1.9a6.799 6.799 0 0 0-6.6-6.9 2.994 2.994 0 0 1-2.216-.77 2.999 2.999 0 0 1-.984-2.13v-.2c.1-2.2-.1-40 .7-41.1.8-1.1 1.6-7.7 1.7-7.9a59.11 59.11 0 0 0 .6-18.3l-.8-6.8c6.2-6.5 7.1-13.4 4.1-21.8v-.2a4.7 4.7 0 0 0-5.1-3L143.5 71l-5.4-10.7a2.902 2.902 0 0 0-3.7-1.4l-.2.1zm.8 1.8a1 1 0 0 1 1.3.3l5.9 11.9 13.7-1.9a3 3 0 0 1 3.2 1.9c2.9 8.2 1.8 14.5-4.4 20.6l1 7.7c.702 5.896.5 11.865-.6 17.7-.6 3-2.1 8.6-2.2 11.5v.6l-.3 37.4a4.9 4.9 0 0 0 4.7 4.9h.2a5 5 0 0 1 5 4.8v2h-38.9a28.702 28.702 0 0 1-8.7-1.3 29.002 29.002 0 0 1-18.8-36.5c2.6-8.1 5.7-18 8.4-26 3.1-9.6 10.6-15.4 21-18.2a7.102 7.102 0 0 0 3.4-9.3 18.999 18.999 0 0 1-.1-16l.2-.4 5.6-11.3c.1-.2.2-.4.4-.4z" fill="#4285F4"/><path d="m143.3 61.2-2.9 8.2 1.7 3.8 6.2-1.1-1.3-10.5a1.903 1.903 0 0 0-1.687-1.707A1.9 1.9 0 0 0 143.3 61.2zm-.8 8.1 2.6-7.5 1.1 8.7-3 .5-.7-1.7z" fill="#4285F4"/><path fill-rule="evenodd" clip-rule="evenodd" d="m137.4 91.8 18.3 1.7a2.402 2.402 0 0 1 2.2 2.6v.9a2.501 2.501 0 0 1-2.5 2.2h-.1l-19.7-1.7 1.8-5.7zm-4.4-.4 2.4.2-1.8 5.6-2.4-.2 1.8-5.6zm-5.4-.5h.2l3.2.3-1.8 5.6-2-.2a2.294 2.294 0 0 1-1.61-.848A2.305 2.305 0 0 1 125.1 94v-.9a2.502 2.502 0 0 1 2.5-2.2zm26.5-18.5 4.8 2.6a3.208 3.208 0 0 0-1.671-2.645 3.204 3.204 0 0 0-3.129.045z" fill="#4285F4"/><path d="M152.9 73.3c.8-.3 1.3 1 .5 1.3h-.1l-10 3.2a.797.797 0 0 1-.81-.481.804.804 0 0 1 .21-.919h.1l10.1-3.1zm.8 2c.7-.5 1.5.6.8 1.2h-.1l-8.2 5.3c-.7.5-1.5-.6-.9-1.1h.1l8.3-5.4z" fill="#8AB4F8"/><path d="M118.6 130.4a17.591 17.591 0 0 1 12.534 4.942A17.615 17.615 0 0 1 136.5 147.7v23.5l15.8 2.1a6.997 6.997 0 0 1 6.2 6.8.993.993 0 0 1-.212.84 1.002 1.002 0 0 1-.788.36.893.893 0 0 1-.9-1 5.199 5.199 0 0 0-4.3-5.1h-.3l-17.4-2.3v-25.4a15.502 15.502 0 0 0-16-15.1.997.997 0 0 1-1-1 .997.997 0 0 1 1-1z" fill="#4285F4"/><path fill-rule="evenodd" clip-rule="evenodd" d="M146.9 135.7c2.2 60.7 86.3 60.9 88.8.3.1-29.4-28.8 2.7-48.8 2.6-20-.1-40-8-40-2.9z" fill="#D2E3FC"/><path d="M222.3 101.5a1 1 0 0 1 1.4 0 47.902 47.902 0 0 1 13.3 33.6c-2.6 62.8-89.5 62.6-91.8-.3a47.598 47.598 0 0 1 13.5-33.4 1.098 1.098 0 0 1 1.4-.1 1 1 0 0 1 0 1.4 46.602 46.602 0 0 0-13 32.1c0 25.2 19.6 45.6 43.9 45.6 39.3.2 58.6-49.6 31.3-77.5a1 1 0 0 1 0-1.4z" fill="#4285F4"/><path fill-rule="evenodd" clip-rule="evenodd" d="M278.974 60.863a1 1 0 0 1 .223 1.397c-.33.456-.677.891-1.039 1.306a1 1 0 0 1-1.507-1.316c.323-.369.632-.757.927-1.164a1 1 0 0 1 1.396-.223zm-50.855-5.045a1 1 0 0 1-1.101.888 29.42 29.42 0 0 0-2.942-.172 1 1 0 1 1 .014-2 31.26 31.26 0 0 1 3.142.183 1 1 0 0 1 .887 1.101zm2.038.345a1 1 0 0 1 1.194-.757c1.024.23 2.032.497 3.018.794a1 1 0 0 1-.576 1.915 41.725 41.725 0 0 0-2.879-.758 1 1 0 0 1-.757-1.194zm-9.136-.498a1 1 0 0 1-.841 1.137 22.36 22.36 0 0 0-2.85.616 1 1 0 1 1-.55-1.923 24.325 24.325 0 0 1 3.104-.671 1 1 0 0 1 1.137.84zm15.967 2.458a1 1 0 0 1 1.295-.567 59.43 59.43 0 0 1 2.857 1.206 1 1 0 1 1-.823 1.822 58.311 58.311 0 0 0-2.762-1.165 1 1 0 0 1-.567-1.296zm6.507 2.872a1 1 0 0 1 1.35-.42 81.265 81.265 0 0 1 2.708 1.491 1 1 0 0 1-.998 1.734 79.875 79.875 0 0 0-2.64-1.455 1 1 0 0 1-.42-1.35zm-29.33-3.516a.999.999 0 0 1-.449 1.341c-.426.213-.85.442-1.271.689a16.65 16.65 0 0 0-1.122.762 1 1 0 0 1-1.189-1.608 18.55 18.55 0 0 1 1.268-.86l.01-.007.01-.006c.464-.272.932-.525 1.402-.76a1 1 0 0 1 1.341.45zm60.934 7.657a1 1 0 0 1-.252 1.392c-.92.638-1.89 1.185-2.897 1.642a1.001 1.001 0 0 1-.828-1.82c.901-.41 1.766-.898 2.585-1.466a1 1 0 0 1 1.392.252zm-25.412-.635a1 1 0 0 1 1.377-.325c.561.346.977.603 1.261.762l.011.006.01.006c.433.257.874.498 1.323.723a1 1 0 0 1-.897 1.788 23.236 23.236 0 0 1-1.436-.785 42.184 42.184 0 0 1-1.323-.799 1 1 0 0 1-.326-1.376zm18.834 3.851a1 1 0 0 1-.777 1.182c-1.078.223-2.175.36-3.28.416a1 1 0 0 1-.1-1.997 19.544 19.544 0 0 0 2.975-.378 1 1 0 0 1 1.182.777zm-59.979-7.031a1 1 0 0 1 .059 1.413 23.268 23.268 0 0 0-1.752 2.159 1 1 0 1 1-1.624-1.168 25.244 25.244 0 0 1 1.904-2.345 1 1 0 0 1 1.413-.06zm47.631 6.498a1 1 0 0 1 1.237-.685c.971.28 1.957.49 2.948.632a1 1 0 1 1-.282 1.98 23.763 23.763 0 0 1-3.218-.69 1 1 0 0 1-.685-1.237zm-51.699-1.104a1 1 0 0 1 .416 1.351 31.163 31.163 0 0 0-1.2 2.543 1 1 0 0 1-1.845-.773c.387-.924.813-1.828 1.278-2.705a1 1 0 0 1 1.351-.416zm-2.717 6.193a1 1 0 0 1 .677 1.241c-.266.906-.496 1.82-.687 2.737a1 1 0 1 1-1.958-.409 37.33 37.33 0 0 1 .726-2.892 1 1 0 0 1 1.242-.677zm-1.476 6.6a1 1 0 0 1 .901 1.091 30.87 30.87 0 0 0-.143 2.808 1 1 0 0 1-2-.009 32.59 32.59 0 0 1 .152-2.989 1 1 0 0 1 1.09-.9zm5.023 6.61a1 1 0 0 1 1.194-.758 8.84 8.84 0 0 1 3.373 1.525 1 1 0 0 1-1.185 1.611 6.851 6.851 0 0 0-2.625-1.184 1 1 0 0 1-.757-1.195zm-2.429-.045a1 1 0 0 1-.939 1.058l-.653.042c.131.928.315 1.817.551 2.656a1 1 0 1 1-1.925.542 22.163 22.163 0 0 1-.611-2.957c-.127.033-.254.07-.382.113a1 1 0 1 1-.627-1.9 7.724 7.724 0 0 1 1.861-.378l.248-.018c.477-.034.953-.07 1.42-.097a1 1 0 0 1 1.057.94zm-7.283 2.117a1 1 0 0 1-.082 1.412 16.206 16.206 0 0 0-2.106 2.299 1 1 0 1 1-1.592-1.21 18.184 18.184 0 0 1 2.368-2.583 1 1 0 0 1 1.412.082zm16.063 1.949a1 1 0 0 1 1.377.32c.291.468.577.973.858 1.517.343.665.528 1.495.541 2.333a1 1 0 0 1-2 .03c-.009-.586-.141-1.102-.319-1.445a19.56 19.56 0 0 0-.778-1.378 1 1 0 0 1 .321-1.377zm-9.813 2.662a1 1 0 0 1 1.367.363 9.886 9.886 0 0 0 1.595 2.088 1 1 0 0 1-1.405 1.424 11.895 11.895 0 0 1-1.92-2.508 1 1 0 0 1 .363-1.367zm-11.092 1.367a1 1 0 0 1 .467 1.335 24.548 24.548 0 0 0-1.187 2.954 1 1 0 0 1-1.9-.625 26.44 26.44 0 0 1 1.285-3.197 1 1 0 0 1 1.335-.467zm20.909 3.856a1 1 0 0 1-.719 1.218c-.681.175-1.446.224-2.293.137l-.04-.004-.039-.007c-.54-.1-1.06-.239-1.557-.415a1 1 0 1 1 .668-1.885c.384.136.787.245 1.211.325.633.061 1.143.017 1.552-.088a1 1 0 0 1 1.217.72zm-23.458 3.428a.999.999 0 0 1 .831 1.144c-.082.52-.151 1.05-.205 1.589a1 1 0 1 1-1.99-.199 30.54 30.54 0 0 1 .22-1.703 1 1 0 0 1 1.144-.831z" fill="#D2E3FC"/><path fill-rule="evenodd" clip-rule="evenodd" d="M139 40.3a12.198 12.198 0 0 1 11.1-13.2c16.2-.7 18.2 22.3 2.1 24.3A12.202 12.202 0 0 1 139 40.3" fill="#FBBC04"/><path fill-rule="evenodd" clip-rule="evenodd" d="m122.5 23.4-13.7 7.3a2.199 2.199 0 0 0-.878 2.975c.183.338.451.623.778.825l13.2 8.1a2.2 2.2 0 0 0 3.3-1.7l.5-15.6a2.201 2.201 0 0 0-3.2-1.9z" fill="#EA4335"/><path d="M97.4 45a15.7 15.7 0 0 0-9.5-7.3 15.513 15.513 0 0 1-.7 2.3c13.3 3.5 12.8 22.7-1 25.2a9.8 9.8 0 0 1-2.9.1h-.2l-3.5.2a12.9 12.9 0 0 0-8.7 3.8l-.8.9-1.6 1.8-.4.5-.3.3-.4.3a8.8 8.8 0 0 1-13.6-1.4l-.2-.3a9 9 0 0 1 0-8.7c1.2-1.9 2.8-2.9 6.2-4.1l3-1.1a13.2 13.2 0 0 0 7.4-6.3l1.5-3.1-2.3-.8-1.4 2.8a11.6 11.6 0 0 1-6.2 5.2l-.4.2-2.5.8c-3.8 1.4-5.9 2.6-7.4 5.2a11.4 11.4 0 0 0 .1 11.3l.3.4a11.2 11.2 0 0 0 16.6 2.3l.5-.5c.391-.341.759-.709 1.1-1.1l1.9-2.1.8-.8a10.1 10.1 0 0 1 6.9-3.1l3.5-.2h-.1c1.2.112 2.409.079 3.6-.1 10.2-1.5 16-13.7 10.7-22.6z" fill="#F1F3F4"/><path d="M76.8 41.7a12.1 12.1 0 0 0-5 6.3h-.1c6 1.4 13.2-2.2 15.5-8.1a12.902 12.902 0 0 0-10.4 1.8z" fill="#8AB4F8"/><path d="M71.1 43.9a15 15 0 0 1 4.4-4.3 15.6 15.6 0 0 1 12.4-1.9 13.5 13.5 0 0 0-1.2-9 1.8 1.8 0 0 0-2.5-.7L64.9 41.5c-2.7 2.3 2.7 5 4.5 5.8v-.2a15.906 15.906 0 0 1 1.7-3.2z" fill="#8AB4F8"/></svg>