<svg width="300" height="200" viewBox="0 0 300 200" fill="none" xmlns="http://www.w3.org/2000/svg"><path d="M149.1 133.7a38.595 38.595 0 0 0 35.723-23.736A38.597 38.597 0 0 0 187.8 95.2c-1.9-51.2-75-51.4-77.2-.2a38.704 38.704 0 0 0 11.264 27.295A38.706 38.706 0 0 0 149.1 133.7z" fill="#D2E3FC"/><path d="M148.7 64.2a30.195 30.195 0 0 0-28.082 18.597A30.205 30.205 0 0 0 118.3 94.4c1.5 40.2 58.9 40.4 60.6.2a30.204 30.204 0 0 0-18.597-28.082A30.196 30.196 0 0 0 148.7 64.2zm0 1.8a28.405 28.405 0 0 1 26.296 17.67A28.415 28.415 0 0 1 177.1 94.6c-1.6 37.8-55.6 37.6-57-.2a28.396 28.396 0 0 1 17.67-26.296A28.404 28.404 0 0 1 148.7 66z" fill="#fff"/><path d="M185.9 65.6a1.1 1.1 0 0 1 1.6 1.5l-37.6 36.5a3.697 3.697 0 0 1-5.1.1h-.1l-15.2-14.9a1.104 1.104 0 0 1 .085-1.338 1.1 1.1 0 0 1 1.315-.262h.1l15.2 14.9a1.404 1.404 0 0 0 2 .1h.1l37.6-36.6z" fill="#34A853"/><path d="M189.4 63.7a1.207 1.207 0 0 1 .404.83 1.208 1.208 0 0 1-.304.87h-.1l-8.2 7.9-1.5-2 7.9-7.7a1.3 1.3 0 0 1 1.8.1z" fill="#4285F4"/><path fill-rule="evenodd" clip-rule="evenodd" d="M62.6 67.4a9.2 9.2 0 0 1 0 13.2C53.5 89 41 76.4 49.4 67.3a9.3 9.3 0 0 1 13.2.1" fill="#34A853"/><path d="M32.7 143.4a8.6 8.6 0 0 1 1.9-12l16.2-11.9c9.5-6.3 19.1 6.8 10.2 13.9l-16.3 11.9a8.497 8.497 0 0 1-12-1.9v0z" stroke="#4285F4" stroke-width="2" stroke-linecap="round" stroke-linejoin="round"/><path d="M210.3 94.7c20.7-5.8 43.2 1.2 58.5 15.8 5 4.5 10.9 10.3 17.1 14" stroke="#D2E3FC" stroke-width="2" stroke-linecap="round" stroke-linejoin="round"/><path fill-rule="evenodd" clip-rule="evenodd" d="m241.1 39.5-1.7 21.1a1.004 1.004 0 0 0 .459.825 1.002 1.002 0 0 0 .941.075l19.1-9.1a.995.995 0 0 0 .525-.822A1.004 1.004 0 0 0 260 50.7l-17.4-12a1 1 0 0 0-1.5.8" fill="#EE5FFA"/><path fill-rule="evenodd" clip-rule="evenodd" d="m28.7 40.4-4.4 5.4a1 1 0 0 0 .6 1.6l6.9 1.1a.9.9 0 0 0 1.1-1.3l-2.5-6.5a.999.999 0 0 0-1.7-.3" fill="#EA4335"/><path d="M239.4 136.8h-8.1a1.697 1.697 0 0 0-1.3.7l-4 7a1.197 1.197 0 0 0 0 1.4l4 7.1a1.5 1.5 0 0 0 1.2.7h8.1a1.397 1.397 0 0 0 1.2-.7l4.1-7a1.204 1.204 0 0 0 0-1.4l-4-7a1.592 1.592 0 0 0-1.2-.8z" stroke="#FBBC04" stroke-width="2" stroke-linejoin="round"/></svg>