<svg width="217" height="216" viewBox="0 0 217 216" fill="none" xmlns="http://www.w3.org/2000/svg"><path d="M104.07 157.894 91.276 172.61a4.5 4.5 0 0 0 .444 6.349l14.536 12.636a4.5 4.5 0 0 0 6.348-.444l12.794-14.717a4.502 4.502 0 0 0-.444-6.349l-14.536-12.635a4.499 4.499 0 0 0-6.348.444z" fill="#34A853"/><path d="m31.144 128.6-11.8-11.8a2.398 2.398 0 0 1-.6-2.3l4.3-16.2a2.3 2.3 0 0 1 1.7-1.6l16.1-4.3a2.2 2.2 0 0 1 2.3.6l11.8 11.8a2.2 2.2 0 0 1 .6 2.3l-4.3 16.1a2.301 2.301 0 0 1-1.6 1.7l-16.2 4.3a2.406 2.406 0 0 1-2.3-.6z" fill="#FBBC04"/><path d="m164.325 172.227 20.439 14.741c3.135 2.261 7.505 1.56 9.76-1.567 2.255-3.126 1.541-7.494-1.594-9.756l-20.439-14.741c-3.136-2.261-7.506-1.56-9.761 1.567-2.255 3.127-1.541 7.494 1.595 9.756z" fill="#4285F4"/><path d="M105.144 98.7c-.816 1.81-1.252 3.821-1.9 5.7a10.4 10.4 0 0 1-4.8 5.7c-3.1 1.7-6.7 2.6-8.2 6.2a9.503 9.503 0 0 0-.47 4.614c.437 2.993 2.323 5.713 5.055 7.042a8.909 8.909 0 0 0 3.696.895 8.964 8.964 0 0 0 6.819-2.951c1-1.2 1.8-2.6 2.7-3.8a9.495 9.495 0 0 1 2.848-2.811c2.066-1.315 4.492-1.508 6.852-1.889a9.178 9.178 0 0 0 2.8-.5 11.497 11.497 0 0 0 5.3-3.1c4.2-4.3 4.5-11.4.7-16.5s-12.9-7.1-18.3-2.5a12.998 12.998 0 0 0-3.1 3.9z" fill="#8AB4F8"/><path fill-rule="evenodd" clip-rule="evenodd" d="M23.152 161.417a18.9 18.9 0 0 0 33.909 16.306c.163-.269.133-.626-.17-.772l-32.998-15.9-.016-.008c-.339-.168-.613.07-.725.374zm-.876-3.143a3.497 3.497 0 0 1 2.926.078l32.995 15.897a3.5 3.5 0 0 1 1.417 5.049 21.9 21.9 0 0 1-39.29-18.883 3.502 3.502 0 0 1 1.952-2.141z" fill="#EE5FFA"/><path d="M189.944 32.2h-27a1.4 1.4 0 0 0-1.4 1.4v27.03a1.4 1.4 0 0 0 1.4 1.4h27a1.4 1.4 0 0 0 1.4-1.4V33.6a1.4 1.4 0 0 0-1.4-1.4z" fill="#D2E3FC"/><path d="M38.044 66.1c10.052 0 18.2-8.148 18.2-18.2s-8.148-18.2-18.2-18.2-18.2 8.148-18.2 18.2 8.148 18.2 18.2 18.2z" fill="#EA4335"/><path d="m125.544 46.6-27.5-15.9a.7.7 0 0 0-1.1.6V63a.7.7 0 0 0 1.1.6l27.5-15.8a.705.705 0 0 0 0-1.2z" fill="#EE5FFA"/><path fill-rule="evenodd" clip-rule="evenodd" d="M170.444 97.26c-7.684 3.898-10.754 13.283-6.859 20.961 3.895 7.677 13.282 10.743 20.966 6.845l.267-.136c7.685-3.898 10.754-13.283 6.859-20.961-3.895-7.678-13.281-10.743-20.966-6.845l-.267.136zm-9.534 22.318c-4.646-9.157-.984-20.347 8.177-24.994l.267-.136c9.16-4.647 20.353-.993 24.998 8.164 4.646 9.157.984 20.346-8.176 24.994l-.268.135c-9.16 4.648-20.353.994-24.998-8.163z" fill="#2FE2EA"/><path fill-rule="evenodd" clip-rule="evenodd" d="M37.444 83.6c-14.857 0-26.9 12.044-26.9 26.9 0 14.857 12.043 26.9 26.9 26.9 14.856 0 26.9-12.043 26.9-26.9 0-14.856-12.044-26.9-26.9-26.9zm-29.9 26.9c0-16.513 13.387-29.9 29.9-29.9 16.513 0 29.9 13.387 29.9 29.9 0 16.513-13.387 29.9-29.9 29.9-16.513 0-29.9-13.387-29.9-29.9z" fill="#D2E3FC"/></svg>