<?xml version="1.0" encoding="UTF-8"?>
<!--Generator: Apple Native CoreSVG 175-->
<!DOCTYPE svg
PUBLIC "-//W3C//DTD SVG 1.1//EN"
       "http://www.w3.org/Graphics/SVG/1.1/DTD/svg11.dtd">
<svg version="1.1" xmlns="http://www.w3.org/2000/svg" xmlns:xlink="http://www.w3.org/1999/xlink" width="3300" height="2200">
 <!--glyph: "", point size: 100.0, font version: "17.3d3e1", template writer version: "65.1"-->
 <g id="Notes">
  <rect height="2200" id="artboard" style="fill:white;opacity:1" width="3300" x="0" y="0"/>
  <line style="fill:none;stroke:black;opacity:1;stroke-width:0.5;" x1="263" x2="3036" y1="292" y2="292"/>
  <text style="stroke:none;fill:black;font-family:sans-serif;font-size:13;font-weight:bold;" transform="matrix(1 0 0 1 263 322)">Weight/Scale Variations</text>
  <text style="stroke:none;fill:black;font-family:sans-serif;font-size:13;text-anchor:middle;" transform="matrix(1 0 0 1 559.711 322)">Ultralight</text>
  <text style="stroke:none;fill:black;font-family:sans-serif;font-size:13;text-anchor:middle;" transform="matrix(1 0 0 1 856.422 322)">Thin</text>
  <text style="stroke:none;fill:black;font-family:sans-serif;font-size:13;text-anchor:middle;" transform="matrix(1 0 0 1 1153.13 322)">Light</text>
  <text style="stroke:none;fill:black;font-family:sans-serif;font-size:13;text-anchor:middle;" transform="matrix(1 0 0 1 1449.84 322)">Regular</text>
  <text style="stroke:none;fill:black;font-family:sans-serif;font-size:13;text-anchor:middle;" transform="matrix(1 0 0 1 1746.56 322)">Medium</text>
  <text style="stroke:none;fill:black;font-family:sans-serif;font-size:13;text-anchor:middle;" transform="matrix(1 0 0 1 2043.27 322)">Semibold</text>
  <text style="stroke:none;fill:black;font-family:sans-serif;font-size:13;text-anchor:middle;" transform="matrix(1 0 0 1 2339.98 322)">Bold</text>
  <text style="stroke:none;fill:black;font-family:sans-serif;font-size:13;text-anchor:middle;" transform="matrix(1 0 0 1 2636.69 322)">Heavy</text>
  <text style="stroke:none;fill:black;font-family:sans-serif;font-size:13;text-anchor:middle;" transform="matrix(1 0 0 1 2933.4 322)">Black</text>
  <line style="fill:none;stroke:black;opacity:1;stroke-width:0.5;" x1="263" x2="3036" y1="1903" y2="1903"/>
  <g transform="matrix(1 0 0 1 263 1933)">
   <path d="M9.24805 0.830078Q10.8691 0.830078 12.2949 0.214844Q13.7207-0.400391 14.8096-1.49414Q15.8984-2.58789 16.5186-4.01367Q17.1387-5.43945 17.1387-7.05078Q17.1387-8.66211 16.5186-10.0879Q15.8984-11.5137 14.8047-12.6074Q13.7109-13.7012 12.2852-14.3164Q10.8594-14.9316 9.23828-14.9316Q7.62695-14.9316 6.20117-14.3164Q4.77539-13.7012 3.69141-12.6074Q2.60742-11.5137 1.9873-10.0879Q1.36719-8.66211 1.36719-7.05078Q1.36719-5.43945 1.9873-4.01367Q2.60742-2.58789 3.69629-1.49414Q4.78516-0.400391 6.21094 0.214844Q7.63672 0.830078 9.24805 0.830078ZM9.24805-0.654297Q7.91992-0.654297 6.7627-1.14746Q5.60547-1.64062 4.73145-2.51953Q3.85742-3.39844 3.36426-4.56055Q2.87109-5.72266 2.87109-7.05078Q2.87109-8.37891 3.35938-9.54102Q3.84766-10.7031 4.72168-11.582Q5.5957-12.4609 6.75293-12.9541Q7.91016-13.4473 9.23828-13.4473Q10.5762-13.4473 11.7334-12.9541Q12.8906-12.4609 13.7695-11.582Q14.6484-10.7031 15.1465-9.54102Q15.6445-8.37891 15.6445-7.05078Q15.6445-5.72266 15.1514-4.56055Q14.6582-3.39844 13.7842-2.51953Q12.9102-1.64062 11.748-1.14746Q10.5859-0.654297 9.24805-0.654297ZM5.6543-7.05078Q5.6543-6.72852 5.85938-6.52832Q6.06445-6.32812 6.40625-6.32812L8.51562-6.32812L8.51562-4.20898Q8.51562-3.88672 8.71094-3.67676Q8.90625-3.4668 9.23828-3.4668Q9.56055-3.4668 9.77051-3.67676Q9.98047-3.88672 9.98047-4.20898L9.98047-6.32812L12.0898-6.32812Q12.4219-6.32812 12.627-6.52832Q12.832-6.72852 12.832-7.05078Q12.832-7.38281 12.627-7.58789Q12.4219-7.79297 12.0898-7.79297L9.98047-7.79297L9.98047-9.90234Q9.98047-10.2344 9.77051-10.4443Q9.56055-10.6543 9.23828-10.6543Q8.90625-10.6543 8.71094-10.4443Q8.51562-10.2344 8.51562-9.90234L8.51562-7.79297L6.40625-7.79297Q6.06445-7.79297 5.85938-7.58789Q5.6543-7.38281 5.6543-7.05078Z"/>
  </g>
  <g transform="matrix(1 0 0 1 281.867 1933)">
   <path d="M11.709 2.91016Q13.75 2.91016 15.5518 2.12891Q17.3535 1.34766 18.7305-0.0292969Q20.1074-1.40625 20.8887-3.20801Q21.6699-5.00977 21.6699-7.05078Q21.6699-9.0918 20.8887-10.8936Q20.1074-12.6953 18.7305-14.0723Q17.3535-15.4492 15.5469-16.2305Q13.7402-17.0117 11.6992-17.0117Q9.6582-17.0117 7.85645-16.2305Q6.05469-15.4492 4.68262-14.0723Q3.31055-12.6953 2.5293-10.8936Q1.74805-9.0918 1.74805-7.05078Q1.74805-5.00977 2.5293-3.20801Q3.31055-1.40625 4.6875-0.0292969Q6.06445 1.34766 7.86621 2.12891Q9.66797 2.91016 11.709 2.91016ZM11.709 1.25Q9.98047 1.25 8.47656 0.605469Q6.97266-0.0390625 5.83496-1.17676Q4.69727-2.31445 4.05762-3.81836Q3.41797-5.32227 3.41797-7.05078Q3.41797-8.7793 4.05762-10.2832Q4.69727-11.7871 5.83008-12.9297Q6.96289-14.0723 8.4668-14.7119Q9.9707-15.3516 11.6992-15.3516Q13.4277-15.3516 14.9316-14.7119Q16.4355-14.0723 17.5781-12.9297Q18.7207-11.7871 19.3652-10.2832Q20.0098-8.7793 20.0098-7.05078Q20.0098-5.32227 19.3701-3.81836Q18.7305-2.31445 17.5928-1.17676Q16.4551-0.0390625 14.9463 0.605469Q13.4375 1.25 11.709 1.25ZM7.17773-7.05078Q7.17773-6.69922 7.41211-6.47461Q7.64648-6.25 8.01758-6.25L10.8887-6.25L10.8887-3.36914Q10.8887-2.99805 11.1133-2.76855Q11.3379-2.53906 11.6895-2.53906Q12.0605-2.53906 12.29-2.76855Q12.5195-2.99805 12.5195-3.36914L12.5195-6.25L15.4004-6.25Q15.7715-6.25 16.001-6.47461Q16.2305-6.69922 16.2305-7.05078Q16.2305-7.42188 16.001-7.65137Q15.7715-7.88086 15.4004-7.88086L12.5195-7.88086L12.5195-10.752Q12.5195-11.1328 12.29-11.3623Q12.0605-11.5918 11.6895-11.5918Q11.3379-11.5918 11.1133-11.3574Q10.8887-11.123 10.8887-10.752L10.8887-7.88086L8.01758-7.88086Q7.63672-7.88086 7.40723-7.65137Q7.17773-7.42188 7.17773-7.05078Z"/>
  </g>
  <g transform="matrix(1 0 0 1 305.646 1933)">
   <path d="M14.9707 5.66406Q17.0605 5.66406 18.96 5.01465Q20.8594 4.36523 22.4512 3.19336Q24.043 2.02148 25.2197 0.429688Q26.3965-1.16211 27.0459-3.06641Q27.6953-4.9707 27.6953-7.05078Q27.6953-9.14062 27.0459-11.04Q26.3965-12.9395 25.2197-14.5312Q24.043-16.123 22.4512-17.2998Q20.8594-18.4766 18.9551-19.126Q17.0508-19.7754 14.9609-19.7754Q12.8711-19.7754 10.9717-19.126Q9.07227-18.4766 7.48535-17.2998Q5.89844-16.123 4.72168-14.5312Q3.54492-12.9395 2.90039-11.04Q2.25586-9.14062 2.25586-7.05078Q2.25586-4.9707 2.90527-3.06641Q3.55469-1.16211 4.72656 0.429688Q5.89844 2.02148 7.49023 3.19336Q9.08203 4.36523 10.9814 5.01465Q12.8809 5.66406 14.9707 5.66406ZM14.9707 3.84766Q13.1641 3.84766 11.5283 3.2959Q9.89258 2.74414 8.53516 1.74805Q7.17773 0.751953 6.17676-0.610352Q5.17578-1.97266 4.62891-3.6084Q4.08203-5.24414 4.08203-7.05078Q4.08203-8.86719 4.62891-10.5029Q5.17578-12.1387 6.17188-13.501Q7.16797-14.8633 8.52539-15.8594Q9.88281-16.8555 11.5186-17.4023Q13.1543-17.9492 14.9609-17.9492Q16.7773-17.9492 18.4131-17.4023Q20.0488-16.8555 21.4111-15.8594Q22.7734-14.8633 23.7695-13.501Q24.7656-12.1387 25.3174-10.5029Q25.8691-8.86719 25.8691-7.05078Q25.8789-5.24414 25.332-3.6084Q24.7852-1.97266 23.7842-0.610352Q22.7832 0.751953 21.4209 1.74805Q20.0586 2.74414 18.4229 3.2959Q16.7871 3.84766 14.9707 3.84766ZM9.19922-7.05078Q9.19922-6.66992 9.45801-6.4209Q9.7168-6.17188 10.1172-6.17188L14.0625-6.17188L14.0625-2.2168Q14.0625-1.81641 14.3115-1.55762Q14.5605-1.29883 14.9512-1.29883Q15.3516-1.29883 15.6104-1.55273Q15.8691-1.80664 15.8691-2.2168L15.8691-6.17188L19.8242-6.17188Q20.2246-6.17188 20.4785-6.4209Q20.7324-6.66992 20.7324-7.05078Q20.7324-7.46094 20.4785-7.71484Q20.2246-7.96875 19.8242-7.96875L15.8691-7.96875L15.8691-11.9141Q15.8691-12.3242 15.6104-12.583Q15.3516-12.8418 14.9512-12.8418Q14.5605-12.8418 14.3115-12.583Q14.0625-12.3242 14.0625-11.9141L14.0625-7.96875L10.1172-7.96875Q9.70703-7.96875 9.45312-7.71484Q9.19922-7.46094 9.19922-7.05078Z"/>
  </g>
  <text style="stroke:none;fill:black;font-family:sans-serif;font-size:13;font-weight:bold;" transform="matrix(1 0 0 1 263 1953)">Design Variations</text>
  <text style="stroke:none;fill:black;font-family:sans-serif;font-size:13;" transform="matrix(1 0 0 1 263 1971)">Symbols are supported in up to nine weights and three scales.</text>
  <text style="stroke:none;fill:black;font-family:sans-serif;font-size:13;" transform="matrix(1 0 0 1 263 1989)">For optimal layout with text and other symbols, vertically align</text>
  <text style="stroke:none;fill:black;font-family:sans-serif;font-size:13;" transform="matrix(1 0 0 1 263 2007)">symbols with the adjacent text.</text>
  <line style="fill:none;stroke:#00AEEF;stroke-width:0.5;opacity:1.0;" x1="776" x2="776" y1="1919" y2="1933"/>
  <g transform="matrix(1 0 0 1 776 1933)">
   <path d="M3.31055 0.15625Q3.70117 0.15625 3.91602-0.00976562Q4.13086-0.175781 4.26758-0.585938L5.52734-4.0332L11.2891-4.0332L12.5488-0.585938Q12.6855-0.175781 12.9004-0.00976562Q13.1152 0.15625 13.4961 0.15625Q13.8867 0.15625 14.1162-0.0585938Q14.3457-0.273438 14.3457-0.644531Q14.3457-0.869141 14.2383-1.17188L9.6582-13.3691Q9.48242-13.8184 9.17969-14.043Q8.87695-14.2676 8.4082-14.2676Q7.5-14.2676 7.17773-13.3789L2.59766-1.16211Q2.49023-0.859375 2.49023-0.634766Q2.49023-0.263672 2.70996-0.0537109Q2.92969 0.15625 3.31055 0.15625ZM6.00586-5.51758L8.37891-12.0898L8.42773-12.0898L10.8008-5.51758Z"/>
  </g>
  <line style="fill:none;stroke:#00AEEF;stroke-width:0.5;opacity:1.0;" x1="793.197" x2="793.197" y1="1919" y2="1933"/>
  <text style="stroke:none;fill:black;font-family:sans-serif;font-size:13;font-weight:bold;" transform="matrix(1 0 0 1 776 1953)">Margins</text>
  <text style="stroke:none;fill:black;font-family:sans-serif;font-size:13;" transform="matrix(1 0 0 1 776 1971)">Leading and trailing margins on the left and right side of each symbol</text>
  <text style="stroke:none;fill:black;font-family:sans-serif;font-size:13;" transform="matrix(1 0 0 1 776 1989)">can be adjusted by modifying the x-location of the margin guidelines.</text>
  <text style="stroke:none;fill:black;font-family:sans-serif;font-size:13;" transform="matrix(1 0 0 1 776 2007)">Modifications are automatically applied proportionally to all</text>
  <text style="stroke:none;fill:black;font-family:sans-serif;font-size:13;" transform="matrix(1 0 0 1 776 2025)">scales and weights.</text>
  <g transform="matrix(1 0 0 1 1289 1933)">
   <path d="M2.8418 1.86523L4.54102 3.57422Q5.18555 4.22852 5.90332 4.17969Q6.62109 4.13086 7.31445 3.35938L18.0078-8.42773L17.041-9.4043L6.42578 2.27539Q6.16211 2.57812 5.89355 2.61719Q5.625 2.65625 5.27344 2.30469L4.10156 1.14258Q3.75 0.791016 3.79395 0.522461Q3.83789 0.253906 4.14062-0.0195312L15.6152-10.8203L14.6387-11.7871L3.04688-0.898438Q2.30469-0.214844 2.25098 0.498047Q2.19727 1.21094 2.8418 1.86523ZM9.25781-16.3281Q8.94531-16.0254 8.90625-15.6348Q8.86719-15.2441 9.04297-14.9512Q9.21875-14.6777 9.55566-14.541Q9.89258-14.4043 10.3809-14.5215Q11.4746-14.7754 12.5977-14.7314Q13.7207-14.6875 14.7949-13.9844L14.209-12.5293Q13.9551-11.9043 14.0674-11.4404Q14.1797-10.9766 14.5801-10.5664L16.875-8.25195Q17.2363-7.88086 17.5781-7.82227Q17.9199-7.76367 18.3398-7.8418L19.4043-8.03711L20.0684-7.36328L20.0293-6.80664Q20-6.43555 20.1221-6.12305Q20.2441-5.81055 20.6055-5.44922L21.3672-4.70703Q21.7285-4.3457 22.1533-4.33105Q22.5781-4.31641 22.9297-4.66797L25.8398-7.58789Q26.1914-7.93945 26.1816-8.35449Q26.1719-8.76953 25.8105-9.13086L25.0391-9.89258Q24.6875-10.2539 24.3799-10.3857Q24.0723-10.5176 23.7109-10.4883L23.1348-10.4395L22.4902-11.0742L22.7344-12.1973Q22.832-12.6172 22.6953-12.9834Q22.5586-13.3496 22.1191-13.7891L19.9219-15.9766Q18.6719-17.2168 17.2607-17.8369Q15.8496-18.457 14.4189-18.4814Q12.9883-18.5059 11.665-17.959Q10.3418-17.4121 9.25781-16.3281ZM10.752-15.957Q11.6602-16.6211 12.7002-16.9043Q13.7402-17.1875 14.8047-17.085Q15.8691-16.9824 16.8701-16.5137Q17.8711-16.0449 18.7012-15.2051L21.1328-12.793Q21.3086-12.6172 21.3525-12.4512Q21.3965-12.2852 21.3379-12.0312L21.0156-10.5469L22.5195-9.0625L23.5059-9.12109Q23.6914-9.13086 23.7891-9.09668Q23.8867-9.0625 24.0332-8.91602L24.6094-8.33984L22.168-5.89844L21.5918-6.47461Q21.4453-6.62109 21.4062-6.71875Q21.3672-6.81641 21.377-7.01172L21.4453-7.98828L19.9512-9.47266L18.4277-9.21875Q18.1836-9.16992 18.042-9.2041Q17.9004-9.23828 17.7148-9.41406L15.7129-11.416Q15.5176-11.5918 15.4932-11.7529Q15.4688-11.9141 15.5859-12.1875L16.4648-14.2773Q15.293-15.3711 13.8281-15.791Q12.3633-16.2109 10.8398-15.7617Q10.7227-15.7324 10.6885-15.8057Q10.6543-15.8789 10.752-15.957Z"/>
  </g>
  <text style="stroke:none;fill:black;font-family:sans-serif;font-size:13;font-weight:bold;" transform="matrix(1 0 0 1 1289 1953)">Exporting</text>
  <text style="stroke:none;fill:black;font-family:sans-serif;font-size:13;" transform="matrix(1 0 0 1 1289 1971)">Symbols should be outlined when exporting to ensure the</text>
  <text style="stroke:none;fill:black;font-family:sans-serif;font-size:13;" transform="matrix(1 0 0 1 1289 1989)">design is preserved when submitting to Xcode.</text>
  <text id="template-version" style="stroke:none;fill:black;font-family:sans-serif;font-size:13;text-anchor:end;" transform="matrix(1 0 0 1 3036 1933)">Template v.2.0</text>
  <text style="stroke:none;fill:black;font-family:sans-serif;font-size:13;text-anchor:end;" transform="matrix(1 0 0 1 3036 1951)">Requires Xcode 12 or greater</text>
  <text id="descriptive-name" style="stroke:none;fill:black;font-family:sans-serif;font-size:13;text-anchor:end;" transform="matrix(1 0 0 1 3036 1969)">Generated from checkermark.shield.cr</text>
  <text style="stroke:none;fill:black;font-family:sans-serif;font-size:13;text-anchor:end;" transform="matrix(1 0 0 1 3036 1987)">Typeset at 100 points</text>
  <text style="stroke:none;fill:black;font-family:sans-serif;font-size:13;" transform="matrix(1 0 0 1 263 726)">Small</text>
  <text style="stroke:none;fill:black;font-family:sans-serif;font-size:13;" transform="matrix(1 0 0 1 263 1156)">Medium</text>
  <text style="stroke:none;fill:black;font-family:sans-serif;font-size:13;" transform="matrix(1 0 0 1 263 1586)">Large</text>
 </g>
 <g id="Guides">
  <g id="H-reference" style="fill:#27AAE1;stroke:none;" transform="matrix(1 0 0 1 339 696)">
   <path d="M0.993347 0L3.6377 0L29.3282-67.1326L30.0301-67.1326L30.0301-70.459L28.1227-70.459ZM11.6882-24.4797L46.9818-24.4797L46.2311-26.7288L12.4382-26.7288ZM55.1193 0L57.7637 0L30.6381-70.459L29.4327-70.459L29.4327-67.1326Z"/>
  </g>
  <line id="Baseline-S" style="fill:none;stroke:#27AAE1;opacity:1;stroke-width:0.5;" x1="263" x2="3036" y1="696" y2="696"/>
  <line id="Capline-S" style="fill:none;stroke:#27AAE1;opacity:1;stroke-width:0.5;" x1="263" x2="3036" y1="625.541" y2="625.541"/>
  <g id="H-reference" style="fill:#27AAE1;stroke:none;" transform="matrix(1 0 0 1 339 1126)">
   <path d="M0.993347 0L3.6377 0L29.3282-67.1326L30.0301-67.1326L30.0301-70.459L28.1227-70.459ZM11.6882-24.4797L46.9818-24.4797L46.2311-26.7288L12.4382-26.7288ZM55.1193 0L57.7637 0L30.6381-70.459L29.4327-70.459L29.4327-67.1326Z"/>
  </g>
  <line id="Baseline-M" style="fill:none;stroke:#27AAE1;opacity:1;stroke-width:0.5;" x1="263" x2="3036" y1="1126" y2="1126"/>
  <line id="Capline-M" style="fill:none;stroke:#27AAE1;opacity:1;stroke-width:0.5;" x1="263" x2="3036" y1="1055.54" y2="1055.54"/>
  <g id="H-reference" style="fill:#27AAE1;stroke:none;" transform="matrix(1 0 0 1 339 1556)">
   <path d="M0.993347 0L3.6377 0L29.3282-67.1326L30.0301-67.1326L30.0301-70.459L28.1227-70.459ZM11.6882-24.4797L46.9818-24.4797L46.2311-26.7288L12.4382-26.7288ZM55.1193 0L57.7637 0L30.6381-70.459L29.4327-70.459L29.4327-67.1326Z"/>
  </g>
  <line id="Baseline-L" style="fill:none;stroke:#27AAE1;opacity:1;stroke-width:0.5;" x1="263" x2="3036" y1="1556" y2="1556"/>
  <line id="Capline-L" style="fill:none;stroke:#27AAE1;opacity:1;stroke-width:0.5;" x1="263" x2="3036" y1="1485.54" y2="1485.54"/>
  <line id="left-margin" style="fill:none;stroke:#00AEEF;stroke-width:0.5;opacity:1.0;" x1="1390.48" x2="1390.48" y1="1030.78" y2="1150.12"/>
  <line id="right-margin" style="fill:none;stroke:#00AEEF;stroke-width:0.5;opacity:1.0;" x1="1509.21" x2="1509.21" y1="1030.78" y2="1150.12"/>
 </g>
 <g id="Symbols">
  <g id="Black-L" transform="matrix(1 0 0 1 2858.7 1556)">
   <path d="M79.68-99.8425C75.91-101.132 71.81-101.132 68.03-99.8425L29.94-86.8125C22.66-84.3225 17.77-77.4825 17.77-69.7825L17.77-42.0225C17.77-33.7825 19.11-25.7625 21.79-18.0025C24.44-10.3325 28.14-3.2925 32.9 3.0875C37.64 9.4375 43.26 14.9675 49.75 19.6475C55.47 23.7875 61.67 27.0275 68.32 29.3375C71.91 30.5875 75.81 30.5875 79.4 29.3375C86.04 27.0275 92.24 23.7875 97.97 19.6475C104.45 14.9675 110.08 9.4375 114.82 3.0875C119.57-3.2925 123.27-10.3325 125.92-18.0025C128.6-25.7625 129.94-33.7825 129.94-42.0225L129.94-69.7825C129.94-77.4825 125.05-84.3225 117.77-86.8125L79.68-99.8425ZM35.77-69.7825L73.86-82.8125L111.94-69.7825L111.94-42.0225C111.94-35.7725 110.93-29.7425 108.91-23.8725C106.84-17.9125 104-12.5225 100.39-7.6825C96.76-2.8125 92.44 1.4275 87.42 5.0675C83.21 8.1075 78.7 10.4875 73.86 12.2075C69.02 10.4875 64.5 8.1075 60.3 5.0675C55.27 1.4275 50.96-2.8125 47.32-7.6825C43.71-12.5225 40.87-17.9125 38.81-23.8725C36.78-29.7425 35.77-35.7725 35.77-42.0225L35.77-69.7825ZM98.68-51.7825C102.2-48.2725 102.2-42.5725 98.68-39.0525L76.71-17.0925C73.2-13.5725 67.5-13.5725 63.99-17.0925C63.82-17.2525 63.66-17.4225 63.51-17.6025C63.34-17.7525 63.16-17.9125 63-18.0825L50.73-30.3525C47.21-33.8625 47.21-39.5625 50.73-43.0825C54.24-46.5925 59.94-46.5925 63.45-43.0825L70.35-36.1825L85.95-51.7825C89.47-55.3025 95.17-55.3025 98.68-51.7825Z"/>
  </g>
  <g id="Heavy-L" transform="matrix(1 0 0 1 2562.47 1556)">
   <path d="M73.05-84.735C73.26-84.815 73.48-84.815 73.69-84.735L112.29-71.535C112.7-71.395 112.97-71.015 112.97-70.595L112.97-42.455C112.97-36.025 111.93-29.805 109.84-23.755C107.72-17.615 104.79-12.075 101.07-7.085C97.33-2.075 92.89 2.295 87.72 6.035C83.28 9.245 78.5 11.735 73.37 13.525C68.24 11.735 63.46 9.245 59.02 6.035C53.85 2.295 49.41-2.075 45.67-7.085C41.95-12.075 39.02-17.615 36.9-23.755C34.81-29.805 33.77-36.025 33.77-42.455L33.77-70.595C33.77-71.015 34.04-71.395 34.45-71.535L73.05-84.735ZM78.87-99.875C75.31-101.095 71.43-101.095 67.87-99.875L29.27-86.675C22.39-84.325 17.77-77.855 17.77-70.595L17.77-42.455C17.77-34.245 19.11-26.265 21.78-18.525C24.42-10.885 28.11-3.865 32.84 2.485C37.57 8.815 43.18 14.325 49.64 18.995C55.35 23.125 61.53 26.355 68.16 28.655C71.54 29.825 75.2 29.825 78.58 28.655C85.21 26.355 91.39 23.125 97.1 18.995C103.56 14.325 109.17 8.815 113.9 2.485C118.63-3.865 122.32-10.885 124.96-18.525C127.63-26.265 128.97-34.245 128.97-42.455L128.97-70.595C128.97-77.855 124.35-84.325 117.47-86.675L78.87-99.875ZM98.74-39.755C101.87-42.875 101.87-47.945 98.74-51.065C95.62-54.195 90.55-54.195 87.43-51.065L69.33-32.965L61.84-40.455C58.72-43.575 53.65-43.575 50.53-40.455C47.4-37.325 47.4-32.265 50.53-29.135L63.21-16.455C63.29-16.375 63.37-16.305 63.45-16.225C63.52-16.145 63.59-16.075 63.67-15.995C66.79-12.875 71.86-12.875 74.98-15.995L98.74-39.755Z"/>
  </g>
  <g id="Bold-L" transform="matrix(1 0 0 1 2267.51 1556)">
   <path d="M70.8-86.125C71.33-86.305 71.91-86.305 72.44-86.125L110.79-72.815C111.8-72.465 112.47-71.515 112.47-70.455L112.47-41.965C112.47-35.295 111.4-28.835 109.27-22.555C107.1-16.205 104.12-10.465 100.32-5.295C96.5-0.115 91.98 4.405 86.71 8.265C82.18 11.595 77.3 14.175 72.07 16.025C71.78 16.125 71.46 16.125 71.17 16.025C65.94 14.175 61.06 11.595 56.52 8.265C51.26 4.405 46.74-0.115 42.92-5.295C39.12-10.465 36.13-16.205 33.97-22.555C31.84-28.835 30.77-35.295 30.77-41.965L30.77-70.455C30.77-71.515 31.44-72.465 32.45-72.815L70.8-86.125ZM76.7-98.405C73.41-99.545 69.83-99.545 66.54-98.405L28.19-85.095C21.95-82.935 17.77-77.055 17.77-70.455L17.77-41.965C17.77-33.875 19.07-25.995 21.67-18.365C24.24-10.805 27.83-3.875 32.45 2.405C37.05 8.665 42.52 14.115 48.83 18.745C54.39 22.815 60.39 26.005 66.84 28.285C69.93 29.375 73.31 29.375 76.4 28.285C82.85 26.005 88.85 22.815 94.4 18.745C100.72 14.115 106.19 8.665 110.79 2.405C115.41-3.875 119-10.805 121.57-18.365C124.17-25.995 125.47-33.875 125.47-41.965L125.47-70.455C125.47-77.055 121.29-82.935 115.05-85.095L76.7-98.405ZM98.14-52.305C100.68-49.765 100.68-45.655 98.14-43.115L72.44-17.415C69.9-14.875 65.79-14.875 63.25-17.415C63.13-17.535 63.01-17.665 62.9-17.785C62.78-17.895 62.65-18.015 62.53-18.135L48.72-31.945C46.19-34.475 46.19-38.595 48.72-41.135C51.26-43.675 55.38-43.675 57.92-41.135L67.84-31.205L88.94-52.305C91.48-54.845 95.6-54.845 98.14-52.305Z"/>
  </g>
  <g id="Semibold-L" transform="matrix(1 0 0 1 1971.54 1556)">
   <path d="M69.81-87.8C70.51-88.05 71.27-88.05 71.97-87.8L110.33-74.3C111.63-73.84 112.5-72.62 112.5-71.24L112.5-42.21C112.5-35.34 111.42-28.68 109.25-22.22C107.06-15.7 104.03-9.79 100.18-4.47C96.31 0.86 91.72 5.5 86.4 9.46C81.81 12.87 76.88 15.52 71.59 17.42C71.14 17.59 70.64 17.59 70.18 17.42C64.89 15.52 59.96 12.87 55.37 9.46C50.05 5.5 45.46 0.86 41.6-4.47C37.74-9.79 34.71-15.7 32.52-22.22C30.35-28.68 29.27-35.34 29.27-42.21L29.27-71.24C29.27-72.62 30.14-73.84 31.44-74.3L69.81-87.8ZM75.78-98.65C72.61-99.77 69.16-99.77 65.99-98.65L27.62-85.15C21.72-83.07 17.77-77.5 17.77-71.24L17.77-42.21C17.77-34.1 19.05-26.21 21.62-18.56C24.17-10.97 27.72-4.02 32.29 2.28C36.84 8.56 42.25 14.03 48.51 18.69C53.99 22.77 59.92 25.96 66.29 28.25C69.26 29.31 72.51 29.31 75.48 28.25C81.85 25.96 87.78 22.77 93.27 18.69C99.52 14.03 104.93 8.56 109.49 2.28C114.05-4.02 117.6-10.97 120.15-18.56C122.72-26.21 124-34.1 124-42.21L124-71.24C124-77.5 120.05-83.07 114.15-85.15L75.78-98.65ZM96.88-52.16C99.13-49.91 99.13-46.27 96.88-44.03L70.11-17.26C67.87-15.01 64.23-15.01 61.98-17.26C61.87-17.37 61.77-17.48 61.67-17.6C61.55-17.69 61.44-17.8 61.33-17.91L47.46-31.78C45.21-34.02 45.21-37.66 47.46-39.91C49.7-42.15 53.35-42.15 55.59-39.91L66.05-29.45L88.75-52.16C91-54.4 94.64-54.4 96.88-52.16Z"/>
  </g>
  <g id="Medium-L" transform="matrix(1 0 0 1 1675.94 1556)">
   <path d="M68.44-87.495C69.3-87.795 70.24-87.795 71.1-87.495L109.1-74.115C110.7-73.545 111.77-72.035 111.77-70.335L111.77-41.555C111.77-34.655 110.68-27.965 108.5-21.475C106.31-14.935 103.27-9.005 99.4-3.665C95.53 1.685 90.92 6.345 85.58 10.325C80.98 13.745 76.04 16.415 70.73 18.325C70.11 18.545 69.43 18.545 68.81 18.325C63.5 16.415 58.56 13.745 53.96 10.325C48.62 6.345 44.01 1.685 40.14-3.665C36.27-9.005 33.23-14.935 31.04-21.475C28.86-27.965 27.77-34.655 27.77-41.555L27.77-70.335C27.77-72.035 28.84-73.545 30.44-74.115L68.44-87.495ZM74.42-96.925C71.41-97.985 68.13-97.985 65.12-96.925L27.12-83.545C21.52-81.575 17.77-76.275 17.77-70.335L17.77-41.555C17.77-33.585 19.03-25.825 21.55-18.295C24.06-10.835 27.55-3.985 32.04 2.205C36.51 8.385 41.83 13.765 47.98 18.345C53.36 22.355 59.18 25.485 65.43 27.735C68.23 28.745 71.31 28.745 74.11 27.735C80.36 25.485 86.18 22.355 91.56 18.345C97.71 13.765 103.03 8.385 107.5 2.205C111.99-3.985 115.48-10.835 117.99-18.295C120.51-25.825 121.77-33.585 121.77-41.555L121.77-70.335C121.77-76.275 118.02-81.575 112.42-83.545L74.42-96.925ZM96.72-51.255C98.67-49.295 98.67-46.135 96.72-44.185L69.16-16.625C67.21-14.665 64.04-14.665 62.09-16.625C61.98-16.735 61.88-16.845 61.78-16.955C61.66-17.055 61.55-17.165 61.44-17.275L46.51-32.195C44.56-34.155 44.56-37.315 46.51-39.275C48.46-41.225 51.63-41.225 53.58-39.275L65.62-27.225L89.65-51.255C91.6-53.205 94.77-53.205 96.72-51.255Z"/>
  </g>
  <g id="Regular-L" transform="matrix(1 0 0 1 1378.98 1556)">
   <path d="M68.47-88.2125C69.47-88.5525 70.57-88.5525 71.57-88.2125L110.57-74.7225C112.49-74.0625 113.77-72.2525 113.77-70.2325L113.77-41.3825C113.77-34.3925 112.65-27.6125 110.4-21.0325C108.13-14.4025 105-8.3825 101-2.9625C96.99 2.4675 92.23 7.1975 86.71 11.2375C81.92 14.7375 76.76 17.4575 71.22 19.4075C70.44 19.6875 69.6 19.6875 68.82 19.4075C63.28 17.4575 58.12 14.7375 53.33 11.2375C47.81 7.1975 43.05 2.4675 39.04-2.9625C35.04-8.3825 31.91-14.4025 29.64-21.0325C27.39-27.6125 26.27-34.3925 26.27-41.3825L26.27-70.2325C26.27-72.2525 27.55-74.0625 29.47-74.7225L68.47-88.2125ZM74.35-96.2425C71.55-97.2125 68.49-97.2125 65.69-96.2425L26.69-82.7525C21.35-80.9025 17.77-75.8825 17.77-70.2325L17.77-41.3825C17.77-33.4625 19.05-25.7525 21.6-18.2825C24.13-10.8525 27.67-4.0625 32.2 2.0775C36.73 8.2175 42.1 13.5575 48.31 18.0975C53.77 22.0875 59.67 25.2075 66 27.4275C68.6 28.3475 71.44 28.3475 74.04 27.4275C80.37 25.2075 86.27 22.0875 91.73 18.0975C97.94 13.5575 103.31 8.2175 107.84 2.0775C112.37-4.0625 115.91-10.8525 118.44-18.2825C120.99-25.7525 122.27-33.4625 122.27-41.3825L122.27-70.2325C122.27-75.8825 118.69-80.9025 113.35-82.7525L74.35-96.2425ZM98.56-51.3425C100.22-49.6825 100.22-46.9925 98.56-45.3325L69.82-16.5825C68.16-14.9225 65.47-14.9225 63.81-16.5825L63.79-16.6025L63.77-16.6225L46.43-33.9625C44.77-35.6225 44.77-38.3125 46.43-39.9725C48.09-41.6325 50.78-41.6325 52.44-39.9725L66.81-25.6025L92.55-51.3425C94.21-53.0025 96.9-53.0025 98.56-51.3425Z"/>
  </g>
  <g id="Light-L" transform="matrix(1 0 0 1 1083.89 1556)">
   <path d="M66.37-89.3225C67.68-89.7925 69.11-89.7925 70.42-89.3225L109.04-75.4825C111.43-74.6325 113.02-72.3725 113.02-69.8325L113.02-39.9425C113.02-32.5925 111.88-25.4625 109.6-18.5525C107.31-11.6025 104.13-5.2925 100.08 0.3875C96.03 6.0875 91.21 11.0375 85.63 15.2675C80.81 18.9175 75.62 21.7575 70.05 23.7975C68.98 24.1875 67.81 24.1875 66.74 23.7975C61.17 21.7575 55.98 18.9175 51.16 15.2675C45.58 11.0375 40.76 6.0875 36.71 0.3875C32.66-5.2925 29.48-11.6025 27.19-18.5525C24.91-25.4625 23.77-32.5925 23.77-39.9425L23.77-69.8325C23.77-72.3725 25.36-74.6325 27.75-75.4825L66.37-89.3225ZM72.44-94.9725C69.83-95.9025 66.96-95.9025 64.35-94.9725L25.72-81.1325C20.95-79.4225 17.77-74.9025 17.77-69.8325L17.77-39.9425C17.77-31.9625 19.01-24.2025 21.49-16.6725C23.96-9.1825 27.41-2.3225 31.82 3.8775C36.23 10.0675 41.47 15.4575 47.53 20.0475C52.82 24.0575 58.54 27.1875 64.67 29.4275C67.08 30.3075 69.71 30.3075 72.12 29.4275C78.25 27.1875 83.97 24.0575 89.26 20.0475C95.32 15.4575 100.56 10.0675 104.97 3.8775C109.38-2.3225 112.83-9.1825 115.3-16.6725C117.78-24.2025 119.02-31.9625 119.02-39.9425L119.02-69.8325C119.02-74.9025 115.84-79.4225 111.07-81.1325L72.44-94.9725ZM96.1-51.1425C97.27-49.9725 97.27-48.0725 96.1-46.9025L64.63-15.4225C63.45-14.2525 61.55-14.2525 60.38-15.4225C60.29-15.5125 60.21-15.6125 60.13-15.7125C60.03-15.7825 59.94-15.8725 59.84-15.9625L43.93-31.8725C42.76-33.0425 42.76-34.9425 43.93-36.1125C45.11-37.2825 47-37.2825 48.18-36.1125L62.5-21.7825L91.86-51.1425C93.03-52.3125 94.93-52.3125 96.1-51.1425Z"/>
  </g>
  <g id="Thin-L" transform="matrix(1 0 0 1 789.182 1556)">
   <path d="M63.908-89.7375C65.516-90.3075 67.274-90.3075 68.882-89.7375L106.882-76.1175C109.814-75.0675 111.77-72.2875 111.77-69.1775L111.77-39.7575C111.77-32.3675 110.622-25.1875 108.327-18.2275C106.025-11.2575 102.834-4.9075 98.755 0.8225C94.673 6.5525 89.827 11.5425 84.214 15.7925C79.362 19.4625 74.134 22.3325 68.525 24.3825C67.15 24.8925 65.64 24.8925 64.264 24.3825C58.656 22.3325 53.428 19.4625 48.576 15.7925C42.963 11.5425 38.117 6.5525 34.035 0.8225C29.956-4.9075 26.764-11.2575 24.463-18.2275C22.168-25.1875 21.02-32.3675 21.02-39.7575L21.02-69.1775C21.02-72.2875 22.976-75.0675 25.908-76.1175L63.908-89.7375ZM69.978-92.7975C67.661-93.6275 65.128-93.6275 62.812-92.7975L24.812-79.1775C20.588-77.6675 17.77-73.6675 17.77-69.1775L17.77-39.7575C17.77-32.0175 18.972-24.5075 21.377-17.2175C23.775-9.9375 27.112-3.2975 31.388 2.7025C35.661 8.7025 40.738 13.9325 46.614 18.3825C51.718 22.2425 57.229 25.2625 63.145 27.4325C65.243 28.2025 67.546 28.2025 69.644 27.4325C75.56 25.2625 81.072 22.2425 86.176 18.3825C92.052 13.9325 97.128 8.7025 101.402 2.7025C105.678-3.2975 109.014-9.9375 111.413-17.2175C113.818-24.5075 115.02-32.0175 115.02-39.7575L115.02-69.1775C115.02-73.6675 112.202-77.6675 107.978-79.1775L69.978-92.7975ZM93.78-51.7575C94.415-51.1175 94.415-50.0875 93.78-49.4575L60.828-16.5075C60.193-15.8675 59.165-15.8675 58.53-16.5075C58.497-16.5375 58.466-16.5675 58.437-16.6075C58.402-16.6375 58.368-16.6675 58.335-16.6975L40.905-34.1275C40.27-34.7675 40.27-35.7975 40.905-36.4275C41.54-37.0675 42.568-37.0675 43.203-36.4275L59.679-19.9475L91.482-51.7575C92.116-52.3875 93.145-52.3875 93.78-51.7575Z"/>
  </g>
  <g id="Ultralight-L" transform="matrix(1 0 0 1 492.996 1556)">
   <path d="M63.17-92.055C64.914-92.685 66.826-92.685 68.57-92.055L106.57-78.235C109.692-77.095 111.77-74.125 111.77-70.805L111.77-40.815C111.77-33.245 110.613-25.895 108.299-18.775C105.981-11.645 102.765-5.145 98.653 0.715C94.539 6.575 89.655 11.685 83.999 16.035C79.117 19.785 73.855 22.715 68.212 24.815C66.701 25.385 65.038 25.385 63.528 24.815C57.885 22.715 52.623 19.785 47.74 16.035C42.085 11.685 37.201 6.575 33.087 0.715C28.975-5.145 25.759-11.645 23.441-18.775C21.127-25.895 19.97-33.245 19.97-40.815L19.97-70.805C19.97-74.125 22.048-77.095 25.17-78.235L63.17-92.055ZM69.322-94.115C67.092-94.935 64.648-94.935 62.418-94.115L24.418-80.295C20.427-78.845 17.77-75.055 17.77-70.805L17.77-40.815C17.77-33.015 18.963-25.445 21.349-18.095C23.731-10.765 27.043-4.065 31.286 1.975C35.528 8.025 40.566 13.295 46.399 17.775C51.452 21.665 56.906 24.695 62.759 26.885C64.765 27.625 66.974 27.625 68.981 26.885C74.834 24.695 80.288 21.665 85.34 17.775C91.174 13.295 96.212 8.025 100.454 1.975C104.697-4.065 108.009-10.765 110.391-18.095C112.777-25.445 113.97-33.015 113.97-40.815L113.97-70.805C113.97-75.055 111.313-78.845 107.322-80.295L69.322-94.115ZM94.2-54.655C94.629-54.225 94.629-53.525 94.2-53.095L58.86-17.755C58.431-17.325 57.734-17.325 57.305-17.755L57.289-17.775L38.857-36.205C38.428-36.635 38.428-37.335 38.857-37.765C39.287-38.195 39.983-38.195 40.413-37.765L58.082-20.095L92.644-54.655C93.074-55.085 93.77-55.085 94.2-54.655Z"/>
  </g>
  <g id="Black-M" transform="matrix(1 0 0 1 2870.18 1126)">
   <path d="M62.2019-73.045C62.2719-73.065 62.3219-73.085 62.3519-73.085C62.3619-73.095 62.3819-73.095 62.3919-73.085C62.4219-73.085 62.4719-73.065 62.5419-73.045C62.8519-72.955 63.2719-72.815 64.0919-72.535L88.3919-64.225C90.0419-63.655 90.9219-63.345 91.5519-63.085C91.7019-63.025 91.8019-62.975 91.8719-62.945C91.8719-62.935 91.8819-62.925 91.8919-62.915C91.9019-62.835 91.9119-62.725 91.9219-62.575C91.9719-61.885 91.9719-60.955 91.9719-59.205L91.9719-41.405C91.9719-36.535 91.1819-31.825 89.6019-27.245C87.9919-22.585 85.7719-18.385 82.9519-14.595C80.1119-10.795 76.7419-7.485 72.8219-4.645C69.8419-2.495 66.6819-0.775 63.3119 0.525C63.0319 0.635 62.8519 0.705 62.7019 0.765C62.6019 0.805 62.5319 0.825 62.4919 0.835L62.4919 0.835C62.4519 0.835 62.4119 0.835 62.3719 0.835C62.3319 0.835 62.2919 0.835 62.2519 0.835L62.2519 0.835C62.2119 0.825 62.1419 0.805 62.0419 0.765C61.8919 0.705 61.7119 0.635 61.4319 0.525C58.0619-0.775 54.9019-2.495 51.9319-4.645C48.0019-7.485 44.6319-10.795 41.7919-14.595C38.9719-18.385 36.7519-22.585 35.1419-27.245C33.5619-31.825 32.7719-36.535 32.7719-41.405L32.7719-59.205C32.7719-60.955 32.7719-61.885 32.8219-62.575C32.8319-62.725 32.8419-62.835 32.8519-62.915C32.8619-62.925 32.8719-62.935 32.8819-62.945C32.9419-62.975 33.0419-63.025 33.1919-63.085C33.8219-63.345 34.7019-63.655 36.3519-64.225L60.6519-72.535C61.4719-72.815 61.8919-72.955 62.2019-73.045ZM64.4119-87.955C63.0619-88.135 61.6919-88.135 60.3319-87.955C58.7819-87.745 57.3219-87.245 56.1219-86.835C56.0119-86.795 55.9019-86.755 55.8019-86.725L31.5019-78.415C31.2919-78.345 31.0719-78.265 30.8519-78.195C28.4419-77.375 25.5419-76.405 23.2619-74.475C21.2919-72.805 19.7719-70.675 18.8319-68.275C17.7519-65.495 17.7619-62.435 17.7719-59.895C17.7719-59.665 17.7719-59.435 17.7719-59.205L17.7719-41.405C17.7719-34.875 18.8419-28.515 20.9619-22.355C23.0619-16.275 26.0019-10.685 29.7719-5.625C33.5319-0.595 37.9919 3.795 43.1419 7.515C47.1419 10.405 51.4319 12.745 56.0119 14.515L56.1719 14.575C57.1619 14.965 58.3719 15.435 60.0919 15.685C61.4419 15.885 63.3019 15.885 64.6519 15.685C66.3719 15.435 67.5819 14.965 68.5719 14.575L68.7319 14.515C73.3119 12.745 77.6019 10.405 81.6119 7.515C86.7519 3.795 91.2119-0.595 94.9719-5.625C98.7419-10.685 101.682-16.275 103.782-22.355C105.902-28.515 106.972-34.875 106.972-41.405L106.972-59.205C106.972-59.435 106.972-59.665 106.972-59.895L106.972-59.895C106.982-62.435 106.992-65.495 105.912-68.275C104.972-70.675 103.452-72.805 101.482-74.475C99.2019-76.395 96.3019-77.375 93.9019-78.195C93.6719-78.265 93.4519-78.345 93.2419-78.415L68.9419-86.725C68.8419-86.755 68.7319-86.795 68.6219-86.835C67.4219-87.245 65.9619-87.745 64.4119-87.955ZM82.1619-49.455C85.0919-46.525 85.0919-41.775 82.1619-38.845L65.4319-22.115C62.5019-19.185 57.7519-19.185 54.8219-22.115C54.8019-22.135 54.7719-22.165 54.7519-22.185C54.7319-22.205 54.7219-22.225 54.7019-22.235C54.6919-22.245 54.6819-22.255 54.6819-22.265L45.2819-31.655C42.3519-34.585 42.3519-39.335 45.2819-42.265C48.2119-45.185 52.9619-45.185 55.8919-42.265L60.1219-38.025L71.5519-49.455C74.4819-52.385 79.2319-52.385 82.1619-49.455Z"/>
  </g>
  <g id="Heavy-M" transform="matrix(1 0 0 1 2574.81 1126)">
   <path d="M60.582-73.0025C60.742-73.0525 60.822-73.0725 60.852-73.0725C60.972-73.0925 61.092-73.0925 61.212-73.0725C61.242-73.0725 61.322-73.0525 61.482-73.0025C61.822-72.9025 62.262-72.7525 63.072-72.4725L87.032-64.2825C88.672-63.7225 89.592-63.4025 90.262-63.1225C90.582-62.9825 90.742-62.9025 90.792-62.8725C90.962-62.7225 91.092-62.5425 91.172-62.3325C91.192-62.2725 91.212-62.1025 91.242-61.7525C91.292-61.0325 91.292-60.0525 91.292-58.3225L91.292-40.7725C91.292-35.8425 90.492-31.0725 88.892-26.4325C87.262-21.7225 85.022-17.4725 82.172-13.6525C79.302-9.8025 75.892-6.4525 71.932-3.5825C68.932-1.4125 65.732 0.3275 62.332 1.6475C62.052 1.7475 61.872 1.8175 61.702 1.8875C61.552 1.9375 61.462 1.9675 61.412 1.9875C61.392 1.9975 61.382 1.9975 61.372 1.9975C61.362 1.9975 61.352 2.0075 61.352 2.0075L61.352 2.0075L61.352 2.0075C61.352 2.0075 61.332 2.0075 61.312 2.0075L61.302 2.0075C61.232 2.0175 61.142 2.0175 61.032 2.0175C60.922 2.0175 60.832 2.0175 60.762 2.0075L60.752 2.0075C60.732 2.0075 60.722 2.0075 60.712 2.0075L60.712 2.0075L60.702 1.9975C60.692 1.9975 60.682 1.9975 60.652 1.9875C60.602 1.9675 60.512 1.9375 60.362 1.8875C60.202 1.8175 60.012 1.7475 59.732 1.6475C56.332 0.3275 53.132-1.4125 50.142-3.5825C46.172-6.4525 42.762-9.8025 39.902-13.6525C37.042-17.4725 34.802-21.7225 33.172-26.4325C31.572-31.0725 30.772-35.8425 30.772-40.7725L30.772-58.3225C30.772-60.0525 30.772-61.0325 30.822-61.7525C30.852-62.1025 30.882-62.2725 30.892-62.3325C30.972-62.5425 31.112-62.7225 31.272-62.8725C31.332-62.9025 31.482-62.9825 31.802-63.1225C32.472-63.4025 33.392-63.7225 35.032-64.2825L58.992-72.4725C59.812-72.7525 60.242-72.9025 60.582-73.0025ZM62.942-85.9625C61.672-86.1325 60.392-86.1325 59.132-85.9625C57.672-85.7725 56.312-85.3025 55.092-84.8825C54.992-84.8425 54.892-84.8125 54.792-84.7725L30.822-76.5825C30.612-76.5125 30.402-76.4325 30.192-76.3625L30.192-76.3625C27.752-75.5425 25.032-74.6225 22.912-72.8225C21.072-71.2625 19.642-69.2725 18.762-67.0225C17.752-64.4325 17.762-61.5725 17.772-58.9925C17.772-58.7625 17.772-58.5425 17.772-58.3225L17.772-40.7725C17.772-34.4025 18.812-28.1925 20.882-22.1925C22.932-16.2525 25.802-10.8025 29.482-5.8725C33.142-0.9625 37.502 3.3175 42.522 6.9475C46.412 9.7675 50.582 12.0375 55.032 13.7675L55.182 13.8175C56.172 14.2075 57.292 14.6375 58.892 14.8775C60.152 15.0675 61.912 15.0675 63.172 14.8775C64.782 14.6375 65.902 14.2075 66.892 13.8175L66.892 13.8175L67.032 13.7675C71.482 12.0375 75.652 9.7675 79.542 6.9475C84.562 3.3175 88.922-0.9625 92.592-5.8725C96.272-10.8025 99.132-16.2525 101.182-22.1925C103.252-28.1925 104.292-34.4025 104.292-40.7725L104.292-58.3225C104.292-58.5425 104.292-58.7625 104.292-58.9925C104.302-61.5725 104.312-64.4325 103.302-67.0225C102.422-69.2725 101.002-71.2625 99.152-72.8225C97.032-74.6225 94.322-75.5425 91.882-76.3625C91.662-76.4325 91.452-76.5125 91.242-76.5825L67.282-84.7725C67.182-84.8125 67.072-84.8425 66.972-84.8825L66.972-84.8825C65.752-85.3025 64.392-85.7725 62.942-85.9625ZM81.942-48.4225C84.482-45.8825 84.482-41.7725 81.942-39.2325L64.052-21.3425C61.512-18.8025 57.392-18.8025 54.862-21.3425C54.722-21.4725 54.592-21.6125 54.472-21.7625C54.322-21.8825 54.182-22.0125 54.052-22.1425L44.242-31.9525C41.702-34.4925 41.702-38.6025 44.242-41.1425C46.782-43.6825 50.892-43.6825 53.432-41.1425L59.452-35.1225L72.752-48.4225C75.292-50.9625 79.402-50.9625 81.942-48.4225Z"/>
  </g>
  <g id="Bold-M" transform="matrix(1 0 0 1 2279.22 1126)">
   <path d="M59.5818-74.05C59.8018-74.08 60.0218-74.08 60.2518-74.05C60.3718-74.03 60.5418-74 62.3118-73.39L86.1518-65.11C89.6818-63.89 90.0118-63.68 90.1818-63.54C90.4918-63.27 90.7418-62.93 90.8918-62.54C90.9718-62.34 91.0618-61.96 91.0618-58.22L91.0618-40.33C91.0618-35.21 90.2418-30.26 88.6018-25.46C86.9418-20.59 84.6618-16.19 81.7418-12.23C78.8218-8.25 75.3518-4.79 71.3218-1.83C68.2718 0.4 65.0318 2.19 61.5918 3.55C61.0118 3.78 60.7818 3.87 60.6118 3.93C60.5218 3.95 60.4518 3.97 60.3218 3.99C60.3118 3.99 60.2818 4 60.2418 4C60.1518 4 60.0418 4.01 59.9118 4.01C59.7918 4.01 59.6718 4 59.5818 4C59.5418 4 59.5218 3.99 59.5118 3.99C59.3718 3.97 59.3118 3.95 59.2218 3.93C59.0418 3.87 58.8218 3.78 58.2418 3.55C54.7918 2.19 51.5518 0.4 48.5118-1.83C44.4818-4.79 41.0118-8.25 38.0818-12.23C35.1718-16.19 32.8818-20.59 31.2218-25.46C29.5918-30.26 28.7718-35.21 28.7718-40.33L28.7718-58.22C28.7718-61.96 28.8618-62.34 28.9418-62.54C29.0918-62.93 29.3318-63.27 29.6518-63.54C29.8218-63.68 30.1418-63.89 33.6818-65.11L57.5218-73.39C59.2818-74 59.4618-74.03 59.5818-74.05ZM61.7118-84.95C60.5218-85.11 59.3118-85.11 58.1118-84.95C56.7518-84.77 55.4718-84.32 54.2118-83.88L53.9118-83.78L30.0718-75.51C29.8718-75.44 29.6718-75.37 29.4618-75.3C26.9918-74.45 24.4818-73.58 22.5218-71.92C20.8218-70.46 19.5018-68.61 18.6918-66.53C17.7618-64.13 17.7618-61.47 17.7718-58.86C17.7718-58.65 17.7718-58.43 17.7718-58.22L17.7718-40.33C17.7718-34.01 18.7818-27.86 20.8118-21.91C22.8218-16.02 25.6218-10.61 29.2218-5.71C32.8118-0.83 37.0818 3.43 42.0018 7.04C45.7918 9.82 49.8618 12.07 54.2018 13.78L54.3318 13.84C55.3318 14.23 56.3718 14.64 57.8918 14.87C59.0618 15.05 60.7618 15.05 61.9418 14.87C63.4618 14.64 64.4918 14.23 65.5018 13.84L65.6318 13.78C69.9618 12.07 74.0318 9.82 77.8218 7.04C82.7518 3.43 87.0118-0.83 90.6018-5.71C94.2118-10.61 97.0118-16.02 99.0118-21.91C101.042-27.86 102.062-34.01 102.062-40.33L102.062-58.22C102.062-58.43 102.062-58.65 102.062-58.86C102.062-61.47 102.072-64.13 101.142-66.53C100.332-68.61 99.0118-70.46 97.3018-71.92C95.3518-73.58 92.8318-74.45 90.3618-75.3C90.1618-75.37 89.9618-75.44 89.7518-75.51L65.9118-83.78L65.6118-83.88C64.3618-84.32 63.0718-84.77 61.7118-84.95ZM80.0918-47.22C82.2418-45.07 82.2418-41.59 80.0918-39.44L60.8718-20.22C58.7218-18.07 55.2418-18.07 53.0918-20.22C52.9218-20.39 52.7618-20.57 52.6218-20.75C52.4418-20.89 52.2618-21.05 52.1018-21.21L42.8718-30.44C40.7318-32.58 40.7318-36.07 42.8718-38.21C45.0218-40.36 48.5018-40.36 50.6518-38.21L56.9818-31.89L72.3118-47.22C74.4618-49.37 77.9418-49.37 80.0918-47.22Z"/>
  </g>
  <g id="Semibold-M" transform="matrix(1 0 0 1 1983.4 1126)">
   <path d="M58.5818-74.78C58.8718-74.82 59.1718-74.82 59.4618-74.78C59.6818-74.75 59.9418-74.68 61.6918-74.06L85.3918-65.72C88.8518-64.51 89.3418-64.25 89.6318-64C90.0418-63.65 90.3618-63.2 90.5518-62.7C90.6918-62.34 90.7718-61.79 90.7718-58.13L90.7718-39.92C90.7718-34.65 89.9418-29.56 88.2818-24.61C86.6018-19.61 84.2818-15.09 81.3318-11.02C78.3718-6.94 74.8618-3.39 70.7818-0.35C67.7218 1.93 64.4618 3.76 60.9918 5.15C60.4118 5.39 60.1618 5.48 59.9618 5.55C59.8318 5.59 59.7218 5.62 59.5318 5.65L59.5318 5.65C59.5118 5.65 59.4718 5.66 59.4018 5.66C59.2918 5.67 59.1618 5.67 59.0218 5.67C58.8818 5.67 58.7418 5.67 58.6418 5.66C58.5618 5.66 58.5218 5.65 58.5118 5.65C58.3218 5.62 58.2118 5.59 58.0818 5.55C57.8818 5.48 57.6318 5.39 57.0518 5.15C53.5818 3.76 50.3218 1.93 47.2618-0.35C43.1818-3.39 39.6718-6.94 36.7118-11.02C33.7618-15.09 31.4418-19.61 29.7618-24.61C28.1018-29.56 27.2718-34.65 27.2718-39.92L27.2718-58.13C27.2718-61.79 27.3518-62.34 27.4918-62.7C27.6818-63.2 28.0018-63.65 28.4118-64C28.7018-64.25 29.1918-64.51 32.6518-65.72L56.3518-74.06C58.1018-74.68 58.3618-74.75 58.5818-74.78ZM60.7418-84.19C59.6018-84.35 58.4418-84.35 57.3018-84.19C56.0018-84.02 54.7718-83.58 53.4818-83.13L53.1918-83.03L29.4918-74.68C29.3018-74.62 29.1118-74.55 28.9218-74.48L28.9218-74.48C26.4218-73.61 24.0618-72.78 22.2318-71.21C20.6318-69.84 19.3918-68.1 18.6318-66.14C17.7618-63.89 17.7618-61.38 17.7718-58.74C17.7718-58.54 17.7718-58.33 17.7718-58.13L17.7718-39.92C17.7718-33.63 18.7618-27.52 20.7518-21.59C22.7318-15.71 25.4818-10.32 29.0218-5.45C32.5518-0.58 36.7418 3.66 41.5818 7.27C45.2918 10.03 49.2718 12.26 53.5118 13.97L53.6318 14.02C54.6418 14.42 55.6218 14.82 57.0818 15.04C58.1918 15.22 59.8518 15.22 60.9618 15.04C62.4218 14.82 63.4018 14.42 64.4118 14.02L64.5318 13.97C68.7718 12.26 72.7518 10.03 76.4618 7.27C81.3018 3.66 85.4918-0.58 89.0218-5.45C92.5618-10.32 95.3118-15.71 97.2918-21.59C99.2818-27.52 100.272-33.63 100.272-39.92L100.272-58.13C100.272-58.33 100.272-58.53 100.272-58.73L100.272-58.74C100.282-61.38 100.282-63.89 99.4118-66.14C98.6518-68.1 97.4118-69.84 95.8118-71.21C93.9818-72.78 91.6118-73.61 89.1218-74.48L89.1218-74.48C88.9318-74.55 88.7418-74.62 88.5518-74.68L64.8518-83.03L64.5618-83.13C63.2718-83.58 62.0418-84.02 60.7418-84.19ZM80.5918-46.58C82.4418-44.73 82.4418-41.72 80.5918-39.87L60.4118-19.69C58.5618-17.83 55.5518-17.83 53.6918-19.69C53.6718-19.72 53.6418-19.74 53.6218-19.77C53.5918-19.8 53.5618-19.83 53.5318-19.85L40.2518-33.14C38.3918-34.99 38.3918-38 40.2518-39.85C42.1018-41.71 45.1118-41.71 46.9618-39.85L57.0518-29.77L73.8718-46.58C75.7318-48.44 78.7318-48.44 80.5918-46.58Z"/>
  </g>
  <g id="Medium-M" transform="matrix(1 0 0 1 1686.94 1126)">
   <path d="M58.3019-75.03C58.6119-75.07 58.9319-75.07 59.2419-75.03C59.4919-74.99 59.7819-74.91 61.5319-74.3L85.2319-65.95C88.6619-64.74 89.2019-64.47 89.5519-64.18C89.9919-63.8 90.3219-63.32 90.5319-62.78C90.7019-62.36 90.7719-61.76 90.7719-58.12L90.7719-39.88C90.7719-34.59 89.9419-29.46 88.2719-24.49C86.5819-19.46 84.2519-14.91 81.2819-10.82C78.3119-6.71 74.7819-3.14 70.6819-0.09C67.6019 2.21 64.3219 4.05 60.8319 5.45C59.7419 5.89 59.6419 5.92 59.3019 5.97L59.3119 5.97C59.3119 5.97 59.2619 5.98 59.1719 5.98C59.0519 5.99 58.9219 5.99 58.7719 5.99C58.6219 5.99 58.4919 5.99 58.3719 5.98C58.2819 5.98 58.2419 5.97 58.2319 5.97C58.2319 5.97 58.2319 5.97 58.2419 5.97C57.9019 5.92 57.8019 5.89 56.7119 5.45C53.2219 4.05 49.9419 2.21 46.8619-0.09C42.7619-3.14 39.2319-6.71 36.2619-10.82C33.2919-14.91 30.9619-19.46 29.2719-24.49C27.6019-29.46 26.7719-34.59 26.7719-39.88L26.7719-58.12C26.7719-61.76 26.8419-62.36 27.0119-62.78C27.2219-63.32 27.5519-63.8 27.9919-64.18C28.3419-64.47 28.8819-64.74 32.3119-65.95L56.0119-74.3C57.7619-74.91 58.0519-74.99 58.3019-75.03ZM60.4619-83.94C59.3419-84.1 58.2019-84.1 57.0819-83.94C55.8119-83.77 54.6019-83.34 53.3019-82.89L53.0219-82.79L29.3219-74.44C29.1319-74.37 28.9519-74.31 28.7619-74.24L28.7619-74.24C26.2519-73.36 23.9319-72.55 22.1419-71.01C20.5719-69.67 19.3619-67.96 18.6119-66.04C17.7619-63.83 17.7619-61.38 17.7719-58.72C17.7719-58.52 17.7719-58.32 17.7719-58.12L17.7719-39.88C17.7719-33.62 18.7619-27.53 20.7419-21.63C22.7119-15.77 25.4519-10.4 28.9719-5.54C32.4819-0.69 36.6619 3.54 41.4819 7.13C45.1719 9.88 49.1319 12.11 53.3519 13.8L53.4619 13.85C54.4819 14.26 55.4419 14.65 56.8619 14.87C57.9519 15.03 59.5919 15.03 60.6819 14.87C62.1019 14.65 63.0619 14.26 64.0819 13.85L64.1919 13.8C68.4119 12.11 72.3719 9.88 76.0619 7.13C80.8819 3.54 85.0619-0.69 88.5719-5.54C92.0919-10.4 94.8319-15.77 96.8019-21.63C98.7819-27.53 99.7719-33.62 99.7719-39.88L99.7719-58.12C99.7719-58.32 99.7719-58.52 99.7719-58.72C99.7819-61.38 99.7819-63.83 98.9319-66.04C98.1819-67.96 96.9719-69.67 95.4019-71.01C93.6119-72.55 91.2919-73.36 88.7819-74.24C88.5919-74.31 88.4119-74.37 88.2219-74.44L64.5219-82.79L64.2419-82.89C62.9419-83.34 61.7319-83.77 60.4619-83.94ZM80.9119-47.2C82.6719-45.44 82.6719-42.59 80.9119-40.84L60.3819-20.31C58.6219-18.55 55.7819-18.55 54.0219-20.31C53.9219-20.41 53.8219-20.51 53.7319-20.62C53.6219-20.71 53.5219-20.8 53.4219-20.91L40.5719-33.75C38.8119-35.51 38.8119-38.36 40.5719-40.12C42.3319-41.87 45.1819-41.87 46.9319-40.12L57.2019-29.85L74.5519-47.2C76.3119-48.96 79.1619-48.96 80.9119-47.2Z"/>
  </g>
  <g id="Regular-M" transform="matrix(1 0 0 1 1390.48 1126)">
   <path d="M57.96-75.785C58.33-75.835 58.71-75.835 59.08-75.785C59.42-75.735 59.79-75.625 61.48-75.045L85.68-66.675C89.08-65.495 89.79-65.185 90.27-64.775C90.81-64.325 91.22-63.735 91.48-63.085C91.71-62.495 91.77-61.715 91.77-58.125L91.77-40.065C91.77-34.725 90.91-29.545 89.2-24.525C87.47-19.455 85.07-14.865 82.02-10.725C78.96-6.575 75.33-2.965 71.11 0.115C67.9 2.465 64.48 4.345 60.84 5.775C59.75 6.205 59.58 6.265 59.15 6.325C59.16 6.325 59.14 6.325 59.1 6.335C59.06 6.335 59.01 6.335 58.95 6.345C58.82 6.345 58.68 6.355 58.52 6.355C58.36 6.355 58.22 6.345 58.09 6.345C58.03 6.335 57.98 6.335 57.94 6.335C57.91 6.325 57.89 6.325 57.89 6.325C57.46 6.265 57.29 6.205 56.2 5.775C52.56 4.345 49.14 2.465 45.93 0.115C41.71-2.965 38.08-6.575 35.02-10.725C31.97-14.865 29.57-19.455 27.84-24.525C26.13-29.545 25.27-34.725 25.27-40.065L25.27-58.125C25.27-61.715 25.33-62.495 25.56-63.085C25.82-63.735 26.23-64.325 26.77-64.775C27.25-65.185 27.96-65.495 31.36-66.675L55.56-75.045C57.25-75.625 57.62-75.735 57.96-75.785ZM60.08-83.215C59.04-83.355 58-83.355 56.96-83.215C55.78-83.055 54.67-82.675 53.37-82.225L53.11-82.135L28.91-73.765C28.73-73.705 28.56-73.645 28.38-73.585L28.38-73.585C25.81-72.695 23.61-71.935 21.91-70.495C20.43-69.235 19.28-67.615 18.57-65.805C17.76-63.725 17.77-61.405 17.77-58.675C17.77-58.495 17.77-58.305 17.77-58.125L17.77-40.065C17.77-33.905 18.76-27.905 20.75-22.095C22.72-16.335 25.46-11.055 28.99-6.275C32.5-1.505 36.68 2.645 41.51 6.175C45.23 8.895 49.21 11.095 53.46 12.755L53.57 12.805C54.58 13.195 55.46 13.545 56.77 13.745C57.76 13.895 59.28 13.895 60.27 13.745C61.58 13.545 62.46 13.195 63.47 12.805L63.58 12.755C67.83 11.095 71.81 8.895 75.53 6.175C80.36 2.645 84.54-1.505 88.05-6.275C91.58-11.055 94.32-16.335 96.29-22.095C98.28-27.905 99.27-33.905 99.27-40.065L99.27-58.125C99.27-58.305 99.27-58.495 99.27-58.675C99.27-61.405 99.28-63.725 98.47-65.805C97.76-67.615 96.61-69.235 95.13-70.495C93.43-71.935 91.23-72.695 88.66-73.585C88.48-73.645 88.31-73.705 88.13-73.765L63.93-82.135L63.67-82.225C62.37-82.675 61.26-83.055 60.08-83.215ZM80.86-47.405C82.32-45.935 82.32-43.565 80.86-42.095L59.37-20.605C57.9-19.145 55.53-19.145 54.06-20.605C53.95-20.725 53.84-20.855 53.74-20.985C53.61-21.075 53.48-21.185 53.37-21.305L40.67-34.005C39.2-35.465 39.2-37.845 40.67-39.305C42.13-40.775 44.51-40.775 45.97-39.305L56.72-28.565L75.55-47.405C77.02-48.865 79.39-48.865 80.86-47.405Z"/>
  </g>
  <g id="Light-M" transform="matrix(1 0 0 1 1095.02 1126)">
   <path d="M56.55-76.735C57.03-76.805 57.51-76.805 57.99-76.735C58.46-76.675 58.95-76.515 60.66-75.895L84.61-67.325C87.88-66.145 88.8-65.775 89.45-65.215C90.1-64.645 90.61-63.935 90.92-63.125C91.23-62.335 91.27-61.335 91.27-57.855L91.27-38.915C91.27-33.285 90.4-27.835 88.65-22.545C86.9-17.225 84.47-12.395 81.37-8.045C78.26-3.685 74.58 0.105 70.31 3.345C67.1 5.775 63.67 7.735 60.03 9.235C58.93 9.685 58.66 9.785 58.08 9.875C57.72 9.935 56.82 9.935 56.46 9.875C55.88 9.785 55.61 9.685 54.51 9.235C50.87 7.735 47.44 5.775 44.23 3.345C39.96 0.105 36.28-3.685 33.17-8.045C30.07-12.395 27.64-17.225 25.89-22.545C24.14-27.835 23.27-33.285 23.27-38.915L23.27-57.855C23.27-61.335 23.31-62.335 23.62-63.125C23.93-63.935 24.44-64.645 25.09-65.215C25.74-65.775 26.66-66.145 29.93-67.325L53.88-75.895C55.59-76.515 56.08-76.675 56.55-76.735ZM58.74-82.185C57.77-82.325 56.77-82.325 55.8-82.185C54.69-82.035 53.63-81.655 52.25-81.155L52.03-81.075L28.08-72.495L27.63-72.335C25.01-71.405 23.02-70.695 21.5-69.375C20.16-68.225 19.13-66.755 18.49-65.105C17.77-63.225 17.77-61.115 17.77-58.335L17.77-57.855L17.77-38.915C17.77-32.705 18.73-26.675 20.66-20.825C22.58-14.995 25.26-9.675 28.69-4.855C32.12-0.035 36.2 4.155 40.91 7.725C44.49 10.445 48.33 12.645 52.43 14.325L52.52 14.355C53.55 14.785 54.36 15.115 55.6 15.305C56.53 15.455 58.01 15.455 58.94 15.305C60.18 15.115 60.99 14.785 62.02 14.355L62.11 14.325C66.21 12.645 70.05 10.445 73.63 7.725C78.34 4.155 82.42-0.035 85.85-4.855C89.28-9.675 91.96-14.995 93.88-20.825C95.81-26.675 96.77-32.705 96.77-38.915L96.77-57.855L96.77-58.335L96.77-58.335C96.77-61.115 96.77-63.225 96.05-65.105C95.41-66.755 94.38-68.225 93.04-69.375C91.52-70.695 89.53-71.405 86.91-72.335L86.46-72.495L62.51-81.075L62.29-81.155C60.91-81.655 59.85-82.035 58.74-82.185ZM79.73-47.245C80.8-46.175 80.8-44.435 79.73-43.355L56.06-19.685C54.98-18.615 53.24-18.615 52.17-19.685C52.12-19.735 52.08-19.775 52.03-19.825C51.98-19.865 51.94-19.915 51.89-19.955L38.39-33.465C37.31-34.535 37.31-36.285 38.39-37.355C39.46-38.425 41.2-38.425 42.27-37.355L54.11-25.515L75.84-47.245C76.91-48.325 78.65-48.325 79.73-47.245Z"/>
  </g>
  <g id="Thin-M" transform="matrix(1 0 0 1 799.932 1126)">
   <path d="M54.7711-76.99C55.3511-77.07 55.9391-77.07 56.5201-76.99C57.1351-76.9 57.7521-76.69 59.4141-76.1L82.8641-67.7C86.0461-66.56 87.2171-66.11 88.0601-65.38C88.8541-64.7 89.4661-63.83 89.8431-62.85C90.2441-61.81 90.2701-60.56 90.2701-57.18L90.2701-38.61C90.2701-32.95 89.3911-27.45 87.6331-22.12C85.8701-16.78 83.4251-11.91 80.3011-7.53C77.1741-3.14 73.4631 0.68 69.1641 3.94C65.9351 6.38 62.4891 8.36 58.8261 9.87C57.7371 10.31 57.3561 10.47 56.6371 10.58C56.1591 10.65 55.1321 10.65 54.6541 10.58C53.9341 10.47 53.5531 10.31 52.4651 9.87C48.8011 8.36 45.3551 6.38 42.1261 3.94C37.8271 0.68 34.1161-3.14 30.9891-7.53C27.8661-11.91 25.4211-16.78 23.6571-22.12C21.8991-27.45 21.0201-32.95 21.0201-38.61L21.0201-57.18C21.0201-60.56 21.0461-61.81 21.4471-62.85C21.8241-63.83 22.4361-64.7 23.2301-65.38C24.0731-66.11 25.2441-66.56 28.4271-67.7L51.8771-76.1C53.5381-76.69 54.1551-76.9 54.7711-76.99ZM56.9651-80.21C56.0891-80.33 55.2011-80.33 54.3251-80.21C53.3351-80.07 52.3871-79.73 50.9411-79.21L50.7811-79.16L27.3311-70.76L27.0111-70.64C24.2641-69.66 22.4661-69.02 21.1061-67.84C19.9091-66.81 18.9841-65.49 18.4151-64.02C17.7691-62.34 17.7691-60.43 17.7701-57.52L17.7701-57.18L17.7701-38.61C17.7701-32.6 18.7041-26.77 20.5711-21.1C22.4321-15.46 25.0221-10.3 28.3421-5.64C31.6601-0.99 35.6021 3.07 40.1641 6.53C43.6121 9.14 47.3001 11.26 51.2281 12.87L51.2871 12.9C52.3321 13.33 53.0291 13.61 54.1481 13.79C54.9611 13.92 56.3291 13.92 57.1421 13.79C58.2621 13.61 58.9591 13.33 60.0031 12.9L60.0621 12.87C63.9901 11.26 67.6791 9.14 71.1261 6.53C75.6881 3.07 79.6301-0.99 82.9481-5.64C86.2691-10.3 88.8581-15.46 90.7201-21.1C92.5871-26.77 93.5201-32.6 93.5201-38.61L93.5201-57.18L93.5201-57.52C93.5211-60.43 93.5221-62.34 92.8761-64.02C92.3061-65.49 91.3821-66.81 90.1841-67.84C88.8241-69.02 87.0261-69.66 84.2791-70.64L83.9601-70.76L60.5101-79.16L60.3491-79.21C58.9041-79.73 57.9551-80.07 56.9651-80.21ZM77.0291-47.6C77.6641-46.97 77.6641-45.94 77.0291-45.3L52.1401-20.41C51.5051-19.78 50.4761-19.78 49.8421-20.41C49.8091-20.44 49.7781-20.48 49.7491-20.51C49.7141-20.54 49.6801-20.57 49.6481-20.61L36.2481-34.01C35.6131-34.64 35.6131-35.67 36.2481-36.3C36.8831-36.94 37.9111-36.94 38.5461-36.3L50.9911-23.86L74.7311-47.6C75.3661-48.23 76.3951-48.23 77.0291-47.6Z"/>
  </g>
  <g id="Ultralight-M" transform="matrix(1 0 0 1 502.996 1126)">
   <path d="M54.215-79.3775C55.285-79.7575 56.455-79.7575 57.525-79.3775L88.525-68.2475C90.472-67.5475 91.77-65.7075 91.77-63.6375L91.77-39.6575C91.77-33.8075 90.863-28.1275 89.05-22.6175C87.233-17.0975 84.712-12.0775 81.49-7.5475C78.266-3.0075 74.438 0.9425 70.005 4.3025C66.082 7.2825 61.847 9.5825 57.296 11.2225C56.374 11.5525 55.366 11.5525 54.443 11.2225C49.893 9.5825 45.658 7.2825 41.735 4.3025C37.301 0.9425 33.474-3.0075 30.25-7.5475C27.027-12.0775 24.507-17.0975 22.69-22.6175C20.877-28.1275 19.97-33.8075 19.97-39.6575L19.97-63.6375C19.97-65.7075 21.268-67.5475 23.215-68.2475L54.215-79.3775ZM58.268-81.4475C56.718-81.9975 55.022-81.9975 53.471-81.4475L22.471-70.3175C19.651-69.3075 17.77-66.6375 17.77-63.6375L17.77-39.6575C17.77-33.5775 18.713-27.6675 20.6-21.9275C22.483-16.2075 25.101-10.9875 28.457-6.2675C31.81-1.5575 35.794 2.5525 40.405 6.0525C44.503 9.1625 48.935 11.5725 53.699 13.2925C55.102 13.7925 56.637 13.7925 58.041 13.2925C62.805 11.5725 67.237 9.1625 71.335 6.0525C75.946 2.5525 79.93-1.5575 83.283-6.2675C86.638-10.9875 89.257-16.2075 91.14-21.9275C93.027-27.6675 93.97-33.5775 93.97-39.6575L93.97-63.6375C93.97-66.6375 92.089-69.3075 89.268-70.3175L58.268-81.4475ZM78.642-48.6775C79.072-48.2475 79.072-47.5575 78.642-47.1275L52.187-20.6675C51.758-20.2375 51.061-20.2375 50.632-20.6675C50.617-20.6875 50.603-20.6975 50.59-20.7175C50.575-20.7275 50.561-20.7375 50.546-20.7575L35.626-35.6775C35.197-36.1075 35.197-36.8075 35.626-37.2275C36.056-37.6575 36.752-37.6575 37.182-37.2275L51.409-23.0075L77.087-48.6775C77.516-49.1075 78.213-49.1075 78.642-48.6775Z"/>
  </g>
  <g id="Black-S" transform="matrix(1 0 0 1 2880.29 696)">
   <path d="M55.18-75.5065C53.29-76.1525 51.25-76.1525 49.36-75.5065L23.86-66.7845C20.22-65.5395 17.77-62.1175 17.77-58.2695L17.77-39.7135C17.77-34.6685 18.59-29.7535 20.24-24.9955C21.86-20.3035 24.12-15.9905 27.04-12.0855C29.94-8.1955 33.39-4.8105 37.35-1.9405C41.09 0.7655 45.16 2.8395 49.54 4.2705C51.31 4.8495 53.23 4.8495 55 4.2705C59.38 2.8395 63.45 0.7655 67.19-1.9405C71.16-4.8105 74.6-8.1955 77.5-12.0855C80.42-15.9905 82.68-20.3035 84.3-24.9955C85.95-29.7535 86.77-34.6685 86.77-39.7135L86.77-58.2695C86.77-62.1175 84.32-65.5395 80.68-66.7845L55.18-75.5065ZM29.77-56.1245L52.27-63.8205L74.77-56.1245L74.77-39.7135C74.77-35.9975 74.17-32.4065 72.96-28.9135C71.73-25.3545 70.04-22.1465 67.89-19.2615C65.72-16.3615 63.15-13.8315 60.15-11.6635C57.71-9.8935 55.08-8.5015 52.27-7.4805C49.46-8.5015 46.83-9.8935 44.39-11.6635C41.39-13.8315 38.82-16.3615 36.65-19.2615C34.5-22.1465 32.81-25.3545 31.58-28.9135C30.37-32.4065 29.77-35.9975 29.77-39.7135L29.77-56.1245ZM66.71-45.4185C69.06-43.0755 69.06-39.2765 66.71-36.9335L54.2-24.4185C51.85-22.0755 48.06-22.0755 45.71-24.4185C45.55-24.5855 45.39-24.7595 45.25-24.9395C45.07-25.0825 44.89-25.2375 44.73-25.4045L38.21-31.9185C35.87-34.2615 35.87-38.0605 38.21-40.4045C40.56-42.7475 44.35-42.7475 46.7-40.4045L49.96-37.1465L58.23-45.4185C60.57-47.7615 64.37-47.7615 66.71-45.4185Z"/>
  </g>
  <g id="Heavy-S" transform="matrix(1 0 0 1 2584.57 696)">
   <path d="M53.86-74.5425C52.18-75.1165 50.36-75.1165 48.68-74.5425L23.18-65.8205C19.94-64.7135 17.77-61.6715 17.77-58.2515L17.77-39.6955C17.77-34.7615 18.57-29.9565 20.18-25.3035C21.77-20.7065 23.99-16.4855 26.84-12.6655C29.68-8.8575 33.05-5.5445 36.94-2.7325C40.6-0.0875 44.57 1.9385 48.85 3.3375C50.42 3.8515 52.12 3.8515 53.69 3.3375C57.97 1.9385 61.94-0.0875 65.6-2.7325C69.49-5.5445 72.86-8.8575 75.7-12.6655C78.55-16.4855 80.77-20.7065 82.36-25.3035C83.97-29.9565 84.77-34.7615 84.77-39.6955L84.77-58.2515C84.77-61.6715 82.6-64.7135 79.36-65.8205L53.86-74.5425ZM27.77-56.8215L51.27-64.8595L74.77-56.8215L74.77-39.6955C74.77-35.8685 74.15-32.1675 72.91-28.5685C71.64-24.9155 69.9-21.6155 67.69-18.6455C65.46-15.6625 62.82-13.0615 59.74-10.8355C57.12-8.9395 54.3-7.4635 51.27-6.4015C48.24-7.4635 45.42-8.9395 42.8-10.8355C39.72-13.0615 37.08-15.6625 34.85-18.6455C32.64-21.6155 30.9-24.9155 29.63-28.5685C28.39-32.1675 27.77-35.8685 27.77-39.6955L27.77-56.8215ZM66.01-46.1075C67.96-44.1555 67.96-40.9895 66.01-39.0365L52.08-25.1075C50.12-23.1555 46.96-23.1555 45.01-25.1075C44.91-25.2045 44.82-25.3035 44.73-25.4045C44.63-25.4915 44.53-25.5825 44.43-25.6785L37.51-32.6075C35.55-34.5605 35.55-37.7265 37.51-39.6785C39.46-41.6315 42.62-41.6315 44.58-39.6785L48.54-35.7145L58.93-46.1075C60.89-48.0605 64.05-48.0605 66.01-46.1075Z"/>
  </g>
  <g id="Bold-S" transform="matrix(1 0 0 1 2288.11 696)">
   <path d="M27.27-56.8737L51.02-65.1147L74.77-56.8737L74.77-39.2537C74.77-35.3277 74.14-31.5297 72.89-27.8407C71.61-24.0987 69.85-20.7197 67.62-17.6798C65.37-14.6268 62.71-11.9688 59.61-9.69475C56.95-7.74375 54.09-6.22875 51.02-5.14275C47.95-6.22875 45.09-7.74375 42.43-9.69475C39.33-11.9688 36.67-14.6268 34.42-17.6798C32.19-20.7197 30.43-24.0987 29.15-27.8407C27.9-31.5297 27.27-35.3277 27.27-39.2537L27.27-56.8737ZM53.56-74.2887C51.91-74.8597 50.13-74.8597 48.48-74.2887L22.98-65.4407C19.86-64.3587 17.77-61.4207 17.77-58.1197L17.77-39.2537C17.77-34.2917 18.57-29.4588 20.16-24.7787C21.74-20.1497 23.94-15.8997 26.77-12.0507C29.59-8.21375 32.94-4.87275 36.81-2.03475C40.44 0.62925 44.39 2.67425 48.65 4.08625C50.19 4.59725 51.85 4.59725 53.39 4.08625C57.65 2.67425 61.6 0.62925 65.23-2.03475C69.1-4.87275 72.45-8.21375 75.27-12.0507C78.1-15.8997 80.3-20.1497 81.88-24.7787C83.47-29.4588 84.27-34.2917 84.27-39.2537L84.27-58.1197C84.27-61.4207 82.18-64.3587 79.06-65.4407L53.56-74.2887ZM66.38-44.2837C68.23-42.4287 68.23-39.4217 66.38-37.5667L52.1-23.2837C50.24-21.4287 47.23-21.4287 45.38-23.2837C45.34-23.3207 45.31-23.3568 45.27-23.3947C45.23-23.4298 45.2-23.4647 45.16-23.5018L36.88-31.7837C35.02-33.6387 35.02-36.6467 36.88-38.5018C38.73-40.3568 41.74-40.3568 43.6-38.5018L48.74-33.3597L59.66-44.2837C61.52-46.1387 64.52-46.1387 66.38-44.2837Z"/>
  </g>
  <g id="Semibold-S" transform="matrix(1 0 0 1 1991.9 696)">
   <path d="M26.27-57.0973L50.52-65.6313L74.77-57.0973L74.77-38.8072C74.77-34.7563 74.13-30.8362 72.85-27.0303C71.56-23.1783 69.78-19.6962 67.5-16.5643C65.23-13.4222 62.52-10.6872 59.38-8.35025C56.64-6.31025 53.69-4.73425 50.52-3.61425C47.35-4.73425 44.4-6.31025 41.66-8.35025C38.52-10.6872 35.81-13.4222 33.54-16.5643C31.26-19.6962 29.48-23.1783 28.19-27.0303C26.91-30.8362 26.27-34.7563 26.27-38.8072L26.27-57.0973ZM52.93-73.7953C51.37-74.3442 49.67-74.3442 48.11-73.7953L22.61-64.8212C19.71-63.8003 17.77-61.0583 17.77-57.9823L17.77-38.8072C17.77-33.8423 18.56-29.0092 20.13-24.3252C21.69-19.6872 23.86-15.4303 26.65-11.5752C29.44-7.73025 32.76-4.37925 36.58-1.53125C40.17 1.13775 44.07 3.18675 48.28 4.60375C49.73 5.09375 51.31 5.09375 52.76 4.60375C56.97 3.18675 60.87 1.13775 64.46-1.53125C68.28-4.37925 71.6-7.73025 74.39-11.5752C77.18-15.4303 79.35-19.6872 80.91-24.3252C82.48-29.0092 83.27-33.8423 83.27-38.8072L83.27-57.9823C83.27-61.0583 81.33-63.8003 78.43-64.8212L52.93-73.7953ZM66.53-44.6322C68.18-42.9723 68.18-40.2812 66.53-38.6213L51.54-23.6322C49.88-21.9723 47.18-21.9723 45.53-23.6322C45.44-23.7183 45.36-23.8062 45.28-23.8982C45.19-23.9752 45.1-24.0562 45.01-24.1422L36.03-33.1322C34.37-34.7922 34.37-37.4823 36.03-39.1422C37.68-40.8022 40.38-40.8022 42.04-39.1422L48.53-32.6472L60.51-44.6322C62.17-46.2922 64.87-46.2922 66.53-44.6322Z"/>
  </g>
  <g id="Medium-S" transform="matrix(1 0 0 1 1695.44 696)">
   <path d="M25.77-57.0202L50.27-65.8852L74.77-57.0202L74.77-37.9262C74.77-33.7092 74.12-29.6282 72.83-25.6692C71.52-21.6662 69.72-18.0492 67.43-14.7972C65.13-11.5362 62.4-8.70125 59.24-6.28325C56.46-4.15825 53.48-2.52325 50.27-1.36325C47.06-2.52325 44.08-4.15825 41.3-6.28325C38.14-8.70125 35.41-11.5362 33.11-14.7972C30.82-18.0492 29.02-21.6662 27.71-25.6692C26.42-29.6282 25.77-33.7092 25.77-37.9262L25.77-57.0202ZM52.65-73.5312C51.11-74.0882 49.43-74.0882 47.89-73.5312L22.39-64.3042C19.62-63.3012 17.77-60.6692 17.77-57.7212L17.77-37.9262C17.77-32.8742 18.55-27.9552 20.11-23.1862C21.65-18.4592 23.8-14.1192 26.58-10.1872C29.34-6.26425 32.63-2.84225 36.44 0.06975C40 2.79275 43.87 4.88575 48.05 6.33675C49.49 6.83675 51.05 6.83675 52.49 6.33675C56.67 4.88575 60.54 2.79275 64.1 0.06975C67.91-2.84225 71.2-6.26425 73.96-10.1872C76.74-14.1192 78.89-18.4592 80.43-23.1862C81.99-27.9552 82.77-32.8742 82.77-37.9262L82.77-57.7212C82.77-60.6692 80.92-63.3012 78.15-64.3042L52.65-73.5312ZM66.1-43.8112C67.66-42.2482 67.66-39.7162 66.1-38.1542L50.76-22.8112C49.19-21.2482 46.66-21.2482 45.1-22.8112C45.07-22.8372 45.05-22.8632 45.02-22.8902C44.99-22.9152 44.97-22.9412 44.94-22.9672L35.6-32.3112C34.04-33.8732 34.04-36.4052 35.6-37.9672C37.16-39.5292 39.69-39.5292 41.26-37.9672L47.93-31.2962L60.44-43.8112C62-45.3732 64.54-45.3732 66.1-43.8112Z"/>
  </g>
  <g id="Regular-S" transform="matrix(1 0 0 1 1398.98 696)">
   <path d="M24.27-57.7695L50.02-66.6755L75.77-57.7695L75.77-38.7845C75.77-34.6315 75.1-30.6105 73.77-26.7055C72.42-22.7645 70.56-19.1935 68.19-15.9765C65.81-12.7515 62.98-9.9415 59.7-7.5415C56.72-5.3605 53.49-3.6905 50.02-2.5265C46.55-3.6905 43.32-5.3605 40.34-7.5415C37.06-9.9415 34.23-12.7515 31.85-15.9765C29.48-19.1935 27.62-22.7645 26.27-26.7055C24.94-30.6105 24.27-34.6315 24.27-38.7845L24.27-57.7695ZM52.06-72.8465C50.74-73.3045 49.3-73.3045 47.98-72.8465L21.98-63.8545C19.46-62.9835 17.77-60.6115 17.77-57.9475L17.77-38.7845C17.77-33.9205 18.55-29.1895 20.12-24.6045C21.67-20.0555 23.84-15.8875 26.62-12.1175C29.4-8.3555 32.69-5.0795 36.5-2.2955C40.07 0.3155 43.95 2.3145 48.13 3.6945C49.36 4.1005 50.68 4.1005 51.91 3.6945C56.09 2.3145 59.97 0.3155 63.54-2.2955C67.35-5.0795 70.64-8.3555 73.42-12.1175C76.2-15.8875 78.37-20.0555 79.92-24.6045C81.49-29.1895 82.27-33.9205 82.27-38.7845L82.27-57.9475C82.27-60.6115 80.58-62.9835 78.06-63.8545L52.06-72.8465ZM67.75-44.3165C69.02-43.0475 69.02-40.9895 67.75-39.7205L51.34-23.3165C50.08-22.0475 48.02-22.0475 46.75-23.3165C46.73-23.3325 46.72-23.3485 46.7-23.3645C46.69-23.3755 46.68-23.3855 46.67-23.3965C46.66-23.4015 46.66-23.4075 46.65-23.4125L36.25-33.8165C34.98-35.0855 34.98-37.1435 36.25-38.4125C37.52-39.6815 39.58-39.6815 40.84-38.4125L49.05-30.2105L63.15-44.3165C64.42-45.5855 66.48-45.5855 67.75-44.3165Z"/>
  </g>
  <g id="Light-S" transform="matrix(1 0 0 1 1104.02 696)">
   <path d="M48.1-67.3915C48.21-67.4305 48.33-67.4305 48.44-67.3915L73.44-58.4365C73.64-58.3645 73.77-58.1765 73.77-57.9655L73.77-38.7775C73.77-34.5335 73.11-30.4215 71.8-26.4305C70.47-22.4145 68.64-18.7715 66.3-15.4905C63.96-12.2035 61.18-9.3435 57.96-6.9045C55-4.6625 51.8-2.9535 48.36-1.7685C48.3-1.7485 48.24-1.7485 48.18-1.7685C44.74-2.9535 41.54-4.6625 38.58-6.9045C35.36-9.3435 32.58-12.2035 30.24-15.4905C27.9-18.7715 26.07-22.4145 24.74-26.4305C23.43-30.4215 22.77-34.5335 22.77-38.7775L22.77-57.9655C22.77-58.1765 22.9-58.3645 23.1-58.4365L48.1-67.3915ZM50.12-72.0985C48.93-72.5285 47.61-72.5285 46.42-72.0985L21.42-63.1435C19.23-62.3595 17.77-60.2875 17.77-57.9655L17.77-38.7775C17.77-34.0055 18.51-29.3645 20-24.8645C21.47-20.3915 23.53-16.2955 26.17-12.5895C28.8-8.8895 31.94-5.6635 35.56-2.9185C38.94-0.3625 42.6 1.5995 46.56 2.9595C47.67 3.3415 48.87 3.3415 49.98 2.9595C53.94 1.5995 57.6-0.3625 60.98-2.9185C64.6-5.6635 67.74-8.8895 70.37-12.5895C73.01-16.2955 75.07-20.3915 76.54-24.8645C78.03-29.3645 78.77-34.0055 78.77-38.7775L78.77-57.9655C78.77-60.2875 77.31-62.3595 75.12-63.1435L50.12-72.0985ZM65.67-44.8395C66.64-43.8635 66.64-42.2805 65.67-41.3045L48.2-23.8395C47.23-22.8635 45.64-22.8635 44.67-23.8395C44.6-23.9055 44.54-23.9735 44.48-24.0445C44.41-24.1015 44.35-24.1625 44.28-24.2285L34.17-34.3395C33.19-35.3155 33.19-36.8985 34.17-37.8755C35.14-38.8515 36.73-38.8515 37.7-37.8755L46.44-29.1425L62.13-44.8395C63.11-45.8155 64.69-45.8155 65.67-44.8395Z"/>
  </g>
  <g id="Thin-S" transform="matrix(1 0 0 1 808.182 696)">
   <path d="M46.931-68.1985C47.231-68.3055 47.559-68.3055 47.859-68.1985L72.859-59.2425C73.405-59.0465 73.77-58.5285 73.77-57.9485L73.77-38.7605C73.77-34.4235 73.097-30.2195 71.752-26.1395C70.401-22.0435 68.529-18.3215 66.138-14.9655C63.745-11.6065 60.905-8.6825 57.614-6.1895C54.582-3.8935 51.301-2.1395 47.766-0.9235C47.526-0.8415 47.264-0.8415 47.024-0.9235C43.489-2.1395 40.208-3.8935 37.176-6.1895C33.885-8.6825 31.045-11.6065 28.652-14.9655C26.261-18.3215 24.389-22.0435 23.038-26.1395C21.693-30.2195 21.02-34.4235 21.02-38.7605L21.02-57.9485C21.02-58.5285 21.385-59.0465 21.931-59.2425L46.931-68.1985ZM48.955-71.2575C47.946-71.6195 46.844-71.6195 45.835-71.2575L20.835-62.3025C18.997-61.6435 17.77-59.9015 17.77-57.9485L17.77-38.7605C17.77-34.0805 18.497-29.5325 19.952-25.1215C21.401-20.7285 23.417-16.7125 26.005-13.0805C28.589-9.4525 31.66-6.2905 35.214-3.5995C38.516-1.0985 42.102 0.8195 45.967 2.1495C46.892 2.4675 47.898 2.4675 48.823 2.1495C52.688 0.8195 56.274-1.0985 59.576-3.5995C63.13-6.2905 66.201-9.4525 68.785-13.0805C71.373-16.7125 73.389-20.7285 74.838-25.1215C76.293-29.5325 77.02-34.0805 77.02-38.7605L77.02-57.9485C77.02-59.9015 75.793-61.6435 73.955-62.3025L48.955-71.2575ZM64.174-45.4415C64.809-44.8065 64.809-43.7775 64.174-43.1435L45.472-24.4415C44.838-23.8065 43.809-23.8065 43.174-24.4415C43.15-24.4655 43.128-24.4895 43.106-24.5135C43.081-24.5355 43.057-24.5585 43.033-24.5825L32.674-34.9415C32.04-35.5755 32.04-36.6045 32.674-37.2395C33.309-37.8745 34.338-37.8745 34.972-37.2395L44.323-27.8885L61.876-45.4415C62.511-46.0755 63.54-46.0755 64.174-45.4415Z"/>
  </g>
  <g id="Ultralight-S" transform="matrix(1 0 0 1 512.496 696)">
   <path d="M45.711-69.6677C46.136-69.8257 46.604-69.8257 47.029-69.6677L71.529-60.6057C72.275-60.3307 72.77-59.6197 72.77-58.8238L72.77-39.3138C72.77-34.8537 72.1-30.5287 70.76-26.3338C69.416-22.1268 67.553-18.3017 65.173-14.8518C62.791-11.3998 59.965-8.39575 56.692-5.83675C53.685-3.48475 50.43-1.68575 46.926-0.43675C46.566-0.30875 46.173-0.30875 45.814-0.43675C42.31-1.68575 39.055-3.48475 36.048-5.83675C32.775-8.39575 29.949-11.3998 27.567-14.8518C25.187-18.3017 23.324-22.1268 21.98-26.3338C20.64-30.5287 19.97-34.8537 19.97-39.3138L19.97-58.8238C19.97-59.6197 20.465-60.3307 21.211-60.6057L45.711-69.6677ZM47.792-71.7318C46.874-72.0707 45.865-72.0707 44.948-71.7318L20.448-62.6698C18.838-62.0747 17.77-60.5398 17.77-58.8238L17.77-39.3138C17.77-34.6297 18.475-30.0788 19.885-25.6648C21.291-21.2618 23.247-17.2387 25.756-13.6028C28.263-9.96875 31.243-6.80175 34.692-4.10375C37.881-1.60975 41.343 0.30525 45.075 1.63525C45.912 1.93425 46.828 1.93425 47.665 1.63525C51.397 0.30525 54.858-1.60975 58.048-4.10375C61.497-6.80175 64.477-9.96875 66.984-13.6028C69.493-17.2387 71.449-21.2618 72.855-25.6648C74.265-30.0788 74.97-34.6297 74.97-39.3138L74.97-58.8238C74.97-60.5398 73.901-62.0747 72.292-62.6698L47.792-71.7318ZM62.788-46.8067C63.218-46.3777 63.218-45.6807 62.788-45.2518L43.344-25.8067C42.914-25.3777 42.218-25.3777 41.788-25.8067C41.779-25.8157 41.77-25.8257 41.761-25.8347C41.751-25.8438 41.742-25.8528 41.732-25.8628L31.288-36.3067C30.858-36.7368 30.858-37.4327 31.288-37.8628C31.718-38.2917 32.414-38.2917 32.844-37.8628L42.566-28.1408L61.232-46.8067C61.662-47.2368 62.358-47.2368 62.788-46.8067Z"/>
  </g>
 </g>
</svg>
