<svg xmlns="http://www.w3.org/2000/svg" width="290" height="140" fill="none" viewBox="0 0 290 140"><path fill="#fff" d="M0 0h290v140H0z"/><g id="EXPORT_primary"><path fill="var(--split-header-image-theme-color-fill)" d="M259.63 54.87a4.47 4.47 0 1 1 5.2-7.27l7.27 5.2a4.47 4.47 0 1 1-5.2 7.27l-7.27-5.2Zm-5.72 35.86a1 1 0 0 1 .96-.3l3.26.77a1 1 0 0 1 .73.68l.97 3.2a1 1 0 0 1-.23.98l-2.29 2.44a1 1 0 0 1-.95.29l-3.26-.76a1 1 0 0 1-.73-.68l-.97-3.2a1 1 0 0 1 .22-.98l2.3-2.44ZM134 44a4 4 0 0 1 4-4h88a4 4 0 0 1 4 4v64a4 4 0 0 1-4 4h-88a4 4 0 0 1-4-4V44Z"/><path fill="var(--split-header-image-box-color-fill)" d="M140 46c0-1.1.9-2 2-2h13a2 2 0 0 1 2 2v.87a1 1 0 0 0 1 1h73V113h-97V47.87h5a1 1 0 0 0 1-1V46Z"/><path fill="var(--split-header-image-border-color-fill)" d="M137 41h88v-2h-88v2Zm91 3v64h2V44h-2Zm-3 67h-88v2h88v-2Zm-91-3V44h-2v64h2Zm3 3a3 3 0 0 1-3-3h-2a5 5 0 0 0 5 5v-2Zm91-3a3 3 0 0 1-3 3v2a5 5 0 0 0 5-5h-2Zm-3-67a3 3 0 0 1 3 3h2a5 5 0 0 0-5-5v2Zm-88-2a5 5 0 0 0-5 5h2a3 3 0 0 1 3-3v-2Z"/></g><g id="EXPORT_intercepted"><path fill="var(--split-header-image-theme-color-fill)" d="M38.5 106a4.5 4.5 0 1 0 0-9 4.5 4.5 0 0 0 0 9Zm-7.9-60.82L19.07 49.9a.9.9 0 0 0-.2 1.55l9.84 7.6a.9.9 0 0 0 1.46-.59l1.66-12.33a.9.9 0 0 0-1.25-.96ZM60 32a4 4 0 0 1 4-4h88a4 4 0 0 1 4 4v64a4 4 0 0 1-4 4H64a4 4 0 0 1-4-4V32Z"/><path fill="var(--split-header-image-box-color-fill)" d="M66 34c0-1.1.9-2 2-2h13a2 2 0 0 1 2 2v.87a1 1 0 0 0 1 1h73V101H60V35.87h5a1 1 0 0 0 1-1V34Z"/><path fill="var(--split-header-image-border-color-fill)" d="M64 29h88v-2H64v2Zm91 3v64h2V32h-2Zm-3 67H64v2h88v-2Zm-91-3V32h-2v64h2Zm3 3a3 3 0 0 1-3-3h-2a5 5 0 0 0 5 5v-2Zm91-3a3 3 0 0 1-3 3v2a5 5 0 0 0 5-5h-2Zm-3-67a3 3 0 0 1 3 3h2a5 5 0 0 0-5-5v2Zm-88-2a5 5 0 0 0-5 5h2a3 3 0 0 1 3-3v-2Z"/></g></svg>