<svg xmlns="http://www.w3.org/2000/svg" width="290" height="140" fill="none" viewBox="0 0 290 140"><g id="EXPORT_v2_profile_switch"><path fill="var(--split-header-image-theme-color-fill)" d="M56.5 95a4.5 4.5 0 1 0 0-9 4.5 4.5 0 0 0 0 9ZM243.631 39.865a4.467 4.467 0 1 1 5.206-7.262l7.262 5.206a4.467 4.467 0 1 1-5.206 7.262l-7.262-5.206ZM41.592 37.176l-11.51 4.73a.907.907 0 0 0-.21 1.557l9.85 7.605a.908.908 0 0 0 1.453-.597l1.66-12.334a.908.908 0 0 0-1.243-.96ZM229.911 81.729a1 1 0 0 1 .957-.29l3.258.758a.999.999 0 0 1 .73.684l.972 3.2a1 1 0 0 1-.227.975l-2.286 2.442a1 1 0 0 1-.957.29l-3.258-.759a1 1 0 0 1-.73-.683l-.972-3.201a1 1 0 0 1 .227-.974l2.286-2.442Z"/><rect width="96" height="72" x="97" y="32" fill="var(--split-header-image-theme-color-fill)" rx="4"/><rect width="96" height="72" x="97" y="32" stroke="var(--split-header-image-border-color-fill)" stroke-width="2" fill="none" rx="4"/><path fill="var(--split-header-image-box-color-fill)" d="M103 39a2 2 0 0 1 2-2h13a2 2 0 0 1 2 2v.867a1 1 0 0 0 1 1h72V100a4 4 0 0 1-4 4h-88a4 4 0 0 1-4-4V40.867h5a1 1 0 0 0 1-1V39Z"/></g></svg>
