<svg width="600" height="296" viewBox="0 0 600 296" fill="none" xmlns="http://www.w3.org/2000/svg">
<g clip-path="url(#clip0_2159_5)">
<rect width="600" height="296" fill="white"/>
<path d="M67.41 266.81H532.59" stroke="#D2E3FC" stroke-width="2" stroke-linecap="round" stroke-linejoin="round"/>
<path d="M509.41 149.57C510.264 149.777 511.058 150.18 511.728 150.747C512.399 151.315 512.928 152.031 513.274 152.838C513.619 153.646 513.772 154.523 513.719 155.4C513.666 156.277 513.41 157.13 512.97 157.89C510.184 162.661 505.93 166.402 500.842 168.556C495.755 170.709 490.107 171.159 484.743 169.838C479.378 168.517 474.585 165.497 471.079 161.227C467.573 156.958 465.542 151.669 465.29 146.15C465.256 145.274 465.425 144.403 465.785 143.603C466.145 142.804 466.686 142.1 467.364 141.545C468.043 140.991 468.841 140.601 469.696 140.408C470.551 140.214 471.439 140.222 472.29 140.43L509.41 149.57Z" stroke="#E6E7EA" stroke-width="2" stroke-linecap="round" stroke-linejoin="round"/>
<path d="M238.88 69.9399C238.88 69.9399 232.6 98.3399 246.95 98.3399C259.61 98.3399 252.17 70.1599 252.17 70.1599" stroke="#D2E3FC" stroke-width="2" stroke-linecap="square" stroke-linejoin="round"/>
<path d="M91.07 97.13C91.9823 94.9892 93.7062 93.2975 95.8639 92.4259C98.0215 91.5542 100.437 91.5737 102.58 92.48L121.5 100.48C122.562 100.931 123.525 101.586 124.334 102.409C125.142 103.232 125.781 104.206 126.213 105.276C126.644 106.346 126.861 107.491 126.85 108.644C126.84 109.798 126.602 110.938 126.15 112V112C125.24 114.143 123.516 115.836 121.358 116.708C119.199 117.58 116.783 117.559 114.64 116.65L95.72 108.65C93.5767 107.738 91.8832 106.012 91.0113 103.852C90.1394 101.692 90.1605 99.2744 91.07 97.13Z" stroke="#E6E7EA" stroke-width="2" stroke-linecap="round" stroke-linejoin="round"/>
<path d="M480.11 108.8C484.76 108.8 488.53 105.03 488.53 100.38C488.53 95.7297 484.76 91.96 480.11 91.96C475.46 91.96 471.69 95.7297 471.69 100.38C471.69 105.03 475.46 108.8 480.11 108.8Z" fill="#D2E3FC"/>
<path d="M365.77 107C366.159 107.895 366.653 108.741 367.24 109.52L368.81 112.23C369.501 113.414 369.953 114.724 370.138 116.083C370.323 117.441 370.239 118.824 369.89 120.15C369.434 121.632 369.056 123.138 368.76 124.66C368.541 125.879 368.582 127.131 368.88 128.334C369.179 129.536 369.728 130.662 370.492 131.637C371.257 132.612 372.218 133.415 373.314 133.992C374.41 134.57 375.616 134.909 376.853 134.988C378.089 135.066 379.328 134.883 380.489 134.449C381.649 134.015 382.705 133.341 383.587 132.471C384.468 131.6 385.156 130.554 385.605 129.399C386.053 128.244 386.253 127.007 386.19 125.77C386.02 123.48 385.08 121.36 384.71 119.11C384.285 116.729 384.706 114.274 385.9 112.17L387.46 109.45C388.038 108.663 388.521 107.81 388.9 106.91C389.717 104.992 390.044 102.9 389.853 100.824C389.661 98.7482 388.957 96.7521 387.804 95.0152C386.651 93.2783 385.084 91.855 383.245 90.8731C381.406 89.8912 379.352 89.3814 377.267 89.3895C375.182 89.3976 373.132 89.9234 371.3 90.9196C369.468 91.9158 367.913 93.3512 366.773 95.097C365.634 96.8429 364.945 98.8444 364.77 100.922C364.595 103 364.939 105.088 365.77 107Z" fill="#D2E3FC"/>
<path d="M351.25 254.55C351.249 252.941 351.565 251.347 352.18 249.861C352.795 248.374 353.697 247.023 354.835 245.885C355.973 244.747 357.324 243.845 358.811 243.23C360.297 242.615 361.891 242.299 363.5 242.3L392.17 242.25C393.779 242.249 395.373 242.565 396.859 243.18C398.346 243.795 399.697 244.697 400.835 245.835C401.973 246.973 402.875 248.324 403.49 249.811C404.105 251.297 404.421 252.891 404.42 254.5C404.42 257.75 403.13 260.867 400.833 263.166C398.536 265.465 395.42 266.757 392.17 266.76H363.5C360.257 266.763 357.146 265.478 354.849 263.189C352.552 260.9 351.258 257.793 351.25 254.55Z" fill="#EA4335"/>
<path d="M396.77 202H358.89C358.488 201.993 358.091 202.094 357.741 202.291C357.39 202.488 357.098 202.774 356.895 203.121C356.691 203.468 356.584 203.863 356.583 204.265C356.582 204.667 356.688 205.062 356.89 205.41L375.83 238.21C376.027 238.557 376.313 238.846 376.658 239.047C377.003 239.248 377.396 239.354 377.795 239.354C378.194 239.354 378.587 239.248 378.932 239.047C379.277 238.846 379.563 238.557 379.76 238.21L398.7 205.41C398.899 205.067 399.005 204.679 399.007 204.283C399.009 203.886 398.908 203.497 398.713 203.152C398.518 202.807 398.236 202.519 397.895 202.317C397.554 202.115 397.166 202.006 396.77 202V202Z" stroke="#FBBC05" stroke-width="2" stroke-linecap="round" stroke-linejoin="round"/>
<path d="M374.913 138.725L348.072 165.567C346.455 167.184 346.455 169.805 348.072 171.422L374.913 198.263C376.53 199.88 379.151 199.88 380.768 198.263L407.61 171.422C409.227 169.805 409.227 167.183 407.61 165.567L380.768 138.725C379.151 137.108 376.53 137.108 374.913 138.725Z" fill="#34A853"/>
<path d="M392.71 42.5001V28.0001C392.709 27.5942 392.602 27.1957 392.398 26.8446C392.195 26.4934 391.902 26.2022 391.55 26.0001L379 18.7401C378.65 18.5334 378.251 18.4243 377.845 18.4243C377.439 18.4243 377.04 18.5334 376.69 18.7401L364.11 26.0001C363.768 26.2092 363.486 26.5033 363.291 26.8538C363.097 27.2043 362.996 27.5993 363 28.0001V42.5001C363 42.905 363.106 43.3029 363.307 43.654C363.509 44.005 363.8 44.2968 364.15 44.5001L376.72 51.7601C377.071 51.9619 377.47 52.0681 377.875 52.0681C378.28 52.0681 378.679 51.9619 379.03 51.7601L391.59 44.5001C391.936 44.2946 392.222 44.0015 392.418 43.6503C392.615 43.2992 392.715 42.9025 392.71 42.5001Z" fill="#FBBC05"/>
<path d="M392.71 42.5001V28.0001C392.709 27.5942 392.602 27.1957 392.398 26.8446C392.195 26.4934 391.902 26.2022 391.55 26.0001L379 18.7401C378.65 18.5334 378.251 18.4243 377.845 18.4243C377.439 18.4243 377.04 18.5334 376.69 18.7401L364.11 26.0001C363.768 26.2092 363.486 26.5033 363.291 26.8538C363.097 27.2043 362.996 27.5993 363 28.0001V42.5001C363 42.905 363.106 43.3029 363.307 43.654C363.509 44.005 363.8 44.2968 364.15 44.5001L376.72 51.7601C377.071 51.9619 377.47 52.0681 377.875 52.0681C378.28 52.0681 378.679 51.9619 379.03 51.7601L391.59 44.5001C391.936 44.2946 392.222 44.0015 392.418 43.6503C392.615 43.2992 392.715 42.9025 392.71 42.5001Z" fill="#4285F4"/>
<path d="M235.83 243.17L245.85 132.62" stroke="#4285F4" stroke-width="2" stroke-linecap="round" stroke-linejoin="round"/>
<path d="M205.63 242.65C205.08 248.74 204.42 252.99 204.05 254.84C203.851 255.845 203.368 256.773 202.66 257.513C201.951 258.254 201.046 258.777 200.05 259.02C198.86 259.328 197.78 259.962 196.93 260.85C196.046 261.99 195.602 263.41 195.68 264.85H209.95C213.362 264.85 216.699 263.852 219.551 261.979C222.402 260.107 224.644 257.441 226 254.31V264.83H233.87L235.87 243.17" fill="#4285F4"/>
<path d="M205.63 242.65C205.08 248.74 204.42 252.99 204.05 254.84C203.851 255.845 203.368 256.773 202.66 257.513C201.951 258.254 201.046 258.777 200.05 259.02C198.86 259.328 197.78 259.962 196.93 260.85C196.046 261.99 195.602 263.41 195.68 264.85H209.95C213.362 264.85 216.699 263.852 219.551 261.979C222.402 260.107 224.644 257.441 226 254.31V264.83H233.87L235.87 243.17" stroke="#4285F4" stroke-width="2" stroke-linecap="round" stroke-linejoin="round"/>
<path d="M255.92 243.18L246.14 132.62" stroke="#4285F4" stroke-width="2" stroke-linecap="round" stroke-linejoin="round"/>
<path d="M286.08 242.65C286.62 248.74 287.29 252.99 287.66 254.84C287.857 255.846 288.339 256.775 289.048 257.516C289.757 258.257 290.663 258.779 291.66 259.02C292.846 259.331 293.922 259.964 294.77 260.85C295.661 261.986 296.106 263.409 296.02 264.85H281.76C278.346 264.855 275.005 263.86 272.15 261.989C269.294 260.118 267.049 257.452 265.69 254.32V264.84H257.83L255.91 243.19" fill="#4285F4"/>
<path d="M286.08 242.65C286.62 248.74 287.29 252.99 287.66 254.84C287.857 255.846 288.339 256.775 289.048 257.516C289.757 258.257 290.663 258.779 291.66 259.02C292.846 259.331 293.922 259.964 294.77 260.85C295.661 261.986 296.106 263.409 296.02 264.85H281.76C278.346 264.855 275.005 263.86 272.15 261.989C269.294 260.118 267.049 257.452 265.69 254.32V264.84H257.83L255.91 243.19" stroke="#4285F4" stroke-width="2" stroke-linecap="round" stroke-linejoin="round"/>
<path d="M301.5 242.65H256.13" stroke="#4285F4" stroke-width="2" stroke-linecap="round" stroke-linejoin="round"/>
<path d="M190.31 242.65H235.68" stroke="#4285F4" stroke-width="2" stroke-linecap="round" stroke-linejoin="round"/>
<path d="M232.17 107.83C224.05 113.47 220.92 123.94 219.63 133.74C218.34 143.54 218.26 153.74 214 162.74C209.88 171.4 202.1 178.18 199.27 187.34C197.27 193.92 198 200.97 197.93 207.85C197.793 219.858 195.2 231.712 190.31 242.68" stroke="#4285F4" stroke-width="2" stroke-linecap="round" stroke-linejoin="round"/>
<path d="M259.64 107.83C267.77 113.47 270.89 123.94 272.18 133.74C273.47 143.54 273.56 153.74 277.81 162.74C281.93 171.4 289.71 178.18 292.54 187.34C294.54 193.92 293.81 200.97 293.88 207.85C294.017 219.858 296.61 231.712 301.5 242.68" stroke="#4285F4" stroke-width="2" stroke-linecap="round" stroke-linejoin="round"/>
<path d="M192.92 74.4699C198.454 74.4699 202.94 69.9838 202.94 64.4499C202.94 58.916 198.454 54.4299 192.92 54.4299C187.386 54.4299 182.9 58.916 182.9 64.4499C182.9 69.9838 187.386 74.4699 192.92 74.4699Z" fill="#4285F4"/>
<path d="M241.06 62.7799L238.67 69.6799C227.23 69.3899 206.34 77.6799 206.34 77.6799C204.854 76.2317 203.732 74.4512 203.068 72.4849C202.404 70.5187 202.216 68.4229 202.52 66.3699C202.52 66.2099 202.58 66.0499 202.61 65.8999C203.108 63.5931 204.261 61.4787 205.93 59.8099C209.41 56.3299 214.21 54.8099 218.93 53.8699C221.13 53.4099 223.34 53.0599 225.54 52.6499C227.69 52.2806 229.81 51.7491 231.88 51.0599C233.98 50.3199 235.96 49.2399 238.1 48.5999C238.1 48.5999 243.21 47.0499 246.17 47.2699L238.7 69.6699" fill="#4285F4"/>
<path d="M245.66 64.24C250.073 64.24 253.65 60.6628 253.65 56.25C253.65 51.8373 250.073 48.26 245.66 48.26C241.247 48.26 237.67 51.8373 237.67 56.25C237.67 60.6628 241.247 64.24 245.66 64.24Z" fill="white" stroke="#4285F4" stroke-width="2" stroke-linecap="round" stroke-linejoin="round"/>
<path d="M239 51.9099C239.192 51.617 239.403 51.3365 239.63 51.0699C240.458 50.0963 241.506 49.3351 242.688 48.85C243.87 48.3648 245.152 48.1699 246.424 48.2816C247.697 48.3932 248.925 48.8081 250.005 49.4916C251.084 50.175 251.985 51.1072 252.63 52.2099" fill="#4285F4"/>
<path d="M239 51.9099C239.192 51.617 239.403 51.3365 239.63 51.0699C240.458 50.0963 241.506 49.3351 242.688 48.85C243.87 48.3648 245.152 48.1699 246.424 48.2816C247.697 48.3932 248.925 48.8081 250.005 49.4916C251.084 50.175 251.985 51.1072 252.63 52.2099" stroke="#4285F4" stroke-width="2" stroke-linecap="round" stroke-linejoin="round"/>
<path d="M243.48 58.25C243.711 58.5784 244.019 58.8462 244.375 59.0307C244.732 59.2152 245.128 59.311 245.53 59.31C245.934 59.3051 246.331 59.2036 246.687 59.014C247.044 58.8244 247.35 58.5521 247.58 58.22" stroke="#4285F4" stroke-width="2" stroke-linecap="round" stroke-linejoin="round"/>
<path d="M215.94 116C218.355 118.207 220.052 121.088 220.81 124.27C221.331 126.469 221.517 128.735 221.36 130.99C220.47 137.26 218.23 141.67 212.95 145.17C211.336 146.116 209.552 146.737 207.7 147C206.35 147.09 203.91 146.67 203.36 145.21" fill="white"/>
<path d="M215.94 116C218.355 118.207 220.052 121.088 220.81 124.27C221.331 126.469 221.517 128.735 221.36 130.99C220.47 137.26 218.23 141.67 212.95 145.17C211.336 146.116 209.552 146.737 207.7 147C206.35 147.09 203.91 146.67 203.36 145.21" stroke="#4285F4" stroke-width="2" stroke-linecap="round" stroke-linejoin="round"/>
<path d="M200.47 142.73C200.343 142.867 200.245 143.028 200.181 143.203C200.118 143.378 200.09 143.565 200.099 143.751C200.108 143.937 200.155 144.12 200.236 144.288C200.317 144.456 200.43 144.606 200.57 144.73C200.95 144.983 201.394 145.122 201.85 145.13C203.973 145.272 206.095 144.848 208 143.9C209.903 142.929 211.616 141.625 213.06 140.05C213.514 139.578 213.929 139.07 214.3 138.53C214.93 137.507 215.443 136.417 215.83 135.28" fill="white"/>
<path d="M200.47 142.73C200.343 142.867 200.245 143.028 200.181 143.203C200.118 143.378 200.09 143.565 200.099 143.751C200.108 143.937 200.155 144.12 200.236 144.288C200.317 144.456 200.43 144.606 200.57 144.73C200.95 144.983 201.394 145.122 201.85 145.13C203.973 145.272 206.095 144.848 208 143.9C209.903 142.929 211.616 141.625 213.06 140.05C213.514 139.578 213.929 139.07 214.3 138.53C214.93 137.507 215.443 136.417 215.83 135.28" stroke="#4285F4" stroke-width="2" stroke-linecap="round" stroke-linejoin="round"/>
<path d="M276.17 116C273.752 118.204 272.054 121.086 271.3 124.27C270.774 126.469 270.588 128.735 270.75 130.99C271.64 137.26 273.88 141.67 279.15 145.17C280.768 146.116 282.554 146.737 284.41 147C285.76 147.09 288.2 146.67 288.75 145.21" fill="white"/>
<path d="M276.17 116C273.752 118.204 272.054 121.086 271.3 124.27C270.774 126.469 270.588 128.735 270.75 130.99C271.64 137.26 273.88 141.67 279.15 145.17C280.768 146.116 282.554 146.737 284.41 147C285.76 147.09 288.2 146.67 288.75 145.21" stroke="#4285F4" stroke-width="2" stroke-linecap="round" stroke-linejoin="round"/>
<path d="M291.64 142.73C291.767 142.867 291.866 143.028 291.93 143.204C291.993 143.38 292.021 143.567 292.01 143.753C292 143.94 291.952 144.123 291.87 144.291C291.787 144.459 291.672 144.608 291.53 144.73C291.151 144.985 290.707 145.124 290.25 145.13C288.115 145.275 285.981 144.843 284.07 143.88C282.167 142.909 280.454 141.605 279.01 140.03C278.556 139.558 278.141 139.05 277.77 138.51C277.14 137.487 276.627 136.397 276.24 135.26" fill="white"/>
<path d="M291.64 142.73C291.767 142.867 291.866 143.028 291.93 143.204C291.993 143.38 292.021 143.567 292.01 143.753C292 143.94 291.952 144.123 291.87 144.291C291.787 144.459 291.672 144.608 291.53 144.73C291.151 144.985 290.707 145.124 290.25 145.13C288.115 145.275 285.981 144.843 284.07 143.88C282.167 142.909 280.454 141.605 279.01 140.03C278.556 139.558 278.141 139.05 277.77 138.51C277.14 137.487 276.627 136.397 276.24 135.26" stroke="#4285F4" stroke-width="2" stroke-linecap="round" stroke-linejoin="round"/>
<path d="M205.79 127.93C206.06 129.84 206.79 131.83 208.1 132.81C208.31 132.97 206.37 135.47 206.1 135.73C204.614 137.114 203.008 138.362 201.3 139.46C200.73 139.89 199.86 140.46 199.78 141.27C199.64 142.57 201.17 142.71 202.12 142.6C206.87 142.04 210.49 137.97 212.33 134.36" fill="white"/>
<path d="M205.79 127.93C206.06 129.84 206.79 131.83 208.1 132.81C208.31 132.97 206.37 135.47 206.1 135.73C204.614 137.114 203.008 138.362 201.3 139.46C200.73 139.89 199.86 140.46 199.78 141.27C199.64 142.57 201.17 142.71 202.12 142.6C206.87 142.04 210.49 137.97 212.33 134.36" stroke="#4285F4" stroke-width="2" stroke-linecap="round" stroke-linejoin="round"/>
<path d="M286.32 127.93C286.04 129.84 285.32 131.83 284.01 132.81C283.8 132.97 285.74 135.47 286.01 135.73C287.494 137.116 289.1 138.365 290.81 139.46C291.38 139.89 292.25 140.46 292.33 141.27C292.47 142.57 290.93 142.71 289.99 142.6C285.24 142.04 281.62 137.97 279.78 134.36" fill="white"/>
<path d="M286.32 127.93C286.04 129.84 285.32 131.83 284.01 132.81C283.8 132.97 285.74 135.47 286.01 135.73C287.494 137.116 289.1 138.365 290.81 139.46C291.38 139.89 292.25 140.46 292.33 141.27C292.47 142.57 290.93 142.71 289.99 142.6C285.24 142.04 281.62 137.97 279.78 134.36" stroke="#4285F4" stroke-width="2" stroke-linecap="round" stroke-linejoin="round"/>
<path d="M228.52 90.83C220.89 93.38 213.62 95.62 204.05 99.32C207.69 104.01 216.36 115.32 216.36 115.32C216.36 115.32 209.61 123.41 205.3 128.49C198.15 128.49 189.4 123.17 185.37 117.33C181.91 112.33 180.92 106.33 181.51 100.33C182.06 94.64 185.57 89.55 190.03 85.97C194.49 82.39 199.84 80.12 205.2 78.13C215.1 74.45 226.28 69.29 238.67 69.7H252.08" stroke="#4285F4" stroke-width="2" stroke-linecap="round" stroke-linejoin="round"/>
<path d="M263.48 90.7899C271.11 93.3499 278.48 95.6199 288.06 99.3199C284.42 104.01 275.75 115.32 275.75 115.32C275.75 115.32 282.5 123.41 286.81 128.49C295.93 127.76 303.81 121.49 307.67 113.37C312.11 104.14 311.14 94.0599 303.38 87.0299C302.95 86.6499 302.52 86.2899 302.08 85.9299C297.62 82.3499 292.27 80.0799 286.91 78.0899C277.01 74.4099 266.22 69.6399 253.48 69.6399H252.08L249.58 63.1899" stroke="#4285F4" stroke-width="2" stroke-linecap="round" stroke-linejoin="round"/>
<path d="M228.51 82C227.45 84.28 227.66 86.95 228.18 89.41C228.7 91.87 230.8 98 230.89 100.51C230.802 102.007 230.839 103.509 231 105C231.211 105.915 231.728 106.73 232.467 107.308C233.206 107.887 234.122 108.195 235.06 108.18H256.86C257.812 108.213 258.746 107.914 259.502 107.334C260.257 106.754 260.787 105.928 261 105C261.167 103.533 261.214 102.055 261.14 100.58C261.24 98.07 263.34 91.94 263.86 89.48C264.38 87.02 264.58 84.35 263.52 82.07" stroke="#4285F4" stroke-width="2" stroke-linecap="round" stroke-linejoin="round"/>
<path d="M371.211 57.4428L370.997 57.5515C363.67 61.2721 360.746 70.2284 364.466 77.5559C368.187 84.8834 377.143 87.8073 384.471 84.0867L384.685 83.978C392.012 80.2573 394.936 71.301 391.215 63.9736C387.495 56.6461 378.539 53.7221 371.211 57.4428Z" stroke="#F882FF" stroke-width="2" stroke-linecap="round" stroke-linejoin="round"/>
<path d="M246.9 101.78C248.104 101.78 249.08 100.804 249.08 99.5999C249.08 98.3959 248.104 97.4199 246.9 97.4199C245.696 97.4199 244.72 98.3959 244.72 99.5999C244.72 100.804 245.696 101.78 246.9 101.78Z" fill="#4285F4"/>
<path d="M370.78 33.5501L377.2 40.0001C377.404 40.201 377.679 40.3136 377.965 40.3136C378.251 40.3136 378.526 40.201 378.73 40.0001L395 23.8201" stroke="#34A853" stroke-width="2" stroke-linecap="round" stroke-linejoin="round"/>
<mask id="mask0_2159_5" style="mask-type:alpha" maskUnits="userSpaceOnUse" x="363" y="18" width="30" height="35">
<path d="M392.71 42.5001V28.0001C392.709 27.5942 392.602 27.1957 392.398 26.8446C392.195 26.4934 391.902 26.2022 391.55 26.0001L379 18.7401C378.65 18.5334 378.251 18.4243 377.845 18.4243C377.439 18.4243 377.04 18.5334 376.69 18.7401L364.11 26.0001C363.768 26.2092 363.486 26.5033 363.291 26.8538C363.097 27.2043 362.996 27.5993 363 28.0001V42.5001C363 42.905 363.106 43.3029 363.307 43.654C363.509 44.005 363.8 44.2968 364.15 44.5001L376.72 51.7601C377.071 51.9619 377.47 52.0681 377.875 52.0681C378.28 52.0681 378.679 51.9619 379.03 51.7601L391.59 44.5001C391.936 44.2946 392.222 44.0015 392.418 43.6503C392.615 43.2992 392.715 42.9025 392.71 42.5001Z" fill="#4285F4"/>
</mask>
<g mask="url(#mask0_2159_5)">
<path d="M370.78 33.5501L377.2 40.0001C377.404 40.201 377.679 40.3136 377.965 40.3136C378.251 40.3136 378.526 40.201 378.73 40.0001L395 23.8201" stroke="white" stroke-width="2" stroke-linecap="round" stroke-linejoin="round"/>
</g>
</g>
<defs>
<clipPath id="clip0_2159_5">
<rect width="600" height="296" fill="white"/>
</clipPath>
</defs>
</svg>
