<svg version="1.1" id="Layer_1" xmlns="http://www.w3.org/2000/svg" xmlns:xlink="http://www.w3.org/1999/xlink" x="0" y="0" viewBox="0 0 412 412" style="enable-background:new 0 0 412 412" xml:space="preserve"><style>.st1{fill:none;stroke:#669DF6;stroke-width:4;stroke-linecap:round;stroke-linejoin:round}.st6{fill:none}.st7{fill:#FCC934}.st8{fill:none;stroke:#669DF6;stroke-width:2;stroke-miterlimit:10}.st9{fill:#D2E3FC;stroke:#4285F4;stroke-width:2;stroke-linecap:round;stroke-linejoin:round;stroke-miterlimit:10}.st10{fill:none;stroke:#4285F4;stroke-width:2;stroke-linecap:round;stroke-linejoin:round;stroke-miterlimit:10}.st11{fill:#FFFFFF;stroke:#4285F4;stroke-width:2;stroke-linecap:round;stroke-linejoin:round;stroke-miterlimit:10}.st12{fill:#4285F4}.st13{fill:none;stroke:#2785FC;stroke-width:2;stroke-linecap:round;stroke-linejoin:round;stroke-miterlimit:10}.st14{fill:none;stroke:#FFFFFF;stroke-width:2;stroke-linecap:round;stroke-linejoin:round;stroke-miterlimit:10}.st15{fill:#4285F4;stroke:#2785FC;stroke-width:2;stroke-linecap:round;stroke-linejoin:round;stroke-miterlimit:10}.st16{fill:#4285F4;stroke:#4285F4;stroke-miterlimit:10}.st17{fill:#4285F4;stroke:#4285F4;stroke-width:2;stroke-linecap:round;stroke-linejoin:round;stroke-miterlimit:10}.st18{fill-rule:evenodd;clip-rule:evenodd;fill:#E8EAED}.st19{fill-rule:evenodd;clip-rule:evenodd;fill:#EA4335}.st20{fill:none;stroke:#4285F4;stroke-width:1.2273;stroke-linecap:round;stroke-linejoin:round;stroke-miterlimit:10}.st21{fill:#FBBC04}.st22{fill:#34A853}.st23{fill:#EE5FFA}.st24{fill:#FFFFFF}.st25{fill:#30E2EA}.st26{fill:none;stroke:#FFFFFF;stroke-width:1.2273;stroke-linecap:round;stroke-linejoin:round;stroke-miterlimit:10}.st27{fill:#E5E5E5}.st28{clip-path:url(#SVGID_00000133491564554723634370000002966755918148432521_);fill:none}.st29{clip-path:url(#SVGID_00000133491564554723634370000002966755918148432521_);fill:#FFFFFF}.st30{fill:#CEE3FF}.st31{fill:#2785FC}.st32{clip-path:url(#SVGID_00000176727422327993439800000017387843910383703180_);fill:#FFBA00}.st33{fill:#EA4335}.st34{fill:#E8EAED}.st35{fill:none;stroke:#30E2EA;stroke-width:2;stroke-miterlimit:10}.st36{fill:none;stroke:#CEE3FF;stroke-width:2;stroke-linecap:round;stroke-linejoin:round;stroke-miterlimit:10}.st37{fill:none;stroke:#2785FC;stroke-width:3;stroke-linecap:round;stroke-linejoin:round;stroke-miterlimit:10}.st38{fill:#FFFFFF;stroke:#2785FC;stroke-width:3;stroke-linecap:round;stroke-linejoin:round;stroke-miterlimit:10}.st39{fill:#D2E3FC}.st40{fill:none;stroke:#2785FC;stroke-width:1.2273;stroke-linecap:round;stroke-linejoin:round;stroke-miterlimit:10}.st41{fill:none;stroke:#4285F4;stroke-width:0;stroke-miterlimit:10}.st42{fill:#608EF0}.st43{fill:#78B56F}.st44{fill:#EEBE59}.st45{fill:#DC6756}.st46{fill:none;stroke:#000000;stroke-miterlimit:10}.st47{fill:#FFFFFF;stroke:#000000;stroke-miterlimit:10}.st48{fill:none;stroke:#669DF6;stroke-width:3;stroke-linecap:round;stroke-miterlimit:10}.st51{fill:#669DF6}.st52{fill:#1E3A5F}.st53{fill:#5185EC}.st54{fill:none;stroke:#F6BC41;stroke-width:3;stroke-miterlimit:10}.st55{fill:#F2BE42}.st56{fill:none;stroke:#4384F4;stroke-width:3;stroke-linecap:round;stroke-linejoin:round;stroke-miterlimit:10}.st57{fill:#D95140}.st58{clip-path:url(#SVGID_00000124877569633915262600000016228616283393373071_);fill:none;stroke:#FFFFFF;stroke-width:3;stroke-linecap:round;stroke-linejoin:round;stroke-miterlimit:10}.st59{fill:#E989F7}.st60{fill:#D5E3FA}.st61{clip-path:url(#SVGID_00000052821559849791556170000017869095245677761723_);fill:none;stroke:#FFFFFF;stroke-width:3;stroke-linecap:round;stroke-linejoin:round;stroke-miterlimit:10}.st62{clip-path:url(#SVGID_00000105423936643558746240000005216895768297366453_);fill:none;stroke:#FFFFFF;stroke-width:3;stroke-linecap:round;stroke-linejoin:round;stroke-miterlimit:10}.st63{clip-path:url(#SVGID_00000148656175453761626640000013528327667357431969_);fill:none;stroke:#FFFFFF;stroke-width:3;stroke-linecap:round;stroke-linejoin:round;stroke-miterlimit:10}.st64{fill:none;stroke:#FFFFFF;stroke-width:3;stroke-linecap:round;stroke-linejoin:round;stroke-miterlimit:10}.st65{clip-path:url(#SVGID_00000145016022731792463730000006664994872335485627_);fill:none;stroke:#FFFFFF;stroke-width:3;stroke-linecap:round;stroke-linejoin:round;stroke-miterlimit:10}.st66{clip-path:url(#SVGID_00000006674337015467843390000004453954338690879117_);fill:none;stroke:#FFFFFF;stroke-width:3;stroke-linecap:round;stroke-linejoin:round;stroke-miterlimit:10}.st67{clip-path:url(#SVGID_00000151534868852971685400000015040158393129603509_);fill:none;stroke:#FFFFFF;stroke-width:3;stroke-linecap:round;stroke-linejoin:round;stroke-miterlimit:10}.st68{clip-path:url(#SVGID_00000008865110143065187940000013261872280496950420_);fill:none;stroke:#FFFFFF;stroke-width:3;stroke-linecap:round;stroke-linejoin:round;stroke-miterlimit:10}.st69{clip-path:url(#SVGID_00000173853507459523101430000004280240850251809178_);fill:none;stroke:#FFFFFF;stroke-width:3;stroke-linecap:round;stroke-linejoin:round;stroke-miterlimit:10}.st70{clip-path:url(#SVGID_00000034805010896437253440000017213674346698446511_);fill:none;stroke:#FFFFFF;stroke-width:3;stroke-linecap:round;stroke-linejoin:round;stroke-miterlimit:10}.st71{fill:#56A55C}.st72{fill:none;stroke:#5185EC;stroke-width:3;stroke-linecap:round;stroke-linejoin:round;stroke-miterlimit:10}.st73{fill:none;stroke:#4384F4;stroke-width:3;stroke-miterlimit:10}.st74{clip-path:url(#SVGID_00000091000292501069936300000005885881750710103726_);fill:none;stroke:#FFFFFF;stroke-width:3;stroke-miterlimit:10}.st75{fill:none;stroke:#FFFFFF;stroke-width:3;stroke-miterlimit:10}.st76{clip-path:url(#SVGID_00000091698112136855419940000001711627631699324341_);fill:none;stroke:#FFFFFF;stroke-width:3;stroke-miterlimit:10}.st77{clip-path:url(#SVGID_00000111193025013305403660000011416064327313886873_);fill:none;stroke:#202124;stroke-width:2;stroke-miterlimit:10}.st79{clip-path:url(#SVGID_00000105405010441935847970000007889667106268327070_);fill:none;stroke:#202124;stroke-width:3;stroke-miterlimit:10}.st80{clip-path:url(#SVGID_00000008107448857502265730000017618395033669931911_);fill:none;stroke:#202124;stroke-width:2;stroke-miterlimit:10}.st81{fill:none;stroke:#5185EC;stroke-width:2;stroke-miterlimit:10}.st82{fill:none;stroke:#4285F4;stroke-width:3;stroke-linecap:round;stroke-miterlimit:10}.st83{fill:#8AB4F8}.st84{clip-path:url(#SVGID_00000171681084800801728420000001623578431063777432_);fill:none;stroke:#FFFFFF;stroke-width:2;stroke-miterlimit:10}.st85{fill:none;stroke:#4285F4;stroke-width:3;stroke-linecap:round;stroke-linejoin:round;stroke-miterlimit:10}.st86{fill:none;stroke:#D5E3FA;stroke-width:3;stroke-linecap:round;stroke-linejoin:round;stroke-miterlimit:10}.st87{fill:#4384F4}.st88{fill:none;stroke:#7F9ACA;stroke-width:3.0418;stroke-miterlimit:10}.st89{clip-path:url(#SVGID_00000003081404327411965320000013938784376996913584_);fill:none;stroke:#202124;stroke-width:2;stroke-miterlimit:10}.st90{fill:none;stroke:#5BB974;stroke-width:3.6426;stroke-linecap:round;stroke-linejoin:round;stroke-miterlimit:10}.st91{clip-path:url(#SVGID_00000147178951581951980180000004147771352251671435_);fill:none;stroke:#202124;stroke-width:3.6426;stroke-linecap:round;stroke-linejoin:round;stroke-miterlimit:10}.st92{fill:none;stroke:#5184EB;stroke-width:4;stroke-linecap:round;stroke-linejoin:round}.st93{fill:#FFFFFF;stroke:#5184EB;stroke-width:4;stroke-linecap:round;stroke-linejoin:round}.st94{fill:#5184EB}.st95{fill:#D4E2F9}.st96{fill:#F1BD42}.st97{fill:#D4E2F9;stroke:#5184EB;stroke-width:4;stroke-linecap:round;stroke-linejoin:round}.st98{fill:none;stroke:#E5E6E9;stroke-width:4;stroke-linecap:round;stroke-linejoin:round}.st99{fill:none;stroke:#FFFFFF;stroke-width:4;stroke-linecap:round;stroke-linejoin:round}.st100{fill:none;stroke:#D85140;stroke-width:4;stroke-linecap:round;stroke-linejoin:round}.st101{fill:none;stroke:#5184EB;stroke-width:4;stroke-linecap:round;stroke-linejoin:round;stroke-dasharray:6}.st102{fill:#202124;stroke:#669DF6;stroke-width:4;stroke-linecap:round;stroke-linejoin:round}.st103{clip-path:url(#SVGID_00000064327142495036121620000008870064415436873391_);fill:none;stroke:#202124;stroke-width:2;stroke-miterlimit:10}</style><path d="M326 302.8c-.5 1.2-2 1.8-3.2 1.1-10-5.5-14.4-17.8-9.9-28.6s16.4-16.3 27.3-13.1c1.3.4 2 1.8 1.5 3L326 302.8z" style="fill:none;stroke:#EA4335;stroke-width:3;stroke-linecap:round;stroke-linejoin:round;stroke-miterlimit:10"/><path d="M122.7 143.1 117 136c-.3-.4-.8-.5-1.2-.5l-9 1.4c-.5.1-.9.4-1 .8l-3.3 8.5c-.2.4-.1.9.2 1.3l5.7 7.1c.3.4.8.5 1.2.5l9-1.4c.5-.1.9-.4 1-.8l3.3-8.5c.2-.4.1-.9-.2-1.3z" style="fill:#5C5D60"/><path d="m46.6 148.6 26 11c1.1.5 2.2-.4 2.1-1.6l-3.4-28c-.1-1.2-1.5-1.7-2.4-1l-22.6 17c-.9.7-.8 2.2.3 2.6z" style="fill:none;stroke:#669DF6;stroke-width:3;stroke-linecap:round;stroke-linejoin:round;stroke-miterlimit:10"/><path d="m61.7 173.8 5.1-23.4c.3-1.3 1.5-2.1 2.8-1.8l23.4 5.1c1.3.3 2.1 1.5 1.8 2.8l-5.1 23.4c-.3 1.3-1.5 2.1-2.8 1.8l-23.4-5.1c-1.3-.3-2.1-1.5-1.8-2.8z" style="fill:#F882FF"/><path class="st6" d="m47.2 147.2-.6 1.4.6-1.4 18.6 7.9 1.1-5.1c.2-1 1.2-1.7 2.3-1.5l3 .6-2.3-19-22.7 17.1z"/><path class="st6" d="m66.9 150-1.1 5.1 7.5 3.2-1.1-9.1-3-.6c-1.1-.3-2.1.4-2.3 1.4z"/><path d="M73.2 161.3c.6 0 1.3-.2 1.8-.6.9-.7 1.3-1.7 1.2-2.8l-1-8-3.1-.7 1.1 9.1-7.5-3.2-.7 3 6.9 2.9c.5.2.9.3 1.3.3z" style="fill:#202124"/><path class="st7" d="M268.6 291.1c-1-3.9 1.3-8 5.2-9l16.7-4.5c3.9-1 8 1.3 9 5.2 1 3.9-1.3 8-5.2 9l-16.7 4.5c-3.9 1-7.9-1.3-9-5.2z"/><path d="M197.9 189c-6.2 1.5-12.5-2.4-14-8.6l-6-25.2c-1.5-6.2 2.4-12.5 8.6-14 6.2-1.5 12.5 2.4 14 8.6l6 25.2c1.5 6.3-2.3 12.5-8.6 14z" style="fill:none;stroke:#669DF6;stroke-width:3;stroke-miterlimit:10"/><path d="m251.6 147.3-37.2 8.8-1.1-4.5c-.8-3.3 1.3-6.6 4.6-7.4l25.2-6c3.3-.8 6.6 1.3 7.4 4.6l1.1 4.5z" style="fill:#5BB974"/><path class="st7" d="m166.8 167.3-37.2 8.8-1.1-4.5c-.8-3.3 1.3-6.6 4.6-7.4l25.2-6c3.3-.8 6.6 1.3 7.4 4.6l1.1 4.5z"/><path d="m253.8 149-122.1 28.8v.1c-.7.1-1.4.3-2.1.4-30.7 7.3-49.7 38.3-41.9 69 7.5 29.7 37.6 48.2 67.5 41.5 15.9-3.6 28.7-13.5 36.4-26.5 3.7-6.3 9.8-10.8 16.9-12.4l5-1.2c7.1-1.7 14.5-.4 20.6 3.6 12.7 8.2 28.5 11.3 44.4 7.4 30.1-7.5 48.8-38.3 41.5-68.5-7.4-29.5-36.6-48-66.2-42.2z" style="fill:#404D64"/><path class="st51" d="m157.6 221.4-11.4 2.7c-1.2.3-2.3-.4-2.6-1.6l-2.7-11.5c-.3-1.2-1.5-1.9-2.6-1.6l-12.3 2.9c-1.2.3-1.9 1.5-1.6 2.6l2.7 11.5c.3 1.2-.4 2.3-1.6 2.6l-11.6 2.7c-1.2.3-1.9 1.5-1.6 2.6l2.9 12.3c.3 1.2 1.5 1.9 2.6 1.6l11.6-2.7c1.2-.3 2.3.4 2.6 1.6l2.7 11.5c.3 1.2 1.5 1.9 2.6 1.6l12.3-2.9c1.2-.3 1.9-1.5 1.6-2.6l-2.7-11.5c-.3-1.2.4-2.3 1.6-2.6l11.4-2.7c1.2-.3 1.9-1.5 1.6-2.6l-2.9-12.3c-.3-1.2-1.4-1.9-2.6-1.6z"/><circle class="st51" cx="254" cy="207.7" r="7.6"/><circle class="st51" cx="288" cy="199.7" r="7.6"/><circle class="st52" cx="275" cy="220.8" r="7.6"/><circle class="st52" cx="266.9" cy="186.7" r="7.6"/><defs><path id="SVGID_00000083809897178425021470000015519274425298373766_" d="m254 149.1-122 28.8v.1c-.7.1-1.4.3-2.1.4-30.7 7.3-49.7 38.3-41.9 69 7.5 29.7 37.6 48.2 67.5 41.5 15.9-3.6 28.7-13.5 36.4-26.5 3.7-6.3 9.8-10.8 16.9-12.4l5-1.2c7.1-1.7 14.5-.4 20.6 3.6 12.7 8.2 28.5 11.3 44.4 7.4 30.1-7.5 48.8-38.3 41.5-68.5-7.5-29.6-36.6-48.1-66.3-42.2z"/></defs><clipPath id="SVGID_00000108994955163549320600000014027561289717555373_"><use xlink:href="#SVGID_00000083809897178425021470000015519274425298373766_" style="overflow:visible"/></clipPath><path style="clip-path:url(#SVGID_00000108994955163549320600000014027561289717555373_);fill:none;stroke:#202124;stroke-width:3;stroke-miterlimit:10" d="M197.9 189c-6.2 1.5-12.5-2.4-14-8.6l-5.7-24c-1.5-6.2 2.4-12.5 8.6-14 6.2-1.5 12.5 2.4 14 8.6l5.7 24c1.5 6.3-2.4 12.5-8.6 14z"/></svg>