<svg xmlns="http://www.w3.org/2000/svg" fill="none" viewBox="0 0 1040 640"><path fill="#fff" d="M0 0h1040v640H0z"/><g clip-path="url(#a)"><path fill="#4285F4" d="m651.18 51.48 8.64 21.88 8.16 15.12 2.94 17.76s8.74-4.86 33.9.88c25.16 5.72 44.38 22.5 44.38 22.5 11.74-7.9 19.38-22.42 16.26-36.72l-.3-1.26a32.237 32.237 0 0 0-9.44-15.7c-9.56-8.8-22.38-12.24-34.9-14.28-5.84-.96-11.74-1.64-17.6-2.48-5.7-.82-11.38-1.84-16.9-3.52-5.64-1.72-11.9-4.56-17.6-6.02 0 0-4.62-2.34-16.3-.08"/><path fill="#EE5FFA" d="M326.76 362.58a8.02 8.02 0 1 0 0-16.04 8.02 8.02 0 0 0 0 16.04Z"/><path fill="#EA4335" d="m446.88 273.02-31.8-9.98c-1.12-.36-1.44-1.8-.58-2.6l24.54-22.54c.86-.8 2.28-.36 2.54.8l7.26 32.52c.26 1.16-.84 2.16-1.96 1.8Z"/><path fill="#E8EAED" d="M409.1 374.16c16.304 0 29.52-13.216 29.52-29.52 0-16.303-13.216-29.52-29.52-29.52-16.303 0-29.52 13.217-29.52 29.52 0 16.304 13.217 29.52 29.52 29.52Z"/><path stroke="#30E2EA" stroke-miterlimit="10" stroke-width="4" d="M387.64 349.34c5.02-6.2 4.06-15.3-2.16-20.32l-26.26-21.28c-6.2-5.02-15.3-4.06-20.32 2.16-5.02 6.2-4.06 15.3 2.16 20.32l26.26 21.28c6.2 5.02 15.3 4.06 20.32-2.16Z"/><path stroke="#CEE3FF" stroke-linecap="round" stroke-linejoin="round" stroke-width="4" d="M397.62 165.3c-8.5 15.42-14.44 32.68-14.12 50.3.3 17.62 7.48 35.58 21.34 46.44"/><path fill="#fff" d="M389.2 350.6c2.76-3.42 4.02-7.7 3.56-12.08-.46-4.38-2.6-8.3-6.02-11.06l-1.02-.84c-.82 1.08-1.58 2.18-2.24 3.34l.76.62c2.58 2.08 4.2 5.06 4.56 8.36.34 3.3-.6 6.56-2.7 9.14a12.323 12.323 0 0 1-5.58 3.9c.34 1.28.78 2.56 1.28 3.8 2.82-.98 5.4-2.7 7.4-5.2v.02Z"/><path fill="#34A853" d="m389.44 293.62 1.68 3.94c.3.76 1.14 1.18 1.96.98l2.16-.58c.28.24.54.44.82.64l.04 2.22c0 .8.66 1.5 1.5 1.6l4.22.52c.84.1 1.62-.42 1.84-1.24l.58-2.12c.32-.12.64-.26.96-.42l1.96 1.08c.76.4 1.68.18 2.16-.5l2.54-3.36c.5-.7.42-1.62-.14-2.2l-1.58-1.58c.04-.16.06-.34.08-.52.02-.18.04-.36.04-.52l1.9-1.14c.74-.44 1.02-1.34.68-2.1l-1.66-3.9c-.3-.76-1.14-1.18-1.96-.96l-2.16.58c-.28-.24-.54-.44-.82-.64l-.04-2.22c0-.82-.64-1.52-1.48-1.62l-4.22-.52c-.84-.1-1.62.42-1.84 1.24l-.58 2.12c-.32.12-.64.26-.96.42l-1.96-1.08c-.78-.4-1.7-.18-2.18.48l-2.54 3.38c-.5.7-.42 1.62.14 2.2l1.58 1.58c-.04.16-.06.34-.08.52-.02.18-.04.36-.04.52l-1.9 1.14c-.7.44-1 1.3-.68 2.08l-.02-.02Zm7.72-3.16c.26-2.2 2.28-3.78 4.48-3.52 2.2.26 3.78 2.28 3.52 4.48-.26 2.2-2.28 3.78-4.48 3.52-2.2-.26-3.78-2.28-3.52-4.48Z"/><path stroke="#2785FC" stroke-linecap="round" stroke-linejoin="round" stroke-width="4" d="M273.64 569.66h172.34c6.62 0 12 5.38 12 12V590H261.64v-8.34c0-6.62 5.38-12 12-12Z"/><path fill="#fff" stroke="#2785FC" stroke-linecap="round" stroke-linejoin="round" stroke-width="4" d="M277.36 357.02h164.88c2.2 0 4 1.8 4 4v208.64H273.36V361.02c0-2.2 1.8-4 4-4Z"/><path fill="#fff" stroke="#2785FC" stroke-linecap="round" stroke-linejoin="round" stroke-width="4" d="M306.48 380.02a7.32 7.32 0 0 0-7.32-7.32 7.32 7.32 0 0 0-7.32 7.32V545.7a7.32 7.32 0 0 0 7.32 7.32 7.32 7.32 0 0 0 7.32-7.32V380.02Zm60.64 0a7.32 7.32 0 0 0-7.32-7.32 7.32 7.32 0 0 0-7.32 7.32V545.7a7.32 7.32 0 0 0 7.32 7.32 7.32 7.32 0 0 0 7.32-7.32V380.02Zm57.28 0a7.32 7.32 0 0 0-14.64 0V545.7a7.32 7.32 0 1 0 14.64 0V380.02Zm-55.16-98.658-149.212 91.437a7.999 7.999 0 0 0-2.641 11.001l.01.017a8 8 0 0 0 11.001 2.641l149.212-91.437a8 8 0 0 0 2.641-11.001l-.01-.017a8 8 0 0 0-11.001-2.641Z"/><path fill="#fff" stroke="#2785FC" stroke-linecap="round" stroke-linejoin="round" stroke-width="4" d="M216.12 375.2c-8.04-13.14-3.92-30.3 9.2-38.36l109.46-67.08c13.14-8.04 30.3-3.92 38.36 9.2L216.12 375.2Zm54.979-77.362 8.169-5.005a3.324 3.324 0 0 1 4.565 1.096l3.135 5.116-13.847 8.485-3.135-5.116a3.324 3.324 0 0 1 1.096-4.565l.017-.011Z"/><path fill="#D2E3FC" d="M764.1 330.96c1.28 4.6 2.46 11.74 6.88 13.56.52.22 1.08.36 1.62.22.7-.2 1.14-.9 1.48-1.56 3.22-6.16 3.86-15.36 3.84-22.32 2.58 7.94 5.8 15.68 9.6 23.12 1.54 3.04 3.4 6.22 6.52 7.6 3.1 1.38 7.66-.2 7.94-3.6.06 2.46 5.02 5.68 7.34 4.86 2.32-.82 1.98-4.86 2.86-7.16-.22 1.06 2.58 2.1 3.64 2.28 1.06.18 2.14-.3 3.04-.92 3.06-2.1 2.9-6.08 2.26-9.72 3.4.88 6.5-2.92 6.46-6.44-.04-3.52-3.86-13.46-5.08-16.76-5.64-15.12-7.2-21.96-14.72-34.94-15.22 1.72-31.98 4.12-46.3 9.8-4.22 1.68-3.76 2.98-3.72 7.6.02 3.88.4 7.74.98 11.56 1.18 7.72 3.26 15.28 5.34 22.78l.02.04ZM648.02 103.78c-.26.98.56 3.22-.3 3.76-.74.46.88 0 0 0-5.04.1-10.06 1.02-14.8 2.72.88 5.22 1.9 10.76 5.46 14.7 2.68 2.96 6.56 4.68 10.5 5.26 3.94.58 12.36.08 16.26-.74 6.24-1.32 12.58-2.18 17.7-6 5.12-3.82 14.32-10.82 15.82-17.04-3.72-.38-17.16-.56-20.88-.94-.42-.04-.88-.1-1.18-.4-.22-.24-.32-.56-.4-.88l-3.42-13.54c-2.88.66-5.78 1.18-8.72 1.52-2.5.28-9.22-.92-11.6-.26-4.12 1.14-3.54 8.46-4.44 11.84Zm-171.22 98.3 2.88 40.08c-7.72 4.74-16.74 7.54-25.78 7.7-3.18.06-6.78-.4-8.66-2.96-.46-.64-.8-1.42-.62-2.18.1-.46.38-.84.66-1.22 3.54-4.52 9.52-6.2 15.1-7.64.2-.06.46-.08.56.12.1.2-.38.22-.24.06-8.72-2.5-16.3-5.96-24.56-9.74l-6.72 14.64c-.82 1.78-1.64 3.56-2.9 5.04s-3.06 2.64-5 2.68c-2.92.08-5.48-2.38-6.22-5.2-.74-2.82 0-5.84 1.28-8.48-4.36-1.86-6.88-7.22-5.52-11.78-.8-.4-1.02-1.42-1.1-2.32-.42-5.52 1.44-10.98 4.06-15.86.76-1.4 1.58-2.78 2.7-3.92 2.28-2.32 5.54-3.36 8.7-4.16 6.6-1.64 13.4-2.48 20.2-2.36 10.52.2 21.78 2.78 31.24 7.42l-.06.08Zm110.28 221.58-4.32 66.12-2.54 43.28h73.98l7.94-109.08-75.06-.32Zm90.66 0 11.08 28.88 28.6 68.16L784 491.72l-26.44-68.06h-79.82Z"/><path fill="#D2E3FC" stroke="#4285F4" stroke-linecap="round" stroke-linejoin="round" stroke-width="4" d="M660.56 93.56c12.029 0 21.78-9.751 21.78-21.78 0-12.029-9.751-21.78-21.78-21.78-12.028 0-21.78 9.751-21.78 21.78 0 12.029 9.752 21.78 21.78 21.78Z"/><path stroke="#4285F4" stroke-linecap="round" stroke-linejoin="round" stroke-width="4" d="M622.76 187.88s-3.56 11.5-11.66 27.96c-6.36 12.94-13.04 22.1-27.94 32.3-3.4 2.34-11.74 5.84-15.72 6.98a71.744 71.744 0 0 1-21.9 2.76c-6.82-.2-13.58-1.36-20.4-1.18-14.42.36-31.2 6.34-43.7-1.94m166.58-148.52s-4.44.98-7.06 1.38c-7.54 1.16-12.68 2.76-18.92 5.06-5.84 2.16-11.4 5.06-16.46 8.74-24.04 17.44-35.76 44.92-48.66 71.68m-75.46 61.68-3.78-53.48m-15.72 34.24c-8.5-3.22-19.24-7.26-25.9-9.38-1.46-.44-7.5 17.36-8.36 18.9-1.12 2.02-2.86 4.06-5.28 4.38-4.44.58-7.3-4-7.1-7.92.22-4.06 2.34-7.78 3.8-11.5 1.16-2.92 2.6-5.76 4.44-8.32 2.7-3.78 7.48-5.62 12.12-5.84 4.64-.22 9.22.98 13.7 2.16"/><path stroke="#4285F4" stroke-linecap="round" stroke-linejoin="round" stroke-width="4" d="M477.36 201.3c-10.36-2.98-20.88-5.8-31.68-6.7-9.42-.78-21.24-1.06-28.4 6.42-3.96 4.14-5.86 9.82-7.5 15.3-.44 1.48-.88 3-.82 4.54.06 1.54.68 3.16 1.96 4.02"/><path stroke="#4285F4" stroke-linecap="round" stroke-linejoin="round" stroke-width="4" d="M448.08 205.3c-4.44-.78-9-1.12-13.52-.98-3.98.12-8.1.66-11.48 2.62-2.22 1.28-4.02 3.12-5.56 5.06a34.57 34.57 0 0 0-5.52 9.96c-.8 2.26-1.36 4.68-.98 7.04.38 2.36 1.82 4.68 4.14 5.7m64.68 7.84c-6.58 5.82-17.18 6.44-28.04 6.96-1.5.08-3.04.14-4.44-.4-1.4-.54-2.64-1.82-2.62-3.32 0-1.02.6-1.96 1.26-2.72 2.3-2.68 5.7-4.08 9.02-5.26 4.5-1.6 2.28-1.16 6.94-2.26m213.78-130.12 19.42.82c5.96.24 11.9 1.02 17.66 2.5 3.32.86 5.94 1.72 7.68 2.4 33.12 12.94 51.14 47.04 60.32 79.54 3.22 11.42 7.76 21.92 13.9 32 5.76 9.46 8.2 10.88 12.46 21.12 4.26 10.3 4.4 22.66 3.72 33.66m0 0L758 290.12M477.68 201.3l79.24-8.18m150.32 2.48H627.7"/><path stroke="#2785FC" stroke-linecap="round" stroke-linejoin="round" stroke-width="2.46" d="m784 491.72-66.58 28.98"/><path stroke="#4285F4" stroke-linecap="round" stroke-linejoin="round" stroke-width="4" d="M677.74 423.66c8.58 25.22 39.68 97.06 39.68 97.06m-130.34-96.74c-3.34 46.38-6.86 109.06-6.86 109.06h74l7.94-109.06M784 491.72l-26.44-68.06M707.12 195.6s5.06-27.08 6.1-33.04"/><path fill="#4285F4" stroke="#4285F4" stroke-miterlimit="10" stroke-width="2" d="M650.32 52.56s3.98 22.48 30.3 27.74c0 0 6.7-12.44-6.22-25.34 0 0-9.24-9.08-24.08-2.4Z"/><path stroke="#4285F4" stroke-linecap="round" stroke-linejoin="round" stroke-width="4" d="M641.46 79.14c2.76-.12 5.52-.34 8.18-1.04 2.66-.68 5.26-1.86 7.3-3.72m-8.92 31.86 2.64-14.02m24.62 13.2-2.64-14.02m149.38 246.72c3-1.2 4.7-4.62 4.7-7.86 0-7.62-10.72-34.42-19.72-51.88m0 24.14c6.3 12.26 12.1 22.86 14.22 35.04.44 2.58.34 5.4-.98 7.66-1.32 2.28-4.96 3.92-7.4 1.74m-26.26-37.44c5.46 10.84 11.66 22.88 14.28 34.74.64 2.86.8 6.48-1.64 8-1.5.94-3.52.64-5.04-.3s-2.62-2.42-3.64-3.9c-2.46-3.58-3.08-4.5-4.92-8.46-3.72-8.06-7.12-18.5-11.58-27.32"/><path stroke="#4285F4" stroke-linecap="round" stroke-linejoin="round" stroke-width="4" d="M797.38 305.78c3.66 7.36 9.96 20.5 12.82 28.2 1.44 3.88 2.68 7.94 2.48 12.06-.08 1.64-.4 3.3-1.3 4.68-.9 1.36-2.46 2.38-4.1 2.26-1.84-.12-5.32-2.32-6.1-3.98m-24.78-30.98c-.06 5.92.04 13.4 0 19.32-.02 2.76-.46 6.16-3.02 7.2-1.5.6-3.28.08-4.52-.96-1.24-1.04-2.02-2.52-2.64-4.02-1.14-2.8-1.8-5.76-2.44-8.7-2.82-12.8-6.6-27.64-5.76-40.72l-53.94-153.62m-72.24-26.78c0 11.86 6.94 20.72 25.28 20.88 15.84.14 35.36-9.14 41.52-24.18m8.48 89.16c15.06 23.8 21.96 51.38 24.24 79.22 2.7 32.96-.34 65.86 9.98 98.08l16.24 50.74H587.1s2.78-87.78 28.2-181.1c11.66-42.86 12.42-47.3 12.42-47.3s-5.86-4.64-4.82-10.68c.7-4.1 1.86-8.14 2.1-12.3.24-4.44-1.06-8.8-1.7-13.2-1.18-7.96-.28-16.22 2.62-23.74"/><path fill="#4285F4" stroke="#4285F4" stroke-linecap="round" stroke-linejoin="round" stroke-width="4" d="m784 492.06 19.76 46.18-17.4 8.98-11.5-20.88c.86 15.88-8.58 31.3-24.02 39.26-13.9 7.16-25.7 11.66-28.44 13.06-1.36-2.36-2.46-5.48-1.58-9.32.64-2.76 2.9-5.18 4.88-7.2 3.1-3.16 3.5-8.28 1.54-14.92-1.2-4.1-4.36-13.8-9.82-26.52L784 492.06v0Zm-203.78 41c-.96 14.56-1.98 22.9-2.86 27.56-1.38 7.32-6.9 9.28-9.56 10.22-2.66.94-5.72 2.16-7.52 4.48-2.5 3.24-2.96 6.78-2.82 9.72 3.02 0 19.52.02 34.88.04 17.06 0 32.24-10.1 38.66-25.74l.62 25.72h19.24l3.36-51.98h-74v-.02Z"/><path stroke="#4285F4" stroke-linecap="round" stroke-linejoin="round" stroke-width="4" d="M679 74.16c.92-4.42 0-10.08-3.34-13.38-3.2-3.16-10.7-4.6-14.9-5.86-1.86-.56-3.84-.98-5.6-1.82"/><path fill="#4285F4" d="M787.68 146.54c14.625 0 26.48-11.855 26.48-26.48 0-14.624-11.855-26.48-26.48-26.48-14.624 0-26.48 11.856-26.48 26.48 0 14.625 11.856 26.48 26.48 26.48Z"/></g><defs><clipPath id="a"><path fill="#fff" d="M0 0h618.72v544.02H0z" transform="translate(210 48)"/></clipPath></defs></svg>