<svg width="284" height="284" xmlns="http://www.w3.org/2000/svg" xmlns:xlink="http://www.w3.org/1999/xlink"><defs><path id="a" d="M0 .325h157.862V119H0z"/></defs><g fill="none" fill-rule="evenodd"><g transform="translate(63 113)"><mask id="b" fill="#fff"><use xlink:href="#a"/></mask><path d="M15.785.325C7.025.325.082 7.367.082 16.148l-.083 87.029C0 111.957 7.025 119 15.785 119h126.29c8.76 0 15.787-7.042 15.787-15.823V16.148c0-8.78-7.026-15.823-15.787-15.823H15.785z" fill="#BDC1C6" mask="url(#b)"/></g><path d="M126 170c0-8.8 7.197-16 16-16s16 7.2 16 16-7.197 16-16 16-16-7.2-16-16z" fill="#FFF"/><path d="M178 115V89.35C178 69.276 161.882 53 142 53s-36 16.275-36 36.35v25.189" stroke="#BDC1C6" stroke-width="15"/></g></svg>