<svg width="520" height="320" fill="none" xmlns="http://www.w3.org/2000/svg"><g clip-path="url(#a)"><path fill="#fff" d="M0 0h520v320H0z"/><g clip-path="url(#b)"><path fill="#fff" d="M-23.299 12h566.597v296H-23.299z"/><path d="m391.427 118.45-29.568 53.192a28.239 28.239 0 0 1-16.776 13.643 28.093 28.093 0 0 1-21.465-2.263 28.215 28.215 0 0 1-8.466-7.065 28.376 28.376 0 0 1-5.129-9.783 28.467 28.467 0 0 1-1.01-11.01 28.44 28.44 0 0 1 3.262-10.561l29.568-53.177a28.243 28.243 0 0 1 16.773-13.652 28.096 28.096 0 0 1 21.469 2.257 28.319 28.319 0 0 1 13.588 16.85 28.463 28.463 0 0 1-2.246 21.569z" fill="#E8E9EC"/><path d="M263.399 23.07h-65.948a12.221 12.221 0 0 0-6.083 1.672 12.295 12.295 0 0 0-4.452 4.489l-32.974 57.382a12.325 12.325 0 0 0-1.646 6.154c0 2.161.568 4.284 1.646 6.154l32.974 57.382a12.298 12.298 0 0 0 4.489 4.51 12.227 12.227 0 0 0 6.132 1.652h65.862a12.232 12.232 0 0 0 6.13-1.654 12.295 12.295 0 0 0 4.49-4.508l32.974-57.382a12.315 12.315 0 0 0 1.646-6.154c0-2.161-.567-4.284-1.646-6.154L274.048 29.23a12.312 12.312 0 0 0-4.502-4.516 12.239 12.239 0 0 0-6.147-1.646z" stroke="#EA4335" stroke-width="5.063" stroke-miterlimit="10" stroke-dasharray="19.75 19.75"/><path d="m208.822 71.028 43.263 43.478m0-43.478-43.263 43.478" stroke="#EA4335" stroke-width="5.063" stroke-miterlimit="10"/><path d="M251.349 288.522a5.83 5.83 0 0 1-2.406.466 5.812 5.812 0 0 1-2.385-.563 5.858 5.858 0 0 1-1.948-1.494 5.901 5.901 0 0 1-1.169-2.164 59.342 59.342 0 0 1 3.145-42.069c6.165-13.157 16.942-23.568 30.269-29.241a58.567 58.567 0 0 1 41.966-1.509c13.697 4.701 25.187 14.312 32.273 26.992a5.94 5.94 0 0 1 .443 4.799 5.91 5.91 0 0 1-1.254 2.117 5.896 5.896 0 0 1-2.003 1.42l-96.931 41.246z" stroke="#E4E4E4" stroke-width="5.063" stroke-miterlimit="10"/><path d="M135.788 152.182 115.4 176.593c-2.572 3.079-2.172 7.669.893 10.253l24.01 20.241a7.222 7.222 0 0 0 10.206-.897l20.388-24.411c2.572-3.079 2.172-7.67-.892-10.253l-24.011-20.241a7.221 7.221 0 0 0-10.206.897z" fill="#F882FF"/><path d="M217.019 268.443c.441-5.497.581-11.015.418-16.528a28.713 28.713 0 0 1 8.442-20.195 119.122 119.122 0 0 0 8.846-9.075c9.264-11.526 6.898-28.807-6.147-36.433-11.458-6.698-27.419-2.523-33.292 9.67-2.742 5.625-3.463 11.96-5.686 17.774a28.51 28.51 0 0 1-12.381 14.744c-4.921 2.827-10.101 5.219-14.676 8.699a33.84 33.84 0 0 0-10.376 12.874 34.625 34.625 0 0 0-1.284 25.582 34.426 34.426 0 0 0 16.635 19.411 34.171 34.171 0 0 0 25.371 2.526 34.336 34.336 0 0 0 20.103-15.755 33.628 33.628 0 0 0 4.027-13.294z" fill="#BBC0C7"/><path d="M388.281 229.836c10.512 0 19.034-8.562 19.034-19.123 0-10.561-8.522-19.122-19.034-19.122-10.512 0-19.034 8.561-19.034 19.122s8.522 19.123 19.034 19.123z" stroke="#FBBC05" stroke-width="5.063" stroke-miterlimit="10"/></g></g><defs><clipPath id="a"><path fill="#fff" d="M0 0h520v320H0z"/></clipPath><clipPath id="b"><path fill="#fff" transform="translate(-23.299 12)" d="M0 0h566.597v296H0z"/></clipPath></defs></svg>