<svg width="520" height="320" viewBox="0 0 520 320" fill="none" xmlns="http://www.w3.org/2000/svg">
<rect width="520" height="320" fill="white"/>
<path d="M179.51 156.738H340.214C344.173 156.738 347.388 159.952 347.388 163.911V280.458H172.336V163.911C172.336 159.952 175.551 156.738 179.51 156.738Z" fill="white" stroke="#4285F4" stroke-width="3" stroke-linecap="round" stroke-linejoin="round"/>
<path d="M182.73 164.412H337.182C338.634 164.412 339.811 165.589 339.811 167.041V270.625H180.101V167.041C180.101 165.589 181.278 164.412 182.73 164.412Z" fill="#D2E3FC"/>
<path d="M159.727 276.676H360.002C360.795 276.676 361.436 277.316 361.436 278.109V281.361C361.436 282.947 360.149 284.228 358.569 284.228H161.161C159.575 284.228 158.294 282.941 158.294 281.361V278.109C158.294 277.316 158.934 276.676 159.727 276.676Z" fill="white" stroke="#4285F4" stroke-width="3" stroke-linecap="round" stroke-linejoin="round"/>
<path d="M258.639 162.295C259.312 162.295 259.859 161.749 259.859 161.075C259.859 160.401 259.312 159.855 258.639 159.855C257.965 159.855 257.419 160.401 257.419 161.075C257.419 161.749 257.965 162.295 258.639 162.295Z" fill="#D2E3FC"/>
<path d="M169.111 126.012L161.393 130.846C160.419 131.456 160.124 132.74 160.734 133.713L165.513 141.344C166.123 142.317 167.407 142.612 168.38 142.002L176.099 137.168C177.072 136.558 177.367 135.275 176.757 134.301L171.978 126.671C171.368 125.697 170.085 125.402 169.111 126.012Z" fill="#EE5FFA"/>
<path fill-rule="evenodd" clip-rule="evenodd" d="M236.429 50.0549L227.303 43.5767C226.98 43.3449 226.522 43.5767 226.473 43.9793L225.223 55.5327C225.18 55.9414 225.583 56.2281 225.949 56.0512L236.325 50.9699C236.691 50.7869 236.746 50.2806 236.422 50.0488" fill="#EA4335"/>
<path fill-rule="evenodd" clip-rule="evenodd" d="M400.531 129.349L397.139 125.957C396.743 125.561 396.584 124.975 396.73 124.432L397.969 119.802C398.115 119.259 398.542 118.832 399.085 118.686L403.715 117.448C404.258 117.301 404.843 117.46 405.24 117.856L408.632 121.248C409.028 121.645 409.187 122.23 409.04 122.773L407.802 127.403C407.656 127.946 407.229 128.373 406.686 128.519L402.056 129.758C401.513 129.904 400.927 129.745 400.531 129.349Z" fill="#30E2EA"/>
<path d="M270.808 87.7834C271.491 87.2344 272.492 87.4052 272.961 88.1433C276.92 94.3775 275.633 102.722 269.735 107.45C263.836 112.171 255.412 111.61 250.19 106.388C249.574 105.772 249.623 104.754 250.306 104.205L270.808 87.7834Z" stroke="#D2E3FC" stroke-width="3" stroke-miterlimit="10"/>
<path d="M328.179 193.008H191.746C188.842 193.008 186.488 195.363 186.488 198.267V228.754C186.488 231.658 188.842 234.013 191.746 234.013H328.179C331.083 234.013 333.437 231.658 333.437 228.754V198.267C333.437 195.363 331.083 193.008 328.179 193.008Z" fill="white" stroke="#4285F4" stroke-width="3" stroke-miterlimit="10"/>
<path d="M243.047 219.123C241.889 219.123 240.84 218.858 239.901 218.33C238.962 217.811 238.221 217.104 237.678 216.21C237.146 215.305 236.88 214.314 236.88 213.236C236.88 212.169 237.146 211.187 237.678 210.293C238.221 209.388 238.962 208.671 239.901 208.143C240.84 207.614 241.889 207.35 243.047 207.35C244.195 207.35 245.234 207.614 246.162 208.143C247.101 208.671 247.832 209.383 248.354 210.278C248.886 211.172 249.152 212.148 249.152 213.206C249.152 214.141 248.938 214.908 248.51 215.508C248.093 216.108 247.498 216.408 246.726 216.408C246.329 216.408 245.969 216.311 245.646 216.118C245.333 215.915 245.093 215.64 244.926 215.295C244.435 216.037 243.715 216.408 242.766 216.408C242.202 216.408 241.691 216.276 241.232 216.012C240.772 215.747 240.407 215.381 240.136 214.914C239.865 214.436 239.729 213.897 239.729 213.297C239.729 212.707 239.865 212.174 240.136 211.696C240.407 211.218 240.767 210.847 241.216 210.583C241.675 210.318 242.171 210.186 242.703 210.186C243.089 210.186 243.439 210.262 243.752 210.415C244.065 210.567 244.331 210.776 244.55 211.04H244.644V210.4H245.959V214.273C245.959 214.537 246.032 214.771 246.178 214.975C246.324 215.168 246.538 215.264 246.82 215.264C247.195 215.264 247.462 215.066 247.618 214.67C247.785 214.263 247.869 213.775 247.869 213.206C247.869 212.372 247.655 211.604 247.227 210.903C246.809 210.191 246.23 209.627 245.489 209.21C244.759 208.793 243.945 208.585 243.047 208.585C242.16 208.585 241.352 208.788 240.621 209.195C239.891 209.591 239.311 210.145 238.884 210.857C238.456 211.569 238.242 212.362 238.242 213.236C238.242 214.11 238.461 214.903 238.899 215.615C239.338 216.327 239.922 216.886 240.652 217.293C241.393 217.689 242.192 217.887 243.047 217.887C243.809 217.887 244.487 217.735 245.082 217.43L245.552 218.604C244.811 218.95 243.976 219.123 243.047 219.123ZM242.875 215.097C243.355 215.097 243.762 214.934 244.096 214.609C244.44 214.283 244.613 213.846 244.613 213.297C244.613 212.748 244.44 212.311 244.096 211.986C243.762 211.66 243.355 211.498 242.875 211.498C242.385 211.498 241.967 211.66 241.623 211.986C241.289 212.311 241.122 212.748 241.122 213.297C241.122 213.846 241.289 214.283 241.623 214.609C241.967 214.934 242.385 215.097 242.875 215.097Z" fill="#4285F4"/>
<path d="M254.423 221.41C253.453 221.41 252.649 221.186 252.013 220.739C251.386 220.302 250.964 219.788 250.745 219.199L252.373 218.543C252.529 218.96 252.79 219.29 253.155 219.534C253.52 219.778 253.943 219.9 254.423 219.9C255.143 219.9 255.707 219.687 256.114 219.26C256.531 218.833 256.74 218.243 256.74 217.491V216.835H256.646C256.395 217.191 256.051 217.476 255.613 217.689C255.185 217.903 254.694 218.009 254.141 218.009C253.494 218.009 252.889 217.842 252.326 217.506C251.773 217.171 251.324 216.703 250.979 216.103C250.646 215.493 250.479 214.807 250.479 214.044C250.479 213.282 250.646 212.601 250.979 212.001C251.324 211.391 251.773 210.918 252.326 210.583C252.889 210.237 253.494 210.064 254.141 210.064C254.694 210.064 255.185 210.171 255.613 210.384C256.051 210.598 256.395 210.882 256.646 211.238H256.74V210.308H258.383V217.445C258.383 218.279 258.211 218.995 257.867 219.595C257.533 220.195 257.063 220.648 256.458 220.953C255.863 221.258 255.185 221.41 254.423 221.41ZM254.47 216.484C254.877 216.484 255.253 216.388 255.597 216.195C255.941 216.001 256.218 215.722 256.427 215.356C256.635 214.98 256.74 214.542 256.74 214.044C256.74 213.536 256.635 213.099 256.427 212.733C256.218 212.357 255.941 212.072 255.597 211.879C255.253 211.686 254.877 211.589 254.47 211.589C254.063 211.589 253.687 211.691 253.343 211.894C252.999 212.087 252.722 212.372 252.513 212.748C252.305 213.114 252.2 213.546 252.2 214.044C252.2 214.542 252.305 214.98 252.513 215.356C252.722 215.722 252.999 216.001 253.343 216.195C253.687 216.388 254.063 216.484 254.47 216.484Z" fill="#4285F4"/>
<path d="M260.318 210.308H261.946V211.315H262.04C262.269 210.949 262.603 210.649 263.042 210.415C263.48 210.181 263.939 210.064 264.419 210.064C264.983 210.064 265.473 210.191 265.89 210.445C266.308 210.699 266.616 211.04 266.814 211.467C267.085 211.04 267.445 210.699 267.894 210.445C268.353 210.191 268.875 210.064 269.459 210.064C270.367 210.064 271.056 210.339 271.526 210.888C271.995 211.426 272.23 212.163 272.23 213.099V217.872H270.508V213.373C270.508 212.743 270.378 212.291 270.117 212.016C269.866 211.742 269.491 211.604 268.99 211.604C268.437 211.604 267.988 211.828 267.644 212.275C267.31 212.712 267.143 213.246 267.143 213.877V217.872H265.421V213.373C265.421 212.743 265.29 212.291 265.029 212.016C264.769 211.742 264.377 211.604 263.855 211.604C263.313 211.604 262.875 211.828 262.541 212.275C262.207 212.712 262.04 213.246 262.04 213.877V217.872H260.318V210.308Z" fill="#4285F4"/>
<path d="M276.503 218.116C275.95 218.116 275.449 218.009 275 217.796C274.562 217.572 274.212 217.267 273.951 216.881C273.701 216.484 273.576 216.037 273.576 215.539C273.576 214.746 273.878 214.121 274.484 213.663C275.099 213.206 275.877 212.977 276.816 212.977C277.64 212.977 278.345 213.114 278.929 213.389V213.068C278.929 212.611 278.741 212.235 278.366 211.94C278 211.635 277.557 211.482 277.035 211.482C276.242 211.482 275.605 211.797 275.125 212.428L273.81 211.543C274.176 211.065 274.63 210.699 275.172 210.445C275.725 210.191 276.346 210.064 277.035 210.064C278.173 210.064 279.049 210.344 279.665 210.903C280.291 211.452 280.604 212.23 280.604 213.236V217.872H278.929V216.942H278.835C278.585 217.287 278.266 217.572 277.88 217.796C277.494 218.009 277.035 218.116 276.503 218.116ZM276.785 216.728C277.171 216.728 277.526 216.637 277.849 216.454C278.183 216.261 278.444 216.012 278.632 215.707C278.83 215.391 278.929 215.056 278.929 214.7C278.376 214.405 277.786 214.258 277.16 214.258C276.586 214.258 276.138 214.38 275.814 214.624C275.491 214.868 275.329 215.178 275.329 215.554C275.329 215.9 275.47 216.184 275.751 216.408C276.044 216.622 276.388 216.728 276.785 216.728Z" fill="#4285F4"/>
<path d="M283.408 209.027C283.084 209.027 282.808 208.92 282.578 208.707C282.359 208.483 282.25 208.214 282.25 207.899C282.25 207.583 282.359 207.319 282.578 207.106C282.808 206.882 283.084 206.77 283.408 206.77C283.731 206.77 284.003 206.882 284.222 207.106C284.451 207.319 284.566 207.583 284.566 207.899C284.566 208.214 284.451 208.483 284.222 208.707C284.003 208.92 283.731 209.027 283.408 209.027ZM282.547 210.308H284.269V217.872H282.547V210.308Z" fill="#4285F4"/>
<path d="M286.335 206.953H288.057V217.872H286.335V206.953Z" fill="#4285F4"/>
<path d="M291.084 217.964C290.75 217.964 290.463 217.852 290.223 217.628C289.993 217.394 289.879 217.115 289.879 216.789C289.879 216.464 289.993 216.189 290.223 215.966C290.463 215.742 290.75 215.63 291.084 215.63C291.418 215.63 291.7 215.742 291.929 215.966C292.159 216.189 292.273 216.464 292.273 216.789C292.273 217.115 292.159 217.394 291.929 217.628C291.7 217.852 291.418 217.964 291.084 217.964Z" fill="#4285F4"/>
<path d="M297.685 218.116C296.913 218.116 296.219 217.943 295.604 217.598C294.988 217.252 294.508 216.774 294.163 216.164C293.819 215.544 293.647 214.853 293.647 214.09C293.647 213.317 293.819 212.626 294.163 212.016C294.508 211.406 294.988 210.928 295.604 210.583C296.219 210.237 296.913 210.064 297.685 210.064C298.541 210.064 299.266 210.262 299.861 210.659C300.466 211.045 300.905 211.559 301.176 212.199L299.595 212.84C299.219 212.016 298.562 211.604 297.623 211.604C297.226 211.604 296.856 211.711 296.511 211.925C296.167 212.128 295.891 212.418 295.682 212.794C295.473 213.17 295.369 213.602 295.369 214.09C295.369 214.578 295.473 215.01 295.682 215.386C295.891 215.762 296.167 216.057 296.511 216.271C296.856 216.474 297.226 216.576 297.623 216.576C298.103 216.576 298.52 216.469 298.875 216.256C299.23 216.032 299.501 215.717 299.689 215.31L301.239 215.966C300.936 216.606 300.482 217.125 299.877 217.521C299.272 217.918 298.541 218.116 297.685 218.116Z" fill="#4285F4"/>
<path d="M306.185 218.116C305.413 218.116 304.719 217.943 304.103 217.598C303.487 217.242 303.002 216.759 302.647 216.149C302.303 215.539 302.131 214.853 302.131 214.09C302.131 213.328 302.303 212.641 302.647 212.031C303.002 211.421 303.487 210.943 304.103 210.598C304.719 210.242 305.413 210.064 306.185 210.064C306.968 210.064 307.667 210.242 308.282 210.598C308.898 210.943 309.378 211.421 309.723 212.031C310.067 212.641 310.239 213.328 310.239 214.09C310.239 214.853 310.067 215.539 309.723 216.149C309.378 216.759 308.898 217.242 308.282 217.598C307.667 217.943 306.968 218.116 306.185 218.116ZM306.185 216.576C306.602 216.576 306.988 216.474 307.343 216.271C307.698 216.067 307.985 215.778 308.204 215.402C308.423 215.025 308.533 214.588 308.533 214.09C308.533 213.582 308.423 213.139 308.204 212.763C307.985 212.387 307.698 212.102 307.343 211.909C306.988 211.706 306.602 211.604 306.185 211.604C305.778 211.604 305.392 211.706 305.027 211.909C304.672 212.102 304.385 212.387 304.166 212.763C303.957 213.139 303.853 213.582 303.853 214.09C303.853 214.588 303.962 215.025 304.181 215.402C304.4 215.778 304.687 216.067 305.042 216.271C305.397 216.474 305.778 216.576 306.185 216.576Z" fill="#4285F4"/>
<path d="M311.588 210.308H313.216V211.315H313.31C313.539 210.949 313.873 210.649 314.312 210.415C314.75 210.181 315.209 210.064 315.689 210.064C316.253 210.064 316.743 210.191 317.16 210.445C317.578 210.699 317.886 211.04 318.084 211.467C318.355 211.04 318.715 210.699 319.164 210.445C319.623 210.191 320.145 210.064 320.729 210.064C321.637 210.064 322.326 210.339 322.796 210.888C323.265 211.426 323.5 212.163 323.5 213.099V217.872H321.778V213.373C321.778 212.743 321.648 212.291 321.387 212.016C321.136 211.742 320.761 211.604 320.26 211.604C319.707 211.604 319.258 211.828 318.914 212.275C318.58 212.712 318.413 213.246 318.413 213.877V217.872H316.691V213.373C316.691 212.743 316.56 212.291 316.3 212.016C316.039 211.742 315.647 211.604 315.126 211.604C314.583 211.604 314.145 211.828 313.811 212.275C313.477 212.712 313.31 213.246 313.31 213.877V217.872H311.588V210.308Z" fill="#4285F4"/>
<path d="M320.45 256.18C330.22 256.18 338.14 248.26 338.14 238.49C338.14 228.72 330.22 220.8 320.45 220.8C310.68 220.8 302.76 228.72 302.76 238.49C302.76 248.26 310.68 256.18 320.45 256.18Z" fill="#34A853"/>
<path fill-rule="evenodd" clip-rule="evenodd" d="M332.672 231.753C333.254 232.334 333.256 233.276 332.674 233.858L318.753 247.785C318.467 248.072 318.075 248.23 317.669 248.221C317.263 248.213 316.878 248.04 316.602 247.742L310.464 241.098C309.906 240.493 309.944 239.552 310.549 238.994C311.154 238.437 312.097 238.476 312.655 239.08L317.74 244.584L330.564 231.755C331.145 231.173 332.089 231.172 332.672 231.753Z" fill="white"/>
<rect x="197.84" y="206.77" width="37.21" height="11.59" rx="4" fill="#8AB4F8"/>
<path d="M355.684 104.247C354.567 102.515 352.591 101.496 350.529 101.6C346.796 101.783 332.998 106.218 332.998 106.218C332.998 106.218 319.199 110.652 316.058 112.684C314.326 113.8 313.307 115.776 313.411 117.838C313.594 121.571 315.899 128.751 315.899 128.751C315.899 128.751 318.211 135.931 320.236 139.072C321.353 140.805 323.329 141.823 325.391 141.72C329.124 141.537 342.922 137.102 342.922 137.102C342.922 137.102 356.721 132.667 359.862 130.636C361.594 129.52 362.613 127.543 362.509 125.481C362.326 121.748 360.021 114.569 360.021 114.569C360.021 114.569 357.709 107.389 355.684 104.247Z" fill="#FF0000"/>
<path d="M335.676 129.697L345.009 119.394L331.418 116.466L335.676 129.697Z" fill="white"/>
<path d="M265.959 50.6283L271.985 59.3696L281.013 64.9511L285.887 44.7601L305.816 38.8797C299.808 33.1762 291.011 30.7423 282.496 33.2494C273.98 35.7565 267.911 42.5763 265.959 50.6222V50.6283Z" fill="url(#paint0_linear_6_610)"/>
<path d="M296.062 79.2739L300.619 69.6847L300.936 59.0768L281.013 64.9511L265.959 50.6283C264.025 58.6803 266.312 67.5192 272.748 73.6375C279.183 79.7558 288.12 81.6041 296.068 79.2739H296.062Z" fill="url(#paint1_linear_6_610)"/>
<path d="M305.822 38.8797L285.893 44.754L300.942 59.0768L296.068 79.2739C304.01 76.9254 310.519 70.5204 312.599 61.8889C314.685 53.2574 311.812 44.5954 305.816 38.8797L305.822 38.8797Z" fill="url(#paint2_linear_6_610)"/>
<path d="M292.676 67.7544C299.029 65.881 302.66 59.2123 300.787 52.8594C298.913 46.5066 292.245 42.8752 285.892 44.7486C279.539 46.6219 275.908 53.2906 277.781 59.6435C279.654 65.9964 286.323 69.6277 292.676 67.7544Z" fill="white"/>
<path d="M292.041 65.6012C297.201 64.0795 300.151 58.6598 298.628 53.4961C297.105 48.3324 291.687 45.3799 286.527 46.9017C281.366 48.4235 278.417 53.8431 279.94 59.0068C281.463 64.1706 286.881 67.123 292.041 65.6012Z" fill="#1A73E8"/>
<path d="M131.807 117.96L134.674 124.817L140.726 130.002C141.409 129.501 141.958 128.818 142.306 128.013L146.319 118.771C146.667 117.966 146.789 117.1 146.691 116.258L138.835 115.648L131.807 117.96Z" fill="#EA4335"/>
<path d="M127.287 90.0526C126.513 89.7171 125.646 89.5768 124.774 89.6805L114.764 90.8212C113.898 90.9188 113.08 91.2543 112.403 91.7545L115.386 98.7695L121.291 103.759L121.315 103.796L125.97 97.5312L127.281 90.0526H127.287Z" fill="#188038"/>
<path d="M114.294 119.961L106.419 119.076L99.4104 121.663C99.508 122.505 99.8191 123.316 100.338 124.024L106.334 132.124C106.858 132.826 107.548 133.369 108.322 133.704L113.007 127.635L114.294 119.967V119.961Z" fill="#1967D2"/>
<path d="M137.517 102.771L129.276 91.6386C128.751 90.931 128.062 90.3942 127.287 90.0587L121.315 103.796L131.801 117.966L146.685 116.264C146.588 115.423 146.277 114.605 145.752 113.904L137.511 102.771H137.517Z" fill="#FBBC04"/>
<path d="M131.807 117.96L114.294 119.961L108.322 133.698C109.097 134.034 109.963 134.174 110.836 134.07L138.359 130.929C139.231 130.831 140.042 130.502 140.72 129.995L131.807 117.954V117.96Z" fill="#4285F4"/>
<path d="M121.322 103.796L112.409 91.7545C111.726 92.2547 111.183 92.9318 110.83 93.737L99.7825 119.156C99.4348 119.961 99.3128 120.821 99.4104 121.657L114.294 119.955L121.322 103.79V103.796Z" fill="#34A853"/>
<path d="M400.604 146.185C406.789 148.552 409.888 155.487 407.521 161.673L407.131 162.691L385.744 154.505C385.183 154.292 384.903 153.657 385.116 153.096C387.483 146.911 394.419 143.812 400.604 146.179V146.185Z" fill="#FBBC04"/>
<path d="M423.638 156.164C421.271 162.35 414.335 165.449 408.15 163.082L407.131 162.691L415.317 141.305C415.531 140.744 416.165 140.463 416.726 140.676C422.912 143.043 426.01 149.979 423.644 156.164H423.638Z" fill="#EA4335"/>
<path d="M413.658 179.198C407.473 176.831 404.374 169.895 406.741 163.71L407.131 162.691L428.518 170.878C429.079 171.091 429.359 171.725 429.146 172.287C426.779 178.472 419.843 181.571 413.658 179.204V179.198Z" fill="#4285F4"/>
<path d="M390.618 169.218C392.985 163.033 399.921 159.934 406.106 162.301L407.125 162.691L398.939 184.078C398.725 184.639 398.091 184.92 397.53 184.706C391.344 182.339 388.245 175.404 390.612 169.218H390.618Z" fill="#34A853"/>
<path d="M77.5969 182.937L79.2988 186.951L85.7953 189.458L92.5297 190.233L90.6692 183.047L87.0031 177.179L83.3004 176.258C79.372 175.288 76.0231 179.21 77.603 182.931" fill="#C5221F"/>
<path d="M111.098 166.974L112.794 173.775L116.625 180.028L120.523 175.495L123.475 168.242L121.773 164.229C120.199 160.508 115.045 160.178 113.013 163.673L111.092 166.974H111.098Z" fill="#FBBC04"/>
<path d="M92.7248 210.278L99.7521 207.301L92.5236 190.227L79.2927 186.945L88.4305 208.533C89.1381 210.198 91.0535 210.973 92.7188 210.271" fill="#4285F4"/>
<path d="M123.853 197.101L130.88 194.125C132.546 193.417 133.32 191.502 132.619 189.836L123.481 168.249L116.631 180.034L123.859 197.108L123.853 197.101Z" fill="#34A853"/>
<path d="M102.875 181.113L86.9969 177.179L92.5297 190.233L108.402 194.167L116.625 180.028L111.098 166.974L102.875 181.113Z" fill="#EA4335"/>
<path d="M201.144 90.9115L200.041 94.5673L219.879 100.553L220.982 96.8973L201.144 90.9115Z" fill="white"/>
<path d="M199.251 97.1707L198.148 100.827L212.766 105.237L213.869 101.581L199.251 97.1707Z" fill="white"/>
<path d="M219.898 83.4707L225.839 86.5573L231.384 86.9355L223.362 71.9844L220.135 76.9498L219.898 83.4707Z" fill="#1967D2"/>
<path d="M203.031 84.6441L201.927 88.2999L221.766 94.2856L222.869 90.6298L203.031 84.6441Z" fill="white"/>
<path d="M219.898 83.4707L223.362 71.9844L204.568 66.3175C202.836 65.7929 201.012 66.775 200.493 68.5074L188.525 108.176C188.001 109.908 188.983 111.732 190.715 112.251L217.86 120.443C219.593 120.967 221.416 119.985 221.935 118.253L231.384 86.9355L219.898 83.4707ZM212.395 104.558L198.822 100.465L199.609 97.8545L213.181 101.948L212.395 104.558ZM219.507 99.8675L200.713 94.2006L201.5 91.5898L220.294 97.2567L219.507 99.8675ZM221.398 93.6028L202.604 87.9359L203.391 85.3251L222.185 90.992L221.398 93.6028Z" fill="#4285F4"/>
<defs>
<linearGradient id="paint0_linear_6_610" x1="248.928" y1="63.0307" x2="297.708" y2="51.2345" gradientUnits="userSpaceOnUse">
<stop stop-color="#D93025"/>
<stop offset="1" stop-color="#EA4335"/>
</linearGradient>
<linearGradient id="paint1_linear_6_610" x1="277.568" y1="67.748" x2="230.527" y2="30.5607" gradientUnits="userSpaceOnUse">
<stop stop-color="#1E8E3E"/>
<stop offset="1" stop-color="#34A853"/>
</linearGradient>
<linearGradient id="paint2_linear_6_610" x1="254.314" y1="39.969" x2="246.305" y2="88.9253" gradientUnits="userSpaceOnUse">
<stop stop-color="#FBBC04"/>
<stop offset="1" stop-color="#FCC934"/>
</linearGradient>
</defs>
</svg>
