<svg width="200" height="200" viewBox="0 0 200 200" fill="none" xmlns="http://www.w3.org/2000/svg"><g clip-path="url(#a)"><path fill="#fff" d="M0 0h200v200H0z"/><path d="M92.5 120.338c.421 8.654 0 10.342.428 16.216m-25.765-12.925c2.557-17.724 2.608-21.699 5.65-39.29-7.063-1.693-17.455-3.879-26.052-6.436-3.247 13.237-6.322 23.413-8.412 36.874-.946 6.072-1.77 12.214-1.323 18.344.448 6.13 2.263 12.304 6.11 17.091a23.742 23.742 0 0 0 21.86 8.399m45.029-75.594c-.696 1.917-1.156 3.911-2.243 6.807m14.906-6.277a51.406 51.406 0 0 0 2.377 5.229" stroke="#4285F4" stroke-width="1.917" stroke-linecap="round" stroke-linejoin="round"/><path d="m164.755 59.115 19.086-8.28a2.269 2.269 0 0 0 1.179-2.984l-8.279-19.087a2.27 2.27 0 0 0-2.985-1.178l-19.087 8.279a2.27 2.27 0 0 0-1.178 2.985l8.279 19.086a2.27 2.27 0 0 0 2.985 1.179z" stroke="#34A853" stroke-width="1.917" stroke-linecap="round" stroke-linejoin="round"/><path d="M162.514 71.41a9.146 9.146 0 0 0 9.146-9.147 9.147 9.147 0 1 0-9.146 9.146z" fill="#EA4335"/><path d="M116.999 85.075c6.255 0 11.326-5.07 11.326-11.326 0-6.255-5.071-11.326-11.326-11.326-6.255 0-11.326 5.07-11.326 11.326 0 6.255 5.071 11.326 11.326 11.326z" stroke="#4285F4" stroke-width="1.917" stroke-linecap="round" stroke-linejoin="round"/><path d="M112.902 58.582c-.173-1.42.377-3.03 1.655-3.676a3.53 3.53 0 0 1 3.196.199 9.706 9.706 0 0 1 2.493 2.16 79.866 79.866 0 0 1 5.663 7.248 33.717 33.717 0 0 1 2.333 4.033c.473 1.08-.863.569-1.592 1.215a2.555 2.555 0 0 1-1.572.6c-1.611.084-3.036-.978-4.295-1.981l-4.072-3.196c-2.55-2.02-3.413-3.247-3.809-6.602z" fill="#4285F4"/><path d="M119.377 70.418a19.591 19.591 0 0 0 9.268 5.683c0-1.234.3-2.614-.307-3.688-7.888-13.953-14.912-11.505-14.266-9.927a21.267 21.267 0 0 0 2.876 5.005 29.495 29.495 0 0 0 2.429 2.927z" fill="#4285F4"/><path d="M143.697 149.937v14.976a7.175 7.175 0 0 1-7.178 7.178h-123.5a7.178 7.178 0 0 1-7.178-7.178v-26.327a7.171 7.171 0 0 1 7.178-7.152h113.248c3.368 0 6.673 1.227 9.715 2.671a14.286 14.286 0 0 1 2.966 2.218c.9.778 1.687 1.677 2.339 2.672 1.815 3.106 1.95 7.376 2.41 10.942z" fill="#D2E3FC"/><path d="m175.041 77.226-1.661 15.493a.946.946 0 0 0 .379.856.943.943 0 0 0 .931.103l14.247-6.308a.929.929 0 0 0 .553-.756.927.927 0 0 0-.381-.855l-12.591-9.172a.93.93 0 0 0-1.297.194.929.929 0 0 0-.18.445z" fill="#FBBC05"/><path d="m93.644 138.196-10.777-1.624a1.927 1.927 0 0 0-1.427.352 1.923 1.923 0 0 0-.759 1.259l-3.643 24.09a1.916 1.916 0 0 0 1.617 2.186l16.478 2.487a1.917 1.917 0 0 0 2.192-1.611l2.774-18.383-3.956-3.835-2.5-4.921z" fill="#4285F4"/><path d="m82.976 157.333 10.137 1.534.192-1.279-10.144-1.527-.185 1.272zm-.384 2.556 7.606 1.144.192-1.278-7.606-1.15-.192 1.284zm1.336-8.878-.192 1.279 10.144 1.527.192-1.278-10.144-1.528zm-.575 3.835 10.144 1.534.191-1.278-10.143-1.534-.192 1.278z" fill="#F1F1F1"/><path d="m93.644 138.196-.863 5.708a1.92 1.92 0 0 0 1.61 2.186l5.708.863-6.455-8.757z" fill="#A1C2FA"/><path d="M82.867 136.572a1.927 1.927 0 0 0-1.427.352 1.923 1.923 0 0 0-.759 1.259v.16a1.914 1.914 0 0 1 1.438-1.577c.245-.061.499-.072.748-.034l10.777 1.624v-.16l-10.777-1.624z" fill="#fff" fill-opacity=".2"/><path d="m95.158 166.792-16.477-2.493a1.902 1.902 0 0 1-1.263-.757 1.918 1.918 0 0 1-.354-1.429v.16a1.918 1.918 0 0 0 1.617 2.186l16.477 2.486a1.917 1.917 0 0 0 2.193-1.61v-.16a1.924 1.924 0 0 1-.76 1.265 1.92 1.92 0 0 1-1.433.352z" fill="#1A237E" fill-opacity=".2"/><path d="M94.391 146.089a1.913 1.913 0 0 1-1.577-1.437 1.918 1.918 0 0 1-.033-.749v.16a1.916 1.916 0 0 0 1.617 2.186l5.701.863v-.16l-5.708-.863z" fill="#1A237E" fill-opacity=".1"/><path d="m27.228 48.1-3.47 7.982 19.238 8.36 7.97-6.02-23.738-10.323z" fill="#4285F4"/><path d="m31.696 50.228 18.938 8.239.333-.039-19.111-8.309-.16.109z" fill="#fff" fill-opacity=".2"/><path d="m50.634 58.466-7.67 5.791-19.079-8.29-.153.115 19.264 8.36 7.97-6.02-.332.044z" fill="#1A237E" fill-opacity=".2"/><path d="M31.875 50.304v-.192l-8.118 5.97.18.077 7.938-5.855z" fill="#1A237E" fill-opacity=".05"/><path d="M39.456 33.711 22.735 46.143l1.023 9.94 18.99-14.011-3.292-8.36z" fill="#0F9D58"/><path d="m39.455 33.712-.115.492 1.087 9.383L23.885 55.77l-.978-9.55-.179-.076 1.023 9.939 16.842-12.42-1.138-9.951z" fill="#263238" fill-opacity=".1"/><path d="m22.914 46.22 16.56-12.317v-.192l-16.74 12.432.18.077z" fill="#fff" fill-opacity=".2"/><path d="m48.666 37.719-9.21-4.008 2.39 20.748 9.12 3.969-2.3-20.709z" fill="#FFCD40"/><path d="m48.666 37.719-9.21-4.008.197.269 8.86 3.835 2.275 20.517.179.077-2.301-20.69z" fill="#fff" fill-opacity=".2"/><path d="M41.999 54.344 39.653 33.98l-.198-.269 2.39 20.748.154-.115z" fill="#BF360C" fill-opacity=".1"/><path d="m48.666 37.719-9.21-4.008 2.39 20.748 9.12 3.969-2.3-20.709z" fill="#FFCD40"/><path d="m31.855 50.112 8.744-6.449 1.247 10.796-9.99-4.347z" fill="url(#b)"/><path d="m110.863 147.681 21.022-.473.345 15.308-21.022.473-.345-15.308z" fill="#E1E1E1"/><path d="m121.543 155.102-10.335 7.887 21.022-.473-.326-15.308-10.361 7.894z" fill="#EEE"/><path d="m107.712 145.125 3.087-.071.409 17.935-3.094.071-.402-17.935z" fill="#D23F31"/><path d="m131.828 144.581 3.093-.07.403 17.935-3.094.07-.402-17.935z" fill="#C53929"/><path d="m133.023 142.696-11.569 8.309-11.921-7.779-1.853.045.044 1.853a1.845 1.845 0 0 0 .838 1.509l12.994 8.469 12.604-9.044a1.864 1.864 0 0 0 .774-1.547l-.045-1.854-1.866.039z" fill="#DB4437"/><path d="m133.023 142.696-.224.159h.224a1.873 1.873 0 0 1 1.756 1.105c.1.224.154.465.161.711v-.154a1.857 1.857 0 0 0-.16-.712 1.852 1.852 0 0 0-1.038-.987 1.877 1.877 0 0 0-.719-.122zm-23.503.53.231.147h-.218a1.872 1.872 0 0 0-1.693 1.199 1.874 1.874 0 0 0-.122.719v-.154a1.867 1.867 0 0 1 .511-1.332 1.84 1.84 0 0 1 1.304-.579h-.013z" fill="#fff" fill-opacity=".2"/><path d="m109.533 143.226 11.933 7.773 11.569-8.31-23.502.537z" fill="#F1F1F1"/><path d="m109.533 143.226.23.147 23.049-.517.223-.16-23.502.53z" fill="#262626" fill-opacity=".02"/><path d="m48.85 160.829 21.33-6.136 1.368 4.742-21.336 6.136-1.361-4.742z" fill="#34A853"/><path d="m68.135 147.579-13.736-7.594-2.467 4.238 12.016 6.647 2.857 9.927 4.743-1.362-1.483-5.151-1.93-6.705z" fill="#3E82F7"/><path d="m46.806 153.721 4.736-1.367 3.413 11.856-4.743 1.361-3.406-11.85z" fill="#FDBD00"/><path d="m54.399 139.985-7.593 13.736 1.917 6.667 10.022-18.127-4.346-2.276z" fill="#EB4335"/><path opacity=".2" d="m67.745 147.375-12.266-6.788a1.233 1.233 0 0 0-1.675.479l-6.775 12.272a1.177 1.177 0 0 0-.096.825l.039.147a1.183 1.183 0 0 1 .102-.825l6.775-12.272c.164-.28.426-.49.735-.588a1.28 1.28 0 0 1 .94.109l12.265 6.8c.245.144.428.371.518.64l-.038-.147a1.16 1.16 0 0 0-.524-.652z" fill="#fff"/><path opacity=".2" d="M51.37 165.079a1.234 1.234 0 0 1-1.528-.843l.044.153a1.237 1.237 0 0 0 1.528.844l3.554-1.023-.045-.153-3.554 1.022z" fill="#BF360C"/><path opacity=".2" d="m70.32 159.627-3.553 1.023.038.147 3.554-1.023a1.241 1.241 0 0 0 .85-1.527l-.045-.147a1.24 1.24 0 0 1-.844 1.527z" fill="#1A237E"/><path opacity=".2" d="m60.835 162.356-5.925 1.701.045.153 11.85-3.413-.038-.147-5.932 1.706z" fill="#263238"/><path opacity=".2" d="m59.519 157.761-5.925 1.706.038.147 11.85-3.413-.038-.147-5.925 1.707z" fill="#fff"/><path d="m67.745 147.375-12.266-6.788a1.233 1.233 0 0 0-1.675.479l-6.775 12.272a1.177 1.177 0 0 0-.096.825l2.94 10.226a1.233 1.233 0 0 0 1.528.844l18.958-5.459a1.237 1.237 0 0 0 .85-1.527l-2.947-10.227a1.123 1.123 0 0 0-.517-.645zm-2.314 8.679-11.85 3.414-1.496-5.184 4.218-7.632 7.632 4.219 1.496 5.183z" fill="url(#c)"/><path opacity=".2" d="m56.393 146.518-.077.134 7.632 4.219-.057-.211-7.498-4.142z" fill="#1A237E"/><path opacity=".2" d="m52.04 154.073.058.211 4.218-7.632.077-.134-.134-.077-4.219 7.632z" fill="#3E2723"/><path d="M107.782 89.824c-5.414 0-14.004 1.22-18.108 3.004-9.964 4.333-16.471 12.176-21.2 22.102m72.813 24.065c3.548 7.843 5.9 15.206 9.965 22.812 3.311 6.2 10.175 11 17.257 10.923 8.949-.096 14.893-7.516 16.401-15.602 1.7-9.121-1.208-18.651-4.896-26.922a103.133 103.133 0 0 0-6.628-12.406 114.39 114.39 0 0 0-1.233-1.917c-7.447-11.505-17.52-22.294-31.428-25.356a79.544 79.544 0 0 0-15.685-1.72" stroke="#4285F4" stroke-width="1.917" stroke-linecap="round" stroke-linejoin="round"/><path d="M141.306 138.886c4.193-2.205 17.814-13.045 17.814-13.045s5.062 5.848 6.232 6.973c14.317 13.838 14.317 22.697 14.317 22.697m-46.122-28.13a26.216 26.216 0 0 0-12.611-.639 11.934 11.934 0 0 0-3.266 1.061c-.978.518-1.918 1.458-1.777 2.557a2.313 2.313 0 0 0 1.917 1.777c.928.122 1.87.074 2.781-.141a25.866 25.866 0 0 1 11.626.48c3.746 1.131 7.204 3.509 9.16 6.896" stroke="#4285F4" stroke-width="1.917" stroke-linecap="round" stroke-linejoin="round"/><path d="M116.564 128.493a2.159 2.159 0 0 1-1.348-2.352 3.409 3.409 0 0 1 1.764-2.128 13.631 13.631 0 0 1 4.57-1.566c4.71-.889 7.951-.742 13.32.601m1.112-4.717c-3.835-1.061-5.657-1.413-10.674-1.234a18.622 18.622 0 0 0-7.383 1.86 4.513 4.513 0 0 0-2.23 2.026c-.409.934-.134 2.231.805 2.646" stroke="#4285F4" stroke-width="1.917" stroke-linecap="round" stroke-linejoin="round"/><path d="M116.826 119.033c-1.054-.242-1.463-1.661-1.01-2.639a4.48 4.48 0 0 1 2.474-1.982 20.673 20.673 0 0 1 5.944-1.329c9.287-.869 19.757 1.917 27.337 8.309a30.003 30.003 0 0 1 5.676 5.906M54.475 79.782a64.165 64.165 0 0 1-4.122-16.848c-.147-1.278.172-3.464 1.879-3.196 2.979.454 2.256 4.628 4.372 6.22a2.2 2.2 0 0 0 1.7.447c1.119-.224 1.707-1.074 2.237-2.001a10.954 10.954 0 0 0 1.208-3.656c.2-.884.096-1.81-.294-2.627a3.042 3.042 0 0 0-2.09-1.246c-2.09-.371-5.4 1.278-6.526-.544-.914-1.495 1.752-3.196 2.915-3.617a12.01 12.01 0 0 1 4.346-.767c1.758 0 4.078.262 5.35 1.623a4.576 4.576 0 0 1 1.208 2.563c.287 2.62 0 5.27-.844 7.766 1.509-4.084 1.669-9.332-1.278-12.924-.773-.933-1.585-2.192-1.042-3.272a2 2 0 0 1 2.493-.742 4.8 4.8 0 0 1 2.045 1.918c2.953 4.474 3.388 9.983 2.167 15.5" stroke="#4285F4" stroke-width="1.917" stroke-linecap="round" stroke-linejoin="round"/><path d="M67.662 47.716a1.657 1.657 0 0 1 1.393-.978 2.876 2.876 0 0 1 1.713.44c1.918 1.113 2.736 3.408 3.1 5.574a30.335 30.335 0 0 1-.447 11.965" stroke="#4285F4" stroke-width="1.917" stroke-linecap="round" stroke-linejoin="round"/><path d="M72.385 48.719a1.534 1.534 0 0 1 2.096-1.457c.73.331 1.305.93 1.605 1.674 1.355 2.474 1.738 7.881 1.157 11.627-1.509 9.754-2.557 14.336-4.43 23.777" stroke="#4285F4" stroke-width="1.917" stroke-linecap="round" stroke-linejoin="round"/><mask id="d" maskUnits="userSpaceOnUse" x="153" y="53" width="19" height="19"><path d="M162.514 71.41a9.146 9.146 0 0 0 9.146-9.147 9.147 9.147 0 1 0-9.146 9.146z" fill="#EA4335"/></mask><g mask="url(#d)"><path d="m164.755 59.114 19.086-8.28a2.269 2.269 0 0 0 1.179-2.984l-8.279-19.087a2.27 2.27 0 0 0-2.985-1.178l-19.087 8.28a2.269 2.269 0 0 0-1.178 2.984l8.279 19.086a2.27 2.27 0 0 0 2.985 1.179z" stroke="#fff" stroke-width="1.917" stroke-linecap="round" stroke-linejoin="round"/></g><path d="m29.555 138.362-15.078 11.211.926 8.955" stroke="#fff" stroke-width="1.917" stroke-miterlimit="10"/><path d="m36.598 141.424-5.753-2.512a2.384 2.384 0 0 0-2.37.275l-12.887 9.587a2.39 2.39 0 0 0-.945 2.154l.639 6.232a2.396 2.396 0 0 0 1.419 1.918l14.796 6.436c.387.17.812.233 1.23.183.42-.049.818-.209 1.155-.464l4.998-3.778a2.353 2.353 0 0 0 .927-2.16l-1.77-15.979a2.378 2.378 0 0 0-1.44-1.892z" stroke="#fff" stroke-width="1.917" stroke-miterlimit="10"/><path d="M110.224 72.617c0 1.132 1.016 2.442 2.083 3.01a5.112 5.112 0 0 0 3.65.397" stroke="#4285F4" stroke-width="1.917" stroke-linecap="round" stroke-linejoin="round"/><path d="M107.194 61.995c-.352-1.15-.639-2.96-.153-4.065a2.816 2.816 0 0 1 1.367-1.407 3.985 3.985 0 0 1 3.791.256 5.305 5.305 0 0 1 1.444 1.918l2.199 4.026a19.176 19.176 0 0 0-4.302 1.72c-.888.447-2.684 1.463-2.684 1.463a23.937 23.937 0 0 1-1.662-3.911z" fill="#4285F4"/><path d="M107.36 89.798c1.17 2.122 3.567 3.292 5.944 3.765 2.312.552 4.736.391 6.954-.46 2.429-1.068 3.279-2.11 4.807-4.328" stroke="#4285F4" stroke-width="1.917" stroke-linecap="round" stroke-linejoin="round"/></g><defs><radialGradient id="b" cx="0" cy="0" r="1" gradientUnits="userSpaceOnUse" gradientTransform="rotate(23.499 -106.503 111.528) scale(10.8877)"><stop stop-color="#fff" stop-opacity=".1"/><stop offset="1" stop-color="#fff" stop-opacity="0"/></radialGradient><radialGradient id="c" cx="0" cy="0" r="1" gradientUnits="userSpaceOnUse" gradientTransform="rotate(-39.07 7654.308 -10860.558) scale(1636.07 1669.09)"><stop stop-color="#fff" stop-opacity=".1"/><stop offset="1" stop-color="#fff" stop-opacity="0"/></radialGradient><clipPath id="a"><path fill="#fff" d="M0 0h200v200H0z"/></clipPath></defs></svg>