<svg width="600" height="296" viewBox="0 0 600 296" fill="none" xmlns="http://www.w3.org/2000/svg"><g clip-path="url(#a)"><path fill="#fff" d="M0 0h600v296H0z"/><g clip-path="url(#b)"><path fill="#fff" d="M61-34.095h478v364.19H61z"/><path d="M141.079 225.049h387.65" stroke="#D2E3FC" stroke-width="2.845" stroke-linecap="round" stroke-linejoin="round"/><path d="m342.323 105.144-28.719 8.535-3.468-4.712-3.823-6.491-2.312-14.493-2.845-8.18-7.469-10.936 2.49-2.845 11.292 14.404-10.581-14.938 3.645-3.112 11.826 13.693 8.98-.623 11.559 8.092 9.425 21.606z" fill="#D2E3FC"/><path d="M296.856 65.759a2.847 2.847 0 0 0-2.92 1.91 2.842 2.842 0 0 0-.138 1.234 8.235 8.235 0 0 0 2.347 3.912 35.675 35.675 0 0 1 7.824 16.403c.882 4.723 1.423 10.527 3.116 14.937a21.679 21.679 0 0 0 6.957 9.048" fill="#D2E3FC"/><path d="M296.856 65.759a2.847 2.847 0 0 0-2.92 1.91 2.842 2.842 0 0 0-.138 1.234 8.235 8.235 0 0 0 2.347 3.912 35.675 35.675 0 0 1 7.824 16.403c.882 4.723 1.423 10.527 3.116 14.937a21.679 21.679 0 0 0 6.957 9.048" stroke="#4285F4" stroke-width="2.845" stroke-linecap="round" stroke-linejoin="round"/><path d="M341.996 105.62a154.245 154.245 0 0 1-.228-29.107 11.466 11.466 0 0 0-.298-4.922 3.715 3.715 0 0 0-3.785-2.59c-1.721.3-2.688 2.106-3.257 3.742a27.811 27.811 0 0 0-1.423 10.3 22.68 22.68 0 0 0-7.597 13.316" fill="#D2E3FC"/><path d="M341.996 105.62a154.245 154.245 0 0 1-.228-29.107 11.466 11.466 0 0 0-.298-4.922 3.715 3.715 0 0 0-3.785-2.59c-1.721.3-2.688 2.106-3.257 3.742a27.811 27.811 0 0 0-1.423 10.3 22.68 22.68 0 0 0-7.597 13.316" stroke="#4285F4" stroke-width="2.845" stroke-linecap="round" stroke-linejoin="round"/><path d="M300.512 62.145a2.63 2.63 0 0 0-4.268.896 3.83 3.83 0 0 0 .84 3.002c3.542 5.392 9.119 9.574 11.096 15.649" fill="#D2E3FC"/><path d="M300.512 62.145a2.63 2.63 0 0 0-4.268.896 3.83 3.83 0 0 0 .84 3.002c3.542 5.392 9.119 9.574 11.096 15.649" stroke="#4285F4" stroke-width="2.845" stroke-linecap="round" stroke-linejoin="round"/><path d="M332.223 83.186c-2.561-8.053-5.349-15.65-10.457-22.165-1.522-1.963-3.314-4.069-5.761-4.823a3.161 3.161 0 0 0-4.078 2.224 3.15 3.15 0 0 0 .052 1.717 11.573 11.573 0 0 0 2.319 4.168 39.647 39.647 0 0 1 6.956 13.757" fill="#D2E3FC"/><path d="M332.223 83.186c-2.561-8.053-5.349-15.65-10.457-22.165-1.522-1.963-3.314-4.069-5.761-4.823a3.161 3.161 0 0 0-4.078 2.224 3.15 3.15 0 0 0 .052 1.717 11.573 11.573 0 0 0 2.319 4.168 39.647 39.647 0 0 1 6.956 13.757" stroke="#4285F4" stroke-width="2.845" stroke-linecap="round" stroke-linejoin="round"/><path d="M321.069 78.107a73.051 73.051 0 0 0-12.803-17.072c-1.708-1.707-3.856-3.428-6.232-3.087a2.38 2.38 0 0 0-1.971 1.251 2.377 2.377 0 0 0 .051 2.334 8.77 8.77 0 0 0 1.636 2.22c4.268 4.808 9.403 9.958 11.964 15.947" fill="#D2E3FC"/><path d="M321.069 78.107a73.028 73.028 0 0 0-12.804-17.072c-1.707-1.707-3.855-3.428-6.231-3.087a2.38 2.38 0 0 0-1.971 1.251 2.377 2.377 0 0 0 .051 2.334 8.77 8.77 0 0 0 1.636 2.22c4.268 4.808 9.403 9.958 11.964 15.947m143.144 77.035 5.022 29.32" stroke="#4285F4" stroke-width="2.845" stroke-linecap="round" stroke-linejoin="round"/><path d="M436.749 197.303c-.889-1.067-5.142-2.668-7.158-3.335l-9.335 5.646-8.003 6.313-4.934 3.735c-.252 2.534-.898 8.037-1.467 9.78-.712 2.178-.623 4.179 1.467 5.113 1.671.746 3.541-.875 4.267-1.779l8.67-12.27c.311.163.986.543 1.2.756.267.267 2.623 5.379 4.09 7.558 1.467 2.178 6.135 4.49 7.913 5.334 1.423.676 7.706.786 10.67.756.326-.667.978-2.232.978-3.156 0-1.156.889-5.646.667-7.869-.178-1.778-1.971-6.876-2.845-9.203-1.69-2.015-5.291-6.313-6.18-7.379z" fill="#D2E3FC"/><path d="M406.184 160.235c-1.892 7.739 1.138 18.494 3.429 26.048a32.527 32.527 0 0 1 1.252 5.505m-46.036-7.156c-11.381-36.988-22.762-79.012-22.762-79.012l-36.988 10.03c-5.691 13.244-6.445 24.824-1.693 38.41 3.756 10.798 7.383 21.653 10.357 32.721 4.182 15.535 12.305 32.492 29.007 36.618 13.97 3.457 32.507-.569 43.745-9.546" stroke="#4285F4" stroke-width="2.845" stroke-linecap="round" stroke-linejoin="round"/><path d="M391.417 221.635a3.648 3.648 0 0 1-2.077 2.93 3.867 3.867 0 0 1-3.385-.626 4.568 4.568 0 0 1-.911-3.641 34.806 34.806 0 0 1 2.091-8.365 51.544 51.544 0 0 1 8.067-13.259c2.404-3.002 6.359-5.918 10.214-6.018.825 0 1.65.1 2.475 0 2.376-.228 4.482-2.02 6.857-1.849 1.636.128 3.073 1.166 4.695 1.422a23.034 23.034 0 0 0 4.837-.256c2.646-.099 3.841 1.195 6.516 2.262" fill="#D2E3FC"/><path d="M391.417 221.635a3.648 3.648 0 0 1-2.077 2.93 3.867 3.867 0 0 1-3.385-.626 4.568 4.568 0 0 1-.911-3.641 34.806 34.806 0 0 1 2.091-8.365 51.544 51.544 0 0 1 8.067-13.259c2.404-3.002 6.359-5.918 10.214-6.018.825 0 1.65.1 2.475 0 2.376-.228 4.482-2.02 6.857-1.849 1.636.128 3.073 1.166 4.695 1.422a23.034 23.034 0 0 0 4.837-.256c2.646-.099 3.841 1.195 6.516 2.262m13.97 30.117a28.93 28.93 0 0 0 .241-14.354 22.941 22.941 0 0 0-8.237-12.633 19.552 19.552 0 0 0-5.975-3.087c1.323-2.846 4.766-4.126 7.739-5.022a33.231 33.231 0 0 1 9.205-.982c8.678-.114 16.331-3.272 24.953-4.197a35.839 35.839 0 0 1 21.609 4.937" stroke="#4285F4" stroke-width="2.845" stroke-linecap="round" stroke-linejoin="round"/><path d="M213.22 99.446a1.541 1.541 0 0 1 .506 1.145 1.549 1.549 0 0 1-.506 1.145 19.485 19.485 0 0 1-13.376 4.806 19.49 19.49 0 0 1-14.393-31.992 1.556 1.556 0 0 1 1.131-.58 1.568 1.568 0 0 1 1.188.452l25.45 25.024z" fill="#FBBC05"/><path opacity=".56" d="M253.651 99.845a4.823 4.823 0 1 0 0-9.646 4.823 4.823 0 0 0 0 9.646z" fill="#E4E4E4"/><path d="M398.16 223.214a3.975 3.975 0 0 1-3.357 1.565 3.556 3.556 0 0 1-3.03-2.063 6.132 6.132 0 0 1 0-3.969 51.803 51.803 0 0 1 11.224-19.433" fill="#D2E3FC"/><path d="M398.16 223.214a3.975 3.975 0 0 1-3.357 1.565 3.556 3.556 0 0 1-3.03-2.063 6.132 6.132 0 0 1 0-3.969 51.803 51.803 0 0 1 11.224-19.433" stroke="#4285F4" stroke-width="2.845" stroke-linecap="round" stroke-linejoin="round"/><path d="M404.876 222.659a4.692 4.692 0 0 1-2.163 1.679 3.318 3.318 0 0 1-3.827-.598c-1.422-1.65-.711-5.263 0-7.113 1.722-4.595 10.03-15.947 11.637-17.327" fill="#D2E3FC"/><path d="M404.876 222.659a4.692 4.692 0 0 1-2.163 1.679 3.318 3.318 0 0 1-3.827-.598c-1.422-1.65-.711-5.263 0-7.113 1.722-4.595 10.03-15.947 11.637-17.327m9.204.526c-3.841 3.272-11.267 14.226-12.277 16.19a15.18 15.18 0 0 0-1.906 5.334c-.157 1.594.512 3.258 2.319 3.329a4.263 4.263 0 0 0 2.631-.853c1.878-1.423 9.205-12.804 10.073-14.226 1.693 3.727 2.532 6.288 5.192 9.446a16.007 16.007 0 0 0 9.347 5.107c1.892.356 8.251.085 15.151.114h37.201c9.959 0 18.494-6.601 22.236-15.649 4.438-10.527 1.792-22.549-2.476-32.72a110.22 110.22 0 0 0-11.139-19.817 67.334 67.334 0 0 0-30.259-24.74 81.992 81.992 0 0 0-20.471-4.524m-22.62.996a62.065 62.065 0 0 0-20.23 5.207 96.432 96.432 0 0 0-27.655 19.248 159.304 159.304 0 0 0-14.34 17.071" stroke="#4285F4" stroke-width="2.845" stroke-linecap="round" stroke-linejoin="round"/><path d="M75.226 165.882a10.842 10.842 0 0 1 11.723-9.83l25.265 2.191a10.789 10.789 0 0 1 9.378 7.523c.426 1.357.58 2.783.453 4.199v0a10.825 10.825 0 0 1-3.824 7.345 10.82 10.82 0 0 1-7.899 2.485l-25.28-2.176a10.828 10.828 0 0 1-9.816-11.737v0z" stroke="#E6E7EA" stroke-width="2.845" stroke-linecap="round" stroke-linejoin="round"/><path d="m95.584 203.183-9.29 5.364a2.001 2.001 0 0 0-1 1.735 2.008 2.008 0 0 0 1 1.736l9.29 5.363a2.004 2.004 0 0 0 3.016-1.736v-10.74a2.008 2.008 0 0 0-3.016-1.722z" fill="#EA4335"/><path d="M377.931 124.84v96.212a5.135 5.135 0 0 1-5.292 4.965H230.292a5.136 5.136 0 0 1-5.307-4.965V124.84a5.13 5.13 0 0 1 1.624-3.582 5.136 5.136 0 0 1 3.683-1.383h142.347a5.135 5.135 0 0 1 5.292 4.965z" fill="#D2E3FC"/><path d="M224.914 144.685v37.088a21.919 21.919 0 0 1-11.043 3.356 21.916 21.916 0 0 1-19.492-10.766 21.913 21.913 0 0 1 0-22.268 21.905 21.905 0 0 1 30.535-7.41z" fill="#4285F4"/><path d="M127.579 143.149c1.2.882 2.498 1.622 3.869 2.205l4.154 2.347a15.959 15.959 0 0 1 7.497 9.631l1.423 5.207.74 2.248a13.446 13.446 0 0 0 19.177 6.302 13.459 13.459 0 0 0 6.202-8.214 13.45 13.45 0 0 0-1.422-10.195 12.125 12.125 0 0 0-.954-1.422l-1.607-1.75-3.841-3.799a15.941 15.941 0 0 1-4.766-11.238v-4.766a18.633 18.633 0 0 0 0-4.453 19.222 19.222 0 0 0-19.784-16.801 19.22 19.22 0 0 0-10.66 34.698h-.028z" fill="#34A853"/><mask id="c" maskUnits="userSpaceOnUse" x="224" y="119" width="154" height="108"><path d="M377.931 124.84v96.212a5.135 5.135 0 0 1-5.292 4.965H230.292a5.136 5.136 0 0 1-5.307-4.965V124.84a5.13 5.13 0 0 1 1.624-3.582 5.136 5.136 0 0 1 3.683-1.383h142.347a5.135 5.135 0 0 1 5.292 4.965z" fill="#D2E3FC"/></mask><g mask="url(#c)" stroke="#fff" stroke-width="2.845" stroke-linecap="round" stroke-linejoin="round"><path d="M224.359 144.685a21.91 21.91 0 0 1 0 37.088m56.564.458-13.657-10.291a5.904 5.904 0 0 0-8.268 1.162l-10.291 13.657a5.904 5.904 0 0 0 1.162 8.268l13.657 10.291a5.904 5.904 0 0 0 8.268-1.162l10.291-13.657a5.904 5.904 0 0 0-1.162-8.268zm79.268-12.892a160.495 160.495 0 0 1 14.326-17.071 96.294 96.294 0 0 1 27.713-19.234 62.282 62.282 0 0 1 20.229-5.221"/><path d="M364.829 184.632c-11.381-36.988-22.762-79.012-22.762-79.012l-36.988 10.03c-5.691 13.244-6.445 24.824-1.693 38.41 3.756 10.798 7.383 21.653 10.357 32.721 4.182 15.535 12.305 32.492 29.007 36.618 13.97 3.457 32.507-.569 43.745-9.546"/></g><g clip-path="url(#d)"><path d="M428.152 118.095c-1.466 3.605-3.094 7.21-4.56 10.816 5.863 3.769 13.354 5.244 20.031 3.605 1.465-.328 2.931-.819 4.234-1.639.488-.327.977-.655 1.302-1.147.815-1.311 0-3.114-.651-4.425-1.14-2.458-2.117-5.08-2.443-7.702-2.931.819-6.025 1.803-9.119 2.13-3.094.328-6.189 0-8.794-1.638z" fill="#D2E3FC"/><path d="M435.646 121.7c10.521 0 19.05-8.583 19.05-19.171s-8.529-19.171-19.05-19.171-19.051 8.583-19.051 19.171 8.53 19.171 19.051 19.171z" fill="#D2E3FC" stroke="#4285F4" stroke-width="2.85" stroke-miterlimit="10" stroke-linecap="round" stroke-linejoin="round"/><path d="m435.471 95.67 18.876 3.869c-.349-3.87-2.447-8.09-5.243-10.905-2.796-2.814-6.467-4.573-10.487-5.1-2.097-.176-8.564 0-9.962 1.583-1.398 1.407 2.447 3.693 3.496 5.276.874 1.759 3.146 3.342 3.32 5.276z" fill="#4285F4" stroke="#4285F4" stroke-width="2.845" stroke-miterlimit="10" stroke-linecap="round" stroke-linejoin="round"/><path d="m423.267 128.092 3.42-7.703" stroke="#4285F4" stroke-width="2.845" stroke-miterlimit="10" stroke-linecap="round" stroke-linejoin="round"/><path d="M435.061 84.444c-2.622-4.397-5.068-8.09-9.088-11.784-5.069-4.397-12.234-6.507-16.254-2.286l-.175.352c-1.923 2.11-2.272 5.804-.874 9.321.699 1.759 1.748 3.342 2.622 4.925l5.418 9.146 27.09 4.924-8.739-14.598z" fill="#255FDB"/><path d="M423.267 128.091c.977 1.967 2.606 2.459 4.56 3.278 3.745 1.639 8.142 2.294 12.376 1.966 3.746-.327 8.469-2.13 11.237-4.916m-4.234-8.849 2.605 7.866" stroke="#4285F4" stroke-width="2.845" stroke-miterlimit="10" stroke-linecap="round" stroke-linejoin="round"/></g><path d="M427.456 107.916c.524 1.67 2.631 3.134 4.47 3.48a7.913 7.913 0 0 0 5.572-1.104" stroke="#4285F4" stroke-width="2.85" stroke-linecap="round" stroke-linejoin="round"/></g></g><defs><clipPath id="a"><path fill="#fff" d="M0 0h600v296H0z"/></clipPath><clipPath id="b"><path fill="#fff" transform="translate(61 -34.095)" d="M0 0h478v364.19H0z"/></clipPath><clipPath id="d"><path fill="#fff" transform="translate(402.428 64.065)" d="M0 0h54.059v75.399H0z"/></clipPath></defs></svg>