<svg width="286" height="286" viewBox="0 0 286 286" fill="none" xmlns="http://www.w3.org/2000/svg"><path fill="#fff" d="M0 0h286v286H0z"/><g clip-path="url(#a)"><path opacity=".56" d="M249.201 140.912H173.08v135.544h76.121V140.912z" fill="#E4E4E4"/><path d="M1.781 276.349H284.21" stroke="#D2E3FC" stroke-width="2.141" stroke-miterlimit="10" stroke-linecap="round" stroke-linejoin="round"/><path d="M87.218 119.178c.428 4.497-2.356 20.557-2.89 23.34-2.356 11.884-5.568 35.974-8.887 51.927-1.927 9.743-7.923 18.522-13.17 26.873-5.245 8.351-8.672 17.773-10.17 27.516m64.344-105.245c-1.178 25.16-5.139 51.07-13.276 75.052-5.567 16.274-16.594 47.43-17.13 48.929-.214.535-.428 1.178-.214 1.82.215.643.75 1.071 1.392 1.285.535.214 2.784 1.071 3.32 1.285 1.39.749 1.605 2.676 1.177 4.389H87.11s-5.781-.107-11.134-.107c-5.246 0-25.802-14.882-25.802-14.882l5.032-11.027m31.37 15.417L52.1 248.834m60.812-175.48a7.28 7.28 0 0 0 7.28-7.28 7.28 7.28 0 1 0-7.28 7.28zm-24.411 50.214 43.148.963m48.926 9.957c-4.818 1.178-9.957 1.392-14.882 1.392-4.175 0-8.565 0-12.74-.749-3.747-.643-7.173-2.784-9.85-5.461-2.998-3.104-4.818-6.959-6.745-10.813-1.606-2.998-3.105-5.889-4.711-8.887" stroke="#4285F4" stroke-width="2.141" stroke-miterlimit="10" stroke-linecap="round" stroke-linejoin="round"/><path d="m116.551 72.498 2.035 5.888s3.104.429 4.175.536c3.105.428 5.246 1.177 7.816 2.034 2.355.856 4.711 2.141 6.745 3.64 9.85 7.173 14.775 18.522 20.021 29.55m-25.696 10.385-.749-33.19m45.822 43.469 1.071-17.88" stroke="#4285F4" stroke-width="2.141" stroke-miterlimit="10" stroke-linecap="round" stroke-linejoin="round"/><path d="M178.755 140.912v-2.355h31.797l6.424-29.443h38.649l-6.316 31.798h-70.554z" fill="#FBBC05"/><path d="M187.962 131.598c3.533-1.285 7.923-2.998 10.706-3.855.643-.214 3.105 7.174 3.426 7.816.429.856 1.178 1.713 2.142 1.82 1.82.214 2.998-1.606 2.891-3.319-.108-1.713-.964-3.212-1.606-4.711-.429-1.178-1.071-2.355-1.821-3.426-1.07-1.606-3.104-2.355-5.032-2.355-1.927-.107-3.747.428-5.674.856" stroke="#4285F4" stroke-width="2.141" stroke-miterlimit="10" stroke-linecap="round" stroke-linejoin="round"/><path d="M181.645 117.465c4.283-1.285 8.565-2.355 13.062-2.784 3.854-.321 8.779-.428 11.67 2.677 1.606 1.713 2.463 4.068 3.105 6.317.214.642.321 1.285.321 1.82 0 .642-.321 1.285-.856 1.606" stroke="#4285F4" stroke-width="2.141" stroke-miterlimit="10" stroke-linecap="round" stroke-linejoin="round"/><path d="M193.743 119.071c1.82-.321 3.747-.428 5.568-.428 1.606 0 3.319.321 4.71 1.07.964.536 1.606 1.285 2.249 2.035a16.944 16.944 0 0 1 2.248 4.068c.321.964.535 1.927.428 2.891-.107.963-.749 1.927-1.713 2.355m-19.271.536c1.927.428.963.214 2.89.963 1.392.535 2.784 1.071 3.748 2.141.321.322.535.75.535 1.071 0 .643-.535 1.178-1.071 1.392-.535.214-1.177.214-1.82.214-4.497-.214-8.886-.428-11.563-2.891" stroke="#4285F4" stroke-width="2.141" stroke-miterlimit="10" stroke-linecap="round" stroke-linejoin="round"/><path d="M222.651 47.98a1.165 1.165 0 0 1 0 1.606c-5.353 4.604-13.49 4.39-18.63-.642-5.139-5.033-5.46-13.17-.963-18.523a1.078 1.078 0 0 1 1.606-.107l17.987 17.666z" fill="#EA4335"/><path d="M227.789 86.202a9.529 9.529 0 0 0 9.529-9.529 9.529 9.529 0 0 0-9.529-9.529 9.529 9.529 0 0 0-9.529 9.53 9.529 9.529 0 0 0 9.529 9.528z" fill="#34A853"/><path d="M193.743 75.71a4.71 4.71 0 1 0 0-9.422 4.71 4.71 0 0 0 0 9.422z" stroke="#F882FF" stroke-width="2.141" stroke-miterlimit="10" stroke-linecap="round" stroke-linejoin="round"/><path d="m209.16 92.519 5.889 8.993c.214.322.107.75-.214.964l-9.101 5.888c-.321.215-.749.108-.964-.214l-5.888-8.993c-.214-.321-.107-.75.214-.964l9.101-5.888c.321-.214.749-.107.963.214z" fill="#D2E3FC"/><path d="M252.199 9.972c15.845 13.276 17.237 14.347 29.871 24.946.963.75.642 2.355-.535 2.784l-36.295 12.42c-1.178.427-2.249-.536-2.142-1.82l6.424-37.367c.214-1.177 1.713-1.713 2.677-.963z" stroke="#E6E7EA" stroke-width="2.141" stroke-miterlimit="10" stroke-linecap="round" stroke-linejoin="round"/><path d="M95.462 92.198s-13.597 45.074-16.702 53.746c-2.677 7.388-5.46 14.882-10.064 21.199-4.603 6.317-11.776 12.741-18.95 11.777-1.713-.214-2.034-.963-2.248-2.141" stroke="#4285F4" stroke-width="2.141" stroke-miterlimit="10" stroke-linecap="round" stroke-linejoin="round"/><path d="M61.201 139.842c1.285-14.668.321-20.129 6.103-33.726 4.71-10.813 11.563-21.092 22.805-25.481.75-.322 1.82-.643 3.212-.964 2.355-.642 4.818-.964 7.28-1.07l6.103-.215M54.03 161.148c-1.286 2.355-8.887 8.565-12.1 8.993-2.14.321-2.89-1.606-1.498-3.212.963-1.071 2.248-1.606 3.319-2.462 3.319-2.356 5.674-5.14 7.602-8.352.642-1.177 1.07-2.355 1.82-3.426.749-1.07 1.713-2.141 2.997-2.462l5.14-10.492m-.107 28.479c-2.998 3.426-6.746 5.995-11.028 7.601-1.07.429-2.356.75-3.533.429-1.178-.322-2.142-1.499-1.928-2.677" stroke="#4285F4" stroke-width="2.141" stroke-miterlimit="10" stroke-linecap="round" stroke-linejoin="round"/><path d="M58.312 164.467c-2.355 2.997-7.923 6.423-11.242 7.708-1.07.428-2.248.857-3.319.428-1.07-.428-1.177-1.927-.856-2.676m65.948-97.537c-.75 1.928-1.392 3.855-2.034 5.782v-.214m-45.18 60.492 16.595 7.923" stroke="#4285F4" stroke-width="2.141" stroke-miterlimit="10" stroke-linecap="round" stroke-linejoin="round"/><path d="M120.406 59.115c.536-.643.857-1.5.429-2.249-.321-.535-.964-.856-1.499-.963a3.435 3.435 0 0 0-1.82.214c-2.035.428-3.855 1.285-5.675 2.248-.963.428-2.462 1.178-2.248 1.713.107.321.321.535.535.75.75.535 1.713.535 2.677.428.963-.107 1.927-.107 2.891-.214 1.713 0 3.426-.535 4.71-1.927z" fill="#4285F4" stroke="#4285F4" stroke-width="2.141" stroke-miterlimit="10" stroke-linecap="round" stroke-linejoin="round"/><path d="M113.019 62.54c-2.035.429-4.176.322-6.103-.428.428-.535.857-1.07 1.392-1.605l.856-.857a5.406 5.406 0 0 1 2.463-.964c.856-.214 1.713-.214 2.676-.214.857-.107 1.821-.107 2.677.107.428.107 2.463 1.285 1.606 1.928-1.071.642-2.355 1.07-3.426 1.498-.749.214-1.392.322-2.141.536z" fill="#4285F4"/><path d="M113.447 64.682c.857 1.07 1.713 2.248 2.57 3.319-1.071 0-2.142-.107-3.212-.107m18.842 56.637c9.743 43.147 25.375 133.403 26.552 141.326.429 2.891 2.463 4.39 3.641 4.818 1.177.428 2.355.856 3.104 1.82 1.071 1.285 1.285 2.677 1.285 3.854h-38.65l-1.713-11.134m31.477-.107h-33.832m0 0c-5.246-12.42-5.567-26.231-5.674-39.722 0-3.854 0-7.815-.536-11.67-.535-3.854-1.499-7.708-2.355-11.456-1.178-5.139-2.141-12.098-2.891-19.592m45.501-68.522 24.09 3.319m-20.129 147.428-1.606 3.855m4.283-.429-4.283.429m-71.195-2.784-.536 4.069m3.962-1.392-3.962 1.391m19.7-194.002s4.282.857 9.529 0" stroke="#4285F4" stroke-width="2.141" stroke-miterlimit="10" stroke-linecap="round" stroke-linejoin="round"/><path d="m59.38 143.589 17.131 8.244-2.355 5.781-16.81-8.458 2.035-5.567z" fill="#4285F4" stroke="#4285F4" stroke-width="2.141" stroke-miterlimit="10" stroke-linecap="round" stroke-linejoin="round"/><path d="M68.16 156.972a5.568 5.568 0 1 0 0-11.135 5.568 5.568 0 0 0 0 11.135z" fill="#fff" stroke="#4285F4" stroke-width="2.141" stroke-miterlimit="10" stroke-linecap="round" stroke-linejoin="round"/><path d="m70.622 150.548-2.462.857 2.462 1.499" stroke="#4285F4" stroke-width="2.141" stroke-miterlimit="10" stroke-linecap="round" stroke-linejoin="round"/></g><defs><clipPath id="a"><path fill="#fff" transform="translate(.71 8.58)" d="M0 0h284.57v268.84H0z"/></clipPath></defs></svg>