<svg fill="none" xmlns="http://www.w3.org/2000/svg" viewBox="0 0 600 296"><path fill="#fff" d="M0 0h600v296H0z"/><path d="M297.68 118.552v31.103m-3.424 33.815c-5.422.285-19.69 2.854-27.394 9.702-6.706 5.993-8.276 8.561-13.412 18.263" stroke="#4285F4" stroke-width="2.528" stroke-miterlimit="10" stroke-linecap="round" stroke-linejoin="round"/><path d="M325.645 227.843c-1.997.571-4.565.999-6.42 1.712-2.996 1.142-5.279 1.712-6.849 3.424 3.282.571 4.138 2.854 6.421 5.422 1.284 1.427.998 1.855 1.284 3.71.285 1.855.428 3.281-.856 4.708 1.712.856 3.281 5.565 3.281 7.562 0 1.998-1.284 3.852-2.996 4.708.714 1.285 1.427 2.569 2.283 3.853.143.285.285.571.571.713.142.143.428 0 .57 0 17.55-1.141 30.962-3.852 46.371-12.27.428-.285.999-.571.999-1.142 0-.428-.143-.713-.428-.998-6.136-8.276-12.984-15.838-20.403-22.829-2.283-2.14-3.139-2.711-6.136-1.712-2.568.856-3.709.856-6.42 1.284-5.422.571-6.135.286-11.272 1.855zM351.47 115.27c-.143.143-.286.428-.428.571-.143.142-.428.142-.571.142-3.139.286-6.135 0-9.274.571-.428.143-.856.285-1.142.571-.57.57-.142 1.569.143 2.283.428 1.141.714 2.282 1.284 3.281 1.998 4.566 6.849 7.277 11.557 8.704 6.278 1.997 13.127 2.282 19.262 0 6.135-2.283 11.271-7.562 12.555-13.983a66.663 66.663 0 0 0-12.983-2.14 33.444 33.444 0 0 1-2.854-8.275c.143.856-9.845 1.141-10.701 1.141-.57 0-1.855-.428-2.283-.143-.57.286-1.141 1.712-1.426 2.283-1.142 1.712-2.141 3.424-3.139 4.994z" fill="#8AB4F8"/><path d="M298.108 175.908c-1.141 2.711-2.425 5.565-3.566 8.275 4.565 2.854 10.272 3.995 15.551 2.711 1.142-.285 2.283-.713 3.282-1.284.428-.285.713-.428.999-.856.713-.999 0-2.425-.571-3.424-.999-1.855-1.569-3.852-1.855-5.85-2.283.713-4.708 1.427-6.991 1.57-2.283.285-4.851.142-6.849-1.142z" fill="#D2E3FC"/><path d="m274.281 84.451-4.138-13.269-15.409-1.712s-5.136 12.413-5.136 12.841" stroke="#4285F4" stroke-width="2.528" stroke-miterlimit="10" stroke-linecap="round" stroke-linejoin="round"/><path d="M263.58 74.036c8.59 0 15.552-6.963 15.552-15.552 0-8.59-6.962-15.552-15.552-15.552-8.589 0-15.551 6.963-15.551 15.552 0 8.59 6.962 15.552 15.551 15.552z" fill="#fff" stroke="#4285F4" stroke-width="2.528" stroke-miterlimit="10" stroke-linecap="round" stroke-linejoin="round"/><path d="M265.863 63.05c.856 1.427 2.426 2.425 4.138 2.425 1.712 0 3.424-.856 3.995-2.425" stroke="#4285F4" stroke-width="2.528" stroke-miterlimit="10" stroke-linecap="round" stroke-linejoin="round"/><path d="M274.709 48.782c-1.998-3.424-5.85-5.28-9.702-5.422-3.853-.142-7.277-.57-10.558 1.57-1.998 1.284-4.138 4.708-5.565 6.706-.713.998-1.284 2.14-1.712 3.424-.428 1.855.143 1.57 1.712 1.426 5.707-.427 11.414-1.712 16.836-3.71 3.139-1.14 6.135-2.425 8.989-3.994z" fill="#4285F4"/><path d="M259.87 45.786c-1.569.285-3.281 2.996-5.279 3.424.286 0-2.425-2.996-.713-4.28 1.712-1.285 3.852-1.998 5.707-2.711 2.283-.856 4.708-1.712 6.991-2.711 2.283-.856 4.566-1.998 6.849-2.854a12.744 12.744 0 0 1 2.853-.856c1.142-.285 2.426-.428 3.71-.142 1.141.285 2.283 1.141 2.711 2.425.428 1.57-.428 3.139-1.427 4.28 1.57-.428 3.139-.428 4.709-.285.856.143 1.854.428 2.425 1.142.571.713.571 1.712.428 2.71-.571 3.71-3.852 6.278-6.991 8.561-.143.143-1.712.856-1.998.856-.428 0-1.569-3.424-2.425-4.423-3.71-4.28-5.137-6.848-17.55-5.136z" fill="#4285F4"/><path d="M339.485 117.695s1.284 15.552 21.687 15.552c20.403 0 22.828-15.409 22.828-15.409" fill="#8AB4F8"/><path d="M339.485 117.695s1.284 15.552 21.687 15.552c20.403 0 22.828-15.409 22.828-15.409" stroke="#4285F4" stroke-width="2.528" stroke-miterlimit="10" stroke-linecap="round" stroke-linejoin="round"/><path d="M352.326 115.555s-46.085-4.851-55.787 52.506" stroke="#4285F4" stroke-width="2.412" stroke-miterlimit="10" stroke-linecap="round" stroke-linejoin="round"/><path d="m352.326 115.555 4.423-9.987" stroke="#4285F4" stroke-width="2.528" stroke-miterlimit="10" stroke-linecap="round" stroke-linejoin="round"/><path d="M362.028 108.707c7.486 0 13.554-6.069 13.554-13.555s-6.068-13.554-13.554-13.554c-7.486 0-13.554 6.068-13.554 13.554 0 7.486 6.068 13.555 13.554 13.555z" fill="#8AB4F8" stroke="#4285F4" stroke-width="2.611" stroke-miterlimit="10" stroke-linecap="round" stroke-linejoin="round"/><path d="M363.17 98.434c-.856 1.569-2.569 2.711-4.423 2.711-1.855 0-3.567-.999-4.281-2.711" stroke="#4285F4" stroke-width="2.528" stroke-miterlimit="10" stroke-linecap="round" stroke-linejoin="round"/><path d="M374.156 89.588h-24.969l3.424-3.282 6.706-4.708 5.137.143 5.849 3.852 3.853 3.995zm-11.7-13.555c1.997 1.998 2.568 6.136 4.994 7.277 2.568 1.141 5.992-1.284 8.703-1.284 2.711 0 5.993 2.568 8.561 1.57 2.568-1 3.139-5.137 5.279-6.992 1.997-1.997 6.135-2.568 7.276-4.994 1.142-2.568-1.284-5.992-1.284-8.703 0-2.71 2.569-5.992 1.57-8.56-.999-2.569-5.137-3.14-6.991-5.28-1.998-1.997-2.569-6.135-4.994-7.276-2.568-1.142-5.993 1.284-8.704 1.284-2.71 0-5.992-2.568-8.56-1.57-2.568 1-3.139 5.137-5.279 6.992-1.998 1.997-6.135 2.568-7.277 4.993-1.141 2.569 1.284 5.993 1.284 8.704 0 2.71-2.568 5.992-1.569 8.56.856 2.569 4.994 3.14 6.991 5.28z" fill="#4285F4"/><path d="M274.852 252.241c13.412 2.283 27.251 4.708 38.095 12.841 1.141.856 2.14 1.855 2.283 3.139.142 1.712-1.427 3.139-3.139 3.567-1.712.285-3.424-.143-4.994-.571-14.696-4.28-29.534-6.706-44.658-9.845-24.541-5.279-49.795-15.837-68.914-32.388-27.537-23.684-29.534-67.344-15.694-98.876 12.413-28.392 38.237-50.365 70.483-48.51 2.996 4.423 8.418 7.562 13.839 7.847 5.422.143 10.559-1.997 13.983-6.135 8.703.57 25.539 5.564 32.816 10.415 7.134 4.566 15.409 15.124 18.691 26.824" stroke="#4285F4" stroke-width="2.528" stroke-miterlimit="10" stroke-linecap="round" stroke-linejoin="round"/><path d="M304.957 178.762c7.643 0 13.84-6.197 13.84-13.84 0-7.644-6.197-13.84-13.84-13.84-7.644 0-13.84 6.196-13.84 13.84 0 7.643 6.196 13.84 13.84 13.84z" fill="#D2E3FC" stroke="#4285F4" stroke-width="2.528" stroke-miterlimit="10" stroke-linecap="round" stroke-linejoin="round"/><path d="M296.396 165.921a4.509 4.509 0 0 0 3.139 1.855c1.284.142 2.568-.429 3.424-1.427" stroke="#4285F4" stroke-width="2.528" stroke-miterlimit="10" stroke-linecap="round" stroke-linejoin="round"/><path d="m304.671 160.071 13.697 2.853c-.285-2.853-1.854-5.849-3.852-7.847-1.997-1.997-4.708-3.281-7.562-3.709-1.569-.143-6.135 0-7.276 1.141-.999.999 1.712 2.711 2.425 3.852.999 1.142 2.568 2.283 2.568 3.71z" fill="#4285F4" stroke="#4285F4" stroke-width="2.528" stroke-miterlimit="10" stroke-linecap="round" stroke-linejoin="round"/><path d="m294.256 183.613 2.711-5.85" stroke="#4285F4" stroke-width="2.528" stroke-miterlimit="10" stroke-linecap="round" stroke-linejoin="round"/><path d="M304.243 152.224c-1.997-3.139-3.567-5.85-6.563-8.418-3.567-3.139-8.846-4.709-11.699-1.713l-.143.143c-1.427 1.57-1.712 4.138-.714 6.706.571 1.284 1.285 2.425 1.998 3.567l3.995 6.563 19.69 3.567-6.564-10.415z" fill="#255FDB"/><path d="M294.256 183.613c.713 1.427 1.998 1.855 3.567 2.568 2.996 1.284 6.421 1.712 9.559 1.569 2.997-.285 6.564-1.712 8.704-3.709" fill="#D2E3FC"/><path d="M294.256 183.613c.713 1.427 1.998 1.855 3.567 2.568 2.996 1.284 6.421 1.712 9.559 1.569 2.997-.285 6.564-1.712 8.704-3.709m-3.282-6.991 2.14 6.135m-84.18-64.063c-6.563 24.113-10.558 39.807-16.693 63.064 4.851 2.996 14.553 10.843 24.398 17.835 7.134 5.136 17.835 13.697 26.823 20.403-3.424 11.414-9.131 27.394-12.698 38.808m60.353 5.85c1.855 1.284 6.706 1.712 7.704-.285.714-1.57.428-3.425-.428-4.851-.856-1.427-2.14-2.569-3.567-3.567-11.556-8.989-24.398-12.699-38.951-14.982m2.996-9.416c6.706 1.426 13.555 2.996 20.118 5.279 6.563 2.283 12.841 5.564 17.977 10.273 1.57 1.426 2.997 2.996 3.567 4.993.428 1.998-.428 4.566-2.425 5.137" stroke="#4285F4" stroke-width="2.528" stroke-miterlimit="10" stroke-linecap="round" stroke-linejoin="round"/><path d="M319.225 246.677c1.141-1.427 1.426-3.282.998-4.994-.428-1.712-1.426-3.282-2.568-4.566-4.423-4.851-10.986-6.706-17.121-8.418-8.846-2.425-17.835-4.851-26.966-6.563-2.426-.428-4.994-.856-7.42-1.284m54.503 43.945c33.244-3.139 60.353-14.696 80.328-37.382 10.13-11.557 16.693-25.967 19.547-41.091 5.422-28.393-.999-55.645-31.104-67.487-4.851-1.855-17.407-3.139-17.407-3.139l-2.853-7.847" stroke="#4285F4" stroke-width="2.528" stroke-miterlimit="10" stroke-linecap="round" stroke-linejoin="round"/><path d="M345.049 220.424c1.57 3.281 6.135 6.991 8.561 9.559 5.564 5.707 12.128 13.555 16.551 20.118m-25.112-29.677c2.569-2.854 39.808-26.824 38.951-65.347" stroke="#4285F4" stroke-width="2.528" stroke-miterlimit="10" stroke-linecap="round" stroke-linejoin="round"/><path d="M354.466 212.576c-5.707-11.985-10.13-18.976-19.261-23.399-4.851-2.283-11.985-4.708-19.404-5.564" fill="#fff"/><path d="M354.466 212.576c-5.707-11.985-10.13-18.976-19.261-23.399-4.851-2.283-11.985-4.708-19.404-5.564m30.247 39.807c-5.992 2.283-11.842 2.283-18.263 3.995-7.276 1.855-10.13 2.854-15.409 5.564m6.849 6.136c6.42-3.282 12.127-4.851 19.404-5.422m-19.404 12.983c5.992-2.996 14.695-5.279 20.831-6.135m-16.694 13.412a145.237 145.237 0 0 1 18.691-5.136" stroke="#4285F4" stroke-width="2.528" stroke-miterlimit="10" stroke-linecap="round" stroke-linejoin="round"/><path d="M223.345 147.087c.571 6.563 1.569 13.697 2.853 20.546l-5.421 19.119" stroke="#4285F4" stroke-width="2.554" stroke-miterlimit="10" stroke-linecap="round" stroke-linejoin="round"/><path d="M226.484 167.062h64.776" stroke="#4285F4" stroke-width="2.528" stroke-miterlimit="10" stroke-linecap="round" stroke-linejoin="round"/><path d="M132.459 57.057c5.136-5.136 13.554-4.994 18.548.286l21.544 21.972c5.137 5.136 4.994 13.555-.285 18.548-5.136 5.137-13.554 4.994-18.548-.285l-21.544-21.973a13.093 13.093 0 0 1 .285-18.548z" stroke="#34A853" stroke-width="2.854" stroke-miterlimit="10" stroke-linecap="round" stroke-linejoin="round"/><path d="m145.442 81.455-20.973 5.707c-2.283.571-2.996 3.425-1.284 4.994l15.409 15.409c1.712 1.57 4.423.856 4.994-1.426l5.564-20.974a3.03 3.03 0 0 0-3.71-3.71z" fill="#EA4335"/><path d="M472.033 99.147c.285 1.57.285 3.282.143 4.994-.999 10.416-10.416 17.977-20.689 16.979-10.273-.999-17.977-10.416-16.978-20.689.998-10.272 10.415-17.977 20.688-16.978 8.703.856 15.409 7.419 16.836 15.694z" fill="#4285F4"/><path d="M119.761 134.389c.285.571.428 1.284.57 1.855.571 4.137-2.283 7.847-6.278 8.418-4.137.57-7.847-2.283-8.418-6.278-.57-4.138 2.283-7.848 6.278-8.418 3.282-.571 6.563 1.427 7.848 4.423z" fill="#FFBA00"/><mask id="a" maskUnits="userSpaceOnUse" x="122" y="81" width="28" height="28"><path d="m145.442 81.455-20.973 5.707c-2.283.571-2.996 3.425-1.284 4.994l15.409 15.409c1.712 1.57 4.423.856 4.994-1.426l5.564-20.974a3.03 3.03 0 0 0-3.71-3.71z" fill="#EA4335"/></mask><g mask="url(#a)"><path d="M132.459 57.057c5.136-5.136 13.554-4.994 18.548.286l21.544 21.972c5.137 5.136 4.994 13.555-.285 18.548-5.136 5.137-13.554 4.994-18.548-.285l-21.544-21.973a13.093 13.093 0 0 1 .285-18.548z" stroke="#fff" stroke-width="2.854" stroke-miterlimit="10" stroke-linecap="round" stroke-linejoin="round"/></g><path d="M464.471 137.956c2.711 1.284 5.707 1.997 8.56 2.853 3.995 1.284 7.277 3.995 9.132 7.705.999 1.997 1.997 4.138 3.281 6.135 4.566 6.706 13.983 8.275 19.975 2.711 5.422-4.851 5.85-13.982.428-18.976-2.425-2.283-5.707-3.71-8.418-5.85-2.853-2.283-4.851-5.279-5.707-8.846-.713-2.996-.999-6.135-2.14-9.131-.999-2.854-2.711-5.422-4.994-7.562-6.848-6.136-17.264-6.421-24.398-.714-8.56 6.849-9.416 19.404-2.14 27.394 1.998 1.998 4.138 3.282 6.421 4.281z" stroke="#DADCE0" stroke-width="2.854" stroke-miterlimit="10" stroke-linecap="round" stroke-linejoin="round"/><mask id="b" maskUnits="userSpaceOnUse" x="434" y="83" width="39" height="39"><path d="M472.033 99.147c.285 1.57.285 3.282.143 4.994-.999 10.416-10.416 17.977-20.689 16.979-10.273-.999-17.977-10.416-16.978-20.689.998-10.272 10.415-17.977 20.688-16.978 8.703.856 15.409 7.419 16.836 15.694z" fill="#4285F4"/></mask><g mask="url(#b)"><path d="M464.471 137.956c2.711 1.284 5.707 1.997 8.56 2.853 3.995 1.284 7.277 3.995 9.132 7.705.999 1.997 1.997 4.138 3.281 6.135 4.566 6.706 13.983 8.275 19.975 2.711 5.422-4.851 5.85-13.982.428-18.976-2.425-2.283-5.707-3.71-8.418-5.85-2.853-2.283-4.851-5.279-5.707-8.846-.713-2.996-.999-6.135-2.14-9.131-.999-2.854-2.711-5.422-4.994-7.562-6.848-6.136-17.264-6.421-24.398-.714-8.56 6.849-9.416 19.404-2.14 27.394 1.998 1.998 4.138 3.282 6.421 4.281z" stroke="#FBBC05" stroke-width="2.854" stroke-miterlimit="10" stroke-linecap="round" stroke-linejoin="round"/></g><path d="m187.39 65.618-9.702-9.702c-1.141-1.142-1.141-3.14 0-4.28l9.702-9.703c1.142-1.141 3.139-1.141 4.281 0l9.702 9.703c1.141 1.14 1.141 3.138 0 4.28l-9.702 9.702c-1.142 1.141-3.139 1.141-4.281 0z" stroke="#fff" stroke-width="2.854" stroke-miterlimit="10" stroke-linecap="round" stroke-linejoin="round"/></svg>