<svg xmlns="http://www.w3.org/2000/svg" xmlns:xlink="http://www.w3.org/1999/xlink" width="528" height="528">
  <defs>
    <path id="a" d="M.001 0H456v456H.001z"/>
  </defs>
  <g fill="none" fill-rule="evenodd">
    <g transform="translate(36 36)">
      <mask id="b" fill="#fff">
        <use xlink:href="#a"/>
      </mask>
      <path fill="#DADCE0" d="M228 0C102.08 0 0 102.08 0 228S102.08 456 228 456c125.92 0 228-102.08 228-228S353.92 0 228 0m0 8c58.765 0 114.01 22.884 155.563 64.436C425.117 113.99 448 169.236 448 228c0 58.764-22.884 114.01-64.438 155.564C342.01 425.116 286.765 448 228 448c-58.766 0-114.012-22.884-155.564-64.436C30.883 342.01 8 286.764 8 228c0-58.764 22.882-114.01 64.436-155.564C113.989 30.884 169.235 8 228 8" mask="url(#b)"/>
    </g>
    <path fill="#D2E3FC" d="M343.24 216H186.76c-14.779 0-26.76 12.01-26.76 26.823v116.355C160 373.991 171.981 386 186.76 386h156.48c14.78 0 26.76-12.009 26.76-26.822V242.823C370 228.01 358.02 216 343.24 216m0 16.063c5.918 0 10.734 4.827 10.734 10.76v116.355c0 5.934-4.816 10.76-10.734 10.76H186.76c-5.918 0-10.734-4.826-10.734-10.76V242.823c0-5.933 4.816-10.76 10.734-10.76h156.48"/>
    <path stroke="#4285F4" stroke-width="8" d="M177.653 386h174.696c9.749 0 17.651-7.922 17.651-17.693V233.693c0-9.772-7.902-17.693-17.651-17.693H177.653c-9.749 0-17.653 7.92-17.653 17.693v134.614c0 9.77 7.904 17.693 17.653 17.693z"/>
    <path stroke="#34A853" stroke-width="8" d="M246 110c-17.63 7.41-30 24.759-30 44.98V182"/>
    <path stroke="#FBBC05" stroke-width="8" d="M306 128c-8.663-13.232-23.804-22-41.036-22A49.417 49.417 0 0 0 246 109.752"/>
    <path stroke="#EA4335" stroke-width="8" d="M314 188v-32.072c0-9.548-2.938-18.447-8-25.928"/>
    <path stroke="#4285F4" stroke-width="8" d="M314 214v-28"/>
    <path stroke="#34A853" stroke-width="8" d="M240 303.993L258.005 322 298 282"/>
    <path d="M0 0h528v528H0z"/>
  </g>
</svg>
