<svg width="520" height="320" viewBox="0 0 520 320" fill="none" xmlns="http://www.w3.org/2000/svg"><path fill="#fff" d="M0 0h520v320H0z"/><path fill="#fff" d="M3 33h515v254H3z"/><path d="m153.753 210.321-2.719-2.718a1.262 1.262 0 0 0-1.785 0l-2.719 2.718a1.263 1.263 0 0 0 0 1.784l2.719 2.718a1.262 1.262 0 0 0 1.785 0l2.719-2.718a1.26 1.26 0 0 0 0-1.784z" fill="#E6E6E6"/><path d="M114.824 135.724a20.12 20.12 0 0 0-2.447 3.896l-2.617 4.179a17.046 17.046 0 0 1-9.562 7.131c-5.476 1.767-11.339 1.965-14.944 7.079a14.03 14.03 0 0 0-1.262 13.841c.112.232.224.464.344.687a13.968 13.968 0 0 0 20.806 4.419c1.957-1.484 3.673-3.286 5.467-4.951a16.476 16.476 0 0 1 11.811-4.402l4.935.18a19.854 19.854 0 0 0 18.802-7.633 19.834 19.834 0 0 0 2.262-20.161 19.85 19.85 0 0 0-15.583-11.544 19.854 19.854 0 0 0-17.987 7.253l-.025.026z" stroke="#F882FF" stroke-width="3" stroke-linecap="round" stroke-linejoin="round"/><path d="M74.328 203.171c14.335 0 25.956-11.617 25.956-25.949 0-14.331-11.621-25.949-25.956-25.949-14.336 0-25.956 11.618-25.956 25.949 0 14.332 11.62 25.949 25.956 25.949z" fill="#E6E7EA"/><mask id="a" maskUnits="userSpaceOnUse" x="48" y="151" width="53" height="53"><path d="M74.328 203.171c14.335 0 25.956-11.617 25.956-25.949 0-14.331-11.621-25.949-25.956-25.949-14.336 0-25.956 11.618-25.956 25.949 0 14.332 11.62 25.949 25.956 25.949z" fill="#E6E7EA"/></mask><g mask="url(#a)"><path d="M114.824 135.724a20.12 20.12 0 0 0-2.447 3.896l-2.617 4.179a17.046 17.046 0 0 1-9.562 7.131c-5.476 1.767-11.339 1.965-14.944 7.079a14.03 14.03 0 0 0-1.262 13.841c.112.232.224.464.344.687a13.968 13.968 0 0 0 20.806 4.419c1.957-1.484 3.673-3.286 5.467-4.951a16.476 16.476 0 0 1 11.811-4.402l4.935.18a19.854 19.854 0 0 0 18.802-7.633 19.834 19.834 0 0 0 2.262-20.161 19.85 19.85 0 0 0-15.583-11.544 19.854 19.854 0 0 0-17.987 7.253l-.025.026z" stroke="#fff" stroke-width="3" stroke-linecap="round" stroke-linejoin="round"/></g><path d="M361.028 178.896a4.309 4.309 0 1 0 .001-8.617 4.309 4.309 0 0 0-.001 8.617z" fill="#34A853"/><path d="M105.425 101.623a6.694 6.694 0 1 0 0-13.386 6.694 6.694 0 1 0 0 13.386z" fill="#EA4335"/><path d="m431.669 208.32-10.378-.961a4.663 4.663 0 0 0-2.372.408 4.66 4.66 0 0 0-1.851 1.54l-6.008 8.495a4.656 4.656 0 0 0-.429 4.625l4.36 9.44a4.646 4.646 0 0 0 3.794 2.685l10.36.961a4.67 4.67 0 0 0 4.223-1.947l6.009-8.496a4.65 4.65 0 0 0 .429-4.633l-4.352-9.44a4.655 4.655 0 0 0-3.785-2.677v0z" stroke="#E6E6E6" stroke-width="3" stroke-linecap="round" stroke-linejoin="round"/><path d="M311.854 116.382H209.146c-7.585 0-13.733 6.147-13.733 13.73v102.681c0 7.583 6.148 13.73 13.733 13.73h102.708c7.585 0 13.733-6.147 13.733-13.73V130.112c0-7.583-6.148-13.73-13.733-13.73z" fill="#D2E3FC"/><path d="M264.74 203.163h-8.48a5.492 5.492 0 0 1-5.365-6.65l4.738-21.925h9.734l4.738 21.925c.172.8.164 1.629-.025 2.426a5.502 5.502 0 0 1-2.973 3.685 5.495 5.495 0 0 1-2.367.539z" fill="#4285F4"/><path d="M260.5 177.463c6.826 0 12.36-5.533 12.36-12.357 0-6.825-5.534-12.357-12.36-12.357s-12.36 5.532-12.36 12.357c0 6.824 5.534 12.357 12.36 12.357z" fill="#4285F4"/><path d="M229.239 116.382v-11.627a31.268 31.268 0 0 1 9.152-22.11 31.282 31.282 0 0 1 22.109-9.168v0a31.29 31.29 0 0 1 22.122 9.161 31.271 31.271 0 0 1 9.164 22.117" stroke="#2A84FC" stroke-width="3" stroke-linecap="round" stroke-linejoin="round"/><path d="M229.239 116.382V198.1a31.278 31.278 0 0 0 31.261 31.278v0a31.288 31.288 0 0 0 22.122-9.161 31.273 31.273 0 0 0 9.164-22.117v-81.718" stroke="#fff" stroke-width="3" stroke-linecap="round" stroke-linejoin="round"/><path d="M401.121 101.443a14.762 14.762 0 0 1 20.84-1.124l25.75 23.014a14.726 14.726 0 0 1 4.879 10.18 14.735 14.735 0 0 1-3.754 10.646v0a14.74 14.74 0 0 1-15.88 4.067 14.743 14.743 0 0 1-4.952-2.934l-25.75-23.014a14.763 14.763 0 0 1-4.884-10.183 14.76 14.76 0 0 1 .815-5.699 14.76 14.76 0 0 1 2.936-4.953v0z" stroke="#2A84FC" stroke-width="3" stroke-linecap="round" stroke-linejoin="round"/><path d="m420.15 126.911-28.248 9.731a1.815 1.815 0 0 0-1.118 2.305c.104.3.285.568.526.776l22.557 19.59a1.808 1.808 0 0 0 2.559-.176 1.81 1.81 0 0 0 .411-.845l5.691-29.321a1.816 1.816 0 0 0-.597-1.714 1.819 1.819 0 0 0-1.781-.346z" fill="#FFBA00"/><mask id="b" maskUnits="userSpaceOnUse" x="390" y="126" width="33" height="34"><path d="m420.15 126.911-28.248 9.731a1.815 1.815 0 0 0-1.118 2.305c.104.3.285.568.526.776l22.557 19.591a1.816 1.816 0 0 0 1.781.348 1.82 1.82 0 0 0 1.189-1.37l5.691-29.321a1.816 1.816 0 0 0-.597-1.714 1.819 1.819 0 0 0-1.781-.346z" fill="#FFBA00"/></mask><g mask="url(#b)"><path d="M401.121 101.443a14.762 14.762 0 0 1 20.84-1.124l25.75 23.014a14.726 14.726 0 0 1 4.879 10.18 14.735 14.735 0 0 1-3.754 10.646v0a14.74 14.74 0 0 1-15.88 4.067 14.743 14.743 0 0 1-4.952-2.934l-25.75-23.014a14.763 14.763 0 0 1-4.884-10.183 14.76 14.76 0 0 1 .815-5.699 14.76 14.76 0 0 1 2.936-4.953v0z" fill="#FFBA00" stroke="#fff" stroke-width="3" stroke-linecap="round" stroke-linejoin="round"/></g></svg>