<svg width="520" height="320" viewBox="0 0 520 320" fill="none" xmlns="http://www.w3.org/2000/svg"><g clip-path="url(#a)"><path fill="#fff" d="M0 0h520v320H0z"/><path d="M306.52 288.365a23.506 23.506 0 0 1 0 3.46 14.98 14.98 0 0 1-.605 4.776c-.828 2.123-3.619 2.335-4.85 4.129-.754 1.061-.542 3.046-.382 4.012l30.525-.096-.212-16.186m9.138-.095c.09 1.151.09 2.308 0 3.46a14.695 14.695 0 0 1-.595 4.776c-.828 2.123-3.619 2.335-4.85 4.129-.754 1.061-.542 3.046-.382 4.012l30.525-.096-.212-16.186" fill="#255FDB"/><path d="M313.544 145.705 250.491 16.141a8.183 8.183 0 0 0-10.939-3.777L109.988 75.416a8.183 8.183 0 0 0-3.777 10.94l63.052 129.564a8.184 8.184 0 0 0 10.939 3.777l129.565-63.053a8.184 8.184 0 0 0 3.777-10.939z" fill="#D2E3FC"/><path d="M316.147 119.935h.053c1.645-1.252 4.193 0 5.859 1.921a20.963 20.963 0 0 1 3.301 5.923c.573 1.337 1.454 3.354 2.027 4.68l-9.489-3.184-1.475-3.502a18.004 18.004 0 0 1-1.061-2.643 3.07 3.07 0 0 1 .785-3.195z" fill="#4285F4"/><path d="m275.942 175.265 10.625 34.738" stroke="#255FDB" stroke-width="2.123" stroke-linecap="round" stroke-linejoin="round"/><path d="M94.457 305.697h300.719" stroke="#D2E3FC" stroke-width="2.123" stroke-linecap="round" stroke-linejoin="round"/><path d="m322.154 146.374.287-4.967m10.242 4.15-1.412-4.925m-52.898 13.639a158.805 158.805 0 0 0 18.277-3.949c11.93-3.29 17.077-2.749 23.233-3.322l10.614-.976c2.25-.223 4.076-.329 6.368-.425a20.965 20.965 0 0 1 3.832.075 20.168 20.168 0 0 1 9.552 4.139c10.327 8.311 25.219 19.444 19.742 34.718-2.547 7.111-9.011 12.556-15.655 15.772" stroke="#4285F4" stroke-width="2.123" stroke-linecap="round" stroke-linejoin="round"/><path d="M315.287 169.565c-11.675 4.033-30.684 8.555-42.795 4.67-5.933-1.9-9.977-6.506-12.481-12.099a66.117 66.117 0 0 1-3.301-9.712c-1.561-5.615-3.736-11.166-4.543-16.982 0 0 8.491-1.762 15.868-4.108 2.122-.658 4.245-1.273 4.245-1.273s1.38 3.184 1.624 3.715c3.651 8.565 4.766 12.63 7.43 19.433m63.948 27.649-31.152 2.356c-1.369-.138-1.889-.827-2.292-2.122a17.183 17.183 0 0 1-.266-5.159 34.643 34.643 0 0 0-.403-4.638m34.112 9.563 1.454-25.017m-32.796 27.681c-10.19 33.879-11.601 69.478-12.259 104.843h29.039l.095-37.764a150.009 150.009 0 0 1 4.543-28.859l2.516-9.626a150.18 150.18 0 0 0 3.014-14.488" stroke="#4285F4" stroke-width="2.123" stroke-linecap="round" stroke-linejoin="round"/><path d="M344.91 180.858c11.219 13.565 13.798 43.463 15.093 51.795l4.012 55.712h-28.328l-3.832-48.494m-79.486-118.227a8.242 8.242 0 0 1-5.169-4.776 7.015 7.015 0 0 1 1.062-6.856 6.078 6.078 0 0 1 6.58-1.826c.576.217 1.13.487 1.656.807.563.371 1.422 1.061 1.666 1.231" stroke="#4285F4" stroke-width="2.123" stroke-linecap="round" stroke-linejoin="round"/><path d="M246.977 116.157a3.013 3.013 0 0 0-2.42 3.46 5.539 5.539 0 0 0 2.749 3.672 9.722 9.722 0 0 0 3.502 1.306m-5.752-2.675a4.464 4.464 0 0 0 1.146 4.553 9.317 9.317 0 0 0 4.32 2.314m-3.926-1.687a3.066 3.066 0 0 0 0 2.313 6.676 6.676 0 0 0 1.305 1.964 21.97 21.97 0 0 0 5.222 3.906" stroke="#4285F4" stroke-width="2.123" stroke-linecap="round" stroke-linejoin="round"/><path d="m240.725 52.793-36.288-9.011a2.932 2.932 0 0 0-3.54 2.138 2.918 2.918 0 0 0 .027 1.513l10.327 35.927a2.928 2.928 0 0 0 4.924 1.22l25.951-26.916a2.934 2.934 0 0 0 .703-2.84 2.932 2.932 0 0 0-2.104-2.031z" fill="#EA4335"/><path d="m250.469 92.064 8.321 25.611" stroke="#255FDB" stroke-width="2.123" stroke-linecap="round" stroke-linejoin="round"/><path d="m267.598 82.986-36.384 11.137a5.444 5.444 0 0 0-3.612 6.8l.003.011a5.445 5.445 0 0 0 6.8 3.612l36.384-11.137a5.445 5.445 0 0 0 3.612-6.8l-.003-.01a5.445 5.445 0 0 0-6.8-3.613z" fill="#255FDB" stroke="#255FDB" stroke-width="2.123" stroke-linecap="round" stroke-linejoin="round"/><path d="m269.943 88.402-17.75-14.694a2.515 2.515 0 0 0-3.541.334l-14.694 17.75a2.515 2.515 0 0 0 .333 3.541l17.75 14.694a2.515 2.515 0 0 0 3.541-.333l14.694-17.75a2.516 2.516 0 0 0-.333-3.542z" fill="#4285F4"/><path d="m173.774 69.764-29.389 5.647a4.743 4.743 0 0 0-3.598 3.13l-9.807 28.265a4.777 4.777 0 0 0 .902 4.681l19.582 22.628a4.769 4.769 0 0 0 4.5 1.56l29.379-5.646a4.758 4.758 0 0 0 3.609-3.121l9.796-28.264a4.744 4.744 0 0 0-.891-4.68l-19.583-22.64a4.778 4.778 0 0 0-4.5-1.56z" stroke="#34A853" stroke-width="2.123" stroke-miterlimit="10"/><path d="m319.989 147.489 4.681 34.622-3.407.169-4.363-34.791m25.123-1.943-.287 36.119-3.396.01.594-35.343" fill="#4285F4"/><path d="M326.166 142.001a8.8 8.8 0 1 0 0-17.598 8.8 8.8 0 0 0 0 17.598z" fill="#fff" stroke="#4285F4" stroke-width="2.123" stroke-miterlimit="10"/><path d="M334.509 136.004a8.796 8.796 0 0 0-4.976-11.001 8.795 8.795 0 0 0-11.273 4.325l16.249 6.676z" stroke="#4285F4" stroke-width="2.123" stroke-linecap="round" stroke-linejoin="round"/><path d="M326.76 133.553s1.677 1.188.987 2.122a4.595 4.595 0 0 0-.987 2.664v3.97s7.143-.499 7.896-5.986l-7.896-2.77zm7.25-4.437c-1.196-.154-2.41-.1-3.588.159a1.064 1.064 0 0 0-.706 1.643c.134.198.33.344.558.416l4.68 1.868-.944-4.086z" fill="#4285F4"/><path d="M221.324 157.094c11.835 0 21.429-9.594 21.429-21.429 0-11.835-9.594-21.429-21.429-21.429-11.835 0-21.429 9.594-21.429 21.429 0 11.835 9.594 21.429 21.429 21.429z" fill="#FBBC05"/><path d="M196.381 166.317a17.24 17.24 0 0 0-3.895-.965l-4.192-1.062a14.447 14.447 0 0 1-8.863-6.559l-2.515-4.182-1.2-1.772a10.284 10.284 0 0 0-1.061-1.147 12.153 12.153 0 0 0-16.887 17.481c.371.355.764.685 1.179.987l1.793 1.062 4.246 2.366a14.435 14.435 0 0 1 6.856 8.629l1.189 4.15a16.774 16.774 0 0 0 1.114 3.864 17.361 17.361 0 0 0 12.799 10.354 17.355 17.355 0 0 0 9.363-33.28l.074.074z" stroke="#fff" stroke-width="2.123" stroke-miterlimit="10"/><path d="M223.945 182.535a6.538 6.538 0 1 0 0-13.076 6.538 6.538 0 0 0 0 13.076z" fill="#F882FF"/><path d="m346.004 172.272 4.49 4.978-3.471 5.964m-20.358 7.101-6.23.467.488 6.602a6.264 6.264 0 0 0 3.057 4.925 6.268 6.268 0 0 0 7.1-.531v0a6.215 6.215 0 0 0 2.293-5.307l-.489-6.602-6.219.446z" stroke="#4285F4" stroke-width="2.123" stroke-linecap="round" stroke-linejoin="round"/><path d="M272.322 130.082a9.289 9.289 0 0 0-1.432-5.042 66.4 66.4 0 0 0-5.445-8.31c-1.699-2.271-3.291-4.967-5.997-6.146a3.101 3.101 0 0 0-2.324-.095 1.815 1.815 0 0 0-1.062 2.048 9.665 9.665 0 0 0 1.794 4.246 23.428 23.428 0 0 0 3.333 3.619 35.201 35.201 0 0 1-4.511-2.834 32.495 32.495 0 0 1-4.522-4.001" fill="#D2E3FC"/><path d="M272.322 130.082a9.289 9.289 0 0 0-1.432-5.042 66.4 66.4 0 0 0-5.445-8.31c-1.699-2.271-3.291-4.967-5.997-6.146a3.101 3.101 0 0 0-2.324-.095 1.815 1.815 0 0 0-1.062 2.048 9.665 9.665 0 0 0 1.794 4.246 23.428 23.428 0 0 0 3.333 3.619 35.201 35.201 0 0 1-4.511-2.834 32.495 32.495 0 0 1-4.522-4.001m-37.711 178.417c-2.632-2.038 2.972-13.692 12.535-26.067" stroke="#4285F4" stroke-width="2.123" stroke-linecap="round" stroke-linejoin="round"/><path d="m267.907 258.752-2.452 42.827a3.358 3.358 0 0 1-3.343 3.184h-30.494a3.356 3.356 0 0 1-3.343-3.184l-1.178-20.612-.987-17.332-.287-4.883h42.084z" fill="#4285F4"/><path d="M262.41 263.815a6.878 6.878 0 0 0-.191 5.233c.785 2.123 1.751 4.245.87 6.485a5.785 5.785 0 0 1-9.977 1.454c-1.655-2.123-1.061-4.575-.679-7.016a6.865 6.865 0 0 0-1.178-5.116l-1.178-1.634a8.43 8.43 0 0 1-2.049-4.437h16.367a8.295 8.295 0 0 1-.329 1.454 8.638 8.638 0 0 1-.796 1.741l-.86 1.836z" fill="#D2E3FC"/><path d="M243.496 263.454c-1.932 3.089-4.245 6.369-6.856 9.765a124.026 124.026 0 0 1-8.661 10.041c-6.368 6.516-11.675 10.146-13.533 8.724" stroke="#4285F4" stroke-width="2.123" stroke-linecap="round" stroke-linejoin="round"/><path d="M243.496 265.354a1.9 1.9 0 1 0-.001-3.8 1.9 1.9 0 0 0 .001 3.8z" stroke="#fff" stroke-width="2.123" stroke-linecap="round" stroke-linejoin="round"/><path d="M243.496 263.454c-1.932 3.089-4.245 6.369-6.856 9.765a124.026 124.026 0 0 1-8.661 10.041c-6.368 6.516-11.675 10.146-13.533 8.724" stroke="#FBBC05" stroke-width="2.123" stroke-linecap="round" stroke-linejoin="round"/></g><defs><clipPath id="a"><path fill="#fff" d="M0 0h520v320H0z"/></clipPath></defs></svg>