<svg version="1.1" id="Layer_1" xmlns="http://www.w3.org/2000/svg" xmlns:xlink="http://www.w3.org/1999/xlink" x="0" y="0" viewBox="0 0 395.8 395.8" style="enable-background:new 0 0 395.8 395.8" xml:space="preserve"><style>.st0{fill:#D2E3FC}.st1{fill:#4285F4}.st3{clip-path:url(#SVGID_00000088135090986589388030000007297461497293561480_);fill:none;stroke:#FFFFFF;stroke-width:5;stroke-linejoin:round;stroke-miterlimit:10}.st5{fill:#FBBC04}.st7{fill:#34A853}</style><path class="st0" d="M256.2 317.9H172c-17 0-30.9-13.8-30.9-30.9v-84.2c0-17 13.8-30.9 30.9-30.9h84.2c17 0 30.9 13.8 30.9 30.9V287c0 17.1-13.8 30.9-30.9 30.9z"/><path class="st1" d="M218.9 269.3h-9.5c-3.9 0-6.8-3.6-6-7.5l5.3-24.6h10.9l5.3 24.6c.9 3.9-2.1 7.5-6 7.5z"/><circle class="st1" cx="214.2" cy="226.7" r="13.8"/><path d="M179.1 172v-13c0-19.4 15.7-35.1 35.1-35.1h0c19.4 0 35.1 15.7 35.1 35.1v13" style="fill:none;stroke:#4285F4;stroke-width:5;stroke-linecap:round;stroke-linejoin:round;stroke-miterlimit:10"/><defs><path id="SVGID_1_" d="M256.2 317.9H172c-17 0-30.9-13.8-30.9-30.9v-84.2c0-17 13.8-30.9 30.9-30.9h84.2c17 0 30.9 13.8 30.9 30.9V287c0 17.1-13.8 30.9-30.9 30.9z"/></defs><clipPath id="SVGID_00000139985632829699200340000014467491980804772999_"><use xlink:href="#SVGID_1_" style="overflow:visible"/></clipPath><path style="clip-path:url(#SVGID_00000139985632829699200340000014467491980804772999_);fill:none;stroke:#FFFFFF;stroke-width:5;stroke-linejoin:round;stroke-miterlimit:10" d="M179.1 172v91.6c0 19.4 15.7 35.1 35.1 35.1 19.4 0 35.1-15.7 35.1-35.1V172"/><path d="M155.2 317.2H76.8c-7.3 0-13.3-5.9-13.3-13.3h0c0-7.3 5.9-13.3 13.3-13.3h78.4c7.3 0 13.3 5.9 13.3 13.3h0c0 7.4-5.9 13.3-13.3 13.3z" style="fill:#FFFFFF;stroke:#4285F4;stroke-width:3;stroke-linecap:round;stroke-linejoin:round;stroke-miterlimit:10"/><circle class="st1" cx="82.9" cy="304.4" r="8"/><circle class="st5" cx="105" cy="304.4" r="8"/><circle cx="127.1" cy="304.4" r="8" style="fill:#EA4335"/><circle class="st7" cx="149.1" cy="304.4" r="8"/><path d="M126.1 269.8c-2.8-1.8-6.6-1-8.5 1.8-1.8 2.8-1 6.6 1.8 8.5 2.8 1.8 6.6 1 8.5-1.8 1.9-2.9 1.1-6.7-1.8-8.5z" style="fill:none"/><path class="st5" d="M126.7 261.3c-5.9-1.7-12.5.5-16 6-4.3 6.6-2.3 15.5 4.3 19.8 6.6 4.3 15.5 2.3 19.8-4.3 3.5-5.4 2.8-12.3-1.2-17l7.6-12.3v-15.1l-14.5 22.9zm1.2 17c-1.8 2.8-5.6 3.7-8.5 1.8-2.8-1.8-3.7-5.6-1.8-8.5 1.8-2.8 5.6-3.7 8.5-1.8 2.9 1.8 3.7 5.6 1.8 8.5z"/><path class="st7" d="m147 244.3 4.4-6.9-6.9-4.4-3.3 5.3v15.1l1.4-2.2 10.3 6.6 4.4-6.9z"/><path class="st1" d="M293.6 317.7c-20.5-3.8-34-24-30.1-44.9l6.4-34.1c.4-2.3 2.3-4.1 4.6-4.5l33.9-5.4c1.2-.2 2.5 0 3.5.7l29.7 17.3c2 1.2 3.1 3.5 2.6 5.8l-6.4 34.1c-3.9 21-23.7 34.8-44.2 31z"/><path class="st0" d="M299.7 287.6h-.1c-.8-.1-1.5-.6-2-1.3l-8-10.9c-.5-.7-.4-1.7.3-2.2.7-.5 1.7-.4 2.2.3l8 10.9 18.5-13.7c-2.9-5.3-8-9.4-14.5-10.6-11.2-2.1-22.1 5.3-24.2 16.6-2.1 11.2 5.3 22.1 16.6 24.2 11.2 2.1 22.1-5.3 24.2-16.6.7-3.7.4-7.3-.8-10.7l-18 13.3c-.6.6-1.4.8-2.2.7z"/><path d="M326.6 266.8c-.5-.7-1.5-.8-2.2-.3l-5.8 4.3c.5.9.9 1.9 1.3 2.9l6.4-4.7c.7-.5.9-1.5.3-2.2z" style="fill:#FFFFFF"/><path class="st7" d="m300.1 284.5-8-10.9c-.5-.7-1.5-.8-2.2-.3s-.8 1.5-.3 2.2l8 10.9c.5.7 1.2 1.1 2 1.3h.1c.8.1 1.6-.1 2.2-.5l18-13.3c-.4-1-.8-2-1.3-2.9l-18.5 13.5zm-.1.1z"/><circle cx="102.8" cy="186.6" r="6.2" style="fill:#EE5FFA"/><path class="st0" d="m105 222.7 2.6-7.9c.2-.6 1-.7 1.3-.2l4.1 6.3.3.3 7.9 2.6c.6.2.7 1 .2 1.3l-6.6 4.2-.3.3-2.3 7.9c-.2.6-1 .7-1.3.2l-4.8-6.8-.3-.3-7.2-2.1c-.6-.2-.7-1-.2-1.3l6.3-4.1c.1-.1.2-.2.3-.4zm15.7-11.3 1.4-4.3c.1-.3.5-.4.7-.1l2.3 3.4c0 .1.1.1.2.1l4.3 1.4c.3.1.4.5.1.7l-3.6 2.3c-.1 0-.1.1-.1.2l-1.2 4.3c-.1.3-.5.4-.7.1l-2.6-3.7c0-.1-.1-.1-.2-.1l-4-1.1c-.3-.1-.4-.5-.1-.7l3.4-2.3s.1-.1.1-.2z"/><path d="m125.2 170.1 5-5.9c.3-.3.3-.7.2-1.1l-2.6-7.3c-.1-.4-.5-.6-.8-.7l-7.6-1.4c-.4-.1-.8.1-1 .4l-5 5.9c-.3.3-.3.7-.2 1.1l2.6 7.3c.1.4.5.6.8.7l7.6 1.4c.4 0 .8-.1 1-.4z" style="fill:none;stroke:#30E2EA;stroke-width:2;stroke-miterlimit:10"/></svg>