<svg xmlns="http://www.w3.org/2000/svg" width="440" height="228" fill="none"><path fill="#fff" d="M0 0h440v228H0z"/><g clip-path="url(#a)"><path fill="#fff" stroke="#2A84FC" stroke-linecap="round" stroke-linejoin="round" stroke-miterlimit="10" stroke-width="2.562" d="M261.005 94.228h136.411a8.927 8.927 0 0 1 8.926 8.925v100.103H252.088V103.145a8.913 8.913 0 0 1 8.917-8.917z"/><path fill="#4285F4" d="M262.201 100.992H396.4a3.272 3.272 0 0 1 3.272 3.272v90.323H258.93v-90.332a3.264 3.264 0 0 1 3.271-3.263z"/><path fill="#fff" stroke="#2A84FC" stroke-linecap="round" stroke-linejoin="round" stroke-miterlimit="10" stroke-width="2.562" d="M415.149 206.579H243.274a3.568 3.568 0 0 1-3.57-3.57v-1.307a1.79 1.79 0 0 1 1.785-1.785h175.445a1.79 1.79 0 0 1 1.785 1.785v1.307a3.568 3.568 0 0 1-3.57 3.57z"/><path fill="#D2E3FC" d="M328.14 99.122a1.076 1.076 0 1 0 0-2.153 1.076 1.076 0 0 0 0 2.153z"/><path stroke="#EA4335" stroke-linecap="round" stroke-linejoin="round" stroke-miterlimit="10" stroke-width="2.562" d="M114.977 76.206a8.126 8.126 0 0 1 3.946 10.787l-7.986 17.245a8.126 8.126 0 0 1-10.787 3.946 8.126 8.126 0 0 1-3.947-10.787l7.987-17.245c1.887-4.074 6.721-5.834 10.787-3.946z"/><path stroke="#2A84FC" stroke-linecap="round" stroke-linejoin="round" stroke-miterlimit="10" stroke-width="2.562" d="M268.129 38.103c-.905 5.945-6.457 10.028-12.402 9.131l-25.188-3.792c-5.944-.906-10.027-6.457-9.13-12.402.905-5.945 6.457-10.027 12.401-9.13l25.189 3.792c5.944.905 10.035 6.457 9.13 12.401z"/><path fill="#FBBC05" d="M283.171 69.595a16.378 16.378 0 0 1-1.7-3.476l-1.828-3.733a13.957 13.957 0 0 0-6.184-6.278c-1.033-.53-2.161-.896-3.254-1.28-1.196-.42-2.408-.787-3.579-1.248-2.827-1.11-5.141-2.998-6.508-5.74a11.77 11.77 0 0 1-.957-7.755 11.847 11.847 0 0 1 1.717-4.006 11.758 11.758 0 0 1 8.584-5.116c2.887-.282 5.834.547 8.131 2.315 2.007 1.546 3.562 3.664 5.219 5.56a13.905 13.905 0 0 0 9.506 4.723l4.143.29a16.671 16.671 0 0 1 11.385 3.775c6.312 5.16 7.944 14.316 3.827 21.345-4.92 8.396-15.81 10.788-23.762 5.441a16.513 16.513 0 0 1-4.74-4.817z"/><path stroke="#2A84FC" stroke-linecap="round" stroke-linejoin="round" stroke-miterlimit="10" stroke-width="2.562" d="m335.493 113.847-13.059 5.611a4.686 4.686 0 0 1-4.647-.546l-11.385-8.507a4.68 4.68 0 0 1-1.845-4.305l1.674-14.119a4.68 4.68 0 0 1 2.802-3.75l13.059-5.61a4.686 4.686 0 0 1 4.647.546l11.385 8.507a4.679 4.679 0 0 1 1.845 4.305l-1.674 14.118a4.669 4.669 0 0 1-2.802 3.75z"/><path fill="#D2E3FC" d="M163.439 201.369H25.447a5.58 5.58 0 0 1-5.577-5.578v-89.033a5.58 5.58 0 0 1 5.578-5.578h137.991a5.58 5.58 0 0 1 5.578 5.578V195.8c0 3.075-2.503 5.569-5.578 5.569z"/><path stroke="#2A84FC" stroke-linecap="round" stroke-linejoin="round" stroke-miterlimit="10" stroke-width="2.187" d="M132.802 112.865h4.868m19.234-4.758 4.758 4.758m0-4.758-4.758 4.758"/><path fill="#2A84FC" d="M145.666 113.42c-.743 0-1.35-.607-1.35-1.35v-3.177c0-.743.607-1.35 1.35-1.35h3.177c.743 0 1.35.607 1.35 1.35v3.177c0 .743-.607 1.35-1.35 1.35h-3.177z"/><path fill="#2A84FC" d="M148.85 107.979c.504 0 .923.41.923.923v3.177c0 .504-.41.922-.923.922h-3.177a.924.924 0 0 1-.922-.922v-3.177c0-.504.41-.923.922-.923h3.177zm0-.854h-3.177c-.982 0-1.777.794-1.777 1.777v3.177c0 .982.795 1.776 1.777 1.776h3.177c.983 0 1.777-.794 1.777-1.776v-3.177c0-.983-.794-1.777-1.777-1.777z"/><mask id="b" width="151" height="101" x="19" y="101" mask-type="alpha" maskUnits="userSpaceOnUse"><path fill="#D2E3FC" d="M163.439 201.369H25.447a5.58 5.58 0 0 1-5.577-5.578v-89.033a5.58 5.58 0 0 1 5.578-5.578h137.991a5.58 5.58 0 0 1 5.578 5.578V195.8c0 3.075-2.503 5.569-5.578 5.569z"/></mask><g mask="url(#b)"><path stroke="#fff" stroke-linecap="round" stroke-linejoin="round" stroke-miterlimit="10" stroke-width="2.562" d="M114.977 76.206a8.126 8.126 0 0 1 3.946 10.787l-7.986 17.245a8.126 8.126 0 0 1-10.787 3.946 8.126 8.126 0 0 1-3.947-10.787l7.987-17.245c1.887-4.074 6.721-5.834 10.787-3.946z"/></g><path fill="#fff" d="m93.965 142.468-6.833-8.387a2.506 2.506 0 0 1 .359-3.519l8.481-6.91a2.505 2.505 0 0 1 3.52.359l6.832 8.387a2.505 2.505 0 0 1-.359 3.519l-8.481 6.91a2.505 2.505 0 0 1-3.519-.359z"/><mask id="c" width="56" height="48" x="258" y="30" mask-type="alpha" maskUnits="userSpaceOnUse"><path fill="#FBBC05" d="M283.171 69.595a16.378 16.378 0 0 1-1.7-3.476l-1.828-3.733a13.957 13.957 0 0 0-6.184-6.278c-1.033-.53-2.161-.896-3.254-1.28-1.196-.42-2.408-.787-3.579-1.248-2.827-1.11-5.141-2.998-6.508-5.74a11.77 11.77 0 0 1-.957-7.755 11.847 11.847 0 0 1 1.717-4.006 11.758 11.758 0 0 1 8.584-5.116c2.887-.282 5.834.547 8.131 2.315 2.007 1.546 3.562 3.664 5.219 5.56a13.905 13.905 0 0 0 9.506 4.723l4.143.29a16.671 16.671 0 0 1 11.385 3.775c6.312 5.16 7.944 14.316 3.827 21.345-4.92 8.396-15.81 10.788-23.762 5.441a16.513 16.513 0 0 1-4.74-4.817z"/></mask><g mask="url(#c)"><path stroke="#fff" stroke-linecap="round" stroke-linejoin="round" stroke-miterlimit="10" stroke-width="2.562" d="M268.129 38.103c-.905 5.945-6.457 10.028-12.402 9.131l-25.188-3.792c-5.944-.906-10.027-6.457-9.13-12.402.905-5.945 6.457-10.027 12.401-9.13l25.189 3.792c5.944.905 10.035 6.457 9.13 12.401z"/></g><path fill="#D2E3FC" d="M328.429 170.467c11.567 0 20.943-9.377 20.943-20.943 0-11.567-9.376-20.944-20.943-20.944-11.566 0-20.943 9.377-20.943 20.944 0 11.566 9.377 20.943 20.943 20.943z"/><path stroke="#fff" stroke-linecap="round" stroke-linejoin="round" stroke-miterlimit="10" stroke-width="2.562" d="m318.163 146.637 8.268 8.267a1.38 1.38 0 0 0 1.964 0l22.729-22.463"/><mask id="d" width="43" height="43" x="307" y="128" mask-type="alpha" maskUnits="userSpaceOnUse"><path fill="#D2E3FC" d="M328.429 170.467c11.567 0 20.943-9.377 20.943-20.943 0-11.567-9.376-20.944-20.943-20.944-11.566 0-20.943 9.377-20.943 20.944 0 11.566 9.377 20.943 20.943 20.943z"/></mask><g mask="url(#d)"><path stroke="#34A853" stroke-linecap="round" stroke-linejoin="round" stroke-miterlimit="10" stroke-width="2.562" d="m318.163 146.637 8.268 8.267a1.38 1.38 0 0 0 1.964 0l20.115-19.995"/></g><path fill="#fff" d="M89.558 171.756a6.893 6.893 0 1 0 0-13.785 6.893 6.893 0 0 0 0 13.785z"/><mask id="e" width="142" height="95" x="258" y="100" mask-type="alpha" maskUnits="userSpaceOnUse"><path fill="#4285F4" d="M262.201 100.992H396.4a3.272 3.272 0 0 1 3.272 3.272v90.323H258.93v-90.332a3.264 3.264 0 0 1 3.271-3.263z"/></mask><g mask="url(#e)"><path stroke="#fff" stroke-linecap="round" stroke-linejoin="round" stroke-miterlimit="10" stroke-width="2.562" d="m335.493 113.847-13.059 5.611a4.686 4.686 0 0 1-4.647-.546l-11.385-8.507a4.68 4.68 0 0 1-1.845-4.305l1.674-14.119a4.68 4.68 0 0 1 2.802-3.75l13.059-5.61a4.686 4.686 0 0 1 4.647.546l11.385 8.507a4.679 4.679 0 0 1 1.845 4.305l-1.674 14.118a4.669 4.669 0 0 1-2.802 3.75z"/></g><path fill="#D2E3FC" d="M149.756 59.593c.06-.512.102-1.042.102-1.597a10.7 10.7 0 0 0-.119-1.597l3.433-2.7a.847.847 0 0 0 .205-1.041l-3.245-5.663c-.205-.367-.632-.487-1-.367l-4.04 1.64a11.932 11.932 0 0 0-2.741-1.598l-.607-4.339a.81.81 0 0 0-.811-.691h-6.5c-.41 0-.735.29-.794.691l-.607 4.34c-.999.41-1.913.965-2.742 1.596l-4.04-1.64a.804.804 0 0 0-.999.368l-3.254 5.663a.794.794 0 0 0 .205 1.042l3.433 2.699a9.961 9.961 0 0 0-.145 1.597c0 .53.043 1.085.12 1.597l-3.434 2.7c-.307.247-.384.691-.205 1.041l3.254 5.663c.205.367.633.487 1 .367l4.04-1.64a11.914 11.914 0 0 0 2.742 1.598l.606 4.338c.085.41.41.692.811.692h6.5c.41 0 .752-.29.795-.692l.606-4.338c.999-.41 1.913-.966 2.742-1.598l4.04 1.64c.367.145.794 0 .999-.367l3.246-5.663a.795.795 0 0 0-.205-1.042l-3.391-2.699zM137.67 64.13c-3.348 0-6.09-2.76-6.09-6.133 0-3.374 2.742-6.133 6.09-6.133s6.09 2.76 6.09 6.133c.008 3.374-2.733 6.133-6.09 6.133z"/><path fill="#4285F4" d="M137.671 66.178c-4.51 0-8.183-3.672-8.183-8.182s3.673-8.183 8.183-8.183 8.182 3.673 8.182 8.183-3.672 8.182-8.182 8.182zm0-13.546a5.373 5.373 0 0 0-5.364 5.364 5.373 5.373 0 0 0 5.364 5.364 5.373 5.373 0 0 0 5.364-5.364 5.373 5.373 0 0 0-5.364-5.364z"/><path fill="#8AB4F8" d="M137.671 67.87c-5.441 0-9.874-4.433-9.874-9.874 0-5.44 4.433-9.874 9.874-9.874 5.44 0 9.873 4.433 9.873 9.874 0 5.44-4.424 9.874-9.873 9.874zm0-17.493c-4.203 0-7.619 3.417-7.619 7.619s3.416 7.619 7.619 7.619c4.202 0 7.618-3.417 7.618-7.619s-3.416-7.619-7.618-7.619z"/><path fill="#34A853" d="M180.24 32.543c-2.716-2.272-6.671-2.665-9.78-.64-3.801 2.477-4.877 7.576-2.408 11.377 2.477 3.8 7.576 4.877 11.377 2.408 3.109-2.024 4.373-5.817 3.373-9.207l8.114-5.492 3.844 5.91 3.938-2.562-3.844-5.91 3.937-2.563-2.562-3.938-15.989 10.617zm-3.374 9.208a3.528 3.528 0 0 1-4.877-1.034 3.527 3.527 0 0 1 1.034-4.877 3.528 3.528 0 0 1 4.877 1.034 3.529 3.529 0 0 1-1.034 4.877z"/></g><defs><clipPath id="a"><path fill="#fff" d="M0 0h400.13v187.36H0z" transform="translate(19.87 20.5)"/></clipPath></defs></svg>