<svg xmlns="http://www.w3.org/2000/svg" width="440" height="228" fill="none"><path fill="#fff" d="M0 0h440v228H0z"/><g clip-path="url(#clip0)"><path fill="#fff" stroke="#2A84FC" stroke-linecap="round" stroke-linejoin="round" stroke-miterlimit="10" stroke-width="2.685" d="M262.978 93.27h142.965c5.165 0 9.354 4.189 9.354 9.354v104.911H253.633v-104.92a9.34 9.34 0 0 1 9.345-9.346z"/><path fill="#4285F4" d="M264.231 100.359h140.646a3.428 3.428 0 0 1 3.428 3.428v94.662H260.803v-94.671a3.42 3.42 0 0 1 3.428-3.419z"/><path fill="#fff" stroke="#2A84FC" stroke-linecap="round" stroke-linejoin="round" stroke-miterlimit="10" stroke-width="2.685" d="M424.526 211.017H244.395a3.74 3.74 0 0 1-3.742-3.741v-1.37c0-1.029.842-1.871 1.871-1.871h183.873c1.029 0 1.871.842 1.871 1.871v1.37a3.74 3.74 0 0 1-3.742 3.741z"/><path fill="#D2E3FC" d="M333.338 98.398a1.128 1.128 0 1 0 0-2.255 1.128 1.128 0 0 0 0 2.255z"/><path stroke="#EA4335" stroke-linecap="round" stroke-linejoin="round" stroke-miterlimit="10" stroke-width="2.685" d="M109.935 74.382c4.261 1.978 6.114 7.044 4.135 11.305l-8.369 18.073c-1.979 4.261-7.045 6.114-11.306 4.136-4.261-1.978-6.114-7.045-4.136-11.306l8.37-18.073c1.978-4.27 7.045-6.114 11.306-4.135z"/><path stroke="#2A84FC" stroke-linecap="round" stroke-linejoin="round" stroke-miterlimit="10" stroke-width="2.685" d="M270.444 34.449c-.949 6.23-6.768 10.51-12.998 9.57l-26.398-3.975c-6.23-.95-10.509-6.768-9.569-12.998.949-6.23 6.767-10.509 12.998-9.569l26.398 3.974c6.23.95 10.518 6.768 9.569 12.998z"/><path fill="#FBBC05" d="M286.208 67.453a17.185 17.185 0 0 1-1.781-3.643l-1.916-3.912a14.629 14.629 0 0 0-6.481-6.58c-1.083-.554-2.264-.94-3.41-1.342-1.253-.439-2.524-.823-3.751-1.307-2.963-1.164-5.389-3.142-6.821-6.015a12.327 12.327 0 0 1-1.002-8.128 12.41 12.41 0 0 1 1.799-4.199 12.322 12.322 0 0 1 8.996-5.361c3.026-.296 6.114.572 8.522 2.425 2.104 1.62 3.733 3.84 5.469 5.828a14.575 14.575 0 0 0 9.963 4.95l4.342.304a17.704 17.704 0 0 1 4.055.278 17.472 17.472 0 0 1 7.877 3.679c6.615 5.407 8.325 15.003 4.01 22.37-5.156 8.8-16.569 11.306-24.903 5.702a17.33 17.33 0 0 1-4.968-5.049z"/><path stroke="#2A84FC" stroke-linecap="round" stroke-linejoin="round" stroke-miterlimit="10" stroke-width="2.685" d="M341.044 113.831l-13.686 5.881a4.912 4.912 0 0 1-4.87-.573l-11.932-8.916a4.9 4.9 0 0 1-1.934-4.511l1.755-14.797a4.902 4.902 0 0 1 2.936-3.93l13.686-5.88a4.911 4.911 0 0 1 4.87.572l11.932 8.916a4.901 4.901 0 0 1 1.934 4.511l-1.755 14.797a4.888 4.888 0 0 1-2.936 3.93z"/><path fill="#D2E3FC" d="M160.725 205.557H16.105a5.847 5.847 0 0 1-5.845-5.845v-93.311a5.847 5.847 0 0 1 5.845-5.845h144.62a5.847 5.847 0 0 1 5.846 5.845v93.319c0 3.223-2.623 5.837-5.846 5.837z"/><path stroke="#2A84FC" stroke-linecap="round" stroke-linejoin="round" stroke-miterlimit="10" stroke-width="2.292" d="M128.616 112.801h5.103m20.158-4.986l4.986 4.986m0-4.986l-4.986 4.986"/><path fill="#2A84FC" d="M142.098 113.383a1.416 1.416 0 0 1-1.414-1.414v-3.33c0-.779.635-1.414 1.414-1.414h3.33c.779 0 1.414.635 1.414 1.414v3.33c0 .779-.635 1.414-1.414 1.414h-3.33z"/><path fill="#2A84FC" d="M145.436 107.681c.528 0 .967.43.967.967v3.33c0 .528-.43.967-.967.967h-3.33a.969.969 0 0 1-.967-.967v-3.33c0-.528.43-.967.967-.967h3.33zm0-.895h-3.33a1.861 1.861 0 0 0-1.862 1.862v3.33c0 1.029.833 1.862 1.862 1.862h3.33a1.861 1.861 0 0 0 1.862-1.862v-3.33a1.861 1.861 0 0 0-1.862-1.862z"/><mask id="a" width="157" height="106" x="10" y="100" maskUnits="userSpaceOnUse"><path fill="#D2E3FC" d="M160.725 205.557H16.105a5.847 5.847 0 0 1-5.845-5.845v-93.311a5.847 5.847 0 0 1 5.845-5.845h144.62a5.847 5.847 0 0 1 5.846 5.845v93.319c0 3.223-2.623 5.837-5.846 5.837z"/></mask><g mask="url(#a)"><path stroke="#fff" stroke-linecap="round" stroke-linejoin="round" stroke-miterlimit="10" stroke-width="2.685" d="M109.935 74.382c4.261 1.978 6.114 7.044 4.135 11.305l-8.369 18.073c-1.979 4.261-7.045 6.114-11.306 4.136-4.261-1.978-6.114-7.045-4.136-11.306l8.37-18.073c1.978-4.27 7.045-6.114 11.306-4.135z"/></g><path fill="#fff" d="M87.914 143.827l-7.161-8.79a2.626 2.626 0 0 1 .376-3.688l8.889-7.242a2.626 2.626 0 0 1 3.688.376l7.161 8.791a2.626 2.626 0 0 1-.376 3.688l-8.889 7.241a2.625 2.625 0 0 1-3.688-.376z"/><mask id="b" width="59" height="50" x="260" y="26" maskUnits="userSpaceOnUse"><path fill="#FBBC05" d="M286.208 67.453a17.185 17.185 0 0 1-1.781-3.643l-1.916-3.912a14.629 14.629 0 0 0-6.481-6.58c-1.083-.554-2.264-.94-3.41-1.342-1.253-.439-2.524-.823-3.751-1.307-2.963-1.164-5.389-3.142-6.821-6.015a12.327 12.327 0 0 1-1.002-8.128 12.41 12.41 0 0 1 1.799-4.199 12.322 12.322 0 0 1 8.996-5.361c3.026-.296 6.114.572 8.522 2.425 2.104 1.62 3.733 3.84 5.469 5.828a14.575 14.575 0 0 0 9.963 4.95l4.342.304a17.704 17.704 0 0 1 4.055.278 17.472 17.472 0 0 1 7.877 3.679c6.615 5.407 8.325 15.003 4.01 22.37-5.156 8.8-16.569 11.306-24.903 5.702a17.33 17.33 0 0 1-4.968-5.049z"/></mask><g mask="url(#b)"><path stroke="#fff" stroke-linecap="round" stroke-linejoin="round" stroke-miterlimit="10" stroke-width="2.685" d="M270.444 34.449c-.949 6.23-6.768 10.51-12.998 9.57l-26.398-3.975c-6.23-.95-10.509-6.768-9.569-12.998.949-6.23 6.767-10.509 12.998-9.569l26.398 3.974c6.23.95 10.518 6.768 9.569 12.998z"/></g><path fill="#D2E3FC" d="M333.641 173.17c12.123 0 21.95-9.827 21.95-21.949 0-12.122-9.827-21.949-21.95-21.949-12.122 0-21.949 9.827-21.949 21.949 0 12.122 9.827 21.949 21.949 21.949z"/><path stroke="#fff" stroke-linecap="round" stroke-linejoin="round" stroke-miterlimit="10" stroke-width="2.685" d="M322.882 148.196l8.665 8.665a1.448 1.448 0 0 0 2.059 0l23.82-23.543"/><mask id="c" width="45" height="45" x="311" y="129" maskUnits="userSpaceOnUse"><path fill="#D2E3FC" d="M333.641 173.17c12.123 0 21.95-9.827 21.95-21.949 0-12.122-9.827-21.949-21.95-21.949-12.122 0-21.949 9.827-21.949 21.949 0 12.122 9.827 21.949 21.949 21.949z"/></mask><g mask="url(#c)"><path stroke="#34A853" stroke-linecap="round" stroke-linejoin="round" stroke-miterlimit="10" stroke-width="2.685" d="M322.882 148.196l8.665 8.665a1.448 1.448 0 0 0 2.059 0l21.08-20.956"/></g><path fill="#fff" d="M83.295 174.522a7.224 7.224 0 1 0 0-14.447 7.224 7.224 0 0 0 0 14.447z"/><mask id="d" width="149" height="99" x="260" y="100" maskUnits="userSpaceOnUse"><path fill="#4285F4" d="M264.231 100.359h140.646a3.428 3.428 0 0 1 3.428 3.428v94.662H260.803v-94.671a3.42 3.42 0 0 1 3.428-3.419z"/></mask><g mask="url(#d)"><path stroke="#fff" stroke-linecap="round" stroke-linejoin="round" stroke-miterlimit="10" stroke-width="2.685" d="M341.044 113.831l-13.686 5.881a4.912 4.912 0 0 1-4.87-.573l-11.932-8.916a4.9 4.9 0 0 1-1.934-4.511l1.755-14.797a4.902 4.902 0 0 1 2.936-3.93l13.686-5.88a4.911 4.911 0 0 1 4.87.572l11.932 8.916a4.901 4.901 0 0 1 1.934 4.511l-1.755 14.797a4.888 4.888 0 0 1-2.936 3.93z"/></g><path fill="#D2E3FC" d="M146.385 56.971a14.27 14.27 0 0 0 .108-1.674c0-.582-.045-1.137-.126-1.674l3.599-2.828c.322-.26.403-.726.215-1.093l-3.402-5.934c-.215-.385-.662-.51-1.047-.385l-4.234 1.718a12.5 12.5 0 0 0-2.874-1.674l-.635-4.547a.85.85 0 0 0-.851-.725h-6.812a.83.83 0 0 0-.832.725l-.636 4.547a12.71 12.71 0 0 0-2.873 1.674l-4.234-1.718a.844.844 0 0 0-1.048.384l-3.41 5.935a.832.832 0 0 0 .215 1.093l3.598 2.828a10.452 10.452 0 0 0-.152 1.674c0 .555.045 1.137.125 1.674l-3.598 2.829c-.323.26-.403.725-.215 1.092l3.41 5.935c.215.385.663.51 1.048.385l4.234-1.72a12.49 12.49 0 0 0 2.873 1.675l.636 4.547c.089.43.429.725.85.725h6.812a.82.82 0 0 0 .833-.725l.635-4.547a12.714 12.714 0 0 0 2.874-1.674l4.234 1.719c.385.152.832 0 1.047-.385l3.402-5.935a.833.833 0 0 0-.215-1.092l-3.554-2.829zm-12.666 4.753c-3.509 0-6.383-2.891-6.383-6.427 0-3.536 2.874-6.427 6.383-6.427s6.382 2.891 6.382 6.427c.009 3.536-2.864 6.427-6.382 6.427z"/><path fill="#4285F4" d="M133.719 63.873c-4.726 0-8.575-3.85-8.575-8.576 0-4.726 3.849-8.575 8.575-8.575 4.726 0 8.576 3.849 8.576 8.575 0 4.727-3.85 8.576-8.576 8.576zm0-14.197a5.63 5.63 0 0 0-5.621 5.621 5.63 5.63 0 0 0 5.621 5.622 5.632 5.632 0 0 0 5.622-5.622 5.632 5.632 0 0 0-5.622-5.621z"/><path fill="#8AB4F8" d="M133.719 65.645c-5.702 0-10.348-4.646-10.348-10.348 0-5.702 4.646-10.348 10.348-10.348 5.702 0 10.348 4.646 10.348 10.348 0 5.702-4.637 10.348-10.348 10.348zm0-18.333c-4.404 0-7.985 3.58-7.985 7.985 0 4.404 3.581 7.985 7.985 7.985s7.985-3.58 7.985-7.985c0-4.404-3.581-7.985-7.985-7.985z"/><path fill="#34A853" d="M178.334 28.622c-2.847-2.381-6.992-2.793-10.25-.672-3.983 2.596-5.111 7.94-2.524 11.924 2.596 3.983 7.94 5.11 11.923 2.524 3.258-2.122 4.583-6.096 3.536-9.65l8.504-5.756 4.028 6.195 4.127-2.686-4.028-6.194 4.126-2.685-2.685-4.127-16.757 11.127zm-3.536 9.65a3.698 3.698 0 0 1-5.112-1.084 3.697 3.697 0 0 1 1.084-5.111 3.697 3.697 0 0 1 5.111 1.083 3.7 3.7 0 0 1-1.083 5.111z"/></g><defs><clipPath id="clip0"><path fill="#fff" d="M0 0h419.351v196.36H0z" transform="translate(10.26 16)"/></clipPath></defs></svg>