<svg width="400" height="400" viewBox="0 0 400 400" fill="none" xmlns="http://www.w3.org/2000/svg"><g clip-path="url(#a)"><path d="m263.938 169.066-20.115-10.362c-2.591-1.372-3.657-4.419-2.286-7.01l10.515-20.419c1.371-2.591 4.419-3.657 7.009-2.286l20.115 10.362c2.59 1.372 3.657 4.419 2.286 7.01l-10.515 20.419c-1.371 2.591-4.419 3.657-7.009 2.286z" fill="#FBBC05"/><path d="M33.381 229.105c13.466 0 24.382-10.916 24.382-24.381 0-13.466-10.916-24.382-24.382-24.382C19.916 180.342 9 191.258 9 204.724c0 13.465 10.916 24.381 24.381 24.381z" fill="#4285F4"/><path d="M80.316 228.952c-9.753-3.2-21.639-12.19-23.925-21.79-2.59-10.82-.762-22.553 5.181-32.153 2.134-3.505 4.724-6.553 7.924-9.143 7.772-6.4 17.677-9.753 27.582-11.886 17.371-3.657 33.524-6.857 55.62-13.867 2.285-.762 3.962 1.676 5.028 3.81-3.809 3.352-13.562 5.942-16.152 10.209-2.591 4.267-3.81 9.753-1.981 14.324.609 1.676 1.676 3.2 2.743 4.724 1.219 1.676 7.619 6.4 8.99 8.076-1.219 3.658-4.724 9.296-5.943 12.953-.152.61-.305 1.676-.762 2.286-.762 1.219-3.504 1.219-4.876 1.524-4.419.914-12.8 1.219-17.219 1.981-15.086 2.742-21.791 7.771-32.763 18.438-.305.305-.61.457-.762.762-1.523 1.524-2.895 2.895-4.266 4.571-.457.305-4.42 5.181-4.42 5.181z" fill="#4285F4"/><path d="M301.728 171.961c-8.685 11.277-10.819 26.21-18.59 38.096 9.905 3.505 19.657 7.619 29.257 12.038 1.524.762 3.2 1.524 5.029 1.524 1.524 0 3.048-.457 4.419-1.219 4.724-2.59 7.924-7.619 10.057-12.648 1.219-2.895 1.829-6.552 1.981-9.6 2.134 1.372 5.181.762 7.162-.914 1.981-1.524 3.353-3.81 4.572-6.095.914-1.677 1.676-3.505 1.981-5.334.305-1.829.152-3.962-.914-5.638-.915-1.372-2.896-2.438-4.42-1.524-.152-1.524-.304-3.2-1.066-4.724-.61-1.524-1.829-2.743-3.505-3.047-.305 0-.61-.153-.914-.305-.305-.305-.457-.762-.457-1.219-.153-1.372-.458-2.591-1.067-3.81-.914-1.828-2.743-3.048-4.724-3.809-1.981-.762-3.962-.915-6.095-1.22 1.676-1.981 3.2-3.962 4.876-5.942 1.524-1.829 3.048-3.81 3.352-6.096.305-2.286-1.219-5.181-3.505-5.181-3.809-.152-7.009 3.2-9.904 5.791-7.01 5.943-11.886 13.714-17.525 20.876zM143.097 199.39l8.229-18.286 9.752 2.134 7.162-1.677 2.134.762 6.248 15.848-3.658 3.2-12.648 3.657-7.923-1.219-6.401-3.657-2.895-.762z" fill="#D2E3FC"/><path d="M159.402 183.238c11.699 0 21.182-9.483 21.182-21.182 0-11.698-9.483-21.181-21.182-21.181-11.698 0-21.181 9.483-21.181 21.181 0 11.699 9.483 21.182 21.181 21.182z" fill="#D2E3FC" stroke="#4285F4" stroke-width="4.068" stroke-miterlimit="10" stroke-linecap="round" stroke-linejoin="round"/><path d="m176.622 198.171-6.248-15.848m-26.362 15.848 6.552-15.695m102.097 88.534c-4.876-15.238-7.314-32.153-16.914-45.258-13.867-18.743-36.268-27.581-59.125-27.581 0 0-2.134 1.981-2.591 2.286-1.219.914-2.438 1.676-3.809 2.438-8.077 3.962-20.267 2.59-26.21-4.724" stroke="#4285F4" stroke-width="4.068" stroke-miterlimit="10" stroke-linecap="round" stroke-linejoin="round"/><path d="M279.938 335.926c20.571-6.248 31.238-23.467 37.486-52.725 2.743-12.648 10.514-37.334 12.952-54.248-16.152-6.553-33.372-13.867-49.372-20.42-14.171 29.258-23.619 51.811-36.724 81.221m-100.268-91.583c-17.372 0-31.391 2.895-46.325 12.343-17.067 10.819-28.8 46.172-38.248 66.744-2.133 4.571-3.657 10.21-5.638 14.781-3.962 9.143-8.077 26.058-6.553 35.963m277.033-164.726c8.229-1.677 12.191 5.028 12.496 10.514.304 5.486-1.677 11.124-4.877 15.543-1.066 1.524-2.285 3.048-3.809 3.81s-3.353.914-4.724 0c-1.676-1.219-1.829-5.029-1.524-7.01" stroke="#4285F4" stroke-width="4.068" stroke-miterlimit="10" stroke-linecap="round" stroke-linejoin="round"/><path d="M336.624 172.418c2.743.305 3.962 2.134 4.877 3.962.914 1.981 1.066 4.115.914 6.248-.305 4.876-2.286 9.905-6.248 12.8-2.438 1.829-6.248 2.743-8.686.762-.609-.609-1.219-1.371-1.371-2.133" stroke="#4285F4" stroke-width="4.068" stroke-miterlimit="10" stroke-linecap="round" stroke-linejoin="round"/><path d="M343.177 180.647c2.133-.304 4.114 1.372 4.723 3.353.61 1.981.305 4.267-.304 6.248-.61 2.285-1.524 4.419-3.048 6.247-1.524 1.829-3.505 3.2-5.791 3.505-2.285.305-4.723-.762-5.943-2.743m-48.609 11.124c6.857-16 14.171-31.848 20.267-41.448 4.571-7.162 10.514-15.544 18.286-19.506 2.133-1.066 4.723-1.981 7.162-1.371 1.066.305 1.981.762 2.59 1.676.762 1.067.762 2.438.457 3.657-.914 3.2-3.962 5.486-6.095 7.924-2.591 3.048-5.181 6.096-7.162 9.601-1.524 2.742-2.895 5.485-4.114 8.381" stroke="#4285F4" stroke-width="4.068" stroke-miterlimit="10" stroke-linecap="round" stroke-linejoin="round"/><path d="M307.062 183.39c1.524-1.524 3.048-2.59 4.724-3.657 3.505-2.286 6.705-4.114 10.667-4.419 1.371-.153 2.895.305 3.809 1.371 1.067 1.219 1.067 3.048.457 4.419-.609 1.372-1.676 2.743-3.047 3.658-2.591 1.981-5.334 3.657-8.077 5.333l1.981 1.981c2.286 2.286 3.201 4.724 3.353 8.076.152 3.048-.762 6.248-2.591 8.839m15.239-10.362c-.305 8.076-4.572 23.619-17.372 24.686M175.86 160.228c-1.981 3.352-6.4 5.028-10.057 4.114" stroke="#4285F4" stroke-width="4.068" stroke-miterlimit="10" stroke-linecap="round" stroke-linejoin="round"/><path d="M167.479 143.161c-3.81 11.581-17.677 21.181-31.239 21.638l1.524-8.838 6.553-7.467 7.314-5.333 8.076-2.286 7.619 1.676" fill="#4285F4"/><path d="M205.422 231.695a55.51 55.51 0 0 1-2.286 25.448c-1.981 5.791-4.876 11.277-5.638 17.372-.762 6.248.762 12.8-1.067 18.896-.457 0-1.219-.305-1.676-.305l-79.849.305m81.221.152c6.248 11.277 10.667 23.467 12.953 36.267m-79.24-96.763c-8.229 27.581-15.543 69.03-26.058 98.287" stroke="#4285F4" stroke-width="4.068" stroke-miterlimit="10" stroke-linecap="round" stroke-linejoin="round"/><path d="M244.889 86.627c6.817 0 12.343-5.527 12.343-12.343 0-6.817-5.526-12.344-12.343-12.344-6.816 0-12.343 5.527-12.343 12.344 0 6.816 5.527 12.343 12.343 12.343z" fill="#EA4335"/><path d="M333.881 75.198c1.829 1.524 3.353 3.352 4.724 5.333l5.029 5.638c3.657 4.115 8.533 7.01 13.867 8.077 2.133.457 4.266.457 6.4.61 2.286.152 4.571.152 6.857.456 5.486.61 10.515 2.743 14.324 7.01 3.2 3.657 5.181 8.381 5.486 13.257.152 2.743-.305 5.334-1.067 7.924-1.981 6.096-6.705 10.972-12.648 13.258-4.876 1.828-10.514 1.828-15.39-.153-4.267-1.676-8.077-4.724-11.886-7.314-5.638-3.657-12.496-5.029-19.048-3.657l-7.467 1.524a27.24 27.24 0 0 1-7.01 1.371 28.824 28.824 0 0 1-14.933-2.591c-13.562-5.942-21.029-21.333-17.067-35.657 4.571-17.22 22.553-26.667 39.162-21.181 4.115 1.37 7.62 3.504 10.667 6.095z" fill="#34A853"/><path d="m224.927 110.093-13.41-7.009c-.761-.457-1.523.152-1.523 1.066l.609 15.086c0 .762.914 1.372 1.676.915l12.801-8.077c.609-.609.609-1.676-.153-1.981z" fill="#F882FF"/></g><defs><clipPath id="a"><path fill="#fff" transform="translate(9 62)" d="M0 0h382v276H0z"/></clipPath></defs></svg>