<svg width="200" height="200" viewBox="0 0 200 200" fill="none" xmlns="http://www.w3.org/2000/svg"><g clip-path="url(#a)"><path fill="#fff" d="M0 0h200v200H0z"/><g clip-path="url(#b)"><path d="M98.932 122.969v136.276" stroke="#2A84FC" stroke-width="6.871" stroke-miterlimit="10" stroke-linecap="round" stroke-linejoin="round"/><path d="M108.897 77.62H91.103c-1.897 0-3.321-1.374-3.321-3.207V61.358c0-1.832 1.424-3.206 3.322-3.206h17.793c1.898 0 3.322 1.374 3.322 3.206v13.055c0 1.833-1.424 3.207-3.322 3.207z" fill="#2A84FC"/><path d="M109.846 62.733H90.154c-1.186 0-2.372-.917-2.372-2.29 0-1.146.949-2.291 2.373-2.291h19.691c1.186 0 2.373.916 2.373 2.29 0 1.145-.949 2.29-2.373 2.29z" fill="#D2E3FC"/><path d="M114.116 77.62H85.883v42.143h28.233V77.62z" fill="#D2E3FC" stroke="#D2E3FC" stroke-width="6.871" stroke-miterlimit="10" stroke-linecap="round" stroke-linejoin="round"/><path d="M100.119 61.817c.786 0 1.424-.615 1.424-1.374 0-.76-.638-1.375-1.424-1.375-.786 0-1.423.616-1.423 1.375s.637 1.374 1.423 1.374zm-6.169 0c.787 0 1.424-.615 1.424-1.374 0-.759-.637-1.374-1.423-1.374-.787 0-1.424.615-1.424 1.374 0 .759.637 1.374 1.424 1.374zm12.1 0c.787 0 1.424-.615 1.424-1.374 0-.76-.637-1.375-1.424-1.375-.786 0-1.423.616-1.423 1.375s.637 1.374 1.423 1.374z" fill="#2A84FC"/></g><path fill-rule="evenodd" clip-rule="evenodd" d="M97.984 38.392v12.1l8.066-16.134h-4.033v-12.1L93.95 38.392h4.034z" fill="#F9AB00"/></g><defs><clipPath id="a"><path fill="#fff" d="M0 0h200v200H0z"/></clipPath><clipPath id="b"><path fill="#fff" transform="translate(82.325 58.152)" d="M0 0h35.35v204.53H0z"/></clipPath></defs></svg>