<svg width="305" height="294" viewBox="0 0 305 294" fill="none" xmlns="http://www.w3.org/2000/svg"><g clip-path="url(#a)"><path d="M60.18 118.39c3.936-7.235 1.312-16.279-5.903-20.39l-30.5-16.936c-7.215-3.946-16.234-1.315-20.333 5.92-3.936 7.234-1.312 16.278 5.903 20.389l30.5 16.936c7.215 3.946 16.234 1.315 20.333-5.919z" stroke="#FBBC05" stroke-width="5" stroke-miterlimit="10" stroke-linecap="round" stroke-linejoin="round"/><path d="M238.097 99.809C215.796 68.074 179.065 47.19 137.415 47.19c-67.888 0-122.984 55.249-122.984 123.323 0 29.597 10.33 56.728 27.712 78.104 22.63 27.624 56.9 45.218 95.272 45.218 67.887 0 122.983-55.249 122.983-123.322-.164-26.309-8.362-50.645-22.301-70.705z" fill="#D2E3FC"/><path d="m189.888 47.192 8.362-6.249c.984-.822 1.148-2.137.492-3.124l-6.231-8.386c-.82-.986-2.132-1.15-3.115-.493l-8.363 6.248c-.984.822-1.148 2.138-.492 3.124l6.231 8.386c.656.987 2.132 1.316 3.116.494z" fill="#FE2C25"/><path d="m172.178 18.745 4.427-4.44c.984-.986 1.312-2.466.984-3.781l-1.64-6.084c-.328-1.316-1.476-2.302-2.787-2.795L167.094 0c-1.311-.329-2.787 0-3.771.987l-4.264 4.604c-.983.986-1.311 2.466-.983 3.782l1.639 6.084c.328 1.315 1.476 2.302 2.788 2.795l6.067 1.644c1.148.33 2.624-.164 3.608-1.15z" fill="#F882FF"/><mask id="b" style="mask-type:alpha" maskUnits="userSpaceOnUse" x="16" y="46" width="247" height="247"><path d="M240.064 98.658c-22.301-31.735-59.032-52.617-100.682-52.617-67.888 0-122.984 55.248-122.984 123.322 0 29.597 10.33 56.728 27.712 78.104 22.63 27.624 56.901 45.218 95.272 45.218 67.887 0 122.983-55.249 122.983-123.322-.164-26.309-8.362-50.645-22.301-70.705z" fill="#D2E3FC"/></mask><g mask="url(#b)"><path fill-rule="evenodd" clip-rule="evenodd" d="M176.944 66.873v-.003a.392.392 0 0 1 .013-.205.176.176 0 0 1 .051-.075.07.07 0 0 1 .018-.012l.004-.001h.014a.286.286 0 0 1 .073.022l.078.031 14.708 5.572a.513.513 0 0 1-.004.306.277.277 0 0 1-.054.1l-12.057 9.965a.182.182 0 0 1-.093.041.313.313 0 0 1-.148-.021.32.32 0 0 1-.124-.082.087.087 0 0 1-.023-.044l-2.456-15.594zm-4.942.758c-.594-3.871 3.08-7.264 6.998-5.664l14.712 5.573c1.937.715 2.942 2.442 3.162 4.061.22 1.616-.276 3.47-1.716 4.752l-.07.06-12.135 10.03-.028.024c-3.13 2.51-7.817.675-8.458-3.184l-.004-.021-2.459-15.621-.002-.01zM32.028 83.146l-.005-.003c-8.466-4.627-18.986-1.324-23.56 7.086-4.612 8.477-1.329 19.022 7.063 23.612l.01.005 30.663 16.608.012.006c8.581 4.589 19.125 1.358 23.555-7.113 4.596-8.475 1.312-19.007-7.074-23.594l-.01-.005-30.654-16.602zm-19.173 9.472c3.296-6.059 10.81-8.347 16.773-5.085l.01.005 30.654 16.602.005.002c6.034 3.304 8.325 10.844 5.066 16.835a3.678 3.678 0 0 0-.02.039c-3.119 5.982-10.6 8.333-16.769 5.038l-.005-.003-30.643-16.596-.005-.003c-6.034-3.303-8.325-10.843-5.066-16.834z" fill="#fff"/></g><path d="M138.89 113.95c10.234 0 18.53-8.319 18.53-18.58 0-10.263-8.296-18.581-18.53-18.581-10.233 0-18.529 8.318-18.529 18.58 0 10.262 8.296 18.581 18.529 18.581zm87.073 73.5c-2.132-7.728-7.215-22.691-20.497-36.174-20.006-20.39-44.439-23.514-51.654-24.172-.328.987-2.131 8.058-8.363 10.36-6.723 2.63-15.906-1.316-20.169-10.36" stroke="#4285F4" stroke-width="5" stroke-miterlimit="10" stroke-linecap="round" stroke-linejoin="round"/><path d="M151.353 94.218c0 .33-.164 3.124-2.46 4.769-1.804 1.315-4.263 1.48-6.395.493m11.478 27.624-3.608-14.963" stroke="#4285F4" stroke-width="5" stroke-miterlimit="10" stroke-linecap="round" stroke-linejoin="round"/><path d="M141.514 78.104c-3.28 10.195-12.135 18.252-22.137 20.06.328-1.972.656-3.781.984-5.754.328-1.645.492-3.289 1.147-4.933.984-2.96 3.116-5.262 5.576-7.07 2.459-1.81 5.247-2.632 8.199-3.29 1.803-.164 4.427.165 6.231.987z" fill="#4285F4"/><path d="M108.882 92.41c10.143 0 18.366-8.245 18.366-18.416 0-10.171-8.223-18.416-18.366-18.416-10.143 0-18.366 8.245-18.366 18.416 0 10.17 8.223 18.416 18.366 18.416z" fill="#4285F4"/><path d="M183.328 172.322c-.492 1.316-.984 3.618-1.476 6.413-1.148 7.728.656 11.51.164 19.238-.164 2.302-.492 5.755-1.64 10.03" stroke="#4285F4" stroke-width="2" stroke-miterlimit="10" stroke-linecap="round" stroke-linejoin="round"/><path d="M124.317 182.59c1.639 8.55 3.443 17.101 5.083 25.651m-.513.256c16.89-.329 33.944-.493 50.833-.822 6.396 15.95 12.955 32.064 19.35 48.013-49.358 26.309-103.47 12.004-123.148-21.54-12.462-21.211-13.938-55.084 4.92-79.913 15.741-20.718 38.534-25.98 45.257-27.131 1.968-4.275 3.936-8.55 5.904-12.661" stroke="#4285F4" stroke-width="5" stroke-miterlimit="10" stroke-linecap="round" stroke-linejoin="round"/><path d="M269.581 126.611s.82 4.604 1.804 11.674m-32.14-37.16c-1.968 1.644-3.936 3.781-5.411 6.083-6.888 11.675 1.639 26.967 2.459 28.447m28.533-36.504c5.575-2.466 19.841-9.372 24.104-16.443.656-1.15 1.968-3.453 1.148-5.097-.82-1.809-3.279-2.138-5.083-1.315-1.804.822-3.116 2.302-4.427 3.781-5.084 5.591-10.987 9.044-16.07 11.346-1.804.822-4.592 1.973-8.363 2.631" stroke="#7CB1F2" stroke-width="5" stroke-miterlimit="10" stroke-linecap="round" stroke-linejoin="round"/><path d="M289.422 82.05c1.968-2.63 5.575-2.466 6.887-.328 1.476 2.466-.164 5.755-1.804 8.057-6.067 8.715-15.414 13.976-25.908 16.936" stroke="#7CB1F2" stroke-width="5" stroke-miterlimit="10" stroke-linecap="round" stroke-linejoin="round"/><path d="M294.505 89.943c2.132-2.63 5.412-2.466 6.724-.328 1.475 2.302-.164 5.426-1.804 7.563-6.231 8.386-15.414 13.483-25.745 16.443" stroke="#7CB1F2" stroke-width="5" stroke-miterlimit="10" stroke-linecap="round" stroke-linejoin="round"/><path d="M269.745 125.789c10.986-2.795 23.777-9.866 30.992-18.58.984-1.151 1.967-2.631 2.459-4.111.328-1.48 0-3.453-1.147-4.44a6.905 6.905 0 0 0-2.132-1.15m-60.672 3.617c2.787-1.974 6.231-4.933 9.838-9.044 7.051-8.221 9.511-15.292 14.103-14.963 1.475.164 2.951.987 3.607 2.138 1.64 2.795-.492 7.563-5.411 12.167" stroke="#7CB1F2" stroke-width="5" stroke-miterlimit="10" stroke-linecap="round" stroke-linejoin="round"/><path d="m293.849 138.121-99.207-.329c-2.459 0-5.083 1.809-5.903 4.275l-22.629 67.91h108.882l21.809-67.581c.984-2.302-.492-4.275-2.952-4.275z" fill="#2A84FC" stroke="#2A84FC" stroke-width="2.892" stroke-miterlimit="10" stroke-linecap="round" stroke-linejoin="round"/><path d="M274.336 211.292H154.96" stroke="#2A84FC" stroke-width="4" stroke-miterlimit="10" stroke-linecap="round" stroke-linejoin="round"/><path d="M258.759 210.141c3.115-.164 4.591 3.289 4.263 5.755-.492 2.467-1.968 4.44-3.936 6.084-8.854 7.4-18.693 10.688-30.5 15.621m-4.755-6.249c4.592-2.137 9.183-3.781 13.611-6.248 5.411-2.96 10.658-6.413 15.577-10.359 1.804-1.48 3.772-2.96 5.412-4.768 1.967-2.138 3.607-4.933 2.951-7.729-.492-2.137-2.951-3.617-5.083-3.288-.984.164-1.968.658-3.771 1.973-1.804 1.315-3.28 2.466-4.264 3.453" fill="#D2E3FC"/><path d="M212.681 212.279c2.787-3.124 7.871-8.55 10.822-11.839 1.312-1.48 2.624-3.617 1.476-5.755-.656-1.315-2.132-1.973-3.444-2.302-1.311-.164-2.623.165-3.771.493-2.132.823-3.936 1.974-5.903 3.125-8.035 5.097-15.25 8.879-20.99 16.442l.328-.164c-2.131 1.151-3.279.658-5.411 1.973l13.938 38.97c3.608-1.644 7.379-3.124 10.987-4.768 17.546-5.262 18.693-4.44 37.715-12.333 2.788-1.151 5.575-2.466 7.707-4.604 2.624-2.631 2.296-6.412 2.132-8.221-.164-11.51-11.315-24.007-13.283-26.144l-32.303 15.127z" fill="#D2E3FC"/><path d="M213.173 212.114c11.97-5.261 17.709-9.043 27.712-17.594 2.132-1.808 4.263-3.781 6.723-4.604 2.624-.822 5.739-.328 6.723 1.974.656 1.315.492 3.124-.328 4.604-.656 1.479-1.804 2.795-2.951 4.11-10.331 11.675-18.038 17.43-32.14 23.02" fill="#D2E3FC"/><path d="M258.103 225.433c.983 2.795-.328 6.084-2.624 8.222-2.296 1.973-5.083 3.124-8.035 4.11-19.35 6.906-20.497 6.084-38.207 10.524-3.772 1.48-7.543 2.795-11.151 4.275m29.025-15.95c12.134-4.44 22.137-7.07 31.32-14.141 1.967-1.48 3.607-3.453 4.263-5.919.492-2.467-.984-5.92-3.935-5.92m-36.24 19.403c4.591-1.809 9.347-3.289 13.774-5.591 5.576-2.795 10.987-5.919 16.07-9.537 1.968-1.48 3.936-2.795 5.575-4.604 1.968-2.137 3.772-4.768 3.28-7.563-.492-2.138-2.788-3.782-4.919-3.618-1.148 0-1.968.658-3.772 1.809-1.968 1.151-3.443 2.302-4.427 3.288m-35.748 6.249c2.952-3.124 8.363-8.221 11.315-11.181 1.476-1.48 2.787-3.453 1.804-5.591-.656-1.315-2.132-2.137-3.444-2.466-1.312-.329-2.624 0-3.772.329-2.131.657-4.099 1.808-6.067 2.795-8.363 4.769-15.578 8.222-21.809 15.456" stroke="#4285F4" stroke-width="5" stroke-miterlimit="10" stroke-linecap="round" stroke-linejoin="round"/><path d="M190.871 209.648c-2.295 1.151-4.427 2.302-6.723 3.289" stroke="#4285F4" stroke-width="1.832" stroke-miterlimit="10" stroke-linecap="round" stroke-linejoin="round"/><path d="M212.844 210.306c12.135-4.604 18.202-8.058 28.697-16.279 2.131-1.644 4.427-3.453 7.051-4.275 2.623-.822 5.739 0 6.723 2.302.656 1.48.328 3.124-.492 4.604-.82 1.48-1.968 2.795-3.116 3.946-10.986 11.017-18.857 16.443-33.287 21.376" stroke="#4285F4" stroke-width="5" stroke-miterlimit="10" stroke-linecap="round" stroke-linejoin="round"/><path d="M245.312 52.454h-.164c-.492 0-.984 0-1.312-.33l-11.806-9.207c-.82-.658-.984-1.809-.328-2.467.656-.822 1.804-.986 2.46-.329l10.33 8.057 13.447-18.416c-7.871-7.563-20.498-7.892-28.697-.493l-.328.165c-8.69 7.728-9.51 21.211-1.803 30.09 7.707 8.715 21.153 9.537 30.008 1.809l.328-.164c8.363-7.4 9.51-19.732 2.951-28.611l-14.102 19.238c-.328.329-.656.493-.984.658z" fill="#34A853"/><path d="M265.154 23.02c-.82-.657-1.968-.493-2.46.33l-4.591 6.412c.491.33.819.822 1.147 1.316.492.493.82.986 1.148 1.48l5.084-7.071c.655-.822.491-1.973-.328-2.466z" fill="#7CB1F2"/><path d="M238.425 99.809c-2.46 1.973-4.263 4.275-5.739 6.577-7.215 12.332 1.476 28.282 2.46 30.091.328.493.82.822 1.475.822.328 0 .492 0 .82-.165.82-.493.984-1.479.656-2.302-.984-1.644-8.855-16.114-2.623-26.802 1.147-2.137 2.951-3.946 4.919-5.755 1.64-1.151 3.279-2.466 4.755-3.946-.656-.822-1.312-1.809-1.967-2.63-1.476 1.48-3.116 2.959-4.756 4.11z" fill="#2A84FC"/></g><defs><clipPath id="a"><path fill="#fff" d="M0 0h305v294H0z"/></clipPath></defs></svg>