<svg xmlns="http://www.w3.org/2000/svg" width="648" height="320" style="width:100%;height:100%;content-visibility:visible">
  <defs>
    <clipPath id="a">
      <path d="M0 0h648v320H0z"/>
    </clipPath>
    <clipPath id="h"/>
    <clipPath id="g">
      <path fill="#fff" d="m1177.377 307.014-34.476 2.114.849 15.122 33.22-2.233.407-15.003"/>
    </clipPath>
    <clipPath id="f">
      <path fill="#fff" d="m1144.884 230.797-21.134 2.703s10.172 30.692 11.379 35.906c1.207 5.214 8.621 54.844 8.621 54.844l30.791-4.891-29.657-88.562"/>
    </clipPath>
    <clipPath id="e">
      <path fill="#fff" d="M1109.75 203.875c-24-1.25-39.375 5.875-39.375 5.875l-5 9.125s40.375 6.5 40.75 6.625 40-7.625 40-7.625-12.375-12.75-36.375-14"/>
    </clipPath>
    <clipPath id="d">
      <path fill="#fff" d="M610.633 461.5H553.75l-.75 20.553h57.633V461.5"/>
    </clipPath>
    <clipPath id="c">
      <path fill="#fff" d="M642.23 353.088c-11.23-4.838-40.73-11.338-53.718-11.211-8.96.088-31.01 2.927-33.386 13.4C552.75 365.75 569 377.25 569 377.25l87.75 28.5s32.676-6.808 32.838-20.279c.162-13.471-28.083-24.079-47.358-32.383"/>
    </clipPath>
    <clipPath id="b">
      <path fill="#fff" d="M481.512 417.877C479 417.877 462.25 448 462.25 448l54.875 25.5s6.801-17.558 6.963-31.029c.162-13.471-42.576-23.831-42.576-24.594"/>
    </clipPath>
  </defs>
  <g clip-path="url(#a)">
    <path fill="#fff" d="M0 0h648v320H0z" display="block"/>
    <path fill="none" stroke="#D2E2FB" stroke-linecap="round" stroke-linejoin="round" stroke-width="1.3251600000000001" d="M14.963 277.137h619.172" display="block"/>
    <path fill="#E6E6E6" d="M445.847 277.826h58.805V165.419h-58.805v112.407z" display="block"/>
    <path fill="none" stroke="#34A852" stroke-linejoin="round" stroke-width="2.38788" d="m452.75 132.064 8.038 32.134h32.532" display="block"/>
    <path fill="none" stroke="#4285F4" stroke-linecap="round" stroke-linejoin="round" stroke-width="1.3251600000000001" d="M437.128 152.655c0 5.68-4.607 10.287-10.288 10.287-5.682 0-10.288-4.606-10.288-10.287 0-5.682 4.606-10.287 10.288-10.287 5.68 0 10.288 4.605 10.288 10.287z" display="block"/>
    <path fill="none" stroke="#D2E2FB" stroke-linecap="round" stroke-linejoin="round" stroke-width="1.3251600000000001" d="M168.785 175.558a3.45 3.45 0 1 1-6.892-.25 3.447 3.447 0 0 1 3.571-3.32 3.447 3.447 0 0 1 3.321 3.57z" display="block"/>
    <g display="block">
      <path fill="#E6E7EA" d="M162.186 196.739c-2.26-7.576-2.445-8.22-4.258-14.26a.606.606 0 0 1 .736-.768l14.164 3.7c.455.12.612.67.296 1.004l-9.906 10.561a.613.613 0 0 1-1.032-.237z"/>
      <path fill="#E6E7EA" d="M162.186 196.739c-2.26-7.576-2.445-8.22-4.258-14.26a.606.606 0 0 1 .736-.768l14.164 3.7c.455.12.612.67.296 1.004l-9.906 10.561a.613.613 0 0 1-1.032-.237z"/>
      <path fill="#E6E7EA" d="M162.186 196.739c-2.26-7.576-2.445-8.22-4.258-14.26a.606.606 0 0 1 .736-.768l14.164 3.7c.455.12.612.67.296 1.004l-9.906 10.561a.613.613 0 0 1-1.032-.237z"/>
      <path fill="#E6E6E6" d="M162.185 196.733a4650.618 4650.618 0 0 0-4.26-14.26.61.61 0 0 1 .738-.765l14.167 3.702a.61.61 0 0 1 .29 1.006l-9.906 10.56a.61.61 0 0 1-1.029-.243z"/>
    </g>
    <g display="block">
      <path fill="#E6E7EA" d="m72.124 210.775 3.597 2.11c.45.265.605.863.341 1.312l-2.138 3.635a.962.962 0 0 1-1.322.342l-3.586-2.112a.948.948 0 0 1-.341-1.312l2.138-3.634a.95.95 0 0 1 1.311-.341z"/>
      <path fill="#FFF" d="m72.127 210.773 3.59 2.111a.962.962 0 0 1 .341 1.318l-2.134 3.633a.964.964 0 0 1-1.32.342l-3.588-2.111a.96.96 0 0 1-.342-1.317l2.134-3.633a.965.965 0 0 1 1.32-.343z"/>
    </g>
    <path fill="none" stroke="#E6E6E6" stroke-linecap="round" stroke-linejoin="round" stroke-width="1.3251600000000001" d="M28.156 223.906a8.687 8.687 0 0 0 5.145 8.776l19.065 8.402c4.384 1.93 9.513-.056 11.444-4.446a8.66 8.66 0 0 0 .701-2.68 8.69 8.69 0 0 0-5.14-8.77l-19.065-8.402a8.688 8.688 0 0 0-12.15 7.12z" display="block"/>
    <path fill="#D2E2FB" d="m396.786 146.44 6.195 8.246a2.386 2.386 0 0 1-.474 3.34l-8.344 6.27a2.386 2.386 0 0 1-3.34-.474l-6.195-8.246a2.385 2.385 0 0 1 .474-3.34l8.343-6.27a2.386 2.386 0 0 1 3.34.475z" display="block"/>
    <path fill="none" stroke="#4285F4" stroke-linecap="round" stroke-linejoin="round" stroke-width="1.3251600000000001" d="M253.228 245.226c-1.524 2.958-3.005 5.941-4.63 8.847-1.189 2.128-2.635 4.478-5.371 4.517-1.334.02-2.765-.05-3.949.675-.82.505-1.213 1.334-1.687 2.134 1.062.47 6.088 2.674 12.34 5.417l12.002 5.266 8.812 3.867 9.1-18.893" display="block"/>
    <path fill="#FABB05" d="M373.463 277.826h-35.22c-15.52 0-28.101-12.58-28.101-28.102 0-15.52 12.58-28.1 28.102-28.1h35.22c15.52 0 28.102 12.58 28.102 28.1 0 15.521-12.582 28.102-28.103 28.102z" display="block"/>
    <path fill="none" stroke="#4285F4" stroke-linecap="round" stroke-linejoin="round" stroke-width="1.2042000000000002" d="m248.215 243.037 31.403 14.635 5.9-12.422" display="block"/>
    <path fill="none" stroke="#4285F4" stroke-linecap="round" stroke-linejoin="round" stroke-width="1.24848" d="M248.115 242.738c1.9-3.736 13.404-26.256 20.262-37.625 6.37-10.56 16.29-21.664 30.266-21.529 2.416.023 4.858.455 7.298 1.218" display="block"/>
    <path fill="none" stroke="#4285F4" stroke-linecap="round" stroke-linejoin="round" stroke-width="1.2042000000000002" d="M319.96 215.122c5.274 1.272 10.57 2.446 15.844 3.715 5.109 1.23 10.283 2.442 15.556 2.626 4.694.163 9.684-.596 13.88-2.882 4.661-2.538 7.284-6.743 8.334-11.871 1.051-5.13.511-17.28-.284-26.659" display="block"/>
    <g clip-path="url(#b)" display="block" transform="matrix(.54 0 0 .54 -.27 .894)">
      <path fill="#fff" d="M0 0h1200v592H0z"/>
    </g>
    <path fill="none" stroke="#4285F4" stroke-linecap="round" stroke-linejoin="round" stroke-width="1.3251600000000001" d="m250.685 250.506 4.014 1.79M249.183 253.36l4.184 1.968" display="block"/>
    <path fill="#FFF" d="m303.891 224.561-2.656 31.051 8.703 17.053 6.606 1.649.638-18.702.834-.221 1.769-38.89-15.894 8.06z" display="block"/>
    <path fill="none" stroke="#4285F4" stroke-linecap="round" stroke-linejoin="round" stroke-width="1.2042000000000002" d="M284.935 255.256h33.08l1.845-40.543" display="block"/>
    <path fill="none" stroke="#4285F4" stroke-linecap="round" stroke-linejoin="round" stroke-width="1.3251600000000001" d="M288.055 256.041c-.207 3.322-.364 6.649-.682 9.963-.233 2.427-.612 5.158-3.102 6.294-1.213.554-2.552 1.066-3.342 2.206-.55.79-.576 1.71-.69 2.63 1.161.004 6.65.003 13.478 0l13.106-.003 9.622-.002.737-20.956" display="block"/>
    <path fill="none" stroke="#4285F4" stroke-linecap="round" stroke-linejoin="round" stroke-width="1.2042000000000002" d="M284.934 255.391c.164-3.892 1.204-27.38 2.683-39.646 1.374-11.393 5.747-24.626 18.5-29.942 14.796-6.168 38.325 2.79 53.828 9.946" display="block"/>
    <path fill="none" stroke="#4285F4" stroke-linecap="round" stroke-linejoin="round" stroke-width="1.3251600000000001" d="m287.85 261.9 4.394.024M287.622 265.115l4.623.12M347.631 147.647l.101-4.781M357.235 146.567l-2.035-6.233M353.9 126.505a8.763 8.763 0 1 1-9.302 14.85 8.763 8.763 0 0 1 9.302-14.85z" display="block"/>
    <path fill="none" stroke="#4285F4" stroke-linecap="round" stroke-linejoin="round" stroke-width="1.3251600000000001" d="M344.517 141.188c1.477-.428 2.663-1.618 3.015-3.014" display="block"/>
    <path fill="#4285F4" d="M357.196 130.042c.675-.29.963-1.113.588-1.744-2.472-4.165-7.79-5.953-12.505-3.993-4.72 1.962-7.222 7.005-6.011 11.699.183.708.964 1.085 1.644.818l6.75-2.653a.852.852 0 0 0 .528-.928l-.15-3.255a.219.219 0 0 1 .377-.16l2.105 2.214c.356.375.906.487 1.38.283l5.294-2.281z" display="block"/>
    <path fill="none" stroke="#4285F4" stroke-linecap="round" stroke-linejoin="round" stroke-width="1.3251600000000001" d="M353.372 195.267c2.183-2.463 3.203-5.786 3.58-8.981.98-8.286 1.454-16.042 1.532-24.944M309.608 178.54c2.335 5.367 2.971 5.787 4.769 8.366" display="block"/>
    <path fill="none" stroke="#4285F4" stroke-linecap="round" stroke-linejoin="round" stroke-width="1.3251600000000001" d="M323.499 168.491c-4.332 2.583-9.558 7.466-13.892 10.05M357.28 183.66l16.183.017-16.184-.016zM367.64 180.433v2.852M373.464 180.433l-15.763-.021M373.463 180.69c-.828-5.477-2.295-12.068-3.907-17.368-1.85-6.083-4.389-13.049-10.53-15.893-5.193-2.406-11.383-.754-15.016 3.574-6.04 7.196-7.565 16.799-9.662 28.487" display="block"/>
    <g clip-path="url(#c)" display="block" transform="matrix(.54 0 0 .54 0 .084)">
      <path fill="#fff" d="M0 0h1200v592H0z"/>
    </g>
    <path fill="none" stroke="#4285F4" stroke-linecap="round" stroke-linejoin="round" stroke-width="1.3251600000000001" d="M323.499 168.491c2.079 2.067 15.213 15.439 15.213 15.439M311.906 177.03s-3.075-2.57-3.31-2.782c-1.571-1.404-2.912-2.599-4.23-4.238-1.098-1.365-2.748-3.285-2.159-5.223.183-.601.57-1.116.868-1.67.297-.555.673-1.463.318-2.186" display="block"/>
    <path fill="none" stroke="#4285F4" stroke-linecap="round" stroke-linejoin="round" stroke-width="1.3251600000000001" d="m307.103 163.023-7.363-4.15c-.937-.528-1.956-1.121-2.539-2.058-.46-.742-.512-1.755.022-2.474.706-.955 2.021-.835 3.046-.555 1.248.343 2.361 1.03 3.554 1.513a74.101 74.101 0 0 1 7.372 3.468c1.691.912 4.987 2.757 4.987 2.757" display="block"/>
    <path fill="none" stroke="#4285F4" stroke-linecap="round" stroke-linejoin="round" stroke-width="1.3251600000000001" d="M311.195 158.767c-.478-.472-.85-1.045-1.14-1.648-.398-.824-1.02-2.085-.473-2.98.879-1.437 2.685-.212 3.588.521 2.671 2.165 4.738 4.938 6.613 7.792 1.032 1.573 2 3.185 2.967 4.796.25.415.498.83.749 1.243" display="block"/>
    <path fill="none" stroke="#4285F4" stroke-linejoin="round" stroke-width="2.38788" d="m290.212 144.952 19.415 12.263" display="block"/>
    <g display="block">
      <path fill="none" stroke="#4285F4" stroke-linecap="round" stroke-linejoin="round" stroke-width="1.2042000000000002" d="M373.988 189.818h-4.408V197.829c.015 1.947 1.135 3.722 2.772 4.78l1.112.717"/>
    </g>
    <g clip-path="url(#d)" display="block" transform="matrix(.54 0 0 .54 -12.42 -5.51)">
      <path fill="#fff" d="M0 0h1200v592H0z"/>
    </g>
    <path fill="#D2E2FB" d="m564.231 216.484-9.997 20.737-6.452 13.607 23.834 9.63 20.258-41.254-27.643-2.72z" display="block"/>
    <path fill="none" stroke="#4285F4" stroke-linecap="round" stroke-linejoin="round" stroke-width="1.3251600000000001" d="M564.186 216.591c-7.114 14.504-16.404 34.238-16.404 34.238l23.833 9.63 19.989-41.12" display="block"/>
    <g display="block">
      <path fill="#4285F4" d="M547.781 250.828c-2.208 4.567-3.617 7.116-4.507 8.503-1.397 2.178-3.431 2.096-4.409 2.047-.977-.048-2.12-.05-3.004.468-1.226.717-1.833 1.798-2.174 2.762a9916 9916 0 0 0 11.232 4.552c5.491 2.224 11.7.943 15.802-3.26l-3.148 8.362 6.196 2.507 7.847-16.312-23.835-9.63z"/>
      <path fill="none" stroke="#4285F4" stroke-linecap="round" stroke-linejoin="round" stroke-width="1.3251600000000001" d="M547.781 250.828c-2.208 4.567-3.617 7.116-4.507 8.503-1.397 2.178-3.431 2.096-4.409 2.047-.977-.048-2.12-.05-3.004.468-1.226.717-1.833 1.798-2.174 2.762a9916 9916 0 0 0 11.232 4.552c5.491 2.224 11.7.943 15.802-3.26l-3.148 8.362 6.196 2.507 7.847-16.312-23.835-9.63z"/>
    </g>
    <g display="block">
      <path fill="#4285F4" d="m621.055 259.447-.56 17.44-6.8.27-.557-8.26c-2.063 5.123-7.3 8.594-13.327 8.833-5.431.216-9.804-.105-10.869-.065-.086-.943.03-2.087.87-3.166.606-.776 1.673-1.203 2.597-1.55 1.441-.542 2.317-2.092 2.675-4.47.221-1.467.654-4.984.803-9.79l25.168.758z"/>
      <path fill="none" stroke="#4285F4" stroke-linecap="round" stroke-linejoin="round" stroke-width="1.3251600000000001" d="m621.055 259.447-.56 17.44-6.8.27-.557-8.26c-2.063 5.123-7.3 8.594-13.327 8.833-5.431.216-9.804-.105-10.869-.065-.086-.943.03-2.087.87-3.166.606-.776 1.673-1.203 2.597-1.55 1.441-.542 2.317-2.092 2.675-4.47.221-1.467.654-4.984.803-9.79l25.168.758z"/>
    </g>
    <path fill="#D2E2FB" d="m596.668 219.35.217 13.68-.998 25.66 25.217.65-.02-34.548-.002-3.563-24.414-1.88z" display="block"/>
    <path fill="none" stroke="#4285F4" stroke-linecap="round" stroke-linejoin="round" stroke-width="1.3251600000000001" d="M596.946 220.025c-.496 4.57-.76 14.956-.9 23.164-.142 8.313-.159 15.5-.159 15.5" display="block"/>
    <g display="block">
      <path fill="#D1E2FB" d="m621.054 221.15.014 2.74.2 36.018"/>
      <path fill="none" stroke="#4285F4" stroke-width="1.3251600000000001" d="m621.054 221.15.014 2.74.2 36.018"/>
    </g>
    <path fill="none" stroke="#4285F4" stroke-linecap="round" stroke-linejoin="round" stroke-width="1.3251600000000001" d="M609.246 141.607c5.235 8.271 7.628 17.039 8.419 26.713.936 11.453 1.233 23.692 4.815 34.884 1.879 5.877 1.995 11.376 2.4 17.898l-61.119-4.05s5.904-13.002 11.685-42.127c2.794-14.076 6.07-33.037 6.07-33.037s-2.034-1.61-1.673-3.713c.247-1.425.65-2.828.727-4.272.082-1.542-.364-3.058-.593-4.586-.411-2.765-1.85-5.771-.844-8.38" display="block"/>
    <g display="block">
      <path fill="#D2E2FB" d="M527.42 134.442c.373 4.387-2.648 9.492-3.08 14.055a6.194 6.194 0 0 0-.636.611c-.715.79-.84 1.27-3.296 1.946-1.065.292-5.653-.339-5.034-2.004.487-1.31 3.47-1.857 5.225-2.09.753-.1 1.28-.14 1.29-.16-3.152-.087-5.788.177-8.891-.381-1.207 1.43-2.925 3.556-3.695 4.048-.435.327-1.85 1.31-3.282 2.02-1.449.717-2.63 1.026-3.21.28-.879-1.128.137-2.91 1.334-3.833.234-.181.383-7.089.845-8.954.134-.536 1.202-2.747 2.196-3.284 2.079-1.12 3.757-1.984 6.055-2.527 1.246-.294 6.373-.276 9.622-.216 1.538.029 4.468.47 4.557.489z"/>
      <path fill="none" stroke="#4285F4" stroke-linecap="round" stroke-linejoin="round" stroke-width="1.3251600000000001" d="M522.278 146.519c-3.138-.352-6.955.307-9.383.166-.505-.024-1.604 2.171-3.52 3.73-.09.072-2.946 2-3.292 2.165-.8.38-1.573.628-2.22.642-.474.01-.88-.105-1.177-.381-1.093-1.235.6-3.204 1.34-4.098 1.262-1.527 5.657-7.04 7.2-7.512 1.542-.472 3.688-.453 5.301-.444M527.32 134.472c-3.775-.216-10.329-.915-14.045-.317-3.246.521-5.376 1.236-7.33 4.496-1.189 1.983-1.066 4.672-.896 4.742"/>
      <path fill="none" stroke="#4285F4" stroke-linecap="round" stroke-linejoin="round" stroke-width="1.3251600000000001" d="M515 137.535c-1.563.118-3.122.4-4.633.838-1.328.386-5.871 2.55-5.009 8.609M524.282 148.616s-.469 1.135-.945 1.344c-1.075.47-1.138.778-3.28 1.162-.511.092-4.823.376-4.855-1.465-.038-2.243 2.924-1.826 4.313-2.311 1.53-.533 1.267-.147 2.762-.826"/>
    </g>
    <path fill="#4285F4" d="M598.779 91.343c3.33 2.214 3.984 6.5 7.786 8.442 1.609.82 3.744 1.6 5.454 3.09 1.385 1.208 2.263 3.536 2.248 5.284-.022 2.565-2.87 5.557-3.581 6.251-4.695-2.285-9.261-2.151-13.738-1.434-.146.023-14.832 4.045-14.981 4.041-1.602-.047-2.777-2.674-2.943-3.042-1.124-2.485.293-7.395.797-8.469.484-1.032 4.153-6.891 6.294-11.139 2.757-5.472 9.965-4.787 12.664-3.024z" display="block"/>
    <g clip-path="url(#e)" display="block" transform="matrix(.54 0 0 .54 .235 .2)">
      <path fill="#fff" d="M0 0h1200v592H0z"/>
    </g>
    <path fill="none" stroke="#4285F4" stroke-linecap="round" stroke-linejoin="round" stroke-width="1.3251600000000001" d="M579.008 139.095s-2.145 3.593-6.23 8.487c-3.21 3.847-7.154 6.494-13.017 8.722-1.343.509-4.445 1.012-5.878 1.07a25.002 25.002 0 0 1-7.617-.86c-2.282-.624-4.475-1.572-6.789-2.072-4.897-1.061-11.053-.418-14.595-4.232M524.882 150.21l3.105-18.366M555.41 135.573l-27.56-3.776 27.56 3.776zM586.823 110.832s-1.544.337-2.453.477c-2.62.404-4.406.96-6.575 1.762a23.702 23.702 0 0 0-5.719 3.038c-8.353 6.062-12.31 10.074-16.794 19.37M609.38 141.742s.542-6.71.906-8.779M609.555 141.877h-27.633" display="block"/>
    <g clip-path="url(#f)" display="block" transform="rotate(5 599.631 136.753) scale(.54)">
      <path fill="#fff" d="M0 0h1200v592H0z"/>
    </g>
    <path fill="#D2E2FB" d="M611.195 190.365c-.217 1.645-.811 4.09.359 5.269.135.138.298.265.488.288.254.03.49-.131.687-.294 1.864-1.535 3.321-4.39 4.257-6.616a55.329 55.329 0 0 0-.066 8.698c.083 1.18.245 2.448 1.05 3.314.806.865 2.481.976 3.03-.071-.317.795.831 2.498 1.686 2.55.855.052 1.295-1.286 1.892-1.9-.213.31.536 1.023.855 1.223.318.199.727.194 1.095.12 1.262-.255 1.755-1.548 2.045-2.802.968.743 2.475-.056 2.938-1.185.463-1.132.593-4.827.647-6.048.246-5.599 1.005-11.526.36-16.696-5.1-1.517-11.11.503-16.461.38-1.574-.035-1.604.441-2.224 1.926a27.954 27.954 0 0 0-1.254 3.83c-.67 2.63-1.027 5.327-1.384 8.014z" display="block"/>
    <path fill="none" stroke="#4285F4" stroke-linecap="round" stroke-linejoin="round" stroke-width="1.3251600000000001" d="M616.719 188.765c-1.196 1.673-1.949 3.54-3.145 5.213-.559.782-1.356 1.663-2.294 1.444-.548-.127-.95-.63-1.096-1.175-.144-.544-.071-1.122.053-1.67.231-1.023.636-1.996 1.036-2.964 1.745-4.205 1.327-9.281 4.17-12.837M628.743 200.52c1.125.024 2.133-.84 2.572-1.873 1.035-2.439 1.677-15.212 1.17-22.018M628.776 187.097c.352 4.779.768 8.954-.21 13.135-.208.889-.627 1.774-1.354 2.321-.728.549-2.117.577-2.599-.448M621.297 186.563c.276 4.207.622 8.897-.147 13.049-.186.998-.624 2.18-1.61 2.339-.608.099-1.213-.27-1.568-.778-.357-.506-.51-1.131-.635-1.743-.3-1.483-.376-1.858-.421-3.372-.092-3.084.235-6.88.008-10.312" display="block"/>
    <path fill="none" stroke="#4285F4" stroke-linecap="round" stroke-linejoin="round" stroke-width="1.3251600000000001" d="M625.256 186.836c.17 2.849.403 7.91.268 10.76-.067 1.434-.221 2.9-.846 4.193-.246.511-.578 1.002-1.051 1.315-.475.314-1.113.424-1.62.168-.569-.289-1.382-1.465-1.407-2.103" display="block"/>
    <g clip-path="url(#g)" display="block" transform="rotate(5 599.631 136.753) scale(.54)">
      <path fill="#fff" d="M0 0h1200v592H0z"/>
    </g>
    <path fill="none" stroke="#4285F4" stroke-linecap="round" stroke-linejoin="round" stroke-width="1.3251600000000001" d="M613.6 177.432s-.467-19.379-1.258-27.045c-.792-7.666-5.976-29.051-5.976-29.051" display="block"/>
    <path fill="none" stroke="#4285F4" stroke-linecap="round" stroke-linejoin="round" stroke-width="1.3251600000000001" d="m598.986 108.728 6.543 1.679a29.434 29.434 0 0 1 5.823 2.125 23.88 23.88 0 0 1 2.438 1.372c10.32 6.793 13.98 19.68 14.755 31.386.271 4.11 1.054 8.012 2.408 11.875 1.275 3.634 2.005 4.287 2.705 8.08.704 3.808-.14 8.02-1.164 11.703M632.495 176.948l-18.895.484" display="block"/>
    <path fill="#D2E2FB" d="M588.983 110.013c-.08.853-.923 1.157-2.268 1.27-.3.026.305-.005 0 0-1.75.034-3.493.355-5.14.945.305 1.816.66 3.738 1.894 5.107.93 1.03 2.276 1.623 3.648 1.827 1.373.205 4.292.028 5.65-.258 2.17-.46 4.374-.757 6.15-2.085 1.776-1.327 5.11-3.659 5.628-5.814-1.29-.13-5.38-.382-6.347-1.107-1.294-.972-.657-2.902-1.053-4.471-.998.232-3.73.407-4.748.525-.867.1-1.04-.284-1.872-.055-1.431.396-1.228 2.94-1.542 4.116z" display="block"/>
    <g display="block">
      <path fill="#D2E2FB" d="M597.955 92.918a7.568 7.568 0 1 1-9.312 11.933 7.568 7.568 0 0 1 9.312-11.933z"/>
      <path fill="none" stroke="#4285F4" stroke-linecap="round" stroke-linejoin="round" stroke-width="1.3251600000000001" d="M597.955 92.918a7.568 7.568 0 1 1-9.312 11.933 7.568 7.568 0 0 1 9.312-11.933z"/>
    </g>
    <path fill="#4285F4" d="M587.856 93.706c2.936 2.12 9.448 3.447 12.928 3.21l-1.413-2.55-1.957-1.832-3.131-1.76-3.6.382-2.827 2.55z" display="block"/>
    <path fill="#4285F4" d="M585.924 97.482c.98-4.183 3.815-4.367 3.85-4.988l-1.243.587-1.715 1.894-.892 2.507z" display="block"/>
    <path fill="none" stroke="#4285F4" stroke-linecap="round" stroke-linejoin="round" stroke-width="1.3251600000000001" d="M587.695 102.096c.805.249 1.79.13 2.713-.126.923-.255 1.936-.964 2.635-1.618M581.202 112.05c0 4.118 2.413 7.2 8.782 7.253 5.502.048 12.285-3.17 14.426-8.4" display="block"/>
    <path fill="#7BB0F1" d="M121.903 108.698c-.224-.05-.457-.112-.678-.054-.408.107-.603.56-.74.958l-.9 2.604c-.08.226-.17.47-.37.606-.131.09-.292.12-.448.149l-4.087.735c-.034.697.609 1.215 1.189 1.604 1.382.925 2.815 1.835 4.427 2.253 1.108.287 2.261.332 3.405.37 1.963.065 3.966.107 5.853-.44a9.697 9.697 0 0 0 4.462-2.793c.105-.116.21-.241.238-.395.05-.277-.18-.542-.447-.635-.266-.092-.557-.061-.838-.042a8.752 8.752 0 0 1-2.587-.206c-.19-.044-.388-.101-.52-.243-.106-.116-.154-.271-.2-.421l-.915-3.023c-.222-.733-.285-1.34-1.14-1.344-.834-.004-1.732.34-2.567.43-1.045.115-2.108.121-3.137-.113z" display="block"/>
    <path fill="#4285F4" d="M116.328 98.666c-.358 1.683-2.851 2.437-3.77 3.772-.952 1.385-.785 3.97-2.173 4.872-1.387.9-3.682-.303-5.333.003-1.593.296-3.296 2.266-4.98 1.909-1.683-.358-2.437-2.851-3.772-3.77-1.385-.952-3.97-.784-4.871-2.172-.9-1.387.303-3.682-.003-5.333-.296-1.593-2.267-3.296-1.909-4.98.358-1.683 2.85-2.438 3.768-3.773.953-1.384.787-3.97 2.174-4.872 1.387-.9 3.681.305 5.333-.003 1.593-.295 3.296-2.265 4.98-1.907 1.684.358 2.438 2.85 3.773 3.768 1.384.952 3.97.786 4.87 2.172.901 1.388-.303 3.682.004 5.333.296 1.594 2.266 3.297 1.909 4.98z" display="block"/>
    <path fill="none" stroke="#4285F4" stroke-linecap="round" stroke-linejoin="round" stroke-width="1.3251600000000001" d="m122.02 259.053-1.174 18.063h7.72l.44-3.74c1.506 2.64 5.241 3.76 11.38 3.74l12.907-.007c.178-1.02.18-2.251-.543-3.375-.52-.811-1.526-1.238-2.409-1.56-.883-.32-2.746-.999-2.863-3.549-.072-1.571-.067-4.395.264-9.572h-25.723z" display="block"/>
    <g display="block">
      <path fill="none" stroke="#4285F4" stroke-linecap="round" stroke-linejoin="round" stroke-width="1.3251600000000001" d="M138.888 143.783c9.042 38.157 12.294 62.05 10.52 88.47-.535 7.956-1.263 18.741-1.665 26.8M111.279 145.68s-1.636 3.257-2.903 5.748c-6.437 12.645-11.137 24.882-13.954 38.499-.47 2.271-19.95 64.46-19.95 64.46l33.205 6.235m21.134-97.881c-.602 14.073-2.393 27.454-6.11 43.744-1.52 6.664-3.364 13.815-5.58 21.699-2.63 9.351-5.476 21.525-9.37 32.469M147.443 259.055h-31.765l1.648-30.62"/>
      <path fill="none" stroke="#4285F4" stroke-linecap="round" stroke-linejoin="round" stroke-width="1.3251600000000001" d="m80.154 272.125-6.872-1.737 1.014-5.653 2.189-10.117M103.696 259.987c-.773 3.291-2.543 9.348-2.069 11.572.07.332.158.549.263.622.81.566 1.725 1.263 2.11 2.17.097.23.166.48.213.74.177.979.1 1.698-.108 2.461-.04.144-1.916-.039-1.958.076-1.019-.315-3.56-.418-8.748-2.03-5.76-1.791-9.921-6.5-10.586-11.982l-2.677 7.834"/>
    </g>
    <g display="block">
      <path fill="none" stroke="#4285F4" stroke-linecap="round" stroke-linejoin="round" stroke-width="1.3251600000000001" d="M111.254 142.007c-.039-.153-.938-5.267-1.717-7.648M140.43 122.867c.327 5.532-.135 10.214-.775 15.154-.242 1.864-.17 2.11-.429 4.107M114.879 114.059c3.611 3.549 8.505 4.734 13.447 3.635 2.36-.525 4.664-1.68 6.112-3.617"/>
      <path fill="#FFF" d="M111.279 145.678h27.907v-3.567H111.28v3.567z"/>
      <path fill="none" stroke="#4285F4" stroke-linecap="round" stroke-linejoin="round" stroke-width="1.3251600000000001" d="M111.279 145.678h27.907v-3.567H111.28v3.567z"/>
      <path fill="#FFF" d="M132.527 145.678h-4.617v-3.567h4.617v3.567z"/>
      <path fill="none" stroke="#4285F4" stroke-linecap="round" stroke-linejoin="round" stroke-width="1.3251600000000001" d="M132.527 145.678h-4.617v-3.567h4.617v3.567z"/>
    </g>
    <path fill="#7BB0F1" d="M85.074 160.33c.324 2.963-.578 14.874-1.08 16.864-.292 1.167-.901 2.248-1.068 3.44-.045.327-4.17 8.73-4.005 9.015-.533.784-3.569 5.476-3.12 5.806.145.362 2.754 1.218 5.202 2.482 2.667 1.379 5.24 3.147 6.69 2.855.177-.035 5.24-2.728 5.37-2.852 2.792-2.66 6.55-15 6.55-15.552-.007-3.273 1.401-6.479 1.067-9.736-.429-4.194.892-8.583-.035-12.697-1.491.411-14.783.403-15.571.376z" display="block"/>
    <path fill="#FFF" d="M87.604 148.713c-.72 3.02-1.046 3.955-1.547 5.945-.292 1.167-1.231 5.218-1.398 6.41-.046.328 15.123-.714 16.07-1.102.41-1.589 1.465-5.489 2.383-8.908-1.492.41-14.72-2.318-15.508-2.345z" display="block"/>
    <g display="block">
      <path fill="none" stroke="#4285F4" stroke-linecap="round" stroke-linejoin="round" stroke-width="1.3251600000000001" d="M112.425 126.438c-2.534 3.524-9.249 19.075-11.675 33.426M85.016 159.983c-.776-25.902 11.373-42.102 27.903-46.077 2.822-.678 5.985-1.057 5.985-1.057"/>
    </g>
    <g display="block">
      <path fill="none" stroke="#4285F4" stroke-linecap="round" stroke-linejoin="round" stroke-width="1.3251600000000001" d="M100.99 160.324c-.12 6.526-.489 19.94-2.382 26.188-1.893 6.246-5.854 13.197-11.669 14.381-1.371.28-1.848-.205-2.296-1.062M84.134 176.634c.026-1.95.098-3.942.188-5.864.203-4.33.502-8.307.603-10.666M85.45 185.726c-.412 2.192-4.667 9.094-7.074 10.367-1.588.84-2.738-.468-2.045-2.078.45-1.052 1.306-1.9 1.974-2.805 2.01-2.72 3.036-5.59 3.681-8.643.512-2.411 1.1-4.435 2.159-5.901"/>
      <path fill="none" stroke="#4285F4" stroke-linecap="round" stroke-linejoin="round" stroke-width="1.3251600000000001" d="M93.074 189.346c-1.4 3.486-3.657 6.513-6.609 8.943-.77.631-1.638 1.232-2.63 1.306-.993.075-2.1-.575-2.19-1.567M89.723 187.163c-1.055 3.03-4.495 7.202-6.722 9.132-.724.627-1.56 1.25-2.518 1.247-.958-.003-1.407-1.182-1.414-1.895M85.44 169.249l15.14.06"/>
      <path fill="#FFF" d="M96.398 171.63a3.3 3.3 0 1 1-4.573-4.76 3.3 3.3 0 0 1 4.573 4.76z"/>
      <path fill="none" stroke="#4285F4" stroke-linecap="round" stroke-linejoin="round" stroke-width="1.3251600000000001" d="M96.398 171.63a3.3 3.3 0 1 1-4.573-4.76 3.3 3.3 0 0 1 4.573 4.76z"/>
      <path fill="none" stroke="#4285F4" stroke-linecap="round" stroke-linejoin="round" stroke-width="1.3251600000000001" d="m94.657 168.463-.563.812.521.834M85.194 161.264l15.618-.93"/>
    </g>
    <g display="block">
      <path fill="none" stroke="#4285F4" stroke-linecap="round" stroke-linejoin="round" stroke-width="1.3251600000000001" d="m119.183 113.102 1.192-5.428"/>
    </g>
    <g display="block">
      <path fill="#7BB0F1" d="M130.234 94.034a8.315 8.315 0 0 1 .933 11.722 8.315 8.315 0 0 1-11.722.933 8.315 8.315 0 0 1-.933-11.722 8.315 8.315 0 0 1 11.722-.933z"/>
      <path fill="none" stroke="#4285F4" stroke-linecap="round" stroke-linejoin="round" stroke-width="1.3251600000000001" d="M130.234 94.034a8.315 8.315 0 0 1 .933 11.722 8.315 8.315 0 0 1-11.722.933 8.315 8.315 0 0 1-.933-11.722 8.315 8.315 0 0 1 11.722-.933z"/>
    </g>
    <path fill="none" stroke="#4285F4" stroke-linecap="round" stroke-linejoin="round" stroke-width="1.3251600000000001" d="M163.273 138.632c-2.313-3.124-7.215-9.74-9.589-12.818-2.674-3.468-5.884-7.046-9.79-9.126-6.11-3.252-13.984-3.327-13.984-3.327l-1.55-5.465" display="block"/>
    <path fill="#4285F4" d="M127.977 92.6c-1.354-.232-3.42-.718-4.759-.417-1.52.341-3.322 1.518-4.405 2.636-.745.769-1.412 1.624-1.882 2.586-.878 1.793-.413 4.207.124 6.13.44 1.575 1.815 2.768 3.043 3.914.48.448 2.34-2.402 2.472-3.64.006-.055-.574-.482-.647-.56a3.04 3.04 0 0 1-.5-.726c-.281-.56-.36-1.27-.164-1.869.428-1.309 1.994-1.2 2.81-.34 1.895-2.24 3.308-4.995 3.908-7.714z" display="block"/>
    <g display="block">
      <path fill="none" stroke="#FFF" stroke-linecap="round" stroke-linejoin="round" stroke-width="1.3251600000000001" d="M129.208 101.359c.824.617 2.624.14 3.19-1.021"/>
    </g>
    <path fill="#4285F4" d="M124.584 91.738c4.206.627 5.69 2.179 8.475 5.163 0 0-.734-1.5-3.283-3.491-2.288-1.788-5.192-1.672-5.192-1.672" display="block"/>
    <path fill="#7BB0F1" d="M185.231 127.607c.198-.906.743-4.992.94-5.898 4.645-1.232 9.662-1.485 13.807-3.916.443-.26.896-.57 1.105-1.039.335-.75-.194-1.747-1.004-1.889a4.46 4.46 0 0 0 1.394-2.368c.057-.256.09-.528.015-.78-.227-.782-1.248-.938-2.063-.947.491-.665.763-1.57.438-2.33-.326-.76-1.4-1.18-2.038-.653.529-.83.024-2.168-.955-2.292-.464-.058-.92.134-1.353.316-1.548.651-3.13 1.221-4.737 1.708-1.301.395-2.63.736-3.988.802-1.557.077-3.106-.21-4.66-.323-1.555-.112-3.186-.034-4.557.708-.683.37-1.272.889-1.821 1.437a19.32 19.32 0 0 0-4.962 8.573c-.174.644-1.686 4.572-1.081 5.039.59.458 2.537.522 3.237.742a109.909 109.909 0 0 0 12.283 3.11z" display="block"/>
    <g display="block">
      <path fill="none" stroke="#4285F4" stroke-linecap="round" stroke-linejoin="round" stroke-width="1.3251600000000001" d="M139.813 139.457c8.214 9.98 14.94 20.093 27.028 18.823"/>
    </g>
    <g display="block">
      <path fill="none" stroke="#4285F4" stroke-linecap="round" stroke-linejoin="round" stroke-width="1.3251600000000001" d="M167.842 158.088c6.878-1.09 10.252-6.52 11.995-10.35 3.108-6.833 5.642-19.478 6.21-26.376M169.712 123.754l15.158 3.967M163.797 139.053l6.74-18.451M186.762 111.202c3.68.372 7.485-.684 10.447-2.9.553-.413 1.13-.989 1.04-1.673-.096-.719-.925-1.142-1.648-1.078-.721.063-1.36.468-1.993.822a16.6 16.6 0 0 1-7.025 2.065c-2.206.137-4.418-.167-6.625-.068-2.208.098-4.52.67-6.072 2.242-1.543 1.564-3.473 7.523-4.35 9.99"/>
      <path fill="none" stroke="#4285F4" stroke-linecap="round" stroke-linejoin="round" stroke-width="1.3251600000000001" d="M197.625 107.954c1.046-.707 2.253-.206 2.44.72.215 1.06-.709 1.989-1.585 2.626-3.213 2.338-7.106 3.08-11.163 2.875"/>
      <path fill="none" stroke="#4285F4" stroke-linecap="round" stroke-linejoin="round" stroke-width="1.3251600000000001" d="M198.703 111.152c1.046-.707 2.253-.206 2.44.72.215 1.062-.708 1.99-1.585 2.628-3.213 2.337-7.105 3.08-11.162 2.874"/>
      <path fill="none" stroke="#4285F4" stroke-linecap="round" stroke-linejoin="round" stroke-width="1.3251600000000001" d="M199.905 114.363c.481.06.844.447 1.09.865.325.554.222 1.282-.134 1.816-.356.536-.906.907-1.456 1.24-3.89 2.344-8.83 3.436-13.359 3.077"/>
    </g>
    <path fill="none" stroke="#4285F4" stroke-linejoin="round" stroke-width="2.38788" d="m196.452 78.284-2.633 27.102-24.126 4.724" display="block"/>
    <path fill="#D2E2FB" d="M46.976 167.743 33.45 277.118h80.028l-7.459-86.582" display="block"/>
    <g display="block">
      <path fill="none" stroke="#FFF" stroke-linecap="round" stroke-linejoin="round" stroke-width="1.3251600000000001" d="M93.86 191.908c-3.259 10.985-19.389 62.478-19.389 62.478l33.206 6.237m3.461-10.528c-1.042 3.556-2.163 7.117-3.386 10.557"/>
      <path fill="none" stroke="#FFF" stroke-linecap="round" stroke-linejoin="round" stroke-width="1.3251600000000001" d="m80.154 272.125-6.872-1.737 1.014-5.653 2.189-10.117M103.696 259.987c-.773 3.291-2.543 9.348-2.069 11.572.07.332.158.549.263.622.81.566 1.725 1.263 2.11 2.17.097.23.166.48.213.74.177.979.033 2.103-.176 2.867-.039.144-1.916-.04-1.958.075-1.019-.315-3.491-.823-8.68-2.435-5.76-1.791-9.921-6.5-10.586-11.982l-2.677 7.834"/>
    </g>
    <path fill="#D2E3FC" d="M81.9 182.417c-.498 1.094-2.542 8.152-3.96 9.682-.533.785-2.588 3.026-2.139 3.356.145.362 2.754 1.218 5.202 2.482 2.667 1.379 5.24 3.147 6.69 2.855.177-.035 5.236-2.732 5.37-2.852-.004-.16 5.043-7.652 4.993-9.532-.567-.122-16.07-6.464-16.155-5.99z" display="block"/>
    <g display="block">
      <path fill="none" stroke="#4285F4" stroke-linecap="round" stroke-linejoin="round" stroke-width="1.3251600000000001" d="M98.198 187.677c-2.07 5.706-6.01 12.147-11.259 13.216-1.371.28-1.848-.205-2.296-1.062M85.45 185.726c-.412 2.192-4.667 9.094-7.074 10.367-1.588.84-2.738-.468-2.045-2.078.45-1.052 1.306-1.9 1.974-2.805 2.01-2.72 3.17-6.603 3.816-9.655"/>
      <path fill="none" stroke="#4285F4" stroke-linecap="round" stroke-linejoin="round" stroke-width="1.3251600000000001" d="M93.074 189.346c-1.4 3.486-3.657 6.513-6.609 8.943-.77.631-1.638 1.232-2.63 1.306-.993.075-2.1-.575-2.19-1.567M89.723 187.163c-1.055 3.03-4.495 7.202-6.722 9.132-.724.627-1.56 1.25-2.518 1.247-.958-.003-1.407-1.182-1.414-1.895"/>
    </g>
    <path fill="none" stroke="#FFF" stroke-linecap="round" stroke-linejoin="round" stroke-width="1.3251600000000001" d="m38.081 235.005 14.285 6.08c4.384 1.93 9.513-.057 11.444-4.447a8.66 8.66 0 0 0 .701-2.68 8.69 8.69 0 0 0-5.14-8.77l-19.34-8.409-1.95 18.226z" display="block"/>
  </g>
</svg>
