<svg width="224" height="224" viewBox="0 0 224 224" fill="none" xmlns="http://www.w3.org/2000/svg">
<g clip-path="url(#clip0_5909_157407)">
<path d="M79.1079 205.546C30.444 192.926 8.91804 137.386 20.0498 94.3237C31.1851 51.2709 75.4438 19.711 124.111 32.3408C172.775 44.9613 205.296 91.2844 194.164 134.347C183.032 177.409 127.766 218.179 79.1114 205.555L79.1079 205.546Z" fill="#474747"/>
<path d="M107.077 55.1027L52.2839 66.3729C35.4708 69.8311 24.6446 86.2642 28.1029 103.077L39.373 157.87C42.8313 174.683 59.2644 185.509 76.0774 182.051L130.87 170.781C147.683 167.323 158.51 150.89 155.051 134.077L143.781 79.2837C140.323 62.4707 123.89 51.6444 107.077 55.1027Z" fill="#00639B" stroke="black"/>
<path d="M96.4591 86.3202C99.647 91.8055 97.7846 98.8365 92.2993 102.024C86.814 105.212 79.7829 103.35 76.595 97.8646C73.4071 92.3793 75.2695 85.3482 80.7549 82.1603C86.2402 78.9724 93.2712 80.8348 96.4591 86.3202Z" fill="#7FCFFF" stroke="black"/>
<path d="M89.1001 108.385L89.8218 108.271L89.8174 108.264C95.5836 107.438 102.693 107.392 108.823 110.002C115.172 112.704 120.532 118.28 122.241 128.993C123.695 138.217 121.338 144.707 117.356 149.152C116.92 149.621 116.18 149.414 116.033 148.922C115.09 145.547 113.519 143.043 111.641 141.168L111.638 141.165C106.61 136.212 99.1777 136.127 93.6144 137.007C88.0517 137.887 80.9974 140.254 77.7496 146.561L77.5621 146.925L77.8822 147.181C80.5405 149.303 84.6669 150.712 91.0082 150.372C93.3777 150.247 95.4435 151.828 95.8007 154.126L95.8007 154.127C96.2159 156.787 94.193 159.182 91.5135 159.317C86.703 159.518 81.4786 158.974 76.827 156.899C70.7299 154.161 65.5931 148.58 63.943 138.149C62.2548 127.458 65.6292 120.514 70.8333 115.995C76.0707 111.446 83.213 109.31 89.1001 108.385ZM83.4402 126.98C84.1676 131.598 88.5378 134.784 93.1564 134.056C97.7743 133.329 100.96 128.958 100.232 124.34C99.5049 119.722 95.1348 116.536 90.5161 117.264C85.8983 117.991 82.7127 122.361 83.4402 126.98Z" fill="#7FCFFF" stroke="black"/>
<path d="M183.184 33.5927L143.235 27.9505C131.498 26.2926 115.901 44.8891 109 54.4997L107 54.9997C104 71.9997 115.989 87.4531 132.455 89.7787L133.477 89.9231L132.455 99.4032C132.111 101.835 134.707 103.592 136.838 102.376L138.786 101.328C138.786 101.328 182.896 33.2084 183.184 33.5927Z" fill="black"/>
<path d="M183.184 33.5926L143.235 27.9503C126.785 25.6269 111.549 37.0779 109.224 53.5437C106.9 69.994 118.351 85.23 134.817 87.5556L135.839 87.7L134.389 97.9698C134.045 100.402 136.641 102.159 138.772 100.943L156.892 90.6577L174.752 93.1802C191.203 95.5036 206.439 84.0526 208.764 67.5868C211.088 51.1365 199.637 35.9005 183.171 33.5749L183.184 33.5926Z" fill="#4C8DF6" stroke="black"/>
<path d="M140.337 64.3527C136.881 63.8646 134.475 60.6671 134.963 57.2109C135.452 53.7548 138.649 51.3487 142.105 51.8368C145.561 52.325 147.967 55.5225 147.479 58.9786C146.991 62.4348 143.794 64.8409 140.337 64.3527Z" fill="#0842A0"/>
<path d="M158.151 66.8693C154.695 66.3812 152.289 63.1837 152.777 59.7275C153.265 56.2714 156.463 53.8653 159.919 54.3534C163.375 54.8416 165.781 58.0391 165.293 61.4952C164.805 64.9514 161.607 67.3575 158.151 66.8693Z" fill="#0842A0"/>
<path d="M175.964 69.3847C172.508 68.8966 170.102 65.6991 170.59 62.2429C171.079 58.7867 174.276 56.3807 177.732 56.8688C181.188 57.357 183.594 60.5545 183.106 64.0106C182.618 67.4668 179.421 69.8728 175.964 69.3847Z" fill="#0842A0"/>
<path d="M161 171L171 187.5M168 161.5L198 176M174.5 150H196.5" stroke="white" stroke-linecap="round"/>
</g>
<defs>
<clipPath id="clip0_5909_157407">
<rect width="224" height="224" rx="28" fill="white"/>
</clipPath>
</defs>
</svg>
