<svg width="224" height="224" viewBox="0 0 224 224" fill="none" xmlns="http://www.w3.org/2000/svg">
<g clip-path="url(#clip0_5909_157435)">
<path d="M79.1079 205.546C30.444 192.926 8.91804 137.386 20.0498 94.3237C31.1851 51.2709 75.4438 19.711 124.111 32.3408C172.775 44.9613 205.296 91.2844 194.164 134.347C183.032 177.409 127.766 218.179 79.1114 205.555L79.1079 205.546Z" fill="#F2F2F2"/>
<path d="M107.077 55.1027L52.2838 66.3729C35.4707 69.8311 24.6445 86.2642 28.1027 103.077L39.3729 157.87C42.8311 174.683 59.2642 185.509 76.0773 182.051L130.87 170.781C147.683 167.323 158.509 150.89 155.051 134.077L143.781 79.2837C140.323 62.4707 123.89 51.6444 107.077 55.1027Z" fill="#C2E7FF" stroke="black" stroke-linejoin="round"/>
<path d="M92.5504 102.457C98.2745 99.1301 100.218 91.793 96.8913 86.0689C93.5646 80.3449 86.2276 78.4014 80.5035 81.728C74.7794 85.0547 72.8359 92.3917 76.1626 98.1158C79.4893 103.84 86.8263 105.783 92.5504 102.457Z" fill="#3998D3" stroke="black"/>
<path d="M89.0224 107.891C77.1692 109.754 60.0213 116.519 63.4491 138.227C65.1237 148.813 70.3609 154.543 76.6226 157.356C81.3692 159.473 86.6788 160.019 91.5364 159.817C94.5021 159.669 96.7575 157.015 96.2947 154.049C95.8953 151.479 93.5881 149.735 90.9817 149.873C84.7253 150.209 80.731 148.815 78.1941 146.79C81.3263 140.707 88.1639 138.375 93.6926 137.501C99.2212 136.626 106.438 136.744 111.287 141.522C113.104 143.335 114.632 145.764 115.553 149.06C115.823 149.981 117.064 150.205 117.726 149.489C121.82 144.92 124.21 138.274 122.735 128.915C119.266 107.165 100.868 106.015 89.0152 107.878L89.0224 107.891ZM93.0786 133.562C88.7331 134.247 84.6186 131.248 83.9341 126.902C83.2496 122.557 86.2485 118.442 90.5939 117.758C94.9394 117.073 99.0539 120.072 99.7384 124.418C100.423 128.763 97.4241 132.878 93.0786 133.562Z" fill="#3998D3" stroke="black" stroke-linejoin="round"/>
<path d="M183.184 33.5927L143.236 27.9505C131.498 26.2926 115.901 44.8891 109 54.4997L107 54.9997C104 71.9997 115.989 87.4531 132.455 89.7787L133.477 89.9231L132.455 99.4032C132.112 101.835 134.707 103.592 136.838 102.376L138.786 101.328C138.786 101.328 182.896 33.2084 183.184 33.5927Z" fill="black"/>
<path d="M183.184 33.5926L143.235 27.9503C126.785 25.6269 111.549 37.0779 109.224 53.5437C106.9 69.994 118.351 85.23 134.817 87.5556L135.839 87.7L134.389 97.9698C134.045 100.402 136.641 102.159 138.772 100.943L156.892 90.6577L174.752 93.1802C191.203 95.5036 206.439 84.0526 208.764 67.5868C211.088 51.1365 199.637 35.9005 183.171 33.5749L183.184 33.5926Z" fill="#1B6EF3" stroke="black"/>
<path d="M140.337 64.3527C136.881 63.8646 134.475 60.6671 134.963 57.2109C135.451 53.7548 138.649 51.3487 142.105 51.8368C145.561 52.325 147.967 55.5225 147.479 58.9786C146.991 62.4348 143.794 64.8409 140.337 64.3527Z" fill="#ECF3FE"/>
<path d="M158.151 66.8693C154.695 66.3812 152.289 63.1837 152.777 59.7275C153.265 56.2714 156.462 53.8653 159.919 54.3534C163.375 54.8416 165.781 58.0391 165.293 61.4952C164.805 64.9514 161.607 67.3575 158.151 66.8693Z" fill="#ECF3FE"/>
<path d="M175.964 69.3847C172.508 68.8966 170.102 65.6991 170.59 62.2429C171.078 58.7867 174.276 56.3807 177.732 56.8688C181.188 57.357 183.594 60.5545 183.106 64.0106C182.618 67.4668 179.42 69.8728 175.964 69.3847Z" fill="#ECF3FE"/>
<path d="M159 170.5L169 187M166 161L196 175.5M172.5 149.5H194.5" stroke="black" stroke-linecap="round"/>
</g>
<defs>
<clipPath id="clip0_5909_157435">
<rect width="224" height="224" rx="28" fill="white"/>
</clipPath>
</defs>
</svg>
