<svg width="1024" height="266" fill="none" xmlns="http://www.w3.org/2000/svg" viewBox="0 0 1024 266"><path d="M657.6 168.3c4 5.8 12 7.3 17.9 3.3 5.8-4 7.3-12 3.3-17.9l-19.1-27.8c-4-5.8-12-7.3-17.9-3.3-5.8 4-7.3 12-3.3 17.9l19.1 27.8z" stroke="#5F6368" stroke-width="2" stroke-miterlimit="10"/><path d="M387.8 132c7.124 0 12.9-5.776 12.9-12.9 0-7.125-5.776-12.9-12.9-12.9-7.124 0-12.9 5.775-12.9 12.9 0 7.124 5.776 12.9 12.9 12.9z" fill="#F28B82"/><path d="M58.1 99.4l-34.4 27.3c-1.9 1.5-1.5 4.6.8 5.5l40.8 16.2c2.3.9 4.7-1 4.3-3.4l-6.4-43.4c-.3-2.6-3.2-3.7-5.1-2.2z" fill="#FDD663"/><path d="M310.5 12.7L306 28.3c-.7 2.4 1.5 4.6 3.8 4l15.8-3.9c2.4-.6 3.2-3.6 1.5-5.3l-11.3-11.7c-1.6-1.8-4.6-1.1-5.3 1.3z" fill="#8AB4F8"/><path d="M94.4 33.6L78 27.9c-1.7-.6-3.5.3-4.1 2l-5.7 16.4c-.6 1.7.3 3.5 2 4.1L86.5 56c1.7.6 3.5-.3 4.1-2l5.7-16.4c.6-1.6-.3-3.4-1.9-4z" stroke="#5F6368" stroke-width="2" stroke-miterlimit="10"/><path d="M784.2 96.3L767 93.7c-1.7-.3-3.4.9-3.6 2.7l-2.6 17.2c-.3 1.7.9 3.4 2.7 3.6l17.2 2.6c1.7.3 3.4-.9 3.6-2.7l2.6-17.2c.3-1.7-.9-3.4-2.7-3.6z" fill="#5F6368"/><path d="M258.8 56.8l-8.5 11.3c-.7.9-.8 2.1-.4 3.2l5.6 13c.4 1.1 1.4 1.8 2.6 1.9l14 1.7c1.1.1 2.3-.3 2.9-1.3l8.5-11.3c.7-.9.8-2.1.4-3.2l-5.6-13c-.4-1.1-1.4-1.8-2.6-1.9l-14-1.7c-1.1-.1-2.2.4-2.9 1.3z" fill="#81C995"/><path d="M622.1 87.6l-12.2-7.1c-1-.6-2.2-.6-3.2 0l-12.2 7.1c-1 .6-1.6 1.6-1.6 2.8v14.1c0 1.1.6 2.2 1.6 2.8l12.2 7.1c1 .6 2.2.6 3.2 0l12.2-7.1c1-.6 1.6-1.6 1.6-2.8V90.3c0-1.1-.6-2.2-1.6-2.7z" fill="#8AB4F8"/><path d="M34.9 235.4a8.6 8.6 0 0 0 8.6-8.6 8.6 8.6 0 0 0-8.6-8.6 8.6 8.6 0 0 0-8.6 8.6 8.6 8.6 0 0 0 8.6 8.6zm196.7-80.3a8.6 8.6 0 0 0 8.6-8.6 8.6 8.6 0 0 0-8.6-8.6 8.6 8.6 0 0 0-8.6 8.6 8.6 8.6 0 0 0 8.6 8.6zm330-71.3a8.6 8.6 0 0 0 8.6-8.6 8.6 8.6 0 0 0-8.6-8.6 8.6 8.6 0 0 0-8.6 8.6 8.6 8.6 0 0 0 8.6 8.6z" fill="#5F6368"/><path d="M803.5 191.6a8.6 8.6 0 0 0 8.6-8.6 8.6 8.6 0 0 0-8.6-8.6 8.6 8.6 0 0 0-8.6 8.6 8.6 8.6 0 0 0 8.6 8.6z" fill="#8AB4F8"/><path d="M447.1 84c0 6-4.9 10.9-10.9 10.9S425.3 90 425.3 84s4.9-10.9 10.9-10.9S447.1 78 447.1 84zm-10.9-24.2C422.8 59.8 412 70.7 412 84c0 13.3 10.8 24.2 24.2 24.2 13.4 0 24.2-10.8 24.2-24.2 0-13.4-10.9-24.2-24.2-24.2z" fill="#5F6368"/><path d="M995.9 199.4c3.6 4.8 2.6 11.6-2.2 15.3-4.8 3.6-11.6 2.6-15.3-2.2-3.6-4.8-2.6-11.6 2.2-15.3 4.8-3.6 11.7-2.6 15.3 2.2zm-23.3-12.9c-10.7 8-12.9 23.2-4.9 33.9s23.2 12.9 33.9 4.9 12.9-23.2 4.9-33.9-23.2-12.9-33.9-4.9z" fill="#FDE293"/><path d="M331.5 205.6L302 238.1c-1.7 1.8-.7 4.8 1.7 5.3l42.9 9.3c2.4.5 4.5-1.8 3.7-4.1L337 206.8c-.8-2.4-3.8-3-5.5-1.2z" fill="#5F6368"/><path d="M807.8 220.4l-13.3 15.8c-.8 1-.7 2.5.3 3.3l16.1 13.5c1 .8 2.5.7 3.3-.3l13.3-15.8c.8-1 .7-2.5-.3-3.3l-16.1-13.5c-1-.8-2.5-.7-3.3.3z" stroke="#81C995" stroke-width="2" stroke-miterlimit="10"/><path d="M934.2 40.2c7.125 0 12.9-5.776 12.9-12.9 0-7.124-5.775-12.9-12.9-12.9-7.124 0-12.9 5.776-12.9 12.9 0 7.125 5.776 12.9 12.9 12.9zM688 218.8c7.124 0 12.9-5.776 12.9-12.9 0-7.124-5.776-12.9-12.9-12.9-7.124 0-12.9 5.776-12.9 12.9 0 7.124 5.776 12.9 12.9 12.9z" fill="#FDD663"/><path d="M751.2 66.3c6.8-6.7 6.9-17.6.3-24.4-2.4-2.4-5.3-4-8.4-4.7l-4.3-1c-4.2-.9-7.8-3.7-9.8-7.5l-2.4-4.5c-.5-.9-1.1-1.7-1.8-2.4-4.7-4.8-12.5-4.9-17.3-.2-4.8 4.7-4.9 12.5-.2 17.3.7.7 1.5 1.4 2.4 1.9l4.5 2.5c3.8 2.1 6.5 5.8 7.3 10l.9 4.3c.7 3.1 2.2 6.1 4.5 8.5 6.6 6.8 17.5 6.9 24.3.2z" stroke="#5F6368" stroke-width="2" stroke-miterlimit="10"/><path d="M213.2 252.8c9.5.4 17.6-7 18-16.5.1-3.4-.7-6.6-2.3-9.3l-2.2-3.8c-2.2-3.7-2.7-8.2-1.2-12.3l1.6-4.9c.3-1 .5-2 .5-3 .3-6.8-5-12.5-11.7-12.8-6.8-.3-12.5 5-12.8 11.7 0 1 0 2.1.2 3l1.2 5c1.1 4.2.2 8.7-2.3 12.2l-2.5 3.6c-1.8 2.6-2.9 5.7-3.1 9.1-.3 9.6 7.1 17.6 16.6 18zM971.4 84.6c-2.3-6.7-9.6-10.3-16.3-8-6.7 2.3-10.3 9.6-8 16.3l10.9 31.9c2.3 6.7 9.6 10.3 16.3 8 6.7-2.3 10.3-9.6 8-16.3l-10.9-31.9z" fill="#5F6368"/></svg>