<svg width="24" height="23" viewBox="0 0 24 23" fill="none" xmlns="http://www.w3.org/2000/svg">
<path fill-rule="evenodd" clip-rule="evenodd" d="M10.8 15.6279H13.2V11.1628H10.8V15.6279ZM12 2.23254C6.70082 2.23254 2.40002 6.23329 2.40002 11.1628C2.40002 16.0923 6.70082 20.093 12 20.093C17.2992 20.093 21.6 16.0923 21.6 11.1628C21.6 6.23329 17.2992 2.23254 12 2.23254ZM12 17.8605C8.03102 17.8605 4.80002 14.8549 4.80002 11.1628C4.80002 7.47068 8.03102 4.4651 12 4.4651C15.969 4.4651 19.2 7.47068 19.2 11.1628C19.2 14.8549 15.969 17.8605 12 17.8605ZM10.8 13.3953H13.2V6.69766H10.8V13.3953Z" fill="#e9eaed"/>
</svg>