<svg width="224" height="224" viewBox="0 0 224 224" fill="none" xmlns="http://www.w3.org/2000/svg">
<g clip-path="url(#clip0_1225_5563)">
<path d="M79.1079 205.546C30.444 192.926 8.91803 137.386 20.0498 94.3237C31.1851 51.2709 75.4438 19.711 124.111 32.3408C172.775 44.9613 205.296 91.2844 194.164 134.347C183.032 177.409 127.766 218.179 79.1114 205.555L79.1079 205.546Z" fill="#F2F2F2"/>
<path d="M107.077 55.1027L52.2838 66.3729C35.4707 69.8311 24.6445 86.2642 28.1027 103.077L39.3729 157.87C42.8311 174.683 59.2642 185.509 76.0773 182.051L130.87 170.781C147.683 167.323 158.509 150.89 155.051 134.077L143.781 79.2837C140.323 62.4707 123.89 51.6444 107.077 55.1027Z" fill="#C2E7FF"/>
<path d="M92.5506 102.457C98.2747 99.1301 100.218 91.793 96.8915 86.0689C93.5649 80.3449 86.2278 78.4014 80.5038 81.728C74.7797 85.0547 72.8362 92.3917 76.1628 98.1158C79.4895 103.84 86.8266 105.783 92.5506 102.457Z" fill="#3998D3"/>
<path fill-rule="evenodd" clip-rule="evenodd" d="M80.6796 82.0307C75.1226 85.2602 73.2359 92.383 76.4654 97.94C79.6949 103.497 86.8178 105.384 92.3747 102.154C97.9317 98.9246 99.8184 91.8018 96.5889 86.2448C93.3594 80.6879 86.2365 78.8011 80.6796 82.0307ZM75.8602 98.2917C72.4364 92.4005 74.4366 84.8492 80.3278 81.4254C86.219 78.0017 93.7703 80.0019 97.1941 85.8931C100.618 91.7843 98.6177 99.3356 92.7265 102.759C86.8353 106.183 79.284 104.183 75.8602 98.2917Z" fill="black"/>
<path d="M89.0224 107.891C77.1692 109.754 60.0213 116.519 63.4491 138.227C65.1237 148.813 70.3609 154.543 76.6226 157.356C81.3692 159.473 86.6788 160.019 91.5364 159.817C94.5021 159.669 96.7575 157.015 96.2947 154.049C95.8953 151.479 93.5881 149.735 90.9817 149.873C84.7253 150.209 80.731 148.815 78.1941 146.79C81.3263 140.707 88.1639 138.375 93.6926 137.501C99.2212 136.626 106.438 136.744 111.287 141.522C113.104 143.335 114.632 145.764 115.553 149.06C115.823 149.981 117.064 150.205 117.726 149.489C121.82 144.92 124.21 138.274 122.735 128.915C119.266 107.165 100.868 106.015 89.0152 107.878L89.0224 107.891ZM93.0786 133.562C88.7331 134.247 84.6186 131.248 83.9341 126.902C83.2496 122.557 86.2485 118.442 90.5939 117.758C94.9394 117.073 99.0539 120.072 99.7384 124.418C100.423 128.763 97.4241 132.878 93.0786 133.562Z" fill="#3998D3"/>
<path fill-rule="evenodd" clip-rule="evenodd" d="M88.8682 107.561C88.8973 107.547 88.9285 107.538 88.961 107.533C94.9151 106.597 102.554 106.409 109.156 109.22C115.787 112.042 121.328 117.871 123.081 128.86L123.081 128.86C124.571 138.312 122.159 145.067 117.986 149.723L117.983 149.726L117.983 149.726C117.163 150.613 115.574 150.378 115.217 149.159L115.216 149.154C114.311 145.916 112.814 143.54 111.041 141.77C106.317 137.117 99.2515 136.976 93.7474 137.847C88.3228 138.705 81.751 140.958 78.641 146.694C81.1045 148.556 84.9551 149.846 90.9631 149.524L90.9633 149.524C93.7356 149.377 96.2117 151.234 96.6407 153.996C97.1366 157.174 94.7192 160.008 91.554 160.166L91.5512 160.166C86.661 160.37 81.2926 159.822 76.4802 157.675L76.4794 157.675C70.1026 154.811 64.7954 148.977 63.1036 138.282L63.1036 138.282C61.3717 127.314 64.8406 120.074 70.2761 115.353C75.6578 110.679 82.932 108.506 88.8682 107.561ZM89.1692 108.209C89.1402 108.222 89.1092 108.232 89.0769 108.237C83.178 109.164 76.0033 111.306 70.735 115.882C65.4902 120.437 62.0991 127.432 63.795 138.172C65.4524 148.65 70.6192 154.275 76.7656 157.036C81.4457 159.124 86.6957 159.668 91.5204 159.467C94.2858 159.328 96.3785 156.855 95.9491 154.103L95.949 154.103C95.5792 151.723 93.4411 150.093 91.0006 150.223C84.6847 150.561 80.5979 149.156 77.9759 147.063C77.8456 146.959 77.8068 146.778 77.8831 146.63C81.0962 140.39 88.0855 138.033 93.638 137.155C99.1909 136.277 106.558 136.371 111.533 141.272L111.535 141.274C113.395 143.13 114.953 145.612 115.889 148.964C116.073 149.584 116.963 149.796 117.467 149.253C121.483 144.771 123.85 138.234 122.389 128.97C120.673 118.208 115.281 112.587 108.882 109.864C102.491 107.143 95.0528 107.295 89.1692 108.209ZM90.6485 118.104C86.4937 118.758 83.6256 122.694 84.28 126.848C84.9345 131.003 88.8701 133.871 93.0243 133.216C97.1791 132.562 100.047 128.626 99.3928 124.472C98.7383 120.317 94.8028 117.449 90.6485 118.104ZM83.5885 126.957C82.8739 122.42 86.0035 118.127 90.5396 117.412C95.0763 116.697 99.3697 119.827 100.084 124.363C100.799 128.9 97.6694 133.193 93.1332 133.908C88.5965 134.623 84.3031 131.493 83.5885 126.957Z" fill="black"/>
<path d="M65.3632 182.723C52.6148 180.886 41.7663 171.261 39.0284 157.935L27.7646 103.149C26.0701 94.9234 27.6822 86.5376 32.3093 79.5257C36.9264 72.5123 44.0016 67.7222 52.2273 66.0277L107.013 54.7639C123.995 51.2694 140.64 62.2448 144.136 79.2166L155.409 134.004C158.904 150.985 147.929 167.631 130.957 171.127L130.885 170.783L130.957 171.127L76.1696 182.4C72.5158 183.147 68.877 183.229 65.383 182.726L65.3632 182.723ZM117.691 55.12C114.277 54.6281 110.718 54.7117 107.148 55.44L52.3608 66.7137C44.3233 68.3646 37.4038 73.056 32.8901 79.9124C28.3763 86.7689 26.8012 94.9681 28.4507 103.016L39.7244 157.803C43.1429 174.4 59.4193 185.13 76.0163 181.711L130.803 170.438C147.4 167.019 158.131 150.743 154.712 134.146L143.438 79.3587C140.758 66.3334 130.153 56.9151 117.691 55.12Z" fill="black"/>
<path d="M183.184 33.5927L143.235 27.9505C131.497 26.2926 115.901 44.8891 109 54.4997L107 54.9997C104 71.9997 115.989 87.4531 132.455 89.7787L133.477 89.9231L132.455 99.4032C132.111 101.835 134.707 103.592 136.838 102.376L138.786 101.328C138.786 101.328 182.895 33.2084 183.184 33.5927Z" fill="black"/>
<path d="M183.184 33.5926L143.235 27.9503C126.785 25.6269 111.549 37.0779 109.224 53.5437C106.9 69.994 118.351 85.23 134.817 87.5556L135.839 87.7L134.389 97.9698C134.045 100.402 136.641 102.159 138.772 100.943L156.892 90.6577L174.752 93.1802C191.203 95.5036 206.439 84.0526 208.764 67.5868C211.088 51.1365 199.637 35.9005 183.171 33.5749L183.184 33.5926Z" fill="#1B6EF3"/>
<path fill-rule="evenodd" clip-rule="evenodd" d="M183.967 34.0531C199.786 36.7448 210.674 51.562 208.418 67.5379C206.119 83.8121 191.06 95.13 174.801 92.8336L156.823 90.2944L138.599 100.638C136.72 101.71 134.433 100.162 134.735 98.0187L136.235 87.4024L134.866 87.209C118.592 84.9105 107.274 69.8517 109.57 53.5926C111.869 37.3184 126.928 26.0005 143.187 28.2969L183.97 34.0571L183.967 34.0531ZM182.398 33.1281L182.384 33.1104L183.22 33.2284C199.877 35.581 211.461 50.9942 209.111 67.6358C206.758 84.2931 191.345 95.8772 174.703 93.5267L156.961 91.0209L138.945 101.247C136.562 102.606 133.658 100.641 134.042 97.9209L135.444 87.9976L134.768 87.9021C118.111 85.5495 106.527 70.1363 108.877 53.4947C111.23 36.8374 126.643 25.2533 143.284 27.6038L182.398 33.1281Z" fill="black"/>
<path d="M140.337 64.3527C136.881 63.8646 134.475 60.6671 134.963 57.2109C135.451 53.7548 138.649 51.3487 142.105 51.8368C145.561 52.325 147.967 55.5225 147.479 58.9786C146.991 62.4348 143.794 64.8409 140.337 64.3527Z" fill="#ECF3FE"/>
<path d="M158.151 66.8693C154.695 66.3812 152.289 63.1837 152.777 59.7275C153.265 56.2714 156.462 53.8653 159.919 54.3534C163.375 54.8416 165.781 58.0391 165.293 61.4952C164.805 64.9514 161.607 67.3575 158.151 66.8693Z" fill="#ECF3FE"/>
<path d="M175.964 69.3847C172.508 68.8966 170.102 65.6991 170.59 62.2429C171.078 58.7867 174.276 56.3807 177.732 56.8688C181.188 57.357 183.594 60.5545 183.106 64.0106C182.618 67.4668 179.42 69.8728 175.964 69.3847Z" fill="#ECF3FE"/>
<path fill-rule="evenodd" clip-rule="evenodd" d="M169.184 186.798C169.02 186.899 168.804 186.849 168.702 186.684L158.702 170.55C158.601 170.386 158.651 170.17 158.816 170.068C158.98 169.966 159.196 170.017 159.297 170.181L169.297 186.316C169.399 186.48 169.349 186.696 169.184 186.798Z" fill="black"/>
<path fill-rule="evenodd" clip-rule="evenodd" d="M194.624 149.846C194.621 150.039 194.462 150.193 194.268 150.19L172.713 149.812C172.52 149.809 172.366 149.649 172.369 149.456C172.373 149.263 172.532 149.109 172.725 149.112L194.281 149.49C194.474 149.493 194.628 149.653 194.624 149.846Z" fill="black"/>
<path fill-rule="evenodd" clip-rule="evenodd" d="M196.301 175.539C196.217 175.713 196.008 175.787 195.834 175.703L165.849 161.316C165.674 161.232 165.601 161.023 165.684 160.849C165.768 160.674 165.977 160.601 166.151 160.684L196.136 175.072C196.311 175.156 196.384 175.365 196.301 175.539Z" fill="black"/>
</g>
<defs>
<clipPath id="clip0_1225_5563">
<rect width="224" height="224" rx="28" fill="white"/>
</clipPath>
</defs>
</svg>