<svg width="370" height="200" viewBox="0 0 370 200" fill="none" xmlns="http://www.w3.org/2000/svg">
<g clip-path="url(#clip0)">
<path d="M258.927 128.359C258.927 128.359 256.207 140.758 261.005 160.241" stroke="#5184EB" stroke-width="2" stroke-miterlimit="10" stroke-linecap="round"/>
<path d="M266.932 189.266L262.737 190.368L263.481 194.479L295.31 191.572C293.257 186.064 291.294 180.556 289.242 175.138H282.994C274.591 174.933 273.193 174.241 269.832 174.241C260.595 174.446 251.82 180.556 249.767 184.463C249.395 185.013 249.267 185.705 249.395 186.371C249.395 186.576 249.485 186.666 249.587 186.871L250.896 186.474C250.344 187.242 249.959 188.126 249.78 189.074C249.459 189.868 249.459 190.778 249.78 191.585C250.011 191.956 250.293 192.302 250.614 192.584L250.986 192.379C250.883 192.558 250.819 192.763 250.793 192.981C250.742 194.21 251.268 195.376 252.192 196.093C253.59 196.887 255.283 196.772 256.579 195.799C256.656 196.631 256.977 197.4 257.516 198.002C259.568 200.205 263.584 196.798 271.602 195.901C277.952 195.299 279.351 195.901 284.482 194.902C288.19 194.274 291.82 193.198 295.31 191.7C288.023 188.971 278.042 186.768 266.932 189.266Z" fill="#D2E3FC"/>
<path d="M289.19 175.419L282.981 175.24C274.681 175.035 273.18 174.344 269.921 174.344C259.132 174.933 251.909 180.658 249.857 184.565C249.51 185.129 249.344 185.795 249.395 186.474L249.677 186.973" stroke="#5184EB" stroke-width="2" stroke-linecap="round" stroke-linejoin="round"/>
<path d="M294.296 192.135C290.807 193.634 288.279 194.262 284.572 194.889C279.44 195.888 278.042 195.286 271.692 195.888C263.661 196.785 259.658 200.192 257.503 197.989C256.887 197.208 256.579 196.196 256.669 195.184C257.233 191.777 263.391 190.278 267.022 189.368C269.293 188.818 271.602 188.485 273.924 188.369" stroke="#5184EB" stroke-width="2" stroke-linecap="round" stroke-linejoin="round"/>
<path d="M271.127 183.361C267.894 183.835 264.7 184.642 261.608 185.769C256.938 187.473 251.153 189.573 250.87 192.981C250.832 194.185 251.307 195.325 252.179 196.093C253.654 196.9 255.425 196.734 256.746 195.696" stroke="#5184EB" stroke-width="2" stroke-linecap="round" stroke-linejoin="round"/>
<path d="M268.241 179.249C265.38 179.762 262.545 180.428 259.748 181.248C255.732 182.452 254.052 183.348 252.564 184.655C251.268 185.795 250.319 187.332 249.857 189.061C249.536 189.855 249.536 190.765 249.857 191.572C250.088 191.943 250.37 192.289 250.691 192.571" stroke="#5184EB" stroke-width="2" stroke-linecap="round" stroke-linejoin="round"/>
<path fill-rule="evenodd" clip-rule="evenodd" d="M77.1405 103.804L69.6484 106.686L60.4629 103.804V97.2076H77.1405V103.804Z" fill="#D2E3FC"/>
<path d="M69.084 97.8993C75.6733 97.8993 81.0149 92.5659 81.0149 85.9869C81.0149 79.4079 75.6733 74.0745 69.084 74.0745C62.4947 74.0745 57.1531 79.4079 57.1531 85.9869C57.1531 92.5659 62.4947 97.8993 69.084 97.8993Z" fill="#D2E3FC" stroke="#5185EC" stroke-width="2" stroke-miterlimit="10" stroke-linecap="round" stroke-linejoin="round"/>
<path d="M57.1531 80.748H78.4876L77.9103 76.3929L69.8922 74.2282L65.4534 74.3179L60.5014 77.5073L57.1531 80.748Z" fill="#5185EC"/>
<path d="M86.8136 74.2026C86.1721 75.2145 85.2613 76.1496 84.4787 77.0462C83.3882 78.2759 82.2978 79.5055 81.2073 80.748H68.1731C69.4432 79.3518 71.3547 77.2255 72.6247 75.8294C74.7928 73.4213 76.4349 71.4999 79.1547 69.8988C82.0155 68.2208 85.6718 67.7469 87.1856 69.9628C87.1984 69.9884 87.2113 70.0141 87.2369 70.0397C87.904 71.1028 87.7501 72.7424 86.8136 74.2026Z" fill="#1B40BA"/>
<path d="M76.0372 88.3054C75.7293 89.7912 74.4592 91.0337 72.9583 91.2898" stroke="#5185EC" stroke-width="1.5" stroke-miterlimit="10" stroke-linecap="round" stroke-linejoin="round"/>
<path d="M77.8846 102.472L75.6267 95.9523" stroke="#5185EC" stroke-width="2" stroke-miterlimit="10" stroke-linecap="round" stroke-linejoin="round"/>
<path d="M59.9114 101.947L62.5413 95.9523" stroke="#5185EC" stroke-width="2" stroke-miterlimit="10" stroke-linecap="round" stroke-linejoin="round"/>
<path d="M148.444 50.1857C148.495 50.2369 148.534 50.3138 148.559 50.3779C148.585 50.4547 148.585 50.5316 148.585 50.6084C148.572 50.6853 148.559 50.7621 148.521 50.8262C148.482 50.8902 148.431 50.9543 148.367 50.9927C146.968 52.0302 145.224 52.5041 143.492 52.3248C141.76 52.1455 140.156 51.3129 139.002 50.0064C137.847 48.6999 137.231 47.0091 137.27 45.2671C137.308 43.525 138.014 41.8599 139.22 40.6046C139.271 40.5533 139.335 40.5021 139.412 40.4765C139.489 40.4509 139.566 40.438 139.643 40.438C139.72 40.438 139.797 40.4637 139.874 40.4893C139.951 40.5277 140.015 40.5661 140.066 40.6302L148.444 50.1857Z" fill="#D5E3FA"/>
<path d="M169.984 17.1897C170.548 17.7917 170.997 18.509 171.292 19.2904C171.459 19.7515 171.575 20.2382 171.664 20.8275L172.088 22.5823C172.306 23.4661 172.691 24.2987 173.242 25.0416C173.794 25.7845 174.461 26.3994 175.244 26.8605L177.502 28.2439C177.54 28.2823 177.579 28.3207 177.63 28.3592C177.771 28.4744 177.899 28.5897 178.002 28.6922C178.387 29.1021 178.682 29.5888 178.874 30.114C179.067 30.652 179.144 31.2028 179.118 31.7663C179.08 32.3299 178.938 32.8807 178.682 33.3803C178.425 33.8798 178.079 34.3282 177.643 34.6868C177.206 35.0455 176.719 35.3145 176.167 35.481C175.629 35.6475 175.064 35.6987 174.5 35.6347C173.935 35.5706 173.409 35.4041 172.909 35.1223C172.421 34.8405 171.998 34.4691 171.652 34.0207C171.626 33.9951 171.613 33.9695 171.587 33.9439L170.292 31.587C169.406 29.9603 167.931 28.7818 166.148 28.2567L164.313 27.7315C163.826 27.6547 163.338 27.5009 162.877 27.3216C162.864 27.3088 162.838 27.3088 162.825 27.296C162.017 26.9374 161.273 26.3994 160.683 25.7461C160.067 25.0672 159.618 24.2731 159.349 23.4021C159.105 22.6463 159.041 21.8394 159.105 21.0452C158.476 20.9043 157.873 20.6994 157.296 20.456C157.296 20.4688 157.296 20.4816 157.283 20.4944C157.142 21.6472 157.232 22.8385 157.591 23.9657C157.95 25.0929 158.528 26.1176 159.323 26.9886C160.105 27.8596 161.08 28.5513 162.158 29.0124C162.184 29.0252 162.209 29.038 162.235 29.038C162.8 29.2686 163.39 29.4351 163.903 29.5248L165.635 30.0243C166.943 30.4086 168.021 31.2796 168.675 32.4708L170.074 35.0198C170.125 35.1223 170.202 35.212 170.305 35.2888C170.779 35.878 171.344 36.3648 172.011 36.7362C172.729 37.1461 173.499 37.3895 174.307 37.4792C175.115 37.5688 175.924 37.492 176.706 37.2614C177.489 37.0309 178.207 36.6338 178.836 36.1086C179.464 35.5834 179.965 34.943 180.337 34.2129C180.709 33.4828 180.914 32.7014 180.965 31.8816C180.991 31.3821 180.965 30.8697 180.863 30.383C180.799 30.0884 180.722 29.781 180.619 29.4992C180.337 28.7306 179.913 28.0389 179.349 27.4241C179.233 27.3088 179.105 27.1935 178.977 27.0782C178.9 26.9758 178.81 26.8861 178.707 26.8093L176.219 25.2722C175.641 24.9263 175.141 24.478 174.743 23.9272C174.346 23.3764 174.063 22.7744 173.897 22.1212L173.486 20.4688C173.409 19.8412 173.255 19.2263 173.037 18.6371C172.614 17.4843 171.908 16.434 171.01 15.5886C170.702 16.165 170.369 16.7029 169.984 17.1897ZM162.53 28.1542V28.167V28.1542Z" fill="#5184EB"/>
<path d="M169.984 17.1897C169.83 17.0231 169.676 16.8694 169.496 16.7157C168.803 16.1265 167.995 15.691 167.11 15.4348C166.238 15.1915 165.301 15.1274 164.416 15.2683C163.505 15.4092 162.658 15.7422 161.889 16.2418C161.119 16.7413 160.49 17.3946 160.003 18.176C159.528 18.9445 159.207 19.8155 159.092 20.7121C159.079 20.8146 159.092 20.9299 159.079 21.0452C159.644 21.1733 160.208 21.2757 160.811 21.3142C164.519 21.5575 167.893 19.9052 169.984 17.1897Z" fill="#D85140"/>
<path d="M150.869 9.96538C150.561 14.5894 153.268 18.7139 157.296 20.4432C157.45 19.3032 157.847 18.176 158.463 17.2025C159.092 16.1906 159.913 15.358 160.901 14.7047C161.889 14.0515 162.979 13.6288 164.159 13.4494C165.314 13.2701 166.52 13.347 167.636 13.6672C168.778 13.9874 169.817 14.551 170.715 15.3196C170.818 15.4092 170.907 15.5117 171.01 15.6013C171.677 14.3204 172.1 12.8986 172.203 11.3616C172.588 5.48222 168.123 0.397045 162.235 0.0127743C156.347 -0.358687 151.253 4.08604 150.869 9.96538Z" fill="#D85140"/>
<path d="M167.623 13.68C166.494 13.3598 165.288 13.2829 164.146 13.4623C162.966 13.6416 161.876 14.0643 160.888 14.7175C159.9 15.3708 159.079 16.2034 158.45 17.2153C157.835 18.2016 157.437 19.316 157.283 20.456C157.86 20.6994 158.463 20.9043 159.092 21.0452C159.105 20.9299 159.079 20.8274 159.105 20.7122C159.22 19.8155 159.528 18.9317 160.016 18.176C160.503 17.3946 161.144 16.7414 161.901 16.2418C162.671 15.7423 163.518 15.4092 164.429 15.2683C165.327 15.1274 166.25 15.1915 167.123 15.4348C168.008 15.691 168.803 16.1137 169.509 16.7157C169.676 16.8566 169.843 17.0232 169.996 17.1897C170.381 16.7029 170.715 16.165 170.997 15.6142C170.894 15.5245 170.805 15.422 170.702 15.3324C169.804 14.551 168.765 14.0002 167.623 13.68Z" fill="#E5E5E5"/>
<path d="M147.43 87.793C148.264 87.5112 149.149 87.46 150.009 87.6265L154.486 88.5231L160.824 72.704C160.901 72.5375 160.926 72.3453 160.901 72.1532C160.875 71.961 160.811 71.7817 160.695 71.6408C160.58 71.4871 160.426 71.3718 160.246 71.3078C160.067 71.2309 159.874 71.2181 159.695 71.2437L134.05 75.522C133.883 75.5604 133.716 75.65 133.588 75.7781C133.46 75.8934 133.357 76.0471 133.306 76.2136C133.242 76.3802 133.229 76.5595 133.254 76.7388C133.28 76.9181 133.357 77.0847 133.46 77.2256L144.3 90.3804L145.288 89.2532C145.852 88.5743 146.596 88.0748 147.43 87.793Z" fill="#56A45C"/>
<path d="M149.239 89.3685C148.829 89.3429 148.405 89.3942 148.02 89.5351C147.494 89.7144 147.02 90.0218 146.66 90.4445L145.48 91.7894L149.521 96.6953C149.637 96.8362 149.791 96.9515 149.97 97.0155C150.137 97.0796 150.33 97.1052 150.509 97.0667C150.689 97.0411 150.868 96.9643 151.009 96.849C151.151 96.7337 151.266 96.58 151.33 96.4135L153.793 90.2652L149.662 89.4326C149.521 89.3942 149.38 89.3813 149.239 89.3685Z" fill="#56A45C"/>
<path d="M165.635 101.307L162.722 92.6989C162.44 91.8663 161.94 91.1234 161.286 90.547C160.631 89.9705 159.823 89.5735 158.976 89.407L154.486 88.5103L153.793 90.2395L158.617 91.2002C159.156 91.3027 159.656 91.5589 160.08 91.9175C160.49 92.2762 160.811 92.7501 160.978 93.2753L163.89 101.883C163.89 101.883 163.89 101.883 163.89 101.896C164.069 102.421 164.108 102.985 164.005 103.522C163.903 104.073 163.646 104.573 163.287 104.983L157.257 111.836C156.898 112.245 156.423 112.566 155.897 112.732C155.384 112.911 154.82 112.937 154.268 112.835L145.288 111.054C144.749 110.952 144.249 110.696 143.825 110.337C143.415 109.978 143.107 109.504 142.927 108.979L140.015 100.371C139.836 99.8463 139.797 99.2827 139.912 98.7447C140.015 98.2067 140.272 97.6944 140.644 97.2845L145.467 91.7638L144.287 90.3292L139.258 96.0676C138.681 96.7209 138.283 97.5279 138.116 98.3733C137.937 99.2315 138.001 100.115 138.283 100.948L141.195 109.556C141.478 110.388 141.965 111.131 142.619 111.707C143.274 112.284 144.082 112.681 144.929 112.847L153.909 114.628C154.127 114.666 154.345 114.705 154.576 114.718C155.217 114.756 155.872 114.666 156.488 114.461C157.321 114.18 158.065 113.68 158.63 113.027L164.66 106.174C165.237 105.521 165.635 104.714 165.801 103.856C165.981 103.023 165.917 102.139 165.635 101.307Z" fill="#E5E5E5"/>
<path d="M146.661 90.4445C147.02 90.0346 147.494 89.7143 148.02 89.535C148.418 89.4069 148.829 89.3429 149.239 89.3685C149.38 89.3813 149.509 89.3941 149.65 89.4197L153.781 90.2523L154.473 88.5231L149.996 87.6265C149.137 87.46 148.251 87.5112 147.418 87.793C146.584 88.0748 145.84 88.5743 145.262 89.2276L144.274 90.3548L145.455 91.7894L146.661 90.4445Z" fill="#F6BC41"/>
<path d="M100.605 129.717C100.605 129.717 95.9222 151.761 94.4854 160.241" stroke="#5185EC" stroke-width="2" stroke-miterlimit="10" stroke-linecap="round" stroke-linejoin="round"/>
<path d="M355.452 160.241H368.717" stroke="#D5E3FA" stroke-width="2" stroke-miterlimit="10" stroke-linecap="round" stroke-linejoin="round"/>
<path d="M246.239 160.241H302.712" stroke="#D5E3FA" stroke-width="2" stroke-miterlimit="10" stroke-linecap="round" stroke-linejoin="round"/>
<path d="M120.169 160.241H196.912" stroke="#D5E3FA" stroke-width="2" stroke-miterlimit="10" stroke-linecap="round" stroke-linejoin="round"/>
<path d="M55.2158 160.241H99.6425" stroke="#D5E3FA" stroke-width="2" stroke-miterlimit="10" stroke-linecap="round" stroke-linejoin="round"/>
<path d="M197.746 154.272C200.812 160.779 203.108 167.811 206.957 173.383C202.056 175.701 204.635 175.663 199.413 177.008C194.513 178.276 189.458 178.788 184.442 179.301C179.798 179.775 175.167 180.248 170.522 180.71C169.265 180.838 167.944 180.953 166.802 180.402C165.66 179.851 164.814 178.378 165.34 177.174C164.185 178.865 161.696 179.339 160.054 178.186C158.412 177.033 157.86 174.446 158.887 172.666C159.066 173.204 158.22 173.575 157.796 173.229C157.373 172.883 157.309 172.23 157.283 171.666C157.142 168.528 157.091 165.095 158.887 162.598C159.9 161.201 161.388 160.266 162.876 159.472C174.833 153.093 184.365 153.772 197.746 154.272Z" fill="#D2E3FC"/>
<path d="M196.912 154.246C186.956 154.976 184.776 153.234 180.811 153.234C169.586 153.478 160.003 160.715 157.514 165.364C157.091 166.03 156.885 166.837 156.95 167.632L157.296 168.234" stroke="#5184EB" stroke-width="2" stroke-linecap="round" stroke-linejoin="round"/>
<path d="M206.957 174.587C202.723 176.38 204.173 176.931 199.67 177.687C193.435 178.878 191.742 178.161 184.031 178.878C174.281 179.954 169.406 184.014 166.802 181.389C166.045 180.466 165.686 179.262 165.776 178.045C166.456 173.985 173.935 172.192 178.361 171.116C181.119 170.462 183.929 170.053 186.751 169.924" stroke="#5184EB" stroke-width="2" stroke-linecap="round" stroke-linejoin="round"/>
<path d="M183.352 163.943C179.426 164.506 175.552 165.467 171.793 166.812C166.122 168.836 159.092 171.346 158.758 175.407C158.707 176.841 159.297 178.212 160.349 179.108C162.132 180.069 164.288 179.877 165.904 178.635" stroke="#5184EB" stroke-width="2" stroke-linecap="round" stroke-linejoin="round"/>
<path d="M179.836 159.05C176.36 159.652 172.922 160.446 169.522 161.432C164.647 162.867 162.607 163.943 160.798 165.492C159.22 166.85 158.066 168.682 157.514 170.744C157.129 171.692 157.129 172.781 157.514 173.729C157.796 174.177 158.143 174.574 158.54 174.92" stroke="#5184EB" stroke-width="2" stroke-linecap="round" stroke-linejoin="round"/>
<path d="M71.1751 169.848C68.6478 174.933 67.1596 179.224 63.978 183.579C68.032 185.398 73.3432 187.024 77.6537 188.075C81.7076 189.061 85.8771 189.471 90.0208 189.868C93.8567 190.24 97.6797 190.611 101.516 190.97C102.555 191.072 103.645 191.162 104.582 190.726C105.531 190.291 106.224 189.138 105.788 188.203C106.75 189.522 108.79 189.894 110.149 188.997C111.509 188.1 111.958 186.064 111.112 184.668C110.971 185.09 111.663 185.385 112.01 185.103C112.356 184.821 112.407 184.322 112.433 183.873C112.548 181.414 112.6 178.737 111.112 176.777C110.278 175.676 109.046 174.958 107.815 174.331C97.9491 169.348 83.0034 169.643 71.9576 170.04" fill="#D2E3FC"/>
<path d="M72.3938 170.283H79.0392C87.3652 170.091 88.8662 169.438 92.1376 169.438C101.4 169.63 110.201 175.33 112.266 178.968C112.613 179.493 112.779 180.12 112.728 180.748L112.446 181.209" stroke="#5184EB" stroke-width="2" stroke-linecap="round" stroke-linejoin="round"/>
<path d="M64.9272 184.616C68.4167 186.013 73.7279 188.011 77.4483 188.587C82.5927 189.522 84.0039 188.959 90.3671 189.522C98.4108 190.368 102.439 193.544 104.594 191.482C105.21 190.752 105.518 189.817 105.441 188.869C104.877 185.692 98.7059 184.283 95.0496 183.451C92.7789 182.938 90.4569 182.618 88.122 182.516" stroke="#5184EB" stroke-width="2" stroke-linecap="round" stroke-linejoin="round"/>
<path d="M90.9316 177.853C94.1774 178.302 97.3718 179.044 100.476 180.095C105.159 181.683 110.958 183.643 111.24 186.82C111.278 187.934 110.804 189.01 109.931 189.714C108.456 190.457 106.686 190.316 105.339 189.343" stroke="#5184EB" stroke-width="2" stroke-linecap="round" stroke-linejoin="round"/>
<path d="M93.8308 174.023C96.7045 174.497 99.5397 175.125 102.349 175.893C106.378 177.021 108.058 177.853 109.559 179.07C110.868 180.133 111.817 181.568 112.279 183.182C112.6 183.925 112.6 184.77 112.279 185.513C112.048 185.859 111.766 186.179 111.432 186.448" stroke="#5184EB" stroke-width="2" stroke-linecap="round" stroke-linejoin="round"/>
<path d="M1.28296 160.241H16.9343" stroke="#D5E3FA" stroke-width="2" stroke-miterlimit="10" stroke-linecap="round" stroke-linejoin="round"/>
<path fill-rule="evenodd" clip-rule="evenodd" d="M85.9925 191.162L167.674 192.584C168.457 192.596 169.073 193.237 169.06 194.018C169.047 194.8 168.406 195.414 167.623 195.402L85.9411 193.98C85.1586 193.967 84.5428 193.326 84.5556 192.545C84.5684 191.764 85.2099 191.149 85.9925 191.162Z" fill="#5381EB"/>
<path fill-rule="evenodd" clip-rule="evenodd" d="M118.668 140.028L188.419 141.245C189.599 141.271 190.536 142.231 190.523 143.41C190.523 143.589 190.497 143.781 190.446 143.961L176.193 193.864C175.923 194.8 175.064 195.427 174.102 195.414L104.351 194.197C103.17 194.172 102.234 193.211 102.247 192.033C102.247 191.853 102.272 191.661 102.324 191.482L116.577 141.578C116.846 140.643 117.706 140.015 118.668 140.028Z" fill="#5381EB"/>
<path d="M77.8846 102.472C76.7813 104.919 73.6254 106.686 69.6997 106.686C65.6586 106.686 61.2326 105.021 60.2319 102.472" stroke="#5185EC" stroke-width="2" stroke-miterlimit="10" stroke-linecap="round" stroke-linejoin="round"/>
<path d="M60.2191 102.472C60.2191 102.472 25.7092 104.701 17.9349 131.907C7.91544 166.978 26.171 180.518 62.8619 188.818L72.9326 167.299L50.1484 158.255L48.4934 135.852" stroke="#5185EC" stroke-width="2" stroke-miterlimit="10" stroke-linecap="round" stroke-linejoin="round"/>
<path d="M77.8845 102.472C77.8845 102.472 112.574 99.8463 123.325 140.361" stroke="#5185EC" stroke-width="2" stroke-miterlimit="10" stroke-linecap="round" stroke-linejoin="round"/>
<path d="M100.605 129.717C100.322 132.292 92.6507 164.788 108.879 175.151" stroke="#5185EC" stroke-width="2" stroke-miterlimit="10" stroke-linecap="round" stroke-linejoin="round"/>
<path d="M72.6612 119.202C74.1363 118.852 75.0468 117.373 74.6949 115.899C74.343 114.425 72.8619 113.514 71.3869 113.864C69.9118 114.214 69.0013 115.693 69.3532 117.167C69.7051 118.641 71.1862 119.552 72.6612 119.202Z" stroke="#5381EB" stroke-width="2"/>
<path d="M73.4125 132.017C74.8875 131.667 75.798 130.188 75.4461 128.714C75.0942 127.24 73.6132 126.329 72.1381 126.679C70.6631 127.029 69.7526 128.508 70.1045 129.982C70.4564 131.456 71.9374 132.367 73.4125 132.017Z" stroke="#5381EB" stroke-width="2"/>
<path d="M72.3731 144.206C73.8482 143.856 74.7587 142.377 74.4068 140.903C74.0549 139.429 72.5738 138.518 71.0988 138.868C69.6237 139.218 68.7133 140.697 69.0652 142.171C69.4171 143.645 70.8981 144.556 72.3731 144.206Z" stroke="#5381EB" stroke-width="2"/>
<path d="M159.272 125.49C160.028 126.745 159.605 128.346 158.348 129.102C157.078 129.858 155.487 129.435 154.73 128.18C153.973 126.925 154.397 125.323 155.654 124.568C156.911 123.799 158.515 124.222 159.272 125.49Z" fill="#D93025"/>
<path d="M297.298 197.951C327.6 195.376 359.044 175.471 355.234 141.501C348.742 83.5276 291.05 92.5708 289.075 93.8004C235.309 86.9732 229.035 130.729 226.765 136.378L196.54 150.301L209.253 176.957C213.705 179.608 247.471 175.381 258.196 136.788" stroke="#5184EB" stroke-width="2" stroke-miterlimit="10" stroke-linecap="round"/>
<path d="M315.887 137.146C318.389 142.513 316.952 150.07 316.221 153.042C316.028 153.836 315.477 154.502 314.746 154.874L288.177 168.234L297.298 197.938" stroke="#5184EB" stroke-width="2" stroke-miterlimit="10" stroke-linecap="round"/>
<path d="M288.087 86.0126C286.548 85.6539 284.995 85.3977 283.43 85.2312C281.981 85.2312 281.865 86.32 281.48 87.6521C280.916 89.471 280.364 91.3027 279.812 93.1216C279.748 93.4033 279.62 93.6595 279.44 93.8773C279.171 94.1079 278.196 92.9678 277.85 93.0319C276.323 93.3777 274.796 93.224 273.231 93.1344C272.731 93.0319 272.205 93.0319 271.705 93.1344C271.461 93.1984 271.243 93.3521 271.102 93.5571C270.961 93.762 270.884 94.0182 270.909 94.2616C270.973 94.5434 271.127 94.7867 271.345 94.9789C273.513 97.3742 276.9 100.692 280.018 101.588C283.482 102.408 287.061 102.677 290.614 102.395C295.759 102.6 303.443 101.153 307.433 97.8865C308.485 97.182 309.589 96.247 309.589 94.9917L300.685 93.1472C300.39 93.1087 300.557 92.8654 300.3 92.7245C299.967 92.4427 299.402 92.8654 299.3 92.4427L298.491 87.6777C299.364 87.0629 297.542 84.7829 296.811 84.5779C296.4 84.4883 294.284 85.513 293.873 85.6155C291.962 86.0766 290.012 86.2047 288.087 86.0126Z" fill="#D2E3FC"/>
<path d="M304.893 71.2438C304.893 62.9435 298.158 56.206 289.832 56.206C281.519 56.206 274.771 62.9307 274.771 71.2438C274.771 79.544 281.519 86.2816 289.832 86.2816C298.158 86.2816 304.893 79.5568 304.893 71.2438Z" stroke="#5184EB" stroke-width="2" stroke-linecap="round" stroke-linejoin="round"/>
<path d="M282.288 83.1946L280.941 93.0831L271.153 93.429C271.153 93.429 274.437 103.292 291.923 103.1C304.534 102.959 311.449 93.7748 311.449 93.7748L299.967 92.289L298.299 83.6941C298.299 83.6813 285.406 85.6155 282.288 83.1946Z" stroke="#5184EB" stroke-width="2" stroke-linecap="round" stroke-linejoin="round"/>
<path d="M180.093 65.2107C176.193 64.3013 171.985 65.928 169.868 69.5529C167.29 73.9849 168.803 79.6977 173.255 82.2723C177.707 84.8469 183.416 83.3355 185.994 78.8907C188.111 75.253 187.444 70.7826 184.698 67.875L190.099 58.1914L197.001 62.1878L199.67 57.5893L192.768 53.5929L195.436 48.9945L190.831 46.3302L180.093 65.2107ZM181.389 76.2136C180.285 78.1222 177.835 78.7626 175.936 77.6611C174.025 76.5595 173.383 74.113 174.487 72.2172C175.59 70.3215 178.04 69.6682 179.939 70.7698C181.85 71.8714 182.492 74.3179 181.389 76.2136Z" fill="#F6BC41"/>
<path d="M163.877 56.3725L161.581 54.0797C161.157 53.657 161.157 52.9653 161.581 52.5426L163.877 50.2498C164.3 49.8271 164.993 49.8271 165.417 50.2498L167.713 52.5426C168.136 52.9653 168.136 53.657 167.713 54.0797L165.417 56.3725C164.98 56.7952 164.3 56.7952 163.877 56.3725Z" fill="#E989F7"/>
<path d="M304.893 71.2438C304.893 62.9435 298.158 56.206 289.832 56.206C281.519 56.206 274.771 62.9307 274.771 71.2438C274.771 79.544 281.519 86.2816 289.832 86.2816C298.158 86.2816 304.893 79.5568 304.893 71.2438Z" fill="#D2E3FC" stroke="#5184EB" stroke-width="2" stroke-linecap="round" stroke-linejoin="round"/>
<path d="M277.657 77.738C278.594 77.4946 279.479 77.0591 280.236 76.4571C280.993 75.855 281.621 75.0993 282.07 74.2411" stroke="#5184EB" stroke-width="2" stroke-linecap="round" stroke-linejoin="round"/>
<path d="M198.798 24.3627L193.627 19.2007C193.024 18.5987 192.781 17.702 192.999 16.8823L194.897 9.8245C195.116 8.99191 195.77 8.35146 196.604 8.1209L203.673 6.22516C204.506 6.00741 205.392 6.23797 205.995 6.85281L211.165 12.0148C211.768 12.6169 212.011 13.5135 211.793 14.3333L209.895 21.391C209.676 22.2236 209.022 22.8641 208.188 23.0946L201.12 24.9904C200.298 25.2081 199.413 24.9776 198.798 24.3627Z" fill="#5185EC"/>
<path d="M273.975 132.701H269.575C267.548 132.701 265.906 131.062 265.906 129.038V120.968H277.657V129.038C277.657 131.062 276.002 132.701 273.975 132.701Z" stroke="#5185EC" stroke-width="1.9048" stroke-miterlimit="10" stroke-linecap="round" stroke-linejoin="round"/>
<path d="M277.003 63.2894C277.003 63.2894 266.137 65.5053 264.995 62.3287C263.956 59.421 268.523 57.2691 277.362 58.55C277.362 58.55 269.421 53.3496 272.012 50.8262C274.591 48.3028 280.993 55.4503 280.993 55.4503C280.993 55.4503 275.001 46.817 279.248 45.2671C283.174 43.8325 286.24 54.1565 286.24 54.1565C286.24 54.1565 284.854 43.0511 289.575 43.2689C294.296 43.4866 291.872 53.5545 291.872 53.5545C291.872 53.5545 296.516 36.1983 304.046 38.363C309.691 39.9898 299.03 55.4631 299.03 55.4631C299.03 55.4631 311.179 42.0776 314.22 47.0603C316.965 51.5691 303.546 58.2554 303.546 58.2554C303.546 58.2554 320.904 51.7869 320.147 56.9873C319.531 61.2143 308.498 63.4047 308.498 63.4047C308.498 63.4047 325.432 64.9417 323.623 70.36C322.969 72.2941 318.235 73.8056 310.076 68.8613C310.076 68.8613 319.454 77.0975 316.785 79.9155C312.885 84.0144 304.996 72.0764 304.996 72.0764L277.003 63.2894Z" fill="#5185EC"/>
<path d="M304.175 75.4964C304.7 71.833 305.201 67.939 303.623 64.5831C302.943 63.1357 301.904 61.8804 300.788 60.7276C297.799 57.679 293.937 55.2453 289.678 54.9379C285.175 54.6177 278.76 56.6927 282.93 61.9316C286.252 66.1074 290.82 69.5402 295.515 72.0379C298.273 73.511 301.173 74.6766 304.175 75.4964Z" fill="#5185EC"/>
</g>
<defs>
<clipPath id="clip0">
<rect width="370" height="200" fill="white"/>
</clipPath>
</defs>
</svg>