<svg xmlns="http://www.w3.org/2000/svg" viewBox="0 0 216 216"><defs><clipPath id="a"><circle cx="62" cy="75.9" r="11.4" fill="none"/></clipPath><clipPath id="b"><path fill="none" d="M27.7 129.7h38.7v17.15H27.7z"/></clipPath><clipPath id="c"><path fill="none" d="M27.7 129.7h38.7v17.15H27.7z"/></clipPath></defs><g data-name="Layer 2"><g data-name="Start Setup R4"><path fill="none" stroke="#2a84fc" stroke-linecap="round" stroke-miterlimit="10" stroke-width="2" d="M5.7 147.4h208.4"/><path d="M139.1 74l3.8-1.1a2.1 2.1 0 0 0 1.4-1.5l.9-3.8a1.8 1.8 0 0 0-.5-1.9l-2.9-2.8a1.9 1.9 0 0 0-2-.4l-3.8 1.1a2 2 0 0 0-1.4 1.4l-.9 3.9a2 2 0 0 0 .6 1.9l2.9 2.8a2.1 2.1 0 0 0 1.9.4z" fill="#5ef1f2"/><circle cx="43.9" cy="96" r="3.4" fill="#f882ff"/><path d="M78.2 56.3a7.6 7.6 0 0 0-.9 1.8l-1 1.9a8.3 8.3 0 0 1-3.9 3.5c-2.4.9-4.9 1.2-6.3 3.6a6.3 6.3 0 0 0-.1 6.1l.2.3a6.1 6.1 0 0 0 9.2 1.1 23.9 23.9 0 0 0 2.2-2.3 7.4 7.4 0 0 1 5-2.4h2.2a6.7 6.7 0 0 0 2 0 9 9 0 0 0 4-1.8A8.6 8.6 0 0 0 93 57a8.7 8.7 0 0 0-12.3-3.2 8.5 8.5 0 0 0-2.5 2.5z" fill="none" stroke="#fbbc05" stroke-linecap="round" stroke-linejoin="round" stroke-width="2"/><circle cx="62" cy="75.9" r="11.4" fill="#34a853"/><g clip-path="url(#a)"><path d="M78.2 56.3a7.6 7.6 0 0 0-.9 1.8l-1 1.9a8.3 8.3 0 0 1-3.9 3.5c-2.4.9-4.9 1.2-6.3 3.6a6.3 6.3 0 0 0-.1 6.1l.2.3a6.1 6.1 0 0 0 9.2 1.1 23.9 23.9 0 0 0 2.2-2.3 7.4 7.4 0 0 1 5-2.4h2.2a6.7 6.7 0 0 0 2 0 9 9 0 0 0 4-1.8A8.6 8.6 0 0 0 93 57a8.7 8.7 0 0 0-12.3-3.2 8.5 8.5 0 0 0-2.5 2.5z" fill="none" stroke="#fff" stroke-linecap="round" stroke-linejoin="round" stroke-width="2"/></g><g clip-path="url(#b)"><g clip-path="url(#c)"><path d="M57 142.7H37.2a2.6 2.6 0 0 1-2.4-2.7v-7.6a2.6 2.6 0 0 1 2.4-2.7H57a2.6 2.6 0 0 1 2.4 2.7v7.6a2.6 2.6 0 0 1-2.4 2.7" fill="#7cb1f2"/><path d="M61.1 145.1h-28a2.6 2.6 0 0 1-2.7-2.4v-6.5a2.5 2.5 0 0 1 2.7-2.3l3.4 1c9.7 2.5 18.7.8 24.6-1a3.2 3.2 0 0 1 1.9.6 2.5 2.5 0 0 1 .8 1.7v6.5a2.6 2.6 0 0 1-2.7 2.4" fill="#d2e3fc"/><path d="M61.1 145.1h-28a2.6 2.6 0 0 1-2.7-2.4v-6.5a2.5 2.5 0 0 1 2.7-2.3l3.4 1c9.7 2.5 18.7.8 24.6-1a3.2 3.2 0 0 1 1.9.6 2.5 2.5 0 0 1 .8 1.7v6.5a2.6 2.6 0 0 1-2.7 2.4z" fill="none" stroke="#2a84fc" stroke-linecap="round" stroke-miterlimit="10" stroke-width="1.41"/><path fill="#4285f4" d="M28.4 139.8h37.4v6.28H28.4z"/><path fill="none" stroke="#2a84fc" stroke-linecap="round" stroke-miterlimit="10" stroke-width="1.41" d="M28.4 139.8h37.4v6.28H28.4z"/></g></g><g data-name="BG LP"><path d="M202.4 79.8H118a4.2 4.2 0 0 0-4.1 3.7l-5 60.1h91.9l5-60.1a3.3 3.3 0 0 0-3.4-3.7z" fill="#fff" stroke="#2a84fc" stroke-linecap="round" stroke-linejoin="round" stroke-width="2"/><path d="M198.6 146.7H86.2a2.6 2.6 0 0 1-2.6-2.6h0a1.3 1.3 0 0 1 1.3-1.3h115a1.3 1.3 0 0 1 1.3 1.3h0a2.6 2.6 0 0 1-2.6 2.6z" fill="#fff" stroke="#2a84fc" stroke-linecap="round" stroke-linejoin="round" stroke-width="2"/><path d="M200.1 83.9h-80.3a1.7 1.7 0 0 0-1.5 1.4l-4.9 54.2h83l5-54.2a1.3 1.3 0 0 0-1.3-1.4z" fill="#d2e3fc" stroke="#2a84fc" stroke-miterlimit="10" stroke-width="1.5"/><path fill="none" stroke="#2a84fc" stroke-linecap="round" stroke-linejoin="round" stroke-width="2" d="M170.3 142.7v4"/><path fill="none" stroke="#2a84fc" stroke-linecap="round" stroke-linejoin="round" d="M196.8 144.7h-3.7M189.9 144.7h-.5"/><circle cx="158" cy="82" r=".6" fill="#2a84fc"/><ellipse cx="156.4" cy="110.2" rx="12.6" ry="11.9" transform="rotate(-75.2 156.473 110.157)" fill="#2a84fc"/></g><path d="M127 59.5a5.9 5.9 0 0 1-8.3 1.1l-11.1-8.4a6 6 0 0 1-1.1-8.4 5.9 5.9 0 0 1 8.3-1.1l11.1 8.4a6 6 0 0 1 1.1 8.4z" fill="#f882ff"/><path d="M37.7 121.1l6.9.7a1.8 1.8 0 0 0 1.8-.8l4-5.3a1.7 1.7 0 0 0 .2-2l-2.7-6.1a2.3 2.3 0 0 0-1.7-1.1l-6.9-.8a2.3 2.3 0 0 0-1.8.8l-4 5.3a2.2 2.2 0 0 0-.2 2.1l2.8 6a2.2 2.2 0 0 0 1.6 1.2z" fill="none" stroke="#fe2c25" stroke-miterlimit="10" stroke-width="1.5"/><path d="M149.7 107.7l4.6 5.9a.8.8 0 0 0 1.2.2l13.4-10.4" fill="none" stroke="#fff" stroke-linecap="round" stroke-linejoin="round" stroke-width="2"/><path d="M152.2 92.6l-.4-6a1 1 0 0 0-1.5-.7l-5 3.4a1 1 0 0 0 .1 1.7l5.4 2.6a1 1 0 0 0 1.4-1z" fill="#7cb1f2"/><path fill="none" d="M0 0h216v216H0z"/></g></g></svg>