<svg width="217" height="216" viewBox="0 0 217 216" fill="none" xmlns="http://www.w3.org/2000/svg"><path d="M4.044 149.598h208.4" stroke="#4285F4" stroke-width="2" stroke-miterlimit="10" stroke-linecap="round"/><path d="m135.544 76.898 3.8-1.1a1.996 1.996 0 0 0 1.4-1.4l.9-3.9a1.902 1.902 0 0 0-.5-1.9l-2.9-2.8a2 2 0 0 0-2-.4l-3.8 1.1a2.1 2.1 0 0 0-1.4 1.5l-.9 3.8a2 2 0 0 0 .6 1.9l2.9 2.8a1.895 1.895 0 0 0 1.9.4z" fill="#2FE2EA"/><path d="M40.344 102.299a3.4 3.4 0 1 0-.001-6.801 3.4 3.4 0 0 0 0 6.801z" fill="#EE5FFA"/><path d="M74.644 59.198a7.598 7.598 0 0 0-.9 1.8l-1 1.9a7.8 7.8 0 0 1-3.9 3.5c-2.4.9-4.9 1.2-6.3 3.6a6.3 6.3 0 0 0-.1 6.1l.2.3a6.1 6.1 0 0 0 9.2 1.2l2.2-2.4a7.3 7.3 0 0 1 5-2.3h4.2a9 9 0 0 0 4-1.8 8.7 8.7 0 0 0-10.1-14.1 9.498 9.498 0 0 0-2.5 2.2v0z" stroke="#FBBC04" stroke-width="2" stroke-linecap="round" stroke-linejoin="round"/><path d="M58.444 90.198c6.296 0 11.4-5.103 11.4-11.4 0-6.296-5.104-11.4-11.4-11.4s-11.4 5.104-11.4 11.4 5.104 11.4 11.4 11.4z" fill="#34A853"/><path d="M69.794 79.872a7.1 7.1 0 0 1-7.985-2.923l-.197-.296a1.012 1.012 0 0 1-.05-.085 7.3 7.3 0 0 1 .115-7.068l.003-.005a6.27 6.27 0 0 1 .989-1.288c.673.269 1.314.6 1.916.986-.46.337-.854.755-1.176 1.307a5.3 5.3 0 0 0-.104 5.087l.177.266a5.099 5.099 0 0 0 6.314 1.892 11.574 11.574 0 0 1-.002 2.127z" fill="#fff"/><path d="M198.844 82.698h-84.4a4.302 4.302 0 0 0-4.1 3.7l-5 60.1h91.9l5.1-60.1c.113-1.981-1.515-3.703-3.5-3.7z" stroke="#4285F4" stroke-width="2" stroke-linecap="round" stroke-linejoin="round"/><path d="M195.044 149.598h-112.4c-.69 0-1.351-.364-1.839-1.012-.487-.648-.761-1.527-.761-2.444 0-.458.137-.897.38-1.221.244-.324.575-.507.92-.507h115c.345 0 .675.183.919.507s.381.763.381 1.221c0 .917-.274 1.796-.762 2.444-.487.648-1.148 1.012-1.838 1.012z" fill="#fff"/><path d="M198.061 87.335h-83.495c-.773-.055-1.506.516-1.562 1.301l-4.393 52.23h86.161l4.642-52.23c.069-.755-.615-1.363-1.353-1.3z" fill="#D2E3FC"/><path d="M154.847 86.603a1 1 0 1 0 0-2 1 1 0 0 0 0 2z" fill="#8AB4F8"/><path d="M188.544 146.959a1 1 0 0 1 1-1h3.7a1 1 0 1 1 0 2h-3.7a1 1 0 0 1-1-1zm-.891 0a1 1 0 1 1-2 0 1 1 0 0 1 2 0z" fill="#4285F4"/><path fill-rule="evenodd" clip-rule="evenodd" d="M82.644 150.598c-1.062 0-1.999-.561-2.638-1.411-.634-.843-.962-1.941-.962-3.044 0-.646.19-1.304.582-1.823.394-.525 1-.905 1.718-.905h115c.717 0 1.323.38 1.718.905.391.519.582 1.177.582 1.823 0 1.103-.328 2.201-.962 3.044-.639.85-1.577 1.411-2.638 1.411h-112.4zm113.439-2.613c-.336.447-.721.613-1.039.613h-27.3v-3a.996.996 0 0 0-.017-.183h28.615c.002 0 .008.002.017.007.02.011.059.039.105.1.097.128.18.35.18.621 0 .729-.22 1.389-.561 1.842zm-30.322-2.57H81.346l-.004.001a.357.357 0 0 0-.119.106c-.096.128-.18.35-.18.621 0 .729.221 1.389.561 1.842.337.447.722.613 1.04.613h83.1v-3c0-.063.006-.124.017-.183z" fill="#4285F4"/><path d="M164.613 116.502c1.778-6.728-1.932-13.543-8.286-15.221-6.355-1.68-12.947 2.414-14.724 9.142-1.778 6.728 1.932 13.543 8.286 15.222 6.354 1.678 12.946-2.415 14.724-9.143z" fill="#4285F4"/><path d="M123.544 62.398a6 6 0 0 1-8.4 1.1l-11.1-8.4a5.998 5.998 0 0 1-1.1-8.4 5.898 5.898 0 0 1 8.3-1.1l11.1 8.4a6.014 6.014 0 0 1 2.34 3.952 6 6 0 0 1-1.14 4.448z" fill="#EE5FFA"/><path d="m34.144 123.998 6.9.7a1.8 1.8 0 0 0 1.8-.8l4-5.3a1.9 1.9 0 0 0 .3-2l-2.8-6.1a2.11 2.11 0 0 0-1.6-1.1l-7-.7a2.003 2.003 0 0 0-1.8.7l-4 5.3a2.204 2.204 0 0 0-.2 2.1l2.8 6a2.004 2.004 0 0 0 1.6 1.2z" stroke="#EA4335" stroke-width="2" stroke-miterlimit="10"/><path d="m146.144 110.598 4.6 5.9a.796.796 0 0 0 1.2.2l13.4-10.4" stroke="#fff" stroke-width="2" stroke-linecap="round" stroke-linejoin="round"/><path d="m149.048 97.8-.401-6a1.002 1.002 0 0 0-1.015-.935c-.171.003-.337.05-.485.135l-5 3.4a1.003 1.003 0 0 0-.269 1.357.998.998 0 0 0 .37.343l5.399 2.6a.904.904 0 0 0 1.002.019.901.901 0 0 0 .399-.919zm-98.791 33.304H25.852a2.89 2.89 0 0 0-2.89 2.89v8.116a2.89 2.89 0 0 0 2.89 2.89h24.405a2.89 2.89 0 0 0 2.89-2.89v-8.116a2.89 2.89 0 0 0-2.89-2.89z" fill="#8AB4F8"/><path d="M55.315 147.4h-34.36c-1.846 0-3.291-1.124-3.291-2.489v-6.904c0-1.364 1.445-2.488 3.291-2.488 1.847 0 2.65.802 4.175 1.124 11.881 2.569 22.88.802 30.185-1.124a3.934 3.934 0 0 1 2.328.722 2.33 2.33 0 0 1 .963 1.766v6.904c0 1.365-1.525 2.489-3.291 2.489z" fill="#fff"/><path d="M55.315 147.4h-34.36c-1.846 0-3.291-1.124-3.291-2.489v-6.904c0-1.364 1.445-2.488 3.291-2.488 1.847 0 2.65.802 4.175 1.124 11.881 2.569 22.88.802 30.185-1.124a3.934 3.934 0 0 1 2.328.722 2.33 2.33 0 0 1 .963 1.766v6.904c0 1.365-1.525 2.489-3.291 2.489z" fill="#D2E3FC"/><path fill-rule="evenodd" clip-rule="evenodd" d="M16.861 142.406v-4.399c0-1.996 2.02-3.291 4.094-3.291 1.058 0 1.823.234 2.498.496.166.064.32.127.468.187.462.188.86.35 1.374.458l.004.001c11.712 2.532 22.572.794 29.811-1.115l.095-.026.098-.001a4.74 4.74 0 0 1 2.804.87l.005.004a3.131 3.131 0 0 1 1.296 2.375l.001.021v4.42h1.726v6.68h-46v-6.68h1.726zm8.101-4.978c11.996 2.593 23.084.827 30.457-1.106a3.13 3.13 0 0 1 1.757.572 1.537 1.537 0 0 1 .627 1.137v4.375H18.467v-4.399c0-.733.87-1.685 2.488-1.685.79 0 1.349.167 1.918.387.117.045.24.095.369.148.484.198 1.052.43 1.72.571z" fill="#4285F4"/></svg>