<svg xmlns="http://www.w3.org/2000/svg" width="20" height="20" viewBox="0 0 20 20" fill="none"><mask id="a" maskUnits="userSpaceOnUse" x="1" y="1" width="12" height="19" fill="#000"><path fill="#fff" d="M1 1h12v19H1z"/><path fill-rule="evenodd" clip-rule="evenodd" d="m9.464 13.317-.842-.845v3.655l1.554-1.559c.342.462.75.873 1.207 1.22L8.42 18.762a.88.88 0 0 1-1.482-.646v-5.482l-3.431 3.442a.872.872 0 0 1-1.246 0 .88.88 0 0 1 0-1.25l4.312-4.325L2.26 6.166a.88.88 0 0 1 0-1.25.872.872 0 0 1 1.246 0l3.43 3.443V2.885a.89.89 0 0 1 .24-.603.884.884 0 0 1 1.251-.043l3.56 3.571A5.997 5.997 0 0 0 9 11c0 .821.165 1.604.464 2.317zm.98-6.624L8.622 4.866V8.52l1.822-1.827z"/></mask><path fill-rule="evenodd" clip-rule="evenodd" d="m9.464 13.317-.842-.845v3.655l1.554-1.559c.342.462.75.873 1.207 1.22L8.42 18.762a.88.88 0 0 1-1.482-.646v-5.482l-3.431 3.442a.872.872 0 0 1-1.246 0 .88.88 0 0 1 0-1.25l4.312-4.325L2.26 6.166a.88.88 0 0 1 0-1.25.872.872 0 0 1 1.246 0l3.43 3.443V2.885a.89.89 0 0 1 .24-.603.884.884 0 0 1 1.251-.043l3.56 3.571A5.997 5.997 0 0 0 9 11c0 .821.165 1.604.464 2.317zm.98-6.624L8.622 4.866V8.52l1.822-1.827z" fill="#1A73E8" fill-opacity=".3"/><path d="m8.622 12.473.284-.283-.684-.685v.967h.4zm.842.844-.284.282.652-.437-.368.155zm-.842 2.81h-.4v.968l.684-.685-.284-.283zm1.554-1.559.321-.238-.276-.373-.328.329.283.282zm1.207 1.22.284.282.323-.325-.365-.276-.242.319zM8.42 18.762l.273.292.01-.01-.283-.282zm-1.482-6.128h.4v-.968l-.684.686.284.282zm-3.431 3.442-.284-.282.284.282zm-1.246-1.25-.283-.282.283.283zm4.312-4.325.284.282.28-.282-.28-.282-.284.282zM2.26 6.166l.284-.282-.284.282zm1.246-1.25.283-.282-.283.283zm3.43 3.443-.283.282.684.686v-.968h-.4zm0-5.474-.4-.001v.001h.4zm.24-.603-.293-.273.292.273zm1.251-.043.284-.282-.01-.01-.274.292zm3.56 3.571.2.346.45-.26-.367-.368-.283.282zm-3.365-.944.284-.283-.684-.685v.968h.4zm1.822 1.827.283.282.281-.282-.281-.282-.283.282zM8.622 8.52h-.4v.968l.684-.685-.284-.283zm-.283 4.235.841.844.567-.565-.841-.844-.567.565zm.683 3.372v-3.654h-.8v3.654h.8zm.87-1.841L8.34 15.845l.567.565 1.553-1.56-.566-.564zm1.733 1.183a5.637 5.637 0 0 1-1.128-1.139l-.642.476c.364.493.798.931 1.287 1.3l.483-.637zm-2.923 3.575 2.965-2.974-.567-.565-2.964 2.975.566.564zm-.884.356c.324 0 .637-.124.874-.346l-.546-.584a.48.48 0 0 1-.328.13v.8zm-1.281-1.284c0 .709.572 1.284 1.28 1.284v-.8a.482.482 0 0 1-.48-.484h-.8zm0-5.482v5.482h.8v-5.482h-.8zm-2.748 3.725 3.43-3.443-.566-.564-3.43 3.442.566.565zm-1.812 0a1.272 1.272 0 0 0 1.812 0l-.567-.565a.472.472 0 0 1-.678 0l-.567.565zm0-1.815a1.28 1.28 0 0 0 0 1.815l.567-.565a.48.48 0 0 1 0-.685l-.567-.565zm4.312-4.326-4.312 4.326.567.565 4.312-4.326-.567-.565zm-4.312-3.77 4.312 4.335.567-.564-4.312-4.335-.567.564zm0-1.814a1.28 1.28 0 0 0 0 1.814l.567-.564a.48.48 0 0 1 0-.685l-.567-.565zm1.812 0a1.272 1.272 0 0 0-1.812 0l.567.565a.472.472 0 0 1 .678 0l.567-.565zm3.43 3.442L3.79 4.634l-.567.565 3.431 3.442.567-.565zm-.682-5.19v5.473h.8V2.885h-.8zm.345-.877c-.22.238-.344.55-.345.875l.8.003c0-.123.047-.242.131-.333l-.586-.544zm1.819-.062a1.284 1.284 0 0 0-1.818.062l.585.545a.484.484 0 0 1 .686-.023l.547-.584zm3.569 3.581L8.71 1.957l-.566.565 3.56 3.57.566-.564zM9.4 11a5.597 5.597 0 0 1 2.788-4.844l-.402-.691A6.398 6.398 0 0 0 8.6 11h.8zm.432 2.162A5.581 5.581 0 0 1 9.4 11h-.8c0 .875.176 1.71.495 2.471l.737-.309zM8.34 5.148l1.821 1.827.567-.564-1.821-1.828-.567.565zm.683 3.372V4.866h-.8V8.52h.8zm1.138-2.11L8.34 8.239l.567.565 1.82-1.828-.566-.564z" fill="#1A73E8" fill-opacity=".3" mask="url(#a)"/><path fill-rule="evenodd" clip-rule="evenodd" d="M14 12v2h2v-2h2v-2h-2V8h-2v2h-2v2h2z" fill="#1A73E8"/></svg>