<svg width="48" height="48" viewBox="0 0 48 48" fill="none" xmlns="http://www.w3.org/2000/svg"><path d="M37.714 16.857H10.286V38.57h27.428V16.857z" fill="#D2E3FC"/><path d="M37.09 14.571H10.91c-1.6 0-2.91 1.331-2.91 2.958v19.227c0 1.627 1.31 2.958 2.91 2.958h26.18c1.6 0 2.91-1.33 2.91-2.958V17.53c0-1.627-1.31-2.958-2.91-2.958zm0 22.185H10.91V17.53h26.18v19.227zM20.78 20.487h.623c.63 0 1.143.512 1.143 1.143v.672c0 .632-.512 1.143-1.143 1.143h-.624a1.143 1.143 0 0 1-1.143-1.143v-.672c0-.631.512-1.143 1.143-1.143zm-5.819 0h.623c.632 0 1.143.512 1.143 1.143v.672c0 .632-.511 1.143-1.143 1.143h-.623a1.143 1.143 0 0 1-1.143-1.143v-.672c0-.631.512-1.143 1.143-1.143zm3.22 11.832h11.637v2.286H18.182v-2.286zm8.416-11.832h.624c.631 0 1.143.512 1.143 1.143v.672c0 .632-.512 1.143-1.143 1.143h-.624a1.143 1.143 0 0 1-1.143-1.143v-.672c0-.631.512-1.143 1.143-1.143zm-5.818 5.916h.624c.63 0 1.143.512 1.143 1.143v.672c0 .631-.512 1.143-1.143 1.143h-.624a1.143 1.143 0 0 1-1.143-1.143v-.672c0-.631.512-1.143 1.143-1.143zm-5.818 0h.623c.632 0 1.143.512 1.143 1.143v.672c0 .631-.511 1.143-1.143 1.143h-.623a1.143 1.143 0 0 1-1.143-1.143v-.672c0-.631.512-1.143 1.143-1.143zm11.636 0h.624c.631 0 1.143.512 1.143 1.143v.672c0 .631-.512 1.143-1.143 1.143h-.624a1.143 1.143 0 0 1-1.143-1.143v-.672c0-.631.512-1.143 1.143-1.143zm5.819-5.916h.623c.631 0 1.143.512 1.143 1.143v.672c0 .632-.512 1.143-1.143 1.143h-.623a1.143 1.143 0 0 1-1.143-1.143v-.672c0-.631.511-1.143 1.143-1.143zm0 5.916h.623c.631 0 1.143.512 1.143 1.143v.672c0 .631-.512 1.143-1.143 1.143h-.623a1.143 1.143 0 0 1-1.143-1.143v-.672c0-.631.511-1.143 1.143-1.143z" fill="#8AB4F8"/><path fill-rule="evenodd" clip-rule="evenodd" d="M16 8a1 1 0 0 0-1 1v11.868h18V9a1 1 0 0 0-1-1H16zm7.418 18.887L15 20.867h18l-8.418 6.019a1 1 0 0 1-1.164 0z" fill="#4285F4"/><path d="M25 12l3 3-3 3" stroke="#fff" stroke-width="2" stroke-linecap="square" stroke-linejoin="round"/><path d="M27 15h-6a1 1 0 0 0-1 1v3" stroke="#fff" stroke-width="2" stroke-linejoin="round"/></svg>