<svg width="300px" height="200px" viewBox="0 0 300 200" version="1.1" xmlns="http://www.w3.org/2000/svg" xmlns:xlink="http://www.w3.org/1999/xlink" jetway-hooks="{}">
    <title>Settings Dialog/Connecting</title>
    <defs>
        <path d="M12.4157095,0.58281627 C13.4953335,0.798757194 14.5642264,1.1617874 15.5955385,1.68127051 C15.8701366,1.81836155 16.1444199,1.9886411 16.4185789,2.16198689 C16.6716515,3.38137992 16.8040846,4.64430839 16.8040846,5.93817564 C16.8040846,14.3246941 11.2401745,21.4114232 3.60212143,23.7082065 C2.32769763,22.9649858 1.22896271,22.0210432 0.325469238,20.9366363 C7.70668266,19.9246182 13.390582,13.5953619 13.390582,5.93817564 C13.390582,4.13883641 13.0767229,2.41282655 12.5007619,0.811907996 Z" id="path-1"></path>
        <path d="M39.1841769,0.722912821 L0.826676923,11.13875 C0.102132051,11.3199077 -0.12429359,12.2256103 0.41909359,12.7237295 L28.63245,40.7106603 C29.1759231,41.2088654 30.0363577,40.9824397 30.2175154,40.257809 L40.361659,1.90030897 C40.5428167,1.1757641 39.9088077,0.541755128 39.1841769,0.722912821 Z" id="path-3"></path>
    </defs>
    <g jetway-hook-id="0CD9E428-7FEB-4E30-A3B6-CDD9F130FB1C" id="Illo" stroke="none" stroke-width="1" fill="none" fill-rule="evenodd">
        <g jetway-hook-id="D8C7D44A-E9C9-4B9C-BCCE-0467F7C167A4" id="Settings-Connecting" transform="translate(-18.000000, 0.000000)">
            <g jetway-hook-id="92EE0B26-BE6C-4B6A-861E-3266AEE0553B" id="Settings-Dialog/Connecting" transform="translate(18.000000, 0.000000)">
                <g jetway-hook-id="8005AC22-B015-41D6-8B70-2248837B9739" id="Group" transform="translate(16.209860, 63.242888)">
                    <path d="M264.21675,93.1086064 L224.002147,93.1086064 C222.281621,93.1086064 220.922724,91.7050423 220.922724,90.0291833 L220.922724,3.07946946 C220.922724,1.35859164 222.327147,-2.76116907e-13 224.002147,-2.76116907e-13 L264.21675,-2.76116907e-13 C265.937275,-2.76116907e-13 267.296173,1.40387677 267.296173,3.07946946 L267.296173,89.9836577 C267.296173,91.7050423 265.892608,93.1086064 264.21675,93.1086064 Z" jetway-hook-id="58EF8BD8-3C0B-4A45-A304-B2F9F0184A6E" id="Path" fill="#D2E3FC" fill-rule="nonzero"></path>
                    <path d="M264.21675,93.1086064 L224.002147,93.1086064 C222.281621,93.1086064 220.922724,91.7050423 220.922724,90.0291833 L220.922724,3.07946946 C220.922724,1.35859164 222.327147,-2.76116907e-13 224.002147,-2.76116907e-13 L264.21675,-2.76116907e-13 C265.937275,-2.76116907e-13 267.296173,1.40387677 267.296173,3.07946946 L267.296173,89.9836577 C267.296173,91.7050423 265.892608,93.1086064 264.21675,93.1086064 Z" jetway-hook-id="42708D90-6C9D-4CD9-A10A-FD22C0FF0815" id="Path" fill="#D2E3FC" fill-rule="nonzero"></path>
                    <path d="M108.081721,4.33600443 L80.591242,8.59320981 C73.1516681,9.72975061 68.0612428,16.661035 69.2025453,24.0798949 C70.3430473,31.4930103 77.2874779,36.6090994 84.6895984,35.4702739 L112.180071,31.2131123 C119.619867,30.0765676 124.710518,23.1452243 123.569292,15.7281469 C122.432034,8.28508728 115.500519,3.1946274 108.081721,4.33600443 Z M120.194951,16.2437274 C121.049758,21.7993174 117.239663,26.9870778 111.661134,27.8392877 L84.1688728,32.0967235 C78.6350518,32.948108 73.4306975,29.1139649 72.576356,23.5608557 C71.7219551,18.006955 75.5318873,12.8192305 81.1101881,11.967033 L108.602445,7.70955488 C114.154649,6.85535305 119.342607,10.6653559 120.194951,16.2437274 Z" jetway-hook-id="B70B9EB7-7EA2-43A6-B219-1C209DA5ECE9" id="Path" fill="#FE2C25" fill-rule="nonzero"></path>
                    <path d="M149.68798,12.5895525 C152.464185,12.5895525 154.714698,10.3390397 154.714698,7.56280882 C154.714698,4.7865951 152.464185,2.53603074 149.68798,2.53603074 C146.911775,2.53603074 144.661262,4.7865951 144.661262,7.56280882 C144.661262,10.3390397 146.911775,12.5895525 149.68798,12.5895525 Z" jetway-hook-id="D7D27872-C8D0-41E9-8BB3-0FE7DE8A6069" id="Path" fill="#34A853" fill-rule="nonzero"></path>
                    <path d="M83.5696316,21.0128269 L45.2121316,31.4286641 C44.4875867,31.6098218 44.2611611,32.5155243 44.8045482,33.0136436 L73.0179046,61.0005743 C73.5613777,61.4987795 74.4218123,61.2723538 74.60297,60.5477231 L84.7471136,22.1902231 C84.9282713,21.4656782 84.2942623,20.8316692 83.5696316,21.0128269 Z" jetway-hook-id="DD86A781-772A-4860-A2F1-91E3BB1E2FB9" id="Path" fill="#FFBA00" fill-rule="nonzero"></path>
                    <path d="M220.878057,35.5950333 C217.028134,35.7308372 213.269262,34.4175513 210.371083,31.8362474 L206.612211,28.4850448 C206.567544,28.4397769 204.891685,27.0812231 204.891685,27.0812231 C204.439006,26.8094436 203.986326,26.492482 203.532788,26.2660564 C197.329275,23.1412795 189.766006,25.6773154 186.686583,31.8362474 C183.561634,38.0404474 186.098185,45.6032872 192.257032,48.6827102 C192.755237,48.9092218 193.207916,49.1356474 193.706121,49.3167192 L193.751647,49.3167192 C193.751647,49.3167192 195.789134,49.8601923 195.879326,49.8601923 L200.815852,50.9017846 C204.664916,51.7169513 208.061301,54.0265615 210.235365,57.2871423 L212.680865,61.0006602 C213.314788,62.2233243 214.084429,63.4008064 214.945121,64.4876666 C216.529929,66.3896936 218.52275,67.9746731 220.878057,69.1068872" jetway-hook-id="22FD1F02-5CA0-4E6E-B5FC-2C631381CCB6" id="Path" fill="#D2E3FC" fill-rule="nonzero"></path>
                    <path d="M220.878057,69.1521551 C221.285211,69.3785807 221.737891,69.5597384 222.191429,69.7408961 C230.342237,72.910941 239.76175,69.6502743 244.154544,62.0875205 C249.408032,53.0755051 245.921455,41.6180756 236.727852,36.9988551 C234.463596,35.8667269 232.109147,35.2779859 229.753839,35.142182 C228.350275,35.0515602 226.945852,35.142182 225.587814,35.3686077 L221.149493,35.6403013 C221.059301,35.6403013 220.96825,35.6403013 220.878057,35.6403013" jetway-hook-id="895D7D7E-1F34-42A2-9462-A8D431D0238F" id="Path" fill="#4285F4" fill-rule="nonzero"></path>
                    <path d="M186.188378,11.9697474 C175.941509,11.9697474 167.635421,20.2761278 167.635421,30.5229615 C167.635421,40.769809 175.941523,49.0762615 186.188378,49.0762615 C196.435233,49.0762615 204.741334,40.769809 204.741334,30.5229615 C204.741334,20.2761278 196.435246,11.9697474 186.188378,11.9697474 Z M186.188378,15.38325 C194.549994,15.38325 201.327832,22.1613263 201.327832,30.5229615 C201.327832,38.8846158 194.549975,45.6627589 186.188378,45.6627589 C177.826781,45.6627589 171.048924,38.8846158 171.048924,30.5229615 C171.048924,22.1613263 177.826761,15.38325 186.188378,15.38325 Z" jetway-hook-id="76734DBE-E270-45E0-A15E-709F10463240" id="Path" fill="#4285F4" fill-rule="nonzero"></path>
                    <path d="M249.753339,4.54173587 C250.271382,4.54173587 250.691339,4.96169278 250.691339,5.47973587 C250.691339,5.95460871 250.338459,6.3470619 249.88062,6.40917304 L249.753339,6.41773587 L240.96775,6.41773587 C240.449706,6.41773587 240.02975,5.99777897 240.02975,5.47973587 C240.02975,5.00486303 240.38263,4.61240984 240.840468,4.55029871 L240.96775,4.54173587 L249.753339,4.54173587 Z" jetway-hook-id="5B8ACDDF-BD81-4DC7-9E53-E171467FE5C9" id="Path" fill="#4285F4" fill-rule="nonzero"></path>
                    <path d="M236.121416,6.61161497 C236.74675,6.61161497 237.253544,6.10473421 237.253544,5.479461 C237.253544,4.85418779 236.74675,4.34729844 236.121416,4.34729844 C235.496942,4.34729844 234.989288,4.85418779 234.989288,5.479461 C234.989288,6.10473421 235.496942,6.61161497 236.121416,6.61161497 Z" jetway-hook-id="A5018D56-6D3A-40AE-AFEC-90649964224F" id="Path" fill="#4285F4" fill-rule="nonzero"></path>
                    <g jetway-hook-id="E9F9A8E0-8206-43C2-8EBB-4899D998D883" id="Clipped" transform="translate(187.937250, 24.584786)">
                        <mask id="mask-2" fill="white">
                            <use xlink:href="#path-1"></use>
                        </mask>
                        <use jetway-hook-id="8A649D77-4235-4763-A997-682CC4241026" id="Combined-Shape" fill="#FFFFFF" xlink:href="#path-1"></use>
                    </g>
                    <g jetway-hook-id="959CD3F6-7561-4057-9449-B0D26DE698EF" id="Clipped" transform="translate(44.385455, 20.289914)">
                        <mask id="mask-4" fill="white">
                            <use xlink:href="#path-3"></use>
                        </mask>
                        <g jetway-hook-id="36EB7188-2C2B-4AD4-A957-3220529A0EA1" id="Path"></g>
                        <path d="M26.5039974,3.53047051 C25.507759,-2.94542308 29.9458218,-9.01381923 36.4669833,-10.0100577 L63.9557949,-14.2670058 C70.4316026,-15.2633044 76.5002564,-10.8252244 77.4966667,-4.30397692 C78.4930769,2.17191667 74.0547564,8.24031282 67.5334231,9.23655128 L40.0446115,13.4934564 C33.5687179,14.4897808 27.5003218,10.00645 26.5039974,3.53047051 Z" jetway-hook-id="77C4697C-93B4-4A81-9503-1E6213864CD3" id="Path" stroke="#FFFFFF" stroke-width="2.54739" stroke-linecap="round" stroke-linejoin="round" mask="url(#mask-4)"></path>
                    </g>
                    <path d="M12.9230277,46.9619269 C21.3009482,44.3353551 30.6299252,47.9128974 34.9774521,55.8833205 C39.9136341,64.9858718 36.5624316,76.3527654 27.4599662,81.2889474 C26.2824841,81.9229564 25.0144662,82.4663436 23.7917162,82.8286589" jetway-hook-id="0153643C-9BC0-4282-A437-C790B5864DE8" id="Path" fill="#F882FF" fill-rule="nonzero"></path>
                    <path d="M4.19919725,14.6907668 L26.6467752,91.1724782 L104.193599,90.2411515 L104.246182,94.6171639 L25.0407576,95.569067 C24.1115585,95.5800729 23.2828749,95.0041342 22.9633391,94.1432122 L22.9148676,93.9971383 L3.80850906e-14,15.9232408 L4.19919725,14.6907668 Z" jetway-hook-id="3681A236-F2F3-4DA3-B9E8-BC960CCE897F" id="Path" fill="#2A84FC" fill-rule="nonzero"></path>
                </g>
            </g>
        </g>
    </g>
</svg>