<svg width="300px" height="200px" viewBox="0 0 300 200" version="1.1" xmlns="http://www.w3.org/2000/svg" xmlns:xlink="http://www.w3.org/1999/xlink" jetway-hooks="{}">
    <title>Settings Dialog/Error</title>
    <defs>
        <path d="M108,126.708028 L108,124.757556 C108,121.927097 105.705459,119.632556 102.875,119.632556 C100.059907,119.632556 97.7778231,117.350473 97.7778231,114.53538 C97.7778231,114.52613 97.7778483,114.516881 97.7778986,114.507632 L97.9878598,75.9381658 C97.9959326,74.4552074 98.153929,72.9768652 98.4594385,71.5256951 L100,64.2080282 C101.323966,57.9191882 101.584396,51.4529023 100.770465,45.0779584 L99.75,37.0853867 L99.75,37.0853867 C103.121077,33.7286696 105.085363,30.1909338 105.642857,26.4721791 C106.112368,23.3403175 105.629184,19.7792465 104.193307,15.788966 C103.711419,14.4497984 102.354912,13.6335287 100.946002,13.8349168 L86.7857143,15.8589716 L86.7857143,15.8589716 L80.620359,3.52121088 C80.3734827,3.02717593 79.7728554,2.82681428 79.2788205,3.0736906 C79.0820036,3.17204281 78.9231175,3.33256028 78.8267808,3.53037155 L73.1132127,15.2622315 C70.5124289,20.6025075 70.4708006,26.8334794 73,32.2080282 C74.6972982,35.8147868 73.1493746,40.1145744 69.542616,41.8118726 C69.1636101,41.9902283 68.7697972,42.1352521 68.3656483,42.2453423 C57.8558491,45.1070737 51.0315854,51.2487237 47.8928571,60.6702923 C45.83176,66.8571192 42.9350819,75.8570376 39.2028228,87.6700476 C34.2112843,103.468818 42.9722758,120.322693 58.7710455,125.314232 C61.6947764,126.23797 64.7428412,126.708028 67.8090266,126.708028 L108,126.708028 L108,126.708028 Z" id="path-1"></path>
    </defs>
    <g jetway-hook-id="0CD9E428-7FEB-4E30-A3B6-CDD9F130FB1C" id="Illo" stroke="none" stroke-width="1" fill="none" fill-rule="evenodd">
        <g jetway-hook-id="45E1366D-9D88-4694-8531-07CD77F9E398" id="Settings-Generic-Error" transform="translate(-18.000000, 0.000000)">
            <g jetway-hook-id="131509D0-B7AA-461B-AA1A-0683DA9B877A" id="Settings-Dialog/Error" transform="translate(18.000000, 0.000000)">
                <g jetway-hook-id="E1407B86-1B2E-45BE-9C60-77A85586CA51" id="Group-3" transform="translate(13.075788, 21.324643)">
                    <g jetway-hook-id="8A50CF9B-0B7C-4406-AD71-B0607D36EF27" id="Group-2" transform="translate(0.217805, 0.253202)">
                        <line x1="1.20640681" y1="163.922154" x2="272.206407" y2="163.922154" jetway-hook-id="48C3DCE6-10B2-44E5-A7FE-124A62179E24" id="Line" stroke="#CFE3FF" stroke-width="2" stroke-linecap="round"></line>
                        <g jetway-hook-id="F11CC4E3-52D3-4259-91CC-9917FDCC1901" id="Cat" transform="translate(21.706407, 34.714126)">
                            <path d="M3.6841321,60.103397 C10.6567908,53.4040978 21.7401025,53.6256994 28.4394018,60.598358 C28.896705,61.0743212 29.3267269,61.5757638 29.727408,62.1002844 C36.347759,70.7668042 36.4348689,82.7481253 29.9887376,91.5018767 L29.727408,91.8502899 L27.0872189,95.306489 C21.4393561,102.699997 22.8544547,113.272114 30.2479363,118.919992 C31.006843,119.49972 31.813672,120.013866 32.6597038,120.456873 C34.3188665,121.325659 36.539086,122.028763 39.3121842,122.559394 L40.1195352,122.706304 C41.353107,122.919611 42.6880848,123.10112 44.1238249,123.250298 L45.0959057,123.344953 C45.2604047,123.359929 45.426146,123.374504 45.5931286,123.388678 L46.6099132,123.468898 C46.7818575,123.481463 46.9550415,123.493625 47.1294641,123.505384 L48.1908571,123.571089 L49.2819359,123.627073 L50.4026583,123.673301 L51.5529819,123.709737 C51.9413519,123.720247 52.3346483,123.729119 52.7328642,123.736348 L53.9422629,123.753096 L55.1811356,123.759948 C55.3900682,123.760264 55.6002271,123.760165 55.8116115,123.759652 L57.0946157,123.751593 L58.406988,123.733549 L59.7486858,123.705485 C59.9747436,123.69997 60.2020215,123.694037 60.4305187,123.687684 C61.8106972,123.649311 62.9606608,124.737058 62.9990343,126.117237 C63.0374078,127.497415 61.9496599,128.647379 60.5694813,128.685753 L59.1336646,128.720693 C58.8968568,128.725617 58.6612958,128.730089 58.4269808,128.73411 L57.0360358,128.752815 C56.8067013,128.755028 56.578611,128.756788 56.3517641,128.758094 L55.0055954,128.760483 C54.7837183,128.760483 54.5630828,128.759006 54.343688,128.757584 L53.0422004,128.743579 C52.6133292,128.737083 52.1894138,128.728759 51.7704471,128.718599 L50.5283857,128.682611 C50.1193093,128.668776 49.7151744,128.653101 49.315974,128.635579 L48.1331694,128.577467 C47.5491618,128.545635 46.976241,128.509635 46.4143832,128.469448 L45.3054111,128.383483 C38.7399973,127.834123 33.7653596,126.679822 30.3402962,124.886359 C29.2431593,124.311866 28.1968606,123.64512 27.2127076,122.893326 C17.7268158,115.647057 15.8296355,102.150169 22.8832379,92.5786508 L23.1138798,92.2712663 L25.7540735,88.8150613 C31.0938085,81.8249607 31.0938085,72.1256136 25.7540735,65.135513 C25.4678196,64.760786 25.1606042,64.4025462 24.8338984,64.0625095 C20.1249924,59.1614604 12.3842862,58.9291608 7.39158526,63.4811731 L7.1482836,63.7089004 L4.23207575,66.5107798 C3.23644349,67.4673789 1.65384734,67.4357362 0.697248324,66.4401039 C-0.217759435,65.48776 -0.228591412,63.998383 0.643528028,63.0335007 L0.767924253,62.9052765 L3.6841321,60.103397 Z" jetway-hook-id="24265827-F182-4149-A9A6-ACDD16A36E84" id="Path-37" fill="#2A84FC" fill-rule="nonzero"></path>
                            <path d="M78.3848023,1.2846318 C77.7943515,1.57968845 77.3176932,2.06124085 77.0286832,2.65467467 L71.3151151,14.3865346 C68.4492325,20.2711469 68.403361,27.1372438 71.1903626,33.0596222 C72.4173384,35.6669457 71.2983454,38.7752594 68.6910219,40.0022352 C68.4170481,40.131164 68.1323001,40.2360322 67.840001,40.3156545 C56.7018225,43.3484884 49.351726,49.9633735 45.9953821,60.0381621 L44.814916,63.6105234 L42.747421,69.9684731 L40.1055957,78.2099849 L37.2957426,87.0675155 C31.9714348,103.919537 41.3164925,121.897004 58.1685135,127.221312 C61.2871597,128.206632 64.5384288,128.708028 67.8090266,128.708028 L108,128.708028 C109.104569,128.708028 110,127.812598 110,126.708028 L110,124.757556 C110,120.902834 106.938903,117.76307 103.114968,117.636521 L102.875,117.632556 C101.22346,117.632556 99.8738395,116.339886 99.782726,114.711131 L99.7778912,114.513076 L99.9878301,75.9490531 C99.995169,74.6009091 100.138802,73.2569616 100.416538,71.9377161 L101.9571,64.6200491 L102.122618,63.8056682 C103.347639,57.555058 103.561506,51.1464565 102.75436,44.8246613 L101.855,37.787 L101.896981,37.7449512 C105.112581,34.3178928 107.038287,30.6540343 107.620755,26.7686942 C108.143562,23.2813196 107.616117,19.3940382 106.075175,15.1117873 L105.992947,14.8985411 C105.126078,12.7938384 102.935438,11.5302209 100.663001,11.8550404 L87.93,13.675 L82.4094178,2.62719264 C81.6962196,1.19998057 79.9989241,0.589736181 78.5507264,1.20783774 L78.3848023,1.2846318 Z M79.2788205,3.0736906 C79.7375672,2.8444483 80.2882226,3.00083466 80.5622102,3.41989721 L80.620359,3.52121088 L86.7857143,15.8589716 L100.946002,13.8349168 C102.354912,13.6335287 103.711419,14.4497984 104.193307,15.788966 C105.629184,19.7792465 106.112368,23.3403175 105.642857,26.4721791 C105.105273,30.0581211 103.259589,33.4757433 100.105804,36.7250457 L99.75,37.0853867 L100.770465,45.0779584 C101.550483,51.1872797 101.343804,57.3804897 100.159956,63.4210184 L100,64.2080282 L98.4594385,71.5256951 C98.1975733,72.7695552 98.0440849,74.0333785 98.0004915,75.3029606 L97.9878598,75.9381658 L97.7778231,114.53538 C97.7778231,117.278291 99.9443774,119.515176 102.659535,119.628085 L102.875,119.632556 C105.632883,119.632556 107.881979,121.810937 107.995504,124.540916 L108,124.757556 L108,126.708028 L67.8090266,126.708028 C64.7428412,126.708028 61.6947764,126.23797 58.7710455,125.314232 C42.9722758,120.322693 34.2112843,103.468818 39.2028228,87.6700476 L41.3419085,80.9198126 L44.2707721,71.7613959 L46.2316003,65.7115714 L47.8928571,60.6702923 C51.0315854,51.2487237 57.8558491,45.1070737 68.3656483,42.2453423 C68.7697972,42.1352521 69.1636101,41.9902283 69.542616,41.8118726 C73.1493746,40.1145744 74.6972982,35.8147868 73,32.2080282 C70.5324884,26.9645659 70.5119276,20.9059479 72.9274788,15.6545476 L73.1132127,15.2622315 L78.8267808,3.53037155 C78.9231175,3.33256028 79.0820036,3.17204281 79.2788205,3.0736906 Z" jetway-hook-id="D10605EB-1EE5-4B82-8523-44DBA926AEC8" id="Path-33" fill="#2A84FC" fill-rule="nonzero"></path>
                            <mask id="mask-2" fill="white">
                                <use xlink:href="#path-1"></use>
                            </mask>
                            <use jetway-hook-id="25CA8545-FC49-4571-8D52-777E39708D3C" id="Path-33" fill="#FFFFFF" xlink:href="#path-1"></use>
                            <path d="M80,1.70802817 C77.8148764,8.27304305 77.1482097,12.9397097 78,15.7080282 C78.7087421,18.01144 81.1355228,21.1675779 85.280342,25.1764418 L85.6618774,25.5432323 C87.1283587,26.9446897 87.6028027,29.0932718 86.8628402,30.9819501 C83.9691531,38.3677884 79.2446888,44.4669728 72.6894471,49.2795032 C66.9696915,53.4786614 51.6824109,77.4644517 57.9122839,95.2897244 C58.5487456,96.4581543 59.0860202,97.6579684 59.525205,98.8884662 C59.6754454,99.1641544 59.8344991,99.4372085 60,99.7080282 C60.247181,100.112506 60.2471135,100.330657 59.9997975,100.362482 C62.1157165,107.701982 60.8744142,116.092712 56.2759468,125.533602 L56.2759468,125.533602 L23,126.708028 L24.1884267,79.7309678 C30.0090348,79.5849853 35.1756766,80.1357525 39.6883518,81.3832694 C41.9636117,61.9922361 45.141426,49.1958451 49.2206057,42.9937425 C53.72803,36.1405243 63.9878281,22.3786195 80,1.70802817 Z" jetway-hook-id="F5E32A14-C67C-41C2-A577-01C0EB26BF35" id="Combined-Shape" fill="#D2E3FC" mask="url(#mask-2)"></path>
                        </g>
                        <g jetway-hook-id="B080972C-D5C1-4276-B15A-9B889FA15EF3" id="Cat-Acc" transform="translate(82.706407, 33.714126)">
                            <path d="M27.6151697,4.47434682 L23.4520729,12.4836211 L24.6818756,16.5950472 L31.2167851,16.3831204 L31.3895113,5.4282816 C31.4014548,4.6707857 30.9843702,3.97156342 30.3121643,3.6221612 C29.3320852,3.11273128 28.1245996,3.49426778 27.6151697,4.47434682 Z M25.6,12.686 L29.3897598,5.39675129 L29.247,14.446 L26.156,14.546 L25.6,12.686 Z" jetway-hook-id="327AA9BA-2663-4229-AB07-189B7F67E6F7" id="Path-34" fill="#2A84FC" fill-rule="nonzero" transform="translate(27.420917, 9.995693) rotate(-8.000000) translate(-27.420917, -9.995693) "></path>
                            <g jetway-hook-id="9D326EB7-2127-4C49-AC24-E31D5D2656CF" id="Collar" transform="translate(8.032492, 34.577131)" fill="#8AB4F8">
                                <path d="M12.7464378,1.62079909 L31.6987869,3.28502452 C33.0733707,3.40749585 34.0902626,4.61932095 33.9722457,5.9942944 L33.8952112,6.87861666 C33.7818568,8.19924524 32.6601589,9.19019515 31.3536476,9.16134739 L31.1894307,9.15238005 C31.188849,9.15232938 31.1882674,9.15227851 31.1878389,9.15048311 L10.8924378,7.36779909 L12.7464378,1.62079909 Z M8.22943781,1.22379909 L10.7034378,1.44079909 L8.84943781,7.18779909 L6.37543781,6.97079909 L8.22943781,1.22379909 Z M2.64635238,0.737413088 L2.8105693,0.746380426 C2.81115097,0.746431097 2.81173264,0.746481971 2.8121611,0.748277368 L6.18643781,1.04379909 L4.33143781,6.79079909 L2.30121314,6.61373596 C0.926629295,6.49126463 -0.090262553,5.27943953 0.0277543314,3.90446608 L0.104788828,3.02014382 C0.218143197,1.69951524 1.33984106,0.708565332 2.64635238,0.737413088 Z" jetway-hook-id="6C55F897-9AC0-4E24-9E5D-474ABBB67E5F" id="Combined-Shape"></path>
                            </g>
                            <path d="M38,16.0413615 L38,16.0413615 L38,16.0413615 L43,18.7080282 L42.9081775,18.2489155 C42.5500558,16.4583073 40.8081661,15.2970475 39.0175579,15.6551692 C38.6593678,15.7268072 38.3155244,15.8573056 38,16.0413615 Z" jetway-hook-id="12CC4729-5D60-4ADD-8BA2-5A108784ABF1" id="Path-35" fill="#2A84FC"></path>
                            <path d="M36.770864,16.9938876 C37.1652729,16.8673393 37.5875922,17.0844832 37.7141405,17.4788922 C37.8301432,17.8404337 37.6573488,18.2254277 37.3239489,18.384557 L37.229136,18.4221687 L26.8402471,21.755502 C26.4458382,21.8820503 26.0235189,21.6649064 25.8969706,21.2704975 C25.780968,20.908956 25.9537623,20.523962 26.2871622,20.3648326 L26.3819751,20.327221 L36.770864,16.9938876 Z" jetway-hook-id="55D429E8-99A2-4009-904A-D33C77422ABA" id="Path-39" fill="#8AB4F8" fill-rule="nonzero"></path>
                            <path d="M37.5925615,19.0783505 C37.9403229,18.8533285 38.4046556,18.9528284 38.6296776,19.3005897 C38.8342431,19.6167364 38.7706087,20.029223 38.4960699,20.2706702 L38.4074385,20.3377058 L29.9074385,25.8377058 C29.5596771,26.0627278 29.0953444,25.963228 28.8703224,25.6154666 C28.6657569,25.2993199 28.7293913,24.8868333 29.0039301,24.6453861 L29.0925615,24.5783505 L37.5925615,19.0783505 Z" jetway-hook-id="CCEA843A-A4E7-429E-9130-CA6E17E56FE2" id="Path-39-Copy" fill="#8AB4F8" fill-rule="nonzero"></path>
                            <path d="M1.47144023,76.2084361 C11.4605916,75.9230318 19.7897647,83.789473 20.075169,93.7786244 L20.0800467,93.9944265 L20.195,118.338 L36.5536045,120.398737 C40.1553713,120.8524 42.8767555,123.85739 42.9959272,127.461395 L42.9999919,127.708028 C42.9999919,128.260313 42.5522847,128.708028 42,128.708028 C41.4477153,128.708028 41,128.260313 41,127.708028 C41,125.080507 39.100635,122.851827 36.5320159,122.416756 L36.3036675,122.383058 L18.2041405,120.103316 L18.0823719,94.2196802 C18.0817697,94.0916806 18.0796405,93.9636928 18.0759849,93.8357439 C17.8221268,84.9507115 10.4135922,77.9537622 1.52855977,78.2076203 C0.976500308,78.2233934 0.516181041,77.7886474 0.500407914,77.2365879 C0.484634786,76.6845285 0.919380761,76.2242092 1.47144023,76.2084361 Z" jetway-hook-id="59477712-2B50-42C2-94EF-FE200C550248" id="Path-36" fill="#4682F4" fill-rule="nonzero"></path>
                        </g>
                        <g jetway-hook-id="20C8796B-90F4-464A-9417-F7985962D82F" id="Group-5" transform="translate(100.706326, 79.922154)"></g>
                        <g jetway-hook-id="3610DD93-43E1-40BA-992F-39FC790177C5" id="Tank" transform="translate(111.706326, 26.922154)">
                            <path d="M79.6850092,52.7815101 C80.0818202,52.3973754 80.7149018,52.4076516 81.0990365,52.8044626 C89.9427588,61.9400255 95.0000812,74.2914517 95.0000812,87.4655121 C95.0000812,114.539377 73.7410025,136.499999 47.5000812,136.499999 C21.2591599,136.499999 8.12187436e-05,114.539377 8.12187436e-05,87.4655121 C8.12187436e-05,74.2914517 5.05740362,61.9400255 13.901126,52.8044626 C14.2852607,52.4076516 14.9183422,52.3973754 15.3151533,52.7815101 C15.7119643,53.1656448 15.7222405,53.7987263 15.3381058,54.1955374 C6.85350472,62.9601281 2.00008122,74.8135749 2.00008122,87.4655121 C2.00008122,113.449077 22.3785208,134.499999 47.5000812,134.499999 C72.6216417,134.499999 93.0000812,113.449077 93.0000812,87.4655121 C93.0000812,74.8135749 88.1466577,62.9601281 79.6620566,54.1955374 C79.2779219,53.7987263 79.2881981,53.1656448 79.6850092,52.7815101 Z" jetway-hook-id="7895E1B4-3EEA-4BE1-AEC2-50518036C11A" id="Path" fill="#CFE3FF" fill-rule="nonzero"></path>
                            <path d="M2.00008122,87.637085 C2.00008122,113.518758 22.3711251,134.5 47.5000812,134.5 C72.6290373,134.5 93.0000812,113.53046 93.0000812,87.637085 C93.0000812,57.5 63.5307904,90.5 43.0000812,90.5 C22.4693721,90.5 2.00008122,82.415117 2.00008122,87.637085 Z" jetway-hook-id="AFEC872D-F962-4313-9730-7D154E78B479" id="Path" fill="#E6F0FF"></path>
                            <path d="M83,78.3 C80.4042617,78.3 78.3,80.4042617 78.3,83 C78.3,85.5957383 80.4042617,87.7 83,87.7 C85.5957383,87.7 87.7,85.5957383 87.7,83 C87.7,80.4042617 85.5957383,78.3 83,78.3 Z M83,79.7 C84.8225397,79.7 86.3,81.1774603 86.3,83 C86.3,84.8225397 84.8225397,86.3 83,86.3 C81.1774603,86.3 79.7,84.8225397 79.7,83 C79.7,81.1774603 81.1774603,79.7 83,79.7 Z" jetway-hook-id="84A3DEF6-B8FC-465B-91AE-D2FC67656EBF" id="Oval" fill="#FFFFFF" fill-rule="nonzero"></path>
                            <path d="M9.13866564,109.541053 C14.0557722,110.198614 19.1036168,109.178782 23.6742065,107.464101 C28.2447963,105.74942 32.4326459,103.359362 36.6933878,101.116998 C44.9924054,96.7492932 53.8128144,92.8556281 63.3485483,91.3570836 C72.8842822,89.8583443 83.2916024,90.9927675 91.1386656,95.9569884" jetway-hook-id="65DC4CDE-68C5-4089-B3C0-DC5301C079CA" id="Stroke-1" stroke="#FFFFFF" stroke-width="1.5" stroke-linecap="round" stroke-linejoin="round"></path>
                            <path d="M47.3717242,60.3007266 C50.9753262,44.8712793 56.8502005,34.3635919 64.9963471,28.7776645 C77.215567,20.3987734 96.1420755,29.0264286 94.0864425,36.0428305 C91.1951522,45.911545 73.858275,26.8418006 76.7210721,18.3312943 C80.9840006,5.65848584 88.8675513,0.499450938 100.371724,2.85418955" jetway-hook-id="D2452D12-627C-4F18-84D8-541B10D83CB9" id="Path-2" stroke="#CFE3FF" stroke-width="1.8" stroke-linecap="round" stroke-dasharray="3,4" transform="translate(73.871724, 31.300727) rotate(-5.000000) translate(-73.871724, -31.300727) "></path>
                        </g>
                        <path d="M80.5551839,33.4203985 C80.5551839,35.9056166 78.5406284,37.9203985 76.0551839,37.9203985 C73.5702452,37.9203985 71.5551839,35.9056166 71.5551839,33.4203985 C71.5551839,30.9346746 73.5702452,28.9203985 76.0551839,28.9203985 C78.5406284,28.9203985 80.5551839,30.9346746 80.5551839,33.4203985" jetway-hook-id="0C5D6976-73AD-4CA8-A856-B33932F89D70" id="Fill-3" fill="#FABD04" transform="translate(76.055184, 33.420399) rotate(175.000000) translate(-76.055184, -33.420399) "></path>
                        <path d="M26.3732272,22.492692 L26.0254518,22.8655676 C25.9506994,22.9509283 25.8828005,23.0392525 25.8181636,23.1377301 C22.8915532,26.8835128 23.9677395,32.4431752 28.0056677,34.9288679 L28.4051331,35.1637269 L28.7143096,35.3336129 C28.8195137,35.3891328 28.9280133,35.4441391 29.0432594,35.5004165 L29.4126885,35.6748465 L29.843303,35.8676117 L31.3075175,36.5044683 L31.5589098,36.6216326 L31.9840066,36.8252811 C33.6724064,37.6772271 34.9862243,39.1180672 35.6588565,40.8632642 L36.5283342,43.1583789 L36.5120775,43.0923963 C36.6895029,43.857859 36.9766843,44.5867384 37.4274127,45.5018436 C38.2989685,47.1680764 39.5363022,48.5624312 41.0755745,49.5568974 C45.5090088,52.4923824 51.4901585,51.7150264 55.0701329,47.7367583 C59.3135827,42.9880773 58.7206851,35.610725 53.8154643,31.6168739 C52.7047328,30.6769788 51.4121794,30.0147383 49.947247,29.6044401 C49.2022156,29.3818412 48.4308342,29.2683582 47.4542879,29.2132965 L45.0805795,28.8593186 C43.3011998,28.590282 41.7232305,27.6455 40.3882013,26.1152408 L40.1664071,25.8536123 L39.9399142,25.5754859 L39.5454595,25.0710175 L38.8249454,24.1266398 C37.0352185,21.7956895 35.7425902,20.6987872 33.6529288,20.2375968 C31.0024736,19.6993294 28.2285376,20.5675035 26.3732272,22.492692 Z M33.3076159,21.9702348 C34.8931267,22.3202808 35.9167666,23.1889241 37.4778453,25.2220737 L38.3582483,26.3733323 L38.6247479,26.711587 L38.8678671,27.0097496 L39.110003,27.2951789 C40.702821,29.1209389 42.6340508,30.2772296 44.8344811,30.6099216 L47.2858126,30.9719391 C48.2178589,31.0278909 48.8673574,31.1234428 49.4837217,31.3074932 C50.7365327,31.6585076 51.8108634,32.2089416 52.7396551,32.9947126 C56.875755,36.3625397 57.3729572,42.5491659 53.8103808,46.5359144 C50.7978927,49.883552 45.7372619,50.5412703 41.9946159,48.0632277 C40.7051173,47.2300667 39.6711302,46.0648638 38.9472566,44.6814459 C38.562132,43.8989318 38.321374,43.2878773 38.1807636,42.6812447 L38.1454655,42.5650292 L37.2551028,40.2148574 C36.4146806,38.0342767 34.7792306,36.2507226 32.7068317,35.2201316 L31.9253434,34.8521038 L30.3276283,34.1568805 L29.9618275,33.9895091 L29.6468929,33.8362181 L29.3635987,33.6872114 L29.0927194,33.5326928 C25.8392448,31.6844207 24.8889712,27.4011795 27.0417519,24.3954202 L27.2816039,24.071446 L27.4281296,23.9146485 C28.8729386,22.289249 31.152473,21.5326532 33.3076159,21.9702348 Z" jetway-hook-id="6E2681C9-9788-4FE9-9D20-313C69B13A0C" id="Path" fill="#DADCE0" fill-rule="nonzero" transform="translate(41.033462, 35.705554) rotate(156.000000) translate(-41.033462, -35.705554) "></path>
                        <path d="M21.3917869,49.2912449 C20.8284026,49.8455451 20.9254894,50.7267372 21.5398393,51.1925066 C25.4119444,54.0341274 30.8271682,53.7750578 34.3463534,50.3569241 C37.8195717,46.938628 38.1765808,41.608514 35.3371861,37.7970009 C34.8641749,37.1926905 33.9687961,37.0967673 33.4531815,37.6049542 L21.3917869,49.2912449 Z" jetway-hook-id="5EECD650-4CE4-4C74-807B-208F41F28D6B" id="Path" fill="#E84335" fill-rule="nonzero" transform="translate(29.127683, 45.208451) rotate(237.000000) translate(-29.127683, -45.208451) "></path>
                        <path d="M27.0317931,36.1209072 C27.7013315,36.1666046 28.3399935,36.2531039 28.9786554,36.4426843 C30.1811558,36.7774879 31.3006913,37.321471 32.295866,38.1584218 C34.4182832,39.8762787 35.6035231,42.3357515 35.7814092,44.8722968 C34.0209464,44.8097825 32.2588294,44.2262865 30.7250677,43.0914727 C28.4493252,41.3843227 27.1833177,38.8294926 27.0330353,36.1796331 Z" jetway-hook-id="D6062DC6-7FF4-4D3F-842E-2067D1A0B9FD" id="Combined-Shape" fill="#CFE3FF" transform="translate(31.406601, 40.496602) rotate(156.000000) translate(-31.406601, -40.496602) "></path>
                        <g jetway-hook-id="00CF260E-08E0-4F09-A08E-FB0A101CBE27" id="Overlap" transform="translate(113.706407, 112.422154)">
                            <path d="M0,2.13708499 C0,0.410638423 2.23738471,0.138689976 5.97466685,0.548198174 L5.83985665,25.1227243 C2.12153239,18.3315034 0,10.4894707 0,2.13708499 Z" jetway-hook-id="4473D7D6-63B8-41A6-A298-54BB0A0AC887" id="Combined-Shape" fill="#8AB4F8"></path>
                            <path d="M5.99854608,0.550821731 C6.62461764,0.619790299 7.29259378,0.707771539 7.99902516,0.811149816 L7.99959773,28.6842412 C7.29057421,27.6238022 6.62285521,26.5317987 5.99883285,25.4106945 Z" jetway-hook-id="BB4F6AF3-37B8-40CA-9F6C-E7BF02A2A241" id="Combined-Shape" fill="#FFFFFF"></path>
                        </g>
                        <g jetway-hook-id="9C4CA942-33A8-407B-BC97-B644868205E9" id="Group" transform="translate(226.838560, 23.116132) rotate(160.000000) translate(-226.838560, -23.116132) translate(208.838560, 13.116132)">
                            <path d="M15.4,18 C21.4751322,18 22,15.0898509 22,11.5 C22,7.91014913 21.4751322,5 15.4,5 C9.32486775,5 4.54747351e-13,7.91014913 4.54747351e-13,11.5 C4.54747351e-13,15.0898509 9.32486775,18 15.4,18 Z" jetway-hook-id="718908C8-8EC2-4C56-893F-1018DA1EFDE6" id="Oval" fill="#4682F4"></path>
                            <path d="M31.1675452,4.11652122 L24.8185364,2.75601933 C23.7384856,2.52457989 22.6753128,3.21251526 22.4438734,4.29256598 C22.3260449,4.84243217 22.4451525,5.41649836 22.7720112,5.87410055 L24.7724503,8.67471517 L24.7724503,8.67471517 L25.606754,12.429082 C25.8463688,13.5073485 26.9147226,14.18721 27.992989,13.9475952 C28.5602192,13.8215441 29.0445865,13.4550335 29.3200703,12.9434208 L32.5094292,7.0203257 C33.0331054,6.04778417 32.6692282,4.83486005 31.6966866,4.31118385 C31.530383,4.22163574 31.3522328,4.15609713 31.1675452,4.11652122 Z" jetway-hook-id="3BBB4826-D2C5-4658-B465-5DA5607BCAE7" id="Path-3" fill="#8AB4F8" transform="translate(26.772450, 9.674715) rotate(-165.000000) translate(-26.772450, -9.674715) "></path>
                        </g>
                        <path d="M253.505,1.60910445 L251.72801,11.7434735 C251.538762,12.8233045 252.582939,13.6884934 253.610109,13.3475026 L263.720413,9.98940937 C264.794597,9.63240768 265.059525,8.2377955 264.176111,7.52152522 L255.845398,0.748115936 C254.995976,0.0564399298 253.696381,0.520421216 253.505,1.60910445 Z M253.860407,11.1561544 L255.310407,2.89115436 L262.106407,8.41815436 L253.860407,11.1561544 Z" jetway-hook-id="B0341C7F-A4A3-43D9-B738-6C0651B67804" id="Stroke-1-Copy" fill="#F882FF" fill-rule="nonzero"></path>
                    </g>
                    <g jetway-hook-id="12658981-C157-463F-8741-AAD6A4375E98" id="Group-7" transform="translate(38.196066, 37.691297) rotate(156.000000) translate(-38.196066, -37.691297) translate(17.196066, 21.691297)"></g>
                    <g jetway-hook-id="293AB82C-3197-4C5F-AB6D-BA55F088CF37" id="Fish" transform="translate(227.546396, 23.273819) rotate(160.000000) translate(-227.546396, -23.273819) translate(209.046396, 12.773819)"></g>
                </g>
                <g jetway-hook-id="54EE9926-4ADC-4BC6-9A89-9F2049A75F26" id="Group-12" transform="translate(59.799725, 58.093822) rotate(175.000000) translate(-59.799725, -58.093822) translate(25.299725, 35.593822)"></g>
            </g>
        </g>
    </g>
</svg>