<svg width="300px" height="200px" viewBox="0 0 300 200" version="1.1" xmlns="http://www.w3.org/2000/svg" xmlns:xlink="http://www.w3.org/1999/xlink" jetway-hooks="{}">
    <title>Settings Dialog/Setup</title>
    <defs>
        <path d="M17.9540115,12.1868077 L18.813517,16.029934 C19.0942327,17.2861006 18.0138237,18.3772522 16.7194124,18.3772522 C16.4950131,18.3772522 16.2636826,18.3440913 16.0323521,18.2738217 L16.0323521,18.2738217 L11.4291779,16.8716909 C11.7767427,16.1247268 12.2508534,15.4256544 12.8393986,14.8037264 L16.1085958,15.7993868 L15.4662994,12.9324896 C15.5827201,12.8787593 15.7010186,12.8271498 15.8211635,12.7777367 C16.517377,12.4915651 17.2338929,12.2964546 17.9540115,12.1868077 Z" id="path-1"></path>
    </defs>
    <g jetway-hook-id="0CD9E428-7FEB-4E30-A3B6-CDD9F130FB1C" id="Illo" stroke="none" stroke-width="1" fill="none" fill-rule="evenodd">
        <g jetway-hook-id="C16355A3-ABB7-4DEE-8D63-7510A102BEDC" id="Settings-Initicate" transform="translate(-21.000000, 0.000000)">
            <g jetway-hook-id="F7C1EF8C-05DE-4EB1-AD15-BE84F1D7F806" id="Settings-Dialog/Setup" transform="translate(21.000000, 0.000000)">
                <g jetway-hook-id="B1709F72-2D9A-4DC2-B56D-3430D478DC79" id="Group">
                    <path d="M175.071376,24.9688629 C211.220166,32.0071631 242.412477,53.2358893 262.653865,84.3616196 C262.924846,84.7783141 262.806722,85.3357852 262.390027,85.606766 C261.973333,85.8777468 261.415862,85.7596225 261.144881,85.342928 C241.167855,54.6237158 210.394672,33.6802377 174.72737,26.7356847 C174.239475,26.6406899 173.920967,26.1681649 174.015962,25.6802705 C174.10365,25.2299064 174.51302,24.9238716 174.959223,24.9541702 L175.071376,24.9688629 Z" jetway-hook-id="5ADA94A8-8A76-4FF3-BB23-226853A27F56" id="Stroke-4" fill="#FFFFFF" fill-rule="nonzero"></path>
                    <g jetway-hook-id="26CA830C-5149-4D42-B0BA-1FC58FFA8348" id="PHONE" transform="translate(60.697515, 138.433738) rotate(-1.000000) translate(-60.697515, -138.433738) translate(30.697515, 99.933738)">
                        <path d="M49.8572283,5.71545826 C52.4123387,5.71545826 54.4834209,7.76174475 54.4834209,10.2857535 L54.4827523,76.4984583 L2.45375227,75.5914583 L2.45400916,10.2857535 C2.45400916,7.76174475 4.52509137,5.71545826 7.08020178,5.71545826 L49.8572283,5.71545826 Z" jetway-hook-id="444B37CF-DCDF-4A26-B974-37572A27C833" id="Combined-Shape" fill="#D2E3FC"></path>
                        <path d="M58.6406511,26.7530689 L58.6406511,36.1354218 M58.9948102,43.7770142 L58.9948102,59.1299554 M25.51317,3.1576736 L34.895523,3.1576736" jetway-hook-id="20F4A95C-65C9-4DA0-8334-2293F2D18782" id="Combined-Shape" stroke="#4682F4" stroke-width="1.8" stroke-linecap="round" stroke-linejoin="round"></path>
                        <path d="M51.1576825,0.172379478 C53.9531561,0.172379478 56.2190524,2.44975469 56.2190524,5.25824377 L56.2182999,76.5293795 L0.777299866,75.5613795 L0.777875895,5.25824377 C0.777875895,2.44975469 3.0437722,0.172379478 5.83924579,0.172379478 L51.1576825,0.172379478 Z" jetway-hook-id="B4988719-E620-42DD-83C3-A76EB7EFB01F" id="Combined-Shape" stroke="#4682F4" stroke-width="1.8" stroke-linecap="round" stroke-linejoin="round"></path>
                        <path d="M22.9543465,4.43708536 C23.4252009,4.43708536 23.8072877,4.05499859 23.8072877,3.58414418 C23.8072877,3.11328978 23.4252009,2.73120301 22.9543465,2.73120301 C22.4834921,2.73120301 22.1014053,3.11328978 22.1014053,3.58414418 C22.1014053,4.05499859 22.4834921,4.43708536 22.9543465,4.43708536 Z" jetway-hook-id="E5C27C86-BA94-4780-85C9-1E128D23112E" id="Fill-1" fill="#8AB4F8"></path>
                    </g>
                    <g jetway-hook-id="D47D6808-16F0-4214-9413-1ACAE54E6A90" id="Group-7" transform="translate(171.351536, 68.501471) rotate(9.000000) translate(-171.351536, -68.501471) translate(56.851536, 23.001471)">
                        <g jetway-hook-id="576F8005-A596-4D83-9298-A4424693BF76" id="Group-11" transform="translate(155.652940, 39.951340) rotate(-5.000000) translate(-155.652940, -39.951340) translate(131.152940, 13.951340)"></g>
                        <g jetway-hook-id="5392BA4F-2027-404F-A820-70E2C26F2225" id="Group-5" transform="translate(15.689269, 75.511353) rotate(-38.000000) translate(-15.689269, -75.511353) translate(4.689269, 64.511353)">
                            <path d="M0.492400992,12.4766425 L0.492400992,12.4766425 C-0.378286373,6.75218439 3.52519258,1.4012694 9.21080693,0.524664214 L9.37822386,0.498840494 C15.0638382,-0.377564511 20.3788288,3.55224514 21.2495162,9.27670324 C22.1200047,15.000761 18.2167246,20.3520763 12.5311103,21.2284813 L12.3634945,21.254305 C6.67788015,22.1309102 1.36308836,18.2009004 0.492400992,12.4766425" jetway-hook-id="25107604-F818-40A7-9B53-259605A33626" id="Fill-3" fill="#E84335"></path>
                            <path d="M15.1551102,11.8492149 L10.0787825,6.50665022 C9.84437906,6.25993858 9.43333395,6.36197695 9.33900731,6.69039064 L7.29579337,13.8013229 C7.20146673,14.1297366 7.49433858,14.4381708 7.82306869,14.3564687 L14.9427869,12.5881011 C15.271517,12.506399 15.3895137,12.0959265 15.1551102,11.8492149" jetway-hook-id="E07CF30D-A4F9-4562-8467-688E7333F79D" id="Fill-9" fill="#FFFFFF"></path>
                        </g>
                        <g jetway-hook-id="65C1FB41-FACD-43A7-BA93-828052067C85" id="Group-8" transform="translate(115.582314, 39.261198) rotate(-23.000000) translate(-115.582314, -39.261198) translate(89.582314, 11.404055)">
                            <path d="M47.5561767,22.3637852 L19.1494483,11.6288804 C16.3420919,10.5680256 13.2096679,11.9929258 12.1527692,14.8114448 L6.85429167,28.944681 C5.79739298,31.7632001 7.21664993,34.9080791 10.0240064,35.9689339 L24.7570466,41.5365127 L30.3094448,53.8409013 C30.7898087,54.9052044 32.3118606,54.8552036 32.7220589,53.7618359 L35.7482533,45.6900289 L38.4307348,46.7038386 C41.2383366,47.7649398 44.3707606,46.3400396 45.4276593,43.5212742 L50.7263822,29.3885307 C51.7830355,26.5697653 50.3637786,23.4248863 47.5561767,22.3637852" jetway-hook-id="B49E0B45-8BD6-4D59-A9B5-73F812676E88" id="Fill-6" fill="#E8F0FE"></path>
                            <path d="M18.3446635,14.6650905 L15.7138123,2.05990312 C15.3416049,0.277833195 13.1347379,-0.441481969 11.7416469,0.763418631 L1.87864126,9.29121472 C0.484573401,10.4961153 0.948611406,12.7217947 2.71390967,13.2980101 L15.2097204,17.3763553 C16.9750187,17.9525707 18.7168708,16.4462064 18.3446635,14.6650905" jetway-hook-id="32914C47-E013-4914-A310-5FFD179D9316" id="Fill-80" fill="#FABD04"></path>
                            <mask id="mask-2" fill="white">
                                <use xlink:href="#path-1"></use>
                            </mask>
                            <use jetway-hook-id="080B4321-C712-4AE7-97DF-1DE7F115C208" id="Combined-Shape" fill="#D2E3FC" xlink:href="#path-1"></use>
                        </g>
                        <path d="M122.591089,22.9833386 C137.216269,19.9265435 153.41349,23.4340195 164.243712,31.8081243 L164.770519,32.2192705 L165.283728,32.6278147 L165.78659,33.0366606 L166.282352,33.448712 L166.774265,33.8668726 L167.512023,34.5119201 L168.008525,34.9580575 L168.51255,35.4204671 L169.289799,36.1509439 L170.10225,36.9343667 L170.668855,37.4909025 L171.564343,38.3843465 L172.524274,39.3568701 L173.923382,40.7935191 L176.569877,43.5353933 L177.581603,44.5731469 L178.516951,45.5216175 L179.38716,46.3909687 L180.203469,47.1913642 L180.977117,47.9329676 L181.474732,48.3997268 L181.961712,48.8478847 L182.441386,49.2804529 L182.917086,49.7004429 L183.392141,50.110866 L184.110799,50.7151505 L184.598811,51.1148317 L185.097834,51.5154862 C185.182107,51.5825104 185.266977,51.6497005 185.352515,51.7171195 C193.048453,57.7830237 201.670251,61.6363218 210.925365,62.5968018 C215.674589,63.0897822 219.912178,62.9842989 223.575973,62.1392705 C223.97959,62.046179 224.382252,62.2979099 224.475344,62.7015271 C224.568435,63.1051443 224.316704,63.5078063 223.913087,63.6008977 C220.066662,64.4880484 215.670979,64.5974671 210.770511,64.0887872 C201.213031,63.096928 192.330616,59.1271542 184.423982,52.8951798 L183.906951,52.4839853 L183.155246,51.871576 L182.665077,51.4617801 L182.179743,51.0472097 L181.695867,50.6248169 L181.210072,50.1915537 L180.71898,49.7443723 L179.965024,49.040836 L179.445915,48.5455241 L178.634104,47.7555048 L178.065873,47.1930127 L177.472082,46.5983147 L176.526085,45.6392142 L175.143779,44.2192451 L172.889243,41.8818715 L171.228542,40.1783376 L170.038158,38.9788148 L169.210733,38.1607849 L168.428449,37.4029592 L167.927167,36.9268561 L167.198347,36.2498729 L166.488543,35.6096963 C166.41037,35.5402854 166.332367,35.4713937 166.254475,35.4029668 L165.78796,34.9975522 L165.321188,34.6006968 L164.835505,34.1968434 C164.347067,33.7952155 163.848766,33.3988301 163.326188,32.994779 C152.848936,24.8935966 137.100146,21.4832275 122.897971,24.4516108 C122.492519,24.536354 122.095137,24.276368 122.010394,23.8709158 C121.925651,23.4654637 122.185637,23.0680818 122.591089,22.9833386 Z" jetway-hook-id="F752D8DA-951F-4C27-8258-BD2FCBA2C85E" id="Stroke-1" fill="#8AB4F8" fill-rule="nonzero" transform="translate(173.244537, 43.142862) rotate(14.000000) translate(-173.244537, -43.142862) "></path>
                        <g jetway-hook-id="18A860E5-1C84-432E-950D-D87A2F32E282" id="Group-12" transform="translate(54.374109, 44.491436) rotate(-35.000000) translate(-54.374109, -44.491436) translate(19.874109, 14.726730)">
                            <g jetway-hook-id="3471F5AD-A1DB-46F3-9B8A-6F430FA8753B" id="Group-7" transform="translate(34.523192, 29.879692) rotate(-19.000000) translate(-34.523192, -29.879692) translate(6.787898, 8.232633)">
                                <path d="M3.39799198,4.18130074 L2.93734339,4.67261916 C2.83832944,4.7850944 2.74839345,4.90147456 2.66277819,5.03123324 C-1.21368649,9.96685282 0.211784532,17.2925256 5.56025378,20.5677914 L6.08936875,20.8772526 L6.49889095,21.1011023 C6.63823981,21.1742581 6.78195381,21.246737 6.934604,21.3208906 L7.42393421,21.5507279 L7.99430791,21.8047244 L9.93374468,22.6438766 L10.2667284,22.7982578 L10.8297936,23.0665946 C13.0661767,24.1891588 14.8064045,26.0876775 15.6973446,28.3872312 L16.8490181,31.4113823 L16.8274852,31.3244405 C17.0624954,32.3330502 17.4428838,33.293456 18.0398995,34.4992416 C19.1943255,36.6947484 20.8332455,38.5320159 22.8721007,39.8423713 C28.7444407,43.7103046 36.6668191,42.6860238 41.4087021,37.4440704 C47.0293966,31.1869849 46.2440695,21.4662384 39.746821,16.2037522 C38.275593,14.9653022 36.5635313,14.092703 34.6231436,13.5520747 C33.6363066,13.2587679 32.6145673,13.1092374 31.3210753,13.0366855 L28.1769613,12.5702676 C25.82007,12.2157723 23.7299585,10.970883 21.9616351,8.95454148 L21.667856,8.60980745 L21.367853,8.24333511 L20.8453749,7.57862374 L19.8910124,6.33426729 C17.5204157,3.26289743 15.8082548,1.81756736 13.0403775,1.20988113 C9.5296964,0.500634784 5.85545785,1.64458177 3.39799198,4.18130074 Z M12.5829907,3.49288652 C14.6830914,3.95412364 16.0389615,5.09868894 18.1067004,7.77766249 L19.2728451,9.29461496 L19.6258392,9.74031527 L19.9478646,10.1331883 L20.2685877,10.5092835 C22.3783672,12.9149907 24.9363926,14.4385738 27.8509897,14.8769444 L31.09792,15.3539557 C32.3324692,15.4276804 33.1927675,15.5535841 34.0091777,15.7960976 C35.6685982,16.2586107 37.0916113,16.9838884 38.3218497,18.0192573 C43.800353,22.4568648 44.458926,30.6086546 39.7400877,35.861782 C35.7498731,40.2727869 29.0467751,41.1394275 24.0894242,37.8742419 C22.3814088,36.7764298 21.0118331,35.2411036 20.0530206,33.418247 C19.5429008,32.3871697 19.224003,31.5820155 19.0377564,30.7826878 L18.991002,30.6295569 L17.8116651,27.5328599 C16.6984773,24.6596241 14.5322293,22.3095292 11.7872172,20.9515741 L10.7520908,20.4666433 L8.63582478,19.5505844 L8.15130046,19.330048 L7.73415137,19.1280646 L7.35891193,18.9317263 L7.00011653,18.7281254 C2.6907014,16.2927551 1.43200916,10.6489548 4.28349154,6.68842498 L4.60118944,6.26154136 L4.7952712,6.0549375 C6.70900416,3.91323469 9.72837933,2.91630846 12.5829907,3.49288652 Z" jetway-hook-id="7999ACFB-6BE2-4DD0-94E9-1B8DA25089DC" id="Path" fill="#E8F0FE" fill-rule="nonzero"></path>
                                <path d="M32.146944,21.948314 C31.4039151,22.6830245 31.5309168,23.8499617 32.3400197,24.4661654 C37.4397082,28.2254413 44.5762544,27.8765502 49.2175434,23.345855 C53.7982566,18.8149937 54.2744202,11.75547 50.5366898,6.71057694 C49.9139933,5.91074015 48.734151,5.78465659 48.0541232,6.45824411 L32.146944,21.948314 Z" jetway-hook-id="5AC60D7A-C837-40EF-99EF-F7317DB905E1" id="Path" fill="#2A84FC" fill-rule="nonzero" transform="translate(42.344055, 16.530982) rotate(81.000000) translate(-42.344055, -16.530982) "></path>
                                <path d="M31.251168,15.2177756 C32.1382101,15.2779788 32.9843294,15.3919499 33.8304486,15.6418014 C35.4232299,16.0829544 36.9061193,16.7997321 38.2242858,17.9025379 C41.0354833,20.1660134 42.6053943,23.4066305 42.8410724,26.7488179 C40.51029,26.6670249 38.1756793,25.8981737 36.1436726,24.4025579 C33.1775795,22.1891497 31.5064567,18.8942761 31.2640588,15.4627915 Z" jetway-hook-id="7D996B8C-DBA7-42B3-83F5-4DD12A34F076" id="Combined-Shape" fill="#FFFFFF"></path>
                            </g>
                        </g>
                    </g>
                    <g jetway-hook-id="64748F91-C752-4B53-9546-84AA6E6B1FA4" id="Laptop" transform="translate(229.500000, 150.160876) rotate(1.000000) translate(-229.500000, -150.160876) translate(176.500000, 124.660876)" fill="#4682F4">
                        <path d="M37.6189042,0 L102.897673,0 C104.002243,2.98259551e-15 104.897673,0.8954305 104.897673,2 C104.897673,2.1737583 104.87503,2.34677578 104.830315,2.51468202 L92.3137371,49.514682 C92.0804963,50.3905057 91.2874447,51 90.3810958,51 L25.1023267,51 C23.9977572,51 23.1023267,50.1045695 23.1023267,49 C23.1023267,48.8262417 23.1249702,48.6532242 23.1696854,48.485318 L35.6862629,1.48531798 C35.9195037,0.609494286 36.7125553,-3.74713044e-15 37.6189042,0 Z" jetway-hook-id="11102C84-E0F0-4D0A-9BB2-099B3BAC315E" id="Rectangle"></path>
                        <rect jetway-hook-id="BCFF79D8-2672-49E4-95CB-3AA6CDB23013" id="Rectangle" x="0.5" y="48" width="90" height="3" rx="1.5"></rect>
                    </g>
                    <path d="M121.123077,175 C121.607388,175 122,175.671573 122,176.5 C122,177.269254 121.661472,177.903261 121.225345,177.989908 L121.123077,178 L8.87692308,178 C8.39261183,178 8,177.328427 8,176.5 C8,175.730746 8.33852755,175.096739 8.77465532,175.010092 L8.87692308,175 L121.123077,175 Z" jetway-hook-id="88327866-5C07-4543-B9D3-BC9BC024C6D3" id="Line-4" fill="#E8F0FE" fill-rule="nonzero"></path>
                    <path d="M156.946699,175 L297.059655,175.100003 C297.580745,175.102234 298.001749,175.641301 298.000005,176.304042 C297.998365,176.919444 297.632787,177.425089 297.163357,177.492398 L297.053301,177.5 L156.940345,177.399997 C156.419255,177.397766 155.998251,176.858699 155.999995,176.195958 C156.001635,175.580556 156.367213,175.074911 156.836643,175.007602 L156.946699,175 Z" jetway-hook-id="9A1591B9-575F-458F-9703-AFBFF5E2E484" id="Line-4-Copy" fill="#E8F0FE" fill-rule="nonzero"></path>
                    <g jetway-hook-id="9B77F698-7791-40DC-BF66-A38187CEA958" id="Avatar" transform="translate(91.000000, 71.007596)">
                        <g jetway-hook-id="32EA46BE-ECAF-401A-932C-66BE216DA741" id="Head" transform="translate(0.702105, 0.294513)">
                            <path d="M53.4004587,15.1604699 C58.3851826,15.1604699 62.4260997,19.201387 62.4260997,24.1861109 C62.4260997,28.0989239 59.9362341,31.4301976 56.4544643,32.6819706 L57.9132792,39.9809827 L55.2978946,52.6978911 L43.2466125,41.1091879 C44.2853593,40.6432502 44.96912,39.5061513 45.2978946,37.6978911 C45.6266692,35.8896309 45.6950452,32.8899777 45.5030228,28.6989314 L45.5030228,28.6989314 L45.5827139,28.6996681 C44.8145032,27.37195 44.3748177,25.8303775 44.3748177,24.1861109 C44.3748177,19.201387 48.4157348,15.1604699 53.4004587,15.1604699 Z" jetway-hook-id="AE7EE383-CB28-4F9F-A55F-685470BBA780" id="Combined-Shape" stroke="#2A84FC" stroke-width="1.8" fill="#E8F0FE" stroke-linejoin="round"></path>
                            <path d="M55.656869,27.7989314 L45.5030228,27.7989314 C44.9897969,27.7989314 44.580476,28.2274358 44.603966,28.7401238 L44.6430695,29.6717353 L44.6731023,30.5612064 L44.6940909,31.4084417 L44.706062,32.2133461 L44.7090422,32.9758245 L44.7030582,33.6957817 L44.6881367,34.3731225 L44.6643043,35.0077518 C44.6595912,35.1099588 44.6545078,35.2103821 44.6490549,35.3090199 L44.6119061,35.8794034 C44.5980476,36.0623783 44.5827151,36.2381949 44.565913,36.4068375 L44.5111024,36.8912269 C44.4814971,37.1226446 44.4485952,37.3378849 44.4124117,37.5368942 C44.1480709,38.9907686 43.6626366,39.8577124 43.0038183,40.2249862 L42.8782697,40.2880158 C42.2963358,40.5490466 42.1630617,41.3158319 42.6227886,41.7579125 L54.6740707,53.3466158 C55.1848845,53.8378225 56.0366854,53.5733355 56.1794443,52.8791924 L58.7948289,40.162284 C58.8190973,40.0442826 58.8194281,39.9226098 58.7958018,39.8044782 L56.5393916,28.5224269 C56.4552552,28.1017451 56.0858819,27.7989314 55.656869,27.7989314 Z M54.9188946,29.5984872 L56.9938946,39.9784872 L54.7448946,50.9174872 L44.6548946,41.2144872 L44.7992098,41.065123 C45.4765155,40.3191563 45.9322528,39.2400739 46.1833775,37.858888 L46.2218483,37.6354404 C46.2867614,37.2370947 46.3406019,36.7916588 46.383449,36.2988496 L46.4295937,35.6847213 L46.4652154,35.0250058 C46.4702771,34.9112483 46.4749016,34.7955868 46.4790895,34.678019 L46.4989835,33.9497189 C46.5014277,33.824517 46.5034366,33.6974043 46.5050109,33.5683785 L46.5092457,32.7712491 L46.5030792,31.9280977 L46.4865418,31.0388153 L46.459664,30.1032934 L46.4408946,29.5984872 L54.9188946,29.5984872 Z" jetway-hook-id="8357BEB2-EE93-4169-B403-DAEBC7333DD7" id="Path-18" fill="#2A84FC" fill-rule="nonzero"></path>
                            <circle jetway-hook-id="9FD7117A-4D56-469A-8FE3-5885799DB5B8" id="Oval" fill="#E8F0FE" cx="53.4004587" cy="24.1861109" r="9.02564103"></circle>
                            <path d="M53.4004587,14.2604699 C47.9186785,14.2604699 43.4748177,18.7043308 43.4748177,24.1861109 C43.4748177,29.6678911 47.9186785,34.111752 53.4004587,34.111752 C58.8822389,34.111752 63.3260997,29.6678911 63.3260997,24.1861109 C63.3260997,18.7043308 58.8822389,14.2604699 53.4004587,14.2604699 Z M53.4004587,16.0604699 C57.8881263,16.0604699 61.5260997,19.6984433 61.5260997,24.1861109 C61.5260997,28.6737785 57.8881263,32.311752 53.4004587,32.311752 C48.9127911,32.311752 45.2748177,28.6737785 45.2748177,24.1861109 C45.2748177,19.6984433 48.9127911,16.0604699 53.4004587,16.0604699 Z" jetway-hook-id="AD674B12-7B05-4AEE-B63A-4973DC3E5E03" id="Oval" fill="#2A84FC" fill-rule="nonzero"></path>
                            <path d="M50.400046,14.8503399 C52.4592432,14.6585538 54.2603527,14.7728518 55.8033745,15.193234 C56.3376865,15.2367695 56.7310497,15.3703205 56.9832522,15.5943733 C58.4089172,16.1872251 59.5689124,17.0943497 60.4633151,18.316459 C62.4746313,21.064716 63.3873697,22.6609907 63.2015303,23.1052831 L63.2015303,23.1052831 L55.6311817,18.2242129 L45.2978946,27.6978911 C43.3336089,21.805034 44.8155173,18.0313436 49.74362,16.3768201 L50.0158433,16.288675 C50.6601709,16.0875433 51.2618764,15.9137377 51.8209601,15.7672581 Z" jetway-hook-id="35FFA08D-2B0E-461D-B145-5A0C4563CAFE" id="Combined-Shape" fill="#2A84FC"></path>
                            <path d="M2.55822508,21.8314834 C3.71594029,18.8174698 7.07121219,17.3271654 10.0510901,18.5054397 C11.7170888,19.1613862 12.9123434,20.5165535 13.4371443,22.1101088 C13.4979581,21.6591456 13.6053208,21.2089415 13.7765005,20.7663295 C14.9342157,17.7523159 18.2894876,16.2620115 21.2626084,17.4395266 L21.295643,17.4524329 C22.4075602,17.8927674 23.6260892,17.2808543 24.0157482,16.1397807 C24.0668018,15.990978 24.1238617,15.8429345 24.1869279,15.6971686 C25.277823,13.1796701 28.0452278,11.7607303 30.7037684,12.3324059 C31.3269225,12.4660246 31.8960198,12.6960614 32.4050542,12.998222 C33.4764287,13.6359478 34.8608819,13.063513 35.2670583,11.8761283 L36.6665273,7.78177685 C37.7416558,4.63718134 41.7403531,3.77852911 43.9859602,6.21099749 C46.2315673,8.64346586 45.1098899,12.6186233 41.9325548,13.4871451 L36.6560162,14.9288609 C35.6717331,15.198376 35.0538345,16.1724262 35.2069953,17.1920283 C35.3541497,18.1660785 35.2580488,19.1909949 34.8758977,20.1741555 C33.7181825,23.1805771 30.3636614,24.6708815 27.3905406,23.5001992 L27.3560044,23.4872928 C26.2681124,23.0560687 25.026309,23.6163564 24.6561705,24.7361725 C24.6261389,24.8272762 24.593855,24.9183799 24.558568,25.0094836 C23.3940957,28.0219787 20.0388238,29.5122832 17.065703,28.34236 C15.3974519,27.6833767 14.2021973,26.3289686 13.6766457,24.7369317 C13.6165826,25.1886542 13.5099707,25.6396174 13.3395418,26.0822295 C12.1825774,29.088651 8.82730549,30.5781963 5.84742763,29.4075139 C2.87430686,28.230758 1.40050987,24.837905 2.55822508,21.8314834" jetway-hook-id="2EBA700B-21A3-4A13-B8FF-2D36A659726B" id="Fill-1" fill="#4285F4" transform="translate(23.663231, 17.307035) scale(-1, 1) rotate(12.000000) translate(-23.663231, -17.307035) "></path>
                        </g>
                        <g jetway-hook-id="AE65BEC9-9295-48AE-B7D6-908E4DDB75C2" id="Hand" transform="translate(53.639173, 61.502136)">
                            <g jetway-hook-id="3726BA51-F771-48E8-8BF6-9FA52B7B4E06" id="Group-13" transform="translate(29.500000, 20.500000) scale(-1, 1) rotate(-8.000000) translate(-29.500000, -20.500000) translate(3.000000, 4.000000)" fill="#E6F0FF">
                                <path d="M15.0772,1.9612 C18.2542,0.6002 21.7172,-0.2528 25.1582,0.0672 C33.1062,0.8082 44.8272,10.1342 52.9042,17.4022 L52.9042,17.4022 L52.525316,19.1379645 L38.5545026,32.3219083 L27.6294412,16.648905 L27.5722093,16.6600647 C26.5054322,17.0300271 25.7894388,17.0761035 24.7466564,17.1799743 L24.5194639,17.2216538 L24.4334979,17.8401566 C24.8437919,18.4515721 24.5621955,19.3853553 24.0902115,20.2775906 L23.9627715,21.1827261 L23.2340206,21.6349318 C22.9677579,22.0060492 22.7220361,22.3170698 22.5601,22.5221 C21.4021,23.9901 19.7221,25.6351 17.6961,25.5071 C16.7445686,25.4466808 16.1227377,25.0454097 15.7364569,24.4542095 L14.8246793,23.9702131 C13.9663499,23.7949851 13.0919,23.4784385 12.563,22.7868 C12.5558046,22.7773907 12.5486922,22.7679357 12.5416618,22.7584359 L11.5692,22.2392 C9.8472,22.6702 8.0882,21.1952 7.6542,19.4742 C7.2202,17.7542 7.7902,15.9362 8.5682,14.3412 C9.8842,11.6422 11.8182,9.2482 14.1782,7.3922 C10.5232,10.2642 6.8672,13.1362 3.2122,16.0092 C2.4492,16.6082 1.4072,17.2312 0.5852,16.7162 C-0.4768,16.0532 0.0932,14.4112 0.8242,13.3942 C4.4232,8.3872 9.4092,4.3872 15.0772,1.9612 Z" jetway-hook-id="1E101E99-81DA-4E8E-A36B-F01BA8447EC3" id="Combined-Shape"></path>
                            </g>
                            <g jetway-hook-id="DB2D22FB-2469-4D47-A5F8-7C15849956A5" transform="translate(29.500000, 20.500000) scale(-1, 1) rotate(-8.000000) translate(-29.500000, -20.500000) translate(3.000000, 4.000000)" fill="#4285F4" fill-rule="nonzero">
                                <path d="M13.622135,6.68453365 C14.5656901,5.94311359 15.6778061,7.35782737 14.7345571,8.09963679 C12.4799097,9.87278317 10.6328803,12.1602694 9.37710135,14.7357613 C8.52175747,16.4893262 8.20436707,17.9759708 8.526879,19.2541287 C8.85942667,20.5728258 10.1277201,21.563389 11.2157015,21.393475 L11.3506794,21.3661314 C11.8328618,21.2454458 12.3215829,21.5384969 12.4422686,22.0206794 C12.5629542,22.5028618 12.2699031,22.9915829 11.7877206,23.1122686 C9.62031235,23.65475 7.35300739,21.960465 6.78155135,19.6943916 C6.33454675,17.9228526 6.73521342,16.0461451 7.75923928,13.9467605 C7.83561749,13.7901155 7.9139864,13.6344525 7.99431228,13.479813 L8.072,13.333 L3.76795252,16.7171118 C2.43728971,17.7617606 1.24736026,18.193106 0.108588721,17.4796407 C-1.42328046,16.5233043 -1.09779861,14.5261573 0.0934012973,12.8689065 C3.78839276,7.72836128 8.9048049,3.62411529 14.7227983,1.13391561 C18.3616742,-0.424948132 21.8901653,-1.14059823 25.2417456,-0.828913906 C29.4898858,-0.432855542 34.7945405,2.17610167 40.8456308,6.44760693 L41.7588539,7.10073304 C42.2182258,7.43346185 42.6817092,7.77538771 43.1491733,8.12627844 L44.0893702,8.83994425 C44.2469414,8.96085782 44.4049452,9.08275028 44.5633767,9.20561304 L45.5190603,9.9543644 L46.4847776,10.7259902 L47.4602962,11.5200776 L48.4453833,12.3362138 L49.4398065,13.1739862 L50.4433332,14.032982 L51.4557309,14.9127883 L52.4767669,15.8129925 L53.5062088,16.7331817 C53.8756974,17.065662 53.9056985,17.6347202 53.5732183,18.0042088 C53.240738,18.3736974 52.6716798,18.4036985 52.3021912,18.0712183 L51.3003318,17.1757222 L50.3063071,16.2994051 L49.3204284,15.4426917 L48.3430066,14.6060066 L47.3743529,13.7897745 L46.4147783,12.99442 C46.2556231,12.8636243 46.0968591,12.7337162 45.9384929,12.6047046 L44.9931203,11.8414628 L44.0576046,11.1001604 C43.9025239,10.9784618 43.747867,10.8576951 43.5936402,10.7378691 L42.673493,10.0302719 L41.7639803,9.34567566 C35.1339741,4.41067834 29.3869142,1.3653502 25.074863,0.963333328 C22.0534448,0.682352849 18.8145099,1.33927503 15.4313397,2.78859655 C9.91457615,5.1498648 5.05863039,9.04517178 1.55500319,13.9194872 C0.893132126,14.840312 0.744152445,15.7544469 1.06303277,15.9535232 C1.31903745,16.1139155 1.88065506,15.910331 2.65601527,15.3016277 L13.622135,6.68453365 Z" jetway-hook-id="6B947FB6-C9EF-487F-8487-7C92EDFEE981" id="Stroke-1"></path>
                                <path d="M27.694534,15.6731854 C28.0792375,15.4231452 28.5838099,15.5046802 28.872212,15.8464982 L28.9396146,15.937334 L39.6674324,32.4427957 C39.9383092,32.8595578 39.8200459,33.4169993 39.4032838,33.6878762 C39.0185803,33.9379164 38.5140079,33.8563815 38.2256058,33.5145635 L38.1582033,33.4237276 L27.4303854,16.918266 C27.1595086,16.5015039 27.2777719,15.9440623 27.694534,15.6731854 Z" jetway-hook-id="B6E3417D-3A64-4471-AC0C-99F0829BC453" id="Stroke-5"></path>
                                <path d="M16.3200008,9.30124604 C16.706906,8.98920557 17.2735135,9.04989548 17.585554,9.43680075 C17.8975944,9.82370602 17.8369045,10.3903135 17.4499992,10.702354 C14.5586537,13.0342344 12.8121883,16.7421662 12.8559319,20.4557307 C12.8663608,21.3036009 12.9919045,21.866072 13.277922,22.2400949 C13.5484089,22.5938085 14.0160696,22.8448309 14.7026037,23.0192942 L14.749,23.03 L14.8000162,23.0091982 C15.0121906,22.9354676 15.212799,22.9430639 15.3929661,22.999113 L15.4985424,23.0382939 C15.9570613,23.2362907 16.2984824,23.768031 15.9841267,24.3627252 C15.7013843,24.9052849 15.2648613,24.9718027 14.805613,24.8834735 C13.4837701,24.636359 12.5037495,24.1909217 11.848078,23.3335051 C11.2720276,22.5802085 11.0708401,21.6788315 11.0560624,20.4774008 C11.0058141,16.2116376 12.9991876,11.9794936 16.3200008,9.30124604 Z" jetway-hook-id="CC8231EF-1F60-4892-AA82-A67AEF4DE82E" id="Stroke-7"></path>
                                <path d="M19.4719037,11.8229638 C19.8398006,11.4887231 20.4089955,11.5160068 20.7432362,11.8839037 C21.0774769,12.2518006 21.0501932,12.8209955 20.6822963,13.1552362 C18.7898883,14.8745217 17.3725727,16.9310189 16.6326874,19.1193615 C16.228299,20.3154158 16.0038481,21.7183735 16.1206761,22.7776907 C16.2514568,23.9635216 16.7321814,24.5440817 17.7528477,24.6088908 C19.1030038,24.6941919 20.4548809,23.7377141 21.853823,21.9642713 L22.1512079,21.5834737 L22.4030297,21.2488832 L22.6348598,20.9237222 C22.6732528,20.8682714 22.7118783,20.811681 22.751269,20.7531849 C23.0301292,20.3390711 23.2601122,19.9474187 23.4292947,19.5877924 C23.8061566,18.786708 23.805246,18.3917631 23.5916869,18.2577844 L23.4941,18.2571 C22.201743,18.2571 20.4723093,19.7098868 19.5905568,21.3477289 C19.3549362,21.7853907 18.8091329,21.9491774 18.3714711,21.7135568 C17.9338093,21.4779362 17.7700226,20.9321329 18.0056432,20.4944711 C19.1681697,18.3350956 21.4037825,16.4571 23.4941,16.4571 C23.8799996,16.4571 24.2320825,16.5339917 24.5493898,16.7337098 C25.7720156,17.5007309 25.77508,18.8298837 25.0580615,20.354029 C24.8454027,20.8060716 24.5706638,21.2739417 24.2443102,21.7585843 C24.0391351,22.063274 23.8550391,22.3183525 23.6337733,22.6081713 L23.2667162,23.0794989 C21.5346427,25.2752536 19.7490449,26.5385968 17.6390677,26.4052911 C15.6448478,26.2786645 14.5500559,24.9565096 14.3315239,22.9750093 C14.1818731,21.6180766 14.4460356,19.9668965 14.9275128,18.5428377 C15.77052,16.0494937 17.3628102,13.7391118 19.4719037,11.8229638 Z" jetway-hook-id="913A5742-DF27-41A3-A015-75F28303F02B" id="Stroke-9"></path>
                                <path d="M27.8430257,15.5946195 C28.3028472,15.4058627 28.8286238,15.6256042 29.0173805,16.0854257 C29.2061373,16.5452472 28.9863958,17.0710238 28.5265743,17.2597805 C27.6770322,17.6085175 26.9934223,17.8002451 26.2409733,17.9166219 L25.9623587,17.9562665 L25.4826966,18.0114279 L24.0883588,18.1559391 L23.6381334,18.2146433 L23.1460185,18.2907316 C22.655296,18.369829 22.1933657,18.0361409 22.1142684,17.5454185 C22.035171,17.054696 22.3688591,16.5927657 22.8595815,16.5136684 L23.2658872,16.4499742 L23.739264,16.3848669 L24.6602277,16.2848402 L25.5923213,16.1884088 L25.8467224,16.1554327 C25.886892,16.1497341 25.9263827,16.1438762 25.9658492,16.1377721 C26.5769694,16.0432538 27.1235988,15.8899442 27.8430257,15.5946195 Z" jetway-hook-id="95AC4B52-5D05-46C3-A491-03BA325678B6" id="Stroke-11"></path>
                            </g>
                        </g>
                        <g jetway-hook-id="E8FFF508-A7D6-41F3-B28B-71CA1AEF4718" id="Top" transform="translate(16.609526, 26.200441)" fill-rule="nonzero">
                            <path d="M62.3438546,57.3930748 L62.4569583,57.3944214 C62.9145258,57.4283153 63.2667591,57.798684 63.2893613,58.2453433 L63.2880147,58.3584469 L62.2880147,71.8584469 C62.2558796,72.2922706 61.919852,72.6354034 61.4976843,72.685626 L61.3904737,72.6919624 L52.3904737,72.6919624 C51.8934175,72.6919624 51.4904737,72.2890187 51.4904737,71.7919624 C51.4904737,71.3331412 51.8338104,70.9545106 52.2775797,70.8989747 L52.3904737,70.8919624 L60.5544737,70.8919624 L61.4929328,58.2254779 C61.5240022,57.8060409 61.8378038,57.4751141 62.2339298,57.4054629 L62.3438546,57.3930748 Z" jetway-hook-id="A823BEEC-CF86-4B6F-B8DD-AA4D11340C2D" id="Path-2" fill="#2A84FC"></path>
                            <path d="M26.9620393,14.3860957 C27.4133462,14.1778002 27.9480596,14.3747999 28.1563551,14.8261068 C28.3646506,15.2774137 28.167651,15.8121271 27.7163441,16.0204226 C18.0846984,20.4657975 11.4506423,25.6256189 7.79469786,31.47513 C1.97266878,40.7903765 0.549868028,50.5473348 2.84034131,59.8460302 C4.71483707,67.4559706 9.08198628,74.3007411 13.9430203,78.0815454 C25.9256787,87.4013908 38.8418875,86.3510506 52.9447349,74.8233343 L53.1764737,74.6315585 L38.5894737,53.9275585 L30.7736911,57.6062992 C30.3207549,57.8194456 29.7893521,57.6209631 29.5792567,57.1820461 L29.5366588,57.0765674 L25.5366588,45.0765674 C25.3794758,44.6050184 25.6343198,44.0953304 26.1058688,43.9381474 C26.5411447,43.7930554 27.0089179,43.9990397 27.201936,44.4024741 L27.2442887,44.5073574 L30.9234737,55.5465585 L38.5072564,51.9776255 C38.8666915,51.8084796 39.2893662,51.896263 39.5523323,52.1820026 L39.6262079,52.2736042 L55.1262079,74.2736042 C55.3948909,74.6549607 55.3276426,75.178405 54.9712882,75.4794612 C39.9206333,88.1945918 25.7865458,89.5735272 12.8379272,79.5023794 C7.65348075,75.4700321 3.0627312,68.2748057 1.09258276,60.2765416 C-1.31220439,50.5137631 0.18350942,40.2567983 6.26830091,30.5211319 C10.133724,24.3364549 17.0381294,18.9663618 26.9620393,14.3860957 Z" jetway-hook-id="9AC6903D-1872-437D-B59C-CED028B16126" id="Path-19" fill="#2A84FC"></path>
                            <path d="M38.6999579,18.9126173 C44.2522961,17.058313 50.8142507,17.058313 58.3765777,18.8916044 C58.6329869,18.9537642 58.8946817,19.0236886 59.1616676,19.1013787 L59.7026958,19.2671135 C59.7940434,19.2964618 59.8859794,19.326673 59.9785039,19.3577473 L60.5407144,19.5545489 L61.1170586,19.7720643 L61.7075459,20.0102956 C62.006327,20.1345905 62.3104153,20.2666547 62.6198164,20.4064892 L63.2457038,20.6965192 L63.8857681,21.0072722 C63.9936274,21.0607915 64.1020778,21.1151742 64.2111195,21.1704206 L64.8724671,21.5122622 L65.5480155,21.874832 L66.2377745,22.2581322 C66.353919,22.3237432 66.4706561,22.3902181 66.5879859,22.4575568 L67.2990786,22.8719564 L68.0244059,23.3070915 C68.1464805,23.3813421 68.2691486,23.4564568 68.3924105,23.5324355 L69.1391076,23.9986778 L69.9000633,24.4856607 L70.6752871,24.9933864 L71.4647888,25.5218569 L72.2685779,26.0710744 L73.086664,26.6410407 L73.9190568,27.2317581 L74.7657659,27.8432287 L75.6268008,28.4754543 L76.5021712,29.1284373 L77.3918867,29.8021795 L78.2959569,30.4966831 L79.2143914,31.2119502 C79.3686614,31.3328918 79.5235303,31.4546986 79.6789983,31.5773706 L80.6189974,32.3237868 L82.0559772,33.4823527 L83.0319652,34.2806943 L84.5229735,35.5171581 L85.5350106,36.3674381 L86.5614841,37.2384969 L87.6024036,38.1303369 L88.6577788,39.0429599 L89.7276193,39.9763681 L91.3595235,41.4154571 L93.0240286,42.9013245 L94.1518263,43.9178941 L94.9514737,44.6435585 L107.216676,42.0372426 L107.590917,43.7979082 L94.4230804,46.5968182 L92.954276,45.2618203 L91.2902057,43.7646798 L90.1988007,42.7922708 L89.121787,41.8404119 L87.5332712,40.4511597 L85.9771899,39.108157 L84.9578377,38.2385194 L83.9529248,37.3894424 L82.4726504,36.1543822 L81.5038781,35.3567155 L80.5495788,34.5796164 L79.6097622,33.8230872 L78.6844379,33.0871298 L77.7736155,32.3717464 L76.4345939,31.337252 L75.5600683,30.6733125 L74.7000782,30.0299542 L73.8546332,29.4071791 L73.023743,28.8049894 L72.2074172,28.223387 L71.4056654,27.6623742 L70.6184972,27.1219528 L69.8459223,26.6021251 L69.0879501,26.102893 L68.3445905,25.6242587 L67.6158529,25.1662242 L66.9017469,24.7287915 L66.2022823,24.3119629 C66.0869255,24.2442085 65.9721792,24.1773128 65.8580435,24.1112756 L65.1805588,23.7253568 L64.5177395,23.360047 L63.8695951,23.0153484 L63.2361353,22.6912631 C63.1317829,22.6389668 63.0280428,22.5875294 62.9249151,22.5369511 L62.3135002,22.2437895 L61.7167938,21.9712464 L61.1348057,21.7193238 L60.5675454,21.4880238 C60.3809143,21.4143611 60.1967395,21.3441358 60.0150225,21.2773484 L59.4772467,21.0872997 C58.9468476,20.9075651 58.4385835,20.7587736 57.9524977,20.6409346 C50.9111223,18.9339345 44.8404079,18.8837286 39.7319023,20.4711042 L39.2701432,20.6199218 L38.6999579,18.9126173 Z" jetway-hook-id="BDD81D76-DB94-46CE-81A1-A7CF1FA57829" id="Path-22" fill="#2A84FC" transform="translate(73.145437, 32.058035) rotate(12.000000) translate(-73.145437, -32.058035) "></path>
                            <path d="M34.2764096,1.11515207 C34.676608,0.890746002 35.1747851,1.00502973 35.4402696,1.36493717 L35.5016016,1.45997734 C35.7244486,1.85739535 36.1092864,2.11557499 36.4598389,2.12793665 C36.7517968,2.13846325 37.059653,1.95976417 37.2126428,1.69320511 L37.2624212,1.58932501 C37.4426015,1.12607564 37.9642044,0.896602883 38.4274538,1.07678325 C38.8907031,1.25696362 39.1201759,1.77856648 38.9399955,2.24181585 C38.5358569,3.28086892 37.486586,3.96612584 36.3956937,3.9267932 C35.3859577,3.89118732 34.4485646,3.26230991 33.9315843,2.34034411 C33.6884777,1.9067958 33.8428613,1.35825864 34.2764096,1.11515207 Z" jetway-hook-id="7D0B5A3F-E1E2-414E-A769-D108033B344B" id="Stroke-16" fill="#2A84FC" transform="translate(36.408941, 2.464201) rotate(21.000000) translate(-36.408941, -2.464201) "></path>
                            <path d="M61.8656993,33.8923034 C62.3243466,33.8796734 62.7122848,34.2124573 62.7800154,34.6545296 L62.7901327,34.7671879 L62.9567994,40.8195103 C62.9704819,41.3163782 62.5787828,41.7302611 62.0819149,41.7439437 C61.6232676,41.7565738 61.2353294,41.4237899 61.1675987,40.9817175 L61.1574815,40.8690592 L60.9908148,34.8167369 C60.9771322,34.3198689 61.3688313,33.905986 61.8656993,33.8923034 Z" jetway-hook-id="3F66B407-CAC4-4D24-88F4-BE1780CC066E" id="Path-27" fill="#4682F4"></path>
                            <path d="M39.1349515,25.9289975 C39.6115539,25.7878765 40.1123176,26.0598378 40.2534386,26.5364401 L40.8867742,28.6960299 L41.5916916,31.1606768 L41.84668,32.0735346 L42.4167341,34.1733407 L42.7125548,35.3082866 L42.9737308,36.3496068 L43.1286066,36.9918373 L43.2680933,37.5925034 L43.4070799,38.2181905 L43.6226723,39.2410568 L43.846816,40.3651842 L44.0795298,41.5906384 L44.320832,42.9174849 L44.5707411,44.3457893 L44.9173738,46.4081321 L45.2793846,48.6511168 C45.3571715,49.1420487 45.0222513,49.6030864 44.5313194,49.6808732 C44.0403874,49.7586601 43.5793498,49.4237399 43.5015629,48.932808 L43.2306968,47.2465504 L42.9685792,45.661961 L42.6327298,43.707439 L42.3125101,41.9339327 L42.0826286,40.7226879 L41.861582,39.6134175 L41.5806282,38.2931305 L41.3757254,37.4010152 L41.1410997,36.436709 L40.8717649,35.3780229 L40.5677326,34.2250205 L40.2290142,32.9777651 L39.8556212,31.6363204 L39.3038453,29.7013203 L38.8495893,28.1403472 L38.5275089,27.0474846 C38.3863878,26.5708823 38.6583492,26.0701185 39.1349515,25.9289975 Z" jetway-hook-id="7B149F92-B08F-4FFC-BD8D-615457DB4C38" id="Path-3" fill="#2A84FC"></path>
                        </g>
                    </g>
                    <path d="M220.821968,80.6820589 C221.229166,80.7460917 221.507615,81.1297504 221.443901,81.5389846 C221.380187,81.9482189 220.998437,82.22806 220.591238,82.1640272 C219.813891,82.0417877 219.023843,81.9799339 218.225759,81.9799339 C217.813606,81.9799339 217.479491,81.6441475 217.479491,81.2299339 C217.479491,80.8157204 217.813606,80.4799339 218.225759,80.4799339 C219.10117,80.4799339 219.968359,80.5478272 220.821968,80.6820589 Z M227.15757,83.0859071 C227.505358,83.3081765 227.608008,83.7717092 227.386844,84.1212362 C227.165681,84.4707633 226.704454,84.573926 226.356666,84.3516565 C225.688922,83.9249049 224.98888,83.5511673 224.262603,83.2342998 C223.884538,83.0693539 223.711106,82.6276245 223.875231,82.2476696 C224.039357,81.8677147 224.478888,81.6934155 224.856953,81.8583614 C225.654991,82.2065376 226.424083,82.6171398 227.15757,83.0859071 Z M232.016733,87.8215574 C232.248509,88.1640689 232.160122,88.6305605 231.819314,88.8634957 C231.478507,89.0964308 231.014336,89.0076017 230.78256,88.6650902 C230.337445,88.0073141 229.8417,87.3851551 229.30031,86.8045365 C229.018486,86.5022918 229.033822,86.0276682 229.334563,85.7444351 C229.635304,85.461202 230.107566,85.476614 230.38939,85.7788587 C230.983728,86.416262 231.527992,87.099313 232.016733,87.8215574 Z M234.592301,94.0498711 C234.67011,94.4566364 234.405078,94.8497765 234.000337,94.9279741 C233.595595,95.0061717 233.204411,94.7398149 233.126602,94.3330496 C232.97675,93.5496551 232.766217,92.7822616 232.497449,92.0364423 C232.357101,91.6469837 232.557475,91.2169221 232.944996,91.0758728 C233.332517,90.9348235 233.760439,91.136199 233.900786,91.5256575 C234.196202,92.3454233 234.427612,93.1889127 234.592301,94.0498711 Z M234.492316,100.893881 C234.402538,101.298148 234.003665,101.552728 233.601409,101.4625 C233.199153,101.372273 232.94584,100.971406 233.035619,100.567139 C233.207183,99.7945989 233.31897,99.0064695 233.369224,98.2077622 C233.395234,97.7943742 233.749769,97.4804478 234.1611,97.5065878 C234.572431,97.5327278 234.884796,97.8890356 234.858786,98.3024235 C234.803611,99.1793471 234.680818,100.045071 234.492316,100.893881 Z M231.682111,107.114793 C231.438641,107.44901 230.971681,107.521589 230.639127,107.276902 C230.306573,107.032215 230.234355,106.56292 230.477825,106.228703 C230.945378,105.586881 231.362473,104.90935 231.724852,104.202208 C231.913562,103.833963 232.363578,103.689185 232.729991,103.878838 C233.096404,104.068492 233.240461,104.520758 233.051752,104.889003 C232.653672,105.66581 232.195563,106.409964 231.682111,107.114793 Z M226.663492,111.67774 C226.30823,111.887731 225.850848,111.768525 225.641902,111.411486 C225.432956,111.054447 225.551569,110.594779 225.906832,110.384788 C226.589009,109.981563 227.238963,109.525138 227.850676,109.020142 C228.169156,108.757223 228.639413,108.803554 228.901024,109.123627 C229.162635,109.443699 229.116534,109.916307 228.798054,110.179227 C228.126415,110.733694 227.412705,111.234891 226.663492,111.67774 Z M220.322742,113.848547 C219.913802,113.900165 219.540655,113.608839 219.489294,113.197854 C219.437934,112.78687 219.72781,112.411857 220.13675,112.36024 C220.925424,112.260692 221.701007,112.09959 222.458224,111.879022 C222.854084,111.763712 223.268005,111.992748 223.382741,112.390588 C223.497477,112.788428 223.26958,113.204418 222.873719,113.319727 C222.041499,113.562143 221.189184,113.739184 220.322742,113.848547 Z M213.544468,113.30998 C213.148849,113.193836 212.921822,112.777366 213.037388,112.379769 C213.152955,111.982172 213.567352,111.75401 213.962971,111.870154 C214.719947,112.092384 215.495397,112.255142 216.284031,112.356328 C216.692866,112.408783 216.98198,112.78439 216.929785,113.195269 C216.877591,113.606147 216.503853,113.896707 216.095018,113.844251 C215.228606,113.733086 214.376429,113.554224 213.544468,113.30998 Z M207.586425,110.123589 C207.269307,109.859012 207.225648,109.386169 207.488908,109.067466 C207.752169,108.748763 208.222659,108.704885 208.539777,108.969462 C209.148791,109.477575 209.796286,109.937338 210.476252,110.344094 C210.830414,110.555954 210.946627,111.016241 210.735821,111.372174 C210.525015,111.728107 210.067017,111.844901 209.712855,111.633041 C208.966087,111.186323 208.255091,110.68147 207.586425,110.123589 Z M203.325233,104.741775 C203.140158,104.371671 203.288661,103.920859 203.656924,103.734859 C204.025186,103.548859 204.473755,103.698104 204.65883,104.068208 C205.01426,104.778981 205.42471,105.46063 205.885981,106.107049 C206.126174,106.443652 206.049375,106.912212 205.714446,107.153606 C205.379518,107.394999 204.913289,107.317817 204.673096,106.981214 C204.166524,106.27131 203.715696,105.522603 203.325233,104.741775 Z M201.589764,98.2541543 C201.564931,97.8406933 201.878309,97.4852851 202.289713,97.4603279 C202.701117,97.4353707 203.054757,97.7503153 203.07959,98.1637763 C203.127567,98.9625753 203.237065,99.7509162 203.406342,100.523804 C203.494942,100.928333 203.240461,101.328453 202.837944,101.417496 C202.435427,101.506538 202.037298,101.250786 201.948699,100.846256 C201.762713,99.99708 201.642438,99.1311474 201.589764,98.2541543 Z M202.559172,91.5022906 C202.700099,91.1130433 203.12832,90.9123109 203.515631,91.0539423 C203.902942,91.1955736 204.102675,91.6259357 203.961749,92.015183 C203.691864,92.7606182 203.48019,93.5277 203.32918,94.3108497 C203.250768,94.717498 202.859189,94.9832687 202.454564,94.9044651 C202.049939,94.8256615 201.785491,94.432125 201.863902,94.0254766 C202.029864,93.1647827 202.26253,92.321634 202.559172,91.5022906 Z M206.111161,85.7264979 C206.394265,85.4254647 206.866589,85.4120783 207.166125,85.6965987 C207.46566,85.981119 207.47898,86.455804 207.195875,86.7568373 C206.652034,87.3351183 206.153655,87.9551366 205.705743,88.6109805 C205.472508,88.9524902 205.007963,89.0393184 204.668152,88.804917 C204.328342,88.5705155 204.241945,88.1036473 204.475181,87.7621377 C204.966985,87.0420245 205.514136,86.3613307 206.111161,85.7264979 Z M211.62474,81.8452322 C212.00313,81.6810405 212.442316,81.8562158 212.605691,82.2364972 C212.769066,82.6167786 212.594762,83.0581613 212.216373,83.222353 C211.4896,83.5377159 210.788956,83.9099795 210.120498,84.3353027 C209.772268,84.5568727 209.311248,84.4527831 209.090781,84.1028122 C208.870313,83.7528413 208.973885,83.2895159 209.322114,83.067946 C210.056391,82.6007439 210.826151,82.1917578 211.62474,81.8452322 Z M218.184427,80.4799821 C218.596579,80.478978 218.931505,80.8139476 218.932509,81.2281599 C218.933508,81.6423722 218.600205,81.9789736 218.188054,81.9799821 C217.422917,81.9818483 216.665231,82.0405842 215.919109,82.1548952 C215.511664,82.2173187 215.131011,81.9359716 215.068898,81.5264888 C215.006786,81.117006 215.286733,80.7344503 215.694179,80.6720267 C216.51348,80.5465039 217.345138,80.4820338 218.184427,80.4799821 Z" jetway-hook-id="DC109824-48E3-4D44-AB7A-E1C68B47EAAE" id="Oval" fill="#38A953" fill-rule="nonzero"></path>
                </g>
                <g jetway-hook-id="70C2CA7C-344C-4F25-A98E-BD8A9C9F0F7E" id="Overlap" transform="translate(122.203698, 178.000000)" fill="#E8F0FE">
                    <path d="M1.75415238e-13,0.00116849778 L3.35833581,0.000654388388 C11.5888483,4.7431062 20.2575428,4.75435207 29.4422776,0.001416626 L33.0921676,0.000763146514 C21.414515,7.14197051 10.339265,7.16096434 1.75415238e-13,0.00116849778 Z" jetway-hook-id="DD408900-73B8-488D-9EEB-07B760E9A98D" id="Combined-Shape"></path>
                    <path d="M2.79630161,0 L29.7963016,0 C24.9962943,2.33333333 20.3296276,3.5 15.7963016,3.5 C11.2629756,3.5 6.92964226,2.33333333 2.79630161,0 Z" jetway-hook-id="C91903B5-094E-4016-A95A-FA3EF178D474" id="Path-5"></path>
                </g>
                <g jetway-hook-id="171F2124-1DD6-455F-81FE-C7F740D53035" id="Group-3" transform="translate(209.000000, 61.000000)" fill="#F882FF">
                    <path d="M2.79145017,8.66502931 L0.334970688,6.20854983 C0.0458012835,5.91938042 -0.0666534849,5.49779674 0.038985843,5.10347483 L0.938137173,1.74735719 C1.0437765,1.35254846 1.35241859,1.04439319 1.74722732,0.938267043 L5.10285814,0.0391157129 C5.49815369,-0.0670104322 5.91925055,0.0464179705 6.20841996,0.335587375 L8.66441262,2.79206686 C8.95358203,3.08074945 9.06701043,3.50233313 8.96088429,3.89714186 L8.06173296,7.25277268 C7.95560681,7.64758141 7.64745154,7.9562235 7.25264281,8.06186283 L3.89701199,8.96101416 C3.50220326,9.06665348 3.08061958,8.95419872 2.79145017,8.66502931" jetway-hook-id="51AD3F1C-C5FB-4F75-97CA-06A2628FB91C" id="Fill-1"></path>
                </g>
            </g>
        </g>
    </g>
</svg>