<svg width="300" height="200" viewBox="0 0 300 200" fill="none" xmlns="http://www.w3.org/2000/svg"><path d="M265.5 148.448h-35.6a2.802 2.802 0 0 1-2.7-2.7v-77a2.697 2.697 0 0 1 2.7-2.7h35.6a2.801 2.801 0 0 1 2.7 2.7v76.9c0 .726-.281 1.423-.784 1.946a2.803 2.803 0 0 1-1.916.854z" fill="#D2E3FC"/><path d="M265.5 148.448h-35.6a2.802 2.802 0 0 1-2.7-2.7v-77a2.697 2.697 0 0 1 2.7-2.7h35.6a2.801 2.801 0 0 1 2.7 2.7v76.9c0 .726-.281 1.423-.784 1.946a2.803 2.803 0 0 1-1.916.854z" fill="#D2E3FC"/><path d="m127.4 69.948-24.3 3.7a12.035 12.035 0 0 0 3.6 23.8l24.3-3.8a12 12 0 1 0-3.6-23.7zm10.7 10.5a8.91 8.91 0 0 1-1.62 6.667 8.897 8.897 0 0 1-5.88 3.534l-24.4 3.8a9.003 9.003 0 0 1-2.7-17.8l24.4-3.8a9.001 9.001 0 0 1 10.2 7.6z" fill="#EA4335"/><path d="M164.2 77.248a4.498 4.498 0 0 0 2.741-7.386 4.498 4.498 0 0 0-7.5 1.06 4.5 4.5 0 0 0 4.759 6.326z" fill="#34A853"/><path d="m105.7 84.648-33.9 9.2a.8.8 0 0 0-.4 1.4l25 24.8a.904.904 0 0 0 .802.157.898.898 0 0 0 .598-.557l9-34a.901.901 0 0 0-1.1-1z" fill="#FBBC04"/><path d="M227.2 97.548a13.099 13.099 0 0 1-9.3-3.3l-3.4-3-1.5-1.2-1.2-.7a10.999 10.999 0 0 0-14.9 4.9 11.2 11.2 0 0 0 4.9 14.9l1.3.5h.1l1.8.5 4.4.9a13.6 13.6 0 0 1 8.3 5.7l2.2 3.3a32.868 32.868 0 0 0 2 3.1 16.491 16.491 0 0 0 5.3 4" fill="#D2E3FC"/><path d="m227.2 127.248 1.1.5a15.903 15.903 0 0 0 20.083-8.435 15.9 15.9 0 0 0-7.183-20.565 16.6 16.6 0 0 0-9.9-1.4l-3.9.2h-.2m-30.7-20.9a16.398 16.398 0 0 0-16.085 19.6 16.408 16.408 0 0 0 4.488 8.397 16.407 16.407 0 0 0 17.873 3.555 16.404 16.404 0 0 0 8.876-21.428A16.4 16.4 0 0 0 196.5 76.648zm0 3a13.403 13.403 0 0 1 13.143 16.014 13.407 13.407 0 0 1-10.529 10.529A13.402 13.402 0 0 1 183.1 93.048a13.4 13.4 0 0 1 13.4-13.4zm56.2-9.6a.799.799 0 0 1 .8.9.798.798 0 0 1-.7.8h-7.9a.896.896 0 0 1-.8-.8 1 1 0 0 1 .7-.9h7.9zm-12.1 1.9a.999.999 0 0 0 1-1 .91.91 0 0 0-.257-.743.905.905 0 0 0-.743-.257 1 1 0 0 0-1 1 1.102 1.102 0 0 0 1 1z" fill="#4285F4"/><path fill-rule="evenodd" clip-rule="evenodd" d="M209 88.348c.98.183 1.926.52 2.8 1l.7.4c.281 1.077.415 2.187.4 3.3a16.4 16.4 0 0 1-11.7 15.7 11.292 11.292 0 0 1-2.9-2.4 13.496 13.496 0 0 0 11.6-13.3 12.693 12.693 0 0 0-.9-4.7zm-113.2-1a9.2 9.2 0 0 0 8.6 7.4l-.7 2.5a11.7 11.7 0 0 1-10.3-9.2l2.4-.7z" fill="#fff"/><path d="M43.2 107.648a16.498 16.498 0 0 1 20.655 9.102 16.501 16.501 0 0 1-7.755 21.198 15.582 15.582 0 0 1-3.3 1.4" fill="#EE5FFA"/><path d="m35.5 79.048 19.9 67.7 68.6-.9v3.9l-70.1.9a1.898 1.898 0 0 1-1.8-1.3l-20.3-69.2 3.7-1.1z" fill="#4285F4"/></svg>