<svg width="300px" height="200px" viewBox="0 0 300 200" version="1.1" xmlns="http://www.w3.org/2000/svg" xmlns:xlink="http://www.w3.org/1999/xlink" jetway-hooks="{}">
    <title>Settings Dialog/Finished</title>
    <g jetway-hook-id="0CD9E428-7FEB-4E30-A3B6-CDD9F130FB1C" id="Illo" stroke="none" stroke-width="1" fill="none" fill-rule="evenodd">
        <g jetway-hook-id="4CFF3156-30F6-4140-8E2E-B1F6F55C53DB" id="Settings-Initicate-Copy" transform="translate(-18.000000, 0.000000)">
            <g jetway-hook-id="E72DF195-076A-4618-B6EC-3BB935B38EE4" id="Settings-Dialog/Finished" transform="translate(18.000000, 0.000000)">
                <g jetway-hook-id="B62ECB18-D490-4286-9339-348F8F6758CF" id="Group-28">
                    <g jetway-hook-id="2F1BD5C7-12D2-4FA2-AEAB-FA1EB9D3BD9D" id="Group-19" transform="translate(4.000000, 36.638600)">
                        <path d="M43.4891196,32.7282167 C47.5496163,36.7880361 47.5496163,43.3711061 43.4891196,47.4309255 C39.4293002,51.4914221 32.8462302,51.4914221 28.7864108,47.4309255 C24.7265914,43.3711061 24.7265914,36.7880361 28.7864108,32.7282167 C32.8462302,28.6683973 39.4293002,28.6683973 43.4891196,32.7282167" jetway-hook-id="5A6584B5-C8E6-4096-BCC8-465B3A6E9ACC" id="Fill-1" fill="#34A853"></path>
                        <path d="M10.397246,117.516546 L10.397246,117.516546 C7.27060948,113.252212 8.19227991,107.260339 12.456614,104.133702 L30.5013093,90.8639503 C34.7649661,87.7366366 40.7568397,88.6589842 43.8834763,92.9233183 C47.0101129,97.186298 46.0884424,103.178172 41.8241084,106.304808 L23.7800903,119.575914 C19.5157562,122.702551 13.5238826,121.78088 10.397246,117.516546 Z" jetway-hook-id="8609DA94-0D8B-40E5-BEF0-9CF0DFA89B91" id="Stroke-3" stroke="#2A84FC" stroke-width="2.628" stroke-linecap="round" stroke-linejoin="round"></path>
                        <path d="M208.055756,62.7280813 C223.092325,58.5321445 239.243567,60.2820316 253.404515,66.6660045 C260.760948,69.9836117 267.146275,74.9163431 273.191648,80.1917381 C278.853725,85.1325959 285.386682,91.5714221 292.353725,95.7328217" jetway-hook-id="78891F0E-F8C3-4723-B8FA-991216C87AB2" id="Stroke-5" stroke="#D2E3FC" stroke-width="2.628" stroke-linecap="round" stroke-linejoin="round"></path>
                        <path d="M242.140813,1.14641084 L240.350971,24.6330926 C240.287991,25.4646953 241.148713,26.05386 241.901084,25.6922348 L263.136072,15.4990068 C263.888442,15.1380587 263.966998,14.0985553 263.278962,13.6272235 L243.833815,0.333769752 C243.144424,-0.137562077 242.20447,0.314130926 242.140813,1.14641084" jetway-hook-id="6A4A64E4-A807-4532-930D-A51DBB6FB11C" id="Fill-7" fill="#F882FF"></path>
                        <path d="M5.65397291,2.8030474 L0.742911964,8.87076749 C0.218081264,9.51952596 0.591218962,10.4926637 1.41604966,10.6240406 L9.12598194,11.8436795 C9.95081264,11.973702 10.6063431,11.1630926 10.3076975,10.3836343 L7.50882619,3.0969526 C7.20950339,2.31749436 6.17880361,2.15496614 5.65397291,2.8030474" jetway-hook-id="763E2B72-595E-42C1-9DC2-836573ACBE84" id="Fill-9" fill="#EA4335"></path>
                        <path d="M240.506727,109.607652 L231.511467,109.607652 C230.943973,109.607652 230.419819,109.909684 230.136749,110.400655 L225.639458,118.191174 C225.355711,118.681467 225.355711,119.286885 225.639458,119.777856 L230.136749,127.567698 C230.419819,128.058668 230.943973,128.3607 231.511467,128.3607 L240.506727,128.3607 C241.073544,128.3607 241.59702,128.058668 241.88009,127.567698 L246.378059,119.777856 C246.661806,119.286885 246.661806,118.681467 246.378059,118.191174 L241.88009,110.400655 C241.59702,109.909684 241.073544,109.607652 240.506727,109.607652 Z" jetway-hook-id="231F32FC-3951-4AF7-9242-44B10A11F3C6" id="Stroke-11" stroke="#FBBC05" stroke-width="3" stroke-linejoin="round"></path>
                    </g>
                </g>
                <g jetway-hook-id="DC7A43D2-472F-4DE6-B0EB-85684015C05F" id="Group-2" transform="translate(101.000000, 57.000000)" fill-rule="nonzero">
                    <path d="M43,86 C66.7483906,86 86,66.7478329 86,43.0004557 C86,19.2530784 66.7483906,0 43,0 C19.2518373,0 0,19.2530784 0,43.0004557 C0,66.7478329 19.2518373,86 43,86 Z" jetway-hook-id="91B6ED6A-6AC1-4123-AA2E-B54B7FB0D6D5" id="Path" fill="#D2E3FC"></path>
                    <path d="M42.3174603,8.55555556 C23.6716041,8.55555556 8.55555556,23.6720161 8.55555556,42.3178075 C8.55555556,60.963473 23.6714782,76.0793651 42.3174603,76.0793651 C60.9635569,76.0793651 76.0793651,60.9635321 76.0793651,42.3178075 C76.0793651,23.671957 60.963431,8.55555556 42.3174603,8.55555556 Z M42.3174603,10.5555556 C59.8588477,10.5555556 74.0793651,24.7765127 74.0793651,42.3178075 C74.0793651,59.8589633 59.8589866,74.0793651 42.3174603,74.0793651 C24.7760468,74.0793651 10.5555556,59.8589026 10.5555556,42.3178075 C10.5555556,24.7765734 24.7761858,10.5555556 42.3174603,10.5555556 Z" jetway-hook-id="C37E82A3-D3D7-40D4-9B11-327B5E763BCD" id="Path" fill="#FFFFFF"></path>
                    <path d="M83.761394,10.0265146 C84.255203,9.54407912 85.0466056,9.55329925 85.529041,10.0471083 C85.9793141,10.5079967 86.0013005,11.2281221 85.6007458,11.7143284 L85.5084473,11.8147553 L43.7517473,52.609692 C42.1652319,54.1510411 39.7706695,54.2024194 38.1302573,52.7635167 L37.9633138,52.6093486 L20.9698871,36.0866802 C20.4749241,35.6054289 20.4638086,34.8140507 20.94506,34.3190876 C21.3942279,33.8571221 22.1135508,33.8166416 22.6098875,34.2045726 L22.7126526,34.2942605 L39.7058142,50.8166713 C40.337183,51.4301866 41.2264702,51.4662757 41.8862843,50.9268955 L42.0071913,50.8190184 L83.761394,10.0265146 Z" jetway-hook-id="991F107B-F3DE-4E15-99E5-B80EB8EBD68E" id="Path" fill="#00AC47"></path>
                    <g jetway-hook-id="4872A0B2-DB2B-43CE-9710-2E9C17D6126D" id="Clipped" transform="translate(76.000000, 7.000000)" fill="#2A84FC">
                        <path d="M11.6837261,0.894432326 C12.1904043,1.41281357 12.2131775,2.22425134 11.7584364,2.76897879 L11.6611232,2.87420229 L2.54066378,11.7887631 C2.00854861,11.0091694 1.45145301,10.2479825 0.870529297,9.50635485 L9.70395614,0.871829456 C10.2568961,0.331372687 11.1432693,0.341492336 11.6837261,0.894432326 Z" jetway-hook-id="91D55E77-3A96-4773-8ECF-C56FFA21FAE3" id="Combined-Shape"></path>
                    </g>
                </g>
            </g>
        </g>
    </g>
</svg>