<svg width="217" height="216" viewBox="0 0 217 216" fill="none" xmlns="http://www.w3.org/2000/svg"><path fill-rule="evenodd" clip-rule="evenodd" d="M161.781 134.85c0-.526.426-.952.952-.952h13.4c.526 0 .953.426.953.952v9.2c0 2.826-2.327 5.152-5.153 5.152h-5c-2.826 0-5.152-2.326-5.152-5.152v-9.2zm1.905.952v8.248c0 1.774 1.473 3.248 3.247 3.248h5c1.774 0 3.248-1.474 3.248-3.248v-8.248h-11.495z" fill="#4285F4"/><path d="M152.648 103.908a1.001 1.001 0 0 0-1.029-1.715 5.083 5.083 0 0 1-1.976.651c-.413.041-.7.02-.953-.037-.262-.06-.533-.167-.918-.355a.999.999 0 1 0-.878 1.797c.434.212.868.398 1.355.509a4.866 4.866 0 0 0 1.593.076 7.084 7.084 0 0 0 2.806-.926z" fill="#4285F4"/><path fill-rule="evenodd" clip-rule="evenodd" d="M168.543 91.92c-1.182-.15-2.38-.3-3.478-.138-1.157.124-2.314.59-3.443 1.044-.322.13-.642.258-.958.377a11.386 11.386 0 0 1 1.169 5.047 11.32 11.32 0 0 1-2.067 6.554.993.993 0 0 1 .333.345c.382.66.786 1.335 1.197 2.023 5.995.335 12.677.82 18.493 3.043 3.077 1.168 6.609 3.275 11.2 8.581l.005.005.129.151c5.786 6.775 11.429 13.383 15.148 20.101 3.761 6.796 5.617 13.817 3.629 21.351-3.333 12.708-16.261 21.985-31.673 25.027a1 1 0 0 1-1.108-.575c-6.028 1.233-12.105.385-18.172-.462-3.245-.453-6.487-.906-9.717-1.039a1.501 1.501 0 0 1-1.497 1.395h-82.5c-.338 0-.65-.112-.9-.3h-5.24l-4.605-50.444c-.105-.628.418-1.256 1.15-1.256h50.32c5.338-8.673 13.143-16.018 21.825-20.393l.053-.025c-1.405-2.876-2.439-5.881-2.89-8.725l-.003-.016-.001-.01-.003-.021-.006-.06c-.096-.861-.212-1.903.024-2.967.007-.033.017-.067.027-.099.276-.826.814-1.476 1.424-1.965a.997.997 0 0 1 .477-.208c.066-.663.184-1.374.42-2.026.318-.877.891-1.757 1.934-2.204l.023-.01c.42-.168.904-.247 1.391-.194.095-.215.2-.424.317-.621.376-.634.941-1.263 1.776-1.514l.013-.004a3.286 3.286 0 0 1 1.687-.006c.522.135 1.113.428 1.495.978.896-.612 1.862-.69 2.84-.147.47.261.892.644 1.184 1.082l.009.014c.724 1.125.385 2.175.153 2.896l-.023.072c-.234.727-.434 1.347-.286 2.202l.002.007c.195 1.174.776 2.212 1.626 3.171a11.439 11.439 0 0 1-.613-3.707c0-5.581 3.992-10.26 9.226-10.92-.596-.323-1.257-.6-1.923-.88-1.63-.685-3.287-1.381-4.071-2.768-.771-1.305-.557-2.998-.339-4.722.15-1.183.302-2.38.139-3.478-.121-1.094-.571-2.204-1.016-3.303-.655-1.616-1.3-3.21-.884-4.697.425-1.579 1.845-2.678 3.254-3.768.911-.706 1.818-1.407 2.446-2.232.635-.794 1.081-1.856 1.532-2.929.685-1.63 1.381-3.287 2.768-4.071 1.305-.771 2.998-.557 4.722-.339 1.183.15 2.38.302 3.478.139 1.094-.122 2.204-.571 3.303-1.017 1.616-.654 3.21-1.3 4.697-.883 1.579.425 2.678 1.845 3.768 3.254.706.911 1.407 1.817 2.232 2.446.794.635 1.856 1.081 2.929 1.532 1.63.685 3.287 1.38 4.071 2.768.771 1.305.557 2.997.339 4.722-.15 1.182-.302 2.38-.139 3.478.122 1.093.571 2.203 1.017 3.303.654 1.616 1.3 3.21.883 4.697-.425 1.579-1.845 2.678-3.254 3.768-.911.705-1.817 1.407-2.446 2.232-.635.794-1.081 1.855-1.532 2.929-.685 1.63-1.381 3.287-2.768 4.07-1.305.772-2.998.558-4.722.34zm-39.787 22.182c-.023.015-.048.028-.073.041-8.004 4.034-15.245 10.71-20.36 18.607h19.129c2.24-3.754 4.48-7.42 6.717-11.077-1.989-2.143-3.864-4.763-5.413-7.571zm1.607 18.648h-.581c2.1-3.504 4.201-6.939 6.304-10.378.025-.041.047-.084.066-.127a1 1 0 0 0-.004-1.394c-4.374-4.472-8.255-11.477-9.224-17.535-.099-.893-.168-1.607-.026-2.296l.003-.008c.421 5.074 2.68 9.685 5.843 13.752a1 1 0 0 0 1.579-1.228c-3.406-4.378-5.578-9.253-5.49-14.546.049-.77.143-1.495.353-2.075.205-.567.479-.886.83-1.04l.012-.006.011-.004a16.426 16.426 0 0 0-.306 2.858c-.31 6.201 3.415 11.449 5.954 14.293a1 1 0 1 0 1.492-1.332c-2.457-2.752-5.726-7.494-5.447-12.882l.001-.052c0-.444.071-1.735.371-2.962.151-.614.347-1.159.586-1.563.24-.404.461-.564.625-.615.162-.045.401-.051.631.008.313.08.391.307.642.47-.178.267-.334.54-.47.805-.595 1.156-.967 2.472-1.076 3.426-.235 1.57.197 3.522 1.135 5.53.954 2.04 2.475 4.234 4.549 6.308a.999.999 0 1 0 1.414-1.414c-1.926-1.926-3.305-3.932-4.151-5.742-.857-1.833-1.125-3.372-.967-4.399l.002-.013.003-.029c.079-.707.378-1.8.869-2.752.497-.966 1.048-1.52 1.52-1.67a.85.85 0 0 1 .394.124c.202.112.379.277.487.436.167.264.162.46-.078 1.208-.342 1.054-.564 2.1-.372 3.212.475 2.838 2.526 4.87 4.674 6.46 1.04.771 2.152 1.473 3.186 2.126 1.018.643 2.05 1.277 2.996 2.023 2.35 1.96 4.289 4.246 4.638 6.951l.004.026c.447 2.861-.507 5.1-2.017 8.322l-.003.005a179.818 179.818 0 0 0-6.736 16.691.803.803 0 0 0-.033.116c-1.611-.588-3.217-1.182-4.826-1.776l-.003-.001c-2.557-.944-5.119-1.891-7.701-2.818l-.302-3.237c0-.628-.628-1.256-1.361-1.256zm1.868 6.693 2.795 29.932 11.344-24.751c-2.456-.884-4.893-1.785-7.327-2.684h-.002l-.002-.001-.002-.001c-2.267-.837-4.53-1.673-6.806-2.495zm3.166 33.911.216 2.315a3.96 3.96 0 0 1 1.279-1.841c-.357-.478-.519-1.054-.554-1.582-.026-.39.013-.794.114-1.182l-1.01 2.203a.893.893 0 0 1-.045.087zm4.053-8.831c.066-.042.128-.079.184-.113l.019-.012.015-.008c1.472-.805 3.428-1.321 5.458-1.661 8.36-1.396 13.172-.906 19.314-.281 1.251.127 2.557.26 3.96.384l-1.196-3.013a1 1 0 0 1 1.023-1.365c.075-.057.159-.104.251-.139l9.595-3.641c.068-.035.14-.063.215-.082l.318-.121a.905.905 0 0 0 .055-.087c.139-.249.272-.711.272-1.415 0-1.663.022-3.232.426-4.979l.005-.02.005-.02.004-.012c.088-.306.182-.613.277-.922.471-1.535.96-3.13.884-5.026a1 1 0 0 1 1.876-.521.99.99 0 0 1 .311.428c.28.741.56 1.486.84 2.232l.017.044v.001c1.034 2.756 2.076 5.531 3.181 8.247a.998.998 0 0 1-.571 1.312l-6.543 2.483c-.317.127-.563.211-.873.332l-9.312 3.534a6429.06 6429.06 0 0 1 4.55 11.494l.001.001.002.005a547.099 547.099 0 0 0 4.756 11.695c14.556-3.138 26.194-11.932 29.197-23.381v-.001c1.812-6.866.168-13.345-3.445-19.873-3.621-6.542-9.154-13.021-15.008-19.876l-.036-.042-.002-.002c-4.407-5.092-7.674-6.984-10.396-8.017l-.003-.001c-5.08-1.942-10.926-2.499-16.546-2.838.333.57.662 1.145.979 1.722.122.221.156.48.094.724a12.496 12.496 0 0 1-1.28 3.111c-.866 1.487-2.31 3.199-4.596 3.903l-.012.003-.019.006c-.821.224-1.592.3-2.28.294-.203 2.383-1.173 4.509-2.276 6.863l.001-.003-.908-.419.906.424.001-.002a177.715 177.715 0 0 0-6.662 16.506 1.202 1.202 0 0 1-.059.137c.549.199 1.099.396 1.651.593a1.002 1.002 0 0 1 .572 1.359l-9.192 20.056zm-1.603-65.405v-.004l.001.007-.001-.003zm17.476 17.291c-.379-2.908-2.149-5.274-4.144-7.16l.078.001c2.788.021 5.327-1.098 7.21-2.928.407.699.817 1.383 1.226 2.066l.001.002.001.001v.001a120.642 120.642 0 0 1 1.865 3.184 10.818 10.818 0 0 1-.966 2.221c-.733 1.259-1.834 2.493-3.44 2.992a6.354 6.354 0 0 1-1.754.22c-.02-.198-.045-.398-.077-.6zm-19.477 61.755.335 3.586h3.554a3.12 3.12 0 0 1-.495-.764l-.005-.011-.006-.014a4.032 4.032 0 0 1-.318-1.467 5.907 5.907 0 0 1-1.266-.216c-.465-.135-.951-.346-1.35-.66a2.543 2.543 0 0 1-.449-.454zm23.471-83.015-15.535-1.038a9.387 9.387 0 0 0-.949 4.139c0 5.02 3.854 9 8.5 9 4.647 0 8.5-3.98 8.5-9a9.487 9.487 0 0 0-.516-3.101zm21.588 58.45 3.619-1.374a321.712 321.712 0 0 1-2.454-6.378c-.168.663-.357 1.275-.529 1.832l-.001.001c-.085.276-.166.539-.239.787-.342 1.493-.368 2.853-.368 4.502 0 .215-.009.425-.028.63zm-8.745 18.736-.016-.042-.004-.008a8124.44 8124.44 0 0 0-2.913-7.366c-7.658-.771-16.153-1.49-23.772-.217-1.944.325-3.632.793-4.809 1.433-.45.271-1.154.757-1.62 1.611l-.003.007a2.749 2.749 0 0 0-.239.565c.394-.232.797-.42 1.183-.575 3.442-1.459 7.271-2.074 10.968-2.076 3.117-.085 6.167.269 9.183.619.548.063 1.095.127 1.641.187a1 1 0 0 1-.221 1.988c-.565-.063-1.125-.127-1.68-.192-3.023-.35-5.915-.685-8.882-.602h-.028c-3.495 0-7.057.584-10.209 1.921l-.019.008c-.921.368-1.703.87-2.14 1.526-.168.253-.27.632-.246.991.024.362.157.547.269.622l.011.008.013.009c.257-.119.513-.224.765-.319 7.428-2.887 14.524-2.766 22.2-1.655a1 1 0 1 1-.287 1.979c-7.522-1.089-14.224-1.168-21.194 1.542l-.011.005c-.735.275-1.42.624-2.001 1.122-.479.411-.716.997-.657 1.531l.001.003c.01.015.035.044.09.088.133.104.359.219.669.309.449.13.903.163 1.236.138.642-.934 1.787-1.478 2.978-1.812 1.489-.419 3.381-.603 5.439-.641 4.129-.076 9.165.432 13.53 1.035a1 1 0 0 1-.273 1.981c-4.335-.598-9.249-1.09-13.22-1.016-1.992.037-3.687.215-4.936.566-1.033.29-1.576.645-1.83.968a.998.998 0 0 1-.178.392c-.072.354-.05.801.114 1.192.151.318.43.573 1.028.767.639.209 1.532.31 2.744.353.744.027 1.602.03 2.555.034h.007c3.752.015 7.558.549 11.371 1.085 5.907.829 11.83 1.661 17.601.567-1.397-3.518-2.793-7.051-4.189-10.583l-.016-.042-.003-.006zm-34.724 4.613.001.002.001.002.001.002-.003-.006z" fill="#4285F4"/><path d="m65.233 165.25-22.6.3c-4.6.1-8.3-3.6-8.4-8.2l-.3-22.6c-.1-4.6 3.6-8.3 8.2-8.4l22.7-.3c4.6-.1 8.3 3.6 8.4 8.2l.3 22.6c0 4.6-3.7 8.3-8.3 8.4z" fill="#fff"/><path d="M44.033 126.25v-3.5c-.1-5.2 4.1-9.5 9.3-9.5 5.2-.1 9.5 4.1 9.5 9.3" stroke="#4285F4" stroke-width="2" stroke-miterlimit="10" stroke-linecap="round" stroke-linejoin="round"/><path d="m65.233 165.25-22.6.3c-4.6.1-8.3-3.6-8.4-8.2l-.3-22.6c-.1-4.6 3.6-8.3 8.2-8.4l22.7-.3c4.6-.1 8.3 3.6 8.4 8.2l.3 22.6c0 4.6-3.7 8.3-8.3 8.4z" fill="#D2E3FC"/><path d="m44.033 126.25.3 24.6c.1 5.2 4.3 9.4 9.5 9.3 5.2-.1 9.4-4.3 9.3-9.5l-.3-24.6" stroke="#fff" stroke-width="2" stroke-miterlimit="10" stroke-linejoin="round"/><path d="M55.253 144.177a3.7 3.7 0 0 0-1.62-7.027 3.7 3.7 0 0 0-1.514 7.077l-1.186 6.023c-.3 1.1.5 2 1.6 2h2.6c1 0 1.8-1 1.5-2l-1.38-6.073z" fill="#4285F4"/><path d="M52.733 185.75c24.08 0 43.6-19.52 43.6-43.6 0-24.08-19.52-43.6-43.6-43.6-24.08 0-43.6 19.52-43.6 43.6 0 24.08 19.52 43.6 43.6 43.6z" stroke="#FBBC04" stroke-width="2" stroke-miterlimit="10" stroke-linecap="round" stroke-linejoin="round"/><path d="m73.333 94.35-.8-2.6c0-.1-.2-.3-.3-.3l-2.6-.6c-.1 0-.3 0-.4.1l-1.8 2c-.1.1-.1.3-.1.4l.8 2.6c0 .1.2.3.3.3l2.6.6c.1 0 .3 0 .4-.1l1.8-2c.1-.1.2-.2.1-.4z" fill="#34A853"/><path d="M37.982 72.756c3.5-1.4 7.4.2 8.9 3.6v.1c1.4 3.5-.2 7.4-3.6 8.9-3.5 1.4-7.4-.2-8.9-3.6v-.1c-1.5-3.5.2-7.5 3.6-8.9z" stroke="#EA4335" stroke-width="2" stroke-miterlimit="10" stroke-linecap="round" stroke-linejoin="round"/><path d="M84.99 40.437c-.335.812-.522 1.649-.65 2.444l-.685 2.643c-.57 2.254-1.975 4.015-3.87 5.34-2.586 1.823-5.662 2.905-6.757 6.195-.832 2.619-.235 5.521 1.622 7.557.083.116.174.182.307.305 3.423 3.362 8.97 2.733 11.731-1.103.789-1.096 1.395-2.324 2.101-3.535a9.198 9.198 0 0 1 5.534-4.304l2.615-.748a9.614 9.614 0 0 0 2.45-.673 10.615 10.615 0 0 0 4.398-3.264c3.42-4.137 3.298-10.277-.276-14.275-4.263-4.773-11.564-4.94-16.007-.459-1.176 1.289-1.989 2.534-2.512 3.877z" stroke="#8AB4F8" stroke-width="2" stroke-miterlimit="10" stroke-linecap="round" stroke-linejoin="round"/><path d="M84.938 71.58c1.278-7.867-4.063-15.28-11.93-16.559-7.867-1.278-15.28 4.063-16.558 11.93-1.278 7.866 4.063 15.28 11.93 16.558 7.866 1.278 15.28-4.063 16.558-11.93z" fill="#F1F3F4"/><path d="M71.928 56.816c-.936 2.942-.274 6.21 1.817 8.52.133.168.3.313.368.373l.02.017c3.029 2.956 7.49 3.171 10.788 1.1a14.35 14.35 0 0 0-.517-2.074c-2.6 2.01-6.395 1.971-8.883-.467a1.162 1.162 0 0 0-.012-.01l-.007-.008a6.175 6.175 0 0 0-.11-.099 3.41 3.41 0 0 1-.063-.057l-.011-.01a1.002 1.002 0 0 0-.067-.082c-1.617-1.768-2.146-4.299-1.42-6.59a5.596 5.596 0 0 1 1.127-1.952 14.562 14.562 0 0 0-2.144-.486 7.547 7.547 0 0 0-.882 1.812l-.004.013z" fill="#fff"/><path d="M27.715 47.798c1.8-1.1 4.2-.5 5.2 1.4l4.6 7.7c1.1 1.8.5 4.2-1.4 5.2-1.8 1.1-4.2.5-5.2-1.4l-4.6-7.7c-1-1.8-.4-4.1 1.4-5.2z" fill="#8AB4F8"/><path d="M7.429 72.075c2.674 7.448 8.562 12.875 15.79 15.73 2.17.867 4.83 1.741 7.043 3.09" stroke="#D2E3FC" stroke-width="2" stroke-miterlimit="10" stroke-linecap="round" stroke-linejoin="round"/></svg>