<svg id="export" xmlns="http://www.w3.org/2000/svg" width="246" height="268" viewBox="0 0 246 268" fill="none"><path d="m175 123-19-1.662 2.841-2.276 5.327-3.062 3.996.438 4.084 3.324L175 123Z" fill="var(--cros-sys-illo-color1)"/><path d="M166.3 130.8c-.5.3-1.5.6-2.5.7-1 .1-2-.1-2.3-.4M154.6 206.2c-1.1.4-3.6-.1-3.7-1.3-.1-.9.3-1.8 1-2.4.7-.6 1.5-1 2.3-1.3 7.2-2.8 14.1-2.7 21.7-1.6" stroke="var(--cros-sys-illo-color1)" stroke-width="2" stroke-miterlimit="10" stroke-linecap="round" stroke-linejoin="round"/><path d="M176.1 195.3c-3.6-.4-7.1-.9-10.7-.8-3.6 0-7.3.6-10.6 2-1 .4-2 1-2.6 1.9-.6.9-.6 2.4.3 3" stroke="var(--cros-sys-illo-color1)" stroke-width="2" stroke-miterlimit="10" stroke-linecap="round" stroke-linejoin="round"/><path d="M152.3 197.9c-.3-.9-.2-1.9.3-2.8.6-1.1 1.5-1.7 2-2 5.3-2.9 18.6-2.1 18.6-2.1 4.5.3 8.2.5 11 .8M175.7 204.9c-8.7-1.2-19.9-2-21.2 1.4-.2.6-.2 1.4.1 2.1 1.2 2.6 6.4 1.3 14.4 2 4.3.4 3.6.8 7.9 1.3 4.8.5 10.1 1.1 15.4-.2M123.1 209.6c-8.3-8.3-11.4-22.1-7.9-35.3 3.7-14 14.5-26.9 27.2-33.3M195.952 170c1.316 3.482 2.631 7.066 4.048 10.548L183 187" stroke="var(--cros-sys-illo-color1)" stroke-width="2" stroke-miterlimit="10" stroke-linecap="round" stroke-linejoin="round"/><path d="M182.3 187.2c3.3 8.3 6.6 16.7 9.9 25 15.2-3 27.7-12.1 30.9-24.3 3.8-14.4-7-27-18.7-40.7-4.5-5.2-7.9-7.2-10.8-8.3-3.4-1.3-7.3-1.8-10-2.2-3-.4-5.5-.5-7.3-.6" stroke="var(--cros-sys-illo-color1)" stroke-width="2" stroke-miterlimit="10" stroke-linecap="round" stroke-linejoin="round"/><path d="M195.7 169.7c.1 2.3-.7 4.2-1.2 5.8-.1.4-.3 1.1-.4 1.9-.1.6 0 1.9 0 2.5 0 1.5-.6 2.4-1.4 2.4M173.4 133.4c1.1 1.9 2.3 3.8 3.4 5.8-.1.4-1.3 5.1-5.2 6.3-1.1.3-2.1.3-2.9.2" stroke="var(--cros-sys-illo-color1)" stroke-width="2" stroke-miterlimit="10" stroke-linecap="round" stroke-linejoin="round"/><path d="M186.1 176h-5c-2.3 0-4.2-1.9-4.2-4.2v-9.2h13.4v9.2c0 2.3-1.9 4.2-4.2 4.2Z" stroke="var(--cros-sys-illo-color1)" stroke-width="1.905" stroke-miterlimit="10" stroke-linecap="round" stroke-linejoin="round"/><path d="M165.5 136c5.247 0 9.5-4.477 9.5-10s-4.253-10-9.5-10-9.5 4.477-9.5 10 4.253 10 9.5 10Z" stroke="var(--cros-sys-illo-color1)" stroke-width="2" stroke-miterlimit="10" stroke-linecap="round" stroke-linejoin="round"/><path d="M179.232 119.532c2.7-.4 6 1.1 8.2-.2 2.3-1.3 2.7-5 4.3-7 1.6-2.1 5-3.4 5.7-6 .7-2.5-1.6-5.3-1.9-8-.4-2.7 1.1-6-.2-8.2-1.3-2.3-5-2.7-7-4.3-2.1-1.6-3.4-5-6-5.7-2.5-.7-5.3 1.6-8 1.9-2.7.4-6-1.1-8.2.2-2.3 1.3-2.7 5-4.3 7-1.6 2.1-5 3.4-5.7 6-.7 2.5 1.6 5.3 1.9 8 .4 2.7-1.1 6 .2 8.2 1.3 2.3 5 2.7 7 4.3 2.1 1.6 3.4 5 6 5.7 2.4.7 5.2-1.6 8-1.9Z" fill="var(--cros-sys-illo-color1)"/><path d="M71.8 160.6h71.4c.7 0 1.3.6 1.3 1.2L149 210H75.1l-4.4-48.2c-.1-.6.4-1.2 1.1-1.2Z" fill="var(--cros-sys-illo-color1)" stroke="var(--cros-sys-illo-color1)" stroke-width="2" stroke-miterlimit="10" stroke-linecap="round" stroke-linejoin="round"/><path d="M79.4 211h82.5" stroke="var(--cros-sys-illo-color1)" stroke-width="3" stroke-miterlimit="10" stroke-linecap="round" stroke-linejoin="round"/><path d="M149.4 149.6c-2.2 3.5-4.4 7-6.6 10.6M153.6 137.2c-4-4-5.8-8.4-5.4-11 .1-.9.6-2.4 1.6-3.9.7-1.1 1.2-1.3 1.6-1.4.7-.1 1.5.4 1.9 1 .9 1.4-.7 2.5-.3 4.8.3 1.8 1.5 3.1 2.9 4.5.3.3.9.9 3.1 2.5 1.6 1.1 2.6 1.5 4.5 3 2.4 2 4.6 4.5 5 7.6.5 3.2-.6 5.7-2.1 8.9-1.8 3.9-4.2 9.4-6.7 16.6" stroke="var(--cros-sys-illo-color1)" stroke-width="2" stroke-miterlimit="10" stroke-linecap="round" stroke-linejoin="round"/><path d="M149.3 121c-.4-.6-1.4-.8-2.1-.6-2 .6-2.3 5.1-2.3 6.1-.3 5.8 3.2 10.8 5.7 13.6" stroke="var(--cros-sys-illo-color1)" stroke-width="2" stroke-miterlimit="10" stroke-linecap="round" stroke-linejoin="round"/><path d="M145.4 122.8c-.5-.3-1.1-.3-1.6-.1-1.4.6-1.7 2.4-1.8 4-.1 5.6 2.2 10.7 5.7 15.2" stroke="var(--cros-sys-illo-color1)" stroke-width="2" stroke-miterlimit="10" stroke-linecap="round" stroke-linejoin="round"/><path d="M149.6 149.3c-4.5-4.6-8.5-11.8-9.5-18.1-.1-.9-.2-1.8 0-2.7.2-.6.6-1.1 1.1-1.5M145.2 165.7c5.6 2 11.1 4.1 16.7 6.1l-13.2 28.8" stroke="var(--cros-sys-illo-color1)" stroke-width="2" stroke-miterlimit="10" stroke-linecap="round" stroke-linejoin="round"/><path d="m79.07 193.135-22.601.032c-4.601.046-8.257-3.698-8.302-8.298l-.033-22.602c-.045-4.601 3.698-8.257 8.3-8.303l22.701-.031c4.6-.045 8.257 3.698 8.302 8.299l.033 22.602c-.055 4.6-3.798 8.255-8.4 8.301Z" fill="var(--cros-sys-illo-color1-2)"/><path d="M76 150.5a8.5 8.5 0 0 0-17 0v4h-2v-4c0-5.799 4.701-10.5 10.5-10.5S78 144.701 78 150.5h-2Z" fill="var(--cros-sys-illo-color1)"/><path fill-rule="evenodd" clip-rule="evenodd" d="M76 154v19.5a8.5 8.5 0 0 1-17 0V154h-2v19.5c0 5.799 4.701 10.5 10.5 10.5S78 179.299 78 173.5V154h-2Z" fill="var(--cros-sys-illo-base)"/><path fill-rule="evenodd" clip-rule="evenodd" d="M69.32 167.028a3.7 3.7 0 1 0-3.134.049L65 173.1c-.3 1.1.5 2 1.6 2h2.6c1 0 1.8-1 1.5-2l-1.38-6.072Z" fill="var(--cros-sys-illo-color1)"/><path d="M66.9 213.5c24.08 0 43.6-19.52 43.6-43.6 0-24.08-19.52-43.6-43.6-43.6-24.08 0-43.6 19.52-43.6 43.6 0 24.08 19.52 43.6 43.6 43.6Z" stroke="var(--cros-sys-illo-color3)" stroke-width="2" stroke-miterlimit="10" stroke-linecap="round" stroke-linejoin="round"/><path d="m87.5 122.1-.8-2.6c0-.1-.2-.3-.3-.3l-2.6-.6c-.1 0-.3 0-.4.1l-1.8 2c-.1.1-.1.3-.1.4l.8 2.6c0 .1.2.3.3.3l2.6.6c.1 0 .3 0 .4-.1l1.8-2c.1-.1.2-.2.1-.4Z" fill="var(--cros-sys-illo-color5)"/><path d="M52.148 100.506c3.5-1.4 7.4.2 8.9 3.6v.1c1.4 3.5-.2 7.4-3.6 8.9-3.5 1.4-7.4-.2-8.9-3.6v-.1c-1.5-3.5.2-7.5 3.6-8.9Z" stroke="var(--cros-sys-illo-color4)" stroke-width="2" stroke-miterlimit="10" stroke-linecap="round" stroke-linejoin="round"/><path d="M99.158 68.187c-.336.812-.523 1.649-.652 2.444l-.684 2.643c-.57 2.254-1.975 4.015-3.87 5.34-2.586 1.823-5.662 2.904-6.757 6.195-.832 2.619-.235 5.521 1.622 7.557.083.116.174.182.307.305 3.423 3.362 8.97 2.733 11.731-1.103.789-1.096 1.395-2.324 2.101-3.535 1.206-2.1 3.191-3.664 5.533-4.304l2.616-.748a9.622 9.622 0 0 0 2.45-.673 10.615 10.615 0 0 0 4.398-3.264c3.42-4.137 3.298-10.277-.276-14.275-4.263-4.773-11.564-4.94-16.007-.459-1.176 1.289-1.989 2.534-2.512 3.877Z" stroke="var(--cros-sys-illo-color1-1)" stroke-width="2" stroke-miterlimit="10" stroke-linecap="round" stroke-linejoin="round"/><path d="M98.95 99.234c1.284-7.904-4.082-15.353-11.987-16.638-7.904-1.284-15.353 4.083-16.638 11.987-1.284 7.905 4.083 15.354 11.987 16.638 7.905 1.284 15.354-4.083 16.638-11.987Z" fill="var(--cros-sys-illo-secondary)"/><path fill-rule="evenodd" clip-rule="evenodd" d="M86.242 84.506c-.933 2.936-.275 6.196 1.807 8.502.133.168.3.313.367.372l.02.017c2.949 2.884 7.263 3.152 10.525 1.229a14.42 14.42 0 0 0-.488-2.067c-2.58 1.863-6.234 1.77-8.648-.601a6.3 6.3 0 0 0-.128-.117l-.002-.001-.061-.056-.011-.01a.996.996 0 0 0-.067-.082c-1.608-1.762-2.134-4.287-1.41-6.574a5.591 5.591 0 0 1 1.126-1.951 14.59 14.59 0 0 0-2.11-.537 7.544 7.544 0 0 0-.916 1.864l-.004.012Z" fill="var(--cros-sys-illo-base)"/><path d="M41.882 75.548c1.8-1.1 4.2-.5 5.2 1.4l4.6 7.7c1.1 1.8.5 4.2-1.4 5.2-1.8 1.1-4.2.5-5.2-1.4l-4.6-7.7c-1-1.8-.4-4.1 1.4-5.2Z" fill="var(--cros-sys-illo-secondary)"/><path d="M21.596 99.825c1.741 4.851 5.068 9.141 9.093 12.178 2.098 1.583 4.39 2.641 6.698 3.552 2.169.867 4.828 1.741 7.041 3.091" stroke="var(--cros-sys-illo-color1-2)" stroke-width="2" stroke-miterlimit="10" stroke-linecap="round" stroke-linejoin="round"/></svg>