<svg width="660" height="579" viewBox="0 0 660 579" fill="none" xmlns="http://www.w3.org/2000/svg"><path d="M497.438 279.742l-61.773-5.408 9.237-7.4 17.32-9.962 12.99 1.423 13.278 10.816 8.948 10.531z" fill="#4285F4"/><path d="M469.153 305.113c-1.626.976-4.877 1.952-8.128 2.277-3.252.326-6.503-.325-7.478-1.301M431.113 550.375c-3.576 1.301-11.704-.325-12.029-4.228-.326-2.928.975-5.855 3.251-7.807s4.877-3.253 7.478-4.229c23.409-9.108 45.842-8.782 70.551-5.204" stroke="#4285F4" stroke-width="2" stroke-miterlimit="10" stroke-linecap="round" stroke-linejoin="round"/><path d="M501.015 514.92c-11.705-1.301-23.084-2.928-34.789-2.603-11.704 0-23.733 1.952-34.463 6.506-3.251 1.301-6.502 3.253-8.453 6.18-1.951 2.928-1.951 7.807.976 9.759" stroke="#4285F4" stroke-width="2" stroke-miterlimit="10" stroke-linecap="round" stroke-linejoin="round"/><path d="M423.636 523.377c-.976-2.928-.651-6.18.975-9.108 1.951-3.578 4.877-5.53 6.502-6.505 17.232-9.434 60.473-6.831 60.473-6.831 14.631.975 26.66 1.626 35.764 2.602M499.714 546.147c-28.285-3.904-64.699-6.506-68.926 4.554-.65 1.951-.65 4.554.325 6.83 3.902 8.458 20.808 4.229 46.818 6.506 13.98 1.301 11.704 2.602 25.685 4.229 15.606 1.626 32.837 3.578 50.069-.651M328.7 561.435c-26.986-26.998-37.064-71.887-25.685-114.824 12.029-45.54 47.143-87.501 88.433-108.319M565.559 432.624c4.277 11.326 8.554 22.985 13.16 34.311l-55.271 20.986" stroke="#4285F4" stroke-width="2" stroke-miterlimit="10" stroke-linecap="round" stroke-linejoin="round"/><path d="M521.172 488.572c10.729 26.998 21.459 54.322 32.188 81.32 49.418-9.758 90.059-39.359 100.463-79.043 12.354-46.841-22.759-87.826-60.798-132.39-14.631-16.914-25.685-23.42-35.114-26.998-11.054-4.229-23.734-5.855-32.512-7.156-9.754-1.301-17.882-1.626-23.734-1.952" stroke="#4285F4" stroke-width="2" stroke-miterlimit="10" stroke-linecap="round" stroke-linejoin="round"/><path d="M564.739 431.648c.325 7.481-2.276 13.662-3.902 18.866-.325 1.301-.975 3.578-1.3 6.18-.325 1.952 0 6.181 0 8.132 0 4.88-1.951 7.807-4.552 7.807M492.236 313.571c3.577 6.18 7.478 12.36 11.055 18.866-.326 1.301-4.227 16.589-16.907 20.493a24.23 24.23 0 0 1-9.428.65" stroke="#4285F4" stroke-width="2" stroke-miterlimit="10" stroke-linecap="round" stroke-linejoin="round"/><path d="M533.527 452.14h-16.256c-7.478 0-13.656-6.18-13.656-13.661v-29.926h43.567v29.926c0 7.481-6.177 13.661-13.655 13.661z" stroke="#4285F4" stroke-width="1.905" stroke-miterlimit="10" stroke-linecap="round" stroke-linejoin="round"/><path d="M466.552 322.028c17.058 0 30.886-14.563 30.886-32.528 0-17.965-13.828-32.528-30.886-32.528-17.059 0-30.887 14.563-30.887 32.528 0 17.965 13.828 32.528 30.887 32.528z" stroke="#4285F4" stroke-width="2" stroke-miterlimit="10" stroke-linecap="round" stroke-linejoin="round"/><path d="M511.197 268.461c8.779-1.302 19.508 3.578 26.66-.651 7.478-4.229 8.779-16.264 13.981-22.77 5.202-6.831 16.256-11.059 18.532-19.517 2.276-8.132-5.202-17.239-6.178-26.022-1.3-8.783 3.577-19.517-.65-26.673-4.226-7.482-16.256-8.783-22.758-13.987-6.828-5.205-11.055-16.264-19.508-18.541-8.128-2.277-17.231 5.204-26.01 6.18-8.778 1.301-19.507-3.578-26.66.651-7.478 4.228-8.778 16.264-13.98 22.769-5.202 6.831-16.256 11.06-18.532 19.517-2.276 8.132 5.202 17.24 6.177 26.023 1.301 8.782-3.576 19.517.65 26.673 4.227 7.481 16.257 8.782 22.759 13.987 6.828 5.204 11.054 16.264 19.507 18.541 7.803 2.277 16.907-5.205 26.01-6.18z" fill="#4285F4"/><path d="M161.911 402.047h232.138c2.276 0 4.227 1.952 4.227 3.904l14.63 156.785H172.64l-14.305-156.785c-.325-1.952 1.3-3.904 3.576-3.904z" fill="#2A84FC" stroke="#2A84FC" stroke-width="2" stroke-miterlimit="10" stroke-linecap="round" stroke-linejoin="round"/><path d="M186.621 565.989h268.226" stroke="#2A84FC" stroke-width="3" stroke-miterlimit="10" stroke-linecap="round" stroke-linejoin="round"/><path d="M414.207 366.266c-7.153 11.385-14.306 22.77-21.458 34.48M427.862 325.931c-13.005-13.011-18.857-27.323-17.556-35.78.325-2.928 1.95-7.807 5.202-12.686 2.275-3.578 3.901-4.229 5.201-4.554 2.276-.326 4.877 1.301 6.178 3.252 2.926 4.554-2.276 8.133-.976 15.614.976 5.855 4.877 10.084 9.429 14.638.975.975 2.926 2.927 10.079 8.132 5.202 3.578 8.453 4.879 14.63 9.758 7.803 6.506 14.956 14.638 16.257 24.721 1.625 10.409-1.951 18.541-6.828 28.95-5.852 12.686-13.655 30.577-21.783 53.997" stroke="#4285F4" stroke-width="2" stroke-miterlimit="10" stroke-linecap="round" stroke-linejoin="round"/><path d="M413.882 273.236c-1.301-1.952-4.552-2.602-6.828-1.952-6.503 1.952-7.478 16.59-7.478 19.842-.975 18.867 10.404 35.131 18.532 44.239" stroke="#4285F4" stroke-width="2" stroke-miterlimit="10" stroke-linecap="round" stroke-linejoin="round"/><path d="M401.202 279.091c-1.626-.976-3.577-.976-5.202-.325-4.552 1.951-5.527 7.806-5.852 13.011-.325 18.216 7.152 34.805 18.532 49.442" stroke="#4285F4" stroke-width="2" stroke-miterlimit="10" stroke-linecap="round" stroke-linejoin="round"/><path d="M414.857 365.29c-14.631-14.962-27.636-38.383-30.887-58.875-.325-2.928-.65-5.855 0-8.783.65-1.952 1.951-3.578 3.576-4.879M400.552 418.637c18.207 6.505 36.088 13.336 54.295 19.842l-42.916 93.681" stroke="#4285F4" stroke-width="2" stroke-miterlimit="10" stroke-linecap="round" stroke-linejoin="round"/><path d="M186.621 507.438l-73.478.976c-14.955.325-26.985-11.71-27.31-26.673l-.975-73.513c-.326-14.963 11.704-26.999 26.66-27.324l73.803-.976c14.955-.325 26.985 11.71 27.31 26.673l.975 73.514c0 14.963-12.029 26.998-26.985 27.323z" fill="#fff"/><path d="M117.695 380.579v-11.385c-.325-16.915 13.33-30.902 30.236-30.902 16.907-.325 30.887 13.337 30.887 30.251" stroke="#2A84FC" stroke-width="2" stroke-miterlimit="10" stroke-linecap="round" stroke-linejoin="round"/><path d="M186.621 507.438l-73.478.976c-14.955.325-26.985-11.71-27.31-26.673l-.975-73.513c-.326-14.963 11.704-26.999 26.66-27.324l73.803-.976c14.955-.325 26.985 11.71 27.31 26.673l.975 73.514c0 14.963-12.029 26.998-26.985 27.323z" fill="#D2E3FC"/><path d="M117.695 380.579l.975 80.019c.326 16.914 13.981 30.576 30.887 30.251 16.907-.325 30.562-13.987 30.237-30.902l-.976-80.019" stroke="#fff" stroke-width="2" stroke-miterlimit="10" stroke-linejoin="round"/><path d="M153.783 465.152h-8.453c-3.576 0-6.177-2.928-5.202-6.506l4.227-21.468h9.428l4.877 21.468c.976 3.253-1.625 6.506-4.877 6.506z" fill="#4285F4"/><path d="M148.907 440.105c6.643 0 12.029-5.388 12.029-12.035s-5.386-12.036-12.029-12.036c-6.644 0-12.03 5.389-12.03 12.036 0 6.647 5.386 12.035 12.03 12.035z" fill="#4285F4"/><path d="M145.981 574.121c78.288 0 141.753-63.496 141.753-141.823 0-78.326-63.465-141.822-141.753-141.822-78.289 0-141.754 63.496-141.754 141.822 0 78.327 63.465 141.823 141.754 141.823z" stroke="#FBBC04" stroke-width="2" stroke-miterlimit="10" stroke-linecap="round" stroke-linejoin="round"/><path d="M212.956 276.814l-2.601-8.457c0-.326-.651-.976-.976-.976l-8.453-1.952c-.325 0-.975 0-1.3.325l-5.853 6.506c-.325.325-.325.976-.325 1.301l2.601 8.458c0 .325.65.975.976.975l8.453 1.952c.325 0 .975 0 1.3-.325l5.852-6.506c.326-.325.651-.65.326-1.301z" fill="#5F6368"/><path d="M98.02 206.574c11.379-4.554 24.059.651 28.935 11.71v.326c4.552 11.385-.65 24.07-11.704 28.95-11.379 4.554-24.059-.651-28.936-11.71v-.326c-4.877-11.385.65-24.396 11.704-28.95z" stroke="#FE2C25" stroke-width="2" stroke-miterlimit="10" stroke-linecap="round" stroke-linejoin="round"/><path d="M250.857 101.445c-1.091 2.643-1.698 5.365-2.118 7.951l-2.224 8.598c-1.852 7.33-6.422 13.058-12.581 17.366-8.409 5.933-18.411 9.45-21.969 20.154-2.707 8.519-.766 17.96 5.273 24.582.27.376.566.59.997.992 11.13 10.934 29.165 8.889 38.14-3.589 2.565-3.565 4.537-7.558 6.831-11.499 3.922-6.828 10.374-11.918 17.991-13.998l8.502-2.434c2.711-.389 5.474-1.101 7.967-2.189 5.308-2.124 10.343-5.619 14.298-10.617 11.12-13.456 10.723-33.43-.897-46.435-13.858-15.525-37.596-16.066-52.04-1.49-3.824 4.19-6.467 8.239-8.17 12.608z" stroke="#8AB4F8" stroke-width="2" stroke-miterlimit="10" stroke-linecap="round" stroke-linejoin="round"/><path d="M250.182 202.435c4.176-25.712-13.273-49.942-38.972-54.119-25.699-4.178-49.918 13.279-54.093 38.991-4.175 25.712 13.273 49.942 38.972 54.119 25.7 4.178 49.918-13.279 54.093-38.991z" fill="#E8EAED"/><path fill-rule="evenodd" clip-rule="evenodd" d="M215.048 149.512a22.3 22.3 0 0 0-3.075 6.032l-.004.013c-2.815 8.851-.801 18.668 5.488 25.578.263.35.575.627.853.873.082.072.16.142.234.21 8.892 8.707 21.97 9.511 31.818 3.629a46.135 46.135 0 0 0-.469-2.059c-9.176 5.819-21.596 5.189-29.96-3.008a16.648 16.648 0 0 0-.43-.39c-.22-.196-.329-.293-.46-.475a1.039 1.039 0 0 0-.074-.09c-5.82-6.367-7.703-15.451-5.096-23.655a20.322 20.322 0 0 1 3.269-6.119 46.511 46.511 0 0 0-2.094-.539z" fill="#fff"/></svg>