<svg xmlns="http://www.w3.org/2000/svg" viewBox="0 0 216 216"><g data-name="Layer 2"><g data-name="Two Switches"><rect x="33" y="48.1" width="69.4" height="69.4" rx="17.7" fill="#d2e3fc"/><rect x="117.3" y="48.1" width="69.4" height="69.4" rx="17.7" fill="#d2e3fc"/><circle cx="152" cy="82.8" r="10.6" fill="none" stroke="#2a84fc" stroke-miterlimit="10" stroke-width="6"/><path fill="none" stroke="#2a84fc" stroke-linecap="round" stroke-linejoin="round" stroke-width="6" d="M81.9 82.9H53.4M73.5 70.6L85 82.4 73.3 95"/><rect x="47.5" y="148.1" width="37.6" height="17.31" rx="3.6" fill="#7cb1f2"/><path d="M87.7 168.5H44.9c-2.3 0-4.1-1.4-4.1-3.2v-8.6c0-1.7 1.8-3.1 4.1-3.1l5.2 1.4c14.8 3.3 28.5 1 37.6-1.4a4.9 4.9 0 0 1 2.9.9 3.1 3.1 0 0 1 1.2 2.2v8.6c0 1.8-1.8 3.2-4.1 3.2z" fill="#d2e3fc" stroke="#2a84fc" stroke-linecap="round" stroke-miterlimit="10" stroke-width="2"/><path fill="#4285f4" stroke="#2a84fc" stroke-linecap="round" stroke-miterlimit="10" stroke-width="2" d="M37.7 161.4H95v8.32H37.7z"/><g data-name="Switch"><rect x="135.8" y="148.3" width="37.6" height="17.31" rx="3.6" fill="#7cb1f2"/><path d="M176 168.7h-42.9c-2.2 0-4-1.4-4-3.1V157c0-1.8 1.8-3.2 4-3.2a44.2 44.2 0 0 0 5.2 1.4c14.8 3.3 28.6 1.1 37.7-1.4a5.1 5.1 0 0 1 2.8 1 2.5 2.5 0 0 1 1.2 2.2v8.6c0 1.7-1.8 3.1-4 3.1z" fill="#d2e3fc" stroke="#2a84fc" stroke-linecap="round" stroke-miterlimit="10" stroke-width="2"/><path fill="#4285f4" stroke="#2a84fc" stroke-linecap="round" stroke-miterlimit="10" stroke-width="2" d="M125.9 161.7h57.3v8.32h-57.3z"/></g><path fill="none" stroke="#2a84fc" stroke-linecap="round" stroke-miterlimit="10" stroke-width="2" d="M5.3 172h208.3"/><path fill="none" d="M0 0h216v216H0z"/></g></g></svg>