<svg xmlns="http://www.w3.org/2000/svg" viewBox="0 0 216 216"><g data-name="Layer 2"><g data-name="One Switch"><rect x="74" y="51" width="69.4" height="69.4" rx="17.7" fill="#d2e3fc"/><circle cx="108.7" cy="85.7" r="10.6" fill="none" stroke="#2a84fc" stroke-miterlimit="10" stroke-width="6"/><path fill="none" stroke="#2a84fc" stroke-linecap="round" stroke-miterlimit="10" stroke-width="2" d="M5 174.1h208.3"/><rect x="91.6" y="151.7" width="37.6" height="17.31" rx="3.6" fill="#7cb1f2"/><path d="M131.8 172.1H89c-2.3 0-4.1-1.4-4.1-3.2v-8.6c0-1.7 1.8-3.1 4.1-3.1s3.3 1 5.2 1.4c14.8 3.3 28.5 1 37.6-1.4a4.9 4.9 0 0 1 2.9.9 3.1 3.1 0 0 1 1.2 2.2v8.6c0 1.8-1.8 3.2-4.1 3.2z" fill="#d2e3fc" stroke="#2a84fc" stroke-linecap="round" stroke-miterlimit="10" stroke-width="2"/><path fill="#4285f4" stroke="#2a84fc" stroke-linecap="round" stroke-miterlimit="10" stroke-width="2" d="M81.8 165h57.3v8.32H81.8z"/><path fill="none" d="M0 0h216v216H0z"/></g></g></svg>