<svg width="216" height="216" viewBox="0 0 216 216" fill="none" xmlns="http://www.w3.org/2000/svg"><path d="M137.85 46.05a6.1 6.1 0 0 1 1 8.4l-8.6 11a5.796 5.796 0 0 1-3.937 2.266 5.802 5.802 0 0 1-4.363-1.266 5.893 5.893 0 0 1-2.126-6.228 5.904 5.904 0 0 1 1.026-2.072l8.6-11a6 6 0 0 1 8.4-1.1z" fill="#FBBC04"/><path d="M60.85 67.95c4.5 2.5 9.3 6.3 10.6 11.8 1.9 8-4.8 13.5-2.8 21.2.9 3.5 3.6 7.7 11.3 11.6" stroke="#D2E3FC" stroke-width="2.5" stroke-linecap="round" stroke-linejoin="round"/><path d="m93.072 73.505-5.764 10.979a2.8 2.8 0 0 0 1.178 3.78L99.58 94.09a2.8 2.8 0 0 0 3.78-1.178l5.764-10.979a2.8 2.8 0 0 0-1.177-3.78l-11.094-5.825a2.8 2.8 0 0 0-3.78 1.178z" fill="#D2E3FC"/><path d="M105.35 45.95a8 8 0 1 0 0-16 8 8 0 0 0 0 16z" fill="#EE5FFA"/><path d="M131.083 100.235v-9.8a.7.7 0 0 0-1-.6l-8.5 4.9a.694.694 0 0 0-.34.6.695.695 0 0 0 .34.6l8.5 4.9a.597.597 0 0 0 .735.093.597.597 0 0 0 .265-.693z" fill="#34A853"/><path d="M123.1 163.65H92.7a3.6 3.6 0 0 0-3.6 3.6v10.11a3.6 3.6 0 0 0 3.6 3.6h30.4a3.6 3.6 0 0 0 3.6-3.6v-10.11a3.6 3.6 0 0 0-3.6-3.6z" fill="#8AB4F8"/><path d="M129.4 183.95H86.6c-2.3 0-4.1-1.4-4.1-3.1v-8.6c0-1.7 1.8-3.1 4.1-3.1s3.3 1 5.2 1.4c14.8 3.2 28.5 1 37.6-1.4a4.907 4.907 0 0 1 2.9.9 2.904 2.904 0 0 1 1.2 2.2v8.6c0 1.7-1.9 3.1-4.1 3.1z" fill="#fff"/><path d="M129.4 183.95H86.6c-2.3 0-4.1-1.4-4.1-3.1v-8.6c0-1.7 1.8-3.1 4.1-3.1s3.3 1 5.2 1.4c14.8 3.2 28.5 1 37.6-1.4a4.907 4.907 0 0 1 2.9.9 2.904 2.904 0 0 1 1.2 2.2v8.6c0 1.7-1.9 3.1-4.1 3.1z" fill="#D2E3FC"/><path fill-rule="evenodd" clip-rule="evenodd" d="M134.5 177.73v-5.506l-.001-.026a3.909 3.909 0 0 0-1.614-2.959l-.007-.005a5.905 5.905 0 0 0-3.492-1.084l-.123.002-.118.031c-9.017 2.378-22.545 4.544-37.134 1.39l-.005-.001c-.64-.135-1.136-.337-1.712-.571a32.296 32.296 0 0 0-.583-.233c-.841-.326-1.794-.618-3.111-.618-2.584 0-5.1 1.613-5.1 4.1v5.48h-2.15v7.07h-31.8a1.25 1.25 0 0 0 0 2.5h120.9a1.25 1.25 0 0 0 0-2.5h-31.8v-7.07h-2.15zm-4.971-7.58c-9.183 2.409-22.995 4.608-37.938 1.378-.832-.175-1.54-.465-2.142-.711-.161-.065-.314-.128-.46-.184-.709-.275-1.406-.483-2.389-.483-2.016 0-3.1 1.187-3.1 2.1v5.48h49v-5.451a1.903 1.903 0 0 0-.781-1.415 3.897 3.897 0 0 0-2.19-.714z" fill="#4285F4"/><rect x="89.824" y="112.55" width="36.353" height="36.353" rx="8" fill="#D2E3FC"/><path fill-rule="evenodd" clip-rule="evenodd" d="M100 130.727a8 8 0 0 1 8-8 8 8 0 1 1 0 16 8 8 0 0 1-8-8zm8-4a4 4 0 1 0 0 8 4 4 0 0 0 0-8z" fill="#4285F4"/></svg>