<svg xmlns="http://www.w3.org/2000/svg" viewBox="0 0 216 216"><g data-name="Layer 2"><g data-name="Three Switches"><rect x="8.1" y="50.8" width="59" height="58.97" rx="17.7" fill="#d2e3fc"/><rect x="79.7" y="50.8" width="59" height="58.97" rx="17.7" fill="#d2e3fc"/><circle cx="109.2" cy="80.3" r="9" fill="none" stroke="#2a84fc" stroke-miterlimit="10" stroke-width="6"/><rect x="149" y="50.8" width="59" height="58.97" rx="17.7" fill="#d2e3fc"/><path fill="none" stroke="#2a84fc" stroke-linecap="round" stroke-linejoin="round" stroke-width="6" d="M190 80.3h-24.2m17-10.4l9.9 10c-3.3 3.6-6.6 7.2-10 10.7M26.1 80.3h24.2m-17-10.4l-9.8 10 9.9 10.7"/><rect x="21.8" y="146.7" width="37.6" height="17.31" rx="3.6" fill="#7cb1f2"/><path d="M62 167.1H19.2c-2.3 0-4.1-1.4-4.1-3.1v-8.6c0-1.8 1.8-3.2 4.1-3.2l5.2 1.4c14.8 3.3 28.5 1 37.6-1.4a5.8 5.8 0 0 1 2.9.9 3.1 3.1 0 0 1 1.2 2.3v8.6c0 1.7-1.8 3.1-4.1 3.1z" fill="#d2e3fc" stroke="#2a84fc" stroke-linecap="round" stroke-miterlimit="10" stroke-width="2"/><path fill="#4285f4" stroke="#2a84fc" stroke-linecap="round" stroke-miterlimit="10" stroke-width="2" d="M12 160.1h57.3v8.32H12z"/><g data-name="Switch"><rect x="160.8" y="146.6" width="37.6" height="17.31" rx="3.6" fill="#7cb1f2"/><path d="M201 167h-42.9c-2.2 0-4-1.4-4-3.2v-8.6c0-1.7 1.8-3.1 4-3.1s3.4 1 5.3 1.4c14.8 3.3 28.5 1 37.6-1.4a4.9 4.9 0 0 1 2.9.9 3.1 3.1 0 0 1 1.2 2.2v8.6c0 1.8-1.9 3.2-4.1 3.2z" fill="#d2e3fc" stroke="#2a84fc" stroke-linecap="round" stroke-miterlimit="10" stroke-width="2"/><path fill="#4285f4" stroke="#2a84fc" stroke-linecap="round" stroke-miterlimit="10" stroke-width="2" d="M150.9 159.9h57.3v8.32h-57.3z"/></g><g data-name="Switch"><rect x="91.7" y="147" width="37.6" height="17.31" rx="3.6" fill="#7cb1f2"/><path d="M131.9 167.4H89.1c-2.3 0-4.1-1.4-4.1-3.1v-8.6c0-1.7 1.8-3.1 4.1-3.1l5.2 1.3c14.8 3.3 28.6 1.1 37.6-1.3a4.9 4.9 0 0 1 2.9.9 2.7 2.7 0 0 1 1.2 2.2v8.6c0 1.7-1.8 3.1-4.1 3.1z" fill="#d2e3fc" stroke="#2a84fc" stroke-linecap="round" stroke-miterlimit="10" stroke-width="2"/><path fill="#4285f4" stroke="#2a84fc" stroke-linecap="round" stroke-miterlimit="10" stroke-width="2" d="M81.9 160.4h57.3v8.32H81.9z"/></g><path fill="none" stroke="#2a84fc" stroke-linecap="round" stroke-miterlimit="10" stroke-width="2" d="M4.5 170.2h208.3"/><path fill="none" d="M0 0h216v216H0z"/></g></g></svg>