<svg xmlns="http://www.w3.org/2000/svg" viewBox="0 0 216 216"><defs><clipPath id="a"><path d="M28.8 116.3a67.9 67.9 0 0 0 4.6 25.7c10 25.8 37.3 49.5 70.4 49.3 38.4-.2 75-32.1 75-75a75 75 0 0 0-150 0z" fill="none"/></clipPath></defs><g data-name="Layer 2"><g data-name="Success R2"><path d="M51.8 84.7h0a9.2 9.2 0 0 0-3.6-12.4L29.6 62a9.2 9.2 0 0 0-12.4 3.6h0a9.1 9.1 0 0 0 3.6 12.3l18.6 10.4a9.2 9.2 0 0 0 12.4-3.6z" fill="none" stroke="#fbbc05" stroke-linecap="round" stroke-linejoin="round" stroke-width="2"/><path d="M165.3 73.3a75.1 75.1 0 1 0 13.5 43 75.1 75.1 0 0 0-13.5-43z" fill="#d2e3fc"/><rect x="126.1" y="31.2" width="9.2" height="9.18" rx="1.4" transform="rotate(143.2 130.745 35.83)" fill="#fe2c25"/><path d="M120.1 24.1l2.7-2.7a2.4 2.4 0 0 0 .6-2.3l-1-3.7a2.5 2.5 0 0 0-1.6-1.7l-3.8-1a2.3 2.3 0 0 0-2.2.7l-2.7 2.7a2.3 2.3 0 0 0-.7 2.2l1 3.7a2.4 2.4 0 0 0 1.7 1.7l3.7 1a2.4 2.4 0 0 0 2.3-.6z" fill="#f882ff"/><path d="M133 57.9l-7.4 6.1a1.7 1.7 0 0 1-2.7-1l-1.5-9.5a1.6 1.6 0 0 1 2.2-1.8l9 3.4a1.6 1.6 0 0 1 .4 2.8z" fill="none" stroke="#fff" stroke-linecap="round" stroke-linejoin="round" stroke-width="2"/><g clip-path="url(#a)"><path d="M56.3 86.9h0a9.1 9.1 0 0 0-3.7-12.3L33.8 64.5a9.1 9.1 0 0 0-12.3 3.8h0a9.1 9.1 0 0 0 3.8 12.3L44 90.7a9.2 9.2 0 0 0 12.3-3.8z" fill="none" stroke="#fff" stroke-linecap="round" stroke-linejoin="round" stroke-width="2"/></g><circle cx="99.8" cy="70.7" r="11.3" fill="none" stroke="#4285f4" stroke-linecap="round" stroke-linejoin="round" stroke-width="2"/><path d="M152.9 126.7a49.7 49.7 0 0 0-12.5-22.1c-12.1-12.3-27-14.3-31.5-14.7-.1.6-1.3 4.9-5 6.4s-9.7-.8-12.3-6.4M107.3 69.9a3.7 3.7 0 0 1-5.4 3.2M108.9 89.9l-2.1-9" fill="none" stroke="#4285f4" stroke-linecap="round" stroke-linejoin="round" stroke-width="2"/><path d="M101.4 60.1a18.4 18.4 0 0 1-13.6 12.3l.6-3.5a9.4 9.4 0 0 1 .7-3 8.6 8.6 0 0 1 3.4-4.3 12.8 12.8 0 0 1 5-2 7.4 7.4 0 0 1 3.9.5z" fill="#4285f4"/><circle cx="81.5" cy="57.7" r="11.2" fill="#4285f4"/><path d="M126.9 117.4a28.4 28.4 0 0 0-.8 3.9c-.7 4.7.3 7 .1 11.7a33.3 33.3 0 0 1-1 6.2M89.9 124.1c1.1 5.2 2.1 10.4 3.1 15.6" fill="none" stroke="#4285f4" stroke-linecap="round" stroke-linejoin="round" stroke-width="2"/><path d="M93.6 139.5l31-.5c4 9.7 7.9 19.5 11.9 29.2-30.1 16-63.1 7.4-75.1-13.1-7.6-12.9-8.5-33.5 3-48.6C74 93.9 87.9 90.7 92 89.9l3.6-7.7" fill="none" stroke="#4285f4" stroke-linecap="round" stroke-linejoin="round" stroke-width="2"/><g fill="none" stroke="#2a84fc" stroke-linecap="round" stroke-linejoin="round" stroke-width="2"><path d="M179.5 89.6s.5 2.8 1.1 7.1M161 74.2a12.8 12.8 0 0 0-3.2 3.7c-4.2 7.1 1 16.3 1.5 17.3M176.6 72.9c3.4-1.5 12.1-5.7 14.7-10 .4-.7 1.2-2.1.7-3.1a2.3 2.3 0 0 0-3.1-.8 8.5 8.5 0 0 0-2.7 2.3 28.5 28.5 0 0 1-9.8 6.9 20.5 20.5 0 0 1-5.1 1.6"/><path d="M191.6 62.6a2.4 2.4 0 0 1 4.1-.2c.9 1.5 0 3.4-1.1 4.9-3.7 5.3-9.3 8.5-15.7 10.3"/><path d="M194.7 67.4a2.5 2.5 0 0 1 4.1-.3c.8 1.5-.1 3.3-1.2 4.7-3.7 5.1-9.3 8.2-15.6 10"/><path d="M179.6 89.2c6.7-1.7 14.4-6.1 18.9-11.4a7 7 0 0 0 1.5-2.5 3 3 0 0 0-.7-2.7 2.4 2.4 0 0 0-1.3-.6M161 74.2a41.5 41.5 0 0 0 6-5.6c4.4-4.9 5.9-9.3 8.6-9.1a2.6 2.6 0 0 1 2.2 1.3c1 1.7-.2 4.6-3.3 7.4"/></g><path d="M194.3 96.7l-60.5-.2a4 4 0 0 0-3.6 2.5l-13.7 41.4h66.4l13.3-41.1a1.9 1.9 0 0 0-1.9-2.6z" fill="#2a84fc" stroke="#2a84fc" stroke-linecap="round" stroke-linejoin="round" stroke-width="2.89"/><path fill="none" stroke="#2a84fc" stroke-linecap="round" stroke-linejoin="round" stroke-width="4" d="M182.4 141.1h-72.8"/><path d="M172.9 140.5c1.9-.1 2.9 2 2.6 3.4a5.8 5.8 0 0 1-2.4 3.7c-5.3 4.6-11.4 6.5-18.6 9.6M151.6 153.3c2.7-1.2 5.5-2.3 8.2-3.8a65.2 65.2 0 0 0 9.5-6.3 22.1 22.1 0 0 0 3.2-2.9c1.2-1.3 2.2-3 1.8-4.7a3 3 0 0 0-3.1-2.1 6.1 6.1 0 0 0-2.2 1.2 25.4 25.4 0 0 0-2.6 2.1" fill="#d2e3fc"/><path d="M144.8 141.8c1.7-2 4.8-5.3 6.5-7.2s1.7-2.2.9-3.5a3 3 0 0 0-2.1-1.3 3.6 3.6 0 0 0-2.3.3 19.5 19.5 0 0 0-3.5 1.9c-5 3.1-9.3 5.4-12.8 10h.1c-1.3.7-1.9.4-3.3 1.2l8.6 23.7 6.7-2.9c10.7-3.3 11.3-2.7 22.9-7.6a14.2 14.2 0 0 0 4.8-2.7c1.5-1.6 1.3-4 1.3-5.1-.1-7-6.9-14.5-8.1-15.8z" fill="#d2e3fc"/><path d="M145.1 141.6a55.6 55.6 0 0 0 16.9-10.7 12.9 12.9 0 0 1 4.2-2.8c1.5-.5 3.4-.2 4.1 1.2a3.1 3.1 0 0 1-.2 2.8 10.5 10.5 0 0 1-1.8 2.5c-6.3 7.1-10.9 10.6-19.6 14" fill="#d2e3fc"/><path d="M172.4 149.7c.7 1.8-.2 3.7-1.6 5a13.8 13.8 0 0 1-4.8 2.5c-11.8 4.3-12.5 3.7-23.3 6.4l-6.9 2.5M153.6 156.5c7.3-2.7 13.4-4.3 19-8.6a6.4 6.4 0 0 0 2.6-3.5c.3-1.5-.6-3.6-2.4-3.6M150.8 152.6c2.8-1.2 5.7-2.1 8.4-3.4a74.2 74.2 0 0 0 9.8-5.8 31.7 31.7 0 0 0 3.4-2.8c1.3-1.3 2.3-2.9 2-4.6a2.8 2.8 0 0 0-3-2.2 4.6 4.6 0 0 0-2.3 1 27.1 27.1 0 0 0-2.7 2M144.6 140.7l6.9-6.9c.9-.8 1.8-2.1 1.1-3.4a3.2 3.2 0 0 0-2.1-1.5 4.5 4.5 0 0 0-2.3.3 14.9 14.9 0 0 0-3.6 1.7c-5.1 2.8-9.6 5-13.3 9.3M131.5 140.1l-4.2 2.1" fill="none" stroke="#4285f4" stroke-linecap="round" stroke-linejoin="round" stroke-width="1.83"/><path d="M144.9 140.5a58.2 58.2 0 0 0 17.5-9.8 10.9 10.9 0 0 1 4.2-2.6c1.6-.5 3.5-.1 4.1 1.4a3.1 3.1 0 0 1-.3 2.8 11.2 11.2 0 0 1-1.9 2.4c-6.7 6.7-11.5 10-20.3 13" fill="none" stroke="#4285f4" stroke-linecap="round" stroke-linejoin="round" stroke-width="1.83"/><path d="M164.7 44.5h-.2a1.1 1.1 0 0 1-.8-.3l-7.2-5.6a1.1 1.1 0 0 1-.1-1.5 1 1 0 0 1 1.5-.2l6.3 4.9 8.2-11.2a12.9 12.9 0 0 0-17.5-.3h-.2a13 13 0 0 0 17.2 19.4h.1a13 13 0 0 0 1.9-17.4L165.3 44c-.2.3-.4.5-.6.5z" fill="#34a853"/><path d="M176.8 26.6a1.2 1.2 0 0 0-1.6.3l-2.8 3.8.7.8.8.9 3.1-4.2a1.2 1.2 0 0 0-.2-1.6z" fill="#7cb1f2"/><path d="M161.7 75a11.9 11.9 0 0 0-3 3.4c-3.8 6.6 1 15.3 1.5 16.3a1 1 0 0 1-.3 1.4h-.5a1.1 1.1 0 0 1-.9-.5c-.6-1.1-5.9-10.8-1.5-18.3a15.8 15.8 0 0 1 3.4-4h.1l2.9-2.4a73.5 73.5 0 1 0 1.2 1.6z" fill="none"/><path d="M160.5 73.4h-.1a15.8 15.8 0 0 0-3.4 4c-4.4 7.5.9 17.2 1.5 18.3a1.1 1.1 0 0 0 .9.5h.5a1 1 0 0 0 .3-1.4c-.5-1-5.3-9.7-1.5-16.3a11.9 11.9 0 0 1 3-3.4l2.9-2.4-1.2-1.7-2.9 2.4z" fill="#2a84fc"/><path fill="none" d="M0 0h216v216H0z"/></g></g></svg>