<svg xmlns="http://www.w3.org/2000/svg" viewBox="0 0 216 216"><g data-name="Layer 2"><g data-name="Auto Scan"><g data-name="Auto Scan Pattern - Diagram"><rect x="93.8" y="160.7" width="28.5" height="28.26" rx="4.5" transform="rotate(-49 107.956 174.81)" fill="#39b54a"/><path d="M31 128.6l-11.9-11.9a2.4 2.4 0 0 1-.6-2.2l4.4-16.2a2.2 2.2 0 0 1 1.6-1.6l16.2-4.4a2.4 2.4 0 0 1 2.3.6l11.8 11.9a2.3 2.3 0 0 1 .6 2.2l-4.3 16.2a2.9 2.9 0 0 1-1.7 1.7l-16.2 4.3a2.3 2.3 0 0 1-2.2-.6z" fill="#fbbc05"/><rect x="159.3" y="166.9" width="39.2" height="13.96" rx="7" transform="rotate(-144.2 178.814 173.932)" fill="#2a84fc"/><path d="M105 98.7a14.3 14.3 0 0 0-.9 2.7l-1 3a10.4 10.4 0 0 1-4.9 5.6c-3.1 1.8-6.7 2.6-8.1 6.3a9 9 0 0 0 1.3 8.9l.3.4a8.8 8.8 0 0 0 13.5.2 25.5 25.5 0 0 0 2.6-3.8 10.2 10.2 0 0 1 6.7-4.2l3-.4a13.5 13.5 0 0 0 2.9-.5 12 12 0 0 0 5.3-3.1 12.8 12.8 0 0 0 .7-16.5c-4.5-6-12.9-7.2-18.4-2.6a11.7 11.7 0 0 0-3 4z" fill="#7cb1f2"/><path d="M57.3 175.6a2.1 2.1 0 0 1 .9 2.9 20.5 20.5 0 0 1-36.7-17.7 2 2 0 0 1 2.8-1.1z" fill="none" stroke="#f882ff" stroke-linecap="round" stroke-linejoin="round" stroke-width="3"/><rect x="161.3" y="32.2" width="29.8" height="29.83" rx="1.4" fill="#d2e3fc"/><circle cx="37.8" cy="47.9" r="18.2" fill="#ea4335"/><path d="M125.3 46.5L97.8 30.7a.6.6 0 0 0-1 .6V63a.6.6 0 0 0 1 .6l27.5-15.8a.8.8 0 0 0 0-1.3z" fill="#f882ff"/><path fill="none" d="M0 0h216v216H0z"/><rect x="160.2" y="93.5" width="34.5" height="34.18" rx="17.1" transform="rotate(-26.9 177.52 110.752)" fill="none" stroke="#5ef1f2" stroke-miterlimit="10" stroke-width="3"/></g><circle data-name="Auto Scan Pattern - Select Circle" cx="37.2" cy="110.5" r="28.4" fill="none" stroke="#d2e3fc" stroke-linecap="round" stroke-linejoin="round" stroke-width="3"/></g></g></svg>