<svg width="217" height="216" viewBox="0 0 217 216" fill="none" xmlns="http://www.w3.org/2000/svg"><path d="M164.962 79.312a75.104 75.104 0 0 0-94.711-24.448 75.1 75.1 0 1 0 108.211 67.448 74.812 74.812 0 0 0-13.5-43z" fill="#8AB4F8" fill-opacity=".4"/><path d="m130.747 46.332 5.125-3.834a1.4 1.4 0 0 0 .282-1.96l-3.822-5.108a1.4 1.4 0 0 0-1.959-.283l-5.125 3.834a1.4 1.4 0 0 0-.282 1.96l3.821 5.108a1.4 1.4 0 0 0 1.96.283z" fill="#EA4335"/><path d="m119.762 30.012 2.7-2.7a2.397 2.397 0 0 0 .599-2.3l-1-3.7a2.19 2.19 0 0 0-1.599-1.6l-3.7-1a2.402 2.402 0 0 0-2.3.6l-2.7 2.7a2.204 2.204 0 0 0-.6 2.3l.899 3.7a2.506 2.506 0 0 0 1.701 1.6l3.7 1a2.398 2.398 0 0 0 2.3-.6z" fill="#F882FE"/><path d="m132.762 63.912-7.5 6a1.703 1.703 0 0 1-2.701-1l-1.5-9.5a1.71 1.71 0 0 1 .615-1.494 1.697 1.697 0 0 1 1.586-.306l9 3.4a1.81 1.81 0 0 1 1.002 1.32 1.796 1.796 0 0 1-.502 1.58zM51.61 91.497a9.1 9.1 0 0 0-3.7-12.3l-18.8-10a9.1 9.1 0 0 0-12.3 3.7v0a9.1 9.1 0 0 0 3.8 12.3l18.7 10.1a9.099 9.099 0 0 0 12.3-3.8z" stroke="#323336" stroke-width="2" stroke-linecap="round" stroke-linejoin="round"/><path d="M51.61 91.497a9.1 9.1 0 0 0-3.7-12.3l-18.8-10a9.1 9.1 0 0 0-12.3 3.7v0a9.1 9.1 0 0 0 3.8 12.3l18.7 10.1a9.099 9.099 0 0 0 12.3-3.8z" stroke="#FCC934" stroke-width="2" stroke-linecap="round" stroke-linejoin="round"/><path d="M107.062 75.912a3.995 3.995 0 0 1-1.6 2.8 3.302 3.302 0 0 1-3.8.3m24.9 44.3a28.303 28.303 0 0 0-.8 3.9c-.7 4.7.3 7.1.1 11.7a32.128 32.128 0 0 1-1 6.2m-34.745-15.6c1.1 5.2 2.1 10.4 3.1 15.6" stroke="#669DF6" stroke-width="2" stroke-linecap="round" stroke-linejoin="round"/><path d="M192.494 65.157c-.541-.81-1.251-1.307-2.08-1.459-.794-.146-1.563.049-2.215.345-1.274.58-2.418 1.694-3.095 2.515a26.207 26.207 0 0 1-8.153 6.065 10.465 10.465 0 0 0 1.316-2.19c.626-1.445.785-2.99.056-4.228a3.836 3.836 0 0 0-2.995-1.79c-.987-.072-1.824.292-2.547.858-.7.548-1.344 1.324-1.983 2.177-.369.493-.744 1.023-1.141 1.582-1.021 1.44-2.183 3.078-3.739 4.812a31.907 31.907 0 0 1-5.842 5.458 1 1 0 0 0 1.171 1.62 33.885 33.885 0 0 0 6.171-5.756c1.634-1.821 2.9-3.606 3.934-5.064.378-.533.725-1.022 1.048-1.454.624-.834 1.136-1.426 1.614-1.8.453-.355.814-.466 1.174-.439l.014.001c.56.034 1.101.35 1.405.822.265.463.319 1.265-.176 2.408-.489 1.13-1.458 2.44-2.926 3.718a.997.997 0 0 0-.342.798c-.778.24-1.571.43-2.374.57a.999.999 0 1 0 .345 1.97 21.503 21.503 0 0 0 5.329-1.668 28.204 28.204 0 0 0 10.172-7.182c.586-.715 1.506-1.58 2.392-1.982.434-.198.774-.245 1.026-.199.206.038.461.157.733.538.054.151.06.422-.088.874-.131.403-.327.788-.517 1.162l-.093.183c-1.172 1.866-3.79 3.847-6.693 5.596-2.875 1.732-5.858 3.138-7.537 3.879a1 1 0 0 0 .807 1.83c1.721-.76 4.788-2.204 7.763-3.996 2.789-1.68 6.113-3.787 7.713-6.743.115-.212.282-.39.485-.519a1.425 1.425 0 0 1 1.884.37c.263.493.286 1.065.101 1.729-.194.692-.596 1.409-1.062 2.062-3.631 5.063-9.006 8.16-15.258 9.92a1 1 0 1 0 .541 1.925c6.41-1.803 12.128-5.006 16.09-10.334a.992.992 0 0 0 .287-.299c.527-.841 1.781-.921 2.416-.174.182.361.198.826-.001 1.432-.212.646-.636 1.342-1.149 1.994l-.023.03c-3.525 4.86-8.896 7.864-15.065 9.626a1 1 0 1 0 .549 1.923c6.174-1.763 11.792-4.779 15.66-9.742.246.081.473.216.664.394.485.503.562 1.048.389 1.692-.19.71-.68 1.47-1.253 2.151l-.004.005c-4.233 5.099-11.823 9.304-18.364 10.967a.994.994 0 0 0-.388.188c-.743.59-.152 2.162-.04 2.845.198 1.217.472 2.984.771 5.174a1 1 0 1 0 1.981-.27 202.91 202.91 0 0 0-.947-6.237c6.644-1.88 14.157-6.128 18.524-11.387.646-.767 1.35-1.794 1.651-2.916.318-1.183.188-2.51-.904-3.625l-.019-.018-.006-.006a3.8 3.8 0 0 0-.862-.617c.299-.487.559-1.01.735-1.547.315-.96.394-2.078-.194-3.108a1.028 1.028 0 0 0-.076-.114 3.464 3.464 0 0 0-2.731-1.346l.014-.05c.285-1.02.314-2.186-.304-3.284a.706.706 0 0 0-.043-.07c-.757-1.122-2.1-1.65-3.372-1.448a2.55 2.55 0 0 0-.262-1.04 1.078 1.078 0 0 0-.062-.107z" fill="#1A73E8" fill-opacity=".4"/><path d="M160.662 80.112a14.482 14.482 0 0 0-3.2 3.7c-4.2 7.1 1 16.4 1.5 17.3" stroke="#1A73E8" stroke-opacity=".4" stroke-width="2" stroke-linecap="round" stroke-linejoin="round"/><path d="m134.667 100.112 61.277.202a1.931 1.931 0 0 1 1.691.784 1.927 1.927 0 0 1 .234 1.85l-13.364 41.295a2 2 0 0 1-1.995 1.869h-72.8a2 2 0 0 1 0-4h8.252l13.058-39.367a4.055 4.055 0 0 1 3.647-2.633z" fill="#669DF6"/><path d="M144.231 146.627c1.7-2 5.16-5.042 6.96-7.042 2.761-3.068-.429-5.272-3.729-4.138-7.393 3.242-18.898 11.589-20.332 13.79-1.434 2.201 8.671 22.526 8.671 22.526 11.661-4.69 40.397-7.481 36.461-17.151 0-1.481 2.517-2.394 2.517-5.375-.172-1.189-1.201-2.382-1.295-3.555.861-1.938.632-3.199 0-4.495-.582-1.193-1.837-.899-2.926-1.893-.237-2.415 1.183-5.066-3.084-5.328-4.267-.262-9.133 6.765-11.839 7.684-2.706.918-11.404 4.977-11.404 4.977z" fill="#323336"/><path d="M144.231 146.627c1.7-2 5.16-5.042 6.96-7.042 2.761-3.068-.429-5.272-3.729-4.138-7.393 3.242-18.898 11.589-20.332 13.79-1.434 2.201 8.671 22.526 8.671 22.526 11.661-4.69 40.397-7.481 36.461-17.151 0-1.481 2.517-2.394 2.517-5.375-.172-1.189-1.201-2.382-1.295-3.555.861-1.938.632-3.199 0-4.495-.582-1.193-1.837-.899-2.926-1.893-.237-2.415 1.183-5.066-3.084-5.328-4.267-.262-9.133 6.765-11.839 7.684-2.706.918-11.404 4.977-11.404 4.977z" fill="#8AB4F8" fill-opacity=".4"/><path d="M162.662 137.303a14.469 14.469 0 0 1 3.885-2.419c1.049-.24 2.067.084 2.638.64.283.276.443.594.48.926.037.329-.038.753-.37 1.262l-.022.035a10.297 10.297 0 0 1-1.744 2.204l-.014.014c-6.619 6.618-11.303 9.833-19.949 12.781a.914.914 0 1 0 .591 1.732c7.861-2.68 12.61-5.616 18.241-10.882a.902.902 0 0 0 .321-.159l2.59-1.992c.745-.537 1.672-.797 2.414-.698.36.048.659.177.89.379.227.198.437.508.559 1 .277 1.189-.487 2.565-1.731 3.713l-.015.014-.011.011c-1 .999-2.093 1.899-3.265 2.689l-.013.009a73.26 73.26 0 0 1-9.676 5.727c-1.311.631-2.679 1.169-4.087 1.705l-.712.27c-1.176.445-2.379.9-3.561 1.407a.914.914 0 1 0 .721 1.682c1.143-.49 2.301-.928 3.477-1.373l.725-.275c1.416-.539 2.847-1.101 4.235-1.769l.007-.003a75.2 75.2 0 0 0 9.914-5.867 23.95 23.95 0 0 0 3.072-2.463.901.901 0 0 0 .21.024c.491 0 .9.272 1.195.781.299.516.407 1.171.314 1.689a5.686 5.686 0 0 1-2.228 3.061l-.03.022c-4.493 3.369-9.292 5.079-14.967 7.101-1.224.437-2.49.887-3.802 1.373a.915.915 0 1 0 .635 1.716c1.261-.466 2.493-.905 3.7-1.334 5.07-1.804 9.676-3.442 13.968-6.289a.95.95 0 0 0 .025.181 3.98 3.98 0 0 1-1.293 3.978 12.49 12.49 0 0 1-4.557 2.323 1.048 1.048 0 0 0-.074.023c-8.135 2.965-10.915 3.574-15.475 4.574-2.021.443-4.392.963-7.733 1.798a.848.848 0 0 0-.101.032l-6.9 2.6a.915.915 0 1 0 .645 1.712l6.851-2.581a245.685 245.685 0 0 1 7.568-1.759c4.609-1.011 7.511-1.647 15.736-4.643a14.313 14.313 0 0 0 5.197-2.661l.016-.013a5.817 5.817 0 0 0 1.899-5.815.915.915 0 0 0-.54-.63l.285-.211a7.516 7.516 0 0 0 2.944-4.088.65.65 0 0 0 .019-.076c.195-.977.001-2.103-.518-3-.341-.59-.853-1.122-1.523-1.427.932-1.193 1.619-2.726 1.234-4.362l-.002-.009c-.201-.814-.589-1.47-1.134-1.946-.542-.473-1.191-.725-1.851-.814a4.593 4.593 0 0 0-1.282.018l.157-.257c.519-.803.734-1.64.644-2.446-.09-.808-.478-1.503-1.021-2.033-1.069-1.043-2.781-1.501-4.423-1.091a.849.849 0 0 0-.129.043 16.301 16.301 0 0 0-4.438 2.744 59.867 59.867 0 0 1-13.44 8.217l.319-.313.011-.011c1.267-1.242 2.551-2.501 3.463-3.463.96-1.013 1.551-2.358 1.389-3.63a2.918 2.918 0 0 0-.883-1.764c-.511-.485-1.197-.797-2.015-.937a5.423 5.423 0 0 0-2.766.241l-.009.004a24.642 24.642 0 0 0-3.736 1.763c-5.111 2.907-12.85 7.648-18.223 12.019a.915.915 0 1 0 1.155 1.419c5.252-4.272 12.887-8.955 17.976-11.849l.006-.004a22.808 22.808 0 0 1 3.456-1.632 3.588 3.588 0 0 1 1.828-.158l.004.001c.543.092.87.276 1.062.459.187.178.295.4.33.67.073.572-.197 1.395-.903 2.14-.885.934-2.146 2.171-3.426 3.426l-.011.01c-1.267 1.242-2.551 2.501-3.463 3.464a.915.915 0 0 0 1.1 1.434.938.938 0 0 0 .177-.045 61.739 61.739 0 0 0 17.788-10.069z" fill="#669DF6"/><path fill-rule="evenodd" clip-rule="evenodd" d="M87.826 72.614a11.15 11.15 0 0 1-6.664 2.198c-6.186 0-11.2-5.014-11.2-11.2 0-6.186 5.014-11.2 11.2-11.2 6.185 0 11.2 5.014 11.2 11.2 0 1.16-.177 2.279-.504 3.33a12.248 12.248 0 0 1 7.604-2.63c6.793 0 12.3 5.507 12.3 12.3a12.27 12.27 0 0 1-4.3 9.342l2.018 9.033c5.22.55 19.544 2.884 31.295 14.924a50.004 50.004 0 0 1 12.754 22.448.999.999 0 1 1-1.935.506 47.991 47.991 0 0 0-12.245-21.551l-.003-.004c-11.21-11.488-24.887-13.778-29.989-14.325a13.615 13.615 0 0 1-1.073 2.288c-.851 1.432-2.228 3.064-4.369 3.874-2.163.819-4.872.554-7.337-.591a12.905 12.905 0 0 1-5.82-5.438c-5.013 1.087-17.254 4.55-25.901 15.9-11.226 14.74-10.352 34.895-2.934 47.486l.002.003c11.556 19.742 43.434 28.482 72.969 13.24l-11.301-27.824-30.315.489a1 1 0 0 1-.032-2l30.999-.5a1 1 0 0 1 .943.624l11.9 29.3a1 1 0 0 1-.457 1.259c-30.443 16.182-64.092 7.502-76.432-13.577-7.781-13.209-8.706-34.253 3.067-49.712 9.293-12.197 22.5-15.688 27.43-16.72a1.008 1.008 0 0 1 .31-.141l3.305-7.16c-4.22-1.95-7.15-6.22-7.15-11.173 0-1.4.234-2.744.665-3.998zm1.394 5.102c.551 5.17 4.926 9.196 10.242 9.196 5.688 0 10.3-4.612 10.3-10.3 0-5.18-3.824-9.467-8.802-10.192a18.104 18.104 0 0 1-5.046 7.634c-2.096 1.88-4.11 2.984-6.694 3.662zm8.2 23.026a10.901 10.901 0 0 1-4.832-4.45l3.582-7.761.024-.058a12.31 12.31 0 0 0 3.268.439c2.275 0 4.405-.618 6.233-1.695l1.931 8.647a11.758 11.758 0 0 1-1.062 2.387c-.723 1.218-1.797 2.436-3.356 3.026-1.537.581-3.678.446-5.788-.535z" fill="#669DF6"/><path d="M160.099 79.165a14.476 14.476 0 0 0-3.569 4c-4.487 7.6.917 17.3 1.529 18.3a.916.916 0 0 0 .379.391c.894.487 1.926-.327 1.457-1.291-.612-.9-5.507-9.7-1.632-16.2a12.476 12.476 0 0 1 3.06-3.5l2.957-2.4-1.224-1.6-2.957 2.3z" fill="#669DF6"/><path d="m33.97 93.55 4.865 2.627.008.004a10.1 10.1 0 0 0 13.65-4.215 10.1 10.1 0 0 0-4.108-13.649l-4.23-2.25c-.415.533-.823 1.07-1.224 1.615l4.504 2.395.003.002a8.1 8.1 0 0 1 3.29 10.947l-.002.005a8.101 8.101 0 0 1-10.945 3.384l-5.018-2.71a76.35 76.35 0 0 0-.792 1.845z" fill="#323336"/><path d="M166.114 49.216h-.139a.761.761 0 0 1-.763-.208l-6.656-5.2a1.042 1.042 0 0 1 .477-1.862 1.04 1.04 0 0 1 .771.198l5.824 4.645 7.696-10.469a12.064 12.064 0 0 0-16.362-.277l-.139.138a12.07 12.07 0 0 0-3.734 13.142 12.054 12.054 0 0 0 6.26 7.046 12.064 12.064 0 0 0 13.49-2.161l.139-.139a11.994 11.994 0 0 0 1.733-16.154L166.668 48.8a1.11 1.11 0 0 1-.554.416z" fill="#5BB974"/><path d="M177.415 32.507a1.11 1.11 0 0 0-1.456.208l-2.635 3.605.694.763.693.831 2.912-3.951a1.112 1.112 0 0 0-.208-1.456z" fill="#1A73E8" fill-opacity=".4"/></svg>