<svg width="320" height="165" viewBox="0 0 320 165" fill="none" xmlns="http://www.w3.org/2000/svg">
<path d="M236.183 68.9138C234.215 57.4586 229.726 46.8652 223.307 37.7249M233.317 106.667C227.476 124.104 215.589 138.769 200.145 148.172M83.3613 71.91C84.9576 59.7841 89.3645 48.5438 95.9061 38.8647M92.8654 120.449C106.188 143.721 131.263 159.401 159.999 159.401C167.221 159.401 174.211 158.41 180.842 156.558M202.226 17.3352C190.087 9.40425 175.582 4.79395 159.999 4.79395C140.296 4.79395 122.314 12.1658 108.661 24.3018" stroke="#E8EAED" stroke-width="2.397" stroke-linecap="round"/>
<path d="M221.123 161.343C237.31 148.839 249.56 131.486 255.697 111.46M98.8757 161.343C86.8801 152.077 77.0465 140.148 70.2606 126.441M221.123 2.85181C235.172 13.7039 246.255 28.2087 252.95 44.9433M98.8757 2.85181C84.8269 13.7039 73.7435 28.2087 67.0483 44.9433" stroke="#E8EAED" stroke-width="2.397" stroke-linecap="round"/>
<rect x="-1.45732" y="0.865465" width="70.4452" height="49.0211" rx="3.59551" transform="matrix(-0.969037 -0.246915 -0.246915 0.969037 314.373 64.3943)" fill="#F8F9FA" stroke="#9AA0A6" stroke-width="2.397"/>
<path d="M312.109 118.747L224.913 96.5288V96.5288C224.475 98.2487 225.514 99.9982 227.234 100.436L308.201 121.067C309.921 121.505 311.671 120.466 312.109 118.747V118.747Z" fill="#9AA0A6"/>
<circle cx="0.846126" cy="0.846126" r="0.846126" transform="matrix(-0.969037 -0.246915 -0.246915 0.969037 281.964 58.8623)" fill="#BDC1C6"/>
<rect x="38.6281" y="57.1662" width="33.5581" height="69.5131" rx="3.59551" transform="rotate(-15.4688 38.6281 57.1662)" fill="#F8F9FA" stroke="#9AA0A6" stroke-width="2.397"/>
<circle cx="43.1614" cy="60.1497" r="1.18629" transform="rotate(-15.4688 43.1614 60.1497)" fill="#BDC1C6"/>
<rect width="14.2354" height="2.37257" rx="1.18629" transform="matrix(-0.963776 0.266714 0.266714 0.963776 78.4175 111.933)" fill="#BDC1C6"/>
<rect width="9.58801" height="9.58801" rx="2.397" transform="matrix(-0.779502 -0.6264 -0.6264 0.779502 108.123 29.9385)" fill="#34A853"/>
<circle cx="191.161" cy="153.408" r="3.59551" fill="#EA4335"/>
<circle cx="209.927" cy="22.9607" r="3.59551" transform="rotate(3.0994 209.927 22.9607)" fill="#4285F4"/>
<circle cx="217.897" cy="30.1411" r="3.59551" transform="rotate(3.0994 217.897 30.1411)" fill="#4285F4"/>
<rect x="55.7397" y="73.6389" width="9.58801" height="16.779" rx="4.79401" transform="rotate(-0.827347 55.7397 73.6389)" fill="#4285F4"/>
<circle cx="61.5236" cy="99.8276" r="3.59551" transform="rotate(-4.54839 61.5236 99.8276)" fill="#FBBC04"/>
<circle cx="61.5236" cy="64.3711" r="3.59551" transform="rotate(-4.54839 61.5236 64.3711)" fill="#34A853"/>
<rect x="254.745" y="68.5276" width="9.58801" height="16.779" rx="4.79401" transform="rotate(-2.45422 254.745 68.5276)" fill="#FBBC04"/>
<circle cx="257.319" cy="59.6286" r="3.59551" transform="rotate(13.0153 257.319 59.6286)" fill="#EA4335"/>
<circle cx="259.058" cy="93.7792" r="3.59551" transform="rotate(13.0153 259.058 93.7792)" fill="#E8EAED"/>
</svg>
