<svg xmlns="http://www.w3.org/2000/svg" width="250" height="121" fill="none" viewBox="0 0 250 121"><rect width="28" height="8" x="52" y="24" fill="#D3E3FD" opacity=".3" rx="2"/><rect width="28" height="8" x="52" y="37" fill="#D3E3FD" rx="2"/><rect width="44" height="8" x="106" y="24" fill="#D3E3FD" opacity=".3" rx="2"/><rect width="61" height="8" fill="#D3E3FD" rx="2" transform="matrix(-1 0 0 1 198 37)"/><rect width="27" height="8" x="154" y="24" fill="#D3E3FD" opacity=".3" rx="2"/><rect width="27" height="8" fill="#D3E3FD" rx="2" transform="matrix(-1 0 0 1 133 37)"/><rect width="8" height="8" x="94" y="24" fill="#6DD58C" opacity=".3" rx="2"/><rect width="8" height="8" x="94" y="37" fill="#1EA446" rx="2"/><rect width="28" height="8" x="52" y="50" fill="#D3E3FD" rx="2"/><rect width="28" height="8" x="52" y="76" fill="#D3E3FD" rx="2"/><rect width="28" height="8" x="52" y="63" fill="#D3E3FD" rx="2"/><rect width="28" height="8" x="52" y="89" fill="#D3E3FD" opacity=".3" rx="2"/><rect width="44" height="8" x="106" y="50" fill="#D3E3FD" rx="2"/><rect width="44" height="8" x="106" y="76" fill="#D3E3FD" rx="2"/><rect width="61" height="8" fill="#D3E3FD" rx="2" transform="matrix(-1 0 0 1 198 63)"/><rect width="61" height="8" fill="#D3E3FD" opacity=".3" rx="2" transform="matrix(-1 0 0 1 198 89)"/><rect width="27" height="8" x="154" y="50" fill="#D3E3FD" rx="2"/><rect width="27" height="8" x="154" y="76" fill="#D3E3FD" rx="2"/><rect width="27" height="8" fill="#D3E3FD" rx="2" transform="matrix(-1 0 0 1 133 63)"/><rect width="27" height="8" fill="#D3E3FD" opacity=".3" rx="2" transform="matrix(-1 0 0 1 133 89)"/><rect width="8" height="8" x="94" y="50" fill="#A8C7FA" rx="2"/><rect width="8" height="8" x="94" y="76" fill="#A8C7FA" rx="2"/><rect width="8" height="8" x="94" y="63" fill="#6DD58C" rx="2"/><rect width="8" height="8" x="94" y="89" fill="#1EA446" opacity=".3" rx="2"/><g filter="url(#a)"><path fill="url(#b)" fill-opacity=".4" d="M18.22 24.892C13.087 13.08 25.078 1.088 36.891 6.22l1.954.849a14.194 14.194 0 0 0 11.308 0l1.954-.849C63.92 1.09 75.912 13.08 70.78 24.892l-.849 1.954a14.194 14.194 0 0 0 0 11.308l.849 1.954c5.13 11.813-6.86 23.804-18.674 18.673l-1.953-.849a14.194 14.194 0 0 0-11.308 0l-1.954.849C25.08 63.91 13.088 51.92 18.22 40.108l.849-1.954a14.194 14.194 0 0 0 0-11.308l-.849-1.954Z"/></g><g filter="url(#c)"><path fill="url(#d)" fill-opacity=".4" d="M192.214 55.248a9.777 9.777 0 0 1 11.572 0l2.762 2.027a9.776 9.776 0 0 0 4.305 1.783l3.386.52a9.776 9.776 0 0 1 8.183 8.183l.52 3.386a9.763 9.763 0 0 0 1.783 4.305l2.027 2.762a9.777 9.777 0 0 1 0 11.572l-2.027 2.762a9.763 9.763 0 0 0-1.783 4.305l-.52 3.386a9.775 9.775 0 0 1-8.183 8.183l-3.386.52a9.761 9.761 0 0 0-4.305 1.783l-2.762 2.027a9.777 9.777 0 0 1-11.572 0l-2.762-2.027a9.761 9.761 0 0 0-4.305-1.783l-3.386-.52a9.775 9.775 0 0 1-8.183-8.183l-.52-3.386a9.763 9.763 0 0 0-1.783-4.305l-2.027-2.762a9.777 9.777 0 0 1 0-11.572l2.027-2.762a9.763 9.763 0 0 0 1.783-4.305l.52-3.386a9.776 9.776 0 0 1 8.183-8.183l3.386-.52a9.774 9.774 0 0 0 4.305-1.783l2.762-2.027Z"/></g><mask id="e" fill="#fff"><path fill-rule="evenodd" d="M213.394 93.57c4.008-2.82 6.475-6.667 6.475-10.907 0-8.65-10.268-15.663-22.935-15.663C184.268 67 174 74.012 174 82.663c0 8.65 10.268 15.662 22.934 15.662 2.252 0 4.427-.221 6.483-.634.938.71 1.974 1.394 3.114 2.019 8.678 3.572 14.469-1.463 14.469-1.463s-3.978-1.818-7.606-4.677Z" clip-rule="evenodd"/></mask><path fill="#0B57D0" d="m213.394 93.57-1.151-1.636-2.195 1.545 2.108 1.661 1.238-1.57Zm-9.977 4.12 1.207-1.594-.718-.543-.883.177.394 1.96Zm3.114 2.02-.962 1.753.098.054.102.042.762-1.85ZM221 98.247l1.312 1.51 2.344-2.038-2.825-1.291-.831 1.819Zm-3.131-15.584c0 3.403-1.978 6.704-5.626 9.27l2.302 3.272c4.367-3.073 7.324-7.466 7.324-12.542h-4ZM196.934 69c5.984 0 11.313 1.66 15.09 4.24 3.786 2.585 5.845 5.952 5.845 9.423h4c0-5.18-3.076-9.644-7.589-12.727-4.524-3.09-10.663-4.936-17.346-4.936v4ZM176 82.663c0-3.471 2.059-6.838 5.845-9.424 3.777-2.58 9.106-4.239 15.089-4.239v-4c-6.682 0-12.821 1.846-17.345 4.936-4.513 3.082-7.589 7.547-7.589 12.727h4Zm20.934 13.662c-5.983 0-11.312-1.66-15.089-4.239C178.059 89.5 176 86.133 176 82.663h-4c0 5.179 3.076 9.644 7.589 12.726 4.524 3.09 10.663 4.936 17.345 4.936v-4Zm6.089-.595a30.968 30.968 0 0 1-6.089.595v4c2.382 0 4.69-.234 6.876-.673l-.787-3.922Zm-.814 3.555a27.288 27.288 0 0 0 3.36 2.178l1.923-3.507a23.317 23.317 0 0 1-2.868-1.86l-2.415 3.19Zm3.56 2.274c4.834 1.99 8.943 1.599 11.861.663a15.556 15.556 0 0 0 3.375-1.539c.396-.243.706-.46.925-.623.109-.082.196-.15.26-.202l.079-.065.026-.022.01-.008.004-.004.002-.001c0-.001.001-.002-1.311-1.511l-1.311-1.51.002-.002.002-.002.004-.003c.001-.002.002-.002.001 0-.002 0-.01.007-.022.017-.026.02-.071.057-.137.106a8.555 8.555 0 0 1-.625.42 11.64 11.64 0 0 1-2.505 1.14c-2.147.689-5.273 1.03-9.117-.553l-1.523 3.699ZM221 98.247l.832-1.82v.001l-.005-.002a1.125 1.125 0 0 0-.027-.013l-.117-.055a41.201 41.201 0 0 1-2.147-1.122c-1.393-.78-3.199-1.893-4.904-3.237l-2.476 3.141c1.923 1.516 3.92 2.742 5.423 3.585a45.273 45.273 0 0 0 2.382 1.243l.148.07.041.019a.066.066 0 0 0 .012.006l.004.002h.002v.001l.832-1.82Z" mask="url(#e)"/><circle cx="48.77" cy="35.627" r="15" stroke="#0B57D0" stroke-width="2" transform="rotate(45 48.77 35.627)"/><path stroke="url(#f)" stroke-width="1.833" d="M55.9 42.757c-3.938 3.938-10.323 3.938-14.26 0-3.938-3.938-3.938-10.322 0-14.26 3.937-3.938 10.322-3.938 14.26 0 3.937 3.938 3.937 10.322 0 14.26Z"/><path stroke="#0B57D0" stroke-width="2" d="M33.92 49.063a1 1 0 0 1 1.414 1.414L24.727 61.084l-1.414-1.415L33.92 49.063Z"/><path stroke="#0B57D0" d="m37.455 46.234.707.707-3.535 3.536-.707-.707z"/><defs><linearGradient id="b" x1="40.333" x2="41.167" y1="10.417" y2="52.917" gradientUnits="userSpaceOnUse"><stop stop-color="#A8C7FA"/><stop offset="1" stop-color="#6DD58C"/></linearGradient><linearGradient id="d" x1="193" x2="194" y1="57.5" y2="108.5" gradientUnits="userSpaceOnUse"><stop stop-color="#A8C7FA"/><stop offset="1" stop-color="#6DD58C"/></linearGradient><linearGradient id="f" x1="56.548" x2="40.991" y1="27.849" y2="43.405" gradientUnits="userSpaceOnUse"><stop stop-color="#fff"/><stop offset="1" stop-color="#fff" stop-opacity="0"/></linearGradient><filter id="a" width="63" height="63" x="13" y="1" color-interpolation-filters="sRGB" filterUnits="userSpaceOnUse"><feFlood flood-opacity="0" result="BackgroundImageFix"/><feGaussianBlur in="BackgroundImageFix" stdDeviation="2"/><feComposite in2="SourceAlpha" operator="in" result="effect1_backgroundBlur_443_21604"/><feBlend in="SourceGraphic" in2="effect1_backgroundBlur_443_21604" result="shape"/></filter><filter id="c" width="69.297" height="69.297" x="163.352" y="49.352" color-interpolation-filters="sRGB" filterUnits="userSpaceOnUse"><feFlood flood-opacity="0" result="BackgroundImageFix"/><feGaussianBlur in="BackgroundImageFix" stdDeviation="2"/><feComposite in2="SourceAlpha" operator="in" result="effect1_backgroundBlur_443_21604"/><feBlend in="SourceGraphic" in2="effect1_backgroundBlur_443_21604" result="shape"/></filter></defs></svg>