<svg width="24" height="24" fill="none" xmlns="http://www.w3.org/2000/svg"><path fill-rule="evenodd" clip-rule="evenodd" d="M2.104 2.099.69 3.513l1.482 1.482A3.005 3.005 0 0 0 2 6a2.996 2.996 0 0 0 4.003 2.826l2.818 2.818A3.999 3.999 0 0 0 11 19h5.177l.005.004 1.827 1.828 2.48 2.48 1.414-1.414-19.799-19.8Zm8.2 11.027A2.008 2.008 0 0 0 9 15c0 1.1.9 2 2 2h3.177l-3.874-3.874Z" fill="#455A64"/><path d="M15 9c0 .852-.54 1.584-1.295 1.871l1.48 1.48A3.999 3.999 0 0 0 13 5H7.834l2 2H13c1.1 0 2 .9 2 2ZM21.831 18.997l-3.825-3.825A2.996 2.996 0 0 1 22 18c0 .35-.06.685-.169.997Z" fill="#455A64"/></svg>
