<svg width="1189" height="444" xmlns="http://www.w3.org/2000/svg" xmlns:xlink="http://www.w3.org/1999/xlink"><defs><path id="a" d="M0 127h169V0H0v127z"/><path id="c" d="M101 0H0v211h101z"/><path id="f" d="M0 256h403V16H0z"/><filter x="-2.6%" y="-3.1%" width="105.2%" height="108.8%" filterUnits="objectBoundingBox" id="e"><feOffset dy="3" in="SourceAlpha" result="shadowOffsetOuter1"/><feGaussianBlur stdDeviation="3" in="shadowOffsetOuter1" result="shadowBlurOuter1"/><feColorMatrix values="0 0 0 0 0 0 0 0 0 0 0 0 0 0 0 0 0 0 0.06 0" in="shadowBlurOuter1"/></filter><path id="g" d="M0 215h388V0H0z"/><path id="j" d="M.01.896h115v172H.01z"/><filter x="-9.6%" y="-4.1%" width="119.1%" height="112.8%" filterUnits="objectBoundingBox" id="i"><feOffset dy="4" in="SourceAlpha" result="shadowOffsetOuter1"/><feGaussianBlur stdDeviation="3" in="shadowOffsetOuter1" result="shadowBlurOuter1"/><feColorMatrix values="0 0 0 0 0 0 0 0 0 0 0 0 0 0 0 0 0 0 0.241649683 0" in="shadowBlurOuter1"/></filter><path id="k" d="M0 1h103v153H0z"/></defs><g fill="none" fill-rule="evenodd"><g transform="translate(93 296)"><mask id="b" fill="#fff"><use xlink:href="#a"/></mask><path d="M84.865 0H0c0 88.164 47.14 127 47.14 127h74.72S169 88.164 169 0H84.865z" fill="#E4EAEE" mask="url(#b)"/></g><g transform="translate(79 32)"><mask id="d" fill="#fff"><use xlink:href="#c"/></mask><path d="M99.233 210.415S121.44 96.44 8.393 0c0 0-27.026 84.53 15.915 152.732 42.94 68.204 74.925 57.683 74.925 57.683" fill="#E4EAEE" mask="url(#d)"/></g><path d="M201.538 185.694c2.632-4.527 48.842-20.348 55.46-113.145.393-5.53-47.993 30.452-74.356 118.722C156.277 279.543 176.244 305 176.244 305h9.535s-25.873-47.705 15.759-119.306M153 257.713s-16.798-26.77-53.804-32.9c-37.004-6.13-51.986 23.98-45.869 37.877C61.68 281.662 153 257.713 153 257.713" fill="#E4EAEE"/><path d="M207.277 248.763c-9.453 5.769-22.277 2.069-22.277 2.069s2.504-13.052 11.957-18.82c9.453-5.768 19.426-6.694 22.277-2.068 2.85 4.626-2.503 13.051-11.957 18.82" fill="#E4EAEE"/><path d="M139.615 252s30.431 7.813 36.385 34.745L173.126 292s-2.418-21.677-40.126-38.099l6.615-1.901z" fill="#EAEAEA"/><path fill="#FFF" d="M318.164 0v389.346H263V422h662v-32.654h-55.192V0z"/><path fill="#C2D4F4" d="M332 388h520V24H332z"/><path fill="#4A4A4A" opacity=".113" d="M332 388h520v-31H332z"/><path fill="#FFF" opacity=".438" d="M577 203h245V57H577z"/><g transform="translate(374 78)"><use fill="#000" filter="url(#e)" xlink:href="#f"/><use fill="#FFF" xlink:href="#f"/></g><path fill="#FFF" d="M384 95h82l-9.787-17h-62.426z"/><path fill="#FFF" opacity=".78" d="M455 95h82l-9.787-17h-62.426z"/><g transform="translate(381 112)"><mask id="h" fill="#fff"><use xlink:href="#g"/></mask><use fill="#F8F8F8" xlink:href="#g"/><ellipse fill="#FBE8B0" mask="url(#h)" cx="538" cy="289" rx="344" ry="276"/></g><path fill="#E4EAEE" d="M0 423h1189v21H0z"/><g transform="translate(885 112)"><rect fill="#FFF" x="59" width="164" height="310" rx="22.68"/><path fill="#C2D4F4" d="M71 15h139v270H71z"/><path fill="#4A4A4A" opacity=".113" d="M71 15h139v8H71zm0 254h139v16H71z"/><path fill="#FFF" opacity=".78" d="M91 65h104v127H91z"/><path fill="#B8CEF6" d="M95 74h94v115H95z"/><g transform="rotate(-6 574.13 21.522)"><use fill="#000" filter="url(#i)" xlink:href="#j"/><use fill="#FFF" xlink:href="#j"/></g><g transform="rotate(-6 688.693 -39.441)"><mask id="l" fill="#fff"><use xlink:href="#k"/></mask><use fill="#FBE8B0" xlink:href="#k"/><path fill="#FFF" opacity=".4" mask="url(#l)" d="M-7.106 59.039h117v116h-117z"/><circle fill="#FF9962" mask="url(#l)" cx="86.669" cy="58.868" r="7.5"/></g><path fill="#4A4A4A" opacity=".258" d="M79 32h8v8h-8z"/><rect fill="#4A4A4A" opacity=".258" x="183" y="32" width="8" height="8" rx="4"/><rect fill="#4A4A4A" opacity=".258" x="197" y="32" width="8" height="8" rx="4"/></g></g></svg>