<svg width="300" height="162" viewBox="0 0 300 162" fill="none" xmlns="http://www.w3.org/2000/svg">
<rect x="220.693" y="96.8115" width="63" height="46.5" rx="23.25" transform="rotate(13.447 220.693 96.8115)" fill="#D2E3FC"/>
<rect x="42" y="115.945" width="42" height="31.5" rx="15.75" transform="rotate(-12.5657 42 115.945)" fill="#D2E3FC"/>
<rect x="214.385" y="86.9921" width="52.481" height="38.0559" rx="4.5" transform="rotate(13.1128 214.385 86.9921)" fill="#D2E3FC" stroke="#1B6EF3" stroke-width="3"/>
<path d="M198.043 126.079L262.884 141.183V141.183C262.467 142.974 260.677 144.087 258.887 143.67L200.53 130.076C198.739 129.659 197.626 127.87 198.043 126.079V126.079Z" fill="#1A73E8"/>
<mask id="mask0_27482_22475" style="mask-type:alpha" maskUnits="userSpaceOnUse" x="205" y="86" width="62" height="51">
<rect x="213.264" y="85.1909" width="55.481" height="41.0559" rx="6" transform="rotate(13.1128 213.264 85.1909)" fill="#D2E3FC"/>
</mask>
<g mask="url(#mask0_27482_22475)">
<path d="M263.289 118.859L208.025 118.14C201.315 118.053 199.544 127.368 205.818 129.749L258.998 149.93C262.673 151.324 266.674 148.868 267.093 144.959L269.177 125.497C269.554 121.982 266.825 118.905 263.289 118.859Z" fill="black"/>
</g>
<rect x="214.385" y="86.9921" width="52.481" height="38.0559" rx="4.5" transform="rotate(13.1128 214.385 86.9921)" fill="#D2E3FC" stroke="#1B6EF3" stroke-width="3"/>
<mask id="mask1_27482_22475" style="mask-type:alpha" maskUnits="userSpaceOnUse" x="205" y="86" width="62" height="51">
<rect x="213.264" y="85.1909" width="55.481" height="41.0559" rx="6" transform="rotate(13.1128 213.264 85.1909)" fill="#D2E3FC"/>
</mask>
<g mask="url(#mask1_27482_22475)">
<path d="M263.289 118.859L208.025 118.14C201.315 118.053 199.544 127.368 205.818 129.749L258.998 149.93C262.673 151.324 266.674 148.868 267.093 144.959L269.177 125.497C269.554 121.982 266.825 118.905 263.289 118.859Z" fill="#AECBFA"/>
</g>
<rect x="214.385" y="86.9921" width="52.481" height="38.0559" rx="4.5" transform="rotate(13.1128 214.385 86.9921)" stroke="#1B6EF3" stroke-width="3"/>
<rect x="51.6421" y="90.0936" width="22.2091" height="43.5525" rx="4.5" transform="rotate(-12.5156 51.6421 90.0936)" fill="#D2E3FC" stroke="#1B6EF3" stroke-width="3"/>
<mask id="mask2_27482_22475" style="mask-type:alpha" maskUnits="userSpaceOnUse" x="54" y="87" width="27" height="44">
<rect x="53.4315" y="91.2329" width="19.2091" height="40.5525" rx="3" transform="rotate(-12.5156 53.4315 91.2329)" fill="#D2E3FC"/>
</mask>
<g mask="url(#mask2_27482_22475)">
<path d="M85.9905 117.899L54.7141 114.354C50.9659 113.93 47.7601 117.028 48.0571 120.789L49.684 141.389C49.981 145.149 53.6334 147.706 57.2685 146.698L87.6008 138.289C90.3694 137.521 92.2053 134.899 91.9791 132.034L91.2962 123.388C91.07 120.524 88.8452 118.222 85.9905 117.899Z" fill="#AECBFA"/>
</g>
<path d="M130.835 54.4535L124.985 35.8294C124.797 35.2327 124.849 34.656 125.139 34.0995C125.443 33.5177 125.893 33.1331 126.49 32.9456L138.271 29.245C138.868 29.0576 139.447 29.1187 140.01 29.4284C140.586 29.7128 140.967 30.1534 141.155 30.7501L147.005 49.3742L137.831 48.4489L130.835 54.4535ZM131.986 50.4436L137.079 46.0523L143.767 46.743L138.96 31.4395L127.179 35.1401L131.986 50.4436ZM127.179 35.1401L138.96 31.4395L133.07 33.2898L127.179 35.1401Z" fill="#1B6EF3"/>
<path d="M158.072 45.6289L162.558 44.2342L165.885 47.5724L165.943 42.8815L170.08 40.7471L165.683 39.2345L164.918 34.5917L162.103 38.3272L157.505 37.6378L160.188 41.4417L158.072 45.6289ZM153.584 49.4534L157.517 41.6604L152.468 34.5355L161.115 35.873L166.314 28.8886L167.7 37.4849L175.987 40.2923L168.218 44.2797L168.107 53.0082L161.918 46.8506L153.584 49.4534Z" fill="#1B6EF3"/>
<circle cx="5.34335" cy="5.34335" r="5.34335" transform="matrix(0.755578 -0.655059 -0.655059 -0.755578 110.424 53.436)" fill="#FBBC04"/>
<circle cx="3" cy="3" r="3" transform="matrix(0.755578 -0.655059 -0.655059 -0.755578 84.8542 75.9639)" fill="#D2E3FC"/>
<path d="M98.8408 54.836C99.9853 54.9892 100.535 56.3239 99.8298 57.2385L95.8647 62.3829C95.1598 63.2975 93.7292 63.106 93.2896 62.0383L90.8169 56.0322C90.3773 54.9644 91.2585 53.8212 92.403 53.9744L98.8408 54.836Z" fill="#FCC934"/>
<circle cx="211.152" cy="81.1642" r="2.43893" transform="rotate(-157.147 211.152 81.1642)" fill="#D2E3FC"/>
<circle cx="79.6191" cy="82.695" r="2.43893" transform="rotate(-157.147 79.6191 82.695)" fill="#D2E3FC"/>
<circle cx="206.547" cy="71.6231" r="3.14724" transform="rotate(-157.147 206.547 71.6231)" fill="#D2E3FC"/>
<circle cx="197.819" cy="61.3946" r="4.5" transform="rotate(-157.147 197.819 61.3946)" fill="#5BB974"/>
<path d="M149.924 9L150.674 17.25" stroke="#D2E3FC" stroke-width="3" stroke-linecap="round"/>
<path d="M183.271 22.8208L179.576 26.1352" stroke="#D2E3FC" stroke-width="3" stroke-linecap="round"/>
<path d="M116.587 24.2563L119.736 27.6994" stroke="#D2E3FC" stroke-width="3" stroke-linecap="round"/>
<path d="M119.924 60.8364L123.073 56.9999" stroke="#D2E3FC" stroke-width="3" stroke-linecap="round"/>
<path d="M178.122 59.3057L175.423 55.4996" stroke="#D2E3FC" stroke-width="3" stroke-linecap="round"/>
<rect x="182.358" y="42" width="10.5" height="10.5" rx="3" transform="rotate(13.4034 182.358 42)" fill="#34A853"/>
<path d="M86.9238 92.9994C111.674 59.9994 165.405 45.7444 202.424 90.1355" stroke="#D2E3FC" stroke-width="3" stroke-linecap="round"/>
<path d="M95.9238 99.0003C116.924 70.5003 164.174 61.5003 193.424 94.5003" stroke="#D2E3FC" stroke-width="3" stroke-linecap="round"/>
<path d="M204.573 85.5836C204.41 84.4344 203.06 83.8972 202.153 84.6206L196.77 88.9112C195.869 89.6291 196.08 91.0521 197.15 91.4779L203.497 94.0031C204.567 94.4289 205.698 93.5398 205.537 92.3994L204.573 85.5836Z" fill="#D2E3FC"/>
<path d="M94.8919 93.269C95.3226 92.1912 96.7616 91.9899 97.4715 92.9082L101.682 98.3541C102.386 99.2653 101.843 100.598 100.703 100.757L93.9382 101.703C92.7976 101.863 91.9102 100.731 92.3375 99.6611L94.8919 93.269Z" fill="#D2E3FC"/>
</svg>
