<svg width="300" height="180" viewBox="0 0 300 180" fill="none" xmlns="http://www.w3.org/2000/svg"><path d="M253.652 126.418c-15.104-5.548-35.006-10.35-58.652-10.35-20.247 0-39.252 3.148-57.842 7.168a100.913 100.913 0 0 1-4.044-10.036A94.33 94.33 0 0 1 128 82.362V31.174L196.18 6l68.181 25.174v51.188a94.33 94.33 0 0 1-5.114 30.838 98.688 98.688 0 0 1-5.595 13.218z" fill="url(#paint0_linear_2045:26830)"/><path d="M168.857 161.383a78.907 78.907 0 0 0 27.165 12.378 78.903 78.903 0 0 0 27.166-12.378 95.935 95.935 0 0 0 21.626-21.083 98.636 98.636 0 0 0 8.68-13.949C238.391 120.802 218.489 116 194.842 116c-20.247 0-39.252 3.148-57.842 7.169.71 1.522 1.459 3.027 2.245 4.513a96.865 96.865 0 0 0 7.986 12.618 95.935 95.935 0 0 0 21.626 21.083z" fill="url(#paint1_linear_2045:26830)"/><path d="M53.79 117.071l1.305 1.194a.653.653 0 0 1 .165.724l-.33.815a.652.652 0 0 1-.81.373l-.71-.238-.314-1.999.694-.869zm-8.112-18.194l-1.595 3.223 1.531.679 1.017-2.681-.953-1.22z" fill="#669DF6"/><path d="M38.47 114.528l.937.147a2.46 2.46 0 0 0 2.812-2.049l1.558-9.924a2.46 2.46 0 0 0-2.05-2.812l-.937-.147a2.46 2.46 0 0 0-2.813 2.049l-1.557 9.924a2.46 2.46 0 0 0 2.05 2.812z" fill="#1976D2"/><path d="M39.172 103.171s-1.493 5.18-5.525 4.195" stroke="#1976D2" stroke-miterlimit="10"/><path fill-rule="evenodd" clip-rule="evenodd" d="M46.938 108.613l7.809 7.703-2.968 3.009-7.809-7.703 2.968-3.009zm-9.256-2.506l4.452-4.288 3.346 3.473-4.452 4.289a7.7 7.7 0 0 0-1.911 2.96l-2.174 6.1-4.543-1.618 2.174-6.1a12.523 12.523 0 0 1 3.108-4.816z" fill="#669DF6"/><path d="M44.739 106.697a2.408 2.408 0 1 0-.001-4.815 2.408 2.408 0 0 0 0 4.815zm-9.158 11.233l-.327 1.302a1.096 1.096 0 0 1-1.173.824l-1.436-.145 1.24-2.443 1.696.462zm10.312-17.861a1.312 1.312 0 1 0 0-2.623 1.312 1.312 0 0 0 0 2.623z" fill="#669DF6"/><path d="M46.592 98.83a1.783 1.783 0 1 0 0-3.566 1.783 1.783 0 0 0 0 3.566z" fill="#669DF6"/><path d="M43.11 113.309l-3.42 10.651a4.862 4.862 0 0 1-1.387 2.137l-8.613 7.714" stroke="#8AB4F8" stroke-width="4.829" stroke-linejoin="round"/><path d="M45.454 115.613l3.54 23.859" stroke="#8AB4F8" stroke-width="4.829" stroke-miterlimit="10"/><path d="M53.891 138.785l-6.976 1.001.024-4.215 3.16-.488.319 1.95 2.558.775c.457.139.806.511.915.977zm-21.094-1.239l-4.765-5.535 3.852-2.398 2.26 2.598-1.594 1.41.63 2.526a1.48 1.48 0 0 1-.383 1.399z" fill="#8AB4F8"/><path d="M48.862 118.602L39 118.068l2.704-15.269a1.77 1.77 0 0 1 1.647-1.571c.276-.018.551.028.805.136l1.678.708a3.429 3.429 0 0 1 2.094 3.172l.934 13.358z" fill="#669DF6"/><path d="M42.331 100.974a4.482 4.482 0 0 1 2.091 4.212c-.338 3.073-4.565 5.694-4.565 5.694" stroke="#1976D2" stroke-miterlimit="10"/><path d="M41.238 109.112l-1.382 1.897-.422-.644.855-1.253h.949zM49.3 98.517l-.21 1.697a1.06 1.06 0 0 1-1.18.92l-1.651-.204-.942-2.102a1.905 1.905 0 0 1 2.802-2.362l.35.235a1.907 1.907 0 0 1 .83 1.816z" fill="#669DF6"/><path d="M49.3 97.306l-4.62 1.017-.046-1.086a2.074 2.074 0 0 1 1.773-2.14l.52-.075a2.074 2.074 0 0 1 2.373 2.047v.237z" fill="#1976D2"/><path d="M48.315 96.314l1.805-.703a.756.756 0 1 1 .429 1.447l-4.4.918 2.166-1.662z" fill="#1976D2"/><path d="M82.248 130.396l2.276-1.065a2.075 2.075 0 0 0 1.778 1.632 5.456 5.456 0 0 0 2.371-.211.967.967 0 0 1 1.133.493l.2.388-6.7 3.346a12.238 12.238 0 0 1-.735-2.288 18.965 18.965 0 0 1-.323-2.295zm-16.883 2.812l-1.104 3.253 6.873.038a.383.383 0 0 0 .385-.405.408.408 0 0 0-.345-.372 4.585 4.585 0 0 1-2.185-1.011 1.536 1.536 0 0 1-.253-1.662l-1.989-.566a1.13 1.13 0 0 0-1.382.725z" fill="#8AB4F8"/><path d="M62.154 111.865l-1.244 2.256-.652-.457-.726.635-.5-.234a7.381 7.381 0 0 1 1.027-1.852 8.34 8.34 0 0 1 1.093-1.273l1.002.925zm23.566-4.122a1.606 1.606 0 0 1 1.526.257c.393.39.63.91.664 1.463l-.888.438-.39-.784-1.737.445.825-1.819zM74.436 96.814l1.074-2.447 1.347 1.117-1.343 2.748-1.078-1.418z" fill="#669DF6"/><path d="M71.031 110.706l-.17 2.069a3.24 3.24 0 0 0 1.354 2.905l7.532 5.345 3.813 8.99" stroke="#1976D2" stroke-width="4.142" stroke-linejoin="round"/><path d="M75.166 95.378l1.53 1.233a1.405 1.405 0 0 0 2.234-.717l.47-1.682a1.642 1.642 0 0 0-1.01-1.98l-1.97-.732-1.255 3.878z" fill="#669DF6"/><path d="M74.434 110.901l-7.781 22.032" stroke="#1976D2" stroke-width="4.142" stroke-linejoin="round"/><path d="M72.958 112.031l8.15 7.437-8.716-4.131.566-3.306zm.137-18.388a1.822 1.822 0 1 0 0-3.643 1.822 1.822 0 0 0 0 3.643z" fill="#1976D2"/><path d="M76.773 91.117a2.435 2.435 0 0 0-1.694 4.189l3.962-2.63a2.435 2.435 0 0 0-2.268-1.559z" fill="#1976D2"/><path fill-rule="evenodd" clip-rule="evenodd" d="M72.395 97.094a7.922 7.922 0 0 1 6.85 4.86l1.294 3.106 5.534 1.417-1.027 4.013-6.535-1.674a2.07 2.07 0 0 1-1.397-1.209l-1.693-4.059a3.78 3.78 0 0 0-2.328-2.143l-10.055 11.96-3.17-2.666 10.82-12.87 1.586 1.332.12-2.067z" fill="#669DF6"/><path d="M68.462 110.892l8.075 2.929a16.283 16.283 0 0 0 1.404-7.483 26.938 26.938 0 0 0-1.662-7.442l.871-.995-3.62-2.264-.632 1.35s-1.33-.308-2.371 1.002c-.458 1.417-2.065 12.903-2.065 12.903zM78.968 95.52a.34.34 0 1 0 0-.68.34.34 0 0 0 0 .68z" fill="#669DF6"/><path d="M79.339 93.17a1.633 1.633 0 0 0-.95-.938l-1.07-.398a1.287 1.287 0 0 0-.054.267 1.328 1.328 0 0 0 1.328 1.328c.27-.006.53-.097.746-.258z" fill="#1976D2"/><path d="M76.768 95.028a.758.758 0 1 0 0-1.517.758.758 0 0 0 0 1.517z" fill="#669DF6"/><path d="M78.086 91.51c.385.231.715.543.968.914.163.217.262.476.285.747h-.953l-.3-1.661z" fill="#1976D2"/><path d="M286 143s-35-26.933-91-26.932c-14.896 0-29.119 1.704-43 4.205-38.304 6.904-73.997 19.879-114 19.879H7" stroke="url(#paint2_linear_2045:26830)" stroke-width="1.5" stroke-miterlimit="10"/><path d="M238.491 21.589l25.954 9.583v51.187a94.312 94.312 0 0 1-5.114 30.839m-126.133 0a94.31 94.31 0 0 1-5.113-30.838V31.171l68.18-25.174 20.287 7.49m28.504 126.878a95.893 95.893 0 0 1-21.626 21.083 78.903 78.903 0 0 1-27.166 12.378 78.907 78.907 0 0 1-27.165-12.378 95.94 95.94 0 0 1-21.627-21.083" stroke="#8AB4F8" stroke-width="1.5" stroke-miterlimit="10"/><path d="M102 80h104s-6.612-8.874-16.743-10.78c-10.375-1.95-18.486 4.17-18.486 4.17S160.575 59 142.245 59C123.916 59 102 80 102 80zm127-6.138h43.41s-2.76-3.745-6.989-4.549a10.534 10.534 0 0 0-7.716 1.76S253.449 65 245.799 65C238.148 65 229 73.862 229 73.862z" fill="#fff"/><path d="M158 134.929h41.93v-41.93H158v41.93z" stroke="#F9AB00" stroke-width="2" stroke-miterlimit="10"/><path d="M194.933 97.996h-31.936v31.936h31.936V97.996z" fill="#FCC934"/><path d="M168.061 113.738l7.42 7.421 14.388-14.389" stroke="#EA8600" stroke-width="2" stroke-miterlimit="10"/><path d="M182.861 40.357H142.19m40.671 16.908H142.19m40.671 16.908H142.19" stroke="#8AB4F8" stroke-width="2" stroke-miterlimit="10"/><path d="M159.688 45.728a5.37 5.37 0 1 1 0-10.74 5.37 5.37 0 0 1 0 10.74zM142.19 62.635a5.37 5.37 0 1 1 0-10.74 5.37 5.37 0 0 1 0 10.74zm30.322 16.908a5.37 5.37 0 1 1 0-10.74 5.37 5.37 0 0 1 0 10.74z" fill="#669DF6"/><path d="M230.642 30.656V19.11a4.346 4.346 0 0 0-1.263-3.08 4.335 4.335 0 0 0-6.148 0 4.343 4.343 0 0 0-1.263 3.08v11.546h-4.337V19.11a8.676 8.676 0 0 1 8.674-8.674 8.673 8.673 0 0 1 8.674 8.674v11.546h-4.337z" fill="#4BB869"/><path d="M206.344 27.956h39.922v30.92h-39.922v-30.92z" fill="#4BB869"/><path d="M206.344 27.956h39.922v30.92" stroke="#1E8E3E" stroke-width="1.5" stroke-miterlimit="10"/><path d="M222.508 40.813a3.797 3.797 0 1 1 4.808 3.643l2.091 5.354h-6.204l2.09-5.354a3.788 3.788 0 0 1-2.785-3.643z" fill="#fff"/><path d="M235.143 107.969c-10.02 0-18.143-8.122-18.143-18.143 0-10.02 8.123-18.143 18.143-18.143 10.02 0 18.143 8.123 18.143 18.143 0 10.02-8.123 18.143-18.143 18.143z" fill="#fff" stroke="#669DF6" stroke-width="2" stroke-miterlimit="10"/><path d="M235.143 104.666c-8.196 0-14.839-6.644-14.839-14.84 0-8.195 6.643-14.839 14.839-14.839 8.195 0 14.839 6.644 14.839 14.84 0 8.195-6.644 14.839-14.839 14.839z" fill="#D2E3FC"/><path d="M235.143 101.094c-6.223 0-11.268-5.045-11.268-11.268 0-6.223 5.045-11.267 11.268-11.267 6.223 0 11.268 5.044 11.268 11.267s-5.045 11.268-11.268 11.268z" fill="#fff"/><path d="M256.16 107.86l8.602 8.601a1.738 1.738 0 0 1 0 2.455l-.529.529a1.736 1.736 0 0 1-2.455 0l-8.602-8.602a1.736 1.736 0 0 1 0-2.455l.529-.528a1.736 1.736 0 0 1 2.455 0z" fill="#669DF6"/><path d="M248.029 102.712l12.259 12.259" stroke="#669DF6" stroke-width="2" stroke-miterlimit="10"/><defs><linearGradient id="paint0_linear_2045:26830" x1="196.18" y1="121.685" x2="196.18" y2="6.002" gradientUnits="userSpaceOnUse"><stop stop-color="#D6E7FB"/><stop offset="1" stop-color="#fff"/></linearGradient><linearGradient id="paint1_linear_2045:26830" x1="195.247" y1="116" x2="195.247" y2="173.761" gradientUnits="userSpaceOnUse"><stop stop-color="#CEEAD6"/><stop offset="1" stop-color="#fff"/></linearGradient><linearGradient id="paint2_linear_2045:26830" x1="274.256" y1="143" x2="11.155" y2="143" gradientUnits="userSpaceOnUse"><stop stop-color="#8AB4F8" stop-opacity="0"/><stop offset=".156" stop-color="#8AB4F8"/><stop offset=".854" stop-color="#8AB4F8"/><stop offset="1" stop-color="#8AB4F8" stop-opacity="0"/></linearGradient></defs></svg>