<?xml version="1.0" encoding="UTF-8"?>
<!--Generator: Apple Native CoreSVG 175-->
<!DOCTYPE svg
PUBLIC "-//W3C//DTD SVG 1.1//EN"
       "http://www.w3.org/Graphics/SVG/1.1/DTD/svg11.dtd">
<svg version="1.1" xmlns="http://www.w3.org/2000/svg" xmlns:xlink="http://www.w3.org/1999/xlink" width="3300" height="2200">
 <!--glyph: "", point size: 100.0, font version: "17.3d3e1", template writer version: "65.1"-->
 <g id="Notes">
  <rect height="2200" id="artboard" style="fill:white;opacity:1" width="3300" x="0" y="0"/>
  <line style="fill:none;stroke:black;opacity:1;stroke-width:0.5;" x1="263" x2="3036" y1="292" y2="292"/>
  <text style="stroke:none;fill:black;font-family:sans-serif;font-size:13;font-weight:bold;" transform="matrix(1 0 0 1 263 322)">Weight/Scale Variations</text>
  <text style="stroke:none;fill:black;font-family:sans-serif;font-size:13;text-anchor:middle;" transform="matrix(1 0 0 1 559.711 322)">Ultralight</text>
  <text style="stroke:none;fill:black;font-family:sans-serif;font-size:13;text-anchor:middle;" transform="matrix(1 0 0 1 856.422 322)">Thin</text>
  <text style="stroke:none;fill:black;font-family:sans-serif;font-size:13;text-anchor:middle;" transform="matrix(1 0 0 1 1153.13 322)">Light</text>
  <text style="stroke:none;fill:black;font-family:sans-serif;font-size:13;text-anchor:middle;" transform="matrix(1 0 0 1 1449.84 322)">Regular</text>
  <text style="stroke:none;fill:black;font-family:sans-serif;font-size:13;text-anchor:middle;" transform="matrix(1 0 0 1 1746.56 322)">Medium</text>
  <text style="stroke:none;fill:black;font-family:sans-serif;font-size:13;text-anchor:middle;" transform="matrix(1 0 0 1 2043.27 322)">Semibold</text>
  <text style="stroke:none;fill:black;font-family:sans-serif;font-size:13;text-anchor:middle;" transform="matrix(1 0 0 1 2339.98 322)">Bold</text>
  <text style="stroke:none;fill:black;font-family:sans-serif;font-size:13;text-anchor:middle;" transform="matrix(1 0 0 1 2636.69 322)">Heavy</text>
  <text style="stroke:none;fill:black;font-family:sans-serif;font-size:13;text-anchor:middle;" transform="matrix(1 0 0 1 2933.4 322)">Black</text>
  <line style="fill:none;stroke:black;opacity:1;stroke-width:0.5;" x1="263" x2="3036" y1="1903" y2="1903"/>
  <g transform="matrix(1 0 0 1 263 1933)">
   <path d="M9.24805 0.830078Q10.8691 0.830078 12.2949 0.214844Q13.7207-0.400391 14.8096-1.49414Q15.8984-2.58789 16.5186-4.01367Q17.1387-5.43945 17.1387-7.05078Q17.1387-8.66211 16.5186-10.0879Q15.8984-11.5137 14.8047-12.6074Q13.7109-13.7012 12.2852-14.3164Q10.8594-14.9316 9.23828-14.9316Q7.62695-14.9316 6.20117-14.3164Q4.77539-13.7012 3.69141-12.6074Q2.60742-11.5137 1.9873-10.0879Q1.36719-8.66211 1.36719-7.05078Q1.36719-5.43945 1.9873-4.01367Q2.60742-2.58789 3.69629-1.49414Q4.78516-0.400391 6.21094 0.214844Q7.63672 0.830078 9.24805 0.830078ZM9.24805-0.654297Q7.91992-0.654297 6.7627-1.14746Q5.60547-1.64062 4.73145-2.51953Q3.85742-3.39844 3.36426-4.56055Q2.87109-5.72266 2.87109-7.05078Q2.87109-8.37891 3.35938-9.54102Q3.84766-10.7031 4.72168-11.582Q5.5957-12.4609 6.75293-12.9541Q7.91016-13.4473 9.23828-13.4473Q10.5762-13.4473 11.7334-12.9541Q12.8906-12.4609 13.7695-11.582Q14.6484-10.7031 15.1465-9.54102Q15.6445-8.37891 15.6445-7.05078Q15.6445-5.72266 15.1514-4.56055Q14.6582-3.39844 13.7842-2.51953Q12.9102-1.64062 11.748-1.14746Q10.5859-0.654297 9.24805-0.654297ZM5.6543-7.05078Q5.6543-6.72852 5.85938-6.52832Q6.06445-6.32812 6.40625-6.32812L8.51562-6.32812L8.51562-4.20898Q8.51562-3.88672 8.71094-3.67676Q8.90625-3.4668 9.23828-3.4668Q9.56055-3.4668 9.77051-3.67676Q9.98047-3.88672 9.98047-4.20898L9.98047-6.32812L12.0898-6.32812Q12.4219-6.32812 12.627-6.52832Q12.832-6.72852 12.832-7.05078Q12.832-7.38281 12.627-7.58789Q12.4219-7.79297 12.0898-7.79297L9.98047-7.79297L9.98047-9.90234Q9.98047-10.2344 9.77051-10.4443Q9.56055-10.6543 9.23828-10.6543Q8.90625-10.6543 8.71094-10.4443Q8.51562-10.2344 8.51562-9.90234L8.51562-7.79297L6.40625-7.79297Q6.06445-7.79297 5.85938-7.58789Q5.6543-7.38281 5.6543-7.05078Z"/>
  </g>
  <g transform="matrix(1 0 0 1 281.867 1933)">
   <path d="M11.709 2.91016Q13.75 2.91016 15.5518 2.12891Q17.3535 1.34766 18.7305-0.0292969Q20.1074-1.40625 20.8887-3.20801Q21.6699-5.00977 21.6699-7.05078Q21.6699-9.0918 20.8887-10.8936Q20.1074-12.6953 18.7305-14.0723Q17.3535-15.4492 15.5469-16.2305Q13.7402-17.0117 11.6992-17.0117Q9.6582-17.0117 7.85645-16.2305Q6.05469-15.4492 4.68262-14.0723Q3.31055-12.6953 2.5293-10.8936Q1.74805-9.0918 1.74805-7.05078Q1.74805-5.00977 2.5293-3.20801Q3.31055-1.40625 4.6875-0.0292969Q6.06445 1.34766 7.86621 2.12891Q9.66797 2.91016 11.709 2.91016ZM11.709 1.25Q9.98047 1.25 8.47656 0.605469Q6.97266-0.0390625 5.83496-1.17676Q4.69727-2.31445 4.05762-3.81836Q3.41797-5.32227 3.41797-7.05078Q3.41797-8.7793 4.05762-10.2832Q4.69727-11.7871 5.83008-12.9297Q6.96289-14.0723 8.4668-14.7119Q9.9707-15.3516 11.6992-15.3516Q13.4277-15.3516 14.9316-14.7119Q16.4355-14.0723 17.5781-12.9297Q18.7207-11.7871 19.3652-10.2832Q20.0098-8.7793 20.0098-7.05078Q20.0098-5.32227 19.3701-3.81836Q18.7305-2.31445 17.5928-1.17676Q16.4551-0.0390625 14.9463 0.605469Q13.4375 1.25 11.709 1.25ZM7.17773-7.05078Q7.17773-6.69922 7.41211-6.47461Q7.64648-6.25 8.01758-6.25L10.8887-6.25L10.8887-3.36914Q10.8887-2.99805 11.1133-2.76855Q11.3379-2.53906 11.6895-2.53906Q12.0605-2.53906 12.29-2.76855Q12.5195-2.99805 12.5195-3.36914L12.5195-6.25L15.4004-6.25Q15.7715-6.25 16.001-6.47461Q16.2305-6.69922 16.2305-7.05078Q16.2305-7.42188 16.001-7.65137Q15.7715-7.88086 15.4004-7.88086L12.5195-7.88086L12.5195-10.752Q12.5195-11.1328 12.29-11.3623Q12.0605-11.5918 11.6895-11.5918Q11.3379-11.5918 11.1133-11.3574Q10.8887-11.123 10.8887-10.752L10.8887-7.88086L8.01758-7.88086Q7.63672-7.88086 7.40723-7.65137Q7.17773-7.42188 7.17773-7.05078Z"/>
  </g>
  <g transform="matrix(1 0 0 1 305.646 1933)">
   <path d="M14.9707 5.66406Q17.0605 5.66406 18.96 5.01465Q20.8594 4.36523 22.4512 3.19336Q24.043 2.02148 25.2197 0.429688Q26.3965-1.16211 27.0459-3.06641Q27.6953-4.9707 27.6953-7.05078Q27.6953-9.14062 27.0459-11.04Q26.3965-12.9395 25.2197-14.5312Q24.043-16.123 22.4512-17.2998Q20.8594-18.4766 18.9551-19.126Q17.0508-19.7754 14.9609-19.7754Q12.8711-19.7754 10.9717-19.126Q9.07227-18.4766 7.48535-17.2998Q5.89844-16.123 4.72168-14.5312Q3.54492-12.9395 2.90039-11.04Q2.25586-9.14062 2.25586-7.05078Q2.25586-4.9707 2.90527-3.06641Q3.55469-1.16211 4.72656 0.429688Q5.89844 2.02148 7.49023 3.19336Q9.08203 4.36523 10.9814 5.01465Q12.8809 5.66406 14.9707 5.66406ZM14.9707 3.84766Q13.1641 3.84766 11.5283 3.2959Q9.89258 2.74414 8.53516 1.74805Q7.17773 0.751953 6.17676-0.610352Q5.17578-1.97266 4.62891-3.6084Q4.08203-5.24414 4.08203-7.05078Q4.08203-8.86719 4.62891-10.5029Q5.17578-12.1387 6.17188-13.501Q7.16797-14.8633 8.52539-15.8594Q9.88281-16.8555 11.5186-17.4023Q13.1543-17.9492 14.9609-17.9492Q16.7773-17.9492 18.4131-17.4023Q20.0488-16.8555 21.4111-15.8594Q22.7734-14.8633 23.7695-13.501Q24.7656-12.1387 25.3174-10.5029Q25.8691-8.86719 25.8691-7.05078Q25.8789-5.24414 25.332-3.6084Q24.7852-1.97266 23.7842-0.610352Q22.7832 0.751953 21.4209 1.74805Q20.0586 2.74414 18.4229 3.2959Q16.7871 3.84766 14.9707 3.84766ZM9.19922-7.05078Q9.19922-6.66992 9.45801-6.4209Q9.7168-6.17188 10.1172-6.17188L14.0625-6.17188L14.0625-2.2168Q14.0625-1.81641 14.3115-1.55762Q14.5605-1.29883 14.9512-1.29883Q15.3516-1.29883 15.6104-1.55273Q15.8691-1.80664 15.8691-2.2168L15.8691-6.17188L19.8242-6.17188Q20.2246-6.17188 20.4785-6.4209Q20.7324-6.66992 20.7324-7.05078Q20.7324-7.46094 20.4785-7.71484Q20.2246-7.96875 19.8242-7.96875L15.8691-7.96875L15.8691-11.9141Q15.8691-12.3242 15.6104-12.583Q15.3516-12.8418 14.9512-12.8418Q14.5605-12.8418 14.3115-12.583Q14.0625-12.3242 14.0625-11.9141L14.0625-7.96875L10.1172-7.96875Q9.70703-7.96875 9.45312-7.71484Q9.19922-7.46094 9.19922-7.05078Z"/>
  </g>
  <text style="stroke:none;fill:black;font-family:sans-serif;font-size:13;font-weight:bold;" transform="matrix(1 0 0 1 263 1953)">Design Variations</text>
  <text style="stroke:none;fill:black;font-family:sans-serif;font-size:13;" transform="matrix(1 0 0 1 263 1971)">Symbols are supported in up to nine weights and three scales.</text>
  <text style="stroke:none;fill:black;font-family:sans-serif;font-size:13;" transform="matrix(1 0 0 1 263 1989)">For optimal layout with text and other symbols, vertically align</text>
  <text style="stroke:none;fill:black;font-family:sans-serif;font-size:13;" transform="matrix(1 0 0 1 263 2007)">symbols with the adjacent text.</text>
  <line style="fill:none;stroke:#00AEEF;stroke-width:0.5;opacity:1.0;" x1="776" x2="776" y1="1919" y2="1933"/>
  <g transform="matrix(1 0 0 1 776 1933)">
   <path d="M3.31055 0.15625Q3.70117 0.15625 3.91602-0.00976562Q4.13086-0.175781 4.26758-0.585938L5.52734-4.0332L11.2891-4.0332L12.5488-0.585938Q12.6855-0.175781 12.9004-0.00976562Q13.1152 0.15625 13.4961 0.15625Q13.8867 0.15625 14.1162-0.0585938Q14.3457-0.273438 14.3457-0.644531Q14.3457-0.869141 14.2383-1.17188L9.6582-13.3691Q9.48242-13.8184 9.17969-14.043Q8.87695-14.2676 8.4082-14.2676Q7.5-14.2676 7.17773-13.3789L2.59766-1.16211Q2.49023-0.859375 2.49023-0.634766Q2.49023-0.263672 2.70996-0.0537109Q2.92969 0.15625 3.31055 0.15625ZM6.00586-5.51758L8.37891-12.0898L8.42773-12.0898L10.8008-5.51758Z"/>
  </g>
  <line style="fill:none;stroke:#00AEEF;stroke-width:0.5;opacity:1.0;" x1="793.197" x2="793.197" y1="1919" y2="1933"/>
  <text style="stroke:none;fill:black;font-family:sans-serif;font-size:13;font-weight:bold;" transform="matrix(1 0 0 1 776 1953)">Margins</text>
  <text style="stroke:none;fill:black;font-family:sans-serif;font-size:13;" transform="matrix(1 0 0 1 776 1971)">Leading and trailing margins on the left and right side of each symbol</text>
  <text style="stroke:none;fill:black;font-family:sans-serif;font-size:13;" transform="matrix(1 0 0 1 776 1989)">can be adjusted by modifying the x-location of the margin guidelines.</text>
  <text style="stroke:none;fill:black;font-family:sans-serif;font-size:13;" transform="matrix(1 0 0 1 776 2007)">Modifications are automatically applied proportionally to all</text>
  <text style="stroke:none;fill:black;font-family:sans-serif;font-size:13;" transform="matrix(1 0 0 1 776 2025)">scales and weights.</text>
  <g transform="matrix(1 0 0 1 1289 1933)">
   <path d="M2.8418 1.86523L4.54102 3.57422Q5.18555 4.22852 5.90332 4.17969Q6.62109 4.13086 7.31445 3.35938L18.0078-8.42773L17.041-9.4043L6.42578 2.27539Q6.16211 2.57812 5.89355 2.61719Q5.625 2.65625 5.27344 2.30469L4.10156 1.14258Q3.75 0.791016 3.79395 0.522461Q3.83789 0.253906 4.14062-0.0195312L15.6152-10.8203L14.6387-11.7871L3.04688-0.898438Q2.30469-0.214844 2.25098 0.498047Q2.19727 1.21094 2.8418 1.86523ZM9.25781-16.3281Q8.94531-16.0254 8.90625-15.6348Q8.86719-15.2441 9.04297-14.9512Q9.21875-14.6777 9.55566-14.541Q9.89258-14.4043 10.3809-14.5215Q11.4746-14.7754 12.5977-14.7314Q13.7207-14.6875 14.7949-13.9844L14.209-12.5293Q13.9551-11.9043 14.0674-11.4404Q14.1797-10.9766 14.5801-10.5664L16.875-8.25195Q17.2363-7.88086 17.5781-7.82227Q17.9199-7.76367 18.3398-7.8418L19.4043-8.03711L20.0684-7.36328L20.0293-6.80664Q20-6.43555 20.1221-6.12305Q20.2441-5.81055 20.6055-5.44922L21.3672-4.70703Q21.7285-4.3457 22.1533-4.33105Q22.5781-4.31641 22.9297-4.66797L25.8398-7.58789Q26.1914-7.93945 26.1816-8.35449Q26.1719-8.76953 25.8105-9.13086L25.0391-9.89258Q24.6875-10.2539 24.3799-10.3857Q24.0723-10.5176 23.7109-10.4883L23.1348-10.4395L22.4902-11.0742L22.7344-12.1973Q22.832-12.6172 22.6953-12.9834Q22.5586-13.3496 22.1191-13.7891L19.9219-15.9766Q18.6719-17.2168 17.2607-17.8369Q15.8496-18.457 14.4189-18.4814Q12.9883-18.5059 11.665-17.959Q10.3418-17.4121 9.25781-16.3281ZM10.752-15.957Q11.6602-16.6211 12.7002-16.9043Q13.7402-17.1875 14.8047-17.085Q15.8691-16.9824 16.8701-16.5137Q17.8711-16.0449 18.7012-15.2051L21.1328-12.793Q21.3086-12.6172 21.3525-12.4512Q21.3965-12.2852 21.3379-12.0312L21.0156-10.5469L22.5195-9.0625L23.5059-9.12109Q23.6914-9.13086 23.7891-9.09668Q23.8867-9.0625 24.0332-8.91602L24.6094-8.33984L22.168-5.89844L21.5918-6.47461Q21.4453-6.62109 21.4062-6.71875Q21.3672-6.81641 21.377-7.01172L21.4453-7.98828L19.9512-9.47266L18.4277-9.21875Q18.1836-9.16992 18.042-9.2041Q17.9004-9.23828 17.7148-9.41406L15.7129-11.416Q15.5176-11.5918 15.4932-11.7529Q15.4688-11.9141 15.5859-12.1875L16.4648-14.2773Q15.293-15.3711 13.8281-15.791Q12.3633-16.2109 10.8398-15.7617Q10.7227-15.7324 10.6885-15.8057Q10.6543-15.8789 10.752-15.957Z"/>
  </g>
  <text style="stroke:none;fill:black;font-family:sans-serif;font-size:13;font-weight:bold;" transform="matrix(1 0 0 1 1289 1953)">Exporting</text>
  <text style="stroke:none;fill:black;font-family:sans-serif;font-size:13;" transform="matrix(1 0 0 1 1289 1971)">Symbols should be outlined when exporting to ensure the</text>
  <text style="stroke:none;fill:black;font-family:sans-serif;font-size:13;" transform="matrix(1 0 0 1 1289 1989)">design is preserved when submitting to Xcode.</text>
  <text id="template-version" style="stroke:none;fill:black;font-family:sans-serif;font-size:13;text-anchor:end;" transform="matrix(1 0 0 1 3036 1933)">Template v.2.0</text>
  <text style="stroke:none;fill:black;font-family:sans-serif;font-size:13;text-anchor:end;" transform="matrix(1 0 0 1 3036 1951)">Requires Xcode 12 or greater</text>
  <text id="descriptive-name" style="stroke:none;fill:black;font-family:sans-serif;font-size:13;text-anchor:end;" transform="matrix(1 0 0 1 3036 1969)">Generated from line.downtrend.cr</text>
  <text style="stroke:none;fill:black;font-family:sans-serif;font-size:13;text-anchor:end;" transform="matrix(1 0 0 1 3036 1987)">Typeset at 100 points</text>
  <text style="stroke:none;fill:black;font-family:sans-serif;font-size:13;" transform="matrix(1 0 0 1 263 726)">Small</text>
  <text style="stroke:none;fill:black;font-family:sans-serif;font-size:13;" transform="matrix(1 0 0 1 263 1156)">Medium</text>
  <text style="stroke:none;fill:black;font-family:sans-serif;font-size:13;" transform="matrix(1 0 0 1 263 1586)">Large</text>
 </g>
 <g id="Guides">
  <g id="H-reference" style="fill:#27AAE1;stroke:none;" transform="matrix(1 0 0 1 339 696)">
   <path d="M0.993347 0L3.6377 0L29.3282-67.1326L30.0301-67.1326L30.0301-70.459L28.1227-70.459ZM11.6882-24.4797L46.9818-24.4797L46.2311-26.7288L12.4382-26.7288ZM55.1193 0L57.7637 0L30.6381-70.459L29.4327-70.459L29.4327-67.1326Z"/>
  </g>
  <line id="Baseline-S" style="fill:none;stroke:#27AAE1;opacity:1;stroke-width:0.5;" x1="263" x2="3036" y1="696" y2="696"/>
  <line id="Capline-S" style="fill:none;stroke:#27AAE1;opacity:1;stroke-width:0.5;" x1="263" x2="3036" y1="625.541" y2="625.541"/>
  <g id="H-reference" style="fill:#27AAE1;stroke:none;" transform="matrix(1 0 0 1 339 1126)">
   <path d="M0.993347 0L3.6377 0L29.3282-67.1326L30.0301-67.1326L30.0301-70.459L28.1227-70.459ZM11.6882-24.4797L46.9818-24.4797L46.2311-26.7288L12.4382-26.7288ZM55.1193 0L57.7637 0L30.6381-70.459L29.4327-70.459L29.4327-67.1326Z"/>
  </g>
  <line id="Baseline-M" style="fill:none;stroke:#27AAE1;opacity:1;stroke-width:0.5;" x1="263" x2="3036" y1="1126" y2="1126"/>
  <line id="Capline-M" style="fill:none;stroke:#27AAE1;opacity:1;stroke-width:0.5;" x1="263" x2="3036" y1="1055.54" y2="1055.54"/>
  <g id="H-reference" style="fill:#27AAE1;stroke:none;" transform="matrix(1 0 0 1 339 1556)">
   <path d="M0.993347 0L3.6377 0L29.3282-67.1326L30.0301-67.1326L30.0301-70.459L28.1227-70.459ZM11.6882-24.4797L46.9818-24.4797L46.2311-26.7288L12.4382-26.7288ZM55.1193 0L57.7637 0L30.6381-70.459L29.4327-70.459L29.4327-67.1326Z"/>
  </g>
  <line id="Baseline-L" style="fill:none;stroke:#27AAE1;opacity:1;stroke-width:0.5;" x1="263" x2="3036" y1="1556" y2="1556"/>
  <line id="Capline-L" style="fill:none;stroke:#27AAE1;opacity:1;stroke-width:0.5;" x1="263" x2="3036" y1="1485.54" y2="1485.54"/>
  <line id="left-margin" style="fill:none;stroke:#00AEEF;stroke-width:0.5;opacity:1.0;" x1="1395.87" x2="1395.87" y1="1030.78" y2="1150.12"/>
  <line id="right-margin" style="fill:none;stroke:#00AEEF;stroke-width:0.5;opacity:1.0;" x1="1503.82" x2="1503.82" y1="1030.78" y2="1150.12"/>
 </g>
 <g id="Symbols">
  <g id="Black-L" transform="matrix(1 0 0 1 2862.43 1556)">
   <path d="M16.99-78.24C13.48-81.76 7.78-81.76 4.27-78.24C0.75-74.73 0.75-69.03 4.27-65.52L43.07-26.71C48.93-20.86 58.42-20.86 64.28-26.71L79.11-41.54L110.04-10.61L95.41-10.61C90.72-10.61 86.91-6.8 86.91-2.11C86.91 2.59 90.72 6.39 95.41 6.39L130.63 6.39C135.32 6.39 139.13 2.59 139.13-2.11L139.13-37.33C139.13-42.02 135.32-45.83 130.63-45.83C125.94-45.83 122.13-42.02 122.13-37.33L122.13-23.98L89.72-56.39C83.86-62.25 74.36-62.25 68.5-56.39L53.67-41.56L16.99-78.24Z"/>
  </g>
  <g id="Heavy-L" transform="matrix(1 0 0 1 2566.72 1556)">
   <path d="M15.29-77.44C12.16-80.56 7.1-80.56 3.97-77.44C0.85-74.31 0.85-69.25 3.97-66.12L43.01-27.09C48.48-21.62 57.34-21.62 62.81-27.09L78.48-42.76L110.83-10.42L95.53-10.42C91.39-10.42 88.03-7.06 88.03-2.92C88.03 1.23 91.39 4.58 95.53 4.58L129.63 4.58C133.77 4.58 137.13 1.23 137.13-2.92L137.13-37.01C137.13-41.16 133.77-44.51 129.63-44.51C125.49-44.51 122.13-41.16 122.13-37.01L122.13-21.74L88.38-55.49C82.91-60.96 74.05-60.96 68.58-55.49L52.91-39.82L15.29-77.44Z"/>
  </g>
  <g id="Bold-L" transform="matrix(1 0 0 1 2270.51 1556)">
   <path d="M14.4275-77.0325C11.4975-79.9625 6.7575-79.9625 3.8275-77.0325C0.8975-74.1025 0.8975-69.3625 3.8275-66.4325L43.0975-27.1525C48.3675-21.8825 56.9175-21.8825 62.1875-27.1525L78.3575-43.3225L110.888-10.7925L96.1575-10.7925C92.2975-10.7925 89.1575-7.6625 89.1575-3.7925C89.1575 0.0675 92.2975 3.2075 96.1575 3.2075L129.127 3.2075C132.997 3.2075 136.127 0.0675 136.127-3.7925L136.127-36.7625C136.127-40.6325 132.997-43.7625 129.127-43.7625C125.258-43.7625 122.127-40.6325 122.127-36.7625L122.127-20.7725L87.9075-54.9925C82.6275-60.2625 74.0875-60.2625 68.8075-54.9925L52.6475-38.8225L14.4275-77.0325Z"/>
  </g>
  <g id="Semibold-L" transform="matrix(1 0 0 1 1974.3 1556)">
   <path d="M13.5775-76.6325C10.8475-79.3625 6.4075-79.3625 3.6775-76.6325C0.9475-73.9025 0.9475-69.4625 3.6775-66.7325L42.9475-27.4625C48.0275-22.3825 56.2575-22.3825 61.3375-27.4625L77.8575-43.9825L111.587-10.2425L95.6575-10.2425C92.0675-10.2425 89.1575-7.3325 89.1575-3.7425C89.1575-0.1525 92.0675 2.7575 95.6575 2.7575L128.627 2.7575C132.218 2.7575 135.127-0.1525 135.127-3.7425L135.127-36.7125C135.127-40.3025 132.218-43.2125 128.627-43.2125C125.037-43.2125 122.127-40.3025 122.127-36.7125L122.127-19.5125L87.0475-54.5825C81.9775-59.6625 73.7475-59.6625 68.6675-54.5825L52.1475-38.0625L13.5775-76.6325Z"/>
  </g>
  <g id="Medium-L" transform="matrix(1 0 0 1 1678.34 1556)">
   <path d="M12.3-76.03C9.86-78.47 5.9-78.47 3.46-76.03C1.02-73.59 1.02-69.63 3.46-67.19L42.73-27.92C47.52-23.13 55.27-23.13 60.06-27.92L77.11-44.97L112.66-9.42L94.91-9.42C91.74-9.42 89.16-6.85 89.16-3.67C89.16-0.5 91.74 2.08 94.91 2.08L127.88 2.08C131.06 2.08 133.63-0.5 133.63-3.67L133.63-36.64C133.63-39.82 131.06-42.39 127.88-42.39C124.7-42.39 122.13-39.82 122.13-36.64L122.13-17.63L85.77-53.98C80.99-58.77 73.23-58.77 68.45-53.98L51.4-36.93L12.3-76.03Z"/>
  </g>
  <g id="Regular-L" transform="matrix(1 0 0 1 1381.87 1556)">
   <path d="M11.8205-74.9095C9.44051-77.2195 5.64051-77.1695 3.33051-74.7995C1.02051-72.4195 1.07051-68.6195 3.44051-66.3095L43.0005-27.7795C47.6605-23.2395 55.0905-23.2395 59.7505-27.7795L77.2305-44.7995L113.531-9.43949L94.7405-9.43949C91.7005-9.43949 89.2405-6.97949 89.2405-3.93949C89.2405-0.899487 91.7005 1.56051 94.7405 1.56051L127.631 1.56051C130.671 1.56051 133.131-0.899487 133.131-3.93949L133.131-36.8295C133.131-39.8695 130.671-42.3295 127.631-42.3295C124.591-42.3295 122.131-39.8695 122.131-36.8295L122.131-17.8095L85.6005-53.3995C80.9405-57.9395 73.5105-57.9395 68.8505-53.3995L51.3805-36.3795L11.8205-74.9095Z"/>
  </g>
  <g id="Light-L" transform="matrix(1 0 0 1 1085.41 1556)">
   <path d="M11.45-75.63C9.2-77.87 5.56-77.87 3.31-75.63C1.07-73.38 1.07-69.74 3.31-67.49L42.59-28.22C47.18-23.63 54.62-23.63 59.2-28.22L76.43-45.45C76.53-45.55 76.69-45.55 76.79-45.45L113.36-8.87L94.41-8.87C91.51-8.87 89.16-6.52 89.16-3.62C89.16-0.72 91.51 1.63 94.41 1.63L127.38 1.63C130.28 1.63 132.63-0.72 132.63-3.62L132.63-36.59C132.63-39.49 130.28-41.84 127.38-41.84C124.48-41.84 122.13-39.49 122.13-36.59L122.13-16.37L84.92-53.58C80.33-58.17 72.89-58.17 68.3-53.58L51.07-36.35C50.98-36.25 50.82-36.25 50.72-36.35L11.45-75.63Z"/>
  </g>
  <g id="Thin-L" transform="matrix(1 0 0 1 789.452 1556)">
   <path d="M10.166-75.0275C8.213-76.9775 5.047-76.9775 3.094-75.0275C1.142-73.0675 1.142-69.9075 3.094-67.9475L42.368-28.6775C46.664-24.3775 53.629-24.3775 57.925-28.6775L75.154-45.9075C75.544-46.2975 76.177-46.2975 76.568-45.9075L114.423-8.0475L93.663-8.0475C91.178-8.0475 89.163-6.0375 89.163-3.5475C89.163-1.0675 91.178 0.9525 93.663 0.9525L126.63 0.9525C129.116 0.9525 131.13-1.0675 131.13-3.5475L131.13-36.5175C131.13-39.0075 129.116-41.0175 126.63-41.0175C124.145-41.0175 122.13-39.0075 122.13-36.5175L122.13-14.4875L83.639-52.9775C79.343-57.2775 72.378-57.2775 68.083-52.9775L50.854-35.7475C50.463-35.3575 49.83-35.3575 49.439-35.7475L10.166-75.0275Z"/>
  </g>
  <g id="Ultralight-L" transform="matrix(1 0 0 1 493.991 1556)">
   <path d="M7.60525-73.8125C6.23825-75.1825 4.02225-75.1825 2.65525-73.8125C1.28825-72.4525 1.28825-70.2325 2.65525-68.8725L41.9292-29.5925C45.6392-25.8825 51.6542-25.8825 55.3642-29.5925L72.5932-46.8225C73.5692-47.8025 75.1522-47.8025 76.1292-46.8225L116.318-6.6325L92.1632-6.6325C90.2302-6.6325 88.6632-5.0625 88.6632-3.1325C88.6632-1.2025 90.2302 0.3675 92.1632 0.3675L125.13 0.3675C127.063 0.3675 128.63-1.2025 128.63-3.1325L128.63-36.1025C128.63-38.0325 127.063-39.6025 125.13-39.6025C123.197-39.6025 121.63-38.0325 121.63-36.1025L121.63-11.2225L81.0782-51.7725C77.3682-55.4825 71.3532-55.4825 67.6432-51.7725L50.4142-34.5425C49.4382-33.5625 47.8552-33.5625 46.8792-34.5425L7.60525-73.8125Z"/>
  </g>
  <g id="Black-M" transform="matrix(1 0 0 1 2875.93 1126)">
   <path d="M16.14-67.84C12.82-71.16 7.44-71.16 4.12-67.84C0.8-64.52 0.8-59.14 4.12-55.82L34.3-25.64C39.57-20.37 48.12-20.37 53.39-25.64L63.77-36.02L84.62-15.16L76.54-15.16C72.12-15.16 68.54-11.58 68.54-7.16C68.54-2.75 72.12 0.84 76.54 0.84L104.13 0.84C108.55 0.84 112.13-2.75 112.13-7.16L112.13-34.75C112.13-39.17 108.55-42.75 104.13-42.75C99.71-42.75 96.13-39.17 96.13-34.75L96.13-27.7L73.32-50.51C68.05-55.78 59.5-55.78 54.23-50.51L43.85-40.13L16.14-67.84Z"/>
  </g>
  <g id="Heavy-M" transform="matrix(1 0 0 1 2580.22 1126)">
   <path d="M14.4275-66.0325C11.4975-68.9625 6.7575-68.9625 3.8275-66.0325C0.8975-63.1025 0.8975-58.3625 3.8275-55.4325L34.1875-25.0625C39.0675-20.1825 46.9875-20.1825 51.8675-25.0625L63.0575-36.2525L85.5275-13.7925L76.4175-13.7925C72.5475-13.7925 69.4175-10.6625 69.4175-6.7925C69.4175-2.9325 72.5475 0.2075 76.4175 0.2075L103.127 0.2075C106.997 0.2075 110.127-2.9325 110.127-6.7925L110.127-33.5025C110.127-37.3725 106.997-40.5025 103.127-40.5025C99.2575-40.5025 96.1275-37.3725 96.1275-33.5025L96.1275-24.4025L71.8975-48.6325C67.0175-53.5125 59.1075-53.5125 54.2275-48.6325L43.0275-37.4325L14.4275-66.0325Z"/>
  </g>
  <g id="Bold-M" transform="matrix(1 0 0 1 2284.01 1126)">
   <path d="M13.5775-65.6325C10.8475-68.3625 6.4075-68.3625 3.6775-65.6325C0.9475-62.9025 0.9475-58.4625 3.6775-55.7325L34.2275-25.1825C38.9175-20.4925 46.5175-20.4925 51.1975-25.1825L62.8575-36.8425L85.7075-13.9925L76.8075-13.9925C73.2175-13.9925 70.3075-11.0825 70.3075-7.4925C70.3075-3.9025 73.2175-0.9925 76.8075-0.9925L102.627-0.9925C106.217-0.9925 109.127-3.9025 109.127-7.4925L109.127-33.3125C109.127-36.9025 106.217-39.8125 102.627-39.8125C99.0375-39.8125 96.1275-36.9025 96.1275-33.3125L96.1275-23.3725L71.3475-48.1525C66.6575-52.8425 59.0575-52.8425 54.3775-48.1525L42.7175-36.4925L13.5775-65.6325Z"/>
  </g>
  <g id="Semibold-M" transform="matrix(1 0 0 1 1987.8 1126)">
   <path d="M12.7275-67.2325C10.1875-69.7625 6.0675-69.7625 3.5275-67.2325C0.9975-64.6925 0.9975-60.5725 3.5275-58.0325L34.0875-27.4825C38.5775-22.9925 45.8575-22.9925 50.3475-27.4825L62.3575-39.4925L86.4075-15.4425L76.3075-15.4425C72.9875-15.4425 70.3075-12.7525 70.3075-9.4425C70.3075-6.1225 72.9875-3.4425 76.3075-3.4425L102.127-3.4425C105.437-3.4425 108.127-6.1225 108.127-9.4425L108.127-35.2625C108.127-38.5825 105.437-41.2625 102.127-41.2625C98.8175-41.2625 96.1275-38.5825 96.1275-35.2625L96.1275-24.1125L70.4875-49.7525C65.9975-54.2425 58.7175-54.2425 54.2275-49.7525L42.2175-37.7325L12.7275-67.2325Z"/>
  </g>
  <g id="Medium-M" transform="matrix(1 0 0 1 1692.34 1126)">
   <path d="M10.5875-66.2225C8.5375-68.2725 5.2175-68.2725 3.1675-66.2225C1.1175-64.1725 1.1175-60.8525 3.1675-58.8025L33.7175-28.2525C37.7175-24.2425 44.2075-24.2425 48.2175-28.2525L61.1075-41.1425L88.1775-14.0725L75.0575-14.0725C72.4275-14.0725 70.3075-11.9425 70.3075-9.3225C70.3075-6.7025 72.4275-4.5725 75.0575-4.5725L100.877-4.5725C103.497-4.5725 105.627-6.7025 105.627-9.3225L105.627-35.1425C105.627-37.7725 103.497-39.8925 100.877-39.8925C98.2575-39.8925 96.1275-37.7725 96.1275-35.1425L96.1275-20.9725L68.3575-48.7425C64.3575-52.7425 57.8675-52.7425 53.8575-48.7425L40.9675-35.8525L10.5875-66.2225Z"/>
  </g>
  <g id="Regular-M" transform="matrix(1 0 0 1 1395.87 1126)">
   <path d="M10.1725-66.7775C8.2125-68.7275 5.0525-68.7275 3.0925-66.7775C1.1425-64.8175 1.1425-61.6575 3.0925-59.6975L33.6525-29.1475C37.5525-25.2475 43.8825-25.2475 47.7925-29.1475L60.8625-42.2175L88.5425-14.5475L74.8125-14.5475C72.3225-14.5475 70.3125-12.5275 70.3125-10.0475C70.3125-7.5575 72.3225-5.5475 74.8125-5.5475L100.632-5.5475C103.122-5.5475 105.132-7.5575 105.132-10.0475L105.132-35.8675C105.132-38.3575 103.122-40.3675 100.632-40.3675C98.1425-40.3675 96.1325-38.3575 96.1325-35.8675L96.1325-21.0975L67.9325-49.2875C64.0325-53.1975 57.6925-53.1975 53.7925-49.2875L40.7225-36.2175L10.1725-66.7775Z"/>
  </g>
  <g id="Light-M" transform="matrix(1 0 0 1 1098.91 1126)">
   <path d="M10.5875-66.2225C8.5375-68.2725 5.2175-68.2725 3.1675-66.2225C1.1175-64.1725 1.1175-60.8525 3.1675-58.8025L33.7175-28.2525C37.7175-24.2425 44.2075-24.2425 48.2175-28.2525L61.1075-41.1425L88.1775-14.0725L75.0575-14.0725C72.4275-14.0725 70.3075-11.9425 70.3075-9.3225C70.3075-6.7025 72.4275-4.5725 75.0575-4.5725L100.877-4.5725C103.497-4.5725 105.627-6.7025 105.627-9.3225L105.627-35.1425C105.627-37.7725 103.497-39.8925 100.877-39.8925C98.2575-39.8925 96.1275-37.7725 96.1275-35.1425L96.1275-20.9725L68.3575-48.7425C64.3575-52.7425 57.8675-52.7425 53.8575-48.7425L40.9675-35.8525L10.5875-66.2225Z"/>
  </g>
  <g id="Thin-M" transform="matrix(1 0 0 1 802.952 1126)">
   <path d="M9.31175-65.62C7.55475-67.38 4.70475-67.38 2.94775-65.62C1.19075-63.86 1.19075-61.02 2.94775-59.26L33.4997-28.71C37.2097-25 43.2247-25 46.9347-28.71L60.0067-41.78C60.2017-41.97 60.5187-41.97 60.7137-41.78L89.2427-13.25L74.3057-13.25C72.0967-13.25 70.3057-11.46 70.3057-9.25C70.3057-7.04 72.0967-5.25 74.3057-5.25L100.13-5.25C102.339-5.25 104.13-7.04 104.13-9.25L104.13-35.07C104.13-37.28 102.339-39.07 100.13-39.07C97.9207-39.07 96.1297-37.28 96.1297-35.07L96.1297-19.09L67.0777-48.14C63.3677-51.85 57.3527-51.85 53.6427-48.14L40.5707-35.07C40.3757-34.87 40.0597-34.87 39.8637-35.07L9.31175-65.62Z"/>
  </g>
  <g id="Ultralight-M" transform="matrix(1 0 0 1 507.491 1126)">
   <path d="M6.751-63.4125C5.58-64.5825 3.68-64.5825 2.509-63.4125C1.337-62.2425 1.337-60.3425 2.509-59.1725L33.061-28.6225C36.185-25.4925 41.251-25.4925 44.375-28.6225L57.447-41.6925C58.228-42.4725 59.494-42.4725 60.275-41.6925L91.138-10.8325L72.806-10.8325C71.149-10.8325 69.806-9.4825 69.806-7.8325C69.806-6.1725 71.149-4.8325 72.806-4.8325L98.63-4.8325C100.287-4.8325 101.63-6.1725 101.63-7.8325L101.63-33.6525C101.63-35.3125 100.287-36.6525 98.63-36.6525C96.973-36.6525 95.63-35.3125 95.63-33.6525L95.63-14.8225L64.518-45.9325C61.393-49.0525 56.328-49.0525 53.204-45.9325L40.132-32.8625C39.351-32.0825 38.085-32.0825 37.304-32.8625L6.751-63.4125Z"/>
  </g>
  <g id="Black-S" transform="matrix(1 0 0 1 2875.93 696)">
   <path d="M16.14-69.84C12.82-73.16 7.44-73.16 4.12-69.84C0.8-66.521 0.8-61.139 4.12-57.82L35.72-26.224C40.21-21.732 47.49-21.732 51.98-26.224L63.77-38.016L84.62-17.165L76.54-17.165C72.12-17.165 68.54-13.583 68.54-9.165C68.54-4.747 72.12-1.165 76.54-1.165L104.13-1.165C108.55-1.165 112.13-4.747 112.13-9.165L112.13-36.752C112.13-41.17 108.55-44.752 104.13-44.752C99.71-44.752 96.13-41.17 96.13-36.752L96.13-29.699L71.9-53.926C67.41-58.417 60.13-58.417 55.64-53.926L43.85-42.133L16.14-69.84Z"/>
  </g>
  <g id="Heavy-S" transform="matrix(1 0 0 1 2589.72 696)">
   <path d="M14.4275-63.0353C11.4975-65.9642 6.7575-65.9642 3.8275-63.0353C0.8975-60.1063 0.8975-55.3582 3.8275-52.4293L28.7475-27.5013C32.8575-23.4003 39.4975-23.4003 43.5975-27.5013L52.1575-36.0602L66.5275-21.6943L62.8175-21.6943C58.9475-21.6943 55.8175-18.5602 55.8175-14.6943C55.8175-10.8283 58.9475-7.69425 62.8175-7.69425L84.1275-7.69425C87.9975-7.69425 91.1275-10.8283 91.1275-14.6943L91.1275-36.0053C91.1275-39.8713 87.9975-43.0053 84.1275-43.0053C80.2575-43.0053 77.1275-39.8713 77.1275-36.0053L77.1275-32.3062L59.5875-49.8483C55.4875-53.9493 48.8375-53.9493 44.7375-49.8483L36.1775-41.2893L14.4275-63.0353Z"/>
  </g>
  <g id="Bold-S" transform="matrix(1 0 0 1 2293.51 696)">
   <path d="M13.5775-62.6333C10.8475-65.3663 6.4075-65.3663 3.6775-62.6333C0.9475-59.8993 0.9475-55.4673 3.6775-52.7332L28.7575-27.6573C32.6575-23.7523 38.9875-23.7513 42.8975-27.6573L51.8975-36.6573L66.8075-21.7432L63.0275-21.7432C59.4375-21.7432 56.5275-18.8323 56.5275-15.2432C56.5275-11.6533 59.4375-8.74325 63.0275-8.74325L83.6275-8.74325C87.2175-8.74325 90.1275-11.6533 90.1275-15.2432L90.1275-35.8473C90.1275-39.4373 87.2175-42.3473 83.6275-42.3473C80.0375-42.3473 77.1275-39.4373 77.1275-35.8473L77.1275-31.2253L58.9675-49.3853C55.0675-53.2903 48.7275-53.2903 44.8275-49.3853L35.8275-40.3853L13.5775-62.6333Z"/>
  </g>
  <g id="Semibold-S" transform="matrix(1 0 0 1 1997.3 696)">
   <path d="M12.7275-62.2307C10.1875-64.7697 6.0675-64.7697 3.5275-62.2307C0.9975-59.6927 0.9975-55.5767 3.5275-53.0387L28.6075-27.9617C32.3175-24.2517 38.3375-24.2517 42.0475-27.9617L51.3975-37.3157L67.5175-21.1947L62.5275-21.1947C59.2075-21.1947 56.5275-18.5077 56.5275-15.1947C56.5275-11.8807 59.2075-9.19475 62.5275-9.19475L83.1275-9.19475C86.4375-9.19475 89.1275-11.8807 89.1275-15.1947L89.1275-35.7987C89.1275-39.1127 86.4375-41.7987 83.1275-41.7987C79.8175-41.7987 77.1275-39.1127 77.1275-35.7987L77.1275-29.9697L58.1175-48.9827C54.4075-52.6927 48.3875-52.6927 44.6775-48.9827L35.3275-39.6297L12.7275-62.2307Z"/>
  </g>
  <g id="Medium-S" transform="matrix(1 0 0 1 1701.34 696)">
   <path d="M11.45-61.6273C9.2-63.8723 5.56-63.8723 3.31-61.6273C1.07-59.3813 1.07-55.7412 3.31-53.4952L28.39-28.4192C31.81-25.0023 37.35-25.0023 40.77-28.4192L50.65-38.3032L68.58-20.3712L61.78-20.3712C58.88-20.3712 56.53-18.0202 56.53-15.1212C56.53-12.2212 58.88-9.87125 61.78-9.87125L82.38-9.87125C85.28-9.87125 87.63-12.2212 87.63-15.1212L87.63-35.7252C87.63-38.6252 85.28-40.9752 82.38-40.9752C79.48-40.9752 77.13-38.6252 77.13-35.7252L77.13-28.0862L56.84-48.3792C53.42-51.7962 47.88-51.7962 44.46-48.3792L34.58-38.4952L11.45-61.6273Z"/>
  </g>
  <g id="Regular-S" transform="matrix(1 0 0 1 1404.87 696)">
   <path d="M11.0225-61.426C8.8725-63.574 5.3925-63.574 3.2425-61.426C1.0925-59.278 1.0925-55.796 3.2425-53.648L28.3225-28.571C31.6425-25.252 37.0225-25.252 40.3425-28.571L50.4025-38.632L68.9325-20.097L61.5325-20.097C58.7625-20.097 56.5325-17.858 56.5325-15.097C56.5325-12.335 58.7625-10.097 61.5325-10.097L82.1325-10.097C84.8925-10.097 87.1325-12.335 87.1325-15.097L87.1325-35.701C87.1325-38.462 84.8925-40.701 82.1325-40.701C79.3725-40.701 77.1325-38.462 77.1325-35.701L77.1325-27.458L56.4125-48.178C53.0925-51.498 47.7125-51.498 44.3925-48.178L34.3325-38.117L11.0225-61.426Z"/>
  </g>
  <g id="Light-S" transform="matrix(1 0 0 1 1108.41 696)">
   <path d="M10.5875-61.2247C8.5375-63.2758 5.2175-63.2758 3.1675-61.2247C1.1175-59.1748 1.1175-55.8507 3.1675-53.8007L28.2375-28.7237C31.4675-25.5018 36.6875-25.5018 39.9075-28.7237L50.1475-38.9617L69.2875-19.8227L61.2775-19.8227C58.6475-19.8227 56.5275-17.6957 56.5275-15.0727C56.5275-12.4488 58.6475-10.3227 61.2775-10.3227L81.8775-10.3227C84.4975-10.3227 86.6275-12.4488 86.6275-15.0727L86.6275-35.6767C86.6275-38.2998 84.4975-40.4267 81.8775-40.4267C79.2575-40.4267 77.1275-38.2998 77.1275-35.6767L77.1275-26.8307L55.9775-47.9778C52.7575-51.1988 47.5375-51.1988 44.3175-47.9778L34.0775-37.7397L10.5875-61.2247Z"/>
  </g>
  <g id="Thin-S" transform="matrix(1 0 0 1 812.452 696)">
   <path d="M9.31175-60.6213C7.55475-62.3782 4.70475-62.3782 2.94775-60.6213C1.19075-58.8642 1.19075-56.0143 2.94775-54.2572L28.0237-29.1812C30.9527-26.2523 35.7017-26.2523 38.6307-29.1812L49.3987-39.9493L70.3487-18.9992L60.5257-18.9992C58.3157-18.9992 56.5257-17.2083 56.5257-14.9992C56.5257-12.7903 58.3157-10.9992 60.5257-10.9992L81.1297-10.9992C83.3387-10.9992 85.1297-12.7903 85.1297-14.9992L85.1297-35.6033C85.1297-37.8123 83.3387-39.6033 81.1297-39.6033C78.9207-39.6033 77.1297-37.8123 77.1297-35.6033L77.1297-24.9462L54.7027-47.3732C51.7737-50.3023 47.0247-50.3023 44.0957-47.3732L33.3277-36.6053L9.31175-60.6213Z"/>
  </g>
  <g id="Ultralight-S" transform="matrix(1 0 0 1 516.991 696)">
   <path d="M6.751-59.414C5.58-60.586 3.68-60.586 2.509-59.414C1.337-58.243 1.337-56.343 2.509-55.172L27.585-30.095C29.928-27.752 33.727-27.752 36.07-30.095L47.899-41.924L72.189-17.634L59.026-17.634C57.369-17.634 56.026-16.291 56.026-14.634C56.026-12.977 57.369-11.634 59.026-11.634L79.63-11.634C81.287-11.634 82.63-12.977 82.63-14.634L82.63-35.238C82.63-36.895 81.287-38.238 79.63-38.238C77.973-38.238 76.63-36.895 76.63-35.238L76.63-21.679L52.142-46.167C49.799-48.51 46-48.51 43.657-46.167L31.828-34.338L6.751-59.414Z"/>
  </g>
 </g>
</svg>
