<svg xmlns="http://www.w3.org/2000/svg" width="87" height="65" fill="none" viewBox="0 0 87 65"><rect width="46.316" height="34.246" x="20.137" y="25.289" fill="url(#a)" rx="4.031"/><path fill="#AECBFA" d="M11.748 61.21h62.76a2.686 2.686 0 0 1-2.685 2.687h-57.39a2.686 2.686 0 0 1-2.685-2.686Z"/><rect width="40.945" height="28.873" x="22.822" y="27.971" stroke="#fff" stroke-width="1.344" rx=".672"/><path stroke="url(#b)" stroke-width="1.344" d="M0 63.897h86.926"/><path stroke="#fff" stroke-width="1.344" d="M63.768 30.322H35.762a1.343 1.343 0 0 1-1.343-1.343c0-.742-.6-1.343-1.343-1.343h-1.528"/><path fill="#4285F4" fill-rule="evenodd" d="M63.099 25.286v-.002a2.35 2.35 0 1 0-4.699 0v.002h-3.355v3.355a2.35 2.35 0 0 1 0 4.7v3.36H58.4a2.35 2.35 0 1 1 4.698 0h3.358v-3.358a2.35 2.35 0 0 0 0-4.7v-3.357h-3.357Z" clip-rule="evenodd"/><path fill="#F1F3F4" fill-rule="evenodd" d="M58.4 2.453h-3.355v3.355a2.35 2.35 0 0 1 0 4.7v3.36H58.4a2.35 2.35 0 1 1 4.698 0h3.358v-3.355a2.35 2.35 0 0 0 0-4.7v-3.36h-3.357a2.35 2.35 0 1 0-4.699 0Z" clip-rule="evenodd"/><path fill="#34A853" fill-rule="evenodd" d="M46.987 2.453h-3.354v3.354a2.35 2.35 0 0 1 0 4.7v3.361h3.355v-.001a2.35 2.35 0 1 1 4.699 0v.001h3.357v-3.355a2.35 2.35 0 0 0 0-4.7v-3.36h-3.358a2.35 2.35 0 1 0-4.699 0Z" clip-rule="evenodd"/><path fill="#FBBC04" fill-rule="evenodd" d="M69.808 25.277v.007a2.35 2.35 0 1 0 4.698 0v-.007h3.357v-3.355a2.35 2.35 0 0 1 0-4.7v-3.36h-3.357v.002a2.35 2.35 0 1 1-4.699 0v-.003h-3.355v3.363a2.35 2.35 0 0 0 0 4.7v3.353h3.356Z" clip-rule="evenodd"/><defs><linearGradient id="a" x1="34.61" x2="24.842" y1="35.335" y2="56.339" gradientUnits="userSpaceOnUse"><stop offset=".354" stop-color="#E8EAED"/><stop offset=".953" stop-color="#AECBFA"/></linearGradient><linearGradient id="b" x1="86.524" x2="0" y1="63.897" y2="63.897" gradientUnits="userSpaceOnUse"><stop stop-color="#4285F4" stop-opacity="0"/><stop offset=".25" stop-color="#4285F4"/><stop offset=".776" stop-color="#4285F4"/><stop offset="1" stop-color="#4285F4" stop-opacity="0"/></linearGradient></defs></svg>