<?xml version="1.0" encoding="UTF-8"?>
<!--Generator: Apple Native CoreSVG 175-->
<!DOCTYPE svg
PUBLIC "-//W3C//DTD SVG 1.1//EN"
       "http://www.w3.org/Graphics/SVG/1.1/DTD/svg11.dtd">
<svg version="1.1" xmlns="http://www.w3.org/2000/svg" xmlns:xlink="http://www.w3.org/1999/xlink" width="3300" height="2200">
 <!--glyph: "", point size: 100.0, font version: "17.3d3e1", template writer version: "65.1"-->
 <g id="Notes">
  <rect height="2200" id="artboard" style="fill:white;opacity:1" width="3300" x="0" y="0"/>
  <line style="fill:none;stroke:black;opacity:1;stroke-width:0.5;" x1="263" x2="3036" y1="292" y2="292"/>
  <text style="stroke:none;fill:black;font-family:sans-serif;font-size:13;font-weight:bold;" transform="matrix(1 0 0 1 263 322)">Weight/Scale Variations</text>
  <text style="stroke:none;fill:black;font-family:sans-serif;font-size:13;text-anchor:middle;" transform="matrix(1 0 0 1 559.711 322)">Ultralight</text>
  <text style="stroke:none;fill:black;font-family:sans-serif;font-size:13;text-anchor:middle;" transform="matrix(1 0 0 1 856.422 322)">Thin</text>
  <text style="stroke:none;fill:black;font-family:sans-serif;font-size:13;text-anchor:middle;" transform="matrix(1 0 0 1 1153.13 322)">Light</text>
  <text style="stroke:none;fill:black;font-family:sans-serif;font-size:13;text-anchor:middle;" transform="matrix(1 0 0 1 1449.84 322)">Regular</text>
  <text style="stroke:none;fill:black;font-family:sans-serif;font-size:13;text-anchor:middle;" transform="matrix(1 0 0 1 1746.56 322)">Medium</text>
  <text style="stroke:none;fill:black;font-family:sans-serif;font-size:13;text-anchor:middle;" transform="matrix(1 0 0 1 2043.27 322)">Semibold</text>
  <text style="stroke:none;fill:black;font-family:sans-serif;font-size:13;text-anchor:middle;" transform="matrix(1 0 0 1 2339.98 322)">Bold</text>
  <text style="stroke:none;fill:black;font-family:sans-serif;font-size:13;text-anchor:middle;" transform="matrix(1 0 0 1 2636.69 322)">Heavy</text>
  <text style="stroke:none;fill:black;font-family:sans-serif;font-size:13;text-anchor:middle;" transform="matrix(1 0 0 1 2933.4 322)">Black</text>
  <line style="fill:none;stroke:black;opacity:1;stroke-width:0.5;" x1="263" x2="3036" y1="1903" y2="1903"/>
  <g transform="matrix(1 0 0 1 263 1933)">
   <path d="M9.24805 0.830078Q10.8691 0.830078 12.2949 0.214844Q13.7207-0.400391 14.8096-1.49414Q15.8984-2.58789 16.5186-4.01367Q17.1387-5.43945 17.1387-7.05078Q17.1387-8.66211 16.5186-10.0879Q15.8984-11.5137 14.8047-12.6074Q13.7109-13.7012 12.2852-14.3164Q10.8594-14.9316 9.23828-14.9316Q7.62695-14.9316 6.20117-14.3164Q4.77539-13.7012 3.69141-12.6074Q2.60742-11.5137 1.9873-10.0879Q1.36719-8.66211 1.36719-7.05078Q1.36719-5.43945 1.9873-4.01367Q2.60742-2.58789 3.69629-1.49414Q4.78516-0.400391 6.21094 0.214844Q7.63672 0.830078 9.24805 0.830078ZM9.24805-0.654297Q7.91992-0.654297 6.7627-1.14746Q5.60547-1.64062 4.73145-2.51953Q3.85742-3.39844 3.36426-4.56055Q2.87109-5.72266 2.87109-7.05078Q2.87109-8.37891 3.35938-9.54102Q3.84766-10.7031 4.72168-11.582Q5.5957-12.4609 6.75293-12.9541Q7.91016-13.4473 9.23828-13.4473Q10.5762-13.4473 11.7334-12.9541Q12.8906-12.4609 13.7695-11.582Q14.6484-10.7031 15.1465-9.54102Q15.6445-8.37891 15.6445-7.05078Q15.6445-5.72266 15.1514-4.56055Q14.6582-3.39844 13.7842-2.51953Q12.9102-1.64062 11.748-1.14746Q10.5859-0.654297 9.24805-0.654297ZM5.6543-7.05078Q5.6543-6.72852 5.85938-6.52832Q6.06445-6.32812 6.40625-6.32812L8.51562-6.32812L8.51562-4.20898Q8.51562-3.88672 8.71094-3.67676Q8.90625-3.4668 9.23828-3.4668Q9.56055-3.4668 9.77051-3.67676Q9.98047-3.88672 9.98047-4.20898L9.98047-6.32812L12.0898-6.32812Q12.4219-6.32812 12.627-6.52832Q12.832-6.72852 12.832-7.05078Q12.832-7.38281 12.627-7.58789Q12.4219-7.79297 12.0898-7.79297L9.98047-7.79297L9.98047-9.90234Q9.98047-10.2344 9.77051-10.4443Q9.56055-10.6543 9.23828-10.6543Q8.90625-10.6543 8.71094-10.4443Q8.51562-10.2344 8.51562-9.90234L8.51562-7.79297L6.40625-7.79297Q6.06445-7.79297 5.85938-7.58789Q5.6543-7.38281 5.6543-7.05078Z"/>
  </g>
  <g transform="matrix(1 0 0 1 281.867 1933)">
   <path d="M11.709 2.91016Q13.75 2.91016 15.5518 2.12891Q17.3535 1.34766 18.7305-0.0292969Q20.1074-1.40625 20.8887-3.20801Q21.6699-5.00977 21.6699-7.05078Q21.6699-9.0918 20.8887-10.8936Q20.1074-12.6953 18.7305-14.0723Q17.3535-15.4492 15.5469-16.2305Q13.7402-17.0117 11.6992-17.0117Q9.6582-17.0117 7.85645-16.2305Q6.05469-15.4492 4.68262-14.0723Q3.31055-12.6953 2.5293-10.8936Q1.74805-9.0918 1.74805-7.05078Q1.74805-5.00977 2.5293-3.20801Q3.31055-1.40625 4.6875-0.0292969Q6.06445 1.34766 7.86621 2.12891Q9.66797 2.91016 11.709 2.91016ZM11.709 1.25Q9.98047 1.25 8.47656 0.605469Q6.97266-0.0390625 5.83496-1.17676Q4.69727-2.31445 4.05762-3.81836Q3.41797-5.32227 3.41797-7.05078Q3.41797-8.7793 4.05762-10.2832Q4.69727-11.7871 5.83008-12.9297Q6.96289-14.0723 8.4668-14.7119Q9.9707-15.3516 11.6992-15.3516Q13.4277-15.3516 14.9316-14.7119Q16.4355-14.0723 17.5781-12.9297Q18.7207-11.7871 19.3652-10.2832Q20.0098-8.7793 20.0098-7.05078Q20.0098-5.32227 19.3701-3.81836Q18.7305-2.31445 17.5928-1.17676Q16.4551-0.0390625 14.9463 0.605469Q13.4375 1.25 11.709 1.25ZM7.17773-7.05078Q7.17773-6.69922 7.41211-6.47461Q7.64648-6.25 8.01758-6.25L10.8887-6.25L10.8887-3.36914Q10.8887-2.99805 11.1133-2.76855Q11.3379-2.53906 11.6895-2.53906Q12.0605-2.53906 12.29-2.76855Q12.5195-2.99805 12.5195-3.36914L12.5195-6.25L15.4004-6.25Q15.7715-6.25 16.001-6.47461Q16.2305-6.69922 16.2305-7.05078Q16.2305-7.42188 16.001-7.65137Q15.7715-7.88086 15.4004-7.88086L12.5195-7.88086L12.5195-10.752Q12.5195-11.1328 12.29-11.3623Q12.0605-11.5918 11.6895-11.5918Q11.3379-11.5918 11.1133-11.3574Q10.8887-11.123 10.8887-10.752L10.8887-7.88086L8.01758-7.88086Q7.63672-7.88086 7.40723-7.65137Q7.17773-7.42188 7.17773-7.05078Z"/>
  </g>
  <g transform="matrix(1 0 0 1 305.646 1933)">
   <path d="M14.9707 5.66406Q17.0605 5.66406 18.96 5.01465Q20.8594 4.36523 22.4512 3.19336Q24.043 2.02148 25.2197 0.429688Q26.3965-1.16211 27.0459-3.06641Q27.6953-4.9707 27.6953-7.05078Q27.6953-9.14062 27.0459-11.04Q26.3965-12.9395 25.2197-14.5312Q24.043-16.123 22.4512-17.2998Q20.8594-18.4766 18.9551-19.126Q17.0508-19.7754 14.9609-19.7754Q12.8711-19.7754 10.9717-19.126Q9.07227-18.4766 7.48535-17.2998Q5.89844-16.123 4.72168-14.5312Q3.54492-12.9395 2.90039-11.04Q2.25586-9.14062 2.25586-7.05078Q2.25586-4.9707 2.90527-3.06641Q3.55469-1.16211 4.72656 0.429688Q5.89844 2.02148 7.49023 3.19336Q9.08203 4.36523 10.9814 5.01465Q12.8809 5.66406 14.9707 5.66406ZM14.9707 3.84766Q13.1641 3.84766 11.5283 3.2959Q9.89258 2.74414 8.53516 1.74805Q7.17773 0.751953 6.17676-0.610352Q5.17578-1.97266 4.62891-3.6084Q4.08203-5.24414 4.08203-7.05078Q4.08203-8.86719 4.62891-10.5029Q5.17578-12.1387 6.17188-13.501Q7.16797-14.8633 8.52539-15.8594Q9.88281-16.8555 11.5186-17.4023Q13.1543-17.9492 14.9609-17.9492Q16.7773-17.9492 18.4131-17.4023Q20.0488-16.8555 21.4111-15.8594Q22.7734-14.8633 23.7695-13.501Q24.7656-12.1387 25.3174-10.5029Q25.8691-8.86719 25.8691-7.05078Q25.8789-5.24414 25.332-3.6084Q24.7852-1.97266 23.7842-0.610352Q22.7832 0.751953 21.4209 1.74805Q20.0586 2.74414 18.4229 3.2959Q16.7871 3.84766 14.9707 3.84766ZM9.19922-7.05078Q9.19922-6.66992 9.45801-6.4209Q9.7168-6.17188 10.1172-6.17188L14.0625-6.17188L14.0625-2.2168Q14.0625-1.81641 14.3115-1.55762Q14.5605-1.29883 14.9512-1.29883Q15.3516-1.29883 15.6104-1.55273Q15.8691-1.80664 15.8691-2.2168L15.8691-6.17188L19.8242-6.17188Q20.2246-6.17188 20.4785-6.4209Q20.7324-6.66992 20.7324-7.05078Q20.7324-7.46094 20.4785-7.71484Q20.2246-7.96875 19.8242-7.96875L15.8691-7.96875L15.8691-11.9141Q15.8691-12.3242 15.6104-12.583Q15.3516-12.8418 14.9512-12.8418Q14.5605-12.8418 14.3115-12.583Q14.0625-12.3242 14.0625-11.9141L14.0625-7.96875L10.1172-7.96875Q9.70703-7.96875 9.45312-7.71484Q9.19922-7.46094 9.19922-7.05078Z"/>
  </g>
  <text style="stroke:none;fill:black;font-family:sans-serif;font-size:13;font-weight:bold;" transform="matrix(1 0 0 1 263 1953)">Design Variations</text>
  <text style="stroke:none;fill:black;font-family:sans-serif;font-size:13;" transform="matrix(1 0 0 1 263 1971)">Symbols are supported in up to nine weights and three scales.</text>
  <text style="stroke:none;fill:black;font-family:sans-serif;font-size:13;" transform="matrix(1 0 0 1 263 1989)">For optimal layout with text and other symbols, vertically align</text>
  <text style="stroke:none;fill:black;font-family:sans-serif;font-size:13;" transform="matrix(1 0 0 1 263 2007)">symbols with the adjacent text.</text>
  <line style="fill:none;stroke:#00AEEF;stroke-width:0.5;opacity:1.0;" x1="776" x2="776" y1="1919" y2="1933"/>
  <g transform="matrix(1 0 0 1 776 1933)">
   <path d="M3.31055 0.15625Q3.70117 0.15625 3.91602-0.00976562Q4.13086-0.175781 4.26758-0.585938L5.52734-4.0332L11.2891-4.0332L12.5488-0.585938Q12.6855-0.175781 12.9004-0.00976562Q13.1152 0.15625 13.4961 0.15625Q13.8867 0.15625 14.1162-0.0585938Q14.3457-0.273438 14.3457-0.644531Q14.3457-0.869141 14.2383-1.17188L9.6582-13.3691Q9.48242-13.8184 9.17969-14.043Q8.87695-14.2676 8.4082-14.2676Q7.5-14.2676 7.17773-13.3789L2.59766-1.16211Q2.49023-0.859375 2.49023-0.634766Q2.49023-0.263672 2.70996-0.0537109Q2.92969 0.15625 3.31055 0.15625ZM6.00586-5.51758L8.37891-12.0898L8.42773-12.0898L10.8008-5.51758Z"/>
  </g>
  <line style="fill:none;stroke:#00AEEF;stroke-width:0.5;opacity:1.0;" x1="793.197" x2="793.197" y1="1919" y2="1933"/>
  <text style="stroke:none;fill:black;font-family:sans-serif;font-size:13;font-weight:bold;" transform="matrix(1 0 0 1 776 1953)">Margins</text>
  <text style="stroke:none;fill:black;font-family:sans-serif;font-size:13;" transform="matrix(1 0 0 1 776 1971)">Leading and trailing margins on the left and right side of each symbol</text>
  <text style="stroke:none;fill:black;font-family:sans-serif;font-size:13;" transform="matrix(1 0 0 1 776 1989)">can be adjusted by modifying the x-location of the margin guidelines.</text>
  <text style="stroke:none;fill:black;font-family:sans-serif;font-size:13;" transform="matrix(1 0 0 1 776 2007)">Modifications are automatically applied proportionally to all</text>
  <text style="stroke:none;fill:black;font-family:sans-serif;font-size:13;" transform="matrix(1 0 0 1 776 2025)">scales and weights.</text>
  <g transform="matrix(1 0 0 1 1289 1933)">
   <path d="M2.8418 1.86523L4.54102 3.57422Q5.18555 4.22852 5.90332 4.17969Q6.62109 4.13086 7.31445 3.35938L18.0078-8.42773L17.041-9.4043L6.42578 2.27539Q6.16211 2.57812 5.89355 2.61719Q5.625 2.65625 5.27344 2.30469L4.10156 1.14258Q3.75 0.791016 3.79395 0.522461Q3.83789 0.253906 4.14062-0.0195312L15.6152-10.8203L14.6387-11.7871L3.04688-0.898438Q2.30469-0.214844 2.25098 0.498047Q2.19727 1.21094 2.8418 1.86523ZM9.25781-16.3281Q8.94531-16.0254 8.90625-15.6348Q8.86719-15.2441 9.04297-14.9512Q9.21875-14.6777 9.55566-14.541Q9.89258-14.4043 10.3809-14.5215Q11.4746-14.7754 12.5977-14.7314Q13.7207-14.6875 14.7949-13.9844L14.209-12.5293Q13.9551-11.9043 14.0674-11.4404Q14.1797-10.9766 14.5801-10.5664L16.875-8.25195Q17.2363-7.88086 17.5781-7.82227Q17.9199-7.76367 18.3398-7.8418L19.4043-8.03711L20.0684-7.36328L20.0293-6.80664Q20-6.43555 20.1221-6.12305Q20.2441-5.81055 20.6055-5.44922L21.3672-4.70703Q21.7285-4.3457 22.1533-4.33105Q22.5781-4.31641 22.9297-4.66797L25.8398-7.58789Q26.1914-7.93945 26.1816-8.35449Q26.1719-8.76953 25.8105-9.13086L25.0391-9.89258Q24.6875-10.2539 24.3799-10.3857Q24.0723-10.5176 23.7109-10.4883L23.1348-10.4395L22.4902-11.0742L22.7344-12.1973Q22.832-12.6172 22.6953-12.9834Q22.5586-13.3496 22.1191-13.7891L19.9219-15.9766Q18.6719-17.2168 17.2607-17.8369Q15.8496-18.457 14.4189-18.4814Q12.9883-18.5059 11.665-17.959Q10.3418-17.4121 9.25781-16.3281ZM10.752-15.957Q11.6602-16.6211 12.7002-16.9043Q13.7402-17.1875 14.8047-17.085Q15.8691-16.9824 16.8701-16.5137Q17.8711-16.0449 18.7012-15.2051L21.1328-12.793Q21.3086-12.6172 21.3525-12.4512Q21.3965-12.2852 21.3379-12.0312L21.0156-10.5469L22.5195-9.0625L23.5059-9.12109Q23.6914-9.13086 23.7891-9.09668Q23.8867-9.0625 24.0332-8.91602L24.6094-8.33984L22.168-5.89844L21.5918-6.47461Q21.4453-6.62109 21.4062-6.71875Q21.3672-6.81641 21.377-7.01172L21.4453-7.98828L19.9512-9.47266L18.4277-9.21875Q18.1836-9.16992 18.042-9.2041Q17.9004-9.23828 17.7148-9.41406L15.7129-11.416Q15.5176-11.5918 15.4932-11.7529Q15.4688-11.9141 15.5859-12.1875L16.4648-14.2773Q15.293-15.3711 13.8281-15.791Q12.3633-16.2109 10.8398-15.7617Q10.7227-15.7324 10.6885-15.8057Q10.6543-15.8789 10.752-15.957Z"/>
  </g>
  <text style="stroke:none;fill:black;font-family:sans-serif;font-size:13;font-weight:bold;" transform="matrix(1 0 0 1 1289 1953)">Exporting</text>
  <text style="stroke:none;fill:black;font-family:sans-serif;font-size:13;" transform="matrix(1 0 0 1 1289 1971)">Symbols should be outlined when exporting to ensure the</text>
  <text style="stroke:none;fill:black;font-family:sans-serif;font-size:13;" transform="matrix(1 0 0 1 1289 1989)">design is preserved when submitting to Xcode.</text>
  <text id="template-version" style="stroke:none;fill:black;font-family:sans-serif;font-size:13;text-anchor:end;" transform="matrix(1 0 0 1 3036 1933)">Template v.2.0</text>
  <text style="stroke:none;fill:black;font-family:sans-serif;font-size:13;text-anchor:end;" transform="matrix(1 0 0 1 3036 1951)">Requires Xcode 12 or greater</text>
  <text id="descriptive-name" style="stroke:none;fill:black;font-family:sans-serif;font-size:13;text-anchor:end;" transform="matrix(1 0 0 1 3036 1969)">Generated from checkerboard.shield.cr</text>
  <text style="stroke:none;fill:black;font-family:sans-serif;font-size:13;text-anchor:end;" transform="matrix(1 0 0 1 3036 1987)">Typeset at 100 points</text>
  <text style="stroke:none;fill:black;font-family:sans-serif;font-size:13;" transform="matrix(1 0 0 1 263 726)">Small</text>
  <text style="stroke:none;fill:black;font-family:sans-serif;font-size:13;" transform="matrix(1 0 0 1 263 1156)">Medium</text>
  <text style="stroke:none;fill:black;font-family:sans-serif;font-size:13;" transform="matrix(1 0 0 1 263 1586)">Large</text>
 </g>
 <g id="Guides">
  <g id="H-reference" style="fill:#27AAE1;stroke:none;" transform="matrix(1 0 0 1 339 696)">
   <path d="M0.993347 0L3.6377 0L29.3282-67.1326L30.0301-67.1326L30.0301-70.459L28.1227-70.459ZM11.6882-24.4797L46.9818-24.4797L46.2311-26.7288L12.4382-26.7288ZM55.1193 0L57.7637 0L30.6381-70.459L29.4327-70.459L29.4327-67.1326Z"/>
  </g>
  <line id="Baseline-S" style="fill:none;stroke:#27AAE1;opacity:1;stroke-width:0.5;" x1="263" x2="3036" y1="696" y2="696"/>
  <line id="Capline-S" style="fill:none;stroke:#27AAE1;opacity:1;stroke-width:0.5;" x1="263" x2="3036" y1="625.541" y2="625.541"/>
  <g id="H-reference" style="fill:#27AAE1;stroke:none;" transform="matrix(1 0 0 1 339 1126)">
   <path d="M0.993347 0L3.6377 0L29.3282-67.1326L30.0301-67.1326L30.0301-70.459L28.1227-70.459ZM11.6882-24.4797L46.9818-24.4797L46.2311-26.7288L12.4382-26.7288ZM55.1193 0L57.7637 0L30.6381-70.459L29.4327-70.459L29.4327-67.1326Z"/>
  </g>
  <line id="Baseline-M" style="fill:none;stroke:#27AAE1;opacity:1;stroke-width:0.5;" x1="263" x2="3036" y1="1126" y2="1126"/>
  <line id="Capline-M" style="fill:none;stroke:#27AAE1;opacity:1;stroke-width:0.5;" x1="263" x2="3036" y1="1055.54" y2="1055.54"/>
  <g id="H-reference" style="fill:#27AAE1;stroke:none;" transform="matrix(1 0 0 1 339 1556)">
   <path d="M0.993347 0L3.6377 0L29.3282-67.1326L30.0301-67.1326L30.0301-70.459L28.1227-70.459ZM11.6882-24.4797L46.9818-24.4797L46.2311-26.7288L12.4382-26.7288ZM55.1193 0L57.7637 0L30.6381-70.459L29.4327-70.459L29.4327-67.1326Z"/>
  </g>
  <line id="Baseline-L" style="fill:none;stroke:#27AAE1;opacity:1;stroke-width:0.5;" x1="263" x2="3036" y1="1556" y2="1556"/>
  <line id="Capline-L" style="fill:none;stroke:#27AAE1;opacity:1;stroke-width:0.5;" x1="263" x2="3036" y1="1485.54" y2="1485.54"/>
  <line id="left-margin" style="fill:none;stroke:#00AEEF;stroke-width:0.5;opacity:1.0;" x1="1392.06" x2="1392.06" y1="1030.78" y2="1150.12"/>
  <line id="right-margin" style="fill:none;stroke:#00AEEF;stroke-width:0.5;opacity:1.0;" x1="1507.63" x2="1507.63" y1="1030.78" y2="1150.12"/>
 </g>
 <g id="Symbols">
  <g id="Black-L" transform="matrix(1 0 0 1 2860.28 1556)">
   <path d="M76.16-100.395L120.25-85.315C125.1-83.655 128.36-79.095 128.36-73.965L128.36-41.915C128.36-33.675 127.02-25.655 124.34-17.895C121.69-10.225 117.99-3.185 113.24 3.195C108.5 9.545 102.87 15.075 96.39 19.755C90.1 24.305 83.25 27.755 75.86 30.095C73.53 30.835 71.03 30.835 68.69 30.095C61.31 27.755 54.45 24.305 48.17 19.755C41.68 15.075 36.06 9.545 31.32 3.195C26.56-3.185 22.86-10.225 20.21-17.895C17.53-25.655 16.19-33.675 16.19-41.915L16.19-73.965C16.19-79.095 19.45-83.655 24.31-85.315L68.39-100.395C70.91-101.255 73.64-101.255 76.16-100.395ZM72.85-82.505L72.85-33.425L34.83-33.425C35.34-30.155 36.13-26.935 37.23-23.765C39.29-17.805 42.13-12.415 45.74-7.575C49.38-2.705 53.69 1.535 58.72 5.175C62.92 8.215 67.43 10.585 72.28 12.315C72.47 12.245 72.66 12.175 72.86 12.105L72.86-33.405L109.72-33.405C110.15-36.195 110.36-39.035 110.36-41.915L110.36-69.675L72.85-82.505Z"/>
  </g>
  <g id="Heavy-L" transform="matrix(1 0 0 1 2564.05 1556)">
   <path d="M75.35-100.438L119.95-85.1775C124.4-83.6575 127.39-79.4775 127.39-74.7775L127.39-42.3475C127.39-34.1375 126.05-26.1575 123.38-18.4175C120.74-10.7775 117.05-3.7575 112.31 2.5925C107.59 8.9225 101.98 14.4325 95.52 19.1025C89.25 23.6325 82.43 27.0725 75.07 29.4025C72.93 30.0825 70.64 30.0825 68.51 29.4025C61.15 27.0725 54.33 23.6325 48.06 19.1025C41.6 14.4325 35.99 8.9225 31.26 2.5925C26.53-3.7575 22.84-10.7775 20.2-18.4175C17.53-26.1575 16.19-34.1375 16.19-42.3475L16.19-74.7775C16.19-79.4775 19.18-83.6575 23.63-85.1775L68.23-100.438C70.54-101.228 73.04-101.228 75.35-100.438ZM72.05-84.6475L72.05-34.4075L32.73-34.4075C33.24-30.7575 34.1-27.1675 35.32-23.6475C37.44-17.5075 40.36-11.9675 44.09-6.9775C47.83-1.9675 52.27 2.4025 57.44 6.1425C61.88 9.3525 66.65 11.8425 71.79 13.6325L72.06 13.5425L72.06-34.3875L110.84-34.3875C111.21-36.9975 111.39-39.6575 111.39-42.3475L111.39-71.1975L72.05-84.6475Z"/>
  </g>
  <g id="Bold-L" transform="matrix(1 0 0 1 2269.09 1556)">
   <path d="M73.15-98.975L117.5-83.585C121.33-82.255 123.89-78.655 123.89-74.615L123.89-41.855C123.89-33.765 122.59-25.885 119.99-18.255C117.42-10.695 113.83-3.765 109.21 2.515C104.61 8.775 99.14 14.225 92.82 18.855C86.73 23.335 80.08 26.735 72.91 29.035C71.04 29.635 69.04 29.635 67.17 29.035C60 26.735 53.35 23.335 47.25 18.855C40.94 14.225 35.47 8.775 30.87 2.515C26.25-3.765 22.66-10.695 20.09-18.255C17.49-25.885 16.19-33.765 16.19-41.855L16.19-74.615C16.19-78.655 18.75-82.255 22.58-83.585L66.93-98.975C68.94-99.675 71.14-99.675 73.15-98.975ZM70.05-86.285L70.05-34.385L29.65-34.385C30.15-30.325 31.06-26.355 32.39-22.445C34.56-16.095 37.54-10.355 41.34-5.185C45.16-0.005 49.68 4.515 54.94 8.375C59.61 11.795 64.63 14.425 70.04 16.285L70.06 16.285L70.06-34.365L110.43-34.365C110.74-36.825 110.89-39.325 110.89-41.855L110.89-72.125L70.05-86.285Z"/>
  </g>
  <g id="Semibold-L" transform="matrix(1 0 0 1 1973.12 1556)">
   <path d="M72.21-99.2375L116.58-83.6275C120.08-82.3975 122.42-79.0875 122.42-75.3775L122.42-42.0975C122.42-33.9875 121.14-26.0975 118.57-18.4475C116.02-10.8575 112.47-3.9075 107.91 2.3925C103.35 8.6725 97.94 14.1425 91.69 18.8025C85.65 23.2925 79.08 26.7025 71.98 29.0125C70.24 29.5825 68.37 29.5825 66.64 29.0125C59.54 26.7025 52.96 23.2925 46.93 18.8025C40.67 14.1425 35.26 8.6725 30.71 2.3925C26.14-3.9075 22.59-10.8575 20.04-18.4475C17.47-26.0975 16.19-33.9875 16.19-42.0975L16.19-75.3775C16.19-79.0875 18.53-82.3975 22.04-83.6275L66.4-99.2375C68.28-99.9075 70.33-99.9075 72.21-99.2375ZM69.6-87.9675L69.6-35.3775L28.04-35.3775C28.52-30.8575 29.49-26.4375 30.94-22.1075C33.13-15.5875 36.16-9.6775 40.02-4.3575C43.88 0.9725 48.47 5.6125 53.79 9.5725C58.58 13.1325 63.75 15.8625 69.31 17.7825L69.61 17.6825L69.61-35.3575L110.57-35.3575C110.8-37.5775 110.92-39.8275 110.92-42.0975L110.92-73.4275L69.6-87.9675Z"/>
  </g>
  <g id="Medium-L" transform="matrix(1 0 0 1 1677.52 1556)">
   <path d="M70.85-97.5125L114.85-82.0225C118.05-80.8925 120.19-77.8725 120.19-74.4725L120.19-41.4425C120.19-33.4725 118.93-25.7125 116.41-18.1825C113.9-10.7225 110.41-3.8725 105.92 2.3175C101.45 8.4975 96.13 13.8775 89.98 18.4575C84.05 22.8675 77.6 26.2175 70.63 28.4975C69.04 29.0175 67.34 29.0175 65.75 28.4975C58.78 26.2175 52.33 22.8675 46.4 18.4575C40.26 13.8775 34.93 8.4975 30.46 2.3175C25.97-3.8725 22.48-10.7225 19.97-18.1825C17.45-25.7125 16.19-33.4725 16.19-41.4425L16.19-74.4725C16.19-77.8725 18.33-80.8925 21.53-82.0225L65.53-97.5125C67.25-98.1225 69.13-98.1225 70.85-97.5125ZM68.85-87.6125L68.85-34.3625L26.58-34.3625C27.07-29.9425 28.03-25.6125 29.46-21.3625C31.65-14.8225 34.69-8.8925 38.56-3.5525C42.43 1.7975 47.04 6.4575 52.38 10.4375C57.25 14.0675 62.52 16.8375 68.19 18.7675C68.41 18.6975 68.63 18.6175 68.86 18.5375L68.86-34.3425L109.8-34.3425C110.06-36.6825 110.19-39.0525 110.19-41.4425L110.19-73.0625L68.85-87.6125Z"/>
  </g>
  <g id="Regular-L" transform="matrix(1 0 0 1 1380.56 1556)">
   <path d="M68.44-88.6325L68.1-88.5225L68.1-34.3425L25.07-34.3425C25.57-29.7725 26.56-25.3025 28.06-20.9225C30.33-14.2925 33.46-8.2725 37.46-2.8525C41.47 2.5775 46.23 7.3075 51.75 11.3475C56.79 15.0275 62.23 17.8475 68.11 19.8175L68.11-34.3225L111.81-34.3225C112.06-36.6125 112.19-38.9325 112.19-41.2725L112.19-73.5025L68.44-88.6325ZM66.07-96.8125C67.61-97.3425 69.27-97.3425 70.81-96.8125L115.81-81.2425C118.73-80.2325 120.69-77.4825 120.69-74.3925L120.69-41.2725C120.69-33.3525 119.41-25.6425 116.86-18.1725C114.33-10.7425 110.79-3.9525 106.26 2.1875C101.73 8.3275 96.36 13.6675 90.15 18.2075C84.16 22.5875 77.64 25.9075 70.61 28.1575C69.2 28.6075 67.68 28.6075 66.27 28.1575C59.24 25.9075 52.72 22.5875 46.73 18.2075C40.52 13.6675 35.15 8.3275 30.62 2.1875C26.09-3.9525 22.55-10.7425 20.02-18.1725C17.47-25.6425 16.19-33.3525 16.19-41.2725L16.19-74.3925C16.19-77.4825 18.15-80.2325 21.07-81.2425L66.07-96.8125Z"/>
  </g>
  <g id="Light-L" transform="matrix(1 0 0 1 1085.47 1556)">
   <path d="M64.79-95.5775C66.1-96.0475 67.53-96.0475 68.84-95.5775L113.46-79.5975C115.85-78.7375 117.44-76.4775 117.44-73.9475L117.44-39.8275C117.44-31.8475 116.2-24.0875 113.72-16.5575C111.25-9.0675 107.81-2.2075 103.39 3.9925C98.98 10.1825 93.74 15.5725 87.68 20.1625C81.85 24.5725 75.51 27.9225 68.66 30.2025C67.46 30.6025 66.17 30.6025 64.97 30.2025C58.12 27.9225 51.78 24.5725 45.95 20.1625C39.89 15.5725 34.65 10.1825 30.24 3.9925C25.83-2.2075 22.38-9.0675 19.91-16.5575C17.43-24.0875 16.19-31.8475 16.19-39.8275L16.19-73.9475C16.19-76.4775 17.78-78.7375 20.17-79.5975L64.79-95.5775ZM111.44-73.9475L67.1-89.8275L67.1-34.3275L22.41-34.3275C22.84-28.9075 23.9-23.6075 25.61-18.4375C27.9-11.4875 31.08-5.1775 35.13 0.5025C39.18 6.2025 44 11.1525 49.58 15.3825C54.87 19.3925 60.61 22.4225 66.82 24.4925C66.91 24.4625 67.01 24.4225 67.11 24.3925L67.11-34.3075L111.22-34.3075C111.37-36.1275 111.44-37.9675 111.44-39.8275L111.44-73.9475Z"/>
  </g>
  <g id="Thin-L" transform="matrix(1 0 0 1 790.762 1556)">
   <path d="M65.279-90.34C65.246-90.35 65.213-90.36 65.18-90.37L65.18-33.3L19.726-33.3C20.198-28.13 21.25-23.07 22.883-18.11C25.184-11.14 28.376-4.79 32.455 0.94C36.537 6.67 41.383 11.66 46.996 15.91C52.346 19.96 58.154 23.03 64.426 25.11C64.671 25.19 64.935 25.2 65.181 25.12L65.181-33.28L109.901-33.28C110.094-35.38 110.19-37.5 110.19-39.64L110.19-73.28C110.19-73.87 109.825-74.38 109.279-74.58L65.279-90.34ZM63.255-93.4C64.264-93.76 65.366-93.76 66.375-93.4L110.375-77.64C112.213-76.98 113.44-75.24 113.44-73.28L113.44-39.64C113.44-31.9 112.238-24.39 109.833-17.1C107.434-9.82 104.098-3.18 99.822 2.82C95.548 8.82 90.472 14.05 84.596 18.5C78.967 22.76 72.843 26 66.229 28.2C65.311 28.5 64.319 28.5 63.401 28.2C56.787 26 50.663 22.76 45.034 18.5C39.158 14.05 34.081 8.82 29.808 2.82C25.532-3.18 22.195-9.82 19.797-17.1C17.392-24.39 16.19-31.9 16.19-39.64L16.19-73.28C16.19-75.24 17.417-76.98 19.255-77.64L63.255-93.4Z"/>
  </g>
  <g id="Ultralight-L" transform="matrix(1 0 0 1 494.576 1556)">
   <path d="M62.868-94.735C63.786-95.075 64.794-95.075 65.712-94.735L109.712-78.465C111.321-77.875 112.39-76.335 112.39-74.615L112.39-39.805C112.39-31.885 111.198-24.195 108.813-16.725C106.431-9.275 103.121-2.475 98.879 3.675C94.638 9.815 89.6 15.165 83.767 19.725C78.191 24.085 72.126 27.395 65.575 29.645C65.087 29.815 64.574 29.885 64.066 29.855L63.957 29.915L63.957 29.845C63.635 29.815 63.315 29.755 63.005 29.645C56.454 27.395 50.388 24.085 44.812 19.725C38.98 15.165 33.942 9.815 29.701 3.675C25.459-2.475 22.148-9.275 19.767-16.725C17.382-24.195 16.19-31.885 16.19-39.805L16.19-74.615C16.19-76.335 17.259-77.875 18.868-78.465L62.868-94.735ZM63.956-92.755L63.956-34.155L18.602-34.155C19.032-28.435 20.119-22.855 21.863-17.395C24.181-10.145 27.399-3.535 31.512 2.425C35.627 8.385 40.511 13.575 46.167 17.995C51.555 22.205 57.405 25.395 63.72 27.565C63.798 27.595 63.877 27.615 63.957 27.625L63.957-34.125L109.977-34.125C110.119-36.005 110.19-37.905 110.19-39.805L110.19-74.615C110.19-75.415 109.695-76.125 108.949-76.405L64.949-92.665C64.63-92.785 64.287-92.815 63.956-92.755Z"/>
  </g>
  <g id="Black-M" transform="matrix(1 0 0 1 2871.77 1126)">
   <path d="M60.79-73.26L59.9-72.96L59.9-36.92L31.43-36.92C31.78-33.68 32.49-30.51 33.56-27.39C35.17-22.73 37.39-18.53 40.21-14.74C43.05-10.94 46.42-7.63 50.34-4.79C53.34-2.62 56.54-0.89 59.95 0.42L59.95-36.74L90.13-36.74C90.3-38.33 90.39-39.93 90.39-41.55L90.39-63.14L60.79-73.26ZM57.39-87.95C59.59-88.71 61.98-88.71 64.19-87.95L98.29-76.29C102.54-74.84 105.39-70.85 105.39-66.36L105.39-41.55C105.39-35.02 104.32-28.66 102.2-22.5C100.1-16.42 97.16-10.83 93.39-5.77C89.63-0.74 85.17 3.65 80.02 7.37C75.1 10.93 69.73 13.65 63.95 15.5C61.89 16.16 59.69 16.16 57.63 15.5C51.85 13.65 46.48 10.93 41.55 7.37C36.41 3.65 31.95-0.74 28.19-5.77C24.42-10.83 21.48-16.42 19.38-22.5C17.25-28.66 16.19-35.02 16.19-41.55L16.19-66.36C16.19-70.85 19.04-74.84 23.29-76.29L57.39-87.95Z"/>
  </g>
  <g id="Heavy-M" transform="matrix(1 0 0 1 2576.39 1126)">
   <path d="M59.45-73.3L59.1-73.18L59.1-35.9L29.47-35.9C29.83-32.73 30.54-29.61 31.59-26.56C33.22-21.85 35.46-17.6 38.32-13.78C41.18-9.93 44.59-6.58 48.56-3.71C51.84-1.34 55.37 0.53 59.15 1.89L59.15-35.72L89.41-35.72C89.61-37.43 89.71-39.15 89.71-40.9L89.71-62.95L59.45-73.3ZM56.38-85.99C58.37-86.67 60.53-86.67 62.53-85.99L96.29-74.44C100.13-73.13 102.71-69.51 102.71-65.45L102.71-40.9C102.71-34.53 101.67-28.32 99.6-22.32C97.55-16.38 94.69-10.93 91.01-6C87.34-1.09 82.98 3.19 77.96 6.82C73.16 10.29 67.93 12.94 62.3 14.75C60.45 15.35 58.45 15.35 56.6 14.75C50.97 12.94 45.74 10.29 40.94 6.82C35.92 3.19 31.56-1.09 27.9-6C24.22-10.93 21.35-16.38 19.3-22.32C17.23-28.32 16.19-34.53 16.19-40.9L16.19-65.45C16.19-69.51 18.77-73.13 22.62-74.44L56.38-85.99Z"/>
  </g>
  <g id="Bold-M" transform="matrix(1 0 0 1 2280.8 1126)">
   <path d="M58.33-74.3375L57.6-74.0875L57.6-35.8875L27.41-35.8875C27.75-32.3775 28.5-28.9375 29.64-25.5775C31.3-20.7075 33.59-16.3075 36.5-12.3475C39.43-8.3675 42.9-4.9075 46.93-1.9475C50.26 0.4925 53.82 2.4125 57.65 3.8125L57.65-35.7075L89.24-35.7075C89.4-37.2775 89.48-38.8475 89.48-40.4475L89.48-63.5275L58.33-74.3375ZM55.55-85.0075C57.35-85.6375 59.31-85.6375 61.12-85.0075L94.76-73.3375C98.18-72.1475 100.48-68.9275 100.48-65.3075L100.48-40.4475C100.48-34.1275 99.46-27.9775 97.43-22.0275C95.43-16.1375 92.63-10.7275 89.02-5.8275C85.43-0.9475 81.17 3.3125 76.24 6.9225C71.55 10.3625 66.43 12.9925 60.91 14.7925C59.24 15.3425 57.43 15.3425 55.75 14.7925C50.24 12.9925 45.12 10.3625 40.42 6.9225C35.5 3.3125 31.23-0.9475 27.64-5.8275C24.04-10.7275 21.24-16.1375 19.23-22.0275C17.2-27.9775 16.19-34.1275 16.19-40.4475L16.19-65.3075C16.19-68.9275 18.48-72.1475 21.9-73.3375L55.55-85.0075Z"/>
  </g>
  <g id="Semibold-M" transform="matrix(1 0 0 1 1984.98 1126)">
   <path d="M54.87-84.2775C56.53-84.8675 58.35-84.8675 60.01-84.2775L93.51-72.4875C96.61-71.3975 98.69-68.4675 98.69-65.1775L98.69-40.0275C98.69-33.7375 97.7-27.6275 95.71-21.6975C93.73-15.8175 90.98-10.4275 87.44-5.5575C83.91-0.6875 79.72 3.5525 74.88 7.1625C70.26 10.5925 65.24 13.2125 59.82 15.0025C58.27 15.5225 56.61 15.5225 55.06 15.0025C49.64 13.2125 44.62 10.5925 40 7.1625C35.16 3.5525 30.97-0.6875 27.44-5.5575C23.9-10.4275 21.15-15.8175 19.17-21.6975C17.18-27.6275 16.19-33.7375 16.19-40.0275L16.19-65.1775C16.19-68.4675 18.27-71.3975 21.37-72.4875L54.87-84.2775ZM57.44-75.1075L57.15-75.0075L57.15-35.8775L25.86-35.8775C26.19-32.0775 26.96-28.3575 28.18-24.7175C29.86-19.7175 32.18-15.1975 35.13-11.1275C38.09-7.0475 41.6-3.4975 45.68-0.4575C49.24 2.1925 53.07 4.2425 57.2 5.7025L57.2-35.6975L89-35.6975C89.13-37.1275 89.19-38.5675 89.19-40.0275L89.19-63.9375L57.44-75.1075Z"/>
  </g>
  <g id="Medium-M" transform="matrix(1 0 0 1 1688.52 1126)">
   <path d="M54.7-84.0325C56.31-84.6025 58.07-84.6025 59.68-84.0325L93.18-72.2325C96.18-71.1825 98.19-68.3425 98.19-65.1625L98.19-39.9825C98.19-33.7225 97.2-27.6325 95.22-21.7325C93.25-15.8725 90.51-10.5025 86.99-5.6425C83.48-0.7925 79.3 3.4375 74.48 7.0275C69.89 10.4475 64.89 13.0575 59.49 14.8475C58 15.3375 56.38 15.3375 54.89 14.8475C49.49 13.0575 44.49 10.4475 39.9 7.0275C35.08 3.4375 30.9-0.7925 27.39-5.6425C23.87-10.5025 21.13-15.8725 19.16-21.7325C17.18-27.6325 16.19-33.7225 16.19-39.9825L16.19-65.1625C16.19-68.3425 18.2-71.1825 21.2-72.2325L54.7-84.0325ZM57.19-75.3725L56.9-75.2725L56.9-35.8725L25.36-35.8725C25.68-32.0225 26.46-28.2625 27.69-24.5925C29.38-19.5625 31.71-15.0125 34.68-10.9225C37.65-6.8125 41.18-3.2425 45.28-0.1925C48.88 2.4975 52.77 4.5675 56.95 6.0375L56.95-35.6925L89-35.6925C89.13-37.1125 89.19-38.5425 89.19-39.9825L89.19-64.1025L57.19-75.3725Z"/>
  </g>
  <g id="Regular-M" transform="matrix(1 0 0 1 1392.06 1126)">
   <path d="M56.94-76.155L56.15-75.885L56.15-35.855L23.88-35.855C24.22-32.025 25.01-28.275 26.26-24.615C27.99-19.545 30.39-14.955 33.44-10.815C36.5-6.665 40.13-3.055 44.35 0.025C48.01 2.705 51.96 4.785 56.2 6.275L56.2-35.675L89.99-35.675C90.12-37.155 90.19-38.645 90.19-40.155L90.19-64.655L56.94-76.155ZM54.73-83.325C56.16-83.825 57.72-83.825 59.15-83.325L93.15-71.575C95.87-70.625 97.69-68.065 97.69-65.195L97.69-40.155C97.69-33.995 96.7-27.995 94.71-22.185C92.74-16.425 90-11.145 86.47-6.365C82.96-1.595 78.78 2.555 73.95 6.085C69.36 9.445 64.36 12.005 58.97 13.755C57.65 14.185 56.23 14.185 54.91 13.755C49.52 12.005 44.52 9.445 39.93 6.085C35.1 2.555 30.92-1.595 27.41-6.365C23.88-11.145 21.14-16.425 19.17-22.185C17.18-27.995 16.19-33.995 16.19-40.155L16.19-65.195C16.19-68.065 18.01-70.625 20.73-71.575L54.73-83.325Z"/>
  </g>
  <g id="Light-M" transform="matrix(1 0 0 1 1096.6 1126)">
   <path d="M55.77-77.1625C55.72-77.1825 55.66-77.1825 55.61-77.1625L55.4-77.0925L55.4-35.8425L21.78-35.8425C22.05-31.3225 22.89-26.9225 24.31-22.6225C26.06-17.3025 28.49-12.4725 31.59-8.1225C34.7-3.7625 38.38 0.0275 42.65 3.2675C46.59 6.2475 50.85 8.5275 55.45 10.0975L55.45-35.6625L89.59-35.6625C89.66-36.7725 89.69-37.8725 89.69-38.9925L89.69-64.8325C89.69-64.9425 89.62-65.0325 89.52-65.0725L55.77-77.1625ZM53.75-82.3425C55-82.7925 56.38-82.7925 57.63-82.3425L91.38-70.2525C93.67-69.4325 95.19-67.2625 95.19-64.8325L95.19-38.9925C95.19-32.7825 94.23-26.7525 92.3-20.9025C90.38-15.0725 87.7-9.7525 84.27-4.9325C80.84-0.1125 76.76 4.0775 72.05 7.6475C67.58 11.0375 62.72 13.6175 57.47 15.3875C56.32 15.7775 55.07 15.7775 53.91 15.3875C48.66 13.6175 43.8 11.0375 39.33 7.6475C34.62 4.0775 30.54-0.1125 27.11-4.9325C23.68-9.7525 21.01-15.0725 19.08-20.9025C17.15-26.7525 16.19-32.7825 16.19-38.9925L16.19-64.8325C16.19-67.2625 17.72-69.4325 20-70.2525L53.75-82.3425Z"/>
  </g>
  <g id="Thin-M" transform="matrix(1 0 0 1 801.512 1126)">
   <path d="M54.529-77.34C54.367-77.4 54.198-77.43 54.029-77.42L54.029-34.82L19.577-34.82C19.887-30.51 20.72-26.3 22.077-22.18C23.84-16.84 26.286-11.97 29.409-7.59C32.536-3.2 36.247 0.62 40.546 3.88C44.584 6.94 48.962 9.26 53.684 10.85C53.81 10.9 53.94 10.92 54.071 10.92L54.071-34.64L88.54-34.64C88.64-35.98 88.69-37.32 88.69-38.67L88.69-64.14C88.69-64.72 88.325-65.23 87.779-65.43L54.529-77.34ZM52.505-80.4C53.514-80.76 54.616-80.76 55.625-80.4L88.875-68.49C90.713-67.83 91.94-66.09 91.94-64.14L91.94-38.67C91.94-32.66 91.006-26.83 89.139-21.16C87.278-15.52 84.688-10.36 81.368-5.7C78.05-1.05 74.108 3.01 69.546 6.47C65.233 9.73 60.544 12.22 55.485 13.93C54.564 14.24 53.566 14.24 52.645 13.93C47.585 12.22 42.897 9.73 38.584 6.47C34.022 3.01 30.08-1.05 26.762-5.7C23.441-10.36 20.852-15.52 18.99-21.16C17.123-26.83 16.19-32.66 16.19-38.67L16.19-64.14C16.19-66.09 17.417-67.83 19.255-68.49L52.505-80.4Z"/>
  </g>
  <g id="Ultralight-M" transform="matrix(1 0 0 1 504.776 1126)">
   <path d="M54.753-80.665C54.63-80.715 54.503-80.745 54.375-80.765L54.375-34.775L18.559-34.775C18.898-30.305 19.745-25.945 21.098-21.675C22.907-15.975 25.417-10.785 28.624-6.105C31.833-1.425 35.641 2.645 40.05 6.125C44.191 9.385 48.681 11.855 53.522 13.565C53.797 13.655 54.09 13.685 54.375 13.635L54.375-34.755L89.619-34.755C89.733-36.255 89.79-37.765 89.79-39.285L89.79-66.295C89.79-67.095 89.296-67.805 88.553-68.075L54.753-80.665ZM52.659-82.725C53.582-83.065 54.598-83.065 55.52-82.725L89.32-70.135C90.925-69.545 91.99-68.015 91.99-66.295L91.99-39.285C91.99-33.015 91.053-26.925 89.178-21.015C87.307-15.115 84.705-9.735 81.37-4.865C78.037-0.005 74.076 4.235 69.49 7.845C65.164 11.255 60.462 13.855 55.387 15.635C54.547 15.935 53.632 15.935 52.793 15.635C47.717 13.855 43.015 11.255 38.689 7.845C34.103 4.235 30.142-0.005 26.809-4.865C23.474-9.735 20.872-15.115 19.001-21.015C17.127-26.925 16.19-33.015 16.19-39.285L16.19-66.295C16.19-68.015 17.254-69.545 18.859-70.135L52.659-82.725Z"/>
  </g>
  <g id="Black-S" transform="matrix(1 0 0 1 2881.87 696)">
   <path d="M47.78-75.5065C49.67-76.1525 51.71-76.1525 53.6-75.5065L79.1-66.7845C82.74-65.5395 85.19-62.1175 85.19-58.2695L85.19-39.7135C85.19-34.6685 84.37-29.7535 82.72-24.9955C81.1-20.3035 78.84-15.9905 75.92-12.0855C73.02-8.1955 69.57-4.8105 65.61-1.9405C61.86 0.7655 57.8 2.8395 53.42 4.2705C51.64 4.8495 49.73 4.8495 47.96 4.2705C43.58 2.8395 39.51 0.7655 35.77-1.9405C31.8-4.8105 28.36-8.1955 25.46-12.0855C22.54-15.9905 20.28-20.3035 18.66-24.9955C17.01-29.7535 16.19-34.6685 16.19-39.7135L16.19-58.2695C16.19-62.1175 18.64-65.5395 22.28-66.7845L47.78-75.5065ZM50.69-63.8205L50.64-63.8035L50.64-35.6615L28.43-35.6615C28.71-33.3685 29.24-31.1215 30-28.9135C31.23-25.3545 32.92-22.1465 35.07-19.2615C37.24-16.3615 39.81-13.8315 42.81-11.6635C45.24-9.9035 47.85-8.5185 50.64-7.4985L50.64-35.6615L72.94-35.6615C73.11-36.9965 73.19-38.3465 73.19-39.7135L73.19-56.1245L50.69-63.8205Z"/>
  </g>
  <g id="Heavy-S" transform="matrix(1 0 0 1 2586.15 696)">
   <path d="M47.1-74.5425C48.78-75.1165 50.6-75.1165 52.28-74.5425L77.78-65.8205C81.01-64.7135 83.19-61.6715 83.19-58.2515L83.19-39.6955C83.19-34.7615 82.38-29.9565 80.78-25.3035C79.19-20.7065 76.97-16.4855 74.12-12.6655C71.28-8.8575 67.91-5.5445 64.02-2.7325C60.36-0.0875 56.39 1.9385 52.11 3.3375C50.54 3.8515 48.84 3.8515 47.27 3.3375C42.99 1.9385 39.02-0.0875 35.36-2.7325C31.47-5.5445 28.1-8.8575 25.26-12.6655C22.41-16.4855 20.19-20.7065 18.6-25.3035C16.99-29.9565 16.19-34.7615 16.19-39.6955L16.19-58.2515C16.19-61.6715 18.36-64.7135 21.6-65.8205L47.1-74.5425ZM49.69-64.8595L49.64-64.8425L49.64-33.6435L26.72-33.6435C27.03-31.9285 27.48-30.2375 28.05-28.5685C29.31-24.9155 31.06-21.6155 33.27-18.6455C35.5-15.6625 38.14-13.0615 41.22-10.8355C43.83-8.9495 46.63-7.4795 49.64-6.4185L49.64-33.6435L72.65-33.6435C73.01-35.6275 73.19-37.6435 73.19-39.6955L73.19-56.8215L49.69-64.8595Z"/>
  </g>
  <g id="Bold-S" transform="matrix(1 0 0 1 2289.69 696)">
   <path d="M51.98-74.2888L77.48-65.4408C80.6-64.3588 82.69-61.4208 82.69-58.1198L82.69-39.2538C82.69-34.2918 81.89-29.4588 80.3-24.7788C78.72-20.1498 76.52-15.8998 73.69-12.0508C70.87-8.21375 67.52-4.87275 63.65-2.03475C60.02 0.62925 56.07 2.67425 51.81 4.08625C50.27 4.59725 48.61 4.59725 47.07 4.08625C42.81 2.67425 38.86 0.62925 35.23-2.03475C31.36-4.87275 28.01-8.21375 25.19-12.0508C22.36-15.8998 20.16-20.1498 18.58-24.7788C16.99-29.4588 16.19-34.2918 16.19-39.2538L16.19-58.1198C16.19-61.4208 18.28-64.3588 21.4-65.4408L46.9-74.2888C48.55-74.8598 50.34-74.8598 51.98-74.2888ZM49.44-33.6428L26.13-33.6428C26.44-31.6778 26.93-29.7448 27.57-27.8408C28.85-24.0988 30.61-20.7198 32.84-17.6798C35.09-14.6268 37.75-11.9688 40.85-9.69475C43.51-7.74375 46.37-6.22875 49.44-5.14275L49.44-33.6428ZM49.44-65.1148L49.44-33.6428L72.75-33.6428C73.04-35.4848 73.19-37.3538 73.19-39.2538L73.19-56.8738L49.44-65.1148Z"/>
  </g>
  <g id="Semibold-S" transform="matrix(1 0 0 1 1993.48 696)">
   <path d="M48.94-65.6313L48.69-65.5433L48.69-33.6373L25.05-33.6373C25.36-31.3963 25.88-29.1943 26.61-27.0303C27.9-23.1783 29.68-19.6963 31.96-16.5643C34.23-13.4223 36.94-10.6873 40.08-8.35025C42.75-6.36425 45.61-4.81825 48.69-3.70325L48.69-33.6373L72.83-33.6373C73.07-35.3373 73.19-37.0593 73.19-38.8073L73.19-57.0973L48.94-65.6313ZM46.53-73.7953C48.09-74.3443 49.79-74.3443 51.35-73.7953L76.85-64.8213C79.75-63.8003 81.69-61.0583 81.69-57.9823L81.69-38.8073C81.69-33.8423 80.9-29.0093 79.33-24.3253C77.77-19.6873 75.6-15.4303 72.81-11.5753C70.02-7.73025 66.7-4.37925 62.88-1.53125C59.29 1.13775 55.39 3.18675 51.18 4.60375C49.73 5.09375 48.15 5.09375 46.7 4.60375C42.49 3.18675 38.59 1.13775 35-1.53125C31.18-4.37925 27.86-7.73025 25.07-11.5753C22.28-15.4303 20.11-19.6873 18.55-24.3253C16.98-29.0093 16.19-33.8423 16.19-38.8073L16.19-57.9823C16.19-61.0583 18.13-63.8003 21.03-64.8213L46.53-73.7953Z"/>
  </g>
  <g id="Medium-S" transform="matrix(1 0 0 1 1697.02 696)">
   <path d="M48.69-65.8853L48.44-65.7953L48.44-33.6393L24.42-33.6393C24.71-30.9273 25.28-28.2723 26.13-25.6693C27.44-21.6663 29.24-18.0493 31.53-14.7973C33.83-11.5363 36.56-8.70125 39.72-6.28325C42.43-4.21425 45.33-2.60825 48.44-1.45525L48.44-33.6393L72.96-33.6393C73.11-35.0523 73.19-36.4813 73.19-37.9263L73.19-57.0203L48.69-65.8853ZM46.31-73.5313C47.85-74.0883 49.53-74.0883 51.07-73.5313L76.57-64.3043C79.34-63.3013 81.19-60.6693 81.19-57.7213L81.19-37.9263C81.19-32.8743 80.41-27.9553 78.86-23.1863C77.31-18.4593 75.16-14.1193 72.38-10.1873C69.62-6.26425 66.33-2.84225 62.52 0.06975C58.96 2.79275 55.09 4.88575 50.91 6.33675C49.47 6.83675 47.91 6.83675 46.47 6.33675C42.29 4.88575 38.42 2.79275 34.86 0.06975C31.05-2.84225 27.76-6.26425 25-10.1873C22.22-14.1193 20.07-18.4593 18.53-23.1863C16.97-27.9553 16.19-32.8743 16.19-37.9263L16.19-57.7213C16.19-60.6693 18.04-63.3013 20.81-64.3043L46.31-73.5313Z"/>
  </g>
  <g id="Regular-S" transform="matrix(1 0 0 1 1400.56 696)">
   <path d="M50.48-72.8465L76.48-63.8545C79-62.9835 80.69-60.6115 80.69-57.9475L80.69-38.7845C80.69-33.9205 79.91-29.1895 78.34-24.6045C76.79-20.0555 74.62-15.8875 71.84-12.1175C69.06-8.3555 65.77-5.0795 61.96-2.2955C58.39 0.3155 54.51 2.3145 50.33 3.6945C49.1 4.1005 47.78 4.1005 46.55 3.6945C42.37 2.3145 38.49 0.3155 34.92-2.2955C31.11-5.0795 27.82-8.3555 25.04-12.1175C22.26-15.8875 20.09-20.0555 18.54-24.6045C16.97-29.1895 16.19-33.9205 16.19-38.7845L16.19-57.9475C16.19-60.6115 17.88-62.9835 20.4-63.8545L46.4-72.8465C47.72-73.3045 49.16-73.3045 50.48-72.8465ZM48.44-33.6145L23.04-33.6145C23.37-31.2705 23.92-28.9685 24.69-26.7055C26.04-22.7645 27.9-19.1935 30.27-15.9765C32.65-12.7515 35.48-9.9415 38.76-7.5415C41.74-5.3605 44.97-3.6905 48.44-2.5265L48.44-33.6145ZM48.44-66.6755L48.44-33.6145L73.84-33.6145C74.07-35.3155 74.19-37.0385 74.19-38.7845L74.19-57.7695L48.44-66.6755Z"/>
  </g>
  <g id="Light-S" transform="matrix(1 0 0 1 1105.6 696)">
   <path d="M46.86-67.3915C46.8-67.4115 46.75-67.4205 46.69-67.4205L46.69-33.6075L21.52-33.6075C21.84-31.1715 22.39-28.7805 23.16-26.4305C24.49-22.4145 26.32-18.7715 28.66-15.4905C31-12.2035 33.78-9.3435 37-6.9045C39.96-4.6625 43.16-2.9535 46.6-1.7685C46.63-1.7585 46.66-1.7535 46.69-1.7535L46.69-33.6075L71.86-33.6075C72.08-35.3085 72.19-37.0315 72.19-38.7775L72.19-57.9655C72.19-58.1765 72.06-58.3645 71.86-58.4365L46.86-67.3915ZM44.84-72.0985C46.03-72.5285 47.35-72.5285 48.55-72.0985L73.55-63.1435C75.73-62.3595 77.19-60.2875 77.19-57.9655L77.19-38.7775C77.19-34.0055 76.45-29.3645 74.96-24.8645C73.49-20.3915 71.43-16.2955 68.79-12.5895C66.16-8.8895 63.02-5.6635 59.4-2.9185C56.03-0.3625 52.36 1.5995 48.4 2.9595C47.29 3.3415 46.09 3.3415 44.98 2.9595C41.02 1.5995 37.36-0.3625 33.98-2.9185C30.36-5.6635 27.22-8.8895 24.59-12.5895C21.95-16.2955 19.89-20.3915 18.42-24.8645C16.93-29.3645 16.19-34.0055 16.19-38.7775L16.19-57.9655C16.19-60.2875 17.65-62.3595 19.84-63.1435L44.84-72.0985Z"/>
  </g>
  <g id="Thin-S" transform="matrix(1 0 0 1 809.762 696)">
   <path d="M46.279-68.1985C46.129-68.2515 45.972-68.2785 45.815-68.2785L45.815-34.5905L19.651-34.5905C19.946-31.7145 20.548-28.8985 21.458-26.1395C22.809-22.0435 24.681-18.3215 27.072-14.9655C29.465-11.6065 32.305-8.6825 35.596-6.1895C38.628-3.8935 41.909-2.1395 45.444-0.9235C45.564-0.8825 45.689-0.8615 45.815-0.8615L45.815-34.5905L71.978-34.5905C72.119-35.9665 72.19-37.3565 72.19-38.7605L72.19-57.9485C72.19-58.5285 71.825-59.0465 71.279-59.2425L46.279-68.1985ZM44.255-71.2575C45.264-71.6195 46.366-71.6195 47.375-71.2575L72.375-62.3025C74.213-61.6435 75.44-59.9015 75.44-57.9485L75.44-38.7605C75.44-34.0805 74.713-29.5325 73.258-25.1215C71.809-20.7285 69.792-16.7125 67.205-13.0805C64.62-9.4525 61.549-6.2905 57.996-3.5995C54.694-1.0985 51.108 0.8195 47.243 2.1495C46.318 2.4675 45.312 2.4675 44.387 2.1495C40.521 0.8195 36.936-1.0985 33.634-3.5995C30.08-6.2905 27.009-9.4525 24.425-13.0805C21.837-16.7125 19.821-20.7285 18.372-25.1215C16.917-29.5325 16.19-34.0805 16.19-38.7605L16.19-57.9485C16.19-59.9015 17.417-61.6435 19.255-62.3025L44.255-71.2575Z"/>
  </g>
  <g id="Ultralight-S" transform="matrix(1 0 0 1 514.076 696)">
   <path d="M45.449-69.6678C45.236-69.7468 45.013-69.7858 44.79-69.7858L44.79-35.5848L18.549-35.5848C18.82-32.4328 19.437-29.3498 20.4-26.3338C21.744-22.1268 23.607-18.3018 25.987-14.8518C28.369-11.3998 31.195-8.39575 34.468-5.83675C37.475-3.48475 40.73-1.68575 44.234-0.43675C44.413-0.37275 44.602-0.34075 44.79-0.34075L44.79-35.5848L71.031-35.5848C71.137-36.8168 71.19-38.0598 71.19-39.3138L71.19-58.8238C71.19-59.6198 70.695-60.3308 69.949-60.6058L45.449-69.6678ZM43.368-71.7318C44.285-72.0708 45.294-72.0708 46.212-71.7318L70.712-62.6698C72.321-62.0748 73.39-60.5398 73.39-58.8238L73.39-39.3138C73.39-34.6298 72.685-30.0788 71.275-25.6648C69.869-21.2618 67.913-17.2388 65.404-13.6028C62.897-9.96875 59.917-6.80175 56.468-4.10375C53.278-1.60975 49.817 0.30525 46.085 1.63525C45.248 1.93425 44.332 1.93425 43.495 1.63525C39.763 0.30525 36.301-1.60975 33.112-4.10375C29.663-6.80175 26.683-9.96875 24.176-13.6028C21.667-17.2388 19.711-21.2618 18.305-25.6648C16.895-30.0788 16.19-34.6298 16.19-39.3138L16.19-58.8238C16.19-60.5398 17.258-62.0748 18.868-62.6698L43.368-71.7318Z"/>
  </g>
 </g>
</svg>
