<?xml version="1.0" encoding="utf-8"?>
<!-- Generator: Adobe Illustrator 14.0.0, SVG Export Plug-In . SVG Version: 6.00 Build 43363)  -->
<!DOCTYPE svg PUBLIC "-//W3C//DTD SVG 1.1//EN" "http://www.w3.org/Graphics/SVG/1.1/DTD/svg11.dtd">
<svg version="1.1" id="Layer_1" xmlns="http://www.w3.org/2000/svg" xmlns:xlink="http://www.w3.org/1999/xlink" x="0px" y="0px" width="50px" height="50px" viewBox="0 0 50 50" xml:space="preserve">
<g>
	<g>
		<path fill="#bababb" fill-rule="evenodd" clip-rule="evenodd" d="M41,12H9c-2.209,0-4,1.791-4,4v18c0,2.209,1.791,4,4,4h32c2.209,0,4-1.791,4-4
			V16C45,13.791,43.209,12,41,12z M33,18c0-0.552,0.447-1,1-1h2c0.552,0,1,0.448,1,1v2c0,0.552-0.448,1-1,1h-2c-0.553,0-1-0.448-1-1
			V18z M33,24c0-0.553,0.447-1,1-1h2c0.552,0,1,0.447,1,1v2c0,0.553-0.448,1-1,1h-2c-0.553,0-1-0.447-1-1V24z M28,18
			c0-0.552,0.447-1,1-1h2c0.553,0,1,0.448,1,1v2c0,0.552-0.447,1-1,1h-2c-0.553,0-1-0.448-1-1V18z M28,24c0-0.553,0.447-1,1-1h2
			c0.553,0,1,0.447,1,1v2c0,0.553-0.447,1-1,1h-2c-0.553,0-1-0.447-1-1V24z M23,18c0-0.552,0.447-1,1-1h2c0.553,0,1,0.448,1,1v2
			c0,0.552-0.447,1-1,1h-2c-0.553,0-1-0.448-1-1V18z M23,24c0-0.553,0.447-1,1-1h2c0.553,0,1,0.447,1,1v2c0,0.553-0.447,1-1,1h-2
			c-0.553,0-1-0.447-1-1V24z M18,18c0-0.552,0.447-1,1-1h2c0.553,0,1,0.448,1,1v2c0,0.552-0.447,1-1,1h-2c-0.553,0-1-0.448-1-1V18z
			 M18,24c0-0.553,0.447-1,1-1h2c0.553,0,1,0.447,1,1v2c0,0.553-0.447,1-1,1h-2c-0.553,0-1-0.447-1-1V24z M13,18
			c0-0.552,0.447-1,1-1h2c0.553,0,1,0.448,1,1v2c0,0.552-0.447,1-1,1h-2c-0.553,0-1-0.448-1-1V18z M8,18c0-0.552,0.447-1,1-1h2
			c0.552,0,1,0.448,1,1v2c0,0.552-0.448,1-1,1H9c-0.553,0-1-0.448-1-1V18z M8,24c0-0.553,0.447-1,1-1h2c0.552,0,1,0.447,1,1v2
			c0,0.553-0.448,1-1,1H9c-0.553,0-1-0.447-1-1V24z M14,32c0,0.553-0.447,1-1,1H9c-0.553,0-1-0.447-1-1v-2c0-0.553,0.447-1,1-1h4
			c0.553,0,1,0.447,1,1V32z M13,26v-2c0-0.553,0.447-1,1-1h2c0.553,0,1,0.447,1,1v2c0,0.553-0.447,1-1,1h-2
			C13.447,27,13,26.553,13,26z M35,32c0,0.553-0.447,1-1,1H16c-0.553,0-1-0.447-1-1v-2c0-0.553,0.447-1,1-1h18c0.553,0,1,0.447,1,1
			V32z M42,32c0,0.553-0.447,1-1,1h-4c-0.553,0-1-0.447-1-1v-2c0-0.553,0.447-1,1-1h4c0.553,0,1,0.447,1,1V32z M42,26
			c0,0.553-0.447,1-1,1h-2c-0.553,0-1-0.447-1-1v-2c0-0.553,0.447-1,1-1h2c0.553,0,1,0.447,1,1V26z M42,20c0,0.552-0.447,1-1,1h-2
			c-0.553,0-1-0.448-1-1v-2c0-0.552,0.447-1,1-1h2c0.553,0,1,0.448,1,1V20z"/>
	</g>
</g>
</svg>
