<?xml version="1.0" encoding="utf-8"?>
<svg version="1.1" xmlns="http://www.w3.org/2000/svg" xmlns:xlink="http://www.w3.org/1999/xlink" x="0px" y="0px"
	 viewBox="0 0 240 188" style="enable-background:new 0 0 240 188;" xml:space="preserve">
<style type="text/css">
	.st0{fill:#202124;}
	.st1{fill:#404D64;}
	.st2{fill:#1E3A5F;}
	.st3{fill:#FCC934;}
	.st4{fill:#5EF1F2;}
	.st5{fill:none;}
	.st6{fill:#F882FF;}
	.st7{fill:#5184EB;}
	.st8{fill:#669DF6;}
	.st9{fill:#5BB974;}
	.st10{fill:#EA4335;}
	.st11{fill:none;stroke:#231F20;stroke-width:0.3;stroke-miterlimit:10;}
	.st12{fill:#D2E3FC;}
	.st13{fill:#4285F4;}
	.st14{font-family:'Google Sans', 'Noto Sans', sans-serif;}
	.st15{font-size:14px;}
	.st16{fill:#8AB4F8;}
	.st17{fill:#FBBC04;}
	.st18{fill:#30E2EA;}
	.st19{fill:#EE5FFA;}
	.st20{fill:#FFFFFF;}
	.st21{fill:#34A853;}
</style>
<g id="BG">
</g>
<g id="Layer_1">
	<g>
		<path class="st12" d="M202.4,155.3H40.8c-3.6,0-6.5-2.9-6.5-6.5V44.6c0-3.6,2.9-6.5,6.5-6.5h161.6c3.6,0,6.5,2.9,6.5,6.5v104.2
			C208.9,152.4,206,155.3,202.4,155.3z"/>
		<g>
			<text transform="matrix(1 0 0 1 42.7482 148.5264)" class="st13 st14 st15">10:20</text>
			<path class="st16" d="M176,148.8h-16c-2.4,0-4.3-1.9-4.3-4.3l0,0c0-2.4,1.9-4.3,4.3-4.3h16c2.4,0,4.3,1.9,4.3,4.3l0,0
				C180.3,146.9,178.4,148.8,176,148.8z"/>
			<path class="st16" d="M198.7,47.6h-21.5c-0.8,0-1.5-0.7-1.5-1.5l0,0c0-0.8,0.7-1.5,1.5-1.5h21.5c0.8,0,1.5,0.7,1.5,1.5l0,0
				C200.2,46.9,199.5,47.6,198.7,47.6z"/>
			<path class="st16" d="M195.9,148.8h-8.5c-2.4,0-4.3-1.9-4.3-4.3l0,0c0-2.4,1.9-4.3,4.3-4.3h8.5c2.4,0,4.3,1.9,4.3,4.3l0,0
				C200.2,146.9,198.3,148.8,195.9,148.8z"/>
		</g>
	</g>
	<path class="st17" d="M103.1,113.5l1-2.2c0.2-0.4,0.7-0.6,1.1-0.4l2.2,1c0.4,0.2,0.6,0.7,0.4,1.1l-1,2.2c-0.2,0.4-0.7,0.6-1.1,0.4
		l-2.2-1C103.1,114.4,102.9,113.9,103.1,113.5z"/>
	<path class="st18" d="M89.1,81.2l1-2.2c0.2-0.4,0.7-0.6,1.1-0.4l2.2,1c0.4,0.2,0.6,0.7,0.4,1.1l-1,2.2c-0.2,0.4-0.7,0.6-1.1,0.4
		l-2.2-1C89.1,82.1,88.9,81.7,89.1,81.2z"/>
	<path class="st5" d="M92.9,102.2c0.6-0.2,1.3-0.5,1.8-0.9c0.6-0.5,1.2-1,1.8-1.6c0.2-0.2,0.5-0.5,0.7-0.7c1.7-1.6,3.9-2.4,6.2-2.3
		l2.4,0.1c0,0,0.1,0,0.1,0c0.7,0.1,1.3,0.1,2,0.1c1.5-0.1,2.8-0.6,4.1-1.4c3.5-2.3,4.9-6.9,3.1-10.8c-1-2.2-2.8-3.9-5.1-4.6
		c-2.3-0.8-4.7-0.6-6.8,0.5c-1,0.6-2,1.3-2.7,2.2c-0.4,0.5-0.8,1.1-1.1,1.7c0,0,0,0.1,0,0.1l-1.3,2c-1.1,1.8-2.8,3-5,3.8
		c-0.6,0.2-1.3,0.4-1.9,0.5c-1.3,0.3-2.4,0.6-3.4,1.2C91,94.4,92.9,98.2,92.9,102.2z"/>
	<path class="st19" d="M116.6,83.9c-1.2-2.6-3.4-4.6-6.1-5.5c-2.7-0.9-5.7-0.7-8.2,0.7c-1.2,0.7-2.3,1.6-3.2,2.7c0,0,0,0,0,0
		c-0.5,0.6-0.9,1.3-1.2,2c-0.9,1.4-1.1,1.8-1.2,2l0,0c-0.9,1.4-2.3,2.5-4.1,3.1c-0.6,0.2-1.2,0.3-1.8,0.5c-1.6,0.4-3.2,0.8-4.5,1.9
		c0.5,0.3,1.1,0.6,1.5,1c1-0.6,2.1-0.9,3.4-1.2c0.6-0.2,1.3-0.3,1.9-0.5c2.2-0.7,3.9-2,5-3.8l1.3-2c0,0,0-0.1,0-0.1
		c0.3-0.6,0.6-1.2,1.1-1.7c0.7-0.9,1.6-1.7,2.7-2.2c2.1-1.1,4.6-1.3,6.8-0.5c2.3,0.8,4.1,2.4,5.1,4.6c1.7,3.8,0.4,8.5-3.1,10.8
		c-1.2,0.8-2.6,1.3-4.1,1.4c-0.7,0.1-1.3,0-2-0.1c0,0-0.1,0-0.1,0l-2.4-0.1c-2.3-0.1-4.5,0.7-6.2,2.3c-0.2,0.2-0.5,0.4-0.7,0.7
		c-0.6,0.6-1.2,1.2-1.8,1.6c-0.6,0.4-1.2,0.7-1.8,0.9c0,0.6-0.1,1.2-0.1,1.8c1.1-0.2,2.1-0.7,3-1.4c0.7-0.5,1.4-1.2,2-1.8
		c0.2-0.2,0.5-0.4,0.7-0.7c1.4-1.3,3.2-2,5-1.9l2.3,0.1c0.8,0.1,1.6,0.1,2.3,0.1c1.7-0.1,3.4-0.7,4.8-1.7
		C117.1,94.1,118.7,88.5,116.6,83.9z M98.7,84.1L98.7,84.1L98.7,84.1z"/>
	<path class="st7" d="M86.4,93.4c-1.2,1.7-1.4,3.9-0.5,5.8c0,0.1,0.1,0.2,0.1,0.3c0.8,1.5,2.2,2.5,3.8,2.9c1,0.2,2.1,0.2,3.1-0.1
		c0-4-1.8-7.8-5.1-10.2C87.3,92.4,86.8,92.8,86.4,93.4z"/>
	<path class="st13" d="M89.5,104c-2.1-0.5-3.9-1.8-4.9-3.7c-0.1-0.1-0.1-0.2-0.2-0.4c-1.1-2.4-0.9-5.3,0.7-7.4
		c0.4-0.5,0.8-1,1.2-1.3c-0.4-0.2-0.8-0.4-1.3-0.6c-6.4-2.5-13.6,0.7-16,7.1s0.7,13.6,7.1,16c6.4,2.5,13.6-0.7,16-7.1
		c0.3-0.9,0.6-1.7,0.7-2.6c-0.5,0.1-1.1,0.2-1.6,0.2C90.6,104.2,90,104.1,89.5,104z"/>
	<path class="st20" d="M92.9,102.2c-1,0.3-2,0.4-3.1,0.1c-1.7-0.4-3-1.4-3.8-2.9c-0.1-0.1-0.1-0.2-0.1-0.3c-0.9-1.9-0.7-4.1,0.5-5.8
		c0.4-0.6,0.9-1,1.4-1.3c-0.5-0.4-1-0.7-1.5-1c-0.4,0.4-0.9,0.8-1.2,1.3c-1.5,2.2-1.8,5-0.7,7.4c0.1,0.1,0.1,0.2,0.2,0.4
		c1,1.9,2.8,3.3,4.9,3.7c0.5,0.1,1.1,0.2,1.6,0.2c0.6,0,1.1-0.1,1.6-0.2C92.8,103.4,92.9,102.8,92.9,102.2z"/>
	<circle class="st21" cx="119.4" cy="104.8" r="3.5"/>
	<circle class="st10" cx="107.3" cy="64.1" r="4.3"/>
	<g>
		<path class="st20" d="M138.3,128.4c-0.1,0-0.2,0-0.3-0.1l-6.6-1.4c-1.3-0.3-2.4-1.3-2.9-2.5l-2.1-6.4c-0.4-1.3-0.1-2.7,0.8-3.7
			l4.5-5c0.9-1,2.3-1.5,3.6-1.2l6.6,1.4c1.3,0.3,2.4,1.3,2.9,2.5l2.1,6.4c0.4,1.3,0.1,2.7-0.8,3.7l-4.5,5
			C140.7,128.1,139.5,128.6,138.3,128.4z M134.7,109.7c-0.7-0.1-1.4,0.2-1.9,0.7l-4.5,5c-0.5,0.6-0.7,1.4-0.4,2.1l2.1,6.4
			c0.2,0.7,0.9,1.3,1.6,1.4l6.6,1.4c0.8,0.2,1.5-0.1,2.1-0.7l4.5-5c0.5-0.6,0.7-1.4,0.4-2.1l-2.1-6.4c-0.2-0.7-0.9-1.3-1.6-1.4
			c0,0,0,0,0,0l-6.6-1.4C134.9,109.8,134.8,109.7,134.7,109.7z"/>
	</g>
	<g>
		<path class="st5" d="M144.9,85l-1,5.3l5.1,4.6c3.6,3.2,9.1,2.9,12.3-0.7c1.5-1.7,2.3-4,2.2-6.3c-0.1-2.3-1.1-4.4-2.9-6L144,67.1
			c-1.7-1.5-4-2.3-6.3-2.2c-2.3,0.1-4.4,1.1-6,2.9c-3.2,3.6-2.9,9.1,0.7,12.3l6,5.3l5-1.7C144.3,83.4,145.1,84.1,144.9,85z"/>
		<path class="st21" d="M161.7,80.7l-16.6-14.8c-2.1-1.8-4.7-2.8-7.5-2.6c-2.8,0.1-5.3,1.4-7.1,3.4c-3.8,4.2-3.5,10.8,0.8,14.6
			l5.3,4.7l1.8-0.6l-6-5.3c-3.6-3.2-3.9-8.7-0.7-12.3c1.5-1.7,3.7-2.7,6-2.9c2.3-0.1,4.5,0.7,6.3,2.2L160.6,82
			c1.7,1.5,2.7,3.7,2.9,6c0.1,2.3-0.7,4.5-2.2,6.3c-3.2,3.6-8.7,3.9-12.3,0.7l-5.1-4.6l-0.4,1.9l4.4,3.9c2,1.8,4.4,2.6,6.9,2.6
			c2.8,0,5.7-1.2,7.7-3.4C166.3,91.1,166,84.5,161.7,80.7z"/>
		<path class="st17" d="M125.2,89.9c-0.9,0.3-1.1,1.4-0.4,2l14.5,12.6c0.7,0.6,1.7,0.2,1.9-0.7l2.3-11.7l-6.9-6.2L125.2,89.9z"/>
		<path class="st17" d="M144.9,85c0.2-0.9-0.7-1.6-1.5-1.3l-5,1.7l5.5,4.9L144.9,85z"/>
		<polygon class="st10" points="138.4,85.4 136.6,86 143.5,92.2 143.9,90.3 		"/>
	</g>
</g>
</svg>
