<svg width="304" height="256" fill="none" xmlns="http://www.w3.org/2000/svg"><path d="M294.579 63.44v127.3a8.157 8.157 0 0 1-8.16 8.14h-127.16a8.144 8.144 0 0 1-7.575-5.011 8.158 8.158 0 0 1-.625-3.129V63.44a8.153 8.153 0 0 1 2.404-5.784 8.16 8.16 0 0 1 5.796-2.376h127.22a8.16 8.16 0 0 1 8.16 8.16" fill="#F1F3F4"/><path d="M254.78 35.7H92.88c-5.733 0-10.38 4.647-10.38 10.38v161.9c0 5.733 4.647 10.38 10.38 10.38h161.9c5.733 0 10.38-4.647 10.38-10.38V46.08c0-5.733-4.647-10.38-10.38-10.38Z" fill="#8AB4F8"/><path d="M211.118 24H28.438c-6.461 0-11.7 5.238-11.7 11.7v182.68c0 6.462 5.239 11.7 11.7 11.7h182.68c6.462 0 11.7-5.238 11.7-11.7V35.7c0-6.462-5.238-11.7-11.7-11.7Z" fill="#4285F4"/><path d="M168.499 83.04a25.523 25.523 0 0 0-5.02 2.92l-5.4 3.14a20.8 20.8 0 0 1-15.8 2.14l-6.82-1.8-3-.7v.16a16.081 16.081 0 0 0-2.22-.16 17.58 17.58 0 1 0 .12 35.16 16.004 16.004 0 0 0 2.22-.16v.16l2.98-.82 6.8-1.84a20.833 20.833 0 0 1 8.109-.575 20.842 20.842 0 0 1 7.711 2.575l5.42 3.1a25.086 25.086 0 0 0 5.04 2.88 25.108 25.108 0 0 0 23.71-2.191 25.098 25.098 0 0 0-.164-41.923 25.102 25.102 0 0 0-23.726-2.006l.04-.06Z" fill="#fff"/><mask id="a" style="mask-type:alpha" maskUnits="userSpaceOnUse" x="16" y="24" width="207" height="207"><path d="M211.118 24H28.438c-6.461 0-11.7 5.238-11.7 11.7v182.68c0 6.462 5.239 11.7 11.7 11.7h182.68c6.462 0 11.7-5.238 11.7-11.7V35.7c0-6.462-5.238-11.7-11.7-11.7Z" fill="#4285F4"/></mask><g mask="url(#a)"><path d="m12.898 197.739 80.7-127.72a11.62 11.62 0 0 1 19.66 0l62.36 98.72 7.04-11.16a11.615 11.615 0 0 1 9.83-5.423 11.617 11.617 0 0 1 9.83 5.423l25.42 40.22" stroke="#fff" stroke-width="4.2" stroke-linecap="square" stroke-linejoin="round"/></g><mask id="b" style="mask-type:alpha" maskUnits="userSpaceOnUse" x="112" y="81" width="92" height="51"><path d="M168.499 83.04a25.523 25.523 0 0 0-5.02 2.92l-5.4 3.14a20.795 20.795 0 0 1-15.8 2.14l-6.82-1.8-3-.7v.16a16.081 16.081 0 0 0-2.22-.16 17.58 17.58 0 0 0 .12 35.16 16.004 16.004 0 0 0 2.22-.16v.16l2.98-.82 6.8-1.84a20.818 20.818 0 0 1 15.82 2l5.42 3.1a25.113 25.113 0 0 0 5.04 2.88 25.09 25.09 0 0 0 31.965-11.28 25.1 25.1 0 0 0-32.145-34.84l.04-.06Z" fill="#E8F0FE"/></mask><g mask="url(#b)"><path d="m12.898 197.739 80.7-127.72a11.62 11.62 0 0 1 19.66 0l62.36 98.72 7.04-11.16a11.615 11.615 0 0 1 9.83-5.423 11.617 11.617 0 0 1 9.83 5.423l25.42 40.22" stroke="#FBBC05" stroke-width="4.2" stroke-linecap="square" stroke-linejoin="round"/></g></svg>