<svg width="520" height="320" viewBox="0 0 520 320" fill="none" xmlns="http://www.w3.org/2000/svg"><g clip-path="url(#a)"><path fill="#fff" d="M0 0h520v320H0z"/><g clip-path="url(#b)"><path fill="#fff" d="M-17.703 25h555.405v274H-17.703z"/><path d="m177.978 217.427-3.573-10.43a3.639 3.639 0 0 0-4.621-2.263l-10.43 3.573a3.639 3.639 0 0 0-2.262 4.621l3.573 10.429a3.637 3.637 0 0 0 4.62 2.263l10.43-3.573a3.638 3.638 0 0 0 2.263-4.62z" fill="#4285F4"/><path d="M124.852 151.197a16.392 16.392 0 0 0-3.703-.564l-3.99-.611a13.951 13.951 0 0 1-8.461-4.851c-3.101-3.536-5.156-7.877-10.182-8.914a11.417 11.417 0 0 0-10.812 3.527 10.03 10.03 0 0 0-.407.472 11.428 11.428 0 0 0-.232 13.788 11.437 11.437 0 0 0 3.666 3.244c1.75.982 3.703 1.685 5.49 2.49a13.475 13.475 0 0 1 7.136 7.406l1.472 3.758a16.223 16.223 0 0 0 19.793 11.598 16.228 16.228 0 0 0 11.612-19.785 16.227 16.227 0 0 0-11.382-11.558v0z" stroke="#E6E6E6" stroke-width="2.777" stroke-linecap="round" stroke-linejoin="round"/><path d="M497.446 151.42a6.712 6.712 0 1 0-.001-13.423 6.712 6.712 0 0 0 .001 13.423z" fill="#E6E7EA"/><path d="M414.014 206.719a4.054 4.054 0 1 0 0-8.108 4.054 4.054 0 0 0 0 8.108zM18.149 124.677a2.87 2.87 0 1 0 0-5.74 2.87 2.87 0 0 0 0 5.74z" fill="#4285F4"/><path d="m349.124 191.955-10.182 6.757a5.478 5.478 0 0 0-2.481 4.943l.74 12.229a5.478 5.478 0 0 0 3.018 4.563l10.969 5.425a5.464 5.464 0 0 0 5.462-.324l10.182-6.758a5.493 5.493 0 0 0 2.444-4.897l-.74-12.237a5.508 5.508 0 0 0-.9-2.685 5.505 5.505 0 0 0-2.118-1.879l-10.932-5.47a5.476 5.476 0 0 0-5.462.333v0z" stroke="#E6E6E6" stroke-width="2.777" stroke-linecap="round" stroke-linejoin="round"/><path d="M50.557 174.395H32.543a1.084 1.084 0 0 0-.937.557 1.092 1.092 0 0 0 .012 1.09l8.997 15.58a1.08 1.08 0 0 0 .926.52 1.085 1.085 0 0 0 .926-.52l9.006-15.598a1.092 1.092 0 0 0-.916-1.629zm352.081-15.57a1.93 1.93 0 0 0-.56 1.509 1.924 1.924 0 0 0 .782 1.407 15.03 15.03 0 0 0 19.566-1.345 15.035 15.035 0 0 0 1.585-19.548 1.93 1.93 0 0 0-2.215-.693 1.948 1.948 0 0 0-.701.434l-18.457 18.236z" fill="#D2E3FC"/><path d="M428.298 151.984a15.513 15.513 0 0 1-11.636-2.394 15.496 15.496 0 0 1-6.526-9.927l-.047-.249a15.527 15.527 0 0 1 12.321-18.144v0a15.535 15.535 0 0 1 18.171 12.321l.047.25a15.517 15.517 0 0 1-12.33 18.143v0z" stroke="#E6E7EA" stroke-width="2.777" stroke-linecap="round" stroke-linejoin="round" stroke-dasharray="3.63 7.26"/><path d="M428.298 151.984a15.406 15.406 0 0 1-11.658-2.362 15.409 15.409 0 0 1-6.504-9.959l-.047-.249a15.527 15.527 0 0 1 12.321-18.144v0a15.535 15.535 0 0 1 18.171 12.321l.047.25a15.517 15.517 0 0 1-12.33 18.143v0z" stroke="#4285F4" stroke-width="2.777" stroke-linecap="round" stroke-linejoin="round" stroke-dasharray="3.63 7.27"/><path d="m339.201 141.931-10.914-10.923a96.576 96.576 0 0 0-136.574 0l-10.914 10.923a9.005 9.005 0 0 0-1.952 9.809 8.998 8.998 0 0 0 1.952 2.919l18.754 18.764c.252-.371.537-.718.852-1.037l8.211-8.211a72.665 72.665 0 0 1 102.75 0l8.211 8.211c.314.319.599.666.851 1.037l18.754-18.764a9.01 9.01 0 0 0 2.647-6.36 9.006 9.006 0 0 0-2.628-6.368z" fill="#F7F8F9"/><path d="M311.385 164.175a72.667 72.667 0 0 0-102.75 0l-8.211 8.211c-.315.319-.6.666-.852 1.037l25.549 25.604 2.129-2.129a46.287 46.287 0 0 1 50.477-10.05 46.28 46.28 0 0 1 15.024 10.05l2.129 2.129 25.567-25.567a7.366 7.366 0 0 0-.852-1.037l-8.21-8.248z" fill="#E8E9EC"/><path d="m266.369 227.501 28.511-28.511-2.13-2.129A46.266 46.266 0 0 0 260 183.282a46.287 46.287 0 0 0-32.75 13.579l-2.129 2.129 28.51 28.511a9.007 9.007 0 0 0 12.738 0z" fill="#BBC0C7"/></g></g><defs><clipPath id="a"><path fill="#fff" d="M0 0h520v320H0z"/></clipPath><clipPath id="b"><path fill="#fff" transform="translate(-17.703 25)" d="M0 0h555.405v274H0z"/></clipPath></defs></svg>