<?xml version="1.0" encoding="UTF-8"?>
<svg width="3300px" height="2200px" viewBox="0 0 3300 2200" version="1.1" xmlns="http://www.w3.org/2000/svg" xmlns:xlink="http://www.w3.org/1999/xlink">
    <title>incognito.cr</title>
    <g id="Page-1" stroke="none" stroke-width="1" fill="none" fill-rule="evenodd">
        <g id="incognito.cr">
            <g id="Notes">
                <rect id="artboard" fill="#FFFFFF" fill-rule="nonzero" x="0" y="0" width="3300" height="2200"></rect>
                <line x1="263" y1="292" x2="3036" y2="292" id="Path" stroke="#000000" stroke-width="0.5"></line>
                <text id="Weight/Scale-Variations" fill="#000000" fill-rule="nonzero" font-family="Helvetica" font-size="13" font-weight="normal">
                    <tspan x="263" y="322">Weight/Scale Variations</tspan>
                </text>
                <text id="Ultralight" fill="#000000" fill-rule="nonzero" font-family="Helvetica" font-size="13" font-weight="normal">
                    <tspan x="533.711" y="322">Ultralight</tspan>
                </text>
                <text id="Thin" fill="#000000" fill-rule="nonzero" font-family="Helvetica" font-size="13" font-weight="normal">
                    <tspan x="843.422" y="322">Thin</tspan>
                </text>
                <text id="Light" fill="#000000" fill-rule="nonzero" font-family="Helvetica" font-size="13" font-weight="normal">
                    <tspan x="1138.63" y="322">Light</tspan>
                </text>
                <text id="Regular" fill="#000000" fill-rule="nonzero" font-family="Helvetica" font-size="13" font-weight="normal">
                    <tspan x="1426.84" y="322">Regular</tspan>
                </text>
                <text id="Medium" fill="#000000" fill-rule="nonzero" font-family="Helvetica" font-size="13" font-weight="normal">
                    <tspan x="1723.06" y="322">Medium</tspan>
                </text>
                <text id="Semibold" fill="#000000" fill-rule="nonzero" font-family="Helvetica" font-size="13" font-weight="normal">
                    <tspan x="2015.77" y="322">Semibold</tspan>
                </text>
                <text id="Bold" fill="#000000" fill-rule="nonzero" font-family="Helvetica" font-size="13" font-weight="normal">
                    <tspan x="2326.48" y="322">Bold</tspan>
                </text>
                <text id="Heavy" fill="#000000" fill-rule="nonzero" font-family="Helvetica" font-size="13" font-weight="normal">
                    <tspan x="2618.19" y="322">Heavy</tspan>
                </text>
                <text id="Black" fill="#000000" fill-rule="nonzero" font-family="Helvetica" font-size="13" font-weight="normal">
                    <tspan x="2917.4" y="322">Black</tspan>
                </text>
                <line x1="263" y1="1903" x2="3036" y2="1903" id="Path" stroke="#000000" stroke-width="0.5"></line>
                <g id="Group" transform="translate(264.367190, 1918.068400)" fill="#000000" fill-rule="nonzero">
                    <path d="M7.88086,15.761678 C8.96156,15.761678 9.97717667,15.5566 10.92771,15.146444 C11.8782433,14.7362873 12.7164767,14.166626 13.44241,13.43746 C14.1682767,12.7082933 14.7379433,11.86845 15.15141,10.91793 C15.56481,9.96741 15.77151,8.95504 15.77151,7.88082 C15.77151,6.8066 15.56481,5.79422667 15.15141,4.8437 C14.7379433,3.89316667 14.1666433,3.05333333 13.43751,2.3242 C12.70831,1.595 11.8684767,1.02533333 10.91801,0.6152 C9.96747667,0.205066667 8.95183667,0 7.87109,0 C6.79687,0 5.7845,0.205066667 4.83398,0.6152 C3.88346,1.02533333 3.04687333,1.595 2.32422,2.3242 C1.60156,3.05333333 1.03352333,3.89316667 0.62011,4.8437 C0.206703333,5.79422667 -8.8817842e-16,6.8066 -8.8817842e-16,7.88082 C-8.8817842e-16,8.95504 0.206703333,9.96741 0.62011,10.91793 C1.03352333,11.86845 1.60318667,12.7082933 2.3291,13.43746 C3.05501333,14.166626 3.89323,14.7362873 4.84375,15.146444 C5.79427,15.5566 6.80664,15.761678 7.88086,15.761678 Z M7.88086,14.277303 C6.99544,14.277303 6.16699,14.1129153 5.39551,13.78414 C4.62402333,13.4553667 3.94694,12.99801 3.36426,12.41207 C2.78157333,11.82613 2.32584333,11.14579 1.99707,10.37105 C1.66829,9.59631 1.5039,8.76623333 1.5039,7.88082 C1.5039,6.9954 1.66666333,6.16532 1.99219,5.39058 C2.31771,4.61586 2.77181,3.93553333 3.35449,3.3496 C3.93717,2.76366667 4.61425333,2.3063 5.38574,1.9775 C6.15722667,1.6487 6.98567667,1.4843 7.87109,1.4843 C8.76303667,1.4843 9.59474333,1.6487 10.36621,1.9775 C11.1376767,2.3063 11.8163767,2.76366667 12.40231,3.3496 C12.9882433,3.93553333 13.4472433,4.61586 13.77931,5.39058 C14.11131,6.16532 14.27731,6.9954 14.27731,7.88082 C14.27731,8.76623333 14.1129433,9.59631 13.78421,10.37105 C13.45541,11.14579 12.9996767,11.82613 12.41701,12.41207 C11.8343433,12.99801 11.15561,13.4553667 10.38081,13.78414 C9.60607667,14.1129153 8.77276,14.277303 7.88086,14.277303 Z M4.28711,7.88082 C4.28711,8.09566 4.35547,8.26981333 4.49219,8.40328 C4.62890333,8.53674667 4.81119333,8.60348 5.03906,8.60348 L7.14843,8.60348 L7.14843,10.72262 C7.14843,10.93746 7.21353667,11.1148667 7.34375,11.25484 C7.47395667,11.3948133 7.64973667,11.4648 7.87109,11.4648 C8.08593667,11.4648 8.26334667,11.3948133 8.40332,11.25484 C8.54329333,11.1148667 8.61328,10.93746 8.61328,10.72262 L8.61328,8.60348 L10.72261,8.60348 C10.94401,8.60348 11.1230767,8.53674667 11.25981,8.40328 C11.3964767,8.26981333 11.46481,8.09566 11.46481,7.88082 C11.46481,7.65946667 11.3964767,7.48043 11.25981,7.34371 C11.1230767,7.20699 10.94401,7.13863 10.72261,7.13863 L8.61328,7.13863 L8.61328,5.02926 C8.61328,4.80788667 8.54329333,4.62723333 8.40332,4.4873 C8.26334667,4.3473 8.08593667,4.2773 7.87109,4.2773 C7.64973667,4.2773 7.47395667,4.3473 7.34375,4.4873 C7.21353667,4.62723333 7.14843,4.80788667 7.14843,5.02926 L7.14843,7.13863 L5.03906,7.13863 C4.81119333,7.13863 4.62890333,7.20699 4.49219,7.34371 C4.35547,7.48043 4.28711,7.65946667 4.28711,7.88082 Z" id="Shape"></path>
                </g>
                <g id="Group" transform="translate(283.615050, 1915.988300)" fill="#000000" fill-rule="nonzero">
                    <path d="M9.96095,19.92186 C11.3216167,19.92186 12.60255,19.6614433 13.80375,19.14061 C15.0048833,18.6197767 16.06445,17.9003744 16.98245,16.9824031 C17.9003833,16.0644344 18.6197833,15.0048633 19.14065,13.80369 C19.66145,12.6025167 19.92185,11.3215933 19.92185,9.96092 C19.92185,8.60024 19.66145,7.3193 19.14065,6.1181 C18.6197833,4.91696667 17.9003833,3.8574 16.98245,2.9394 C16.06445,2.02146667 15.00325,1.30206667 13.79885,0.7812 C12.5943833,0.2604 11.3118167,0 9.95115,0 C8.59048333,0 7.30956667,0.2604 6.1084,0.7812 C4.90722667,1.30206667 3.84928333,2.02146667 2.93457,2.9394 C2.01985667,3.8574 1.30208333,4.91696667 0.78125,6.1181 C0.260416667,7.3193 8.8817842e-16,8.60024 8.8817842e-16,9.96092 C8.8817842e-16,11.3215933 0.260416667,12.6025167 0.78125,13.80369 C1.30208333,15.0048633 2.02148333,16.0644344 2.93945,16.9824031 C3.85741667,17.9003744 4.91698667,18.6197767 6.11816,19.14061 C7.31933333,19.6614433 8.60026333,19.92186 9.96095,19.92186 Z M9.96095,18.2617 C8.80859667,18.2617 7.73111667,18.0468563 6.72851,17.617169 C5.72591,17.1874813 4.84537667,16.593405 4.08691,15.83494 C3.32845,15.07648 2.73600333,14.1959467 2.30957,13.19334 C1.88313667,12.1907333 1.66992,11.11326 1.66992,9.96092 C1.66992,8.80857333 1.88313667,7.7311 2.30957,6.7285 C2.73600333,5.7259 3.32682333,4.84373333 4.08203,4.082 C4.83723667,3.32026667 5.71614333,2.7262 6.71875,2.2998 C7.72135,1.87333333 8.79881667,1.6601 9.95115,1.6601 C11.1034833,1.6601 12.18095,1.87333333 13.18355,2.2998 C14.18615,2.7262 15.0683167,3.32026667 15.83005,4.082 C16.5917833,4.84373333 17.1874833,5.7259 17.61715,6.7285 C18.0468833,7.7311 18.26175,8.80857333 18.26175,9.96092 C18.26175,11.11326 18.0485167,12.1907333 17.62205,13.19334 C17.19565,14.1959467 16.6032167,15.07648 15.84475,15.83494 C15.0862833,16.593405 14.2041167,17.1874813 13.19825,17.617169 C12.1923833,18.0468563 11.1132833,18.2617 9.96095,18.2617 Z M5.42968,9.96092 C5.42968,10.1952933 5.50780667,10.38735 5.66406,10.53709 C5.82030667,10.68683 6.02213,10.7617 6.26953,10.7617 L9.14065,10.7617 L9.14065,13.64256 C9.14065,13.8899533 9.21551667,14.09015 9.36525,14.24315 C9.51498333,14.3961433 9.70705,14.47264 9.94145,14.47264 C10.1887833,14.47264 10.38895,14.3961433 10.54195,14.24315 C10.69495,14.09015 10.77145,13.8899533 10.77145,13.64256 L10.77145,10.7617 L13.65235,10.7617 C13.89975,10.7617 14.09995,10.68683 14.25295,10.53709 C14.40595,10.38735 14.48245,10.1952933 14.48245,9.96092 C14.48245,9.71352 14.40595,9.51332333 14.25295,9.36033 C14.09995,9.20733667 13.89975,9.13084 13.65235,9.13084 L10.77145,9.13084 L10.77145,6.2597 C10.77145,6.00583333 10.69495,5.8024 10.54195,5.6494 C10.38895,5.4964 10.1887833,5.4199 9.94145,5.4199 C9.70705,5.4199 9.51498333,5.49803333 9.36525,5.6543 C9.21551667,5.81056667 9.14065,6.01236667 9.14065,6.2597 L9.14065,9.13084 L6.26953,9.13084 C6.01562333,9.13084 5.81217333,9.20733667 5.65918,9.36033 C5.50618,9.51332333 5.42968,9.71352 5.42968,9.96092 Z" id="Shape"></path>
                </g>
                <g id="Group" transform="translate(307.901860, 1913.224600)" fill="#000000" fill-rule="nonzero">
                    <path d="M12.71484,25.43946 C14.10804,25.43946 15.4378067,25.22299 16.70414,24.79005 C17.9704067,24.3571033 19.13414,23.7500067 20.19534,22.96876 C21.25654,22.1875067 22.1793733,21.2662827 22.96384,20.205088 C23.7483733,19.1438893 24.3571067,17.9785233 24.79004,16.70899 C25.2229733,15.4394633 25.43944,14.11134 25.43944,12.72462 C25.43944,11.3313933 25.2229733,10.0016533 24.79004,8.7354 C24.3571067,7.46906667 23.7483733,6.30533333 22.96384,5.2442 C22.1793733,4.183 21.25654,3.26013333 20.19534,2.4756 C19.13414,1.69106667 17.9687733,1.08233333 16.69924,0.6494 C15.4297067,0.216466667 14.0983067,0 12.70504,0 C11.31184,0 9.98210667,0.216466667 8.71584,0.6494 C7.44955333,1.08233333 6.28743667,1.69106667 5.22949,2.4756 C4.17155,3.26013333 3.25032667,4.183 2.46582,5.2442 C1.68131333,6.30533333 1.07421667,7.46906667 0.64453,8.7354 C0.214843333,10.0016533 0,11.3313933 0,12.72462 C0,14.11134 0.21647,15.4394633 0.64941,16.70899 C1.08235667,17.9785233 1.68945333,19.1438893 2.4707,20.205088 C3.25195333,21.2662827 4.17317667,22.1875067 5.23437,22.96876 C6.29557,23.7500067 7.45929333,24.3571033 8.72554,24.79005 C9.99187333,25.22299 11.32164,25.43946 12.71484,25.43946 Z M12.71484,23.62306 C11.51044,23.62306 10.3629733,23.43914 9.27244,23.0713 C8.18196,22.70346 7.18424667,22.18751 6.2793,21.52345 C5.37434667,20.8593853 4.58821333,20.0732513 3.9209,19.165048 C3.25358,18.2568427 2.73763,17.2574933 2.37305,16.167 C2.00846333,15.0765067 1.82617,13.9290467 1.82617,12.72462 C1.82617,11.51368 2.00846333,10.3629733 2.37305,9.2725 C2.73763,8.18196667 3.25195333,7.1826 3.91602,6.2744 C4.58008,5.3662 5.36458333,4.58006667 6.26953,3.916 C7.17447667,3.25193333 8.17221333,2.73763333 9.26274,2.3731 C10.3532067,2.0085 11.50064,1.8262 12.70504,1.8262 C13.9159733,1.8262 15.0667067,2.0085 16.15724,2.3731 C17.2477067,2.73763333 18.24704,3.25193333 19.15524,3.916 C20.06344,4.58006667 20.8495733,5.3662 21.51364,6.2744 C22.1777067,7.1826 22.6936733,8.18196667 23.06154,9.2725 C23.42934,10.3629733 23.6134125,11.51368 23.6134125,12.72462 C23.6197733,13.9290467 23.44074,15.0765067 23.07614,16.167 C22.7116067,17.2574933 22.1956733,18.2568427 21.52834,19.165048 C20.8610067,20.0732513 20.07324,20.8593853 19.16504,21.52345 C18.25684,22.18751 17.2575067,22.70346 16.16704,23.0713 C15.0765067,23.43914 13.9257733,23.62306 12.71484,23.62306 Z M6.94336,12.72462 C6.94336,12.9785267 7.02962333,13.1884867 7.20215,13.3545 C7.37467667,13.5205133 7.59440667,13.60352 7.86134,13.60352 L11.80664,13.60352 L11.80664,17.5586 C11.80664,17.8255267 11.88964,18.0452533 12.05564,18.21778 C12.22164,18.3903067 12.4348733,18.47657 12.69534,18.47657 C12.9622733,18.47657 13.1820067,18.3919367 13.35454,18.22267 C13.5270067,18.0533967 13.61324,17.83204 13.61324,17.5586 L13.61324,13.60352 L17.56834,13.60352 C17.8352733,13.60352 18.0533733,13.5205133 18.22264,13.3545 C18.3919067,13.1884867 18.47654,12.9785267 18.47654,12.72462 C18.47654,12.45118 18.3919067,12.2298267 18.22264,12.06056 C18.0533733,11.8912867 17.8352733,11.80665 17.56834,11.80665 L13.61324,11.80665 L13.61324,7.8613 C13.61324,7.5879 13.5270067,7.36493333 13.35454,7.1924 C13.1820067,7.01986667 12.9622733,6.9336 12.69534,6.9336 C12.4348733,6.9336 12.22164,7.01986667 12.05564,7.1924 C11.88964,7.36493333 11.80664,7.5879 11.80664,7.8613 L11.80664,11.80665 L7.86134,11.80665 C7.58789333,11.80665 7.36653333,11.8912867 7.19726,12.06056 C7.02799333,12.2298267 6.94336,12.45118 6.94336,12.72462 Z" id="Shape"></path>
                </g>
                <text id="Design-Variations" fill="#000000" fill-rule="nonzero" font-family="Helvetica" font-size="13" font-weight="normal">
                    <tspan x="263" y="1953">Design Variations</tspan>
                </text>
                <text id="Symbols-are-supported-in-up-to-nine-weights-and-three-scales." fill="#000000" fill-rule="nonzero" font-family="Helvetica" font-size="13" font-weight="normal">
                    <tspan x="263" y="1971">Symbols are supported in up to nine weights and three scales.</tspan>
                </text>
                <text id="For-optimal-layout-with-text-and-other-symbols,-vertically-align" fill="#000000" fill-rule="nonzero" font-family="Helvetica" font-size="13" font-weight="normal">
                    <tspan x="263" y="1989">For optimal layout with text and other symbols, vertically align</tspan>
                </text>
                <text id="symbols-with-the-adjacent-text." fill="#000000" fill-rule="nonzero" font-family="Helvetica" font-size="13" font-weight="normal">
                    <tspan x="263" y="2007">symbols with the adjacent text.</tspan>
                </text>
                <line x1="776" y1="1919" x2="776" y2="1933" id="Path" stroke="#00AEEF" stroke-width="0.5"></line>
                <g id="Group" transform="translate(778.490230, 1918.732400)" fill="#000000" fill-rule="nonzero">
                    <path d="M0.82032,14.42385 C1.08073333,14.42385 1.28255667,14.3685115 1.42579,14.2578344 C1.56901667,14.1471575 1.68620333,13.9551 1.77735,13.681662 L3.03711,10.2344 L8.79887,10.2344 L10.05857,13.681662 C10.1497033,13.9551 10.2669033,14.1471575 10.41017,14.2578344 C10.55337,14.3685115 10.7519367,14.42385 11.00587,14.42385 C11.26627,14.42385 11.47297,14.3522354 11.62597,14.2090062 C11.77897,14.0657767 11.85547,13.8704643 11.85547,13.623069 C11.85547,13.473329 11.81967,13.297546 11.74807,13.09572 L7.16797,0.8985 C7.05078333,0.598966667 6.89128,0.374333333 6.68946,0.2246 C6.48763333,0.0748666667 6.23047,0 5.91797,0 C5.31250333,0 4.90234667,0.296233333 4.6875,0.8887 L0.10743,13.10549 C0.03581,13.3073133 -4.4408921e-16,13.4830947 -4.4408921e-16,13.632834 C-4.4408921e-16,13.88023 0.0732433333,14.073915 0.21973,14.2138891 C0.366216667,14.353863 0.566413333,14.42385 0.82032,14.42385 Z M3.51563,8.75002 L5.88868,2.1778 L5.9375,2.1778 L8.31057,8.75002 L3.51563,8.75002 Z" id="Shape"></path>
                </g>
                <line x1="793.197" y1="1919" x2="793.197" y2="1933" id="Path" stroke="#00AEEF" stroke-width="0.5"></line>
                <text id="Margins" fill="#000000" fill-rule="nonzero" font-family="Helvetica" font-size="13" font-weight="normal">
                    <tspan x="776" y="1953">Margins</tspan>
                </text>
                <text id="Leading-and-trailing-margins-on-the-left-and-right-side-of-each-symbol" fill="#000000" fill-rule="nonzero" font-family="Helvetica" font-size="13" font-weight="normal">
                    <tspan x="776" y="1971">Leading and trailing margins on the left and right side of each symbol</tspan>
                </text>
                <text id="can-be-adjusted-by-modifying-the-x-location-of-the-margin-guidelines." fill="#000000" fill-rule="nonzero" font-family="Helvetica" font-size="13" font-weight="normal">
                    <tspan x="776" y="1989">can be adjusted by modifying the x-location of the margin guidelines.</tspan>
                </text>
                <text id="Modifications-are-automatically-applied-proportionally-to-all" fill="#000000" fill-rule="nonzero" font-family="Helvetica" font-size="13" font-weight="normal">
                    <tspan x="776" y="2007">Modifications are automatically applied proportionally to all</tspan>
                </text>
                <text id="scales-and-weights." fill="#000000" fill-rule="nonzero" font-family="Helvetica" font-size="13" font-weight="normal">
                    <tspan x="776" y="2025">scales and weights.</tspan>
                </text>
                <g id="Group" transform="translate(1291.246849, 1914.517550)" fill="#000000" fill-rule="nonzero">
                    <path d="M0.594951479,20.3476805 L2.29417148,22.0566705 C2.72385815,22.4928705 3.17795815,22.6946938 3.65647148,22.6621405 C4.13498481,22.6295872 4.60536148,22.3561505 5.06760148,21.8418305 L15.7609515,10.0547205 L14.7941515,9.07815049 L4.17893148,20.7578405 C4.00315148,20.9596605 3.82574148,21.0735938 3.64670148,21.0996405 C3.46766815,21.1256805 3.26096481,21.0215138 3.02659148,20.7871405 L1.85471148,19.6250305 C1.62033815,19.3906545 1.51780148,19.1839482 1.54710148,19.0049115 C1.57639481,18.8258748 1.69195148,18.6452108 1.89377148,18.4629193 L13.3683515,7.66215049 L12.3918515,6.69535049 L0.800031479,17.5840125 C0.305238146,18.0397418 0.039938146,18.5052368 0.00413147929,18.9804975 C-0.0316751874,19.4557595 0.165264813,19.9114872 0.594951479,20.3476805 Z M7.01096148,2.15435049 C6.80262815,2.35615049 6.68544148,2.58725049 6.65940148,2.84765049 C6.63336148,3.10811716 6.67893481,3.33598382 6.79612148,3.53125049 C6.91330815,3.71358382 7.08420481,3.85031716 7.30881148,3.94145049 C7.53342481,4.03258382 7.80850481,4.03908382 8.13405148,3.96095049 C8.86318481,3.79168382 9.60211815,3.72171716 10.3508515,3.75105049 C11.0995181,3.78031716 11.8319181,4.02931716 12.5480515,4.49805049 L11.9621515,5.95315049 C11.7928848,6.36981716 11.7456848,6.73278382 11.8205515,7.04205049 C11.8954181,7.35125049 12.0663181,7.64258382 12.3332515,7.91605049 L14.6281515,10.2305005 C14.8690181,10.4778938 15.1033848,10.6211205 15.3312515,10.6601805 C15.5591181,10.6992472 15.8130181,10.6927372 16.0929515,10.6406505 L17.1574515,10.4453405 L17.8215515,11.1191705 L17.7824515,11.6758105 C17.7629181,11.9232038 17.7938515,12.1510672 17.8752515,12.3594005 C17.9565848,12.5677338 18.1177181,12.7923438 18.3586515,13.0332305 L19.1203515,13.7754205 C19.3612181,14.0163072 19.6232515,14.1416338 19.9064515,14.1514005 C20.1896515,14.1611605 20.4484515,14.0488538 20.6828515,13.8144805 L23.5929515,10.8945605 C23.8273515,10.6601872 23.9412848,10.4046538 23.9347515,10.1279605 C23.9282848,9.85126716 23.8045848,9.59247716 23.5636515,9.35159049 L22.7922515,8.58987049 C22.5578515,8.34899049 22.3381181,8.18461716 22.1330515,8.09675049 C21.9279848,8.00881716 21.7049848,7.97461716 21.4640515,7.99415049 L20.8879515,8.04295049 L20.2433515,7.40825049 L20.4875515,6.28515049 C20.5526181,6.00521716 20.5395848,5.74318382 20.4484515,5.49905049 C20.3573181,5.25491716 20.1652515,4.98635049 19.8722515,4.69335049 L17.6750515,2.50585049 C16.8417181,1.67905049 15.9546515,1.05895049 15.0138515,0.64555049 C14.0731181,0.23215049 13.1258515,0.0173171567 12.1720515,0.00105049002 C11.2183181,-0.0152828433 10.3003515,0.15885049 9.41815148,0.52345049 C8.53601815,0.88805049 7.73362148,1.43168382 7.01096148,2.15435049 Z M8.50515148,2.52545049 C9.11061815,2.08271716 9.76001815,1.76695049 10.4533515,1.57815049 C11.1466848,1.38935049 11.8481848,1.32911716 12.5578515,1.39745049 C13.2674515,1.46585049 13.9559181,1.65628382 14.6232515,1.96875049 C15.2905848,2.28128382 15.9009515,2.71748382 16.4543515,3.27735049 L18.8859515,5.68945049 C19.0031515,5.80665049 19.0763848,5.92058382 19.1056515,6.03125049 C19.1349848,6.14191716 19.1301181,6.28191716 19.0910515,6.45125049 L18.7687515,7.93555049 L20.2726515,9.41995049 L21.2590515,9.36136049 C21.3827181,9.35484716 21.4771181,9.36298382 21.5422515,9.38577049 C21.6073181,9.40855716 21.6886848,9.46877716 21.7863515,9.56643049 L22.3625515,10.1426105 L19.9211515,12.5840105 L19.3449515,12.0078405 C19.2472848,11.9101872 19.1854181,11.8288072 19.1593515,11.7637005 C19.1333515,11.6985938 19.1236181,11.6009372 19.1301515,11.4707305 L19.1984515,10.4941705 L17.7043515,9.00979049 L16.1808515,9.26370049 C16.0181181,9.29625382 15.8895515,9.30113716 15.7951515,9.27835049 C15.7007515,9.25556382 15.5916848,9.18557716 15.4679515,9.06839049 L13.4660515,7.06645049 C13.3358515,6.94925049 13.2626181,6.83695049 13.2463515,6.72955049 C13.2300848,6.62208382 13.2609848,6.47721716 13.3390515,6.29495049 L14.2179515,4.20515049 C13.4367515,3.47595049 12.5578515,2.97138382 11.5812515,2.69145049 C10.6047181,2.41151716 9.60861815,2.42128382 8.59295148,2.72075049 C8.51488481,2.74028382 8.46445148,2.72561716 8.44165148,2.67675049 C8.41885148,2.62795049 8.44001815,2.57751716 8.50515148,2.52545049 Z" id="Shape"></path>
                </g>
                <text id="Exporting" fill="#000000" fill-rule="nonzero" font-family="Helvetica" font-size="13" font-weight="normal">
                    <tspan x="1289" y="1953">Exporting</tspan>
                </text>
                <text id="Symbols-should-be-outlined-when-exporting-to-ensure-the" fill="#000000" fill-rule="nonzero" font-family="Helvetica" font-size="13" font-weight="normal">
                    <tspan x="1289" y="1971">Symbols should be outlined when exporting to ensure the</tspan>
                </text>
                <text id="design-is-preserved-when-submitting-to-Xcode." fill="#000000" fill-rule="nonzero" font-family="Helvetica" font-size="13" font-weight="normal">
                    <tspan x="1289" y="1989">design is preserved when submitting to Xcode.</tspan>
                </text>
                <text id="template-version" fill="#000000" fill-rule="nonzero" font-family="Helvetica" font-size="13" font-weight="normal">
                    <tspan x="2952" y="1933">Template v.3.0</tspan>
                </text>
                <text id="Requires-Xcode-13-or-greater" fill="#000000" fill-rule="nonzero" font-family="Helvetica" font-size="13" font-weight="normal">
                    <tspan x="2865" y="1951">Requires Xcode 13 or greater</tspan>
                </text>
                <text id="descriptive-name" fill="#000000" fill-rule="nonzero" font-family="Helvetica" font-size="13" font-weight="normal">
                    <tspan x="2901" y="1969">Generated from square</tspan>
                </text>
                <text id="Typeset-at-100-points" fill="#000000" fill-rule="nonzero" font-family="Helvetica" font-size="13" font-weight="normal">
                    <tspan x="2912" y="1987">Typeset at 100 points</tspan>
                </text>
                <text id="Small" fill="#000000" fill-rule="nonzero" font-family="Helvetica" font-size="13" font-weight="normal">
                    <tspan x="263" y="726">Small</tspan>
                </text>
                <text id="Medium" fill="#000000" fill-rule="nonzero" font-family="Helvetica" font-size="13" font-weight="normal">
                    <tspan x="263" y="1156">Medium</tspan>
                </text>
                <text id="Large" fill="#000000" fill-rule="nonzero" font-family="Helvetica" font-size="13" font-weight="normal">
                    <tspan x="263" y="1586">Large</tspan>
                </text>
            </g>
            <g id="Guides" transform="translate(263.000000, 625.041000)">
                <g id="H-reference" transform="translate(76.976562, 0.500000)" fill="#27AAE1" fill-rule="nonzero">
                    <path d="M-1.22124533e-15,70.459 L2.685548,70.459 L28.369138,3.3203 L29.052738,3.3203 L29.052738,0 L27.148438,0 L-1.22124533e-15,70.459 Z M10.693338,45.9961 L45.996138,45.9961 L45.263638,43.75 L11.474638,43.75 L10.693338,45.9961 Z M54.150438,70.459 L56.787138,70.459 L29.638638,0 L28.466838,0 L28.466838,3.3203 L54.150438,70.459 Z" id="Shape"></path>
                </g>
                <line x1="0" y1="70.959" x2="2773" y2="70.959" id="Baseline-S" stroke="#27AAE1" stroke-width="0.5"></line>
                <line x1="0" y1="0.5" x2="2773" y2="0.5" id="Capline-S" stroke="#27AAE1" stroke-width="0.5"></line>
                <g id="H-reference" transform="translate(76.976562, 430.500000)" fill="#27AAE1" fill-rule="nonzero">
                    <path d="M-1.22124533e-15,70.459 L2.685548,70.459 L28.369138,3.3203 L29.052738,3.3203 L29.052738,0 L27.148438,0 L-1.22124533e-15,70.459 Z M10.693338,45.9961 L45.996138,45.9961 L45.263638,43.75 L11.474638,43.75 L10.693338,45.9961 Z M54.150438,70.459 L56.787138,70.459 L29.638638,0 L28.466838,0 L28.466838,3.3203 L54.150438,70.459 Z" id="Shape"></path>
                </g>
                <line x1="0" y1="500.959" x2="2773" y2="500.959" id="Baseline-M" stroke="#27AAE1" stroke-width="0.5"></line>
                <line x1="0" y1="430.499" x2="2773" y2="430.499" id="Capline-M" stroke="#27AAE1" stroke-width="0.5"></line>
                <g id="H-reference" transform="translate(76.976562, 860.500000)" fill="#27AAE1" fill-rule="nonzero">
                    <path d="M-1.22124533e-15,70.459 L2.685548,70.459 L28.369138,3.3203 L29.052738,3.3203 L29.052738,0 L27.148438,0 L-1.22124533e-15,70.459 Z M10.693338,45.9961 L45.996138,45.9961 L45.263638,43.75 L11.474638,43.75 L10.693338,45.9961 Z M54.150438,70.459 L56.787138,70.459 L29.638638,0 L28.466838,0 L28.466838,3.3203 L54.150438,70.459 Z" id="Shape"></path>
                </g>
                <line x1="0" y1="930.959" x2="2773" y2="930.959" id="Baseline-L" stroke="#27AAE1" stroke-width="0.5"></line>
                <line x1="0" y1="860.499" x2="2773" y2="860.499" id="Capline-L" stroke="#27AAE1" stroke-width="0.5"></line>
                <line x1="1129.45" y1="405.749" x2="1129.45" y2="525.079" id="left-margin-Regular-M" stroke="#00AEEF" stroke-width="0.5"></line>
                <line x1="1244.24" y1="405.749" x2="1244.24" y2="525.079" id="right-margin-Regular-M" stroke="#00AEEF" stroke-width="0.5"></line>
            </g>
            <g id="Symbols" transform="translate(489.973000, 617.004513)" fill="#000000" fill-rule="nonzero">
                <g id="Black-L" transform="translate(2365.247000, 828.897093)">
                    <path d="M100.24,7.50839441 L120.17,56.8583944 L140.8,56.8583944 C145.64,56.8583944 149.55,60.7783944 149.55,65.6083944 C149.55,70.4483944 145.64,74.3583944 140.8,74.3583944 L8.75,74.3583944 C3.92,74.3583944 0,70.4483944 0,65.6083944 C0,60.7783944 3.92,56.8583944 8.75,56.8583944 L27.04,56.8583944 L46.78,7.53839441 C48.97,1.82839441 55.19,-1.24160559 61.06,0.488394403 L73.51,4.14839441 L85.97,0.478394403 C91.82,-1.24160559 98.03,1.80839441 100.24,7.50839441 Z M85.83,18.7583944 L76.14,21.6183944 C75.26,21.8683944 74.37,21.9883944 73.5,21.9683944 L73.1297376,21.9684236 C72.3861224,21.9514556 71.6257143,21.8326801 70.88,21.6183944 L70.88,21.6183944 L61.21,18.7683944 L45.79,56.8583944 L101.4,56.8583944 L85.83,18.7583944 Z M110.33,80.0083944 C125.75,80.0083944 138.26,92.5083944 138.26,107.938394 C138.26,123.368394 125.75,135.868394 110.33,135.868394 C98.48,135.868394 88.36,128.498394 84.3,118.088394 C84.11,117.988394 83.92,117.888394 83.73,117.768394 C78.81,114.738394 76.02,113.988394 73.93,113.988394 C71.84,113.988394 69.05,114.738394 64.12,117.768394 C63.94,117.878394 63.75,117.988394 63.56,118.088394 C59.5,128.498394 49.38,135.868394 37.53,135.868394 C22.1,135.868394 9.6,123.368394 9.6,107.938394 C9.6,92.5083944 22.1,80.0083944 37.53,80.0083944 C49.61,80.0083944 59.9,87.6783944 63.8,98.4083944 C67.05,97.1983944 70.39,96.4883944 73.93,96.4883944 C77.46,96.4883944 80.81,97.1983944 84.06,98.4083944 C87.96,87.6783944 98.25,80.0083944 110.33,80.0083944 Z M37.53,97.5083944 C31.77,97.5083944 27.1,102.178394 27.1,107.938394 C27.1,113.698394 31.77,118.368394 37.53,118.368394 C43.29,118.368394 47.96,113.698394 47.96,107.938394 C47.96,102.178394 43.29,97.5083944 37.53,97.5083944 Z M99.89,107.938394 C99.89,113.698394 104.57,118.368394 110.33,118.368394 C116.09,118.368394 120.76,113.698394 120.76,107.938394 C120.76,102.178394 116.09,97.5083944 110.33,97.5083944 C104.57,97.5083944 99.89,102.178394 99.89,107.938394 Z" id="Shape"></path>
                </g>
                <g id="Heavy-L" transform="translate(2071.247000, 829.899416)">
                    <path d="M98.3,6.86607126 L118.48,56.8660713 L139.8,56.8660713 C144.08,56.8660713 147.55,60.3260713 147.55,64.6160713 C147.55,68.8960713 144.08,72.3660713 139.8,72.3660713 L7.75,72.3660713 C3.47,72.3660713 0,68.8960713 0,64.6160713 C0,60.3260713 3.47,56.8660713 7.75,56.8660713 L26.73,56.8660713 L26.74,56.8360713 L46.71,6.89607126 C48.72,1.66607126 54.4,-1.13392874 59.78,0.446071263 L72.51,4.18607126 L85.25,0.436071263 C90.61,-1.13392874 96.28,1.65607126 98.3,6.86607126 Z M85.43,16.5460713 L74.86,19.6560713 C74.07,19.8860713 73.28,19.9860713 72.5,19.9660713 C71.73,19.9860713 70.94,19.8860713 70.16,19.6560713 L70.16,19.6560713 L59.6,16.5460713 L43.33,56.8660713 L101.86,56.8660713 L85.43,16.5460713 Z M109.33,79.0060713 C124.75,79.0060713 137.26,91.5060713 137.26,106.936071 C137.26,122.366071 124.75,134.866071 109.33,134.866071 C97.41,134.866071 87.23,127.406071 83.22,116.896071 C78.25,113.836071 75.28,112.986071 72.93,112.986071 C70.58,112.986071 67.61,113.836071 62.64,116.896071 C58.63,127.406071 48.45,134.866071 36.53,134.866071 C21.1,134.866071 8.6,122.366071 8.6,106.936071 C8.6,91.5060713 21.1,79.0060713 36.53,79.0060713 C49.29,79.0060713 60.06,87.5660713 63.4,99.2560713 C66.48,98.1360713 69.62,97.4860713 72.93,97.4860713 C76.23,97.4860713 79.38,98.1360713 82.46,99.2560713 C85.8,87.5660713 96.56,79.0060713 109.33,79.0060713 Z M36.53,94.5060713 C29.66,94.5060713 24.1,100.066071 24.1,106.936071 C24.1,113.806071 29.66,119.366071 36.53,119.366071 C43.4,119.366071 48.96,113.806071 48.96,106.936071 C48.96,100.066071 43.4,94.5060713 36.53,94.5060713 Z M96.89,106.936071 C96.89,113.806071 102.46,119.366071 109.33,119.366071 C116.19,119.366071 121.76,113.806071 121.76,106.936071 C121.76,100.066071 116.19,94.5060713 109.33,94.5060713 C102.46,94.5060713 96.89,100.066071 96.89,106.936071 Z" id="Shape_2"></path>
                </g>
                <g id="Bold-L" transform="translate(1775.747000, 831.397952)">
                    <path d="M57.85,0.377535292 L71.01,4.24753529 L84.17,0.377535292 C88.78,-0.972464708 93.67,1.42753529 95.41,5.90753529 L115.61,55.9675353 C115.72,56.2675353 115.81,56.5675353 115.88,56.8575353 L138.3,56.8575353 C141.75,56.8575353 144.55,59.6575353 144.55,63.1075353 C144.55,66.5675353 141.75,69.3575353 138.3,69.3575353 L6.25,69.3575353 C2.8,69.3575353 0,66.5675353 0,63.1075353 C0,59.6575353 2.8,56.8575353 6.25,56.8575353 L26.35,56.8575353 C26.42,56.5275353 26.51,56.1975353 26.64,55.8675353 L46.61,5.93753529 C48.34,1.43753529 53.23,-0.982464708 57.85,0.377535292 Z M84.83,13.2175353 L72.93,16.7175353 C72.29,16.9075353 71.64,16.9875353 71.01,16.9675353 C70.37,16.9875353 69.72,16.9075353 69.08,16.7175353 L69.08,16.7175353 L57.2,13.2175353 L39.65,56.8575353 L102.55,56.8575353 L84.83,13.2175353 Z M107.83,77.5075353 C123.25,77.5075353 135.76,90.0075353 135.76,105.437535 C135.76,120.867535 123.25,133.367535 107.83,133.367535 C95.1,133.367535 84.36,124.857535 80.99,113.217535 C76.77,110.807535 73.9,109.987535 71.43,109.987535 C68.96,109.987535 66.09,110.807535 61.87,113.217535 C58.5,124.857535 47.76,133.367535 35.03,133.367535 C19.6,133.367535 7.1,120.867535 7.1,105.437535 C7.1,90.0075353 19.6,77.5075353 35.03,77.5075353 C48.32,77.5075353 59.44,86.7875353 62.27,99.2175353 C65.26,98.1175353 68.28,97.4875353 71.43,97.4875353 C74.58,97.4875353 77.6,98.1175353 80.59,99.2175353 C83.42,86.7875353 94.54,77.5075353 107.83,77.5075353 Z M35.03,90.0075353 C26.51,90.0075353 19.6,96.9175353 19.6,105.437535 C19.6,113.957535 26.51,120.867535 35.03,120.867535 C43.56,120.867535 50.46,113.957535 50.46,105.437535 C50.46,96.9175353 43.56,90.0075353 35.03,90.0075353 Z M92.39,105.437535 C92.39,113.957535 99.3,120.867535 107.83,120.867535 C116.35,120.867535 123.26,113.957535 123.26,105.437535 C123.26,96.9175353 116.35,90.0075353 107.83,90.0075353 C99.3,90.0075353 92.39,96.9175353 92.39,105.437535 Z" id="Shape_3"></path>
                </g>
                <g id="Semibold-L" transform="translate(1480.497000, 832.150711)">
                    <path d="M93.96,5.41477636 L114.79,56.8547764 L137.55,56.8547764 C140.59,56.8547764 143.05,59.3247764 143.05,62.3547764 C143.05,65.3947764 140.59,67.8547764 137.55,67.8547764 L111.16,67.8547764 C111.07,67.8647764 110.99,67.8647764 110.9,67.8547764 L30.16,67.8547764 C30.07,67.8647764 29.99,67.8647764 29.9,67.8547764 L5.5,67.8547764 C2.47,67.8547764 0,65.3947764 0,62.3547764 C0,59.3247764 2.47,56.8547764 5.5,56.8547764 L26.24,56.8547764 L46.56,5.48477636 C48.14,1.33477636 52.64,-0.905223635 56.9,0.354776365 L70.26,4.28477636 L83.64,0.344776365 C87.87,-0.895223635 92.35,1.30477636 93.96,5.41477636 Z M84.54,11.5447764 L71.97,15.2447764 C71.4,15.4147764 70.82,15.4847764 70.26,15.4647764 C69.69,15.4847764 69.12,15.4147764 68.55,15.2447764 L68.55,15.2447764 L56.02,11.5547764 L38.01,56.8547764 L102.98,56.8547764 L84.54,11.5447764 Z M107.08,76.7547764 C122.5,76.7547764 135.01,89.2547764 135.01,104.684776 C135.01,120.114776 122.5,132.614776 107.08,132.614776 C93.98,132.614776 82.99,123.604776 79.97,111.454776 C76.03,109.274776 73.19,108.484776 70.68,108.484776 C68.16,108.484776 65.33,109.274776 61.39,111.454776 C58.37,123.604776 47.38,132.614776 34.28,132.614776 C18.85,132.614776 6.35,120.114776 6.35,104.684776 C6.35,89.2547764 18.85,76.7547764 34.28,76.7547764 C47.83,76.7547764 59.13,86.4047764 61.68,99.2047764 C64.64,98.1047764 67.6,97.4847764 70.68,97.4847764 C73.76,97.4847764 76.72,98.1047764 79.68,99.2047764 C82.23,86.4047764 93.53,76.7547764 107.08,76.7547764 Z M34.28,87.7547764 C24.93,87.7547764 17.35,95.3347764 17.35,104.684776 C17.35,114.034776 24.93,121.614776 34.28,121.614776 C43.63,121.614776 51.21,114.034776 51.21,104.684776 C51.21,95.3347764 43.63,87.7547764 34.28,87.7547764 Z M90.14,104.684776 C90.14,114.034776 97.73,121.614776 107.08,121.614776 C116.43,121.614776 124.01,114.034776 124.01,104.684776 C124.01,95.3347764 116.43,87.7547764 107.08,87.7547764 C97.73,87.7547764 90.14,95.3347764 90.14,104.684776 Z" id="Shape_4"></path>
                </g>
                <g id="Medium-L" transform="translate(1184.997000, 832.649581)">
                    <path d="M92.99,5.09590643 L113.95,56.8559064 L137.05,56.8559064 C139.81,56.8559064 142.05,59.0959064 142.05,61.8559064 C142.05,64.6259064 139.81,66.8559064 137.05,66.8559064 L110.65,66.8559064 C110.57,66.8659064 110.49,66.8659064 110.42,66.8559064 L29.64,66.8559064 C29.57,66.8659064 29.49,66.8659064 29.41,66.8559064 L5,66.8559064 C2.24,66.8559064 0,64.6259064 0,61.8559064 C0,59.0959064 2.24,56.8559064 5,56.8559064 L26.08,56.8559064 L46.53,5.15590643 C48.01,1.25590643 52.25,-0.844093571 56.26,0.335906429 L69.76,4.30590643 L83.28,0.325906429 C87.26,-0.844093571 91.48,1.22590643 92.99,5.09590643 Z M84.34,10.4359064 L71.33,14.2659064 C70.81,14.4159064 70.27,14.4859064 69.76,14.4659064 C69.24,14.4859064 68.71,14.4159064 68.19,14.2659064 L68.19,14.2659064 L55.21,10.4459064 L36.78,56.8559064 L103.21,56.8559064 L84.34,10.4359064 Z M106.58,76.2459064 C122,76.2459064 134.51,88.7559064 134.51,104.185906 C134.51,119.605906 122,132.115906 106.58,132.115906 C93.25,132.115906 82.11,122.785906 79.32,110.305906 C75.53,108.265906 72.72,107.485906 70.18,107.485906 C67.64,107.485906 64.83,108.265906 61.04,110.305906 C58.25,122.785906 47.11,132.115906 33.78,132.115906 C18.35,132.115906 5.85,119.605906 5.85,104.185906 C5.85,88.7559064 18.35,76.2459064 33.78,76.2459064 C47.51,76.2459064 58.93,86.1559064 61.27,99.2059064 C64.21,98.1059064 67.14,97.4859064 70.18,97.4859064 C73.22,97.4859064 76.15,98.1059064 79.09,99.2059064 C81.43,86.1559064 92.85,76.2459064 106.58,76.2459064 Z M33.78,86.2459064 C23.88,86.2459064 15.85,94.2759064 15.85,104.185906 C15.85,114.085906 23.88,122.115906 33.78,122.115906 C43.69,122.115906 51.71,114.085906 51.71,104.185906 C51.71,94.2759064 43.69,86.2459064 33.78,86.2459064 Z M88.64,104.185906 C88.64,114.085906 96.67,122.115906 106.58,122.115906 C116.48,122.115906 124.51,114.085906 124.51,104.185906 C124.51,94.2759064 116.48,86.2459064 106.58,86.2459064 C96.67,86.2459064 88.64,94.2759064 88.64,104.185906 Z" id="Shape_5"></path>
                </g>
                <g id="Regular-L" transform="translate(889.997000, 834.648182)">
                    <path d="M91.06,4.45730502 L112.26,56.857305 L136.05,56.857305 C138.26,56.857305 140.05,58.657305 140.05,60.857305 C140.05,63.067305 138.26,64.857305 136.05,64.857305 L109.62,64.857305 C109.56,64.867305 109.5,64.867305 109.44,64.857305 L28.62,64.857305 C28.56,64.867305 28.5,64.867305 28.44,64.857305 L4,64.857305 C1.79,64.857305 0,63.067305 0,60.857305 C0,58.657305 1.79,56.857305 4,56.857305 L25.77,56.857305 L46.46,4.51730502 C47.76,1.09730502 51.47,-0.742694985 54.98,0.297305015 L68.76,4.34730502 L82.56,0.287305015 C86.05,-0.742694985 89.74,1.07730502 91.06,4.45730502 Z M83.94,8.21730502 L70.05,12.307305 C69.62,12.437305 69.18,12.487305 68.76,12.467305 C68.33,12.487305 67.9,12.427305 67.47,12.307305 L67.47,12.307305 L53.61,8.22730502 L34.33,56.857305 L103.68,56.857305 L83.94,8.21730502 Z M105.58,75.247305 C121,75.247305 133.51,87.757305 133.51,103.187305 C133.51,118.607305 121,131.117305 105.58,131.117305 C91.81,131.117305 80.37,121.157305 78.07,108.047305 C74.54,106.237305 71.77,105.487305 69.18,105.487305 C66.59,105.487305 63.82,106.237305 60.29,108.037305 C57.99,121.157305 46.55,131.117305 32.78,131.117305 C17.35,131.117305 4.85,118.607305 4.85,103.187305 C4.85,87.757305 17.35,75.247305 32.78,75.247305 C46.86,75.247305 58.51,85.667305 60.44,99.217305 C63.35,98.097305 66.22,97.487305 69.18,97.487305 C72.14,97.487305 75.01,98.097305 77.92,99.217305 C79.85,85.667305 91.5,75.247305 105.58,75.247305 Z M32.78,83.247305 C21.77,83.247305 12.85,92.177305 12.85,103.187305 C12.85,114.187305 21.77,123.117305 32.78,123.117305 C43.78,123.117305 52.71,114.197305 52.71,103.197305 L52.71,103.197305 L52.69,103.167305 C52.7,103.157305 52.71,103.157305 52.71,103.147305 C52.7,92.157305 43.78,83.247305 32.78,83.247305 Z M85.64,103.197305 C85.65,114.197305 94.57,123.117305 105.58,123.117305 C116.59,123.117305 125.51,114.187305 125.51,103.187305 C125.51,92.177305 116.59,83.247305 105.58,83.247305 C94.58,83.247305 85.66,92.157305 85.64,103.147305 C85.65,103.157305 85.66,103.157305 85.67,103.167305 L85.64,103.197305 Z" id="Shape_6"></path>
                </g>
                <g id="Light-L" transform="translate(593.497000, 835.150775)">
                    <path d="M90.09,4.13471201 L111.42,56.854712 L135.55,56.854712 C137.49,56.854712 139.05,58.424712 139.05,60.354712 C139.05,62.294712 137.49,63.854712 135.55,63.854712 L109.11,63.854712 C109.06,63.864712 109,63.864712 108.95,63.854712 L28.11,63.854712 C28.06,63.864712 28,63.864712 27.95,63.854712 L3.5,63.854712 C1.57,63.854712 0,62.294712 0,60.354712 C0,58.424712 1.57,56.854712 3.5,56.854712 L25.62,56.854712 L46.43,4.19471201 C47.64,1.02471201 51.08,-0.685287991 54.34,0.274712009 L68.26,4.36471201 L82.2,0.264712009 C85.44,-0.685287991 88.87,0.994712009 90.09,4.13471201 Z M83.74,7.10471201 L69.41,11.324712 C69.02,11.434712 68.64,11.484712 68.26,11.464712 C67.88,11.484712 67.49,11.434712 67.11,11.324712 L67.11,11.324712 L52.8,7.11471201 L33.11,56.854712 L103.91,56.854712 L83.74,7.10471201 Z M105.08,74.744712 C120.5,74.744712 133.01,87.254712 133.01,102.684712 C133.01,118.104712 120.5,130.614712 105.08,130.614712 C91.09,130.614712 79.51,120.334712 77.46,106.924712 C74.33,105.354712 71.75,104.614712 69.34,104.504712 C66.53,104.374712 63.59,105.074712 59.89,106.924712 C57.85,120.334712 46.26,130.614712 32.28,130.614712 C16.85,130.614712 4.35,118.104712 4.35,102.684712 C4.35,87.254712 16.85,74.744712 32.28,74.744712 C46.54,74.744712 58.3,85.424712 60,99.224712 C63.24,97.974712 66.39,97.354712 69.67,97.514712 C72.25,97.634712 74.78,98.224712 77.36,99.224712 C79.06,85.424712 90.82,74.744712 105.08,74.744712 Z M32.28,81.744712 C20.72,81.744712 11.35,91.114712 11.35,102.684712 C11.35,114.244712 20.72,123.614712 32.28,123.614712 C43.84,123.614712 53.21,114.244712 53.21,102.684712 C53.21,91.114712 43.84,81.744712 32.28,81.744712 Z M84.14,102.684712 C84.14,114.244712 93.52,123.614712 105.08,123.614712 C116.64,123.614712 126.01,114.244712 126.01,102.684712 C126.01,91.114712 116.64,81.744712 105.08,81.744712 C93.52,81.744712 84.14,91.114712 84.14,102.684712 Z" id="Shape_7"></path>
                </g>
                <g id="Thin-L" transform="translate(296.500000, 836.149443)">
                    <path d="M88.157,3.50604381 L109.736,56.8560438 L134.55,56.8560438 C135.931,56.8560438 137.05,57.9760438 137.05,59.3560438 C137.05,60.7460438 135.931,61.8560438 134.55,61.8560438 L108.085,61.8560438 C108.047,61.8660438 108.008,61.8660438 107.97,61.8560438 L27.084,61.8560438 C27.046,61.8660438 27.007,61.8660438 26.969,61.8560438 L2.5,61.8560438 C1.119,61.8560438 0,60.7460438 0,59.3560438 C0,57.9760438 1.119,56.8560438 2.5,56.8560438 L25.304,56.8560438 L46.359,3.54604381 C47.381,0.866043812 50.296,-0.583956188 53.051,0.226043812 L67.256,4.40604381 L81.481,0.226043812 C84.22,-0.583956188 87.12,0.846043812 88.157,3.50604381 Z M83.499,5.31604381 C83.404,5.07604381 83.141,4.94604381 82.892,5.02604381 L82.892,5.02604381 L68.122,9.36604381 C67.832,9.44604381 67.539,9.47604381 67.254,9.46604381 C66.97,9.47604381 66.678,9.44604381 66.389,9.36604381 L66.389,9.36604381 L51.64,5.02604381 C51.39,4.95604381 51.125,5.08604381 51.032,5.32604381 L51.032,5.32604381 L30.654,56.8560438 L104.369,56.8560438 Z M104.074,73.7460438 C119.502,73.7460438 132.008,86.2560438 132.008,101.686044 C132.008,117.106044 119.502,129.616044 104.074,129.616044 C89.681,129.616044 77.83,118.726044 76.306,104.736044 C73.346,103.326044 70.806,102.616044 68.382,102.506044 C65.513,102.366044 62.573,103.056044 59.046,104.736044 C57.523,118.726044 45.672,129.616044 31.278,129.616044 C15.851,129.616044 3.344,117.106044 3.344,101.686044 C3.344,86.2560438 15.851,73.7460438 31.278,73.7460438 C45.888,73.7460438 57.878,84.9660438 59.108,99.2560438 C62.332,97.9760438 65.426,97.3560438 68.617,97.5060438 C71.158,97.6260438 73.662,98.2360438 76.245,99.2560438 C77.474,84.9660438 89.464,73.7460438 104.074,73.7460438 Z M31.278,78.7460438 C18.612,78.7460438 8.344,89.0160438 8.344,101.686044 C8.344,114.346044 18.612,124.616044 31.278,124.616044 C43.944,124.616044 54.212,114.346044 54.212,101.686044 C54.212,89.0160438 43.944,78.7460438 31.278,78.7460438 Z M81.142,101.886044 C81.251,114.456044 91.477,124.616044 104.074,124.616044 C116.74,124.616044 127.008,114.346044 127.008,101.686044 C127.008,89.0160438 116.74,78.7460438 104.074,78.7460438 C91.428,78.7460438 81.172,88.9860438 81.141,101.626044 C81.178,101.646044 81.216,101.666044 81.254,101.686044 L81.142,101.886044 Z" id="Shape_8"></path>
                </g>
                <g id="Ultralight-L" transform="translate(0.000000, 836.652036)">
                    <path d="M87.191,3.18345064 L108.894,56.8634506 L134.05,56.8634506 C135.155,56.8634506 136.05,57.7534506 136.05,58.8634506 C136.05,59.9634506 135.155,60.8634506 134.05,60.8634506 L2,60.8634506 C0.896,60.8634506 3.91919855e-23,59.9634506 3.91919855e-23,58.8634506 C3.91919855e-23,57.7534506 0.896,56.8634506 2,56.8634506 L25.148,56.8634506 L46.326,3.22345064 C47.255,0.783450636 49.905,-0.526549364 52.41,0.203450636 L66.756,4.42345064 L81.122,0.203450636 C83.612,-0.526549364 86.249,0.763450636 87.191,3.18345064 Z M83.465,4.63345064 C83.276,4.15345064 82.749,3.89345064 82.251,4.04345064 L82.251,4.04345064 L67.481,8.38345064 C67.238,8.45345064 66.993,8.47345064 66.754,8.46345064 C66.517,8.47345064 66.272,8.45345064 66.03,8.38345064 L66.03,8.38345064 L51.281,4.04345064 C50.78,3.89345064 50.25,4.16345064 50.065,4.65345064 L50.065,4.65345064 L29.428,56.8634506 L104.601,56.8634506 Z M103.574,73.2434506 C119.002,73.2434506 131.508,85.7534506 131.508,101.183451 C131.508,116.603451 119.002,129.113451 103.574,129.113451 C88.982,129.113451 77.003,117.923451 75.749,103.653451 C72.559,102.163451 69.812,101.483451 67.139,101.483451 C64.49,101.493451 61.764,102.183451 58.603,103.653451 C57.349,117.923451 45.37,129.113451 30.778,129.113451 C15.351,129.113451 2.844,116.603451 2.844,101.183451 C2.844,85.7534506 15.351,73.2434506 30.778,73.2434506 C45.566,73.2434506 57.669,84.7334506 58.648,99.2734506 C61.541,98.1134506 64.309,97.4934506 67.129,97.4834506 C69.982,97.4834506 72.779,98.1034506 75.705,99.2734506 C76.683,84.7334506 88.787,73.2434506 103.574,73.2434506 Z M30.778,77.2434506 C17.56,77.2434506 6.844,87.9634506 6.844,101.183451 C6.844,114.393451 17.56,125.113451 30.778,125.113451 C43.996,125.113451 54.712,114.393451 54.712,101.183451 C54.712,87.9634506 43.996,77.2434506 30.778,77.2434506 Z M79.641,101.183451 C79.641,114.393451 90.356,125.113451 103.574,125.113451 C116.793,125.113451 127.508,114.393451 127.508,101.183451 C127.508,87.9634506 116.793,77.2434506 103.574,77.2434506 C90.356,77.2434506 79.641,87.9634506 79.641,101.183451 Z" id="Shape_9"></path>
                </g>
                <g id="Black-M" transform="translate(2383.497000, 418.146991)">
                    <path d="M64.5,0.428495441 L56.08,2.90849544 L47.67,0.438495441 C42.42,-1.11150456 36.87,1.63849544 34.9,6.73849544 L20.58,43.9884954 L7.5,43.9884954 C3.36,43.9884954 0,47.3484954 0,51.4884954 C0,55.6384954 3.36,58.9884954 7.5,58.9884954 L106.56,58.9884954 C110.7,58.9884954 114.06,55.6384954 114.06,51.4884954 C114.06,47.3484954 110.7,43.9884954 106.56,43.9884954 L91.72,43.9884954 L77.25,6.70849544 C75.27,1.61849544 69.73,-1.11150456 64.5,0.428495441 Z M36.65,43.9884954 L47.41,15.9984954 L53.84,17.8884954 C54.58,18.1084954 55.34,18.1984954 56.07,18.1884954 C56.81,18.1984954 57.57,18.1084954 58.31,17.8884954 L64.76,15.9884954 L75.63,43.9884954 L36.65,43.9884954 Z M83.7,62.2884954 C95.27,62.2884954 104.65,71.6684954 104.65,83.2384954 C104.65,94.8084954 95.27,104.198495 83.7,104.198495 C75.18,104.198495 67.85,99.1084954 64.57,91.8084954 C64.12,91.6384954 63.68,91.4284954 63.26,91.1684954 C59.62,88.9284954 57.71,88.4684954 56.39,88.4684954 C55.08,88.4684954 53.16,88.9284954 49.53,91.1684954 C49.11,91.4284954 48.67,91.6384954 48.22,91.8084954 C44.94,99.1084954 37.61,104.198495 29.09,104.198495 C17.52,104.198495 8.14,94.8084954 8.14,83.2384954 C8.14,71.6684954 17.52,62.2884954 29.09,62.2884954 C37.74,62.2884954 45.17,67.5284954 48.37,75.0084954 C50.92,74.0484954 53.57,73.4684954 56.39,73.4684954 C59.22,73.4684954 61.87,74.0484954 64.42,75.0084954 C67.62,67.5284954 75.05,62.2884954 83.7,62.2884954 Z M29.09,77.2884954 C25.8,77.2884954 23.14,79.9484954 23.14,83.2384954 C23.14,86.5284954 25.8,89.1984954 29.09,89.1984954 C32.38,89.1984954 35.05,86.5284954 35.05,83.2384954 C35.05,79.9484954 32.38,77.2884954 29.09,77.2884954 Z M77.74,83.2384954 C77.74,86.5284954 80.41,89.1984954 83.7,89.1984954 C86.99,89.1984954 89.65,86.5284954 89.65,83.2384954 C89.65,79.9484954 86.99,77.2884954 83.7,77.2884954 C80.41,77.2884954 77.74,79.9484954 77.74,83.2384954 Z" id="Shape_10"></path>
                </g>
                <g id="Heavy-M" transform="translate(2088.497000, 416.149315)">
                    <path d="M75.32,6.06617177 L90.03,43.9861718 L105.56,43.9861718 C109.15,43.9861718 112.06,46.8961718 112.06,50.4861718 C112.06,54.0761718 109.15,56.9861718 105.56,56.9861718 L6.5,56.9861718 C2.91,56.9861718 0,54.0761718 0,50.4861718 C0,46.8961718 2.91,43.9861718 6.5,43.9861718 L20.26,43.9861718 L34.84,6.09617177 C36.61,1.47617177 41.64,-1.00382823 46.38,0.386171773 L55.08,2.94617177 L63.78,0.386171773 C68.52,-1.00382823 73.53,1.46617177 75.32,6.06617177 Z M64.36,13.7661718 L57.03,15.9261718 C56.38,16.1161718 55.72,16.1961718 55.07,16.1861718 C54.43,16.1961718 53.77,16.1161718 53.12,15.9261718 L53.12,15.9261718 L45.81,13.7761718 L34.19,43.9861718 L76.09,43.9861718 L64.36,13.7661718 Z M82.7,61.2861718 C94.27,61.2861718 103.65,70.6661718 103.65,82.2361718 C103.65,93.8061718 94.27,103.196172 82.7,103.196172 C73.66,103.196172 65.96,97.4661718 63.02,89.4561718 L62.78,89.3161718 L62.78,89.3161718 C59.08,87.0361718 56.98,86.4661718 55.39,86.4661718 C53.81,86.4661718 51.71,87.0361718 48.01,89.3161718 L47.77,89.4561718 L47.77,89.4561718 C44.83,97.4661718 37.13,103.196172 28.09,103.196172 C16.52,103.196172 7.14,93.8061718 7.14,82.2361718 C7.14,70.6661718 16.52,61.2861718 28.09,61.2861718 C37.1,61.2861718 44.77,66.9661718 47.74,74.9361718 C50.2,74.0161718 52.72,73.4661718 55.39,73.4661718 C58.07,73.4661718 60.59,74.0161718 63.05,74.9361718 C66.02,66.9661718 73.69,61.2861718 82.7,61.2861718 Z M28.09,74.2861718 C23.7,74.2861718 20.14,77.8461718 20.14,82.2361718 C20.14,86.6261718 23.7,90.1961718 28.09,90.1961718 C32.48,90.1961718 36.05,86.6261718 36.05,82.2361718 C36.05,77.8461718 32.48,74.2861718 28.09,74.2861718 Z M74.74,82.2361718 C74.74,86.6261718 78.31,90.1961718 82.7,90.1961718 C87.09,90.1961718 90.65,86.6261718 90.65,82.2361718 C90.65,77.8461718 87.09,74.2861718 82.7,74.2861718 C78.31,74.2861718 74.74,77.8461718 74.74,82.2361718 Z" id="Shape_11"></path>
                </g>
                <g id="Bold-M" transform="translate(1795.497000, 420.147055)">
                    <path d="M73.38,5.42843198 L88.29,43.838432 L88.35,43.988432 L88.35,43.988432 L104.56,43.988432 C107.59,43.988432 110.06,46.458432 110.06,49.488432 C110.06,52.528432 107.59,54.988432 104.56,54.988432 L5.5,54.988432 C2.47,54.988432 0,52.528432 0,49.488432 C0,46.458432 2.47,43.988432 5.5,43.988432 L19.96,43.988432 C19.98,43.918432 20.01,43.838432 20.04,43.768432 L34.77,5.45843198 C36.36,1.31843198 40.85,-0.901568018 45.1,0.348431982 L54.08,2.98843198 L63.06,0.348431982 C67.3,-0.901568018 71.79,1.30843198 73.38,5.42843198 Z M63.96,11.548432 L55.75,13.968432 C55.19,14.128432 54.63,14.198432 54.07,14.188432 C53.52,14.198432 52.96,14.128432 52.4,13.968432 L52.4,13.968432 L44.21,11.558432 L31.74,43.988432 L76.55,43.988432 L63.96,11.548432 Z M81.7,60.288432 C93.27,60.288432 102.65,69.668432 102.65,81.238432 C102.65,92.808432 93.27,102.188432 81.7,102.188432 C72.58,102.188432 64.82,96.368432 61.94,88.238432 C58.39,86.098432 56.19,85.468432 54.4,85.468432 C52.6,85.468432 50.4,86.098432 46.85,88.238432 C43.97,96.368432 36.21,102.188432 27.09,102.188432 C15.52,102.188432 6.14,92.808432 6.14,81.238432 C6.14,69.668432 15.52,60.288432 27.09,60.288432 C36.78,60.288432 44.93,66.858432 47.33,75.788432 C49.62,74.948432 51.95,74.468432 54.4,74.468432 C56.84,74.468432 59.17,74.948432 61.46,75.788432 C63.86,66.858432 72.01,60.288432 81.7,60.288432 Z M27.09,71.288432 C21.59,71.288432 17.14,75.738432 17.14,81.238432 C17.14,86.738432 21.59,91.188432 27.09,91.188432 C32.59,91.188432 37.05,86.738432 37.05,81.238432 C37.05,75.738432 32.59,71.288432 27.09,71.288432 Z M71.74,81.238432 C71.74,86.738432 76.2,91.188432 81.7,91.188432 C87.2,91.188432 91.65,86.738432 91.65,81.238432 C91.65,75.738432 87.2,71.288432 81.7,71.288432 C76.2,71.288432 71.74,75.738432 71.74,81.238432 Z" id="Shape_12"></path>
                </g>
                <g id="Semibold-M" transform="translate(1499.247000, 420.898085)">
                    <path d="M71.94,4.94740223 L86.84,43.3674022 C86.92,43.5674022 86.99,43.7774022 87.04,43.9874022 L103.81,43.9874022 C106.43,43.9874022 108.56,46.1174022 108.56,48.7374022 C108.56,51.3674022 106.43,53.4874022 103.81,53.4874022 L4.75,53.4874022 C2.13,53.4874022 0,51.3674022 0,48.7374022 C0,46.1174022 2.13,43.9874022 4.75,43.9874022 L19.78,43.9874022 C19.83,43.7574022 19.9,43.5174022 19.99,43.2874022 L34.72,4.97740223 C36.17,1.20740223 40.27,-0.822597767 44.14,0.317402233 L53.33,3.02740223 L62.52,0.317402233 C66.39,-0.822597767 70.48,1.19740223 71.94,4.94740223 Z M63.66,9.88740223 L54.79,12.4974022 C54.3,12.6374022 53.81,12.6974022 53.33,12.6874022 C52.84,12.6974022 52.35,12.6374022 51.87,12.4974022 L51.87,12.4974022 L43.01,9.88740223 L29.89,43.9874022 L76.9,43.9874022 L63.66,9.88740223 Z M80.95,59.5374022 C92.52,59.5374022 101.9,68.9174022 101.9,80.4874022 C101.9,92.0574022 92.52,101.447402 80.95,101.447402 C71.43,101.447402 63.4,95.0974022 60.84,86.4174022 C57.65,84.5874022 55.49,83.9674022 53.65,83.9674022 C51.8,83.9674022 49.64,84.5874022 46.45,86.4174022 C43.89,95.0974022 35.86,101.447402 26.34,101.447402 C14.77,101.447402 5.39,92.0574022 5.39,80.4874022 C5.39,68.9174022 14.77,59.5374022 26.34,59.5374022 C36.29,59.5374022 44.62,66.4674022 46.76,75.7674022 C49.01,74.9374022 51.28,74.4674022 53.65,74.4674022 C56.01,74.4674022 58.28,74.9374022 60.53,75.7674022 C62.67,66.4674022 71,59.5374022 80.95,59.5374022 Z M26.34,69.0374022 C20.02,69.0374022 14.89,74.1674022 14.89,80.4874022 C14.89,86.8174022 20.02,91.9474022 26.34,91.9474022 C32.67,91.9474022 37.8,86.8174022 37.8,80.4874022 C37.8,74.1674022 32.67,69.0374022 26.34,69.0374022 Z M69.49,80.4874022 C69.49,86.8174022 74.62,91.9474022 80.95,91.9474022 C87.27,91.9474022 92.4,86.8174022 92.4,80.4874022 C92.4,74.1674022 87.27,69.0374022 80.95,69.0374022 C74.62,69.0374022 69.49,74.1674022 69.49,80.4874022 Z" id="Shape_13"></path>
                </g>
                <g id="Medium-M" transform="translate(1202.747000, 421.400676)">
                    <path d="M70.97,4.62481065 L85.88,43.0448106 C86,43.3548106 86.08,43.6748106 86.12,43.9848106 L103.31,43.9848106 C105.65,43.9848106 107.56,45.8948106 107.56,48.2348106 C107.56,50.5848106 105.65,52.4848106 103.31,52.4848106 L4.25,52.4848106 C1.91,52.4848106 0,50.5848106 0,48.2348106 C0,45.8948106 1.91,43.9848106 4.25,43.9848106 L19.7,43.9848106 C19.74,43.6448106 19.82,43.3048106 19.95,42.9648106 L34.69,4.65481065 C36.04,1.12481065 39.88,-0.765189354 43.5,0.294810646 L52.83,3.04481065 L62.16,0.294810646 C65.78,-0.765189354 69.61,1.11481065 70.97,4.62481065 Z M63.46,8.77481065 L54.15,11.5148106 C53.71,11.6448106 53.26,11.6948106 52.83,11.6848106 C52.39,11.6948106 51.95,11.6448106 51.51,11.5148106 L51.51,11.5148106 L42.21,8.77481065 L28.67,43.9848106 L77.13,43.9848106 L63.46,8.77481065 Z M80.45,59.0348106 C92.02,59.0348106 101.4,68.4148106 101.4,79.9848106 C101.4,91.5548106 92.02,100.944811 80.45,100.944811 C70.69,100.944811 62.49,94.2648106 60.16,85.2348106 C57.16,83.5648106 55.02,82.9648106 53.15,82.9648106 C51.27,82.9648106 49.13,83.5648106 46.13,85.2348106 C43.8,94.2648106 35.6,100.944811 25.84,100.944811 C14.27,100.944811 4.89,91.5548106 4.89,79.9848106 C4.89,68.4148106 14.27,59.0348106 25.84,59.0348106 C35.97,59.0348106 44.41,66.2148106 46.37,75.7548106 C48.59,74.9348106 50.82,74.4648106 53.15,74.4648106 C55.47,74.4648106 57.7,74.9348106 59.92,75.7548106 C61.88,66.2148106 70.32,59.0348106 80.45,59.0348106 Z M25.84,67.5348106 C18.96,67.5348106 13.39,73.1048106 13.39,79.9848106 C13.39,86.8648106 18.96,92.4448106 25.84,92.4448106 C32.72,92.4448106 38.3,86.8648106 38.3,79.9848106 C38.3,73.1048106 32.72,67.5348106 25.84,67.5348106 Z M67.99,79.9848106 C67.99,86.8648106 73.57,92.4448106 80.45,92.4448106 C87.33,92.4448106 92.9,86.8648106 92.9,79.9848106 C92.9,73.1048106 87.33,67.5348106 80.45,67.5348106 C73.57,67.5348106 67.99,73.1048106 67.99,79.9848106 Z" id="Shape_14"></path>
                </g>
                <g id="Regular-M" transform="translate(906.597000, 421.900476)">
                    <path d="M70,4.3150114 L85.35,43.9850114 L102.8,43.9850114 C104.87,43.9850114 106.55,45.6650114 106.55,47.7350114 C106.55,49.8050114 104.87,51.4850114 102.8,51.4850114 L3.75,51.4850114 C1.68,51.4850114 0,49.8050114 0,47.7350114 C0,45.6650114 1.68,43.9850114 3.75,43.9850114 L19.68,43.9850114 L34.65,4.3750114 C35.9,1.0650114 39.48,-0.714988598 42.87,0.285011402 L52.32,3.0650114 L61.8,0.275011402 C65.17,-0.714988598 68.73,1.0450114 70,4.3150114 Z M63.25,7.6650114 L53.5,10.5350114 C53.11,10.6450114 52.71,10.6950114 52.32,10.6850114 C51.93,10.6950114 51.54,10.6450114 51.15,10.5350114 L51.15,10.5350114 L41.42,7.6750114 L27.7,43.9850114 L77.31,43.9850114 L63.25,7.6650114 Z M79.95,58.5350114 C91.52,58.5350114 100.9,67.9150114 100.9,79.4850114 C100.9,91.0550114 91.52,100.445011 79.95,100.445011 C69.95,100.445011 61.59,93.4450114 59.5,84.0750114 C56.66,82.5450114 54.55,81.9650114 52.64,81.9650114 C50.74,81.9650114 48.63,82.5450114 45.79,84.0750114 C43.69,93.4450114 35.33,100.445011 25.34,100.445011 C13.77,100.445011 4.38,91.0550114 4.38,79.4850114 C4.38,67.9150114 13.77,58.5350114 25.34,58.5350114 C35.64,58.5350114 44.2,65.9650114 45.96,75.7550114 C48.17,74.9250114 50.36,74.4650114 52.64,74.4650114 C54.92,74.4650114 57.12,74.9250114 59.32,75.7550114 C61.08,65.9650114 69.65,58.5350114 79.95,58.5350114 Z M25.34,66.0350114 C17.91,66.0350114 11.88,72.0550114 11.88,79.4850114 C11.88,86.9150114 17.91,92.9450114 25.34,92.9450114 C32.77,92.9450114 38.79,86.9150114 38.79,79.4850114 C38.79,72.0550114 32.77,66.0350114 25.34,66.0350114 Z M66.49,79.4850114 C66.49,86.9150114 72.51,92.9450114 79.95,92.9450114 C87.38,92.9450114 93.4,86.9150114 93.4,79.4850114 C93.4,72.0550114 87.38,66.0350114 79.95,66.0350114 C72.51,66.0350114 66.49,72.0550114 66.49,79.4850114 Z" id="Shape_15"></path>
                </g>
                <g id="Light-M" transform="translate(609.997000, 422.650642)">
                    <path d="M68.55,3.83484501 C67.43,0.924845007 64.26,-0.635154993 61.27,0.244845007 L51.58,3.09484501 L41.9,0.244845007 C38.9,-0.635154993 35.72,0.934845007 34.6,3.85484501 L19.22,43.984845 L3,43.984845 C1.35,43.984845 0,45.334845 0,46.984845 C0,48.644845 1.35,49.984845 3,49.984845 L102.06,49.984845 C103.71,49.984845 105.06,48.644845 105.06,46.984845 C105.06,45.334845 103.71,43.984845 102.06,43.984845 L84.14,43.984845 L68.55,3.83484501 Z M50.61,9.06484501 C50.93,9.15484501 51.26,9.19484501 51.58,9.18484501 C51.9,9.19484501 52.22,9.15484501 52.55,9.06484501 L62.96,6.00484501 L77.7,43.984845 L25.65,43.984845 L40.21,6.00484501 L50.61,9.06484501 Z M79.2,57.784845 C90.77,57.784845 100.15,67.164845 100.15,78.734845 C100.15,90.304845 90.77,99.684845 79.2,99.684845 C68.87,99.684845 60.29,92.214845 58.56,82.384845 C55.92,81.024845 53.84,80.464845 51.9,80.464845 C49.95,80.464845 47.87,81.024845 45.23,82.384845 C43.5,92.214845 34.92,99.684845 24.59,99.684845 C13.02,99.684845 3.64,90.304845 3.64,78.734845 C3.64,67.164845 13.02,57.784845 24.59,57.784845 C35.15,57.784845 43.89,65.594845 45.34,75.764845 C47.52,74.924845 49.67,74.464845 51.9,74.464845 C54.12,74.464845 56.27,74.924845 58.45,75.764845 C59.9,65.594845 68.64,57.784845 79.2,57.784845 Z M24.59,63.784845 C16.33,63.784845 9.64,70.474845 9.64,78.734845 C9.64,86.994845 16.33,93.684845 24.59,93.684845 C32.85,93.684845 39.54,87.004845 39.55,78.744845 L39.55,78.744845 L39.53,78.724845 C39.53,78.714845 39.54,78.714845 39.55,78.714845 C39.53,70.464845 32.84,63.784845 24.59,63.784845 Z M64.24,78.744845 C64.25,87.004845 70.94,93.684845 79.2,93.684845 C87.46,93.684845 94.15,86.994845 94.15,78.734845 C94.15,70.474845 87.46,63.784845 79.2,63.784845 C70.95,63.784845 64.26,70.464845 64.24,78.714845 C64.25,78.714845 64.26,78.714845 64.26,78.724845 L64.24,78.744845 Z" id="Shape_16"></path>
                </g>
                <g id="Thin-M" transform="translate(314.000000, 422.652103)">
                    <path d="M66.618,3.19338368 L82.452,43.9833837 L101.054,43.9833837 C102.159,43.9833837 103.054,44.8833837 103.054,45.9833837 C103.054,47.0933837 102.159,47.9833837 101.054,47.9833837 L2,47.9833837 C0.896,47.9833837 0,47.0933837 0,45.9833837 C0,44.8833837 0.896,43.9833837 2,43.9833837 L18.905,43.9833837 L34.534,3.21338368 C35.467,0.783383684 38.113,-0.526616316 40.614,0.203383684 L50.575,3.13338368 L60.546,0.203383684 C63.039,-0.526616316 65.678,0.763383684 66.618,3.19338368 Z M39.485,4.04338368 C38.985,3.89338368 38.456,4.15338368 38.269,4.64338368 L38.269,4.64338368 L23.189,43.9833837 L78.161,43.9833837 L62.889,4.63338368 C62.701,4.15338368 62.174,3.89338368 61.675,4.04338368 L61.675,4.04338368 L51.26,7.10338368 C51.031,7.17338368 50.799,7.19338368 50.574,7.18338368 C50.349,7.19338368 50.118,7.17338368 49.889,7.10338368 L49.889,7.10338368 Z M78.196,56.7833837 C89.768,56.7833837 99.149,66.1633837 99.149,77.7333837 C99.149,89.3033837 89.768,98.6933837 78.196,98.6933837 C67.448,98.6933837 58.591,90.5933837 57.382,80.1733837 C54.928,78.9933837 52.869,78.4633837 50.892,78.4633837 C48.915,78.4633837 46.856,78.9933837 44.402,80.1733837 C43.193,90.5933837 34.336,98.6933837 23.589,98.6933837 C12.016,98.6933837 2.635,89.3033837 2.635,77.7333837 C2.635,66.1633837 12.016,56.7833837 23.589,56.7833837 C34.504,56.7833837 43.47,65.1233837 44.453,75.7833837 C46.629,74.9233837 48.735,74.4633837 50.892,74.4633837 C53.049,74.4633837 55.155,74.9233837 57.331,75.7833837 C58.315,65.1233837 67.28,56.7833837 78.196,56.7833837 Z M23.589,60.7833837 C14.225,60.7833837 6.635,68.3733837 6.635,77.7333837 C6.635,87.0933837 14.225,94.6933837 23.589,94.6933837 C32.952,94.6933837 40.542,87.0933837 40.542,77.7333837 C40.542,68.3733837 32.952,60.7833837 23.589,60.7833837 Z M61.242,77.7333837 C61.242,87.0933837 68.832,94.6933837 78.196,94.6933837 C87.559,94.6933837 95.149,87.0933837 95.149,77.7333837 C95.149,68.3733837 87.559,60.7833837 78.196,60.7833837 C68.832,60.7833837 61.242,68.3733837 61.242,77.7333837 Z" id="Shape_17"></path>
                </g>
                <g id="Ultralight-M" transform="translate(17.751000, 420.403132)">
                    <path d="M65.169,2.71235492 L81.188,43.9823549 L100.303,43.9823549 C100.994,43.9823549 101.553,44.5423549 101.553,45.2323549 C101.553,45.9223549 100.994,46.4823549 100.303,46.4823549 L1.25,46.4823549 C0.559,46.4823549 0,45.9223549 0,45.2323549 C0,44.5423549 0.559,43.9823549 1.25,43.9823549 L18.67,43.9823549 L34.484,2.73235492 C35.277,0.66235492 37.526,-0.44764508 39.652,0.17235492 L49.824,3.16235492 L60.007,0.17235492 C62.126,-0.44764508 64.37,0.65235492 65.169,2.71235492 Z M62.838,3.61235492 C62.509,2.77235492 61.585,2.31235492 60.713,2.57235492 L60.713,2.57235492 L50.298,5.63235492 C50.139,5.68235492 49.979,5.69235492 49.823,5.68235492 C49.669,5.69235492 49.509,5.68235492 49.35,5.63235492 L49.35,5.63235492 L38.946,2.57235492 C38.071,2.31235492 37.145,2.77235492 36.819,3.62235492 L36.819,3.62235492 L21.348,43.9823549 L78.506,43.9823549 Z M77.445,56.0323549 C89.017,56.0323549 98.399,65.4123549 98.399,76.9823549 C98.399,88.5523549 89.017,97.9423549 77.445,97.9423549 C66.401,97.9423549 57.353,89.3923549 56.549,78.5523549 C54.224,77.4823549 52.193,76.9723549 50.209,76.9623549 C48.181,76.9523549 46.11,77.4623549 43.734,78.5523549 C42.93,89.3923549 33.882,97.9423549 22.838,97.9423549 C11.266,97.9423549 1.884,88.5523549 1.884,76.9823549 C1.884,65.4123549 11.266,56.0323549 22.838,56.0323549 C34.02,56.0323549 43.156,64.7923549 43.76,75.8223549 C45.976,74.9223549 48.081,74.4523549 50.223,74.4623549 C52.309,74.4723549 54.364,74.9423549 56.523,75.8223549 C57.127,64.7923549 66.263,56.0323549 77.445,56.0323549 Z M22.838,58.5323549 C12.646,58.5323549 4.384,66.7923549 4.384,76.9823549 C4.384,87.1723549 12.646,95.4423549 22.838,95.4423549 C33.03,95.4423549 41.292,87.1723549 41.292,76.9823549 C41.292,66.7923549 33.03,58.5323549 22.838,58.5323549 Z M58.991,76.9823549 C58.991,87.1723549 67.253,95.4423549 77.445,95.4423549 C87.637,95.4423549 95.899,87.1723549 95.899,76.9823549 C95.899,66.7923549 87.637,58.5323549 77.445,58.5323549 C67.253,58.5323549 58.991,66.7923549 58.991,76.9823549 Z" id="Shape_18"></path>
                </g>
                <g id="Black-S" transform="translate(2397.527000, 0.000000)">
                    <path d="M61.22,5.74548693 L72.38,34.5004869 L84,34.5004869 C87.31,34.5004869 90,37.1864869 90,40.5004869 C90,43.8134869 87.31,46.5004869 84,46.5004869 L6,46.5004869 C2.69,46.5004869 0,43.8134869 0,40.5004869 C0,37.1864869 2.69,34.5004869 6,34.5004869 L16.23,34.5004869 L27.28,5.77348693 C28.96,1.39848693 33.72,-0.953513067 38.22,0.369486933 L44.25,2.14448693 L50.29,0.367486933 C54.78,-0.952513067 59.53,1.38548693 61.22,5.74548693 Z M51.03,12.6574869 L46.04,14.1264869 C45.44,14.3024869 44.84,14.3804869 44.25,14.3714869 C43.66,14.3794869 43.06,14.3014869 42.46,14.1264869 L42.46,14.1264869 L37.48,12.6624869 L29.09,34.5004869 L59.51,34.5004869 L51.03,12.6574869 Z M66,49.0004869 C75.11,49.0004869 82.5,56.3874869 82.5,65.5004869 C82.5,74.6124869 75.11,82.0004869 66,82.0004869 C59.24,82.0004869 53.43,77.9334869 50.88,72.1134869 C50.53,71.9814869 50.19,71.8134869 49.86,71.6094869 C47,69.8534869 45.51,69.5004869 44.5,69.5004869 C43.49,69.5004869 42,69.8534869 39.14,71.6104869 C38.81,71.8134869 38.47,71.9814869 38.12,72.1134869 C35.57,77.9334869 29.76,82.0004869 23,82.0004869 C13.89,82.0004869 6.5,74.6124869 6.5,65.5004869 C6.5,56.3874869 13.89,49.0004869 23,49.0004869 C29.71,49.0004869 35.48,53.0024869 38.06,58.7494869 C40.11,57.9694869 42.23,57.5004869 44.5,57.5004869 C46.77,57.5004869 48.89,57.9694869 50.94,58.7494869 C53.52,53.0024869 59.29,49.0004869 66,49.0004869 Z M23,61.0004869 C20.51,61.0004869 18.5,63.0144869 18.5,65.5004869 C18.5,67.9854869 20.51,70.0004869 23,70.0004869 C25.49,70.0004869 27.5,67.9854869 27.5,65.5004869 C27.5,63.0144869 25.49,61.0004869 23,61.0004869 Z M61.5,65.5004869 C61.5,67.9854869 63.51,70.0004869 66,70.0004869 C68.49,70.0004869 70.5,67.9854869 70.5,65.5004869 C70.5,63.0144869 68.49,61.0004869 66,61.0004869 C63.51,61.0004869 61.5,63.0144869 61.5,65.5004869 Z" id="Shape_19"></path>
                </g>
                <g id="Heavy-S" transform="translate(2102.527000, 0.999969)">
                    <path d="M59.29,5.10751766 L70.69,34.4995177 L83,34.4995177 C85.76,34.4995177 88,36.7385177 88,39.4995177 C88,42.2615177 85.76,44.4995177 83,44.4995177 L5,44.4995177 C2.24,44.4995177 0,42.2615177 0,39.4995177 C0,36.7385177 2.24,34.4995177 5,34.4995177 L15.92,34.4995177 L27.21,5.13251766 C28.71,1.24251766 32.94,-0.846482337 36.93,0.328517663 L43.25,2.18651766 L49.57,0.326517663 C53.56,-0.846482337 57.78,1.23151766 59.29,5.10751766 Z M50.63,10.4385177 L44.76,12.1665177 C44.25,12.3145177 43.75,12.3805177 43.25,12.3705177 C42.75,12.3795177 42.24,12.3145177 41.74,12.1665177 L41.74,12.1665177 L35.88,10.4425177 L26.63,34.4995177 L59.97,34.4995177 L50.63,10.4385177 Z M65,47.9995177 C74.11,47.9995177 81.5,55.3875177 81.5,64.4995177 C81.5,73.6125177 74.11,80.9995177 65,80.9995177 C57.72,80.9995177 51.54,76.2835177 49.35,69.7395177 C46.45,67.9575177 44.77,67.4995177 43.5,67.4995177 C42.23,67.4995177 40.55,67.9575177 37.65,69.7395177 C35.46,76.2835177 29.28,80.9995177 22,80.9995177 C12.89,80.9995177 5.5,73.6125177 5.5,64.4995177 C5.5,55.3875177 12.89,47.9995177 22,47.9995177 C29.06,47.9995177 35.09,52.4365177 37.44,58.6745177 C39.39,57.9355177 41.39,57.4995177 43.5,57.4995177 C45.61,57.4995177 47.61,57.9355177 49.56,58.6745177 C51.91,52.4365177 57.94,47.9995177 65,47.9995177 Z M22,57.9995177 C18.41,57.9995177 15.5,60.9095177 15.5,64.4995177 C15.5,68.0895177 18.41,70.9995177 22,70.9995177 C25.59,70.9995177 28.5,68.0895177 28.5,64.4995177 C28.5,60.9095177 25.59,57.9995177 22,57.9995177 Z M58.5,64.4995177 C58.5,68.0895177 61.41,70.9995177 65,70.9995177 C68.59,70.9995177 71.5,68.0895177 71.5,64.4995177 C71.5,60.9095177 68.59,57.9995177 65,57.9995177 C61.41,57.9995177 58.5,60.9095177 58.5,64.4995177 Z" id="Shape_20"></path>
                </g>
                <g id="Bold-S" transform="translate(1806.027000, 1.500221)">
                    <path d="M58.32,4.78826568 L69.85,34.4902657 L69.85,34.5002657 L82.5,34.5002657 C84.99,34.5002657 87,36.5142657 87,39.0002657 C87,41.4852657 84.99,43.5002657 82.5,43.5002657 L4.5,43.5002657 C2.01,43.5002657 0,41.4852657 0,39.0002657 C0,36.5142657 2.01,34.5002657 4.5,34.5002657 L15.76,34.5002657 L15.77,34.4722657 L15.79,34.4332657 L27.18,4.81226568 C28.58,1.16526568 32.55,-0.793734319 36.29,0.308265681 L42.75,2.20726568 L49.21,0.306265681 C52.95,-0.793734319 56.91,1.15426568 58.32,4.78826568 Z M50.43,9.32926568 L44.12,11.1872657 C43.66,11.3212657 43.2,11.3802657 42.75,11.3702657 C42.3,11.3792657 41.84,11.3212657 41.38,11.1872657 L41.38,11.1872657 L35.08,9.33326568 L25.4,34.5002657 L60.2,34.5002657 L50.43,9.32926568 Z M64.5,47.5002657 C73.61,47.5002657 81,54.8872657 81,64.0002657 C81,73.1122657 73.61,80.5002657 64.5,80.5002657 C57.42,80.5002657 51.38,76.0362657 49.04,69.7682657 C46.15,68.0022657 44.4,67.5002657 43,67.5002657 C41.6,67.5002657 39.85,68.0022657 36.96,69.7682657 C34.62,76.0362657 28.58,80.5002657 21.5,80.5002657 C12.39,80.5002657 5,73.1122657 5,64.0002657 C5,54.8872657 12.39,47.5002657 21.5,47.5002657 C29.07,47.5002657 35.45,52.5942657 37.39,59.5412657 C39.21,58.8812657 41.06,58.5002657 43,58.5002657 C44.94,58.5002657 46.79,58.8812657 48.61,59.5412657 C50.55,52.5942657 56.93,47.5002657 64.5,47.5002657 Z M21.5,56.5002657 C17.36,56.5002657 14,59.8582657 14,64.0002657 C14,68.1422657 17.36,71.5002657 21.5,71.5002657 C25.64,71.5002657 29,68.1422657 29,64.0002657 C29,59.8582657 25.64,56.5002657 21.5,56.5002657 Z M57,64.0002657 C57,68.1422657 60.36,71.5002657 64.5,71.5002657 C68.64,71.5002657 72,68.1422657 72,64.0002657 C72,59.8582657 68.64,56.5002657 64.5,56.5002657 C60.36,56.5002657 57,59.8582657 57,64.0002657 Z" id="Shape_21"></path>
                </g>
                <g id="Semibold-S" transform="translate(1510.277000, 1.745573)">
                    <path d="M57.84,4.62791371 L69.37,34.3299137 L69.43,34.4999137 L69.43,34.4999137 L82.25,34.4999137 C84.6,34.4999137 86.5,36.4029137 86.5,38.7499137 C86.5,41.0969137 84.6,42.9999137 82.25,42.9999137 L4.25,42.9999137 C1.9,42.9999137 0,41.0969137 0,38.7499137 C0,36.4029137 1.9,34.4999137 4.25,34.4999137 L15.69,34.4999137 C15.71,34.4239137 15.74,34.3479137 15.77,34.2719137 L27.16,4.65191371 C28.52,1.12691371 32.35,-0.767086285 35.97,0.297913715 L42.5,2.21791371 L49.03,0.295913715 C52.65,-0.767086285 56.48,1.11591371 57.84,4.62791371 Z M50.33,8.77491371 L43.79,10.6969137 C43.36,10.8249137 42.93,10.8799137 42.5,10.8699137 C42.07,10.8789137 41.64,10.8239137 41.21,10.6969137 L41.21,10.6969137 L34.68,8.77791371 L24.79,34.4999137 L60.31,34.4999137 L50.33,8.77491371 Z M64.25,47.2499137 C73.36,47.2499137 80.75,54.6369137 80.75,63.7499137 C80.75,72.8619137 73.36,80.2499137 64.25,80.2499137 C57.03,80.2499137 50.89,75.6079137 48.65,69.1439137 C45.9,67.4969137 44.17,66.9999137 42.75,66.9999137 C41.33,66.9999137 39.6,67.4969137 36.85,69.1439137 C34.61,75.6079137 28.47,80.2499137 21.25,80.2499137 C12.14,80.2499137 4.75,72.8619137 4.75,63.7499137 C4.75,54.6369137 12.14,47.2499137 21.25,47.2499137 C28.91,47.2499137 35.34,52.4629137 37.21,59.5329137 C39,58.8769137 40.83,58.4999137 42.75,58.4999137 C44.67,58.4999137 46.5,58.8769137 48.29,59.5329137 C50.16,52.4629137 56.59,47.2499137 64.25,47.2499137 Z M21.25,55.7499137 C16.83,55.7499137 13.25,59.3319137 13.25,63.7499137 C13.25,68.1679137 16.83,71.7499137 21.25,71.7499137 C25.67,71.7499137 29.25,68.1679137 29.25,63.7499137 C29.25,59.3319137 25.67,55.7499137 21.25,55.7499137 Z M56.25,63.7499137 C56.25,68.1679137 59.83,71.7499137 64.25,71.7499137 C68.67,71.7499137 72.25,68.1679137 72.25,63.7499137 C72.25,59.3319137 68.67,55.7499137 64.25,55.7499137 C59.83,55.7499137 56.25,59.3319137 56.25,63.7499137 Z" id="Shape_22"></path>
                </g>
                <g id="Medium-S" transform="translate(1212.527000, 1.777436)">
                    <path d="M57.02,3.83005112 L68.88,34.3890511 C68.93,34.4980511 68.96,34.6080511 68.99,34.7180511 L82,34.7180511 C84.21,34.7180511 86,36.5090511 86,38.7180511 C86,40.9270511 84.21,42.7180511 82,42.7180511 L4,42.7180511 C1.79,42.7180511 0,40.9270511 0,38.7180511 C0,36.5090511 1.79,34.7180511 4,34.7180511 L15.63,34.7180511 C15.66,34.5880511 15.7,34.4590511 15.75,34.3300511 L27.47,3.84905112 C28.6,0.932051122 31.77,-0.635948878 34.77,0.246051122 L42.25,2.44705112 L49.74,0.245051122 C52.73,-0.634948878 55.9,0.923051122 57.02,3.83005112 Z M50.23,8.43805112 L43.47,10.4260511 C43.07,10.5460511 42.65,10.5980511 42.25,10.5880511 C41.84,10.5970511 41.43,10.5460511 41.03,10.4260511 L41.03,10.4260511 L34.28,8.44205112 L24.18,34.7180511 L60.43,34.7180511 L50.23,8.43805112 Z M64,47.2180511 C73.11,47.2180511 80.5,54.6050511 80.5,63.7180511 C80.5,72.8310511 73.11,80.2180511 64,80.2180511 C56.64,80.2180511 50.41,75.4020511 48.28,68.7510511 C45.65,67.2090511 43.94,66.7180511 42.5,66.7180511 C41.06,66.7180511 39.35,67.2090511 36.72,68.7510511 C34.59,75.4020511 28.36,80.2180511 21,80.2180511 C11.89,80.2180511 4.5,72.8310511 4.5,63.7180511 C4.5,54.6050511 11.89,47.2180511 21,47.2180511 C28.74,47.2180511 35.24,52.5510511 37.02,59.7450511 C38.8,59.0910511 40.61,58.7180511 42.5,58.7180511 C44.39,58.7180511 46.2,59.0910511 47.98,59.7450511 C49.76,52.5510511 56.26,47.2180511 64,47.2180511 Z M21,55.2180511 C16.31,55.2180511 12.5,59.0240511 12.5,63.7180511 C12.5,68.4120511 16.31,72.2180511 21,72.2180511 C25.69,72.2180511 29.5,68.4120511 29.5,63.7180511 C29.5,59.0240511 25.69,55.2180511 21,55.2180511 Z M55.5,63.7180511 C55.5,68.4120511 59.31,72.2180511 64,72.2180511 C68.69,72.2180511 72.5,68.4120511 72.5,63.7180511 C72.5,59.0240511 68.69,55.2180511 64,55.2180511 C59.31,55.2180511 55.5,59.0240511 55.5,63.7180511 Z" id="Shape_23"></path>
                </g>
                <g id="Regular-S" transform="translate(913.027000, 4.496184)">
                    <path d="M56.39,4.14930309 L67.92,33.8513031 C68,34.0653031 68.06,34.2823031 68.1,34.4993031 L81.5,34.4993031 C83.43,34.4993031 85,36.0663031 85,37.9993031 C85,39.9323031 83.43,41.4993031 81.5,41.4993031 L3.5,41.4993031 C1.57,41.4993031 0,39.9323031 0,37.9993031 C0,36.0663031 1.57,34.4993031 3.5,34.4993031 L15.53,34.4993031 C15.57,34.2623031 15.63,34.0243031 15.72,33.7913031 L27.11,4.17030309 C28.33,1.01030309 31.76,-0.687696914 35.01,0.267303086 L41.75,2.24930309 L48.5,0.265303086 C51.74,-0.687696914 55.17,1.00030309 56.39,4.14930309 Z M50.03,7.11030309 L42.83,9.22730309 C42.47,9.33430309 42.11,9.37930309 41.75,9.36930309 C41.39,9.37830309 41.03,9.33330309 40.67,9.22730309 L40.67,9.22730309 L33.48,7.11330309 L22.95,34.4993031 L60.66,34.4993031 L50.03,7.11030309 Z M63.5,46.4993031 C72.61,46.4993031 80,53.8863031 80,62.9993031 C80,72.1123031 72.61,79.4993031 63.5,79.4993031 C55.89,79.4993031 49.48,74.3453031 47.58,67.3373031 C45.16,65.9753031 43.47,65.4993031 42,65.4993031 C40.53,65.4993031 38.84,65.9753031 36.42,67.3373031 C34.52,74.3453031 28.11,79.4993031 20.5,79.4993031 C11.39,79.4993031 4,72.1123031 4,62.9993031 C4,53.8863031 11.39,46.4993031 20.5,46.4993031 C28.42,46.4993031 35.03,52.0773031 36.63,59.5173031 C38.39,58.8673031 40.16,58.4993031 42,58.4993031 C43.84,58.4993031 45.61,58.8673031 47.37,59.5173031 C48.97,52.0773031 55.58,46.4993031 63.5,46.4993031 Z M20.5,53.4993031 C15.25,53.4993031 11,57.7523031 11,62.9993031 C11,68.2463031 15.25,72.4993031 20.5,72.4993031 C25.75,72.4993031 30,68.2463031 30,62.9993031 C30,57.7523031 25.75,53.4993031 20.5,53.4993031 Z M54,62.9993031 C54,68.2463031 58.25,72.4993031 63.5,72.4993031 C68.75,72.4993031 73,68.2463031 73,62.9993031 C73,57.7523031 68.75,53.4993031 63.5,53.4993031 C58.25,53.4993031 54,57.7523031 54,62.9993031 Z" id="Shape_24"></path>
                </g>
                <g id="Light-S" transform="translate(621.027000, 5.501188)">
                    <path d="M54.45,3.54629918 L66.22,34.4942992 L80.5,34.4942992 C81.88,34.4942992 83,35.6132992 83,36.9942992 C83,38.3752992 81.88,39.4942992 80.5,39.4942992 L2.5,39.4942992 C1.12,39.4942992 0,38.3752992 0,36.9942992 C0,35.6132992 1.12,34.4942992 2.5,34.4942992 L15.28,34.4942992 L27.05,3.54629918 C28.07,0.861299182 30.98,-0.585700818 33.74,0.224299182 L40.75,2.28629918 L47.76,0.224299182 C50.52,-0.585700818 53.43,0.861299182 54.45,3.54629918 Z M49.78,5.32329918 C49.69,5.07929918 49.42,4.94829918 49.17,5.02129918 L49.17,5.02129918 L41.55,7.26329918 C41.28,7.34229918 41.01,7.37329918 40.75,7.36329918 C40.49,7.37329918 40.22,7.34129918 39.95,7.26329918 L39.95,7.26329918 L32.33,5.02129918 C32.08,4.94829918 31.81,5.07929918 31.72,5.32329918 L31.72,5.32329918 L20.63,34.4942992 L60.87,34.4942992 Z M62.5,45.4942992 C71.61,45.4942992 79,52.8812992 79,61.9942992 C79,71.1072992 71.61,78.4942992 62.5,78.4942992 C54.43,78.4942992 47.71,72.6952992 46.28,65.0342992 C44.17,63.9382992 42.52,63.4942992 41,63.4942992 C39.48,63.4942992 37.83,63.9382992 35.72,65.0342992 C34.29,72.6952992 27.57,78.4942992 19.5,78.4942992 C10.39,78.4942992 3,71.1072992 3,61.9942992 C3,52.8812992 10.39,45.4942992 19.5,45.4942992 C27.77,45.4942992 34.62,51.5772992 35.81,59.5112992 C37.54,58.8552992 39.24,58.4942992 41,58.4942992 C42.76,58.4942992 44.46,58.8552992 46.19,59.5112992 C47.38,51.5772992 54.23,45.4942992 62.5,45.4942992 Z M19.5,50.4942992 C13.15,50.4942992 8,55.6432992 8,61.9942992 C8,68.3452992 13.15,73.4942992 19.5,73.4942992 C25.85,73.4942992 31,68.3452992 31,61.9942992 C31,55.6432992 25.85,50.4942992 19.5,50.4942992 Z M51,61.9942992 C51,68.3452992 56.15,73.4942992 62.5,73.4942992 C68.85,73.4942992 74,68.3452992 74,61.9942992 C74,55.6432992 68.85,50.4942992 62.5,50.4942992 C56.15,50.4942992 51,55.6432992 51,61.9942992 Z" id="Shape_25"></path>
                </g>
                <g id="Thin-S" transform="translate(324.902000, 5.376491)">
                    <path d="M52.761,2.98199561 L64.746,34.4939956 L79.625,34.4939956 C80.522,34.4939956 81.25,35.2209956 81.25,36.1189956 C81.25,37.0159956 80.522,37.7439956 79.625,37.7439956 L1.625,37.7439956 C0.728,37.7439956 0,37.0159956 0,36.1189956 C0,35.2209956 0.728,34.4939956 1.625,34.4939956 L15.004,34.4939956 L26.989,2.98199561 C27.848,0.723995606 30.3,-0.493004394 32.617,0.188995606 L39.875,2.32299561 L47.133,0.188995606 C49.45,-0.493004394 51.902,0.723995606 52.761,2.98199561 Z M49.723,4.13699561 C49.468,3.46599561 48.739,3.10399561 48.05,3.30699561 L48.05,3.30699561 L40.429,5.54799561 C40.244,5.60299561 40.056,5.62299561 39.874,5.61199561 C39.692,5.62199561 39.506,5.60199561 39.321,5.54799561 L39.321,5.54799561 L31.7,3.30699561 C31.011,3.10399561 30.282,3.46599561 30.027,4.13699561 L30.027,4.13699561 L18.482,34.4939956 L61.268,34.4939956 Z M61.625,44.6189956 C70.738,44.6189956 78.125,52.0059956 78.125,61.1189956 C78.125,70.2319956 70.738,77.6189956 61.625,77.6189956 C53.182,77.6189956 46.221,71.2779956 45.243,63.0989956 C43.378,62.1969956 41.808,61.7779956 40.31,61.7459956 C38.696,61.7119956 37.022,62.1249956 35.007,63.0989956 C34.029,71.2779956 27.068,77.6189956 18.625,77.6189956 C9.512,77.6189956 2.125,70.2319956 2.125,61.1189956 C2.125,52.0059956 9.512,44.6189956 18.625,44.6189956 C27.202,44.6189956 34.251,51.1639956 35.05,59.5319956 C36.85,58.8219956 38.59,58.4589956 40.379,58.4969956 C41.993,58.5309956 43.573,58.8909956 45.2,59.5319956 C45.999,51.1639956 53.048,44.6189956 61.625,44.6189956 Z M18.625,47.8689956 C11.307,47.8689956 5.375,53.8009956 5.375,61.1189956 C5.375,68.4369956 11.307,74.3689956 18.625,74.3689956 C25.943,74.3689956 31.875,68.4369956 31.875,61.1189956 C31.875,53.8009956 25.943,47.8689956 18.625,47.8689956 Z M48.375,61.1189956 C48.375,68.4369956 54.307,74.3689956 61.625,74.3689956 C68.943,74.3689956 74.875,68.4369956 74.875,61.1189956 C74.875,53.8009956 68.943,47.8689956 61.625,47.8689956 C54.307,47.8689956 48.375,53.8009956 48.375,61.1189956 Z" id="Shape_26"></path>
                </g>
                <g id="Ultralight-S" transform="translate(28.402000, 5.877009)">
                    <path d="M51.793,2.65947754 L63.901,34.4934775 L79.125,34.4934775 C79.746,34.4934775 80.25,34.9974775 80.25,35.6184775 C80.25,36.2404775 79.746,36.7434775 79.125,36.7434775 L1.125,36.7434775 C0.504,36.7434775 0,36.2404775 0,35.6184775 C0,34.9974775 0.504,34.4934775 1.125,34.4934775 L14.849,34.4934775 L26.957,2.65947754 C27.723,0.645477539 29.909,-0.439522461 31.976,0.168477539 L39.375,2.34447754 L46.774,0.168477539 C48.841,-0.439522461 51.027,0.645477539 51.793,2.65947754 Z M31.341,2.32647754 C30.402,2.05047754 29.408,2.54347754 29.06,3.45947754 L29.06,3.45947754 L17.256,34.4934775 L61.494,34.4934775 L49.69,3.45947754 C49.342,2.54347754 48.348,2.05047754 47.409,2.32647754 L47.409,2.32647754 L39.788,4.56847754 C39.65,4.60947754 39.51,4.62147754 39.374,4.61047754 C39.239,4.62147754 39.1,4.60847754 38.962,4.56847754 L38.962,4.56847754 Z M61.125,44.1184775 C70.238,44.1184775 77.625,51.5064775 77.625,60.6184775 C77.625,69.7314775 70.238,77.1184775 61.125,77.1184775 C52.483,77.1184775 45.393,70.4754775 44.683,62.0174775 C42.891,61.1834775 41.332,60.7784775 39.821,60.7454775 C38.184,60.7114775 36.511,61.1124775 34.567,62.0174775 C33.857,70.4754775 26.767,77.1184775 18.125,77.1184775 C9.012,77.1184775 1.625,69.7314775 1.625,60.6184775 C1.625,51.5064775 9.012,44.1184775 18.125,44.1184775 C26.88,44.1184775 34.042,50.9374775 34.591,59.5534775 C36.395,58.8254775 38.113,58.4594775 39.869,58.4964775 C41.458,58.5304775 43.024,58.8934775 44.659,59.5534775 C45.208,50.9374775 52.37,44.1184775 61.125,44.1184775 Z M18.125,46.3684775 C10.255,46.3684775 3.875,52.7484775 3.875,60.6184775 C3.875,68.4884775 10.255,74.8684775 18.125,74.8684775 C25.995,74.8684775 32.375,68.4884775 32.375,60.6184775 C32.375,52.7484775 25.995,46.3684775 18.125,46.3684775 Z M46.875,60.6184775 C46.875,68.4884775 53.255,74.8684775 61.125,74.8684775 C68.995,74.8684775 75.375,68.4884775 75.375,60.6184775 C75.375,52.7484775 68.995,46.3684775 61.125,46.3684775 C53.255,46.3684775 46.875,52.7484775 46.875,60.6184775 Z" id="Shape_27"></path>
                </g>
            </g>
        </g>
    </g>
</svg>