<?xml version="1.0" encoding="UTF-8"?>
<svg width="3300px" height="2200px" viewBox="0 0 3300 2200" version="1.1" xmlns="http://www.w3.org/2000/svg" xmlns:xlink="http://www.w3.org/1999/xlink">
    <title>square.number.cr</title>
    <g id="Page-1" stroke="none" stroke-width="1" fill="none" fill-rule="evenodd">
        <g id="square.number.cr">
            <g id="Notes">
                <rect id="artboard" fill="#FFFFFF" fill-rule="nonzero" x="0" y="0" width="3300" height="2200"></rect>
                <line x1="263" y1="292" x2="3036" y2="292" id="Path" stroke="#000000" stroke-width="0.5"></line>
                <text id="Weight/Scale-Variations" fill="#000000" fill-rule="nonzero" font-family="Helvetica" font-size="13" font-weight="normal">
                    <tspan x="263" y="322">Weight/Scale Variations</tspan>
                </text>
                <text id="Ultralight" fill="#000000" fill-rule="nonzero" font-family="Helvetica" font-size="13" font-weight="normal">
                    <tspan x="533.711" y="322">Ultralight</tspan>
                </text>
                <text id="Thin" fill="#000000" fill-rule="nonzero" font-family="Helvetica" font-size="13" font-weight="normal">
                    <tspan x="843.422" y="322">Thin</tspan>
                </text>
                <text id="Light" fill="#000000" fill-rule="nonzero" font-family="Helvetica" font-size="13" font-weight="normal">
                    <tspan x="1138.63" y="322">Light</tspan>
                </text>
                <text id="Regular" fill="#000000" fill-rule="nonzero" font-family="Helvetica" font-size="13" font-weight="normal">
                    <tspan x="1426.84" y="322">Regular</tspan>
                </text>
                <text id="Medium" fill="#000000" fill-rule="nonzero" font-family="Helvetica" font-size="13" font-weight="normal">
                    <tspan x="1723.06" y="322">Medium</tspan>
                </text>
                <text id="Semibold" fill="#000000" fill-rule="nonzero" font-family="Helvetica" font-size="13" font-weight="normal">
                    <tspan x="2015.77" y="322">Semibold</tspan>
                </text>
                <text id="Bold" fill="#000000" fill-rule="nonzero" font-family="Helvetica" font-size="13" font-weight="normal">
                    <tspan x="2326.48" y="322">Bold</tspan>
                </text>
                <text id="Heavy" fill="#000000" fill-rule="nonzero" font-family="Helvetica" font-size="13" font-weight="normal">
                    <tspan x="2618.19" y="322">Heavy</tspan>
                </text>
                <text id="Black" fill="#000000" fill-rule="nonzero" font-family="Helvetica" font-size="13" font-weight="normal">
                    <tspan x="2917.4" y="322">Black</tspan>
                </text>
                <line x1="263" y1="1903" x2="3036" y2="1903" id="Path" stroke="#000000" stroke-width="0.5"></line>
                <g id="Group" transform="translate(264.367190, 1918.068400)" fill="#000000" fill-rule="nonzero">
                    <path d="M7.88086,15.761678 C8.96156,15.761678 9.97717667,15.5566 10.92771,15.146444 C11.8782433,14.7362873 12.7164767,14.166626 13.44241,13.43746 C14.1682767,12.7082933 14.7379433,11.86845 15.15141,10.91793 C15.56481,9.96741 15.77151,8.95504 15.77151,7.88082 C15.77151,6.8066 15.56481,5.79422667 15.15141,4.8437 C14.7379433,3.89316667 14.1666433,3.05333333 13.43751,2.3242 C12.70831,1.595 11.8684767,1.02533333 10.91801,0.6152 C9.96747667,0.205066667 8.95183667,0 7.87109,0 C6.79687,0 5.7845,0.205066667 4.83398,0.6152 C3.88346,1.02533333 3.04687333,1.595 2.32422,2.3242 C1.60156,3.05333333 1.03352333,3.89316667 0.62011,4.8437 C0.206703333,5.79422667 -8.8817842e-16,6.8066 -8.8817842e-16,7.88082 C-8.8817842e-16,8.95504 0.206703333,9.96741 0.62011,10.91793 C1.03352333,11.86845 1.60318667,12.7082933 2.3291,13.43746 C3.05501333,14.166626 3.89323,14.7362873 4.84375,15.146444 C5.79427,15.5566 6.80664,15.761678 7.88086,15.761678 Z M7.88086,14.277303 C6.99544,14.277303 6.16699,14.1129153 5.39551,13.78414 C4.62402333,13.4553667 3.94694,12.99801 3.36426,12.41207 C2.78157333,11.82613 2.32584333,11.14579 1.99707,10.37105 C1.66829,9.59631 1.5039,8.76623333 1.5039,7.88082 C1.5039,6.9954 1.66666333,6.16532 1.99219,5.39058 C2.31771,4.61586 2.77181,3.93553333 3.35449,3.3496 C3.93717,2.76366667 4.61425333,2.3063 5.38574,1.9775 C6.15722667,1.6487 6.98567667,1.4843 7.87109,1.4843 C8.76303667,1.4843 9.59474333,1.6487 10.36621,1.9775 C11.1376767,2.3063 11.8163767,2.76366667 12.40231,3.3496 C12.9882433,3.93553333 13.4472433,4.61586 13.77931,5.39058 C14.11131,6.16532 14.27731,6.9954 14.27731,7.88082 C14.27731,8.76623333 14.1129433,9.59631 13.78421,10.37105 C13.45541,11.14579 12.9996767,11.82613 12.41701,12.41207 C11.8343433,12.99801 11.15561,13.4553667 10.38081,13.78414 C9.60607667,14.1129153 8.77276,14.277303 7.88086,14.277303 Z M4.28711,7.88082 C4.28711,8.09566 4.35547,8.26981333 4.49219,8.40328 C4.62890333,8.53674667 4.81119333,8.60348 5.03906,8.60348 L7.14843,8.60348 L7.14843,10.72262 C7.14843,10.93746 7.21353667,11.1148667 7.34375,11.25484 C7.47395667,11.3948133 7.64973667,11.4648 7.87109,11.4648 C8.08593667,11.4648 8.26334667,11.3948133 8.40332,11.25484 C8.54329333,11.1148667 8.61328,10.93746 8.61328,10.72262 L8.61328,8.60348 L10.72261,8.60348 C10.94401,8.60348 11.1230767,8.53674667 11.25981,8.40328 C11.3964767,8.26981333 11.46481,8.09566 11.46481,7.88082 C11.46481,7.65946667 11.3964767,7.48043 11.25981,7.34371 C11.1230767,7.20699 10.94401,7.13863 10.72261,7.13863 L8.61328,7.13863 L8.61328,5.02926 C8.61328,4.80788667 8.54329333,4.62723333 8.40332,4.4873 C8.26334667,4.3473 8.08593667,4.2773 7.87109,4.2773 C7.64973667,4.2773 7.47395667,4.3473 7.34375,4.4873 C7.21353667,4.62723333 7.14843,4.80788667 7.14843,5.02926 L7.14843,7.13863 L5.03906,7.13863 C4.81119333,7.13863 4.62890333,7.20699 4.49219,7.34371 C4.35547,7.48043 4.28711,7.65946667 4.28711,7.88082 Z" id="Shape"></path>
                </g>
                <g id="Group" transform="translate(283.615050, 1915.988300)" fill="#000000" fill-rule="nonzero">
                    <path d="M9.96095,19.92186 C11.3216167,19.92186 12.60255,19.6614433 13.80375,19.14061 C15.0048833,18.6197767 16.06445,17.9003744 16.98245,16.9824031 C17.9003833,16.0644344 18.6197833,15.0048633 19.14065,13.80369 C19.66145,12.6025167 19.92185,11.3215933 19.92185,9.96092 C19.92185,8.60024 19.66145,7.3193 19.14065,6.1181 C18.6197833,4.91696667 17.9003833,3.8574 16.98245,2.9394 C16.06445,2.02146667 15.00325,1.30206667 13.79885,0.7812 C12.5943833,0.2604 11.3118167,0 9.95115,0 C8.59048333,0 7.30956667,0.2604 6.1084,0.7812 C4.90722667,1.30206667 3.84928333,2.02146667 2.93457,2.9394 C2.01985667,3.8574 1.30208333,4.91696667 0.78125,6.1181 C0.260416667,7.3193 8.8817842e-16,8.60024 8.8817842e-16,9.96092 C8.8817842e-16,11.3215933 0.260416667,12.6025167 0.78125,13.80369 C1.30208333,15.0048633 2.02148333,16.0644344 2.93945,16.9824031 C3.85741667,17.9003744 4.91698667,18.6197767 6.11816,19.14061 C7.31933333,19.6614433 8.60026333,19.92186 9.96095,19.92186 Z M9.96095,18.2617 C8.80859667,18.2617 7.73111667,18.0468563 6.72851,17.617169 C5.72591,17.1874813 4.84537667,16.593405 4.08691,15.83494 C3.32845,15.07648 2.73600333,14.1959467 2.30957,13.19334 C1.88313667,12.1907333 1.66992,11.11326 1.66992,9.96092 C1.66992,8.80857333 1.88313667,7.7311 2.30957,6.7285 C2.73600333,5.7259 3.32682333,4.84373333 4.08203,4.082 C4.83723667,3.32026667 5.71614333,2.7262 6.71875,2.2998 C7.72135,1.87333333 8.79881667,1.6601 9.95115,1.6601 C11.1034833,1.6601 12.18095,1.87333333 13.18355,2.2998 C14.18615,2.7262 15.0683167,3.32026667 15.83005,4.082 C16.5917833,4.84373333 17.1874833,5.7259 17.61715,6.7285 C18.0468833,7.7311 18.26175,8.80857333 18.26175,9.96092 C18.26175,11.11326 18.0485167,12.1907333 17.62205,13.19334 C17.19565,14.1959467 16.6032167,15.07648 15.84475,15.83494 C15.0862833,16.593405 14.2041167,17.1874813 13.19825,17.617169 C12.1923833,18.0468563 11.1132833,18.2617 9.96095,18.2617 Z M5.42968,9.96092 C5.42968,10.1952933 5.50780667,10.38735 5.66406,10.53709 C5.82030667,10.68683 6.02213,10.7617 6.26953,10.7617 L9.14065,10.7617 L9.14065,13.64256 C9.14065,13.8899533 9.21551667,14.09015 9.36525,14.24315 C9.51498333,14.3961433 9.70705,14.47264 9.94145,14.47264 C10.1887833,14.47264 10.38895,14.3961433 10.54195,14.24315 C10.69495,14.09015 10.77145,13.8899533 10.77145,13.64256 L10.77145,10.7617 L13.65235,10.7617 C13.89975,10.7617 14.09995,10.68683 14.25295,10.53709 C14.40595,10.38735 14.48245,10.1952933 14.48245,9.96092 C14.48245,9.71352 14.40595,9.51332333 14.25295,9.36033 C14.09995,9.20733667 13.89975,9.13084 13.65235,9.13084 L10.77145,9.13084 L10.77145,6.2597 C10.77145,6.00583333 10.69495,5.8024 10.54195,5.6494 C10.38895,5.4964 10.1887833,5.4199 9.94145,5.4199 C9.70705,5.4199 9.51498333,5.49803333 9.36525,5.6543 C9.21551667,5.81056667 9.14065,6.01236667 9.14065,6.2597 L9.14065,9.13084 L6.26953,9.13084 C6.01562333,9.13084 5.81217333,9.20733667 5.65918,9.36033 C5.50618,9.51332333 5.42968,9.71352 5.42968,9.96092 Z" id="Shape"></path>
                </g>
                <g id="Group" transform="translate(307.901860, 1913.224600)" fill="#000000" fill-rule="nonzero">
                    <path d="M12.71484,25.43946 C14.10804,25.43946 15.4378067,25.22299 16.70414,24.79005 C17.9704067,24.3571033 19.13414,23.7500067 20.19534,22.96876 C21.25654,22.1875067 22.1793733,21.2662827 22.96384,20.205088 C23.7483733,19.1438893 24.3571067,17.9785233 24.79004,16.70899 C25.2229733,15.4394633 25.43944,14.11134 25.43944,12.72462 C25.43944,11.3313933 25.2229733,10.0016533 24.79004,8.7354 C24.3571067,7.46906667 23.7483733,6.30533333 22.96384,5.2442 C22.1793733,4.183 21.25654,3.26013333 20.19534,2.4756 C19.13414,1.69106667 17.9687733,1.08233333 16.69924,0.6494 C15.4297067,0.216466667 14.0983067,0 12.70504,0 C11.31184,0 9.98210667,0.216466667 8.71584,0.6494 C7.44955333,1.08233333 6.28743667,1.69106667 5.22949,2.4756 C4.17155,3.26013333 3.25032667,4.183 2.46582,5.2442 C1.68131333,6.30533333 1.07421667,7.46906667 0.64453,8.7354 C0.214843333,10.0016533 0,11.3313933 0,12.72462 C0,14.11134 0.21647,15.4394633 0.64941,16.70899 C1.08235667,17.9785233 1.68945333,19.1438893 2.4707,20.205088 C3.25195333,21.2662827 4.17317667,22.1875067 5.23437,22.96876 C6.29557,23.7500067 7.45929333,24.3571033 8.72554,24.79005 C9.99187333,25.22299 11.32164,25.43946 12.71484,25.43946 Z M12.71484,23.62306 C11.51044,23.62306 10.3629733,23.43914 9.27244,23.0713 C8.18196,22.70346 7.18424667,22.18751 6.2793,21.52345 C5.37434667,20.8593853 4.58821333,20.0732513 3.9209,19.165048 C3.25358,18.2568427 2.73763,17.2574933 2.37305,16.167 C2.00846333,15.0765067 1.82617,13.9290467 1.82617,12.72462 C1.82617,11.51368 2.00846333,10.3629733 2.37305,9.2725 C2.73763,8.18196667 3.25195333,7.1826 3.91602,6.2744 C4.58008,5.3662 5.36458333,4.58006667 6.26953,3.916 C7.17447667,3.25193333 8.17221333,2.73763333 9.26274,2.3731 C10.3532067,2.0085 11.50064,1.8262 12.70504,1.8262 C13.9159733,1.8262 15.0667067,2.0085 16.15724,2.3731 C17.2477067,2.73763333 18.24704,3.25193333 19.15524,3.916 C20.06344,4.58006667 20.8495733,5.3662 21.51364,6.2744 C22.1777067,7.1826 22.6936733,8.18196667 23.06154,9.2725 C23.42934,10.3629733 23.6134125,11.51368 23.6134125,12.72462 C23.6197733,13.9290467 23.44074,15.0765067 23.07614,16.167 C22.7116067,17.2574933 22.1956733,18.2568427 21.52834,19.165048 C20.8610067,20.0732513 20.07324,20.8593853 19.16504,21.52345 C18.25684,22.18751 17.2575067,22.70346 16.16704,23.0713 C15.0765067,23.43914 13.9257733,23.62306 12.71484,23.62306 Z M6.94336,12.72462 C6.94336,12.9785267 7.02962333,13.1884867 7.20215,13.3545 C7.37467667,13.5205133 7.59440667,13.60352 7.86134,13.60352 L11.80664,13.60352 L11.80664,17.5586 C11.80664,17.8255267 11.88964,18.0452533 12.05564,18.21778 C12.22164,18.3903067 12.4348733,18.47657 12.69534,18.47657 C12.9622733,18.47657 13.1820067,18.3919367 13.35454,18.22267 C13.5270067,18.0533967 13.61324,17.83204 13.61324,17.5586 L13.61324,13.60352 L17.56834,13.60352 C17.8352733,13.60352 18.0533733,13.5205133 18.22264,13.3545 C18.3919067,13.1884867 18.47654,12.9785267 18.47654,12.72462 C18.47654,12.45118 18.3919067,12.2298267 18.22264,12.06056 C18.0533733,11.8912867 17.8352733,11.80665 17.56834,11.80665 L13.61324,11.80665 L13.61324,7.8613 C13.61324,7.5879 13.5270067,7.36493333 13.35454,7.1924 C13.1820067,7.01986667 12.9622733,6.9336 12.69534,6.9336 C12.4348733,6.9336 12.22164,7.01986667 12.05564,7.1924 C11.88964,7.36493333 11.80664,7.5879 11.80664,7.8613 L11.80664,11.80665 L7.86134,11.80665 C7.58789333,11.80665 7.36653333,11.8912867 7.19726,12.06056 C7.02799333,12.2298267 6.94336,12.45118 6.94336,12.72462 Z" id="Shape"></path>
                </g>
                <text id="Design-Variations" fill="#000000" fill-rule="nonzero" font-family="Helvetica" font-size="13" font-weight="normal">
                    <tspan x="263" y="1953">Design Variations</tspan>
                </text>
                <text id="Symbols-are-supported-in-up-to-nine-weights-and-three-scales." fill="#000000" fill-rule="nonzero" font-family="Helvetica" font-size="13" font-weight="normal">
                    <tspan x="263" y="1971">Symbols are supported in up to nine weights and three scales.</tspan>
                </text>
                <text id="For-optimal-layout-with-text-and-other-symbols,-vertically-align" fill="#000000" fill-rule="nonzero" font-family="Helvetica" font-size="13" font-weight="normal">
                    <tspan x="263" y="1989">For optimal layout with text and other symbols, vertically align</tspan>
                </text>
                <text id="symbols-with-the-adjacent-text." fill="#000000" fill-rule="nonzero" font-family="Helvetica" font-size="13" font-weight="normal">
                    <tspan x="263" y="2007">symbols with the adjacent text.</tspan>
                </text>
                <line x1="776" y1="1919" x2="776" y2="1933" id="Path" stroke="#00AEEF" stroke-width="0.5"></line>
                <g id="Group" transform="translate(778.490230, 1918.732400)" fill="#000000" fill-rule="nonzero">
                    <path d="M0.82032,14.42385 C1.08073333,14.42385 1.28255667,14.3685115 1.42579,14.2578344 C1.56901667,14.1471575 1.68620333,13.9551 1.77735,13.681662 L3.03711,10.2344 L8.79887,10.2344 L10.05857,13.681662 C10.1497033,13.9551 10.2669033,14.1471575 10.41017,14.2578344 C10.55337,14.3685115 10.7519367,14.42385 11.00587,14.42385 C11.26627,14.42385 11.47297,14.3522354 11.62597,14.2090062 C11.77897,14.0657767 11.85547,13.8704643 11.85547,13.623069 C11.85547,13.473329 11.81967,13.297546 11.74807,13.09572 L7.16797,0.8985 C7.05078333,0.598966667 6.89128,0.374333333 6.68946,0.2246 C6.48763333,0.0748666667 6.23047,0 5.91797,0 C5.31250333,0 4.90234667,0.296233333 4.6875,0.8887 L0.10743,13.10549 C0.03581,13.3073133 -4.4408921e-16,13.4830947 -4.4408921e-16,13.632834 C-4.4408921e-16,13.88023 0.0732433333,14.073915 0.21973,14.2138891 C0.366216667,14.353863 0.566413333,14.42385 0.82032,14.42385 Z M3.51563,8.75002 L5.88868,2.1778 L5.9375,2.1778 L8.31057,8.75002 L3.51563,8.75002 Z" id="Shape"></path>
                </g>
                <line x1="793.197" y1="1919" x2="793.197" y2="1933" id="Path" stroke="#00AEEF" stroke-width="0.5"></line>
                <text id="Margins" fill="#000000" fill-rule="nonzero" font-family="Helvetica" font-size="13" font-weight="normal">
                    <tspan x="776" y="1953">Margins</tspan>
                </text>
                <text id="Leading-and-trailing-margins-on-the-left-and-right-side-of-each-symbol" fill="#000000" fill-rule="nonzero" font-family="Helvetica" font-size="13" font-weight="normal">
                    <tspan x="776" y="1971">Leading and trailing margins on the left and right side of each symbol</tspan>
                </text>
                <text id="can-be-adjusted-by-modifying-the-x-location-of-the-margin-guidelines." fill="#000000" fill-rule="nonzero" font-family="Helvetica" font-size="13" font-weight="normal">
                    <tspan x="776" y="1989">can be adjusted by modifying the x-location of the margin guidelines.</tspan>
                </text>
                <text id="Modifications-are-automatically-applied-proportionally-to-all" fill="#000000" fill-rule="nonzero" font-family="Helvetica" font-size="13" font-weight="normal">
                    <tspan x="776" y="2007">Modifications are automatically applied proportionally to all</tspan>
                </text>
                <text id="scales-and-weights." fill="#000000" fill-rule="nonzero" font-family="Helvetica" font-size="13" font-weight="normal">
                    <tspan x="776" y="2025">scales and weights.</tspan>
                </text>
                <g id="Group" transform="translate(1291.246849, 1914.517550)" fill="#000000" fill-rule="nonzero">
                    <path d="M0.594951479,20.3476805 L2.29417148,22.0566705 C2.72385815,22.4928705 3.17795815,22.6946938 3.65647148,22.6621405 C4.13498481,22.6295872 4.60536148,22.3561505 5.06760148,21.8418305 L15.7609515,10.0547205 L14.7941515,9.07815049 L4.17893148,20.7578405 C4.00315148,20.9596605 3.82574148,21.0735938 3.64670148,21.0996405 C3.46766815,21.1256805 3.26096481,21.0215138 3.02659148,20.7871405 L1.85471148,19.6250305 C1.62033815,19.3906545 1.51780148,19.1839482 1.54710148,19.0049115 C1.57639481,18.8258748 1.69195148,18.6452108 1.89377148,18.4629193 L13.3683515,7.66215049 L12.3918515,6.69535049 L0.800031479,17.5840125 C0.305238146,18.0397418 0.039938146,18.5052368 0.00413147929,18.9804975 C-0.0316751874,19.4557595 0.165264813,19.9114872 0.594951479,20.3476805 Z M7.01096148,2.15435049 C6.80262815,2.35615049 6.68544148,2.58725049 6.65940148,2.84765049 C6.63336148,3.10811716 6.67893481,3.33598382 6.79612148,3.53125049 C6.91330815,3.71358382 7.08420481,3.85031716 7.30881148,3.94145049 C7.53342481,4.03258382 7.80850481,4.03908382 8.13405148,3.96095049 C8.86318481,3.79168382 9.60211815,3.72171716 10.3508515,3.75105049 C11.0995181,3.78031716 11.8319181,4.02931716 12.5480515,4.49805049 L11.9621515,5.95315049 C11.7928848,6.36981716 11.7456848,6.73278382 11.8205515,7.04205049 C11.8954181,7.35125049 12.0663181,7.64258382 12.3332515,7.91605049 L14.6281515,10.2305005 C14.8690181,10.4778938 15.1033848,10.6211205 15.3312515,10.6601805 C15.5591181,10.6992472 15.8130181,10.6927372 16.0929515,10.6406505 L17.1574515,10.4453405 L17.8215515,11.1191705 L17.7824515,11.6758105 C17.7629181,11.9232038 17.7938515,12.1510672 17.8752515,12.3594005 C17.9565848,12.5677338 18.1177181,12.7923438 18.3586515,13.0332305 L19.1203515,13.7754205 C19.3612181,14.0163072 19.6232515,14.1416338 19.9064515,14.1514005 C20.1896515,14.1611605 20.4484515,14.0488538 20.6828515,13.8144805 L23.5929515,10.8945605 C23.8273515,10.6601872 23.9412848,10.4046538 23.9347515,10.1279605 C23.9282848,9.85126716 23.8045848,9.59247716 23.5636515,9.35159049 L22.7922515,8.58987049 C22.5578515,8.34899049 22.3381181,8.18461716 22.1330515,8.09675049 C21.9279848,8.00881716 21.7049848,7.97461716 21.4640515,7.99415049 L20.8879515,8.04295049 L20.2433515,7.40825049 L20.4875515,6.28515049 C20.5526181,6.00521716 20.5395848,5.74318382 20.4484515,5.49905049 C20.3573181,5.25491716 20.1652515,4.98635049 19.8722515,4.69335049 L17.6750515,2.50585049 C16.8417181,1.67905049 15.9546515,1.05895049 15.0138515,0.64555049 C14.0731181,0.23215049 13.1258515,0.0173171567 12.1720515,0.00105049002 C11.2183181,-0.0152828433 10.3003515,0.15885049 9.41815148,0.52345049 C8.53601815,0.88805049 7.73362148,1.43168382 7.01096148,2.15435049 Z M8.50515148,2.52545049 C9.11061815,2.08271716 9.76001815,1.76695049 10.4533515,1.57815049 C11.1466848,1.38935049 11.8481848,1.32911716 12.5578515,1.39745049 C13.2674515,1.46585049 13.9559181,1.65628382 14.6232515,1.96875049 C15.2905848,2.28128382 15.9009515,2.71748382 16.4543515,3.27735049 L18.8859515,5.68945049 C19.0031515,5.80665049 19.0763848,5.92058382 19.1056515,6.03125049 C19.1349848,6.14191716 19.1301181,6.28191716 19.0910515,6.45125049 L18.7687515,7.93555049 L20.2726515,9.41995049 L21.2590515,9.36136049 C21.3827181,9.35484716 21.4771181,9.36298382 21.5422515,9.38577049 C21.6073181,9.40855716 21.6886848,9.46877716 21.7863515,9.56643049 L22.3625515,10.1426105 L19.9211515,12.5840105 L19.3449515,12.0078405 C19.2472848,11.9101872 19.1854181,11.8288072 19.1593515,11.7637005 C19.1333515,11.6985938 19.1236181,11.6009372 19.1301515,11.4707305 L19.1984515,10.4941705 L17.7043515,9.00979049 L16.1808515,9.26370049 C16.0181181,9.29625382 15.8895515,9.30113716 15.7951515,9.27835049 C15.7007515,9.25556382 15.5916848,9.18557716 15.4679515,9.06839049 L13.4660515,7.06645049 C13.3358515,6.94925049 13.2626181,6.83695049 13.2463515,6.72955049 C13.2300848,6.62208382 13.2609848,6.47721716 13.3390515,6.29495049 L14.2179515,4.20515049 C13.4367515,3.47595049 12.5578515,2.97138382 11.5812515,2.69145049 C10.6047181,2.41151716 9.60861815,2.42128382 8.59295148,2.72075049 C8.51488481,2.74028382 8.46445148,2.72561716 8.44165148,2.67675049 C8.41885148,2.62795049 8.44001815,2.57751716 8.50515148,2.52545049 Z" id="Shape"></path>
                </g>
                <text id="Exporting" fill="#000000" fill-rule="nonzero" font-family="Helvetica" font-size="13" font-weight="normal">
                    <tspan x="1289" y="1953">Exporting</tspan>
                </text>
                <text id="Symbols-should-be-outlined-when-exporting-to-ensure-the" fill="#000000" fill-rule="nonzero" font-family="Helvetica" font-size="13" font-weight="normal">
                    <tspan x="1289" y="1971">Symbols should be outlined when exporting to ensure the</tspan>
                </text>
                <text id="design-is-preserved-when-submitting-to-Xcode." fill="#000000" fill-rule="nonzero" font-family="Helvetica" font-size="13" font-weight="normal">
                    <tspan x="1289" y="1989">design is preserved when submitting to Xcode.</tspan>
                </text>
                <text id="template-version" fill="#000000" fill-rule="nonzero" font-family="Helvetica" font-size="13" font-weight="normal">
                    <tspan x="2952" y="1933">Template v.3.0</tspan>
                </text>
                <text id="Requires-Xcode-13-or-greater" fill="#000000" fill-rule="nonzero" font-family="Helvetica" font-size="13" font-weight="normal">
                    <tspan x="2865" y="1951">Requires Xcode 13 or greater</tspan>
                </text>
                <text id="descriptive-name" fill="#000000" fill-rule="nonzero" font-family="Helvetica" font-size="13" font-weight="normal">
                    <tspan x="2901" y="1969">Generated from square</tspan>
                </text>
                <text id="Typeset-at-100-points" fill="#000000" fill-rule="nonzero" font-family="Helvetica" font-size="13" font-weight="normal">
                    <tspan x="2912" y="1987">Typeset at 100 points</tspan>
                </text>
                <text id="Small" fill="#000000" fill-rule="nonzero" font-family="Helvetica" font-size="13" font-weight="normal">
                    <tspan x="263" y="726">Small</tspan>
                </text>
                <text id="Medium" fill="#000000" fill-rule="nonzero" font-family="Helvetica" font-size="13" font-weight="normal">
                    <tspan x="263" y="1156">Medium</tspan>
                </text>
                <text id="Large" fill="#000000" fill-rule="nonzero" font-family="Helvetica" font-size="13" font-weight="normal">
                    <tspan x="263" y="1586">Large</tspan>
                </text>
            </g>
            <g id="Guides" transform="translate(263.000000, 625.041000)">
                <g id="H-reference" transform="translate(76.976562, 0.500000)" fill="#27AAE1" fill-rule="nonzero">
                    <path d="M-1.22124533e-15,70.459 L2.685548,70.459 L28.369138,3.3203 L29.052738,3.3203 L29.052738,0 L27.148438,0 L-1.22124533e-15,70.459 Z M10.693338,45.9961 L45.996138,45.9961 L45.263638,43.75 L11.474638,43.75 L10.693338,45.9961 Z M54.150438,70.459 L56.787138,70.459 L29.638638,0 L28.466838,0 L28.466838,3.3203 L54.150438,70.459 Z" id="Shape"></path>
                </g>
                <line x1="0" y1="70.959" x2="2773" y2="70.959" id="Baseline-S" stroke="#27AAE1" stroke-width="0.5"></line>
                <line x1="0" y1="0.5" x2="2773" y2="0.5" id="Capline-S" stroke="#27AAE1" stroke-width="0.5"></line>
                <g id="H-reference" transform="translate(76.976562, 430.500000)" fill="#27AAE1" fill-rule="nonzero">
                    <path d="M-1.22124533e-15,70.459 L2.685548,70.459 L28.369138,3.3203 L29.052738,3.3203 L29.052738,0 L27.148438,0 L-1.22124533e-15,70.459 Z M10.693338,45.9961 L45.996138,45.9961 L45.263638,43.75 L11.474638,43.75 L10.693338,45.9961 Z M54.150438,70.459 L56.787138,70.459 L29.638638,0 L28.466838,0 L28.466838,3.3203 L54.150438,70.459 Z" id="Shape"></path>
                </g>
                <line x1="0" y1="500.959" x2="2773" y2="500.959" id="Baseline-M" stroke="#27AAE1" stroke-width="0.5"></line>
                <line x1="0" y1="430.499" x2="2773" y2="430.499" id="Capline-M" stroke="#27AAE1" stroke-width="0.5"></line>
                <g id="H-reference" transform="translate(76.976562, 860.500000)" fill="#27AAE1" fill-rule="nonzero">
                    <path d="M-1.22124533e-15,70.459 L2.685548,70.459 L28.369138,3.3203 L29.052738,3.3203 L29.052738,0 L27.148438,0 L-1.22124533e-15,70.459 Z M10.693338,45.9961 L45.996138,45.9961 L45.263638,43.75 L11.474638,43.75 L10.693338,45.9961 Z M54.150438,70.459 L56.787138,70.459 L29.638638,0 L28.466838,0 L28.466838,3.3203 L54.150438,70.459 Z" id="Shape"></path>
                </g>
                <line x1="0" y1="930.959" x2="2773" y2="930.959" id="Baseline-L" stroke="#27AAE1" stroke-width="0.5"></line>
                <line x1="0" y1="860.499" x2="2773" y2="860.499" id="Capline-L" stroke="#27AAE1" stroke-width="0.5"></line>
                <line x1="1129.45" y1="405.749" x2="1129.45" y2="525.079" id="left-margin-Regular-M" stroke="#00AEEF" stroke-width="0.5"></line>
                <line x1="1244.24" y1="405.749" x2="1244.24" y2="525.079" id="right-margin-Regular-M" stroke="#00AEEF" stroke-width="0.5"></line>
            </g>
            <g id="Symbols" transform="translate(498.870740, 618.801639)" fill="#000000" fill-rule="nonzero">
                <g id="Black-L" transform="translate(2366.459999, 833.929101)">
                    <path d="M81.0254695,0.0005381439 C99.0506451,0.0179952955 108.549261,0.274033519 115.929261,4.02926079 C122.889261,7.57926079 128.549261,13.2392608 132.099261,20.1992608 C135.991874,27.8492608 136.124577,37.7757329 136.129101,57.115977 L136.129101,79.0125446 C136.124577,98.3527887 135.991874,108.279261 132.099261,115.929261 C128.549261,122.889261 122.889261,128.549261 115.929261,132.099261 C108.279261,135.991874 98.3527887,136.124577 79.0125446,136.129101 L57.115977,136.129101 C37.7757329,136.124577 27.8492608,135.991874 20.1992608,132.099261 C13.2392608,128.549261 7.57926079,122.889261 4.02926079,115.929261 C0.274033519,108.549261 0.0179952955,99.0506451 0.0005381439,81.0254695 L0.0005381439,55.1030521 C0.0179952955,37.0778765 0.274033519,27.5792608 4.02926079,20.1992608 C7.57926079,13.2392608 13.2392608,7.57926079 20.1992608,4.02926079 C27.5792608,0.274033519 37.0778765,0.0179952955 55.1030521,0.0005381439 Z M79.6718412,13.9997998 L56.4566804,13.9997998 C47.3599176,14.0045151 41.0230386,14.0492608 36.0392608,14.4592608 C30.7292608,14.8892608 28.2092608,15.6592608 26.5592608,16.5092608 C22.2292608,18.7092608 18.7092608,22.2292608 16.5092608,26.5592608 C15.6592608,28.2092608 14.8892608,30.7292608 14.4592608,36.0392608 C14.0492608,41.0139275 14.0045151,47.3582978 13.9997998,56.4564644 L13.9997998,79.6718412 C14.0045151,88.768604 14.0492608,95.105483 14.4592608,100.089261 C14.8892608,105.389261 15.6592608,107.919261 16.5092608,109.569261 C18.7092608,113.899261 22.2292608,117.419261 26.5592608,119.619261 C28.2092608,120.459261 30.7292608,121.239261 36.0392608,121.669261 C41.1445941,122.089261 47.6698386,122.125972 57.127243,122.129 L79.0012786,122.129 C88.458683,122.125972 94.9839275,122.089261 100.089261,121.669261 C105.399261,121.239261 107.919261,120.459261 109.569261,119.619261 C113.899261,117.419261 117.419261,113.899261 119.619261,109.569261 C120.469261,107.919261 121.239261,105.389261 121.669261,100.089261 C122.089261,94.9839275 122.125972,88.458683 122.129,79.0012786 L122.129,57.1271186 C122.125972,47.6685941 122.089261,41.1352608 121.669261,36.0392608 C121.239261,30.7292608 120.469261,28.2092608 119.619261,26.5592608 C117.419261,22.2292608 113.899261,18.7092608 109.569261,16.5092608 C107.919261,15.6592608 105.399261,14.8892608 100.089261,14.4592608 C95.105483,14.0492608 88.768604,14.0045151 79.6718412,13.9997998 Z" id="Rectangle-533-(Stroke)"></path>
                </g>
                <g id="Heavy-L" transform="translate(2070.799999, 834.949101)">
                    <path d="M78.9254695,0.0005381439 C96.9506451,0.0179952955 106.449261,0.274033519 113.829261,4.02926079 C120.789261,7.57926079 126.449261,13.2392608 129.999261,20.1992608 C133.891874,27.8492608 134.024577,37.7757329 134.029101,57.115977 L134.029101,76.9125446 C134.024577,96.2527887 133.891874,106.179261 129.999261,113.829261 C126.449261,120.789261 120.789261,126.449261 113.829261,129.999261 C106.179261,133.891874 96.2527887,134.024577 76.9125446,134.029101 L57.115977,134.029101 C37.7757329,134.024577 27.8492608,133.891874 20.1992608,129.999261 C13.2392608,126.449261 7.57926079,120.789261 4.02926079,113.829261 C0.274033519,106.449261 0.0179952955,96.9506451 0.0005381439,78.9254695 L0.0005381439,55.1030521 C0.0179952955,37.0778765 0.274033519,27.5792608 4.02926079,20.1992608 C7.57926079,13.2392608 13.2392608,7.57926079 20.1992608,4.02926079 C27.5792608,0.274033519 37.0778765,0.0179952955 55.1030521,0.0005381439 Z M77.6310189,12.9998318 L56.3975027,12.9998318 C47.3328145,13.0047153 40.9683517,13.0501699 35.9592608,13.4592608 C30.5892608,13.8992608 27.9192608,14.6892608 26.0992608,15.6192608 C21.5892608,17.9192608 17.9192608,21.5892608 15.6192608,26.0992608 C14.6892608,27.9192608 13.8992608,30.5892608 13.4592608,35.9592608 C13.0501699,40.9683517 13.0047153,47.3328145 12.9998318,56.3975027 L12.9998318,77.6310189 C13.0047153,86.6957071 13.0501699,93.0601699 13.4592608,98.0692608 C13.8992608,103.439261 14.6892608,106.109261 15.6192608,107.929261 C17.9192608,112.439261 21.5892608,116.109261 26.0992608,118.409261 C27.9192608,119.339261 30.5892608,120.129261 35.9592608,120.569261 C40.8431244,120.968124 47.0154385,121.021306 55.722693,121.028242 L57.0824383,121.028985 C57.3124518,121.029061 57.5441739,121.029118 57.7776257,121.029158 L76.2508958,121.029158 C76.4843477,121.029118 76.7160698,121.029061 76.9460833,121.028985 L78.3058286,121.028242 C87.0130831,121.021306 93.1853972,120.968124 98.0692608,120.569261 C103.439261,120.129261 106.109261,119.339261 107.929261,118.409261 C112.439261,116.109261 116.109261,112.439261 118.409261,107.929261 C119.339261,106.109261 120.129261,103.439261 120.569261,98.0692608 C120.968124,93.1853972 121.021306,87.0130831 121.028242,78.3058286 L121.028985,76.9460833 C121.029061,76.7160698 121.029118,76.4843477 121.029158,76.2508958 L121.029158,57.7776257 C121.029118,57.5441739 121.029061,57.3124518 121.028985,57.0824383 L121.028242,55.722693 C121.021306,47.0154385 120.968124,40.8431244 120.569261,35.9592608 C120.129261,30.5892608 119.339261,27.9192608 118.409261,26.0992608 C116.109261,21.5892608 112.439261,17.9192608 107.929261,15.6192608 C106.109261,14.6892608 103.439261,13.8992608 98.0692608,13.4592608 C93.0601699,13.0501699 86.6957071,13.0047153 77.6310189,12.9998318 Z" id="Rectangle-533-(Stroke)_2"></path>
                </g>
                <g id="Bold-L" transform="translate(1775.259999, 836.129101)">
                    <path d="M76.5854695,0.0005381439 C94.6106451,0.0179952955 104.109261,0.274033519 111.489261,4.02926079 C118.449261,7.57926079 124.109261,13.2392608 127.659261,20.1992608 C131.551874,27.8492608 131.684577,37.7757329 131.689101,57.115977 L131.689101,74.5725446 C131.684577,93.9127887 131.551874,103.839261 127.659261,111.489261 C124.109261,118.449261 118.449261,124.109261 111.489261,127.659261 C103.839261,131.551874 93.9127887,131.684577 74.5725446,131.689101 L57.115977,131.689101 C37.7757329,131.684577 27.8492608,131.551874 20.1992608,127.659261 C13.2392608,124.109261 7.57926079,118.449261 4.02926079,111.489261 C0.274033519,104.109261 0.0179952955,94.6106451 0.0005381439,76.5854695 L0.0005381439,55.1030521 C0.0179952955,37.0778765 0.274033519,27.5792608 4.02926079,20.1992608 C7.57926079,13.2392608 13.2392608,7.57926079 20.1992608,4.02926079 C27.5792608,0.274033519 37.0778765,0.0179952955 55.1030521,0.0005381439 Z M75.2834832,10.9998393 L56.4050384,10.9998393 C47.35455,11.004798 40.8983517,11.051079 35.7892608,11.4692608 C30.2992608,11.9192608 27.3392608,12.7392608 25.1992608,13.8292608 C20.2992608,16.3292608 16.3292608,20.2992608 13.8292608,25.1992608 C12.7392608,27.3392608 11.9192608,30.2992608 11.4692608,35.7892608 C11.051079,40.8983517 11.004798,47.35455 10.9998393,56.4050384 L10.9998393,75.2834832 C11.004798,84.3339715 11.051079,90.7901699 11.4692608,95.8992608 C11.9192608,101.389261 12.7392608,104.349261 13.8292608,106.489261 C16.3292608,111.389261 20.2992608,115.359261 25.1992608,117.859261 C27.3392608,118.949261 30.2992608,119.769261 35.7892608,120.219261 C40.7706244,120.626988 47.0325821,120.681177 55.7310966,120.688228 L57.0887088,120.688982 C57.3182334,120.689059 57.5493988,120.689116 57.7822247,120.689157 L73.9062969,120.689157 C74.1391227,120.689116 74.3702882,120.689059 74.5998128,120.688982 L75.957425,120.688228 C84.6559395,120.681177 90.9178972,120.626988 95.8992608,120.219261 C101.389261,119.769261 104.349261,118.949261 106.489261,117.859261 C111.389261,115.359261 115.359261,111.389261 117.859261,106.489261 C118.949261,104.349261 119.769261,101.389261 120.219261,95.8992608 C120.626988,90.9178972 120.681177,84.6559395 120.688228,75.957425 L120.688982,74.5998128 C120.689059,74.3702882 120.689116,74.1391227 120.689157,73.9062969 L120.689157,57.7822247 C120.689116,57.5493988 120.689059,57.3182334 120.688982,57.0887088 L120.688228,55.7310966 C120.681177,47.0325821 120.626988,40.7706244 120.219261,35.7892608 C119.769261,30.2992608 118.949261,27.3392608 117.859261,25.1992608 C115.359261,20.2992608 111.389261,16.3292608 106.489261,13.8292608 C104.349261,12.7392608 101.389261,11.9192608 95.8992608,11.4692608 C90.7901699,11.051079 84.3339715,11.004798 75.2834832,10.9998393 Z" id="Rectangle-533-(Stroke)_3"></path>
                </g>
                <g id="Semibold-L" transform="translate(1484.379260, 841.908361)">
                    <path d="M88.03,-5 L32,-5 C11.5654643,-5 -5,11.5654643 -5,32 L-5,88.03 C-5,108.464536 11.5654643,125.03 32,125.03 L88.03,125.03 C108.464536,125.03 125.03,108.464536 125.03,88.03 L125.03,32 C125.03,11.5654643 108.464536,-5 88.03,-5 Z M32,5 L88.03,5 C102.941688,5 115.03,17.0883118 115.03,32 L115.03,88.03 C115.03,102.941688 102.941688,115.03 88.03,115.03 L32,115.03 C17.0883118,115.03 5,102.941688 5,88.03 L5,32 C5,17.0883118 17.0883118,5 32,5 Z" id="Rectangle-533"></path>
                </g>
                <g id="Medium-L" transform="translate(1183.279999, 837.539101)">
                    <path d="M73.7054695,0.0005381439 C91.7306451,0.0179952955 101.229261,0.274033519 108.609261,4.02926079 C115.569261,7.57926079 121.229261,13.2392608 124.779261,20.1992608 C128.671874,27.8492608 128.804577,37.7757329 128.809101,57.115977 L128.809101,71.6925446 C128.804577,91.0327887 128.671874,100.959261 124.779261,108.609261 C121.229261,115.569261 115.569261,121.229261 108.609261,124.779261 C100.959261,128.671874 91.0327887,128.804577 71.6925446,128.809101 L57.115977,128.809101 C37.7757329,128.804577 27.8492608,128.671874 20.1992608,124.779261 C13.2392608,121.229261 7.57926079,115.569261 4.02926079,108.609261 C0.274033519,101.229261 0.0179952955,91.7306451 0.0005381439,73.7054695 L0.0005381439,55.1030521 C0.0179952955,37.0778765 0.274033519,27.5792608 4.02926079,20.1992608 C7.57926079,13.2392608 13.2392608,7.57926079 20.1992608,4.02926079 C27.5792608,0.274033519 37.0778765,0.0179952955 55.1030521,0.0005381439 Z M72.4612386,8.99988262 L56.347283,8.99988262 C47.3376978,9.00510179 40.8171678,9.05298172 35.6292608,9.47926079 C30.0192608,9.92926079 26.7692608,10.7892608 24.2892608,12.0492608 C19.0192608,14.7392608 14.7392608,19.0192608 12.0492608,24.2892608 C10.7892608,26.7692608 9.92926079,30.0192608 9.46926079,35.6292608 C9.05205149,40.8171678 9.00501525,47.3376978 8.99987457,56.347283 L8.99987457,72.4612386 C9.00501525,81.4708238 9.05205149,87.9913538 9.46926079,93.1792608 C9.92926079,98.7892608 10.7892608,102.049261 12.0492608,104.519261 C14.7392608,109.789261 19.0192608,114.079261 24.2892608,116.759261 C26.7692608,118.019261 30.0192608,118.879261 35.6292608,119.339261 C40.6841445,119.745772 47.0041878,119.800851 55.6591278,119.808163 L57.0452569,119.808965 C57.2795643,119.809048 57.5155277,119.809108 57.7531665,119.809152 L71.0553551,119.809152 C71.2929939,119.809108 71.5289573,119.809048 71.7632647,119.808965 L73.1493937,119.808163 C81.8043338,119.800851 88.1243771,119.745772 93.1792608,119.339261 C98.7892608,118.879261 102.039261,118.019261 104.519261,116.759261 C109.789261,114.079261 114.069261,109.789261 116.759261,104.519261 C118.019261,102.049261 118.879261,98.7892608 119.339261,93.1792608 C119.745772,88.1243771 119.800851,81.8043338 119.808163,73.1493937 L119.808965,71.7632647 C119.809048,71.5289573 119.809108,71.2929939 119.809152,71.0553551 L119.809152,57.7531665 C119.809108,57.5155277 119.809048,57.2795643 119.808965,57.0452569 L119.808163,55.6591278 C119.800851,47.0041878 119.745772,40.6841445 119.339261,35.6292608 C118.879261,30.0192608 118.019261,26.7692608 116.759261,24.2892608 C114.069261,19.0192608 109.789261,14.7392608 104.519261,12.0492608 C102.039261,10.7892608 98.7892608,9.92926079 93.1792608,9.47926079 C87.9913538,9.05298172 81.4708238,9.00510179 72.4612386,8.99988262 Z" id="Rectangle-533-(Stroke)_4"></path>
                </g>
                <g id="Regular-L" transform="translate(887.379999, 838.319101)">
                    <path d="M72.0954695,0.0005381439 C90.1206451,0.0179952955 99.6192608,0.274033519 106.999261,4.02926079 C113.959261,7.57926079 119.619261,13.2392608 123.169261,20.1992608 C127.061874,27.8492608 127.194577,37.7757329 127.199101,57.115977 L127.199101,70.0825446 C127.194577,89.4227887 127.061874,99.3492608 123.169261,106.999261 C119.619261,113.959261 113.959261,119.619261 106.999261,123.169261 C99.3492608,127.061874 89.4227887,127.194577 70.0825446,127.199101 L57.115977,127.199101 C37.7757329,127.194577 27.8492608,127.061874 20.1992608,123.169261 C13.2392608,119.619261 7.57926079,113.959261 4.02926079,106.999261 C0.274033519,99.6192608 0.0179952955,90.1206451 0.0005381439,72.0954695 L0.0005381439,55.1030521 C0.0179952955,37.0778765 0.274033519,27.5792608 4.02926079,20.1992608 C7.57926079,13.2392608 13.2392608,7.57926079 20.1992608,4.02926079 C27.5792608,0.274033519 37.0778765,0.0179952955 55.1030521,0.0005381439 Z M70.9133284,7.99992163 L56.2851932,7.99992163 C47.3163356,8.00533789 40.769737,8.0540227 35.5492608,8.47926079 C29.8692608,8.93926079 26.4792608,9.80926079 23.8292608,11.1592608 C18.3792608,13.9392608 13.9392608,18.3792608 11.1592608,23.8292608 C9.80926079,26.4792608 8.93926079,29.8692608 8.47926079,35.5492608 C8.0540227,40.769737 8.00533789,47.3163356 7.99992163,56.2851932 L7.99992163,70.9133284 C8.00533789,79.882186 8.0540227,86.4287846 8.47926079,91.6492608 C8.93926079,97.3192608 9.80926079,100.719261 11.1592608,103.359261 C13.9392608,108.819261 18.3792608,113.259261 23.8292608,116.039261 C26.4792608,117.379261 29.8692608,118.259261 35.5492608,118.719261 C40.632356,119.133308 46.9726962,119.190361 55.5821379,119.198076 L56.9983133,119.198944 C57.2377107,119.199032 57.4788057,119.199097 57.721618,119.199144 L69.4769036,119.199144 C69.7197159,119.199097 69.9608108,119.199032 70.2002083,119.198944 L71.6163837,119.198076 C80.2258254,119.190361 86.5661656,119.133308 91.6492608,118.719261 C97.3292608,118.259261 100.719261,117.379261 103.369261,116.039261 C108.819261,113.259261 113.259261,108.819261 116.039261,103.359261 C117.389261,100.719261 118.259261,97.3192608 118.719261,91.6492608 C119.133308,86.5661656 119.190361,80.2258254 119.198076,71.6163837 L119.198944,70.2002083 C119.199032,69.9608108 119.199097,69.7197159 119.199144,69.4769036 L119.199144,57.721618 C119.199097,57.4788057 119.199032,57.2377107 119.198944,56.9983133 L119.198076,55.5821379 C119.190361,46.9726962 119.133308,40.632356 118.719261,35.5492608 C118.259261,29.8692608 117.389261,26.4792608 116.039261,23.8292608 C113.259261,18.3792608 108.819261,13.9392608 103.369261,11.1592608 C100.719261,9.80926079 97.3292608,8.93926079 91.6492608,8.47926079 C86.4287846,8.0540227 79.882186,8.00533789 70.9133284,7.99992163 Z" id="Rectangle-533-(Stroke)_5"></path>
                </g>
                <g id="Light-L" transform="translate(591.589999, 839.249101)">
                    <path d="M70.2354695,0.0005381439 C88.2606451,0.0179952955 97.7592608,0.274033519 105.139261,4.02926079 C112.099261,7.57926079 117.759261,13.2392608 121.309261,20.1992608 C125.201874,27.8492608 125.334577,37.7757329 125.339101,57.115977 L125.339101,68.2225446 C125.334577,87.5627887 125.201874,97.4892608 121.309261,105.139261 C117.759261,112.099261 112.099261,117.759261 105.139261,121.309261 C97.4892608,125.201874 87.5627887,125.334577 68.2225446,125.339101 L57.115977,125.339101 C37.7757329,125.334577 27.8492608,125.201874 20.1992608,121.309261 C13.2392608,117.759261 7.57926079,112.099261 4.02926079,105.139261 C0.274033519,97.7592608 0.0179952955,88.2606451 0.0005381439,70.2354695 L0.0005381439,55.1030521 C0.0179952955,37.0778765 0.274033519,27.5792608 4.02926079,20.1992608 C7.57926079,13.2392608 13.2392608,7.57926079 20.1992608,4.02926079 C27.5792608,0.274033519 37.0778765,0.0179952955 55.1030521,0.0005381439 Z M68.4414552,5.4996236 L56.8970664,5.4996236 C47.6318733,5.50340454 40.7975108,5.54526079 35.3492608,5.98926079 C29.5192608,6.45926079 25.7492608,7.37926079 22.6992608,8.92926079 C16.7692608,11.9492608 11.9492608,16.7692608 8.92926079,22.6992608 C7.37926079,25.7492608 6.45926079,29.5192608 5.98926079,35.3492608 C5.54826079,40.6502608 5.50416079,47.2634608 5.49975079,56.1511408 L5.49975079,69.1873808 C5.50416079,78.0750608 5.54826079,84.6882608 5.98926079,89.9892608 C6.45926079,95.8192608 7.37926079,99.5892608 8.92926079,102.639261 C11.9492608,108.569261 16.7692608,113.389261 22.6992608,116.409261 C25.7492608,117.959261 29.5192608,118.879261 35.3492608,119.349261 C40.7975108,119.802511 47.6318733,119.836505 56.8970664,119.839054 L68.4414552,119.839054 C77.7066483,119.836505 84.5410108,119.802511 89.9892608,119.349261 C95.8192608,118.879261 99.5892608,117.959261 102.639261,116.409261 C108.569261,113.389261 113.389261,108.569261 116.409261,102.639261 C117.959261,99.5892608 118.879261,95.8192608 119.349261,89.9892608 C119.802511,84.5410108 119.836505,77.7066483 119.839054,68.4414552 L119.839054,56.8970664 C119.836505,47.6318733 119.802511,40.7975108 119.349261,35.3492608 C118.879261,29.5192608 117.959261,25.7492608 116.409261,22.6992608 C113.389261,16.7692608 108.569261,11.9492608 102.639261,8.92926079 C99.5892608,7.37926079 95.8192608,6.45926079 89.9892608,5.98926079 C84.5410108,5.54526079 77.7066483,5.50340454 68.4414552,5.4996236 Z" id="Rectangle-533-(Stroke)_6"></path>
                </g>
                <g id="Thin-L" transform="translate(296.100000, 840.469101)">
                    <path d="M67.7958623,0.0005381439 C85.8227485,0.0179952955 95.3218513,0.274033519 102.69626,4.02926079 C109.65826,7.57926079 115.31926,13.2392608 118.86626,20.1992608 C122.761772,27.8492608 122.894573,37.7757329 122.899101,57.115977 L122.899101,65.7825446 C122.894573,85.1227887 122.761772,95.0492608 118.86626,102.699261 C115.31926,109.659261 109.65826,115.319261 102.69626,118.869261 C95.0520559,122.761874 85.1248484,122.894577 65.7827451,122.899101 L57.1157757,122.899101 C37.7736713,122.894577 27.8464309,122.761874 20.2012604,118.869261 C13.2392604,115.319261 7.57926042,109.659261 4.03126042,102.699261 C0.274169515,95.3192608 0.0180042261,85.8206451 0.000538410969,67.7954695 L0.000538410969,55.1030521 C0.0180042261,37.0778765 0.274169515,27.5792608 4.03126042,20.1992608 C7.57926042,13.2392608 13.2392604,7.57926079 20.2012604,4.02926079 C27.5766013,0.274033519 37.0757677,0.0179952955 55.1026582,0.0005381439 Z M66.8172932,3.49978946 L56.0809505,3.49978946 C47.2374018,3.50441529 40.5614912,3.5495172 35.1822604,3.98926079 C29.2292604,4.47926079 25.1722604,5.42926079 21.7902604,7.14926079 C15.4872604,10.3592608 10.3622604,15.4892608 7.15026042,21.7892608 C5.42726042,25.1692608 4.47826042,29.2292608 3.99126042,35.1792608 C3.55151683,40.5638762 3.50480415,47.2371175 3.49984789,56.0807848 L3.49984789,66.8177368 C3.50480415,75.6614041 3.55151683,82.3346454 3.99126042,87.7192608 C4.47826042,93.6692608 5.42726042,97.7292608 7.15026042,101.109261 C10.3622604,107.409261 15.4872604,112.539261 21.7902604,115.749261 C25.1722604,117.469261 29.2292604,118.419261 35.1822604,118.909261 C40.7151835,119.361568 47.6199409,119.396361 56.8442977,119.399038 L66.0540096,119.399038 C75.27758,119.396361 82.1823373,119.361568 87.7152604,118.909261 C93.6692604,118.419261 97.7262604,117.469261 101.10726,115.749261 C107.41126,112.539261 112.53626,107.409261 115.74726,101.109261 C117.47126,97.7292608 118.42026,93.6692608 118.90626,87.7192608 C119.33344,82.4884916 119.390487,76.0416803 119.398093,67.5704707 L119.398987,66.0543723 C119.399072,65.798132 119.399131,65.5400993 119.399171,65.2802537 L119.399171,57.6182679 C119.399131,57.3584223 119.399072,57.1003896 119.398987,56.8441493 L119.398093,55.3280509 C119.390487,46.8568413 119.33344,40.41003 118.90626,35.1792608 C118.42026,29.2292608 117.47126,25.1692608 115.74726,21.7892608 C112.53626,15.4892608 107.41126,10.3592608 101.10726,7.14926079 C97.7262604,5.42926079 93.6692604,4.47926079 87.7152604,3.98926079 C82.3360297,3.5495172 75.6601191,3.50441529 66.8172932,3.49978946 Z" id="Rectangle-533-(Stroke)_7"></path>
                </g>
                <g id="Ultralight-L" transform="translate(-0.000000, 841.109101)">
                    <path d="M66.5758625,0.0005381439 C84.602753,0.0179952955 94.1019193,0.274033519 101.47726,4.02926079 C108.43926,7.57926079 114.09926,13.2392608 117.64626,20.1992608 C121.541772,27.8492608 121.674573,37.7757329 121.6791,57.115977 L121.6791,64.5625446 C121.674573,83.9027887 121.541772,93.8292608 117.64626,101.479261 C114.09926,108.439261 108.43926,114.099261 101.47726,117.649261 C93.8320898,121.541874 83.9048493,121.674577 64.5627449,121.679101 L57.1157755,121.679101 C37.7736711,121.674577 27.8464307,121.541874 20.2012602,117.649261 C13.2392602,114.099261 7.57926024,108.439261 4.03226024,101.479261 C0.274237514,94.0992608 0.0180086915,84.6006451 0.000538544504,66.5754695 L0.000538544504,55.1030521 C0.0180086915,37.0778765 0.274237514,27.5792608 4.03226024,20.1992608 C7.57926024,13.2392608 13.2392602,7.57926079 20.2012602,4.02926079 C27.5766012,0.274033519 37.0757675,0.0179952955 55.102658,0.0005381439 Z M65.6732419,2.24984397 L56.0052786,2.24984397 C47.2057921,2.25480096 40.5006813,2.30189237 35.0812602,2.74926079 C29.0502602,3.23926079 24.8102602,4.20926079 21.2232602,6.03926079 C14.6842602,9.36926079 9.36826024,14.6892608 6.03726024,21.2192608 C4.20926024,24.8092608 3.23826024,29.0492608 2.74626024,35.0792608 C2.3033655,40.5013661 2.2551439,47.2043577 2.2498994,56.004801 L2.2498994,65.6737206 C2.2551439,74.4741638 2.3033655,81.1771555 2.74626024,86.5992608 C3.23826024,92.6292608 4.20926024,96.8692608 6.03726024,100.459261 C9.36826024,106.989261 14.6842602,112.309261 21.2232602,115.639261 C24.8102602,117.469261 29.0502602,118.439261 35.0812602,118.929261 C40.660076,119.389787 47.6013226,119.426144 56.7871597,119.429015 L64.8913608,119.429015 C74.0771979,119.426144 81.0184445,119.389787 86.5972602,118.929261 C92.6282602,118.439261 96.8682602,117.469261 100.45526,115.639261 C106.99426,112.309261 112.31026,106.989261 115.64226,100.459261 C117.46926,96.8692608 118.44026,92.6292608 118.93226,86.5992608 C119.362129,81.3366292 119.420199,74.8673494 119.428038,66.4448079 L119.428981,64.8917469 C119.42907,64.6292608 119.429131,64.3649395 119.429172,64.0987622 L119.429172,57.5797594 C119.429131,57.3135821 119.42907,57.0492608 119.428981,56.7867746 L119.428038,55.2337137 C119.420199,46.8111721 119.362129,40.3418924 118.93226,35.0792608 C118.44026,29.0492608 117.46926,24.8092608 115.64226,21.2192608 C112.31026,14.6892608 106.99426,9.36926079 100.45526,6.03926079 C96.8682602,4.20926079 92.6282602,3.23926079 86.5972602,2.74926079 C81.1778392,2.30189237 74.4727284,2.25480096 65.6732419,2.24984397 Z" id="Rectangle-533-(Stroke)_8"></path>
                </g>
                <g id="Black-M" transform="translate(2381.189802, 418.668903)">
                    <path d="M63.5573944,0.000516439472 C77.6480249,0.0146973594 85.0807082,0.218902606 90.8594582,3.15945816 C96.3094582,5.93945816 100.749458,10.3794582 103.529458,15.8294582 C106.557791,21.7807082 106.683972,29.4861075 106.68923,44.4113006 L106.68923,62.2776157 C106.683972,77.2028089 106.557791,84.9082082 103.529458,90.8594582 C100.749458,96.3094582 96.3094582,100.749458 90.8594582,103.529458 C84.9082082,106.557791 77.2028089,106.683972 62.2776157,106.68923 L44.4113006,106.68923 C29.4861075,106.683972 21.7807082,106.557791 15.8294582,103.529458 C10.3794582,100.749458 5.93945816,96.3094582 3.15945816,90.8594582 C0.218902606,85.0807082 0.0146973594,77.6480249 0.000516439472,63.5573944 L0.000516439472,43.131522 C0.0146973594,29.0408914 0.218902606,21.6082082 3.15945816,15.8294582 C5.93945816,10.3794582 10.3794582,5.93945816 15.8294582,3.15945816 C21.6082082,0.218902606 29.0408914,0.0146973594 43.131522,0.000516439472 Z M62.2131163,13.9998026 L44.4758,13.9998026 C37.2016465,14.0030939 32.3026161,14.0363003 28.4894582,14.3494582 C24.5194582,14.6694582 22.9894582,15.2294582 22.1894582,15.6394582 C19.3694582,17.0694582 17.0694582,19.3694582 15.6294582,22.1894582 C15.2294582,22.9894582 14.6694582,24.5194582 14.3494582,28.4894582 C14.0363003,32.3026161 14.0030939,37.2016465 13.9998026,44.4758 L13.9998026,62.2131163 C14.0030939,69.4872698 14.0363003,74.3863003 14.3494582,78.1994582 C14.6694582,82.1694582 15.2294582,83.6994582 15.6294582,84.4994582 C17.0694582,87.3194582 19.3694582,89.6194582 22.1894582,91.0594582 C22.9894582,91.4594582 24.5194582,92.0194582 28.4894582,92.3394582 C32.3026161,92.6526161 37.2016465,92.6858224 44.4758,92.6891137 L62.2131163,92.6891137 C69.4872698,92.6858224 74.3863003,92.6526161 78.1994582,92.3394582 C82.1694582,92.0194582 83.6994582,91.4594582 84.4994582,91.0594582 C87.3194582,89.6194582 89.6194582,87.3194582 91.0594582,84.4994582 C91.4594582,83.6994582 92.0194582,82.1694582 92.3394582,78.1994582 C92.6526161,74.3863003 92.6858224,69.4872698 92.6891137,62.2131163 L92.6891137,44.4758 C92.6858224,37.2016465 92.6526161,32.3026161 92.3394582,28.4894582 C92.0194582,24.5194582 91.4594582,22.9894582 91.0594582,22.1894582 C89.6194582,19.3694582 87.3194582,17.0694582 84.4994582,15.6394582 C83.6994582,15.2294582 82.1694582,14.6694582 78.1994582,14.3494582 C74.3863003,14.0363003 69.4872698,14.0030939 62.2131163,13.9998026 Z" id="Rectangle-533-(Stroke)_9"></path>
                </g>
                <g id="Heavy-M" transform="translate(2085.299802, 419.498903)">
                    <path d="M61.8973944,0.000516439472 C75.9880249,0.0146973594 83.4207082,0.218902606 89.1994582,3.15945816 C94.6494582,5.93945816 99.0894582,10.3794582 101.869458,15.8394582 C104.897791,21.7811248 105.023972,29.4861248 105.02923,44.4113013 L105.02923,60.6176157 C105.023972,75.5428089 104.897791,83.2482082 101.869458,89.1994582 C99.0894582,94.6494582 94.6494582,99.0894582 89.1994582,101.869458 C83.2482082,104.897791 75.5428089,105.023972 60.6176157,105.02923 L44.4113006,105.02923 C29.4861075,105.023972 21.7807082,104.897791 15.8294582,101.869458 C10.3794582,99.0894582 5.93945816,94.6494582 3.15945816,89.1994582 C0.218902606,83.4207082 0.0146973594,75.9880249 0.000516439472,61.8973944 L0.000516439472,43.1315253 C0.0146973594,29.0409396 0.218902606,21.6089026 3.15945816,15.8394582 C5.93945816,10.3794582 10.3794582,5.93945816 15.8294582,3.15945816 C21.6082082,0.218902606 29.0408914,0.0146973594 43.131522,0.000516439472 Z M60.5516631,12.9998026 L44.4772532,12.9998026 C37.2052684,13.0030939 32.2686687,13.0363003 28.4094582,13.3494582 C24.3794582,13.6794582 22.6994582,14.2494582 21.7394582,14.7394582 C18.7294582,16.2794582 16.2794582,18.7294582 14.7394582,21.7394582 C14.2494582,22.6994582 13.6794582,24.3794582 13.3494582,28.4094582 C13.0363003,32.2686687 13.0030939,37.2137518 12.9998026,44.4792624 L12.9998026,60.5518353 C13.0030939,67.8251022 13.0363003,72.7694582 13.3494582,76.6194582 C13.6794582,80.6494582 14.2494582,82.3294582 14.7394582,83.2894582 C16.2794582,86.3094582 18.7294582,88.7494582 21.7394582,90.2894582 C22.6994582,90.7794582 24.3794582,91.3494582 28.4094582,91.6794582 C32.2686687,91.9926161 37.2052684,92.0258224 44.4772532,92.0291137 L60.5516631,92.0291137 C67.8236479,92.0258224 72.7602476,91.9926161 76.6194582,91.6794582 C80.6494582,91.3494582 82.3294582,90.7794582 83.2894582,90.2894582 C86.2994582,88.7494582 88.7494582,86.3094582 90.2894582,83.2894582 C90.7794582,82.3294582 91.3494582,80.6494582 91.6794582,76.6194582 C91.9926161,72.7694582 92.0258224,67.8251022 92.0291137,60.5518353 L92.0291137,44.4792624 C92.0258224,37.2137518 91.9926161,32.2686687 91.6794582,28.4094582 C91.3494582,24.3794582 90.7794582,22.6994582 90.2894582,21.7394582 C88.7494582,18.7294582 86.2994582,16.2794582 83.2894582,14.7394582 C82.3294582,14.2494582 80.6494582,13.6794582 76.6194582,13.3494582 C72.7602476,13.0363003 67.8236479,13.0030939 60.5516631,12.9998026 Z" id="Rectangle-533-(Stroke)_10"></path>
                </g>
                <g id="Bold-M" transform="translate(1789.519802, 420.378903)">
                    <path d="M60.0373944,0.000516439472 C74.1280249,0.0146973594 81.5607082,0.218902606 87.3394582,3.15945816 C92.7894582,5.93945816 97.2294582,10.3794582 100.009458,15.8394582 C103.037791,21.7811248 103.163972,29.4861248 103.16923,44.4113013 L103.16923,58.7576157 C103.163972,73.6828089 103.037791,81.3882082 100.009458,87.3394582 C97.2294582,92.7894582 92.7894582,97.2294582 87.3394582,100.009458 C81.3882082,103.037791 73.6828089,103.163972 58.7576157,103.16923 L44.4113006,103.16923 C29.4861075,103.163972 21.7807082,103.037791 15.8294582,100.009458 C10.3794582,97.2294582 5.93945816,92.7894582 3.15945816,87.3394582 C0.218902606,81.5607082 0.0146973594,74.1280249 0.000516439472,60.0373944 L0.000516439472,43.1315253 C0.0146973594,29.0409396 0.218902606,21.6089026 3.15945816,15.8394582 C5.93945816,10.3794582 10.3794582,5.93945816 15.8294582,3.15945816 C21.6082082,0.218902606 29.0408914,0.0146973594 43.131522,0.000516439472 Z M58.7353024,10.9998313 L44.4336139,10.9998313 C37.2046956,11.003315 32.1824311,11.0378365 28.2494582,11.3594582 C24.0894582,11.6994582 22.1194582,12.2994582 20.8294582,12.9594582 C17.4394582,14.6894582 14.6894582,17.4394582 12.9594582,20.8294582 C12.2994582,22.1194582 11.6994582,24.0894582 11.3594582,28.2494582 C11.0378365,32.1824311 11.003315,37.2046956 10.9998313,44.4336139 L10.9998313,58.7353024 C11.003315,65.9642208 11.0378365,70.9864852 11.3594582,74.9194582 C11.6994582,79.0794582 12.2994582,81.0494582 12.9594582,82.3394582 C14.6894582,85.7294582 17.4394582,88.4794582 20.8294582,90.2094582 C22.1194582,90.8694582 24.0894582,91.4694582 28.2494582,91.8094582 C32.1824311,92.1310798 37.2046956,92.1656013 44.4336139,92.169085 L58.7353024,92.169085 C65.9642208,92.1656013 70.9864852,92.1310798 74.9194582,91.8094582 C79.0794582,91.4694582 81.0494582,90.8694582 82.3394582,90.2094582 C85.7294582,88.4794582 88.4794582,85.7294582 90.2094582,82.3394582 C90.8694582,81.0494582 91.4694582,79.0794582 91.8094582,74.9194582 C92.1310798,70.9864852 92.1656013,65.9642208 92.169085,58.7353024 L92.169085,44.4336139 C92.1656013,37.2046956 92.1310798,32.1824311 91.8094582,28.2494582 C91.4694582,24.0894582 90.8694582,22.1194582 90.2094582,20.8294582 C88.4794582,17.4394582 85.7294582,14.6894582 82.3394582,12.9594582 C81.0494582,12.2994582 79.0794582,11.6994582 74.9194582,11.3594582 C70.9864852,11.0378365 65.9642208,11.003315 58.7353024,10.9998313 Z" id="Rectangle-533-(Stroke)_11"></path>
                </g>
                <g id="Semibold-M" transform="translate(1493.469802, 421.018903)">
                    <path d="M58.7273944,0.000516439472 C72.8180249,0.0146973594 80.2507082,0.218902606 86.0294582,3.15945816 C91.4794582,5.93945816 95.9194582,10.3794582 98.6994582,15.8294582 C101.727791,21.7807082 101.853972,29.4861075 101.85923,44.4113006 L101.85923,57.4476157 C101.853972,72.3728089 101.727791,80.0782082 98.6994582,86.0294582 C95.9194582,91.4794582 91.4794582,95.9194582 86.0294582,98.6994582 C80.0782082,101.727791 72.3728089,101.853972 57.4476157,101.85923 L44.4113006,101.85923 C29.4861075,101.853972 21.7807082,101.727791 15.8294582,98.6994582 C10.3794582,95.9194582 5.93945816,91.4794582 3.15945816,86.0294582 C0.218902606,80.2507082 0.0146973594,72.8180249 0.000516439472,58.7273944 L0.000516439472,43.131522 C0.0146973594,29.0408914 0.218902606,21.6082082 3.15945816,15.8294582 C5.93945816,10.3794582 10.3794582,5.93945816 15.8294582,3.15945816 C21.6082082,0.218902606 29.0408914,0.0146973594 43.131522,0.000516439472 Z M57.476935,9.99985747 L44.3819813,9.99985747 C37.1833471,10.0034859 32.1386248,10.0386248 28.1694582,10.3594582 C23.9494582,10.7094582 21.8294582,11.3294582 20.3694582,12.0694582 C16.7994582,13.8894582 13.8894582,16.7994582 12.0694582,20.3694582 C11.3294582,21.8294582 10.7094582,23.9494582 10.3594582,28.1694582 C10.0386248,32.1386248 10.0034859,37.1833471 9.99985747,44.3819813 L9.99985747,57.476935 C10.0034859,64.6755693 10.0386248,69.7202915 10.3594582,73.6894582 C10.7094582,77.9094582 11.3294582,80.0294582 12.0694582,81.4894582 C13.8894582,85.0594582 16.7994582,87.9694582 20.3694582,89.7894582 C21.8294582,90.5294582 23.9494582,91.1494582 28.1694582,91.4994582 C32.1386248,91.8202915 37.1833471,91.8554304 44.3819813,91.8590589 L57.476935,91.8590589 C64.6755693,91.8554304 69.7202915,91.8202915 73.6894582,91.4994582 C77.9094582,91.1494582 80.0294582,90.5294582 81.4894582,89.7894582 C85.0594582,87.9694582 87.9694582,85.0594582 89.7894582,81.4894582 C90.5294582,80.0294582 91.1494582,77.9094582 91.4994582,73.6894582 C91.8202915,69.7202915 91.8554304,64.6755693 91.8590589,57.476935 L91.8590589,44.3819813 C91.8554304,37.1833471 91.8202915,32.1386248 91.4994582,28.1694582 C91.1494582,23.9494582 90.5294582,21.8294582 89.7894582,20.3694582 C87.9694582,16.7994582 85.0594582,13.8894582 81.4894582,12.0694582 C80.0294582,11.3294582 77.9094582,10.7094582 73.6894582,10.3594582 C69.7202915,10.0386248 64.6755693,10.0034859 57.476935,9.99985747 Z" id="Rectangle-533-(Stroke)_12"></path>
                </g>
                <g id="Medium-M" transform="translate(1197.249802, 421.508903)">
                    <path d="M57.7473944,0.000516439472 C71.8380249,0.0146973594 79.2707082,0.218902606 85.0494582,3.15945816 C90.4994582,5.93945816 94.9394582,10.3794582 97.7194582,15.8294582 C100.747791,21.7807082 100.873972,29.4861075 100.87923,44.4113006 L100.87923,56.4676157 C100.873972,71.3928089 100.747791,79.0982082 97.7194582,85.0494582 C94.9394582,90.4994582 90.4994582,94.9394582 85.0494582,97.7194582 C79.0982082,100.747791 71.3928089,100.873972 56.4676157,100.87923 L44.4113006,100.87923 C29.4861075,100.873972 21.7807082,100.747791 15.8294582,97.7194582 C10.3794582,94.9394582 5.93945816,90.4994582 3.15945816,85.0494582 C0.218902606,79.2707082 0.0146973594,71.8380249 0.000516439472,57.7473944 L0.000516439472,43.131522 C0.0146973594,29.0408914 0.218902606,21.6082082 3.15945816,15.8294582 C5.93945816,10.3794582 10.3794582,5.93945816 15.8294582,3.15945816 C21.6082082,0.218902606 29.0408914,0.0146973594 43.131522,0.000516439472 Z M56.4933528,8.99986325 L44.3855635,8.99986325 C37.1950137,9.00355538 32.1044582,9.03945816 28.0894582,9.36945816 C23.8094582,9.71945816 21.5394582,10.3494582 19.9194582,11.1794582 C16.1594582,13.0994582 13.0994582,16.1594582 11.1794582,19.9194582 C10.3494582,21.5394582 9.70945816,23.8094582 9.36945816,28.0894582 C9.03945816,32.1044582 9.00355538,37.1950137 8.99986325,44.3855635 L8.99986325,56.4933528 C9.00355538,63.6839026 9.03945816,68.7744582 9.36945816,72.7894582 C9.70945816,77.0694582 10.3494582,79.3394582 11.1794582,80.9594582 C13.0994582,84.7194582 16.1594582,87.7794582 19.9194582,89.6994582 C21.5394582,90.5294582 23.8094582,91.1694582 28.0894582,91.5194582 C32.1044582,91.8402915 37.1950137,91.8754304 44.3855635,91.8790589 L56.4933528,91.8790589 C63.6839026,91.8754304 68.7744582,91.8402915 72.7894582,91.5194582 C77.0694582,91.1694582 79.3394582,90.5294582 80.9594582,89.6994582 C84.7194582,87.7794582 87.7794582,84.7194582 89.6994582,80.9594582 C90.5294582,79.3394582 91.1694582,77.0694582 91.5094582,72.7894582 C91.8394582,68.7744582 91.8753609,63.6839026 91.8790531,56.4933528 L91.8790531,44.3855635 C91.8753609,37.1950137 91.8394582,32.1044582 91.5094582,28.0894582 C91.1694582,23.8094582 90.5294582,21.5394582 89.6994582,19.9194582 C87.7794582,16.1594582 84.7194582,13.0994582 80.9594582,11.1794582 C79.3394582,10.3494582 77.0694582,9.71945816 72.7894582,9.36945816 C68.7744582,9.03945816 63.6839026,9.00355538 56.4933528,8.99986325 Z" id="Rectangle-533-(Stroke)_13"></path>
                </g>
                <g id="Regular-M" transform="translate(901.169802, 422.138903)">
                    <path d="M56.4773944,0.000516439472 C70.5680249,0.0146973594 78.0007082,0.218902606 83.7794582,3.15945816 C89.2294582,5.93945816 93.6694582,10.3794582 96.4494582,15.8394582 C99.4777915,21.7811248 99.6039721,29.4861248 99.6092296,44.4113013 L99.6092296,55.1976157 C99.6039721,70.1228089 99.4777915,77.8282082 96.4494582,83.7794582 C93.6694582,89.2294582 89.2294582,93.6694582 83.7794582,96.4494582 C77.8282082,99.4777915 70.1228089,99.6039721 55.1976157,99.6092296 L44.4113006,99.6092296 C29.4861075,99.6039721 21.7807082,99.4777915 15.8294582,96.4494582 C10.3794582,93.6694582 5.93945816,89.2294582 3.15945816,83.7794582 C0.218902606,78.0007082 0.0146973594,70.5680249 0.000516439472,56.4773944 L0.000516439472,43.1315253 C0.0146973594,29.0409396 0.218902606,21.6089026 3.15945816,15.8394582 C5.93945816,10.3794582 10.3794582,5.93945816 15.8294582,3.15945816 C21.6082082,0.218902606 29.0408914,0.0146973594 43.131522,0.000516439472 Z M55.2757028,7.99989268 L44.3332135,7.99989268 C37.1799316,8.00374388 32.0588867,8.0403153 27.9994582,8.36945816 C23.6594582,8.71945816 21.2494582,9.37945816 19.4694582,10.2894582 C15.5094582,12.2994582 12.2994582,15.5194582 10.2894582,19.4694582 C9.37945816,21.2494582 8.71945816,23.6594582 8.36945816,28.0094582 C8.0403153,32.0597439 8.00374388,37.1800051 7.99989268,44.3332198 L7.99989268,55.2757028 C8.00374388,62.4289847 8.0403153,67.5500296 8.36945816,71.6094582 C8.71945816,75.9494582 9.37945816,78.3594582 10.2894582,80.1494582 C12.2994582,84.0994582 15.5094582,87.3094582 19.4694582,89.3194582 C21.2494582,90.2294582 23.6594582,90.8894582 27.9994582,91.2394582 C32.0588867,91.5777439 37.1799316,91.6067398 44.3332135,91.6092252 L55.2757028,91.6092252 C62.4289847,91.6067398 67.5500296,91.5777439 71.6094582,91.2394582 C75.9494582,90.8894582 78.3594582,90.2294582 80.1394582,89.3194582 C84.0994582,87.3094582 87.3094582,84.0994582 89.3194582,80.1494582 C90.2294582,78.3594582 90.8894582,75.9494582 91.2394582,71.6094582 C91.568601,67.5500296 91.6051724,62.4289847 91.6090236,55.2757028 L91.6090236,44.3332198 C91.6051724,37.1800051 91.568601,32.0597439 91.2394582,28.0094582 C90.8894582,23.6594582 90.2294582,21.2494582 89.3194582,19.4694582 C87.3094582,15.5194582 84.0994582,12.2994582 80.1394582,10.2894582 C78.3594582,9.37945816 75.9494582,8.71945816 71.6094582,8.36945816 C67.5500296,8.0403153 62.4289847,8.00374388 55.2757028,7.99989268 Z" id="Rectangle-533-(Stroke)_14"></path>
                </g>
                <g id="Light-M" transform="translate(605.289802, 422.968903)">
                    <path d="M54.8173944,0.000516439472 C68.9080249,0.0146973594 76.3407082,0.218902606 82.1194582,3.15945816 C87.5694582,5.93945816 92.0094582,10.3794582 94.7894582,15.8394582 C97.8177915,21.7811248 97.9439721,29.4861248 97.9492296,44.4113013 L97.9492296,53.5376157 C97.9439721,68.4628089 97.8177915,76.1682082 94.7894582,82.1194582 C92.0094582,87.5694582 87.5694582,92.0094582 82.1194582,94.7894582 C76.1682082,97.8177915 68.4628089,97.9439721 53.5376157,97.9492296 L44.4113006,97.9492296 C29.4861075,97.9439721 21.7807082,97.8177915 15.8294582,94.7894582 C10.3794582,92.0094582 5.93945816,87.5694582 3.15945816,82.1194582 C0.218902606,76.3407082 0.0146973594,68.9080249 0.000516439472,54.8173944 L0.000516439472,43.1315253 C0.0146973594,29.0409396 0.218902606,21.6089026 3.15945816,15.8394582 C5.93945816,10.3794582 10.3794582,5.93945816 15.8294582,3.15945816 C21.6082082,0.218902606 29.0408914,0.0146973594 43.131522,0.000516439472 Z M53.6678677,5.49993216 L44.2810486,5.49993216 C37.1705222,5.50402564 31.9571052,5.54210522 27.7994582,5.87945816 C23.3094582,6.24945816 20.5294582,6.93945816 18.3294582,8.05945816 C13.9094582,10.3194582 10.3094582,13.9094582 8.05945816,18.3294582 C6.93945816,20.5294582 6.23945816,23.3094582 5.87945816,27.7994582 C5.53298757,31.9571052 5.50241664,37.1705222 5.4997192,44.2810486 L5.4997192,53.6678677 C5.50241664,60.7783941 5.53298757,65.9918111 5.87945816,70.1494582 C6.23945816,74.6494582 6.93945816,77.4194582 8.05945816,79.6194582 C10.3094582,84.0394582 13.9094582,87.6394582 18.3294582,89.8894582 C20.5294582,91.0094582 23.3094582,91.7094582 27.7994582,92.0694582 C31.9571052,92.4159288 37.1705222,92.4464997 44.2810486,92.4491971 L53.6678677,92.4491971 C60.7783941,92.4464997 65.9918111,92.4159288 70.1494582,92.0694582 C74.6494582,91.7094582 77.4194582,91.0094582 79.6194582,89.8894582 C84.0394582,87.6394582 87.6394582,84.0394582 89.8894582,79.6194582 C91.0094582,77.4194582 91.7094582,74.6494582 92.0694582,70.1494582 C92.4159288,65.9918111 92.4464997,60.7783941 92.4491971,53.6678677 L92.4491971,44.2810486 C92.4464997,37.1705222 92.4159288,31.9571052 92.0694582,27.7994582 C91.7094582,23.3094582 91.0094582,20.5294582 89.8894582,18.3294582 C87.6394582,13.9094582 84.0394582,10.3194582 79.6194582,8.05945816 C77.4194582,6.93945816 74.6494582,6.24945816 70.1494582,5.87945816 C65.9918111,5.54210522 60.7783941,5.50402564 53.6678677,5.49993216 Z" id="Rectangle-533-(Stroke)_15"></path>
                </g>
                <g id="Thin-M" transform="translate(309.649802, 424.088903)">
                    <path d="M52.6677806,0.000516439472 C66.7599958,0.0146973594 74.1922913,0.218902606 79.965458,3.15945816 C85.421458,5.93945816 89.858458,10.3794582 92.638458,15.8294582 C95.6677497,21.7807082 95.7939701,29.4861075 95.7992293,44.4113006 L95.7992293,51.3876157 C95.7939701,66.3128089 95.6677497,74.0182082 92.638458,79.9694582 C89.858458,85.4194582 85.421458,89.8594582 79.965458,92.6394582 C74.019958,95.6677915 66.3147983,95.7939721 51.3878548,95.7992296 L44.4110611,95.7992296 C29.4841177,95.7939721 21.778958,95.6677915 15.833458,92.6394582 C10.377458,89.8594582 5.94045799,85.4194582 3.16045799,79.9694582 C0.218971879,74.1907082 0.0147020105,66.7580249 0.000516602902,52.6673944 L0.000516602902,43.131522 C0.0147020105,29.0408914 0.218971879,21.6082082 3.16045799,15.8294582 C5.94045799,10.3794582 10.377458,5.93945816 15.833458,3.15945816 C21.6066247,0.218902606 29.0389202,0.0146973594 43.1311354,0.000516439472 Z M51.5749065,3.49974366 L44.2242348,3.49974366 C37.1548134,3.50259866 31.8738216,3.53400362 27.637458,3.87945816 C23.018458,4.25945816 19.948458,4.98945816 17.422458,6.27945816 C12.624458,8.71945816 8.72345799,12.6294582 6.27845799,17.4194582 C4.99145799,19.9494582 4.26045799,23.0194582 3.88245799,27.6394582 C3.53700344,31.8758218 3.50311915,37.1535077 3.49981336,44.2238308 L3.49981336,51.5750855 C3.50311915,58.6454086 3.53700344,63.9230945 3.88245799,68.1594582 C4.26045799,72.7794582 4.99145799,75.8494582 6.27845799,78.3794582 C8.72345799,83.1794582 12.624458,87.0794582 17.422458,89.5194582 C19.948458,90.8094582 23.018458,91.5394582 27.637458,91.9194582 C31.8738216,92.2649127 37.1539869,92.2963177 44.2240095,92.2991727 L51.5749065,92.2991727 C58.6449291,92.2963177 63.9250944,92.2649127 68.161458,91.9194582 C72.781458,91.5394582 75.850458,90.8094582 78.376458,89.5194582 C83.174458,87.0794582 87.075458,83.1794582 89.520458,78.3794582 C90.807458,75.8494582 91.538458,72.7794582 91.916458,68.1594582 C92.2619125,63.9230945 92.2957968,58.6454086 92.2991026,51.5750855 L92.2991026,44.2238308 C92.2957968,37.1535077 92.2619125,31.8758218 91.916458,27.6394582 C91.538458,23.0194582 90.807458,19.9494582 89.520458,17.4194582 C87.075458,12.6294582 83.174458,8.71945816 78.376458,6.27945816 C75.850458,4.98945816 72.781458,4.25945816 68.161458,3.87945816 C63.9250944,3.53400362 58.6449291,3.50259866 51.5749065,3.49974366 Z" id="Rectangle-533-(Stroke)_16"></path>
                </g>
                <g id="Ultralight-M" transform="translate(13.499802, 424.628903)">
                    <path d="M51.5477806,0.000516439472 C65.6399958,0.0146973594 73.0722913,0.218902606 78.845458,3.15945816 C84.302458,5.93945816 88.738458,10.3794582 91.518458,15.8394582 C94.5477497,21.7811248 94.6739701,29.4861248 94.6792293,44.4113013 L94.6792293,50.2676157 C94.6739701,65.1928089 94.5477497,72.8982082 91.518458,78.8494582 C88.738458,84.2994582 84.302458,88.7394582 78.845458,91.5194582 C72.899958,94.5477915 65.1947983,94.6739721 50.2678548,94.6792296 L44.4111759,94.6792296 C29.4850361,94.6739721 21.778958,94.5477915 15.833458,91.5194582 C10.377458,88.7394582 5.94045799,84.2994582 3.16045799,78.8494582 C0.218971879,73.0707082 0.0147020105,65.6380249 0.000516602902,51.5473944 L0.000516602902,43.1315253 C0.0147020105,29.0409396 0.218971879,21.6089026 3.16045799,15.8394582 C5.94045799,10.3794582 10.377458,5.93945816 15.833458,3.15945816 C21.6066247,0.218902606 29.0397861,0.0146973594 43.1313158,0.000516439472 Z M50.4511289,2.24975117 L44.2277871,2.24975117 C37.164053,2.2526813 31.8290944,2.28491271 27.535458,2.63945816 C22.839458,3.01945816 19.587458,3.77945816 16.855458,5.16945816 C11.822458,7.72945816 7.72945799,11.8194582 5.16545799,16.8594582 C3.77345799,19.5894582 3.02045799,22.8394582 2.63745799,27.5394582 C2.2865489,31.8303673 2.25299518,37.1625987 2.24979458,44.227362 L2.24979458,50.4515618 C2.25299518,57.5164003 2.2865489,62.8494582 2.63745799,67.1494582 C3.02045799,71.8394582 3.77345799,75.0894582 5.16545799,77.8294582 C7.72945799,82.8594582 11.822458,86.9494582 16.855458,89.5194582 C19.587458,90.9094582 22.839458,91.6594582 27.535458,92.0394582 C31.8290944,92.3940036 37.164053,92.426235 44.2277871,92.4291651 L50.4511289,92.4291651 C57.5148629,92.426235 62.8498216,92.3940036 67.143458,92.0394582 C71.840458,91.6594582 75.092458,90.9094582 77.823458,89.5194582 C82.857458,86.9494582 86.949458,82.8594582 89.514458,77.8294582 C90.905458,75.0894582 91.658458,71.8394582 92.041458,67.1494582 C92.3923671,62.8494582 92.4259208,57.5164003 92.4291214,50.4515618 L92.4291214,44.227362 C92.4259208,37.1625987 92.3923671,31.8303673 92.041458,27.5394582 C91.658458,22.8394582 90.905458,19.5894582 89.514458,16.8594582 C86.949458,11.8194582 82.857458,7.72945816 77.823458,5.16945816 C75.092458,3.77945816 71.840458,3.01945816 67.143458,2.63945816 C62.8498216,2.28491271 57.5148629,2.2526813 50.4511289,2.24975117 Z" id="Rectangle-533-(Stroke)_17"></path>
                </g>
                <g id="Black-S" transform="translate(2392.539900, -0.000000)">
                    <path d="M48.6087644,0.000608734131 C60.0597168,0.015328125 66.1409229,0.203736328 70.8793604,2.61536133 C75.3893604,4.91636133 79.0593604,8.58736133 81.3593604,13.1033613 C83.8565479,17.9967051 83.9736035,24.3317546 83.9790905,36.5529889 L83.9790905,47.4257338 C83.9736035,59.646968 83.8565479,65.9820176 81.3593604,70.8753613 C79.0593604,75.3903613 75.3893604,79.0623613 70.8793604,81.3633613 C65.9802979,83.8567363 59.6458887,83.9736133 47.4255929,83.9790919 L36.5531278,83.9790919 C24.332832,83.9736133 17.9984229,83.8567363 13.0993604,81.3633613 C8.58936035,79.0623613 4.91936035,75.3903613 2.61936035,70.8753613 C0.204047852,66.1424551 0.0153515625,60.0608313 0.000609664917,48.6089964 L0.000609664917,35.3697262 C0.0153515625,23.9178914 0.204047852,17.8362676 2.61936035,13.1033613 C4.91936035,8.58736133 8.58936035,4.91636133 13.0993604,2.61536133 C17.8377979,0.203736328 23.9190039,0.015328125 35.3699563,0.000608734131 Z M47.359844,13.9997879 L36.6188767,13.9997879 C30.6865143,14.0033112 26.7881839,14.0340966 23.7793604,14.2793613 C20.6393604,14.5363613 19.7193604,14.9543613 19.4593604,15.0893613 C17.5793604,16.0473613 16.0493604,17.5773613 15.0893604,19.4593613 C14.9593604,19.7233613 14.5393604,20.6393613 14.2793604,23.7763613 C14.0331839,26.7842731 14.0031493,30.6841857 13.9997657,36.6183503 L13.9997657,47.360131 C14.0031493,53.2935447 14.0331839,57.1935378 14.2793604,60.2023613 C14.5393604,63.3383613 14.9593604,64.2543613 15.0893604,64.5193613 C16.0493604,66.4003613 17.5793604,67.9303613 19.4593604,68.8893613 C19.7193604,69.0243613 20.6393604,69.4423613 23.7793604,69.6983613 C26.8852427,69.952479 30.9389451,69.977171 37.1993644,69.9791967 L46.7793563,69.9791967 C53.0397756,69.977171 57.093478,69.952479 60.1993604,69.6983613 C63.3393604,69.4423613 64.2593604,69.0243613 64.5193604,68.8893613 C66.3993604,67.9303613 67.9293604,66.4003613 68.8893604,64.5193613 C68.9229087,64.4509742 68.9757703,64.3392323 69.0402113,64.1571701 L69.0905923,64.007017 C69.2736788,63.4323842 69.5232313,62.3267484 69.6993604,60.2023613 C69.953478,57.096479 69.9772842,53.0410049 69.9792057,46.7795435 L69.9792057,37.1990131 C69.9772842,30.9367212 69.953478,26.8813025 69.6993604,23.7763613 C69.4393604,20.6393613 69.0193604,19.7233613 68.8893604,19.4593613 C67.9293604,17.5773613 66.3993604,16.0473613 64.5193604,15.0893613 C64.4522636,15.0545226 64.3412126,15.0008369 64.1593966,14.9359349 L64.0093473,14.8852745 C63.4348026,14.7014373 62.3264571,14.4534581 60.1993604,14.2793613 C57.1905368,14.0340966 53.2922064,14.0033112 47.359844,13.9997879 Z" id="Rectangle-533-(Stroke)_18"></path>
                </g>
                <g id="Heavy-S" transform="translate(2096.439900, 0.590000)">
                    <path d="M47.3887644,0.000608501434 C58.8397168,0.0153222656 64.9209229,0.203658447 69.6593604,2.61436157 C74.1693604,4.91536157 77.8393604,8.58736157 80.1393604,13.1033616 C82.6365479,17.9967053 82.7536035,24.3308464 82.7590905,36.5528614 L82.7590905,46.2057339 C82.7536035,58.4269661 82.6365479,64.7619709 80.1393604,69.6543616 C77.8393604,74.1703616 74.1693604,77.8423616 69.6593604,80.1433616 C64.7602979,82.6367366 58.4258887,82.7536135 46.2055929,82.7590921 L36.5531278,82.7590921 C24.332832,82.7536135 17.9984229,82.6367366 13.0993604,80.1433616 C8.58936035,77.8423616 4.91936035,74.1703616 2.61936035,69.6543616 C0.204047852,64.9223772 0.0153515625,58.8408254 0.000609664917,47.3889962 L0.000609664917,35.3695273 C0.0153515625,23.9170417 0.204047852,17.8362678 2.61936035,13.1033616 C4.91936035,8.58736157 8.58936035,4.91536157 13.0993604,2.61436157 C17.8377979,0.203658447 23.9190039,0.0153222656 35.3699563,0.000608501434 Z M46.1383373,12.9997689 L36.6203834,12.9997689 C30.6893777,13.0031739 26.7537721,13.0334498 23.6993604,13.2823616 C20.4993604,13.5443616 19.4393604,13.9793616 19.0093604,14.1983616 C16.9393604,15.2523616 15.2493604,16.9353616 14.1993604,19.0053616 C13.9793604,19.4343616 13.5493604,20.4963616 13.2793604,23.6943616 C13.0331839,26.7487733 13.0031493,30.6918607 12.9997657,36.6211549 L12.9997657,46.1373262 C13.0031493,52.0658624 13.0331839,56.0089498 13.2793604,59.0633616 C13.5493604,62.2613616 13.9793604,63.3243616 14.1993604,63.7533616 C15.2493604,65.8223616 16.9393604,67.5053616 19.0093604,68.5603616 C19.4393604,68.7783616 20.4993604,69.2143616 23.6993604,69.4753616 C26.8523015,69.7332439 30.9442046,69.7572716 37.2006182,69.7592061 L45.5581025,69.7592061 C51.8145161,69.7572716 55.9064192,69.7332439 59.0593604,69.4753616 C62.2593604,69.2143616 63.3293604,68.7783616 63.7493604,68.5603616 C65.8193604,67.5053616 67.5093604,65.8223616 68.5593604,63.7533616 C68.7793604,63.3243616 69.2093604,62.2613616 69.4793604,59.0633616 C69.733478,55.9104204 69.7572842,51.810545 69.7592057,45.557362 L69.7592057,37.2011949 C69.7572842,30.9471782 69.733478,26.8473027 69.4793604,23.6943616 C69.2093604,20.4963616 68.7793604,19.4343616 68.5593604,19.0053616 C67.5093604,16.9353616 65.8193604,15.2523616 63.7493604,14.1983616 C63.3293604,13.9793616 62.2593604,13.5443616 59.0593604,13.2823616 C56.0049486,13.0334498 52.0693431,13.0031739 46.1383373,12.9997689 Z" id="Rectangle-533-(Stroke)_19"></path>
                </g>
                <g id="Bold-S" transform="translate(1800.389900, 1.269000)">
                    <path d="M46.0787644,0.000608734131 C57.5297168,0.015328125 63.6109229,0.203736328 68.3493604,2.61536133 C72.8593604,4.91636133 76.5293604,8.58836133 78.8293604,13.1043613 C81.3265479,17.996752 81.4436035,24.3317568 81.4490905,36.552989 L81.4490905,44.8958615 C81.4436035,57.1178765 81.3265479,63.4520176 78.8293604,68.3453613 C76.5293604,72.8613613 72.8593604,76.5333613 68.3493604,78.8333613 C63.4502979,81.3267363 57.1158887,81.4436133 44.8955929,81.4490919 L36.5531278,81.4490919 C24.332832,81.4436133 17.9984229,81.3267363 13.0993604,78.8333613 C8.58936035,76.5333613 4.91936035,72.8613613 2.61936035,68.3453613 C0.204047852,63.6124551 0.0153515625,57.5316812 0.000609664917,46.0791956 L0.000609664917,35.3697267 C0.0153515625,23.9178975 0.204047852,17.8363457 2.61936035,13.1043613 C4.91936035,8.58836133 8.58936035,4.91636133 13.0993604,2.61536133 C17.8377979,0.203736328 23.9190039,0.015328125 35.3699563,0.000608734131 Z M44.8731545,10.9997828 L36.5755662,10.9997828 C30.6863851,11.0032539 26.665724,11.0339977 23.5293604,11.2903613 C20.2093604,11.5613613 18.8593604,12.0303613 18.0993604,12.4163613 C15.6493604,13.6633613 13.6593604,15.6513613 12.4193604,18.0973613 C12.0293604,18.8553613 11.5593604,20.2103613 11.2893604,23.5323613 C11.0348149,26.668725 11.0034099,30.6852539 10.9998036,36.5751863 L10.9998036,44.8735371 C11.0034099,50.763477 11.0348149,54.7800886 11.2893604,57.9173613 C11.5593604,61.2393613 12.0293604,62.5933613 12.4193604,63.3513613 C13.6593604,65.7973613 15.6493604,67.7863613 18.0993604,69.0323613 C18.8593604,69.4193613 20.2093604,69.8873613 23.5293604,70.1593613 C26.7702694,70.4242704 30.9554118,70.4473852 37.1707492,70.449214 L44.2779715,70.449214 C50.4933089,70.4473852 54.6784513,70.4242704 57.9193604,70.1593613 C61.2393604,69.8873613 62.5893604,69.4193613 63.3493604,69.0323613 C65.7993604,67.7863613 67.7893604,65.7973613 69.0293604,63.3513613 C69.4193604,62.5933613 69.8893604,61.2393613 70.1593604,57.9173613 C70.4223907,54.6755128 70.4471565,50.4947259 70.4491923,44.2782619 L70.4491923,37.170461 C70.4471565,30.9540004 70.4223907,26.7732704 70.1593604,23.5323613 C69.8893604,20.2103613 69.4193604,18.8553613 69.0293604,18.0973613 C67.7893604,15.6513613 65.7993604,13.6633613 63.3493604,12.4163613 C62.5893604,12.0303613 61.2393604,11.5613613 57.9193604,11.2903613 C54.7829967,11.0339977 50.7623356,11.0032539 44.8731545,10.9997828 Z" id="Rectangle-533-(Stroke)_20"></path>
                </g>
                <g id="Semibold-S" transform="translate(1504.169900, 1.711000)">
                    <path d="M45.0987644,0.000608734131 C56.5497168,0.015328125 62.6309229,0.203736328 67.3693604,2.61536133 C71.8793604,4.91636133 75.5493604,8.58736133 77.8493604,13.1033613 C80.3465479,17.9967051 80.4636035,24.3308462 80.4690905,36.5528611 L80.4690905,43.9157337 C80.4636035,56.1369658 80.3465479,62.4719707 77.8493604,67.3643613 C75.5493604,71.8803613 71.8793604,75.5523613 67.3693604,77.8533613 C62.4702979,80.3467363 56.1358887,80.4636133 43.9155929,80.4690919 L36.5531278,80.4690919 C24.332832,80.4636133 17.9984229,80.3467363 13.0993604,77.8533613 C8.58936035,75.5523613 4.91936035,71.8803613 2.61936035,67.3643613 C0.204047852,62.632377 0.0153515625,56.5508252 0.000609664917,45.098996 L0.000609664917,35.369527 C0.0153515625,23.9170415 0.204047852,17.8362676 2.61936035,13.1033613 C4.91936035,8.58736133 8.58936035,4.91636133 13.0993604,2.61536133 C17.8377979,0.203736328 23.9190039,0.015328125 35.3699563,0.000608734131 Z M43.8916368,9.99973924 L36.5770839,9.99973924 C30.6890298,10.0029398 26.6311785,10.0323613 23.4493604,10.2923613 C20.0693604,10.5693613 18.5693604,11.0553613 17.6393604,11.5253613 C15.0093604,12.8673613 12.8693604,15.0093613 11.5293604,17.6433613 C11.0593604,18.5653613 10.5693604,20.0663613 10.2893604,23.4503613 C10.0348149,26.6321795 10.0034099,30.6925101 9.99980363,36.5780097 L9.99980363,43.890465 C10.0034099,49.7752208 10.0348149,53.8356341 10.2893604,57.0183613 C10.5693604,60.4013613 11.0593604,61.9023613 11.5293604,62.8253613 C12.8693604,65.4593613 15.0093604,67.6013613 17.6393604,68.9433613 C18.5693604,69.4133613 20.0693604,69.8983613 23.4493604,70.1753613 C26.7372391,70.444028 30.9605266,70.4673705 37.1720253,70.4692131 L43.2966954,70.4692131 C49.5081941,70.4673705 53.7314816,70.444028 57.0193604,70.1753613 C60.3993604,69.8983613 61.8993604,69.4133613 62.8293604,68.9433613 C65.4593604,67.6013613 67.5993604,65.4593613 68.9393604,62.8253613 C69.4093604,61.9023613 69.8993604,60.4013613 70.1793604,57.0183613 C70.4423907,53.7295431 70.4671565,49.5035514 70.4691923,43.2958732 L70.4691923,37.1726786 C70.4671565,30.9641749 70.4423907,26.7382401 70.1793604,23.4503613 C69.8993604,20.0663613 69.4093604,18.5653613 68.9393604,17.6433613 C67.5993604,15.0093613 65.4593604,12.8673613 62.8293604,11.5253613 C61.8993604,11.0553613 60.3993604,10.5693613 57.0193604,10.2923613 C53.8375422,10.0323613 49.7796909,10.0029398 43.8916368,9.99973924 Z" id="Rectangle-533-(Stroke)_21"></path>
                </g>
                <g id="Medium-S" transform="translate(1207.799900, 2.099000)">
                    <path d="M44.4187644,0.000608734131 C55.8697168,0.015328125 61.9509229,0.203736328 66.6893604,2.61536133 C71.1993604,4.91636133 74.8693604,8.58836133 77.1693604,13.1043613 C79.6665479,17.9977051 79.7836035,24.3318462 79.7890905,36.5529953 L79.7890905,43.2358615 C79.7836035,55.4578765 79.6665479,61.7920176 77.1693604,66.6853613 C74.8693604,71.2013613 71.1993604,74.8733613 66.6893604,77.1743613 C61.7902979,79.6667832 55.4558887,79.7836155 43.2355929,79.789092 L36.5531278,79.789092 C24.332832,79.7836155 17.9984229,79.6667832 13.0993604,77.1743613 C8.58936035,74.8733613 4.91936035,71.2013613 2.61936035,66.6853613 C0.204047852,61.9524551 0.0153515625,55.8716812 0.000609664917,44.4191956 L0.000609664917,35.3697436 C0.0153515625,23.9180415 0.204047852,17.8372676 2.61936035,13.1043613 C4.91936035,8.58836133 8.58936035,4.91636133 13.0993604,2.61536133 C17.8377979,0.203736328 23.9190039,0.015328125 35.3699563,0.000608734131 Z M43.2078652,8.99974224 L36.5808555,8.99974224 C30.6999389,9.0029729 26.5966331,9.03272496 23.3693604,9.29636133 C19.9193604,9.57836133 18.2793604,10.0813613 17.1893604,10.6343613 C14.3693604,12.0723613 12.0693604,14.3673613 10.6293604,17.1903613 C10.0793604,18.2763613 9.57936035,19.9243613 9.29936035,23.3693613 C9.03572399,26.5975431 9.00349258,30.7009316 8.99981114,36.5811044 L8.99981114,43.207867 C9.00349258,49.0887911 9.03572399,53.1921795 9.29936035,56.4203613 C9.57936035,59.8653613 10.0793604,61.5133613 10.6293604,62.5993613 C12.0693604,65.4223613 14.3693604,67.7163613 17.1893604,69.1543613 C18.2793604,69.7083613 19.9193604,70.2113613 23.3693604,70.4923613 C26.7042088,70.7647856 30.974466,70.7874734 37.1749059,70.7892228 L42.6138148,70.7892228 C48.8142548,70.7874734 53.0845119,70.7647856 56.4193604,70.4923613 C59.8693604,70.2113613 61.5093604,69.7083613 62.5993604,69.1543613 C65.4193604,67.7163613 67.7193604,65.4223613 69.1593604,62.5993613 C69.7093604,61.5133613 70.2093604,59.8653613 70.4893604,56.4203613 C70.7617846,53.0845734 70.7871198,48.8142594 70.7891901,42.613816 L70.7891901,37.1750777 C70.7871198,30.9754633 70.7617846,26.7051492 70.4893604,23.3693613 C70.2093604,19.9243613 69.7093604,18.2763613 69.1593604,17.1903613 C67.7193604,14.3673613 65.4193604,12.0723613 62.5993604,10.6343613 C61.5093604,10.0813613 59.8693604,9.57836133 56.4193604,9.29636133 C53.1920876,9.03272496 49.0887818,9.0029729 43.2078652,8.99974224 Z" id="Rectangle-533-(Stroke)_22"></path>
                </g>
                <g id="Regular-S" transform="translate(911.549900, 2.541000)">
                    <path d="M43.4887644,0.000608734131 C54.9397168,0.015328125 61.0209229,0.203736328 65.7593604,2.61536133 C70.2693604,4.91636133 73.9393604,8.58736133 76.2393604,13.1033613 C78.7365479,17.9967051 78.8536035,24.3317546 78.8590905,36.5529889 L78.8590905,42.3057338 C78.8536035,54.526968 78.7365479,60.8620176 76.2393604,65.7553613 C73.9393604,70.2703613 70.2693604,73.9423613 65.7593604,76.2433613 C60.8602979,78.7367363 54.5258887,78.8536133 42.3055929,78.8590919 L36.5531278,78.8590919 C24.332832,78.8536133 17.9984229,78.7367363 13.0993604,76.2433613 C8.58936035,73.9423613 4.91936035,70.2703613 2.61936035,65.7553613 C0.204047852,61.0224551 0.0153515625,54.9408313 0.000609664917,43.4889964 L0.000609664917,35.3697262 C0.0153515625,23.9178914 0.204047852,17.8362676 2.61936035,13.1033613 C4.91936035,8.58736133 8.58936035,4.91636133 13.0993604,2.61536133 C17.8377979,0.203736328 23.9190039,0.015328125 35.3699563,0.000608734131 Z M42.3291098,7.99975189 L36.5296109,7.99975189 C30.6849268,8.00301758 26.5518604,8.03292383 23.2893604,8.29936133 C19.7793604,8.58636133 17.9893604,9.10536133 16.7393604,9.74336133 C13.7293604,11.2773613 11.2793604,13.7243613 9.73936035,16.7353613 C9.10936035,17.9863613 8.58936035,19.7803613 8.29936035,23.2873613 C8.03654785,26.5507676 8.00369629,30.6822764 7.9998465,36.5288934 L7.9998465,42.3295975 C8.00369629,48.1756162 8.03654785,52.3078613 8.29936035,55.5703613 C8.58936035,59.0783613 9.10936035,60.8713613 9.73936035,62.1233613 C11.2793604,65.1333613 13.7293604,67.5813613 16.7393604,69.1153613 C17.9893604,69.7523613 19.7793604,70.2723613 23.2893604,70.5583613 C26.6643604,70.8349238 30.971001,70.8574824 37.1403735,70.8592219 L41.7183472,70.8592219 C47.8877197,70.8574824 52.1943604,70.8349238 55.5693604,70.5583613 C59.0793604,70.2723613 60.8693604,69.7523613 62.1193604,69.1153613 C65.1293604,67.5813613 67.5793604,65.1333613 69.1193604,62.1233613 C69.7493604,60.8713613 70.2693604,59.0783613 70.5593604,55.5703613 C70.8312354,52.1953613 70.8570166,47.8895996 70.8591772,41.718689 L70.8591772,37.1398687 C70.8570166,30.9682402 70.8312354,26.6632988 70.5593604,23.2873613 C70.2693604,19.7803613 69.7493604,17.9863613 69.1193604,16.7353613 C67.5793604,13.7243613 65.1293604,11.2773613 62.1193604,9.74336133 C60.8693604,9.10536133 59.0793604,8.58636133 55.5693604,8.29936133 C52.3068604,8.03292383 48.1737939,8.00301758 42.3291098,7.99975189 Z" id="Rectangle-533-(Stroke)_23"></path>
                </g>
                <g id="Light-S" transform="translate(615.569900, 3.269000)">
                    <path d="M41.7638084,0.000608734131 C53.3847314,0.015328125 59.5509229,0.203736328 64.2893604,2.61536133 C68.7993604,4.91636133 72.4693604,8.58836133 74.7693604,13.1043613 C77.2665479,17.996752 77.3836035,24.4207847 77.3890905,36.8209384 L77.3890905,40.5677844 C77.3836035,52.9679402 77.2665479,59.3920176 74.7693604,64.2853613 C72.4693604,68.8013613 68.7993604,72.4733613 64.2893604,74.7733613 C59.3902979,77.2667363 52.9650439,77.3836133 40.5630587,77.3890919 L36.8170034,77.3890919 C24.4236768,77.3836133 17.9984229,77.2667363 13.0993604,74.7733613 C8.58936035,72.4733613 4.91936035,68.8013613 2.61936035,64.2853613 C0.204047852,59.5524551 0.0153515625,53.3875457 0.000609664917,41.768356 L0.000609664917,35.6203671 C0.0153515625,24.0011831 0.204047852,17.8363457 2.61936035,13.1043613 C4.91936035,8.58836133 8.58936035,4.91636133 13.0993604,2.61536133 C17.8377979,0.203736328 24.0039893,0.015328125 35.6170778,0.000608734131 Z M40.6387723,5.49974289 L36.7425798,5.49974289 C30.8588297,5.50295446 26.5635539,5.53287746 23.1493604,5.80836133 C19.4293604,6.10936133 17.2593604,6.67336133 15.5993604,7.51636133 C12.1193604,9.28936133 9.28936035,12.1193613 7.51936035,15.6003613 C6.66936035,17.2553613 6.10936035,19.4323613 5.80936035,23.1523613 C5.52936035,26.5656517 5.50226358,30.8559451 5.49964131,36.7453712 L5.49964131,40.6433769 C5.50226358,46.5329524 5.52936035,50.8239742 5.80936035,54.2363613 C6.10936035,57.9573613 6.66936035,60.1343613 7.51936035,61.7883613 C9.28936035,65.2693613 12.1193604,68.0993613 15.5993604,69.8733613 C17.2593604,70.7163613 19.4293604,71.2803613 23.1493604,71.5803613 C26.6854894,71.8656839 31.1667589,71.8875923 37.3790921,71.8892316 L40.0014419,71.8892316 C46.2219618,71.8875923 50.7032313,71.8656839 54.2393604,71.5803613 C57.9593604,71.2803613 60.1293604,70.7163613 61.7893604,69.8733613 C65.2693604,68.0993613 68.0993604,65.2693613 69.8693604,61.7883613 C70.7193604,60.1343613 71.2793604,57.9573613 71.5793604,54.2363613 C71.8593604,50.8239742 71.8864571,46.5329524 71.8890794,40.6433769 L71.8890794,36.7453712 C71.8864571,30.8559451 71.8593604,26.5656517 71.5793604,23.1523613 C71.2793604,19.4323613 70.7193604,17.2553613 69.8693604,15.6003613 C68.0993604,12.1193613 65.2693604,9.28936133 61.7893604,7.51636133 C60.1293604,6.67336133 57.9593604,6.10936133 54.2393604,5.80836133 C50.8251668,5.53287746 46.529891,5.50295446 40.6387723,5.49974289 Z" id="Rectangle-533-(Stroke)_24"></path>
                </g>
                <g id="Thin-S" transform="translate(319.829931, 4.250032)">
                    <path d="M40.7405915,0.000639075517 C51.5586802,0.0153063825 57.3240013,0.194247527 61.8563292,2.37732949 C66.7523292,4.73632949 70.7023292,8.68632949 73.0613292,13.5823295 C75.3223784,18.2765262 75.4335775,24.2933599 75.4390463,35.8766568 L75.4390463,39.5620022 C75.4335775,51.1452991 75.3223784,57.1621328 73.0613292,61.8563295 C70.7023292,66.7513295 66.7523292,70.7013295 61.8563292,73.0603295 C57.1621325,75.3223295 51.1452988,75.4335754 39.5620019,75.4390465 L35.8766565,75.4390465 C24.2933596,75.4335754 18.2765259,75.3223295 13.5823292,73.0603295 C8.68732921,70.7013295 4.73732921,66.7513295 2.37832921,61.8563295 C0.194329213,57.3240016 0.0153128191,51.5586805 0.000639344262,40.7405917 L0.000639344262,34.6980673 C0.0153128191,23.8799785 0.194329213,18.1146574 2.37832921,13.5823295 C4.73732921,8.68632949 8.68732921,4.73632949 13.5823292,2.37732949 C18.1146571,0.194247527 23.8799782,0.0153063825 34.698067,0.000639075517 Z M39.6652784,3.49970479 L35.7733812,3.49970479 C30.3147382,3.50277183 26.2458465,3.53081225 22.9743292,3.78632949 C19.3623292,4.06732949 17.0153292,4.60832949 15.1013292,5.53132949 C10.9203292,7.54532949 7.54632921,10.9193295 5.53132921,15.1013295 C4.60932921,17.0153295 4.06732921,19.3623295 3.78632921,22.9733295 C3.53170852,26.2457433 3.50295704,30.3147278 3.49973329,35.7733803 L3.49973329,39.6652775 C3.50295704,45.1239205 3.53170852,49.1928123 3.78632921,52.4643295 C4.06732921,56.0763295 4.60932921,58.4233295 5.53132921,60.3373295 C7.54632921,64.5183295 10.9203292,67.8923295 15.1013292,69.9073295 C17.0153292,70.8293295 19.3623292,71.3713295 22.9743292,71.6523295 C26.371674,71.9167433 30.6289095,71.9375792 36.4094258,71.9391955 L39.0292329,71.9391955 C44.8097537,71.9375792 49.0670534,71.9167433 52.4653292,71.6523295 C56.0763292,71.3713295 58.4233292,70.8293295 60.3373292,69.9073295 C64.5193292,67.8923295 67.8933292,64.5183295 69.9073292,60.3373295 C70.8303292,58.4233295 71.3713292,56.0763295 71.6523292,52.4643295 C71.917674,49.0669847 71.9377073,44.8097492 71.9392085,39.0292329 L71.9392085,36.4094258 C71.9377073,30.628905 71.917674,26.3716054 71.6523292,22.9733295 C71.3713292,19.3623295 70.8303292,17.0153295 69.9073292,15.1013295 C67.8933292,10.9193295 64.5193292,7.54532949 60.3373292,5.53132949 C58.4233292,4.60832949 56.0763292,4.06732949 52.4653292,3.78632949 C49.1929154,3.53081225 45.1239309,3.50277183 39.6652784,3.49970479 Z" id="Rectangle-533-(Stroke)_25"></path>
                </g>
                <g id="Ultralight-S" transform="translate(23.609917, 4.740017)">
                    <path d="M40.1883449,0.00062525 C50.5871006,0.014719 56.1375937,0.183844 60.5293437,2.213344 C65.7013437,4.604344 69.8543437,8.757344 72.2453437,13.930344 C74.3486437,18.481794 74.4538087,24.276889 74.459067,35.42417 L74.459067,39.034518 C74.4538087,50.181799 74.3486437,55.976894 72.2453437,60.528344 C69.8543437,65.701344 65.7013437,69.854344 60.5293437,72.245344 C55.9778937,74.348644 50.1818962,74.453809 39.034525,74.4590672 L35.4243051,74.4590672 C24.2777912,74.453809 18.4817937,74.348644 13.9303437,72.245344 C8.7583437,69.854344 4.6053437,65.701344 2.2143437,60.528344 C0.183927037,56.136594 0.0147256481,50.5869412 0.000625532407,40.1883255 L0.000625532407,34.2703625 C0.0147256481,23.8717468 0.183927037,18.322094 2.2143437,13.930344 C4.6053437,8.757344 8.7583437,4.604344 13.9303437,2.213344 C18.3220937,0.183844 23.8725868,0.014719 34.2705723,0.00062525 Z M39.1666626,2.24970684 L35.292313,2.24970684 C30.0669406,2.25263482 26.1147723,2.27916543 22.9183437,2.519344 C19.3623437,2.787344 16.9233437,3.309344 14.8743437,4.256344 C10.1873437,6.422344 6.4233437,10.186344 4.2563437,14.874344 C3.3093437,16.923344 2.7873437,19.361344 2.5203437,22.918344 C2.28016513,26.1138797 2.25283733,30.0667496 2.24973852,35.2922826 L2.24973852,39.1664054 C2.25283733,44.3919384 2.28016513,48.3448083 2.5203437,51.540344 C2.7873437,55.097344 3.3093437,57.535344 4.2563437,59.584344 C6.4233437,64.272344 10.1873437,68.036344 14.8743437,70.202344 C16.9233437,71.149344 19.3623437,71.671344 22.9183437,71.939344 C26.2426294,72.1891297 30.3843233,72.2078338 35.9255022,72.2092314 L38.5333845,72.2092314 C44.0753641,72.2078338 48.217058,72.1891297 51.5413437,71.939344 C55.0973437,71.671344 57.5363437,71.149344 59.5853437,70.202344 C64.2723437,68.036344 68.0363437,64.272344 70.2033437,59.584344 C71.1503437,57.535344 71.6723437,55.097344 71.9393437,51.540344 C72.1891294,48.2169869 72.2078335,44.0744971 72.2092311,38.5331997 L72.2092311,35.9254883 C72.2078335,30.3841909 72.1891294,26.2417011 71.9393437,22.918344 C71.6723437,19.361344 71.1503437,16.923344 70.2033437,14.874344 C68.0363437,10.186344 64.2723437,6.422344 59.5853437,4.256344 C57.5363437,3.309344 55.0973437,2.787344 51.5413437,2.519344 C48.3449151,2.27916543 44.3927468,2.25263482 39.1666626,2.24970684 Z" id="Rectangle-533-(Stroke)_26"></path>
                </g>
            </g>
        </g>
    </g>
</svg>