<svg xmlns="http://www.w3.org/2000/svg" width="476" height="205" fill="none" viewBox="0 0 476 205"><path stroke="url(#a)" stroke-width="2.4" d="m289.382 65.834 3.534 2.594a24.003 24.003 0 0 0 10.566 4.377l4.333.664a21.6 21.6 0 0 1 18.077 18.077l.664 4.333a24.01 24.01 0 0 0 4.377 10.566l2.594 3.534a21.598 21.598 0 0 1 0 25.565l-2.594 3.534a24.003 24.003 0 0 0-4.377 10.565l-.664 4.334a21.6 21.6 0 0 1-18.077 18.077l-4.333.664a24 24 0 0 0-10.566 4.377l-3.534 2.594a21.601 21.601 0 0 1-25.565 0l-3.533-2.594a24 24 0 0 0-10.566-4.377l-4.333-.664a21.6 21.6 0 0 1-18.077-18.077l-.665-4.334a23.99 23.99 0 0 0-4.376-10.565l-2.595-3.534a21.601 21.601 0 0 1 0-25.565l2.595-3.534a23.996 23.996 0 0 0 4.376-10.566l.665-4.333a21.6 21.6 0 0 1 18.077-18.077l4.333-.664a24.002 24.002 0 0 0 10.566-4.377l3.533-2.594a21.6 21.6 0 0 1 25.565 0Z"/><rect width="117.6" height="85.2" x="179.2" y="59.761" fill="url(#b)" stroke="#7CACF8" stroke-width="2.4" rx="3.6"/><path fill="#fff" stroke="#7CACF8" stroke-width="2.4" d="M182.8 65.761h110.4a3.6 3.6 0 0 1 3.6 3.6v72.001a3.6 3.6 0 0 1-3.6 3.6H182.8a3.6 3.6 0 0 1-3.6-3.6v-72a3.6 3.6 0 0 1 3.6-3.6Z"/><path fill="#fff" d="M185.2 63.361a2.4 2.4 0 0 1 2.4-2.4h18a2.4 2.4 0 0 1 2.4 2.4v3.6h-22.8v-3.6Z"/><path fill="#fff" fill-rule="evenodd" d="M209.199 66.962a1.2 1.2 0 0 1-1.199-1.2v1.2h1.199Zm-25.197 0a1.2 1.2 0 0 0 1.198-1.2v1.2h-1.198Z" clip-rule="evenodd"/><rect width="86.4" height="4.8" x="194.8" y="69.362" fill="#D3E3FD" rx="2.4"/><rect width="27.6" height="24" x="192.4" y="82.561" fill="#A8C7FA" rx="4.8"/><path fill="#D3E3FD" d="M254.8 108.962h27.6v8.4h-27.6zm0 9.6h27.6v8.4h-27.6zm0 9.6h27.6v8.4h-27.6zm-31.2-19.201h27.6v8.4h-27.6zm-31.2 0H220v8.4h-27.6zm31.2 9.601h27.6v8.4h-27.6zm-31.2 0H220v8.4h-27.6zm31.2 9.6h27.6v8.4h-27.6zm-31.2 0H220v8.4h-27.6z"/><path stroke="#7CACF8" stroke-linecap="round" stroke-linejoin="round" stroke-width="1.2" d="m203.2 123.362 1.2 1.2 3.6-3.6m27.6-7.2 1.2 1.2 3.6-3.6m26.4 2.4 1.2 1.2 3.6-3.6m-36 21.6 1.2 1.2 3.6-3.6"/><rect width="27.6" height="24" x="223.6" y="82.561" fill="#6DD58C" rx="4.8"/><rect width="27.6" height="24" x="254.8" y="82.561" fill="#5AB3F0" rx="4.8"/><g filter="url(#c)"><circle cx="161.4" cy="144.361" r="27" fill="url(#d)" fill-opacity=".5"/></g><g filter="url(#e)"><path fill="url(#f)" fill-opacity=".5" d="M284.69 51.666c-6.269-14.434 8.381-29.084 22.815-22.815l2.387 1.037a17.342 17.342 0 0 0 13.817 0l2.386-1.037c14.434-6.269 29.084 8.381 22.816 22.815l-1.037 2.387a17.342 17.342 0 0 0 0 13.817l1.037 2.386c6.268 14.435-8.382 29.085-22.816 22.816l-2.386-1.037a17.342 17.342 0 0 0-13.817 0l-2.387 1.037c-14.434 6.269-29.084-8.381-22.815-22.816l1.036-2.386a17.342 17.342 0 0 0 0-13.817l-1.036-2.387Z"/></g><defs><linearGradient id="a" x1="266.327" x2="268.382" y1="68.316" y2="173.098" gradientUnits="userSpaceOnUse"><stop stop-color="#D3E3FD"/><stop offset="1" stop-color="#C4EED0"/></linearGradient><linearGradient id="b" x1="188.2" x2="291.4" y1="65.162" y2="65.162" gradientUnits="userSpaceOnUse"><stop stop-color="#7CACF8"/><stop offset="1" stop-color="#A8C7FA"/></linearGradient><linearGradient id="d" x1="157.309" x2="158.128" y1="122.68" y2="164.407" gradientUnits="userSpaceOnUse"><stop stop-color="#D3E3FD"/><stop offset="1" stop-color="#C4EED0"/></linearGradient><linearGradient id="f" x1="311.709" x2="312.727" y1="33.98" y2="85.907" gradientUnits="userSpaceOnUse"><stop stop-color="#D3E3FD"/><stop offset="1" stop-color="#C4EED0"/></linearGradient><filter id="c" width="63.6" height="63.6" x="129.6" y="112.561" color-interpolation-filters="sRGB" filterUnits="userSpaceOnUse"><feFlood flood-opacity="0" result="BackgroundImageFix"/><feGaussianBlur in="BackgroundImageFix" stdDeviation="2.4"/><feComposite in2="SourceAlpha" operator="in" result="effect1_backgroundBlur_1455_31393"/><feBlend in="SourceGraphic" in2="effect1_backgroundBlur_1455_31393" result="shape"/></filter><filter id="e" width="76.8" height="76.8" x="278.4" y="22.561" color-interpolation-filters="sRGB" filterUnits="userSpaceOnUse"><feFlood flood-opacity="0" result="BackgroundImageFix"/><feGaussianBlur in="BackgroundImageFix" stdDeviation="2.4"/><feComposite in2="SourceAlpha" operator="in" result="effect1_backgroundBlur_1455_31393"/><feBlend in="SourceGraphic" in2="effect1_backgroundBlur_1455_31393" result="shape"/></filter></defs></svg>