<svg width="16" height="16" viewBox="0 0 16 16" fill="none" xmlns="http://www.w3.org/2000/svg"><path fill-rule="evenodd" clip-rule="evenodd" d="M2.847 2 2 2.847 5.153 6H2v4h2.667L8 13.333V8.847l2.833 2.833c-.446.347-.946.62-1.5.787v1.373a5.992 5.992 0 0 0 2.46-1.207L13.153 14l.847-.847-6-6L2.847 2zm9.46 7.76c.226-.547.36-1.133.36-1.76a4.67 4.67 0 0 0-3.334-4.473V2.153A5.998 5.998 0 0 1 14 8c0 1-.247 1.94-.687 2.767L12.307 9.76zM9.333 5.313A3 3 0 0 1 11 8c0 .147-.013.287-.033.42L9.333 6.787V5.313zM6.607 4.06 8 2.667v2.786L6.607 4.06z" fill="#000"/></svg>