<svg width="16" height="16" viewBox="0 0 16 16" fill="none" xmlns="http://www.w3.org/2000/svg">
<g clip-path="url(#clip0_366_104273)">
<path d="M8 13.6C7.87361 13.6 7.76181 13.566 7.66458 13.4979C7.56736 13.4201 7.49931 13.3229 7.46042 13.2062C7.27569 12.691 7.05208 12.2049 6.78958 11.7479C6.53681 11.2812 6.16736 10.7368 5.68125 10.1146C5.20486 9.50208 4.81597 8.91389 4.51458 8.35C4.22292 7.78611 4.07708 7.11042 4.07708 6.32292C4.07708 5.23403 4.45625 4.31042 5.21458 3.55208C5.98264 2.78403 6.91111 2.4 8 2.4C9.08889 2.4 10.0125 2.78403 10.7708 3.55208C11.5389 4.31042 11.9229 5.23403 11.9229 6.32292C11.9229 7.17847 11.7576 7.88819 11.4271 8.45208C11.1063 9.00625 10.7368 9.56042 10.3188 10.1146C9.81319 10.7757 9.42917 11.3347 9.16667 11.7917C8.91389 12.2389 8.70486 12.7104 8.53958 13.2062C8.49097 13.3229 8.41806 13.4201 8.32083 13.4979C8.23333 13.566 8.12639 13.6 8 13.6ZM8 11.7479C8.16528 11.4174 8.35 11.0917 8.55417 10.7708C8.76806 10.4403 9.07917 10.0076 9.4875 9.47292C9.89583 8.94792 10.2264 8.46181 10.4792 8.01458C10.7417 7.55764 10.8729 6.99375 10.8729 6.32292C10.8729 5.53542 10.591 4.85972 10.0271 4.29583C9.46319 3.73194 8.7875 3.45 8 3.45C7.20278 3.45 6.52222 3.73194 5.95833 4.29583C5.40417 4.85972 5.12708 5.53542 5.12708 6.32292C5.12708 6.99375 5.25833 7.55764 5.52083 8.01458C5.78333 8.46181 6.11389 8.94792 6.5125 9.47292C6.92083 10.0076 7.22708 10.4403 7.43125 10.7708C7.64514 11.0917 7.83472 11.4174 8 11.7479ZM8 7.72292C8.38889 7.72292 8.71944 7.5868 8.99167 7.31458C9.26389 7.04236 9.4 6.7118 9.4 6.32292C9.4 5.93403 9.26389 5.60347 8.99167 5.33125C8.71944 5.05903 8.38889 4.92292 8 4.92292C7.61111 4.92292 7.28056 5.05903 7.00833 5.33125C6.73611 5.60347 6.6 5.93403 6.6 6.32292C6.6 6.7118 6.73611 7.04236 7.00833 7.31458C7.28056 7.5868 7.61111 7.72292 8 7.72292Z" fill="#474747"/>
</g>
<defs>
<clipPath id="clip0_366_104273">
<rect width="16" height="16" fill="white"/>
</clipPath>
</defs>
</svg>
