<?xml version="1.0" encoding="UTF-8"?>
<!--Generator: Apple Native CoreSVG 175-->
<!DOCTYPE svg
PUBLIC "-//W3C//DTD SVG 1.1//EN"
       "http://www.w3.org/Graphics/SVG/1.1/DTD/svg11.dtd">
<svg version="1.1" xmlns="http://www.w3.org/2000/svg" xmlns:xlink="http://www.w3.org/1999/xlink" width="3300" height="2200">
 <!--glyph: "", point size: 100.0, font version: "17.3d3e1", template writer version: "65.1"-->
 <g id="Notes">
  <rect height="2200" id="artboard" style="fill:white;opacity:1" width="3300" x="0" y="0"/>
  <line style="fill:none;stroke:black;opacity:1;stroke-width:0.5;" x1="263" x2="3036" y1="292" y2="292"/>
  <text style="stroke:none;fill:black;font-family:sans-serif;font-size:13;font-weight:bold;" transform="matrix(1 0 0 1 263 322)">Weight/Scale Variations</text>
  <text style="stroke:none;fill:black;font-family:sans-serif;font-size:13;text-anchor:middle;" transform="matrix(1 0 0 1 559.711 322)">Ultralight</text>
  <text style="stroke:none;fill:black;font-family:sans-serif;font-size:13;text-anchor:middle;" transform="matrix(1 0 0 1 856.422 322)">Thin</text>
  <text style="stroke:none;fill:black;font-family:sans-serif;font-size:13;text-anchor:middle;" transform="matrix(1 0 0 1 1153.13 322)">Light</text>
  <text style="stroke:none;fill:black;font-family:sans-serif;font-size:13;text-anchor:middle;" transform="matrix(1 0 0 1 1449.84 322)">Regular</text>
  <text style="stroke:none;fill:black;font-family:sans-serif;font-size:13;text-anchor:middle;" transform="matrix(1 0 0 1 1746.56 322)">Medium</text>
  <text style="stroke:none;fill:black;font-family:sans-serif;font-size:13;text-anchor:middle;" transform="matrix(1 0 0 1 2043.27 322)">Semibold</text>
  <text style="stroke:none;fill:black;font-family:sans-serif;font-size:13;text-anchor:middle;" transform="matrix(1 0 0 1 2339.98 322)">Bold</text>
  <text style="stroke:none;fill:black;font-family:sans-serif;font-size:13;text-anchor:middle;" transform="matrix(1 0 0 1 2636.69 322)">Heavy</text>
  <text style="stroke:none;fill:black;font-family:sans-serif;font-size:13;text-anchor:middle;" transform="matrix(1 0 0 1 2933.4 322)">Black</text>
  <line style="fill:none;stroke:black;opacity:1;stroke-width:0.5;" x1="263" x2="3036" y1="1903" y2="1903"/>
  <g transform="matrix(1 0 0 1 263 1933)">
   <path d="M9.24805 0.830078Q10.8691 0.830078 12.2949 0.214844Q13.7207-0.400391 14.8096-1.49414Q15.8984-2.58789 16.5186-4.01367Q17.1387-5.43945 17.1387-7.05078Q17.1387-8.66211 16.5186-10.0879Q15.8984-11.5137 14.8047-12.6074Q13.7109-13.7012 12.2852-14.3164Q10.8594-14.9316 9.23828-14.9316Q7.62695-14.9316 6.20117-14.3164Q4.77539-13.7012 3.69141-12.6074Q2.60742-11.5137 1.9873-10.0879Q1.36719-8.66211 1.36719-7.05078Q1.36719-5.43945 1.9873-4.01367Q2.60742-2.58789 3.69629-1.49414Q4.78516-0.400391 6.21094 0.214844Q7.63672 0.830078 9.24805 0.830078ZM9.24805-0.654297Q7.91992-0.654297 6.7627-1.14746Q5.60547-1.64062 4.73145-2.51953Q3.85742-3.39844 3.36426-4.56055Q2.87109-5.72266 2.87109-7.05078Q2.87109-8.37891 3.35938-9.54102Q3.84766-10.7031 4.72168-11.582Q5.5957-12.4609 6.75293-12.9541Q7.91016-13.4473 9.23828-13.4473Q10.5762-13.4473 11.7334-12.9541Q12.8906-12.4609 13.7695-11.582Q14.6484-10.7031 15.1465-9.54102Q15.6445-8.37891 15.6445-7.05078Q15.6445-5.72266 15.1514-4.56055Q14.6582-3.39844 13.7842-2.51953Q12.9102-1.64062 11.748-1.14746Q10.5859-0.654297 9.24805-0.654297ZM5.6543-7.05078Q5.6543-6.72852 5.85938-6.52832Q6.06445-6.32812 6.40625-6.32812L8.51562-6.32812L8.51562-4.20898Q8.51562-3.88672 8.71094-3.67676Q8.90625-3.4668 9.23828-3.4668Q9.56055-3.4668 9.77051-3.67676Q9.98047-3.88672 9.98047-4.20898L9.98047-6.32812L12.0898-6.32812Q12.4219-6.32812 12.627-6.52832Q12.832-6.72852 12.832-7.05078Q12.832-7.38281 12.627-7.58789Q12.4219-7.79297 12.0898-7.79297L9.98047-7.79297L9.98047-9.90234Q9.98047-10.2344 9.77051-10.4443Q9.56055-10.6543 9.23828-10.6543Q8.90625-10.6543 8.71094-10.4443Q8.51562-10.2344 8.51562-9.90234L8.51562-7.79297L6.40625-7.79297Q6.06445-7.79297 5.85938-7.58789Q5.6543-7.38281 5.6543-7.05078Z"/>
  </g>
  <g transform="matrix(1 0 0 1 281.867 1933)">
   <path d="M11.709 2.91016Q13.75 2.91016 15.5518 2.12891Q17.3535 1.34766 18.7305-0.0292969Q20.1074-1.40625 20.8887-3.20801Q21.6699-5.00977 21.6699-7.05078Q21.6699-9.0918 20.8887-10.8936Q20.1074-12.6953 18.7305-14.0723Q17.3535-15.4492 15.5469-16.2305Q13.7402-17.0117 11.6992-17.0117Q9.6582-17.0117 7.85645-16.2305Q6.05469-15.4492 4.68262-14.0723Q3.31055-12.6953 2.5293-10.8936Q1.74805-9.0918 1.74805-7.05078Q1.74805-5.00977 2.5293-3.20801Q3.31055-1.40625 4.6875-0.0292969Q6.06445 1.34766 7.86621 2.12891Q9.66797 2.91016 11.709 2.91016ZM11.709 1.25Q9.98047 1.25 8.47656 0.605469Q6.97266-0.0390625 5.83496-1.17676Q4.69727-2.31445 4.05762-3.81836Q3.41797-5.32227 3.41797-7.05078Q3.41797-8.7793 4.05762-10.2832Q4.69727-11.7871 5.83008-12.9297Q6.96289-14.0723 8.4668-14.7119Q9.9707-15.3516 11.6992-15.3516Q13.4277-15.3516 14.9316-14.7119Q16.4355-14.0723 17.5781-12.9297Q18.7207-11.7871 19.3652-10.2832Q20.0098-8.7793 20.0098-7.05078Q20.0098-5.32227 19.3701-3.81836Q18.7305-2.31445 17.5928-1.17676Q16.4551-0.0390625 14.9463 0.605469Q13.4375 1.25 11.709 1.25ZM7.17773-7.05078Q7.17773-6.69922 7.41211-6.47461Q7.64648-6.25 8.01758-6.25L10.8887-6.25L10.8887-3.36914Q10.8887-2.99805 11.1133-2.76855Q11.3379-2.53906 11.6895-2.53906Q12.0605-2.53906 12.29-2.76855Q12.5195-2.99805 12.5195-3.36914L12.5195-6.25L15.4004-6.25Q15.7715-6.25 16.001-6.47461Q16.2305-6.69922 16.2305-7.05078Q16.2305-7.42188 16.001-7.65137Q15.7715-7.88086 15.4004-7.88086L12.5195-7.88086L12.5195-10.752Q12.5195-11.1328 12.29-11.3623Q12.0605-11.5918 11.6895-11.5918Q11.3379-11.5918 11.1133-11.3574Q10.8887-11.123 10.8887-10.752L10.8887-7.88086L8.01758-7.88086Q7.63672-7.88086 7.40723-7.65137Q7.17773-7.42188 7.17773-7.05078Z"/>
  </g>
  <g transform="matrix(1 0 0 1 305.646 1933)">
   <path d="M14.9707 5.66406Q17.0605 5.66406 18.96 5.01465Q20.8594 4.36523 22.4512 3.19336Q24.043 2.02148 25.2197 0.429688Q26.3965-1.16211 27.0459-3.06641Q27.6953-4.9707 27.6953-7.05078Q27.6953-9.14062 27.0459-11.04Q26.3965-12.9395 25.2197-14.5312Q24.043-16.123 22.4512-17.2998Q20.8594-18.4766 18.9551-19.126Q17.0508-19.7754 14.9609-19.7754Q12.8711-19.7754 10.9717-19.126Q9.07227-18.4766 7.48535-17.2998Q5.89844-16.123 4.72168-14.5312Q3.54492-12.9395 2.90039-11.04Q2.25586-9.14062 2.25586-7.05078Q2.25586-4.9707 2.90527-3.06641Q3.55469-1.16211 4.72656 0.429688Q5.89844 2.02148 7.49023 3.19336Q9.08203 4.36523 10.9814 5.01465Q12.8809 5.66406 14.9707 5.66406ZM14.9707 3.84766Q13.1641 3.84766 11.5283 3.2959Q9.89258 2.74414 8.53516 1.74805Q7.17773 0.751953 6.17676-0.610352Q5.17578-1.97266 4.62891-3.6084Q4.08203-5.24414 4.08203-7.05078Q4.08203-8.86719 4.62891-10.5029Q5.17578-12.1387 6.17188-13.501Q7.16797-14.8633 8.52539-15.8594Q9.88281-16.8555 11.5186-17.4023Q13.1543-17.9492 14.9609-17.9492Q16.7773-17.9492 18.4131-17.4023Q20.0488-16.8555 21.4111-15.8594Q22.7734-14.8633 23.7695-13.501Q24.7656-12.1387 25.3174-10.5029Q25.8691-8.86719 25.8691-7.05078Q25.8789-5.24414 25.332-3.6084Q24.7852-1.97266 23.7842-0.610352Q22.7832 0.751953 21.4209 1.74805Q20.0586 2.74414 18.4229 3.2959Q16.7871 3.84766 14.9707 3.84766ZM9.19922-7.05078Q9.19922-6.66992 9.45801-6.4209Q9.7168-6.17188 10.1172-6.17188L14.0625-6.17188L14.0625-2.2168Q14.0625-1.81641 14.3115-1.55762Q14.5605-1.29883 14.9512-1.29883Q15.3516-1.29883 15.6104-1.55273Q15.8691-1.80664 15.8691-2.2168L15.8691-6.17188L19.8242-6.17188Q20.2246-6.17188 20.4785-6.4209Q20.7324-6.66992 20.7324-7.05078Q20.7324-7.46094 20.4785-7.71484Q20.2246-7.96875 19.8242-7.96875L15.8691-7.96875L15.8691-11.9141Q15.8691-12.3242 15.6104-12.583Q15.3516-12.8418 14.9512-12.8418Q14.5605-12.8418 14.3115-12.583Q14.0625-12.3242 14.0625-11.9141L14.0625-7.96875L10.1172-7.96875Q9.70703-7.96875 9.45312-7.71484Q9.19922-7.46094 9.19922-7.05078Z"/>
  </g>
  <text style="stroke:none;fill:black;font-family:sans-serif;font-size:13;font-weight:bold;" transform="matrix(1 0 0 1 263 1953)">Design Variations</text>
  <text style="stroke:none;fill:black;font-family:sans-serif;font-size:13;" transform="matrix(1 0 0 1 263 1971)">Symbols are supported in up to nine weights and three scales.</text>
  <text style="stroke:none;fill:black;font-family:sans-serif;font-size:13;" transform="matrix(1 0 0 1 263 1989)">For optimal layout with text and other symbols, vertically align</text>
  <text style="stroke:none;fill:black;font-family:sans-serif;font-size:13;" transform="matrix(1 0 0 1 263 2007)">symbols with the adjacent text.</text>
  <line style="fill:none;stroke:#00AEEF;stroke-width:0.5;opacity:1.0;" x1="776" x2="776" y1="1919" y2="1933"/>
  <g transform="matrix(1 0 0 1 776 1933)">
   <path d="M3.31055 0.15625Q3.70117 0.15625 3.91602-0.00976562Q4.13086-0.175781 4.26758-0.585938L5.52734-4.0332L11.2891-4.0332L12.5488-0.585938Q12.6855-0.175781 12.9004-0.00976562Q13.1152 0.15625 13.4961 0.15625Q13.8867 0.15625 14.1162-0.0585938Q14.3457-0.273438 14.3457-0.644531Q14.3457-0.869141 14.2383-1.17188L9.6582-13.3691Q9.48242-13.8184 9.17969-14.043Q8.87695-14.2676 8.4082-14.2676Q7.5-14.2676 7.17773-13.3789L2.59766-1.16211Q2.49023-0.859375 2.49023-0.634766Q2.49023-0.263672 2.70996-0.0537109Q2.92969 0.15625 3.31055 0.15625ZM6.00586-5.51758L8.37891-12.0898L8.42773-12.0898L10.8008-5.51758Z"/>
  </g>
  <line style="fill:none;stroke:#00AEEF;stroke-width:0.5;opacity:1.0;" x1="793.197" x2="793.197" y1="1919" y2="1933"/>
  <text style="stroke:none;fill:black;font-family:sans-serif;font-size:13;font-weight:bold;" transform="matrix(1 0 0 1 776 1953)">Margins</text>
  <text style="stroke:none;fill:black;font-family:sans-serif;font-size:13;" transform="matrix(1 0 0 1 776 1971)">Leading and trailing margins on the left and right side of each symbol</text>
  <text style="stroke:none;fill:black;font-family:sans-serif;font-size:13;" transform="matrix(1 0 0 1 776 1989)">can be adjusted by modifying the x-location of the margin guidelines.</text>
  <text style="stroke:none;fill:black;font-family:sans-serif;font-size:13;" transform="matrix(1 0 0 1 776 2007)">Modifications are automatically applied proportionally to all</text>
  <text style="stroke:none;fill:black;font-family:sans-serif;font-size:13;" transform="matrix(1 0 0 1 776 2025)">scales and weights.</text>
  <g transform="matrix(1 0 0 1 1289 1933)">
   <path d="M2.8418 1.86523L4.54102 3.57422Q5.18555 4.22852 5.90332 4.17969Q6.62109 4.13086 7.31445 3.35938L18.0078-8.42773L17.041-9.4043L6.42578 2.27539Q6.16211 2.57812 5.89355 2.61719Q5.625 2.65625 5.27344 2.30469L4.10156 1.14258Q3.75 0.791016 3.79395 0.522461Q3.83789 0.253906 4.14062-0.0195312L15.6152-10.8203L14.6387-11.7871L3.04688-0.898438Q2.30469-0.214844 2.25098 0.498047Q2.19727 1.21094 2.8418 1.86523ZM9.25781-16.3281Q8.94531-16.0254 8.90625-15.6348Q8.86719-15.2441 9.04297-14.9512Q9.21875-14.6777 9.55566-14.541Q9.89258-14.4043 10.3809-14.5215Q11.4746-14.7754 12.5977-14.7314Q13.7207-14.6875 14.7949-13.9844L14.209-12.5293Q13.9551-11.9043 14.0674-11.4404Q14.1797-10.9766 14.5801-10.5664L16.875-8.25195Q17.2363-7.88086 17.5781-7.82227Q17.9199-7.76367 18.3398-7.8418L19.4043-8.03711L20.0684-7.36328L20.0293-6.80664Q20-6.43555 20.1221-6.12305Q20.2441-5.81055 20.6055-5.44922L21.3672-4.70703Q21.7285-4.3457 22.1533-4.33105Q22.5781-4.31641 22.9297-4.66797L25.8398-7.58789Q26.1914-7.93945 26.1816-8.35449Q26.1719-8.76953 25.8105-9.13086L25.0391-9.89258Q24.6875-10.2539 24.3799-10.3857Q24.0723-10.5176 23.7109-10.4883L23.1348-10.4395L22.4902-11.0742L22.7344-12.1973Q22.832-12.6172 22.6953-12.9834Q22.5586-13.3496 22.1191-13.7891L19.9219-15.9766Q18.6719-17.2168 17.2607-17.8369Q15.8496-18.457 14.4189-18.4814Q12.9883-18.5059 11.665-17.959Q10.3418-17.4121 9.25781-16.3281ZM10.752-15.957Q11.6602-16.6211 12.7002-16.9043Q13.7402-17.1875 14.8047-17.085Q15.8691-16.9824 16.8701-16.5137Q17.8711-16.0449 18.7012-15.2051L21.1328-12.793Q21.3086-12.6172 21.3525-12.4512Q21.3965-12.2852 21.3379-12.0312L21.0156-10.5469L22.5195-9.0625L23.5059-9.12109Q23.6914-9.13086 23.7891-9.09668Q23.8867-9.0625 24.0332-8.91602L24.6094-8.33984L22.168-5.89844L21.5918-6.47461Q21.4453-6.62109 21.4062-6.71875Q21.3672-6.81641 21.377-7.01172L21.4453-7.98828L19.9512-9.47266L18.4277-9.21875Q18.1836-9.16992 18.042-9.2041Q17.9004-9.23828 17.7148-9.41406L15.7129-11.416Q15.5176-11.5918 15.4932-11.7529Q15.4688-11.9141 15.5859-12.1875L16.4648-14.2773Q15.293-15.3711 13.8281-15.791Q12.3633-16.2109 10.8398-15.7617Q10.7227-15.7324 10.6885-15.8057Q10.6543-15.8789 10.752-15.957Z"/>
  </g>
  <text style="stroke:none;fill:black;font-family:sans-serif;font-size:13;font-weight:bold;" transform="matrix(1 0 0 1 1289 1953)">Exporting</text>
  <text style="stroke:none;fill:black;font-family:sans-serif;font-size:13;" transform="matrix(1 0 0 1 1289 1971)">Symbols should be outlined when exporting to ensure the</text>
  <text style="stroke:none;fill:black;font-family:sans-serif;font-size:13;" transform="matrix(1 0 0 1 1289 1989)">design is preserved when submitting to Xcode.</text>
  <text id="template-version" style="stroke:none;fill:black;font-family:sans-serif;font-size:13;text-anchor:end;" transform="matrix(1 0 0 1 3036 1933)">Template v.2.0</text>
  <text style="stroke:none;fill:black;font-family:sans-serif;font-size:13;text-anchor:end;" transform="matrix(1 0 0 1 3036 1951)">Requires Xcode 12 or greater</text>
  <text id="descriptive-name" style="stroke:none;fill:black;font-family:sans-serif;font-size:13;text-anchor:end;" transform="matrix(1 0 0 1 3036 1969)">Generated from square.bullet.square.cr</text>
  <text style="stroke:none;fill:black;font-family:sans-serif;font-size:13;text-anchor:end;" transform="matrix(1 0 0 1 3036 1987)">Typeset at 100 points</text>
  <text style="stroke:none;fill:black;font-family:sans-serif;font-size:13;" transform="matrix(1 0 0 1 263 726)">Small</text>
  <text style="stroke:none;fill:black;font-family:sans-serif;font-size:13;" transform="matrix(1 0 0 1 263 1156)">Medium</text>
  <text style="stroke:none;fill:black;font-family:sans-serif;font-size:13;" transform="matrix(1 0 0 1 263 1586)">Large</text>
 </g>
 <g id="Guides">
  <g id="H-reference" style="fill:#27AAE1;stroke:none;" transform="matrix(1 0 0 1 339 696)">
   <path d="M0.993347 0L3.6377 0L29.3282-67.1326L30.0301-67.1326L30.0301-70.459L28.1227-70.459ZM11.6882-24.4797L46.9818-24.4797L46.2311-26.7288L12.4382-26.7288ZM55.1193 0L57.7637 0L30.6381-70.459L29.4327-70.459L29.4327-67.1326Z"/>
  </g>
  <line id="Baseline-S" style="fill:none;stroke:#27AAE1;opacity:1;stroke-width:0.5;" x1="263" x2="3036" y1="696" y2="696"/>
  <line id="Capline-S" style="fill:none;stroke:#27AAE1;opacity:1;stroke-width:0.5;" x1="263" x2="3036" y1="625.541" y2="625.541"/>
  <g id="H-reference" style="fill:#27AAE1;stroke:none;" transform="matrix(1 0 0 1 339 1126)">
   <path d="M0.993347 0L3.6377 0L29.3282-67.1326L30.0301-67.1326L30.0301-70.459L28.1227-70.459ZM11.6882-24.4797L46.9818-24.4797L46.2311-26.7288L12.4382-26.7288ZM55.1193 0L57.7637 0L30.6381-70.459L29.4327-70.459L29.4327-67.1326Z"/>
  </g>
  <line id="Baseline-M" style="fill:none;stroke:#27AAE1;opacity:1;stroke-width:0.5;" x1="263" x2="3036" y1="1126" y2="1126"/>
  <line id="Capline-M" style="fill:none;stroke:#27AAE1;opacity:1;stroke-width:0.5;" x1="263" x2="3036" y1="1055.54" y2="1055.54"/>
  <g id="H-reference" style="fill:#27AAE1;stroke:none;" transform="matrix(1 0 0 1 339 1556)">
   <path d="M0.993347 0L3.6377 0L29.3282-67.1326L30.0301-67.1326L30.0301-70.459L28.1227-70.459ZM11.6882-24.4797L46.9818-24.4797L46.2311-26.7288L12.4382-26.7288ZM55.1193 0L57.7637 0L30.6381-70.459L29.4327-70.459L29.4327-67.1326Z"/>
  </g>
  <line id="Baseline-L" style="fill:none;stroke:#27AAE1;opacity:1;stroke-width:0.5;" x1="263" x2="3036" y1="1556" y2="1556"/>
  <line id="Capline-L" style="fill:none;stroke:#27AAE1;opacity:1;stroke-width:0.5;" x1="263" x2="3036" y1="1485.54" y2="1485.54"/>
  <line id="left-margin" style="fill:none;stroke:#00AEEF;stroke-width:0.5;opacity:1.0;" x1="1392.45" x2="1392.45" y1="1030.78" y2="1150.12"/>
  <line id="right-margin" style="fill:none;stroke:#00AEEF;stroke-width:0.5;opacity:1.0;" x1="1507.24" x2="1507.24" y1="1030.78" y2="1150.12"/>
 </g>
 <g id="Symbols">
  <g id="Black-L" transform="matrix(1 0 0 1 2859.34 1556)">
   <path d="M36.23 26.62L111.88 26.62C119.46 26.62 125.32 24.56 129.46 20.43C133.59 16.3 135.66 10.46 135.66 2.91L135.66-72.89C135.66-80.44 133.59-86.28 129.46-90.41C125.32-94.53 119.46-96.6 111.88-96.6L36.23-96.6C28.66-96.6 22.81-94.53 18.67-90.41C14.53-86.28 12.46-80.44 12.46-72.89L12.46 2.91C12.46 10.47 14.53 16.3 18.67 20.43C22.81 24.56 28.66 26.62 36.23 26.62ZM38.96 6.62C36.82 6.62 35.2 6.11 34.09 5.07C32.99 4.04 32.44 2.38 32.44 0.08L32.44-70.05C32.44-72.38 32.99-74.05 34.09-75.07C35.2-76.09 36.82-76.6 38.96-76.6L109.15-76.6C111.33-76.6 112.96-76.09 114.05-75.07C115.13-74.05 115.68-72.38 115.68-70.05L115.68 0.08C115.68 2.38 115.13 4.04 114.05 5.07C112.96 6.11 111.33 6.62 109.15 6.62L38.96 6.62ZM63.63-48.43L100.89-48.43C102.22-48.43 103.35-48.9 104.29-49.84C105.23-50.78 105.7-51.92 105.7-53.24C105.7-54.58 105.23-55.71 104.29-56.65C103.35-57.58 102.22-58.05 100.89-58.05L63.63-58.05C62.3-58.05 61.18-57.58 60.26-56.65C59.34-55.71 58.88-54.58 58.88-53.24C58.88-51.92 59.35-50.78 60.29-49.84C61.23-48.9 62.34-48.43 63.63-48.43ZM63.63-12L100.89-12C102.22-12 103.35-12.47 104.29-13.4C105.23-14.33 105.7-15.47 105.7-16.81C105.7-18.13 105.23-19.26 104.29-20.2C103.35-21.14 102.22-21.61 100.89-21.61L63.63-21.61C62.34-21.61 61.23-21.14 60.29-20.2C59.35-19.26 58.88-18.13 58.88-16.81C58.88-15.47 59.35-14.33 60.29-13.4C61.23-12.47 62.34-12 63.63-12ZM63.63-30.22L100.89-30.22C102.22-30.22 103.35-30.69 104.29-31.63C105.23-32.57 105.7-33.7 105.7-35.02C105.7-36.36 105.23-37.5 104.29-38.43C103.35-39.36 102.22-39.83 100.89-39.83L63.63-39.83C62.3-39.83 61.18-39.36 60.26-38.42C59.34-37.48 58.88-36.35 58.88-35.02C58.88-33.7 59.35-32.57 60.29-31.63C61.23-30.69 62.34-30.22 63.63-30.22ZM48.41-47.18C50.08-47.18 51.51-47.79 52.7-49C53.9-50.21 54.49-51.63 54.49-53.24C54.49-54.91 53.9-56.33 52.7-57.52C51.51-58.71 50.08-59.3 48.41-59.3C46.78-59.3 45.37-58.71 44.16-57.52C42.95-56.33 42.35-54.91 42.35-53.24C42.35-51.61 42.95-50.19 44.16-48.99C45.37-47.78 46.78-47.18 48.41-47.18ZM48.41-28.96C50.08-28.96 51.51-29.57 52.7-30.78C53.9-32 54.49-33.41 54.49-35.02C54.49-36.68 53.9-38.1 52.7-39.3C51.51-40.49 50.08-41.09 48.41-41.09C46.78-41.09 45.37-40.49 44.16-39.31C42.95-38.12 42.35-36.69 42.35-35.02C42.35-33.4 42.95-31.98 44.16-30.77C45.37-29.57 46.78-28.96 48.41-28.96ZM48.41-10.75C50.08-10.75 51.51-11.35 52.7-12.56C53.9-13.76 54.49-15.18 54.49-16.81C54.49-18.46 53.9-19.89 52.7-21.08C51.51-22.27 50.08-22.87 48.41-22.87C46.78-22.87 45.37-22.28 44.16-21.09C42.95-19.9 42.35-18.48 42.35-16.81C42.35-15.18 42.95-13.76 44.16-12.56C45.37-11.35 46.78-10.75 48.41-10.75Z"/>
  </g>
  <g id="Heavy-L" transform="matrix(1 0 0 1 2563.54 1556)">
   <path d="M35.21 25.71L111.08 25.71C118.4 25.71 124.02 23.75 127.95 19.83C131.87 15.92 133.83 10.32 133.83 3.05L133.83-73.03C133.83-80.31 131.87-85.9 127.95-89.81C124.02-93.73 118.4-95.69 111.08-95.69L35.21-95.69C27.91-95.69 22.3-93.73 18.36-89.82C14.43-85.9 12.46-80.31 12.46-73.03L12.46 3.05C12.46 10.33 14.43 15.93 18.36 19.84C22.3 23.75 27.91 25.71 35.21 25.71ZM37.34 8.18C34.93 8.18 33.1 7.59 31.85 6.4C30.59 5.2 29.96 3.33 29.96 0.78L29.96-70.75C29.96-73.32 30.59-75.19 31.85-76.38C33.1-77.57 34.93-78.16 37.34-78.16L108.96-78.16C111.39-78.16 113.22-77.57 114.47-76.38C115.71-75.19 116.33-73.32 116.33-70.75L116.33 0.78C116.33 3.33 115.71 5.2 114.47 6.4C113.22 7.59 111.39 8.18 108.96 8.18L37.34 8.18ZM61.51-49.36L101.26-49.36C102.51-49.36 103.57-49.8 104.46-50.68C105.34-51.57 105.78-52.63 105.78-53.88C105.78-55.15 105.34-56.22 104.46-57.09C103.57-57.96 102.51-58.4 101.26-58.4L61.51-58.4C60.27-58.4 59.21-57.96 58.34-57.09C57.47-56.21 57.04-55.14 57.04-53.88C57.04-52.63 57.48-51.57 58.36-50.68C59.25-49.8 60.3-49.36 61.51-49.36ZM61.51-11.62L101.26-11.62C102.51-11.62 103.57-12.06 104.46-12.93C105.34-13.8 105.78-14.87 105.78-16.14C105.78-17.39 105.34-18.46 104.46-19.34C103.57-20.22 102.51-20.67 101.26-20.67L61.51-20.67C60.3-20.67 59.25-20.22 58.36-19.34C57.48-18.46 57.04-17.39 57.04-16.14C57.04-14.88 57.48-13.81 58.36-12.93C59.25-12.06 60.3-11.62 61.51-11.62ZM61.51-30.5L101.26-30.5C102.51-30.5 103.57-30.94 104.46-31.82C105.34-32.7 105.78-33.76 105.78-35.01C105.78-36.28 105.34-37.35 104.46-38.22C103.57-39.09 102.51-39.53 101.26-39.53L61.51-39.53C60.27-39.53 59.21-39.09 58.34-38.2C57.47-37.32 57.04-36.26 57.04-35.01C57.04-33.76 57.48-32.7 58.36-31.82C59.25-30.94 60.3-30.5 61.51-30.5ZM46.31-47.99C47.93-47.99 49.32-48.58 50.48-49.75C51.64-50.93 52.22-52.3 52.22-53.88C52.22-55.5 51.64-56.89 50.48-58.04C49.32-59.19 47.93-59.76 46.31-59.76C44.71-59.76 43.33-59.19 42.17-58.04C41.01-56.89 40.42-55.5 40.42-53.88C40.42-52.28 41.01-50.9 42.17-49.74C43.33-48.58 44.71-47.99 46.31-47.99ZM46.31-29.12C47.93-29.12 49.32-29.71 50.48-30.89C51.64-32.06 52.22-33.44 52.22-35.01C52.22-36.61 51.64-38 50.48-39.16C49.32-40.32 47.93-40.9 46.31-40.9C44.71-40.9 43.33-40.33 42.17-39.17C41.01-38.02 40.42-36.63 40.42-35.01C40.42-33.42 41.01-32.04 42.17-30.87C43.33-29.7 44.71-29.12 46.31-29.12ZM46.31-10.26C47.93-10.26 49.32-10.84 50.48-12.01C51.64-13.17 52.22-14.55 52.22-16.14C52.22-17.75 51.64-19.13 50.48-20.29C49.32-21.45 47.93-22.03 46.31-22.03C44.71-22.03 43.33-21.45 42.17-20.3C41.01-19.15 40.42-17.77 40.42-16.14C40.42-14.55 41.01-13.17 42.17-12.01C43.33-10.84 44.71-10.26 46.31-10.26Z"/>
  </g>
  <g id="Bold-L" transform="matrix(1 0 0 1 2267.97 1556)">
   <path d="M33.92 24.58L110.08 24.58C117.06 24.58 122.38 22.74 126.05 19.08C129.71 15.42 131.54 10.13 131.54 3.23L131.54-73.21C131.54-80.12 129.71-85.4 126.05-89.06C122.38-92.72 117.06-94.55 110.08-94.55L33.92-94.55C26.97-94.55 21.65-92.72 17.97-89.07C14.3-85.41 12.46-80.13 12.46-73.21L12.46 3.23C12.46 10.15 14.3 15.44 17.97 19.1C21.65 22.75 26.97 24.58 33.92 24.58ZM35.36 10.1C32.61 10.1 30.51 9.41 29.06 8.01C27.62 6.62 26.89 4.48 26.89 1.6L26.89-71.57C26.89-74.45 27.62-76.58 29.06-77.98C30.51-79.38 32.61-80.07 35.36-80.07L108.64-80.07C111.39-80.07 113.49-79.38 114.94-77.98C116.38-76.58 117.11-74.45 117.11-71.57L117.11 1.6C117.11 4.48 116.38 6.62 114.94 8.01C113.49 9.41 111.39 10.1 108.64 10.1L35.36 10.1ZM58.93-50.52L101.68-50.52C102.81-50.52 103.78-50.93 104.59-51.73C105.39-52.53 105.79-53.5 105.79-54.64C105.79-55.81 105.39-56.78 104.59-57.57C103.78-58.36 102.81-58.75 101.68-58.75L58.93-58.75C57.8-58.75 56.84-58.36 56.04-57.56C55.25-56.77 54.85-55.8 54.85-54.64C54.85-53.5 55.25-52.53 56.06-51.73C56.86-50.93 57.82-50.52 58.93-50.52ZM58.93-11.23L101.68-11.23C102.81-11.23 103.78-11.63 104.59-12.41C105.39-13.2 105.79-14.18 105.79-15.35C105.79-16.48 105.39-17.45 104.59-18.25C103.78-19.06 102.81-19.46 101.68-19.46L58.93-19.46C57.82-19.46 56.86-19.06 56.06-18.25C55.25-17.45 54.85-16.48 54.85-15.35C54.85-14.19 55.25-13.21 56.06-12.42C56.86-11.63 57.82-11.23 58.93-11.23ZM58.93-30.89L101.68-30.89C102.81-30.89 103.78-31.29 104.59-32.08C105.39-32.88 105.79-33.85 105.79-34.99C105.79-36.16 105.39-37.13 104.59-37.92C103.78-38.7 102.81-39.09 101.68-39.09L58.93-39.09C57.8-39.09 56.84-38.69 56.04-37.89C55.25-37.09 54.85-36.13 54.85-34.99C54.85-33.86 55.25-32.89 56.06-32.09C56.86-31.29 57.82-30.89 58.93-30.89ZM43.75-48.98C45.32-48.98 46.66-49.54 47.77-50.67C48.89-51.79 49.45-53.12 49.45-54.64C49.45-56.2 48.89-57.54 47.77-58.64C46.66-59.74 45.32-60.29 43.75-60.29C42.2-60.29 40.87-59.74 39.76-58.64C38.65-57.54 38.1-56.2 38.1-54.64C38.1-53.09 38.65-51.76 39.76-50.65C40.87-49.54 42.2-48.98 43.75-48.98ZM43.75-29.32C45.32-29.32 46.66-29.89 47.77-31.02C48.89-32.14 49.45-33.47 49.45-34.99C49.45-36.53 48.89-37.86 47.77-38.98C46.66-40.1 45.32-40.66 43.75-40.66C42.2-40.66 40.87-40.11 39.76-39C38.65-37.89 38.1-36.56 38.1-34.99C38.1-33.45 38.65-32.11 39.76-31C40.87-29.88 42.2-29.32 43.75-29.32ZM43.75-9.69C45.32-9.69 46.66-10.25 47.77-11.36C48.89-12.47 49.45-13.8 49.45-15.35C49.45-16.89 48.89-18.21 47.77-19.33C46.66-20.44 45.32-21 43.75-21C42.2-21 40.87-20.45 39.76-19.35C38.65-18.24 38.1-16.91 38.1-15.35C38.1-13.8 38.65-12.47 39.76-11.36C40.87-10.25 42.2-9.69 43.75-9.69Z"/>
  </g>
  <g id="Semibold-L" transform="matrix(1 0 0 1 1972.04 1556)">
   <path d="M33.04 23.79L109.4 23.79C116.14 23.79 121.26 22.05 124.74 18.56C128.23 15.07 129.98 10 129.98 3.34L129.98-73.34C129.98-80 128.23-85.07 124.74-88.55C121.26-92.03 116.14-93.77 109.4-93.77L33.04-93.77C26.32-93.77 21.22-92.03 17.72-88.56C14.21-85.08 12.46-80.01 12.46-73.34L12.46 3.34C12.46 10.03 14.21 15.11 17.72 18.58C21.22 22.05 26.32 23.79 33.04 23.79ZM34.01 11.42C31.02 11.42 28.74 10.66 27.16 9.12C25.58 7.59 24.79 5.27 24.79 2.15L24.79-72.13C24.79-75.23 25.58-77.55 27.16-79.09C28.74-80.63 31.02-81.4 34.01-81.4L108.43-81.4C111.4-81.4 113.69-80.63 115.27-79.09C116.86-77.55 117.65-75.23 117.65-72.13L117.65 2.15C117.65 5.27 116.86 7.59 115.27 9.12C113.69 10.66 111.4 11.42 108.43 11.42L34.01 11.42ZM57.16-51.33L101.98-51.33C103.03-51.33 103.93-51.71 104.68-52.46C105.43-53.21 105.81-54.11 105.81-55.17C105.81-56.26 105.43-57.18 104.68-57.91C103.93-58.63 103.03-59 101.98-59L57.16-59C56.11-59 55.21-58.63 54.46-57.9C53.72-57.16 53.35-56.25 53.35-55.17C53.35-54.11 53.73-53.21 54.47-52.46C55.22-51.71 56.12-51.33 57.16-51.33ZM57.16-10.97L101.98-10.97C103.03-10.97 103.93-11.33 104.68-12.06C105.43-12.79 105.81-13.7 105.81-14.8C105.81-15.86 105.43-16.76 104.68-17.51C103.93-18.26 103.03-18.63 101.98-18.63L57.16-18.63C56.12-18.63 55.22-18.26 54.47-17.51C53.73-16.76 53.35-15.86 53.35-14.8C53.35-13.71 53.73-12.8 54.47-12.07C55.22-11.33 56.12-10.97 57.16-10.97ZM57.16-31.17L101.98-31.17C103.03-31.17 103.93-31.54 104.68-32.27C105.43-33.01 105.81-33.91 105.81-34.98C105.81-36.08 105.43-36.99 104.68-37.71C103.93-38.43 103.03-38.79 101.98-38.79L57.16-38.79C56.11-38.79 55.21-38.42 54.46-37.68C53.72-36.94 53.35-36.04 53.35-34.98C53.35-33.93 53.73-33.03 54.47-32.28C55.22-31.54 56.12-31.17 57.16-31.17ZM42-49.67C43.53-49.67 44.83-50.21 45.92-51.3C47-52.39 47.54-53.68 47.54-55.17C47.54-56.69 47-57.99 45.92-59.06C44.83-60.13 43.53-60.66 42-60.66C40.48-60.66 39.18-60.13 38.11-59.06C37.04-57.99 36.5-56.69 36.5-55.17C36.5-53.65 37.04-52.36 38.11-51.28C39.18-50.21 40.48-49.67 42-49.67ZM42-29.47C43.53-29.47 44.83-30.01 45.92-31.11C47-32.21 47.54-33.5 47.54-34.98C47.54-36.48 47-37.77 45.92-38.86C44.83-39.96 43.53-40.5 42-40.5C40.48-40.5 39.18-39.96 38.11-38.89C37.04-37.81 36.5-36.51 36.5-34.98C36.5-33.47 37.04-32.17 38.11-31.09C39.18-30.01 40.48-29.47 42-29.47ZM42-9.3C43.53-9.3 44.83-9.84 45.92-10.92C47-11.99 47.54-13.29 47.54-14.8C47.54-16.3 47-17.59 45.92-18.67C44.83-19.75 43.53-20.3 42-20.3C40.48-20.3 39.18-19.76 38.11-18.69C37.04-17.62 36.5-16.32 36.5-14.8C36.5-13.29 37.04-11.99 38.11-10.92C39.18-9.84 40.48-9.3 42-9.3Z"/>
  </g>
  <g id="Medium-L" transform="matrix(1 0 0 1 1675.93 1556)">
   <path d="M32.36 23.19L108.88 23.19C115.44 23.19 120.4 21.52 123.75 18.16C127.11 14.81 128.78 9.9 128.78 3.43L128.78-73.43C128.78-79.9 127.11-84.81 123.75-88.15C120.4-91.5 115.44-93.17 108.88-93.17L32.36-93.17C25.83-93.17 20.88-91.5 17.51-88.17C14.15-84.83 12.46-79.92 12.46-73.43L12.46 3.43C12.46 9.93 14.15 14.85 17.51 18.19C20.88 21.52 25.83 23.19 32.36 23.19ZM32.99 12.42C29.81 12.42 27.39 11.6 25.71 9.97C24.03 8.33 23.19 5.87 23.19 2.58L23.19-72.56C23.19-75.82 24.03-78.28 25.71-79.93C27.39-81.58 29.81-82.4 32.99-82.4L108.26-82.4C111.41-82.4 113.83-81.58 115.52-79.93C117.21-78.28 118.06-75.82 118.06-72.56L118.06 2.58C118.06 5.87 117.21 8.33 115.52 9.97C113.83 11.6 111.41 12.42 108.26 12.42L32.99 12.42ZM55.82-51.95L102.2-51.95C103.19-51.95 104.05-52.31 104.75-53.01C105.46-53.72 105.82-54.57 105.82-55.57C105.82-56.62 105.46-57.48 104.75-58.16C104.05-58.85 103.19-59.19 102.2-59.19L55.82-59.19C54.82-59.19 53.97-58.84 53.27-58.15C52.56-57.46 52.21-56.6 52.21-55.57C52.21-54.57 52.56-53.72 53.27-53.01C53.98-52.31 54.83-51.95 55.82-51.95ZM55.82-10.77L102.2-10.77C103.19-10.77 104.05-11.11 104.75-11.8C105.46-12.48 105.82-13.34 105.82-14.39C105.82-15.39 105.46-16.24 104.75-16.95C104.05-17.65 103.19-18.01 102.2-18.01L55.82-18.01C54.83-18.01 53.98-17.65 53.27-16.95C52.56-16.24 52.21-15.39 52.21-14.39C52.21-13.36 52.56-12.5 53.27-11.81C53.98-11.12 54.83-10.77 55.82-10.77ZM55.82-31.39L102.2-31.39C103.19-31.39 104.05-31.73 104.75-32.42C105.46-33.11 105.82-33.97 105.82-34.98C105.82-36.02 105.46-36.89 104.75-37.56C104.05-38.24 103.19-38.57 102.2-38.57L55.82-38.57C54.82-38.57 53.97-38.23 53.27-37.53C52.56-36.83 52.21-35.98 52.21-34.98C52.21-33.98 52.56-33.13 53.27-32.43C53.98-31.74 54.83-31.39 55.82-31.39ZM40.67-50.19C42.17-50.19 43.44-50.73 44.5-51.79C45.56-52.85 46.09-54.11 46.09-55.57C46.09-57.07 45.56-58.34 44.5-59.38C43.44-60.43 42.17-60.95 40.67-60.95C39.17-60.95 37.89-60.43 36.85-59.38C35.81-58.34 35.29-57.07 35.29-55.57C35.29-54.08 35.81-52.81 36.85-51.77C37.89-50.72 39.17-50.19 40.67-50.19ZM40.67-29.58C42.17-29.58 43.44-30.11 44.5-31.19C45.56-32.26 46.09-33.52 46.09-34.98C46.09-36.44 45.56-37.71 44.5-38.78C43.44-39.85 42.17-40.38 40.67-40.38C39.17-40.38 37.89-39.86 36.85-38.8C35.81-37.75 35.29-36.48 35.29-34.98C35.29-33.49 35.81-32.22 36.85-31.16C37.89-30.11 39.17-29.58 40.67-29.58ZM40.67-9.01C42.17-9.01 43.44-9.54 44.5-10.58C45.56-11.63 46.09-12.9 46.09-14.39C46.09-15.85 45.56-17.12 44.5-18.18C43.44-19.24 42.17-19.77 40.67-19.77C39.17-19.77 37.89-19.24 36.85-18.2C35.81-17.15 35.29-15.88 35.29-14.39C35.29-12.9 35.81-11.63 36.85-10.58C37.89-9.54 39.17-9.01 40.67-9.01Z"/>
  </g>
  <g id="Regular-L" transform="matrix(1 0 0 1 1380 1556)">
   <path d="M31.48 22.42L108.2 22.42C114.53 22.42 119.28 20.83 122.46 17.65C125.63 14.47 127.22 9.77 127.22 3.55L127.22-73.56C127.22-79.78 125.63-84.47 122.46-87.64C119.28-90.81 114.53-92.39 108.2-92.39L31.48-92.39C25.18-92.39 20.44-90.81 17.25-87.66C14.05-84.5 12.46-79.8 12.46-73.56L12.46 3.55C12.46 9.81 14.05 14.52 17.25 17.68C20.44 20.84 25.18 22.42 31.48 22.42ZM31.64 13.73C28.23 13.73 25.62 12.84 23.81 11.07C22 9.29 21.09 6.65 21.09 3.14L21.09-73.11C21.09-76.59 22-79.23 23.81-81.02C25.62-82.81 28.23-83.71 31.64-83.71L108.04-83.71C111.41-83.71 114.01-82.81 115.84-81.02C117.67-79.23 118.59-76.59 118.59-73.11L118.59 3.14C118.59 6.65 117.67 9.29 115.84 11.07C114.01 12.84 111.41 13.73 108.04 13.73L31.64 13.73ZM54.06-52.75L102.48-52.75C103.4-52.75 104.19-53.08 104.84-53.73C105.49-54.38 105.82-55.17 105.82-56.09C105.82-57.07 105.49-57.87 104.84-58.49C104.19-59.12 103.4-59.43 102.48-59.43L54.06-59.43C53.14-59.43 52.35-59.11 51.7-58.48C51.05-57.84 50.72-57.05 50.72-56.09C50.72-55.17 51.05-54.38 51.7-53.73C52.35-53.08 53.14-52.75 54.06-52.75ZM54.06-10.5L102.48-10.5C103.4-10.5 104.19-10.82 104.84-11.44C105.49-12.07 105.82-12.87 105.82-13.85C105.82-14.77 105.49-15.55 104.84-16.21C104.19-16.86 103.4-17.19 102.48-17.19L54.06-17.19C53.14-17.19 52.35-16.86 51.7-16.21C51.05-15.55 50.72-14.77 50.72-13.85C50.72-12.89 51.05-12.09 51.7-11.46C52.35-10.82 53.14-10.5 54.06-10.5ZM54.06-31.66L102.48-31.66C103.4-31.66 104.19-31.97 104.84-32.61C105.49-33.24 105.82-34.03 105.82-34.97C105.82-35.94 105.49-36.74 104.84-37.35C104.19-37.97 103.4-38.28 102.48-38.28L54.06-38.28C53.14-38.28 52.35-37.96 51.7-37.31C51.05-36.67 50.72-35.89 50.72-34.97C50.72-34.05 51.05-33.26 51.7-32.62C52.35-31.98 53.14-31.66 54.06-31.66ZM38.93-50.87C40.38-50.87 41.63-51.38 42.66-52.41C43.69-53.44 44.2-54.67 44.2-56.09C44.2-57.55 43.69-58.78 42.66-59.79C41.63-60.81 40.38-61.31 38.93-61.31C37.45-61.31 36.21-60.81 35.21-59.79C34.21-58.78 33.71-57.55 33.71-56.09C33.71-54.64 34.21-53.4 35.21-52.39C36.21-51.38 37.45-50.87 38.93-50.87ZM38.93-29.72C40.38-29.72 41.63-30.24 42.66-31.28C43.69-32.32 44.2-33.55 44.2-34.97C44.2-36.39 43.69-37.62 42.66-38.66C41.63-39.7 40.38-40.22 38.93-40.22C37.45-40.22 36.21-39.71 35.21-38.69C34.21-37.66 33.71-36.42 33.71-34.97C33.71-33.51 34.21-32.27 35.21-31.25C36.21-30.23 37.45-29.72 38.93-29.72ZM38.93-8.62C40.38-8.62 41.63-9.13 42.66-10.14C43.69-11.16 44.2-12.39 44.2-13.85C44.2-15.27 43.69-16.49 42.66-17.52C41.63-18.55 40.38-19.07 38.93-19.07C37.45-19.07 36.21-18.56 35.21-17.55C34.21-16.53 33.71-15.3 33.71-13.85C33.71-12.39 34.21-11.16 35.21-10.14C36.21-9.13 37.45-8.62 38.93-8.62Z"/>
  </g>
  <g id="Light-L" transform="matrix(1 0 0 1 1084.12 1556)">
   <path d="M30.45 21.58L107.56 21.58C113.52 21.58 118.01 20.05 121.03 17.01C124.05 13.97 125.56 9.52 125.56 3.67L125.56-73.7C125.56-79.55 124.05-83.99 121.03-87.02C118.01-90.04 113.52-91.55 107.56-91.55L30.45-91.55C24.51-91.55 20.03-90.05 17-87.04C13.97-84.03 12.46-79.59 12.46-73.7L12.46 3.67C12.46 9.59 13.97 14.05 17 17.06C20.03 20.07 24.51 21.58 30.45 21.58ZM30.61 14.94C26.84 14.94 23.98 13.97 22.01 12.02C20.04 10.07 19.06 7.19 19.06 3.36L19.06-73.34C19.06-77.15 20.04-80.03 22.01-81.98C23.98-83.94 26.84-84.92 30.61-84.92L107.4-84.92C111.1-84.92 113.95-83.94 115.95-81.98C117.95-80.03 118.95-77.15 118.95-73.34L118.95 3.36C118.95 7.19 117.95 10.07 115.95 12.02C113.95 13.97 111.1 14.94 107.4 14.94L30.61 14.94ZM52.63-53.8L102.61-53.8C103.36-53.8 103.99-54.06 104.52-54.59C105.05-55.12 105.32-55.76 105.32-56.5C105.32-57.3 105.05-57.95 104.52-58.45C103.99-58.95 103.36-59.2 102.61-59.2L52.63-59.2C51.89-59.2 51.25-58.94 50.72-58.43C50.19-57.91 49.93-57.26 49.93-56.5C49.93-55.76 50.19-55.12 50.72-54.59C51.25-54.06 51.89-53.8 52.63-53.8ZM52.63-10.81L102.61-10.81C103.36-10.81 103.99-11.06 104.52-11.57C105.05-12.07 105.32-12.72 105.32-13.52C105.32-14.26 105.05-14.9 104.52-15.43C103.99-15.96 103.36-16.22 102.61-16.22L52.63-16.22C51.89-16.22 51.25-15.96 50.72-15.43C50.19-14.9 49.93-14.26 49.93-13.52C49.93-12.75 50.19-12.11 50.72-11.59C51.25-11.07 51.89-10.81 52.63-10.81ZM52.63-32.35L102.61-32.35C103.36-32.35 103.99-32.6 104.52-33.1C105.05-33.59 105.32-34.23 105.32-35.01C105.32-35.81 105.05-36.45 104.52-36.93C103.99-37.42 103.36-37.66 102.61-37.66L52.63-37.66C51.89-37.66 51.25-37.41 50.72-36.89C50.19-36.38 49.93-35.75 49.93-35.01C49.93-34.26 50.19-33.64 50.72-33.12C51.25-32.61 51.89-32.35 52.63-32.35ZM37.6-51.5C38.99-51.5 40.17-51.99 41.16-52.98C42.14-53.96 42.63-55.13 42.63-56.5C42.63-57.89 42.14-59.07 41.16-60.04C40.17-61.01 38.99-61.5 37.6-61.5C36.18-61.5 34.99-61.01 34.04-60.04C33.08-59.07 32.61-57.89 32.61-56.5C32.61-55.11 33.08-53.93 34.04-52.96C34.99-51.99 36.18-51.5 37.6-51.5ZM37.6-29.96C38.99-29.96 40.17-30.46 41.16-31.46C42.14-32.46 42.63-33.64 42.63-35.01C42.63-36.37 42.14-37.56 41.16-38.56C40.17-39.55 38.99-40.05 37.6-40.05C36.18-40.05 34.99-39.56 34.04-38.57C33.08-37.58 32.61-36.4 32.61-35.01C32.61-33.62 33.08-32.43 34.04-31.44C34.99-30.46 36.18-29.96 37.6-29.96ZM37.6-8.52C38.99-8.52 40.17-9.01 41.16-9.98C42.14-10.95 42.63-12.13 42.63-13.52C42.63-14.88 42.14-16.06 41.16-17.04C40.17-18.02 38.99-18.51 37.6-18.51C36.18-18.51 34.99-18.03 34.04-17.05C33.08-16.08 32.61-14.9 32.61-13.52C32.61-12.13 33.08-10.95 34.04-9.98C34.99-9.01 36.18-8.52 37.6-8.52Z"/>
  </g>
  <g id="Thin-L" transform="matrix(1 0 0 1 788.506 1556)">
   <path d="M29.096 20.47L106.725 20.47C112.194 20.47 116.334 19.04 119.146 16.18C121.956 13.31 123.362 9.2 123.362 3.84L123.362-73.89C123.362-79.25 121.956-83.35 119.146-86.18C116.334-89.02 112.194-90.44 106.725-90.44L29.096-90.44C23.629-90.44 19.49-89.03 16.678-86.22C13.866-83.41 12.46-79.3 12.46-73.89L12.46 3.84C12.46 9.31 13.866 13.44 16.678 16.25C19.49 19.06 23.629 20.47 29.096 20.47ZM29.257 16.55C25.021 16.55 21.815 15.46 19.64 13.29C17.465 11.11 16.377 7.91 16.377 3.66L16.377-73.63C16.377-77.87 17.465-81.08 19.64-83.26C21.815-85.43 25.021-86.52 29.257-86.52L106.564-86.52C110.698-86.52 113.878-85.43 116.105-83.26C118.331-81.08 119.445-77.87 119.445-73.63L119.445 3.66C119.445 7.91 118.331 11.11 116.105 13.29C113.878 15.46 110.698 16.55 106.564 16.55L29.257 16.55ZM50.748-55.18L102.792-55.18C103.301-55.18 103.738-55.36 104.105-55.73C104.472-56.09 104.655-56.53 104.655-57.04C104.655-57.6 104.472-58.05 104.105-58.39C103.738-58.73 103.301-58.9 102.792-58.9L50.748-58.9C50.239-58.9 49.802-58.72 49.435-58.36C49.069-57.99 48.885-57.55 48.885-57.04C48.885-56.53 49.069-56.09 49.435-55.73C49.802-55.36 50.239-55.18 50.748-55.18ZM50.748-11.22L102.792-11.22C103.301-11.22 103.738-11.39 104.105-11.73C104.472-12.07 104.655-12.52 104.655-13.08C104.655-13.59 104.472-14.03 104.105-14.39C103.738-14.76 103.301-14.94 102.792-14.94L50.748-14.94C50.239-14.94 49.802-14.76 49.435-14.39C49.069-14.03 48.885-13.59 48.885-13.08C48.885-12.57 49.069-12.13 49.435-11.76C49.802-11.4 50.239-11.22 50.748-11.22ZM50.748-33.27L102.792-33.27C103.301-33.27 103.738-33.43 104.105-33.75C104.472-34.06 104.655-34.5 104.655-35.06C104.655-35.62 104.472-36.06 104.105-36.37C103.738-36.69 103.301-36.85 102.792-36.85L50.748-36.85C50.239-36.85 49.802-36.67 49.435-36.33C49.069-35.99 48.885-35.57 48.885-35.06C48.885-34.55 49.069-34.13 49.435-33.79C49.802-33.44 50.239-33.27 50.748-33.27ZM35.855-52.34C37.152-52.34 38.26-52.8 39.178-53.72C40.097-54.64 40.556-55.75 40.556-57.04C40.556-58.34 40.097-59.44 39.178-60.36C38.26-61.28 37.152-61.74 35.855-61.74C34.507-61.74 33.387-61.28 32.495-60.36C31.604-59.44 31.158-58.34 31.158-57.04C31.158-55.74 31.604-54.64 32.495-53.72C33.387-52.8 34.507-52.34 35.855-52.34ZM35.855-30.28C37.152-30.28 38.26-30.76 39.178-31.7C40.097-32.65 40.556-33.77 40.556-35.06C40.556-36.35 40.097-37.47 39.178-38.42C38.26-39.36 37.152-39.83 35.855-39.83C34.507-39.83 33.387-39.36 32.495-38.42C31.604-37.48 31.158-36.36 31.158-35.06C31.158-33.76 31.604-32.64 32.495-31.7C33.387-30.76 34.507-30.28 35.855-30.28ZM35.855-8.38C37.152-8.38 38.26-8.84 39.178-9.76C40.097-10.68 40.556-11.78 40.556-13.08C40.556-14.37 40.097-15.48 39.178-16.4C38.26-17.32 37.152-17.78 35.855-17.78C34.507-17.78 33.387-17.32 32.495-16.4C31.604-15.48 31.158-14.38 31.158-13.08C31.158-11.78 31.604-10.68 32.495-9.76C33.387-8.84 34.507-8.38 35.855-8.38Z"/>
  </g>
  <g id="Ultralight-L" transform="matrix(1 0 0 1 492.358 1556)">
   <path d="M28.402 19.89L106.294 19.89C111.513 19.89 115.475 18.51 118.179 15.74C120.884 12.97 122.236 9.03 122.236 3.92L122.236-73.99C122.236-79.1 120.884-83.02 118.179-85.76C115.475-88.5 111.513-89.87 106.294-89.87L28.402-89.87C23.175-89.87 19.212-88.52 16.511-85.81C13.81-83.1 12.46-79.16 12.46-73.99L12.46 3.92C12.46 9.15 13.81 13.12 16.511 15.83C19.212 18.54 23.175 19.89 28.402 19.89ZM28.563 17.36C24.085 17.36 20.705 16.22 18.424 13.93C16.142 11.64 15.001 8.27 15.001 3.81L15.001-73.79C15.001-78.25 16.142-81.63 18.424-83.91C20.705-86.2 24.085-87.34 28.563-87.34L106.133-87.34C110.489-87.34 113.838-86.2 116.181-83.91C118.524-81.63 119.695-78.25 119.695-73.79L119.695 3.81C119.695 8.27 118.524 11.64 116.181 13.93C113.838 16.22 110.489 17.36 106.133 17.36L28.563 17.36ZM49.782-55.89L102.882-55.89C103.27-55.89 103.606-56.03 103.889-56.32C104.172-56.6 104.313-56.93 104.313-57.32C104.313-57.76 104.172-58.11 103.889-58.37C103.606-58.63 103.27-58.75 102.882-58.75L49.782-58.75C49.394-58.75 49.058-58.61 48.775-58.32C48.492-58.04 48.35-57.7 48.35-57.32C48.35-56.93 48.492-56.6 48.775-56.32C49.058-56.03 49.394-55.89 49.782-55.89ZM49.782-11.43L102.882-11.43C103.27-11.43 103.606-11.56 103.889-11.81C104.172-12.07 104.313-12.42 104.313-12.86C104.313-13.25 104.172-13.58 103.889-13.87C103.606-14.15 103.27-14.29 102.882-14.29L49.782-14.29C49.394-14.29 49.058-14.15 48.775-13.87C48.492-13.58 48.35-13.25 48.35-12.86C48.35-12.48 48.492-12.15 48.775-11.86C49.058-11.57 49.394-11.43 49.782-11.43ZM49.782-33.75L102.882-33.75C103.27-33.75 103.606-33.86 103.889-34.08C104.172-34.31 104.313-34.64 104.313-35.09C104.313-35.53 104.172-35.87 103.889-36.09C103.606-36.32 103.27-36.43 102.882-36.43L49.782-36.43C49.394-36.43 49.058-36.31 48.775-36.05C48.492-35.8 48.35-35.48 48.35-35.09C48.35-34.7 48.492-34.38 48.775-34.13C49.058-33.88 49.394-33.75 49.782-33.75ZM34.959-52.78C36.209-52.78 37.277-53.22 38.163-54.11C39.049-54.99 39.492-56.06 39.492-57.32C39.492-58.57 39.049-59.64 38.163-60.53C37.277-61.42 36.209-61.87 34.959-61.87C33.647-61.87 32.562-61.42 31.703-60.53C30.844-59.64 30.414-58.57 30.414-57.32C30.414-56.07 30.844-55 31.703-54.11C32.562-53.22 33.647-52.78 34.959-52.78ZM34.959-30.46C36.209-30.46 37.277-30.91 38.163-31.83C39.049-32.75 39.492-33.83 39.492-35.09C39.492-36.35 39.049-37.44 38.163-38.35C37.277-39.27 36.209-39.73 34.959-39.73C33.647-39.73 32.562-39.27 31.703-38.35C30.844-37.43 30.414-36.34 30.414-35.09C30.414-33.84 30.844-32.76 31.703-31.84C32.562-30.92 33.647-30.46 34.959-30.46ZM34.959-8.32C36.209-8.32 37.277-8.76 38.163-9.65C39.049-10.54 39.492-11.61 39.492-12.86C39.492-14.12 39.049-15.19 38.163-16.08C37.277-16.96 36.209-17.41 34.959-17.41C33.647-17.41 32.562-16.96 31.703-16.07C30.844-15.18 30.414-14.11 30.414-12.86C30.414-11.61 30.844-10.54 31.703-9.65C32.562-8.76 33.647-8.32 34.959-8.32Z"/>
  </g>
  <g id="Black-M" transform="matrix(1 0 0 1 2872.54 1126)">
   <path d="M31.62 13.21L90.1 13.21C96.15 13.21 100.85 11.53 104.21 8.16C107.58 4.8 109.26 0.1 109.26-5.94L109.26-64.46C109.26-70.49 107.58-75.19 104.21-78.56C100.85-81.92 96.15-83.6 90.1-83.6L31.62-83.6C25.58-83.6 20.87-81.92 17.51-78.56C14.14-75.19 12.46-70.49 12.46-64.46L12.46-5.94C12.46 0.1 14.14 4.8 17.51 8.16C20.87 11.52 25.58 13.21 31.62 13.21ZM34.26-4.14C32.78-4.14 31.67-4.48 30.92-5.17C30.17-5.85 29.8-7 29.8-8.6L29.8-61.79C29.8-63.43 30.17-64.58 30.92-65.25C31.67-65.92 32.78-66.25 34.26-66.25L87.46-66.25C88.98-66.25 90.1-65.92 90.83-65.25C91.56-64.58 91.92-63.43 91.92-61.79L91.92-8.6C91.92-7 91.56-5.85 90.83-5.17C90.1-4.48 88.98-4.14 87.46-4.14L34.26-4.14ZM80.81-44.95L53.86-44.95C52.83-44.95 51.93-45.33 51.17-46.09C50.41-46.85 50.03-47.76 50.03-48.83C50.03-49.9 50.4-50.82 51.14-51.57C51.88-52.33 52.79-52.71 53.86-52.71L80.81-52.71C81.87-52.71 82.79-52.33 83.55-51.57C84.31-50.82 84.69-49.9 84.69-48.83C84.69-47.76 84.31-46.85 83.55-46.09C82.79-45.33 81.87-44.95 80.81-44.95ZM80.81-17.74L53.86-17.74C52.83-17.74 51.93-18.12 51.17-18.88C50.41-19.63 50.03-20.55 50.03-21.62C50.03-22.69 50.41-23.6 51.17-24.36C51.93-25.12 52.83-25.5 53.86-25.5L80.81-25.5C81.87-25.5 82.79-25.12 83.55-24.36C84.31-23.6 84.69-22.69 84.69-21.62C84.69-20.55 84.31-19.63 83.55-18.88C82.79-18.12 81.87-17.74 80.81-17.74ZM80.81-31.34L53.86-31.34C52.83-31.34 51.93-31.72 51.17-32.48C50.41-33.24 50.03-34.16 50.03-35.22C50.03-36.29 50.4-37.21 51.14-37.97C51.88-38.73 52.79-39.11 53.86-39.11L80.81-39.11C81.87-39.11 82.79-38.73 83.55-37.97C84.31-37.21 84.69-36.3 84.69-35.22C84.69-34.16 84.31-33.24 83.55-32.48C82.79-31.72 81.87-31.34 80.81-31.34ZM45.48-45.46C44.53-44.5 43.4-44.01 42.08-44.01C40.79-44.01 39.67-44.49 38.71-45.46C37.74-46.42 37.26-47.55 37.26-48.83C37.26-50.15 37.74-51.28 38.71-52.23C39.67-53.17 40.79-53.64 42.08-53.64C43.4-53.64 44.53-53.17 45.48-52.23C46.42-51.28 46.9-50.15 46.9-48.83C46.9-47.55 46.42-46.43 45.48-45.46ZM45.48-31.86C44.53-30.89 43.4-30.41 42.08-30.41C40.79-30.41 39.67-30.89 38.71-31.86C37.74-32.82 37.26-33.94 37.26-35.22C37.26-36.54 37.74-37.68 38.71-38.62C39.67-39.57 40.79-40.04 42.08-40.04C43.4-40.04 44.53-39.57 45.48-38.62C46.42-37.67 46.9-36.54 46.9-35.22C46.9-33.95 46.42-32.82 45.48-31.86ZM45.48-18.25C44.53-17.29 43.4-16.8 42.08-16.8C40.79-16.8 39.67-17.29 38.71-18.25C37.74-19.22 37.26-20.34 37.26-21.62C37.26-22.94 37.74-24.07 38.71-25.02C39.67-25.96 40.79-26.44 42.08-26.44C43.4-26.44 44.53-25.96 45.48-25.02C46.42-24.07 46.9-22.94 46.9-21.62C46.9-20.34 46.42-19.22 45.48-18.25Z"/>
  </g>
  <g id="Heavy-M" transform="matrix(1 0 0 1 2576.64 1126)">
   <path d="M30.71 12.4L89.37 12.4C95.19 12.4 99.69 10.81 102.86 7.64C106.04 4.48 107.62-0.01 107.62-5.81L107.62-64.58C107.62-70.38 106.04-74.86 102.86-78.03C99.69-81.2 95.19-82.78 89.37-82.78L30.71-82.78C24.9-82.78 20.4-81.2 17.23-78.03C14.05-74.87 12.46-70.38 12.46-64.58L12.46-5.81C12.46 0 14.05 4.48 17.23 7.65C20.4 10.81 24.9 12.4 30.71 12.4ZM32.76-2.72C31.05-2.72 29.76-3.13 28.88-3.96C28-4.78 27.56-6.11 27.56-7.93L27.56-62.45C27.56-64.29 28-65.62 28.88-66.44C29.76-67.26 31.05-67.67 32.76-67.67L87.33-67.67C89.05-67.67 90.35-67.26 91.22-66.44C92.09-65.62 92.52-64.29 92.52-62.45L92.52-7.93C92.52-6.11 92.09-4.78 91.22-3.96C90.35-3.13 89.05-2.72 87.33-2.72L32.76-2.72ZM81.03-45.67L51.8-45.67C50.82-45.67 49.97-46.03 49.25-46.74C48.54-47.46 48.18-48.32 48.18-49.33C48.18-50.35 48.53-51.22 49.23-51.93C49.93-52.64 50.79-52.99 51.8-52.99L81.03-52.99C82.04-52.99 82.9-52.64 83.62-51.93C84.33-51.22 84.69-50.35 84.69-49.33C84.69-48.32 84.33-47.46 83.62-46.74C82.9-46.03 82.04-45.67 81.03-45.67ZM81.03-17.26L51.8-17.26C50.82-17.26 49.97-17.61 49.25-18.32C48.54-19.04 48.18-19.9 48.18-20.92C48.18-21.93 48.54-22.79 49.25-23.51C49.97-24.22 50.82-24.58 51.8-24.58L81.03-24.58C82.04-24.58 82.9-24.22 83.62-23.51C84.33-22.79 84.69-21.93 84.69-20.92C84.69-19.9 84.33-19.03 83.62-18.32C82.9-17.61 82.04-17.26 81.03-17.26ZM81.03-31.47L51.8-31.47C50.82-31.47 49.97-31.82 49.25-32.54C48.54-33.25 48.18-34.12 48.18-35.13C48.18-36.13 48.53-37 49.23-37.71C49.93-38.43 50.79-38.79 51.8-38.79L81.03-38.79C82.04-38.79 82.9-38.43 83.62-37.72C84.33-37.01 84.69-36.15 84.69-35.13C84.69-34.12 84.33-33.25 83.62-32.54C82.9-31.82 82.04-31.47 81.03-31.47ZM43.32-46.07C42.4-45.13 41.3-44.67 40.01-44.67C38.76-44.67 37.67-45.13 36.74-46.06C35.81-46.99 35.35-48.08 35.35-49.33C35.35-50.62 35.81-51.71 36.74-52.63C37.67-53.54 38.76-54 40.01-54C41.3-54 42.4-53.54 43.32-52.63C44.24-51.71 44.7-50.62 44.7-49.33C44.7-48.09 44.24-47 43.32-46.07ZM43.32-31.86C42.4-30.93 41.3-30.46 40.01-30.46C38.76-30.46 37.67-30.92 36.74-31.85C35.81-32.78 35.35-33.87 35.35-35.13C35.35-36.41 35.81-37.51 36.74-38.42C37.67-39.34 38.76-39.79 40.01-39.79C41.3-39.79 42.4-39.33 43.32-38.41C44.24-37.49 44.7-36.4 44.7-35.13C44.7-33.88 44.24-32.79 43.32-31.86ZM43.32-17.65C42.4-16.72 41.3-16.26 40.01-16.26C38.76-16.26 37.67-16.72 36.74-17.65C35.81-18.57 35.35-19.67 35.35-20.92C35.35-22.2 35.81-23.3 36.74-24.22C37.67-25.13 38.76-25.59 40.01-25.59C41.3-25.59 42.4-25.13 43.32-24.21C44.24-23.29 44.7-22.19 44.7-20.92C44.7-19.67 44.24-18.57 43.32-17.65Z"/>
  </g>
  <g id="Bold-M" transform="matrix(1 0 0 1 2280.85 1126)">
   <path d="M29.7 11.49L88.55 11.49C94.13 11.49 98.4 10.01 101.35 7.06C104.31 4.11 105.79-0.13 105.79-5.67L105.79-64.72C105.79-70.26 104.31-74.5 101.35-77.45C98.4-80.4 94.13-81.87 88.55-81.87L29.7-81.87C24.14-81.87 19.88-80.4 16.91-77.45C13.94-74.5 12.46-70.26 12.46-64.72L12.46-5.67C12.46-0.13 13.94 4.12 16.91 7.06C19.88 10.01 24.14 11.49 29.7 11.49ZM31.08-1.14C29.12-1.14 27.63-1.63 26.6-2.61C25.57-3.59 25.05-5.12 25.05-7.19L25.05-63.19C25.05-65.27 25.57-66.79 26.6-67.78C27.63-68.76 29.12-69.25 31.08-69.25L87.17-69.25C89.14-69.25 90.64-68.76 91.66-67.78C92.68-66.79 93.2-65.27 93.2-63.19L93.2-7.19C93.2-5.12 92.68-3.59 91.66-2.61C90.64-1.63 89.14-1.14 87.17-1.14L31.08-1.14ZM81.46-46.59L49.68-46.59C48.75-46.59 47.96-46.92 47.29-47.59C46.62-48.26 46.29-49.06 46.29-50C46.29-50.97 46.62-51.78 47.28-52.43C47.93-53.09 48.73-53.42 49.68-53.42L81.46-53.42C82.41-53.42 83.21-53.09 83.88-52.44C84.55-51.78 84.88-50.97 84.88-50C84.88-49.06 84.55-48.26 83.88-47.59C83.21-46.92 82.41-46.59 81.46-46.59ZM81.46-16.83L49.68-16.83C48.75-16.83 47.96-17.16 47.29-17.82C46.62-18.48 46.29-19.29 46.29-20.25C46.29-21.19 46.62-21.99 47.29-22.66C47.96-23.33 48.75-23.66 49.68-23.66L81.46-23.66C82.41-23.66 83.21-23.33 83.88-22.66C84.55-21.99 84.88-21.19 84.88-20.25C84.88-19.28 84.55-18.47 83.88-17.82C83.21-17.16 82.41-16.83 81.46-16.83ZM81.46-31.71L49.68-31.71C48.75-31.71 47.96-32.05 47.29-32.71C46.62-33.38 46.29-34.18 46.29-35.13C46.29-36.07 46.62-36.87 47.28-37.54C47.93-38.2 48.73-38.54 49.68-38.54L81.46-38.54C82.41-38.54 83.21-38.21 83.88-37.55C84.55-36.9 84.88-36.09 84.88-35.13C84.88-34.18 84.55-33.38 83.88-32.71C83.21-32.05 82.41-31.71 81.46-31.71ZM41.09-46.85C40.2-45.96 39.14-45.51 37.9-45.51C36.67-45.51 35.61-45.95 34.73-46.84C33.84-47.73 33.4-48.78 33.4-50C33.4-51.25 33.84-52.31 34.73-53.18C35.61-54.06 36.67-54.5 37.9-54.5C39.14-54.5 40.2-54.06 41.09-53.18C41.98-52.31 42.42-51.25 42.42-50C42.42-48.8 41.98-47.75 41.09-46.85ZM41.09-31.97C40.2-31.07 39.14-30.63 37.9-30.63C36.67-30.63 35.61-31.07 34.73-31.96C33.84-32.85 33.4-33.9 33.4-35.13C33.4-36.37 33.84-37.43 34.73-38.31C35.61-39.19 36.67-39.63 37.9-39.63C39.14-39.63 40.2-39.18 41.09-38.29C41.98-37.41 42.42-36.35 42.42-35.13C42.42-33.92 41.98-32.87 41.09-31.97ZM41.09-17.08C40.2-16.19 39.14-15.75 37.9-15.75C36.67-15.75 35.61-16.19 34.73-17.08C33.84-17.97 33.4-19.02 33.4-20.25C33.4-21.49 33.84-22.55 34.73-23.43C35.61-24.3 36.67-24.74 37.9-24.74C39.14-24.74 40.2-24.3 41.09-23.41C41.98-22.53 42.42-21.47 42.42-20.25C42.42-19.02 41.98-17.97 41.09-17.08Z"/>
  </g>
  <g id="Semibold-M" transform="matrix(1 0 0 1 1984.77 1126)">
   <path d="M29 10.86L87.99 10.86C93.39 10.86 97.5 9.46 100.31 6.66C103.12 3.86 104.53-0.22 104.53-5.57L104.53-64.82C104.53-70.17 103.12-74.24 100.31-77.04C97.5-79.84 93.39-81.24 87.99-81.24L29-81.24C23.62-81.24 19.51-79.84 16.69-77.05C13.87-74.25 12.46-70.17 12.46-64.82L12.46-5.57C12.46-0.21 13.87 3.87 16.69 6.66C19.51 9.46 23.62 10.86 29 10.86ZM29.93-0.04C27.79-0.04 26.16-0.59 25.03-1.68C23.89-2.77 23.33-4.43 23.33-6.68L23.33-63.71C23.33-65.94 23.89-67.6 25.03-68.69C26.16-69.79 27.79-70.34 29.93-70.34L87.06-70.34C89.2-70.34 90.83-69.79 91.96-68.69C93.09-67.6 93.66-65.94 93.66-63.71L93.66-6.68C93.66-4.43 93.09-2.77 91.96-1.68C90.83-0.59 89.2-0.04 87.06-0.04L29.93-0.04ZM81.74-47.27L48.19-47.27C47.31-47.27 46.55-47.59 45.91-48.22C45.28-48.86 44.96-49.62 44.96-50.52C44.96-51.44 45.28-52.21 45.9-52.83C46.53-53.46 47.29-53.77 48.19-53.77L81.74-53.77C82.63-53.77 83.4-53.46 84.03-52.84C84.67-52.22 84.98-51.45 84.98-50.52C84.98-49.62 84.67-48.86 84.03-48.22C83.4-47.59 82.63-47.27 81.74-47.27ZM81.74-16.59L48.19-16.59C47.31-16.59 46.55-16.9 45.91-17.52C45.28-18.14 44.96-18.91 44.96-19.83C44.96-20.73 45.28-21.49 45.91-22.13C46.55-22.76 47.31-23.08 48.19-23.08L81.74-23.08C82.63-23.08 83.4-22.76 84.03-22.13C84.67-21.49 84.98-20.73 84.98-19.83C84.98-18.91 84.67-18.14 84.03-17.52C83.4-16.9 82.63-16.59 81.74-16.59ZM81.74-31.94L48.19-31.94C47.31-31.94 46.55-32.25 45.91-32.89C45.28-33.52 44.96-34.28 44.96-35.18C44.96-36.07 45.28-36.84 45.9-37.47C46.53-38.1 47.29-38.42 48.19-38.42L81.74-38.42C82.63-38.42 83.4-38.11 84.03-37.49C84.67-36.87 84.98-36.1 84.98-35.18C84.98-34.28 84.67-33.51 84.03-32.88C83.4-32.25 82.63-31.94 81.74-31.94ZM39.53-47.45C38.66-46.58 37.62-46.14 36.41-46.14C35.2-46.14 34.17-46.57 33.31-47.43C32.46-48.29 32.03-49.32 32.03-50.52C32.03-51.74 32.46-52.77 33.31-53.62C34.17-54.47 35.2-54.9 36.41-54.9C37.62-54.9 38.66-54.47 39.53-53.62C40.39-52.77 40.82-51.74 40.82-50.52C40.82-49.34 40.39-48.32 39.53-47.45ZM39.53-32.1C38.66-31.23 37.62-30.79 36.41-30.79C35.2-30.79 34.17-31.22 33.31-32.08C32.46-32.94 32.03-33.97 32.03-35.18C32.03-36.39 32.46-37.43 33.31-38.28C34.17-39.14 35.2-39.56 36.41-39.56C37.62-39.56 38.66-39.13 39.53-38.26C40.39-37.4 40.82-36.37 40.82-35.18C40.82-34 40.39-32.97 39.53-32.1ZM39.53-16.74C38.66-15.88 37.62-15.46 36.41-15.46C35.2-15.46 34.17-15.88 33.31-16.74C32.46-17.6 32.03-18.63 32.03-19.83C32.03-21.05 32.46-22.08 33.31-22.93C34.17-23.79 35.2-24.21 36.41-24.21C37.62-24.21 38.66-23.78 39.53-22.92C40.39-22.05 40.82-21.02 40.82-19.83C40.82-18.63 40.39-17.6 39.53-16.74Z"/>
  </g>
  <g id="Medium-M" transform="matrix(1 0 0 1 1688.54 1126)">
   <path d="M28.47 10.39L87.56 10.39C92.84 10.39 96.83 9.04 99.52 6.36C102.22 3.67 103.57-0.28 103.57-5.49L103.57-64.89C103.57-70.1 102.22-74.05 99.52-76.73C96.83-79.42 92.84-80.76 87.56-80.76L28.47-80.76C23.22-80.76 19.24-79.42 16.53-76.74C13.82-74.06 12.46-70.11 12.46-64.89L12.46-5.49C12.46-0.27 13.82 3.68 16.53 6.37C19.24 9.05 23.22 10.39 28.47 10.39ZM29.05 0.79C26.78 0.79 25.04 0.2 23.83-0.97C22.62-2.14 22.02-3.91 22.02-6.28L22.02-64.09C22.02-66.44 22.62-68.21 23.83-69.39C25.04-70.57 26.78-71.16 29.05-71.16L86.98-71.16C89.24-71.16 90.98-70.57 92.19-69.39C93.41-68.21 94.01-66.44 94.01-64.09L94.01-6.28C94.01-3.91 93.41-2.14 92.19-0.97C90.98 0.2 89.24 0.79 86.98 0.79L29.05 0.79ZM81.91-47.84L47.03-47.84C46.18-47.84 45.45-48.14 44.84-48.75C44.23-49.36 43.92-50.1 43.92-50.96C43.92-51.85 44.23-52.59 44.83-53.18C45.44-53.78 46.17-54.07 47.03-54.07L81.91-54.07C82.78-54.07 83.51-53.78 84.12-53.19C84.73-52.6 85.03-51.85 85.03-50.96C85.03-50.1 84.73-49.36 84.12-48.75C83.51-48.14 82.78-47.84 81.91-47.84ZM81.91-16.45L47.03-16.45C46.18-16.45 45.45-16.75 44.84-17.34C44.23-17.93 43.92-18.68 43.92-19.57C43.92-20.43 44.23-21.16 44.84-21.77C45.45-22.38 46.18-22.68 47.03-22.68L81.91-22.68C82.78-22.68 83.51-22.38 84.12-21.77C84.73-21.16 85.03-20.43 85.03-19.57C85.03-18.67 84.73-17.93 84.12-17.34C83.51-16.74 82.78-16.45 81.91-16.45ZM81.91-32.15L47.03-32.15C46.18-32.15 45.45-32.46 44.84-33.06C44.23-33.67 43.92-34.4 43.92-35.26C43.92-36.12 44.23-36.86 44.83-37.46C45.44-38.07 46.17-38.37 47.03-38.37L81.91-38.37C82.78-38.37 83.51-38.08 84.12-37.49C84.73-36.9 85.03-36.16 85.03-35.26C85.03-34.39 84.73-33.66 84.12-33.06C83.51-32.45 82.78-32.15 81.91-32.15ZM38.31-47.94C37.46-47.09 36.44-46.67 35.25-46.67C34.06-46.67 33.04-47.08 32.21-47.92C31.38-48.76 30.96-49.77 30.96-50.96C30.96-52.15 31.38-53.16 32.21-54C33.04-54.83 34.06-55.25 35.25-55.25C36.44-55.25 37.46-54.83 38.31-54C39.16-53.16 39.58-52.15 39.58-50.96C39.58-49.8 39.16-48.79 38.31-47.94ZM38.31-32.24C37.46-31.39 36.44-30.96 35.25-30.96C34.06-30.96 33.04-31.38 32.21-32.22C31.38-33.06 30.96-34.07 30.96-35.26C30.96-36.46 31.38-37.47 32.21-38.31C33.04-39.14 34.06-39.56 35.25-39.56C36.44-39.56 37.46-39.14 38.31-38.29C39.16-37.43 39.58-36.43 39.58-35.26C39.58-34.1 39.16-33.1 38.31-32.24ZM38.31-16.53C37.46-15.69 36.44-15.28 35.25-15.28C34.06-15.28 33.04-15.69 32.21-16.53C31.38-17.37 30.96-18.38 30.96-19.57C30.96-20.76 31.38-21.77 32.21-22.61C33.04-23.44 34.06-23.86 35.25-23.86C36.44-23.86 37.46-23.43 38.31-22.59C39.16-21.74 39.58-20.73 39.58-19.57C39.58-18.38 39.16-17.37 38.31-16.53Z"/>
  </g>
  <g id="Regular-M" transform="matrix(1 0 0 1 1392.45 1126)">
   <path d="M27.78 9.77L87 9.77C92.11 9.77 95.94 8.5 98.49 5.96C101.04 3.42 102.32-0.37 102.32-5.4L102.32-64.98C102.32-70.01 101.04-73.8 98.49-76.33C95.94-78.87 92.11-80.14 87-80.14L27.78-80.14C22.7-80.14 18.88-78.87 16.31-76.34C13.74-73.81 12.46-70.02 12.46-64.98L12.46-5.4C12.46-0.35 13.74 3.44 16.31 5.97C18.88 8.5 22.7 9.77 27.78 9.77ZM27.91 1.87C25.47 1.87 23.59 1.23 22.28-0.05C20.97-1.33 20.31-3.24 20.31-5.78L20.31-64.59C20.31-67.1 20.97-69 22.28-70.3C23.59-71.59 25.47-72.24 27.91-72.24L86.87-72.24C89.3-72.24 91.17-71.59 92.49-70.3C93.81-69 94.47-67.1 94.47-64.59L94.47-5.78C94.47-3.24 93.81-1.33 92.49-0.05C91.17 1.23 89.3 1.87 86.87 1.87L27.91 1.87ZM82.13-47.38L45.51-47.38C44.69-47.38 43.99-47.66 43.42-48.24C42.84-48.81 42.55-49.51 42.55-50.33C42.55-51.18 42.84-51.88 43.42-52.44C43.99-53 44.69-53.28 45.51-53.28L82.13-53.28C82.95-53.28 83.64-53 84.22-52.44C84.79-51.89 85.08-51.18 85.08-50.33C85.08-49.51 84.79-48.81 84.22-48.24C83.64-47.66 82.95-47.38 82.13-47.38ZM82.13-15.07L45.51-15.07C44.69-15.07 43.99-15.35 43.42-15.9C42.84-16.46 42.55-17.17 42.55-18.02C42.55-18.83 42.84-19.53 43.42-20.1C43.99-20.68 44.69-20.97 45.51-20.97L82.13-20.97C82.95-20.97 83.64-20.68 84.22-20.1C84.79-19.53 85.08-18.83 85.08-18.02C85.08-17.16 84.79-16.45 84.22-15.9C83.64-15.34 82.95-15.07 82.13-15.07ZM82.13-31.23L45.51-31.23C44.69-31.23 43.99-31.52 43.42-32.09C42.84-32.66 42.55-33.36 42.55-34.17C42.55-34.99 42.84-35.68 43.42-36.25C43.99-36.82 44.69-37.11 45.51-37.11L82.13-37.11C82.95-37.11 83.64-36.84 84.22-36.28C84.79-35.73 85.08-35.03 85.08-34.17C85.08-33.35 84.79-32.65 84.22-32.08C83.64-31.52 82.95-31.23 82.13-31.23ZM36.71-47.39C35.89-46.56 34.89-46.15 33.72-46.15C32.55-46.15 31.56-46.56 30.76-47.36C29.95-48.17 29.55-49.16 29.55-50.33C29.55-51.49 29.95-52.48 30.76-53.29C31.56-54.1 32.55-54.5 33.72-54.5C34.89-54.5 35.89-54.1 36.71-53.29C37.54-52.48 37.95-51.49 37.95-50.33C37.95-49.19 37.54-48.21 36.71-47.39ZM36.71-31.23C35.89-30.4 34.89-29.99 33.72-29.99C32.55-29.99 31.56-30.39 30.76-31.2C29.95-32.02 29.55-33 29.55-34.17C29.55-35.34 29.95-36.33 30.76-37.14C31.56-37.95 32.55-38.36 33.72-38.36C34.89-38.36 35.89-37.94 36.71-37.11C37.54-36.29 37.95-35.3 37.95-34.17C37.95-33.04 37.54-32.06 36.71-31.23ZM36.71-15.06C35.89-14.25 34.89-13.84 33.72-13.84C32.55-13.84 31.56-14.25 30.76-15.06C29.95-15.86 29.55-16.85 29.55-18.02C29.55-19.18 29.95-20.17 30.76-20.98C31.56-21.79 32.55-22.19 33.72-22.19C34.89-22.19 35.89-21.78 36.71-20.95C37.54-20.13 37.95-19.15 37.95-18.02C37.95-16.85 37.54-15.86 36.71-15.06Z"/>
  </g>
  <g id="Light-M" transform="matrix(1 0 0 1 1096.48 1126)">
   <path d="M26.86 9.03L86.43 9.03C91.21 9.03 94.81 7.82 97.22 5.41C99.62 2.99 100.83-0.57 100.83-5.27L100.83-65.09C100.83-69.79 99.62-73.35 97.22-75.75C94.81-78.16 91.21-79.37 86.43-79.37L26.86-79.37C22.1-79.37 18.51-78.17 16.09-75.77C13.67-73.37 12.46-69.81 12.46-65.09L12.46-5.27C12.46-0.53 13.67 3.04 16.09 5.44C18.51 7.83 22.1 9.03 26.86 9.03ZM26.99 2.97C24.23 2.97 22.12 2.26 20.67 0.83C19.21-0.6 18.49-2.73 18.49-5.56L18.49-64.78C18.49-67.58 19.21-69.7 20.67-71.14C22.12-72.59 24.23-73.31 26.99-73.31L86.3-73.31C89.02-73.31 91.12-72.59 92.59-71.14C94.07-69.7 94.8-67.58 94.8-64.78L94.8-5.56C94.8-2.73 94.07-0.6 92.59 0.83C91.12 2.26 89.02 2.97 86.3 2.97L26.99 2.97ZM82.29-49.14L44.27-49.14C43.61-49.14 43.05-49.38 42.59-49.84C42.12-50.31 41.89-50.87 41.89-51.52C41.89-52.2 42.12-52.77 42.59-53.22C43.05-53.68 43.61-53.9 44.27-53.9L82.29-53.9C82.95-53.9 83.51-53.68 83.98-53.24C84.44-52.79 84.67-52.22 84.67-51.52C84.67-50.87 84.44-50.31 83.98-49.84C83.51-49.38 82.95-49.14 82.29-49.14ZM82.29-16.17L44.27-16.17C43.61-16.17 43.05-16.4 42.59-16.86C42.12-17.31 41.89-17.88 41.89-18.55C41.89-19.21 42.12-19.77 42.59-20.24C43.05-20.7 43.61-20.93 44.27-20.93L82.29-20.93C82.95-20.93 83.51-20.7 83.98-20.24C84.44-19.77 84.67-19.21 84.67-18.55C84.67-17.86 84.44-17.28 83.98-16.84C83.51-16.4 82.95-16.17 82.29-16.17ZM82.29-32.69L44.27-32.69C43.61-32.69 43.05-32.92 42.59-33.37C42.12-33.83 41.89-34.38 41.89-35.04C41.89-35.69 42.12-36.25 42.59-36.71C43.05-37.16 43.61-37.39 44.27-37.39L82.29-37.39C82.95-37.39 83.51-37.17 83.98-36.74C84.44-36.3 84.67-35.74 84.67-35.04C84.67-34.36 84.44-33.8 83.98-33.36C83.51-32.91 82.95-32.69 82.29-32.69ZM35.41-48.73C34.63-47.94 33.69-47.55 32.58-47.55C31.46-47.55 30.51-47.94 29.75-48.71C28.99-49.48 28.61-50.42 28.61-51.52C28.61-52.63 28.99-53.57 29.75-54.34C30.51-55.11 31.46-55.5 32.58-55.5C33.69-55.5 34.63-55.11 35.41-54.34C36.2-53.57 36.59-52.63 36.59-51.52C36.59-50.44 36.2-49.51 35.41-48.73ZM35.41-32.23C34.63-31.43 33.69-31.04 32.58-31.04C31.46-31.04 30.51-31.43 29.75-32.21C28.99-32.99 28.61-33.93 28.61-35.04C28.61-36.14 28.99-37.09 29.75-37.87C30.51-38.65 31.46-39.04 32.58-39.04C33.69-39.04 34.63-38.64 35.41-37.85C36.2-37.06 36.59-36.12 36.59-35.04C36.59-33.96 36.2-33.02 35.41-32.23ZM35.41-15.74C34.63-14.97 33.69-14.58 32.58-14.58C31.46-14.58 30.51-14.97 29.75-15.74C28.99-16.51 28.61-17.45 28.61-18.55C28.61-19.66 28.99-20.6 29.75-21.37C30.51-22.14 31.46-22.53 32.58-22.53C33.69-22.53 34.63-22.13 35.41-21.35C36.2-20.57 36.59-19.64 36.59-18.55C36.59-17.45 36.2-16.51 35.41-15.74Z"/>
  </g>
  <g id="Thin-M" transform="matrix(1 0 0 1 800.759 1126)">
   <path d="M25.644 8.06L85.674 8.06C90.017 8.06 93.3 6.93 95.523 4.67C97.746 2.42 98.857-0.84 98.857-5.1L98.857-65.24C98.857-69.5 97.746-72.75 95.523-74.99C93.3-77.23 90.017-78.35 85.674-78.35L25.644-78.35C21.306-78.35 18.024-77.24 15.798-75.02C13.573-72.8 12.46-69.54 12.46-65.24L12.46-5.1C12.46-0.77 13.573 2.51 15.798 4.73C18.024 6.95 21.306 8.06 25.644 8.06ZM25.768 4.43C22.588 4.43 20.178 3.61 18.538 1.98C16.898 0.35 16.078-2.07 16.078-5.27L16.078-65.02C16.078-68.21 16.898-70.63 18.538-72.27C20.178-73.9 22.588-74.72 25.768-74.72L85.549-74.72C88.657-74.72 91.049-73.9 92.725-72.27C94.401-70.63 95.239-68.21 95.239-65.02L95.239-5.27C95.239-2.07 94.401 0.35 92.725 1.98C91.049 3.61 88.657 4.43 85.549 4.43L25.768 4.43ZM82.384-50.47L42.511-50.47C42.066-50.47 41.683-50.63 41.364-50.95C41.045-51.27 40.885-51.65 40.885-52.1C40.885-52.55 41.045-52.93 41.364-53.25C41.683-53.56 42.066-53.72 42.511-53.72L82.384-53.72C82.829-53.72 83.211-53.57 83.53-53.27C83.85-52.98 84.009-52.58 84.009-52.1C84.009-51.65 83.85-51.27 83.53-50.95C83.211-50.63 82.829-50.47 82.384-50.47ZM82.384-16.62L42.511-16.62C42.066-16.62 41.683-16.78 41.364-17.1C41.045-17.42 40.885-17.8 40.885-18.25C40.885-18.69 41.045-19.08 41.364-19.4C41.683-19.72 42.066-19.88 42.511-19.88L82.384-19.88C82.829-19.88 83.211-19.72 83.53-19.4C83.85-19.08 84.009-18.69 84.009-18.25C84.009-17.76 83.85-17.37 83.53-17.07C83.211-16.77 82.829-16.62 82.384-16.62ZM82.384-33.6L42.511-33.6C42.066-33.6 41.683-33.75 41.364-34.05C41.045-34.35 40.885-34.73 40.885-35.17C40.885-35.62 41.045-35.99 41.364-36.29C41.683-36.59 42.066-36.74 42.511-36.74L82.384-36.74C82.829-36.74 83.211-36.6 83.53-36.32C83.85-36.04 84.009-35.66 84.009-35.17C84.009-34.69 83.85-34.31 83.53-34.03C83.211-33.74 82.829-33.6 82.384-33.6ZM33.568-49.48C32.842-48.76 31.967-48.39 30.943-48.39C29.883-48.39 29-48.75 28.296-49.48C27.591-50.2 27.239-51.07 27.239-52.1C27.239-53.12 27.591-53.99 28.296-54.72C29-55.44 29.883-55.8 30.943-55.8C31.967-55.8 32.842-55.44 33.568-54.72C34.293-53.99 34.656-53.12 34.656-52.1C34.656-51.08 34.293-50.21 33.568-49.48ZM33.568-32.53C32.842-31.79 31.967-31.41 30.943-31.41C29.883-31.41 29-31.79 28.296-32.53C27.591-33.27 27.239-34.15 27.239-35.17C27.239-36.2 27.591-37.08 28.296-37.82C29-38.56 29.883-38.93 30.943-38.93C31.967-38.93 32.842-38.56 33.568-37.82C34.293-37.07 34.656-36.19 34.656-35.17C34.656-34.15 34.293-33.27 33.568-32.53ZM33.568-15.63C32.842-14.91 31.967-14.55 30.943-14.55C29.883-14.55 29-14.91 28.296-15.63C27.591-16.35 27.239-17.23 27.239-18.25C27.239-19.27 27.591-20.15 28.296-20.87C29-21.59 29.883-21.95 30.943-21.95C31.967-21.95 32.842-21.59 33.568-20.87C34.293-20.14 34.656-19.27 34.656-18.25C34.656-17.23 34.293-16.35 33.568-15.63Z"/>
  </g>
  <g id="Ultralight-M" transform="matrix(1 0 0 1 504.552 1126)">
   <path d="M25.02 7.56L85.287 7.56C89.406 7.56 92.529 6.47 94.657 4.3C96.784 2.13 97.848-0.98 97.848-5.01L97.848-65.32C97.848-69.35 96.784-72.45 94.657-74.6C92.529-76.75 89.406-77.82 85.287-77.82L25.02-77.82C20.899-77.82 17.775-76.76 15.649-74.63C13.523-72.5 12.46-69.4 12.46-65.32L12.46-5.01C12.46-0.89 13.523 2.24 15.649 4.37C17.775 6.5 20.899 7.56 25.02 7.56ZM25.145 5.18C21.749 5.18 19.183 4.31 17.447 2.57C15.712 0.83 14.844-1.73 14.844-5.12L14.844-65.15C14.844-68.54 15.712-71.1 17.447-72.84C19.183-74.58 21.749-75.44 25.145-75.44L85.163-75.44C88.47-75.44 91.014-74.58 92.794-72.84C94.574-71.1 95.464-68.54 95.464-65.15L95.464-5.12C95.464-1.73 94.574 0.83 92.794 2.57C91.014 4.31 88.47 5.18 85.163 5.18L25.145 5.18ZM82.488-50.99L41.668-50.99C41.331-50.99 41.04-51.12 40.796-51.36C40.551-51.61 40.429-51.9 40.429-52.23C40.429-52.57 40.551-52.86 40.796-53.1C41.04-53.35 41.331-53.47 41.668-53.47L82.488-53.47C82.825-53.47 83.116-53.36 83.361-53.14C83.605-52.91 83.728-52.61 83.728-52.23C83.728-51.9 83.605-51.61 83.361-51.36C83.116-51.12 82.825-50.99 82.488-50.99ZM82.488-16.7L41.668-16.7C41.331-16.7 41.04-16.82 40.796-17.07C40.551-17.31 40.429-17.6 40.429-17.94C40.429-18.28 40.551-18.57 40.796-18.81C41.04-19.06 41.331-19.18 41.668-19.18L82.488-19.18C82.825-19.18 83.116-19.06 83.361-18.81C83.605-18.57 83.728-18.28 83.728-17.94C83.728-17.56 83.605-17.26 83.361-17.03C83.116-16.81 82.825-16.7 82.488-16.7ZM82.488-33.91L41.668-33.91C41.331-33.91 41.04-34.02 40.796-34.25C40.551-34.47 40.429-34.75 40.429-35.09C40.429-35.42 40.551-35.7 40.796-35.93C41.04-36.15 41.331-36.26 41.668-36.26L82.488-36.26C82.825-36.26 83.116-36.16 83.361-35.96C83.605-35.75 83.728-35.46 83.728-35.09C83.728-34.7 83.605-34.41 83.361-34.21C83.116-34.01 82.825-33.91 82.488-33.91ZM32.681-49.71C31.985-49.01 31.146-48.67 30.163-48.67C29.136-48.67 28.285-49.02 27.609-49.71C26.934-50.41 26.596-51.25 26.596-52.23C26.596-53.22 26.934-54.06 27.609-54.75C28.285-55.45 29.136-55.8 30.163-55.8C31.146-55.8 31.985-55.45 32.681-54.75C33.378-54.06 33.726-53.22 33.726-52.23C33.726-51.25 33.378-50.41 32.681-49.71ZM32.681-32.53C31.985-31.81 31.146-31.45 30.163-31.45C29.136-31.45 28.285-31.81 27.609-32.53C26.934-33.25 26.596-34.1 26.596-35.09C26.596-36.07 26.934-36.92 27.609-37.64C28.285-38.36 29.136-38.72 30.163-38.72C31.146-38.72 31.985-38.36 32.681-37.64C33.378-36.92 33.726-36.07 33.726-35.09C33.726-34.1 33.378-33.25 32.681-32.53ZM32.681-15.42C31.985-14.72 31.146-14.37 30.163-14.37C29.136-14.37 28.285-14.72 27.609-15.42C26.934-16.12 26.596-16.96 26.596-17.94C26.596-18.92 26.934-19.76 27.609-20.46C28.285-21.16 29.136-21.51 30.163-21.51C31.146-21.51 31.985-21.16 32.681-20.46C33.378-19.76 33.726-18.92 33.726-17.94C33.726-16.96 33.378-16.12 32.681-15.42Z"/>
  </g>
  <g id="Black-S" transform="matrix(1 0 0 1 2882.8 696)">
   <path d="M27.7 2.586L73.5 2.586C78.28 2.586 82.02 1.243 84.7-1.442C87.39-4.128 88.73-7.863 88.73-12.648L88.73-58.449C88.73-63.234 87.39-66.97 84.7-69.655C82.02-72.341 78.28-73.684 73.5-73.684L27.7-73.684C22.91-73.684 19.18-72.341 16.49-69.655C13.81-66.97 12.46-63.234 12.46-58.449L12.46-12.648C12.46-7.863 13.81-4.128 16.49-1.442C19.18 1.243 22.91 2.586 27.7 2.586ZM29.94-11.574C28.84-11.574 28.01-11.827 27.45-12.331C26.9-12.836 26.62-13.69 26.62-14.895L26.62-56.203C26.62-57.44 26.9-58.303 27.45-58.791C28.01-59.279 28.84-59.523 29.94-59.523L71.25-59.523C72.39-59.523 73.23-59.279 73.77-58.791C74.3-58.303 74.57-57.44 74.57-56.203L74.57-14.895C74.57-13.69 74.3-12.836 73.77-12.331C73.23-11.827 72.39-11.574 71.25-11.574L29.94-11.574ZM45.32-43.018L65.83-43.018C66.68-43.018 67.4-43.319 68.01-43.921C68.61-44.523 68.91-45.247 68.91-46.094C68.91-46.94 68.61-47.664 68.01-48.267C67.4-48.869 66.68-49.17 65.83-49.17L45.32-49.17C44.48-49.17 43.76-48.869 43.18-48.267C42.59-47.664 42.3-46.94 42.3-46.094C42.3-45.247 42.6-44.523 43.2-43.921C43.8-43.319 44.51-43.018 45.32-43.018ZM45.32-22.022L65.83-22.022C66.68-22.022 67.4-22.323 68.01-22.925C68.61-23.527 68.91-24.251 68.91-25.098C68.91-25.944 68.61-26.668 68.01-27.271C67.4-27.873 66.68-28.174 65.83-28.174L45.32-28.174C44.51-28.174 43.8-27.873 43.2-27.271C42.6-26.668 42.3-25.944 42.3-25.098C42.3-24.251 42.6-23.527 43.2-22.925C43.8-22.323 44.51-22.022 45.32-22.022ZM45.32-32.52L65.83-32.52C66.68-32.52 67.4-32.821 68.01-33.423C68.61-34.025 68.91-34.749 68.91-35.596C68.91-36.442 68.61-37.166 68.01-37.769C67.4-38.371 66.68-38.672 65.83-38.672L45.32-38.672C44.48-38.672 43.76-38.371 43.18-37.769C42.59-37.166 42.3-36.442 42.3-35.596C42.3-34.749 42.6-34.025 43.2-33.423C43.8-32.821 44.51-32.52 45.32-32.52ZM36.1-42.285C37.14-42.285 38.03-42.668 38.78-43.433C39.53-44.198 39.91-45.085 39.91-46.094C39.91-47.136 39.53-48.031 38.78-48.779C38.03-49.528 37.14-49.902 36.1-49.902C35.09-49.902 34.2-49.528 33.44-48.779C32.67-48.031 32.29-47.136 32.29-46.094C32.29-45.085 32.67-44.198 33.44-43.433C34.2-42.668 35.09-42.285 36.1-42.285ZM36.1-31.787C37.14-31.787 38.03-32.17 38.78-32.935C39.53-33.7 39.91-34.587 39.91-35.596C39.91-36.637 39.53-37.533 38.78-38.281C38.03-39.03 37.14-39.404 36.1-39.404C35.09-39.404 34.2-39.03 33.44-38.281C32.67-37.533 32.29-36.637 32.29-35.596C32.29-34.587 32.67-33.7 33.44-32.935C34.2-32.17 35.09-31.787 36.1-31.787ZM36.1-21.289C37.14-21.289 38.03-21.672 38.78-22.437C39.53-23.202 39.91-24.089 39.91-25.098C39.91-26.139 39.53-27.035 38.78-27.783C38.03-28.532 37.14-28.906 36.1-28.906C35.09-28.906 34.2-28.532 33.44-27.783C32.67-27.035 32.29-26.139 32.29-25.098C32.29-24.089 32.67-23.202 33.44-22.437C34.2-21.672 35.09-21.289 36.1-21.289Z"/>
  </g>
  <g id="Heavy-S" transform="matrix(1 0 0 1 2586.69 696)">
   <path d="M27.03 1.989L72.94 1.989C77.58 1.989 81.17 0.721 83.71-1.815C86.25-4.35 87.52-7.93 87.52-12.554L87.52-58.539C87.52-63.163 86.25-66.743 83.71-69.278C81.17-71.814 77.58-73.082 72.94-73.082L27.03-73.082C22.4-73.082 18.82-71.814 16.27-69.278C13.73-66.743 12.46-63.163 12.46-58.539L12.46-12.554C12.46-7.93 13.73-4.35 16.27-1.815C18.82 0.721 22.4 1.989 27.03 1.989ZM28.77-10.5C27.51-10.5 26.56-10.802 25.91-11.407C25.26-12.011 24.93-12.992 24.93-14.351L24.93-56.742C24.93-58.118 25.26-59.103 25.91-59.699C26.56-60.295 27.51-60.593 28.77-60.593L71.2-60.593C72.49-60.593 73.45-60.295 74.08-59.699C74.72-59.103 75.04-58.118 75.04-56.742L75.04-14.351C75.04-12.992 74.72-12.011 74.08-11.407C73.45-10.802 72.49-10.5 71.2-10.5L28.77-10.5ZM43.82-43.58L66.1-43.58C66.92-43.58 67.62-43.87 68.2-44.449C68.77-45.028 69.06-45.726 69.06-46.541C69.06-47.365 68.77-48.064 68.2-48.639C67.62-49.215 66.92-49.502 66.1-49.502L43.82-49.502C43.01-49.502 42.31-49.215 41.75-48.639C41.18-48.064 40.9-47.365 40.9-46.541C40.9-45.726 41.19-45.028 41.77-44.449C42.35-43.87 43.03-43.58 43.82-43.58ZM43.82-21.639L66.1-21.639C66.92-21.639 67.62-21.927 68.2-22.502C68.77-23.078 69.06-23.777 69.06-24.6C69.06-25.416 68.77-26.113 68.2-26.692C67.62-27.271 66.92-27.561 66.1-27.561L43.82-27.561C43.03-27.561 42.35-27.271 41.77-26.692C41.19-26.113 40.9-25.416 40.9-24.6C40.9-23.777 41.19-23.078 41.77-22.502C42.35-21.927 43.03-21.639 43.82-21.639ZM43.82-32.61L66.1-32.61C66.92-32.61 67.62-32.899 68.2-33.478C68.77-34.058 69.06-34.755 69.06-35.571C69.06-36.394 68.77-37.093 68.2-37.669C67.62-38.244 66.92-38.532 66.1-38.532L43.82-38.532C43.01-38.532 42.31-38.242 41.75-37.663C41.18-37.084 40.9-36.386 40.9-35.571C40.9-34.755 41.19-34.058 41.77-33.478C42.35-32.899 43.03-32.61 43.82-32.61ZM34.58-42.836C35.6-42.836 36.47-43.207 37.2-43.949C37.93-44.691 38.3-45.555 38.3-46.541C38.3-47.56 37.93-48.432 37.2-49.158C36.47-49.883 35.6-50.246 34.58-50.246C33.59-50.246 32.72-49.883 31.98-49.158C31.24-48.432 30.88-47.56 30.88-46.541C30.88-45.547 31.24-44.682 31.98-43.943C32.72-43.205 33.59-42.836 34.58-42.836ZM34.58-31.866C35.6-31.866 36.47-32.237 37.2-32.979C37.93-33.721 38.3-34.585 38.3-35.571C38.3-36.582 37.93-37.452 37.2-38.181C36.47-38.911 35.6-39.276 34.58-39.276C33.59-39.276 32.72-38.913 31.98-38.187C31.24-37.461 30.88-36.589 30.88-35.571C30.88-34.577 31.24-33.711 31.98-32.973C32.72-32.235 33.59-31.866 34.58-31.866ZM34.58-20.895C35.6-20.895 36.47-21.264 37.2-22.002C37.93-22.74 38.3-23.606 38.3-24.6C38.3-25.611 37.93-26.481 37.2-27.211C36.47-27.94 35.6-28.305 34.58-28.305C33.59-28.305 32.72-27.942 31.98-27.216C31.24-26.491 30.88-25.619 30.88-24.6C30.88-23.606 31.24-22.74 31.98-22.002C32.72-21.264 33.59-20.895 34.58-20.895Z"/>
  </g>
  <g id="Bold-S" transform="matrix(1 0 0 1 2290.66 696)">
   <path d="M26.31 1.316L72.33 1.316C76.8 1.316 80.23 0.132 82.6-2.236C84.98-4.604 86.17-8.01 86.17-12.453L86.17-58.645C86.17-63.088 84.98-66.494 82.6-68.862C80.23-71.23 76.8-72.414 72.33-72.414L26.31-72.414C21.85-72.414 18.42-71.23 16.04-68.862C13.66-66.494 12.46-63.088 12.46-58.645L12.46-12.453C12.46-8.01 13.66-4.604 16.04-2.236C18.42 0.132 21.85 1.316 26.31 1.316ZM27.48-9.304C26.05-9.304 24.95-9.662 24.19-10.378C23.44-11.094 23.06-12.217 23.06-13.747L23.06-57.351C23.06-58.881 23.44-60.004 24.19-60.72C24.95-61.436 26.05-61.794 27.48-61.794L71.15-61.794C72.6-61.794 73.7-61.436 74.45-60.72C75.2-60.004 75.57-58.881 75.57-57.351L75.57-13.747C75.57-12.217 75.2-11.094 74.45-10.378C73.7-9.662 72.6-9.304 71.15-9.304L27.48-9.304ZM42.15-44.216L66.42-44.216C67.2-44.216 67.87-44.493 68.42-45.046C68.97-45.599 69.25-46.267 69.25-47.048C69.25-47.845 68.97-48.517 68.42-49.062C67.87-49.607 67.2-49.88 66.42-49.88L42.15-49.88C41.37-49.88 40.71-49.607 40.16-49.062C39.62-48.517 39.34-47.845 39.34-47.048C39.34-46.267 39.62-45.599 40.17-45.046C40.73-44.493 41.39-44.216 42.15-44.216ZM42.15-21.218L66.42-21.218C67.2-21.218 67.87-21.49 68.42-22.036C68.97-22.581 69.25-23.252 69.25-24.05C69.25-24.831 68.97-25.498 68.42-26.052C67.87-26.605 67.2-26.882 66.42-26.882L42.15-26.882C41.39-26.882 40.73-26.605 40.17-26.052C39.62-25.498 39.34-24.831 39.34-24.05C39.34-23.252 39.62-22.581 40.17-22.036C40.73-21.49 41.39-21.218 42.15-21.218ZM42.15-32.717L66.42-32.717C67.2-32.717 67.87-32.993 68.42-33.547C68.97-34.1 69.25-34.768 69.25-35.549C69.25-36.346 68.97-37.018 68.42-37.563C67.87-38.108 67.2-38.381 66.42-38.381L42.15-38.381C41.37-38.381 40.71-38.104 40.16-37.551C39.62-36.997 39.34-36.33 39.34-35.549C39.34-34.768 39.62-34.1 40.17-33.547C40.73-32.993 41.39-32.717 42.15-32.717ZM32.9-43.459C33.89-43.459 34.74-43.817 35.45-44.533C36.16-45.249 36.51-46.088 36.51-47.048C36.51-48.041 36.16-48.887 35.45-49.587C34.74-50.287 33.89-50.637 32.9-50.637C31.92-50.637 31.08-50.287 30.37-49.587C29.66-48.887 29.31-48.041 29.31-47.048C29.31-46.071 29.66-45.229 30.37-44.521C31.08-43.813 31.92-43.459 32.9-43.459ZM32.9-31.96C33.89-31.96 34.74-32.318 35.45-33.034C36.16-33.75 36.51-34.589 36.51-35.549C36.51-36.525 36.16-37.368 35.45-38.076C34.74-38.784 33.89-39.138 32.9-39.138C31.92-39.138 31.08-38.788 30.37-38.088C29.66-37.388 29.31-36.542 29.31-35.549C29.31-34.572 29.66-33.73 30.37-33.022C31.08-32.314 31.92-31.96 32.9-31.96ZM32.9-20.461C33.89-20.461 34.74-20.815 35.45-21.523C36.16-22.231 36.51-23.073 36.51-24.05C36.51-25.026 36.16-25.869 35.45-26.577C34.74-27.285 33.89-27.639 32.9-27.639C31.92-27.639 31.08-27.289 30.37-26.589C29.66-25.889 29.31-25.043 29.31-24.05C29.31-23.073 29.66-22.231 30.37-21.523C31.08-20.815 31.92-20.461 32.9-20.461Z"/>
  </g>
  <g id="Semibold-S" transform="matrix(1 0 0 1 1994.42 696)">
   <path d="M25.79 0.857L71.89 0.857C76.26 0.857 79.57-0.269 81.84-2.522C84.1-4.775 85.23-8.06 85.23-12.379L85.23-58.713C85.23-63.032 84.1-66.318 81.84-68.57C79.57-70.823 76.26-71.949 71.89-71.949L25.79-71.949C21.45-71.949 18.15-70.823 15.87-68.57C13.6-66.318 12.46-63.032 12.46-58.713L12.46-12.379C12.46-8.06 13.6-4.775 15.87-2.522C18.15-0.269 21.45 0.857 25.79 0.857ZM26.58-8.475C25.02-8.475 23.83-8.871 23-9.664C22.17-10.457 21.76-11.678 21.76-13.327L21.76-57.766C21.76-59.402 22.17-60.62 23-61.419C23.83-62.218 25.02-62.618 26.58-62.618L71.11-62.618C72.68-62.618 73.87-62.218 74.69-61.419C75.52-60.62 75.93-59.402 75.93-57.766L75.93-13.327C75.93-11.678 75.52-10.457 74.69-9.664C73.87-8.871 72.68-8.475 71.11-8.475L26.58-8.475ZM40.99-44.65L66.63-44.65C67.38-44.65 68.03-44.918 68.57-45.454C69.1-45.989 69.37-46.636 69.37-47.393C69.37-48.173 69.1-48.825 68.57-49.35C68.03-49.874 67.38-50.137 66.63-50.137L40.99-50.137C40.23-50.137 39.59-49.874 39.06-49.35C38.53-48.825 38.26-48.173 38.26-47.393C38.26-46.636 38.53-45.989 39.07-45.454C39.6-44.918 40.24-44.65 40.99-44.65ZM40.99-20.924L66.63-20.924C67.38-20.924 68.03-21.186 68.57-21.71C69.1-22.235 69.37-22.887 69.37-23.667C69.37-24.424 69.1-25.071 68.57-25.606C68.03-26.142 67.38-26.41 66.63-26.41L40.99-26.41C40.24-26.41 39.6-26.142 39.07-25.606C38.53-25.071 38.26-24.424 38.26-23.667C38.26-22.887 38.53-22.235 39.07-21.71C39.6-21.186 40.24-20.924 40.99-20.924ZM40.99-32.787L66.63-32.787C67.38-32.787 68.03-33.055 68.57-33.59C69.1-34.126 69.37-34.773 69.37-35.53C69.37-36.31 69.1-36.962 68.57-37.486C68.03-38.011 67.38-38.273 66.63-38.273L40.99-38.273C40.23-38.273 39.59-38.005 39.06-37.47C38.53-36.934 38.26-36.288 38.26-35.53C38.26-34.773 38.53-34.126 39.07-33.59C39.6-33.055 40.24-32.787 40.99-32.787ZM31.73-43.885C32.7-43.885 33.54-44.234 34.23-44.932C34.92-45.63 35.27-46.451 35.27-47.393C35.27-48.369 34.92-49.197 34.23-49.879C33.54-50.561 32.7-50.902 31.73-50.902C30.76-50.902 29.94-50.561 29.25-49.879C28.56-49.197 28.22-48.369 28.22-47.393C28.22-46.429 28.56-45.603 29.25-44.915C29.94-44.228 30.76-43.885 31.73-43.885ZM31.73-32.021C32.7-32.021 33.54-32.37 34.23-33.069C34.92-33.767 35.27-34.588 35.27-35.53C35.27-36.483 34.92-37.306 34.23-37.999C33.54-38.692 32.7-39.039 31.73-39.039C30.76-39.039 29.94-38.698 29.25-38.016C28.56-37.334 28.22-36.505 28.22-35.53C28.22-34.565 28.56-33.739 29.25-33.052C29.94-32.365 30.76-32.021 31.73-32.021ZM31.73-20.158C32.7-20.158 33.54-20.501 34.23-21.189C34.92-21.876 35.27-22.702 35.27-23.667C35.27-24.62 34.92-25.443 34.23-26.136C33.54-26.829 32.7-27.176 31.73-27.176C30.76-27.176 29.94-26.835 29.25-26.152C28.56-25.47 28.22-24.642 28.22-23.667C28.22-22.702 28.56-21.876 29.25-21.189C29.94-20.501 30.76-20.158 31.73-20.158Z"/>
  </g>
  <g id="Medium-S" transform="matrix(1 0 0 1 1698.06 696)">
   <path d="M25.42 0.504L71.58 0.504C75.85 0.504 79.08-0.579 81.26-2.744C83.44-4.909 84.53-8.104 84.53-12.328L84.53-58.77C84.53-62.994 83.44-66.189 81.26-68.354C79.08-70.519 75.85-71.602 71.58-71.602L25.42-71.602C21.16-71.602 17.94-70.519 15.75-68.354C13.56-66.189 12.46-62.994 12.46-58.77L12.46-12.328C12.46-8.104 13.56-4.909 15.75-2.744C17.94-0.579 21.16 0.504 25.42 0.504ZM25.9-7.851C24.26-7.851 23-8.276 22.11-9.128C21.22-9.979 20.78-11.274 20.78-13.013L20.78-58.085C20.78-59.802 21.22-61.092 22.11-61.954C23-62.816 24.26-63.247 25.9-63.247L71.09-63.247C72.74-63.247 74-62.816 74.89-61.954C75.77-61.092 76.21-59.802 76.21-58.085L76.21-13.013C76.21-11.274 75.77-9.979 74.89-9.128C74-8.276 72.74-7.851 71.09-7.851L25.9-7.851ZM40.12-44.981L66.79-44.981C67.53-44.981 68.16-45.242 68.69-45.765C69.21-46.287 69.47-46.918 69.47-47.657C69.47-48.423 69.21-49.061 68.69-49.57C68.16-50.079 67.53-50.333 66.79-50.333L40.12-50.333C39.38-50.333 38.75-50.079 38.23-49.57C37.71-49.061 37.45-48.423 37.45-47.657C37.45-46.918 37.71-46.287 38.24-45.765C38.76-45.242 39.39-44.981 40.12-44.981ZM40.12-20.702L66.79-20.702C67.53-20.702 68.16-20.956 68.69-21.465C69.21-21.974 69.47-22.612 69.47-23.378C69.47-24.117 69.21-24.748 68.69-25.27C68.16-25.793 67.53-26.054 66.79-26.054L40.12-26.054C39.39-26.054 38.76-25.793 38.24-25.27C37.71-24.748 37.45-24.117 37.45-23.378C37.45-22.612 37.71-21.974 38.24-21.465C38.76-20.956 39.39-20.702 40.12-20.702ZM40.12-32.842L66.79-32.842C67.53-32.842 68.16-33.103 68.69-33.625C69.21-34.147 69.47-34.778 69.47-35.518C69.47-36.284 69.21-36.921 68.69-37.43C68.16-37.939 67.53-38.193 66.79-38.193L40.12-38.193C39.38-38.193 38.75-37.932 38.23-37.41C37.71-36.888 37.45-36.257 37.45-35.518C37.45-34.778 37.71-34.147 38.24-33.625C38.76-33.103 39.39-32.842 40.12-32.842ZM30.85-44.209C31.81-44.209 32.63-44.551 33.32-45.236C34-45.921 34.34-46.728 34.34-47.657C34.34-48.619 34-49.434 33.32-50.102C32.63-50.771 31.81-51.105 30.85-51.105C29.89-51.105 29.08-50.771 28.41-50.102C27.74-49.434 27.4-48.619 27.4-47.657C27.4-46.701 27.74-45.888 28.41-45.216C29.08-44.545 29.89-44.209 30.85-44.209ZM30.85-32.069C31.81-32.069 32.63-32.412 33.32-33.097C34-33.782 34.34-34.589 34.34-35.518C34.34-36.452 34-37.261 33.32-37.943C32.63-38.625 31.81-38.966 30.85-38.966C29.89-38.966 29.08-38.631 28.41-37.963C27.74-37.294 27.4-36.479 27.4-35.518C27.4-34.562 27.74-33.748 28.41-33.077C29.08-32.405 29.89-32.069 30.85-32.069ZM30.85-19.93C31.81-19.93 32.63-20.265 33.32-20.937C34-21.609 34.34-22.422 34.34-23.378C34.34-24.313 34-25.121 33.32-25.803C32.63-26.485 31.81-26.826 30.85-26.826C29.89-26.826 29.08-26.492 28.41-25.823C27.74-25.155 27.4-24.339 27.4-23.378C27.4-22.422 27.74-21.609 28.41-20.937C29.08-20.265 29.89-19.93 30.85-19.93Z"/>
  </g>
  <g id="Regular-S" transform="matrix(1 0 0 1 1401.8 696)">
   <path d="M24.91 0.047L71.15 0.047C75.32 0.047 78.44-0.978 80.51-3.029C82.57-5.08 83.61-8.156 83.61-12.258L83.61-58.84C83.61-62.941 82.57-66.018 80.51-68.068C78.44-70.119 75.32-71.145 71.15-71.145L24.91-71.145C20.78-71.145 17.67-70.119 15.59-68.068C13.5-66.018 12.46-62.941 12.46-58.84L12.46-12.258C12.46-8.156 13.5-5.08 15.59-3.029C17.67-0.978 20.78 0.047 24.91 0.047ZM25.01-7.033C23.25-7.033 21.9-7.497 20.93-8.425C19.97-9.353 19.49-10.744 19.49-12.6L19.49-58.498C19.49-60.321 19.97-61.704 20.93-62.648C21.9-63.592 23.25-64.064 25.01-64.064L71.06-64.064C72.81-64.064 74.17-63.592 75.13-62.648C76.09-61.704 76.57-60.321 76.57-58.498L76.57-12.6C76.57-10.744 76.09-9.353 75.13-8.425C74.17-7.497 72.81-7.033 71.06-7.033L25.01-7.033ZM38.98-45.41L67-45.41C67.72-45.41 68.33-45.662 68.83-46.167C69.34-46.672 69.59-47.282 69.59-47.998C69.59-48.747 69.34-49.365 68.83-49.853C68.33-50.342 67.72-50.586 67-50.586L38.98-50.586C38.26-50.586 37.65-50.342 37.15-49.853C36.64-49.365 36.39-48.747 36.39-47.998C36.39-47.282 36.64-46.672 37.15-46.167C37.65-45.662 38.26-45.41 38.98-45.41ZM38.98-20.41L67-20.41C67.72-20.41 68.33-20.654 68.83-21.143C69.34-21.631 69.59-22.249 69.59-22.998C69.59-23.714 69.34-24.325 68.83-24.829C68.33-25.334 67.72-25.586 67-25.586L38.98-25.586C38.26-25.586 37.65-25.334 37.15-24.829C36.64-24.325 36.39-23.714 36.39-22.998C36.39-22.249 36.64-21.631 37.15-21.143C37.65-20.654 38.26-20.41 38.98-20.41ZM38.98-32.91L67-32.91C67.72-32.91 68.33-33.162 68.83-33.667C69.34-34.172 69.59-34.782 69.59-35.498C69.59-36.247 69.34-36.865 68.83-37.353C68.33-37.842 67.72-38.086 67-38.086L38.98-38.086C38.26-38.086 37.65-37.834 37.15-37.329C36.64-36.825 36.39-36.214 36.39-35.498C36.39-34.782 36.64-34.172 37.15-33.667C37.65-33.162 38.26-32.91 38.98-32.91ZM29.7-44.629C30.64-44.629 31.45-44.963 32.12-45.63C32.78-46.297 33.12-47.087 33.12-47.998C33.12-48.942 32.78-49.74 32.12-50.391C31.45-51.042 30.64-51.367 29.7-51.367C28.76-51.367 27.96-51.042 27.31-50.391C26.66-49.74 26.33-48.942 26.33-47.998C26.33-47.054 26.66-46.257 27.31-45.605C27.96-44.954 28.76-44.629 29.7-44.629ZM29.7-32.129C30.64-32.129 31.45-32.463 32.12-33.13C32.78-33.797 33.12-34.587 33.12-35.498C33.12-36.41 32.78-37.199 32.12-37.866C31.45-38.534 30.64-38.867 29.7-38.867C28.76-38.867 27.96-38.542 27.31-37.891C26.66-37.24 26.33-36.442 26.33-35.498C26.33-34.554 26.66-33.757 27.31-33.105C27.96-32.454 28.76-32.129 29.7-32.129ZM29.7-19.629C30.64-19.629 31.45-19.954 32.12-20.605C32.78-21.257 33.12-22.054 33.12-22.998C33.12-23.91 32.78-24.699 32.12-25.366C31.45-26.034 30.64-26.367 29.7-26.367C28.76-26.367 27.96-26.042 27.31-25.391C26.66-24.74 26.33-23.942 26.33-22.998C26.33-22.054 26.66-21.257 27.31-20.605C27.96-19.954 28.76-19.629 29.7-19.629Z"/>
  </g>
  <g id="Light-S" transform="matrix(1 0 0 1 1105.76 696)">
   <path d="M24.1-0.62L70.65-0.62C74.52-0.62 77.43-1.591 79.37-3.533C81.31-5.475 82.28-8.351 82.28-12.159L82.28-58.953C82.28-62.762 81.31-65.634 79.37-67.571C77.43-69.508 74.52-70.477 70.65-70.477L24.1-70.477C20.25-70.477 17.34-69.511 15.39-67.579C13.44-65.648 12.46-62.773 12.46-58.953L12.46-12.159C12.46-8.329 13.44-5.448 15.39-3.517C17.34-1.585 20.25-0.62 24.1-0.62ZM24.19-6.072C22.16-6.072 20.59-6.604 19.51-7.667C18.42-8.731 17.88-10.315 17.88-12.42L17.88-58.676C17.88-60.76 18.42-62.339 19.51-63.413C20.59-64.487 22.16-65.024 24.19-65.024L70.55-65.024C72.57-65.024 74.12-64.487 75.22-63.413C76.32-62.339 76.86-60.76 76.86-58.676L76.86-12.42C76.86-10.315 76.32-8.731 75.22-7.667C74.12-6.604 72.57-6.072 70.55-6.072L24.19-6.072ZM37.84-46.242L67.11-46.242C67.68-46.242 68.17-46.446 68.58-46.853C68.99-47.259 69.19-47.75 69.19-48.326C69.19-48.933 68.99-49.432 68.58-49.823C68.17-50.214 67.68-50.409 67.11-50.409L37.84-50.409C37.27-50.409 36.78-50.211 36.37-49.815C35.96-49.419 35.76-48.922 35.76-48.326C35.76-47.75 35.96-47.259 36.37-46.853C36.78-46.446 37.27-46.242 37.84-46.242ZM37.84-20.656L67.11-20.656C67.68-20.656 68.17-20.852 68.58-21.242C68.99-21.633 69.19-22.132 69.19-22.74C69.19-23.315 68.99-23.806 68.58-24.213C68.17-24.619 67.68-24.823 67.11-24.823L37.84-24.823C37.27-24.823 36.78-24.619 36.37-24.213C35.96-23.806 35.76-23.315 35.76-22.74C35.76-22.143 35.96-21.646 36.37-21.25C36.78-20.854 37.27-20.656 37.84-20.656ZM37.84-33.466L67.11-33.466C67.68-33.466 68.17-33.664 68.58-34.06C68.99-34.456 69.19-34.947 69.19-35.533C69.19-36.14 68.99-36.637 68.58-37.022C68.17-37.407 67.68-37.6 67.11-37.6L37.84-37.6C37.27-37.6 36.78-37.399 36.37-36.997C35.96-36.596 35.76-36.108 35.76-35.533C35.76-34.957 35.96-34.469 36.37-34.068C36.78-33.666 37.27-33.466 37.84-33.466ZM28.65-45.135C29.54-45.135 30.3-45.45 30.93-46.079C31.55-46.709 31.87-47.457 31.87-48.326C31.87-49.215 31.55-49.969 30.93-50.588C30.3-51.206 29.54-51.516 28.65-51.516C27.75-51.516 26.99-51.206 26.38-50.588C25.76-49.969 25.46-49.215 25.46-48.326C25.46-47.436 25.76-46.682 26.38-46.063C26.99-45.445 27.75-45.135 28.65-45.135ZM28.65-32.326C29.54-32.326 30.3-32.644 30.93-33.278C31.55-33.913 31.87-34.664 31.87-35.533C31.87-36.401 31.55-37.152 30.93-37.787C30.3-38.422 29.54-38.739 28.65-38.739C27.75-38.739 26.99-38.427 26.38-37.803C25.76-37.179 25.46-36.422 25.46-35.533C25.46-34.643 25.76-33.886 26.38-33.262C26.99-32.638 27.75-32.326 28.65-32.326ZM28.65-19.55C29.54-19.55 30.3-19.859 30.93-20.477C31.55-21.096 31.87-21.85 31.87-22.74C31.87-23.608 31.55-24.356 30.93-24.986C30.3-25.615 29.54-25.93 28.65-25.93C27.75-25.93 26.99-25.62 26.38-25.002C25.76-24.383 25.46-23.629 25.46-22.74C25.46-21.85 25.76-21.096 26.38-20.477C26.99-19.859 27.75-19.55 28.65-19.55Z"/>
  </g>
  <g id="Thin-S" transform="matrix(1 0 0 1 809.917 696)">
   <path d="M23.021-1.502L69.98-1.502C73.466-1.502 76.098-2.402 77.875-4.2C79.652-5.999 80.541-8.609 80.541-12.03L80.541-59.104C80.541-62.525 79.652-65.128 77.875-66.914C76.098-68.701 73.466-69.594 69.98-69.594L23.021-69.594C19.542-69.594 16.912-68.707 15.131-66.933C13.351-65.16 12.46-62.55 12.46-59.104L12.46-12.03C12.46-8.559 13.351-5.936 15.131-4.162C16.912-2.389 19.542-1.502 23.021-1.502ZM23.119-4.802C20.706-4.802 18.874-5.423 17.624-6.666C16.374-7.909 15.749-9.748 15.749-12.183L15.749-58.913C15.749-61.341 16.374-63.178 17.624-64.424C18.874-65.671 20.706-66.294 23.119-66.294L69.882-66.294C72.245-66.294 74.064-65.671 75.339-64.424C76.614-63.178 77.252-61.341 77.252-58.913L77.252-12.183C77.252-9.748 76.614-7.909 75.339-6.666C74.064-5.423 72.245-4.802 69.882-4.802L23.119-4.802ZM36.346-47.342L67.247-47.342C67.635-47.342 67.968-47.481 68.246-47.758C68.524-48.036 68.663-48.369 68.663-48.758C68.663-49.179 68.524-49.52 68.246-49.781C67.968-50.043 67.635-50.174 67.247-50.174L36.346-50.174C35.958-50.174 35.625-50.037 35.347-49.763C35.069-49.488 34.93-49.154 34.93-48.758C34.93-48.369 35.069-48.036 35.347-47.758C35.625-47.481 35.958-47.342 36.346-47.342ZM36.346-20.981L67.247-20.981C67.635-20.981 67.968-21.111 68.246-21.373C68.524-21.634 68.663-21.976 68.663-22.397C68.663-22.785 68.524-23.118 68.246-23.396C67.968-23.674 67.635-23.813 67.247-23.813L36.346-23.813C35.958-23.813 35.625-23.674 35.347-23.396C35.069-23.118 34.93-22.785 34.93-22.397C34.93-22.001 35.069-21.666 35.347-21.392C35.625-21.118 35.958-20.981 36.346-20.981ZM36.346-34.199L67.247-34.199C67.635-34.199 67.968-34.325 68.246-34.578C68.524-34.83 68.663-35.164 68.663-35.577C68.663-35.998 68.524-36.333 68.246-36.582C67.968-36.831 67.635-36.955 67.247-36.955L36.346-36.955C35.958-36.955 35.625-36.823 35.347-36.558C35.069-36.293 34.93-35.966 34.93-35.577C34.93-35.189 35.069-34.862 35.347-34.597C35.625-34.332 35.958-34.199 36.346-34.199ZM27.258-45.804C28.076-45.804 28.775-46.094 29.354-46.673C29.933-47.252 30.222-47.947 30.222-48.758C30.222-49.576 29.933-50.272 29.354-50.848C28.775-51.423 28.076-51.711 27.258-51.711C26.415-51.711 25.712-51.423 25.149-50.848C24.586-50.272 24.305-49.576 24.305-48.758C24.305-47.94 24.586-47.243 25.149-46.668C25.712-46.092 26.415-45.804 27.258-45.804ZM27.258-32.586C28.076-32.586 28.775-32.882 29.354-33.474C29.933-34.065 30.222-34.767 30.222-35.577C30.222-36.388 29.933-37.089 29.354-37.681C28.775-38.272 28.076-38.568 27.258-38.568C26.415-38.568 25.712-38.274 25.149-37.686C24.586-37.098 24.305-36.395 24.305-35.577C24.305-34.759 24.586-34.056 25.149-33.468C25.712-32.88 26.415-32.586 27.258-32.586ZM27.258-19.443C28.076-19.443 28.775-19.731 29.354-20.307C29.933-20.882 30.222-21.579 30.222-22.397C30.222-23.207 29.933-23.902 29.354-24.481C28.775-25.061 28.076-25.35 27.258-25.35C26.415-25.35 25.712-25.062 25.149-24.487C24.586-23.911 24.305-23.215 24.305-22.397C24.305-21.579 24.586-20.882 25.149-20.307C25.712-19.731 26.415-19.443 27.258-19.443Z"/>
  </g>
  <g id="Ultralight-S" transform="matrix(1 0 0 1 513.653 696)">
   <path d="M22.469-1.957L69.637-1.957C72.925-1.957 75.415-2.82 77.108-4.545C78.801-6.27 79.647-8.744 79.647-11.967L79.647-59.184C79.647-62.406 78.801-64.872 77.108-66.581C75.415-68.29 72.925-69.145 69.637-69.145L22.469-69.145C19.182-69.145 16.692-68.298 14.999-66.605C13.306-64.913 12.46-62.439 12.46-59.184L12.46-11.967C12.46-8.679 13.306-6.189 14.999-4.496C16.692-2.803 19.182-1.957 22.469-1.957ZM22.567-4.154C19.963-4.154 17.994-4.822 16.659-6.156C15.324-7.491 14.657-9.46 14.657-12.064L14.657-59.037C14.657-61.641 15.324-63.611 16.659-64.945C17.994-66.28 19.963-66.947 22.567-66.947L69.54-66.947C72.079-66.947 74.032-66.28 75.399-64.945C76.766-63.611 77.45-61.641 77.45-59.037L77.45-12.064C77.45-9.46 76.766-7.491 75.399-6.156C74.032-4.822 72.079-4.154 69.54-4.154L22.567-4.154ZM35.58-47.906L67.318-47.906C67.611-47.906 67.863-48.012 68.075-48.224C68.287-48.435 68.392-48.687 68.392-48.98C68.392-49.306 68.287-49.566 68.075-49.762C67.863-49.957 67.611-50.055 67.318-50.055L35.58-50.055C35.287-50.055 35.035-49.949 34.823-49.737C34.611-49.526 34.506-49.273 34.506-48.98C34.506-48.687 34.611-48.435 34.823-48.224C35.035-48.012 35.287-47.906 35.58-47.906ZM35.58-21.148L67.318-21.148C67.611-21.148 67.863-21.246 68.075-21.441C68.287-21.637 68.392-21.897 68.392-22.223C68.392-22.516 68.287-22.768 68.075-22.98C67.863-23.191 67.611-23.297 67.318-23.297L35.58-23.297C35.287-23.297 35.035-23.191 34.823-22.98C34.611-22.768 34.506-22.516 34.506-22.223C34.506-21.93 34.611-21.677 34.823-21.466C35.035-21.254 35.287-21.148 35.58-21.148ZM35.58-34.576L67.318-34.576C67.611-34.576 67.863-34.666 68.075-34.845C68.287-35.024 68.392-35.276 68.392-35.602C68.392-35.927 68.287-36.179 68.075-36.358C67.863-36.537 67.611-36.627 67.318-36.627L35.58-36.627C35.287-36.627 35.035-36.529 34.823-36.334C34.611-36.139 34.506-35.895 34.506-35.602C34.506-35.309 34.611-35.064 34.823-34.869C35.035-34.674 35.287-34.576 35.58-34.576ZM26.547-46.148C27.328-46.148 27.995-46.425 28.549-46.979C29.102-47.532 29.379-48.199 29.379-48.98C29.379-49.762 29.102-50.429 28.549-50.982C27.995-51.536 27.328-51.812 26.547-51.812C25.733-51.812 25.057-51.536 24.52-50.982C23.983-50.429 23.715-49.762 23.715-48.98C23.715-48.199 23.983-47.532 24.52-46.979C25.057-46.425 25.733-46.148 26.547-46.148ZM26.547-32.721C27.328-32.721 27.995-33.006 28.549-33.575C29.102-34.145 29.379-34.82 29.379-35.602C29.379-36.383 29.102-37.058 28.549-37.628C27.995-38.198 27.328-38.482 26.547-38.482C25.733-38.482 25.057-38.198 24.52-37.628C23.983-37.058 23.715-36.383 23.715-35.602C23.715-34.82 23.983-34.145 24.52-33.575C25.057-33.006 25.733-32.721 26.547-32.721ZM26.547-19.391C27.328-19.391 27.995-19.667 28.549-20.221C29.102-20.774 29.379-21.441 29.379-22.223C29.379-23.004 29.102-23.671 28.549-24.225C27.995-24.778 27.328-25.055 26.547-25.055C25.733-25.055 25.057-24.778 24.52-24.225C23.983-23.671 23.715-23.004 23.715-22.223C23.715-21.441 23.983-20.774 24.52-20.221C25.057-19.667 25.733-19.391 26.547-19.391Z"/>
  </g>
 </g>
</svg>
