<svg version="1.1" id="Layer_1" xmlns="http://www.w3.org/2000/svg" x="0" y="0" viewBox="0 0 664 355" xml:space="preserve"><style>.st0,.st1{stroke-width:.8275}.st0{stroke-linecap:round;stroke-linejoin:round;fill:#4282f1;stroke:#4282f1}.st1{fill:none;stroke:#3c4043}.st1,.st3,.st4{stroke-linecap:round;stroke-linejoin:round}.st3{stroke-width:.2434;fill:#f7b804;stroke:#f7b804}.st4{fill:#fff;stroke:#3c4043}.st4,.st5,.st6{stroke-width:.8275}.st5{stroke-linecap:round;stroke-linejoin:round;fill:#3c4043;stroke:#3c4043}.st6{fill:#c99069;stroke:#c99069}.st6,.st8,.st9{stroke-linecap:round;stroke-linejoin:round}.st8{stroke-width:.8275;fill:#b97b40;stroke:#b97b40}.st9{fill:#efd6c1;stroke:#efd6c1}.st10,.st11,.st9{stroke-width:.8275}.st10{stroke-miterlimit:10;fill:#e64335;stroke:#e64335}.st11{fill:#ff8869;stroke:#ff8869;stroke-linecap:round;stroke-linejoin:round}</style><g id="Layer_2_1_"><path class="st0" d="M542.2 124.7h-21.8l-11.1 19 11.1 19h21.8l11.1-19z"/><path class="st1" d="M137.6 327.4h60.8m63.2 0h160.5m-151.6-300h249.7c6.2 0 11.2 5 11.2 11.2v138.9c0 6.2-5 11.2-11.2 11.2H270.5c-6.2 0-11.2-5-11.2-11.2V38.6c.1-6.2 5-11.2 11.2-11.2z"/><circle cx="449.8" cy="246.9" r="43.1" fill="#f7cfcc" stroke="#f7cfcc" stroke-width=".828" stroke-linecap="round" stroke-linejoin="round"/><path class="st3" d="M119.6 80.2v161c44.4-20.4 64-73 43.6-117.4-8.8-19.4-24.3-34.8-43.6-43.6z"/><path class="st4" d="M278.7 227.5s23.7-25.7 41.3-20.5c25.9 7.7-17.5 70.5-17.5 70.5s33.5-35.6 56.4-35.6c14.8 0 21.5 17.6 21.5 17.6"/><path class="st1" d="M395.3 32.9V183m-135.9-75h271.9"/><circle class="st3" cx="272.9" cy="42.6" r="2.2"/><circle class="st3" cx="287.3" cy="42.6" r="2.2"/><path class="st5" d="M328.9 40c-18.2 0-21.1 29.2-36.2 37 0 0 12.7 4 36.4 4s36-7.2 36-7.2C357.2 69.5 344 40 328.9 40z"/><path class="st3" d="M280.1 34c1.1 0 2.1 1 2.1 2.1v12.7c0 1.1-1 2.1-2.1 2.1s-2.1-1-2.1-2.1V36.1c0-1.2.9-2.1 2.1-2.1z"/><path class="st6" d="M355.7 90.2c-1.4-.4-2.7-.7-4.3-1-8.9-1.7-16.3-4-17.4-9.1-.9-3.7-1.4-7.6-1.7-11.3h-7.4c-.4 3.8-1 7.6-1.7 11.3-1.2 5.1-8.4 7.3-17.4 9.1-1 .2-2 .5-3 .6 4.8 2.2 13.3 5 26.4 5 9.9.2 19.3-2.1 26.5-4.6z"/><path class="st4" d="M355.7 90.2c-7.2 2.4-16.6 4.6-26.8 4.6-13 0-21.6-2.7-26.4-5-10.6 2.7-16.6 7.6-23.8 18H378c-6.8-9.9-12.5-14.7-22.3-17.6z"/><path class="st5" d="M332.6 72.4s-5.3 1.6-8.7 2.6l.7-6.1h7.4l.6 3.5z"/><path d="m414 108 1.6-40.5 17.7-1.9L435 92s10.9-16.9 27.4-16.9h17.5c13.9 0 25.7 5.3 28.8 17.7l3.2 15c.2.2-97.9.2-97.9.2z" fill="#fbecc0" stroke="#fbecc0" stroke-width=".828" stroke-linecap="round" stroke-linejoin="round"/><path class="st1" d="m433.3 65.7 2.6 34.8"/><path class="st8" d="M458.7 54.9s-4.2-4.3-3.1-7.6 5-1.2 5-1.2l-1.9 8.8zm27.4 0s4.2-4.3 3.1-7.6-5-1.2-5-1.2l1.9 8.8z"/><path class="st5" d="M415.5 67.5c-.1 3.6 17.7 2.4 17.7-1.9.1-3.5-16.8-2-17.7 1.9z"/><path class="st8" d="M428.9 68.8c.2-4.8 4-13.9 4.8-19.1.5-2.4-.7-2.6-2.1-.4-1.5 2.5-5.1 7.4-5.1 7.4l-.7-16.6c-.1-1.9-1.9-1.7-2 .4-.1 2.1-.5 14.1-.5 14.1l-2.9-15.9c-.4-1.7-2.6-2.1-2.6.6.1 2.9 2.2 15.6 2.2 15.6l-6.2-13c-.7-1.4-2.2-.6-1.6 1.1.6 1.7 4.8 13.5 4.8 13.5l-5.3-6.8c-.9-1.5-2.4-.7-1.6 1.4.9 2.1 8.1 13.8 8.6 18.4.2 0 5.9.8 10.2-.7z"/><path class="st1" d="M426.7 56.7s-5.8 2.1-5.8 7.7"/><path class="st8" d="M450.1 78.5s6.5 5.2 21 5.2 21-6.7 21-6.7-6.2-1.6-9.9-1.6c0 0-5.8-5.6-5.8-12.7h-8.7s-1.1 11.8-6.5 12.7c0-.2-6.2 0-11.1 3.1z"/><path class="st8" d="M458.1 48.7s-.6 18.7 13.8 18.7 15-13.4 15-18.7c0-19.9-28.8-19.8-28.8 0z"/><path class="st5" d="M458.1 49.8c1.6 8.7 5 10.2 5 10.2 3.4 0 5.1-5.6 9.4-5.6 4.3 0 5.7 5.6 8.6 5.6 3 0 5.7-10.2 5.7-10.2S487 69 472.5 69c-14.7 0-14.4-19.2-14.4-19.2zm0-1.1S456 36 461.6 33.8c5.6-2.2 24.2-5.6 24.7 5.2l.6 9.7c-1.1 0-2.2-9.2-5.3-9.2-3.1 0-4.2 3.4-8.6 3.4-4.3 0-6.3-4-9.1-4s-5.8 9.8-5.8 9.8zm-32.5 202.9 10.2 36.1s-9.1-2.1-17.4-11.3l7.2-24.8z"/><path class="st9" d="m337.7 168.9-1.1-10.2s10.3 3.4 11.2-4.8c.9-8.2 1.4-10.3 1.4-10.3l3.2-.6s-3.6-6.7-5.1-13.2c-2.2-17.7-31.4-17-32.9 0 0 13 9.7 17.9 7.8 23.5-1.9 5.6-8.6 12-8.6 12l24.1 3.6z"/><path class="st6" d="m321.6 154.5 4.3-9.1c1.2-3-6.6-5.8-4.8-10.9 1.7-5.3 10.3-5 11.3 5.3 2.4 0 1.5-12.2 1.5-12.2l12.4-1.2s.6-10.6-6.7-10.6c0 0-24.2-.4-27.2 10.2s12.9 22.7 9.2 28.5z"/><ellipse class="st1" cx="343" cy="135.2" rx="3.2" ry="4.6"/><path class="st10" d="M466.3 115.9c-13 0-24.6 19-29.3 59.6l44.7-1-15.4-58.6z"/><path class="st1" d="M340 133.4h-9.8"/><path class="st4" d="M345.9 133.2s.6-1.2 1.7-1m.1 0c.2-.9 1.1-1.6 2-1.6 1.5 0 2.9 1.9 2.9 4 0 2-1 3.6-2.2 4"/><path class="st1" d="m321.3 138.3-1.2 3.2"/><path class="st9" d="m475.1 155.8-12.4-2.4s-1.2 9.6-5.1 13.4c-1.6 1.6-4.1 2.7-7.3 3.7 3.6 2.2 11.7 4.8 29 5l-4.2-19.7z"/><path class="st1" d="M329.1 151.2s1 5.5 7.4 7.6c5.6 1.9 11 .1 11.3-6.1"/><path class="st9" d="M468.4 118.5c-12.3 0-16.5 6.7-16.9 14.6-1.4-.1-2.7.1-2.7 2 0 3.7 4.3 8.6 4.3 8.6 2 5.8 6.5 13.5 16.1 13.5 14.4 0 14.4-21.8 14.4-21.8s-.7-16.9-15.2-16.9z"/><path class="st4" d="M479.3 175.5c-17.4 0-25.3-2.7-29-5-10.4 3.5-27.1 5.7-34.1 18H482l-2.7-13z"/><path class="st0" d="M198.4 141.5c.4-.6 26.9-3 26.9-3s18.5 26.3 7.2 55.5l57.7 113.4h-28.9l-41.7-72.7s-12.3 36.5-39.2 72.4l-17.1-26.8c18-23.3 39.1-76 39.1-76-15.6-34-15.6-44.7-4-62.8z"/><path class="st1" d="M205.4 267.2c14.3-27.2 27.2-73.2 27.2-73.2m-26.4-27.8c-1.9 5.8 4.7 17.9-4 37.9l-22.1 48.2"/><path class="st5" d="M163.3 280.1c5.1-4.7 23 20.4 17.1 26.8-5.7 6.5-21.6-20.5-17.1-26.8zm98.1 27.4c0-3.5 27.1-3.5 27.1-3.5s3.2 6 3.7 6.7c.1 0-28.5 2.6-30.8-3.2z"/><path class="st4" d="M288.2 303.7c7.6 14.6 28.7 18.5 29.2 23.8h-37.9s-4.1-14.4-2.7-23.2l11.4-.6zm-115.6 23.7c0-2-4.7-5.6-4.7-5.6-3.5-4.2 7.7-20.6 12.3-24.5 0 0-4.3-8.8-7.1-11.8 0 0-17.1 7-23.7 12.2l9.3 29.7h13.9z"/><path class="st4" d="M149.5 297.9c5.3 0 13 29.7 13 29.7h-7.7c.1-.2-8.8-29.7-5.3-29.7zm75.9-159.4 2.6-5.8s7.9 14.3 23.3 9.6 26.7-18.9 26.7-18.9l-9.1-12.4-24.8 14.9s-15.9-25.7-34.9-25.7c-11.4 0-33.8 23.5-33.8 23.5-11.8 11.3-35.2 37.5-47.7 41.5l7.6 14.1c18.1-9.6 60.1-46.4 60.1-46.4l3 8.8 27-3.2zm-30-5.8c-2.4-6.6-1-16.8-1-16.8m33.6 16.8c-2.6-3.5-8.2-15.8-8.2-15.8"/><path class="st5" d="M206.5 83.5c2.5-2 6.5 1 9.4-3-1.6-2.7-4.3-4.8-8.9-4.3-8.8.7-9.3 8.7-5.8 12.8 1.7 2 3.2 3.5 3.8 5.2l4.1-2.1c2.6-2-5.3-6.3-2.6-8.6z"/><path class="st11" d="m215.3 100.9-3.1-7.4s6.8.4 6.2-4.7c-.2-2.5-.9-5.6-2.5-8.2-3 3.8-7 .9-9.4 3-2.6 2.2 5.2 6.6 2.6 8.6l-4.1 2.1c.7 1.7.7 3.7-.7 7.1 0 0-6.1 2.9-9.3 5.2 4.1 1 8.2 1.6 12.4 1.5 7.3 0 15-4 15-4s-4.9-2.7-7.1-3.2z"/><path class="st5" d="M201.3 79.3s-27.2-18-25.8-36.9c2.2-11.8 19-13.8 19.9.6 1.4 18.2 6 33.6 8.2 36.2h-2.3z"/><path class="st11" d="M268.9 110.8s6.8-4.8 8.4-4.8H297c-2.4 2.4-14.9 1.9-19.1 7.3l-4.2 4.1-4.8-6.6z"/><path class="st5" d="M127.8 165c3.8-1.7 10.8 11.9 7.6 14.1-3.4 2.2-10.8-12-7.6-14.1z"/><path class="st11" d="m127.8 165-13.5 5.7c-3.6 1.4-5.2 3.4-1.2 2.6 4.3-.7 16.3-2.1 19.9-5.1-.2.1-2.8-4.1-5.2-3.2z"/><path class="st6" d="M315.2 56.5s2.2 14.8 13.3 14.8c11 0 12.8-14.8 12.8-14.8 4-17.4-26.7-21.7-26.1 0z"/><path class="st5" d="M314.4 56.5c10.9 0 17.7-8.7 17.7-8.7s5.1 7.2 9.9 8.7c0 0 2.5-15.8-13-15.8-13.8 0-14.1 10.9-14.6 15.8z"/><path class="st10" d="M466.3 188.5c-2.9-22.1 13.3-29.5 10.6-47.4-1.7-11.2-20.5-16.1-20.5-16.1s.6 8.2-4.8 8.2c0 0 0-17.3 14.8-17.3 13.9 0 17.4 8.8 20.5 21.6 3.1 12.8 14.6 50.9 14.6 50.9l-35.2.1z"/><path d="M288.2 188.5s10.9-26.4 31-26.4 36.5 26.4 36.5 26.4h-67.5z" fill="#cbe7d3" stroke="#cbe7d3" stroke-width=".828" stroke-linecap="round" stroke-linejoin="round"/><path fill="#34a453" stroke="#34a453" stroke-width=".828" stroke-linecap="round" stroke-linejoin="round" d="m377.7 279.3 47.9 27.7v-55.4z"/><path class="st1" d="M283 188.5h227.6m-57.4-44.8s2.7 13.5 16.1 13.5m-3 31.3c-2.9-22.1 13.3-29.5 10.6-47.4m-26.8-62.6s6.5 5.2 21 5.2 21-6.7 21-6.7m-85.4 31H518"/></g></svg>