<svg width="240" height="160" viewBox="0 0 240 160" fill="none" xmlns="http://www.w3.org/2000/svg"><rect x="46" y="16" width="148" height="128" rx="3" fill="#fff" stroke="#BDC1C6" stroke-width="2"/><path d="M88.667 16H91a3 3 0 0 1 3 3v5h100" stroke="#BDC1C6" stroke-width="2"/><path fill="#BDC1C6" d="M94 16h99v8H94z"/><path fill="#4285F4" d="M60 86h72V74H60zM60 72h72V60H60z"/><rect x="145" y="31" width="42" height="104" rx="1" fill="#8AB4F8" stroke="#4285F4" stroke-width="2"/><path fill="#DADCE0" d="M128 90H64v4h64zM64 114h46v-4H64zM114 114h14v-4h-14zM128 104H82v-4h46zM78 104H64v-4h14zM64 82h36v-4H64zM104 82h24v-4h-24zM64 68h30v-4H64zM98 68h30v-4H98z"/><path fill="#fff" d="M152 70h28v4h-28zM152 80h28v4h-28zM152 50h28v4h-28zM152 60h28v4h-28zM152 90h28v4h-28z"/><path fill="#4285F4" d="M60 58h72V46H60z"/><path fill="#DADCE0" d="M64 54h20v-4H64zM88 54h40v-4H88z"/></svg>