<svg width="20" height="20" viewBox="0 0 20 20" fill="none" xmlns="http://www.w3.org/2000/svg"><mask id="a" maskUnits="userSpaceOnUse" x="1" y="2" width="18" height="16"><path fill-rule="evenodd" clip-rule="evenodd" d="M16.667 4.167h-2.642L12.5 2.5h-5L5.975 4.167H3.334c-.917 0-1.667.75-1.667 1.666v10c0 .917.75 1.667 1.667 1.667h13.333c.917 0 1.667-.75 1.667-1.667v-10c0-.916-.75-1.666-1.667-1.666zm0 11.666H3.334v-10h13.333v10zm-10-5A3.332 3.332 0 1 1 10 14.166a3.332 3.332 0 0 1-3.333-3.333z" fill="#fff"/></mask><g mask="url(#a)"><path fill="#1A73E8" d="M0 0h20v20H0z"/></g></svg>