<svg width="765" height="600" viewBox="0 0 765 600" xmlns="http://www.w3.org/2000/svg" xmlns:xlink="http://www.w3.org/1999/xlink"><defs><path id="a" d="M0 701h1208.616V.431H0z"/><path d="M0 149.31c0 82.453 66.934 149.294 149.5 149.294 82.564 0 149.5-66.841 149.5-149.294C299 66.855 232.064.016 149.5.016 66.934.016 0 66.856 0 149.31z" id="c"/><path d="M0 149.31c0 82.453 66.934 149.294 149.5 149.294 82.564 0 149.5-66.841 149.5-149.294C299 66.855 232.064.016 149.5.016 66.934.016 0 66.856 0 149.31z" id="e"/><radialGradient cx="44.652%" cy="44.352%" fx="44.652%" fy="44.352%" r="70.569%" gradientTransform="matrix(.78431 0 0 .80737 .096 .085)" id="g"><stop stop-color="#FFF" stop-opacity="0" offset="0%"/><stop stop-color="#FFF" stop-opacity="0" offset="40.031%"/><stop stop-color="#FFF" offset="100%"/></radialGradient></defs><g fill="none" fill-rule="evenodd"><g transform="translate(82 85)"><path d="M234.321 550.883c-12.371 0-22.435-10.058-22.435-22.417v-510.6h802.677v510.6c0 12.36-10.064 22.417-22.435 22.417H234.32z" fill="#F1F3F4"/><path d="M1017.055 15.375H209.394v513.091c0 13.756 11.162 24.908 24.927 24.908h757.807c13.765 0 24.927-11.152 24.927-24.908V15.376zm-4.985 4.982v508.11c0 10.986-8.947 19.925-19.942 19.925H234.32c-10.995 0-19.942-8.94-19.942-19.926V20.356h797.69z" fill="#DADCE0"/><path d="M219.365 370.305h787.72v158.161c0 8.254-6.699 14.945-14.957 14.945H234.32c-8.258 0-14.956-6.69-14.956-14.945V370.305z" fill="#F8F9FA"/><mask id="b" fill="#fff"><use xlink:href="#a"/></mask><path fill="#FFF" mask="url(#b)" d="M482.354 543.411h261.742V370.305H482.354z"/><path d="M149.567 22.847a2.494 2.494 0 0 1-2.493-2.49v-9.963c0-4.12 3.355-7.473 7.478-7.473h917.345c4.123 0 7.478 3.353 7.478 7.473v9.963a2.494 2.494 0 0 1-2.493 2.49H149.567z" fill="#F1F3F4" mask="url(#b)"/><path d="M1071.897.43H154.552c-5.506 0-9.97 4.462-9.97 9.964v9.963a4.985 4.985 0 0 0 4.985 4.981h927.315a4.985 4.985 0 0 0 4.986-4.981v-9.963c0-5.502-4.465-9.963-9.971-9.963m0 4.981a4.989 4.989 0 0 1 4.985 4.982v9.963H149.567v-9.963a4.989 4.989 0 0 1 4.985-4.982h917.345M299.153 341.661H259.27c-2.745 0-4.986-2.241-4.986-4.981v-39.852c0-2.74 2.241-4.981 4.986-4.981h39.884c2.743 0 4.986 2.241 4.986 4.981v39.852c0 2.74-2.243 4.981-4.986 4.981m-41.67-106.739h78.324a3.218 3.218 0 0 1 3.21 3.208v43.399a3.218 3.218 0 0 1-3.21 3.208h-78.324a3.218 3.218 0 0 1-3.21-3.208V238.13a3.218 3.218 0 0 1 3.21-3.208M358.98 341.661h-39.884c-2.745 0-4.986-2.241-4.986-4.981v-39.852c0-2.74 2.241-4.981 4.986-4.981h39.884c2.742 0 4.986 2.241 4.986 4.981v39.852c0 2.74-2.244 4.981-4.986 4.981m59.827 0h-39.884c-2.745 0-4.986-2.241-4.986-4.981v-39.852c0-2.74 2.241-4.981 4.986-4.981h39.884c2.742 0 4.986 2.241 4.986 4.981v39.852c0 2.74-2.244 4.981-4.986 4.981m234.249-106.739h39.884c2.742 0 4.986 2.242 4.986 4.982v39.851c0 2.74-2.244 4.982-4.986 4.982h-39.884c-2.745 0-4.986-2.242-4.986-4.982v-39.851c0-2.74 2.241-4.982 4.986-4.982m-59.827 0h39.884c2.742 0 4.986 2.242 4.986 4.982v39.851c0 2.74-2.244 4.982-4.986 4.982H593.23c-2.745 0-4.986-2.242-4.986-4.982v-39.851c0-2.74 2.241-4.982 4.986-4.982m-59.828 0h39.885c2.742 0 4.985 2.242 4.985 4.982v39.851c0 2.74-2.243 4.982-4.985 4.982h-39.885c-2.744 0-4.985-2.242-4.985-4.982v-39.851c0-2.74 2.24-4.982 4.985-4.982m-59.827 0h39.885c2.742 0 4.985 2.242 4.985 4.982v39.851c0 2.74-2.243 4.982-4.985 4.982h-39.885c-2.744 0-4.985-2.242-4.985-4.982v-39.851c0-2.74 2.24-4.982 4.985-4.982m-59.827 0h39.885c2.742 0 4.986 2.242 4.986 4.982v39.851c0 2.74-2.244 4.982-4.986 4.982h-39.885c-2.744 0-4.985-2.242-4.985-4.982v-39.851c0-2.74 2.24-4.982 4.985-4.982m-59.826 0h39.884c2.742 0 4.986 2.242 4.986 4.982v39.851c0 2.74-2.244 4.982-4.986 4.982h-39.884c-2.745 0-4.986-2.242-4.986-4.982v-39.851c0-2.74 2.241-4.982 4.986-4.982m-94.663-56.923h49.856c2.742 0 4.985 2.242 4.985 4.981v39.852c0 2.74-2.243 4.982-4.985 4.982h-49.856c-2.745 0-4.986-2.242-4.986-4.982V182.98c0-2.74 2.241-4.981 4.986-4.981m369.076 0h39.884c2.742 0 4.986 2.242 4.986 4.981v39.852c0 2.74-2.244 4.982-4.986 4.982h-39.884c-2.742 0-4.986-2.242-4.986-4.982V182.98c0-2.74 2.244-4.981 4.986-4.981m-59.827 0h39.884c2.743 0 4.986 2.242 4.986 4.981v39.852c0 2.74-2.243 4.982-4.986 4.982h-39.884c-2.742 0-4.986-2.242-4.986-4.982V182.98c0-2.74 2.244-4.981 4.986-4.981m-59.827 0h39.885c2.742 0 4.985 2.242 4.985 4.981v39.852c0 2.74-2.243 4.982-4.985 4.982H508.68c-2.742 0-4.985-2.242-4.985-4.982V182.98c0-2.74 2.243-4.981 4.985-4.981m-59.826 0h39.885c2.742 0 4.985 2.242 4.985 4.981v39.852c0 2.74-2.243 4.982-4.985 4.982h-39.885c-2.742 0-4.985-2.242-4.985-4.982V182.98c0-2.74 2.243-4.981 4.985-4.981m-59.826 0h39.884c2.742 0 4.986 2.242 4.986 4.981v39.852c0 2.74-2.244 4.982-4.986 4.982h-39.884c-2.743 0-4.986-2.242-4.986-4.982V182.98c0-2.74 2.243-4.981 4.986-4.981m-59.828 0h39.885c2.742 0 4.986 2.242 4.986 4.981v39.852c0 2.74-2.244 4.982-4.986 4.982h-39.884c-2.742 0-4.986-2.242-4.986-4.982V182.98c0-2.74 2.244-4.981 4.986-4.981m81.964-7.058h-39.884c-2.745 0-4.986-2.241-4.986-4.981v-39.852c0-2.74 2.241-4.981 4.986-4.981h39.884c2.743 0 4.986 2.241 4.986 4.981v39.852c0 2.74-2.243 4.981-4.986 4.981m59.827 0h-39.884c-2.745 0-4.986-2.241-4.986-4.981v-39.852c0-2.74 2.241-4.981 4.986-4.981h39.884c2.742 0 4.986 2.241 4.986 4.981v39.852c0 2.74-2.244 4.981-4.986 4.981m59.828 0h-39.885c-2.745 0-4.986-2.241-4.986-4.981v-39.852c0-2.74 2.241-4.981 4.986-4.981h39.884c2.742 0 4.986 2.241 4.986 4.981v39.852c0 2.74-2.244 4.981-4.986 4.981m59.827 0H550.76c-2.744 0-4.985-2.241-4.985-4.981v-39.852c0-2.74 2.24-4.981 4.985-4.981h39.885c2.742 0 4.985 2.241 4.985 4.981v39.852c0 2.74-2.243 4.981-4.985 4.981m59.828 0h-39.885c-2.744 0-4.985-2.241-4.985-4.981v-39.852c0-2.74 2.24-4.981 4.985-4.981h39.885c2.742 0 4.985 2.241 4.985 4.981v39.852c0 2.74-2.243 4.981-4.985 4.981m59.827 0h-39.885c-2.745 0-4.986-2.241-4.986-4.981v-39.852c0-2.74 2.241-4.981 4.986-4.981h39.884c2.743 0 4.986 2.241 4.986 4.981v39.852c0 2.74-2.243 4.981-4.986 4.981m-398.692-49.814h39.885c2.742 0 4.986 2.241 4.986 4.981v39.852c0 2.74-2.244 4.981-4.986 4.981h-39.885c-2.744 0-4.985-2.241-4.985-4.981v-39.852c0-2.74 2.24-4.981 4.985-4.981m-52.348-34.871h52.847c2.742 0 4.986 2.242 4.986 4.982v14.944c0 2.74-2.244 4.982-4.986 4.982h-52.847c-2.745 0-4.986-2.242-4.986-4.982V91.238c0-2.74 2.241-4.982 4.986-4.982m0 34.871h32.406c2.742 0 4.986 2.241 4.986 4.981v39.852c0 2.74-2.244 4.981-4.986 4.981H259.26c-2.745 0-4.986-2.241-4.986-4.981v-39.852c0-2.74 2.241-4.981 4.986-4.981m528.5 220.534H438.69c-2.742 0-4.986-2.241-4.986-4.981v-39.852c0-2.74 2.244-4.981 4.986-4.981h349.07c2.742 0 4.985 2.241 4.985 4.981v39.852c0 2.74-2.243 4.981-4.985 4.981M332.046 86.256h52.848c2.742 0 4.985 2.242 4.985 4.982v14.944c0 2.74-2.243 4.982-4.985 4.982h-52.848c-2.742 0-4.985-2.242-4.985-4.982V91.238c0-2.74 2.243-4.982 4.985-4.982m72.79 0h52.845c2.744 0 4.985 2.242 4.985 4.982v14.944c0 2.74-2.24 4.982-4.985 4.982h-52.845c-2.744 0-4.985-2.242-4.985-4.982V91.238c0-2.74 2.24-4.982 4.985-4.982m72.788 0h52.847c2.742 0 4.985 2.242 4.985 4.982v14.944c0 2.74-2.243 4.982-4.985 4.982h-52.847c-2.743 0-4.986-2.242-4.986-4.982V91.238c0-2.74 2.243-4.982 4.986-4.982m72.786 0h52.848c2.744 0 4.985 2.242 4.985 4.982v14.944c0 2.74-2.24 4.982-4.985 4.982H550.41c-2.742 0-4.986-2.242-4.986-4.982V91.238c0-2.74 2.244-4.982 4.986-4.982m72.79 0h52.848c2.742 0 4.985 2.242 4.985 4.982v14.944c0 2.74-2.243 4.982-4.985 4.982H623.2c-2.745 0-4.986-2.242-4.986-4.982V91.238c0-2.74 2.241-4.982 4.986-4.982m-314.095-50.8h64.813v-9.963h-64.813zm0 9.964h64.813v-9.964h-64.813z" fill="#DADCE0" mask="url(#b)"/><path d="M301.627 212.42c0 82.536-66.964 149.444-149.567 149.444-82.604 0-149.567-66.908-149.567-149.444 0-82.535 66.963-149.444 149.567-149.444 82.603 0 149.567 66.909 149.567 149.444" fill="#FFF" mask="url(#b)"/></g><g transform="translate(85 148)"><mask id="d" fill="#fff"><use xlink:href="#c"/></mask><path d="M258.751 634.912c-13.89 0-25.193-11.286-25.193-25.158V-8.896h969.535v618.65c0 13.872-11.302 25.158-25.193 25.158H258.75z" fill="#F1F3F4" mask="url(#d)"/></g><g transform="translate(85 148)"><mask id="f" fill="#fff"><use xlink:href="#e"/></mask><path d="M1205.584-11.384H231.066v621.136c0 15.27 12.394 27.65 27.685 27.65H1177.9c15.288 0 27.684-12.38 27.684-27.65V-11.384zm-4.983 4.977v616.159c0 12.5-10.186 22.673-22.701 22.673H258.75c-12.518 0-22.701-10.172-22.701-22.673V-6.408H1200.6z" fill="#DADCE0" mask="url(#f)"/></g><path d="M383.634 297.543c0 82.54-66.979 149.45-149.601 149.45-82.623 0-149.602-66.91-149.602-149.45 0-82.539 66.98-149.45 149.602-149.45s149.601 66.911 149.601 149.45z" stroke="#D2E3FC" stroke-width="4"/><g transform="matrix(-1 0 0 1 305 231)"><path d="M176.578 6H66.974C47.106 6 31 22.104 31 41.969v72.61C31 120.334 35.666 125 41.422 125h135.156c5.756 0 10.422-4.666 10.422-10.42V16.42C187 10.667 182.334 6 176.578 6zM66.974 12.05h109.604a4.37 4.37 0 0 1 4.37 4.37v98.16a4.37 4.37 0 0 1-4.37 4.37H41.422a4.37 4.37 0 0 1-4.37-4.37V41.968c0-16.523 13.396-29.918 29.922-29.918z" fill="#F1F3F4" fill-rule="nonzero"/><g transform="translate(0 24)"><g fill="#4682F4" fill-rule="nonzero"><path d="M1.695 71.126l-.318-55.82L12.824.882l89.606.3c6.156 0 11.193 4.497 11.193 9.992v59.952c0 5.496-5.037 9.992-11.193 9.992H12.888c-6.156 0-11.193-4.496-11.193-9.992z"/><path d="M76.945 63.4H15.78V17.931h42.7l18.464 18.3z"/></g><path d="M108.65 16.713v48.574c0 6.075-4.924 11-11 11H22.03c-6.076 0-11-4.925-11-11V16.713c0-6.075 4.924-11 11-11h75.62c6.076 0 11 4.925 11 11z" fill="#FFF" fill-rule="nonzero"/><rect fill="#E8F0FE" x="15.71" y="11.762" width="24.071" height="16.803" rx="3"/><rect fill="#E8F0FE" x="78.562" y="11.762" width="24.071" height="16.803" rx="3"/><rect fill="#D2E3FC" x="15.71" y="33.27" width="24.071" height="16.803" rx="3"/><rect fill="#D2E3FC" x="78.562" y="33.27" width="24.071" height="16.803" rx="3"/><path d="M45.13 54.778V14.762a3 3 0 0 1 3-3h23.42a3 3 0 0 1 3 3v53.82a3 3 0 0 1-3 3H48.13a3 3 0 0 1-3-3V58.139h-5.349v10.443a3 3 0 0 1-3 3h-18.07a3 3 0 0 1-3-3V57.779a3 3 0 0 1 3-3h26.42z" fill="#8DB6F9"/><rect fill="#8DB6F9" x="78.562" y="54.779" width="24.071" height="16.803" rx="3"/></g><path fill="#F1F3F4" d="M46 14h138v6H46zm-12 96h150v6H34z"/><rect fill="#BDC1C6" x="180" width="7" height="128" rx="1"/><path fill="#F1F3F4" d="M148 6h32v119h-32z"/></g><path fill="url(#g)" d="M0 0h765v600H0z"/></g></svg>