<svg width="560" height="142" fill="none" xmlns="http://www.w3.org/2000/svg"><path d="M530.105 116.869a8.148 8.148 0 0 0-2.99-11.141c-3.907-2.252-8.904-.915-11.16 2.985l-8.17 14.126c-2.256 3.9-.917 8.889 2.99 11.141 3.907 2.251 8.905.915 11.16-2.986l8.17-14.125z" fill="#81C995"/><path d="M530.105 116.869c-2.256 3.9-7.252 5.237-11.16 2.985a8.148 8.148 0 0 1-2.99-11.141c2.256-3.9 7.252-5.237 11.16-2.985a8.148 8.148 0 0 1 2.99 11.141z" fill="#34A853"/><path d="M521.935 130.994c-2.256 3.9-7.252 5.237-11.16 2.985a8.148 8.148 0 0 1-2.99-11.141c2.256-3.9 7.252-5.237 11.16-2.985a8.148 8.148 0 0 1 2.99 11.141z" fill="#34A853"/><path d="m13.525 93.948 6.692-5.358a1.074 1.074 0 0 1 1.507.165l5.368 6.68a1.07 1.07 0 0 1-.166 1.505l-6.691 5.358a1.074 1.074 0 0 1-1.508-.165l-5.368-6.68a1.07 1.07 0 0 1 .166-1.505z" fill="#E8EAED"/><path d="m540.163 41.52 9.496-2.54 2.809 10.467-9.496 2.54-2.809-10.467z" fill="#F9AB00"/><path d="M542.973 51.988a5.43 5.43 0 0 1-6.648-3.83 5.417 5.417 0 0 1 3.838-6.637 5.43 5.43 0 0 1 6.648 3.832 5.418 5.418 0 0 1-3.838 6.635z" fill="#FBBC04"/><path d="m548.875 39.19 4.843-1.295c.374-.1.774.006 1.049.281l3.546 3.54c.275.273.382.672.281 1.047l-1.298 4.836a1.086 1.086 0 0 1-.767.767l-4.843 1.295c-.374.1-.774-.006-1.049-.28l-3.546-3.54a1.079 1.079 0 0 1-.281-1.048l1.298-4.836a1.08 1.08 0 0 1 .767-.766z" fill="#FBBC04"/><path d="m50.244 130.801 7.21-4.565 5.049 7.948-7.21 4.564-5.05-7.947z" fill="#F9AB00"/><path d="M55.294 138.751a4.718 4.718 0 0 1-6.505-1.454 4.7 4.7 0 0 1 1.456-6.494 4.718 4.718 0 0 1 6.505 1.454 4.7 4.7 0 0 1-1.456 6.494z" fill="#FBBC04"/><path d="m56.86 126.616 3.677-2.328a.942.942 0 0 1 .942-.039l3.86 2.015a.94.94 0 0 1 .505.795l.18 4.345a.943.943 0 0 1-.436.834l-3.678 2.328a.947.947 0 0 1-.942.039l-3.859-2.016a.939.939 0 0 1-.505-.795l-.181-4.344a.936.936 0 0 1 .437-.834z" fill="#FBBC04"/><path d="M81.67 12.002c.261.973.125 2.01-.38 2.881a3.81 3.81 0 0 1-5.196 1.39 3.798 3.798 0 0 1-1.773-2.305l-1.969-7.336a3.792 3.792 0 0 1 .38-2.882 3.81 3.81 0 0 1 5.196-1.39 3.798 3.798 0 0 1 1.773 2.306l1.97 7.336z" fill="#E8EAED"/><path d="m11.142 25.39 19.024 10.964a1.39 1.39 0 0 1 .696 1.203v6.415a1.387 1.387 0 0 1-.696 1.203l-5.565 3.207a1.393 1.393 0 0 1-1.391 0L4.185 37.417a1.39 1.39 0 0 1-.696-1.203V29.8a1.387 1.387 0 0 1 .696-1.203l5.565-3.208a1.393 1.393 0 0 1 1.392 0z" fill="#8AB4F8"/><path d="m10.944 25.278 5.565 3.207a1.391 1.391 0 0 1 .696 1.203v6.415a1.387 1.387 0 0 1-.696 1.203l-5.565 3.207a1.393 1.393 0 0 1-1.391 0l-5.566-3.207a1.39 1.39 0 0 1-.695-1.203v-6.415a1.387 1.387 0 0 1 .695-1.203l5.566-3.207a1.394 1.394 0 0 1 1.39 0zm13.72 7.904 5.565 3.207a1.39 1.39 0 0 1 .695 1.203v6.415a1.388 1.388 0 0 1-.695 1.203l-5.565 3.207a1.393 1.393 0 0 1-1.392 0l-5.565-3.207a1.39 1.39 0 0 1-.695-1.203v-6.415a1.388 1.388 0 0 1 .695-1.203l5.565-3.207a1.393 1.393 0 0 1 1.392 0z" fill="#3982F8"/><path d="m498.796 4.84-2.856 10.643a.561.561 0 0 1-.4.4.569.569 0 0 1-.547-.147l-7.804-7.79a.57.57 0 0 1-.147-.546.57.57 0 0 1 .4-.4l10.662-2.851a.564.564 0 0 1 .692.692z" fill="#E8EAED"/><ellipse rx="6.005" ry="5.995" transform="matrix(-1 0 0 1 463.92 131.879)" fill="#E8EAED"/></svg>