<?xml version="1.0" encoding="UTF-8"?>
<!--Generator: Apple Native CoreSVG 149-->
<!DOCTYPE svg
PUBLIC "-//W3C//DTD SVG 1.1//EN"
       "http://www.w3.org/Graphics/SVG/1.1/DTD/svg11.dtd">
<svg version="1.1" xmlns="http://www.w3.org/2000/svg" xmlns:xlink="http://www.w3.org/1999/xlink" width="3300" height="2200">
 <!--glyph: "", point size: 100.0, font version: "17.0d8e1", template writer version: "58"-->
 <g id="Notes">
  <rect height="2200" id="artboard" style="fill:white;opacity:1" width="3300" x="0" y="0"/>
  <line style="fill:none;stroke:black;opacity:1;stroke-width:0.5;" x1="263" x2="3036" y1="292" y2="292"/>
  <text style="stroke:none;fill:black;font-family:SF Pro,SF Pro Display,SF Pro Text,sans-serif;font-size:13;font-weight:bold;" transform="matrix(1 0 0 1 263 322)">Weight/Scale Variations</text>
  <text style="stroke:none;fill:black;font-family:SF Pro,SF Pro Display,SF Pro Text,sans-serif;font-size:13;text-anchor:middle;" transform="matrix(1 0 0 1 559.711 322)">Ultralight</text>
  <text style="stroke:none;fill:black;font-family:SF Pro,SF Pro Display,SF Pro Text,sans-serif;font-size:13;text-anchor:middle;" transform="matrix(1 0 0 1 856.422 322)">Thin</text>
  <text style="stroke:none;fill:black;font-family:SF Pro,SF Pro Display,SF Pro Text,sans-serif;font-size:13;text-anchor:middle;" transform="matrix(1 0 0 1 1153.13 322)">Light</text>
  <text style="stroke:none;fill:black;font-family:SF Pro,SF Pro Display,SF Pro Text,sans-serif;font-size:13;text-anchor:middle;" transform="matrix(1 0 0 1 1449.84 322)">Regular</text>
  <text style="stroke:none;fill:black;font-family:SF Pro,SF Pro Display,SF Pro Text,sans-serif;font-size:13;text-anchor:middle;" transform="matrix(1 0 0 1 1746.56 322)">Medium</text>
  <text style="stroke:none;fill:black;font-family:SF Pro,SF Pro Display,SF Pro Text,sans-serif;font-size:13;text-anchor:middle;" transform="matrix(1 0 0 1 2043.27 322)">Semibold</text>
  <text style="stroke:none;fill:black;font-family:SF Pro,SF Pro Display,SF Pro Text,sans-serif;font-size:13;text-anchor:middle;" transform="matrix(1 0 0 1 2339.98 322)">Bold</text>
  <text style="stroke:none;fill:black;font-family:SF Pro,SF Pro Display,SF Pro Text,sans-serif;font-size:13;text-anchor:middle;" transform="matrix(1 0 0 1 2636.69 322)">Heavy</text>
  <text style="stroke:none;fill:black;font-family:SF Pro,SF Pro Display,SF Pro Text,sans-serif;font-size:13;text-anchor:middle;" transform="matrix(1 0 0 1 2933.4 322)">Black</text>
  <line style="fill:none;stroke:black;opacity:1;stroke-width:0.5;" x1="263" x2="3036" y1="1903" y2="1903"/>
  <g transform="matrix(1 0 0 1 263 1933)">
   <path d="M9.24805 0.830078Q10.8691 0.830078 12.2949 0.214844Q13.7207-0.400391 14.8096-1.49414Q15.8984-2.58789 16.5186-4.01367Q17.1387-5.43945 17.1387-7.05078Q17.1387-8.66211 16.5186-10.0879Q15.8984-11.5137 14.8047-12.6074Q13.7109-13.7012 12.2852-14.3164Q10.8594-14.9316 9.23828-14.9316Q7.62695-14.9316 6.20117-14.3164Q4.77539-13.7012 3.69141-12.6074Q2.60742-11.5137 1.9873-10.0879Q1.36719-8.66211 1.36719-7.05078Q1.36719-5.43945 1.9873-4.01367Q2.60742-2.58789 3.69629-1.49414Q4.78516-0.400391 6.21094 0.214844Q7.63672 0.830078 9.24805 0.830078ZM9.24805-0.654297Q7.91992-0.654297 6.7627-1.14746Q5.60547-1.64062 4.73145-2.51953Q3.85742-3.39844 3.36426-4.56055Q2.87109-5.72266 2.87109-7.05078Q2.87109-8.37891 3.35938-9.54102Q3.84766-10.7031 4.72168-11.582Q5.5957-12.4609 6.75293-12.9541Q7.91016-13.4473 9.23828-13.4473Q10.5762-13.4473 11.7334-12.9541Q12.8906-12.4609 13.7695-11.582Q14.6484-10.7031 15.1465-9.54102Q15.6445-8.37891 15.6445-7.05078Q15.6445-5.72266 15.1514-4.56055Q14.6582-3.39844 13.7842-2.51953Q12.9102-1.64062 11.748-1.14746Q10.5859-0.654297 9.24805-0.654297ZM5.83984-7.04102Q5.83984-6.71875 6.04492-6.51855Q6.25-6.31836 6.5918-6.31836L8.50586-6.31836L8.50586-4.39453Q8.50586-4.0625 8.70605-3.85742Q8.90625-3.65234 9.22852-3.65234Q9.56055-3.65234 9.76562-3.85742Q9.9707-4.0625 9.9707-4.39453L9.9707-6.31836L11.8945-6.31836Q12.2266-6.31836 12.4316-6.51855Q12.6367-6.71875 12.6367-7.04102Q12.6367-7.37305 12.4316-7.57812Q12.2266-7.7832 11.8945-7.7832L9.9707-7.7832L9.9707-9.69727Q9.9707-10.0391 9.76562-10.2441Q9.56055-10.4492 9.22852-10.4492Q8.90625-10.4492 8.70605-10.2441Q8.50586-10.0391 8.50586-9.69727L8.50586-7.7832L6.5918-7.7832Q6.25-7.7832 6.04492-7.57812Q5.83984-7.37305 5.83984-7.04102Z"/>
  </g>
  <g transform="matrix(1 0 0 1 281.867 1933)">
   <path d="M11.709 2.91016Q13.75 2.91016 15.5518 2.12891Q17.3535 1.34766 18.7305-0.0292969Q20.1074-1.40625 20.8887-3.20801Q21.6699-5.00977 21.6699-7.05078Q21.6699-9.0918 20.8887-10.8936Q20.1074-12.6953 18.7305-14.0723Q17.3535-15.4492 15.5469-16.2305Q13.7402-17.0117 11.6992-17.0117Q9.6582-17.0117 7.85645-16.2305Q6.05469-15.4492 4.68262-14.0723Q3.31055-12.6953 2.5293-10.8936Q1.74805-9.0918 1.74805-7.05078Q1.74805-5.00977 2.5293-3.20801Q3.31055-1.40625 4.6875-0.0292969Q6.06445 1.34766 7.86621 2.12891Q9.66797 2.91016 11.709 2.91016ZM11.709 1.25Q9.98047 1.25 8.47656 0.605469Q6.97266-0.0390625 5.83496-1.17676Q4.69727-2.31445 4.05762-3.81836Q3.41797-5.32227 3.41797-7.05078Q3.41797-8.7793 4.05762-10.2832Q4.69727-11.7871 5.83008-12.9297Q6.96289-14.0723 8.4668-14.7119Q9.9707-15.3516 11.6992-15.3516Q13.4277-15.3516 14.9316-14.7119Q16.4355-14.0723 17.5781-12.9297Q18.7207-11.7871 19.3652-10.2832Q20.0098-8.7793 20.0098-7.05078Q20.0098-5.32227 19.3701-3.81836Q18.7305-2.31445 17.5928-1.17676Q16.4551-0.0390625 14.9463 0.605469Q13.4375 1.25 11.709 1.25ZM7.39258-7.04102Q7.39258-6.68945 7.62695-6.46484Q7.86133-6.24023 8.23242-6.24023L10.8789-6.24023L10.8789-3.57422Q10.8789-3.21289 11.1035-2.9834Q11.3281-2.75391 11.6797-2.75391Q12.0508-2.75391 12.2852-2.9834Q12.5195-3.21289 12.5195-3.57422L12.5195-6.24023L15.1758-6.24023Q15.5371-6.24023 15.7715-6.46484Q16.0059-6.68945 16.0059-7.04102Q16.0059-7.41211 15.7715-7.6416Q15.5371-7.87109 15.1758-7.87109L12.5195-7.87109L12.5195-10.5176Q12.5195-10.8984 12.2852-11.1279Q12.0508-11.3574 11.6797-11.3574Q11.3281-11.3574 11.1035-11.1279Q10.8789-10.8984 10.8789-10.5176L10.8789-7.87109L8.23242-7.87109Q7.85156-7.87109 7.62207-7.6416Q7.39258-7.41211 7.39258-7.04102Z"/>
  </g>
  <g transform="matrix(1 0 0 1 305.646 1933)">
   <path d="M14.9707 5.66406Q17.0605 5.66406 18.96 5.01465Q20.8594 4.36523 22.4512 3.19336Q24.043 2.02148 25.2197 0.429688Q26.3965-1.16211 27.0459-3.06641Q27.6953-4.9707 27.6953-7.05078Q27.6953-9.14062 27.0459-11.04Q26.3965-12.9395 25.2197-14.5312Q24.043-16.123 22.4512-17.2998Q20.8594-18.4766 18.9551-19.126Q17.0508-19.7754 14.9609-19.7754Q12.8711-19.7754 10.9717-19.126Q9.07227-18.4766 7.48535-17.2998Q5.89844-16.123 4.72168-14.5312Q3.54492-12.9395 2.90039-11.04Q2.25586-9.14062 2.25586-7.05078Q2.25586-4.9707 2.90527-3.06641Q3.55469-1.16211 4.72656 0.429688Q5.89844 2.02148 7.49023 3.19336Q9.08203 4.36523 10.9814 5.01465Q12.8809 5.66406 14.9707 5.66406ZM14.9707 3.84766Q13.1641 3.84766 11.5283 3.2959Q9.89258 2.74414 8.53516 1.74805Q7.17773 0.751953 6.17676-0.610352Q5.17578-1.97266 4.62891-3.6084Q4.08203-5.24414 4.08203-7.05078Q4.08203-8.86719 4.62891-10.5029Q5.17578-12.1387 6.17188-13.501Q7.16797-14.8633 8.52539-15.8594Q9.88281-16.8555 11.5186-17.4023Q13.1543-17.9492 14.9609-17.9492Q16.7773-17.9492 18.4131-17.4023Q20.0488-16.8555 21.4111-15.8594Q22.7734-14.8633 23.7695-13.501Q24.7656-12.1387 25.3174-10.5029Q25.8691-8.86719 25.8691-7.05078Q25.8789-5.24414 25.332-3.6084Q24.7852-1.97266 23.7842-0.610352Q22.7832 0.751953 21.4209 1.74805Q20.0586 2.74414 18.4229 3.2959Q16.7871 3.84766 14.9707 3.84766ZM9.45312-7.04102Q9.45312-6.66016 9.71191-6.41113Q9.9707-6.16211 10.3711-6.16211L14.0625-6.16211L14.0625-2.46094Q14.0625-2.06055 14.3115-1.80664Q14.5605-1.55273 14.9414-1.55273Q15.3516-1.55273 15.6055-1.80664Q15.8594-2.06055 15.8594-2.46094L15.8594-6.16211L19.5605-6.16211Q19.9609-6.16211 20.2148-6.41113Q20.4688-6.66016 20.4688-7.04102Q20.4688-7.45117 20.2148-7.70508Q19.9609-7.95898 19.5605-7.95898L15.8594-7.95898L15.8594-11.6504Q15.8594-12.0605 15.6055-12.3145Q15.3516-12.5684 14.9414-12.5684Q14.5605-12.5684 14.3115-12.3096Q14.0625-12.0508 14.0625-11.6504L14.0625-7.95898L10.3711-7.95898Q9.96094-7.95898 9.70703-7.70508Q9.45312-7.45117 9.45312-7.04102Z"/>
  </g>
  <text style="stroke:none;fill:black;font-family:SF Pro,SF Pro Display,SF Pro Text,sans-serif;font-size:13;font-weight:bold;" transform="matrix(1 0 0 1 263 1953)">Design Variations</text>
  <text style="stroke:none;fill:black;font-family:SF Pro,SF Pro Display,SF Pro Text,sans-serif;font-size:13;" transform="matrix(1 0 0 1 263 1971)">Symbols are supported in up to nine weights and three scales.</text>
  <text style="stroke:none;fill:black;font-family:SF Pro,SF Pro Display,SF Pro Text,sans-serif;font-size:13;" transform="matrix(1 0 0 1 263 1989)">For optimal layout with text and other symbols, vertically align</text>
  <text style="stroke:none;fill:black;font-family:SF Pro,SF Pro Display,SF Pro Text,sans-serif;font-size:13;" transform="matrix(1 0 0 1 263 2007)">symbols with the adjacent text.</text>
  <line style="fill:none;stroke:#00AEEF;stroke-width:0.5;opacity:1.0;" x1="776" x2="776" y1="1919" y2="1933"/>
  <g transform="matrix(1 0 0 1 776 1933)">
   <path d="M3.31055 0.15625Q3.70117 0.15625 3.91602-0.00976562Q4.13086-0.175781 4.26758-0.585938L5.52734-4.0332L11.2891-4.0332L12.5488-0.585938Q12.6855-0.175781 12.9004-0.00976562Q13.1152 0.15625 13.4961 0.15625Q13.8867 0.15625 14.1162-0.0585938Q14.3457-0.273438 14.3457-0.644531Q14.3457-0.869141 14.2383-1.17188L9.6582-13.3691Q9.48242-13.8184 9.17969-14.043Q8.87695-14.2676 8.4082-14.2676Q7.5-14.2676 7.17773-13.3789L2.59766-1.16211Q2.49023-0.859375 2.49023-0.634766Q2.49023-0.263672 2.70996-0.0537109Q2.92969 0.15625 3.31055 0.15625ZM6.00586-5.51758L8.37891-12.0898L8.42773-12.0898L10.8008-5.51758Z"/>
  </g>
  <line style="fill:none;stroke:#00AEEF;stroke-width:0.5;opacity:1.0;" x1="793.197" x2="793.197" y1="1919" y2="1933"/>
  <text style="stroke:none;fill:black;font-family:SF Pro,SF Pro Display,SF Pro Text,sans-serif;font-size:13;font-weight:bold;" transform="matrix(1 0 0 1 776 1953)">Margins</text>
  <text style="stroke:none;fill:black;font-family:SF Pro,SF Pro Display,SF Pro Text,sans-serif;font-size:13;" transform="matrix(1 0 0 1 776 1971)">Leading and trailing margins on the left and right side of each symbol</text>
  <text style="stroke:none;fill:black;font-family:SF Pro,SF Pro Display,SF Pro Text,sans-serif;font-size:13;" transform="matrix(1 0 0 1 776 1989)">can be adjusted by modifying the x-location of the margin guidelines.</text>
  <text style="stroke:none;fill:black;font-family:SF Pro,SF Pro Display,SF Pro Text,sans-serif;font-size:13;" transform="matrix(1 0 0 1 776 2007)">Modifications are automatically applied proportionally to all</text>
  <text style="stroke:none;fill:black;font-family:SF Pro,SF Pro Display,SF Pro Text,sans-serif;font-size:13;" transform="matrix(1 0 0 1 776 2025)">scales and weights.</text>
  <g transform="matrix(1 0 0 1 1289 1933)">
   <path d="M2.8418 1.86523L4.54102 3.57422Q5.18555 4.22852 5.90332 4.17969Q6.62109 4.13086 7.31445 3.35938L18.0078-8.42773L17.041-9.4043L6.42578 2.27539Q6.16211 2.57812 5.89355 2.61719Q5.625 2.65625 5.27344 2.30469L4.10156 1.14258Q3.75 0.791016 3.79395 0.522461Q3.83789 0.253906 4.14062-0.0195312L15.6152-10.8203L14.6387-11.7871L3.04688-0.898438Q2.30469-0.214844 2.25098 0.498047Q2.19727 1.21094 2.8418 1.86523ZM9.25781-16.3281Q8.94531-16.0254 8.90625-15.6348Q8.86719-15.2441 9.04297-14.9512Q9.21875-14.6777 9.55566-14.541Q9.89258-14.4043 10.3809-14.5215Q11.4746-14.7754 12.5977-14.7314Q13.7207-14.6875 14.7949-13.9844L14.209-12.5293Q13.9551-11.9043 14.0674-11.4404Q14.1797-10.9766 14.5801-10.5664L16.875-8.25195Q17.2363-7.88086 17.5781-7.82227Q17.9199-7.76367 18.3398-7.8418L19.4043-8.03711L20.0684-7.36328L20.0293-6.80664Q20-6.43555 20.1221-6.12305Q20.2441-5.81055 20.6055-5.44922L21.3672-4.70703Q21.7285-4.3457 22.1533-4.33105Q22.5781-4.31641 22.9297-4.66797L25.8398-7.58789Q26.1914-7.93945 26.1816-8.35449Q26.1719-8.76953 25.8105-9.13086L25.0391-9.89258Q24.6875-10.2539 24.3799-10.3857Q24.0723-10.5176 23.7109-10.4883L23.1348-10.4395L22.4902-11.0742L22.7344-12.1973Q22.832-12.6172 22.6953-12.9834Q22.5586-13.3496 22.1191-13.7891L19.9219-15.9766Q18.6719-17.2168 17.2607-17.8369Q15.8496-18.457 14.4189-18.4814Q12.9883-18.5059 11.665-17.959Q10.3418-17.4121 9.25781-16.3281ZM10.752-15.957Q11.6602-16.6211 12.7002-16.9043Q13.7402-17.1875 14.8047-17.085Q15.8691-16.9824 16.8701-16.5137Q17.8711-16.0449 18.7012-15.2051L21.1328-12.793Q21.3086-12.6172 21.3525-12.4512Q21.3965-12.2852 21.3379-12.0312L21.0156-10.5469L22.5195-9.0625L23.5059-9.12109Q23.6914-9.13086 23.7891-9.09668Q23.8867-9.0625 24.0332-8.91602L24.6094-8.33984L22.168-5.89844L21.5918-6.47461Q21.4453-6.62109 21.4062-6.71875Q21.3672-6.81641 21.377-7.01172L21.4453-7.98828L19.9512-9.47266L18.4277-9.21875Q18.1836-9.16992 18.042-9.2041Q17.9004-9.23828 17.7148-9.41406L15.7129-11.416Q15.5176-11.5918 15.4932-11.7529Q15.4688-11.9141 15.5859-12.1875L16.4648-14.2773Q15.293-15.3711 13.8281-15.791Q12.3633-16.2109 10.8398-15.7617Q10.7227-15.7324 10.6885-15.8057Q10.6543-15.8789 10.752-15.957Z"/>
  </g>
  <text style="stroke:none;fill:black;font-family:SF Pro,SF Pro Display,SF Pro Text,sans-serif;font-size:13;font-weight:bold;" transform="matrix(1 0 0 1 1289 1953)">Exporting</text>
  <text style="stroke:none;fill:black;font-family:SF Pro,SF Pro Display,SF Pro Text,sans-serif;font-size:13;" transform="matrix(1 0 0 1 1289 1971)">Symbols should be outlined when exporting to ensure the</text>
  <text style="stroke:none;fill:black;font-family:SF Pro,SF Pro Display,SF Pro Text,sans-serif;font-size:13;" transform="matrix(1 0 0 1 1289 1989)">design is preserved when submitting to Xcode.</text>
  <text id="template-version" style="stroke:none;fill:black;font-family:SF Pro,SF Pro Display,SF Pro Text,sans-serif;font-size:13;text-anchor:end;" transform="matrix(1 0 0 1 3036 1933)">Template v.2.0</text>
  <text style="stroke:none;fill:black;font-family:SF Pro,SF Pro Display,SF Pro Text,sans-serif;font-size:13;text-anchor:end;" transform="matrix(1 0 0 1 3036 1951)">Requires Xcode 13 or greater</text>
  <text id="descriptive-name" style="stroke:none;fill:black;font-family:SF Pro,SF Pro Display,SF Pro Text,sans-serif;font-size:13;text-anchor:end;" transform="matrix(1 0 0 1 3036 1969)">Generated from incognito.cr</text>
  <text style="stroke:none;fill:black;font-family:SF Pro,SF Pro Display,SF Pro Text,sans-serif;font-size:13;text-anchor:end;" transform="matrix(1 0 0 1 3036 1987)">Typeset at 100 points</text>
  <text style="stroke:none;fill:black;font-family:SF Pro,SF Pro Display,SF Pro Text,sans-serif;font-size:13;" transform="matrix(1 0 0 1 263 726)">Small</text>
  <text style="stroke:none;fill:black;font-family:SF Pro,SF Pro Display,SF Pro Text,sans-serif;font-size:13;" transform="matrix(1 0 0 1 263 1156)">Medium</text>
  <text style="stroke:none;fill:black;font-family:SF Pro,SF Pro Display,SF Pro Text,sans-serif;font-size:13;" transform="matrix(1 0 0 1 263 1586)">Large</text>
 </g>
 <g id="Guides">
  <g id="H-reference" style="fill:#27AAE1;stroke:none;" transform="matrix(1 0 0 1 339 696)">
   <path d="M0.993347 0L3.6377 0L29.3282-67.1326L30.0301-67.1326L30.0301-70.459L28.1227-70.459ZM11.6882-24.4797L46.9818-24.4797L46.2311-26.7288L12.4382-26.7288ZM55.1193 0L57.7637 0L30.6381-70.459L29.4327-70.459L29.4327-67.1326Z"/>
  </g>
  <line id="Baseline-S" style="fill:none;stroke:#27AAE1;opacity:1;stroke-width:0.5;" x1="263" x2="3036" y1="696" y2="696"/>
  <line id="Capline-S" style="fill:none;stroke:#27AAE1;opacity:1;stroke-width:0.5;" x1="263" x2="3036" y1="625.541" y2="625.541"/>
  <g id="H-reference" style="fill:#27AAE1;stroke:none;" transform="matrix(1 0 0 1 339 1126)">
   <path d="M0.993347 0L3.6377 0L29.3282-67.1326L30.0301-67.1326L30.0301-70.459L28.1227-70.459ZM11.6882-24.4797L46.9818-24.4797L46.2311-26.7288L12.4382-26.7288ZM55.1193 0L57.7637 0L30.6381-70.459L29.4327-70.459L29.4327-67.1326Z"/>
  </g>
  <line id="Baseline-M" style="fill:none;stroke:#27AAE1;opacity:1;stroke-width:0.5;" x1="263" x2="3036" y1="1126" y2="1126"/>
  <line id="Capline-M" style="fill:none;stroke:#27AAE1;opacity:1;stroke-width:0.5;" x1="263" x2="3036" y1="1055.54" y2="1055.54"/>
  <g id="H-reference" style="fill:#27AAE1;stroke:none;" transform="matrix(1 0 0 1 339 1556)">
   <path d="M0.993347 0L3.6377 0L29.3282-67.1326L30.0301-67.1326L30.0301-70.459L28.1227-70.459ZM11.6882-24.4797L46.9818-24.4797L46.2311-26.7288L12.4382-26.7288ZM55.1193 0L57.7637 0L30.6381-70.459L29.4327-70.459L29.4327-67.1326Z"/>
  </g>
  <line id="Baseline-L" style="fill:none;stroke:#27AAE1;opacity:1;stroke-width:0.5;" x1="263" x2="3036" y1="1556" y2="1556"/>
  <line id="Capline-L" style="fill:none;stroke:#27AAE1;opacity:1;stroke-width:0.5;" x1="263" x2="3036" y1="1485.54" y2="1485.54"/>
  <line id="left-margin" style="fill:none;stroke:#00AEEF;stroke-width:0.5;opacity:1.0;" x1="1392.2" x2="1392.2" y1="1030.78" y2="1150.12"/>
  <line id="right-margin" style="fill:none;stroke:#00AEEF;stroke-width:0.5;opacity:1.0;" x1="1507.49" x2="1507.49" y1="1030.78" y2="1150.12"/>
 </g>
 <g id="Symbols">
  <g id="Black-L" transform="matrix(1 0 0 1 2854.26 1556)">
   <path d="M104.61-103.582L124.54-54.2316L145.17-54.2316C150.01-54.2316 153.92-50.3116 153.92-45.4816C153.92-40.6416 150.01-36.7316 145.17-36.7316L13.12-36.7316C8.29-36.7316 4.37-40.6416 4.37-45.4816C4.37-50.3116 8.29-54.2316 13.12-54.2316L31.41-54.2316L51.15-103.552C53.34-109.262 59.56-112.332 65.43-110.602L77.88-106.942L90.34-110.612C96.19-112.332 102.4-109.282 104.61-103.582ZM90.2-92.3316L80.51-89.4716C79.63-89.2216 78.74-89.1016 77.87-89.1216L77.4997-89.1216C76.7561-89.1385 75.9957-89.2573 75.25-89.4716L75.25-89.4716L65.58-92.3216L50.16-54.2316L105.77-54.2316L90.2-92.3316ZM114.7-31.0816C130.12-31.0816 142.63-18.5816 142.63-3.15161C142.63 12.2784 130.12 24.7784 114.7 24.7784C102.85 24.7784 92.73 17.4084 88.67 6.99839C88.48 6.89839 88.29 6.79839 88.1 6.67839C83.18 3.64839 80.39 2.89839 78.3 2.89839C76.21 2.89839 73.42 3.64839 68.49 6.67839C68.31 6.78839 68.12 6.89839 67.93 6.99839C63.87 17.4084 53.75 24.7784 41.9 24.7784C26.47 24.7784 13.97 12.2784 13.97-3.15161C13.97-18.5816 26.47-31.0816 41.9-31.0816C53.98-31.0816 64.27-23.4116 68.17-12.6816C71.42-13.8916 74.76-14.6016 78.3-14.6016C81.83-14.6016 85.18-13.8916 88.43-12.6816C92.33-23.4116 102.62-31.0816 114.7-31.0816ZM41.9-13.5816C36.14-13.5816 31.47-8.91161 31.47-3.15161C31.47 2.60839 36.14 7.27839 41.9 7.27839C47.66 7.27839 52.33 2.60839 52.33-3.15161C52.33-8.91161 47.66-13.5816 41.9-13.5816ZM104.26-3.15161C104.26 2.60839 108.94 7.27839 114.7 7.27839C120.46 7.27839 125.13 2.60839 125.13-3.15161C125.13-8.91161 120.46-13.5816 114.7-13.5816C108.94-13.5816 104.26-8.91161 104.26-3.15161Z"/>
  </g>
  <g id="Heavy-L" transform="matrix(1 0 0 1 2558.54 1556)">
   <path d="M102.67-103.114L122.85-53.1139L144.17-53.1139C148.45-53.1139 151.92-49.6539 151.92-45.3639C151.92-41.0839 148.45-37.6139 144.17-37.6139L12.12-37.6139C7.84-37.6139 4.37-41.0839 4.37-45.3639C4.37-49.6539 7.84-53.1139 12.12-53.1139L31.1-53.1139L31.11-53.1439L51.08-103.084C53.09-108.314 58.77-111.114 64.15-109.534L76.88-105.794L89.62-109.544C94.98-111.114 100.65-108.324 102.67-103.114ZM89.8-93.4339L79.23-90.3239C78.44-90.0939 77.65-89.9939 76.87-90.0139C76.1-89.9939 75.31-90.0939 74.53-90.3239L74.53-90.3239L63.97-93.4339L47.7-53.1139L106.23-53.1139L89.8-93.4339ZM113.7-30.9739C129.12-30.9739 141.63-18.4739 141.63-3.04393C141.63 12.3861 129.12 24.8861 113.7 24.8861C101.78 24.8861 91.6 17.4261 87.59 6.91607C82.62 3.85607 79.65 3.00607 77.3 3.00607C74.95 3.00607 71.98 3.85607 67.01 6.91607C63 17.4261 52.82 24.8861 40.9 24.8861C25.47 24.8861 12.97 12.3861 12.97-3.04393C12.97-18.4739 25.47-30.9739 40.9-30.9739C53.66-30.9739 64.43-22.4139 67.77-10.7239C70.85-11.8439 73.99-12.4939 77.3-12.4939C80.6-12.4939 83.75-11.8439 86.83-10.7239C90.17-22.4139 100.93-30.9739 113.7-30.9739ZM40.9-15.4739C34.03-15.4739 28.47-9.91393 28.47-3.04393C28.47 3.82607 34.03 9.38607 40.9 9.38607C47.77 9.38607 53.33 3.82607 53.33-3.04393C53.33-9.91393 47.77-15.4739 40.9-15.4739ZM101.26-3.04393C101.26 3.82607 106.83 9.38607 113.7 9.38607C120.56 9.38607 126.13 3.82607 126.13-3.04393C126.13-9.91393 120.56-15.4739 113.7-15.4739C106.83-15.4739 101.26-9.91393 101.26-3.04393Z"/>
  </g>
  <g id="Bold-L" transform="matrix(1 0 0 1 2263.33 1556)">
   <path d="M62.22-107.952L75.38-104.082L88.54-107.952C93.15-109.302 98.04-106.902 99.78-102.422L119.98-52.3625C120.09-52.0625 120.18-51.7625 120.25-51.4725L142.67-51.4725C146.12-51.4725 148.92-48.6725 148.92-45.2225C148.92-41.7625 146.12-38.9725 142.67-38.9725L10.62-38.9725C7.17-38.9725 4.37-41.7625 4.37-45.2225C4.37-48.6725 7.17-51.4725 10.62-51.4725L30.72-51.4725C30.79-51.8025 30.88-52.1325 31.01-52.4625L50.98-102.392C52.71-106.892 57.6-109.312 62.22-107.952ZM89.2-95.1125L77.3-91.6125C76.66-91.4225 76.01-91.3425 75.38-91.3625C74.74-91.3425 74.09-91.4225 73.45-91.6125L73.45-91.6125L61.57-95.1125L44.02-51.4725L106.92-51.4725L89.2-95.1125ZM112.2-30.8225C127.62-30.8225 140.13-18.3225 140.13-2.89246C140.13 12.5375 127.62 25.0375 112.2 25.0375C99.47 25.0375 88.73 16.5275 85.36 4.88754C81.14 2.47754 78.27 1.65754 75.8 1.65754C73.33 1.65754 70.46 2.47754 66.24 4.88754C62.87 16.5275 52.13 25.0375 39.4 25.0375C23.97 25.0375 11.47 12.5375 11.47-2.89246C11.47-18.3225 23.97-30.8225 39.4-30.8225C52.69-30.8225 63.81-21.5425 66.64-9.11246C69.63-10.2125 72.65-10.8425 75.8-10.8425C78.95-10.8425 81.97-10.2125 84.96-9.11246C87.79-21.5425 98.91-30.8225 112.2-30.8225ZM39.4-18.3225C30.88-18.3225 23.97-11.4125 23.97-2.89246C23.97 5.62754 30.88 12.5375 39.4 12.5375C47.93 12.5375 54.83 5.62754 54.83-2.89246C54.83-11.4125 47.93-18.3225 39.4-18.3225ZM96.76-2.89246C96.76 5.62754 103.67 12.5375 112.2 12.5375C120.72 12.5375 127.63 5.62754 127.63-2.89246C127.63-11.4125 120.72-18.3225 112.2-18.3225C103.67-18.3225 96.76-11.4125 96.76-2.89246Z"/>
  </g>
  <g id="Semibold-L" transform="matrix(1 0 0 1 1967.37 1556)">
   <path d="M98.33-102.085L119.16-50.6452L141.92-50.6452C144.96-50.6452 147.42-48.1752 147.42-45.1452C147.42-42.1052 144.96-39.6452 141.92-39.6452L115.53-39.6452C115.44-39.6352 115.36-39.6352 115.27-39.6452L34.53-39.6452C34.44-39.6352 34.36-39.6352 34.27-39.6452L9.87-39.6452C6.84-39.6452 4.37-42.1052 4.37-45.1452C4.37-48.1752 6.84-50.6452 9.87-50.6452L30.61-50.6452L50.93-102.015C52.51-106.165 57.01-108.405 61.27-107.145L74.63-103.215L88.01-107.155C92.24-108.395 96.72-106.195 98.33-102.085ZM88.91-95.9552L76.34-92.2552C75.77-92.0852 75.19-92.0152 74.63-92.0352C74.06-92.0152 73.49-92.0852 72.92-92.2552L72.92-92.2552L60.39-95.9452L42.38-50.6452L107.35-50.6452L88.91-95.9552ZM111.45-30.7452C126.87-30.7452 139.38-18.2452 139.38-2.81522C139.38 12.6148 126.87 25.1148 111.45 25.1148C98.35 25.1148 87.36 16.1048 84.34 3.95478C80.4 1.77478 77.56 0.984776 75.05 0.984776C72.53 0.984776 69.7 1.77478 65.76 3.95478C62.74 16.1048 51.75 25.1148 38.65 25.1148C23.22 25.1148 10.72 12.6148 10.72-2.81522C10.72-18.2452 23.22-30.7452 38.65-30.7452C52.2-30.7452 63.5-21.0952 66.05-8.29522C69.01-9.39522 71.97-10.0152 75.05-10.0152C78.13-10.0152 81.09-9.39522 84.05-8.29522C86.6-21.0952 97.9-30.7452 111.45-30.7452ZM38.65-19.7452C29.3-19.7452 21.72-12.1652 21.72-2.81522C21.72 6.53478 29.3 14.1148 38.65 14.1148C48 14.1148 55.58 6.53478 55.58-2.81522C55.58-12.1652 48-19.7452 38.65-19.7452ZM94.51-2.81522C94.51 6.53478 102.1 14.1148 111.45 14.1148C120.8 14.1148 128.38 6.53478 128.38-2.81522C128.38-12.1652 120.8-19.7452 111.45-19.7452C102.1-19.7452 94.51-12.1652 94.51-2.81522Z"/>
  </g>
  <g id="Medium-L" transform="matrix(1 0 0 1 1671.16 1556)">
   <path d="M97.36-101.844L118.32-50.0841L141.42-50.0841C144.18-50.0841 146.42-47.8441 146.42-45.0841C146.42-42.3141 144.18-40.0841 141.42-40.0841L115.02-40.0841C114.94-40.0741 114.86-40.0741 114.79-40.0841L34.01-40.0841C33.94-40.0741 33.86-40.0741 33.78-40.0841L9.37-40.0841C6.61-40.0841 4.37-42.3141 4.37-45.0841C4.37-47.8441 6.61-50.0841 9.37-50.0841L30.45-50.0841L50.9-101.784C52.38-105.684 56.62-107.784 60.63-106.604L74.13-102.634L87.65-106.614C91.63-107.784 95.85-105.714 97.36-101.844ZM88.71-96.5041L75.7-92.6741C75.18-92.5241 74.64-92.4541 74.13-92.4741C73.61-92.4541 73.08-92.5241 72.56-92.6741L72.56-92.6741L59.58-96.4941L41.15-50.0841L107.58-50.0841L88.71-96.5041ZM110.95-30.6941C126.37-30.6941 138.88-18.1841 138.88-2.75409C138.88 12.6659 126.37 25.1759 110.95 25.1759C97.62 25.1759 86.48 15.8459 83.69 3.36591C79.9 1.32591 77.09 0.545906 74.55 0.545906C72.01 0.545906 69.2 1.32591 65.41 3.36591C62.62 15.8459 51.48 25.1759 38.15 25.1759C22.72 25.1759 10.22 12.6659 10.22-2.75409C10.22-18.1841 22.72-30.6941 38.15-30.6941C51.88-30.6941 63.3-20.7841 65.64-7.73409C68.58-8.83409 71.51-9.45409 74.55-9.45409C77.59-9.45409 80.52-8.83409 83.46-7.73409C85.8-20.7841 97.22-30.6941 110.95-30.6941ZM38.15-20.6941C28.25-20.6941 20.22-12.6641 20.22-2.75409C20.22 7.14591 28.25 15.1759 38.15 15.1759C48.06 15.1759 56.08 7.14591 56.08-2.75409C56.08-12.6641 48.06-20.6941 38.15-20.6941ZM93.01-2.75409C93.01 7.14591 101.04 15.1759 110.95 15.1759C120.85 15.1759 128.88 7.14591 128.88-2.75409C128.88-12.6641 120.85-20.6941 110.95-20.6941C101.04-20.6941 93.01-12.6641 93.01-2.75409Z"/>
  </g>
  <g id="Regular-L" transform="matrix(1 0 0 1 1375.45 1556)">
   <path d="M95.43-100.383L116.63-47.9827L140.42-47.9827C142.63-47.9827 144.42-46.1827 144.42-43.9827C144.42-41.7727 142.63-39.9827 140.42-39.9827L113.99-39.9827C113.93-39.9727 113.87-39.9727 113.81-39.9827L32.99-39.9827C32.93-39.9727 32.87-39.9727 32.81-39.9827L8.37-39.9827C6.16-39.9827 4.37-41.7727 4.37-43.9827C4.37-46.1827 6.16-47.9827 8.37-47.9827L30.14-47.9827L50.83-100.323C52.13-103.743 55.84-105.583 59.35-104.543L73.13-100.493L86.93-104.553C90.42-105.583 94.11-103.763 95.43-100.383ZM88.31-96.6227L74.42-92.5327C73.99-92.4027 73.55-92.3527 73.13-92.3727C72.7-92.3527 72.27-92.4127 71.84-92.5327L71.84-92.5327L57.98-96.6127L38.7-47.9827L108.05-47.9827L88.31-96.6227ZM109.95-29.5927C125.37-29.5927 137.88-17.0827 137.88-1.65269C137.88 13.7673 125.37 26.2773 109.95 26.2773C96.18 26.2773 84.74 16.3173 82.44 3.20731C78.91 1.39731 76.14 0.647305 73.55 0.647305C70.96 0.647305 68.19 1.39731 64.66 3.19731C62.36 16.3173 50.92 26.2773 37.15 26.2773C21.72 26.2773 9.22 13.7673 9.22-1.65269C9.22-17.0827 21.72-29.5927 37.15-29.5927C51.23-29.5927 62.88-19.1727 64.81-5.62269C67.72-6.74269 70.59-7.35269 73.55-7.35269C76.51-7.35269 79.38-6.74269 82.29-5.62269C84.22-19.1727 95.87-29.5927 109.95-29.5927ZM37.15-21.5927C26.14-21.5927 17.22-12.6627 17.22-1.65269C17.22 9.34731 26.14 18.2773 37.15 18.2773C48.15 18.2773 57.08 9.35731 57.08-1.64269L57.08-1.64269L57.06-1.67269C57.07-1.68269 57.08-1.68269 57.08-1.69269C57.07-12.6827 48.15-21.5927 37.15-21.5927ZM90.01-1.64269C90.02 9.35731 98.94 18.2773 109.95 18.2773C120.96 18.2773 129.88 9.34731 129.88-1.65269C129.88-12.6627 120.96-21.5927 109.95-21.5927C98.95-21.5927 90.03-12.6827 90.01-1.69269C90.02-1.68269 90.03-1.68269 90.04-1.67269L90.01-1.64269Z"/>
  </g>
  <g id="Light-L" transform="matrix(1 0 0 1 1079.24 1556)">
   <path d="M94.46-100.145L115.79-47.4253L139.92-47.4253C141.86-47.4253 143.42-45.8553 143.42-43.9253C143.42-41.9853 141.86-40.4253 139.92-40.4253L113.48-40.4253C113.43-40.4153 113.37-40.4153 113.32-40.4253L32.48-40.4253C32.43-40.4153 32.37-40.4153 32.32-40.4253L7.87-40.4253C5.94-40.4253 4.37-41.9853 4.37-43.9253C4.37-45.8553 5.94-47.4253 7.87-47.4253L29.99-47.4253L50.8-100.085C52.01-103.255 55.45-104.965 58.71-104.005L72.63-99.9153L86.57-104.015C89.81-104.965 93.24-103.285 94.46-100.145ZM88.11-97.1753L73.78-92.9553C73.39-92.8453 73.01-92.7953 72.63-92.8153C72.25-92.7953 71.86-92.8453 71.48-92.9553L71.48-92.9553L57.17-97.1653L37.48-47.4253L108.28-47.4253L88.11-97.1753ZM109.45-29.5353C124.87-29.5353 137.38-17.0253 137.38-1.59529C137.38 13.8247 124.87 26.3347 109.45 26.3347C95.46 26.3347 83.88 16.0547 81.83 2.64471C78.7 1.07471 76.12 0.334712 73.71 0.224712C70.9 0.094712 67.96 0.794712 64.26 2.64471C62.22 16.0547 50.63 26.3347 36.65 26.3347C21.22 26.3347 8.72 13.8247 8.72-1.59529C8.72-17.0253 21.22-29.5353 36.65-29.5353C50.91-29.5353 62.67-18.8553 64.37-5.05529C67.61-6.30529 70.76-6.92529 74.04-6.76529C76.62-6.64529 79.15-6.05529 81.73-5.05529C83.43-18.8553 95.19-29.5353 109.45-29.5353ZM36.65-22.5353C25.09-22.5353 15.72-13.1653 15.72-1.59529C15.72 9.96471 25.09 19.3347 36.65 19.3347C48.21 19.3347 57.58 9.96471 57.58-1.59529C57.58-13.1653 48.21-22.5353 36.65-22.5353ZM88.51-1.59529C88.51 9.96471 97.89 19.3347 109.45 19.3347C121.01 19.3347 130.38 9.96471 130.38-1.59529C130.38-13.1653 121.01-22.5353 109.45-22.5353C97.89-22.5353 88.51-13.1653 88.51-1.59529Z"/>
  </g>
  <g id="Thin-L" transform="matrix(1 0 0 1 783.527 1556)">
   <path d="M92.527-99.674L114.106-46.324L138.92-46.324C140.301-46.324 141.42-45.204 141.42-43.824C141.42-42.434 140.301-41.324 138.92-41.324L112.455-41.324C112.417-41.314 112.378-41.314 112.34-41.324L31.454-41.324C31.416-41.314 31.377-41.314 31.339-41.324L6.87-41.324C5.489-41.324 4.37-42.434 4.37-43.824C4.37-45.204 5.489-46.324 6.87-46.324L29.674-46.324L50.729-99.634C51.751-102.314 54.666-103.764 57.421-102.954L71.626-98.774L85.851-102.954C88.59-103.764 91.49-102.334 92.527-99.674ZM87.869-97.864C87.774-98.104 87.511-98.234 87.262-98.154L87.262-98.154L72.492-93.814C72.202-93.734 71.909-93.704 71.624-93.714C71.34-93.704 71.048-93.734 70.759-93.814L70.759-93.814L56.01-98.154C55.76-98.224 55.495-98.094 55.402-97.854L55.402-97.854L35.024-46.324L108.739-46.324ZM108.444-29.434C123.872-29.434 136.378-16.924 136.378-1.49396C136.378 13.926 123.872 26.436 108.444 26.436C94.051 26.436 82.2 15.546 80.676 1.55604C77.716 0.146044 75.176-0.563956 72.752-0.673956C69.883-0.813956 66.943-0.123956 63.416 1.55604C61.893 15.546 50.042 26.436 35.648 26.436C20.221 26.436 7.714 13.926 7.714-1.49396C7.714-16.924 20.221-29.434 35.648-29.434C50.258-29.434 62.248-18.214 63.478-3.92396C66.702-5.20396 69.796-5.82396 72.987-5.67396C75.528-5.55396 78.032-4.94396 80.615-3.92396C81.844-18.214 93.834-29.434 108.444-29.434ZM35.648-24.434C22.982-24.434 12.714-14.164 12.714-1.49396C12.714 11.166 22.982 21.436 35.648 21.436C48.314 21.436 58.582 11.166 58.582-1.49396C58.582-14.164 48.314-24.434 35.648-24.434ZM85.512-1.29396C85.621 11.276 95.847 21.436 108.444 21.436C121.11 21.436 131.378 11.166 131.378-1.49396C131.378-14.164 121.11-24.434 108.444-24.434C95.798-24.434 85.542-14.194 85.511-1.55396C85.548-1.53396 85.586-1.51396 85.624-1.49396L85.512-1.29396Z"/>
  </g>
  <g id="Ultralight-L" transform="matrix(1 0 0 1 487.316 1556)">
   <path d="M91.561-99.4365L113.264-45.7565L138.42-45.7565C139.525-45.7565 140.42-44.8665 140.42-43.7565C140.42-42.6565 139.525-41.7565 138.42-41.7565L6.37-41.7565C5.266-41.7565 4.37-42.6565 4.37-43.7565C4.37-44.8665 5.266-45.7565 6.37-45.7565L29.518-45.7565L50.696-99.3965C51.625-101.837 54.275-103.147 56.78-102.417L71.126-98.1965L85.492-102.417C87.982-103.147 90.619-101.857 91.561-99.4365ZM87.835-97.9865C87.646-98.4665 87.119-98.7265 86.621-98.5765L86.621-98.5765L71.851-94.2365C71.608-94.1665 71.363-94.1465 71.124-94.1565C70.887-94.1465 70.642-94.1665 70.4-94.2365L70.4-94.2365L55.651-98.5765C55.15-98.7265 54.62-98.4565 54.435-97.9665L54.435-97.9665L33.798-45.7565L108.971-45.7565ZM107.944-29.3765C123.372-29.3765 135.878-16.8665 135.878-1.43655C135.878 13.9835 123.372 26.4935 107.944 26.4935C93.352 26.4935 81.373 15.3035 80.119 1.03345C76.929-0.456549 74.182-1.13655 71.509-1.13655C68.86-1.12655 66.134-0.436549 62.973 1.03345C61.719 15.3035 49.74 26.4935 35.148 26.4935C19.721 26.4935 7.214 13.9835 7.214-1.43655C7.214-16.8665 19.721-29.3765 35.148-29.3765C49.936-29.3765 62.039-17.8865 63.018-3.34655C65.911-4.50655 68.679-5.12655 71.499-5.13655C74.352-5.13655 77.149-4.51655 80.075-3.34655C81.053-17.8865 93.157-29.3765 107.944-29.3765ZM35.148-25.3765C21.93-25.3765 11.214-14.6565 11.214-1.43655C11.214 11.7735 21.93 22.4935 35.148 22.4935C48.366 22.4935 59.082 11.7735 59.082-1.43655C59.082-14.6565 48.366-25.3765 35.148-25.3765ZM84.011-1.43655C84.011 11.7735 94.726 22.4935 107.944 22.4935C121.163 22.4935 131.878 11.7735 131.878-1.43655C131.878-14.6565 121.163-25.3765 107.944-25.3765C94.726-25.3765 84.011-14.6565 84.011-1.43655Z"/>
  </g>
  <g id="Black-M" transform="matrix(1 0 0 1 2872 1126)">
   <path d="M68.87-91.2815L60.45-88.8015L52.04-91.2715C46.79-92.8215 41.24-90.0715 39.27-84.9715L24.95-47.7215L11.87-47.7215C7.73-47.7215 4.37-44.3615 4.37-40.2215C4.37-36.0715 7.73-32.7215 11.87-32.7215L110.93-32.7215C115.07-32.7215 118.43-36.0715 118.43-40.2215C118.43-44.3615 115.07-47.7215 110.93-47.7215L96.09-47.7215L81.62-85.0015C79.64-90.0915 74.1-92.8215 68.87-91.2815ZM41.02-47.7215L51.78-75.7115L58.21-73.8215C58.95-73.6015 59.71-73.5115 60.44-73.5215C61.18-73.5115 61.94-73.6015 62.68-73.8215L69.13-75.7215L80-47.7215L41.02-47.7215ZM88.07-29.4215C99.64-29.4215 109.02-20.0415 109.02-8.47151C109.02 3.09849 99.64 12.4885 88.07 12.4885C79.55 12.4885 72.22 7.39849 68.94 0.0984948C68.49-0.0715052 68.05-0.281505 67.63-0.541505C63.99-2.78151 62.08-3.24151 60.76-3.24151C59.45-3.24151 57.53-2.78151 53.9-0.541505C53.48-0.281505 53.04-0.0715052 52.59 0.0984948C49.31 7.39849 41.98 12.4885 33.46 12.4885C21.89 12.4885 12.51 3.09849 12.51-8.47151C12.51-20.0415 21.89-29.4215 33.46-29.4215C42.11-29.4215 49.54-24.1815 52.74-16.7015C55.29-17.6615 57.94-18.2415 60.76-18.2415C63.59-18.2415 66.24-17.6615 68.79-16.7015C71.99-24.1815 79.42-29.4215 88.07-29.4215ZM33.46-14.4215C30.17-14.4215 27.51-11.7615 27.51-8.47151C27.51-5.18151 30.17-2.51151 33.46-2.51151C36.75-2.51151 39.42-5.18151 39.42-8.47151C39.42-11.7615 36.75-14.4215 33.46-14.4215ZM82.11-8.47151C82.11-5.18151 84.78-2.51151 88.07-2.51151C91.36-2.51151 94.02-5.18151 94.02-8.47151C94.02-11.7615 91.36-14.4215 88.07-14.4215C84.78-14.4215 82.11-11.7615 82.11-8.47151Z"/>
  </g>
  <g id="Heavy-M" transform="matrix(1 0 0 1 2576.29 1126)">
   <path d="M79.69-87.5338L94.4-49.6138L109.93-49.6138C113.52-49.6138 116.43-46.7038 116.43-43.1138C116.43-39.5238 113.52-36.6138 109.93-36.6138L10.87-36.6138C7.28-36.6138 4.37-39.5238 4.37-43.1138C4.37-46.7038 7.28-49.6138 10.87-49.6138L24.63-49.6138L39.21-87.5038C40.98-92.1238 46.01-94.6038 50.75-93.2138L59.45-90.6538L68.15-93.2138C72.89-94.6038 77.9-92.1338 79.69-87.5338ZM68.73-79.8338L61.4-77.6738C60.75-77.4838 60.09-77.4038 59.44-77.4138C58.8-77.4038 58.14-77.4838 57.49-77.6738L57.49-77.6738L50.18-79.8238L38.56-49.6138L80.46-49.6138L68.73-79.8338ZM87.07-32.3138C98.64-32.3138 108.02-22.9338 108.02-11.3638C108.02 0.206172 98.64 9.59617 87.07 9.59617C78.03 9.59617 70.33 3.86617 67.39-4.14383L67.15-4.28383L67.15-4.28383C63.45-6.56383 61.35-7.13383 59.76-7.13383C58.18-7.13383 56.08-6.56383 52.38-4.28383L52.14-4.14383L52.14-4.14383C49.2 3.86617 41.5 9.59617 32.46 9.59617C20.89 9.59617 11.51 0.206172 11.51-11.3638C11.51-22.9338 20.89-32.3138 32.46-32.3138C41.47-32.3138 49.14-26.6338 52.11-18.6638C54.57-19.5838 57.09-20.1338 59.76-20.1338C62.44-20.1338 64.96-19.5838 67.42-18.6638C70.39-26.6338 78.06-32.3138 87.07-32.3138ZM32.46-19.3138C28.07-19.3138 24.51-15.7538 24.51-11.3638C24.51-6.97383 28.07-3.40383 32.46-3.40383C36.85-3.40383 40.42-6.97383 40.42-11.3638C40.42-15.7538 36.85-19.3138 32.46-19.3138ZM79.11-11.3638C79.11-6.97383 82.68-3.40383 87.07-3.40383C91.46-3.40383 95.02-6.97383 95.02-11.3638C95.02-15.7538 91.46-19.3138 87.07-19.3138C82.68-19.3138 79.11-15.7538 79.11-11.3638Z"/>
  </g>
  <g id="Bold-M" transform="matrix(1 0 0 1 2280.58 1126)">
   <path d="M77.75-84.0716L92.66-45.6616L92.72-45.5116L92.72-45.5116L108.93-45.5116C111.96-45.5116 114.43-43.0416 114.43-40.0116C114.43-36.9716 111.96-34.5116 108.93-34.5116L9.87-34.5116C6.84-34.5116 4.37-36.9716 4.37-40.0116C4.37-43.0416 6.84-45.5116 9.87-45.5116L24.33-45.5116C24.35-45.5816 24.38-45.6616 24.41-45.7316L39.14-84.0416C40.73-88.1816 45.22-90.4016 49.47-89.1516L58.45-86.5116L67.43-89.1516C71.67-90.4016 76.16-88.1916 77.75-84.0716ZM68.33-77.9516L60.12-75.5316C59.56-75.3716 59-75.3016 58.44-75.3116C57.89-75.3016 57.33-75.3716 56.77-75.5316L56.77-75.5316L48.58-77.9416L36.11-45.5116L80.92-45.5116L68.33-77.9516ZM86.07-29.2116C97.64-29.2116 107.02-19.8316 107.02-8.26157C107.02 3.30843 97.64 12.6884 86.07 12.6884C76.95 12.6884 69.19 6.86843 66.31-1.26157C62.76-3.40157 60.56-4.03157 58.77-4.03157C56.97-4.03157 54.77-3.40157 51.22-1.26157C48.34 6.86843 40.58 12.6884 31.46 12.6884C19.89 12.6884 10.51 3.30843 10.51-8.26157C10.51-19.8316 19.89-29.2116 31.46-29.2116C41.15-29.2116 49.3-22.6416 51.7-13.7116C53.99-14.5516 56.32-15.0316 58.77-15.0316C61.21-15.0316 63.54-14.5516 65.83-13.7116C68.23-22.6416 76.38-29.2116 86.07-29.2116ZM31.46-18.2116C25.96-18.2116 21.51-13.7616 21.51-8.26157C21.51-2.76157 25.96 1.68843 31.46 1.68843C36.96 1.68843 41.42-2.76157 41.42-8.26157C41.42-13.7616 36.96-18.2116 31.46-18.2116ZM76.11-8.26157C76.11-2.76157 80.57 1.68843 86.07 1.68843C91.57 1.68843 96.02-2.76157 96.02-8.26157C96.02-13.7616 91.57-18.2116 86.07-18.2116C80.57-18.2116 76.11-13.7616 76.11-8.26157Z"/>
  </g>
  <g id="Semibold-M" transform="matrix(1 0 0 1 1984.62 1126)">
   <path d="M76.31-83.7226L91.21-45.3026C91.29-45.1026 91.36-44.8926 91.41-44.6826L108.18-44.6826C110.8-44.6826 112.93-42.5526 112.93-39.9326C112.93-37.3026 110.8-35.1826 108.18-35.1826L9.12-35.1826C6.5-35.1826 4.37-37.3026 4.37-39.9326C4.37-42.5526 6.5-44.6826 9.12-44.6826L24.15-44.6826C24.2-44.9126 24.27-45.1526 24.36-45.3826L39.09-83.6926C40.54-87.4626 44.64-89.4926 48.51-88.3526L57.7-85.6426L66.89-88.3526C70.76-89.4926 74.85-87.4726 76.31-83.7226ZM68.03-78.7826L59.16-76.1726C58.67-76.0326 58.18-75.9726 57.7-75.9826C57.21-75.9726 56.72-76.0326 56.24-76.1726L56.24-76.1726L47.38-78.7826L34.26-44.6826L81.27-44.6826L68.03-78.7826ZM85.32-29.1326C96.89-29.1326 106.27-19.7526 106.27-8.1826C106.27 3.3874 96.89 12.7774 85.32 12.7774C75.8 12.7774 67.77 6.4274 65.21-2.2526C62.02-4.0826 59.86-4.7026 58.02-4.7026C56.17-4.7026 54.01-4.0826 50.82-2.2526C48.26 6.4274 40.23 12.7774 30.71 12.7774C19.14 12.7774 9.76 3.3874 9.76-8.1826C9.76-19.7526 19.14-29.1326 30.71-29.1326C40.66-29.1326 48.99-22.2026 51.13-12.9026C53.38-13.7326 55.65-14.2026 58.02-14.2026C60.38-14.2026 62.65-13.7326 64.9-12.9026C67.04-22.2026 75.37-29.1326 85.32-29.1326ZM30.71-19.6326C24.39-19.6326 19.26-14.5026 19.26-8.1826C19.26-1.8526 24.39 3.2774 30.71 3.2774C37.04 3.2774 42.17-1.8526 42.17-8.1826C42.17-14.5026 37.04-19.6326 30.71-19.6326ZM73.86-8.1826C73.86-1.8526 78.99 3.2774 85.32 3.2774C91.64 3.2774 96.77-1.8526 96.77-8.1826C96.77-14.5026 91.64-19.6326 85.32-19.6326C78.99-19.6326 73.86-14.5026 73.86-8.1826Z"/>
  </g>
  <g id="Medium-M" transform="matrix(1 0 0 1 1688.41 1126)">
   <path d="M75.34-83.4852L90.25-45.0652C90.37-44.7552 90.45-44.4352 90.49-44.1252L107.68-44.1252C110.02-44.1252 111.93-42.2152 111.93-39.8752C111.93-37.5252 110.02-35.6252 107.68-35.6252L8.62-35.6252C6.28-35.6252 4.37-37.5252 4.37-39.8752C4.37-42.2152 6.28-44.1252 8.62-44.1252L24.07-44.1252C24.11-44.4652 24.19-44.8052 24.32-45.1452L39.06-83.4552C40.41-86.9852 44.25-88.8752 47.87-87.8152L57.2-85.0652L66.53-87.8152C70.15-88.8752 73.98-86.9952 75.34-83.4852ZM67.83-79.3352L58.52-76.5952C58.08-76.4652 57.63-76.4152 57.2-76.4252C56.76-76.4152 56.32-76.4652 55.88-76.5952L55.88-76.5952L46.58-79.3352L33.04-44.1252L81.5-44.1252L67.83-79.3352ZM84.82-29.0752C96.39-29.0752 105.77-19.6952 105.77-8.12519C105.77 3.44481 96.39 12.8348 84.82 12.8348C75.06 12.8348 66.86 6.15481 64.53-2.87519C61.53-4.54519 59.39-5.14519 57.52-5.14519C55.64-5.14519 53.5-4.54519 50.5-2.87519C48.17 6.15481 39.97 12.8348 30.21 12.8348C18.64 12.8348 9.26 3.44481 9.26-8.12519C9.26-19.6952 18.64-29.0752 30.21-29.0752C40.34-29.0752 48.78-21.8952 50.74-12.3552C52.96-13.1752 55.19-13.6452 57.52-13.6452C59.84-13.6452 62.07-13.1752 64.29-12.3552C66.25-21.8952 74.69-29.0752 84.82-29.0752ZM30.21-20.5752C23.33-20.5752 17.76-15.0052 17.76-8.12519C17.76-1.24519 23.33 4.33481 30.21 4.33481C37.09 4.33481 42.67-1.24519 42.67-8.12519C42.67-15.0052 37.09-20.5752 30.21-20.5752ZM72.36-8.12519C72.36-1.24519 77.94 4.33481 84.82 4.33481C91.7 4.33481 97.27-1.24519 97.27-8.12519C97.27-15.0052 91.7-20.5752 84.82-20.5752C77.94-20.5752 72.36-15.0052 72.36-8.12519Z"/>
  </g>
  <g id="Regular-M" transform="matrix(1 0 0 1 1392.2 1126)">
   <path d="M74.37-83.245L89.72-43.575L107.17-43.575C109.24-43.575 110.92-41.895 110.92-39.825C110.92-37.755 109.24-36.075 107.17-36.075L8.12-36.075C6.05-36.075 4.37-37.755 4.37-39.825C4.37-41.895 6.05-43.575 8.12-43.575L24.05-43.575L39.02-83.185C40.27-86.495 43.85-88.275 47.24-87.275L56.69-84.495L66.17-87.285C69.54-88.275 73.1-86.515 74.37-83.245ZM67.62-79.895L57.87-77.025C57.48-76.915 57.08-76.865 56.69-76.875C56.3-76.865 55.91-76.915 55.52-77.025L55.52-77.025L45.79-79.885L32.07-43.575L81.68-43.575L67.62-79.895ZM84.32-29.025C95.89-29.025 105.27-19.645 105.27-8.07499C105.27 3.49501 95.89 12.885 84.32 12.885C74.32 12.885 65.96 5.88501 63.87-3.48499C61.03-5.01499 58.92-5.59499 57.01-5.59499C55.11-5.59499 53-5.01499 50.16-3.48499C48.06 5.88501 39.7 12.885 29.71 12.885C18.14 12.885 8.75 3.49501 8.75-8.07499C8.75-19.645 18.14-29.025 29.71-29.025C40.01-29.025 48.57-21.595 50.33-11.805C52.54-12.635 54.73-13.095 57.01-13.095C59.29-13.095 61.49-12.635 63.69-11.805C65.45-21.595 74.02-29.025 84.32-29.025ZM29.71-21.525C22.28-21.525 16.25-15.505 16.25-8.07499C16.25-0.644988 22.28 5.38501 29.71 5.38501C37.14 5.38501 43.16-0.644988 43.16-8.07499C43.16-15.505 37.14-21.525 29.71-21.525ZM70.86-8.07499C70.86-0.644988 76.88 5.38501 84.32 5.38501C91.75 5.38501 97.77-0.644988 97.77-8.07499C97.77-15.505 91.75-21.525 84.32-21.525C76.88-21.525 70.86-15.505 70.86-8.07499Z"/>
  </g>
  <g id="Light-M" transform="matrix(1 0 0 1 1096.23 1126)">
   <path d="M72.92-82.8952C71.8-85.8052 68.63-87.3652 65.64-86.4852L55.95-83.6352L46.27-86.4852C43.27-87.3652 40.09-85.7952 38.97-82.8752L23.59-42.7452L7.37-42.7452C5.72-42.7452 4.37-41.3952 4.37-39.7452C4.37-38.0852 5.72-36.7452 7.37-36.7452L106.43-36.7452C108.08-36.7452 109.43-38.0852 109.43-39.7452C109.43-41.3952 108.08-42.7452 106.43-42.7452L88.51-42.7452L72.92-82.8952ZM54.98-77.6652C55.3-77.5752 55.63-77.5352 55.95-77.5452C56.27-77.5352 56.59-77.5752 56.92-77.6652L67.33-80.7252L82.07-42.7452L30.02-42.7452L44.58-80.7252L54.98-77.6652ZM83.57-28.9452C95.14-28.9452 104.52-19.5652 104.52-7.99515C104.52 3.57485 95.14 12.9548 83.57 12.9548C73.24 12.9548 64.66 5.48485 62.93-4.34515C60.29-5.70515 58.21-6.26515 56.27-6.26515C54.32-6.26515 52.24-5.70515 49.6-4.34515C47.87 5.48485 39.29 12.9548 28.96 12.9548C17.39 12.9548 8.01 3.57485 8.01-7.99515C8.01-19.5652 17.39-28.9452 28.96-28.9452C39.52-28.9452 48.26-21.1352 49.71-10.9652C51.89-11.8052 54.04-12.2652 56.27-12.2652C58.49-12.2652 60.64-11.8052 62.82-10.9652C64.27-21.1352 73.01-28.9452 83.57-28.9452ZM28.96-22.9452C20.7-22.9452 14.01-16.2552 14.01-7.99515C14.01 0.264845 20.7 6.95485 28.96 6.95485C37.22 6.95485 43.91 0.274845 43.92-7.98515L43.92-7.98515L43.9-8.00515C43.9-8.01515 43.91-8.01515 43.92-8.01515C43.9-16.2652 37.21-22.9452 28.96-22.9452ZM68.61-7.98515C68.62 0.274845 75.31 6.95485 83.57 6.95485C91.83 6.95485 98.52 0.264845 98.52-7.99515C98.52-16.2552 91.83-22.9452 83.57-22.9452C75.32-22.9452 68.63-16.2652 68.61-8.01515C68.62-8.01515 68.63-8.01515 68.63-8.00515L68.61-7.98515Z"/>
  </g>
  <g id="Thin-M" transform="matrix(1 0 0 1 800.525 1126)">
   <path d="M70.988-83.4266L86.822-42.6366L105.424-42.6366C106.529-42.6366 107.424-41.7366 107.424-40.6366C107.424-39.5266 106.529-38.6366 105.424-38.6366L6.37-38.6366C5.266-38.6366 4.37-39.5266 4.37-40.6366C4.37-41.7366 5.266-42.6366 6.37-42.6366L23.275-42.6366L38.904-83.4066C39.837-85.8366 42.483-87.1466 44.984-86.4166L54.945-83.4866L64.916-86.4166C67.409-87.1466 70.048-85.8566 70.988-83.4266ZM43.855-82.5766C43.355-82.7266 42.826-82.4666 42.639-81.9766L42.639-81.9766L27.559-42.6366L82.531-42.6366L67.259-81.9866C67.071-82.4666 66.544-82.7266 66.045-82.5766L66.045-82.5766L55.63-79.5166C55.401-79.4466 55.169-79.4266 54.944-79.4366C54.719-79.4266 54.488-79.4466 54.259-79.5166L54.259-79.5166ZM82.566-29.8366C94.138-29.8366 103.519-20.4566 103.519-8.88662C103.519 2.68338 94.138 12.0734 82.566 12.0734C71.818 12.0734 62.961 3.97338 61.752-6.44662C59.298-7.62662 57.239-8.15662 55.262-8.15662C53.285-8.15662 51.226-7.62662 48.772-6.44662C47.563 3.97338 38.706 12.0734 27.959 12.0734C16.386 12.0734 7.005 2.68338 7.005-8.88662C7.005-20.4566 16.386-29.8366 27.959-29.8366C38.874-29.8366 47.84-21.4966 48.823-10.8366C50.999-11.6966 53.105-12.1566 55.262-12.1566C57.419-12.1566 59.525-11.6966 61.701-10.8366C62.685-21.4966 71.65-29.8366 82.566-29.8366ZM27.959-25.8366C18.595-25.8366 11.005-18.2466 11.005-8.88662C11.005 0.473383 18.595 8.07338 27.959 8.07338C37.322 8.07338 44.912 0.473383 44.912-8.88662C44.912-18.2466 37.322-25.8366 27.959-25.8366ZM65.612-8.88662C65.612 0.473383 73.202 8.07338 82.566 8.07338C91.929 8.07338 99.519 0.473383 99.519-8.88662C99.519-18.2466 91.929-25.8366 82.566-25.8366C73.202-25.8366 65.612-18.2466 65.612-8.88662Z"/>
  </g>
  <g id="Ultralight-M" transform="matrix(1 0 0 1 504.565 1126)">
   <path d="M69.539-86.0776L85.558-44.8076L104.673-44.8076C105.364-44.8076 105.923-44.2476 105.923-43.5576C105.923-42.8676 105.364-42.3076 104.673-42.3076L5.62-42.3076C4.929-42.3076 4.37-42.8676 4.37-43.5576C4.37-44.2476 4.929-44.8076 5.62-44.8076L23.04-44.8076L38.854-86.0576C39.647-88.1276 41.896-89.2376 44.022-88.6176L54.194-85.6276L64.377-88.6176C66.496-89.2376 68.74-88.1376 69.539-86.0776ZM67.208-85.1776C66.879-86.0176 65.955-86.4776 65.083-86.2176L65.083-86.2176L54.668-83.1576C54.509-83.1076 54.349-83.0976 54.193-83.1076C54.039-83.0976 53.879-83.1076 53.72-83.1576L53.72-83.1576L43.316-86.2176C42.441-86.4776 41.515-86.0176 41.189-85.1676L41.189-85.1676L25.718-44.8076L82.876-44.8076ZM81.815-32.7576C93.387-32.7576 102.769-23.3776 102.769-11.8076C102.769-0.237645 93.387 9.15235 81.815 9.15235C70.771 9.15235 61.723 0.602355 60.919-10.2376C58.594-11.3076 56.563-11.8176 54.579-11.8276C52.551-11.8376 50.48-11.3276 48.104-10.2376C47.3 0.602355 38.252 9.15235 27.208 9.15235C15.636 9.15235 6.254-0.237645 6.254-11.8076C6.254-23.3776 15.636-32.7576 27.208-32.7576C38.39-32.7576 47.526-23.9976 48.13-12.9676C50.346-13.8676 52.451-14.3376 54.593-14.3276C56.679-14.3176 58.734-13.8476 60.893-12.9676C61.497-23.9976 70.633-32.7576 81.815-32.7576ZM27.208-30.2576C17.016-30.2576 8.754-21.9976 8.754-11.8076C8.754-1.61765 17.016 6.65235 27.208 6.65235C37.4 6.65235 45.662-1.61765 45.662-11.8076C45.662-21.9976 37.4-30.2576 27.208-30.2576ZM63.361-11.8076C63.361-1.61765 71.623 6.65235 81.815 6.65235C92.007 6.65235 100.269-1.61765 100.269-11.8076C100.269-21.9976 92.007-30.2576 81.815-30.2576C71.623-30.2576 63.361-21.9976 63.361-11.8076Z"/>
  </g>
  <g id="Black-S" transform="matrix(1 0 0 1 2884.03 696)">
   <path d="M65.59-73.9535L76.75-45.1985L88.37-45.1985C91.68-45.1985 94.37-42.5125 94.37-39.1985C94.37-35.8855 91.68-33.1985 88.37-33.1985L10.37-33.1985C7.06-33.1985 4.37-35.8855 4.37-39.1985C4.37-42.5125 7.06-45.1985 10.37-45.1985L20.6-45.1985L31.65-73.9255C33.33-78.3005 38.09-80.6525 42.59-79.3295L48.62-77.5545L54.66-79.3315C59.15-80.6515 63.9-78.3135 65.59-73.9535ZM55.4-67.0415L50.41-65.5725C49.81-65.3965 49.21-65.3185 48.62-65.3275C48.03-65.3195 47.43-65.3975 46.83-65.5725L46.83-65.5725L41.85-67.0365L33.46-45.1985L63.88-45.1985L55.4-67.0415ZM70.37-30.6985C79.48-30.6985 86.87-23.3115 86.87-14.1985C86.87-5.08651 79.48 2.30149 70.37 2.30149C63.61 2.30149 57.8-1.76551 55.25-7.58551C54.9-7.71751 54.56-7.88551 54.23-8.08951C51.37-9.84551 49.88-10.1985 48.87-10.1985C47.86-10.1985 46.37-9.84551 43.51-8.08851C43.18-7.88551 42.84-7.71751 42.49-7.58551C39.94-1.76551 34.13 2.30149 27.37 2.30149C18.26 2.30149 10.87-5.08651 10.87-14.1985C10.87-23.3115 18.26-30.6985 27.37-30.6985C34.08-30.6985 39.85-26.6965 42.43-20.9495C44.48-21.7295 46.6-22.1985 48.87-22.1985C51.14-22.1985 53.26-21.7295 55.31-20.9495C57.89-26.6965 63.66-30.6985 70.37-30.6985ZM27.37-18.6985C24.88-18.6985 22.87-16.6845 22.87-14.1985C22.87-11.7135 24.88-9.69851 27.37-9.69851C29.86-9.69851 31.87-11.7135 31.87-14.1985C31.87-16.6845 29.86-18.6985 27.37-18.6985ZM65.87-14.1985C65.87-11.7135 67.88-9.69851 70.37-9.69851C72.86-9.69851 74.87-11.7135 74.87-14.1985C74.87-16.6845 72.86-18.6985 70.37-18.6985C67.88-18.6985 65.87-16.6845 65.87-14.1985Z"/>
  </g>
  <g id="Heavy-S" transform="matrix(1 0 0 1 2588.32 696)">
   <path d="M63.66-73.4845L75.06-44.0925L87.37-44.0925C90.13-44.0925 92.37-41.8535 92.37-39.0925C92.37-36.3305 90.13-34.0925 87.37-34.0925L9.37-34.0925C6.61-34.0925 4.37-36.3305 4.37-39.0925C4.37-41.8535 6.61-44.0925 9.37-44.0925L20.29-44.0925L31.58-73.4595C33.08-77.3495 37.31-79.4385 41.3-78.2635L47.62-76.4055L53.94-78.2655C57.93-79.4385 62.15-77.3605 63.66-73.4845ZM55-68.1535L49.13-66.4255C48.62-66.2775 48.12-66.2115 47.62-66.2215C47.12-66.2125 46.61-66.2775 46.11-66.4255L46.11-66.4255L40.25-68.1495L31-44.0925L64.34-44.0925L55-68.1535ZM69.37-30.5925C78.48-30.5925 85.87-23.2045 85.87-14.0925C85.87-4.97948 78.48 2.40752 69.37 2.40752C62.09 2.40752 55.91-2.30848 53.72-8.85248C50.82-10.6345 49.14-11.0925 47.87-11.0925C46.6-11.0925 44.92-10.6345 42.02-8.85248C39.83-2.30848 33.65 2.40752 26.37 2.40752C17.26 2.40752 9.87-4.97948 9.87-14.0925C9.87-23.2045 17.26-30.5925 26.37-30.5925C33.43-30.5925 39.46-26.1555 41.81-19.9175C43.76-20.6565 45.76-21.0925 47.87-21.0925C49.98-21.0925 51.98-20.6565 53.93-19.9175C56.28-26.1555 62.31-30.5925 69.37-30.5925ZM26.37-20.5925C22.78-20.5925 19.87-17.6825 19.87-14.0925C19.87-10.5025 22.78-7.59248 26.37-7.59248C29.96-7.59248 32.87-10.5025 32.87-14.0925C32.87-17.6825 29.96-20.5925 26.37-20.5925ZM62.87-14.0925C62.87-10.5025 65.78-7.59248 69.37-7.59248C72.96-7.59248 75.87-10.5025 75.87-14.0925C75.87-17.6825 72.96-20.5925 69.37-20.5925C65.78-20.5925 62.87-17.6825 62.87-14.0925Z"/>
  </g>
  <g id="Bold-S" transform="matrix(1 0 0 1 2292.11 696)">
   <path d="M62.69-73.2507L74.22-43.5487L74.22-43.5387L86.87-43.5387C89.36-43.5387 91.37-41.5247 91.37-39.0387C91.37-36.5537 89.36-34.5387 86.87-34.5387L8.87-34.5387C6.38-34.5387 4.37-36.5537 4.37-39.0387C4.37-41.5247 6.38-43.5387 8.87-43.5387L20.13-43.5387L20.14-43.5667L20.16-43.6057L31.55-73.2267C32.95-76.8737 36.92-78.8327 40.66-77.7307L47.12-75.8317L53.58-77.7327C57.32-78.8327 61.28-76.8847 62.69-73.2507ZM54.8-68.7097L48.49-66.8517C48.03-66.7177 47.57-66.6587 47.12-66.6687C46.67-66.6597 46.21-66.7177 45.75-66.8517L45.75-66.8517L39.45-68.7057L29.77-43.5387L64.57-43.5387L54.8-68.7097ZM68.87-30.5387C77.98-30.5387 85.37-23.1517 85.37-14.0387C85.37-4.92673 77.98 2.46127 68.87 2.46127C61.79 2.46127 55.75-2.00273 53.41-8.27073C50.52-10.0367 48.77-10.5387 47.37-10.5387C45.97-10.5387 44.22-10.0367 41.33-8.27073C38.99-2.00273 32.95 2.46127 25.87 2.46127C16.76 2.46127 9.37-4.92673 9.37-14.0387C9.37-23.1517 16.76-30.5387 25.87-30.5387C33.44-30.5387 39.82-25.4447 41.76-18.4977C43.58-19.1577 45.43-19.5387 47.37-19.5387C49.31-19.5387 51.16-19.1577 52.98-18.4977C54.92-25.4447 61.3-30.5387 68.87-30.5387ZM25.87-21.5387C21.73-21.5387 18.37-18.1807 18.37-14.0387C18.37-9.89673 21.73-6.53873 25.87-6.53873C30.01-6.53873 33.37-9.89673 33.37-14.0387C33.37-18.1807 30.01-21.5387 25.87-21.5387ZM61.37-14.0387C61.37-9.89673 64.73-6.53873 68.87-6.53873C73.01-6.53873 76.37-9.89673 76.37-14.0387C76.37-18.1807 73.01-21.5387 68.87-21.5387C64.73-21.5387 61.37-18.1807 61.37-14.0387Z"/>
  </g>
  <g id="Semibold-S" transform="matrix(1 0 0 1 1995.65 696)">
   <path d="M62.21-73.1391L73.74-43.4371L73.8-43.2671L73.8-43.2671L86.62-43.2671C88.97-43.2671 90.87-41.3641 90.87-39.0171C90.87-36.6701 88.97-34.7671 86.62-34.7671L8.62-34.7671C6.27-34.7671 4.37-36.6701 4.37-39.0171C4.37-41.3641 6.27-43.2671 8.62-43.2671L20.06-43.2671C20.08-43.3431 20.11-43.4191 20.14-43.4951L31.53-73.1151C32.89-76.6401 36.72-78.5341 40.34-77.4691L46.87-75.5491L53.4-77.4711C57.02-78.5341 60.85-76.6511 62.21-73.1391ZM54.7-68.9921L48.16-67.0701C47.73-66.9421 47.3-66.8871 46.87-66.8971C46.44-66.8881 46.01-66.9431 45.58-67.0701L45.58-67.0701L39.05-68.9891L29.16-43.2671L64.68-43.2671L54.7-68.9921ZM68.62-30.5171C77.73-30.5171 85.12-23.1301 85.12-14.0171C85.12-4.90509 77.73 2.48291 68.62 2.48291C61.4 2.48291 55.26-2.15909 53.02-8.62309C50.27-10.2701 48.54-10.7671 47.12-10.7671C45.7-10.7671 43.97-10.2701 41.22-8.62309C38.98-2.15909 32.84 2.48291 25.62 2.48291C16.51 2.48291 9.12-4.90509 9.12-14.0171C9.12-23.1301 16.51-30.5171 25.62-30.5171C33.28-30.5171 39.71-25.3041 41.58-18.2341C43.37-18.8901 45.2-19.2671 47.12-19.2671C49.04-19.2671 50.87-18.8901 52.66-18.2341C54.53-25.3041 60.96-30.5171 68.62-30.5171ZM25.62-22.0171C21.2-22.0171 17.62-18.4351 17.62-14.0171C17.62-9.59909 21.2-6.01709 25.62-6.01709C30.04-6.01709 33.62-9.59909 33.62-14.0171C33.62-18.4351 30.04-22.0171 25.62-22.0171ZM60.62-14.0171C60.62-9.59909 64.2-6.01709 68.62-6.01709C73.04-6.01709 76.62-9.59909 76.62-14.0171C76.62-18.4351 73.04-22.0171 68.62-22.0171C64.2-22.0171 60.62-18.4351 60.62-14.0171Z"/>
  </g>
  <g id="Medium-S" transform="matrix(1 0 0 1 1699.19 696)">
   <path d="M61.39-73.7739L73.25-43.2149C73.3-43.1059 73.33-42.9959 73.36-42.8859L86.37-42.8859C88.58-42.8859 90.37-41.0949 90.37-38.8859C90.37-36.6769 88.58-34.8859 86.37-34.8859L8.37-34.8859C6.16-34.8859 4.37-36.6769 4.37-38.8859C4.37-41.0949 6.16-42.8859 8.37-42.8859L20-42.8859C20.03-43.0159 20.07-43.1449 20.12-43.2739L31.84-73.7549C32.97-76.6719 36.14-78.2399 39.14-77.3579L46.62-75.1569L54.11-77.3589C57.1-78.2389 60.27-76.6809 61.39-73.7739ZM54.6-69.1659L47.84-67.1779C47.44-67.0579 47.02-67.0059 46.62-67.0159C46.21-67.0069 45.8-67.0579 45.4-67.1779L45.4-67.1779L38.65-69.1619L28.55-42.8859L64.8-42.8859L54.6-69.1659ZM68.37-30.3859C77.48-30.3859 84.87-22.9989 84.87-13.8859C84.87-4.77295 77.48 2.61405 68.37 2.61405C61.01 2.61405 54.78-2.20195 52.65-8.85295C50.02-10.3949 48.31-10.8859 46.87-10.8859C45.43-10.8859 43.72-10.3949 41.09-8.85295C38.96-2.20195 32.73 2.61405 25.37 2.61405C16.26 2.61405 8.87-4.77295 8.87-13.8859C8.87-22.9989 16.26-30.3859 25.37-30.3859C33.11-30.3859 39.61-25.0529 41.39-17.8589C43.17-18.5129 44.98-18.8859 46.87-18.8859C48.76-18.8859 50.57-18.5129 52.35-17.8589C54.13-25.0529 60.63-30.3859 68.37-30.3859ZM25.37-22.3859C20.68-22.3859 16.87-18.5799 16.87-13.8859C16.87-9.19195 20.68-5.38595 25.37-5.38595C30.06-5.38595 33.87-9.19195 33.87-13.8859C33.87-18.5799 30.06-22.3859 25.37-22.3859ZM59.87-13.8859C59.87-9.19195 63.68-5.38595 68.37-5.38595C73.06-5.38595 76.87-9.19195 76.87-13.8859C76.87-18.5799 73.06-22.3859 68.37-22.3859C63.68-22.3859 59.87-18.5799 59.87-13.8859Z"/>
  </g>
  <g id="Regular-S" transform="matrix(1 0 0 1 1402.97 696)">
   <path d="M60.76-70.7877L72.29-41.0857C72.37-40.8717 72.43-40.6547 72.47-40.4377L85.87-40.4377C87.8-40.4377 89.37-38.8707 89.37-36.9377C89.37-35.0047 87.8-33.4377 85.87-33.4377L7.87-33.4377C5.94-33.4377 4.37-35.0047 4.37-36.9377C4.37-38.8707 5.94-40.4377 7.87-40.4377L19.9-40.4377C19.94-40.6747 20-40.9127 20.09-41.1457L31.48-70.7667C32.7-73.9267 36.13-75.6247 39.38-74.6697L46.12-72.6877L52.87-74.6717C56.11-75.6247 59.54-73.9367 60.76-70.7877ZM54.4-67.8267L47.2-65.7097C46.84-65.6027 46.48-65.5577 46.12-65.5677C45.76-65.5587 45.4-65.6037 45.04-65.7097L45.04-65.7097L37.85-67.8237L27.32-40.4377L65.03-40.4377L54.4-67.8267ZM67.87-28.4377C76.98-28.4377 84.37-21.0507 84.37-11.9377C84.37-2.8247 76.98 4.5623 67.87 4.5623C60.26 4.5623 53.85-0.591697 51.95-7.5997C49.53-8.9617 47.84-9.4377 46.37-9.4377C44.9-9.4377 43.21-8.9617 40.79-7.5997C38.89-0.591697 32.48 4.5623 24.87 4.5623C15.76 4.5623 8.37-2.8247 8.37-11.9377C8.37-21.0507 15.76-28.4377 24.87-28.4377C32.79-28.4377 39.4-22.8597 41-15.4197C42.76-16.0697 44.53-16.4377 46.37-16.4377C48.21-16.4377 49.98-16.0697 51.74-15.4197C53.34-22.8597 59.95-28.4377 67.87-28.4377ZM24.87-21.4377C19.62-21.4377 15.37-17.1847 15.37-11.9377C15.37-6.6907 19.62-2.4377 24.87-2.4377C30.12-2.4377 34.37-6.6907 34.37-11.9377C34.37-17.1847 30.12-21.4377 24.87-21.4377ZM58.37-11.9377C58.37-6.6907 62.62-2.4377 67.87-2.4377C73.12-2.4377 77.37-6.6907 77.37-11.9377C77.37-17.1847 73.12-21.4377 67.87-21.4377C62.62-21.4377 58.37-17.1847 58.37-11.9377Z"/>
  </g>
  <g id="Light-S" transform="matrix(1 0 0 1 1107.26 696)">
   <path d="M58.82-70.2837L70.59-39.3357L84.87-39.3357C86.25-39.3357 87.37-38.2167 87.37-36.8357C87.37-35.4547 86.25-34.3357 84.87-34.3357L6.87-34.3357C5.49-34.3357 4.37-35.4547 4.37-36.8357C4.37-38.2167 5.49-39.3357 6.87-39.3357L19.65-39.3357L31.42-70.2837C32.44-72.9687 35.35-74.4157 38.11-73.6057L45.12-71.5437L52.13-73.6057C54.89-74.4157 57.8-72.9687 58.82-70.2837ZM54.15-68.5067C54.06-68.7507 53.79-68.8817 53.54-68.8087L53.54-68.8087L45.92-66.5667C45.65-66.4877 45.38-66.4567 45.12-66.4667C44.86-66.4567 44.59-66.4887 44.32-66.5667L44.32-66.5667L36.7-68.8087C36.45-68.8817 36.18-68.7507 36.09-68.5067L36.09-68.5067L25-39.3357L65.24-39.3357ZM66.87-28.3357C75.98-28.3357 83.37-20.9487 83.37-11.8357C83.37-2.7227 75.98 4.6643 66.87 4.6643C58.8 4.6643 52.08-1.1347 50.65-8.7957C48.54-9.8917 46.89-10.3357 45.37-10.3357C43.85-10.3357 42.2-9.8917 40.09-8.7957C38.66-1.1347 31.94 4.6643 23.87 4.6643C14.76 4.6643 7.37-2.7227 7.37-11.8357C7.37-20.9487 14.76-28.3357 23.87-28.3357C32.14-28.3357 38.99-22.2527 40.18-14.3187C41.91-14.9747 43.61-15.3357 45.37-15.3357C47.13-15.3357 48.83-14.9747 50.56-14.3187C51.75-22.2527 58.6-28.3357 66.87-28.3357ZM23.87-23.3357C17.52-23.3357 12.37-18.1867 12.37-11.8357C12.37-5.4847 17.52-0.335701 23.87-0.335701C30.22-0.335701 35.37-5.4847 35.37-11.8357C35.37-18.1867 30.22-23.3357 23.87-23.3357ZM55.37-11.8357C55.37-5.4847 60.52-0.335701 66.87-0.335701C73.22-0.335701 78.37-5.4847 78.37-11.8357C78.37-18.1867 73.22-23.3357 66.87-23.3357C60.52-23.3357 55.37-18.1867 55.37-11.8357Z"/>
  </g>
  <g id="Thin-S" transform="matrix(1 0 0 1 811.427 696)">
   <path d="M57.131-70.88L69.116-39.368L83.995-39.368C84.892-39.368 85.62-38.641 85.62-37.743C85.62-36.846 84.892-36.118 83.995-36.118L5.995-36.118C5.098-36.118 4.37-36.846 4.37-37.743C4.37-38.641 5.098-39.368 5.995-39.368L19.374-39.368L31.359-70.88C32.218-73.138 34.67-74.355 36.987-73.673L44.245-71.539L51.503-73.673C53.82-74.355 56.272-73.138 57.131-70.88ZM54.093-69.725C53.838-70.396 53.109-70.758 52.42-70.555L52.42-70.555L44.799-68.314C44.614-68.259 44.426-68.239 44.244-68.25C44.062-68.24 43.876-68.26 43.691-68.314L43.691-68.314L36.07-70.555C35.381-70.758 34.652-70.396 34.397-69.725L34.397-69.725L22.852-39.368L65.638-39.368ZM65.995-29.243C75.108-29.243 82.495-21.856 82.495-12.743C82.495-3.63 75.108 3.757 65.995 3.757C57.552 3.757 50.591-2.584 49.613-10.763C47.748-11.665 46.178-12.084 44.68-12.116C43.066-12.15 41.392-11.737 39.377-10.763C38.399-2.584 31.438 3.757 22.995 3.757C13.882 3.757 6.495-3.63 6.495-12.743C6.495-21.856 13.882-29.243 22.995-29.243C31.572-29.243 38.621-22.698 39.42-14.33C41.22-15.04 42.96-15.403 44.749-15.365C46.363-15.331 47.943-14.971 49.57-14.33C50.369-22.698 57.418-29.243 65.995-29.243ZM22.995-25.993C15.677-25.993 9.745-20.061 9.745-12.743C9.745-5.425 15.677 0.506995 22.995 0.506995C30.313 0.506995 36.245-5.425 36.245-12.743C36.245-20.061 30.313-25.993 22.995-25.993ZM52.745-12.743C52.745-5.425 58.677 0.506995 65.995 0.506995C73.313 0.506995 79.245-5.425 79.245-12.743C79.245-20.061 73.313-25.993 65.995-25.993C58.677-25.993 52.745-20.061 52.745-12.743Z"/>
  </g>
  <g id="Ultralight-S" transform="matrix(1 0 0 1 515.216 696)">
   <path d="M56.163-70.6485L68.271-38.8145L83.495-38.8145C84.116-38.8145 84.62-38.3105 84.62-37.6895C84.62-37.0675 84.116-36.5645 83.495-36.5645L5.495-36.5645C4.874-36.5645 4.37-37.0675 4.37-37.6895C4.37-38.3105 4.874-38.8145 5.495-38.8145L19.219-38.8145L31.327-70.6485C32.093-72.6625 34.279-73.7475 36.346-73.1395L43.745-70.9635L51.144-73.1395C53.211-73.7475 55.397-72.6625 56.163-70.6485ZM35.711-70.9815C34.772-71.2575 33.778-70.7645 33.43-69.8485L33.43-69.8485L21.626-38.8145L65.864-38.8145L54.06-69.8485C53.712-70.7645 52.718-71.2575 51.779-70.9815L51.779-70.9815L44.158-68.7395C44.02-68.6985 43.88-68.6865 43.744-68.6975C43.609-68.6865 43.47-68.6995 43.332-68.7395L43.332-68.7395ZM65.495-29.1895C74.608-29.1895 81.995-21.8015 81.995-12.6895C81.995-3.57652 74.608 3.81048 65.495 3.81048C56.853 3.81048 49.763-2.83252 49.053-11.2905C47.261-12.1245 45.702-12.5295 44.191-12.5625C42.554-12.5965 40.881-12.1955 38.937-11.2905C38.227-2.83252 31.137 3.81048 22.495 3.81048C13.382 3.81048 5.995-3.57652 5.995-12.6895C5.995-21.8015 13.382-29.1895 22.495-29.1895C31.25-29.1895 38.412-22.3705 38.961-13.7545C40.765-14.4825 42.483-14.8485 44.239-14.8115C45.828-14.7775 47.394-14.4145 49.029-13.7545C49.578-22.3705 56.74-29.1895 65.495-29.1895ZM22.495-26.9395C14.625-26.9395 8.245-20.5595 8.245-12.6895C8.245-4.81952 14.625 1.56048 22.495 1.56048C30.365 1.56048 36.745-4.81952 36.745-12.6895C36.745-20.5595 30.365-26.9395 22.495-26.9395ZM51.245-12.6895C51.245-4.81952 57.625 1.56048 65.495 1.56048C73.365 1.56048 79.745-4.81952 79.745-12.6895C79.745-20.5595 73.365-26.9395 65.495-26.9395C57.625-26.9395 51.245-20.5595 51.245-12.6895Z"/>
  </g>
 </g>
</svg>
