<svg width="114" height="58" viewBox="0 0 114 58" fill="none" xmlns="http://www.w3.org/2000/svg">
<g clip-path="url(#clip0_25130_39836)">
<path d="M84.5319 1.82165C104.89 2.90005 111.937 18.4514 111.937 28.57C111.937 43.4104 99.7552 55.3907 86.4895 55.6979C69.9052 56.0819 61.757 45.0122 57.0589 28.57C52.6701 13.2029 44.2051 0.884303 26.9675 1.82165C13.1531 2.57286 1.97095 15.0463 2.11947 28.57C2.24828 40.2995 10.1454 54.7379 29.525 55.6979" stroke="url(#paint0_linear_25130_39836)" stroke-width="3.23617" stroke-linecap="round" stroke-linejoin="round"/>
<g clip-path="url(#clip1_25130_39836)">
<path d="M29 37.4963C33.6944 37.4963 37.5 33.6908 37.5 28.9963C37.5 24.3019 33.6944 20.4963 29 20.4963C24.3056 20.4963 20.5 24.3019 20.5 28.9963C20.5 33.6908 24.3056 37.4963 29 37.4963Z" fill="white"/>
<path d="M28.9999 20.5H43.7199C42.2283 17.9156 40.0825 15.7694 37.4984 14.2773C34.9142 12.7852 31.9828 11.9998 28.9988 12C26.0148 12.0002 23.0834 12.7861 20.4995 14.2785C17.9155 15.771 15.7701 17.9174 14.2788 20.5021L21.6388 33.25L21.6454 33.2483C20.8967 31.9572 20.5016 30.4916 20.4999 28.9991C20.4982 27.5066 20.89 26.0401 21.6358 24.7473C22.3817 23.4545 23.4551 22.3812 24.748 21.6355C26.0408 20.8898 27.5074 20.4982 28.9999 20.5V20.5Z" fill="#1967D2"/>
<path d="M28.9999 35.7291C32.7163 35.7291 35.7291 32.7163 35.7291 28.9999C35.7291 25.2835 32.7163 22.2708 28.9999 22.2708C25.2835 22.2708 22.2708 25.2835 22.2708 28.9999C22.2708 32.7163 25.2835 35.7291 28.9999 35.7291Z" fill="#1A73E8"/>
<path d="M36.3606 33.2521L29.0006 46C31.9846 46.0004 34.9161 45.2152 37.5003 43.7233C40.0846 42.2314 42.2305 40.0854 43.7223 37.501C45.2141 34.9167 45.9992 31.9852 45.9987 29.0012C45.9982 26.0172 45.212 23.086 43.7193 20.5022H28.9993L28.9976 20.5088C30.49 20.5059 31.9569 20.8965 33.2503 21.6413C34.5437 22.3861 35.6178 23.4587 36.3645 24.751C37.1112 26.0433 37.504 27.5096 37.5033 29.002C37.5026 30.4945 37.1085 31.9605 36.3606 33.2521V33.2521Z" fill="#AECBFA"/>
<path d="M21.6395 33.2521L14.2794 20.5042C12.7871 23.0882 12.0013 26.0195 12.0012 29.0035C12.0011 31.9875 12.7866 34.9189 14.2788 37.5031C15.771 40.0872 17.9172 42.2329 20.5017 43.7244C23.0862 45.2159 26.0178 46.0007 29.0018 45.9999L36.3618 33.252L36.3571 33.2471C35.6133 34.5411 34.5415 35.6161 33.2498 36.3638C31.9582 37.1115 30.4922 37.5054 28.9997 37.5059C27.5072 37.5064 26.041 37.1135 24.7488 36.3667C23.4566 35.6198 22.3841 34.5455 21.6395 33.2521V33.2521Z" fill="#669DF6"/>
</g>
<path d="M80.6875 43.1312L78.35 42.175L80.4396 37.1104C77.8896 36.4965 75.8118 35.1625 74.2063 33.1083C72.6243 31.0542 71.8333 28.7285 71.8333 26.1312V20.3937C71.8333 18.859 72.3764 17.5486 73.4625 16.4625C74.5722 15.3764 75.8826 14.8333 77.3938 14.8333C77.8896 14.8333 78.35 14.9042 78.775 15.0458C79.2 15.1875 79.625 15.3528 80.05 15.5417L88.4438 18.9771L82.9896 20.9958V23.3687L98.75 33.3917L100.167 40.3333H97.3333L95.9521 37.4292H88.7271V43.1667H86.1771V37.4292H83.025L80.6875 43.1312ZM83.1313 34.9146H96.3771L93.5792 33.1437H83.1313C81.5493 33.1437 80.1799 32.5889 79.0229 31.4792C77.8896 30.3694 77.3229 29.0354 77.3229 27.4771H79.8729C79.8729 28.3507 80.1917 29.0944 80.8292 29.7083C81.4667 30.2986 82.234 30.5937 83.1313 30.5937H89.6125L80.4396 24.75V20.3937C80.4396 19.5674 80.1444 18.859 79.5542 18.2687C78.9639 17.6785 78.2438 17.3833 77.3938 17.3833C76.5674 17.3833 75.859 17.6785 75.2688 18.2687C74.6785 18.859 74.3833 19.5674 74.3833 20.3937V26.1312C74.3833 28.5632 75.2333 30.641 76.9333 32.3646C78.6333 34.0646 80.6993 34.9146 83.1313 34.9146ZM77.4292 21.6687C77.0514 21.6687 76.7444 21.5507 76.5083 21.3146C76.2722 21.0549 76.1542 20.7479 76.1542 20.3937C76.1542 20.0396 76.2722 19.7444 76.5083 19.5083C76.7444 19.2722 77.0514 19.1542 77.4292 19.1542C77.7833 19.1542 78.0785 19.2722 78.3146 19.5083C78.5507 19.7444 78.6688 20.0396 78.6688 20.3937C78.6688 20.7479 78.5507 21.0549 78.3146 21.3146C78.0785 21.5507 77.7833 21.6687 77.4292 21.6687Z" fill="#0B57D0"/>
</g>
<defs>
<linearGradient id="paint0_linear_25130_39836" x1="-1.59985" y1="-12.4359" x2="110.311" y2="80.1505" gradientUnits="userSpaceOnUse">
<stop offset="0.112777" stop-color="#0B57D0" stop-opacity="0.556863"/>
<stop offset="0.35" stop-color="#0B57D0" stop-opacity="0.9"/>
<stop offset="0.5" stop-color="white" stop-opacity="0"/>
<stop offset="0.65" stop-color="#0B57D0" stop-opacity="0.9"/>
<stop offset="0.909051" stop-color="#0B57D0"/>
</linearGradient>
<clipPath id="clip0_25130_39836">
<rect width="114" height="58" fill="white"/>
</clipPath>
<clipPath id="clip1_25130_39836">
<rect width="34" height="34" fill="white" transform="translate(12 12)"/>
</clipPath>
</defs>
</svg>
