<svg xmlns="http://www.w3.org/2000/svg" width="44" height="44" fill="none" viewBox="0 0 44 44"><rect width="44" height="44" fill="#fff" rx="14"/><g clip-path="url(#a)"><path fill="#0B57D0" d="m18.564 31.992-1.766-.726 1.428-3.411c-1.726-.387-3.13-1.266-4.21-2.637a7.474 7.474 0 0 1-1.62-4.718v-3.92a3.66 3.66 0 0 1 1.112-2.685 3.66 3.66 0 0 1 2.686-1.113c.338 0 .66.057.967.17l.92.338 5.83 2.371-3.92 1.5v1.38l10.598 6.628 1.016 4.815h-1.911l-.992-1.911h-4.815v3.919H22v-3.92h-1.814l-1.622 3.92Zm1.428-5.806h8.613l-1.597-1.017H20.04a3.66 3.66 0 0 1-2.685-1.113 3.66 3.66 0 0 1-1.113-2.685h1.911c0 .532.186.984.557 1.355.37.37.814.556 1.33.556h3.944l-5.903-3.677V16.58c0-.517-.186-.96-.557-1.331a1.816 1.816 0 0 0-1.33-.556c-.517 0-.96.185-1.331.556a1.816 1.816 0 0 0-.556 1.33v3.92c0 1.58.548 2.927 1.645 4.04 1.112 1.097 2.46 1.646 4.04 1.646Zm-3.799-8.662a.918.918 0 0 1-.677-.266.918.918 0 0 1-.266-.677c0-.274.089-.5.266-.678a.918.918 0 0 1 .678-.266c.274 0 .5.089.677.266a.918.918 0 0 1 .266.678c0 .274-.089.5-.266.677a.918.918 0 0 1-.677.266Z"/></g><defs><clipPath id="a"><path fill="#fff" d="M9 9h26v26H9z"/></clipPath></defs></svg>