<svg xmlns="http://www.w3.org/2000/svg" width="45" height="20" fill="none" viewBox="0 0 45 13"><path fill="#A2A9B0" d="
M7.4 18
L6, 17.44
l1.23 -2.96
c-1.51 -0.15 -2.76 -0.8 -3.75 -1.94
C2.49 11.39 2 10.04 2 8.5
V5
c0 -0.83 0.29 -1.54 0.88 -2.12
A2.89 2.89 0 0 1 5 2
c0.22 0 0.44 0.03 0.65 0.08
c0.21 0.06 0.42 0.13 0.63 0.21
l5.33 2.1
L8 5.83
v0.98
L17 12
l1 4
h-1.5
l-1 -1.5
h-4
V18
H10
v-3.5
H8.83
L7.4 18
Z

M8 13
h7.73
L14 12
H8.25
a2.89 2.89 0 0 1 -2.12 -0.87
A2.89 2.89 0 0 1 5.25 9
h1.5
c0 0.42 0.15 0.77 0.44 1.06
c0.29 0.29 0.65 0.44 1.06 0.44
h3.15
L6.5 7.69
V5
c0 -0.42 -0.15 -0.77 -0.44 -1.06
A1.45 1.45 0 0 0 5 3.5
c-0.42 0 -0.77 0.15 -1.06 0.44
A1.45 1.45 0 0 0 3.5 5
v3.5
c0 1.25 0.44 2.31 1.31 3.19
C5.69 12.56 6.75 13 8 13
Z

M5 5.75
a0.78 0.78 0 0 1 -0.54 -0.21
A0.78 0.78 0 0 1 4.25 5
c0 -0.21 0.07 -0.38 0.21 -0.52
A0.74 0.74 0 0 1 5 4.25
c0.21 0 0.38 0.08 0.52 0.23
c0.15 0.14 0.23 0.31 0.23 0.52
a0.74 0.74 0 0 1 -0.23 0.54
a0.71 0.71 0 0 1 -0.52 0.21
"/></svg>
