<svg width="20" height="20" viewBox="0 0 20 20" fill="none" xmlns="http://www.w3.org/2000/svg">
<path fill-rule="evenodd" clip-rule="evenodd" d="M10 3C6.136 3 3 6.136 3 10C3 13.864 6.136 17 10 17C13.864 17 17 13.864 17 10C17 6.136 13.864 3 10 3ZM4.4 10C4.4 9.573 4.456 9.153 4.547 8.754L7.893 12.1V12.8C7.893 13.57 8.523 14.2 9.293 14.2V15.551C6.542 15.201 4.4 12.849 4.4 10ZM12.793 12.8C13.423 12.8 13.941 13.213 14.123 13.78C15.033 12.786 15.6 11.456 15.6 10C15.6 7.655 14.144 5.639 12.093 4.813V5.1C12.093 5.87 11.463 6.5 10.693 6.5H9.293V7.9C9.293 8.285 8.978 8.6 8.593 8.6H7.193V10H11.393C11.778 10 12.093 10.315 12.093 10.7V12.8H12.793Z" fill="#8BB5F9"/>
</svg>
