<svg width="40" height="40" viewBox="0 0 40 40" fill="none" xmlns="http://www.w3.org/2000/svg">
<path fill-rule="evenodd" clip-rule="evenodd" d="M33.32 9.61719V14.5391H36V9.61719C36 8.91406 35.7333 8.30208 35.2 7.78125C34.6667 7.26042 34.04 7 33.32 7H28.28V9.61719H33.32ZM4 9.61719V14.5391H6.68V9.61719H11.72V7H6.68C5.96 7 5.33333 7.26042 4.8 7.78125C4.26667 8.30208 4 8.91406 4 9.61719ZM28.28 29.3828V32H33.32C34.04 32 34.6667 31.7396 35.2 31.2188C35.7333 30.6979 36 30.0859 36 29.3828V24.4609H33.32V29.3828H28.28ZM4.8 31.2188C5.33333 31.7396 5.96 32 6.68 32H11.72V29.3828H6.68V24.4609H4V29.3828C4 30.0859 4.26667 30.6979 4.8 31.2188ZM39 18H1V20.5H39V18Z"/>
</svg>
