<?xml version="1.0" encoding="UTF-8"?>
<svg width="20px" height="20px" viewBox="0 0 20 20" version="1.1" xmlns="http://www.w3.org/2000/svg" xmlns:xlink="http://www.w3.org/1999/xlink" jetway-hooks="{}">
    <title>ic_fps-60</title>
    <defs>
        <path d="M8,11 C8.42307692,11 8.77514793,11.3195266 8.82680929,11.7291761 L8.83333333,11.8333333 L8.83333333,13.5 C8.83333333,13.9230769 8.51380671,14.2751479 8.10415718,14.3268093 L8,14.3333333 L6.33333333,14.3333333 L6.33333333,16 L5.08333333,16 L5.08333333,11 L8,11 Z M13.75,11 L13.75,12.25 L11.25,12.25 L11.25,12.875 L12.9166667,12.875 C13.375,12.875 13.75,13.25 13.75,13.7083333 L13.75,13.7083333 L13.75,15.1666667 C13.75,15.625 13.375,16 12.9166667,16 L12.9166667,16 L10,16 L10,14.75 L12.5,14.75 L12.5,14.125 L10.625,14.125 C10.2833333,14.125 10,13.8416667 10,13.5 L10,13.5 L10,11.8333333 C10,11.375 10.375,11 10.8333333,11 L10.8333333,11 L13.75,11 Z M3.75,11 L3.75,12.25 L1.25,12.25 L1.25,13.0833333 L3.75,13.0833333 L3.75,14.2833333 L1.25,14.3333333 L1.25,16 L0,16 L0,11 L3.75,11 Z M7.58333333,12.25 L6.33333333,12.25 L6.33333333,13.0833333 L7.58333333,13.0833333 L7.58333333,12.25 Z M6,0.5 L6,2.42857143 L2,2.42857143 L2,3.71428571 L4,3.71428571 C5.05636364,3.71428571 5.91834711,4.49918241 5.99452667,5.49867433 L6,5.64285714 L6,7.57142857 C6,8.59006494 5.18603306,9.42126328 4.14952292,9.49472215 L4,9.5 L2,9.5 C0.943636364,9.5 0.0816528926,8.71510331 0.00547332832,7.71561138 L0,7.57142857 L0,2.42857143 C0,1.40993506 0.813966942,0.578736718 1.85047708,0.505277852 L2,0.5 L6,0.5 Z M12.5,0.5 C13.3284271,0.5 14,1.07563389 14,1.78571429 L14,8.21428571 C14,8.92436611 13.3284271,9.5 12.5,9.5 L9.5,9.5 C8.67157288,9.5 8,8.92436611 8,8.21428571 L8,1.78571429 C8,1.07563389 8.67157288,0.5 9.5,0.5 L12.5,0.5 Z M4,5.5 L2,5.5 L2,7.5 L4,7.5 L4,5.5 Z M12,2.5 L10,2.5 L10,7.5 L12,7.5 L12,2.5 Z" id="path-1"></path>
    </defs>
    <g jetway-hook-id="561A6AC0-F2FB-429B-AF6E-E123A861FCE3" id="ic_fps-60" stroke="none" stroke-width="1" fill="none" fill-rule="evenodd">
        <g jetway-hook-id="C6D4D255-A366-4EE3-B773-C04D145CDA99" id="device/60fps_24px" transform="translate(3.000000, 1.500000)">
            <mask id="mask-2" fill="white">
                <use xlink:href="#path-1"></use>
            </mask>
            <use jetway-hook-id="2246F24F-32BE-40AA-9F85-1B8289CC61AA" id="Combined-Shape" fill="#5F6368" fill-rule="nonzero" xlink:href="#path-1"></use>
        </g>
    </g>
</svg>