<svg width="40" height="40" viewBox="0 0 40 40" xmlns="http://www.w3.org/2000/svg">
<path fill-rule="evenodd" clip-rule="evenodd" d="M20,20.086667 C22.0666667,20.086667 23.75,18.4033337 23.75,16.336667 C23.75,14.2700003 22.0666667,12.586667 20,12.586667 C17.9333333,12.586667 16.25,14.2700003 16.25,16.336667 C16.25,18.4033337 17.9333333,20.086667 20,20.086667 Z M27.5,26.753333 C27.5,24.253333 22.5,23.003333 20,23.003333 C17.5,23.003333 12.5,24.253333 12.5,26.753333 L12.5,28.003333 L27.5,28.003333 L27.5,26.753333 Z"></path>
<path fill-rule="evenodd" clip-rule="evenodd" d="M31.6666667,5 L8.33333333,5 C6.5,5 5,6.5 5,8.33333333 L5,31.6666667 C5,33.5 6.5,35 8.33333333,35 L31.6666667,35 C33.5,35 35,33.5 35,31.6666667 L35,8.33333333 C35,6.5 33.5,5 31.6666667,5 Z M32,32 L8,32 L8,8 L32,8 L32,32 Z"></path>
</svg>
