<svg width="20" height="20" viewBox="0 0 20 20" fill="none" xmlns="http://www.w3.org/2000/svg">
<path d="M12.5715 4.5L12.5629 9.5C12.5629 9.95509 12.4395 10.3813 12.2233 10.7484L11.0073 9.53245C11.0076 9.52428 11.0077 9.51608 11.0078 9.50786L11.0469 4.5078C11.0513 3.95249 10.6023 3.5 10.047 3.5C9.49779 3.5 9.05136 3.94294 9.04706 4.49214L9.02314 7.54828L7.4286 5.95375V4.5C7.4286 3.11667 8.57717 2 10 2C11.4229 2 12.5715 3.11667 12.5715 4.5Z"/>
<path d="M2.23742 3.23744L1 4.47486L10.3834 13.8582C10.2564 13.8685 10.1285 13.8737 10 13.8737C7.6343 13.8737 5.45715 12.1053 5.45715 9.57898H4.00001C4.00001 12.459 6.33144 14.8253 9.14287 15.2379V18H10.8572V15.2379C11.1112 15.2014 11.3614 15.1488 11.6063 15.0811L15.5251 19L16.7626 17.7626L2.23742 3.23744Z"/>
<path d="M13.6393 12.1645L14.6382 13.1633C15.4813 12.1835 16 10.9374 16 9.57898H14.5429C14.5429 10.5811 14.2003 11.4639 13.6393 12.1645Z"/>
</svg>
