<svg width="18" height="18" viewBox="0 0 18 18" fill="none" xmlns="http://www.w3.org/2000/svg">
<path fill-rule="evenodd" clip-rule="evenodd" d="M6.64166 5.38329L5.46666 4.19996L8.99999 0.666626L12.5333 4.19996L11.3583 5.38329L8.99999 3.02496L6.64166 5.38329ZM4.19999 5.46663L0.666656 8.99996L4.19999 12.5333L5.38332 11.3583L3.02499 8.99996L5.38332 6.64163L4.19999 5.46663ZM8.99999 11.5C10.3807 11.5 11.5 10.3807 11.5 8.99996C11.5 7.61925 10.3807 6.49996 8.99999 6.49996C7.61928 6.49996 6.49999 7.61925 6.49999 8.99996C6.49999 10.3807 7.61928 11.5 8.99999 11.5ZM13.8 5.46663L12.6167 6.64163L14.975 8.99996L12.6167 11.3583L13.8 12.5333L17.3333 8.99996L13.8 5.46663ZM6.64166 12.6166L8.99999 14.975L11.3583 12.6166L12.5333 13.8L8.99999 17.3333L5.46666 13.8L6.64166 12.6166Z"/>
</svg>
