<svg width="40" height="40" viewBox="0 0 40 40" fill="none" xmlns="http://www.w3.org/2000/svg">
<path fill-rule="evenodd" clip-rule="evenodd" d="M22.5 26V24C22.5 23.45 22.05 23 21.5 23H18V29H19.5V27H21.5C22.05 27 22.5 26.55 22.5 26ZM21 25.5H19.5V24.5H21V25.5ZM24 23C23.45 23 23 23.45 23 24V26C23 26.41 23.34 26.75 23.75 26.75H26V27.5H23V29H26.5C27.05 29 27.5 28.55 27.5 28V26.25C27.5 25.7 27.05 25.25 26.5 25.25H24.5V24.5H27.5V23H24ZM17 25.5H14V24.5H17V23H12.5V29H14V27L17 26.94V25.5ZM25.5 13V19H22.5V13H25.5ZM25.5 11H22.5C21.4 11 20.5 11.9 20.5 13V19C20.5 20.1 21.4 21 22.5 21H25.5C26.6 21 27.5 20.1 27.5 19V13C27.5 11.9 26.6 11 25.5 11ZM19.5 13V11H14.5C13.4 11 12.5 11.9 12.5 13V19C12.5 20.1 13.4 21 14.5 21H17.5C18.6 21 19.5 20.1 19.5 19V17C19.5 15.9 18.6 15 17.5 15H14.5V13H19.5ZM17.5 17V19H14.5V17H17.5Z" fill="#BDC1C6"/>
<circle cx="20" cy="20" r="20" fill="white" fill-opacity="0.08"/>
</svg>
