<svg width="20" height="20" viewBox="0 0 20 20" fill="none" xmlns="http://www.w3.org/2000/svg">
<path fill-rule="evenodd" clip-rule="evenodd" d="M2.00015 2.08579L17.5565 17.6421L16.1423 19.0563L15.0859 18H4.00015C2.89558 18 2.00015 17.1046 2.00015 16L1.99994 4.914L0.585938 3.5L2.00015 2.08579ZM10.0859 13H8.00015V16H12.0002L11.9999 14.914L10.0859 13ZM7.00015 13H4.00015V16H7.00015V13ZM16.0002 2C17.1047 2 18.0002 2.89543 18.0002 4V15L15.0002 12H16.0002V8H13.0002V10L12.0002 9V8H11.0002L10.0002 7H12.0002V4H8.00015V5L5.00015 2H16.0002ZM9.08594 12L7.99994 10.914L8.00015 12H9.08594ZM5.08594 8H4.00015V12H7.00015L6.99994 9.914L5.08594 8ZM16.0002 4H13.0002V7H16.0002V4Z"/>
</svg>
