<?xml version="1.0" encoding="UTF-8"?>
<svg width="20px" height="20px" viewBox="0 0 20 20" version="1.1" xmlns="http://www.w3.org/2000/svg" xmlns:xlink="http://www.w3.org/1999/xlink" jetway-hooks="{}">
    <title>ic_fps-30</title>
    <g jetway-hook-id="29EF10CE-3344-4C6B-9F98-881C9378E5F7" id="ic_fps-30" stroke="none" stroke-width="1" fill="none" fill-rule="evenodd">
        <path d="M11,12.5 C11.4230769,12.5 11.7751479,12.8195266 11.8268093,13.2291761 L11.8333333,13.3333333 L11.8333333,15 C11.8333333,15.4230769 11.5138067,15.7751479 11.1041572,15.8268093 L11,15.8333333 L9.33333333,15.8333333 L9.33333333,17.5 L8.08333333,17.5 L8.08333333,12.5 L11,12.5 Z M16.75,12.5 L16.75,13.75 L14.25,13.75 L14.25,14.375 L15.9166667,14.375 C16.375,14.375 16.75,14.75 16.75,15.2083333 L16.75,15.2083333 L16.75,16.6666667 C16.75,17.125 16.375,17.5 15.9166667,17.5 L15.9166667,17.5 L13,17.5 L13,16.25 L15.5,16.25 L15.5,15.625 L13.625,15.625 C13.2833333,15.625 13,15.3416667 13,15 L13,15 L13,13.3333333 C13,12.875 13.375,12.5 13.8333333,12.5 L13.8333333,12.5 L16.75,12.5 Z M6.75,12.5 L6.75,13.75 L4.25,13.75 L4.25,14.5833333 L6.75,14.5833333 L6.75,15.7833333 L4.25,15.8333333 L4.25,17.5 L3,17.5 L3,12.5 L6.75,12.5 Z M10.5833333,13.75 L9.33333333,13.75 L9.33333333,14.5833333 L10.5833333,14.5833333 L10.5833333,13.75 Z M7.5,2 C8.32842712,2 9,2.67157288 9,3.5 L9,5.5 C9,5.88469382 8.85518454,6.23556417 8.61709458,6.50107009 C8.8555371,6.76529062 9,7.11577475 9,7.5 L9,9.5 C9,10.3284271 8.32842712,11 7.5,11 L3,11 L3,9 L7,9 L7,7.5 L4,7.5 L4,5.5 L7,5.5 L7,4 L3,4 L3,2 L7.5,2 Z M15.5,2 C16.3284271,2 17,2.57563389 17,3.28571429 L17,9.71428571 C17,10.4243661 16.3284271,11 15.5,11 L12.5,11 C11.6715729,11 11,10.4243661 11,9.71428571 L11,3.28571429 C11,2.57563389 11.6715729,2 12.5,2 L15.5,2 Z M15,4 L13,4 L13,9 L15,9 L15,4 Z" jetway-hook-id="A904BF57-4289-4DD5-9200-C8507D3585C4" id="30fps" fill="#5E6369"></path>
    </g>
</svg>