<svg width="20" height="20" viewBox="0 0 20 20" fill="none" xmlns="http://www.w3.org/2000/svg">
<path fill-rule="evenodd" clip-rule="evenodd" d="M2.5 2.08579L18.0563 17.6421L16.6421 19.0563L14.8261 17.2412C13.5218 18.3388 11.8381 19 10 19C5.85786 19 2.5 15.6421 2.5 11.5C2.5 9.66143 3.16157 7.97737 4.25965 6.6729L1.08578 3.5L2.5 2.08579ZM4.5 11.5C4.5 14.5376 6.96243 17 10 17C11.2859 17 12.4687 16.5587 13.4052 15.8194L5.68081 8.09455C4.94134 9.03115 4.5 10.214 4.5 11.5ZM15.9142 3.58579L17.3284 5L15.7017 6.62736C16.8229 7.93807 17.5 9.63996 17.5 11.5C17.5 12.3968 17.3426 13.2568 17.0539 14.054L15.4229 12.423C15.4736 12.1229 15.5 11.8145 15.5 11.5C15.5 8.46243 13.0376 6 10 6C9.68548 6 9.37712 6.0264 9.07703 6.07711L7.44604 4.44607C8.24319 4.1574 9.10321 4 10 4C11.5601 4 13.0089 4.47633 14.209 5.2915L15.9142 3.58579ZM11 7V8L10 7H11ZM13 1V3H7V1H13Z" fill="#E8EAED"/>
</svg>
