<svg width="20" height="20" viewBox="0 0 20 20" fill="none" xmlns="http://www.w3.org/2000/svg">
<path d="M11 12.5C11.4231 12.5 11.7751 12.8195 11.8268 13.2292L11.8333 13.3333V15C11.8333 15.4231 11.5138 15.7751 11.1042 15.8268L11 15.8333H9.33333V17.5H8.08333V12.5H11ZM16.75 12.5V13.75H14.25V14.375H15.9167C16.375 14.375 16.75 14.75 16.75 15.2083V16.6667C16.75 17.125 16.375 17.5 15.9167 17.5H13V16.25H15.5V15.625H13.625C13.2833 15.625 13 15.3417 13 15V13.3333C13 12.875 13.375 12.5 13.8333 12.5H16.75ZM6.75 12.5V13.75H4.25V14.5833H6.75V15.7833L4.25 15.8333V17.5H3V12.5H6.75ZM10.5833 13.75H9.33333V14.5833H10.5833V13.75ZM9 2V3.92857H5V5.21429H7C8.05636 5.21429 8.91835 5.99918 8.99453 6.99867L9 7.14286V9.07143C9 10.0901 8.18603 10.9213 7.14952 10.9947L7 11H5C3.94364 11 3.08165 10.2151 3.00547 9.21561L3 9.07143V3.92857C3 2.90994 3.81397 2.07874 4.85048 2.00528L5 2H9ZM15.5 2C16.3284 2 17 2.57563 17 3.28571V9.71429C17 10.4244 16.3284 11 15.5 11H12.5C11.6716 11 11 10.4244 11 9.71429V3.28571C11 2.57563 11.6716 2 12.5 2H15.5ZM7 7H5V9H7V7ZM15 4H13V9H15V4Z"/>
</svg>
