<svg width="42" height="43" viewBox="0 0 42 43" fill="none" xmlns="http://www.w3.org/2000/svg">
<g filter="url(#filter0_d_4620_12357)">
<path d="M27 12C28.1046 12 29 12.8954 29 14V26C29 27.1046 28.1046 28 27 28H15C13.8954 28 13 27.1046 13 26V14C13 12.8954 13.8954 12 15 12H27ZM18 23H15V26H18V23ZM27 23H24V26H27V23ZM23 23H19V26H23V23ZM18 18H15V22H18V18ZM27 18H24V22H27V18ZM23 18H19V22H23V18ZM18 14H15V17H18V14ZM27 14H24V17H27V14ZM23 14H19V17H23V14Z" fill="#8AB4F8"/>
<circle cx="21" cy="20" r="18" fill="#8AB4F8" fill-opacity="0.24"/>
</g>
<defs>
<filter id="filter0_d_4620_12357" x="0" y="1" width="42" height="42" filterUnits="userSpaceOnUse" color-interpolation-filters="sRGB">
<feFlood flood-opacity="0" result="BackgroundImageFix"/>
<feColorMatrix in="SourceAlpha" type="matrix" values="0 0 0 0 0 0 0 0 0 0 0 0 0 0 0 0 0 0 127 0" result="hardAlpha"/>
<feOffset dy="2"/>
<feGaussianBlur stdDeviation="1.5"/>
<feColorMatrix type="matrix" values="0 0 0 0 0.12549 0 0 0 0 0.129412 0 0 0 0 0.141176 0 0 0 0.3 0"/>
<feBlend mode="normal" in2="BackgroundImageFix" result="effect1_dropShadow_4620_12357"/>
<feBlend mode="normal" in="SourceGraphic" in2="effect1_dropShadow_4620_12357" result="shape"/>
</filter>
</defs>
</svg>
