<svg width="24px" height="24px" viewBox="0 0 24 24" version="1.1" xmlns="http://www.w3.org/2000/svg" xmlns:xlink="http://www.w3.org/1999/xlink">
    <defs>
        <path d="M11.0083333,6.9 C11.0083333,6.44166667 11.3833333,6.06666667 11.8416667,6.06666667 C12.3,6.06666667 12.675,6.44166667 12.675,6.9 L12.675,11.2083333 L14.1916667,12.725 C14.2833333,12.4666667 14.3416667,12.1916667 14.3416667,11.9 L14.3416667,6.9 C14.3416667,5.51666667 13.225,4.4 11.8416667,4.4 C10.4583333,4.4 9.34166667,5.51666667 9.34166667,6.9 L9.34166667,7.875 L11.0083333,9.54166667 L11.0083333,6.9 Z M4.18333333,5.075 L3,6.25 L12.7083333,15.9583333 C12.4333333,16.025 12.1416667,16.0666667 11.8416667,16.0666667 C9.54166667,16.0666667 7.675,14.2 7.675,11.9 L6.00833333,11.9 C6.00833333,14.8416667 8.18333333,17.2583333 11.0083333,17.6666667 L11.0083333,20.2333333 L12.675,20.2333333 L12.675,17.6666667 C13.15,17.6 13.6083333,17.4666667 14.0416667,17.2833333 L18.325,21.5666667 L19.5,20.3916667 L4.18333333,5.075 Z M17.675,11.9 L16.0083333,11.9 C16.0083333,12.6583333 15.7916667,13.3583333 15.4333333,13.9666667 L16.65,15.1833333 C17.2916667,14.25 17.675,13.125 17.675,11.9 Z" id="path-1"></path>
        <filter x="-27.3%" y="-26.2%" width="154.5%" height="152.4%" filterUnits="objectBoundingBox" id="filter-3">
            <feOffset dx="0" dy="0" in="SourceAlpha" result="shadowOffsetOuter1"></feOffset>
            <feGaussianBlur stdDeviation="1.5" in="shadowOffsetOuter1" result="shadowBlurOuter1"></feGaussianBlur>
            <feColorMatrix values="0 0 0 0 0.125490196   0 0 0 0 0.129411765   0 0 0 0 0.141176471  0 0 0 0.3 0" type="matrix" in="shadowBlurOuter1"></feColorMatrix>
        </filter>
    </defs>
    <g stroke="none" stroke-width="1" fill="none" fill-rule="evenodd">
        <mask id="mask-2" fill="white">
            <use xlink:href="#path-1"></use>
        </mask>
        <g id="ic_mic_off_24px" fill-rule="nonzero">
            <use fill="black" fill-opacity="1" filter="url(#filter-3)" xlink:href="#path-1"></use>
            <use fill="#FFFFFF" xlink:href="#path-1"></use>
        </g>
    </g>
</svg>
