<svg width="36" height="36" viewBox="0 0 36 36" fill="none" xmlns="http://www.w3.org/2000/svg">
<circle cx="18" cy="18" r="18" fill="#F28B82" fill-opacity="0.3"/>
<path d="M20.5715 12.5L20.5629 17.5C20.5629 17.9551 20.4395 18.3813 20.2233 18.7484L19.0073 17.5324C19.0076 17.5243 19.0077 17.5161 19.0078 17.5079L19.0469 12.5078C19.0513 11.9525 18.6023 11.5 18.047 11.5C17.4978 11.5 17.0514 11.9429 17.0471 12.4921L17.0231 15.5483L15.4286 13.9537V12.5C15.4286 11.1167 16.5772 10 18 10C19.4229 10 20.5715 11.1167 20.5715 12.5Z" fill="#F28B82"/>
<path d="M10.2374 11.2374L9 12.4749L18.3834 21.8582C18.2564 21.8685 18.1285 21.8737 18 21.8737C15.6343 21.8737 13.4572 20.1053 13.4572 17.579H12C12 20.459 14.3314 22.8253 17.1429 23.2379V26H18.8572V23.2379C19.1112 23.2014 19.3614 23.1488 19.6063 23.0811L23.5251 27L24.7626 25.7626L10.2374 11.2374Z" fill="#F28B82"/>
<path d="M21.6393 20.1645L22.6382 21.1633C23.4813 20.1835 24 18.9374 24 17.579H22.5429C22.5429 18.5811 22.2003 19.4639 21.6393 20.1645Z" fill="#F28B82"/>
</svg>
