<svg width="20" height="20" viewBox="0 0 20 20" fill="none" xmlns="http://www.w3.org/2000/svg">
<path fill-rule="evenodd" clip-rule="evenodd" d="M2.00015 2.08579L17.5565 17.6421L16.1423 19.0563L14.9999 17.914L15.0002 18H13.0002V16H13.0859L10.9999 13.914L11.0002 19H9.00015L8.99994 11.914L3.99994 6.914L4.00015 16H7.00015V18H4.00015C2.94579 18 2.08199 17.1841 2.00564 16.1493L2.00015 16L1.99994 4.914L0.585938 3.5L2.00015 2.08579ZM18.0002 12V14H17.0002L16.0002 13V12H18.0002ZM18.0002 9V11H16.0002V9H18.0002ZM18.0002 6V8H16.0002V6H18.0002ZM11.0002 1V8L9.00015 6V1H11.0002ZM16.0002 2L16.1494 2.00549C17.1325 2.07802 17.918 2.86123 17.9941 3.84335L18.0002 4V5H16.0002V2ZM7.00015 2V4L5.00015 2H7.00015ZM15.0002 2V4H13.0002V2H15.0002Z"/>
</svg>
