<svg width="20" height="20" viewBox="0 0 20 20" fill="none" xmlns="http://www.w3.org/2000/svg">
<path fill-rule="evenodd" clip-rule="evenodd" d="M11 1V19H9V1H11ZM15 16V18H13V16H15ZM18 15V16C18 17.0544 17.1841 17.9182 16.1493 17.9945L16 18V15H18ZM7 2V4H4V16H7V18H4C2.94564 18 2.08183 17.1841 2.00549 16.1493L2 16V4C2 2.94564 2.81588 2.08183 3.85074 2.00549L4 2H7ZM18 12V14H16V12H18ZM18 9V11H16V9H18ZM18 6V8H16V6H18ZM16 2L16.1493 2.00549C17.1324 2.07802 17.9179 2.86123 17.994 3.84335L18 4V5H16V2ZM15 2V4H13V2H15Z"/>
</svg>
