<svg xmlns="http://www.w3.org/2000/svg" width="40" height="40" viewBox="0 0 40 40">
<path fill-rule="evenodd" clip-rule="evenodd" d="M32.8,9.22222222 L27.728,9.22222222 L24.8,6 L15.2,6 L12.272,9.22222222 L7.2,9.22222222 C5.44,9.22222222 4,10.6722222 4,12.4444444 L4,31.7777778 C4,33.55 5.44,35 7.2,35 L32.8,35 C34.56,35 36,33.55 36,31.7777778 L36,12.4444444 C36,10.6722222 34.56,9.22222222 32.8,9.22222222 Z M33,32 L7,32 L7,12 L33,12 L33,32 Z M20,15.6666667 C16.464,15.6666667 13.6,18.5505556 13.6,22.1111111 C13.6,25.6716667 16.464,28.5555556 20,28.5555556 C23.536,28.5555556 26.4,25.6716667 26.4,22.1111111 C26.4,18.5505556 23.536,15.6666667 20,15.6666667 Z"/>
</svg>
