<svg width="21" height="21" viewBox="0 0 21 21" fill="none" xmlns="http://www.w3.org/2000/svg">
<path fill-rule="evenodd" clip-rule="evenodd" d="M12.6792 0.92041L14.1786 2.42041L12.8558 3.74274C17.1926 4.07318 20.6086 7.69675 20.6086 12.1182C20.6086 16.7574 16.8478 20.5182 12.2086 20.5182C11.0696 20.5182 9.98361 20.2915 8.99317 19.8808L10.8995 17.9749C11.3209 18.0687 11.759 18.1182 12.2086 18.1182C15.5223 18.1182 18.2086 15.4319 18.2086 12.1182C18.2086 8.86772 15.6239 6.22095 12.3977 6.1211L14.1786 7.90561L12.6792 9.40569L8.43656 5.16305L12.6792 0.92041ZM6.7395 6.86011L12.6792 12.7998L6.7395 18.7395L0.799805 12.7998L6.7395 6.86011ZM6.7395 10.2542L4.19392 12.7998L6.7395 15.3454L9.28509 12.7998L6.7395 10.2542Z"/>
</svg>
