<svg width="20" height="20" viewBox="0 0 20 20" fill="none" xmlns="http://www.w3.org/2000/svg">
<path fill-rule="evenodd" clip-rule="evenodd" d="M18.3334 13.3334V3.33335C18.3334 2.41669 17.5834 1.66669 16.6667 1.66669H6.66675C5.75008 1.66669 5.00008 2.41669 5.00008 3.33335V13.3334C5.00008 14.25 5.75008 15 6.66675 15H16.6667C17.5834 15 18.3334 14.25 18.3334 13.3334ZM15.0001 16.6667H3.33341V5.00002H1.66675V16.6667C1.66675 17.5834 2.41675 18.3334 3.33341 18.3334H15.0001V16.6667ZM16.6667 3.33335H6.66675V13.3334H16.6667V3.33335ZM12.5001 11.6667H10.8334V9.16669H8.33342V7.50002H10.8334V5.00002H12.5001V7.50002H15.0001V9.16669H12.5001V11.6667Z"/>
</svg>
