<svg width="20" height="20" viewBox="0 0 20 20" fill="none" xmlns="http://www.w3.org/2000/svg">
<path fill-rule="evenodd" clip-rule="evenodd" d="M14 12C13.21 12 12.5 12.31 11.97 12.81L7.91 10.7C7.96 10.47 8 10.24 8 10C8 9.76 7.96 9.53 7.91 9.3L11.96 7.19C12.49 7.69 13.21 8 14 8C15.66 8 17 6.66 17 5C17 3.34 15.66 2 14 2C12.34 2 11 3.34 11 5C11 5.24 11.04 5.48 11.09 5.7L7.04 7.81C6.5 7.31 5.79 7 5 7C3.34 7 2 8.34 2 10C2 11.66 3.34 13 5 13C5.79 13 6.5 12.69 7.04 12.19L11.09 14.31C11.04 14.53 11 14.76 11 15C11 16.66 12.34 18 14 18C15.66 18 17 16.66 17 15C17 13.34 15.66 12 14 12ZM14 4C14.55 4 15 4.45 15 5C15 5.55 14.55 6 14 6C13.45 6 13 5.55 13 5C13 4.45 13.45 4 14 4ZM5 11C4.45 11 4 10.55 4 10C4 9.45 4.45 9 5 9C5.55 9 6 9.45 6 10C6 10.55 5.55 11 5 11ZM14 16C13.45 16 13 15.55 13 15C13 14.45 13.45 14 14 14C14.55 14 15 14.45 15 15C15 15.55 14.55 16 14 16Z"/>
</svg>
