<svg width="15" height="16" viewBox="0 0 15 16" fill="none" xmlns="http://www.w3.org/2000/svg">
<path fill-rule="evenodd" clip-rule="evenodd" d="M12 10C11.21 10 10.5 10.31 9.97 10.81L5.91 8.7C5.96 8.47 6 8.24 6 8C6 7.76 5.96 7.53 5.91 7.3L9.96 5.19C10.49 5.69 11.21 6 12 6C13.66 6 15 4.66 15 3C15 1.34 13.66 0 12 0C10.34 0 9 1.34 9 3C9 3.24 9.04 3.48 9.09 3.7L5.04 5.81C4.5 5.31 3.79 5 3 5C1.34 5 0 6.34 0 8C0 9.66 1.34 11 3 11C3.79 11 4.5 10.69 5.04 10.19L9.09 12.31C9.04 12.53 9 12.76 9 13C9 14.66 10.34 16 12 16C13.66 16 15 14.66 15 13C15 11.34 13.66 10 12 10ZM12 2C12.55 2 13 2.45 13 3C13 3.55 12.55 4 12 4C11.45 4 11 3.55 11 3C11 2.45 11.45 2 12 2ZM3 9C2.45 9 2 8.55 2 8C2 7.45 2.45 7 3 7C3.55 7 4 7.45 4 8C4 8.55 3.55 9 3 9ZM12 14C11.45 14 11 13.55 11 13C11 12.45 11.45 12 12 12C12.55 12 13 12.45 13 13C13 13.55 12.55 14 12 14Z" fill="#8AB4F8"/>
</svg>
