<svg xmlns="http://www.w3.org/2000/svg" width="416" height="206" viewBox="0 0 416 206" fill="none">
<style type="text/css">.st0{fill-rule:evenodd;clip-rule:evenodd;fill:var(--cros-sys-black)}.st1{fill:var(--cros-sys-illo-color1);}.st2{fill:var(--cros-sys-illo-color1-1);}.st3{fill:var(--cros-sys-illo-color1-1);stroke:var(--cros-sys-illo-color1);stroke-width:3;}.st4{fill:none;stroke:var(--cros-sys-illo-color1);stroke-width:3;stroke-linecap:round;stroke-linejoin:round;stroke-miterlimit:10;}.st5{fill:var(--cros-sys-illo-color1);stroke:var(--cros-sys-illo-color1);stroke-width:3;stroke-linecap:round;}.st6{fill:none;stroke:var(--cros-sys-illo-color1);stroke-width:3;stroke-linecap:round;stroke-linejoin:round;}.st7{fill:none;stroke:var(--cros-sys-illo-color1);stroke-width:3;stroke-linecap:round;}.st8{fill-rule:evenodd;clip-rule:evenodd;stroke:var(--cros-sys-illo-color1);stroke-width:3;fill:var(--cros-sys-black);}.st9{stroke:var(--cros-sys-illo-color1);stroke-width:3;fill:var(--cros-sys-black);}.st10{fill:url(#SVGID_1_);}.st11{fill:var(--cros-sys-illo-color3);}.st12{fill:var(--cros-sys-illo-color5);}</style>
<path class="st0" d="M265.6,77.7v108.5h-123V77.7v-1.5h0c0.8-33.3,28-60,61.5-60s60.7,26.7,61.5,60h0V77.7z" />
<path class="st1" d="M183.6,92.3c0,0-0.8,6.4-2.8,6.4c-1.9-0.1-2.3-3,0.1-7.5c0,0-4.5,3.2-5.5,1.3c-1-1.9,4.4-3.9,4.4-3.9  s-6.1,1.5-6.2-1.2c-0.1-2.5,6.4-1.9,6.4-1.9s-6.7-1.6-5.6-4.1c1-2.5,6.4,1,6.4,1s-9.2-6.2-6.5-9.8c2-2.7,9,6.3,9,6.3s-5.5-9.5-2-10  c3.1-0.6,4.5,8.2,4.5,8.2s-0.5-10.8,2.4-9.3c2.3,1.2,1.5,7.7,1.5,7.7s4-8.9,6.9-6.7c1,0.8,1,3.7-3.4,7.1c0,0,6.5-3.4,7.6-1.3  c1.6,3-6.7,4.8-6.7,4.8L183.6,92.3z" />
<path class="st2" d="M198.8,115.1l1-9c0,0-2.4,0.1-5.8-1c-3.4-1.1-5.2-3-5.2-3l-4.4,9.2c0,0,2.1,2.5,6.4,3.3  C195,115.4,198.8,115.1,198.8,115.1z" />
<path class="st1" d="M199.8,106.1l1.5,0.2l0.2-1.7l-1.7,0L199.8,106.1z M198.8,115.1l0.1,1.5l1.2-0.1l0.1-1.2L198.8,115.1z   M184.3,111.4l-1.4-0.6l-0.4,0.9l0.6,0.7L184.3,111.4z M188.8,102.1l1.1-1l-1.5-1.5l-0.9,1.9L188.8,102.1z M194,105.1l-0.5,1.4l0,0  L194,105.1z M198.3,105.9l-1,9l3,0.3l1-9L198.3,105.9z M198.8,115.1c-0.1-1.5-0.1-1.5-0.1-1.5l0,0l0,0c0,0,0,0,0,0c0,0,0,0,0,0  c0,0,0,0,0,0c0,0-0.1,0-0.1,0c-0.1,0-0.2,0-0.4,0c-0.4,0-1,0-1.7,0c-1.4,0-3.3-0.1-5.4-0.5l-0.5,2.9c2.2,0.4,4.3,0.5,5.9,0.6  c0.8,0,1.4,0,1.8,0c0.2,0,0.4,0,0.5,0c0.1,0,0.1,0,0.1,0c0,0,0,0,0,0c0,0,0,0,0,0c0,0,0,0,0,0s0,0,0,0c0,0,0,0,0,0  S198.9,116.6,198.8,115.1z M191,113.1c-1.9-0.4-3.3-1.1-4.3-1.7c-0.5-0.3-0.8-0.6-1-0.8c-0.1-0.1-0.2-0.2-0.2-0.2c0,0,0,0,0,0  c0,0,0,0,0,0s0,0,0,0c0,0,0,0,0,0l0,0c0,0,0,0,0,0c0,0,0,0-1.1,1c-1.1,1-1.1,1-1.1,1l0,0c0,0,0,0,0,0c0,0,0,0,0,0c0,0,0,0,0,0  c0,0,0,0,0,0c0,0,0.1,0.1,0.1,0.1c0.1,0.1,0.2,0.2,0.4,0.4c0.3,0.3,0.8,0.7,1.4,1.1c1.2,0.8,3,1.7,5.4,2.2L191,113.1z M185.7,112  l4.4-9.2l-2.7-1.3l-4.4,9.2L185.7,112z M193.5,106.5c1.8,0.6,3.3,0.9,4.5,1c0.6,0.1,1,0.1,1.3,0.1c0.2,0,0.3,0,0.4,0  c0,0,0.1,0,0.1,0c0,0,0,0,0,0c0,0,0,0,0,0c0,0,0,0,0,0c0,0,0,0,0,0l0,0c0,0,0,0,0-1.5c0-1.5,0-1.5,0-1.5l0,0c0,0,0,0,0,0  c0,0,0,0,0,0c0,0,0,0,0,0c0,0,0,0,0,0c0,0,0,0-0.1,0c-0.1,0-0.1,0-0.3,0c-0.2,0-0.6,0-1.1-0.1c-0.9-0.1-2.3-0.4-3.9-0.9L193.5,106.5  z M194.4,103.6c-1.5-0.5-2.7-1.2-3.5-1.7c-0.4-0.3-0.7-0.5-0.9-0.7c-0.1-0.1-0.2-0.1-0.2-0.2c0,0,0,0,0,0c0,0,0,0,0,0s0,0,0,0  c0,0,0,0,0,0c0,0,0,0,0,0v0c0,0,0,0-1.1,1c-1.1,1-1.1,1-1.1,1c0,0,0,0,0,0l0,0c0,0,0,0,0,0c0,0,0,0,0,0c0,0,0,0,0,0  c0,0,0.1,0,0.1,0.1c0.1,0.1,0.2,0.2,0.3,0.3c0.3,0.2,0.6,0.5,1.1,0.9c1,0.7,2.4,1.5,4.3,2.1L194.4,103.6z" />
<circle class="st3" cx="197.1" cy="94.4" r="12.5" />
<path class="st4" d="M200,99c1,0.5,2,0.5,3-0.2" />
<path class="st1" d="M183.8,112.5c0.8,0.1,1.6-0.4,1.7-1.2c0.1-0.8-0.4-1.6-1.2-1.7L183.8,112.5z M184,111c0.2-1.5,0.2-1.5,0.2-1.5  h0c0,0,0,0,0,0c0,0,0,0,0,0c0,0,0,0-0.1,0c-0.1,0-0.1,0-0.2,0c-0.2,0-0.5-0.1-0.8-0.1c-0.7-0.1-1.7-0.2-3-0.4  c-2.6-0.3-6.2-0.6-10.2-0.8c-8.1-0.3-18.3,0-26.4,2.9l1,2.8c7.5-2.7,17.2-3,25.3-2.7c4,0.2,7.5,0.5,10,0.8c1.3,0.1,2.3,0.3,2.9,0.4  c0.3,0,0.6,0.1,0.8,0.1c0.1,0,0.2,0,0.2,0c0,0,0,0,0,0c0,0,0,0,0,0c0,0,0,0,0,0s0,0,0,0C183.8,112.5,183.8,112.5,184,111z   M143.9,179.5l50.9,2.6l0.2-3l-50.9-2.6L143.9,179.5z" />
<path class="st5" d="M143.5,184.5v-8l51,5.3l-0.2,3.5L143.5,184.5z" />
<path class="st4" d="M208.8,159.7c-1.7,2.6-3.3,5.1-4.8,7.8c-1.5,2.6-2.9,5.1-4.5,7.7c-1.3,2-2.8,4.2-4.5,5.4" />
<path class="st2" d="M259.9,85.8c-0.5-6.4,0.8-10.8,2.5-17.1c0.8-2.8,3-5.2,5.5-1.3c1.9,2.8,1.3,3.5,1.1,6.7  c-0.2,2.3,3.5-2.4,6.4,3.1c1.2-1.3,4.2-3.4,6.6,5.3c0,0,1.7-3.9,6.2-2.3c4.5,1.6,5.3,4.1,4.2,6.7c-1.1,2.6-5,0.9-5,0.9  s-1.6,5.8-0.7,10.2c0.9,4.4,1.8,9.4,1.5,15.1c-0.3,5.7-5.5,13.6-5.5,13.6s-2.7,16.4-4.2,24.7c-1.4,8.3-15.4,26.1-30,25  c-14.6-1.1-26-10.5-26-10.5l19.5-31l10,6l6.2-21.7l-3.3-24.5L259.9,85.8z" />
<path class="st6" d="M197.6,115.2c14.4,1.1,30.4,9.3,44.4,18.8l-21.5,35l-12.5-6" />
<path class="st7" d="M271,77.2c1.8-3.2,4.7-2.2,6.4,0.5c1.8,2.8,2,7.9,2.3,11.1c0.2,1.6,0.7,7-3.6,6.2c-2.3-0.4-3-4.8-3.2-8.4" />
<path class="st7" d="M278,77.2c1.6-1.1,2.6-1.2,4.1,0.6c1.3,1.6,2.1,4.4,2.5,6.4c0.5,2.3,1,5,0.3,7.2c-0.5,1.5-2.5,2.9-4.6,2.1" />
<path class="st7" d="M285.2,81.5c2.7-1.7,3.7-2.1,6.1-0.9c1.9,1,3.3,3,3.7,5c0.8,4.5-4.5,4.8-5.5,1.6" />
<path class="st7" d="M288.8,89c-2.3,8.1,2.1,18.1,0.2,26.4c-0.9,3.9-2.6,7.9-5.7,10.4c0,0-2.5,45-26.8,50.2  c-15.7,1.9-28.5-5.9-33.8-9.9" />
<path class="st1" d="M242.8,133.7c-0.7-0.4-1.6-0.1-2,0.6c-0.4,0.7-0.1,1.6,0.6,2L242.8,133.7z M241.3,136.3l9.9,5.5l1.5-2.6  l-9.9-5.5L241.3,136.3z" />
<path class="st8" d="M308.5,94.9c-1.4,0.1-5.9-0.1-7.3,0c-3.7,0.1-7.5,0.2-11.2,0.2c-5.2,0.1-10.5,0.3-15.7,0.4  c-6,0.1-12,0.3-18,0.4c-6,0.1-11.9,0.3-17.9,0.4c-5.1,0.1-10.2,0.3-15.5,0.4c-3.6,0.1-7.1,0.2-10.6,0.3c-1.8,0-3.7,0.4-5.4-0.4  c-1.4-0.6-2.4-2-2.5-3.5c-0.1-1.2,0.3-2.5,1.1-3.4c1.2-1.4,3.7-2,5.4-2.8c1.3-0.6,2.5-1.2,3.9-1.8c3.8-1.7,7.7-3.5,11.4-5.1  c4.9-2.2,9.9-4.4,14.7-6.7c5.5-2.5,10.8-4.9,16.3-7.3c14.6-6.5,29.4-13.4,44.3-19.4C301.5,46.3,308.5,94.9,308.5,94.9z" />
<path class="st2" d="M261.5,100.5c0.5,4.6-2.9,17-1.5,21.5l14.2-6.7c-0.1-2.8,4.8-12.8-1.7-22.3c-2.1-4.5-1-12-2-14  c-0.9-3.3-4.6-0.4-6,1.5C261.2,85.1,260.9,95.2,261.5,100.5z" />
<path class="st7" d="M255,96.5c0,0,3,13,3,23.5s-8,25-8,25" />
<path class="st7" d="M143.6,69.2v117" />
<path class="st7" d="M90.6,186.2h209" />
<path class="st2" d="M152.8,144.5c-1.3,10.2-3,8.2-3,8.2s-13.1-5.3-16.7-7.6c-0.3-2.8,2-1.5,2-4.3c-0.1-6-2.3-12.6,0.9-15.7  c3.2-3.1,12.3-0.7,12.5,2.7C148.6,131.1,154.1,134.2,152.8,144.5z" />
<path class="st6" d="M149,154.6c0,0,3.7-3.9,3.5-7.6c-0.2-3.8-5.2-4.7-5.2-4.7s-8.9-2-11.7-1.3c-2.7,0.8-3.6,5.2,0.3,6.3  c3.9,1.1,7.8,2,7.8,2l-0.4,2.5" />
<path class="st6" d="M152.1,145.1c0,0,1.1-0.1,0.9-3.3c-0.4-7.6-13.1-8.5-16.9-7.6c-3.8,0.8-2.5,5.3-0.8,6.6" />
<path class="st6" d="M134.2,135.2c0,0-2.5-5.3,1.9-6.1c4.3-0.8,16.3-0.1,16.7,7c0.1,1,0,1.7-0.2,2.2" />
<path class="st6" d="M148.9,130.8c0.6-8.3-7.5-7.2-11.6-7c-4.1,0.2-3.1,4.3-3.1,4.3" />
<circle class="st9" cx="311" cy="70" r="25.5" />
<path class="st7" d="M284,54c-11.8,11.8-7.9,33.4,6.5,40.5" />
<path class="st3" d="M145.6,157.5c-1.7,0.1-3.3-1.3-3.4-3.4c-0.1-2.1,1.4-3.7,3.1-3.7c1.7-0.1,3.3,1.3,3.4,3.4  C148.8,155.8,147.3,157.4,145.6,157.5z" />
<path class="st1" d="M199,86l-14.1,14.1c0,0-6-14.8,7-19.2c13-4.4,15.1,7.6,15.1,7.6l-5.7-2.9C200.5,85.3,199.6,85.4,199,86z" />
<path class="st6" d="M277.2,110.5c0.8-4.8-0.3-12.4-5.7-17.7c-0.4-0.4-0.3-6.7-0.3-7.4c0.1-2.2,0.5-4.9-0.6-6.8  c-0.6-1.1-2.5-2-4.1-1.6c-1.8,0.6-2.8,2.6-3.5,4c-1.3,4.9-0.5,13.9-3.5,19" />
<linearGradient id="SVGID_1_" gradientUnits="userSpaceOnUse" x1="290" y1="138" x2="332" y2="138" gradientTransform="matrix(1 0 0 -1 0 208)">
	<stop offset="0" style="stop-color:var(--cros-sys-illo-complement);" />
	<stop offset="1" style="stop-color:var(--cros-sys-illo-analog);" />
</linearGradient>
<path class="st10" d="M311,91c11.6,0,21-9.4,21-21s-9.4-21-21-21s-21,9.4-21,21S299.4,91,311,91z" />
<path class="st1" d="M354.6,69.3c0-2.2-0.4-4.2-1.2-6.1c-0.8-1.9-1.9-3.5-3.3-4.9c-1.4-1.4-3-2.5-4.9-3.3c-1.9-0.8-3.9-1.2-6.1-1.2  c2.2,0,4.2-0.4,6.1-1.2c1.9-0.8,3.5-1.9,4.9-3.3c1.4-1.4,2.5-3.1,3.3-5c0.8-1.9,1.2-3.9,1.2-6.1c0,2.2,0.4,4.2,1.2,6.1  c0.8,1.9,1.9,3.6,3.3,5c1.4,1.4,3.1,2.5,5,3.3c1.9,0.8,3.9,1.2,6.1,1.2c-2.2,0-4.2,0.4-6.1,1.2c-1.9,0.8-3.6,1.9-5,3.3  c-1.4,1.4-2.5,3-3.3,4.9C355,65.1,354.6,67.1,354.6,69.3z" />
<path class="st11" d="M304.6,25.9l15.1,8.6c1.3,0.7,2.8-0.2,2.8-1.6l-0.1-17.4c0-1.4-1.6-2.3-2.8-1.6l-15,8.8  C303.3,23.5,303.4,25.3,304.6,25.9z" />
<circle class="st12" cx="345" cy="25" r="6" />
</svg>