<svg width="416" height="206" viewBox="0 0 416 206" fill="none" xmlns="http://www.w3.org/2000/svg">
<path fill-rule="evenodd" clip-rule="evenodd" d="M265.571 77.7266V186.227H142.571V77.7266V76.2266H142.589C143.386 42.9541 170.607 16.2266 204.071 16.2266C237.535 16.2266 264.757 42.9541 265.553 76.2266H265.571V77.7266Z" fill="black"/>
<path d="M183.644 92.3022C183.644 92.3022 182.86 98.7083 180.871 98.6842C178.998 98.6284 178.552 95.6834 180.945 91.1561C180.945 91.1561 176.438 94.379 175.452 92.4563C174.466 90.5336 179.838 88.5154 179.838 88.5154C179.838 88.5154 173.761 89.9739 173.668 87.3087C173.576 84.831 180.094 85.3805 180.094 85.3805C180.094 85.3805 173.414 83.8112 174.453 81.2774C175.492 78.7435 180.856 82.2332 180.856 82.2332C180.856 82.2332 171.693 76.0813 174.325 72.4277C176.339 69.755 183.294 78.7574 183.294 78.7574C183.294 78.7574 177.78 69.3021 181.288 68.7273C184.405 68.1331 185.781 76.8951 185.781 76.8951C185.781 76.8951 185.291 66.0788 188.186 67.6095C190.534 68.8505 189.712 75.3297 189.712 75.3297C189.712 75.3297 193.719 66.4235 196.579 68.5894C197.559 69.3876 197.536 72.2719 193.147 75.6506C193.147 75.6506 199.643 72.2644 200.747 74.3429C202.363 77.3462 194.025 79.1043 194.025 79.1043L183.644 92.3022Z" fill="#B4C5FF"/>
<path d="M198.759 115.109L199.759 106.108C199.759 106.108 197.346 106.164 193.959 105.066C190.572 103.967 188.759 102.109 188.759 102.109L184.348 111.356C184.348 111.356 186.477 113.814 190.759 114.609C195.041 115.403 198.759 115.109 198.759 115.109Z" fill="#595E72"/>
<path d="M199.759 106.108L201.249 106.274L201.439 104.569L199.724 104.609L199.759 106.108ZM198.759 115.109L198.877 116.604L200.113 116.506L200.25 115.274L198.759 115.109ZM184.348 111.356L182.994 110.71L182.571 111.596L183.214 112.338L184.348 111.356ZM188.759 102.109L189.833 101.061L188.331 99.5219L187.405 101.463L188.759 102.109ZM193.959 105.066L193.496 106.492L193.496 106.492L193.959 105.066ZM198.268 105.943L197.268 114.943L200.25 115.274L201.249 106.274L198.268 105.943ZM198.759 115.109C198.64 113.613 198.641 113.613 198.641 113.613C198.641 113.613 198.641 113.613 198.641 113.613C198.641 113.613 198.641 113.613 198.641 113.613C198.642 113.613 198.642 113.613 198.641 113.613C198.641 113.613 198.639 113.613 198.637 113.613C198.632 113.614 198.624 113.614 198.612 113.615C198.589 113.617 198.552 113.619 198.502 113.622C198.403 113.628 198.252 113.636 198.056 113.643C197.664 113.658 197.093 113.669 196.391 113.657C194.983 113.632 193.07 113.512 191.033 113.134L190.485 116.083C192.73 116.5 194.817 116.63 196.339 116.656C197.101 116.67 197.727 116.657 198.166 116.641C198.386 116.633 198.559 116.624 198.679 116.617C198.74 116.613 198.787 116.61 198.82 116.608C198.837 116.607 198.85 116.606 198.859 116.605C198.864 116.605 198.868 116.605 198.871 116.604C198.873 116.604 198.874 116.604 198.875 116.604C198.876 116.604 198.876 116.604 198.876 116.604C198.877 116.604 198.877 116.604 198.877 116.604C198.877 116.604 198.877 116.604 198.759 115.109ZM191.033 113.134C189.124 112.78 187.709 112.058 186.781 111.437C186.317 111.127 185.976 110.842 185.758 110.644C185.649 110.545 185.572 110.468 185.525 110.42C185.502 110.396 185.487 110.38 185.48 110.372C185.476 110.368 185.475 110.366 185.475 110.366C185.475 110.366 185.476 110.367 185.477 110.368C185.477 110.369 185.478 110.37 185.479 110.371C185.479 110.371 185.48 110.372 185.48 110.372C185.481 110.373 185.481 110.373 185.481 110.373C185.481 110.374 185.482 110.374 184.348 111.356C183.214 112.338 183.215 112.339 183.215 112.339C183.215 112.339 183.216 112.34 183.216 112.34C183.216 112.341 183.217 112.342 183.218 112.342C183.219 112.344 183.221 112.346 183.222 112.347C183.225 112.351 183.229 112.355 183.233 112.36C183.242 112.37 183.253 112.382 183.266 112.396C183.292 112.425 183.327 112.462 183.37 112.507C183.457 112.597 183.579 112.718 183.737 112.861C184.052 113.149 184.511 113.528 185.114 113.931C186.321 114.738 188.111 115.643 190.485 116.083L191.033 113.134ZM185.702 112.002L190.113 102.755L187.405 101.463L182.994 110.71L185.702 112.002ZM193.496 106.492C195.295 107.076 196.842 107.355 197.95 107.488C198.504 107.555 198.95 107.585 199.265 107.598C199.422 107.605 199.546 107.608 199.635 107.608C199.68 107.609 199.716 107.609 199.742 107.609C199.755 107.608 199.766 107.608 199.775 107.608C199.779 107.608 199.783 107.608 199.786 107.608C199.787 107.608 199.789 107.608 199.79 107.608C199.79 107.608 199.791 107.608 199.792 107.608C199.792 107.608 199.792 107.608 199.792 107.608C199.793 107.608 199.793 107.608 199.759 106.108C199.724 104.609 199.724 104.609 199.725 104.609C199.725 104.609 199.725 104.609 199.725 104.609C199.726 104.609 199.726 104.609 199.726 104.609C199.727 104.609 199.728 104.609 199.728 104.609C199.729 104.609 199.729 104.609 199.729 104.609C199.728 104.609 199.725 104.609 199.719 104.609C199.709 104.609 199.689 104.609 199.661 104.609C199.605 104.608 199.515 104.606 199.393 104.601C199.149 104.591 198.78 104.566 198.308 104.51C197.363 104.396 196.009 104.154 194.422 103.639L193.496 106.492ZM194.422 103.639C192.889 103.142 191.718 102.474 190.938 101.939C190.549 101.671 190.259 101.438 190.073 101.278C189.98 101.198 189.913 101.137 189.873 101.099C189.853 101.08 189.839 101.067 189.833 101.061C189.829 101.057 189.828 101.056 189.828 101.056C189.828 101.056 189.828 101.056 189.829 101.057C189.83 101.058 189.83 101.058 189.831 101.059C189.831 101.059 189.831 101.06 189.832 101.06C189.832 101.06 189.832 101.061 189.832 101.061C189.833 101.061 189.833 101.061 188.759 102.109C187.686 103.156 187.686 103.156 187.686 103.157C187.686 103.157 187.687 103.157 187.687 103.158C187.687 103.158 187.688 103.159 187.688 103.159C187.69 103.16 187.691 103.162 187.692 103.163C187.695 103.166 187.698 103.169 187.701 103.172C187.709 103.179 187.718 103.188 187.728 103.199C187.75 103.22 187.779 103.248 187.815 103.282C187.887 103.35 187.988 103.443 188.118 103.554C188.378 103.777 188.753 104.077 189.24 104.412C190.213 105.08 191.642 105.891 193.496 106.492L194.422 103.639Z" fill="#B4C5FF"/>
<circle cx="197.089" cy="94.3503" r="12.5" transform="rotate(26.0312 197.089 94.3503)" fill="#595E72" stroke="#B4C5FF" stroke-width="3"/>
<path d="M200 99.0005C201 99.5005 202 99.5005 202.979 98.8435" stroke="#B4C5FF" stroke-width="3" stroke-miterlimit="10" stroke-linecap="round" stroke-linejoin="round"/>
<path d="M183.758 112.481C184.576 112.614 185.347 112.06 185.481 111.242C185.614 110.425 185.06 109.654 184.242 109.52L183.758 112.481ZM184 111C184.242 109.52 184.242 109.52 184.241 109.52C184.241 109.52 184.24 109.52 184.24 109.52C184.239 109.519 184.237 109.519 184.236 109.519C184.232 109.518 184.227 109.518 184.22 109.517C184.207 109.514 184.188 109.511 184.164 109.507C184.114 109.5 184.042 109.488 183.948 109.474C183.759 109.445 183.482 109.404 183.126 109.354C182.415 109.254 181.384 109.117 180.1 108.971C177.533 108.678 173.948 108.346 169.871 108.188C161.766 107.874 151.529 108.236 143.499 111.085L144.502 113.913C151.973 111.262 161.735 110.875 169.755 111.186C173.74 111.341 177.249 111.665 179.76 111.951C181.015 112.094 182.019 112.228 182.708 112.325C183.052 112.373 183.317 112.412 183.495 112.44C183.584 112.453 183.651 112.464 183.695 112.471C183.717 112.474 183.734 112.477 183.744 112.478C183.75 112.479 183.753 112.48 183.756 112.48C183.757 112.481 183.758 112.481 183.758 112.481C183.758 112.481 183.758 112.481 183.759 112.481C183.758 112.481 183.758 112.481 184 111ZM143.925 179.497L194.856 182.079L195.008 179.083L144.077 176.501L143.925 179.497Z" fill="#B4C5FF"/>
<path d="M143.5 184.5L143.5 176.501L194.534 181.838L194.36 185.387L143.5 184.5Z" fill="#B4C5FF" stroke="#B4C5FF" stroke-width="3" stroke-linecap="round"/>
<path d="M208.821 159.693C207.12 162.28 205.506 164.81 203.996 167.511C202.533 170.131 201.081 172.648 199.466 175.177C198.141 177.224 196.681 179.409 194.999 180.588" stroke="#B4C5FF" stroke-width="3" stroke-miterlimit="10" stroke-linecap="round" stroke-linejoin="round"/>
<path d="M259.934 85.8309C259.393 79.4335 260.702 75.0106 262.393 68.7102C263.155 65.8717 265.356 63.4636 267.921 67.3918C269.779 70.2377 269.267 70.9094 269.041 74.0797C268.88 76.3454 272.556 71.6897 275.403 77.2182C276.591 75.8853 279.634 73.8136 282.031 82.5298C282.031 82.5298 283.705 78.6399 288.226 80.2778C292.747 81.9156 293.521 84.4008 292.405 86.9944C291.289 89.5879 287.399 87.9138 287.399 87.9138C287.399 87.9138 285.833 93.6951 286.716 98.0713C287.6 102.447 288.519 107.454 288.214 113.163C287.909 118.872 282.669 126.762 282.669 126.762C282.669 126.762 279.922 143.197 278.501 151.5C277.08 159.803 263.108 177.56 248.501 176.5C233.895 175.44 222.5 166 222.5 166L241.999 135L251.999 141L258.211 119.31L254.911 94.8352L259.934 85.8309Z" fill="#595E72"/>
<path d="M197.571 115.227C212.003 116.314 227.999 124.5 241.999 134L220.5 169L208 163" stroke="#B4C5FF" fill="none" stroke-width="3" stroke-linecap="round" stroke-linejoin="round"/>
<path d="M271.019 77.2268C272.782 73.9796 275.716 75.0359 277.403 77.7382C279.176 80.5789 279.391 85.6089 279.727 88.8566C279.889 90.4299 280.472 95.8362 276.154 95.0943C273.897 94.7062 273.152 90.2455 272.949 86.7027" stroke="#B4C5FF" stroke-width="3" stroke-linecap="round"/>
<path d="M278.033 77.1901C279.674 76.0526 280.655 76.0071 282.138 77.7485C283.461 79.3025 284.209 82.1098 284.618 84.1031C285.085 86.3805 285.63 89.1226 284.927 91.287C284.433 92.8102 282.382 94.2237 280.329 93.34" stroke="#B4C5FF" stroke-width="3" stroke-linecap="round"/>
<path d="M285.16 81.5437C287.815 79.889 288.905 79.484 291.306 80.6771C293.244 81.64 294.594 83.6353 294.972 85.7204C295.78 90.1781 290.44 90.5665 289.497 87.3051" stroke="#B4C5FF" stroke-width="3" stroke-linecap="round"/>
<path d="M288.817 88.969C286.557 97.0615 290.918 107.022 289.052 115.336C288.185 119.2 286.461 123.282 283.33 125.781C283.33 125.781 280.866 170.809 256.5 176C240.838 177.854 228.003 170.053 222.667 166.131" stroke="#B4C5FF" stroke-width="3" fill="none" stroke-linecap="round"/>
<path d="M242.784 133.688C242.059 133.287 241.146 133.549 240.745 134.274C240.344 134.999 240.607 135.912 241.331 136.313L242.784 133.688ZM241.331 136.313L251.274 141.813L252.726 139.188L242.784 133.688L241.331 136.313Z" fill="#B4C5FF"/>
<path fill-rule="evenodd" clip-rule="evenodd" d="M308.5 94.8799C307.073 94.9694 302.61 94.7908 301.183 94.8802C297.49 94.9925 293.678 95.1123 289.977 95.1057C284.731 95.196 279.492 95.4053 274.246 95.4956C268.286 95.6307 262.208 95.7733 256.248 95.9084C250.289 96.0435 244.329 96.1786 238.37 96.3137C233.242 96.3966 228.122 96.5984 222.876 96.6887C219.302 96.7936 215.727 96.8984 212.272 96.9958C210.481 96.9887 208.594 97.3459 206.877 96.618C205.525 95.9867 204.484 94.6196 204.387 93.074C204.312 91.885 204.706 90.5474 205.486 89.6629C206.712 88.2731 209.179 87.6409 210.917 86.8156C212.195 86.258 213.466 85.5815 214.863 85.0165C218.697 83.3436 222.523 81.5519 226.238 79.8865C231.113 77.671 236.106 75.448 240.98 73.2325C246.434 70.7419 251.776 68.3776 257.23 65.887C271.847 59.4184 286.678 52.4957 301.5 46.5C301.485 46.2622 308.5 94.8799 308.5 94.8799Z" fill="black" stroke="#B4C5FF" stroke-width="3"/>
<path d="M261.5 100.5C262.014 105.123 258.64 117.537 260 122L274.185 115.347C274.121 112.504 279 102.5 272.5 93C270.383 88.5489 271.53 80.9998 270.5 79C269.642 75.7248 265.87 78.5983 264.5 80.5005C261.159 85.1406 260.915 95.2423 261.5 100.5Z" fill="#595E72"/>
<path d="M255 96.5005C255 96.5005 258 109.5 258 120C258 130.5 250 145 250 145" stroke="#B4C5FF" fill="none" stroke-width="3" stroke-linecap="round"/>
<path d="M143.571 69.2266L143.571 186.227" stroke="#B4C5FF" stroke-width="3" stroke-linecap="round"/>
<path d="M90.5711 186.227L299.571 186.227" stroke="#B4C5FF" stroke-width="3" stroke-linecap="round"/>
<path d="M152.793 144.453C151.486 154.698 149.75 152.668 149.75 152.668C149.75 152.668 136.66 147.332 133.093 145.058C132.786 142.252 135.134 143.573 135.078 140.797C134.957 134.812 132.765 128.174 135.999 125.059C139.234 121.944 148.288 124.33 148.463 127.713C148.637 131.097 154.1 134.208 152.793 144.453Z" fill="#595E72"/>
<path d="M148.97 154.587C148.97 154.587 152.636 150.737 152.443 146.986C152.249 143.234 147.229 142.24 147.229 142.24C147.229 142.24 138.289 140.193 135.568 140.96C132.846 141.728 131.971 146.161 135.89 147.213C139.809 148.264 143.723 149.216 143.723 149.216L143.302 151.745" stroke="#B4C5FF" fill="none" stroke-width="3" stroke-linecap="round" stroke-linejoin="round"/>
<path d="M152.115 145.095C152.115 145.095 153.209 145.039 153.042 141.787C152.649 134.162 139.987 133.332 136.19 134.18C132.393 135.027 133.722 139.523 135.431 140.739" stroke="#B4C5FF" fill="none" stroke-width="3" stroke-linecap="round" stroke-linejoin="round"/>
<path d="M134.183 135.236C134.183 135.236 131.729 129.909 136.044 129.087C140.36 128.264 152.383 129.01 152.748 136.089C152.802 137.138 152.706 137.83 152.557 138.287" stroke="#B4C5FF" fill="none" stroke-width="3" stroke-linecap="round" stroke-linejoin="round"/>
<path d="M148.915 130.842C149.558 122.552 141.404 123.607 137.314 123.818C133.223 124.029 134.191 128.084 134.191 128.084" stroke="#B4C5FF" fill="none" stroke-width="3" stroke-linecap="round" stroke-linejoin="round"/>
<circle cx="311" cy="70" r="25.5" fill="black" stroke="#B4C5FF" stroke-width="3"/>
<path d="M284 54C272.227 65.7723 276.094 87.3721 290.5 94.5" stroke="#B4C5FF" fill="none" stroke-width="3" stroke-linecap="round"/>
<path d="M145.619 157.499C143.911 157.587 142.285 156.159 142.178 154.09C142.072 152.02 143.542 150.432 145.25 150.344C146.957 150.256 148.583 151.684 148.69 153.754C148.797 155.823 147.326 157.411 145.619 157.499Z" fill="#595E72" stroke="#B4C5FF" stroke-width="3"/>
<path d="M198.981 86.0235L184.926 100.134C184.926 100.134 178.932 85.3393 191.888 80.9388C204.844 76.5383 207.008 88.5042 207.008 88.5042L201.292 85.6461C200.521 85.2604 199.589 85.4125 198.981 86.0235Z" fill="#B4C5FF"/>
<path d="M277.234 110.464C278.045 105.652 276.968 98.0728 271.57 92.7222C271.136 92.2838 271.242 86.0265 271.242 85.3475C271.368 83.1449 271.712 80.4825 270.596 78.5794C270.007 77.4996 268.052 76.6251 266.5 76.9996C264.667 77.5772 263.654 79.6207 263 81.0001C261.659 85.8953 262.506 94.8936 259.5 100" stroke="#B4C5FF" fill="none" stroke-width="3" stroke-linecap="round" stroke-linejoin="round"/>
<path d="M311 91C322.598 91 332 81.598 332 70C332 58.402 322.598 49 311 49C299.402 49 290 58.402 290 70C290 81.598 299.402 91 311 91Z" fill="url(#paint0_linear_5187_1713)"/>
<path d="M354.637 69.275C354.637 67.1 354.225 65.0625 353.4 63.1625C352.6 61.2625 351.488 59.6125 350.063 58.2125C348.663 56.7875 347.013 55.675 345.113 54.875C343.213 54.05 341.175 53.6375 339 53.6375C341.175 53.6375 343.213 53.2375 345.113 52.4375C347.013 51.6125 348.663 50.5 350.063 49.1C351.488 47.675 352.6 46.0125 353.4 44.1125C354.225 42.2125 354.637 40.175 354.637 38C354.637 40.175 355.038 42.2125 355.838 44.1125C356.663 46.0125 357.775 47.675 359.175 49.1C360.6 50.5 362.263 51.6125 364.163 52.4375C366.063 53.2375 368.1 53.6375 370.275 53.6375C368.1 53.6375 366.063 54.05 364.163 54.875C362.263 55.675 360.6 56.7875 359.175 58.2125C357.775 59.6125 356.663 61.2625 355.838 63.1625C355.038 65.0625 354.637 67.1 354.637 69.275Z" fill="#B4C5FF"/>
<path d="M304.628 25.9332L319.751 34.5565C321.003 35.2278 322.514 34.3425 322.54 32.922L322.408 15.5136C322.434 14.0931 320.838 13.2334 319.618 13.9485L304.626 22.7336C303.348 23.4827 303.376 25.2618 304.628 25.9332Z" fill="#FFB94E"/>
<circle cx="345" cy="25" r="6" fill="#745470"/>
<defs>
<linearGradient id="paint0_linear_5187_1713" x1="290" y1="70" x2="332" y2="70" gradientUnits="userSpaceOnUse">
<stop stop-color="#B3EFD4"/>
<stop offset="1" stop-color="#9DA3FF"/>
</linearGradient>
</defs>
</svg>