<svg xmlns="http://www.w3.org/2000/svg" width="16" height="16" fill="none" viewBox="0 0 16 16"><g fill="#000" clip-path="url(#a)"><path d="M8 4.5c.35 0 .68.07 1 .17V3.12A4.64 4.64 0 0 0 8 3C5.24 3 3 5.24 3 8c0 .86.24 1.67.63 2.37l1.12-1.12c-.15-.39-.24-.81-.24-1.26 0-1.93 1.57-3.5 3.5-3.5L8 4.5Zm4.37 1.129-1.12 1.12c.15.39.24.81.24 1.26 0 1.93-1.57 3.5-3.5 3.5-.35 0-.68-.07-1-.17v1.55c.32.07.65.12 1 .12 2.76 0 5-2.24 5-5 0-.86-.24-1.67-.63-2.37l.01-.01Z"/><path d="M8.31 6.5 7.25 5.44l1.69-1.69-1.69-1.69L8.31 1l2.75 2.75L8.31 6.5Zm-.62 3 1.06 1.06-1.69 1.69 1.69 1.69L7.69 15l-2.75-2.75L7.69 9.5Z"/></g><defs><clipPath id="a"><path fill="#fff" d="M0 0h16v16H0z"/></clipPath></defs></svg>