<svg xmlns="http://www.w3.org/2000/svg" width="20" height="20" fill="#041E49" viewBox="0 -960 960 960"><path d="M288-48v-153.333h-38.333v-38.334h-38.334V-278H173v-38.5h-39V-355H96v-230h38.333v76.667h38.334V-470H211v38h77v-38h38.4v-38H384v-38.5h58V-585h38v-249.6h38V-873h307.556v38H864v172.636H672V-624h115v39H634v77h76v76.444h-38v-38.222h-38V-336h-39v58h-38.333v38.333h-38.334v153.334h38.334V-48H480v-114.75h-38V-201h-38.667v38.333h-38.666v38.334H326V-86h39v38h-77Zm269-729h38v-39h-38v39ZM58-163h153v-19H58v19Zm537 0h307v-19H595v19ZM173-86h77v-19h-77v19ZM58-28h76v-20H58v20Zm787-20h19v-19h-19v19Z"/></svg>