<svg width="16" height="16" viewBox="0 0 16 16" xmlns="http://www.w3.org/2000/svg"><path d="M3.556 7.556h.888v-.89h-.888v.89zM14.222 0H1.778C.8 0 0 .8 0 1.778v12.444C0 15.2.8 16 1.778 16h12.444C15.2 16 16 15.2 16 14.222V1.778C16 .8 15.2 0 14.222 0zM5.778 7.556c0 .737-.596 1.333-1.334 1.333h-.888v1.778H2.222V5.333h2.222c.738 0 1.334.596 1.334 1.334v.889zm8.889-.89h-2.223v.89h1.334v1.333h-1.334v1.778h-1.333V5.333h3.556v1.334zm-4.445 2.667c0 .738-.595 1.334-1.333 1.334H6.667V5.333h2.222c.738 0 1.333.596 1.333 1.334v2.666zM8 9.333h.889V6.667H8v2.666z" fill="#DB4537"/></svg>