<svg xmlns="http://www.w3.org/2000/svg" width="20" height="20" fill="#041E49" viewBox="0 -960 960 960"><path d="M480-144q-140 0-238-98t-98-238h72q0 109 77.5 186.5T480-216q109 0 186.5-77.5T744-480q0-109-77.5-186.5T480-744q-62 0-114.547 25.6Q312.907-692.8 277-648h107v72H144v-240h72v130q46-60 114.5-95T480-816q70 0 131.133 26.6 61.134 26.6 106.4 71.867 45.267 45.266 71.867 106.4Q816-550 816-480t-26.6 131.133q-26.6 61.134-71.867 106.4-45.266 45.267-106.4 71.867Q550-144 480-144Zm100-200L444-480v-192h72v162l115 115-51 51Z"/></svg>