<svg xmlns="http://www.w3.org/2000/svg" width="20" height="20" fill="#5f6368"><g clip-path="url(#a)"><path fill-rule="evenodd" d="M2.44 4.44C2.735 4.148 3.088 4 3.5 4h13c.413 0 .766.147 1.06.44.293.294.44.647.44 1.06v5h-1.5v-2h-13v7H9V17H3.5c-.413 0-.766-.147-1.06-.44A1.445 1.445 0 0 1 2 15.5v-10c0-.412.147-.766.44-1.06ZM3.5 7V5.5h13V7h-13Zm9.69 6.69c.874-.872 1.31-1.935 1.31-3.19 0 1.255.436 2.318 1.31 3.19.872.874 1.935 1.31 3.19 1.31-1.255 0-2.318.436-3.19 1.31-.874.872-1.31 1.935-1.31 3.19 0-1.255-.436-2.318-1.31-3.19C12.319 15.435 11.256 15 10 15c1.255 0 2.318-.436 3.19-1.31Z" clip-rule="evenodd"/></g><defs><clipPath id="a"><path fill="#fff" d="M0 20h20V0H0z"/></clipPath></defs></svg>