<svg xmlns="http://www.w3.org/2000/svg" width="20" height="20" fill="#5f6368" viewBox="0 -960 960 960"><path d="M480-87.87q-6.24 0-10.24-4t-6-10.24q-16.72-64.19-50.69-124.13-33.98-59.93-79.94-106.89-46.96-46.96-106.89-80.44-59.94-33.47-124.13-50.19-6.24-2-10.24-6t-4-10.24q0-6.24 4-10.24t10.24-6q64.19-16.72 123.63-50.19 59.43-33.48 107.39-80.44 46.96-45.96 80.44-106.39 33.47-60.44 50.19-124.63 2-6.24 6-10.24t10.24-4q6.24 0 10.36 4 4.12 4 6.12 10.24 16.48 64.19 49.95 124.13 33.48 59.93 80.44 106.89t106.89 80.44q59.94 33.47 124.13 50.19 6.24 2 10.24 6t4 10.24q0 6.24-4 10.24t-10.24 6q-64.19 16.72-124.63 50.19-60.43 33.48-106.39 80.44-46.96 47.96-80.44 107.39-33.47 59.44-50.19 123.63-2 6.24-6 10.24t-10.24 4Z"/></svg>
