<svg xmlns="http://www.w3.org/2000/svg" width="32" height="32" viewBox="0 0 32 32">
  <path fill="#DADCE0" d="M13.5 19.5c.825 0 1.5.675 1.5 1.5s-.675 1.5-1.5 1.5S12 21.825 12 21s.675-1.5 1.5-1.5zm5 0c.825 0 1.5.675 1.5 1.5s-.675 1.5-1.5 1.5S17 21.825 17 21s.675-1.5 1.5-1.5zm-5-5c.825 0 1.5.675 1.5 1.5s-.675 1.5-1.5 1.5S12 16.825 12 16s.675-1.5 1.5-1.5zm5 0c.825 0 1.5.675 1.5 1.5s-.675 1.5-1.5 1.5S17 16.825 17 16s.675-1.5 1.5-1.5zm-5-5c.825 0 1.5.675 1.5 1.5s-.675 1.5-1.5 1.5S12 11.825 12 11s.675-1.5 1.5-1.5zm5 0c.825 0 1.5.675 1.5 1.5s-.675 1.5-1.5 1.5S17 11.825 17 11s.675-1.5 1.5-1.5z"/>
</svg>
