<svg xmlns="http://www.w3.org/2000/svg" height="24" viewBox="0 0 48 48" width="24"><path d="M0-1h48v48H0z" fill="none"/><circle cx="24" cy="23" fill="#FFF" r="22"/><path d="M24 1.23c12.11 0 21.94 9.79 22 21.89v-.11c0-12.15-9.85-22-22-22C11.85 1 2 10.85 2 23v.11c.06-12.09 9.89-21.88 22-21.88z" fill="#FFF" fill-opacity=".2"/><path d="M24 44.77c12.11 0 21.94-9.79 22-21.89v.11c0 12.15-9.85 22-22 22C11.85 45 2 35.15 2 23v-.11c.06 12.09 9.89 21.88 22 21.88z" fill="#263238" fill-opacity=".15"/><path d="M33.76 34.26c2.75-2.56 4.49-6.37 4.49-11.26 0-.89-.08-1.84-.29-3H24.01v5.99h8.03c-.4 2.02-1.5 3.56-3.07 4.56v.75l3.91 2.97h.88z" fill="#4285F4"/><path d="M15.58 25.77A8.845 8.845 0 0 0 24 31.86c1.92 0 3.62-.46 4.97-1.31l4.79 3.71C31.14 36.7 27.65 38 24 38c-5.93 0-11.01-3.4-13.45-8.36l.17-1.01 4.06-2.85h.8z" fill="#34A853"/><path d="M15.59 20.21a8.864 8.864 0 0 0 0 5.58l-5.03 3.86c-.98-2-1.53-4.25-1.53-6.64 0-2.39.55-4.64 1.53-6.64l1-.22 3.81 2.98.22 1.08z" fill="#FBBC05"/><path d="M24 14.14c2.11 0 4.02.75 5.52 1.98l4.36-4.36C31.22 9.43 27.81 8 24 8c-5.93 0-11.01 3.4-13.45 8.36l5.03 3.85A8.86 8.86 0 0 1 24 14.14z" fill="#EA4335"/><radialGradient cx="298.159" cy="-106.681" gradientTransform="matrix(.917 0 0 .917 -264.667 105.437)" gradientUnits="userSpaceOnUse" id="a" r="47.683"><stop offset="0" stop-color="#fff"/><stop offset="1" stop-color="#fff" stop-opacity="0"/></radialGradient><circle cx="24" cy="23" fill="url(#a)" fill-opacity=".1" r="22"/></svg>