<svg width="16" height="16" fill="none" xmlns="http://www.w3.org/2000/svg"><path fill-rule="evenodd" clip-rule="evenodd" d="M7.333.667h1.333v1.966H7.333V.667zm-2.827 2.86-1.2-1.194-.94.94L3.56 4.467l.946-.94zM2.666 7.3h-2v1.333h2V7.3zm10.967-4.027-.94-.94L11.5 3.527l.94.94 1.193-1.194zm-.946 10.334-1.194-1.2.934-.934 1.2 1.194-.94.94zM15.332 7.3h-2v1.333h2V7.3zM4 7.967c0-2.207 1.793-4 4-4s4 1.793 4 4c0 2.206-1.793 4-4 4s-4-1.794-4-4zm4.666 7.3V13.3H7.333v1.967h1.333zM3.306 13.6l-.94-.94 1.194-1.2.94.94-1.194 1.2z" fill="#000"/></svg>