<svg width="14" height="14" viewBox="0 0 14 14" fill="none" xmlns="http://www.w3.org/2000/svg"><path d="M8.946.313a.538.538 0 0 0-.87.425v2.146a5.785 5.785 0 0 0-1.808.37 5.054 5.054 0 0 0-2.255 1.697c-.67.89-1.165 2.123-1.318 3.816a.539.539 0 0 0 .917.43c1.28-1.281 2.551-1.913 3.491-2.227.388-.129.72-.204.974-.248v2.093a.538.538 0 0 0 .896.403L13.82 4.91a.538.538 0 0 0-.027-.827L8.946.313zm-.392 3.653h.003a.54.54 0 0 0 .597-.535V1.839l3.466 2.696-3.466 3.081V6.123a.539.539 0 0 0-.539-.538h-.048l-.108.006a5.133 5.133 0 0 0-.383.041 7.57 7.57 0 0 0-1.314.317 9.58 9.58 0 0 0-2.743 1.465c.21-.772.512-1.363.854-1.815A3.978 3.978 0 0 1 6.654 4.26a4.709 4.709 0 0 1 1.769-.303l.107.006.024.002zm-5.862-2.69A2.692 2.692 0 0 0 0 3.97v6.462a2.692 2.692 0 0 0 2.692 2.692h6.462a2.692 2.692 0 0 0 2.692-2.692V9.354a.538.538 0 1 0-1.077 0v1.077c0 .892-.723 1.615-1.615 1.615H2.692a1.615 1.615 0 0 1-1.615-1.615V3.969c0-.892.723-1.615 1.615-1.615h2.154a.538.538 0 0 0 0-1.077H2.692z" fill="#5F6368"/></svg>