<?xml version="1.0" encoding="UTF-8"?>
<!--Generator: Apple Native CoreSVG 175-->
<!DOCTYPE svg
PUBLIC "-//W3C//DTD SVG 1.1//EN"
       "http://www.w3.org/Graphics/SVG/1.1/DTD/svg11.dtd">
<svg version="1.1" xmlns="http://www.w3.org/2000/svg" xmlns:xlink="http://www.w3.org/1999/xlink" width="3300" height="2200">
 <!--glyph: "", point size: 100.0, font version: "17.3d3e1", template writer version: "65.1"-->
 <style>.multicolor-0:custom {fill:#34A853;opacity:1.0}
.multicolor-1:custom {fill:#188038;opacity:1.0}
.multicolor-2:custom {fill:#FBBC04;opacity:1.0}
.multicolor-3:custom {fill:#4183F0;opacity:1.0}
.multicolor-4:custom {fill:#EA4335;opacity:1.0}

.SFSymbolsPreview188038 {fill:#188038;opacity:1.0}
.SFSymbolsPreview34A853 {fill:#34A853;opacity:1.0}
.SFSymbolsPreview4183F0 {fill:#4183F0;opacity:1.0}
.SFSymbolsPreviewEA4335 {fill:#EA4335;opacity:1.0}
.SFSymbolsPreviewFBBC04 {fill:#FBBC04;opacity:1.0}
</style>
 <g id="Notes">
  <rect height="2200" id="artboard" style="fill:white;opacity:1" width="3300" x="0" y="0"/>
  <line style="fill:none;stroke:black;opacity:1;stroke-width:0.5;" x1="263" x2="3036" y1="292" y2="292"/>
  <text style="stroke:none;fill:black;font-family:sans-serif;font-size:13;font-weight:bold;" transform="matrix(1 0 0 1 263 322)">Weight/Scale Variations</text>
  <text style="stroke:none;fill:black;font-family:sans-serif;font-size:13;text-anchor:middle;" transform="matrix(1 0 0 1 559.711 322)">Ultralight</text>
  <text style="stroke:none;fill:black;font-family:sans-serif;font-size:13;text-anchor:middle;" transform="matrix(1 0 0 1 856.422 322)">Thin</text>
  <text style="stroke:none;fill:black;font-family:sans-serif;font-size:13;text-anchor:middle;" transform="matrix(1 0 0 1 1153.13 322)">Light</text>
  <text style="stroke:none;fill:black;font-family:sans-serif;font-size:13;text-anchor:middle;" transform="matrix(1 0 0 1 1449.84 322)">Regular</text>
  <text style="stroke:none;fill:black;font-family:sans-serif;font-size:13;text-anchor:middle;" transform="matrix(1 0 0 1 1746.56 322)">Medium</text>
  <text style="stroke:none;fill:black;font-family:sans-serif;font-size:13;text-anchor:middle;" transform="matrix(1 0 0 1 2043.27 322)">Semibold</text>
  <text style="stroke:none;fill:black;font-family:sans-serif;font-size:13;text-anchor:middle;" transform="matrix(1 0 0 1 2339.98 322)">Bold</text>
  <text style="stroke:none;fill:black;font-family:sans-serif;font-size:13;text-anchor:middle;" transform="matrix(1 0 0 1 2636.69 322)">Heavy</text>
  <text style="stroke:none;fill:black;font-family:sans-serif;font-size:13;text-anchor:middle;" transform="matrix(1 0 0 1 2933.4 322)">Black</text>
  <line style="fill:none;stroke:black;opacity:1;stroke-width:0.5;" x1="263" x2="3036" y1="1903" y2="1903"/>
  <g transform="matrix(1 0 0 1 263 1933)">
   <path d="M9.24805 0.830078Q10.8691 0.830078 12.2949 0.214844Q13.7207-0.400391 14.8096-1.49414Q15.8984-2.58789 16.5186-4.01367Q17.1387-5.43945 17.1387-7.05078Q17.1387-8.66211 16.5186-10.0879Q15.8984-11.5137 14.8047-12.6074Q13.7109-13.7012 12.2852-14.3164Q10.8594-14.9316 9.23828-14.9316Q7.62695-14.9316 6.20117-14.3164Q4.77539-13.7012 3.69141-12.6074Q2.60742-11.5137 1.9873-10.0879Q1.36719-8.66211 1.36719-7.05078Q1.36719-5.43945 1.9873-4.01367Q2.60742-2.58789 3.69629-1.49414Q4.78516-0.400391 6.21094 0.214844Q7.63672 0.830078 9.24805 0.830078ZM9.24805-0.654297Q7.91992-0.654297 6.7627-1.14746Q5.60547-1.64062 4.73145-2.51953Q3.85742-3.39844 3.36426-4.56055Q2.87109-5.72266 2.87109-7.05078Q2.87109-8.37891 3.35938-9.54102Q3.84766-10.7031 4.72168-11.582Q5.5957-12.4609 6.75293-12.9541Q7.91016-13.4473 9.23828-13.4473Q10.5762-13.4473 11.7334-12.9541Q12.8906-12.4609 13.7695-11.582Q14.6484-10.7031 15.1465-9.54102Q15.6445-8.37891 15.6445-7.05078Q15.6445-5.72266 15.1514-4.56055Q14.6582-3.39844 13.7842-2.51953Q12.9102-1.64062 11.748-1.14746Q10.5859-0.654297 9.24805-0.654297ZM5.6543-7.05078Q5.6543-6.72852 5.85938-6.52832Q6.06445-6.32812 6.40625-6.32812L8.51562-6.32812L8.51562-4.20898Q8.51562-3.88672 8.71094-3.67676Q8.90625-3.4668 9.23828-3.4668Q9.56055-3.4668 9.77051-3.67676Q9.98047-3.88672 9.98047-4.20898L9.98047-6.32812L12.0898-6.32812Q12.4219-6.32812 12.627-6.52832Q12.832-6.72852 12.832-7.05078Q12.832-7.38281 12.627-7.58789Q12.4219-7.79297 12.0898-7.79297L9.98047-7.79297L9.98047-9.90234Q9.98047-10.2344 9.77051-10.4443Q9.56055-10.6543 9.23828-10.6543Q8.90625-10.6543 8.71094-10.4443Q8.51562-10.2344 8.51562-9.90234L8.51562-7.79297L6.40625-7.79297Q6.06445-7.79297 5.85938-7.58789Q5.6543-7.38281 5.6543-7.05078Z"/>
  </g>
  <g transform="matrix(1 0 0 1 281.867 1933)">
   <path d="M11.709 2.91016Q13.75 2.91016 15.5518 2.12891Q17.3535 1.34766 18.7305-0.0292969Q20.1074-1.40625 20.8887-3.20801Q21.6699-5.00977 21.6699-7.05078Q21.6699-9.0918 20.8887-10.8936Q20.1074-12.6953 18.7305-14.0723Q17.3535-15.4492 15.5469-16.2305Q13.7402-17.0117 11.6992-17.0117Q9.6582-17.0117 7.85645-16.2305Q6.05469-15.4492 4.68262-14.0723Q3.31055-12.6953 2.5293-10.8936Q1.74805-9.0918 1.74805-7.05078Q1.74805-5.00977 2.5293-3.20801Q3.31055-1.40625 4.6875-0.0292969Q6.06445 1.34766 7.86621 2.12891Q9.66797 2.91016 11.709 2.91016ZM11.709 1.25Q9.98047 1.25 8.47656 0.605469Q6.97266-0.0390625 5.83496-1.17676Q4.69727-2.31445 4.05762-3.81836Q3.41797-5.32227 3.41797-7.05078Q3.41797-8.7793 4.05762-10.2832Q4.69727-11.7871 5.83008-12.9297Q6.96289-14.0723 8.4668-14.7119Q9.9707-15.3516 11.6992-15.3516Q13.4277-15.3516 14.9316-14.7119Q16.4355-14.0723 17.5781-12.9297Q18.7207-11.7871 19.3652-10.2832Q20.0098-8.7793 20.0098-7.05078Q20.0098-5.32227 19.3701-3.81836Q18.7305-2.31445 17.5928-1.17676Q16.4551-0.0390625 14.9463 0.605469Q13.4375 1.25 11.709 1.25ZM7.17773-7.05078Q7.17773-6.69922 7.41211-6.47461Q7.64648-6.25 8.01758-6.25L10.8887-6.25L10.8887-3.36914Q10.8887-2.99805 11.1133-2.76855Q11.3379-2.53906 11.6895-2.53906Q12.0605-2.53906 12.29-2.76855Q12.5195-2.99805 12.5195-3.36914L12.5195-6.25L15.4004-6.25Q15.7715-6.25 16.001-6.47461Q16.2305-6.69922 16.2305-7.05078Q16.2305-7.42188 16.001-7.65137Q15.7715-7.88086 15.4004-7.88086L12.5195-7.88086L12.5195-10.752Q12.5195-11.1328 12.29-11.3623Q12.0605-11.5918 11.6895-11.5918Q11.3379-11.5918 11.1133-11.3574Q10.8887-11.123 10.8887-10.752L10.8887-7.88086L8.01758-7.88086Q7.63672-7.88086 7.40723-7.65137Q7.17773-7.42188 7.17773-7.05078Z"/>
  </g>
  <g transform="matrix(1 0 0 1 305.646 1933)">
   <path d="M14.9707 5.66406Q17.0605 5.66406 18.96 5.01465Q20.8594 4.36523 22.4512 3.19336Q24.043 2.02148 25.2197 0.429688Q26.3965-1.16211 27.0459-3.06641Q27.6953-4.9707 27.6953-7.05078Q27.6953-9.14062 27.0459-11.04Q26.3965-12.9395 25.2197-14.5312Q24.043-16.123 22.4512-17.2998Q20.8594-18.4766 18.9551-19.126Q17.0508-19.7754 14.9609-19.7754Q12.8711-19.7754 10.9717-19.126Q9.07227-18.4766 7.48535-17.2998Q5.89844-16.123 4.72168-14.5312Q3.54492-12.9395 2.90039-11.04Q2.25586-9.14062 2.25586-7.05078Q2.25586-4.9707 2.90527-3.06641Q3.55469-1.16211 4.72656 0.429688Q5.89844 2.02148 7.49023 3.19336Q9.08203 4.36523 10.9814 5.01465Q12.8809 5.66406 14.9707 5.66406ZM14.9707 3.84766Q13.1641 3.84766 11.5283 3.2959Q9.89258 2.74414 8.53516 1.74805Q7.17773 0.751953 6.17676-0.610352Q5.17578-1.97266 4.62891-3.6084Q4.08203-5.24414 4.08203-7.05078Q4.08203-8.86719 4.62891-10.5029Q5.17578-12.1387 6.17188-13.501Q7.16797-14.8633 8.52539-15.8594Q9.88281-16.8555 11.5186-17.4023Q13.1543-17.9492 14.9609-17.9492Q16.7773-17.9492 18.4131-17.4023Q20.0488-16.8555 21.4111-15.8594Q22.7734-14.8633 23.7695-13.501Q24.7656-12.1387 25.3174-10.5029Q25.8691-8.86719 25.8691-7.05078Q25.8789-5.24414 25.332-3.6084Q24.7852-1.97266 23.7842-0.610352Q22.7832 0.751953 21.4209 1.74805Q20.0586 2.74414 18.4229 3.2959Q16.7871 3.84766 14.9707 3.84766ZM9.19922-7.05078Q9.19922-6.66992 9.45801-6.4209Q9.7168-6.17188 10.1172-6.17188L14.0625-6.17188L14.0625-2.2168Q14.0625-1.81641 14.3115-1.55762Q14.5605-1.29883 14.9512-1.29883Q15.3516-1.29883 15.6104-1.55273Q15.8691-1.80664 15.8691-2.2168L15.8691-6.17188L19.8242-6.17188Q20.2246-6.17188 20.4785-6.4209Q20.7324-6.66992 20.7324-7.05078Q20.7324-7.46094 20.4785-7.71484Q20.2246-7.96875 19.8242-7.96875L15.8691-7.96875L15.8691-11.9141Q15.8691-12.3242 15.6104-12.583Q15.3516-12.8418 14.9512-12.8418Q14.5605-12.8418 14.3115-12.583Q14.0625-12.3242 14.0625-11.9141L14.0625-7.96875L10.1172-7.96875Q9.70703-7.96875 9.45312-7.71484Q9.19922-7.46094 9.19922-7.05078Z"/>
  </g>
  <text style="stroke:none;fill:black;font-family:sans-serif;font-size:13;font-weight:bold;" transform="matrix(1 0 0 1 263 1953)">Design Variations</text>
  <text style="stroke:none;fill:black;font-family:sans-serif;font-size:13;" transform="matrix(1 0 0 1 263 1971)">Symbols are supported in up to nine weights and three scales.</text>
  <text style="stroke:none;fill:black;font-family:sans-serif;font-size:13;" transform="matrix(1 0 0 1 263 1989)">For optimal layout with text and other symbols, vertically align</text>
  <text style="stroke:none;fill:black;font-family:sans-serif;font-size:13;" transform="matrix(1 0 0 1 263 2007)">symbols with the adjacent text.</text>
  <line style="fill:none;stroke:#00AEEF;stroke-width:0.5;opacity:1.0;" x1="776" x2="776" y1="1919" y2="1933"/>
  <g transform="matrix(1 0 0 1 776 1933)">
   <path d="M3.31055 0.15625Q3.70117 0.15625 3.91602-0.00976562Q4.13086-0.175781 4.26758-0.585938L5.52734-4.0332L11.2891-4.0332L12.5488-0.585938Q12.6855-0.175781 12.9004-0.00976562Q13.1152 0.15625 13.4961 0.15625Q13.8867 0.15625 14.1162-0.0585938Q14.3457-0.273438 14.3457-0.644531Q14.3457-0.869141 14.2383-1.17188L9.6582-13.3691Q9.48242-13.8184 9.17969-14.043Q8.87695-14.2676 8.4082-14.2676Q7.5-14.2676 7.17773-13.3789L2.59766-1.16211Q2.49023-0.859375 2.49023-0.634766Q2.49023-0.263672 2.70996-0.0537109Q2.92969 0.15625 3.31055 0.15625ZM6.00586-5.51758L8.37891-12.0898L8.42773-12.0898L10.8008-5.51758Z"/>
  </g>
  <line style="fill:none;stroke:#00AEEF;stroke-width:0.5;opacity:1.0;" x1="793.197" x2="793.197" y1="1919" y2="1933"/>
  <text style="stroke:none;fill:black;font-family:sans-serif;font-size:13;font-weight:bold;" transform="matrix(1 0 0 1 776 1953)">Margins</text>
  <text style="stroke:none;fill:black;font-family:sans-serif;font-size:13;" transform="matrix(1 0 0 1 776 1971)">Leading and trailing margins on the left and right side of each symbol</text>
  <text style="stroke:none;fill:black;font-family:sans-serif;font-size:13;" transform="matrix(1 0 0 1 776 1989)">can be adjusted by modifying the x-location of the margin guidelines.</text>
  <text style="stroke:none;fill:black;font-family:sans-serif;font-size:13;" transform="matrix(1 0 0 1 776 2007)">Modifications are automatically applied proportionally to all</text>
  <text style="stroke:none;fill:black;font-family:sans-serif;font-size:13;" transform="matrix(1 0 0 1 776 2025)">scales and weights.</text>
  <g transform="matrix(1 0 0 1 1289 1933)">
   <path d="M2.8418 1.86523L4.54102 3.57422Q5.18555 4.22852 5.90332 4.17969Q6.62109 4.13086 7.31445 3.35938L18.0078-8.42773L17.041-9.4043L6.42578 2.27539Q6.16211 2.57812 5.89355 2.61719Q5.625 2.65625 5.27344 2.30469L4.10156 1.14258Q3.75 0.791016 3.79395 0.522461Q3.83789 0.253906 4.14062-0.0195312L15.6152-10.8203L14.6387-11.7871L3.04688-0.898438Q2.30469-0.214844 2.25098 0.498047Q2.19727 1.21094 2.8418 1.86523ZM9.25781-16.3281Q8.94531-16.0254 8.90625-15.6348Q8.86719-15.2441 9.04297-14.9512Q9.21875-14.6777 9.55566-14.541Q9.89258-14.4043 10.3809-14.5215Q11.4746-14.7754 12.5977-14.7314Q13.7207-14.6875 14.7949-13.9844L14.209-12.5293Q13.9551-11.9043 14.0674-11.4404Q14.1797-10.9766 14.5801-10.5664L16.875-8.25195Q17.2363-7.88086 17.5781-7.82227Q17.9199-7.76367 18.3398-7.8418L19.4043-8.03711L20.0684-7.36328L20.0293-6.80664Q20-6.43555 20.1221-6.12305Q20.2441-5.81055 20.6055-5.44922L21.3672-4.70703Q21.7285-4.3457 22.1533-4.33105Q22.5781-4.31641 22.9297-4.66797L25.8398-7.58789Q26.1914-7.93945 26.1816-8.35449Q26.1719-8.76953 25.8105-9.13086L25.0391-9.89258Q24.6875-10.2539 24.3799-10.3857Q24.0723-10.5176 23.7109-10.4883L23.1348-10.4395L22.4902-11.0742L22.7344-12.1973Q22.832-12.6172 22.6953-12.9834Q22.5586-13.3496 22.1191-13.7891L19.9219-15.9766Q18.6719-17.2168 17.2607-17.8369Q15.8496-18.457 14.4189-18.4814Q12.9883-18.5059 11.665-17.959Q10.3418-17.4121 9.25781-16.3281ZM10.752-15.957Q11.6602-16.6211 12.7002-16.9043Q13.7402-17.1875 14.8047-17.085Q15.8691-16.9824 16.8701-16.5137Q17.8711-16.0449 18.7012-15.2051L21.1328-12.793Q21.3086-12.6172 21.3525-12.4512Q21.3965-12.2852 21.3379-12.0312L21.0156-10.5469L22.5195-9.0625L23.5059-9.12109Q23.6914-9.13086 23.7891-9.09668Q23.8867-9.0625 24.0332-8.91602L24.6094-8.33984L22.168-5.89844L21.5918-6.47461Q21.4453-6.62109 21.4062-6.71875Q21.3672-6.81641 21.377-7.01172L21.4453-7.98828L19.9512-9.47266L18.4277-9.21875Q18.1836-9.16992 18.042-9.2041Q17.9004-9.23828 17.7148-9.41406L15.7129-11.416Q15.5176-11.5918 15.4932-11.7529Q15.4688-11.9141 15.5859-12.1875L16.4648-14.2773Q15.293-15.3711 13.8281-15.791Q12.3633-16.2109 10.8398-15.7617Q10.7227-15.7324 10.6885-15.8057Q10.6543-15.8789 10.752-15.957Z"/>
  </g>
  <text style="stroke:none;fill:black;font-family:sans-serif;font-size:13;font-weight:bold;" transform="matrix(1 0 0 1 1289 1953)">Exporting</text>
  <text style="stroke:none;fill:black;font-family:sans-serif;font-size:13;" transform="matrix(1 0 0 1 1289 1971)">Symbols should be outlined when exporting to ensure the</text>
  <text style="stroke:none;fill:black;font-family:sans-serif;font-size:13;" transform="matrix(1 0 0 1 1289 1989)">design is preserved when submitting to Xcode.</text>
  <text id="template-version" style="stroke:none;fill:black;font-family:sans-serif;font-size:13;text-anchor:end;" transform="matrix(1 0 0 1 3036 1933)">Template v.3.0</text>
  <text style="stroke:none;fill:black;font-family:sans-serif;font-size:13;text-anchor:end;" transform="matrix(1 0 0 1 3036 1951)">Requires Xcode 13 or greater</text>
  <text id="descriptive-name" style="stroke:none;fill:black;font-family:sans-serif;font-size:13;text-anchor:end;" transform="matrix(1 0 0 1 3036 1969)">Generated from key.cr</text>
  <text style="stroke:none;fill:black;font-family:sans-serif;font-size:13;text-anchor:end;" transform="matrix(1 0 0 1 3036 1987)">Typeset at 100 points</text>
  <text style="stroke:none;fill:black;font-family:sans-serif;font-size:13;" transform="matrix(1 0 0 1 263 726)">Small</text>
  <text style="stroke:none;fill:black;font-family:sans-serif;font-size:13;" transform="matrix(1 0 0 1 263 1156)">Medium</text>
  <text style="stroke:none;fill:black;font-family:sans-serif;font-size:13;" transform="matrix(1 0 0 1 263 1586)">Large</text>
 </g>
 <g id="Guides">
  <g id="H-reference" style="fill:#27AAE1;stroke:none;" transform="matrix(1 0 0 1 339 696)">
   <path d="M0.993347 0L3.6377 0L29.3282-67.1326L30.0301-67.1326L30.0301-70.459L28.1227-70.459ZM11.6882-24.4797L46.9818-24.4797L46.2311-26.7288L12.4382-26.7288ZM55.1193 0L57.7637 0L30.6381-70.459L29.4327-70.459L29.4327-67.1326Z"/>
  </g>
  <line id="Baseline-S" style="fill:none;stroke:#27AAE1;opacity:1;stroke-width:0.5;" x1="263" x2="3036" y1="696" y2="696"/>
  <line id="Capline-S" style="fill:none;stroke:#27AAE1;opacity:1;stroke-width:0.5;" x1="263" x2="3036" y1="625.541" y2="625.541"/>
  <g id="H-reference" style="fill:#27AAE1;stroke:none;" transform="matrix(1 0 0 1 339 1126)">
   <path d="M0.993347 0L3.6377 0L29.3282-67.1326L30.0301-67.1326L30.0301-70.459L28.1227-70.459ZM11.6882-24.4797L46.9818-24.4797L46.2311-26.7288L12.4382-26.7288ZM55.1193 0L57.7637 0L30.6381-70.459L29.4327-70.459L29.4327-67.1326Z"/>
  </g>
  <line id="Baseline-M" style="fill:none;stroke:#27AAE1;opacity:1;stroke-width:0.5;" x1="263" x2="3036" y1="1126" y2="1126"/>
  <line id="Capline-M" style="fill:none;stroke:#27AAE1;opacity:1;stroke-width:0.5;" x1="263" x2="3036" y1="1055.54" y2="1055.54"/>
  <g id="H-reference" style="fill:#27AAE1;stroke:none;" transform="matrix(1 0 0 1 339 1556)">
   <path d="M0.993347 0L3.6377 0L29.3282-67.1326L30.0301-67.1326L30.0301-70.459L28.1227-70.459ZM11.6882-24.4797L46.9818-24.4797L46.2311-26.7288L12.4382-26.7288ZM55.1193 0L57.7637 0L30.6381-70.459L29.4327-70.459L29.4327-67.1326Z"/>
  </g>
  <line id="Baseline-L" style="fill:none;stroke:#27AAE1;opacity:1;stroke-width:0.5;" x1="263" x2="3036" y1="1556" y2="1556"/>
  <line id="Capline-L" style="fill:none;stroke:#27AAE1;opacity:1;stroke-width:0.5;" x1="263" x2="3036" y1="1485.54" y2="1485.54"/>
  <line id="left-margin-Regular-M" style="fill:none;stroke:#00AEEF;stroke-width:0.5;opacity:1.0;" x1="1381.27" x2="1381.27" y1="1030.78" y2="1150.12"/>
  <line id="right-margin-Regular-M" style="fill:none;stroke:#00AEEF;stroke-width:0.5;opacity:1.0;" x1="1518.41" x2="1518.41" y1="1030.78" y2="1150.12"/>
 </g>
 <g id="Symbols">
  <g id="Black-L" transform="matrix(1 0 0 1 2857.14 1556)">
   <path class="multicolor-0:custom SFSymbolsPreview34A853" d="M133.58-25.64L120.77-25.64L107.95-25.64L107.95-6.41L120.77-6.41L120.77-12.82C120.77-16.35 123.65-19.23 127.17-19.23C130.7-19.23 133.58-16.35 133.58-12.82L133.58-6.41L146.4-6.41L146.4-25.64L133.58-25.64Z"/>
   <path class="multicolor-1:custom SFSymbolsPreview188038" d="M146.4-44.86L107.95-44.86L107.95-25.64L146.4-25.64L146.4-44.86Z"/>
   <path class="multicolor-2:custom SFSymbolsPreviewFBBC04" d="M107.95-44.86L74.63-44.86C75.44-41.82 75.92-38.61 75.92-35.25C75.92-31.88 75.44-28.68 74.63-25.64L107.95-25.64L107.95-44.86Z"/>
   <path class="multicolor-3:custom SFSymbolsPreview4183F0" d="M40.68 0C21.29 0 5.44-15.86 5.44-35.24C5.44-54.63 21.29-70.48 40.68-70.48C60.06-70.48 75.92-54.63 75.92-35.24C75.92-15.86 60.06 0 40.68 0ZM40.68-51.26C31.87-51.26 24.66-44.05 24.66-35.24C24.66-26.43 31.87-19.23 40.68-19.23C49.49-19.23 56.69-26.43 56.69-35.24C56.69-44.05 49.49-51.26 40.68-51.26Z"/>
   <path class="multicolor-4:custom SFSymbolsPreviewEA4335" d="M74.63-44.86L53.49-44.86C55.41-42.14 56.69-38.93 56.69-35.25C56.69-31.56 55.41-28.36 53.49-25.64L74.63-25.64C75.44-28.68 75.92-31.88 75.92-35.25C75.92-38.61 75.44-41.82 74.63-44.86Z"/>
  </g>
  <g id="Heavy-L" transform="matrix(1 0 0 1 2560.43 1556)">
   <path class="multicolor-0:custom SFSymbolsPreview34A853" d="M133.59-25.63L120.78-25.63L107.96-25.63L107.96-6.41L120.78-6.41L120.78-12.82C120.78-16.34 123.66-19.23 127.18-19.23C130.71-19.23 133.59-16.34 133.59-12.82L133.59-6.41L146.4-6.41L146.4-25.63L133.59-25.63Z"/>
   <path class="multicolor-1:custom SFSymbolsPreview188038" d="M146.4-44.86L107.96-44.86L107.96-25.63L146.4-25.63L146.4-44.86Z"/>
   <path class="multicolor-2:custom SFSymbolsPreviewFBBC04" d="M107.96-44.86L74.64-44.86C75.44-41.81 75.92-38.61 75.92-35.24C75.92-31.88 75.44-28.68 74.64-25.63L107.96-25.63L107.96-44.86Z"/>
   <path class="multicolor-3:custom SFSymbolsPreview4183F0" d="M40.68 0C21.3 0 5.44-15.86 5.44-35.24C5.44-54.62 21.3-70.48 40.68-70.48C60.07-70.48 75.92-54.62 75.92-35.24C75.92-15.86 60.07 0 40.68 0ZM40.68-51.26C31.87-51.26 24.67-44.05 24.67-35.24C24.67-26.43 31.87-19.22 40.68-19.22C49.49-19.22 56.7-26.43 56.7-35.24C56.7-44.05 49.49-51.26 40.68-51.26Z"/>
   <path class="multicolor-4:custom SFSymbolsPreviewEA4335" d="M74.64-44.86L53.5-44.86C55.42-42.13 56.7-38.93 56.7-35.24C56.7-31.56 55.42-28.36 53.5-25.63L74.64-25.63C75.44-28.68 75.92-31.88 75.92-35.24C75.92-38.61 75.44-41.81 74.64-44.86Z"/>
  </g>
  <g id="Bold-L" transform="matrix(1 0 0 1 2263.72 1556)">
   <path class="multicolor-0:custom SFSymbolsPreview34A853" d="M133.59-25.63L120.77-25.63L107.96-25.63L107.96-6.41L120.77-6.41L120.77-12.81C120.77-16.34 123.66-19.22 127.18-19.22C130.7-19.22 133.59-16.34 133.59-12.81L133.59-6.41L146.4-6.41L146.4-25.63L133.59-25.63Z"/>
   <path class="multicolor-1:custom SFSymbolsPreview188038" d="M146.4-44.85L107.96-44.85L107.96-25.63L146.4-25.63L146.4-44.85Z"/>
   <path class="multicolor-2:custom SFSymbolsPreviewFBBC04" d="M107.96-44.85L74.64-44.85C75.44-41.81 75.92-38.6 75.92-35.24C75.92-31.88 75.44-28.67 74.64-25.63L107.96-25.63L107.96-44.85Z"/>
   <path class="multicolor-3:custom SFSymbolsPreview4183F0" d="M40.68 0C21.3 0 5.44-15.85 5.44-35.24C5.44-54.62 21.3-70.48 40.68-70.48C60.06-70.48 75.92-54.62 75.92-35.24C75.92-15.85 60.06 0 40.68 0ZM40.68-51.25C31.87-51.25 24.66-44.05 24.66-35.24C24.66-26.43 31.87-19.22 40.68-19.22C49.49-19.22 56.7-26.43 56.7-35.24C56.7-44.05 49.49-51.25 40.68-51.25Z"/>
   <path class="multicolor-4:custom SFSymbolsPreviewEA4335" d="M74.64-44.85L53.5-44.85C55.42-42.13 56.7-38.92 56.7-35.24C56.7-31.56 55.42-28.35 53.5-25.63L74.64-25.63C75.44-28.67 75.92-31.88 75.92-35.24C75.92-38.6 75.44-41.81 74.64-44.85Z"/>
  </g>
  <g id="Semibold-L" transform="matrix(1 0 0 1 1967 1556)">
   <path class="multicolor-0:custom SFSymbolsPreview34A853" d="M133.59-25.09L120.78-25.09L107.96-25.09L107.96-5.86L120.78-5.86L120.78-12.27C120.78-15.8 123.66-18.68 127.18-18.68C130.71-18.68 133.59-15.8 133.59-12.27L133.59-5.86L146.41-5.86L146.41-25.09L133.59-25.09Z"/>
   <path class="multicolor-1:custom SFSymbolsPreview188038" d="M146.41-44.31L107.96-44.31L107.96-25.09L146.41-25.09L146.41-44.31Z"/>
   <path class="multicolor-2:custom SFSymbolsPreviewFBBC04" d="M107.96-44.31L74.64-44.31C75.44-41.27 75.93-38.06 75.93-34.7C75.93-31.33 75.44-28.13 74.64-25.09L107.96-25.09L107.96-44.31Z"/>
   <path class="multicolor-3:custom SFSymbolsPreview4183F0" d="M40.68 0.55C21.3 0.55 5.44-15.31 5.44-34.69C5.44-54.08 21.3-69.93 40.68-69.93C60.07-69.93 75.92-54.08 75.92-34.69C75.92-15.31 60.07 0.55 40.68 0.55ZM40.68-50.71C31.87-50.71 24.67-43.5 24.67-34.69C24.67-25.88 31.87-18.68 40.68-18.68C49.49-18.68 56.7-25.88 56.7-34.69C56.7-43.5 49.49-50.71 40.68-50.71Z"/>
   <path class="multicolor-4:custom SFSymbolsPreviewEA4335" d="M74.64-44.31L53.5-44.31C55.42-41.59 56.7-38.38 56.7-34.7C56.7-31.01 55.42-27.81 53.5-25.09L74.64-25.09C75.44-28.13 75.92-31.33 75.92-34.7C75.92-38.06 75.44-41.27 74.64-44.31Z"/>
  </g>
  <g id="Medium-L" transform="matrix(1 0 0 1 1670.3 1556)">
   <path class="multicolor-0:custom SFSymbolsPreview34A853" d="M133.59-25.26L120.77-25.26L107.96-25.26L107.96-6.04L120.77-6.04L120.77-12.45C120.77-15.97 123.66-18.85 127.18-18.85C130.7-18.85 133.59-15.97 133.59-12.45L133.59-6.04L146.4-6.04L146.4-25.26L133.59-25.26Z"/>
   <path class="multicolor-1:custom SFSymbolsPreview188038" d="M146.4-44.48L107.96-44.48L107.96-25.26L146.4-25.26L146.4-44.48Z"/>
   <path class="multicolor-2:custom SFSymbolsPreviewFBBC04" d="M107.96-44.48L74.64-44.48C75.44-41.44 75.92-38.24 75.92-34.87C75.92-31.51 75.44-28.31 74.64-25.26L107.96-25.26L107.96-44.48Z"/>
   <path class="multicolor-3:custom SFSymbolsPreview4183F0" d="M40.68 0.37C21.3 0.37 5.44-15.49 5.44-34.87C5.44-54.25 21.3-70.11 40.68-70.11C60.06-70.11 75.92-54.25 75.92-34.87C75.92-15.49 60.06 0.37 40.68 0.37ZM40.68-50.89C31.87-50.89 24.66-43.68 24.66-34.87C24.66-26.06 31.87-18.85 40.68-18.85C49.49-18.85 56.7-26.06 56.7-34.87C56.7-43.68 49.49-50.89 40.68-50.89Z"/>
   <path class="multicolor-4:custom SFSymbolsPreviewEA4335" d="M74.64-44.48L53.5-44.48C55.42-41.76 56.7-38.56 56.7-34.87C56.7-31.19 55.42-27.99 53.5-25.26L74.64-25.26C75.44-28.31 75.92-31.51 75.92-34.87C75.92-38.24 75.44-41.44 74.64-44.48Z"/>
  </g>
  <g id="Regular-L" transform="matrix(1 0 0 1 1373.58 1556)">
   <path class="multicolor-0:custom SFSymbolsPreview34A853" d="M133.58-25.61L120.77-25.61L107.95-25.61L107.95-6.39L120.77-6.39L120.77-12.8C120.77-16.32 123.65-19.21 127.18-19.21C130.7-19.21 133.58-16.32 133.58-12.8L133.58-6.39L146.4-6.39L146.4-25.61L133.58-25.61Z"/>
   <path class="multicolor-1:custom SFSymbolsPreview188038" d="M146.4-44.84L107.95-44.84L107.95-25.61L146.4-25.61L146.4-44.84Z"/>
   <path class="multicolor-2:custom SFSymbolsPreviewFBBC04" d="M107.95-44.84L74.64-44.84C75.44-41.79 75.92-38.59 75.92-35.23C75.92-31.86 75.44-28.66 74.64-25.61L107.95-25.61L107.95-44.84Z"/>
   <path class="multicolor-3:custom SFSymbolsPreview4183F0" d="M40.68 0.02C21.29 0.02 5.44-15.84 5.44-35.22C5.44-54.6 21.29-70.46 40.68-70.46C60.06-70.46 75.92-54.6 75.92-35.22C75.92-15.84 60.06 0.02 40.68 0.02ZM40.68-51.24C31.87-51.24 24.66-44.03 24.66-35.22C24.66-26.41 31.87-19.2 40.68-19.2C49.49-19.2 56.69-26.41 56.69-35.22C56.69-44.03 49.49-51.24 40.68-51.24Z"/>
   <path class="multicolor-4:custom SFSymbolsPreviewEA4335" d="M74.64-44.84L53.49-44.84C55.41-42.11 56.7-38.91 56.7-35.23C56.7-31.54 55.41-28.34 53.49-25.61L74.64-25.61C75.44-28.66 75.92-31.86 75.92-35.23C75.92-38.59 75.44-41.79 74.64-44.84Z"/>
  </g>
  <g id="Light-L" transform="matrix(1 0 0 1 1076.87 1556)">
   <path class="multicolor-0:custom SFSymbolsPreview34A853" d="M133.59-25.64L120.77-25.64L107.96-25.64L107.96-6.41L120.77-6.41L120.77-12.82C120.77-16.35 123.66-19.23 127.18-19.23C130.7-19.23 133.59-16.35 133.59-12.82L133.59-6.41L146.4-6.41L146.4-25.64L133.59-25.64Z"/>
   <path class="multicolor-1:custom SFSymbolsPreview188038" d="M146.4-44.86L107.96-44.86L107.96-25.64L146.4-25.64L146.4-44.86Z"/>
   <path class="multicolor-2:custom SFSymbolsPreviewFBBC04" d="M107.96-44.86L74.64-44.86C75.44-41.82 75.92-38.61 75.92-35.25C75.92-31.88 75.44-28.68 74.64-25.64L107.96-25.64L107.96-44.86Z"/>
   <path class="multicolor-3:custom SFSymbolsPreview4183F0" d="M40.68 0C21.3 0 5.44-15.86 5.44-35.24C5.44-54.63 21.3-70.48 40.68-70.48C60.06-70.48 75.92-54.63 75.92-35.24C75.92-15.86 60.06 0 40.68 0ZM40.68-51.26C31.87-51.26 24.66-44.05 24.66-35.24C24.66-26.43 31.87-19.23 40.68-19.23C49.49-19.23 56.7-26.43 56.7-35.24C56.7-44.05 49.49-51.26 40.68-51.26Z"/>
   <path class="multicolor-4:custom SFSymbolsPreviewEA4335" d="M74.64-44.86L53.5-44.86C55.42-42.14 56.7-38.93 56.7-35.25C56.7-31.56 55.42-28.36 53.5-25.64L74.64-25.64C75.44-28.68 75.92-31.88 75.92-35.25C75.92-38.61 75.44-41.82 74.64-44.86Z"/>
  </g>
  <g id="Thin-L" transform="matrix(1 0 0 1 780.162 1556)">
   <path class="multicolor-0:custom SFSymbolsPreview34A853" d="M133.586-25.63L120.771-25.63L107.957-25.63L107.957-6.41L120.771-6.41L120.771-12.81C120.771-16.34 123.655-19.22 127.179-19.22C130.703-19.22 133.586-16.34 133.586-12.81L133.586-6.41L146.4-6.41L146.4-25.63L133.586-25.63Z"/>
   <path class="multicolor-1:custom SFSymbolsPreview188038" d="M146.4-44.85L107.957-44.85L107.957-25.63L146.4-25.63L146.4-44.85Z"/>
   <path class="multicolor-2:custom SFSymbolsPreviewFBBC04" d="M107.957-44.85L74.639-44.85C75.44-41.81 75.92-38.6 75.92-35.24C75.92-31.88 75.44-28.67 74.639-25.63L107.957-25.63L107.957-44.85Z"/>
   <path class="multicolor-3:custom SFSymbolsPreview4183F0" d="M40.68 0C21.298 0 5.44-15.85 5.44-35.24C5.44-54.62 21.298-70.48 40.68-70.48C60.062-70.48 75.92-54.62 75.92-35.24C75.92-15.85 60.062 0 40.68 0ZM40.68-51.25C31.87-51.25 24.662-44.05 24.662-35.24C24.662-26.43 31.87-19.22 40.68-19.22C49.49-19.22 56.698-26.43 56.698-35.24C56.698-44.05 49.49-51.25 40.68-51.25Z"/>
   <path class="multicolor-4:custom SFSymbolsPreviewEA4335" d="M74.639-44.85L53.495-44.85C55.417-42.13 56.699-38.92 56.699-35.24C56.699-31.56 55.417-28.35 53.495-25.63L74.639-25.63C75.44-28.67 75.92-31.88 75.92-35.24C75.92-38.6 75.44-41.81 74.639-44.85Z"/>
  </g>
  <g id="Ultralight-L" transform="matrix(1 0 0 1 483.451 1556)">
   <path class="multicolor-0:custom SFSymbolsPreview34A853" d="M133.586-25.61L120.771-25.61L107.957-25.61L107.957-6.39L120.771-6.39L120.771-12.8C120.771-16.32 123.655-19.21 127.179-19.21C130.703-19.21 133.586-16.32 133.586-12.8L133.586-6.39L146.4-6.39L146.4-25.61L133.586-25.61Z"/>
   <path class="multicolor-1:custom SFSymbolsPreview188038" d="M146.4-44.84L107.957-44.84L107.957-25.61L146.4-25.61L146.4-44.84Z"/>
   <path class="multicolor-2:custom SFSymbolsPreviewFBBC04" d="M107.957-44.84L74.639-44.84C75.44-41.79 75.92-38.59 75.92-35.23C75.92-31.86 75.44-28.66 74.639-25.61L107.957-25.61L107.957-44.84Z"/>
   <path class="multicolor-3:custom SFSymbolsPreview4183F0" d="M40.68 0.02C21.298 0.02 5.44-15.84 5.44-35.22C5.44-54.6 21.298-70.46 40.68-70.46C60.062-70.46 75.92-54.6 75.92-35.22C75.92-15.84 60.062 0.02 40.68 0.02ZM40.68-51.24C31.87-51.24 24.662-44.03 24.662-35.22C24.662-26.41 31.87-19.2 40.68-19.2C49.49-19.2 56.698-26.41 56.698-35.22C56.698-44.03 49.49-51.24 40.68-51.24Z"/>
   <path class="multicolor-4:custom SFSymbolsPreviewEA4335" d="M74.639-44.84L53.495-44.84C55.417-42.11 56.699-38.91 56.699-35.23C56.699-31.54 55.417-28.34 53.495-25.61L74.639-25.61C75.44-28.66 75.92-31.86 75.92-35.23C75.92-38.59 75.44-41.79 74.639-44.84Z"/>
  </g>
  <g id="Black-M" transform="matrix(1 0 0 1 2864.83 1126)">
   <path class="multicolor-0:custom SFSymbolsPreview34A853" d="M119.61-25.94L108.19-25.94L96.78-25.94L96.78-8.81L108.19-8.81L108.19-14.52C108.19-17.66 110.76-20.23 113.9-20.23C117.04-20.23 119.61-17.66 119.61-14.52L119.61-8.81L131.03-8.81L131.03-25.94L119.61-25.94Z"/>
   <path class="multicolor-1:custom SFSymbolsPreview188038" d="M131.03-43.06L96.78-43.06L96.78-25.94L131.03-25.94L131.03-43.06Z"/>
   <path class="multicolor-2:custom SFSymbolsPreviewFBBC04" d="M96.78-43.06L67.09-43.06C67.81-40.35 68.24-37.5 68.24-34.5C68.24-31.5 67.81-28.65 67.09-25.94L96.78-25.94L96.78-43.06Z"/>
   <path class="multicolor-3:custom SFSymbolsPreview4183F0" d="M36.84-3.1C19.57-3.1 5.44-17.23 5.44-34.5C5.44-51.77 19.57-65.89 36.84-65.89C54.11-65.89 68.24-51.77 68.24-34.5C68.24-17.23 54.11-3.1 36.84-3.1ZM36.84-48.77C28.99-48.77 22.57-42.35 22.57-34.5C22.57-26.65 28.99-20.23 36.84-20.23C44.69-20.23 51.11-26.65 51.11-34.5C51.11-42.35 44.69-48.77 36.84-48.77Z"/>
   <path class="multicolor-4:custom SFSymbolsPreviewEA4335" d="M67.09-43.06L48.26-43.06C49.97-40.64 51.11-37.78 51.11-34.5C51.11-31.22 49.97-28.36 48.26-25.94L67.09-25.94C67.81-28.65 68.24-31.5 68.24-34.5C68.24-37.5 67.81-40.35 67.09-43.06Z"/>
  </g>
  <g id="Heavy-M" transform="matrix(1 0 0 1 2568.12 1126)">
   <path class="multicolor-0:custom SFSymbolsPreview34A853" d="M119.61-25.93L108.19-25.93L96.77-25.93L96.77-8.81L108.19-8.81L108.19-14.52C108.19-17.66 110.76-20.23 113.9-20.23C117.04-20.23 119.61-17.66 119.61-14.52L119.61-8.81L131.02-8.81L131.02-25.93L119.61-25.93Z"/>
   <path class="multicolor-1:custom SFSymbolsPreview188038" d="M131.02-43.06L96.77-43.06L96.77-25.93L131.02-25.93L131.02-43.06Z"/>
   <path class="multicolor-2:custom SFSymbolsPreviewFBBC04" d="M96.77-43.06L67.09-43.06C67.8-40.35 68.23-37.49 68.23-34.5C68.23-31.5 67.8-28.65 67.09-25.93L96.77-25.93L96.77-43.06Z"/>
   <path class="multicolor-3:custom SFSymbolsPreview4183F0" d="M36.84-3.1C19.57-3.1 5.44-17.23 5.44-34.49C5.44-51.76 19.57-65.89 36.84-65.89C54.1-65.89 68.23-51.76 68.23-34.49C68.23-17.23 54.1-3.1 36.84-3.1ZM36.84-48.77C28.99-48.77 22.57-42.34 22.57-34.49C22.57-26.65 28.99-20.22 36.84-20.22C44.69-20.22 51.11-26.65 51.11-34.49C51.11-42.34 44.69-48.77 36.84-48.77Z"/>
   <path class="multicolor-4:custom SFSymbolsPreviewEA4335" d="M67.09-43.06L48.25-43.06C49.97-40.63 51.11-37.78 51.11-34.5C51.11-31.21 49.97-28.36 48.25-25.93L67.09-25.93C67.8-28.65 68.23-31.5 68.23-34.5C68.23-37.49 67.8-40.35 67.09-43.06Z"/>
  </g>
  <g id="Bold-M" transform="matrix(1 0 0 1 2271.41 1126)">
   <path class="multicolor-0:custom SFSymbolsPreview34A853" d="M119.6-25.94L108.19-25.94L96.77-25.94L96.77-8.81L108.19-8.81L108.19-14.52C108.19-17.66 110.75-20.23 113.89-20.23C117.03-20.23 119.6-17.66 119.6-14.52L119.6-8.81L131.02-8.81L131.02-25.94L119.6-25.94Z"/>
   <path class="multicolor-1:custom SFSymbolsPreview188038" d="M131.02-43.06L96.77-43.06L96.77-25.94L131.02-25.94L131.02-43.06Z"/>
   <path class="multicolor-2:custom SFSymbolsPreviewFBBC04" d="M96.77-43.06L67.09-43.06C67.8-40.35 68.23-37.5 68.23-34.5C68.23-31.5 67.8-28.65 67.09-25.94L96.77-25.94L96.77-43.06Z"/>
   <path class="multicolor-3:custom SFSymbolsPreview4183F0" d="M36.83-3.1C19.56-3.1 5.44-17.23 5.44-34.5C5.44-51.77 19.56-65.89 36.83-65.89C54.1-65.89 68.23-51.77 68.23-34.5C68.23-17.23 54.1-3.1 36.83-3.1ZM36.83-48.77C28.98-48.77 22.56-42.35 22.56-34.5C22.56-26.65 28.98-20.23 36.83-20.23C44.68-20.23 51.1-26.65 51.1-34.5C51.1-42.35 44.68-48.77 36.83-48.77Z"/>
   <path class="multicolor-4:custom SFSymbolsPreviewEA4335" d="M67.09-43.06L48.25-43.06C49.96-40.64 51.1-37.78 51.1-34.5C51.1-31.22 49.96-28.36 48.25-25.94L67.09-25.94C67.8-28.65 68.23-31.5 68.23-34.5C68.23-37.5 67.8-40.35 67.09-43.06Z"/>
  </g>
  <g id="Semibold-M" transform="matrix(1 0 0 1 1974.69 1126)">
   <path class="multicolor-0:custom SFSymbolsPreview34A853" d="M119.61-25.93L108.19-25.93L96.78-25.93L96.78-8.81L108.19-8.81L108.19-14.52C108.19-17.66 110.76-20.23 113.9-20.23C117.04-20.23 119.61-17.66 119.61-14.52L119.61-8.81L131.03-8.81L131.03-25.93L119.61-25.93Z"/>
   <path class="multicolor-1:custom SFSymbolsPreview188038" d="M131.03-43.06L96.78-43.06L96.78-25.93L131.03-25.93L131.03-43.06Z"/>
   <path class="multicolor-2:custom SFSymbolsPreviewFBBC04" d="M96.78-43.06L67.09-43.06C67.81-40.35 68.23-37.49 68.23-34.5C68.23-31.5 67.81-28.65 67.09-25.93L96.78-25.93L96.78-43.06Z"/>
   <path class="multicolor-3:custom SFSymbolsPreview4183F0" d="M36.84-3.1C19.57-3.1 5.44-17.23 5.44-34.49C5.44-51.76 19.57-65.89 36.84-65.89C54.11-65.89 68.23-51.76 68.23-34.49C68.23-17.23 54.11-3.1 36.84-3.1ZM36.84-48.77C28.99-48.77 22.57-42.34 22.57-34.49C22.57-26.65 28.99-20.22 36.84-20.22C44.69-20.22 51.11-26.65 51.11-34.49C51.11-42.34 44.69-48.77 36.84-48.77Z"/>
   <path class="multicolor-4:custom SFSymbolsPreviewEA4335" d="M67.09-43.06L48.26-43.06C49.97-40.63 51.11-37.78 51.11-34.5C51.11-31.21 49.97-28.36 48.26-25.93L67.09-25.93C67.81-28.65 68.23-31.5 68.23-34.5C68.23-37.49 67.81-40.35 67.09-43.06Z"/>
  </g>
  <g id="Medium-M" transform="matrix(1 0 0 1 1677.99 1126)">
   <path class="multicolor-0:custom SFSymbolsPreview34A853" d="M119.6-25.94L108.19-25.94L96.77-25.94L96.77-8.81L108.19-8.81L108.19-14.52C108.19-17.66 110.76-20.23 113.9-20.23C117.03-20.23 119.6-17.66 119.6-14.52L119.6-8.81L131.02-8.81L131.02-25.94L119.6-25.94Z"/>
   <path class="multicolor-1:custom SFSymbolsPreview188038" d="M131.02-43.06L96.77-43.06L96.77-25.94L131.02-25.94L131.02-43.06Z"/>
   <path class="multicolor-2:custom SFSymbolsPreviewFBBC04" d="M96.77-43.06L67.09-43.06C67.8-40.35 68.23-37.5 68.23-34.5C68.23-31.5 67.8-28.65 67.09-25.94L96.77-25.94L96.77-43.06Z"/>
   <path class="multicolor-3:custom SFSymbolsPreview4183F0" d="M36.83-3.1C19.56-3.1 5.44-17.23 5.44-34.5C5.44-51.77 19.56-65.89 36.83-65.89C54.1-65.89 68.23-51.77 68.23-34.5C68.23-17.23 54.1-3.1 36.83-3.1ZM36.83-48.77C28.98-48.77 22.56-42.35 22.56-34.5C22.56-26.65 28.98-20.23 36.83-20.23C44.68-20.23 51.1-26.65 51.1-34.5C51.1-42.35 44.68-48.77 36.83-48.77Z"/>
   <path class="multicolor-4:custom SFSymbolsPreviewEA4335" d="M67.09-43.06L48.25-43.06C49.96-40.64 51.1-37.78 51.1-34.5C51.1-31.22 49.96-28.36 48.25-25.94L67.09-25.94C67.8-28.65 68.23-31.5 68.23-34.5C68.23-37.5 67.8-40.35 67.09-43.06Z"/>
  </g>
  <g id="Regular-M" transform="matrix(1 0 0 1 1381.27 1126)">
   <path class="multicolor-0:custom SFSymbolsPreview34A853" d="M119.61-25.93L108.19-25.93L96.77-25.93L96.77-8.81L108.19-8.81L108.19-14.52C108.19-17.66 110.76-20.23 113.9-20.23C117.04-20.23 119.61-17.66 119.61-14.52L119.61-8.81L131.02-8.81L131.02-25.93L119.61-25.93Z"/>
   <path class="multicolor-1:custom SFSymbolsPreview188038" d="M131.02-43.06L96.77-43.06L96.77-25.93L131.02-25.93L131.02-43.06Z"/>
   <path class="multicolor-2:custom SFSymbolsPreviewFBBC04" d="M96.77-43.06L67.09-43.06C67.8-40.35 68.23-37.49 68.23-34.5C68.23-31.5 67.8-28.65 67.09-25.93L96.77-25.93L96.77-43.06Z"/>
   <path class="multicolor-3:custom SFSymbolsPreview4183F0" d="M36.83-3.1C19.57-3.1 5.44-17.23 5.44-34.49C5.44-51.76 19.57-65.89 36.83-65.89C54.1-65.89 68.23-51.76 68.23-34.49C68.23-17.23 54.1-3.1 36.83-3.1ZM36.83-48.77C28.99-48.77 22.56-42.34 22.56-34.49C22.56-26.65 28.99-20.22 36.83-20.22C44.68-20.22 51.1-26.65 51.1-34.49C51.1-42.34 44.68-48.77 36.83-48.77Z"/>
   <path class="multicolor-4:custom SFSymbolsPreviewEA4335" d="M67.09-43.06L48.25-43.06C49.96-40.63 51.1-37.78 51.1-34.5C51.1-31.21 49.96-28.36 48.25-25.93L67.09-25.93C67.8-28.65 68.23-31.5 68.23-34.5C68.23-37.49 67.8-40.35 67.09-43.06Z"/>
  </g>
  <g id="Light-M" transform="matrix(1 0 0 1 1084.56 1126)">
   <path class="multicolor-0:custom SFSymbolsPreview34A853" d="M119.61-26.98L108.19-26.98L96.78-26.98L96.78-9.86L108.19-9.86L108.19-15.57C108.19-18.71 110.76-21.28 113.9-21.28C117.04-21.28 119.61-18.71 119.61-15.57L119.61-9.86L131.03-9.86L131.03-26.98L119.61-26.98Z"/>
   <path class="multicolor-1:custom SFSymbolsPreview188038" d="M131.03-44.11L96.78-44.11L96.78-26.98L131.03-26.98L131.03-44.11Z"/>
   <path class="multicolor-2:custom SFSymbolsPreviewFBBC04" d="M96.78-44.11L67.09-44.11C67.81-41.4 68.23-38.54 68.23-35.55C68.23-32.55 67.81-29.7 67.09-26.98L96.78-26.98L96.78-44.11Z"/>
   <path class="multicolor-3:custom SFSymbolsPreview4183F0" d="M36.84-4.15C19.57-4.15 5.44-18.28 5.44-35.55C5.44-52.81 19.57-66.94 36.84-66.94C54.11-66.94 68.23-52.81 68.23-35.55C68.23-18.28 54.11-4.15 36.84-4.15ZM36.84-49.82C28.99-49.82 22.57-43.39 22.57-35.55C22.57-27.7 28.99-21.27 36.84-21.27C44.69-21.27 51.11-27.7 51.11-35.55C51.11-43.39 44.69-49.82 36.84-49.82Z"/>
   <path class="multicolor-4:custom SFSymbolsPreviewEA4335" d="M67.09-44.11L48.25-44.11C49.97-41.68 51.11-38.83 51.11-35.55C51.11-32.26 49.97-29.41 48.25-26.98L67.09-26.98C67.81-29.7 68.23-32.55 68.23-35.55C68.23-38.54 67.81-41.4 67.09-44.11Z"/>
  </g>
  <g id="Thin-M" transform="matrix(1 0 0 1 787.851 1126)">
   <path class="multicolor-0:custom SFSymbolsPreview34A853" d="M119.606-26.98L108.19-26.98L96.773-26.98L96.773-9.86L108.19-9.86L108.19-15.57C108.19-18.71 110.758-21.28 113.898-21.28C117.038-21.28 119.606-18.71 119.606-15.57L119.606-9.86L131.023-9.86L131.023-26.98L119.606-26.98Z"/>
   <path class="multicolor-1:custom SFSymbolsPreview188038" d="M131.023-44.11L96.773-44.11L96.773-26.98L131.023-26.98L131.023-44.11Z"/>
   <path class="multicolor-2:custom SFSymbolsPreviewFBBC04" d="M96.773-44.11L67.09-44.11C67.804-41.4 68.232-38.54 68.232-35.55C68.232-32.55 67.804-29.7 67.09-26.98L96.773-26.98L96.773-44.11Z"/>
   <path class="multicolor-3:custom SFSymbolsPreview4183F0" d="M36.835-4.15C19.568-4.15 5.44-18.28 5.44-35.55C5.44-52.81 19.568-66.94 36.835-66.94C54.103-66.94 68.231-52.81 68.231-35.55C68.231-18.28 54.103-4.15 36.835-4.15ZM36.835-49.82C28.986-49.82 22.565-43.39 22.565-35.55C22.565-27.7 28.986-21.27 36.835-21.27C44.684-21.27 51.106-27.7 51.106-35.55C51.106-43.39 44.684-49.82 36.835-49.82Z"/>
   <path class="multicolor-4:custom SFSymbolsPreviewEA4335" d="M67.09-44.11L48.252-44.11C49.965-41.68 51.106-38.83 51.106-35.55C51.106-32.26 49.965-29.41 48.252-26.98L67.09-26.98C67.803-29.7 68.231-32.55 68.231-35.55C68.231-38.54 67.803-41.4 67.09-44.11Z"/>
  </g>
  <g id="Ultralight-M" transform="matrix(1 0 0 1 491.14 1126)">
   <path class="multicolor-0:custom SFSymbolsPreview34A853" d="M119.606-26.98L108.19-26.98L96.773-26.98L96.773-9.86L108.19-9.86L108.19-15.57C108.19-18.71 110.758-21.28 113.898-21.28C117.038-21.28 119.606-18.71 119.606-15.57L119.606-9.86L131.023-9.86L131.023-26.98L119.606-26.98Z"/>
   <path class="multicolor-1:custom SFSymbolsPreview188038" d="M131.023-44.11L96.773-44.11L96.773-26.98L131.023-26.98L131.023-44.11Z"/>
   <path class="multicolor-2:custom SFSymbolsPreviewFBBC04" d="M96.773-44.11L67.089-44.11C67.803-41.4 68.231-38.54 68.231-35.55C68.231-32.55 67.803-29.7 67.089-26.98L96.773-26.98L96.773-44.11Z"/>
   <path class="multicolor-3:custom SFSymbolsPreview4183F0" d="M36.835-4.15C19.568-4.15 5.44-18.28 5.44-35.55C5.44-52.81 19.568-66.94 36.835-66.94C54.103-66.94 68.231-52.81 68.231-35.55C68.231-18.28 54.103-4.15 36.835-4.15ZM36.835-49.82C28.986-49.82 22.565-43.39 22.565-35.55C22.565-27.7 28.986-21.27 36.835-21.27C44.684-21.27 51.106-27.7 51.106-35.55C51.106-43.39 44.684-49.82 36.835-49.82Z"/>
   <path class="multicolor-4:custom SFSymbolsPreviewEA4335" d="M67.09-44.11L48.252-44.11C49.965-41.68 51.106-38.83 51.106-35.55C51.106-32.26 49.965-29.41 48.252-26.98L67.09-26.98C67.803-29.7 68.231-32.55 68.231-35.55C68.231-38.54 67.803-41.4 67.09-44.11Z"/>
  </g>
  <g id="Black-S" transform="matrix(1 0 0 1 2880.51 696)">
   <path class="multicolor-0:custom SFSymbolsPreview34A853" d="M91.1-27.805L82.53-27.805L73.96-27.805L73.96-14.956L82.53-14.956L82.53-19.239C82.53-21.595 84.46-23.522 86.81-23.522C89.17-23.522 91.1-21.595 91.1-19.239L91.1-14.956L99.66-14.956L99.66-27.805L91.1-27.805Z"/>
   <path class="multicolor-1:custom SFSymbolsPreview188038" d="M99.66-40.652L73.96-40.652L73.96-27.804L99.66-27.804L99.66-40.652Z"/>
   <path class="multicolor-2:custom SFSymbolsPreviewFBBC04" d="M73.96-40.652L51.69-40.652C52.23-38.618 52.55-36.477 52.55-34.228C52.55-31.98 52.23-29.838 51.69-27.804L73.96-27.804L73.96-40.652Z"/>
   <path class="multicolor-3:custom SFSymbolsPreview4183F0" d="M28.99-10.674C16.04-10.674 5.44-21.274 5.44-34.23C5.44-47.185 16.04-57.785 28.99-57.785C41.95-57.785 52.55-47.185 52.55-34.23C52.55-21.274 41.95-10.674 28.99-10.674ZM28.99-44.937C23.11-44.937 18.29-40.119 18.29-34.23C18.29-28.341 23.11-23.523 28.99-23.523C34.88-23.523 39.7-28.341 39.7-34.23C39.7-40.119 34.88-44.937 28.99-44.937Z"/>
   <path class="multicolor-4:custom SFSymbolsPreviewEA4335" d="M51.69-40.652L37.56-40.652C38.84-38.832 39.7-36.691 39.7-34.228C39.7-31.765 38.84-29.624 37.56-27.804L51.69-27.804C52.23-29.838 52.55-31.98 52.55-34.228C52.55-36.477 52.23-38.618 51.69-40.652Z"/>
  </g>
  <g id="Heavy-S" transform="matrix(1 0 0 1 2583.8 696)">
   <path class="multicolor-0:custom SFSymbolsPreview34A853" d="M91.1-27.805L82.53-27.805L73.96-27.805L73.96-14.956L82.53-14.956L82.53-19.239C82.53-21.595 84.46-23.522 86.81-23.522C89.17-23.522 91.1-21.595 91.1-19.239L91.1-14.956L99.66-14.956L99.66-27.805L91.1-27.805Z"/>
   <path class="multicolor-1:custom SFSymbolsPreview188038" d="M99.66-40.652L73.96-40.652L73.96-27.804L99.66-27.804L99.66-40.652Z"/>
   <path class="multicolor-2:custom SFSymbolsPreviewFBBC04" d="M73.96-40.652L51.69-40.652C52.23-38.618 52.55-36.477 52.55-34.228C52.55-31.98 52.23-29.838 51.69-27.804L73.96-27.804L73.96-40.652Z"/>
   <path class="multicolor-3:custom SFSymbolsPreview4183F0" d="M28.99-10.674C16.04-10.674 5.44-21.274 5.44-34.23C5.44-47.185 16.04-57.785 28.99-57.785C41.95-57.785 52.55-47.185 52.55-34.23C52.55-21.274 41.95-10.674 28.99-10.674ZM28.99-44.937C23.11-44.937 18.29-40.119 18.29-34.23C18.29-28.341 23.11-23.523 28.99-23.523C34.88-23.523 39.7-28.341 39.7-34.23C39.7-40.119 34.88-44.937 28.99-44.937Z"/>
   <path class="multicolor-4:custom SFSymbolsPreviewEA4335" d="M51.69-40.652L37.56-40.652C38.84-38.832 39.7-36.691 39.7-34.228C39.7-31.765 38.84-29.624 37.56-27.804L51.69-27.804C52.23-29.838 52.55-31.98 52.55-34.228C52.55-36.477 52.23-38.618 51.69-40.652Z"/>
  </g>
  <g id="Bold-S" transform="matrix(1 0 0 1 2287.09 696)">
   <path class="multicolor-0:custom SFSymbolsPreview34A853" d="M91.1-27.801L82.53-27.801L73.96-27.801L73.96-14.952L82.53-14.952L82.53-19.235C82.53-21.591 84.46-23.518 86.81-23.518C89.17-23.518 91.1-21.591 91.1-19.235L91.1-14.952L99.66-14.952L99.66-27.801L91.1-27.801Z"/>
   <path class="multicolor-1:custom SFSymbolsPreview188038" d="M99.66-40.648L73.96-40.648L73.96-27.8L99.66-27.8L99.66-40.648Z"/>
   <path class="multicolor-2:custom SFSymbolsPreviewFBBC04" d="M73.96-40.648L51.69-40.648C52.23-38.614 52.55-36.473 52.55-34.224C52.55-31.976 52.23-29.834 51.69-27.8L73.96-27.8L73.96-40.648Z"/>
   <path class="multicolor-3:custom SFSymbolsPreview4183F0" d="M28.99-10.67C16.04-10.67 5.44-21.27 5.44-34.226C5.44-47.181 16.04-57.781 28.99-57.781C41.95-57.781 52.55-47.181 52.55-34.226C52.55-21.27 41.95-10.67 28.99-10.67ZM28.99-44.933C23.11-44.933 18.29-40.115 18.29-34.226C18.29-28.337 23.11-23.519 28.99-23.519C34.88-23.519 39.7-28.337 39.7-34.226C39.7-40.115 34.88-44.933 28.99-44.933Z"/>
   <path class="multicolor-4:custom SFSymbolsPreviewEA4335" d="M51.69-40.648L37.56-40.648C38.84-38.828 39.7-36.687 39.7-34.224C39.7-31.762 38.84-29.62 37.56-27.8L51.69-27.8C52.23-29.834 52.55-31.976 52.55-34.224C52.55-36.473 52.23-38.614 51.69-40.648Z"/>
  </g>
  <g id="Semibold-S" transform="matrix(1 0 0 1 1990.38 696)">
   <path class="multicolor-0:custom SFSymbolsPreview34A853" d="M91.1-27.805L82.53-27.805L73.96-27.805L73.96-14.956L82.53-14.956L82.53-19.239C82.53-21.595 84.46-23.522 86.81-23.522C89.17-23.522 91.1-21.595 91.1-19.239L91.1-14.956L99.66-14.956L99.66-27.805L91.1-27.805Z"/>
   <path class="multicolor-1:custom SFSymbolsPreview188038" d="M99.66-40.652L73.96-40.652L73.96-27.804L99.66-27.804L99.66-40.652Z"/>
   <path class="multicolor-2:custom SFSymbolsPreviewFBBC04" d="M73.96-40.652L51.69-40.652C52.23-38.618 52.55-36.477 52.55-34.228C52.55-31.98 52.23-29.838 51.69-27.804L73.96-27.804L73.96-40.652Z"/>
   <path class="multicolor-3:custom SFSymbolsPreview4183F0" d="M28.99-10.674C16.04-10.674 5.44-21.274 5.44-34.23C5.44-47.185 16.04-57.785 28.99-57.785C41.95-57.785 52.55-47.185 52.55-34.23C52.55-21.274 41.95-10.674 28.99-10.674ZM28.99-44.937C23.11-44.937 18.29-40.119 18.29-34.23C18.29-28.341 23.11-23.523 28.99-23.523C34.88-23.523 39.7-28.341 39.7-34.23C39.7-40.119 34.88-44.937 28.99-44.937Z"/>
   <path class="multicolor-4:custom SFSymbolsPreviewEA4335" d="M51.69-40.652L37.56-40.652C38.84-38.832 39.7-36.691 39.7-34.228C39.7-31.765 38.84-29.624 37.56-27.804L51.69-27.804C52.23-29.838 52.55-31.98 52.55-34.228C52.55-36.477 52.23-38.618 51.69-40.652Z"/>
  </g>
  <g id="Medium-S" transform="matrix(1 0 0 1 1693.67 696)">
   <path class="multicolor-0:custom SFSymbolsPreview34A853" d="M91.1-27.805L82.53-27.805L73.96-27.805L73.96-14.956L82.53-14.956L82.53-19.239C82.53-21.595 84.46-23.522 86.81-23.522C89.17-23.522 91.1-21.595 91.1-19.239L91.1-14.956L99.66-14.956L99.66-27.805L91.1-27.805Z"/>
   <path class="multicolor-1:custom SFSymbolsPreview188038" d="M99.66-40.652L73.96-40.652L73.96-27.804L99.66-27.804L99.66-40.652Z"/>
   <path class="multicolor-2:custom SFSymbolsPreviewFBBC04" d="M73.96-40.652L51.69-40.652C52.23-38.618 52.55-36.477 52.55-34.228C52.55-31.98 52.23-29.838 51.69-27.804L73.96-27.804L73.96-40.652Z"/>
   <path class="multicolor-3:custom SFSymbolsPreview4183F0" d="M28.99-10.674C16.04-10.674 5.44-21.274 5.44-34.23C5.44-47.185 16.04-57.785 28.99-57.785C41.95-57.785 52.55-47.185 52.55-34.23C52.55-21.274 41.95-10.674 28.99-10.674ZM28.99-44.937C23.11-44.937 18.29-40.119 18.29-34.23C18.29-28.341 23.11-23.523 28.99-23.523C34.88-23.523 39.7-28.341 39.7-34.23C39.7-40.119 34.88-44.937 28.99-44.937Z"/>
   <path class="multicolor-4:custom SFSymbolsPreviewEA4335" d="M51.69-40.652L37.56-40.652C38.84-38.832 39.7-36.691 39.7-34.228C39.7-31.765 38.84-29.624 37.56-27.804L51.69-27.804C52.23-29.838 52.55-31.98 52.55-34.228C52.55-36.477 52.23-38.618 51.69-40.652Z"/>
  </g>
  <g id="Regular-S" transform="matrix(1 0 0 1 1396.95 696)">
   <path class="multicolor-0:custom SFSymbolsPreview34A853" d="M91.1-27.801L82.53-27.801L73.96-27.801L73.96-14.952L82.53-14.952L82.53-19.235C82.53-21.591 84.46-23.518 86.81-23.518C89.17-23.518 91.1-21.591 91.1-19.235L91.1-14.952L99.66-14.952L99.66-27.801L91.1-27.801Z"/>
   <path class="multicolor-1:custom SFSymbolsPreview188038" d="M99.66-40.648L73.96-40.648L73.96-27.8L99.66-27.8L99.66-40.648Z"/>
   <path class="multicolor-2:custom SFSymbolsPreviewFBBC04" d="M73.96-40.648L51.69-40.648C52.23-38.614 52.55-36.473 52.55-34.224C52.55-31.976 52.23-29.834 51.69-27.8L73.96-27.8L73.96-40.648Z"/>
   <path class="multicolor-3:custom SFSymbolsPreview4183F0" d="M28.99-10.67C16.04-10.67 5.44-21.27 5.44-34.226C5.44-47.181 16.04-57.781 28.99-57.781C41.95-57.781 52.55-47.181 52.55-34.226C52.55-21.27 41.95-10.67 28.99-10.67ZM28.99-44.933C23.11-44.933 18.29-40.115 18.29-34.226C18.29-28.337 23.11-23.519 28.99-23.519C34.88-23.519 39.7-28.337 39.7-34.226C39.7-40.115 34.88-44.933 28.99-44.933Z"/>
   <path class="multicolor-4:custom SFSymbolsPreviewEA4335" d="M51.69-40.648L37.56-40.648C38.84-38.828 39.7-36.687 39.7-34.224C39.7-31.762 38.84-29.62 37.56-27.8L51.69-27.8C52.23-29.834 52.55-31.976 52.55-34.224C52.55-36.473 52.23-38.614 51.69-40.648Z"/>
  </g>
  <g id="Light-S" transform="matrix(1 0 0 1 1100.24 696)">
   <path class="multicolor-0:custom SFSymbolsPreview34A853" d="M91.1-27.801L82.53-27.801L73.96-27.801L73.96-14.952L82.53-14.952L82.53-19.235C82.53-21.591 84.46-23.518 86.81-23.518C89.17-23.518 91.1-21.591 91.1-19.235L91.1-14.952L99.66-14.952L99.66-27.801L91.1-27.801Z"/>
   <path class="multicolor-1:custom SFSymbolsPreview188038" d="M99.66-40.648L73.96-40.648L73.96-27.8L99.66-27.8L99.66-40.648Z"/>
   <path class="multicolor-2:custom SFSymbolsPreviewFBBC04" d="M73.96-40.648L51.69-40.648C52.23-38.614 52.55-36.473 52.55-34.224C52.55-31.976 52.23-29.834 51.69-27.8L73.96-27.8L73.96-40.648Z"/>
   <path class="multicolor-3:custom SFSymbolsPreview4183F0" d="M28.99-10.67C16.04-10.67 5.44-21.27 5.44-34.226C5.44-47.181 16.04-57.781 28.99-57.781C41.95-57.781 52.55-47.181 52.55-34.226C52.55-21.27 41.95-10.67 28.99-10.67ZM28.99-44.933C23.11-44.933 18.29-40.115 18.29-34.226C18.29-28.337 23.11-23.519 28.99-23.519C34.88-23.519 39.7-28.337 39.7-34.226C39.7-40.115 34.88-44.933 28.99-44.933Z"/>
   <path class="multicolor-4:custom SFSymbolsPreviewEA4335" d="M51.69-40.648L37.56-40.648C38.84-38.828 39.7-36.687 39.7-34.224C39.7-31.762 38.84-29.62 37.56-27.8L51.69-27.8C52.23-29.834 52.55-31.976 52.55-34.224C52.55-36.473 52.23-38.614 51.69-40.648Z"/>
  </g>
  <g id="Thin-S" transform="matrix(1 0 0 1 803.531 696)">
   <path class="multicolor-0:custom SFSymbolsPreview34A853" d="M91.097-27.805L82.531-27.805L73.965-27.805L73.965-14.956L82.531-14.956L82.531-19.239C82.531-21.595 84.458-23.522 86.814-23.522C89.169-23.522 91.097-21.595 91.097-19.239L91.097-14.956L99.662-14.956L99.662-27.805L91.097-27.805Z"/>
   <path class="multicolor-1:custom SFSymbolsPreview188038" d="M99.662-40.652L73.965-40.652L73.965-27.804L99.662-27.804L99.662-40.652Z"/>
   <path class="multicolor-2:custom SFSymbolsPreviewFBBC04" d="M73.965-40.652L51.694-40.652C52.23-38.618 52.551-36.477 52.551-34.228C52.551-31.98 52.23-29.838 51.694-27.804L73.965-27.804L73.965-40.652Z"/>
   <path class="multicolor-3:custom SFSymbolsPreview4183F0" d="M28.996-10.674C16.04-10.674 5.44-21.274 5.44-34.23C5.44-47.185 16.04-57.785 28.996-57.785C41.951-57.785 52.551-47.185 52.551-34.23C52.551-21.274 41.951-10.674 28.996-10.674ZM28.996-44.937C23.107-44.937 18.288-40.119 18.288-34.23C18.288-28.341 23.107-23.523 28.996-23.523C34.884-23.523 39.703-28.341 39.703-34.23C39.703-40.119 34.884-44.937 28.996-44.937Z"/>
   <path class="multicolor-4:custom SFSymbolsPreviewEA4335" d="M51.694-40.652L37.561-40.652C38.846-38.832 39.703-36.691 39.703-34.228C39.703-31.765 38.846-29.624 37.561-27.804L51.694-27.804C52.23-29.838 52.551-31.98 52.551-34.228C52.551-36.477 52.23-38.618 51.694-40.652Z"/>
  </g>
  <g id="Ultralight-S" transform="matrix(1 0 0 1 506.82 696)">
   <path class="multicolor-0:custom SFSymbolsPreview34A853" d="M91.097-28.801L82.531-28.801L73.965-28.801L73.965-15.952L82.531-15.952L82.531-20.235C82.531-22.591 84.458-24.518 86.814-24.518C89.169-24.518 91.097-22.591 91.097-20.235L91.097-15.952L99.662-15.952L99.662-28.801L91.097-28.801Z"/>
   <path class="multicolor-1:custom SFSymbolsPreview188038" d="M99.662-41.648L73.965-41.648L73.965-28.8L99.662-28.8L99.662-41.648Z"/>
   <path class="multicolor-2:custom SFSymbolsPreviewFBBC04" d="M73.965-41.648L51.694-41.648C52.23-39.614 52.551-37.473 52.551-35.224C52.551-32.976 52.23-30.834 51.694-28.8L73.965-28.8L73.965-41.648Z"/>
   <path class="multicolor-3:custom SFSymbolsPreview4183F0" d="M28.995-11.67C16.04-11.67 5.44-22.27 5.44-35.226C5.44-48.181 16.04-58.781 28.995-58.781C41.951-58.781 52.551-48.181 52.551-35.226C52.551-22.27 41.951-11.67 28.995-11.67ZM28.995-45.933C23.106-45.933 18.288-41.115 18.288-35.226C18.288-29.337 23.106-24.519 28.995-24.519C34.884-24.519 39.702-29.337 39.702-35.226C39.702-41.115 34.884-45.933 28.995-45.933Z"/>
   <path class="multicolor-4:custom SFSymbolsPreviewEA4335" d="M51.694-41.648L37.561-41.648C38.846-39.828 39.702-37.687 39.702-35.224C39.702-32.762 38.846-30.62 37.561-28.8L51.694-28.8C52.23-30.834 52.551-32.976 52.551-35.224C52.551-37.473 52.23-39.614 51.694-41.648Z"/>
  </g>
 </g>
</svg>
