<svg width="15" height="14" viewBox="0 0 15 14" fill="none" xmlns="http://www.w3.org/2000/svg"><path d="M7.5 14c-1.944 0-3.597-.68-4.958-2.042C1.18 10.598.5 8.944.5 7c0-1.944.68-3.597 2.042-4.958C3.902.68 5.556 0 7.5 0a7.184 7.184 0 0 1 1.063.083 4.479 4.479 0 0 0-1.292 1.5A4.003 4.003 0 0 0 6.79 3.5c0 1.18.403 2.18 1.209 3 .82.806 1.82 1.208 3 1.208.68 0 1.32-.16 1.917-.479a4.48 4.48 0 0 0 1.5-1.292A7.231 7.231 0 0 1 14.5 7c0 1.944-.68 3.597-2.042 4.958C11.098 13.32 9.444 14 7.5 14Zm0-1.5a5.282 5.282 0 0 0 3.104-.98 5.693 5.693 0 0 0 2.042-2.562c-.278.07-.556.132-.834.188a5.202 5.202 0 0 1-.812.062c-1.583 0-2.93-.555-4.042-1.666C5.848 6.43 5.292 5.083 5.292 3.5c0-.278.02-.549.062-.813.056-.277.118-.555.188-.833a5.694 5.694 0 0 0-2.563 2.042A5.282 5.282 0 0 0 2 7c0 1.528.535 2.826 1.604 3.896C4.674 11.966 5.972 12.5 7.5 12.5Z" fill="#474747"/></svg>