<svg width="19" height="18" viewBox="0 0 19 18" fill="none" xmlns="http://www.w3.org/2000/svg"><path d="M9.5 11.5c.694 0 1.285-.243 1.77-.73A2.41 2.41 0 0 0 12 9c0-.694-.243-1.285-.73-1.77A2.41 2.41 0 0 0 9.5 6.5a2.41 2.41 0 0 0-1.77.73A2.41 2.41 0 0 0 7 9c0 .694.243 1.285.73 1.77.485.487 1.076.73 1.77.73Zm0 1.5c-1.111 0-2.056-.389-2.833-1.167C5.889 11.056 5.5 10.111 5.5 9c0-1.111.389-2.056 1.167-2.833C7.444 5.389 8.389 5 9.5 5c1.111 0 2.056.389 2.833 1.167C13.111 6.944 13.5 7.889 13.5 9c0 1.111-.389 2.056-1.167 2.833C11.556 12.611 10.611 13 9.5 13ZM1.25 9.75a.779.779 0 0 1-.542-.208A.779.779 0 0 1 .5 9c0-.208.07-.382.208-.52a.74.74 0 0 1 .542-.23h2c.208 0 .382.076.52.23.154.138.23.312.23.52a.74.74 0 0 1-.23.542.707.707 0 0 1-.52.208h-2Zm14.5 0a.779.779 0 0 1-.542-.208A.779.779 0 0 1 15 9c0-.208.07-.382.208-.52a.74.74 0 0 1 .542-.23h2c.208 0 .382.076.52.23.154.138.23.312.23.52a.74.74 0 0 1-.23.542.707.707 0 0 1-.52.208h-2ZM9.5 3.5a.779.779 0 0 1-.542-.208.779.779 0 0 1-.208-.542v-2c0-.208.07-.382.208-.52A.74.74 0 0 1 9.5 0c.208 0 .382.076.52.23.154.138.23.312.23.52v2a.74.74 0 0 1-.23.542.707.707 0 0 1-.52.208Zm0 14.5a.779.779 0 0 1-.542-.208.779.779 0 0 1-.208-.542v-2c0-.208.07-.382.208-.52a.74.74 0 0 1 .542-.23c.208 0 .382.076.52.23.154.138.23.312.23.52v2a.74.74 0 0 1-.23.542.706.706 0 0 1-.52.208ZM4.542 5.104 3.5 4.042a.653.653 0 0 1-.23-.5A.74.74 0 0 1 3.5 3a.675.675 0 0 1 .52-.23c.21 0 .383.077.522.23l1.062 1.042a.74.74 0 0 1 .23.541.718.718 0 0 1-.23.521.675.675 0 0 1-.52.23.74.74 0 0 1-.542-.23ZM14.458 15l-1.062-1.042a.718.718 0 0 1-.23-.52c0-.209.077-.39.23-.542a.675.675 0 0 1 .52-.23.74.74 0 0 1 .542.23l1.042 1.062c.153.14.23.313.23.521a.718.718 0 0 1-.23.521.718.718 0 0 1-.52.23.718.718 0 0 1-.522-.23Zm-1.062-9.896a.675.675 0 0 1-.23-.52.74.74 0 0 1 .23-.542L14.458 3a.648.648 0 0 1 .521-.208c.195 0 .368.07.521.208.153.153.23.326.23.52a.718.718 0 0 1-.23.522l-1.042 1.062a.74.74 0 0 1-.541.23.718.718 0 0 1-.521-.23ZM3.5 15a.675.675 0 0 1-.23-.52c0-.21.077-.383.23-.522l1.042-1.062a.753.753 0 0 1 .52-.209c.209 0 .39.07.542.209a.673.673 0 0 1 .208.541.75.75 0 0 1-.208.521L4.542 15a.675.675 0 0 1-.521.23A.718.718 0 0 1 3.5 15Z" fill="#474747"/></svg>