<svg width="18" height="14" viewBox="0 0 18 14" fill="none" xmlns="http://www.w3.org/2000/svg"><path d="M.75 14a.779.779 0 0 1-.542-.208A.779.779 0 0 1 0 13.25c0-.208.07-.382.208-.52a.74.74 0 0 1 .542-.23h16.5c.208 0 .382.076.52.23.154.138.23.312.23.52a.74.74 0 0 1-.23.542.707.707 0 0 1-.52.208H.75Zm1.75-2.5c-.417 0-.77-.146-1.063-.438A1.447 1.447 0 0 1 1 10V1.5c0-.417.146-.77.438-1.063A1.447 1.447 0 0 1 2.5 0h13c.417 0 .77.146 1.063.437.291.292.437.646.437 1.063V10c0 .417-.146.77-.438 1.063a1.446 1.446 0 0 1-1.062.437h-13Zm0-1.5h13V1.5h-13V10Zm0 0V1.5 10Z" fill="#474747"/></svg>