<?xml version="1.0" encoding="UTF-8"?>
<!--Generator: Apple Native CoreSVG 175.5-->
<!DOCTYPE svg
PUBLIC "-//W3C//DTD SVG 1.1//EN"
       "http://www.w3.org/Graphics/SVG/1.1/DTD/svg11.dtd">
<svg version="1.1" xmlns="http://www.w3.org/2000/svg" xmlns:xlink="http://www.w3.org/1999/xlink" width="3300" height="2200">
 <!--glyph: "", point size: 100.0, font version: "18.0d12e2", template writer version: "101"-->
 <style>.monochrome-0 {fill:#000000}
.monochrome-1 {fill:#000000}
.monochrome-2 {fill:#000000}
.monochrome-3 {fill:#000000}
.monochrome-4 {fill:#000000;-sfsymbols-clear-behind:true;-sfsymbols-variable-threshold:0.0}

.multicolor-0:custom {fill:#34A853}
.multicolor-1:custom {fill:#188038}
.multicolor-2:custom {fill:#FBBC04}
.multicolor-3:custom {fill:#4183F0}
.multicolor-4:custom {fill:#EA4335;-sfsymbols-clear-behind:true;-sfsymbols-variable-threshold:0.0}

.SFSymbolsPreview188038 {fill:#188038;opacity:1.0}
.SFSymbolsPreview34A853 {fill:#34A853;opacity:1.0}
.SFSymbolsPreview4183F0 {fill:#4183F0;opacity:1.0}
.SFSymbolsPreviewEA4335 {fill:#EA4335;opacity:1.0}
.SFSymbolsPreviewFBBC04 {fill:#FBBC04;opacity:1.0}
</style>
 <g id="Notes">
  <rect height="2200" id="artboard" style="fill:white;opacity:1" width="3300" x="0" y="0"/>
  <line style="fill:none;stroke:black;opacity:1;stroke-width:0.5;" x1="263" x2="3036" y1="292" y2="292"/>
  <text style="stroke:none;fill:black;font-family:sans-serif;font-size:13;font-weight:bold;" transform="matrix(1 0 0 1 263 322)">Weight/Scale Variations</text>
  <text style="stroke:none;fill:black;font-family:sans-serif;font-size:13;text-anchor:middle;" transform="matrix(1 0 0 1 559.711 322)">Ultralight</text>
  <text style="stroke:none;fill:black;font-family:sans-serif;font-size:13;text-anchor:middle;" transform="matrix(1 0 0 1 856.422 322)">Thin</text>
  <text style="stroke:none;fill:black;font-family:sans-serif;font-size:13;text-anchor:middle;" transform="matrix(1 0 0 1 1153.13 322)">Light</text>
  <text style="stroke:none;fill:black;font-family:sans-serif;font-size:13;text-anchor:middle;" transform="matrix(1 0 0 1 1449.84 322)">Regular</text>
  <text style="stroke:none;fill:black;font-family:sans-serif;font-size:13;text-anchor:middle;" transform="matrix(1 0 0 1 1746.56 322)">Medium</text>
  <text style="stroke:none;fill:black;font-family:sans-serif;font-size:13;text-anchor:middle;" transform="matrix(1 0 0 1 2043.27 322)">Semibold</text>
  <text style="stroke:none;fill:black;font-family:sans-serif;font-size:13;text-anchor:middle;" transform="matrix(1 0 0 1 2339.98 322)">Bold</text>
  <text style="stroke:none;fill:black;font-family:sans-serif;font-size:13;text-anchor:middle;" transform="matrix(1 0 0 1 2636.69 322)">Heavy</text>
  <text style="stroke:none;fill:black;font-family:sans-serif;font-size:13;text-anchor:middle;" transform="matrix(1 0 0 1 2933.4 322)">Black</text>
  <line style="fill:none;stroke:black;opacity:1;stroke-width:0.5;" x1="263" x2="3036" y1="1903" y2="1903"/>
  <g transform="matrix(1 0 0 1 263 1933)">
   <path d="M9.24805 0.830078C13.5547 0.830078 17.1387-2.74414 17.1387-7.05078C17.1387-11.3574 13.5449-14.9316 9.23828-14.9316C4.94141-14.9316 1.36719-11.3574 1.36719-7.05078C1.36719-2.74414 4.95117 0.830078 9.24805 0.830078ZM9.24805-0.654297C5.70312-0.654297 2.87109-3.49609 2.87109-7.05078C2.87109-10.6055 5.69336-13.4473 9.23828-13.4473C12.793-13.4473 15.6445-10.6055 15.6445-7.05078C15.6445-3.49609 12.8027-0.654297 9.24805-0.654297ZM5.6543-7.05078C5.6543-6.62109 5.95703-6.32812 6.40625-6.32812L8.50586-6.32812L8.50586-4.20898C8.50586-3.76953 8.79883-3.4668 9.22852-3.4668C9.67773-3.4668 9.9707-3.76953 9.9707-4.20898L9.9707-6.32812L12.0898-6.32812C12.5293-6.32812 12.832-6.62109 12.832-7.05078C12.832-7.49023 12.5293-7.79297 12.0898-7.79297L9.9707-7.79297L9.9707-9.90234C9.9707-10.3516 9.67773-10.6543 9.22852-10.6543C8.79883-10.6543 8.50586-10.3516 8.50586-9.90234L8.50586-7.79297L6.40625-7.79297C5.95703-7.79297 5.6543-7.49023 5.6543-7.05078Z"/>
  </g>
  <g transform="matrix(1 0 0 1 281.867 1933)">
   <path d="M11.709 2.91016C17.1582 2.91016 21.6699-1.61133 21.6699-7.05078C21.6699-12.5 17.1484-17.0117 11.6992-17.0117C6.25977-17.0117 1.74805-12.5 1.74805-7.05078C1.74805-1.61133 6.26953 2.91016 11.709 2.91016ZM11.709 1.25C7.09961 1.25 3.41797-2.44141 3.41797-7.05078C3.41797-11.6602 7.08984-15.3516 11.6992-15.3516C16.3086-15.3516 20.0098-11.6602 20.0098-7.05078C20.0098-2.44141 16.3184 1.25 11.709 1.25ZM7.17773-7.05078C7.17773-6.57227 7.50977-6.25 8.00781-6.25L10.8789-6.25L10.8789-3.36914C10.8789-2.88086 11.2109-2.53906 11.6895-2.53906C12.1777-2.53906 12.5195-2.87109 12.5195-3.36914L12.5195-6.25L15.4004-6.25C15.8887-6.25 16.2305-6.57227 16.2305-7.05078C16.2305-7.53906 15.8887-7.88086 15.4004-7.88086L12.5195-7.88086L12.5195-10.752C12.5195-11.25 12.1777-11.5918 11.6895-11.5918C11.2109-11.5918 10.8789-11.25 10.8789-10.752L10.8789-7.88086L8.00781-7.88086C7.50977-7.88086 7.17773-7.53906 7.17773-7.05078Z"/>
  </g>
  <g transform="matrix(1 0 0 1 305.646 1933)">
   <path d="M14.9707 5.66406C21.9336 5.66406 27.6953-0.0976562 27.6953-7.05078C27.6953-14.0137 21.9238-19.7754 14.9609-19.7754C8.00781-19.7754 2.25586-14.0137 2.25586-7.05078C2.25586-0.0976562 8.01758 5.66406 14.9707 5.66406ZM14.9707 3.84766C8.93555 3.84766 4.08203-1.01562 4.08203-7.05078C4.08203-13.0957 8.92578-17.9492 14.9609-17.9492C21.0059-17.9492 25.8691-13.0957 25.8691-7.05078C25.8691-1.01562 21.0156 3.84766 14.9707 3.84766ZM9.19922-7.05078C9.19922-6.5332 9.57031-6.17188 10.1172-6.17188L14.0625-6.17188L14.0625-2.2168C14.0625-1.67969 14.4336-1.29883 14.9512-1.29883C15.4883-1.29883 15.8594-1.66992 15.8594-2.2168L15.8594-6.17188L19.8145-6.17188C20.3516-6.17188 20.7324-6.5332 20.7324-7.05078C20.7324-7.59766 20.3613-7.96875 19.8145-7.96875L15.8594-7.96875L15.8594-11.9141C15.8594-12.4609 15.4883-12.8418 14.9512-12.8418C14.4336-12.8418 14.0625-12.4609 14.0625-11.9141L14.0625-7.96875L10.1172-7.96875C9.57031-7.96875 9.19922-7.59766 9.19922-7.05078Z"/>
  </g>
  <text style="stroke:none;fill:black;font-family:sans-serif;font-size:13;font-weight:bold;" transform="matrix(1 0 0 1 263 1953)">Design Variations</text>
  <text style="stroke:none;fill:black;font-family:sans-serif;font-size:13;" transform="matrix(1 0 0 1 263 1971)">Symbols are supported in up to nine weights and three scales.</text>
  <text style="stroke:none;fill:black;font-family:sans-serif;font-size:13;" transform="matrix(1 0 0 1 263 1989)">For optimal layout with text and other symbols, vertically align</text>
  <text style="stroke:none;fill:black;font-family:sans-serif;font-size:13;" transform="matrix(1 0 0 1 263 2007)">symbols with the adjacent text.</text>
  <line style="fill:none;stroke:#00AEEF;stroke-width:0.5;opacity:1.0;" x1="776" x2="776" y1="1919" y2="1933"/>
  <g transform="matrix(1 0 0 1 776 1933)">
   <path d="M3.31055 0.15625C3.82812 0.15625 4.08203-0.0390625 4.26758-0.585938L5.52734-4.0332L11.2891-4.0332L12.5488-0.585938C12.7344-0.0390625 12.9883 0.15625 13.4961 0.15625C14.0137 0.15625 14.3457-0.15625 14.3457-0.644531C14.3457-0.810547 14.3164-0.966797 14.2383-1.17188L9.6582-13.3691C9.43359-13.9648 9.0332-14.2676 8.4082-14.2676C7.80273-14.2676 7.39258-13.9746 7.17773-13.3789L2.59766-1.16211C2.51953-0.957031 2.49023-0.800781 2.49023-0.634766C2.49023-0.146484 2.80273 0.15625 3.31055 0.15625ZM6.00586-5.51758L8.37891-12.0898L8.42773-12.0898L10.8008-5.51758Z"/>
  </g>
  <line style="fill:none;stroke:#00AEEF;stroke-width:0.5;opacity:1.0;" x1="793.197" x2="793.197" y1="1919" y2="1933"/>
  <text style="stroke:none;fill:black;font-family:sans-serif;font-size:13;font-weight:bold;" transform="matrix(1 0 0 1 776 1953)">Margins</text>
  <text style="stroke:none;fill:black;font-family:sans-serif;font-size:13;" transform="matrix(1 0 0 1 776 1971)">Leading and trailing margins on the left and right side of each symbol</text>
  <text style="stroke:none;fill:black;font-family:sans-serif;font-size:13;" transform="matrix(1 0 0 1 776 1989)">can be adjusted by modifying the x-location of the margin guidelines.</text>
  <text style="stroke:none;fill:black;font-family:sans-serif;font-size:13;" transform="matrix(1 0 0 1 776 2007)">Modifications are automatically applied proportionally to all</text>
  <text style="stroke:none;fill:black;font-family:sans-serif;font-size:13;" transform="matrix(1 0 0 1 776 2025)">scales and weights.</text>
  <g transform="matrix(1 0 0 1 1289 1933)">
   <path d="M2.8418 1.86523L4.54102 3.57422C5.40039 4.44336 6.38672 4.38477 7.31445 3.35938L18.0078-8.42773L17.041-9.4043L6.42578 2.27539C6.07422 2.67578 5.74219 2.77344 5.27344 2.30469L4.10156 1.14258C3.63281 0.683594 3.74023 0.341797 4.14062-0.0195312L15.6152-10.8203L14.6387-11.7871L3.04688-0.898438C2.06055 0.0195312 1.98242 0.996094 2.8418 1.86523ZM9.25781-16.3281C8.83789-15.918 8.80859-15.3418 9.04297-14.9512C9.27734-14.5898 9.73633-14.3555 10.3809-14.5215C11.8457-14.8633 13.3691-14.9219 14.7949-13.9844L14.209-12.5293C13.8672-11.6992 14.043-11.1133 14.5801-10.5664L16.875-8.25195C17.3633-7.76367 17.7734-7.74414 18.3398-7.8418L19.4043-8.03711L20.0684-7.36328L20.0293-6.80664C19.9902-6.30859 20.1172-5.92773 20.6055-5.44922L21.3672-4.70703C21.8457-4.22852 22.4609-4.19922 22.9297-4.66797L25.8398-7.58789C26.3086-8.05664 26.2891-8.65234 25.8105-9.13086L25.0391-9.89258C24.5605-10.3711 24.1895-10.5273 23.7109-10.4883L23.1348-10.4395L22.4902-11.0742L22.7344-12.1973C22.8613-12.7637 22.7051-13.2031 22.1191-13.7891L19.9219-15.9766C16.582-19.2969 12.1484-19.2188 9.25781-16.3281ZM10.752-15.957C13.1836-17.7344 16.4746-17.4316 18.7012-15.2051L21.1328-12.793C21.3672-12.5586 21.4062-12.373 21.3379-12.0312L21.0156-10.5469L22.5195-9.0625L23.5059-9.12109C23.7598-9.13086 23.8379-9.11133 24.0332-8.91602L24.6094-8.33984L22.168-5.89844L21.5918-6.47461C21.3965-6.66992 21.3672-6.74805 21.377-7.01172L21.4453-7.98828L19.9512-9.47266L18.4277-9.21875C18.1055-9.15039 17.959-9.17969 17.7148-9.41406L15.7129-11.416C15.459-11.6504 15.4297-11.8164 15.5859-12.1875L16.4648-14.2773C14.9023-15.7324 12.8711-16.3574 10.8398-15.7617C10.6836-15.7227 10.625-15.8496 10.752-15.957Z"/>
  </g>
  <text style="stroke:none;fill:black;font-family:sans-serif;font-size:13;font-weight:bold;" transform="matrix(1 0 0 1 1289 1953)">Exporting</text>
  <text style="stroke:none;fill:black;font-family:sans-serif;font-size:13;" transform="matrix(1 0 0 1 1289 1971)">Symbols should be outlined when exporting to ensure the</text>
  <text style="stroke:none;fill:black;font-family:sans-serif;font-size:13;" transform="matrix(1 0 0 1 1289 1989)">design is preserved when submitting to Xcode.</text>
  <text id="template-version" style="stroke:none;fill:black;font-family:sans-serif;font-size:13;text-anchor:end;" transform="matrix(1 0 0 1 3036 1933)">Template v.4.0</text>
  <text style="stroke:none;fill:black;font-family:sans-serif;font-size:13;text-anchor:end;" transform="matrix(1 0 0 1 3036 1951)">Requires Xcode 14 or greater</text>
  <text id="descriptive-name" style="stroke:none;fill:black;font-family:sans-serif;font-size:13;text-anchor:end;" transform="matrix(1 0 0 1 3036 1969)">Generated from key.cr</text>
  <text style="stroke:none;fill:black;font-family:sans-serif;font-size:13;text-anchor:end;" transform="matrix(1 0 0 1 3036 1987)">Typeset at 100 points</text>
  <text style="stroke:none;fill:black;font-family:sans-serif;font-size:13;" transform="matrix(1 0 0 1 263 726)">Small</text>
  <text style="stroke:none;fill:black;font-family:sans-serif;font-size:13;" transform="matrix(1 0 0 1 263 1156)">Medium</text>
  <text style="stroke:none;fill:black;font-family:sans-serif;font-size:13;" transform="matrix(1 0 0 1 263 1586)">Large</text>
 </g>
 <g id="Guides">
  <g id="H-reference" style="fill:#27AAE1;stroke:none;" transform="matrix(1 0 0 1 339 696)">
   <path d="M0.993654 0L3.63775 0L29.3281-67.1323L30.0303-67.1323L30.0303-70.459L28.1226-70.459ZM11.6885-24.4799L46.9815-24.4799L46.2315-26.7285L12.4385-26.7285ZM55.1196 0L57.7637 0L30.6382-70.459L29.4326-70.459L29.4326-67.1323Z"/>
  </g>
  <line id="Baseline-S" style="fill:none;stroke:#27AAE1;opacity:1;stroke-width:0.5;" x1="263" x2="3036" y1="696" y2="696"/>
  <line id="Capline-S" style="fill:none;stroke:#27AAE1;opacity:1;stroke-width:0.5;" x1="263" x2="3036" y1="625.541" y2="625.541"/>
  <g id="H-reference" style="fill:#27AAE1;stroke:none;" transform="matrix(1 0 0 1 339 1126)">
   <path d="M0.993654 0L3.63775 0L29.3281-67.1323L30.0303-67.1323L30.0303-70.459L28.1226-70.459ZM11.6885-24.4799L46.9815-24.4799L46.2315-26.7285L12.4385-26.7285ZM55.1196 0L57.7637 0L30.6382-70.459L29.4326-70.459L29.4326-67.1323Z"/>
  </g>
  <line id="Baseline-M" style="fill:none;stroke:#27AAE1;opacity:1;stroke-width:0.5;" x1="263" x2="3036" y1="1126" y2="1126"/>
  <line id="Capline-M" style="fill:none;stroke:#27AAE1;opacity:1;stroke-width:0.5;" x1="263" x2="3036" y1="1055.54" y2="1055.54"/>
  <g id="H-reference" style="fill:#27AAE1;stroke:none;" transform="matrix(1 0 0 1 339 1556)">
   <path d="M0.993654 0L3.63775 0L29.3281-67.1323L30.0303-67.1323L30.0303-70.459L28.1226-70.459ZM11.6885-24.4799L46.9815-24.4799L46.2315-26.7285L12.4385-26.7285ZM55.1196 0L57.7637 0L30.6382-70.459L29.4326-70.459L29.4326-67.1323Z"/>
  </g>
  <line id="Baseline-L" style="fill:none;stroke:#27AAE1;opacity:1;stroke-width:0.5;" x1="263" x2="3036" y1="1556" y2="1556"/>
  <line id="Capline-L" style="fill:none;stroke:#27AAE1;opacity:1;stroke-width:0.5;" x1="263" x2="3036" y1="1485.54" y2="1485.54"/>
  <line id="left-margin-Regular-M" style="fill:none;stroke:#00AEEF;stroke-width:0.5;opacity:1.0;" x1="1381.27" x2="1381.27" y1="1030.79" y2="1150.12"/>
  <line id="right-margin-Regular-M" style="fill:none;stroke:#00AEEF;stroke-width:0.5;opacity:1.0;" x1="1518.41" x2="1518.41" y1="1030.79" y2="1150.12"/>
 </g>
 <g id="Symbols">
  <g id="Black-L" transform="matrix(1 0 0 1 2857.14 1556)">
   <path class="monochrome-0 multicolor-0:custom SFSymbolsPreview34A853" d="M133.58-25.64L120.77-25.64L107.95-25.64L107.95-6.41L120.77-6.41L120.77-12.82C120.77-16.35 123.65-19.23 127.17-19.23C130.7-19.23 133.58-16.35 133.58-12.82L133.58-6.41L146.4-6.41L146.4-25.64L133.58-25.64Z"/>
   <path class="monochrome-1 multicolor-1:custom SFSymbolsPreview188038" d="M146.4-44.86L107.95-44.86L107.95-25.64L146.4-25.64L146.4-44.86Z"/>
   <path class="monochrome-2 multicolor-2:custom SFSymbolsPreviewFBBC04" d="M107.95-44.86L74.63-44.86C75.44-41.82 75.92-38.61 75.92-35.25C75.92-31.88 75.44-28.68 74.63-25.64L107.95-25.64L107.95-44.86Z"/>
   <path class="monochrome-3 multicolor-3:custom SFSymbolsPreview4183F0" d="M40.68 0C21.29 0 5.44-15.86 5.44-35.24C5.44-54.63 21.29-70.48 40.68-70.48C60.06-70.48 75.92-54.63 75.92-35.24C75.92-15.86 60.06 0 40.68 0ZM40.68-51.26C31.87-51.26 24.66-44.05 24.66-35.24C24.66-26.43 31.87-19.23 40.68-19.23C49.49-19.23 56.69-26.43 56.69-35.24C56.69-44.05 49.49-51.26 40.68-51.26Z"/>
   <path class="monochrome-4 multicolor-4:custom SFSymbolsPreviewEA4335" d="M74.63-44.86L53.49-44.86C55.41-42.14 56.69-38.93 56.69-35.25C56.69-31.56 55.41-28.36 53.49-25.64L74.63-25.64C75.44-28.68 75.92-31.88 75.92-35.25C75.92-38.61 75.44-41.82 74.63-44.86Z"/>
  </g>
  <g id="Heavy-L" transform="matrix(1 0 0 1 2560.43 1556)">
   <path class="monochrome-0 multicolor-0:custom SFSymbolsPreview34A853" d="M133.59-25.63L120.78-25.63L107.96-25.63L107.96-6.41L120.78-6.41L120.78-12.82C120.78-16.34 123.66-19.23 127.18-19.23C130.71-19.23 133.59-16.34 133.59-12.82L133.59-6.41L146.4-6.41L146.4-25.63L133.59-25.63Z"/>
   <path class="monochrome-1 multicolor-1:custom SFSymbolsPreview188038" d="M146.4-44.86L107.96-44.86L107.96-25.63L146.4-25.63L146.4-44.86Z"/>
   <path class="monochrome-2 multicolor-2:custom SFSymbolsPreviewFBBC04" d="M107.96-44.86L74.64-44.86C75.44-41.81 75.92-38.61 75.92-35.24C75.92-31.88 75.44-28.68 74.64-25.63L107.96-25.63L107.96-44.86Z"/>
   <path class="monochrome-3 multicolor-3:custom SFSymbolsPreview4183F0" d="M40.68 0C21.3 0 5.44-15.86 5.44-35.24C5.44-54.62 21.3-70.48 40.68-70.48C60.07-70.48 75.92-54.62 75.92-35.24C75.92-15.86 60.07 0 40.68 0ZM40.68-51.26C31.87-51.26 24.67-44.05 24.67-35.24C24.67-26.43 31.87-19.22 40.68-19.22C49.49-19.22 56.7-26.43 56.7-35.24C56.7-44.05 49.49-51.26 40.68-51.26Z"/>
   <path class="monochrome-4 multicolor-4:custom SFSymbolsPreviewEA4335" d="M74.64-44.86L53.5-44.86C55.42-42.13 56.7-38.93 56.7-35.24C56.7-31.56 55.42-28.36 53.5-25.63L74.64-25.63C75.44-28.68 75.92-31.88 75.92-35.24C75.92-38.61 75.44-41.81 74.64-44.86Z"/>
  </g>
  <g id="Bold-L" transform="matrix(1 0 0 1 2263.72 1556)">
   <path class="monochrome-0 multicolor-0:custom SFSymbolsPreview34A853" d="M133.59-25.63L120.77-25.63L107.96-25.63L107.96-6.41L120.77-6.41L120.77-12.81C120.77-16.34 123.66-19.22 127.18-19.22C130.7-19.22 133.59-16.34 133.59-12.81L133.59-6.41L146.4-6.41L146.4-25.63L133.59-25.63Z"/>
   <path class="monochrome-1 multicolor-1:custom SFSymbolsPreview188038" d="M146.4-44.85L107.96-44.85L107.96-25.63L146.4-25.63L146.4-44.85Z"/>
   <path class="monochrome-2 multicolor-2:custom SFSymbolsPreviewFBBC04" d="M107.96-44.85L74.64-44.85C75.44-41.81 75.92-38.6 75.92-35.24C75.92-31.88 75.44-28.67 74.64-25.63L107.96-25.63L107.96-44.85Z"/>
   <path class="monochrome-3 multicolor-3:custom SFSymbolsPreview4183F0" d="M40.68 0C21.3 0 5.44-15.85 5.44-35.24C5.44-54.62 21.3-70.48 40.68-70.48C60.06-70.48 75.92-54.62 75.92-35.24C75.92-15.85 60.06 0 40.68 0ZM40.68-51.25C31.87-51.25 24.66-44.05 24.66-35.24C24.66-26.43 31.87-19.22 40.68-19.22C49.49-19.22 56.7-26.43 56.7-35.24C56.7-44.05 49.49-51.25 40.68-51.25Z"/>
   <path class="monochrome-4 multicolor-4:custom SFSymbolsPreviewEA4335" d="M74.64-44.85L53.5-44.85C55.42-42.13 56.7-38.92 56.7-35.24C56.7-31.56 55.42-28.35 53.5-25.63L74.64-25.63C75.44-28.67 75.92-31.88 75.92-35.24C75.92-38.6 75.44-41.81 74.64-44.85Z"/>
  </g>
  <g id="Semibold-L" transform="matrix(1 0 0 1 1967 1556)">
   <path class="monochrome-0 multicolor-0:custom SFSymbolsPreview34A853" d="M133.59-25.09L120.78-25.09L107.96-25.09L107.96-5.86L120.78-5.86L120.78-12.27C120.78-15.8 123.66-18.68 127.18-18.68C130.71-18.68 133.59-15.8 133.59-12.27L133.59-5.86L146.41-5.86L146.41-25.09L133.59-25.09Z"/>
   <path class="monochrome-1 multicolor-1:custom SFSymbolsPreview188038" d="M146.41-44.31L107.96-44.31L107.96-25.09L146.41-25.09L146.41-44.31Z"/>
   <path class="monochrome-2 multicolor-2:custom SFSymbolsPreviewFBBC04" d="M107.96-44.31L74.64-44.31C75.44-41.27 75.93-38.06 75.93-34.7C75.93-31.33 75.44-28.13 74.64-25.09L107.96-25.09L107.96-44.31Z"/>
   <path class="monochrome-3 multicolor-3:custom SFSymbolsPreview4183F0" d="M40.68 0.55C21.3 0.55 5.44-15.31 5.44-34.69C5.44-54.08 21.3-69.93 40.68-69.93C60.07-69.93 75.92-54.08 75.92-34.69C75.92-15.31 60.07 0.55 40.68 0.55ZM40.68-50.71C31.87-50.71 24.67-43.5 24.67-34.69C24.67-25.88 31.87-18.68 40.68-18.68C49.49-18.68 56.7-25.88 56.7-34.69C56.7-43.5 49.49-50.71 40.68-50.71Z"/>
   <path class="monochrome-4 multicolor-4:custom SFSymbolsPreviewEA4335" d="M74.64-44.31L53.5-44.31C55.42-41.59 56.7-38.38 56.7-34.7C56.7-31.01 55.42-27.81 53.5-25.09L74.64-25.09C75.44-28.13 75.92-31.33 75.92-34.7C75.92-38.06 75.44-41.27 74.64-44.31Z"/>
  </g>
  <g id="Medium-L" transform="matrix(1 0 0 1 1670.3 1556)">
   <path class="monochrome-0 multicolor-0:custom SFSymbolsPreview34A853" d="M133.59-25.26L120.77-25.26L107.96-25.26L107.96-6.04L120.77-6.04L120.77-12.45C120.77-15.97 123.66-18.85 127.18-18.85C130.7-18.85 133.59-15.97 133.59-12.45L133.59-6.04L146.4-6.04L146.4-25.26L133.59-25.26Z"/>
   <path class="monochrome-1 multicolor-1:custom SFSymbolsPreview188038" d="M146.4-44.48L107.96-44.48L107.96-25.26L146.4-25.26L146.4-44.48Z"/>
   <path class="monochrome-2 multicolor-2:custom SFSymbolsPreviewFBBC04" d="M107.96-44.48L74.64-44.48C75.44-41.44 75.92-38.24 75.92-34.87C75.92-31.51 75.44-28.31 74.64-25.26L107.96-25.26L107.96-44.48Z"/>
   <path class="monochrome-3 multicolor-3:custom SFSymbolsPreview4183F0" d="M40.68 0.37C21.3 0.37 5.44-15.49 5.44-34.87C5.44-54.25 21.3-70.11 40.68-70.11C60.06-70.11 75.92-54.25 75.92-34.87C75.92-15.49 60.06 0.37 40.68 0.37ZM40.68-50.89C31.87-50.89 24.66-43.68 24.66-34.87C24.66-26.06 31.87-18.85 40.68-18.85C49.49-18.85 56.7-26.06 56.7-34.87C56.7-43.68 49.49-50.89 40.68-50.89Z"/>
   <path class="monochrome-4 multicolor-4:custom SFSymbolsPreviewEA4335" d="M74.64-44.48L53.5-44.48C55.42-41.76 56.7-38.56 56.7-34.87C56.7-31.19 55.42-27.99 53.5-25.26L74.64-25.26C75.44-28.31 75.92-31.51 75.92-34.87C75.92-38.24 75.44-41.44 74.64-44.48Z"/>
  </g>
  <g id="Regular-L" transform="matrix(1 0 0 1 1373.58 1556)">
   <path class="monochrome-0 multicolor-0:custom SFSymbolsPreview34A853" d="M133.58-25.61L120.77-25.61L107.95-25.61L107.95-6.39L120.77-6.39L120.77-12.8C120.77-16.32 123.65-19.21 127.18-19.21C130.7-19.21 133.58-16.32 133.58-12.8L133.58-6.39L146.4-6.39L146.4-25.61L133.58-25.61Z"/>
   <path class="monochrome-1 multicolor-1:custom SFSymbolsPreview188038" d="M146.4-44.84L107.95-44.84L107.95-25.61L146.4-25.61L146.4-44.84Z"/>
   <path class="monochrome-2 multicolor-2:custom SFSymbolsPreviewFBBC04" d="M107.95-44.84L74.64-44.84C75.44-41.79 75.92-38.59 75.92-35.23C75.92-31.86 75.44-28.66 74.64-25.61L107.95-25.61L107.95-44.84Z"/>
   <path class="monochrome-3 multicolor-3:custom SFSymbolsPreview4183F0" d="M40.68 0.02C21.29 0.02 5.44-15.84 5.44-35.22C5.44-54.6 21.29-70.46 40.68-70.46C60.06-70.46 75.92-54.6 75.92-35.22C75.92-15.84 60.06 0.02 40.68 0.02ZM40.68-51.24C31.87-51.24 24.66-44.03 24.66-35.22C24.66-26.41 31.87-19.2 40.68-19.2C49.49-19.2 56.69-26.41 56.69-35.22C56.69-44.03 49.49-51.24 40.68-51.24Z"/>
   <path class="monochrome-4 multicolor-4:custom SFSymbolsPreviewEA4335" d="M74.64-44.84L53.49-44.84C55.41-42.11 56.7-38.91 56.7-35.23C56.7-31.54 55.41-28.34 53.49-25.61L74.64-25.61C75.44-28.66 75.92-31.86 75.92-35.23C75.92-38.59 75.44-41.79 74.64-44.84Z"/>
  </g>
  <g id="Light-L" transform="matrix(1 0 0 1 1076.87 1556)">
   <path class="monochrome-0 multicolor-0:custom SFSymbolsPreview34A853" d="M133.59-25.64L120.77-25.64L107.96-25.64L107.96-6.41L120.77-6.41L120.77-12.82C120.77-16.35 123.66-19.23 127.18-19.23C130.7-19.23 133.59-16.35 133.59-12.82L133.59-6.41L146.4-6.41L146.4-25.64L133.59-25.64Z"/>
   <path class="monochrome-1 multicolor-1:custom SFSymbolsPreview188038" d="M146.4-44.86L107.96-44.86L107.96-25.64L146.4-25.64L146.4-44.86Z"/>
   <path class="monochrome-2 multicolor-2:custom SFSymbolsPreviewFBBC04" d="M107.96-44.86L74.64-44.86C75.44-41.82 75.92-38.61 75.92-35.25C75.92-31.88 75.44-28.68 74.64-25.64L107.96-25.64L107.96-44.86Z"/>
   <path class="monochrome-3 multicolor-3:custom SFSymbolsPreview4183F0" d="M40.68 0C21.3 0 5.44-15.86 5.44-35.24C5.44-54.63 21.3-70.48 40.68-70.48C60.06-70.48 75.92-54.63 75.92-35.24C75.92-15.86 60.06 0 40.68 0ZM40.68-51.26C31.87-51.26 24.66-44.05 24.66-35.24C24.66-26.43 31.87-19.23 40.68-19.23C49.49-19.23 56.7-26.43 56.7-35.24C56.7-44.05 49.49-51.26 40.68-51.26Z"/>
   <path class="monochrome-4 multicolor-4:custom SFSymbolsPreviewEA4335" d="M74.64-44.86L53.5-44.86C55.42-42.14 56.7-38.93 56.7-35.25C56.7-31.56 55.42-28.36 53.5-25.64L74.64-25.64C75.44-28.68 75.92-31.88 75.92-35.25C75.92-38.61 75.44-41.82 74.64-44.86Z"/>
  </g>
  <g id="Thin-L" transform="matrix(1 0 0 1 780.162 1556)">
   <path class="monochrome-0 multicolor-0:custom SFSymbolsPreview34A853" d="M133.586-25.63L120.771-25.63L107.957-25.63L107.957-6.41L120.771-6.41L120.771-12.81C120.771-16.34 123.655-19.22 127.179-19.22C130.703-19.22 133.586-16.34 133.586-12.81L133.586-6.41L146.4-6.41L146.4-25.63L133.586-25.63Z"/>
   <path class="monochrome-1 multicolor-1:custom SFSymbolsPreview188038" d="M146.4-44.85L107.957-44.85L107.957-25.63L146.4-25.63L146.4-44.85Z"/>
   <path class="monochrome-2 multicolor-2:custom SFSymbolsPreviewFBBC04" d="M107.957-44.85L74.639-44.85C75.44-41.81 75.92-38.6 75.92-35.24C75.92-31.88 75.44-28.67 74.639-25.63L107.957-25.63L107.957-44.85Z"/>
   <path class="monochrome-3 multicolor-3:custom SFSymbolsPreview4183F0" d="M40.68 0C21.298 0 5.44-15.85 5.44-35.24C5.44-54.62 21.298-70.48 40.68-70.48C60.062-70.48 75.92-54.62 75.92-35.24C75.92-15.85 60.062 0 40.68 0ZM40.68-51.25C31.87-51.25 24.662-44.05 24.662-35.24C24.662-26.43 31.87-19.22 40.68-19.22C49.49-19.22 56.698-26.43 56.698-35.24C56.698-44.05 49.49-51.25 40.68-51.25Z"/>
   <path class="monochrome-4 multicolor-4:custom SFSymbolsPreviewEA4335" d="M74.639-44.85L53.495-44.85C55.417-42.13 56.699-38.92 56.699-35.24C56.699-31.56 55.417-28.35 53.495-25.63L74.639-25.63C75.44-28.67 75.92-31.88 75.92-35.24C75.92-38.6 75.44-41.81 74.639-44.85Z"/>
  </g>
  <g id="Ultralight-L" transform="matrix(1 0 0 1 483.451 1556)">
   <path class="monochrome-0 multicolor-0:custom SFSymbolsPreview34A853" d="M133.586-25.61L120.771-25.61L107.957-25.61L107.957-6.39L120.771-6.39L120.771-12.8C120.771-16.32 123.655-19.21 127.179-19.21C130.703-19.21 133.586-16.32 133.586-12.8L133.586-6.39L146.4-6.39L146.4-25.61L133.586-25.61Z"/>
   <path class="monochrome-1 multicolor-1:custom SFSymbolsPreview188038" d="M146.4-44.84L107.957-44.84L107.957-25.61L146.4-25.61L146.4-44.84Z"/>
   <path class="monochrome-2 multicolor-2:custom SFSymbolsPreviewFBBC04" d="M107.957-44.84L74.639-44.84C75.44-41.79 75.92-38.59 75.92-35.23C75.92-31.86 75.44-28.66 74.639-25.61L107.957-25.61L107.957-44.84Z"/>
   <path class="monochrome-3 multicolor-3:custom SFSymbolsPreview4183F0" d="M40.68 0.02C21.298 0.02 5.44-15.84 5.44-35.22C5.44-54.6 21.298-70.46 40.68-70.46C60.062-70.46 75.92-54.6 75.92-35.22C75.92-15.84 60.062 0.02 40.68 0.02ZM40.68-51.24C31.87-51.24 24.662-44.03 24.662-35.22C24.662-26.41 31.87-19.2 40.68-19.2C49.49-19.2 56.698-26.41 56.698-35.22C56.698-44.03 49.49-51.24 40.68-51.24Z"/>
   <path class="monochrome-4 multicolor-4:custom SFSymbolsPreviewEA4335" d="M74.639-44.84L53.495-44.84C55.417-42.11 56.699-38.91 56.699-35.23C56.699-31.54 55.417-28.34 53.495-25.61L74.639-25.61C75.44-28.66 75.92-31.86 75.92-35.23C75.92-38.59 75.44-41.79 74.639-44.84Z"/>
  </g>
  <g id="Black-M" transform="matrix(1 0 0 1 2864.83 1126)">
   <path class="monochrome-0 multicolor-0:custom SFSymbolsPreview34A853" d="M119.61-25.94L108.19-25.94L96.78-25.94L96.78-8.81L108.19-8.81L108.19-14.52C108.19-17.66 110.76-20.23 113.9-20.23C117.04-20.23 119.61-17.66 119.61-14.52L119.61-8.81L131.03-8.81L131.03-25.94L119.61-25.94Z"/>
   <path class="monochrome-1 multicolor-1:custom SFSymbolsPreview188038" d="M131.03-43.06L96.78-43.06L96.78-25.94L131.03-25.94L131.03-43.06Z"/>
   <path class="monochrome-2 multicolor-2:custom SFSymbolsPreviewFBBC04" d="M96.78-43.06L67.09-43.06C67.81-40.35 68.24-37.5 68.24-34.5C68.24-31.5 67.81-28.65 67.09-25.94L96.78-25.94L96.78-43.06Z"/>
   <path class="monochrome-3 multicolor-3:custom SFSymbolsPreview4183F0" d="M36.84-3.1C19.57-3.1 5.44-17.23 5.44-34.5C5.44-51.77 19.57-65.89 36.84-65.89C54.11-65.89 68.24-51.77 68.24-34.5C68.24-17.23 54.11-3.1 36.84-3.1ZM36.84-48.77C28.99-48.77 22.57-42.35 22.57-34.5C22.57-26.65 28.99-20.23 36.84-20.23C44.69-20.23 51.11-26.65 51.11-34.5C51.11-42.35 44.69-48.77 36.84-48.77Z"/>
   <path class="monochrome-4 multicolor-4:custom SFSymbolsPreviewEA4335" d="M67.09-43.06L48.26-43.06C49.97-40.64 51.11-37.78 51.11-34.5C51.11-31.22 49.97-28.36 48.26-25.94L67.09-25.94C67.81-28.65 68.24-31.5 68.24-34.5C68.24-37.5 67.81-40.35 67.09-43.06Z"/>
  </g>
  <g id="Heavy-M" transform="matrix(1 0 0 1 2568.12 1126)">
   <path class="monochrome-0 multicolor-0:custom SFSymbolsPreview34A853" d="M119.61-25.93L108.19-25.93L96.77-25.93L96.77-8.81L108.19-8.81L108.19-14.52C108.19-17.66 110.76-20.23 113.9-20.23C117.04-20.23 119.61-17.66 119.61-14.52L119.61-8.81L131.02-8.81L131.02-25.93L119.61-25.93Z"/>
   <path class="monochrome-1 multicolor-1:custom SFSymbolsPreview188038" d="M131.02-43.06L96.77-43.06L96.77-25.93L131.02-25.93L131.02-43.06Z"/>
   <path class="monochrome-2 multicolor-2:custom SFSymbolsPreviewFBBC04" d="M96.77-43.06L67.09-43.06C67.8-40.35 68.23-37.49 68.23-34.5C68.23-31.5 67.8-28.65 67.09-25.93L96.77-25.93L96.77-43.06Z"/>
   <path class="monochrome-3 multicolor-3:custom SFSymbolsPreview4183F0" d="M36.84-3.1C19.57-3.1 5.44-17.23 5.44-34.49C5.44-51.76 19.57-65.89 36.84-65.89C54.1-65.89 68.23-51.76 68.23-34.49C68.23-17.23 54.1-3.1 36.84-3.1ZM36.84-48.77C28.99-48.77 22.57-42.34 22.57-34.49C22.57-26.65 28.99-20.22 36.84-20.22C44.69-20.22 51.11-26.65 51.11-34.49C51.11-42.34 44.69-48.77 36.84-48.77Z"/>
   <path class="monochrome-4 multicolor-4:custom SFSymbolsPreviewEA4335" d="M67.09-43.06L48.25-43.06C49.97-40.63 51.11-37.78 51.11-34.5C51.11-31.21 49.97-28.36 48.25-25.93L67.09-25.93C67.8-28.65 68.23-31.5 68.23-34.5C68.23-37.49 67.8-40.35 67.09-43.06Z"/>
  </g>
  <g id="Bold-M" transform="matrix(1 0 0 1 2271.41 1126)">
   <path class="monochrome-0 multicolor-0:custom SFSymbolsPreview34A853" d="M119.6-25.94L108.19-25.94L96.77-25.94L96.77-8.81L108.19-8.81L108.19-14.52C108.19-17.66 110.75-20.23 113.89-20.23C117.03-20.23 119.6-17.66 119.6-14.52L119.6-8.81L131.02-8.81L131.02-25.94L119.6-25.94Z"/>
   <path class="monochrome-1 multicolor-1:custom SFSymbolsPreview188038" d="M131.02-43.06L96.77-43.06L96.77-25.94L131.02-25.94L131.02-43.06Z"/>
   <path class="monochrome-2 multicolor-2:custom SFSymbolsPreviewFBBC04" d="M96.77-43.06L67.09-43.06C67.8-40.35 68.23-37.5 68.23-34.5C68.23-31.5 67.8-28.65 67.09-25.94L96.77-25.94L96.77-43.06Z"/>
   <path class="monochrome-3 multicolor-3:custom SFSymbolsPreview4183F0" d="M36.83-3.1C19.56-3.1 5.44-17.23 5.44-34.5C5.44-51.77 19.56-65.89 36.83-65.89C54.1-65.89 68.23-51.77 68.23-34.5C68.23-17.23 54.1-3.1 36.83-3.1ZM36.83-48.77C28.98-48.77 22.56-42.35 22.56-34.5C22.56-26.65 28.98-20.23 36.83-20.23C44.68-20.23 51.1-26.65 51.1-34.5C51.1-42.35 44.68-48.77 36.83-48.77Z"/>
   <path class="monochrome-4 multicolor-4:custom SFSymbolsPreviewEA4335" d="M67.09-43.06L48.25-43.06C49.96-40.64 51.1-37.78 51.1-34.5C51.1-31.22 49.96-28.36 48.25-25.94L67.09-25.94C67.8-28.65 68.23-31.5 68.23-34.5C68.23-37.5 67.8-40.35 67.09-43.06Z"/>
  </g>
  <g id="Semibold-M" transform="matrix(1 0 0 1 1974.69 1126)">
   <path class="monochrome-0 multicolor-0:custom SFSymbolsPreview34A853" d="M119.61-25.93L108.19-25.93L96.78-25.93L96.78-8.81L108.19-8.81L108.19-14.52C108.19-17.66 110.76-20.23 113.9-20.23C117.04-20.23 119.61-17.66 119.61-14.52L119.61-8.81L131.03-8.81L131.03-25.93L119.61-25.93Z"/>
   <path class="monochrome-1 multicolor-1:custom SFSymbolsPreview188038" d="M131.03-43.06L96.78-43.06L96.78-25.93L131.03-25.93L131.03-43.06Z"/>
   <path class="monochrome-2 multicolor-2:custom SFSymbolsPreviewFBBC04" d="M96.78-43.06L67.09-43.06C67.81-40.35 68.23-37.49 68.23-34.5C68.23-31.5 67.81-28.65 67.09-25.93L96.78-25.93L96.78-43.06Z"/>
   <path class="monochrome-3 multicolor-3:custom SFSymbolsPreview4183F0" d="M36.84-3.1C19.57-3.1 5.44-17.23 5.44-34.49C5.44-51.76 19.57-65.89 36.84-65.89C54.11-65.89 68.23-51.76 68.23-34.49C68.23-17.23 54.11-3.1 36.84-3.1ZM36.84-48.77C28.99-48.77 22.57-42.34 22.57-34.49C22.57-26.65 28.99-20.22 36.84-20.22C44.69-20.22 51.11-26.65 51.11-34.49C51.11-42.34 44.69-48.77 36.84-48.77Z"/>
   <path class="monochrome-4 multicolor-4:custom SFSymbolsPreviewEA4335" d="M67.09-43.06L48.26-43.06C49.97-40.63 51.11-37.78 51.11-34.5C51.11-31.21 49.97-28.36 48.26-25.93L67.09-25.93C67.81-28.65 68.23-31.5 68.23-34.5C68.23-37.49 67.81-40.35 67.09-43.06Z"/>
  </g>
  <g id="Medium-M" transform="matrix(1 0 0 1 1677.99 1126)">
   <path class="monochrome-0 multicolor-0:custom SFSymbolsPreview34A853" d="M119.6-25.94L108.19-25.94L96.77-25.94L96.77-8.81L108.19-8.81L108.19-14.52C108.19-17.66 110.76-20.23 113.9-20.23C117.03-20.23 119.6-17.66 119.6-14.52L119.6-8.81L131.02-8.81L131.02-25.94L119.6-25.94Z"/>
   <path class="monochrome-1 multicolor-1:custom SFSymbolsPreview188038" d="M131.02-43.06L96.77-43.06L96.77-25.94L131.02-25.94L131.02-43.06Z"/>
   <path class="monochrome-2 multicolor-2:custom SFSymbolsPreviewFBBC04" d="M96.77-43.06L67.09-43.06C67.8-40.35 68.23-37.5 68.23-34.5C68.23-31.5 67.8-28.65 67.09-25.94L96.77-25.94L96.77-43.06Z"/>
   <path class="monochrome-3 multicolor-3:custom SFSymbolsPreview4183F0" d="M36.83-3.1C19.56-3.1 5.44-17.23 5.44-34.5C5.44-51.77 19.56-65.89 36.83-65.89C54.1-65.89 68.23-51.77 68.23-34.5C68.23-17.23 54.1-3.1 36.83-3.1ZM36.83-48.77C28.98-48.77 22.56-42.35 22.56-34.5C22.56-26.65 28.98-20.23 36.83-20.23C44.68-20.23 51.1-26.65 51.1-34.5C51.1-42.35 44.68-48.77 36.83-48.77Z"/>
   <path class="monochrome-4 multicolor-4:custom SFSymbolsPreviewEA4335" d="M67.09-43.06L48.25-43.06C49.96-40.64 51.1-37.78 51.1-34.5C51.1-31.22 49.96-28.36 48.25-25.94L67.09-25.94C67.8-28.65 68.23-31.5 68.23-34.5C68.23-37.5 67.8-40.35 67.09-43.06Z"/>
  </g>
  <g id="Regular-M" transform="matrix(1 0 0 1 1381.27 1126)">
   <path class="monochrome-0 multicolor-0:custom SFSymbolsPreview34A853" d="M119.61-25.93L108.19-25.93L96.77-25.93L96.77-8.81L108.19-8.81L108.19-14.52C108.19-17.66 110.76-20.23 113.9-20.23C117.04-20.23 119.61-17.66 119.61-14.52L119.61-8.81L131.02-8.81L131.02-25.93L119.61-25.93Z"/>
   <path class="monochrome-1 multicolor-1:custom SFSymbolsPreview188038" d="M131.02-43.06L96.77-43.06L96.77-25.93L131.02-25.93L131.02-43.06Z"/>
   <path class="monochrome-2 multicolor-2:custom SFSymbolsPreviewFBBC04" d="M96.77-43.06L67.09-43.06C67.8-40.35 68.23-37.49 68.23-34.5C68.23-31.5 67.8-28.65 67.09-25.93L96.77-25.93L96.77-43.06Z"/>
   <path class="monochrome-3 multicolor-3:custom SFSymbolsPreview4183F0" d="M36.83-3.1C19.57-3.1 5.44-17.23 5.44-34.49C5.44-51.76 19.57-65.89 36.83-65.89C54.1-65.89 68.23-51.76 68.23-34.49C68.23-17.23 54.1-3.1 36.83-3.1ZM36.83-48.77C28.99-48.77 22.56-42.34 22.56-34.49C22.56-26.65 28.99-20.22 36.83-20.22C44.68-20.22 51.1-26.65 51.1-34.49C51.1-42.34 44.68-48.77 36.83-48.77Z"/>
   <path class="monochrome-4 multicolor-4:custom SFSymbolsPreviewEA4335" d="M67.09-43.06L48.25-43.06C49.96-40.63 51.1-37.78 51.1-34.5C51.1-31.21 49.96-28.36 48.25-25.93L67.09-25.93C67.8-28.65 68.23-31.5 68.23-34.5C68.23-37.49 67.8-40.35 67.09-43.06Z"/>
  </g>
  <g id="Light-M" transform="matrix(1 0 0 1 1084.56 1126)">
   <path class="monochrome-0 multicolor-0:custom SFSymbolsPreview34A853" d="M119.61-26.98L108.19-26.98L96.78-26.98L96.78-9.86L108.19-9.86L108.19-15.57C108.19-18.71 110.76-21.28 113.9-21.28C117.04-21.28 119.61-18.71 119.61-15.57L119.61-9.86L131.03-9.86L131.03-26.98L119.61-26.98Z"/>
   <path class="monochrome-1 multicolor-1:custom SFSymbolsPreview188038" d="M131.03-44.11L96.78-44.11L96.78-26.98L131.03-26.98L131.03-44.11Z"/>
   <path class="monochrome-2 multicolor-2:custom SFSymbolsPreviewFBBC04" d="M96.78-44.11L67.09-44.11C67.81-41.4 68.23-38.54 68.23-35.55C68.23-32.55 67.81-29.7 67.09-26.98L96.78-26.98L96.78-44.11Z"/>
   <path class="monochrome-3 multicolor-3:custom SFSymbolsPreview4183F0" d="M36.84-4.15C19.57-4.15 5.44-18.28 5.44-35.55C5.44-52.81 19.57-66.94 36.84-66.94C54.11-66.94 68.23-52.81 68.23-35.55C68.23-18.28 54.11-4.15 36.84-4.15ZM36.84-49.82C28.99-49.82 22.57-43.39 22.57-35.55C22.57-27.7 28.99-21.27 36.84-21.27C44.69-21.27 51.11-27.7 51.11-35.55C51.11-43.39 44.69-49.82 36.84-49.82Z"/>
   <path class="monochrome-4 multicolor-4:custom SFSymbolsPreviewEA4335" d="M67.09-44.11L48.25-44.11C49.97-41.68 51.11-38.83 51.11-35.55C51.11-32.26 49.97-29.41 48.25-26.98L67.09-26.98C67.81-29.7 68.23-32.55 68.23-35.55C68.23-38.54 67.81-41.4 67.09-44.11Z"/>
  </g>
  <g id="Thin-M" transform="matrix(1 0 0 1 787.851 1126)">
   <path class="monochrome-0 multicolor-0:custom SFSymbolsPreview34A853" d="M119.606-26.98L108.19-26.98L96.773-26.98L96.773-9.86L108.19-9.86L108.19-15.57C108.19-18.71 110.758-21.28 113.898-21.28C117.038-21.28 119.606-18.71 119.606-15.57L119.606-9.86L131.023-9.86L131.023-26.98L119.606-26.98Z"/>
   <path class="monochrome-1 multicolor-1:custom SFSymbolsPreview188038" d="M131.023-44.11L96.773-44.11L96.773-26.98L131.023-26.98L131.023-44.11Z"/>
   <path class="monochrome-2 multicolor-2:custom SFSymbolsPreviewFBBC04" d="M96.773-44.11L67.09-44.11C67.804-41.4 68.232-38.54 68.232-35.55C68.232-32.55 67.804-29.7 67.09-26.98L96.773-26.98L96.773-44.11Z"/>
   <path class="monochrome-3 multicolor-3:custom SFSymbolsPreview4183F0" d="M36.835-4.15C19.568-4.15 5.44-18.28 5.44-35.55C5.44-52.81 19.568-66.94 36.835-66.94C54.103-66.94 68.231-52.81 68.231-35.55C68.231-18.28 54.103-4.15 36.835-4.15ZM36.835-49.82C28.986-49.82 22.565-43.39 22.565-35.55C22.565-27.7 28.986-21.27 36.835-21.27C44.684-21.27 51.106-27.7 51.106-35.55C51.106-43.39 44.684-49.82 36.835-49.82Z"/>
   <path class="monochrome-4 multicolor-4:custom SFSymbolsPreviewEA4335" d="M67.09-44.11L48.252-44.11C49.965-41.68 51.106-38.83 51.106-35.55C51.106-32.26 49.965-29.41 48.252-26.98L67.09-26.98C67.803-29.7 68.231-32.55 68.231-35.55C68.231-38.54 67.803-41.4 67.09-44.11Z"/>
  </g>
  <g id="Ultralight-M" transform="matrix(1 0 0 1 491.14 1126)">
   <path class="monochrome-0 multicolor-0:custom SFSymbolsPreview34A853" d="M119.606-26.98L108.19-26.98L96.773-26.98L96.773-9.86L108.19-9.86L108.19-15.57C108.19-18.71 110.758-21.28 113.898-21.28C117.038-21.28 119.606-18.71 119.606-15.57L119.606-9.86L131.023-9.86L131.023-26.98L119.606-26.98Z"/>
   <path class="monochrome-1 multicolor-1:custom SFSymbolsPreview188038" d="M131.023-44.11L96.773-44.11L96.773-26.98L131.023-26.98L131.023-44.11Z"/>
   <path class="monochrome-2 multicolor-2:custom SFSymbolsPreviewFBBC04" d="M96.773-44.11L67.089-44.11C67.803-41.4 68.231-38.54 68.231-35.55C68.231-32.55 67.803-29.7 67.089-26.98L96.773-26.98L96.773-44.11Z"/>
   <path class="monochrome-3 multicolor-3:custom SFSymbolsPreview4183F0" d="M36.835-4.15C19.568-4.15 5.44-18.28 5.44-35.55C5.44-52.81 19.568-66.94 36.835-66.94C54.103-66.94 68.231-52.81 68.231-35.55C68.231-18.28 54.103-4.15 36.835-4.15ZM36.835-49.82C28.986-49.82 22.565-43.39 22.565-35.55C22.565-27.7 28.986-21.27 36.835-21.27C44.684-21.27 51.106-27.7 51.106-35.55C51.106-43.39 44.684-49.82 36.835-49.82Z"/>
   <path class="monochrome-4 multicolor-4:custom SFSymbolsPreviewEA4335" d="M67.09-44.11L48.252-44.11C49.965-41.68 51.106-38.83 51.106-35.55C51.106-32.26 49.965-29.41 48.252-26.98L67.09-26.98C67.803-29.7 68.231-32.55 68.231-35.55C68.231-38.54 67.803-41.4 67.09-44.11Z"/>
  </g>
  <g id="Black-S" transform="matrix(1 0 0 1 2880.51 696)">
   <path class="monochrome-0 multicolor-0:custom SFSymbolsPreview34A853" d="M91.1-27.805L82.53-27.805L73.96-27.805L73.96-14.956L82.53-14.956L82.53-19.239C82.53-21.595 84.46-23.522 86.81-23.522C89.17-23.522 91.1-21.595 91.1-19.239L91.1-14.956L99.66-14.956L99.66-27.805L91.1-27.805Z"/>
   <path class="monochrome-1 multicolor-1:custom SFSymbolsPreview188038" d="M99.66-40.652L73.96-40.652L73.96-27.804L99.66-27.804L99.66-40.652Z"/>
   <path class="monochrome-2 multicolor-2:custom SFSymbolsPreviewFBBC04" d="M73.96-40.652L51.69-40.652C52.23-38.618 52.55-36.477 52.55-34.228C52.55-31.98 52.23-29.838 51.69-27.804L73.96-27.804L73.96-40.652Z"/>
   <path class="monochrome-3 multicolor-3:custom SFSymbolsPreview4183F0" d="M28.99-10.674C16.04-10.674 5.44-21.274 5.44-34.23C5.44-47.185 16.04-57.785 28.99-57.785C41.95-57.785 52.55-47.185 52.55-34.23C52.55-21.274 41.95-10.674 28.99-10.674ZM28.99-44.937C23.11-44.937 18.29-40.119 18.29-34.23C18.29-28.341 23.11-23.523 28.99-23.523C34.88-23.523 39.7-28.341 39.7-34.23C39.7-40.119 34.88-44.937 28.99-44.937Z"/>
   <path class="monochrome-4 multicolor-4:custom SFSymbolsPreviewEA4335" d="M51.69-40.652L37.56-40.652C38.84-38.832 39.7-36.691 39.7-34.228C39.7-31.765 38.84-29.624 37.56-27.804L51.69-27.804C52.23-29.838 52.55-31.98 52.55-34.228C52.55-36.477 52.23-38.618 51.69-40.652Z"/>
  </g>
  <g id="Heavy-S" transform="matrix(1 0 0 1 2583.8 696)">
   <path class="monochrome-0 multicolor-0:custom SFSymbolsPreview34A853" d="M91.1-27.805L82.53-27.805L73.96-27.805L73.96-14.956L82.53-14.956L82.53-19.239C82.53-21.595 84.46-23.522 86.81-23.522C89.17-23.522 91.1-21.595 91.1-19.239L91.1-14.956L99.66-14.956L99.66-27.805L91.1-27.805Z"/>
   <path class="monochrome-1 multicolor-1:custom SFSymbolsPreview188038" d="M99.66-40.652L73.96-40.652L73.96-27.804L99.66-27.804L99.66-40.652Z"/>
   <path class="monochrome-2 multicolor-2:custom SFSymbolsPreviewFBBC04" d="M73.96-40.652L51.69-40.652C52.23-38.618 52.55-36.477 52.55-34.228C52.55-31.98 52.23-29.838 51.69-27.804L73.96-27.804L73.96-40.652Z"/>
   <path class="monochrome-3 multicolor-3:custom SFSymbolsPreview4183F0" d="M28.99-10.674C16.04-10.674 5.44-21.274 5.44-34.23C5.44-47.185 16.04-57.785 28.99-57.785C41.95-57.785 52.55-47.185 52.55-34.23C52.55-21.274 41.95-10.674 28.99-10.674ZM28.99-44.937C23.11-44.937 18.29-40.119 18.29-34.23C18.29-28.341 23.11-23.523 28.99-23.523C34.88-23.523 39.7-28.341 39.7-34.23C39.7-40.119 34.88-44.937 28.99-44.937Z"/>
   <path class="monochrome-4 multicolor-4:custom SFSymbolsPreviewEA4335" d="M51.69-40.652L37.56-40.652C38.84-38.832 39.7-36.691 39.7-34.228C39.7-31.765 38.84-29.624 37.56-27.804L51.69-27.804C52.23-29.838 52.55-31.98 52.55-34.228C52.55-36.477 52.23-38.618 51.69-40.652Z"/>
  </g>
  <g id="Bold-S" transform="matrix(1 0 0 1 2287.09 696)">
   <path class="monochrome-0 multicolor-0:custom SFSymbolsPreview34A853" d="M91.1-27.801L82.53-27.801L73.96-27.801L73.96-14.952L82.53-14.952L82.53-19.235C82.53-21.591 84.46-23.518 86.81-23.518C89.17-23.518 91.1-21.591 91.1-19.235L91.1-14.952L99.66-14.952L99.66-27.801L91.1-27.801Z"/>
   <path class="monochrome-1 multicolor-1:custom SFSymbolsPreview188038" d="M99.66-40.648L73.96-40.648L73.96-27.8L99.66-27.8L99.66-40.648Z"/>
   <path class="monochrome-2 multicolor-2:custom SFSymbolsPreviewFBBC04" d="M73.96-40.648L51.69-40.648C52.23-38.614 52.55-36.473 52.55-34.224C52.55-31.976 52.23-29.834 51.69-27.8L73.96-27.8L73.96-40.648Z"/>
   <path class="monochrome-3 multicolor-3:custom SFSymbolsPreview4183F0" d="M28.99-10.67C16.04-10.67 5.44-21.27 5.44-34.226C5.44-47.181 16.04-57.781 28.99-57.781C41.95-57.781 52.55-47.181 52.55-34.226C52.55-21.27 41.95-10.67 28.99-10.67ZM28.99-44.933C23.11-44.933 18.29-40.115 18.29-34.226C18.29-28.337 23.11-23.519 28.99-23.519C34.88-23.519 39.7-28.337 39.7-34.226C39.7-40.115 34.88-44.933 28.99-44.933Z"/>
   <path class="monochrome-4 multicolor-4:custom SFSymbolsPreviewEA4335" d="M51.69-40.648L37.56-40.648C38.84-38.828 39.7-36.687 39.7-34.224C39.7-31.762 38.84-29.62 37.56-27.8L51.69-27.8C52.23-29.834 52.55-31.976 52.55-34.224C52.55-36.473 52.23-38.614 51.69-40.648Z"/>
  </g>
  <g id="Semibold-S" transform="matrix(1 0 0 1 1990.38 696)">
   <path class="monochrome-0 multicolor-0:custom SFSymbolsPreview34A853" d="M91.1-27.805L82.53-27.805L73.96-27.805L73.96-14.956L82.53-14.956L82.53-19.239C82.53-21.595 84.46-23.522 86.81-23.522C89.17-23.522 91.1-21.595 91.1-19.239L91.1-14.956L99.66-14.956L99.66-27.805L91.1-27.805Z"/>
   <path class="monochrome-1 multicolor-1:custom SFSymbolsPreview188038" d="M99.66-40.652L73.96-40.652L73.96-27.804L99.66-27.804L99.66-40.652Z"/>
   <path class="monochrome-2 multicolor-2:custom SFSymbolsPreviewFBBC04" d="M73.96-40.652L51.69-40.652C52.23-38.618 52.55-36.477 52.55-34.228C52.55-31.98 52.23-29.838 51.69-27.804L73.96-27.804L73.96-40.652Z"/>
   <path class="monochrome-3 multicolor-3:custom SFSymbolsPreview4183F0" d="M28.99-10.674C16.04-10.674 5.44-21.274 5.44-34.23C5.44-47.185 16.04-57.785 28.99-57.785C41.95-57.785 52.55-47.185 52.55-34.23C52.55-21.274 41.95-10.674 28.99-10.674ZM28.99-44.937C23.11-44.937 18.29-40.119 18.29-34.23C18.29-28.341 23.11-23.523 28.99-23.523C34.88-23.523 39.7-28.341 39.7-34.23C39.7-40.119 34.88-44.937 28.99-44.937Z"/>
   <path class="monochrome-4 multicolor-4:custom SFSymbolsPreviewEA4335" d="M51.69-40.652L37.56-40.652C38.84-38.832 39.7-36.691 39.7-34.228C39.7-31.765 38.84-29.624 37.56-27.804L51.69-27.804C52.23-29.838 52.55-31.98 52.55-34.228C52.55-36.477 52.23-38.618 51.69-40.652Z"/>
  </g>
  <g id="Medium-S" transform="matrix(1 0 0 1 1693.67 696)">
   <path class="monochrome-0 multicolor-0:custom SFSymbolsPreview34A853" d="M91.1-27.805L82.53-27.805L73.96-27.805L73.96-14.956L82.53-14.956L82.53-19.239C82.53-21.595 84.46-23.522 86.81-23.522C89.17-23.522 91.1-21.595 91.1-19.239L91.1-14.956L99.66-14.956L99.66-27.805L91.1-27.805Z"/>
   <path class="monochrome-1 multicolor-1:custom SFSymbolsPreview188038" d="M99.66-40.652L73.96-40.652L73.96-27.804L99.66-27.804L99.66-40.652Z"/>
   <path class="monochrome-2 multicolor-2:custom SFSymbolsPreviewFBBC04" d="M73.96-40.652L51.69-40.652C52.23-38.618 52.55-36.477 52.55-34.228C52.55-31.98 52.23-29.838 51.69-27.804L73.96-27.804L73.96-40.652Z"/>
   <path class="monochrome-3 multicolor-3:custom SFSymbolsPreview4183F0" d="M28.99-10.674C16.04-10.674 5.44-21.274 5.44-34.23C5.44-47.185 16.04-57.785 28.99-57.785C41.95-57.785 52.55-47.185 52.55-34.23C52.55-21.274 41.95-10.674 28.99-10.674ZM28.99-44.937C23.11-44.937 18.29-40.119 18.29-34.23C18.29-28.341 23.11-23.523 28.99-23.523C34.88-23.523 39.7-28.341 39.7-34.23C39.7-40.119 34.88-44.937 28.99-44.937Z"/>
   <path class="monochrome-4 multicolor-4:custom SFSymbolsPreviewEA4335" d="M51.69-40.652L37.56-40.652C38.84-38.832 39.7-36.691 39.7-34.228C39.7-31.765 38.84-29.624 37.56-27.804L51.69-27.804C52.23-29.838 52.55-31.98 52.55-34.228C52.55-36.477 52.23-38.618 51.69-40.652Z"/>
  </g>
  <g id="Regular-S" transform="matrix(1 0 0 1 1396.95 696)">
   <path class="monochrome-0 multicolor-0:custom SFSymbolsPreview34A853" d="M91.1-27.801L82.53-27.801L73.96-27.801L73.96-14.952L82.53-14.952L82.53-19.235C82.53-21.591 84.46-23.518 86.81-23.518C89.17-23.518 91.1-21.591 91.1-19.235L91.1-14.952L99.66-14.952L99.66-27.801L91.1-27.801Z"/>
   <path class="monochrome-1 multicolor-1:custom SFSymbolsPreview188038" d="M99.66-40.648L73.96-40.648L73.96-27.8L99.66-27.8L99.66-40.648Z"/>
   <path class="monochrome-2 multicolor-2:custom SFSymbolsPreviewFBBC04" d="M73.96-40.648L51.69-40.648C52.23-38.614 52.55-36.473 52.55-34.224C52.55-31.976 52.23-29.834 51.69-27.8L73.96-27.8L73.96-40.648Z"/>
   <path class="monochrome-3 multicolor-3:custom SFSymbolsPreview4183F0" d="M28.99-10.67C16.04-10.67 5.44-21.27 5.44-34.226C5.44-47.181 16.04-57.781 28.99-57.781C41.95-57.781 52.55-47.181 52.55-34.226C52.55-21.27 41.95-10.67 28.99-10.67ZM28.99-44.933C23.11-44.933 18.29-40.115 18.29-34.226C18.29-28.337 23.11-23.519 28.99-23.519C34.88-23.519 39.7-28.337 39.7-34.226C39.7-40.115 34.88-44.933 28.99-44.933Z"/>
   <path class="monochrome-4 multicolor-4:custom SFSymbolsPreviewEA4335" d="M51.69-40.648L37.56-40.648C38.84-38.828 39.7-36.687 39.7-34.224C39.7-31.762 38.84-29.62 37.56-27.8L51.69-27.8C52.23-29.834 52.55-31.976 52.55-34.224C52.55-36.473 52.23-38.614 51.69-40.648Z"/>
  </g>
  <g id="Light-S" transform="matrix(1 0 0 1 1100.24 696)">
   <path class="monochrome-0 multicolor-0:custom SFSymbolsPreview34A853" d="M91.1-27.801L82.53-27.801L73.96-27.801L73.96-14.952L82.53-14.952L82.53-19.235C82.53-21.591 84.46-23.518 86.81-23.518C89.17-23.518 91.1-21.591 91.1-19.235L91.1-14.952L99.66-14.952L99.66-27.801L91.1-27.801Z"/>
   <path class="monochrome-1 multicolor-1:custom SFSymbolsPreview188038" d="M99.66-40.648L73.96-40.648L73.96-27.8L99.66-27.8L99.66-40.648Z"/>
   <path class="monochrome-2 multicolor-2:custom SFSymbolsPreviewFBBC04" d="M73.96-40.648L51.69-40.648C52.23-38.614 52.55-36.473 52.55-34.224C52.55-31.976 52.23-29.834 51.69-27.8L73.96-27.8L73.96-40.648Z"/>
   <path class="monochrome-3 multicolor-3:custom SFSymbolsPreview4183F0" d="M28.99-10.67C16.04-10.67 5.44-21.27 5.44-34.226C5.44-47.181 16.04-57.781 28.99-57.781C41.95-57.781 52.55-47.181 52.55-34.226C52.55-21.27 41.95-10.67 28.99-10.67ZM28.99-44.933C23.11-44.933 18.29-40.115 18.29-34.226C18.29-28.337 23.11-23.519 28.99-23.519C34.88-23.519 39.7-28.337 39.7-34.226C39.7-40.115 34.88-44.933 28.99-44.933Z"/>
   <path class="monochrome-4 multicolor-4:custom SFSymbolsPreviewEA4335" d="M51.69-40.648L37.56-40.648C38.84-38.828 39.7-36.687 39.7-34.224C39.7-31.762 38.84-29.62 37.56-27.8L51.69-27.8C52.23-29.834 52.55-31.976 52.55-34.224C52.55-36.473 52.23-38.614 51.69-40.648Z"/>
  </g>
  <g id="Thin-S" transform="matrix(1 0 0 1 803.531 696)">
   <path class="monochrome-0 multicolor-0:custom SFSymbolsPreview34A853" d="M91.097-27.805L82.531-27.805L73.965-27.805L73.965-14.956L82.531-14.956L82.531-19.239C82.531-21.595 84.458-23.522 86.814-23.522C89.169-23.522 91.097-21.595 91.097-19.239L91.097-14.956L99.662-14.956L99.662-27.805L91.097-27.805Z"/>
   <path class="monochrome-1 multicolor-1:custom SFSymbolsPreview188038" d="M99.662-40.652L73.965-40.652L73.965-27.804L99.662-27.804L99.662-40.652Z"/>
   <path class="monochrome-2 multicolor-2:custom SFSymbolsPreviewFBBC04" d="M73.965-40.652L51.694-40.652C52.23-38.618 52.551-36.477 52.551-34.228C52.551-31.98 52.23-29.838 51.694-27.804L73.965-27.804L73.965-40.652Z"/>
   <path class="monochrome-3 multicolor-3:custom SFSymbolsPreview4183F0" d="M28.996-10.674C16.04-10.674 5.44-21.274 5.44-34.23C5.44-47.185 16.04-57.785 28.996-57.785C41.951-57.785 52.551-47.185 52.551-34.23C52.551-21.274 41.951-10.674 28.996-10.674ZM28.996-44.937C23.107-44.937 18.288-40.119 18.288-34.23C18.288-28.341 23.107-23.523 28.996-23.523C34.884-23.523 39.703-28.341 39.703-34.23C39.703-40.119 34.884-44.937 28.996-44.937Z"/>
   <path class="monochrome-4 multicolor-4:custom SFSymbolsPreviewEA4335" d="M51.694-40.652L37.561-40.652C38.846-38.832 39.703-36.691 39.703-34.228C39.703-31.765 38.846-29.624 37.561-27.804L51.694-27.804C52.23-29.838 52.551-31.98 52.551-34.228C52.551-36.477 52.23-38.618 51.694-40.652Z"/>
  </g>
  <g id="Ultralight-S" transform="matrix(1 0 0 1 506.82 696)">
   <path class="monochrome-0 multicolor-0:custom SFSymbolsPreview34A853" d="M91.097-28.801L82.531-28.801L73.965-28.801L73.965-15.952L82.531-15.952L82.531-20.235C82.531-22.591 84.458-24.518 86.814-24.518C89.169-24.518 91.097-22.591 91.097-20.235L91.097-15.952L99.662-15.952L99.662-28.801L91.097-28.801Z"/>
   <path class="monochrome-1 multicolor-1:custom SFSymbolsPreview188038" d="M99.662-41.648L73.965-41.648L73.965-28.8L99.662-28.8L99.662-41.648Z"/>
   <path class="monochrome-2 multicolor-2:custom SFSymbolsPreviewFBBC04" d="M73.965-41.648L51.694-41.648C52.23-39.614 52.551-37.473 52.551-35.224C52.551-32.976 52.23-30.834 51.694-28.8L73.965-28.8L73.965-41.648Z"/>
   <path class="monochrome-3 multicolor-3:custom SFSymbolsPreview4183F0" d="M28.995-11.67C16.04-11.67 5.44-22.27 5.44-35.226C5.44-48.181 16.04-58.781 28.995-58.781C41.951-58.781 52.551-48.181 52.551-35.226C52.551-22.27 41.951-11.67 28.995-11.67ZM28.995-45.933C23.106-45.933 18.288-41.115 18.288-35.226C18.288-29.337 23.106-24.519 28.995-24.519C34.884-24.519 39.702-29.337 39.702-35.226C39.702-41.115 34.884-45.933 28.995-45.933Z"/>
   <path class="monochrome-4 multicolor-4:custom SFSymbolsPreviewEA4335" d="M51.694-41.648L37.561-41.648C38.846-39.828 39.702-37.687 39.702-35.224C39.702-32.762 38.846-30.62 37.561-28.8L51.694-28.8C52.23-30.834 52.551-32.976 52.551-35.224C52.551-37.473 52.23-39.614 51.694-41.648Z"/>
  </g>
 </g>
</svg>
