<?xml version="1.0" encoding="UTF-8"?>
<!--Generator: Apple Native CoreSVG 175.5-->
<!DOCTYPE svg
PUBLIC "-//W3C//DTD SVG 1.1//EN"
       "http://www.w3.org/Graphics/SVG/1.1/DTD/svg11.dtd">
<svg version="1.1" xmlns="http://www.w3.org/2000/svg" xmlns:xlink="http://www.w3.org/1999/xlink" width="3300" height="2200">
 <!--glyph: "", point size: 100.0, font version: "18.0d12e2", template writer version: "101"-->
 <g id="Notes">
  <rect height="2200" id="artboard" style="fill:white;opacity:1" width="3300" x="0" y="0"/>
  <line style="fill:none;stroke:black;opacity:1;stroke-width:0.5;" x1="263" x2="3036" y1="292" y2="292"/>
  <text style="stroke:none;fill:black;font-family:sans-serif;font-size:13;font-weight:bold;" transform="matrix(1 0 0 1 263 322)">Weight/Scale Variations</text>
  <text style="stroke:none;fill:black;font-family:sans-serif;font-size:13;text-anchor:middle;" transform="matrix(1 0 0 1 559.711 322)">Ultralight</text>
  <text style="stroke:none;fill:black;font-family:sans-serif;font-size:13;text-anchor:middle;" transform="matrix(1 0 0 1 856.422 322)">Thin</text>
  <text style="stroke:none;fill:black;font-family:sans-serif;font-size:13;text-anchor:middle;" transform="matrix(1 0 0 1 1153.13 322)">Light</text>
  <text style="stroke:none;fill:black;font-family:sans-serif;font-size:13;text-anchor:middle;" transform="matrix(1 0 0 1 1449.84 322)">Regular</text>
  <text style="stroke:none;fill:black;font-family:sans-serif;font-size:13;text-anchor:middle;" transform="matrix(1 0 0 1 1746.56 322)">Medium</text>
  <text style="stroke:none;fill:black;font-family:sans-serif;font-size:13;text-anchor:middle;" transform="matrix(1 0 0 1 2043.27 322)">Semibold</text>
  <text style="stroke:none;fill:black;font-family:sans-serif;font-size:13;text-anchor:middle;" transform="matrix(1 0 0 1 2339.98 322)">Bold</text>
  <text style="stroke:none;fill:black;font-family:sans-serif;font-size:13;text-anchor:middle;" transform="matrix(1 0 0 1 2636.69 322)">Heavy</text>
  <text style="stroke:none;fill:black;font-family:sans-serif;font-size:13;text-anchor:middle;" transform="matrix(1 0 0 1 2933.4 322)">Black</text>
  <line style="fill:none;stroke:black;opacity:1;stroke-width:0.5;" x1="263" x2="3036" y1="1903" y2="1903"/>
  <g transform="matrix(1 0 0 1 263 1933)">
   <path d="M9.24805 0.830078C13.5547 0.830078 17.1387-2.74414 17.1387-7.05078C17.1387-11.3574 13.5449-14.9316 9.23828-14.9316C4.94141-14.9316 1.36719-11.3574 1.36719-7.05078C1.36719-2.74414 4.95117 0.830078 9.24805 0.830078ZM9.24805-0.654297C5.70312-0.654297 2.87109-3.49609 2.87109-7.05078C2.87109-10.6055 5.69336-13.4473 9.23828-13.4473C12.793-13.4473 15.6445-10.6055 15.6445-7.05078C15.6445-3.49609 12.8027-0.654297 9.24805-0.654297ZM5.6543-7.05078C5.6543-6.62109 5.95703-6.32812 6.40625-6.32812L8.50586-6.32812L8.50586-4.20898C8.50586-3.76953 8.79883-3.4668 9.22852-3.4668C9.67773-3.4668 9.9707-3.76953 9.9707-4.20898L9.9707-6.32812L12.0898-6.32812C12.5293-6.32812 12.832-6.62109 12.832-7.05078C12.832-7.49023 12.5293-7.79297 12.0898-7.79297L9.9707-7.79297L9.9707-9.90234C9.9707-10.3516 9.67773-10.6543 9.22852-10.6543C8.79883-10.6543 8.50586-10.3516 8.50586-9.90234L8.50586-7.79297L6.40625-7.79297C5.95703-7.79297 5.6543-7.49023 5.6543-7.05078Z"/>
  </g>
  <g transform="matrix(1 0 0 1 281.867 1933)">
   <path d="M11.709 2.91016C17.1582 2.91016 21.6699-1.61133 21.6699-7.05078C21.6699-12.5 17.1484-17.0117 11.6992-17.0117C6.25977-17.0117 1.74805-12.5 1.74805-7.05078C1.74805-1.61133 6.26953 2.91016 11.709 2.91016ZM11.709 1.25C7.09961 1.25 3.41797-2.44141 3.41797-7.05078C3.41797-11.6602 7.08984-15.3516 11.6992-15.3516C16.3086-15.3516 20.0098-11.6602 20.0098-7.05078C20.0098-2.44141 16.3184 1.25 11.709 1.25ZM7.17773-7.05078C7.17773-6.57227 7.50977-6.25 8.00781-6.25L10.8789-6.25L10.8789-3.36914C10.8789-2.88086 11.2109-2.53906 11.6895-2.53906C12.1777-2.53906 12.5195-2.87109 12.5195-3.36914L12.5195-6.25L15.4004-6.25C15.8887-6.25 16.2305-6.57227 16.2305-7.05078C16.2305-7.53906 15.8887-7.88086 15.4004-7.88086L12.5195-7.88086L12.5195-10.752C12.5195-11.25 12.1777-11.5918 11.6895-11.5918C11.2109-11.5918 10.8789-11.25 10.8789-10.752L10.8789-7.88086L8.00781-7.88086C7.50977-7.88086 7.17773-7.53906 7.17773-7.05078Z"/>
  </g>
  <g transform="matrix(1 0 0 1 305.646 1933)">
   <path d="M14.9707 5.66406C21.9336 5.66406 27.6953-0.0976562 27.6953-7.05078C27.6953-14.0137 21.9238-19.7754 14.9609-19.7754C8.00781-19.7754 2.25586-14.0137 2.25586-7.05078C2.25586-0.0976562 8.01758 5.66406 14.9707 5.66406ZM14.9707 3.84766C8.93555 3.84766 4.08203-1.01562 4.08203-7.05078C4.08203-13.0957 8.92578-17.9492 14.9609-17.9492C21.0059-17.9492 25.8691-13.0957 25.8691-7.05078C25.8691-1.01562 21.0156 3.84766 14.9707 3.84766ZM9.19922-7.05078C9.19922-6.5332 9.57031-6.17188 10.1172-6.17188L14.0625-6.17188L14.0625-2.2168C14.0625-1.67969 14.4336-1.29883 14.9512-1.29883C15.4883-1.29883 15.8594-1.66992 15.8594-2.2168L15.8594-6.17188L19.8145-6.17188C20.3516-6.17188 20.7324-6.5332 20.7324-7.05078C20.7324-7.59766 20.3613-7.96875 19.8145-7.96875L15.8594-7.96875L15.8594-11.9141C15.8594-12.4609 15.4883-12.8418 14.9512-12.8418C14.4336-12.8418 14.0625-12.4609 14.0625-11.9141L14.0625-7.96875L10.1172-7.96875C9.57031-7.96875 9.19922-7.59766 9.19922-7.05078Z"/>
  </g>
  <text style="stroke:none;fill:black;font-family:sans-serif;font-size:13;font-weight:bold;" transform="matrix(1 0 0 1 263 1953)">Design Variations</text>
  <text style="stroke:none;fill:black;font-family:sans-serif;font-size:13;" transform="matrix(1 0 0 1 263 1971)">Symbols are supported in up to nine weights and three scales.</text>
  <text style="stroke:none;fill:black;font-family:sans-serif;font-size:13;" transform="matrix(1 0 0 1 263 1989)">For optimal layout with text and other symbols, vertically align</text>
  <text style="stroke:none;fill:black;font-family:sans-serif;font-size:13;" transform="matrix(1 0 0 1 263 2007)">symbols with the adjacent text.</text>
  <line style="fill:none;stroke:#00AEEF;stroke-width:0.5;opacity:1.0;" x1="776" x2="776" y1="1919" y2="1933"/>
  <g transform="matrix(1 0 0 1 776 1933)">
   <path d="M3.31055 0.15625C3.82812 0.15625 4.08203-0.0390625 4.26758-0.585938L5.52734-4.0332L11.2891-4.0332L12.5488-0.585938C12.7344-0.0390625 12.9883 0.15625 13.4961 0.15625C14.0137 0.15625 14.3457-0.15625 14.3457-0.644531C14.3457-0.810547 14.3164-0.966797 14.2383-1.17188L9.6582-13.3691C9.43359-13.9648 9.0332-14.2676 8.4082-14.2676C7.80273-14.2676 7.39258-13.9746 7.17773-13.3789L2.59766-1.16211C2.51953-0.957031 2.49023-0.800781 2.49023-0.634766C2.49023-0.146484 2.80273 0.15625 3.31055 0.15625ZM6.00586-5.51758L8.37891-12.0898L8.42773-12.0898L10.8008-5.51758Z"/>
  </g>
  <line style="fill:none;stroke:#00AEEF;stroke-width:0.5;opacity:1.0;" x1="793.197" x2="793.197" y1="1919" y2="1933"/>
  <text style="stroke:none;fill:black;font-family:sans-serif;font-size:13;font-weight:bold;" transform="matrix(1 0 0 1 776 1953)">Margins</text>
  <text style="stroke:none;fill:black;font-family:sans-serif;font-size:13;" transform="matrix(1 0 0 1 776 1971)">Leading and trailing margins on the left and right side of each symbol</text>
  <text style="stroke:none;fill:black;font-family:sans-serif;font-size:13;" transform="matrix(1 0 0 1 776 1989)">can be adjusted by modifying the x-location of the margin guidelines.</text>
  <text style="stroke:none;fill:black;font-family:sans-serif;font-size:13;" transform="matrix(1 0 0 1 776 2007)">Modifications are automatically applied proportionally to all</text>
  <text style="stroke:none;fill:black;font-family:sans-serif;font-size:13;" transform="matrix(1 0 0 1 776 2025)">scales and weights.</text>
  <g transform="matrix(1 0 0 1 1289 1933)">
   <path d="M2.8418 1.86523L4.54102 3.57422C5.40039 4.44336 6.38672 4.38477 7.31445 3.35938L18.0078-8.42773L17.041-9.4043L6.42578 2.27539C6.07422 2.67578 5.74219 2.77344 5.27344 2.30469L4.10156 1.14258C3.63281 0.683594 3.74023 0.341797 4.14062-0.0195312L15.6152-10.8203L14.6387-11.7871L3.04688-0.898438C2.06055 0.0195312 1.98242 0.996094 2.8418 1.86523ZM9.25781-16.3281C8.83789-15.918 8.80859-15.3418 9.04297-14.9512C9.27734-14.5898 9.73633-14.3555 10.3809-14.5215C11.8457-14.8633 13.3691-14.9219 14.7949-13.9844L14.209-12.5293C13.8672-11.6992 14.043-11.1133 14.5801-10.5664L16.875-8.25195C17.3633-7.76367 17.7734-7.74414 18.3398-7.8418L19.4043-8.03711L20.0684-7.36328L20.0293-6.80664C19.9902-6.30859 20.1172-5.92773 20.6055-5.44922L21.3672-4.70703C21.8457-4.22852 22.4609-4.19922 22.9297-4.66797L25.8398-7.58789C26.3086-8.05664 26.2891-8.65234 25.8105-9.13086L25.0391-9.89258C24.5605-10.3711 24.1895-10.5273 23.7109-10.4883L23.1348-10.4395L22.4902-11.0742L22.7344-12.1973C22.8613-12.7637 22.7051-13.2031 22.1191-13.7891L19.9219-15.9766C16.582-19.2969 12.1484-19.2188 9.25781-16.3281ZM10.752-15.957C13.1836-17.7344 16.4746-17.4316 18.7012-15.2051L21.1328-12.793C21.3672-12.5586 21.4062-12.373 21.3379-12.0312L21.0156-10.5469L22.5195-9.0625L23.5059-9.12109C23.7598-9.13086 23.8379-9.11133 24.0332-8.91602L24.6094-8.33984L22.168-5.89844L21.5918-6.47461C21.3965-6.66992 21.3672-6.74805 21.377-7.01172L21.4453-7.98828L19.9512-9.47266L18.4277-9.21875C18.1055-9.15039 17.959-9.17969 17.7148-9.41406L15.7129-11.416C15.459-11.6504 15.4297-11.8164 15.5859-12.1875L16.4648-14.2773C14.9023-15.7324 12.8711-16.3574 10.8398-15.7617C10.6836-15.7227 10.625-15.8496 10.752-15.957Z"/>
  </g>
  <text style="stroke:none;fill:black;font-family:sans-serif;font-size:13;font-weight:bold;" transform="matrix(1 0 0 1 1289 1953)">Exporting</text>
  <text style="stroke:none;fill:black;font-family:sans-serif;font-size:13;" transform="matrix(1 0 0 1 1289 1971)">Symbols should be outlined when exporting to ensure the</text>
  <text style="stroke:none;fill:black;font-family:sans-serif;font-size:13;" transform="matrix(1 0 0 1 1289 1989)">design is preserved when submitting to Xcode.</text>
  <text id="template-version" style="stroke:none;fill:black;font-family:sans-serif;font-size:13;text-anchor:end;" transform="matrix(1 0 0 1 3036 1933)">Template v.2.0</text>
  <text style="stroke:none;fill:black;font-family:sans-serif;font-size:13;text-anchor:end;" transform="matrix(1 0 0 1 3036 1951)">Requires Xcode 12 or greater</text>
  <text id="descriptive-name" style="stroke:none;fill:black;font-family:sans-serif;font-size:13;text-anchor:end;" transform="matrix(1 0 0 1 3036 1969)">Generated from tuner.cr</text>
  <text style="stroke:none;fill:black;font-family:sans-serif;font-size:13;text-anchor:end;" transform="matrix(1 0 0 1 3036 1987)">Typeset at 100 points</text>
  <text style="stroke:none;fill:black;font-family:sans-serif;font-size:13;" transform="matrix(1 0 0 1 263 726)">Small</text>
  <text style="stroke:none;fill:black;font-family:sans-serif;font-size:13;" transform="matrix(1 0 0 1 263 1156)">Medium</text>
  <text style="stroke:none;fill:black;font-family:sans-serif;font-size:13;" transform="matrix(1 0 0 1 263 1586)">Large</text>
 </g>
 <g id="Guides">
  <g id="H-reference" style="fill:#27AAE1;stroke:none;" transform="matrix(1 0 0 1 339 696)">
   <path d="M0.993654 0L3.63775 0L29.3281-67.1323L30.0303-67.1323L30.0303-70.459L28.1226-70.459ZM11.6885-24.4799L46.9815-24.4799L46.2315-26.7285L12.4385-26.7285ZM55.1196 0L57.7637 0L30.6382-70.459L29.4326-70.459L29.4326-67.1323Z"/>
  </g>
  <line id="Baseline-S" style="fill:none;stroke:#27AAE1;opacity:1;stroke-width:0.5;" x1="263" x2="3036" y1="696" y2="696"/>
  <line id="Capline-S" style="fill:none;stroke:#27AAE1;opacity:1;stroke-width:0.5;" x1="263" x2="3036" y1="625.541" y2="625.541"/>
  <g id="H-reference" style="fill:#27AAE1;stroke:none;" transform="matrix(1 0 0 1 339 1126)">
   <path d="M0.993654 0L3.63775 0L29.3281-67.1323L30.0303-67.1323L30.0303-70.459L28.1226-70.459ZM11.6885-24.4799L46.9815-24.4799L46.2315-26.7285L12.4385-26.7285ZM55.1196 0L57.7637 0L30.6382-70.459L29.4326-70.459L29.4326-67.1323Z"/>
  </g>
  <line id="Baseline-M" style="fill:none;stroke:#27AAE1;opacity:1;stroke-width:0.5;" x1="263" x2="3036" y1="1126" y2="1126"/>
  <line id="Capline-M" style="fill:none;stroke:#27AAE1;opacity:1;stroke-width:0.5;" x1="263" x2="3036" y1="1055.54" y2="1055.54"/>
  <g id="H-reference" style="fill:#27AAE1;stroke:none;" transform="matrix(1 0 0 1 339 1556)">
   <path d="M0.993654 0L3.63775 0L29.3281-67.1323L30.0303-67.1323L30.0303-70.459L28.1226-70.459ZM11.6885-24.4799L46.9815-24.4799L46.2315-26.7285L12.4385-26.7285ZM55.1196 0L57.7637 0L30.6382-70.459L29.4326-70.459L29.4326-67.1323Z"/>
  </g>
  <line id="Baseline-L" style="fill:none;stroke:#27AAE1;opacity:1;stroke-width:0.5;" x1="263" x2="3036" y1="1556" y2="1556"/>
  <line id="Capline-L" style="fill:none;stroke:#27AAE1;opacity:1;stroke-width:0.5;" x1="263" x2="3036" y1="1485.54" y2="1485.54"/>
  <line id="left-margin" style="fill:none;stroke:#00AEEF;stroke-width:0.5;opacity:1.0;" x1="1385.73" x2="1385.73" y1="1030.79" y2="1150.12"/>
  <line id="right-margin" style="fill:none;stroke:#00AEEF;stroke-width:0.5;opacity:1.0;" x1="1513.96" x2="1513.96" y1="1030.79" y2="1150.12"/>
 </g>
 <g id="Symbols">
  <g id="Black-L" transform="matrix(1 0 0 1 2853.39 1556)">
   <path d="M82.07-71.05C82.07-68.66 82.29-66.32 82.71-64.05L20.97-64.05C17.1-64.05 13.97-67.18 13.97-71.05C13.97-74.91 17.1-78.05 20.97-78.05L82.71-78.05C82.29-75.78 82.07-73.44 82.07-71.05ZM76.87 0.85C76.87-1.54 76.65-3.88 76.23-6.15L137.97-6.15C141.84-6.15 144.97-3.01 144.97 0.85C144.97 4.72 141.84 7.85 137.97 7.85L76.23 7.85C76.65 5.58 76.87 3.24 76.87 0.85ZM120.42-99C135.86-99 148.37-86.49 148.37-71.05C148.37-55.61 135.86-43.1 120.42-43.1C104.98-43.1 92.47-55.61 92.47-71.05C92.47-86.49 104.98-99 120.42-99ZM120.42-85C112.72-85 106.47-78.75 106.47-71.05C106.47-63.35 112.72-57.1 120.42-57.1C128.12-57.1 134.37-63.35 134.37-71.05C134.37-78.75 128.12-85 120.42-85ZM38.52-27.1C53.96-27.1 66.47-14.59 66.47 0.85C66.47 16.28 53.96 28.8 38.52 28.8C23.08 28.8 10.57 16.28 10.57 0.85C10.57-14.59 23.08-27.1 38.52-27.1ZM38.52-13.1C30.82-13.1 24.57-6.86 24.57 0.85C24.57 8.55 30.82 14.8 38.52 14.8C46.22 14.8 52.47 8.55 52.47 0.85C52.47-6.86 46.22-13.1 38.52-13.1Z"/>
  </g>
  <g id="Heavy-L" transform="matrix(1 0 0 1 2556.67 1556)">
   <path d="M82.07-71.05C82.07-68.83 82.26-66.66 82.62-64.55L20.97-64.55C17.38-64.55 14.47-67.46 14.47-71.05C14.47-74.64 17.38-77.55 20.97-77.55L82.62-77.55C82.26-75.43 82.07-73.26 82.07-71.05ZM76.87 0.85C76.87-1.36 76.68-3.54 76.32-5.65L137.97-5.65C141.56-5.65 144.47-2.74 144.47 0.85C144.47 4.44 141.56 7.35 137.97 7.35L76.32 7.35C76.68 5.24 76.87 3.07 76.87 0.85ZM120.42-99C135.86-99 148.37-86.49 148.37-71.05C148.37-55.61 135.86-43.1 120.42-43.1C104.98-43.1 92.47-55.61 92.47-71.05C92.47-86.49 104.98-99 120.42-99ZM120.42-86C112.16-86 105.47-79.31 105.47-71.05C105.47-62.79 112.16-56.1 120.42-56.1C128.68-56.1 135.37-62.79 135.37-71.05C135.37-79.31 128.68-86 120.42-86ZM38.52-27.1C53.96-27.1 66.47-14.59 66.47 0.85C66.47 16.28 53.96 28.8 38.52 28.8C23.08 28.8 10.57 16.28 10.57 0.85C10.57-14.59 23.08-27.1 38.52-27.1ZM38.52-14.1C30.26-14.1 23.57-7.41 23.57 0.85C23.57 9.11 30.26 15.8 38.52 15.8C46.78 15.8 53.47 9.11 53.47 0.85C53.47-7.41 46.78-14.1 38.52-14.1Z"/>
  </g>
  <g id="Bold-L" transform="matrix(1 0 0 1 2259.96 1556)">
   <path d="M82.07-70.05C82.07-68.01 82.23-66 82.54-64.05L20.97-64.05C17.66-64.05 14.97-66.73 14.97-70.05C14.97-73.36 17.66-76.05 20.97-76.05L82.54-76.05C82.23-74.09 82.07-72.09 82.07-70.05ZM76.87-0.15C76.87-2.19 76.71-4.19 76.4-6.15L137.97-6.15C141.28-6.15 143.97-3.46 143.97-0.15C143.97 3.17 141.28 5.85 137.97 5.85L76.4 5.85C76.71 3.9 76.87 1.89 76.87-0.15ZM120.42-98C135.86-98 148.37-85.49 148.37-70.05C148.37-54.61 135.86-42.1 120.42-42.1C104.98-42.1 92.47-54.61 92.47-70.05C92.47-85.49 104.98-98 120.42-98ZM120.42-86C111.61-86 104.47-78.86 104.47-70.05C104.47-61.24 111.61-54.1 120.42-54.1C129.23-54.1 136.37-61.24 136.37-70.05C136.37-78.86 129.23-86 120.42-86ZM38.52-28.1C53.96-28.1 66.47-15.59 66.47-0.15C66.47 15.28 53.96 27.8 38.52 27.8C23.08 27.8 10.57 15.28 10.57-0.15C10.57-15.59 23.08-28.1 38.52-28.1ZM38.52-16.1C29.71-16.1 22.57-8.96 22.57-0.15C22.57 8.66 29.71 15.8 38.52 15.8C47.33 15.8 54.47 8.66 54.47-0.15C54.47-8.96 47.33-16.1 38.52-16.1Z"/>
  </g>
  <g id="Semibold-L" transform="matrix(1 0 0 1 1963.25 1556)">
   <path d="M82.07-70.05C82.07-68.18 82.2-66.34 82.46-64.55L20.97-64.55C17.93-64.55 15.47-67.01 15.47-70.05C15.47-73.08 17.93-75.55 20.97-75.55L82.46-75.55C82.2-73.75 82.07-71.91 82.07-70.05ZM76.87-0.15C76.87-2.02 76.74-3.85 76.48-5.65L137.97-5.65C141.01-5.65 143.47-3.19 143.47-0.15C143.47 2.89 141.01 5.35 137.97 5.35L76.48 5.35C76.74 3.56 76.87 1.72 76.87-0.15ZM120.42-98C135.86-98 148.37-85.49 148.37-70.05C148.37-54.61 135.86-42.1 120.42-42.1C104.98-42.1 92.47-54.61 92.47-70.05C92.47-85.49 104.98-98 120.42-98ZM120.42-87C111.06-87 103.47-79.41 103.47-70.05C103.47-60.69 111.06-53.1 120.42-53.1C129.78-53.1 137.37-60.69 137.37-70.05C137.37-79.41 129.78-87 120.42-87ZM38.52-28.1C53.96-28.1 66.47-15.59 66.47-0.15C66.47 15.28 53.96 27.8 38.52 27.8C23.08 27.8 10.57 15.28 10.57-0.15C10.57-15.59 23.08-28.1 38.52-28.1ZM38.52-17.1C29.16-17.1 21.57-9.51 21.57-0.15C21.57 9.21 29.16 16.8 38.52 16.8C47.88 16.8 55.47 9.21 55.47-0.15C55.47-9.51 47.88-17.1 38.52-17.1Z"/>
  </g>
  <g id="Medium-L" transform="matrix(1 0 0 1 1666.54 1556)">
   <path d="M82.07-69.05C82.07-67.35 82.18-65.68 82.39-64.05L20.97-64.05C18.21-64.05 15.97-66.29 15.97-69.05C15.97-71.81 18.21-74.05 20.97-74.05L82.39-74.05C82.18-72.41 82.07-70.74 82.07-69.05ZM76.87-0.15C76.87 1.55 76.76 3.22 76.55 4.85L137.97 4.85C140.73 4.85 142.97 2.61 142.97-0.15C142.97-2.91 140.73-5.15 137.97-5.15L76.55-5.15C76.76-3.51 76.87-1.84 76.87-0.15ZM120.42-97C135.86-97 148.37-84.49 148.37-69.05C148.37-53.61 135.86-41.1 120.42-41.1C104.98-41.1 92.47-53.61 92.47-69.05C92.47-84.49 104.98-97 120.42-97ZM120.42-87C110.51-87 102.47-78.96 102.47-69.05C102.47-59.14 110.51-51.1 120.42-51.1C130.33-51.1 138.37-59.14 138.37-69.05C138.37-78.96 130.33-87 120.42-87ZM38.52-28.1C53.96-28.1 66.47-15.59 66.47-0.15C66.47 15.28 53.96 27.8 38.52 27.8C23.08 27.8 10.57 15.28 10.57-0.15C10.57-15.59 23.08-28.1 38.52-28.1ZM38.52-18.1C28.61-18.1 20.57-10.07 20.57-0.15C20.57 9.76 28.61 17.8 38.52 17.8C48.43 17.8 56.47 9.76 56.47-0.15C56.47-10.07 48.43-18.1 38.52-18.1Z"/>
  </g>
  <g id="Regular-L" transform="matrix(1 0 0 1 1369.83 1556)">
   <path d="M82.07-70.04C82.07-68.52 82.16-67.02 82.33-65.54L20.97-65.54C18.48-65.54 16.47-67.55 16.47-70.04C16.47-72.52 18.48-74.54 20.97-74.54L82.33-74.54C82.16-73.06 82.07-71.56 82.07-70.04ZM76.87-1.14C76.87 0.38 76.78 1.88 76.61 3.36L137.97 3.36C140.46 3.36 142.47 1.34 142.47-1.14C142.47-3.63 140.46-5.64 137.97-5.64L76.61-5.64C76.78-4.16 76.87-2.66 76.87-1.14ZM120.42-97.99C135.86-97.99 148.37-85.48 148.37-70.04C148.37-54.61 135.86-42.09 120.42-42.09C104.98-42.09 92.47-54.61 92.47-70.04C92.47-85.48 104.98-97.99 120.42-97.99ZM120.42-88.99C109.95-88.99 101.47-80.51 101.47-70.04C101.47-59.58 109.95-51.09 120.42-51.09C130.89-51.09 139.37-59.58 139.37-70.04C139.37-80.51 130.89-88.99 120.42-88.99ZM38.52-29.09C53.96-29.09 66.47-16.58 66.47-1.14C66.47 14.29 53.96 26.81 38.52 26.81C23.08 26.81 10.57 14.29 10.57-1.14C10.57-16.58 23.08-29.09 38.52-29.09ZM38.52-20.09C28.05-20.09 19.57-11.61 19.57-1.14C19.57 9.32 28.05 17.81 38.52 17.81C48.99 17.81 57.47 9.32 57.47-1.14C57.47-11.61 48.99-20.09 38.52-20.09Z"/>
  </g>
  <g id="Light-L" transform="matrix(1 0 0 1 1073.12 1556)">
   <path d="M82.07-69.04C82.07-67.69 82.14-66.35 82.28-65.04L20.97-65.04C18.76-65.04 16.97-66.83 16.97-69.04C16.97-71.25 18.76-73.04 20.97-73.04L82.28-73.04C82.14-71.72 82.07-70.39 82.07-69.04ZM76.87-0.14C76.87 1.21 76.8 2.54 76.66 3.86L137.97 3.86C140.18 3.86 141.97 2.07 141.97-0.14C141.97-2.35 140.18-4.14 137.97-4.14L76.66-4.14C76.8-2.83 76.87-1.49 76.87-0.14ZM120.42-96.99C135.86-96.99 148.37-84.48 148.37-69.04C148.37-53.61 135.86-41.09 120.42-41.09C104.98-41.09 92.47-53.61 92.47-69.04C92.47-84.48 104.98-96.99 120.42-96.99ZM120.42-88.99C109.4-88.99 100.47-80.06 100.47-69.04C100.47-58.02 109.4-49.09 120.42-49.09C131.44-49.09 140.37-58.02 140.37-69.04C140.37-80.06 131.44-88.99 120.42-88.99ZM38.52-28.09C53.96-28.09 66.47-15.58 66.47-0.14C66.47 15.29 53.96 27.81 38.52 27.81C23.08 27.81 10.57 15.29 10.57-0.14C10.57-15.58 23.08-28.09 38.52-28.09ZM38.52-20.09C27.5-20.09 18.57-11.16 18.57-0.14C18.57 10.87 27.5 19.81 38.52 19.81C49.54 19.81 58.47 10.87 58.47-0.14C58.47-11.16 49.54-20.09 38.52-20.09Z"/>
  </g>
  <g id="Thin-L" transform="matrix(1 0 0 1 776.407 1556)">
   <path d="M82.07-70.05C82.07-69.04 82.109-68.04 82.186-67.05L20.969-67.05C19.313-67.05 17.969-68.39 17.969-70.05C17.969-71.7 19.313-73.05 20.969-73.05L82.186-73.05C82.109-72.06 82.07-71.06 82.07-70.05ZM76.87-1.15C76.87-0.14 76.831 0.86 76.755 1.85L137.97 1.85C139.627 1.85 140.97 0.51 140.97-1.15C140.97-2.81 139.627-4.15 137.97-4.15L76.755-4.15C76.831-3.16 76.87-2.16 76.87-1.15ZM120.42-98C135.856-98 148.37-85.49 148.37-70.05C148.37-54.61 135.856-42.1 120.42-42.1C104.984-42.1 92.47-54.61 92.47-70.05C92.47-85.49 104.984-98 120.42-98ZM120.42-92C108.297-92 98.47-82.17 98.47-70.05C98.47-57.93 108.297-48.1 120.42-48.1C132.543-48.1 142.37-57.93 142.37-70.05C142.37-82.17 132.543-92 120.42-92ZM38.52-29.1C53.956-29.1 66.47-16.59 66.47-1.15C66.47 14.28 53.956 26.8 38.52 26.8C23.084 26.8 10.57 14.28 10.57-1.15C10.57-16.59 23.084-29.1 38.52-29.1ZM38.52-23.1C26.397-23.1 16.57-13.27 16.57-1.15C16.57 10.97 26.397 20.8 38.52 20.8C50.643 20.8 60.47 10.97 60.47-1.15C60.47-13.27 50.643-23.1 38.52-23.1Z"/>
  </g>
  <g id="Ultralight-L" transform="matrix(1 0 0 1 479.696 1556)">
   <path d="M82.07-70.04C82.07-69.37 82.087-68.7 82.121-68.04L20.969-68.04C19.865-68.04 18.969-68.93 18.969-70.04C18.969-71.14 19.865-72.04 20.969-72.04L82.121-72.04C82.087-71.38 82.07-70.71 82.07-70.04ZM76.87-1.14C76.87-0.47 76.853 0.2 76.819 0.86L137.969 0.86C139.074 0.86 139.969-0.04 139.969-1.14C139.969-2.25 139.074-3.14 137.969-3.14L76.819-3.14C76.853-2.48 76.87-1.81 76.87-1.14ZM120.42-97.99C135.856-97.99 148.37-85.48 148.37-70.04C148.37-54.61 135.856-42.09 120.42-42.09C104.984-42.09 92.47-54.61 92.47-70.04C92.47-85.48 104.984-97.99 120.42-97.99ZM120.42-93.99C107.193-93.99 96.47-83.27 96.47-70.04C96.47-56.81 107.193-46.09 120.42-46.09C133.647-46.09 144.37-56.81 144.37-70.04C144.37-83.27 133.647-93.99 120.42-93.99ZM38.52-29.09C53.956-29.09 66.47-16.58 66.47-1.14C66.47 14.29 53.956 26.81 38.52 26.81C23.084 26.81 10.57 14.29 10.57-1.14C10.57-16.58 23.084-29.09 38.52-29.09ZM38.52-25.09C25.293-25.09 14.57-14.37 14.57-1.14C14.57 12.08 25.293 22.81 38.52 22.81C51.747 22.81 62.47 12.08 62.47-1.14C62.47-14.37 51.747-25.09 38.52-25.09Z"/>
  </g>
  <g id="Black-M" transform="matrix(1 0 0 1 2869.29 1126)">
   <path d="M65.57-63.5C65.57-61.27 65.82-59.09 66.29-57L18.57-57C14.98-57 12.07-59.91 12.07-63.5C12.07-67.09 14.98-70 18.57-70L66.29-70C65.82-67.91 65.57-65.73 65.57-63.5ZM61.57-6.5C61.57-8.73 61.32-10.91 60.85-13L108.57-13C112.16-13 115.07-10.09 115.07-6.5C115.07-2.91 112.16 0 108.57 0L60.85 0C61.32-2.09 61.57-4.27 61.57-6.5ZM95.07-85C106.94-85 116.57-75.37 116.57-63.5C116.57-51.63 106.94-42 95.07-42C83.2-42 73.57-51.63 73.57-63.5C73.57-75.37 83.2-85 95.07-85ZM95.07-72C90.38-72 86.57-68.19 86.57-63.5C86.57-58.81 90.38-55 95.07-55C99.76-55 103.57-58.81 103.57-63.5C103.57-68.19 99.76-72 95.07-72ZM32.07-28C43.94-28 53.57-18.37 53.57-6.5C53.57 5.37 43.94 15 32.07 15C20.2 15 10.57 5.37 10.57-6.5C10.57-18.37 20.2-28 32.07-28ZM32.07-15C27.38-15 23.57-11.19 23.57-6.5C23.57-1.81 27.38 2 32.07 2C36.76 2 40.57-1.81 40.57-6.5C40.57-11.19 36.76-15 32.07-15Z"/>
  </g>
  <g id="Heavy-M" transform="matrix(1 0 0 1 2572.57 1126)">
   <path d="M65.57-63.49C65.57-61.44 65.78-59.43 66.18-57.49L18.57-57.49C15.26-57.49 12.57-60.18 12.57-63.49C12.57-66.81 15.26-69.49 18.57-69.49L66.18-69.49C65.78-67.55 65.57-65.55 65.57-63.49ZM61.57-6.49C61.57-8.55 61.36-10.55 60.96-12.49L108.57-12.49C111.88-12.49 114.57-9.81 114.57-6.49C114.57-3.18 111.88-0.49 108.57-0.49L60.96-0.49C61.36-2.43 61.57-4.44 61.57-6.49ZM95.07-84.99C106.94-84.99 116.57-75.37 116.57-63.49C116.57-51.62 106.94-41.99 95.07-41.99C83.2-41.99 73.57-51.62 73.57-63.49C73.57-75.37 83.2-84.99 95.07-84.99ZM95.07-72.99C89.82-72.99 85.57-68.74 85.57-63.49C85.57-58.25 89.82-53.99 95.07-53.99C100.32-53.99 104.57-58.25 104.57-63.49C104.57-68.74 100.32-72.99 95.07-72.99ZM32.07-27.99C43.94-27.99 53.57-18.37 53.57-6.49C53.57 5.38 43.94 15.01 32.07 15.01C20.2 15.01 10.57 5.38 10.57-6.49C10.57-18.37 20.2-27.99 32.07-27.99ZM32.07-15.99C26.82-15.99 22.57-11.74 22.57-6.49C22.57-1.25 26.82 3.01 32.07 3.01C37.32 3.01 41.57-1.25 41.57-6.49C41.57-11.74 37.32-15.99 32.07-15.99Z"/>
  </g>
  <g id="Bold-M" transform="matrix(1 0 0 1 2275.86 1126)">
   <path d="M65.57-62.49C65.57-60.61 65.75-58.77 66.08-56.99L18.57-56.99C15.53-56.99 13.07-59.45 13.07-62.49C13.07-65.53 15.53-67.99 18.57-67.99L66.08-67.99C65.75-66.21 65.57-64.37 65.57-62.49ZM108.57-12.99C111.61-12.99 114.07-10.53 114.07-7.49C114.07-4.45 111.61-1.99 108.57-1.99L61.06-1.99C61.39-3.77 61.57-5.61 61.57-7.49C61.57-9.37 61.39-11.21 61.06-12.99L108.57-12.99ZM95.07-83.99C106.94-83.99 116.57-74.37 116.57-62.49C116.57-50.62 106.94-40.99 95.07-40.99C83.2-40.99 73.57-50.62 73.57-62.49C73.57-74.37 83.2-83.99 95.07-83.99ZM95.07-72.99C89.27-72.99 84.57-68.29 84.57-62.49C84.57-56.69 89.27-51.99 95.07-51.99C100.87-51.99 105.57-56.69 105.57-62.49C105.57-68.29 100.87-72.99 95.07-72.99ZM32.07-28.99C43.94-28.99 53.57-19.37 53.57-7.49C53.57 4.38 43.94 14.01 32.07 14.01C20.2 14.01 10.57 4.38 10.57-7.49C10.57-19.37 20.2-28.99 32.07-28.99ZM32.07-17.99C26.27-17.99 21.57-13.29 21.57-7.49C21.57-1.69 26.27 3.01 32.07 3.01C37.87 3.01 42.57-1.69 42.57-7.49C42.57-13.29 37.87-17.99 32.07-17.99Z"/>
  </g>
  <g id="Semibold-M" transform="matrix(1 0 0 1 1979.15 1126)">
   <path d="M65.57-62.5C65.57-60.8 65.71-59.13 65.99-57.5L18.57-57.5C15.81-57.5 13.57-59.74 13.57-62.5C13.57-65.26 15.81-67.5 18.57-67.5L65.99-67.5C65.71-65.87 65.57-64.2 65.57-62.5ZM61.57-7.5C61.57-9.2 61.43-10.87 61.15-12.5L108.57-12.5C111.33-12.5 113.57-10.26 113.57-7.5C113.57-4.74 111.33-2.5 108.57-2.5L61.15-2.5C61.43-4.13 61.57-5.8 61.57-7.5ZM95.07-84C106.94-84 116.57-74.37 116.57-62.5C116.57-50.63 106.94-41 95.07-41C83.2-41 73.57-50.63 73.57-62.5C73.57-74.37 83.2-84 95.07-84ZM95.07-74C88.72-74 83.57-68.85 83.57-62.5C83.57-56.15 88.72-51 95.07-51C101.42-51 106.57-56.15 106.57-62.5C106.57-68.85 101.42-74 95.07-74ZM32.07-29C43.94-29 53.57-19.37 53.57-7.5C53.57 4.37 43.94 14 32.07 14C20.2 14 10.57 4.37 10.57-7.5C10.57-19.37 20.2-29 32.07-29ZM32.07-19C25.72-19 20.57-13.85 20.57-7.5C20.57-1.15 25.72 4 32.07 4C38.42 4 43.57-1.15 43.57-7.5C43.57-13.85 38.42-19 32.07-19Z"/>
  </g>
  <g id="Medium-M" transform="matrix(1 0 0 1 1682.44 1126)">
   <path d="M65.57-61.5C65.57-59.97 65.69-58.47 65.91-57L18.57-57C16.08-57 14.07-59.01 14.07-61.5C14.07-63.99 16.08-66 18.57-66L65.91-66C65.69-64.53 65.57-63.03 65.57-61.5ZM61.57-8.5C61.57-10.03 61.45-11.53 61.23-13L108.57-13C111.06-13 113.07-10.99 113.07-8.5C113.07-6.01 111.06-4 108.57-4L61.23-4C61.45-5.47 61.57-6.97 61.57-8.5ZM95.07-83C106.94-83 116.57-73.37 116.57-61.5C116.57-49.63 106.94-40 95.07-40C83.2-40 73.57-49.63 73.57-61.5C73.57-73.37 83.2-83 95.07-83ZM95.07-74C88.17-74 82.57-68.4 82.57-61.5C82.57-54.6 88.17-49 95.07-49C101.97-49 107.57-54.6 107.57-61.5C107.57-68.4 101.97-74 95.07-74ZM32.07-30C43.94-30 53.57-20.37 53.57-8.5C53.57 3.37 43.94 13 32.07 13C20.2 13 10.57 3.37 10.57-8.5C10.57-20.37 20.2-30 32.07-30ZM32.07-21C25.17-21 19.57-15.4 19.57-8.5C19.57-1.6 25.17 4 32.07 4C38.97 4 44.57-1.6 44.57-8.5C44.57-15.4 38.97-21 32.07-21Z"/>
  </g>
  <g id="Regular-M" transform="matrix(1 0 0 1 1385.73 1126)">
   <path d="M65.57-61.5C65.57-60.14 65.66-58.81 65.84-57.5L18.57-57.5C16.36-57.5 14.57-59.29 14.57-61.5C14.57-63.71 16.36-65.5 18.57-65.5L65.84-65.5C65.66-64.19 65.57-62.86 65.57-61.5ZM61.57-8.5C61.57-7.14 61.48-5.81 61.3-4.5L108.57-4.5C110.78-4.5 112.57-6.29 112.57-8.5C112.57-10.71 110.78-12.5 108.57-12.5L61.3-12.5C61.48-11.19 61.57-9.86 61.57-8.5ZM95.07-83C106.94-83 116.57-73.37 116.57-61.5C116.57-49.63 106.94-40 95.07-40C83.2-40 73.57-49.63 73.57-61.5C73.57-73.37 83.2-83 95.07-83ZM95.07-75C87.61-75 81.57-68.96 81.57-61.5C81.57-54.04 87.61-48 95.07-48C102.53-48 108.57-54.04 108.57-61.5C108.57-68.96 102.53-75 95.07-75ZM32.07-30C43.94-30 53.57-20.37 53.57-8.5C53.57 3.37 43.94 13 32.07 13C20.2 13 10.57 3.37 10.57-8.5C10.57-20.37 20.2-30 32.07-30ZM32.07-22C24.61-22 18.57-15.96 18.57-8.5C18.57-1.04 24.61 5 32.07 5C39.53 5 45.57-1.04 45.57-8.5C45.57-15.96 39.53-22 32.07-22Z"/>
  </g>
  <g id="Light-M" transform="matrix(1 0 0 1 1089.02 1126)">
   <path d="M65.57-61.5C65.57-60.32 65.64-59.15 65.78-58L18.57-58C16.64-58 15.07-59.57 15.07-61.5C15.07-63.43 16.64-65 18.57-65L65.78-65C65.64-63.85 65.57-62.68 65.57-61.5ZM61.57-9.5C61.57-8.32 61.5-7.15 61.36-6L108.57-6C110.5-6 112.07-7.57 112.07-9.5C112.07-11.43 110.5-13 108.57-13L61.36-13C61.5-11.85 61.57-10.68 61.57-9.5ZM95.07-83C106.94-83 116.57-73.37 116.57-61.5C116.57-49.63 106.94-40 95.07-40C83.2-40 73.57-49.63 73.57-61.5C73.57-73.37 83.2-83 95.07-83ZM95.07-76C87.06-76 80.57-69.51 80.57-61.5C80.57-53.49 87.06-47 95.07-47C103.08-47 109.57-53.49 109.57-61.5C109.57-69.51 103.08-76 95.07-76ZM32.07-31C43.94-31 53.57-21.37 53.57-9.5C53.57 2.37 43.94 12 32.07 12C20.2 12 10.57 2.37 10.57-9.5C10.57-21.37 20.2-31 32.07-31ZM32.07-24C24.06-24 17.57-17.51 17.57-9.5C17.57-1.49 24.06 5 32.07 5C40.08 5 46.57-1.49 46.57-9.5C46.57-17.51 40.08-24 32.07-24Z"/>
  </g>
  <g id="Thin-M" transform="matrix(1 0 0 1 792.307 1126)">
   <path d="M65.57-61.5C65.57-60.66 65.605-59.82 65.674-59L18.57-59C17.189-59 16.07-60.12 16.07-61.5C16.07-62.88 17.189-64 18.57-64L65.674-64C65.605-63.18 65.57-62.34 65.57-61.5ZM61.57-9.5C61.57-8.66 61.535-7.82 61.466-7L108.57-7C109.951-7 111.07-8.12 111.07-9.5C111.07-10.88 109.951-12 108.57-12L61.466-12C61.535-11.18 61.57-10.34 61.57-9.5ZM95.07-83C106.944-83 116.57-73.37 116.57-61.5C116.57-49.63 106.944-40 95.07-40C83.196-40 73.57-49.63 73.57-61.5C73.57-73.37 83.196-83 95.07-83ZM95.07-78C85.957-78 78.57-70.61 78.57-61.5C78.57-52.39 85.957-45 95.07-45C104.183-45 111.57-52.39 111.57-61.5C111.57-70.61 104.183-78 95.07-78ZM32.07-31C43.944-31 53.57-21.37 53.57-9.5C53.57 2.37 43.944 12 32.07 12C20.196 12 10.57 2.37 10.57-9.5C10.57-21.37 20.196-31 32.07-31ZM32.07-26C22.957-26 15.57-18.61 15.57-9.5C15.57-0.39 22.957 7 32.07 7C41.183 7 48.57-0.39 48.57-9.5C48.57-18.61 41.183-26 32.07-26Z"/>
  </g>
  <g id="Ultralight-M" transform="matrix(1 0 0 1 495.596 1126)">
   <path d="M65.57-62.49C65.57-61.99 65.582-61.49 65.607-60.99L18.57-60.99C17.741-60.99 17.07-61.66 17.07-62.49C17.07-63.32 17.741-63.99 18.57-63.99L65.607-63.99C65.582-63.5 65.57-63 65.57-62.49ZM61.57-10.49C61.57-9.99 61.558-9.49 61.533-8.99L108.57-8.99C109.399-8.99 110.07-9.66 110.07-10.49C110.07-11.32 109.399-11.99 108.57-11.99L61.533-11.99C61.558-11.5 61.57-11 61.57-10.49ZM95.07-83.99C106.944-83.99 116.57-74.37 116.57-62.49C116.57-50.62 106.944-40.99 95.07-40.99C83.196-40.99 73.57-50.62 73.57-62.49C73.57-74.37 83.196-83.99 95.07-83.99ZM95.07-80.99C84.853-80.99 76.57-72.71 76.57-62.49C76.57-52.27 84.853-43.99 95.07-43.99C105.287-43.99 113.57-52.27 113.57-62.49C113.57-72.71 105.287-80.99 95.07-80.99ZM32.07-31.99C43.944-31.99 53.57-22.37 53.57-10.49C53.57 1.38 43.944 11.01 32.07 11.01C20.196 11.01 10.57 1.38 10.57-10.49C10.57-22.37 20.196-31.99 32.07-31.99ZM32.07-28.99C21.853-28.99 13.57-20.71 13.57-10.49C13.57-0.27 21.853 8.01 32.07 8.01C42.287 8.01 50.57-0.27 50.57-10.49C50.57-20.71 42.287-28.99 32.07-28.99Z"/>
  </g>
  <g id="Black-S" transform="matrix(1 0 0 1 2878.79 696)">
   <path d="M55.71-57.352C55.71-55.281 55.97-53.27 56.46-51.352L17.14-51.352C13.82-51.352 11.14-54.038 11.14-57.352C11.14-60.665 13.82-63.352 17.14-63.352L56.46-63.352C55.97-61.433 55.71-59.423 55.71-57.352ZM52.43-13.852C52.43-15.923 52.17-17.933 51.68-19.852L91-19.852C94.32-19.852 97-17.165 97-13.852C97-10.538 94.32-7.852 91-7.852L51.68-7.852C52.17-9.77 52.43-11.781 52.43-13.852ZM80.07-75C89.73-75 97.57-67.165 97.57-57.5C97.57-47.835 89.73-40 80.07-40C70.41-40 62.57-47.835 62.57-57.5C62.57-67.165 70.41-75 80.07-75ZM80.07-63C77.03-63 74.57-60.538 74.57-57.5C74.57-54.462 77.03-52 80.07-52C83.11-52 85.57-54.462 85.57-57.5C85.57-60.538 83.11-63 80.07-63ZM28.07-31C37.73-31 45.57-23.165 45.57-13.5C45.57-3.835 37.73 4 28.07 4C18.41 4 10.57-3.835 10.57-13.5C10.57-23.165 18.41-31 28.07-31ZM28.07-19C25.03-19 22.57-16.538 22.57-13.5C22.57-10.462 25.03-8 28.07-8C31.11-8 33.57-10.462 33.57-13.5C33.57-16.538 31.11-19 28.07-19Z"/>
  </g>
  <g id="Heavy-S" transform="matrix(1 0 0 1 2582.07 696)">
   <path d="M55.71-57.344C55.71-55.452 55.93-53.611 56.34-51.844L17.14-51.844C14.1-51.844 11.64-54.306 11.64-57.344C11.64-60.381 14.1-62.844 17.14-62.844L56.34-62.844C55.93-61.077 55.71-59.236 55.71-57.344ZM52.43-13.844C52.43-15.736 52.21-17.577 51.8-19.344L91-19.344C94.04-19.344 96.5-16.881 96.5-13.844C96.5-10.806 94.04-8.344 91-8.344L51.8-8.344C52.21-10.111 52.43-11.952 52.43-13.844ZM80.07-74.992C89.73-74.992 97.57-67.157 97.57-57.492C97.57-47.827 89.73-39.992 80.07-39.992C70.41-39.992 62.57-47.827 62.57-57.492C62.57-67.157 70.41-74.992 80.07-74.992ZM80.07-63.992C76.48-63.992 73.57-61.082 73.57-57.492C73.57-53.902 76.48-50.992 80.07-50.992C83.66-50.992 86.57-53.902 86.57-57.492C86.57-61.082 83.66-63.992 80.07-63.992ZM28.07-30.992C37.73-30.992 45.57-23.157 45.57-13.492C45.57-3.827 37.73 4.008 28.07 4.008C18.41 4.008 10.57-3.827 10.57-13.492C10.57-23.157 18.41-30.992 28.07-30.992ZM28.07-19.992C24.48-19.992 21.57-17.082 21.57-13.492C21.57-9.902 24.48-6.992 28.07-6.992C31.66-6.992 34.57-9.902 34.57-13.492C34.57-17.082 31.66-19.992 28.07-19.992Z"/>
  </g>
  <g id="Bold-S" transform="matrix(1 0 0 1 2285.36 696)">
   <path d="M55.71-57.352C55.71-55.637 55.89-53.965 56.23-52.352L17.14-52.352C14.37-52.352 12.14-54.59 12.14-57.352C12.14-60.113 14.37-62.352 17.14-62.352L56.23-62.352C55.89-60.738 55.71-59.066 55.71-57.352ZM52.43-13.852C52.43-15.566 52.25-17.238 51.91-18.852L91-18.852C93.76-18.852 96-16.613 96-13.852C96-11.09 93.76-8.852 91-8.852L51.91-8.852C52.25-10.465 52.43-12.137 52.43-13.852ZM80.07-75C89.73-75 97.57-67.165 97.57-57.5C97.57-47.835 89.73-40 80.07-40C70.41-40 62.57-47.835 62.57-57.5C62.57-67.165 70.41-75 80.07-75ZM80.07-65C75.93-65 72.57-61.642 72.57-57.5C72.57-53.358 75.93-50 80.07-50C84.21-50 87.57-53.358 87.57-57.5C87.57-61.642 84.21-65 80.07-65ZM28.07-31C37.73-31 45.57-23.165 45.57-13.5C45.57-3.835 37.73 4 28.07 4C18.41 4 10.57-3.835 10.57-13.5C10.57-23.165 18.41-31 28.07-31ZM28.07-21C23.93-21 20.57-17.642 20.57-13.5C20.57-9.358 23.93-6 28.07-6C32.21-6 35.57-9.358 35.57-13.5C35.57-17.642 32.21-21 28.07-21Z"/>
  </g>
  <g id="Semibold-S" transform="matrix(1 0 0 1 1988.65 696)">
   <path d="M55.71-57.352C55.71-55.814 55.85-54.31 56.13-52.852L17.14-52.852C14.65-52.852 12.64-54.866 12.64-57.352C12.64-59.837 14.65-61.852 17.14-61.852L56.13-61.852C55.85-60.393 55.71-58.889 55.71-57.352ZM52.43-13.852C52.43-15.389 52.28-16.893 52.01-18.352L91-18.352C93.49-18.352 95.5-16.337 95.5-13.852C95.5-11.366 93.49-9.352 91-9.352L52.01-9.352C52.28-10.81 52.43-12.314 52.43-13.852ZM80.07-75C89.73-75 97.57-67.165 97.57-57.5C97.57-47.835 89.73-40 80.07-40C70.41-40 62.57-47.835 62.57-57.5C62.57-67.165 70.41-75 80.07-75ZM80.07-66C75.38-66 71.57-62.194 71.57-57.5C71.57-52.806 75.38-49 80.07-49C84.76-49 88.57-52.806 88.57-57.5C88.57-62.194 84.76-66 80.07-66ZM28.07-31C37.73-31 45.57-23.165 45.57-13.5C45.57-3.835 37.73 4 28.07 4C18.41 4 10.57-3.835 10.57-13.5C10.57-23.165 18.41-31 28.07-31ZM28.07-22C23.38-22 19.57-18.194 19.57-13.5C19.57-8.806 23.38-5 28.07-5C32.76-5 36.57-8.806 36.57-13.5C36.57-18.194 32.76-22 28.07-22Z"/>
  </g>
  <g id="Medium-S" transform="matrix(1 0 0 1 1691.94 696)">
   <path d="M55.71-56.352C55.71-54.989 55.82-53.653 56.04-52.352L17.14-52.352C14.93-52.352 13.14-54.142 13.14-56.352C13.14-58.561 14.93-60.352 17.14-60.352L56.04-60.352C55.82-59.05 55.71-57.714 55.71-56.352ZM52.43-12.852C52.43-14.214 52.32-15.55 52.1-16.852L91-16.852C93.21-16.852 95-15.061 95-12.852C95-10.642 93.21-8.852 91-8.852L52.1-8.852C52.32-10.153 52.43-11.489 52.43-12.852ZM80.07-74C89.73-74 97.57-66.165 97.57-56.5C97.57-46.835 89.73-39 80.07-39C70.41-39 62.57-46.835 62.57-56.5C62.57-66.165 70.41-74 80.07-74ZM80.07-66C74.82-66 70.57-61.747 70.57-56.5C70.57-51.253 74.82-47 80.07-47C85.32-47 89.57-51.253 89.57-56.5C89.57-61.747 85.32-66 80.07-66ZM28.07-30C37.73-30 45.57-22.165 45.57-12.5C45.57-2.835 37.73 5 28.07 5C18.41 5 10.57-2.835 10.57-12.5C10.57-22.165 18.41-30 28.07-30ZM28.07-22C22.82-22 18.57-17.747 18.57-12.5C18.57-7.253 22.82-3 28.07-3C33.32-3 37.57-7.253 37.57-12.5C37.57-17.747 33.32-22 28.07-22Z"/>
  </g>
  <g id="Regular-S" transform="matrix(1 0 0 1 1395.23 696)">
   <path d="M55.71-57.344C55.71-56.155 55.8-54.987 55.96-53.844L17.14-53.844C15.2-53.844 13.64-55.411 13.64-57.344C13.64-59.277 15.2-60.844 17.14-60.844L55.96-60.844C55.8-59.701 55.71-58.532 55.71-57.344ZM52.43-13.844C52.43-15.032 52.34-16.201 52.18-17.344L91-17.344C92.94-17.344 94.5-15.777 94.5-13.844C94.5-11.911 92.94-10.344 91-10.344L52.18-10.344C52.34-11.487 52.43-12.655 52.43-13.844ZM80.07-74.992C89.73-74.992 97.57-67.157 97.57-57.492C97.57-47.827 89.73-39.992 80.07-39.992C70.41-39.992 62.57-47.827 62.57-57.492C62.57-67.157 70.41-74.992 80.07-74.992ZM80.07-67.992C74.27-67.992 69.57-63.291 69.57-57.492C69.57-51.693 74.27-46.992 80.07-46.992C85.87-46.992 90.57-51.693 90.57-57.492C90.57-63.291 85.87-67.992 80.07-67.992ZM28.07-30.992C37.73-30.992 45.57-23.157 45.57-13.492C45.57-3.827 37.73 4.008 28.07 4.008C18.41 4.008 10.57-3.827 10.57-13.492C10.57-23.157 18.41-30.992 28.07-30.992ZM28.07-23.992C22.27-23.992 17.57-19.291 17.57-13.492C17.57-7.693 22.27-2.992 28.07-2.992C33.87-2.992 38.57-7.693 38.57-13.492C38.57-19.291 33.87-23.992 28.07-23.992Z"/>
  </g>
  <g id="Light-S" transform="matrix(1 0 0 1 1098.52 696)">
   <path d="M55.71-56.352C55.71-55.336 55.77-54.335 55.9-53.352L17.14-53.352C15.48-53.352 14.14-54.695 14.14-56.352C14.14-58.008 15.48-59.352 17.14-59.352L55.9-59.352C55.77-58.369 55.71-57.367 55.71-56.352ZM52.43-12.852C52.43-11.836 52.37-10.835 52.24-9.852L91-9.852C92.66-9.852 94-11.195 94-12.852C94-14.508 92.66-15.852 91-15.852L52.24-15.852C52.37-14.869 52.43-13.867 52.43-12.852ZM80.07-74C89.74-74 97.57-66.165 97.57-56.5C97.57-46.835 89.74-39 80.07-39C70.41-39 62.57-46.835 62.57-56.5C62.57-66.165 70.41-74 80.07-74ZM80.07-68C73.72-68 68.57-62.851 68.57-56.5C68.57-50.149 73.72-45 80.07-45C86.42-45 91.57-50.149 91.57-56.5C91.57-62.851 86.42-68 80.07-68ZM28.07-30C37.74-30 45.57-22.165 45.57-12.5C45.57-2.835 37.74 5 28.07 5C18.41 5 10.57-2.835 10.57-12.5C10.57-22.165 18.41-30 28.07-30ZM28.07-24C21.72-24 16.57-18.851 16.57-12.5C16.57-6.149 21.72-1 28.07-1C34.42-1 39.57-6.149 39.57-12.5C39.57-18.851 34.42-24 28.07-24Z"/>
  </g>
  <g id="Thin-S" transform="matrix(1 0 0 1 801.807 696)">
   <path d="M55.711-56.352C55.711-55.678 55.739-55.011 55.793-54.352L17.135-54.352C16.031-54.352 15.135-55.247 15.135-56.352C15.135-57.456 16.031-58.352 17.135-58.352L55.793-58.352C55.739-57.692 55.711-57.025 55.711-56.352ZM52.428-12.852C52.428-12.178 52.401-11.511 52.347-10.852L91.003-10.852C92.108-10.852 93.003-11.747 93.003-12.852C93.003-13.956 92.108-14.852 91.003-14.852L52.347-14.852C52.401-14.192 52.428-13.525 52.428-12.852ZM80.07-74C89.735-74 97.57-66.165 97.57-56.5C97.57-46.835 89.735-39 80.07-39C70.405-39 62.57-46.835 62.57-56.5C62.57-66.165 70.405-74 80.07-74ZM80.07-70C72.614-70 66.57-63.956 66.57-56.5C66.57-49.044 72.614-43 80.07-43C87.526-43 93.57-49.044 93.57-56.5C93.57-63.956 87.526-70 80.07-70ZM28.07-30C37.735-30 45.57-22.165 45.57-12.5C45.57-2.835 37.735 5 28.07 5C18.405 5 10.57-2.835 10.57-12.5C10.57-22.165 18.405-30 28.07-30ZM28.07-26C20.614-26 14.57-19.956 14.57-12.5C14.57-5.044 20.614 1 28.07 1C35.526 1 41.57-5.044 41.57-12.5C41.57-19.956 35.526-26 28.07-26Z"/>
  </g>
  <g id="Ultralight-S" transform="matrix(1 0 0 1 505.096 696)">
   <path d="M55.711-56.352C55.711-55.848 55.727-55.348 55.757-54.852L17.135-54.852C16.307-54.852 15.635-55.523 15.635-56.352C15.635-57.18 16.307-57.852 17.135-57.852L55.757-57.852C55.727-57.355 55.711-56.855 55.711-56.352ZM52.429-12.852C52.429-12.348 52.413-11.848 52.383-11.352L91.004-11.352C91.832-11.352 92.504-12.023 92.504-12.852C92.504-13.68 91.832-14.352 91.004-14.352L52.383-14.352C52.413-13.855 52.429-13.355 52.429-12.852ZM80.07-74C89.735-74 97.57-66.165 97.57-56.5C97.57-46.835 89.735-39 80.07-39C70.405-39 62.57-46.835 62.57-56.5C62.57-66.165 70.405-74 80.07-74ZM80.07-71C72.062-71 65.57-64.508 65.57-56.5C65.57-48.492 72.062-42 80.07-42C88.078-42 94.57-48.492 94.57-56.5C94.57-64.508 88.078-71 80.07-71ZM28.07-30C37.735-30 45.57-22.165 45.57-12.5C45.57-2.835 37.735 5 28.07 5C18.405 5 10.57-2.835 10.57-12.5C10.57-22.165 18.405-30 28.07-30ZM28.07-27C20.062-27 13.57-20.508 13.57-12.5C13.57-4.492 20.062 2 28.07 2C36.078 2 42.57-4.492 42.57-12.5C42.57-20.508 36.078-27 28.07-27Z"/>
  </g>
 </g>
</svg>
