<?xml version="1.0" encoding="UTF-8"?>
<!--Generator: Apple Native CoreSVG 175-->
<!DOCTYPE svg
PUBLIC "-//W3C//DTD SVG 1.1//EN"
       "http://www.w3.org/Graphics/SVG/1.1/DTD/svg11.dtd">
<svg version="1.1" xmlns="http://www.w3.org/2000/svg" xmlns:xlink="http://www.w3.org/1999/xlink" width="3300" height="2200">
 <!--glyph: "", point size: 100.0, font version: "17.1d1e1", template writer version: "65.1"-->
 <g id="Notes">
  <rect height="2200" id="artboard" style="fill:white;opacity:1" width="3300" x="0" y="0"/>
  <line style="fill:none;stroke:black;opacity:1;stroke-width:0.5;" x1="263" x2="3036" y1="292" y2="292"/>
  <text style="stroke:none;fill:black;font-family:sans-serif;font-size:13;font-weight:bold;" transform="matrix(1 0 0 1 263 322)">Weight/Scale Variations</text>
  <text style="stroke:none;fill:black;font-family:sans-serif;font-size:13;text-anchor:middle;" transform="matrix(1 0 0 1 559.711 322)">Ultralight</text>
  <text style="stroke:none;fill:black;font-family:sans-serif;font-size:13;text-anchor:middle;" transform="matrix(1 0 0 1 856.422 322)">Thin</text>
  <text style="stroke:none;fill:black;font-family:sans-serif;font-size:13;text-anchor:middle;" transform="matrix(1 0 0 1 1153.13 322)">Light</text>
  <text style="stroke:none;fill:black;font-family:sans-serif;font-size:13;text-anchor:middle;" transform="matrix(1 0 0 1 1449.84 322)">Regular</text>
  <text style="stroke:none;fill:black;font-family:sans-serif;font-size:13;text-anchor:middle;" transform="matrix(1 0 0 1 1746.56 322)">Medium</text>
  <text style="stroke:none;fill:black;font-family:sans-serif;font-size:13;text-anchor:middle;" transform="matrix(1 0 0 1 2043.27 322)">Semibold</text>
  <text style="stroke:none;fill:black;font-family:sans-serif;font-size:13;text-anchor:middle;" transform="matrix(1 0 0 1 2339.98 322)">Bold</text>
  <text style="stroke:none;fill:black;font-family:sans-serif;font-size:13;text-anchor:middle;" transform="matrix(1 0 0 1 2636.69 322)">Heavy</text>
  <text style="stroke:none;fill:black;font-family:sans-serif;font-size:13;text-anchor:middle;" transform="matrix(1 0 0 1 2933.4 322)">Black</text>
  <line style="fill:none;stroke:black;opacity:1;stroke-width:0.5;" x1="263" x2="3036" y1="1903" y2="1903"/>
  <g transform="matrix(1 0 0 1 263 1933)">
   <path d="M9.24805 0.830078Q10.8691 0.830078 12.2949 0.214844Q13.7207-0.400391 14.8096-1.49414Q15.8984-2.58789 16.5186-4.01367Q17.1387-5.43945 17.1387-7.05078Q17.1387-8.66211 16.5186-10.0879Q15.8984-11.5137 14.8047-12.6074Q13.7109-13.7012 12.2852-14.3164Q10.8594-14.9316 9.23828-14.9316Q7.62695-14.9316 6.20117-14.3164Q4.77539-13.7012 3.69141-12.6074Q2.60742-11.5137 1.9873-10.0879Q1.36719-8.66211 1.36719-7.05078Q1.36719-5.43945 1.9873-4.01367Q2.60742-2.58789 3.69629-1.49414Q4.78516-0.400391 6.21094 0.214844Q7.63672 0.830078 9.24805 0.830078ZM9.24805-0.654297Q7.91992-0.654297 6.7627-1.14746Q5.60547-1.64062 4.73145-2.51953Q3.85742-3.39844 3.36426-4.56055Q2.87109-5.72266 2.87109-7.05078Q2.87109-8.37891 3.35938-9.54102Q3.84766-10.7031 4.72168-11.582Q5.5957-12.4609 6.75293-12.9541Q7.91016-13.4473 9.23828-13.4473Q10.5762-13.4473 11.7334-12.9541Q12.8906-12.4609 13.7695-11.582Q14.6484-10.7031 15.1465-9.54102Q15.6445-8.37891 15.6445-7.05078Q15.6445-5.72266 15.1514-4.56055Q14.6582-3.39844 13.7842-2.51953Q12.9102-1.64062 11.748-1.14746Q10.5859-0.654297 9.24805-0.654297ZM5.6543-7.05078Q5.6543-6.72852 5.85938-6.52832Q6.06445-6.32812 6.40625-6.32812L8.51562-6.32812L8.51562-4.20898Q8.51562-3.88672 8.71094-3.67676Q8.90625-3.4668 9.23828-3.4668Q9.56055-3.4668 9.77051-3.67676Q9.98047-3.88672 9.98047-4.20898L9.98047-6.32812L12.0898-6.32812Q12.4219-6.32812 12.627-6.52832Q12.832-6.72852 12.832-7.05078Q12.832-7.38281 12.627-7.58789Q12.4219-7.79297 12.0898-7.79297L9.98047-7.79297L9.98047-9.90234Q9.98047-10.2344 9.77051-10.4443Q9.56055-10.6543 9.23828-10.6543Q8.90625-10.6543 8.71094-10.4443Q8.51562-10.2344 8.51562-9.90234L8.51562-7.79297L6.40625-7.79297Q6.06445-7.79297 5.85938-7.58789Q5.6543-7.38281 5.6543-7.05078Z"/>
  </g>
  <g transform="matrix(1 0 0 1 281.867 1933)">
   <path d="M11.709 2.91016Q13.75 2.91016 15.5518 2.12891Q17.3535 1.34766 18.7305-0.0292969Q20.1074-1.40625 20.8887-3.20801Q21.6699-5.00977 21.6699-7.05078Q21.6699-9.0918 20.8887-10.8936Q20.1074-12.6953 18.7305-14.0723Q17.3535-15.4492 15.5469-16.2305Q13.7402-17.0117 11.6992-17.0117Q9.6582-17.0117 7.85645-16.2305Q6.05469-15.4492 4.68262-14.0723Q3.31055-12.6953 2.5293-10.8936Q1.74805-9.0918 1.74805-7.05078Q1.74805-5.00977 2.5293-3.20801Q3.31055-1.40625 4.6875-0.0292969Q6.06445 1.34766 7.86621 2.12891Q9.66797 2.91016 11.709 2.91016ZM11.709 1.25Q9.98047 1.25 8.47656 0.605469Q6.97266-0.0390625 5.83496-1.17676Q4.69727-2.31445 4.05762-3.81836Q3.41797-5.32227 3.41797-7.05078Q3.41797-8.7793 4.05762-10.2832Q4.69727-11.7871 5.83008-12.9297Q6.96289-14.0723 8.4668-14.7119Q9.9707-15.3516 11.6992-15.3516Q13.4277-15.3516 14.9316-14.7119Q16.4355-14.0723 17.5781-12.9297Q18.7207-11.7871 19.3652-10.2832Q20.0098-8.7793 20.0098-7.05078Q20.0098-5.32227 19.3701-3.81836Q18.7305-2.31445 17.5928-1.17676Q16.4551-0.0390625 14.9463 0.605469Q13.4375 1.25 11.709 1.25ZM7.17773-7.05078Q7.17773-6.69922 7.41211-6.47461Q7.64648-6.25 8.01758-6.25L10.8887-6.25L10.8887-3.36914Q10.8887-2.99805 11.1133-2.76855Q11.3379-2.53906 11.6895-2.53906Q12.0605-2.53906 12.29-2.76855Q12.5195-2.99805 12.5195-3.36914L12.5195-6.25L15.4004-6.25Q15.7715-6.25 16.001-6.47461Q16.2305-6.69922 16.2305-7.05078Q16.2305-7.42188 16.001-7.65137Q15.7715-7.88086 15.4004-7.88086L12.5195-7.88086L12.5195-10.752Q12.5195-11.1328 12.29-11.3623Q12.0605-11.5918 11.6895-11.5918Q11.3379-11.5918 11.1133-11.3574Q10.8887-11.123 10.8887-10.752L10.8887-7.88086L8.01758-7.88086Q7.63672-7.88086 7.40723-7.65137Q7.17773-7.42188 7.17773-7.05078Z"/>
  </g>
  <g transform="matrix(1 0 0 1 305.646 1933)">
   <path d="M14.9707 5.66406Q17.0605 5.66406 18.96 5.01465Q20.8594 4.36523 22.4512 3.19336Q24.043 2.02148 25.2197 0.429688Q26.3965-1.16211 27.0459-3.06641Q27.6953-4.9707 27.6953-7.05078Q27.6953-9.14062 27.0459-11.04Q26.3965-12.9395 25.2197-14.5312Q24.043-16.123 22.4512-17.2998Q20.8594-18.4766 18.9551-19.126Q17.0508-19.7754 14.9609-19.7754Q12.8711-19.7754 10.9717-19.126Q9.07227-18.4766 7.48535-17.2998Q5.89844-16.123 4.72168-14.5312Q3.54492-12.9395 2.90039-11.04Q2.25586-9.14062 2.25586-7.05078Q2.25586-4.9707 2.90527-3.06641Q3.55469-1.16211 4.72656 0.429688Q5.89844 2.02148 7.49023 3.19336Q9.08203 4.36523 10.9814 5.01465Q12.8809 5.66406 14.9707 5.66406ZM14.9707 3.84766Q13.1641 3.84766 11.5283 3.2959Q9.89258 2.74414 8.53516 1.74805Q7.17773 0.751953 6.17676-0.610352Q5.17578-1.97266 4.62891-3.6084Q4.08203-5.24414 4.08203-7.05078Q4.08203-8.86719 4.62891-10.5029Q5.17578-12.1387 6.17188-13.501Q7.16797-14.8633 8.52539-15.8594Q9.88281-16.8555 11.5186-17.4023Q13.1543-17.9492 14.9609-17.9492Q16.7773-17.9492 18.4131-17.4023Q20.0488-16.8555 21.4111-15.8594Q22.7734-14.8633 23.7695-13.501Q24.7656-12.1387 25.3174-10.5029Q25.8691-8.86719 25.8691-7.05078Q25.8789-5.24414 25.332-3.6084Q24.7852-1.97266 23.7842-0.610352Q22.7832 0.751953 21.4209 1.74805Q20.0586 2.74414 18.4229 3.2959Q16.7871 3.84766 14.9707 3.84766ZM9.19922-7.05078Q9.19922-6.66992 9.45801-6.4209Q9.7168-6.17188 10.1172-6.17188L14.0625-6.17188L14.0625-2.2168Q14.0625-1.81641 14.3115-1.55762Q14.5605-1.29883 14.9512-1.29883Q15.3516-1.29883 15.6104-1.55273Q15.8691-1.80664 15.8691-2.2168L15.8691-6.17188L19.8242-6.17188Q20.2246-6.17188 20.4785-6.4209Q20.7324-6.66992 20.7324-7.05078Q20.7324-7.46094 20.4785-7.71484Q20.2246-7.96875 19.8242-7.96875L15.8691-7.96875L15.8691-11.9141Q15.8691-12.3242 15.6104-12.583Q15.3516-12.8418 14.9512-12.8418Q14.5605-12.8418 14.3115-12.583Q14.0625-12.3242 14.0625-11.9141L14.0625-7.96875L10.1172-7.96875Q9.70703-7.96875 9.45312-7.71484Q9.19922-7.46094 9.19922-7.05078Z"/>
  </g>
  <text style="stroke:none;fill:black;font-family:sans-serif;font-size:13;font-weight:bold;" transform="matrix(1 0 0 1 263 1953)">Design Variations</text>
  <text style="stroke:none;fill:black;font-family:sans-serif;font-size:13;" transform="matrix(1 0 0 1 263 1971)">Symbols are supported in up to nine weights and three scales.</text>
  <text style="stroke:none;fill:black;font-family:sans-serif;font-size:13;" transform="matrix(1 0 0 1 263 1989)">For optimal layout with text and other symbols, vertically align</text>
  <text style="stroke:none;fill:black;font-family:sans-serif;font-size:13;" transform="matrix(1 0 0 1 263 2007)">symbols with the adjacent text.</text>
  <line style="fill:none;stroke:#00AEEF;stroke-width:0.5;opacity:1.0;" x1="776" x2="776" y1="1919" y2="1933"/>
  <g transform="matrix(1 0 0 1 776 1933)">
   <path d="M3.31055 0.15625Q3.70117 0.15625 3.91602-0.00976562Q4.13086-0.175781 4.26758-0.585938L5.52734-4.0332L11.2891-4.0332L12.5488-0.585938Q12.6855-0.175781 12.9004-0.00976562Q13.1152 0.15625 13.4961 0.15625Q13.8867 0.15625 14.1162-0.0585938Q14.3457-0.273438 14.3457-0.644531Q14.3457-0.869141 14.2383-1.17188L9.6582-13.3691Q9.48242-13.8184 9.17969-14.043Q8.87695-14.2676 8.4082-14.2676Q7.5-14.2676 7.17773-13.3789L2.59766-1.16211Q2.49023-0.859375 2.49023-0.634766Q2.49023-0.263672 2.70996-0.0537109Q2.92969 0.15625 3.31055 0.15625ZM6.00586-5.51758L8.37891-12.0898L8.42773-12.0898L10.8008-5.51758Z"/>
  </g>
  <line style="fill:none;stroke:#00AEEF;stroke-width:0.5;opacity:1.0;" x1="793.197" x2="793.197" y1="1919" y2="1933"/>
  <text style="stroke:none;fill:black;font-family:sans-serif;font-size:13;font-weight:bold;" transform="matrix(1 0 0 1 776 1953)">Margins</text>
  <text style="stroke:none;fill:black;font-family:sans-serif;font-size:13;" transform="matrix(1 0 0 1 776 1971)">Leading and trailing margins on the left and right side of each symbol</text>
  <text style="stroke:none;fill:black;font-family:sans-serif;font-size:13;" transform="matrix(1 0 0 1 776 1989)">can be adjusted by modifying the x-location of the margin guidelines.</text>
  <text style="stroke:none;fill:black;font-family:sans-serif;font-size:13;" transform="matrix(1 0 0 1 776 2007)">Modifications are automatically applied proportionally to all</text>
  <text style="stroke:none;fill:black;font-family:sans-serif;font-size:13;" transform="matrix(1 0 0 1 776 2025)">scales and weights.</text>
  <g transform="matrix(1 0 0 1 1289 1933)">
   <path d="M2.8418 1.86523L4.54102 3.57422Q5.18555 4.22852 5.90332 4.17969Q6.62109 4.13086 7.31445 3.35938L18.0078-8.42773L17.041-9.4043L6.42578 2.27539Q6.16211 2.57812 5.89355 2.61719Q5.625 2.65625 5.27344 2.30469L4.10156 1.14258Q3.75 0.791016 3.79395 0.522461Q3.83789 0.253906 4.14062-0.0195312L15.6152-10.8203L14.6387-11.7871L3.04688-0.898438Q2.30469-0.214844 2.25098 0.498047Q2.19727 1.21094 2.8418 1.86523ZM9.25781-16.3281Q8.94531-16.0254 8.90625-15.6348Q8.86719-15.2441 9.04297-14.9512Q9.21875-14.6777 9.55566-14.541Q9.89258-14.4043 10.3809-14.5215Q11.4746-14.7754 12.5977-14.7314Q13.7207-14.6875 14.7949-13.9844L14.209-12.5293Q13.9551-11.9043 14.0674-11.4404Q14.1797-10.9766 14.5801-10.5664L16.875-8.25195Q17.2363-7.88086 17.5781-7.82227Q17.9199-7.76367 18.3398-7.8418L19.4043-8.03711L20.0684-7.36328L20.0293-6.80664Q20-6.43555 20.1221-6.12305Q20.2441-5.81055 20.6055-5.44922L21.3672-4.70703Q21.7285-4.3457 22.1533-4.33105Q22.5781-4.31641 22.9297-4.66797L25.8398-7.58789Q26.1914-7.93945 26.1816-8.35449Q26.1719-8.76953 25.8105-9.13086L25.0391-9.89258Q24.6875-10.2539 24.3799-10.3857Q24.0723-10.5176 23.7109-10.4883L23.1348-10.4395L22.4902-11.0742L22.7344-12.1973Q22.832-12.6172 22.6953-12.9834Q22.5586-13.3496 22.1191-13.7891L19.9219-15.9766Q18.6719-17.2168 17.2607-17.8369Q15.8496-18.457 14.4189-18.4814Q12.9883-18.5059 11.665-17.959Q10.3418-17.4121 9.25781-16.3281ZM10.752-15.957Q11.6602-16.6211 12.7002-16.9043Q13.7402-17.1875 14.8047-17.085Q15.8691-16.9824 16.8701-16.5137Q17.8711-16.0449 18.7012-15.2051L21.1328-12.793Q21.3086-12.6172 21.3525-12.4512Q21.3965-12.2852 21.3379-12.0312L21.0156-10.5469L22.5195-9.0625L23.5059-9.12109Q23.6914-9.13086 23.7891-9.09668Q23.8867-9.0625 24.0332-8.91602L24.6094-8.33984L22.168-5.89844L21.5918-6.47461Q21.4453-6.62109 21.4062-6.71875Q21.3672-6.81641 21.377-7.01172L21.4453-7.98828L19.9512-9.47266L18.4277-9.21875Q18.1836-9.16992 18.042-9.2041Q17.9004-9.23828 17.7148-9.41406L15.7129-11.416Q15.5176-11.5918 15.4932-11.7529Q15.4688-11.9141 15.5859-12.1875L16.4648-14.2773Q15.293-15.3711 13.8281-15.791Q12.3633-16.2109 10.8398-15.7617Q10.7227-15.7324 10.6885-15.8057Q10.6543-15.8789 10.752-15.957Z"/>
  </g>
  <text style="stroke:none;fill:black;font-family:sans-serif;font-size:13;font-weight:bold;" transform="matrix(1 0 0 1 1289 1953)">Exporting</text>
  <text style="stroke:none;fill:black;font-family:sans-serif;font-size:13;" transform="matrix(1 0 0 1 1289 1971)">Symbols should be outlined when exporting to ensure the</text>
  <text style="stroke:none;fill:black;font-family:sans-serif;font-size:13;" transform="matrix(1 0 0 1 1289 1989)">design is preserved when submitting to Xcode.</text>
  <text id="template-version" style="stroke:none;fill:black;font-family:sans-serif;font-size:13;text-anchor:end;" transform="matrix(1 0 0 1 3036 1933)">Template v.2.0</text>
  <text style="stroke:none;fill:black;font-family:sans-serif;font-size:13;text-anchor:end;" transform="matrix(1 0 0 1 3036 1951)">Requires Xcode 12 or greater</text>
  <text id="descriptive-name" style="stroke:none;fill:black;font-family:sans-serif;font-size:13;text-anchor:end;" transform="matrix(1 0 0 1 3036 1969)">Generated from camera.cr</text>
  <text style="stroke:none;fill:black;font-family:sans-serif;font-size:13;text-anchor:end;" transform="matrix(1 0 0 1 3036 1987)">Typeset at 100 points</text>
  <text style="stroke:none;fill:black;font-family:sans-serif;font-size:13;" transform="matrix(1 0 0 1 263 726)">Small</text>
  <text style="stroke:none;fill:black;font-family:sans-serif;font-size:13;" transform="matrix(1 0 0 1 263 1156)">Medium</text>
  <text style="stroke:none;fill:black;font-family:sans-serif;font-size:13;" transform="matrix(1 0 0 1 263 1586)">Large</text>
 </g>
 <g id="Guides">
  <g id="H-reference" style="fill:#27AAE1;stroke:none;" transform="matrix(1 0 0 1 339 696)">
   <path d="M0.993347 0L3.6377 0L29.3282-67.1326L30.0301-67.1326L30.0301-70.459L28.1227-70.459ZM11.6882-24.4797L46.9818-24.4797L46.2311-26.7288L12.4382-26.7288ZM55.1193 0L57.7637 0L30.6381-70.459L29.4327-70.459L29.4327-67.1326Z"/>
  </g>
  <line id="Baseline-S" style="fill:none;stroke:#27AAE1;opacity:1;stroke-width:0.5;" x1="263" x2="3036" y1="696" y2="696"/>
  <line id="Capline-S" style="fill:none;stroke:#27AAE1;opacity:1;stroke-width:0.5;" x1="263" x2="3036" y1="625.541" y2="625.541"/>
  <g id="H-reference" style="fill:#27AAE1;stroke:none;" transform="matrix(1 0 0 1 339 1126)">
   <path d="M0.993347 0L3.6377 0L29.3282-67.1326L30.0301-67.1326L30.0301-70.459L28.1227-70.459ZM11.6882-24.4797L46.9818-24.4797L46.2311-26.7288L12.4382-26.7288ZM55.1193 0L57.7637 0L30.6381-70.459L29.4327-70.459L29.4327-67.1326Z"/>
  </g>
  <line id="Baseline-M" style="fill:none;stroke:#27AAE1;opacity:1;stroke-width:0.5;" x1="263" x2="3036" y1="1126" y2="1126"/>
  <line id="Capline-M" style="fill:none;stroke:#27AAE1;opacity:1;stroke-width:0.5;" x1="263" x2="3036" y1="1055.54" y2="1055.54"/>
  <g id="H-reference" style="fill:#27AAE1;stroke:none;" transform="matrix(1 0 0 1 339 1556)">
   <path d="M0.993347 0L3.6377 0L29.3282-67.1326L30.0301-67.1326L30.0301-70.459L28.1227-70.459ZM11.6882-24.4797L46.9818-24.4797L46.2311-26.7288L12.4382-26.7288ZM55.1193 0L57.7637 0L30.6381-70.459L29.4327-70.459L29.4327-67.1326Z"/>
  </g>
  <line id="Baseline-L" style="fill:none;stroke:#27AAE1;opacity:1;stroke-width:0.5;" x1="263" x2="3036" y1="1556" y2="1556"/>
  <line id="Capline-L" style="fill:none;stroke:#27AAE1;opacity:1;stroke-width:0.5;" x1="263" x2="3036" y1="1485.54" y2="1485.54"/>
  <line id="left-margin" style="fill:none;stroke:#00AEEF;stroke-width:0.5;opacity:1.0;" x1="1377.43" x2="1377.43" y1="1030.78" y2="1150.12"/>
  <line id="right-margin" style="fill:none;stroke:#00AEEF;stroke-width:0.5;opacity:1.0;" x1="1522.26" x2="1522.26" y1="1030.78" y2="1150.12"/>
 </g>
 <g id="Symbols">
  <g id="Black-L" transform="matrix(1 0 0 1 2842.36 1556)">
   <path d="M45.82 19.93L93.38 19.93C102.62 19.93 109.62 17.59 114.4 12.89C119.22 8.19 121.63 1.54 121.63-7.05L121.63-61.08C121.63-69.67 119.22-76.3 114.4-80.95C109.62-85.65 102.62-88 93.38-88L45.82-88C36.58-88 29.56-85.65 24.74-80.95C19.96-76.25 17.57-69.59 17.57-60.96L17.57-5C17.57 3.55 19.96 9.84 24.74 13.85C29.52 17.91 36.54 19.93 45.82 19.93ZM49.07 1.68C45.26 1.68 42.31 0.62 40.22-1.51C38.13-3.64 37.08-6.49 37.08-10.06L37.08-58C37.08-61.94 38.13-64.89 40.22-66.86C42.31-68.83 45.26-69.81 49.07-69.81L90.13-69.81C93.9-69.81 96.84-68.73 98.92-66.56C101.01-64.43 102.06-61.58 102.06-58L102.06-10.06C102.06-6.49 100.97-3.64 98.8-1.51C96.63 0.62 93.68 1.68 89.95 1.68L49.07 1.68ZM116.87-51.12L116.87-32.21L143.31-54.39C143.51-54.51 143.7-54.61 143.86-54.69C144.02-54.81 144.2-54.87 144.4-54.87C144.92-54.87 145.18-54.57 145.18-53.97L145.18-12.53C145.18-11.93 144.92-11.63 144.4-11.63C144.2-11.63 144.02-11.67 143.86-11.75C143.7-11.87 143.51-12.01 143.31-12.17L116.87-34.29L116.87-15.44L138.74 4.7C141.03 6.66 143.19 8.25 145.24 9.45C147.33 10.62 149.5 11.2 151.75 11.2C155 11.2 157.69 10.18 159.82 8.13C161.99 6.04 163.07 3.17 163.07-0.48L163.07-66.02C163.07-69.71 161.99-72.58 159.82-74.63C157.69-76.72 155-77.76 151.75-77.76C149.5-77.76 147.33-77.16 145.24-75.95C143.19-74.75 141.03-73.18 138.74-71.26L116.87-51.12Z"/>
  </g>
  <g id="Heavy-L" transform="matrix(1 0 0 1 2546.85 1556)">
   <path d="M44.73 19.58L92.65 19.58C101.45 19.58 108.17 17.28 112.83 12.67C117.49 8.1 119.82 1.63 119.82-6.73L119.82-60.75C119.82-69.12 117.49-75.58 112.83-80.15C108.17-84.72 101.45-87 92.65-87L44.73-87C36.02-87 29.31-84.7 24.62-80.09C19.92-75.52 17.57-69.05 17.57-60.69L17.57-5.16C17.57 3.17 19.88 9.37 24.5 13.46C29.15 17.54 35.9 19.58 44.73 19.58ZM47.62 3.33C43.53 3.33 40.36 2.22 38.11 0C35.9-2.27 34.79-5.38 34.79-9.34L34.79-58.08C34.79-62.33 35.9-65.5 38.11-67.6C40.36-69.74 43.53-70.81 47.62-70.81L89.76-70.81C93.82-70.81 96.95-69.68 99.16-67.42C101.41-65.15 102.53-62.04 102.53-58.08L102.53-9.34C102.53-5.38 101.39-2.27 99.1 0C96.81 2.22 93.66 3.33 89.64 3.33L47.62 3.33ZM115.84-50.55L115.84-33.27L142.76-56.26C143-56.38 143.2-56.51 143.36-56.63C143.53-56.75 143.73-56.81 143.97-56.81C144.53-56.81 144.81-56.46 144.81-55.78L144.81-10.43C144.81-9.78 144.53-9.46 143.97-9.46C143.73-9.46 143.53-9.5 143.36-9.58C143.2-9.7 143-9.84 142.76-10.01L115.84-32.94L115.84-15.72L138.19 4.91C140.23 6.69 142.2 8.1 144.09 9.15C145.97 10.2 147.92 10.73 149.93 10.73C153.06 10.73 155.63 9.74 157.64 7.76C159.65 5.74 160.65 2.99 160.65-0.49L160.65-65.72C160.65-69.24 159.65-71.99 157.64-73.97C155.63-75.99 153.06-77 149.93-77C147.92-77 145.97-76.45 144.09-75.36C142.2-74.31 140.23-72.91 138.19-71.18L115.84-50.55Z"/>
  </g>
  <g id="Bold-L" transform="matrix(1 0 0 1 2251.5 1556)">
   <path d="M43.47 17.46L91.81 17.46C100.08 17.46 106.44 15.25 110.9 10.83C115.39 6.46 117.64 0.3 117.64-7.65L117.64-60.95C117.64-68.9 115.39-75.06 110.9-79.44C106.44-83.81 100.08-86 91.81-86L43.47-86C35.32-86 28.95-83.81 24.38-79.44C19.84-75.06 17.57-68.88 17.57-60.89L17.57-6.63C17.57 1.32 19.8 7.32 24.25 11.38C28.75 15.43 35.16 17.46 43.47 17.46ZM45.94 3.79C41.56 3.79 38.17 2.62 35.76 0.3C33.39-2.07 32.2-5.47 32.2-9.88L32.2-58.72C32.2-63.3 33.39-66.71 35.76-68.96C38.17-71.25 41.56-72.39 45.94-72.39L89.34-72.39C93.67-72.39 97.02-71.21 99.39-68.84C101.8-66.47 103.01-63.1 103.01-58.72L103.01-9.88C103.01-5.47 101.78-2.07 99.33 0.3C96.92 2.62 93.55 3.79 89.22 3.79L45.94 3.79ZM114.57-50.57L114.57-35.4L142.15-59.02C142.39-59.18 142.59-59.32 142.75-59.44C142.95-59.56 143.18-59.62 143.42-59.62C144.02-59.62 144.32-59.22 144.32-58.42L144.32-9.34C144.32-8.58 144.02-8.2 143.42-8.2C143.18-8.2 142.95-8.26 142.75-8.38C142.59-8.5 142.39-8.64 142.15-8.8L114.57-32.42L114.57-17.31L137.57 3.73C139.34 5.21 141.05 6.42 142.69 7.34C144.38 8.22 146.11 8.67 147.87 8.67C150.8 8.67 153.21 7.7 155.1 5.78C156.99 3.85 157.93 1.28 157.93-1.93L157.93-65.83C157.93-69.08 156.99-71.67 155.1-73.59C153.21-75.52 150.8-76.49 147.87-76.49C146.11-76.49 144.38-76.02 142.69-75.1C141.05-74.18 139.34-72.99 137.57-71.55L114.57-50.57Z"/>
  </g>
  <g id="Semibold-L" transform="matrix(1 0 0 1 1955.74 1556)">
   <path d="M42.57 16.8L91.22 16.8C99.13 16.8 105.27 14.67 109.65 10.41C114.03 6.15 116.22 0.15 116.22-7.6L116.22-60.67C116.22-68.38 114.03-74.36 109.65-78.62C105.27-82.87 99.13-85 91.22-85L42.57-85C34.82-85 28.71-82.87 24.26-78.62C19.8-74.36 17.57-68.36 17.57-60.61L17.57-6.94C17.57 0.77 19.74 6.66 24.08 10.71C28.45 14.77 34.62 16.8 42.57 16.8ZM44.74 4.81C40.16 4.81 36.6 3.6 34.07 1.2C31.58-1.25 30.34-4.83 30.34-9.53L30.34-58.68C30.34-63.5 31.58-67.09 34.07-69.46C36.6-71.87 40.16-73.07 44.74-73.07L88.99-73.07C93.57-73.07 97.1-71.85 99.59-69.4C102.12-66.95 103.39-63.38 103.39-58.68L103.39-9.53C103.39-4.83 102.12-1.25 99.59 1.2C97.06 3.6 93.51 4.81 88.93 4.81L44.74 4.81ZM113.75-50.11L113.75-36.25L141.69-60.42C141.98-60.58 142.22-60.73 142.42-60.85C142.62-61.01 142.82-61.09 143.02-61.09C143.66-61.09 143.98-60.67 143.98-59.82L143.98-7.9C143.98-7.1 143.66-6.7 143.02-6.7C142.82-6.7 142.62-6.76 142.42-6.88C142.22-7 141.98-7.14 141.69-7.3L113.75-31.41L113.75-17.67L137.18 3.67C138.7 4.95 140.23 5.99 141.75 6.8C143.32 7.6 144.89 8 146.45 8C149.26 8 151.55 7.08 153.32 5.23C155.13 3.34 156.03 0.87 156.03-2.18L156.03-65.48C156.03-68.58 155.13-71.05 153.32-72.89C151.55-74.78 149.26-75.72 146.45-75.72C144.89-75.72 143.32-75.32 141.75-74.52C140.23-73.72 138.7-72.67 137.18-71.39L113.75-50.11Z"/>
  </g>
  <g id="Medium-L" transform="matrix(1 0 0 1 1659.7 1556)">
   <path d="M41.96 15.71L90.79 15.71C98.5 15.71 104.49 13.6 108.74 9.38C113 5.21 115.13-0.67 115.13-8.26L115.13-34.68L115.13-61.09C115.13-68.64 113-74.5 108.74-78.68C104.49-82.89 98.5-85 90.79-85L41.96-85C34.54-85 28.61-82.89 24.2-78.68C19.78-74.5 17.57-68.64 17.57-61.09L17.57-7.9C17.57-0.31 19.7 5.51 23.95 9.56C28.25 13.66 34.25 15.71 41.96 15.71ZM43.89 4.93C39.19 4.93 35.54 3.68 32.93 1.19C30.36-1.3 29.07-5.01 29.07-9.95L29.07-59.34C29.07-64.32 30.36-68.05 32.93-70.54C35.54-73.03 39.19-74.28 43.89-74.28L88.81-74.28C93.54-74.28 97.2-73.01 99.77-70.48C102.34-67.99 103.62-64.28 103.62-59.34L103.62-9.95C103.62-5.01 102.32-1.3 99.71 1.19C97.14 3.68 93.5 4.93 88.81 4.93L43.89 4.93ZM113.14-50.41L113.14-37.58L141.39-62.11C141.67-62.31 141.91-62.47 142.11-62.59C142.31-62.75 142.53-62.83 142.77-62.83C143.42-62.83 143.74-62.37 143.74-61.45L143.74-7.54C143.74-6.66 143.42-6.22 142.77-6.22C142.53-6.22 142.31-6.28 142.11-6.4C141.91-6.56 141.67-6.72 141.39-6.88L113.14-31.41L113.14-18.64L136.87 2.88C138.28 4.08 139.68 5.05 141.09 5.77C142.53 6.49 143.98 6.85 145.42 6.85C148.19 6.85 150.42 5.95 152.11 4.14C153.84 2.3 154.7-0.11 154.7-3.08L154.7-65.97C154.7-68.94 153.84-71.33 152.11-73.13C150.42-74.94 148.19-75.84 145.42-75.84C143.98-75.84 142.53-75.48 141.09-74.76C139.68-74.04 138.28-73.09 136.87-71.93L113.14-50.41Z"/>
  </g>
  <g id="Regular-L" transform="matrix(1 0 0 1 1364.65 1556)">
   <path d="M41.06 15.02L88.79 15.02C96.14 15.02 101.88 12.99 106.02 8.94C110.19 4.84 112.28-0.88 112.28-8.23L112.28-60.81C112.28-68.12 110.19-73.8 106.02-77.86C101.88-81.95 96.14-84 88.79-84L41.06-84C34.03-84 28.35-81.95 24.01-77.86C19.72-73.8 17.57-68.12 17.57-60.81L17.57-8.23C17.57-0.88 19.64 4.84 23.77 8.94C27.95 12.99 33.71 15.02 41.06 15.02ZM42.75 5.93C37.81 5.93 33.99 4.64 31.3 2.07C28.61-0.5 27.27-4.39 27.27-9.61L27.27-59.37C27.27-64.59 28.61-68.48 31.3-71.05C33.99-73.66 37.81-74.97 42.75-74.97L87.1-74.97C92.04-74.97 95.86-73.66 98.55-71.05C101.24-68.48 102.58-64.59 102.58-59.37L102.58-9.61C102.58-4.39 101.24-0.5 98.55 2.07C95.86 4.64 92.04 5.93 87.1 5.93L42.75 5.93ZM110.89-49.95L110.89-38.51L139.56-63.58C139.85-63.78 140.09-63.94 140.29-64.06C140.53-64.22 140.77-64.3 141.01-64.3C141.69-64.3 142.03-63.82 142.03-62.86L142.03-6.12C142.03-5.2 141.69-4.73 141.01-4.73C140.77-4.73 140.53-4.79 140.29-4.92C140.09-5.08 139.85-5.24 139.56-5.4L110.89-30.47L110.89-19.09L135.05 2.79C136.25 3.8 137.5 4.62 138.78 5.26C140.07 5.87 141.33 6.17 142.58 6.17C145.23 6.17 147.35 5.28 148.96 3.52C150.57 1.75 151.37-0.54 151.37-3.35L151.37-65.63C151.37-68.44 150.57-70.73 148.96-72.5C147.35-74.26 145.23-75.15 142.58-75.15C141.33-75.15 140.07-74.82 138.78-74.18C137.5-73.58 136.25-72.78 135.05-71.77L110.89-49.95Z"/>
  </g>
  <g id="Light-L" transform="matrix(1 0 0 1 1067.9 1556)">
   <path d="M39.73 14.17L90.49 14.17C97.51 14.17 102.96 12.27 106.81 8.45C110.71 4.64 112.65-0.78 112.65-7.81L112.65-62.08C112.65-69.06 110.71-74.46 106.81-78.28C102.96-82.09 97.51-84 90.49-84L39.73-84C32.95-84 27.55-82.09 23.53-78.28C19.56-74.46 17.57-69.06 17.57-62.08L17.57-7.81C17.57-0.78 19.52 4.64 23.41 8.45C27.31 12.27 32.75 14.17 39.73 14.17ZM41.12 7.25C35.86 7.25 31.84 5.9 29.07 3.21C26.34 0.52 24.98-3.53 24.98-8.95L24.98-60.87C24.98-66.29 26.34-70.35 29.07-73.04C31.84-75.73 35.86-77.07 41.12-77.07L89.16-77.07C94.38-77.07 98.36-75.73 101.09-73.04C103.86-70.35 105.24-66.29 105.24-60.87L105.24-8.95C105.24-3.53 103.86 0.52 101.09 3.21C98.36 5.9 94.38 7.25 89.16 7.25L41.12 7.25ZM111.51-49.11L111.51-40.44L140.24-65.15C140.72-65.51 141.14-65.79 141.5-65.99C141.86-66.23 142.25-66.35 142.65-66.35C143.73-66.35 144.27-65.61 144.27-64.12L144.27-5.7C144.27-4.22 143.73-3.47 142.65-3.47C142.25-3.47 141.86-3.59 141.5-3.83C141.14-4.08 140.72-4.36 140.24-4.68L111.51-29.45L111.51-20.72L136.62 1.53C137.79 2.45 138.95 3.21 140.12 3.81C141.28 4.38 142.49 4.66 143.73 4.66C146.06 4.66 147.93 3.89 149.33 2.37C150.74 0.8 151.44-1.27 151.44-3.83L151.44-65.99C151.44-68.56 150.74-70.61 149.33-72.13C147.93-73.7 146.06-74.48 143.73-74.48C142.49-74.48 141.28-74.18 140.12-73.58C138.95-73.02 137.79-72.28 136.62-71.35L111.51-49.11Z"/>
  </g>
  <g id="Thin-L" transform="matrix(1 0 0 1 772.067 1556)">
   <path d="M38.047 14.21L90.908 14.21C97.493 14.21 102.552 12.46 106.085 8.97C109.619 5.43 111.385 0.4 111.385-6.15L111.385-62.64C111.385-69.19 109.619-74.21 106.085-77.7C102.552-81.23 97.493-83 90.908-83L38.047-83C31.543-83 26.504-81.23 22.93-77.7C19.357-74.21 17.57-69.19 17.57-62.64L17.57-6.15C17.57 0.4 19.337 5.43 22.87 8.97C26.403 12.46 31.463 14.21 38.047 14.21ZM39.011 9.99C33.35 9.99 29.094 8.57 26.243 5.72C23.432 2.86 22.027-1.39 22.027-7.05L22.027-61.74C22.027-67.44 23.432-71.7 26.243-74.51C29.094-77.36 33.35-78.78 39.011-78.78L89.944-78.78C95.606-78.78 99.842-77.36 102.652-74.51C105.503-71.7 106.928-67.44 106.928-61.74L106.928-7.05C106.928-1.39 105.503 2.86 102.652 5.72C99.842 8.57 95.606 9.99 89.944 9.99L39.011 9.99ZM110.422-46.97L110.422-41.85L139.331-66.14C140.054-66.66 140.696-67.1 141.258-67.46C141.82-67.82 142.362-68 142.884-68C144.49-68 145.293-66.92 145.293-64.75L145.293-4.04C145.293-1.87 144.49-0.79 142.884-0.79C142.362-0.79 141.82-0.97 141.258-1.33C140.696-1.69 140.054-2.13 139.331-2.66L110.422-27L110.422-21.83L136.801 0.9C137.926 1.74 139.01 2.44 140.054 3.01C141.098 3.53 142.202 3.79 143.366 3.79C145.253 3.79 146.779 3.15 147.943 1.86C149.108 0.58 149.69-1.19 149.69-3.44L149.69-65.35C149.69-67.6 149.108-69.37 147.943-70.65C146.779-71.94 145.253-72.58 143.366-72.58C142.202-72.58 141.098-72.32 140.054-71.8C139.01-71.28 137.926-70.57 136.801-69.69L110.422-46.97Z"/>
  </g>
  <g id="Ultralight-L" transform="matrix(1 0 0 1 475.066 1556)">
   <path d="M37.156 14.8L92.537 14.8C98.885 14.8 103.746 13.12 107.121 9.75C110.496 6.34 112.183 1.42 112.183-4.99L112.183-63.21C112.183-69.62 110.496-74.51 107.121-77.88C103.746-81.29 98.885-83 92.537-83L37.156-83C30.808-83 25.947-81.29 22.572-77.88C19.237-74.51 17.57-69.62 17.57-63.21L17.57-4.99C17.57 1.42 19.237 6.34 22.572 9.75C25.947 13.12 30.808 14.8 37.156 14.8ZM37.939 11.88C32.073 11.88 27.694 10.42 24.802 7.49C21.949 4.53 20.523 0.1 20.523-5.78L20.523-62.48C20.523-68.36 21.949-72.77 24.802-75.69C27.694-78.62 32.073-80.08 37.939-80.08L91.754-80.08C97.579-80.08 101.939-78.62 104.831-75.69C107.724-72.77 109.17-68.36 109.17-62.48L109.17-5.78C109.17 0.1 107.724 4.53 104.831 7.49C101.939 10.42 97.579 11.88 91.754 11.88L37.939 11.88ZM111.34-46.02L111.34-42.55L140.326-66.92C141.13-67.57 141.873-68.1 142.556-68.51C143.239-68.91 143.882-69.12 144.485-69.12C146.333-69.12 147.257-67.88 147.257-65.4L147.257-2.8C147.257-0.32 146.333 0.92 144.485 0.92C143.882 0.92 143.239 0.71 142.556 0.31C141.873-0.1 141.13-0.63 140.326-1.28L111.34-25.71L111.34-22.18L138.338 0.98C139.423 1.83 140.447 2.52 141.411 3.05C142.416 3.54 143.5 3.78 144.665 3.78C146.353 3.78 147.699 3.21 148.703 2.07C149.748 0.94 150.27-0.71 150.27-2.86L150.27-65.34C150.27-67.49 149.748-69.14 148.703-70.27C147.699-71.41 146.353-71.98 144.665-71.98C143.5-71.98 142.416-71.73 141.411-71.25C140.447-70.76 139.423-70.07 138.338-69.18L111.34-46.02Z"/>
  </g>
  <g id="Black-M" transform="matrix(1 0 0 1 2856.31 1126)">
   <path d="M40.17 8.35L79.42 8.35C86.81 8.35 92.41 6.47 96.24 2.71C100.09-1.05 102.02-6.36 102.02-13.24L102.02-56.46C102.02-63.34 100.09-68.64 96.24-72.36C92.41-76.12 86.81-78 79.42-78L40.17-78C32.78-78 27.16-76.12 23.3-72.36C19.48-68.6 17.57-63.27 17.57-56.36L17.57-11.6C17.57-4.76 19.48 0.27 23.3 3.48C27.13 6.73 32.75 8.35 40.17 8.35ZM42.77-6.25C39.72-6.25 37.36-7.1 35.69-8.81C34.02-10.51 33.18-12.79 33.18-15.65L33.18-54C33.18-57.15 34.02-59.51 35.69-61.09C37.36-62.66 39.72-63.45 42.77-63.45L76.82-63.45C79.84-63.45 82.18-62.58 83.85-60.85C85.52-59.14 86.36-56.86 86.36-54L86.36-15.65C86.36-12.79 85.49-10.51 83.76-8.81C82.02-7.1 79.66-6.25 76.67-6.25L42.77-6.25ZM98.21-48.5L98.21-33.37L119.37-51.11C119.53-51.21 119.67-51.29 119.8-51.35C119.93-51.45 120.07-51.5 120.23-51.5C120.65-51.5 120.86-51.26 120.86-50.78L120.86-17.62C120.86-17.14 120.65-16.9 120.23-16.9C120.07-16.9 119.93-16.93 119.8-17C119.67-17.09 119.53-17.21 119.37-17.33L98.21-35.03L98.21-19.95L115.7-3.84C117.53-2.27 119.27-1 120.91-0.04C122.58 0.9 124.31 1.36 126.11 1.36C128.71 1.36 130.87 0.54 132.57-1.1C134.3-2.77 135.17-5.06 135.17-7.99L135.17-60.41C135.17-63.37 134.3-65.66 132.57-67.3C130.87-68.97 128.71-69.81 126.11-69.81C124.31-69.81 122.58-69.33 120.91-68.36C119.27-67.4 117.53-66.15 115.7-64.6L98.21-48.5Z"/>
  </g>
  <g id="Heavy-M" transform="matrix(1 0 0 1 2560.55 1126)">
   <path d="M39.3 8.28L78.85 8.28C85.88 8.28 91.26 6.43 94.99 2.75C98.72-0.91 100.58-6.08 100.58-12.78L100.58-56C100.58-62.69 98.72-67.86 94.99-71.52C91.26-75.17 85.88-77 78.85-77L39.3-77C32.33-77 26.97-75.16 23.21-71.47C19.45-67.82 17.57-62.64 17.57-55.95L17.57-11.52C17.57-4.85 19.42 0.11 23.11 3.38C26.84 6.64 32.24 8.28 39.3 8.28ZM41.62-4.72C38.34-4.72 35.8-5.61 34-7.39C32.24-9.2 31.35-11.69 31.35-14.86L31.35-53.86C31.35-57.26 32.24-59.8 34-61.48C35.8-63.19 38.34-64.05 41.62-64.05L76.53-64.05C79.78-64.05 82.28-63.14 84.05-61.33C85.85-59.52 86.75-57.03 86.75-53.86L86.75-14.86C86.75-11.69 85.83-9.2 84-7.39C82.17-5.61 79.65-4.72 76.44-4.72L41.62-4.72ZM97.4-47.83L97.4-34.01L118.94-52.41C119.13-52.5 119.29-52.6 119.42-52.7C119.55-52.79 119.71-52.84 119.9-52.84C120.35-52.84 120.58-52.57 120.58-52.02L120.58-15.74C120.58-15.22 120.35-14.96 119.9-14.96C119.71-14.96 119.55-14.99 119.42-15.06C119.29-15.15 119.13-15.27 118.94-15.4L97.4-33.74L97.4-19.97L115.28-3.46C116.91-2.04 118.49-0.91 120-0.07C121.51 0.77 123.07 1.19 124.67 1.19C127.18 1.19 129.23 0.4 130.84-1.18C132.45-2.8 133.25-5 133.25-7.78L133.25-59.97C133.25-62.79 132.45-64.99 130.84-66.57C129.23-68.19 127.18-69 124.67-69C123.07-69 121.51-68.56 120-67.69C118.49-66.85 116.91-65.73 115.28-64.34L97.4-47.83Z"/>
  </g>
  <g id="Bold-M" transform="matrix(1 0 0 1 2264.94 1126)">
   <path d="M38.29 6.77L78.16 6.77C84.78 6.77 89.87 5 93.43 1.47C97.03-2.03 98.83-6.96 98.83-13.32L98.83-55.96C98.83-62.32 97.03-67.25 93.43-70.75C89.87-74.25 84.78-76 78.16-76L38.29-76C31.77-76 26.68-74.25 23.01-70.75C19.38-67.25 17.57-62.3 17.57-55.91L17.57-12.5C17.57-6.14 19.35-1.34 22.92 1.9C26.52 5.15 31.64 6.77 38.29 6.77ZM40.26-4.17C36.76-4.17 34.05-5.1 32.12-6.96C30.23-8.86 29.28-11.57 29.28-15.1L29.28-54.18C29.28-57.84 30.23-60.57 32.12-62.37C34.05-64.2 36.76-65.11 40.26-65.11L76.18-65.11C79.65-65.11 82.33-64.16 84.23-62.27C86.16-60.37 87.12-57.68 87.12-54.18L87.12-15.1C87.12-11.57 86.14-8.86 84.18-6.96C82.25-5.1 79.56-4.17 76.09-4.17L40.26-4.17ZM96.37-47.66L96.37-35.52L118.44-54.42C118.63-54.55 118.79-54.66 118.92-54.75C119.08-54.85 119.26-54.9 119.45-54.9C119.93-54.9 120.17-54.58 120.17-53.94L120.17-14.67C120.17-14.06 119.93-13.76 119.45-13.76C119.26-13.76 119.08-13.8 118.92-13.9C118.79-14 118.63-14.11 118.44-14.24L96.37-33.14L96.37-21.04L114.78-4.22C116.19-3.03 117.55-2.06 118.87-1.33C120.22-0.62 121.6-0.27 123.01-0.27C125.36-0.27 127.29-1.04 128.8-2.58C130.31-4.12 131.06-6.18 131.06-8.75L131.06-59.86C131.06-62.46 130.31-64.53 128.8-66.08C127.29-67.62 125.36-68.39 123.01-68.39C121.6-68.39 120.22-68.02 118.87-67.28C117.55-66.54 116.19-65.59 114.78-64.44L96.37-47.66Z"/>
  </g>
  <g id="Semibold-M" transform="matrix(1 0 0 1 1968.99 1126)">
   <path d="M37.57 6.43L77.68 6.43C84.01 6.43 88.93 4.73 92.43 1.32C95.93-2.08 97.68-6.88 97.68-13.08L97.68-55.53C97.68-61.7 95.93-66.49 92.43-69.89C88.93-73.3 84.01-75 77.68-75L37.57-75C31.37-75 26.48-73.3 22.92-69.89C19.35-66.49 17.57-61.69 17.57-55.49L17.57-12.55C17.57-6.39 19.3-1.68 22.77 1.56C26.28 4.81 31.21 6.43 37.57 6.43ZM39.3-3.16C35.64-3.16 32.8-4.12 30.77-6.05C28.78-8.01 27.79-10.87 27.79-14.63L27.79-53.94C27.79-57.8 28.78-60.67 30.77-62.57C32.8-64.5 35.64-65.46 39.3-65.46L75.9-65.46C79.56-65.46 82.39-64.48 84.38-62.52C86.41-60.56 87.42-57.7 87.42-53.94L87.42-14.63C87.42-10.87 86.41-8.01 84.38-6.05C82.36-4.12 79.51-3.16 75.85-3.16L39.3-3.16ZM95.7-47.09L95.7-36.01L118.06-55.34C118.29-55.47 118.48-55.58 118.64-55.68C118.8-55.81 118.96-55.87 119.12-55.87C119.64-55.87 119.89-55.53 119.89-54.86L119.89-13.32C119.89-12.68 119.64-12.36 119.12-12.36C118.96-12.36 118.8-12.41 118.64-12.51C118.48-12.6 118.29-12.71 118.06-12.84L95.7-32.13L95.7-21.14L114.45-4.07C115.67-3.04 116.89-2.21 118.11-1.57C119.36-0.92 120.62-0.6 121.87-0.6C124.12-0.6 125.95-1.34 127.36-2.82C128.81-4.33 129.53-6.31 129.53-8.75L129.53-59.39C129.53-61.86 128.81-63.84 127.36-65.31C125.95-66.82 124.12-67.58 121.87-67.58C120.62-67.58 119.36-67.26 118.11-66.62C116.89-65.97 115.67-65.14 114.45-64.11L95.7-47.09Z"/>
  </g>
  <g id="Medium-M" transform="matrix(1 0 0 1 1672.81 1126)">
   <path d="M37.08 5.56L77.35 5.56C83.51 5.56 88.3 3.88 91.71 0.5C95.11-2.84 96.81-7.54 96.81-13.61L96.81-34.74L96.81-55.87C96.81-61.91 95.11-66.6 91.71-69.94C88.3-73.31 83.51-75 77.35-75L37.08-75C31.14-75 26.4-73.31 22.87-69.94C19.34-66.6 17.57-61.91 17.57-55.87L17.57-13.32C17.57-7.25 19.27-2.6 22.68 0.65C26.11 3.93 30.92 5.56 37.08 5.56ZM38.63-3.06C34.87-3.06 31.94-4.06 29.86-6.05C27.8-8.04 26.77-11.01 26.77-14.96L26.77-54.47C26.77-58.46 27.8-61.44 29.86-63.44C31.94-65.43 34.87-66.42 38.63-66.42L75.76-66.42C79.55-66.42 82.47-65.41 84.53-63.39C86.58-61.4 87.61-58.42 87.61-54.47L87.61-14.96C87.61-11.01 86.57-8.04 84.48-6.05C82.42-4.06 79.51-3.06 75.76-3.06L38.63-3.06ZM95.22-47.33L95.22-37.07L117.82-56.69C118.05-56.85 118.24-56.98 118.4-57.08C118.56-57.2 118.74-57.27 118.93-57.27C119.44-57.27 119.7-56.9 119.7-56.16L119.7-13.04C119.7-12.33 119.44-11.98 118.93-11.98C118.74-11.98 118.56-12.02 118.4-12.12C118.24-12.25 118.05-12.38 117.82-12.51L95.22-32.13L95.22-21.91L114.21-4.7C115.33-3.74 116.46-2.96 117.58-2.39C118.74-1.81 119.89-1.52 121.05-1.52C123.27-1.52 125.05-2.24 126.4-3.69C127.78-5.17 128.47-7.09 128.47-9.47L128.47-59.77C128.47-62.15 127.78-64.06 126.4-65.51C125.05-66.95 123.27-67.68 121.05-67.68C119.89-67.68 118.74-67.39 117.58-66.81C116.46-66.23 115.33-65.48 114.21-64.54L95.22-47.33Z"/>
  </g>
  <g id="Regular-M" transform="matrix(1 0 0 1 1377.43 1126)">
   <path d="M36.36 5.22L75.75 5.22C81.62 5.22 86.22 3.59 89.53 0.35C92.87-2.93 94.54-7.5 94.54-13.38L94.54-55.45C94.54-61.3 92.87-65.84 89.53-69.09C86.22-72.36 81.62-74 75.75-74L36.36-74C30.74-74 26.2-72.36 22.73-69.09C19.29-65.84 17.57-61.3 17.57-55.45L17.57-13.38C17.57-7.5 19.22-2.93 22.53 0.35C25.87 3.59 30.48 5.22 36.36 5.22ZM37.71-2.06C33.76-2.06 30.71-3.09 28.56-5.14C26.4-7.2 25.33-10.31 25.33-14.49L25.33-54.29C25.33-58.47 26.4-61.58 28.56-63.64C30.71-65.73 33.76-66.77 37.71-66.77L74.4-66.77C78.35-66.77 81.4-65.73 83.55-63.64C85.7-61.58 86.78-58.47 86.78-54.29L86.78-14.49C86.78-10.31 85.7-7.2 83.55-5.14C81.4-3.09 78.35-2.06 74.4-2.06L37.71-2.06ZM93.43-46.76L93.43-37.61L116.37-57.67C116.59-57.83 116.78-57.95 116.94-58.05C117.14-58.18 117.33-58.24 117.52-58.24C118.07-58.24 118.34-57.86 118.34-57.09L118.34-11.7C118.34-10.96 118.07-10.59 117.52-10.59C117.33-10.59 117.14-10.64 116.94-10.73C116.78-10.86 116.59-10.99 116.37-11.12L93.43-31.18L93.43-22.07L112.75-4.56C113.72-3.76 114.71-3.1 115.74-2.59C116.77-2.11 117.78-1.87 118.77-1.87C120.9-1.87 122.6-2.57 123.88-3.99C125.17-5.4 125.81-7.23 125.81-9.48L125.81-59.3C125.81-61.55 125.17-63.38 123.88-64.8C122.6-66.21 120.9-66.92 118.77-66.92C117.78-66.92 116.77-66.66 115.74-66.15C114.71-65.66 113.72-65.02 112.75-64.22L93.43-46.76Z"/>
  </g>
  <g id="Light-M" transform="matrix(1 0 0 1 1080.69 1126)">
   <path d="M35.3 4.54L77.11 4.54C82.73 4.54 87.08 3.02 90.16-0.04C93.28-3.09 94.84-7.42 94.84-13.05L94.84-56.46C94.84-62.05 93.28-66.37 90.16-69.42C87.08-72.47 82.73-74 77.11-74L35.3-74C29.87-74 25.55-72.47 22.34-69.42C19.16-66.37 17.57-62.05 17.57-56.46L17.57-13.05C17.57-7.42 19.13-3.09 22.24-0.04C25.36 3.02 29.71 4.54 35.3 4.54ZM36.41-1C32.2-1 28.99-2.08 26.77-4.23C24.59-6.38 23.5-9.62 23.5-13.96L23.5-55.5C23.5-59.83 24.59-63.08 26.77-65.23C28.99-67.38 32.2-68.46 36.41-68.46L76.05-68.46C80.22-68.46 83.4-67.38 85.59-65.23C87.8-63.08 88.91-59.83 88.91-55.5L88.91-13.96C88.91-9.62 87.8-6.38 85.59-4.23C83.4-2.08 80.22-1 76.05-1L36.41-1ZM93.92-46.09L93.92-39.15L116.91-58.92C117.29-59.21 117.63-59.43 117.92-59.59C118.21-59.79 118.51-59.88 118.83-59.88C119.7-59.88 120.14-59.29 120.14-58.1L120.14-11.36C120.14-10.17 119.7-9.58 118.83-9.58C118.51-9.58 118.21-9.67 117.92-9.87C117.63-10.06 117.29-10.28 116.91-10.54L93.92-30.36L93.92-23.37L114.02-5.58C114.95-4.84 115.88-4.23 116.81-3.75C117.74-3.3 118.71-3.07 119.7-3.07C121.57-3.07 123.06-3.68 124.18-4.9C125.31-6.16 125.87-7.81 125.87-9.87L125.87-59.59C125.87-61.65 125.31-63.29 124.18-64.51C123.06-65.76 121.57-66.39 119.7-66.39C118.71-66.39 117.74-66.15 116.81-65.66C115.88-65.21 114.95-64.62 114.02-63.88L93.92-46.09Z"/>
  </g>
  <g id="Thin-M" transform="matrix(1 0 0 1 784.677 1126)">
   <path d="M33.953 3.77L77.443 3.77C82.711 3.77 86.758 2.37 89.585-0.42C92.412-3.25 93.825-7.28 93.825-12.52L93.825-57.71C93.825-62.95 92.412-66.97 89.585-69.76C86.758-72.59 82.711-74 77.443-74L33.953-74C28.749-74 24.717-72.59 21.858-69.76C18.999-66.97 17.57-62.95 17.57-57.71L17.57-12.52C17.57-7.28 18.983-3.25 21.81-0.42C24.637 2.37 28.684 3.77 33.953 3.77ZM34.723 0.4C30.194 0.4 26.789-0.74 24.508-3.03C22.26-5.31 21.136-8.71 21.136-13.24L21.136-56.99C21.136-61.55 22.26-64.96 24.508-67.21C26.789-69.49 30.194-70.63 34.723-70.63L76.672-70.63C81.201-70.63 84.59-69.49 86.838-67.21C89.119-64.96 90.259-61.55 90.259-56.99L90.259-13.24C90.259-8.71 89.119-5.31 86.838-3.03C84.59-0.74 81.201 0.4 76.672 0.4L34.723 0.4ZM93.054-45.17L93.054-41.08L116.182-60.51C116.761-60.93 117.275-61.28 117.724-61.57C118.174-61.86 118.608-62 119.025-62C120.31-62 120.953-61.13 120.953-59.4L120.953-10.83C120.953-9.1 120.31-8.23 119.025-8.23C118.608-8.23 118.174-8.37 117.724-8.66C117.275-8.95 116.761-9.31 116.182-9.72L93.054-29.2L93.054-25.06L114.159-6.88C115.058-6.21 115.925-5.64 116.761-5.19C117.596-4.78 118.479-4.57 119.411-4.57C120.92-4.57 122.141-5.08 123.073-6.11C124.004-7.14 124.47-8.55 124.47-10.35L124.47-59.88C124.47-61.68 124.004-63.09 123.073-64.12C122.141-65.15 120.92-65.66 119.411-65.66C118.479-65.66 117.596-65.46 116.761-65.04C115.925-64.62 115.058-64.06 114.159-63.35L93.054-45.17Z"/>
  </g>
  <g id="Ultralight-M" transform="matrix(1 0 0 1 487.736 1126)">
   <path d="M33.239 4.24L78.744 4.24C83.822 4.24 87.711 2.89 90.411 0.2C93.111-2.53 94.461-6.46 94.461-11.59L94.461-58.17C94.461-63.3 93.111-67.21 90.411-69.91C87.711-72.64 83.822-74 78.744-74L33.239-74C28.16-74 24.271-72.64 21.572-69.91C18.904-67.21 17.57-63.3 17.57-58.17L17.57-11.59C17.57-6.46 18.904-2.53 21.572 0.2C24.271 2.89 28.16 4.24 33.239 4.24ZM33.865 1.9C29.173 1.9 25.669 0.73 23.355-1.6C21.073-3.98 19.932-7.52 19.932-12.23L19.932-57.58C19.932-62.29 21.073-65.82 23.355-68.15C25.669-70.49 29.173-71.66 33.865-71.66L78.117-71.66C82.778-71.66 86.265-70.49 88.579-68.15C90.893-65.82 92.05-62.29 92.05-57.58L92.05-12.23C92.05-7.52 90.893-3.98 88.579-1.6C86.265 0.73 82.778 1.9 78.117 1.9L33.865 1.9ZM93.786-44.41L93.786-41.64L116.975-61.14C117.618-61.66 118.213-62.08 118.759-62.41C119.305-62.73 119.82-62.89 120.302-62.89C121.78-62.89 122.519-61.9 122.519-59.92L122.519-9.84C122.519-7.86 121.78-6.87 120.302-6.87C119.82-6.87 119.305-7.03 118.759-7.35C118.213-7.68 117.618-8.1 116.975-8.62L93.786-28.17L93.786-25.34L115.384-6.82C116.252-6.14 117.072-5.58 117.843-5.16C118.647-4.77 119.514-4.58 120.446-4.58C121.796-4.58 122.873-5.03 123.677-5.94C124.512-6.85 124.93-8.17 124.93-9.89L124.93-59.87C124.93-61.59 124.512-62.91 123.677-63.82C122.873-64.73 121.796-65.18 120.446-65.18C119.514-65.18 118.647-64.99 117.843-64.6C117.072-64.21 116.252-63.66 115.384-62.94L93.786-44.41Z"/>
  </g>
  <g id="Black-S" transform="matrix(1 0 0 1 2869.18 696)">
   <path d="M35.3-1.243L65.67-1.243C71.47-1.243 75.87-2.718 78.87-5.667C81.89-8.616 83.41-12.788 83.41-18.182L83.41-52.099C83.41-57.493 81.89-61.652 78.87-64.576C75.87-67.525 71.47-69 65.67-69L35.3-69C29.51-69 25.09-67.525 22.07-64.576C19.07-61.627 17.57-57.442 17.57-52.023L17.57-16.897C17.57-11.527 19.07-7.583 22.07-5.062C25.07-2.516 29.48-1.243 35.3-1.243ZM37.35-12.7C34.95-12.7 33.1-13.368 31.79-14.704C30.48-16.04 29.82-17.829 29.82-20.073L29.82-50.17C29.82-52.641 30.48-54.493 31.79-55.728C33.1-56.964 34.95-57.581 37.35-57.581L63.63-57.581C66-57.581 67.84-56.901 69.15-55.539C70.46-54.203 71.12-52.414 71.12-50.17L71.12-20.073C71.12-17.829 70.44-16.04 69.08-14.704C67.71-13.368 65.86-12.7 63.52-12.7L37.35-12.7ZM80.42-45.849L80.42-33.977L97.02-47.902C97.14-47.977 97.26-48.04 97.36-48.091C97.46-48.166 97.57-48.204 97.7-48.204C98.03-48.204 98.19-48.015 98.19-47.637L98.19-21.623C98.19-21.245 98.03-21.056 97.7-21.056C97.57-21.056 97.46-21.081 97.36-21.131C97.26-21.207 97.14-21.295 97.02-21.396L80.42-35.283L80.42-23.448L94.14-10.809C95.58-9.574 96.94-8.578 98.23-7.822C99.54-7.091 100.9-6.726 102.31-6.726C104.35-6.726 106.04-7.368 107.38-8.654C108.74-9.965 109.42-11.767 109.42-14.061L109.42-55.199C109.42-57.518 108.74-59.32 107.38-60.606C106.04-61.917 104.35-62.572 102.31-62.572C100.9-62.572 99.54-62.194 98.23-61.438C96.94-60.682 95.58-59.699 94.14-58.489L80.42-45.849Z"/>
  </g>
  <g id="Heavy-S" transform="matrix(1 0 0 1 2573.22 696)">
   <path d="M34.62-1.527L65.22-1.527C70.74-1.527 74.96-2.964 77.89-5.837C80.81-8.686 82.27-12.719 82.27-17.937L82.27-51.627C82.27-56.846 80.81-60.879 77.89-63.727C74.96-66.576 70.74-68 65.22-68L34.62-68C29.15-68 24.94-66.563 21.99-63.689C19.04-60.841 17.57-56.808 17.57-51.59L17.57-16.954C17.57-11.761 19.02-7.892 21.92-5.346C24.84-2.8 29.08-1.527 34.62-1.527ZM36.44-11.66C33.87-11.66 31.88-12.354 30.46-13.74C29.08-15.152 28.38-17.093 28.38-19.563L28.38-49.964C28.38-52.611 29.08-54.589 30.46-55.9C31.88-57.236 33.87-57.904 36.44-57.904L63.41-57.904C65.95-57.904 67.92-57.198 69.3-55.787C70.72-54.375 71.42-52.434 71.42-49.964L71.42-19.563C71.42-17.093 70.7-15.152 69.27-13.74C67.83-12.354 65.85-11.66 63.33-11.66L36.44-11.66ZM79.78-45.265L79.78-34.488L96.68-48.829C96.83-48.905 96.96-48.981 97.06-49.056C97.16-49.132 97.28-49.17 97.44-49.17C97.79-49.17 97.97-48.955 97.97-48.527L97.97-20.244C97.97-19.84 97.79-19.639 97.44-19.639C97.28-19.639 97.16-19.664 97.06-19.714C96.96-19.79 96.83-19.878 96.68-19.979L79.78-34.282L79.78-23.544L93.81-10.677C95.09-9.568 96.33-8.686 97.51-8.03C98.7-7.375 99.92-7.047 101.18-7.047C103.15-7.047 104.76-7.665 106.02-8.9C107.28-10.16 107.91-11.875 107.91-14.042L107.91-54.728C107.91-56.921 107.28-58.635 106.02-59.87C104.76-61.131 103.15-61.761 101.18-61.761C99.92-61.761 98.7-61.421 97.51-60.74C96.33-60.085 95.09-59.215 93.81-58.131L79.78-45.265Z"/>
  </g>
  <g id="Bold-S" transform="matrix(1 0 0 1 2277.36 696)">
   <path d="M33.83-2.038L64.69-2.038C69.88-2.038 73.88-3.425 76.68-6.198C79.5-8.945 80.91-12.815 80.91-17.806L80.91-51.27C80.91-56.261 79.5-60.131 76.68-62.878C73.88-65.626 69.88-67 64.69-67L33.83-67C28.71-67 24.72-65.626 21.84-62.878C18.99-60.131 17.57-56.249 17.57-51.232L17.57-17.163C17.57-12.172 18.97-8.403 21.77-5.857C24.59-3.311 28.61-2.038 33.83-2.038ZM35.38-10.622C32.63-10.622 30.5-11.353 28.99-12.815C27.5-14.302 26.76-16.432 26.76-19.205L26.76-49.871C26.76-52.745 27.5-54.887 28.99-56.299C30.5-57.736 32.63-58.454 35.38-58.454L63.14-58.454C65.86-58.454 67.97-57.711 69.46-56.223C70.97-54.736 71.72-52.619 71.72-49.871L71.72-19.205C71.72-16.432 70.96-14.302 69.42-12.815C67.91-11.353 65.79-10.622 63.07-10.622L35.38-10.622ZM78.98-44.756L78.98-35.227L96.3-50.06C96.45-50.161 96.58-50.249 96.68-50.325C96.81-50.4 96.95-50.438 97.1-50.438C97.48-50.438 97.66-50.186 97.66-49.682L97.66-18.865C97.66-18.386 97.48-18.146 97.1-18.146C96.95-18.146 96.81-18.184 96.68-18.26C96.58-18.335 96.45-18.424 96.3-18.524L78.98-33.357L78.98-23.866L93.43-10.659C94.54-9.727 95.61-8.97 96.64-8.391C97.7-7.836 98.79-7.559 99.9-7.559C101.74-7.559 103.25-8.164 104.43-9.374C105.62-10.584 106.21-12.197 106.21-14.214L106.21-54.333C106.21-56.375 105.62-58.001 104.43-59.211C103.25-60.421 101.74-61.026 99.9-61.026C98.79-61.026 97.7-60.736 96.64-60.156C95.61-59.576 94.54-58.833 93.43-57.925L78.98-44.756Z"/>
  </g>
  <g id="Semibold-S" transform="matrix(1 0 0 1 1981.26 696)">
   <path d="M33.26-3.097L64.31-3.097C69.28-3.097 73.14-4.433 75.88-7.105C78.63-9.777 80.01-13.546 80.01-18.411L80.01-51.724C80.01-56.564 78.63-60.32 75.88-62.992C73.14-65.664 69.28-67 64.31-67L33.26-67C28.4-67 24.57-65.664 21.77-62.992C18.97-60.32 17.57-56.551 17.57-51.686L17.57-17.995C17.57-13.155 18.93-9.462 21.65-6.916C24.4-4.37 28.27-3.097 33.26-3.097ZM34.62-10.622C31.75-10.622 29.52-11.378 27.93-12.89C26.37-14.428 25.59-16.672 25.59-19.621L25.59-50.476C25.59-53.501 26.37-55.757 27.93-57.244C29.52-58.757 31.75-59.513 34.62-59.513L62.91-59.513C65.79-59.513 68.01-58.744 69.57-57.207C71.16-55.669 71.95-53.425 71.95-50.476L71.95-19.621C71.95-16.672 71.16-14.428 69.57-12.89C67.98-11.378 65.75-10.622 62.88-10.622L34.62-10.622ZM78.46-45.096L78.46-36.399L96-51.573C96.18-51.673 96.33-51.762 96.45-51.837C96.58-51.938 96.71-51.988 96.83-51.988C97.24-51.988 97.44-51.724 97.44-51.194L97.44-18.6C97.44-18.096 97.24-17.844 96.83-17.844C96.71-17.844 96.58-17.882 96.45-17.957C96.33-18.033 96.18-18.121 96-18.222L78.46-33.357L78.46-24.736L93.16-11.34C94.12-10.533 95.08-9.878 96.04-9.374C97.02-8.87 98-8.618 98.99-8.618C100.75-8.618 102.19-9.197 103.3-10.357C104.43-11.542 105-13.092 105-15.008L105-54.749C105-56.69 104.43-58.24 103.3-59.4C102.19-60.584 100.75-61.177 98.99-61.177C98-61.177 97.02-60.925 96.04-60.421C95.08-59.916 94.12-59.261 93.16-58.454L78.46-45.096Z"/>
  </g>
  <g id="Medium-S" transform="matrix(1 0 0 1 1684.96 696)">
   <path d="M32.88-3.776L64.05-3.776C68.89-3.776 72.65-5.1 75.32-7.747C77.99-10.368 79.33-14.061 79.33-18.826L79.33-35.407L79.33-51.988C79.33-56.727 77.99-60.408 75.32-63.03C72.65-65.677 68.89-67 64.05-67L32.88-67C28.22-67 24.5-65.677 21.73-63.03C18.96-60.408 17.57-56.727 17.57-51.988L17.57-18.599C17.57-13.834 18.91-10.179 21.58-7.633C24.28-5.062 28.04-3.776 32.88-3.776ZM34.09-10.545C31.14-10.545 28.85-11.326 27.21-12.889C25.6-14.452 24.79-16.784 24.79-19.885L24.79-50.892C24.79-54.017 25.6-56.362 27.21-57.925C28.85-59.488 31.14-60.269 34.09-60.269L62.8-60.269C65.78-60.269 68.07-59.475 69.68-57.887C71.3-56.324 72.1-53.992 72.1-50.892L72.1-19.885C72.1-16.784 71.29-14.452 69.65-12.889C68.03-11.326 65.75-10.545 62.8-10.545L34.09-10.545ZM78.08-45.285L78.08-37.231L95.81-52.631C95.99-52.757 96.14-52.858 96.27-52.933C96.39-53.034 96.53-53.085 96.68-53.085C97.09-53.085 97.29-52.795 97.29-52.215L97.29-18.372C97.29-17.817 97.09-17.54 96.68-17.54C96.53-17.54 96.39-17.578 96.27-17.654C96.14-17.754 95.99-17.855 95.81-17.956L78.08-33.356L78.08-25.34L92.98-11.83C93.86-11.074 94.74-10.469 95.62-10.015C96.53-9.562 97.44-9.335 98.35-9.335C100.09-9.335 101.49-9.902 102.54-11.036C103.63-12.196 104.17-13.708 104.17-15.574L104.17-55.051C104.17-56.916 103.63-58.416 102.54-59.551C101.49-60.685 100.09-61.252 98.35-61.252C97.44-61.252 96.53-61.025 95.62-60.572C94.74-60.118 93.86-59.526 92.98-58.795L78.08-45.285Z"/>
  </g>
  <g id="Regular-S" transform="matrix(1 0 0 1 1389.3 696)">
   <path d="M32.32-3.842L62.79-3.842C67.4-3.842 71-5.115 73.6-7.661C76.22-10.232 77.53-13.824 77.53-18.436L77.53-51.444C77.53-56.031 76.22-59.598 73.6-62.143C71-64.714 67.4-66 62.79-66L32.32-66C27.9-66 24.34-64.714 21.62-62.143C18.92-59.598 17.57-56.031 17.57-51.444L17.57-18.436C17.57-13.824 18.87-10.232 21.46-7.661C24.09-5.115 27.7-3.842 32.32-3.842ZM33.37-9.551C30.27-9.551 27.88-10.358 26.19-11.971C24.5-13.584 23.66-16.029 23.66-19.306L23.66-50.536C23.66-53.813 24.5-56.258 26.19-57.871C27.88-59.509 30.27-60.329 33.37-60.329L61.73-60.329C64.83-60.329 67.22-59.509 68.91-57.871C70.6-56.258 71.44-53.813 71.44-50.536L71.44-19.306C71.44-16.029 70.6-13.584 68.91-11.971C67.22-10.358 64.83-9.551 61.73-9.551L33.37-9.551ZM76.66-44.628L76.66-37.444L94.66-53.183C94.84-53.309 94.99-53.41 95.11-53.485C95.26-53.586 95.42-53.636 95.57-53.636C96-53.636 96.21-53.334 96.21-52.729L96.21-17.113C96.21-16.533 96-16.243 95.57-16.243C95.42-16.243 95.26-16.281 95.11-16.357C94.99-16.458 94.84-16.558 94.66-16.659L76.66-32.398L76.66-25.252L91.82-11.517C92.58-10.887 93.36-10.37 94.17-9.967C94.97-9.589 95.77-9.4 96.55-9.4C98.21-9.4 99.55-9.955 100.56-11.064C101.57-12.173 102.07-13.609 102.07-15.374L102.07-54.468C102.07-56.233 101.57-57.669 100.56-58.778C99.55-59.888 98.21-60.442 96.55-60.442C95.77-60.442 94.97-60.24 94.17-59.837C93.36-59.459 92.58-58.955 91.82-58.325L76.66-44.628Z"/>
  </g>
  <g id="Light-S" transform="matrix(1 0 0 1 1092.56 696)">
   <path d="M31.49-4.363L63.86-4.363C68.27-4.363 71.69-5.56 74.11-7.955C76.56-10.35 77.78-13.753 77.78-18.165L77.78-52.236C77.78-56.622 76.56-60.013 74.11-62.408C71.69-64.803 68.27-66 63.86-66L31.49-66C27.23-66 23.83-64.803 21.31-62.408C18.82-60.013 17.57-56.622 17.57-52.236L17.57-18.165C17.57-13.753 18.79-10.35 21.24-7.955C23.68-5.56 27.1-4.363 31.49-4.363ZM32.36-8.712C29.05-8.712 26.53-9.556 24.79-11.245C23.08-12.934 22.22-15.48 22.22-18.884L22.22-51.479C22.22-54.883 23.08-57.429 24.79-59.118C26.53-60.807 29.05-61.651 32.36-61.651L63.03-61.651C66.31-61.651 68.8-60.807 70.52-59.118C72.26-57.429 73.13-54.883 73.13-51.479L73.13-18.884C73.13-15.48 72.26-12.934 70.52-11.245C68.8-9.556 66.31-8.712 63.03-8.712L32.36-8.712ZM77.06-44.095L77.06-38.65L95.1-54.164C95.4-54.391 95.66-54.568 95.89-54.694C96.12-54.845 96.36-54.92 96.61-54.92C97.29-54.92 97.63-54.454 97.63-53.521L97.63-16.842C97.63-15.909 97.29-15.442 96.61-15.442C96.36-15.442 96.12-15.518 95.89-15.669C95.66-15.821 95.4-15.997 95.1-16.199L77.06-31.751L77.06-26.268L92.83-12.304C93.56-11.724 94.29-11.245 95.02-10.867C95.75-10.514 96.51-10.338 97.29-10.338C98.75-10.338 99.92-10.817 100.81-11.775C101.69-12.758 102.13-14.056 102.13-15.669L102.13-54.694C102.13-56.307 101.69-57.593 100.81-58.551C99.92-59.534 98.75-60.025 97.29-60.025C96.51-60.025 95.75-59.836 95.02-59.458C94.29-59.105 93.56-58.639 92.83-58.059L77.06-44.095Z"/>
  </g>
  <g id="Thin-S" transform="matrix(1 0 0 1 796.397 696)">
   <path d="M30.426-4.97L64.125-4.97C68.259-4.97 71.435-6.067 73.653-8.26C75.872-10.478 76.981-13.642 76.981-17.751L76.981-53.219C76.981-57.328 75.872-60.479 73.653-62.672C71.435-64.891 68.259-66 64.125-66L30.426-66C26.342-66 23.179-64.891 20.935-62.672C18.691-60.479 17.57-57.328 17.57-53.219L17.57-17.751C17.57-13.642 18.679-10.478 20.897-8.26C23.116-6.067 26.292-4.97 30.426-4.97ZM31.031-7.617C27.477-7.617 24.804-8.512 23.015-10.302C21.25-12.092 20.368-14.764 20.368-18.318L20.368-52.652C20.368-56.232 21.25-58.904 23.015-60.668C24.804-62.458 27.477-63.353 31.031-63.353L63.52-63.353C67.074-63.353 69.733-62.458 71.498-60.668C73.288-58.904 74.183-56.232 74.183-52.652L74.183-18.318C74.183-14.764 73.288-12.092 71.498-10.302C69.733-8.512 67.074-7.617 63.52-7.617L31.031-7.617ZM76.376-43.378L76.376-40.164L94.526-55.412C94.98-55.74 95.383-56.017 95.736-56.244C96.089-56.471 96.429-56.585 96.757-56.585C97.765-56.585 98.269-55.904 98.269-54.543L98.269-16.428C98.269-15.066 97.765-14.386 96.757-14.386C96.429-14.386 96.089-14.499 95.736-14.726C95.383-14.953 94.98-15.23 94.526-15.558L76.376-30.845L76.376-27.593L92.938-13.327C93.644-12.798 94.324-12.356 94.98-12.004C95.635-11.676 96.328-11.512 97.059-11.512C98.244-11.512 99.202-11.915 99.933-12.722C100.664-13.529 101.03-14.638 101.03-16.05L101.03-54.921C101.03-56.333 100.664-57.442 99.933-58.248C99.202-59.055 98.244-59.458 97.059-59.458C96.328-59.458 95.635-59.295 94.98-58.967C94.324-58.639 93.644-58.198 92.938-57.643L76.376-43.378Z"/>
  </g>
  <g id="Ultralight-S" transform="matrix(1 0 0 1 499.531 696)">
   <path d="M29.858-4.275L65.116-4.275C69.099-4.275 72.149-5.321 74.267-7.413C76.384-9.531 77.443-12.581 77.443-16.564L77.443-52.711C77.443-56.694 76.384-59.732 74.267-61.824C72.149-63.941 69.099-65 65.116-65L29.858-65C25.876-65 22.825-63.941 20.708-61.824C18.616-59.732 17.57-56.694 17.57-52.711L17.57-16.564C17.57-12.581 18.616-9.531 20.708-7.413C22.825-5.321 25.876-4.275 29.858-4.275ZM30.35-6.09C26.67-6.09 23.922-6.997 22.107-8.812C20.317-10.652 19.422-13.4 19.422-17.055L19.422-52.258C19.422-55.913 20.317-58.648 22.107-60.463C23.922-62.278 26.67-63.185 30.35-63.185L64.625-63.185C68.28-63.185 71.015-62.278 72.83-60.463C74.645-58.648 75.552-55.913 75.552-52.258L75.552-17.055C75.552-13.4 74.645-10.652 72.83-8.812C71.015-6.997 68.28-6.09 64.625-6.09L30.35-6.09ZM76.914-42.038L76.914-39.883L95.101-55.018C95.605-55.421 96.071-55.749 96.5-56.001C96.928-56.253 97.332-56.379 97.71-56.379C98.869-56.379 99.449-55.61 99.449-54.073L99.449-15.202C99.449-13.665 98.869-12.896 97.71-12.896C97.332-12.896 96.928-13.022 96.5-13.274C96.071-13.526 95.605-13.854 95.101-14.257L76.914-29.43L76.914-27.237L93.853-12.858C94.534-12.329 95.176-11.9 95.781-11.572C96.412-11.27 97.092-11.119 97.823-11.119C98.882-11.119 99.726-11.472 100.357-12.177C101.012-12.883 101.34-13.904 101.34-15.24L101.34-54.035C101.34-55.371 101.012-56.392 100.357-57.097C99.726-57.803 98.882-58.156 97.823-58.156C97.092-58.156 96.412-58.005 95.781-57.702C95.176-57.4 94.534-56.971 93.853-56.417L76.914-42.038Z"/>
  </g>
 </g>
</svg>
