<svg width="768" height="204" viewBox="0 0 768 204" fill="none" xmlns="http://www.w3.org/2000/svg"><path d="M625.349 182.757h-13.05v-13.268h-12.975v-13.344h-12.975v-13.268h-9.45V68.409h-43.275v65.495h-26.475v-29.45h-43.35v69.56" stroke="#4285F4" stroke-width="3" stroke-miterlimit="10" stroke-linecap="round" stroke-linejoin="round"/><path d="m693.671 162.813-13.65 5.905c-.825.383-1.8 0-2.1-.844l-5.775-13.958c-.375-.843 0-1.84.825-2.147l13.65-5.905c.825-.384 1.8 0 2.1.843l5.775 13.958c.375.844 0 1.841-.825 2.148z" fill="#34A853"/><path d="M576.899 68.41V83.9c1.125.154 2.325.23 3.525.23 14.325 0 25.95-11.887 25.95-26.535s-11.625-26.535-25.95-26.535-25.95 11.887-25.95 26.535c0 3.835.825 7.516 2.25 10.813h20.175z" stroke="#4285F4" stroke-width="3" stroke-miterlimit="10" stroke-linejoin="round"/><path d="M580.424 8.437v9.356m-41.625 15.262 7.95 4.678m67.35 39.803 7.95 4.678m-7.95-44.481 7.95-4.678M509.325 76.31V40.646H476.55v49.467h-20.025v-22.24H423.75v69.253" stroke="#4285F4" stroke-width="3" stroke-miterlimit="10" stroke-linecap="round" stroke-linejoin="round"/><path d="M549.074 79.913h-6.3v8.13h6.3v-8.13zm14.551 0h-6.3v8.13h6.3v-8.13zm-14.551 18.099h-6.3v8.129h6.3v-8.13zm14.551 0h-6.3v8.129h6.3v-8.13zm-14.551 18.1h-6.3v8.13h6.3v-8.13zm14.551 0h-6.3v8.13h6.3v-8.13zm-14.551 18.099h-6.3v8.129h6.3v-8.129z" fill="#FBBC05"/><path d="M518.849 151.85h-6.3v8.129h6.3v-8.129zm0 18.099h-6.3v8.13h6.3v-8.13z" fill="#4285F4"/><path d="M563.625 134.211h-6.3v8.129h6.3v-8.129z" fill="#FBBC05"/><path d="M486.599 117.723h-6.3v8.129h6.3v-8.129zm14.55 0h-6.3v8.129h6.3v-8.129zm-14.55 18.098h-6.3v8.13h6.3v-8.13zm14.55 0h-6.3v8.13h6.3v-8.13zm-14.55 18.099h-6.3v8.129h6.3v-8.129zm181.726-64.037c4.184 0 7.575-3.468 7.575-7.745 0-4.279-3.391-7.746-7.575-7.746s-7.575 3.468-7.575 7.746c0 4.277 3.391 7.745 7.575 7.745z" fill="#4285F4"/><path d="m150.291 105.311 11.243-55.464-9.838-1.532-9.946 66.459 46.703 7.165 1.297-8.423-39.459-8.205z" stroke="#4285F4" stroke-width="3" stroke-miterlimit="10" stroke-linejoin="round"/><path d="m260.867 31.61-2.85 16.75c-.143.962.641 1.684 1.425 1.443l14.324-5.53c.784-.32.998-1.523.357-2.084L262.72 31.05c-.641-.72-1.639-.32-1.853.561z" fill="#4285F4"/><path d="M341.839 139.986c3.571-1.305 5.49-5.447 4.317-9.249-1.226-3.802-5.117-5.845-8.688-4.596l-17.057 6.128c-3.571 1.305-5.489 5.448-4.317 9.25 1.226 3.801 5.117 5.844 8.688 4.596l17.057-6.129z" fill="#FBBC05"/><path d="m182.25 68.018 23.25 4.84-18.524-28.377-4.726 23.537z" stroke="#4285F4" stroke-width="3" stroke-miterlimit="10" stroke-linejoin="round"/><path d="M151.5 165.654c2.9 0 5.25-2.404 5.25-5.369 0-2.964-2.35-5.368-5.25-5.368-2.899 0-5.25 2.404-5.25 5.368 0 2.965 2.351 5.369 5.25 5.369z" fill="#FBBC05"/><path d="m252.494 189.251-46.002-16.628a2.614 2.614 0 0 1-1.551-3.337l24.392-70.614c.481-1.367 1.925-2.078 3.263-1.586l46.002 16.628a2.614 2.614 0 0 1 1.551 3.336l-24.392 70.615a2.617 2.617 0 0 1-3.263 1.586z" stroke="#4285F4" stroke-width="3" stroke-miterlimit="10" stroke-linejoin="round"/><path d="m258.859 183.891-5.616-2.024m8.024-4.868-5.617-2.023m7.97-4.869-5.616-2.024m8.023-4.923-5.616-2.024m8.023-4.868-5.616-2.024m7.97-4.922-5.617-2.024m8.024-4.869-5.617-2.024m7.971-4.867-5.564-2.078m7.97-4.868-5.616-2.024m8.023-4.867-5.616-2.024" stroke="#4285F4" stroke-width="3" stroke-miterlimit="10" stroke-linecap="round" stroke-linejoin="round"/><path d="m243.239 121.097 14.228.219-6.9-12.69-7.328 12.471z" stroke="#4285F4" stroke-width="3" stroke-miterlimit="10" stroke-linejoin="round"/><path d="m250.522 108.597 6.915 12.716 74.194-42.187-6.915-12.716-74.194 42.187zm-63.398-63.921L164.06 39.88l-13.31 65.565 46.182 9.593 8.568-42.24-18.376-28.122z" stroke="#4285F4" stroke-width="3" stroke-miterlimit="10" stroke-linejoin="round"/><path d="M156.783 93.162c-.381 4.907 2.608 9.483 7.227 11.082.706.22 1.467-.221 1.576-.937l1.63-8.105c.163-.661-.272-1.378-.978-1.488l-7.988-1.654c-.707-.166-1.413.386-1.467 1.102z" fill="#34A853"/><path d="M178.125 95.098c3.521 0 6.375-2.918 6.375-6.519 0-3.6-2.854-6.518-6.375-6.518s-6.375 2.918-6.375 6.518c0 3.6 2.854 6.52 6.375 6.52z" fill="#FBBC05"/><path d="m177.432 106.546-7.235-1.459c-1.478-.302-2.446-1.761-2.141-3.219.306-1.459 1.784-2.415 3.262-2.113l7.235 1.459c1.478.302 2.446 1.76 2.141 3.219-.255 1.459-1.733 2.415-3.262 2.113z" fill="#4285F4"/></svg>
