<svg xmlns="http://www.w3.org/2000/svg" width="1024" height="726" fill="none" preserveAspectRatio="none" viewBox="0 0 1024 726"><g clip-path="url(#a)"><path fill="#1F1F1F" d="M0 0h1024v726H0z"/><g filter="url(#b)"><path fill="url(#c)" d="M1077 447c-6.2-61.339 18.09-85.378 34.39-113H1190l-11.24 409.997-187.26 2.753c-15.565 20.271-60.838 12.206-131.783 1.938L463.5 754.513c169.31-36.127 304.307-19.128 396.217-5.825L991.5 746.75c109.7-142.869 93.25-223.077 85.5-299.75Z"/><path fill="url(#d)" d="M1077 447c-6.2-61.339 18.09-85.378 34.39-113H1190l-11.24 409.997-187.26 2.753c-15.565 20.271-60.838 12.206-131.783 1.938L463.5 754.513c169.31-36.127 304.307-19.128 396.217-5.825L991.5 746.75c109.7-142.869 93.25-223.077 85.5-299.75Z"/></g><g filter="url(#e)"><path fill="url(#f)" d="M715.5-48C602.277-48 585.261-57.812 548-77.191V-126h507v262c-9.6-53.594-53.51-190-96.5-190-53.733 0-101.471 6-243 6Z"/></g><g filter="url(#g)"><path fill="url(#h)" d="M-7.5 609c0 73.288-5.894 115.003-21 118L-98 658.879V-67.255l242.677-47.486c.448-.092.889-.179 1.323-.259l-1.323.259C91.793-103.834-54.405-8.897-41 29 .862 147.343-88.115 224.539-78.5 333c9.217 103.974 71 184.39 71 276Z"/><path fill="url(#i)" d="M-7.5 609c0 73.288-5.894 115.003-21 118L-98 658.879V-67.255l242.677-47.486c.448-.092.889-.179 1.323-.259l-1.323.259C91.793-103.834-54.405-8.897-41 29 .862 147.343-88.115 224.539-78.5 333c9.217 103.974 71 184.39 71 276Z"/></g></g><defs><linearGradient id="c" x1="585.539" x2="1401.74" y1="620.454" y2="620.454" gradientUnits="userSpaceOnUse"><stop offset=".313" stop-color="#C1C8FB"/><stop offset="1" stop-color="#E9634E"/></linearGradient><linearGradient id="d" x1="463.5" x2="1199.51" y1="544.877" y2="544.877" gradientUnits="userSpaceOnUse"><stop offset=".487" stop-color="#3186FF"/><stop offset=".774" stop-color="#7F9CFF"/><stop offset=".981" stop-color="#A7A7FF"/></linearGradient><linearGradient id="f" x1="471.134" x2="1062.64" y1="-11.874" y2="-11.874" gradientUnits="userSpaceOnUse"><stop offset=".322" stop-color="#FEC700"/><stop offset=".817" stop-color="#FFB5E8"/></linearGradient><linearGradient id="h" x1="79.119" x2="79.119" y1="-13.5" y2="429.076" gradientUnits="userSpaceOnUse"><stop stop-color="#60AE66"/><stop offset=".649" stop-color="#9DD8DE"/></linearGradient><linearGradient id="i" x1="24" x2="24" y1="-115" y2="704" gradientUnits="userSpaceOnUse"><stop offset=".654" stop-color="#00AF57"/><stop offset="1" stop-color="#78C9FF"/></linearGradient><filter id="b" width="993.799" height="692.582" x="329.851" y="200.351" color-interpolation-filters="sRGB" filterUnits="userSpaceOnUse"><feFlood flood-opacity="0" result="BackgroundImageFix"/><feBlend in="SourceGraphic" in2="BackgroundImageFix" result="shape"/><feGaussianBlur result="effect1_foregroundBlur_4773_80048" stdDeviation="66.825"/></filter><filter id="e" width="774.299" height="529.299" x="414.351" y="-259.649" color-interpolation-filters="sRGB" filterUnits="userSpaceOnUse"><feFlood flood-opacity="0" result="BackgroundImageFix"/><feBlend in="SourceGraphic" in2="BackgroundImageFix" result="shape"/><feGaussianBlur result="effect1_foregroundBlur_4773_80048" stdDeviation="66.825"/></filter><filter id="g" width="511.299" height="1109.3" x="-231.649" y="-248.649" color-interpolation-filters="sRGB" filterUnits="userSpaceOnUse"><feFlood flood-opacity="0" result="BackgroundImageFix"/><feBlend in="SourceGraphic" in2="BackgroundImageFix" result="shape"/><feGaussianBlur result="effect1_foregroundBlur_4773_80048" stdDeviation="66.825"/></filter><clipPath id="a"><path fill="#fff" d="M0 0h1024v726H0z"/></clipPath></defs></svg>