<svg viewBox="0 0 163 375" fill="none" xmlns="http://www.w3.org/2000/svg"><g clip-path="url(#a)"><path d="M-6.558 210.081c-12.936 0-23.42-10.483-23.42-23.42 0-12.937 10.484-23.419 23.42-23.419h46.84c12.937 0 23.42 10.482 23.42 23.419 0 12.937-10.483 23.42-23.42 23.42h-46.84Z" fill="#4285F4"/><path d="M-6.558 210.081c12.935 0 23.42-10.486 23.42-23.42 0-12.934-10.485-23.419-23.42-23.419-12.934 0-23.42 10.485-23.42 23.419 0 12.934 10.486 23.42 23.42 23.42Z" fill="#8AB4F8"/><path d="M40.282 210.081c12.934 0 23.42-10.486 23.42-23.42 0-12.934-10.486-23.419-23.42-23.419-12.935 0-23.42 10.485-23.42 23.419 0 12.934 10.485 23.42 23.42 23.42Z" fill="#8AB4F8"/><path d="M52.36 61.103c-1.009 0-1.513 1.219-.803 1.933l7.654 7.653a1.934 1.934 0 0 1 0 2.74l-7.658 7.658c-.715.714-.206 1.933.802 1.933h29.338V61.107H52.359v-.004Z" fill="#EA4335"/><path d="m83.156 61.669 9.017 9.016a1.934 1.934 0 0 1 0 2.74l-9.017 9.016c-1.219 1.219-3.305.355-3.305-1.367V63.036c0-1.723 2.086-2.586 3.305-1.367Z" fill="#F28B82"/><path d="M142.11 148.948h-17.237a2.156 2.156 0 0 1-2.155-2.154v-17.237c0-1.189.966-2.155 2.155-2.155h17.237c1.189 0 2.154.966 2.154 2.155v17.237a2.152 2.152 0 0 1-2.154 2.154ZM39.345 270.73c6.726 0 12.178-5.452 12.178-12.178 0-6.726-5.452-12.178-12.178-12.178-6.726 0-12.178 5.452-12.178 12.178 0 6.726 5.452 12.178 12.178 12.178Z" fill="#3C4043"/></g><defs><clipPath id="a"><path fill="#fff" d="M0 0h163v374.713H0z"/></clipPath></defs></svg>