<svg width="20" height="20" viewBox="0 0 20 20" xmlns="http://www.w3.org/2000/svg"><path fill-rule="evenodd" clip-rule="evenodd" d="M14.09 5l-1.153 1.175L16.685 10l-3.748 3.825L14.091 15 19 10l-4.91-5zM7.064 6.175L5.909 5 1 10l4.91 5 1.153-1.175L3.315 10l3.748-3.825zM7.055 11a.991.991 0 0 0 .981-1c0-.552-.44-1-.981-1a.991.991 0 0 0-.982 1c0 .552.44 1 .982 1zM10 11a.991.991 0 0 0 .982-1c0-.552-.44-1-.982-1a.991.991 0 0 0-.982 1c0 .552.44 1 .982 1zm2.945 0a.991.991 0 0 0 .982-1c0-.552-.44-1-.982-1a.991.991 0 0 0-.981 1c0 .552.44 1 .981 1z"/></svg>