<svg xmlns="http://www.w3.org/2000/svg" width="20" height="20" viewBox="0 0 20 20">
  <path fill-rule="evenodd" d="M7.99999976,4.4408921e-15 C11.7328,4.4408921e-15 14.4955,1.61135 15.6876,2.44135 C16.0317,2.68099 16.1038,3.16533 15.8425,3.49646 L15.8425,3.49646 L8.5554,12.7289 C8.2698,13.0905 7.72802,13.0905 7.44247,12.7281 L7.44247,12.7281 L0.15749,3.49646 C-0.10379,3.16533 -0.03169,2.68099 0.31239,2.44135 C1.50455,1.61135 4.26792,4.4408921e-15 7.99999976,4.4408921e-15 Z M7.9986,5 C9.23601,5 10.350948,5.2101302 11.3111193,5.50860386 L11.6254,5.6112 L11.6254,5.6112 C12.314,4.73885 13.3886,3.37739 13.3886,3.37739 C12.1425,2.71268 10.2788,2 8,2 C5.72159,2 3.85753,2.71277 2.61134,3.37751 C2.61134,3.37751 3.36107,4.32758 4.3736,5.61069 C5.40153,5.25916 6.62474,5 7.9986,5 Z" transform="translate(2 4)"/>
</svg>
