<svg width="20" height="20" viewBox="0 0 20 20" xmlns="http://www.w3.org/2000/svg"><path fill-rule="evenodd" clip-rule="evenodd" d="M9.442 16.728a.706.706 0 0 0 1.113 0l7.288-9.232a.734.734 0 0 0-.155-1.055C16.496 5.611 13.733 4 10 4 6.268 4 3.505 5.611 2.312 6.441a.734.734 0 0 0-.155 1.055l7.285 9.232Zm-4.83-9.35 5.387 6.827 5.39-6.828C14.143 6.713 12.279 6 10 6c-2.278 0-4.142.713-5.389 1.378Z"/><path fill-rule="evenodd" clip-rule="evenodd" d="M10.667 9 12 7.667 11.333 7 10 8.333 8.667 7 8 7.667 9.333 9 8 10.333l.667.667L10 9.667 11.333 11l.667-.667L10.667 9Z"/></svg>