<svg width="20" height="20" viewBox="0 0 20 20" xmlns="http://www.w3.org/2000/svg">
<path fill-rule="evenodd" clip-rule="evenodd" d="M9.44247 16.7281C9.72802 17.0905 10.2698 17.0905 10.5554 16.7289L17.8425 7.49646C18.1038 7.16533 18.0317 6.68099 17.6876 6.44135C16.4955 5.61135 13.7328 4 10 4C6.26792 4 3.50455 5.61135 2.31239 6.44135C1.96831 6.68099 1.89621 7.16533 2.15749 7.49646L9.44247 16.7281ZM4.61134 7.37751L9.99932 14.2053L15.3886 7.37739C14.1425 6.71268 12.2788 6 10 6C7.72159 6 5.85753 6.71277 4.61134 7.37751Z" />
<path fill-rule="evenodd" clip-rule="evenodd" d="M10.6667 9L12 7.66667L11.3333 7L10 8.33333L8.66667 7L8 7.66667L9.33333 9L8 10.3333L8.66667 11L10 9.66667L11.3333 11L12 10.3333L10.6667 9Z" />
</svg>
