<svg xmlns="http://www.w3.org/2000/svg" width="20" height="20" viewBox="0 0 20 20">
  <g fill="none" fill-rule="evenodd">
    <path fill="#000" fill-opacity=".3" fill-rule="nonzero" d="M14.6412814,12 L19.7888889,5.58888889 C19.4111111,5.3 15.6444444,2.22222222 10,2.22222222 C4.35555556,2.22222222 0.588888889,5.3 0.211111111,5.58888889 L9.98888889,17.7666667 L10.0111111,17.7666667 L12,15.289596 L12,12 L14.6412814,12 Z"/>
    <polygon points="0 0 20 0 20 20 0 20"/>
    <polygon fill="#B2B2B2" fill-rule="nonzero" points="18.833 13.588 18.246 13 15.917 15.329 13.588 13 13 13.588 15.329 15.917 13 18.246 13.588 18.833 15.917 16.504 18.246 18.833 18.833 18.246 16.504 15.917"/>
  </g>
</svg>
