<svg width="24" height="24" xmlns="http://www.w3.org/2000/svg"><defs><filter x="-80.8%" y="-80.8%" width="261.5%" height="261.5%" filterUnits="objectBoundingBox" id="a"><feOffset dy="2" in="SourceAlpha" result="shadowOffsetOuter1"/><feGaussianBlur stdDeviation="1.5" in="shadowOffsetOuter1" result="shadowBlurOuter1"/><feColorMatrix values="0 0 0 0 0.125490196 0 0 0 0 0.129411765 0 0 0 0 0.141176471 0 0 0 0.3 0" in="shadowBlurOuter1" result="shadowMatrixOuter1"/><feMerge><feMergeNode in="shadowMatrixOuter1"/><feMergeNode in="SourceGraphic"/></feMerge></filter></defs><g filter="url(#a)" transform="translate(5.5 5.5)" fill="#FFF" fill-rule="nonzero"><path d="M.722 0v1.444h3.611V2.89H1.444v1.444h2.89v1.445H.721v1.444h3.611c.795 0 1.445-.65 1.445-1.444V4.694c0-.599-.123-1.083-.722-1.083.599 0 .722-.484.722-1.083V1.444C5.778.65 5.128 0 4.333 0H.723zm10.111 0c.795 0 1.445.65 1.445 1.444v4.334c0 .794-.65 1.444-1.445 1.444H8.667c-.795 0-1.445-.65-1.445-1.444V1.444C7.222.65 7.872 0 8.667 0h2.166zm0 1.444H8.667v4.334h2.166V1.444zM1.444 13H0V9.389h1.444V13zm2.89 0H2.888V9.389h1.444V13zm2.888 0H5.778V9.389h1.444V13zM13 13H8.667V9.389H13V13z"/></g></svg>