<svg xmlns="http://www.w3.org/2000/svg" width="48" height="48" fill="#626262"><path d="M24 4c3.31 0 6 2.69 6 6s-2.69 6-6 6-6-2.69-6-6 2.69-6 6-6z"/><path fill="none" d="M0 0h48v48H0V0z"/><circle fill="none" cx="24" cy="26" r="4"/><path d="M24 18c-6.16 0-13 3.12-13 7.23v11.54c0 2.32 2.19 4.33 5.2 5.63 2.32 1 5.12 1.59 7.8 1.59.66 0 1.33-.06 2-.14v-5.2c-.67.08-1.34.14-2 .14-2.63 0-5.39-.57-7.68-1.55.67-2.12 4.34-3.65 7.68-3.65.86 0 1.75.11 2.6.29 2.79.62 5.2 2.15 5.2 4.04v4.47c3.01-1.31 5.2-3.31 5.2-5.63V25.23C37 21.12 30.16 18 24 18zm0 12c-2.21 0-4-1.79-4-4s1.79-4 4-4 4 1.79 4 4-1.79 4-4 4z"/></svg>