<svg width="238" height="170" viewBox="0 0 238 170" fill="none" xmlns="http://www.w3.org/2000/svg"><path d="M226.1 136H11.9" stroke="url(#a)" stroke-width="3.4"/><rect x="62.9" y="40.8" width="112.2" height="83.3" rx="10.2" fill="url(#b)"/><path d="M47.988 127.5h149.6a6.8 6.8 0 0 1-6.8 6.8h-136a6.8 6.8 0 0 1-6.8-6.8Z" fill="#0B57D0"/><rect x="67.15" y="45.05" width="103.7" height="74.8" rx="5.95" stroke="#1F1F1F" stroke-width="1.7"/><circle cx="88.4" cy="71.4" r="5.95" stroke="#1F1F1F" stroke-width="1.7"/><circle cx="129.2" cy="71.4" r="6.8" fill="#A8C7FA"/><circle cx="108.8" cy="71.4" r="6.8" fill="#A8C7FA"/><circle cx="149.6" cy="71.4" r="5.95" stroke="#A8C7FA" stroke-width="1.7"/><circle cx="88.4" cy="91.8" r="5.95" stroke="#A8C7FA" stroke-width="1.7"/><circle cx="129.2" cy="91.8" r="5.95" stroke="#A8C7FA" stroke-width="1.7"/><circle cx="108.8" cy="91.8" r="6.8" fill="#A8C7FA"/><circle cx="149.6" cy="91.8" r="5.95" stroke="#1F1F1F" stroke-width="1.7"/><defs><linearGradient id="a" x1="12.889" y1="136" x2="226.1" y2="136" gradientUnits="userSpaceOnUse"><stop stop-color="#0842A0" stop-opacity="0"/><stop offset=".25" stop-color="#0842A0"/><stop offset=".776" stop-color="#0842A0"/><stop offset="1" stop-color="#0842A0" stop-opacity="0"/></linearGradient><linearGradient id="b" x1="97.963" y1="65.234" x2="74.141" y2="116.251" gradientUnits="userSpaceOnUse"><stop offset=".354" stop-color="#5E5E5E"/><stop offset=".953" stop-color="#0B57D0"/></linearGradient></defs></svg>