<svg width="24" height="24" viewBox="0 0 24 24" fill="none" xmlns="http://www.w3.org/2000/svg"><g clip-path="url(#a)" fill="#fff"><path d="M5.225 10.265A6.996 6.996 0 0 1 12 5h9.733a11.976 11.976 0 0 0-19.512.061l3.004 5.204zM22.898 7h-6.003a6.979 6.979 0 0 1 1.162 8.498l.008.004-4.872 8.438A11.98 11.98 0 0 0 22.898 7zm-9.009 11.735A6.964 6.964 0 0 1 5.944 15.5l-.004.002-4.87-8.435a11.98 11.98 0 0 0 9.812 16.877l3.007-5.21z"/><path d="M12 17a5 5 0 1 0 0-10 5 5 0 0 0 0 10z"/></g><defs><clipPath id="a"><path fill="#fff" d="M0 0h24v24H0z"/></clipPath></defs></svg>