<svg width="27" height="27" xmlns="http://www.w3.org/2000/svg"><g fill="none" fill-rule="evenodd" opacity=".34"><path d="M20.036 5.03a.621.621 0 0 1-.26-.063c-2.153-1.114-4.026-1.592-6.265-1.592-2.232 0-4.336.534-6.265 1.586a.563.563 0 1 1-.54-.989 14.097 14.097 0 0 1 6.806-1.72c2.398 0 4.49.53 6.785 1.716.276.14.382.483.242.76a.57.57 0 0 1-.5.303zM3.937 10.934a.6.6 0 0 1-.326-.1.562.562 0 0 1-.134-.783A11.717 11.717 0 0 1 7.7 6.368c3.54-1.83 8.06-1.834 11.605-.012a11.79 11.79 0 0 1 4.22 3.656.56.56 0 0 1-.13.782.565.565 0 0 1-.788-.13 10.572 10.572 0 0 0-3.814-3.306c-3.23-1.66-7.352-1.654-10.575.01a10.59 10.59 0 0 0-3.82 3.336.57.57 0 0 1-.46.23zm7.037 13.573a.556.556 0 0 1-.4-.17c-.972-.983-1.5-1.607-2.26-2.963-.777-1.384-1.187-3.077-1.187-4.888 0-3.34 2.857-6.064 6.373-6.064s6.373 2.717 6.373 6.064a.563.563 0 0 1-1.124-.001c0-2.723-2.35-4.94-5.248-4.94-2.89 0-5.248 2.217-5.248 4.94 0 1.62.36 3.116 1.04 4.337.726 1.293 1.21 1.85 2.076 2.722.22.22.22.58-.005.793a.51.51 0 0 1-.39.168zm8.06-2.08c-1.338 0-2.513-.34-3.486-.997-1.67-1.135-2.672-2.98-2.672-4.938a.563.563 0 0 1 1.125.001c0 1.58.816 3.076 2.183 4.005.793.54 1.727.804 2.852.804.27 0 .726-.028 1.176-.107a.566.566 0 0 1 .653.456.566.566 0 0 1-.456.653 8.078 8.078 0 0 1-1.372.124zM16.77 24.75c-.05 0-.1-.006-.146-.023-1.794-.49-2.964-1.153-4.18-2.362a8.232 8.232 0 0 1-2.435-5.872c0-1.83 1.552-3.314 3.465-3.314 1.912 0 3.465 1.484 3.465 3.313 0 1.203 1.052 2.188 2.34 2.188 1.288 0 2.34-.978 2.34-2.188 0-4.24-3.656-7.69-8.15-7.69-3.2 0-6.12 1.78-7.437 4.535-.44.91-.658 1.974-.658 3.155 0 .878.08 2.262.748 4.056a.567.567 0 0 1-.332.726.568.568 0 0 1-.726-.332c-.55-1.48-.82-2.93-.82-4.45 0-1.35.258-2.576.77-3.64 1.502-3.138 4.82-5.168 8.45-5.168 5.112 0 9.274 3.954 9.274 8.814 0 1.828-1.558 3.313-3.465 3.313-1.906 0-3.464-1.484-3.464-3.312 0-1.204-1.052-2.188-2.34-2.188-1.288 0-2.34.98-2.34 2.188 0 1.918.748 3.724 2.104 5.074 1.063 1.057 2.098 1.642 3.684 2.076a.563.563 0 0 1 .394.69.556.556 0 0 1-.54.412z" fill="#000"/><path d="M0 0h27v27H0"/></g></svg>