<svg width="34" height="34" xmlns="http://www.w3.org/2000/svg"><g fill="none" fill-rule="evenodd"><path d="M-3-5h40v40H-3z"/><path d="M30.333 0H3.667A3.318 3.318 0 0 0 .35 3.333L.333 20a3.332 3.332 0 0 0 3.334 3.333h26.666A3.332 3.332 0 0 0 33.667 20V3.333A3.332 3.332 0 0 0 30.333 0zm-15 5h3.334v3.333h-3.334V5zm0 5h3.334v3.333h-3.334V10zm-5-5h3.334v3.333h-3.334V5zm0 5h3.334v3.333h-3.334V10zm-1.666 3.333H5.333V10h3.334v3.333zm0-5H5.333V5h3.334v3.333zm15 11.667H10.333v-3.333h13.334V20zm0-6.667h-3.334V10h3.334v3.333zm0-5h-3.334V5h3.334v3.333zm5 5h-3.334V10h3.334v3.333zm0-5h-3.334V5h3.334v3.333zM17 33.333l6.667-6.666H10.333L17 33.333z" fill-opacity=".8" fill="#FFF"/></g></svg>