<svg xmlns="http://www.w3.org/2000/svg" width="24" height="24"><path d="M18.602 20.398c-.684 0-1.286-.199-1.801-.597a2.983 2.983 0 0 1-1.051-1.5H9.898c-.914 0-1.695-.32-2.335-.965-.641-.64-.961-1.418-.961-2.336 0-.918.32-1.695.96-2.336.641-.644 1.422-.965 2.336-.965h3c.586 0 1.082-.203 1.489-.613A2.01 2.01 0 0 0 15 9.602c0-.586-.203-1.082-.613-1.489a2.013 2.013 0 0 0-1.489-.613H8.25A2.95 2.95 0 0 1 7.2 9a2.867 2.867 0 0 1-1.802.602c-.832 0-1.539-.293-2.125-.875a2.904 2.904 0 0 1-.875-2.125c0-.836.293-1.543.875-2.125a2.89 2.89 0 0 1 2.125-.875c.684 0 1.286.199 1.801.597.516.403.867.903 1.051 1.5h4.648c1.086 0 2.004.38 2.766 1.137.758.762 1.137 1.68 1.137 2.766 0 1.082-.38 2.003-1.137 2.761-.762.758-1.68 1.137-2.766 1.137h-3c-.414 0-.77.145-1.062.438-.29.292-.438.644-.438 1.062 0 .418.149.77.438 1.063.293.292.648.437 1.062.437h5.852A2.95 2.95 0 0 1 16.8 15a2.867 2.867 0 0 1 1.802-.602c.832 0 1.539.293 2.125.875.582.586.875 1.293.875 2.125 0 .836-.293 1.543-.875 2.125a2.89 2.89 0 0 1-2.125.875ZM6.25 7.45c.234-.234.352-.515.352-.847 0-.336-.118-.618-.352-.852a1.156 1.156 0 0 0-.852-.352c-.332 0-.613.118-.847.352a1.156 1.156 0 0 0-.352.852c0 .332.117.613.352.847.234.235.515.352.847.352.336 0 .618-.117.852-.352Zm0 0"/></svg>