<svg xmlns="http://www.w3.org/2000/svg" width="20" height="20"><path d="M10 16c-1.668 0-3.082-.582-4.25-1.75C4.582 13.082 4 11.668 4 10c0-1.668.582-3.082 1.75-4.25C6.918 4.582 8.332 4 10 4a5.68 5.68 0 0 1 2.512.563c.77.375 1.433.875 1.988 1.5V4H16v5h-5V7.5h2.73a4.443 4.443 0 0 0-1.585-1.457A4.332 4.332 0 0 0 10 5.5c-1.25 0-2.313.438-3.188 1.313S5.5 8.75 5.5 10c0 1.25.438 2.313 1.313 3.188C7.688 14.062 8.75 14.5 10 14.5c1.168 0 2.168-.387 3-1.156a4.425 4.425 0 0 0 1.438-2.844h1.542c-.125 1.555-.757 2.86-1.898 3.918C12.945 15.473 11.582 16 10 16Zm0 0"/></svg>