<svg xmlns="http://www.w3.org/2000/svg" width="32" height="30"><path d="M20.04 16.74 12.776 24l-2.42-2.42c-.668-.668 0-2.42 0-2.42l1.21-3.632c.302-.91.364-2.057 0-2.422-3.63-3.63-8.472-6.05-9.684-7.26a3.424 3.424 0 0 1 0-4.842 3.419 3.419 0 0 1 4.842 0c1.21 1.21 3.63 6.05 7.263 9.682.363.363 1.512.303 2.42 0l3.63-1.21s1.754-.668 2.422 0l2.42 2.42-4.84 4.843zM3.657 2.44a1.5 1.5 0 0 0 2.122 2.12 1.505 1.505 0 0 0 0-2.12 1.502 1.502 0 0 0-2.125 0zM24.32 24.9h-3.4v3.4l-1.7 1.7-5.1-5.1L26.02 13l5.1 5.1-6.8 6.8z" fill-rule="evenodd"/></svg>