<svg xmlns="http://www.w3.org/2000/svg" width="40" height="30"><path d="M3 5.005v19.99C3 26.103 3.895 27 5 27h30a2 2 0 0 0 2-2.005V5.005A2.002 2.002 0 0 0 35 3H5a2 2 0 0 0-2 2.005zm-3 0A5 5 0 0 1 5 0h30c2.763 0 5 2.242 5 5.005v19.99A5 5 0 0 1 35 30H5c-2.763 0-5-2.242-5-5.005V5.005zM29 8h3v13h-3V8zm-6 6.14l-.632-1.834-.147.046-3.195.98V10H16.98v3.33l-3.2-.978-.148-.046L13 14.14l.146.045 3.21.984-1.987 2.58-.09.115L15.93 19l.09-.118L18 16.316l1.978 2.566.09.118 1.655-1.133-.09-.117-1.988-2.58 3.21-.985.145-.045zM7.222 12.352l-3.2.98V10H3v6.316l1.977 2.566.09.118 1.654-1.133-.09-.117-1.985-2.58 3.21-.985L8 14.14l-.63-1.834-.148.046z" fill-rule="evenodd"/></svg>