<svg width="120" height="120" xmlns="http://www.w3.org/2000/svg"><g fill="none" fill-rule="evenodd"><path d="M0 0h120v120H0z"/><path d="M60 0c33.137 0 60 26.863 60 60s-26.863 60-60 60S0 93.137 0 60 26.863 0 60 0zm17.5 64.837c-6.456 0-11.822 4.502-13.222 10.516-3.267-1.397-6.3-1.009-8.556-.039C54.283 69.3 48.917 64.837 42.5 64.837c-7.506 0-13.611 6.092-13.611 13.582C28.889 85.908 34.994 92 42.5 92c7.156 0 12.95-5.51 13.494-12.495 1.167-.815 4.24-2.328 8.012.078C64.628 86.529 70.383 92 77.5 92c7.506 0 13.611-6.092 13.611-13.581 0-7.49-6.105-13.582-13.611-13.582zm-35 3.88c5.367 0 9.722 4.347 9.722 9.702 0 5.355-4.355 9.7-9.722 9.7-5.367 0-9.722-4.345-9.722-9.7 0-5.355 4.355-9.701 9.722-9.701zm35 0c5.367 0 9.722 4.347 9.722 9.702 0 5.355-4.355 9.7-9.722 9.7-5.367 0-9.722-4.345-9.722-9.7 0-5.355 4.355-9.701 9.722-9.701zM95 57H25v4h70v-4zM72.874 29.34c-.8-1.82-2.866-2.78-4.785-2.143L60 29.914l-8.128-2.717-.192-.058c-1.928-.533-3.954.51-4.669 2.387L38.144 53h43.712L72.95 29.526z" fill="#DADCE0"/></g></svg>