<svg width="180" height="90" viewBox="0 0 180 90" fill="none" xmlns="http://www.w3.org/2000/svg">
<g clip-path="url(#clip0_470_9987)">
<path d="M80.4487 8.68598C85.1497 3.91096 92.8503 3.91096 97.5513 8.68598L195.898 108.581C203.366 116.167 197.992 129 187.347 129H-9.34653C-19.9922 129 -25.3665 116.167 -17.8978 108.581L80.4487 8.68598Z" fill="#D2E3FC"/>
<path d="M83.2924 28.8114C86.4278 25.6189 91.5721 25.6189 94.7076 28.8114L185.637 121.394C190.607 126.454 187.022 135 179.93 135H-1.92972C-9.02226 135 -12.6071 126.454 -7.6373 121.394L83.2924 28.8114Z" fill="#AECBFA"/>
<path d="M84.7345 40.3119C87.0828 37.9381 90.9172 37.9381 93.2655 40.3119L170.89 118.78C174.639 122.569 171.955 129 166.625 129H11.3753C6.04547 129 3.36144 122.569 7.10976 118.78L84.7345 40.3119Z" fill="#4285F4"/>
<path d="M86.1716 47.8284C87.7337 46.2663 90.2663 46.2663 91.8284 47.8284L161.172 117.172C163.691 119.691 161.907 124 158.343 124H19.6569C16.0932 124 14.3086 119.691 16.8284 117.172L86.1716 47.8284Z" fill="#185ABC"/>
<rect x="71" y="56" width="38" height="28" rx="3" fill="white" stroke="#8AB4F8" stroke-width="2"/>
<path d="M66 88L114 88C114 88.5523 113.552 89 113 89H67C66.4477 89 66 88.5523 66 88Z" stroke="#8AB4F8" stroke-width="1.5"/>
<circle cx="81" cy="65" r="4" fill="#FBBC04"/>
<path d="M81 69C81.7106 69 82.4083 68.8107 83.0215 68.4516C83.6347 68.0925 84.1411 67.5765 84.4887 66.9567C84.8363 66.337 85.0126 65.6358 84.9993 64.9253C84.986 64.2149 84.7838 63.5208 84.4133 62.9144C84.0428 62.3081 83.5174 61.8113 82.8913 61.4754C82.2651 61.1394 81.5608 60.9763 80.8507 61.0028C80.1406 61.0293 79.4504 61.2445 78.8511 61.6263C78.2517 62.008 77.7649 62.5425 77.4407 63.1748L81 65L81 69Z" fill="#4285F4"/>
<rect x="87" y="71" width="16" height="8" rx="4" fill="#AECBFA"/>
<rect x="77" y="71" width="8" height="8" rx="1" fill="#34A853"/>
<rect width="16" height="8" rx="1" transform="matrix(-1 0 0 1 103 61)" fill="#FCC934"/>
<circle cx="81" cy="65" r="1.5" fill="white" stroke="white"/>
</g>
<defs>
<clipPath id="clip0_470_9987">
<rect width="180" height="90" fill="white"/>
</clipPath>
</defs>
</svg>
