<svg width="58" height="58" xmlns="http://www.w3.org/2000/svg"><defs><filter x="-50%" y="-50%" width="200%" height="200%" filterUnits="objectBoundingBox" id="a"><feOffset dy="2" in="SourceAlpha" result="shadowOffsetOuter1"/><feGaussianBlur stdDeviation="7" in="shadowOffsetOuter1" result="shadowBlurOuter1"/><feColorMatrix values="0 0 0 0 0 0 0 0 0 0 0 0 0 0 0 0 0 0 0.130321558 0" in="shadowBlurOuter1" result="shadowMatrixOuter1"/><feMerge><feMergeNode in="shadowMatrixOuter1"/><feMergeNode in="SourceGraphic"/></feMerge></filter></defs><g filter="url(#a)" transform="translate(-21 -24)" fill="#565656" fill-rule="evenodd"><path d="M51.029 63.285L40.745 53h23.171v-.002L64 53a2 2 0 1 0-.084-3.998V49h-23.17l10.283-10.285a2 2 0 1 0-2.484-3.086l-.043-.043L34.29 49.798l.065.065A1.99 1.99 0 0 0 34 51c0 .422.131.814.355 1.137l-.065.065 14.212 14.212.043-.043a2 2 0 1 0 2.484-3.086z"/></g></svg>