<svg width="36" height="59" xmlns="http://www.w3.org/2000/svg"><defs><filter x="-50%" y="-50%" width="200%" height="200%" filterUnits="objectBoundingBox" id="a"><feOffset dy="2" in="SourceAlpha" result="shadowOffsetOuter1"/><feGaussianBlur stdDeviation="7" in="shadowOffsetOuter1" result="shadowBlurOuter1"/><feColorMatrix values="0 0 0 0 0 0 0 0 0 0 0 0 0 0 0 0 0 0 0.130321558 0" in="shadowBlurOuter1" result="shadowMatrixOuter1"/><feMerge><feMergeNode in="shadowMatrixOuter1"/><feMergeNode in="SourceGraphic"/></feMerge></filter></defs><g filter="url(#a)" transform="translate(-670 -25)" fill="#565656" fill-rule="evenodd"><path d="M688 44.25c2.208 0 4-1.848 4-4.125S690.208 36 688 36c-2.21 0-4 1.848-4 4.125s1.79 4.125 4 4.125zm0 4.125c-2.21 0-4 1.848-4 4.125s1.79 4.125 4 4.125c2.208 0 4-1.848 4-4.125s-1.792-4.125-4-4.125zm0 12.375c-2.21 0-4 1.848-4 4.125S685.79 69 688 69c2.208 0 4-1.848 4-4.125s-1.792-4.125-4-4.125z"/></g></svg>