<svg width="90" height="90" xmlns="http://www.w3.org/2000/svg"><defs><filter x="-50%" y="-50%" width="200%" height="200%" filterUnits="objectBoundingBox" id="a"><feOffset dy="2" in="SourceAlpha" result="shadowOffsetOuter1"/><feGaussianBlur stdDeviation="15" in="shadowOffsetOuter1" result="shadowBlurOuter1"/><feColorMatrix values="0 0 0 0 0 0 0 0 0 0 0 0 0 0 0 0 0 0 0.29 0" in="shadowBlurOuter1" result="shadowMatrixOuter1"/><feMerge><feMergeNode in="shadowMatrixOuter1"/><feMergeNode in="SourceGraphic"/></feMerge></filter></defs><g filter="url(#a)" transform="translate(-118 -303)" fill="#5A5A5A" fill-rule="evenodd"><path d="M174.368 334.632L179 330v14h-14l6.534-6.534a12.014 12.014 0 0 0-8.463-3.466c-6.657 0-12.053 5.372-12.053 12s5.396 12 12.053 12c5.25 0 9.416-3.25 10.943-7.782l.22-.024c.373-.798 1.107-1.194 1.773-1.194.886 0 1.993.633 1.993 2 0 .296-.064.576-.178.828l.091-.006c-2.384 5.86-8.1 10.178-14.842 10.178-8.875 0-16.071-7.164-16.071-16s7.196-16 16.071-16c4.408 0 8.398 1.769 11.297 4.632z"/></g></svg>