<svg width="185" height="110" viewBox="0 0 185 110" fill="none" xmlns="http://www.w3.org/2000/svg"><path d="M0 106.313C0 108.349 5.153 110 11.51 110h161.98c6.357 0 11.51-1.651 11.51-3.687v-1.041H0v1.041Zm162.039-4.362H22.961a4.759 4.759 0 0 1-3.357-1.387 4.738 4.738 0 0 1-1.39-3.349V4.736a4.726 4.726 0 0 1 1.39-3.349A4.75 4.75 0 0 1 22.96 0h139.078a4.757 4.757 0 0 1 3.358 1.387 4.737 4.737 0 0 1 1.39 3.349v92.479a4.736 4.736 0 0 1-4.748 4.736Zm-.38-95.512H23.341v89.073h138.318V6.44Z" fill="#484C50"/><path fill="#FAFAFA" d="M23 6.592h138.972v89.193H23z"/></svg>