<svg xmlns="http://www.w3.org/2000/svg" width="303" height="389" fill="none" viewBox="0 0 303 389"><mask id="a" width="303" height="389" x="0" y="0" maskUnits="userSpaceOnUse" style="mask-type:alpha"><path fill="#D9D9D9" d="M0 0h303v389H0z"/></mask><g mask="url(#a)"><path fill="#B3CBF7" d="M283.316 51.843c-64.126-63.79-168.095-63.79-232.221 0-64.127 63.79-64.127 167.215 0 231.005l53.589 53.309c64.126 63.791 168.095 63.791 232.221 0 64.127-63.79 64.127-167.215 0-231.005l-53.589-53.31Z"/><mask id="b" width="383" height="380" x="3" y="4" maskUnits="userSpaceOnUse" style="mask-type:alpha"><path fill="#B3CBF7" d="M283.316 51.843c-64.126-63.79-168.095-63.79-232.221 0s-64.126 167.215 0 231.005l53.589 53.309c64.126 63.791 168.095 63.791 232.222 0 64.126-63.79 64.126-167.215 0-231.005l-53.59-53.31Z"/></mask><g mask="url(#b)"><g filter="url(#c)"><ellipse cx="24.877" cy="48.876" fill="#A7A7FF" rx="102.481" ry="102.43" transform="rotate(-134.138 24.877 48.876)"/></g><g filter="url(#d)"><circle cx="194" cy="508" r="337" fill="#3186FF" transform="rotate(90 194 508)"/></g></g></g><defs><filter id="c" width="346.309" height="346.314" x="-148.278" y="-124.282" color-interpolation-filters="sRGB" filterUnits="userSpaceOnUse"><feFlood flood-opacity="0" result="BackgroundImageFix"/><feBlend in="SourceGraphic" in2="BackgroundImageFix" result="shape"/><feGaussianBlur result="effect1_foregroundBlur_6755_46201" stdDeviation="35.35"/></filter><filter id="d" width="895.6" height="895.6" x="-253.8" y="60.2" color-interpolation-filters="sRGB" filterUnits="userSpaceOnUse"><feFlood flood-opacity="0" result="BackgroundImageFix"/><feBlend in="SourceGraphic" in2="BackgroundImageFix" result="shape"/><feGaussianBlur result="effect1_foregroundBlur_6755_46201" stdDeviation="55.4"/></filter></defs></svg>