<svg xmlns="http://www.w3.org/2000/svg" width="392" height="319" fill="none" viewBox="0 0 392 319"><mask id="a" width="392" height="319" x="0" y="0" maskUnits="userSpaceOnUse" style="mask-type:alpha"><path fill="#D9D9D9" d="M0 0h392v319H0z"/></mask><g mask="url(#a)"><path fill="#E79D2D" d="M377.576 247.561c35.45 81.622-47.393 164.465-129.015 129.015l-13.495-5.861a98.065 98.065 0 0 0-78.132 0l-13.495 5.861c-81.622 35.45-164.465-47.393-129.015-129.015l5.861-13.495a98.066 98.066 0 0 0 0-78.132l-5.861-13.495C-21.026 60.817 61.817-22.026 143.439 13.424l13.495 5.86a98.065 98.065 0 0 0 78.132 0l13.495-5.86c81.622-35.45 164.465 47.393 129.015 129.015l-5.861 13.495a98.065 98.065 0 0 0 0 78.132l5.861 13.495Z"/><mask id="b" width="380" height="380" x="6" y="5" maskUnits="userSpaceOnUse" style="mask-type:alpha"><path fill="#B3CBF7" d="M377.576 247.561c35.45 81.622-47.393 164.465-129.015 129.015l-13.495-5.861a98.065 98.065 0 0 0-78.132 0l-13.495 5.861c-81.622 35.45-164.465-47.393-129.015-129.015l5.861-13.495a98.066 98.066 0 0 0 0-78.132l-5.861-13.495C-21.026 60.817 61.817-22.026 143.439 13.424l13.495 5.86a98.065 98.065 0 0 0 78.132 0l13.495-5.86c81.622-35.45 164.465 47.393 129.015 129.015l-5.861 13.495a98.065 98.065 0 0 0 0 78.132l5.861 13.495Z"/></mask><g mask="url(#b)"><g filter="url(#c)"><circle cx="431.5" cy="384.5" r="361.5" fill="#FEC700" transform="rotate(90 431.5 384.5)"/></g><g filter="url(#d)"><ellipse cx="-27.477" cy="18.633" fill="#FFB5E8" rx="101.953" ry="102.43" transform="rotate(-144.405 -27.477 18.633)"/></g></g></g><defs><filter id="c" width="944.6" height="944.6" x="-40.8" y="-87.8" color-interpolation-filters="sRGB" filterUnits="userSpaceOnUse"><feFlood flood-opacity="0" result="BackgroundImageFix"/><feBlend in="SourceGraphic" in2="BackgroundImageFix" result="shape"/><feGaussianBlur result="effect1_foregroundBlur_6755_46399" stdDeviation="55.4"/></filter><filter id="d" width="345.644" height="345.955" x="-200.3" y="-154.345" color-interpolation-filters="sRGB" filterUnits="userSpaceOnUse"><feFlood flood-opacity="0" result="BackgroundImageFix"/><feBlend in="SourceGraphic" in2="BackgroundImageFix" result="shape"/><feGaussianBlur result="effect1_foregroundBlur_6755_46399" stdDeviation="35.35"/></filter></defs></svg>