<svg width="768" height="176" viewBox="0 0 768 176" fill="none" xmlns="http://www.w3.org/2000/svg"><g clip-path="url(#a)"><path d="M331.381 51.256c-3.426.433-6.141 2.286-7.808 4.919-1.149 1.773-2.875 3.04-4.883 3.529l-.946.218c-2.008.49-4.119-.02-5.924-1.086-2.633-1.666-5.91-2.137-9.19-1.073-4.806 1.543-8.012 6.474-7.415 11.497.678 6.59 6.929 10.87 13.205 9.5a10.59 10.59 0 0 0 6.778-4.733c1.118-1.69 2.844-2.956 4.852-3.445l.946-.219c2.008-.489 4.067-.095 5.84 1.055 2.329 1.455 5.258 2.082 8.181 1.459 6.276-1.372 10.116-7.982 7.946-14.175-1.648-5.037-6.558-8.044-11.582-7.446Z" fill="#4384F4"/><path d="M614.55 140.585c6.472 3.003 9.225 10.816 6.222 17.288-3.004 6.472-10.816 9.225-17.288 6.222l-30.907-14.499c-6.472-3.004-9.226-10.816-6.222-17.288 3.003-6.472 10.816-9.226 17.288-6.222l30.907 14.499Z" fill="#56A55C"/><path d="m488.802 85.099 60.196 15.679" stroke="#E8EAED" stroke-width="1.4" stroke-linecap="round" stroke-linejoin="round"/><path d="m552.844 59.499-47.338-12.33a2.603 2.603 0 0 0-3.177 1.863l-7.538 29.055a2.61 2.61 0 0 0 1.87 3.178l47.338 12.33a2.602 2.602 0 0 0 3.177-1.864l7.538-29.054a2.61 2.61 0 0 0-1.87-3.178Z" fill="#fff" stroke="#DADCE0" stroke-width="1.4" stroke-linecap="round" stroke-linejoin="round"/><path d="m539.735 63.491-7.459-1.943a2.042 2.042 0 0 0-2.492 1.462l-1.933 7.45a2.047 2.047 0 0 0 1.467 2.493l7.458 1.943a2.041 2.041 0 0 0 2.492-1.462l1.933-7.45a2.046 2.046 0 0 0-1.466-2.493Z" fill="#4285F4"/><path d="m616.041 38.663-12.013 39.3a3.026 3.026 0 0 0 2.009 3.774l14.344 4.398a3.019 3.019 0 0 0 3.774-2.002l12.013-39.3a3.026 3.026 0 0 0-2.009-3.774l-14.344-4.398a3.019 3.019 0 0 0-3.774 2.002Z" fill="#fff" stroke="#DADCE0" stroke-width="1.4" stroke-linecap="round" stroke-linejoin="round"/><path d="m615.317 55.968-2.25 7.36a2.046 2.046 0 0 0 1.358 2.554l7.369 2.259a2.042 2.042 0 0 0 2.553-1.354l2.25-7.36a2.047 2.047 0 0 0-1.359-2.553l-7.369-2.26a2.04 2.04 0 0 0-2.552 1.354Z" fill="#34A853"/><path d="M619.345 42.08a1.294 1.294 0 1 0 .538-2.534 1.293 1.293 0 0 0-1.537.996c-.149.7.298 1.389.999 1.538Z" fill="#E8EAED"/><path d="M558.535 49.767c6.422-7.733 24.275-19.222 44.312-3.318" stroke="#DADCE0" stroke-width="1.4" stroke-linecap="round" stroke-linejoin="round" stroke-dasharray="4.9 5.6"/><path d="m31.648 100.453 12.4 37.102a4.672 4.672 0 0 0 5.918 2.945l26.127-8.75a4.678 4.678 0 0 0 2.956-5.916l-12.4-37.102a4.672 4.672 0 0 0-5.918-2.945l-26.127 8.75a4.679 4.679 0 0 0-2.956 5.916Z" fill="#fff" stroke="#DADCE0" stroke-width="1.4" stroke-linecap="round" stroke-linejoin="round"/><path d="m45.952 105.212 4.75 1.054-5.73-17.145-7.911 2.649 5.73 17.145 3.16-3.703Z" fill="#3982F8" stroke="#3982F8" stroke-width="1.4" stroke-linecap="round" stroke-linejoin="round"/><path d="m51.783 114.337 14.072-4.712m-11.97 11.003 14.072-4.712m-11.97 11 14.072-4.712" stroke="#DADCE0" stroke-width="1.4" stroke-linecap="round" stroke-linejoin="round"/><path d="M46.309 117.95a1.714 1.714 0 1 0-1.634-3.011 1.715 1.715 0 0 0-.691 2.324 1.715 1.715 0 0 0 2.325.687Zm2.102 6.289a1.715 1.715 0 0 0 .69-2.324 1.715 1.715 0 0 0-3.015 1.637 1.714 1.714 0 0 0 2.325.687Zm2.103 6.29a1.714 1.714 0 0 0 .69-2.324 1.714 1.714 0 0 0-3.015 1.637 1.714 1.714 0 0 0 2.325.687Z" fill="#3982F8"/><path d="M671.546 114.779a7.242 7.242 0 0 1 9.319-4.251l38.424 14.351a7.244 7.244 0 0 1 4.251 9.32l-.621 1.661a7.243 7.243 0 0 1-9.319 4.251l-38.424-14.351a7.244 7.244 0 0 1-4.251-9.32l.621-1.661Z" fill="#fff" stroke="#DADCE0" stroke-width="1.4"/><circle cx="688.042" cy="121.887" r="2.943" transform="rotate(20.48 688.042 121.887)" fill="#34A853"/><circle cx="678.851" cy="118.454" r="2.943" transform="rotate(20.48 678.851 118.454)" fill="#34A853"/><circle cx="706.423" cy="128.752" r="2.943" transform="rotate(20.48 706.423 128.752)" fill="#34A853"/><circle cx="715.613" cy="132.185" r="2.943" transform="rotate(20.48 715.613 132.185)" fill="#34A853"/><circle cx="697.232" cy="125.32" r="2.943" transform="rotate(20.48 697.232 125.32)" fill="#34A853"/><path fill-rule="evenodd" clip-rule="evenodd" d="M690.604 79.038c3.137.176 5.672 2.443 6.326 5.368l13.994.784-.421 7.481-2.496-.14.071-1.25a1.254 1.254 0 0 0-2.503-.14l-.071 1.25-2.495-.14.21-3.74-6.503-.365a6.88 6.88 0 0 1-13.369-2.633c.213-3.785 3.473-6.687 7.257-6.475Zm2.098 8.753a3.121 3.121 0 0 1-2.659 1.227 3.13 3.13 0 0 1-2.949-3.295 3.13 3.13 0 0 1 3.3-2.944 3.117 3.117 0 0 1 2.429 1.396h-.004l-.001.008a3.103 3.103 0 0 1-.116 3.608Z" fill="#DADCE0"/><path d="m237.748 80.487-6.196 2.99a1.806 1.806 0 0 0-.841 2.41l2.99 6.196a1.805 1.805 0 0 0 2.41.84l6.196-2.989a1.805 1.805 0 0 0 .841-2.41l-2.99-6.196a1.805 1.805 0 0 0-2.41-.841Z" fill="#E989F7"/><path d="m124.612 82.962-.138.08c-4.68 2.74-6.253 8.756-3.512 13.437 2.74 4.68 8.756 6.252 13.436 3.512l.138-.08c4.68-2.741 6.253-8.757 3.512-13.437-2.74-4.68-8.756-6.253-13.436-3.512Z" fill="#5185EC"/><path d="M204.298 126.531c.789 2.001.917 4.196.364 6.273a10.196 10.196 0 0 1-3.445 5.294l-19.229 15.577a10.506 10.506 0 0 1-7.602 2.277 10.435 10.435 0 0 1-7.014-3.672 10.31 10.31 0 0 1-1.675-2.79 10.059 10.059 0 0 1-.358-6.269 10.206 10.206 0 0 1 3.439-5.291l19.258-15.585a10.466 10.466 0 0 1 4.379-2.103c1.609-.35 3.28-.32 4.874.089a10.464 10.464 0 0 1 4.297 2.262 10.22 10.22 0 0 1 2.776 3.938h-.064Z" stroke="#D85140" stroke-width="3" stroke-miterlimit="10"/><path d="m667.687 29.01 13.94 1a.582.582 0 0 1 .526.62.577.577 0 0 1-.096.28l-8 11.21a.573.573 0 0 1-.809.155.564.564 0 0 1-.191-.235l-6-12.21a.574.574 0 0 1 .063-.603.58.58 0 0 1 .567-.217Z" fill="#E989F7"/><path d="m375.987 32.537-3.77-3.77a.743.743 0 0 1-.19-.72l1.38-5.11a.75.75 0 0 1 .53-.53l5.15-1.38a.737.737 0 0 1 .72.19l3.77 3.72a.76.76 0 0 1 .2.73l-1.38 5.15a.75.75 0 0 1-.53.53l-5.15 1.38a.763.763 0 0 1-.73-.19Z" fill="#F2BE42"/><path d="M407.043 43.411c8.808 8.963 33.243 24.205 60.52 13.464" stroke="#D95140" stroke-width="3" stroke-miterlimit="10" stroke-linecap="round"/><path d="m206.175 43.53-8.299-6.868c-.667-.572-.954-1.431-.858-2.29l1.812-10.588c.191-.858.763-1.621 1.527-1.908l10.111-3.72c.858-.286 1.717-.19 2.385.382l8.299 6.868c.667.572.954 1.43.858 2.29l-1.812 10.587c-.191.859-.763 1.622-1.527 1.908l-10.111 3.72c-.763.287-1.717.096-2.385-.381Z" fill="#F1F3F4"/><path d="M69 34.774a23.85 23.85 0 0 1 7.36-2.39 29.9 29.9 0 0 1 16.71 2.1l.36.14.52.23.35.15.34.16.34.16.35.17.35.17.54.28.37.2.59.31.41.23.43.24.69.39 1 .58 1.65 1 1.22.7.86.49.6.33.57.3.36.19.52.26.5.25.17.08.33.15.33.15.34.15 1 .44c7.23 2.9 16.7 2.3 24.25-1.67" stroke="#56A55C" stroke-width="3" stroke-miterlimit="10" stroke-linecap="round"/></g><defs><clipPath id="a"><path fill="#fff" d="M0 0h768v176H0z"/></clipPath></defs></svg>
