<svg width="3300" height="2200" viewBox="0 0 3300 2200" fill="none" xmlns="http://www.w3.org/2000/svg">
<g id="camera.lens.cr">
<g id="Notes">
<path id="artboard" d="M3300 0H0V2200H3300V0Z" fill="white"/>
<path id="Vector" d="M263 292H3036" stroke="black" stroke-width="0.5"/>
<text id="Weight/Scale Variations" fill="black" xml:space="preserve" style="white-space: pre" font-family="Inter" font-size="13" font-weight="bold" letter-spacing="0em"><tspan x="263" y="321.727">Weight/Scale Variations</tspan></text>
<text id="Ultralight" fill="black" xml:space="preserve" style="white-space: pre" font-family="Inter" font-size="13" letter-spacing="0em"><tspan x="531.211" y="321.727">Ultralight</tspan></text>
<text id="Thin" fill="black" xml:space="preserve" style="white-space: pre" font-family="Inter" font-size="13" letter-spacing="0em"><tspan x="842.922" y="321.727">Thin</tspan></text>
<text id="Light" fill="black" xml:space="preserve" style="white-space: pre" font-family="Inter" font-size="13" letter-spacing="0em"><tspan x="1137.63" y="321.727">Light</tspan></text>
<text id="Regular" fill="black" xml:space="preserve" style="white-space: pre" font-family="Inter" font-size="13" letter-spacing="0em"><tspan x="1426.34" y="321.727">Regular</tspan></text>
<text id="Medium" fill="black" xml:space="preserve" style="white-space: pre" font-family="Inter" font-size="13" letter-spacing="0em"><tspan x="1721.56" y="321.727">Medium</tspan></text>
<text id="Semibold" fill="black" xml:space="preserve" style="white-space: pre" font-family="Inter" font-size="13" letter-spacing="0em"><tspan x="2014.27" y="321.727">Semibold</tspan></text>
<text id="Bold" fill="black" xml:space="preserve" style="white-space: pre" font-family="Inter" font-size="13" letter-spacing="0em"><tspan x="2325.98" y="321.727">Bold</tspan></text>
<text id="Heavy" fill="black" xml:space="preserve" style="white-space: pre" font-family="Inter" font-size="13" letter-spacing="0em"><tspan x="2617.19" y="321.727">Heavy</tspan></text>
<text id="Black" fill="black" xml:space="preserve" style="white-space: pre" font-family="Inter" font-size="13" letter-spacing="0em"><tspan x="2916.4" y="321.727">Black</tspan></text>
<path id="Vector_2" d="M263 1903H3036" stroke="black" stroke-width="0.5"/>
<g id="Group">
<path id="Vector_3" d="M272.248 1933.83C273.329 1933.83 274.344 1933.63 275.295 1933.22C276.245 1932.81 277.084 1932.24 277.81 1931.51C278.535 1930.78 279.105 1929.94 279.519 1928.99C279.932 1928.04 280.139 1927.03 280.139 1925.95C280.139 1924.88 279.932 1923.86 279.519 1922.91C279.105 1921.96 278.534 1921.12 277.805 1920.39C277.075 1919.67 276.236 1919.1 275.285 1918.69C274.335 1918.28 273.319 1918.07 272.238 1918.07C271.164 1918.07 270.152 1918.28 269.201 1918.69C268.251 1919.1 267.414 1919.67 266.691 1920.39C265.969 1921.12 265.401 1921.96 264.987 1922.91C264.574 1923.86 264.367 1924.88 264.367 1925.95C264.367 1927.03 264.574 1928.04 264.987 1928.99C265.401 1929.94 265.97 1930.78 266.696 1931.51C267.422 1932.24 268.26 1932.81 269.211 1933.22C270.161 1933.63 271.174 1933.83 272.248 1933.83ZM272.248 1932.35C271.363 1932.35 270.534 1932.18 269.763 1931.85C268.991 1931.53 268.314 1931.07 267.731 1930.48C267.149 1929.9 266.693 1929.22 266.364 1928.44C266.035 1927.67 265.871 1926.84 265.871 1925.95C265.871 1925.07 266.034 1924.24 266.359 1923.46C266.685 1922.69 267.139 1922.01 267.722 1921.42C268.304 1920.83 268.981 1920.38 269.753 1920.05C270.524 1919.72 271.353 1919.55 272.238 1919.55C273.13 1919.55 273.962 1919.72 274.733 1920.05C275.505 1920.38 276.184 1920.83 276.769 1921.42C277.355 1922.01 277.814 1922.69 278.146 1923.46C278.478 1924.24 278.644 1925.07 278.644 1925.95C278.644 1926.84 278.48 1927.67 278.151 1928.44C277.823 1929.22 277.367 1929.9 276.784 1930.48C276.202 1931.07 275.523 1931.53 274.748 1931.85C273.973 1932.18 273.14 1932.35 272.248 1932.35ZM268.654 1925.95C268.654 1926.17 268.723 1926.34 268.859 1926.47C268.996 1926.61 269.178 1926.67 269.406 1926.67H271.516V1928.79C271.516 1929.01 271.581 1929.19 271.711 1929.33C271.841 1929.47 272.017 1929.54 272.238 1929.54C272.453 1929.54 272.631 1929.47 272.771 1929.33C272.91 1929.19 272.98 1929.01 272.98 1928.79V1926.67H275.09C275.311 1926.67 275.49 1926.61 275.627 1926.47C275.764 1926.34 275.832 1926.17 275.832 1925.95C275.832 1925.73 275.764 1925.55 275.627 1925.41C275.49 1925.28 275.311 1925.21 275.09 1925.21H272.98V1923.1C272.98 1922.88 272.91 1922.7 272.771 1922.56C272.631 1922.42 272.453 1922.35 272.238 1922.35C272.017 1922.35 271.841 1922.42 271.711 1922.56C271.581 1922.7 271.516 1922.88 271.516 1923.1V1925.21H269.406C269.178 1925.21 268.996 1925.28 268.859 1925.41C268.723 1925.55 268.654 1925.73 268.654 1925.95Z" fill="black"/>
</g>
<g id="Group_2">
<path id="Vector_4" d="M293.576 1935.91C294.937 1935.91 296.218 1935.65 297.419 1935.13C298.62 1934.61 299.68 1933.89 300.598 1932.97C301.516 1932.05 302.235 1930.99 302.756 1929.79C303.277 1928.59 303.537 1927.31 303.537 1925.95C303.537 1924.59 303.277 1923.31 302.756 1922.11C302.235 1920.91 301.516 1919.85 300.598 1918.93C299.68 1918.01 298.618 1917.29 297.414 1916.77C296.21 1916.25 294.927 1915.99 293.566 1915.99C292.206 1915.99 290.925 1916.25 289.724 1916.77C288.522 1917.29 287.465 1918.01 286.55 1918.93C285.635 1919.85 284.917 1920.91 284.396 1922.11C283.876 1923.31 283.615 1924.59 283.615 1925.95C283.615 1927.31 283.876 1928.59 284.396 1929.79C284.917 1930.99 285.637 1932.05 286.555 1932.97C287.473 1933.89 288.532 1934.61 289.733 1935.13C290.935 1935.65 292.215 1935.91 293.576 1935.91ZM293.576 1934.25C292.424 1934.25 291.346 1934.04 290.344 1933.61C289.341 1933.18 288.461 1932.58 287.702 1931.82C286.944 1931.06 286.351 1930.18 285.925 1929.18C285.498 1928.18 285.285 1927.1 285.285 1925.95C285.285 1924.8 285.498 1923.72 285.925 1922.72C286.351 1921.71 286.942 1920.83 287.697 1920.07C288.452 1919.31 289.331 1918.71 290.334 1918.29C291.337 1917.86 292.414 1917.65 293.566 1917.65C294.719 1917.65 295.796 1917.86 296.799 1918.29C297.801 1918.71 298.684 1919.31 299.445 1920.07C300.207 1920.83 300.803 1921.71 301.232 1922.72C301.662 1923.72 301.877 1924.8 301.877 1925.95C301.877 1927.1 301.664 1928.18 301.237 1929.18C300.811 1930.18 300.218 1931.06 299.46 1931.82C298.702 1932.58 297.819 1933.18 296.813 1933.61C295.808 1934.04 294.729 1934.25 293.576 1934.25ZM289.045 1925.95C289.045 1926.18 289.123 1926.38 289.279 1926.53C289.436 1926.68 289.637 1926.75 289.885 1926.75H292.756V1929.63C292.756 1929.88 292.831 1930.08 292.98 1930.23C293.13 1930.38 293.322 1930.46 293.557 1930.46C293.804 1930.46 294.004 1930.38 294.157 1930.23C294.31 1930.08 294.387 1929.88 294.387 1929.63V1926.75H297.268C297.515 1926.75 297.715 1926.68 297.868 1926.53C298.021 1926.38 298.098 1926.18 298.098 1925.95C298.098 1925.7 298.021 1925.5 297.868 1925.35C297.715 1925.2 297.515 1925.12 297.268 1925.12H294.387V1922.25C294.387 1921.99 294.31 1921.79 294.157 1921.64C294.004 1921.48 293.804 1921.41 293.557 1921.41C293.322 1921.41 293.13 1921.49 292.98 1921.64C292.831 1921.8 292.756 1922 292.756 1922.25V1925.12H289.885C289.631 1925.12 289.427 1925.2 289.274 1925.35C289.121 1925.5 289.045 1925.7 289.045 1925.95Z" fill="black"/>
</g>
<g id="Group_3">
<path id="Vector_5" d="M320.617 1938.67C322.01 1938.67 323.34 1938.45 324.606 1938.02C325.872 1937.58 327.036 1936.98 328.097 1936.2C329.158 1935.41 330.081 1934.49 330.866 1933.43C331.65 1932.37 332.259 1931.21 332.692 1929.94C333.125 1928.67 333.341 1927.34 333.341 1925.95C333.341 1924.56 333.125 1923.23 332.692 1921.96C332.259 1920.7 331.65 1919.53 330.866 1918.47C330.081 1917.41 329.158 1916.49 328.097 1915.7C327.036 1914.92 325.871 1914.31 324.601 1913.88C323.332 1913.44 322 1913.23 320.607 1913.23C319.214 1913.23 317.884 1913.44 316.618 1913.88C315.351 1914.31 314.189 1914.92 313.131 1915.7C312.073 1916.49 311.152 1917.41 310.368 1918.47C309.583 1919.53 308.976 1920.7 308.546 1921.96C308.117 1923.23 307.902 1924.56 307.902 1925.95C307.902 1927.34 308.118 1928.67 308.551 1929.94C308.984 1931.21 309.591 1932.37 310.373 1933.43C311.154 1934.49 312.075 1935.41 313.136 1936.2C314.197 1936.98 315.361 1937.58 316.627 1938.02C317.894 1938.45 319.223 1938.67 320.617 1938.67ZM320.617 1936.85C319.412 1936.85 318.265 1936.67 317.174 1936.3C316.084 1935.93 315.086 1935.41 314.181 1934.75C313.276 1934.09 312.49 1933.3 311.823 1932.39C311.155 1931.48 310.639 1930.48 310.275 1929.39C309.91 1928.3 309.728 1927.16 309.728 1925.95C309.728 1924.74 309.91 1923.59 310.275 1922.5C310.639 1921.41 311.154 1920.41 311.818 1919.5C312.482 1918.59 313.266 1917.81 314.171 1917.14C315.076 1916.48 316.074 1915.96 317.165 1915.6C318.255 1915.24 319.402 1915.05 320.607 1915.05C321.818 1915.05 322.969 1915.24 324.059 1915.6C325.15 1915.96 326.149 1916.48 327.057 1917.14C327.965 1917.81 328.751 1918.59 329.415 1919.5C330.08 1920.41 330.596 1921.41 330.963 1922.5C331.331 1923.59 331.515 1924.74 331.515 1925.95C331.522 1927.16 331.343 1928.3 330.978 1929.39C330.613 1930.48 330.098 1931.48 329.43 1932.39C328.763 1933.3 327.975 1934.09 327.067 1934.75C326.159 1935.41 325.159 1935.93 324.069 1936.3C322.978 1936.67 321.828 1936.85 320.617 1936.85ZM314.845 1925.95C314.845 1926.21 314.931 1926.42 315.104 1926.58C315.277 1926.75 315.496 1926.83 315.763 1926.83H319.708V1930.79C319.708 1931.05 319.791 1931.27 319.957 1931.44C320.123 1931.62 320.337 1931.7 320.597 1931.7C320.864 1931.7 321.084 1931.62 321.256 1931.45C321.429 1931.28 321.515 1931.06 321.515 1930.79V1926.83H325.47C325.737 1926.83 325.955 1926.75 326.124 1926.58C326.294 1926.42 326.378 1926.21 326.378 1925.95C326.378 1925.68 326.294 1925.46 326.124 1925.29C325.955 1925.12 325.737 1925.03 325.47 1925.03H321.515V1921.09C321.515 1920.81 321.429 1920.59 321.256 1920.42C321.084 1920.25 320.864 1920.16 320.597 1920.16C320.337 1920.16 320.123 1920.25 319.957 1920.42C319.791 1920.59 319.708 1920.81 319.708 1921.09V1925.03H315.763C315.49 1925.03 315.268 1925.12 315.099 1925.29C314.93 1925.46 314.845 1925.68 314.845 1925.95Z" fill="black"/>
</g>
<text id="Design Variations" fill="black" xml:space="preserve" style="white-space: pre" font-family="Inter" font-size="13" font-weight="bold" letter-spacing="0em"><tspan x="263" y="1952.73">Design Variations</tspan></text>
<text id="Symbols are supported in up to nine weights and three scales." fill="black" xml:space="preserve" style="white-space: pre" font-family="Inter" font-size="13" letter-spacing="0em"><tspan x="263" y="1970.73">Symbols are supported in up to nine weights and three scales.</tspan></text>
<text id="For optimal layout with text and other symbols, vertically align" fill="black" xml:space="preserve" style="white-space: pre" font-family="Inter" font-size="13" letter-spacing="0em"><tspan x="263" y="1988.73">For optimal layout with text and other symbols, vertically align</tspan></text>
<text id="symbols with the adjacent text." fill="black" xml:space="preserve" style="white-space: pre" font-family="Inter" font-size="13" letter-spacing="0em"><tspan x="263" y="2006.73">symbols with the adjacent text.</tspan></text>
<path id="Vector_6" d="M776 1919V1933" stroke="#00AEEF" stroke-width="0.5"/>
<g id="Group_4">
<path id="Vector_7" d="M779.311 1933.16C779.571 1933.16 779.773 1933.1 779.916 1932.99C780.059 1932.88 780.176 1932.69 780.268 1932.42L781.527 1928.97H787.289L788.549 1932.42C788.64 1932.69 788.757 1932.88 788.9 1932.99C789.044 1933.1 789.242 1933.16 789.496 1933.16C789.757 1933.16 789.963 1933.09 790.116 1932.94C790.269 1932.8 790.346 1932.6 790.346 1932.36C790.346 1932.21 790.31 1932.03 790.238 1931.83L785.658 1919.63C785.541 1919.33 785.382 1919.11 785.18 1918.96C784.978 1918.81 784.721 1918.73 784.408 1918.73C783.803 1918.73 783.393 1919.03 783.178 1919.62L778.598 1931.84C778.526 1932.04 778.49 1932.22 778.49 1932.37C778.49 1932.61 778.563 1932.81 778.71 1932.95C778.856 1933.09 779.057 1933.16 779.311 1933.16ZM782.006 1927.48L784.379 1920.91H784.428L786.801 1927.48H782.006Z" fill="black"/>
</g>
<path id="Vector_8" d="M793.197 1919V1933" stroke="#00AEEF" stroke-width="0.5"/>
<text id="Margins" fill="black" xml:space="preserve" style="white-space: pre" font-family="Inter" font-size="13" font-weight="bold" letter-spacing="0em"><tspan x="776" y="1952.73">Margins</tspan></text>
<text id="Leading and trailing margins on the left and right side of each symbol" fill="black" xml:space="preserve" style="white-space: pre" font-family="Inter" font-size="13" letter-spacing="0em"><tspan x="776" y="1970.73">Leading and trailing margins on the left and right side of each symbol</tspan></text>
<text id="can be adjusted by modifying the x-location of the margin guidelines." fill="black" xml:space="preserve" style="white-space: pre" font-family="Inter" font-size="13" letter-spacing="0em"><tspan x="776" y="1988.73">can be adjusted by modifying the x-location of the margin guidelines.</tspan></text>
<text id="Modifications are automatically applied proportionally to all" fill="black" xml:space="preserve" style="white-space: pre" font-family="Inter" font-size="13" letter-spacing="0em"><tspan x="776" y="2006.73">Modifications are automatically applied proportionally to all</tspan></text>
<text id="scales and weights." fill="black" xml:space="preserve" style="white-space: pre" font-family="Inter" font-size="13" letter-spacing="0em"><tspan x="776" y="2024.73">scales and weights.</tspan></text>
<g id="Group_5">
<path id="Vector_9" d="M1291.84 1934.86L1293.54 1936.57C1293.97 1937.01 1294.42 1937.21 1294.9 1937.18C1295.38 1937.15 1295.85 1936.87 1296.31 1936.36L1307.01 1924.57L1306.04 1923.59L1295.43 1935.27C1295.25 1935.48 1295.07 1935.59 1294.89 1935.62C1294.71 1935.64 1294.51 1935.54 1294.27 1935.3L1293.1 1934.14C1292.87 1933.91 1292.76 1933.7 1292.79 1933.52C1292.82 1933.34 1292.94 1933.16 1293.14 1932.98L1304.62 1922.18L1303.64 1921.21L1292.05 1932.1C1291.55 1932.56 1291.29 1933.02 1291.25 1933.5C1291.22 1933.97 1291.41 1934.43 1291.84 1934.86ZM1298.26 1916.67C1298.05 1916.87 1297.93 1917.1 1297.91 1917.36C1297.88 1917.62 1297.93 1917.85 1298.04 1918.05C1298.16 1918.23 1298.33 1918.37 1298.56 1918.46C1298.78 1918.55 1299.06 1918.55 1299.38 1918.48C1300.11 1918.31 1300.85 1918.24 1301.6 1918.27C1302.35 1918.3 1303.08 1918.54 1303.79 1919.01L1303.21 1920.47C1303.04 1920.89 1302.99 1921.25 1303.07 1921.56C1303.14 1921.87 1303.31 1922.16 1303.58 1922.43L1305.87 1924.75C1306.12 1924.99 1306.35 1925.14 1306.58 1925.18C1306.81 1925.21 1307.06 1925.21 1307.34 1925.16L1308.4 1924.96L1309.07 1925.63L1309.03 1926.19C1309.01 1926.44 1309.04 1926.67 1309.12 1926.88C1309.2 1927.08 1309.36 1927.31 1309.61 1927.55L1310.37 1928.29C1310.61 1928.53 1310.87 1928.66 1311.15 1928.67C1311.44 1928.68 1311.7 1928.56 1311.93 1928.33L1314.84 1925.41C1315.07 1925.18 1315.19 1924.92 1315.18 1924.64C1315.18 1924.37 1315.05 1924.11 1314.81 1923.87L1314.04 1923.11C1313.8 1922.86 1313.58 1922.7 1313.38 1922.61C1313.17 1922.52 1312.95 1922.49 1312.71 1922.51L1312.13 1922.56L1311.49 1921.92L1311.73 1920.8C1311.8 1920.52 1311.79 1920.26 1311.7 1920.01C1311.6 1919.77 1311.41 1919.5 1311.12 1919.21L1308.92 1917.02C1308.09 1916.19 1307.2 1915.57 1306.26 1915.16C1305.32 1914.75 1304.37 1914.53 1303.42 1914.52C1302.47 1914.5 1301.55 1914.67 1300.66 1915.04C1299.78 1915.4 1298.98 1915.95 1298.26 1916.67ZM1299.75 1917.04C1300.36 1916.6 1301.01 1916.28 1301.7 1916.09C1302.39 1915.9 1303.1 1915.84 1303.8 1915.91C1304.51 1915.98 1305.2 1916.17 1305.87 1916.48C1306.54 1916.8 1307.15 1917.23 1307.7 1917.79L1310.13 1920.21C1310.25 1920.32 1310.32 1920.44 1310.35 1920.55C1310.38 1920.66 1310.38 1920.8 1310.34 1920.97L1310.02 1922.45L1311.52 1923.94L1312.51 1923.88C1312.63 1923.87 1312.72 1923.88 1312.79 1923.9C1312.85 1923.92 1312.94 1923.98 1313.03 1924.08L1313.61 1924.66L1311.17 1927.1L1310.59 1926.52C1310.49 1926.43 1310.43 1926.34 1310.41 1926.28C1310.38 1926.21 1310.37 1926.12 1310.38 1925.99L1310.45 1925.01L1308.95 1923.53L1307.43 1923.78C1307.26 1923.81 1307.14 1923.82 1307.04 1923.79C1306.95 1923.77 1306.84 1923.7 1306.71 1923.58L1304.71 1921.58C1304.58 1921.46 1304.51 1921.35 1304.49 1921.25C1304.48 1921.14 1304.51 1920.99 1304.59 1920.81L1305.46 1918.72C1304.68 1917.99 1303.8 1917.49 1302.83 1917.21C1301.85 1916.93 1300.86 1916.94 1299.84 1917.24C1299.76 1917.26 1299.71 1917.24 1299.69 1917.19C1299.67 1917.14 1299.69 1917.09 1299.75 1917.04Z" fill="black"/>
</g>
<text id="Exporting" fill="black" xml:space="preserve" style="white-space: pre" font-family="Inter" font-size="13" font-weight="bold" letter-spacing="0em"><tspan x="1289" y="1952.73">Exporting</tspan></text>
<text id="Symbols should be outlined when exporting to ensure the" fill="black" xml:space="preserve" style="white-space: pre" font-family="Inter" font-size="13" letter-spacing="0em"><tspan x="1289" y="1970.73">Symbols should be outlined when exporting to ensure the</tspan></text>
<text id="design is preserved when submitting to Xcode." fill="black" xml:space="preserve" style="white-space: pre" font-family="Inter" font-size="13" letter-spacing="0em"><tspan x="1289" y="1988.73">design is preserved when submitting to Xcode.</tspan></text>
<text id="template-version" fill="black" xml:space="preserve" style="white-space: pre" font-family="Inter" font-size="13" letter-spacing="0em"><tspan x="2946" y="1932.73">Template v.3.0</tspan></text>
<text id="Requires Xcode 13 or greater" fill="black" xml:space="preserve" style="white-space: pre" font-family="Inter" font-size="13" letter-spacing="0em"><tspan x="2857" y="1950.73">Requires Xcode 13 or greater</tspan></text>
<text id="descriptive-name" fill="black" xml:space="preserve" style="white-space: pre" font-family="Inter" font-size="13" letter-spacing="0em"><tspan x="2889" y="1968.73">Generated from camera</tspan></text>
<text id="Typeset at 100 points" fill="black" xml:space="preserve" style="white-space: pre" font-family="Inter" font-size="13" letter-spacing="0em"><tspan x="2903" y="1986.73">Typeset at 100 points</tspan></text>
<text id="Small" fill="black" xml:space="preserve" style="white-space: pre" font-family="Inter" font-size="13" letter-spacing="0em"><tspan x="263" y="725.727">Small</tspan></text>
<text id="Medium_2" fill="black" xml:space="preserve" style="white-space: pre" font-family="Inter" font-size="13" letter-spacing="0em"><tspan x="263" y="1155.73">Medium</tspan></text>
<text id="Large" fill="black" xml:space="preserve" style="white-space: pre" font-family="Inter" font-size="13" letter-spacing="0em"><tspan x="263" y="1585.73">Large</tspan></text>
</g>
<g id="Guides">
<g id="H-reference">
<path id="Vector_10" d="M339.977 695.998H342.662L368.346 628.859H369.029V625.539H367.125L339.977 695.998ZM350.67 671.535H385.973L385.24 669.289H351.451L350.67 671.535ZM394.127 695.998H396.764L369.615 625.539H368.443V628.859L394.127 695.998Z" fill="#27AAE1"/>
</g>
<path id="Baseline-S" d="M263 696H3036" stroke="#27AAE1" stroke-width="0.5"/>
<path id="Capline-S" d="M263 625.539H3036" stroke="#27AAE1" stroke-width="0.5"/>
<g id="H-reference_2">
<path id="Vector_11" d="M339.977 1126H342.662L368.346 1058.86H369.029V1055.54H367.125L339.977 1126ZM350.67 1101.54H385.973L385.24 1099.29H351.451L350.67 1101.54ZM394.127 1126H396.764L369.615 1055.54H368.443V1058.86L394.127 1126Z" fill="#27AAE1"/>
</g>
<path id="Baseline-M" d="M263 1126H3036" stroke="#27AAE1" stroke-width="0.5"/>
<path id="Capline-M" d="M263 1055.54H3036" stroke="#27AAE1" stroke-width="0.5"/>
<g id="H-reference_3">
<path id="Vector_12" d="M339.977 1556H342.662L368.346 1488.86H369.029V1485.54H367.125L339.977 1556ZM350.67 1531.54H385.973L385.24 1529.29H351.451L350.67 1531.54ZM394.127 1556H396.764L369.615 1485.54H368.443V1488.86L394.127 1556Z" fill="#27AAE1"/>
</g>
<path id="Baseline-L" d="M263 1556H3036" stroke="#27AAE1" stroke-width="0.5"/>
<path id="Capline-L" d="M263 1485.54H3036" stroke="#27AAE1" stroke-width="0.5"/>
<path id="left-margin-Regular-M" d="M1377.43 1030.79V1150.12" stroke="#00AEEF" stroke-width="0.5"/>
<path id="right-margin-Regular-M" d="M1522.26 1030.79V1150.12" stroke="#00AEEF" stroke-width="0.5"/>
</g>
<g id="Symbols">
<g id="Black-L">
<path id="Union" fill-rule="evenodd" clip-rule="evenodd" d="M2916.98 1452.3C2913.03 1452.3 2909.31 1454.09 2906.84 1457.17L2900.59 1464.97C2900.29 1465.34 2900.1 1465.74 2899.99 1466.15C2890.28 1466.38 2884.12 1467.17 2879.05 1469.75C2872.65 1473.01 2867.45 1478.21 2864.19 1484.61C2860.48 1491.88 2860.48 1501.4 2860.48 1520.44V1527.9C2860.48 1546.94 2860.48 1556.46 2864.19 1563.73C2867.45 1570.13 2872.65 1575.33 2879.05 1578.59C2886.32 1582.3 2895.84 1582.3 2914.88 1582.3H2951.91C2970.95 1582.3 2980.47 1582.3 2987.74 1578.59C2994.14 1575.33 2999.34 1570.13 3002.6 1563.73C3006.31 1556.46 3006.31 1546.94 3006.31 1527.9V1520.44C3006.31 1501.4 3006.31 1491.88 3002.6 1484.61C2999.34 1478.21 2994.14 1473.01 2987.74 1469.75C2982.73 1467.2 2976.66 1466.4 2967.15 1466.16L2959.95 1457.17C2957.49 1454.09 2953.75 1452.3 2949.81 1452.3H2916.98ZM2914.88 1486.04H2951.91C2961.76 1486.04 2967.94 1486.06 2972.61 1486.44C2977.04 1486.8 2978.31 1487.39 2978.66 1487.57C2981.3 1488.91 2983.44 1491.05 2984.78 1493.69C2984.96 1494.03 2985.55 1495.31 2985.91 1499.74C2986.29 1504.41 2986.31 1510.59 2986.31 1520.44V1527.9C2986.31 1537.75 2986.29 1543.93 2985.91 1548.6C2985.55 1553.03 2984.96 1554.31 2984.78 1554.65C2983.44 1557.29 2981.3 1559.43 2978.66 1560.77C2978.31 1560.95 2977.04 1561.54 2972.61 1561.9C2967.94 1562.28 2961.76 1562.3 2951.91 1562.3H2914.88C2905.03 1562.3 2898.85 1562.28 2894.18 1561.9C2889.75 1561.54 2888.48 1560.95 2888.13 1560.77C2885.49 1559.43 2883.35 1557.29 2882.01 1554.65C2881.83 1554.31 2881.24 1553.03 2880.88 1548.6C2880.5 1543.93 2880.48 1537.75 2880.48 1527.9V1520.44C2880.48 1510.59 2880.5 1504.41 2880.88 1499.74C2881.24 1495.31 2881.83 1494.03 2882.01 1493.69C2883.35 1491.05 2885.49 1488.91 2888.13 1487.57C2888.48 1487.39 2889.75 1486.8 2894.18 1486.44C2898.85 1486.06 2905.03 1486.04 2914.88 1486.04Z" fill="black"/>
<path id="Rectangle 11906" d="M2907.57 1524.17C2907.57 1509.91 2919.13 1498.35 2933.4 1498.35V1498.35C2947.66 1498.35 2959.22 1509.91 2959.22 1524.17V1524.17C2959.22 1538.43 2947.66 1549.99 2933.4 1549.99V1549.99C2919.13 1549.99 2907.57 1538.43 2907.57 1524.17V1524.17Z" fill="black"/>
</g>
<g id="Heavy-L">
<path id="Union_2" fill-rule="evenodd" clip-rule="evenodd" d="M2620.27 1452.5C2616.33 1452.5 2612.6 1454.29 2610.13 1457.37L2603.88 1465.17C2603.59 1465.53 2603.4 1465.92 2603.29 1466.32C2593.18 1466.51 2586.92 1467.23 2581.8 1469.84C2575.59 1473 2570.54 1478.05 2567.37 1484.26C2563.78 1491.32 2563.78 1500.56 2563.78 1519.04V1529.7C2563.78 1548.18 2563.78 1557.42 2567.37 1564.48C2570.54 1570.69 2575.59 1575.74 2581.8 1578.9C2588.86 1582.5 2598.1 1582.5 2616.58 1582.5H2656.8C2675.28 1582.5 2684.52 1582.5 2691.58 1578.9C2697.79 1575.74 2702.84 1570.69 2706 1564.48C2709.6 1557.42 2709.6 1548.18 2709.6 1529.7V1519.04C2709.6 1500.56 2709.6 1491.32 2706 1484.26C2702.84 1478.05 2697.79 1473 2691.58 1469.84C2686.52 1467.26 2680.33 1466.53 2670.42 1466.32L2663.25 1457.37C2660.78 1454.29 2657.05 1452.5 2653.1 1452.5H2620.27ZM2616.58 1483.99H2656.8C2666.33 1483.99 2672.42 1484.01 2677.03 1484.38C2681.43 1484.74 2682.91 1485.34 2683.52 1485.65C2686.39 1487.12 2688.72 1489.45 2690.19 1492.32C2690.5 1492.93 2691.1 1494.41 2691.46 1498.81C2691.84 1503.43 2691.85 1509.51 2691.85 1519.04V1529.7C2691.85 1539.23 2691.84 1545.31 2691.46 1549.93C2691.1 1554.33 2690.5 1555.81 2690.19 1556.42C2688.72 1559.29 2686.39 1561.62 2683.52 1563.08C2682.91 1563.4 2681.43 1564 2677.03 1564.36C2672.42 1564.73 2666.33 1564.75 2656.8 1564.75H2616.58C2607.04 1564.75 2600.96 1564.73 2596.35 1564.36C2591.94 1564 2590.46 1563.4 2589.85 1563.08C2586.99 1561.62 2584.65 1559.29 2583.19 1556.42C2582.88 1555.81 2582.28 1554.33 2581.92 1549.93C2581.54 1545.31 2581.53 1539.23 2581.53 1529.7V1519.04C2581.53 1509.51 2581.54 1503.43 2581.92 1498.81C2582.28 1494.41 2582.88 1492.93 2583.19 1492.32C2584.65 1489.45 2586.99 1487.12 2589.85 1485.65C2590.46 1485.34 2591.94 1484.74 2596.35 1484.38C2600.96 1484.01 2607.04 1483.99 2616.58 1483.99Z" fill="black"/>
<path id="Rectangle 11906_2" d="M2610.87 1524.37C2610.87 1510.11 2622.43 1498.55 2636.69 1498.55V1498.55C2650.95 1498.55 2662.51 1510.11 2662.51 1524.37V1524.37C2662.51 1538.63 2650.95 1550.19 2636.69 1550.19V1550.19C2622.43 1550.19 2610.87 1538.63 2610.87 1524.37V1524.37Z" fill="black"/>
</g>
<g id="Bold-L">
<path id="Union_3" fill-rule="evenodd" clip-rule="evenodd" d="M2323.55 1453.87C2319.61 1453.87 2315.88 1455.66 2313.42 1458.73L2307.17 1466.54C2306.88 1466.89 2306.69 1467.27 2306.58 1467.66C2296.07 1467.82 2289.7 1468.47 2284.54 1471.1C2278.51 1474.17 2273.62 1479.06 2270.55 1485.08C2267.06 1491.93 2267.06 1500.89 2267.06 1518.81V1532.66C2267.06 1550.59 2267.06 1559.55 2270.55 1566.39C2273.62 1572.41 2278.51 1577.31 2284.54 1580.38C2291.38 1583.86 2300.34 1583.86 2318.26 1583.86H2361.68C2379.61 1583.86 2388.57 1583.86 2395.41 1580.38C2401.43 1577.31 2406.33 1572.41 2409.4 1566.39C2412.88 1559.55 2412.88 1550.59 2412.88 1532.66V1518.81C2412.88 1500.89 2412.88 1491.93 2409.4 1485.08C2406.33 1479.06 2401.43 1474.17 2395.41 1471.1C2390.3 1468.49 2384.01 1467.83 2373.69 1467.67L2366.53 1458.74C2364.06 1455.66 2360.33 1453.87 2356.39 1453.87H2323.55ZM2318.26 1482.11H2361.68C2370.88 1482.11 2376.91 1482.12 2381.52 1482.5C2385.96 1482.86 2387.79 1483.49 2388.83 1484.02C2392.12 1485.69 2394.8 1488.37 2396.48 1491.66C2397.01 1492.7 2397.63 1494.53 2398 1498.97C2398.37 1503.58 2398.38 1509.61 2398.38 1518.81V1532.66C2398.38 1541.86 2398.37 1547.89 2398 1552.5C2397.63 1556.94 2397.01 1558.77 2396.48 1559.81C2394.8 1563.1 2392.12 1565.78 2388.83 1567.46C2387.79 1567.99 2385.96 1568.61 2381.52 1568.98C2376.91 1569.35 2370.88 1569.36 2361.68 1569.36H2318.26C2309.06 1569.36 2303.04 1569.35 2298.43 1568.98C2293.99 1568.61 2292.16 1567.99 2291.12 1567.46C2287.83 1565.78 2285.15 1563.1 2283.47 1559.81C2282.94 1558.77 2282.31 1556.94 2281.95 1552.5C2281.57 1547.89 2281.56 1541.86 2281.56 1532.66V1518.81C2281.56 1509.61 2281.57 1503.58 2281.95 1498.97C2282.31 1494.53 2282.94 1492.7 2283.47 1491.66C2285.15 1488.37 2287.83 1485.69 2291.12 1484.02C2292.16 1483.49 2293.99 1482.86 2298.43 1482.5C2303.04 1482.12 2309.06 1482.11 2318.26 1482.11Z" fill="black"/>
<path id="Rectangle 11906_3" d="M2314.15 1525.73C2314.15 1511.47 2325.71 1499.91 2339.97 1499.91V1499.91C2354.23 1499.91 2365.79 1511.47 2365.79 1525.73V1525.73C2365.79 1539.99 2354.23 1551.55 2339.97 1551.55V1551.55C2325.71 1551.55 2314.15 1539.99 2314.15 1525.73V1525.73Z" fill="black"/>
</g>
<g id="Semibold-L">
<path id="Union_4" fill-rule="evenodd" clip-rule="evenodd" d="M2026.85 1453.87C2022.91 1453.87 2019.18 1455.66 2016.71 1458.74L2010.46 1466.54C2010.18 1466.89 2009.99 1467.26 2009.88 1467.65C1998.95 1467.77 1992.49 1468.34 1987.28 1470.99C1981.45 1473.96 1976.71 1478.71 1973.74 1484.54C1970.36 1491.17 1970.36 1499.85 1970.36 1517.21V1534.27C1970.36 1551.63 1970.36 1560.31 1973.74 1566.94C1976.71 1572.77 1981.45 1577.52 1987.28 1580.49C1993.91 1583.87 2002.6 1583.87 2019.96 1583.87H2066.58C2083.94 1583.87 2092.62 1583.87 2099.25 1580.49C2105.09 1577.52 2109.83 1572.77 2112.8 1566.94C2116.18 1560.31 2116.18 1551.63 2116.18 1534.27V1517.21C2116.18 1499.85 2116.18 1491.17 2112.8 1484.54C2109.83 1478.71 2105.09 1473.96 2099.25 1470.99C2094.1 1468.37 2087.71 1467.78 2076.96 1467.65L2069.83 1458.74C2067.36 1455.66 2063.63 1453.87 2059.68 1453.87H2026.85ZM2019.96 1479.86H2066.58C2075.46 1479.86 2081.39 1479.87 2085.94 1480.24C2090.35 1480.61 2092.39 1481.24 2093.69 1481.91C2097.22 1483.7 2100.09 1486.57 2101.88 1490.1C2102.55 1491.4 2103.19 1493.44 2103.55 1497.85C2103.92 1502.4 2103.93 1508.33 2103.93 1517.21V1534.27C2103.93 1543.15 2103.92 1549.08 2103.55 1553.63C2103.19 1558.04 2102.55 1560.08 2101.88 1561.38C2100.09 1564.91 2097.22 1567.78 2093.69 1569.57C2092.39 1570.24 2090.35 1570.88 2085.94 1571.24C2081.39 1571.61 2075.46 1571.62 2066.58 1571.62H2019.96C2011.07 1571.62 2005.15 1571.61 2000.59 1571.24C1996.18 1570.88 1994.15 1570.24 1992.85 1569.57C1989.32 1567.78 1986.45 1564.91 1984.65 1561.38C1983.99 1560.08 1983.35 1558.04 1982.99 1553.63C1982.62 1549.08 1982.61 1543.15 1982.61 1534.27V1517.21C1982.61 1508.33 1982.62 1502.4 1982.99 1497.85C1983.35 1493.44 1983.99 1491.4 1984.65 1490.1C1986.45 1486.57 1989.32 1483.7 1992.85 1481.91C1994.15 1481.24 1996.18 1480.61 2000.59 1480.24C2005.15 1479.87 2011.07 1479.86 2019.96 1479.86Z" fill="black"/>
<path id="Rectangle 11906_4" d="M2017.45 1525.74C2017.45 1511.48 2029.01 1499.92 2043.27 1499.92V1499.92C2057.53 1499.92 2069.09 1511.48 2069.09 1525.74V1525.74C2069.09 1540 2057.53 1551.56 2043.27 1551.56V1551.56C2029.01 1551.56 2017.45 1540 2017.45 1525.74V1525.74Z" fill="black"/>
</g>
<g id="Medium-L">
<path id="Union_5" fill-rule="evenodd" clip-rule="evenodd" d="M1730.14 1453.84C1726.2 1453.84 1722.47 1455.63 1720 1458.71L1713.75 1466.52C1713.48 1466.86 1713.29 1467.23 1713.17 1467.61C1701.82 1467.7 1695.26 1468.19 1690.03 1470.86C1684.38 1473.73 1679.79 1478.32 1676.92 1483.97C1673.65 1490.38 1673.65 1498.78 1673.65 1515.59V1535.84C1673.65 1552.64 1673.65 1561.04 1676.92 1567.46C1679.79 1573.11 1684.38 1577.69 1690.03 1580.57C1696.45 1583.84 1704.85 1583.84 1721.65 1583.84H1771.47C1788.27 1583.84 1796.67 1583.84 1803.09 1580.57C1808.73 1577.69 1813.32 1573.11 1816.2 1567.46C1819.47 1561.04 1819.47 1552.64 1819.47 1535.84V1515.59C1819.47 1498.78 1819.47 1490.38 1816.2 1483.97C1813.32 1478.32 1808.73 1473.73 1803.09 1470.86C1797.9 1468.21 1791.42 1467.71 1780.24 1467.61L1773.12 1458.72C1770.65 1455.64 1766.92 1453.84 1762.97 1453.84H1730.14ZM1721.65 1478.34H1771.47C1780.05 1478.34 1785.83 1478.34 1790.3 1478.71C1794.64 1479.06 1796.77 1479.7 1798.21 1480.43C1801.83 1482.28 1804.78 1485.22 1806.62 1488.85C1807.35 1490.29 1807.99 1492.42 1808.35 1496.76C1808.71 1501.22 1808.72 1507.01 1808.72 1515.59V1535.84C1808.72 1544.42 1808.71 1550.21 1808.35 1554.67C1807.99 1559.01 1807.35 1561.14 1806.62 1562.58C1804.78 1566.2 1801.83 1569.15 1798.21 1570.99C1796.77 1571.73 1794.64 1572.36 1790.3 1572.72C1785.83 1573.08 1780.05 1573.09 1771.47 1573.09H1721.65C1713.07 1573.09 1707.28 1573.08 1702.82 1572.72C1698.48 1572.36 1696.35 1571.73 1694.91 1570.99C1691.29 1569.15 1688.34 1566.2 1686.5 1562.58C1685.76 1561.14 1685.13 1559.01 1684.77 1554.67C1684.41 1550.21 1684.4 1544.42 1684.4 1535.84V1515.59C1684.4 1507.01 1684.41 1501.22 1684.77 1496.76C1685.13 1492.42 1685.76 1490.29 1686.5 1488.85C1688.34 1485.22 1691.29 1482.28 1694.91 1480.43C1696.35 1479.7 1698.48 1479.06 1702.82 1478.71C1707.28 1478.34 1713.07 1478.34 1721.65 1478.34Z" fill="black"/>
<path id="Rectangle 11906_5" d="M1720.74 1525.71C1720.74 1511.45 1732.3 1499.89 1746.56 1499.89V1499.89C1760.82 1499.89 1772.38 1511.45 1772.38 1525.71V1525.71C1772.38 1539.97 1760.82 1551.53 1746.56 1551.53V1551.53C1732.3 1551.53 1720.74 1539.97 1720.74 1525.71V1525.71Z" fill="black"/>
</g>
<g id="Regular-L">
<path id="Union_6" fill-rule="evenodd" clip-rule="evenodd" d="M1433.49 1453.82C1429.55 1453.82 1425.82 1455.61 1423.36 1458.68L1417.1 1466.49C1416.83 1466.83 1416.64 1467.19 1416.53 1467.56C1404.28 1467.6 1397.57 1467.92 1392.29 1470.61C1387.02 1473.29 1382.74 1477.58 1380.05 1482.85C1377 1488.84 1377 1496.68 1377 1512.36V1539.01C1377 1554.69 1377 1562.54 1380.05 1568.53C1382.74 1573.79 1387.02 1578.08 1392.29 1580.76C1398.28 1583.81 1406.12 1583.81 1421.8 1583.81H1478.02C1493.7 1583.81 1501.54 1583.81 1507.53 1580.76C1512.8 1578.08 1517.09 1573.79 1519.77 1568.53C1522.82 1562.54 1522.82 1554.69 1522.82 1539.01V1512.36C1522.82 1496.68 1522.82 1488.84 1519.77 1482.85C1517.09 1477.58 1512.8 1473.29 1507.53 1470.61C1502.3 1467.94 1495.65 1467.61 1483.58 1467.56L1476.47 1458.69C1474 1455.61 1470.27 1453.82 1466.32 1453.82H1433.49ZM1421.8 1476.06H1478.02C1486 1476.06 1491.48 1476.07 1495.72 1476.41C1499.86 1476.75 1502.08 1477.37 1503.67 1478.18C1507.34 1480.05 1510.33 1483.04 1512.2 1486.71C1513.01 1488.3 1513.63 1490.52 1513.97 1494.66C1514.32 1498.9 1514.32 1504.38 1514.32 1512.36V1539.01C1514.32 1546.99 1514.32 1552.47 1513.97 1556.71C1513.63 1560.85 1513.01 1563.07 1512.2 1564.67C1510.33 1568.34 1507.34 1571.32 1503.67 1573.19C1502.08 1574 1499.86 1574.62 1495.72 1574.96C1491.48 1575.31 1486 1575.31 1478.02 1575.31H1421.8C1413.82 1575.31 1408.35 1575.31 1404.1 1574.96C1399.96 1574.62 1397.74 1574 1396.15 1573.19C1392.48 1571.32 1389.5 1568.34 1387.63 1564.67C1386.81 1563.07 1386.19 1560.85 1385.85 1556.71C1385.51 1552.47 1385.5 1546.99 1385.5 1539.01V1512.36C1385.5 1504.38 1385.51 1498.9 1385.85 1494.66C1386.19 1490.52 1386.81 1488.3 1387.63 1486.71C1389.5 1483.04 1392.48 1480.05 1396.15 1478.18C1397.74 1477.37 1399.96 1476.75 1404.1 1476.41C1408.35 1476.07 1413.82 1476.06 1421.8 1476.06Z" fill="black"/>
<path id="Rectangle 11906_6" d="M1424.09 1525.68C1424.09 1511.42 1435.65 1499.86 1449.91 1499.86V1499.86C1464.17 1499.86 1475.73 1511.42 1475.73 1525.68V1525.68C1475.73 1539.94 1464.17 1551.5 1449.91 1551.5V1551.5C1435.65 1551.5 1424.09 1539.94 1424.09 1525.68V1525.68Z" fill="black"/>
</g>
<g id="Light-L">
<path id="Union_7" fill-rule="evenodd" clip-rule="evenodd" d="M1136.71 1453.92C1132.77 1453.92 1129.04 1455.71 1126.58 1458.78L1120.32 1466.59C1120.06 1466.93 1119.87 1467.29 1119.75 1467.66C1106.56 1467.67 1099.71 1467.8 1094.42 1470.49C1089.53 1472.99 1085.55 1476.96 1083.06 1481.86C1080.22 1487.42 1080.22 1494.7 1080.22 1509.26V1542.31C1080.22 1556.88 1080.22 1564.16 1083.06 1569.72C1085.55 1574.61 1089.53 1578.59 1094.42 1581.08C1099.98 1583.91 1107.26 1583.91 1121.82 1583.91H1184.44C1199.01 1583.91 1206.29 1583.91 1211.85 1581.08C1216.74 1578.59 1220.72 1574.61 1223.21 1569.72C1226.04 1564.16 1226.04 1556.88 1226.04 1542.31V1509.26C1226.04 1494.7 1226.04 1487.42 1223.21 1481.86C1220.72 1476.96 1216.74 1472.99 1211.85 1470.49C1206.59 1467.82 1199.81 1467.67 1186.8 1467.66L1179.69 1458.79C1177.22 1455.71 1173.49 1453.92 1169.55 1453.92H1136.71ZM1121.82 1474.91H1184.44C1191.84 1474.91 1196.96 1474.92 1200.93 1475.24C1204.82 1475.56 1206.97 1476.14 1208.56 1476.95C1212.08 1478.75 1214.95 1481.62 1216.75 1485.15C1217.56 1486.74 1218.15 1488.89 1218.46 1492.77C1218.79 1496.75 1218.79 1501.86 1218.79 1509.26V1542.31C1218.79 1549.72 1218.79 1554.83 1218.46 1558.8C1218.15 1562.69 1217.56 1564.84 1216.75 1566.43C1214.95 1569.96 1212.08 1572.82 1208.56 1574.62C1206.97 1575.43 1204.82 1576.02 1200.93 1576.33C1196.96 1576.66 1191.84 1576.66 1184.44 1576.66H1121.82C1114.42 1576.66 1109.31 1576.66 1105.34 1576.33C1101.45 1576.02 1099.3 1575.43 1097.71 1574.62C1094.18 1572.82 1091.31 1569.96 1089.52 1566.43C1088.71 1564.84 1088.12 1562.69 1087.8 1558.8C1087.48 1554.83 1087.47 1549.72 1087.47 1542.31V1509.26C1087.47 1501.86 1087.48 1496.75 1087.8 1492.77C1088.12 1488.89 1088.71 1486.74 1089.52 1485.15C1091.31 1481.62 1094.18 1478.75 1097.71 1476.95C1099.3 1476.14 1101.45 1475.56 1105.34 1475.24C1109.31 1474.92 1114.42 1474.91 1121.82 1474.91Z" fill="black"/>
<path id="Rectangle 11906_7" d="M1127.31 1525.79C1127.31 1511.53 1138.87 1499.96 1153.13 1499.96V1499.96C1167.39 1499.96 1178.95 1511.53 1178.95 1525.79V1525.79C1178.95 1540.05 1167.39 1551.61 1153.13 1551.61V1551.61C1138.87 1551.61 1127.31 1540.05 1127.31 1525.79V1525.79Z" fill="black"/>
</g>
<g id="Thin-L">
<path id="Union_8" fill-rule="evenodd" clip-rule="evenodd" d="M840.003 1454.01C836.062 1454.01 832.333 1455.8 829.868 1458.88L823.614 1466.68C823.225 1467.17 823.007 1467.71 822.935 1468.25C809.811 1468.26 802.986 1468.39 797.708 1471.08C792.816 1473.58 788.839 1477.55 786.346 1482.45C783.512 1488.01 783.512 1495.29 783.512 1509.85V1541.9C783.512 1556.46 783.512 1563.74 786.346 1569.3C788.839 1574.2 792.816 1578.17 797.708 1580.67C803.27 1583.5 810.551 1583.5 825.112 1583.5H887.733C902.295 1583.5 909.575 1583.5 915.137 1580.67C920.029 1578.17 924.007 1574.2 926.499 1569.3C929.333 1563.74 929.333 1556.46 929.333 1541.9V1509.85C929.333 1495.29 929.333 1488.01 926.499 1482.45C924.007 1477.55 920.029 1473.58 915.137 1471.08C909.937 1468.43 903.236 1468.26 890.487 1468.25L882.981 1458.88C880.514 1455.8 876.781 1454.01 872.836 1454.01H840.003ZM825.112 1472.25H887.733C895.08 1472.25 900.349 1472.25 904.484 1472.59C908.572 1472.92 911.198 1473.57 913.321 1474.65C917.461 1476.76 920.826 1480.12 922.935 1484.26C924.017 1486.39 924.658 1489.01 924.992 1493.1C925.33 1497.23 925.333 1502.5 925.333 1509.85V1541.9C925.333 1549.25 925.33 1554.52 924.992 1558.65C924.658 1562.74 924.017 1565.36 922.935 1567.49C920.826 1571.63 917.461 1574.99 913.321 1577.1C911.198 1578.18 908.572 1578.83 904.484 1579.16C900.349 1579.5 895.08 1579.5 887.733 1579.5H825.112C817.766 1579.5 812.496 1579.5 808.361 1579.16C804.273 1578.83 801.647 1578.18 799.524 1577.1C795.385 1574.99 792.019 1571.63 789.91 1567.49C788.828 1565.36 788.187 1562.74 787.853 1558.65C787.515 1554.52 787.512 1549.25 787.512 1541.9V1509.85C787.512 1502.5 787.515 1497.23 787.853 1493.1C788.187 1489.01 788.828 1486.39 789.91 1484.26C792.019 1480.12 795.385 1476.76 799.524 1474.65C801.647 1473.57 804.273 1472.92 808.361 1472.59C812.496 1472.25 817.766 1472.25 825.112 1472.25Z" fill="black"/>
<path id="Rectangle 11906_8" d="M830.602 1525.88C830.602 1511.62 842.162 1500.06 856.422 1500.06V1500.06C870.683 1500.06 882.243 1511.62 882.243 1525.88V1525.88C882.243 1540.14 870.683 1551.7 856.422 1551.7V1551.7C842.162 1551.7 830.602 1540.14 830.602 1525.88V1525.88Z" fill="black"/>
</g>
<g id="Ultralight-L">
<path id="Union_9" fill-rule="evenodd" clip-rule="evenodd" d="M543.01 1454.09C539.064 1454.09 535.332 1455.88 532.865 1458.96L524.956 1468.83H523.312C510.431 1468.83 503.99 1468.83 499.07 1471.33C494.743 1473.54 491.224 1477.06 489.019 1481.39C486.512 1486.31 486.512 1492.75 486.512 1505.63V1546.28C486.512 1559.16 486.512 1565.6 489.019 1570.52C491.224 1574.85 494.743 1578.37 499.07 1580.57C503.99 1583.08 510.431 1583.08 523.312 1583.08H595.533C608.414 1583.08 614.855 1583.08 619.775 1580.57C624.103 1578.37 627.621 1574.85 629.826 1570.52C632.333 1565.6 632.333 1559.16 632.333 1546.28V1505.63C632.333 1492.75 632.333 1486.31 629.826 1481.39C627.621 1477.06 624.103 1473.54 619.775 1471.33C614.855 1468.83 608.414 1468.83 595.533 1468.83H593.89L585.981 1458.96C583.514 1455.88 579.782 1454.09 575.836 1454.09H543.01ZM523.312 1471.33H595.533C602.015 1471.33 606.726 1471.33 610.436 1471.63C614.117 1471.93 616.591 1472.52 618.64 1473.56C622.497 1475.53 625.633 1478.66 627.599 1482.52C628.643 1484.57 629.227 1487.04 629.528 1490.73C629.831 1494.44 629.833 1499.15 629.833 1505.63V1546.28C629.833 1552.76 629.831 1557.47 629.528 1561.18C629.227 1564.86 628.643 1567.34 627.599 1569.38C625.633 1573.24 622.497 1576.38 618.64 1578.34C616.591 1579.39 614.117 1579.97 610.436 1580.27C606.726 1580.58 602.015 1580.58 595.533 1580.58H523.312C516.83 1580.58 512.119 1580.58 508.409 1580.27C504.729 1579.97 502.254 1579.39 500.205 1578.34C496.348 1576.38 493.212 1573.24 491.247 1569.38C490.203 1567.34 489.618 1564.86 489.317 1561.18C489.014 1557.47 489.012 1552.76 489.012 1546.28V1505.63C489.012 1499.15 489.014 1494.44 489.317 1490.73C489.618 1487.04 490.203 1484.57 491.247 1482.52C493.212 1478.66 496.348 1475.53 500.205 1473.56C502.254 1472.52 504.729 1471.93 508.409 1471.63C512.119 1471.33 516.83 1471.33 523.312 1471.33Z" fill="black"/>
<path id="Rectangle 11906_9" d="M533.602 1525.95C533.602 1511.69 545.162 1500.13 559.422 1500.13V1500.13C573.683 1500.13 585.243 1511.69 585.243 1525.95V1525.95C585.243 1540.21 573.683 1551.77 559.422 1551.77V1551.77C545.162 1551.77 533.602 1540.21 533.602 1525.95V1525.95Z" fill="black"/>
</g>
<g id="Black-M">
<path id="Union_10" fill-rule="evenodd" clip-rule="evenodd" d="M2920.33 1039.53C2917.91 1039.53 2915.61 1040.63 2914.09 1042.53L2908.27 1049.79C2905.23 1049.8 2903.38 1049.86 2901.77 1050.12C2890.22 1051.95 2881.16 1061.01 2879.33 1072.56C2879 1074.66 2879 1077.17 2879 1082.19V1104.13C2879 1109.14 2879 1111.65 2879.33 1113.75C2881.16 1125.3 2890.22 1134.36 2901.77 1136.19C2903.87 1136.53 2906.38 1136.53 2911.4 1136.53H2955.4C2960.41 1136.53 2962.92 1136.53 2965.02 1136.19C2976.57 1134.36 2985.63 1125.3 2987.46 1113.75C2987.8 1111.65 2987.8 1109.14 2987.8 1104.13V1082.19C2987.8 1077.17 2987.8 1074.66 2987.46 1072.56C2985.63 1061.01 2976.57 1051.95 2965.02 1050.12C2963.41 1049.86 2961.56 1049.8 2958.52 1049.79L2952.7 1042.53C2951.18 1040.63 2948.89 1039.53 2946.46 1039.53H2920.33ZM2911.4 1067.04H2955.4C2961.07 1067.04 2961.9 1067.09 2962.32 1067.16C2966.49 1067.82 2969.77 1071.09 2970.43 1075.26C2970.49 1075.68 2970.55 1076.51 2970.55 1082.19V1104.13C2970.55 1109.8 2970.49 1110.63 2970.43 1111.05C2969.77 1115.22 2966.49 1118.49 2962.32 1119.16C2961.9 1119.22 2961.07 1119.28 2955.4 1119.28H2911.4C2905.72 1119.28 2904.89 1119.22 2904.47 1119.16C2900.3 1118.49 2897.03 1115.22 2896.37 1111.05C2896.3 1110.63 2896.25 1109.8 2896.25 1104.13V1082.19C2896.25 1076.51 2896.3 1075.68 2896.37 1075.26C2897.03 1071.09 2900.3 1067.82 2904.47 1067.16C2904.89 1067.09 2905.72 1067.04 2911.4 1067.04Z" fill="black"/>
<path id="Rectangle 11906_10" d="M2914.13 1093.15C2914.13 1082.51 2922.76 1073.89 2933.4 1073.89V1073.89C2944.04 1073.89 2952.66 1082.51 2952.66 1093.15V1093.15C2952.66 1103.79 2944.04 1112.42 2933.4 1112.42V1112.42C2922.76 1112.42 2914.13 1103.79 2914.13 1093.15V1093.15Z" fill="black"/>
</g>
<g id="Heavy-M">
<path id="Union_11" fill-rule="evenodd" clip-rule="evenodd" d="M2623.63 1040.53C2621.2 1040.53 2618.91 1041.63 2617.39 1043.53L2611.57 1050.79C2607.4 1050.79 2605.22 1050.8 2603.38 1051.09C2592.69 1052.79 2584.3 1061.18 2582.6 1071.87C2582.29 1073.82 2582.29 1076.14 2582.29 1080.79V1107.53C2582.29 1112.17 2582.29 1114.49 2582.6 1116.44C2584.3 1127.13 2592.69 1135.52 2603.38 1137.22C2605.33 1137.53 2607.65 1137.53 2612.29 1137.53H2661.09C2665.74 1137.53 2668.06 1137.53 2670 1137.22C2680.7 1135.52 2689.09 1127.13 2690.79 1116.44C2691.09 1114.49 2691.09 1112.17 2691.09 1107.53V1080.79C2691.09 1076.14 2691.09 1073.82 2690.79 1071.87C2689.09 1061.18 2680.7 1052.79 2670 1051.09C2668.16 1050.8 2665.98 1050.79 2661.81 1050.79L2656 1043.53C2654.48 1041.63 2652.18 1040.53 2649.76 1040.53H2623.63ZM2612.29 1065.79H2661.09C2666.31 1065.79 2667.17 1065.83 2667.66 1065.91C2671.94 1066.59 2675.29 1069.94 2675.97 1074.22C2676.05 1074.7 2676.09 1075.57 2676.09 1080.79V1107.53C2676.09 1112.74 2676.05 1113.61 2675.97 1114.09C2675.29 1118.37 2671.94 1121.72 2667.66 1122.4C2667.17 1122.48 2666.31 1122.53 2661.09 1122.53H2612.29C2607.08 1122.53 2606.21 1122.48 2605.73 1122.4C2601.45 1121.72 2598.09 1118.37 2597.42 1114.09C2597.34 1113.61 2597.29 1112.74 2597.29 1107.53V1080.79C2597.29 1075.57 2597.34 1074.7 2597.42 1074.22C2598.09 1069.94 2601.45 1066.59 2605.73 1065.91C2606.21 1065.83 2607.08 1065.79 2612.29 1065.79Z" fill="black"/>
<path id="Rectangle 11906_11" d="M2617.43 1094.15C2617.43 1083.51 2626.05 1074.89 2636.69 1074.89V1074.89C2647.33 1074.89 2655.96 1083.51 2655.96 1094.15V1094.15C2655.96 1104.79 2647.33 1113.42 2636.69 1113.42V1113.42C2626.05 1113.42 2617.43 1104.79 2617.43 1094.15V1094.15Z" fill="black"/>
</g>
<g id="Bold-M">
<path id="Union_12" fill-rule="evenodd" clip-rule="evenodd" d="M2326.91 1040.53C2324.49 1040.53 2322.19 1041.63 2320.67 1043.53L2314.86 1050.78H2314.38C2309.92 1050.78 2307.69 1050.78 2305.82 1051.08C2295.55 1052.7 2287.5 1060.76 2285.87 1071.03C2285.58 1072.89 2285.58 1075.12 2285.58 1079.58V1108.72C2285.58 1113.18 2285.58 1115.41 2285.87 1117.28C2287.5 1127.55 2295.55 1135.6 2305.82 1137.23C2307.69 1137.52 2309.92 1137.52 2314.38 1137.52H2365.58C2370.04 1137.52 2372.27 1137.52 2374.13 1137.23C2384.4 1135.6 2392.45 1127.55 2394.08 1117.28C2394.38 1115.41 2394.38 1113.18 2394.38 1108.72V1079.58C2394.38 1075.12 2394.38 1072.89 2394.08 1071.03C2392.45 1060.76 2384.4 1052.7 2374.13 1051.08C2372.27 1050.78 2370.04 1050.78 2365.58 1050.78H2365.1L2359.28 1043.53C2357.76 1041.63 2355.47 1040.53 2353.04 1040.53H2326.91ZM2314.38 1063.28H2365.58C2370.51 1063.28 2371.53 1063.32 2372.18 1063.42C2377.1 1064.2 2380.96 1068.06 2381.73 1072.98C2381.84 1073.63 2381.88 1074.64 2381.88 1079.58V1108.72C2381.88 1113.66 2381.84 1114.67 2381.73 1115.32C2380.96 1120.24 2377.1 1124.1 2372.18 1124.88C2371.53 1124.98 2370.51 1125.02 2365.58 1125.02H2314.38C2309.44 1125.02 2308.43 1124.98 2307.78 1124.88C2302.86 1124.1 2299 1120.24 2298.22 1115.32C2298.11 1114.67 2298.08 1113.66 2298.08 1108.72V1079.58C2298.08 1074.64 2298.11 1073.63 2298.22 1072.98C2299 1068.06 2302.86 1064.2 2307.78 1063.42C2308.43 1063.32 2309.44 1063.28 2314.38 1063.28Z" fill="black"/>
<path id="Rectangle 11906_12" d="M2320.71 1094.15C2320.71 1083.51 2329.34 1074.88 2339.98 1074.88V1074.88C2350.62 1074.88 2359.24 1083.51 2359.24 1094.15V1094.15C2359.24 1104.79 2350.62 1113.41 2339.98 1113.41V1113.41C2329.34 1113.41 2320.71 1104.79 2320.71 1094.15V1094.15Z" fill="black"/>
</g>
<g id="Semibold-M">
<path id="Union_13" fill-rule="evenodd" clip-rule="evenodd" d="M2030.2 1039.89C2027.78 1039.89 2025.48 1040.99 2023.96 1042.89L2018.15 1050.14H2016.47C2012.19 1050.14 2010.06 1050.14 2008.27 1050.43C1998.43 1051.99 1990.71 1059.71 1989.15 1069.55C1988.87 1071.33 1988.87 1073.47 1988.87 1077.74V1109.28C1988.87 1113.56 1988.87 1115.69 1989.15 1117.48C1990.71 1127.32 1998.43 1135.04 2008.27 1136.6C2010.06 1136.88 2012.19 1136.88 2016.47 1136.88H2070.07C2074.34 1136.88 2076.48 1136.88 2078.26 1136.6C2088.11 1135.04 2095.82 1127.32 2097.38 1117.48C2097.67 1115.69 2097.67 1113.56 2097.67 1109.28V1077.74C2097.67 1073.47 2097.67 1071.33 2097.38 1069.55C2095.82 1059.71 2088.11 1051.99 2078.26 1050.43C2076.48 1050.14 2074.34 1050.14 2070.07 1050.14H2068.39L2062.57 1042.89C2061.05 1040.99 2058.76 1039.89 2056.33 1039.89H2030.2ZM2016.47 1060.89H2070.07C2074.75 1060.89 2075.84 1060.93 2076.58 1061.05C2081.82 1061.88 2085.93 1065.99 2086.76 1071.23C2086.88 1071.97 2086.92 1073.06 2086.92 1077.74V1109.28C2086.92 1113.97 2086.88 1115.06 2086.76 1115.8C2085.93 1121.04 2081.82 1125.15 2076.58 1125.98C2075.84 1126.1 2074.75 1126.13 2070.07 1126.13H2016.47C2011.78 1126.13 2010.69 1126.1 2009.95 1125.98C2004.71 1125.15 2000.6 1121.04 1999.77 1115.8C1999.65 1115.06 1999.62 1113.97 1999.62 1109.28V1077.74C1999.62 1073.06 1999.65 1071.97 1999.77 1071.23C2000.6 1065.99 2004.71 1061.88 2009.95 1061.05C2010.69 1060.93 2011.78 1060.89 2016.47 1060.89Z" fill="black"/>
<path id="Rectangle 11906_13" d="M2024 1093.51C2024 1082.87 2032.63 1074.25 2043.27 1074.25V1074.25C2053.91 1074.25 2062.53 1082.87 2062.53 1093.51V1093.51C2062.53 1104.15 2053.91 1112.78 2043.27 1112.78V1112.78C2032.63 1112.78 2024 1104.15 2024 1093.51V1093.51Z" fill="black"/>
</g>
<g id="Medium-M">
<path id="Union_14" fill-rule="evenodd" clip-rule="evenodd" d="M1733.49 1039.76C1731.06 1039.76 1728.77 1040.86 1727.25 1042.76L1721.43 1050.01H1717.35C1713.45 1050.01 1711.5 1050.01 1709.87 1050.27C1700.88 1051.69 1693.83 1058.74 1692.41 1067.73C1692.15 1069.36 1692.15 1071.31 1692.15 1075.21V1111.55C1692.15 1115.45 1692.15 1117.4 1692.41 1119.04C1693.83 1128.02 1700.88 1135.07 1709.87 1136.49C1711.5 1136.75 1713.45 1136.75 1717.35 1136.75H1775.75C1779.65 1136.75 1781.61 1136.75 1783.24 1136.49C1792.22 1135.07 1799.27 1128.02 1800.69 1119.04C1800.95 1117.4 1800.95 1115.45 1800.95 1111.55V1075.21C1800.95 1071.31 1800.95 1069.36 1800.69 1067.73C1799.27 1058.74 1792.22 1051.69 1783.24 1050.27C1781.61 1050.01 1779.65 1050.01 1775.75 1050.01H1771.67L1765.86 1042.76C1764.34 1040.86 1762.04 1039.76 1759.62 1039.76H1733.49ZM1717.35 1059.51H1775.75C1780.02 1059.51 1781.04 1059.54 1781.75 1059.65C1786.67 1060.43 1790.53 1064.29 1791.31 1069.21C1791.42 1069.92 1791.45 1070.95 1791.45 1075.21V1111.55C1791.45 1115.82 1791.42 1116.84 1791.31 1117.55C1790.53 1122.47 1786.67 1126.33 1781.75 1127.11C1781.04 1127.22 1780.02 1127.25 1775.75 1127.25H1717.35C1713.09 1127.25 1712.06 1127.22 1711.35 1127.11C1706.43 1126.33 1702.57 1122.47 1701.79 1117.55C1701.68 1116.84 1701.65 1115.82 1701.65 1111.55V1075.21C1701.65 1070.95 1701.68 1069.92 1701.79 1069.21C1702.57 1064.29 1706.43 1060.43 1711.35 1059.65C1712.06 1059.54 1713.09 1059.51 1717.35 1059.51Z" fill="black"/>
<path id="Rectangle 11906_14" d="M1727.29 1093.38C1727.29 1082.74 1735.91 1074.11 1746.55 1074.11V1074.11C1757.19 1074.11 1765.82 1082.74 1765.82 1093.38V1093.38C1765.82 1104.02 1757.19 1112.64 1746.55 1112.64V1112.64C1735.91 1112.64 1727.29 1104.02 1727.29 1093.38V1093.38Z" fill="black"/>
</g>
<g id="Regular-M">
<path id="Union_15" fill-rule="evenodd" clip-rule="evenodd" d="M1436.78 1039.77C1434.35 1039.77 1432.06 1040.87 1430.54 1042.77L1424.72 1050.02H1418.24C1414.71 1050.02 1412.95 1050.02 1411.47 1050.26C1403.34 1051.55 1396.96 1057.92 1395.68 1066.05C1395.44 1067.53 1395.44 1069.29 1395.44 1072.82V1113.96C1395.44 1117.49 1395.44 1119.26 1395.68 1120.74C1396.96 1128.87 1403.34 1135.24 1411.47 1136.53C1412.95 1136.76 1414.71 1136.76 1418.24 1136.76H1481.44C1484.97 1136.76 1486.74 1136.76 1488.21 1136.53C1496.34 1135.24 1502.72 1128.87 1504.01 1120.74C1504.24 1119.26 1504.24 1117.49 1504.24 1113.96V1072.82C1504.24 1069.29 1504.24 1067.53 1504.01 1066.05C1502.72 1057.92 1496.34 1051.55 1488.21 1050.26C1486.74 1050.02 1484.97 1050.02 1481.44 1050.02H1474.96L1469.15 1042.77C1467.63 1040.87 1465.33 1039.77 1462.9 1039.77H1436.78ZM1418.24 1058.02H1481.44C1485.28 1058.02 1486.26 1058.05 1486.96 1058.16C1491.67 1058.9 1495.36 1062.6 1496.11 1067.3C1496.22 1068 1496.24 1068.99 1496.24 1072.82V1113.96C1496.24 1117.8 1496.22 1118.79 1496.11 1119.48C1495.36 1124.19 1491.67 1127.88 1486.96 1128.63C1486.26 1128.74 1485.28 1128.76 1481.44 1128.76H1418.24C1414.41 1128.76 1413.42 1128.74 1412.72 1128.63C1408.01 1127.88 1404.32 1124.19 1403.58 1119.48C1403.47 1118.79 1403.44 1117.8 1403.44 1113.96V1072.82C1403.44 1068.99 1403.47 1068 1403.58 1067.3C1404.32 1062.6 1408.01 1058.9 1412.72 1058.16C1413.42 1058.05 1414.41 1058.02 1418.24 1058.02Z" fill="black"/>
<path id="Rectangle 11906_15" d="M1430.58 1093.39C1430.58 1082.75 1439.2 1074.12 1449.84 1074.12V1074.12C1460.48 1074.12 1469.11 1082.75 1469.11 1093.39V1093.39C1469.11 1104.03 1460.48 1112.66 1449.84 1112.66V1112.66C1439.2 1112.66 1430.58 1104.03 1430.58 1093.39V1093.39Z" fill="black"/>
</g>
<g id="Light-M">
<path id="Union_16" fill-rule="evenodd" clip-rule="evenodd" d="M1140.07 1040.96C1137.64 1040.96 1135.34 1042.06 1133.83 1043.95L1128.01 1051.21H1119.13C1115.97 1051.21 1114.39 1051.21 1113.07 1051.42C1105.8 1052.57 1100.09 1058.28 1098.94 1065.55C1098.73 1066.87 1098.73 1068.45 1098.73 1071.61V1117.55C1098.73 1120.71 1098.73 1122.29 1098.94 1123.61C1100.09 1130.88 1105.8 1136.59 1113.07 1137.74C1114.39 1137.95 1115.97 1137.95 1119.13 1137.95H1187.13C1190.29 1137.95 1191.87 1137.95 1193.19 1137.74C1200.47 1136.59 1206.17 1130.88 1207.32 1123.61C1207.53 1122.29 1207.53 1120.71 1207.53 1117.55V1071.61C1207.53 1068.45 1207.53 1066.87 1207.32 1065.55C1206.17 1058.28 1200.47 1052.57 1193.19 1051.42C1191.87 1051.21 1190.29 1051.21 1187.13 1051.21H1178.25L1172.44 1043.95C1170.92 1042.06 1168.62 1040.96 1166.19 1040.96H1140.07ZM1119.13 1057.21H1187.13C1190.52 1057.21 1191.51 1057.23 1192.25 1057.35C1196.96 1058.09 1200.65 1061.78 1201.4 1066.49C1201.51 1067.23 1201.53 1068.22 1201.53 1071.61V1117.55C1201.53 1120.94 1201.51 1121.93 1201.4 1122.67C1200.65 1127.38 1196.96 1131.07 1192.25 1131.82C1191.51 1131.93 1190.52 1131.95 1187.13 1131.95H1119.13C1115.74 1131.95 1114.75 1131.93 1114.01 1131.82C1109.3 1131.07 1105.61 1127.38 1104.87 1122.67C1104.75 1121.93 1104.73 1120.94 1104.73 1117.55V1071.61C1104.73 1068.22 1104.75 1067.23 1104.87 1066.49C1105.61 1061.78 1109.3 1058.09 1114.01 1057.35C1114.75 1057.23 1115.74 1057.21 1119.13 1057.21Z" fill="black"/>
<path id="Rectangle 11906_16" d="M1133.87 1094.58C1133.87 1083.94 1142.49 1075.31 1153.13 1075.31V1075.31C1163.77 1075.31 1172.4 1083.94 1172.4 1094.58V1094.58C1172.4 1105.22 1163.77 1113.84 1153.13 1113.84V1113.84C1142.49 1113.84 1133.87 1105.22 1133.87 1094.58V1094.58Z" fill="black"/>
</g>
<g id="Thin-M">
<path id="Union_17" fill-rule="evenodd" clip-rule="evenodd" d="M843.36 1040.88C840.932 1040.88 838.635 1041.99 837.117 1043.88L830.899 1051.64H821.222C818.249 1051.64 816.763 1051.64 815.519 1051.84C808.673 1052.92 803.303 1058.29 802.219 1065.14C802.022 1066.38 802.022 1067.87 802.022 1070.84V1118.18C802.022 1121.15 802.022 1122.64 802.219 1123.88C803.303 1130.73 808.673 1136.1 815.519 1137.18C816.763 1137.38 818.249 1137.38 821.222 1137.38H891.622C894.595 1137.38 896.081 1137.38 897.325 1137.18C904.171 1136.1 909.541 1130.73 910.625 1123.88C910.822 1122.64 910.822 1121.15 910.822 1118.18V1070.84C910.822 1067.87 910.822 1066.38 910.625 1065.14C909.541 1058.29 904.171 1052.92 897.325 1051.84C896.081 1051.64 894.595 1051.64 891.622 1051.64H881.945L875.727 1043.88C874.209 1041.99 871.912 1040.88 869.484 1040.88H843.36ZM821.222 1055.64H891.622C894.748 1055.64 895.845 1055.65 896.699 1055.79C901.834 1056.6 905.861 1060.63 906.674 1065.76C906.81 1066.62 906.822 1067.71 906.822 1070.84V1118.18C906.822 1121.31 906.81 1122.4 906.674 1123.26C905.861 1128.39 901.834 1132.42 896.699 1133.23C895.845 1133.37 894.748 1133.38 891.622 1133.38H821.222C818.096 1133.38 816.999 1133.37 816.145 1133.23C811.01 1132.42 806.983 1128.39 806.17 1123.26C806.034 1122.4 806.022 1121.31 806.022 1118.18V1070.84C806.022 1067.71 806.034 1066.62 806.17 1065.76C806.983 1060.63 811.01 1056.6 816.145 1055.79C816.999 1055.65 818.096 1055.64 821.222 1055.64Z" fill="black"/>
<path id="Rectangle 11906_17" d="M837.157 1094.5C837.157 1083.86 845.782 1075.24 856.422 1075.24V1075.24C867.062 1075.24 875.687 1083.86 875.687 1094.5V1094.5C875.687 1105.14 867.062 1113.77 856.422 1113.77V1113.77C845.782 1113.77 837.157 1105.14 837.157 1094.5V1094.5Z" fill="black"/>
</g>
<g id="Ultralight-M">
<path id="Union_18" fill-rule="evenodd" clip-rule="evenodd" d="M546.649 1040.88C544.221 1040.88 541.924 1041.99 540.406 1043.88L533.788 1052.14H523.312C520.525 1052.14 519.131 1052.14 517.965 1052.33C511.547 1053.34 506.513 1058.38 505.496 1064.79C505.312 1065.96 505.312 1067.35 505.312 1070.14V1118.88C505.312 1121.67 505.312 1123.06 505.496 1124.23C506.513 1130.65 511.547 1135.68 517.965 1136.7C519.131 1136.88 520.525 1136.88 523.312 1136.88H596.112C598.899 1136.88 600.292 1136.88 601.458 1136.7C607.876 1135.68 612.91 1130.65 613.927 1124.23C614.112 1123.06 614.112 1121.67 614.112 1118.88V1070.14C614.112 1067.35 614.112 1065.96 613.927 1064.79C612.91 1058.38 607.876 1053.34 601.458 1052.33C600.292 1052.14 598.899 1052.14 596.112 1052.14H585.635L579.017 1043.88C577.499 1041.99 575.202 1040.88 572.774 1040.88H546.649ZM523.312 1054.39H596.112C598.985 1054.39 600.159 1054.4 601.106 1054.55C606.562 1055.41 610.84 1059.69 611.705 1065.15C611.855 1066.09 611.862 1067.27 611.862 1070.14V1118.88C611.862 1121.75 611.855 1122.93 611.705 1123.88C610.84 1129.33 606.562 1133.61 601.106 1134.47C600.159 1134.62 598.985 1134.63 596.112 1134.63H523.312C520.439 1134.63 519.264 1134.62 518.317 1134.47C512.861 1133.61 508.583 1129.33 507.718 1123.88C507.569 1122.93 507.562 1121.75 507.562 1118.88V1070.14C507.562 1067.27 507.569 1066.09 507.718 1065.15C508.583 1059.69 512.861 1055.41 518.317 1054.55C519.264 1054.4 520.439 1054.39 523.312 1054.39Z" fill="black"/>
<path id="Rectangle 11906_18" d="M540.446 1094.5C540.446 1083.86 549.072 1075.24 559.711 1075.24V1075.24C570.351 1075.24 578.977 1083.86 578.977 1094.5V1094.5C578.977 1105.14 570.351 1113.77 559.711 1113.77V1113.77C549.072 1113.77 540.446 1105.14 540.446 1094.5V1094.5Z" fill="black"/>
</g>
<g id="Black-S">
<path id="Union_19" fill-rule="evenodd" clip-rule="evenodd" d="M2923.67 619.23C2921.24 619.23 2918.94 620.333 2917.42 622.228L2913.23 627.461H2909.72C2898.68 627.461 2889.72 636.415 2889.72 647.461V677.097C2889.72 688.143 2898.68 697.097 2909.72 697.097H2957.07C2968.12 697.097 2977.07 688.143 2977.07 677.097V647.461C2977.07 636.415 2968.12 627.461 2957.07 627.461H2953.56L2949.37 622.228C2947.85 620.333 2945.55 619.23 2943.13 619.23H2923.67ZM2909.72 641.461H2957.07C2960.38 641.461 2963.07 644.147 2963.07 647.461V677.097C2963.07 680.411 2960.38 683.097 2957.07 683.097H2909.72C2906.41 683.097 2903.72 680.411 2903.72 677.097V647.461C2903.72 644.147 2906.41 641.461 2909.72 641.461Z" fill="black"/>
<path id="Rectangle 11906_19" d="M2917.93 662.279C2917.93 653.737 2924.85 646.812 2933.4 646.812V646.812C2941.94 646.812 2948.86 653.737 2948.86 662.279V662.279C2948.86 670.821 2941.94 677.745 2933.4 677.745V677.745C2924.85 677.745 2917.93 670.821 2917.93 662.279V662.279Z" fill="black"/>
</g>
<g id="Heavy-S">
<path id="Union_20" fill-rule="evenodd" clip-rule="evenodd" d="M2626.96 619.668C2624.54 619.668 2622.24 620.771 2620.72 622.666L2616.53 627.898H2612.02C2601.53 627.898 2593.02 636.405 2593.02 646.898V678.535C2593.02 689.028 2601.53 697.535 2612.02 697.535H2661.37C2671.86 697.535 2680.37 689.028 2680.37 678.535V646.898C2680.37 636.405 2671.86 627.898 2661.37 627.898H2656.86L2652.67 622.666C2651.15 620.771 2648.85 619.668 2646.42 619.668H2626.96ZM2612.02 640.398H2661.37C2664.96 640.398 2667.87 643.309 2667.87 646.898V678.535C2667.87 682.124 2664.96 685.035 2661.37 685.035H2612.02C2608.43 685.035 2605.52 682.124 2605.52 678.535V646.898C2605.52 643.309 2608.43 640.398 2612.02 640.398Z" fill="black"/>
<path id="Rectangle 11906_20" d="M2621.23 662.716C2621.23 654.174 2628.15 647.25 2636.69 647.25V647.25C2645.24 647.25 2652.16 654.174 2652.16 662.716V662.716C2652.16 671.258 2645.24 678.183 2636.69 678.183V678.183C2628.15 678.183 2621.23 671.258 2621.23 662.716V662.716Z" fill="black"/>
</g>
<g id="Bold-S">
<path id="Union_21" fill-rule="evenodd" clip-rule="evenodd" d="M2330.25 619.688C2327.82 619.688 2325.53 620.79 2324.01 622.685L2319.82 627.918H2314.31C2304.37 627.918 2296.31 635.977 2296.31 645.918V679.554C2296.31 689.495 2304.37 697.554 2314.31 697.554H2365.65C2375.6 697.554 2383.65 689.495 2383.65 679.554V645.918C2383.65 635.977 2375.6 627.918 2365.65 627.918H2360.15L2355.95 622.685C2354.44 620.79 2352.14 619.688 2349.71 619.688H2330.25ZM2314.31 638.418H2365.65C2369.8 638.418 2373.15 641.776 2373.15 645.918V679.554C2373.15 683.696 2369.8 687.054 2365.65 687.054H2314.31C2310.17 687.054 2306.81 683.696 2306.81 679.554V645.918C2306.81 641.776 2310.17 638.418 2314.31 638.418Z" fill="black"/>
<path id="Rectangle 11906_21" d="M2324.52 662.736C2324.52 654.194 2331.44 647.27 2339.98 647.27V647.27C2348.52 647.27 2355.45 654.194 2355.45 662.736V662.736C2355.45 671.278 2348.52 678.202 2339.98 678.202V678.202C2331.44 678.202 2324.52 671.278 2324.52 662.736V662.736Z" fill="black"/>
</g>
<g id="Semibold-S">
<path id="Union_22" fill-rule="evenodd" clip-rule="evenodd" d="M2033.54 620.664C2031.11 620.664 2028.82 621.767 2027.3 623.662L2023.11 628.895H2016.6C2007.21 628.895 1999.6 636.506 1999.6 645.895V681.531C1999.6 690.919 2007.21 698.531 2016.6 698.531H2069.95C2079.33 698.531 2086.95 690.919 2086.95 681.531V645.895C2086.95 636.506 2079.33 628.895 2069.95 628.895H2063.44L2059.24 623.662C2057.73 621.767 2055.43 620.664 2053 620.664H2033.54ZM2016.6 638.145H2069.95C2074.23 638.145 2077.7 641.614 2077.7 645.895V681.531C2077.7 685.811 2074.23 689.281 2069.95 689.281H2016.6C2012.32 689.281 2008.85 685.811 2008.85 681.531V645.895C2008.85 641.614 2012.32 638.145 2016.6 638.145Z" fill="black"/>
<path id="Rectangle 11906_22" d="M2027.81 663.712C2027.81 655.171 2034.73 648.246 2043.27 648.246V648.246C2051.81 648.246 2058.74 655.171 2058.74 663.712V663.712C2058.74 672.254 2051.81 679.179 2043.27 679.179V679.179C2034.73 679.179 2027.81 672.254 2027.81 663.712V663.712Z" fill="black"/>
</g>
<g id="Medium-S">
<path id="Union_23" fill-rule="evenodd" clip-rule="evenodd" d="M1736.83 620.617C1734.4 620.617 1732.1 621.72 1730.58 623.615L1726.39 628.848H1718.88C1710.05 628.848 1702.88 636.011 1702.88 644.848V682.484C1702.88 691.32 1710.05 698.484 1718.88 698.484H1774.23C1783.07 698.484 1790.23 691.32 1790.23 682.484V644.848C1790.23 636.011 1783.07 628.848 1774.23 628.848H1766.72L1762.53 623.615C1761.01 621.72 1758.71 620.617 1756.29 620.617H1736.83ZM1718.88 637.098H1774.23C1778.51 637.098 1781.98 640.567 1781.98 644.848V682.484C1781.98 686.764 1778.51 690.234 1774.23 690.234H1718.88C1714.6 690.234 1711.13 686.764 1711.13 682.484V644.848C1711.13 640.567 1714.6 637.098 1718.88 637.098Z" fill="black"/>
<path id="Rectangle 11906_23" d="M1731.09 663.666C1731.09 655.124 1738.01 648.199 1746.56 648.199V648.199C1755.1 648.199 1762.02 655.124 1762.02 663.666V663.666C1762.02 672.207 1755.1 679.132 1746.56 679.132V679.132C1738.01 679.132 1731.09 672.207 1731.09 663.666V663.666Z" fill="black"/>
</g>
<g id="Regular-S">
<path id="Union_24" fill-rule="evenodd" clip-rule="evenodd" d="M1440.12 620.77C1437.69 620.77 1435.39 621.872 1433.87 623.767L1429.68 629H1421.17C1412.89 629 1406.17 635.716 1406.17 644V683.636C1406.17 691.92 1412.89 698.636 1421.17 698.636H1478.52C1486.8 698.636 1493.52 691.92 1493.52 683.636V644C1493.52 635.716 1486.8 629 1478.52 629H1470.01L1465.82 623.767C1464.3 621.872 1462 620.77 1459.58 620.77H1440.12ZM1421.17 636.15H1478.52C1482.86 636.15 1486.37 639.665 1486.37 644V683.636C1486.37 687.972 1482.86 691.486 1478.52 691.486H1421.17C1416.84 691.486 1413.32 687.972 1413.32 683.636V644C1413.32 639.665 1416.84 636.15 1421.17 636.15Z" fill="black"/>
<path id="Rectangle 11906_24" d="M1434.38 663.818C1434.38 655.276 1441.31 648.352 1449.85 648.352V648.352C1458.39 648.352 1465.31 655.276 1465.31 663.818V663.818C1465.31 672.36 1458.39 679.284 1449.85 679.284V679.284C1441.31 679.284 1434.38 672.36 1434.38 663.818V663.818Z" fill="black"/>
</g>
<g id="Light-S">
<path id="Union_25" fill-rule="evenodd" clip-rule="evenodd" d="M1143.41 620.668C1140.98 620.668 1138.68 621.771 1137.17 623.666L1132.97 628.898H1123.46C1115.73 628.898 1109.46 635.166 1109.46 642.898V684.535C1109.46 692.267 1115.73 698.535 1123.46 698.535H1182.81C1190.54 698.535 1196.81 692.267 1196.81 684.535V642.898C1196.81 635.166 1190.54 628.898 1182.81 628.898H1173.3L1169.11 623.666C1167.59 621.771 1165.3 620.668 1162.87 620.668H1143.41ZM1123.46 634.398H1182.81C1187.51 634.398 1191.31 638.204 1191.31 642.898V684.535C1191.31 689.229 1187.51 693.035 1182.81 693.035H1123.46C1118.77 693.035 1114.96 689.229 1114.96 684.535V642.898C1114.96 638.204 1118.77 634.398 1123.46 634.398Z" fill="black"/>
<path id="Rectangle 11906_25" d="M1137.67 663.716C1137.67 655.174 1144.6 648.25 1153.14 648.25V648.25C1161.68 648.25 1168.6 655.174 1168.6 663.716V663.716C1168.6 672.258 1161.68 679.183 1153.14 679.183V679.183C1144.6 679.183 1137.67 672.258 1137.67 663.716V663.716Z" fill="black"/>
</g>
<g id="Thin-S">
<path id="Union_26" fill-rule="evenodd" clip-rule="evenodd" d="M846.693 620.742C844.265 620.742 841.968 621.845 840.45 623.74L836.257 628.973H825.749C818.569 628.973 812.749 634.793 812.749 641.973V685.609C812.749 692.788 818.569 698.609 825.749 698.609H887.095C894.275 698.609 900.095 692.788 900.095 685.609V641.973C900.095 634.793 894.275 628.973 887.095 628.973H876.587L872.394 623.74C870.876 621.845 868.579 620.742 866.151 620.742H846.693ZM825.749 632.223H887.095C892.48 632.223 896.845 636.588 896.845 641.973V685.609C896.845 690.994 892.48 695.359 887.095 695.359H825.749C820.364 695.359 815.999 690.994 815.999 685.609V641.973C815.999 636.588 820.364 632.223 825.749 632.223Z" fill="black"/>
<path id="Rectangle 11906_26" d="M840.956 663.791C840.956 655.249 847.88 648.324 856.422 648.324V648.324C864.964 648.324 871.888 655.249 871.888 663.791V663.791C871.888 672.332 864.964 679.257 856.422 679.257V679.257C847.88 679.257 840.956 672.332 840.956 663.791V663.791Z" fill="black"/>
</g>
<g id="Ultralight-S">
<path id="Union_27" fill-rule="evenodd" clip-rule="evenodd" d="M549.983 620.762C547.555 620.762 545.258 621.865 543.74 623.759L539.14 629.5H528.039C521.411 629.5 516.039 634.873 516.039 641.5V685.14C516.039 691.767 521.411 697.14 528.039 697.14H591.385C598.012 697.14 603.385 691.767 603.385 685.14V641.5C603.385 634.873 598.012 629.5 591.385 629.5H580.284L575.684 623.759C574.166 621.865 571.869 620.762 569.441 620.762H549.983ZM528.039 631.5H591.385C596.908 631.5 601.385 635.977 601.385 641.5V685.14C601.385 690.663 596.908 695.14 591.385 695.14H528.039C522.516 695.14 518.039 690.663 518.039 685.14V641.5C518.039 635.977 522.516 631.5 528.039 631.5Z" fill="black"/>
<path id="Rectangle 11906_27" d="M544.245 663.81C544.245 655.268 551.17 648.344 559.711 648.344V648.344C568.253 648.344 575.178 655.268 575.178 663.81V663.81C575.178 672.352 568.253 679.276 559.711 679.276V679.276C551.17 679.276 544.245 672.352 544.245 663.81V663.81Z" fill="black"/>
</g>
</g>
</g>
</svg>
