<svg xmlns="http://www.w3.org/2000/svg" width="24" height="24" fill="none"><g clip-path="url(#a)"><path fill="#444746" d="M8 4v9-.5V16zM4 22a1.99 1.99 0 0 1-1.425-.575A1.99 1.99 0 0 1 2 20V6h2v14h14v2zm4-4a1.99 1.99 0 0 1-1.425-.575A1.99 1.99 0 0 1 6 16V4c0-.55.192-1.017.575-1.4.4-.4.875-.6 1.425-.6h4.825a5.696 5.696 0 0 0-.75.925A7.332 7.332 0 0 0 11.5 4H8v12h12v-3.5a7.332 7.332 0 0 0 1.075-.575c.333-.217.642-.467.925-.75V16c0 .55-.2 1.025-.6 1.425-.383.383-.85.575-1.4.575zm9.5-6c0-1.533-.533-2.833-1.6-3.9-1.067-1.067-2.367-1.6-3.9-1.6 1.533 0 2.833-.533 3.9-1.6 1.067-1.067 1.6-2.367 1.6-3.9 0 1.533.533 2.833 1.6 3.9 1.067 1.067 2.367 1.6 3.9 1.6-1.533 0-2.833.533-3.9 1.6-1.067 1.067-1.6 2.367-1.6 3.9"/></g><defs><clipPath id="a"><path fill="#fff" d="M0 0h24v24H0z"/></clipPath></defs></svg>