<svg xmlns="http://www.w3.org/2000/svg" width="280" height="103" fill="none"><g clip-path="url(#a)"><rect width="280" height="103" fill="url(#b)" rx="8"/><path fill="url(#c)" stroke="#0B57D0" stroke-width="2" d="M240 104h1V44a5 5 0 0 0-5-5H44a5 5 0 0 0-5 5v60h1z"/><path fill="#0B57D0" d="M40 44a4 4 0 0 1 4-4h192a4 4 0 0 1 4 4v12H40z"/><path fill="url(#d)" d="M40 56a4 4 0 0 1 4-4h192a4 4 0 0 1 4 4v47H40z"/><path fill="#041E49" d="M70 45a3 3 0 0 1 3-3h29a3 3 0 0 1 3 3v7H70z"/><path fill="#041E49" fill-rule="evenodd" d="M67 52a3 3 0 0 0 3-3v3zm41 0a3 3 0 0 1-3-3v3z" clip-rule="evenodd"/><rect width="13" height="6" x="53" y="42" fill="#A8C7FA" rx="2"/><path stroke="#A8C7FA" stroke-linecap="round" stroke-width="2" d="M54 51h13a2 2 0 0 0 2-2v-4a4 4 0 0 1 4-4h29a4 4 0 0 1 4 4v4a2 2 0 0 0 2 2h31"/><rect width="13" height="6" x="144" y="42" fill="#1EA446" rx="2"/><path stroke="#1EA446" stroke-linecap="round" stroke-width="2" d="M145 51h80"/><rect width="31" height="3" x="72" y="44" fill="#1B6EF3" rx="1.5"/><rect width="30" height="3" x="109" y="44" fill="#1B6EF3" rx="1.5"/><rect width="1" height="7" x="141" y="42" fill="#1B6EF3" rx=".5"/><rect width="30" height="3" x="159" y="44" fill="#1B6EF3" rx="1.5"/><rect width="1" height="7" x="191" y="42" fill="#1B6EF3" rx=".5"/><rect width="30" height="3" x="194" y="44" fill="#1B6EF3" rx="1.5"/><rect width="1" height="7" x="226" y="42" fill="#1B6EF3" rx=".5"/></g><defs><linearGradient id="b" x1="9.074" x2="72.077" y1="0" y2="177.007" gradientUnits="userSpaceOnUse"><stop stop-color="#0842A0"/><stop offset="1" stop-color="#0F5223"/></linearGradient><linearGradient id="c" x1="140" x2="140" y1="74.588" y2="103" gradientUnits="userSpaceOnUse"><stop stop-color="#fff"/><stop offset="1" stop-color="#ECF3FE"/></linearGradient><linearGradient id="d" x1="140" x2="140" y1="80" y2="103" gradientUnits="userSpaceOnUse"><stop stop-color="#041E49"/><stop offset="1" stop-color="#062E6F"/></linearGradient><clipPath id="a"><rect width="280" height="103" fill="#fff" rx="8"/></clipPath></defs></svg>