<svg id="card_extension_off" xmlns="http://www.w3.org/2000/svg" width="24" height="24" fill="none" viewBox="0 0 24 24">
  <g clip-path="url(#a)">
    <path fill="var(--cros-sys-on_primary_container)" d="M5.767 20.158c-.535 0-.993-.183-1.375-.55a1.915 1.915 0 0 1-.55-1.375v-3.758a2.395 2.395 0 0 0 1.627-.665c.458-.427.687-.954.687-1.58 0-.627-.229-1.154-.687-1.582-.459-.428-1-.65-1.627-.665V6.225c0-.275.046-.527.137-.756a2.43 2.43 0 0 1 .413-.619L19.15 19.608a2.43 2.43 0 0 1-.619.413c-.229.091-.481.137-.756.137h-3.758a2.395 2.395 0 0 0-.665-1.627 2.078 2.078 0 0 0-1.581-.687c-.627 0-1.154.229-1.581.687-.428.459-.65 1-.665 1.627H5.767ZM19.7 17.042 6.958 4.3h2.407c.045-.657.297-1.2.756-1.627a2.29 2.29 0 0 1 1.65-.665 2.29 2.29 0 0 1 1.65.665c.458.428.71.97.756 1.627h3.598c.535 0 .985.191 1.352.573.382.367.573.817.573 1.352v3.598c.657.046 1.2.298 1.627.756a2.29 2.29 0 0 1 .665 1.65 2.29 2.29 0 0 1-.665 1.65c-.428.459-.97.71-1.627.756v2.407Zm-.619 4.537L2.421 4.92l1.306-1.284 16.638 16.638-1.284 1.306Z"/>
  </g>
  <defs>
    <clipPath id="a">
      <path fill="var(--cros-sys-primary_container)" d="M0 0h24v24H0z"/>
    </clipPath>
  </defs>
</svg>
