<svg id="card_chrome_product" xmlns="http://www.w3.org/2000/svg" width="24" height="24" viewBox="0 0 24 24">
  <g clip-path="url(#a)">
    <path fill="var(--cros-sys-on_primary_container)" d="M8.37917 12.0458c0 1.0084.35139 1.8639 1.05416 2.5667.70277.7028 1.55837 1.0542 2.56667 1.0542 1.0083 0 1.8639-.3514 2.5667-1.0542.7027-.7028 1.0541-1.5583 1.0541-2.5667 0-1.0083-.3514-1.8639-1.0541-2.56663C13.8639 8.77639 13.0083 8.425 12 8.425s-1.8639.35139-2.56667 1.05417c-.70277.70273-1.05416 1.55833-1.05416 2.56663ZM12 17.4771c.1833 0 .3667-.0077.55-.0229.1986-.0153.3896-.0459.5729-.0917l-2.2916 3.9187c-2.33755-.2597-4.28547-1.268-5.8438-3.025-1.54306-1.7569-2.31458-3.827-2.31458-6.2104 0-.6722.06875-1.3291.20625-1.9708.15277-.64167.36666-1.26042.64166-1.85625L7.325 14.75c.45833.8403 1.1 1.5049 1.925 1.9937.8403.4889 1.7569.7334 2.75.7334Zm0-10.86252c-1.2069 0-2.27639.35139-3.20833 1.05417-.93195.70278-1.57361 1.60417-1.925 2.70415L4.575 6.43125C5.43056 5.28542 6.5 4.38403 7.78333 3.72708 9.08194 3.05486 10.4875 2.71875 12 2.71875c1.5431 0 2.9715.35139 4.2854 1.05417 1.3292.70277 2.4215 1.65 3.2771 2.84166H12ZM20.5708 8.425c.2598.58055.4507 1.17639.573 1.7875.1222.5958.1833 1.2069.1833 1.8333 0 2.4598-.8021 4.5528-2.4063 6.2792-1.5889 1.7111-3.5902 2.7042-6.0041 2.9792L16.675 14.75c.2292-.3972.4125-.825.55-1.2833.1375-.4584.2063-.932.2063-1.4209 0-.6875-.1299-1.3368-.3896-1.9479-.2445-.62637-.5806-1.18401-1.0084-1.6729h4.5375Z"/>
  </g>
  <defs>
    <clipPath id="a">
      <path fill="var(--cros-sys-primary_container)" d="M0 0h24v24H0z"/>
    </clipPath>
  </defs>
</svg>
