<svg id="card_settings" xmlns="http://www.w3.org/2000/svg" width="24" height="24" fill="none" viewBox="0 0 24 24">
  <g clip-path="url(#a)">
    <path fill="var(--cros-sys-on_primary_container)" d="m9.708 21.167-.458-2.82a10.169 10.169 0 0 1-.71-.343 4.867 4.867 0 0 1-.642-.458l-2.681 1.031-2.315-3.987 2.223-1.81-.046-.367V11.61c.015-.137.03-.267.046-.39L2.902 9.41l2.315-3.987 2.68 1.031c.215-.168.429-.313.643-.435.229-.138.466-.252.71-.344l.458-2.842h4.584l.458 2.842c.244.092.481.206.71.344.23.122.443.267.642.435l2.681-1.031 2.315 3.987-2.223 1.81c.015.123.023.253.023.39.015.123.023.253.023.39s-.008.275-.023.412c0 .123-.015.245-.046.367l2.246 1.81-2.315 3.988-2.68-1.031a6.42 6.42 0 0 1-.666.458 7.21 7.21 0 0 1-.687.344l-.458 2.819H9.708ZM12 15.254c.901 0 1.665-.313 2.292-.94A3.156 3.156 0 0 0 15.254 12c0-.901-.32-1.665-.962-2.292A3.081 3.081 0 0 0 12 8.746c-.901 0-1.673.32-2.315.962-.626.627-.94 1.39-.94 2.292 0 .901.314 1.673.94 2.315.642.626 1.414.94 2.315.94Z"/>
  </g>
  <defs>
    <clipPath id="a">
      <path fill="var(--cros-sys-primary_container)" d="M0 0h24v24H0z"/>
    </clipPath>
  </defs>
</svg>
