<svg id="card_settings" xmlns="http://www.w3.org/2000/svg" width="24" height="24" fill="none" viewBox="0 0 24 24">
  <g clip-path="url(#a)">
    <path fill="var(--cros-sys-primary)" d="M9.70833 21.1667 9.25 18.3479c-.24444-.1069-.48125-.2215-.71042-.3437-.22916-.1375-.44305-.2903-.64166-.4584l-2.68125 1.0313-2.31459-3.9875L5.125 12.7792c-.01528-.1223-.03056-.2445-.04583-.3667v-.8021c.01527-.1375.03055-.2673.04583-.3896L2.90208 9.41042l2.31459-3.9875 2.68125 1.03125c.21389-.16806.42777-.3132.64166-.43542.22917-.1375.46598-.25208.71042-.34375l.45833-2.84167h4.58337L14.75 5.675c.2444.09167.4813.20625.7104.34375.2292.12222.4431.26736.6417.43542l2.6812-1.03125 2.3146 3.9875-2.2229 1.81038c.0153.1223.0229.2521.0229.3896.0153.1222.0229.2521.0229.3896s-.0076.275-.0229.4125c0 .1222-.0153.2444-.0458.3667l2.2458 1.8104-2.3146 3.9875-2.6812-1.0313c-.2139.1681-.4354.3209-.6646.4584-.2139.1222-.4431.2368-.6875.3437l-.4583 2.8188H9.70833Zm1.69587-1.9938h1.1916l.3667-2.3375c.5347-.1069 1.0313-.2903 1.4896-.55.4736-.275.8861-.6187 1.2375-1.0312l2.2229.8479.5958-1.0313-1.8562-1.4896c.0917-.2444.1604-.4965.2062-.7562.0459-.275.0688-.55.0688-.825 0-.275-.0229-.5424-.0688-.8021-.0458-.275-.1145-.5347-.2062-.7792l1.8562-1.48953-.5958-1.03125-2.2229.84791c-.3514-.4125-.7639-.74861-1.2375-1.00833-.4583-.275-.9549-.46597-1.4896-.57292l-.3667-2.3375h-1.1916l-.3667 2.3375c-.5347.10695-1.03889.29792-1.5125.57292-.45833.25972-.87083.59583-1.2375 1.00833l-2.2-.84791-.59583 1.03125L7.325 10.4187c-.09167.2445-.16042.4966-.20625.7563-.04583.2597-.06875.5347-.06875.825 0 .275.02292.55.06875.825.04583.2597.11458.5118.20625.7562l-1.83333 1.4896.59583 1.0313 2.2-.8479c.36667.4125.77917.7562 1.2375 1.0312.47361.2597.9778.4431 1.5125.55l.3667 2.3375ZM12 15.2542c.9014 0 1.6653-.3132 2.2917-.9396.6416-.6417.9625-1.4132.9625-2.3146s-.3209-1.6653-.9625-2.29167c-.6264-.64166-1.3903-.9625-2.2917-.9625s-1.6729.32084-2.31458.9625C9.05903 10.3347 8.74583 11.0986 8.74583 12s.3132 1.6729.93959 2.3146c.64168.6264 1.41318.9396 2.31458.9396Z"/>
  </g>
  <defs>
    <clipPath id="a">
      <path fill="var(--cros-sys-app_base)" d="M0 0h24v24H0z"/>
    </clipPath>
  </defs>
</svg>
