<svg id="extension_off_32" xmlns="http://www.w3.org/2000/svg" width="32" height="32" fill="none" viewBox="0 0 32 32">
  <g clip-path="url(#a)">
    <path fill="var(--cros-sys-primary)" d="M6.43333 28.2333c-.73333 0-1.36666-.2555-1.9-.7666-.51111-.5334-.76666-1.1667-.76666-1.9V20.1c.97777-.0444 1.82222-.3889 2.53333-1.0333.73333-.6445 1.1-1.4556 1.1-2.4334 0-.9777-.36667-1.7889-1.1-2.4333-.71111-.6444-1.55556-.9889-2.53333-1.0333V7.7c0-.37778.06666-.72222.2-1.03333.13333-.33334.32222-.62223.56666-.86667L26.2 27.4667c-.2444.2444-.5333.4333-.8667.5666-.3111.1334-.6555.2-1.0333.2h-5.4667c-.0444-.9777-.3889-1.8222-1.0333-2.5333-.6444-.7333-1.4556-1.1-2.4333-1.1-.9778 0-1.7889.3667-2.4334 1.1-.6444.7111-.9889 1.5556-1.0333 2.5333H6.43333Zm20.53337-5L8.76667 5.03333h3.00003c.1333-.95555.5333-1.74444 1.2-2.36666C13.6333 2.02222 14.4444 1.7 15.4 1.7c.9333 0 1.7333.32222 2.4.96667.6889.62222 1.1 1.41111 1.2333 2.36666H24.3c.7333 0 1.3556.26667 1.8667.8.5333.51111.8 1.13334.8 1.86667v5.2667c.9555.1333 1.7444.5444 2.3666 1.2333.6223.6889.9334 1.5111.9334 2.4667 0 .9333-.3111 1.7333-.9334 2.4-.6222.6666-1.4111 1.0666-2.3666 1.2v2.9666ZM26.9 30.4 1.6 5.1l1.8-1.8 25.3 25.3-1.8 1.8Z"/>
  </g>
  <defs>
    <clipPath id="a">
      <path fill="var(--cros-sys-app_base)" d="M0 0h32v32H0z"/>
    </clipPath>
  </defs>
</svg>
