<svg xmlns="http://www.w3.org/2000/svg" width="20" height="20" fill="none" viewBox="0 0 20 20">
  <g clip-path="url(#a)">
    <path fill="#000" d="M4.5 17.1667c-.45833 0-.85417-.1598-1.1875-.4792-.31944-.3333-.47917-.7292-.47917-1.1875v-3.5833c.51389-.0278.95139-.2223 1.3125-.5834.36111-.375.54167-.8194.54167-1.3333 0-.51389-.18056-.95139-.54167-1.3125-.36111-.375-.79861-.57639-1.3125-.60417V4.5c0-.23611.04167-.45139.125-.64583.08334-.20834.20139-.38889.35417-.54167l1.25 1.25v2.27083c.58333.30556 1.03472.74306 1.35417 1.3125.33333.56945.5 1.1875.5 1.85417 0 .6806-.16667 1.3056-.5 1.875-.31945.5694-.77084 1.0069-1.35417 1.3125v2.25h2.25c.31944-.5833.76389-1.0347 1.33333-1.3542.56945-.3333 1.1875-.5 1.85417-.5.6667 0 1.2847.1667 1.8542.5.5694.3195 1.0139.7709 1.3333 1.3542h2.25l1.25 1.25c-.1528.1528-.3333.2708-.5417.3542-.1944.0833-.4097.125-.6458.125h-3.5833c-.0278-.5139-.2292-.9514-.6042-1.3125-.3611-.3611-.7986-.5417-1.3125-.5417-.51389 0-.95833.1806-1.33333.5417-.36111.3611-.55556.7986-.58334 1.3125H4.5Zm12.6667-2.2917-1.7292-1.7292V10.5h1.5417c.125 0 .2361-.0486.3333-.1458.1111-.0973.1667-.2153.1667-.3542 0-.13889-.0556-.25694-.1667-.35417-.0972-.09722-.2083-.14583-.3333-.14583h-1.5417V4.5625H10.5V3.02083c0-.125-.0486-.23611-.1458-.33333-.0973-.11111-.2153-.16667-.3542-.16667-.13889 0-.25694.05556-.35417.16667-.09722.09722-.14583.20833-.14583.33333V4.5625H6.85417L5.125 2.83333h2.72917c.04166-.58333.26389-1.06944.66666-1.45833C8.9375.98611 9.43056.791665 10 .791665c.5694 0 1.0556.194445 1.4583.583335.4167.38889.6459.875.6875 1.45833H15.5c.4583 0 .8472.16667 1.1667.5.3333.31945.5.70834.5 1.16667v3.35417c.5833.04166 1.0694.27083 1.4583.6875.3889.40277.5833.88889.5833 1.45833 0 .5694-.1944 1.0625-.5833 1.4792-.3889.4027-.875.625-1.4583.6666v2.7292Zm-.9792 3.4583L1.66667 3.8125l1.10416-1.10417L17.2917 17.2292l-1.1042 1.1041Z"/>
  </g>
  <defs>
    <clipPath id="a">
      <path fill="#fff" d="M0 0h20v20H0z"/>
    </clipPath>
  </defs>
</svg>
