<svg id="finished_32" xmlns="http://www.w3.org/2000/svg" width="32" height="32" viewBox="0 0 32 32">
  <path fill="var(--cros-sys-positive)" fill-rule="evenodd" d="M30.3996 16.0001c0 7.9529-6.4471 14.4-14.4 14.4-7.95289 0-14.39999-6.4471-14.39999-14.4 0-7.9529 6.4471-14.4 14.39999-14.4 7.9529 0 14.4 6.4471 14.4 14.4Zm-7.7272-4.8728c-.7029-.7029-1.8426-.7029-2.5456 0l-5.9272 5.9272-2.3272-2.3272c-.7029-.7029-1.8426-.7029-2.54558 0-.70295.7029-.70295 1.8426 0 2.5456l3.59998 3.6c.703.7029 1.8427.7029 2.5456 0l7.2-7.2c.7029-.703.7029-1.8427 0-2.5456Z" clip-rule="evenodd"/>
</svg>
