<svg xmlns="http://www.w3.org/2000/svg" width="32" height="32"><path fill="#4285F4" d="M31.36 16.36c0-1.17-.11-2.29-.31-3.36H16v6.24h8.72c-.36 2.04-1.49 3.77-3.21 4.94v3.94h5.08c3.02-2.78 4.77-6.89 4.77-11.76z"/><path fill="#34A853" d="M16 32c4.32 0 7.94-1.43 10.59-3.87l-5.08-3.94c-1.45.98-3.32 1.56-5.51 1.56-4.2 0-7.76-2.83-9.05-6.64H1.71v4.07C4.35 28.41 9.75 32 16 32z"/><path fill="#FBBC05" d="M6.95 19.11c-.33-.98-.52-2.03-.52-3.11s.19-2.13.52-3.11V8.82H1.71C.63 10.98 0 13.42 0 16s.63 5.02 1.71 7.18l5.24-4.07z"/><path fill="#EA4335" d="M16 6.25c2.38 0 4.51.82 6.19 2.42v.01l4.51-4.51C23.93 1.59 20.32 0 16 0 9.75 0 4.35 3.59 1.71 8.82l5.24 4.07C8.24 9.08 11.8 6.25 16 6.25z"/><path fill="none" d="M0 0h32v32H0z"/></svg>