<svg xmlns="http://www.w3.org/2000/svg" width="42" height="42" fill="none" viewBox="0 0 42 42"><mask id="b" width="42" height="42" x="0" y="0" maskUnits="userSpaceOnUse" style="mask-type:alpha"><rect width="40.6" height="40.6" x=".699" y=".7" fill="#FCC934" rx="11.503"/></mask><g filter="url(#a)" mask="url(#b)"><rect width="40.6" height="40.6" x=".699" y=".7" fill="#FCC934" rx="11.503"/></g><path stroke="#fff" stroke-width="1.4" d="M15.615 7H7v8.615M26.385 7H35v8.615M15.615 35H7v-8.615M26.385 35H35v-8.615"/><path fill="url(#c)" fill-rule="evenodd" d="M23.698 15.344a.975.975 0 0 0-1.098-.458 4.199 4.199 0 0 1-5.016-2.406c-.182-.433-.69-.69-1.084-.436a9.13 9.13 0 1 0 12.724 12.433c.225-.37.016-.835-.366-1.038a4.194 4.194 0 0 1-2.08-4.806c.142-.523-.2-1.16-.716-1.329a4.207 4.207 0 0 1-2.364-1.96Z" clip-rule="evenodd"/><circle cx="16.636" cy="17.206" r="1.241" fill="#996322"/><circle cx="21.6" cy="19.689" r="1.241" fill="#996322"/><path fill="#996322" fill-rule="evenodd" d="M26.75 18.744a1.241 1.241 0 1 0-.018 1.904 4.21 4.21 0 0 1 .018-1.904Z" clip-rule="evenodd"/><circle cx="16.636" cy="22.171" r="1.241" fill="#996322"/><circle cx="22.841" cy="25.274" r="1.241" fill="#996322"/><mask id="e" width="23" height="6" x="10" y="29" maskUnits="userSpaceOnUse" style="mask-type:alpha"><path fill="#D9D9D9" d="M10.5 29.4h21.7V35H10.5z"/></mask><g filter="url(#d)" mask="url(#e)"><ellipse cx="21.349" cy="29.633" fill="#D3A401" rx="7.233" ry="2.567"/></g><defs><filter id="a" width="67.667" height="67.667" x="-12.834" y="-12.833" color-interpolation-filters="sRGB" filterUnits="userSpaceOnUse"><feFlood flood-opacity="0" result="BackgroundImageFix"/><feBlend in="SourceGraphic" in2="BackgroundImageFix" result="shape"/><feGaussianBlur result="effect1_foregroundBlur_1540_14655" stdDeviation="6.767"/></filter><filter id="d" width="20.067" height="10.733" x="11.316" y="24.267" color-interpolation-filters="sRGB" filterUnits="userSpaceOnUse"><feFlood flood-opacity="0" result="BackgroundImageFix"/><feBlend in="SourceGraphic" in2="BackgroundImageFix" result="shape"/><feGaussianBlur result="effect1_foregroundBlur_1540_14655" stdDeviation="1.4"/></filter><linearGradient id="c" x1="20.706" x2="20.706" y1="11.665" y2="28.864" gradientUnits="userSpaceOnUse"><stop offset=".64" stop-color="#BD9301"/><stop offset="1" stop-color="#977601"/></linearGradient></defs></svg>