<svg xmlns="http://www.w3.org/2000/svg" width="500" height="167" fill="none" viewBox="0 0 500 167"><g clip-path="url(#a)" filter="url(#b)"><rect width="480" height="215" x="10" y="10" fill="#282828" rx="6"/><path fill="#8E918F" d="M40.5 83c-.417 0-.77-.146-1.063-.438A1.446 1.446 0 0 1 39 81.5v-11c0-.417.146-.77.438-1.063A1.446 1.446 0 0 1 40.5 69h11c.417 0 .77.146 1.063.438.291.291.437.645.437 1.062v11c0 .417-.146.77-.438 1.063A1.446 1.446 0 0 1 51.5 83h-11Zm0-1.5h11v-11h-11v11Z"/><path fill="#E3E3E3" fill-opacity=".38" d="M466 82c-.417 0-.771-.146-1.062-.438a1.446 1.446 0 0 1-.438-1.062c0-.417.146-.77.438-1.063A1.444 1.444 0 0 1 466 79c.417 0 .771.146 1.063.438.291.291.437.645.437 1.062 0 .417-.146.77-.437 1.063A1.448 1.448 0 0 1 466 82Zm0-4.5c-.417 0-.771-.146-1.062-.438A1.446 1.446 0 0 1 464.5 76c0-.417.146-.77.438-1.063A1.444 1.444 0 0 1 466 74.5c.417 0 .771.146 1.063.438.291.291.437.645.437 1.062 0 .417-.146.77-.437 1.063A1.448 1.448 0 0 1 466 77.5Zm0-4.5c-.417 0-.771-.146-1.062-.438a1.446 1.446 0 0 1-.438-1.062c0-.417.146-.77.438-1.063A1.444 1.444 0 0 1 466 70c.417 0 .771.146 1.063.438.291.291.437.645.437 1.062 0 .417-.146.77-.437 1.063A1.448 1.448 0 0 1 466 73ZM74.209 71.983v7.864h-.994v-6.623l-2.004.73v-.896l2.842-1.075h.156Zm6.187 0v7.864h-.994v-6.623l-2.003.73v-.896l2.841-1.075h.156Zm2.986 7.337c0-.168.052-.31.156-.424.108-.118.261-.177.462-.177.2 0 .353.059.457.177a.597.597 0 0 1 .16.424.59.59 0 0 1-.16.42c-.104.114-.256.171-.457.171-.2 0-.355-.057-.462-.172a.601.601 0 0 1-.156-.419Zm.006-4.742c0-.169.052-.31.155-.425.108-.118.262-.177.462-.177s.353.06.457.177a.597.597 0 0 1 .161.425.59.59 0 0 1-.161.419c-.104.114-.256.171-.457.171-.2 0-.354-.057-.462-.171a.601.601 0 0 1-.155-.42Zm4.044.87h.71c.346 0 .633-.057.859-.172.229-.118.399-.278.51-.478a1.38 1.38 0 0 0 .172-.688c0-.3-.05-.553-.15-.757a1.011 1.011 0 0 0-.452-.462c-.2-.104-.455-.156-.763-.156-.279 0-.526.056-.74.167a1.22 1.22 0 0 0-.5.462c-.118.2-.178.437-.178.709h-.993c0-.398.1-.76.3-1.085.201-.326.482-.586.844-.779.365-.193.787-.29 1.267-.29.473 0 .887.084 1.241.252.355.165.63.412.827.742.197.325.296.732.296 1.219 0 .197-.047.408-.14.634-.09.222-.231.43-.424.623-.19.193-.437.352-.742.478-.304.121-.67.182-1.095.182h-.849v-.601Zm0 .816v-.596h.849c.497 0 .91.06 1.235.177.326.118.582.276.768.473.19.197.322.413.398.65a2.38 2.38 0 0 1-.07 1.67 1.98 1.98 0 0 1-.521.72 2.226 2.226 0 0 1-.784.446c-.301.1-.629.15-.983.15-.34 0-.66-.048-.962-.145a2.488 2.488 0 0 1-.79-.419 1.962 1.962 0 0 1-.536-.682 2.145 2.145 0 0 1-.194-.93h.994c0 .273.059.511.177.715.122.204.294.364.516.478.225.111.49.167.795.167.304 0 .566-.052.784-.156a1.13 1.13 0 0 0 .51-.483c.122-.215.183-.486.183-.811 0-.326-.068-.593-.204-.8a1.197 1.197 0 0 0-.58-.468 2.25 2.25 0 0 0-.876-.156h-.709Zm10.023.95v.817h-5.65v-.585l3.501-5.42h.811l-.87 1.569-2.315 3.62h4.523Zm-1.09-5.188v7.82h-.994v-7.82h.993Z"/><rect width="64" height="10" x="236" y="80.847" fill="#E3E3E3" fill-opacity=".38" rx="3" transform="rotate(180 236 80.847)"/><rect width="21" height="10" x="246" y="70.847" fill="#E3E3E3" fill-opacity=".38" rx="3"/><rect width="79" height="10" x="277" y="70.847" fill="#1F1F1F" fill-opacity=".18" rx="3"/><mask id="c" width="14" height="14" x="150" y="69" maskUnits="userSpaceOnUse" style="mask-type:luminance"><path fill="#fff" fill-rule="evenodd" d="M163.667 76A6.67 6.67 0 0 0 157 69.333 6.67 6.67 0 0 0 150.333 76 6.67 6.67 0 0 0 157 82.667 6.67 6.67 0 0 0 163.667 76Zm-9.067 0h-2.933a5.335 5.335 0 0 1 6.485-5.209c-.323.25-.542.664-.542 1.315-1.458 0-2.095.909-1.913 2.728h2.499c0 1.222.712 1.833 2.137 1.833.889 0 1.553-.33 1.991-.99a5.335 5.335 0 0 1-6.999 5.388v-1.647h2.304c.252-2.264-.758-3.404-3.029-3.418Z" clip-rule="evenodd"/></mask><g mask="url(#c)"><path fill="#5F6368" d="M149 68h16v16h-16z"/></g><rect width="42" height="10" x="81" y="39" fill="#E3E3E3" fill-opacity=".38" rx="3" transform="rotate(180 81 39)"/><rect width="42" height="10" x="127" y="39" fill="#E3E3E3" fill-opacity=".38" rx="3" transform="rotate(180 127 39)"/><rect width="24" height="10" x="155" y="39" fill="#E3E3E3" fill-opacity=".38" rx="3" transform="rotate(180 155 39)"/><g clip-path="url(#d)"><path fill="#8E918F" d="M40.5 119c-.417 0-.77-.146-1.063-.438A1.444 1.444 0 0 1 39 117.5v-11c0-.417.146-.771.438-1.063A1.449 1.449 0 0 1 40.5 105h11c.417 0 .77.146 1.063.437.291.292.437.646.437 1.063v11c0 .417-.146.771-.438 1.062A1.446 1.446 0 0 1 51.5 119h-11Zm0-1.5h11v-11h-11v11Z"/></g><path fill="#E3E3E3" fill-opacity=".38" d="M466 118c-.417 0-.771-.146-1.062-.438a1.443 1.443 0 0 1-.438-1.062c0-.417.146-.771.438-1.063A1.446 1.446 0 0 1 466 115c.417 0 .771.146 1.063.437.291.292.437.646.437 1.063 0 .417-.146.771-.437 1.062A1.447 1.447 0 0 1 466 118Zm0-4.5c-.417 0-.771-.146-1.062-.438A1.443 1.443 0 0 1 464.5 112c0-.417.146-.771.438-1.063A1.446 1.446 0 0 1 466 110.5c.417 0 .771.146 1.063.437.291.292.437.646.437 1.063 0 .417-.146.771-.437 1.062a1.447 1.447 0 0 1-1.063.438Zm0-4.5c-.417 0-.771-.146-1.062-.438a1.443 1.443 0 0 1-.438-1.062c0-.417.146-.771.438-1.063A1.446 1.446 0 0 1 466 106c.417 0 .771.146 1.063.437.291.292.437.646.437 1.063 0 .417-.146.771-.437 1.062A1.447 1.447 0 0 1 466 109Zm-391.791-1.017v7.864h-.994v-6.623l-2.004.731v-.897l2.842-1.075h.156Zm6.187 0v7.864h-.994v-6.623l-2.003.731v-.897l2.841-1.075h.156Zm2.986 7.337c0-.168.052-.309.156-.424.108-.118.261-.177.462-.177.2 0 .353.059.457.177a.597.597 0 0 1 .16.424.588.588 0 0 1-.16.419c-.104.115-.256.172-.457.172-.2 0-.355-.057-.462-.172a.6.6 0 0 1-.156-.419Zm.006-4.742a.61.61 0 0 1 .155-.425c.108-.118.262-.177.462-.177s.353.059.457.177a.598.598 0 0 1 .161.425.592.592 0 0 1-.161.419c-.104.114-.256.171-.457.171-.2 0-.354-.057-.462-.171a.603.603 0 0 1-.155-.419Zm7.503.735v1.193c0 .641-.057 1.182-.172 1.622-.114.44-.28.795-.494 1.063a1.88 1.88 0 0 1-.779.586c-.3.118-.64.177-1.02.177-.301 0-.579-.037-.833-.113a1.968 1.968 0 0 1-.687-.36 2.172 2.172 0 0 1-.516-.655 3.508 3.508 0 0 1-.328-.977 7.053 7.053 0 0 1-.112-1.343v-1.193c0-.64.057-1.178.172-1.611.118-.433.284-.78.5-1.042.214-.265.472-.455.772-.569a2.87 2.87 0 0 1 1.021-.172c.304 0 .584.038.838.113a1.886 1.886 0 0 1 1.198.983c.143.261.252.582.327.961.075.38.113.825.113 1.337Zm-.999 1.354v-1.52c0-.351-.021-.659-.064-.924a2.895 2.895 0 0 0-.178-.687 1.356 1.356 0 0 0-.3-.462 1.068 1.068 0 0 0-.414-.258 1.492 1.492 0 0 0-.521-.086c-.236 0-.446.045-.628.134a1.13 1.13 0 0 0-.462.414 2.23 2.23 0 0 0-.28.746 5.585 5.585 0 0 0-.096 1.123v1.52c0 .351.02.661.059.929.043.269.105.501.188.698.082.194.182.353.3.478.119.126.255.219.409.28.157.057.331.086.52.086.244 0 .457-.047.64-.14a1.15 1.15 0 0 0 .457-.435c.125-.201.218-.457.279-.768.06-.315.091-.691.091-1.128Zm3.534-.542-.795-.205.392-3.894h4.013v.919h-3.17l-.236 2.127c.144-.083.324-.16.543-.231a2.47 2.47 0 0 1 .763-.108c.361 0 .685.063.972.188.286.122.53.298.73.527.204.229.36.505.468.827.107.322.16.682.16 1.079 0 .376-.051.722-.155 1.037-.1.315-.253.591-.457.827a2.054 2.054 0 0 1-.773.543c-.308.129-.671.193-1.09.193-.316 0-.615-.043-.897-.129a2.3 2.3 0 0 1-.752-.403 2.178 2.178 0 0 1-.537-.676 2.722 2.722 0 0 1-.258-.956h.945c.043.293.129.54.258.741.129.2.297.352.505.456.211.101.456.151.735.151.237 0 .446-.041.629-.124.183-.082.337-.2.462-.354.125-.154.22-.341.284-.559.069-.218.103-.464.103-.736 0-.247-.034-.476-.103-.687a1.562 1.562 0 0 0-.306-.553 1.338 1.338 0 0 0-.488-.366 1.577 1.577 0 0 0-.666-.134c-.333 0-.586.045-.758.134-.168.09-.342.212-.52.366Z"/><rect width="47" height="10" x="172" y="106.847" fill="#E3E3E3" fill-opacity=".38" rx="3"/><rect width="29" height="10" fill="#E3E3E3" fill-opacity=".38" rx="3" transform="matrix(1 0 0 -1 229 116.847)"/><rect width="53" height="10" x="268" y="106.847" fill="#1F1F1F" fill-opacity=".18" rx="3"/><rect width="14" height="14" x="150" y="104" fill="#1A73E8" rx="2"/><path fill="#fff" d="M152.5 113.944V107.5h4.086v1.152h-2.871v1.494h2.583v1.152h-2.583v1.494h2.871v1.152H152.5Zm4.626 0 1.593-2.331-1.584-2.259h1.395l.9 1.35.846-1.35h1.44l-1.611 2.259 1.611 2.331h-1.395l-.909-1.377-.891 1.377h-1.395Z"/><g clip-path="url(#e)"><path fill="#8E918F" d="M40.5 155c-.417 0-.77-.146-1.063-.438A1.444 1.444 0 0 1 39 153.5v-11c0-.417.146-.771.438-1.063A1.449 1.449 0 0 1 40.5 141h11c.417 0 .77.146 1.063.437.291.292.437.646.437 1.063v11c0 .417-.146.771-.438 1.062A1.446 1.446 0 0 1 51.5 155h-11Zm0-1.5h11v-11h-11v11Z"/></g><path fill="#E3E3E3" fill-opacity=".38" d="M466 154c-.417 0-.771-.146-1.062-.438a1.443 1.443 0 0 1-.438-1.062c0-.417.146-.771.438-1.063A1.446 1.446 0 0 1 466 151c.417 0 .771.146 1.063.437.291.292.437.646.437 1.063 0 .417-.146.771-.437 1.062A1.447 1.447 0 0 1 466 154Zm0-4.5c-.417 0-.771-.146-1.062-.438A1.443 1.443 0 0 1 464.5 148c0-.417.146-.771.438-1.063A1.446 1.446 0 0 1 466 146.5c.417 0 .771.146 1.063.437.291.292.437.646.437 1.063 0 .417-.146.771-.437 1.062a1.447 1.447 0 0 1-1.063.438Zm0-4.5c-.417 0-.771-.146-1.062-.438a1.443 1.443 0 0 1-.438-1.062c0-.417.146-.771.438-1.063A1.446 1.446 0 0 1 466 142c.417 0 .771.146 1.063.437.291.292.437.646.437 1.063 0 .417-.146.771-.437 1.062A1.447 1.447 0 0 1 466 145Zm-391.791-1.017v7.864h-.994v-6.623l-2.004.731v-.897l2.842-1.075h.156Zm7.83 3.33v1.193c0 .641-.057 1.182-.171 1.622-.115.44-.28.795-.494 1.063a1.88 1.88 0 0 1-.78.586c-.3.118-.64.177-1.02.177-.3 0-.578-.037-.832-.113a1.969 1.969 0 0 1-.688-.36 2.172 2.172 0 0 1-.515-.655 3.505 3.505 0 0 1-.328-.977 7.053 7.053 0 0 1-.113-1.343v-1.193c0-.64.057-1.178.172-1.611.118-.433.285-.78.5-1.042.214-.265.472-.455.773-.569a2.868 2.868 0 0 1 1.02-.172c.305 0 .584.038.838.113.258.071.487.188.688.349.2.157.37.369.51.634.143.261.253.582.328.961.075.38.113.825.113 1.337Zm-.999 1.354v-1.52c0-.351-.021-.659-.064-.924a2.895 2.895 0 0 0-.177-.687 1.354 1.354 0 0 0-.301-.462 1.068 1.068 0 0 0-.413-.258 1.493 1.493 0 0 0-.521-.086c-.237 0-.446.045-.629.134a1.13 1.13 0 0 0-.462.414 2.23 2.23 0 0 0-.28.746 5.586 5.586 0 0 0-.096 1.123v1.52c0 .351.02.661.06.929.042.269.105.501.187.698.083.194.183.353.301.478.118.126.254.219.408.28.158.057.331.086.521.086.244 0 .457-.047.64-.14a1.15 1.15 0 0 0 .456-.435c.125-.201.218-.457.28-.768.06-.315.09-.691.09-1.128Zm2.342 2.653c0-.168.052-.309.156-.424.108-.118.261-.177.462-.177.2 0 .353.059.457.177a.597.597 0 0 1 .16.424.588.588 0 0 1-.16.419c-.104.115-.256.172-.457.172-.2 0-.355-.057-.462-.172a.6.6 0 0 1-.156-.419Zm.006-4.742a.61.61 0 0 1 .155-.425c.108-.118.262-.177.462-.177s.353.059.457.177a.598.598 0 0 1 .161.425.592.592 0 0 1-.161.419c-.104.114-.256.171-.457.171-.2 0-.354-.057-.462-.171a.603.603 0 0 1-.155-.419Zm7.718 4.452v.817h-5.119v-.715l2.562-2.852c.315-.351.559-.648.73-.891.176-.247.298-.468.366-.661.072-.197.107-.397.107-.602a1.5 1.5 0 0 0-.16-.698 1.213 1.213 0 0 0-.463-.505 1.393 1.393 0 0 0-.74-.188c-.348 0-.638.068-.87.204a1.26 1.26 0 0 0-.517.559 1.9 1.9 0 0 0-.171.827h-.994c0-.44.097-.843.29-1.208.193-.366.48-.656.86-.87.379-.219.846-.328 1.401-.328.494 0 .917.088 1.268.263.35.172.62.415.805.731.19.311.285.676.285 1.095 0 .229-.04.462-.118.699-.075.232-.18.465-.317.698a5.363 5.363 0 0 1-.467.687c-.176.226-.364.448-.564.666l-2.095 2.272h3.921Zm4.877-7.014h.086v.843h-.086c-.526 0-.967.086-1.321.258a2.153 2.153 0 0 0-.844.682 2.797 2.797 0 0 0-.45.956c-.09.354-.135.714-.135 1.079v1.15c0 .347.041.655.123.924.083.265.196.488.339.671.143.183.304.321.483.414.183.093.373.139.57.139.229 0 .433-.043.612-.129.179-.089.33-.213.451-.37.125-.161.22-.351.285-.57.064-.218.096-.458.096-.719 0-.233-.028-.457-.086-.672a1.8 1.8 0 0 0-.263-.58 1.25 1.25 0 0 0-1.074-.553c-.276 0-.534.068-.773.204a1.76 1.76 0 0 0-.586.527 1.42 1.42 0 0 0-.258.703l-.526-.005c.05-.401.143-.743.28-1.026.139-.287.31-.519.515-.698.208-.183.438-.315.693-.398.258-.086.53-.129.816-.129.39 0 .727.074 1.01.221.283.146.516.343.698.59.183.244.317.52.403.827.09.305.134.618.134.94 0 .369-.052.715-.156 1.037-.103.322-.26.605-.467.849a2.109 2.109 0 0 1-.757.569c-.3.136-.65.204-1.047.204-.423 0-.792-.086-1.107-.258a2.365 2.365 0 0 1-.784-.698 3.183 3.183 0 0 1-.467-.967 3.818 3.818 0 0 1-.156-1.079v-.468c0-.551.055-1.092.166-1.622a4.32 4.32 0 0 1 .575-1.439c.276-.43.657-.772 1.144-1.026.487-.254 1.108-.381 1.864-.381Z"/><rect width="47" height="10" x="172" y="142.847" fill="#E3E3E3" fill-opacity=".38" rx="3"/><rect width="29" height="10" fill="#E3E3E3" fill-opacity=".38" rx="3" transform="matrix(1 0 0 -1 229 152.847)"/><rect width="53" height="10" x="268" y="142.847" fill="#1F1F1F" fill-opacity=".18" rx="3"/><g clip-path="url(#f)"><path fill="#4285F4" d="M164.04 147.167c0-.52-.047-1.02-.133-1.5H157v2.84h3.947a3.384 3.384 0 0 1-1.474 2.206v1.847h2.38c1.387-1.28 2.187-3.16 2.187-5.393Z"/><path fill="#34A853" d="M157 154.333c1.98 0 3.64-.653 4.853-1.773l-2.38-1.847c-.653.44-1.486.707-2.473.707-1.907 0-3.527-1.287-4.107-3.02h-2.44v1.893a7.326 7.326 0 0 0 6.547 4.04Z"/><path fill="#FBBC05" d="M152.893 148.393a4.41 4.41 0 0 1-.233-1.393c0-.487.087-.953.233-1.393v-1.894h-2.44c-.5.987-.786 2.1-.786 3.287 0 1.187.286 2.3.786 3.287l1.9-1.48.54-.414Z"/><path fill="#EA4335" d="M157 142.587c1.08 0 2.04.373 2.807 1.093l2.1-2.1c-1.274-1.187-2.927-1.913-4.907-1.913a7.32 7.32 0 0 0-6.547 4.046l2.44 1.894c.58-1.734 2.2-3.02 4.107-3.02Z"/></g><path stroke="#37383A" d="M10 57h480"/></g><defs><clipPath id="a"><path fill="#fff" d="M0 0h500v167H0z"/></clipPath><clipPath id="d"><path fill="#fff" d="M36 102h20v20H36z"/></clipPath><clipPath id="e"><path fill="#fff" d="M36 138h20v20H36z"/></clipPath><clipPath id="f"><path fill="#fff" d="M149 139h16v16h-16z"/></clipPath><filter id="b" width="490" height="225" x="5" y="5" color-interpolation-filters="sRGB" filterUnits="userSpaceOnUse"><feFlood flood-opacity="0" result="BackgroundImageFix"/><feColorMatrix in="SourceAlpha" result="hardAlpha" values="0 0 0 0 0 0 0 0 0 0 0 0 0 0 0 0 0 0 127 0"/><feOffset/><feGaussianBlur stdDeviation="2.5"/><feComposite in2="hardAlpha" operator="out"/><feColorMatrix values="0 0 0 0 0 0 0 0 0 0 0 0 0 0 0 0 0 0 0.15 0"/><feBlend in2="BackgroundImageFix" result="effect1_dropShadow_1540_14760"/><feColorMatrix in="SourceAlpha" result="hardAlpha" values="0 0 0 0 0 0 0 0 0 0 0 0 0 0 0 0 0 0 127 0"/><feOffset/><feGaussianBlur stdDeviation="1"/><feComposite in2="hardAlpha" operator="out"/><feColorMatrix values="0 0 0 0 0 0 0 0 0 0 0 0 0 0 0 0 0 0 0.2 0"/><feBlend in2="effect1_dropShadow_1540_14760" result="effect2_dropShadow_1540_14760"/><feBlend in="SourceGraphic" in2="effect2_dropShadow_1540_14760" result="shape"/></filter></defs></svg>