<svg xmlns="http://www.w3.org/2000/svg" width="43" height="44" fill="none" viewBox="0 0 43 44"><mask id="b" width="42" height="36" x="1" y="2" maskUnits="userSpaceOnUse" style="mask-type:alpha"><rect width="42" height="35" x="1" y="2.8" fill="#146C2E" rx="17.5"/></mask><g filter="url(#a)" mask="url(#b)"><rect width="42" height="35" x="1" y="2.8" fill="#146C2E" rx="17.5"/></g><g filter="url(#c)"><rect width="2.039" height="6.118" x="14.474" y="26.6" fill="#37BE5F" rx="1.02" transform="rotate(45 14.474 26.6)"/><rect width="4.2" height="13.3" x="11.804" y="27.74" fill="#37BE5F" rx="2.1" transform="rotate(45 11.804 27.74)"/><circle cx="22" cy="20.3" r="9.8" stroke="#6DD58C" stroke-width="1.4"/></g><circle cx="16.4" cy="20.3" r="2.1" fill="#292A2D"/><circle cx="22" cy="20.3" r="2.1" fill="#292A2D"/><circle cx="27.6" cy="20.3" r="2.1" fill="#292A2D"/><circle cx="22" cy="20.3" r="7.7" fill="url(#d)"/><circle cx="36.7" cy="13.301" r="1.4" fill="#292A2D"/><circle cx="40.9" cy="13.301" r="1.4" fill="#292A2D"/><circle cx="3.1" cy="25.899" r="1.4" fill="#292A2D"/><circle cx="7.3" cy="25.899" r="1.4" fill="#292A2D"/><defs><filter id="a" width="70" height="63" x="-13" y="-11.2" color-interpolation-filters="sRGB" filterUnits="userSpaceOnUse"><feFlood flood-opacity="0" result="BackgroundImageFix"/><feBlend in="SourceGraphic" in2="BackgroundImageFix" result="shape"/><feGaussianBlur result="effect1_foregroundBlur_1540_14651" stdDeviation="7"/></filter><filter id="c" width="34.831" height="35.044" x=".469" y="8.401" color-interpolation-filters="sRGB" filterUnits="userSpaceOnUse"><feFlood flood-opacity="0" result="BackgroundImageFix"/><feColorMatrix in="SourceAlpha" result="hardAlpha" values="0 0 0 0 0 0 0 0 0 0 0 0 0 0 0 0 0 0 127 0"/><feOffset dy="1.4"/><feGaussianBlur stdDeviation="1.4"/><feComposite in2="hardAlpha" operator="out"/><feColorMatrix values="0 0 0 0 0 0 0 0 0 0 0 0 0 0 0 0 0 0 0.25 0"/><feBlend in2="BackgroundImageFix" result="effect1_dropShadow_1540_14651"/><feBlend in="SourceGraphic" in2="effect1_dropShadow_1540_14651" result="shape"/></filter><linearGradient id="d" x1="16.225" x2="26.492" y1="15.488" y2="25.433" gradientUnits="userSpaceOnUse"><stop stop-color="#37BE5F"/><stop offset=".71" stop-color="#198639" stop-opacity="0"/></linearGradient></defs></svg>