<svg xmlns="http://www.w3.org/2000/svg" width="500" height="167" fill="none" viewBox="0 0 500 167"><g clip-path="url(#a)"><g filter="url(#b)"><g clip-path="url(#c)"><path fill="#D3E3FD" d="M12 12h1240v86H12z"/><path fill="#D3E3FD" d="M12 20a8 8 0 0 1 8-8h1224a8 8 0 0 1 8 8v32H12V20Z"/><path fill="#fff" d="M52 28c0-5.523 4.477-10 10-10h200c5.523 0 10 4.477 10 10v24H52V28Z"/><path fill="#fff" fill-rule="evenodd" d="M52 40v12H40c6.627 0 12-5.373 12-12Zm220.043 0H272v12h12c-6.608-.023-11.957-5.387-11.957-12Z" clip-rule="evenodd"/><mask id="f" width="185" height="34" x="60" y="18" maskUnits="userSpaceOnUse" style="mask-type:alpha"><path fill="url(#d)" d="M0 0h185v34H0z" transform="matrix(-1 0 0 1 245 18)"/></mask><g clip-path="url(#e)" mask="url(#f)"><g clip-path="url(#g)"><path fill="#1F1F1F" fill-opacity=".38" d="M65.25 32c0 .76.27 1.4.81 1.94s1.19.81 1.94.81 1.4-.27 1.94-.81.81-1.19.81-1.94-.27-1.4-.81-1.94-1.19-.81-1.94-.81-1.4.27-1.94.81-.81 1.19-.81 1.94ZM68 36.25c.15 0 .3 0 .44-.02.14-.01.28-.04.42-.07L67.22 39c-1.76-.2-3.24-.95-4.43-2.26C61.6 35.42 61 33.86 61 32.05c0-.49.05-.96.14-1.42.09-.47.23-.91.42-1.33l2.8 4.85c.36.63.86 1.14 1.5 1.52.64.38 1.35.58 2.14.58Zm0-8.4c-.93 0-1.76.27-2.48.82-.72.54-1.23 1.23-1.51 2.07l-1.65-2.84c.64-.86 1.45-1.55 2.42-2.07.98-.53 2.05-.79 3.22-.79 1.17 0 2.22.26 3.19.77.97.5 1.77 1.18 2.42 2.03h-5.6l-.01.01Zm6.41 1.4c.2.43.34.88.44 1.35.1.47.16.95.16 1.45 0 1.81-.59 3.37-1.79 4.67-1.18 1.31-2.64 2.06-4.37 2.27l2.8-4.85c.18-.3.31-.63.4-.98.1-.36.16-.74.16-1.12 0-.55-.1-1.06-.3-1.52-.19-.48-.45-.9-.79-1.28h3.29v.01Z"/></g></g><g clip-path="url(#h)"><path fill="#1F1F1F" fill-opacity=".38" fill-rule="evenodd" d="m252.001 29.058 1.061-1.06 2.942 2.941 2.934-2.934 1.061 1.06L257.064 32l2.935 2.934-1.061 1.06-2.934-2.934-2.942 2.942-1.061-1.06L254.943 32l-2.942-2.942Z" clip-rule="evenodd"/></g><g clip-path="url(#i)"><path fill="#1F1F1F" fill-opacity=".38" d="M298.5 31.25h-3.75V27.5h-1.5v3.75h-3.75v1.5h3.75v3.75h1.5v-3.75h3.75v-1.5Z"/></g><path fill="#fff" d="M12 60a8 8 0 0 1 8-8h1224a8 8 0 0 1 8 8v38H12V60Z"/><g clip-path="url(#j)"><path fill="#1F1F1F" fill-opacity=".38" d="m31.146 75.875 4.083 4.063L34 81.166 27.833 75 34 68.833l1.23 1.23-4.084 4.062h9.02v1.75h-9.02Z"/></g><g clip-path="url(#k)"><path fill="#1F1F1F" fill-opacity=".38" d="M72.854 75.875h-9.02v-1.75h9.02l-4.083-4.063L70 68.834 76.167 75 70 81.167l-1.23-1.23 4.084-4.062Z"/></g><g clip-path="url(#l)"><path fill="#1F1F1F" fill-opacity=".38" d="M105.979 81.167c-1.708 0-3.166-.598-4.375-1.792-1.194-1.208-1.791-2.667-1.791-4.375 0-1.708.597-3.16 1.791-4.354 1.209-1.209 2.667-1.813 4.375-1.813a5.78 5.78 0 0 1 2.584.584 6.203 6.203 0 0 1 2.041 1.541v-2.125h1.584v5.25h-5.25V72.5h2.708a4.38 4.38 0 0 0-3.667-1.938c-1.236 0-2.285.431-3.146 1.292-.861.861-1.291 1.91-1.291 3.146s.43 2.285 1.291 3.146c.861.86 1.91 1.291 3.146 1.291 1.153 0 2.139-.374 2.959-1.124a4.405 4.405 0 0 0 1.416-2.813h1.771c-.125 1.597-.778 2.944-1.958 4.042-1.167 1.083-2.563 1.625-4.188 1.625Z"/></g><path fill="#EDF2FA" d="M132 75c0-9.389 7.611-17 17-17h912c9.39 0 17 7.611 17 17s-7.61 17-17 17H149c-9.389 0-17-7.611-17-17Z"/><path fill="#fff" d="M137 75c0-6.627 5.373-12 12-12s12 5.373 12 12-5.373 12-12 12-12-5.373-12-12Z"/><path fill="#4285F4" d="M154.761 75.136c0-.425-.036-.835-.105-1.227H149v2.318h3.23a2.768 2.768 0 0 1-1.198 1.817v1.508h1.944c1.134-1.045 1.785-2.59 1.785-4.416Z"/><path fill="#34A853" d="M151.033 78.044c-.536.36-1.226.57-2.033.57-1.561 0-2.886-1.054-3.359-2.473h-2.003v1.553A5.998 5.998 0 0 0 149 81c1.619 0 2.983-.532 3.976-1.448l-1.943-1.508Z"/><path fill="#FBBC05" d="M145.455 75c0-.397.066-.78.186-1.14v-1.555h-2.003A5.977 5.977 0 0 0 143 75c0 .97.23 1.885.638 2.695l2.003-1.554a3.61 3.61 0 0 1-.186-1.141Z"/><path fill="#EA4335" d="M149 71.386c.882 0 1.672.304 2.295.898l1.72-1.72C151.975 69.594 150.619 69 149 69a5.999 5.999 0 0 0-5.362 3.305l2.003 1.554c.473-1.42 1.798-2.473 3.359-2.473Z"/><path fill="#E1E3E1" d="M12 99h1240v-1H12z"/><path fill="#F2F2F2" d="M12 98h1240v423H12z"/></g></g><g filter="url(#m)"><path fill="#fff" fill-rule="evenodd" d="M133 57a8 8 0 0 0-8 8v434a8 8 0 0 0 8 8h1121a8 8 0 0 0 8-8V65a8 8 0 0 0-8-8H133Z" clip-rule="evenodd"/></g><rect width="63" height="10" x="177" y="144" fill="#1F1F1F" fill-opacity=".38" rx="3"/><rect width="31" height="10" x="244" y="144" fill="#1F1F1F" fill-opacity=".38" rx="3"/><path fill="#5F6368" fill-rule="evenodd" d="M150.807 150.333h.526l3.327 3.334-.993.993-3.334-3.327v-.526l-.18-.187a4.315 4.315 0 0 1-2.82 1.047 4.333 4.333 0 1 1 4.334-4.334c0 1.074-.394 2.06-1.047 2.82l.187.18Zm-6.474-3c0 1.66 1.34 3 3 3s3-1.34 3-3-1.34-3-3-3-3 1.34-3 3Z" clip-rule="evenodd"/><path fill="#202124" fill-opacity=".04" d="M125 95h1137v36H125z"/><rect width="63" height="10" x="177" y="108" fill="#1F1F1F" fill-opacity=".38" rx="3"/><rect width="63" height="10" x="279" y="108" fill="#1F1F1F" fill-opacity=".38" rx="3"/><rect width="31" height="10" x="244" y="108" fill="#1F1F1F" fill-opacity=".38" rx="3"/><path fill="#5F6368" fill-rule="evenodd" d="M150.807 114.333h.526l3.327 3.334-.993.993-3.334-3.327v-.526l-.18-.187a4.315 4.315 0 0 1-2.82 1.047 4.333 4.333 0 1 1 4.334-4.334c0 1.074-.394 2.06-1.047 2.82l.187.18Zm-6.474-3c0 1.66 1.34 3 3 3s3-1.34 3-3-1.34-3-3-3-3 1.34-3 3Z" clip-rule="evenodd"/><path fill="#4285F4" d="M153.066 79.693c1.144-1.067 1.871-2.656 1.871-4.693 0-.37-.034-.767-.118-1.146h-5.816v2.39h3.345c-.168.844-.625 1.486-1.279 1.902v.31l1.63 1.237h.367Z"/><path fill="#34A853" d="M145.493 76.156a3.683 3.683 0 0 0 3.506 2.538c.801 0 1.508-.19 2.071-.547l1.996 1.547c-1.091 1.014-2.544 1.556-4.067 1.556a6.218 6.218 0 0 1-5.603-3.485l.07-.423 1.692-1.186h.335Z"/><path fill="#FBBC05" d="M145.495 73.838a3.704 3.704 0 0 0 0 2.325l-2.097 1.606a6.266 6.266 0 0 1-.64-2.769c0-.996.231-1.935.64-2.769l.416-.09 1.587 1.24.094.457Z"/><path fill="#EA4335" d="M148.999 71.307c.88 0 1.675.313 2.299.824l1.817-1.819c-1.108-.965-2.528-1.562-4.117-1.562a6.217 6.217 0 0 0-5.602 3.483l2.098 1.605a3.683 3.683 0 0 1 3.505-2.53Z"/><path fill="#000" d="M177 66h1v18h-1z" opacity=".54"/></g><defs><clipPath id="a"><path fill="#fff" d="M0 0h500v167H0z"/></clipPath><clipPath id="c"><rect width="1240" height="509" x="12" y="12" fill="#fff" rx="8"/></clipPath><clipPath id="e"><path fill="#fff" d="M60 24h16v16H60z"/></clipPath><clipPath id="g"><path fill="#fff" d="M60 24h16v16H60z"/></clipPath><clipPath id="h"><path fill="#fff" d="M248 24h16v16h-16z"/></clipPath><clipPath id="i"><path fill="#fff" d="M286 24h16v16h-16z"/></clipPath><clipPath id="j"><path fill="#fff" d="M24 65h20v20H24z"/></clipPath><clipPath id="k"><path fill="#fff" d="M60 65h20v20H60z"/></clipPath><clipPath id="l"><path fill="#fff" d="M96 65h20v20H96z"/></clipPath><filter id="b" width="1276" height="545" x="-6" y="2" color-interpolation-filters="sRGB" filterUnits="userSpaceOnUse"><feFlood flood-opacity="0" result="BackgroundImageFix"/><feColorMatrix in="SourceAlpha" result="hardAlpha" values="0 0 0 0 0 0 0 0 0 0 0 0 0 0 0 0 0 0 127 0"/><feOffset dy="4"/><feGaussianBlur stdDeviation="2"/><feColorMatrix values="0 0 0 0 0 0 0 0 0 0 0 0 0 0 0 0 0 0 0.3 0"/><feBlend in2="BackgroundImageFix" result="effect1_dropShadow_1540_14658"/><feColorMatrix in="SourceAlpha" result="hardAlpha" values="0 0 0 0 0 0 0 0 0 0 0 0 0 0 0 0 0 0 127 0"/><feMorphology in="SourceAlpha" operator="dilate" radius="6" result="effect2_dropShadow_1540_14658"/><feOffset dy="8"/><feGaussianBlur stdDeviation="6"/><feColorMatrix values="0 0 0 0 0 0 0 0 0 0 0 0 0 0 0 0 0 0 0.15 0"/><feBlend in2="effect1_dropShadow_1540_14658" result="effect2_dropShadow_1540_14658"/><feBlend in="SourceGraphic" in2="effect2_dropShadow_1540_14658" result="shape"/></filter><filter id="m" width="1169" height="498" x="109" y="41" color-interpolation-filters="sRGB" filterUnits="userSpaceOnUse"><feFlood flood-opacity="0" result="BackgroundImageFix"/><feColorMatrix in="SourceAlpha" result="hardAlpha" values="0 0 0 0 0 0 0 0 0 0 0 0 0 0 0 0 0 0 127 0"/><feOffset dy="16"/><feGaussianBlur stdDeviation="8"/><feColorMatrix values="0 0 0 0 0 0 0 0 0 0 0 0 0 0 0 0 0 0 0.24 0"/><feBlend in2="BackgroundImageFix" result="effect1_dropShadow_1540_14658"/><feColorMatrix in="SourceAlpha" result="hardAlpha" values="0 0 0 0 0 0 0 0 0 0 0 0 0 0 0 0 0 0 127 0"/><feOffset/><feGaussianBlur stdDeviation="8"/><feColorMatrix values="0 0 0 0 0 0 0 0 0 0 0 0 0 0 0 0 0 0 0.1 0"/><feBlend in2="effect1_dropShadow_1540_14658" result="effect2_dropShadow_1540_14658"/><feBlend in="SourceGraphic" in2="effect2_dropShadow_1540_14658" result="shape"/></filter><linearGradient id="d" x1="22.5" x2="4" y1="17" y2="17" gradientUnits="userSpaceOnUse"><stop stop-color="#fff"/><stop offset="1" stop-color="#fff" stop-opacity="0"/></linearGradient></defs></svg>