<svg width="40" height="24" viewBox="0 0 40 24" fill="none" xmlns="http://www.w3.org/2000/svg">
<rect width="40" height="24" fill="#D3E3FD"/>
<path d="M20.6089 16.4568H11.0542V18.6516L20.789 18.6934L20.6089 16.4568Z" fill="#041E49"/>
<path d="M15.3126 9.04987H12.9839V15.3046H15.3126V9.04987Z" fill="#041E49"/>
<path d="M25.132 9.04987H22.7637V12.1731C23.4423 11.5883 24.2473 11.1513 25.132 10.9037V9.04956V9.04987Z" fill="#041E49"/>
<path d="M18.9927 2L19.0201 2.01444L19.0475 2H18.9927Z" fill="#041E49"/>
<path d="M27.0414 6.2246L19.0207 2.01447L11 6.2246V7.95282H27.0414V6.2246ZM14.8666 6.11496L18.9933 4.11247H19.0482L22.9233 6.11496H14.8666Z" fill="#041E49"/>
<path d="M20.2459 9.04987H17.9038V15.3046H20.2459V9.04987Z" fill="#041E49"/>
<path d="M27.0421 12.0089C24.3079 12.0089 22.0835 14.25 22.0835 17.0046C22.0835 19.7593 24.3079 22.0004 27.0421 22.0004C29.7762 22.0004 32.0006 19.7593 32.0006 17.0046C32.0006 14.25 29.7762 12.0089 27.0421 12.0089ZM26.7958 17.6106C26.437 17.2491 26.0056 17.0685 25.5017 17.0685H23.6111C23.6108 17.047 23.6077 17.0261 23.6077 17.0046C23.6077 15.0967 25.1484 13.5445 27.0421 13.5445C27.2637 13.5445 27.4795 13.5675 27.6896 13.6081C27.6112 13.6738 27.5384 13.746 27.4771 13.8323C27.3817 13.9668 27.3338 14.1225 27.3338 14.2994H26.8756C26.6238 14.2994 26.408 14.3897 26.2287 14.5706C26.0492 14.7512 25.9596 14.9687 25.9596 15.2224V16.1453H27.7917V16.6069C27.7917 16.8606 27.8813 17.078 28.0609 17.2586C28.2404 17.4392 28.4559 17.5298 28.7077 17.5298H29.6238C29.8527 17.5298 30.0512 17.4567 30.2191 17.3105C30.3359 17.2089 30.4191 17.0876 30.4734 16.9487C30.4734 16.9675 30.4761 16.9856 30.4761 17.0043C30.4761 18.9122 28.9354 20.4644 27.0418 20.4644C26.6635 20.4644 26.3001 20.3999 25.9596 20.2857V19.3757H27.3338V18.9141C27.3338 18.4064 27.1546 17.9721 26.7958 17.6106Z" fill="#041E49"/>
</svg>
