<svg width="40" height="24" viewBox="0 0 40 24" fill="none" xmlns="http://www.w3.org/2000/svg"><g clip-path="url(#a)"><rect x=".5" y=".5" width="39" height="23" rx="2.5" fill="#fff" stroke="#DADCE0"/><path d="M12.285 15.722 13.61 8.49h1.308l-1.323 7.23h-1.309Zm6.329-.048a4.532 4.532 0 0 1-.97.098h-3.049l1.26-7.23h3.076c.774.012 1.296.27 1.566.77.164.307.225.674.182 1.102-.049.443-.188.797-.42 1.064-.126.15-.443.288-.675.412.317.134.544.347.68.637.137.29.183.645.136 1.06-.05.428-.195.814-.434 1.154a2.338 2.338 0 0 1-.55.57 2.057 2.057 0 0 1-.804.363h.002Zm-.57-3.086h-1.63l-.285 1.927h1.635c.292 0 .524-.043.697-.127.317-.158.504-.458.561-.902.047-.377-.063-.635-.327-.776-.148-.079-.364-.12-.648-.122h-.002Zm.991-1.379c.19-.118.304-.327.342-.632.038-.336-.052-.559-.268-.668-.193-.075-.445-.113-.755-.113h-1.406l-.223 1.594h1.593c.285 0 .524-.06.719-.18h-.002Zm6.491-2.668 1.03 7.231h-1.648l-.153-1.486h-2.677l-.82 1.486h-1.587l4.137-7.23h1.718Zm-1.228 1.653-1.543 2.846h1.843l-.3-2.846Zm7 5.578-2.294-5.136-.796 5.136h-1.415l1.244-7.23h1.593l2.235 5.047.72-5.048H34l-1.185 7.231h-1.52.003Z" fill="#002F70"/><path d="M8.627 15.654c-.708-.149-1.302-.333-1.766-.575A6.108 6.108 0 0 0 12.09 18c.97 0 1.887-.224 2.7-.621a5.826 5.826 0 0 1-1.786.28 5.755 5.755 0 0 1-4.378-2.005Zm1.431-.098a8.868 8.868 0 0 0 2.232-.125l.085-.466c-.515.053-1.082.087-1.7.087a8.46 8.46 0 0 1-.892-.044 6.873 6.873 0 0 1-.558-2.056c.001 0-.031-.342-.038-.521a6.25 6.25 0 0 1-.006-.26v-.125c0-.846.171-1.655.472-2.382a7.018 7.018 0 0 1 2.378-3.121A6.166 6.166 0 0 0 9.15 9.74a8.385 8.385 0 0 1-1.228-.339 5.74 5.74 0 0 1 5.084-3.037c.677 0 1.33.117 1.932.33A6.15 6.15 0 0 0 12.091 6a6.099 6.099 0 0 0-5.538 3.5c.299.196.664.372 1.085.52v-.005c.387.141.827.256 1.302.338a6.08 6.08 0 0 0-.207 1.986 7.07 7.07 0 0 1-1.46-.48 5.55 5.55 0 0 1 .241-1.475 5.603 5.603 0 0 1-1.123-.507 5.921 5.921 0 0 0-.371 1.622c.263.366.704.702 1.284.958.433.176.934.32 1.487.423a6.05 6.05 0 0 0 .722 2.094 5.383 5.383 0 0 1-1.686-.53 5.506 5.506 0 0 1-.477-1.5c-.58-.221-1.039-.519-1.35-.852.013.77.171 1.505.45 2.178.407.406 1.06.76 1.87.997-.001-.003.67.195 1.558.273l.18.014v.002Z" fill="#0490F9"/><path d="M9.937 9.866a7.636 7.636 0 0 0-.172.588c.29.025.587.043.894.043.958 0 1.851-.127 2.598-.344l.062-.339a12.301 12.301 0 0 1-3.381.052Zm-.374 2.62c.009.174.023.344.045.512a11.969 11.969 0 0 0 3.142-.075l.083-.45c-.53.078-1.095.119-1.682.119-.553 0-1.086-.038-1.586-.108l-.002.002Z" fill="#0490F9"/></g><defs><clipPath id="a"><path fill="#fff" d="M0 0h40v24H0z"/></clipPath></defs></svg>