<svg width="32" height="20" viewBox="0 0 32 20" fill="none" xmlns="http://www.w3.org/2000/svg"><g clip-path="url(#a)"><rect x=".5" y=".5" width="31" height="19" rx="1.5" fill="#fff" stroke="#DADCE0"/><path d="m9.938 13.102 1.04-6.026h1.029l-1.04 6.026H9.938ZM14.91 13.061a3.362 3.362 0 0 1-.762.082h-2.395l.99-6.025h2.417c.608.01 1.018.225 1.23.641.13.257.177.563.143.92-.038.368-.147.664-.33.886-.098.125-.347.24-.53.343.25.112.428.29.535.531.108.242.143.538.106.884-.04.357-.153.677-.34.96a1.901 1.901 0 0 1-.432.476 1.574 1.574 0 0 1-.633.302h.002Zm-.446-2.57h-1.282l-.223 1.605h1.284c.23 0 .412-.036.548-.106.248-.131.396-.382.44-.752.038-.314-.049-.528-.256-.646-.117-.066-.286-.1-.51-.102h-.001Zm.778-1.15c.15-.098.239-.273.269-.527.03-.28-.041-.465-.211-.556a1.572 1.572 0 0 0-.593-.094h-1.105l-.175 1.328h1.252c.223 0 .412-.05.564-.15h-.001ZM20.341 7.118l.81 6.025h-1.295l-.12-1.238h-2.104l-.643 1.239H15.74l3.25-6.026H20.342Zm-.964 1.377-1.213 2.371h1.449l-.236-2.371ZM24.877 13.143l-1.803-4.28-.625 4.28h-1.112l.978-6.025h1.252l1.755 4.206.566-4.206H27l-.93 6.025h-1.195.002Z" fill="#002F70"/><path d="M7.064 13.045c-.556-.124-1.023-.278-1.388-.479C6.512 14.024 8.04 15 9.786 15c.762 0 1.482-.187 2.122-.518-.442.15-.914.234-1.404.234-1.38 0-2.614-.65-3.44-1.671ZM8.189 12.963a6.534 6.534 0 0 0 1.754-.104l.066-.389c-.404.045-.85.074-1.335.074-.258 0-.49-.014-.702-.038a6.002 6.002 0 0 1-.438-1.713c.001 0-.024-.285-.03-.434a5.52 5.52 0 0 1-.004-.216v-.105c0-.704.134-1.379.37-1.985a5.824 5.824 0 0 1 1.869-2.6 5.045 5.045 0 0 0-2.265 2.664 6.296 6.296 0 0 1-.965-.282c.752-1.504 2.258-2.53 3.995-2.53a4.32 4.32 0 0 1 1.518.274A4.612 4.612 0 0 0 9.786 5C7.855 5 6.19 6.195 5.434 7.916c.235.164.522.31.853.434v-.004c.304.118.65.213 1.023.282a5.355 5.355 0 0 0-.163 1.655A5.34 5.34 0 0 1 6 9.883c.011-.427.077-.839.19-1.23-.341-.12-.64-.265-.883-.422a5.188 5.188 0 0 0-.291 1.352c.206.304.553.585 1.008.798.341.146.734.266 1.169.352.087.626.284 1.215.567 1.745a4.062 4.062 0 0 1-1.324-.442 4.79 4.79 0 0 1-.375-1.249c-.456-.185-.816-.433-1.061-.71.01.642.134 1.253.354 1.815.32.338.833.632 1.47.83-.002-.002.526.163 1.223.228l.142.011v.002Z" fill="#0490F9"/><path d="M8.094 8.222c-.051.16-.096.322-.136.49.228.02.461.035.703.035.753 0 1.454-.106 2.041-.286l.048-.282a9.123 9.123 0 0 1-2.657.043ZM7.8 10.405c.007.145.018.287.035.427a8.92 8.92 0 0 0 2.468-.063l.065-.374c-.415.064-.86.098-1.32.098a8.54 8.54 0 0 1-1.247-.09l-.001.002Z" fill="#0490F9"/></g><defs><clipPath id="a"><path fill="#fff" d="M0 0h32v20H0z"/></clipPath></defs></svg>