<svg width="48" height="30" viewBox="0 0 48 30" fill="none" xmlns="http://www.w3.org/2000/svg">
<rect width="48" height="30" rx="4" fill="#D3E3FD"/>
<g clip-path="url(#clip0_745_185471)">
<path d="M24.4391 20.3483H13.0645V22.982L24.6536 23.0321L24.4391 20.3483Z" fill="#041E49"/>
<path d="M18.1338 11.4598H15.3616V18.9655H18.1338V11.4598Z" fill="#041E49"/>
<path d="M29.8241 11.4598H27.0046V15.2077C27.8125 14.506 28.7709 13.9815 29.8241 13.6844V11.4595V11.4598Z" fill="#041E49"/>
<path d="M22.5149 3L22.5476 3.01674L22.5802 3H22.5149Z" fill="#041E49"/>
<path d="M32.0969 8.0695L22.5485 3.01733L13 8.0695V10.1434H32.0969V8.0695ZM17.6031 7.93793L22.5158 5.53494H22.5811L27.1944 7.93793H17.6031Z" fill="#041E49"/>
<path d="M24.007 11.4598H21.2188V18.9655H24.007V11.4598Z" fill="#041E49"/>
<path d="M32.0976 15.0106C28.8427 15.0106 26.1946 17.7 26.1946 21.0056C26.1946 24.3111 28.8427 27.0005 32.0976 27.0005C35.3526 27.0005 38.0007 24.3111 38.0007 21.0056C38.0007 17.7 35.3526 15.0106 32.0976 15.0106ZM31.8044 21.7327C31.3773 21.2989 30.8638 21.0822 30.2639 21.0822H28.0131C28.0127 21.0564 28.0091 21.0314 28.0091 21.0056C28.0091 18.7161 29.8433 16.8534 32.0976 16.8534C32.3615 16.8534 32.6184 16.881 32.8685 16.9297C32.7752 17.0086 32.6885 17.0952 32.6155 17.1987C32.5019 17.3602 32.4449 17.547 32.4449 17.7593H31.8995C31.5997 17.7593 31.3428 17.8677 31.1294 18.0847C30.9156 18.3015 30.809 18.5624 30.809 18.8668V19.9743H32.99V20.5283C32.99 20.8327 33.0967 21.0936 33.3105 21.3103C33.5242 21.5271 33.7808 21.6358 34.0806 21.6358H35.1711C35.4437 21.6358 35.6799 21.5481 35.8799 21.3726C36.0189 21.2506 36.1179 21.1051 36.1825 20.9385C36.1825 20.961 36.1858 20.9827 36.1858 21.0052C36.1858 23.2947 34.3517 25.1573 32.0973 25.1573C31.6469 25.1573 31.2143 25.0799 30.809 24.9428V23.8508H32.4449V23.2969C32.4449 22.6876 32.2316 22.1665 31.8044 21.7327Z" fill="#041E49"/>
</g>
<defs>
<clipPath id="clip0_745_185471">
<rect width="25" height="24" fill="white" transform="translate(13 3)"/>
</clipPath>
</defs>
</svg>
