<svg width="32" height="20" viewBox="0 0 32 20" fill="none" xmlns="http://www.w3.org/2000/svg"><g clip-path="url(#a)"><rect x=".5" y=".5" width="31" height="19" rx="1.5" fill="#fff" stroke="#DADCE0"/><path d="M5.494 13V6.556H6.71V13H5.494Zm2.981 0V6.556h2.52c.373 0 .706.078 1 .234.3.15.537.351.71.603.175.252.261.534.261.846 0 .336-.083.621-.252.855a1.577 1.577 0 0 1-.612.531v.072c.33.114.595.303.793.567.204.258.306.573.306.945 0 .366-.097.684-.289.954a1.876 1.876 0 0 1-.764.621 2.545 2.545 0 0 1-1.063.216h-2.61Zm1.215-2.772v1.665h1.35a1.1 1.1 0 0 0 .514-.108.754.754 0 0 0 .314-.297.837.837 0 0 0 .108-.423.855.855 0 0 0-.108-.432.744.744 0 0 0-.324-.297 1.202 1.202 0 0 0-.54-.108H9.69Zm0-1.044h1.216a1 1 0 0 0 .467-.099.724.724 0 0 0 .298-.288.74.74 0 0 0 .107-.387.758.758 0 0 0-.098-.387.697.697 0 0 0-.288-.27.892.892 0 0 0-.45-.108H9.69v1.539ZM13.903 13l2.412-6.444h1.395L20.131 13h-1.34l-.54-1.539h-2.467L15.244 13h-1.34Zm3.951-2.655-.567-1.62-.234-.774h-.072l-.234.774-.567 1.62h1.674ZM21.294 13V6.556h1.412l2.592 4.32h.072l-.072-1.242V6.556h1.206V13h-1.278L22.49 8.437h-.072l.072 1.242V13h-1.197Z" fill="#5F6368"/></g><defs><clipPath id="a"><path fill="#fff" d="M0 0h32v20H0z"/></clipPath></defs></svg>