<svg xmlns="http://www.w3.org/2000/svg" xmlns:xlink="http://www.w3.org/1999/xlink" width="680" height="120"><style>.B{mask:url(#B)}.C{fill:#414447}.D{fill:#4e5154}.E{fill:#262628}.F{fill-rule:nonzero}</style><defs><path id="A" d="M0 0h680v120H0z"/></defs><g fill-rule="evenodd"><mask id="B" fill="#fff"><use xlink:href="#A"/></mask><use fill-opacity=".1" xlink:href="#A"/><g class="F B"><path d="M288.585 52.215V47c10.735 0 19.175-3 25.1-8.955 9.3-9.36 9.325-23.015 9.325-23.15l5.25-.04c0 .645 0 15.9-10.815 26.82-6.935 6.995-16.645 10.54-28.85 10.54z" class="C"/><path d="M253.87 83h-5.245a40.45 40.45 0 0 1 5-18c4.605-8.2 14.4-18 34.96-18v5.215c-14.465 0-24.685 5.17-30.385 15.36A35.35 35.35 0 0 0 253.87 83z" fill="#81c995"/><path d="M254.6 94.5h-90.7V32.325a2.65 2.65 0 0 1 2.64-2.64h85.44a2.65 2.65 0 0 1 2.64 2.64V94.5z" class="E"/><path d="M250.3 30.225A3.791 3.791 0 0 1 254.08 34v59.945h-89.64V34a3.786 3.786 0 0 1 3.78-3.78h82.08m0-.54h-82.1a4.335 4.335 0 0 0-4.32 4.32v60.5h90.72V34a4.335 4.335 0 0 0-4.32-4.32zm-99.36 68.585h116.64v.54H150.93v-.54z" class="D"/><path d="M56 57.915H38.175v-.27a8.91 8.91 0 1 1 17.82 0l.005.27zm-17.275-.54H55.45a8.37 8.37 0 0 0-16.73 0h.005z" fill="#5f6368"/><g class="C"><path d="M426.825 68.895h-17.28a8.64 8.64 0 0 1 17.28 0zM345 88.66h20v4h-20z"/><path d="m348.268 98.32 10-17.32 3.464 2-10 17.32z"/><path d="m358.268 100.32-10-17.32 3.464-2 10 17.32z"/></g><rect stroke="#4e5154" stroke-width=".5" x="112" y="18" width="68" height="92" rx="6" class="E"/><g fill="#4285f4"><path d="M124 65h12v2h-12z"/><path d="m126.134 70.696 6-10.392 1.732 1-6 10.392z"/><path d="m132.134 71.696-6-10.392 1.732-1 6 10.392zM140 65h12v2h-12z"/><path d="m142.134 70.696 6-10.392 1.732 1-6 10.392z"/><path d="m148.134 71.696-6-10.392 1.732-1 6 10.392zM156 65h12v2h-12z"/><path d="m158.134 70.696 6-10.392 1.732 1-6 10.392z"/><path d="m164.134 71.696-6-10.392 1.732-1 6 10.392z"/></g><g class="D"><rect x="124" y="85" width="14" height="1" rx=".5"/><rect x="124" y="43" width="16" height="1" rx=".5"/><rect x="124" y="50" width="28" height="1" rx=".5"/></g><g class="E"><g stroke="#4e5154" stroke-width=".5"><path d="M146 10a7 7 0 0 1 7 7v7h-14v-7a7 7 0 0 1 7-7z"/><circle cx="146" cy="17" r="3"/><path d="M162 24h-32a6 6 0 0 0-6 6v4h44v-4a6 6 0 0 0-6-6z"/></g><path d="M79.6 58.42a12.935 12.935 0 0 0-10.1 4.82A8.62 8.62 0 0 0 58 71.38h34.56c0-7.158-5.802-12.96-12.96-12.96z"/></g><path d="M92.83 71.65h-35.1v-.27a8.89 8.89 0 0 1 11.695-8.455A13.23 13.23 0 0 1 92.83 71.38v.27zm-34.555-.54h34a12.69 12.69 0 0 0-22.56-7.7l-.12.15-.18-.065A8.35 8.35 0 0 0 58.26 71.11h.015z" class="D"/><path d="m38.12 82.36 3.705-3.705c7.6 7.6 15.7 11.43 24.075 11.4 13.17-.03 22.855-9.655 22.95-9.75L92.585 84c-.45.46-11.235 11.25-26.6 11.315C56.12 95.345 46.75 91 38.12 82.36z" fill="#f7bb2a"/><path d="m-8.2 79.58-3.705-3.705a40.45 40.45 0 0 1 16.25-9.18c9.075-2.57 22.945-2.58 37.5 11.96L38.14 82.36C27.9 72.13 17 68.555 5.77 71.735A35.342 35.342 0 0 0-8.2 79.58z" class="C"/><path d="M636.62 39.735c-5.777.008-10.613-4.377-11.168-10.127s3.35-10.98 9.022-12.08 11.248 2.294 12.88 7.835a11.205 11.205 0 0 1-10.733 14.37zm0-21.765a10.58 10.58 0 0 0-9.82 14.5 10.57 10.57 0 0 0 20.298-5.263 10.57 10.57 0 0 0-10.478-9.237zM619 130h-80a6.785 6.785 0 0 1-6.775-6.775v-10h.6v10A6.185 6.185 0 0 0 539 129.38h80a6.185 6.185 0 0 0 6.175-6.175v-43.55A6.185 6.185 0 0 0 619 73.5h-12v-.6h12a6.785 6.785 0 0 1 6.775 6.775V123.2A6.784 6.784 0 0 1 619 130z" class="D"/><g fill="#383838"><path d="M607.005 73.48H561l3-.6h43.005z"/><path d="M532.8 100.18h-.6v-20.5a6.78 6.78 0 0 1 6.8-6.8h29.5v.62H539a6.185 6.185 0 0 0-6.175 6.175l-.025 20.505z"/></g><path d="M540 93.28a14.37 14.37 0 0 0-11.205 5.355A9.58 9.58 0 0 0 516 107.68h38.4c0-7.953-6.447-14.4-14.4-14.4z" class="C"/><path d="M554.725 108h-39v-.3a9.88 9.88 0 0 1 13-9.395 14.7 14.7 0 0 1 26 9.395v.3zm-38.395-.6h37.795a14.1 14.1 0 0 0-25.065-8.555l-.135.165-.2-.07c-2.795-.998-5.898-.598-8.35 1.075s-3.953 4.42-4.04 7.385h-.005z" class="D"/><path fill="#f8f9fa" d="M498.67 29.88 534.33-.525"/><path d="M498.32 29.468 534-.9l.65.762-35.68 30.377-.648-.76zM641.43 56.08h-5.825a44.942 44.942 0 0 0 5.555 20c5.1 9.145 16 20.05 38.84 20.05V90.3c-16.07 0-27.43-5.745-33.76-17.07a39.127 39.127 0 0 1-4.8-17.14z" class="C"/><path d="M197.89 56c1.165.002 2.1 1.075 2.11 2.4v19.2c-.001 1.325-.946 2.398-2.11 2.4h-71.78c-1.165-.002-2.1-1.075-2.11-2.4V58.4c.001-1.325.946-2.398 2.11-2.4h71.778z" fill="#8ab4f8"/></g><path d="M179.75 56H198a2 2 0 0 1 2 2v20a2 2 0 0 1-2 2h-18.25V56z" fill="#8ab4f8" class="B"/><g fill="#fff" class="F B"><rect x="190" y="62" width="2" height="12" rx="1"/><path d="M132 67h10v2h-10z"/><path d="m133.634 71.83 5-8.66 1.732 1-5 8.66z"/><path d="m138.634 72.83-5-8.66 1.732-1 5 8.66zM146 67h10v2h-10z"/><path d="m147.634 71.83 5-8.66 1.732 1-5 8.66z"/><path d="m152.634 72.83-5-8.66 1.732-1 5 8.66zM160 67h10v2h-10z"/><path d="m161.634 71.83 5-8.66 1.732 1-5 8.66z"/><path d="m166.634 72.83-5-8.66 1.732-1 5 8.66zM174 67h10v2h-10z"/><path d="m175.634 71.83 5-8.66 1.732 1-5 8.66z"/><path d="m180.634 72.83-5-8.66 1.732-1 5 8.66z"/></g></g></svg>