<svg fill="none" height="226" viewBox="0 0 680 226" width="680" xmlns="http://www.w3.org/2000/svg"><path d="M0 0h680v226H0z" fill="#f8f9fa"/><path clip-rule="evenodd" d="m637.997 169.005 12.076 1.097c2.282.128 4.293 1.567 5.238 3.684l5.1 11.001.003.007a6.49 6.49 0 0 1-.59 6.373l-.007.01-6.997 9.895c-1.3 1.887-3.545 2.96-5.817 2.723l-12.075-1.097c-2.283-.128-4.294-1.567-5.238-3.684l-5.101-11.001-.003-.007a6.492 6.492 0 0 1 .59-6.373l.007-.01 6.997-9.895c1.3-1.886 3.545-2.96 5.817-2.723zm-.202 1.989c-1.523-.16-3.072.564-3.971 1.873l-.007.01-6.996 9.895a4.488 4.488 0 0 0-.41 4.415l5.1 11 .003.007c.654 1.473 2.032 2.428 3.539 2.507l.019.001 12.126 1.103h.007c1.523.161 3.072-.563 3.971-1.872l.007-.01 6.997-9.895a4.49 4.49 0 0 0 .409-4.415l-5.1-11-.003-.007c-.654-1.473-2.032-2.428-3.539-2.507l-.019-.001-12.126-1.103z" fill="#34a853" fill-rule="evenodd"/><path clip-rule="evenodd" d="M616.907 57.496c-.572-.051-1.063.368-1.111.895l-.001.004-2.499 26.096v.002c-.051.572.368 1.063.894 1.111h.005l26.095 2.5h.002c.573.051 1.064-.368 1.112-.894v-.005l2.5-26.095v-.002c.051-.573-.368-1.064-.895-1.112h-.004l-26.096-2.5h-.002zm-3.103.71c.154-1.671 1.661-2.85 3.286-2.702h.005l26.095 2.5h.003c1.672.154 2.851 1.66 2.703 3.287l-.001.004-2.499 26.096v.002c-.154 1.672-1.661 2.85-3.287 2.703h-.004l-26.096-2.5h-.002c-1.672-.154-2.851-1.66-2.703-3.287v-.004l2.5-26.096v-.002z" fill="#e94235" fill-rule="evenodd"/><path d="m598.1 114.6-30.9-11.2c-8.1-3-17 1.3-20 9.3-3 8.1 1.3 17 9.3 20l30.9 11.2c8.1 3 17-1.3 20-9.3 3.1-8.2-1.2-17-9.3-20z" fill="#dadce0"/><path d="M465.8 68.5c0 3.1-2.5 5.6-5.6 5.6s-5.6-2.5-5.6-5.6 2.5-5.6 5.6-5.6 5.6 2.5 5.6 5.6z" fill="#4285f4"/><path d="M493.3 108.1c0-17.4-14.6-31.5-32.5-31.5-18 0-32.5 14.1-32.5 31.5v28.1c0 1.4 1.2 2.5 2.6 2.5h59.8c1.4 0 2.6-1.1 2.6-2.5z" fill="#d2e3fc"/><g fill="#4285f4"><path clip-rule="evenodd" d="M421.3 145.2a1 1 0 0 1 1-1h77a1 1 0 0 1 0 2h-77a1 1 0 0 1-1-1z" fill-rule="evenodd"/><path d="M460.8 162.7c5.5 0 10-4.5 10-10h-20c0 5.5 4.5 10 10 10z"/><path clip-rule="evenodd" d="M205.7 157.6c0-7.947 6.443-14.5 14.5-14.5 7.947 0 14.5 6.443 14.5 14.5 0 7.947-6.443 14.5-14.5 14.5s-14.5-6.553-14.5-14.5zm14.5-12.5c-6.943 0-12.5 5.647-12.5 12.5s5.557 12.5 12.5 12.5 12.5-5.647 12.5-12.5c0-6.943-5.648-12.5-12.5-12.5z" fill-rule="evenodd"/></g><path d="M252.4 115.2c-1.8 3.6-4.2 7.6-7.4 11.8l-22.7 29.5c-1 1.4-3.2 1.4-4.2 0L195.4 127c-3.2-4.2-5.6-8.2-7.4-11.8-8.8-17.6-2.6-39.1 14.5-48.6 5.1-2.8 10.9-4.5 17.2-4.6h1.1c6.2.1 12 1.8 17.1 4.6 17.1 9.5 23.3 31.1 14.5 48.6z" fill="#d2e3fc"/><path d="M229 91.1c0 4.9-3.9 8.8-8.8 8.8s-8.8-3.9-8.8-8.8 3.9-8.8 8.8-8.8 8.8 3.9 8.8 8.8z" fill="#4285f4"/><path clip-rule="evenodd" d="M210.542 146.647c2.57-2.249 5.9-3.647 9.658-3.647 3.656 0 7.095 1.398 9.676 3.763l-1.352 1.474A12.33 12.33 0 0 0 220.2 145c-3.242 0-6.112 1.202-8.341 3.153z" fill="#fff" fill-rule="evenodd"/><path clip-rule="evenodd" d="M307.1 109.3a1 1 0 0 1 1 1v15.5c0 17.448 14.252 31.7 31.7 31.7s31.7-14.252 31.7-31.7v-15.5a1 1 0 0 1 2 0v15.5c0 18.552-15.148 33.7-33.7 33.7s-33.7-15.148-33.7-33.7v-15.5a1 1 0 0 1 1-1z" fill="#4285f4" fill-rule="evenodd"/><path d="M339.8 148.3c-12.5 0-22.6-10.1-22.6-22.6V68.6c0-12.5 10.1-22.6 22.6-22.6s22.6 10.1 22.6 22.6v57.2c0 12.4-10.2 22.5-22.6 22.5z" fill="#d2e3fc"/><path clip-rule="evenodd" d="M362.4 98.2h-45.2v-2h45.2z" fill="#fff" fill-rule="evenodd"/><path clip-rule="evenodd" d="M339.8 157.5a1 1 0 0 1 1 1V181a1 1 0 0 1-2 0v-22.5a1 1 0 0 1 1-1z" fill="#4285f4" fill-rule="evenodd"/><path d="M353.3 119.5c0 7.5-6 13.5-13.5 13.5-7.5-.1-13.5-6.1-13.5-13.5 0-7.5 6-13.5 13.5-13.5s13.5 6.1 13.5 13.5z" fill="#4285f4"/><path clip-rule="evenodd" d="M332.2 180.9a1 1 0 0 1 1-1H346a1 1 0 0 1 0 2h-12.8a1 1 0 0 1-1-1z" fill="#4285f4" fill-rule="evenodd"/><path d="M87 91.97a4.95 4.95 0 0 1-4.97 4.969C79.21 97 77 94.73 77 91.969A4.95 4.95 0 0 1 81.97 87c2.76 0 5.03 2.209 5.03 4.97z" fill="#d2e3fc"/><path d="M40.327 161.675c-1.562 2.01-4.7 1.9-6.164-.134-4.294-6.113-4.248-14.585.625-20.739a17.327 17.327 0 0 1 20.19-5.353c2.345 1.016 3.115 3.943 1.553 5.953z" fill="#fbbc04"/><path clip-rule="evenodd" d="m45.638 39.41 23.073 2.696a3.38 3.38 0 0 1 2.395 5.385l-.003.005L57.306 66.09l-.001.003c-1.566 2.13-4.828 1.7-5.826-.704l-9.3-21.4-.004-.01c-.958-2.326.809-4.994 3.463-4.57zm-1.617 3.801 9.3 21.4.004.008a1.368 1.368 0 0 0 2.369.29l.003-.005L69.494 46.31l.001-.002c.644-.881.128-2.094-1-2.213h-.011L45.36 41.39l-.024-.004c-.93-.154-1.746.763-1.315 1.825z" fill="#34a853" fill-rule="evenodd"/></svg>