<svg xmlns="http://www.w3.org/2000/svg" viewBox="0 0 400 140"><style>.st0{fill:#8ab4f8}.st1{fill:#a8dab5}.st2{fill:#34a853}</style><circle class="st0" cx="154.4" cy="39.7" r="10.8"/><path class="st0" d="M176.1 69.2c0-4.4-2.6-8.3-6.6-10-9.6-4.2-20.5-4.2-30.1 0-4 1.7-6.6 5.7-6.6 10v3.1h43.4l-.1-3.1z"/><circle class="st0" cx="277.9" cy="77.6" r="7.3"/><path class="st0" d="M292.4 97.3c0-2.9-1.7-5.6-4.4-6.7-6.4-2.8-13.8-2.8-20.2 0-2.7 1.1-4.4 3.8-4.4 6.7v2.1h29v-2.1z"/><circle class="st1" cx="105.2" cy="34" r="7.3"/><path class="st1" d="M119.7 53.8c0-2.9-1.7-5.6-4.4-6.7-6.4-2.8-13.8-2.8-20.2 0-2.7 1.1-4.4 3.8-4.4 6.7v2.1h29v-2.1z"/><circle class="st1" cx="319" cy="56.9" r="7.3"/><path class="st1" d="M333.6 76.6c0-2.9-1.7-5.6-4.4-6.7-6.4-2.8-13.8-2.8-20.2 0-2.7 1.1-4.4 3.8-4.4 6.7v2.1h29v-2.1z"/><circle class="st0" cx="81.2" cy="73.5" r="7.3"/><path class="st0" d="M95.7 93.2c0-2.9-1.7-5.6-4.4-6.7-6.4-2.8-13.8-2.8-20.2 0-2.7 1.1-4.4 3.8-4.4 6.7v2.1h29v-2.1z"/><circle class="st0" cx="241.4" cy="92" r="10.8"/><path class="st0" d="M263.1 121.5c0-4.4-2.6-8.3-6.6-10-9.6-4.2-20.5-4.2-30.1 0-4 1.7-6.6 5.7-6.6 10v3.1h43.4l-.1-3.1z"/><circle class="st1" cx="125.4" cy="84.9" r="9.1"/><path class="st1" d="M143.6 109.5c0-3.7-2.2-7-5.5-8.4-8.1-3.5-17.2-3.5-25.2 0-3.4 1.4-5.5 4.7-5.5 8.4v2.6h36.3l-.1-2.6z"/><circle class="st1" cx="257.7" cy="26.5" r="9.1"/><path class="st1" d="M275.9 51.2c0-3.7-2.2-7-5.5-8.4-8.1-3.5-17.2-3.5-25.2 0-3.4 1.4-5.5 4.7-5.5 8.4v2.6H276l-.1-2.6z"/><circle class="st2" cx="200" cy="60.3" r="10.8"/><path class="st2" d="M221.7 89.7c0-4.4-2.6-8.3-6.6-10-9.6-4.2-20.5-4.2-30.1 0-4 1.7-6.6 5.7-6.6 10v3.1h43.4l-.1-3.1z"/><path d="M223.3 104.9h-46.6c-5.8 0-10.5-4.7-10.5-10.5V45.6c0-5.8 4.7-10.5 10.5-10.5h46.6c5.8 0 10.5 4.7 10.5 10.5v48.8c0 5.8-4.7 10.5-10.5 10.5zm-46.6-68.8c-5.2 0-9.5 4.3-9.5 9.5v48.8c0 5.2 4.3 9.5 9.5 9.5h46.6c5.2 0 9.5-4.3 9.5-9.5V45.6c0-5.2-4.3-9.5-9.5-9.5h-46.6zm46.6 63.1h-46.6c-2.6 0-4.8-2.2-4.8-4.8V45.6c0-2.6 2.2-4.8 4.8-4.8h46.6c2.6 0 4.8 2.2 4.8 4.8v48.8c0 2.6-2.2 4.8-4.8 4.8zm0-57.4h-46.6c-2.1 0-3.8 1.7-3.8 3.8v48.8c0 2.1 1.7 3.8 3.8 3.8h46.6c2.1 0 3.8-1.7 3.8-3.8V45.6c0-2.1-1.7-3.8-3.8-3.8z" fill="#ceead6"/><path fill="none" d="M0 0h400v140H0z"/></svg>