<svg xmlns="http://www.w3.org/2000/svg" viewBox="0 0 800 800"><path fill="#174EA6" d="M566.64,644.45h-332.1c-39.2,0-71.09-31.89-71.09-71.09V225.44c0-39.2,31.89-71.09,71.09-71.09h332.1 c39.2,0,71.09,31.89,71.09,71.09v347.91C637.73,612.56,605.84,644.45,566.64,644.45z M234.54,194.85 c-16.87,0-30.59,13.72-30.59,30.59v347.91c0,16.87,13.72,30.59,30.59,30.59h332.1c16.87,0,30.59-13.72,30.59-30.59V225.44 c0-16.87-13.72-30.59-30.59-30.59H234.54z"/><circle fill="#174EA6" cx="400.59" cy="329.68" r="77.2"/><path fill="#174EA6" d="M554.99,539.28c0-31.27-18.53-59.06-47.09-71.41c-32.81-14.28-69.1-22.39-107.31-22.39 s-74.5,8.11-107.31,22.39c-28.56,12.35-47.09,40.14-47.09,71.41v22h308.81V539.28z"/><circle fill="#FBBC04" cx="243.01" cy="221.9" r="157.58"/><path fill="#EA4335" d="M117.14,429.58c-7.33,0-14.58,0.36-21.78,0.9v293.18h310.91c0.03-1.61,0.12-3.21,0.12-4.83 C406.4,559.08,276.89,429.58,117.14,429.58z"/><path fill="#34A853" d="M574.27,269.43l173.69,77.17v116.62c0,112.15-73.94,215.62-173.69,246.39 c-99.75-30.77-173.69-134.23-173.69-246.39V346.59L574.27,269.43z"/><path fill="#4285F4" d="M554.99,539.28v22H419.75c-12.31-30.69-19.16-63.98-19.16-98.07v-17.73c38.21,0,74.5,8.11,107.31,22.39 C536.46,480.22,554.99,508.01,554.99,539.28z M397.6,252.55c-41.09,1.59-74.21,35.67-74.21,77.12c0,8.8,1.51,17.26,4.26,25.16 C363.27,332.11,389.14,295.46,397.6,252.55z M400.59,406.88c42.46,0,77.2-34.74,77.2-77.2c0-5.69-0.64-11.23-1.82-16.57 l-75.38,33.49V406.88z M276.72,477.57c-18.96,14.46-30.54,37-30.54,61.71v22h113.56C338.09,528.02,309.79,499.49,276.72,477.57z"/><g><path fill="#FFFFFF" d="M597.23,279.63v293.73c0,16.87-13.72,30.59-30.59,30.59H441.4c9.08,14.54,19.48,28.13,31.02,40.5h94.22 c39.2,0,71.09-31.89,71.09-71.09V297.62L597.23,279.63z"/><path fill="#FFFFFF" d="M203.95,374.59V225.44c0-16.87,13.72-30.59,30.59-30.59h163.73c-2.46-14.25-6.84-27.84-12.86-40.5H234.54 c-39.2,0-71.09,31.89-71.09,71.09v132.49C175.95,365.26,189.55,370.92,203.95,374.59z"/><path fill="#FFFFFF" d="M382.66,603.95H234.54c-16.87,0-30.59-13.72-30.59-30.59V442.84c-13.12-4.12-26.65-7.32-40.5-9.55v140.07 c0,39.2,31.89,71.09,71.09,71.09h162.18C393.02,630.51,388.31,616.98,382.66,603.95z"/></g><circle fill="#4285F4" cx="729.85" cy="207.38" r="39.72"/><path fill="#4285F4" d="M162.16,121.76c4.13-3.65,7.57-7.77,10.33-12.19c1.75-2.81,5.69-3.05,7.79-0.49 c1.44,1.76,3.05,3.42,4.84,4.96c14.63,12.56,36.67,12.42,51.12-0.35c17.01-15.03,17.61-41.03,1.81-56.84 c-15.23-15.23-39.91-15.23-55.14,0c-0.02,0.02-0.04,0.04-0.06,0.06c-2.36,2.36-6.26,1.73-7.75-1.26 c-2.88-5.81-6.84-11.21-11.89-15.91c-20.86-19.4-53.62-19.65-74.73-0.53c-24.8,22.46-24.32,61.58,1.44,83.39 C110.71,140.21,141.75,139.81,162.16,121.76z"/><path fill="#4285F4" d="M162.9,771H58.53c-26.15,0-47.34-21.2-47.34-47.34v0c0-26.15,21.2-47.34,47.34-47.34H162.9 c26.15,0,47.34,21.2,47.34,47.34v0C210.25,749.81,189.05,771,162.9,771z"/></svg>
