<svg xmlns="http://www.w3.org/2000/svg" viewBox="0 0 800 800"><path d="M162.1609,121.7605a55.4155,55.4155,0,0,0,10.3272-12.1861,4.78,4.78,0,0,1,7.7874-.4912,38.9853,38.9853,0,0,0,55.9591,4.6078,38.9879,38.9879,0,1,0-53.3277-56.8352l-.0561.0562a4.8025,4.8025,0,0,1-7.7473-1.26,55.3314,55.3314,0,1,0-12.9426,66.1081Z" style="fill:#4285f4"/><path d="M400.5878,346.5934l75.3784-33.49a77.4913,77.4913,0,0,0-75.3784-60.6282c-1.0027,0-1.9967.0379-2.99.0763a157.7158,157.7158,0,0,1-69.9538,102.2853,77.4857,77.4857,0,0,0,72.9442,52.0416Z" style="fill:#aecbfa"/><path d="M359.7419,561.282h60.0042a263.6579,263.6579,0,0,1-19.1583-98.0709V445.48a268.2934,268.2934,0,0,0-107.31,22.3885,78.9005,78.9005,0,0,0-16.5551,9.7011A290.7885,290.7885,0,0,1,359.7419,561.282Z" style="fill:#aecbfa"/><path d="M203.9452,225.4427V374.5945a157.9834,157.9834,0,0,0,123.6984-19.7573,76.4909,76.4909,0,0,1-4.2574-25.16,77.4314,77.4314,0,0,1,74.2112-77.1253,158.6965,158.6965,0,0,0,.67-57.703H234.5381A30.628,30.628,0,0,0,203.9452,225.4427Z" style="fill:#fbbc04"/><path d="M243.8813,64.3295a38.9861,38.9861,0,0,1-58.7629,49.7116,39.413,39.413,0,0,1-4.843-4.9579,4.78,4.78,0,0,0-7.7874.4912,55.29,55.29,0,0,1-60.2566,24.3749,157.6305,157.6305,0,0,0,51.2138,223.986V225.4427a71.174,71.174,0,0,1,71.0929-71.0938H385.4088A157.5868,157.5868,0,0,0,243.8813,64.3295Z" style="fill:#fbbc04"/><path d="M396.728,644.4481h-162.19a71.1733,71.1733,0,0,1-71.0929-71.093V433.2813a291.0611,291.0611,0,0,0-46.3065-3.7022c-7.3345,0-14.5789.3638-21.7764.8994V676.3228h67.5425a47.34,47.34,0,0,1,47.34,47.34v0h196.03c.0266-1.6118.1216-3.2073.1216-4.8263A289.4878,289.4878,0,0,0,396.728,644.4481Z" style="fill:#ea4335"/><path d="M234.5381,603.9481H382.6554a288.7483,288.7483,0,0,0-22.9135-42.6661H246.1846V539.28a77.4129,77.4129,0,0,1,30.5379-61.71,288.1794,288.1794,0,0,0-72.7773-34.7164V573.3551A30.6279,30.6279,0,0,0,234.5381,603.9481Z" style="fill:#ea4335"/><path d="M574.2737,269.4272l-98.3074,43.6766a77.1072,77.1072,0,0,1-75.3785,93.775V445.48a268.2933,268.2933,0,0,1,107.31,22.3885A77.62,77.62,0,0,1,554.991,539.28V561.282H419.7469A271.67,271.67,0,0,0,441.4,603.9481H566.6372a30.6281,30.6281,0,0,0,30.594-30.593V279.6269Z" style="fill:#34a853"/><path d="M637.7312,297.6205V573.3551a71.1741,71.1741,0,0,1-71.094,71.093H472.4167c28.1587,30.2049,63.0538,53.18,101.857,65.1488C674.019,678.83,747.96,575.3625,747.96,463.2111V346.5934Z" style="fill:#34a853"/><path d="M554.991,539.28v22.002H419.7461a263.655,263.655,0,0,1-19.1584-98.07V445.48a268.2794,268.2794,0,0,1,107.31,22.3887A77.6185,77.6185,0,0,1,554.991,539.28Z" style="fill:#4285f4"/><path d="M397.5973,252.5522a77.4311,77.4311,0,0,0-74.2112,77.125,76.49,76.49,0,0,0,4.2575,25.16A157.7144,157.7144,0,0,0,397.5973,252.5522Z" style="fill:#4285f4"/><path d="M400.5877,406.8783a77.1062,77.1062,0,0,0,75.3786-93.7744l-75.3786,33.4893Z" style="fill:#4285f4"/><path d="M276.7225,477.5688a77.4127,77.4127,0,0,0-30.538,61.7109v22.002H359.742A290.8,290.8,0,0,0,276.7225,477.5688Z" style="fill:#4285f4"/><path d="M566.6372,194.8489a30.6282,30.6282,0,0,1,30.594,30.5938v54.1842l40.5,17.9936V225.4427a71.1748,71.1748,0,0,0-71.094-71.0938H385.4088a156.4265,156.4265,0,0,1,12.8583,40.5Z" style="fill:#aecbfa"/><path d="M396.722,644.4481h75.6947a265.9964,265.9964,0,0,1-31.0166-40.5h-58.74A287.0379,287.0379,0,0,1,396.722,644.4481Z" style="fill:#aecbfa"/><path d="M203.9452,442.84V374.5945a156.604,156.604,0,0,1-40.5-16.6592v75.35A287.3935,287.3935,0,0,1,203.9452,442.84Z" style="fill:#aecbfa"/><circle cx="729.8525" cy="207.3848" r="39.7233" style="fill:#4285f4"/><rect x="11.1911" y="676.3228" width="199.0541" height="94.681" rx="47.3405" style="fill:#4285f4"/></svg>
