<svg xmlns="http://www.w3.org/2000/svg" viewBox="0 0 400 140"><circle cx="154.4" cy="39.7" r="10.8" fill="#185abc"/><path d="M176.1 69.2a10.821 10.821 0 0 0-6.6-10 37.528 37.528 0 0 0-30.1 0 10.925 10.925 0 0 0-6.6 10v3.1h43.4z" fill="#185abc"/><circle cx="277.9" cy="77.6" r="7.3" fill="#185abc"/><path d="M292.4 97.3a7.208 7.208 0 0 0-4.4-6.7 25.338 25.338 0 0 0-20.2 0 7.208 7.208 0 0 0-4.4 6.7v2.1h29z" fill="#185abc"/><circle cx="105.2" cy="34" r="7.3" fill="#34a853"/><path d="M119.7 53.8a7.208 7.208 0 0 0-4.4-6.7 25.338 25.338 0 0 0-20.2 0 7.208 7.208 0 0 0-4.4 6.7v2.1h29z" fill="#34a853"/><circle cx="319" cy="56.9" r="7.3" fill="#34a853"/><path d="M333.6 76.6a7.208 7.208 0 0 0-4.4-6.7 25.338 25.338 0 0 0-20.2 0 7.208 7.208 0 0 0-4.4 6.7v2.1h29z" fill="#34a853"/><circle cx="81.2" cy="73.5" r="7.3" fill="#185abc"/><path d="M95.7 93.2a7.208 7.208 0 0 0-4.4-6.7 25.338 25.338 0 0 0-20.2 0 7.208 7.208 0 0 0-4.4 6.7v2.1h29z" fill="#185abc"/><circle cx="241.4" cy="92" r="10.8" fill="#185abc"/><path d="M263.1 121.5a10.821 10.821 0 0 0-6.6-10 37.528 37.528 0 0 0-30.1 0 10.925 10.925 0 0 0-6.6 10v3.1h43.4z" fill="#185abc"/><circle cx="125.4" cy="84.9" r="9.1" fill="#34a853"/><path d="M143.6 109.5a9.11 9.11 0 0 0-5.5-8.4 31.552 31.552 0 0 0-25.2 0 8.957 8.957 0 0 0-5.5 8.4v2.6h36.3z" fill="#34a853"/><circle cx="257.7" cy="26.5" r="9.1" fill="#34a853"/><path d="M275.9 51.2a9.11 9.11 0 0 0-5.5-8.4 31.552 31.552 0 0 0-25.2 0 8.957 8.957 0 0 0-5.5 8.4v2.6H276z" fill="#34a853"/><circle cx="200" cy="60.3" r="10.8" fill="#34a853"/><path d="M221.7 89.7a10.821 10.821 0 0 0-6.6-10 37.528 37.528 0 0 0-30.1 0 10.925 10.925 0 0 0-6.6 10v3.1h43.4z" fill="#34a853"/><path d="M223.3 104.9h-46.6a10.499 10.499 0 0 1-10.5-10.5V45.6a10.499 10.499 0 0 1 10.5-10.5h46.6a10.499 10.499 0 0 1 10.5 10.5v48.8a10.499 10.499 0 0 1-10.5 10.5zm-46.6-68.8a9.56 9.56 0 0 0-9.5 9.5v48.8a9.56 9.56 0 0 0 9.5 9.5h46.6a9.56 9.56 0 0 0 9.5-9.5V45.6a9.56 9.56 0 0 0-9.5-9.5zm46.6 63.1h-46.6a4.867 4.867 0 0 1-4.8-4.8V45.6a4.867 4.867 0 0 1 4.8-4.8h46.6a4.867 4.867 0 0 1 4.8 4.8v48.8a4.867 4.867 0 0 1-4.8 4.8zm0-57.4h-46.6a3.798 3.798 0 0 0-3.8 3.8v48.8a3.798 3.798 0 0 0 3.8 3.8h46.6a3.798 3.798 0 0 0 3.8-3.8V45.6a3.798 3.798 0 0 0-3.8-3.8z" fill="#137333"/></svg>