<svg xmlns="http://www.w3.org/2000/svg" viewBox="0 0 400 140"><circle cx="199.871" cy="53.632" r="16.293" fill="#81c995"/><path d="M232.608 97.985a16.325 16.325 0 0 0-9.957-15.086 56.615 56.615 0 0 0-45.409 0 16.482 16.482 0 0 0-9.956 15.086v4.676h65.473z" fill="#81c995"/><circle cx="146.033" cy="58.535" r="14.664" fill="#8ab4f8"/><path d="M175.496 98.452a14.692 14.692 0 0 0-8.961-13.577 50.953 50.953 0 0 0-40.869 0 14.834 14.834 0 0 0-8.96 13.577v4.21h58.925z" fill="#8ab4f8"/><path d="M170.904 87.74a16.474 16.474 0 0 0-3.618 10.245v4.676h8.345l-.135-4.209a14.708 14.708 0 0 0-4.592-10.712z" fill="#4285f4"/><circle cx="98.741" cy="63.438" r="13.034" fill="#81c995"/><path d="M124.93 98.92a13.06 13.06 0 0 0-7.965-12.069 45.292 45.292 0 0 0-36.327 0 13.186 13.186 0 0 0-7.966 12.069v3.741h52.38z" fill="#81c995"/><path d="M120.26 88.869a14.838 14.838 0 0 0-3.555 9.583v4.21h8.346l-.12-3.742a13.07 13.07 0 0 0-4.67-10.051z" fill="#4285f4"/><circle cx="57.997" cy="68.341" r="11.405" fill="#aecbfa"/><path d="M80.913 99.388a11.427 11.427 0 0 0-6.97-10.56 39.63 39.63 0 0 0-31.787 0 11.537 11.537 0 0 0-6.97 10.56v3.273h45.832z" fill="#aecbfa"/><path d="M76.114 90.079a13.198 13.198 0 0 0-3.442 8.841v3.741h8.346l-.105-3.273a11.407 11.407 0 0 0-4.799-9.31z" fill="#4285f4"/><circle cx="253.71" cy="58.535" r="14.664" fill="#8ab4f8"/><path d="M224.247 98.452a14.692 14.692 0 0 1 8.961-13.577 50.953 50.953 0 0 1 40.869 0 14.834 14.834 0 0 1 8.96 13.577v4.21h-58.925z" fill="#8ab4f8"/><path d="M228.947 87.642a14.704 14.704 0 0 0-4.7 10.81l-.135 4.21h8.647l-.15-4.677a16.36 16.36 0 0 0-3.662-10.343z" fill="#4285f4"/><circle cx="301.002" cy="63.438" r="13.034" fill="#81c995"/><path d="M274.813 98.92a13.06 13.06 0 0 1 7.965-12.069 45.292 45.292 0 0 1 36.327 0 13.186 13.186 0 0 1 7.966 12.069v3.741h-52.38z" fill="#81c995"/><path d="M279.482 88.869a13.071 13.071 0 0 0-4.67 10.051l-.12 3.741h8.346v-4.209a14.837 14.837 0 0 0-3.556-9.583z" fill="#4285f4"/><circle cx="341.746" cy="68.341" r="11.405" fill="#aecbfa"/><path d="M318.83 99.388a11.427 11.427 0 0 1 6.97-10.56 39.63 39.63 0 0 1 31.786 0 11.537 11.537 0 0 1 6.97 10.56v3.273h-45.831z" fill="#aecbfa"/><path d="M323.629 90.079a11.407 11.407 0 0 0-4.799 9.309l-.105 3.273h8.346V98.92a13.198 13.198 0 0 0-3.442-8.841z" fill="#4285f4"/></svg>