<svg width="182" height="102" viewBox="0 0 182 102" fill="none" xmlns="http://www.w3.org/2000/svg"><path d="M0 100.139h182" stroke="#E8EAED" stroke-width="3.004" stroke-miterlimit="10"/><path d="M131.033 38.244l-7.1-6.302a1.865 1.865 0 0 1-.156-2.637 1.866 1.866 0 0 1 2.637-.156l7.1 6.302c.773.686.842 1.864.156 2.637a1.866 1.866 0 0 1-2.637.156z" fill="#CF8D66"/><path d="M144.43 96.355c9.137 0 16.544-7.407 16.544-16.544 0-9.138-7.407-16.545-16.544-16.545-9.138 0-16.545 7.407-16.545 16.545 0 9.137 7.407 16.544 16.545 16.544z" stroke="#DADCE0" stroke-width="7.01" stroke-miterlimit="10"/><path d="M144.429 79.81l-9.045-39.098h-5.666" stroke="#FBBC04" stroke-width="5.007" stroke-miterlimit="10" stroke-linecap="round" stroke-linejoin="round"/><path d="M92.128 14.057l13.951-7.025-15.69-5.093a9.297 9.297 0 0 0-1.047 2.15c-1.216 3.69.012 7.593 2.786 9.968z" fill="#3C4043"/><path d="M98.967 44.521l14.693 11.782-9.351 17.623" stroke="#174EA6" stroke-width="20.029" stroke-miterlimit="10" stroke-linejoin="round"/><path d="M91.561 79.81h-43.53" stroke="#DADCE0" stroke-width="5.007" stroke-miterlimit="10"/><path d="M61.184 54.514H21.026v26.562h40.158V54.514z" fill="#FA7B17"/><path d="M84.604 96.355c9.138 0 16.545-7.407 16.545-16.544 0-9.138-7.407-16.545-16.545-16.545-9.137 0-16.544 7.407-16.544 16.545 0 9.137 7.407 16.544 16.544 16.544zm-43.499 0c6.194 0 11.215-5.021 11.215-11.215 0-6.193-5.021-11.214-11.215-11.214s-11.214 5.02-11.214 11.214c0 6.194 5.02 11.215 11.214 11.215z" stroke="#DADCE0" stroke-width="7.01" stroke-miterlimit="10"/><path d="M104.054 79.81h-19.45l17.436-28.837h35.514m1.178 4.189L110.705 79.81" stroke="#FBBC04" stroke-width="5.007" stroke-miterlimit="10" stroke-linejoin="round"/><path d="M107.569 79.324l3.385-.586s-.068 2.893 2.269 3.878c1.303.548 3.167.66 4.563.648a2.277 2.277 0 0 1 2.276 1.87l.062.374-12.929-.056.374-6.128z" fill="#DADCE0"/><path d="M108.448 9.961a4.98 4.98 0 1 0 0-9.961 4.98 4.98 0 0 0 0 9.961z" fill="#CF8D66"/><path d="M103.474 14.288l20.739 18.233" stroke="#FA7B17" stroke-width="16.023" stroke-miterlimit="10" stroke-linejoin="round"/><path d="M92.72 38.063l8.434 43.063h10.666l-7.998-41.679-11.102-1.384z" fill="#1967D2"/><path d="M110.013.256a4.983 4.983 0 0 0-6.29 3.166 4.986 4.986 0 0 0 .692 4.47l8.777-4.414a4.951 4.951 0 0 0-3.179-3.222z" fill="#3C4043"/><path d="M106.316 11.22c-.517.612-22.379 21.769-22.379 21.769s3.547 4.974 10.828 7.38c7.823 2.588 14.955 2.588 14.955 2.588l-3.404-31.736z" fill="#FA7B17"/><path d="M50.375 50.973H31.83a5.466 5.466 0 0 1-5.467-5.467V26.967A5.466 5.466 0 0 1 31.83 21.5h18.545a5.466 5.466 0 0 1 5.467 5.467v18.546c0 3.017-2.45 5.46-5.467 5.46z" fill="#D2E3FC"/><path d="M32.185 36.237h17.834m-8.914-8.915l8.914 8.915-8.914 8.92" stroke="#4285F4" stroke-width="3.004" stroke-miterlimit="10" stroke-linecap="round" stroke-linejoin="round"/></svg>