<svg fill="none" height="226" viewBox="0 0 680 226" width="680" xmlns="http://www.w3.org/2000/svg"><path d="M0 0h680v226H0z" fill="#3c4043"/><path clip-rule="evenodd" d="M415.427 226C422.831 211.508 427 195.027 427 177.5 427 118.9 379.1 72 320.9 72 262.6 72 216 118.9 216 177.5c0 17.43 4.123 33.939 11.481 48.5z" fill="#5f6368" fill-rule="evenodd"/><path d="m311.957 157.18-11.617 20.177c-.962 1.607.24 3.617 2.083 3.617h23.154c1.843 0 3.045-2.01 2.083-3.617l-11.617-20.177c-.881-1.608-3.125-1.608-4.086 0z" fill="#8ab4f8"/><path d="m274.012 182.634-19.723-14.669c-1.238-.941-1.534-2.741-.594-3.98l14.67-19.722c.94-1.239 2.74-1.534 3.979-.594l19.722 14.669c1.239.941 1.535 2.741.594 3.98l-14.669 19.722c-.941 1.239-2.741 1.534-3.979.594z" fill="#fdd663"/><path d="m138.425 173.925-3.9-3.9c-.7-.7-.7-1.9 0-2.6l3.9-3.9c.7-.7 1.9-.7 2.6 0l3.9 3.9c.7.7.7 1.9 0 2.6l-3.9 3.9c-.7.8-1.9.8-2.6 0z" fill="#81c995"/><path d="M100.323 42.8c0 4.3-3.5 7.8-7.8 7.8s-7.8-3.5-7.8-7.8 3.5-7.8 7.8-7.8 7.8 3.5 7.8 7.8z" fill="#fdd663"/><path d="M543 142c0 2.8-2.2 5-5 5s-5-2.2-5-5 2.2-5 5-5 5 2.3 5 5z" fill="#f28b82"/><g clip-rule="evenodd" fill-rule="evenodd"><path d="m594.346 158.207 12.063 1.097c2.474.142 4.64 1.7 5.657 3.975l5.095 10.99.01.022a6.989 6.989 0 0 1-.635 6.859l-.011.016-6.995 9.892c-1.399 2.03-3.818 3.189-6.276 2.935l-12.063-1.097c-2.473-.142-4.64-1.7-5.657-3.975l-5.095-10.99-.01-.022a6.989 6.989 0 0 1 .635-6.859l.011-.016 6.995-9.892c1.4-2.03 3.818-3.189 6.276-2.935zm-.303 2.985c-1.335-.141-2.708.495-3.507 1.658l-.011.016-6.994 9.891a3.992 3.992 0 0 0-.365 3.924l5.095 10.988.01.022c.582 1.309 1.798 2.142 3.108 2.211l.057.004 12.1 1.1.021.002c1.335.141 2.708-.496 3.507-1.658l.011-.016 6.994-9.891a3.992 3.992 0 0 0 .365-3.924l-5.095-10.988-.01-.022c-.581-1.309-1.798-2.142-3.108-2.211a1.091 1.091 0 0 1-.057-.004l-12.1-1.1z" fill="#80868b"/><path d="M606.658 51.327c-2.626-.355-4.479 2.262-3.486 4.656l.004.007 9.274 21.356c1.032 2.472 4.33 2.763 5.869.69l13.804-18.591c1.539-2.074.307-5.146-2.357-5.42zm-1.641 3.883 9.274 21.354.003.008c.407.982 1.764 1.154 2.419.27l13.804-18.59c.656-.883.098-2.132-.959-2.237l-.009-.001-23.143-2.703-.011-.002c-.999-.137-1.813.84-1.378 1.9zm-574.28 64.684a3 3 0 0 1 3.276-2.696l26.12 2.539a3 3 0 0 1 2.696 3.276l-2.538 26.121a2.999 2.999 0 0 1-3.276 2.695l-26.121-2.538a3.001 3.001 0 0 1-2.696-3.277zm3.083-.705a1 1 0 0 0-1.092.898l-2.54 26.121a1 1 0 0 0 .9 1.092l26.12 2.539a1 1 0 0 0 1.092-.899l2.539-26.12a1 1 0 0 0-.899-1.092z" fill="#81c995"/><path d="M304 145.974c8.284 0 15-6.716 15-15s-6.716-15-15-15-15 6.716-15 15 6.716 15 15 15zm0 2c9.389 0 17-7.611 17-17s-7.611-17-17-17-17 7.611-17 17 7.611 17 17 17z" fill="#f28b82"/></g><path d="M427.031 182.974h-82.062c-6.033 0-10.969-4.925-10.969-10.945V90.148c0-6.02 4.936-10.945 10.969-10.945h82.062c6.033 0 10.969 4.925 10.969 10.945v81.881c0 6.02-4.936 10.945-10.969 10.945z" fill="#4285f4"/><path d="M389.394 148.361h-6.788c-2.81 0-4.867-2.6-4.319-5.268l3.771-17.443h7.747l3.77 17.443c.686 2.737-1.439 5.268-4.181 5.268z" fill="#185abc"/><path d="M395.838 118.057c0 5.473-4.388 9.85-9.872 9.85-5.485 0-9.872-4.377-9.872-9.85 0-5.472 4.387-9.85 9.872-9.85 5.484 0 9.872 4.378 9.872 9.85z" fill="#185abc"/><path clip-rule="evenodd" d="M385.966 46c-13.23 0-23.955 10.704-23.955 23.9v9.303a1 1 0 1 1-2 0V69.9c0-14.304 11.625-25.9 25.955-25.9s25.954 11.596 25.954 25.9a1 1 0 1 1-2 0c0-13.196-10.725-23.9-23.954-23.9z" fill="#8ab4f8" fill-rule="evenodd"/><path clip-rule="evenodd" d="M360.011 144.325V79.203h2v65.122c0 13.195 10.725 23.899 23.955 23.899 13.229 0 23.954-10.704 23.954-23.899V79.203h2v65.122c0 14.304-11.624 25.899-25.954 25.899s-25.955-11.595-25.955-25.899z" fill="#185abc" fill-rule="evenodd"/></svg>