<svg xmlns="http://www.w3.org/2000/svg" width="779" height="138" fill="none" viewBox="0 0 779 138"><g clip-path="url(#a)"><path fill="url(#b)" d="M0 0h779v138H0z"/><rect width="73" height="52" x="353.5" y="64.106" fill="#0842A0" stroke="url(#c)" stroke-width="3" rx="5.5"/><path fill="#1967D2" d="M345 120.605h90a4 4 0 0 1-4 4h-82a4 4 0 0 1-4-4Z"/><rect width="23" height="47" x="440.5" y="31.105" fill="#0842A0" stroke="url(#d)" stroke-width="3" rx="4.5"/><path fill="#1F1F1F" d="M447.173 32.605a27.102 27.102 0 0 1 2.379 5.037c3.71 10.548.544 22.372-7.552 32.9V35.605a3 3 0 0 1 3-3h2.173ZM421 65.606a4 4 0 0 1 4 4v16.367c-5.57 3.641-11.873 6.779-18.751 9.198-18.827 6.622-37.658 6.36-51.249.555v-26.12a4 4 0 0 1 4-4h62Z"/><path fill="#F9AB00" d="M391.741 107.702c3.777.969 6.788-3.189 4.689-6.475l-.347-.543a4.296 4.296 0 0 1-.541-3.38l.16-.625c.969-3.777-3.189-6.788-6.475-4.69l-.543.348a4.298 4.298 0 0 1-3.381.54l-.624-.16c-3.777-.968-6.788 3.19-4.689 6.476l.347.543a4.296 4.296 0 0 1 .541 3.381l-.16.624c-.969 3.777 3.189 6.788 6.475 4.689l.543-.347a4.296 4.296 0 0 1 3.381-.541l.624.16Z"/><ellipse cx="450.535" cy="55.6" fill="#4285F4" rx="5.49" ry="7.795" transform="rotate(10.639 450.535 55.6)"/><path fill="#1E8E3E" fill-rule="evenodd" d="M374.656 30.657c-.593.594-1.946.3-3.579-.641C370.589 31.836 369.84 33 369 33c-.84 0-1.589-1.164-2.078-2.984-1.632.941-2.985 1.235-3.578.64-.594-.593-.3-1.946.641-3.578C362.165 26.588 361 25.84 361 25c0-.84 1.164-1.589 2.984-2.077-.942-1.633-1.235-2.986-.641-3.58.593-.594 1.947-.3 3.579.642C367.411 18.165 368.16 17 369 17c.84 0 1.589 1.165 2.078 2.985 1.632-.942 2.985-1.236 3.579-.642.594.594.3 1.947-.641 3.58C375.836 23.41 377 24.16 377 25c0 .84-1.165 1.589-2.985 2.078.941 1.632 1.235 2.985.641 3.579Z" clip-rule="evenodd"/><ellipse cx="6.619" cy="9.397" fill="#4285F4" rx="6.619" ry="9.397" transform="scale(-1 1) rotate(-80.915 -190.851 249.308)"/><path fill="#4285F4" d="M343.613 40.601c-1.455-1.469-1.216-3.26.448-4.278-.055-1.95 1.317-3.128 3.341-2.71 1.469-1.455 3.26-1.216 4.279.448 1.95-.054 3.127 1.317 2.709 3.342 1.455 1.468 1.216 3.26-.448 4.278.055 1.95-1.317 3.128-3.341 2.709-1.469 1.455-3.26 1.217-4.279-.447-1.95.054-3.127-1.317-2.709-3.342Z"/><path fill="#1E8E3E" d="M417.363 92.11c.936-1.222.199-3-1.328-3.2l-7.728-1.01c-1.527-.2-2.697 1.327-2.107 2.75l2.988 7.198c.59 1.422 2.499 1.672 3.435.45l4.74-6.188Z"/><circle cx="419.5" cy="16.5" r="4.5" fill="#34A853" transform="rotate(180 419.5 16.5)"/><circle cx="2.5" cy="2.5" r="2.5" fill="#185ABC" transform="scale(1 -1) rotate(5.97 987.535 4097.255)"/><circle cx="2.5" cy="2.5" r="2.5" fill="#1A73E8" transform="scale(1 -1) rotate(5.97 1028.33 3220.228)"/><circle cx="2.5" cy="2.5" r="2.5" fill="#1967D2" transform="scale(1 -1) rotate(5.97 900.183 3159.61)"/><circle cx="2.5" cy="2.5" r="2.5" fill="#185ABC" transform="scale(1 -1) rotate(5.97 451.096 4134.843)"/><circle cx="2.5" cy="2.5" r="2.5" fill="#1A73E8" transform="scale(1 -1) rotate(5.97 621.596 4270.166)"/><circle cx="4" cy="4" r="4" fill="#F9AB00" transform="scale(1 -1) rotate(.946 3868.355 20199.533)"/><circle cx="3.5" cy="3.5" r="3.5" fill="#1A73E8" transform="scale(1 -1) rotate(5.97 1165.487 3416.985)"/><path fill="#041E49" d="M34.977 23.166c6.382-6.383 16.73-6.383 23.113 0l20.922 20.922c6.382 6.383 6.382 16.73 0 23.113-5.264 5.264-13.224 6.187-19.434 2.769a.104.104 0 0 0-.14.14c3.418 6.21 2.495 14.17-2.769 19.434-6.382 6.382-16.73 6.382-23.113 0L12.634 68.622c-6.382-6.383-6.382-16.731 0-23.114 5.23-5.229 13.12-6.174 19.312-2.834a.145.145 0 0 0 .196-.197c-3.34-6.19-2.395-14.082 2.835-19.311ZM165.887-58.029c2.152-3.607 7.589-3.607 9.741 0l4.252 7.126c1.433 2.403 4.541 3.369 7.177 2.23l7.818-3.374c3.957-1.708 8.356 1.349 7.88 5.477l-.939 8.156c-.316 2.75 1.604 5.278 4.436 5.84l8.399 1.665c4.251.844 5.931 5.79 3.01 8.862l-5.771 6.07a5.193 5.193 0 0 0 0 7.22l5.771 6.069c2.921 3.072 1.241 8.019-3.01 8.862l-8.399 1.666c-2.832.561-4.752 3.09-4.436 5.84l.939 8.155c.476 4.128-3.923 7.185-7.88 5.477l-7.818-3.375c-2.636-1.137-5.744-.171-7.177 2.231l-4.252 7.126c-2.152 3.608-7.589 3.608-9.741 0l-4.251-7.126c-1.434-2.402-4.542-3.368-7.177-2.23l-7.818 3.374c-3.958 1.708-8.357-1.349-7.881-5.477l.939-8.155c.317-2.75-1.604-5.279-4.436-5.84l-8.398-1.666c-4.252-.843-5.932-5.79-3.01-8.862l5.771-6.07a5.195 5.195 0 0 0 0-7.219l-5.771-6.07c-2.922-3.072-1.242-8.018 3.01-8.862l8.398-1.665c2.832-.562 4.753-3.09 4.436-5.84l-.939-8.156c-.476-4.128 3.923-7.185 7.881-5.477l7.818 3.375c2.635 1.138 5.743.172 7.177-2.23l4.251-7.127ZM773.465 75.508c1.333 2.31 2 3.465 2.337 4.671a9.917 9.917 0 0 1 0 5.333c-.337 1.207-1.004 2.362-2.337 4.672l-4.062 7.037c-1.334 2.31-2 3.465-2.877 4.36a9.91 9.91 0 0 1-4.618 2.666c-1.213.312-2.546.312-5.213.312h-24.657c-2.666 0-4 0-5.213-.312a9.91 9.91 0 0 1-4.618-2.666c-.876-.895-1.543-2.05-2.877-4.36l-4.062-7.037c-1.333-2.31-2-3.465-2.336-4.671a9.917 9.917 0 0 1 0-5.334c.336-1.206 1.003-2.361 2.336-4.67l4.062-7.038c1.334-2.31 2.001-3.465 2.877-4.36a9.914 9.914 0 0 1 4.618-2.667c1.213-.311 2.547-.311 5.213-.311h24.657c2.667 0 4 0 5.213.311a9.913 9.913 0 0 1 4.618 2.667c.877.895 1.543 2.05 2.877 4.36l4.062 7.037ZM623.691 10.783a24.795 24.795 0 0 1-5.789-15.97c0-13.708 11.056-24.82 24.694-24.82a24.525 24.525 0 0 1 16.145 6.039 24.433 24.433 0 0 1 16.107-6.04c13.606 0 24.636 11.113 24.636 24.822a24.833 24.833 0 0 1-5.775 15.97 24.833 24.833 0 0 1 5.775 15.968c0 13.709-11.03 24.822-24.636 24.822a24.433 24.433 0 0 1-16.107-6.04 24.525 24.525 0 0 1-16.145 6.04c-13.638 0-24.694-11.113-24.694-24.822a24.795 24.795 0 0 1 5.789-15.969ZM153.779 97.838c27.497-11.943 55.406 15.966 43.463 43.463l-1.974 4.547a33.03 33.03 0 0 0 0 26.322l1.974 4.546c11.943 27.497-15.966 55.406-43.463 43.464l-4.547-1.975a33.039 33.039 0 0 0-26.322 0l-4.546 1.975c-27.498 11.942-55.406-15.967-43.464-43.464l1.975-4.546a33.038 33.038 0 0 0 0-26.322l-1.975-4.547c-11.942-27.497 15.966-55.406 43.464-43.463l4.546 1.974a33.034 33.034 0 0 0 26.322 0l4.547-1.974ZM636.777 90.676h-48.958v7.788h-16.69v10.015h-10.015v17.803h-8.901v48.958h8.901v17.803h10.015v10.014h16.69v7.789h48.958v-7.789h16.691v-10.014h10.014V175.24h8.901v-48.958h-8.901v-17.803h-10.014V98.464h-16.691v-7.788Z"/><path stroke="url(#e)" stroke-width="2" d="M335 125.605h107"/></g><defs><linearGradient id="c" x1="376.875" x2="363.395" y1="79.979" y2="110.597" gradientUnits="userSpaceOnUse"><stop offset=".354" stop-color="#5F6368"/><stop offset=".953" stop-color="#1967D2"/></linearGradient><linearGradient id="d" x1="448.25" x2="432.667" y1="45.512" y2="56.774" gradientUnits="userSpaceOnUse"><stop offset=".354" stop-color="#5F6368"/><stop offset=".953" stop-color="#1967D2"/></linearGradient><linearGradient id="e" x1="441.506" x2="335" y1="125.605" y2="125.605" gradientUnits="userSpaceOnUse"><stop stop-color="#4285F4" stop-opacity="0"/><stop offset=".25" stop-color="#4285F4"/><stop offset=".776" stop-color="#4285F4"/><stop offset="1" stop-color="#4285F4" stop-opacity="0"/></linearGradient><radialGradient id="b" cx="0" cy="0" r="1" gradientTransform="translate(389.5 69) scale(389.5)" gradientUnits="userSpaceOnUse"><stop offset=".457" stop-color="#1F1F1F"/><stop offset="1" stop-color="#041E49"/></radialGradient><clipPath id="a"><path fill="#fff" d="M0 0h779v138H0z"/></clipPath></defs></svg>