<svg data-name="Layer 1" xmlns="http://www.w3.org/2000/svg" width="1360" height="240"><path fill="#28282b" d="M-14.74-2.96h1389.47v245.2H-14.74z"/><path d="M458.53 122.23h-1.31V51.9a16.06 16.06 0 0 1 16-16h46.8v1.31h-46.8a14.75 14.75 0 0 0-14.69 14.69zM377.09 158a30.17 30.17 0 0 1 30.1 28.82H326a19.6 19.6 0 0 1 26.15-17.2l.87.31.58-.72A30 30 0 0 1 377.09 158m0-1.31a31.38 31.38 0 0 0-24.46 11.7 20.91 20.91 0 0 0-27.94 19.75h83.85a31.44 31.44 0 0 0-31.44-31.44zm119.3 50.61h-23.13a14.75 14.75 0 0 1-14.73-14.73v-70.34h-1.31v70.33a16.06 16.06 0 0 0 16 16h23.13zm43.32-170.66V38a14.74 14.74 0 0 1 9.82 13.87v71.43h1.31V51.9a16.06 16.06 0 0 0-11.13-15.26z" fill="#5f6368"/><path d="M531.89 199.89h-56.43A10.44 10.44 0 0 1 465 189.46v-135A10.44 10.44 0 0 1 475.46 44h56.43a10.44 10.44 0 0 1 10.43 10.43v135a10.44 10.44 0 0 1-10.43 10.46zM475.46 45.3a9.13 9.13 0 0 0-9.12 9.12v135a9.13 9.13 0 0 0 9.12 9.12h56.43a9.13 9.13 0 0 0 9.12-9.12v-135a9.13 9.13 0 0 0-9.12-9.12z" fill="#4e5154"/><path d="M549.53 178.93v13.64a14.75 14.75 0 0 1-14.73 14.73h-23.13v1.31h23.13a16.06 16.06 0 0 0 16-16v-13.68z" fill="#f18a81"/><path d="M629 90.92a39.3 39.3 0 1 1-39.3 39.3 39.35 39.35 0 0 1 39.3-39.3m0-2.62a41.92 41.92 0 1 0 42 41.93 41.92 41.92 0 0 0-42-41.93z" fill="#5f6368"/><circle cx="650.37" cy="145.95" r="5.24" fill="#8ab4f8"/><circle cx="563.16" cy="130.23" r="41.92" fill="#81c995"/><path d="M587.12 130.23a41.73 41.73 0 0 0 9 25.92 41.88 41.88 0 0 0 0-51.83 41.73 41.73 0 0 0-9 25.91z" opacity=".12"/><path d="M457.17 75.43V65c21.47 0 38.35-6 50.18-17.91C525.93 28.37 526 1.06 526 .79l10.5-.08c0 1.29 0 31.8-21.63 53.64-13.87 13.99-33.29 21.08-57.7 21.08z" fill="#f7bb2a"/><path d="M387.74 137h-10.49a80.9 80.9 0 0 1 10-36c9.21-16.42 28.8-36 69.92-36v10.43c-28.93 0-49.37 10.34-60.77 30.72a70.69 70.69 0 0 0-8.66 30.85z" fill="#414447"/><path d="M562.83 146.74v-5.08h.66v3.5l4.93-4.93-4.93-4.93v3.5h-.66v-5.08l6.51 6.51zm.66-20l-6.49-6.52 6.51-6.51v5.08h-.66v-3.5l-4.93 4.93 4.93 4.93v-3.5h.66z" fill="#292a2d"/><path d="M572.14 135.51l-.56-.33a9.77 9.77 0 0 0-8.42-14.72v-.66a10.42 10.42 0 0 1 9 15.71zm-8.98 5.13a10.42 10.42 0 0 1-9-15.71l.56.33a9.77 9.77 0 0 0 8.44 14.74z" fill="#292a2d"/><path d="M112 114.83H76.35v-.54a17.82 17.82 0 0 1 35.64 0zm-34.55-1.08h33.45a16.74 16.74 0 0 0-33.46 0z" fill="#5f6368"/><path d="M433.65 136.79h-34.56a17.28 17.28 0 1 1 34.56 0z" fill="#414447"/><path d="M339.22 200H157.78V75.65a5.3 5.3 0 0 1 5.28-5.28h170.88a5.3 5.3 0 0 1 5.28 5.28z" fill="#262628"/><path d="M330.58 71.45a7.57 7.57 0 0 1 7.56 7.55v119.89H158.86V79a7.57 7.57 0 0 1 7.56-7.56h164.16m0-1.08H166.42a8.67 8.67 0 0 0-8.64 8.64v121h181.44V79a8.67 8.67 0 0 0-8.64-8.64zM131.86 207.53h233.28v1.08H131.86z" fill="#5f6368"/><path d="M169.2 115.84a25.87 25.87 0 0 0-20.2 9.64 17.24 17.24 0 0 0-23 16.28h69.12a25.92 25.92 0 0 0-25.92-25.92z" fill="#292a2d"/><path d="M195.66 142.3h-70.2v-.54a17.78 17.78 0 0 1 23.39-16.91 26.46 26.46 0 0 1 46.81 16.91zm-69.11-1.08h68a25.38 25.38 0 0 0-45.12-15.4l-.24.3-.36-.13a16.7 16.7 0 0 0-22.31 15.23z" fill="#5f6368"/><path d="M76.24 163.72l7.41-7.41c15.18 15.18 31.38 22.86 48.15 22.82 26.34-.06 45.71-19.31 45.9-19.5l7.47 7.35c-.9.92-22.47 22.5-53.22 22.63-19.71.08-38.45-8.61-55.71-25.89z" fill="#8ab4f8"/><path d="M-16.4 158.16l-7.41-7.41a80.9 80.9 0 0 1 32.5-18.36c18.15-5.14 45.89-5.16 75 23.92l-7.41 7.41c-20.5-20.46-42.28-27.61-64.74-21.25a70.69 70.69 0 0 0-27.94 15.69z" fill="#414447"/><path d="M1273.24 78.47a22.41 22.41 0 1 1 8.31-1.61 22.29 22.29 0 0 1-8.31 1.61zm0-43.53a21.16 21.16 0 0 0-19.64 29 21.14 21.14 0 1 0 19.64-29zM1238 259h-160a13.57 13.57 0 0 1-13.55-13.55v-20h1.2v20a12.37 12.37 0 0 0 12.35 12.31h160a12.37 12.37 0 0 0 12.35-12.35v-87.1A12.37 12.37 0 0 0 1238 146h-24v-1.2h24a13.57 13.57 0 0 1 13.55 13.55v87.05A13.57 13.57 0 0 1 1238 259z" fill="#5f6368"/><path fill="#5f6368" d="M1214.01 145.96H1122l6-1.2h86.01v1.2z"/><path d="M1065.6 199.36h-1.2v-41a13.57 13.57 0 0 1 13.6-13.6h59V146h-59a12.37 12.37 0 0 0-12.35 12.35z" fill="#5f6368"/><path d="M1080 185.56a28.74 28.74 0 0 0-22.41 10.71 19.16 19.16 0 0 0-25.59 18.09h76.8a28.8 28.8 0 0 0-28.8-28.8z" fill="#262628"/><path d="M1109.45 215h-78v-.6a19.76 19.76 0 0 1 26-18.79 29.4 29.4 0 0 1 52 18.79zm-76.79-1.2h75.59a28.2 28.2 0 0 0-50.13-17.11l-.27.33-.4-.14a18.55 18.55 0 0 0-24.78 16.92z" fill="#5f6368"/><path fill="#f8f9fa" d="M997.34 58.76l71.32-60.81"/><path fill="#5f6368" d="M996.638 57.935l71.36-60.755 1.297 1.523-71.36 60.754z"/><path d="M1282.86 111.16h-11.65a89.89 89.89 0 0 0 11.11 40c10.22 18.29 32 40.1 77.68 40.1v-11.68c-32.14 0-54.86-11.49-67.52-34.14a78.55 78.55 0 0 1-9.62-34.28z" fill="#414447"/><path fill="none" d="M0-.36h1360v239.72H0z"/></svg>