<svg width="680" height="226" viewBox="0 0 680 226" fill="none" xmlns="http://www.w3.org/2000/svg"><g clip-path="url(#a)"><path d="M0 0h680v226H0V0Z" fill="#3C4043"/><circle cx="340.5" cy="190.5" r="126.5" fill="#5F6368"/><circle cx="340.5" cy="35.5" r="126.5" fill="#5F6368"/><path fill-rule="evenodd" clip-rule="evenodd" d="M240.512 113c23.143-29.814 59.325-49 99.988-49s76.845 19.186 99.988 49c-23.143 29.814-59.325 49-99.988 49s-76.845-19.186-99.988-49Z" fill="#174EA6"/><path d="M514.3 99.6c4 0 7.3-3.3 7.3-7.3s-3.3-7.3-7.3-7.3-7.3 3.3-7.3 7.3 3.3 7.3 7.3 7.3Z" fill="#F28B82"/><path d="m607.965 166.857.009.003 28.191 10.497.004.001c6.805 2.613 10.412 10.146 7.721 17.104l-.001.003c-2.606 6.795-10.335 10.322-17.108 7.724l-.009-.003-28.191-10.497-.004-.001c-6.793-2.609-10.318-10.335-7.72-17.107 2.606-6.795 10.335-10.322 17.108-7.724Z" fill="#81C995" stroke="#81C995" stroke-width="2"/><path d="M123.931 88.158c-1.7 2.1-5 2-6.6-.1-4.6-6.5-4.5-15.5.7-22 5.3-6.7 14-8.7 21.5-5.7 2.5 1.1 3.3 4.2 1.7 6.3l-17.3 21.5Z" fill="#FDD663"/><path d="M152 196c0 2.8-2.2 5-5 5-2.8.1-5-2.2-5-5s2.2-5 5-5c2.7 0 5 2.2 5 5Z" fill="#8AB4F8"/><path d="m569.823 61.523-19.7-14.7c-1.2-.9-1.5-2.7-.6-4l14.7-19.7c.9-1.2 2.7-1.5 4-.6l19.7 14.7c1.2.9 1.5 2.7.6 4l-14.7 19.7c-1 1.2-2.8 1.5-4 .6Z" fill="#FDD663"/><path d="m61.006 97.854-.002.023v.003l-2.497 26.072-.003.024v.005c-.06.819.533 1.539 1.32 1.627l.007.001.025.002 26.096 2.499.003.001c.824.073 1.555-.516 1.65-1.306l.002-.007.004-.037 2.5-26.096.001-.024v-.004c.06-.815-.526-1.532-1.307-1.626l-.007-.002-.037-.003-26.096-2.5-.024-.002h-.005c-.83-.06-1.556.548-1.63 1.35Zm1.711-2.347h.001l.038.004 26.096 2.5.023.002h.002c1.365.137 2.34 1.369 2.232 2.715v.002l-.003.026-2.5 26.096-.002.024v.002c-.137 1.36-1.362 2.334-2.704 2.232l-.001-.001-.038-.003-26.096-2.499-.024-.002h-.002c-1.373-.139-2.351-1.385-2.229-2.742l.002-.023v-.003l2.498-26.072.002-.024v-.001c.138-1.361 1.362-2.335 2.705-2.233Z" fill="#81C995" stroke="#81C995"/><path d="m422.844 21.358-3.84 14.413c-.354 1.155.721 2.193 1.898 1.877l14.371-3.85c1.115-.3 1.527-1.735.705-2.575l-10.656-10.528c-.76-.857-2.185-.475-2.478.663Z" fill="#80868B"/><path d="m385.239 48.782-.002-.002-15.739-11.745h-.001c-.515-.387-.675-1.208-.265-1.814l11.732-15.723.001-.001c.387-.515 1.208-.675 1.814-.265l15.723 11.733h.001c.515.387.675 1.208.265 1.814L387.052 48.48c-.505.588-1.339.657-1.813.302Z" stroke="#80868B" stroke-width="2"/><path d="m254.417 172.503.003-.001c4.29-1.978 8.983-.775 11.81 2.597.758.98.406 2.426-.682 2.955l-14.588 6.58h-.001c-1.121.501-2.414-.223-2.605-1.413-.52-4.38 1.87-8.813 6.063-10.718Z" fill="#81C995" stroke="#81C995"/><path d="M298.579 176.403a7 7 0 0 1 6.508 2.58l7.301 9.222a7.004 7.004 0 0 1 1.019 6.926l-4.336 10.934a7 7 0 0 1-5.489 4.345l-11.637 1.712a7 7 0 0 1-6.507-2.581l-7.301-9.222a7 7 0 0 1-1.019-6.925l4.336-10.934a7 7 0 0 1 5.488-4.345l11.637-1.712Z" stroke="#FCAD70" stroke-width="2"/><circle cx="340" cy="113" r="27.5" fill="#8AB4F8" stroke="#8AB4F8"/><path fill-rule="evenodd" clip-rule="evenodd" d="M281.815 78.407C299.354 69.206 319.319 64 340.5 64c40.663 0 76.845 19.186 99.987 49a127.083 127.083 0 0 1-39.739 33.759L281.815 78.407Z" fill="#3C4043"/><path fill-rule="evenodd" clip-rule="evenodd" d="m364.764 126.079-48.53-27.89C321.18 90.268 329.975 85 340 85c15.464 0 28 12.536 28 28a27.88 27.88 0 0 1-3.236 13.079Z" fill="#BDC1C6"/><path d="m253.498 62.133 174 100" stroke="#8AB4F8" stroke-width="2" stroke-linecap="round"/><path d="M548.6 145.7c12.205 0 22.1-9.895 22.1-22.1 0-12.205-9.895-22.1-22.1-22.1-12.205 0-22.1 9.895-22.1 22.1 0 12.205 9.895 22.1 22.1 22.1Zm23.1-22.1c0 12.758-10.342 23.1-23.1 23.1-12.758 0-23.1-10.342-23.1-23.1 0-12.758 10.342-23.1 23.1-23.1 12.758 0 23.1 10.342 23.1 23.1Z" fill="#80868B" stroke="#80868B"/></g><defs><clipPath id="a"><path fill="#fff" d="M0 0h680v226H0z"/></clipPath></defs></svg>