<svg width="680" height="226" viewBox="0 0 680 226" fill="none" xmlns="http://www.w3.org/2000/svg"><g clip-path="url(#a)"><path d="M0 0h680v226H0V0Z" fill="#F1F3F4"/><circle cx="340.5" cy="190.5" r="126.5" fill="#fff"/><circle cx="340.5" cy="35.5" r="126.5" fill="#fff"/><path fill-rule="evenodd" clip-rule="evenodd" d="M240.512 113c23.142-29.814 59.325-49 99.988-49s76.845 19.186 99.987 49c-23.142 29.814-59.324 49-99.987 49s-76.846-19.186-99.988-49Z" fill="#D2E3FC"/><path d="M514.3 99.6c4 0 7.3-3.3 7.3-7.3s-3.3-7.3-7.3-7.3-7.3 3.3-7.3 7.3 3.3 7.3 7.3 7.3Z" fill="#D93025"/><path fill-rule="evenodd" clip-rule="evenodd" d="M548.6 145.2c11.929 0 21.6-9.671 21.6-21.6 0-11.929-9.671-21.6-21.6-21.6-11.929 0-21.6 9.671-21.6 21.6 0 11.929 9.671 21.6 21.6 21.6Zm23.6-21.6c0 13.034-10.566 23.6-23.6 23.6S525 136.634 525 123.6s10.566-23.6 23.6-23.6 23.6 10.566 23.6 23.6Z" fill="#DADCE0"/><path d="m607.965 166.857.009.003 28.191 10.497.004.001c6.805 2.613 10.412 10.146 7.721 17.104l-.001.003c-2.606 6.795-10.335 10.322-17.108 7.724l-.009-.003-28.191-10.497-.004-.001c-6.793-2.609-10.318-10.335-7.72-17.107 2.606-6.795 10.335-10.322 17.108-7.724Z" stroke="#34A853" stroke-width="2"/><path d="M123.931 88.158c-1.7 2.1-5 2-6.6-.1-4.6-6.5-4.5-15.5.7-22 5.3-6.7 14-8.7 21.5-5.7 2.5 1.1 3.3 4.2 1.7 6.3l-17.3 21.5Z" fill="#FBBC04"/><path d="M152 196c0 2.8-2.2 5-5 5-2.8.1-5-2.2-5-5s2.2-5 5-5c2.7 0 5 2.2 5 5Z" fill="#D2E3FC"/><path d="m569.823 61.523-19.7-14.7c-1.2-.9-1.5-2.7-.6-4l14.7-19.7c.9-1.2 2.7-1.5 4-.6l19.7 14.7c1.2.9 1.5 2.7.6 4l-14.7 19.7c-1 1.2-2.8 1.5-4 .6Z" fill="#FBBC04"/><path fill-rule="evenodd" clip-rule="evenodd" d="M62.615 97.004c-.572-.05-1.063.368-1.11.895v.004L59.004 124v.002c-.052.572.367 1.063.893 1.111l.005.001L86 127.613c.573.051 1.065-.368 1.113-.895l.001-.004 2.5-26.096v-.001c.05-.573-.369-1.065-.896-1.113h-.004l-26.096-2.5h-.002Zm-3.103.712c.154-1.672 1.66-2.851 3.287-2.703h.004l26.096 2.5h.002c1.672.153 2.851 1.66 2.703 3.286v.005l-2.5 26.096v.002c-.154 1.672-1.66 2.851-3.287 2.703l-.004-.001-26.096-2.499h-.002c-1.672-.154-2.85-1.661-2.703-3.287v-.004l2.5-26.096v-.002Z" fill="#34A853"/><path d="m422.844 21.358-3.84 14.413c-.354 1.155.721 2.193 1.898 1.877l14.371-3.85c1.115-.3 1.527-1.735.705-2.575l-10.656-10.528c-.76-.857-2.185-.475-2.478.663Z" fill="#DADCE0"/><path d="m390.239 48.782-.002-.002-15.739-11.745h-.001c-.515-.387-.675-1.208-.265-1.814l11.732-15.723.001-.001c.387-.515 1.208-.675 1.814-.265l15.723 11.733h.001c.515.387.675 1.208.265 1.814L392.052 48.48c-.505.588-1.339.657-1.813.302Z" stroke="#DADCE0" stroke-width="2"/><path d="M251.164 185.09c-1.431.641-3.07-.286-3.305-1.801-.551-4.595 1.954-9.243 6.351-11.242 4.503-2.075 9.441-.808 12.41 2.738.962 1.233.521 3.056-.86 3.722l-14.596 6.583Z" fill="#34A853"/><path d="M298.579 176.403a7 7 0 0 1 6.508 2.58l7.301 9.222a7.004 7.004 0 0 1 1.019 6.926l-4.336 10.934a7 7 0 0 1-5.489 4.345l-11.637 1.712a7 7 0 0 1-6.507-2.581l-7.301-9.222a7 7 0 0 1-1.019-6.925l4.336-10.934a7 7 0 0 1 5.488-4.345l11.637-1.712Z" stroke="#FA7B17" stroke-width="2"/><circle cx="340" cy="113" r="28" fill="#4285F4"/><path fill-rule="evenodd" clip-rule="evenodd" d="M281.962 78.33C299.466 69.176 319.379 64 340.5 64c40.663 0 76.845 19.186 99.987 49a127.076 127.076 0 0 1-39.595 33.681L281.962 78.33Z" fill="#F1F3F4"/><path fill-rule="evenodd" clip-rule="evenodd" d="m364.764 126.079-48.53-27.89C321.18 90.268 329.975 85 340 85c15.464 0 28 12.536 28 28a27.88 27.88 0 0 1-3.236 13.079Z" fill="#DADCE0"/><path d="m253.498 62.133 174 100" stroke="#4285F4" stroke-width="2" stroke-linecap="round"/></g><defs><clipPath id="a"><path fill="#fff" d="M0 0h680v226H0z"/></clipPath></defs></svg>