<?xml version="1.0" encoding="UTF-8"?>
<!--Generator: Apple Native CoreSVG 341-->
<!DOCTYPE svg
PUBLIC "-//W3C//DTD SVG 1.1//EN"
       "http://www.w3.org/Graphics/SVG/1.1/DTD/svg11.dtd">
<svg version="1.1" xmlns="http://www.w3.org/2000/svg" xmlns:xlink="http://www.w3.org/1999/xlink" viewBox="0 0 3300 2200">
 <!--glyph: "", point size: 100.0, font version: "20.0d10e1", template writer version: "138.0.0"-->
 <style>.monochrome-0 {-sfsymbols-motion-group:2;-sfsymbols-layer-tags:5a963ea63205f286}
.monochrome-1 {-sfsymbols-motion-group:1;-sfsymbols-layer-tags:5a963ea63205f286}
.monochrome-2 {opacity:0.0;-sfsymbols-clear-behind:true;-sfsymbols-motion-group:0;-sfsymbols-layer-tags:5a963ea63205f286}

.multicolor-0:tintColor {-sfsymbols-motion-group:2;-sfsymbols-layer-tags:5a963ea63205f286}
.multicolor-1:tintColor {-sfsymbols-motion-group:1;-sfsymbols-layer-tags:5a963ea63205f286}
.multicolor-2:tintColor {opacity:0.0;-sfsymbols-clear-behind:true;-sfsymbols-motion-group:0;-sfsymbols-layer-tags:5a963ea63205f286}

.hierarchical-0:secondary {-sfsymbols-motion-group:2;-sfsymbols-layer-tags:5a963ea63205f286}
.hierarchical-1:primary {-sfsymbols-motion-group:1;-sfsymbols-layer-tags:5a963ea63205f286}
.hierarchical-2:primary {opacity:0.0;-sfsymbols-clear-behind:true;-sfsymbols-motion-group:0;-sfsymbols-layer-tags:5a963ea63205f286}

.SFSymbolsPreviewWireframe {fill:none;opacity:1.0;stroke:black;stroke-width:0.5}
</style>
 <g id="Notes">
  <rect height="2200" id="artboard" style="fill:white;opacity:1" width="3300" x="0" y="0"/>
  <line style="fill:none;stroke:black;opacity:1;stroke-width:0.5;" x1="263" x2="3036" y1="292" y2="292"/>
  <text style="stroke:none;fill:black;font-family:sans-serif;font-size:13;font-weight:bold;" transform="matrix(1 0 0 1 263 322)">Weight/Scale Variations</text>
  <text style="stroke:none;fill:black;font-family:sans-serif;font-size:13;text-anchor:middle;" transform="matrix(1 0 0 1 559.711 322)">Ultralight</text>
  <text style="stroke:none;fill:black;font-family:sans-serif;font-size:13;text-anchor:middle;" transform="matrix(1 0 0 1 856.422 322)">Thin</text>
  <text style="stroke:none;fill:black;font-family:sans-serif;font-size:13;text-anchor:middle;" transform="matrix(1 0 0 1 1153.13 322)">Light</text>
  <text style="stroke:none;fill:black;font-family:sans-serif;font-size:13;text-anchor:middle;" transform="matrix(1 0 0 1 1449.84 322)">Regular</text>
  <text style="stroke:none;fill:black;font-family:sans-serif;font-size:13;text-anchor:middle;" transform="matrix(1 0 0 1 1746.56 322)">Medium</text>
  <text style="stroke:none;fill:black;font-family:sans-serif;font-size:13;text-anchor:middle;" transform="matrix(1 0 0 1 2043.27 322)">Semibold</text>
  <text style="stroke:none;fill:black;font-family:sans-serif;font-size:13;text-anchor:middle;" transform="matrix(1 0 0 1 2339.98 322)">Bold</text>
  <text style="stroke:none;fill:black;font-family:sans-serif;font-size:13;text-anchor:middle;" transform="matrix(1 0 0 1 2636.69 322)">Heavy</text>
  <text style="stroke:none;fill:black;font-family:sans-serif;font-size:13;text-anchor:middle;" transform="matrix(1 0 0 1 2933.4 322)">Black</text>
  <line style="fill:none;stroke:black;opacity:1;stroke-width:0.5;" x1="263" x2="3036" y1="1903" y2="1903"/>
  <g transform="matrix(0.2 0 0 0.2 263 1933)">
   <path d="m46.2402 4.15039c21.7773 0 39.4531-17.627 39.4531-39.4043s-17.6758-39.4043-39.4531-39.4043c-21.7285 0-39.4043 17.627-39.4043 39.4043s17.6758 39.4043 39.4043 39.4043Zm0-7.42188c-17.6758 0-31.9336-14.3066-31.9336-31.9824s14.2578-31.9824 31.9336-31.9824 31.9824 14.3066 31.9824 31.9824-14.3066 31.9824-31.9824 31.9824Zm-17.9688-31.9824c0 2.14844 1.51367 3.61328 3.75977 3.61328h10.498v10.5957c0 2.19727 1.46484 3.71094 3.61328 3.71094 2.24609 0 3.71094-1.51367 3.71094-3.71094v-10.5957h10.5957c2.19727 0 3.71094-1.46484 3.71094-3.61328 0-2.19727-1.51367-3.71094-3.71094-3.71094h-10.5957v-10.5469c0-2.24609-1.46484-3.75977-3.71094-3.75977-2.14844 0-3.61328 1.51367-3.61328 3.75977v10.5469h-10.498c-2.24609 0-3.75977 1.51367-3.75977 3.71094Z"/>
  </g>
  <g transform="matrix(0.2 0 0 0.2 281.506 1933)">
   <path d="m58.5449 14.5508c27.4902 0 49.8047-22.3145 49.8047-49.8047s-22.3145-49.8047-49.8047-49.8047-49.8047 22.3145-49.8047 49.8047 22.3145 49.8047 49.8047 49.8047Zm0-8.30078c-22.9492 0-41.5039-18.5547-41.5039-41.5039s18.5547-41.5039 41.5039-41.5039 41.5039 18.5547 41.5039 41.5039-18.5547 41.5039-41.5039 41.5039Zm-22.6562-41.5039c0 2.39258 1.66016 4.00391 4.15039 4.00391h14.3555v14.4043c0 2.44141 1.66016 4.15039 4.05273 4.15039 2.44141 0 4.15039-1.66016 4.15039-4.15039v-14.4043h14.4043c2.44141 0 4.15039-1.61133 4.15039-4.00391 0-2.44141-1.70898-4.15039-4.15039-4.15039h-14.4043v-14.3555c0-2.49023-1.70898-4.19922-4.15039-4.19922-2.39258 0-4.05273 1.70898-4.05273 4.19922v14.3555h-14.3555c-2.49023 0-4.15039 1.70898-4.15039 4.15039Z"/>
  </g>
  <g transform="matrix(0.2 0 0 0.2 304.924 1933)">
   <path d="m74.8535 28.3203c35.1074 0 63.623-28.4668 63.623-63.5742s-28.5156-63.623-63.623-63.623-63.5742 28.5156-63.5742 63.623 28.4668 63.5742 63.5742 63.5742Zm0-9.08203c-30.127 0-54.4922-24.3652-54.4922-54.4922s24.3652-54.4922 54.4922-54.4922 54.4922 24.3652 54.4922 54.4922-24.3652 54.4922-54.4922 54.4922Zm-28.8574-54.4922c0 2.58789 1.85547 4.39453 4.58984 4.39453h19.7266v19.7754c0 2.68555 1.85547 4.58984 4.44336 4.58984 2.68555 0 4.54102-1.85547 4.54102-4.58984v-19.7754h19.7754c2.68555 0 4.58984-1.80664 4.58984-4.39453 0-2.73438-1.85547-4.58984-4.58984-4.58984h-19.7754v-19.7266c0-2.73438-1.85547-4.63867-4.54102-4.63867-2.58789 0-4.44336 1.9043-4.44336 4.63867v19.7266h-19.7266c-2.73438 0-4.58984 1.85547-4.58984 4.58984Z"/>
  </g>
  <text style="stroke:none;fill:black;font-family:sans-serif;font-size:13;font-weight:bold;" transform="matrix(1 0 0 1 263 1953)">Design Variations</text>
  <text style="stroke:none;fill:black;font-family:sans-serif;font-size:13;" transform="matrix(1 0 0 1 263 1971)">Symbols are supported in up to nine weights and three scales.</text>
  <text style="stroke:none;fill:black;font-family:sans-serif;font-size:13;" transform="matrix(1 0 0 1 263 1989)">For optimal layout with text and other symbols, vertically align</text>
  <text style="stroke:none;fill:black;font-family:sans-serif;font-size:13;" transform="matrix(1 0 0 1 263 2007)">symbols with the adjacent text.</text>
  <line style="fill:none;stroke:#00AEEF;stroke-width:0.5;opacity:1.0;" x1="776" x2="776" y1="1919" y2="1933"/>
  <g transform="matrix(0.2 0 0 0.2 776 1933)">
   <path d="m16.5527 0.78125c2.58789 0 3.85742-0.976562 4.78516-3.71094l6.29883-17.2363h28.8086l6.29883 17.2363c0.927734 2.73438 2.19727 3.71094 4.73633 3.71094 2.58789 0 4.24805-1.5625 4.24805-4.00391 0-0.830078-0.146484-1.61133-0.537109-2.63672l-22.9004-60.9863c-1.12305-2.97852-3.125-4.49219-6.25-4.49219-3.02734 0-5.07812 1.46484-6.15234 4.44336l-22.9004 61.084c-0.390625 1.02539-0.537109 1.80664-0.537109 2.63672 0 2.44141 1.5625 3.95508 4.10156 3.95508Zm13.4766-28.3691 11.8652-32.8613h0.244141l11.8652 32.8613Z"/>
  </g>
  <line style="fill:none;stroke:#00AEEF;stroke-width:0.5;opacity:1.0;" x1="792.836" x2="792.836" y1="1919" y2="1933"/>
  <text style="stroke:none;fill:black;font-family:sans-serif;font-size:13;font-weight:bold;" transform="matrix(1 0 0 1 776 1953)">Margins</text>
  <text style="stroke:none;fill:black;font-family:sans-serif;font-size:13;" transform="matrix(1 0 0 1 776 1971)">Leading and trailing margins on the left and right side of each symbol</text>
  <text style="stroke:none;fill:black;font-family:sans-serif;font-size:13;" transform="matrix(1 0 0 1 776 1989)">can be adjusted by modifying the x-location of the margin guidelines.</text>
  <text style="stroke:none;fill:black;font-family:sans-serif;font-size:13;" transform="matrix(1 0 0 1 776 2007)">Modifications are automatically applied proportionally to all</text>
  <text style="stroke:none;fill:black;font-family:sans-serif;font-size:13;" transform="matrix(1 0 0 1 776 2025)">scales and weights.</text>
  <g transform="matrix(0.2 0 0 0.2 1289 1933)">
   <path d="m14.209 9.32617 8.49609 8.54492c4.29688 4.3457 9.22852 4.05273 13.8672-1.07422l53.4668-58.9355-4.83398-4.88281-53.0762 58.3984c-1.75781 2.00195-3.41797 2.49023-5.76172 0.146484l-5.85938-5.81055c-2.34375-2.29492-1.80664-4.00391 0.195312-5.81055l57.373-54.0039-4.88281-4.83398-57.959 54.4434c-4.93164 4.58984-5.32227 9.47266-1.02539 13.8184Zm32.0801-90.9668c-2.09961 2.05078-2.24609 4.93164-1.07422 6.88477 1.17188 1.80664 3.4668 2.97852 6.68945 2.14844 7.32422-1.70898 14.9414-2.00195 22.0703 2.68555l-2.92969 7.27539c-1.70898 4.15039-0.830078 7.08008 1.85547 9.81445l11.4746 11.5723c2.44141 2.44141 4.49219 2.53906 7.32422 2.05078l5.32227-0.976562 3.32031 3.36914-0.195312 2.7832c-0.195312 2.49023 0.439453 4.39453 2.88086 6.78711l3.80859 3.71094c2.39258 2.39258 5.46875 2.53906 7.8125 0.195312l14.5508-14.5996c2.34375-2.34375 2.24609-5.32227-0.146484-7.71484l-3.85742-3.80859c-2.39258-2.39258-4.24805-3.17383-6.64062-2.97852l-2.88086 0.244141-3.22266-3.17383 1.2207-5.61523c0.634766-2.83203-0.146484-5.0293-3.07617-7.95898l-10.9863-10.9375c-16.6992-16.6016-38.8672-16.2109-53.3203-1.75781Zm7.4707 1.85547c12.1582-8.88672 28.6133-7.37305 39.7461 3.75977l12.1582 12.0605c1.17188 1.17188 1.36719 2.09961 1.02539 3.80859l-1.61133 7.42188 7.51953 7.42188 4.93164-0.292969c1.26953-0.0488281 1.66016 0.0488281 2.63672 1.02539l2.88086 2.88086-12.207 12.207-2.88086-2.88086c-0.976562-0.976562-1.12305-1.36719-1.07422-2.68555l0.341797-4.88281-7.4707-7.42188-7.61719 1.26953c-1.61133 0.341797-2.34375 0.195312-3.56445-0.976562l-10.0098-10.0098c-1.26953-1.17188-1.41602-2.00195-0.634766-3.85742l4.39453-10.4492c-7.8125-7.27539-17.9688-10.4004-28.125-7.42188-0.78125 0.195312-1.07422-0.439453-0.439453-0.976562Z"/>
  </g>
  <text style="stroke:none;fill:black;font-family:sans-serif;font-size:13;font-weight:bold;" transform="matrix(1 0 0 1 1289 1953)">Exporting</text>
  <text style="stroke:none;fill:black;font-family:sans-serif;font-size:13;" transform="matrix(1 0 0 1 1289 1971)">Symbols should be outlined when exporting to ensure the</text>
  <text style="stroke:none;fill:black;font-family:sans-serif;font-size:13;" transform="matrix(1 0 0 1 1289 1989)">design is preserved when submitting to Xcode.</text>
  <text id="template-version" style="stroke:none;fill:black;font-family:sans-serif;font-size:13;text-anchor:end;" transform="matrix(1 0 0 1 3036 1933)">Template v.6.0</text>
  <text style="stroke:none;fill:black;font-family:sans-serif;font-size:13;text-anchor:end;" transform="matrix(1 0 0 1 3036 1951)">Requires Xcode 16 or greater</text>
  <text id="descriptive-name" style="stroke:none;fill:black;font-family:sans-serif;font-size:13;text-anchor:end;" transform="matrix(1 0 0 1 3036 1969)">Generated from incognito.rectangle</text>
  <text style="stroke:none;fill:black;font-family:sans-serif;font-size:13;text-anchor:end;" transform="matrix(1 0 0 1 3036 1987)">Typeset at 100.0 points</text>
  <text style="stroke:none;fill:black;font-family:sans-serif;font-size:13;" transform="matrix(1 0 0 1 263 726)">Small</text>
  <text style="stroke:none;fill:black;font-family:sans-serif;font-size:13;" transform="matrix(1 0 0 1 263 1156)">Medium</text>
  <text style="stroke:none;fill:black;font-family:sans-serif;font-size:13;" transform="matrix(1 0 0 1 263 1586)">Large</text>
 </g>
 <g id="Guides">
  <g id="H-reference" style="fill:#27AAE1;stroke:none;" transform="matrix(1 0 0 1 339 696)">
   <path d="M0.993654 0L3.63775 0L29.3281-67.1323L30.0303-67.1323L30.0303-70.459L28.1226-70.459ZM11.6885-24.4799L46.9815-24.4799L46.2315-26.7285L12.4385-26.7285ZM55.1196 0L57.7637 0L30.6382-70.459L29.4326-70.459L29.4326-67.1323Z"/>
  </g>
  <line id="Baseline-S" style="fill:none;stroke:#27AAE1;opacity:1;stroke-width:0.5;" x1="263" x2="3036" y1="696" y2="696"/>
  <line id="Capline-S" style="fill:none;stroke:#27AAE1;opacity:1;stroke-width:0.5;" x1="263" x2="3036" y1="625.541" y2="625.541"/>
  <g id="H-reference" style="fill:#27AAE1;stroke:none;" transform="matrix(1 0 0 1 339 1126)">
   <path d="M0.993654 0L3.63775 0L29.3281-67.1323L30.0303-67.1323L30.0303-70.459L28.1226-70.459ZM11.6885-24.4799L46.9815-24.4799L46.2315-26.7285L12.4385-26.7285ZM55.1196 0L57.7637 0L30.6382-70.459L29.4326-70.459L29.4326-67.1323Z"/>
  </g>
  <line id="Baseline-M" style="fill:none;stroke:#27AAE1;opacity:1;stroke-width:0.5;" x1="263" x2="3036" y1="1126" y2="1126"/>
  <line id="Capline-M" style="fill:none;stroke:#27AAE1;opacity:1;stroke-width:0.5;" x1="263" x2="3036" y1="1055.54" y2="1055.54"/>
  <g id="H-reference" style="fill:#27AAE1;stroke:none;" transform="matrix(1 0 0 1 339 1556)">
   <path d="M0.993654 0L3.63775 0L29.3281-67.1323L30.0303-67.1323L30.0303-70.459L28.1226-70.459ZM11.6885-24.4799L46.9815-24.4799L46.2315-26.7285L12.4385-26.7285ZM55.1196 0L57.7637 0L30.6382-70.459L29.4326-70.459L29.4326-67.1323Z"/>
  </g>
  <line id="Baseline-L" style="fill:none;stroke:#27AAE1;opacity:1;stroke-width:0.5;" x1="263" x2="3036" y1="1556" y2="1556"/>
  <line id="Capline-L" style="fill:none;stroke:#27AAE1;opacity:1;stroke-width:0.5;" x1="263" x2="3036" y1="1485.54" y2="1485.54"/>
  <line id="right-margin-Regular-M" style="fill:none;stroke:#00AEEF;stroke-width:0.5;opacity:1.0;" x1="1519.85" x2="1519.85" y1="1030.79" y2="1150.12"/>
  <line id="left-margin-Regular-M" style="fill:none;stroke:#00AEEF;stroke-width:0.5;opacity:1.0;" x1="1379.84" x2="1379.84" y1="1030.79" y2="1150.12"/>
 </g>
 <g id="Symbols">
  <g id="Black-L" transform="matrix(1 0 0 1 2845.18 1556)">
   <path class="monochrome-0 multicolor-0:tintColor hierarchical-0:secondary SFSymbolsPreviewWireframe" d="M36.24 26.42L140.21 26.42C155.38 26.42 163.98 17.81 163.98 2.71L163.98-73.09C163.98-88.19 155.38-96.8 140.21-96.8L36.24-96.8C21.09-96.8 12.46-88.19 12.46-73.09L12.46 2.71C12.46 17.81 21.09 26.42 36.24 26.42ZM38.97 6.42C34.65 6.42 32.45 4.49 32.45-0.12L32.45-70.26C32.45-74.89 34.65-76.8 38.97-76.8L137.48-76.8C141.79-76.8 144-74.89 144-70.26L144-0.12C144 4.49 141.79 6.42 137.48 6.42L38.97 6.42Z"/>
   <path class="monochrome-1 multicolor-1:tintColor hierarchical-1:primary SFSymbolsPreviewWireframe" d="M102.46-65.87L112.8-42.73L123.99-42.73C126.62-42.73 128.74-40.61 128.74-37.98C128.74-35.36 126.62-33.23 123.99-33.23L52.45-33.23C49.83-33.23 47.7-35.36 47.7-37.98C47.7-40.61 49.83-42.73 52.45-42.73L62.37-42.73L72.61-65.84C74.18-69.4 78.15-71.24 81.88-70.14L87.53-68.48L93.2-70.14C96.92-71.24 100.88-69.41 102.46-65.87ZM52.91-15.06C52.91-23.41 59.69-30.19 68.04-30.19C74.34-30.19 79.73-26.35 82.02-20.88C83.86-21.6 85.75-22.02 87.76-22.02C89.77-22.02 91.67-21.6 93.51-20.88C95.79-26.35 101.19-30.19 107.48-30.19C115.84-30.19 122.62-23.41 122.62-15.06C122.62-6.7 115.84 0.08 107.48 0.08C100.72 0.08 94.99-4.36 93.05-10.49C90.4-12.12 88.89-12.52 87.76-12.52C86.64-12.52 85.13-12.12 82.48-10.49C80.54-4.36 74.81 0.08 68.04 0.08C59.69 0.08 52.91-6.7 52.91-15.06Z"/>
   <path class="monochrome-1 monochrome-2 multicolor-1:tintColor multicolor-2:tintColor hierarchical-1:primary hierarchical-2:primary SFSymbolsPreviewWireframe" d="M88.96-58.99L94.41-60.6L102.4-42.73L72.76-42.73L80.67-60.59L86.11-58.99C86.58-58.85 87.06-58.79 87.53-58.8C88-58.79 88.49-58.85 88.96-58.99ZM68.04-9.42C64.93-9.42 62.41-11.94 62.41-15.06C62.41-18.17 64.93-20.69 68.04-20.69C71.16-20.69 73.68-18.17 73.68-15.06C73.68-11.94 71.16-9.42 68.04-9.42ZM101.85-15.06C101.85-11.94 104.37-9.42 107.48-9.42C110.59-9.42 113.12-11.94 113.12-15.06C113.12-18.17 110.59-20.69 107.48-20.69C104.37-20.69 101.85-18.17 101.85-15.06Z"/>
  </g>
  <g id="Heavy-L" transform="matrix(1 0 0 1 2548.85 1556)">
   <path class="monochrome-0 multicolor-0:tintColor hierarchical-0:secondary SFSymbolsPreviewWireframe" d="M35.21 25.5L140.47 25.5C155.11 25.5 163.21 17.39 163.21 2.85L163.21-73.24C163.21-87.78 155.11-95.89 140.47-95.89L35.21-95.89C20.6-95.89 12.46-87.79 12.46-73.24L12.46 2.85C12.46 17.4 20.6 25.5 35.21 25.5ZM37.33 7.97C32.5 7.97 29.96 5.68 29.96 0.57L29.96-70.96C29.96-76.1 32.5-78.36 37.33-78.36L138.34-78.36C143.16-78.36 145.71-76.1 145.71-70.96L145.71 0.57C145.71 5.68 143.16 7.97 138.34 7.97L37.33 7.97Z"/>
   <path class="monochrome-1 multicolor-1:tintColor hierarchical-1:primary SFSymbolsPreviewWireframe" d="M101.85-65.9L112.26-42.61L123.61-42.61C126.09-42.61 128.11-40.6 128.11-38.11C128.11-35.63 126.09-33.61 123.61-33.61L52.07-33.61C49.58-33.61 47.57-35.63 47.57-38.11C47.57-40.6 49.58-42.61 52.07-42.61L62.14-42.61L62.16-42.64L72.45-65.87C73.97-69.31 77.81-71.09 81.42-70.03L87.15-68.35L92.88-70.03C96.49-71.09 100.32-69.32 101.85-65.9ZM52.91-15.18C52.91-23.54 59.69-30.32 68.05-30.32C74.38-30.32 79.8-26.43 82.06-20.91C83.77-21.53 85.53-21.9 87.38-21.9C89.23-21.9 90.98-21.53 92.7-20.91C94.95-26.43 100.38-30.32 106.71-30.32C115.07-30.32 121.84-23.54 121.84-15.18C121.84-6.83 115.07-0.05 106.71-0.05C99.71-0.05 93.83-4.8 92.09-11.25C89.84-12.54 88.46-12.9 87.38-12.9C86.29-12.9 84.91-12.54 82.66-11.25C80.93-4.8 75.04-0.05 68.05-0.05C59.69-0.05 52.91-6.83 52.91-15.18Z"/>
   <path class="monochrome-1 monochrome-2 multicolor-1:tintColor multicolor-2:tintColor hierarchical-1:primary hierarchical-2:primary SFSymbolsPreviewWireframe" d="M88.51-59.36L94.17-61.03L102.4-42.61L71.99-42.61L80.15-61.02L85.79-59.36C86.24-59.23 86.7-59.17 87.15-59.18C87.6-59.17 88.05-59.23 88.51-59.36ZM68.05-9.05C64.66-9.05 61.91-11.8 61.91-15.18C61.91-18.57 64.66-21.32 68.05-21.32C71.43-21.32 74.18-18.57 74.18-15.18C74.18-11.8 71.43-9.05 68.05-9.05ZM100.58-15.18C100.58-11.8 103.32-9.05 106.71-9.05C110.1-9.05 112.84-11.8 112.84-15.18C112.84-18.57 110.1-21.32 106.71-21.32C103.32-21.32 100.58-18.57 100.58-15.18Z"/>
  </g>
  <g id="Bold-L" transform="matrix(1 0 0 1 2252.63 1556)">
   <path class="monochrome-0 multicolor-0:tintColor hierarchical-0:secondary SFSymbolsPreviewWireframe" d="M33.92 24.36L140.77 24.36C154.73 24.36 162.23 16.83 162.23 3.02L162.23-73.42C162.23-87.23 154.73-94.77 140.77-94.77L33.92-94.77C20.01-94.77 12.46-87.26 12.46-73.42L12.46 3.02C12.46 16.85 20.01 24.36 33.92 24.36ZM35.37 9.88C29.85 9.88 26.91 7.13 26.91 1.38L26.91-71.79C26.91-77.58 29.85-80.29 35.37-80.29L139.33-80.29C144.8-80.29 147.79-77.58 147.79-71.79L147.79 1.38C147.79 7.13 144.8 9.88 139.33 9.88L35.37 9.88Z"/>
   <path class="monochrome-1 multicolor-1:tintColor hierarchical-1:primary SFSymbolsPreviewWireframe" d="M111.32-42.65C111.36-42.55 111.39-42.46 111.43-42.37L123.12-42.37C125.33-42.37 127.12-40.58 127.12-38.37C127.12-36.16 125.33-34.37 123.12-34.37L51.58-34.37C49.37-34.37 47.58-36.16 47.58-38.37C47.58-40.58 49.37-42.37 51.58-42.37L62-42.37C62.03-42.48 62.08-42.59 62.12-42.7L72.42-65.93C73.84-69.14 77.42-70.8 80.79-69.81L86.66-68.08L92.53-69.81C95.9-70.8 99.47-69.15 100.9-65.95L111.32-42.65ZM52.42-15.44C52.42-23.8 59.2-30.58 67.56-30.58C74.07-30.58 79.62-26.47 81.75-20.7C83.42-21.31 85.11-21.66 86.89-21.66C88.67-21.66 90.36-21.31 92.02-20.7C94.16-26.47 99.71-30.58 106.22-30.58C114.58-30.58 121.35-23.8 121.35-15.44C121.35-7.08 114.58-0.31 106.22-0.31C98.98-0.31 92.94-5.39 91.44-12.17C89.38-13.31 88.02-13.66 86.89-13.66C85.76-13.66 84.39-13.31 82.33-12.17C80.84-5.39 74.79-0.31 67.56-0.31C59.2-0.31 52.42-7.08 52.42-15.44Z"/>
   <path class="monochrome-1 monochrome-2 multicolor-1:tintColor multicolor-2:tintColor hierarchical-1:primary hierarchical-2:primary SFSymbolsPreviewWireframe" d="M87.87-60.1L93.95-61.89L102.68-42.37L70.73-42.37L79.37-61.89L85.44-60.1C85.85-59.98 86.26-59.93 86.66-59.94C87.06-59.93 87.47-59.98 87.87-60.1ZM67.56-8.31C63.62-8.31 60.42-11.5 60.42-15.44C60.42-19.38 63.62-22.58 67.56-22.58C71.49-22.58 74.69-19.38 74.69-15.44C74.69-11.5 71.49-8.31 67.56-8.31ZM99.09-15.44C99.09-11.5 102.28-8.31 106.22-8.31C110.16-8.31 113.35-11.5 113.35-15.44C113.35-19.38 110.16-22.58 106.22-22.58C102.28-22.58 99.09-19.38 99.09-15.44Z"/>
  </g>
  <g id="Semibold-L" transform="matrix(1 0 0 1 1956.26 1556)">
   <path class="monochrome-0 multicolor-0:tintColor hierarchical-0:secondary SFSymbolsPreviewWireframe" d="M33.03 23.57L140.99 23.57C154.46 23.57 161.55 16.44 161.55 3.13L161.55-73.55C161.55-86.86 154.46-93.99 140.99-93.99L33.03-93.99C19.6-93.99 12.46-86.9 12.46-73.55L12.46 3.13C12.46 16.48 19.6 23.57 33.03 23.57ZM34.01 11.19C28.02 11.19 24.8 8.13 24.8 1.94L24.8-72.35C24.8-78.59 28.02-81.61 34.01-81.61L140.01-81.61C145.92-81.61 149.22-78.59 149.22-72.35L149.22 1.94C149.22 8.13 145.92 11.19 140.01 11.19L34.01 11.19Z"/>
   <path class="monochrome-1 multicolor-1:tintColor hierarchical-1:primary SFSymbolsPreviewWireframe" d="M110.75-42.67C110.81-42.53 110.87-42.39 110.91-42.25L122.78-42.25C124.85-42.25 126.53-40.57 126.53-38.5C126.53-36.43 124.85-34.75 122.78-34.75L51.24-34.75C49.17-34.75 47.49-36.43 47.49-38.5C47.49-40.57 49.17-42.25 51.24-42.25L61.84-42.25C61.89-42.41 61.95-42.57 62.02-42.73L72.31-65.96C73.68-69.05 77.13-70.65 80.38-69.7L86.32-67.95L92.27-69.7C95.51-70.65 98.96-69.06 100.34-65.98L110.75-42.67ZM51.7-15.57C51.7-23.93 58.47-30.71 66.83-30.71C73.48-30.71 79.12-26.42 81.16-20.46C82.91-21.15 84.69-21.54 86.55-21.54C88.42-21.54 90.19-21.15 91.94-20.46C93.98-26.42 99.62-30.71 106.27-30.71C114.63-30.71 121.4-23.93 121.4-15.57C121.4-7.22 114.63-0.44 106.27-0.44C99.01-0.44 92.94-5.56 91.47-12.38C89.26-13.64 87.79-14.04 86.55-14.04C85.31-14.04 83.84-13.64 81.63-12.38C80.16-5.56 74.09-0.44 66.83-0.44C58.47-0.44 51.7-7.22 51.7-15.57Z"/>
   <path class="monochrome-1 monochrome-2 multicolor-1:tintColor multicolor-2:tintColor hierarchical-1:primary hierarchical-2:primary SFSymbolsPreviewWireframe" d="M87.47-60.47L93.76-62.32L102.73-42.25L70.01-42.25L78.9-62.32L85.18-60.47C85.56-60.36 85.94-60.31 86.32-60.32C86.7-60.31 87.08-60.36 87.47-60.47ZM66.83-7.94C62.62-7.94 59.2-11.36 59.2-15.57C59.2-19.79 62.62-23.21 66.83-23.21C71.05-23.21 74.46-19.79 74.46-15.57C74.46-11.36 71.05-7.94 66.83-7.94ZM98.64-15.57C98.64-11.36 102.05-7.94 106.27-7.94C110.49-7.94 113.9-11.36 113.9-15.57C113.9-19.79 110.49-23.21 106.27-23.21C102.05-23.21 98.64-19.79 98.64-15.57Z"/>
  </g>
  <g id="Medium-L" transform="matrix(1 0 0 1 1659.81 1556)">
   <path class="monochrome-0 multicolor-0:tintColor hierarchical-0:secondary SFSymbolsPreviewWireframe" d="M32.36 22.97L141.14 22.97C154.26 22.97 161.04 16.15 161.04 3.22L161.04-73.65C161.04-86.57 154.26-93.4 141.14-93.4L32.36-93.4C19.29-93.4 12.46-86.62 12.46-73.65L12.46 3.22C12.46 16.2 19.29 22.97 32.36 22.97ZM32.98 12.19C26.63 12.19 23.2 8.89 23.2 2.36L23.2-72.78C23.2-79.36 26.63-82.61 32.98-82.61L140.52-82.61C146.78-82.61 150.3-79.36 150.3-72.78L150.3 2.36C150.3 8.89 146.78 12.19 140.52 12.19L32.98 12.19Z"/>
   <path class="monochrome-1 multicolor-1:tintColor hierarchical-1:primary SFSymbolsPreviewWireframe" d="M110.04-42.72C110.14-42.49 110.22-42.25 110.26-42L122.52-42C124.32-42 125.77-40.55 125.77-38.75C125.77-36.96 124.32-35.5 122.52-35.5L50.98-35.5C49.19-35.5 47.73-36.96 47.73-38.75C47.73-40.55 49.19-42 50.98-42L61.98-42C62.02-42.27 62.1-42.53 62.21-42.78L72.51-66.01C73.78-68.88 76.97-70.36 79.98-69.47L86.06-67.69L92.15-69.48C95.15-70.36 98.34-68.89 99.62-66.03L110.04-42.72ZM51.44-15.83C51.44-24.19 58.22-30.96 66.57-30.96C73.4-30.96 79.16-26.45 81.05-20.24C82.77-20.91 84.49-21.29 86.29-21.29C88.09-21.29 89.82-20.91 91.53-20.24C93.42-26.45 99.19-30.96 106.01-30.96C114.37-30.96 121.14-24.19 121.14-15.83C121.14-7.47 114.37-0.69 106.01-0.69C98.52-0.69 92.31-6.13 91.09-13.28C89.03-14.4 87.57-14.79 86.29-14.79C85.01-14.79 83.55-14.4 81.49-13.28C80.28-6.13 74.06-0.69 66.57-0.69C58.22-0.69 51.44-7.47 51.44-15.83Z"/>
   <path class="monochrome-1 monochrome-2 multicolor-1:tintColor multicolor-2:tintColor hierarchical-1:primary hierarchical-2:primary SFSymbolsPreviewWireframe" d="M87.07-61.21L93.77-63.18L103.24-42L68.98-42L78.36-63.18L85.06-61.21C85.39-61.11 85.73-61.06 86.06-61.07C86.39-61.06 86.73-61.11 87.07-61.21ZM66.57-7.19C61.8-7.19 57.94-11.06 57.94-15.83C57.94-20.6 61.8-24.46 66.57-24.46C71.34-24.46 75.21-20.6 75.21-15.83C75.21-11.06 71.34-7.19 66.57-7.19ZM97.38-15.83C97.38-11.06 101.24-7.19 106.01-7.19C110.78-7.19 114.64-11.06 114.64-15.83C114.64-20.6 110.78-24.46 106.01-24.46C101.24-24.46 97.38-20.6 97.38-15.83Z"/>
  </g>
  <g id="Regular-L" transform="matrix(1 0 0 1 1363.43 1556)">
   <path class="monochrome-0 multicolor-0:tintColor hierarchical-0:secondary SFSymbolsPreviewWireframe" d="M31.48 22.19L141.36 22.19C154 22.19 160.37 15.77 160.37 3.34L160.37-73.77C160.37-86.2 154-92.63 141.36-92.63L31.48-92.63C18.89-92.63 12.46-86.26 12.46-73.77L12.46 3.34C12.46 15.82 18.89 22.19 31.48 22.19ZM31.64 13.49C24.83 13.49 21.11 9.88 21.11 2.91L21.11-73.35C21.11-80.37 24.83-83.93 31.64-83.93L141.2-83.93C147.9-83.93 151.72-80.37 151.72-73.35L151.72 2.91C151.72 9.88 147.9 13.49 141.2 13.49L31.64 13.49Z"/>
   <path class="monochrome-1 multicolor-1:tintColor hierarchical-1:primary SFSymbolsPreviewWireframe" d="M98.94-66.04L109.6-41.83L122.19-41.83C123.77-41.83 125.06-40.54 125.06-38.95C125.06-37.36 123.77-36.08 122.19-36.08L107.79-36.08C107.75-36.07 107.7-36.07 107.66-36.08L64.09-36.08C64.05-36.07 64.01-36.07 63.96-36.08L50.65-36.08C49.06-36.08 47.77-37.36 47.77-38.95C47.77-40.54 49.06-41.83 50.65-41.83L62.14-41.83L72.52-65.98C73.69-68.72 76.72-70.14 79.57-69.3L85.73-67.49L91.91-69.31C94.74-70.14 97.75-68.74 98.94-66.04ZM51.11-16.02C51.11-24.38 57.88-31.16 66.24-31.16C73.19-31.16 79.05-26.47 80.82-20.08C82.52-20.74 84.2-21.11 85.96-21.11C87.72-21.11 89.4-20.74 91.09-20.08C92.87-26.47 98.72-31.16 105.68-31.16C114.04-31.16 120.81-24.38 120.81-16.02C120.81-7.67 114.04-0.89 105.68-0.89C98.03-0.89 91.7-6.57 90.69-13.94C88.72-14.97 87.27-15.36 85.96-15.36C84.65-15.36 83.19-14.97 81.23-13.94C80.21-6.57 73.89-0.89 66.24-0.89C57.88-0.89 51.11-7.67 51.11-16.02Z"/>
   <path class="monochrome-1 monochrome-2 multicolor-1:tintColor multicolor-2:tintColor hierarchical-1:primary hierarchical-2:primary SFSymbolsPreviewWireframe" d="M93.53-63.79C93.59-63.81 93.66-63.78 93.68-63.72L103.32-41.83L68.39-41.83L77.8-63.71C77.83-63.77 77.89-63.8 77.95-63.78L84.83-61.76C85.13-61.67 85.43-61.64 85.73-61.64C86.02-61.64 86.33-61.67 86.63-61.76L93.53-63.79ZM66.24-6.64C61.06-6.64 56.86-10.84 56.86-16.02C56.86-21.21 61.06-25.41 66.24-25.41C71.42-25.41 75.62-21.21 75.62-16.02C75.62-10.84 71.42-6.64 66.24-6.64ZM96.29-16.02C96.29-10.84 100.5-6.64 105.68-6.64C110.86-6.64 115.06-10.84 115.06-16.02C115.06-21.21 110.86-25.41 105.68-25.41C100.5-25.41 96.29-21.21 96.29-16.02Z"/>
  </g>
  <g id="Light-L" transform="matrix(1 0 0 1 1067.16 1556)">
   <path class="monochrome-0 multicolor-0:tintColor hierarchical-0:secondary SFSymbolsPreviewWireframe" d="M30.45 21.33L141.51 21.33C153.39 21.33 159.49 15.14 159.49 3.45L159.49-73.92C159.49-85.61 153.39-91.8 141.51-91.8L30.45-91.8C18.6-91.8 12.46-85.7 12.46-73.92L12.46 3.45C12.46 15.23 18.6 21.33 30.45 21.33ZM30.61 14.67C23.09 14.67 19.09 10.74 19.09 3.12L19.09-73.59C19.09-81.25 23.09-85.15 30.61-85.15L141.35-85.15C148.68-85.15 152.87-81.25 152.87-73.59L152.87 3.12C152.87 10.74 148.68 14.67 141.35 14.67L30.61 14.67Z"/>
   <path class="monochrome-1 multicolor-1:tintColor hierarchical-1:primary SFSymbolsPreviewWireframe" d="M97.93-66.12L108.8-41.53L121.75-41.53C122.99-41.53 124-40.52 124-39.28C124-38.04 122.99-37.03 121.75-37.03L50.21-37.03C48.97-37.03 47.96-38.04 47.96-39.28C47.96-40.52 48.97-41.53 50.21-41.53L61.91-41.53L72.65-66.1C73.71-68.52 76.41-69.78 78.94-69.03L85.29-67.17L91.65-69.04C94.18-69.78 96.87-68.53 97.93-66.12ZM50.67-16.35C50.67-24.71 57.44-31.49 65.8-31.49C72.97-31.49 78.98-26.49 80.54-19.79C82.2-20.45 83.83-20.82 85.52-20.82C87.21-20.82 88.84-20.45 90.5-19.79C92.06-26.49 98.07-31.49 105.24-31.49C113.6-31.49 120.37-24.71 120.37-16.35C120.37-7.99 113.6-1.22 105.24-1.22C97.33-1.22 90.84-7.28 90.16-15.01C88.33-15.94 86.87-16.32 85.52-16.32C84.17-16.32 82.71-15.94 80.88-15.01C80.2-7.28 73.71-1.22 65.8-1.22C57.44-1.22 50.67-7.99 50.67-16.35Z"/>
   <path class="monochrome-1 monochrome-2 multicolor-1:tintColor multicolor-2:tintColor hierarchical-1:primary hierarchical-2:primary SFSymbolsPreviewWireframe" d="M92.92-64.72C93.28-64.83 93.66-64.65 93.82-64.3L103.88-41.53L66.83-41.53L76.77-64.3C76.93-64.64 77.31-64.82 77.67-64.72L84.57-62.69C84.81-62.62 85.05-62.59 85.29-62.6C85.53-62.59 85.77-62.62 86.01-62.69L92.92-64.72ZM65.8-5.72C59.93-5.72 55.17-10.48 55.17-16.35C55.17-22.22 59.93-26.99 65.8-26.99C71.67-26.99 76.43-22.22 76.43-16.35C76.43-10.48 71.67-5.72 65.8-5.72ZM94.61-16.35C94.61-10.48 99.37-5.72 105.24-5.72C111.11-5.72 115.87-10.48 115.87-16.35C115.87-22.22 111.11-26.99 105.24-26.99C99.37-26.99 94.61-22.22 94.61-16.35Z"/>
  </g>
  <g id="Thin-L" transform="matrix(1 0 0 1 771.028 1556)">
   <path class="monochrome-0 multicolor-0:tintColor hierarchical-0:secondary SFSymbolsPreviewWireframe" d="M29.08 20.2L141.708 20.2C152.58 20.2 158.328 14.31 158.328 3.6L158.328-74.13C158.328-84.83 152.58-90.72 141.708-90.72L29.08-90.72C18.216-90.72 12.46-84.97 12.46-74.13L12.46 3.6C12.46 14.45 18.216 20.2 29.08 20.2ZM29.241 16.24C20.787 16.24 16.41 11.88 16.41 3.4L16.41-73.92C16.41-82.41 20.787-86.76 29.241-86.76L141.547-86.76C149.713-86.76 154.377-82.41 154.377-73.92L154.377 3.4C154.377 11.88 149.713 16.24 141.547 16.24L29.241 16.24Z"/>
   <path class="monochrome-1 multicolor-1:tintColor hierarchical-1:primary SFSymbolsPreviewWireframe" d="M95.981-63.67L106.079-40.81L118.41-40.81C119.239-40.81 119.91-40.14 119.91-39.31C119.91-38.48 119.239-37.81 118.41-37.81L52.374-37.81C51.546-37.81 50.874-38.48 50.874-39.31C50.874-40.14 51.546-40.81 52.374-40.81L63.557-40.81L73.536-63.65C74.444-65.72 76.755-66.8 78.93-66.16L84.758-64.45L90.595-66.17C92.763-66.8 95.068-65.73 95.981-63.67ZM52.798-18.14C52.798-25.86 59.052-32.11 66.767-32.11C73.592-32.11 79.273-27.22 80.494-20.75C82.003-21.36 83.466-21.69 84.969-21.69C86.473-21.69 87.936-21.36 89.445-20.75C90.665-27.22 96.347-32.11 103.172-32.11C110.887-32.11 117.141-25.86 117.141-18.14C117.141-10.43 110.887-4.17 103.172-4.17C95.649-4.17 89.515-10.12 89.214-17.57C87.598-18.35 86.253-18.69 84.969-18.69C83.686-18.69 82.341-18.35 80.724-17.57C80.424-10.12 74.29-4.17 66.767-4.17C59.052-4.17 52.798-10.43 52.798-18.14Z"/>
   <path class="monochrome-1 monochrome-2 multicolor-1:tintColor multicolor-2:tintColor hierarchical-1:primary hierarchical-2:primary SFSymbolsPreviewWireframe" d="M91.442-63.29C92.164-63.5 92.933-63.14 93.237-62.45L102.799-40.81L66.83-40.81L76.285-62.45C76.588-63.14 77.358-63.5 78.083-63.28L84.253-61.47C84.421-61.42 84.591-61.4 84.757-61.41C84.923-61.4 85.093-61.42 85.261-61.47L91.442-63.29ZM66.767-7.17C60.709-7.17 55.798-12.09 55.798-18.14C55.798-24.2 60.709-29.11 66.767-29.11C72.825-29.11 77.736-24.2 77.736-18.14C77.736-12.09 72.825-7.17 66.767-7.17ZM92.202-18.14C92.202-12.09 97.114-7.17 103.172-7.17C109.23-7.17 114.141-12.09 114.141-18.14C114.141-24.2 109.23-29.11 103.172-29.11C97.114-29.11 92.202-24.2 92.202-18.14Z"/>
  </g>
  <g id="Ultralight-L" transform="matrix(1 0 0 1 474.615 1556)">
   <path class="monochrome-0 multicolor-0:tintColor hierarchical-0:secondary SFSymbolsPreviewWireframe" d="M28.382 19.62L141.811 19.62C152.166 19.62 157.733 13.88 157.733 3.68L157.733-74.23C157.733-84.43 152.166-90.16 141.811-90.16L28.382-90.16C18.022-90.16 12.46-84.6 12.46-74.23L12.46 3.68C12.46 14.05 18.022 19.62 28.382 19.62ZM28.543 17.04C19.611 17.04 15.04 12.46 15.04 3.54L15.04-74.09C15.04-83 19.611-87.59 28.543-87.59L141.65-87.59C150.243-87.59 155.153-83 155.153-74.09L155.153 3.54C155.153 12.46 150.243 17.04 141.65 17.04L28.543 17.04Z"/>
   <path class="monochrome-1 multicolor-1:tintColor hierarchical-1:primary SFSymbolsPreviewWireframe" d="M95.456-63.7L105.619-40.69L118.113-40.69C118.804-40.69 119.363-40.13 119.363-39.44C119.363-38.75 118.804-38.19 118.113-38.19L52.077-38.19C51.387-38.19 50.827-38.75 50.827-39.44C50.827-40.13 51.387-40.69 52.077-40.69L63.423-40.69L73.469-63.68C74.326-65.65 76.508-66.66 78.562-66.06L84.461-64.33L90.369-66.06C92.417-66.67 94.593-65.66 95.456-63.7ZM52.501-18.28C52.501-26 58.755-32.25 66.47-32.25C73.383-32.25 79.123-27.23 80.242-20.63C81.765-21.26 83.229-21.58 84.728-21.58C86.189-21.57 87.618-21.24 89.103-20.63C90.221-27.23 95.962-32.25 102.875-32.25C110.59-32.25 116.844-26 116.844-18.28C116.844-10.57 110.59-4.31 102.875-4.31C95.257-4.31 89.064-10.41 88.909-17.99C87.337-18.73 86.001-19.07 84.714-19.08C83.401-19.08 82.04-18.75 80.436-17.99C80.281-10.41 74.087-4.31 66.47-4.31C58.755-4.31 52.501-10.57 52.501-18.28Z"/>
   <path class="monochrome-1 monochrome-2 multicolor-1:tintColor multicolor-2:tintColor hierarchical-1:primary hierarchical-2:primary SFSymbolsPreviewWireframe" d="M91.074-63.66C91.917-63.91 92.814-63.5 93.169-62.69L102.886-40.69L66.151-40.69L75.759-62.68C76.112-63.49 77.011-63.91 77.857-63.66L84.027-61.85C84.172-61.8 84.318-61.79 84.46-61.8C84.602-61.79 84.749-61.8 84.894-61.85L91.074-63.66ZM66.47-6.81C60.136-6.81 55.001-11.95 55.001-18.28C55.001-24.61 60.136-29.75 66.47-29.75C72.804-29.75 77.939-24.61 77.939-18.28C77.939-11.95 72.804-6.81 66.47-6.81ZM91.406-18.28C91.406-11.95 96.54-6.81 102.875-6.81C109.209-6.81 114.344-11.95 114.344-18.28C114.344-24.61 109.209-29.75 102.875-29.75C96.54-29.75 91.406-24.61 91.406-18.28Z"/>
  </g>
  <g id="Black-M" transform="matrix(1 0 0 1 2861.97 1126)">
   <path class="monochrome-0 multicolor-0:tintColor hierarchical-0:secondary SFSymbolsPreviewWireframe" d="M31.62 13.2L111.23 13.2C123.32 13.2 130.39 6.14 130.39-5.94L130.39-64.46C130.39-76.54 123.32-83.6 111.23-83.6L31.62-83.6C19.53-83.6 12.46-76.54 12.46-64.46L12.46-5.94C12.46 6.14 19.53 13.2 31.62 13.2ZM34.25-4.14C31.26-4.14 29.8-5.37 29.8-8.6L29.8-61.79C29.8-65.04 31.26-66.26 34.25-66.26L108.59-66.26C111.59-66.26 113.05-65.04 113.05-61.79L113.05-8.6C113.05-5.37 111.59-4.14 108.59-4.14L34.25-4.14Z"/>
   <path class="monochrome-1 multicolor-1:tintColor hierarchical-1:primary SFSymbolsPreviewWireframe" d="M61.21-41.62L66.23-52.94L69.49-51.98C69.95-51.84 70.43-51.78 70.89-51.78C71.36-51.78 71.83-51.84 72.3-51.98L75.57-52.94L80.63-41.62L61.21-41.62ZM44.26-19.23C44.26-25.66 49.47-30.87 55.9-30.87C60.35-30.87 64.22-28.38 66.18-24.71C67.72-25.31 69.34-25.69 71.07-25.69C72.8-25.69 74.42-25.31 75.96-24.71C77.92-28.38 81.79-30.87 86.24-30.87C92.67-30.87 97.88-25.66 97.88-19.23C97.88-12.8 92.67-7.59 86.24-7.59C81.58-7.59 77.57-10.32 75.71-14.27C75.32-14.38 74.94-14.55 74.58-14.78C72.6-15.99 71.64-16.19 71.07-16.19C70.5-16.19 69.54-15.99 67.56-14.78C67.2-14.55 66.82-14.38 66.43-14.27C64.57-10.32 60.56-7.59 55.9-7.59C49.47-7.59 44.26-12.8 44.26-19.23Z"/>
   <path class="monochrome-1 monochrome-2 multicolor-1:tintColor multicolor-2:tintColor hierarchical-1:primary hierarchical-2:primary SFSymbolsPreviewWireframe" d="M74.36-62.49L70.89-61.47L67.43-62.48C63.7-63.58 59.74-61.74 58.16-58.19L50.82-41.62L43.91-41.62C41.29-41.62 39.16-39.49 39.16-36.87C39.16-34.25 41.29-32.12 43.91-32.12L98.94-32.12C101.56-32.12 103.69-34.25 103.69-36.87C103.69-39.49 101.56-41.62 98.94-41.62L91.04-41.62L83.62-58.21C82.04-61.76 78.08-63.58 74.36-62.49ZM55.9-16.09C54.17-16.09 52.76-17.5 52.76-19.23C52.76-20.97 54.17-22.37 55.9-22.37C57.64-22.37 59.04-20.97 59.04-19.23C59.04-17.5 57.64-16.09 55.9-16.09ZM83.1-19.23C83.1-17.5 84.5-16.09 86.24-16.09C87.97-16.09 89.38-17.5 89.38-19.23C89.38-20.97 87.97-22.37 86.24-22.37C84.5-22.37 83.1-20.97 83.1-19.23Z"/>
  </g>
  <g id="Heavy-M" transform="matrix(1 0 0 1 2565.6 1126)">
   <path class="monochrome-0 multicolor-0:tintColor hierarchical-0:secondary SFSymbolsPreviewWireframe" d="M30.71 12.39L111.47 12.39C123.12 12.39 129.72 5.79 129.72-5.81L129.72-64.59C129.72-76.19 123.12-82.79 111.47-82.79L30.71-82.79C19.07-82.79 12.46-76.19 12.46-64.59L12.46-5.81C12.46 5.79 19.07 12.39 30.71 12.39ZM32.75-2.73C29.32-2.73 27.56-4.28 27.56-7.94L27.56-62.46C27.56-66.14 29.32-67.67 32.75-67.67L109.42-67.67C112.85-67.67 114.62-66.14 114.62-62.46L114.62-7.94C114.62-4.28 112.85-2.73 109.42-2.73L32.75-2.73Z"/>
   <path class="monochrome-1 multicolor-1:tintColor hierarchical-1:primary SFSymbolsPreviewWireframe" d="M83.06-58.24L90.55-41.5L98.6-41.5C101.09-41.5 103.1-39.48 103.1-37C103.1-34.51 101.09-32.5 98.6-32.5L43.58-32.5C41.09-32.5 39.08-34.51 39.08-37C39.08-39.48 41.09-41.5 43.58-41.5L50.65-41.5L58.06-58.22C59.58-61.66 63.42-63.44 67.03-62.37L70.56-61.34L74.1-62.38C77.7-63.44 81.53-61.67 83.06-58.24ZM44.23-19.36C44.23-25.79 49.44-31 55.87-31C60.37-31 64.27-28.45 66.21-24.71C67.64-25.24 69.14-25.57 70.74-25.57C72.33-25.57 73.83-25.24 75.26-24.71C77.2-28.45 81.11-31 85.61-31C92.04-31 97.25-25.79 97.25-19.36C97.25-12.93 92.04-7.72 85.61-7.72C80.78-7.72 76.63-10.66 74.87-14.85C74.7-14.93 74.54-15.02 74.38-15.12C72.38-16.35 71.38-16.57 70.74-16.57C70.1-16.57 69.1-16.35 67.1-15.12C66.94-15.02 66.77-14.93 66.6-14.85C64.84-10.66 60.7-7.72 55.87-7.72C49.44-7.72 44.23-12.93 44.23-19.36Z"/>
   <path class="monochrome-1 monochrome-2 multicolor-1:tintColor multicolor-2:tintColor hierarchical-1:primary hierarchical-2:primary SFSymbolsPreviewWireframe" d="M71.9-52.35L75.38-53.37L80.69-41.5L60.49-41.5L65.75-53.37L69.22-52.35C69.67-52.22 70.12-52.16 70.56-52.16C71-52.16 71.45-52.22 71.9-52.35ZM55.87-16.72C54.41-16.72 53.23-17.9 53.23-19.36C53.23-20.82 54.41-22 55.87-22C57.32-22 58.51-20.82 58.51-19.36C58.51-17.9 57.32-16.72 55.87-16.72ZM82.97-19.36C82.97-17.9 84.15-16.72 85.61-16.72C87.06-16.72 88.25-17.9 88.25-19.36C88.25-20.82 87.06-22 85.61-22C84.15-22 82.97-20.82 82.97-19.36Z"/>
  </g>
  <g id="Bold-M" transform="matrix(1 0 0 1 2269.26 1126)">
   <path class="monochrome-0 multicolor-0:tintColor hierarchical-0:secondary SFSymbolsPreviewWireframe" d="M29.7 11.47L111.73 11.47C122.89 11.47 128.97 5.39 128.97-5.68L128.97-64.73C128.97-75.8 122.89-81.88 111.73-81.88L29.7-81.88C18.56-81.88 12.46-75.81 12.46-64.73L12.46-5.68C12.46 5.4 18.56 11.47 29.7 11.47ZM31.08-1.15C27.14-1.15 25.05-3.07 25.05-7.2L25.05-63.21C25.05-67.37 27.14-69.26 31.08-69.26L110.35-69.26C114.26-69.26 116.37-67.37 116.37-63.21L116.37-7.2C116.37-3.07 114.26-1.15 110.35-1.15L31.08-1.15Z"/>
   <path class="monochrome-1 multicolor-1:tintColor hierarchical-1:primary SFSymbolsPreviewWireframe" d="M82.23-58.29L89.85-41.25L98.23-41.25C100.44-41.25 102.23-39.46 102.23-37.25C102.23-35.04 100.44-33.25 98.23-33.25L43.2-33.25C40.99-33.25 39.2-35.04 39.2-37.25C39.2-39.46 40.99-41.25 43.2-41.25L50.6-41.25L58.14-58.27C59.56-61.48 63.15-63.14 66.52-62.15L70.19-61.07L73.86-62.15C77.23-63.14 80.8-61.49 82.23-58.29ZM43.85-19.61C43.85-26.04 49.06-31.25 55.49-31.25C60.17-31.25 64.21-28.49 66.06-24.51C67.43-25.02 68.85-25.32 70.36-25.32C71.87-25.32 73.29-25.02 74.67-24.51C76.52-28.49 80.55-31.25 85.23-31.25C91.66-31.25 96.87-26.04 96.87-19.61C96.87-13.18 91.66-7.97 85.23-7.97C80.13-7.97 75.8-11.25 74.22-15.82C72.22-17.05 71.13-17.32 70.36-17.32C69.59-17.32 68.5-17.05 66.5-15.82C64.93-11.25 60.59-7.97 55.49-7.97C49.06-7.97 43.85-13.18 43.85-19.61Z"/>
   <path class="monochrome-1 monochrome-2 multicolor-1:tintColor multicolor-2:tintColor hierarchical-1:primary hierarchical-2:primary SFSymbolsPreviewWireframe" d="M71.38-53.08L75.28-54.23L81.08-41.25L59.35-41.25L65.1-54.22L68.99-53.08C69.39-52.96 69.79-52.91 70.18-52.92C70.58-52.91 70.98-52.96 71.38-53.08ZM55.49-15.97C53.48-15.97 51.85-17.6 51.85-19.61C51.85-21.62 53.48-23.25 55.49-23.25C57.5-23.25 59.13-21.62 59.13-19.61C59.13-17.6 57.5-15.97 55.49-15.97ZM81.59-19.61C81.59-17.6 83.22-15.97 85.23-15.97C87.24-15.97 88.87-17.6 88.87-19.61C88.87-21.62 87.24-23.25 85.23-23.25C83.22-23.25 81.59-21.62 81.59-19.61Z"/>
  </g>
  <g id="Semibold-M" transform="matrix(1 0 0 1 1972.81 1126)">
   <path class="monochrome-0 multicolor-0:tintColor hierarchical-0:secondary SFSymbolsPreviewWireframe" d="M29 10.85L111.91 10.85C122.74 10.85 128.45 5.12 128.45-5.58L128.45-64.83C128.45-75.53 122.74-81.26 111.91-81.26L29-81.26C18.21-81.26 12.46-75.54 12.46-64.83L12.46-5.58C12.46 5.13 18.21 10.85 29 10.85ZM29.92-0.06C25.65-0.06 23.33-2.23 23.33-6.69L23.33-63.72C23.33-68.22 25.65-70.35 29.92-70.35L110.99-70.35C115.24-70.35 117.58-68.22 117.58-63.72L117.58-6.69C117.58-2.23 115.24-0.06 110.99-0.06L29.92-0.06Z"/>
   <path class="monochrome-1 multicolor-1:tintColor hierarchical-1:primary SFSymbolsPreviewWireframe" d="M81.75-58.32L89.43-41.13L97.97-41.13C100.04-41.13 101.72-39.45 101.72-37.38C101.72-35.31 100.04-33.63 97.97-33.63L42.94-33.63C40.87-33.63 39.19-35.31 39.19-37.38C39.19-39.45 40.87-41.13 42.94-41.13L50.51-41.13L58.11-58.29C59.48-61.39 62.94-62.99 66.19-62.03L69.93-60.93L73.68-62.04C76.92-62.99 80.37-61.4 81.75-58.32ZM43.3-19.74C43.3-26.17 48.51-31.38 54.94-31.38C59.74-31.38 63.87-28.47 65.65-24.31C67.07-24.87 68.54-25.2 70.11-25.2C71.67-25.2 73.14-24.87 74.56-24.31C76.34-28.47 80.47-31.38 85.27-31.38C91.7-31.38 96.91-26.17 96.91-19.74C96.91-13.31 91.7-8.1 85.27-8.1C80.12-8.1 75.75-11.45 74.22-16.09C74.19-16.1 74.16-16.12 74.14-16.14C72.09-17.4 70.95-17.7 70.11-17.7C69.26-17.7 68.12-17.4 66.07-16.14C66.05-16.12 66.02-16.1 65.99-16.09C64.46-11.45 60.09-8.1 54.94-8.1C48.51-8.1 43.3-13.31 43.3-19.74Z"/>
   <path class="monochrome-1 monochrome-2 multicolor-1:tintColor multicolor-2:tintColor hierarchical-1:primary hierarchical-2:primary SFSymbolsPreviewWireframe" d="M71.05-53.45L75.17-54.66L81.21-41.13L58.71-41.13L64.7-54.65L68.8-53.45C69.18-53.34 69.56-53.29 69.93-53.29C70.3-53.29 70.68-53.34 71.05-53.45ZM54.94-15.6C52.65-15.6 50.8-17.46 50.8-19.74C50.8-22.03 52.65-23.88 54.94-23.88C57.22-23.88 59.08-22.03 59.08-19.74C59.08-17.46 57.22-15.6 54.94-15.6ZM81.13-19.74C81.13-17.46 82.99-15.6 85.27-15.6C87.56-15.6 89.41-17.46 89.41-19.74C89.41-22.03 87.56-23.88 85.27-23.88C82.99-23.88 81.13-22.03 81.13-19.74Z"/>
  </g>
  <g id="Medium-M" transform="matrix(1 0 0 1 1676.3 1126)">
   <path class="monochrome-0 multicolor-0:tintColor hierarchical-0:secondary SFSymbolsPreviewWireframe" d="M28.47 10.37L112.05 10.37C122.62 10.37 128.06 4.91 128.06-5.51L128.06-64.9C128.06-75.32 122.62-80.78 112.05-80.78L28.47-80.78C17.95-80.78 12.46-75.34 12.46-64.9L12.46-5.51C12.46 4.93 17.95 10.37 28.47 10.37ZM29.05 0.76C24.51 0.76 22.02-1.6 22.02-6.3L22.02-64.11C22.02-68.86 24.51-71.18 29.05-71.18L111.48-71.18C115.98-71.18 118.5-68.86 118.5-64.11L118.5-6.3C118.5-1.6 115.98 0.76 111.48 0.76L29.05 0.76Z"/>
   <path class="monochrome-1 multicolor-1:tintColor hierarchical-1:primary SFSymbolsPreviewWireframe" d="M88.86-40.99C88.87-40.95 88.89-40.91 88.9-40.88L97.77-40.88C99.57-40.88 101.02-39.42 101.02-37.63C101.02-35.83 99.57-34.38 97.77-34.38L42.75-34.38C40.95-34.38 39.5-35.83 39.5-37.63C39.5-39.42 40.95-40.88 42.75-40.88L50.64-40.88C50.66-40.93 50.68-40.98 50.7-41.03L58.37-58.34C59.64-61.21 62.84-62.69 65.85-61.81L69.73-60.66L73.62-61.81C76.62-62.69 79.81-61.22 81.09-58.36L88.86-40.99ZM43.1-19.99C43.1-26.42 48.31-31.63 54.74-31.63C59.72-31.63 63.97-28.5 65.63-24.1C67.01-24.63 68.42-24.95 69.91-24.95C71.39-24.95 72.8-24.63 74.18-24.1C75.84-28.5 80.09-31.63 85.07-31.63C91.5-31.63 96.71-26.42 96.71-19.99C96.71-13.56 91.5-8.35 85.07-8.35C79.66-8.35 75.11-12.04 73.81-17.05C71.96-18.14 70.82-18.45 69.91-18.45C68.99-18.45 67.85-18.14 66-17.05C64.7-12.04 60.15-8.35 54.74-8.35C48.31-8.35 43.1-13.56 43.1-19.99Z"/>
   <path class="monochrome-1 monochrome-2 multicolor-1:tintColor multicolor-2:tintColor hierarchical-1:primary hierarchical-2:primary SFSymbolsPreviewWireframe" d="M70.71-54.18L75.24-55.51L81.78-40.88L57.74-40.88L64.22-55.51L68.75-54.18C69.07-54.08 69.4-54.04 69.73-54.05C70.05-54.04 70.39-54.08 70.71-54.18ZM54.74-14.85C51.9-14.85 49.6-17.15 49.6-19.99C49.6-22.83 51.9-25.13 54.74-25.13C57.58-25.13 59.88-22.83 59.88-19.99C59.88-17.15 57.58-14.85 54.74-14.85ZM79.93-19.99C79.93-17.15 82.24-14.85 85.07-14.85C87.91-14.85 90.21-17.15 90.21-19.99C90.21-22.83 87.91-25.13 85.07-25.13C82.24-25.13 79.93-22.83 79.93-19.99Z"/>
  </g>
  <g id="Regular-M" transform="matrix(1 0 0 1 1379.84 1126)">
   <path class="monochrome-0 multicolor-0:tintColor hierarchical-0:secondary SFSymbolsPreviewWireframe" d="M27.78 9.75L112.23 9.75C122.46 9.75 127.55 4.64 127.55-5.41L127.55-65C127.55-75.06 122.46-80.16 112.23-80.16L27.78-80.16C17.6-80.16 12.46-75.08 12.46-65L12.46-5.41C12.46 4.66 17.6 9.75 27.78 9.75ZM27.9 1.84C23.03 1.84 20.31-0.77 20.31-5.8L20.31-64.62C20.31-69.7 23.03-72.26 27.9-72.26L112.11-72.26C116.94-72.26 119.7-69.7 119.7-64.62L119.7-5.8C119.7-0.77 116.94 1.84 112.11 1.84L27.9 1.84Z"/>
   <path class="monochrome-1 multicolor-1:tintColor hierarchical-1:primary SFSymbolsPreviewWireframe" d="M80.49-58.36L88.27-40.69L97.52-40.69C99.11-40.69 100.39-39.41 100.39-37.82C100.39-36.23 99.11-34.94 97.52-34.94L86.46-34.94C86.42-34.94 86.37-34.94 86.33-34.94L52.85-34.94C52.8-34.94 52.76-34.94 52.72-34.94L42.49-34.94C40.9-34.94 39.62-36.23 39.62-37.82C39.62-39.41 40.9-40.69 42.49-40.69L50.89-40.69L58.46-58.31C59.64-61.04 62.67-62.47 65.52-61.63L69.48-60.46L73.46-61.63C76.29-62.47 79.3-61.07 80.49-58.36ZM42.84-20.18C42.84-26.61 48.06-31.82 54.49-31.82C59.6-31.82 63.95-28.52 65.51-23.94C66.85-24.46 68.22-24.76 69.65-24.76C71.09-24.76 72.45-24.46 73.8-23.94C75.36-28.52 79.71-31.82 84.82-31.82C91.25-31.82 96.46-26.61 96.46-20.18C96.46-13.75 91.25-8.54 84.82-8.54C79.23-8.54 74.56-12.48 73.44-17.74C71.74-18.7 70.6-19.01 69.65-19.01C68.7-19.01 67.57-18.7 65.87-17.74C64.75-12.48 60.08-8.54 54.49-8.54C48.06-8.54 42.84-13.75 42.84-20.18Z"/>
   <path class="monochrome-1 monochrome-2 multicolor-1:tintColor multicolor-2:tintColor hierarchical-1:primary hierarchical-2:primary SFSymbolsPreviewWireframe" d="M75.08-56.12C75.14-56.13 75.21-56.1 75.23-56.05L81.99-40.69L57.15-40.69L63.74-56.04C63.77-56.1 63.83-56.13 63.9-56.11L68.6-54.73C68.89-54.64 69.19-54.6 69.48-54.61C69.77-54.6 70.06-54.64 70.36-54.73L75.08-56.12ZM54.49-14.29C51.23-14.29 48.59-16.93 48.59-20.18C48.59-23.44 51.23-26.07 54.49-26.07C57.74-26.07 60.38-23.44 60.38-20.18C60.38-16.93 57.74-14.29 54.49-14.29ZM78.93-20.18C78.93-16.93 81.57-14.29 84.82-14.29C88.07-14.29 90.71-16.93 90.71-20.18C90.71-23.44 88.07-26.07 84.82-26.07C81.57-26.07 78.93-23.44 78.93-20.18Z"/>
  </g>
  <g id="Light-M" transform="matrix(1 0 0 1 1083.52 1126)">
   <path class="monochrome-0 multicolor-0:tintColor hierarchical-0:secondary SFSymbolsPreviewWireframe" d="M26.85 8.98L112.37 8.98C121.92 8.98 126.76 4.07 126.76-5.31L126.76-65.14C126.76-74.53 121.92-79.43 112.37-79.43L26.85-79.43C17.34-79.43 12.46-74.58 12.46-65.14L12.46-5.31C12.46 4.13 17.34 8.98 26.85 8.98ZM26.98 2.9C21.47 2.9 18.5 0 18.5-5.61L18.5-64.84C18.5-70.49 21.47-73.36 26.98-73.36L112.24-73.36C117.64-73.36 120.72-70.49 120.72-64.84L120.72-5.61C120.72 0 117.64 2.9 112.24 2.9L26.98 2.9Z"/>
   <path class="monochrome-1 multicolor-1:tintColor hierarchical-1:primary SFSymbolsPreviewWireframe" d="M79.53-58.45L87.5-40.4L97.12-40.4C98.37-40.4 99.37-39.39 99.37-38.15C99.37-36.91 98.37-35.9 97.12-35.9L42.1-35.9C40.85-35.9 39.85-36.91 39.85-38.15C39.85-39.39 40.85-40.4 42.1-40.4L50.76-40.4L58.64-58.43C59.7-60.85 62.39-62.11 64.93-61.36L69.08-60.14L73.24-61.37C75.77-62.11 78.46-60.86 79.53-58.45ZM42.45-20.51C42.45-26.94 47.66-32.15 54.09-32.15C59.43-32.15 63.92-28.56 65.3-23.67C66.6-24.18 67.9-24.47 69.26-24.47C70.61-24.47 71.92-24.18 73.22-23.67C74.59-28.56 79.09-32.15 84.43-32.15C90.86-32.15 96.07-26.94 96.07-20.51C96.07-14.08 90.86-8.87 84.43-8.87C78.56-8.87 73.7-13.21 72.9-18.86C71.38-19.67 70.26-19.97 69.26-19.97C68.25-19.97 67.13-19.67 65.61-18.86C64.81-13.21 59.96-8.87 54.09-8.87C47.66-8.87 42.45-14.08 42.45-20.51Z"/>
   <path class="monochrome-1 monochrome-2 multicolor-1:tintColor multicolor-2:tintColor hierarchical-1:primary hierarchical-2:primary SFSymbolsPreviewWireframe" d="M74.51-57.05C74.87-57.16 75.26-56.98 75.41-56.63L82.58-40.4L55.67-40.4L62.76-56.63C62.91-56.97 63.3-57.15 63.66-57.05L68.38-55.66C68.61-55.59 68.85-55.56 69.08-55.57C69.31-55.56 69.55-55.59 69.78-55.66L74.51-57.05ZM54.09-13.37C50.15-13.37 46.95-16.57 46.95-20.51C46.95-24.46 50.15-27.65 54.09-27.65C58.03-27.65 61.23-24.46 61.23-20.51C61.23-16.57 58.03-13.37 54.09-13.37ZM77.29-20.51C77.29-16.57 80.48-13.37 84.43-13.37C88.37-13.37 91.57-16.57 91.57-20.51C91.57-24.46 88.37-27.65 84.43-27.65C80.48-27.65 77.29-24.46 77.29-20.51Z"/>
  </g>
  <g id="Thin-M" transform="matrix(1 0 0 1 787.331 1126)">
   <path class="monochrome-0 multicolor-0:tintColor hierarchical-0:secondary SFSymbolsPreviewWireframe" d="M25.632 7.96L112.55 7.96C121.192 7.96 125.722 3.33 125.722-5.18L125.722-65.32C125.722-73.82 121.192-78.46 112.55-78.46L25.632-78.46C17.002-78.46 12.46-73.93 12.46-65.32L12.46-5.18C12.46 3.43 17.002 7.96 25.632 7.96ZM25.757 4.31C19.41 4.31 16.101 1.02 16.101-5.36L16.101-65.13C16.101-71.53 19.41-74.8 25.757-74.8L112.425-74.8C118.571-74.8 122.081-71.53 122.081-65.13L122.081-5.36C122.081 1.02 118.571 4.31 112.425 4.31L25.757 4.31Z"/>
   <path class="monochrome-1 multicolor-1:tintColor hierarchical-1:primary SFSymbolsPreviewWireframe" d="M78.321-58.54L86.492-40.05L96.605-40.05C97.433-40.05 98.105-39.37 98.105-38.55C98.105-37.72 97.433-37.05 96.605-37.05L41.577-37.05C40.749-37.05 40.077-37.72 40.077-38.55C40.077-39.37 40.749-40.05 41.577-40.05L50.732-40.05L58.806-58.52C59.714-60.6 62.025-61.68 64.199-61.04L68.562-59.76L72.935-61.04C75.103-61.68 77.408-60.61 78.321-58.54ZM41.93-20.91C41.93-27.34 47.141-32.55 53.57-32.55C59.169-32.55 63.845-28.6 64.959-23.33C66.224-23.84 67.462-24.11 68.739-24.11C70.015-24.11 71.252-23.84 72.518-23.33C73.632-28.6 78.307-32.55 83.906-32.55C90.335-32.55 95.547-27.34 95.547-20.91C95.547-14.48 90.335-9.27 83.906-9.27C77.733-9.27 72.683-14.07 72.29-20.15C70.911-20.83 69.792-21.11 68.739-21.11C67.685-21.11 66.566-20.83 65.186-20.15C64.793-14.07 59.743-9.27 53.57-9.27C47.141-9.27 41.93-14.48 41.93-20.91Z"/>
   <path class="monochrome-1 monochrome-2 multicolor-1:tintColor multicolor-2:tintColor hierarchical-1:primary hierarchical-2:primary SFSymbolsPreviewWireframe" d="M73.781-58.16C74.504-58.38 75.272-58.02 75.577-57.33L83.212-40.05L54.006-40.05L61.555-57.32C61.858-58.02 62.628-58.38 63.353-58.16L68.071-56.77C68.235-56.73 68.4-56.71 68.561-56.71C68.723-56.71 68.889-56.73 69.053-56.77L73.781-58.16ZM53.57-12.27C48.798-12.27 44.93-16.14 44.93-20.91C44.93-25.68 48.798-29.55 53.57-29.55C58.342-29.55 62.211-25.68 62.211-20.91C62.211-16.14 58.342-12.27 53.57-12.27ZM75.266-20.91C75.266-16.14 79.134-12.27 83.906-12.27C88.678-12.27 92.547-16.14 92.547-20.91C92.547-25.68 88.678-29.55 83.906-29.55C79.134-29.55 75.266-25.68 75.266-20.91Z"/>
  </g>
  <g id="Ultralight-M" transform="matrix(1 0 0 1 490.887 1126)">
   <path class="monochrome-0 multicolor-0:tintColor hierarchical-0:secondary SFSymbolsPreviewWireframe" d="M25.006 7.44L112.643 7.44C120.821 7.44 125.188 2.95 125.188-5.11L125.188-65.41C125.188-73.47 120.821-77.96 112.643-77.96L25.006-77.96C16.827-77.96 12.46-73.59 12.46-65.41L12.46-5.11C12.46 3.07 16.827 7.44 25.006 7.44ZM25.13 5.02C18.355 5.02 14.872 1.54 14.872-5.23L14.872-65.29C14.872-72.06 18.355-75.54 25.13-75.54L112.518-75.54C119.046-75.54 122.776-72.06 122.776-65.29L122.776-5.23C122.776 1.54 119.046 5.02 112.518 5.02L25.13 5.02Z"/>
   <path class="monochrome-1 multicolor-1:tintColor hierarchical-1:primary SFSymbolsPreviewWireframe" d="M77.826-58.58L86.063-39.93L96.339-39.93C97.029-39.93 97.589-39.37 97.589-38.68C97.589-37.99 97.029-37.43 96.339-37.43L41.311-37.43C40.621-37.43 40.061-37.99 40.061-38.68C40.061-39.37 40.621-39.93 41.311-39.93L50.629-39.93L58.769-58.56C59.626-60.52 61.809-61.54 63.863-60.94L68.296-59.63L72.739-60.94C74.787-61.54 76.964-60.53 77.826-58.58ZM41.664-21.05C41.664-27.48 46.876-32.69 53.305-32.69C58.992-32.69 63.726-28.61 64.743-23.22C66.018-23.73 67.252-24.01 68.521-24C69.756-23.99 70.96-23.72 72.202-23.22C73.219-28.61 77.954-32.69 83.641-32.69C90.07-32.69 95.281-27.48 95.281-21.05C95.281-14.62 90.07-9.41 83.641-9.41C77.372-9.41 72.26-14.36 72.01-20.57C70.678-21.21 69.566-21.5 68.507-21.5C67.432-21.51 66.308-21.23 64.959-20.58C64.951-20.58 64.943-20.57 64.936-20.57C64.686-14.36 59.574-9.41 53.305-9.41C46.876-9.41 41.664-14.62 41.664-21.05Z"/>
   <path class="monochrome-1 monochrome-2 multicolor-1:tintColor multicolor-2:tintColor hierarchical-1:primary hierarchical-2:primary SFSymbolsPreviewWireframe" d="M73.445-58.54C74.288-58.79 75.184-58.37 75.54-57.57L83.33-39.93L53.358-39.93L61.06-57.56C61.413-58.37 62.312-58.79 63.157-58.54L67.876-57.15C68.016-57.11 68.157-57.09 68.295-57.1C68.434-57.09 68.576-57.11 68.716-57.15L73.445-58.54ZM53.305-11.91C48.257-11.91 44.164-16 44.164-21.05C44.164-26.09 48.257-30.19 53.305-30.19C58.353-30.19 62.445-26.09 62.445-21.05C62.445-16 58.353-11.91 53.305-11.91ZM74.5-21.05C74.5-16 78.593-11.91 83.641-11.91C88.689-11.91 92.781-16 92.781-21.05C92.781-26.09 88.689-30.19 83.641-30.19C78.593-30.19 74.5-26.09 74.5-21.05Z"/>
  </g>
  <g id="Black-S" transform="matrix(1 0 0 1 2874.65 696)">
   <path class="monochrome-0 multicolor-0:tintColor hierarchical-0:secondary SFSymbolsPreviewWireframe" d="M27.7 2.93L89.81 2.93C99.38 2.93 105.04-2.734 105.04-12.305L105.04-58.106C105.04-67.676 99.38-73.34 89.81-73.34L27.7-73.34C18.13-73.34 12.46-67.676 12.46-58.106L12.46-12.305C12.46-2.734 18.13 2.93 27.7 2.93ZM29.94-11.231C27.7-11.231 26.62-12.109 26.62-14.551L26.62-55.859C26.62-58.301 27.7-59.18 29.94-59.18L87.56-59.18C89.81-59.18 90.88-58.301 90.88-55.859L90.88-14.551C90.88-12.109 89.81-11.231 87.56-11.231L29.94-11.231Z"/>
   <path class="monochrome-1 multicolor-1:tintColor hierarchical-1:primary SFSymbolsPreviewWireframe" d="M67.9-52.479L73.5-39.952L79.92-39.952C81.64-39.952 83.04-38.553 83.04-36.827C83.04-35.101 81.64-33.702 79.92-33.702L37.59-33.702C35.86-33.702 34.46-35.101 34.46-36.827C34.46-38.553 35.86-39.952 37.59-39.952L43.25-39.952L48.79-52.458C50.04-55.268 53.17-56.72 56.12-55.853L58.35-55.198L60.58-55.856C63.52-56.721 66.65-55.278 67.9-52.479ZM37.86-23.26C37.86-28.206 41.87-32.215 46.81-32.215C50.43-32.215 53.54-30.076 54.95-26.997C56.08-27.434 57.24-27.697 58.48-27.697C59.72-27.697 60.89-27.434 62.01-26.997C63.43-30.076 66.54-32.215 70.15-32.215C75.1-32.215 79.11-28.206 79.11-23.26C79.11-18.315 75.1-14.305 70.15-14.305C66.31-14.305 63.04-16.722 61.76-20.117C61.66-20.166 61.56-20.221 61.46-20.283C59.9-21.241 59.07-21.447 58.48-21.447C57.9-21.447 57.07-21.241 55.51-20.283C55.41-20.221 55.31-20.166 55.2-20.117C53.93-16.722 50.65-14.305 46.81-14.305C41.87-14.305 37.86-18.315 37.86-23.26Z"/>
   <path class="monochrome-1 monochrome-2 multicolor-1:tintColor multicolor-2:tintColor hierarchical-1:primary hierarchical-2:primary SFSymbolsPreviewWireframe" d="M59.28-48.958L62.24-49.829L66.66-39.952L50.09-39.952L54.46-49.826L57.41-48.958C57.72-48.866 58.04-48.826 58.34-48.83C58.65-48.825 58.97-48.866 59.28-48.958ZM46.81-20.555C45.32-20.555 44.11-21.766 44.11-23.26C44.11-24.754 45.32-25.965 46.81-25.965C48.31-25.965 49.52-24.754 49.52-23.26C49.52-21.766 48.31-20.555 46.81-20.555ZM67.45-23.26C67.45-21.766 68.66-20.555 70.15-20.555C71.64-20.555 72.86-21.766 72.86-23.26C72.86-24.754 71.64-25.965 70.15-25.965C68.66-25.965 67.45-24.754 67.45-23.26Z"/>
  </g>
  <g id="Heavy-S" transform="matrix(1 0 0 1 2578.18 696)">
   <path class="monochrome-0 multicolor-0:tintColor hierarchical-0:secondary SFSymbolsPreviewWireframe" d="M27.03 2.331L89.98 2.331C99.27 2.331 104.56-2.964 104.56-12.212L104.56-58.197C104.56-67.445 99.27-72.74 89.98-72.74L27.03-72.74C17.76-72.74 12.46-67.445 12.46-58.197L12.46-12.212C12.46-2.964 17.76 2.331 27.03 2.331ZM28.77-10.158C26.23-10.158 24.93-11.279 24.93-14.009L24.93-56.401C24.93-59.142 26.23-60.251 28.77-60.251L88.25-60.251C90.79-60.251 92.08-59.142 92.08-56.401L92.08-14.009C92.08-11.279 90.79-10.158 88.25-10.158L28.77-10.158Z"/>
   <path class="monochrome-1 multicolor-1:tintColor hierarchical-1:primary SFSymbolsPreviewWireframe" d="M57.2-49.14C57.5-49.052 57.8-49.013 58.1-49.018C58.4-49.013 58.7-49.052 59-49.14L62.07-50.042L66.6-39.889L49.65-39.889L54.15-50.04L57.2-49.14ZM37.61-23.323C37.61-28.268 41.62-32.277 46.57-32.277C50.23-32.277 53.37-30.086 54.76-26.945C55.87-27.376 57.02-27.635 58.24-27.635C59.46-27.635 60.6-27.376 61.71-26.945C63.1-30.086 66.25-32.277 69.91-32.277C74.85-32.277 78.86-28.268 78.86-23.323C78.86-18.377 74.85-14.368 69.91-14.368C66-14.368 62.68-16.866 61.46-20.35C61.4-20.382 61.34-20.415 61.28-20.452C59.71-21.415 58.85-21.635 58.24-21.635C57.62-21.635 56.76-21.415 55.2-20.451C55.14-20.415 55.08-20.382 55.02-20.35C53.79-16.866 50.47-14.368 46.57-14.368C41.62-14.368 37.61-18.377 37.61-23.323Z"/>
   <path class="monochrome-1 monochrome-2 multicolor-1:tintColor multicolor-2:tintColor hierarchical-1:primary hierarchical-2:primary SFSymbolsPreviewWireframe" d="M67.54-52.49C66.32-55.232 63.25-56.646 60.37-55.798L58.1-55.13L55.84-55.796C52.95-56.645 49.88-55.223 48.66-52.47L43.09-39.889L37.34-39.889C35.69-39.889 34.34-38.546 34.34-36.889C34.34-35.232 35.69-33.889 37.34-33.889L79.67-33.889C81.33-33.889 82.67-35.232 82.67-36.889C82.67-38.546 81.33-39.889 79.67-39.889L73.18-39.889L67.54-52.49ZM46.57-20.368C44.94-20.368 43.61-21.691 43.61-23.323C43.61-24.954 44.94-26.277 46.57-26.277C48.2-26.277 49.52-24.954 49.52-23.323C49.52-21.691 48.2-20.368 46.57-20.368ZM66.95-23.323C66.95-21.691 68.27-20.368 69.91-20.368C71.54-20.368 72.86-21.691 72.86-23.323C72.86-24.954 71.54-26.277 69.91-26.277C68.27-26.277 66.95-24.954 66.95-23.323Z"/>
  </g>
  <g id="Bold-S" transform="matrix(1 0 0 1 2281.73 696)">
   <path class="monochrome-0 multicolor-0:tintColor hierarchical-0:secondary SFSymbolsPreviewWireframe" d="M26.31 1.66L90.2 1.66C99.16 1.66 104.04-3.223 104.04-12.109L104.04-58.301C104.04-67.188 99.16-72.07 90.2-72.07L26.31-72.07C17.37-72.07 12.46-67.188 12.46-58.301L12.46-12.109C12.46-3.223 17.37 1.66 26.31 1.66ZM27.48-8.96C24.6-8.96 23.06-10.352 23.06-13.403L23.06-57.007C23.06-60.083 24.6-61.45 27.48-61.45L89.03-61.45C91.91-61.45 93.45-60.083 93.45-57.007L93.45-13.403C93.45-10.352 91.91-8.96 89.03-8.96L27.48-8.96Z"/>
   <path class="monochrome-1 multicolor-1:tintColor hierarchical-1:primary SFSymbolsPreviewWireframe" d="M67.17-52.502L72.84-39.827L79.42-39.827C81.01-39.827 82.29-38.54 82.29-36.952C82.29-35.364 81.01-34.077 79.42-34.077L37.09-34.077C35.5-34.077 34.21-35.364 34.21-36.952C34.21-38.54 35.5-39.827 37.09-39.827L42.91-39.827L48.52-52.482C49.71-55.177 52.72-56.57 55.55-55.738L57.85-55.062L60.15-55.741C62.97-56.571 65.97-55.187 67.17-52.502ZM37.36-23.385C37.36-28.331 41.37-32.34 46.31-32.34C50.02-32.34 53.19-30.095 54.56-26.893C55.65-27.318 56.78-27.572 57.98-27.572C59.18-27.572 60.31-27.318 61.41-26.893C62.77-30.095 65.95-32.34 69.65-32.34C74.6-32.34 78.61-28.331 78.61-23.385C78.61-18.44 74.6-14.431 69.65-14.431C65.68-14.431 62.32-17.013 61.14-20.589C61.12-20.599 61.11-20.61 61.09-20.62C59.51-21.589 58.63-21.822 57.98-21.822C57.33-21.822 56.45-21.589 54.88-20.62C54.86-20.61 54.84-20.599 54.82-20.589C53.65-17.013 50.28-14.431 46.31-14.431C41.37-14.431 37.36-18.44 37.36-23.385Z"/>
   <path class="monochrome-1 monochrome-2 multicolor-1:tintColor multicolor-2:tintColor hierarchical-1:primary hierarchical-2:primary SFSymbolsPreviewWireframe" d="M61.78-50.224C61.84-50.242 61.9-50.213 61.93-50.156L66.54-39.827L49.2-39.827L53.78-50.153C53.8-50.21 53.87-50.24 53.93-50.222L56.98-49.323C57.27-49.238 57.56-49.201 57.85-49.206C58.13-49.2 58.42-49.238 58.71-49.323L61.78-50.224ZM46.31-20.181C44.54-20.181 43.11-21.615 43.11-23.385C43.11-25.155 44.54-26.59 46.31-26.59C48.08-26.59 49.52-25.155 49.52-23.385C49.52-21.615 48.08-20.181 46.31-20.181ZM66.45-23.385C66.45-21.615 67.88-20.181 69.65-20.181C71.42-20.181 72.86-21.615 72.86-23.385C72.86-25.155 71.42-26.59 69.65-26.59C67.88-26.59 66.45-25.155 66.45-23.385Z"/>
  </g>
  <g id="Semibold-S" transform="matrix(1 0 0 1 1985.2 696)">
   <path class="monochrome-0 multicolor-0:tintColor hierarchical-0:secondary SFSymbolsPreviewWireframe" d="M25.79 1.199L90.33 1.199C99.07 1.199 103.67-3.4 103.67-12.038L103.67-58.371C103.67-67.009 99.07-71.607 90.33-71.607L25.79-71.607C17.09-71.607 12.46-67.009 12.46-58.371L12.46-12.038C12.46-3.4 17.09 1.199 25.79 1.199ZM26.57-8.133C23.46-8.133 21.75-9.711 21.75-12.985L21.75-57.424C21.75-60.731 23.46-62.276 26.57-62.276L89.55-62.276C92.66-62.276 94.37-60.731 94.37-57.424L94.37-12.985C94.37-9.711 92.66-8.133 89.55-8.133L26.57-8.133Z"/>
   <path class="monochrome-1 multicolor-1:tintColor hierarchical-1:primary SFSymbolsPreviewWireframe" d="M66.87-52.511L72.57-39.762L79.23-39.762C80.75-39.762 81.98-38.531 81.98-37.012C81.98-35.494 80.75-34.262 79.23-34.262L36.9-34.262C35.38-34.262 34.15-35.494 34.15-37.012C34.15-38.531 35.38-39.762 36.9-39.762L42.8-39.762L48.44-52.492C49.61-55.13 52.55-56.493 55.32-55.679L57.66-54.993L60-55.681C62.76-56.494 65.7-55.139 66.87-52.511ZM37.17-23.446C37.17-28.391 41.18-32.4 46.12-32.4C49.87-32.4 53.08-30.101 54.41-26.838C55.5-27.258 56.61-27.508 57.79-27.508C58.97-27.508 60.09-27.259 61.17-26.838C62.51-30.101 65.72-32.4 69.46-32.4C74.41-32.4 78.41-28.391 78.41-23.446C78.41-18.5 74.41-14.491 69.46-14.491C65.42-14.491 62.01-17.161 60.89-20.831C59.35-21.769 58.47-22.008 57.79-22.008C57.12-22.008 56.23-21.769 54.69-20.831C53.57-17.161 50.16-14.491 46.12-14.491C41.18-14.491 37.17-18.5 37.17-23.446Z"/>
   <path class="monochrome-1 monochrome-2 multicolor-1:tintColor multicolor-2:tintColor hierarchical-1:primary hierarchical-2:primary SFSymbolsPreviewWireframe" d="M61.55-50.405C61.67-50.44 61.8-50.381 61.85-50.267L66.54-39.762L48.82-39.762L53.47-50.264C53.52-50.379 53.65-50.438 53.77-50.403L56.83-49.503C57.1-49.422 57.38-49.386 57.65-49.391C57.93-49.386 58.21-49.422 58.48-49.503L61.55-50.405ZM46.12-19.991C44.22-19.991 42.67-21.538 42.67-23.446C42.67-25.354 44.22-26.9 46.12-26.9C48.03-26.9 49.58-25.354 49.58-23.446C49.58-21.538 48.03-19.991 46.12-19.991ZM66.01-23.446C66.01-21.538 67.55-19.991 69.46-19.991C71.37-19.991 72.91-21.538 72.91-23.446C72.91-25.354 71.37-26.9 69.46-26.9C67.55-26.9 66.01-25.354 66.01-23.446Z"/>
  </g>
  <g id="Medium-S" transform="matrix(1 0 0 1 1688.63 696)">
   <path class="monochrome-0 multicolor-0:tintColor hierarchical-0:secondary SFSymbolsPreviewWireframe" d="M25.41 0.848L90.44 0.848C99.01 0.848 103.39-3.535 103.39-11.984L103.39-58.426C103.39-66.875 99.01-71.258 90.44-71.258L25.41-71.258C16.88-71.258 12.46-66.875 12.46-58.426L12.46-11.984C12.46-3.535 16.88 0.848 25.41 0.848ZM25.89-7.507C22.61-7.507 20.77-9.227 20.77-12.669L20.77-57.741C20.77-61.224 22.61-62.903 25.89-62.903L89.96-62.903C93.24-62.903 95.08-61.224 95.08-57.741L95.08-12.669C95.08-9.227 93.24-7.507 89.96-7.507L25.89-7.507Z"/>
   <path class="monochrome-1 multicolor-1:tintColor hierarchical-1:primary SFSymbolsPreviewWireframe" d="M72.35-39.712L72.35-39.702L79.09-39.702C80.54-39.702 81.72-38.527 81.72-37.077C81.72-35.627 80.54-34.452 79.09-34.452L36.76-34.452C35.31-34.452 34.14-35.627 34.14-37.077C34.14-38.527 35.31-39.702 36.76-39.702L42.75-39.702C42.75-39.715 42.76-39.729 42.77-39.742L48.42-52.506C49.56-55.086 52.44-56.42 55.15-55.624L57.52-54.927L59.9-55.626C62.6-56.42 65.47-55.095 66.62-52.525L72.35-39.712ZM37.03-23.51C37.03-28.456 41.04-32.465 45.99-32.465C49.78-32.465 53.02-30.111 54.32-26.787C55.4-27.202 56.49-27.447 57.65-27.447C58.82-27.447 59.91-27.202 60.99-26.787C62.29-30.111 65.53-32.465 69.32-32.465C74.27-32.465 78.28-28.456 78.28-23.51C78.28-18.565 74.27-14.556 69.32-14.556C65.22-14.556 61.77-17.312 60.7-21.073C59.23-21.958 58.34-22.197 57.65-22.197C56.97-22.197 56.08-21.958 54.61-21.073C53.54-17.312 50.09-14.556 45.99-14.556C41.04-14.556 37.03-18.565 37.03-23.51Z"/>
   <path class="monochrome-1 monochrome-2 multicolor-1:tintColor multicolor-2:tintColor hierarchical-1:primary hierarchical-2:primary SFSymbolsPreviewWireframe" d="M61.38-50.589C61.56-50.642 61.75-50.554 61.83-50.383L66.6-39.702L48.49-39.702L53.22-50.379C53.3-50.551 53.49-50.64 53.67-50.587L56.73-49.688C56.99-49.61 57.26-49.576 57.52-49.581C57.78-49.576 58.05-49.61 58.31-49.688L61.38-50.589ZM45.99-19.806C43.94-19.806 42.28-21.464 42.28-23.51C42.28-25.556 43.94-27.215 45.99-27.215C48.03-27.215 49.69-25.556 49.69-23.51C49.69-21.464 48.03-19.806 45.99-19.806ZM65.62-23.51C65.62-21.464 67.28-19.806 69.32-19.806C71.37-19.806 73.03-21.464 73.03-23.51C73.03-25.556 71.37-27.215 69.32-27.215C67.28-27.215 65.62-25.556 65.62-23.51Z"/>
  </g>
  <g id="Regular-S" transform="matrix(1 0 0 1 1392.09 696)">
   <path class="monochrome-0 multicolor-0:tintColor hierarchical-0:secondary SFSymbolsPreviewWireframe" d="M24.92 0.391L90.59 0.391C98.94 0.391 103.04-3.711 103.04-11.914L103.04-58.496C103.04-66.699 98.94-70.801 90.59-70.801L24.92-70.801C16.62-70.801 12.46-66.699 12.46-58.496L12.46-11.914C12.46-3.711 16.62 0.391 24.92 0.391ZM25.01-6.689C21.5-6.689 19.5-8.594 19.5-12.256L19.5-58.154C19.5-61.865 21.5-63.721 25.01-63.721L90.49-63.721C94.01-63.721 96.01-61.865 96.01-58.154L96.01-12.256C96.01-8.594 94.01-6.689 90.49-6.689L25.01-6.689Z"/>
   <path class="monochrome-1 multicolor-1:tintColor hierarchical-1:primary SFSymbolsPreviewWireframe" d="M66.33-52.506L71.99-39.642L78.92-39.642C80.3-39.642 81.42-38.522 81.42-37.142C81.42-35.761 80.3-34.642 78.92-34.642L70.42-34.642C70.38-34.641 70.34-34.641 70.3-34.642L44.56-34.642C44.52-34.641 44.48-34.641 44.45-34.642L36.59-34.642C35.21-34.642 34.09-35.761 34.09-37.142C34.09-38.522 35.21-39.642 36.59-39.642L42.86-39.642L48.36-52.455C49.46-55.012 52.3-56.345 54.97-55.56L57.34-54.861L59.74-55.567C62.39-56.347 65.21-55.036 66.33-52.506ZM36.86-23.575C36.86-28.52 40.87-32.53 45.81-32.53C49.64-32.53 52.92-30.121 54.19-26.735C55.25-27.146 56.34-27.387 57.48-27.387C58.62-27.387 59.71-27.146 60.77-26.735C62.04-30.121 65.31-32.53 69.15-32.53C74.09-32.53 78.1-28.52 78.1-23.575C78.1-18.63 74.09-14.62 69.15-14.62C64.98-14.62 61.48-17.462 60.48-21.311C59.06-22.148 58.18-22.387 57.48-22.387C56.78-22.387 55.9-22.148 54.48-21.311C53.47-17.462 49.98-14.62 45.81-14.62C40.87-14.62 36.86-18.63 36.86-23.575Z"/>
   <path class="monochrome-1 monochrome-2 multicolor-1:tintColor multicolor-2:tintColor hierarchical-1:primary hierarchical-2:primary SFSymbolsPreviewWireframe" d="M61.15-50.77C61.39-50.841 61.65-50.722 61.75-50.492L66.53-39.642L48.3-39.642L52.96-50.481C53.06-50.714 53.32-50.835 53.56-50.763L56.59-49.872C56.84-49.798 57.09-49.766 57.34-49.771C57.59-49.765 57.85-49.798 58.1-49.872L61.15-50.77ZM45.81-19.62C43.63-19.62 41.86-21.391 41.86-23.575C41.86-25.759 43.63-27.53 45.81-27.53C48-27.53 49.77-25.759 49.77-23.575C49.77-21.391 48-19.62 45.81-19.62ZM65.19-23.575C65.19-21.391 66.96-19.62 69.15-19.62C71.33-19.62 73.1-21.391 73.1-23.575C73.1-25.759 71.33-27.53 69.15-27.53C66.96-27.53 65.19-25.759 65.19-23.575Z"/>
  </g>
  <g id="Light-S" transform="matrix(1 0 0 1 1095.73 696)">
   <path class="monochrome-0 multicolor-0:tintColor hierarchical-0:secondary SFSymbolsPreviewWireframe" d="M24.09-0.291L90.7-0.291C98.45-0.291 102.34-4.211 102.34-11.824L102.34-58.618C102.34-66.23 98.45-70.15 90.7-70.15L24.09-70.15C16.38-70.15 12.46-66.261 12.46-58.618L12.46-11.824C12.46-4.181 16.38-0.291 24.09-0.291ZM24.19-5.751C20.11-5.751 17.88-7.913 17.88-12.09L17.88-58.352C17.88-62.562 20.11-64.69 24.19-64.69L90.6-64.69C94.62-64.69 96.91-62.562 96.91-58.352L96.91-12.09C96.91-7.913 94.62-5.751 90.6-5.751L24.19-5.751Z"/>
   <path class="monochrome-1 multicolor-1:tintColor hierarchical-1:primary SFSymbolsPreviewWireframe" d="M65.61-52.567L71.4-39.457L78.56-39.457C79.72-39.457 80.66-38.517 80.66-37.357C80.66-36.197 79.72-35.257 78.56-35.257L36.23-35.257C35.07-35.257 34.13-36.197 34.13-37.357C34.13-38.517 35.07-39.457 36.23-39.457L42.65-39.457L48.37-52.546C49.4-54.9 52.02-56.121 54.49-55.396L56.99-54.66L59.5-55.399C61.96-56.122 64.57-54.91 65.61-52.567ZM36.5-23.79C36.5-28.736 40.51-32.745 45.46-32.745C49.43-32.745 52.8-30.155 53.97-26.571C55-26.971 56.04-27.201 57.13-27.201C58.21-27.201 59.25-26.971 60.28-26.571C61.45-30.155 64.82-32.745 68.79-32.745C73.74-32.745 77.75-28.736 77.75-23.79C77.75-18.845 73.74-14.836 68.79-14.836C64.44-14.836 60.81-17.94 60.01-22.055C58.74-22.764 57.87-23.001 57.13-23.001C56.38-23.001 55.51-22.764 54.24-22.055C53.44-17.94 49.81-14.836 45.46-14.836C40.51-14.836 36.5-18.845 36.5-23.79Z"/>
   <path class="monochrome-1 monochrome-2 multicolor-1:tintColor multicolor-2:tintColor hierarchical-1:primary hierarchical-2:primary SFSymbolsPreviewWireframe" d="M60.69-51.37C61.12-51.498 61.58-51.284 61.77-50.87L66.81-39.457L47.24-39.457L52.22-50.864C52.4-51.279 52.87-51.495 53.3-51.367L56.35-50.472C56.56-50.409 56.78-50.381 56.99-50.386C57.2-50.381 57.42-50.408 57.63-50.472L60.69-51.37ZM45.46-19.036C42.83-19.036 40.7-21.165 40.7-23.79C40.7-26.416 42.83-28.545 45.46-28.545C48.08-28.545 50.21-26.416 50.21-23.79C50.21-21.165 48.08-19.036 45.46-19.036ZM64.04-23.79C64.04-21.165 66.17-19.036 68.79-19.036C71.42-19.036 73.55-21.165 73.55-23.79C73.55-26.416 71.42-28.545 68.79-28.545C66.17-28.545 64.04-26.416 64.04-23.79Z"/>
  </g>
  <g id="Thin-S" transform="matrix(1 0 0 1 799.483 696)">
   <path class="monochrome-0 multicolor-0:tintColor hierarchical-0:secondary SFSymbolsPreviewWireframe" d="M23.013-1.191L90.867-1.191C97.81-1.191 101.419-4.871 101.419-11.703L101.419-58.777C101.419-65.609 97.81-69.289 90.867-69.289L23.013-69.289C16.083-69.289 12.46-65.68 12.46-58.777L12.46-11.703C12.46-4.801 16.083-1.191 23.013-1.191ZM23.111-4.51C18.294-4.51 15.765-7.012 15.765-11.869L15.765-58.611C15.765-63.482 18.294-65.971 23.111-65.971L90.769-65.971C95.445-65.971 98.115-63.482 98.115-58.611L98.115-11.869C98.115-7.012 95.445-4.51 90.769-4.51L23.111-4.51Z"/>
   <path class="monochrome-1 multicolor-1:tintColor hierarchical-1:primary SFSymbolsPreviewWireframe" d="M64.601-52.644L70.549-39.176L78.104-39.176C78.932-39.176 79.604-38.504 79.604-37.676C79.604-36.848 78.932-36.176 78.104-36.176L35.773-36.176C34.944-36.176 34.273-36.848 34.273-37.676C34.273-38.504 34.944-39.176 35.773-39.176L42.589-39.176L48.465-52.624C49.372-54.701 51.683-55.779 53.858-55.14L56.531-54.353L59.215-55.143C61.383-55.78 63.688-54.711 64.601-52.644ZM36.044-24.11C36.044-29.055 40.053-33.064 44.999-33.064C49.184-33.064 52.699-30.193 53.68-26.313C54.669-26.704 55.649-26.922 56.667-26.922C57.685-26.922 58.665-26.704 59.653-26.313C60.635-30.193 64.15-33.064 68.335-33.064C73.28-33.064 77.29-29.055 77.29-24.11C77.29-19.164 73.28-15.155 68.335-15.155C63.725-15.155 59.928-18.64 59.435-23.118C58.315-23.695 57.454-23.922 56.667-23.922C55.88-23.922 55.019-23.695 53.899-23.119C53.406-18.64 49.609-15.155 44.999-15.155C40.053-15.155 36.044-19.164 36.044-24.11Z"/>
   <path class="monochrome-1 monochrome-2 multicolor-1:tintColor multicolor-2:tintColor hierarchical-1:primary hierarchical-2:primary SFSymbolsPreviewWireframe" d="M60.061-52.264C60.784-52.477 61.552-52.121 61.856-51.432L67.27-39.176L45.863-39.176L51.214-51.423C51.516-52.115 52.287-52.475 53.012-52.262L56.056-51.366C56.214-51.32 56.374-51.3 56.53-51.306C56.687-51.3 56.848-51.319 57.006-51.366L60.061-52.264ZM44.999-18.155C41.71-18.155 39.044-20.821 39.044-24.11C39.044-27.398 41.71-30.064 44.999-30.064C48.288-30.064 50.954-27.398 50.954-24.11C50.954-20.821 48.288-18.155 44.999-18.155ZM62.38-24.11C62.38-20.821 65.046-18.155 68.335-18.155C71.624-18.155 74.29-20.821 74.29-24.11C74.29-27.398 71.624-30.064 68.335-30.064C65.046-30.064 62.38-27.398 62.38-24.11Z"/>
  </g>
  <g id="Ultralight-S" transform="matrix(1 0 0 1 503.008 696)">
   <path class="monochrome-0 multicolor-0:tintColor hierarchical-0:secondary SFSymbolsPreviewWireframe" d="M22.459-1.652L90.948-1.652C97.481-1.652 100.947-5.209 100.947-11.641L100.947-58.859C100.947-65.291 97.481-68.848 90.948-68.848L22.459-68.848C15.929-68.848 12.46-65.382 12.46-58.859L12.46-11.641C12.46-5.118 15.929-1.652 22.459-1.652ZM22.556-3.874C17.361-3.874 14.678-6.55 14.678-11.756L14.678-58.744C14.678-63.954 17.361-66.626 22.556-66.626L90.85-66.626C95.865-66.626 98.729-63.954 98.729-58.744L98.729-11.756C98.729-6.55 95.865-3.874 90.85-3.874L22.556-3.874Z"/>
   <path class="monochrome-1 multicolor-1:tintColor hierarchical-1:primary SFSymbolsPreviewWireframe" d="M64.138-52.683L70.155-39.061L77.875-39.061C78.565-39.061 79.125-38.501 79.125-37.811C79.125-37.121 78.565-36.561 77.875-36.561L35.53-36.561C34.84-36.561 34.28-37.121 34.28-37.811C34.28-38.501 34.84-39.061 35.53-39.061L42.512-39.061L48.456-52.665C49.313-54.627 51.496-55.645 53.55-55.04L56.296-54.233L59.051-55.043C61.099-55.646 63.276-54.636 64.138-52.683ZM35.802-24.24C35.802-29.187 39.812-33.197 44.759-33.197C49.034-33.197 52.609-30.203 53.502-26.198C54.493-26.593 55.465-26.808 56.47-26.803C57.448-26.797 58.395-26.583 59.361-26.198C60.254-30.203 63.829-33.197 68.103-33.197C73.051-33.197 77.061-29.187 77.061-24.24C77.061-19.293 73.051-15.282 68.103-15.282C63.389-15.282 59.525-18.925 59.172-23.549C59.139-23.562 59.106-23.576 59.074-23.592C58.055-24.088 57.229-24.298 56.456-24.303C55.684-24.307 54.863-24.106 53.852-23.622C53.799-23.597 53.745-23.576 53.691-23.559C53.343-18.93 49.477-15.282 44.759-15.282C39.812-15.282 35.802-19.293 35.802-24.24Z"/>
   <path class="monochrome-1 monochrome-2 multicolor-1:tintColor multicolor-2:tintColor hierarchical-1:primary hierarchical-2:primary SFSymbolsPreviewWireframe" d="M59.757-52.645C60.6-52.893 61.496-52.477 61.851-51.673L67.422-39.061L45.24-39.061L50.747-51.664C51.1-52.472 51.999-52.891 52.844-52.642L55.891-51.746C56.026-51.706 56.162-51.69 56.295-51.696C56.428-51.69 56.565-51.706 56.7-51.746L59.757-52.645ZM44.759-17.782C41.193-17.782 38.302-20.673 38.302-24.24C38.302-27.806 41.193-30.697 44.759-30.697C48.326-30.697 51.217-27.806 51.217-24.24C51.217-20.673 48.326-17.782 44.759-17.782ZM61.646-24.24C61.646-20.673 64.537-17.782 68.103-17.782C71.67-17.782 74.561-20.673 74.561-24.24C74.561-27.806 71.67-30.697 68.103-30.697C64.537-30.697 61.646-27.806 61.646-24.24Z"/>
  </g>
 </g>
</svg>
