<svg xmlns="http://www.w3.org/2000/svg" width="220" height="129" fill="none" viewBox="0 0 220 129"><path fill="#1F1F1F" stroke="url(#a)" stroke-width="4" d="M50.387 37.506a4 4 0 0 1 4-4h111.904a4 4 0 0 1 4 4V121a4 4 0 0 1-4 4H54.387a4 4 0 0 1-4-4V37.506Z"/><path stroke="#5F6368" stroke-width="4" d="M170.291 42.656H83.06a1 1 0 0 1-1-1V38.08M82.06 38.08c0-2.526-2.026-4.574-4.525-4.574"/><rect width="27.148" height="30.879" x="80.929" y="78.109" fill="#5F6368" rx="2"/><rect width="27.148" height="30.879" x="112.602" y="78.109" fill="#3C4043" rx="2"/><rect width="47.509" height="9.149" x="86.585" y="57.523" fill="#3C4043" rx="4.575"/><path fill="#5F6368" d="M83.191 34.65h80.313v8.006H83.191z"/><mask id="b" width="43" height="41" x="130" y="31" maskUnits="userSpaceOnUse" style="mask-type:alpha"><path fill="#fff" d="M130.7 44.818V31.244h41.854V71.4h-37.895V44.818H130.7Z"/></mask><g filter="url(#c)" mask="url(#b)"><circle cx="166.332" cy="36.334" r="23.189" fill="#174EA6"/></g><rect width="49.772" height="49.772" x="152.055" y="3.27" fill="#3C4043" rx="4" transform="rotate(4.704 152.055 3.27)"/><rect width="40.722" height="38.46" x="156.007" y="10.405" fill="#1F1F1F" rx="2" transform="rotate(4.704 156.007 10.405)"/><rect width="18.099" height="4.525" x="172.732" y="14.051" fill="#5F6368" rx="2.262" transform="rotate(4.704 172.732 14.051)"/><rect width="12.443" height="2.262" x="173.303" y="20.908" fill="#5F6368" rx="1.131" transform="rotate(4.704 173.303 20.908)"/><rect width="12.443" height="2.262" x="172.283" y="33.309" fill="#5F6368" rx="1.131" transform="rotate(4.704 172.283 33.31)"/><rect width="12.443" height="2.262" x="171.262" y="45.71" fill="#5F6368" rx="1.131" transform="rotate(4.704 171.262 45.71)"/><rect width="18.099" height="4.525" x="171.712" y="26.452" fill="#5F6368" rx="2.262" transform="rotate(4.704 171.712 26.452)"/><rect width="18.099" height="4.525" x="170.692" y="38.853" fill="#5F6368" rx="2.262" transform="rotate(4.704 170.692 38.853)"/><rect width="9.049" height="9.049" x="161.459" y="13.124" fill="#5F6368" rx="1" transform="rotate(4.704 161.459 13.124)"/><rect width="9.049" height="9.049" x="160.438" y="25.525" fill="#5F6368" rx="1" transform="rotate(4.704 160.438 25.525)"/><rect width="9.049" height="9.049" x="159.418" y="37.926" fill="#5F6368" rx="1" transform="rotate(4.704 159.418 37.926)"/><rect width="5.656" height="6.787" x="159.111" y="14.066" fill="#1A73E8" rx="1" transform="rotate(4.704 159.111 14.066)"/><rect width="5.656" height="6.787" x="158.091" y="26.467" fill="#1E8E3E" rx="1" transform="rotate(4.704 158.091 26.467)"/><rect width="5.656" height="6.787" x="157.07" y="38.868" fill="#F9AB00" rx="1" transform="rotate(4.704 157.07 38.868)"/><path stroke="#E8F0FE" stroke-dasharray="1 4" stroke-linecap="round" stroke-width="2" d="M152 43c-9.791 2.485-23.194 14.91-26 41"/><mask id="d" width="44" height="53" x="48" y="31" maskUnits="userSpaceOnUse" style="mask-type:alpha"><path fill="#D9D9D9" d="M48.125 31.244h42.984v52.034H48.125z"/></mask><g filter="url(#e)" mask="url(#d)"><circle cx="37.379" cy="47.646" r="32.238" fill="#174EA6"/></g><rect width="49.772" height="49.772" x="13.171" y="24.548" fill="#3C4043" rx="4" transform="rotate(-5.191 13.17 24.548)"/><rect width="40.722" height="16.968" x="18.291" y="30.898" fill="#1F1F1F" rx="2" transform="rotate(-5.191 18.291 30.898)"/><rect width="40.722" height="18.099" x="20.134" y="51.176" fill="#28292A" rx="2" transform="rotate(-5.191 20.134 51.176)"/><rect width="13.574" height="4.525" x="22.49" y="39.603" fill="#1A73E8" rx="2.262" transform="rotate(-5.191 22.49 39.603)"/><rect width="20.361" height="4.525" x="24.434" y="61.007" fill="#5F6368" rx="2.262" transform="rotate(-5.191 24.434 61.007)"/><rect width="20.361" height="4.525" x="23.82" y="54.248" fill="#5F6368" rx="2.262" transform="rotate(-5.191 23.82 54.248)"/><rect width="20.361" height="4.525" x="21.875" y="32.844" fill="#5F6368" rx="2.262" transform="rotate(-5.191 21.875 32.844)"/><path stroke="#E8F0FE" stroke-dasharray="1 4" stroke-linecap="round" stroke-width="2" d="M58.305 57.827c15.27-6.788 35.066 0 40.157 22.623"/><defs><filter id="c" width="62.378" height="62.378" x="135.143" y="5.145" color-interpolation-filters="sRGB" filterUnits="userSpaceOnUse"><feFlood flood-opacity="0" result="BackgroundImageFix"/><feBlend in="SourceGraphic" in2="BackgroundImageFix" result="shape"/><feGaussianBlur result="effect1_foregroundBlur_1419_75867" stdDeviation="4"/></filter><filter id="e" width="80.477" height="80.477" x="-2.86" y="7.407" color-interpolation-filters="sRGB" filterUnits="userSpaceOnUse"><feFlood flood-opacity="0" result="BackgroundImageFix"/><feBlend in="SourceGraphic" in2="BackgroundImageFix" result="shape"/><feGaussianBlur result="effect1_foregroundBlur_1419_75867" stdDeviation="4"/></filter><linearGradient id="a" x1="114.711" x2="83.744" y1="61.856" y2="124.454" gradientUnits="userSpaceOnUse"><stop stop-color="#5F6368"/><stop offset=".953" stop-color="#1967D2"/></linearGradient></defs></svg>