<?xml version="1.0" encoding="UTF-8"?>
<!--Generator: Apple Native CoreSVG 232.5-->
<!DOCTYPE svg
PUBLIC "-//W3C//DTD SVG 1.1//EN"
       "http://www.w3.org/Graphics/SVG/1.1/DTD/svg11.dtd">
<svg version="1.1" xmlns="http://www.w3.org/2000/svg" xmlns:xlink="http://www.w3.org/1999/xlink" width="3300" height="2200">
 <!--glyph: "", point size: 100.0, font version: "19.2d2e1", template writer version: "128"-->
 <style>.monochrome-0 {-sfsymbols-variable-threshold:0.0;-sfsymbols-motion-group:1}
.monochrome-1 {opacity:0.0;-sfsymbols-clear-behind:true;-sfsymbols-motion-group:0}

.multicolor-0:tintColor {-sfsymbols-variable-threshold:0.0;-sfsymbols-motion-group:1}
.multicolor-1:tintColor {-sfsymbols-motion-group:0}

.hierarchical-0:primary {-sfsymbols-variable-threshold:0.0;-sfsymbols-motion-group:1}
.hierarchical-1:primary {-sfsymbols-motion-group:0}

.SFSymbolsPreviewWireframe {fill:none;opacity:1.0;stroke:black;stroke-width:0.5}
</style>
 <g id="Notes">
  <rect height="2200" id="artboard" style="fill:white;opacity:1" width="3300" x="0" y="0"/>
  <line style="fill:none;stroke:black;opacity:1;stroke-width:0.5;" x1="263" x2="3036" y1="292" y2="292"/>
  <text style="stroke:none;fill:black;font-family:sans-serif;font-size:13;font-weight:bold;" transform="matrix(1 0 0 1 263 322)">Weight/Scale Variations</text>
  <text style="stroke:none;fill:black;font-family:sans-serif;font-size:13;text-anchor:middle;" transform="matrix(1 0 0 1 559.711 322)">Ultralight</text>
  <text style="stroke:none;fill:black;font-family:sans-serif;font-size:13;text-anchor:middle;" transform="matrix(1 0 0 1 856.422 322)">Thin</text>
  <text style="stroke:none;fill:black;font-family:sans-serif;font-size:13;text-anchor:middle;" transform="matrix(1 0 0 1 1153.13 322)">Light</text>
  <text style="stroke:none;fill:black;font-family:sans-serif;font-size:13;text-anchor:middle;" transform="matrix(1 0 0 1 1449.84 322)">Regular</text>
  <text style="stroke:none;fill:black;font-family:sans-serif;font-size:13;text-anchor:middle;" transform="matrix(1 0 0 1 1746.56 322)">Medium</text>
  <text style="stroke:none;fill:black;font-family:sans-serif;font-size:13;text-anchor:middle;" transform="matrix(1 0 0 1 2043.27 322)">Semibold</text>
  <text style="stroke:none;fill:black;font-family:sans-serif;font-size:13;text-anchor:middle;" transform="matrix(1 0 0 1 2339.98 322)">Bold</text>
  <text style="stroke:none;fill:black;font-family:sans-serif;font-size:13;text-anchor:middle;" transform="matrix(1 0 0 1 2636.69 322)">Heavy</text>
  <text style="stroke:none;fill:black;font-family:sans-serif;font-size:13;text-anchor:middle;" transform="matrix(1 0 0 1 2933.4 322)">Black</text>
  <line style="fill:none;stroke:black;opacity:1;stroke-width:0.5;" x1="263" x2="3036" y1="1903" y2="1903"/>
  <g transform="matrix(0.2 0 0 0.2 263 1933)">
   <path d="m46.2402 4.15039c21.5332 0 39.4531-17.8711 39.4531-39.4043s-17.9688-39.4043-39.502-39.4043c-21.4844 0-39.3555 17.8711-39.3555 39.4043s17.9199 39.4043 39.4043 39.4043Zm0-7.42188c-17.7246 0-31.8848-14.209-31.8848-31.9824s14.1113-31.9824 31.8359-31.9824c17.7734 0 32.0312 14.209 32.0312 31.9824s-14.209 31.9824-31.9824 31.9824Zm-17.9688-31.9824c0 2.14844 1.51367 3.61328 3.75977 3.61328h10.498v10.5957c0 2.19727 1.46484 3.71094 3.61328 3.71094 2.24609 0 3.71094-1.51367 3.71094-3.71094v-10.5957h10.5957c2.19727 0 3.71094-1.46484 3.71094-3.61328 0-2.19727-1.51367-3.71094-3.71094-3.71094h-10.5957v-10.5469c0-2.24609-1.46484-3.75977-3.71094-3.75977-2.14844 0-3.61328 1.51367-3.61328 3.75977v10.5469h-10.498c-2.24609 0-3.75977 1.51367-3.75977 3.71094Z"/>
  </g>
  <g transform="matrix(0.2 0 0 0.2 281.506 1933)">
   <path d="m58.5449 14.5508c27.2461 0 49.8047-22.6074 49.8047-49.8047 0-27.2461-22.6074-49.8047-49.8535-49.8047-27.1973 0-49.7559 22.5586-49.7559 49.8047 0 27.1973 22.6074 49.8047 49.8047 49.8047Zm0-8.30078c-23.0469 0-41.4551-18.457-41.4551-41.5039s18.3594-41.5039 41.4062-41.5039 41.5527 18.457 41.5527 41.5039-18.457 41.5039-41.5039 41.5039Zm-22.6562-41.5039c0 2.39258 1.66016 4.00391 4.15039 4.00391h14.3555v14.4043c0 2.44141 1.66016 4.15039 4.05273 4.15039 2.44141 0 4.15039-1.66016 4.15039-4.15039v-14.4043h14.4043c2.44141 0 4.15039-1.61133 4.15039-4.00391 0-2.44141-1.70898-4.15039-4.15039-4.15039h-14.4043v-14.3555c0-2.49023-1.70898-4.19922-4.15039-4.19922-2.39258 0-4.05273 1.70898-4.05273 4.19922v14.3555h-14.3555c-2.49023 0-4.15039 1.70898-4.15039 4.15039Z"/>
  </g>
  <g transform="matrix(0.2 0 0 0.2 304.924 1933)">
   <path d="m74.8535 28.3203c34.8145 0 63.623-28.8086 63.623-63.5742 0-34.8145-28.8574-63.623-63.6719-63.623-34.7656 0-63.5254 28.8086-63.5254 63.623 0 34.7656 28.8086 63.5742 63.5742 63.5742Zm0-9.08203c-30.1758 0-54.4434-24.3164-54.4434-54.4922 0-30.2246 24.2188-54.4922 54.3945-54.4922 30.2246 0 54.541 24.2676 54.541 54.4922 0 30.1758-24.2676 54.4922-54.4922 54.4922Zm-28.8574-54.4922c0 2.58789 1.85547 4.39453 4.58984 4.39453h19.7266v19.7754c0 2.68555 1.85547 4.58984 4.44336 4.58984 2.68555 0 4.54102-1.85547 4.54102-4.58984v-19.7754h19.7754c2.68555 0 4.58984-1.80664 4.58984-4.39453 0-2.73438-1.85547-4.58984-4.58984-4.58984h-19.7754v-19.7266c0-2.73438-1.85547-4.63867-4.54102-4.63867-2.58789 0-4.44336 1.9043-4.44336 4.63867v19.7266h-19.7266c-2.73438 0-4.58984 1.85547-4.58984 4.58984Z"/>
  </g>
  <text style="stroke:none;fill:black;font-family:sans-serif;font-size:13;font-weight:bold;" transform="matrix(1 0 0 1 263 1953)">Design Variations</text>
  <text style="stroke:none;fill:black;font-family:sans-serif;font-size:13;" transform="matrix(1 0 0 1 263 1971)">Symbols are supported in up to nine weights and three scales.</text>
  <text style="stroke:none;fill:black;font-family:sans-serif;font-size:13;" transform="matrix(1 0 0 1 263 1989)">For optimal layout with text and other symbols, vertically align</text>
  <text style="stroke:none;fill:black;font-family:sans-serif;font-size:13;" transform="matrix(1 0 0 1 263 2007)">symbols with the adjacent text.</text>
  <line style="fill:none;stroke:#00AEEF;stroke-width:0.5;opacity:1.0;" x1="776" x2="776" y1="1919" y2="1933"/>
  <g transform="matrix(0.2 0 0 0.2 776 1933)">
   <path d="m16.5527 0.78125c2.58789 0 3.85742-0.976562 4.78516-3.71094l6.29883-17.2363h28.8086l6.29883 17.2363c0.927734 2.73438 2.19727 3.71094 4.73633 3.71094 2.58789 0 4.24805-1.5625 4.24805-4.00391 0-0.830078-0.146484-1.61133-0.537109-2.63672l-22.9004-60.9863c-1.12305-2.97852-3.125-4.49219-6.25-4.49219-3.02734 0-5.07812 1.46484-6.15234 4.44336l-22.9004 61.084c-0.390625 1.02539-0.537109 1.80664-0.537109 2.63672 0 2.44141 1.5625 3.95508 4.10156 3.95508Zm13.4766-28.3691 11.8652-32.8613h0.244141l11.8652 32.8613Z"/>
  </g>
  <line style="fill:none;stroke:#00AEEF;stroke-width:0.5;opacity:1.0;" x1="792.836" x2="792.836" y1="1919" y2="1933"/>
  <text style="stroke:none;fill:black;font-family:sans-serif;font-size:13;font-weight:bold;" transform="matrix(1 0 0 1 776 1953)">Margins</text>
  <text style="stroke:none;fill:black;font-family:sans-serif;font-size:13;" transform="matrix(1 0 0 1 776 1971)">Leading and trailing margins on the left and right side of each symbol</text>
  <text style="stroke:none;fill:black;font-family:sans-serif;font-size:13;" transform="matrix(1 0 0 1 776 1989)">can be adjusted by modifying the x-location of the margin guidelines.</text>
  <text style="stroke:none;fill:black;font-family:sans-serif;font-size:13;" transform="matrix(1 0 0 1 776 2007)">Modifications are automatically applied proportionally to all</text>
  <text style="stroke:none;fill:black;font-family:sans-serif;font-size:13;" transform="matrix(1 0 0 1 776 2025)">scales and weights.</text>
  <g transform="matrix(0.2 0 0 0.2 1289 1933)">
   <path d="m14.209 9.32617 8.49609 8.54492c4.29688 4.3457 9.22852 4.05273 13.8672-1.07422l53.4668-58.9355-4.83398-4.88281-53.0762 58.3984c-1.75781 2.00195-3.41797 2.49023-5.76172 0.146484l-5.85938-5.81055c-2.34375-2.29492-1.80664-4.00391 0.195312-5.81055l57.373-54.0039-4.88281-4.83398-57.959 54.4434c-4.93164 4.58984-5.32227 9.47266-1.02539 13.8184Zm32.0801-90.9668c-2.09961 2.05078-2.24609 4.93164-1.07422 6.88477 1.17188 1.80664 3.4668 2.97852 6.68945 2.14844 7.32422-1.70898 14.9414-2.00195 22.0703 2.68555l-2.92969 7.27539c-1.70898 4.15039-0.830078 7.08008 1.85547 9.81445l11.4746 11.5723c2.44141 2.44141 4.49219 2.53906 7.32422 2.05078l5.32227-0.976562 3.32031 3.36914-0.195312 2.7832c-0.195312 2.49023 0.439453 4.39453 2.88086 6.78711l3.80859 3.71094c2.39258 2.39258 5.46875 2.53906 7.8125 0.195312l14.5508-14.5996c2.34375-2.34375 2.24609-5.32227-0.146484-7.71484l-3.85742-3.80859c-2.39258-2.39258-4.24805-3.17383-6.64062-2.97852l-2.88086 0.244141-3.22266-3.17383 1.2207-5.61523c0.634766-2.83203-0.146484-5.0293-3.07617-7.95898l-10.9863-10.9375c-16.6992-16.6016-38.8672-16.2109-53.3203-1.75781Zm7.4707 1.85547c12.1582-8.88672 28.6133-7.37305 39.7461 3.75977l12.1582 12.0605c1.17188 1.17188 1.36719 2.09961 1.02539 3.80859l-1.61133 7.42188 7.51953 7.42188 4.93164-0.292969c1.26953-0.0488281 1.66016 0.0488281 2.63672 1.02539l2.88086 2.88086-12.207 12.207-2.88086-2.88086c-0.976562-0.976562-1.12305-1.36719-1.07422-2.68555l0.341797-4.88281-7.4707-7.42188-7.61719 1.26953c-1.61133 0.341797-2.34375 0.195312-3.56445-0.976562l-10.0098-10.0098c-1.26953-1.17188-1.41602-2.00195-0.634766-3.85742l4.39453-10.4492c-7.8125-7.27539-17.9688-10.4004-28.125-7.42188-0.78125 0.195312-1.07422-0.439453-0.439453-0.976562Z"/>
  </g>
  <text style="stroke:none;fill:black;font-family:sans-serif;font-size:13;font-weight:bold;" transform="matrix(1 0 0 1 1289 1953)">Exporting</text>
  <text style="stroke:none;fill:black;font-family:sans-serif;font-size:13;" transform="matrix(1 0 0 1 1289 1971)">Symbols should be outlined when exporting to ensure the</text>
  <text style="stroke:none;fill:black;font-family:sans-serif;font-size:13;" transform="matrix(1 0 0 1 1289 1989)">design is preserved when submitting to Xcode.</text>
  <text id="template-version" style="stroke:none;fill:black;font-family:sans-serif;font-size:13;text-anchor:end;" transform="matrix(1 0 0 1 3036 1933)">Template v.5.0</text>
  <text style="stroke:none;fill:black;font-family:sans-serif;font-size:13;text-anchor:end;" transform="matrix(1 0 0 1 3036 1951)">Requires Xcode 15 or greater</text>
  <text id="descriptive-name" style="stroke:none;fill:black;font-family:sans-serif;font-size:13;text-anchor:end;" transform="matrix(1 0 0 1 3036 1969)">Generated from my.drive</text>
  <text style="stroke:none;fill:black;font-family:sans-serif;font-size:13;text-anchor:end;" transform="matrix(1 0 0 1 3036 1987)">Typeset at 100.0 points</text>
  <text style="stroke:none;fill:black;font-family:sans-serif;font-size:13;" transform="matrix(1 0 0 1 263 726)">Small</text>
  <text style="stroke:none;fill:black;font-family:sans-serif;font-size:13;" transform="matrix(1 0 0 1 263 1156)">Medium</text>
  <text style="stroke:none;fill:black;font-family:sans-serif;font-size:13;" transform="matrix(1 0 0 1 263 1586)">Large</text>
 </g>
 <g id="Guides">
  <g id="H-reference" style="fill:#27AAE1;stroke:none;" transform="matrix(1 0 0 1 339 696)">
   <path d="M0.993654 0L3.63775 0L29.3281-67.1323L30.0303-67.1323L30.0303-70.459L28.1226-70.459ZM11.6885-24.4799L46.9815-24.4799L46.2315-26.7285L12.4385-26.7285ZM55.1196 0L57.7637 0L30.6382-70.459L29.4326-70.459L29.4326-67.1323Z"/>
  </g>
  <line id="Baseline-S" style="fill:none;stroke:#27AAE1;opacity:1;stroke-width:0.5;" x1="263" x2="3036" y1="696" y2="696"/>
  <line id="Capline-S" style="fill:none;stroke:#27AAE1;opacity:1;stroke-width:0.5;" x1="263" x2="3036" y1="625.541" y2="625.541"/>
  <g id="H-reference" style="fill:#27AAE1;stroke:none;" transform="matrix(1 0 0 1 339 1126)">
   <path d="M0.993654 0L3.63775 0L29.3281-67.1323L30.0303-67.1323L30.0303-70.459L28.1226-70.459ZM11.6885-24.4799L46.9815-24.4799L46.2315-26.7285L12.4385-26.7285ZM55.1196 0L57.7637 0L30.6382-70.459L29.4326-70.459L29.4326-67.1323Z"/>
  </g>
  <line id="Baseline-M" style="fill:none;stroke:#27AAE1;opacity:1;stroke-width:0.5;" x1="263" x2="3036" y1="1126" y2="1126"/>
  <line id="Capline-M" style="fill:none;stroke:#27AAE1;opacity:1;stroke-width:0.5;" x1="263" x2="3036" y1="1055.54" y2="1055.54"/>
  <g id="H-reference" style="fill:#27AAE1;stroke:none;" transform="matrix(1 0 0 1 339 1556)">
   <path d="M0.993654 0L3.63775 0L29.3281-67.1323L30.0303-67.1323L30.0303-70.459L28.1226-70.459ZM11.6885-24.4799L46.9815-24.4799L46.2315-26.7285L12.4385-26.7285ZM55.1196 0L57.7637 0L30.6382-70.459L29.4326-70.459L29.4326-67.1323Z"/>
  </g>
  <line id="Baseline-L" style="fill:none;stroke:#27AAE1;opacity:1;stroke-width:0.5;" x1="263" x2="3036" y1="1556" y2="1556"/>
  <line id="Capline-L" style="fill:none;stroke:#27AAE1;opacity:1;stroke-width:0.5;" x1="263" x2="3036" y1="1485.54" y2="1485.54"/>
  <line id="left-margin-Regular-M" style="fill:none;stroke:#00AEEF;stroke-width:0.5;opacity:1.0;" x1="1396.32" x2="1396.32" y1="1030.79" y2="1150.12"/>
  <line id="right-margin-Regular-M" style="fill:none;stroke:#00AEEF;stroke-width:0.5;opacity:1.0;" x1="1503.37" x2="1503.37" y1="1030.79" y2="1150.12"/>
 </g>
 <g id="Symbols">
  <g id="Heavy-L" transform="matrix(1 0 0 1 2566.84 1556)">
   <path class="monochrome-0 multicolor-0:tintColor hierarchical-0:primary SFSymbolsPreviewWireframe" d="M101.72-35.41C101.72-36.5 101.51-37.47 101.07-38.34L81.89-71.83C81.35-72.91 80.54-73.67 79.45-74.1C78.37-74.64 77.23-74.92 76.04-74.92L62.71-74.92C61.52-74.92 60.38-74.64 59.3-74.1C58.32-73.56 57.51-72.8 56.86-71.83L37.68-38.34C37.24-37.47 36.97-36.5 36.86-35.41C36.86-34.44 37.13-33.52 37.68-32.65L44.99-19.97C45.53-19 46.24-18.18 47.1-17.53C48.08-16.99 49.11-16.72 50.19-16.72L88.56-16.72C89.64-16.72 90.61-16.99 91.48-17.53C92.46-18.18 93.22-19 93.76-19.97L101.07-32.65C101.61-33.52 101.83-34.44 101.72-35.41ZM80.43-36.23L58.32-36.23L69.37-55.57L80.43-36.23ZM31.36-106L107.64-106C121.22-106 132.22-95 132.22-81.42L132.22 10.86C132.22 24.44 121.22 35.44 107.64 35.44L31.36 35.44C17.78 35.44 6.78 24.44 6.78 10.86L6.78-81.42C6.78-95 17.78-106 31.36-106ZM31.36-82.96C30.51-82.96 29.82-82.27 29.82-81.42L29.82-0.78L109.18-0.78L109.18-81.42C109.18-82.27 108.49-82.96 107.64-82.96L31.36-82.96Z"/>
   <path class="monochrome-0 monochrome-1 multicolor-0:tintColor multicolor-1:tintColor hierarchical-0:primary hierarchical-1:primary SFSymbolsPreviewWireframe" d="M29.82 10.86L29.82 8.94L109.18 8.94L109.18 10.86C109.18 11.71 108.49 12.4 107.64 12.4L31.36 12.4C30.51 12.4 29.82 11.71 29.82 10.86Z"/>
  </g>
  <g id="Bold-L" transform="matrix(1 0 0 1 2269.11 1556)">
   <path class="monochrome-0 multicolor-0:tintColor hierarchical-0:primary SFSymbolsPreviewWireframe" d="M103.43-35.42C103.43-36.52 103.21-37.51 102.77-38.39L83.26-72.45C82.7-73.56 81.88-74.33 80.78-74.77C79.67-75.32 78.52-75.59 77.3-75.59L63.75-75.59C62.53-75.59 61.38-75.32 60.27-74.77C59.28-74.22 58.46-73.45 57.79-72.45L38.29-38.39C37.84-37.51 37.57-36.52 37.46-35.42C37.46-34.43 37.73-33.49 38.29-32.61L45.73-19.71C46.28-18.72 46.99-17.89 47.87-17.23C48.87-16.68 49.91-16.41 51.02-16.41L90.03-16.41C91.14-16.41 92.13-16.68 93.01-17.23C94-17.89 94.77-18.72 95.33-19.71L102.77-32.61C103.32-33.49 103.54-34.43 103.43-35.42ZM81.77-36.25L59.28-36.25L70.53-55.92L81.77-36.25ZM28.54-104L112.51-104C124.53-104 134.27-94.26 134.27-82.24L134.27 12.48C134.27 24.5 124.52 34.24 112.51 34.24L28.54 34.24C16.52 34.24 6.78 24.5 6.78 12.48L6.78-82.24C6.78-94.26 16.52-104 28.54-104ZM28.54-87.36C25.71-87.36 23.42-85.07 23.42-82.24L23.42-0.32L117.63-0.32L117.63-82.24C117.63-85.07 115.33-87.36 112.51-87.36L28.54-87.36Z"/>
   <path class="monochrome-0 monochrome-1 multicolor-0:tintColor multicolor-1:tintColor hierarchical-0:primary hierarchical-1:primary SFSymbolsPreviewWireframe" d="M23.42 12.48L23.42 9.66L117.63 9.66L117.63 12.48C117.63 15.31 115.33 17.6 112.51 17.6L28.54 17.6C25.71 17.6 23.42 15.31 23.42 12.48Z"/>
  </g>
  <g id="Semibold-L" transform="matrix(1 0 0 1 1976.62 1556)">
   <path class="monochrome-0 multicolor-0:tintColor hierarchical-0:primary SFSymbolsPreviewWireframe" d="M97.02-37.76C97.45-36.9 97.66-35.93 97.66-34.85C97.77-33.88 97.55-32.96 97.02-32.1L89.74-19.48C89.2-18.51 88.44-17.7 87.47-17.06C86.61-16.52 85.64-16.25 84.56-16.25L46.38-16.25C45.3-16.25 44.27-16.52 43.3-17.06C42.44-17.7 41.74-18.51 41.2-19.48L33.92-32.1C33.38-32.96 33.11-33.88 33.11-34.85C33.22-35.93 33.49-36.9 33.92-37.76L53.01-71.09C53.66-72.06 54.47-72.82 55.44-73.36C56.52-73.89 57.65-74.16 58.83-74.16L72.1-74.16C73.29-74.16 74.42-73.89 75.5-73.36C76.58-72.92 77.39-72.17 77.93-71.09L97.02-37.76ZM54.47-35.66L76.47-35.66L65.47-54.91L54.47-35.66ZM26.49-103L106.11-103C117-103 125.82-94.17 125.82-83.29L125.82 13.1C125.82 23.98 117 32.81 106.11 32.81L26.49 32.81C15.61 32.81 6.78 23.98 6.78 13.1L6.78-83.29C6.78-94.17 15.61-103 26.49-103ZM26.49-88.92C23.38-88.92 20.86-86.4 20.86-83.29L20.86 0.42L111.74 0.42L111.74-83.29C111.74-86.4 109.22-88.92 106.11-88.92L26.49-88.92Z"/>
   <path class="monochrome-0 monochrome-1 multicolor-0:tintColor multicolor-1:tintColor hierarchical-0:primary hierarchical-1:primary SFSymbolsPreviewWireframe" d="M111.74 10.41L20.86 10.41L20.86 13.1C20.86 16.21 23.38 18.73 26.49 18.73L106.11 18.73C109.22 18.73 111.74 16.21 111.74 13.1L111.74 10.41Z"/>
  </g>
  <g id="Medium-L" transform="matrix(1 0 0 1 1677.35 1556)">
   <path class="monochrome-0 multicolor-0:tintColor hierarchical-0:primary SFSymbolsPreviewWireframe" d="M101.1-39.67C101.65-38.79 101.92-37.8 101.92-36.7C101.92-35.71 101.65-34.77 101.1-33.89L93.66-20.99C93.11-20 92.33-19.17 91.34-18.51C90.46-17.96 89.47-17.69 88.37-17.69L49.35-17.69C48.25-17.69 47.2-17.96 46.21-18.51C45.33-19.17 44.61-20 44.06-20.99L36.62-33.89C36.07-34.77 35.79-35.71 35.79-36.7C35.79-37.8 36.07-38.79 36.62-39.67L56.13-73.73C56.68-74.84 57.5-75.61 58.61-76.05C59.71-76.6 60.87-76.87 62.08-76.87L75.64-76.87C76.85-76.87 78.01-76.6 79.11-76.05C80.21-75.61 81.04-74.84 81.59-73.73L101.1-39.67ZM57.61-37.53L80.1-37.53L68.86-57.2L57.61-37.53ZM25.34-104L112.38-104C122.63-104 130.94-95.69 130.94-85.44L130.94 15.68C130.94 25.93 122.63 34.24 112.38 34.24L25.34 34.24C15.09 34.24 6.78 25.93 6.78 15.68L6.78-85.44C6.78-95.69 15.09-104 25.34-104ZM25.34-91.2C22.16-91.2 19.58-88.62 19.58-85.44L19.58-0.32L118.14-0.32L118.14-85.44C118.14-88.62 115.56-91.2 112.38-91.2L25.34-91.2Z"/>
   <path class="monochrome-0 monochrome-1 multicolor-0:tintColor multicolor-1:tintColor hierarchical-0:primary hierarchical-1:primary SFSymbolsPreviewWireframe" d="M118.14 9.92L19.58 9.92L19.58 15.68C19.58 18.86 22.16 21.44 25.34 21.44L112.38 21.44C115.56 21.44 118.14 18.86 118.14 15.68L118.14 9.92Z"/>
  </g>
  <g id="Regular-L" transform="matrix(1 0 0 1 1383.33 1556)">
   <path class="monochrome-0 multicolor-0:tintColor hierarchical-0:primary SFSymbolsPreviewWireframe" d="M99.24-35.86C99.24-36.97 98.96-37.96 98.41-38.84L78.9-72.9C78.35-74 77.52-74.77 76.42-75.21C75.32-75.77 74.16-76.04 72.95-76.04L59.39-76.04C58.18-76.04 57.02-75.77 55.92-75.21C54.82-74.77 53.99-74 53.44-72.9L33.93-38.84C33.38-37.96 33.1-36.97 33.1-35.86C33.1-34.87 33.38-33.94 33.93-33.05L41.37-20.16C41.92-19.17 42.64-18.34 43.52-17.68C44.51-17.13 45.56-16.85 46.66-16.85L85.68-16.85C86.78-16.85 87.77-17.13 88.66-17.68C89.65-18.34 90.42-19.17 90.97-20.16L98.41-33.05C98.96-33.94 99.24-34.87 99.24-35.86ZM77.41-36.69L54.93-36.69L66.17-56.37L77.41-36.69ZM102.82-103C104.71-103 106.72-103 108.44-102.86C110.39-102.7 112.91-102.31 115.5-100.99C118.97-99.22 121.79-96.4 123.55-92.94C124.87-90.35 125.26-87.83 125.42-85.88C125.56-84.15 125.56-82.15 125.56-80.26L125.56 8.99C125.56 10.88 125.56 12.88 125.42 14.61C125.26 16.56 124.87 19.08 123.55 21.67C121.79 25.14 118.97 27.96 115.5 29.72C112.91 31.04 110.39 31.43 108.44 31.59C106.72 31.73 104.71 31.73 102.82 31.73L29.52 31.73C27.63 31.73 25.63 31.73 23.9 31.59C21.95 31.43 19.43 31.04 16.84 29.72C13.38 27.96 10.56 25.14 8.79 21.67C7.47 19.08 7.08 16.56 6.92 14.61C6.78 12.88 6.78 10.88 6.78 8.99L6.78-80.26C6.78-82.15 6.78-84.15 6.92-85.88C7.08-87.83 7.47-90.35 8.79-92.94C10.56-96.4 13.38-99.22 16.84-100.99C19.43-102.31 21.95-102.7 23.9-102.86C25.63-103 27.63-103 29.52-103L102.82-103ZM18.37-88.05C17.53-86.41 17.53-84.26 17.53-79.96L17.53 0.51L114.81 0.51L114.81-79.96C114.81-84.26 114.81-86.41 113.97-88.05C113.24-89.5 112.06-90.67 110.62-91.41C108.98-92.25 106.82-92.25 102.52-92.25L29.82-92.25C25.52-92.25 23.37-92.25 21.73-91.41C20.28-90.67 19.11-89.5 18.37-88.05Z"/>
   <path class="monochrome-0 monochrome-1 multicolor-0:tintColor multicolor-1:tintColor hierarchical-0:primary hierarchical-1:primary SFSymbolsPreviewWireframe" d="M18.37 16.79C17.68 15.43 17.56 13.73 17.54 10.75L114.81 10.75C114.79 13.73 114.67 15.43 113.97 16.79C113.24 18.23 112.06 19.41 110.62 20.14C108.98 20.98 106.82 20.98 102.52 20.98L29.82 20.98C25.52 20.98 23.37 20.98 21.73 20.14C20.28 19.41 19.11 18.23 18.37 16.79Z"/>
  </g>
  <g id="Light-L" transform="matrix(1 0 0 1 1086.49 1556)">
   <path class="monochrome-0 multicolor-0:tintColor hierarchical-0:primary SFSymbolsPreviewWireframe" d="M97.62-39.41C98.08-38.6 98.32-37.68 98.32-36.64C98.43-35.6 98.2-34.62 97.62-33.7L90.53-21.23C89.95-20.2 89.14-19.39 88.11-18.81C87.18-18.35 86.2-18.12 85.16-18.12L47.44-18.12C46.4-18.12 45.36-18.35 44.32-18.81C43.4-19.39 42.65-20.2 42.07-21.23L34.98-33.7C34.51-34.62 34.28-35.6 34.28-36.64C34.28-37.68 34.51-38.6 34.98-39.41L54.01-72.46C54.59-73.38 55.34-74.08 56.26-74.54C57.3-75.11 58.4-75.4 59.55-75.4L73.05-75.4C74.2-75.4 75.24-75.11 76.16-74.54C77.2-74.08 78.01-73.38 78.59-72.46L97.62-39.41ZM55.4-37.16L77.2-37.16L66.3-56.37L55.4-37.16ZM23.42-102L109.18-102C118.37-102 125.82-94.55 125.82-85.36L125.82 15.76C125.82 24.95 118.37 32.4 109.18 32.4L23.42 32.4C14.23 32.4 6.78 24.95 6.78 15.76L6.78-85.36C6.78-94.55 14.23-102 23.42-102ZM23.42-93.68C18.82-93.68 15.1-89.96 15.1-85.36L15.1 1.68L117.5 1.68L117.5-85.36C117.5-89.96 113.78-93.68 109.18-93.68L23.42-93.68Z"/>
   <path class="monochrome-0 monochrome-1 multicolor-0:tintColor multicolor-1:tintColor hierarchical-0:primary hierarchical-1:primary SFSymbolsPreviewWireframe" d="M117.5 9.36L15.1 9.36L15.1 15.76C15.1 20.36 18.82 24.08 23.42 24.08L109.18 24.08C113.78 24.08 117.5 20.36 117.5 15.76L117.5 9.36Z"/>
  </g>
  <g id="Thin-L" transform="matrix(1 0 0 1 790.801 1556)">
   <path class="monochrome-0 multicolor-0:tintColor hierarchical-0:primary SFSymbolsPreviewWireframe" d="M95.725-40.26C96.211-39.41 96.454-38.43 96.454-37.34C96.576-36.25 96.333-35.27 95.725-34.42L88.797-22.39C88.189-21.42 87.399-20.63 86.426-20.02C85.575-19.53 84.603-19.29 83.509-19.29L47.043-19.29C46.071-19.29 45.098-19.53 44.126-20.02C43.153-20.63 42.363-21.42 41.755-22.39L34.827-34.42C34.341-35.27 34.098-36.25 34.098-37.34C34.098-38.43 34.341-39.41 34.827-40.26L53.425-71.98C54.032-72.83 54.762-73.5 55.612-73.99C56.463-74.6 57.436-74.9 58.53-74.9L72.022-74.9C73.116-74.9 74.089-74.66 74.939-74.17C75.79-73.69 76.52-72.96 77.127-71.98L95.725-40.26ZM54.701-37.89L75.851-37.89L65.276-56.3L54.701-37.89ZM17.276-102L113.276-102C119.073-102 123.772-97.3 123.772-91.5L123.772 20.5C123.772 26.29 119.073 30.99 113.276 30.99L17.276 30.99C11.479 30.99 6.78 26.29 6.78 20.5L6.78-91.5C6.78-97.3 11.479-102 17.276-102ZM17.276-96.24C14.66-96.24 12.54-94.12 12.54-91.5L12.54 2.58L118.012 2.58L118.012-91.5C118.012-94.12 115.892-96.24 113.276-96.24L17.276-96.24Z"/>
   <path class="monochrome-0 monochrome-1 multicolor-0:tintColor multicolor-1:tintColor hierarchical-0:primary hierarchical-1:primary SFSymbolsPreviewWireframe" d="M118.012 8.34L12.54 8.34L12.54 20.5C12.54 23.11 14.66 25.23 17.276 25.23L113.276 25.23C115.892 25.23 118.012 23.11 118.012 20.5L118.012 8.34Z"/>
  </g>
  <g id="Ultralight-L" transform="matrix(1 0 0 1 494.602 1556)">
   <path class="monochrome-0 multicolor-0:tintColor hierarchical-0:primary SFSymbolsPreviewWireframe" d="M21.244-101L108.284-101C116.272-101 122.748-94.52 122.748-86.54L122.748 15.86C122.748 23.85 116.272 30.33 108.284 30.33L21.244 30.33C13.256 30.33 6.78 23.85 6.78 15.86L6.78-86.54C6.78-94.52 13.256-101 21.244-101ZM21.244-97.42C15.235-97.42 10.364-92.54 10.364-86.54L10.364 3.58L119.164 3.58L119.164-86.54C119.164-92.54 114.293-97.42 108.284-97.42L21.244-97.42ZM119.164 7.8L10.364 7.8L10.364 15.86C10.364 21.87 15.235 26.74 21.244 26.74L108.284 26.74C114.293 26.74 119.164 21.87 119.164 15.86L119.164 7.8ZM94.499-40.22C95.001-39.34 95.315-38.34 95.44-37.21C95.566-36.21 95.315-35.26 94.687-34.39L87.912-22.72C87.285-21.71 86.469-20.96 85.466-20.46C84.587-19.96 83.646-19.71 82.643-19.71L47.073-19.71C45.943-19.71 44.877-19.96 43.873-20.46C42.995-20.96 42.242-21.71 41.615-22.72L35.028-34.39C34.526-35.26 34.275-36.21 34.275-37.21C34.275-38.34 34.526-39.34 35.028-40.22L53.095-71.27C53.722-72.03 54.413-72.65 55.165-73.16C56.044-73.78 57.047-74.1 58.177-74.1L71.351-74.1C72.48-74.1 73.421-73.85 74.174-73.34C75.052-72.84 75.805-72.15 76.432-71.27L94.499-40.22Z"/>
   <path class="monochrome-0 monochrome-1 multicolor-0:tintColor multicolor-1:tintColor hierarchical-0:primary hierarchical-1:primary SFSymbolsPreviewWireframe" d="M54.413-37.77L75.115-37.77L64.764-55.84L54.413-37.77Z"/>
  </g>
  <g id="Heavy-M" transform="matrix(1 0 0 1 2580.56 1126)">
   <path class="monochrome-0 multicolor-0:tintColor hierarchical-0:primary SFSymbolsPreviewWireframe" d="M80.95-34.85C80.95-35.7 80.78-36.46 80.45-37.14L65.46-63.3C65.04-64.15 64.4-64.74 63.56-65.08C62.71-65.5 61.82-65.71 60.89-65.71L50.47-65.71C49.54-65.71 48.65-65.5 47.81-65.08C47.05-64.66 46.41-64.06 45.9-63.3L30.92-37.14C30.58-36.46 30.37-35.7 30.28-34.85C30.28-34.09 30.49-33.37 30.92-32.7L36.63-22.79C37.06-22.03 37.61-21.39 38.28-20.89C39.05-20.46 39.85-20.25 40.7-20.25L70.67-20.25C71.51-20.25 72.28-20.46 72.95-20.89C73.71-21.39 74.31-22.03 74.73-22.79L80.45-32.7C80.87-33.37 81.04-34.09 80.95-34.85ZM64.32-35.49L47.05-35.49L55.68-50.6L64.32-35.49ZM25.98-90L85.58-90C96.18-90 104.78-81.4 104.78-70.8L104.78 1.3C104.78 11.9 96.18 20.5 85.58 20.5L25.98 20.5C15.38 20.5 6.78 11.9 6.78 1.3L6.78-70.8C6.78-81.4 15.38-90 25.98-90ZM25.98-72C25.32-72 24.78-71.46 24.78-70.8L24.78-7.8L86.78-7.8L86.78-70.8C86.78-71.46 86.24-72 85.58-72L25.98-72Z"/>
   <path class="monochrome-0 monochrome-1 multicolor-0:tintColor multicolor-1:tintColor hierarchical-0:primary hierarchical-1:primary SFSymbolsPreviewWireframe" d="M24.78 1.3L24.78-0.2L86.78-0.2L86.78 1.3C86.78 1.96 86.24 2.5 85.58 2.5L25.98 2.5C25.32 2.5 24.78 1.96 24.78 1.3Z"/>
  </g>
  <g id="Bold-M" transform="matrix(1 0 0 1 2283.05 1126)">
   <path class="monochrome-0 multicolor-0:tintColor hierarchical-0:primary SFSymbolsPreviewWireframe" d="M82.28-35.42C82.28-36.28 82.11-37.06 81.77-37.75L66.53-64.35C66.1-65.22 65.45-65.82 64.59-66.16C63.73-66.59 62.82-66.81 61.88-66.81L51.28-66.81C50.34-66.81 49.43-66.59 48.57-66.16C47.8-65.73 47.15-65.13 46.63-64.35L31.39-37.75C31.05-37.06 30.83-36.28 30.75-35.42C30.75-34.65 30.96-33.91 31.39-33.23L37.21-23.15C37.64-22.38 38.2-21.73 38.88-21.21C39.66-20.78 40.48-20.57 41.34-20.57L71.82-20.57C72.68-20.57 73.46-20.78 74.15-21.21C74.92-21.73 75.53-22.38 75.96-23.15L81.77-33.23C82.2-33.91 82.37-34.65 82.28-35.42ZM65.36-36.07L47.8-36.07L56.58-51.44L65.36-36.07ZM23.78-89L89.38-89C98.77-89 106.38-81.39 106.38-72L106.38 2C106.38 11.39 98.77 19 89.38 19L23.78 19C14.39 19 6.78 11.39 6.78 2L6.78-72C6.78-81.39 14.39-89 23.78-89ZM23.78-76C21.57-76 19.78-74.21 19.78-72L19.78-8L93.38-8L93.38-72C93.38-74.21 91.59-76 89.38-76L23.78-76Z"/>
   <path class="monochrome-0 monochrome-1 multicolor-0:tintColor multicolor-1:tintColor hierarchical-0:primary hierarchical-1:primary SFSymbolsPreviewWireframe" d="M19.78 2L19.78-0.2L93.38-0.2L93.38 2C93.38 4.21 91.59 6 89.38 6L23.78 6C21.57 6 19.78 4.21 19.78 2Z"/>
  </g>
  <g id="Semibold-M" transform="matrix(1 0 0 1 1989.64 1126)">
   <path class="monochrome-0 multicolor-0:tintColor hierarchical-0:primary SFSymbolsPreviewWireframe" d="M77.28-37.03C77.61-36.36 77.78-35.6 77.78-34.76C77.87-34 77.7-33.28 77.28-32.61L71.59-22.75C71.17-21.99 70.58-21.36 69.82-20.86C69.15-20.43 68.39-20.22 67.55-20.22L37.72-20.22C36.87-20.22 36.07-20.43 35.32-20.86C34.64-21.36 34.09-21.99 33.67-22.75L27.98-32.61C27.56-33.28 27.35-34 27.35-34.76C27.44-35.6 27.65-36.36 27.98-37.03L42.9-63.07C43.4-63.83 44.04-64.42 44.79-64.84C45.64-65.26 46.52-65.47 47.45-65.47L57.81-65.47C58.74-65.47 59.62-65.26 60.47-64.84C61.31-64.5 61.94-63.91 62.36-63.07L77.28-37.03ZM44.04-35.39L61.23-35.39L52.63-50.43L44.04-35.39ZM22.18-88L84.38-88C92.89-88 99.78-81.11 99.78-72.6L99.78 2.7C99.78 11.21 92.89 18.1 84.38 18.1L22.18 18.1C13.68 18.1 6.78 11.21 6.78 2.7L6.78-72.6C6.78-81.11 13.68-88 22.18-88ZM22.18-77C19.75-77 17.78-75.03 17.78-72.6L17.78-7.2L88.78-7.2L88.78-72.6C88.78-75.03 86.81-77 84.38-77L22.18-77Z"/>
   <path class="monochrome-0 monochrome-1 multicolor-0:tintColor multicolor-1:tintColor hierarchical-0:primary hierarchical-1:primary SFSymbolsPreviewWireframe" d="M88.78 0.6L17.78 0.6L17.78 2.7C17.78 5.13 19.75 7.1 22.18 7.1L84.38 7.1C86.81 7.1 88.78 5.13 88.78 2.7L88.78 0.6Z"/>
  </g>
  <g id="Medium-M" transform="matrix(1 0 0 1 1690.93 1126)">
   <path class="monochrome-0 multicolor-0:tintColor hierarchical-0:primary SFSymbolsPreviewWireframe" d="M80.47-38.75C80.9-38.06 81.11-37.28 81.11-36.42C81.11-35.65 80.9-34.91 80.47-34.23L74.65-24.15C74.22-23.38 73.62-22.73 72.85-22.21C72.16-21.78 71.38-21.57 70.52-21.57L40.04-21.57C39.18-21.57 38.36-21.78 37.58-22.21C36.9-22.73 36.34-23.38 35.9-24.15L30.09-34.23C29.66-34.91 29.45-35.65 29.45-36.42C29.45-37.28 29.66-38.06 30.09-38.75L45.33-65.35C45.76-66.22 46.41-66.82 47.27-67.16C48.13-67.59 49.04-67.81 49.98-67.81L60.58-67.81C61.52-67.81 62.43-67.59 63.29-67.16C64.15-66.82 64.8-66.22 65.23-65.35L80.47-38.75ZM46.5-37.07L64.06-37.07L55.28-52.44L46.5-37.07ZM21.28-89L89.28-89C97.29-89 103.78-82.51 103.78-74.5L103.78 4.5C103.78 12.51 97.29 19 89.28 19L21.28 19C13.27 19 6.78 12.51 6.78 4.5L6.78-74.5C6.78-82.51 13.27-89 21.28-89ZM21.28-79C18.79-79 16.78-76.99 16.78-74.5L16.78-8L93.78-8L93.78-74.5C93.78-76.99 91.77-79 89.28-79L21.28-79Z"/>
   <path class="monochrome-0 monochrome-1 multicolor-0:tintColor multicolor-1:tintColor hierarchical-0:primary hierarchical-1:primary SFSymbolsPreviewWireframe" d="M93.78 0L16.78 0L16.78 4.5C16.78 6.99 18.79 9 21.28 9L89.28 9C91.77 9 93.78 6.99 93.78 4.5L93.78 0Z"/>
  </g>
  <g id="Regular-M" transform="matrix(1 0 0 1 1396.32 1126)">
   <path class="monochrome-0 multicolor-0:tintColor hierarchical-0:primary SFSymbolsPreviewWireframe" d="M79.01-35.55C79.01-36.41 78.8-37.19 78.37-37.88L63.13-64.48C62.69-65.35 62.05-65.95 61.19-66.29C60.33-66.72 59.42-66.94 58.48-66.94L47.88-66.94C46.94-66.94 46.03-66.72 45.17-66.29C44.31-65.95 43.66-65.35 43.23-64.48L27.99-37.88C27.56-37.19 27.35-36.41 27.35-35.55C27.35-34.78 27.56-34.04 27.99-33.35L33.8-23.28C34.23-22.5 34.79-21.86 35.48-21.34C36.26-20.91 37.08-20.7 37.94-20.7L68.42-20.7C69.28-20.7 70.06-20.91 70.75-21.34C71.52-21.86 72.12-22.5 72.55-23.28L78.37-33.35C78.8-34.04 79.01-34.78 79.01-35.55ZM61.96-36.2L44.4-36.2L53.18-51.57L61.96-36.2ZM81.81-88C92.63-88 99.58-81.65 99.58-70.23L99.58-0.51C99.58 10.31 93.23 17.26 81.81 17.26L24.55 17.26C13.73 17.26 6.78 10.91 6.78-0.51L6.78-70.23C6.78-81.05 13.13-88 24.55-88L81.81-88ZM15.18-70L15.18-7.13L91.18-7.13L91.18-70C91.18-76.97 88.99-79.6 81.58-79.6L24.78-79.6C17.54-79.6 15.18-76.91 15.18-70Z"/>
   <path class="monochrome-0 monochrome-1 multicolor-0:tintColor multicolor-1:tintColor hierarchical-0:primary hierarchical-1:primary SFSymbolsPreviewWireframe" d="M15.83 5.58C15.29 4.52 15.2 3.19 15.18 0.87L91.18 0.87C91.16 3.19 91.07 4.52 90.53 5.58C88.75 9.08 84.99 8.86 81.58 8.86L24.78 8.86C21.37 8.86 17.61 9.08 15.83 5.58Z"/>
  </g>
  <g id="Light-M" transform="matrix(1 0 0 1 1099.51 1126)">
   <path class="monochrome-0 multicolor-0:tintColor hierarchical-0:primary SFSymbolsPreviewWireframe" d="M77.75-39.1C78.11-38.47 78.29-37.75 78.29-36.94C78.38-36.12 78.2-35.36 77.75-34.64L72.21-24.9C71.76-24.09 71.13-23.46 70.32-23.01C69.59-22.65 68.83-22.47 68.02-22.47L38.54-22.47C37.73-22.47 36.92-22.65 36.11-23.01C35.39-23.46 34.8-24.09 34.35-24.9L28.81-34.64C28.45-35.36 28.27-36.12 28.27-36.94C28.27-37.75 28.45-38.47 28.81-39.1L43.68-64.92C44.13-65.64 44.72-66.18 45.44-66.54C46.25-67 47.11-67.22 48.01-67.22L58.55-67.22C59.45-67.22 60.27-67 60.99-66.54C61.8-66.18 62.43-65.64 62.88-64.92L77.75-39.1ZM44.76-37.34L61.8-37.34L53.28-52.35L44.76-37.34ZM19.78-88L86.78-88C93.96-88 99.78-82.18 99.78-75L99.78 4C99.78 11.18 93.96 17 86.78 17L19.78 17C12.6 17 6.78 11.18 6.78 4L6.78-75C6.78-82.18 12.6-88 19.78-88ZM19.78-81.5C16.19-81.5 13.28-78.59 13.28-75L13.28-7L93.28-7L93.28-75C93.28-78.59 90.37-81.5 86.78-81.5L19.78-81.5Z"/>
   <path class="monochrome-0 monochrome-1 multicolor-0:tintColor multicolor-1:tintColor hierarchical-0:primary hierarchical-1:primary SFSymbolsPreviewWireframe" d="M93.28-1L13.28-1L13.28 4C13.28 7.59 16.19 10.5 19.78 10.5L86.78 10.5C90.37 10.5 93.28 7.59 93.28 4L93.28-1Z"/>
  </g>
  <g id="Thin-M" transform="matrix(1 0 0 1 803.597 1126)">
   <path class="monochrome-0 multicolor-0:tintColor hierarchical-0:primary SFSymbolsPreviewWireframe" d="M76.268-38.76C76.648-38.1 76.838-37.34 76.838-36.48C76.933-35.63 76.743-34.87 76.268-34.21L70.855-24.8C70.38-24.04 69.763-23.43 69.003-22.95C68.339-22.57 67.579-22.38 66.724-22.38L38.235-22.38C37.475-22.38 36.716-22.57 35.956-22.95C35.196-23.43 34.579-24.04 34.104-24.8L28.691-34.21C28.312-34.87 28.122-35.63 28.122-36.48C28.122-37.34 28.312-38.1 28.691-38.76L43.221-63.55C43.696-64.21 44.265-64.74 44.93-65.12C45.595-65.59 46.355-65.83 47.209-65.83L57.75-65.83C58.605-65.83 59.365-65.64 60.029-65.26C60.694-64.88 61.264-64.31 61.739-63.55L76.268-38.76ZM44.218-36.91L60.742-36.91L52.48-51.3L44.218-36.91ZM14.98-87L89.98-87C94.509-87 98.18-83.33 98.18-78.8L98.18 8.7C98.18 13.23 94.509 16.9 89.98 16.9L14.98 16.9C10.451 16.9 6.78 13.23 6.78 8.7L6.78-78.8C6.78-83.33 10.451-87 14.98-87ZM14.98-82.5C12.936-82.5 11.28-80.84 11.28-78.8L11.28-5.3L93.68-5.3L93.68-78.8C93.68-80.84 92.023-82.5 89.98-82.5L14.98-82.5Z"/>
   <path class="monochrome-0 monochrome-1 multicolor-0:tintColor multicolor-1:tintColor hierarchical-0:primary hierarchical-1:primary SFSymbolsPreviewWireframe" d="M93.68-0.8L11.28-0.8L11.28 8.7C11.28 10.74 12.936 12.4 14.98 12.4L89.98 12.4C92.023 12.4 93.68 10.74 93.68 8.7L93.68-0.8Z"/>
  </g>
  <g id="Ultralight-M" transform="matrix(1 0 0 1 507.286 1126)">
   <path class="monochrome-0 multicolor-0:tintColor hierarchical-0:primary SFSymbolsPreviewWireframe" d="M18.08-87L86.08-87C92.32-87 97.38-81.94 97.38-75.7L97.38 4.3C97.38 10.54 92.32 15.6 86.08 15.6L18.08 15.6C11.839 15.6 6.78 10.54 6.78 4.3L6.78-75.7C6.78-81.94 11.839-87 18.08-87ZM18.08-84.2C13.385-84.2 9.58-80.39 9.58-75.7L9.58-5.3L94.58-5.3L94.58-75.7C94.58-80.39 90.774-84.2 86.08-84.2L18.08-84.2ZM94.58-2L9.58-2L9.58 4.3C9.58 8.99 13.385 12.8 18.08 12.8L86.08 12.8C90.774 12.8 94.58 8.99 94.58 4.3L94.58-2ZM75.31-39.52C75.702-38.83 75.947-38.05 76.045-37.16C76.143-36.38 75.947-35.64 75.457-34.96L70.164-25.84C69.674-25.06 69.037-24.47 68.253-24.08C67.567-23.69 66.831-23.49 66.047-23.49L38.258-23.49C37.376-23.49 36.543-23.69 35.759-24.08C35.073-24.47 34.484-25.06 33.994-25.84L28.848-34.96C28.456-35.64 28.26-36.38 28.26-37.16C28.26-38.05 28.456-38.83 28.848-39.52L42.963-63.78C43.453-64.36 43.992-64.85 44.581-65.25C45.267-65.74 46.051-65.98 46.933-65.98L57.225-65.98C58.108-65.98 58.843-65.79 59.431-65.39C60.117-65 60.705-64.46 61.195-63.78L75.31-39.52Z"/>
   <path class="monochrome-0 monochrome-1 multicolor-0:tintColor multicolor-1:tintColor hierarchical-0:primary hierarchical-1:primary SFSymbolsPreviewWireframe" d="M43.992-37.6L60.166-37.6L52.079-51.72L43.992-37.6Z"/>
  </g>
  <g id="Heavy-S" transform="matrix(1 0 0 1 2590.85 696)">
   <path class="monochrome-0 multicolor-0:tintColor hierarchical-0:primary SFSymbolsPreviewWireframe" d="M65.38-35.435C65.38-36.104 65.24-36.706 64.98-37.241L53.14-57.909C52.8-58.577 52.3-59.046 51.63-59.313C50.96-59.648 50.26-59.815 49.53-59.815L41.3-59.815C40.56-59.815 39.86-59.648 39.19-59.313C38.59-58.979 38.09-58.51 37.69-57.909L25.85-37.241C25.58-36.706 25.41-36.104 25.35-35.435C25.35-34.833 25.51-34.265 25.85-33.73L30.36-25.904C30.7-25.302 31.13-24.801 31.67-24.399C32.27-24.065 32.9-23.898 33.57-23.898L57.25-23.898C57.92-23.898 58.52-24.065 59.06-24.399C59.66-24.801 60.13-25.302 60.46-25.904L64.98-33.73C65.31-34.265 65.44-34.833 65.38-35.435ZM52.23-35.937L38.59-35.937L45.41-47.876L52.23-35.937ZM21.95-79L69.03-79C77.41-79 84.2-72.209 84.2-63.832L84.2-6.873C84.2 1.504 77.41 8.295 69.03 8.295L21.95 8.295C13.57 8.295 6.78 1.504 6.78-6.873L6.78-63.832C6.78-72.209 13.57-79 21.95-79ZM21.95-64.78C21.42-64.78 21-64.356 21-63.832L21-14.062L69.98-14.062L69.98-63.832C69.98-64.356 69.56-64.78 69.03-64.78L21.95-64.78Z"/>
   <path class="monochrome-0 monochrome-1 multicolor-0:tintColor multicolor-1:tintColor hierarchical-0:primary hierarchical-1:primary SFSymbolsPreviewWireframe" d="M21-6.873L21-8.058L69.98-8.058L69.98-6.873C69.98-6.349 69.56-5.925 69.03-5.925L21.95-5.925C21.42-5.925 21-6.349 21-6.873Z"/>
  </g>
  <g id="Bold-S" transform="matrix(1 0 0 1 2293.51 696)">
   <path class="monochrome-0 multicolor-0:tintColor hierarchical-0:primary SFSymbolsPreviewWireframe" d="M66.43-35.672C66.43-36.353 66.29-36.965 66.02-37.509L53.98-58.53C53.64-59.21 53.13-59.686 52.45-59.958C51.77-60.299 51.06-60.469 50.31-60.469L41.94-60.469C41.19-60.469 40.48-60.299 39.8-59.958C39.19-59.618 38.67-59.142 38.27-58.53L26.23-37.509C25.95-36.965 25.78-36.353 25.72-35.672C25.72-35.06 25.89-34.482 26.23-33.938L30.82-25.979C31.16-25.366 31.6-24.856 32.14-24.448C32.76-24.108 33.4-23.938 34.08-23.938L58.16-23.938C58.85-23.938 59.46-24.108 60-24.448C60.61-24.856 61.09-25.366 61.43-25.979L66.02-33.938C66.36-34.482 66.5-35.06 66.43-35.672ZM53.06-36.183L39.19-36.183L46.12-48.326L53.06-36.183ZM20.21-78L72.03-78C79.45-78 85.46-71.987 85.46-64.57L85.46-6.11C85.46 1.307 79.45 7.32 72.03 7.32L20.21 7.32C12.79 7.32 6.78 1.307 6.78-6.11L6.78-64.57C6.78-71.987 12.79-78 20.21-78ZM20.21-67.73C18.47-67.73 17.05-66.315 17.05-64.57L17.05-14.01L75.19-14.01L75.19-64.57C75.19-66.315 73.78-67.73 72.03-67.73L20.21-67.73Z"/>
   <path class="monochrome-0 monochrome-1 multicolor-0:tintColor multicolor-1:tintColor hierarchical-0:primary hierarchical-1:primary SFSymbolsPreviewWireframe" d="M17.05-6.11L17.05-7.848L75.19-7.848L75.19-6.11C75.19-4.365 73.78-2.95 72.03-2.95L20.21-2.95C18.47-2.95 17.05-4.365 17.05-6.11Z"/>
  </g>
  <g id="Semibold-S" transform="matrix(1 0 0 1 1999.41 696)">
   <path class="monochrome-0 multicolor-0:tintColor hierarchical-0:primary SFSymbolsPreviewWireframe" d="M62.47-36.737C62.74-36.204 62.87-35.605 62.87-34.939C62.94-34.34 62.81-33.774 62.47-33.242L57.98-25.454C57.65-24.854 57.18-24.355 56.58-23.956C56.05-23.623 55.45-23.457 54.78-23.457L31.22-23.457C30.55-23.457 29.92-23.623 29.32-23.956C28.79-24.355 28.36-24.854 28.03-25.454L23.53-33.242C23.2-33.774 23.03-34.34 23.03-34.939C23.1-35.605 23.27-36.204 23.53-36.737L35.31-57.306C35.71-57.905 36.21-58.371 36.81-58.704C37.48-59.036 38.18-59.203 38.91-59.203L47.1-59.203C47.83-59.203 48.53-59.036 49.19-58.704C49.86-58.437 50.36-57.971 50.69-57.306L62.47-36.737ZM36.21-35.439L49.79-35.439L43-47.321L36.21-35.439ZM18.95-77L68.09-77C74.8-77 80.25-71.553 80.25-64.834L80.25-5.347C80.25 1.372 74.8 6.819 68.09 6.819L18.95 6.819C12.23 6.819 6.78 1.372 6.78-5.347L6.78-64.834C6.78-71.553 12.23-77 18.95-77ZM18.95-68.31C17.03-68.31 15.47-66.754 15.47-64.834L15.47-13.168L71.56-13.168L71.56-64.834C71.56-66.754 70.01-68.31 68.09-68.31L18.95-68.31Z"/>
   <path class="monochrome-0 monochrome-1 multicolor-0:tintColor multicolor-1:tintColor hierarchical-0:primary hierarchical-1:primary SFSymbolsPreviewWireframe" d="M71.56-7.006L15.47-7.006L15.47-5.347C15.47-3.427 17.03-1.871 18.95-1.871L68.09-1.871C70.01-1.871 71.56-3.427 71.56-5.347L71.56-7.006Z"/>
  </g>
  <g id="Medium-S" transform="matrix(1 0 0 1 1701.12 696)">
   <path class="monochrome-0 multicolor-0:tintColor hierarchical-0:primary SFSymbolsPreviewWireframe" d="M64.99-38.299C65.33-37.755 65.5-37.143 65.5-36.462C65.5-35.85 65.33-35.272 64.99-34.728L60.4-26.769C60.06-26.156 59.58-25.646 58.97-25.238C58.43-24.898 57.82-24.728 57.13-24.728L33.05-24.728C32.37-24.728 31.73-24.898 31.11-25.238C30.57-25.646 30.13-26.156 29.79-26.769L25.2-34.728C24.86-35.272 24.69-35.85 24.69-36.462C24.69-37.143 24.86-37.755 25.2-38.299L37.24-59.32C37.58-60 38.09-60.476 38.77-60.748C39.45-61.089 40.16-61.259 40.91-61.259L49.28-61.259C50.03-61.259 50.74-61.089 51.42-60.748C52.1-60.476 52.61-60 52.95-59.32L64.99-38.299ZM38.16-36.973L52.03-36.973L45.09-49.116L38.16-36.973ZM18.23-78L71.95-78C78.28-78 83.41-72.871 83.41-66.545L83.41-4.135C83.41 2.191 78.28 7.32 71.95 7.32L18.23 7.32C11.91 7.32 6.78 2.191 6.78-4.135L6.78-66.545C6.78-72.871 11.91-78 18.23-78ZM18.23-70.1C16.27-70.1 14.68-68.508 14.68-66.545L14.68-14.01L75.51-14.01L75.51-66.545C75.51-68.508 73.92-70.1 71.95-70.1L18.23-70.1Z"/>
   <path class="monochrome-0 monochrome-1 multicolor-0:tintColor multicolor-1:tintColor hierarchical-0:primary hierarchical-1:primary SFSymbolsPreviewWireframe" d="M75.51-7.69L14.68-7.69L14.68-4.135C14.68-2.172 16.27-0.58 18.23-0.58L71.95-0.58C73.92-0.58 75.51-2.172 75.51-4.135L75.51-7.69Z"/>
  </g>
  <g id="Regular-S" transform="matrix(1 0 0 1 1406.06 696)">
   <path class="monochrome-0 multicolor-0:tintColor hierarchical-0:primary SFSymbolsPreviewWireframe" d="M63.84-35.565C63.84-36.245 63.67-36.858 63.33-37.402L51.29-58.422C50.95-59.103 50.44-59.579 49.76-59.851C49.08-60.191 48.37-60.361 47.62-60.361L39.25-60.361C38.5-60.361 37.79-60.191 37.11-59.851C36.43-59.579 35.92-59.103 35.58-58.422L23.54-37.402C23.2-36.858 23.03-36.245 23.03-35.565C23.03-34.953 23.2-34.375 23.54-33.83L28.13-25.871C28.47-25.259 28.91-24.749 29.46-24.34C30.07-24 30.71-23.83 31.39-23.83L55.48-23.83C56.16-23.83 56.77-24 57.31-24.34C57.92-24.749 58.4-25.259 58.74-25.871L63.33-33.83C63.67-34.375 63.84-34.953 63.84-35.565ZM50.37-36.075L36.5-36.075L43.43-48.218L50.37-36.075ZM66.06-77C67.22-77 68.46-77 69.52-76.913C70.73-76.815 72.28-76.574 73.88-75.76C76.02-74.669 77.76-72.929 78.85-70.789C79.67-69.19 79.91-67.634 80-66.434C80.09-65.367 80.09-64.13 80.09-62.965L80.09-7.88C80.09-6.715 80.09-5.478 80-4.411C79.91-3.21 79.67-1.654 78.85-0.056C77.76 2.085 76.02 3.825 73.88 4.916C72.28 5.73 70.73 5.971 69.52 6.069C68.46 6.156 67.22 6.156 66.06 6.155L20.81 6.155C19.65 6.156 18.41 6.156 17.35 6.069C16.14 5.971 14.59 5.73 12.99 4.916C10.85 3.825 9.11 2.085 8.02-0.056C7.2-1.654 6.96-3.21 6.87-4.411C6.78-5.478 6.78-6.715 6.78-7.88L6.78-62.965C6.78-64.13 6.78-65.367 6.87-66.434C6.96-67.634 7.2-69.19 8.02-70.789C9.11-72.929 10.85-74.669 12.99-75.76C14.59-76.574 16.14-76.815 17.35-76.913C18.41-77 19.65-77 20.81-77L66.06-77ZM13.93-67.776C13.42-66.762 13.42-65.435 13.42-62.78L13.42-13.113L73.46-13.113L73.46-62.78C73.46-65.435 73.46-66.762 72.94-67.776C72.48-68.668 71.76-69.393 70.87-69.847C69.85-70.364 68.53-70.364 65.87-70.364L21-70.364C18.34-70.364 17.02-70.364 16-69.847C15.11-69.393 14.39-68.668 13.93-67.776Z"/>
   <path class="monochrome-0 monochrome-1 multicolor-0:tintColor multicolor-1:tintColor hierarchical-0:primary hierarchical-1:primary SFSymbolsPreviewWireframe" d="M13.93-3.069C13.51-3.906 13.43-4.957 13.42-6.793L73.45-6.793C73.44-4.957 73.37-3.906 72.94-3.069C72.48-2.177 71.76-1.452 70.87-0.997C69.85-0.481 68.53-0.481 65.87-0.481L21-0.481C18.34-0.481 17.02-0.481 16-0.997C15.11-1.452 14.39-2.177 13.93-3.069Z"/>
  </g>
  <g id="Light-S" transform="matrix(1 0 0 1 1109.27 696)">
   <path class="monochrome-0 multicolor-0:tintColor hierarchical-0:primary SFSymbolsPreviewWireframe" d="M62.85-38.368C63.13-37.869 63.28-37.3 63.28-36.659C63.35-36.018 63.21-35.413 62.85-34.843L58.47-27.153C58.11-26.512 57.62-26.014 56.97-25.657C56.41-25.373 55.8-25.23 55.16-25.23L31.87-25.23C31.23-25.23 30.59-25.373 29.95-25.657C29.38-26.014 28.92-26.512 28.56-27.153L24.18-34.843C23.9-35.413 23.76-36.018 23.76-36.659C23.76-37.3 23.9-37.869 24.18-38.368L35.93-58.769C36.29-59.338 36.75-59.765 37.32-60.05C37.96-60.406 38.64-60.584 39.35-60.584L47.68-60.584C48.39-60.584 49.04-60.406 49.6-60.05C50.25-59.765 50.74-59.338 51.1-58.769L62.85-38.368ZM36.79-36.979L50.25-36.979L43.52-48.835L36.79-36.979ZM17.05-77L69.98-77C75.65-77 80.25-72.402 80.25-66.73L80.25-4.32C80.25 1.352 75.65 5.95 69.98 5.95L17.05 5.95C11.38 5.95 6.78 1.352 6.78-4.32L6.78-66.73C6.78-72.402 11.38-77 17.05-77ZM17.05-71.865C14.22-71.865 11.92-69.566 11.92-66.73L11.92-13.01L75.12-13.01L75.12-66.73C75.12-69.566 72.82-71.865 69.98-71.865L17.05-71.865Z"/>
   <path class="monochrome-0 monochrome-1 multicolor-0:tintColor multicolor-1:tintColor hierarchical-0:primary hierarchical-1:primary SFSymbolsPreviewWireframe" d="M75.12-8.27L11.92-8.27L11.92-4.32C11.92-1.484 14.22 0.815 17.05 0.815L69.98 0.815C72.82 0.815 75.12-1.484 75.12-4.32L75.12-8.27Z"/>
  </g>
  <g id="Thin-S" transform="matrix(1 0 0 1 813.194 696)">
   <path class="monochrome-0 multicolor-0:tintColor hierarchical-0:primary SFSymbolsPreviewWireframe" d="M61.676-37.894C61.976-37.368 62.126-36.768 62.126-36.093C62.201-35.418 62.051-34.818 61.676-34.293L57.4-26.865C57.025-26.265 56.537-25.778 55.937-25.403C55.412-25.102 54.811-24.952 54.136-24.952L31.63-24.952C31.03-24.952 30.429-25.102 29.829-25.403C29.229-25.778 28.741-26.265 28.366-26.865L24.09-34.293C23.79-34.818 23.64-35.418 23.64-36.093C23.64-36.768 23.79-37.368 24.09-37.894L35.568-57.474C35.944-57.999 36.394-58.412 36.919-58.712C37.444-59.087 38.044-59.275 38.719-59.275L47.047-59.275C47.722-59.275 48.322-59.125 48.847-58.824C49.372-58.524 49.822-58.074 50.198-57.474L61.676-37.894ZM36.356-36.431L49.41-36.431L42.883-47.796L36.356-36.431ZM13.258-76L72.508-76C76.086-76 78.986-73.1 78.986-69.522L78.986-0.397C78.986 3.181 76.086 6.081 72.508 6.081L13.258 6.081C9.68 6.081 6.78 3.181 6.78-0.397L6.78-69.522C6.78-73.1 9.68-76 13.258-76ZM13.258-72.445C11.644-72.445 10.335-71.136 10.335-69.522L10.335-11.457L75.431-11.457L75.431-69.522C75.431-71.136 74.122-72.445 72.508-72.445L13.258-72.445Z"/>
   <path class="monochrome-0 monochrome-1 multicolor-0:tintColor multicolor-1:tintColor hierarchical-0:primary hierarchical-1:primary SFSymbolsPreviewWireframe" d="M75.431-7.902L10.335-7.902L10.335-0.397C10.335 1.217 11.644 2.526 13.258 2.526L72.508 2.526C74.122 2.526 75.431 1.217 75.431-0.397L75.431-7.902Z"/>
  </g>
  <g id="Ultralight-S" transform="matrix(1 0 0 1 516.799 696)">
   <path class="monochrome-0 multicolor-0:tintColor hierarchical-0:primary SFSymbolsPreviewWireframe" d="M15.707-76L69.427-76C74.357-76 78.354-72.003 78.354-67.073L78.354-3.873C78.354 1.057 74.357 5.054 69.427 5.054L15.707 5.054C10.776 5.054 6.78 1.057 6.78-3.873L6.78-67.073C6.78-72.003 10.776-76 15.707-76ZM15.707-73.788C11.998-73.788 8.992-70.782 8.992-67.073L8.992-11.457L76.142-11.457L76.142-67.073C76.142-70.782 73.135-73.788 69.427-73.788L15.707-73.788ZM76.142-8.85L8.992-8.85L8.992-3.873C8.992-0.164 11.998 2.842 15.707 2.842L69.427 2.842C73.135 2.842 76.142-0.164 76.142-3.873L76.142-8.85ZM60.919-38.488C61.229-37.946 61.422-37.326 61.5-36.629C61.577-36.01 61.422-35.429 61.035-34.887L56.853-27.685C56.466-27.066 55.963-26.601 55.343-26.292C54.801-25.982 54.221-25.827 53.601-25.827L31.648-25.827C30.951-25.827 30.293-25.982 29.673-26.292C29.131-26.601 28.666-27.066 28.279-27.685L24.214-34.887C23.904-35.429 23.749-36.01 23.749-36.629C23.749-37.326 23.904-37.946 24.214-38.488L35.365-57.653C35.752-58.118 36.178-58.505 36.642-58.815C37.184-59.202 37.804-59.396 38.501-59.396L46.632-59.396C47.329-59.396 47.909-59.241 48.374-58.931C48.916-58.621 49.381-58.195 49.768-57.653L60.919-38.488Z"/>
   <path class="monochrome-0 monochrome-1 multicolor-0:tintColor multicolor-1:tintColor hierarchical-0:primary hierarchical-1:primary SFSymbolsPreviewWireframe" d="M36.178-36.978L48.955-36.978L42.566-48.129L36.178-36.978Z"/>
  </g>
 </g>
</svg>
