<svg xmlns="http://www.w3.org/2000/svg" viewBox="0 0 20 20"><path d="M8.65 13.342V8.783h-.658L6.65 9.75l.442.675.691-.5v3.417h.867Zm3.775-4.35a1.681 1.681 0 0 0-1.008-.309c-.384 0-.717.1-1.009.309a2.006 2.006 0 0 0-.666.85 3.03 3.03 0 0 0-.234 1.225c0 .458.075.858.234 1.225.158.366.383.65.666.85.284.2.625.308 1.009.308.383 0 .716-.1 1.008-.308.292-.209.508-.492.667-.85.158-.359.233-.767.233-1.225a3.03 3.03 0 0 0-.233-1.225 1.897 1.897 0 0 0-.667-.85Zm-.092 2.875c-.083.241-.2.425-.358.558a.835.835 0 0 1-.558.2.828.828 0 0 1-.55-.2 1.272 1.272 0 0 1-.359-.558 2.407 2.407 0 0 1-.125-.8c0-.459.092-.834.284-1.125.191-.292.441-.442.75-.442.316 0 .575.142.758.433.183.292.283.667.283 1.134 0 .3-.041.566-.125.8Z"/><path d="M10 3.333c.175 0 .35.017.517.034L8.992 1.842 10.167.667l3.508 3.5-3.508 3.508L8.992 6.5l1.458-1.458C10.3 5.025 10.158 5 10 5a5.84 5.84 0 0 0-5.833 5.833A5.84 5.84 0 0 0 10 16.667a5.84 5.84 0 0 0 5.833-5.834H17.5a7.5 7.5 0 1 1-7.5-7.5Z"/></svg>
