<svg xmlns="http://www.w3.org/2000/svg" fill="currentColor" viewBox="0 0 20 20"><path d="M6.75 13.98c.208 0 .382-.07.52-.21a.74.74 0 0 0 .23-.54.675.675 0 0 0-.23-.522.675.675 0 0 0-.52-.229.779.779 0 0 0-.542.209.707.707 0 0 0-.208.52c0 .223.07.41.208.563a.779.779 0 0 0 .542.208Zm0-3.23c.208 0 .382-.07.52-.208A.74.74 0 0 0 7.5 10a.675.675 0 0 0-.23-.52.675.675 0 0 0-.52-.23.74.74 0 0 0-.542.23A.707.707 0 0 0 6 10c0 .208.07.389.208.542a.779.779 0 0 0 .542.208Zm0-3.23a.706.706 0 0 0 .52-.207.675.675 0 0 0 .23-.521.698.698 0 0 0-.23-.542.675.675 0 0 0-.52-.23.74.74 0 0 0-.542.23.707.707 0 0 0-.208.52c0 .21.07.39.208.543a.779.779 0 0 0 .542.208ZM9 13.98h5v-1.5H9v1.5Zm0-3.23h4v-1.5H9v1.5Zm-4.438 6.417c-.486 0-.895-.167-1.229-.5a1.716 1.716 0 0 1-.5-1.23V4.563c0-.473.167-.875.5-1.209.334-.347.743-.52 1.23-.52H11v1.729H4.562v10.875h10.875V9h1.73v6.438c0 .472-.167.881-.5 1.229-.334.333-.743.5-1.23.5H4.563ZM14.5 10c0-1.264-.438-2.326-1.313-3.188C12.328 5.938 11.264 5.5 10 5.5c1.264 0 2.326-.43 3.188-1.292C14.062 3.333 14.5 2.264 14.5 1c0 1.264.43 2.333 1.292 3.208C16.667 5.07 17.736 5.5 19 5.5c-1.264 0-2.333.438-3.208 1.313C14.93 7.673 14.5 8.736 14.5 10Z"/></svg>
