<svg xmlns="http://www.w3.org/2000/svg" viewBox="0 0 400 400"><path d="M321.707 326.399H151.065a3 3 0 0 1 0-6h170.642a3 3 0 0 1 0 6zM119.89 76.601a5.425 5.425 0 0 1 5.426 5.425v94.582a5.425 5.425 0 0 1-5.425 5.426H83.719a5.425 5.425 0 0 1-5.426-5.426V82.026a5.425 5.425 0 0 1 5.426-5.425h36.172m0-5H83.719a10.437 10.437 0 0 0-10.426 10.425v94.582a10.437 10.437 0 0 0 10.426 10.426h36.172a10.437 10.437 0 0 0 10.425-10.426V82.026a10.437 10.437 0 0 0-10.425-10.425zM305.524 313.26H167.248a8.12 8.12 0 0 1-8.111-8.111v-86.535a8.12 8.12 0 0 1 8.11-8.111h138.277a8.12 8.12 0 0 1 8.111 8.11v86.535a8.12 8.12 0 0 1-8.11 8.112zm-138.276-96.757a2.113 2.113 0 0 0-2.111 2.11v86.535a2.114 2.114 0 0 0 2.111 2.112h138.276a2.114 2.114 0 0 0 2.111-2.112v-86.534a2.113 2.113 0 0 0-2.11-2.111z" fill="#dadce0"/></svg>