<svg xmlns="http://www.w3.org/2000/svg" viewBox="0 0 400 400"><path d="M200.042 279.438H200a3.025 3.025 0 0 1-3.03-3 2.975 2.975 0 0 1 2.971-3h.101a3 3 0 1 1 0 6zm19.682-2.568a3 3 0 0 1-.769-5.9 3.04 3.04 0 0 1 3.715 2.107 2.958 2.958 0 0 1-2.06 3.66l-.114.031a3.023 3.023 0 0 1-.772.102zm-39.461-.004a3.008 3.008 0 0 1-.791-.107l-.056-.015a3 3 0 1 1 1.496-5.81l.138.037a3 3 0 0 1-.787 5.895zm57.901-7.62a3 3 0 0 1-1.482-5.61 3.043 3.043 0 0 1 4.122 1.087 2.958 2.958 0 0 1-1.04 4.062 8.256 8.256 0 0 1-.123.071 2.99 2.99 0 0 1-1.477.39zm-76.345-.01a2.986 2.986 0 0 1-1.514-.412l1.517-2.588-1.565 2.56a3 3 0 1 1 2.959-5.22 7.9 7.9 0 0 1 .124.072 3 3 0 0 1-1.52 5.588zm92.172-12.127a3 3 0 0 1-2.12-5.121 3.043 3.043 0 0 1 4.276-.036 2.957 2.957 0 0 1 .036 4.207l-.07.07a2.99 2.99 0 0 1-2.122.88zm-108.051-.036a2.909 2.909 0 0 1-2.07-.861l-.07-.07a3 3 0 0 1 4.243-4.242 3.018 3.018 0 0 1-2.103 5.174zm120.224-15.772a3.001 3.001 0 0 1-2.597-4.499 3.042 3.042 0 0 1 4.122-1.144 2.958 2.958 0 0 1 1.127 4.054l-.05.086a3 3 0 0 1-2.603 1.503zm-132.336-.018a3 3 0 0 1-2.603-1.503l2.6-1.498-2.638 1.431a3 3 0 1 1 5.176-3.034l.062.105a3.001 3.001 0 0 1-2.597 4.499zm140-18.423a3 3 0 0 1-2.912-3.701l.044-.169a3 3 0 0 1 5.789 1.58l-2.895-.79 2.886.821a3.024 3.024 0 0 1-2.912 2.259zm-147.7-.043a2.937 2.937 0 0 1-2.855-2.167c-.005-.024-.038-.144-.043-.168a3 3 0 0 1 5.826-1.435 3.043 3.043 0 0 1-2.148 3.67 3.113 3.113 0 0 1-.78.1zm150.31-19.717a3 3 0 0 1-3-3l.001-.065a3.342 3.342 0 0 1-.002-.1 3.043 3.043 0 0 1 3-3.05 2.958 2.958 0 0 1 3 2.95v.088l.001.077v.1a3 3 0 0 1-3 3zm-152.877-.066a2.958 2.958 0 0 1-3-2.95V200a3 3 0 0 1 6-.017 3.043 3.043 0 0 1-3 3.05zm2.565-19.732a3.005 3.005 0 0 1-2.897-3.79l2.895.79-2.886-.822a3 3 0 0 1 5.824 1.443c-.005.024-.038.144-.043.168a3.002 3.002 0 0 1-2.893 2.21zm147.71-.145a3.002 3.002 0 0 1-2.89-2.2l-.03-.108a3 3 0 0 1 5.79-1.579l-2.895.79 2.918-.705a3.003 3.003 0 0 1-2.893 3.802zm-140.102-18.351a2.919 2.919 0 0 1-1.463-.391 2.958 2.958 0 0 1-1.127-4.054l.05-.087a3 3 0 0 1 5.199 2.996 3.08 3.08 0 0 1-2.659 1.535zm132.453-.073a2.998 2.998 0 0 1-2.591-1.484l-.062-.105a3 3 0 0 1 5.2-2.996l-2.6 1.498 2.637-1.43a3 3 0 0 1-2.585 4.517zm-120.29-15.765a2.982 2.982 0 0 1-2.138-5.068l.07-.07a3 3 0 0 1 4.242 4.242 3.072 3.072 0 0 1-2.173.896zm108.124-.047a2.99 2.99 0 0 1-2.121-.879 3.042 3.042 0 0 1-.036-4.277 2.957 2.957 0 0 1 4.207-.035l.07.07a3 3 0 0 1-2.12 5.121zm-92.282-12.119a3.002 3.002 0 0 1-2.613-1.484 2.958 2.958 0 0 1 1.04-4.06c.012-.009.11-.066.123-.073a3 3 0 1 1 2.96 5.22 3.057 3.057 0 0 1-1.51.397zm76.435-.032a2.95 2.95 0 0 1-1.461-.387l-.087-.05a3 3 0 1 1 2.96-5.22l.06.035a3.007 3.007 0 0 1-1.472 5.622zm-57.99-7.616a3.029 3.029 0 0 1-2.933-2.209 2.958 2.958 0 0 1 2.06-3.66l.114-.032a3 3 0 0 1 1.541 5.8 3.042 3.042 0 0 1-.782.1zm39.574-.013a3.008 3.008 0 0 1-.79-.107 3.043 3.043 0 0 1-2.16-3.676 2.958 2.958 0 0 1 3.6-2.15l.138.037a3 3 0 0 1-.788 5.896zm-19.782-2.578a3.043 3.043 0 0 1-3.05-3 2.958 2.958 0 0 1 2.95-3h.1a3 3 0 0 1 0 6z"/></svg>