<svg width="76" height="57" xmlns="http://www.w3.org/2000/svg"><g fill-rule="evenodd"><circle cx="14" cy="13" r="2"/><circle cx="14" cy="2" r="2"/><circle cx="14" cy="23" r="2"/><circle cx="14" cy="34" r="2"/><circle cx="14" cy="45" r="2"/><circle cx="14" cy="55" r="2"/><circle cx="2" cy="13" r="2"/><circle cx="2" cy="2" r="2"/><circle cx="2" cy="23" r="2"/><circle cx="2" cy="34" r="2"/><circle cx="2" cy="45" r="2"/><circle cx="2" cy="55" r="2"/><circle cx="26" cy="13" r="2"/><circle cx="26" cy="2" r="2"/><circle cx="26" cy="23" r="2"/><circle cx="26" cy="34" r="2"/><circle cx="26" cy="45" r="2"/><circle cx="26" cy="55" r="2"/><circle cx="38" cy="13" r="2"/><circle cx="38" cy="2" r="2"/><circle cx="38" cy="23" r="2"/><circle cx="38" cy="34" r="2"/><circle cx="38" cy="45" r="2"/><circle cx="38" cy="55" r="2"/><circle cx="50" cy="13" r="2"/><circle cx="50" cy="2" r="2"/><circle cx="50" cy="23" r="2"/><circle cx="50" cy="34" r="2"/><circle cx="50" cy="45" r="2"/><circle cx="50" cy="55" r="2"/><circle cx="62" cy="13" r="2"/><circle cx="62" cy="2" r="2"/><circle cx="62" cy="23" r="2"/><circle cx="62" cy="34" r="2"/><circle cx="62" cy="45" r="2"/><circle cx="62" cy="55" r="2"/><circle cx="74" cy="13" r="2"/><circle cx="74" cy="2" r="2"/><circle cx="74" cy="23" r="2"/><circle cx="74" cy="34" r="2"/><circle cx="74" cy="45" r="2"/><circle cx="74" cy="55" r="2"/></g></svg>
