<?xml version="1.0" encoding="UTF-8"?>
<!--Generator: Apple Native CoreSVG 175.5-->
<!DOCTYPE svg
PUBLIC "-//W3C//DTD SVG 1.1//EN"
       "http://www.w3.org/Graphics/SVG/1.1/DTD/svg11.dtd">
<svg version="1.1" xmlns="http://www.w3.org/2000/svg" xmlns:xlink="http://www.w3.org/1999/xlink" width="3300" height="2200">
 <!--glyph: "", point size: 100.0, font version: "18.0d12e2", template writer version: "101"-->
 <g id="Notes">
  <rect height="2200" id="artboard" style="fill:white;opacity:1" width="3300" x="0" y="0"/>
  <line style="fill:none;stroke:black;opacity:1;stroke-width:0.5;" x1="263" x2="3036" y1="292" y2="292"/>
  <text style="stroke:none;fill:black;font-family:sans-serif;font-size:13;font-weight:bold;" transform="matrix(1 0 0 1 263 322)">Weight/Scale Variations</text>
  <text style="stroke:none;fill:black;font-family:sans-serif;font-size:13;text-anchor:middle;" transform="matrix(1 0 0 1 559.711 322)">Ultralight</text>
  <text style="stroke:none;fill:black;font-family:sans-serif;font-size:13;text-anchor:middle;" transform="matrix(1 0 0 1 856.422 322)">Thin</text>
  <text style="stroke:none;fill:black;font-family:sans-serif;font-size:13;text-anchor:middle;" transform="matrix(1 0 0 1 1153.13 322)">Light</text>
  <text style="stroke:none;fill:black;font-family:sans-serif;font-size:13;text-anchor:middle;" transform="matrix(1 0 0 1 1449.84 322)">Regular</text>
  <text style="stroke:none;fill:black;font-family:sans-serif;font-size:13;text-anchor:middle;" transform="matrix(1 0 0 1 1746.56 322)">Medium</text>
  <text style="stroke:none;fill:black;font-family:sans-serif;font-size:13;text-anchor:middle;" transform="matrix(1 0 0 1 2043.27 322)">Semibold</text>
  <text style="stroke:none;fill:black;font-family:sans-serif;font-size:13;text-anchor:middle;" transform="matrix(1 0 0 1 2339.98 322)">Bold</text>
  <text style="stroke:none;fill:black;font-family:sans-serif;font-size:13;text-anchor:middle;" transform="matrix(1 0 0 1 2636.69 322)">Heavy</text>
  <text style="stroke:none;fill:black;font-family:sans-serif;font-size:13;text-anchor:middle;" transform="matrix(1 0 0 1 2933.4 322)">Black</text>
  <line style="fill:none;stroke:black;opacity:1;stroke-width:0.5;" x1="263" x2="3036" y1="1903" y2="1903"/>
  <g transform="matrix(1 0 0 1 263 1933)">
   <path d="M9.24805 0.830078C13.5547 0.830078 17.1387-2.74414 17.1387-7.05078C17.1387-11.3574 13.5449-14.9316 9.23828-14.9316C4.94141-14.9316 1.36719-11.3574 1.36719-7.05078C1.36719-2.74414 4.95117 0.830078 9.24805 0.830078ZM9.24805-0.654297C5.70312-0.654297 2.87109-3.49609 2.87109-7.05078C2.87109-10.6055 5.69336-13.4473 9.23828-13.4473C12.793-13.4473 15.6445-10.6055 15.6445-7.05078C15.6445-3.49609 12.8027-0.654297 9.24805-0.654297ZM5.6543-7.05078C5.6543-6.62109 5.95703-6.32812 6.40625-6.32812L8.50586-6.32812L8.50586-4.20898C8.50586-3.76953 8.79883-3.4668 9.22852-3.4668C9.67773-3.4668 9.9707-3.76953 9.9707-4.20898L9.9707-6.32812L12.0898-6.32812C12.5293-6.32812 12.832-6.62109 12.832-7.05078C12.832-7.49023 12.5293-7.79297 12.0898-7.79297L9.9707-7.79297L9.9707-9.90234C9.9707-10.3516 9.67773-10.6543 9.22852-10.6543C8.79883-10.6543 8.50586-10.3516 8.50586-9.90234L8.50586-7.79297L6.40625-7.79297C5.95703-7.79297 5.6543-7.49023 5.6543-7.05078Z"/>
  </g>
  <g transform="matrix(1 0 0 1 281.867 1933)">
   <path d="M11.709 2.91016C17.1582 2.91016 21.6699-1.61133 21.6699-7.05078C21.6699-12.5 17.1484-17.0117 11.6992-17.0117C6.25977-17.0117 1.74805-12.5 1.74805-7.05078C1.74805-1.61133 6.26953 2.91016 11.709 2.91016ZM11.709 1.25C7.09961 1.25 3.41797-2.44141 3.41797-7.05078C3.41797-11.6602 7.08984-15.3516 11.6992-15.3516C16.3086-15.3516 20.0098-11.6602 20.0098-7.05078C20.0098-2.44141 16.3184 1.25 11.709 1.25ZM7.17773-7.05078C7.17773-6.57227 7.50977-6.25 8.00781-6.25L10.8789-6.25L10.8789-3.36914C10.8789-2.88086 11.2109-2.53906 11.6895-2.53906C12.1777-2.53906 12.5195-2.87109 12.5195-3.36914L12.5195-6.25L15.4004-6.25C15.8887-6.25 16.2305-6.57227 16.2305-7.05078C16.2305-7.53906 15.8887-7.88086 15.4004-7.88086L12.5195-7.88086L12.5195-10.752C12.5195-11.25 12.1777-11.5918 11.6895-11.5918C11.2109-11.5918 10.8789-11.25 10.8789-10.752L10.8789-7.88086L8.00781-7.88086C7.50977-7.88086 7.17773-7.53906 7.17773-7.05078Z"/>
  </g>
  <g transform="matrix(1 0 0 1 305.646 1933)">
   <path d="M14.9707 5.66406C21.9336 5.66406 27.6953-0.0976562 27.6953-7.05078C27.6953-14.0137 21.9238-19.7754 14.9609-19.7754C8.00781-19.7754 2.25586-14.0137 2.25586-7.05078C2.25586-0.0976562 8.01758 5.66406 14.9707 5.66406ZM14.9707 3.84766C8.93555 3.84766 4.08203-1.01562 4.08203-7.05078C4.08203-13.0957 8.92578-17.9492 14.9609-17.9492C21.0059-17.9492 25.8691-13.0957 25.8691-7.05078C25.8691-1.01562 21.0156 3.84766 14.9707 3.84766ZM9.19922-7.05078C9.19922-6.5332 9.57031-6.17188 10.1172-6.17188L14.0625-6.17188L14.0625-2.2168C14.0625-1.67969 14.4336-1.29883 14.9512-1.29883C15.4883-1.29883 15.8594-1.66992 15.8594-2.2168L15.8594-6.17188L19.8145-6.17188C20.3516-6.17188 20.7324-6.5332 20.7324-7.05078C20.7324-7.59766 20.3613-7.96875 19.8145-7.96875L15.8594-7.96875L15.8594-11.9141C15.8594-12.4609 15.4883-12.8418 14.9512-12.8418C14.4336-12.8418 14.0625-12.4609 14.0625-11.9141L14.0625-7.96875L10.1172-7.96875C9.57031-7.96875 9.19922-7.59766 9.19922-7.05078Z"/>
  </g>
  <text style="stroke:none;fill:black;font-family:sans-serif;font-size:13;font-weight:bold;" transform="matrix(1 0 0 1 263 1953)">Design Variations</text>
  <text style="stroke:none;fill:black;font-family:sans-serif;font-size:13;" transform="matrix(1 0 0 1 263 1971)">Symbols are supported in up to nine weights and three scales.</text>
  <text style="stroke:none;fill:black;font-family:sans-serif;font-size:13;" transform="matrix(1 0 0 1 263 1989)">For optimal layout with text and other symbols, vertically align</text>
  <text style="stroke:none;fill:black;font-family:sans-serif;font-size:13;" transform="matrix(1 0 0 1 263 2007)">symbols with the adjacent text.</text>
  <line style="fill:none;stroke:#00AEEF;stroke-width:0.5;opacity:1.0;" x1="776" x2="776" y1="1919" y2="1933"/>
  <g transform="matrix(1 0 0 1 776 1933)">
   <path d="M3.31055 0.15625C3.82812 0.15625 4.08203-0.0390625 4.26758-0.585938L5.52734-4.0332L11.2891-4.0332L12.5488-0.585938C12.7344-0.0390625 12.9883 0.15625 13.4961 0.15625C14.0137 0.15625 14.3457-0.15625 14.3457-0.644531C14.3457-0.810547 14.3164-0.966797 14.2383-1.17188L9.6582-13.3691C9.43359-13.9648 9.0332-14.2676 8.4082-14.2676C7.80273-14.2676 7.39258-13.9746 7.17773-13.3789L2.59766-1.16211C2.51953-0.957031 2.49023-0.800781 2.49023-0.634766C2.49023-0.146484 2.80273 0.15625 3.31055 0.15625ZM6.00586-5.51758L8.37891-12.0898L8.42773-12.0898L10.8008-5.51758Z"/>
  </g>
  <line style="fill:none;stroke:#00AEEF;stroke-width:0.5;opacity:1.0;" x1="793.197" x2="793.197" y1="1919" y2="1933"/>
  <text style="stroke:none;fill:black;font-family:sans-serif;font-size:13;font-weight:bold;" transform="matrix(1 0 0 1 776 1953)">Margins</text>
  <text style="stroke:none;fill:black;font-family:sans-serif;font-size:13;" transform="matrix(1 0 0 1 776 1971)">Leading and trailing margins on the left and right side of each symbol</text>
  <text style="stroke:none;fill:black;font-family:sans-serif;font-size:13;" transform="matrix(1 0 0 1 776 1989)">can be adjusted by modifying the x-location of the margin guidelines.</text>
  <text style="stroke:none;fill:black;font-family:sans-serif;font-size:13;" transform="matrix(1 0 0 1 776 2007)">Modifications are automatically applied proportionally to all</text>
  <text style="stroke:none;fill:black;font-family:sans-serif;font-size:13;" transform="matrix(1 0 0 1 776 2025)">scales and weights.</text>
  <g transform="matrix(1 0 0 1 1289 1933)">
   <path d="M2.8418 1.86523L4.54102 3.57422C5.40039 4.44336 6.38672 4.38477 7.31445 3.35938L18.0078-8.42773L17.041-9.4043L6.42578 2.27539C6.07422 2.67578 5.74219 2.77344 5.27344 2.30469L4.10156 1.14258C3.63281 0.683594 3.74023 0.341797 4.14062-0.0195312L15.6152-10.8203L14.6387-11.7871L3.04688-0.898438C2.06055 0.0195312 1.98242 0.996094 2.8418 1.86523ZM9.25781-16.3281C8.83789-15.918 8.80859-15.3418 9.04297-14.9512C9.27734-14.5898 9.73633-14.3555 10.3809-14.5215C11.8457-14.8633 13.3691-14.9219 14.7949-13.9844L14.209-12.5293C13.8672-11.6992 14.043-11.1133 14.5801-10.5664L16.875-8.25195C17.3633-7.76367 17.7734-7.74414 18.3398-7.8418L19.4043-8.03711L20.0684-7.36328L20.0293-6.80664C19.9902-6.30859 20.1172-5.92773 20.6055-5.44922L21.3672-4.70703C21.8457-4.22852 22.4609-4.19922 22.9297-4.66797L25.8398-7.58789C26.3086-8.05664 26.2891-8.65234 25.8105-9.13086L25.0391-9.89258C24.5605-10.3711 24.1895-10.5273 23.7109-10.4883L23.1348-10.4395L22.4902-11.0742L22.7344-12.1973C22.8613-12.7637 22.7051-13.2031 22.1191-13.7891L19.9219-15.9766C16.582-19.2969 12.1484-19.2188 9.25781-16.3281ZM10.752-15.957C13.1836-17.7344 16.4746-17.4316 18.7012-15.2051L21.1328-12.793C21.3672-12.5586 21.4062-12.373 21.3379-12.0312L21.0156-10.5469L22.5195-9.0625L23.5059-9.12109C23.7598-9.13086 23.8379-9.11133 24.0332-8.91602L24.6094-8.33984L22.168-5.89844L21.5918-6.47461C21.3965-6.66992 21.3672-6.74805 21.377-7.01172L21.4453-7.98828L19.9512-9.47266L18.4277-9.21875C18.1055-9.15039 17.959-9.17969 17.7148-9.41406L15.7129-11.416C15.459-11.6504 15.4297-11.8164 15.5859-12.1875L16.4648-14.2773C14.9023-15.7324 12.8711-16.3574 10.8398-15.7617C10.6836-15.7227 10.625-15.8496 10.752-15.957Z"/>
  </g>
  <text style="stroke:none;fill:black;font-family:sans-serif;font-size:13;font-weight:bold;" transform="matrix(1 0 0 1 1289 1953)">Exporting</text>
  <text style="stroke:none;fill:black;font-family:sans-serif;font-size:13;" transform="matrix(1 0 0 1 1289 1971)">Symbols should be outlined when exporting to ensure the</text>
  <text style="stroke:none;fill:black;font-family:sans-serif;font-size:13;" transform="matrix(1 0 0 1 1289 1989)">design is preserved when submitting to Xcode.</text>
  <text id="template-version" style="stroke:none;fill:black;font-family:sans-serif;font-size:13;text-anchor:end;" transform="matrix(1 0 0 1 3036 1933)">Template v.2.0</text>
  <text style="stroke:none;fill:black;font-family:sans-serif;font-size:13;text-anchor:end;" transform="matrix(1 0 0 1 3036 1951)">Requires Xcode 12 or greater</text>
  <text id="descriptive-name" style="stroke:none;fill:black;font-family:sans-serif;font-size:13;text-anchor:end;" transform="matrix(1 0 0 1 3036 1969)">Generated from cloud.slash.cr</text>
  <text style="stroke:none;fill:black;font-family:sans-serif;font-size:13;text-anchor:end;" transform="matrix(1 0 0 1 3036 1987)">Typeset at 100 points</text>
  <text style="stroke:none;fill:black;font-family:sans-serif;font-size:13;" transform="matrix(1 0 0 1 263 726)">Small</text>
  <text style="stroke:none;fill:black;font-family:sans-serif;font-size:13;" transform="matrix(1 0 0 1 263 1156)">Medium</text>
  <text style="stroke:none;fill:black;font-family:sans-serif;font-size:13;" transform="matrix(1 0 0 1 263 1586)">Large</text>
 </g>
 <g id="Guides">
  <g id="H-reference" style="fill:#27AAE1;stroke:none;" transform="matrix(1 0 0 1 339 696)">
   <path d="M0.993654 0L3.63775 0L29.3281-67.1323L30.0303-67.1323L30.0303-70.459L28.1226-70.459ZM11.6885-24.4799L46.9815-24.4799L46.2315-26.7285L12.4385-26.7285ZM55.1196 0L57.7637 0L30.6382-70.459L29.4326-70.459L29.4326-67.1323Z"/>
  </g>
  <line id="Baseline-S" style="fill:none;stroke:#27AAE1;opacity:1;stroke-width:0.5;" x1="263" x2="3036" y1="696" y2="696"/>
  <line id="Capline-S" style="fill:none;stroke:#27AAE1;opacity:1;stroke-width:0.5;" x1="263" x2="3036" y1="625.541" y2="625.541"/>
  <g id="H-reference" style="fill:#27AAE1;stroke:none;" transform="matrix(1 0 0 1 339 1126)">
   <path d="M0.993654 0L3.63775 0L29.3281-67.1323L30.0303-67.1323L30.0303-70.459L28.1226-70.459ZM11.6885-24.4799L46.9815-24.4799L46.2315-26.7285L12.4385-26.7285ZM55.1196 0L57.7637 0L30.6382-70.459L29.4326-70.459L29.4326-67.1323Z"/>
  </g>
  <line id="Baseline-M" style="fill:none;stroke:#27AAE1;opacity:1;stroke-width:0.5;" x1="263" x2="3036" y1="1126" y2="1126"/>
  <line id="Capline-M" style="fill:none;stroke:#27AAE1;opacity:1;stroke-width:0.5;" x1="263" x2="3036" y1="1055.54" y2="1055.54"/>
  <g id="H-reference" style="fill:#27AAE1;stroke:none;" transform="matrix(1 0 0 1 339 1556)">
   <path d="M0.993654 0L3.63775 0L29.3281-67.1323L30.0303-67.1323L30.0303-70.459L28.1226-70.459ZM11.6885-24.4799L46.9815-24.4799L46.2315-26.7285L12.4385-26.7285ZM55.1196 0L57.7637 0L30.6382-70.459L29.4326-70.459L29.4326-67.1323Z"/>
  </g>
  <line id="Baseline-L" style="fill:none;stroke:#27AAE1;opacity:1;stroke-width:0.5;" x1="263" x2="3036" y1="1556" y2="1556"/>
  <line id="Capline-L" style="fill:none;stroke:#27AAE1;opacity:1;stroke-width:0.5;" x1="263" x2="3036" y1="1485.54" y2="1485.54"/>
  <line id="left-margin" style="fill:none;stroke:#00AEEF;stroke-width:0.5;opacity:1.0;" x1="1383.53" x2="1383.53" y1="1030.79" y2="1150.12"/>
  <line id="right-margin" style="fill:none;stroke:#00AEEF;stroke-width:0.5;opacity:1.0;" x1="1516.16" x2="1516.16" y1="1030.79" y2="1150.12"/>
 </g>
 <g id="Symbols">
  <g id="Black-L" transform="matrix(1 0 0 1 2842.22 1556)">
   <path d="M110.51 21.14L41.83 21.14C19.25 21.14 3.72 5.86 3.72-14.76C3.72-30.11 12.92-42.82 28.2-48.07C28.72-51.73 29.56-55.24 30.69-58.59L46.57-42.73C46.4-41.83 46.25-40.92 46.12-40C45.39-35.02 44.03-33.38 39.9-32.34C28.57-29.41 22.78-23.29 22.78-14.33C22.78-4.15 30.16 2.08 42.48 2.08L91.43 2.08L110.51 21.14ZM123.37 21.14L133.28 21.14C135.21 21.14 137.1 21.03 138.96 20.81L120.22 2.08L104.29 2.08L123.37 21.14ZM61.2-69.7C67.35-74.74 75.03-77.49 83.8-77.49C98.2-77.49 110.21-69.22 118.28-54.11C120.25-50.3 122.34-49.09 126.95-49.09C147.51-49.09 159.22-38.7 159.22-22.61C159.22-8.34 148.24 2.01 132.98 2.08L148.4 17.5L148.64 18.62C166.15 12.63 178.3-3.47 178.3-23.08C178.3-48.31 159-67.88 132.61-67.88C122.92-86.52 105.97-96.55 83.8-96.55C69.95-96.55 57.26-91.74 47.46-83.45L61.2-69.7ZM55-63.12L41.06-77.05C38.6-74.15 36.42-70.97 34.58-67.56L49.39-52.76C50.88-56.62 52.76-60.09 55-63.12ZM136.9 34.64C138 35.7 139.33 36.24 140.91 36.26C142.49 36.28 143.8 35.74 144.85 34.64C145.95 33.54 146.5 32.22 146.5 30.67C146.5 29.12 145.95 27.79 144.85 26.69L29.99-88.11C28.88-89.21 27.54-89.76 25.97-89.76C24.4-89.76 23.06-89.21 21.96-88.11C20.9-87.05 20.37-85.72 20.37-84.12C20.37-82.53 20.9-81.2 21.96-80.16L136.9 34.64Z"/>
  </g>
  <g id="Heavy-L" transform="matrix(1 0 0 1 2546.95 1556)">
   <path d="M108.87 19.91L40.64 19.91C18.44 19.91 3.72 5.07 3.72-14.6C3.72-29.74 12.96-42.13 27.84-47.05C28.35-51 29.25-54.78 30.48-58.37L44.61-44.26C44.34-42.9 44.12-41.52 43.93-40.1C43.32-35.4 41.96-33.76 37.95-32.75C26.65-29.8 20.7-23.41 20.7-14.19C20.7-3.68 28.33 2.94 41.11 2.94L91.87 2.94L108.87 19.91ZM121.17 19.91L131.46 19.91C133.04 19.91 134.6 19.84 136.14 19.69L119.38 2.94L104.18 2.94L121.17 19.91ZM58.74-69.88C65.13-75.32 73.2-78.36 82.32-78.36C97.28-78.36 109.5-69.83 117.46-54.56C119.33-50.9 121.38-49.73 125.83-49.73C146.54-49.73 158.41-38.71 158.41-22.7C158.41-8.06 147.05 2.81 131.56 2.94L146.13 17.51L146.14 17.57C163.4 11.81 175.42-3.95 175.42-23.14C175.42-47.66 156.4-66.58 130.43-66.57C120.9-85.05 104.07-95.33 82.32-95.33C68.66-95.33 56.12-90.46 46.48-82.14L58.74-69.88ZM52.86-63.57L40.42-76C38.08-73.22 36.01-70.19 34.24-66.93L47.42-53.76C48.88-57.38 50.7-60.66 52.86-63.57ZM135.26 33.98C136.3 35 137.58 35.51 139.09 35.53C140.59 35.54 141.85 35.03 142.85 33.98C143.9 32.93 144.43 31.66 144.42 30.18C144.42 28.7 143.9 27.44 142.85 26.39L28.96-87.46C27.89-88.51 26.61-89.03 25.12-89.03C23.62-89.03 22.35-88.51 21.3-87.46C20.28-86.44 19.77-85.17 19.77-83.65C19.77-82.13 20.28-80.87 21.3-79.87L135.26 33.98Z"/>
  </g>
  <g id="Bold-L" transform="matrix(1 0 0 1 2251.91 1556)">
   <path d="M106.21 18.47L39.21 18.47C17.49 18.47 3.72 4.16 3.72-14.39C3.72-29.33 13.08-41.3 27.49-45.84C27.97-49.91 28.86-53.82 30.12-57.53L42.08-45.58C41.72-43.85 41.44-42.08 41.25-40.26C40.75-35.98 39.44-34.38 35.63-33.41C24.28-30.44 18.07-23.63 18.07-14.03C18.07-3.07 26.04 4.13 39.47 4.13L91.85 4.13L106.21 18.47ZM117.76 18.47L129.38 18.47C130.17 18.47 130.94 18.45 131.71 18.41L117.43 4.13L103.41 4.13L117.76 18.47ZM55.11-69.62C61.92-75.93 70.74-79.56 80.63-79.56C96.38-79.56 108.89-70.63 116.76-55.18C118.46-51.73 120.43-50.62 124.62-50.62C145.48-50.62 157.68-38.83 157.68-22.79C157.68-7.51 145.58 4.13 129.47 4.13L128.85 4.13L141.55 16.83C159.42 11.86 172.07-3.88 172.07-23.17C172.07-46.85 153.38-64.98 127.97-64.97C118.61-83.3 101.97-93.89 80.63-93.89C66.87-93.89 54.25-88.71 44.73-79.99L55.11-69.62ZM49.76-63.53L39.2-74.09C37.09-71.47 35.22-68.64 33.61-65.62L44.77-54.47C46.12-57.76 47.8-60.79 49.76-63.53ZM132.4 33.09C133.36 34.03 134.53 34.51 135.92 34.52C137.31 34.53 138.47 34.05 139.39 33.09C140.37 32.12 140.86 30.95 140.85 29.58C140.85 28.22 140.36 27.06 139.39 26.09L26.71-86.58C25.73-87.54 24.55-88.02 23.18-88.02C21.8-88.03 20.63-87.55 19.65-86.58C18.7-85.63 18.23-84.45 18.23-83.06C18.23-81.66 18.7-80.49 19.65-79.57L132.4 33.09Z"/>
  </g>
  <g id="Semibold-L" transform="matrix(1 0 0 1 1956.36 1556)">
   <path d="M104.06 17.48L38.22 17.48C16.84 17.48 3.72 3.54 3.72-14.24C3.72-29.03 13.16-40.72 27.25-44.99C27.69-49.07 28.54-52.99 29.78-56.7L40.27-46.23C39.87-44.33 39.58-42.37 39.39-40.37C38.98-36.37 37.7-34.8 34.03-33.85C22.65-30.87 16.26-23.78 16.26-13.9C16.26-2.64 24.47 4.96 38.34 4.96L91.53 4.96L104.06 17.48ZM115.1 17.48L127.95 17.48C128.06 17.48 128.18 17.48 128.29 17.48L115.78 4.96L102.57 4.96L115.1 17.48ZM52.47-69.24C59.57-76.25 68.98-80.37 79.46-80.37C95.75-80.37 108.47-71.18 116.27-55.59C117.87-52.3 119.78-51.23 123.8-51.23C144.75-51.23 157.17-38.9 157.17-22.84C157.17-7.17 144.66 4.96 128.22 4.96L126.68 4.96L138.06 16.34C156.5 12.07 169.76-3.72 169.76-23.18C169.76-46.28 151.3-63.88 126.27-63.86C117.03-82.08 100.52-92.89 79.46-92.89C65.56-92.89 52.83-87.43 43.39-78.33L52.47-69.24ZM47.5-63.31L38.23-72.58C36.29-70.07 34.56-67.37 33.07-64.5L42.86-54.72C44.12-57.81 45.68-60.69 47.5-63.31ZM131.11 33.48C132.01 34.37 133.12 34.82 134.43 34.82C135.73 34.83 136.83 34.38 137.7 33.48C138.62 32.56 139.08 31.45 139.08 30.17C139.07 28.89 138.61 27.79 137.7 26.88L25.85-84.97C24.92-85.87 23.82-86.32 22.53-86.33C21.24-86.33 20.13-85.88 19.21-84.97C18.31-84.07 17.86-82.96 17.86-81.65C17.86-80.33 18.31-79.24 19.21-78.37L131.11 33.48Z"/>
  </g>
  <g id="Medium-L" transform="matrix(1 0 0 1 1660.52 1556)">
   <path d="M100.39 16.42L37.46 16.42C16.34 16.42 3.72 2.75 3.72-14.44C3.72-29.12 13.21-40.59 27.07-44.67C27.41-48.11 28.06-51.44 28.98-54.64C31.69-51.96 34.93-48.75 38.54-45.16C38.29-43.72 38.11-42.25 37.98-40.76C37.64-36.97 36.38-35.42 32.82-34.5C21.41-31.5 14.88-24.2 14.88-14.12C14.88-2.62 23.27 5.28 37.49 5.28L89.24 5.28C93.19 9.23 96.95 12.98 100.39 16.42ZM110.73 16.42L123.31 16.42L112.17 5.28L99.58 5.28L110.73 16.42ZM49.36-68.03C56.75-76.3 67.08-81.31 78.57-81.31C95.28-81.31 108.16-71.9 115.9-56.22C117.42-53.04 119.28-52 123.17-52C144.2-52 156.79-39.27 156.79-23.19C156.79-7.23 143.96 5.28 127.28 5.28L122.68 5.28L133.35 15.95C153.27 13.03 168.01-3.22 168.01-23.51C168.01-46.16 149.72-63.35 124.98-63.32C115.84-81.47 99.42-92.45 78.57-92.45C63.98-92.45 50.68-86.27 41.22-76.17L49.36-68.03ZM44.87-62.03L36.51-70.38C34.76-67.88 33.21-65.2 31.89-62.38L40.75-53.53C41.85-56.55 43.24-59.4 44.87-62.03ZM127.34 33.02C128.19 33.87 129.25 34.29 130.49 34.3C131.74 34.3 132.78 33.88 133.61 33.02C134.5 32.14 134.94 31.08 134.93 29.86C134.92 28.64 134.48 27.59 133.61 26.73L22.4-84.5C21.51-85.36 20.46-85.79 19.24-85.8C18.01-85.8 16.96-85.37 16.07-84.5C15.21-83.64 14.78-82.58 14.78-81.33C14.78-80.08 15.21-79.04 16.07-78.21L127.34 33.02Z"/>
  </g>
  <g id="Regular-L" transform="matrix(1 0 0 1 1364.95 1556)">
   <path d="M102.05 15.74L36.49 15.74C15.69 15.74 3.72 2.44 3.72-13.99C3.72-28.53 13.29-39.71 26.84-43.53C27.24-48.09 28.19-52.46 29.63-56.59L37.44-48.79C36.78-46.14 36.35-43.39 36.15-40.56C35.89-37.06 34.66-35.54 31.24-34.65C19.8-31.63 13.09-24.04 13.09-13.7C13.09-1.9 21.71 6.4 36.37 6.4L92.7 6.4L102.05 15.74ZM112.19 15.74L123.96 15.74L114.62 6.4L102.85 6.4L112.19 15.74ZM48.78-69.44C56.24-77.13 66.36-81.82 77.41-81.82C94.67-81.82 107.74-72.14 115.42-56.33C116.83-53.31 118.64-52.3 122.35-52.3C143.47-52.3 156.29-39.04 156.29-22.94C156.29-6.6 143.05 6.4 126.04 6.4L124.62 6.4L133.26 15.04C152 11.62 165.72-3.95 165.72-23.22C165.72-45.29 147.66-61.95 123.31-61.92C114.28-79.97 97.99-91.16 77.41-91.16C63.71-91.16 51.15-85.52 41.94-76.27L48.78-69.44ZM44.28-63.96L37.31-70.94C35.6-68.67 34.06-66.26 32.72-63.71L40.04-56.4C41.22-59.08 42.64-61.62 44.28-63.96ZM128.89 32.43C129.68 33.23 130.66 33.62 131.83 33.62C133 33.62 133.98 33.23 134.76 32.43C135.59 31.6 136 30.61 135.99 29.47C135.98 28.33 135.57 27.35 134.76 26.53L24.36-83.89C23.54-84.68 22.55-85.08 21.41-85.09C20.27-85.1 19.28-84.7 18.45-83.89C17.63-83.07 17.22-82.08 17.22-80.91C17.22-79.74 17.63-78.77 18.45-77.99L128.89 32.43Z"/>
  </g>
  <g id="Light-L" transform="matrix(1 0 0 1 1068.69 1556)">
   <path d="M103.2 15.2L35.72 15.2C15.45 15.2 3.72 2.18 3.72-13.77C3.72-28.45 13.79-39.27 27.27-42.96C27.7-48.04 28.83-52.9 30.53-57.44L36.32-51.65C35.28-48.24 34.62-44.65 34.38-40.94C34.18-38.14 33.18-36.89 30.27-36.1C18.26-32.98 10.93-24.65 10.93-13.59C10.93-1.25 19.98 8.04 35.65 8.04L96.04 8.04L103.2 15.2ZM112.49 15.2L121.61 15.2L114.45 8.04L105.33 8.04L112.49 15.2ZM46.31-69.34C54.17-78.04 65.17-83.45 77.08-83.45C95.57-83.45 109.1-73.04 116.86-57.04C118.04-54.45 119.61-53.59 122.76-53.59C143.66-53.59 157.59-39.82 157.59-22.78C157.59-5.73 143.55 8.04 125.46 8.04L123.68 8.04L130.5 14.86C150.15 12.4 164.83-3.41 164.83-23.03C164.83-44.69 146.9-60.97 123.06-60.92C114.09-79.13 98.2-90.61 77.08-90.61C63-90.61 50.2-84.48 41.07-74.57L46.31-69.34ZM42.27-64.18L36.95-69.5C35.67-67.7 34.5-65.82 33.45-63.86L38.94-58.36C39.92-60.39 41.03-62.34 42.27-64.18ZM127.67 30.38C128.28 30.98 129.03 31.29 129.93 31.29C130.83 31.29 131.59 30.98 132.21 30.38C132.88 29.71 133.2 28.94 133.19 28.06C133.17 27.19 132.84 26.43 132.21 25.8L22.72-83.74C22.09-84.34 21.35-84.65 20.47-84.67C19.6-84.69 18.82-84.38 18.15-83.74C17.52-83.1 17.2-82.34 17.2-81.43C17.2-80.53 17.52-79.77 18.15-79.16L127.67 30.38Z"/>
  </g>
  <g id="Thin-L" transform="matrix(1 0 0 1 772.561 1556)">
   <path d="M105.707 14.48L34.716 14.48C15.12 14.48 3.72 1.84 3.72-13.48C3.72-28.35 14.445-38.68 27.848-42.21C28.344-48.23 29.801-53.96 32.054-59.23L35.274-56C33.464-51.44 32.335-46.54 32.036-41.44C31.922-39.57 31.214-38.67 28.988-38.02C16.215-34.76 8.064-25.45 8.064-13.43C8.064-0.38 17.687 10.21 34.698 10.21L101.444 10.21L105.707 14.48ZM113.874 14.48L119.489 14.48L115.226 10.21L109.611 10.21L113.874 14.48ZM43.545-69.69C51.881-79.41 63.867-85.62 76.649-85.62C96.773-85.62 110.904-74.22 118.771-57.97C119.653-55.96 120.891-55.29 123.309-55.29C143.906-55.29 159.308-40.84 159.308-22.57C159.308-4.56 144.204 10.21 124.702 10.21L123.445 10.21L127.611 14.38C148.05 12.98 163.662-2.98 163.662-22.76C163.662-43.88 145.889-59.68 122.732-59.6C113.846-78.02 98.473-89.88 76.649-89.88C62.321-89.88 49.415-83.28 40.451-72.78L43.545-69.69ZM40.022-65.04L36.921-68.15C36.161-67.03 35.441-65.87 34.765-64.68L37.894-61.55C38.556-62.75 39.266-63.91 40.022-65.04ZM127.379 28C127.729 28.35 128.178 28.52 128.727 28.52C129.276 28.52 129.75 28.35 130.149 28C130.602 27.54 130.816 27.05 130.79 26.53C130.764 26.01 130.55 25.55 130.149 25.15L21.855-83.22C21.503-83.57 21.066-83.76 20.545-83.79C20.023-83.81 19.535-83.62 19.082-83.22C18.681-82.82 18.48-82.35 18.48-81.8C18.48-81.25 18.681-80.78 19.082-80.38L127.379 28Z"/>
  </g>
  <g id="Ultralight-L" transform="matrix(1 0 0 1 476.151 1556)">
   <path d="M100.474 14.1L34.2 14.1C14.953 14.1 3.72 1.67 3.72-13.34C3.72-28.31 14.78-38.38 28.141-41.83C28.526-46.57 29.506-51.15 31-55.46L33.026-53.43C31.817-49.68 31.06-45.75 30.835-41.7C30.763-40.31 30.208-39.59 28.332-39C15.168-35.68 6.598-25.86 6.598-13.36C6.598 0.05 16.514 11.32 34.209 11.32L97.691 11.32L100.474 14.1ZM108.067 14.1L111.887 14.1L109.103 11.32L105.284 11.32L108.067 14.1ZM39.324-66.17C47.818-78.48 61.67-86.73 76.425-86.73C97.388-86.73 111.825-74.83 119.749-58.46C120.477-56.74 121.548-56.16 123.588-56.16C144.031-56.16 160.188-41.36 160.188-22.47C160.188-3.97 144.539 11.32 124.311 11.32L116.807 11.32L119.594 14.1L124.455 14.1C146.091 14.1 163.061-2.25 163.061-22.63C163.061-43.47 145.372-59.01 122.564-58.92C113.719-77.46 98.612-89.52 76.425-89.52C60.372-89.52 46.176-81.06 37.362-68.13L39.324-66.17ZM36.427-61.42L34.473-63.37C34.026-62.54 33.599-61.7 33.194-60.84L35.157-58.87C35.556-59.73 35.98-60.58 36.427-61.42ZM120.233 26.28C120.454 26.5 120.748 26.61 121.115 26.61C121.483 26.61 121.811 26.5 122.099 26.28C122.441 25.94 122.597 25.6 122.566 25.26C122.536 24.92 122.381 24.61 122.099 24.33L14.417-83.45C14.204-83.67 13.927-83.79 13.586-83.82C13.245-83.85 12.904-83.73 12.562-83.45C12.281-83.17 12.141-82.84 12.141-82.47C12.141-82.11 12.281-81.78 12.562-81.49L120.233 26.28Z"/>
  </g>
  <g id="Black-M" transform="matrix(1 0 0 1 2861.34 1126)">
   <path d="M89.07 9.18L33.89 9.18C16.31 9.18 3.72-2.88 3.72-19.44C3.72-31.42 10.82-41.4 22.88-45.69C23.37-48.84 24.16-51.85 25.21-54.69C28.34-51.61 32.97-47 38.43-41.55C38.23-40.61 38.05-39.66 37.89-38.68C37.25-34.71 36.23-33.49 33.02-32.68C24.23-30.42 19.83-25.86 19.83-19.11C19.83-11.5 25.35-6.92 34.55-6.92L73.02-6.92C78.96-0.96 84.51 4.61 89.07 9.18ZM99.34 9.18L104.67 9.18C106.96 9.18 109.19 8.98 111.35 8.6L95.82-6.92L83.21-6.92L99.34 9.18ZM50.78-62.24C55.13-65.33 60.4-66.97 66.4-66.97C77.15-66.97 86.25-60.75 92.54-49.24C94.12-46.26 95.73-45.32 99.33-45.32C114.94-45.32 123.95-37.8 123.95-25.26C123.95-15.13 116.64-7.8 106.02-7L117.48 4.46L117.92 6.78C131.06 1.76 140.06-10.64 140.06-25.65C140.06-45.56 125.02-61.09 104.47-61.09C96.92-75.55 83.86-83.08 66.4-83.08C56.09-83.08 46.63-79.74 39.14-73.88L50.78-62.24ZM45.49-57.22L33.79-68.91C31.78-66.69 29.99-64.25 28.46-61.6L40.83-49.25C42.09-52.27 43.65-54.93 45.49-57.22ZM103.61 13.44C104.48 14.27 105.54 14.7 106.78 14.72C108.03 14.74 109.07 14.31 109.9 13.44C110.77 12.57 111.21 11.52 111.21 10.29C111.21 9.07 110.77 8.02 109.9 7.15L24.78-77.91C23.91-78.78 22.85-79.22 21.6-79.22C20.36-79.22 19.3-78.78 18.43-77.91C17.6-77.08 17.18-76.03 17.18-74.76C17.18-73.5 17.6-72.45 18.43-71.62L103.61 13.44Z"/>
  </g>
  <g id="Heavy-M" transform="matrix(1 0 0 1 2565.98 1126)">
   <path d="M86.31 8.05L32.81 8.05C15.54 8.05 3.72-3.61 3.72-19.3C3.72-31.07 10.81-40.77 22.49-44.76C22.92-47.83 23.65-50.77 24.63-53.55L36.46-41.74C36.25-40.76 36.08-39.76 35.93-38.73C35.39-34.98 34.36-33.73 31.22-32.94C22.51-30.68 18.01-25.92 18.01-18.98C18.01-11.11 23.73-6.24 33.28-6.24L72-6.24L86.31 8.05ZM96.17 8.05L102.94 8.05C104.65 8.05 106.33 7.94 107.97 7.72L94.01-6.24L81.87-6.24L96.17 8.05ZM48.03-62C52.7-65.66 58.46-67.66 65-67.66C76.18-67.66 85.44-61.25 91.62-49.62C93.11-46.73 94.7-45.81 98.2-45.81C113.98-45.81 123.04-37.74 123.04-25.36C123.04-14.65 115.02-6.76 103.77-6.26L115.39 5.36L115.49 5.84C128.44 1.05 137.35-11.05 137.35-25.72C137.35-44.98 122.57-59.91 102.39-59.91C94.97-74.2 81.99-81.95 65-81.95C54.65-81.95 45.14-78.42 37.71-72.32L48.03-62ZM43.16-57.06L32.74-67.48C30.83-65.3 29.15-62.91 27.7-60.34L38.74-49.32C39.93-52.21 41.41-54.8 43.16-57.06ZM102.02 13.89C102.86 14.7 103.88 15.11 105.08 15.12C106.28 15.14 107.28 14.73 108.08 13.89C108.92 13.05 109.34 12.04 109.34 10.86C109.34 9.68 108.92 8.67 108.08 7.83L23.83-76.38C22.98-77.22 21.96-77.64 20.77-77.64C19.57-77.64 18.55-77.22 17.71-76.38C16.9-75.57 16.5-74.56 16.5-73.35C16.5-72.13 16.9-71.12 17.71-70.32L102.02 13.89Z"/>
  </g>
  <g id="Bold-M" transform="matrix(1 0 0 1 2270.79 1126)">
   <path d="M83.41 6.78L31.6 6.78C14.68 6.78 3.72-4.44 3.72-19.16C3.72-30.69 10.81-40.08 22.05-43.72C22.43-46.78 23.11-49.71 24.06-52.49L34.3-42.27C34.07-41.14 33.89-39.99 33.75-38.81C33.32-35.28 32.27-34.01 29.21-33.24C20.58-30.98 15.98-26 15.98-18.85C15.98-10.67 21.93-5.48 31.87-5.48L71.14-5.48L83.41 6.78ZM92.74 6.78L101.01 6.78C102.09 6.78 103.16 6.73 104.22 6.64L92.1-5.48L80.48-5.48L92.74 6.78ZM45.06-61.74C50.04-66.02 56.35-68.43 63.44-68.43C75.09-68.43 84.53-61.82 90.59-50.05C91.99-47.27 93.56-46.38 96.94-46.38C112.91-46.38 122.03-37.68 122.03-25.49C122.03-14.15 113.22-5.63 101.33-5.48L111.89 5.08C125.1 0.79 134.32-11.19 134.32-25.8C134.32-44.35 119.83-58.61 100.06-58.6C92.8-72.71 79.91-80.69 63.44-80.69C53.06-80.69 43.53-76.96 36.2-70.61L45.06-61.74ZM40.61-56.95L31.62-65.95C29.83-63.82 28.25-61.5 26.9-59.01L36.44-49.48C37.55-52.23 38.96-54.73 40.61-56.95ZM100.26 14.28C101.06 15.06 102.03 15.45 103.18 15.46C104.34 15.47 105.29 15.08 106.06 14.28C106.86 13.47 107.27 12.5 107.26 11.37C107.26 10.24 106.86 9.28 106.06 8.47L22.77-74.79C21.95-75.59 20.97-75.99 19.83-75.99C18.69-75.99 17.72-75.59 16.91-74.79C16.13-74.01 15.74-73.04 15.74-71.88C15.74-70.71 16.13-69.75 16.91-68.99L100.26 14.28Z"/>
  </g>
  <g id="Semibold-M" transform="matrix(1 0 0 1 1975.13 1126)">
   <path d="M82.1 5.91L30.76 5.91C14.09 5.91 3.72-5 3.72-19.04C3.72-30.41 10.8-39.58 21.75-42.99C22.11-46.23 22.82-49.33 23.83-52.26L32.92-43.19C32.62-41.78 32.4-40.33 32.25-38.84C31.89-35.48 30.83-34.19 27.82-33.43C19.26-31.17 14.58-26.03 14.58-18.75C14.58-10.36 20.68-4.94 30.9-4.94L71.23-4.94L82.1 5.91ZM91.07 5.91L99.67 5.91C100.54 5.91 101.39 5.88 102.24 5.82L91.48-4.94L80.21-4.94L91.07 5.91ZM43.4-61.86C48.53-66.37 55.07-68.95 62.36-68.95C74.33-68.95 83.9-62.19 89.88-50.33C91.21-47.63 92.77-46.75 96.07-46.75C112.18-46.75 121.32-37.62 121.32-25.56C121.32-14.01 112.31-5.15 100.32-4.94L109.71 4.45C122.93 0.43 132.22-11.4 132.22-25.85C132.22-43.89 117.94-57.69 98.46-57.68C91.3-71.66 78.48-79.8 62.36-79.8C52.15-79.8 42.74-76.06 35.53-69.73L43.4-61.86ZM39.15-57.26L31.16-65.25C29.43-63.18 27.9-60.93 26.59-58.52L35.05-50.07C36.15-52.69 37.53-55.1 39.15-57.26ZM99.04 13.87C99.81 14.63 100.76 15.01 101.88 15.02C102.99 15.02 103.92 14.64 104.66 13.87C105.44 13.09 105.83 12.15 105.83 11.05C105.83 9.96 105.44 9.02 104.66 8.24L22.04-74.37C21.24-75.14 20.29-75.53 19.19-75.53C18.09-75.53 17.15-75.15 16.36-74.37C15.6-73.61 15.22-72.66 15.22-71.54C15.22-70.41 15.6-69.48 16.36-68.74L99.04 13.87Z"/>
  </g>
  <g id="Medium-M" transform="matrix(1 0 0 1 1679.21 1126)">
   <path d="M81.39 3.53L30.13 3.53C13.64 3.53 3.72-7.15 3.72-20.69C3.72-31.93 10.8-40.94 21.52-44.17C21.87-47.62 22.62-50.93 23.73-54.04L31.93-45.86C31.54-44.16 31.26-42.41 31.1-40.6C30.8-37.36 29.73-36.06 26.76-35.3C18.25-33.05 13.52-27.79 13.52-20.4C13.52-11.85 19.74-6.26 30.15-6.26L71.59-6.26L81.39 3.53ZM90.09 3.53L98.66 3.53C99.45 3.53 100.23 3.5 101 3.45L91.29-6.26L80.3-6.26L90.09 3.53ZM42.29-63.81C47.51-68.41 54.18-71.08 61.54-71.08C73.76-71.08 83.42-64.21 89.34-52.27C90.62-49.63 92.16-48.77 95.4-48.77C111.61-48.77 120.79-39.31 120.79-27.34C120.79-15.72 111.75-6.66 99.83-6.28L108.27 2.16C121.39-1.71 130.63-13.36 130.63-27.61C130.63-45.28 116.5-58.73 97.23-58.72C90.16-72.6 77.38-80.87 61.54-80.87C51.44-80.87 42.12-77.1 35-70.78L35.47-70.64L42.29-63.81ZM38.17-59.39L30.95-66.61C29.25-64.6 27.74-62.41 26.45-60.08L34.09-52.45C35.19-54.97 36.57-57.3 38.17-59.39ZM100.13 13.55C100.88 14.29 101.8 14.67 102.89 14.67C103.98 14.67 104.89 14.3 105.61 13.55C106.38 12.78 106.76 11.87 106.75 10.8C106.75 9.73 106.37 8.81 105.61 8.06L23.49-74.06C22.71-74.82 21.79-75.19 20.71-75.2C19.64-75.2 18.72-74.82 17.96-74.06C17.21-73.31 16.83-72.39 16.83-71.3C16.83-70.2 17.21-69.29 17.96-68.57L100.13 13.55Z"/>
  </g>
  <g id="Regular-M" transform="matrix(1 0 0 1 1383.53 1126)">
   <path d="M79.05 4.39L29.3 4.39C13.05 4.39 3.72-5.99 3.72-18.86C3.72-29.94 10.79-38.74 21.23-41.74C21.52-45.02 22.18-48.18 23.19-51.17C25.07-49.29 27.51-46.87 30.35-44.06C29.99-42.4 29.75-40.68 29.62-38.92C29.39-35.84 28.31-34.52 25.39-33.78C16.94-31.52 12.14-26.11 12.14-18.59C12.14-9.83 18.51-4.02 29.19-4.02L70.63-4.02C73.59-1.06 76.43 1.77 79.05 4.39ZM87.16 4.39L97.34 4.39C97.49 4.39 97.64 4.39 97.79 4.38L89.39-4.02L78.75-4.02L87.16 4.39ZM39.88-61.49C45.35-66.74 52.55-69.88 60.47-69.88C73.02-69.88 82.8-62.87 88.65-50.84C89.85-48.27 91.39-47.42 94.55-47.42C110.89-47.42 120.1-37.54 120.1-25.7C120.1-13.57 110.39-4.02 97.94-4.02L97.49-4.02C100.56-0.97 103.15 1.6 105.05 3.5C118.74 0.26 128.57-11.48 128.57-25.94C128.57-43.11 114.64-56.11 95.65-56.1C88.69-69.86 75.97-78.28 60.47-78.28C50.27-78.28 40.86-74.3 33.79-67.68C35.02-66.4 37.14-64.26 39.88-61.49ZM36.18-57.23L29.91-63.5C28.32-61.5 26.9-59.34 25.7-57.05L32.34-50.41C33.37-52.87 34.66-55.16 36.18-57.23ZM96.91 14.13C97.63 14.86 98.53 15.22 99.58 15.22C100.64 15.22 101.52 14.86 102.22 14.13C102.96 13.39 103.32 12.51 103.32 11.47C103.32 10.43 102.95 9.55 102.22 8.82L20.75-72.66C19.99-73.38 19.1-73.75 18.06-73.75C17.02-73.75 16.14-73.39 15.4-72.66C14.66-71.92 14.3-71.03 14.3-69.97C14.3-68.92 14.66-68.04 15.4-67.34L96.91 14.13Z"/>
  </g>
  <g id="Light-M" transform="matrix(1 0 0 1 1087.21 1126)">
   <path d="M79.85 3.9L28.63 3.9C12.83 3.9 3.72-6.22 3.72-18.67C3.72-29.88 11.23-38.35 21.61-41.23C21.93-44.98 22.74-48.56 23.98-51.92L29.29-46.61C28.64-44.26 28.21-41.8 28.04-39.26C27.87-36.8 26.99-35.72 24.53-35.07C15.57-32.72 10.21-26.65 10.21-18.49C10.21-9.25 16.97-2.56 28.55-2.56L73.38-2.56L79.85 3.9ZM87.42 3.9L95.68 3.9L89.22-2.56L80.96-2.56L87.42 3.9ZM37.75-61.53C43.59-67.61 51.54-71.33 60.18-71.33C73.82-71.33 84.01-63.67 89.93-51.47C90.93-49.29 92.25-48.56 94.91-48.56C111.05-48.56 121.25-38.22 121.25-25.56C121.25-12.79 110.83-2.56 97.43-2.56L96.71-2.56L102.69 3.42C117.16 0.93 127.78-11.01 127.78-25.77C127.78-42.58 113.96-55.24 95.43-55.21C88.52-69.12 76.15-77.8 60.18-77.8C49.66-77.8 40.04-73.42 33.02-66.25L37.75-61.53ZM34.38-57.42L29.57-62.23C28.38-60.64 27.3-58.95 26.34-57.18L31.35-52.17C32.21-54.02 33.23-55.78 34.38-57.42ZM95.72 12.2C96.27 12.75 96.96 13.03 97.78 13.03C98.59 13.03 99.28 12.75 99.83 12.2C100.42 11.61 100.71 10.91 100.7 10.11C100.69 9.32 100.4 8.63 99.83 8.06L19.18-72.62C18.6-73.18 17.92-73.46 17.12-73.47C16.32-73.48 15.63-73.2 15.03-72.62C14.46-72.05 14.17-71.36 14.17-70.54C14.17-69.72 14.46-69.04 15.03-68.48L95.72 12.2Z"/>
  </g>
  <g id="Thin-M" transform="matrix(1 0 0 1 791.023 1126)">
   <path d="M82.204 3.26L27.728 3.26C12.54 3.26 3.72-6.52 3.72-18.42C3.72-29.79 11.811-37.83 22.116-40.57C22.5-45.19 23.622-49.58 25.356-53.61L28.35-50.62C27.021-47.2 26.188-43.53 25.958-39.71C25.853-38.07 25.245-37.31 23.39-36.78C13.75-34.31 7.669-27.37 7.669-18.35C7.669-8.49 14.932-0.64 27.703-0.64L78.31-0.64L82.204 3.26ZM88.775 3.26L93.886 3.26L89.992-0.64L84.881-0.64L88.775 3.26ZM35.308-61.91C41.583-68.87 50.382-73.26 59.791-73.26C74.887-73.26 85.604-64.72 91.619-52.31C92.36-50.64 93.381-50.08 95.395-50.08C111.27-50.08 122.776-39.13 122.776-25.38C122.776-11.76 111.41-0.64 96.745-0.64L96.579-0.64L100.276 3.06C115.381 1.39 126.738-10.66 126.738-25.54C126.738-41.86 113.061-54.09 95.14-54.04C88.301-68.14 76.39-77.16 59.791-77.16C49.07-77.16 39.366-72.39 32.471-64.75L35.308-61.91ZM32.412-58.25L29.558-61.11C28.847-60.11 28.178-59.07 27.556-57.99L30.45-55.1C31.052-56.19 31.708-57.24 32.412-58.25ZM95.46 9.95C95.786 10.28 96.2 10.44 96.701 10.44C97.203 10.44 97.632 10.28 97.988 9.95C98.386 9.56 98.576 9.12 98.558 8.64C98.54 8.16 98.35 7.73 97.988 7.37L18.406-72.26C18.075-72.59 17.669-72.76 17.188-72.78C16.707-72.8 16.268-72.63 15.87-72.26C15.508-71.9 15.327-71.47 15.327-70.97C15.327-70.47 15.508-70.04 15.87-69.68L95.46 9.95Z"/>
  </g>
  <g id="Ultralight-M" transform="matrix(1 0 0 1 494.579 1126)">
   <path d="M84.895 2.93L27.269 2.93C12.392 2.93 3.72-6.68 3.72-18.29C3.72-29.75 12.109-37.56 22.377-40.23C22.822-45.68 24.291-50.83 26.577-55.45L28.441-53.58C26.423-49.39 25.166-44.78 24.891-39.94C24.824-38.73 24.352-38.12 22.807-37.65C12.82-35.12 6.367-27.74 6.367-18.29C6.367-8.1 13.891 0.35 27.268 0.35L82.317 0.35L84.895 2.93ZM90.951 2.93L94.453 2.93L91.874 0.35L88.372 0.35L90.951 2.93ZM34.772-62.88C41.216-69.84 50.147-74.25 59.593-74.25C75.433-74.25 86.422-65.26 92.487-52.73C93.092-51.32 93.964-50.85 95.643-50.85C111.381-50.85 123.557-39.6 123.557-25.29C123.557-11.72 112.505-0.45 97.957 0.31L100.346 2.7C115.12 0.91 126.204-10.92 126.204-25.42C126.204-41.5 112.602-53.5 94.991-53.44C88.19-67.63 76.514-76.83 59.593-76.83C49.133-76.83 39.685-72.19 32.907-64.74L34.772-62.88ZM32.024-59.55L30.177-61.4C29.683-60.72 29.21-60.03 28.757-59.32L30.602-57.47C31.054-58.18 31.528-58.87 32.024-59.55ZM96.329 8.31C96.538 8.52 96.813 8.63 97.152 8.63C97.492 8.63 97.79 8.52 98.047 8.31C98.345 8.02 98.483 7.71 98.461 7.39C98.439 7.07 98.301 6.78 98.047 6.53L19.013-72.57C18.806-72.78 18.543-72.9 18.225-72.92C17.906-72.94 17.597-72.83 17.299-72.57C17.045-72.32 16.918-72.02 16.918-71.68C16.918-71.34 17.045-71.04 17.299-70.79L96.329 8.31Z"/>
  </g>
  <g id="Black-S" transform="matrix(1 0 0 1 2875.7 696)">
   <path d="M69.28 2.717L27.64 2.717C13.8 2.717 3.72-6.844 3.72-20.063C3.72-29.519 9.31-37.408 18.87-40.856C19.18-42.753 19.62-44.582 20.18-46.336L31.05-35.477C31.03-35.355 31.01-35.232 30.99-35.109C30.47-31.975 29.68-31.034 27.17-30.407C20.23-28.631 16.78-25.078 16.78-19.801C16.78-13.897 21.06-10.345 28.22-10.345L56.2-10.345L69.28 2.717ZM77.47 2.717L83.34 2.717C84.62 2.717 85.88 2.637 87.11 2.483L74.28-10.345L64.39-10.345L77.47 2.717ZM40.06-52.726C43.63-55.626 48.08-57.157 53.25-57.157C61.6-57.157 68.71-52.298 73.67-43.312C74.93-40.961 76.18-40.229 79-40.229C91.18-40.229 98.28-34.482 98.28-24.556C98.28-16.196 91.91-10.345 82.76-10.345L82.44-10.345L93.07 0.279L93.21 1.04C103.93-2.78 111.34-12.748 111.34-24.869C111.34-40.647 99.48-52.978 83.29-52.978C77.33-64.367 67.09-70.219 53.25-70.219C44.6-70.219 36.73-67.27 30.66-62.129L40.06-52.726ZM36.12-48.474L26.57-58.015C25.06-56.204 23.73-54.22 22.6-52.082L32.76-41.933C33.66-44.394 34.78-46.58 36.12-48.474ZM82.94 8.172C83.63 8.823 84.46 9.157 85.43 9.173C86.41 9.189 87.22 8.855 87.87 8.172C88.56 7.488 88.9 6.666 88.9 5.706C88.9 4.746 88.56 3.924 87.87 3.24L20.12-64.467C19.43-65.15 18.6-65.492 17.63-65.492C16.65-65.492 15.82-65.15 15.14-64.467C14.49-63.816 14.16-62.994 14.16-62.001C14.16-61.008 14.49-60.186 15.14-59.535L82.94 8.172Z"/>
  </g>
  <g id="Heavy-S" transform="matrix(1 0 0 1 2580.1 696)">
   <path d="M67.6 1.482L26.81 1.482C13.17 1.482 3.72-7.77 3.72-20.298C3.72-29.557 9.24-37.249 18.49-40.451C18.78-42.457 19.23-44.391 19.82-46.242L29.68-36.401C29.62-36.085 29.57-35.766 29.52-35.444C29.07-32.408 28.25-31.418 25.74-30.791C18.93-29.027 15.47-25.388 15.47-20.037C15.47-13.96 19.88-10.272 27.22-10.272L55.83-10.272L67.6 1.482ZM75.49 1.482L81.9 1.482C82.98 1.482 84.06 1.424 85.11 1.309L73.52-10.272L63.72-10.272L75.49 1.482ZM38.47-53.155C42.15-56.223 46.78-57.886 52.09-57.886C60.67-57.886 67.86-52.953 72.72-43.881C73.93-41.567 75.19-40.835 77.99-40.835C90.34-40.835 97.36-34.669 97.36-24.989C97.36-16.432 90.77-10.272 81.59-10.272L81.35-10.272L91.45-0.171L91.46-0.134C101.9-3.834 109.12-13.511 109.12-25.277C109.12-40.55 97.47-52.412 81.54-52.412C75.69-63.641 65.48-69.641 52.09-69.641C43.65-69.641 35.93-66.704 29.99-61.631L38.47-53.155ZM34.69-49.077L26.08-57.683C24.58-55.887 23.26-53.919 22.15-51.8L31.33-42.633C32.21-45.04 33.34-47.197 34.69-49.077ZM81.63 7.593C82.3 8.245 83.12 8.576 84.09 8.589C85.06 8.601 85.87 8.269 86.51 7.593C87.19 6.918 87.52 6.103 87.52 5.151C87.52 4.198 87.19 3.384 86.51 2.708L19.39-64.377C18.71-65.053 17.88-65.391 16.92-65.391C15.95-65.391 15.13-65.053 14.45-64.377C13.8-63.726 13.48-62.91 13.48-61.928C13.48-60.947 13.8-60.135 14.45-59.491L81.63 7.593Z"/>
  </g>
  <g id="Bold-S" transform="matrix(1 0 0 1 2284.63 696)">
   <path d="M64.86-0.334L25.87-0.334C12.47-0.334 3.72-9.242 3.72-20.998C3.72-30.036 9.18-37.507 18.06-40.433C18.3-42.324 18.69-44.154 19.21-45.912L28-37.133C27.96-36.842 27.92-36.549 27.88-36.253C27.51-33.328 26.65-32.283 24.14-31.656C17.48-29.906 14.01-26.17 14.01-20.736C14.01-14.467 18.55-10.627 26.1-10.627L54.55-10.627L64.86-0.334ZM72.41-0.334L80.28-0.334C80.87-0.334 81.46-0.352 82.03-0.387L71.79-10.627L62.1-10.627L72.41-0.334ZM36.21-53.656C40.1-57.169 45.1-59.137 50.79-59.137C59.62-59.137 66.91-54.122 71.66-44.952C72.81-42.68 74.09-41.948 76.86-41.948C89.4-41.948 96.32-35.313 96.32-25.909C96.32-17.131 89.5-10.627 80.28-10.627L79.24-10.627L88.36-1.51C99.1-4.754 106.64-14.376 106.64-26.17C106.64-40.877 95.22-52.215 79.58-52.215C73.86-63.265 63.67-69.43 50.79-69.43C42.36-69.43 34.63-66.347 28.77-61.099L36.21-53.656ZM32.73-49.671L25.14-57.266C23.68-55.454 22.4-53.473 21.34-51.346L29.48-43.214C30.32-45.599 31.41-47.762 32.73-49.671ZM80.14 7.388C80.81 8.039 81.62 8.368 82.58 8.376C83.54 8.385 84.34 8.055 84.98 7.388C85.64 6.72 85.98 5.915 85.98 4.971C85.98 4.027 85.64 3.221 84.98 2.554L18.56-63.835C17.88-64.502 17.06-64.836 16.11-64.836C15.16-64.836 14.35-64.502 13.68-63.835C13.03-63.184 12.7-62.374 12.7-61.406C12.7-60.437 13.03-59.636 13.68-59.001L80.14 7.388Z"/>
  </g>
  <g id="Semibold-S" transform="matrix(1 0 0 1 1988.77 696)">
   <path d="M64.23-0.951L25.22-0.951C11.98-0.951 3.72-9.621 3.72-20.844C3.72-29.73 9.13-37.049 17.76-39.785C18.01-41.945 18.45-44.028 19.07-46.018L27.01-38.098C26.9-37.467 26.82-36.827 26.75-36.176C26.44-33.326 25.55-32.243 23.04-31.616C16.48-29.875 13-26.073 13-20.583C13-14.18 17.64-10.235 25.33-10.235L54.92-10.235L64.23-0.951ZM71.54-0.951L79.17-0.951C79.81-0.951 80.45-0.973 81.08-1.015L71.86-10.235L62.25-10.235L71.54-0.951ZM35.34-53.955C39.26-57.403 44.27-59.364 49.9-59.364C58.9-59.364 66.25-54.291 70.93-45.055C72.04-42.811 73.33-42.08 76.08-42.08C88.75-42.08 95.61-35.121 95.61-25.907C95.61-16.978 88.63-10.235 79.38-10.235L79.05-10.235L87.16-2.128C97.6-5.322 104.93-14.684 104.93-26.149C104.93-40.467 93.67-51.443 78.23-51.443C72.59-62.369 62.42-68.648 49.9-68.648C41.79-68.648 34.32-65.697 28.6-60.688L35.34-53.955ZM31.9-50.185L25.05-57.039C23.58-55.265 22.29-53.322 21.21-51.235L28.55-43.906C29.42-46.218 30.55-48.324 31.9-50.185ZM79.12 6.613C79.78 7.264 80.59 7.593 81.54 7.598C82.5 7.603 83.29 7.275 83.92 6.613C84.58 5.952 84.91 5.152 84.91 4.214C84.91 3.276 84.58 2.476 83.92 1.815L17.99-64.094C17.31-64.755 16.5-65.086 15.55-65.086C14.61-65.086 13.81-64.755 13.15-64.094C12.49-63.443 12.17-62.637 12.17-61.678C12.17-60.718 12.49-59.924 13.15-59.295L79.12 6.613Z"/>
  </g>
  <g id="Medium-S" transform="matrix(1 0 0 1 1692.71 696)">
   <path d="M64.85-0.869L24.73-0.869C11.61-0.869 3.72-9.359 3.72-20.179C3.72-28.95 9.09-36.153 17.54-38.745C17.81-41.411 18.4-43.963 19.26-46.367L26.44-39.197C26.19-38.024 26.01-36.813 25.89-35.568C25.63-32.776 24.71-31.664 22.2-31.038C15.73-29.304 12.24-25.451 12.24-19.917C12.24-13.414 16.95-9.39 24.75-9.39L56.31-9.39L64.85-0.869ZM71.99-0.869L78.33-0.869C79.36-0.869 80.38-0.926 81.37-1.036L73.02-9.39L63.46-9.39L71.99-0.869ZM35.27-54.131C39.12-57.224 43.92-58.987 49.22-58.987C58.35-58.987 65.75-53.871 70.38-44.585C71.46-42.363 72.75-41.631 75.49-41.631C88.26-41.631 95.07-34.427 95.07-25.357C95.07-16.731 88.61-10.035 79.97-9.434L87.08-2.319C96.85-5.704 103.63-14.675 103.63-25.585C103.63-39.607 92.5-50.309 77.2-50.309C71.63-61.142 61.48-67.508 49.22-67.508C41.64-67.508 34.6-64.853 29.07-60.33L35.27-54.131ZM31.77-50.635L25.5-56.903C23.98-55.202 22.64-53.329 21.5-51.311L28.17-44.653C29.12-46.86 30.33-48.868 31.77-50.635ZM78.34 5.474C79 6.125 79.8 6.452 80.75 6.455C81.7 6.458 82.49 6.131 83.11 5.474C83.77 4.817 84.1 4.021 84.1 3.088C84.1 2.154 83.77 1.359 83.11 0.702L17.56-64.843C16.87-65.5 16.06-65.828 15.13-65.828C14.19-65.828 13.39-65.5 12.74-64.843C12.09-64.192 11.76-63.39 11.76-62.437C11.76-61.484 12.09-60.696 12.74-60.071L78.34 5.474Z"/>
  </g>
  <g id="Regular-S" transform="matrix(1 0 0 1 1396.84 696)">
   <path d="M61.76-2.706L24.09-2.706C11.13-2.706 3.72-10.96 3.72-21.253C3.72-29.874 9.04-36.927 17.25-39.33C17.45-41.587 17.88-43.765 18.52-45.843L25.08-39.297C24.94-38.454 24.84-37.593 24.77-36.718C24.56-34.001 23.62-32.852 21.11-32.225C14.74-30.5 11.24-26.582 11.24-20.992C11.24-14.356 16.05-10.229 23.99-10.229L54.22-10.229L61.76-2.706ZM68.67-2.706L77.23-2.706C77.53-2.706 77.83-2.711 78.14-2.721L70.63-10.229L61.14-10.229L68.67-2.706ZM33.08-54.514C37.17-58.246 42.47-60.437 48.33-60.437C57.63-60.437 65.1-55.265 69.65-45.913C70.7-43.719 72-42.987 74.72-42.987C87.62-42.987 94.36-35.464 94.36-26.582C94.36-17.387 87.1-10.229 77.8-10.229L77.37-10.229L84.01-3.581C94.49-6.368 101.94-15.518 101.94-26.791C101.94-40.427 90.97-50.772 75.87-50.772C70.38-61.482 60.25-67.961 48.33-67.961C40.45-67.961 33.14-64.99 27.58-60.012L33.08-54.514ZM29.89-50.963L24.28-56.574C22.83-54.813 21.57-52.886 20.52-50.819L26.55-44.794C27.41-47.044 28.53-49.115 29.89-50.963ZM77.32 5.939C77.97 6.59 78.77 6.916 79.72 6.916C80.66 6.916 81.44 6.59 82.06 5.939C82.71 5.288 83.04 4.499 83.04 3.571C83.04 2.644 82.71 1.854 82.06 1.203L16.99-63.867C16.31-64.518 15.5-64.844 14.57-64.844C13.64-64.844 12.85-64.518 12.2-63.867C11.55-63.216 11.23-62.419 11.23-61.475C11.23-60.531 11.55-59.749 12.2-59.131L77.32 5.939Z"/>
  </g>
  <g id="Light-S" transform="matrix(1 0 0 1 1100.48 696)">
   <path d="M64.24-2.041L23.49-2.041C10.94-2.041 3.72-10.069 3.72-19.989C3.72-28.723 9.43-35.484 17.59-37.79C17.86-40.888 18.56-43.845 19.62-46.601L24.41-41.821C23.87-39.941 23.52-37.967 23.38-35.923C23.22-33.757 22.46-32.818 20.35-32.272C13.53-30.467 9.54-25.966 9.54-19.808C9.54-12.752 14.69-7.847 23.42-7.847L58.43-7.847L64.24-2.041ZM70.47-2.041L76.97-2.041C77.26-2.041 77.55-2.045 77.84-2.055L72.05-7.847L64.66-7.847L70.47-2.041ZM31.88-54.15C36.23-58.205 41.9-60.631 48.07-60.631C58.35-60.631 66.17-54.875 70.78-45.378C71.65-43.523 72.76-42.905 75.04-42.905C87.77-42.905 95.38-34.977 95.38-25.366C95.38-15.867 87.91-8.266 78.16-7.864L83.23-2.796C93.73-5.4 101.24-14.451 101.24-25.543C101.24-38.855 90.37-48.908 75.67-48.892C70.24-59.732 60.41-66.438 48.07-66.438C40.28-66.438 33.08-63.415 27.63-58.392L31.88-54.15ZM28.96-50.939L24.66-55.243C23.54-53.878 22.53-52.412 21.64-50.858L26.14-46.362C26.94-47.998 27.88-49.531 28.96-50.939ZM77.16 4.642C77.66 5.141 78.27 5.391 79.01 5.391C79.74 5.391 80.35 5.141 80.84 4.642C81.36 4.121 81.62 3.503 81.61 2.787C81.6 2.071 81.35 1.458 80.84 0.948L16.48-63.423C15.96-63.922 15.34-64.174 14.63-64.18C13.91-64.185 13.29-63.933 12.77-63.423C12.26-62.913 12.01-62.292 12.01-61.559C12.01-60.827 12.26-60.216 12.77-59.728L77.16 4.642Z"/>
  </g>
  <g id="Thin-S" transform="matrix(1 0 0 1 804.23 696)">
   <path d="M66.517-1.16L22.704-1.16C10.687-1.16 3.72-8.888 3.72-18.316C3.72-27.2 9.952-33.576 18.042-35.753C18.37-39.669 19.378-43.375 20.938-46.742L23.665-44.016C22.482-41.175 21.74-38.095 21.54-34.871C21.444-33.434 20.917-32.773 19.35-32.334C11.923-30.422 7.294-25.15 7.294-18.243C7.294-10.629 12.89-4.696 22.675-4.696L62.981-4.696L66.517-1.16ZM71.855-1.16L76.452-1.16L72.917-4.696L68.32-4.696L71.855-1.16ZM29.778-53.168C34.54-57.941 40.918-60.886 47.736-60.886C59.293-60.886 67.592-54.359 72.288-44.669C72.919-43.264 73.773-42.796 75.475-42.796C87.966-42.796 96.737-34.332 96.737-23.758C96.737-13.702 88.749-5.442 78.203-4.744L81.351-1.595C92.307-3.651 100.325-12.757 100.325-23.891C100.325-36.775 89.579-46.443 75.42-46.405C70.047-57.417 60.626-64.422 47.736-64.422C39.799-64.422 32.557-61.126 27.199-55.748L29.778-53.168ZM27.305-50.333L24.712-52.928C24.036-52.062 23.403-51.157 22.817-50.217L25.452-47.581C26.018-48.538 26.637-49.457 27.305-50.333ZM75.935 2.924C76.233 3.222 76.609 3.371 77.061 3.371C77.514 3.371 77.898 3.222 78.214 2.924C78.563 2.575 78.731 2.183 78.718 1.747C78.706 1.31 78.538 0.93 78.214 0.607L14.807-62.838C14.502-63.136 14.131-63.291 13.694-63.304C13.258-63.317 12.866-63.161 12.517-62.838C12.194-62.514 12.032-62.126 12.032-61.674C12.032-61.221 12.194-60.837 12.517-60.521L75.935 2.924Z"/>
  </g>
  <g id="Ultralight-S" transform="matrix(1 0 0 1 507.755 696)">
   <path d="M67.574-1.218L22.298-1.218C10.556-1.218 3.72-8.793 3.72-17.968C3.72-26.929 10.215-33.107 18.272-35.219C18.626-39.52 19.795-43.58 21.612-47.217L23.358-45.47C21.792-42.208 20.815-38.612 20.597-34.842C20.533-33.777 20.127-33.259 18.834-32.875C11.1-30.908 6.142-25.241 6.142-17.95C6.142-10.051 11.969-3.591 22.291-3.591L65.203-3.591L67.574-1.218ZM72.458-1.218L75.63-1.218L73.259-3.591L70.086-3.591L72.458-1.218ZM28.661-53.113C33.628-58.283 40.393-61.525 47.561-61.525C59.776-61.525 68.316-54.604 73.056-44.814C73.566-43.64 74.289-43.249 75.694-43.249C88.065-43.249 97.428-34.511 97.428-23.443C97.428-13.068 89.126-4.452 78.122-3.652L80.269-1.504C91.513-3.212 99.853-12.369 99.853-23.555C99.853-36.219 89.173-45.689 75.289-45.64C69.949-56.74 60.736-63.898 47.561-63.898C39.528-63.898 32.246-60.433 26.938-54.836L28.661-53.113ZM26.409-50.474L24.695-52.189C24.238-51.585 23.802-50.962 23.387-50.323L25.105-48.603C25.517-49.245 25.952-49.869 26.409-50.474ZM76.218 2.549C76.413 2.745 76.665 2.842 76.975 2.842C77.284 2.842 77.552 2.745 77.78 2.549C78.041 2.289 78.163 2.012 78.146 1.719C78.13 1.426 78.008 1.166 77.78 0.938L14.858-62.033C14.663-62.228 14.419-62.334 14.126-62.35C13.833-62.366 13.556-62.26 13.296-62.033C13.068-61.805 12.954-61.536 12.954-61.227C12.954-60.918 13.068-60.649 13.296-60.421L76.218 2.549Z"/>
  </g>
 </g>
</svg>
