<?xml version="1.0" encoding="UTF-8"?>
<!--Generator: Apple Native CoreSVG 232.5-->
<!DOCTYPE svg
PUBLIC "-//W3C//DTD SVG 1.1//EN"
       "http://www.w3.org/Graphics/SVG/1.1/DTD/svg11.dtd">
<svg version="1.1" xmlns="http://www.w3.org/2000/svg" xmlns:xlink="http://www.w3.org/1999/xlink" width="3300" height="2200">
 <!--glyph: "", point size: 100.0, font version: "19.2d2e1", template writer version: "128"-->
 <style>.monochrome-0 {-sfsymbols-motion-group:1}
.monochrome-1 {-sfsymbols-motion-group:0}

.multicolor-0:tintColor {-sfsymbols-motion-group:1}
.multicolor-1:tintColor {-sfsymbols-motion-group:0}

.hierarchical-0:primary {-sfsymbols-motion-group:1}
.hierarchical-1:primary {-sfsymbols-motion-group:0}

.SFSymbolsPreviewWireframe {fill:none;opacity:1.0;stroke:black;stroke-width:0.5}
</style>
 <g id="Notes">
  <rect height="2200" id="artboard" style="fill:white;opacity:1" width="3300" x="0" y="0"/>
  <line style="fill:none;stroke:black;opacity:1;stroke-width:0.5;" x1="263" x2="3036" y1="292" y2="292"/>
  <text style="stroke:none;fill:black;font-family:sans-serif;font-size:13;font-weight:bold;" transform="matrix(1 0 0 1 263 322)">Weight/Scale Variations</text>
  <text style="stroke:none;fill:black;font-family:sans-serif;font-size:13;text-anchor:middle;" transform="matrix(1 0 0 1 559.711 322)">Ultralight</text>
  <text style="stroke:none;fill:black;font-family:sans-serif;font-size:13;text-anchor:middle;" transform="matrix(1 0 0 1 856.422 322)">Thin</text>
  <text style="stroke:none;fill:black;font-family:sans-serif;font-size:13;text-anchor:middle;" transform="matrix(1 0 0 1 1153.13 322)">Light</text>
  <text style="stroke:none;fill:black;font-family:sans-serif;font-size:13;text-anchor:middle;" transform="matrix(1 0 0 1 1449.84 322)">Regular</text>
  <text style="stroke:none;fill:black;font-family:sans-serif;font-size:13;text-anchor:middle;" transform="matrix(1 0 0 1 1746.56 322)">Medium</text>
  <text style="stroke:none;fill:black;font-family:sans-serif;font-size:13;text-anchor:middle;" transform="matrix(1 0 0 1 2043.27 322)">Semibold</text>
  <text style="stroke:none;fill:black;font-family:sans-serif;font-size:13;text-anchor:middle;" transform="matrix(1 0 0 1 2339.98 322)">Bold</text>
  <text style="stroke:none;fill:black;font-family:sans-serif;font-size:13;text-anchor:middle;" transform="matrix(1 0 0 1 2636.69 322)">Heavy</text>
  <text style="stroke:none;fill:black;font-family:sans-serif;font-size:13;text-anchor:middle;" transform="matrix(1 0 0 1 2933.4 322)">Black</text>
  <line style="fill:none;stroke:black;opacity:1;stroke-width:0.5;" x1="263" x2="3036" y1="1903" y2="1903"/>
  <g transform="matrix(0.2 0 0 0.2 263 1933)">
   <path d="m46.2402 4.15039c21.5332 0 39.4531-17.8711 39.4531-39.4043s-17.9688-39.4043-39.502-39.4043c-21.4844 0-39.3555 17.8711-39.3555 39.4043s17.9199 39.4043 39.4043 39.4043Zm0-7.42188c-17.7246 0-31.8848-14.209-31.8848-31.9824s14.1113-31.9824 31.8359-31.9824c17.7734 0 32.0312 14.209 32.0312 31.9824s-14.209 31.9824-31.9824 31.9824Zm-17.9688-31.9824c0 2.14844 1.51367 3.61328 3.75977 3.61328h10.498v10.5957c0 2.19727 1.46484 3.71094 3.61328 3.71094 2.24609 0 3.71094-1.51367 3.71094-3.71094v-10.5957h10.5957c2.19727 0 3.71094-1.46484 3.71094-3.61328 0-2.19727-1.51367-3.71094-3.71094-3.71094h-10.5957v-10.5469c0-2.24609-1.46484-3.75977-3.71094-3.75977-2.14844 0-3.61328 1.51367-3.61328 3.75977v10.5469h-10.498c-2.24609 0-3.75977 1.51367-3.75977 3.71094Z"/>
  </g>
  <g transform="matrix(0.2 0 0 0.2 281.506 1933)">
   <path d="m58.5449 14.5508c27.2461 0 49.8047-22.6074 49.8047-49.8047 0-27.2461-22.6074-49.8047-49.8535-49.8047-27.1973 0-49.7559 22.5586-49.7559 49.8047 0 27.1973 22.6074 49.8047 49.8047 49.8047Zm0-8.30078c-23.0469 0-41.4551-18.457-41.4551-41.5039s18.3594-41.5039 41.4062-41.5039 41.5527 18.457 41.5527 41.5039-18.457 41.5039-41.5039 41.5039Zm-22.6562-41.5039c0 2.39258 1.66016 4.00391 4.15039 4.00391h14.3555v14.4043c0 2.44141 1.66016 4.15039 4.05273 4.15039 2.44141 0 4.15039-1.66016 4.15039-4.15039v-14.4043h14.4043c2.44141 0 4.15039-1.61133 4.15039-4.00391 0-2.44141-1.70898-4.15039-4.15039-4.15039h-14.4043v-14.3555c0-2.49023-1.70898-4.19922-4.15039-4.19922-2.39258 0-4.05273 1.70898-4.05273 4.19922v14.3555h-14.3555c-2.49023 0-4.15039 1.70898-4.15039 4.15039Z"/>
  </g>
  <g transform="matrix(0.2 0 0 0.2 304.924 1933)">
   <path d="m74.8535 28.3203c34.8145 0 63.623-28.8086 63.623-63.5742 0-34.8145-28.8574-63.623-63.6719-63.623-34.7656 0-63.5254 28.8086-63.5254 63.623 0 34.7656 28.8086 63.5742 63.5742 63.5742Zm0-9.08203c-30.1758 0-54.4434-24.3164-54.4434-54.4922 0-30.2246 24.2188-54.4922 54.3945-54.4922 30.2246 0 54.541 24.2676 54.541 54.4922 0 30.1758-24.2676 54.4922-54.4922 54.4922Zm-28.8574-54.4922c0 2.58789 1.85547 4.39453 4.58984 4.39453h19.7266v19.7754c0 2.68555 1.85547 4.58984 4.44336 4.58984 2.68555 0 4.54102-1.85547 4.54102-4.58984v-19.7754h19.7754c2.68555 0 4.58984-1.80664 4.58984-4.39453 0-2.73438-1.85547-4.58984-4.58984-4.58984h-19.7754v-19.7266c0-2.73438-1.85547-4.63867-4.54102-4.63867-2.58789 0-4.44336 1.9043-4.44336 4.63867v19.7266h-19.7266c-2.73438 0-4.58984 1.85547-4.58984 4.58984Z"/>
  </g>
  <text style="stroke:none;fill:black;font-family:sans-serif;font-size:13;font-weight:bold;" transform="matrix(1 0 0 1 263 1953)">Design Variations</text>
  <text style="stroke:none;fill:black;font-family:sans-serif;font-size:13;" transform="matrix(1 0 0 1 263 1971)">Symbols are supported in up to nine weights and three scales.</text>
  <text style="stroke:none;fill:black;font-family:sans-serif;font-size:13;" transform="matrix(1 0 0 1 263 1989)">For optimal layout with text and other symbols, vertically align</text>
  <text style="stroke:none;fill:black;font-family:sans-serif;font-size:13;" transform="matrix(1 0 0 1 263 2007)">symbols with the adjacent text.</text>
  <line style="fill:none;stroke:#00AEEF;stroke-width:0.5;opacity:1.0;" x1="776" x2="776" y1="1919" y2="1933"/>
  <g transform="matrix(0.2 0 0 0.2 776 1933)">
   <path d="m16.5527 0.78125c2.58789 0 3.85742-0.976562 4.78516-3.71094l6.29883-17.2363h28.8086l6.29883 17.2363c0.927734 2.73438 2.19727 3.71094 4.73633 3.71094 2.58789 0 4.24805-1.5625 4.24805-4.00391 0-0.830078-0.146484-1.61133-0.537109-2.63672l-22.9004-60.9863c-1.12305-2.97852-3.125-4.49219-6.25-4.49219-3.02734 0-5.07812 1.46484-6.15234 4.44336l-22.9004 61.084c-0.390625 1.02539-0.537109 1.80664-0.537109 2.63672 0 2.44141 1.5625 3.95508 4.10156 3.95508Zm13.4766-28.3691 11.8652-32.8613h0.244141l11.8652 32.8613Z"/>
  </g>
  <line style="fill:none;stroke:#00AEEF;stroke-width:0.5;opacity:1.0;" x1="792.836" x2="792.836" y1="1919" y2="1933"/>
  <text style="stroke:none;fill:black;font-family:sans-serif;font-size:13;font-weight:bold;" transform="matrix(1 0 0 1 776 1953)">Margins</text>
  <text style="stroke:none;fill:black;font-family:sans-serif;font-size:13;" transform="matrix(1 0 0 1 776 1971)">Leading and trailing margins on the left and right side of each symbol</text>
  <text style="stroke:none;fill:black;font-family:sans-serif;font-size:13;" transform="matrix(1 0 0 1 776 1989)">can be adjusted by modifying the x-location of the margin guidelines.</text>
  <text style="stroke:none;fill:black;font-family:sans-serif;font-size:13;" transform="matrix(1 0 0 1 776 2007)">Modifications are automatically applied proportionally to all</text>
  <text style="stroke:none;fill:black;font-family:sans-serif;font-size:13;" transform="matrix(1 0 0 1 776 2025)">scales and weights.</text>
  <g transform="matrix(0.2 0 0 0.2 1289 1933)">
   <path d="m14.209 9.32617 8.49609 8.54492c4.29688 4.3457 9.22852 4.05273 13.8672-1.07422l53.4668-58.9355-4.83398-4.88281-53.0762 58.3984c-1.75781 2.00195-3.41797 2.49023-5.76172 0.146484l-5.85938-5.81055c-2.34375-2.29492-1.80664-4.00391 0.195312-5.81055l57.373-54.0039-4.88281-4.83398-57.959 54.4434c-4.93164 4.58984-5.32227 9.47266-1.02539 13.8184Zm32.0801-90.9668c-2.09961 2.05078-2.24609 4.93164-1.07422 6.88477 1.17188 1.80664 3.4668 2.97852 6.68945 2.14844 7.32422-1.70898 14.9414-2.00195 22.0703 2.68555l-2.92969 7.27539c-1.70898 4.15039-0.830078 7.08008 1.85547 9.81445l11.4746 11.5723c2.44141 2.44141 4.49219 2.53906 7.32422 2.05078l5.32227-0.976562 3.32031 3.36914-0.195312 2.7832c-0.195312 2.49023 0.439453 4.39453 2.88086 6.78711l3.80859 3.71094c2.39258 2.39258 5.46875 2.53906 7.8125 0.195312l14.5508-14.5996c2.34375-2.34375 2.24609-5.32227-0.146484-7.71484l-3.85742-3.80859c-2.39258-2.39258-4.24805-3.17383-6.64062-2.97852l-2.88086 0.244141-3.22266-3.17383 1.2207-5.61523c0.634766-2.83203-0.146484-5.0293-3.07617-7.95898l-10.9863-10.9375c-16.6992-16.6016-38.8672-16.2109-53.3203-1.75781Zm7.4707 1.85547c12.1582-8.88672 28.6133-7.37305 39.7461 3.75977l12.1582 12.0605c1.17188 1.17188 1.36719 2.09961 1.02539 3.80859l-1.61133 7.42188 7.51953 7.42188 4.93164-0.292969c1.26953-0.0488281 1.66016 0.0488281 2.63672 1.02539l2.88086 2.88086-12.207 12.207-2.88086-2.88086c-0.976562-0.976562-1.12305-1.36719-1.07422-2.68555l0.341797-4.88281-7.4707-7.42188-7.61719 1.26953c-1.61133 0.341797-2.34375 0.195312-3.56445-0.976562l-10.0098-10.0098c-1.26953-1.17188-1.41602-2.00195-0.634766-3.85742l4.39453-10.4492c-7.8125-7.27539-17.9688-10.4004-28.125-7.42188-0.78125 0.195312-1.07422-0.439453-0.439453-0.976562Z"/>
  </g>
  <text style="stroke:none;fill:black;font-family:sans-serif;font-size:13;font-weight:bold;" transform="matrix(1 0 0 1 1289 1953)">Exporting</text>
  <text style="stroke:none;fill:black;font-family:sans-serif;font-size:13;" transform="matrix(1 0 0 1 1289 1971)">Symbols should be outlined when exporting to ensure the</text>
  <text style="stroke:none;fill:black;font-family:sans-serif;font-size:13;" transform="matrix(1 0 0 1 1289 1989)">design is preserved when submitting to Xcode.</text>
  <text id="template-version" style="stroke:none;fill:black;font-family:sans-serif;font-size:13;text-anchor:end;" transform="matrix(1 0 0 1 3036 1933)">Template v.5.0</text>
  <text style="stroke:none;fill:black;font-family:sans-serif;font-size:13;text-anchor:end;" transform="matrix(1 0 0 1 3036 1951)">Requires Xcode 15 or greater</text>
  <text id="descriptive-name" style="stroke:none;fill:black;font-family:sans-serif;font-size:13;text-anchor:end;" transform="matrix(1 0 0 1 3036 1969)">Generated from shared.drives</text>
  <text style="stroke:none;fill:black;font-family:sans-serif;font-size:13;text-anchor:end;" transform="matrix(1 0 0 1 3036 1987)">Typeset at 100.0 points</text>
  <text style="stroke:none;fill:black;font-family:sans-serif;font-size:13;" transform="matrix(1 0 0 1 263 726)">Small</text>
  <text style="stroke:none;fill:black;font-family:sans-serif;font-size:13;" transform="matrix(1 0 0 1 263 1156)">Medium</text>
  <text style="stroke:none;fill:black;font-family:sans-serif;font-size:13;" transform="matrix(1 0 0 1 263 1586)">Large</text>
 </g>
 <g id="Guides">
  <g id="H-reference" style="fill:#27AAE1;stroke:none;" transform="matrix(1 0 0 1 339 696)">
   <path d="M0.993654 0L3.63775 0L29.3281-67.1323L30.0303-67.1323L30.0303-70.459L28.1226-70.459ZM11.6885-24.4799L46.9815-24.4799L46.2315-26.7285L12.4385-26.7285ZM55.1196 0L57.7637 0L30.6382-70.459L29.4326-70.459L29.4326-67.1323Z"/>
  </g>
  <line id="Baseline-S" style="fill:none;stroke:#27AAE1;opacity:1;stroke-width:0.5;" x1="263" x2="3036" y1="696" y2="696"/>
  <line id="Capline-S" style="fill:none;stroke:#27AAE1;opacity:1;stroke-width:0.5;" x1="263" x2="3036" y1="625.541" y2="625.541"/>
  <g id="H-reference" style="fill:#27AAE1;stroke:none;" transform="matrix(1 0 0 1 339 1126)">
   <path d="M0.993654 0L3.63775 0L29.3281-67.1323L30.0303-67.1323L30.0303-70.459L28.1226-70.459ZM11.6885-24.4799L46.9815-24.4799L46.2315-26.7285L12.4385-26.7285ZM55.1196 0L57.7637 0L30.6382-70.459L29.4326-70.459L29.4326-67.1323Z"/>
  </g>
  <line id="Baseline-M" style="fill:none;stroke:#27AAE1;opacity:1;stroke-width:0.5;" x1="263" x2="3036" y1="1126" y2="1126"/>
  <line id="Capline-M" style="fill:none;stroke:#27AAE1;opacity:1;stroke-width:0.5;" x1="263" x2="3036" y1="1055.54" y2="1055.54"/>
  <g id="H-reference" style="fill:#27AAE1;stroke:none;" transform="matrix(1 0 0 1 339 1556)">
   <path d="M0.993654 0L3.63775 0L29.3281-67.1323L30.0303-67.1323L30.0303-70.459L28.1226-70.459ZM11.6885-24.4799L46.9815-24.4799L46.2315-26.7285L12.4385-26.7285ZM55.1196 0L57.7637 0L30.6382-70.459L29.4326-70.459L29.4326-67.1323Z"/>
  </g>
  <line id="Baseline-L" style="fill:none;stroke:#27AAE1;opacity:1;stroke-width:0.5;" x1="263" x2="3036" y1="1556" y2="1556"/>
  <line id="Capline-L" style="fill:none;stroke:#27AAE1;opacity:1;stroke-width:0.5;" x1="263" x2="3036" y1="1485.54" y2="1485.54"/>
  <line id="left-margin-Regular-M" style="fill:none;stroke:#00AEEF;stroke-width:0.5;opacity:1.0;" x1="1396.32" x2="1396.32" y1="1030.79" y2="1150.12"/>
  <line id="right-margin-Regular-M" style="fill:none;stroke:#00AEEF;stroke-width:0.5;opacity:1.0;" x1="1503.37" x2="1503.37" y1="1030.79" y2="1150.12"/>
 </g>
 <g id="Symbols">
  <g id="Heavy-L" transform="matrix(1 0 0 1 2566.84 1556)">
   <path class="monochrome-0 multicolor-0:tintColor hierarchical-0:primary SFSymbolsPreviewWireframe" d="M31.36-105.28L107.64-105.28C121.22-105.28 132.22-94.28 132.22-80.7L132.22 11.58C132.22 25.16 121.22 36.16 107.64 36.16L31.36 36.16C17.78 36.16 6.78 25.16 6.78 11.58L6.78-80.7C6.78-94.28 17.78-105.28 31.36-105.28ZM31.36-82.24C30.51-82.24 29.82-81.55 29.82-80.7L29.82-0.06L109.18-0.06L109.18-80.7C109.18-81.55 108.49-82.24 107.64-82.24L31.36-82.24ZM52.31-43.5C55.02-43.5 57.35-44.48 59.3-46.43C61.35-48.38 62.38-50.76 62.38-53.58C62.38-56.4 61.35-58.78 59.3-60.73C57.35-62.68 55.02-63.66 52.31-63.66C49.49-63.66 47.1-62.68 45.15-60.73C43.2-58.78 42.23-56.4 42.23-53.58C42.23-50.76 43.2-48.38 45.15-46.43C47.1-44.48 49.49-43.5 52.31-43.5ZM87.26-43.5C90.07-43.5 92.46-44.48 94.41-46.43C96.36-48.38 97.33-50.76 97.33-53.58C97.33-56.4 96.36-58.78 94.41-60.73C92.46-62.68 90.07-63.66 87.26-63.66C84.55-63.66 82.16-62.68 80.1-60.73C78.15-58.78 77.18-56.4 77.18-53.58C77.18-50.76 78.15-48.38 80.1-46.43C82.16-44.48 84.55-43.5 87.26-43.5ZM30.69-17.17L74.41-17.17L74.41-24.16C74.41-27.63 72.14-30.39 67.59-32.45C63.03-34.62 57.94-35.7 52.31-35.7C46.56-35.7 41.52-34.62 37.19-32.45C32.85-30.39 30.69-27.63 30.69-24.16L30.69-17.17ZM81.73-17.17L107.9-17.17L107.9-24.16C107.9-27.63 105.84-30.44 101.72-32.61C97.71-34.78 92.89-35.86 87.26-35.86C85.41-35.86 83.46-35.65 81.4-35.21C79.34-34.89 77.94-34.45 77.18-33.91C78.8-32.39 79.94-30.88 80.59-29.36C81.35-27.95 81.73-26.22 81.73-24.16L81.73-17.17Z"/>
   <path class="monochrome-0 monochrome-1 multicolor-0:tintColor multicolor-1:tintColor hierarchical-0:primary hierarchical-1:primary SFSymbolsPreviewWireframe" d="M29.82 11.58L29.82 9.66L109.18 9.66L109.18 11.58C109.18 12.43 108.49 13.12 107.64 13.12L31.36 13.12C30.51 13.12 29.82 12.43 29.82 11.58Z"/>
  </g>
  <g id="Bold-L" transform="matrix(1 0 0 1 2269.11 1556)">
   <path class="monochrome-0 multicolor-0:tintColor hierarchical-0:primary SFSymbolsPreviewWireframe" d="M28.54-104L112.51-104C124.52-104 134.27-94.26 134.27-82.24L134.27 12.48C134.27 24.5 124.52 34.24 112.51 34.24L28.54 34.24C16.52 34.24 6.78 24.5 6.78 12.48L6.78-82.24C6.78-94.26 16.52-104 28.54-104ZM28.54-87.36C25.71-87.36 23.42-85.07 23.42-82.24L23.42-0.32L117.63-0.32L117.63-82.24C117.63-85.07 115.33-87.36 112.51-87.36L28.54-87.36ZM53.16-45.05C55.92-45.05 58.29-46.04 60.27-48.03C62.37-50.01 63.42-52.44 63.42-55.3C63.42-58.17 62.37-60.59 60.27-62.58C58.29-64.56 55.92-65.55 53.16-65.55C50.3-65.55 47.87-64.56 45.89-62.58C43.91-60.59 42.91-58.17 42.91-55.3C42.91-52.44 43.91-50.01 45.89-48.03C47.87-46.04 50.3-45.05 53.16-45.05ZM88.71-45.05C91.58-45.05 94-46.04 95.99-48.03C97.97-50.01 98.96-52.44 98.96-55.3C98.96-58.17 97.97-60.59 95.99-62.58C94-64.56 91.58-65.55 88.71-65.55C85.96-65.55 83.53-64.56 81.44-62.58C79.45-60.59 78.46-58.17 78.46-55.3C78.46-52.44 79.45-50.01 81.44-48.03C83.53-46.04 85.96-45.05 88.71-45.05ZM31.18-18.27L75.65-18.27L75.65-25.38C75.65-28.9 73.34-31.71 68.71-33.81C64.08-36.01 58.9-37.11 53.16-37.11C47.32-37.11 42.2-36.01 37.79-33.81C33.38-31.71 31.18-28.9 31.18-25.38L31.18-18.27ZM83.09-18.27L109.71-18.27L109.71-25.38C109.71-28.9 107.61-31.77 103.43-33.97C99.35-36.18 94.44-37.28 88.71-37.28C86.84-37.28 84.85-37.06 82.76-36.62C80.67-36.29 79.23-35.85 78.46-35.3C80.11-33.75 81.27-32.21 81.93-30.67C82.7-29.23 83.09-27.47 83.09-25.38L83.09-18.27Z"/>
   <path class="monochrome-0 monochrome-1 multicolor-0:tintColor multicolor-1:tintColor hierarchical-0:primary hierarchical-1:primary SFSymbolsPreviewWireframe" d="M23.42 12.48L23.42 9.66L117.63 9.66L117.63 12.48C117.63 15.31 115.33 17.6 112.51 17.6L28.54 17.6C25.71 17.6 23.42 15.31 23.42 12.48Z"/>
  </g>
  <g id="Semibold-L" transform="matrix(1 0 0 1 1976.62 1556)">
   <path class="monochrome-0 multicolor-0:tintColor hierarchical-0:primary SFSymbolsPreviewWireframe" d="M26.49-102.72L106.11-102.72C117-102.72 125.82-93.89 125.82-83.01L125.82 13.38C125.82 24.26 117 33.09 106.11 33.09L26.49 33.09C15.61 33.09 6.78 24.26 6.78 13.38L6.78-83.01C6.78-93.89 15.61-102.72 26.49-102.72ZM26.49-88.64C23.38-88.64 20.86-86.12 20.86-83.01L20.86 0.7L111.74 0.7L111.74-83.01C111.74-86.12 109.22-88.64 106.11-88.64L26.49-88.64ZM48.28-43.77C51.15-43.77 53.57-44.76 55.55-46.75C57.54-48.73 58.53-51.16 58.53-54.02C58.53-56.89 57.54-59.31 55.55-61.3C53.57-63.28 51.15-64.27 48.28-64.27C45.41-64.27 42.99-63.28 41-61.3C39.02-59.31 38.03-56.89 38.03-54.02C38.03-51.16 39.02-48.73 41-46.75C42.99-44.76 45.41-43.77 48.28-43.77ZM85.15-43.77C88.01-43.77 90.44-44.76 92.42-46.75C94.41-48.73 95.4-51.16 95.4-54.02C95.4-56.89 94.41-59.31 92.42-61.3C90.44-63.28 88.01-64.27 85.15-64.27C82.28-64.27 79.86-63.28 77.87-61.3C75.89-59.31 74.9-56.89 74.9-54.02C74.9-51.16 75.89-48.73 77.87-46.75C79.86-44.76 82.28-43.77 85.15-43.77ZM25.46-16.99L71.76-16.99L71.76-24.1C71.76-27.62 69.28-30.43 64.32-32.53C59.36-34.73 54.01-35.83 48.28-35.83C42.55-35.83 37.31-34.73 32.57-32.53C27.83-30.43 25.46-27.62 25.46-24.1L25.46-16.99ZM79.53-16.99L106.97-16.99L106.97-24.1C106.97-27.62 104.77-30.49 100.36-32.69C95.95-34.9 90.88-36 85.15-36C83.27-36 81.29-35.78 79.2-35.34C77.1-35.01 75.67-34.57 74.9-34.02C76.55-32.47 77.71-30.93 78.37-29.39C79.14-27.95 79.53-26.19 79.53-24.1L79.53-16.99Z"/>
   <path class="monochrome-0 monochrome-1 multicolor-0:tintColor multicolor-1:tintColor hierarchical-0:primary hierarchical-1:primary SFSymbolsPreviewWireframe" d="M111.74 10.69L20.86 10.69L20.86 13.38C20.86 16.49 23.38 19.01 26.49 19.01L106.11 19.01C109.22 19.01 111.74 16.49 111.74 13.38L111.74 10.69Z"/>
  </g>
  <g id="Medium-L" transform="matrix(1 0 0 1 1677.35 1556)">
   <path class="monochrome-0 multicolor-0:tintColor hierarchical-0:primary SFSymbolsPreviewWireframe" d="M25.34-104L112.38-104C122.63-104 130.94-95.69 130.94-85.44L130.94 15.68C130.94 25.93 122.63 34.24 112.38 34.24L25.34 34.24C15.09 34.24 6.78 25.93 6.78 15.68L6.78-85.44C6.78-95.69 15.09-104 25.34-104ZM25.34-91.2C22.15-91.2 19.58-88.62 19.58-85.44L19.58-0.32L118.14-0.32L118.14-85.44C118.14-88.62 115.56-91.2 112.38-91.2L25.34-91.2ZM50.16-44.94C53.13-44.94 55.65-45.97 57.71-48.03C59.77-50.09 60.79-52.6 60.79-55.57C60.79-58.55 59.77-61.06 57.71-63.12C55.65-65.18 53.13-66.21 50.16-66.21C47.19-66.21 44.67-65.18 42.61-63.12C40.56-61.06 39.53-58.55 39.53-55.57C39.53-52.6 40.56-50.09 42.61-48.03C44.67-45.97 47.19-44.94 50.16-44.94ZM88.41-44.94C91.38-44.94 93.9-45.97 95.96-48.03C98.01-50.09 99.04-52.6 99.04-55.57C99.04-58.55 98.01-61.06 95.96-63.12C93.9-65.18 91.38-66.21 88.41-66.21C85.44-66.21 82.92-65.18 80.86-63.12C78.8-61.06 77.77-58.55 77.77-55.57C77.77-52.6 78.8-50.09 80.86-48.03C82.92-45.97 85.44-44.94 88.41-44.94ZM26.49-17.15L74.52-17.15L74.52-24.53C74.52-28.19 71.94-31.1 66.8-33.28C61.65-35.56 56.11-36.71 50.16-36.71C44.22-36.71 38.78-35.56 33.87-33.28C28.95-31.1 26.49-28.19 26.49-24.53L26.49-17.15ZM82.58-17.15L111.05-17.15L111.05-24.53C111.05-28.19 108.76-31.16 104.19-33.45C99.61-35.74 94.35-36.88 88.41-36.88C86.46-36.88 84.41-36.65 82.23-36.19C80.06-35.85 78.58-35.39 77.77-34.82C79.49-33.22 80.69-31.62 81.38-30.02C82.18-28.53 82.58-26.7 82.58-24.53L82.58-17.15Z"/>
   <path class="monochrome-0 monochrome-1 multicolor-0:tintColor multicolor-1:tintColor hierarchical-0:primary hierarchical-1:primary SFSymbolsPreviewWireframe" d="M118.14 9.92L19.58 9.92L19.58 15.68C19.58 18.86 22.15 21.44 25.34 21.44L112.38 21.44C115.56 21.44 118.14 18.86 118.14 15.68L118.14 9.92Z"/>
  </g>
  <g id="Regular-L" transform="matrix(1 0 0 1 1383.33 1556)">
   <path class="monochrome-0 multicolor-0:tintColor hierarchical-0:primary SFSymbolsPreviewWireframe" d="M102.82-102.72C117.44-102.72 125.57-93.82 125.56-79.98L125.56 9.27C125.57 23.11 117.44 32.02 102.82 32.01L29.52 32.01C15.68 32.02 6.78 23.89 6.78 9.27L6.78-79.98C6.78-93.8 14.92-102.72 29.52-102.72L102.82-102.72ZM17.53-79.68L17.53 0.79L114.81 0.79L114.81-79.68C114.81-89.17 111.46-91.97 102.52-91.97L29.82-91.97C20.88-91.97 17.53-89.17 17.53-79.68ZM48.15-45.05C51.02-45.05 53.44-46.04 55.43-48.03C57.41-50.01 58.4-52.44 58.4-55.3C58.4-58.17 57.41-60.59 55.43-62.58C53.44-64.56 51.02-65.55 48.15-65.55C45.28-65.55 42.86-64.56 40.88-62.58C38.89-60.59 37.9-58.17 37.9-55.3C37.9-52.44 38.89-50.01 40.88-48.03C42.86-46.04 45.28-45.05 48.15-45.05ZM85.02-45.05C87.89-45.05 90.31-46.04 92.29-48.03C94.28-50.01 95.27-52.44 95.27-55.3C95.27-58.17 94.28-60.59 92.29-62.58C90.31-64.56 87.89-65.55 85.02-65.55C82.15-65.55 79.73-64.56 77.75-62.58C75.76-60.59 74.77-58.17 74.77-55.3C74.77-52.44 75.76-50.01 77.75-48.03C79.73-46.04 82.15-45.05 85.02-45.05ZM25.33-18.27L71.63-18.27L71.63-25.38C71.63-28.9 69.15-31.71 64.19-33.81C59.23-36.01 53.88-37.11 48.15-37.11C42.42-37.11 37.18-36.01 32.44-33.81C27.7-31.71 25.33-28.9 25.33-25.38L25.33-18.27ZM79.4-18.27L106.84-18.27L106.84-25.38C106.84-28.9 104.64-31.77 100.23-33.97C95.82-36.18 90.75-37.28 85.02-37.28C83.15-37.28 81.16-37.06 79.07-36.62C76.97-36.29 75.54-35.85 74.77-35.3C76.42-33.75 77.58-32.21 78.24-30.67C79.01-29.23 79.4-27.47 79.4-25.38L79.4-18.27Z"/>
   <path class="monochrome-0 monochrome-1 multicolor-0:tintColor multicolor-1:tintColor hierarchical-0:primary hierarchical-1:primary SFSymbolsPreviewWireframe" d="M18.37 17.07C17.68 15.71 17.56 14.01 17.54 11.03L114.81 11.03C114.79 14.01 114.67 15.71 113.97 17.07C111.7 21.54 106.89 21.26 102.52 21.26L29.82 21.26C25.46 21.26 20.65 21.54 18.37 17.07Z"/>
  </g>
  <g id="Light-L" transform="matrix(1 0 0 1 1086.49 1556)">
   <path class="monochrome-0 multicolor-0:tintColor hierarchical-0:primary SFSymbolsPreviewWireframe" d="M23.42-102.72L109.18-102.72C118.37-102.72 125.82-95.27 125.82-86.08L125.82 15.04C125.82 24.23 118.37 31.68 109.18 31.68L23.42 31.68C14.23 31.68 6.78 24.23 6.78 15.04L6.78-86.08C6.78-95.27 14.23-102.72 23.42-102.72ZM23.42-94.4C18.82-94.4 15.1-90.67 15.1-86.08L15.1 0.96L117.5 0.96L117.5-86.08C117.5-90.67 113.78-94.4 109.18-94.4L23.42-94.4ZM47.78-44.95C50.55-44.95 52.92-45.94 54.88-47.9C56.84-49.86 57.82-52.22 57.82-54.99C57.82-57.76 56.84-60.07 54.88-61.91C52.92-63.88 50.55-64.86 47.78-64.86C45.01-64.86 42.65-63.88 40.69-61.91C38.84-60.07 37.92-57.76 37.92-54.99C37.92-52.11 38.84-49.69 40.69-47.72C42.65-45.88 45.01-44.95 47.78-44.95ZM85.34-44.95C88.11-44.95 90.47-45.94 92.43-47.9C94.39-49.86 95.37-52.22 95.37-54.99C95.37-57.76 94.39-60.07 92.43-61.91C90.47-63.88 88.11-64.86 85.34-64.86C82.57-64.86 80.2-63.88 78.24-61.91C76.4-60.07 75.47-57.76 75.47-54.99C75.47-52.11 76.4-49.69 78.24-47.72C80.2-45.88 82.57-44.95 85.34-44.95ZM25.63-18.65L70.63-18.65L70.63-24.53C70.63-28.23 68.15-31.17 63.19-33.36C58.22-35.55 53.15-36.65 47.96-36.65C42.65-36.65 37.57-35.55 32.73-33.36C28-31.17 25.63-28.23 25.63-24.53L25.63-18.65ZM81.01-18.65L106.8-18.65L106.8-24.53C106.8-28.23 104.55-31.17 100.05-33.36C95.55-35.55 90.64-36.65 85.34-36.65C83.84-36.65 82.22-36.47 80.49-36.13C78.76-35.9 77.55-35.55 76.86-35.09C78.36-33.71 79.39-32.26 79.97-30.76C80.66-29.38 81.01-27.65 81.01-25.57L81.01-18.65Z"/>
   <path class="monochrome-0 monochrome-1 multicolor-0:tintColor multicolor-1:tintColor hierarchical-0:primary hierarchical-1:primary SFSymbolsPreviewWireframe" d="M117.5 8.64L15.1 8.64L15.1 15.04C15.1 19.64 18.82 23.36 23.42 23.36L109.18 23.36C113.78 23.36 117.5 19.64 117.5 15.04L117.5 8.64Z"/>
  </g>
  <g id="Thin-L" transform="matrix(1 0 0 1 790.801 1556)">
   <path class="monochrome-0 multicolor-0:tintColor hierarchical-0:primary SFSymbolsPreviewWireframe" d="M17.276-101.44L113.276-101.44C119.073-101.44 123.772-96.74 123.772-90.94L123.772 21.06C123.772 26.85 119.073 31.55 113.276 31.55L17.276 31.55C11.479 31.55 6.78 26.85 6.78 21.06L6.78-90.94C6.78-96.74 11.479-101.44 17.276-101.44ZM17.276-95.68C14.66-95.68 12.54-93.56 12.54-90.94L12.54 3.14L118.012 3.14L118.012-90.94C118.012-93.56 115.892-95.68 113.276-95.68L17.276-95.68ZM46.312-44.98C48.987-44.98 51.235-45.9 53.059-47.72C55.004-49.66 55.976-51.97 55.976-54.65C55.976-57.32 55.004-59.57 53.059-61.39C51.114-63.34 48.865-64.31 46.312-64.31C43.517-64.31 41.207-63.34 39.384-61.39C37.561-59.57 36.649-57.32 36.649-54.65C36.649-51.97 37.561-49.66 39.384-47.72C41.207-45.9 43.517-44.98 46.312-44.98ZM84.602-44.98C87.276-44.98 89.585-45.9 91.53-47.72C93.475-49.66 94.448-51.97 94.448-54.65C94.448-57.32 93.475-59.57 91.53-61.39C89.585-63.34 87.276-64.31 84.602-64.31C81.928-64.31 79.679-63.34 77.856-61.39C76.032-59.57 75.121-57.32 75.121-54.65C75.121-51.97 76.032-49.66 77.856-47.72C79.679-45.9 81.928-44.98 84.602-44.98ZM24.615-19.09L68.374-19.09L68.374-23.65C68.374-27.66 65.883-30.76 60.899-32.95C55.915-35.14 51.053-36.23 46.312-36.23C41.572-36.23 36.771-35.14 31.908-32.95C27.046-30.76 24.615-27.66 24.615-23.65L24.615-19.09ZM81.867-19.09L105.934-19.09L105.934-23.65C105.934-27.66 103.564-30.76 98.824-32.95C94.205-35.14 89.464-36.23 84.602-36.23C83.386-36.23 82.11-36.11 80.773-35.87C79.557-35.75 78.646-35.5 78.038-35.14C79.375-33.68 80.347-32.22 80.955-30.76C81.563-29.43 81.867-27.85 81.867-26.02L81.867-19.09Z"/>
   <path class="monochrome-0 monochrome-1 multicolor-0:tintColor multicolor-1:tintColor hierarchical-0:primary hierarchical-1:primary SFSymbolsPreviewWireframe" d="M118.012 8.9L12.54 8.9L12.54 21.06C12.54 23.67 14.66 25.79 17.276 25.79L113.276 25.79C115.892 25.79 118.012 23.67 118.012 21.06L118.012 8.9Z"/>
  </g>
  <g id="Ultralight-L" transform="matrix(1 0 0 1 494.602 1556)">
   <path class="monochrome-0 multicolor-0:tintColor hierarchical-0:primary SFSymbolsPreviewWireframe" d="M21.244-101.44L108.284-101.44C116.272-101.44 122.748-94.96 122.748-86.98L122.748 15.42C122.748 23.41 116.272 29.89 108.284 29.89L21.244 29.89C13.256 29.89 6.78 23.41 6.78 15.42L6.78-86.98C6.78-94.96 13.256-101.44 21.244-101.44ZM21.244-97.86C15.235-97.86 10.364-92.98 10.364-86.98L10.364 3.14L119.164 3.14L119.164-86.98C119.164-92.98 114.293-97.86 108.284-97.86L21.244-97.86ZM45.317-43.94C47.96-43.94 50.226-44.88 52.114-46.77C54.002-48.66 54.947-50.93 54.947-53.57C54.947-56.21 54.002-58.42 52.114-60.18C50.226-62.07 47.96-63.01 45.317-63.01C42.673-63.01 40.407-62.07 38.519-60.18C36.757-58.42 35.876-56.21 35.876-53.57C35.876-50.93 36.757-48.66 38.519-46.77C40.407-44.88 42.673-43.94 45.317-43.94ZM84.402-43.94C87.046-43.94 89.312-44.88 91.2-46.77C93.088-48.66 94.032-50.93 94.032-53.57C94.032-56.21 93.088-58.42 91.2-60.18C89.312-62.07 87.046-63.01 84.402-63.01C81.759-63.01 79.493-62.07 77.605-60.18C75.843-58.42 74.961-56.21 74.961-53.57C74.961-50.93 75.843-48.66 77.605-46.77C79.493-44.88 81.759-43.94 84.402-43.94ZM23.98-18.26L67.031-18.26L67.031-22.04C67.031-26.19 64.513-29.34 59.478-31.48C54.569-33.74 49.911-34.88 45.506-34.88C40.974-34.88 36.253-33.74 31.344-31.48C26.435-29.34 23.98-26.19 23.98-22.04L23.98-18.26ZM82.514-18.26L105.55-18.26L105.55-22.04C105.55-26.19 103.159-29.34 98.375-31.48C93.592-33.74 88.934-34.88 84.402-34.88C83.395-34.88 82.388-34.81 81.381-34.69C80.374-34.56 79.619-34.37 79.116-34.12C80.248-32.74 81.067-31.35 81.57-29.97C82.2-28.58 82.514-27.01 82.514-25.25L82.514-18.26Z"/>
   <path class="monochrome-0 monochrome-1 multicolor-0:tintColor multicolor-1:tintColor hierarchical-0:primary hierarchical-1:primary SFSymbolsPreviewWireframe" d="M119.164 7.36L10.364 7.36L10.364 15.42C10.364 21.43 15.235 26.3 21.244 26.3L108.284 26.3C114.293 26.3 119.164 21.43 119.164 15.42L119.164 7.36Z"/>
  </g>
  <g id="Heavy-M" transform="matrix(1 0 0 1 2580.56 1126)">
   <path class="monochrome-0 multicolor-0:tintColor hierarchical-0:primary SFSymbolsPreviewWireframe" d="M25.98-90L85.58-90C96.18-90 104.78-81.4 104.78-70.8L104.78 1.3C104.78 11.9 96.18 20.5 85.58 20.5L25.98 20.5C15.38 20.5 6.78 11.9 6.78 1.3L6.78-70.8C6.78-81.4 15.38-90 25.98-90ZM25.98-72C25.32-72 24.78-71.46 24.78-70.8L24.78-7.8L86.78-7.8L86.78-70.8C86.78-71.46 86.24-72 85.58-72L25.98-72ZM42.35-41.74C44.46-41.74 46.28-42.5 47.81-44.02C49.42-45.55 50.22-47.41 50.22-49.61C50.22-51.81 49.42-53.67 47.81-55.2C46.28-56.72 44.46-57.48 42.35-57.48C40.15-57.48 38.28-56.72 36.76-55.2C35.24-53.67 34.47-51.81 34.47-49.61C34.47-47.41 35.24-45.55 36.76-44.02C38.28-42.5 40.15-41.74 42.35-41.74ZM69.65-41.74C71.85-41.74 73.72-42.5 75.24-44.02C76.76-45.55 77.53-47.41 77.53-49.61C77.53-51.81 76.76-53.67 75.24-55.2C73.72-56.72 71.85-57.48 69.65-57.48C67.53-57.48 65.67-56.72 64.06-55.2C62.54-53.67 61.78-51.81 61.78-49.61C61.78-47.41 62.54-45.55 64.06-44.02C65.67-42.5 67.53-41.74 69.65-41.74ZM25.46-21.16L59.62-21.16L59.62-26.62C59.62-29.33 57.84-31.49 54.28-33.1C50.73-34.79 46.75-35.64 42.35-35.64C37.86-35.64 33.92-34.79 30.54-33.1C27.15-31.49 25.46-29.33 25.46-26.62L25.46-21.16ZM65.33-21.16L85.78-21.16L85.78-26.62C85.78-29.33 84.17-31.53 80.95-33.23C77.82-34.92 74.05-35.77 69.65-35.77C68.21-35.77 66.69-35.6 65.08-35.26C63.47-35.01 62.37-34.67 61.78-34.24C63.05-33.06 63.94-31.87 64.44-30.69C65.04-29.59 65.33-28.23 65.33-26.62L65.33-21.16Z"/>
   <path class="monochrome-0 monochrome-1 multicolor-0:tintColor multicolor-1:tintColor hierarchical-0:primary hierarchical-1:primary SFSymbolsPreviewWireframe" d="M24.78 1.3L24.78-0.2L86.78-0.2L86.78 1.3C86.78 1.96 86.24 2.5 85.58 2.5L25.98 2.5C25.32 2.5 24.78 1.96 24.78 1.3Z"/>
  </g>
  <g id="Bold-M" transform="matrix(1 0 0 1 2283.05 1126)">
   <path class="monochrome-0 multicolor-0:tintColor hierarchical-0:primary SFSymbolsPreviewWireframe" d="M23.78-89L89.38-89C98.77-89 106.38-81.39 106.38-72L106.38 2C106.38 11.39 98.77 19 89.38 19L23.78 19C14.39 19 6.78 11.39 6.78 2L6.78-72C6.78-81.39 14.39-89 23.78-89ZM23.78-76C21.57-76 19.78-74.21 19.78-72L19.78-8L93.38-8L93.38-72C93.38-74.21 91.59-76 89.38-76L23.78-76ZM43.02-42.95C45.17-42.95 47.02-43.72 48.57-45.27C50.21-46.82 51.03-48.72 51.03-50.95C51.03-53.19 50.21-55.09 48.57-56.64C47.02-58.19 45.17-58.96 43.02-58.96C40.78-58.96 38.88-58.19 37.33-56.64C35.78-55.09 35.01-53.19 35.01-50.95C35.01-48.72 35.78-46.82 37.33-45.27C38.88-43.72 40.78-42.95 43.02-42.95ZM70.79-42.95C73.03-42.95 74.92-43.72 76.47-45.27C78.02-46.82 78.8-48.72 78.8-50.95C78.8-53.19 78.02-55.09 76.47-56.64C74.92-58.19 73.03-58.96 70.79-58.96C68.64-58.96 66.74-58.19 65.11-56.64C63.56-55.09 62.78-53.19 62.78-50.95C62.78-48.72 63.56-46.82 65.11-45.27C66.74-43.72 68.64-42.95 70.79-42.95ZM25.84-22.02L60.58-22.02L60.58-27.58C60.58-30.33 58.78-32.53 55.16-34.16C51.54-35.89 47.5-36.75 43.02-36.75C38.45-36.75 34.45-35.89 31.01-34.16C27.56-32.53 25.84-30.33 25.84-27.58L25.84-22.02ZM66.4-22.02L87.19-22.02L87.19-27.58C87.19-30.33 85.56-32.57 82.28-34.29C79.1-36.01 75.27-36.88 70.79-36.88C69.32-36.88 67.77-36.7 66.14-36.36C64.5-36.1 63.38-35.76 62.78-35.33C64.07-34.12 64.98-32.91 65.49-31.71C66.1-30.59 66.4-29.21 66.4-27.58L66.4-22.02Z"/>
   <path class="monochrome-0 monochrome-1 multicolor-0:tintColor multicolor-1:tintColor hierarchical-0:primary hierarchical-1:primary SFSymbolsPreviewWireframe" d="M19.78 2L19.78-0.2L93.38-0.2L93.38 2C93.38 4.21 91.59 6 89.38 6L23.78 6C21.57 6 19.78 4.21 19.78 2Z"/>
  </g>
  <g id="Semibold-M" transform="matrix(1 0 0 1 1989.64 1126)">
   <path class="monochrome-0 multicolor-0:tintColor hierarchical-0:primary SFSymbolsPreviewWireframe" d="M22.18-88L84.38-88C92.89-88 99.78-81.11 99.78-72.6L99.78 2.7C99.78 11.21 92.89 18.1 84.38 18.1L22.18 18.1C13.67 18.1 6.78 11.21 6.78 2.7L6.78-72.6C6.78-81.11 13.67-88 22.18-88ZM22.18-77C19.75-77 17.78-75.03 17.78-72.6L17.78-7.2L88.78-7.2L88.78-72.6C88.78-75.03 86.81-77 84.38-77L22.18-77ZM39.2-41.95C41.44-41.95 43.33-42.72 44.88-44.27C46.43-45.82 47.21-47.72 47.21-49.95C47.21-52.19 46.43-54.09 44.88-55.64C43.33-57.19 41.44-57.96 39.2-57.96C36.96-57.96 35.07-57.19 33.52-55.64C31.97-54.09 31.19-52.19 31.19-49.95C31.19-47.72 31.97-45.82 33.52-44.27C35.07-42.72 36.96-41.95 39.2-41.95ZM68-41.95C70.24-41.95 72.14-42.72 73.69-44.27C75.24-45.82 76.01-47.72 76.01-49.95C76.01-52.19 75.24-54.09 73.69-55.64C72.14-57.19 70.24-57.96 68-57.96C65.77-57.96 63.87-57.19 62.32-55.64C60.77-54.09 60-52.19 60-49.95C60-47.72 60.77-45.82 62.32-44.27C63.87-42.72 65.77-41.95 68-41.95ZM21.38-21.02L57.54-21.02L57.54-26.58C57.54-29.33 55.6-31.53 51.73-33.16C47.85-34.89 43.68-35.75 39.2-35.75C34.72-35.75 30.63-34.89 26.93-33.16C23.23-31.53 21.38-29.33 21.38-26.58L21.38-21.02ZM63.61-21.02L85.05-21.02L85.05-26.58C85.05-29.33 83.33-31.57 79.89-33.29C76.44-35.01 72.48-35.88 68-35.88C66.54-35.88 64.99-35.7 63.35-35.36C61.72-35.1 60.6-34.76 60-34.33C61.29-33.12 62.19-31.91 62.71-30.71C63.31-29.59 63.61-28.21 63.61-26.58L63.61-21.02Z"/>
   <path class="monochrome-0 monochrome-1 multicolor-0:tintColor multicolor-1:tintColor hierarchical-0:primary hierarchical-1:primary SFSymbolsPreviewWireframe" d="M88.78 0.6L17.78 0.6L17.78 2.7C17.78 5.13 19.75 7.1 22.18 7.1L84.38 7.1C86.81 7.1 88.78 5.13 88.78 2.7L88.78 0.6Z"/>
  </g>
  <g id="Medium-M" transform="matrix(1 0 0 1 1690.93 1126)">
   <path class="monochrome-0 multicolor-0:tintColor hierarchical-0:primary SFSymbolsPreviewWireframe" d="M21.28-89L89.28-89C97.29-89 103.78-82.51 103.78-74.5L103.78 4.5C103.78 12.51 97.29 19 89.28 19L21.28 19C13.27 19 6.78 12.51 6.78 4.5L6.78-74.5C6.78-82.51 13.27-89 21.28-89ZM21.28-79C18.79-79 16.78-76.99 16.78-74.5L16.78-8L93.78-8L93.78-74.5C93.78-76.99 91.77-79 89.28-79L21.28-79ZM40.67-42.86C43-42.86 44.96-43.66 46.57-45.27C48.18-46.88 48.98-48.84 48.98-51.17C48.98-53.49 48.18-55.46 46.57-57.06C44.96-58.67 43-59.48 40.67-59.48C38.35-59.48 36.39-58.67 34.78-57.06C33.17-55.46 32.37-53.49 32.37-51.17C32.37-48.84 33.17-46.88 34.78-45.27C36.39-43.66 38.35-42.86 40.67-42.86ZM70.56-42.86C72.88-42.86 74.84-43.66 76.45-45.27C78.06-46.88 78.86-48.84 78.86-51.17C78.86-53.49 78.06-55.46 76.45-57.06C74.84-58.67 72.88-59.48 70.56-59.48C68.23-59.48 66.27-58.67 64.66-57.06C63.05-55.46 62.25-53.49 62.25-51.17C62.25-48.84 63.05-46.88 64.66-45.27C66.27-43.66 68.23-42.86 70.56-42.86ZM22.18-21.15L59.7-21.15L59.7-26.91C59.7-29.77 57.69-32.05 53.67-33.75C49.65-35.53 45.32-36.43 40.67-36.43C36.03-36.43 31.79-35.53 27.95-33.75C24.1-32.05 22.18-29.77 22.18-26.91L22.18-21.15ZM66-21.15L88.24-21.15L88.24-26.91C88.24-29.77 86.46-32.1 82.88-33.88C79.31-35.67 75.2-36.56 70.56-36.56C69.04-36.56 67.43-36.38 65.73-36.03C64.03-35.76 62.87-35.4 62.25-34.95C63.59-33.7 64.53-32.45 65.06-31.2C65.69-30.04 66-28.61 66-26.91L66-21.15Z"/>
   <path class="monochrome-0 monochrome-1 multicolor-0:tintColor multicolor-1:tintColor hierarchical-0:primary hierarchical-1:primary SFSymbolsPreviewWireframe" d="M93.78 0L16.78 0L16.78 4.5C16.78 6.99 18.79 9 21.28 9L89.28 9C91.77 9 93.78 6.99 93.78 4.5L93.78 0Z"/>
  </g>
  <g id="Regular-M" transform="matrix(1 0 0 1 1396.32 1126)">
   <path class="monochrome-0 multicolor-0:tintColor hierarchical-0:primary SFSymbolsPreviewWireframe" d="M81.82-88C93.24-88 99.58-81.05 99.58-70.23L99.58-0.51C99.58 10.31 93.24 17.26 81.82 17.26L24.55 17.26C13.73 17.26 6.78 10.91 6.78-0.51L6.78-70.23C6.78-81.05 13.13-88 24.55-88L81.82-88ZM15.18-70L15.18-7.13L91.18-7.13L91.18-70C91.18-76.98 89-79.6 81.58-79.6L24.78-79.6C17.8-79.6 15.18-77.41 15.18-70ZM39.1-42.95C41.34-42.95 43.24-43.72 44.79-45.27C46.34-46.82 47.11-48.72 47.11-50.95C47.11-53.19 46.34-55.09 44.79-56.64C43.24-58.19 41.34-58.96 39.1-58.96C36.86-58.96 34.97-58.19 33.42-56.64C31.87-55.09 31.09-53.19 31.09-50.95C31.09-48.72 31.87-46.82 33.42-45.27C34.97-43.72 36.86-42.95 39.1-42.95ZM67.91-42.95C70.15-42.95 72.04-43.72 73.59-45.27C75.14-46.82 75.92-48.72 75.92-50.95C75.92-53.19 75.14-55.09 73.59-56.64C72.04-58.19 70.15-58.96 67.91-58.96C65.67-58.96 63.77-58.19 62.22-56.64C60.67-55.09 59.9-53.19 59.9-50.95C59.9-48.72 60.67-46.82 62.22-45.27C63.77-43.72 65.67-42.95 67.91-42.95ZM21.28-22.02L57.44-22.02L57.44-27.57C57.44-30.33 55.51-32.53 51.63-34.16C47.76-35.88 43.58-36.75 39.1-36.75C34.62-36.75 30.53-35.88 26.83-34.16C23.13-32.53 21.28-30.33 21.28-27.57L21.28-22.02ZM63.52-22.02L84.96-22.02L84.96-27.57C84.96-30.33 83.23-32.57 79.79-34.29C76.35-36.01 72.38-36.87 67.91-36.87C66.44-36.87 64.89-36.7 63.26-36.36C61.62-36.1 60.5-35.76 59.9-35.32C61.19-34.12 62.09-32.91 62.61-31.71C63.21-30.59 63.52-29.21 63.52-27.57L63.52-22.02Z"/>
   <path class="monochrome-0 monochrome-1 multicolor-0:tintColor multicolor-1:tintColor hierarchical-0:primary hierarchical-1:primary SFSymbolsPreviewWireframe" d="M15.84 5.58C15.3 4.52 15.2 3.19 15.19 0.87L91.18 0.87C91.16 3.19 91.07 4.52 90.53 5.58C88.75 9.08 84.99 8.86 81.58 8.86L24.78 8.86C21.37 8.86 17.61 9.08 15.84 5.58Z"/>
  </g>
  <g id="Light-M" transform="matrix(1 0 0 1 1099.51 1126)">
   <path class="monochrome-0 multicolor-0:tintColor hierarchical-0:primary SFSymbolsPreviewWireframe" d="M19.78-88L86.78-88C93.96-88 99.78-82.18 99.78-75L99.78 4C99.78 11.18 93.96 17 86.78 17L19.78 17C12.6 17 6.78 11.18 6.78 4L6.78-75C6.78-82.18 12.6-88 19.78-88ZM19.78-81.5C16.19-81.5 13.28-78.59 13.28-75L13.28-7L93.28-7L93.28-75C93.28-78.59 90.37-81.5 86.78-81.5L19.78-81.5ZM38.81-42.87C40.98-42.87 42.82-43.64 44.36-45.17C45.89-46.7 46.66-48.55 46.66-50.71C46.66-52.88 45.89-54.68 44.36-56.12C42.82-57.65 40.98-58.42 38.81-58.42C36.65-58.42 34.8-57.65 33.27-56.12C31.83-54.68 31.11-52.88 31.11-50.71C31.11-48.46 31.83-46.57 33.27-45.03C34.8-43.59 36.65-42.87 38.81-42.87ZM68.15-42.87C70.32-42.87 72.16-43.64 73.7-45.17C75.23-46.7 75.99-48.55 75.99-50.71C75.99-52.88 75.23-54.68 73.7-56.12C72.16-57.65 70.32-58.42 68.15-58.42C65.99-58.42 64.14-57.65 62.61-56.12C61.17-54.68 60.45-52.88 60.45-50.71C60.45-48.46 61.17-46.57 62.61-45.03C64.14-43.59 65.99-42.87 68.15-42.87ZM21.51-22.32L56.66-22.32L56.66-26.92C56.66-29.8 54.72-32.1 50.85-33.81C46.97-35.53 43-36.38 38.95-36.38C34.8-36.38 30.84-35.53 27.05-33.81C23.36-32.1 21.51-29.8 21.51-26.92L21.51-22.32ZM64.77-22.32L84.92-22.32L84.92-26.92C84.92-29.8 83.16-32.1 79.64-33.81C76.13-35.53 72.3-36.38 68.15-36.38C66.98-36.38 65.72-36.25 64.37-35.98C63.01-35.8 62.07-35.53 61.53-35.16C62.7-34.08 63.51-32.96 63.96-31.78C64.5-30.7 64.77-29.35 64.77-27.73L64.77-22.32Z"/>
   <path class="monochrome-0 monochrome-1 multicolor-0:tintColor multicolor-1:tintColor hierarchical-0:primary hierarchical-1:primary SFSymbolsPreviewWireframe" d="M93.28-1L13.28-1L13.28 4C13.28 7.59 16.19 10.5 19.78 10.5L86.78 10.5C90.37 10.5 93.28 7.59 93.28 4L93.28-1Z"/>
  </g>
  <g id="Thin-M" transform="matrix(1 0 0 1 803.597 1126)">
   <path class="monochrome-0 multicolor-0:tintColor hierarchical-0:primary SFSymbolsPreviewWireframe" d="M14.98-87L89.98-87C94.509-87 98.18-83.33 98.18-78.8L98.18 8.7C98.18 13.23 94.509 16.9 89.98 16.9L14.98 16.9C10.451 16.9 6.78 13.23 6.78 8.7L6.78-78.8C6.78-83.33 10.451-87 14.98-87ZM14.98-82.5C12.936-82.5 11.28-80.84 11.28-78.8L11.28-5.3L93.68-5.3L93.68-78.8C93.68-80.84 92.023-82.5 89.98-82.5L14.98-82.5ZM37.665-42.89C39.754-42.89 41.511-43.61 42.935-45.03C44.454-46.55 45.214-48.36 45.214-50.44C45.214-52.53 44.454-54.29 42.935-55.72C41.416-57.23 39.659-57.99 37.665-57.99C35.48-57.99 33.676-57.23 32.252-55.72C30.827-54.29 30.115-52.53 30.115-50.44C30.115-48.36 30.827-46.55 32.252-45.03C33.676-43.61 35.48-42.89 37.665-42.89ZM67.578-42.89C69.667-42.89 71.472-43.61 72.991-45.03C74.51-46.55 75.27-48.36 75.27-50.44C75.27-52.53 74.51-54.29 72.991-55.72C71.472-57.23 69.667-57.99 67.578-57.99C65.489-57.99 63.732-57.23 62.308-55.72C60.883-54.29 60.171-52.53 60.171-50.44C60.171-48.36 60.883-46.55 62.308-45.03C63.732-43.61 65.489-42.89 67.578-42.89ZM20.713-22.67L54.9-22.67L54.9-26.23C54.9-29.36 52.954-31.78 49.06-33.49C45.167-35.2 41.368-36.06 37.665-36.06C33.961-36.06 30.21-35.2 26.411-33.49C22.613-31.78 20.713-29.36 20.713-26.23L20.713-22.67ZM65.441-22.67L84.244-22.67L84.244-26.23C84.244-29.36 82.392-31.78 78.689-33.49C75.08-35.2 71.377-36.06 67.578-36.06C66.628-36.06 65.631-35.96 64.587-35.77C63.637-35.68 62.925-35.49 62.45-35.2C63.495-34.06 64.254-32.92 64.729-31.78C65.204-30.74 65.441-29.51 65.441-28.08L65.441-22.67Z"/>
   <path class="monochrome-0 monochrome-1 multicolor-0:tintColor multicolor-1:tintColor hierarchical-0:primary hierarchical-1:primary SFSymbolsPreviewWireframe" d="M93.68-0.8L11.28-0.8L11.28 8.7C11.28 10.74 12.936 12.4 14.98 12.4L89.98 12.4C92.023 12.4 93.68 10.74 93.68 8.7L93.68-0.8Z"/>
  </g>
  <g id="Ultralight-M" transform="matrix(1 0 0 1 507.286 1126)">
   <path class="monochrome-0 multicolor-0:tintColor hierarchical-0:primary SFSymbolsPreviewWireframe" d="M18.08-87L86.08-87C92.32-87 97.38-81.94 97.38-75.7L97.38 4.3C97.38 10.54 92.32 15.6 86.08 15.6L18.08 15.6C11.839 15.6 6.78 10.54 6.78 4.3L6.78-75.7C6.78-81.94 11.839-87 18.08-87ZM18.08-84.2C13.385-84.2 9.58-80.39 9.58-75.7L9.58-5.3L94.58-5.3L94.58-75.7C94.58-80.39 90.774-84.2 86.08-84.2L18.08-84.2ZM36.886-42.08C38.952-42.08 40.722-42.82 42.197-44.29C43.672-45.77 44.41-47.54 44.41-49.6C44.41-51.67 43.672-53.39 42.197-54.76C40.722-56.24 38.952-56.98 36.886-56.98C34.821-56.98 33.051-56.24 31.576-54.76C30.199-53.39 29.511-51.67 29.511-49.6C29.511-47.54 30.199-45.77 31.576-44.29C33.051-42.82 34.821-42.08 36.886-42.08ZM67.422-42.08C69.487-42.08 71.258-42.82 72.733-44.29C74.208-45.77 74.945-47.54 74.945-49.6C74.945-51.67 74.208-53.39 72.733-54.76C71.258-56.24 69.487-56.98 67.422-56.98C65.357-56.98 63.587-56.24 62.112-54.76C60.735-53.39 60.046-51.67 60.046-49.6C60.046-47.54 60.735-45.77 62.112-44.29C63.587-42.82 65.357-42.08 67.422-42.08ZM20.217-22.02L53.851-22.02L53.851-24.97C53.851-28.21 51.884-30.67 47.95-32.34C44.115-34.11 40.476-35 37.034-35C33.493-35 29.806-34.11 25.97-32.34C22.135-30.67 20.217-28.21 20.217-24.97L20.217-22.02ZM65.947-22.02L83.944-22.02L83.944-24.97C83.944-28.21 82.075-30.67 78.338-32.34C74.601-34.11 70.963-35 67.422-35C66.635-35 65.849-34.95 65.062-34.85C64.275-34.75 63.685-34.6 63.292-34.41C64.177-33.33 64.816-32.24 65.209-31.16C65.701-30.08 65.947-28.85 65.947-27.47L65.947-22.02Z"/>
   <path class="monochrome-0 monochrome-1 multicolor-0:tintColor multicolor-1:tintColor hierarchical-0:primary hierarchical-1:primary SFSymbolsPreviewWireframe" d="M94.58-2L9.58-2L9.58 4.3C9.58 8.99 13.385 12.8 18.08 12.8L86.08 12.8C90.774 12.8 94.58 8.99 94.58 4.3L94.58-2Z"/>
  </g>
  <g id="Heavy-S" transform="matrix(1 0 0 1 2590.85 696)">
   <path class="monochrome-0 multicolor-0:tintColor hierarchical-0:primary SFSymbolsPreviewWireframe" d="M21.95-79L69.03-79C77.41-79 84.2-72.209 84.2-63.833L84.2-6.877C84.2 1.5 77.41 8.29 69.03 8.29L21.95 8.29C13.57 8.29 6.78 1.499 6.78-6.877L6.78-63.833C6.78-72.21 13.57-79 21.95-79ZM21.95-64.781C21.42-64.781 21-64.356 21-63.833L21-14.066L69.98-14.066L69.98-63.833C69.98-64.356 69.55-64.781 69.03-64.781L21.95-64.781ZM34.88-40.874C36.55-40.874 37.99-41.476 39.19-42.68C40.46-43.884 41.1-45.355 41.1-47.094C41.1-48.833 40.46-50.304 39.19-51.508C37.99-52.712 36.55-53.314 34.88-53.314C33.14-53.314 31.67-52.712 30.46-51.508C29.26-50.304 28.66-48.833 28.66-47.094C28.66-45.355 29.26-43.884 30.46-42.68C31.67-41.476 33.14-40.874 34.88-40.874ZM56.45-40.874C58.18-40.874 59.66-41.476 60.86-42.68C62.06-43.884 62.67-45.355 62.67-47.094C62.67-48.833 62.06-50.304 60.86-51.508C59.66-52.712 58.18-53.314 56.45-53.314C54.77-53.314 53.3-52.712 52.03-51.508C50.83-50.304 50.23-48.833 50.23-47.094C50.23-45.355 50.83-43.884 52.03-42.68C53.3-41.476 54.77-40.874 56.45-40.874ZM21.53-24.622L48.52-24.622L48.52-28.936C48.52-31.076 47.12-32.781 44.31-34.052C41.5-35.39 38.35-36.059 34.88-36.059C31.33-36.059 28.22-35.39 25.55-34.052C22.87-32.781 21.53-31.076 21.53-28.936L21.53-24.622ZM53.03-24.622L69.19-24.622L69.19-28.936C69.19-31.076 67.92-32.815 65.37-34.152C62.9-35.49 59.92-36.159 56.45-36.159C55.31-36.159 54.11-36.025 52.83-35.758C51.56-35.557 50.69-35.289 50.23-34.955C51.23-34.019 51.93-33.082 52.33-32.146C52.8-31.277 53.03-30.206 53.03-28.936L53.03-24.622Z"/>
   <path class="monochrome-0 monochrome-1 multicolor-0:tintColor multicolor-1:tintColor hierarchical-0:primary hierarchical-1:primary SFSymbolsPreviewWireframe" d="M21-6.877L21-8.062L69.98-8.062L69.98-6.877C69.98-6.354 69.55-5.929 69.03-5.929L21.95-5.929C21.42-5.929 21-6.354 21-6.877Z"/>
  </g>
  <g id="Bold-S" transform="matrix(1 0 0 1 2293.51 696)">
   <path class="monochrome-0 multicolor-0:tintColor hierarchical-0:primary SFSymbolsPreviewWireframe" d="M20.21-78.21L72.03-78.21C79.45-78.21 85.46-72.197 85.46-64.781L85.46-6.324C85.46 1.093 79.45 7.105 72.03 7.105L20.21 7.105C12.79 7.105 6.78 1.093 6.78-6.324L6.78-64.781C6.78-72.197 12.79-78.21 20.21-78.21ZM20.21-67.941C18.46-67.941 17.05-66.526 17.05-64.781L17.05-14.224L75.19-14.224L75.19-64.781C75.19-66.526 73.77-67.941 72.03-67.941L20.21-67.941ZM35.41-41.83C37.11-41.83 38.57-42.442 39.79-43.666C41.09-44.891 41.73-46.387 41.73-48.156C41.73-49.924 41.09-51.421 39.79-52.645C38.57-53.87 37.11-54.482 35.41-54.482C33.64-54.482 32.14-53.87 30.92-52.645C29.69-51.421 29.08-49.924 29.08-48.156C29.08-46.387 29.69-44.891 30.92-43.666C32.14-42.442 33.64-41.83 35.41-41.83ZM57.34-41.83C59.11-41.83 60.61-42.442 61.83-43.666C63.06-44.891 63.67-46.387 63.67-48.156C63.67-49.924 63.06-51.421 61.83-52.645C60.61-53.87 59.11-54.482 57.34-54.482C55.64-54.482 54.15-53.87 52.85-52.645C51.63-51.421 51.02-49.924 51.02-48.156C51.02-46.387 51.63-44.891 52.85-43.666C54.15-42.442 55.64-41.83 57.34-41.83ZM21.84-25.3L49.28-25.3L49.28-29.687C49.28-31.864 47.85-33.599 45-34.891C42.14-36.252 38.94-36.932 35.41-36.932C31.8-36.932 28.64-36.252 25.92-34.891C23.2-33.599 21.84-31.864 21.84-29.687L21.84-25.3ZM53.87-25.3L70.3-25.3L70.3-29.687C70.3-31.864 69.01-33.633 66.43-34.993C63.91-36.354 60.88-37.034 57.34-37.034C56.19-37.034 54.96-36.898 53.67-36.626C52.38-36.422 51.49-36.15 51.02-35.809C52.04-34.857 52.75-33.905 53.16-32.952C53.64-32.068 53.87-30.98 53.87-29.687L53.87-25.3Z"/>
   <path class="monochrome-0 monochrome-1 multicolor-0:tintColor multicolor-1:tintColor hierarchical-0:primary hierarchical-1:primary SFSymbolsPreviewWireframe" d="M17.05-6.324L17.05-8.062L75.19-8.062L75.19-6.324C75.19-4.579 73.77-3.164 72.03-3.164L20.21-3.164C18.46-3.164 17.05-4.579 17.05-6.324Z"/>
  </g>
  <g id="Semibold-S" transform="matrix(1 0 0 1 1999.41 696)">
   <path class="monochrome-0 multicolor-0:tintColor hierarchical-0:primary SFSymbolsPreviewWireframe" d="M18.95-77.42L68.08-77.42C74.8-77.42 80.25-71.973 80.25-65.255L80.25-5.771C80.25 0.948 74.8 6.394 68.08 6.394L18.95 6.394C12.23 6.394 6.78 0.948 6.78-5.771L6.78-65.255C6.78-71.973 12.23-77.42 18.95-77.42ZM18.95-68.73C17.03-68.73 15.47-67.174 15.47-65.255L15.47-13.592L71.56-13.592L71.56-65.255C71.56-67.174 70-68.73 68.08-68.73L18.95-68.73ZM32.39-41.04C34.16-41.04 35.66-41.652 36.88-42.876C38.1-44.101 38.72-45.597 38.72-47.366C38.72-49.134 38.1-50.631 36.88-51.855C35.66-53.08 34.16-53.692 32.39-53.692C30.62-53.692 29.13-53.08 27.9-51.855C26.68-50.631 26.06-49.134 26.06-47.366C26.06-45.597 26.68-44.101 27.9-42.876C29.13-41.652 30.62-41.04 32.39-41.04ZM55.14-41.04C56.91-41.04 58.41-41.652 59.63-42.876C60.86-44.101 61.47-45.597 61.47-47.366C61.47-49.134 60.86-50.631 59.63-51.855C58.41-53.08 56.91-53.692 55.14-53.692C53.38-53.692 51.88-53.08 50.66-51.855C49.43-50.631 48.82-49.134 48.82-47.366C48.82-45.597 49.43-44.101 50.66-42.876C51.88-41.652 53.38-41.04 55.14-41.04ZM18.31-24.51L46.88-24.51L46.88-28.897C46.88-31.074 45.35-32.809 42.29-34.101C39.23-35.462 35.93-36.142 32.39-36.142C28.85-36.142 25.62-35.462 22.7-34.101C19.77-32.809 18.31-31.074 18.31-28.897L18.31-24.51ZM51.68-24.51L68.61-24.51L68.61-28.897C68.61-31.074 67.25-32.843 64.53-34.203C61.81-35.564 58.68-36.244 55.14-36.244C53.99-36.244 52.76-36.108 51.47-35.836C50.18-35.632 49.29-35.36 48.82-35.019C49.84-34.067 50.55-33.115 50.96-32.162C51.44-31.278 51.68-30.19 51.68-28.897L51.68-24.51Z"/>
   <path class="monochrome-0 monochrome-1 multicolor-0:tintColor multicolor-1:tintColor hierarchical-0:primary hierarchical-1:primary SFSymbolsPreviewWireframe" d="M71.56-7.43L15.47-7.43L15.47-5.771C15.47-3.851 17.03-2.295 18.95-2.295L68.08-2.295C70-2.295 71.56-3.851 71.56-5.771L71.56-7.43Z"/>
  </g>
  <g id="Medium-S" transform="matrix(1 0 0 1 1701.12 696)">
   <path class="monochrome-0 multicolor-0:tintColor hierarchical-0:primary SFSymbolsPreviewWireframe" d="M18.23-78.21L71.95-78.21C78.28-78.21 83.41-73.082 83.41-66.756L83.41-4.349C83.41 1.977 78.28 7.105 71.95 7.105L18.23 7.105C11.91 7.105 6.78 1.977 6.78-4.349L6.78-66.756C6.78-73.082 11.91-78.21 18.23-78.21ZM18.23-70.31C16.27-70.31 14.68-68.719 14.68-66.756L14.68-14.224L75.51-14.224L75.51-66.756C75.51-68.719 73.91-70.31 71.95-70.31L18.23-70.31ZM33.55-41.761C35.39-41.761 36.94-42.396 38.21-43.667C39.48-44.937 40.12-46.489 40.12-48.324C40.12-50.159 39.48-51.711 38.21-52.981C36.94-54.252 35.39-54.887 33.55-54.887C31.72-54.887 30.17-54.252 28.9-52.981C27.63-51.711 26.99-50.159 26.99-48.324C26.99-46.489 27.63-44.937 28.9-43.667C30.17-42.396 31.72-41.761 33.55-41.761ZM57.16-41.761C58.99-41.761 60.55-42.396 61.82-43.667C63.09-44.937 63.72-46.489 63.72-48.324C63.72-50.159 63.09-51.711 61.82-52.981C60.55-54.252 58.99-54.887 57.16-54.887C55.32-54.887 53.77-54.252 52.5-52.981C51.23-51.711 50.6-50.159 50.6-48.324C50.6-46.489 51.23-44.937 52.5-43.667C53.77-42.396 55.32-41.761 57.16-41.761ZM18.95-24.613L48.59-24.613L48.59-29.165C48.59-31.423 47-33.223 43.82-34.563C40.65-35.975 37.22-36.68 33.55-36.68C29.89-36.68 26.53-35.975 23.5-34.563C20.46-33.223 18.95-31.423 18.95-29.165L18.95-24.613ZM53.56-24.613L71.13-24.613L71.13-29.165C71.13-31.423 69.72-33.258 66.9-34.669C64.08-36.081 60.83-36.786 57.16-36.786C55.96-36.786 54.69-36.645 53.35-36.363C52.01-36.151 51.09-35.869 50.6-35.516C51.66-34.528 52.4-33.54 52.82-32.552C53.31-31.635 53.56-30.506 53.56-29.165L53.56-24.613Z"/>
   <path class="monochrome-0 monochrome-1 multicolor-0:tintColor multicolor-1:tintColor hierarchical-0:primary hierarchical-1:primary SFSymbolsPreviewWireframe" d="M75.51-7.904L14.68-7.904L14.68-4.349C14.68-2.386 16.27-0.794 18.23-0.794L71.95-0.794C73.91-0.794 75.51-2.386 75.51-4.349L75.51-7.904Z"/>
  </g>
  <g id="Regular-S" transform="matrix(1 0 0 1 1406.06 696)">
   <path class="monochrome-0 multicolor-0:tintColor hierarchical-0:primary SFSymbolsPreviewWireframe" d="M66.05-77.42C75.08-77.422 80.09-71.928 80.09-63.386L80.09-8.304C80.09 0.238 75.08 5.732 66.06 5.73L20.82 5.73C12.27 5.732 6.78 0.718 6.78-8.304L6.78-63.386C6.78-72.684 11.94-77.422 20.82-77.42L66.05-77.42ZM13.42-63.201L13.42-13.537L73.45-13.537L73.45-63.201C73.45-68.716 71.73-70.785 65.87-70.785L21-70.785C15.49-70.785 13.42-69.058 13.42-63.201ZM32.31-41.83C34.08-41.83 35.58-42.442 36.8-43.666C38.03-44.891 38.64-46.387 38.64-48.156C38.64-49.924 38.03-51.421 36.8-52.645C35.58-53.87 34.08-54.482 32.31-54.482C30.55-54.482 29.05-53.87 27.82-52.645C26.6-51.421 25.99-49.924 25.99-48.156C25.99-46.387 26.6-44.891 27.82-43.666C29.05-42.442 30.55-41.83 32.31-41.83ZM55.07-41.83C56.84-41.83 58.33-42.442 59.56-43.666C60.78-44.891 61.39-46.387 61.39-48.156C61.39-49.924 60.78-51.421 59.56-52.645C58.33-53.87 56.84-54.482 55.07-54.482C53.3-54.482 51.8-53.87 50.58-52.645C49.35-51.421 48.74-49.924 48.74-48.156C48.74-46.387 49.35-44.891 50.58-43.666C51.8-42.442 53.3-41.83 55.07-41.83ZM18.23-25.3L46.8-25.3L46.8-29.687C46.8-31.864 45.27-33.599 42.21-34.891C39.15-36.252 35.85-36.932 32.31-36.932C28.78-36.932 25.55-36.252 22.62-34.891C19.7-33.599 18.23-31.864 18.23-29.687L18.23-25.3ZM51.6-25.3L68.54-25.3L68.54-29.687C68.54-31.864 67.18-33.633 64.46-34.993C61.73-36.354 58.6-37.034 55.07-37.034C53.91-37.034 52.69-36.898 51.39-36.626C50.1-36.422 49.22-36.15 48.74-35.809C49.76-34.857 50.48-33.905 50.88-32.952C51.36-32.068 51.6-30.98 51.6-29.687L51.6-25.3Z"/>
   <path class="monochrome-0 monochrome-1 multicolor-0:tintColor multicolor-1:tintColor hierarchical-0:primary hierarchical-1:primary SFSymbolsPreviewWireframe" d="M13.93-3.493C13.51-4.331 13.43-5.381 13.42-7.217L73.45-7.217C73.44-5.381 73.36-4.331 72.94-3.493C71.53-0.735 68.56-0.905 65.87-0.905L21-0.905C18.31-0.905 15.34-0.735 13.93-3.493Z"/>
  </g>
  <g id="Light-S" transform="matrix(1 0 0 1 1109.27 696)">
   <path class="monochrome-0 multicolor-0:tintColor hierarchical-0:primary SFSymbolsPreviewWireframe" d="M17.05-77.42L69.98-77.42C75.65-77.42 80.25-72.823 80.25-67.151L80.25-4.745C80.25 0.927 75.65 5.525 69.98 5.525L17.05 5.525C11.38 5.525 6.78 0.927 6.78-4.745L6.78-67.151C6.78-72.823 11.38-77.42 17.05-77.42ZM17.05-72.286C14.21-72.286 11.91-69.987 11.91-67.151L11.91-13.434L75.11-13.434L75.11-67.151C75.11-69.987 72.81-72.286 69.98-72.286L17.05-72.286ZM32.09-41.771C33.79-41.771 35.25-42.376 36.46-43.586C37.67-44.797 38.28-46.256 38.28-47.965C38.28-49.674 37.67-51.098 36.46-52.237C35.25-53.448 33.79-54.053 32.09-54.053C30.38-54.053 28.92-53.448 27.71-52.237C26.57-51.098 26-49.674 26-47.965C26-46.185 26.57-44.69 27.71-43.48C28.92-42.34 30.38-41.771 32.09-41.771ZM55.26-41.771C56.97-41.771 58.43-42.376 59.64-43.586C60.85-44.797 61.46-46.256 61.46-47.965C61.46-49.674 60.85-51.098 59.64-52.237C58.43-53.448 56.97-54.053 55.26-54.053C53.55-54.053 52.09-53.448 50.88-52.237C49.74-51.098 49.17-49.674 49.17-47.965C49.17-46.185 49.74-44.69 50.88-43.48C52.09-42.34 53.55-41.771 55.26-41.771ZM18.41-25.536L46.18-25.536L46.18-29.168C46.18-31.446 44.65-33.262 41.59-34.615C38.53-35.968 35.4-36.644 32.19-36.644C28.92-36.644 25.78-35.968 22.79-34.615C19.87-33.262 18.41-31.446 18.41-29.168L18.41-25.536ZM52.59-25.536L68.51-25.536L68.51-29.168C68.51-31.446 67.12-33.262 64.34-34.615C61.56-35.968 58.54-36.644 55.26-36.644C54.34-36.644 53.34-36.537 52.27-36.324C51.2-36.181 50.46-35.968 50.03-35.683C50.95-34.828 51.59-33.938 51.95-33.013C52.38-32.158 52.59-31.09 52.59-29.809L52.59-25.536Z"/>
   <path class="monochrome-0 monochrome-1 multicolor-0:tintColor multicolor-1:tintColor hierarchical-0:primary hierarchical-1:primary SFSymbolsPreviewWireframe" d="M75.11-8.695L11.91-8.695L11.91-4.745C11.91-1.909 14.21 0.39 17.05 0.39L69.98 0.39C72.81 0.39 75.11-1.909 75.11-4.745L75.11-8.695Z"/>
  </g>
  <g id="Thin-S" transform="matrix(1 0 0 1 813.196 696)">
   <path class="monochrome-0 multicolor-0:tintColor hierarchical-0:primary SFSymbolsPreviewWireframe" d="M13.258-76.63L72.504-76.63C76.082-76.63 78.982-73.73 78.982-70.152L78.982-1.031C78.982 2.546 76.082 5.446 72.504 5.446L13.258 5.446C9.68 5.446 6.78 2.546 6.78-1.031L6.78-70.152C6.78-73.73 9.68-76.63 13.258-76.63ZM13.258-73.075C11.643-73.075 10.335-71.766 10.335-70.152L10.335-12.091L75.427-12.091L75.427-70.152C75.427-71.766 74.119-73.075 72.504-73.075L13.258-73.075ZM31.178-41.789C32.828-41.789 34.216-42.351 35.341-43.477C36.541-44.677 37.141-46.102 37.141-47.753C37.141-49.403 36.541-50.791 35.341-51.916C34.141-53.116 32.753-53.717 31.178-53.717C29.452-53.717 28.027-53.116 26.902-51.916C25.776-50.791 25.214-49.403 25.214-47.753C25.214-46.102 25.776-44.677 26.902-43.477C28.027-42.351 29.452-41.789 31.178-41.789ZM54.808-41.789C56.458-41.789 57.884-42.351 59.084-43.477C60.284-44.677 60.884-46.102 60.884-47.753C60.884-49.403 60.284-50.791 59.084-51.916C57.884-53.116 56.458-53.717 54.808-53.717C53.158-53.717 51.77-53.116 50.645-51.916C49.519-50.791 48.957-49.403 48.957-47.753C48.957-46.102 49.519-44.677 50.645-43.477C51.77-42.351 53.158-41.789 54.808-41.789ZM17.787-25.81L44.793-25.81L44.793-28.623C44.793-31.099 43.255-33.012 40.18-34.362C37.104-35.712 34.103-36.388 31.178-36.388C28.252-36.388 25.289-35.712 22.288-34.362C19.287-33.012 17.787-31.099 17.787-28.623L17.787-25.81ZM53.12-25.81L67.973-25.81L67.973-28.623C67.973-31.099 66.511-33.012 63.585-34.362C60.734-35.712 57.809-36.388 54.808-36.388C54.058-36.388 53.27-36.313 52.445-36.163C51.695-36.088 51.132-35.938 50.757-35.712C51.582-34.812 52.182-33.912 52.557-33.012C52.933-32.187 53.12-31.211 53.12-30.086L53.12-25.81Z"/>
   <path class="monochrome-0 monochrome-1 multicolor-0:tintColor multicolor-1:tintColor hierarchical-0:primary hierarchical-1:primary SFSymbolsPreviewWireframe" d="M75.427-8.536L10.335-8.536L10.335-1.031C10.335 0.583 11.643 1.892 13.258 1.892L72.504 1.892C74.119 1.892 75.427 0.583 75.427-1.031L75.427-8.536Z"/>
  </g>
  <g id="Ultralight-S" transform="matrix(1 0 0 1 516.802 696)">
   <path class="monochrome-0 multicolor-0:tintColor hierarchical-0:primary SFSymbolsPreviewWireframe" d="M15.706-76.63L69.423-76.63C74.353-76.63 78.349-72.633 78.349-67.703L78.349-4.507C78.349 0.423 74.353 4.419 69.423 4.419L15.706 4.419C10.776 4.419 6.78 0.423 6.78-4.507L6.78-67.703C6.78-72.633 10.776-76.63 15.706-76.63ZM15.706-74.418C11.998-74.418 8.991-71.412 8.991-67.703L8.991-12.091L76.138-12.091L76.138-67.703C76.138-71.412 73.131-74.418 69.423-74.418L15.706-74.418ZM30.563-41.144C32.194-41.144 33.592-41.727 34.758-42.892C35.923-44.057 36.506-45.456 36.506-47.087C36.506-48.718 35.923-50.078 34.758-51.166C33.592-52.331 32.194-52.913 30.563-52.913C28.931-52.913 27.533-52.331 26.367-51.166C25.28-50.078 24.736-48.718 24.736-47.087C24.736-45.456 25.28-44.057 26.367-42.892C27.533-41.727 28.931-41.144 30.563-41.144ZM54.684-41.144C56.316-41.144 57.714-41.727 58.88-42.892C60.045-44.057 60.628-45.456 60.628-47.087C60.628-48.718 60.045-50.078 58.88-51.166C57.714-52.331 56.316-52.913 54.684-52.913C53.053-52.913 51.655-52.331 50.489-51.166C49.402-50.078 48.858-48.718 48.858-47.087C48.858-45.456 49.402-44.057 50.489-42.892C51.655-41.727 53.053-41.144 54.684-41.144ZM17.395-25.296L43.964-25.296L43.964-27.626C43.964-30.19 42.41-32.132 39.302-33.453C36.273-34.851 33.398-35.55 30.679-35.55C27.882-35.55 24.969-34.851 21.939-33.453C18.909-32.132 17.395-30.19 17.395-27.626L17.395-25.296ZM53.519-25.296L67.736-25.296L67.736-27.626C67.736-30.19 66.26-32.132 63.308-33.453C60.356-34.851 57.481-35.55 54.684-35.55C54.063-35.55 53.441-35.512 52.82-35.434C52.198-35.356 51.732-35.24 51.422-35.084C52.121-34.23 52.626-33.375 52.936-32.521C53.325-31.666 53.519-30.695 53.519-29.607L53.519-25.296Z"/>
   <path class="monochrome-0 monochrome-1 multicolor-0:tintColor multicolor-1:tintColor hierarchical-0:primary hierarchical-1:primary SFSymbolsPreviewWireframe" d="M76.138-9.484L8.991-9.484L8.991-4.507C8.991-0.799 11.998 2.208 15.706 2.208L69.423 2.208C73.131 2.208 76.138-0.799 76.138-4.507L76.138-9.484Z"/>
  </g>
 </g>
</svg>
