<svg width="540" height="170" viewBox="0 0 540 170" fill="none" xmlns="http://www.w3.org/2000/svg"><path opacity=".04" d="M281.956 123.563c14.58 0 26.399-.944 26.399-2.108 0-1.164-11.819-2.108-26.399-2.108s-26.399.944-26.399 2.108c0 1.164 11.819 2.108 26.399 2.108z" fill="#202124"/><path opacity=".18" d="M145.736 127.78c14.58 0 26.399-.944 26.399-2.109 0-1.164-11.819-2.108-26.399-2.108s-26.399.944-26.399 2.108c0 1.165 11.819 2.109 26.399 2.109zm156.601 13.171v4.749h45.407v-9.487l-45.407 4.738z" fill="#fff"/><path d="M278.788 116.184V54.572c0-2.65 2.123-4.797 4.741-4.797h6.875v66.409h-11.616z" fill="#303030"/><path fill-rule="evenodd" clip-rule="evenodd" d="M283.512 48.721h7.948v68.518h-13.728V54.493a5.776 5.776 0 0 1 5.78-5.772zm6.021 66.594v-64.67h-6.021a3.85 3.85 0 0 0-3.853 3.848v60.822h9.874z" fill="#5F6368"/><path d="M284.068 116.184V54.572a4.792 4.792 0 0 1 4.788-4.797h74.901a4.792 4.792 0 0 1 4.788 4.797v61.612h-84.477z" fill="#414447"/><path fill-rule="evenodd" clip-rule="evenodd" d="M288.771 48.721h75.072c3.18 0 5.758 2.584 5.758 5.772v62.746h-86.589V54.493c0-3.188 2.578-5.772 5.759-5.772zm78.911 5.772a3.843 3.843 0 0 0-3.839-3.848H288.77a3.843 3.843 0 0 0-3.839 3.848v60.822h82.751V54.493z" fill="#5F6368"/><path d="M283.549 123.563c-2.63 0-4.761-2.205-4.761-4.926v-2.453h59.134v7.379h-54.373z" fill="#303030"/><path fill-rule="evenodd" clip-rule="evenodd" d="M277.732 115.13h61.246v9.487h-55.514c-3.166 0-5.732-2.685-5.732-5.998v-3.489zm59.336 7.488v-5.488h-57.425v1.489c0 2.209 1.711 3.999 3.821 3.999h53.604z" fill="#5F6368"/><path d="M336.363 123.563c-2.638 0-4.777-2.205-4.777-4.926v-2.453h86.59v2.453c0 2.721-2.139 4.926-4.777 4.926h-77.036z" fill="#414447"/><path fill-rule="evenodd" clip-rule="evenodd" d="M330.53 115.13h88.702v3.489c0 3.313-2.574 5.998-5.748 5.998h-77.206c-3.174 0-5.748-2.685-5.748-5.998v-3.489zm86.786 3.489v-1.489h-84.87v1.489c0 2.209 1.716 3.999 3.832 3.999h77.206c2.116 0 3.832-1.79 3.832-3.999z" fill="#5F6368"/><path d="M382.925 119.347h-16.088c-.949 0-1.859-.343-2.529-.952-.67-.61-1.045-1.436-1.043-2.297v-.968h23.232v.95c.007.864-.366 1.695-1.036 2.308-.671.614-1.584.959-2.536.959z" fill="#5F6368"/><path fill="#303030" d="M290.404 57.154h70.75v52.706h-70.75z"/><path fill-rule="evenodd" clip-rule="evenodd" d="M289.348 56.1h72.861v54.814h-72.861V56.1zm70.944 52.89V58.023h-69.027v50.967h69.027z" fill="#5F6368"/><rect x="326.307" y="81.399" width="17.951" height="1.054" rx=".527" fill="#5F6368"/><rect x="326.307" y="83.507" width="14.784" height="1.054" rx=".527" fill="#5F6368"/><rect x="160.52" y="48.721" width="55.966" height="78.004" rx="4" fill="#414447"/><path fill-rule="evenodd" clip-rule="evenodd" d="M165.166 47.667h45.618c3.149 0 5.702 2.562 5.702 5.723v68.667c0 3.161-2.553 5.723-5.702 5.723h-45.618c-3.149 0-5.702-2.562-5.702-5.723V53.39c0-3.16 2.553-5.723 5.702-5.723zm49.419 5.722a3.808 3.808 0 0 0-3.801-3.815h-45.618a3.808 3.808 0 0 0-3.802 3.815v68.668a3.808 3.808 0 0 0 3.802 3.815h45.618a3.808 3.808 0 0 0 3.801-3.815V53.389z" fill="#5F6368"/><path fill="#303030" d="M165.8 53.992h44.351v67.463H165.8z"/><path fill-rule="evenodd" clip-rule="evenodd" d="M164.744 53.992h46.462v68.517h-46.462V53.992zm44.526 66.614V55.895h-42.59v64.711h42.59z" fill="#5F6368"/><rect x="137.289" y="67.695" width="32.735" height="59.03" rx="4" fill="#414447"/><path fill-rule="evenodd" clip-rule="evenodd" d="M142.04 66.641h23.231c3.208 0 5.808 2.566 5.808 5.732v49.675c0 3.165-2.6 5.732-5.808 5.732H142.04c-3.207 0-5.808-2.567-5.808-5.732V72.373c0-3.166 2.601-5.732 5.808-5.732zm27.103 5.732c0-2.11-1.733-3.821-3.871-3.821H142.04c-2.138 0-3.872 1.71-3.872 3.821v49.675c0 2.11 1.734 3.821 3.872 3.821h23.232c2.138 0 3.871-1.711 3.871-3.821V72.373z" fill="#5F6368"/><path fill="#5F6368" d="M136.232 76.128h34.847v2.108h-34.847zm0 42.165h34.847v2.108h-34.847z"/><path fill="#303030" d="M138.344 78.237h30.623v40.056h-30.623z"/><rect x="145.736" y="71.912" width="15.839" height="2.108" rx="1" fill="#5F6368"/><rect x="147.848" y="100.373" width="12.672" height="1.054" rx=".527" fill="#5F6368"/><rect x="148.904" y="103.535" width="10.56" height="1.054" rx=".527" fill="#5F6368"/><rect x="181.639" y="83.507" width="12.672" height="1.054" rx=".527" fill="#5F6368"/><rect x="182.695" y="86.669" width="10.56" height="1.054" rx=".527" fill="#5F6368"/><path fill-rule="evenodd" clip-rule="evenodd" d="M148.292 88.135a5.809 5.809 0 0 1 5.374-3.574 5.793 5.793 0 0 1 5.798 5.787 5.798 5.798 0 0 1-3.581 5.365 5.816 5.816 0 0 1-6.334-1.255 5.791 5.791 0 0 1-1.257-6.323zm5.374-1.838a1.735 1.735 0 1 1 1.23 2.964 1.743 1.743 0 0 1-1.896.377 1.736 1.736 0 0 1 .666-3.34zm0 8.222c-1.4.001-2.707-.7-3.479-1.866 0-1.147 2.319-1.776 3.479-1.776 1.16 0 3.469.629 3.479 1.776a4.17 4.17 0 0 1-3.479 1.866zm29.483-26.434a5.807 5.807 0 0 1 5.393-3.552 5.803 5.803 0 0 1 5.769 5.798 5.798 5.798 0 0 1-3.595 5.36 5.815 5.815 0 0 1-6.334-1.275 5.788 5.788 0 0 1-1.233-6.331zm5.393-1.81a1.741 1.741 0 1 1 1.231 2.978 1.747 1.747 0 0 1-2.976-1.245 1.734 1.734 0 0 1 1.745-1.732zm0 8.229a4.162 4.162 0 0 1-3.48-1.87c0-1.152 2.317-1.782 3.48-1.782 1.164 0 3.471.63 3.481 1.782a4.153 4.153 0 0 1-3.481 1.87z" fill="#5F6368"/><path d="M129.626 40.703c-4.229 1.222-7.12 4.922-7.121 9.115 0 .559.477 1.011 1.065 1.011.589 0 1.066-.452 1.066-1.01.001-3.304 2.278-6.22 5.611-7.182 3.333-.963 6.938.252 8.881 2.994l.441.622.755-.22a4.453 4.453 0 0 1 1.222-.175 4.29 4.29 0 0 1 2.948 1.16 3.86 3.86 0 0 1 1.223 2.8c0 .559.477 1.011 1.066 1.011.588 0 1.065-.452 1.065-1.01 0-1.587-.665-3.109-1.847-4.23-1.183-1.123-2.788-1.753-4.46-1.753a6.74 6.74 0 0 0-1.085.093c-2.545-3.072-6.841-4.379-10.83-3.226z" fill="#5F6368"/><path d="M141.604 43.45a5.845 5.845 0 0 0-4.034 1.596.888.888 0 0 0 .002 1.299.998.998 0 0 0 1.363-.002 3.868 3.868 0 0 1 2.669-1.055c.533 0 .964-.412.964-.919 0-.507-.431-.919-.964-.918zm44.229-17.528c-1.67-.002-3.277.627-4.461 1.748-1.184 1.122-1.848 2.645-1.845 4.231.001.558.479 1.01 1.068 1.009.588-.002 1.064-.454 1.063-1.012a3.843 3.843 0 0 1 1.221-2.8 4.286 4.286 0 0 1 2.954-1.156 4.5 4.5 0 0 1 1.225.169l.751.213.438-.617c1.945-2.741 5.552-3.955 8.885-2.99 3.334.963 5.61 3.88 5.607 7.182 0 .558.477 1.01 1.065 1.01.589.001 1.066-.45 1.066-1.009.004-4.191-2.885-7.892-7.116-9.116-3.991-1.154-8.292.152-10.837 3.225a6.727 6.727 0 0 0-1.084-.087z" fill="#5F6368"/><path d="M185.774 28.422a3.816 3.816 0 0 1 2.67 1.053.991.991 0 0 0 1.358.006.89.89 0 0 0 .006-1.299 5.78 5.78 0 0 0-4.046-1.597c-.531.003-.958.417-.955.924.004.508.437.916.967.913zm210.924 30.427c-3.482 0-6.306 2.676-6.306 5.977 0 .558.477 1.01 1.066 1.01.588 0 1.065-.452 1.065-1.01 0-2.185 1.87-3.957 4.177-3.957a4.5 4.5 0 0 1 1.223.168l.751.213.438-.617c1.944-2.74 5.552-3.955 8.885-2.99 3.334.964 5.61 3.88 5.607 7.182 0 .558.477 1.01 1.065 1.011.588 0 1.066-.451 1.066-1.01.004-4.19-2.885-7.891-7.116-9.115-3.991-1.155-8.292.151-10.837 3.224a6.727 6.727 0 0 0-1.084-.086z" fill="#5F6368"/><path d="M396.639 60.294a3.854 3.854 0 0 1 2.652 1.053c.377.36.991.364 1.372.007a.883.883 0 0 0 .008-1.299c-1.063-1.018-2.512-1.593-4.026-1.598-.536-.001-.972.409-.973.916-.002.507.431.92.967.921z" fill="#5F6368"/><rect x="317.178" y="74.461" width="103.485" height="30.569" rx="5.37" fill="#8AB4F8"/><rect x="403.768" y="79.731" width="2.112" height="18.974" rx="1" fill="#F28B82"/><path fill="#5F6368" d="M328.794 88.164h15.839v2.108h-15.839z"/><path d="M333.784 82.454l7.668 13.254-2.075 1.195-7.668-13.253 2.075-1.196z" fill="#5F6368"/><path d="M341.452 83.65l-7.668 13.253-2.076-1.195 7.669-13.254 2.075 1.195zm11.629 4.514h15.839v2.108h-15.839z" fill="#5F6368"/><path d="M358.706 82.45l7.668 13.254-2.075 1.196-7.668-13.254 2.075-1.195z" fill="#5F6368"/><path d="M366.374 83.646L358.706 96.9l-2.075-1.196 7.668-13.253 2.075 1.195zm12.05 4.518h15.839v2.108h-15.839z" fill="#5F6368"/><path d="M383.628 82.457l7.668 13.254-2.075 1.195-7.668-13.253 2.075-1.196z" fill="#5F6368"/><path d="M391.296 83.653l-7.668 13.253-2.075-1.195 7.668-13.254 2.075 1.196z" fill="#5F6368"/><path d="M311.883 128.724c-2.144.314-4.773 3.411-7.199 6.603-2.164 2.851-4.289 5.701-3.881 7.943.824 4.817 9.256 2.214 11.498 1.777l24.354-4.675v-14.546s-5.298-1.729-8.141 0c-2.843 1.73-3.881 6.243-6.481 6.575-2.601.333-6.113-4.256-10.15-3.677z" fill="#FED563"/><path opacity=".1" d="M300.83 144.032l35.825-6.281v-4.26l-34.72 6.664s-1.541 2.703-1.105 3.877z" fill="#231F20"/><path fill-rule="evenodd" clip-rule="evenodd" d="M331.375 130.329c0-8.733 7.092-15.812 15.84-15.812 8.748 0 15.839 7.079 15.839 15.812 0 8.732-7.091 15.811-15.839 15.811-8.748 0-15.84-7.079-15.84-15.811zm17.503.154a3.618 3.618 0 0 0 3.343 2.231 3.613 3.613 0 0 0 2.557-1.052 3.612 3.612 0 0 0-1.166-5.893 3.623 3.623 0 0 0-3.946.777 3.607 3.607 0 0 0-.788 3.937z" fill="#FED563"/><path opacity=".24" fill-rule="evenodd" clip-rule="evenodd" d="M363.054 130.329c0 8.732-7.091 15.811-15.839 15.811v-31.623c8.748 0 15.839 7.079 15.839 15.812zm-14.176.154a3.618 3.618 0 0 0 3.343 2.231 3.613 3.613 0 0 0 2.557-1.052 3.612 3.612 0 0 0-1.166-5.893 3.623 3.623 0 0 0-3.946.777 3.605 3.605 0 0 0-.788 3.937z" fill="#fff"/><path d="M303.809 120.637c0 18.666-15.136 33.798-33.809 33.798s-33.809-15.132-33.809-33.798c0-18.666 15.136-33.799 33.809-33.799s33.809 15.133 33.809 33.799z" fill="#414447" stroke="#5F6368"/></svg>