<svg width="540" height="170" fill="none" xmlns="http://www.w3.org/2000/svg"><g clip-path="url(#a)"><path d="M256.459 44.33c-1.492 2.57-4.268 4.31-7.459 4.31-4.766 0-8.64-3.874-8.64-8.64s3.874-8.64 8.64-8.64c3.191 0 5.967 1.74 7.459 4.31h11.023C265.514 27.278 257.972 21 249 21c-10.463 0-19 8.516-19 19s8.516 19 19 19c8.992 0 16.534-6.278 18.482-14.67h-11.023Z" fill="#4285F4"/><path d="M286.109 34.839h-19v10.36h19v-10.36Z" fill="#FBBC04"/><path d="M305.959 44.328v11.23h-6.9v-3.46a3.466 3.466 0 0 0-3.46-3.46 3.466 3.466 0 0 0-3.46 3.46v3.46h-6.9v-11.23h20.72Z" fill="#34A853"/><path d="M305.959 34.839h-20.72v10.36h20.72v-10.36Z" fill="#188038"/><path d="M267.254 34.839H255.9v.02a8.626 8.626 0 0 1 1.719 5.16 8.626 8.626 0 0 1-1.719 5.159v.02h11.354c.477-1.657.725-3.377.725-5.18 0-1.802-.248-3.522-.725-5.18Z" fill="#EA4335"/><rect x="358.251" y="70.156" width="63.251" height="44.307" rx="3.909" transform="rotate(9.863 358.251 70.156)" fill="#F8F9FA" stroke="#9AA0A6" stroke-width="2"/><rect x="346.281" y="117.801" width="70.513" height="1.052" rx=".526" transform="rotate(9.863 346.281 117.801)" fill="#F8F9FA" stroke="#9AA0A6" stroke-width="1.052"/><rect x="333" y="86.409" width="46.182" height="16.727" rx="8.364" fill="#fff" stroke="#DADCE0" stroke-width="2"/><path d="M341.364 97.93a3.155 3.155 0 1 0 0-6.31 3.155 3.155 0 0 0 0 6.31Zm9.993 0a3.156 3.156 0 1 0 0-6.312 3.156 3.156 0 0 0 0 6.312Zm9.994 0a3.155 3.155 0 1 0 0-6.31 3.155 3.155 0 0 0 0 6.31Zm9.993 0a3.156 3.156 0 1 0 0-6.312 3.156 3.156 0 0 0 0 6.312Z" fill="#4285F4"/><path d="m177.585 70.215 1.835 8.444" stroke="#BDC1C6" stroke-width="2.099" stroke-linecap="round" stroke-linejoin="round"/><path d="m169.906 58.693-19.598 4.258a4.043 4.043 0 0 0-3.093 4.81l11.68 53.757a4.043 4.043 0 0 0 4.809 3.093l19.598-4.258a4.043 4.043 0 0 0 3.093-4.809l-11.68-53.758a4.043 4.043 0 0 0-4.809-3.093Z" stroke="#9AA0A6" stroke-width="2" stroke-miterlimit="10"/><path d="m169.906 58.693-19.598 4.258a4.043 4.043 0 0 0-3.093 4.81l11.68 53.757a4.043 4.043 0 0 0 4.809 3.093l19.598-4.258a4.043 4.043 0 0 0 3.093-4.809l-11.68-53.758a4.043 4.043 0 0 0-4.809-3.093Z" fill="#F8F9FA" stroke="#9AA0A6" stroke-width="2" stroke-miterlimit="10"/><rect x="161.511" y="87.138" width="46.182" height="16.727" rx="8.364" fill="#fff" stroke="#DADCE0" stroke-width="2"/><path d="M169.875 98.658a3.156 3.156 0 1 0 0-6.312 3.156 3.156 0 0 0 0 6.312Zm9.994 0a3.155 3.155 0 1 0 0-6.31 3.155 3.155 0 0 0 0 6.31Zm9.993 0a3.156 3.156 0 1 0 0-6.312 3.156 3.156 0 0 0 0 6.312Zm9.994 0a3.155 3.155 0 1 0 0-6.31 3.155 3.155 0 0 0 0 6.31Z" fill="#4285F4"/><path d="M303.809 120.637c0 18.666-15.136 33.798-33.809 33.798s-33.809-15.132-33.809-33.798c0-18.666 15.136-33.8 33.809-33.8s33.809 15.134 33.809 33.8Z" fill="#fff" stroke="#F1F3F4"/></g><defs><clipPath id="a"><path fill="#fff" d="M0 0h540v170H0z"/></clipPath></defs></svg>