<svg width="303" height="144" viewBox="0 0 303 144" fill="none" xmlns="http://www.w3.org/2000/svg"><rect x="115" y="28" width="74" height="64" rx="3" stroke="#9AA0A6" stroke-width="2"/><path d="M136.333 28A2.667 2.667 0 0 1 139 30.666V32h50" stroke="#9AA0A6" stroke-width="2"/><path fill="#9AA0A6" d="M139 28h49v4h-49z"/><path fill="#5F6368" d="M168 35h18v53h-18z"/><path d="M124 65a6 6 0 0 0 6 6h30a6 6 0 0 0 6-6V49h-36a6 6 0 0 0-6 6v10Z" fill="#8AB4F8"/><path fill="#202123" d="M127.75 64h34.5v2h-34.5z"/><path fill="#80868B" d="M127.75 74h34.5v2h-34.5zM127.75 44h34.5v2h-34.5zM127.75 79h34.5v2h-34.5z"/><path fill="#202123" d="M127.75 54h34.5v2h-34.5zM127.75 59h34.5v2h-34.5z"/><path fill-rule="evenodd" clip-rule="evenodd" d="M190 78.616V89c0 .124-.006.247-.017.368L188 87.385v-8L189.384 78l.616.616Z" fill="#9AA0A6"/><path d="m184.539 80.924 5.385-5.385 29.344 29.345a3 3 0 0 1 0 4.243l-1.142 1.141a2.998 2.998 0 0 1-4.242 0l-29.345-29.344Z" fill="#FDD663"/><path d="m179.692 70.692 10.231 4.847-5.385 5.384-4.846-10.23Z" fill="#FEEFC3"/><path d="m179.693 70.692 4.385 2.077-2.308 2.308-2.077-4.385Z" fill="#9AA0A6"/><path fill="#8AB4F8" d="M170 49h14v2h-14zM170 54h14v2h-14zM170 59h14v2h-14z"/></svg>