<svg xmlns="http://www.w3.org/2000/svg" width="20" height="20" fill="none" viewBox="0 0 20 20"><g clip-path="url(#a)"><path fill="#E1E3E1" d="M9.98 15c.29 0 .54-.104.75-.313.207-.208.312-.458.312-.75a.956.956 0 0 0-.313-.729 1.023 1.023 0 0 0-.75-.312c-.291 0-.541.104-.75.312a.99.99 0 0 0-.291.73c0 .291.097.541.291.75.209.208.459.312.75.312Zm-.793-3.188h1.605c0-.5.048-.86.146-1.083.097-.222.305-.493.624-.812.487-.459.82-.854 1-1.188.195-.333.292-.708.292-1.125 0-.778-.264-1.403-.791-1.875-.514-.486-1.174-.729-1.98-.729-.708 0-1.333.194-1.875.583a2.99 2.99 0 0 0-1.125 1.563l1.459.604c.125-.389.32-.688.583-.896.264-.222.563-.333.896-.333.347 0 .639.104.875.312.236.209.354.48.354.813 0 .305-.104.583-.313.833a8.023 8.023 0 0 1-.687.688c-.472.43-.77.798-.896 1.104-.11.291-.166.805-.166 1.541ZM10 18.168a8.205 8.205 0 0 1-3.188-.625 8.59 8.59 0 0 1-2.604-1.75 8.589 8.589 0 0 1-1.75-2.604A8.204 8.204 0 0 1 1.833 10c0-1.139.209-2.201.625-3.188a8.327 8.327 0 0 1 1.75-2.583 8.112 8.112 0 0 1 2.604-1.75c1-.43 2.063-.646 3.188-.646 1.139 0 2.201.216 3.188.646.986.417 1.847 1 2.583 1.75a7.875 7.875 0 0 1 1.75 2.583c.43.987.646 2.05.646 3.188a7.974 7.974 0 0 1-.646 3.188c-.417.986-1 1.854-1.75 2.604a8.328 8.328 0 0 1-2.584 1.75 8.106 8.106 0 0 1-3.187.625Zm0-1.73c1.792 0 3.313-.625 4.563-1.875 1.25-1.25 1.874-2.77 1.874-4.562 0-1.792-.625-3.313-1.875-4.563-1.25-1.25-2.77-1.875-4.562-1.875-1.792 0-3.313.626-4.563 1.876-1.25 1.25-1.875 2.77-1.875 4.562 0 1.792.626 3.313 1.876 4.563 1.25 1.25 2.77 1.874 4.562 1.874Z"/></g><defs><clipPath id="a"><path fill="#fff" d="M0 0h20v20H0z"/></clipPath></defs></svg>