<svg xmlns="http://www.w3.org/2000/svg" width="20" height="20" viewBox="0 0 20 20"><path fill="#EA4335" d="M6.4 13.21h1.12V9.66L10 11.43l2.46-1.77v3.55h1.05a.7.7 0 0 0 .43-.14.43.43 0 0 0 .18-.37V7.6a.7.7 0 0 0-.27-.57.95.95 0 0 0-.62-.23l-.3.03a.71.71 0 0 0-.26.13l-2.69 2.2-2.61-2.13a1.19 1.19 0 0 0-.29-.16.93.93 0 0 0-.33-.06.91.91 0 0 0-.62.22.7.7 0 0 0-.25.56v5.08c0 .14.05.26.15.37.11.11.23.17.37.17ZM4.93 17c-.54 0-1-.19-1.37-.56A1.86 1.86 0 0 1 3 15.07V4.93c0-.54.19-1 .56-1.37C3.94 3.2 4.4 3 4.93 3h10.14c.54 0 1 .19 1.37.56.37.38.56.83.56 1.37v10.14c0 .54-.19 1-.56 1.37-.38.37-.83.56-1.37.56H4.93Zm0-1.93h10.14V4.93H4.93v10.14Z"/></svg>