<svg xmlns="http://www.w3.org/2000/svg" width="20" height="20" viewBox="0 0 20 20">
  <path fill="#4285F4" d="M5 3h10a2 2 0 012 1.85V15a2 2 0 01-1.85 2H5a2 2 0 01-2-1.85V5a2 2 0 011.85-2H15zm10 2H5v10h2.25l-.08-.23a5.63 5.63 0 01-.26-1.68.6.6 0 01-.51.02c-.56-.2-.43-.9-.23-1.52.17-.52.75-.9 1.03-.97C7.86 8.02 9.4 6 12 6c1.23 0 2.22.43 3 1.15V5zm-3 3.8c-.53 0-.9-1.17-1.34-1.06-1.5.37-2.4 2.48-2.4 4.57 0 1.14.21 2.05.7 2.69H15V9.14l-.1-.18a2.55 2.55 0 00-1.56-1.22c-.48-.11-.81 1.07-1.34 1.07zm.05 2.52l.06.02.85.39a.3.3 0 01.15.39l-.02.04-.03.04-.85.93c-.1.12-.29.13-.4.02h-.02v-.02l-.85-.94a.3.3 0 01.02-.41l.03-.03.04-.03.84-.38a.29.29 0 01.18-.02zm-1.91-1.6c.34 0 .62.29.62.64 0 .35-.28.64-.62.64a.63.63 0 01-.62-.64c0-.35.28-.64.62-.64zm3.72 0c.34 0 .62.29.62.64 0 .35-.28.64-.62.64a.63.63 0 01-.62-.64c0-.35.28-.64.62-.64z"/>
</svg>
