<svg xmlns="http://www.w3.org/2000/svg" height="20px" viewBox="0 -960 960 960" width="20px">
  <path
    d="M219.11-135.87q-33.78 0-58.39-24.61t-24.61-58.39v-522.26q0-34.48 24.61-58.74 24.61-24.26 58.39-24.26h522.02q34.48 0 58.74 24.26 24.26 24.26 24.26 58.74v522.26q0 34.48-24.26 58.74-24.26 24.26-58.74 24.26H219.11Zm0-481.43v398.43h522.02V-617.3H219.11Zm0-72h522.02v-51.83H219.11v51.83ZM480-250.09q2.24 0 7.76-6 14.02-57.08 55.59-98.65 41.56-41.56 98.65-55.58 2-.97 6-7.52 0-2.17-6-7.51-57-15.5-98.24-56.74-41.24-41.24-55.91-98.15 0-1.86-7.85-5.85-1.24 0-7.76 6-14.02 57.09-55.59 98.66-41.56 41.56-98.77 55.58-1.88 0-5.88 7.76 0 1.24 6 7.76 57.09 14.03 98.65 55.59t55.71 98.78q.88 1.87 7.64 5.87Zm-260.89 31.22V-617.3v398.43Z" />
</svg>
