<svg width="242" height="133" viewBox="0 0 242 133" fill="none" xmlns="http://www.w3.org/2000/svg"><path d="M9 46.552c20-12.5 65-20.5 70.5 0 8.935 33.304-48.109 60.005-37.5 75.5 14 20.448 90-75.5 156-56.5 50.5 14.537 37.5 67 37.5 67" stroke="#E8EAED" stroke-width="2"/><path d="M67.557 82.5C76.324 71.725 83.014 59.65 79.5 46.552c-2.101-7.831-9.966-11.503-20-12.355" stroke="#FCC934" stroke-width="2"/><path d="M164.814 64.5c-4.621.868-9.234 2.098-13.814 3.615a133.584 133.584 0 0 0-7 2.541" stroke="#34A853" stroke-width="2"/><path d="M198 65.552c33.058 9.516 38.905 35.283 39 51.948" stroke="#669DF6" stroke-width="2"/><path d="M7.042 103.126a5.931 5.931 0 1 0 8.167 1.916 5.93 5.93 0 0 0-8.167-1.916Z" fill="#FBBC04"/><path d="m236.73 32.564-6.544-2.076a1.484 1.484 0 0 0-1.453.319l-5.071 4.63a1.49 1.49 0 0 0-.45 1.418l1.476 6.707c.113.519.495.937 1.002 1.098l6.545 2.076c.507.16 1.06.04 1.452-.32l5.072-4.63c.391-.36.562-.898.449-1.417l-1.475-6.708a1.484 1.484 0 0 0-1.003-1.097Z" fill="#34A853"/><path d="m143.342 12.326-16.106-1.051a1.175 1.175 0 0 0-1.251 1.097 1.19 1.19 0 0 0 .119.598l7.141 14.476a1.178 1.178 0 0 0 1.575.535c.186-.092.343-.23.458-.402l8.965-13.425a1.17 1.17 0 0 0 .077-1.174 1.178 1.178 0 0 0-.978-.654Zm66.165 90.874c1.552 4.167-1.582 18.675-1.582 18.675s-11.86-8.925-13.412-13.092c-1.552-4.166.547-8.794 4.688-10.336 4.14-1.542 8.755.586 10.306 4.753Z" fill="#E8EAED"/><path d="m189.061 79.814 5.623-2.094 6.74 20.966-3.749 1.396-8.614-20.268Z" fill="#E8EAED"/><path d="M174.67 38.301a2 2 0 1 1 3.748-1.396l14.98 40.227-3.749 1.396L174.67 38.3Z" fill="#fff" stroke="#E8EAED" stroke-width="2"/><path d="M209.894 105.322c.395 5.607-1.969 16.553-1.969 16.553s-4.801-3.612-8.693-7.314a19.218 19.218 0 0 1 1.868-2.92 18.947 18.947 0 0 1 8.794-6.319Z" fill="#FBBC04"/><path d="M56.84 7.068a4.89 4.89 0 0 1 6.7-1.763 4.92 4.92 0 0 1 1.767 6.716l-30.62 52.646-8.467-4.953L56.84 7.068Z" fill="#fff" stroke="#E8EAED" stroke-width="2" stroke-linecap="round" stroke-linejoin="round"/><path d="m24.274 72.805 1.946-13.09 8.453 4.946-10.4 8.144Z" stroke="#E8EAED" stroke-width="2" stroke-linecap="round" stroke-linejoin="round"/><path d="m25.047 67.56-.778 5.237 4.16-3.257-3.382-1.98Z" fill="#E8EAED"/></svg>