<svg width="242" height="132" viewBox="0 0 242 132" fill="none" xmlns="http://www.w3.org/2000/svg"><g clip-path="url(#a)"><path d="M8.436 46.19c20-12.5 65-20.5 70.5 0 8.935 33.304-48.109 60.005-37.5 75.5 14 20.448 90-75.5 156-56.5 50.5 14.538 37.5 67 37.5 67" stroke="#E8EAED" stroke-width="2"/><path d="M66.993 82.138C75.76 71.363 82.45 59.288 78.936 46.19c-2.1-7.831-9.966-11.503-20-12.354" stroke="#FCC934" stroke-width="2"/><path d="M164.25 64.138c-4.621.868-9.233 2.098-13.814 3.615a133.584 133.584 0 0 0-7 2.542" stroke="#34A853" stroke-width="2"/><path d="M197.436 65.19c33.058 9.516 38.905 35.284 39.001 51.948" stroke="#669DF6" stroke-width="2"/><path d="M6.478 102.764a5.932 5.932 0 1 0 6.25 10.083 5.932 5.932 0 0 0-6.25-10.083Z" fill="#FBBC04"/><path d="m236.166 32.202-6.544-2.076a1.482 1.482 0 0 0-1.452.32l-5.072 4.63a1.492 1.492 0 0 0-.45 1.417l1.476 6.707c.113.52.495.937 1.003 1.098l6.544 2.076c.507.16 1.06.04 1.452-.32l5.072-4.63a1.49 1.49 0 0 0 .449-1.417l-1.475-6.707a1.482 1.482 0 0 0-1.003-1.098Z" fill="#34A853"/><path d="m142.778 11.965-16.105-1.052a1.176 1.176 0 0 0-1.132 1.695l7.14 14.476a1.172 1.172 0 0 0 .978.654 1.18 1.18 0 0 0 1.055-.52l8.966-13.426a1.178 1.178 0 0 0-.902-1.827Zm66.166 90.873c1.551 4.167-1.583 18.676-1.583 18.676s-11.86-8.926-13.412-13.092c-1.551-4.167.547-8.795 4.688-10.337 4.141-1.542 8.755.586 10.307 4.753Z" fill="#E8EAED"/><path d="m188.497 79.452 5.623-2.094 6.74 20.966-3.748 1.396-8.615-20.268Z" fill="#E8EAED"/><path d="m177.855 36.543 14.979 40.227-3.748 1.396-14.98-40.227a2 2 0 0 1 3.749-1.396Z" fill="#fff" stroke="#E8EAED" stroke-width="2"/><path d="M209.33 104.96c.396 5.607-1.969 16.554-1.969 16.554s-4.801-3.613-8.693-7.315a19.16 19.16 0 0 1 1.868-2.919 18.942 18.942 0 0 1 8.794-6.32Z" fill="#FBBC04"/><path d="M56.277 6.706a4.89 4.89 0 0 1 6.698-1.763v0a4.92 4.92 0 0 1 1.768 6.716l-30.62 52.646-8.467-4.953 30.62-52.646Z" fill="#fff" stroke="#E8EAED" stroke-width="2" stroke-linecap="round" stroke-linejoin="round"/><path d="m23.71 72.443 1.947-13.09 8.452 4.947-10.399 8.143Z" stroke="#E8EAED" stroke-width="2" stroke-linecap="round" stroke-linejoin="round"/><path d="m24.483 67.199-.778 5.236 4.16-3.257-3.382-1.98Z" fill="#E8EAED"/></g><defs><clipPath id="a"><path fill="#fff" d="M0 0h242v132H0z"/></clipPath></defs></svg>