<svg width="242" height="132" viewBox="0 0 242 132" fill="none" xmlns="http://www.w3.org/2000/svg"><g clip-path="url(#a)"><path d="M8.436 46.38c20-12.5 65-20.5 70.5 0 8.935 33.304-48.109 60.004-37.5 75.5 14 20.448 90-75.5 156-56.5 50.5 14.537 37.5 67 37.5 67" stroke="#5F6368" stroke-width="2"/><path d="M66.993 82.328C75.76 71.553 82.45 59.478 78.936 46.38c-2.1-7.831-9.966-11.504-20-12.355" stroke="#FDD663" stroke-width="2"/><path d="M164.25 64.328c-4.621.868-9.233 2.098-13.814 3.614a133.585 133.585 0 0 0-7 2.542" stroke="#34A853" stroke-width="2"/><path d="M197.436 65.38c33.058 9.516 38.905 35.283 39.001 51.948" stroke="#669DF6" stroke-width="2"/><path d="M6.478 102.954a5.931 5.931 0 1 0 8.167 1.916 5.93 5.93 0 0 0-8.167-1.916Z" fill="#FDD663"/><path d="m228.97 31.512.003-.002a.294.294 0 0 1 .29-.062l6.544 2.075a.294.294 0 0 1 .201.219l.001.003 1.475 6.704a.303.303 0 0 1-.091.29h-.001l-5.07 4.628-.002.002a.294.294 0 0 1-.29.063l-6.544-2.077a.295.295 0 0 1-.202-.218v-.003l-1.475-6.704a.302.302 0 0 1 .091-.29h.001l5.069-4.628Z" fill="#81C995" stroke="#81C995" stroke-width="2.375"/><path d="m142.778 12.154-16.105-1.051a1.177 1.177 0 0 0-1.132 1.695l7.14 14.476a1.172 1.172 0 0 0 .978.654 1.182 1.182 0 0 0 1.055-.521l8.966-13.425a1.179 1.179 0 0 0-.902-1.828Z" fill="#5F6368"/><path d="M208.678 103.127c.366.983.466 2.62.39 4.566-.075 1.932-.32 4.126-.614 6.195a122.856 122.856 0 0 1-1.278 7.318l-.155-.119a121.748 121.748 0 0 1-5.598-4.581c-1.576-1.373-3.196-2.872-4.517-4.285-1.329-1.422-2.325-2.725-2.691-3.708-1.498-4.022.528-8.486 4.521-9.973 3.992-1.486 8.445.565 9.942 4.587Z" fill="#5F6368" stroke="#5F6368" stroke-width=".566"/><path d="m197.266 99.55-8.392-19.746 5.067-1.887 6.567 20.426-3.242 1.207Z" fill="#5F6368" stroke="#5F6368" stroke-width=".566"/><path d="M174.106 38.129a2 2 0 0 1 3.749-1.396l14.979 40.227-3.748 1.396-14.98-40.227Z" fill="#3C4043" stroke="#5F6368" stroke-width="2"/><path d="M209.33 105.15c.396 5.607-1.969 16.553-1.969 16.553s-4.801-3.612-8.693-7.314a19.218 19.218 0 0 1 1.868-2.92 18.94 18.94 0 0 1 8.794-6.319Z" fill="#FDD663"/><path d="M56.277 6.896a4.89 4.89 0 0 1 6.698-1.763 4.92 4.92 0 0 1 1.768 6.716l-30.62 52.646-8.467-4.953 30.62-52.646ZM23.71 72.633l1.947-13.09 8.452 4.946-10.399 8.144Z" fill="#3C4043" stroke="#5F6368" stroke-width="2" stroke-linecap="round" stroke-linejoin="round"/><path d="m24.483 67.389-.778 5.236 4.16-3.257-3.382-1.98Z" fill="#5F6368"/></g><defs><clipPath id="a"><path fill="#fff" d="M0 0h242v132H0z"/></clipPath></defs></svg>