<?xml version="1.0" encoding="UTF-8"?>
<!--Generator: Apple Native CoreSVG 232.5-->
<!DOCTYPE svg
PUBLIC "-//W3C//DTD SVG 1.1//EN"
       "http://www.w3.org/Graphics/SVG/1.1/DTD/svg11.dtd">
<svg version="1.1" xmlns="http://www.w3.org/2000/svg" xmlns:xlink="http://www.w3.org/1999/xlink" width="3300" height="2200">
 <!--glyph: "", point size: 100.0, font version: "19.0d7e1", template writer version: "128"-->
 <style>.multicolor-0:tintColor {}

.hierarchical-0:primary {}

.SFSymbolsPreview007AFF {fill:#007AFF;opacity:1.0}
</style>
 <g id="Notes">
  <rect height="2200" id="artboard" style="fill:white;opacity:1" width="3300" x="0" y="0"/>
  <line style="fill:none;stroke:black;opacity:1;stroke-width:0.5;" x1="263" x2="3036" y1="292" y2="292"/>
  <text style="stroke:none;fill:black;font-family:sans-serif;font-size:13;font-weight:bold;" transform="matrix(1 0 0 1 263 322)">Weight/Scale Variations</text>
  <text style="stroke:none;fill:black;font-family:sans-serif;font-size:13;text-anchor:middle;" transform="matrix(1 0 0 1 559.711 322)">Ultralight</text>
  <text style="stroke:none;fill:black;font-family:sans-serif;font-size:13;text-anchor:middle;" transform="matrix(1 0 0 1 856.422 322)">Thin</text>
  <text style="stroke:none;fill:black;font-family:sans-serif;font-size:13;text-anchor:middle;" transform="matrix(1 0 0 1 1153.13 322)">Light</text>
  <text style="stroke:none;fill:black;font-family:sans-serif;font-size:13;text-anchor:middle;" transform="matrix(1 0 0 1 1449.84 322)">Regular</text>
  <text style="stroke:none;fill:black;font-family:sans-serif;font-size:13;text-anchor:middle;" transform="matrix(1 0 0 1 1746.56 322)">Medium</text>
  <text style="stroke:none;fill:black;font-family:sans-serif;font-size:13;text-anchor:middle;" transform="matrix(1 0 0 1 2043.27 322)">Semibold</text>
  <text style="stroke:none;fill:black;font-family:sans-serif;font-size:13;text-anchor:middle;" transform="matrix(1 0 0 1 2339.98 322)">Bold</text>
  <text style="stroke:none;fill:black;font-family:sans-serif;font-size:13;text-anchor:middle;" transform="matrix(1 0 0 1 2636.69 322)">Heavy</text>
  <text style="stroke:none;fill:black;font-family:sans-serif;font-size:13;text-anchor:middle;" transform="matrix(1 0 0 1 2933.4 322)">Black</text>
  <line style="fill:none;stroke:black;opacity:1;stroke-width:0.5;" x1="263" x2="3036" y1="1903" y2="1903"/>
  <g transform="matrix(0.2 0 0 0.2 263 1933)">
   <path d="m46.2402 4.15039c21.5332 0 39.4531-17.8711 39.4531-39.4043s-17.9688-39.4043-39.502-39.4043c-21.4844 0-39.3555 17.8711-39.3555 39.4043s17.9199 39.4043 39.4043 39.4043Zm0-7.42188c-17.7246 0-31.8848-14.209-31.8848-31.9824s14.1113-31.9824 31.8359-31.9824c17.7734 0 32.0312 14.209 32.0312 31.9824s-14.209 31.9824-31.9824 31.9824Zm-17.9688-31.9824c0 2.14844 1.51367 3.61328 3.75977 3.61328h10.498v10.5957c0 2.19727 1.46484 3.71094 3.61328 3.71094 2.24609 0 3.71094-1.51367 3.71094-3.71094v-10.5957h10.5957c2.19727 0 3.71094-1.46484 3.71094-3.61328 0-2.19727-1.51367-3.71094-3.71094-3.71094h-10.5957v-10.5469c0-2.24609-1.46484-3.75977-3.71094-3.75977-2.14844 0-3.61328 1.51367-3.61328 3.75977v10.5469h-10.498c-2.24609 0-3.75977 1.51367-3.75977 3.71094Z"/>
  </g>
  <g transform="matrix(0.2 0 0 0.2 281.506 1933)">
   <path d="m58.5449 14.5508c27.2461 0 49.8047-22.6074 49.8047-49.8047 0-27.2461-22.6074-49.8047-49.8535-49.8047-27.1973 0-49.7559 22.5586-49.7559 49.8047 0 27.1973 22.6074 49.8047 49.8047 49.8047Zm0-8.30078c-23.0469 0-41.4551-18.457-41.4551-41.5039s18.3594-41.5039 41.4062-41.5039 41.5527 18.457 41.5527 41.5039-18.457 41.5039-41.5039 41.5039Zm-22.6562-41.5039c0 2.39258 1.66016 4.00391 4.15039 4.00391h14.3555v14.4043c0 2.44141 1.66016 4.15039 4.05273 4.15039 2.44141 0 4.15039-1.66016 4.15039-4.15039v-14.4043h14.4043c2.44141 0 4.15039-1.61133 4.15039-4.00391 0-2.44141-1.70898-4.15039-4.15039-4.15039h-14.4043v-14.3555c0-2.49023-1.70898-4.19922-4.15039-4.19922-2.39258 0-4.05273 1.70898-4.05273 4.19922v14.3555h-14.3555c-2.49023 0-4.15039 1.70898-4.15039 4.15039Z"/>
  </g>
  <g transform="matrix(0.2 0 0 0.2 304.924 1933)">
   <path d="m74.8535 28.3203c34.8145 0 63.623-28.8086 63.623-63.5742 0-34.8145-28.8574-63.623-63.6719-63.623-34.7656 0-63.5254 28.8086-63.5254 63.623 0 34.7656 28.8086 63.5742 63.5742 63.5742Zm0-9.08203c-30.1758 0-54.4434-24.3164-54.4434-54.4922 0-30.2246 24.2188-54.4922 54.3945-54.4922 30.2246 0 54.541 24.2676 54.541 54.4922 0 30.1758-24.2676 54.4922-54.4922 54.4922Zm-28.8574-54.4922c0 2.58789 1.85547 4.39453 4.58984 4.39453h19.7266v19.7754c0 2.68555 1.85547 4.58984 4.44336 4.58984 2.68555 0 4.54102-1.85547 4.54102-4.58984v-19.7754h19.7754c2.68555 0 4.58984-1.80664 4.58984-4.39453 0-2.73438-1.85547-4.58984-4.58984-4.58984h-19.7754v-19.7266c0-2.73438-1.85547-4.63867-4.54102-4.63867-2.58789 0-4.44336 1.9043-4.44336 4.63867v19.7266h-19.7266c-2.73438 0-4.58984 1.85547-4.58984 4.58984Z"/>
  </g>
  <text style="stroke:none;fill:black;font-family:sans-serif;font-size:13;font-weight:bold;" transform="matrix(1 0 0 1 263 1953)">Design Variations</text>
  <text style="stroke:none;fill:black;font-family:sans-serif;font-size:13;" transform="matrix(1 0 0 1 263 1971)">Symbols are supported in up to nine weights and three scales.</text>
  <text style="stroke:none;fill:black;font-family:sans-serif;font-size:13;" transform="matrix(1 0 0 1 263 1989)">For optimal layout with text and other symbols, vertically align</text>
  <text style="stroke:none;fill:black;font-family:sans-serif;font-size:13;" transform="matrix(1 0 0 1 263 2007)">symbols with the adjacent text.</text>
  <line style="fill:none;stroke:#00AEEF;stroke-width:0.5;opacity:1.0;" x1="776" x2="776" y1="1919" y2="1933"/>
  <g transform="matrix(0.2 0 0 0.2 776 1933)">
   <path d="m16.5527 0.78125c2.58789 0 3.85742-0.976562 4.78516-3.71094l6.29883-17.2363h28.8086l6.29883 17.2363c0.927734 2.73438 2.19727 3.71094 4.73633 3.71094 2.58789 0 4.24805-1.5625 4.24805-4.00391 0-0.830078-0.146484-1.61133-0.537109-2.63672l-22.9004-60.9863c-1.12305-2.97852-3.125-4.49219-6.25-4.49219-3.02734 0-5.07812 1.46484-6.15234 4.44336l-22.9004 61.084c-0.390625 1.02539-0.537109 1.80664-0.537109 2.63672 0 2.44141 1.5625 3.95508 4.10156 3.95508Zm13.4766-28.3691 11.8652-32.8613h0.244141l11.8652 32.8613Z"/>
  </g>
  <line style="fill:none;stroke:#00AEEF;stroke-width:0.5;opacity:1.0;" x1="792.836" x2="792.836" y1="1919" y2="1933"/>
  <text style="stroke:none;fill:black;font-family:sans-serif;font-size:13;font-weight:bold;" transform="matrix(1 0 0 1 776 1953)">Margins</text>
  <text style="stroke:none;fill:black;font-family:sans-serif;font-size:13;" transform="matrix(1 0 0 1 776 1971)">Leading and trailing margins on the left and right side of each symbol</text>
  <text style="stroke:none;fill:black;font-family:sans-serif;font-size:13;" transform="matrix(1 0 0 1 776 1989)">can be adjusted by modifying the x-location of the margin guidelines.</text>
  <text style="stroke:none;fill:black;font-family:sans-serif;font-size:13;" transform="matrix(1 0 0 1 776 2007)">Modifications are automatically applied proportionally to all</text>
  <text style="stroke:none;fill:black;font-family:sans-serif;font-size:13;" transform="matrix(1 0 0 1 776 2025)">scales and weights.</text>
  <g transform="matrix(0.2 0 0 0.2 1289 1933)">
   <path d="m14.209 9.32617 8.49609 8.54492c4.29688 4.3457 9.22852 4.05273 13.8672-1.07422l53.4668-58.9355-4.83398-4.88281-53.0762 58.3984c-1.75781 2.00195-3.41797 2.49023-5.76172 0.146484l-5.85938-5.81055c-2.34375-2.29492-1.80664-4.00391 0.195312-5.81055l57.373-54.0039-4.88281-4.83398-57.959 54.4434c-4.93164 4.58984-5.32227 9.47266-1.02539 13.8184Zm32.0801-90.9668c-2.09961 2.05078-2.24609 4.93164-1.07422 6.88477 1.17188 1.80664 3.4668 2.97852 6.68945 2.14844 7.32422-1.70898 14.9414-2.00195 22.0703 2.68555l-2.92969 7.27539c-1.70898 4.15039-0.830078 7.08008 1.85547 9.81445l11.4746 11.5723c2.44141 2.44141 4.49219 2.53906 7.32422 2.05078l5.32227-0.976562 3.32031 3.36914-0.195312 2.7832c-0.195312 2.49023 0.439453 4.39453 2.88086 6.78711l3.80859 3.71094c2.39258 2.39258 5.46875 2.53906 7.8125 0.195312l14.5508-14.5996c2.34375-2.34375 2.24609-5.32227-0.146484-7.71484l-3.85742-3.80859c-2.39258-2.39258-4.24805-3.17383-6.64062-2.97852l-2.88086 0.244141-3.22266-3.17383 1.2207-5.61523c0.634766-2.83203-0.146484-5.0293-3.07617-7.95898l-10.9863-10.9375c-16.6992-16.6016-38.8672-16.2109-53.3203-1.75781Zm7.4707 1.85547c12.1582-8.88672 28.6133-7.37305 39.7461 3.75977l12.1582 12.0605c1.17188 1.17188 1.36719 2.09961 1.02539 3.80859l-1.61133 7.42188 7.51953 7.42188 4.93164-0.292969c1.26953-0.0488281 1.66016 0.0488281 2.63672 1.02539l2.88086 2.88086-12.207 12.207-2.88086-2.88086c-0.976562-0.976562-1.12305-1.36719-1.07422-2.68555l0.341797-4.88281-7.4707-7.42188-7.61719 1.26953c-1.61133 0.341797-2.34375 0.195312-3.56445-0.976562l-10.0098-10.0098c-1.26953-1.17188-1.41602-2.00195-0.634766-3.85742l4.39453-10.4492c-7.8125-7.27539-17.9688-10.4004-28.125-7.42188-0.78125 0.195312-1.07422-0.439453-0.439453-0.976562Z"/>
  </g>
  <text style="stroke:none;fill:black;font-family:sans-serif;font-size:13;font-weight:bold;" transform="matrix(1 0 0 1 1289 1953)">Exporting</text>
  <text style="stroke:none;fill:black;font-family:sans-serif;font-size:13;" transform="matrix(1 0 0 1 1289 1971)">Symbols should be outlined when exporting to ensure the</text>
  <text style="stroke:none;fill:black;font-family:sans-serif;font-size:13;" transform="matrix(1 0 0 1 1289 1989)">design is preserved when submitting to Xcode.</text>
  <text id="template-version" style="stroke:none;fill:black;font-family:sans-serif;font-size:13;text-anchor:end;" transform="matrix(1 0 0 1 3036 1933)">Template v.3.0</text>
  <text style="stroke:none;fill:black;font-family:sans-serif;font-size:13;text-anchor:end;" transform="matrix(1 0 0 1 3036 1951)">Requires Xcode 13 or greater</text>
  <text id="descriptive-name" style="stroke:none;fill:black;font-family:sans-serif;font-size:13;text-anchor:end;" transform="matrix(1 0 0 1 3036 1969)">Generated from line.uptrend.cr</text>
  <text style="stroke:none;fill:black;font-family:sans-serif;font-size:13;text-anchor:end;" transform="matrix(1 0 0 1 3036 1987)">Typeset at 100.0 points</text>
  <text style="stroke:none;fill:black;font-family:sans-serif;font-size:13;" transform="matrix(1 0 0 1 263 726)">Small</text>
  <text style="stroke:none;fill:black;font-family:sans-serif;font-size:13;" transform="matrix(1 0 0 1 263 1156)">Medium</text>
  <text style="stroke:none;fill:black;font-family:sans-serif;font-size:13;" transform="matrix(1 0 0 1 263 1586)">Large</text>
 </g>
 <g id="Guides">
  <g id="H-reference" style="fill:#27AAE1;stroke:none;" transform="matrix(1 0 0 1 339 696)">
   <path d="M0.993654 0L3.63775 0L29.3281-67.1323L30.0303-67.1323L30.0303-70.459L28.1226-70.459ZM11.6885-24.4799L46.9815-24.4799L46.2315-26.7285L12.4385-26.7285ZM55.1196 0L57.7637 0L30.6382-70.459L29.4326-70.459L29.4326-67.1323Z"/>
  </g>
  <line id="Baseline-S" style="fill:none;stroke:#27AAE1;opacity:1;stroke-width:0.5;" x1="263" x2="3036" y1="696" y2="696"/>
  <line id="Capline-S" style="fill:none;stroke:#27AAE1;opacity:1;stroke-width:0.5;" x1="263" x2="3036" y1="625.541" y2="625.541"/>
  <g id="H-reference" style="fill:#27AAE1;stroke:none;" transform="matrix(1 0 0 1 339 1126)">
   <path d="M0.993654 0L3.63775 0L29.3281-67.1323L30.0303-67.1323L30.0303-70.459L28.1226-70.459ZM11.6885-24.4799L46.9815-24.4799L46.2315-26.7285L12.4385-26.7285ZM55.1196 0L57.7637 0L30.6382-70.459L29.4326-70.459L29.4326-67.1323Z"/>
  </g>
  <line id="Baseline-M" style="fill:none;stroke:#27AAE1;opacity:1;stroke-width:0.5;" x1="263" x2="3036" y1="1126" y2="1126"/>
  <line id="Capline-M" style="fill:none;stroke:#27AAE1;opacity:1;stroke-width:0.5;" x1="263" x2="3036" y1="1055.54" y2="1055.54"/>
  <g id="H-reference" style="fill:#27AAE1;stroke:none;" transform="matrix(1 0 0 1 339 1556)">
   <path d="M0.993654 0L3.63775 0L29.3281-67.1323L30.0303-67.1323L30.0303-70.459L28.1226-70.459ZM11.6885-24.4799L46.9815-24.4799L46.2315-26.7285L12.4385-26.7285ZM55.1196 0L57.7637 0L30.6382-70.459L29.4326-70.459L29.4326-67.1323Z"/>
  </g>
  <line id="Baseline-L" style="fill:none;stroke:#27AAE1;opacity:1;stroke-width:0.5;" x1="263" x2="3036" y1="1556" y2="1556"/>
  <line id="Capline-L" style="fill:none;stroke:#27AAE1;opacity:1;stroke-width:0.5;" x1="263" x2="3036" y1="1485.54" y2="1485.54"/>
  <line id="left-margin-Regular-M" style="fill:none;stroke:#00AEEF;stroke-width:0.5;opacity:1.0;" x1="1395.63" x2="1395.63" y1="1030.79" y2="1150.12"/>
  <line id="right-margin-Regular-M" style="fill:none;stroke:#00AEEF;stroke-width:0.5;opacity:1.0;" x1="1504.06" x2="1504.06" y1="1030.79" y2="1150.12"/>
 </g>
 <g id="Symbols">
  <g id="Black-L" transform="matrix(1 0 0 1 2862.19 1556)">
   <path class="multicolor-0:tintColor hierarchical-0:primary SFSymbolsPreview007AFF" d="M17.4775 4.64C13.9675 8.15 8.2675 8.15 4.7575 4.64C1.2375 1.12 1.2375-4.58 4.7575-8.09L43.5575-46.89C49.4175-52.75 58.9075-52.75 64.7675-46.89L79.5975-32.06L110.527-63L95.8975-63C91.2075-63 87.3975-66.8 87.3975-71.5C87.3975-76.19 91.2075-80 95.8975-80L131.117-80C135.808-80 139.617-76.19 139.617-71.5L139.617-36.28C139.617-31.59 135.808-27.78 131.117-27.78C126.427-27.78 122.617-31.59 122.617-36.28L122.617-49.63L90.2075-17.21C84.3475-11.36 74.8475-11.36 68.9875-17.21L54.1575-32.04L17.4775 4.64Z"/>
  </g>
  <g id="Heavy-L" transform="matrix(1 0 0 1 2566.48 1556)">
   <path class="multicolor-0:tintColor hierarchical-0:primary SFSymbolsPreview007AFF" d="M15.7775 3.02C12.6475 6.15 7.5875 6.15 4.4575 3.02C1.3375-0.1 1.3375-5.17 4.4575-8.29L43.4975-47.33C48.9675-52.79 57.8275-52.79 63.2975-47.33L78.9675-31.65L111.317-64L96.0175-64C91.8775-64 88.5175-67.35 88.5175-71.5C88.5175-75.64 91.8775-79 96.0175-79L130.117-79C134.257-79 137.617-75.64 137.617-71.5L137.617-37.4C137.617-33.26 134.257-29.9 130.117-29.9C125.978-29.9 122.617-33.26 122.617-37.4L122.617-52.67L88.8675-18.92C83.3975-13.46 74.5375-13.46 69.0675-18.92L53.3975-34.6L15.7775 3.02Z"/>
  </g>
  <g id="Bold-L" transform="matrix(1 0 0 1 2270.27 1556)">
   <path class="multicolor-0:tintColor hierarchical-0:primary SFSymbolsPreview007AFF" d="M14.915 1.74C11.985 4.67 7.245 4.67 4.315 1.74C1.385-1.19 1.385-5.94 4.315-8.87L43.585-48.14C48.855-53.41 57.405-53.41 62.675-48.14L78.845-31.97L111.375-64.5L96.645-64.5C92.785-64.5 89.645-67.63 89.645-71.5C89.645-75.36 92.785-78.5 96.645-78.5L129.615-78.5C133.485-78.5 136.615-75.36 136.615-71.5L136.615-38.53C136.615-34.67 133.485-31.53 129.615-31.53C125.745-31.53 122.615-34.67 122.615-38.53L122.615-54.53L88.395-20.3C83.115-15.03 74.575-15.03 69.295-20.3L53.135-36.47L14.915 1.74Z"/>
  </g>
  <g id="Semibold-L" transform="matrix(1 0 0 1 1974.05 1556)">
   <path class="multicolor-0:tintColor hierarchical-0:primary SFSymbolsPreview007AFF" d="M14.065 1.39C11.335 4.12 6.895 4.12 4.165 1.39C1.435-1.35 1.435-5.78 4.165-8.51L43.435-47.79C48.515-52.86 56.745-52.86 61.825-47.79L78.345-31.26L112.075-65L96.145-65C92.555-65 89.645-67.91 89.645-71.5C89.645-75.09 92.555-78 96.145-78L129.115-78C132.705-78 135.615-75.09 135.615-71.5L135.615-38.53C135.615-34.94 132.705-32.03 129.115-32.03C125.525-32.03 122.615-34.94 122.615-38.53L122.615-55.73L87.535-20.66C82.465-15.58 74.235-15.58 69.155-20.66L52.635-37.18L14.065 1.39Z"/>
  </g>
  <g id="Medium-L" transform="matrix(1 0 0 1 1678.09 1556)">
   <path class="multicolor-0:tintColor hierarchical-0:primary SFSymbolsPreview007AFF" d="M12.7875 0.86C10.3475 3.3 6.3875 3.3 3.9475 0.86C1.5075-1.58 1.5075-5.54 3.9475-7.98L43.2175-47.26C48.0075-52.04 55.7575-52.04 60.5475-47.26L77.5975-30.2L113.147-65.75L95.3975-65.75C92.2275-65.75 89.6475-68.32 89.6475-71.5C89.6475-74.67 92.2275-77.25 95.3975-77.25L128.367-77.25C131.547-77.25 134.117-74.67 134.117-71.5L134.117-38.53C134.117-35.36 131.547-32.78 128.367-32.78C125.187-32.78 122.617-35.36 122.617-38.53L122.617-57.55L86.2575-21.19C81.4775-16.4 73.7175-16.4 68.9375-21.19L51.8875-38.24L12.7875 0.86Z"/>
  </g>
  <g id="Regular-L" transform="matrix(1 0 0 1 1381.63 1556)">
   <path class="multicolor-0:tintColor hierarchical-0:primary SFSymbolsPreview007AFF" d="M12.308 0.47C9.92801 2.78 6.12801 2.73 3.81801 0.36C1.50801-2.02 1.55801-5.81 3.92801-8.13L43.488-46.66C48.148-51.2 55.578-51.2 60.238-46.66L77.718-29.64L114.018-65L95.228-65C92.188-65 89.728-67.46 89.728-70.5C89.728-73.54 92.188-76 95.228-76L128.118-76C131.158-76 133.618-73.54 133.618-70.5L133.618-37.61C133.618-34.57 131.158-32.11 128.118-32.11C125.078-32.11 122.618-34.57 122.618-37.61L122.618-56.62L86.088-21.04C81.428-16.5 73.998-16.5 69.338-21.04L51.868-38.06L12.308 0.47Z"/>
  </g>
  <g id="Light-L" transform="matrix(1 0 0 1 1085.17 1556)">
   <path class="multicolor-0:tintColor hierarchical-0:primary SFSymbolsPreview007AFF" d="M11.9375 0.5C9.6875 2.75 6.0475 2.75 3.7975 0.5C1.5575-1.74 1.5575-5.38 3.7975-7.63L43.0775-46.9C47.6675-51.49 55.1075-51.49 59.6875-46.9L76.9175-29.67C77.0175-29.58 77.1775-29.58 77.2775-29.67L113.847-66.25L94.8975-66.25C91.9975-66.25 89.6475-68.6 89.6475-71.5C89.6475-74.4 91.9975-76.75 94.8975-76.75L127.867-76.75C130.767-76.75 133.117-74.4 133.117-71.5L133.117-38.53C133.117-35.63 130.767-33.28 127.867-33.28C124.967-33.28 122.617-35.63 122.617-38.53L122.617-58.75L85.4075-21.54C80.8175-16.95 73.3775-16.95 68.7875-21.54L51.5575-38.77C51.4675-38.87 51.3075-38.87 51.2075-38.77L11.9375 0.5Z"/>
  </g>
  <g id="Thin-L" transform="matrix(1 0 0 1 789.208 1556)">
   <path class="multicolor-0:tintColor hierarchical-0:primary SFSymbolsPreview007AFF" d="M10.6535-0.03C8.7005 1.93 5.5345 1.93 3.5815-0.03C1.6295-1.98 1.6295-5.15 3.5815-7.1L42.8555-46.37C47.1515-50.67 54.1165-50.67 58.4125-46.37L75.6415-29.14C76.0315-28.75 76.6645-28.75 77.0555-29.14L114.91-67L94.1505-67C91.6655-67 89.6505-69.01 89.6505-71.5C89.6505-73.98 91.6655-76 94.1505-76L127.117-76C129.603-76 131.617-73.98 131.617-71.5L131.617-38.53C131.617-36.05 129.603-34.03 127.117-34.03C124.632-34.03 122.617-36.05 122.617-38.53L122.617-60.56L84.1265-22.07C79.8305-17.78 72.8655-17.78 68.5705-22.07L51.3415-39.3C50.9505-39.69 50.3175-39.69 49.9265-39.3L10.6535-0.03Z"/>
  </g>
  <g id="Ultralight-L" transform="matrix(1 0 0 1 493.747 1556)">
   <path class="multicolor-0:tintColor hierarchical-0:primary SFSymbolsPreview007AFF" d="M8.09275-0.31C6.72575 1.05 4.50975 1.05 3.14275-0.31C1.77575-1.68 1.77575-3.9 3.14275-5.26L42.4167-44.54C46.1267-48.25 52.1417-48.25 55.8517-44.54L73.0807-27.31C74.0567-26.33 75.6397-26.33 76.6167-27.31L116.806-67.5L92.6507-67.5C90.7177-67.5 89.1507-69.07 89.1507-71C89.1507-72.93 90.7177-74.5 92.6507-74.5L125.618-74.5C127.551-74.5 129.118-72.93 129.118-71L129.118-38.03C129.118-36.1 127.551-34.53 125.618-34.53C123.685-34.53 122.118-36.1 122.118-38.03L122.118-62.91L81.5657-22.36C77.8557-18.65 71.8407-18.65 68.1307-22.36L50.9017-39.59C49.9257-40.56 48.3427-40.56 47.3667-39.59L8.09275-0.31Z"/>
  </g>
  <g id="Black-M" transform="matrix(1 0 0 1 2875.69 1126)">
   <path class="multicolor-0:tintColor hierarchical-0:primary SFSymbolsPreview007AFF" d="M16.6275-0.83C13.3075 2.49 7.9275 2.49 4.6075-0.83C1.2875-4.14 1.2875-9.53 4.6075-12.85L34.7875-43.03C40.0575-48.3 48.6075-48.3 53.8775-43.03L64.2575-32.65L85.1075-53.5L77.0275-53.5C72.6075-53.5 69.0275-57.08 69.0275-61.5C69.0275-65.92 72.6075-69.5 77.0275-69.5L104.617-69.5C109.037-69.5 112.617-65.92 112.617-61.5L112.617-33.91C112.617-29.5 109.037-25.91 104.617-25.91C100.197-25.91 96.6175-29.5 96.6175-33.91L96.6175-40.97L73.8075-18.15C68.5375-12.88 59.9875-12.88 54.7175-18.15L44.3375-28.53L16.6275-0.83Z"/>
  </g>
  <g id="Heavy-M" transform="matrix(1 0 0 1 2579.98 1126)">
   <path class="multicolor-0:tintColor hierarchical-0:primary SFSymbolsPreview007AFF" d="M14.915-1.26C11.985 1.67 7.245 1.67 4.315-1.26C1.385-4.19 1.385-8.94 4.315-11.87L34.675-42.23C39.555-47.11 47.475-47.11 52.355-42.23L63.545-31.04L86.015-53.5L76.905-53.5C73.035-53.5 69.905-56.63 69.905-60.5C69.905-64.37 73.035-67.5 76.905-67.5L103.615-67.5C107.485-67.5 110.615-64.37 110.615-60.5L110.615-33.79C110.615-29.92 107.485-26.79 103.615-26.79C99.745-26.79 96.615-29.92 96.615-33.79L96.615-42.89L72.385-18.66C67.505-13.78 59.595-13.78 54.715-18.66L43.515-29.86L14.915-1.26Z"/>
  </g>
  <g id="Bold-M" transform="matrix(1 0 0 1 2283.77 1126)">
   <path class="multicolor-0:tintColor hierarchical-0:primary SFSymbolsPreview007AFF" d="M14.065-2.36C11.335 0.37 6.895 0.37 4.165-2.36C1.435-5.1 1.435-9.53 4.165-12.26L34.715-42.81C39.405-47.5 47.005-47.5 51.685-42.81L63.345-31.16L86.195-54L77.295-54C73.705-54 70.795-56.91 70.795-60.5C70.795-64.09 73.705-67 77.295-67L103.115-67C106.705-67 109.615-64.09 109.615-60.5L109.615-34.68C109.615-31.09 106.705-28.18 103.115-28.18C99.525-28.18 96.615-31.09 96.615-34.68L96.615-44.63L71.835-19.84C67.145-15.16 59.545-15.16 54.865-19.84L43.205-31.5L14.065-2.36Z"/>
  </g>
  <g id="Semibold-M" transform="matrix(1 0 0 1 1987.55 1126)">
   <path class="multicolor-0:tintColor hierarchical-0:primary SFSymbolsPreview007AFF" d="M13.215-4.72C10.675-2.18 6.555-2.18 4.015-4.72C1.485-7.25 1.485-11.37 4.015-13.91L34.575-44.46C39.065-48.95 46.345-48.95 50.835-44.46L62.845-32.45L86.895-56.5L76.795-56.5C73.475-56.5 70.795-59.19 70.795-62.5C70.795-65.82 73.475-68.5 76.795-68.5L102.615-68.5C105.925-68.5 108.615-65.82 108.615-62.5L108.615-36.68C108.615-33.37 105.925-30.68 102.615-30.68C99.305-30.68 96.615-33.37 96.615-36.68L96.615-47.83L70.975-22.2C66.485-17.71 59.205-17.71 54.715-22.2L42.705-34.21L13.215-4.72Z"/>
  </g>
  <g id="Medium-M" transform="matrix(1 0 0 1 1692.09 1126)">
   <path class="multicolor-0:tintColor hierarchical-0:primary SFSymbolsPreview007AFF" d="M11.075-5.6C9.025-3.55 5.705-3.55 3.655-5.6C1.605-7.65 1.605-10.97 3.655-13.02L34.205-43.58C38.205-47.58 44.695-47.58 48.705-43.58L61.595-30.68L88.665-57.75L75.545-57.75C72.915-57.75 70.795-59.88 70.795-62.5C70.795-65.13 72.915-67.25 75.545-67.25L101.365-67.25C103.985-67.25 106.115-65.13 106.115-62.5L106.115-36.68C106.115-34.06 103.985-31.93 101.365-31.93C98.745-31.93 96.615-34.06 96.615-36.68L96.615-50.85L68.845-23.08C64.845-19.08 58.355-19.08 54.345-23.08L41.455-35.98L11.075-5.6Z"/>
  </g>
  <g id="Regular-M" transform="matrix(1 0 0 1 1395.63 1126)">
   <path class="multicolor-0:tintColor hierarchical-0:primary SFSymbolsPreview007AFF" d="M10.66-6.53C8.7-4.57 5.54-4.57 3.58-6.53C1.63-8.48 1.63-11.65 3.58-13.6L34.14-44.15C38.04-48.06 44.37-48.06 48.28-44.15L61.35-31.08L89.03-58.75L75.3-58.75C72.81-58.75 70.8-60.77 70.8-63.25C70.8-65.74 72.81-67.75 75.3-67.75L101.12-67.75C103.61-67.75 105.62-65.74 105.62-63.25L105.62-37.43C105.62-34.94 103.61-32.93 101.12-32.93C98.63-32.93 96.62-34.94 96.62-37.43L96.62-52.21L68.42-24.01C64.52-20.1 58.18-20.1 54.28-24.01L41.21-37.08L10.66-6.53Z"/>
  </g>
  <g id="Light-M" transform="matrix(1 0 0 1 1098.67 1126)">
   <path class="multicolor-0:tintColor hierarchical-0:primary SFSymbolsPreview007AFF" d="M11.075-5.6C9.025-3.55 5.705-3.55 3.655-5.6C1.605-7.65 1.605-10.97 3.655-13.02L34.205-43.58C38.205-47.58 44.695-47.58 48.705-43.58L61.595-30.68L88.665-57.75L75.545-57.75C72.915-57.75 70.795-59.88 70.795-62.5C70.795-65.13 72.915-67.25 75.545-67.25L101.365-67.25C103.985-67.25 106.115-65.13 106.115-62.5L106.115-36.68C106.115-34.06 103.985-31.93 101.365-31.93C98.745-31.93 96.615-34.06 96.615-36.68L96.615-50.85L68.845-23.08C64.845-19.08 58.355-19.08 54.345-23.08L41.455-35.98L11.075-5.6Z"/>
  </g>
  <g id="Thin-M" transform="matrix(1 0 0 1 802.709 1126)">
   <path class="multicolor-0:tintColor hierarchical-0:primary SFSymbolsPreview007AFF" d="M9.79925-6.13C8.04225-4.37 5.19225-4.37 3.43525-6.13C1.67825-7.89 1.67825-10.74 3.43525-12.49L33.9872-43.05C37.6972-46.76 43.7122-46.76 47.4222-43.05L60.4942-29.98C60.6892-29.78 61.0062-29.78 61.2012-29.98L89.7302-58.5L74.7932-58.5C72.5842-58.5 70.7932-60.29 70.7932-62.5C70.7932-64.71 72.5842-66.5 74.7932-66.5L100.617-66.5C102.826-66.5 104.617-64.71 104.617-62.5L104.617-36.68C104.617-34.47 102.826-32.68 100.617-32.68C98.4082-32.68 96.6172-34.47 96.6172-36.68L96.6172-52.66L67.5652-23.61C63.8552-19.9 57.8402-19.9 54.1302-23.61L41.0582-36.68C40.8632-36.88 40.5472-36.88 40.3512-36.68L9.79925-6.13Z"/>
  </g>
  <g id="Ultralight-M" transform="matrix(1 0 0 1 507.247 1126)">
   <path class="multicolor-0:tintColor hierarchical-0:primary SFSymbolsPreview007AFF" d="M7.2385-5.42C6.0675-4.25 4.1675-4.25 2.9965-5.42C1.8245-6.59 1.8245-8.49 2.9965-9.66L33.5485-40.21C36.6725-43.34 41.7385-43.34 44.8625-40.21L57.9345-27.14C58.7155-26.36 59.9815-26.36 60.7625-27.14L91.6255-58L73.2935-58C71.6365-58 70.2935-59.35 70.2935-61C70.2935-62.66 71.6365-64 73.2935-64L99.1175-64C100.774-64 102.117-62.66 102.117-61L102.117-35.18C102.117-33.52 100.774-32.18 99.1175-32.18C97.4605-32.18 96.1175-33.52 96.1175-35.18L96.1175-54.01L65.0055-22.9C61.8805-19.77 56.8155-19.77 53.6915-22.9L40.6195-35.97C39.8385-36.75 38.5725-36.75 37.7915-35.97L7.2385-5.42Z"/>
  </g>
  <g id="Black-S" transform="matrix(1 0 0 1 2875.69 696)">
   <path class="multicolor-0:tintColor hierarchical-0:primary SFSymbolsPreview007AFF" d="M16.6275-2.826C13.3075 0.494 7.9275 0.494 4.6075-2.826C1.2875-6.145 1.2875-11.527 4.6075-14.846L36.2075-46.442C40.6975-50.933 47.9775-50.933 52.4675-46.442L64.2575-34.65L85.1075-55.501L77.0275-55.501C72.6075-55.501 69.0275-59.083 69.0275-63.501C69.0275-67.919 72.6075-71.501 77.0275-71.501L104.617-71.501C109.037-71.501 112.617-67.919 112.617-63.501L112.617-35.914C112.617-31.496 109.037-27.914 104.617-27.914C100.197-27.914 96.6175-31.496 96.6175-35.914L96.6175-42.967L72.3875-18.74C67.8975-14.249 60.6175-14.249 56.1275-18.74L44.3375-30.533L16.6275-2.826Z"/>
  </g>
  <g id="Heavy-S" transform="matrix(1 0 0 1 2589.48 696)">
   <path class="multicolor-0:tintColor hierarchical-0:primary SFSymbolsPreview007AFF" d="M14.915-9.158C11.985-6.229 7.245-6.229 4.315-9.158C1.385-12.087 1.385-16.835 4.315-19.764L29.235-44.692C33.345-48.793 39.985-48.793 44.085-44.692L52.645-36.133L67.015-50.499L63.305-50.499C59.435-50.499 56.305-53.633 56.305-57.499C56.305-61.365 59.435-64.499 63.305-64.499L84.615-64.499C88.485-64.499 91.615-61.365 91.615-57.499L91.615-36.188C91.615-32.322 88.485-29.188 84.615-29.188C80.745-29.188 77.615-32.322 77.615-36.188L77.615-39.887L60.075-22.345C55.975-18.244 49.325-18.244 45.225-22.345L36.665-30.904L14.915-9.158Z"/>
  </g>
  <g id="Bold-S" transform="matrix(1 0 0 1 2293.27 696)">
   <path class="multicolor-0:tintColor hierarchical-0:primary SFSymbolsPreview007AFF" d="M14.065-10.113C11.335-7.379 6.895-7.379 4.165-10.113C1.435-12.846 1.435-17.279 4.165-20.012L29.245-45.089C33.145-48.994 39.475-48.994 43.385-45.089L52.385-36.088L67.295-51.003L63.515-51.003C59.925-51.003 57.015-53.913 57.015-57.503C57.015-61.093 59.925-64.003 63.515-64.003L84.115-64.003C87.705-64.003 90.615-61.093 90.615-57.503L90.615-36.898C90.615-33.309 87.705-30.398 84.115-30.398C80.525-30.398 77.615-33.309 77.615-36.898L77.615-41.52L59.455-23.36C55.555-19.455 49.215-19.455 45.315-23.36L36.315-32.361L14.065-10.113Z"/>
  </g>
  <g id="Semibold-S" transform="matrix(1 0 0 1 1997.05 696)">
   <path class="multicolor-0:tintColor hierarchical-0:primary SFSymbolsPreview007AFF" d="M13.215-10.466C10.675-7.928 6.555-7.928 4.015-10.466C1.485-13.005 1.485-17.12 4.015-19.659L29.095-44.735C32.805-48.445 38.825-48.445 42.535-44.735L51.885-35.381L68.005-51.503L63.015-51.503C59.695-51.503 57.015-54.189 57.015-57.503C57.015-60.817 59.695-63.503 63.015-63.503L83.615-63.503C86.925-63.503 89.615-60.817 89.615-57.503L89.615-36.898C89.615-33.585 86.925-30.898 83.615-30.898C80.305-30.898 77.615-33.585 77.615-36.898L77.615-42.727L58.605-23.714C54.895-20.004 48.875-20.004 45.165-23.714L35.815-33.068L13.215-10.466Z"/>
  </g>
  <g id="Medium-S" transform="matrix(1 0 0 1 1701.09 696)">
   <path class="multicolor-0:tintColor hierarchical-0:primary SFSymbolsPreview007AFF" d="M11.9375-10.997C9.6875-8.751 6.0475-8.751 3.7975-10.997C1.5575-13.242 1.5575-16.883 3.7975-19.128L28.8775-44.205C32.2975-47.622 37.8375-47.622 41.2575-44.205L51.1375-34.321L69.0675-52.253L62.2675-52.253C59.3675-52.253 57.0175-54.603 57.0175-57.503C57.0175-60.402 59.3675-62.753 62.2675-62.753L82.8675-62.753C85.7675-62.753 88.1175-60.402 88.1175-57.503L88.1175-36.898C88.1175-33.999 85.7675-31.648 82.8675-31.648C79.9675-31.648 77.6175-33.999 77.6175-36.898L77.6175-44.538L57.3275-24.244C53.9075-20.827 48.3675-20.827 44.9475-24.244L35.0675-34.129L11.9375-10.997Z"/>
  </g>
  <g id="Regular-S" transform="matrix(1 0 0 1 1404.63 696)">
   <path class="multicolor-0:tintColor hierarchical-0:primary SFSymbolsPreview007AFF" d="M11.51-11.173C9.36-9.026 5.88-9.026 3.73-11.173C1.58-13.321 1.58-16.804 3.73-18.952L28.81-44.028C32.13-47.348 37.51-47.348 40.83-44.028L50.89-33.967L69.42-52.503L62.02-52.503C59.25-52.503 57.02-54.741 57.02-57.503C57.02-60.264 59.25-62.503 62.02-62.503L82.62-62.503C85.38-62.503 87.62-60.264 87.62-57.503L87.62-36.898C87.62-34.137 85.38-31.898 82.62-31.898C79.86-31.898 77.62-34.137 77.62-36.898L77.62-45.141L56.9-24.421C53.58-21.102 48.2-21.102 44.88-24.421L34.82-34.482L11.51-11.173Z"/>
  </g>
  <g id="Light-S" transform="matrix(1 0 0 1 1108.17 696)">
   <path class="multicolor-0:tintColor hierarchical-0:primary SFSymbolsPreview007AFF" d="M11.075-11.35C9.025-9.3 5.705-9.3 3.655-11.35C1.605-13.4 1.605-16.725 3.655-18.775L28.725-43.851C31.955-47.073 37.175-47.073 40.395-43.851L50.635-33.613L69.775-52.753L61.765-52.753C59.135-52.753 57.015-54.879 57.015-57.503C57.015-60.126 59.135-62.253 61.765-62.253L82.365-62.253C84.985-62.253 87.115-60.126 87.115-57.503L87.115-36.898C87.115-34.275 84.985-32.148 82.365-32.148C79.745-32.148 77.615-34.275 77.615-36.898L77.615-45.745L56.465-24.598C53.245-21.376 48.025-21.376 44.805-24.598L34.565-34.836L11.075-11.35Z"/>
  </g>
  <g id="Thin-S" transform="matrix(1 0 0 1 812.209 696)">
   <path class="multicolor-0:tintColor hierarchical-0:primary SFSymbolsPreview007AFF" d="M9.79925-11.881C8.04225-10.123 5.19225-10.123 3.43525-11.881C1.67825-13.638 1.67825-16.487 3.43525-18.244L28.5112-43.321C31.4402-46.25 36.1892-46.25 39.1182-43.321L49.8862-32.553L70.8362-53.503L61.0132-53.503C58.8032-53.503 57.0132-55.294 57.0132-57.503C57.0132-59.712 58.8032-61.503 61.0132-61.503L81.6172-61.503C83.8262-61.503 85.6172-59.712 85.6172-57.503L85.6172-36.898C85.6172-34.689 83.8262-32.898 81.6172-32.898C79.4082-32.898 77.6172-34.689 77.6172-36.898L77.6172-47.556L55.1902-25.128C52.2612-22.199 47.5122-22.199 44.5832-25.128L33.8152-35.896L9.79925-11.881Z"/>
  </g>
  <g id="Ultralight-S" transform="matrix(1 0 0 1 516.747 696)">
   <path class="multicolor-0:tintColor hierarchical-0:primary SFSymbolsPreview007AFF" d="M7.2385-12.222C6.0675-11.051 4.1675-11.051 2.9965-12.222C1.8245-13.394 1.8245-15.293 2.9965-16.465L28.0725-41.542C30.4155-43.885 34.2145-43.885 36.5575-41.542L48.3865-29.713L72.6765-54.003L59.5135-54.003C57.8565-54.003 56.5135-55.346 56.5135-57.003C56.5135-58.66 57.8565-60.003 59.5135-60.003L80.1175-60.003C81.7745-60.003 83.1175-58.66 83.1175-57.003L83.1175-36.398C83.1175-34.742 81.7745-33.398 80.1175-33.398C78.4605-33.398 77.1175-34.742 77.1175-36.398L77.1175-49.958L52.6295-25.47C50.2865-23.127 46.4875-23.127 44.1445-25.47L32.3155-37.299L7.2385-12.222Z"/>
  </g>
 </g>
</svg>
