<svg width="1024" height="1024" viewBox="0 0 1024 1024" fill="none" xmlns="http://www.w3.org/2000/svg">
<path d="M409.531 689.485C378.343 671.524 352.463 645.632 334.517 614.436L334.495 614.448L156.96 306.948C120.991 369.28 102.058 439.979 102.063 511.944C102.067 583.91 121.01 654.606 156.988 716.933C192.965 779.259 244.711 831.021 307.027 867.018C369.342 903.014 440.033 921.978 511.999 922.005L689.567 614.45C676.106 637.764 658.185 658.199 636.828 674.587C615.47 690.976 591.093 702.997 565.089 709.965C539.085 716.933 511.964 718.71 485.273 715.196C458.582 711.682 432.845 702.946 409.531 689.485V689.485Z" fill="#669DF6" style="fill:#669DF6;fill:color(display-p3 0.4000 0.6157 0.9647);fill-opacity:1;"/>
</svg>
