<svg xmlns="http://www.w3.org/2000/svg" width="360" height="100" fill="none" viewBox="0 0 360 100"><path fill="#BDC1C6" d="M153.58 88H205c.55 0 1 .45 1 1v7c0 .55-.45 1-1 1h-51.42"/><path stroke="#BDC1C6" stroke-linejoin="round" stroke-width="2" d="M153.58 88H205c.55 0 1 .45 1 1v7c0 .55-.45 1-1 1h-51.42"/><path fill="#fff" stroke="#BDC1C6" stroke-linejoin="round" stroke-width="2" d="M153 88h19.3c1.1 0 2 .9 2 2v5c0 1.1-.9 2-2 2H153v-9Z"/><path stroke="#BDC1C6" stroke-linejoin="round" stroke-width="2" d="M172.39 97h-22.47m0-9h22.47"/><path fill="#4285F4" d="M205.87 70H158c-1.1 0-2 .9-2 2v12c0 1.1.9 2 2 2h47.87"/><path stroke="#4285F4" stroke-linejoin="round" stroke-width="2" d="M205.87 70H158c-1.1 0-2 .9-2 2v12c0 1.1.9 2 2 2h47.87"/><path fill="#E8EAED" d="M207.1 86h-21.43c-1.66 0-3-1.34-3-3V73c0-1.66 1.34-3 3-3h21.43v16Z"/><path stroke="#4285F4" stroke-linejoin="round" stroke-width="2" d="M209 70h-23.34c-1.66 0-3 1.34-3 3v10c0 1.66 1.34 3 3 3H209"/><path stroke="#BDC1C6" stroke-linejoin="round" stroke-width="2" d="M192 56v12m2.999 0h-37.97c-3.31 0-6-2.69-6-6s2.69-6 6-6h37.97"/><path fill="#BDC1C6" stroke="#BDC1C6" stroke-linejoin="round" stroke-width="2" d="m193.257 39.997-4.261 2.46 14.745 25.54 4.261-2.46-14.745-25.54Z"/><path stroke="#fff" stroke-miterlimit="10" stroke-width="2" d="m194.811 47.61 7.37 12.78"/><path stroke="#FBBC04" stroke-linejoin="round" stroke-width="2" d="M166 55V33.91"/><path fill="#FBBC04" stroke="#FBBC04" stroke-linejoin="round" stroke-width="2" d="M175 32h-9v8h9v-8Zm7 3.82h-7V44h7v-8.18Z"/></svg>