<svg xmlns="http://www.w3.org/2000/svg" width="300" height="100" fill="none" viewBox="0 0 300 100"><g clip-path="url(#a)"><path d="M0 0h300v100H0z"/><path fill="#E8EAED" stroke="#E8EAED" stroke-width="2" d="M66.73 85.79c.64-1.05 1.91-1.05 2.55 0l8.73 14.27h-20l8.73-14.27h-.01Z"/><path fill="#E8EAED" stroke="#E8EAED" stroke-width="2" d="M82.11 89.63c.45-.77 1.33-.77 1.78 0L90 100.06H76l6.11-10.43Z"/><path stroke="#E8EAED" stroke-width="2" d="M58 100h186"/><path fill="#E8EAED" d="M244 99.03h-35c3.73-5.44 10.17-9.03 17.5-9.03s13.77 3.59 17.5 9.03Z"/><path fill="#AECBFA" fill-rule="evenodd" d="M38.97 61c-5.81 0-10.84 3.29-13.32 8.12v.01c-.02 0-.03 0-.05-.01A7.933 7.933 0 0 0 16.03 76h37.94c0-8.29-6.71-15-15-15Zm232.269-22c-1.32 0-2.59.19-3.8.55-.35.1-.69.24-1.03.37a16.965 16.965 0 0 0-15.45-9.92c-5.7 0-10.75 2.81-13.83 7.12-.25.35-.49.71-.72 1.08-.16-.03-.32-.07-.48-.09-.49-.07-1-.11-1.52-.11-5.62 0-10.21 4.44-10.45 10h59.99c-1.84-5.24-6.85-9-12.73-9h.02Z" clip-rule="evenodd"/><path fill="#BDC1C6" d="M124.58 89H176c.55 0 1 .45 1 1v7c0 .55-.45 1-1 1h-51.42"/><path stroke="#BDC1C6" stroke-linejoin="round" stroke-width="2" d="M124.58 89H176c.55 0 1 .45 1 1v7c0 .55-.45 1-1 1h-51.42"/><path fill="#fff" stroke="#BDC1C6" stroke-linejoin="round" stroke-width="2" d="M124 89h19.3c1.1 0 2 .9 2 2v5c0 1.1-.9 2-2 2H124v-9Z"/><path stroke="#BDC1C6" stroke-linejoin="round" stroke-width="2" d="M143.39 98h-22.47m0-9h22.47"/><path fill="#4285F4" d="M176.87 71H129c-1.1 0-2 .9-2 2v12c0 1.1.9 2 2 2h47.87"/><path stroke="#4285F4" stroke-linejoin="round" stroke-width="2" d="M176.87 71H129c-1.1 0-2 .9-2 2v12c0 1.1.9 2 2 2h47.87"/><path fill="#E8EAED" d="M178.1 87h-21.43c-1.66 0-3-1.34-3-3V74c0-1.66 1.34-3 3-3h21.43v16Z"/><path stroke="#4285F4" stroke-linejoin="round" stroke-width="2" d="M180 71h-23.34c-1.66 0-3 1.34-3 3v10c0 1.66 1.34 3 3 3H180"/><path stroke="#BDC1C6" stroke-linejoin="round" stroke-width="2" d="M163 57v12m2.999 0h-37.97c-3.31 0-6-2.69-6-6s2.69-6 6-6h37.97"/><path fill="#BDC1C6" stroke="#BDC1C6" stroke-linejoin="round" stroke-width="2" d="m164.257 40.997-4.261 2.46 14.745 25.54 4.261-2.46-14.745-25.54Z"/><path stroke="#fff" stroke-miterlimit="10" stroke-width="2" d="m165.811 48.61 7.37 12.78"/><path stroke="#FBBC04" stroke-linejoin="round" stroke-width="2" d="M137 56V34.91"/><path fill="#FBBC04" stroke="#FBBC04" stroke-linejoin="round" stroke-width="2" d="M146 33h-9v8h9v-8Zm7 3.82h-7V45h7v-8.18Z"/></g><defs><clipPath id="a"><path fill="#fff" d="M0 0h300v100H0z"/></clipPath></defs></svg>