<svg width="48" height="48" viewBox="0 0 48 48" fill="none" xmlns="http://www.w3.org/2000/svg"><g clip-path="url(#a)"><path d="M24 48c13.255 0 24-10.745 24-24S37.255 0 24 0 0 10.745 0 24s10.745 24 24 24z" fill="#E8EAED"/><path d="M24 44c5.523 0 10-1.567 10-3.5S29.523 37 24 37s-10 1.567-10 3.5S18.477 44 24 44z" fill="#80868B"/><path d="M28.95 19.155 16.156 31.95l-.55-.55a.857.857 0 0 1 0-1.212L27.19 18.606a.857.857 0 0 1 1.212 0l.55.55z" fill="#80868B" stroke="#80868B" stroke-width=".858" stroke-linecap="round" stroke-linejoin="round"/><path d="m20.976 27.13 7.974-7.974 9.167 9.166a.858.858 0 0 1 0 1.213L26.535 41.117a.857.857 0 0 1-1.213 0L15.606 31.4a.857.857 0 0 1 0-1.213l3.374-3.373a.857.857 0 0 1 1.212 0l.55.549.234-.234z" fill="#fff" stroke="#80868B" stroke-linecap="round" stroke-linejoin="round"/><path d="m32.638 28.178-7.677 7.677.626.626 7.677-7.677-.627-.626zm-3.755-3.754L21.206 32.1l3.134 3.135 7.677-7.677-3.134-3.134z" fill="#AECBFA"/><path fill-rule="evenodd" clip-rule="evenodd" d="M19.075 10.475v-.225a.6.6 0 0 0-.675-.675h-.225a.225.225 0 0 1-.225-.225v-.9A.45.45 0 0 0 17.5 8a4.501 4.501 0 0 0-4.493 4.742 4.53 4.53 0 0 0 4.25 4.252A4.501 4.501 0 0 0 22 12.5v-.45a.45.45 0 0 0-.45-.45h-.9a.225.225 0 0 1-.225-.226v-.224a.607.607 0 0 0-.675-.675h-.675zm-4.368 2.237a.676.676 0 1 1-.262-1.326.676.676 0 0 1 .262 1.326zm.78-2.33a.676.676 0 1 1 1.327-.263.676.676 0 0 1-1.326.263zm1.695 5.48a.677.677 0 0 1-.61-1.14.676.676 0 1 1 .61 1.14zm.093-2.462a.675.675 0 1 1 0-1.35.675.675 0 0 1 0 1.35zm2.25.9a.675.675 0 1 1 0-1.351.675.675 0 0 1 0 1.35z" fill="#80868B"/><path d="M28 9v6m10 6v4M22 6v3" stroke="#fff"/></g><defs><clipPath id="a"><path fill="#fff" d="M0 0h48v48H0z"/></clipPath></defs></svg>