<svg width="360" height="100" viewBox="0 0 360 100" fill="none" xmlns="http://www.w3.org/2000/svg"><circle cx="182.964" cy="42.278" r="1.542" transform="rotate(-90 182.964 42.278)" fill="#BDC1C6"/><circle cx="188.765" cy="47.712" r="1.542" transform="rotate(-90 188.765 47.712)" fill="#BDC1C6"/><circle cx="191.47" cy="39.539" r="1.542" transform="rotate(-90 191.47 39.539)" fill="#BDC1C6"/><circle cx="194.47" cy="32.539" r="1.542" transform="rotate(-90 194.47 32.539)" fill="#BDC1C6"/><path d="M188.281 26.376c.215-.01.432-.016.65-.016 7.083 0 12.825 5.742 12.825 12.826 0 7.083-5.742 12.825-12.825 12.825-6.507 0-11.882-4.845-12.714-11.123a5.234 5.234 0 0 0 2.333-1.775.625.625 0 0 1 .599-.218 5.218 5.218 0 0 0 6.098-6.904c-.103-.275.03-.635.197-.748a6.501 6.501 0 0 0 2.837-4.867z" stroke="#FDD663" stroke-width="2"/><rect x="155" y="53.997" width="50" height="43" rx="2" stroke="#BDC1C6" stroke-width="2"/><path d="M169 53.997a2 2 0 0 1 2 2v1h34" stroke="#BDC1C6" stroke-width="2"/><path fill="#BDC1C6" d="M171 54.997h33v2h-33z"/><path fill="#1E8E3E" d="M165 67.997h30v12h-30zm0 16h15v2h-15z"/></svg>