<svg width="360" height="100" viewBox="0 0 360 100" fill="none" xmlns="http://www.w3.org/2000/svg"><path d="M206.144 58.686H156v-2.153a2.374 2.374 0 0 1 2.376-2.376h45.392a2.377 2.377 0 0 1 2.376 2.376v2.153z" fill="#BDC1C6" stroke="#BDC1C6" stroke-width="2" stroke-linecap="round" stroke-linejoin="round"/><path d="M174.891 58.686h31.253v35.925a2.379 2.379 0 0 1-2.376 2.376h-45.392A2.375 2.375 0 0 1 156 94.61V56.533a2.374 2.374 0 0 1 2.376-2.376h13.221a2.377 2.377 0 0 1 2.376 2.376v2.152l.918.001z" fill="#fff" stroke="#BDC1C6" stroke-width="2" stroke-linecap="round" stroke-linejoin="round"/><path d="M196.086 83.592H166v2.455h30.086v-2.455zm0-15.578H166v12.284h30.086V68.013z" fill="#81C995"/><circle cx="184.036" cy="42.281" r="1.542" transform="rotate(-90 184.036 42.28)" fill="#BDC1C6"/><circle cx="189.837" cy="47.715" r="1.542" transform="rotate(-90 189.837 47.715)" fill="#BDC1C6"/><circle cx="192.542" cy="39.542" r="1.542" transform="rotate(-90 192.542 39.542)" fill="#BDC1C6"/><circle cx="195.542" cy="32.542" r="1.542" transform="rotate(-90 195.542 32.542)" fill="#BDC1C6"/><path d="M189.353 26.38c.215-.011.432-.017.649-.017 7.084 0 12.826 5.742 12.826 12.826 0 7.083-5.742 12.825-12.826 12.825-6.506 0-11.881-4.845-12.713-11.123a5.234 5.234 0 0 0 2.333-1.775.625.625 0 0 1 .599-.218 5.218 5.218 0 0 0 6.098-6.904c-.103-.275.03-.634.197-.748a6.504 6.504 0 0 0 2.837-4.867z" stroke="#FBBC04" stroke-width="2"/></svg>