<svg width="354" height="153" xmlns="http://www.w3.org/2000/svg" xmlns:xlink="http://www.w3.org/1999/xlink" viewBox="0 0 354 153"><defs><linearGradient id="a" x1="60.74" y1="-852.078" x2="60.74" y2="-866.453" gradientTransform="matrix(1 0 0 -1 204 -814.267)" gradientUnits="userSpaceOnUse"><stop offset="0" stop-color="#174ea6"/><stop offset="1" stop-color="#174ea6" stop-opacity="0"/></linearGradient><linearGradient id="b" x1="-84.025" y1="-864.279" x2="-84.025" y2="-901.245" xlink:href="#a"/></defs><path d="M303.38 52.187H226.1s4.912-6.432 12.441-7.813a19.294 19.294 0 0 1 13.737 3.021s7.576-10.43 21.197-10.43 29.905 15.222 29.905 15.222z" fill="url(#a)"/><path d="M29.088 86.978h181.773s-6.531-17.077-28.3-21.2-33.274 9.564-33.274 9.564-20.06-27.504-57.068-27.504c-46.94 0-63.13 39.14-63.13 39.14z" fill="url(#b)"/><path d="M170.094 38.992l5.585-14.59a1.348 1.348 0 0 1 1.259-.866 1.347 1.347 0 0 1 1.348 1.347v11.459a5.346 5.346 0 0 1-2.113 4.254l-4.658 3.536z" fill="#885945"/><path d="M140.394 151.361h19.32a1.37 1.37 0 0 0 1.31-.969 1.37 1.37 0 0 0-.541-1.536l-7.556-5.103z" fill="#1c5cb9"/><path d="M95.537 114.642l2.144 19.18a1.372 1.372 0 0 0 2.578.484l4.238-8.067z" fill="#2168d0"/><path d="M141.172 42.319l1.503 1.09a.638.638 0 0 1 .182.83.633.633 0 0 1-.21.224l-1.16.75z" fill="#885945"/><path d="M141.69 49.925l-8.072 3.367-4.557-8.174a5.205 5.205 0 0 1 3.468-7.625l3.425-.727a3.746 3.746 0 0 1 4.345 2.517l2.582 8.042a2.103 2.103 0 0 1-1.19 2.6z" fill="#885945"/><path d="M130.75 48.149l1.827 3.43 3.518 6.608 4.457-.811-3.53-9.175z" fill="#885945"/><path d="M132.529 37.493l3.425-.727a3.734 3.734 0 0 1 3.099.735 15.988 15.988 0 0 1-6.904 13.157l-3.088-5.54a5.205 5.205 0 0 1 3.468-7.625z" fill="#3c4043"/><path d="M125.987 43.468a3.878 3.878 0 1 0-3.882-3.878 3.88 3.88 0 0 0 3.882 3.878z" fill="#3c4043"/><path d="M136.895 47.203a1.392 1.392 0 1 0-1.394-1.392 1.393 1.393 0 0 0 1.394 1.392z" fill="#885945"/><path d="M136.502 91.83l10.386 32.564v26.966" fill="none" stroke="#1c5cb9" stroke-linejoin="round" stroke-width="12.977"/><path d="M132.08 86.57l-10.485 31.514-25.356 2.974" fill="none" stroke="#2168d0" stroke-linejoin="round" stroke-width="12.977"/><path d="M121.459 97.913l23.655-.424-.631-1.994-21.221-3.252z" fill="#174ea6"/><path d="M170.094 38.992l5.585-14.59a1.348 1.348 0 0 1 1.259-.866 1.347 1.347 0 0 1 1.348 1.347v11.459a5.346 5.346 0 0 1-2.113 4.254l-4.658 3.536zm-67.8 59.132l-.296 5.433a.816.816 0 0 1-1.344.575.807.807 0 0 1-.276-.491l-.964-6.042z" fill="#885945"/><path d="M97.298 94.966l-7.114 5.47 3.07 3.553 9.04-5.47z" fill="#885945"/><path d="M138.448 54.71l2.292-.514 29.646-21.456 7.608 10.512-31.766 22.99 2.065 29.91-28.11-4.303 3.849-21.07a22.842 22.842 0 0 0-2.714 1.788c-5.094 3.9-9.15 10.318-12.014 16.308a79.244 79.244 0 0 0-3.105 7.457c-.34.949-.588 1.707-.75 2.216-.08.253-.137.444-.173.564l-.037.127-.005.016c0-.001 0-.002-6.243-1.766s-6.244-1.765-6.244-1.766l.004-.012.006-.022.02-.067.064-.22c.055-.183.133-.44.235-.763.204-.646.504-1.558.902-2.673a92.466 92.466 0 0 1 3.619-8.69c3.172-6.632 8.308-15.251 15.83-21.012a37.373 37.373 0 0 1 19.735-7.457 40.735 40.735 0 0 1 5.286-.098z" fill="#ff7f74" fill-rule="evenodd"/><path d="M141.753 45.91l-1.997.72s.625 1.827 1.759 1.35c.932-.391.238-2.07.238-2.07z" fill="#fff"/><path d="M116.705 151.883h117.499" fill="none" stroke="#5f6368" stroke-miterlimit="10"/><path d="M301.623 96.017l-10.65 1.783a1.114 1.114 0 0 0-.7 1.829l6.934 7.967a1.196 1.196 0 0 0 2-.334l3.723-9.749a1.147 1.147 0 0 0-1.307-1.496z" fill="#81c995"/><path d="M255.914 97.542l3.854 5.106a.847.847 0 0 0 1.492-.735l-.652-2.37 4.536 4.626 2.01-1.161-5.925-9.263z" fill="#dc8455"/><path d="M229.472 89.584l11.454 33.593 23.664-5.791m-38.852-26.917l-15.72 59.077" fill="none" stroke="#185abc" stroke-linejoin="round" stroke-width="14.121"/><path d="M186.476 38.892l-5.584-14.604a1.347 1.347 0 0 0-2.606.482v11.47a5.35 5.35 0 0 0 2.11 4.257l4.659 3.54z" fill="#dc8455"/><path d="M241.687 82.308l-15.496 5.663a4.509 4.509 0 0 1-5.914-3.112l-5.995-23.318a4.507 4.507 0 0 1 2.818-5.356l11.039-4.035a4.508 4.508 0 0 1 5.609 2.277L244.2 76.116a4.51 4.51 0 0 1-2.514 6.192z" fill="#f49f30"/><path d="M215.912 42.322l-1.796 1.273a.755.755 0 0 0-.32.631.737.737 0 0 0 .094.352.753.753 0 0 0 .246.269l1.364.904z" fill="#dc8455"/><path d="M226.297 42.78l-10.188-6.465-.877 4.049-1.358 6.216a3.359 3.359 0 0 0 3.192 4.074l6.503.173z" fill="#dc8455"/><path d="M222.83 55.743l-5.763-1.56 2.848-10.515 5.973.784z" fill="#dc8455"/><path d="M182.38 37.895l32.564 23.595s13.028-2.744 24.239 5.85c12.614 9.67 18.378 30.1 18.378 30.1" fill="none" stroke="#47a656" stroke-linejoin="round" stroke-width="14.121"/><path d="M211.46 63.345v37.153l30.573-5.699-13.148-30.776z" fill="#47a656"/><path d="M216.853 151.36h-19.316a1.372 1.372 0 0 1-.768-2.507l7.554-5.107zm46.092-40.81l4.79 18.712a1.372 1.372 0 0 1-2.237 1.366l-6.822-6.051z" fill="#1c5cb9"/><path d="M211.433 67.746l5.727-13.58-3.911-2.592-3.706 14.757zm11.826-13.586l9.429 18.766 1.645-.407-5.582-18.757z" fill="#f7bf35"/><path d="M226.89 64.653l-5.344.6.734 5.694 3.309 1.049 2.72-2.322z" fill="none" stroke="#1e8e3e" stroke-linecap="round" stroke-linejoin="round" stroke-width=".883"/><path d="M214.555 47.068l2.16.724s-.317 1.392-1.271 1.203-.89-1.927-.89-1.927z" fill="#fff"/><path d="M221.333 40.303l-.595 2.703a1.442 1.442 0 0 1 1.809.752 2.341 2.341 0 0 1-.347 2.212l2.299 3.613 1.389-5.13z" fill="#3c4043"/><path d="M216.904 37.567l.874-1.556a3.497 3.497 0 0 1 4.97-1.208l3.17 2.087a3.498 3.498 0 0 1 1.335 4.194l-1.341 3.43z" fill="#669df6"/><path d="M215.265 40.263s-8.705-5.711-2.493-6.754c5.937-.996 9.188 7.966 9.188 7.966a10.261 10.261 0 0 0-3.414-1.432c-2.777-.593-3.281.22-3.281.22z" fill="#185abc"/><path d="M214.198 45.155s1.462.635 1.782-.212" fill="none" stroke="#b46747" stroke-miterlimit="10" stroke-width=".441"/><path d="M215.464 101.543l25.039-1.487-1.596-4.669-22.934 4.271z" fill="#174ea6"/><path d="M57.5 114a8.5 8.5 0 1 1-8.5-8.5 8.5 8.5 0 0 1 8.5 8.5z" fill="none" stroke="#fdd663" stroke-width="1.5"/><path d="M86.036 19.764l-2.896-6.558a1.635 1.635 0 0 1 .826-2.154L90.49 8.14a1.62 1.62 0 0 1 2.143.83l2.896 6.558a1.635 1.635 0 0 1-.826 2.154l-6.524 2.91a1.62 1.62 0 0 1-2.143-.83z" fill="#81c995"/><path d="M333.252 62.494l.188.462-.188-.462a5.736 5.736 0 0 1-7.452-3.128 5.66 5.66 0 0 1 3.106-7.409l11.484-4.661h0a5.737 5.737 0 0 1 7.452 3.127 5.66 5.66 0 0 1-3.107 7.409h0z" fill="none" stroke="#fdd663" stroke-width="1.5"/></svg>