<svg width="354" height="153" viewBox="0 0 354 153" fill="none" xmlns="http://www.w3.org/2000/svg"><path d="M303.38 52.187h-77.281s4.913-6.432 12.442-7.813c4.812-.754 9.739.33 13.736 3.021 0 0 7.577-10.43 21.197-10.43s29.906 15.222 29.906 15.222z" fill="url(#a)"/><path d="M14 88.14h181.772s-6.53-17.077-28.299-21.2c-21.77-4.125-33.274 9.564-33.274 9.564S114.138 49 77.13 49C30.19 49 14 88.14 14 88.14z" fill="url(#b)"/><path d="m170.094 38.992 5.584-14.59a1.35 1.35 0 0 1 2.213-.471c.252.252.394.595.394.952v11.459a5.33 5.33 0 0 1-2.112 4.254l-4.659 3.536-1.42-5.14z" fill="#885945"/><path d="M140.394 151.361h19.32a1.37 1.37 0 0 0 .768-2.505l-7.555-5.103-12.533 7.608z" fill="#1C5CB9"/><path d="m95.53 114.204 2.145 19.179a1.37 1.37 0 0 0 1.96 1.081c.264-.128.481-.336.617-.596l4.239-8.067-8.96-11.597z" fill="#2168D0"/><path d="m141.172 42.319 1.503 1.09a.641.641 0 0 1-.028 1.055l-1.159.749-.316-2.894z" fill="#885945"/><path d="m141.691 49.925-8.073 3.367-4.558-8.174a5.208 5.208 0 0 1-.191-4.687 5.2 5.2 0 0 1 3.66-2.938l3.425-.727a3.747 3.747 0 0 1 4.345 2.517l2.582 8.042a2.103 2.103 0 0 1-1.19 2.6z" fill="#885945"/><path d="m130.75 48.149 1.827 3.43 3.518 6.608 4.457-.81-3.529-9.176-6.273-.052z" fill="#885945"/><path d="m132.529 37.493 3.425-.727a3.734 3.734 0 0 1 3.099.735 15.99 15.99 0 0 1-6.904 13.157l-3.089-5.54a5.208 5.208 0 0 1-.191-4.687 5.199 5.199 0 0 1 3.66-2.938z" fill="#3C4043"/><path d="M125.987 43.468a3.88 3.88 0 0 0 3.882-3.878 3.88 3.88 0 0 0-3.882-3.878 3.88 3.88 0 0 0-3.883 3.878 3.88 3.88 0 0 0 3.883 3.878z" fill="#3C4043"/><path d="M136.895 47.203a1.393 1.393 0 1 0 .002-2.786 1.393 1.393 0 0 0-.002 2.786z" fill="#885945"/><path d="m136.502 91.83 10.386 32.564v26.966" stroke="#1C5CB9" stroke-width="12.977" stroke-linejoin="round"/><path d="m132.08 86.57-10.486 31.514-25.355 2.974" stroke="#2168D0" stroke-width="12.977" stroke-linejoin="round"/><path d="m121.459 97.913 23.655-.424-.632-1.994-21.22-3.252-1.803 5.67z" fill="#174EA6"/><path d="m170.094 38.992 5.584-14.59a1.35 1.35 0 0 1 2.213-.471c.252.252.394.595.394.952v11.459a5.33 5.33 0 0 1-2.112 4.254l-4.659 3.536-1.42-5.14zm-67.8 59.132-.297 5.433a.813.813 0 0 1-1.343.575.808.808 0 0 1-.276-.491l-.964-6.042 2.88.525zm-4.996-3.158-7.114 5.47 3.07 3.553 9.04-5.47-4.996-3.553z" fill="#885945"/><path fill-rule="evenodd" clip-rule="evenodd" d="m138.448 54.71 2.291-.514 29.646-21.456 7.608 10.512-31.765 22.99 2.064 29.909-28.109-4.302 3.848-21.07a22.923 22.923 0 0 0-2.714 1.788c-5.093 3.9-9.149 10.317-12.014 16.307a79.788 79.788 0 0 0-3.105 7.457 62.499 62.499 0 0 0-.922 2.781l-.037.126-.005.017c0-.001.001-.003-6.244-1.766a1277.047 1277.047 0 0 1-6.243-1.767l.003-.011.007-.023.019-.066.065-.22c.054-.183.133-.44.235-.764a76.35 76.35 0 0 1 .902-2.673 92.466 92.466 0 0 1 3.619-8.69c3.172-6.632 8.307-15.25 15.831-21.012 6.865-5.257 14.229-6.998 19.734-7.457a40.735 40.735 0 0 1 5.286-.097z" fill="#FF7F74"/><path d="m141.753 45.91-1.997.72s.625 1.826 1.759 1.35c.932-.391.238-2.07.238-2.07z" fill="#fff"/><path d="M116.705 151.883h117.499" stroke="#DADCE0" stroke-miterlimit="10"/><path d="m255.914 97.542 3.854 5.106a.845.845 0 0 0 1.465-.205.85.85 0 0 0 .027-.53l-.652-2.37 4.536 4.626 2.01-1.161-5.925-9.263-5.315 3.797z" fill="#DC8455"/><path d="m229.472 89.584 11.454 33.593 23.664-5.791m-38.852-26.917-15.719 59.077" stroke="#1C5CB9" stroke-width="14.121" stroke-linejoin="round"/><path d="m186.475 38.892-5.583-14.604a1.35 1.35 0 0 0-2.212-.471 1.354 1.354 0 0 0-.395.953v11.47a5.352 5.352 0 0 0 2.112 4.257l4.658 3.54 1.42-5.145z" fill="#DC8455"/><path d="m241.686 82.308-15.496 5.663a4.505 4.505 0 0 1-5.913-3.112l-5.996-23.318a4.51 4.51 0 0 1 2.819-5.356l11.039-4.035a4.507 4.507 0 0 1 5.609 2.277L244.2 76.116a4.499 4.499 0 0 1 .116 3.653 4.509 4.509 0 0 1-2.63 2.539z" fill="#F49F30"/><path d="m215.912 42.322-1.796 1.273a.758.758 0 0 0 .019 1.252l1.364.904.413-3.429z" fill="#DC8455"/><path d="m226.297 42.78-10.188-6.464-.877 4.048-1.358 6.216a3.353 3.353 0 0 0 1.771 3.716c.441.223.926.345 1.42.358l6.504.173 2.728-8.047z" fill="#DC8455"/><path d="m222.83 55.743-5.763-1.56 2.847-10.516 5.974.785-3.058 11.291z" fill="#DC8455"/><path d="m182.38 37.895 32.564 23.595s13.028-2.744 24.239 5.85c12.614 9.67 18.378 30.101 18.378 30.101" stroke="#47A656" stroke-width="14.121" stroke-linejoin="round"/><path d="M211.46 63.345v37.153l30.573-5.699-13.148-30.776-17.425-.678z" fill="#47A656"/><path d="M216.853 151.36h-19.316a1.369 1.369 0 0 1-1.311-.969 1.375 1.375 0 0 1 .543-1.538l7.554-5.107 12.53 7.614zm46.092-40.81 4.791 18.712a1.372 1.372 0 0 1-2.238 1.366l-6.822-6.051 4.269-14.027z" fill="#1C5CB9"/><path d="m211.433 67.746 5.727-13.58-3.911-2.591-3.706 14.757 1.89 1.414zm11.825-13.586 9.43 18.766 1.645-.407-5.583-18.758-5.492.4z" fill="#F7BF35"/><path d="m226.891 64.653-5.345.6.733 5.693 3.31 1.05 2.721-2.323-1.419-5.02z" stroke="#1E8E3E" stroke-width=".883" stroke-linecap="round" stroke-linejoin="round"/><path d="m214.555 47.068 2.161.724s-.319 1.392-1.272 1.203c-.954-.189-.889-1.927-.889-1.927z" fill="#fff"/><path d="m221.333 40.303-.595 2.703a1.442 1.442 0 0 1 1.809.752 2.345 2.345 0 0 1-.347 2.212l2.299 3.612 1.389-5.13-4.555-4.149z" fill="#3C4043"/><path d="m216.904 37.567.874-1.556A3.487 3.487 0 0 1 220 34.327a3.495 3.495 0 0 1 2.747.477l3.171 2.086a3.494 3.494 0 0 1 1.335 4.194l-1.341 3.43-9.008-6.947z" fill="#669DF6"/><path d="M215.265 40.263s-8.706-5.711-2.494-6.754c5.937-.996 9.189 7.966 9.189 7.966a10.261 10.261 0 0 0-3.414-1.432c-2.778-.593-3.281.22-3.281.22z" fill="#185ABC"/><path d="M214.198 45.155s1.462.635 1.782-.212" stroke="#B46747" stroke-width=".441" stroke-miterlimit="10"/><path d="m215.464 101.543 25.039-1.487-1.596-4.669-22.934 4.271-.509 1.885z" fill="#174EA6"/><defs><linearGradient id="a" x1="264.739" y1="37.811" x2="264.739" y2="52.187" gradientUnits="userSpaceOnUse"><stop stop-color="#174EA6"/><stop offset="1" stop-color="#174EA6" stop-opacity="0"/></linearGradient><linearGradient id="b" x1="104.886" y1="51.175" x2="104.886" y2="88.14" gradientUnits="userSpaceOnUse"><stop stop-color="#174EA6"/><stop offset="1" stop-color="#174EA6" stop-opacity="0"/></linearGradient></defs></svg>