<svg width="354" height="153" xmlns="http://www.w3.org/2000/svg" xmlns:xlink="http://www.w3.org/1999/xlink" viewBox="0 0 354 153"><defs><linearGradient id="a" x1="60.739" y1="-1226.621" x2="60.739" y2="-1241.842" gradientTransform="matrix(1 0 0 -1 204 -1189.656)" gradientUnits="userSpaceOnUse"><stop offset="0" stop-color="#d2e3fc"/><stop offset="1" stop-color="#d2e3fc" stop-opacity="0"/></linearGradient><linearGradient id="b" x1="-84.025" y1="-1239.668" x2="-84.025" y2="-1276.634" xlink:href="#a"/></defs><path d="M303.38 52.187h-77.281s4.913-6.432 12.442-7.813a19.294 19.294 0 0 1 13.737 3.021s7.576-10.43 21.196-10.43 29.906 15.222 29.906 15.222z" fill="url(#a)"/><path d="M29.088 86.978h181.773s-6.531-17.077-28.3-21.2-33.274 9.564-33.274 9.564-20.06-27.504-57.068-27.504c-46.94 0-63.13 39.14-63.13 39.14z" fill="url(#b)"/><path d="m170.094 38.992 5.584-14.59a1.348 1.348 0 0 1 2.607.48v11.46a5.341 5.341 0 0 1-2.112 4.254l-4.659 3.536z" fill="#885945"/><path d="M140.394 151.361h19.32a1.373 1.373 0 0 0 1.311-.969 1.37 1.37 0 0 0-.543-1.536l-7.555-5.103z" fill="#1c5cb9"/><path d="m95.53 114.62 2.145 19.179a1.372 1.372 0 0 0 2.577.485l4.239-8.067z" fill="#2168d0"/><path d="m141.172 42.319 1.503 1.09a.64.64 0 0 1-.028 1.054l-1.159.75z" fill="#885945"/><path d="m141.691 49.925-8.073 3.367-4.558-8.174a5.206 5.206 0 0 1 3.469-7.625l3.424-.727a3.746 3.746 0 0 1 4.346 2.517l2.582 8.042a2.105 2.105 0 0 1-1.19 2.6z" fill="#885945"/><path d="m130.75 48.149 1.827 3.43 3.518 6.608 4.457-.811-3.529-9.175z" fill="#885945"/><path d="m132.529 37.493 3.424-.727a3.735 3.735 0 0 1 3.1.735 15.988 15.988 0 0 1-6.904 13.157l-3.089-5.54a5.206 5.206 0 0 1 3.469-7.625z" fill="#3c4043"/><path d="M125.987 43.468a3.878 3.878 0 1 0-3.882-3.878 3.88 3.88 0 0 0 3.882 3.878z" fill="#3c4043"/><path d="M136.895 47.203a1.392 1.392 0 1 0-1.394-1.392 1.393 1.393 0 0 0 1.394 1.392z" fill="#885945"/><path d="m136.502 91.83 10.386 32.564v26.966" fill="none" stroke="#1c5cb9" stroke-linejoin="round" stroke-width="12.977"/><path d="m132.079 86.57-10.485 31.514-25.355 2.974" fill="none" stroke="#2168d0" stroke-linejoin="round" stroke-width="12.977"/><path d="m121.459 97.913 23.655-.424-.632-1.994-21.22-3.252z" fill="#174ea6"/><path d="m170.094 38.992 5.584-14.59a1.348 1.348 0 0 1 2.607.48v11.46a5.341 5.341 0 0 1-2.112 4.254l-4.659 3.536zm-67.8 59.132-.297 5.433a.815.815 0 0 1-1.619.084l-.964-6.042z" fill="#885945"/><path d="m97.298 94.966-7.114 5.47 3.07 3.553 9.04-5.47z" fill="#885945"/><path d="m138.448 54.71 2.292-.514 29.645-21.456 7.609 10.512-31.766 22.99 2.064 29.91-28.108-4.303 3.847-21.07a22.923 22.923 0 0 0-2.714 1.788c-5.093 3.9-9.149 10.318-12.013 16.308a79.244 79.244 0 0 0-3.105 7.457 60.902 60.902 0 0 0-.923 2.78l-.037.127-.005.016c0-.001.001-.002-6.244-1.766s-6.243-1.765-6.243-1.766l.003-.012.007-.022.02-.067.064-.22c.054-.183.133-.44.235-.763.204-.646.504-1.558.902-2.673a92.443 92.443 0 0 1 3.619-8.69c3.172-6.632 8.308-15.251 15.831-21.012a37.368 37.368 0 0 1 19.734-7.457 40.735 40.735 0 0 1 5.286-.098z" fill="#ff7f74" fill-rule="evenodd"/><path d="m141.753 45.91-1.997.72s.625 1.827 1.759 1.35c.932-.391.238-2.07.238-2.07z" fill="#fff"/><path d="M116.705 151.883h117.499" fill="none" stroke="#dadce0" stroke-miterlimit="10"/><path d="M301.623 96.017 290.972 97.8a1.114 1.114 0 0 0-.699 1.829l6.933 7.967a1.196 1.196 0 0 0 2.001-.334l3.723-9.749a1.147 1.147 0 0 0-1.307-1.496z" fill="#34a853"/><path d="m255.914 97.542 3.853 5.106a.847.847 0 0 0 1.493-.735l-.652-2.37 4.536 4.626 2.01-1.161-5.925-9.263z" fill="#dc8455"/><path d="m229.472 89.584 11.454 33.593 23.664-5.791m-38.852-26.917-15.719 59.077" fill="none" stroke="#1c5cb9" stroke-linejoin="round" stroke-width="14.121"/><path d="m186.475 38.892-5.583-14.604a1.348 1.348 0 0 0-2.607.482v11.47a5.348 5.348 0 0 0 2.112 4.257l4.658 3.54z" fill="#dc8455"/><path d="m241.686 82.308-15.496 5.663a4.508 4.508 0 0 1-5.913-3.112l-5.996-23.318a4.51 4.51 0 0 1 2.819-5.357l11.039-4.034a4.509 4.509 0 0 1 5.609 2.277L244.2 76.116a4.508 4.508 0 0 1-2.514 6.192z" fill="#f49f30"/><path d="m215.912 42.322-1.796 1.273a.76.76 0 0 0 .019 1.252l1.364.904z" fill="#dc8455"/><path d="m226.297 42.78-10.188-6.465-.877 4.049-1.358 6.216a3.359 3.359 0 0 0 3.192 4.074l6.503.173z" fill="#dc8455"/><path d="m222.83 55.743-5.763-1.56 2.847-10.515 5.974.784z" fill="#dc8455"/><path d="m182.38 37.895 32.564 23.595s13.028-2.744 24.239 5.85c12.614 9.67 18.378 30.1 18.378 30.1" fill="none" stroke="#47a656" stroke-linejoin="round" stroke-width="14.121"/><path d="M211.46 63.345v37.153l30.573-5.699-13.148-30.776z" fill="#47a656"/><path d="M216.853 151.36h-19.316a1.371 1.371 0 0 1-.768-2.507l7.554-5.107zm46.092-40.81 4.791 18.712a1.372 1.372 0 0 1-2.238 1.366l-6.822-6.051z" fill="#1c5cb9"/><path d="m211.433 67.746 5.727-13.58-3.911-2.592-3.706 14.757zm11.825-13.586 9.43 18.766 1.645-.407-5.582-18.757z" fill="#f7bf35"/><path d="m226.891 64.653-5.345.6.733 5.694 3.31 1.049 2.721-2.322z" fill="none" stroke="#1e8e3e" stroke-linecap="round" stroke-linejoin="round" stroke-width=".883"/><path d="m214.555 47.068 2.161.724s-.319 1.392-1.272 1.203-.889-1.927-.889-1.927z" fill="#fff"/><path d="m221.333 40.303-.595 2.703a1.443 1.443 0 0 1 1.809.752 2.341 2.341 0 0 1-.347 2.212l2.299 3.613 1.389-5.13z" fill="#3c4043"/><path d="m216.904 37.567.874-1.556a3.496 3.496 0 0 1 4.969-1.208l3.171 2.087a3.498 3.498 0 0 1 1.335 4.194l-1.341 3.43z" fill="#669df6"/><path d="M215.265 40.263s-8.706-5.711-2.494-6.754c5.937-.996 9.189 7.966 9.189 7.966a10.261 10.261 0 0 0-3.414-1.432c-2.778-.593-3.281.22-3.281.22z" fill="#185abc"/><path d="M214.198 45.155s1.462.635 1.782-.212" fill="none" stroke="#b46747" stroke-miterlimit="10" stroke-width=".441"/><path d="m215.464 101.543 25.039-1.487-1.597-4.669-22.933 4.271z" fill="#174ea6"/><path d="M57.25 114a8.25 8.25 0 1 1-8.25-8.25 8.25 8.25 0 0 1 8.25 8.25z" fill="none" stroke="#fbbc04" stroke-width="1.5"/><path d="m86.036 19.764-2.896-6.558a1.635 1.635 0 0 1 .826-2.154L90.49 8.14a1.62 1.62 0 0 1 2.143.83l2.896 6.558a1.635 1.635 0 0 1-.826 2.154l-6.524 2.91a1.62 1.62 0 0 1-2.143-.83z" fill="#34a853"/><path d="m333.02 62.589.188.462-.188-.462a5.736 5.736 0 0 1-7.452-3.128 5.66 5.66 0 0 1 3.106-7.409l11.484-4.661a5.737 5.737 0 0 1 7.452 3.127 5.66 5.66 0 0 1-3.107 7.41z" fill="none" stroke="#fbbc04" stroke-width="1.5"/></svg>