<svg viewBox="0 0 360 100" fill="none" xmlns="http://www.w3.org/2000/svg"><g clip-path="url(#a)"><path d="M0 0h360v100H0z"/><path d="M135 100.031h-35C103.725 94.594 110.171 91 117.5 91c7.329 0 13.775 3.594 17.5 9.031zm93.559-10.613a3 3 0 0 1 4.882 0L241 100h-20l7.559-10.582z" fill="#5F6368"/><path d="M244.91 84.732a2 2 0 0 1 3.18 0L258.979 99h-24.958l10.889-14.268z" stroke="#5F6368" stroke-width="2"/><path fill-rule="evenodd" clip-rule="evenodd" d="M253.368 90 261 100h-29l7.632-10h13.736z" fill="#5F6368"/></g><defs><clipPath id="a"><path d="M0 0h360v100H0z"/></clipPath></defs></svg>