<svg width="360" height="100" viewBox="0 0 360 100" fill="none" xmlns="http://www.w3.org/2000/svg"><rect x="188" y="60" width="34" height="51" rx="2" transform="rotate(90 188 60)" stroke="#BDC1C6" stroke-width="2"/><path d="M133 96h59.068a2 2 0 0 1-2 2H135a2 2 0 0 1-2-2z" fill="#BDC1C6"/><rect x="208" y="56" width="18" height="40" rx="2" stroke="#BDC1C6" stroke-width="2"/><circle cx="211" cy="59" r="1" fill="#BDC1C6"/><path d="M211 70h12m-12 6h12m-12 6h12m-72-12h23m-23 6h23m-23 6h23" stroke="#4285F4" stroke-width="2"/><path d="m168.861 52.115-.118.486.971.237.119-.486-.972-.237zm37.012-4.507.241.439.877-.48-.241-.44-.877.481zm-35.9 4.206.132-.482-.964-.266-.133.482.965.266zm2.021-6.583-.288.408.818.576.288-.409-.818-.575zm1.484-.316.311-.392-.783-.621-.311.392.783.62zm4.426-5.278-.424.265.53.848.424-.265-.53-.848zm1.49.286.439-.24-.48-.877-.439.24.48.877zm6.132-3.135-.494.08.158.986.494-.078-.158-.988zm1.264.842.497-.051-.103-.995-.497.051.103.995zm6.868-.525-.486-.118-.237.972.486.118.237-.971zm.836 1.266.478.146.292-.956-.478-.146-.292.956zm6.529 2.194-.401-.298-.596.803.401.298.596-.803zm.279 1.491.383.32.641-.767-.384-.32-.64.767zm5.159 4.563-.252-.432-.863.506.253.431.862-.506zm-36.628 5.733c.044-.18.09-.36.14-.538l-.965-.266c-.051.188-.1.377-.147.567l.972.237zm2.979-6.546c.214-.303.436-.6.666-.891l-.783-.621c-.243.305-.476.618-.701.937l.818.575zm5.622-5.32c.314-.197.634-.384.96-.563l-.48-.877c-.343.188-.68.385-1.01.591l.53.848zm7.25-2.71c.183-.03.367-.057.552-.081l-.131-.991a18.33 18.33 0 0 0-.579.084l.158.988zm.552-.081c.185-.024.369-.046.554-.065l-.103-.995c-.194.02-.387.043-.582.069l.131.991zm7.185.382c.361.088.719.186 1.073.294l.292-.956a20.305 20.305 0 0 0-1.128-.31l-.237.972zm7.006 3.29c.298.222.59.452.875.69l.64-.768a20.36 20.36 0 0 0-.919-.724l-.596.803zm5.172 5.757c.094.16.185.322.274.484l.877-.48a19.65 19.65 0 0 0-.289-.51l-.862.506zm-37.224 4.872-.237.972 1.943.474.237-.971-1.943-.474zm37.06-4.147.48.877 1.754-.961-.48-.877-1.754.96zm-34.98 4.097.265-.964-1.928-.53-.266.964 1.929.53zm1.13-7.003-.575.817 1.635 1.152.576-.818-1.636-1.151zm2.285.282.622-.783-1.568-1.243-.621.784 1.567 1.242zm3.77-6.012-.849.53 1.059 1.696.849-.53-1.059-1.696zm1.994 1.149.878-.48-.961-1.755-.877.48.96 1.755zm5.813-4.068-.987.159.316 1.974.987-.158-.316-1.975zm1.394 1.833.995-.102-.206-1.99-.994.103.205 1.99zm6.935-1.507-.971-.237-.474 1.943.972.237.473-1.943zm.572 2.23.957.292.584-1.913-.957-.292-.584 1.913zm6.973 1.313-.803-.596-1.192 1.606.803.596 1.192-1.606zm-.34 2.277.768.64 1.281-1.534-.767-.641-1.282 1.535zm5.912 3.926-.506-.863-1.725 1.011.505.863 1.726-1.011zm-36.575 6.105c.043-.176.089-.35.137-.525l-1.929-.53c-.053.192-.103.386-.151.58l1.943.475zm2.903-6.377c.208-.296.425-.585.649-.869l-1.567-1.242a21.78 21.78 0 0 0-.718.96l1.636 1.151zm5.478-5.184c.306-.191.617-.374.935-.548l-.96-1.754a21 21 0 0 0-1.034.605l1.059 1.697zm7.064-2.64c.179-.03.358-.056.538-.08l-.261-1.982c-.199.026-.396.055-.593.086l.316 1.975zm.538-.08c.18-.023.36-.044.54-.063l-.205-1.99c-.199.021-.397.045-.596.07l.261 1.984zm7.002.373c.352.086.7.181 1.045.287l.584-1.913a21.053 21.053 0 0 0-1.156-.317l-.473 1.943zm6.826 3.206c.29.216.575.44.852.671l1.282-1.535a21.159 21.159 0 0 0-.942-.742l-1.192 1.606zm5.038 5.608c.092.156.181.313.268.472l1.754-.961c-.096-.176-.195-.35-.296-.522l-1.726 1.011z" fill="#FDD663"/><path d="M210 54a3 3 0 0 0-3 3v1h1.438v-2.067h17V58H227v-1a3 3 0 0 0-3-3h-14zm14 44a3 3 0 0 0 3-3v-1h-1.438v2.067h-17V94H207v1a3 3 0 0 0 3 3h14z" fill="#BDC1C6"/></svg>