<svg width="360" height="100" viewBox="0 0 360 100" fill="none" xmlns="http://www.w3.org/2000/svg"><rect x="131" y="54.19" width="50" height="42.748" rx="2" stroke="#BDC1C6" stroke-width="2"/><path d="M145 54.185a2 2 0 0 1 2 2v.983h34" stroke="#BDC1C6" stroke-width="2"/><path fill="#BDC1C6" d="M147 55.179h33v1.989h-33z"/><path fill="#1E8E3E" d="M141 68.106h30v11.933h-30zm0 15.911h15v1.989h-15z"/><path d="m212.405 80.183 6.472 6.434m-18.628-1.427c9.495 0 17.192-7.653 17.192-17.095 0-9.441-7.697-17.095-17.192-17.095-9.494 0-17.191 7.654-17.191 17.095 0 9.442 7.697 17.095 17.191 17.095z" stroke="#4285F4" stroke-width="2" stroke-linecap="round" stroke-linejoin="round"/><path d="M213.368 68.095c0 7.197-5.868 13.04-13.118 13.04-7.251 0-13.119-5.844-13.119-13.04 0-7.196 5.868-13.04 13.119-13.04 7.25 0 13.118 5.844 13.118 13.04z" stroke="#5F6368" stroke-width="2"/><path d="M218.255 84.828 217.077 86a1.869 1.869 0 0 0 0 2.655l8.631 8.584a1.896 1.896 0 0 0 2.67 0l1.179-1.172a1.87 1.87 0 0 0 0-2.655l-8.632-8.584a1.896 1.896 0 0 0-2.67 0z" fill="#4285F4"/></svg>