<svg width="360" height="100" viewBox="0 0 360 100" fill="none" xmlns="http://www.w3.org/2000/svg"><path d="M180.144 58.555H130v-2.16c0-.633.25-1.239.696-1.686a2.371 2.371 0 0 1 1.68-.699h45.392c.63 0 1.234.252 1.68.699a2.39 2.39 0 0 1 .696 1.686v2.16z" fill="#BDC1C6" stroke="#BDC1C6" stroke-width="2" stroke-linecap="round" stroke-linejoin="round"/><path d="M148.891 58.555h31.253v36.05a2.39 2.39 0 0 1-.696 1.685 2.372 2.372 0 0 1-1.68.699h-45.392a2.37 2.37 0 0 1-1.68-.699 2.387 2.387 0 0 1-.696-1.686v-38.21c0-.632.25-1.238.696-1.685a2.371 2.371 0 0 1 1.68-.699h13.221c.631 0 1.235.252 1.681.699a2.39 2.39 0 0 1 .695 1.686v2.159h.918z" fill="#fff" stroke="#BDC1C6" stroke-width="2" stroke-linecap="round" stroke-linejoin="round"/><path d="M155.5 83.548H140v2.463h15.5v-2.463zm14.586-15.633H140V80.24h30.086V67.915z" fill="#81C995"/><path d="m211.564 80.449 6.471 6.493" stroke="#4285F4" stroke-width="2" stroke-linecap="round" stroke-linejoin="round"/><path d="M199.408 85.502c9.494 0 17.191-7.723 17.191-17.25 0-9.528-7.697-17.252-17.191-17.252-9.495 0-17.191 7.724-17.191 17.251 0 9.528 7.696 17.251 17.191 17.251z" fill="#fff" stroke="#4285F4" stroke-width="2" stroke-linecap="round" stroke-linejoin="round"/><path d="M212.527 68.251c0 7.276-5.877 13.168-13.119 13.168S186.29 75.527 186.29 68.25c0-7.275 5.876-13.167 13.118-13.167s13.119 5.892 13.119 13.167z" stroke="#E8EAED" stroke-width="2"/><path d="m217.414 85.137-1.179 1.183a1.9 1.9 0 0 0 0 2.679l8.632 8.662c.737.74 1.932.74 2.67 0l1.178-1.183a1.9 1.9 0 0 0 0-2.68l-8.632-8.661a1.882 1.882 0 0 0-2.669 0z" fill="#4285F4"/></svg>