<svg width="360" height="100" viewBox="0 0 360 100" fill="none" xmlns="http://www.w3.org/2000/svg"><rect x="148" y="26" width="50" height="43" rx="2" stroke="#5F6368" stroke-width="2"/><path d="M162 26a2 2 0 0 1 2 2v1h34" stroke="#5F6368" stroke-width="2"/><path fill="#5F6368" d="M164 27h33v2h-33z"/><rect x="155" y="33" width="50" height="43" rx="2" fill="#202124" stroke="#80868B" stroke-width="2"/><path d="M169 33a2 2 0 0 1 2 2v1h34" stroke="#80868B" stroke-width="2"/><path fill="#80868B" d="M171 34h33v2h-33z"/><rect x="162" y="39.933" width="50" height="43" rx="2" fill="#202124" stroke="#BDC1C6" stroke-width="2"/><path d="M176 39.933a2 2 0 0 1 2 2v1h34" stroke="#BDC1C6" stroke-width="2"/><path fill="#BDC1C6" d="M178 40.933h33v2h-33z"/><path d="M184.667 65.333V77L194 60.667h-4.667V49L180 65.333h4.667Z" fill="#FBBC04"/></svg>