<svg width="40" height="40" viewBox="0 0 40 40" fill="none" xmlns="http://www.w3.org/2000/svg"><path d="M20 40c11.046 0 20-8.954 20-20S31.046 0 20 0 0 8.954 0 20s8.954 20 20 20z" fill="#E8EAED"/><path d="M24.083 7h-8.166l1.02 2.228v7.343l-6.66 11.534c-.786 1.361.196 3.062 1.767 3.062h15.912c1.571 0 2.553-1.701 1.768-3.062l-6.662-11.534V9.228L24.082 7z" fill="#fff" stroke="#80868B" stroke-linejoin="round"/><path d="M10.277 28.807 13 23h13.5l3.224 5.807c.785.975-.197 2.193-1.768 2.193H12.044c-1.571 0-2.553-1.218-1.768-2.193z" fill="#AECBFA"/><path d="M24.083 7h-8.166l1.02 2.228v7.343l-6.66 11.534c-.786 1.361.196 3.062 1.767 3.062h15.912c1.571 0 2.553-1.701 1.768-3.062l-6.662-11.534V9.228L24.082 7z" stroke="#80868B" stroke-linejoin="round"/><circle cx="19" cy="23" r="3" fill="#AECBFA"/></svg>