<svg width="300" height="180" viewBox="0 0 300 180" fill="none" xmlns="http://www.w3.org/2000/svg"><path fill="#fff" d="M0 0h300v180H0z"/><mask id="a" maskUnits="userSpaceOnUse" x="174" y="51" width="108" height="68" fill="#000"><path fill="#fff" d="M174 51h108v68H174z"/><path fill-rule="evenodd" clip-rule="evenodd" d="M196.37 106.677a19.989 19.989 0 0 1-.244-.263c.002.088.003.175.003.263h.241zm-10.269 10.065h-.036c-5.559 0-10.065-4.506-10.065-10.065 0-5.558 4.506-10.064 10.065-10.064 1.543 0 3.005.347 4.312.968a31.767 31.767 0 0 1-2.635-12.71c0-17.602 14.269-31.871 31.871-31.871 14.075 0 26.019 9.124 30.241 21.78a21.74 21.74 0 0 1 8.34-1.651c12.043 0 21.806 9.763 21.806 21.806 0 12.044-9.763 21.807-21.806 21.807h-72.093z"/></mask><path fill-rule="evenodd" clip-rule="evenodd" d="M196.37 106.677a19.989 19.989 0 0 1-.244-.263c.002.088.003.175.003.263h.241zm-10.269 10.065h-.036c-5.559 0-10.065-4.506-10.065-10.065 0-5.558 4.506-10.064 10.065-10.064 1.543 0 3.005.347 4.312.968a31.767 31.767 0 0 1-2.635-12.71c0-17.602 14.269-31.871 31.871-31.871 14.075 0 26.019 9.124 30.241 21.78a21.74 21.74 0 0 1 8.34-1.651c12.043 0 21.806 9.763 21.806 21.806 0 12.044-9.763 21.807-21.806 21.807h-72.093z" fill="#fff"/><path d="M196.37 106.677v1.5h3.465l-2.372-2.526-1.093 1.026zm-.244-.263 1.105-1.014-2.708-2.95.103 4.003 1.5-.039zm.003.263h-1.5v1.5h1.5v-1.5zm-10.028 10.065v-1.5h-.005l.005 1.5zm4.276-19.161-.643 1.355 3.617 1.718-1.599-3.672-1.375.599zm59.477-22.8-1.423.474.509 1.528 1.488-.617-.574-1.385zm8.293 41.961.003-1.5h-.003v1.5zm-38.427 0v-1.5h-.005l.005 1.5zm-.214 0 .005-1.5h-.005v1.5zm-22.043-11.091-.232-.251-2.21 2.029c.084.092.169.184.255.275l2.187-2.053zm-2.837.802c.002.074.003.149.003.224h3c0-.1-.001-.201-.004-.301l-2.999.077zm1.503 1.724h.241v-3h-.241v3zm-10.033 7.065h-.031v3h.041l-.01-3zm-.031 0a8.565 8.565 0 0 1-8.565-8.565h-3c0 6.387 5.178 11.565 11.565 11.565v-3zm-8.565-8.565a8.564 8.564 0 0 1 8.565-8.564v-3c-6.387 0-11.565 5.177-11.565 11.564h3zm8.565-8.564c1.316 0 2.558.296 3.669.823l1.287-2.71a11.527 11.527 0 0 0-4.956-1.113v3zm5.687-1.13a30.272 30.272 0 0 1-2.51-12.112h-3c0 4.728.984 9.23 2.76 13.309l2.75-1.198zm-2.51-12.112c0-16.773 13.597-30.371 30.371-30.371v-3c-18.43 0-33.371 14.94-33.371 33.371h3zM219.613 54.5c13.41 0 24.795 8.693 28.818 20.755l2.845-.949c-4.419-13.25-16.923-22.806-31.663-22.806v3zm30.815 21.666a20.237 20.237 0 0 1 7.766-1.537v-3c-3.155 0-6.167.627-8.915 1.766l1.149 2.771zm7.766-1.537c11.214 0 20.306 9.091 20.306 20.306h3c0-12.871-10.435-23.306-23.306-23.306v3zM278.5 94.935c0 11.215-9.092 20.307-20.306 20.307v3c12.871 0 23.306-10.435 23.306-23.307h-3zm-20.306 20.307h-.044l-.007 3h.051v-3zm-.047 0H219.72v3h38.427v-3zm-38.432 0h-.102v3h.112l-.01-3zm-.102 0h-.102l-.01 3h.112v-3zm-.107 0h-33.405v3h33.405v-3z" fill="#D2E3FC" mask="url(#a)"/><path d="M252 156.145S223.649 132 178.287 132c-12.066 0-23.588 1.708-34.832 4.216-31.027 6.921-59.94 19.929-92.344 19.929H26" fill="url(#b)"/><mask id="c" maskUnits="userSpaceOnUse" x="23" y="25" width="122" height="70" fill="#000"><path fill="#fff" d="M23 25h122v70H23z"/><path fill-rule="evenodd" clip-rule="evenodd" d="M41 93c-8.837 0-16-7.163-16-16s7.163-16 16-16c2.552 0 4.964.597 7.104 1.66A33.965 33.965 0 0 1 48 60c0-18.225 14.55-33 32.5-33 14.97 0 27.575 10.276 31.348 24.26 9.298 2.177 16.222 10.52 16.222 20.482 0 1.354-.128 2.677-.372 3.96a9.425 9.425 0 0 1 5.631-1.856 9.466 9.466 0 0 1 3.379 18.31V93H41z"/></mask><path fill-rule="evenodd" clip-rule="evenodd" d="M41 93c-8.837 0-16-7.163-16-16s7.163-16 16-16c2.552 0 4.964.597 7.104 1.66A33.965 33.965 0 0 1 48 60c0-18.225 14.55-33 32.5-33 14.97 0 27.575 10.276 31.348 24.26 9.298 2.177 16.222 10.52 16.222 20.482 0 1.354-.128 2.677-.372 3.96a9.425 9.425 0 0 1 5.631-1.856 9.466 9.466 0 0 1 3.379 18.31V93H41z" fill="#fff"/><path d="m48.104 62.66-.667 1.343 2.37 1.176-.208-2.637-1.495.118zm63.744-11.4-1.448.391.233.865.873.205.342-1.46zm15.85 24.442-1.473-.28-.719 3.772 3.085-2.287-.893-1.205zm9.01 16.454-.536-1.401-.964.368v1.033h1.5zm0 .844v1.5h1.5V93h-1.5zM41 91.5c-8.008 0-14.5-6.492-14.5-14.5h-3c0 9.665 7.835 17.5 17.5 17.5v-3zM26.5 77c0-8.008 6.492-14.5 14.5-14.5v-3c-9.665 0-17.5 7.835-17.5 17.5h3zM41 62.5c2.315 0 4.5.541 6.437 1.503l1.334-2.687A17.434 17.434 0 0 0 41 59.5v3zm8.6.042c-.066-.838-.1-1.686-.1-2.542h-3c0 .935.037 1.86.109 2.777l2.99-.235zM49.5 60c0-17.419 13.9-31.5 31-31.5v-3c-18.8 0-34 15.468-34 34.5h3zm31-31.5c14.26 0 26.295 9.791 29.9 23.151l2.896-.781C109.355 36.26 96.178 25.5 80.5 25.5v3zm31.006 24.22c8.635 2.022 15.064 9.773 15.064 19.022h3c0-10.674-7.419-19.61-17.38-21.942l-.684 2.92zm15.064 19.022a19.71 19.71 0 0 1-.345 3.68l2.947.56a22.71 22.71 0 0 0 .398-4.24h-3zm2.021 5.165a7.924 7.924 0 0 1 4.738-1.561v-3c-2.442 0-4.701.8-6.524 2.15l1.786 2.41zm4.738-1.561a7.966 7.966 0 0 1 7.966 7.965h3c0-6.056-4.91-10.965-10.966-10.965v3zm7.966 7.965a7.97 7.97 0 0 1-5.123 7.444l1.072 2.802c4.12-1.575 7.051-5.566 7.051-10.246h-3zm-6.087 8.845V93h3v-.844h-3zm1.5-.656H80.5v3h56.208v-3zm-56.208 0H41v3h39.5v-3z" fill="#D2E3FC" mask="url(#c)"/><path d="M196 55.687v31.262c0 30.066-19.583 57.803-45.999 66.051C123.582 144.75 104 117.015 104 86.95V55.685L149.999 35 196 55.687z" fill="#E8F0FE" stroke="#8AB4F8" stroke-width="1.5" stroke-miterlimit="10"/><path d="M170.674 68.148v-7.7a2.9 2.9 0 0 0-.842-2.055 2.904 2.904 0 0 0-2.051-.852 2.893 2.893 0 0 0-2.892 2.907v7.7h-2.893v-7.7a5.785 5.785 0 0 1 11.571 0v7.7h-2.893z" fill="#5BB974"/><path d="M154.469 66.347h26.625V86.97h-26.625V66.347z" fill="#81C995"/><path d="M144.062 64.707h-27.125m27.125 11.276h-27.125m27.125 11.277h-27.125" stroke="#8AB4F8" stroke-miterlimit="10"/><path d="M128.607 68.288a3.582 3.582 0 1 1 0-7.163 3.582 3.582 0 0 1 0 7.163zm-11.67 11.277a3.581 3.581 0 1 1 0-7.162 3.581 3.581 0 0 1 0 7.162zm20.222 11.275a3.581 3.581 0 1 1 0-7.161 3.581 3.581 0 0 1 0 7.162z" fill="#669DF6"/><path d="M115 132h27v-27h-27v27z" fill="#F9AB00"/><path d="M139.5 107.5h-22v22h22v-22z" fill="#FCC934"/><path d="m121.641 118.439 4.948 4.949 9.596-9.596" stroke="#F9AB00" stroke-width="2" stroke-miterlimit="10"/><path d="M167.463 99.35c6.682 0 12.1 5.418 12.1 12.101 0 6.683-5.418 12.1-12.1 12.1-6.683 0-12.1-5.417-12.1-12.1s5.417-12.1 12.1-12.1z" fill="#D2E3FC" stroke="#669DF6" stroke-miterlimit="10"/><path d="M167.5 102a9.5 9.5 0 0 1 9.5 9.5 9.5 9.5 0 0 1-9.5 9.5 9.5 9.5 0 0 1-9.5-9.5 9.5 9.5 0 0 1 9.5-9.5z" fill="#fff"/><path d="m176.057 120.044 8.176 8.176" stroke="#669DF6" stroke-miterlimit="10"/><path d="m179.494 123.482 7.15 7.151" stroke="#669DF6" stroke-width="2" stroke-miterlimit="10" stroke-linecap="round"/><path d="M104 163h93" stroke="url(#d)" stroke-width="1.5" stroke-miterlimit="10"/><path fill-rule="evenodd" clip-rule="evenodd" d="M196.37 106.677a19.989 19.989 0 0 1-.244-.263c.002.088.003.175.003.263h.241zm-10.269 10.065h-.036c-5.559 0-10.065-4.506-10.065-10.065 0-5.558 4.506-10.064 10.065-10.064 1.543 0 3.005.347 4.312.968a31.767 31.767 0 0 1-2.635-12.71c0-17.602 14.269-31.871 31.871-31.871 14.075 0 26.019 9.124 30.241 21.78a21.74 21.74 0 0 1 8.34-1.651c12.043 0 21.806 9.763 21.806 21.806 0 12.044-9.763 21.807-21.806 21.807h-72.093z" fill="#fff"/><defs><linearGradient id="b" x1="139" y1="132" x2="139" y2="156" gradientUnits="userSpaceOnUse"><stop stop-color="#CEEAD6"/><stop offset="1" stop-color="#E6F4EA" stop-opacity="0"/></linearGradient><linearGradient id="d" x1="107.915" y1="164" x2="195.615" y2="164" gradientUnits="userSpaceOnUse"><stop stop-color="#81C995" stop-opacity="0"/><stop offset=".156" stop-color="#81C995"/><stop offset=".854" stop-color="#81C995"/><stop offset="1" stop-color="#81C995" stop-opacity="0"/></linearGradient></defs></svg>