<svg width="300" height="180" viewBox="0 0 300 180" fill="none" xmlns="http://www.w3.org/2000/svg"><path d="M252 156.145S223.649 132 178.287 132c-12.066 0-23.588 1.708-34.832 4.216-31.027 6.921-59.94 19.929-92.344 19.929H26" fill="url(#a)"/><path fill-rule="evenodd" clip-rule="evenodd" d="M108.237 57.74c0 .894-.038 1.778-.113 2.651 5.379 2.321 9.144 7.672 9.144 13.903a15.17 15.17 0 0 1-.477 3.783h4.002a8.954 8.954 0 1 1-.484 11.35H40.134C31.776 89.428 25 82.653 25 74.295c0-8.359 6.776-15.134 15.134-15.134 2.432 0 4.73.574 6.767 1.593a31.105 31.105 0 0 1-.146-3.012C46.755 40.763 60.518 27 77.495 27c16.979 0 30.742 13.763 30.742 30.74z" fill="#174EA6"/><path d="M196 55.687v31.262c0 30.066-19.583 57.803-45.999 66.051C123.582 144.75 104 117.015 104 86.95V55.685L149.999 35 196 55.687z" fill="#0D2E62" stroke="#1967D2" stroke-width="1.5" stroke-miterlimit="10"/><path d="M170.674 68.148v-7.7a2.9 2.9 0 0 0-.842-2.055 2.904 2.904 0 0 0-2.051-.852 2.893 2.893 0 0 0-2.892 2.907v7.7h-2.893v-7.7a5.785 5.785 0 0 1 11.571 0v7.7h-2.893z" fill="#188038"/><path d="M154.469 66.347h26.625V86.97h-26.625V66.347z" fill="#188038"/><path d="M144.062 64.707h-27.125m27.125 11.276h-27.125m27.125 11.277h-27.125" stroke="#8AB4F8" stroke-miterlimit="10"/><path d="M128.607 68.288a3.582 3.582 0 1 1 0-7.163 3.582 3.582 0 0 1 0 7.163zm-11.67 11.277a3.581 3.581 0 1 1 0-7.162 3.581 3.581 0 0 1 0 7.162zm20.222 11.275a3.581 3.581 0 1 1 0-7.161 3.581 3.581 0 0 1 0 7.162z" fill="#669DF6"/><path d="M104 163h93" stroke="url(#b)" stroke-width="1.5" stroke-miterlimit="10"/><path d="M196 55.687v31.262c0 30.066-19.583 57.803-45.999 66.051C123.582 144.75 104 117.015 104 86.95V55.685L149.999 35 196 55.687z" stroke="#1967D2" stroke-width="1.5" stroke-miterlimit="10"/><path d="M115 132h27v-27h-27v27z" fill="#F9AB00"/><path d="M139.5 107.5h-22v22h22v-22z" fill="#FCC934"/><path d="m121.641 118.439 4.948 4.949 9.596-9.596" stroke="#F9AB00" stroke-width="2" stroke-miterlimit="10"/><path d="M167.463 99.35c6.682 0 12.1 5.418 12.1 12.101 0 6.683-5.418 12.1-12.1 12.1-6.683 0-12.1-5.417-12.1-12.1s5.417-12.1 12.1-12.1z" fill="#174EA6" stroke="#669DF6" stroke-miterlimit="10"/><path d="M167.5 102a9.5 9.5 0 0 1 9.5 9.5 9.5 9.5 0 0 1-9.5 9.5 9.5 9.5 0 0 1-9.5-9.5 9.5 9.5 0 0 1 9.5-9.5z" fill="#0D2E62"/><path d="m176.057 120.044 8.176 8.176" stroke="#669DF6" stroke-miterlimit="10"/><path d="m179.494 123.482 7.15 7.151" stroke="#669DF6" stroke-width="2" stroke-miterlimit="10" stroke-linecap="round"/><path fill-rule="evenodd" clip-rule="evenodd" d="M186.101 116.742h-.036c-5.559 0-10.065-4.506-10.065-10.065 0-5.558 4.506-10.064 10.065-10.064 1.543 0 3.005.347 4.312.968a31.767 31.767 0 0 1-2.635-12.71c0-17.602 14.269-31.871 31.871-31.871 14.075 0 26.019 9.124 30.241 21.78a21.74 21.74 0 0 1 8.34-1.651c12.043 0 21.806 9.763 21.806 21.806 0 12.044-9.763 21.807-21.806 21.807h-72.093z" fill="#174EA6"/><defs><linearGradient id="a" x1="161.5" y1="156" x2="161.5" y2="132" gradientUnits="userSpaceOnUse"><stop stop-color="#0D652D" stop-opacity="0"/><stop offset="1" stop-color="#188038"/></linearGradient><linearGradient id="b" x1="107.915" y1="164" x2="195.615" y2="164" gradientUnits="userSpaceOnUse"><stop stop-color="#0D652D" stop-opacity="0"/><stop offset=".156" stop-color="#0D652D"/><stop offset=".854" stop-color="#0D652D"/><stop offset="1" stop-color="#0D652D" stop-opacity="0"/></linearGradient></defs></svg>