<svg width="48" height="48" viewBox="0 0 48 48" fill="none" xmlns="http://www.w3.org/2000/svg"><path d="M24 48c13.255 0 24-10.745 24-24S37.255 0 24 0 0 10.745 0 24s10.745 24 24 24z" fill="#3C4043"/><path d="M33 16.207v6.359C33 28.68 29.169 34.322 24 36c-5.169-1.678-9-7.32-9-13.434v-6.359L24 12l9 4.207z" fill="#3C4043" stroke="#BDC1C6" stroke-linecap="round"/><path d="M24 2v6.947m13.919 1.134-3.275 3.275M13.356 34.644l-3.275 3.275m27.838 0-3.275-3.275M13.356 13.356l-3.275-3.275M46 24h-6.947M8.947 24H2m22 22v-6.947" stroke="#1E8E3E"/><path d="M24 12v12h-8.93c-.046-.474-.07-.953-.07-1.434v-6.359L24 12zm8.93 12c-.542 5.545-4.168 10.455-8.93 12V24h8.93z" fill="#BDC1C6"/><path d="M33 16.207v6.359C33 28.68 29.169 34.322 24 36c-5.169-1.678-9-7.32-9-13.434v-6.359L24 12l9 4.207z" stroke="#BDC1C6" stroke-linejoin="round"/></svg>