<svg width="300" height="130" viewBox="0 0 300 130" fill="none" xmlns="http://www.w3.org/2000/svg"><path d="M245 100H56" stroke="#5F6368" stroke-width="2"/><path d="M69.559 90.418a3 3 0 0 1 4.882 0L82 101H62l7.559-10.582Z" fill="#5F6368"/><path d="M89.09 85.732 99.979 100H75.02l10.89-14.268a2 2 0 0 1 3.179 0Z" stroke="#5F6368" stroke-width="2"/><path fill-rule="evenodd" clip-rule="evenodd" d="M94.368 91 102 101H73l7.632-10h13.736Z" fill="#5F6368"/><path d="M273 44h-21c1.695-4.107 5.758-7 10.5-7s8.805 2.893 10.5 7ZM54 52h15a8.106 8.106 0 0 0-7.5-5 8.106 8.106 0 0 0-7.5 5Z" fill="#1967D2"/><path d="M239 26c-9.941 0-18 8.059-18 18h36c0-9.941-8.059-18-18-18ZM48 39c7.18 0 13 5.82 13 13H35c0-7.18 5.82-13 13-13Z" fill="#1967D2"/><path d="M223.5 33c-6.351 0-11.5 4.925-11.5 11h23c0-6.075-5.149-11-11.5-11Z" fill="#1967D2"/><path d="m226 83-5 18h10l-5-18Z" fill="#5F6368"/><path d="m233 89-4 12h8l-4-12Z" fill="#5F6368"/><rect x="110" y="51" width="88" height="22" rx="5" stroke="#BDC1C6" stroke-width="2"/><circle cx="129" cy="79" r="2" fill="#34A853"/><circle cx="183" cy="44" r="2" fill="#34A853"/><path d="m115 42 3.719 5.586M168.627 35 167 41.51M185 77l5.262 4.164" stroke="#FDD663" stroke-width="2"/><circle cx="146.5" cy="41.5" r="2.5" fill="#5F6368"/><circle cx="159.5" cy="82.5" r="2.5" fill="#5F6368"/><rect x="117" y="58" width="56" height="8" rx="3" fill="#5F6368"/><path d="m179 62 4 4 9-9" stroke="#4285F4" stroke-width="2"/></svg>