<svg width="169" height="400" fill="none" xmlns="http://www.w3.org/2000/svg"><path d="m75.7 64.2-16.3-5.1c-1.7-.5-3.4.4-4 2.1l-5.1 16.3c-.5 1.7.4 3.4 2.1 4l16.3 5.1c1.7.5 3.4-.4 4-2.1l5.1-16.3c.5-1.7-.5-3.4-2.1-4z" fill="#4285F4"/><path d="M103.8 242.101a6.9 6.9 0 1 0 0-13.8 6.9 6.9 0 0 0 0 13.8z" fill="#FBBC05"/><path d="m81.3 277.3-13 11.1c-.7.6-1 1.5-.9 2.4l3.1 16.7c.2.9.8 1.6 1.7 1.9l16.1 5.7c.9.3 1.8.1 2.5-.5l13-11.1c.7-.6 1-1.5.9-2.4l-3.1-16.7c-.2-.9-.8-1.6-1.7-1.9l-16.1-5.7c-.9-.3-1.8-.1-2.5.5zm-42.4 74.001c1.6 2.1 1.2 5.2-1 6.8-2.2 1.6-5.2 1.2-6.8-1-1.6-2.1-1.2-5.2 1-6.8 2.2-1.5 5.2-1.1 6.8 1zm-10.4-5.7c-4.8 3.6-5.7 10.3-2.2 15.1 3.6 4.8 10.3 5.7 15.1 2.2 4.8-3.5 5.7-10.3 2.2-15.1-3.5-4.8-10.3-5.8-15.1-2.2z" fill="#F1F3F4"/><path d="m66.4 164-32.2 18.6c-1.2.7-1.6 2.3-.9 3.5l7.7 13.4c.7 1.2 2.3 1.6 3.5.9l32.2-18.6c1.2-.7 1.6-2.3.9-3.5l-7.7-13.4c-.7-1.2-2.3-1.7-3.5-.9z" stroke="#34A853" stroke-width="2" stroke-miterlimit="10"/><path d="M162.1 81.9c2.8-4.9 1-11.2-3.9-14-4.9-2.8-11.2-1-14 3.9l-13.3 23.5c-2.8 4.9-1 11.2 3.9 14 4.9 2.8 11.2 1 14-3.9l13.3-23.5z" fill="#F1F3F4"/></svg>