<svg width="169" height="400" fill="none" xmlns="http://www.w3.org/2000/svg"><path d="M48.5 181.999c-2.7 0-5.4-1-7.5-3l-19.8-18.4c-2.2-2-3.4-4.8-3.5-7.7-.1-3 .9-5.8 3-8 4.2-4.5 11.2-4.7 15.7-.6l19.8 18.4c2.2 2 3.4 4.8 3.5 7.7.1 3-.9 5.8-3 8-2.3 2.4-5.2 3.6-8.2 3.6zm-19.8-38.9c-2.5 0-5.1 1-6.9 3-1.7 1.9-2.6 4.3-2.5 6.8.1 2.5 1.2 4.9 3 6.6l19.8 18.4c3.8 3.6 9.8 3.3 13.4-.5 1.7-1.9 2.6-4.3 2.5-6.8-.1-2.5-1.2-4.9-3-6.6l-19.8-18.4c-1.8-1.7-4.1-2.5-6.5-2.5z" fill="#E8EAED"/><path d="M75.7 257.401c5.689 0 10.3-4.612 10.3-10.3 0-5.689-4.611-10.3-10.3-10.3-5.688 0-10.3 4.611-10.3 10.3 0 5.688 4.612 10.3 10.3 10.3z" fill="#4285F4"/><path d="m117.201 184-8.7 7.2c-.7.6-1 1.5-.9 2.4l1.9 11.1c.2.9.8 1.7 1.6 2l10.6 3.9c.9.3 1.8.2 2.5-.4l8.7-7.2c.7-.6 1-1.5.9-2.4l-1.9-11.1c-.2-.9-.8-1.7-1.6-2l-10.6-3.9c-.8-.3-1.8-.1-2.5.4z" fill="#FBBC05"/><path d="M111.599 376.2a6.9 6.9 0 1 0 0-13.8 6.9 6.9 0 0 0 0 13.8zm29.501-93.6-33.9 9.1c-1.9.5-2.5 2.9-1.1 4.3l24.8 24.8c1.4 1.4 3.8.8 4.3-1.1l9.1-33.9c.5-2-1.3-3.7-3.2-3.2z" fill="#F1F3F4"/><path d="M91.8 65.1c-3.4 1.8-5.5 4.8-6.2 8.2-.5 2.3-1.8 4.3-3.7 5.6l-.9.6c-1.9 1.3-4.3 1.6-6.6 1.2-3.4-.7-7 .1-10 2.5-4.4 3.5-5.8 9.9-3.2 14.9 3.3 6.601 11.5 8.601 17.5 4.701 2.8-1.8 4.6-4.6 5.2-7.6.5-2.2 1.8-4.2 3.7-5.5l.9-.6c1.9-1.3 4.2-1.7 6.5-1.2 3 .6 6.301.1 9.101-1.7 6-3.9 7.4-12.3 2.7-17.9-3.7-4.6-10-5.8-15-3.2z" stroke="#34A853" stroke-width="2" stroke-miterlimit="10"/></svg>