<svg version="1.1" viewBox="0 0 528 528" xmlns="http://www.w3.org/2000/svg">
  <g fill="none" fill-rule="evenodd">
    <path d="m343.21 164.67-12.826-12.826c-1.77-1.77-1.77-4.642 0-6.412l12.826-12.826c1.77-1.772 4.642-1.772 6.414 0l12.824 12.826c1.772 1.77 1.772 4.642 0 6.412l-12.824 12.826c-1.772 1.77-4.644 1.77-6.414 0" fill="#EA4335"/>
    <path d="m211.74 96.202-12.826-12.826c-1.77-1.77-1.77-4.642 0-6.412l12.826-12.826c1.772-1.77 4.642-1.77 6.414 0l12.826 12.826c1.77 1.77 1.77 4.642 0 6.412l-12.826 12.826c-1.772 1.77-4.642 1.77-6.414 0" fill="#FBBC04"/>
    <path d="m193.11 246.83 12.826-12.826c1.77-1.77 4.642-1.77 6.414 0l12.824 12.826c1.772 1.77 1.772 4.642 0 6.414l-12.824 12.824c-1.772 1.772-4.644 1.772-6.414 0l-12.826-12.824c-1.77-1.772-1.77-4.644 0-6.414" fill="#F1F3F4"/>
    <path d="m258.02 131.36c-4.428-4.428-4.428-11.604 0-16.032l9.62-9.62c4.426-4.426 11.604-4.426 16.032 0 4.426 4.428 4.426 11.606 0 16.032l-9.62 9.62c-4.428 4.426-11.606 4.426-16.032 0" fill="#4285F4"/>
    <path d="m267.53 204.72c-4.428-4.428-4.428-11.604 0-16.032l9.62-9.62c4.426-4.428 11.604-4.428 16.032 0 4.426 4.428 4.426 11.606 0 16.032l-9.62 9.62c-4.428 4.426-11.606 4.426-16.032 0" fill="#F1F3F4"/>
    <path d="m293.7 194.58 1.482-1.482c4.428-4.428 4.428-11.604 0-16.032-4.426-4.426-11.606-4.426-16.032 0l-9.618 9.618c-1.49 1.49-2.434 3.302-2.922 5.204 9.242 0.136 18.292 1.054 27.09 2.692" fill="#FBBC04"/>
    <path d="m174.14 150.56 23.894 6.402c3.372 0.904 4.5 5.118 2.032 7.586l-17.49 17.492c-2.47 2.468-6.684 1.34-7.588-2.032l-6.402-23.894c-0.904-3.372 2.182-6.458 5.554-5.554" fill="#34A853"/>
    <path d="m302.77 237.85 23.894 6.402c3.372 0.904 4.5 5.118 2.032 7.586l-17.49 17.492c-2.47 2.468-6.684 1.34-7.588-2.032l-6.402-23.894c-0.904-3.372 2.182-6.458 5.554-5.554" fill="#F1F3F4"/>
    <path d="m318 34c0 7.732-6.268 14-14 14s-14-6.268-14-14 6.268-14 14-14 14 6.268 14 14" fill="#34A853"/>
    <path d="m424 350c0 88.366-71.634 160-160 160s-160-71.634-160-160 71.634-160 160-160 160 71.634 160 160z" stroke="#DADCE0" stroke-width="8"/>
    <path d="m274 367.62 22.383-22.332 14.126 14.158-46.787 46.681-46.785-46.681 14.126-14.158 22.937 22.886v-70.172h20v69.618z" fill="#DADCE0" fill-rule="nonzero"/>
    <path d="m202 302 124 124" stroke="#DADCE0" stroke-width="8"/>
  </g>
</svg>
