<svg width="400" height="400" viewBox="0 0 400 400" fill="none" xmlns="http://www.w3.org/2000/svg"><g clip-path="url(#clip0)"><path fill="#fff" d="M0 0h400v400H0z"/><path d="M184.999 240.675c.844 17.309 0 20.684.856 32.432M134.326 247.259c5.113-35.449 5.216-43.4 11.3-78.58-14.125-3.387-34.911-7.759-52.105-12.872-6.493 26.474-12.642 46.825-16.822 73.747-1.892 12.144-3.541 24.429-2.647 36.688.895 12.259 4.526 24.608 12.221 34.182a47.47 47.47 0 0 0 43.719 16.798M220.051 166.034c-1.393 3.835-2.314 7.823-4.487 13.614M245.375 167.095a103.102 103.102 0 0 0 4.755 10.457" stroke="#4285F4" stroke-width="3.835" stroke-linecap="round" stroke-linejoin="round"/><path d="M329.51 118.229l38.173-16.558a4.54 4.54 0 0 0 2.357-5.97l-16.559-38.173a4.538 4.538 0 0 0-5.969-2.357L309.339 71.73a4.538 4.538 0 0 0-2.357 5.969l16.558 38.173a4.539 4.539 0 0 0 5.97 2.357z" stroke="#34A853" stroke-width="3.835" stroke-linecap="round" stroke-linejoin="round"/><path d="M325.028 142.819c10.103 0 18.293-8.19 18.293-18.293s-8.19-18.293-18.293-18.293-18.293 8.19-18.293 18.293 8.19 18.293 18.293 18.293z" fill="#EA4335"/><path d="M233.998 170.149c12.51 0 22.652-10.141 22.652-22.652 0-12.51-10.142-22.652-22.652-22.652-12.511 0-22.653 10.142-22.653 22.652 0 12.511 10.142 22.652 22.653 22.652z" stroke="#4285F4" stroke-width="3.835" stroke-linecap="round" stroke-linejoin="round"/><path d="M225.803 117.163c-.345-2.838.755-6.06 3.311-7.351a7.065 7.065 0 0 1 6.392.396 19.398 19.398 0 0 1 4.986 4.321c4.051 4.61 7.833 9.45 11.326 14.497a67.438 67.438 0 0 1 4.665 8.066c.946 2.16-1.725 1.138-3.183 2.429a5.109 5.109 0 0 1-3.144 1.201c-3.222.166-6.072-1.956-8.591-3.963l-8.143-6.391c-5.1-4.04-6.826-6.494-7.619-13.205z" fill="#4285F4"/><path d="M238.753 140.837a39.186 39.186 0 0 0 18.536 11.365c0-2.467.601-5.229-.614-7.376-15.774-27.906-29.823-23.01-28.532-19.853a42.581 42.581 0 0 0 5.752 10.01 58.981 58.981 0 0 0 4.858 5.854z" fill="#4285F4"/><path d="M287.394 299.875v29.951a14.355 14.355 0 0 1-14.356 14.356h-247a14.353 14.353 0 0 1-14.355-14.356v-52.654a14.343 14.343 0 0 1 14.355-14.305h226.495c6.737 0 13.346 2.455 19.431 5.344a28.498 28.498 0 0 1 5.932 4.435 25.581 25.581 0 0 1 4.678 5.344c3.631 6.213 3.899 14.752 4.82 21.885z" fill="#D2E3FC"/><path d="M350.083 154.452l-3.324 30.987a1.871 1.871 0 0 0 .76 1.711 1.877 1.877 0 0 0 1.861.206l28.494-12.617c.301-.132.562-.341.757-.606a1.875 1.875 0 0 0 .199-1.862 1.855 1.855 0 0 0-.611-.753l-25.183-18.344a1.867 1.867 0 0 0-2.953 1.278z" fill="#FBBC05"/><path d="M187.287 276.392l-21.552-3.247a3.819 3.819 0 0 0-2.855.703 3.827 3.827 0 0 0-1.517 2.518l-7.287 48.18a3.828 3.828 0 0 0 .708 2.859 3.843 3.843 0 0 0 2.526 1.513l32.956 4.973a3.834 3.834 0 0 0 4.385-3.221l5.547-36.765-7.912-7.67-4.999-9.843z" fill="#4285F4"/><path d="M165.952 314.665l20.274 3.068.384-2.556-20.287-3.056-.371 2.544zm-.767 5.114l15.212 2.288.384-2.557-15.213-2.301-.383 2.57zm2.672-17.757l-.384 2.557 20.287 3.055.384-2.556-20.287-3.056zm-1.151 7.67l20.287 3.068.384-2.556-20.287-3.068-.384 2.556z" fill="#F1F1F1"/><path d="M187.287 276.392l-1.725 11.416a3.84 3.84 0 0 0 3.221 4.372l11.415 1.725-12.911-17.513z" fill="#A1C2FA"/><path d="M165.735 273.145a3.819 3.819 0 0 0-2.855.703 3.827 3.827 0 0 0-1.517 2.518v.32a3.835 3.835 0 0 1 4.372-3.222l21.552 3.247v-.319l-21.552-3.247z" fill="#fff" fill-opacity=".2"/><path d="M190.317 333.584l-32.955-4.985a3.831 3.831 0 0 1-3.166-2.872c-.121-.491-.145-1-.069-1.5v.32a3.843 3.843 0 0 0 .709 2.858 3.839 3.839 0 0 0 2.526 1.514l32.955 4.972a3.833 3.833 0 0 0 4.385-3.221v-.32a3.844 3.844 0 0 1-2.881 3.17 3.848 3.848 0 0 1-1.504.064z" fill="#1A237E" fill-opacity=".2"/><path d="M188.783 292.179a3.842 3.842 0 0 1-2.518-1.518 3.84 3.84 0 0 1-.703-2.854v.32a3.83 3.83 0 0 0 3.234 4.372l11.402 1.725v-.319l-11.415-1.726z" fill="#1A237E" fill-opacity=".1"/><path d="M54.456 96.198l-6.942 15.967 38.478 16.72 15.941-12.042-47.477-20.645z" fill="#4285F4"/><path d="M63.391 100.455l37.877 16.478.665-.077-38.222-16.618-.32.217z" fill="#fff" fill-opacity=".2"/><path d="M101.268 116.933l-15.34 11.582-38.158-16.58-.307.23 38.53 16.72 15.94-12.042-.665.09z" fill="#1A237E" fill-opacity=".2"/><path d="M63.75 100.609v-.384l-16.236 11.94.358.153 15.877-11.709z" fill="#1A237E" fill-opacity=".05"/><path d="M78.91 67.423L45.468 92.286l2.046 19.879 37.979-28.022-6.583-16.72z" fill="#0F9D58"/><path d="M78.91 67.423l-.23.984 2.173 18.766-33.083 24.365-1.956-19.098-.358-.154 2.046 19.879 33.684-24.839-2.276-19.903z" fill="#263238" fill-opacity=".1"/><path d="M45.826 92.44l33.122-24.634v-.383l-33.48 24.863.358.154z" fill="#fff" fill-opacity=".2"/><path d="M97.33 75.438l-18.42-8.015 4.781 41.495 18.242 7.938-4.602-41.418z" fill="#FFCD40"/><path d="M97.33 75.438l-18.42-8.015.396.537 17.718 7.67 4.551 41.034.358.154-4.602-41.38z" fill="#fff" fill-opacity=".2"/><path d="M83.998 108.687L79.306 67.96l-.396-.537 4.781 41.495.307-.231z" fill="#BF360C" fill-opacity=".1"/><path d="M97.33 75.438l-18.42-8.015 4.781 41.495 18.242 7.938-4.602-41.418z" fill="#FFCD40"/><path d="M63.71 100.225l17.488-12.898 2.493 21.591-19.98-8.693z" fill="url(#paint0_radial)"/><path d="M221.726 295.362l42.044-.945.69 30.616-42.044.946-.69-30.617z" fill="#E1E1E1"/><path d="M243.087 310.204l-20.671 15.775 42.044-.946-.652-30.616-20.721 15.787z" fill="#EEE"/><path d="M215.423 290.249l6.175-.141.818 35.87-6.187.141-.806-35.87z" fill="#D23F31"/><path d="M263.655 289.163l6.187-.141.805 35.87-6.187.141-.805-35.87z" fill="#C53929"/><path d="M266.045 285.392l-23.137 16.618-23.841-15.557-3.708.089.09 3.707a3.675 3.675 0 0 0 1.675 3.017l25.988 16.938 25.209-18.088a3.728 3.728 0 0 0 1.547-3.094l-.09-3.707-3.733.077z" fill="#DB4437"/><path d="M266.045 285.391l-.447.32h.447a3.727 3.727 0 0 1 3.513 2.209c.199.448.309.931.322 1.421v-.307a3.73 3.73 0 0 0-3.835-3.643zm-47.004 1.061l.46.294h-.434a3.725 3.725 0 0 0-2.61 1.165 3.736 3.736 0 0 0-1.021 2.67v-.307a3.735 3.735 0 0 1 1.022-2.665 3.723 3.723 0 0 1 2.609-1.157h-.026z" fill="#fff" fill-opacity=".2"/><path d="M219.067 286.452l23.866 15.545 23.138-16.619-47.004 1.074z" fill="#F1F1F1"/><path d="M219.067 286.453l.46.294 46.097-1.036.447-.319-47.004 1.061z" fill="#262626" fill-opacity=".02"/><path d="M97.702 321.658l42.658-12.272 2.735 9.485-42.67 12.272-2.723-9.485z" fill="#34A853"/><path d="M136.269 295.158l-27.471-15.187-4.935 8.476 24.033 13.294 5.714 19.853 9.485-2.723-2.965-10.303-3.861-13.41z" fill="#3E82F7"/><path d="M93.611 307.443l9.472-2.736 6.827 23.713-9.485 2.723-6.814-23.7z" fill="#FDBD00"/><path d="M108.798 279.971l-15.187 27.472 3.835 13.333 20.044-36.254-8.692-4.551z" fill="#EB4335"/><path opacity=".2" d="M135.489 294.749l-24.531-13.576a2.466 2.466 0 0 0-3.349.959l-13.55 24.544a2.352 2.352 0 0 0-.192 1.649l.076.294a2.365 2.365 0 0 1 .205-1.649l13.55-24.544c.328-.561.852-.98 1.47-1.176a2.557 2.557 0 0 1 1.88.217l24.531 13.602a2.34 2.34 0 0 1 1.035 1.278l-.077-.294a2.327 2.327 0 0 0-1.048-1.304z" fill="#fff"/><path opacity=".2" d="M102.738 330.159a2.465 2.465 0 0 1-2.613-.832 2.471 2.471 0 0 1-.442-.856l.09.307a2.481 2.481 0 0 0 1.178 1.477 2.47 2.47 0 0 0 1.877.21l7.107-2.045-.089-.307-7.108 2.046z" fill="#BF360C"/><path opacity=".2" d="M140.641 319.254l-7.108 2.045.077.294 7.108-2.045a2.482 2.482 0 0 0 1.7-3.055l-.09-.294a2.478 2.478 0 0 1-1.687 3.055z" fill="#1A237E"/><path opacity=".2" d="M121.67 324.713l-11.85 3.4.09.307 23.7-6.826-.077-.294-11.863 3.413z" fill="#263238"/><path opacity=".2" d="M119.037 315.522l-11.85 3.413.077.294 23.7-6.827-.077-.294-11.85 3.414z" fill="#fff"/><path d="M135.489 294.749l-24.531-13.576a2.466 2.466 0 0 0-3.349.959l-13.55 24.544a2.352 2.352 0 0 0-.192 1.649l5.88 20.453a2.464 2.464 0 0 0 3.055 1.688l37.916-10.917a2.486 2.486 0 0 0 1.48-1.177 2.485 2.485 0 0 0 .22-1.878l-5.893-20.454a2.251 2.251 0 0 0-1.036-1.291zm-4.627 17.36l-23.701 6.826-2.991-10.367 8.437-15.263 15.263 8.437 2.992 10.367z" fill="url(#paint1_radial)"/><path opacity=".2" d="M112.786 293.036l-.153.269 15.263 8.437-.115-.422-14.995-8.284z" fill="#1A237E"/><path opacity=".2" d="M104.081 308.146l.115.421 8.437-15.263.153-.268-.268-.154-8.437 15.264z" fill="#3E2723"/><path d="M215.564 179.647c-10.827 0-28.008 2.442-36.215 6.009-19.929 8.667-32.943 24.352-42.402 44.204M282.574 277.99c7.095 15.685 11.799 30.412 19.929 45.624 6.622 12.4 20.352 22 34.515 21.846 17.897-.191 29.786-15.033 32.802-31.204 3.401-18.242-2.416-37.301-9.792-53.843a206.062 206.062 0 0 0-13.256-24.813 214.864 214.864 0 0 0-2.467-3.835c-14.893-23.01-35.039-44.588-62.856-50.711a159.117 159.117 0 0 0-31.37-3.439" stroke="#4285F4" stroke-width="3.835" stroke-linecap="round" stroke-linejoin="round"/><path d="M282.613 277.772c8.385-4.41 35.627-26.09 35.627-26.09s10.124 11.696 12.463 13.946c28.635 27.676 28.635 45.394 28.635 45.394M267.094 254.763a52.407 52.407 0 0 0-25.222-1.279 23.86 23.86 0 0 0-6.532 2.123c-1.956 1.035-3.835 2.914-3.554 5.113a4.626 4.626 0 0 0 3.835 3.554c1.855.244 3.74.149 5.561-.282a51.75 51.75 0 0 1 23.253.959c7.491 2.263 14.407 7.018 18.318 13.793" stroke="#4285F4" stroke-width="3.835" stroke-linecap="round" stroke-linejoin="round"/><path d="M233.128 256.987a4.323 4.323 0 0 1-2.697-4.704 6.809 6.809 0 0 1 3.528-4.257 27.307 27.307 0 0 1 9.14-3.132c9.422-1.777 15.903-1.483 26.641 1.201M271.964 236.662c-7.67-2.122-11.313-2.826-21.348-2.468a37.222 37.222 0 0 0-14.765 3.72 9.03 9.03 0 0 0-4.461 4.053c-.818 1.866-.269 4.461 1.611 5.292" stroke="#4285F4" stroke-width="3.835" stroke-linecap="round" stroke-linejoin="round"/><path d="M233.652 238.067c-2.109-.485-2.927-3.323-2.019-5.279a8.95 8.95 0 0 1 4.947-3.963 41.307 41.307 0 0 1 11.888-2.659c18.575-1.738 39.514 3.835 54.675 16.618a60.112 60.112 0 0 1 11.351 11.812M108.951 159.565a128.31 128.31 0 0 1-8.245-33.697c-.294-2.557.345-6.929 3.758-6.392 5.957.908 4.513 9.255 8.744 12.438a4.404 4.404 0 0 0 1.607.803 4.408 4.408 0 0 0 1.793.092c2.237-.447 3.413-2.147 4.474-4.001a21.898 21.898 0 0 0 2.416-7.312 8.063 8.063 0 0 0-.588-5.254 6.09 6.09 0 0 0-4.18-2.493c-4.18-.741-10.802 2.557-13.052-1.086-1.828-2.992 3.503-6.392 5.83-7.236a24.017 24.017 0 0 1 8.692-1.534c3.516 0 8.156.524 10.7 3.247a9.157 9.157 0 0 1 2.416 5.126 36.232 36.232 0 0 1-1.687 15.532c3.017-8.168 3.336-18.663-2.557-25.848-1.547-1.866-3.17-4.384-2.084-6.545a4.002 4.002 0 0 1 4.986-1.483 9.595 9.595 0 0 1 4.09 3.835c5.906 8.949 6.776 19.968 4.334 31" stroke="#4285F4" stroke-width="3.835" stroke-linecap="round" stroke-linejoin="round"/><path d="M135.323 95.431a3.31 3.31 0 0 1 2.787-1.956 5.753 5.753 0 0 1 3.426.882c3.835 2.225 5.471 6.814 6.2 11.148a60.683 60.683 0 0 1-.895 23.93" stroke="#4285F4" stroke-width="3.835" stroke-linecap="round" stroke-linejoin="round"/><path d="M144.77 97.438a3.074 3.074 0 0 1 1.316-2.58 3.07 3.07 0 0 1 2.877-.335 6.237 6.237 0 0 1 3.208 3.35c2.711 4.947 3.478 15.762 2.314 23.253-3.017 19.507-5.113 28.673-8.859 47.554" stroke="#4285F4" stroke-width="3.835" stroke-linecap="round" stroke-linejoin="round"/><mask id="a" maskUnits="userSpaceOnUse" x="306" y="106" width="38" height="37"><path d="M325.028 142.819c10.103 0 18.293-8.19 18.293-18.293s-8.19-18.293-18.293-18.293-18.293 8.19-18.293 18.293 8.19 18.293 18.293 18.293z" fill="#EA4335"/></mask><g mask="url(#a)"><path d="M329.509 118.228l38.174-16.558a4.54 4.54 0 0 0 2.357-5.97l-16.559-38.173a4.538 4.538 0 0 0-5.969-2.357L309.339 71.73a4.538 4.538 0 0 0-2.357 5.969l16.558 38.173a4.538 4.538 0 0 0 5.969 2.357z" stroke="#fff" stroke-width="3.835" stroke-linecap="round" stroke-linejoin="round"/></g><path d="M59.109 276.724l-30.156 22.422 1.854 17.91" stroke="#fff" stroke-width="3.835" stroke-miterlimit="10"/><path d="M73.196 282.848l-11.505-5.024a4.757 4.757 0 0 0-4.743.55l-25.77 19.175a4.766 4.766 0 0 0-1.893 4.307l1.279 12.464a4.792 4.792 0 0 0 2.837 3.835l29.594 12.873a4.741 4.741 0 0 0 4.768-.562l9.997-7.555a4.723 4.723 0 0 0 1.853-4.321l-3.54-31.958a4.76 4.76 0 0 0-2.877-3.784v0z" stroke="#fff" stroke-width="3.835" stroke-miterlimit="10"/><path d="M220.447 145.235c0 2.263 2.033 4.883 4.168 6.021a10.226 10.226 0 0 0 7.299.792" stroke="#4285F4" stroke-width="3.835" stroke-linecap="round" stroke-linejoin="round"/><path d="M214.388 123.989c-.703-2.301-1.278-5.919-.307-8.13a5.642 5.642 0 0 1 2.736-2.813 7.966 7.966 0 0 1 7.58.512 10.596 10.596 0 0 1 2.889 3.835l4.398 8.053a38.365 38.365 0 0 0-8.603 3.439c-1.777.895-5.369 2.927-5.369 2.927a47.87 47.87 0 0 1-3.324-7.823z" fill="#4285F4"/><path d="M214.72 179.596c2.34 4.244 7.133 6.584 11.889 7.529a23.548 23.548 0 0 0 13.908-.92c4.858-2.135 6.558-4.218 9.613-8.654" stroke="#4285F4" stroke-width="3.835" stroke-linecap="round" stroke-linejoin="round"/></g><defs><radialGradient id="paint0_radial" cx="0" cy="0" r="1" gradientUnits="userSpaceOnUse" gradientTransform="rotate(23.499 -213.008 223.056) scale(21.7755)"><stop stop-color="#fff" stop-opacity=".1"/><stop offset="1" stop-color="#fff" stop-opacity="0"/></radialGradient><radialGradient id="paint1_radial" cx="0" cy="0" r="1" gradientUnits="userSpaceOnUse" gradientTransform="rotate(-39.07 15308.591 -21721.093) scale(3272.13 3338.18)"><stop stop-color="#fff" stop-opacity=".1"/><stop offset="1" stop-color="#fff" stop-opacity="0"/></radialGradient><clipPath id="clip0"><path fill="#fff" d="M0 0h400v400H0z"/></clipPath></defs></svg>