<svg width="1200" height="592" viewBox="0 0 1200 592" fill="none" xmlns="http://www.w3.org/2000/svg">
<g clip-path="url(#clip0)">
<rect width="1200" height="592" fill="white"/>
<g clip-path="url(#clip1)">
<rect width="956" height="728.381" transform="translate(122 -68.1904)" fill="white"/>
<path d="M282.159 450.098H1057.46" stroke="#D2E3FC" stroke-width="5.69048" stroke-linecap="round" stroke-linejoin="round"/>
<path d="M684.646 210.287L627.208 227.359L620.272 217.934L612.626 204.953L608.002 175.967L602.312 159.607L587.374 137.734L592.353 132.043L614.938 160.851L593.776 130.976L601.067 124.752L624.718 152.138L642.679 150.893L665.796 167.075L684.646 210.287Z" fill="#D2E3FC"/>
<path d="M593.712 131.517C592.877 131.449 592.037 131.567 591.252 131.862C590.468 132.156 589.758 132.62 589.173 133.221C588.589 133.822 588.145 134.544 587.872 135.337C587.599 136.129 587.504 136.972 587.595 137.805C588.392 140.803 590.019 143.515 592.29 145.63C600.25 155.031 605.641 166.333 607.939 178.435C609.703 187.881 610.784 199.49 614.17 208.31C617.108 215.476 621.912 221.725 628.083 226.406" fill="#D2E3FC"/>
<path d="M593.712 131.517C592.877 131.449 592.037 131.567 591.252 131.862C590.468 132.156 589.758 132.62 589.173 133.221C588.589 133.822 588.145 134.544 587.872 135.337C587.599 136.129 587.504 136.972 587.595 137.805C588.392 140.803 590.019 143.515 592.29 145.63C600.25 155.031 605.641 166.333 607.939 178.435C609.703 187.881 610.784 199.49 614.17 208.31C617.108 215.476 621.912 221.725 628.083 226.406" stroke="#4285F4" stroke-width="5.69048" stroke-linecap="round" stroke-linejoin="round"/>
<path d="M683.992 211.24C682.005 191.893 681.853 172.402 683.537 153.027C684.055 149.741 683.851 146.381 682.939 143.182C682.439 141.596 681.422 140.224 680.05 139.285C678.678 138.346 677.03 137.895 675.371 138.004C671.928 138.601 669.993 142.215 668.855 145.487C666.621 152.113 665.656 159.102 666.01 166.086C658.007 172.93 652.636 182.346 650.816 192.718" fill="#D2E3FC"/>
<path d="M683.992 211.24C682.005 191.893 681.853 172.402 683.537 153.027C684.055 149.741 683.851 146.381 682.939 143.182C682.439 141.596 681.422 140.224 680.05 139.285C678.678 138.346 677.03 137.895 675.371 138.004C671.928 138.601 669.993 142.215 668.855 145.487C666.621 152.113 665.656 159.102 666.01 166.086C658.007 172.93 652.636 182.346 650.816 192.718" stroke="#4285F4" stroke-width="5.69048" stroke-linecap="round" stroke-linejoin="round"/>
<path d="M601.024 124.29C600.406 123.691 599.65 123.253 598.823 123.014C597.996 122.775 597.123 122.743 596.28 122.919C595.438 123.096 594.652 123.477 593.991 124.029C593.329 124.58 592.814 125.285 592.489 126.082C592.331 127.145 592.4 128.228 592.689 129.263C592.978 130.297 593.482 131.259 594.167 132.086C601.252 142.869 612.405 151.234 616.36 163.383" fill="#D2E3FC"/>
<path d="M601.024 124.29C600.406 123.691 599.65 123.253 598.823 123.014C597.996 122.775 597.123 122.743 596.28 122.919C595.438 123.096 594.652 123.477 593.991 124.029C593.329 124.58 592.814 125.285 592.489 126.082C592.331 127.145 592.4 128.228 592.689 129.263C592.978 130.297 593.482 131.259 594.167 132.086C601.252 142.869 612.405 151.234 616.36 163.383" stroke="#4285F4" stroke-width="5.69048" stroke-linecap="round" stroke-linejoin="round"/>
<path d="M664.445 166.371C659.324 150.267 653.747 135.073 643.532 122.042C640.488 118.116 636.903 113.905 632.009 112.397C630.904 112.022 629.717 111.961 628.579 112.22C627.441 112.479 626.397 113.049 625.563 113.865C624.729 114.681 624.138 115.713 623.854 116.845C623.571 117.977 623.606 119.165 623.957 120.278C624.908 123.349 626.487 126.188 628.595 128.615C634.988 136.787 639.715 146.135 642.508 156.128" fill="#D2E3FC"/>
<path d="M664.445 166.371C659.324 150.267 653.747 135.073 643.532 122.042C640.488 118.116 636.903 113.905 632.009 112.397C630.904 112.022 629.717 111.961 628.579 112.22C627.441 112.479 626.397 113.049 625.563 113.865C624.729 114.681 624.138 115.713 623.854 116.845C623.571 117.977 623.606 119.165 623.957 120.278C624.908 123.349 626.487 126.188 628.595 128.615C634.988 136.787 639.715 146.135 642.508 156.128" stroke="#4285F4" stroke-width="5.69048" stroke-linecap="round" stroke-linejoin="round"/>
<path d="M642.138 156.214C635.32 143.641 626.692 132.137 616.531 122.071C613.117 118.657 608.82 115.214 604.069 115.897C603.252 115.939 602.46 116.192 601.769 116.63C601.078 117.068 600.512 117.677 600.126 118.398C599.739 119.119 599.546 119.928 599.564 120.746C599.582 121.564 599.81 122.363 600.228 123.067C601.078 124.71 602.182 126.208 603.5 127.505C612.036 137.122 622.307 147.422 627.428 159.401" fill="#D2E3FC"/>
<path d="M642.138 156.214C635.32 143.641 626.692 132.137 616.531 122.071C613.117 118.657 608.82 115.214 604.069 115.897C603.252 115.939 602.46 116.192 601.769 116.63C601.078 117.068 600.512 117.677 600.126 118.398C599.739 119.119 599.546 119.928 599.564 120.746C599.582 121.564 599.81 122.363 600.228 123.067C601.078 124.71 602.182 126.208 603.5 127.505C612.036 137.122 622.307 147.422 627.428 159.401" stroke="#4285F4" stroke-width="5.69048" stroke-linecap="round" stroke-linejoin="round"/>
<path d="M913.716 313.469L923.76 372.11" stroke="#4285F4" stroke-width="5.69048" stroke-linecap="round" stroke-linejoin="round"/>
<path d="M873.498 394.605C871.72 392.471 863.214 389.27 859.183 387.937L840.511 399.229L824.507 411.854L814.637 419.323C814.133 424.391 812.841 435.399 811.703 438.884C810.28 443.241 810.458 447.242 814.637 449.109C817.98 450.603 821.721 447.361 823.173 445.553L840.511 421.012C841.134 421.338 842.485 422.097 842.912 422.524C843.445 423.057 848.158 433.283 851.092 437.639C854.026 441.996 863.362 446.62 866.918 448.309C869.764 449.66 882.33 449.88 888.258 449.82C888.91 448.487 890.214 445.357 890.214 443.508C890.214 441.196 891.992 432.216 891.548 427.77C891.192 424.213 887.606 414.018 885.857 409.365C882.478 405.334 875.276 396.739 873.498 394.605Z" fill="#D2E3FC"/>
<path d="M812.368 320.469C808.584 335.947 814.645 357.457 819.225 372.566C820.378 376.156 821.216 379.84 821.729 383.577" stroke="#4285F4" stroke-width="5.69048" stroke-linecap="round" stroke-linejoin="round"/>
<path d="M729.658 369.265C706.896 295.289 684.134 211.24 684.134 211.24L610.158 231.299C598.777 257.788 597.269 280.949 606.772 308.121C614.283 329.716 621.539 351.425 627.485 373.561C635.85 404.631 652.096 438.546 685.499 446.797C713.44 453.711 750.513 445.659 772.991 427.706" stroke="#4285F4" stroke-width="5.69048" stroke-linecap="round" stroke-linejoin="round"/>
<path d="M782.835 443.27C782.705 444.521 782.255 445.719 781.527 446.745C780.799 447.772 779.819 448.594 778.681 449.131C777.532 449.459 776.323 449.517 775.148 449.299C773.973 449.082 772.865 448.596 771.909 447.879C771.108 446.862 770.532 445.687 770.218 444.432C769.904 443.177 769.86 441.869 770.088 440.595C770.784 434.867 772.189 429.247 774.271 423.865C778.279 414.262 783.718 405.322 790.403 397.347C795.211 391.344 803.121 385.511 810.832 385.312C812.482 385.312 814.132 385.511 815.783 385.312C820.534 384.857 824.745 381.272 829.497 381.613C832.769 381.869 835.642 383.946 838.886 384.458C842.12 384.627 845.362 384.456 848.56 383.946C853.852 383.747 856.242 386.336 861.591 388.47" fill="#D2E3FC"/>
<path d="M782.835 443.27C782.705 444.521 782.255 445.719 781.527 446.745C780.799 447.772 779.819 448.594 778.681 449.131C777.532 449.459 776.323 449.517 775.148 449.299C773.973 449.082 772.865 448.596 771.909 447.879C771.108 446.862 770.532 445.687 770.218 444.432C769.904 443.177 769.86 441.869 770.088 440.595C770.784 434.867 772.189 429.247 774.271 423.865C778.279 414.262 783.718 405.322 790.403 397.347C795.211 391.344 803.121 385.511 810.832 385.312C812.482 385.312 814.132 385.511 815.783 385.312C820.534 384.857 824.745 381.272 829.497 381.613C832.769 381.869 835.642 383.946 838.886 384.458C842.12 384.627 845.362 384.456 848.56 383.946C853.852 383.747 856.242 386.336 861.591 388.47" stroke="#4285F4" stroke-width="5.69048" stroke-linecap="round" stroke-linejoin="round"/>
<path d="M889.531 448.704C892.102 439.327 892.268 429.453 890.015 419.995C887.527 409.958 881.722 401.055 873.541 394.729C869.944 391.997 865.901 389.908 861.591 388.555C864.237 382.865 871.123 380.304 877.069 378.512C883.084 377.001 889.28 376.34 895.478 376.548C912.834 376.321 928.141 370.004 945.383 368.155C960.471 366.796 975.601 370.252 988.602 378.028" stroke="#4285F4" stroke-width="5.69048" stroke-linecap="round" stroke-linejoin="round"/>
<path d="M426.441 198.892C426.759 199.182 427.013 199.536 427.187 199.93C427.361 200.325 427.451 200.751 427.451 201.182C427.451 201.613 427.361 202.039 427.187 202.434C427.013 202.828 426.759 203.182 426.441 203.472C419.051 209.93 409.498 213.363 399.688 213.085C389.879 212.807 380.535 208.84 373.522 201.975C366.51 195.109 362.345 185.852 361.859 176.05C361.373 166.249 364.602 156.625 370.902 149.1C371.177 148.759 371.52 148.48 371.91 148.281C372.299 148.081 372.727 147.966 373.164 147.942C373.601 147.918 374.038 147.985 374.447 148.141C374.856 148.296 375.228 148.536 375.539 148.844L426.441 198.892Z" fill="#FBBC05"/>
<path opacity="0.56" d="M507.302 199.689C512.629 199.689 516.948 195.371 516.948 190.044C516.948 184.717 512.629 180.398 507.302 180.398C501.975 180.398 497.657 184.717 497.657 190.044C497.657 195.371 501.975 199.689 507.302 199.689Z" fill="#E4E4E4"/>
<path d="M796.321 446.428C795.539 447.454 794.519 448.276 793.35 448.821C792.18 449.366 790.895 449.619 789.606 449.558C788.317 449.485 787.071 449.063 786.004 448.336C784.936 447.609 784.086 446.605 783.546 445.432C782.666 442.859 782.666 440.067 783.546 437.494C788.099 423.054 795.762 409.787 805.995 398.628" fill="#D2E3FC"/>
<path d="M796.321 446.428C795.539 447.454 794.519 448.276 793.35 448.821C792.18 449.366 790.895 449.619 789.606 449.558C788.317 449.485 787.071 449.063 786.004 448.336C784.936 447.609 784.086 446.605 783.546 445.432C782.666 442.859 782.666 440.067 783.546 437.494C788.099 423.054 795.762 409.787 805.995 398.628" stroke="#4285F4" stroke-width="5.69048" stroke-linecap="round" stroke-linejoin="round"/>
<path d="M809.751 445.318C808.675 446.842 807.169 448.011 805.426 448.676C804.186 449.304 802.78 449.527 801.407 449.312C800.033 449.098 798.762 448.457 797.772 447.481C794.927 444.18 796.35 436.953 797.772 433.255C801.215 424.065 817.831 401.359 821.046 398.6" fill="#D2E3FC"/>
<path d="M809.751 445.318C808.675 446.842 807.169 448.011 805.426 448.676C804.186 449.304 802.78 449.527 801.407 449.312C800.033 449.098 798.762 448.457 797.772 447.481C794.927 444.18 796.35 436.953 797.772 433.255C801.215 424.065 817.831 401.359 821.046 398.6" stroke="#4285F4" stroke-width="5.69048" stroke-linecap="round" stroke-linejoin="round"/>
<path d="M839.455 399.652C831.772 406.196 816.92 428.105 814.9 432.031C812.971 435.317 811.678 438.937 811.088 442.701C810.775 445.888 812.112 449.216 815.725 449.359C817.621 449.39 819.473 448.789 820.989 447.652C824.745 444.806 839.398 422.044 841.133 419.199C844.519 426.654 846.198 431.775 851.518 438.092C856.401 443.531 862.997 447.135 870.212 448.306C873.996 449.017 886.714 448.477 900.513 448.534H974.916C994.833 448.534 1011.9 435.332 1019.39 417.236C1028.26 396.181 1022.97 372.139 1014.44 351.795C1008.4 337.852 1000.93 324.57 992.159 312.161C977.322 290.047 956.262 272.829 931.64 262.683C918.436 257.926 904.676 254.885 890.697 253.635M845.458 255.626C831.48 256.787 817.8 260.308 804.999 266.04C784.445 275.526 765.722 288.557 749.687 304.536C739.342 315.233 729.758 326.642 721.007 338.679" stroke="#4285F4" stroke-width="5.69048" stroke-linecap="round" stroke-linejoin="round"/>
<path d="M150.453 331.764C150.966 326.053 153.721 320.777 158.115 317.093C162.509 313.408 168.184 311.614 173.897 312.104L224.429 316.485C227.261 316.729 230.017 317.529 232.54 318.84C235.062 320.151 237.301 321.947 239.127 324.125C240.954 326.303 242.333 328.821 243.184 331.533C244.036 334.245 244.343 337.099 244.089 339.93V339.93C243.842 342.761 243.04 345.515 241.728 348.036C240.416 350.557 238.619 352.794 236.442 354.62C234.265 356.446 231.749 357.824 229.038 358.677C226.327 359.53 223.475 359.841 220.645 359.591L170.085 355.237C164.37 354.724 159.093 351.964 155.412 347.563C151.731 343.162 149.947 337.48 150.453 331.764V331.764Z" stroke="#E6E7EA" stroke-width="5.69048" stroke-linecap="round" stroke-linejoin="round"/>
<path d="M191.168 406.367L172.588 417.093C171.98 417.446 171.475 417.952 171.124 418.561C170.773 419.17 170.588 419.861 170.588 420.564C170.588 421.267 170.773 421.958 171.124 422.568C171.475 423.177 171.98 423.683 172.588 424.036L191.168 434.762C191.778 435.118 192.471 435.306 193.177 435.308C193.883 435.31 194.577 435.125 195.189 434.773C195.801 434.421 196.309 433.914 196.662 433.302C197.015 432.691 197.201 431.997 197.2 431.291V409.809C197.196 409.106 197.007 408.415 196.651 407.808C196.296 407.201 195.788 406.697 195.177 406.348C194.566 406 193.873 405.818 193.17 405.821C192.466 405.824 191.776 406.012 191.168 406.367Z" fill="#EA4335"/>
<path d="M755.862 249.68V442.103C755.773 444.823 754.609 447.396 752.624 449.258C750.64 451.119 747.998 452.118 745.278 452.033H460.583C459.234 452.079 457.89 451.858 456.626 451.384C455.362 450.909 454.205 450.19 453.219 449.268C452.233 448.346 451.439 447.238 450.882 446.009C450.324 444.78 450.015 443.452 449.971 442.103V249.68C450.015 248.331 450.324 247.004 450.882 245.774C451.439 244.545 452.233 243.437 453.219 242.515C454.205 241.593 455.362 240.874 456.626 240.4C457.89 239.925 459.234 239.704 460.583 239.75H745.278C747.998 239.666 750.64 240.664 752.624 242.526C754.609 244.387 755.773 246.96 755.862 249.68Z" fill="#D2E3FC"/>
<path d="M449.828 289.371V363.546C443.199 367.717 435.572 370.034 427.743 370.257C419.914 370.48 412.168 368.6 405.311 364.814C398.455 361.027 392.739 355.471 388.759 348.726C384.779 341.98 382.679 334.291 382.679 326.458C382.679 318.626 384.779 310.937 388.759 304.191C392.739 297.445 398.455 291.89 405.311 288.103C412.168 284.316 419.914 282.436 427.743 282.659C435.572 282.882 443.199 285.2 449.828 289.371Z" fill="#4285F4"/>
<path d="M255.157 286.297C257.558 288.061 260.155 289.541 262.896 290.707L271.204 295.402C278.557 299.583 283.95 306.511 286.199 314.664L289.044 325.078L290.523 329.573C290.973 330.619 291.486 331.635 292.06 332.618C293.85 335.663 296.222 338.326 299.04 340.454C301.859 342.583 305.07 344.135 308.489 345.023C311.907 345.911 315.468 346.116 318.966 345.628C322.464 345.14 325.832 343.968 328.877 342.178C331.922 340.388 334.585 338.016 336.714 335.197C338.842 332.378 340.395 329.168 341.282 325.749C342.17 322.33 342.376 318.77 341.888 315.272C341.399 311.774 340.227 308.406 338.437 305.36C337.869 304.369 337.232 303.418 336.531 302.515L333.316 299.016L325.634 291.419C322.647 288.482 320.267 284.985 318.632 281.128C316.997 277.272 316.137 273.13 316.102 268.941V259.41C316.458 256.452 316.458 253.462 316.102 250.504C315.306 244.19 312.954 238.172 309.258 232.991C305.561 227.809 300.636 223.627 294.925 220.819C289.213 218.011 282.894 216.665 276.534 216.902C270.174 217.139 263.972 218.951 258.485 222.177C252.998 225.402 248.398 229.939 245.098 235.381C241.798 240.823 239.9 246.999 239.576 253.356C239.252 259.712 240.511 266.049 243.24 271.799C245.97 277.549 250.084 282.53 255.214 286.297H255.157Z" fill="#34A853"/>
<mask id="mask0" mask-type="alpha" maskUnits="userSpaceOnUse" x="449" y="239" width="307" height="214">
<path d="M755.862 249.68V442.103C755.773 444.823 754.609 447.396 752.624 449.258C750.64 451.119 747.998 452.118 745.278 452.033H460.583C459.234 452.079 457.89 451.858 456.626 451.384C455.362 450.909 454.205 450.19 453.219 449.268C452.233 448.346 451.439 447.238 450.882 446.009C450.324 444.78 450.015 443.452 449.971 442.103V249.68C450.015 248.331 450.324 247.004 450.882 245.774C451.439 244.545 452.233 243.437 453.219 242.515C454.205 241.593 455.362 240.874 456.626 240.4C457.89 239.925 459.234 239.704 460.583 239.75H745.278C747.998 239.666 750.64 240.664 752.624 242.526C754.609 244.387 755.773 246.96 755.862 249.68Z" fill="#D2E3FC"/>
</mask>
<g mask="url(#mask0)">
<path d="M448.719 289.371C454.991 293.316 460.16 298.788 463.742 305.274C467.324 311.76 469.203 319.049 469.203 326.458C469.203 333.868 467.324 341.157 463.742 347.643C460.16 354.129 454.991 359.6 448.719 363.546" stroke="white" stroke-width="5.69048" stroke-linecap="round" stroke-linejoin="round"/>
<path d="M561.846 364.462L534.533 343.88C529.325 339.955 521.921 340.996 517.997 346.204L497.415 373.517C493.49 378.725 494.531 386.129 499.739 390.053L527.052 410.635C532.26 414.56 539.664 413.519 543.588 408.311L564.17 380.998C568.095 375.79 567.054 368.387 561.846 364.462Z" stroke="white" stroke-width="5.69048" stroke-linecap="round" stroke-linejoin="round"/>
<path d="M720.382 338.679C729.13 326.647 738.703 315.239 749.034 304.536C765.102 288.552 783.865 275.53 804.459 266.069C817.261 260.334 830.94 256.804 844.919 255.626" stroke="white" stroke-width="5.69048" stroke-linecap="round" stroke-linejoin="round"/>
<path d="M729.658 369.265C706.896 295.289 684.134 211.24 684.134 211.24L610.158 231.299C598.777 257.788 597.269 280.949 606.772 308.121C614.283 329.716 621.539 351.425 627.485 373.561C635.85 404.631 652.097 438.546 685.5 446.797C713.44 453.711 750.513 445.659 772.991 427.706" stroke="white" stroke-width="5.69048" stroke-linecap="round" stroke-linejoin="round"/>
</g>
<g clip-path="url(#clip2)">
<path d="M856.304 236.189C853.373 243.4 850.116 250.611 847.185 257.822C858.91 265.36 873.892 268.31 887.246 265.032C890.177 264.377 893.108 263.394 895.714 261.755C896.691 261.099 897.668 260.444 898.319 259.46C899.948 256.838 898.319 253.233 897.017 250.611C894.737 245.694 892.783 240.45 892.131 235.206C886.269 236.845 880.08 238.811 873.892 239.467C867.704 240.122 861.515 239.467 856.304 236.189Z" fill="#D2E3FC"/>
<path d="M871.292 243.4C892.335 243.4 909.393 226.234 909.393 205.058C909.393 183.882 892.335 166.716 871.292 166.716C850.249 166.716 833.191 183.882 833.191 205.058C833.191 226.234 850.249 243.4 871.292 243.4Z" fill="#D2E3FC" stroke="#4285F4" stroke-width="5.69" stroke-miterlimit="10" stroke-linecap="round" stroke-linejoin="round"/>
<path d="M870.943 191.339L908.695 199.078C907.996 191.339 903.801 182.897 898.208 177.269C892.615 171.64 885.275 168.123 877.235 167.067C873.04 166.716 860.107 167.067 857.311 170.233C854.514 173.047 862.204 177.62 864.302 180.786C866.049 184.304 870.594 187.47 870.943 191.339Z" fill="#4285F4" stroke="#4285F4" stroke-width="5.69048" stroke-miterlimit="10" stroke-linecap="round" stroke-linejoin="round"/>
<path d="M846.534 256.183L853.374 240.778" stroke="#4285F4" stroke-width="5.69048" stroke-miterlimit="10" stroke-linecap="round" stroke-linejoin="round"/>
<path d="M870.123 168.888C864.88 160.094 859.986 152.707 851.946 145.32C841.809 136.526 827.478 132.305 819.438 140.747L819.088 141.451C815.243 145.672 814.544 153.059 817.341 160.094C818.739 163.612 820.836 166.778 822.584 169.944L833.42 188.235L887.6 198.085L870.123 168.888Z" fill="#255FDB"/>
<path d="M846.534 256.183C848.488 260.116 851.745 261.099 855.654 262.738C863.145 266.015 871.939 267.326 880.407 266.671C887.898 266.015 897.343 262.41 902.88 256.838" stroke="#4285F4" stroke-width="5.69048" stroke-miterlimit="10" stroke-linecap="round" stroke-linejoin="round"/>
<path d="M894.412 239.14L899.623 254.872" stroke="#4285F4" stroke-width="5.69048" stroke-miterlimit="10" stroke-linecap="round" stroke-linejoin="round"/>
</g>
<path d="M854.913 215.831C855.96 219.172 860.174 222.1 863.853 222.792C867.713 223.461 871.684 222.674 874.997 220.584" stroke="#4285F4" stroke-width="5.69" stroke-linecap="round" stroke-linejoin="round"/>
</g>
</g>
<defs>
<clipPath id="clip0">
<rect width="1200" height="592" fill="white"/>
</clipPath>
<clipPath id="clip1">
<rect width="956" height="728.381" fill="white" transform="translate(122 -68.1904)"/>
</clipPath>
<clipPath id="clip2">
<rect width="108.119" height="150.798" fill="white" transform="translate(804.857 128.131)"/>
</clipPath>
</defs>
</svg>
