<svg fill="none" xmlns="http://www.w3.org/2000/svg" viewBox="0 0 1200 592">
  <path fill="#fff" d="M0 0h1200v592H0z"/>
  <path d="M595.36 237.103v62.208M588.512 366.94c-10.844.571-39.38 5.707-54.789 19.404-13.411 11.985-16.55 17.122-26.823 36.526" stroke="#4285F4" stroke-width="5.056" stroke-miterlimit="10" stroke-linecap="round" stroke-linejoin="round"/>
  <path d="M651.291 455.686c-3.995 1.141-9.132 1.997-12.841 3.424-5.993 2.283-10.559 3.425-13.698 6.849 6.564 1.141 8.276 5.707 12.841 10.843 2.569 2.854 1.998 3.71 2.569 7.42.57 3.709.856 6.563-1.712 9.416 3.424 1.713 6.563 11.129 6.563 15.124 0 3.995-2.568 7.705-5.993 9.417 1.427 2.568 2.854 5.136 4.566 7.705.285.57.571 1.141 1.141 1.426.286.286.856 0 1.142 0 35.099-2.282 61.922-7.704 92.741-24.54.856-.571 1.997-1.142 1.997-2.283 0-.856-.285-1.427-.856-1.998-12.27-16.55-25.967-31.674-40.806-45.657-4.566-4.28-6.278-5.421-12.27-3.424-5.137 1.712-7.42 1.712-12.841 2.568-10.844 1.142-12.271.571-22.543 3.71zM702.939 230.54c-.285.285-.57.856-.856 1.141-.285.286-.856.286-1.141.286-6.278.57-12.27 0-18.548 1.141-.856.285-1.712.571-2.283 1.141-1.141 1.142-.285 3.139.285 4.566.856 2.283 1.427 4.566 2.569 6.563 3.995 9.132 13.697 14.554 23.113 17.407 12.556 3.995 26.253 4.566 38.523 0 12.271-4.566 22.544-15.124 25.112-27.965-8.561-2.283-17.122-3.709-25.968-4.28-2.568-5.137-4.565-10.844-5.707-16.551.286 1.712-19.689 2.283-21.401 2.283-1.142 0-3.71-.856-4.566-.285-1.142.57-2.283 3.424-2.854 4.565-2.283 3.425-4.28 6.849-6.278 9.988z" fill="#8AB4F8"/>
  <path d="M596.217 351.816c-2.283 5.422-4.852 11.129-7.134 16.551 9.131 5.707 20.545 7.99 31.103 5.422 2.283-.571 4.566-1.427 6.564-2.569.856-.57 1.426-.856 1.997-1.712 1.427-1.997 0-4.851-1.141-6.848-1.998-3.71-3.139-7.705-3.71-11.7-4.566 1.427-9.417 2.854-13.982 3.139-4.566.571-9.702.285-13.697-2.283z" fill="#D2E3FC"/>
  <path d="M548.562 168.903l-8.276-26.538-30.818-3.424s-10.273 24.826-10.273 25.682" stroke="#4285F4" stroke-width="5.056" stroke-miterlimit="10" stroke-linecap="round" stroke-linejoin="round"/>
  <path d="M527.161 148.072c17.178 0 31.104-13.926 31.104-31.104 0-17.178-13.926-31.104-31.104-31.104-17.178 0-31.104 13.926-31.104 31.104 0 17.178 13.926 31.104 31.104 31.104z" fill="#fff" stroke="#4285F4" stroke-width="5.056" stroke-miterlimit="10" stroke-linecap="round" stroke-linejoin="round"/>
  <path d="M531.726 126.099c1.712 2.854 4.851 4.852 8.276 4.852 3.424 0 6.848-1.713 7.99-4.852" stroke="#4285F4" stroke-width="5.056" stroke-miterlimit="10" stroke-linecap="round" stroke-linejoin="round"/>
  <path d="M549.418 97.564c-3.995-6.849-11.7-10.558-19.404-10.844-7.705-.285-14.554-1.141-21.117 3.14-3.995 2.567-8.275 9.416-11.129 13.411-1.427 1.997-2.568 4.28-3.424 6.849-.856 3.709.285 3.138 3.424 2.853 11.415-.856 22.829-3.424 33.672-7.419 6.278-2.283 12.271-4.851 17.978-7.99z" fill="#4285F4"/>
  <path d="M519.741 91.571c-3.139.571-6.563 5.993-10.558 6.849.57 0-4.851-5.993-1.427-8.56 3.424-2.569 7.704-3.996 11.414-5.422 4.566-1.713 9.417-3.425 13.982-5.422 4.566-1.712 9.132-3.995 13.698-5.707 1.997-.856 3.995-1.427 5.707-1.713 2.283-.57 4.851-.856 7.419-.285 2.283.57 4.566 2.283 5.422 4.851.856 3.14-.856 6.278-2.854 8.56 3.139-.855 6.278-.855 9.417-.57 1.712.285 3.71.856 4.851 2.283s1.141 3.424.856 5.422c-1.141 7.419-7.705 12.555-13.982 17.121-.286.285-3.425 1.712-3.995 1.712-.856 0-3.139-6.848-4.851-8.846-7.42-8.56-10.273-13.697-35.099-10.273z" fill="#4285F4"/>
  <path d="M678.97 235.391s2.568 31.104 43.374 31.104c40.806 0 45.657-30.819 45.657-30.819" fill="#8AB4F8"/>
  <path d="M678.97 235.391s2.568 31.104 43.374 31.104c40.806 0 45.657-30.819 45.657-30.819" stroke="#4285F4" stroke-width="5.056" stroke-miterlimit="10" stroke-linecap="round" stroke-linejoin="round"/>
  <path d="M704.652 231.111s-92.17-9.703-111.574 105.011" stroke="#4285F4" stroke-width="4.823" stroke-miterlimit="10" stroke-linecap="round" stroke-linejoin="round"/>
  <path d="M704.652 231.111l8.846-19.975" stroke="#4285F4" stroke-width="5.056" stroke-miterlimit="10" stroke-linecap="round" stroke-linejoin="round"/>
  <path d="M724.056 217.413c14.972 0 27.109-12.137 27.109-27.108 0-14.972-12.137-27.109-27.109-27.109-14.972 0-27.109 12.137-27.109 27.109 0 14.971 12.137 27.108 27.109 27.108z" fill="#8AB4F8" stroke="#4285F4" stroke-width="5.222" stroke-miterlimit="10" stroke-linecap="round" stroke-linejoin="round"/>
  <path d="M726.339 196.868c-1.712 3.139-5.136 5.422-8.846 5.422s-7.134-1.998-8.561-5.422" stroke="#4285F4" stroke-width="5.056" stroke-miterlimit="10" stroke-linecap="round" stroke-linejoin="round"/>
  <path d="M748.311 179.176h-49.937l6.848-6.563 13.412-9.417 10.273.285 11.699 7.705 7.705 7.99zM724.912 152.067c3.995 3.995 5.136 12.27 9.987 14.553 5.137 2.283 11.985-2.568 17.407-2.568 5.422 0 11.985 5.136 17.121 3.139 5.137-1.998 6.278-10.273 10.559-13.983 3.994-3.995 12.27-5.136 14.553-9.987 2.283-5.137-2.569-11.985-2.569-17.407 0-5.422 5.137-11.985 3.139-17.121-1.997-5.137-10.272-6.278-13.982-10.558-3.995-3.995-5.136-12.27-9.988-14.554-5.136-2.282-11.984 2.569-17.406 2.569-5.422 0-11.985-5.137-17.122-3.14-5.136 1.998-6.277 10.273-10.558 13.983-3.995 3.995-12.27 5.137-14.553 9.988-2.283 5.136 2.568 11.985 2.568 17.406 0 5.422-5.136 11.985-3.139 17.122 1.712 5.136 9.988 6.278 13.983 10.558z" fill="#4285F4"/>
  <path d="M549.703 504.482c26.824 4.566 54.503 9.417 76.19 25.682 2.283 1.712 4.281 3.71 4.566 6.278.285 3.424-2.853 6.278-6.278 7.134-3.424.57-6.848-.286-9.987-1.142-29.392-8.56-59.069-13.412-89.317-19.689-49.081-10.559-99.589-31.675-137.827-64.776-55.074-47.369-59.069-134.688-31.389-197.752 24.826-56.786 76.475-100.731 140.966-97.021 5.992 8.846 16.836 15.124 27.68 15.694 10.843.286 21.116-3.995 27.964-12.27 17.407 1.142 51.079 11.129 65.632 20.831 14.268 9.131 30.819 30.248 37.382 53.647" stroke="#4285F4" stroke-width="5.056" stroke-miterlimit="10" stroke-linecap="round" stroke-linejoin="round"/>
  <path d="M609.913 357.523c15.287 0 27.68-12.392 27.68-27.679 0-15.287-12.393-27.68-27.68-27.68-15.287 0-27.679 12.393-27.679 27.68 0 15.287 12.392 27.679 27.679 27.679z" fill="#D2E3FC" stroke="#4285F4" stroke-width="5.056" stroke-miterlimit="10" stroke-linecap="round" stroke-linejoin="round"/>
  <path d="M592.792 331.841c1.427 1.998 3.709 3.425 6.278 3.71 2.568.285 5.136-.856 6.848-2.854" stroke="#4285F4" stroke-width="5.056" stroke-miterlimit="10" stroke-linecap="round" stroke-linejoin="round"/>
  <path d="M609.343 320.142l27.394 5.707c-.571-5.707-3.71-11.7-7.705-15.695-3.995-3.995-9.417-6.563-15.124-7.419-3.139-.285-12.27 0-14.553 2.283-1.997 1.997 3.424 5.422 4.851 7.705 1.998 2.282 5.137 4.565 5.137 7.419z" fill="#4285F4" stroke="#4285F4" stroke-width="5.056" stroke-miterlimit="10" stroke-linecap="round" stroke-linejoin="round"/>
  <path d="M588.512 367.226l5.422-11.7" stroke="#4285F4" stroke-width="5.056" stroke-miterlimit="10" stroke-linecap="round" stroke-linejoin="round"/>
  <path d="M608.487 304.447c-3.995-6.278-7.134-11.7-13.127-16.836-7.134-6.278-17.692-9.417-23.399-3.424l-.285.285c-2.854 3.139-3.425 8.275-1.427 13.412 1.141 2.568 2.568 4.851 3.995 7.134l7.99 13.126 39.379 7.134-13.126-20.831z" fill="#255FDB"/>
  <path d="M588.512 367.226c1.427 2.853 3.995 3.709 7.134 5.136 5.992 2.568 12.841 3.424 19.119 3.139 5.992-.571 13.126-3.424 17.406-7.419" fill="#D2E3FC"/>
  <path d="M588.512 367.226c1.427 2.853 3.995 3.709 7.134 5.136 5.992 2.568 12.841 3.424 19.119 3.139 5.992-.571 13.126-3.424 17.406-7.419M625.608 354.099l4.28 12.27M461.529 238.244c-13.127 48.226-21.117 79.615-33.387 126.128 9.702 5.992 29.106 21.687 48.796 35.669 14.268 10.273 35.669 27.395 53.647 40.806-6.849 22.829-18.263 54.789-25.397 77.617M625.893 530.164c3.71 2.568 13.412 3.424 15.41-.571 1.426-3.139.856-6.848-.857-9.702-1.712-2.853-4.28-5.136-7.133-7.134-23.114-17.977-48.796-25.396-77.903-29.962M561.403 463.961c13.411 2.854 27.109 5.993 40.235 10.559 13.126 4.565 25.682 11.128 35.955 20.545 3.139 2.854 5.992 5.993 7.134 9.988.856 3.995-.856 9.131-4.851 10.272" stroke="#4285F4" stroke-width="5.056" stroke-miterlimit="10" stroke-linecap="round" stroke-linejoin="round"/>
  <path d="M638.449 493.353c2.283-2.854 2.854-6.563 1.998-9.987-.856-3.425-2.854-6.564-5.137-9.132-8.846-9.702-21.972-13.412-34.242-16.836-17.693-4.851-35.67-9.702-53.933-13.126-4.851-.856-9.987-1.712-14.838-2.568M641.302 529.593c66.488-6.278 120.706-29.392 160.656-74.763 20.26-23.114 33.387-51.935 39.094-82.183 10.843-56.786-1.998-111.289-62.208-134.973-9.702-3.71-34.813-6.278-34.813-6.278l-5.707-15.695" stroke="#4285F4" stroke-width="5.056" stroke-miterlimit="10" stroke-linecap="round" stroke-linejoin="round"/>
  <path d="M690.099 440.848c3.139 6.563 12.27 13.982 17.121 19.118 11.129 11.415 24.255 27.109 33.101 40.236M690.099 440.847c5.136-5.707 79.614-53.647 77.902-130.693" stroke="#4285F4" stroke-width="5.056" stroke-miterlimit="10" stroke-linecap="round" stroke-linejoin="round"/>
  <path d="M708.932 425.153c-11.414-23.97-20.26-37.953-38.523-46.799-9.702-4.565-23.97-9.416-38.808-11.128" fill="#fff"/>
  <path d="M708.932 425.153c-11.414-23.97-20.26-37.953-38.523-46.799-9.702-4.565-23.97-9.416-38.808-11.128M692.096 446.84c-11.984 4.566-23.684 4.566-36.525 7.99-14.553 3.71-20.26 5.707-30.819 11.129M638.449 478.229c12.841-6.563 24.255-9.702 38.809-10.843M638.449 493.353c11.985-5.993 29.392-10.558 41.662-12.27M646.724 507.906a290.64 290.64 0 0137.382-10.273" stroke="#4285F4" stroke-width="5.056" stroke-miterlimit="10" stroke-linecap="round" stroke-linejoin="round"/>
  <path d="M446.689 294.174c1.142 13.127 3.139 27.395 5.708 41.092l-10.844 38.237" stroke="#4285F4" stroke-width="5.108" stroke-miterlimit="10" stroke-linecap="round" stroke-linejoin="round"/>
  <path d="M452.968 334.124H582.52" stroke="#4285F4" stroke-width="5.056" stroke-miterlimit="10" stroke-linecap="round" stroke-linejoin="round"/>
  <path d="M264.917 114.115c10.273-10.273 27.109-9.988 37.097.57l43.088 43.945c10.273 10.273 9.988 27.109-.57 37.096-10.273 10.273-27.109 9.988-37.097-.57l-43.088-43.945c-9.988-10.273-9.988-26.824.57-37.096z" stroke="#34A853" stroke-width="5.707" stroke-miterlimit="10" stroke-linecap="round" stroke-linejoin="round"/>
  <path d="M290.885 162.91l-41.948 11.415c-4.565 1.141-5.992 6.848-2.568 9.987l30.819 30.819c3.424 3.139 8.846 1.712 9.987-2.854l11.129-41.947c1.141-4.566-2.854-8.561-7.419-7.42z" fill="#EA4335"/>
  <path d="M944.065 198.295c.571 3.139.571 6.563.285 9.987-1.997 20.831-20.831 35.955-41.376 33.957-20.546-1.997-35.955-20.831-33.958-41.376 1.998-20.546 20.831-35.955 41.377-33.958 17.407 1.713 30.819 14.839 33.672 31.39z" fill="#4285F4"/>
  <path d="M239.52 268.778c.571 1.141.857 2.568 1.142 3.709 1.141 8.276-4.566 15.695-12.556 16.836-8.275 1.142-15.694-4.565-16.836-12.555-1.141-8.276 4.566-15.695 12.556-16.836 6.563-1.142 13.126 2.853 15.694 8.846z" fill="#FFBA00"/>
  <mask id="a" maskUnits="userSpaceOnUse" x="244" y="162" width="55" height="55">
    <path d="M290.884 162.91l-41.947 11.415c-4.566 1.141-5.992 6.848-2.568 9.987l30.818 30.819c3.425 3.139 8.846 1.712 9.988-2.854l11.129-41.947c1.141-4.566-2.854-8.561-7.42-7.42z" fill="#EA4335"/>
  </mask>
  <g mask="url(#a)">
    <path d="M264.917 114.115c10.273-10.273 27.109-9.988 37.097.57l43.088 43.945c10.273 10.273 9.988 27.109-.57 37.096-10.273 10.273-27.109 9.988-37.097-.57l-43.088-43.945c-9.988-10.273-9.988-26.824.57-37.096z" stroke="#fff" stroke-width="5.707" stroke-miterlimit="10" stroke-linecap="round" stroke-linejoin="round"/>
  </g>
  <path d="M928.941 275.912c5.422 2.568 11.414 3.994 17.121 5.707 7.99 2.568 14.553 7.99 18.263 15.409 1.998 3.995 3.995 8.275 6.563 12.27 9.132 13.412 27.965 16.551 39.952 5.422 10.84-9.702 11.7-27.965.85-37.952-4.85-4.566-11.41-7.42-16.832-11.7-5.707-4.566-9.702-10.558-11.414-17.692-1.427-5.993-1.998-12.27-4.28-18.263-1.998-5.707-5.422-10.843-9.988-15.124-13.697-12.27-34.528-12.841-48.796-1.427-17.121 13.698-18.833 38.809-4.28 54.789 3.995 3.995 8.275 6.563 12.841 8.561z" stroke="#DADCE0" stroke-width="5.707" stroke-miterlimit="10" stroke-linecap="round" stroke-linejoin="round"/>
  <mask id="b" maskUnits="userSpaceOnUse" x="868" y="166" width="77" height="77">
    <path d="M944.065 198.295c.571 3.139.571 6.563.286 9.987-1.998 20.831-20.831 35.955-41.377 33.957-20.546-1.997-35.955-20.831-33.957-41.376 1.997-20.546 20.831-35.955 41.376-33.958 17.407 1.713 30.819 14.839 33.672 31.39z" fill="#4285F4"/>
  </mask>
  <g mask="url(#b)">
    <path d="M928.941 275.912c5.422 2.568 11.414 3.994 17.121 5.707 7.99 2.568 14.553 7.99 18.263 15.409 1.998 3.995 3.995 8.275 6.563 12.27 9.132 13.412 27.965 16.551 39.952 5.422 10.84-9.702 11.7-27.965.85-37.952-4.85-4.566-11.41-7.42-16.832-11.7-5.707-4.566-9.702-10.558-11.414-17.692-1.427-5.993-1.998-12.27-4.28-18.263-1.998-5.707-5.422-10.843-9.988-15.124-13.697-12.27-34.528-12.841-48.796-1.427-17.121 13.698-18.833 38.809-4.28 54.789 3.995 3.995 8.275 6.563 12.841 8.561z" stroke="#FBBC05" stroke-width="5.707" stroke-miterlimit="10" stroke-linecap="round" stroke-linejoin="round"/>
  </g>
  <path d="M374.78 131.236l-19.404-19.404c-2.283-2.283-2.283-6.278 0-8.561l19.404-19.404c2.283-2.283 6.278-2.283 8.561 0l19.404 19.404c2.283 2.283 2.283 6.278 0 8.561l-19.404 19.404c-2.283 2.283-6.278 2.283-8.561 0z" stroke="#fff" stroke-width="5.707" stroke-miterlimit="10" stroke-linecap="round" stroke-linejoin="round"/>
</svg>
