<svg xmlns="http://www.w3.org/2000/svg" width="528" height="528">
  <g fill="none" fill-rule="evenodd">
    <path fill="#EA4335" d="M193.108 244.831l12.826-12.826a4.538 4.538 0 0 1 6.414 0l12.824 12.826a4.534 4.534 0 0 1 0 6.414l-12.824 12.826a4.538 4.538 0 0 1-6.414 0l-12.826-12.826a4.538 4.538 0 0 1 0-6.414"/>
    <path fill="#FBBC04" d="M267.532 202.716c-4.428-4.428-4.428-11.606 0-16.032l9.62-9.62c4.426-4.428 11.604-4.428 16.032 0 4.426 4.428 4.426 11.606 0 16.032l-9.62 9.62c-4.428 4.426-11.606 4.426-16.032 0"/>
    <path fill="#34A853" d="M302.769 235.85l23.894 6.401c3.372.904 4.5 5.118 2.032 7.588l-17.49 17.49c-2.47 2.468-6.684 1.34-7.588-2.032l-6.402-23.894c-.904-3.372 2.182-6.458 5.554-5.554"/>
    <path stroke="#4285F4" stroke-linecap="round" stroke-linejoin="round" stroke-width="8" d="M424 348c0 88.366-71.634 160-160 160s-160-71.634-160-160 71.634-160 160-160 160 71.634 160 160z"/>
    <path fill="#4285F4" stroke="#4285F4" stroke-width="4" d="M270.25 329.25v12.5H314V298h-12.5v17.125C292.312 304.687 279 298 264 298c-13.813 0-26.313 5.625-35.375 14.625-9.063 9-14.625 21.563-14.625 35.375 0 27.625 22.375 50 50 50 13.813 0 26.313-5.625 35.375-14.625L290.5 374.5c-6.813 6.813-16.188 11-26.5 11-20.688 0-37.5-16.813-37.5-37.5 0-10.313 4.188-19.688 11-26.5 6.813-6.813 16.188-11 26.5-11 13.813 0 25.938 7.563 32.438 18.75H270.25z"/>
    <path fill="#EA4335" d="M343.21 162.672l-12.826-12.826a4.535 4.535 0 0 1 0-6.412l12.826-12.826a4.538 4.538 0 0 1 6.414 0l12.824 12.826a4.531 4.531 0 0 1 0 6.412l-12.824 12.826a4.538 4.538 0 0 1-6.414 0"/>
    <path fill="#FBBC04" d="M211.737 94.202l-12.826-12.826a4.535 4.535 0 0 1 0-6.412l12.826-12.826a4.538 4.538 0 0 1 6.414 0l12.826 12.826a4.535 4.535 0 0 1 0 6.412l-12.826 12.826a4.534 4.534 0 0 1-6.414 0"/>
    <path fill="#4285F4" d="M258.024 129.358c-4.428-4.426-4.428-11.604 0-16.032l9.62-9.62c4.426-4.426 11.604-4.426 16.032 0 4.426 4.428 4.426 11.606 0 16.032l-9.62 9.62c-4.428 4.428-11.606 4.428-16.032 0"/>
    <path fill="#34A853" d="M174.14 148.564l23.894 6.402c3.372.904 4.5 5.118 2.032 7.588l-17.49 17.49c-2.47 2.468-6.684 1.34-7.588-2.032l-6.402-23.894c-.904-3.372 2.182-6.458 5.554-5.554M318 32c0 7.732-6.268 14-14 14s-14-6.268-14-14 6.268-14 14-14 14 6.268 14 14"/>
    <path d="M0 0h528v528H0z"/>
  </g>
</svg>
