<svg width="400" height="400" viewBox="0 0 400 400" fill="none" xmlns="http://www.w3.org/2000/svg"><g clip-path="url(#clip0)"><path fill="#fff" d="M0 0h400v400H0z"/><g clip-path="url(#clip1)"><path d="M197.865 245.938v272.553" stroke="#2A84FC" stroke-width="13.742" stroke-miterlimit="10" stroke-linecap="round" stroke-linejoin="round"/><path d="M217.794 155.24h-35.587c-3.796 0-6.643-2.749-6.643-6.413v-26.11c0-3.665 2.847-6.413 6.643-6.413h35.587c3.796 0 6.643 2.748 6.643 6.413v26.11c0 3.664-2.847 6.413-6.643 6.413z" fill="#2A84FC"/><path d="M219.692 125.465h-39.383c-2.372 0-4.745-1.832-4.745-4.581 0-2.29 1.898-4.58 4.745-4.58h39.383c2.373 0 4.745 1.832 4.745 4.58 0 2.291-1.898 4.581-4.745 4.581z" fill="#D2E3FC"/><path d="M228.233 155.24h-56.466v84.286h56.466V155.24z" fill="#D2E3FC" stroke="#D2E3FC" stroke-width="13.742" stroke-miterlimit="10" stroke-linecap="round" stroke-linejoin="round"/><path d="M200.238 123.634c1.572 0 2.847-1.231 2.847-2.749s-1.275-2.748-2.847-2.748-2.847 1.23-2.847 2.748c0 1.518 1.275 2.749 2.847 2.749zM187.901 123.635c1.573 0 2.847-1.23 2.847-2.748 0-1.518-1.274-2.749-2.847-2.749-1.572 0-2.847 1.231-2.847 2.749s1.275 2.748 2.847 2.748zM212.101 123.634c1.572 0 2.847-1.231 2.847-2.749s-1.275-2.748-2.847-2.748c-1.573 0-2.847 1.23-2.847 2.748 0 1.518 1.274 2.749 2.847 2.749z" fill="#2A84FC"/></g><path fill-rule="evenodd" clip-rule="evenodd" d="M195.967 76.783v24.201l16.134-32.268h-8.067v-24.2L187.9 76.783h8.067z" fill="#F9AB00"/></g><defs><clipPath id="clip0"><path fill="#fff" d="M0 0h400v400H0z"/></clipPath><clipPath id="clip1"><path fill="#fff" transform="translate(164.65 116.304)" d="M0 0h70.7v409.059H0z"/></clipPath></defs></svg>