<svg width="400" height="400" viewBox="0 0 400 400" fill="none" xmlns="http://www.w3.org/2000/svg"><path fill="#fff" d="M0 0h400v400H0z"/><g clip-path="url(#clip0)"><path d="M282.153 355.398c1.385-25.273-18.926-46.257-44.008-45.95-6.155 0-12.002 1.378-17.233 3.676a50 50 0 0 0-8.771 5.054l-9.386 5.514c-8.31 4.902-18.158 6.28-27.544 3.83-5.231-1.379-10.309-3.064-15.695-3.83-18.619-2.757-36.006 11.029-35.852 30.175" fill="#FBBC05"/><path d="M174.75 307.303c-2.924-5.514-.616-12.406 4.924-15.164l.153-.153c5.54-2.91 12.464-.612 15.234 4.902 2.923 5.514.615 12.406-4.924 15.163l-.154.154c-5.539 2.91-12.464.765-15.233-4.902z" fill="#D2E3FC"/><path d="M225.835 221.988l-19.234 24.354c-1.231 1.532-3.231 1.685-4.77.613l-24.466-19.147c-1.538-1.225-1.692-3.216-.615-4.748l19.234-24.354c1.231-1.531 3.231-1.685 4.77-.612l24.466 19.146c1.385 1.072 1.693 3.216.615 4.748z" fill="#EA4335"/><path d="M292.001 44.006c0 47.176-12.618 82.711-41.084 115.949-10.156 11.794-17.234 23.281-17.234 38.445M109.2 44.006c-.154 42.427 12.617 82.711 41.084 115.949 10.155 11.794 17.234 24.2 17.234 38.445" stroke="#D2E3FC" stroke-width="4.616" stroke-miterlimit="10" stroke-linecap="round" stroke-linejoin="round"/><path d="M156.746 116.608c8.002-7.046 20.158-6.28 27.236 1.685l29.851 33.544c7.079 7.964 6.309 20.065-1.692 27.11-8.002 7.046-20.158 6.28-27.236-1.684l-29.851-33.698c-7.078-7.811-6.155-19.912 1.692-26.957z" fill="#34A853"/><path d="M198.908 93.173l-7.386-1.838a1.2 1.2 0 0 0-1.231.306l-5.232 5.514c-.308.46-.308.92-.308 1.225l2.155 7.353c.153.459.461.765.923.765l7.386 1.839a1.2 1.2 0 0 0 1.231-.307l5.231-5.514c.308-.306.462-.766.308-1.225l-2.154-7.352a1.576 1.576 0 0 0-.923-.766z" fill="#FBBC05"/><path d="M217.988 129.321c-4.77-9.344-1.077-20.831 8.463-25.58l.308-.153c9.386-4.748 20.926-1.072 25.696 8.425 4.771 9.343 1.078 20.831-8.463 25.579l-.307.153c-9.387 4.748-20.927 1.072-25.697-8.424z" stroke="#F882FF" stroke-width="4.616" stroke-miterlimit="10" stroke-linecap="round" stroke-linejoin="round"/><path d="M295.848 44.005H105.353c-5.386 0-9.848-4.441-9.848-9.802s4.462-9.803 9.848-9.803h190.495c5.385 0 9.847 4.442 9.847 9.803 0 5.36-4.462 9.802-9.847 9.802z" fill="#4285F4"/><path d="M109.199 352.794c0-47.176 12.618-82.711 41.084-115.949 10.156-11.794 17.234-23.281 17.234-38.445m124.484 154.394c.154-42.428-12.618-82.711-41.084-115.949-10.156-11.794-17.234-24.2-17.234-38.445" stroke="#D2E3FC" stroke-width="4.616" stroke-miterlimit="10" stroke-linecap="round" stroke-linejoin="round"/><path d="M105.353 352.795h190.495c5.385 0 9.848 4.441 9.848 9.802s-4.463 9.803-9.848 9.803H105.353c-5.386 0-9.848-4.442-9.848-9.803 0-5.361 4.462-9.802 9.848-9.802z" fill="#4285F4"/><path d="M196.159 242.177l-10.177 29.744c-.615 1.991 1.077 3.829 3.078 3.523l44.007-8.731c2.155-.306 2.924-2.604 1.539-4.289l-21.563-24.594" stroke="#4285F4" stroke-width="4.616" stroke-miterlimit="10" stroke-linecap="round" stroke-linejoin="round"/><mask id="a" maskUnits="userSpaceOnUse" x="176" y="197" width="51" height="51"><path d="M225.835 221.988l-19.234 24.354c-1.231 1.532-3.231 1.685-4.77.613l-24.466-19.147c-1.538-1.225-1.692-3.216-.615-4.748l19.234-24.354c1.231-1.531 3.231-1.685 4.77-.612l24.466 19.146c1.385 1.072 1.693 3.216.615 4.748z" fill="#EA4335"/></mask><g mask="url(#a)"><path d="M234.606 262.424l-29.544-33.697c-1.385-1.531-3.846-1.072-4.616.919l-14.464 42.275c-.615 1.991 1.077 3.829 3.078 3.523l44.007-8.731c2.155-.306 2.924-2.604 1.539-4.289z" stroke="#fff" stroke-width="4.616" stroke-miterlimit="10" stroke-linecap="round" stroke-linejoin="round"/></g></g><defs><clipPath id="clip0"><path fill="#fff" transform="translate(95.505 24.4)" d="M0 0h210.191v348H0z"/></clipPath></defs></svg>