<svg width="400" height="400" viewBox="0 0 400 400" fill="none" xmlns="http://www.w3.org/2000/svg"><path fill="#fff" d="M0 0h400v400H0z"/><path d="M39.372 94.01c4.588 1.553 7.058 6.494 5.505 11.082l-.07.141c-1.553 4.588-6.494 7.059-11.082 5.506-4.588-1.553-7.059-6.494-5.506-11.082l.07-.141c1.554-4.588 6.495-7.059 11.083-5.506z" fill="#F882FF"/><path d="M139.107 291.329c-3.812 3.6-7.059 7.765-10.376 11.717-4.659 5.436-11.294 8.894-18.423 9.459-3.953.353-8.047.353-12 1.129-13.764 2.682-22.587 16.588-17.717 30.14 4.236 11.858 18.353 18.564 30.07 13.411 5.435-2.4 9.811-6.564 14.964-9.388 5.505-3.035 11.717-4.235 17.999-3.105 5.294.988 10.517 2.4 15.952 2.753 5.294.282 10.588-.706 15.388-2.965 14.399-6.706 21.881-23.223 17.505-38.54-5.294-18.211-24.705-28.022-42.351-21.669-4.235 1.482-7.764 4.023-11.011 7.058z" fill="#34A853"/><path d="M289.048 27.56c6.282 6.918 5.788 17.576-1.129 23.858l-29.222 26.61c-6.918 6.283-17.576 5.789-23.858-1.129-6.282-6.917-5.788-17.575 1.129-23.858l29.223-26.61c6.846-6.282 17.575-5.718 23.857 1.13z" stroke="#E6E7EA" stroke-width="2.118" stroke-miterlimit="10"/><path d="M248.092 170.949l17.293 3.388c.989.212 1.977-.141 2.683-.918l11.646-13.27c.635-.776.847-1.835.565-2.753l-5.718-16.728a2.935 2.935 0 0 0-2.117-1.836l-17.294-3.388c-.988-.211-1.976.141-2.682.918l-11.646 13.27c-.636.776-.847 1.835-.565 2.753l5.717 16.728a2.936 2.936 0 0 0 2.118 1.836z" fill="#FBBC05"/><path d="M296.278 122.033c-3.106-20.187 10.799-39.033 30.916-42.14l.565-.07c20.187-3.105 39.033 10.8 42.139 30.917 3.106 20.187-10.8 39.033-30.916 42.139l-.565.071c-20.117 3.176-39.034-10.729-42.139-30.917z" fill="#EA4335"/><path d="M50.952 166.141l.012-.009.012-.01c27.732-22.172 68.254-17.654 90.426 10.078 22.169 27.728 17.655 68.242-10.066 90.416l-.835.626-.012.009-.011.01c-27.804 22.173-68.256 17.654-90.427-10.078-22.169-27.728-17.655-68.242 10.066-90.416l.835-.626z" fill="#fff" stroke="#E6E7EA" stroke-width="2"/><g clip-path="url(#clip0)"><path d="M114.326 204.159L66.06 177.492c-1.334-.8-2.667-.933-3.6-.667l39.466 39.867 12.4-12.533z" fill="url(#paint0_linear)"/><path d="M114.46 229.225l16.4-9.067c3.333-1.866 3.333-4.933 0-6.666l-16.534-9.2-12.4 12.4 12.534 12.533z" fill="url(#paint1_linear)"/><path d="M62.46 176.824c-1.467.534-2.4 1.467-2.4 3.734v71.733c0 2.267.933 3.733 2.4 4.267l39.6-39.867-39.6-39.867z" fill="url(#paint2_linear)"/><path d="M62.46 256.558c1.066.4 2.266.133 3.733-.533l48.267-26.801-12.534-12.533-39.466 39.867z" fill="url(#paint3_linear)"/></g><path d="M217.341 85.446L135.604 54.67c-8.047-3.035-17.082 1.06-20.117 9.106l-15.247 40.516c-3.035 8.047 1.059 17.081 9.106 20.117l42.422 15.952 15.952 35.293c1.412 3.035 5.788 2.894 6.917-.212l8.682-23.152 7.694 2.894c8.047 3.035 17.082-1.059 20.117-9.106l15.246-40.516c3.106-8.117-.988-17.081-9.035-20.116z" fill="#4285F4"/><path d="M349.241 198.501c-.424-1.906-2.259-3.035-4.165-2.682l-130.441 28.587c-1.906.423-3.035 2.258-2.683 4.164l26.682 123.242c.423 1.906 2.258 3.176 4.164 2.823l130.583-24.281c1.976-.353 3.317-2.329 2.894-4.306l-27.034-127.547z" fill="#D2E3FC"/><path d="M325.383 232.17c-.706.565-1.341 1.13-1.906 1.835l-2.047 1.977a9.42 9.42 0 0 1-6.776 2.611l-3.247-.07h-1.411v.07c-.353.071-.636.071-.989.142-4.305 1.058-6.987 5.435-5.929 9.74 1.059 4.306 5.435 6.988 9.741 5.93.353-.071.635-.212.988-.283l.071.071s1.2-.635 1.27-.706l2.824-1.553c2.188-1.2 4.8-1.482 7.27-.776l2.753.776c.847.353 1.694.565 2.541.777 1.835.282 3.741.211 5.717-.495 5.294-1.835 8.541-7.34 7.553-12.846-1.2-6.565-7.623-10.729-14.046-9.176a10.418 10.418 0 0 0-4.377 1.976zM245.269 260.192c6.549 0 11.858-5.309 11.858-11.858s-5.309-11.858-11.858-11.858-11.858 5.309-11.858 11.858 5.309 11.858 11.858 11.858z" stroke="#fff" stroke-width="2.118" stroke-miterlimit="10" stroke-linecap="round" stroke-linejoin="round"/><path d="M349.499 119.21l-20.258-21.105c-.918-.988-2.612-.565-2.965.706l-8.188 28.163c-.353 1.271.777 2.541 2.118 2.189l28.446-6.988c1.341-.353 1.835-1.977.847-2.965z" fill="#fff"/><path d="M237.434 358.941l45.739-90.702c.494-1.059 1.835-1.341 2.753-.635l90.349 67.691" stroke="#fff" stroke-width="2.118" stroke-miterlimit="10" stroke-linecap="round" stroke-linejoin="round"/><defs><linearGradient id="paint0_linear" x1="93.791" y1="213.407" x2="79.907" y2="153.073" gradientUnits="userSpaceOnUse"><stop stop-color="#00EB72"/><stop offset="1" stop-color="#00EB72"/></linearGradient><linearGradient id="paint1_linear" x1="91.895" y1="172.056" x2="127.374" y2="232.65" gradientUnits="userSpaceOnUse"><stop stop-color="gold"/><stop offset=".72" stop-color="gold"/><stop offset="1" stop-color="gold"/></linearGradient><linearGradient id="paint2_linear" x1="81.506" y1="236.385" x2="60.001" y2="153.405" gradientUnits="userSpaceOnUse"><stop stop-color="#00E3FF"/><stop offset=".835" stop-color="#00E3FF"/></linearGradient><linearGradient id="paint3_linear" x1="124.531" y1="230.937" x2="50.495" y2="241.079" gradientUnits="userSpaceOnUse"><stop stop-color="#ED3C39"/><stop offset="1" stop-color="#ED3C39"/></linearGradient><clipPath id="clip0"><path fill="#fff" transform="translate(60.06 176.691)" d="M0 0h73.333v80H0z"/></clipPath></defs></svg>