<svg xmlns="http://www.w3.org/2000/svg" xmlns:xlink="http://www.w3.org/1999/xlink" width="528" height="528">
  <defs>
    <path id="a" d="M100 512h328V18H100z"/>
  </defs>
  <g fill="none" fill-rule="evenodd">
    <path fill="#EA4335" d="M193.108 244.831l12.826-12.826a4.538 4.538 0 0 1 6.414 0l12.824 12.826a4.534 4.534 0 0 1 0 6.414l-12.824 12.826a4.538 4.538 0 0 1-6.414 0l-12.826-12.826a4.538 4.538 0 0 1 0-6.414"/>
    <path fill="#FBBC04" d="M267.532 202.716c-4.428-4.428-4.428-11.606 0-16.032l9.62-9.62c4.426-4.428 11.604-4.428 16.032 0 4.426 4.428 4.426 11.606 0 16.032l-9.62 9.62c-4.428 4.426-11.606 4.426-16.032 0"/>
    <path fill="#34A853" d="M302.769 235.85l23.894 6.401c3.372.904 4.5 5.118 2.032 7.588l-17.49 17.49c-2.47 2.468-6.684 1.34-7.588-2.032l-6.402-23.894c-.904-3.372 2.182-6.458 5.554-5.554"/>
    <path stroke="#4285F4" stroke-linecap="round" stroke-linejoin="round" stroke-width="8" d="M424 348c0 88.366-71.634 160-160 160s-160-71.634-160-160 71.634-160 160-160 160 71.634 160 160z"/>
    <mask id="b" fill="#fff">
      <use xlink:href="#a"/>
    </mask>
    <path fill="#4285F4" d="M254 380.846h20v-80h-20z" mask="url(#b)"/>
    <path stroke="#4285F4" stroke-width="20" d="M224.277 355.211l39.722 39.634 39.724-39.634" mask="url(#b)"/>
    <path fill="#EA4335" d="M343.21 162.672l-12.826-12.826a4.535 4.535 0 0 1 0-6.412l12.826-12.826a4.538 4.538 0 0 1 6.414 0l12.824 12.826a4.531 4.531 0 0 1 0 6.412l-12.824 12.826a4.538 4.538 0 0 1-6.414 0" mask="url(#b)"/>
    <path fill="#FBBC04" d="M211.737 94.202l-12.826-12.826a4.535 4.535 0 0 1 0-6.412l12.826-12.826a4.538 4.538 0 0 1 6.414 0l12.826 12.826a4.535 4.535 0 0 1 0 6.412l-12.826 12.826a4.534 4.534 0 0 1-6.414 0" mask="url(#b)"/>
    <path fill="#4285F4" d="M258.024 129.358c-4.428-4.426-4.428-11.604 0-16.032l9.62-9.62c4.426-4.426 11.604-4.426 16.032 0 4.426 4.428 4.426 11.606 0 16.032l-9.62 9.62c-4.428 4.428-11.606 4.428-16.032 0" mask="url(#b)"/>
    <path fill="#34A853" d="M174.14 148.564l23.894 6.402c3.372.904 4.5 5.118 2.032 7.588l-17.49 17.49c-2.47 2.468-6.684 1.34-7.588-2.032l-6.402-23.894c-.904-3.372 2.182-6.458 5.554-5.554M318 32c0 7.732-6.268 14-14 14s-14-6.268-14-14 6.268-14 14-14 14 6.268 14 14" mask="url(#b)"/>
    <path d="M0 0h528v528H0z"/>
  </g>
</svg>
