<svg xmlns="http://www.w3.org/2000/svg" width="16" height="16" viewBox="0 0 16 16">
  <path d="M 1.48 13.79 V 2.34 h 6.65 v 2.4 h 6.4 v 9.05 Z M 2.8 12.46 H 4 v -1.2 H 2.8 Z m 0 -2.53 H 4 v -1.2 H 2.8 Z m 0 -2.53 H 4 V 6.19 H 2.8 Z m 0 -2.54 H 4 V 3.66 H 2.8 Z m 2.8 7.6 h 1.2 v -1.2 H 5.6 Z m 0 -2.53 h 1.2 v -1.2 H 5.6 Z m 0 -2.53 h 1.2 V 6.19 H 5.6 Z m 0 -2.54 h 1.2 V 3.66 H 5.6 Z M 8 12.46 h 5.2 V 6.06 H 8 v 1.34 h 1.2 v 1.2 H 8 v 1.33 h 1.2 v 1.2 H 8 Z m 2.8 -3.87 v -1.2 H 12 v 1.2 Z m 0 2.53 v -1.2 H 12 v 1.2 Z"/>
</svg>