<svg xmlns="http://www.w3.org/2000/svg" width="16" height="16" viewBox="0 0 16 16">
  <path d="M 7.34 11.26 h 1.32 V 7.2 H 7.34 Z m 0.66 -5.18 a 0.66 0.66 0 0 0 0.48 -0.19 a 0.66 0.66 0 0 0 0.2 -0.48 a 0.67 0.67 0 0 0 -0.2 -0.48 a 0.64 0.64 0 0 0 -0.48 -0.2 a 0.66 0.66 0 0 0 -0.48 0.2 a 0.64 0.64 0 0 0 -0.2 0.48 c 0 0.2 0.07 0.36 0.2 0.49 a 0.64 0.64 0 0 0 0.48 0.2 Z m 0.01 8.46 c -0.9 0 -1.75 -0.17 -2.54 -0.51 a 6.52 6.52 0 0 1 -2.08 -1.4 a 6.52 6.52 0 0 1 -1.4 -2.08 a 6.33 6.33 0 0 1 -0.51 -2.55 c 0 -0.91 0.17 -1.75 0.51 -2.54 A 6.53 6.53 0 0 1 3.38 3.38 A 6.52 6.52 0 0 1 5.46 1.98 a 6.33 6.33 0 0 1 2.55 -0.51 c 0.91 0 1.75 0.17 2.54 0.51 c 0.79 0.34 1.48 0.8 2.07 1.4 a 6.5 6.5 0 0 1 1.4 2.08 a 6.29 6.29 0 0 1 0.51 2.54 c 0 0.9 -0.17 1.75 -0.51 2.54 a 6.52 6.52 0 0 1 -1.4 2.08 a 6.5 6.5 0 0 1 -2.08 1.4 a 6.29 6.29 0 0 1 -2.54 0.51 Z M 8 13.15 c 1.43 0 2.65 -0.5 3.65 -1.5 c 1 -1 1.5 -2.22 1.5 -3.65 c 0 -1.43 -0.5 -2.65 -1.5 -3.65 S 9.43 2.85 8 2.85 c -1.43 0 -2.65 0.5 -3.65 1.5 S 2.85 6.57 2.85 8 c 0 1.43 0.5 2.65 1.5 3.65 c 1 1 2.22 1.5 3.65 1.5 Z"/>
</svg>