<svg xmlns="http://www.w3.org/2000/svg" width="16" height="16" viewBox="0 0 16 16">
  <path d="M 12.93 11.06 L 11.55 9.67 V 6.84 H 8.72 L 7.34 5.45 h 2.54 V 3.97 c 0 -0.52 -0.18 -0.97 -0.54 -1.34 a 1.81 1.81 0 0 0 -1.34 -0.55 a 1.82 1.82 0 0 0 -1.34 0.55 a 1.81 1.81 0 0 0 -0.55 1.33 v 0.27 L 4.92 3.04 A 3.15 3.15 0 0 1 8 0.7 c 0.91 0 1.68 0.32 2.31 0.95 c 0.63 0.63 0.95 1.4 0.95 2.31 v 1.5 h 0.29 c 0.38 0 0.71 0.13 0.98 0.41 c 0.27 0.27 0.4 0.59 0.4 0.98 Z m 0.53 4.09 l -0.98 -0.99 a 1.49 1.49 0 0 1 -0.4 0.25 a 1.23 1.23 0 0 1 -0.53 0.11 H 4.44 a 1.35 1.35 0 0 1 -0.98 -0.4 a 1.26 1.26 0 0 1 -0.39 -0.98 V 6.84 c 0 -0.3 0.08 -0.56 0.24 -0.79 c 0.16 -0.23 0.36 -0.39 0.59 -0.48 L 0.93 2.61 l 0.89 -0.89 l 12.53 12.55 Z m -2.01 -2.01 l -2.49 -2.48 a 1.05 1.05 0 0 1 -0.41 0.39 a 1.18 1.18 0 0 1 -1.4 -0.21 a 1.16 1.16 0 0 1 -0.35 -0.85 c 0 -0.19 0.04 -0.37 0.13 -0.54 c 0.08 -0.17 0.22 -0.32 0.39 -0.44 L 5.16 6.84 H 4.45 v 6.31 Z M 8.14 9.82 Z m 1.94 -1.62 Z"/>
</svg>