<svg xmlns="http://www.w3.org/2000/svg" width="16" height="16" class="vector-svg"><path d="M8.01 14.54a6.38 6.38 0 0 1-2.54-.51 6.59 6.59 0 0 1-2.08-1.41 6.66 6.66 0 0 1-1.41-2.09 6.39 6.39 0 0 1-.51-2.54c0-.9.17-1.75.51-2.53a6.59 6.59 0 0 1 3.49-3.48 6.39 6.39 0 0 1 2.54-.51c.9 0 1.75.17 2.54.51a6.63 6.63 0 0 1 3.48 3.49c.34.79.51 1.64.51 2.54a6.38 6.38 0 0 1-.51 2.54 6.59 6.59 0 0 1-3.49 3.49c-.79.34-1.63.51-2.53.51Zm-.8-1.45v-1.13a.76.76 0 0 1-.56-.23.77.77 0 0 1-.23-.56v-.79L2.97 6.93a6.23 6.23 0 0 0-.09.57 5.58 5.58 0 0 0-.02.49c0 1.27.41 2.39 1.23 3.36a4.86 4.86 0 0 0 3.13 1.73Zm4.76-1.8c.2-.23.37-.47.52-.73.14-.25.27-.52.37-.8a5.32 5.32 0 0 0 .3-1.77c0-1.04-.28-1.99-.85-2.85A5.05 5.05 0 0 0 10 3.24v.4c0 .32-.12.61-.35.84-.23.23-.52.35-.84.35h-1.6v.79a.77.77 0 0 1-.23.57.77.77 0 0 1-.57.23h-.78v1.59h3.96c.23 0 .41.08.57.23.16.15.23.34.23.57v1.58h.67a.87.87 0 0 1 .65.27c.18.18.26.39.26.65Zm0 0Z"/></svg>