<svg xmlns="http://www.w3.org/2000/svg" width="15" height="15" class="vector-svg"><path d="M4.92 7.5c0 .71.25 1.31.76 1.82s1.12.76 1.82.76 1.31-.25 1.82-.76.76-1.12.76-1.82-.25-1.31-.76-1.82a2.49 2.49 0 0 0-1.82-.76c-.7 0-1.31.25-1.82.76a2.49 2.49 0 0 0-.76 1.82Zm2.58 3.98c.14 0 .28 0 .41-.02.13-.01.26-.04.39-.07l-1.53 2.67c-1.65-.19-3.04-.89-4.15-2.12C1.5 10.71.94 9.24.94 7.55c0-.46.05-.9.13-1.33.08-.44.22-.85.39-1.25l2.63 4.55c.34.59.81 1.07 1.41 1.43.6.36 1.26.54 2.01.54Zm0-7.87c-.87 0-1.65.25-2.33.77a3.95 3.95 0 0 0-1.42 1.94L2.21 3.66a6.79 6.79 0 0 1 2.27-1.94C5.4 1.22 6.4.98 7.5.98s2.08.24 2.99.72a6.66 6.66 0 0 1 2.27 1.9H7.51l-.01.01Zm6.01 1.31c.19.4.32.83.41 1.27.09.44.15.89.15 1.36 0 1.7-.55 3.16-1.68 4.38-1.11 1.23-2.47 1.93-4.1 2.13l2.63-4.55c.17-.28.29-.59.38-.92.09-.34.15-.69.15-1.05 0-.52-.09-.99-.28-1.42a3.96 3.96 0 0 0-.74-1.2h3.08v.01Z"/></svg>