<svg xmlns="http://www.w3.org/2000/svg" width="16" height="16" viewBox="0 0 16 16">
  <path d="M 11.66 13.77 c -0.69 0 -1.28 -0.24 -1.75 -0.71 a 2.38 2.38 0 0 1 -0.72 -1.75 c 0 -0.69 0.24 -1.28 0.72 -1.75 c 0.48 -0.48 1.06 -0.72 1.75 -0.72 c 0.69 0 1.27 0.24 1.75 0.72 a 2.39 2.39 0 0 1 0.72 1.75 c 0 0.69 -0.24 1.27 -0.72 1.75 a 2.39 2.39 0 0 1 -1.75 0.71 Z m 0 -1.34 c 0.31 0 0.58 -0.11 0.8 -0.33 a 1.1 1.1 0 0 0 0.33 -0.8 c 0 -0.31 -0.11 -0.58 -0.33 -0.8 a 1.09 1.09 0 0 0 -0.8 -0.33 c -0.31 0 -0.58 0.11 -0.8 0.33 a 1.09 1.09 0 0 0 -0.33 0.8 c 0 0.31 0.11 0.58 0.33 0.8 c 0.22 0.22 0.49 0.33 0.8 0.33 Z m -9.16 -0.44 v -1.38 h 5.49 v 1.38 Z m 1.83 -4.83 a 2.38 2.38 0 0 1 -1.75 -0.72 a 2.39 2.39 0 0 1 -0.72 -1.75 c 0 -0.69 0.24 -1.27 0.72 -1.75 a 2.39 2.39 0 0 1 1.75 -0.71 c 0.69 0 1.28 0.24 1.75 0.71 c 0.48 0.48 0.72 1.06 0.72 1.75 c 0 0.69 -0.24 1.28 -0.72 1.75 c -0.48 0.48 -1.06 0.72 -1.75 0.72 Z m 0 -1.34 c 0.31 0 0.58 -0.11 0.8 -0.33 c 0.22 -0.22 0.33 -0.48 0.33 -0.8 c 0 -0.31 -0.11 -0.58 -0.33 -0.8 a 1.1 1.1 0 0 0 -0.8 -0.33 c -0.31 0 -0.58 0.11 -0.8 0.33 a 1.1 1.1 0 0 0 -0.33 0.8 c 0 0.31 0.11 0.58 0.33 0.8 c 0.22 0.22 0.49 0.33 0.8 0.33 Z m 3.67 -0.44 V 4 h 5.49 v 1.38 Z m 3.66 5.92 Z m -7.33 -6.61 Z"/>
</svg>