<svg width="244" height="120" viewBox="0 0 244 120" fill="none" xmlns="http://www.w3.org/2000/svg"><path d="M120.5 114c24.348 0 44.967-15.966 51.958-38M120.5 5C98.424 5 79.413 18.126 70.847 37M133.5 6.56c16.362 4.004 29.826 15.396 36.653 30.44M106.5 112.185C91.318 108.161 78.735 97.749 71.804 84M162 59.5a41.31 41.31 0 0 0-7.29-23.5M79 59.5a41.306 41.306 0 0 1 6.5-22.309M142 95.004a41.64 41.64 0 0 0 17.336-20.843M131.5 99.526a41.548 41.548 0 0 1-11 1.474c-15.015 0-28.167-7.974-35.454-19.918M143 24.622A41.306 41.306 0 0 0 120.5 18a41.337 41.337 0 0 0-27.02 10" stroke="#E8EAED" stroke-width="1.376" stroke-linecap="round"/><path d="M113.298 62.08a5.16 5.16 0 0 1-4.463 2.58 5.168 5.168 0 0 1-5.161-5.161 5.168 5.168 0 0 1 5.161-5.161 5.165 5.165 0 0 1 4.463 2.58h6.593c-1.172-5.02-5.681-8.773-11.052-8.773-6.264 0-11.358 5.094-11.358 11.354 0 6.259 5.094 11.354 11.354 11.354 5.371 0 9.884-3.753 11.052-8.774h-6.589Z" fill="#4285F4"/><path d="M131.027 56.402h-11.354v6.194h11.354v-6.194Z" fill="#FBBC04"/><path d="M142.897 62.08v6.71h-4.129v-2.065a2.065 2.065 0 0 0-4.128 0v2.064h-4.129V62.08h12.386Z" fill="#34A853"/><path d="M142.897 56.402h-12.386v6.194h12.386v-6.194Z" fill="#188038"/><path d="M119.755 56.402h-6.792v.013a5.14 5.14 0 0 1 1.032 3.084 5.14 5.14 0 0 1-1.032 3.084v.013h6.792a11.317 11.317 0 0 0 0-6.194Z" fill="#EA4335"/><rect x="-.837" y=".497" width="40.447" height="28.146" rx="2.064" transform="scale(-1 1) rotate(-14.295 92.125 858.678)" fill="#F8F9FA" stroke="#9AA0A6" stroke-width="1.376"/><path d="m207.867 80.541-50.064-12.757a1.846 1.846 0 0 0 1.333 2.244l46.488 11.845a1.844 1.844 0 0 0 2.243-1.332Z" fill="#9AA0A6"/><circle cx=".486" cy=".486" r=".486" transform="scale(-1 1) rotate(-14.295 88.766 782.895)" fill="#BDC1C6"/><rect x="50.847" y="45.185" width="19.268" height="39.911" rx="2.064" transform="rotate(-15.469 50.847 45.185)" fill="#F8F9FA" stroke="#9AA0A6" stroke-width="1.376"/><circle cx="53.449" cy="46.897" r=".681" transform="rotate(-15.469 53.45 46.897)" fill="#BDC1C6"/><rect width="8.173" height="1.362" rx=".681" transform="scale(-1 1) rotate(15.469 -318.95 -232.975)" fill="#BDC1C6"/><rect width="5.108" height="5.108" rx="1.376" transform="scale(-1 1) rotate(-38.785 -1.404 147.802)" fill="#34A853"/><rect width="5.108" height="5.108" rx="1.376" transform="scale(-1 1) rotate(-7.486 794.066 945.13)" fill="#FBBC04"/><circle cx="137" cy="98" r="2" fill="#EA4335"/><circle cx="147.131" cy="27.993" r="1.916" transform="rotate(3.1 147.131 27.993)" fill="#FBBC04"/><circle cx="151.377" cy="31.819" r="1.916" transform="rotate(3.1 151.377 31.82)" fill="#4285F4"/><rect x="63.671" y="56.643" width="5.505" height="9.634" rx="2.753" transform="rotate(-.827 63.67 56.643)" fill="#4285F4"/><circle cx="66.992" cy="71.679" r="2.064" transform="rotate(-4.548 66.992 71.68)" fill="#FBBC04"/><circle cx="66.992" cy="51.322" r="2.064" transform="rotate(-4.548 66.992 51.322)" fill="#34A853"/><rect x="171.932" y="51.707" width="5.505" height="9.634" rx="2.753" transform="rotate(-2.454 171.932 51.707)" fill="#FBBC04"/><circle cx="173.409" cy="46.597" r="2.064" transform="rotate(13.015 173.409 46.597)" fill="#EA4335"/><circle cx="174.408" cy="66.207" r="2.064" transform="rotate(13.015 174.408 66.207)" fill="#E8EAED"/><circle cx="127.5" cy="5.5" r="2.5" fill="#4285F4"/></svg>