<svg xmlns="http://www.w3.org/2000/svg" width="248" height="120" fill="none" viewBox="0 0 248 120"><path fill="#fff" d="M0 0h248v120H0z"/><circle cx="58" cy="20" r="1" fill="#DADCE0"/><circle cx="62" cy="20" r="1" fill="#DADCE0"/><circle cx="50" cy="20" r="1" fill="#DADCE0"/><circle cx="54" cy="20" r="1" fill="#DADCE0"/><circle cx="66" cy="20" r="1" fill="#DADCE0"/><circle cx="1" cy="1" r="1" fill="#DADCE0" transform="matrix(-1 0 0 1 36 92)"/><circle cx="1" cy="1" r="1" fill="#DADCE0" transform="matrix(-1 0 0 1 44 92)"/><circle cx="1" cy="1" r="1" fill="#DADCE0" transform="matrix(-1 0 0 1 40 92)"/><circle cx="1" cy="1" r="1" fill="#DADCE0" transform="matrix(-1 0 0 1 32 92)"/><circle cx="1" cy="1" r="1" fill="#DADCE0" transform="matrix(-1 0 0 1 28 92)"/><circle cx="1" cy="1" r="1" fill="#DADCE0" transform="matrix(-1 0 0 1 198 25)"/><circle cx="1" cy="1" r="1" fill="#DADCE0" transform="matrix(-1 0 0 1 194 25)"/><circle cx="42" cy="24" r="1" fill="#DADCE0"/><circle cx="46" cy="24" r="1" fill="#DADCE0"/><circle cx="30" cy="24" r="1" fill="#DADCE0"/><circle cx="50" cy="24" r="1" fill="#DADCE0"/><circle cx="54" cy="24" r="1" fill="#DADCE0"/><circle cx="1" cy="1" r="1" fill="#DADCE0" transform="matrix(-1 0 0 1 206 25)"/><circle cx="38" cy="24" r="1" fill="#DADCE0"/><circle cx="1" cy="1" r="1" fill="#DADCE0" transform="matrix(-1 0 0 1 202 25)"/><circle cx="1" cy="1" r="1" fill="#DADCE0" transform="matrix(-1 0 0 1 190 25)"/><circle cx="1" cy="1" r="1" fill="#DADCE0" transform="matrix(-1 0 0 1 186 25)"/><circle cx="1" cy="1" r="1" fill="#DADCE0" transform="matrix(-1 0 0 1 182 25)"/><circle cx="1" cy="1" r="1" fill="#DADCE0" transform="matrix(-1 0 0 1 52 96)"/><circle cx="1" cy="1" r="1" fill="#DADCE0" transform="matrix(-1 0 0 1 48 100)"/><circle cx="1" cy="1" r="1" fill="#DADCE0" transform="matrix(-1 0 0 1 48 96)"/><circle cx="1" cy="1" r="1" fill="#DADCE0" transform="matrix(-1 0 0 1 44 100)"/><circle cx="1" cy="1" r="1" fill="#DADCE0" transform="matrix(-1 0 0 1 44 96)"/><circle cx="1" cy="1" r="1" fill="#DADCE0" transform="matrix(-1 0 0 1 40 96)"/><circle cx="1" cy="1" r="1" fill="#DADCE0" transform="matrix(-1 0 0 1 36 96)"/><circle cx="1" cy="1" r="1" fill="#DADCE0" transform="matrix(-1 0 0 1 56 96)"/><circle cx="1" cy="1" r="1" fill="#DADCE0" transform="matrix(-1 0 0 1 214 29)"/><circle cx="1" cy="1" r="1" fill="#DADCE0" transform="matrix(-1 0 0 1 210 29)"/><circle cx="1" cy="1" r="1" fill="#DADCE0" transform="matrix(-1 0 0 1 206 29)"/><circle cx="183" cy="107" r="1" fill="#DADCE0"/><circle cx="187" cy="107" r="1" fill="#DADCE0"/><circle cx="179" cy="103" r="1" fill="#DADCE0"/><circle cx="183" cy="103" r="1" fill="#DADCE0"/><circle cx="191" cy="107" r="1" fill="#DADCE0"/><circle cx="187" cy="103" r="1" fill="#DADCE0"/><circle cx="163" cy="107" r="1" fill="#DADCE0"/><circle cx="179" cy="107" r="1" fill="#DADCE0"/><circle cx="167" cy="107" r="1" fill="#DADCE0"/><circle cx="171" cy="107" r="1" fill="#DADCE0"/><circle cx="175" cy="107" r="1" fill="#DADCE0"/><circle cx="175" cy="103" r="1" fill="#DADCE0"/><circle cx="1" cy="1" r="1" fill="#DADCE0" transform="matrix(-1 0 0 1 218 29)"/><circle cx="1" cy="1" r="1" fill="#DADCE0" transform="matrix(-1 0 0 1 202 29)"/><circle cx="1" cy="1" r="1" fill="#DADCE0" transform="matrix(-1 0 0 1 198 29)"/><circle cx="37" cy="53" r="3" fill="#DADCE0"/><circle cx="45" cy="53" r="3" fill="#DADCE0"/><circle cx="53" cy="53" r="3" fill="#DADCE0"/><circle cx="21" cy="53" r="3" fill="#DADCE0"/><circle cx="199" cy="72" r="3" fill="#DADCE0"/><circle cx="207" cy="72" r="3" fill="#DADCE0"/><circle cx="215" cy="72" r="3" fill="#DADCE0"/><circle cx="231" cy="72" r="3" fill="#DADCE0"/><path fill="#fff" d="M76 16h90v88H76z"/><circle cx="120.5" cy="60" r="43" fill="#E8F0FE"/><path fill="url(#a)" fill-rule="evenodd" d="m141.628 79.999.206.001c8.837 0 16-7.163 16-16s-7.163-16-16-16c-.453 0-.902.019-1.346.056C137.209 38.706 128.305 32 117.834 32c-12.436 0-22.663 9.459-23.879 21.575-6.146 1.188-10.788 6.597-10.788 13.09C83.167 74.03 89.137 80 96.5 80h21.081a23.844 23.844 0 0 0 .505 0h23.542Z" clip-rule="evenodd"/><path fill="#188038" d="M142.5 57h-12v6h12v-6Z"/><path fill="#4285F4" d="M109.5 71c-6.05 0-11-4.95-11-11s4.95-11 11-11 11 4.95 11 11-4.95 11-11 11Zm0-16c-2.75 0-5 2.25-5 5s2.25 5 5 5 5-2.25 5-5-2.25-5-5-5Z"/><path fill="#34A853" d="M138.5 63h-8v6h4v-2c0-1.1.9-2 2-2s2 .9 2 2v2h4v-6h-4Z"/><path fill="#EA4335" d="M120.1 57h-6.6c.6.85 1 1.85 1 3s-.4 2.15-1 3h6.6c.25-.95.4-1.95.4-3s-.15-2.05-.4-3Z"/><path fill="#FBBC04" d="M130.5 57h-10.4c.25.95.4 1.95.4 3s-.15 2.05-.4 3h10.4v-6Z"/><defs><linearGradient id="a" x1="106.5" x2="94.057" y1="46.08" y2="76.856" gradientUnits="userSpaceOnUse"><stop offset=".354" stop-color="#fff"/><stop offset=".953" stop-color="#AECBFA"/></linearGradient></defs></svg>