<svg width="248" height="120" viewBox="0 0 248 120" fill="none" xmlns="http://www.w3.org/2000/svg"><g filter="url(#a)"><circle cx="131" cy="61" r="46" fill="#fff"/></g><circle cx="58" cy="20" r="1" fill="#DADCE0"/><circle cx="62" cy="20" r="1" fill="#DADCE0"/><circle cx="50" cy="20" r="1" fill="#DADCE0"/><circle cx="54" cy="20" r="1" fill="#DADCE0"/><circle cx="66" cy="20" r="1" fill="#DADCE0"/><circle cx="1" cy="1" r="1" transform="matrix(-1 0 0 1 36 92)" fill="#DADCE0"/><circle cx="1" cy="1" r="1" transform="matrix(-1 0 0 1 44 92)" fill="#DADCE0"/><circle cx="1" cy="1" r="1" transform="matrix(-1 0 0 1 40 92)" fill="#DADCE0"/><circle cx="1" cy="1" r="1" transform="matrix(-1 0 0 1 32 92)" fill="#DADCE0"/><circle cx="1" cy="1" r="1" transform="matrix(-1 0 0 1 28 92)" fill="#DADCE0"/><circle cx="1" cy="1" r="1" transform="matrix(-1 0 0 1 198 25)" fill="#DADCE0"/><circle cx="1" cy="1" r="1" transform="matrix(-1 0 0 1 194 25)" fill="#DADCE0"/><circle cx="42" cy="24" r="1" fill="#DADCE0"/><circle cx="46" cy="24" r="1" fill="#DADCE0"/><circle cx="30" cy="24" r="1" fill="#DADCE0"/><circle cx="50" cy="24" r="1" fill="#DADCE0"/><circle cx="54" cy="24" r="1" fill="#DADCE0"/><circle cx="1" cy="1" r="1" transform="matrix(-1 0 0 1 206 25)" fill="#DADCE0"/><circle cx="38" cy="24" r="1" fill="#DADCE0"/><circle cx="1" cy="1" r="1" transform="matrix(-1 0 0 1 202 25)" fill="#DADCE0"/><circle cx="1" cy="1" r="1" transform="matrix(-1 0 0 1 190 25)" fill="#DADCE0"/><circle cx="1" cy="1" r="1" transform="matrix(-1 0 0 1 186 25)" fill="#DADCE0"/><circle cx="1" cy="1" r="1" transform="matrix(-1 0 0 1 182 25)" fill="#DADCE0"/><circle cx="1" cy="1" r="1" transform="matrix(-1 0 0 1 52 96)" fill="#DADCE0"/><circle cx="1" cy="1" r="1" transform="matrix(-1 0 0 1 48 100)" fill="#DADCE0"/><circle cx="1" cy="1" r="1" transform="matrix(-1 0 0 1 48 96)" fill="#DADCE0"/><circle cx="1" cy="1" r="1" transform="matrix(-1 0 0 1 44 100)" fill="#DADCE0"/><circle cx="1" cy="1" r="1" transform="matrix(-1 0 0 1 44 96)" fill="#DADCE0"/><circle cx="1" cy="1" r="1" transform="matrix(-1 0 0 1 40 96)" fill="#DADCE0"/><circle cx="1" cy="1" r="1" transform="matrix(-1 0 0 1 36 96)" fill="#DADCE0"/><circle cx="1" cy="1" r="1" transform="matrix(-1 0 0 1 56 96)" fill="#DADCE0"/><circle cx="1" cy="1" r="1" transform="matrix(-1 0 0 1 214 29)" fill="#DADCE0"/><circle cx="1" cy="1" r="1" transform="matrix(-1 0 0 1 210 29)" fill="#DADCE0"/><circle cx="1" cy="1" r="1" transform="matrix(-1 0 0 1 206 29)" fill="#DADCE0"/><circle cx="183" cy="107" r="1" fill="#DADCE0"/><circle cx="187" cy="107" r="1" fill="#DADCE0"/><circle cx="179" cy="103" r="1" fill="#DADCE0"/><circle cx="183" cy="103" r="1" fill="#DADCE0"/><circle cx="191" cy="107" r="1" fill="#DADCE0"/><circle cx="187" cy="103" r="1" fill="#DADCE0"/><circle cx="163" cy="107" r="1" fill="#DADCE0"/><circle cx="179" cy="107" r="1" fill="#DADCE0"/><circle cx="167" cy="107" r="1" fill="#DADCE0"/><circle cx="171" cy="107" r="1" fill="#DADCE0"/><circle cx="175" cy="107" r="1" fill="#DADCE0"/><circle cx="175" cy="103" r="1" fill="#DADCE0"/><circle cx="1" cy="1" r="1" transform="matrix(-1 0 0 1 218 29)" fill="#DADCE0"/><circle cx="1" cy="1" r="1" transform="matrix(-1 0 0 1 202 29)" fill="#DADCE0"/><circle cx="1" cy="1" r="1" transform="matrix(-1 0 0 1 198 29)" fill="#DADCE0"/><circle cx="37" cy="53" r="3" fill="#DADCE0"/><circle cx="45" cy="53" r="3" fill="#DADCE0"/><circle cx="53" cy="53" r="3" fill="#DADCE0"/><circle cx="21" cy="53" r="3" fill="#DADCE0"/><circle cx="199" cy="72" r="3" fill="#DADCE0"/><circle cx="207" cy="72" r="3" fill="#DADCE0"/><circle cx="215" cy="72" r="3" fill="#DADCE0"/><circle cx="231" cy="72" r="3" fill="#DADCE0"/><path d="M156.666 57.5h-14v7h14v-7Z" fill="#188038"/><path d="M118.167 73.833c-7.058 0-12.833-5.775-12.833-12.834 0-7.058 5.775-12.833 12.833-12.833 7.059 0 12.834 5.775 12.834 12.833 0 7.059-5.775 12.834-12.834 12.834Zm0-18.667c-3.208 0-5.833 2.625-5.833 5.833 0 3.209 2.625 5.834 5.833 5.834 3.209 0 5.834-2.625 5.834-5.834 0-3.208-2.625-5.833-5.834-5.833Z" fill="#4285F4"/><path d="M151.999 64.5h-9.333v7h4.667v-2.333a2.34 2.34 0 0 1 2.333-2.334 2.34 2.34 0 0 1 2.333 2.334V71.5h4.667v-7h-4.667Z" fill="#34A853"/><path d="M130.534 57.5h-7.7c.7.992 1.167 2.158 1.167 3.5s-.467 2.508-1.167 3.5h7.7c.292-1.108.467-2.275.467-3.5s-.175-2.392-.467-3.5Z" fill="#EA4335"/><path d="M142.667 57.5h-12.134c.292 1.108.467 2.275.467 3.5s-.175 2.392-.467 3.5h12.134v-7Z" fill="#FBBC04"/><defs><filter id="a" x="81" y="11" width="100" height="104" filterUnits="userSpaceOnUse" color-interpolation-filters="sRGB"><feFlood flood-opacity="0" result="BackgroundImageFix"/><feColorMatrix in="SourceAlpha" values="0 0 0 0 0 0 0 0 0 0 0 0 0 0 0 0 0 0 127 0" result="hardAlpha"/><feOffset dy="4"/><feGaussianBlur stdDeviation="2"/><feComposite in2="hardAlpha" operator="out"/><feColorMatrix values="0 0 0 0 0 0 0 0 0 0 0 0 0 0 0 0 0 0 0.06 0"/><feBlend in2="BackgroundImageFix" result="effect1_dropShadow_16989_243392"/><feColorMatrix in="SourceAlpha" values="0 0 0 0 0 0 0 0 0 0 0 0 0 0 0 0 0 0 127 0" result="hardAlpha"/><feOffset/><feGaussianBlur stdDeviation="2"/><feComposite in2="hardAlpha" operator="out"/><feColorMatrix values="0 0 0 0 0 0 0 0 0 0 0 0 0 0 0 0 0 0 0.06 0"/><feBlend in2="effect1_dropShadow_16989_243392" result="effect2_dropShadow_16989_243392"/><feBlend in="SourceGraphic" in2="effect2_dropShadow_16989_243392" result="shape"/></filter></defs></svg>