<svg width="248" height="120" viewBox="0 0 248 120" fill="none" xmlns="http://www.w3.org/2000/svg"><circle cx="58" cy="20" r="1" fill="#DADCE0"/><circle cx="62" cy="20" r="1" fill="#DADCE0"/><circle cx="50" cy="20" r="1" fill="#DADCE0"/><circle cx="54" cy="20" r="1" fill="#DADCE0"/><circle cx="66" cy="20" r="1" fill="#DADCE0"/><circle cx="1" cy="1" r="1" transform="matrix(-1 0 0 1 36 92)" fill="#DADCE0"/><circle cx="1" cy="1" r="1" transform="matrix(-1 0 0 1 44 92)" fill="#DADCE0"/><circle cx="1" cy="1" r="1" transform="matrix(-1 0 0 1 40 92)" fill="#DADCE0"/><circle cx="1" cy="1" r="1" transform="matrix(-1 0 0 1 32 92)" fill="#DADCE0"/><circle cx="1" cy="1" r="1" transform="matrix(-1 0 0 1 28 92)" fill="#DADCE0"/><circle cx="1" cy="1" r="1" transform="matrix(-1 0 0 1 198 25)" fill="#DADCE0"/><circle cx="1" cy="1" r="1" transform="matrix(-1 0 0 1 194 25)" fill="#DADCE0"/><circle cx="42" cy="24" r="1" fill="#DADCE0"/><circle cx="46" cy="24" r="1" fill="#DADCE0"/><circle cx="30" cy="24" r="1" fill="#DADCE0"/><circle cx="50" cy="24" r="1" fill="#DADCE0"/><circle cx="54" cy="24" r="1" fill="#DADCE0"/><circle cx="1" cy="1" r="1" transform="matrix(-1 0 0 1 206 25)" fill="#DADCE0"/><circle cx="38" cy="24" r="1" fill="#DADCE0"/><circle cx="1" cy="1" r="1" transform="matrix(-1 0 0 1 202 25)" fill="#DADCE0"/><circle cx="1" cy="1" r="1" transform="matrix(-1 0 0 1 190 25)" fill="#DADCE0"/><circle cx="1" cy="1" r="1" transform="matrix(-1 0 0 1 186 25)" fill="#DADCE0"/><circle cx="1" cy="1" r="1" transform="matrix(-1 0 0 1 182 25)" fill="#DADCE0"/><circle cx="1" cy="1" r="1" transform="matrix(-1 0 0 1 52 96)" fill="#DADCE0"/><circle cx="1" cy="1" r="1" transform="matrix(-1 0 0 1 48 100)" fill="#DADCE0"/><circle cx="1" cy="1" r="1" transform="matrix(-1 0 0 1 48 96)" fill="#DADCE0"/><circle cx="1" cy="1" r="1" transform="matrix(-1 0 0 1 44 100)" fill="#DADCE0"/><circle cx="1" cy="1" r="1" transform="matrix(-1 0 0 1 44 96)" fill="#DADCE0"/><circle cx="1" cy="1" r="1" transform="matrix(-1 0 0 1 40 96)" fill="#DADCE0"/><circle cx="1" cy="1" r="1" transform="matrix(-1 0 0 1 36 96)" fill="#DADCE0"/><circle cx="1" cy="1" r="1" transform="matrix(-1 0 0 1 56 96)" fill="#DADCE0"/><circle cx="1" cy="1" r="1" transform="matrix(-1 0 0 1 214 29)" fill="#DADCE0"/><circle cx="1" cy="1" r="1" transform="matrix(-1 0 0 1 210 29)" fill="#DADCE0"/><circle cx="1" cy="1" r="1" transform="matrix(-1 0 0 1 206 29)" fill="#DADCE0"/><circle cx="183" cy="107" r="1" fill="#DADCE0"/><circle cx="187" cy="107" r="1" fill="#DADCE0"/><circle cx="179" cy="103" r="1" fill="#DADCE0"/><circle cx="183" cy="103" r="1" fill="#DADCE0"/><circle cx="191" cy="107" r="1" fill="#DADCE0"/><circle cx="187" cy="103" r="1" fill="#DADCE0"/><circle cx="163" cy="107" r="1" fill="#DADCE0"/><circle cx="179" cy="107" r="1" fill="#DADCE0"/><circle cx="167" cy="107" r="1" fill="#DADCE0"/><circle cx="171" cy="107" r="1" fill="#DADCE0"/><circle cx="175" cy="107" r="1" fill="#DADCE0"/><circle cx="175" cy="103" r="1" fill="#DADCE0"/><circle cx="1" cy="1" r="1" transform="matrix(-1 0 0 1 218 29)" fill="#DADCE0"/><circle cx="1" cy="1" r="1" transform="matrix(-1 0 0 1 202 29)" fill="#DADCE0"/><circle cx="1" cy="1" r="1" transform="matrix(-1 0 0 1 198 29)" fill="#DADCE0"/><circle cx="37" cy="53" r="3" fill="#DADCE0"/><circle cx="45" cy="53" r="3" fill="#DADCE0"/><circle cx="53" cy="53" r="3" fill="#DADCE0"/><circle cx="21" cy="53" r="3" fill="#DADCE0"/><circle cx="199" cy="72" r="3" fill="#DADCE0"/><circle cx="207" cy="72" r="3" fill="#DADCE0"/><circle cx="215" cy="72" r="3" fill="#DADCE0"/><circle cx="231" cy="72" r="3" fill="#DADCE0"/><path d="M168 54h-24v12h24V54Z" fill="#188038"/><path d="M102 82c-12.1 0-22-9.9-22-22s9.9-22 22-22 22 9.9 22 22-9.9 22-22 22Zm0-32c-5.5 0-10 4.5-10 10s4.5 10 10 10 10-4.5 10-10-4.5-10-10-10Z" fill="#4285F4"/><path d="M160 66h-16v12h8v-4c0-2.2 1.8-4 4-4s4 1.8 4 4v4h8V66h-8Z" fill="#34A853"/><path d="M123.2 54H110c1.2 1.7 2 3.7 2 6s-.8 4.3-2 6h13.2c.5-1.9.8-3.9.8-6s-.3-4.1-.8-6Z" fill="#EA4335"/><path d="M144 54h-20.8c.5 1.9.8 3.9.8 6s-.3 4.1-.8 6H144V54Z" fill="#FBBC04"/></svg>