<svg id="a" xmlns="http://www.w3.org/2000/svg" viewBox="0 0 1056 360"><defs><clipPath id="b"><path class="p" d="M266.89 259.85h-39.4c-2.06 0-3.81-1.52-4.1-3.56l-3.13-22.17a4.142 4.142 0 0 1 4.1-4.72h39.4c2.06 0 3.81 1.52 4.1 3.56l3.13 22.17a4.142 4.142 0 0 1-4.1 4.72Z"/></clipPath><clipPath id="c"><path class="k" d="M289.5 138.08c0-31.98-25.93-57.91-57.91-57.91s-57.91 25.93-57.91 57.91c0 30.08 22.93 54.79 52.26 57.63l5.75 9.77 5.76-9.79c29.23-2.94 52.05-27.61 52.05-57.62Z"/></clipPath><clipPath id="d"><path class="k" d="M223.89 139.8c.24-6.36-.25-9.93-3.35-11.09h21.4c-3.01 2.59-2.67 4.08-2.67 11.05 0 2.09 2.05 3.8 2.67 3.8l-10.93 4.22-10.47-4.77c1.36-.03 3.28-1.26 3.35-3.2Z"/></clipPath><clipPath id="e"><path class="k" d="M722.59 65.92h72.17v57.59h-72.17z"/></clipPath><clipPath id="f"><path class="k" d="M793.07 145.79s-5.2-13.49-16.65-26.47c-7.61-8.63-16.85-16.49-17.29-28.73-.19-5.33-.75-12.59-8.94-14.42-7.88-1.76-11.47 2.79-13.46 4.84-1.05 1.08-1.04 1.86-2.54 2.03l-8.06.51c-.88.1-.98.95-1 1.83-.06 2.21 2.47 7.94 10.08 7.3 4.29-.36 6.19-1.28 7.3-1.8.28-.13.53.22.32.44-.49.5-1.21 1.24-2.15 2.16-1.15 1.14-1.15.97-2.99 2.48 6.08.78 7.92 1.53 8.93 2.37 4.57 3.8 5.91 8.51 4.69 14.47-1.77 8.67-12.13 18.31.04 38.78l41.71-5.81Z"/></clipPath><clipPath id="g"><path class="k" d="M655.24 182.54H506.8V55.18h148.44z"/></clipPath><clipPath id="h"><path class="k" d="m525.91 182.71-3.71-30.84c-1.68-14 9.25-26.33 23.35-26.33h25.4c18.72 0 36.61 7.69 49.48 21.28l15.8 16.68c6.87 7.25 1.73 19.21-8.26 19.21H525.91Z"/></clipPath><clipPath id="i"><path class="k" d="m619.9 161.2-51.41 16.73.55 4.53 56.29 6.32c9.69 1 17.55-7.7 15.6-17.24-.85-4.14-3.4-7.5-6.77-9.5"/></clipPath><clipPath id="j"><path class="k" d="M502.72 190.53c7.54-3.48 10.57-12.61 6.6-19.9l-26.01-47.85-11.74 5.22 11.13 52.71c2.04 8.88 11.74 13.64 20.02 9.83Z"/></clipPath><style>.k,.l,.m,.n,.p{fill:none}.l,.m,.n,.p{stroke-linecap:round;stroke-linejoin:round}.p{stroke:#3c4043}.v{fill:#3c4043}.x{fill:#2e2f30}.y{fill:#5f6368}.l{stroke:#fbbc04}.m{stroke:#ee675c}.n{stroke:#34a853}.ad{opacity:.1}.ae{fill:#4285f4}.ag{fill:#34a853}.ai{fill:#ee675c}.ad{fill:#f29900}.al{fill:#f9ab00}.am{fill:#fad2cf}.ao{fill:#f6aea9}.ap,.aq{fill:#fbbc04}.at{fill:#fcad70}.au{fill:#fce8e6}.av{fill:#b76d1c}.aw{fill:#aecbfa}.ba{fill:#1e8e3e}.bc{fill:#1a73e8}.be{fill:#9aa0a6}.bf{fill:#633414}.aq{stroke:#fff;stroke-miterlimit:10}</style></defs><path class="p" d="M866.38 96.8V47.23m-70.92 75.14V47.23m176.07 127.82h-78.89m78.89-73.36h-29.34m-4.89-4.89V76.18m-70.92 46.19v-20.68h-66.03m136.94 68.47v-68.47h-66.03"/><path class="x" d="M97.3 129.01c-11.93 0-21.61 9.67-21.61 21.61s9.67 21.61 21.61 21.61 21.61-9.67 21.61-21.61-9.67-21.61-21.61-21.61Zm0 38.5c-9.33 0-16.89-7.56-16.89-16.89s7.56-16.89 16.89-16.89 16.89 7.56 16.89 16.89-7.56 16.89-16.89 16.89Z"/><circle class="p" cx="97.3" cy="150.61" r="16.89"/><text transform="translate(88.04 156.08)" style="font-family:GoogleSans-Regular,Google Sans;font-size:15.16px;fill:#3c4043"><tspan x="0" y="0">72˚</tspan></text><path class="p" d="M993.1 314.03h0Zm-57.58-54.6H772.21m-50.54-2.51-10.05-8.45 2.89-1.6h-16.4l2.89 1.6-10.05 8.45c-.95.79-.38 2.34.85 2.34.22 0 .44-.06.64-.17l13.87-7.68 13.87 7.68c.2.11.42.17.64.17 1.23 0 1.8-1.54.85-2.34Z"/><path class="x" d="m870.33 256.92-10.05-8.45 2.89-1.6h-16.4l2.89 1.6-10.05 8.45c-.95.79-.38 2.34.85 2.34.22 0 .44-.06.64-.17l13.87-7.68 13.87 7.68c.2.11.42.17.64.17 1.23 0 1.8-1.54.85-2.34Z"/><path class="x" d="M886.18 123.1h-212.6c-2.88 0-5.22 2.34-5.22 5.22v53.95h2.28v-53.33c0-1.97 1.6-3.57 3.57-3.57h211.34c1.97 0 3.57 1.6 3.57 3.57v113.77c0 1.97-1.6 3.57-3.57 3.57H772.21v2.27h113.97c2.88 0 5.22-2.34 5.22-5.22V128.31c0-2.88-2.34-5.22-5.22-5.22Z"/><path class="p" d="M670.64 182.28v-53.33c0-1.97 1.6-3.57 3.57-3.57h211.34c1.97 0 3.57 1.6 3.57 3.57v113.77c0 1.97-1.6 3.57-3.57 3.57H772.21m-508.62 13.56a5.578 5.578 0 0 1-5.33 3.94h-21.59c-2.51 0-4.63-1.66-5.33-3.94"/><path class="p" d="m249.74 255.33 3.79 8.74-2.41 1.04-3.81-8.8c-1.6-3.69.09-7.98 3.78-9.58l3.26-1.41-1.62-3.75a1.858 1.858 0 0 0-2.43-.96l-35.1 15.22-.71-1.67 18.2-7.89c.9-.39 1.31-1.43.93-2.33l-7.35-17.09 1.61-.67 7.34 16.93c.42.96 1.53 1.4 2.49.98l11.86-5.14c.93-.41 1.36-1.49.96-2.43l-4.47-10.31 1.65-.71 4.48 10.3c.41.93 1.5 1.36 2.43.95l16.8-7.32.72 1.66-16.8 7.32c-.93.41-1.36 1.49-.95 2.43l10.29 23.73-1.66.72-7.7-17.75-3 1.28a4.92 4.92 0 0 0-2.58 6.49Z" style="clip-path:url(#b)"/><path class="p" d="M266.89 259.85h-39.4c-2.06 0-3.81-1.52-4.1-3.56l-3.13-22.17a4.142 4.142 0 0 1 4.1-4.72h39.4c2.06 0 3.81 1.52 4.1 3.56l3.13 22.17a4.142 4.142 0 0 1-4.1 4.72Z"/><ellipse cx="246.75" cy="241.44" rx="3.26" ry="3.89" transform="rotate(-47.52 246.742 241.431)" style="stroke-miterlimit:10;fill:#2e2f30;stroke:#3c4043"/><path class="p" d="M109.6 274.51v39.52h-9.74v-39.52zm184.42 0H92.62a5.36 5.36 0 0 1-5.36-5.36h0c0-2.96 2.4-5.36 5.36-5.36h201.4v10.72h0Z"/><path class="x" d="M172.79 166.62c10.62 6.95 16.93 26.4 10.94 36.07-7.99 12.88-19.47-.25-19.47-.25s-14.75 4-15.25-10.51c-.38-11.16 19.54-20.59 23.78-25.31Z"/><path class="p" d="M172.74 170.79c-1.24 12.66-5.46 22.92-8.99 33.1-.37 1.06-.75 2.21-1.13 3.44"/><path class="x" d="M126.49 225.93c1.42-4.83 23.1-7.78 25.2-16.1 2.8-11.08-10.29-8.58-10.29-8.58s-5.53-8.94-13.64-.71c-6.23 6.33-3.99 19.87-1.28 25.39Z"/><path class="p" d="M127.91 217.66c4.82-9.64 8.95-15.15 17.21-18.59 5.39-2.25 14.46-2.07 15.83 8.26"/><path class="p" d="M172.11 227.68c-2.29-1.59-4.9-2.75-7.71-3.36v-17h-8.95v17c-9.64 2.06-16.87 10.62-16.87 20.87 0 7.98 4.38 14.92 10.86 18.59h20.96c6.48-3.66 10.86-10.61 10.86-18.59 0-7.25-3.62-13.66-9.15-17.51Zm738.33-29.98c-3.63 2.19 12.96 32.91 21.33 53.17 3.93 9.52 8.44 20.88 16.32 17.27 6.15-2.82 7.41-14.72.29-30.66-8.82-19.76-29.73-44.71-37.94-39.78Z"/><path class="p" d="M948.87 278.06s.51-34.97-32.09-76.09"/><path class="p" d="M971.94 278.06H931.6c-1.4 0-2.57 1.04-2.74 2.43l-3.06 25.71c-.49 4.1 2.71 7.71 6.85 7.71h38.24c4.13 0 7.33-3.61 6.85-7.71l-3.06-25.71a2.757 2.757 0 0 0-2.74-2.43Z"/><path class="x" d="M981.55 216.79c3.96 2.71.1 20.72-6.3 33.54-5.15 10.3-9.2 16.06-19.45 11.53-6.29-2.78-6.86-13.01-1.66-23.17 6.44-12.58 23.88-24.32 27.42-21.9Z"/><path class="p" d="M953.65 278.06s-4.41-22.48 24.79-58.12"/><path class="x" d="M311.36 287.95v25.93h3.62l10.19-25.93h-13.81zm431.66 0 10.18 25.93h3.63v-25.93h-13.81z"/><path class="p" d="M756.83 229.39v-16.56c0-16.87-13.68-30.55-30.55-30.55H341.9c-16.87 0-30.55 13.68-30.55 30.55v17.24m17.35 33.71h408.82v24.17H328.7z"/><path class="p" d="M311.36 230.07h0c9.57 0 17.35 7.77 17.35 17.35v40.54h-24.69c-5.52 0-10-4.48-10-10v-30.54c0-9.57 7.77-17.35 17.35-17.35Zm443.51 0h0c9.57 0 17.35 7.77 17.35 17.35v30.54c0 5.52-4.48 10-10 10h-24.69v-40.54c0-9.57 7.77-17.35 17.35-17.35Zm-396.58-22.75h13.6m-6.8-6.8v13.59m-6.8 25.11h13.6m-6.8-6.79v13.59m35.45-38.7h13.6m-6.8-6.8v13.59m-6.8 25.11h13.6m-6.8-6.79v13.59m35.45-38.7h13.6m-6.8-6.8v13.59m-6.8 25.11h13.6m-6.8-6.79v13.59m35.45-38.7h13.6m-6.8-6.8v13.59m-6.8 25.11h13.6m-6.8-6.79v13.59m35.45-38.7h13.6m-6.8-6.8v13.59m-6.8 25.11h13.6m-6.8-6.79v13.59m35.46-38.7h13.59m-6.8-6.8v13.59m-6.79 25.11h13.59m-6.8-6.79v13.59m35.46-38.7h13.59m-6.8-6.8v13.59m-6.79 25.11h13.59m-6.8-6.79v13.59m35.46-38.7h13.59m-6.79-6.8v13.59m-6.8 25.11h13.59m-6.79-6.79v13.59m35.45-38.7h13.59m-6.79-6.8v13.59m-6.8 25.11h13.59m-6.79-6.79v13.59"/><path class="x" d="M885.37 259.43h30l-7.5-30h-30l7.5 30z"/><path style="fill:#2e2f30;stroke:#3c4043;stroke-linecap:round;stroke-linejoin:round" d="M900.37 259.43h-30l7.5-30h30l-7.5 30z"/><path class="p" d="M882.97 241.82c.53-1.8 2.42-3.26 4.22-3.26s2.83 1.46 2.3 3.26c-.53 1.8-2.42 3.26-4.22 3.26"/><path class="p" d="M887.82 244.14c.87.73 1.21 1.97.8 3.38-.66 2.25-3.03 4.07-5.28 4.07s-3.54-1.82-2.87-4.07m12.17 3.91 3.71-12.71h-2.17m-8.92-5.54c-2.07 0-3.75-1.68-3.75-3.75s1.68-3.75 3.75-3.75 3.75 1.68 3.75 3.75m9.16 3.75c-2.07 0-3.75-1.68-3.75-3.75s1.68-3.75 3.75-3.75 3.75 1.68 3.75 3.75"/><circle class="p" cx="671.66" cy="56.99" r="20"/><path class="p" d="m679.28 48.5-7.62 8.49 12.17 10.48M671.66 41.6v2.92M339.37 59.14v75.27h-72.82V59.14z"/><path class="p" d="M336.07 62.43v68.7h-66.21v-68.7z"/><path d="M231.69 205.98c-.18 0-.34-.09-.43-.25l-5.62-9.55c-29.92-3.03-52.46-27.96-52.46-58.11 0-32.21 26.2-58.41 58.41-58.41S290 105.86 290 138.07c0 30.04-22.44 54.97-52.25 58.09l-5.63 9.57c-.09.15-.25.25-.43.25Z" style="fill:#202124"/><path class="v" d="M231.59 80.16c31.98 0 57.91 25.93 57.91 57.91 0 30-22.82 54.68-52.05 57.62l-5.76 9.79-5.75-9.77c-29.33-2.84-52.26-27.56-52.26-57.63 0-31.98 25.93-57.91 57.91-57.91m0-1c-32.48 0-58.91 26.43-58.91 58.91 0 14.73 5.47 28.83 15.39 39.7 9.74 10.67 22.96 17.36 37.26 18.87l5.5 9.34c.18.31.51.49.86.49s.68-.19.86-.49l5.51-9.35c14.26-1.56 27.42-8.27 37.12-18.93a58.775 58.775 0 0 0 15.32-39.63c0-32.48-26.43-58.91-58.91-58.91Z"/><g style="clip-path:url(#c)"><path d="M275.52 212.52h-91.76l17.88-77.65c.93-4.41 5.87-7.65 11.67-7.65h35.02c5.8 0 10.74 3.24 11.67 7.65l15.52 77.65Z" style="fill:#3c4043;stroke:#3c4043;stroke-linecap:round;stroke-linejoin:round"/><path class="ae" d="m209.743 142.708 42.886 1.115c9.217.24 16.51 7.922 16.27 17.14l-1.67 64.177-72.935-1.897 1.757-67.547c.191-7.357 6.325-13.18 13.682-12.989Z"/><path class="p" d="M231.29 157.06c-.07 13.46.23 19.72.23 19.72"/><path class="ae" d="M183.88 200.95c5.54 5.68 14.96 4.59 19.05-2.21l19.79-32.94c4.51-7.51 1.68-17.27-6.16-21.2-7.83-3.93-17.35-.35-20.67 7.76l-14.54 35.57c-1.82 4.46-.83 9.58 2.53 13.03Zm92.97 2.31c-5.87 5.34-15.21 3.67-18.88-3.37l-17.76-34.08c-4.05-7.77-.63-17.34 7.43-20.79 8.06-3.44 17.34.7 20.16 9l12.36 36.39c1.55 4.56.25 9.61-3.32 12.85Z"/><path d="M220.74 138.6s4.03-1.11 10.63-.93c7.22.2 10.57 1.48 10.57 1.48l-.76 6.17-15.11 3.79-5.33-10.51Z" style="fill:#1967d2"/><path class="am" d="M223.89 139.8c.24-6.36-.25-9.93-3.35-11.09h21.4c-3.01 2.59-2.67 4.08-2.67 11.05 0 2.09 2.05 3.8 2.67 3.8l-10.93 4.22-10.47-4.77c1.36-.03 3.28-1.26 3.35-3.2Z"/><path class="a`" d="m242.48 143.67-.55-4.52-10.73 8.63 5.64 5.73 5.64-9.84zm-22.53-.59.79-4.48 10.27 9.17-5.53 5.06-5.53-9.75z"/><path class="ao" d="M222.44 138.24c3.97 0 13.65.36 19.92-7.96H222.3l.14 7.96Z" style="clip-path:url(#d)"/><path class="am" d="M244.35 121.46c1.58.73 3.71-.5 4.75-2.76 1.04-2.25.6-4.67-.99-5.4-1.16-.54-2.62-.01-3.72 1.2m-25.86 6.96c-1.58.73-3.71-.5-4.75-2.76-1.04-2.25-.6-4.67.99-5.4 1.16-.54 2.62-.01 3.72 1.2"/><path class="be" d="m248.46 115.28-33.67.04s-.6-2.23-1.09-6.16c-.74-5.95-.64-14.35 8.79-17.23 4 6.21 8.66-7.38 21.36.62 10.12 6.38 4.61 22.73 4.61 22.73Z"/><path class="am" d="M215.74 117.94c0 9.78 5.78 17.24 15.63 17.24S247 126.54 247 117.39c-.19-10.97-10.57-12.66-18.76-7.21.31-3.83-12.51-3.02-12.51 7.76Z"/><path class="be" d="M246.51 124.97c-4.6 3.88-7.15-3.8-11.08-5.37-2.42-.97-4.55 1.15-4.53 2.46-.04-2-2.93-3.97-5.4-2.08-2.81 2.15-6.35 8.46-10.92 4.91 7.02 7.52 15.73 5.41 16.41-1.62.81 7.48 10.7 8.45 15.52 1.7Zm2.55-11.88s-.5 1.82-.98 3.75c-.56 2.25-1.3 3.62-1.3 3.62.22-3.08.23-6.88-1.4-9.34l3.68 1.97Zm-34.88-.71s.4 2.4.91 5c.42 2.15.79 3.09.79 3.09 0-3.08.27-9.05 4.86-11.3l-6.56 3.21Z"/><path class="bc" d="m188.73 198.47.3.13c5.39 2.33 11.67.44 14.88-4.48l10.99-16.85c4.65-7.13 2.18-16.72-5.34-20.72-7.77-4.13-17.39-.45-20.42 7.8l-6.94 18.91c-2.2 6 .67 12.67 6.54 15.21Zm93.43 18.48.32-.07c5.73-1.28 9.7-6.51 9.4-12.37l-1.02-20.09c-.43-8.51-8.06-14.81-16.5-13.63-8.71 1.22-14.34 9.85-11.94 18.32 1.81 6.4 3.86 13.6 5.5 19.38 1.75 6.15 7.99 9.86 14.23 8.46Z"/><path class="v" d="M231.01 150.2c-38.22 0-69.2 30.98-69.2 69.2s30.98 69.2 69.2 69.2 69.2-30.98 69.2-69.2-30.98-69.2-69.2-69.2Zm0 126.41c-31.6 0-57.21-25.61-57.21-57.21s25.61-57.21 57.21-57.21 57.21 25.61 57.21 57.21-25.61 57.21-57.21 57.21Z"/><circle class="ao" cx="216.25" cy="166.22" r="4.48"/><path class="am" d="m194.38 156.17 18-6.77c2.6-1.01 5.46.64 5.91 3.39l1.65 10.21c.34 2.08-.85 4.1-2.83 4.82l-14.35 5.51a4.37 4.37 0 0 1-5.07-1.58l-5.3-8.95c-1.66-2.33-.68-5.6 1.99-6.63Z"/><circle class="ao" cx="266.7" cy="177.38" r="4.48"/><path class="am" d="m290.61 177.2-13.19-14c-1.89-2.05-5.19-1.83-6.8.44l-5.97 8.45a4.386 4.386 0 0 0 .42 5.57l10.46 11.26a4.388 4.388 0 0 0 5.25.81l8.7-5.71c2.51-1.36 3.07-4.73 1.13-6.83Z"/><circle class="v" cx="235.27" cy="170.7" r="1.3"/></g><g style="clip-path:url(#e)"><path class="ai" d="M744.47 93.03c-4.19-.85-9.23 5.25-10.54 7.33-.66 1.05-2.21 3.29-4.17 2.28-1.41-.73.21-7.15 4.06-9.72 1.6-1.07 7.94-4.74 10.88-5.04-3.97 4.86-.23 5.15-.23 5.15Z"/><path class="a`" d="M793.07 145.79s-5.2-13.49-16.65-26.47c-7.61-8.63-16.85-16.49-17.29-28.73-.19-5.33-.75-12.59-8.94-14.42-7.88-1.76-11.47 2.79-13.46 4.84-1.05 1.08-1.04 1.86-2.54 2.03l-8.06.51c-.88.1-.98.95-1 1.83-.06 2.21 2.47 7.94 10.08 7.3 4.29-.36 6.19-1.28 7.3-1.8.28-.13.53.22.32.44-.49.5-1.21 1.24-2.15 2.16-1.15 1.14-1.15.97-2.99 2.48 6.08.78 7.92 1.53 8.93 2.37 4.57 3.8 5.91 8.51 4.69 14.47-1.77 8.67-12.53 18.82.04 38.78l41.71-5.81Z"/><path class="v" d="M728.25 83.43s-.23.96-1.05 1.82-2.01.81-2.01.81l-.13-.87c-.17-1.11.76-2.05 1.9-1.92l1.3.15Z"/><path class="y" d="M750.99 78.04c3.91-1.56 7.14.46 8.53 5.23 1.39 4.76 3.59 7.13 3.59 7.13s-6.14 2.75-11.15-1.24c-5.01-3.98-4.62-9.67-.97-11.13Z"/><path class="v" d="M749.64 86.71c6.92 5.19 13.81-4.08 19.83-1.37 2.04.92 2.93 6.02-3.26 7.84-8.61 2.52-15.63-4.32-16.56-6.47Z"/><g style="clip-path:url(#f)"><circle class="v" cx="735.96" cy="78.44" r="6.49"/><ellipse class="v" cx="770.99" cy="96.89" rx="20.71" ry="9" transform="rotate(-68.76 770.975 96.902)"/><circle class="v" cx="745.2" cy="116.11" r="8.67"/></g></g><g style="clip-path:url(#g)"><path class="al" d="m494.02 167.27 30.58-31.28c9.93-9.77 18.86-11.11 21.71-.07l20.52 9.73c-.46 10.18-19.6 25.31-30.67 24.41l-21.39 13.9c-9.85-.8-30.9-17.17-20.75-16.71Z"/><path class="ap" d="m525.91 182.71-3.7-30.79c-1.69-14.03 9.26-26.37 23.39-26.37h25.66c18.52 0 36.22 7.61 48.96 21.06l15.96 16.84c6.89 7.28 1.74 19.27-8.29 19.27H525.91Z"/><g style="clip-path:url(#h)"><circle class="al" cx="612.3" cy="136.92" r="12.67"/><circle class="al" cx="570.45" cy="135.28" r="12.67"/><circle class="al" cx="528.6" cy="148.97" r="12.67"/><circle class="al" cx="564.35" cy="170.06" r="12.67"/><circle class="al" cx="605.19" cy="168.17" r="12.67"/></g><path class="av" d="M546.79 125.57h1.39c1.05 0 1.85-.93 1.69-1.97-.83-5.28-2.78-12.73-5.48-13.93l20.2-4.73c-5.86 2.73-7.46 8.66-4.8 17.78a3.951 3.951 0 0 0 3.78 2.85h4.03s-3.44 6.02-12.46 6.02c-7.31 0-8.35-6.02-8.35-6.02Z"/><circle class="bf" cx="565.69" cy="71.16" r="9.75"/><circle class="bf" cx="581.09" cy="67.37" r="7.3"/><circle class="bf" cx="591.56" cy="70.29" r="4.38"/><ellipse class="bf" cx="554.06" cy="94.77" rx="18.27" ry="18.75"/><path class="av" d="M536.65 103.38c0 6.19 4.97 12.3 13.04 12.3 10.32 0 16.19-6.15 16.19-13.75-3.17-8.16-10.41-10.85-18.48-10.85-12.56 0-10.75 1.91-10.75 12.3Z"/><path class="av" d="M564.35 106.59c1.39.67 3.29-.39 4.25-2.37s.6-4.13-.79-4.8c-1.02-.49-2.32-.05-3.32 1"/><path class="am" d="M544.53 105.42a3.79 3.79 0 0 0 4.13 3.42 3.79 3.79 0 0 0 3.42-4.13l-7.56.71Z"/><path class="bf" d="M555.99 89.43s-1.67 3.71-.69 7.67c-4.04.6-11.55.33-14.84.33 0 0-2.05-3.69-.99-7.08s16.52-.92 16.52-.92Z"/></g><path class="ap" d="m619.9 161.2-51.41 16.73.34 4.75 56.5 6.1c9.69 1 17.55-7.7 15.6-17.24-.85-4.14-3.4-7.5-6.77-9.5"/><path class="av" d="M568.57 178.41c-7.31-1.72-9.46-2.58-11.18-2.58-3.9 0-6.45 2.15-13.28 5.11-.94.41-.45 1.77.61 1.77H569l-.43-4.3Z"/><g style="clip-path:url(#i)"><circle class="al" cx="595.42" cy="184.04" r="10"/><circle class="al" cx="620.12" cy="167.23" r="10"/></g><path class="p" d="m568.83 182.68-.65-4.77 51.64-16.77"/><path class="al" d="m497.28 163.41 12.12-11.87 15.86 25.76s-20.78 14.06-27.12 14.55c-16.61 1.28-6.44-22.91-.85-28.44Z"/><path class="av" d="M476.46 129.93c-2.6-6.3-9.12-12.06-13.92-17.92-1.6-1.95 1.53-8.73 4.24-9.88.71-.3 5.16 6.34 5.16 6.34s-2.05-4.6-3.88-6.86c-.62-.76 2.1-1.71 2.97-.48 3.34 4.66 5.54 10.24 5.54 10.24s.13-.16.71-5.04c.21-1.75 1.17-2.78 2.58-2.27.14.05.23.21.22.36-.71 10.11 3.07 8.86 1.12 14.88-.68 2.08 1.24 6.73 2.13 8.14 1.13 1.78-6.88 2.5-6.88 2.5Z"/><path class="ap" d="M502.72 190.53c7.54-3.48 10.57-12.61 6.6-19.9l-26.01-47.85-11.74 5.22 11.13 52.71c2.04 8.88 11.74 13.64 20.02 9.83Z"/><g style="clip-path:url(#j)"><circle class="al" cx="493.02" cy="138.56" r="12.16"/><circle class="al" cx="486.37" cy="172.14" r="12.16"/></g><path class="v" d="M739.99 123.55s-2.66-4.22-4.72-4.46c-2.03-.24-7.57 6.43-9.27 8.45-.28.33-.18.84.21 1.04 1.19.62 2.85 1.62 5.15.54 3.58-1.68 2.1-5.53 3.49-5.57h5.13Z"/><path class="b`" d="M511.79 254.8c10.16 1.67 10.78 4.38 18.76 5.03.82.07 1.26.41 1.26 1.67 0 1.34-2.1 2.43-3.44 2.43h-27.7s7.05-3.58 11.12-9.13Z"/><path class="aw" d="m397.56 241.95 56.67-38.15c5.32-3.58 12.55-2.15 16.1 3.19a11.598 11.598 0 0 1-1.3 14.46l-35.52 36.85c-7.48 7.76-20.2 6.69-26.28-2.21l-9.66-14.14Z"/><path class="aw" d="m469.8 205.62 45.05 47.68c-5.1 7.32-5.81 10.63-14.18 10.63l-47.58-40.77c-5.53-4.74-5.67-13.26-.28-18.17 4.89-4.46 12.44-4.18 16.99.63Z"/><path d="M456.64 199.85c.52-3.12-1.48-6.12-4.56-6.83l-51.87-11.98-5.46 21.14 55.7 2.66c3.03.15 5.7-2 6.2-5Z" style="fill:#fa903e"/><path d="M429.51 207.09c1.15-9.87 6.98-9.21 4.19-19.8l-55.5-13.25-6.11 23.65 57.42 9.39Z" style="fill:#ea4335"/><path class="v" d="M401.22 144.06c7.97 20.01 1.55 27.47-4.07 44.63-3.13 9.56-33.33 7.84-45.62-12.64 9.95-3.31 16.48-11.77 15.52-20.35-.81-7.23 34.17-11.64 34.17-11.64Z"/><path class="ai" d="M382.38 252.47 367 183.36c-1.36-6.1 4.16-11.5 10.23-10.03l26.14 6.36c4.15 1.01 7.41 4.2 8.52 8.32l17.36 56.33-46.87 8.13Z"/><path class="at" d="m401.02 166.02-21.9-4.12c1.61 1.14 8.24 1.29 6.58 13.49 5.71 8.72 15.43 11.21 15.75 3.84-3.64-.01-3.94-13.21-.43-13.21Z"/><path class="at" d="M402.92 144.82c6.93 11.98 5.31 19.96-3.87 23.86-5.64 2.4-15.99 2.96-21.27-7.49-4.73-9.35 3.53-16.76 15.64-16.66-3.89-1.5 4.23-8.84 9.5.28Z"/><path class="v" d="M392.47 142.96s1.59 2.43 2.38 4.51c-4.68 1.23-9.52 4.07-12.19 6.24-2.06-.85-4.09-4.76-3.82-4.83 0 0 .41 4.94-.94 8.9-1.35 3.97-5.41 1.33-9.17 3.23-4.62-9.42-.59-20.87 9.01-25.58 9.6-4.71 23.66-1.8 27.58 11.52-2.29-.53-6.19-.63-9.03-.13-1.75-2.64-3.82-3.86-3.82-3.86Z"/><path class="at" d="M380.63 165.03c-1.07 1.4-3.57 1.3-5.56-.22-2-1.53-2.75-3.91-1.67-5.31.79-1.03 2.34-1.25 3.91-.69"/><path class="v" d="M378.51 147.58c3.44 13.26 8.69 21.99 15.19 23.24-5.11 1.36-9.78-1.11-12.66-5.03-2.62-3.57-5.55-7.59-7.37-15.45l4.85-2.76Z"/><path class="ai" d="M389.75 158.89a5.739 5.739 0 0 0 7.12 3.92 5.739 5.739 0 0 0 3.92-7.12l-11.04 3.19Z"/><path class="at" d="m460 159.11-6.93-1.56-9.53 38.43c-1.1 4.43 2.13 8.76 6.69 8.96 3.95.17 7.31-2.86 7.53-6.81l2.24-39.02Z"/><path class="at" d="M461.78 138.79c-.4-1.11-8.13.67-7.48 2.14 1.54 3.5-.35 8.32-2.42 7.79-1.21-.31-2.37-1.95-3.04-3.45-1.58-3.55-4.32-2.72-3.85-1.52.48 1.19 1.61 4.03 2.32 5.66 1.18 2.71 2.95 4.83 3.98 6.17 2.2 2.86.61 6.51.61 6.51l7.69.71c1.84-11.46 6.29-10.77 5.1-15.89-.31-1.31-.27-.74-2.91-8.12Z"/><path class="y" d="m453.56 155.9 8.28-3.06c.94-.35 1.46-1.36 1.19-2.32l-6.06-21.99a1.933 1.933 0 0 0-2.53-1.3l-8.28 3.06c-.94.35-1.46 1.36-1.19 2.32l6.06 21.99c.3 1.09 1.47 1.69 2.53 1.3Z"/><path class="a`" d="m452.61 154.68 8.51-3.17c.52-.19.8-.76.65-1.31l-5.86-21.27c-.17-.62-.82-.96-1.4-.74l-8.51 3.17c-.52.19-.8.76-.65 1.31l5.86 21.27c.17.62.82.96 1.4.74Z"/><path class="at" d="m461.04 149.05 2.37-.18c.97-.07 1.61-1.05 1.28-1.97l-3.37-9.39c-.29-.81-1.21-1.2-1.99-.85l-1.9.85c-.69.31-1.04 1.09-.8 1.81l2.9 8.72c.21.64.84 1.06 1.51 1.01Zm-97.69 84.42c-3.78-.74-6.34-4.3-5.82-8.12l5.6-41.16a7.274 7.274 0 0 1 7.96-6.25l6.07.64c4.5.47 7.47 4.9 6.22 9.24l-11.68 40.52a7.259 7.259 0 0 1-8.37 5.12Z"/><path class="at" d="m347.58 263.66-3.87-1.51 13.6-37.18c1.57-4.29 6.67-6.06 10.56-3.68 3.37 2.07 4.46 6.46 2.44 9.86l-18.47 31.06c-.87 1.46-2.67 2.08-4.26 1.46Z"/><path class="ai" d="M381.87 206.28c-8.82-5.62-15.64 1.76-24.23-3.15l2.59-19.91c.87-6.69 7-11.41 13.69-10.54 6.69.87 11.41 7 10.54 13.69l-2.58 19.91Z"/><path class="p" d="M380.31 175.77c2.93 2.6 4.57 6.55 4.03 10.73l-2.43 19.5"/><path class="at" d="M351.14 261.31c-.1-1-.82-1.83-1.8-2.08-5.73-1.45-6.05-2.18-7.63-2.18-3.9 0-6.45 2.15-13.28 5.11-.94.41-.45 1.77.61 1.77h19.73c1.41 0 2.51-1.22 2.37-2.62Z"/><path d="M462.24 254.58c.16 0 14.5-2.06 22.12-3.16 2.21-.32 4.03 1.72 3.46 3.89l-1.23 4.67a5.525 5.525 0 0 1-5.39 4.13l-21.51-.16 2.55-9.36Z" style="fill:#e8f0fe"/><path class="aw" d="M417.99 263.93h-24.66c-7.31 0-13.31-5.79-13.56-13.1-.25-7.16 5.11-13.28 12.24-13.97l24.55-2.4c8.68-.85 16.21 5.98 16.21 14.7 0 8.16-6.61 14.77-14.77 14.77Z"/><path d="M417.97 263.93h47.55c3.39 0 6.18-2.67 6.34-6.05a6.35 6.35 0 0 0-4.15-6.25l-44.61-16.45c-9.69-3.57-19.97 3.6-19.97 13.92 0 8.19 6.64 14.84 14.84 14.84Z" style="fill:#d2e3fc"/><path class="ba" d="M597.48 269.53c3.59 6.21 12 7.54 17.34 2.74l37.73-33.94c5.14-4.9 6.18-12.7 2.5-18.77-5-8.27-16.37-9.78-23.37-3.12l-33.15 40.25c-3 3.64-3.42 8.76-1.06 12.84Z"/><path class="v" d="M655.35 208.73c-.64-5.63.55-16.08-2.79-17.56l19.71-5.16c-7.04 3.28-5.9 11.04-5.18 22.26l-11.73.47Z"/><path class="ai" d="M635.66 168.64c-.78 4.65 2.54 6.29 4.42 14.27 1.96 8.32 14.05 12.95 22.09 11.1 18.53-4.26 14.45-5.31 17.59-13.64.89-2.36 4.22-5.16 4.22-9.38 0-4.72-4.16-7.45-6.1-9.38-2.35-2.35-1.88-6.57-5.16-8.91-4.96-3.55-10.79.94-13.14 0-3.41-1.36-7.48-2.61-10.79-.47-2.45 1.58-2.96 6.18-4.69 7.98-3.76 3.92-7.51 2.82-8.45 8.45Z"/><path class="v" d="M641.76 181.78c0 8.81 4.33 15.95 13.14 15.95 11.26 0 18.77-7.14 18.77-15.95-2.66-2.84-3.19-5.19-5.63-7.04-2.14-1.62-4.18-.62-6.57-1.41-2.09-.69-3.75-3.28-7.04-3.28-2.82 0-4.22 2.35-7.51 3.75-2.52 1.08-5.16.94-5.16 7.98Z"/><path class="v" d="M671.61 187.94c1.57.76 3.72-.44 4.8-2.68s.68-4.66-.89-5.42c-1.16-.56-2.62-.06-3.75 1.13"/><path class="ai" d="M670.38 157.85c2.57 3.02 10.32 4.69 12.67 4.69-2.82 1.41-7.98.94-12.2-.94m-16.42-3.65c3.76-1.25 8.21-7.82 9.09-10 .25 3.14-2.11 7.75-5.43 10.96m-2.61 2.32c3.88.82 11.03-2.62 12.89-4.06-1.36 2.84-5.73 5.63-10.21 6.73"/><path class="ag" d="m623.82 295.2 4.59-69.39c.64-9.68 8.77-17.14 18.46-16.96l4.46.08c1.6.03 2.94-1.23 2.99-2.84l.09-2.74h13.14l.43 3.07a2.939 2.939 0 0 0 2.95 2.52l19.36-.26c7.45-.1 13.63 5.75 13.93 13.2l3.01 73.3H623.8Z"/><path class="ag" d="M709.76 282.5c7.17-.39 12.16-7.28 10.3-14.21l-13.16-49.02a15.128 15.128 0 0 0-15.6-10.74c-9.64.72-16.14 10.16-13.36 19.42l20.87 47.79c1.89 4.32 6.26 7.02 10.97 6.76Z"/><path class="a`" d="M658.34 187.31a3.996 3.996 0 1 1-7.87 1.39l7.88-1.39Z"/><path class="ba" d="m538.37 280.82 62.66-27.05c6.33-2.73 13.61.74 15.47 7.38 1.76 6.29-2.11 12.77-8.49 14.18l-66.34 14.76-3.3-9.28Z"/><path class="be" d="M596.76 314.55h95.74l.5-10.7-91.13-25.93c-11.92-3.39-23.78 5.56-23.78 17.96 0 10.31 8.36 18.67 18.67 18.67Z"/><path class="p" d="M683.2 219.66c-1.22 3.37-1.26 7.2.23 10.85l15.43 42.47"/><path class="b`" d="M637.86 305.76c-.22 0-18.85-5.19-29.86-8.27-3.52-.98-6.78 2.21-5.89 5.75l1.72 6.79c.7 2.77 3.19 4.71 6.05 4.72l32.57.04-4.6-9.03Z"/><path class="p" d="m696.3 265.91-43.91-9.49-2.92 8.48 46.83 23.05"/><path class="v" d="M638.06 255.13c-1.16.23-.56 8.14 1 7.72 3.69-1 8.18 1.59 7.34 3.55-.49 1.15-2.29 2.05-3.87 2.49-3.74 1.03-3.33 3.87-2.08 3.57 1.25-.29 4.22-.99 5.94-1.44 2.86-.76 5.22-2.2 6.7-3.01 3.16-1.74 6.53.37 6.53.37l1.85-7.5c-11.05-3.53-9.71-7.83-14.95-7.42-1.35.11-.77.15-8.46 1.67Z"/><path d="m659.43 297.7-.64.1.15-44.18h0a3.007 3.007 0 0 1 3.04 3.01v38.1c0 1.49-1.09 2.75-2.56 2.97Z" style="fill:#5f6368;stroke:#5f6368;stroke-linecap:round;stroke-linejoin:round"/><path d="m658.79 297.8-37.56-3.23c-.74-.06-1.32-.69-1.32-1.44v-28.92c0-.66.45-1.24 1.1-1.4l37.56-9.19c.91-.22 1.78.46 1.78 1.4v41.34c0 .84-.72 1.51-1.56 1.44Z" style="stroke:#5f6368;stroke-linecap:round;stroke-linejoin:round"/><path class="v" d="m647.63 262.07.6-6.75c.1-1.11-.9-2.01-1.99-1.79l-9.59 1.89c-.84.17-1.42.94-1.35 1.79l.55 6.32c.08.98.99 1.67 1.96 1.51l8.44-1.46c.75-.13 1.32-.75 1.38-1.5Z"/><path d="M723.58 314.55h-89.89a6.12 6.12 0 0 1-6.12-5.85 6.134 6.134 0 0 1 4.45-6.18l86.46-24.6c11.92-3.39 23.78 5.56 23.78 17.96 0 10.31-8.36 18.67-18.67 18.67Z" style="fill:#bdc1c6"/><path class="au" d="M545.4 259.51a7.887 7.887 0 0 1 9.28-6.53l23.32 4.48c4.17.8 6.95 4.76 6.3 8.95a7.887 7.887 0 0 1-9.28 6.53l-23.32-4.48a7.881 7.881 0 0 1-6.3-8.95Z"/><path class="bc" d="M554.59 270.35c4.09-2.8 9.1-9.29 9.56-16.3l-20.53-3.54a8.764 8.764 0 0 0-10.2 7.05 8.764 8.764 0 0 0 7.05 10.2l14.13 2.59Z"/><path class="ae" d="m502.81 301.3-1.89-40.22c-.27-5.84 4.38-10.72 10.22-10.72h29.52c5.22 0 9.62 3.87 10.29 9.04l6.87 53.21h-43.14c-6.34 0-11.56-4.98-11.86-11.32Z"/><path class="am" d="M499.89 292.4c-4.28-1.25-6.67-5.81-5.27-10.05l7.48-22.54a7.884 7.884 0 0 1 9.7-5.08c4.28 1.25 6.67 5.81 5.27 10.05l-7.48 22.54a7.884 7.884 0 0 1-9.7 5.08Z"/><path class="ae" d="M514.46 275.42c-5.63-4.97-11.29-.49-16.83-4.93l4.05-13.83c1.36-4.65 6.23-7.31 10.88-5.95 4.65 1.36 7.31 6.23 5.95 10.88l-4.05 13.83Z"/><path class="p" d="M517.09 253.83a8.763 8.763 0 0 1 1.42 7.75l-4.05 13.83"/><path class="ap" d="M541.73 220.02c-.47-13.75-11.51-19.11-22.36-15.39-12.7 4.36-14.02 15.8-9.2 25.54"/><circle class="ap" cx="511.64" cy="225.23" r="7.9"/><circle class="ap" cx="516.66" cy="234.93" r="6.26"/><path class="au" d="M534.61 247.93c.2-6.16-.92-9.07 2.2-10.18l-24.1-9.77c7.09 3.75 11.77 22.36 5.75 22.36 7.37 8.46 18.31 7.09 18.56.04-1.36-.04-2.45-1.14-2.41-2.45Z"/><path class="au" d="M541.38 223.09c2.57 12.97 0 19.74-9.44 21.08-5.8.82-15.49-1.2-17.8-12.14-2.04-11.52 24.8-21.2 27.24-8.94Z"/><path class="au" d="M515.83 236.28c-1.34 1.03-3.61.33-5.08-1.57-1.47-1.9-1.58-4.28-.24-5.31.98-.76 2.47-.58 3.78.32"/><path d="M526.84 232.49c.26 3.02 1.84 7.26 6.19 6.74 3.68-.44 5.01-4.66 4.75-7.68l-10.94.94Z" style="fill:#f28b82"/><circle class="ap" cx="515.28" cy="224.73" r="5.44"/><circle class="ap" cx="534.93" cy="208.41" r="5.44"/><circle class="ap" cx="540.44" cy="216.17" r="7.17"/><circle class="ap" cx="521.96" cy="218.45" r="6.13"/><circle class="ap" cx="531.8" cy="216.82" r="5.01"/><path class="au" d="m533.15 272.18 2.28 6.73-29.32 14.1c-4.72 2.27-10.33-.35-11.63-5.42-1.2-4.72 1.9-9.45 6.71-10.23l31.97-5.18Zm49.76-38.83 6.73 1.95-5.14 30.79c-.86 5.16-6.24 8.22-11.11 6.32-4.53-1.76-6.56-7.03-4.38-11.37l13.9-27.68Z"/><path class="v" d="M541.67 314.76H510.3c-7.6 0-13.76-6.16-13.76-13.76 0-7.61 6.17-13.78 13.78-13.78h2.39c7.48 0 11.32 5.97 11.37 13.4 0 .24 1.18 8.48 1.18 8.48h26.88l-10.47 5.66Z"/><path class="am" d="M543.78 305.93c-3.31-.71-8.05-1.73-11.32-2.43-1.75-.38-3.32 1.16-2.97 2.92l1.02 5.24a3.802 3.802 0 0 0 3.73 3.08h8.6c2.33.02 4.27-1.77 4.46-4.08a4.47 4.47 0 0 0-3.51-4.73Z"/><path class="au" d="M534.08 279.56c4.98-2.14 10.34-.19 15.15-.21 1.6 0 2.76-5.39 1.58-7.35-.57-.94-6.87-.66-6.87-.66s4.39-.78 6.24-.79c.62 0-.51-1.95-1.44-1.87-3.56.29-7.59 1.14-7.59 1.14s-.56-.07 1.39-2.1c.74-.77.88-2.44-.08-2.99-.1-.05-.19-.03-.25.04-2.77 3.3-5.54 2.26-6.37 6.04-.25 1.14-3.32 1.49-4.34 1.65-1.28.19 2.59 7.11 2.59 7.11Zm55.07-41.33c.88-4.73 3.7-4.91 6.79-12.93 0 0-9.97.12-9.96.32s-4.05 9.68-4.05 9.68l7.22 2.93Z"/><circle class="ao" cx="590.74" cy="219.64" r="8.8"/><path class="au" d="M583.86 219.31c-.61 1.17-2.7 6.61-.79 11.57.97 2.5 3.09 2.38 4.05.41 2.19-4.47-2.65-6.82-1.99-8.44 1.16-2.82-.89-4.28-1.28-3.55Z"/><path class="v" d="M571.14 314.76h-25.39c-2.6 0-4.74-2.04-4.86-4.64-.08-1.81.84-3.51 2.4-4.43l21.91-12.82c7.83-4.58 17.68 1.07 17.68 10.14 0 6.49-5.26 11.75-11.75 11.75Z"/><path class="y" d="m523.43 296.08 1.97 12.2c.39 2.41-.83 4.8-3 5.91-1.94.98-4.28.76-5.99-.58l-9.75-7.59c-6.23-4.85-5.06-14.58 2.13-17.82 6.29-2.83 13.55 1.08 14.65 7.88Z"/><path class="au" d="M527.22 308.04c-.87-4.2-2.1-10.22-2.95-14.37-.46-2.22-3.03-3.25-4.9-1.96l-5.56 3.86a4.816 4.816 0 0 0-1.67 5.9l4.37 9.98a5.66 5.66 0 0 0 7.03 3.08c2.69-.93 4.27-3.7 3.69-6.48Z"/><path class="l" d="M859.21 231.69c-4.65 4.17-11.19 6.71-19.41 6.71-37.95 0-31.54-92.86 141.48-45.28"/><path class="m" d="M790.54 157.77c49.84 3.57 73.25 28.31 76.45 49.46m-39.74-86.96c7.43-13.3-.77-28.97-22.84-28.97-36.12 0-68.18 56.47-35.67 64.97"/><path class="n" d="M555.52 173.63c9.92-40.46 38.17-83.25 82.78-83.25 32.7 0 34.45 30.33 18.62 30.33-11.72 0-4.5-17.6 25.19-17.6 19.16 0 31.37 8.26 44.82 16.8"/><path d="M613.56 190.49c-4.41 29.98-19.09 53.87-39.1 53.87s-26.49-27.79-21.2-59.76M570.9 83.4c19.94 11.4 32.33 30.31 38.71 51.24m-178.73 1.25c-2.7 6.59-7.37 11.2-13.36 11.2-31.59 0 15.52-74.91 107.38-74.91 7.89 0 15.19.76 21.93 2.19" style="stroke:#4285f4;stroke-linecap:round;stroke-linejoin:round;fill:none"/><path class="l" d="M269.79 208.26c-3.64-4.85-9.2-7.83-16.62-7.83-26.29 0-27.47 44.06 5.71 44.06 53.17 0 78.61-154.37 143.96-154.37 18.65 0 27.7 12.02 30 25.02"/><path class="m" d="M131.89 175.69c1.94 17.29-20.17 46.06-78.19 46.06"/><path class="n" d="M132 261.15c-35.7-39.5-45.76-98.19-14.98-98.19M274.8 230.1c-2.24 25.02-29.93 66.2-70.66 66.2-20.45 0-38.65-7.35-53.94-18.59"/><circle cx="432.83" cy="125.38" r="20" style="fill:#4285f4;opacity:.1"/><circle cx="432.83" cy="125.38" r="7.5" style="stroke-miterlimit:10;stroke:#fff;fill:#4285f4"/><circle class="ad" cx="275.05" cy="219.66" r="20"/><rect class="aq" x="268.24" y="212.84" width="13.63" height="13.63" rx="3.1" ry="3.1" transform="rotate(11.34 275.135 219.746)"/><circle cx="127.91" cy="166.02" r="20" style="fill:#34a853;opacity:.1"/><path d="m131.57 158.97-4.31-.87a3.85 3.85 0 0 0-3.63 1.22l-2.91 3.3a3.827 3.827 0 0 0-.75 3.75l1.41 4.17c.44 1.3 1.53 2.26 2.87 2.53l4.31.87c1.34.27 2.72-.2 3.63-1.22l2.91-3.3c.9-1.03 1.19-2.46.75-3.75l-1.41-4.17a3.824 3.824 0 0 0-2.87-2.53Z" style="stroke-miterlimit:10;stroke:#fff;fill:#34a853"/><circle cx="779.88" cy="157.31" r="20" style="fill:#ee675c;opacity:.1"/><path d="m786.77 153.18-11.17-2.68c-1.67-.4-3.14 1.15-2.66 2.8l3.26 11.01c.49 1.64 2.57 2.15 3.75.9l7.91-8.33c1.18-1.24.57-3.3-1.1-3.7Z" style="stroke-miterlimit:10;stroke:#fff;fill:#ee675c"/><circle class="ad" cx="866.38" cy="219.66" r="20"/><rect class="aq" x="856.98" y="214.39" width="18.8" height="10.53" rx="2.64" ry="2.64" transform="rotate(120 866.375 219.655)"/></svg>