<svg xmlns="http://www.w3.org/2000/svg" width="100" height="3" viewBox="0 0 100 3" fill="none"><mask id="a" style="mask-type:alpha" maskUnits="userSpaceOnUse" x="0" y="0" width="100" height="3"><path fill-rule="evenodd" clip-rule="evenodd" d="M3 1.5a1.5 1.5 0 1 1-3 0 1.5 1.5 0 0 1 3 0Zm5 0a1.5 1.5 0 1 1-3 0 1.5 1.5 0 0 1 3 0ZM11.5 3a1.5 1.5 0 1 0 0-3 1.5 1.5 0 0 0 0 3ZM18 1.5a1.5 1.5 0 1 1-3 0 1.5 1.5 0 0 1 3 0ZM21.5 3a1.5 1.5 0 1 0 0-3 1.5 1.5 0 0 0 0 3ZM28 1.5a1.5 1.5 0 1 1-3 0 1.5 1.5 0 0 1 3 0ZM31.5 3a1.5 1.5 0 1 0 0-3 1.5 1.5 0 0 0 0 3ZM38 1.5a1.5 1.5 0 1 1-3 0 1.5 1.5 0 0 1 3 0ZM41.5 3a1.5 1.5 0 1 0 0-3 1.5 1.5 0 0 0 0 3ZM48 1.5a1.5 1.5 0 1 1-3 0 1.5 1.5 0 0 1 3 0ZM51.5 3a1.5 1.5 0 1 0 0-3 1.5 1.5 0 0 0 0 3ZM58 1.5a1.5 1.5 0 1 1-3 0 1.5 1.5 0 0 1 3 0ZM61.5 3a1.5 1.5 0 1 0 0-3 1.5 1.5 0 0 0 0 3ZM68 1.5a1.5 1.5 0 1 1-3 0 1.5 1.5 0 0 1 3 0ZM71.5 3a1.5 1.5 0 1 0 0-3 1.5 1.5 0 0 0 0 3ZM78 1.5a1.5 1.5 0 1 1-3 0 1.5 1.5 0 0 1 3 0ZM81.5 3a1.5 1.5 0 1 0 0-3 1.5 1.5 0 0 0 0 3ZM88 1.5a1.5 1.5 0 1 1-3 0 1.5 1.5 0 0 1 3 0ZM91.5 3a1.5 1.5 0 1 0 0-3 1.5 1.5 0 0 0 0 3ZM98 1.5a1.5 1.5 0 1 1-3 0 1.5 1.5 0 0 1 3 0Zm3.5 1.5a1.5 1.5 0 1 0 0-3 1.5 1.5 0 0 0 0 3Zm6.5-1.5a1.5 1.5 0 1 1-3 0 1.5 1.5 0 0 1 3 0Zm3.5 1.5a1.5 1.5 0 1 0 0-3 1.5 1.5 0 0 0 0 3Zm6.5-1.5a1.5 1.5 0 1 1-3 0 1.5 1.5 0 0 1 3 0Zm3.5 1.5a1.5 1.5 0 1 0 0-3 1.5 1.5 0 0 0 0 3Zm6.5-1.5a1.5 1.5 0 1 1-3 0 1.5 1.5 0 0 1 3 0Zm3.5 1.5a1.5 1.5 0 1 0 0-3 1.5 1.5 0 0 0 0 3Zm6.5-1.5a1.5 1.5 0 1 1-3 0 1.5 1.5 0 0 1 3 0Zm3.5 1.5a1.5 1.5 0 1 0 0-3 1.5 1.5 0 0 0 0 3Z" fill="#D9D9D9"/></mask><g mask="url(#a)"><rect width="100" height="3" rx="1.5" fill="#185ABC"/></g></svg>