<svg xmlns="http://www.w3.org/2000/svg" width="24" height="24" fill="none" viewBox="0 0 24 24"><g clip-path="url(#a)"><path fill="#0B57D0" d="M6 22a1.99 1.99 0 0 1-1.425-.575A1.99 1.99 0 0 1 4 20V10c0-.55.192-1.017.575-1.4.4-.4.875-.6 1.425-.6h1V6c0-1.383.483-2.558 1.45-3.525C9.433 1.492 10.617 1 12 1s2.558.492 3.525 1.475C16.508 3.442 17 4.617 17 6v2h1c.55 0 1.017.2 1.4.6.4.383.6.85.6 1.4v10c0 .55-.2 1.025-.6 1.425-.383.383-.85.575-1.4.575H6Zm0-2h12V10H6v10Zm6-3c.55 0 1.017-.192 1.4-.575.4-.4.6-.875.6-1.425s-.2-1.017-.6-1.4c-.383-.4-.85-.6-1.4-.6-.55 0-1.025.2-1.425.6-.383.383-.575.85-.575 1.4 0 .55.192 1.025.575 1.425.4.383.875.575 1.425.575ZM9 8h6V6c0-.833-.292-1.542-.875-2.125A2.893 2.893 0 0 0 12 3c-.833 0-1.542.292-2.125.875A2.893 2.893 0 0 0 9 6v2ZM6 20V10v10Z"/></g><defs><clipPath id="a"><path fill="#fff" d="M0 0h24v24H0z"/></clipPath></defs></svg>