<svg width="248" height="120" viewBox="0 0 248 120" fill="none" xmlns="http://www.w3.org/2000/svg"><circle cx="58" cy="20" r="1" fill="#5F6368"/><circle cx="62" cy="20" r="1" fill="#5F6368"/><circle cx="50" cy="20" r="1" fill="#5F6368"/><circle cx="54" cy="20" r="1" fill="#5F6368"/><circle cx="66" cy="20" r="1" fill="#5F6368"/><circle cx="1" cy="1" r="1" transform="matrix(-1 0 0 1 36 92)" fill="#5F6368"/><circle cx="1" cy="1" r="1" transform="matrix(-1 0 0 1 44 92)" fill="#5F6368"/><circle cx="1" cy="1" r="1" transform="matrix(-1 0 0 1 40 92)" fill="#5F6368"/><circle cx="1" cy="1" r="1" transform="matrix(-1 0 0 1 32 92)" fill="#5F6368"/><circle cx="1" cy="1" r="1" transform="matrix(-1 0 0 1 28 92)" fill="#5F6368"/><circle cx="1" cy="1" r="1" transform="matrix(-1 0 0 1 198 25)" fill="#5F6368"/><circle cx="1" cy="1" r="1" transform="matrix(-1 0 0 1 194 25)" fill="#5F6368"/><circle cx="42" cy="24" r="1" fill="#5F6368"/><circle cx="46" cy="24" r="1" fill="#5F6368"/><circle cx="30" cy="24" r="1" fill="#5F6368"/><circle cx="50" cy="24" r="1" fill="#5F6368"/><circle cx="54" cy="24" r="1" fill="#5F6368"/><circle cx="1" cy="1" r="1" transform="matrix(-1 0 0 1 206 25)" fill="#5F6368"/><circle cx="38" cy="24" r="1" fill="#5F6368"/><circle cx="1" cy="1" r="1" transform="matrix(-1 0 0 1 202 25)" fill="#5F6368"/><circle cx="1" cy="1" r="1" transform="matrix(-1 0 0 1 190 25)" fill="#5F6368"/><circle cx="1" cy="1" r="1" transform="matrix(-1 0 0 1 186 25)" fill="#5F6368"/><circle cx="1" cy="1" r="1" transform="matrix(-1 0 0 1 182 25)" fill="#5F6368"/><circle cx="1" cy="1" r="1" transform="matrix(-1 0 0 1 52 96)" fill="#5F6368"/><circle cx="1" cy="1" r="1" transform="matrix(-1 0 0 1 48 100)" fill="#5F6368"/><circle cx="1" cy="1" r="1" transform="matrix(-1 0 0 1 48 96)" fill="#5F6368"/><circle cx="1" cy="1" r="1" transform="matrix(-1 0 0 1 44 100)" fill="#5F6368"/><circle cx="1" cy="1" r="1" transform="matrix(-1 0 0 1 44 96)" fill="#5F6368"/><circle cx="1" cy="1" r="1" transform="matrix(-1 0 0 1 40 96)" fill="#5F6368"/><circle cx="1" cy="1" r="1" transform="matrix(-1 0 0 1 36 96)" fill="#5F6368"/><circle cx="1" cy="1" r="1" transform="matrix(-1 0 0 1 56 96)" fill="#5F6368"/><circle cx="1" cy="1" r="1" transform="matrix(-1 0 0 1 214 29)" fill="#5F6368"/><circle cx="1" cy="1" r="1" transform="matrix(-1 0 0 1 210 29)" fill="#5F6368"/><circle cx="1" cy="1" r="1" transform="matrix(-1 0 0 1 206 29)" fill="#5F6368"/><circle cx="183" cy="107" r="1" fill="#5F6368"/><circle cx="187" cy="107" r="1" fill="#5F6368"/><circle cx="179" cy="103" r="1" fill="#5F6368"/><circle cx="183" cy="103" r="1" fill="#5F6368"/><circle cx="191" cy="107" r="1" fill="#5F6368"/><circle cx="187" cy="103" r="1" fill="#5F6368"/><circle cx="163" cy="107" r="1" fill="#5F6368"/><circle cx="179" cy="107" r="1" fill="#5F6368"/><circle cx="167" cy="107" r="1" fill="#5F6368"/><circle cx="171" cy="107" r="1" fill="#5F6368"/><circle cx="175" cy="107" r="1" fill="#5F6368"/><circle cx="175" cy="103" r="1" fill="#5F6368"/><circle cx="1" cy="1" r="1" transform="matrix(-1 0 0 1 218 29)" fill="#5F6368"/><circle cx="1" cy="1" r="1" transform="matrix(-1 0 0 1 202 29)" fill="#5F6368"/><circle cx="1" cy="1" r="1" transform="matrix(-1 0 0 1 198 29)" fill="#5F6368"/><circle cx="37" cy="53" r="3" fill="#5F6368"/><circle cx="45" cy="53" r="3" fill="#5F6368"/><circle cx="53" cy="53" r="3" fill="#5F6368"/><circle cx="21" cy="53" r="3" fill="#5F6368"/><circle cx="199" cy="72" r="3" fill="#5F6368"/><circle cx="207" cy="72" r="3" fill="#5F6368"/><circle cx="215" cy="72" r="3" fill="#5F6368"/><circle cx="231" cy="72" r="3" fill="#5F6368"/><path d="M153.334 56h-16v8h16v-8Z" fill="#188038"/><path d="M109.335 74.67c-8.067 0-14.667-6.6-14.667-14.667s6.6-14.667 14.667-14.667c8.066 0 14.666 6.6 14.666 14.667 0 8.066-6.6 14.666-14.666 14.666Zm0-21.334c-3.667 0-6.667 3-6.667 6.667 0 3.666 3 6.666 6.667 6.666 3.666 0 6.666-3 6.666-6.666 0-3.667-3-6.667-6.666-6.667Z" fill="#4285F4"/><path d="M148.001 64h-10.667v8h5.333v-2.667c0-1.466 1.2-2.666 2.667-2.666 1.467 0 2.667 1.2 2.667 2.666V72h5.333v-8h-5.333Z" fill="#34A853"/><path d="M123.466 56h-8.8c.8 1.133 1.333 2.467 1.333 4s-.533 2.867-1.333 4h8.8c.333-1.267.533-2.6.533-4s-.2-2.733-.533-4Z" fill="#EA4335"/><path d="M137.333 56h-13.866c.333 1.267.533 2.6.533 4s-.2 2.733-.533 4h13.866v-8Z" fill="#FBBC04"/></svg>