<svg width="248" height="120" viewBox="0 0 248 120" fill="none" xmlns="http://www.w3.org/2000/svg"><path d="M141 21H89a4 4 0 0 0-4 4v82a4 4 0 0 0 4 4h52a4 4 0 0 0 4-4V25a4 4 0 0 0-4-4Z" fill="#BDC1C6"/><path d="M141 28H89v76h52V28Z" fill="#fff"/><path fill="#9AA0A6" d="M89 104h52v2H89z"/><path fill-rule="evenodd" clip-rule="evenodd" d="M121 27V16a6 6 0 1 0-12 0v11h12Zm-3-11a3 3 0 1 1-6 0 3 3 0 0 1 6 0Z" fill="#1B6EF3"/><path d="M102 21h26a2.998 2.998 0 0 1 3 3v4H99v-4a3 3 0 0 1 3-3Z" fill="#1B6EF3"/><path d="M131 28H99v5h32v-5Z" fill="#7CACF8"/><circle cx="168.748" cy="36.634" r="4" transform="rotate(10 168.748 36.634)" fill="#FF8BCB"/><path fill="#FF8BCB" d="m164.809 35.94 7.878 1.39-.694 3.938-7.879-1.389z"/><path fill="#DADCE0" d="m164.113 39.879 7.878 1.39-1.736 9.847-7.878-1.389z"/><path fill="#FBBC04" d="m162.377 49.727 7.878 1.39-7.64 43.33-7.879-1.388z"/><path fill="#9AA0A6" d="m163.767 41.848 7.878 1.39-.173.984-7.879-1.39zm-.869 4.924 7.878 1.39-.173.984-7.879-1.39z"/><path d="m156.94 103.6-2.203-10.542 7.878 1.389-5.675 9.153Z" fill="#E8EAED"/><path d="m156.059 99.383.881 4.217 2.27-3.661-3.151-.556Z" fill="#80868B"/><path d="M136 73v7h-7v-7h7Zm2-2h-11v11h11V71Zm-2-28v7h-7v-7h7Zm2-2h-11v11h11V41Zm-2 17v7h-7v-7h7Zm2-2h-11v11h11V56Zm-2 32v7h-7v-7h7Zm2-2h-11v11h11V86Z" fill="#DADCE0"/><rect x="92" y="41" width="32" height="11" rx="5.5" fill="#DADCE0"/><circle cx="97.5" cy="46.5" r="2.5" fill="#1B6EF3"/><circle cx="118.5" cy="46.5" r="2.5" fill="#1B6EF3"/><circle cx="104.5" cy="46.5" r="2.5" fill="#1B6EF3"/><circle cx="111.5" cy="46.5" r="2.5" fill="#1B6EF3"/><rect x="92" y="56" width="32" height="11" rx="5.5" fill="#DADCE0"/><circle cx="97.5" cy="61.5" r="2.5" fill="#1B6EF3"/><circle cx="118.5" cy="61.5" r="2.5" fill="#1B6EF3"/><circle cx="104.5" cy="61.5" r="2.5" fill="#1B6EF3"/><circle cx="111.5" cy="61.5" r="2.5" fill="#1B6EF3"/><rect x="92" y="71" width="32" height="11" rx="5.5" fill="#DADCE0"/><circle cx="97.5" cy="76.5" r="2.5" fill="#1B6EF3"/><circle cx="118.5" cy="76.5" r="2.5" fill="#1B6EF3"/><circle cx="104.5" cy="76.5" r="2.5" fill="#1B6EF3"/><circle cx="111.5" cy="76.5" r="2.5" fill="#1B6EF3"/><rect x="92" y="86" width="32" height="11" rx="5.5" fill="#DADCE0"/><circle cx="97.5" cy="91.5" r="2.5" fill="#1B6EF3"/><circle cx="118.5" cy="91.5" r="2.5" fill="#1B6EF3"/><circle cx="104.5" cy="91.5" r="2.5" fill="#1B6EF3"/><circle cx="111.5" cy="91.5" r="2.5" fill="#1B6EF3"/><circle cx="58" cy="20" r="1" fill="#DADCE0"/><circle cx="62" cy="20" r="1" fill="#DADCE0"/><circle cx="50" cy="20" r="1" fill="#DADCE0"/><circle cx="54" cy="20" r="1" fill="#DADCE0"/><circle cx="66" cy="20" r="1" fill="#DADCE0"/><circle cx="1" cy="1" r="1" transform="matrix(-1 0 0 1 36 92)" fill="#DADCE0"/><circle cx="1" cy="1" r="1" transform="matrix(-1 0 0 1 44 92)" fill="#DADCE0"/><circle cx="1" cy="1" r="1" transform="matrix(-1 0 0 1 40 92)" fill="#DADCE0"/><circle cx="1" cy="1" r="1" transform="matrix(-1 0 0 1 32 92)" fill="#DADCE0"/><circle cx="1" cy="1" r="1" transform="matrix(-1 0 0 1 28 92)" fill="#DADCE0"/><circle cx="1" cy="1" r="1" transform="matrix(-1 0 0 1 198 25)" fill="#DADCE0"/><circle cx="1" cy="1" r="1" transform="matrix(-1 0 0 1 194 25)" fill="#DADCE0"/><circle cx="42" cy="24" r="1" fill="#DADCE0"/><circle cx="46" cy="24" r="1" fill="#DADCE0"/><circle cx="30" cy="24" r="1" fill="#DADCE0"/><circle cx="50" cy="24" r="1" fill="#DADCE0"/><circle cx="54" cy="24" r="1" fill="#DADCE0"/><circle cx="1" cy="1" r="1" transform="matrix(-1 0 0 1 206 25)" fill="#DADCE0"/><circle cx="38" cy="24" r="1" fill="#DADCE0"/><circle cx="1" cy="1" r="1" transform="matrix(-1 0 0 1 202 25)" fill="#DADCE0"/><circle cx="1" cy="1" r="1" transform="matrix(-1 0 0 1 190 25)" fill="#DADCE0"/><circle cx="1" cy="1" r="1" transform="matrix(-1 0 0 1 186 25)" fill="#DADCE0"/><circle cx="1" cy="1" r="1" transform="matrix(-1 0 0 1 182 25)" fill="#DADCE0"/><circle cx="1" cy="1" r="1" transform="matrix(-1 0 0 1 52 96)" fill="#DADCE0"/><circle cx="1" cy="1" r="1" transform="matrix(-1 0 0 1 48 100)" fill="#DADCE0"/><circle cx="1" cy="1" r="1" transform="matrix(-1 0 0 1 48 96)" fill="#DADCE0"/><circle cx="1" cy="1" r="1" transform="matrix(-1 0 0 1 44 100)" fill="#DADCE0"/><circle cx="1" cy="1" r="1" transform="matrix(-1 0 0 1 44 96)" fill="#DADCE0"/><circle cx="1" cy="1" r="1" transform="matrix(-1 0 0 1 40 96)" fill="#DADCE0"/><circle cx="1" cy="1" r="1" transform="matrix(-1 0 0 1 36 96)" fill="#DADCE0"/><circle cx="1" cy="1" r="1" transform="matrix(-1 0 0 1 56 96)" fill="#DADCE0"/><circle cx="1" cy="1" r="1" transform="matrix(-1 0 0 1 214 29)" fill="#DADCE0"/><circle cx="1" cy="1" r="1" transform="matrix(-1 0 0 1 210 29)" fill="#DADCE0"/><circle cx="1" cy="1" r="1" transform="matrix(-1 0 0 1 206 29)" fill="#DADCE0"/><circle cx="183" cy="107" r="1" fill="#DADCE0"/><circle cx="187" cy="107" r="1" fill="#DADCE0"/><circle cx="179" cy="103" r="1" fill="#DADCE0"/><circle cx="183" cy="103" r="1" fill="#DADCE0"/><circle cx="191" cy="107" r="1" fill="#DADCE0"/><circle cx="187" cy="103" r="1" fill="#DADCE0"/><circle cx="163" cy="107" r="1" fill="#DADCE0"/><circle cx="179" cy="107" r="1" fill="#DADCE0"/><circle cx="167" cy="107" r="1" fill="#DADCE0"/><circle cx="171" cy="107" r="1" fill="#DADCE0"/><circle cx="175" cy="107" r="1" fill="#DADCE0"/><circle cx="175" cy="103" r="1" fill="#DADCE0"/><circle cx="1" cy="1" r="1" transform="matrix(-1 0 0 1 218 29)" fill="#DADCE0"/><circle cx="1" cy="1" r="1" transform="matrix(-1 0 0 1 202 29)" fill="#DADCE0"/><circle cx="1" cy="1" r="1" transform="matrix(-1 0 0 1 198 29)" fill="#DADCE0"/><circle cx="37" cy="53" r="3" fill="#DADCE0"/><circle cx="45" cy="53" r="3" fill="#DADCE0"/><circle cx="53" cy="53" r="3" fill="#DADCE0"/><circle cx="21" cy="53" r="3" fill="#DADCE0"/><circle cx="199" cy="72" r="3" fill="#DADCE0"/><circle cx="207" cy="72" r="3" fill="#DADCE0"/><circle cx="215" cy="72" r="3" fill="#DADCE0"/><circle cx="231" cy="72" r="3" fill="#DADCE0"/></svg>