<svg width="25" height="31" viewBox="0 0 25 31" fill="none" xmlns="http://www.w3.org/2000/svg"><path fill-rule="evenodd" clip-rule="evenodd" d="M13.507.189a2.778 2.778 0 0 0-2.014 0l-9.722 3.78A2.778 2.778 0 0 0 0 6.56v6.433c0 8.681 5.138 14.794 11.708 17.103a2.39 2.39 0 0 0 1.584 0C19.862 27.786 25 21.673 25 12.992V6.559a2.778 2.778 0 0 0-1.771-2.59L13.507.19Zm3.16 11.414h-.695v-1.39a3.473 3.473 0 0 0-6.944 0v1.39h-.695c-.764 0-1.389.625-1.389 1.389v6.944c0 .764.625 1.389 1.39 1.389h8.333c.764 0 1.389-.625 1.389-1.389v-6.944c0-.764-.625-1.39-1.39-1.39Zm-6.25-1.39A2.08 2.08 0 0 1 12.5 8.132a2.08 2.08 0 0 1 2.083 2.083v1.389h-4.166v-1.39Zm2.083 7.64c.764 0 1.389-.625 1.389-1.39 0-.763-.625-1.388-1.389-1.388s-1.389.625-1.389 1.389.625 1.389 1.389 1.389Z" fill="#185ABC"/></svg>