<svg xmlns="http://www.w3.org/2000/svg" width="316" height="112" fill="none" viewBox="0 0 316 112"><path fill="#fff" d="M0 0h316v112H0z"/><g filter="url(#a)"><circle cx="157.5" cy="55.5" r="38.5" fill="#fff"/></g><path fill="#188038" d="M184.897 52.256h-14.708v7.354h14.708v-7.354Z"/><path fill="#4285F4" d="M144.451 69.414c-7.415 0-13.482-6.067-13.482-13.483 0-7.415 6.067-13.482 13.482-13.482 7.415 0 13.482 6.067 13.482 13.482 0 7.416-6.067 13.483-13.482 13.483Zm0-19.61c-3.371 0-6.129 2.757-6.129 6.127 0 3.371 2.758 6.129 6.129 6.129 3.37 0 6.128-2.758 6.128-6.129 0-3.37-2.758-6.128-6.128-6.128Z"/><path fill="#34A853" d="M179.995 59.61h-9.806v7.353h4.903v-2.451a2.458 2.458 0 0 1 2.451-2.451 2.459 2.459 0 0 1 2.452 2.451v2.451h4.902V59.61h-4.902Z"/><path fill="#EA4335" d="M157.443 52.256h-8.09c.736 1.042 1.226 2.267 1.226 3.677 0 1.41-.49 2.635-1.226 3.677h8.09c.306-1.165.49-2.39.49-3.677a14.41 14.41 0 0 0-.49-3.677Z"/><path fill="#FBBC04" d="M170.189 52.256h-12.747c.307 1.164.491 2.39.491 3.677s-.184 2.512-.491 3.677h12.747v-7.354Z"/><circle cx="190" cy="88" r="17" fill="#FCEEEE"/><path fill="#DC362E" d="M190 102c7.732 0 14-6.268 14-14s-6.268-14-14-14-14 6.268-14 14 6.268 14 14 14Z"/><path fill="#fff" d="M192 79h-4v11h4V79ZM192 93h-4v4h4v-4Z"/><circle cx="92" cy="17" r="1" fill="#DADCE0"/><circle cx="96" cy="17" r="1" fill="#DADCE0"/><circle cx="84" cy="17" r="1" fill="#DADCE0"/><circle cx="88" cy="17" r="1" fill="#DADCE0"/><circle cx="100" cy="17" r="1" fill="#DADCE0"/><circle cx="107" cy="86" r="1" fill="#DADCE0"/><circle cx="99" cy="86" r="1" fill="#DADCE0"/><circle cx="103" cy="86" r="1" fill="#DADCE0"/><circle cx="111" cy="86" r="1" fill="#DADCE0"/><circle cx="229" cy="20" r="1" fill="#DADCE0"/><circle cx="233" cy="20" r="1" fill="#DADCE0"/><circle cx="221" cy="20" r="1" fill="#DADCE0"/><circle cx="225" cy="20" r="1" fill="#DADCE0"/><circle cx="115" cy="86" r="1" fill="#DADCE0"/><circle cx="281" cy="37" r="1" fill="#DADCE0"/><circle cx="285" cy="37" r="1" fill="#DADCE0"/><circle cx="76" cy="21" r="1" fill="#DADCE0"/><circle cx="80" cy="21" r="1" fill="#DADCE0"/><circle cx="64" cy="21" r="1" fill="#DADCE0"/><circle cx="84" cy="21" r="1" fill="#DADCE0"/><circle cx="88" cy="21" r="1" fill="#DADCE0"/><circle cx="273" cy="37" r="1" fill="#DADCE0"/><circle cx="72" cy="21" r="1" fill="#DADCE0"/><circle cx="277" cy="37" r="1" fill="#DADCE0"/><circle cx="289" cy="37" r="1" fill="#DADCE0"/><circle cx="293" cy="37" r="1" fill="#DADCE0"/><circle cx="297" cy="37" r="1" fill="#DADCE0"/><circle cx="91" cy="90" r="1" fill="#DADCE0"/><circle cx="95" cy="90" r="1" fill="#DADCE0"/><circle cx="99" cy="90" r="1" fill="#DADCE0"/><circle cx="103" cy="90" r="1" fill="#DADCE0"/><circle cx="107" cy="90" r="1" fill="#DADCE0"/><circle cx="87" cy="90" r="1" fill="#DADCE0"/><circle cx="265" cy="41" r="1" fill="#DADCE0"/><circle cx="269" cy="41" r="1" fill="#DADCE0"/><circle cx="273" cy="41" r="1" fill="#DADCE0"/><circle cx="253" cy="90" r="1" fill="#DADCE0"/><circle cx="257" cy="90" r="1" fill="#DADCE0"/><circle cx="249" cy="86" r="1" fill="#DADCE0"/><circle cx="253" cy="86" r="1" fill="#DADCE0"/><circle cx="261" cy="90" r="1" fill="#DADCE0"/><circle cx="39" cy="69" r="1" fill="#DADCE0"/><circle cx="257" cy="86" r="1" fill="#DADCE0"/><circle cx="43" cy="69" r="1" fill="#DADCE0"/><circle cx="35" cy="65" r="1" fill="#DADCE0"/><circle cx="233" cy="90" r="1" fill="#DADCE0"/><circle cx="249" cy="90" r="1" fill="#DADCE0"/><circle cx="237" cy="90" r="1" fill="#DADCE0"/><circle cx="241" cy="90" r="1" fill="#DADCE0"/><circle cx="245" cy="90" r="1" fill="#DADCE0"/><circle cx="245" cy="86" r="1" fill="#DADCE0"/><circle cx="39" cy="65" r="1" fill="#DADCE0"/><circle cx="47" cy="69" r="1" fill="#DADCE0"/><circle cx="43" cy="65" r="1" fill="#DADCE0"/><circle cx="19" cy="69" r="1" fill="#DADCE0"/><circle cx="35" cy="69" r="1" fill="#DADCE0"/><circle cx="23" cy="69" r="1" fill="#DADCE0"/><circle cx="27" cy="69" r="1" fill="#DADCE0"/><circle cx="31" cy="69" r="1" fill="#DADCE0"/><circle cx="31" cy="65" r="1" fill="#DADCE0"/><circle cx="261" cy="41" r="1" fill="#DADCE0"/><circle cx="277" cy="41" r="1" fill="#DADCE0"/><circle cx="281" cy="41" r="1" fill="#DADCE0"/><circle cx="70" cy="44" r="3" fill="#DADCE0"/><circle cx="78" cy="44" r="3" fill="#DADCE0"/><circle cx="86" cy="44" r="3" fill="#DADCE0"/><circle cx="54" cy="44" r="3" fill="#DADCE0"/><circle cx="220" cy="69" r="3" fill="#DADCE0"/><circle cx="228" cy="69" r="3" fill="#DADCE0"/><circle cx="236" cy="69" r="3" fill="#DADCE0"/><circle cx="252" cy="69" r="3" fill="#DADCE0"/><defs><filter id="a" width="94.303" height="94.303" x="110.348" y="8.348" color-interpolation-filters="sRGB" filterUnits="userSpaceOnUse"><feFlood flood-opacity="0" result="BackgroundImageFix"/><feColorMatrix in="SourceAlpha" result="hardAlpha" values="0 0 0 0 0 0 0 0 0 0 0 0 0 0 0 0 0 0 127 0"/><feOffset/><feGaussianBlur stdDeviation="4.326"/><feComposite in2="hardAlpha" operator="out"/><feColorMatrix values="0 0 0 0 0 0 0 0 0 0 0 0 0 0 0 0 0 0 0.15 0"/><feBlend in2="BackgroundImageFix" result="effect1_dropShadow_22469_4450"/><feBlend in="SourceGraphic" in2="effect1_dropShadow_22469_4450" result="shape"/></filter></defs></svg>