<svg xmlns="http://www.w3.org/2000/svg" width="248" height="120" fill="none" viewBox="0 0 248 120"><g filter="url(#a)"><circle cx="123.5" cy="57.5" r="38.5" fill="#fff"/></g><path fill="#4285F4" fill-rule="evenodd" d="M96.969 57.931c0 7.416 6.067 13.483 13.482 13.483 6.141 0 11.358-4.162 12.969-9.804h12.769v7.353h4.903v-2.451a2.458 2.458 0 0 1 2.451-2.451 2.459 2.459 0 0 1 2.452 2.451v2.451h4.902V54.256H123.42c-1.61-5.644-6.827-9.807-12.969-9.807-7.415 0-13.482 6.067-13.482 13.482Zm7.353 0c0-3.37 2.758-6.128 6.129-6.128 3.37 0 6.128 2.758 6.128 6.128 0 3.371-2.758 6.129-6.128 6.129-3.371 0-6.129-2.758-6.129-6.129Z" clip-rule="evenodd"/><circle cx="156" cy="90" r="17" fill="#FCEEEE"/><path fill="#DC362E" d="M156 104c7.732 0 14-6.268 14-14s-6.268-14-14-14-14 6.268-14 14 6.268 14 14 14Z"/><path fill="#fff" d="M158 81h-4v11h4V81ZM158 95h-4v4h4v-4Z"/><circle cx="58" cy="23" r="1" fill="#DADCE0"/><circle cx="62" cy="23" r="1" fill="#DADCE0"/><circle cx="50" cy="23" r="1" fill="#DADCE0"/><circle cx="54" cy="23" r="1" fill="#DADCE0"/><circle cx="66" cy="23" r="1" fill="#DADCE0"/><circle cx="78" cy="99" r="1" fill="#DADCE0"/><circle cx="70" cy="99" r="1" fill="#DADCE0"/><circle cx="74" cy="99" r="1" fill="#DADCE0"/><circle cx="82" cy="99" r="1" fill="#DADCE0"/><circle cx="186" cy="22" r="1" fill="#DADCE0"/><circle cx="190" cy="22" r="1" fill="#DADCE0"/><circle cx="178" cy="22" r="1" fill="#DADCE0"/><circle cx="182" cy="22" r="1" fill="#DADCE0"/><circle cx="86" cy="99" r="1" fill="#DADCE0"/><circle cx="222" cy="36" r="1" fill="#DADCE0"/><circle cx="226" cy="36" r="1" fill="#DADCE0"/><circle cx="42" cy="27" r="1" fill="#DADCE0"/><circle cx="46" cy="27" r="1" fill="#DADCE0"/><circle cx="30" cy="27" r="1" fill="#DADCE0"/><circle cx="50" cy="27" r="1" fill="#DADCE0"/><circle cx="54" cy="27" r="1" fill="#DADCE0"/><circle cx="214" cy="36" r="1" fill="#DADCE0"/><circle cx="38" cy="27" r="1" fill="#DADCE0"/><circle cx="218" cy="36" r="1" fill="#DADCE0"/><circle cx="230" cy="36" r="1" fill="#DADCE0"/><circle cx="234" cy="36" r="1" fill="#DADCE0"/><circle cx="238" cy="36" r="1" fill="#DADCE0"/><circle cx="62" cy="103" r="1" fill="#DADCE0"/><circle cx="66" cy="103" r="1" fill="#DADCE0"/><circle cx="70" cy="103" r="1" fill="#DADCE0"/><circle cx="74" cy="103" r="1" fill="#DADCE0"/><circle cx="78" cy="103" r="1" fill="#DADCE0"/><circle cx="58" cy="103" r="1" fill="#DADCE0"/><circle cx="206" cy="40" r="1" fill="#DADCE0"/><circle cx="210" cy="40" r="1" fill="#DADCE0"/><circle cx="214" cy="40" r="1" fill="#DADCE0"/><circle cx="219" cy="96" r="1" fill="#DADCE0"/><circle cx="223" cy="96" r="1" fill="#DADCE0"/><circle cx="215" cy="92" r="1" fill="#DADCE0"/><circle cx="219" cy="92" r="1" fill="#DADCE0"/><circle cx="227" cy="96" r="1" fill="#DADCE0"/><circle cx="29" cy="81" r="1" fill="#DADCE0"/><circle cx="223" cy="92" r="1" fill="#DADCE0"/><circle cx="33" cy="81" r="1" fill="#DADCE0"/><circle cx="25" cy="77" r="1" fill="#DADCE0"/><circle cx="199" cy="96" r="1" fill="#DADCE0"/><circle cx="215" cy="96" r="1" fill="#DADCE0"/><circle cx="203" cy="96" r="1" fill="#DADCE0"/><circle cx="207" cy="96" r="1" fill="#DADCE0"/><circle cx="211" cy="96" r="1" fill="#DADCE0"/><circle cx="211" cy="92" r="1" fill="#DADCE0"/><circle cx="29" cy="77" r="1" fill="#DADCE0"/><circle cx="37" cy="81" r="1" fill="#DADCE0"/><circle cx="33" cy="77" r="1" fill="#DADCE0"/><circle cx="9" cy="81" r="1" fill="#DADCE0"/><circle cx="25" cy="81" r="1" fill="#DADCE0"/><circle cx="13" cy="81" r="1" fill="#DADCE0"/><circle cx="17" cy="81" r="1" fill="#DADCE0"/><circle cx="21" cy="81" r="1" fill="#DADCE0"/><circle cx="21" cy="77" r="1" fill="#DADCE0"/><circle cx="202" cy="40" r="1" fill="#DADCE0"/><circle cx="218" cy="40" r="1" fill="#DADCE0"/><circle cx="222" cy="40" r="1" fill="#DADCE0"/><circle cx="36" cy="50" r="3" fill="#DADCE0"/><circle cx="44" cy="50" r="3" fill="#DADCE0"/><circle cx="52" cy="50" r="3" fill="#DADCE0"/><circle cx="20" cy="50" r="3" fill="#DADCE0"/><circle cx="186" cy="75" r="3" fill="#DADCE0"/><circle cx="194" cy="75" r="3" fill="#DADCE0"/><circle cx="202" cy="75" r="3" fill="#DADCE0"/><circle cx="218" cy="75" r="3" fill="#DADCE0"/><defs><filter id="a" width="94.303" height="94.303" x="76.348" y="10.348" color-interpolation-filters="sRGB" filterUnits="userSpaceOnUse"><feFlood flood-opacity="0" result="BackgroundImageFix"/><feColorMatrix in="SourceAlpha" result="hardAlpha" values="0 0 0 0 0 0 0 0 0 0 0 0 0 0 0 0 0 0 127 0"/><feOffset/><feGaussianBlur stdDeviation="4.326"/><feComposite in2="hardAlpha" operator="out"/><feColorMatrix values="0 0 0 0 0 0 0 0 0 0 0 0 0 0 0 0 0 0 0.15 0"/><feBlend in2="BackgroundImageFix" result="effect1_dropShadow_22745_4390"/><feBlend in="SourceGraphic" in2="effect1_dropShadow_22745_4390" result="shape"/></filter></defs></svg>