<svg xmlns="http://www.w3.org/2000/svg" width="248" height="120" fill="none" viewBox="0 0 248 120"><path stroke="url(#a)" stroke-width="2" d="M187 88H62"/><rect width="66" height="49" x="92" y="32" fill="url(#b)" rx="6"/><path fill="#0B57D0" d="M83.228 83h88a4 4 0 0 1-4 4h-80a4 4 0 0 1-4-4Z"/><rect width="58" height="41" x="96" y="36" stroke="#1F1F1F" stroke-width="2" rx="1"/><path fill="#A8C7FA" d="M119 67a1.99 1.99 0 0 1-1.425-.575A1.99 1.99 0 0 1 117 65V55c0-.55.192-1.017.575-1.4.4-.4.875-.6 1.425-.6h1v-2c0-1.383.483-2.558 1.45-3.525.983-.983 2.167-1.475 3.55-1.475s2.558.492 3.525 1.475c.983.967 1.475 2.142 1.475 3.525v2h1c.55 0 1.017.2 1.4.6.4.383.6.85.6 1.4v10c0 .55-.2 1.025-.6 1.425-.383.383-.85.575-1.4.575h-12Zm0-2h12V55h-12v10Zm6-3c.55 0 1.017-.192 1.4-.575.4-.4.6-.875.6-1.425s-.2-1.017-.6-1.4c-.383-.4-.85-.6-1.4-.6-.55 0-1.025.2-1.425.6-.383.383-.575.85-.575 1.4 0 .55.192 1.025.575 1.425.4.383.875.575 1.425.575Zm-3-9h6v-2c0-.833-.292-1.542-.875-2.125A2.893 2.893 0 0 0 125 48c-.833 0-1.542.292-2.125.875A2.894 2.894 0 0 0 122 51v2Zm-3 12V55v10Z"/><defs><linearGradient id="a" x1="62.577" x2="187" y1="88" y2="88" gradientUnits="userSpaceOnUse"><stop stop-color="#0842A0" stop-opacity="0"/><stop offset=".25" stop-color="#0842A0"/><stop offset=".776" stop-color="#0842A0"/><stop offset="1" stop-color="#0842A0" stop-opacity="0"/></linearGradient><linearGradient id="b" x1="112.625" x2="98.612" y1="46.373" y2="76.383" gradientUnits="userSpaceOnUse"><stop offset=".354" stop-color="#5E5E5E"/><stop offset=".953" stop-color="#0B57D0"/></linearGradient></defs></svg>