<?xml version="1.0" encoding="UTF-8"?>
<svg id="Layer_1" xmlns="http://www.w3.org/2000/svg" version="1.1" viewBox="0 0 3300 2200">
  <!-- Generator: Adobe Illustrator 29.7.1, SVG Export Plug-In . SVG Version: 2.1.1 Build 8)  -->
  <defs>
    <style>
      .st0 {
        stroke: #00aeef;
      }

      .st0, .st1, .st2 {
        fill: none;
        stroke-width: .5px;
      }

      .st1 {
        stroke: #000;
      }

      .st3 {
        fill: #fff;
      }

      .st4 {
        font-family: Helvetica-Bold, Helvetica;
        font-weight: 700;
      }

      .st4, .st5 {
        font-size: 13px;
        isolation: isolate;
      }

      .st5 {
        font-family: Helvetica, Helvetica;
      }

      .st6 {
        fill: #27aae1;
      }

      .st2 {
        stroke: #27aae1;
      }
    </style>
  </defs>
  <g id="Notes">
    <rect id="artboard" class="st3" x="1.27" width="3300" height="2200"/>
    <line class="st1" x1="264.27" y1="292" x2="3037.27" y2="292"/>
    <text class="st4" transform="translate(264.27 322)"><tspan x="0" y="0">Weight/Scale Variations</tspan></text>
    <text class="st5" transform="translate(535.34 322)"><tspan x="0" y="0">Ultralight</tspan></text>
    <text class="st5" transform="translate(845.05 322)"><tspan x="0" y="0">Thin</tspan></text>
    <text class="st5" transform="translate(1140.31 322)"><tspan x="0" y="0">Light</tspan></text>
    <text class="st5" transform="translate(1428.35 322)"><tspan x="0" y="0">Regular</tspan></text>
    <text class="st5" transform="translate(1724.71 322)"><tspan x="0" y="0">Medium</tspan></text>
    <text class="st5" transform="translate(2017.44 322)"><tspan x="0" y="0">Semibold</tspan></text>
    <text class="st5" transform="translate(2328.24 322)"><tspan x="0" y="0">Bold</tspan></text>
    <text class="st5" transform="translate(2619.54 322)"><tspan x="0" y="0">Heavy</tspan></text>
    <text class="st5" transform="translate(2918.78 322)"><tspan x="0" y="0">Black</tspan></text>
    <line class="st1" x1="264.27" y1="1903" x2="3037.27" y2="1903"/>
    <path d="M273.52,1933.83c4.36,0,7.89-3.53,7.89-7.88s-3.54-7.88-7.89-7.88-7.88,3.53-7.88,7.88,3.54,7.88,7.88,7.88ZM273.52,1932.35c-3.54,0-6.39-2.86-6.39-6.4s2.85-6.4,6.39-6.4,6.4,2.86,6.4,6.4-2.86,6.4-6.4,6.4ZM274.24,1928.79v-5.69c0-.45-.29-.75-.74-.75s-.72.3-.72.75v5.69c0,.44.29.74.72.74s.74-.3.74-.74ZM270.68,1926.67h5.68c.44,0,.74-.29.74-.72s-.3-.74-.74-.74h-5.68c-.45,0-.75.3-.75.74s.3.72.75.72Z"/>
    <path d="M294.49,1935.91c5.5,0,9.96-4.46,9.96-9.96s-4.46-9.96-9.96-9.96-9.96,4.46-9.96,9.96,4.46,9.96,9.96,9.96ZM294.49,1934.25c-4.59,0-8.3-3.71-8.3-8.3s3.71-8.3,8.3-8.3,8.3,3.71,8.3,8.3-3.71,8.3-8.3,8.3ZM295.3,1929.63v-7.38c0-.5-.34-.84-.83-.84s-.81.34-.81.84v7.38c0,.49.33.83.81.83s.83-.33.83-.83ZM290.79,1926.75h7.39c.49,0,.83-.32.83-.8s-.34-.83-.83-.83h-7.39c-.5,0-.83.34-.83.83s.33.8.83.8Z"/>
    <path d="M321.17,1938.66c7.02,0,12.72-5.69,12.72-12.71s-5.7-12.72-12.72-12.72-12.71,5.7-12.71,12.72,5.69,12.71,12.71,12.71ZM321.17,1936.85c-6.03,0-10.9-4.87-10.9-10.9s4.87-10.9,10.9-10.9,10.9,4.87,10.9,10.9-4.87,10.9-10.9,10.9ZM322.06,1930.78v-9.7c0-.55-.37-.93-.91-.93s-.89.38-.89.93v9.7c0,.54.37.92.89.92s.91-.37.91-.92ZM316.31,1926.83h9.7c.54,0,.92-.36.92-.88,0-.55-.37-.92-.92-.92h-9.7c-.55,0-.92.37-.92.92,0,.52.37.88.92.88Z"/>
    <text class="st4" transform="translate(264.27 1953)"><tspan x="0" y="0">Design Variations</tspan></text>
    <text class="st5" transform="translate(264.27 1971)"><tspan x="0" y="0">Symbols are supported in up to nine weights and three scales.</tspan></text>
    <text class="st5" transform="translate(264.27 1989)"><tspan x="0" y="0">For optimal layout with text and other symbols, vertically align</tspan></text>
    <text class="st5" transform="translate(264.27 2007)"><tspan x="0" y="0">symbols with the adjacent text.</tspan></text>
    <line class="st0" x1="777.27" y1="1919" x2="777.27" y2="1933"/>
    <path d="M780.58,1933.16c.52,0,.77-.2.96-.74l4.11-11.5h.05l4.12,11.5c.19.55.44.74.95.74s.85-.31.85-.8c0-.17-.03-.32-.11-.53l-4.58-12.2c-.22-.6-.63-.9-1.25-.9s-1.02.29-1.23.89l-4.58,12.22c-.08.21-.11.36-.11.53,0,.49.31.79.82.79ZM782.62,1928.97h6.13c.4,0,.73-.33.73-.73s-.33-.73-.73-.73h-6.13c-.4,0-.73.32-.73.73s.33.73.73.73Z"/>
    <line class="st0" x1="794.11" y1="1919" x2="794.11" y2="1933"/>
    <text class="st4" transform="translate(777.27 1953)"><tspan x="0" y="0">Margins</tspan></text>
    <text class="st5" transform="translate(777.27 1971)"><tspan x="0" y="0">Leading and trailing margins on the left and right side of each symbol</tspan></text>
    <text class="st5" transform="translate(777.27 1989)"><tspan x="0" y="0">can be adjusted by modifying the x-location of the margin guidelines.</tspan></text>
    <text class="st5" transform="translate(777.27 2007)"><tspan x="0" y="0">Modifications are automatically applied proportionally to all</tspan></text>
    <text class="st5" transform="translate(777.27 2025)"><tspan x="0" y="0">scales and weights.</tspan></text>
    <path d="M1293.11,1935.63l1.57,1.57c.86.88,1.87.82,2.77-.21l12.14-13.64-.98-.98-12.05,13.54c-.36.39-.69.49-1.16.02l-1.04-1.03c-.46-.46-.36-.79.04-1.16l13.5-12.43-.98-.97-13.61,12.52c-1,.92-1.06,1.89-.21,2.76h0ZM1302.09,1916.13c-.41.4-.45.98-.21,1.36.22.36.69.61,1.32.45,1.17-.33,2.52-.48,3.78.19l-.54,1.43c-.32.8-.15,1.38.34,1.88l2.05,2.06c.47.48.91.49,1.42.39l.89-.15.52.51-.04.45c-.02.46.11.86.56,1.3l.67.66c.46.46,1.1.5,1.56.04l2.6-2.61c.46-.47.43-1.07-.04-1.53l-.68-.68c-.44-.44-.81-.61-1.27-.58l-.47.05-.49-.49.21-.94c.13-.55-.05-1-.58-1.52l-2.26-2.24c-2.59-2.57-7.12-2.21-9.34-.03ZM1303.5,1916.54c1.76-1.28,5.2-1.13,6.74.39l2.46,2.44c.21.21.24.36.19.66l-.29,1.33,1.35,1.34.88-.05c.22,0,.3,0,.47.18l.51.5-2.17,2.17-.5-.5c-.17-.18-.2-.24-.19-.48l.06-.87-1.34-1.35-1.37.23c-.28.06-.41.04-.63-.18l-1.79-1.78c-.21-.21-.23-.34-.1-.67l.92-2.29c-1.22-1.27-3.41-1.5-5.12-.92-.14.05-.19-.08-.08-.16h0Z"/>
    <text class="st4" transform="translate(1290.27 1953)"><tspan x="0" y="0">Exporting</tspan></text>
    <text class="st5" transform="translate(1290.27 1971)"><tspan x="0" y="0">Symbols should be outlined when exporting to ensure the</tspan></text>
    <text class="st5" transform="translate(1290.27 1989)"><tspan x="0" y="0">design is preserved when submitting to Xcode.</tspan></text>
    <text id="template-version" class="st5" transform="translate(2953.69 1933)"><tspan x="0" y="0">Template v.7.0</tspan></text>
    <text class="st5" transform="translate(2866.73 1951)"><tspan x="0" y="0">Requires Xcode 26 or greater</tspan></text>
    <text id="descriptive-name" class="st5" transform="translate(2838.57 1969)"><tspan x="0" y="0">Generated from globe.americas.fill</tspan></text>
    <text class="st5" transform="translate(2902.84 1987)"><tspan x="0" y="0">Typeset at 100.0 points</tspan></text>
    <text class="st5" transform="translate(264.27 726)"><tspan x="0" y="0">Small</tspan></text>
    <text class="st5" transform="translate(264.27 1156)"><tspan x="0" y="0">Medium</tspan></text>
    <text class="st5" transform="translate(264.27 1586)"><tspan x="0" y="0">Large</tspan></text>
  </g>
  <g id="Guides">
    <g id="H-reference">
      <path class="st6" d="M339.99,696h2.64l25.69-67.13h.7v-3.33h-1.91l-27.13,70.46ZM350.69,671.52h35.29l-.75-2.25h-33.79l-.75,2.25ZM394.12,696h2.64l-27.13-70.46h-1.21v3.33l25.69,67.13Z"/>
    </g>
    <line id="Baseline-S" class="st2" x1="263" y1="696" x2="3036" y2="696"/>
    <line id="Capline-S" class="st2" x1="263" y1="625.54" x2="3036" y2="625.54"/>
    <g id="H-reference1" data-name="H-reference">
      <path class="st6" d="M339.99,1126h2.64l25.69-67.13h.7v-3.33h-1.91l-27.13,70.46ZM350.69,1101.52h35.29l-.75-2.25h-33.79l-.75,2.25ZM394.12,1126h2.64l-27.13-70.46h-1.21v3.33l25.69,67.13Z"/>
    </g>
    <line id="Baseline-M" class="st2" x1="263" y1="1126" x2="3036" y2="1126"/>
    <line id="Capline-M" class="st2" x1="263" y1="1055.54" x2="3036" y2="1055.54"/>
    <g id="H-reference2" data-name="H-reference">
      <path class="st6" d="M339.99,1556h2.64l25.69-67.13h.7v-3.33h-1.91l-27.13,70.46ZM350.69,1531.52h35.29l-.75-2.25h-33.79l-.75,2.25ZM394.12,1556h2.64l-27.13-70.46h-1.21v3.33l25.69,67.13Z"/>
    </g>
    <line id="Baseline-L" class="st2" x1="263" y1="1556" x2="3036" y2="1556"/>
    <line id="Capline-L" class="st2" x1="263" y1="1485.54" x2="3036" y2="1485.54"/>
    <line id="right-margin-Regular-M" class="st0" x1="1508.37" y1="1030.79" x2="1508.37" y2="1150.12"/>
    <line id="left-margin-Regular-M" class="st0" x1="1391.32" y1="1030.79" x2="1391.32" y2="1150.12"/>
  </g>
  <g id="Symbols">
    <g id="Black-L">
      <path class="st1" d="M2934.11,1548.08c0-15.84,13.1-28.94,28.92-28.94s28.94,13.08,28.94,28.94-13.02,28.92-28.94,28.92-28.92-13.04-28.92-28.92ZM2978.79,1548.08c0-8.73-7.01-15.75-15.73-15.75s-15.83,7.05-15.83,15.75,7.17,15.75,15.83,15.75,15.73-6.97,15.73-15.75ZM2988.95,1587.19l-17.88-17.74,12.87-12.58,17.72,17.8c1.84,1.78,2.64,4.01,2.64,6.28,0,5.08-3.77,8.94-8.8,8.94-2.44,0-4.68-.89-6.55-2.7ZM2933.39,1452.79c-37.51,0-67.94,30.41-67.94,67.94s30.43,67.94,67.94,67.94c3.45,0,6.84-.27,10.15-.76-7.34-3.38-13.64-8.68-18.24-15.25-25.15-3.9-44.44-25.69-44.44-51.92,0-11.46,3.69-22.07,9.94-30.72.33,5.5,3.45,10.59,11.05,17.17l8.93,7.72c2.97,2.59,4.66,3.85,4.66,5.46,0,2.82-3.27,4.41-3.27,7.87,0,3.16,1.47,5.75,4.71,8.17.5.37.97.72,1.43,1.06,2.17-9.78,7.57-18.41,15.02-24.67-.09,0-.18.02-.27.02-3.48,0-11.19-6.88-11.19-9.91,0-1.69,1.3-2.51,2.94-2.51,3.07,0,7.85,4.71,12.92,4.71,3.97,0,5.76-2.31,5.76-5.73,0-2.63-1.26-5.11-2.67-7.79,5.83-2.82,16.65-7.53,21.76-14.52,10.73,7.2,18.67,18.24,21.84,31.15,6.99,4.03,12.8,9.89,16.78,16.91.09-1.45.15-2.91.15-4.38,0-37.53-30.43-67.94-67.96-67.94Z"/>
    </g>
    <g id="Heavy-L">
      <path class="st1" d="M2637.2,1547.89c0-15.69,12.97-28.67,28.63-28.67s28.66,12.94,28.66,28.67-12.89,28.62-28.66,28.62-28.63-12.91-28.63-28.62ZM2682.38,1547.89c0-9.15-7.37-16.55-16.52-16.55s-16.63,7.44-16.63,16.55,7.53,16.55,16.63,16.55,16.52-7.37,16.52-16.55ZM2693.29,1587.38l-18.7-18.6,11.73-11.34,18.56,18.65c1.66,1.61,2.43,3.63,2.43,5.71,0,4.63-3.39,8.1-7.95,8.1-2.3,0-4.33-.83-6.07-2.52ZM2636.67,1453.74c-36.98,0-66.99,29.98-66.99,66.99s30.01,66.99,66.99,66.99c3.43,0,6.79-.27,10.08-.76-6.61-3.02-12.37-7.62-16.77-13.32-26.27-3.3-46.62-25.75-46.62-52.91,0-11.68,3.77-22.49,10.15-31.28.16,5.79,3.68,11.37,11.54,18.18l9.02,7.81c2.94,2.58,4.62,3.82,4.62,5.42,0,2.78-3.19,4.47-3.19,7.93,0,3.17,1.48,5.78,4.73,8.19.52.39,1,.74,1.47,1.1,2.01-9.81,7.33-18.47,14.73-24.75-3.53-.05-11.27-6.93-11.27-9.98,0-1.71,1.36-2.58,3.02-2.58,3.06,0,7.89,4.82,12.9,4.82,4,0,5.89-2.44,5.89-6.03,0-2.51-1.23-4.9-2.73-7.61,5.98-2.9,17.28-8.04,22.26-15.43,11.35,7.68,19.6,19.61,22.44,33.49,6.04,3.96,11.06,9.36,14.56,15.71.12-1.65.2-3.32.2-5.01,0-37.01-30.02-66.99-67.02-66.99Z"/>
    </g>
    <g id="Bold-L">
      <path class="st1" d="M2405.81,1520.73c0,5.27-.63,10.4-1.8,15.31-1.95-5.9-5.33-11.15-9.73-15.34-.01-18.63-9.44-35.09-23.78-44.87-4.79,7.9-16.67,13.59-22.82,16.58,1.64,2.74,2.82,5.03,2.82,7.39,0,3.78-2.01,6.37-6.07,6.37-4.89,0-9.79-4.99-12.84-4.99-1.7,0-3.16.96-3.16,2.69,0,3.12,7.94,10.1,11.49,10.1s8.48-4.41,11.6-4.41c1.92,0,4.31.88,6.78,2.27-14.27,4.13-25.1,16.59-26.79,31.67-1.87-1.39-4.43-3.21-7.91-5.82-3.25-2.41-4.75-5.04-4.75-8.21,0-3.46,3.05-5.3,3.05-8.01,0-1.61-1.69-2.82-4.57-5.36l-9.16-7.95c-8.19-7.11-12.11-13.34-12.01-19.5-6.59,8.99-10.5,20.08-10.5,32.08,0,29.97,24.32,54.33,54.29,54.33,1.12,0,2.22-.05,3.32-.11,4.44,4.11,9.86,7.17,15.87,8.75-6.07,1.85-12.51,2.85-19.19,2.85-36.32,0-65.81-29.45-65.81-65.81s29.49-65.81,65.81-65.81,65.85,29.45,65.85,65.81ZM2368.57,1575.92c15.57,0,28.29-12.7,28.29-28.24s-12.72-28.3-28.29-28.3-28.25,12.8-28.25,28.3,12.79,28.24,28.25,28.24ZM2368.62,1565.3c-9.68,0-17.7-7.9-17.7-17.63s8.02-17.63,17.7-17.63,17.58,7.91,17.58,17.63-7.86,17.63-17.58,17.63ZM2403.43,1589.92c3.97,0,6.86-2.99,6.86-7.02,0-1.86-.74-3.59-2.17-5l-19.54-19.65-10.24,9.77,19.66,19.61c1.57,1.54,3.33,2.29,5.43,2.29Z"/>
    </g>
    <g id="Semibold-L">
      <path class="st1" d="M2043.49,1547.53c0-15.37,12.67-28.06,27.99-28.06s28.04,12.65,28.04,28.06-12.61,27.98-28.04,27.98-27.99-12.61-27.99-27.98ZM2089.86,1547.51c0-10.12-8.2-18.38-18.32-18.38s-18.44,8.31-18.44,18.38,8.36,18.38,18.44,18.38,18.32-8.26,18.32-18.38ZM2102.27,1587.81l-20.32-20.3,9.22-8.69,20.22,20.34c1.28,1.26,1.99,2.8,1.99,4.51,0,3.62-2.56,6.27-6.12,6.27-1.97,0-3.54-.69-5-2.12ZM2043.24,1455.73c-35.86,0-65,29.09-65,65s29.13,65,65,65c3.53,0,6.98-.29,10.36-.83-5.01-2.21-9.51-5.37-13.28-9.24-28.99-1.52-52.04-25.56-52.04-54.92,0-12.22,3.99-23.5,10.74-32.64-.29,6.41,3.92,13.1,12.34,20.41l9.25,8.05c2.85,2.52,4.53,3.71,4.53,5.32,0,2.65-2.95,4.6-2.95,8.06,0,3.18,1.51,5.82,4.77,8.23.69.52,1.34,1,1.97,1.46,1.65-10.02,6.88-18.89,14.34-25.23-3.61-.08-11.55-7.03-11.55-10.16,0-1.74,1.53-2.77,3.25-2.77,3.03,0,7.98,5.1,12.79,5.1,4.09,0,6.2-2.69,6.2-6.61,0-2.25-1.15-4.46-2.88-7.23,6.27-3.06,18.56-9.13,23.19-17.38,12.86,8.82,21.8,22.97,23.62,39.24,4.12,3.56,7.55,7.89,10.05,12.78.22-2.18.34-4.39.34-6.62,0-35.91-29.13-65-65.04-65Z"/>
    </g>
    <g id="Medium-L">
      <path class="st1" d="M1746.68,1547.42c0-15.27,12.58-27.87,27.8-27.87s27.85,12.55,27.85,27.87-12.52,27.77-27.85,27.77-27.8-12.52-27.8-27.77ZM1793.42,1547.39c0-10.42-8.46-18.94-18.87-18.94s-19,8.57-19,18.94,8.62,18.94,19,18.94,18.87-8.54,18.87-18.94ZM1806.29,1587.94l-20.83-20.83,8.45-7.87,20.74,20.86c1.16,1.15,1.86,2.54,1.86,4.13,0,3.3-2.3,5.71-5.55,5.71-1.86,0-3.3-.64-4.66-2ZM1746.54,1456.35c-35.52,0-64.38,28.81-64.38,64.38s28.86,64.38,64.38,64.38c3.56,0,7.05-.29,10.45-.84-4.51-1.97-8.6-4.71-12.12-8.06-29.86-.89-53.8-25.4-53.8-55.48,0-12.38,4.06-23.82,10.92-33.07-.43,6.6,3.98,13.64,12.58,21.11l9.33,8.12c2.82,2.51,4.51,3.68,4.51,5.29,0,2.62-2.87,4.64-2.87,8.1,0,3.18,1.52,5.83,4.78,8.24.75.56,1.45,1.08,2.12,1.57,1.53-10.09,6.74-19.02,14.21-25.37-3.63-.1-11.63-7.06-11.63-10.22,0-1.76,1.58-2.83,3.32-2.83,3.01,0,8.01,5.18,12.76,5.18,4.12,0,6.29-2.77,6.29-6.79,0-2.17-1.13-4.32-2.92-7.12,6.35-3.11,18.95-9.47,23.47-17.98,13.36,9.2,22.51,24.09,23.92,41.17,3.55,3.35,6.51,7.31,8.72,11.72.26-2.34.4-4.72.4-7.12,0-35.57-28.86-64.38-64.43-64.38Z"/>
    </g>
    <g id="Regular-L">
      <path class="st1" d="M1449.86,1547.27c0-15.14,12.46-27.62,27.54-27.62s27.59,12.43,27.59,27.62-12.4,27.51-27.59,27.51-27.54-12.4-27.54-27.51ZM1497.08,1547.24c0-10.81-8.79-19.68-19.6-19.68s-19.73,8.92-19.73,19.68,8.95,19.68,19.73,19.68,19.6-8.9,19.6-19.68ZM1510.55,1588.11l-21.49-21.52,7.44-6.8,21.41,21.54c1.01,1.01,1.68,2.21,1.68,3.65,0,2.89-1.96,4.97-4.81,4.97-1.73,0-2.98-.59-4.23-1.84ZM1449.82,1457.16c-35.07,0-63.57,28.45-63.57,63.57s28.5,63.57,63.57,63.57c3.6,0,7.13-.3,10.56-.87-3.81-1.64-7.33-3.85-10.44-6.51-.04,0-.08,0-.12,0-31,0-56.14-25.18-56.14-56.19,0-12.6,4.15-24.25,11.17-33.62-.63,6.85,4.06,14.34,12.89,22.02l9.42,8.21c2.78,2.49,4.47,3.64,4.47,5.25,0,2.56-2.77,4.69-2.77,8.15,0,3.19,1.53,5.84,4.8,8.26.84.63,1.62,1.2,2.36,1.75,1.35-10.18,6.52-19.21,14.02-25.59-3.66-.1-11.75-7.09-11.75-10.29,0-1.77,1.65-2.91,3.42-2.91,3,0,8.04,5.29,12.72,5.29,4.16,0,6.42-2.87,6.42-7.03,0-2.06-1.1-4.15-2.98-6.96,6.47-3.17,19.47-9.93,23.82-18.78,14.05,9.71,23.48,25.64,24.27,43.8,2.83,3.01,5.21,6.43,7.03,10.19.31-2.54.47-5.12.47-7.74,0-35.12-28.5-63.57-63.62-63.57Z"/>
    </g>
    <g id="Light-L">
      <path class="st1" d="M1153.54,1547.23c0-14.93,12.29-27.26,27.18-27.26s27.21,12.3,27.21,27.26-12.25,27.13-27.21,27.13-27.18-12.19-27.18-27.13ZM1201.72,1547.18c0-11.55-9.36-21-20.92-21s-21.03,9.48-21.03,21,9.53,21,21.03,21,20.92-9.49,20.92-21ZM1215.55,1588.4l-21.77-21.88,5.97-5.51,21.75,21.92c.88.88,1.45,1.79,1.45,3.05,0,2.28-1.54,3.96-3.91,3.96-1.42,0-2.42-.49-3.49-1.55ZM1153.11,1458.08c-34.57,0-62.66,28.05-62.66,62.66s28.08,62.66,62.66,62.66c3.24,0,6.43-.26,9.54-.74-3.03-1.36-5.87-3.08-8.46-5.11-.36,0-.72.02-1.08.02-31.37,0-56.8-25.47-56.8-56.84,0-12.97,4.36-24.92,11.67-34.49-.77,7.21,3.6,15.06,12.61,22.98l9.65,8.44c2.65,2.37,4.34,3.49,4.34,5.09,0,2.33-2.41,4.77-2.41,8.23,0,3.17,1.53,5.82,4.78,8.24.68.51,1.32.98,1.93,1.44,1.24-10.05,6.19-19,13.45-25.42-4.04-1.1-11.06-7.25-11.06-10.23,0-1.83,1.89-3.19,3.72-3.19,2.9,0,8.1,5.5,12.45,5.5s6.69-2.85,6.69-7.16c0-1.98-1.02-3.96-3.04-6.83,6.5-3.25,19.91-10.12,24.24-19.39,14.41,9.96,24.01,26.38,24.57,45.07,2.17,2.49,4.03,5.24,5.55,8.2.22-2.13.35-4.3.35-6.49,0-34.61-28.08-62.66-62.69-62.66Z"/>
    </g>
    <g id="Thin-L">
      <path class="st1" d="M917.87,1520.73c0,2.06-.11,4.1-.31,6.11-1.01-1.94-2.16-3.79-3.46-5.52,0-.2.01-.39.01-.59,0-19.7-9.89-37.09-24.97-47.5-4.34,9.81-18.26,16.84-24.82,20.21,2.19,2.95,3.11,4.77,3.11,6.65,0,4.52-2.66,7.34-7.04,7.34-3.92,0-9.32-5.78-12.1-5.78-1.9,0-4.13,1.67-4.13,3.57,0,3,7.1,9.07,11.28,10.32-7.18,6.47-12.02,15.49-13.04,25.59-.69-.51-1.39-1.03-2.16-1.61-3.23-2.41-4.75-5.07-4.75-8.21,0-3.46,1.93-6.3,1.93-8.33,0-1.61-1.69-2.67-4.16-4.89l-9.95-8.74c-9.2-8.17-13.29-16.41-12.41-24.04-7.62,9.78-12.18,22.07-12.18,35.42,0,31.85,25.84,57.7,57.69,57.7,1.25,0,2.49-.05,3.72-.13,1.82,1.2,3.74,2.25,5.75,3.14-3.09.48-6.25.74-9.47.74-33.92,0-61.44-27.52-61.44-61.44s27.53-61.44,61.44-61.44,61.45,27.52,61.45,61.44ZM884.06,1573.81c14.66,0,26.71-11.91,26.71-26.63s-12.05-26.78-26.71-26.78-26.7,12.13-26.7,26.78,12.06,26.63,26.7,26.63ZM884.14,1569.85c-12.47,0-22.75-10.27-22.75-22.74s10.28-22.74,22.75-22.74,22.66,10.2,22.66,22.74-10.12,22.74-22.66,22.74ZM923.62,1589.95c1.74,0,2.73-1.14,2.73-2.62,0-1.04-.44-1.57-1.15-2.27l-22.21-22.43-4.03,3.79,22.15,22.36c.81.81,1.48,1.17,2.5,1.17Z"/>
    </g>
    <g id="Ultralight-L">
      <path class="st1" d="M560.92,1547.15c0-14.51,11.94-26.53,26.45-26.53s26.45,12.03,26.45,26.53-11.95,26.37-26.45,26.37-26.45-11.77-26.45-26.37ZM611.01,1547.07c0-13.04-10.51-23.63-23.55-23.63s-23.63,10.58-23.63,23.63,10.67,23.63,23.63,23.63,23.55-10.67,23.55-23.63ZM625.57,1588.97l-22.34-22.6,3.03-2.91,22.44,22.69c.61.61.99.95.99,1.87,0,1.06-.71,1.93-2.12,1.93-.81,0-1.32-.3-2-.98ZM559.71,1459.91c-33.58,0-60.82,27.25-60.82,60.82s27.24,60.82,60.82,60.82c3.69,0,7.29-.34,10.8-.97-1.47-.61-2.89-1.32-4.26-2.1-2.15.24-4.33.38-6.54.38-32.09,0-58.14-26.04-58.14-58.14,0-13.52,4.64-25.96,12.39-35.83-.91,7.82,3.07,16.24,12.36,24.52l10.11,8.9c2.38,2.14,4.07,3.18,4.07,4.79,0,1.88-1.68,4.92-1.68,8.38,0,3.13,1.53,5.79,4.74,8.2,1.2.9,2.29,1.72,3.31,2.46.8-10.41,5.76-19.69,13.23-26.18-3.81-.04-12.84-7.26-12.84-10.64,0-1.94,2.39-3.77,4.33-3.77,2.71,0,8.22,5.92,11.92,5.92,4.45,0,7.22-2.81,7.22-7.43,0-1.83-.87-3.57-3.15-6.56,6.58-3.42,20.76-10.54,25.12-20.61,15.18,10.49,25.14,28.01,25.14,47.85,0,1.1-.04,2.18-.1,3.26.86,1.31,1.64,2.67,2.34,4.08.29-2.41.45-4.85.45-7.34,0-33.57-27.24-60.82-60.82-60.82Z"/>
    </g>
    <g id="Black-M">
      <path class="st1" d="M2929.73,1110.65c0-12.37,10.25-22.61,22.61-22.61s22.61,10.24,22.61,22.61-10.18,22.61-22.61,22.61-22.61-10.19-22.61-22.61ZM2964.03,1110.65c0-6.5-5.19-11.69-11.69-11.69s-11.76,5.2-11.76,11.69,5.31,11.69,11.76,11.69,11.69-5.14,11.69-11.69ZM2971.31,1140.67l-13.18-13.06,10.75-10.63,13.05,13.12c1.56,1.51,2.19,3.39,2.19,5.27,0,4.25-3.2,7.51-7.43,7.51-1.97,0-3.85-.73-5.38-2.21ZM2933.4,1037.42c-29.45,0-53.32,23.87-53.32,53.32s23.87,53.32,53.32,53.32c4.8,0,9.46-.64,13.88-1.83-8.22-1.25-15.45-5.65-20.41-11.92-19.02-3.13-33.58-19.67-33.58-39.57,0-8.76,2.83-16.87,7.61-23.47.32,4.06,2.38,7.65,8.08,12.6l6.87,5.93c2.31,2,3.62,2.99,3.62,4.24,0,2.19-2.56,3.38-2.56,6.06,0,2.44,1.13,4.43,3.62,6.3.12.09.22.17.34.25,1.9-7.58,6.52-14.12,12.74-18.52-.2.03-.4.05-.6.05-2.68,0-8.61-5.31-8.61-7.62,0-1.31.99-1.93,2.24-1.93,2.37,0,6.05,3.57,9.99,3.57,3.06,0,4.38-1.67,4.38-4.21,0-2.14-.99-4.11-2.01-6.18,4.39-2.13,12.42-5.43,16.47-10.55,9.66,6.4,16.4,16.85,17.76,28.92,6,5.25,10.05,12.67,10.88,20.99,1.68-5.18,2.59-10.71,2.59-16.45,0-29.45-23.87-53.32-53.32-53.32Z"/>
    </g>
    <g id="Heavy-M">
      <path class="st1" d="M2689.18,1090.74c0,5.92-.99,11.61-2.8,16.92-.61-7.57-3.92-14.41-8.97-19.55-.83-13.03-7.8-24.41-18.04-31.28-3.95,5.48-12.4,9.18-16.93,11.38,1.11,2.08,2.08,3.99,2.08,6.01,0,2.68-1.4,4.48-4.49,4.48-3.91,0-7.62-3.67-9.99-3.67-1.27,0-2.3.65-2.3,1.97,0,2.34,5.94,7.64,8.66,7.69-6.07,4.42-10.53,10.94-12.27,18.46-.08-.06-.15-.11-.23-.17-2.51-1.87-3.65-3.88-3.65-6.33,0-2.68,2.51-3.94,2.51-6.11,0-1.25-1.31-2.22-3.6-4.22l-6.94-6c-5.93-5.14-8.38-9.16-8.6-13.47-4.87,6.73-7.75,14.98-7.75,23.91,0,20.72,15.49,37.87,35.51,40.48,4.82,5.38,11.43,9.12,18.86,10.23-4.33,1.15-8.87,1.78-13.56,1.78-28.98,0-52.48-23.49-52.48-52.48s23.51-52.48,52.48-52.48,52.5,23.49,52.5,52.48ZM2655.14,1132.82c12.3,0,22.37-10.06,22.37-22.35s-10.07-22.37-22.37-22.37-22.36,10.13-22.36,22.37,10.13,22.35,22.36,22.35ZM2655.16,1122.82c-6.8,0-12.42-5.47-12.42-12.36s5.62-12.36,12.42-12.36,12.34,5.51,12.34,12.36-5.5,12.36-12.34,12.36ZM2680.46,1142.88c3.82,0,6.68-2.92,6.68-6.78,0-1.72-.61-3.42-2.01-4.77l-13.84-13.91-9.77,9.54,13.96,13.86c1.42,1.38,3.12,2.06,4.98,2.06Z"/>
    </g>
    <g id="Bold-M">
      <path class="st1" d="M2335.81,1110.27c0-12.11,10-22.11,22.08-22.11s22.1,9.97,22.1,22.11-9.94,22.07-22.1,22.07-22.08-9.96-22.08-22.07ZM2370.98,1110.26c0-7.23-5.84-13.1-13.06-13.1s-13.15,5.9-13.15,13.1,5.96,13.1,13.15,13.1,13.06-5.85,13.06-13.1ZM2379.74,1141l-14.83-14.76,8.68-8.32,14.72,14.79c1.21,1.18,1.81,2.67,1.81,4.21,0,3.42-2.48,5.97-5.84,5.97-1.74,0-3.24-.62-4.54-1.9ZM2339.96,1039.19c-28.45,0-51.55,23.07-51.55,51.55s23.1,51.55,51.55,51.55c4.57,0,9-.6,13.21-1.72-6.52-.96-12.4-3.98-16.96-8.37-21.22-1.9-37.86-19.75-37.86-41.46,0-9.12,2.95-17.56,7.93-24.42.06,4.59,2.98,9.11,9.17,14.47l7.02,6.08c2.27,2,3.58,2.95,3.58,4.2,0,2.15-2.46,3.49-2.46,6.17,0,2.46,1.16,4.49,3.68,6.36.04.03.07.05.11.08,1.58-7.52,5.93-14.06,11.91-18.5-2.92-.63-8.21-5.47-8.21-7.7,0-1.32,1.06-2.01,2.36-2.01,2.38,0,6.13,3.78,10,3.78,3.11,0,4.6-1.95,4.6-4.79,0-1.89-.94-3.72-2.14-5.82,4.7-2.27,13.63-6.45,17.42-12.33,10.96,7.45,18.19,19.98,18.28,34.19,4,4.89,6.53,11.02,6.92,17.7,1.96-5.44,3.02-11.31,3.02-17.43,0-28.48-23.1-51.55-51.57-51.55Z"/>
    </g>
    <g id="Semibold-M">
      <path class="st1" d="M2094.18,1090.74c0,6.26-1.13,12.25-3.2,17.79-.25-6.03-2.29-11.62-5.58-16.26.02-.51.03-1.02.03-1.53,0-14.46-7.3-27.23-18.41-34.84-3.66,6.15-12.92,10.68-17.73,13,1.27,2.12,2.19,3.9,2.19,5.7,0,2.95-1.55,5-4.68,5-3.85,0-7.63-3.85-10-3.85-1.31,0-2.4.71-2.4,2.04,0,2.18,4.97,6.78,7.96,7.66-5.96,4.46-10.24,11.04-11.71,18.59-.01-.01-.03-.02-.04-.03-2.53-1.87-3.69-3.91-3.69-6.37,0-2.68,2.42-4.06,2.42-6.2,0-1.25-1.31-2.18-3.56-4.18l-7.07-6.14c-6.37-5.51-9.62-10.4-9.55-15.17-5.07,6.96-8.06,15.53-8.06,24.79,0,22.42,17.52,40.78,39.6,42.11,4.31,3.72,9.66,6.27,15.53,7.12-4.14,1.09-8.49,1.67-12.98,1.67-28.09,0-50.9-22.78-50.9-50.9s22.82-50.9,50.9-50.9,50.94,22.78,50.94,50.9ZM2060.8,1132c12.07,0,21.92-9.84,21.92-21.87s-9.85-21.93-21.92-21.93-21.88,9.91-21.88,21.93,9.91,21.87,21.88,21.87ZM2060.84,1123.73c-7.46,0-13.66-6.11-13.66-13.61s6.2-13.61,13.66-13.61,13.56,6.12,13.56,13.61-6.07,13.61-13.56,13.61ZM2087.93,1142.91c3.04,0,5.26-2.29,5.26-5.41,0-1.43-.59-2.77-1.67-3.83l-15.33-15.41-7.92,7.48,15.43,15.38c1.22,1.2,2.57,1.78,4.23,1.78Z"/>
    </g>
    <g id="Medium-M">
      <path class="st1" d="M1742.06,1110.02c0-11.94,9.84-21.79,21.74-21.79s21.78,9.8,21.78,21.79-9.78,21.73-21.78,21.73-21.74-9.81-21.74-21.73ZM1777.79,1110.01c0-7.69-6.25-13.99-13.94-13.99s-14.05,6.35-14.05,13.99,6.38,13.99,14.05,13.99,13.94-6.3,13.94-13.99ZM1787.49,1141.22l-15.89-15.85,7.35-6.84,15.79,15.87c.99.98,1.57,2.21,1.57,3.54,0,2.89-2.02,4.98-4.81,4.98-1.6,0-2.84-.55-4-1.7ZM1746.53,1040.33c-27.81,0-50.41,22.56-50.41,50.41s22.6,50.41,50.41,50.41c4.42,0,8.7-.57,12.79-1.64-5.37-.77-10.29-2.97-14.38-6.2-22.77-.84-40.98-19.6-40.98-42.57,0-9.37,3.04-18.04,8.17-25.08-.19,4.91,3.32,10.08,9.83,15.71l7.11,6.18c2.24,1.99,3.55,2.92,3.55,4.17,0,2.13-2.39,3.55-2.39,6.23,0,2.47,1.17,4.51,3.69,6.37,1.39-7.57,5.62-14.17,11.57-18.65-3.02-1.05-7.77-5.49-7.77-7.63,0-1.33,1.11-2.06,2.43-2.06,2.38,0,6.17,3.91,10,3.91,3.15,0,4.74-2.13,4.74-5.16,0-1.73-.91-3.46-2.23-5.6,4.89-2.36,14.4-7.16,17.95-13.51,11.18,7.69,18.52,20.56,18.52,35.13,0,1-.04,2-.11,2.98,2.78,4.4,4.44,9.57,4.6,15.1,2.16-5.61,3.35-11.71,3.35-18.08,0-27.85-22.6-50.41-50.46-50.41Z"/>
    </g>
    <g id="Regular-M">
      <path class="st1" d="M1466.76,1131.42c11.9,0,21.6-9.68,21.6-21.53s-9.7-21.61-21.6-21.61-21.54,9.76-21.54,21.61,9.75,21.53,21.54,21.53ZM1466.82,1124.37c-7.94,0-14.55-6.56-14.55-14.5s6.61-14.5,14.55-14.5,14.43,6.55,14.43,14.5-6.48,14.5-14.43,14.5ZM1495.18,1142.93c2.48,0,4.24-1.83,4.24-4.43,0-1.21-.57-2.3-1.43-3.16l-16.39-16.47-6.6,6.01,16.48,16.46c1.08,1.08,2.19,1.59,3.7,1.59ZM1499.64,1090.74c0,5.44-.88,10.67-2.49,15.56-.45-4.69-1.95-9.08-4.26-12.93.05-.87.08-1.75.08-2.63,0-15.09-7.78-28.38-19.53-36.1.22.28.43.56.62.85-3.27,6.72-13.33,11.99-18.39,14.43,1.38,2.15,2.27,3.83,2.27,5.47,0,2.06-.73,3.72-2.11,4.62-.58.21-1.15.42-1.71.66-.32.05-.65.09-1,.09-3.81,0-7.63-3.98-10.01-3.98-1.34,0-2.47.75-2.47,2.09,0,1.69,2.94,4.8,5.67,6.58-5.59,4.66-9.52,11.23-10.77,18.68-1.61-1.56-2.39-3.28-2.39-5.27,0-2.68,2.35-4.16,2.35-6.27,0-1.25-1.31-2.16-3.54-4.15l-7.17-6.23c-6.68-5.76-10.53-11.3-10.2-16.36-4.98,7.04-7.91,15.62-7.91,24.89,0,22.97,17.95,41.77,40.58,43.08,3.54,2.74,7.68,4.73,12.18,5.75-3.13.61-6.35.94-9.66.94-27.45,0-49.77-22.27-49.77-49.77s22.32-49.77,49.77-49.77,49.82,22.27,49.82,49.77Z"/>
    </g>
    <g id="Light-M">
      <path class="st1" d="M1148.82,1109.85c0-11.66,9.6-21.28,21.22-21.28s21.25,9.59,21.25,21.28-9.56,21.19-21.25,21.19-21.22-9.54-21.22-21.19ZM1185.72,1109.82c0-8.62-7-15.68-15.62-15.68s-15.71,7.09-15.71,15.68,7.12,15.68,15.71,15.68,15.62-7.09,15.62-15.68ZM1196.28,1141.6l-16.74-16.79,5.28-4.85,16.7,16.81c.74.74,1.23,1.57,1.23,2.63,0,2.04-1.39,3.52-3.44,3.52-1.24,0-2.13-.42-3.03-1.33ZM1153.11,1041.79c-27.01,0-48.95,21.91-48.95,48.95s21.95,48.95,48.95,48.95c3.92,0,7.74-.46,11.39-1.33-3.74-.64-7.25-1.98-10.39-3.9-.34,0-.67.02-1.01.02-24.14,0-43.71-19.6-43.71-43.74,0-9.88,3.28-19,8.82-26.33-.54,5.43,3,11.35,9.9,17.38l7.37,6.44c2.11,1.89,3.42,2.77,3.42,4.02,0,1.91-2.03,3.66-2.03,6.34,0,2.34,1.08,4.3,3.34,6.1,1.18-7.57,5.27-14.21,11.08-18.75-3.1-1.49-7.24-5.41-7.24-7.42,0-1.39,1.36-2.35,2.75-2.35,2.29,0,6.25,4.17,9.77,4.17,3.25,0,5.06-2.22,5.06-5.49,0-1.57-.82-3.15-2.33-5.35,5.02-2.48,15.23-7.76,18.59-14.76,11.44,7.89,18.95,21.09,18.95,36.02,0,2.11-.16,4.18-.45,6.21,1.52,3.32,2.46,6.96,2.65,10.8,1.96-5.3,3.04-11.03,3.04-17.01,0-27.04-21.95-48.95-48.99-48.95Z"/>
    </g>
    <g id="Thin-M">
      <path class="st1" d="M900.46,1109.51c0-.11.01-.22.01-.33,0-2.51-.34-4.94-.98-7.25.93-3.58,1.43-7.32,1.43-11.19,0-15.2-7.64-28.63-19.28-36.66-3.35,7.49-14.02,12.91-19.09,15.49,1.66,2.27,2.39,3.71,2.39,5.19,0,3.46-2.01,5.65-5.38,5.65-3.13,0-7.27-4.42-9.45-4.42-1.46,0-3.11,1.23-3.11,2.69,0,2.54,6.56,7.95,9.53,8.13-6.18,4.5-10.44,11.48-11.29,19.44-.44-.32-.89-.66-1.37-1.02-2.5-1.87-3.69-3.93-3.69-6.37,0-2.68,1.6-4.79,1.6-6.43,0-1.25-1.31-2.08-3.26-3.83l-7.64-6.71c-7.09-6.27-10.32-12.58-9.66-18.4-5.84,7.53-9.33,16.98-9.33,27.24,0,24.57,19.93,44.51,44.5,44.51,2.11,0,4.19-.16,6.22-.44,2.35.93,4.85,1.55,7.46,1.81-4.33,1.29-8.93,1.99-13.68,1.99-26.42,0-47.87-21.44-47.87-47.87s21.45-47.87,47.87-47.87,47.88,21.44,47.88,47.87c0,6.66-1.37,13.01-3.83,18.77ZM873.38,1130.54c11.42,0,20.8-9.28,20.8-20.74s-9.38-20.85-20.8-20.85-20.79,9.44-20.79,20.85,9.39,20.74,20.79,20.74ZM873.44,1127c-9.45,0-17.25-7.79-17.25-17.24s7.8-17.24,17.25-17.24,17.18,7.74,17.18,17.24-7.68,17.24-17.18,17.24ZM903.75,1142.93c1.48,0,2.37-1,2.37-2.32,0-.86-.37-1.35-.95-1.93l-17.11-17.27-3.54,3.31,17.08,17.22c.68.68,1.27.99,2.15.99Z"/>
    </g>
    <g id="Ultralight-M">
      <path class="st1" d="M556.12,1109.78c0-11.28,9.29-20.63,20.57-20.63s20.57,9.35,20.57,20.63-9.29,20.51-20.57,20.51-20.57-9.16-20.57-20.51ZM594.73,1109.72c0-9.95-8.02-18.04-17.98-18.04s-18.04,8.09-18.04,18.04,8.15,18.04,18.04,18.04,17.98-8.15,17.98-18.04ZM605.93,1142.11l-17.25-17.44,2.65-2.52,17.31,17.5c.5.5.82.82.82,1.57,0,.95-.63,1.7-1.83,1.7-.69,0-1.13-.25-1.7-.82ZM559.71,1043.43c-26.12,0-47.31,21.19-47.31,47.31s21.19,47.31,47.31,47.31c4.33,0,8.53-.59,12.51-1.68-1.89-.24-3.73-.67-5.48-1.27-2.29.36-4.64.56-7.03.56-24.79,0-44.91-20.12-44.91-44.91,0-10.43,3.57-20.02,9.54-27.65-.7,6,2.41,12.47,9.58,18.86l7.78,6.85c1.87,1.68,3.18,2.5,3.18,3.74,0,1.5-1.38,3.8-1.38,6.48,0,2.43,1.18,4.49,3.68,6.36.29.22.55.41.83.62.8-7.8,4.85-14.67,10.77-19.24-3.29-1.09-8.66-5.69-8.66-7.98,0-1.49,1.8-2.86,3.3-2.86,2.12,0,6.35,4.54,9.29,4.54,3.42,0,5.54-2.18,5.54-5.73,0-1.43-.69-2.81-2.43-5.11,5.09-2.63,16-8.12,19.37-15.85,11.73,8.1,19.43,21.64,19.43,36.97,0,4.14-.57,8.15-1.62,11.97.4,1.78.63,3.63.68,5.52,2.16-5.41,3.35-11.31,3.35-17.49,0-26.12-21.19-47.31-47.31-47.31Z"/>
    </g>
    <g id="Black-S">
      <path class="st1" d="M2975.39,660.75c0,8.1-2.3,15.67-6.27,22.09l-1.66-1.66c.49-2,.78-4.05.78-6.15,0-4.64-1.34-9-3.65-12.69.03-.53.05-1.05.05-1.58,0-10.91-5.62-20.52-14.11-26.11-3.2,3.91-9.39,6.39-12.79,8.05.78,1.61,1.56,3.17,1.56,4.88,0,1.95-1.03,3.22-3.42,3.22-3.08,0-5.96-2.78-7.81-2.78-.98,0-1.76.49-1.76,1.51,0,1.35,2.59,4,4.77,5.26-4.59,2.98-8.13,7.48-9.88,12.76-.51-.84-.75-1.74-.75-2.74,0-2.1,2-3.03,2-4.74,0-.98-1.03-1.76-2.83-3.32l-5.37-4.64c-4.41-3.84-5.91-6.56-6.16-9.68-3.74,5.15-5.95,11.48-5.95,18.32,0,14.77,10.3,27.17,24.09,30.41,4.43,4.9,10.82,7.98,17.88,7.98,1.9,0,3.76-.24,5.57-.63l.66.65c-5.19,2.29-10.91,3.58-16.95,3.58-23.19,0-41.99-18.8-41.99-41.99s18.8-41.99,41.99-41.99,41.99,18.8,41.99,41.99ZM2944.12,692.8c9.77,0,17.77-8.01,17.77-17.77s-8.01-17.77-17.77-17.77-17.77,8.06-17.77,17.77,8.06,17.77,17.77,17.77ZM2944.12,684.06c-4.98,0-9.08-3.96-9.08-9.03s4.1-9.03,9.08-9.03,9.03,4,9.03,9.03-4,9.03-9.03,9.03ZM2962.97,700.22c3.42,0,6.01-2.64,6.01-6.05,0-1.51-.49-3.03-1.76-4.25l-10.01-10.06-8.64,8.59,10.11,10.01c1.22,1.17,2.74,1.76,4.3,1.76Z"/>
    </g>
    <g id="Heavy-S">
      <path class="st1" d="M2678.08,660.75c0,8.42-2.52,16.24-6.83,22.78l-2.17-2.17c.58-2.03.92-4.16.92-6.34,0-3.25-.69-6.34-1.93-9.15.27-1.67.42-3.38.42-5.12,0-11.02-5.63-20.74-14.16-26.44-3.12,4.19-9.62,6.98-13.14,8.69.84,1.62,1.61,3.14,1.61,4.76,0,2.06-1.07,3.44-3.48,3.44-3.09,0-5.98-2.84-7.85-2.84-.99,0-1.77.49-1.77,1.51,0,1.53,3.26,4.69,5.56,5.69-4.83,2.98-8.49,7.7-10.08,13.26-.93-1.08-1.37-2.25-1.37-3.58,0-2.1,2-3.05,2-4.77,0-.98-1.03-1.75-2.83-3.32l-5.41-4.67c-4.58-3.97-6.43-6.98-6.65-10.28-3.77,5.23-6,11.64-6,18.57,0,15.99,11.85,29.25,27.23,31.46,4.03,3.52,9.28,5.67,15,5.67,1.99,0,3.92-.29,5.78-.76l1.18,1.17c-5.29,2.46-11.19,3.85-17.41,3.85-22.85,0-41.38-18.52-41.38-41.38s18.53-41.38,41.38-41.38,41.39,18.52,41.39,41.38ZM2646.99,692.47c9.68,0,17.61-7.93,17.61-17.6s-7.93-17.61-17.61-17.61-17.6,7.98-17.6,17.61,7.98,17.6,17.6,17.6ZM2647,684.32c-5.2,0-9.5-4.17-9.5-9.45s4.3-9.45,9.5-9.45,9.44,4.21,9.44,9.45-4.2,9.45-9.44,9.45ZM2666.55,700.23c3.12,0,5.46-2.39,5.46-5.55,0-1.4-.49-2.79-1.63-3.89l-10.64-10.69-7.97,7.81,10.74,10.66c1.15,1.11,2.54,1.67,4.04,1.67Z"/>
    </g>
    <g id="Bold-S">
      <path class="st1" d="M2380.69,660.75c0,8.6-2.67,16.58-7.23,23.15l-2.26-2.26c.7-2.13,1.09-4.41,1.09-6.75,0-2.16-.33-4.25-.91-6.22.64-2.53.98-5.18.98-7.91,0-11.15-5.65-20.99-14.24-26.82-3,4.48-9.86,7.66-13.52,9.42.9,1.64,1.66,3.1,1.66,4.61,0,2.17-1.12,3.69-3.54,3.69-3.1,0-6.01-2.91-7.89-2.91-1,0-1.78.49-1.78,1.51,0,1.5,3.08,4.55,5.38,5.65-4.85,2.97-8.49,7.75-9.97,13.36-.9-1.07-1.34-2.23-1.34-3.55,0-2.1,2-3.08,2-4.81,0-.98-1.03-1.73-2.83-3.32l-5.44-4.71c-4.76-4.11-7.04-7.48-7.19-10.97-3.81,5.32-6.07,11.83-6.07,18.86,0,16.91,12.98,30.82,29.52,32.26,3.65,2.62,8.11,4.16,12.91,4.16,2.16,0,4.22-.35,6.19-.93l1.24,1.24c-5.3,2.53-11.23,3.96-17.49,3.96-22.46,0-40.7-18.21-40.7-40.7s18.24-40.7,40.7-40.7,40.72,18.21,40.72,40.7ZM2349.8,692.11c9.59,0,17.43-7.84,17.43-17.41s-7.84-17.43-17.43-17.43-17.41,7.89-17.41,17.43,7.89,17.41,17.41,17.41ZM2349.83,684.62c-5.44,0-9.96-4.42-9.96-9.91s4.52-9.91,9.96-9.91,9.89,4.44,9.89,9.91-4.42,9.91-9.89,9.91ZM2370.16,700.24c2.78,0,4.86-2.12,4.86-4.98,0-1.27-.49-2.51-1.49-3.49l-11.35-11.4-7.23,6.93,11.45,11.38c1.07,1.05,2.32,1.56,3.76,1.56Z"/>
    </g>
    <g id="Semibold-S">
      <path class="st1" d="M2035.49,674.59c0-9.48,7.82-17.31,17.27-17.31s17.31,7.79,17.31,17.31-7.78,17.27-17.31,17.27-17.27-7.81-17.27-17.27ZM2063,674.59c0-5.63-4.57-10.23-10.2-10.23s-10.28,4.64-10.28,10.23,4.67,10.23,10.28,10.23,10.2-4.59,10.2-10.23ZM2070.11,698.76l-11.94-11.87,6.71-6.33,11.84,11.89c.9.89,1.39,2.04,1.39,3.22,0,2.65-1.89,4.59-4.44,4.59-1.4,0-2.54-.49-3.57-1.49ZM2043.25,620.52c-22.19,0-40.23,18-40.23,40.23s18.03,40.23,40.23,40.23c6.26,0,12.18-1.44,17.47-3.99l-1.2-1.2c-2.06.66-4.24,1.05-6.52,1.05-4.24,0-8.21-1.22-11.58-3.32-17.25-.96-30.94-15.28-30.94-32.76,0-7.11,2.27-13.69,6.12-19.06.06,3.61,2.67,7.25,7.56,11.45l5.47,4.74c1.81,1.6,2.83,2.34,2.83,3.32,0,1.74-2,2.74-2,4.84,0,1.24.38,2.34,1.17,3.35,1.43-5.61,5.03-10.39,9.85-13.36-2.26-1.22-5.06-4.06-5.06-5.5,0-1.03.78-1.51,1.79-1.51,1.89,0,4.8,2.95,7.91,2.95,2.43,0,3.58-1.6,3.58-3.86,0-1.44-.75-2.87-1.7-4.52,3.74-1.79,10.85-5.26,13.75-9.93,8.64,5.91,14.32,15.85,14.32,27.09,0,3.38-.52,6.64-1.47,9.7.28,1.4.43,2.84.43,4.32,0,2.47-.44,4.86-1.22,7.08l2.23,2.23c4.7-6.58,7.47-14.63,7.47-23.33,0-22.23-18.03-40.23-40.26-40.23Z"/>
    </g>
    <g id="Medium-S">
      <path class="st1" d="M1738.64,674.5c0-9.44,7.78-17.21,17.17-17.21s17.21,7.74,17.21,17.21-7.73,17.17-17.21,17.17-17.17-7.77-17.17-17.17ZM1766.28,674.5c0-5.75-4.68-10.47-10.43-10.47s-10.52,4.76-10.52,10.47,4.78,10.47,10.52,10.47,10.43-4.72,10.43-10.47ZM1773.72,698.82l-12.31-12.25,6.32-5.87,12.21,12.26c.83.82,1.32,1.89,1.32,3.01,0,2.5-1.75,4.29-4.12,4.29-1.36,0-2.43-.47-3.42-1.44ZM1746.54,620.88c-21.99,0-39.87,17.84-39.87,39.87s17.88,39.87,39.87,39.87c6.26,0,12.18-1.46,17.45-4.03l-1.16-1.16c-2.13.71-4.39,1.14-6.77,1.14-3.79,0-7.38-.99-10.5-2.71-17.82-.52-32.11-15.16-32.11-33.11,0-7.16,2.28-13.8,6.15-19.22-.02,3.69,2.85,7.54,7.84,11.82l5.49,4.76c1.81,1.6,2.83,2.34,2.83,3.32,0,1.75-2,2.76-2,4.86,0,1.18.34,2.22,1.05,3.2,1.39-5.61,4.96-10.39,9.76-13.37-2.22-1.29-4.83-3.99-4.83-5.39,0-1.03.78-1.51,1.8-1.51,1.9,0,4.82,2.98,7.93,2.98,2.43,0,3.62-1.67,3.62-3.98,0-1.39-.74-2.79-1.72-4.44,3.81-1.82,11.11-5.51,13.92-10.32,8.68,5.98,14.38,15.98,14.38,27.3,0,3.91-.7,7.65-1.95,11.14.12.92.19,1.85.19,2.79,0,2.57-.47,5.05-1.31,7.33l2.2,2.2c4.81-6.58,7.65-14.69,7.65-23.46,0-22.03-17.88-39.87-39.91-39.87Z"/>
    </g>
    <g id="Regular-S">
      <path class="st1" d="M1441.74,674.39c0-9.38,7.71-17.09,17.04-17.09s17.09,7.67,17.09,17.09-7.67,17.04-17.09,17.04-17.04-7.71-17.04-17.04ZM1469.57,674.39c0-5.91-4.83-10.79-10.74-10.79s-10.84,4.93-10.84,10.79,4.93,10.79,10.84,10.79,10.74-4.88,10.74-10.79ZM1477.43,698.9l-12.79-12.74,5.81-5.27,12.69,12.74c.73.73,1.22,1.71,1.22,2.73,0,2.29-1.56,3.91-3.71,3.91-1.32,0-2.29-.44-3.22-1.37ZM1449.82,621.34c-21.73,0-39.4,17.63-39.4,39.4s17.68,39.4,39.4,39.4c6.26,0,12.18-1.46,17.44-4.05l-1.13-1.13c-2.23.79-4.59,1.25-7.1,1.25-3.17,0-6.18-.7-8.91-1.94-.11,0-.21,0-.31,0-18.51,0-33.5-15.04-33.5-33.54,0-7.24,2.3-13.95,6.21-19.44,0,.03,0,.07,0,.1-.1,3.76,3.12,7.86,8.2,12.21l5.52,4.79c1.81,1.61,2.83,2.34,2.83,3.32,0,1.76-2,2.78-2,4.88,0,1.08.3,2.06.89,2.97,1.34-5.6,4.88-10.38,9.66-13.36-2.15-1.36-4.54-3.88-4.54-5.24,0-1.03.78-1.51,1.81-1.51,1.9,0,4.83,3.03,7.96,3.03,2.44,0,3.66-1.76,3.66-4.15,0-1.32-.73-2.69-1.76-4.35,3.9-1.85,11.46-5.85,14.15-10.82,8.73,6.06,14.46,16.15,14.46,27.57,0,4.7-.97,9.17-2.72,13.24,0,.19.01.38.01.58,0,2.69-.51,5.29-1.44,7.65l2.17,2.17c4.95-6.58,7.89-14.76,7.89-23.64,0-21.78-17.68-39.4-39.45-39.4Z"/>
    </g>
    <g id="Light-S">
      <path class="st1" d="M1191.83,660.75c0,9.08-3.14,17.42-8.37,24.01l-1.71-1.71c1.08-2.21,1.74-4.67,1.92-7.26,2.24-4.54,3.51-9.64,3.51-15.04,0-11.62-5.84-21.89-14.74-28.04-2.64,5.34-10.51,9.43-14.43,11.35,1.13,1.71,1.8,2.98,1.8,4.24,0,2.51-1.36,4.26-3.87,4.26-2.87,0-5.92-3.19-7.75-3.19-1.07,0-2.05.67-2.05,1.74,0,1.3,2.22,3.65,4.35,5.07-4.67,3-8.11,7.74-9.41,13.28-.47-.82-.69-1.69-.69-2.65,0-2.1,1.71-3.37,1.71-4.94,0-.98-1.03-1.68-2.73-3.2l-5.7-4.97c-5.34-4.64-8.22-9.15-7.85-13.28-4.23,5.68-6.73,12.72-6.73,20.33,0,18.79,15.23,34.06,34.03,34.06.68,0,1.35-.03,2.02-.07,2.21.76,4.57,1.18,7.02,1.18,2.91,0,5.67-.64,8.2-1.74l.79.79c-5.39,2.84-11.51,4.46-18.02,4.46-21.33,0-38.68-17.31-38.68-38.68s17.34-38.68,38.68-38.68,38.71,17.31,38.71,38.68ZM1162.1,691.1c9.24,0,16.79-7.51,16.79-16.74s-7.54-16.8-16.79-16.8-16.75,7.59-16.75,16.8,7.58,16.74,16.75,16.74ZM1162.15,686.18c-6.48,0-11.87-5.35-11.87-11.84s5.39-11.84,11.87-11.84,11.79,5.34,11.79,11.84-5.29,11.84-11.79,11.84ZM1184.72,700.27c1.77,0,3-1.29,3-3.1,0-.89-.41-1.64-1.04-2.27l-12.97-13.05-4.64,4.24,13.02,13.03c.78.78,1.56,1.14,2.63,1.14Z"/>
    </g>
    <g id="Thin-S">
      <path class="st1" d="M894.15,660.75c0,9.37-3.43,17.94-9.09,24.54l-.89-.89c1.19-1.98,2.03-4.19,2.48-6.54,2.87-5.05,4.51-10.89,4.51-17.11,0-11.86-5.96-22.34-15.05-28.61-2.63,5.78-10.9,10-14.86,12,1.27,1.77,1.86,2.92,1.86,4.1,0,1.84-.74,3.21-2.04,3.9-.72.13-1.43.3-2.13.5-2.52-.02-5.72-3.41-7.45-3.41-1.13,0-2.37.91-2.37,2.04s1.62,2.95,3.45,4.37c-4.21,2.88-7.38,7.18-8.81,12.18-.03-.25-.05-.49-.05-.75,0-2.1,1.33-3.69,1.33-5.02,0-.98-1.03-1.64-2.59-3.04l-5.94-5.21c-5.52-4.88-8.1-9.75-7.6-14.25-4.53,5.87-7.23,13.22-7.23,21.2,0,19.17,15.55,34.74,34.73,34.74,1.26,0,2.5-.09,3.73-.22,1.57.35,3.2.55,4.87.55,3.6,0,7.03-.92,10.07-2.53l.15.15c-5.54,3.2-11.97,5.03-18.83,5.03-20.81,0-37.72-16.89-37.72-37.72s16.9-37.72,37.72-37.72,37.73,16.89,37.73,37.72ZM865.43,690.66c9,0,16.39-7.31,16.39-16.34s-7.38-16.42-16.39-16.42-16.37,7.43-16.37,16.42,7.4,16.34,16.37,16.34ZM865.48,687.5c-7.24,0-13.23-5.97-13.23-13.22s5.99-13.22,13.23-13.22,13.17,5.94,13.17,13.22-5.89,13.22-13.17,13.22ZM889.03,700.27c1.27,0,2.06-.87,2.06-2.04,0-.71-.31-1.16-.8-1.64l-13.33-13.45-3.1,2.88,13.32,13.41c.58.58,1.1.84,1.85.84Z"/>
    </g>
    <g id="Ultralight-S">
      <path class="st1" d="M596.94,660.75c0,9.66-3.69,18.46-9.73,25.08l-.97-.97c.68-1.04,1.24-2.15,1.71-3.31,4.3-5.82,6.84-13.02,6.84-20.8,0-11.98-6.02-22.56-15.19-28.89-2.64,5.99-11.12,10.27-15.1,12.32,1.34,1.8,1.89,2.89,1.89,4.03,0,2.76-1.63,4.47-4.3,4.47-2.35,0-5.65-3.53-7.32-3.53-1.16,0-2.53,1.03-2.53,2.19,0,1.27,2.1,3.45,4.24,4.92-4.5,3.04-7.79,7.75-8.95,13.23-.35-.72-.53-1.47-.53-2.29,0-2.1,1.14-3.85,1.14-5.06,0-.98-1.03-1.62-2.51-2.96l-6.06-5.33c-5.6-4.98-8.07-10.01-7.52-14.66-4.65,5.95-7.43,13.43-7.43,21.57,0,19.37,15.72,35.09,35.09,35.09,2.81,0,5.55-.34,8.17-.97.15,0,.29.02.44.02,0,0,0,0,0,0h.01s0,0,0,0c3.79,0,7.43-1.03,10.61-2.85l.36.36c-5.69,3.53-12.4,5.57-19.58,5.57-20.55,0-37.22-16.67-37.22-37.22s16.68-37.22,37.22-37.22,37.23,16.67,37.23,37.22ZM568.73,690.43c8.88,0,16.18-7.21,16.18-16.13s-7.3-16.23-16.18-16.23-16.18,7.35-16.18,16.23,7.31,16.13,16.18,16.13ZM568.78,688.17c-7.63,0-13.93-6.29-13.93-13.92s6.29-13.92,13.93-13.92,13.88,6.25,13.88,13.92-6.2,13.92-13.88,13.92ZM592.83,700.26c1.01,0,1.58-.66,1.58-1.5,0-.62-.26-.91-.67-1.33l-13.51-13.65-2.31,2.19,13.47,13.61c.47.47.86.69,1.45.69h-.01Z"/>
    </g>
  </g>
</svg>