<svg width="512" height="168" xmlns="http://www.w3.org/2000/svg"><g fill="none" fill-rule="evenodd"><path fill="#202124" d="M0 0h512v128H0z"/><path d="M256 89c-21.933-.023-40 17.22-41 39.13h82c-1-21.91-19.067-39.153-41-39.13z" fill="#292A2D" fill-rule="nonzero"/><path d="M97.76 72H103c0-10.83 2.9-19.34 8.63-25.3 9-9.37 22.15-9.41 22.28-9.41L134 32c-.62 0-15.32 0-25.84 10.91-6.79 6.99-10.4 16.78-10.4 29.09z" fill="#8AB4F8" fill-rule="nonzero"/><path d="M82.41 102.42A35.27 35.27 0 0 1 67 106.75V112a40.36 40.36 0 0 0 18-5c8.23-4.61 18-14.42 18-35h-5.24c0 14.48-5.16 24.71-15.35 30.42zm61.37-69.15v5.33h7.41a6.35 6.35 0 0 1-2.77 4.15 8.28 8.28 0 0 1-12.36-4.35 8.29 8.29 0 0 1 7.71-10.91 7.52 7.52 0 0 1 5.23 2.05l4-3.95a13.22 13.22 0 0 0-9.22-3.59 13.75 13.75 0 0 0-12.3 7.6 13.64 13.64 0 0 0 0 12.35 13.76 13.76 0 0 0 12.3 7.59 13.15 13.15 0 0 0 9.12-3.33 13.46 13.46 0 0 0 4.1-10.12 15.82 15.82 0 0 0-.25-2.82h-12.97zM433 109h18v-8.48a11 11 0 0 0-18 8.48z" fill="#3C4043" fill-rule="nonzero"/><path d="M491 59.49h-30.2a5.6 5.6 0 0 0-5.59 5.59v72.36a5.6 5.6 0 0 0 5.59 5.56H491a5.6 5.6 0 0 0 5.59-5.59V65.08a5.6 5.6 0 0 0-5.59-5.59zm4.89 77.95c0 2.7-2.19 4.89-4.89 4.89h-30.2a4.89 4.89 0 0 1-4.89-4.89V65.08c0-2.7 2.19-4.89 4.89-4.89H491c2.7 0 4.89 2.19 4.89 4.89v72.36z" fill="#5F6368" fill-rule="nonzero"/><path d="M418.43 92.8c6.1-10.92 17.06-16.46 32.56-16.46v-5.62c-22 0-32.53 10.52-37.46 19.34a43.35 43.35 0 0 0-5.36 19.27h5.62a37.88 37.88 0 0 1 4.64-16.53zM342 50.45a9.28 9.28 0 0 1-8.17-4.86l-9.38-16.21A21.84 21.84 0 0 0 321 40.92c-.07 10.325 7.375 19.169 17.56 20.86l7-11.94a10.66 10.66 0 0 1-3.56.61z" fill="#3C4043" fill-rule="nonzero"/><path d="M347.91 33.67a9.58 9.58 0 0 1 3.54 7.33 8.47 8.47 0 0 1-1.28 4.61L340.66 62h1.26a20.93 20.93 0 0 0 15.21-6.49h-2.81a8.64 8.64 0 0 1 7.82-8.6 20.8 20.8 0 0 0 .87-5.82 21.63 21.63 0 0 0-1.23-7.35l-13.87-.07z" fill="#3C4043" fill-rule="nonzero"/><path d="M342 31.55l18.69.07a20.52 20.52 0 0 0-13.78-11A50.49 50.49 0 0 0 341 .16V0h-6c.6.9 1.14 1.79 1.62 2.67A44.81 44.81 0 0 1 341.83 20a20.87 20.87 0 0 0-15.94 7.49l6.88 12a9.47 9.47 0 0 1 9.23-7.94z" fill="#3C4043" fill-rule="nonzero"/><circle fill="#3C4043" fill-rule="nonzero" transform="rotate(-89.77 342.003 40.997)" cx="342.003" cy="40.997" r="7.35"/><path d="M258.56 166.88A37.06 37.06 0 0 1 221.77 144H226v-8.48a11 11 0 0 0-6.86-2.51v-.48a37 37 0 0 1 34.36-39.47l-.07-1a38 38 0 0 0-35.29 40.53v.45A11 11 0 0 0 208 144h12.68c6.553 16.464 23.616 26.214 41.128 23.499 17.511-2.715 30.822-17.173 32.082-34.849l-1-.07c-1.3 18.39-15.94 33.016-34.33 34.3z" fill="#5F6368" fill-rule="nonzero"/><path d="M62.72 48.5H0v88.33h67.51V53.28a4.78 4.78 0 0 0-4.79-4.78z" fill="#202124" fill-rule="nonzero"/><path d="M68 53.28A5.3 5.3 0 0 0 62.72 48H0v1h62.72A4.28 4.28 0 0 1 67 53.28v83.06H0v1h68V53.28zM0 143.01h86v.99H0z" fill="#3C4043" fill-rule="nonzero"/><path d="M451.72 139.1V63.73a7.9 7.9 0 0 1 7.89-7.89h25.07v-.7h-25.06a8.6 8.6 0 0 0-8.6 8.59v75.37a8.6 8.6 0 0 0 8.6 8.59H472V147h-12.38a7.9 7.9 0 0 1-7.9-7.9zm43.5-83.55v.75a7.9 7.9 0 0 1 5.26 7.43v75.37a7.9 7.9 0 0 1-7.89 7.89H480.2v.7h12.39a8.6 8.6 0 0 0 8.6-8.59V63.73a8.61 8.61 0 0 0-5.97-8.18z" fill="#5F6368" fill-rule="nonzero"/><path d="M499.48 7.6c-11.6 11.7-11.6 28-11.59 28.74 0 .15 0 14.78-10 24.78-6.34 6.37-15.38 9.6-26.89 9.6v5.62c13.08 0 23.48-3.8 30.91-11.3 11.6-11.7 11.6-28 11.59-28.74 0-.15 0-14.78 10-24.78a29.73 29.73 0 0 1 8.5-5.94V0h-1.28a35.46 35.46 0 0 0-11.24 7.6z" fill="#81C995" fill-rule="nonzero"/><path d="M62.56 99.28a11.77 11.77 0 0 0-9.48 5 7.42 7.42 0 0 0-2.7-.52c-4.49 0-8.12 4-8.12 9h32.49c0-7.46-5.46-13.48-12.19-13.48z" fill="#292A2D" fill-rule="nonzero"/><path d="M68 70v.53a8.35 8.35 0 0 1 8.44 7.94H68V79h9v-.26A8.88 8.88 0 0 0 68 70zm98.5 11a2 2 0 0 1 2-2h4.72v-2a2.555 2.555 0 1 1 5.11 0v2h.49v-2a3.045 3.045 0 0 0-6.09 0v1.44h-4.23A2.48 2.48 0 0 0 166 81v4.5h.49l.01-4.5zm20.5 4.19h-1.43V81a2.49 2.49 0 0 0-2.57-2.52h-3.25V79H183a2 2 0 0 1 2 2v4.72h2a2.555 2.555 0 1 1 0 5.11h-2v.49h2a3.045 3.045 0 0 0 0-6.09v-.04zm-2 10.33a2 2 0 0 1-2 2h-4v-1.44a3.27 3.27 0 0 0-6.54 0V98h.54v-1.92a2.78 2.78 0 1 1 5.56 0V98H183a2.49 2.49 0 0 0 2.48-2.48v-3.26H185v3.26zm-18.51 0v-4h1.43a3.27 3.27 0 0 0 0-6.54h-.24v.49h.24a2.78 2.78 0 1 1 0 5.56H166v4.5a2.49 2.49 0 0 0 2.48 2.47h3v-.49h-3a2 2 0 0 1-1.99-1.99zM231.5 32.3v14.81h2.64V32.3h-2.64zm2.15 14.32H232V32.79h1.66l-.01 13.83z" fill="#5F6368" fill-rule="nonzero"/><path d="M234.61 28h-27.22a2.4 2.4 0 0 0-2.39 2.39v3.1h.49v-3.1c0-1.05.85-1.9 1.9-1.9h27.21a1.9 1.9 0 0 1 1.9 1.9V49a1.9 1.9 0 0 1-1.9 1.9h-27.21a1.9 1.9 0 0 1-1.9-1.9v-6.52l1.87 2.58 2.14-1.55-2.13-2.93 3.44-1.12-.81-2.51-3.43 1.11v-3.62H205v.49h1.07v3.8l3.61-1.17.51 1.57-3.62 1.17 2.24 3.08-1.34 1L205 41v8a2.4 2.4 0 0 0 2.39 2.39h27.21A2.4 2.4 0 0 0 237 49V30.39a2.4 2.4 0 0 0-2.39-2.39z" fill="#5F6368" fill-rule="nonzero"/><path d="M219.68 34.44v3.62l-3.43-1.11-.82 2.51 3.44 1.12-2.13 2.93 2.14 1.55 2.12-2.92 2.12 2.92 2.14-1.55-2.13-2.93 3.44-1.12-.82-2.51-3.43 1.11v-3.62h-2.64zm5.75 3.13l.51 1.57-3.61 1.17 2.24 3.08-1.34 1-2.23-3.08-2.23 3.06-1.34-1 2.24-3.08-3.62-1.17.51-1.57 3.61 1.17v-3.8h1.66v3.8l3.6-1.15zm70.82 32.29v3.75l-5.2-5.2 5.2-5.21v3.76h.5V62l-6.41 6.41 6.41 6.41v-4.96zm0 17.42h.5v-3.75l5.2 5.2-5.2 5.21v-3.75h-.5v4.95l6.41-6.41-6.41-6.41z" fill="#5F6368" fill-rule="nonzero"/><path d="M296.5 68.07v.5a10 10 0 0 1 8.62 15.08l.43.25a10.5 10.5 0 0 0-9-15.83h-.05zm0 20.5a10 10 0 0 1-8.62-15.08l-.43-.25a10.5 10.5 0 0 0 9 15.83l.05-.5zM47 31.7V20.58H23.49v-3a2.1 2.1 0 0 1 2.09-2.11H44.4a2.11 2.11 0 0 1 2.11 2.11v2H47v-2A2.6 2.6 0 0 0 44.4 15H25.6a2.59 2.59 0 0 0-2.6 2.6v3.48h23.51V31.7a2.11 2.11 0 0 1-2.11 2.11H25.6a2.11 2.11 0 0 1-2.11-2.11v-8h22.45v-.5H23v8.5a2.6 2.6 0 0 0 2.6 2.6h18.8a2.6 2.6 0 0 0 2.6-2.6zm307 69.85a4.78 4.78 0 1 0 4.78 4.78 4.79 4.79 0 0 0-4.78-4.78zm0 9.06a4.28 4.28 0 1 1 4.28-4.28 4.28 4.28 0 0 1-4.28 4.29v-.01z" fill="#5F6368" fill-rule="nonzero"/><path d="M365.9 102.27l-2.41-4.18a.88.88 0 0 0-1.05-.38l-2.88 1.16a9 9 0 0 0-1.85-1.07l-.43-3.06a.85.85 0 0 0-.85-.73h-4.84a.84.84 0 0 0-.84.73l-.43 3.06a9.33 9.33 0 0 0-1.85 1.07l-2.88-1.16a.85.85 0 0 0-1 .38l-2.42 4.19a.84.84 0 0 0 .22 1.09l2.44 1.9a7.56 7.56 0 0 0-.09 1.07 8 8 0 0 0 .07 1.07l-2.44 1.91a.88.88 0 0 0-.21 1.09l2.41 4.18a.87.87 0 0 0 1.05.38l2.88-1.16a9 9 0 0 0 1.85 1.07l.44 3.07a.87.87 0 0 0 .85.72h4.84a.83.83 0 0 0 .84-.73l.43-3.06a9.34 9.34 0 0 0 1.85-1.07l2.88 1.16a.85.85 0 0 0 1-.38l2.42-4.19a.84.84 0 0 0-.22-1.09l-2.41-1.91c.04-.355.06-.713.06-1.07a7.93 7.93 0 0 0-.07-1.07l2.44-1.91a.88.88 0 0 0 .2-1.08zm-.52.7l-2.67 2.09v.15c.06.377.09.758.09 1.14 0 .384-.024.768-.07 1.15v.14l2.64 2.09a.33.33 0 0 1 .08.44l-2.45 4.17a.34.34 0 0 1-.43.16l-3.14-1.26-.11.09a8.89 8.89 0 0 1-2 1.15l-.13.05-.47 3.36a.33.33 0 0 1-.34.29h-4.84a.36.36 0 0 1-.36-.3l-.47-3.34-.13-.06a8.58 8.58 0 0 1-2-1.15l-.11-.09-3.12 1.26a.36.36 0 0 1-.44-.16l-2.41-4.18a.37.37 0 0 1 .08-.45l2.67-2.09v-.15a7.4 7.4 0 0 1-.09-1.14 7.28 7.28 0 0 1 .1-1.14v-.15l-2.62-2.04a.33.33 0 0 1-.08-.44l2.44-4.23a.34.34 0 0 1 .43-.16l3.14 1.26.11-.09a8.9 8.9 0 0 1 2-1.15l.13-.05.47-3.34a.34.34 0 0 1 .34-.3h4.84a.35.35 0 0 1 .36.3l.47 3.35.13.05a8.58 8.58 0 0 1 2 1.15l.11.09 3.12-1.26a.36.36 0 0 1 .44.16l2.41 4.18a.37.37 0 0 1-.13.48l.01-.03zM62.56 99a12 12 0 0 0-9.56 5 7.64 7.64 0 0 0-2.62-.47c-4.62 0-8.38 4.14-8.38 9.24v.23h33v-.28C75 105.15 69.42 99 62.56 99zm11.93 13.44h-32c.13-4.66 3.61-8.4 7.87-8.4a7.19 7.19 0 0 1 2.62.5l.17.07.11-.15a11.5 11.5 0 0 1 9.28-4.9c6.52 0 11.81 5.75 11.95 12.88zm301.42-70.16a13.18 13.18 0 0 0-10.17 4.77A8.89 8.89 0 0 0 354 55.51v.27h35.1v-.27c-.005-7.289-5.901-13.202-13.19-13.23zm-21.33 13a8.35 8.35 0 0 1 11.15-7.61l.18.06.12-.15a12.69 12.69 0 0 1 22.56 7.7h-34.01zM441 33.51a2.5 2.5 0 1 0-2.5-2.5 2.51 2.51 0 0 0 2.5 2.5zm0-4.51a2 2 0 1 1 0 4 2 2 0 0 1 0-4z" fill="#5F6368" fill-rule="nonzero"/><path d="M441 38a7 7 0 0 0 6.53-4.49H452V38h5v-4.49h2v-5h-11.47A7 7 0 1 0 441 38zm0-13.48a6.48 6.48 0 0 1 6.11 4.32l.06.17h11.32v4h-2v4.49h-4V33h-5.3l-.06.17a6.48 6.48 0 1 1-6.13-8.65z" fill="#5F6368" fill-rule="nonzero"/><path d="M256 92v1c20.435 0 37 16.565 37 37h1c0-20.987-17.013-38-38-38z" fill="#FED563" fill-rule="nonzero"/><path d="M411.08 121a16.81 16.81 0 0 0-13.08 6.27 11.21 11.21 0 0 0-15 10.58h44.93c0-9.306-7.544-16.85-16.85-16.85z" fill="#292A2D" fill-rule="nonzero"/><path d="M411.08 121.7c8.637.013 15.74 6.811 16.13 15.44h-43.48a10.5 10.5 0 0 1 14-9.22l.47.17.31-.39a16.09 16.09 0 0 1 12.56-6h.01zm-.01-.7a16.81 16.81 0 0 0-13.07 6.27 11.21 11.21 0 0 0-15 10.58h44.93c0-9.306-7.544-16.85-16.85-16.85h-.01z" fill="#5F6368" fill-rule="nonzero"/></g></svg>