<svg width="678" height="180" viewBox="0 0 678 180" fill="none" xmlns="http://www.w3.org/2000/svg"><path d="M275.704 64.913c0 3.852-3.185 7.037-7.111 6.963-3.853 0-7.038-3.185-6.964-7.112.074-3.926 3.186-7.037 7.112-6.963 3.926.074 7.037 3.185 6.963 7.112z" stroke="#8AB4F8" stroke-width="2"/><path d="M483.646 86.322c2 0 3.704-1.63 3.704-3.63s-1.63-3.704-3.63-3.704-3.704 1.63-3.704 3.63c-.074 2.074 1.556 3.704 3.63 3.704z" fill="#FBBC04"/><path d="M367.637 59.648c6.519.074 11.926-5.185 11.926-11.778 0-6.593-5.185-11.927-11.778-11.927-6.519-.074-11.927 5.186-11.927 11.779s5.186 11.852 11.779 11.926z" fill="#4285F4"/><path d="m461.491 84.54 9.63-18.594c2.592-4.816.666-10.89-4.149-13.409-4.815-2.592-10.889-.666-13.408 4.149l-9.704 18.593c-2.593 4.816-.667 10.89 4.148 13.409 4.964 2.592 10.89.666 13.483-4.149z" stroke="#34A853" stroke-width="2"/><path d="m311.121 71.321-.004-.002-18.435-11.402c-1.273-.836-1.674-2.457-.874-3.737l.002-.004 11.402-18.435c.836-1.273 2.457-1.674 3.737-.874l.004.003 18.435 11.4c1.248.822 1.619 2.512.87 3.746l-.002.003-11.398 18.428c-.836 1.273-2.457 1.674-3.737.874z" stroke="#F0A3F8" stroke-width="2"/><path d="M330.298 40.543c.815-.815 2.222-.37 2.445.741l3.185 13.705c.296 1.11-.741 2.074-1.852 1.777l-13.482-4.074c-1.111-.296-1.408-1.704-.593-2.519l10.297-9.63z" fill="#5BB974"/><path d="m324.15 46.395 1.778 1.11c1.704 1.112 2.297 3.334 1.186 5.112l-1.038 1.704" stroke="#FDD663" stroke-width="2" stroke-miterlimit="10" stroke-linecap="round" stroke-linejoin="round"/><path d="M406.231 66.248c.815-.074 1.63-.222 2.371-.518l2.518-.519c2.223-.518 4.593-.074 6.519 1.186l2.445 1.555 1.111.667c.296.148.593.222.889.37 3.852 1.26 7.926-.889 9.186-4.74 1.259-3.853-.889-7.927-4.741-9.186l-.889-.223-1.26-.148-2.963-.148c-2.296-.074-4.444-1.111-6-2.815l-1.778-1.926c-.444-.667-1.037-1.26-1.63-1.778a9.988 9.988 0 0 0-4.593-2.296c-4.963-1.111-10.074 1.63-11.926 6.37-2.222 5.63.889 11.927 6.519 13.705 1.407.444 2.889.593 4.222.444z" stroke="#8AB4F8" stroke-width="2"/><path d="m516.488 156.568-25.483-12.519a6.08 6.08 0 0 1-2.815-8.148l32.742-66.819a6.08 6.08 0 0 1 8.149-2.815l25.483 12.52a6.08 6.08 0 0 1 2.815 8.148l-32.743 66.818a6.078 6.078 0 0 1-8.148 2.815z" stroke="#4285F4" stroke-width="2" stroke-linecap="round"/><path d="m517.53 153.17-24.594-12.001c-1.408-.667-2-2.444-1.334-3.852l30.817-62.966c.667-1.408 2.444-2 3.852-1.334l24.594 12.075c1.407.667 2 2.445 1.333 3.852l-30.816 62.892c-.667 1.482-2.371 2.075-3.852 1.334z" fill="#D2E3FC"/><path d="m537.448 73.632-.62 1.264 9.246 4.532.619-1.264-9.245-4.532zm-1.805-.106a.666.666 0 1 0-1.196-.587.666.666 0 0 0 1.196.587zm14.902 31.694-1.929-.945-5.51 11.241 1.929.945 5.51-11.241zm5.575-11.467-1.929-.946-3.195 6.519 1.929.945 3.195-6.518z" fill="#4285F4"/><path d="M516.634 138.052c3.482 1.704 7.704.296 9.408-3.186 1.704-3.481.296-7.704-3.185-9.407-3.482-1.704-7.704-.297-9.408 3.185-1.704 3.482-.297 7.704 3.185 9.408z" fill="#FBBC04"/><path d="m515.746 146.727-5.408-2.667c-1.481-.741-2.074-2.592-1.333-4 .74-1.482 2.592-2.074 4-1.333l5.408 2.666c1.481.741 2.074 2.593 1.333 4.001-.667 1.407-2.445 2.074-4 1.333z" fill="#4285F4"/><path d="M499.227 128.131c-1.556 4.519.148 9.63 4.148 12.297.667.445 1.556.222 1.852-.518l3.556-7.26c.296-.667.074-1.408-.593-1.704l-7.259-3.556c-.593-.37-1.482 0-1.704.741z" fill="#34A853"/><path d="m248.32 117.005-101.709 37.262c-1.334.518-2.889-.223-3.334-1.556l-23.853-64.818c-.518-1.334.222-2.89 1.556-3.334l101.709-37.261c1.333-.519 2.889.222 3.334 1.555l23.779 64.819c.592 1.333-.149 2.815-1.482 3.333z" stroke="#4285F4" stroke-width="2" stroke-linecap="round"/><path d="m222.533 52.028-98.277 36.029 22.514 61.414 98.277-36.028-22.514-61.415z" fill="#D2E3FC"/><path d="M172.98 69.522a.592.592 0 1 0 0-1.185.592.592 0 0 0 0 1.185z" fill="#4285F4"/><path d="m141.575 161.375 57.707-21.186 57.781-21.187" stroke="#4285F4" stroke-width="2" stroke-linecap="round"/><path d="M167.717 126.557c4.371-1.629 6.593-6.444 4.963-10.741-1.629-4.371-6.444-6.593-10.741-4.963-4.37 1.63-6.593 6.445-4.963 10.741 1.63 4.297 6.445 6.519 10.741 4.963z" fill="#FBBC04"/><path d="m174.461 134.339-6.741 2.519c-1.852.667-3.926-.296-4.593-2.148-.667-1.852.296-3.927 2.148-4.593l6.742-2.519c1.851-.667 3.926.296 4.592 2.148.667 1.852-.222 3.927-2.148 4.593z" fill="#4285F4"/><path d="M144.827 133.367c2.667 5.038 8.445 7.779 14.075 6.519.889-.222 1.407-1.185 1.111-2.074l-3.334-9.038c-.296-.814-1.185-1.185-2-.888l-9.037 3.333c-.815.296-1.26 1.333-.815 2.148z" fill="#34A853"/></svg>