<svg viewBox="0 0 328 68" fill="none" xmlns="http://www.w3.org/2000/svg"><path d="m41.306 63.052 53.619-14.437" stroke="#E8EAED" stroke-width="2" stroke-linecap="round" stroke-linejoin="round"/><path d="M80.459 13.388 36.304 25.276a1.304 1.304 0 0 0-.918 1.597l7.475 28.031a1.297 1.297 0 0 0 1.59.922l44.154-11.888a1.304 1.304 0 0 0 .918-1.597L82.048 14.31a1.297 1.297 0 0 0-1.59-.921Z" fill="#fff" stroke="#E8EAED" stroke-width="2" stroke-linecap="round" stroke-linejoin="round"/><path d="M235.629 19.627a5.782 5.782 0 0 0 .319-6.393 5.748 5.748 0 0 0-1.5-1.667l-9.202-6.873a5.725 5.725 0 0 0-4.262-1.09 5.714 5.714 0 0 0-3.776 2.264 5.784 5.784 0 0 0-.312 6.407c.389.65.902 1.216 1.51 1.666l9.202 6.873a5.72 5.72 0 0 0 4.255 1.076 5.743 5.743 0 0 0 3.766-2.263Z" fill="#FBBC04"/><path d="m119.528 1.912-4.537 10.904a1.378 1.378 0 0 1-1.092.836 1.37 1.37 0 0 1-1.267-.532l-7.129-9.4a1.383 1.383 0 0 1 .917-2.205L118.085.011a1.367 1.367 0 0 1 1.268.532 1.388 1.388 0 0 1 .175 1.37Z" fill="#34A853"/><path d="M7.457 50.18.702 58.895c-.387.5-.298 1.223.2 1.613l8.674 6.786c.498.39 1.216.3 1.604-.2l6.754-8.716c.388-.5.299-1.222-.2-1.612l-8.673-6.787a1.14 1.14 0 0 0-1.604.2Z" fill="#E8EAED"/><path d="m270.32 9.944-17.684 46.269a2.219 2.219 0 0 0 1.268 2.862l18.256 7.045a2.201 2.201 0 0 0 2.848-1.274l17.684-46.269a2.219 2.219 0 0 0-1.268-2.862L273.168 8.67a2.2 2.2 0 0 0-2.848 1.274Z" fill="#fff" stroke="#E8EAED" stroke-width="2" stroke-linecap="round" stroke-linejoin="round"/><path d="M273.05 13.501c.684 0 1.239-.557 1.239-1.245 0-.688-.555-1.246-1.239-1.246-.685 0-1.239.558-1.239 1.246s.554 1.245 1.239 1.245Z" fill="#E8EAED"/><path d="m267.403 35.037-3.381 8.849c-.272.711.081 1.51.789 1.783l8.806 3.398a1.371 1.371 0 0 0 1.774-.794l3.382-8.848a1.382 1.382 0 0 0-.79-1.783l-8.805-3.398a1.372 1.372 0 0 0-1.775.793Z" fill="#4285F4"/><path d="M321.079 58.573c3.822 0 6.921-3.113 6.921-6.954 0-3.84-3.099-6.955-6.921-6.955s-6.921 3.114-6.921 6.955c0 3.84 3.099 6.954 6.921 6.954Z" fill="#E8EAED"/><path d="m65.84 28.687 2.46 9.146a1.389 1.389 0 0 0 1.688.984l9.134-2.385a1.365 1.365 0 0 0 .972-1.679l-2.459-9.146a1.389 1.389 0 0 0-1.688-.984l-9.135 2.385a1.364 1.364 0 0 0-.971 1.679Z" fill="#4285F4"/></svg>