<svg width="20" height="20" viewBox="0 0 20 20" fill="none" xmlns="http://www.w3.org/2000/svg">
<path fill-rule="evenodd" clip-rule="evenodd" d="M6 8.5C6 8.48274 6.00087 8.46569 6.00258 8.44888C6.02819 8.19675 6.24112 8 6.5 8H7.9C8.17614 8 8.4 8.22386 8.4 8.5V9.9C8.4 10.1761 8.17614 10.4 7.9 10.4H6.8V12H6V8.5ZM6.8 8.80005V9.60005H7.59999V8.80005H6.8Z" fill="#202124"/>
<path fill-rule="evenodd" clip-rule="evenodd" d="M9.29999 8C9.02385 8 8.79999 8.22386 8.79999 8.5V12H10.7C10.9761 12 11.2 11.7761 11.2 11.5V8.5C11.2 8.22386 10.9761 8 10.7 8H9.29999ZM10.4 8.80005H9.59998V11.2H10.4V8.80005Z" fill="#202124"/>
<path d="M11.6 8.4C11.6 8.17909 11.7791 8 12 8H14V8.8H12.4V9.59998H13.2V10.4H12.4V12H11.6L11.6 8.4Z" fill="#202124"/>
<path fill-rule="evenodd" clip-rule="evenodd" d="M15 3H5C3.9 3 3 3.9 3 5V15C3 16.1 3.9 17 5 17H15C16.1 17 17 16.1 17 15V5C17 3.9 16.1 3 15 3ZM15 15H5V5H15V15Z" fill="#202124"/>
</svg>
