<?xml version="1.0" encoding="UTF-8"?>
<!--Generator: Apple Native CoreSVG 175.5-->
<!DOCTYPE svg
PUBLIC "-//W3C//DTD SVG 1.1//EN"
       "http://www.w3.org/Graphics/SVG/1.1/DTD/svg11.dtd">
<svg version="1.1" xmlns="http://www.w3.org/2000/svg" xmlns:xlink="http://www.w3.org/1999/xlink" width="3300" height="2200">
 <!--glyph: "", point size: 100.0, font version: "18.0d12e2", template writer version: "101"-->
 <style>.multicolor-0:custom {fill:#EA4335}
.multicolor-1:custom {fill:#34A853}
.multicolor-2:custom {fill:#4183F0}
.multicolor-3:custom {fill:#FBBC04}

.hierarchical-0:primary {fill:#212121}
.hierarchical-1:secondary {fill:#4D4D4D}
.hierarchical-2:primary {fill:#212121}
.hierarchical-3:primary {fill:#212121}

.SFSymbolsPreview34A853 {fill:#34A853;opacity:1.0}
.SFSymbolsPreview4183F0 {fill:#4183F0;opacity:1.0}
.SFSymbolsPreviewEA4335 {fill:#EA4335;opacity:1.0}
.SFSymbolsPreviewFBBC04 {fill:#FBBC04;opacity:1.0}
</style>
 <g id="Notes">
  <rect height="2200" id="artboard" style="fill:white;opacity:1" width="3300" x="0" y="0"/>
  <line style="fill:none;stroke:black;opacity:1;stroke-width:0.5;" x1="263" x2="3036" y1="292" y2="292"/>
  <text style="stroke:none;fill:black;font-family:sans-serif;font-size:13;font-weight:bold;" transform="matrix(1 0 0 1 263 322)">Weight/Scale Variations</text>
  <text style="stroke:none;fill:black;font-family:sans-serif;font-size:13;text-anchor:middle;" transform="matrix(1 0 0 1 559.711 322)">Ultralight</text>
  <text style="stroke:none;fill:black;font-family:sans-serif;font-size:13;text-anchor:middle;" transform="matrix(1 0 0 1 856.422 322)">Thin</text>
  <text style="stroke:none;fill:black;font-family:sans-serif;font-size:13;text-anchor:middle;" transform="matrix(1 0 0 1 1153.13 322)">Light</text>
  <text style="stroke:none;fill:black;font-family:sans-serif;font-size:13;text-anchor:middle;" transform="matrix(1 0 0 1 1449.84 322)">Regular</text>
  <text style="stroke:none;fill:black;font-family:sans-serif;font-size:13;text-anchor:middle;" transform="matrix(1 0 0 1 1746.56 322)">Medium</text>
  <text style="stroke:none;fill:black;font-family:sans-serif;font-size:13;text-anchor:middle;" transform="matrix(1 0 0 1 2043.27 322)">Semibold</text>
  <text style="stroke:none;fill:black;font-family:sans-serif;font-size:13;text-anchor:middle;" transform="matrix(1 0 0 1 2339.98 322)">Bold</text>
  <text style="stroke:none;fill:black;font-family:sans-serif;font-size:13;text-anchor:middle;" transform="matrix(1 0 0 1 2636.69 322)">Heavy</text>
  <text style="stroke:none;fill:black;font-family:sans-serif;font-size:13;text-anchor:middle;" transform="matrix(1 0 0 1 2933.4 322)">Black</text>
  <line style="fill:none;stroke:black;opacity:1;stroke-width:0.5;" x1="263" x2="3036" y1="1903" y2="1903"/>
  <g transform="matrix(1 0 0 1 263 1933)">
   <path d="M9.24805 0.830078C13.5547 0.830078 17.1387-2.74414 17.1387-7.05078C17.1387-11.3574 13.5449-14.9316 9.23828-14.9316C4.94141-14.9316 1.36719-11.3574 1.36719-7.05078C1.36719-2.74414 4.95117 0.830078 9.24805 0.830078ZM9.24805-0.654297C5.70312-0.654297 2.87109-3.49609 2.87109-7.05078C2.87109-10.6055 5.69336-13.4473 9.23828-13.4473C12.793-13.4473 15.6445-10.6055 15.6445-7.05078C15.6445-3.49609 12.8027-0.654297 9.24805-0.654297ZM5.6543-7.05078C5.6543-6.62109 5.95703-6.32812 6.40625-6.32812L8.50586-6.32812L8.50586-4.20898C8.50586-3.76953 8.79883-3.4668 9.22852-3.4668C9.67773-3.4668 9.9707-3.76953 9.9707-4.20898L9.9707-6.32812L12.0898-6.32812C12.5293-6.32812 12.832-6.62109 12.832-7.05078C12.832-7.49023 12.5293-7.79297 12.0898-7.79297L9.9707-7.79297L9.9707-9.90234C9.9707-10.3516 9.67773-10.6543 9.22852-10.6543C8.79883-10.6543 8.50586-10.3516 8.50586-9.90234L8.50586-7.79297L6.40625-7.79297C5.95703-7.79297 5.6543-7.49023 5.6543-7.05078Z"/>
  </g>
  <g transform="matrix(1 0 0 1 281.867 1933)">
   <path d="M11.709 2.91016C17.1582 2.91016 21.6699-1.61133 21.6699-7.05078C21.6699-12.5 17.1484-17.0117 11.6992-17.0117C6.25977-17.0117 1.74805-12.5 1.74805-7.05078C1.74805-1.61133 6.26953 2.91016 11.709 2.91016ZM11.709 1.25C7.09961 1.25 3.41797-2.44141 3.41797-7.05078C3.41797-11.6602 7.08984-15.3516 11.6992-15.3516C16.3086-15.3516 20.0098-11.6602 20.0098-7.05078C20.0098-2.44141 16.3184 1.25 11.709 1.25ZM7.17773-7.05078C7.17773-6.57227 7.50977-6.25 8.00781-6.25L10.8789-6.25L10.8789-3.36914C10.8789-2.88086 11.2109-2.53906 11.6895-2.53906C12.1777-2.53906 12.5195-2.87109 12.5195-3.36914L12.5195-6.25L15.4004-6.25C15.8887-6.25 16.2305-6.57227 16.2305-7.05078C16.2305-7.53906 15.8887-7.88086 15.4004-7.88086L12.5195-7.88086L12.5195-10.752C12.5195-11.25 12.1777-11.5918 11.6895-11.5918C11.2109-11.5918 10.8789-11.25 10.8789-10.752L10.8789-7.88086L8.00781-7.88086C7.50977-7.88086 7.17773-7.53906 7.17773-7.05078Z"/>
  </g>
  <g transform="matrix(1 0 0 1 305.646 1933)">
   <path d="M14.9707 5.66406C21.9336 5.66406 27.6953-0.0976562 27.6953-7.05078C27.6953-14.0137 21.9238-19.7754 14.9609-19.7754C8.00781-19.7754 2.25586-14.0137 2.25586-7.05078C2.25586-0.0976562 8.01758 5.66406 14.9707 5.66406ZM14.9707 3.84766C8.93555 3.84766 4.08203-1.01562 4.08203-7.05078C4.08203-13.0957 8.92578-17.9492 14.9609-17.9492C21.0059-17.9492 25.8691-13.0957 25.8691-7.05078C25.8691-1.01562 21.0156 3.84766 14.9707 3.84766ZM9.19922-7.05078C9.19922-6.5332 9.57031-6.17188 10.1172-6.17188L14.0625-6.17188L14.0625-2.2168C14.0625-1.67969 14.4336-1.29883 14.9512-1.29883C15.4883-1.29883 15.8594-1.66992 15.8594-2.2168L15.8594-6.17188L19.8145-6.17188C20.3516-6.17188 20.7324-6.5332 20.7324-7.05078C20.7324-7.59766 20.3613-7.96875 19.8145-7.96875L15.8594-7.96875L15.8594-11.9141C15.8594-12.4609 15.4883-12.8418 14.9512-12.8418C14.4336-12.8418 14.0625-12.4609 14.0625-11.9141L14.0625-7.96875L10.1172-7.96875C9.57031-7.96875 9.19922-7.59766 9.19922-7.05078Z"/>
  </g>
  <text style="stroke:none;fill:black;font-family:sans-serif;font-size:13;font-weight:bold;" transform="matrix(1 0 0 1 263 1953)">Design Variations</text>
  <text style="stroke:none;fill:black;font-family:sans-serif;font-size:13;" transform="matrix(1 0 0 1 263 1971)">Symbols are supported in up to nine weights and three scales.</text>
  <text style="stroke:none;fill:black;font-family:sans-serif;font-size:13;" transform="matrix(1 0 0 1 263 1989)">For optimal layout with text and other symbols, vertically align</text>
  <text style="stroke:none;fill:black;font-family:sans-serif;font-size:13;" transform="matrix(1 0 0 1 263 2007)">symbols with the adjacent text.</text>
  <line style="fill:none;stroke:#00AEEF;stroke-width:0.5;opacity:1.0;" x1="776" x2="776" y1="1919" y2="1933"/>
  <g transform="matrix(1 0 0 1 776 1933)">
   <path d="M3.31055 0.15625C3.82812 0.15625 4.08203-0.0390625 4.26758-0.585938L5.52734-4.0332L11.2891-4.0332L12.5488-0.585938C12.7344-0.0390625 12.9883 0.15625 13.4961 0.15625C14.0137 0.15625 14.3457-0.15625 14.3457-0.644531C14.3457-0.810547 14.3164-0.966797 14.2383-1.17188L9.6582-13.3691C9.43359-13.9648 9.0332-14.2676 8.4082-14.2676C7.80273-14.2676 7.39258-13.9746 7.17773-13.3789L2.59766-1.16211C2.51953-0.957031 2.49023-0.800781 2.49023-0.634766C2.49023-0.146484 2.80273 0.15625 3.31055 0.15625ZM6.00586-5.51758L8.37891-12.0898L8.42773-12.0898L10.8008-5.51758Z"/>
  </g>
  <line style="fill:none;stroke:#00AEEF;stroke-width:0.5;opacity:1.0;" x1="793.197" x2="793.197" y1="1919" y2="1933"/>
  <text style="stroke:none;fill:black;font-family:sans-serif;font-size:13;font-weight:bold;" transform="matrix(1 0 0 1 776 1953)">Margins</text>
  <text style="stroke:none;fill:black;font-family:sans-serif;font-size:13;" transform="matrix(1 0 0 1 776 1971)">Leading and trailing margins on the left and right side of each symbol</text>
  <text style="stroke:none;fill:black;font-family:sans-serif;font-size:13;" transform="matrix(1 0 0 1 776 1989)">can be adjusted by modifying the x-location of the margin guidelines.</text>
  <text style="stroke:none;fill:black;font-family:sans-serif;font-size:13;" transform="matrix(1 0 0 1 776 2007)">Modifications are automatically applied proportionally to all</text>
  <text style="stroke:none;fill:black;font-family:sans-serif;font-size:13;" transform="matrix(1 0 0 1 776 2025)">scales and weights.</text>
  <g transform="matrix(1 0 0 1 1289 1933)">
   <path d="M2.8418 1.86523L4.54102 3.57422C5.40039 4.44336 6.38672 4.38477 7.31445 3.35938L18.0078-8.42773L17.041-9.4043L6.42578 2.27539C6.07422 2.67578 5.74219 2.77344 5.27344 2.30469L4.10156 1.14258C3.63281 0.683594 3.74023 0.341797 4.14062-0.0195312L15.6152-10.8203L14.6387-11.7871L3.04688-0.898438C2.06055 0.0195312 1.98242 0.996094 2.8418 1.86523ZM9.25781-16.3281C8.83789-15.918 8.80859-15.3418 9.04297-14.9512C9.27734-14.5898 9.73633-14.3555 10.3809-14.5215C11.8457-14.8633 13.3691-14.9219 14.7949-13.9844L14.209-12.5293C13.8672-11.6992 14.043-11.1133 14.5801-10.5664L16.875-8.25195C17.3633-7.76367 17.7734-7.74414 18.3398-7.8418L19.4043-8.03711L20.0684-7.36328L20.0293-6.80664C19.9902-6.30859 20.1172-5.92773 20.6055-5.44922L21.3672-4.70703C21.8457-4.22852 22.4609-4.19922 22.9297-4.66797L25.8398-7.58789C26.3086-8.05664 26.2891-8.65234 25.8105-9.13086L25.0391-9.89258C24.5605-10.3711 24.1895-10.5273 23.7109-10.4883L23.1348-10.4395L22.4902-11.0742L22.7344-12.1973C22.8613-12.7637 22.7051-13.2031 22.1191-13.7891L19.9219-15.9766C16.582-19.2969 12.1484-19.2188 9.25781-16.3281ZM10.752-15.957C13.1836-17.7344 16.4746-17.4316 18.7012-15.2051L21.1328-12.793C21.3672-12.5586 21.4062-12.373 21.3379-12.0312L21.0156-10.5469L22.5195-9.0625L23.5059-9.12109C23.7598-9.13086 23.8379-9.11133 24.0332-8.91602L24.6094-8.33984L22.168-5.89844L21.5918-6.47461C21.3965-6.66992 21.3672-6.74805 21.377-7.01172L21.4453-7.98828L19.9512-9.47266L18.4277-9.21875C18.1055-9.15039 17.959-9.17969 17.7148-9.41406L15.7129-11.416C15.459-11.6504 15.4297-11.8164 15.5859-12.1875L16.4648-14.2773C14.9023-15.7324 12.8711-16.3574 10.8398-15.7617C10.6836-15.7227 10.625-15.8496 10.752-15.957Z"/>
  </g>
  <text style="stroke:none;fill:black;font-family:sans-serif;font-size:13;font-weight:bold;" transform="matrix(1 0 0 1 1289 1953)">Exporting</text>
  <text style="stroke:none;fill:black;font-family:sans-serif;font-size:13;" transform="matrix(1 0 0 1 1289 1971)">Symbols should be outlined when exporting to ensure the</text>
  <text style="stroke:none;fill:black;font-family:sans-serif;font-size:13;" transform="matrix(1 0 0 1 1289 1989)">design is preserved when submitting to Xcode.</text>
  <text id="template-version" style="stroke:none;fill:black;font-family:sans-serif;font-size:13;text-anchor:end;" transform="matrix(1 0 0 1 3036 1933)">Template v.3.0</text>
  <text style="stroke:none;fill:black;font-family:sans-serif;font-size:13;text-anchor:end;" transform="matrix(1 0 0 1 3036 1951)">Requires Xcode 13 or greater</text>
  <text id="descriptive-name" style="stroke:none;fill:black;font-family:sans-serif;font-size:13;text-anchor:end;" transform="matrix(1 0 0 1 3036 1969)">Generated from lens.cr</text>
  <text style="stroke:none;fill:black;font-family:sans-serif;font-size:13;text-anchor:end;" transform="matrix(1 0 0 1 3036 1987)">Typeset at 100 points</text>
  <text style="stroke:none;fill:black;font-family:sans-serif;font-size:13;" transform="matrix(1 0 0 1 263 726)">Small</text>
  <text style="stroke:none;fill:black;font-family:sans-serif;font-size:13;" transform="matrix(1 0 0 1 263 1156)">Medium</text>
  <text style="stroke:none;fill:black;font-family:sans-serif;font-size:13;" transform="matrix(1 0 0 1 263 1586)">Large</text>
 </g>
 <g id="Guides">
  <g id="H-reference" style="fill:#27AAE1;stroke:none;" transform="matrix(1 0 0 1 339 696)">
   <path d="M0.993654 0L3.63775 0L29.3281-67.1323L30.0303-67.1323L30.0303-70.459L28.1226-70.459ZM11.6885-24.4799L46.9815-24.4799L46.2315-26.7285L12.4385-26.7285ZM55.1196 0L57.7637 0L30.6382-70.459L29.4326-70.459L29.4326-67.1323Z"/>
  </g>
  <line id="Baseline-S" style="fill:none;stroke:#27AAE1;opacity:1;stroke-width:0.5;" x1="263" x2="3036" y1="696" y2="696"/>
  <line id="Capline-S" style="fill:none;stroke:#27AAE1;opacity:1;stroke-width:0.5;" x1="263" x2="3036" y1="625.541" y2="625.541"/>
  <g id="H-reference" style="fill:#27AAE1;stroke:none;" transform="matrix(1 0 0 1 339 1126)">
   <path d="M0.993654 0L3.63775 0L29.3281-67.1323L30.0303-67.1323L30.0303-70.459L28.1226-70.459ZM11.6885-24.4799L46.9815-24.4799L46.2315-26.7285L12.4385-26.7285ZM55.1196 0L57.7637 0L30.6382-70.459L29.4326-70.459L29.4326-67.1323Z"/>
  </g>
  <line id="Baseline-M" style="fill:none;stroke:#27AAE1;opacity:1;stroke-width:0.5;" x1="263" x2="3036" y1="1126" y2="1126"/>
  <line id="Capline-M" style="fill:none;stroke:#27AAE1;opacity:1;stroke-width:0.5;" x1="263" x2="3036" y1="1055.54" y2="1055.54"/>
  <g id="H-reference" style="fill:#27AAE1;stroke:none;" transform="matrix(1 0 0 1 339 1556)">
   <path d="M0.993654 0L3.63775 0L29.3281-67.1323L30.0303-67.1323L30.0303-70.459L28.1226-70.459ZM11.6885-24.4799L46.9815-24.4799L46.2315-26.7285L12.4385-26.7285ZM55.1196 0L57.7637 0L30.6382-70.459L29.4326-70.459L29.4326-67.1323Z"/>
  </g>
  <line id="Baseline-L" style="fill:none;stroke:#27AAE1;opacity:1;stroke-width:0.5;" x1="263" x2="3036" y1="1556" y2="1556"/>
  <line id="Capline-L" style="fill:none;stroke:#27AAE1;opacity:1;stroke-width:0.5;" x1="263" x2="3036" y1="1485.54" y2="1485.54"/>
  <line id="left-margin-Regular-M" style="fill:none;stroke:#00AEEF;stroke-width:0.5;opacity:1.0;" x1="1377.43" x2="1377.43" y1="1030.79" y2="1150.12"/>
  <line id="right-margin-Regular-M" style="fill:none;stroke:#00AEEF;stroke-width:0.5;opacity:1.0;" x1="1522.26" x2="1522.26" y1="1030.79" y2="1150.12"/>
 </g>
 <g id="Symbols">
  <g id="Black-L" transform="matrix(1 0 0 1 2840.68 1556)">
   <path class="multicolor-0:custom hierarchical-0:primary SFSymbolsPreviewEA4335" d="M31.8791-16.84C26.3291-16.84 21.7791-12.32 22.0191-6.78C22.3591 1 23.2491 6.28 25.5091 10.73C28.7691 17.13 33.9691 22.33 40.3691 25.59C47.6391 29.29 57.1591 29.29 76.1991 29.29L84.3191 29.29C89.8391 29.29 94.3191 24.82 94.3191 19.29C94.3191 13.77 89.8391 9.29 84.3191 9.29L76.1991 9.29C66.3491 9.29 60.1691 9.28 55.4991 8.9C51.0691 8.53 49.7991 7.94 49.4491 7.77C46.8091 6.42 44.6691 4.28 43.3291 1.65C43.1491 1.3 42.5591 0.03 42.1991-4.41C42.1391-5.19 42.0791-6.02 42.0391-6.89C41.7591-12.39 37.3791-16.84 31.8791-16.84Z"/>
   <path class="multicolor-1:custom hierarchical-1:secondary SFSymbolsPreview34A853" d="M156.359 6.50485L156.359 6.5049C156.359 15.2226 149.292 22.2897 140.574 22.2897L140.574 22.2897C131.856 22.2897 124.789 15.2226 124.789 6.5049L124.789 6.5048C124.789-2.2129 131.856-9.28 140.574-9.28L140.574-9.28C149.292-9.28 156.359-2.2129 156.359 6.5048Z"/>
   <path class="multicolor-2:custom hierarchical-2:primary SFSymbolsPreview4183F0" d="M76.2391-105.7C72.2991-105.7 68.5691-103.91 66.0991-100.83L58.0191-90.75C50.1591-90.41 44.8391-89.53 40.3691-87.26C33.9691-84 28.7691-78.79 25.5091-72.4C23.2491-67.95 22.3591-62.67 22.0191-54.9C21.7791-49.36 26.3291-44.84 31.8791-44.84C37.3791-44.84 41.7591-49.29 42.0391-54.78C42.0791-55.66 42.1391-56.48 42.1991-57.26C42.5591-61.7 43.1491-62.97 43.3291-63.32C44.6691-65.95 46.8091-68.09 49.4491-69.44C49.7891-69.61 51.0691-70.2 55.4991-70.56C60.1691-70.95 66.3491-70.96 76.1991-70.96L109.219-70.96C119.069-70.96 125.259-70.95 129.929-70.56C134.359-70.2 135.629-69.61 135.979-69.44C138.609-68.09 140.759-65.95 142.099-63.32C142.269-62.97 142.859-61.7 143.229-57.26C143.289-56.48 143.339-55.66 143.389-54.78C143.669-49.29 148.049-44.84 153.549-44.84C159.099-44.84 163.649-49.36 163.409-54.9C163.059-62.67 162.179-67.95 159.919-72.4C156.659-78.79 151.459-84 145.059-87.26C140.569-89.54 135.209-90.42 127.289-90.75L119.209-100.83C116.749-103.91 113.019-105.7 109.069-105.7L76.2391-105.7ZM69.3391-30.84C69.3391-43.72 79.7891-54.16 92.6591-54.16C105.539-54.16 115.979-43.72 115.979-30.84C115.979-17.96 105.539-7.52 92.6591-7.52C79.7891-7.52 69.3391-17.96 69.3391-30.84Z"/>
   <path class="multicolor-3:custom hierarchical-3:primary SFSymbolsPreviewFBBC04" d="M140.549-65.72C141.139-64.98 141.659-64.17 142.099-63.32C142.269-62.97 142.859-61.7 143.229-57.26C143.289-56.48 143.339-39.66 143.389-38.78C143.669-33.29 148.049-28.84 153.549-28.84C159.099-28.84 163.649-33.36 163.409-38.9C163.399-39.12 163.379-55.34 163.369-55.56C163.009-62.98 162.119-68.08 159.919-72.4C156.659-78.8 151.459-84 145.059-87.26C140.589-89.53 135.269-90.41 127.419-90.75L140.549-65.72Z"/>
  </g>
  <g id="Heavy-L" transform="matrix(1 0 0 1 2544.92 1556)">
   <path class="multicolor-0:custom hierarchical-0:primary SFSymbolsPreviewEA4335" d="M39.7758-7.42C39.8258-6.07 39.8958-4.84 39.9958-3.7C40.3558 0.71 40.9558 2.19 41.2658 2.8C42.7258 5.67 45.0558 8 47.9258 9.46C48.5358 9.77 50.0158 10.37 54.4258 10.73C59.0358 11.11 65.1158 11.12 74.6558 11.12L83.1958 11.12C88.0958 11.12 92.0758 15.1 92.0758 20C92.0758 24.9 88.0958 28.88 83.1958 28.88L74.6558 28.88C56.1658 28.88 46.9258 28.88 39.8658 25.28C33.6558 22.11 28.6158 17.07 25.4458 10.86C23.1358 6.32 22.3058 0.88 22.0158-7.33C21.8358-12.25 25.8658-16.25 30.7858-16.25C35.6658-16.25 39.5758-12.3 39.7758-7.42Z"/>
   <path class="multicolor-1:custom hierarchical-1:secondary SFSymbolsPreview34A853" d="M154.536 6.08485L154.536 6.0849C154.536 14.8026 147.468 21.8697 138.751 21.8697L138.751 21.8697C130.033 21.8697 122.966 14.8026 122.966 6.0849L122.966 6.0848C122.966-2.6329 130.033-9.7 138.751-9.7L138.751-9.7C147.468-9.7 154.536-2.6329 154.536 6.0848Z"/>
   <path class="multicolor-2:custom hierarchical-2:primary SFSymbolsPreview4183F0" d="M75.3458-104.5C71.4058-104.5 67.6658-102.71 65.2058-99.63L56.8158-89.16C49.2858-88.83 44.1758-87.97 39.8658-85.78C33.6558-82.61 28.6158-77.57 25.4458-71.36C23.1358-66.82 22.3058-61.38 22.0158-53.17C21.8358-48.25 25.8658-44.25 30.7858-44.25C35.6658-44.25 39.5758-48.2 39.7758-53.08C39.8258-54.43 39.8958-55.66 39.9958-56.8C40.3558-61.21 40.9558-62.69 41.2658-63.3C42.7258-66.17 45.0558-68.5 47.9258-69.96C48.5358-70.27 50.0158-70.87 54.4258-71.23C59.0358-71.61 65.1158-71.62 74.6558-71.62L108.876-71.62C118.406-71.62 124.486-71.61 129.096-71.23C133.506-70.87 134.986-70.27 135.596-69.96C138.466-68.5 140.796-66.17 142.256-63.3C142.566-62.69 143.166-61.21 143.526-56.8C143.626-55.66 143.696-54.43 143.746-53.08C143.946-48.2 147.856-44.25 152.736-44.25C157.656-44.25 161.686-48.25 161.506-53.17C161.216-61.38 160.386-66.82 158.076-71.36C154.906-77.57 149.866-82.61 143.656-85.78C139.346-87.97 134.236-88.83 126.706-89.16L118.316-99.63C115.856-102.71 112.116-104.5 108.176-104.5L75.3458-104.5ZM68.4458-30.25C68.4458-43.13 78.8858-53.57 91.7658-53.57C104.636-53.57 115.086-43.13 115.086-30.25C115.086-17.37 104.636-6.93 91.7658-6.93C78.8858-6.93 68.4458-17.37 68.4458-30.25Z"/>
   <path class="multicolor-3:custom hierarchical-3:primary SFSymbolsPreviewFBBC04" d="M140.036-66.54C140.906-65.56 141.656-64.48 142.256-63.3C142.566-62.69 143.166-61.21 143.526-56.8C143.626-55.66 143.696-38.43 143.746-37.08C143.946-32.2 147.856-28.25 152.736-28.25C157.656-28.25 161.686-32.25 161.506-37.17C161.506-37.26 161.496-53.34 161.496-53.43C161.196-61.49 160.366-66.87 158.076-71.36C154.906-77.56 149.866-82.61 143.656-85.78C139.346-87.97 134.236-88.83 126.706-89.16L125.716-90.4L140.036-66.54Z"/>
  </g>
  <g id="Bold-L" transform="matrix(1 0 0 1 2248.13 1556)">
   <path class="multicolor-0:custom hierarchical-0:primary SFSymbolsPreviewEA4335" d="M29.2114-15.25C25.2014-15.25 21.9314-11.99 22.0114-7.98C22.2214 1.55 22.9314 7.52 25.4214 12.4C28.4914 18.42 33.3814 23.32 39.4014 26.39C46.2514 29.88 55.2114 29.88 73.1314 29.88L84.6214 29.88C88.6214 29.88 91.8714 26.63 91.8714 22.62C91.8714 18.62 88.6214 15.38 84.6214 15.38L73.1314 15.38C63.9314 15.38 57.9014 15.36 53.3014 14.99C48.8614 14.62 47.0314 14 45.9914 13.47C42.6914 11.79 40.0214 9.11 38.3414 5.82C37.8114 4.78 37.1814 2.95 36.8214-1.49C36.6614-3.39 36.5714-5.52 36.5214-8.02C36.4314-12.02 33.2114-15.25 29.2114-15.25Z"/>
   <path class="multicolor-1:custom hierarchical-1:secondary SFSymbolsPreview34A853" d="M154.681 7.08485L154.681 7.0849C154.681 15.8026 147.614 22.8697 138.896 22.8697L138.896 22.8697C130.179 22.8697 123.111 15.8026 123.111 7.0849L123.111 7.0848C123.111-1.6329 130.179-8.7 138.896-8.7L138.896-8.7C147.614-8.7 154.681-1.6329 154.681 7.0848Z"/>
   <path class="multicolor-2:custom hierarchical-2:primary SFSymbolsPreview4183F0" d="M75.4214-102.13C71.4814-102.13 67.7514-100.34 65.2914-97.27L59.0314-89.46C58.7314-89.08 58.5314-88.68 58.4314-88.26C49.6814-88.02 44.0514-87.26 39.4014-84.89C33.3814-81.82 28.4914-76.92 25.4214-70.9C22.9314-66.02 22.2214-60.05 22.0114-50.52C21.9314-46.51 25.2014-43.25 29.2114-43.25C33.2114-43.25 36.4314-46.48 36.5214-50.48C36.5714-52.98 36.6614-55.11 36.8214-57.01C37.1814-61.45 37.8114-63.28 38.3414-64.32C40.0214-67.61 42.6914-70.29 45.9914-71.97C47.0314-72.5 48.8614-73.12 53.3014-73.49C57.9014-73.86 63.9314-73.88 73.1314-73.88L110.551-73.88C119.751-73.88 125.781-73.86 130.391-73.49C134.831-73.12 136.661-72.5 137.701-71.97C140.991-70.29 143.671-67.61 145.341-64.32C145.871-63.28 146.501-61.45 146.861-57.01C147.021-55.11 147.111-52.98 147.171-50.48C147.261-46.48 150.481-43.25 154.471-43.25C158.491-43.25 161.761-46.51 161.671-50.52C161.471-60.05 160.751-66.02 158.261-70.9C155.201-76.92 150.301-81.82 144.281-84.89C139.701-87.22 134.161-87.99 125.621-88.25L118.401-97.26C115.931-100.34 112.201-102.13 108.261-102.13L75.4214-102.13ZM68.5214-29.25C68.5214-42.13 78.9614-52.57 91.8414-52.57C104.721-52.57 115.161-42.13 115.161-29.25C115.161-16.37 104.721-5.93 91.8414-5.93C78.9614-5.93 68.5214-16.37 68.5214-29.25Z"/>
   <path class="multicolor-3:custom hierarchical-3:primary SFSymbolsPreviewFBBC04" d="M139.931-70.61C142.201-68.99 144.071-66.83 145.341-64.32C145.871-63.28 146.501-61.45 146.861-57.01C147.021-55.12 147.111-37.98 147.171-35.48C147.261-31.48 150.481-28.25 154.471-28.25C158.491-28.25 161.761-31.51 161.671-35.52C161.671-35.55 161.671-50.57 161.671-50.59C161.461-60.08 160.751-66.03 158.261-70.9C155.201-76.92 150.301-81.82 144.281-84.89C139.741-87.2 134.281-87.98 125.891-88.24L139.931-70.61Z"/>
  </g>
  <g id="Semibold-L" transform="matrix(1 0 0 1 1951.38 1556)">
   <path class="multicolor-0:custom hierarchical-0:primary SFSymbolsPreviewEA4335" d="M28.1104-15.26C24.7204-15.26 21.9704-12.51 22.0104-9.12C22.1504 1.49 22.7404 7.82 25.3504 12.94C28.3204 18.77 33.0604 23.52 38.9004 26.49C45.5304 29.87 54.2104 29.87 71.5704 29.87L85.4904 29.87C88.8704 29.87 91.6104 27.12 91.6104 23.74C91.6104 20.36 88.8704 17.62 85.4904 17.62L71.5704 17.62C62.6904 17.62 56.7604 17.61 52.2104 17.24C47.7904 16.88 45.7604 16.24 44.4604 15.57C40.9304 13.78 38.0604 10.91 36.2604 7.38C35.6004 6.08 34.9604 4.04 34.6004-0.37C34.4004-2.82 34.3104-5.66 34.2604-9.14C34.2204-12.52 31.4904-15.26 28.1104-15.26Z"/>
   <path class="multicolor-1:custom hierarchical-1:secondary SFSymbolsPreview34A853" d="M154.75 7.08485L154.75 7.0849C154.75 15.8026 147.683 22.8697 138.965 22.8697L138.965 22.8697C130.248 22.8697 123.18 15.8026 123.18 7.0849L123.18 7.0848C123.18-1.6329 130.248-8.7 138.965-8.7L138.965-8.7C147.683-8.7 154.75-1.6329 154.75 7.0848Z"/>
   <path class="multicolor-2:custom hierarchical-2:primary SFSymbolsPreview4183F0" d="M75.4604-102.13C71.5204-102.13 67.7904-100.34 65.3204-97.27L59.0704-89.46C58.7804-89.1 58.5804-88.7 58.4704-88.3C49.3404-88.1 43.6004-87.4 38.9004-85C33.0604-82.03 28.3204-77.29 25.3504-71.46C22.7404-66.34 22.1504-60 22.0104-49.4C21.9704-46.01 24.7204-43.26 28.1104-43.26C31.4904-43.26 34.2204-45.99 34.2604-49.37C34.3104-52.86 34.4004-55.7 34.6004-58.15C34.9604-62.56 35.6004-64.59 36.2604-65.9C38.0604-69.42 40.9304-72.29 44.4604-74.09C45.7604-74.75 47.7904-75.39 52.2104-75.75C56.7604-76.12 62.6904-76.13 71.5704-76.13L112.19-76.13C121.07-76.13 127-76.12 131.55-75.75C135.96-75.39 138-74.75 139.3-74.09C142.83-72.29 145.7-69.42 147.5-65.9C148.16-64.59 148.8-62.56 149.16-58.15C149.36-55.7 149.45-52.86 149.5-49.37C149.54-45.99 152.27-43.26 155.65-43.26C159.04-43.26 161.79-46.01 161.75-49.4C161.61-60 161.02-66.34 158.41-71.46C155.44-77.29 150.7-82.03 144.86-85C140.22-87.37 134.56-88.08 125.62-88.29L118.44-97.26C115.97-100.34 112.24-102.13 108.29-102.13L75.4604-102.13ZM68.5604-29.26C68.5604-42.14 79.0004-52.58 91.8804-52.58C104.76-52.58 115.2-42.14 115.2-29.26C115.2-16.38 104.76-5.94 91.8804-5.94C79.0004-5.94 68.5604-16.38 68.5604-29.26Z"/>
   <path class="multicolor-3:custom hierarchical-3:primary SFSymbolsPreviewFBBC04" d="M136.32-75.1C137.69-74.8 138.6-74.45 139.3-74.09C142.83-72.29 145.7-69.42 147.5-65.9C148.16-64.6 148.8-62.56 149.16-58.15C149.36-55.7 149.45-37.86 149.5-34.37C149.54-31 152.27-28.26 155.65-28.26C159.04-28.26 161.79-31.01 161.75-34.4C161.75-34.41 161.75-49.42 161.75-49.43C161.61-60.02 161.02-66.35 158.41-71.46C155.44-77.29 150.7-82.03 144.86-85.01C140.25-87.36 134.64-88.07 125.81-88.29L136.32-75.1Z"/>
  </g>
  <g id="Medium-L" transform="matrix(1 0 0 1 1654.65 1556)">
   <path class="multicolor-0:custom hierarchical-0:primary SFSymbolsPreviewEA4335" d="M27.3701-15.97C24.4001-15.97 21.9901-13.56 22.0101-10.59C22.1001 0.73 22.6001 7.26 25.2601 12.49C28.1401 18.13 32.7201 22.72 38.3701 25.6C44.7901 28.87 53.1901 28.87 69.9901 28.87L86.9601 28.87C89.9301 28.87 92.3301 26.46 92.3301 23.49C92.3301 20.52 89.9301 18.12 86.9601 18.12L69.9901 18.12C61.4101 18.12 55.6201 18.11 51.1601 17.74C46.8201 17.39 44.6901 16.75 43.2501 16.02C39.6301 14.17 36.6801 11.23 34.8401 7.61C34.1001 6.17 33.4701 4.03 33.1101-0.3C32.8801-3.1 32.8001-6.41 32.7601-10.6C32.7401-13.57 30.3401-15.97 27.3701-15.97Z"/>
   <path class="multicolor-1:custom hierarchical-1:secondary SFSymbolsPreview34A853" d="M154.78 5.08485L154.78 5.0849C154.78 13.8026 147.713 20.8697 138.995 20.8697L138.995 20.8697C130.277 20.8697 123.21 13.8026 123.21 5.0849L123.21 5.0848C123.21-3.6329 130.277-10.7 138.995-10.7L138.995-10.7C147.713-10.7 154.78-3.6329 154.78 5.0848Z"/>
   <path class="multicolor-2:custom hierarchical-2:primary SFSymbolsPreview4183F0" d="M75.4801-104.16C71.5401-104.16 67.8101-102.37 65.3401-99.29L59.0901-91.48C58.5601-90.82 58.3501-90.06 58.3901-89.32C48.9201-89.16 43.1001-88.53 38.3701-86.11C32.7201-83.24 28.1301-78.65 25.2601-73C22.5501-67.69 22.0901-61.02 22.0101-49.35C21.9901-46.38 24.4001-43.97 27.3701-43.97C30.3401-43.97 32.7401-46.37 32.7601-49.34C32.7901-53.81 32.8701-57.29 33.1101-60.21C33.4701-64.55 34.1001-66.68 34.8401-68.12C36.6801-71.74 39.6301-74.69 43.2501-76.53C44.6901-77.27 46.8201-77.91 51.1601-78.26C55.6201-78.62 61.4101-78.63 69.9901-78.63L113.81-78.63C122.39-78.63 128.17-78.62 132.64-78.26C136.97-77.91 139.11-77.27 140.55-76.53C144.17-74.69 147.11-71.74 148.96-68.12C149.69-66.68 150.33-64.55 150.68-60.21C150.92-57.29 151.01-53.81 151.04-49.34C151.06-46.37 153.46-43.97 156.43-43.97C159.4-43.97 161.81-46.38 161.79-49.35C161.71-61.02 161.24-67.69 158.54-73C155.66-78.65 151.07-83.24 145.43-86.11C140.87-88.44 135.31-89.11 126.45-89.3L118.46-99.28C115.99-102.36 112.26-104.16 108.31-104.16L75.4801-104.16ZM68.5801-30.26C68.5801-43.14 79.0201-53.58 91.9001-53.58C104.78-53.58 115.22-43.14 115.22-30.26C115.22-17.38 104.78-6.94 91.9001-6.94C79.0201-6.94 68.5801-17.38 68.5801-30.26Z"/>
   <path class="multicolor-3:custom hierarchical-3:primary SFSymbolsPreviewFBBC04" d="M135.7-77.91C138.08-77.55 139.5-77.07 140.55-76.53C144.17-74.69 147.11-71.74 148.96-68.12C149.69-66.68 150.33-64.55 150.68-60.21C150.92-57.29 151.01-38.8 151.04-34.34C151.06-31.37 153.46-28.97 156.43-28.97C159.4-28.97 161.81-31.38 161.79-34.35C161.79-34.36 161.79-49.38 161.79-49.4C161.71-61.04 161.24-67.7 158.54-73C155.66-78.64 151.07-83.23 145.43-86.11C140.9-88.42 135.38-89.1 126.63-89.3L135.7-77.91Z"/>
  </g>
  <g id="Regular-L" transform="matrix(1 0 0 1 1357.92 1556)">
   <path class="multicolor-0:custom hierarchical-0:primary SFSymbolsPreviewEA4335" d="M26.26-14.26C23.91-14.26 22.01-12.35 22.01-10.01C22.05 2.46 22.35 9.25 25.06 14.58C27.75 19.85 32.03 24.13 37.3 26.82C43.29 29.87 51.13 29.87 66.81 29.87L87.76 29.87C90.11 29.87 92.01 27.96 92.01 25.62C92.01 23.27 90.11 21.37 87.76 21.37L66.81 21.37C58.83 21.37 53.36 21.36 49.11 21.01C44.97 20.68 42.75 20.06 41.16 19.24C37.49 17.37 34.51 14.39 32.64 10.72C31.82 9.12 31.2 6.91 30.86 2.77C30.59-0.54 30.53-4.6 30.52-10.01C30.51-12.35 28.61-14.26 26.26-14.26Z"/>
   <path class="multicolor-1:custom hierarchical-1:secondary SFSymbolsPreview34A853" d="M154.83 7.08485L154.83 7.0849C154.83 15.8026 147.763 22.8697 139.045 22.8697L139.045 22.8697C130.327 22.8697 123.26 15.8026 123.26 7.0849L123.26 7.0848C123.26-1.6329 130.327-8.7 139.045-8.7L139.045-8.7C147.763-8.7 154.83-1.6329 154.83 7.0848Z"/>
   <path class="multicolor-2:custom hierarchical-2:primary SFSymbolsPreview4183F0" d="M75.5-102.19C71.56-102.19 67.83-100.4 65.37-97.32L59.11-89.52C58.82-89.15 58.63-88.76 58.52-88.36C48.15-88.27 42.13-87.79 37.3-85.33C32.03-82.65 27.75-78.36 25.06-73.09C22.35-67.77 22.05-60.98 22.01-48.51C22.01-46.16 23.91-44.26 26.26-44.26C28.61-44.26 30.51-46.16 30.52-48.51C30.53-53.92 30.59-57.97 30.86-61.28C31.2-65.42 31.82-67.64 32.64-69.24C34.51-72.9 37.49-75.89 41.16-77.76C42.75-78.57 44.97-79.19 49.11-79.53C53.36-79.88 58.83-79.88 66.81-79.88L117.03-79.88C125.01-79.88 130.49-79.88 134.73-79.53C138.87-79.19 141.09-78.57 142.68-77.76C146.35-75.89 149.34-72.9 151.21-69.24C152.02-67.64 152.64-65.42 152.98-61.28C153.25-57.97 153.31-53.92 153.33-48.51C153.33-46.16 155.23-44.26 157.58-44.26C159.93-44.26 161.83-46.16 161.83-48.51C161.79-60.98 161.49-67.77 158.78-73.09C156.09-78.36 151.81-82.65 146.54-85.33C141.77-87.76 135.82-88.26 125.66-88.36L118.48-97.32C116.01-100.4 112.28-102.19 108.33-102.19L75.5-102.19ZM68.6-29.26C68.6-42.14 79.04-52.58 91.92-52.58C104.8-52.58 115.24-42.14 115.24-29.26C115.24-16.38 104.8-5.94 91.92-5.94C79.04-5.94 68.6-16.38 68.6-29.26Z"/>
   <path class="multicolor-3:custom hierarchical-3:primary SFSymbolsPreviewFBBC04" d="M132.82-79.65C133.48-79.62 134.12-79.58 134.73-79.53C138.87-79.19 141.09-78.57 142.68-77.75C146.35-75.88 149.34-72.9 151.21-69.23C152.02-67.63 152.64-65.42 152.98-61.28C153.25-57.97 153.31-38.91 153.33-33.5C153.33-31.16 155.23-29.25 157.58-29.25C159.93-29.25 161.83-31.16 161.83-33.51C161.83-33.52 161.83-48.54 161.83-48.56C161.79-60.99 161.49-67.77 158.78-73.09C156.09-78.36 151.81-82.64 146.54-85.33C141.79-87.75 135.88-88.25 125.82-88.35L132.82-79.65Z"/>
  </g>
  <g id="Light-L" transform="matrix(1 0 0 1 1061.21 1556)">
   <path class="multicolor-0:custom hierarchical-0:primary SFSymbolsPreviewEA4335" d="M25.64-16.26C23.64-16.26 22.01-14.63 22.01-12.63L22.01-11.73C22.01 2.83 22.01 10.11 24.85 15.67C27.34 20.56 31.32 24.54 36.21 27.03C41.77 29.87 49.05 29.87 63.61 29.87L88.16 29.87C90.17 29.87 91.79 28.24 91.79 26.24C91.79 24.24 90.17 22.62 88.16 22.62L63.61 22.62C56.21 22.62 51.1 22.61 47.13 22.29C43.24 21.97 41.09 21.38 39.5 20.57C35.97 18.78 33.1 15.91 31.31 12.38C30.5 10.79 29.91 8.64 29.59 4.75C29.27 0.78 29.26-4.33 29.26-11.73L29.26-12.63C29.26-14.63 27.64-16.26 25.64-16.26Z"/>
   <path class="multicolor-1:custom hierarchical-1:secondary SFSymbolsPreview34A853" d="M155.83 8.08485L155.83 8.0849C155.83 16.8026 148.763 23.8697 140.045 23.8697L140.045 23.8697C131.327 23.8697 124.26 16.8026 124.26 8.0849L124.26 8.0848C124.26-0.632904 131.327-7.7 140.045-7.7L140.045-7.7C148.763-7.7 155.83-0.632904 155.83 8.0848Z"/>
   <path class="multicolor-2:custom hierarchical-2:primary SFSymbolsPreview4183F0" d="M75.5-102.09C71.56-102.09 67.83-100.3 65.37-97.22L59.11-89.41C58.85-89.09 58.67-88.74 58.55-88.38C47.28-88.34 41.09-88.03 36.21-85.55C31.32-83.06 27.34-79.08 24.85-74.19C22.01-68.62 22.01-61.34 22.01-46.78L22.01-45.88C22.01-43.88 23.64-42.26 25.64-42.26C27.64-42.26 29.26-43.88 29.26-45.88L29.26-46.78C29.26-54.18 29.27-59.3 29.59-63.27C29.91-67.16 30.5-69.31 31.31-70.9C33.1-74.42 35.97-77.29 39.5-79.09C41.09-79.9 43.24-80.49 47.13-80.8C51.1-81.13 56.21-81.13 63.61-81.13L120.23-81.13C127.63-81.13 132.75-81.13 136.72-80.8C140.61-80.49 142.76-79.9 144.35-79.09C147.87-77.29 150.74-74.42 152.54-70.9C153.35-69.31 153.94-67.16 154.25-63.27C154.58-59.3 154.58-54.18 154.58-46.78L154.58-45.88C154.58-43.88 156.21-42.26 158.21-42.26C160.21-42.26 161.83-43.88 161.83-45.88L161.83-46.78C161.83-61.34 161.83-68.62 159-74.19C156.51-79.08 152.53-83.06 147.64-85.55C142.8-88.01 136.66-88.33 125.56-88.38L118.48-97.21C116.01-100.29 112.28-102.09 108.34-102.09L75.5-102.09ZM68.6-29.26C68.6-42.14 79.04-52.58 91.92-52.58C104.8-52.58 115.24-42.14 115.24-29.26C115.24-16.38 104.8-5.94 91.92-5.94C79.04-5.94 68.6-16.38 68.6-29.26Z"/>
   <path class="multicolor-3:custom hierarchical-3:primary SFSymbolsPreviewFBBC04" d="M130.42-81.08C132.84-81.03 134.9-80.95 136.72-80.8C140.61-80.48 142.76-79.9 144.35-79.09C147.87-77.29 150.74-74.42 152.54-70.89C153.35-69.31 153.94-67.16 154.25-63.27C154.58-59.3 154.58-54.18 154.58-46.78L154.58-32.88C154.58-30.88 156.21-29.26 158.21-29.26C160.21-29.26 161.83-30.88 161.83-32.88L161.83-46.78C161.83-61.34 161.83-68.62 159-74.19C156.51-79.08 152.53-83.06 147.64-85.55C142.81-88 136.7-88.33 125.67-88.38L130.42-81.08Z"/>
  </g>
  <g id="Thin-L" transform="matrix(1 0 0 1 764.497 1556)">
   <path class="multicolor-0:custom hierarchical-0:primary SFSymbolsPreviewEA4335" d="M24.01-16.12C22.906-16.12 22.01-15.22 22.01-14.12L22.01-13.09C22.01 1.47 22.01 8.75 24.844 14.31C27.337 19.21 31.314 23.18 36.206 25.68C41.768 28.51 49.049 28.51 63.61 28.51L90.498 28.51C91.602 28.51 92.498 27.61 92.498 26.51C92.498 25.41 91.602 24.51 90.498 24.51L63.61 24.51C56.264 24.51 50.994 24.51 46.859 24.17C42.771 23.84 40.145 23.19 38.022 22.11C33.883 20 30.517 16.64 28.408 12.5C27.326 10.37 26.685 7.75 26.351 3.66C26.013-0.47 26.01-5.74 26.01-13.09L26.01-14.12C26.01-15.22 25.115-16.12 24.01-16.12Z"/>
   <path class="multicolor-1:custom hierarchical-1:secondary SFSymbolsPreview34A853" d="M155.83 6.72485L155.83 6.7249C155.83 15.4426 148.763 22.5097 140.045 22.5097L140.045 22.5097C131.327 22.5097 124.26 15.4426 124.26 6.7249L124.26 6.7248C124.26-1.9929 131.327-9.06 140.045-9.06L140.045-9.06C148.763-9.06 155.83-1.9929 155.83 6.7248Z"/>
   <path class="multicolor-2:custom hierarchical-2:primary SFSymbolsPreview4183F0" d="M75.507-103.98C71.561-103.98 67.829-102.19 65.362-99.11L57.042-88.73C46.72-88.67 40.861-88.28 36.206-85.91C31.314-83.42 27.337-79.44 24.844-74.55C22.01-68.98 22.01-61.7 22.01-47.14L22.01-46.12C22.01-45.01 22.906-44.12 24.01-44.12C25.115-44.12 26.01-45.01 26.01-46.12L26.01-47.14C26.01-54.49 26.013-59.76 26.351-63.89C26.685-67.98 27.326-70.61 28.408-72.73C30.517-76.87 33.883-80.24 38.022-82.34C40.145-83.43 42.771-84.07 46.859-84.4C50.994-84.74 56.264-84.74 63.61-84.74L120.23-84.74C127.577-84.74 132.846-84.74 136.981-84.4C141.069-84.07 143.695-83.43 145.818-82.34C149.958-80.24 153.323-76.87 155.432-72.73C156.514-70.61 157.155-67.98 157.489-63.89C157.827-59.76 157.83-54.49 157.83-47.14L157.83-46.12C157.83-45.01 158.726-44.12 159.83-44.12C160.935-44.12 161.83-45.01 161.83-46.12L161.83-47.14C161.83-61.7 161.83-68.98 158.996-74.55C156.504-79.44 152.526-83.42 147.634-85.91C142.979-88.28 137.121-88.67 126.798-88.73L118.478-99.11C116.011-102.19 112.279-103.98 108.333-103.98L75.507-103.98ZM68.6-30.12C68.6-43 79.041-53.44 91.92-53.44C104.799-53.44 115.24-43 115.24-30.12C115.24-17.24 104.799-6.8 91.92-6.8C79.041-6.8 68.6-17.24 68.6-30.12Z"/>
   <path class="multicolor-3:custom hierarchical-3:primary SFSymbolsPreviewFBBC04" d="M129.632-84.7C132.461-84.66 134.869-84.57 136.981-84.4C141.07-84.07 143.695-83.42 145.818-82.34C149.958-80.23 153.323-76.87 155.432-72.73C156.514-70.61 157.155-67.98 157.489-63.89C157.827-59.76 157.83-54.49 157.83-47.14L157.83-31.12C157.83-30.01 158.726-29.12 159.83-29.12C160.935-29.12 161.83-30.01 161.83-31.12L161.83-47.14C161.83-61.7 161.83-68.98 158.996-74.54C156.504-79.44 152.526-83.41 147.634-85.91C143.011-88.26 137.201-88.66 127.009-88.73L129.632-84.7Z"/>
  </g>
  <g id="Ultralight-L" transform="matrix(1 0 0 1 467.786 1556)">
   <path class="multicolor-0:custom hierarchical-0:primary SFSymbolsPreviewEA4335" d="M23.26-15.25C22.57-15.25 22.01-14.69 22.01-14L22.01-7.92C22.01 4.96 22.01 11.4 24.517 16.32C26.722 20.65 30.241 24.16 34.568 26.37C39.488 28.88 45.929 28.88 58.81 28.88L91.248 28.88C91.938 28.88 92.498 28.32 92.498 27.63C92.498 26.94 91.938 26.38 91.248 26.38L58.81 26.38C52.328 26.38 47.617 26.37 43.907 26.07C40.227 25.77 37.752 25.19 35.703 24.14C31.846 22.18 28.71 19.04 26.745 15.18C25.701 13.13 25.116 10.66 24.815 6.98C24.512 3.27 24.51-1.44 24.51-7.92L24.51-14C24.51-14.69 23.951-15.25 23.26-15.25Z"/>
   <path class="multicolor-1:custom hierarchical-1:secondary SFSymbolsPreview34A853" d="M156.83 8.08485L156.83 8.0849C156.83 16.8026 149.763 23.8697 141.045 23.8697L141.045 23.8697C132.327 23.8697 125.26 16.8026 125.26 8.0849L125.26 8.0848C125.26-0.632904 132.327-7.7 141.045-7.7L141.045-7.7C149.763-7.7 156.83-0.632904 156.83 8.0848Z"/>
   <path class="multicolor-2:custom hierarchical-2:primary SFSymbolsPreview4183F0" d="M65.362-98.04C67.829-101.12 71.561-102.91 75.507-102.91L108.333-102.91C112.279-102.91 116.011-101.12 118.478-98.04L127.008-87.4L127.008-87.4L127.034-87.37C138.593-87.37 144.614-87.24 149.272-84.87C153.6-82.66 157.118-79.14 159.323-74.82C161.83-69.9 161.83-63.46 161.83-50.58L161.83-44.5C161.83-43.81 161.271-43.25 160.58-43.25C159.89-43.25 159.33-43.81 159.33-44.5L159.33-50.58C159.33-57.06 159.328-61.77 159.025-65.48C158.724-69.16 158.14-71.63 157.096-73.68C155.13-77.54 151.994-80.68 148.137-82.64C146.088-83.68 143.614-84.27 139.933-84.57C136.223-84.87 131.512-84.88 125.03-84.88L58.81-84.88C52.328-84.88 47.617-84.87 43.907-84.57C40.227-84.27 37.752-83.68 35.703-82.64C31.846-80.68 28.71-77.54 26.745-73.68C25.701-71.63 25.116-69.16 24.815-65.48C24.512-61.77 24.51-57.06 24.51-50.57L24.51-44.5C24.51-43.81 23.951-43.25 23.26-43.25C22.57-43.25 22.01-43.81 22.01-44.5L22.01-50.57C22.01-63.46 22.01-69.9 24.517-74.82C26.722-79.14 30.241-82.66 34.568-84.87C39.221-87.24 45.233-87.37 56.765-87.37L56.765-87.45L56.877-87.45L65.362-98.04ZM91.92-52.57C79.041-52.57 68.6-42.13 68.6-29.25C68.6-16.37 79.041-5.93 91.92-5.93C104.799-5.93 115.24-16.37 115.24-29.25C115.24-42.13 104.799-52.57 91.92-52.57Z"/>
   <path class="multicolor-3:custom hierarchical-3:primary SFSymbolsPreviewFBBC04" d="M128.665-84.87C133.331-84.86 136.955-84.81 139.933-84.57C143.613-84.27 146.088-83.68 148.137-82.64C151.994-80.68 155.13-77.54 157.095-73.68C158.139-71.63 158.724-69.16 159.025-65.48C159.328-61.77 159.33-57.06 159.33-50.58L159.33-30.5C159.33-29.81 159.889-29.25 160.58-29.25C161.27-29.25 161.83-29.81 161.83-30.5L161.83-50.58C161.83-63.46 161.83-69.9 159.323-74.82C157.118-79.14 153.599-82.66 149.272-84.87C144.619-87.24 138.606-87.37 127.072-87.38L128.665-84.87Z"/>
  </g>
  <g id="Black-M" transform="matrix(1 0 0 1 2860.99 1126)">
   <path class="multicolor-0:custom hierarchical-0:primary SFSymbolsPreviewEA4335" d="M24.92-23.78L36.35-23.78C37.95-23.78 39.26-22.48 39.26-20.87C39.26-15.19 39.31-14.36 39.38-13.94C40.04-9.77 43.31-6.5 47.48-5.84C47.9-5.77 48.73-5.72 54.41-5.72L64.39-5.72C69.15-5.72 73.01-1.86 73.01 2.9C73.01 7.67 69.15 11.53 64.39 11.53L54.41 11.53C49.39 11.53 46.88 11.53 44.78 11.2C33.23 9.37 24.17 0.31 22.34-11.25C22.01-13.35 22.01-15.85 22.01-20.87C22.01-22.48 23.31-23.78 24.92-23.78Z"/>
   <path class="multicolor-1:custom hierarchical-1:secondary SFSymbolsPreview34A853" d="M118.81-4.47L118.81-4.47C118.81 2.15742 113.437 7.53 106.81 7.53L106.81 7.53C100.183 7.53 94.81 2.15742 94.81-4.47L94.81-4.47C94.81-11.0974 100.183-16.47 106.81-16.47L106.81-16.47C113.437-16.47 118.81-11.0974 118.81-4.47Z"/>
   <path class="multicolor-2:custom hierarchical-2:primary SFSymbolsPreview4183F0" d="M63.14-89.47C60.43-89.47 57.9-88.09 56.42-85.81L50.87-77.2C48.07-77.19 46.32-77.12 44.78-76.88C33.23-75.05 24.17-65.99 22.34-54.43C22.01-52.34 22.01-49.83 22.01-44.81C22.01-42.83 23.62-41.22 25.6-41.22L35.67-41.22C37.65-41.22 39.26-42.83 39.26-44.81C39.26-50.49 39.31-51.32 39.38-51.74C40.04-55.91 43.31-59.18 47.48-59.84C47.9-59.91 48.73-59.96 54.41-59.96L90.41-59.96C96.08-59.96 96.91-59.91 97.33-59.84C101.51-59.18 104.78-55.91 105.44-51.74C105.5-51.32 105.56-50.49 105.56-44.81C105.56-42.83 107.17-41.22 109.15-41.22L119.22-41.22C121.2-41.22 122.81-42.83 122.81-44.81C122.81-49.83 122.81-52.34 122.48-54.43C120.65-65.99 111.59-75.05 100.03-76.88C98.5-77.12 96.74-77.19 93.95-77.2L88.4-85.81C86.92-88.09 84.39-89.47 81.68-89.47L63.14-89.47ZM55.14-32.84C55.14-42.38 62.87-50.11 72.41-50.11C81.94-50.11 89.67-42.38 89.67-32.84C89.67-23.31 81.94-15.58 72.41-15.58C62.87-15.58 55.14-23.31 55.14-32.84Z"/>
   <path class="multicolor-3:custom hierarchical-3:primary SFSymbolsPreviewFBBC04" d="M103.65-56C104.56-54.77 105.19-53.32 105.44-51.74C105.5-51.32 105.56-40.49 105.56-34.81C105.56-32.83 107.16-31.22 109.15-31.22L119.22-31.22C121.2-31.22 122.81-32.83 122.81-34.81C122.81-39.83 122.81-52.34 122.48-54.43C120.65-65.99 111.58-75.05 100.03-76.88C98.5-77.12 96.74-77.19 93.95-77.2L93.76-77.5L103.65-56Z"/>
  </g>
  <g id="Heavy-M" transform="matrix(1 0 0 1 2564.27 1126)">
   <path class="multicolor-0:custom hierarchical-0:primary SFSymbolsPreviewEA4335" d="M27.32-22.78C24.39-22.78 22.01-20.4 22.01-17.47C22.01-12.82 22.01-10.5 22.32-8.56C24.02 2.14 32.41 10.53 43.1 12.22C45.05 12.53 47.37 12.53 52.01 12.53L65.22 12.53C69.36 12.53 72.72 9.17 72.72 5.03C72.72 0.89 69.36-2.47 65.22-2.47L52.01-2.47C46.8-2.47 45.93-2.52 45.45-2.59C41.17-3.27 37.81-6.63 37.14-10.91C37.06-11.39 37.01-12.25 37.01-17.47C37.01-20.4 34.64-22.78 31.7-22.78L27.32-22.78Z"/>
   <path class="multicolor-1:custom hierarchical-1:secondary SFSymbolsPreview34A853" d="M118.81-3.47L118.81-3.47C118.81 3.15742 113.437 8.53 106.81 8.53L106.81 8.53C100.183 8.53 94.81 3.15742 94.81-3.47L94.81-3.47C94.81-10.0974 100.183-15.47 106.81-15.47L106.81-15.47C113.437-15.47 118.81-10.0974 118.81-3.47Z"/>
   <path class="multicolor-2:custom hierarchical-2:primary SFSymbolsPreview4183F0" d="M63.15-88.47C60.43-88.47 57.9-87.09 56.43-84.81L50.88-76.21C46.98-76.21 44.88-76.18 43.1-75.9C32.41-74.21 24.02-65.82 22.32-55.12C22.01-53.18 22.01-50.86 22.01-46.21C22.01-42.9 24.69-40.22 28-40.22L31.02-40.22C34.33-40.22 37.01-42.9 37.01-46.21C37.01-51.43 37.06-52.29 37.14-52.78C37.81-57.05 41.17-60.41 45.45-61.09C45.93-61.16 46.8-61.21 52.01-61.21L92.81-61.21C98.03-61.21 98.89-61.16 99.38-61.09C103.66-60.41 107.01-57.05 107.69-52.78C107.77-52.29 107.81-51.43 107.81-46.21C107.81-42.9 110.49-40.22 113.8-40.22L116.82-40.22C120.13-40.22 122.81-42.9 122.81-46.21C122.81-50.86 122.81-53.18 122.51-55.12C120.81-65.82 112.42-74.21 101.72-75.9C99.95-76.18 97.85-76.21 93.95-76.21L88.4-84.81C86.93-87.09 84.4-88.47 81.68-88.47L63.15-88.47ZM55.15-31.84C55.15-41.38 62.88-49.11 72.41-49.11C81.95-49.11 89.68-41.38 89.68-31.84C89.68-22.31 81.95-14.58 72.41-14.58C62.88-14.58 55.15-22.31 55.15-31.84Z"/>
   <path class="multicolor-3:custom hierarchical-3:primary SFSymbolsPreviewFBBC04" d="M103.51-59.43C105.7-57.91 107.25-55.53 107.69-52.78C107.77-52.29 107.81-41.43 107.81-36.21C107.81-32.9 110.49-30.22 113.8-30.22L116.82-30.22C120.13-30.22 122.81-32.9 122.81-36.21C122.81-40.86 122.81-53.18 122.51-55.12C120.81-65.82 112.42-74.21 101.72-75.9C99.95-76.18 97.86-76.21 93.98-76.21L103.51-59.43Z"/>
  </g>
  <g id="Bold-M" transform="matrix(1 0 0 1 2267.56 1126)">
   <path class="multicolor-0:custom hierarchical-0:primary SFSymbolsPreviewEA4335" d="M28.26-23.12C24.8-23.12 22.01-20.33 22.01-16.87L22.01-16.27C22.01-11.81 22.01-9.59 22.3-7.72C23.93 2.55 31.98 10.6 42.25 12.23C44.12 12.53 46.35 12.53 50.81 12.53L66.18 12.53C69.63 12.53 72.43 9.73 72.43 6.28C72.43 2.82 69.63 0.03 66.18 0.03L50.81 0.03C45.87 0.03 44.86-0.01 44.21-0.12C39.29-0.89 35.43-4.75 34.65-9.67C34.54-10.32 34.51-11.34 34.51-16.27L34.51-16.87C34.51-20.33 31.71-23.12 28.26-23.12Z"/>
   <path class="multicolor-1:custom hierarchical-1:secondary SFSymbolsPreview34A853" d="M118.81-3.47L118.81-3.47C118.81 3.15742 113.437 8.53 106.81 8.53L106.81 8.53C100.183 8.53 94.81 3.15742 94.81-3.47L94.81-3.47C94.81-10.0974 100.183-15.47 106.81-15.47L106.81-15.47C113.437-15.47 118.81-10.0974 118.81-3.47Z"/>
   <path class="multicolor-2:custom hierarchical-2:primary SFSymbolsPreview4183F0" d="M63.14-88.47C60.43-88.47 57.9-87.09 56.42-84.81L50.87-76.21L50.81-76.21C46.35-76.21 44.12-76.21 42.25-75.92C31.98-74.29 23.93-66.23 22.3-55.97C22.01-54.1 22.01-51.87 22.01-47.41L22.01-46.81C22.01-43.36 24.8-40.56 28.26-40.56C31.71-40.56 34.51-43.36 34.51-46.81L34.51-47.41C34.51-52.35 34.54-53.36 34.65-54.01C35.43-58.93 39.29-62.79 44.21-63.57C44.86-63.67 45.87-63.71 50.81-63.71L94.01-63.71C98.94-63.71 99.96-63.67 100.61-63.57C105.53-62.79 109.39-58.93 110.16-54.01C110.27-53.36 110.31-52.35 110.31-47.41L110.31-46.81C110.31-43.36 113.1-40.56 116.56-40.56C120.01-40.56 122.81-43.36 122.81-46.81L122.81-47.41C122.81-51.87 122.81-54.1 122.51-55.97C120.88-66.23 112.83-74.29 102.56-75.92C100.7-76.21 98.47-76.21 94.01-76.21L93.95-76.21L88.39-84.81C86.92-87.09 84.39-88.47 81.67-88.47L63.14-88.47ZM55.14-31.84C55.14-41.38 62.87-49.11 72.41-49.11C81.94-49.11 89.67-41.38 89.67-31.84C89.67-22.31 81.94-14.58 72.41-14.58C62.87-14.58 55.14-22.31 55.14-31.84Z"/>
   <path class="multicolor-3:custom hierarchical-3:primary SFSymbolsPreviewFBBC04" d="M102.29-63.17C106.39-61.87 109.48-58.35 110.16-54.01C110.27-53.36 110.31-42.35 110.31-37.41L110.31-36.81C110.31-33.36 113.1-30.56 116.56-30.56C120.01-30.56 122.81-33.36 122.81-36.81L122.81-37.41C122.81-41.87 122.81-54.1 122.51-55.97C120.88-66.23 112.83-74.29 102.56-75.92C100.7-76.21 98.47-76.21 94.01-76.21L93.99-76.21L102.29-63.17Z"/>
  </g>
  <g id="Semibold-M" transform="matrix(1 0 0 1 1970.85 1126)">
   <path class="multicolor-0:custom hierarchical-0:primary SFSymbolsPreviewEA4335" d="M27.38-23.8C24.41-23.8 22.01-21.4 22.01-18.43L22.01-15.71C22.01-11.43 22.01-9.3 22.29-7.51C23.85 2.33 31.57 10.05 41.41 11.61C43.2 11.89 45.33 11.89 49.61 11.89L66.77 11.89C69.74 11.89 72.14 9.49 72.14 6.52C72.14 3.55 69.74 1.14 66.77 1.14L49.61 1.14C44.92 1.14 43.83 1.11 43.09 0.99C37.85 0.16 33.74-3.95 32.91-9.19C32.79-9.93 32.76-11.02 32.76-15.71L32.76-18.43C32.76-21.4 30.35-23.8 27.38-23.8Z"/>
   <path class="multicolor-1:custom hierarchical-1:secondary SFSymbolsPreview34A853" d="M118.81-4.11L118.81-4.11C118.81 2.51742 113.437 7.89 106.81 7.89L106.81 7.89C100.183 7.89 94.81 2.51742 94.81-4.11L94.81-4.11C94.81-10.7374 100.183-16.11 106.81-16.11L106.81-16.11C113.437-16.11 118.81-10.7374 118.81-4.11Z"/>
   <path class="multicolor-2:custom hierarchical-2:primary SFSymbolsPreview4183F0" d="M63.14-89.1C60.43-89.1 57.9-87.72 56.42-85.44L50.88-76.85L49.61-76.85C45.33-76.85 43.2-76.85 41.41-76.57C31.57-75.01 23.85-67.29 22.29-57.45C22.01-55.66 22.01-53.52 22.01-49.25L22.01-46.57C22.01-43.61 24.41-41.2 27.38-41.2C30.35-41.2 32.76-43.61 32.76-46.57L32.76-49.25C32.76-53.94 32.79-55.03 32.91-55.77C33.74-61.01 37.85-65.12 43.09-65.95C43.83-66.07 44.92-66.1 49.61-66.1L95.21-66.1C99.89-66.1 100.98-66.07 101.72-65.95C106.97-65.12 111.08-61.01 111.91-55.77C112.02-55.03 112.06-53.94 112.06-49.25L112.06-46.57C112.06-43.61 114.46-41.2 117.43-41.2C120.4-41.2 122.81-43.61 122.81-46.57L122.81-49.25C122.81-53.52 122.81-55.66 122.52-57.45C120.97-67.29 113.25-75.01 103.41-76.57C101.62-76.85 99.48-76.85 95.21-76.85L93.94-76.85L88.39-85.44C86.92-87.72 84.39-89.1 81.67-89.1L63.14-89.1ZM55.14-32.49C55.14-42.02 62.87-49.75 72.41-49.75C81.94-49.75 89.67-42.02 89.67-32.49C89.67-22.95 81.94-15.22 72.41-15.22C62.87-15.22 55.14-22.95 55.14-32.49Z"/>
   <path class="multicolor-3:custom hierarchical-3:primary SFSymbolsPreviewFBBC04" d="M101.01-66.03C101.31-66.01 101.53-65.98 101.72-65.95C106.97-65.12 111.08-61.01 111.91-55.77C112.02-55.03 112.06-43.94 112.06-39.25L112.06-36.57C112.06-33.61 114.46-31.2 117.43-31.2C120.4-31.2 122.81-33.61 122.81-36.57L122.81-39.25C122.81-43.52 122.81-55.66 122.52-57.45C120.97-67.29 113.25-75.01 103.41-76.57C101.62-76.85 99.48-76.85 95.21-76.85L94-76.85L101.01-66.03Z"/>
  </g>
  <g id="Medium-M" transform="matrix(1 0 0 1 1674.14 1126)">
   <path class="multicolor-0:custom hierarchical-0:primary SFSymbolsPreviewEA4335" d="M26.76-23.8C24.14-23.8 22.01-21.67 22.01-19.05L22.01-13.43C22.01-9.53 22.01-7.58 22.27-5.95C23.69 3.04 30.74 10.08 39.73 11.51C41.36 11.77 43.31 11.77 47.21 11.77L68.11 11.77C70.73 11.77 72.86 9.64 72.86 7.02C72.86 4.39 70.73 2.27 68.11 2.27L47.21 2.27C42.95 2.27 41.92 2.24 41.21 2.12C36.29 1.34 32.43-2.52 31.65-7.44C31.54-8.14 31.51-9.17 31.51-13.43L31.51-19.05C31.51-21.67 29.39-23.8 26.76-23.8Z"/>
   <path class="multicolor-1:custom hierarchical-1:secondary SFSymbolsPreview34A853" d="M118.81-4.23L118.81-4.23C118.81 2.39742 113.437 7.77 106.81 7.77L106.81 7.77C100.183 7.77 94.81 2.39742 94.81-4.23L94.81-4.23C94.81-10.8574 100.183-16.23 106.81-16.23L106.81-16.23C113.437-16.23 118.81-10.8574 118.81-4.23Z"/>
   <path class="multicolor-2:custom hierarchical-2:primary SFSymbolsPreview4183F0" d="M63.15-89.23C60.43-89.23 57.9-87.86 56.43-85.57L50.88-76.98L47.21-76.98C43.31-76.98 41.36-76.98 39.73-76.72C30.74-75.29 23.69-68.25 22.27-59.26C22.01-57.63 22.01-55.68 22.01-51.78L22.01-45.94C22.01-43.32 24.14-41.19 26.76-41.19C29.39-41.19 31.51-43.32 31.51-45.94L31.51-51.78C31.51-56.04 31.54-57.07 31.65-57.78C32.43-62.7 36.29-66.56 41.21-67.33C41.92-67.45 42.95-67.48 47.21-67.48L97.61-67.48C101.88-67.48 102.9-67.45 103.61-67.33C108.53-66.56 112.39-62.7 113.17-57.78C113.28-57.07 113.31-56.04 113.31-51.78L113.31-45.94C113.31-43.32 115.44-41.19 118.06-41.19C120.69-41.19 122.81-43.32 122.81-45.94L122.81-51.78C122.81-55.68 122.81-57.63 122.55-59.26C121.13-68.25 114.08-75.29 105.1-76.72C103.47-76.98 101.51-76.98 97.61-76.98L93.95-76.98L88.4-85.57C86.93-87.86 84.4-89.23 81.68-89.23L63.15-89.23ZM55.15-32.61C55.15-42.15 62.88-49.88 72.41-49.88C81.95-49.88 89.68-42.15 89.68-32.61C89.68-23.07 81.95-15.35 72.41-15.35C62.88-15.35 55.15-23.07 55.15-32.61Z"/>
   <path class="multicolor-3:custom hierarchical-3:primary SFSymbolsPreviewFBBC04" d="M100.02-67.47C102.32-67.46 103.06-67.42 103.61-67.33C108.53-66.56 112.39-62.7 113.17-57.78C113.28-57.07 113.31-56.04 113.31-51.78L113.31-35.94C113.31-33.32 115.44-31.19 118.06-31.19C120.69-31.19 122.81-33.32 122.81-35.94L122.81-51.78C122.81-55.68 122.81-57.63 122.55-59.26C121.13-68.25 114.08-75.29 105.1-76.72C103.47-76.98 101.51-76.98 97.61-76.98L93.97-76.98L100.02-67.47Z"/>
  </g>
  <g id="Regular-M" transform="matrix(1 0 0 1 1377.43 1126)">
   <path class="multicolor-0:custom hierarchical-0:primary SFSymbolsPreviewEA4335" d="M26.01-23.93C23.8-23.93 22.01-22.14 22.01-19.93L22.01-11.05C22.01-7.52 22.01-5.76 22.24-4.28C23.53 3.85 29.91 10.22 38.04 11.51C39.51 11.75 41.28 11.75 44.81 11.75L68.57 11.75C70.78 11.75 72.57 9.95 72.57 7.75C72.57 5.54 70.78 3.75 68.57 3.75L44.81 3.75C40.97 3.75 39.99 3.72 39.29 3.61C34.58 2.86 30.89-0.83 30.15-5.53C30.03-6.23 30.01-7.22 30.01-11.05L30.01-19.93C30.01-22.14 28.22-23.93 26.01-23.93Z"/>
   <path class="multicolor-1:custom hierarchical-1:secondary SFSymbolsPreview34A853" d="M118.81-4.24L118.81-4.24C118.81 2.38742 113.437 7.76 106.81 7.76L106.81 7.76C100.183 7.76 94.81 2.38742 94.81-4.24L94.81-4.24C94.81-10.8674 100.183-16.24 106.81-16.24L106.81-16.24C113.437-16.24 118.81-10.8674 118.81-4.24Z"/>
   <path class="multicolor-2:custom hierarchical-2:primary SFSymbolsPreview4183F0" d="M63.14-89.23C60.43-89.23 57.9-87.85 56.42-85.57L50.89-76.99L44.81-76.99C41.28-76.99 39.51-76.99 38.04-76.76C29.91-75.47 23.53-69.09 22.24-60.96C22.01-59.49 22.01-57.72 22.01-54.19L22.01-45.32C22.01-43.11 23.8-41.32 26.01-41.32C28.22-41.32 30.01-43.11 30.01-45.32L30.01-54.19C30.01-58.03 30.03-59.01 30.15-59.71C30.89-64.42 34.58-68.11 39.29-68.86C39.99-68.97 40.97-68.99 44.81-68.99L100.01-68.99C103.85-68.99 104.83-68.97 105.53-68.86C110.24-68.11 113.93-64.42 114.67-59.71C114.79-59.01 114.81-58.03 114.81-54.19L114.81-45.32C114.81-43.11 116.6-41.32 118.81-41.32C121.02-41.32 122.81-43.11 122.81-45.32L122.81-54.19C122.81-57.72 122.81-59.49 122.58-60.96C121.29-69.09 114.91-75.47 106.78-76.76C105.31-76.99 103.54-76.99 100.01-76.99L93.93-76.99L88.4-85.57C86.92-87.85 84.39-89.23 81.68-89.23L63.14-89.23ZM55.41-32.62C55.41-42.01 63.02-49.62 72.41-49.62C81.8-49.62 89.41-42.01 89.41-32.62C89.41-23.24 81.8-15.62 72.41-15.62C63.02-15.62 55.41-23.24 55.41-32.62Z"/>
   <path class="multicolor-3:custom hierarchical-3:primary SFSymbolsPreviewFBBC04" d="M99.07-68.99L100.01-68.99C103.85-68.99 104.83-68.97 105.53-68.86C110.24-68.11 113.93-64.42 114.67-59.71C114.78-59.01 114.81-58.03 114.81-54.19L114.81-35.32C114.81-33.11 116.6-31.32 118.81-31.32C121.02-31.32 122.81-33.11 122.81-35.32L122.81-54.19C122.81-57.72 122.81-59.49 122.58-60.96C121.29-69.09 114.91-75.47 106.78-76.76C105.31-76.99 103.54-76.99 100.01-76.99L93.98-76.99L99.07-68.99Z"/>
  </g>
  <g id="Light-M" transform="matrix(1 0 0 1 1080.72 1126)">
   <path class="multicolor-0:custom hierarchical-0:primary SFSymbolsPreviewEA4335" d="M25.01-21.7C23.35-21.7 22.01-20.36 22.01-18.7L22.01-7.45C22.01-4.29 22.01-2.72 22.22-1.39C23.37 5.88 29.08 11.59 36.35 12.74C37.67 12.95 39.25 12.95 42.41 12.95L69.28 12.95C70.94 12.95 72.28 11.6 72.28 9.95C72.28 8.29 70.94 6.95 69.28 6.95L42.41 6.95C39.02 6.95 38.03 6.93 37.29 6.81C32.58 6.07 28.89 2.37 28.15-2.33C28.03-3.07 28.01-4.07 28.01-7.45L28.01-18.7C28.01-20.36 26.67-21.7 25.01-21.7Z"/>
   <path class="multicolor-1:custom hierarchical-1:secondary SFSymbolsPreview34A853" d="M118.81-3.05L118.81-3.05C118.81 3.57742 113.437 8.95 106.81 8.95L106.81 8.95C100.183 8.95 94.81 3.57742 94.81-3.05L94.81-3.05C94.81-9.67742 100.183-15.05 106.81-15.05L106.81-15.05C113.437-15.05 118.81-9.67742 118.81-3.05Z"/>
   <path class="multicolor-2:custom hierarchical-2:primary SFSymbolsPreview4183F0" d="M62.94-88.04C60.24-88.04 57.73-86.68 56.25-84.43L50.59-75.8L42.41-75.8C39.25-75.8 37.67-75.8 36.35-75.59C29.08-74.44 23.37-68.73 22.22-61.46C22.01-60.13 22.01-58.56 22.01-55.4L22.01-44.14C22.01-42.49 23.35-41.14 25.01-41.14C26.67-41.14 28.01-42.49 28.01-44.14L28.01-55.4C28.01-58.78 28.03-59.78 28.15-60.52C28.89-65.22 32.58-68.92 37.29-69.66C38.03-69.78 39.02-69.8 42.41-69.8L102.41-69.8C105.8-69.8 106.79-69.78 107.53-69.66C112.24-68.92 115.93-65.22 116.68-60.52C116.79-59.78 116.81-58.78 116.81-55.4L116.81-44.14C116.81-42.49 118.15-41.14 119.81-41.14C121.47-41.14 122.81-42.49 122.81-44.14L122.81-55.4C122.81-58.56 122.81-60.13 122.6-61.46C121.45-68.73 115.74-74.44 108.47-75.59C107.15-75.8 105.57-75.8 102.41-75.8L94.35-75.8C94.22-75.97 94.09-76.15 93.97-76.33L88.66-84.43C87.18-86.68 84.67-88.04 81.97-88.04L62.94-88.04ZM55.15-31.42C55.15-40.96 62.88-48.69 72.41-48.69C81.95-48.69 89.68-40.96 89.68-31.42C89.68-21.89 81.95-14.16 72.41-14.16C62.88-14.16 55.15-21.89 55.15-31.42Z"/>
   <path class="multicolor-3:custom hierarchical-3:primary SFSymbolsPreviewFBBC04" d="M98.18-69.8L102.41-69.8C105.8-69.8 106.79-69.78 107.53-69.66C112.24-68.92 115.93-65.22 116.68-60.52C116.79-59.78 116.81-58.78 116.81-55.4L116.81-34.14C116.81-32.49 118.15-31.14 119.81-31.14C121.47-31.14 122.81-32.49 122.81-34.14L122.81-55.4C122.81-58.56 122.81-60.13 122.6-61.46C121.45-68.73 115.74-74.44 108.47-75.59C107.15-75.8 105.57-75.8 102.41-75.8L94.37-75.8L98.18-69.8Z"/>
  </g>
  <g id="Thin-M" transform="matrix(1 0 0 1 784.007 1126)">
   <path class="multicolor-0:custom hierarchical-0:primary SFSymbolsPreviewEA4335" d="M24.01-21.77C22.906-21.77 22.01-20.87 22.01-19.77L22.01-6.82C22.01-3.84 22.01-2.36 22.207-1.11C23.292 5.73 28.661 11.1 35.508 12.19C36.751 12.38 38.238 12.38 41.21 12.38L70.989 12.38C72.094 12.38 72.989 11.49 72.989 10.38C72.989 9.28 72.094 8.38 70.989 8.38L41.21 8.38C38.085 8.38 36.988 8.37 36.133 8.23C30.999 7.42 26.971 3.39 26.158-1.74C26.023-2.59 26.01-3.69 26.01-6.82L26.01-19.77C26.01-20.87 25.115-21.77 24.01-21.77Z"/>
   <path class="multicolor-1:custom hierarchical-1:secondary SFSymbolsPreview34A853" d="M117.989-5L117.989-5C117.989 1.62742 112.616 7 105.989 7L105.989 7C99.3616 7 93.989 1.62742 93.989-5L93.989-5C93.989-11.6274 99.3616-17 105.989-17L105.989-17C112.616-17 117.989-11.6274 117.989-5Z"/>
   <path class="multicolor-2:custom hierarchical-2:primary SFSymbolsPreview4183F0" d="M62.937-88.12C60.241-88.12 57.726-86.76 56.247-84.5L50.559-75.83L50.316-75.36L41.21-75.36C38.238-75.36 36.751-75.36 35.508-75.16C28.661-74.08 23.292-68.71 22.207-61.86C22.01-60.62 22.01-59.13 22.01-56.16L22.01-43.21C22.01-42.11 22.906-41.21 24.01-41.21C25.115-41.21 26.01-42.11 26.01-43.21L26.01-56.16C26.01-59.29 26.023-60.38 26.158-61.24C26.971-66.37 30.999-70.4 36.133-71.21C36.988-71.35 38.085-71.36 41.21-71.36L103.61-71.36C106.736-71.36 107.833-71.35 108.688-71.21C113.822-70.4 117.849-66.37 118.663-61.24C118.798-60.38 118.81-59.29 118.81-56.16L118.81-43.21C118.81-42.11 119.706-41.21 120.81-41.21C121.915-41.21 122.81-42.11 122.81-43.21L122.81-56.16C122.81-59.13 122.81-60.62 122.614-61.86C121.529-68.71 116.16-74.08 109.313-75.16C108.07-75.36 106.583-75.36 103.61-75.36L94.79-75.36C94.487-75.69 94.213-76.04 93.968-76.41L88.659-84.5C87.18-86.76 84.666-88.12 81.97-88.12L62.937-88.12ZM55.145-31.49C55.145-41.02 62.875-48.75 72.41-48.75C81.945-48.75 89.675-41.02 89.675-31.49C89.675-21.95 81.945-14.22 72.41-14.22C62.875-14.22 55.145-21.95 55.145-31.49Z"/>
   <path class="multicolor-3:custom hierarchical-3:primary SFSymbolsPreviewFBBC04" d="M97.335-71.36L103.611-71.36C106.736-71.36 107.833-71.35 108.688-71.21C113.823-70.4 117.85-66.37 118.663-61.24C118.798-60.38 118.811-59.29 118.811-56.16L118.811-33.21C118.811-32.11 119.706-31.21 120.811-31.21C121.915-31.21 122.811-32.11 122.811-33.21L122.811-56.16C122.811-59.13 122.811-60.62 122.614-61.86C121.529-68.71 116.16-74.08 109.314-75.16C108.07-75.36 106.583-75.36 103.611-75.36L94.79-75.36L97.335-71.36Z"/>
  </g>
  <g id="Ultralight-M" transform="matrix(1 0 0 1 487.296 1126)">
   <path class="multicolor-0:custom hierarchical-0:primary SFSymbolsPreviewEA4335" d="M23.135-21.78C22.513-21.78 22.01-21.28 22.01-20.66L22.01-6.13C22.01-3.34 22.01-1.95 22.194-0.78C23.211 5.63 28.245 10.67 34.663 11.69C35.829 11.87 37.223 11.87 40.01 11.87L71.573 11.87C72.194 11.87 72.698 11.37 72.698 10.74C72.698 10.12 72.194 9.62 71.573 9.62L40.01 9.62C37.137 9.62 35.962 9.61 35.015 9.46C29.559 8.6 25.281 4.32 24.416-1.14C24.267-2.08 24.26-3.26 24.26-6.13L24.26-20.66C24.26-21.28 23.756-21.78 23.135-21.78Z"/>
   <path class="multicolor-1:custom hierarchical-1:secondary SFSymbolsPreview34A853" d="M117.698-4.99L117.698-4.99C117.698 1.63742 112.325 7.01 105.698 7.01L105.698 7.01C99.0706 7.01 93.698 1.63742 93.698-4.99L93.698-4.99C93.698-11.6174 99.0706-16.99 105.698-16.99L105.698-16.99C112.325-16.99 117.698-11.6174 117.698-4.99Z"/>
   <path class="multicolor-2:custom hierarchical-2:primary SFSymbolsPreview4183F0" d="M62.935-87.12C60.239-87.12 57.724-85.76 56.245-83.5L50.58-74.87L40.01-74.87C37.223-74.87 35.829-74.87 34.663-74.68C28.245-73.67 23.211-68.63 22.194-62.21C22.01-61.05 22.01-59.65 22.01-56.87L22.01-42.35C22.01-41.73 22.513-41.23 23.135-41.23C23.756-41.23 24.26-41.73 24.26-42.35L24.26-56.87C24.26-59.74 24.267-60.91 24.416-61.86C25.281-67.32 29.559-71.6 35.015-72.46C35.962-72.61 37.137-72.62 40.01-72.62L104.81-72.62C107.683-72.62 108.857-72.61 109.804-72.46C115.26-71.6 119.538-67.32 120.403-61.86C120.553-60.91 120.56-59.74 120.56-56.87L120.56-42.35C120.56-41.73 121.063-41.23 121.685-41.23C122.306-41.23 122.81-41.73 122.81-42.35L122.81-56.87C122.81-59.65 122.81-61.05 122.625-62.21C121.608-68.63 116.574-73.67 110.156-74.68C108.99-74.87 107.597-74.87 104.81-74.87L94.355-74.87C94.218-75.04 94.089-75.22 93.966-75.41L88.657-83.5C87.179-85.76 84.664-87.12 81.968-87.12L62.935-87.12ZM55.144-31.5C55.144-41.04 62.874-48.77 72.409-48.77C81.944-48.77 89.674-41.04 89.674-31.5C89.674-21.97 81.944-14.24 72.409-14.24C62.874-14.24 55.144-21.97 55.144-31.5Z"/>
   <path class="multicolor-3:custom hierarchical-3:primary SFSymbolsPreviewFBBC04" d="M95.864-72.62L104.81-72.62C107.683-72.62 108.857-72.61 109.804-72.46C115.26-71.6 119.538-67.32 120.403-61.86C120.553-60.91 120.56-59.74 120.56-56.87L120.56-32.35C120.56-31.73 121.063-31.23 121.685-31.23C122.306-31.23 122.81-31.73 122.81-32.35L122.81-56.87C122.81-59.65 122.81-61.05 122.625-62.21C121.608-68.63 116.574-73.67 110.156-74.68C108.99-74.87 107.597-74.87 104.81-74.87L94.432-74.87L95.864-72.62Z"/>
  </g>
  <g id="Black-S" transform="matrix(1 0 0 1 2868.71 696)">
   <path class="multicolor-0:custom hierarchical-0:primary SFSymbolsPreviewEA4335" d="M29.01-27.484C25.14-27.484 22.01-24.35 22.01-20.484L22.01-18.896C22.01-7.85 30.96 1.104 42.01 1.104L58.27 1.104C62.14 1.104 65.27-2.03 65.27-5.896C65.27-9.762 62.14-12.896 58.27-12.896L42.01-12.896C38.7-12.896 36.01-15.582 36.01-18.896L36.01-20.484C36.01-24.35 32.88-27.484 29.01-27.484Z"/>
   <path class="multicolor-1:custom hierarchical-1:secondary SFSymbolsPreview34A853" d="M104.36-12.398L104.36-12.398C104.36-6.59901 99.659-1.898 93.86-1.898L93.86-1.898C88.061-1.898 83.36-6.59901 83.36-12.398L83.36-12.398C83.36-18.197 88.061-22.898 93.86-22.898L93.86-22.898C99.659-22.898 104.36-18.197 104.36-12.398Z"/>
   <path class="multicolor-2:custom hierarchical-2:primary SFSymbolsPreview4183F0" d="M54.96-81.766C52.53-81.766 50.23-80.663 48.71-78.768L42.12-70.539L42.01-70.539C30.96-70.539 22.01-61.585 22.01-50.539L22.01-49.919C22.01-46.053 25.14-42.919 29.01-42.919C32.88-42.919 36.01-46.053 36.01-49.919L36.01-50.539C36.01-53.853 38.7-56.539 42.01-56.539L87.36-56.539C90.67-56.539 93.36-53.853 93.36-50.539L93.36-49.919C93.36-46.053 96.49-42.919 100.36-42.919C104.23-42.919 107.36-46.053 107.36-49.919L107.36-50.539C107.36-61.585 98.41-70.539 87.36-70.539L87.25-70.539L80.66-78.768C79.14-80.663 76.84-81.766 74.41-81.766L54.96-81.766ZM51.22-34.722C51.22-42.159 57.25-48.188 64.68-48.188C72.12-48.188 78.15-42.159 78.15-34.722C78.15-27.286 72.12-21.257 64.68-21.257C57.25-21.257 51.22-27.286 51.22-34.722Z"/>
   <path class="multicolor-3:custom hierarchical-3:primary SFSymbolsPreviewFBBC04" d="M92.69-53.297C93.12-52.471 93.36-51.532 93.36-50.537L93.36-38.917C93.36-35.051 96.49-31.917 100.36-31.917C104.23-31.917 107.36-35.051 107.36-38.917L107.36-50.537C107.36-61.583 98.41-70.537 87.36-70.537L87.25-70.537L87.18-70.625L92.69-53.297Z"/>
  </g>
  <g id="Heavy-S" transform="matrix(1 0 0 1 2572 696)">
   <path class="multicolor-0:custom hierarchical-0:primary SFSymbolsPreviewEA4335" d="M28.26-26.477C24.81-26.477 22.01-23.678 22.01-20.227L22.01-17.464C22.01-6.97 30.51 1.536 41.01 1.536L58.73 1.536C62.18 1.536 64.98-1.262 64.98-4.714C64.98-8.165 62.18-10.964 58.73-10.964L41.01-10.964C37.42-10.964 34.51-13.874 34.51-17.464L34.51-20.227C34.51-23.678 31.71-26.477 28.26-26.477Z"/>
   <path class="multicolor-1:custom hierarchical-1:secondary SFSymbolsPreview34A853" d="M104.36-11.961L104.36-11.961C104.36-6.16201 99.659-1.461 93.86-1.461L93.86-1.461C88.061-1.461 83.36-6.16201 83.36-11.961L83.36-11.961C83.36-17.76 88.061-22.461 93.86-22.461L93.86-22.461C99.659-22.461 104.36-17.76 104.36-11.961Z"/>
   <path class="multicolor-2:custom hierarchical-2:primary SFSymbolsPreview4183F0" d="M54.95-80.328C52.53-80.328 50.23-79.225 48.71-77.33L42.92-70.102L41.01-70.102C30.51-70.102 22.01-61.595 22.01-51.102L22.01-48.156C22.01-44.704 24.81-41.906 28.26-41.906C31.71-41.906 34.51-44.704 34.51-48.156L34.51-51.102C34.51-54.691 37.42-57.602 41.01-57.602L88.36-57.602C91.95-57.602 94.86-54.691 94.86-51.102L94.86-48.156C94.86-44.704 97.66-41.906 101.11-41.906C104.56-41.906 107.36-44.704 107.36-48.156L107.36-51.102C107.36-61.595 98.85-70.102 88.36-70.102L86.45-70.102L80.66-77.33C79.14-79.225 76.84-80.328 74.41-80.328L54.95-80.328ZM51.22-34.285C51.22-41.722 57.25-47.75 64.68-47.75C72.12-47.75 78.15-41.722 78.15-34.285C78.15-26.848 72.12-20.82 64.68-20.82C57.25-20.82 51.22-26.848 51.22-34.285Z"/>
   <path class="multicolor-3:custom hierarchical-3:primary SFSymbolsPreviewFBBC04" d="M93.32-55.291C94.28-54.158 94.86-52.694 94.86-51.094L94.86-38.148C94.86-34.697 97.66-31.898 101.11-31.898C104.56-31.898 107.36-34.697 107.36-38.148L107.36-51.094C107.36-61.587 98.85-70.094 88.36-70.094L86.45-70.094L86.39-70.164L93.32-55.291Z"/>
  </g>
  <g id="Bold-S" transform="matrix(1 0 0 1 2275.29 696)">
   <path class="multicolor-0:custom hierarchical-0:primary SFSymbolsPreviewEA4335" d="M27.26-26.477C24.36-26.477 22.01-24.126 22.01-21.227L22.01-16.432C22.01-6.491 30.07 1.568 40.01 1.568L59.45 1.568C62.35 1.568 64.7-0.783 64.7-3.682C64.7-6.582 62.35-8.932 59.45-8.932L40.01-8.932C35.87-8.932 32.51-12.29 32.51-16.432L32.51-21.227C32.51-24.126 30.16-26.477 27.26-26.477Z"/>
   <path class="multicolor-1:custom hierarchical-1:secondary SFSymbolsPreview34A853" d="M104.36-11.93L104.36-11.93C104.36-6.13101 99.659-1.43 93.86-1.43L93.86-1.43C88.061-1.43 83.36-6.13101 83.36-11.93L83.36-11.93C83.36-17.729 88.061-22.43 93.86-22.43L93.86-22.43C99.659-22.43 104.36-17.729 104.36-11.93Z"/>
   <path class="multicolor-2:custom hierarchical-2:primary SFSymbolsPreview4183F0" d="M54.96-80.305C52.53-80.305 50.23-79.202 48.71-77.307L42.91-70.07L40.01-70.07C30.07-70.07 22.01-62.011 22.01-52.07L22.01-47.156C22.01-44.257 24.36-41.906 27.26-41.906C30.16-41.906 32.51-44.257 32.51-47.156L32.51-52.07C32.51-56.212 35.87-59.57 40.01-59.57L89.36-59.57C93.5-59.57 96.86-56.212 96.86-52.07L96.86-47.156C96.86-44.257 99.21-41.906 102.11-41.906C105.01-41.906 107.36-44.257 107.36-47.156L107.36-52.07C107.36-62.011 99.3-70.07 89.36-70.07L86.45-70.07L80.66-77.307C79.14-79.202 76.84-80.305 74.41-80.305L54.96-80.305ZM51.22-34.254C51.22-41.69 57.25-47.719 64.68-47.719C72.12-47.719 78.15-41.69 78.15-34.254C78.15-26.817 72.12-20.789 64.68-20.789C57.25-20.789 51.22-26.817 51.22-34.254Z"/>
   <path class="multicolor-3:custom hierarchical-3:primary SFSymbolsPreviewFBBC04" d="M95-57.013C96.16-55.693 96.86-53.964 96.86-52.07L96.86-38.156C96.86-35.257 99.21-32.906 102.11-32.906C105.01-32.906 107.36-35.257 107.36-38.156L107.36-52.07C107.36-62.011 99.3-70.07 89.36-70.07L86.5-70.07L95-57.013Z"/>
  </g>
  <g id="Semibold-S" transform="matrix(1 0 0 1 1978.58 696)">
   <path class="multicolor-0:custom hierarchical-0:primary SFSymbolsPreviewEA4335" d="M26.63-24.562C24.08-24.562 22.01-22.492 22.01-19.938L22.01-13.46C22.01-4.071 29.62 3.54 39.01 3.54L60.77 3.54C63.32 3.54 65.39 1.47 65.39-1.085C65.39-3.639 63.32-5.71 60.77-5.71L39.01-5.71C34.73-5.71 31.26-9.179 31.26-13.46L31.26-19.938C31.26-22.492 29.19-24.562 26.63-24.562Z"/>
   <path class="multicolor-1:custom hierarchical-1:secondary SFSymbolsPreview34A853" d="M104.36-9.961L104.36-9.961C104.36-4.16201 99.659 0.539 93.86 0.539L93.86 0.539C88.061 0.539 83.36-4.16201 83.36-9.961L83.36-9.961C83.36-15.76 88.061-20.461 93.86-20.461L93.86-20.461C99.659-20.461 104.36-15.76 104.36-9.961Z"/>
   <path class="multicolor-2:custom hierarchical-2:primary SFSymbolsPreview4183F0" d="M54.95-78.336C52.52-78.336 50.23-77.233 48.71-75.338L42.91-68.102L39.01-68.102C29.62-68.102 22.01-60.49 22.01-51.102L22.01-44.621C22.01-42.067 24.08-39.996 26.63-39.996C29.19-39.996 31.26-42.067 31.26-44.621L31.26-51.102C31.26-55.382 34.73-58.852 39.01-58.852L90.36-58.852C94.64-58.852 98.11-55.382 98.11-51.102L98.11-44.621C98.11-42.067 100.18-39.996 102.73-39.996C105.29-39.996 107.36-42.067 107.36-44.621L107.36-51.102C107.36-60.49 99.74-68.102 90.36-68.102L86.45-68.102L80.65-75.338C79.13-77.233 76.84-78.336 74.41-78.336L54.95-78.336ZM51.22-32.285C51.22-39.722 57.25-45.75 64.68-45.75C72.12-45.75 78.15-39.722 78.15-32.285C78.15-24.848 72.12-18.82 64.68-18.82C57.25-18.82 51.22-24.848 51.22-32.285Z"/>
   <path class="multicolor-3:custom hierarchical-3:primary SFSymbolsPreviewFBBC04" d="M94.72-57.507C96.76-56.112 98.11-53.763 98.11-51.102L98.11-36.621C98.11-34.067 100.18-31.996 102.73-31.996C105.28-31.996 107.36-34.067 107.36-36.621L107.36-51.102C107.36-60.49 99.74-68.102 90.36-68.102L86.49-68.102L94.72-57.507Z"/>
  </g>
  <g id="Medium-S" transform="matrix(1 0 0 1 1681.87 696)">
   <path class="multicolor-0:custom hierarchical-0:primary SFSymbolsPreviewEA4335" d="M26.13-24.484C23.86-24.484 22.01-22.638 22.01-20.359L22.01-12.518C22.01-3.682 29.17 3.482 38.01 3.482L60.99 3.482C63.27 3.482 65.12 1.635 65.12-0.643C65.12-2.921 63.27-4.768 60.99-4.768L38.01-4.768C33.73-4.768 30.26-8.238 30.26-12.518L30.26-20.359C30.26-22.638 28.41-24.484 26.13-24.484Z"/>
   <path class="multicolor-1:custom hierarchical-1:secondary SFSymbolsPreview34A853" d="M104.36-10.016L104.36-10.016C104.36-4.21701 99.659 0.484 93.86 0.484L93.86 0.484C88.061 0.484 83.36-4.21701 83.36-10.016L83.36-10.016C83.36-15.815 88.061-20.516 93.86-20.516L93.86-20.516C99.659-20.516 104.36-15.815 104.36-10.016Z"/>
   <path class="multicolor-2:custom hierarchical-2:primary SFSymbolsPreview4183F0" d="M55.34-79.383C52.91-79.383 50.62-78.28 49.1-76.385L42.5-68.156L38.01-68.156C29.17-68.156 22.01-60.993 22.01-52.156L22.01-44.039C22.01-41.761 23.86-39.914 26.13-39.914C28.41-39.914 30.26-41.761 30.26-44.039L30.26-52.156C30.26-56.436 33.73-59.906 38.01-59.906L91.36-59.906C95.64-59.906 99.11-56.436 99.11-52.156L99.11-44.039C99.11-41.761 100.96-39.914 103.23-39.914C105.51-39.914 107.36-41.761 107.36-44.039L107.36-52.156C107.36-60.993 100.2-68.156 91.36-68.156L87.63-68.156L81.04-76.385C79.52-78.28 77.23-79.383 74.8-79.383L55.34-79.383ZM51.22-32.332C51.22-39.768 57.25-45.797 64.68-45.797C72.12-45.797 78.15-39.768 78.15-32.332C78.15-24.895 72.12-18.867 64.68-18.867C57.25-18.867 51.22-24.895 51.22-32.332Z"/>
   <path class="multicolor-3:custom hierarchical-3:primary SFSymbolsPreviewFBBC04" d="M94.64-59.179C97.28-57.944 99.11-55.264 99.11-52.156L99.11-36.039C99.11-33.761 100.96-31.914 103.23-31.914C105.51-31.914 107.36-33.761 107.36-36.039L107.36-52.156C107.36-60.993 100.2-68.156 91.36-68.156L87.67-68.156L94.64-59.179Z"/>
  </g>
  <g id="Regular-S" transform="matrix(1 0 0 1 1385.15 696)">
   <path class="multicolor-0:custom hierarchical-0:primary SFSymbolsPreviewEA4335" d="M29.16-20.878L29.16-11.354C29.16-7.019 32.68-3.504 37.01-3.504L61.26-3.504C63.24-3.504 64.84-1.904 64.84 0.071C64.84 2.045 63.24 3.646 61.26 3.646L37.01 3.646C28.73 3.646 22.01-3.07 22.01-11.354L22.01-20.878C22.01-22.853 23.61-24.453 25.59-24.453C27.56-24.453 29.16-22.853 29.16-20.878Z"/>
   <path class="multicolor-1:custom hierarchical-1:secondary SFSymbolsPreview34A853" d="M104.36-9.852L104.36-9.852C104.36-4.05301 99.659 0.648 93.86 0.648L93.86 0.648C88.061 0.648 83.36-4.05301 83.36-9.852L83.36-9.852C83.36-15.651 88.061-20.352 93.86-20.352L93.86-20.352C99.659-20.352 104.36-15.651 104.36-9.852Z"/>
   <path class="multicolor-2:custom hierarchical-2:primary SFSymbolsPreview4183F0" d="M48.71-76.229C50.23-78.124 52.53-79.227 54.96-79.227L74.42-79.227C76.84-79.227 79.14-78.124 80.66-76.229L87.26-67.992L92.36-67.992C100.65-67.992 107.36-61.276 107.36-52.992L107.36-43.458C107.36-41.483 105.76-39.883 103.79-39.883C101.81-39.883 100.21-41.483 100.21-43.458L100.21-52.992C100.21-57.328 96.7-60.842 92.36-60.842L37.01-60.842C32.68-60.842 29.16-57.328 29.16-52.992L29.16-43.458C29.16-41.483 27.56-39.883 25.59-39.883C23.61-39.883 22.01-41.483 22.01-43.458L22.01-52.992C22.01-61.276 28.73-67.992 37.01-67.992L42.12-67.992L48.71-76.229ZM64.69-45.641C57.25-45.641 51.22-39.612 51.22-32.176C51.22-24.739 57.25-18.711 64.69-18.711C72.12-18.711 78.15-24.739 78.15-32.176C78.15-39.612 72.12-45.641 64.69-45.641Z"/>
   <path class="multicolor-3:custom hierarchical-3:primary SFSymbolsPreviewFBBC04" d="M92.8-60.829C96.93-60.601 100.21-57.179 100.21-52.991L100.21-35.457C100.21-33.483 101.81-31.882 103.79-31.882C105.76-31.882 107.36-33.483 107.36-35.457L107.36-52.991C107.36-61.276 100.65-67.991 92.36-67.991L87.26-67.991L86.66-68.742L92.8-60.829Z"/>
  </g>
  <g id="Light-S" transform="matrix(1 0 0 1 1088.44 696)">
   <path class="multicolor-0:custom hierarchical-0:primary SFSymbolsPreviewEA4335" d="M24.76-24.562C23.24-24.562 22.01-23.331 22.01-21.812L22.01-10.464C22.01-2.732 28.28 3.536 36.01 3.536L61.8 3.536C63.32 3.536 64.55 2.305 64.55 0.786C64.55-0.732 63.32-1.964 61.8-1.964L36.01-1.964C31.32-1.964 27.51-5.769 27.51-10.464L27.51-21.812C27.51-23.331 26.28-24.562 24.76-24.562Z"/>
   <path class="multicolor-1:custom hierarchical-1:secondary SFSymbolsPreview34A853" d="M104.36-9.961L104.36-9.961C104.36-4.16201 99.659 0.539 93.86 0.539L93.86 0.539C88.061 0.539 83.36-4.16201 83.36-9.961L83.36-9.961C83.36-15.76 88.061-20.461 93.86-20.461L93.86-20.461C99.659-20.461 104.36-15.76 104.36-9.961Z"/>
   <path class="multicolor-2:custom hierarchical-2:primary SFSymbolsPreview4183F0" d="M48.72-75.33C50.23-77.225 52.53-78.328 54.96-78.328L74.42-78.328C76.85-78.328 79.14-77.225 80.66-75.33L86.45-68.102L93.36-68.102C101.09-68.102 107.36-61.834 107.36-54.102L107.36-42.742C107.36-41.223 106.13-39.992 104.61-39.992C103.09-39.992 101.86-41.223 101.86-42.742L101.86-54.102C101.86-58.796 98.06-62.602 93.36-62.602L36.01-62.602C31.32-62.602 27.51-58.796 27.51-54.102L27.51-42.742C27.51-41.223 26.28-39.992 24.76-39.992C23.24-39.992 22.01-41.223 22.01-42.742L22.01-54.102C22.01-61.834 28.28-68.102 36.01-68.102L42.92-68.102L48.72-75.33ZM64.69-45.75C57.25-45.75 51.22-39.722 51.22-32.285C51.22-24.848 57.25-18.82 64.69-18.82C72.12-18.82 78.15-24.848 78.15-32.285C78.15-39.722 72.12-45.75 64.69-45.75Z"/>
   <path class="multicolor-3:custom hierarchical-3:primary SFSymbolsPreviewFBBC04" d="M90.78-62.602L93.36-62.602C98.06-62.602 101.86-58.796 101.86-54.102L101.86-34.742C101.86-33.223 103.09-31.992 104.61-31.992C106.13-31.992 107.36-33.223 107.36-34.742L107.36-54.102C107.36-61.834 101.09-68.102 93.36-68.102L86.51-68.102L90.78-62.602Z"/>
  </g>
  <g id="Thin-S" transform="matrix(1 0 0 1 791.732 696)">
   <path class="multicolor-0:custom hierarchical-0:primary SFSymbolsPreviewEA4335" d="M23.635-24.484C22.738-24.484 22.01-23.757 22.01-22.859L22.01-9.385C22.01-2.206 27.83 3.615 35.01 3.615L63.624 3.615C64.522 3.615 65.249 2.887 65.249 1.99C65.249 1.092 64.522 0.365 63.624 0.365L35.01 0.365C29.625 0.365 25.26-4.001 25.26-9.385L25.26-22.859C25.26-23.757 24.533-24.484 23.635-24.484Z"/>
   <path class="multicolor-1:custom hierarchical-1:secondary SFSymbolsPreview34A853" d="M104.36-9.883L104.36-9.883C104.36-4.08401 99.659 0.617 93.86 0.617L93.86 0.617C88.061 0.617 83.36-4.08401 83.36-9.883L83.36-9.883C83.36-15.682 88.061-20.383 93.86-20.383L93.86-20.383C99.659-20.383 104.36-15.682 104.36-9.883Z"/>
   <path class="multicolor-2:custom hierarchical-2:primary SFSymbolsPreview4183F0" d="M48.713-75.26C50.231-77.155 52.528-78.258 54.956-78.258L74.414-78.258C76.842-78.258 79.139-77.155 80.657-75.26L86.455-68.023L94.36-68.023C101.54-68.023 107.36-62.203 107.36-55.023L107.36-41.539C107.36-40.642 106.633-39.914 105.735-39.914C104.838-39.914 104.11-40.642 104.11-41.539L104.11-55.023C104.11-60.408 99.745-64.773 94.36-64.773L35.01-64.773C29.625-64.773 25.26-60.408 25.26-55.023L25.26-41.539C25.26-40.642 24.533-39.914 23.635-39.914C22.738-39.914 22.01-40.642 22.01-41.539L22.01-55.023C22.01-62.203 27.83-68.023 35.01-68.023L42.914-68.023L48.713-75.26ZM64.685-45.672C57.249-45.672 51.22-39.643 51.22-32.207C51.22-24.77 57.249-18.742 64.685-18.742C72.122-18.742 78.15-24.77 78.15-32.207C78.15-39.643 72.122-45.672 64.685-45.672Z"/>
   <path class="multicolor-3:custom hierarchical-3:primary SFSymbolsPreviewFBBC04" d="M89.016-64.773L94.36-64.773C99.745-64.773 104.11-60.408 104.11-55.023L104.11-33.539C104.11-32.642 104.838-31.914 105.735-31.914C106.633-31.914 107.36-32.642 107.36-33.539L107.36-55.023C107.36-62.203 101.54-68.023 94.36-68.023L86.492-68.023L89.016-64.773Z"/>
  </g>
  <g id="Ultralight-S" transform="matrix(1 0 0 1 495.021 696)">
   <path class="multicolor-0:custom hierarchical-0:primary SFSymbolsPreviewEA4335" d="M23.01-24.117C22.458-24.117 22.01-23.669 22.01-23.117L22.01-7.852C22.01-1.224 27.383 4.148 34.01 4.148L63.967 4.148C64.519 4.148 64.967 3.701 64.967 3.148C64.967 2.596 64.519 2.148 63.967 2.148L34.01 2.148C28.487 2.148 24.01-2.329 24.01-7.852L24.01-23.117C24.01-23.669 23.562-24.117 23.01-24.117Z"/>
   <path class="multicolor-1:custom hierarchical-1:secondary SFSymbolsPreview34A853" d="M104.36-9.352L104.36-9.352C104.36-3.55301 99.659 1.148 93.86 1.148L93.86 1.148C88.061 1.148 83.36-3.55301 83.36-9.352L83.36-9.352C83.36-15.151 88.061-19.852 93.86-19.852L93.86-19.852C99.659-19.852 104.36-15.151 104.36-9.352Z"/>
   <path class="multicolor-2:custom hierarchical-2:primary SFSymbolsPreview4183F0" d="M48.713-74.237C50.231-76.132 52.528-77.234 54.956-77.234L74.414-77.234C76.842-77.234 79.139-76.132 80.657-74.237L85.26-68.492L95.36-68.492C101.987-68.492 107.36-63.12 107.36-56.492L107.36-41.227C107.36-40.674 106.912-40.227 106.36-40.227C105.808-40.227 105.36-40.674 105.36-41.227L105.36-56.492C105.36-62.015 100.883-66.492 95.36-66.492L34.01-66.492C28.487-66.492 24.01-62.015 24.01-56.492L24.01-41.227C24.01-40.674 23.562-40.227 23.01-40.227C22.458-40.227 22.01-40.674 22.01-41.227L22.01-56.492C22.01-63.12 27.383-68.492 34.01-68.492L44.11-68.492L48.713-74.237ZM64.685-45.641C57.248-45.641 51.22-39.612 51.22-32.176C51.22-24.739 57.248-18.711 64.685-18.711C72.122-18.711 78.15-24.739 78.15-32.176C78.15-39.612 72.122-45.641 64.685-45.641Z"/>
   <path class="multicolor-3:custom hierarchical-3:primary SFSymbolsPreviewFBBC04" d="M86.931-66.492L95.36-66.492C100.883-66.492 105.36-62.015 105.36-56.492L105.36-33.227C105.36-32.674 105.808-32.227 106.36-32.227C106.912-32.227 107.36-32.674 107.36-33.227L107.36-56.492C107.36-63.12 101.987-68.492 95.36-68.492L85.378-68.492L86.931-66.492Z"/>
  </g>
 </g>
</svg>
