<?xml version="1.0" encoding="UTF-8" ?>
<!DOCTYPE svg PUBLIC "-//W3C//DTD SVG 1.1//EN" "http://www.w3.org/Graphics/SVG/1.1/DTD/svg11.dtd">
<svg width="96px" height="96px" viewBox="0 0 96 96" version="1.1" xmlns="http://www.w3.org/2000/svg">
<path fill="#f79439" d="M 10.0 0.0 L 86.0 0.0 Q 96.0 0.0 96.0 10.0 L 96.0 86.0 Q 96.0 96.0 86.0 96.0 L 10.0 96.0 Q 0.0 96.0 0.0 86.0 L 0.0 10.0 Q 0.0 0.0 10.0 0.0 Z" />
<path fill="#ffffff" d="M 10.11 8.9 C 19.04 8.53 27.98 8.55 36.92 8.87 C 40.49 14.57 43.05 20.81 46.24 26.71 C 48.15 30.23 49.85 33.87 51.17 37.66 C 48.01 39.62 44.89 41.65 41.78 43.71 C 41.54 46.84 41.37 49.97 41.15 53.1 C 36.16 54.5 31.04 55.33 25.97 56.32 C 30.35 58.57 34.84 60.62 39.09 63.11 C 38.78 69.68 38.04 76.22 36.79 82.67 C 27.95 84.6 19.0 86.02 10.09 87.59 C 9.98 61.37 9.82 35.13 10.11 8.9 Z" />
<path fill="#ffffff" d="M 68.34 15.98 C 82.83 25.57 88.31 45.55 82.64 61.67 C 79.98 69.55 74.64 76.34 67.95 81.21 C 66.52 79.27 65.14 77.31 63.79 75.32 C 67.35 71.69 71.15 68.13 73.55 63.59 C 78.82 53.91 78.51 41.52 72.95 32.03 C 70.62 28.08 67.2 24.94 64.07 21.63 C 65.48 19.74 66.9 17.86 68.34 15.98 Z" />
<path fill="#ffffff" d="M 55.94 30.88 C 57.46 29.23 58.99 27.6 60.56 26.0 C 66.92 31.18 71.64 38.76 71.76 47.14 C 72.37 56.41 67.64 65.53 60.01 70.72 C 58.68 68.96 57.36 67.2 56.05 65.43 C 60.68 60.78 65.16 55.05 64.75 48.08 C 65.08 41.12 60.22 35.74 55.94 30.88 Z" />
</svg>
