<svg xmlns="http://www.w3.org/2000/svg" fill="none" viewBox="0 0 17 18"><path d="m13.92 11.56-1.23-1.23a3.95 3.95 0 0 0 .44-1.79h1.66a5.67 5.67 0 0 1-.87 3.02ZM11.6 9.25 6.38 4.02v-.69c.04-.68.3-1.25.8-1.73A2.58 2.58 0 0 1 9.03.87c.75 0 1.39.27 1.92.8.53.52.79 1.16.79 1.91v4.96c0 .11-.01.23-.04.36-.02.12-.04.24-.09.35Zm-3.4 7.06v-2.08a5.4 5.4 0 0 1-3.53-1.9 5.64 5.64 0 0 1-1.4-3.79h1.65c0 1.14.4 2.11 1.18 2.92a4.01 4.01 0 0 0 5.59.1l1.2 1.19a5.52 5.52 0 0 1-3.04 1.48v2.08H8.21Zm6.78.77L.85 2.94l1.1-1.1 14.13 14.14-1.1 1.1Z"/></svg>
