<svg xmlns="http://www.w3.org/2000/svg" fill="none" viewBox="0 0 20 20"><path fill-rule="evenodd" d="M11.478 18H8.52c-.592 0-1.088-.422-1.16-.992l-.216-1.475a7.277 7.277 0 0 1-.631-.36l-1.44.563c-.56.202-1.176-.024-1.448-.508l-1.463-2.475c-.28-.516-.16-1.125.288-1.469l1.223-.929a5.168 5.168 0 0 1-.016-.359c0-.117.008-.242.016-.36l-1.215-.928A1.106 1.106 0 0 1 2.16 7.24l1.48-2.491c.271-.484.887-.703 1.431-.492l1.448.57a8.51 8.51 0 0 1 .623-.36l.216-1.49C7.431 2.428 7.927 2 8.511 2h2.96c.59 0 1.087.422 1.159.992l.216 1.476c.216.109.424.226.631.359l1.44-.562c.568-.204 1.184.023 1.456.507l1.471 2.483a1.13 1.13 0 0 1-.288 1.468l-1.215.93c.008.117.016.234.016.359 0 .125-.008.242-.016.359l1.215.93c.448.35.576.96.296 1.452l-1.487 2.514c-.272.484-.888.703-1.44.492l-1.44-.562a8.54 8.54 0 0 1-.623.359l-.216 1.491c-.08.531-.576.953-1.168.953Zm-2.531-2h2.114l.283-1.854.406-.16c.337-.132.674-.32 1.026-.568l.345-.247 1.822.698L16 12.124l-1.555-1.15.054-.407c.023-.189.046-.37.046-.567 0-.196-.023-.385-.046-.567l-.054-.408L16 7.876l-1.065-1.745-1.83.698-.344-.254a4.632 4.632 0 0 0-1.019-.56l-.398-.16L11.061 4H8.947l-.283 1.855-.406.152a4.91 4.91 0 0 0-1.026.575l-.345.24-1.823-.691L4 7.869l1.555 1.15-.054.406c-.023.19-.046.386-.046.575 0 .19.015.386.046.567l.054.408L4 12.123l1.057 1.745 1.83-.698.345.255c.329.24.658.421 1.018.56l.406.16L8.947 16ZM10 12.5a2.5 2.5 0 1 0 0-5 2.5 2.5 0 0 0 0 5Z" clip-rule="evenodd"/></svg>
