<svg width="131" height="130" viewBox="0 0 131 130" fill="none" xmlns="http://www.w3.org/2000/svg">
<path d="M75.5 24C78.8137 24 81.5 26.6863 81.5 30V52H55.5C51.0817 52 47.5 55.5817 47.5 60V76H22.5C19.1863 76 16.5 73.3137 16.5 70V30C16.5 26.6863 19.1863 24 22.5 24H75.5Z" fill="#0842A0"/>
<rect width="65" height="52" rx="6" transform="matrix(-1 0 0 1 114.5 54)" fill="#0B57D0"/>
<rect x="52.5" y="57" width="59" height="46" rx="3" stroke="#0842A0" stroke-width="2" stroke-dasharray="2 3"/>
<g clip-path="url(#clip0_3183_279822)">
<path d="M81.75 84H83.25V80.75H86.5V79.25H83.25V76H81.75V79.25H78.5V80.75H81.75V84ZM82.5 88C81.4028 88 80.3681 87.7917 79.3958 87.375C78.4236 86.9583 77.5694 86.3889 76.8333 85.6667C76.1111 84.9306 75.5417 84.0764 75.125 83.1042C74.7083 82.1319 74.5 81.0972 74.5 80C74.5 78.8889 74.7083 77.8542 75.125 76.8958C75.5417 75.9236 76.1111 75.0764 76.8333 74.3542C77.5694 73.6181 78.4236 73.0417 79.3958 72.625C80.3681 72.2083 81.4028 72 82.5 72C83.6111 72 84.6458 72.2083 85.6042 72.625C86.5764 73.0417 87.4236 73.6181 88.1458 74.3542C88.8819 75.0764 89.4583 75.9236 89.875 76.8958C90.2917 77.8542 90.5 78.8889 90.5 80C90.5 81.0972 90.2917 82.1319 89.875 83.1042C89.4583 84.0764 88.8819 84.9306 88.1458 85.6667C87.4236 86.3889 86.5764 86.9583 85.6042 87.375C84.6458 87.7917 83.6111 88 82.5 88ZM82.5 86.5C84.3056 86.5 85.8403 85.8681 87.1042 84.6042C88.3681 83.3403 89 81.8056 89 80C89 78.1944 88.3681 76.6597 87.1042 75.3958C85.8403 74.1319 84.3056 73.5 82.5 73.5C80.6944 73.5 79.1597 74.1319 77.8958 75.3958C76.6319 76.6597 76 78.1944 76 80C76 81.8056 76.6319 83.3403 77.8958 84.6042C79.1597 85.8681 80.6944 86.5 82.5 86.5Z" fill="#7CACF8"/>
</g>
<mask id="mask0_3183_279822" style="mask-type:alpha" maskUnits="userSpaceOnUse" x="16" y="24" width="66" height="52">
<path d="M75.5 24C78.8137 24 81.5 26.6863 81.5 30V52H55.5C51.0817 52 47.5 55.5817 47.5 60V76H22.5C19.1863 76 16.5 73.3137 16.5 70V30C16.5 26.6863 19.1863 24 22.5 24H75.5Z" fill="#0842A0"/>
</mask>
<g mask="url(#mask0_3183_279822)">
<rect x="26.5" y="34" width="45" height="25" rx="1" fill="#0B57D0"/>
</g>
<mask id="mask1_3183_279822" style="mask-type:alpha" maskUnits="userSpaceOnUse" x="26" y="34" width="46" height="25">
<path d="M70.5 34C71.0523 34 71.5 34.4477 71.5 35V52H55.5C51.4205 52 48.0567 55.0538 47.5645 59H27.5C26.9477 59 26.5 58.5523 26.5 58V35C26.5 34.4477 26.9477 34 27.5 34H70.5Z" fill="#0B57D0"/>
</mask>
<g mask="url(#mask1_3183_279822)">
<path d="M80.6481 10H64.3519V12.5925H58.7963V15.9259H55.463V21.8519H52.5V38.1481H55.463V44.0741H58.7963V47.4073H64.3519V50H80.6481V47.4073H86.2037V44.0741H89.537V38.1481H92.5V21.8519H89.537V15.9259H86.2037V12.5925H80.6481V10Z" fill="#1B6EF3"/>
<path d="M41.5 57.4375C41.5 60.931 41.5 62.6778 40.9514 64.0635C40.1573 66.0692 38.5692 67.6573 36.5635 68.4514C35.1778 69 33.431 69 29.9375 69H28.0625C24.569 69 22.8222 69 21.4365 68.4514C19.4308 67.6573 17.8427 66.0692 17.0486 64.0635C16.5 62.6778 16.5 60.931 16.5 57.4375L16.5 55.5625C16.5 52.069 16.5 50.3222 17.0486 48.9365C17.8427 46.9308 19.4308 45.3427 21.4365 44.5486C22.8222 44 24.569 44 28.0625 44L29.9375 44C33.431 44 35.1778 44 36.5635 44.5486C38.5692 45.3427 40.1573 46.9308 40.9514 48.9365C41.5 50.3222 41.5 52.069 41.5 55.5625V57.4375Z" fill="#1B6EF3"/>
</g>
<defs>
<clipPath id="clip0_3183_279822">
<rect width="20" height="20" fill="white" transform="translate(72.5 70)"/>
</clipPath>
</defs>
</svg>
