<svg width="3300" height="2200" viewBox="0 0 3300 2200" fill="none" xmlns="http://www.w3.org/2000/svg">
<g id="text.analysis.cr" clip-path="url(#clip0_2538_5540)">
<g id="Notes">
<path id="artboard" d="M3300 0H0V2200H3300V0Z" fill="white"/>
<path id="Vector" d="M263 292H3036" stroke="black" stroke-width="0.5"/>
<text id="Weight/Scale Variations" fill="black" style="white-space: pre" xml:space="preserve" font-family="Inter" font-size="13" font-weight="bold" letter-spacing="0em"><tspan x="263" y="321.727">Weight/Scale Variations</tspan></text>
<text id="Ultralight" fill="black" style="white-space: pre" xml:space="preserve" font-family="Inter" font-size="13" letter-spacing="0em"><tspan x="531.661" y="321.727">Ultralight</tspan></text>
<text id="Thin" fill="black" style="white-space: pre" xml:space="preserve" font-family="Inter" font-size="13" letter-spacing="0em"><tspan x="843.067" y="321.727">Thin</tspan></text>
<text id="Light" fill="black" style="white-space: pre" xml:space="preserve" font-family="Inter" font-size="13" letter-spacing="0em"><tspan x="1137.77" y="321.727">Light</tspan></text>
<text id="Regular" fill="black" style="white-space: pre" xml:space="preserve" font-family="Inter" font-size="13" letter-spacing="0em"><tspan x="1426.58" y="321.727">Regular</tspan></text>
<text id="Medium" fill="black" style="white-space: pre" xml:space="preserve" font-family="Inter" font-size="13" letter-spacing="0em"><tspan x="1721.99" y="321.727">Medium</tspan></text>
<text id="Semibold" fill="black" style="white-space: pre" xml:space="preserve" font-family="Inter" font-size="13" letter-spacing="0em"><tspan x="2014.65" y="321.727">Semibold</tspan></text>
<text id="Bold" fill="black" style="white-space: pre" xml:space="preserve" font-family="Inter" font-size="13" letter-spacing="0em"><tspan x="2326.29" y="321.727">Bold</tspan></text>
<text id="Heavy" fill="black" style="white-space: pre" xml:space="preserve" font-family="Inter" font-size="13" letter-spacing="0em"><tspan x="2617.32" y="321.727">Heavy</tspan></text>
<text id="Black" fill="black" style="white-space: pre" xml:space="preserve" font-family="Inter" font-size="13" letter-spacing="0em"><tspan x="2916.8" y="321.727">Black</tspan></text>
<path id="Vector_2" d="M263 1903H3036" stroke="black" stroke-width="0.5"/>
<g id="Group">
<path id="Vector_3" d="M272.248 1933.83C276.604 1933.83 280.139 1930.31 280.139 1925.95C280.139 1921.6 276.604 1918.07 272.248 1918.07C267.902 1918.07 264.367 1921.6 264.367 1925.95C264.367 1930.31 267.902 1933.83 272.248 1933.83ZM272.248 1932.35C268.713 1932.35 265.861 1929.49 265.861 1925.95C265.861 1922.42 268.713 1919.55 272.248 1919.55C275.783 1919.55 278.645 1922.42 278.645 1925.95C278.645 1929.49 275.783 1932.35 272.248 1932.35ZM272.971 1928.79V1923.1C272.971 1922.65 272.678 1922.35 272.229 1922.35C271.799 1922.35 271.506 1922.65 271.506 1923.1V1928.79C271.506 1929.23 271.799 1929.54 272.229 1929.54C272.678 1929.54 272.971 1929.23 272.971 1928.79ZM269.406 1926.67H275.09C275.529 1926.67 275.832 1926.38 275.832 1925.95C275.832 1925.51 275.529 1925.21 275.09 1925.21H269.406C268.957 1925.21 268.654 1925.51 268.654 1925.95C268.654 1926.38 268.957 1926.67 269.406 1926.67Z" fill="black"/>
</g>
<g id="Group_2">
<path id="Vector_4" d="M293.215 1935.91C298.713 1935.91 303.176 1931.44 303.176 1925.95C303.176 1920.45 298.713 1915.98 293.215 1915.98C287.717 1915.98 283.254 1920.45 283.254 1925.95C283.254 1931.44 287.717 1935.91 293.215 1935.91ZM293.215 1934.25C288.625 1934.25 284.914 1930.54 284.914 1925.95C284.914 1921.36 288.625 1917.64 293.215 1917.64C297.805 1917.64 301.516 1921.36 301.516 1925.95C301.516 1930.54 297.805 1934.25 293.215 1934.25ZM294.026 1929.63V1922.24C294.026 1921.75 293.684 1921.4 293.195 1921.4C292.717 1921.4 292.385 1921.75 292.385 1922.24V1929.63C292.385 1930.12 292.717 1930.46 293.195 1930.46C293.684 1930.46 294.026 1930.13 294.026 1929.63ZM289.514 1926.75H296.906C297.395 1926.75 297.736 1926.42 297.736 1925.95C297.736 1925.46 297.395 1925.12 296.906 1925.12H289.514C289.016 1925.12 288.684 1925.46 288.684 1925.95C288.684 1926.42 289.016 1926.75 289.514 1926.75Z" fill="black"/>
</g>
<g id="Group_3">
<path id="Vector_5" d="M319.895 1938.67C326.916 1938.67 332.619 1932.97 332.619 1925.95C332.619 1918.93 326.916 1913.23 319.895 1913.23C312.873 1913.23 307.18 1918.93 307.18 1925.95C307.18 1932.97 312.873 1938.67 319.895 1938.67ZM319.895 1936.85C313.869 1936.85 308.996 1931.98 308.996 1925.95C308.996 1919.93 313.869 1915.05 319.895 1915.05C325.92 1915.05 330.793 1919.93 330.793 1925.95C330.793 1931.98 325.92 1936.85 319.895 1936.85ZM320.783 1930.79V1921.09C320.783 1920.54 320.412 1920.16 319.875 1920.16C319.358 1920.16 318.987 1920.54 318.987 1921.09V1930.79C318.987 1931.32 319.358 1931.7 319.875 1931.7C320.412 1931.7 320.783 1931.33 320.783 1930.79ZM315.041 1926.83H324.738C325.276 1926.83 325.656 1926.47 325.656 1925.95C325.656 1925.4 325.285 1925.03 324.738 1925.03H315.041C314.494 1925.03 314.123 1925.4 314.123 1925.95C314.123 1926.47 314.494 1926.83 315.041 1926.83Z" fill="black"/>
</g>
<text id="Design Variations" fill="black" style="white-space: pre" xml:space="preserve" font-family="Inter" font-size="13" font-weight="bold" letter-spacing="0em"><tspan x="263" y="1952.73">Design Variations</tspan></text>
<text id="Symbols are supported in up to nine weights and three scales." fill="black" style="white-space: pre" xml:space="preserve" font-family="Inter" font-size="13" letter-spacing="0em"><tspan x="263" y="1970.73">Symbols are supported in up to nine weights and three scales.</tspan></text>
<text id="For optimal layout with text and other symbols, vertically align" fill="black" style="white-space: pre" xml:space="preserve" font-family="Inter" font-size="13" letter-spacing="0em"><tspan x="263" y="1988.73">For optimal layout with text and other symbols, vertically align</tspan></text>
<text id="symbols with the adjacent text." fill="black" style="white-space: pre" xml:space="preserve" font-family="Inter" font-size="13" letter-spacing="0em"><tspan x="263" y="2006.73">symbols with the adjacent text.</tspan></text>
<path id="Vector_6" d="M776 1919V1933" stroke="#00AEEF" stroke-width="0.5"/>
<g id="Group_4">
<path id="Vector_7" d="M779.311 1933.16C779.828 1933.16 780.082 1932.96 780.268 1932.42L784.379 1920.91H784.428L788.549 1932.42C788.734 1932.96 788.988 1933.16 789.496 1933.16C790.014 1933.16 790.346 1932.85 790.346 1932.36C790.346 1932.19 790.316 1932.04 790.238 1931.83L785.658 1919.63C785.434 1919.04 785.033 1918.73 784.408 1918.73C783.803 1918.73 783.393 1919.03 783.178 1919.62L778.598 1931.84C778.52 1932.04 778.49 1932.2 778.49 1932.37C778.49 1932.86 778.803 1933.16 779.311 1933.16ZM781.352 1928.97H787.484C787.885 1928.97 788.217 1928.64 788.217 1928.24C788.217 1927.83 787.885 1927.5 787.484 1927.5H781.352C780.951 1927.5 780.619 1927.83 780.619 1928.24C780.619 1928.64 780.951 1928.97 781.352 1928.97Z" fill="black"/>
</g>
<path id="Vector_8" d="M792.836 1919V1933" stroke="#00AEEF" stroke-width="0.5"/>
<text id="Margins" fill="black" style="white-space: pre" xml:space="preserve" font-family="Inter" font-size="13" font-weight="bold" letter-spacing="0em"><tspan x="776" y="1952.73">Margins</tspan></text>
<text id="Leading and trailing margins on the left and right side of each symbol" fill="black" style="white-space: pre" xml:space="preserve" font-family="Inter" font-size="13" letter-spacing="0em"><tspan x="776" y="1970.73">Leading and trailing margins on the left and right side of each symbol</tspan></text>
<text id="can be adjusted by modifying the x-location of the margin guidelines." fill="black" style="white-space: pre" xml:space="preserve" font-family="Inter" font-size="13" letter-spacing="0em"><tspan x="776" y="1988.73">can be adjusted by modifying the x-location of the margin guidelines.</tspan></text>
<text id="Modifications are automatically applied proportionally to all" fill="black" style="white-space: pre" xml:space="preserve" font-family="Inter" font-size="13" letter-spacing="0em"><tspan x="776" y="2006.73">Modifications are automatically applied proportionally to all</tspan></text>
<text id="scales and weights." fill="black" style="white-space: pre" xml:space="preserve" font-family="Inter" font-size="13" letter-spacing="0em"><tspan x="776" y="2024.73">scales and weights.</tspan></text>
<g id="Group_5">
<path id="Vector_9" d="M1291.84 1935.63L1293.41 1937.2C1294.27 1938.08 1295.28 1938.02 1296.19 1936.99L1308.33 1923.35L1307.35 1922.37L1295.3 1935.91C1294.94 1936.3 1294.61 1936.4 1294.14 1935.93L1293.1 1934.9C1292.64 1934.45 1292.74 1934.11 1293.14 1933.74L1306.64 1921.31L1305.66 1920.34L1292.05 1932.86C1291.05 1933.78 1290.98 1934.76 1291.84 1935.63ZM1300.82 1916.13C1300.41 1916.53 1300.37 1917.11 1300.6 1917.49C1300.83 1917.85 1301.29 1918.1 1301.92 1917.94C1303.09 1917.61 1304.44 1917.46 1305.7 1918.13L1305.16 1919.55C1304.84 1920.35 1305.02 1920.93 1305.5 1921.44L1307.55 1923.5C1308.02 1923.98 1308.46 1923.99 1308.97 1923.89L1309.86 1923.74L1310.38 1924.25L1310.34 1924.7C1310.32 1925.16 1310.45 1925.56 1310.89 1926L1311.57 1926.66C1312.03 1927.12 1312.67 1927.16 1313.13 1926.7L1315.73 1924.09C1316.19 1923.62 1316.16 1923.02 1315.69 1922.56L1315.01 1921.88C1314.57 1921.44 1314.2 1921.27 1313.74 1921.3L1313.27 1921.35L1312.78 1920.86L1312.98 1919.92C1313.11 1919.38 1312.94 1918.93 1312.41 1918.4L1310.15 1916.16C1307.56 1913.6 1303.03 1913.96 1300.82 1916.13ZM1302.23 1916.54C1303.99 1915.27 1307.43 1915.41 1308.97 1916.94L1311.43 1919.38C1311.64 1919.58 1311.68 1919.74 1311.62 1920.04L1311.32 1921.37L1312.67 1922.71L1313.55 1922.66C1313.78 1922.65 1313.85 1922.67 1314.02 1922.83L1314.53 1923.33L1312.36 1925.5L1311.86 1925C1311.7 1924.83 1311.67 1924.76 1311.68 1924.52L1311.73 1923.65L1310.4 1922.31L1309.03 1922.54C1308.75 1922.6 1308.62 1922.58 1308.39 1922.36L1306.61 1920.59C1306.39 1920.38 1306.37 1920.25 1306.51 1919.91L1307.43 1917.62C1306.21 1916.35 1304.02 1916.11 1302.31 1916.7C1302.17 1916.75 1302.12 1916.62 1302.23 1916.54Z" fill="black"/>
</g>
<text id="Exporting" fill="black" style="white-space: pre" xml:space="preserve" font-family="Inter" font-size="13" font-weight="bold" letter-spacing="0em"><tspan x="1289" y="1952.73">Exporting</tspan></text>
<text id="Symbols should be outlined when exporting to ensure the" fill="black" style="white-space: pre" xml:space="preserve" font-family="Inter" font-size="13" letter-spacing="0em"><tspan x="1289" y="1970.73">Symbols should be outlined when exporting to ensure the</tspan></text>
<text id="design is preserved when submitting to Xcode." fill="black" style="white-space: pre" xml:space="preserve" font-family="Inter" font-size="13" letter-spacing="0em"><tspan x="1289" y="1988.73">design is preserved when submitting to Xcode.</tspan></text>
<text id="template-version" fill="black" style="white-space: pre" xml:space="preserve" font-family="Inter" font-size="13" letter-spacing="0em"><tspan x="2948.26" y="1932.73">Template v.7.0</tspan></text>
<text id="Requires Xcode 26 or greater" fill="black" style="white-space: pre" xml:space="preserve" font-family="Inter" font-size="13" letter-spacing="0em"><tspan x="2856.34" y="1950.73">Requires Xcode 26 or greater</tspan></text>
<text id="descriptive-name" fill="black" style="white-space: pre" xml:space="preserve" font-family="Inter" font-size="13" letter-spacing="0em"><tspan x="2863.39" y="1968.73">Generated from lanyardcard</tspan></text>
<text id="Typeset at 100.0 points" fill="black" style="white-space: pre" xml:space="preserve" font-family="Inter" font-size="13" letter-spacing="0em"><tspan x="2892.56" y="1986.73">Typeset at 100.0 points</tspan></text>
<text id="Small" fill="black" style="white-space: pre" xml:space="preserve" font-family="Inter" font-size="13" letter-spacing="0em"><tspan x="263" y="725.727">Small</tspan></text>
<text id="Medium_2" fill="black" style="white-space: pre" xml:space="preserve" font-family="Inter" font-size="13" letter-spacing="0em"><tspan x="263" y="1155.73">Medium</tspan></text>
<text id="Large" fill="black" style="white-space: pre" xml:space="preserve" font-family="Inter" font-size="13" letter-spacing="0em"><tspan x="263" y="1585.73">Large</tspan></text>
</g>
<g id="Guides">
<g id="H-reference">
<path id="Vector_10" d="M339.994 695.998H342.638L368.328 628.866H369.03V625.539H367.123L339.994 695.998ZM350.688 671.518H385.981L385.231 669.27H351.438L350.688 671.518ZM394.12 695.998H396.764L369.638 625.539H368.433V628.866L394.12 695.998Z" fill="#27AAE1"/>
</g>
<path id="Baseline-S" d="M263 696H3036" stroke="#27AAE1" stroke-width="0.5"/>
<path id="Capline-S" d="M263 625.539H3036" stroke="#27AAE1" stroke-width="0.5"/>
<g id="H-reference_2">
<path id="Vector_11" d="M339.994 1126H342.638L368.328 1058.87H369.03V1055.54H367.123L339.994 1126ZM350.688 1101.52H385.981L385.231 1099.27H351.438L350.688 1101.52ZM394.12 1126H396.764L369.638 1055.54H368.433V1058.87L394.12 1126Z" fill="#27AAE1"/>
</g>
<path id="Baseline-M" d="M263 1126H3036" stroke="#27AAE1" stroke-width="0.5"/>
<path id="Capline-M" d="M263 1055.54H3036" stroke="#27AAE1" stroke-width="0.5"/>
<g id="H-reference_3">
<path id="Vector_12" d="M339.994 1556H342.638L368.328 1488.87H369.03V1485.54H367.123L339.994 1556ZM350.688 1531.52H385.981L385.231 1529.27H351.438L350.688 1531.52ZM394.12 1556H396.764L369.638 1485.54H368.433V1488.87L394.12 1556Z" fill="#27AAE1"/>
</g>
<path id="Baseline-L" d="M263 1556H3036" stroke="#27AAE1" stroke-width="0.5"/>
<path id="Capline-L" d="M263 1485.54H3036" stroke="#27AAE1" stroke-width="0.5"/>
<path id="right-margin-Regular-M" d="M1500.25 1030.79V1150.12" stroke="#00AEEF" stroke-width="0.5"/>
<path id="left-margin-Regular-M" d="M1399.44 1030.79V1150.12" stroke="#00AEEF" stroke-width="0.5"/>
</g>
<g id="Symbols">
<g id="Black-L">
<g id="Vector_13">
<path d="M2877 1514C2877 1508.48 2881.48 1504 2887 1504H2930C2935.52 1504 2940 1508.48 2940 1514C2940 1519.52 2935.52 1524 2930 1524H2887C2881.48 1524 2877 1519.52 2877 1514Z" fill="black"/>
<path d="M2877 1543C2877 1537.48 2881.48 1533 2887 1533H2965C2970.52 1533 2975 1537.48 2975 1543C2975 1548.52 2970.52 1553 2965 1553H2887C2881.48 1553 2877 1548.52 2877 1543Z" fill="black"/>
<path d="M2877 1572C2877 1566.48 2881.48 1562 2887 1562H2935C2940.52 1562 2945 1566.48 2945 1572C2945 1577.52 2940.52 1582 2935 1582H2887C2881.48 1582 2877 1577.52 2877 1572Z" fill="black"/>
<path d="M2960.8 1513.1C2960.8 1513.1 2961.03 1514 2962 1514C2962.97 1514 2963.2 1513.1 2963.2 1513.1C2964.8 1507 2967.8 1501.75 2972.2 1497.35C2976.7 1492.85 2982 1489.8 2988.1 1488.2C2988.1 1488.2 2989 1487.97 2989 1487C2989 1486.03 2988.1 1485.8 2988.1 1485.8C2982 1484.2 2976.75 1481.2 2972.35 1476.8C2967.95 1472.3 2964.9 1467 2963.2 1460.9C2963.2 1460.9 2963 1460 2962 1460C2961 1460 2960.8 1460.9 2960.8 1460.9C2959.2 1467 2956.15 1472.3 2951.65 1476.8C2947.25 1481.2 2942 1484.2 2935.9 1485.8C2935.9 1485.8 2935 1486.02 2935 1487C2935 1487.98 2935.9 1488.2 2935.9 1488.2C2942 1489.8 2947.25 1492.85 2951.65 1497.35C2956.15 1501.75 2959.2 1507 2960.8 1513.1Z" fill="black"/>
</g>
</g>
<g id="Heavy-L">
<g id="Vector_14">
<path d="M2581 1514C2581 1509.03 2585.03 1505 2590 1505H2635C2639.97 1505 2644 1509.03 2644 1514C2644 1518.97 2639.97 1523 2635 1523H2590C2585.03 1523 2581 1518.97 2581 1514Z" fill="black"/>
<path d="M2581 1543C2581 1538.03 2585.03 1534 2590 1534H2670C2674.97 1534 2679 1538.03 2679 1543C2679 1547.97 2674.97 1552 2670 1552H2590C2585.03 1552 2581 1547.97 2581 1543Z" fill="black"/>
<path d="M2581 1572C2581 1567.03 2585.03 1563 2590 1563H2640C2644.97 1563 2649 1567.03 2649 1572C2649 1576.97 2644.97 1581 2640 1581H2590C2585.03 1581 2581 1576.97 2581 1572Z" fill="black"/>
<path d="M2665.32 1513.12C2665.32 1513.12 2665.54 1514 2666.5 1514C2667.46 1514 2667.68 1513.12 2667.68 1513.12C2669.25 1507.13 2672.19 1501.98 2676.51 1497.66C2680.93 1493.24 2686.13 1490.25 2692.12 1488.68C2692.12 1488.68 2693 1488.45 2693 1487.5C2693 1486.55 2692.12 1486.32 2692.12 1486.32C2686.13 1484.75 2680.98 1481.81 2676.66 1477.49C2672.34 1473.07 2669.35 1467.87 2667.68 1461.88C2667.68 1461.88 2667.48 1461 2666.5 1461C2665.52 1461 2665.32 1461.88 2665.32 1461.88C2663.75 1467.87 2660.76 1473.07 2656.34 1477.49C2652.02 1481.81 2646.87 1484.75 2640.88 1486.32C2640.88 1486.32 2640 1486.54 2640 1487.5C2640 1488.46 2640.88 1488.68 2640.88 1488.68C2646.87 1490.25 2652.02 1493.24 2656.34 1497.66C2660.76 1501.98 2663.75 1507.13 2665.32 1513.12Z" fill="black"/>
</g>
</g>
<g id="Bold-L">
<g id="Vector_15">
<path d="M2284 1514C2284 1509.58 2287.58 1506 2292 1506H2339C2343.42 1506 2347 1509.58 2347 1514C2347 1518.42 2343.42 1522 2339 1522H2292C2287.58 1522 2284 1518.42 2284 1514Z" fill="black"/>
<path d="M2284 1543C2284 1538.58 2287.58 1535 2292 1535H2374C2378.42 1535 2382 1538.58 2382 1543C2382 1547.42 2378.42 1551 2374 1551H2292C2287.58 1551 2284 1547.42 2284 1543Z" fill="black"/>
<path d="M2284 1572C2284 1567.58 2287.58 1564 2292 1564H2344C2348.42 1564 2352 1567.58 2352 1572C2352 1576.42 2348.42 1580 2344 1580H2292C2287.58 1580 2284 1576.42 2284 1572Z" fill="black"/>
<path d="M2368.84 1513.13C2368.84 1513.13 2369.06 1514 2370 1514C2370.94 1514 2371.16 1513.13 2371.16 1513.13C2372.7 1507.26 2375.59 1502.2 2379.82 1497.97C2384.16 1493.63 2389.26 1490.7 2395.13 1489.16C2395.13 1489.16 2396 1488.93 2396 1488C2396 1487.07 2395.13 1486.84 2395.13 1486.84C2389.26 1485.3 2384.2 1482.41 2379.97 1478.18C2375.73 1473.84 2372.79 1468.74 2371.16 1462.87C2371.16 1462.87 2370.96 1462 2370 1462C2369.04 1462 2368.84 1462.87 2368.84 1462.87C2367.3 1468.74 2364.37 1473.84 2360.03 1478.18C2355.8 1482.41 2350.74 1485.3 2344.87 1486.84C2344.87 1486.84 2344 1487.06 2344 1488C2344 1488.94 2344.87 1489.16 2344.87 1489.16C2350.74 1490.7 2355.8 1493.63 2360.03 1497.97C2364.37 1502.2 2367.3 1507.26 2368.84 1513.13Z" fill="black"/>
</g>
</g>
<g id="Semibold-L">
<g id="Vector_16">
<path d="M1987 1514C1987 1510.13 1990.13 1507 1994 1507H2043C2046.87 1507 2050 1510.13 2050 1514C2050 1517.87 2046.87 1521 2043 1521H1994C1990.13 1521 1987 1517.87 1987 1514Z" fill="black"/>
<path d="M1987 1543C1987 1539.13 1990.13 1536 1994 1536H2078C2081.87 1536 2085 1539.13 2085 1543C2085 1546.87 2081.87 1550 2078 1550H1994C1990.13 1550 1987 1546.87 1987 1543Z" fill="black"/>
<path d="M1987 1572C1987 1568.13 1990.13 1565 1994 1565H2048C2051.87 1565 2055 1568.13 2055 1572C2055 1575.87 2051.87 1579 2048 1579H1994C1990.13 1579 1987 1575.87 1987 1572Z" fill="black"/>
<path d="M2072.37 1513.15C2072.37 1513.15 2072.58 1514 2073.5 1514C2074.42 1514 2074.63 1513.15 2074.63 1513.15C2076.14 1507.39 2078.98 1502.43 2083.13 1498.27C2087.38 1494.02 2092.39 1491.14 2098.15 1489.63C2098.15 1489.63 2099 1489.42 2099 1488.5C2099 1487.58 2098.15 1487.37 2098.15 1487.37C2092.39 1485.86 2087.43 1483.02 2083.28 1478.87C2079.12 1474.62 2076.24 1469.61 2074.63 1463.85C2074.63 1463.85 2074.44 1463 2073.5 1463C2072.56 1463 2072.37 1463.85 2072.37 1463.85C2070.86 1469.61 2067.98 1474.62 2063.73 1478.87C2059.57 1483.02 2054.61 1485.86 2048.85 1487.37C2048.85 1487.37 2048 1487.58 2048 1488.5C2048 1489.42 2048.85 1489.63 2048.85 1489.63C2054.61 1491.14 2059.57 1494.02 2063.73 1498.27C2067.98 1502.43 2070.86 1507.39 2072.37 1513.15Z" fill="black"/>
</g>
</g>
<g id="Medium-L">
<g id="Vector_17">
<path d="M1691 1514C1691 1510.69 1693.69 1508 1697 1508H1748C1751.31 1508 1754 1510.69 1754 1514C1754 1517.31 1751.31 1520 1748 1520H1697C1693.69 1520 1691 1517.31 1691 1514Z" fill="black"/>
<path d="M1691 1543C1691 1539.69 1693.69 1537 1697 1537H1783C1786.31 1537 1789 1539.69 1789 1543C1789 1546.31 1786.31 1549 1783 1549H1697C1693.69 1549 1691 1546.31 1691 1543Z" fill="black"/>
<path d="M1691 1572C1691 1568.69 1693.69 1566 1697 1566H1753C1756.31 1566 1759 1568.69 1759 1572C1759 1575.31 1756.31 1578 1753 1578H1697C1693.69 1578 1691 1575.31 1691 1572Z" fill="black"/>
<path d="M1776.89 1513.17C1776.89 1513.17 1777.1 1514 1778 1514C1778.9 1514 1779.11 1513.17 1779.11 1513.17C1780.59 1507.52 1783.37 1502.66 1787.44 1498.58C1791.61 1494.42 1796.52 1491.59 1802.17 1490.11C1802.17 1490.11 1803 1489.9 1803 1489C1803 1488.1 1802.17 1487.89 1802.17 1487.89C1796.52 1486.41 1791.66 1483.63 1787.58 1479.56C1783.51 1475.39 1780.69 1470.48 1779.11 1464.83C1779.11 1464.83 1778.93 1464 1778 1464C1777.08 1464 1776.89 1464.83 1776.89 1464.83C1775.41 1470.48 1772.58 1475.39 1768.42 1479.56C1764.34 1483.63 1759.48 1486.41 1753.83 1487.89C1753.83 1487.89 1753 1488.1 1753 1489C1753 1489.9 1753.83 1490.11 1753.83 1490.11C1759.48 1491.59 1764.34 1494.42 1768.42 1498.58C1772.58 1502.66 1775.41 1507.52 1776.89 1513.17Z" fill="black"/>
</g>
</g>
<g id="Regular-L">
<g id="Vector_18">
<path d="M1394 1514C1394 1511.24 1396.24 1509 1399 1509H1452C1454.76 1509 1457 1511.24 1457 1514C1457 1516.76 1454.76 1519 1452 1519H1399C1396.24 1519 1394 1516.76 1394 1514Z" fill="black"/>
<path d="M1394 1543C1394 1540.24 1396.24 1538 1399 1538H1487C1489.76 1538 1492 1540.24 1492 1543C1492 1545.76 1489.76 1548 1487 1548H1399C1396.24 1548 1394 1545.76 1394 1543Z" fill="black"/>
<path d="M1394 1572C1394 1569.24 1396.24 1567 1399 1567H1457C1459.76 1567 1462 1569.24 1462 1572C1462 1574.76 1459.76 1577 1457 1577H1399C1396.24 1577 1394 1574.76 1394 1572Z" fill="black"/>
<path d="M1480.41 1513.18C1480.41 1513.18 1480.62 1514 1481.5 1514C1482.38 1514 1482.59 1513.18 1482.59 1513.18C1484.04 1507.65 1486.76 1502.88 1490.76 1498.89C1494.84 1494.81 1499.65 1492.04 1505.18 1490.59C1505.18 1490.59 1506 1490.38 1506 1489.5C1506 1488.62 1505.18 1488.41 1505.18 1488.41C1499.65 1486.96 1494.88 1484.24 1490.89 1480.24C1486.9 1476.16 1484.13 1471.35 1482.59 1465.82C1482.59 1465.82 1482.41 1465 1481.5 1465C1480.59 1465 1480.41 1465.82 1480.41 1465.82C1478.96 1471.35 1476.19 1476.16 1472.11 1480.24C1468.12 1484.24 1463.35 1486.96 1457.82 1488.41C1457.82 1488.41 1457 1488.61 1457 1489.5C1457 1490.39 1457.82 1490.59 1457.82 1490.59C1463.35 1492.04 1468.12 1494.81 1472.11 1498.89C1476.19 1502.88 1478.96 1507.65 1480.41 1513.18Z" fill="black"/>
</g>
</g>
<g id="Light-L">
<g id="Vector_19">
<path d="M1097 1511C1097 1508.79 1098.79 1507 1101 1507H1156C1158.21 1507 1160 1508.79 1160 1511C1160 1513.21 1158.21 1515 1156 1515H1101C1098.79 1515 1097 1513.21 1097 1511Z" fill="black"/>
<path d="M1097 1540C1097 1537.79 1098.79 1536 1101 1536H1191C1193.21 1536 1195 1537.79 1195 1540C1195 1542.21 1193.21 1544 1191 1544H1101C1098.79 1544 1097 1542.21 1097 1540Z" fill="black"/>
<path d="M1097 1569C1097 1566.79 1098.79 1565 1101 1565H1161C1163.21 1565 1165 1566.79 1165 1569C1165 1571.21 1163.21 1573 1161 1573H1101C1098.79 1573 1097 1571.21 1097 1569Z" fill="black"/>
<path d="M1183.93 1510.2C1183.93 1510.2 1184.13 1511 1185 1511C1185.87 1511 1186.07 1510.2 1186.07 1510.2C1187.49 1504.78 1190.16 1500.11 1194.07 1496.2C1198.07 1492.2 1202.78 1489.49 1208.2 1488.07C1208.2 1488.07 1209 1487.86 1209 1487C1209 1486.14 1208.2 1485.93 1208.2 1485.93C1202.78 1484.51 1198.11 1481.84 1194.2 1477.93C1190.29 1473.93 1187.58 1469.22 1186.07 1463.8C1186.07 1463.8 1185.89 1463 1185 1463C1184.11 1463 1183.93 1463.8 1183.93 1463.8C1182.51 1469.22 1179.8 1473.93 1175.8 1477.93C1171.89 1481.84 1167.22 1484.51 1161.8 1485.93C1161.8 1485.93 1161 1486.13 1161 1487C1161 1487.87 1161.8 1488.07 1161.8 1488.07C1167.22 1489.49 1171.89 1492.2 1175.8 1496.2C1179.8 1500.11 1182.51 1504.78 1183.93 1510.2Z" fill="black"/>
</g>
</g>
<g id="Thin-L">
<g id="Vector_20">
<path d="M800 1513C800 1511.34 801.343 1510 803 1510H860C861.657 1510 863 1511.34 863 1513C863 1514.66 861.657 1516 860 1516H803C801.343 1516 800 1514.66 800 1513Z" fill="black"/>
<path d="M800 1542C800 1540.34 801.343 1539 803 1539H895C896.657 1539 898 1540.34 898 1542C898 1543.66 896.657 1545 895 1545H803C801.343 1545 800 1543.66 800 1542Z" fill="black"/>
<path d="M800 1571C800 1569.34 801.343 1568 803 1568H865C866.657 1568 868 1569.34 868 1571C868 1572.66 866.657 1574 865 1574H803C801.343 1574 800 1572.66 800 1571Z" fill="black"/>
<path d="M887.456 1512.22C887.456 1512.22 887.652 1513 888.5 1513C889.348 1513 889.545 1512.22 889.545 1512.22C890.937 1506.91 893.548 1502.34 897.378 1498.51C901.295 1494.59 905.907 1491.94 911.217 1490.54C911.217 1490.54 912 1490.34 912 1489.5C912 1488.66 911.217 1488.46 911.217 1488.46C905.907 1487.06 901.338 1484.45 897.508 1480.62C893.679 1476.71 891.024 1472.09 889.545 1466.78C889.545 1466.78 889.369 1466 888.5 1466C887.631 1466 887.456 1466.78 887.456 1466.78C886.063 1472.09 883.408 1476.71 879.492 1480.62C875.662 1484.45 871.093 1487.06 865.783 1488.46C865.783 1488.46 865 1488.65 865 1489.5C865 1490.35 865.783 1490.54 865.783 1490.54C871.093 1491.94 875.662 1494.59 879.492 1498.51C883.408 1502.34 886.063 1506.91 887.456 1512.22Z" fill="black"/>
</g>
</g>
<g id="Ultralight-L">
<g id="Vector_21">
<path d="M504 1513.5C504 1512.12 505.119 1511 506.5 1511H564.5C565.881 1511 567 1512.12 567 1513.5C567 1514.88 565.881 1516 564.5 1516H506.5C505.119 1516 504 1514.88 504 1513.5Z" fill="black"/>
<path d="M504 1542.5C504 1541.12 505.119 1540 506.5 1540H599.5C600.881 1540 602 1541.12 602 1542.5C602 1543.88 600.881 1545 599.5 1545H506.5C505.119 1545 504 1543.88 504 1542.5Z" fill="black"/>
<path d="M504 1571.5C504 1570.12 505.119 1569 506.5 1569H569.5C570.881 1569 572 1570.12 572 1571.5C572 1572.88 570.881 1574 569.5 1574H506.5C505.119 1574 504 1572.88 504 1571.5Z" fill="black"/>
<path d="M591.978 1512.23C591.978 1512.23 592.17 1513 593 1513C593.83 1513 594.022 1512.23 594.022 1512.23C595.385 1507.04 597.941 1502.56 601.689 1498.82C605.522 1494.98 610.037 1492.39 615.233 1491.02C615.233 1491.02 616 1490.83 616 1490C616 1489.17 615.233 1488.98 615.233 1488.98C610.037 1487.61 605.565 1485.06 601.817 1481.31C598.069 1477.48 595.47 1472.96 594.022 1467.77C594.022 1467.77 593.851 1467 593 1467C592.149 1467 591.978 1467.77 591.978 1467.77C590.615 1472.96 588.017 1477.48 584.183 1481.31C580.435 1485.06 575.963 1487.61 570.767 1488.98C570.767 1488.98 570 1489.17 570 1490C570 1490.83 570.767 1491.02 570.767 1491.02C575.963 1492.39 580.435 1494.98 584.183 1498.82C588.017 1502.56 590.615 1507.04 591.978 1512.23Z" fill="black"/>
</g>
</g>
<g id="Black-M">
<g id="Vector_22">
<path d="M2883 1088C2883 1083.03 2887.03 1079 2892 1079H2929C2933.97 1079 2938 1083.03 2938 1088C2938 1092.97 2933.97 1097 2929 1097H2892C2887.03 1097 2883 1092.97 2883 1088Z" fill="black"/>
<path d="M2883 1113C2883 1108.03 2887.03 1104 2892 1104H2964C2968.97 1104 2973 1108.03 2973 1113C2973 1117.97 2968.97 1122 2964 1122H2892C2887.03 1122 2883 1117.97 2883 1113Z" fill="black"/>
<path d="M2883 1138C2883 1133.03 2887.03 1129 2892 1129H2934C2938.97 1129 2943 1133.03 2943 1138C2943 1142.97 2938.97 1147 2934 1147H2892C2887.03 1147 2883 1142.97 2883 1138Z" fill="black"/>
<path d="M2956.89 1088.17C2956.89 1088.17 2957.1 1089 2958 1089C2958.9 1089 2959.11 1088.17 2959.11 1088.17C2960.59 1082.52 2963.37 1077.66 2967.44 1073.58C2971.61 1069.42 2976.52 1066.59 2982.17 1065.11C2982.17 1065.11 2983 1064.9 2983 1064C2983 1063.1 2982.17 1062.89 2982.17 1062.89C2976.52 1061.41 2971.66 1058.63 2967.58 1054.56C2963.51 1050.39 2960.69 1045.48 2959.11 1039.83C2959.11 1039.83 2958.92 1039 2958 1039C2957.08 1039 2956.89 1039.83 2956.89 1039.83C2955.41 1045.48 2952.58 1050.39 2948.42 1054.56C2944.34 1058.63 2939.48 1061.41 2933.83 1062.89C2933.83 1062.89 2933 1063.1 2933 1064C2933 1064.9 2933.83 1065.11 2933.83 1065.11C2939.48 1066.59 2944.34 1069.42 2948.42 1073.58C2952.58 1077.66 2955.41 1082.52 2956.89 1088.17Z" fill="black"/>
</g>
</g>
<g id="Heavy-M">
<g id="Vector_23">
<path d="M2587 1087C2587 1082.58 2590.58 1079 2595 1079H2634C2638.42 1079 2642 1082.58 2642 1087C2642 1091.42 2638.42 1095 2634 1095H2595C2590.58 1095 2587 1091.42 2587 1087Z" fill="black"/>
<path d="M2587 1112C2587 1107.58 2590.58 1104 2595 1104H2669C2673.42 1104 2677 1107.58 2677 1112C2677 1116.42 2673.42 1120 2669 1120H2595C2590.58 1120 2587 1116.42 2587 1112Z" fill="black"/>
<path d="M2587 1137C2587 1132.58 2590.58 1129 2595 1129H2639C2643.42 1129 2647 1132.58 2647 1137C2647 1141.42 2643.42 1145 2639 1145H2595C2590.58 1145 2587 1141.42 2587 1137Z" fill="black"/>
<path d="M2661.93 1086.2C2661.93 1086.2 2662.13 1087 2663 1087C2663.87 1087 2664.07 1086.2 2664.07 1086.2C2665.49 1080.78 2668.16 1076.11 2672.07 1072.2C2676.07 1068.2 2680.78 1065.49 2686.2 1064.07C2686.2 1064.07 2687 1063.86 2687 1063C2687 1062.14 2686.2 1061.93 2686.2 1061.93C2680.78 1060.51 2676.11 1057.84 2672.2 1053.93C2668.29 1049.93 2665.58 1045.22 2664.07 1039.8C2664.07 1039.8 2663.89 1039 2663 1039C2662.11 1039 2661.93 1039.8 2661.93 1039.8C2660.51 1045.22 2657.8 1049.93 2653.8 1053.93C2649.89 1057.84 2645.22 1060.51 2639.8 1061.93C2639.8 1061.93 2639 1062.13 2639 1063C2639 1063.87 2639.8 1064.07 2639.8 1064.07C2645.22 1065.49 2649.89 1068.2 2653.8 1072.2C2657.8 1076.11 2660.51 1080.78 2661.93 1086.2Z" fill="black"/>
</g>
</g>
<g id="Bold-M">
<g id="Vector_24">
<path d="M2288 1086C2288 1082.13 2291.13 1079 2295 1079H2336C2339.87 1079 2343 1082.13 2343 1086C2343 1089.87 2339.87 1093 2336 1093H2295C2291.13 1093 2288 1089.87 2288 1086Z" fill="black"/>
<path d="M2288 1111C2288 1107.13 2291.13 1104 2295 1104H2371C2374.87 1104 2378 1107.13 2378 1111C2378 1114.87 2374.87 1118 2371 1118H2295C2291.13 1118 2288 1114.87 2288 1111Z" fill="black"/>
<path d="M2288 1136C2288 1132.13 2291.13 1129 2295 1129H2341C2344.87 1129 2348 1132.13 2348 1136C2348 1139.87 2344.87 1143 2341 1143H2295C2291.13 1143 2288 1139.87 2288 1136Z" fill="black"/>
<path d="M2363.46 1085.22C2363.46 1085.22 2363.65 1086 2364.5 1086C2365.35 1086 2365.54 1085.22 2365.54 1085.22C2366.94 1079.91 2369.55 1075.34 2373.38 1071.51C2377.29 1067.59 2381.91 1064.94 2387.22 1063.54C2387.22 1063.54 2388 1063.34 2388 1062.5C2388 1061.66 2387.22 1061.46 2387.22 1061.46C2381.91 1060.06 2377.34 1057.45 2373.51 1053.62C2369.68 1049.71 2367.02 1045.09 2365.54 1039.78C2365.54 1039.78 2365.37 1039 2364.5 1039C2363.63 1039 2363.46 1039.78 2363.46 1039.78C2362.06 1045.09 2359.41 1049.71 2355.49 1053.62C2351.66 1057.45 2347.09 1060.06 2341.78 1061.46C2341.78 1061.46 2341 1061.65 2341 1062.5C2341 1063.35 2341.78 1063.54 2341.78 1063.54C2347.09 1064.94 2351.66 1067.59 2355.49 1071.51C2359.41 1075.34 2362.06 1079.91 2363.46 1085.22Z" fill="black"/>
</g>
</g>
<g id="Semibold-M">
<g id="Vector_25">
<path d="M1992 1085.5C1992 1081.91 1994.91 1079 1998.5 1079H2040.5C2044.09 1079 2047 1081.91 2047 1085.5C2047 1089.09 2044.09 1092 2040.5 1092H1998.5C1994.91 1092 1992 1089.09 1992 1085.5Z" fill="black"/>
<path d="M1992 1110.5C1992 1106.91 1994.91 1104 1998.5 1104H2075.5C2079.09 1104 2082 1106.91 2082 1110.5C2082 1114.09 2079.09 1117 2075.5 1117H1998.5C1994.91 1117 1992 1114.09 1992 1110.5Z" fill="black"/>
<path d="M1992 1135.5C1992 1131.91 1994.91 1129 1998.5 1129H2045.5C2049.09 1129 2052 1131.91 2052 1135.5C2052 1139.09 2049.09 1142 2045.5 1142H1998.5C1994.91 1142 1992 1139.09 1992 1135.5Z" fill="black"/>
<path d="M2067.98 1084.23C2067.98 1084.23 2068.17 1085 2069 1085C2069.83 1085 2070.02 1084.23 2070.02 1084.23C2071.39 1079.04 2073.94 1074.56 2077.69 1070.82C2081.52 1066.98 2086.04 1064.39 2091.23 1063.02C2091.23 1063.02 2092 1062.83 2092 1062C2092 1061.17 2091.23 1060.98 2091.23 1060.98C2086.04 1059.61 2081.57 1057.06 2077.82 1053.31C2074.07 1049.48 2071.47 1044.96 2070.02 1039.77C2070.02 1039.77 2069.85 1039 2069 1039C2068.15 1039 2067.98 1039.77 2067.98 1039.77C2066.62 1044.96 2064.02 1049.48 2060.18 1053.31C2056.44 1057.06 2051.96 1059.61 2046.77 1060.98C2046.77 1060.98 2046 1061.17 2046 1062C2046 1062.83 2046.77 1063.02 2046.77 1063.02C2051.96 1064.39 2056.44 1066.98 2060.18 1070.82C2064.02 1074.56 2066.62 1079.04 2067.98 1084.23Z" fill="black"/>
</g>
</g>
<g id="Medium-M">
<g id="Vector_26">
<path d="M1751 1129C1754.31 1129 1757 1131.69 1757 1135C1757 1138.31 1754.31 1141 1751 1141H1703C1699.69 1141 1697 1138.31 1697 1135C1697 1131.69 1699.69 1129 1703 1129H1751Z" fill="black"/>
<path d="M1781 1104C1784.31 1104 1787 1106.69 1787 1110C1787 1113.31 1784.31 1116 1781 1116H1703C1699.69 1116 1697 1113.31 1697 1110C1697 1106.69 1699.69 1104 1703 1104H1781Z" fill="black"/>
<path d="M1746 1079C1749.31 1079 1752 1081.69 1752 1085C1752 1088.31 1749.31 1091 1746 1091H1703C1699.69 1091 1697 1088.31 1697 1085C1697 1081.69 1699.69 1079 1703 1079H1746Z" fill="black"/>
<path d="M1774 1039C1774.85 1039 1775.02 1039.76 1775.02 1039.77C1776.47 1044.96 1779.07 1049.48 1782.82 1053.31C1786.56 1057.06 1791.04 1059.61 1796.23 1060.98C1796.23 1060.98 1797 1061.17 1797 1062C1797 1062.83 1796.23 1063.02 1796.23 1063.02C1791.04 1064.39 1786.52 1066.98 1782.69 1070.82C1778.94 1074.56 1776.39 1079.04 1775.02 1084.23C1775.02 1084.23 1774.83 1085 1774 1085C1773.17 1085 1772.98 1084.23 1772.98 1084.23C1771.61 1079.04 1769.02 1074.56 1765.18 1070.82C1761.44 1066.98 1756.96 1064.39 1751.77 1063.02C1751.77 1063.02 1751 1062.83 1751 1062C1751 1061.17 1751.77 1060.98 1751.77 1060.98C1756.96 1059.61 1761.44 1057.06 1765.18 1053.31C1769.02 1049.48 1771.61 1044.96 1772.98 1039.77C1772.98 1039.76 1773.15 1039 1774 1039Z" fill="black"/>
</g>
</g>
<g id="Regular-M">
<g id="Vector_27">
<path d="M1456 1129C1458.76 1129 1461 1131.24 1461 1134C1461 1136.76 1458.76 1139 1456 1139H1406C1403.24 1139 1401 1136.76 1401 1134C1401 1131.24 1403.24 1129 1406 1129H1456Z" fill="black"/>
<path d="M1486 1104C1488.76 1104 1491 1106.24 1491 1109C1491 1111.76 1488.76 1114 1486 1114H1406C1403.24 1114 1401 1111.76 1401 1109C1401 1106.24 1403.24 1104 1406 1104H1486Z" fill="black"/>
<path d="M1451 1079C1453.76 1079 1456 1081.24 1456 1084C1456 1086.76 1453.76 1089 1451 1089H1406C1403.24 1089 1401 1086.76 1401 1084C1401 1081.24 1403.24 1079 1406 1079H1451Z" fill="black"/>
<path d="M1478.5 1039C1479.33 1039 1479.5 1039.75 1479.5 1039.75C1480.92 1044.83 1483.46 1049.25 1487.12 1053C1490.79 1056.67 1495.17 1059.17 1500.25 1060.5C1500.25 1060.5 1501 1060.69 1501 1061.5C1501 1062.31 1500.25 1062.5 1500.25 1062.5C1495.17 1063.83 1490.75 1066.38 1487 1070.12C1483.33 1073.79 1480.83 1078.17 1479.5 1083.25C1479.5 1083.25 1479.31 1084 1478.5 1084C1477.69 1084 1477.5 1083.25 1477.5 1083.25C1476.17 1078.17 1473.62 1073.79 1469.87 1070.12C1466.21 1066.38 1461.83 1063.83 1456.75 1062.5C1456.75 1062.5 1456 1062.31 1456 1061.5C1456 1060.69 1456.75 1060.5 1456.75 1060.5C1461.83 1059.17 1466.21 1056.67 1469.87 1053C1473.62 1049.25 1476.17 1044.83 1477.5 1039.75C1477.5 1039.75 1477.67 1039 1478.5 1039Z" fill="black"/>
</g>
</g>
<g id="Light-M">
<g id="Vector_28">
<path d="M1161 1129C1163.21 1129 1165 1130.79 1165 1133C1165 1135.21 1163.21 1137 1161 1137H1109C1106.79 1137 1105 1135.21 1105 1133C1105 1130.79 1106.79 1129 1109 1129H1161Z" fill="black"/>
<path d="M1191 1104C1193.21 1104 1195 1105.79 1195 1108C1195 1110.21 1193.21 1112 1191 1112H1109C1106.79 1112 1105 1110.21 1105 1108C1105 1105.79 1106.79 1104 1109 1104H1191Z" fill="black"/>
<path d="M1156 1079C1158.21 1079 1160 1080.79 1160 1083C1160 1085.21 1158.21 1087 1156 1087H1109C1106.79 1087 1105 1085.21 1105 1083C1105 1080.79 1106.79 1079 1109 1079H1156Z" fill="black"/>
<path d="M1183 1039C1183.81 1039 1183.98 1039.73 1183.98 1039.73C1185.36 1044.7 1187.85 1049.02 1191.43 1052.69C1195.02 1056.27 1199.3 1058.72 1204.27 1060.02C1204.27 1060.02 1205 1060.21 1205 1061C1205 1061.79 1204.27 1061.98 1204.27 1061.98C1199.3 1063.28 1194.98 1065.77 1191.31 1069.43C1187.73 1073.02 1185.28 1077.3 1183.98 1082.27C1183.98 1082.27 1183.79 1083 1183 1083C1182.21 1083 1182.02 1082.27 1182.02 1082.27C1180.72 1077.3 1178.23 1073.02 1174.57 1069.43C1170.98 1065.77 1166.7 1063.28 1161.73 1061.98C1161.73 1061.98 1161 1061.8 1161 1061C1161 1060.2 1161.73 1060.02 1161.73 1060.02C1166.7 1058.72 1170.98 1056.27 1174.57 1052.69C1178.23 1049.02 1180.72 1044.7 1182.02 1039.73C1182.02 1039.73 1182.19 1039 1183 1039Z" fill="black"/>
</g>
</g>
<g id="Thin-M">
<g id="Vector_29">
<path d="M866 1129C867.657 1129 869 1130.34 869 1132C869 1133.66 867.657 1135 866 1135H812C810.343 1135 809 1133.66 809 1132C809 1130.34 810.343 1129 812 1129H866Z" fill="black"/>
<path d="M896 1104C897.657 1104 899 1105.34 899 1107C899 1108.66 897.657 1110 896 1110H812C810.343 1110 809 1108.66 809 1107C809 1105.34 810.343 1104 812 1104H896Z" fill="black"/>
<path d="M861 1079C862.657 1079 864 1080.34 864 1082C864 1083.66 862.657 1085 861 1085H812C810.343 1085 809 1083.66 809 1082C809 1080.34 810.343 1079 812 1079H861Z" fill="black"/>
<path d="M887.5 1039C888.295 1039 888.455 1039.72 888.455 1039.72C889.809 1044.57 892.237 1048.79 895.741 1052.38C899.245 1055.88 903.426 1058.27 908.283 1059.54C908.283 1059.54 909 1059.73 909 1060.5C909 1061.27 908.283 1061.46 908.283 1061.46C903.426 1062.73 899.205 1065.16 895.622 1068.74C892.118 1072.24 889.729 1076.43 888.455 1081.28C888.455 1081.28 888.276 1082 887.5 1082C886.724 1082 886.545 1081.28 886.545 1081.28C885.271 1076.43 882.842 1072.24 879.259 1068.74C875.755 1065.16 871.574 1062.73 866.717 1061.46C866.717 1061.46 866 1061.28 866 1060.5C866 1059.72 866.717 1059.54 866.717 1059.54C871.574 1058.27 875.755 1055.88 879.259 1052.38C882.842 1048.79 885.271 1044.57 886.545 1039.72C886.545 1039.72 886.704 1039 887.5 1039Z" fill="black"/>
</g>
</g>
<g id="Ultralight-M">
<g id="Vector_30">
<path d="M570.75 1129C571.993 1129 573 1130.01 573 1131.25C573 1132.49 571.993 1133.5 570.75 1133.5H515.25C514.007 1133.5 513 1132.49 513 1131.25C513 1130.01 514.007 1129 515.25 1129H570.75Z" fill="black"/>
<path d="M600.75 1104C601.993 1104 603 1105.01 603 1106.25C603 1107.49 601.993 1108.5 600.75 1108.5H515.25C514.007 1108.5 513 1107.49 513 1106.25C513 1105.01 514.007 1104 515.25 1104H600.75Z" fill="black"/>
<path d="M565.75 1079C566.993 1079 568 1080.01 568 1081.25C568 1082.49 566.993 1083.5 565.75 1083.5H515.25C514.007 1083.5 513 1082.49 513 1081.25C513 1080.01 514.007 1079 515.25 1079H565.75Z" fill="black"/>
<path d="M592 1039C592.777 1039 592.933 1039.7 592.933 1039.7C594.256 1044.44 596.628 1048.57 600.05 1052.07C603.472 1055.49 607.555 1057.82 612.3 1059.07C612.3 1059.07 613 1059.25 613 1060C613 1060.75 612.3 1060.93 612.3 1060.93C607.555 1062.18 603.433 1064.55 599.933 1068.05C596.511 1071.47 594.178 1075.56 592.933 1080.3C592.933 1080.3 592.758 1081 592 1081C591.242 1081 591.066 1080.3 591.066 1080.3C589.822 1075.56 587.45 1071.47 583.95 1068.05C580.528 1064.55 576.444 1062.18 571.7 1060.93C571.7 1060.93 571 1060.76 571 1060C571 1059.24 571.7 1059.07 571.7 1059.07C576.444 1057.82 580.528 1055.49 583.95 1052.07C587.45 1048.57 589.822 1044.44 591.066 1039.7C591.066 1039.7 591.223 1039 592 1039Z" fill="black"/>
</g>
</g>
<g id="Black-S">
<g id="Vector_31">
<path d="M2886 659C2886 655.134 2889.13 652 2893 652H2926C2929.87 652 2933 655.134 2933 659C2933 662.866 2929.87 666 2926 666H2893C2889.13 666 2886 662.866 2886 659Z" fill="black"/>
<path d="M2886 680C2886 676.134 2889.13 673 2893 673H2961C2964.87 673 2968 676.134 2968 680C2968 683.866 2964.87 687 2961 687H2893C2889.13 687 2886 683.866 2886 680Z" fill="black"/>
<path d="M2886 701C2886 697.134 2889.13 694 2893 694H2931C2934.87 694 2938 697.134 2938 701C2938 704.866 2934.87 708 2931 708H2893C2889.13 708 2886 704.866 2886 701Z" fill="black"/>
<path d="M2954.98 660.233C2954.98 660.233 2955.17 661 2956 661C2956.83 661 2957.02 660.233 2957.02 660.233C2958.39 655.037 2960.94 650.565 2964.69 646.817C2968.52 642.983 2973.04 640.385 2978.23 639.022C2978.23 639.022 2979 638.826 2979 638C2979 637.174 2978.23 636.978 2978.23 636.978C2973.04 635.615 2968.56 633.059 2964.82 629.311C2961.07 625.478 2958.47 620.963 2957.02 615.767C2957.02 615.767 2956.85 615 2956 615C2955.15 615 2954.98 615.767 2954.98 615.767C2953.61 620.963 2951.02 625.478 2947.18 629.311C2943.44 633.059 2938.96 635.615 2933.77 636.978C2933.77 636.978 2933 637.168 2933 638C2933 638.832 2933.77 639.022 2933.77 639.022C2938.96 640.385 2943.44 642.983 2947.18 646.817C2951.02 650.565 2953.61 655.037 2954.98 660.233Z" fill="black"/>
</g>
</g>
<g id="Heavy-S">
<g id="Vector_32">
<path d="M2590 658.5C2590 654.91 2592.91 652 2596.5 652H2630.5C2634.09 652 2637 654.91 2637 658.5C2637 662.09 2634.09 665 2630.5 665H2596.5C2592.91 665 2590 662.09 2590 658.5Z" fill="black"/>
<path d="M2590 679.5C2590 675.91 2592.91 673 2596.5 673H2665.5C2669.09 673 2672 675.91 2672 679.5C2672 683.09 2669.09 686 2665.5 686H2596.5C2592.91 686 2590 683.09 2590 679.5Z" fill="black"/>
<path d="M2590 700.5C2590 696.91 2592.91 694 2596.5 694H2635.5C2639.09 694 2642 696.91 2642 700.5C2642 704.09 2639.09 707 2635.5 707H2596.5C2592.91 707 2590 704.09 2590 700.5Z" fill="black"/>
<path d="M2658.98 660.233C2658.98 660.233 2659.17 661 2660 661C2660.83 661 2661.02 660.233 2661.02 660.233C2662.39 655.037 2664.94 650.565 2668.69 646.817C2672.52 642.983 2677.04 640.385 2682.23 639.022C2682.23 639.022 2683 638.826 2683 638C2683 637.174 2682.23 636.978 2682.23 636.978C2677.04 635.615 2672.56 633.059 2668.82 629.311C2665.07 625.478 2662.47 620.963 2661.02 615.767C2661.02 615.767 2660.85 615 2660 615C2659.15 615 2658.98 615.767 2658.98 615.767C2657.61 620.963 2655.02 625.478 2651.18 629.311C2647.44 633.059 2642.96 635.615 2637.77 636.978C2637.77 636.978 2637 637.168 2637 638C2637 638.832 2637.77 639.022 2637.77 639.022C2642.96 640.385 2647.44 642.983 2651.18 646.817C2655.02 650.565 2657.61 655.037 2658.98 660.233Z" fill="black"/>
</g>
</g>
<g id="Bold-S">
<g id="Vector_33">
<path d="M2293 658C2293 654.686 2295.69 652 2299 652H2334C2337.31 652 2340 654.686 2340 658C2340 661.314 2337.31 664 2334 664H2299C2295.69 664 2293 661.314 2293 658Z" fill="black"/>
<path d="M2293 679C2293 675.686 2295.69 673 2299 673H2369C2372.31 673 2375 675.686 2375 679C2375 682.314 2372.31 685 2369 685H2299C2295.69 685 2293 682.314 2293 679Z" fill="black"/>
<path d="M2293 700C2293 696.686 2295.69 694 2299 694H2339C2342.31 694 2345 696.686 2345 700C2345 703.314 2342.31 706 2339 706H2299C2295.69 706 2293 703.314 2293 700Z" fill="black"/>
<path d="M2362.5 659.25C2362.5 659.25 2362.69 660 2363.5 660C2364.31 660 2364.5 659.25 2364.5 659.25C2365.83 654.167 2368.33 649.792 2372 646.125C2375.75 642.375 2380.17 639.833 2385.25 638.5C2385.25 638.5 2386 638.308 2386 637.5C2386 636.692 2385.25 636.5 2385.25 636.5C2380.17 635.167 2375.79 632.667 2372.12 629C2368.46 625.25 2365.92 620.833 2364.5 615.75C2364.5 615.75 2364.33 615 2363.5 615C2362.67 615 2362.5 615.75 2362.5 615.75C2361.17 620.833 2358.62 625.25 2354.88 629C2351.21 632.667 2346.83 635.167 2341.75 636.5C2341.75 636.5 2341 636.686 2341 637.5C2341 638.314 2341.75 638.5 2341.75 638.5C2346.83 639.833 2351.21 642.375 2354.88 646.125C2358.62 649.792 2361.17 654.167 2362.5 659.25Z" fill="black"/>
</g>
</g>
<g id="Semibold-S">
<g id="Vector_34">
<path d="M1996 658.5C1996 655.462 1998.46 653 2001.5 653H2037.5C2040.54 653 2043 655.462 2043 658.5C2043 661.538 2040.54 664 2037.5 664H2001.5C1998.46 664 1996 661.538 1996 658.5Z" fill="black"/>
<path d="M1996 679.5C1996 676.462 1998.46 674 2001.5 674H2072.5C2075.54 674 2078 676.462 2078 679.5C2078 682.538 2075.54 685 2072.5 685H2001.5C1998.46 685 1996 682.538 1996 679.5Z" fill="black"/>
<path d="M1996 700.5C1996 697.462 1998.46 695 2001.5 695H2042.5C2045.54 695 2048 697.462 2048 700.5C2048 703.538 2045.54 706 2042.5 706H2001.5C1998.46 706 1996 703.538 1996 700.5Z" fill="black"/>
<path d="M2066.02 659.267C2066.02 659.267 2066.21 660 2067 660C2067.79 660 2067.98 659.267 2067.98 659.267C2069.28 654.296 2071.73 650.019 2075.31 646.433C2078.98 642.767 2083.3 640.281 2088.27 638.978C2088.27 638.978 2089 638.79 2089 638C2089 637.21 2088.27 637.022 2088.27 637.022C2083.3 635.719 2079.02 633.274 2075.43 629.689C2071.85 626.022 2069.36 621.704 2067.98 616.733C2067.98 616.733 2067.81 616 2067 616C2066.19 616 2066.02 616.733 2066.02 616.733C2064.72 621.704 2062.23 626.022 2058.57 629.689C2054.98 633.274 2050.7 635.719 2045.73 637.022C2045.73 637.022 2045 637.204 2045 638C2045 638.796 2045.73 638.978 2045.73 638.978C2050.7 640.281 2054.98 642.767 2058.57 646.433C2062.23 650.019 2064.72 654.296 2066.02 659.267Z" fill="black"/>
</g>
</g>
<g id="Medium-S">
<g id="Vector_35">
<path d="M1700 659C1700 656.239 1702.24 654 1705 654H1742C1744.76 654 1747 656.239 1747 659C1747 661.761 1744.76 664 1742 664H1705C1702.24 664 1700 661.761 1700 659Z" fill="black"/>
<path d="M1700 680C1700 677.239 1702.24 675 1705 675H1777C1779.76 675 1782 677.239 1782 680C1782 682.761 1779.76 685 1777 685H1705C1702.24 685 1700 682.761 1700 680Z" fill="black"/>
<path d="M1700 701C1700 698.239 1702.24 696 1705 696H1747C1749.76 696 1752 698.239 1752 701C1752 703.761 1749.76 706 1747 706H1705C1702.24 706 1700 703.761 1700 701Z" fill="black"/>
<path d="M1770.54 659.283C1770.54 659.283 1770.72 660 1771.5 660C1772.28 660 1772.46 659.283 1772.46 659.283C1773.73 654.426 1776.12 650.245 1779.62 646.742C1783.21 643.158 1787.43 640.73 1792.28 639.456C1792.28 639.456 1793 639.272 1793 638.5C1793 637.728 1792.28 637.544 1792.28 637.544C1787.43 636.27 1783.25 633.881 1779.74 630.378C1776.24 626.794 1773.81 622.574 1772.46 617.717C1772.46 617.717 1772.3 617 1771.5 617C1770.7 617 1770.54 617.717 1770.54 617.717C1769.27 622.574 1766.84 626.794 1763.26 630.378C1759.75 633.881 1755.57 636.27 1750.72 637.544C1750.72 637.544 1750 637.722 1750 638.5C1750 639.278 1750.72 639.456 1750.72 639.456C1755.57 640.73 1759.75 643.158 1763.26 646.742C1766.84 650.245 1769.27 654.426 1770.54 659.283Z" fill="black"/>
</g>
</g>
<g id="Regular-S">
<g id="Vector_36">
<path d="M1450.5 696C1452.99 696 1455 698.015 1455 700.5C1455 702.985 1452.99 705 1450.5 705H1407.5C1405.01 705 1403 702.985 1403 700.5C1403 698.015 1405.01 696 1407.5 696H1450.5Z" fill="black"/>
<path d="M1480.5 675C1482.99 675 1485 677.015 1485 679.5C1485 681.985 1482.99 684 1480.5 684H1407.5C1405.01 684 1403 681.985 1403 679.5C1403 677.015 1405.01 675 1407.5 675H1480.5Z" fill="black"/>
<path d="M1445.5 654C1447.99 654 1450 656.015 1450 658.5C1450 660.985 1447.99 663 1445.5 663H1407.5C1405.01 663 1403 660.985 1403 658.5C1403 656.015 1405.01 654 1407.5 654H1445.5Z" fill="black"/>
<path d="M1475 617C1475.78 617 1475.93 617.7 1475.93 617.7C1477.26 622.444 1479.63 626.567 1483.05 630.066C1486.47 633.489 1490.56 635.822 1495.3 637.066C1495.3 637.066 1496 637.246 1496 638C1496 638.754 1495.3 638.934 1495.3 638.934C1490.56 640.178 1486.43 642.55 1482.93 646.05C1479.51 649.472 1477.18 653.555 1475.93 658.3C1475.93 658.3 1475.76 659 1475 659C1474.24 659 1474.07 658.3 1474.07 658.3C1472.82 653.555 1470.45 649.472 1466.95 646.05C1463.53 642.55 1459.44 640.178 1454.7 638.934C1454.7 638.934 1454 638.76 1454 638C1454 637.24 1454.7 637.066 1454.7 637.066C1459.44 635.822 1463.53 633.489 1466.95 630.066C1470.45 626.567 1472.82 622.444 1474.07 617.7C1474.07 617.7 1474.22 617 1475 617Z" fill="black"/>
</g>
</g>
<g id="Light-S">
<g id="Vector_37">
<path d="M1154 696C1156.21 696 1158 697.791 1158 700C1158 702.209 1156.21 704 1154 704H1110C1107.79 704 1106 702.209 1106 700C1106 697.791 1107.79 696 1110 696H1154Z" fill="black"/>
<path d="M1184 675C1186.21 675 1188 676.791 1188 679C1188 681.209 1186.21 683 1184 683H1110C1107.79 683 1106 681.209 1106 679C1106 676.791 1107.79 675 1110 675H1184Z" fill="black"/>
<path d="M1149 654C1151.21 654 1153 655.791 1153 658C1153 660.209 1151.21 662 1149 662H1110C1107.79 662 1106 660.209 1106 658C1106 655.791 1107.79 654 1110 654H1149Z" fill="black"/>
<path d="M1178.5 617C1179.26 617 1179.41 617.684 1179.41 617.684C1180.7 622.315 1183.02 626.339 1186.36 629.756C1189.7 633.096 1193.68 635.374 1198.32 636.589C1198.32 636.589 1199 636.764 1199 637.5C1199 638.236 1198.32 638.411 1198.32 638.411C1193.68 639.626 1189.66 641.942 1186.24 645.358C1182.9 648.699 1180.63 652.685 1179.41 657.316C1179.41 657.316 1179.24 658 1178.5 658C1177.76 658 1177.59 657.316 1177.59 657.316C1176.37 652.685 1174.06 648.699 1170.64 645.358C1167.3 641.942 1163.31 639.626 1158.68 638.411C1158.68 638.411 1158 638.241 1158 637.5C1158 636.759 1158.68 636.589 1158.68 636.589C1163.31 635.374 1167.3 633.096 1170.64 629.756C1174.06 626.339 1176.37 622.315 1177.59 617.684C1177.59 617.684 1177.74 617 1178.5 617Z" fill="black"/>
</g>
</g>
<g id="Thin-S">
<g id="Vector_38">
<path d="M858 696C859.657 696 861 697.343 861 699C861 700.657 859.657 702 858 702H812C810.343 702 809 700.657 809 699C809 697.343 810.343 696 812 696H858Z" fill="black"/>
<path d="M888 675C889.657 675 891 676.343 891 678C891 679.657 889.657 681 888 681H812C810.343 681 809 679.657 809 678C809 676.343 810.343 675 812 675H888Z" fill="black"/>
<path d="M853 654C854.657 654 856 655.343 856 657C856 658.657 854.657 660 853 660H812C810.343 660 809 658.657 809 657C809 655.343 810.343 654 812 654H853Z" fill="black"/>
<path d="M882.5 617C883.221 617 883.366 617.65 883.366 617.65C884.594 622.056 886.797 625.884 889.975 629.134C893.152 632.311 896.944 634.478 901.35 635.634C901.35 635.634 902 635.8 902 636.5C902 637.2 901.35 637.366 901.35 637.366C896.944 638.522 893.116 640.725 889.866 643.975C886.689 647.152 884.522 650.944 883.366 655.35C883.366 655.35 883.204 656 882.5 656C881.796 656 881.634 655.35 881.634 655.35C880.478 650.944 878.275 647.152 875.025 643.975C871.848 640.725 868.056 638.522 863.65 637.366C863.65 637.366 863 637.205 863 636.5C863 635.795 863.65 635.634 863.65 635.634C868.056 634.478 871.848 632.311 875.025 629.134C878.275 625.884 880.478 622.056 881.634 617.65C881.634 617.65 881.779 617 882.5 617Z" fill="black"/>
</g>
</g>
<g id="Ultralight-S">
<g id="Vector_39">
<path d="M563 697C564.104 697 565 697.895 565 699C565 700.105 564.104 701 563 701H515C513.895 701 513 700.105 513 699C513 697.895 513.895 697 515 697H563Z" fill="black"/>
<path d="M593 676C594.104 676 595 676.895 595 678C595 679.105 594.104 680 593 680H515C513.895 680 513 679.105 513 678C513 676.895 513.895 676 515 676H593Z" fill="black"/>
<path d="M558 655C559.104 655 560 655.895 560 657C560 658.105 559.104 659 558 659H515C513.895 659 513 658.105 513 657C513 655.895 513.895 655 515 655H558Z" fill="black"/>
<path d="M587 618C587.703 618 587.845 618.634 587.845 618.634C589.041 622.926 591.187 626.656 594.283 629.822C597.379 632.918 601.074 635.029 605.366 636.155C605.366 636.155 606 636.318 606 637C606 637.682 605.366 637.845 605.366 637.845C601.074 638.971 597.344 641.117 594.178 644.283C591.081 647.379 588.971 651.074 587.845 655.366C587.845 655.366 587.685 656 587 656C586.314 656 586.155 655.366 586.155 655.366C585.029 651.074 582.883 647.379 579.717 644.283C576.62 641.117 572.926 638.971 568.634 637.845C568.634 637.845 568 637.687 568 637C568 636.313 568.634 636.155 568.634 636.155C572.926 635.029 576.62 632.918 579.717 629.822C582.883 626.656 585.029 622.926 586.155 618.634C586.155 618.634 586.297 618 587 618Z" fill="black"/>
</g>
</g>
</g>
</g>
<defs>
<clipPath id="clip0_2538_5540">
<rect width="3300" height="2200" fill="white"/>
</clipPath>
</defs>
</svg>
