<?xml version="1.0" encoding="UTF-8"?>
<!--Generator: Apple Native CoreSVG 175.5-->
<!DOCTYPE svg
PUBLIC "-//W3C//DTD SVG 1.1//EN"
       "http://www.w3.org/Graphics/SVG/1.1/DTD/svg11.dtd">
<svg version="1.1" xmlns="http://www.w3.org/2000/svg" xmlns:xlink="http://www.w3.org/1999/xlink" width="3300" height="2200">
 <!--glyph: "", point size: 100.0, font version: "18.0d12e2", template writer version: "101"-->
 <style>.multicolor-0:tintColor {fill:#007AFF}
.multicolor-1:tintColor {fill:#007AFF;opacity:0.0;-sfsymbols-clear-behind:true}

.hierarchical-0:secondary {fill:#4D4D4D}
.hierarchical-1:primary {fill:#212121}

.SFSymbolsPreview007AFF {fill:#007AFF;opacity:1.0}
.SFSymbolsPreviewFFFFFF {fill:#FFFFFF;opacity:1.0}
</style>
 <g id="Notes">
  <rect height="2200" id="artboard" style="fill:white;opacity:1" width="3300" x="0" y="0"/>
  <line style="fill:none;stroke:black;opacity:1;stroke-width:0.5;" x1="263" x2="3036" y1="292" y2="292"/>
  <text style="stroke:none;fill:black;font-family:sans-serif;font-size:13;font-weight:bold;" transform="matrix(1 0 0 1 263 322)">Weight/Scale Variations</text>
  <text style="stroke:none;fill:black;font-family:sans-serif;font-size:13;text-anchor:middle;" transform="matrix(1 0 0 1 559.711 322)">Ultralight</text>
  <text style="stroke:none;fill:black;font-family:sans-serif;font-size:13;text-anchor:middle;" transform="matrix(1 0 0 1 856.422 322)">Thin</text>
  <text style="stroke:none;fill:black;font-family:sans-serif;font-size:13;text-anchor:middle;" transform="matrix(1 0 0 1 1153.13 322)">Light</text>
  <text style="stroke:none;fill:black;font-family:sans-serif;font-size:13;text-anchor:middle;" transform="matrix(1 0 0 1 1449.84 322)">Regular</text>
  <text style="stroke:none;fill:black;font-family:sans-serif;font-size:13;text-anchor:middle;" transform="matrix(1 0 0 1 1746.56 322)">Medium</text>
  <text style="stroke:none;fill:black;font-family:sans-serif;font-size:13;text-anchor:middle;" transform="matrix(1 0 0 1 2043.27 322)">Semibold</text>
  <text style="stroke:none;fill:black;font-family:sans-serif;font-size:13;text-anchor:middle;" transform="matrix(1 0 0 1 2339.98 322)">Bold</text>
  <text style="stroke:none;fill:black;font-family:sans-serif;font-size:13;text-anchor:middle;" transform="matrix(1 0 0 1 2636.69 322)">Heavy</text>
  <text style="stroke:none;fill:black;font-family:sans-serif;font-size:13;text-anchor:middle;" transform="matrix(1 0 0 1 2933.4 322)">Black</text>
  <line style="fill:none;stroke:black;opacity:1;stroke-width:0.5;" x1="263" x2="3036" y1="1903" y2="1903"/>
  <g transform="matrix(1 0 0 1 263 1933)">
   <path d="M9.24805 0.830078C13.5547 0.830078 17.1387-2.74414 17.1387-7.05078C17.1387-11.3574 13.5449-14.9316 9.23828-14.9316C4.94141-14.9316 1.36719-11.3574 1.36719-7.05078C1.36719-2.74414 4.95117 0.830078 9.24805 0.830078ZM9.24805-0.654297C5.70312-0.654297 2.87109-3.49609 2.87109-7.05078C2.87109-10.6055 5.69336-13.4473 9.23828-13.4473C12.793-13.4473 15.6445-10.6055 15.6445-7.05078C15.6445-3.49609 12.8027-0.654297 9.24805-0.654297ZM5.6543-7.05078C5.6543-6.62109 5.95703-6.32812 6.40625-6.32812L8.50586-6.32812L8.50586-4.20898C8.50586-3.76953 8.79883-3.4668 9.22852-3.4668C9.67773-3.4668 9.9707-3.76953 9.9707-4.20898L9.9707-6.32812L12.0898-6.32812C12.5293-6.32812 12.832-6.62109 12.832-7.05078C12.832-7.49023 12.5293-7.79297 12.0898-7.79297L9.9707-7.79297L9.9707-9.90234C9.9707-10.3516 9.67773-10.6543 9.22852-10.6543C8.79883-10.6543 8.50586-10.3516 8.50586-9.90234L8.50586-7.79297L6.40625-7.79297C5.95703-7.79297 5.6543-7.49023 5.6543-7.05078Z"/>
  </g>
  <g transform="matrix(1 0 0 1 281.867 1933)">
   <path d="M11.709 2.91016C17.1582 2.91016 21.6699-1.61133 21.6699-7.05078C21.6699-12.5 17.1484-17.0117 11.6992-17.0117C6.25977-17.0117 1.74805-12.5 1.74805-7.05078C1.74805-1.61133 6.26953 2.91016 11.709 2.91016ZM11.709 1.25C7.09961 1.25 3.41797-2.44141 3.41797-7.05078C3.41797-11.6602 7.08984-15.3516 11.6992-15.3516C16.3086-15.3516 20.0098-11.6602 20.0098-7.05078C20.0098-2.44141 16.3184 1.25 11.709 1.25ZM7.17773-7.05078C7.17773-6.57227 7.50977-6.25 8.00781-6.25L10.8789-6.25L10.8789-3.36914C10.8789-2.88086 11.2109-2.53906 11.6895-2.53906C12.1777-2.53906 12.5195-2.87109 12.5195-3.36914L12.5195-6.25L15.4004-6.25C15.8887-6.25 16.2305-6.57227 16.2305-7.05078C16.2305-7.53906 15.8887-7.88086 15.4004-7.88086L12.5195-7.88086L12.5195-10.752C12.5195-11.25 12.1777-11.5918 11.6895-11.5918C11.2109-11.5918 10.8789-11.25 10.8789-10.752L10.8789-7.88086L8.00781-7.88086C7.50977-7.88086 7.17773-7.53906 7.17773-7.05078Z"/>
  </g>
  <g transform="matrix(1 0 0 1 305.646 1933)">
   <path d="M14.9707 5.66406C21.9336 5.66406 27.6953-0.0976562 27.6953-7.05078C27.6953-14.0137 21.9238-19.7754 14.9609-19.7754C8.00781-19.7754 2.25586-14.0137 2.25586-7.05078C2.25586-0.0976562 8.01758 5.66406 14.9707 5.66406ZM14.9707 3.84766C8.93555 3.84766 4.08203-1.01562 4.08203-7.05078C4.08203-13.0957 8.92578-17.9492 14.9609-17.9492C21.0059-17.9492 25.8691-13.0957 25.8691-7.05078C25.8691-1.01562 21.0156 3.84766 14.9707 3.84766ZM9.19922-7.05078C9.19922-6.5332 9.57031-6.17188 10.1172-6.17188L14.0625-6.17188L14.0625-2.2168C14.0625-1.67969 14.4336-1.29883 14.9512-1.29883C15.4883-1.29883 15.8594-1.66992 15.8594-2.2168L15.8594-6.17188L19.8145-6.17188C20.3516-6.17188 20.7324-6.5332 20.7324-7.05078C20.7324-7.59766 20.3613-7.96875 19.8145-7.96875L15.8594-7.96875L15.8594-11.9141C15.8594-12.4609 15.4883-12.8418 14.9512-12.8418C14.4336-12.8418 14.0625-12.4609 14.0625-11.9141L14.0625-7.96875L10.1172-7.96875C9.57031-7.96875 9.19922-7.59766 9.19922-7.05078Z"/>
  </g>
  <text style="stroke:none;fill:black;font-family:sans-serif;font-size:13;font-weight:bold;" transform="matrix(1 0 0 1 263 1953)">Design Variations</text>
  <text style="stroke:none;fill:black;font-family:sans-serif;font-size:13;" transform="matrix(1 0 0 1 263 1971)">Symbols are supported in up to nine weights and three scales.</text>
  <text style="stroke:none;fill:black;font-family:sans-serif;font-size:13;" transform="matrix(1 0 0 1 263 1989)">For optimal layout with text and other symbols, vertically align</text>
  <text style="stroke:none;fill:black;font-family:sans-serif;font-size:13;" transform="matrix(1 0 0 1 263 2007)">symbols with the adjacent text.</text>
  <line style="fill:none;stroke:#00AEEF;stroke-width:0.5;opacity:1.0;" x1="776" x2="776" y1="1919" y2="1933"/>
  <g transform="matrix(1 0 0 1 776 1933)">
   <path d="M3.31055 0.15625C3.82812 0.15625 4.08203-0.0390625 4.26758-0.585938L5.52734-4.0332L11.2891-4.0332L12.5488-0.585938C12.7344-0.0390625 12.9883 0.15625 13.4961 0.15625C14.0137 0.15625 14.3457-0.15625 14.3457-0.644531C14.3457-0.810547 14.3164-0.966797 14.2383-1.17188L9.6582-13.3691C9.43359-13.9648 9.0332-14.2676 8.4082-14.2676C7.80273-14.2676 7.39258-13.9746 7.17773-13.3789L2.59766-1.16211C2.51953-0.957031 2.49023-0.800781 2.49023-0.634766C2.49023-0.146484 2.80273 0.15625 3.31055 0.15625ZM6.00586-5.51758L8.37891-12.0898L8.42773-12.0898L10.8008-5.51758Z"/>
  </g>
  <line style="fill:none;stroke:#00AEEF;stroke-width:0.5;opacity:1.0;" x1="793.197" x2="793.197" y1="1919" y2="1933"/>
  <text style="stroke:none;fill:black;font-family:sans-serif;font-size:13;font-weight:bold;" transform="matrix(1 0 0 1 776 1953)">Margins</text>
  <text style="stroke:none;fill:black;font-family:sans-serif;font-size:13;" transform="matrix(1 0 0 1 776 1971)">Leading and trailing margins on the left and right side of each symbol</text>
  <text style="stroke:none;fill:black;font-family:sans-serif;font-size:13;" transform="matrix(1 0 0 1 776 1989)">can be adjusted by modifying the x-location of the margin guidelines.</text>
  <text style="stroke:none;fill:black;font-family:sans-serif;font-size:13;" transform="matrix(1 0 0 1 776 2007)">Modifications are automatically applied proportionally to all</text>
  <text style="stroke:none;fill:black;font-family:sans-serif;font-size:13;" transform="matrix(1 0 0 1 776 2025)">scales and weights.</text>
  <g transform="matrix(1 0 0 1 1289 1933)">
   <path d="M2.8418 1.86523L4.54102 3.57422C5.40039 4.44336 6.38672 4.38477 7.31445 3.35938L18.0078-8.42773L17.041-9.4043L6.42578 2.27539C6.07422 2.67578 5.74219 2.77344 5.27344 2.30469L4.10156 1.14258C3.63281 0.683594 3.74023 0.341797 4.14062-0.0195312L15.6152-10.8203L14.6387-11.7871L3.04688-0.898438C2.06055 0.0195312 1.98242 0.996094 2.8418 1.86523ZM9.25781-16.3281C8.83789-15.918 8.80859-15.3418 9.04297-14.9512C9.27734-14.5898 9.73633-14.3555 10.3809-14.5215C11.8457-14.8633 13.3691-14.9219 14.7949-13.9844L14.209-12.5293C13.8672-11.6992 14.043-11.1133 14.5801-10.5664L16.875-8.25195C17.3633-7.76367 17.7734-7.74414 18.3398-7.8418L19.4043-8.03711L20.0684-7.36328L20.0293-6.80664C19.9902-6.30859 20.1172-5.92773 20.6055-5.44922L21.3672-4.70703C21.8457-4.22852 22.4609-4.19922 22.9297-4.66797L25.8398-7.58789C26.3086-8.05664 26.2891-8.65234 25.8105-9.13086L25.0391-9.89258C24.5605-10.3711 24.1895-10.5273 23.7109-10.4883L23.1348-10.4395L22.4902-11.0742L22.7344-12.1973C22.8613-12.7637 22.7051-13.2031 22.1191-13.7891L19.9219-15.9766C16.582-19.2969 12.1484-19.2188 9.25781-16.3281ZM10.752-15.957C13.1836-17.7344 16.4746-17.4316 18.7012-15.2051L21.1328-12.793C21.3672-12.5586 21.4062-12.373 21.3379-12.0312L21.0156-10.5469L22.5195-9.0625L23.5059-9.12109C23.7598-9.13086 23.8379-9.11133 24.0332-8.91602L24.6094-8.33984L22.168-5.89844L21.5918-6.47461C21.3965-6.66992 21.3672-6.74805 21.377-7.01172L21.4453-7.98828L19.9512-9.47266L18.4277-9.21875C18.1055-9.15039 17.959-9.17969 17.7148-9.41406L15.7129-11.416C15.459-11.6504 15.4297-11.8164 15.5859-12.1875L16.4648-14.2773C14.9023-15.7324 12.8711-16.3574 10.8398-15.7617C10.6836-15.7227 10.625-15.8496 10.752-15.957Z"/>
  </g>
  <text style="stroke:none;fill:black;font-family:sans-serif;font-size:13;font-weight:bold;" transform="matrix(1 0 0 1 1289 1953)">Exporting</text>
  <text style="stroke:none;fill:black;font-family:sans-serif;font-size:13;" transform="matrix(1 0 0 1 1289 1971)">Symbols should be outlined when exporting to ensure the</text>
  <text style="stroke:none;fill:black;font-family:sans-serif;font-size:13;" transform="matrix(1 0 0 1 1289 1989)">design is preserved when submitting to Xcode.</text>
  <text id="template-version" style="stroke:none;fill:black;font-family:sans-serif;font-size:13;text-anchor:end;" transform="matrix(1 0 0 1 3036 1933)">Template v.3.0</text>
  <text style="stroke:none;fill:black;font-family:sans-serif;font-size:13;text-anchor:end;" transform="matrix(1 0 0 1 3036 1951)">Requires Xcode 13 or greater</text>
  <text id="descriptive-name" style="stroke:none;fill:black;font-family:sans-serif;font-size:13;text-anchor:end;" transform="matrix(1 0 0 1 3036 1969)">Generated from plus.circle.fill.alt.cr</text>
  <text style="stroke:none;fill:black;font-family:sans-serif;font-size:13;text-anchor:end;" transform="matrix(1 0 0 1 3036 1987)">Typeset at 100 points</text>
  <text style="stroke:none;fill:black;font-family:sans-serif;font-size:13;" transform="matrix(1 0 0 1 263 726)">Small</text>
  <text style="stroke:none;fill:black;font-family:sans-serif;font-size:13;" transform="matrix(1 0 0 1 263 1156)">Medium</text>
  <text style="stroke:none;fill:black;font-family:sans-serif;font-size:13;" transform="matrix(1 0 0 1 263 1586)">Large</text>
 </g>
 <g id="Guides">
  <g id="H-reference" style="fill:#27AAE1;stroke:none;" transform="matrix(1 0 0 1 339 696)">
   <path d="M0.993654 0L3.63775 0L29.3281-67.1323L30.0303-67.1323L30.0303-70.459L28.1226-70.459ZM11.6885-24.4799L46.9815-24.4799L46.2315-26.7285L12.4385-26.7285ZM55.1196 0L57.7637 0L30.6382-70.459L29.4326-70.459L29.4326-67.1323Z"/>
  </g>
  <line id="Baseline-S" style="fill:none;stroke:#27AAE1;opacity:1;stroke-width:0.5;" x1="263" x2="3036" y1="696" y2="696"/>
  <line id="Capline-S" style="fill:none;stroke:#27AAE1;opacity:1;stroke-width:0.5;" x1="263" x2="3036" y1="625.541" y2="625.541"/>
  <g id="H-reference" style="fill:#27AAE1;stroke:none;" transform="matrix(1 0 0 1 339 1126)">
   <path d="M0.993654 0L3.63775 0L29.3281-67.1323L30.0303-67.1323L30.0303-70.459L28.1226-70.459ZM11.6885-24.4799L46.9815-24.4799L46.2315-26.7285L12.4385-26.7285ZM55.1196 0L57.7637 0L30.6382-70.459L29.4326-70.459L29.4326-67.1323Z"/>
  </g>
  <line id="Baseline-M" style="fill:none;stroke:#27AAE1;opacity:1;stroke-width:0.5;" x1="263" x2="3036" y1="1126" y2="1126"/>
  <line id="Capline-M" style="fill:none;stroke:#27AAE1;opacity:1;stroke-width:0.5;" x1="263" x2="3036" y1="1055.54" y2="1055.54"/>
  <g id="H-reference" style="fill:#27AAE1;stroke:none;" transform="matrix(1 0 0 1 339 1556)">
   <path d="M0.993654 0L3.63775 0L29.3281-67.1323L30.0303-67.1323L30.0303-70.459L28.1226-70.459ZM11.6885-24.4799L46.9815-24.4799L46.2315-26.7285L12.4385-26.7285ZM55.1196 0L57.7637 0L30.6382-70.459L29.4326-70.459L29.4326-67.1323Z"/>
  </g>
  <line id="Baseline-L" style="fill:none;stroke:#27AAE1;opacity:1;stroke-width:0.5;" x1="263" x2="3036" y1="1556" y2="1556"/>
  <line id="Capline-L" style="fill:none;stroke:#27AAE1;opacity:1;stroke-width:0.5;" x1="263" x2="3036" y1="1485.54" y2="1485.54"/>
  <line id="left-margin-Regular-M" style="fill:none;stroke:#FF3B30;stroke-width:0.5;opacity:1.0;" x1="1374.84" x2="1374.84" y1="1030.79" y2="1150.12"/>
  <line id="right-margin-Regular-M" style="fill:none;stroke:#FF3B30;stroke-width:0.5;opacity:1.0;" x1="1524.84" x2="1524.84" y1="1030.79" y2="1150.12"/>
 </g>
 <g id="Symbols">
  <g id="Black-L" transform="matrix(1 0 0 1 2843.4 1556)">
   <path class="multicolor-0:tintColor hierarchical-0:secondary SFSymbolsPreview007AFF" d="M124.7 47.29C113.85 52 102.26 54.35 89.96 54.35C77.65 54.35 66.07 52 55.21 47.29C44.35 42.65 34.78 36.17 26.47 27.86C18.23 19.56 11.76 9.97 7.05-0.89C2.35-11.75 0-23.34 0-35.65C0-47.96 2.35-59.55 7.05-70.41C11.76-81.27 18.23-90.83 26.47-99.08C34.78-107.38 44.33-113.89 55.12-118.59C65.98-123.3 77.56-125.65 89.87-125.65C102.24-125.65 113.85-123.3 124.7-118.59C135.56-113.89 145.14-107.38 153.44-99.08C161.74-90.83 168.24-81.27 172.95-70.41C177.65-59.55 180-47.96 180-35.65C180-23.34 177.65-11.75 172.95-0.89C168.24 9.97 161.74 19.56 153.44 27.86C145.14 36.17 135.56 42.65 124.7 47.29Z"/>
   <path class="multicolor-1:tintColor hierarchical-1:primary SFSymbolsPreviewFFFFFF" d="M79.34-0.83C79.34 5.25 84.26 10.17 90.34 10.17C96.42 10.17 101.34 5.25 101.34-0.83L101.34-24.67L125.17-24.67C131.25-24.67 136.17-29.59 136.17-35.67C136.17-41.74 131.25-46.67 125.17-46.67L101.34-46.67L101.34-70.5C101.34-76.58 96.42-81.5 90.34-81.5C84.26-81.5 79.34-76.58 79.34-70.5L79.34-46.67L55.5-46.67C49.43-46.67 44.5-41.74 44.5-35.67C44.5-29.59 49.43-24.67 55.5-24.67L79.34-24.67L79.34-0.83Z"/>
  </g>
  <g id="Heavy-L" transform="matrix(1 0 0 1 2545.69 1556)">
   <path class="multicolor-0:tintColor hierarchical-0:secondary SFSymbolsPreview007AFF" d="M126.09 48.26C115.11 53.02 103.4 55.4 90.96 55.4C78.51 55.4 66.8 53.02 55.82 48.26C44.85 43.57 35.16 37.02 26.77 28.62C18.43 20.22 11.89 10.53 7.13-0.45C2.38-11.43 0-23.15 0-35.6C0-48.05 2.38-59.77 7.13-70.75C11.89-81.73 18.43-91.39 26.77-99.73C35.16-108.13 44.82-114.71 55.74-119.46C66.71-124.22 78.42-126.6 90.87-126.6C103.37-126.6 115.11-124.22 126.09-119.46C137.07-114.71 146.75-108.13 155.14-99.73C163.54-91.39 170.11-81.73 174.87-70.75C179.62-59.77 182-48.05 182-35.6C182-23.15 179.62-11.43 174.87-0.45C170.11 10.53 163.54 20.22 155.14 28.62C146.75 37.02 137.07 43.57 126.09 48.26Z"/>
   <path class="multicolor-1:tintColor hierarchical-1:primary SFSymbolsPreviewFFFFFF" d="M81.84-0.83C81.84 4.42 86.09 8.67 91.34 8.67C96.59 8.67 100.84 4.42 100.84-0.83L100.84-26.17L126.17-26.17C131.42-26.17 135.67-30.42 135.67-35.67C135.67-40.91 131.42-45.17 126.17-45.17L100.84-45.17L100.84-70.5C100.84-75.75 96.59-80 91.34-80C86.09-80 81.84-75.75 81.84-70.5L81.84-45.17L56.5-45.17C51.25-45.17 47-40.91 47-35.67C47-30.42 51.25-26.17 56.5-26.17L81.84-26.17L81.84-0.83Z"/>
  </g>
  <g id="Bold-L" transform="matrix(1 0 0 1 2249.98 1556)">
   <path class="multicolor-0:tintColor hierarchical-0:secondary SFSymbolsPreview007AFF" d="M124.7 47.74C113.85 52.45 102.26 54.8 89.96 54.8C77.65 54.8 66.07 52.45 55.21 47.74C44.35 43.1 34.78 36.62 26.47 28.31C18.23 20.01 11.76 10.42 7.05-0.44C2.35-11.3 0-22.89 0-35.2C0-47.51 2.35-59.1 7.05-69.96C11.76-80.83 18.23-90.38 26.47-98.63C34.78-106.93 44.33-113.44 55.12-118.14C65.98-122.85 77.56-125.2 89.87-125.2C102.24-125.2 113.85-122.85 124.7-118.14C135.56-113.44 145.14-106.93 153.44-98.63C161.74-90.38 168.24-80.83 172.95-69.96C177.65-59.1 180-47.51 180-35.2C180-22.89 177.65-11.3 172.95-0.44C168.24 10.42 161.74 20.01 153.44 28.31C145.14 36.62 135.56 43.1 124.7 47.74Z"/>
   <path class="multicolor-1:tintColor hierarchical-1:primary SFSymbolsPreviewFFFFFF" d="M81.99-0.33C81.99 4.09 85.57 7.67 89.99 7.67C94.41 7.67 97.99 4.09 97.99-0.33L97.99-27.17L124.82-27.17C129.24-27.17 132.82-30.75 132.82-35.17C132.82-39.59 129.24-43.17 124.82-43.17L97.99-43.17L97.99-70C97.99-74.42 94.41-78 89.99-78C85.57-78 81.99-74.42 81.99-70L81.99-43.17L55.15-43.17C50.73-43.17 47.15-39.59 47.15-35.17C47.15-30.75 50.73-27.17 55.15-27.17L81.99-27.17L81.99-0.33Z"/>
  </g>
  <g id="Semibold-L" transform="matrix(1 0 0 1 1953.27 1556)">
   <path class="multicolor-0:tintColor hierarchical-0:secondary SFSymbolsPreview007AFF" d="M124.7 47.44C113.85 52.15 102.26 54.5 89.96 54.5C77.65 54.5 66.07 52.15 55.21 47.44C44.35 42.8 34.78 36.32 26.47 28.01C18.23 19.71 11.76 10.12 7.05-0.74C2.35-11.6 0-23.19 0-35.5C0-47.81 2.35-59.4 7.05-70.26C11.76-81.12 18.23-90.68 26.47-98.93C34.78-107.23 44.33-113.74 55.12-118.44C65.98-123.15 77.56-125.5 89.87-125.5C102.24-125.5 113.85-123.15 124.7-118.44C135.56-113.74 145.14-107.23 153.44-98.93C161.74-90.68 168.24-81.12 172.95-70.26C177.65-59.4 180-47.81 180-35.5C180-23.19 177.65-11.6 172.95-0.74C168.24 10.12 161.74 19.71 153.44 28.01C145.14 36.32 135.56 42.8 124.7 47.44Z"/>
   <path class="multicolor-1:tintColor hierarchical-1:primary SFSymbolsPreviewFFFFFF" d="M83.34-0.63C83.34 2.96 86.25 5.87 89.84 5.87C93.43 5.87 96.34 2.96 96.34-0.63L96.34-28.97L124.67-28.97C128.26-28.97 131.17-31.88 131.17-35.47C131.17-39.06 128.26-41.97 124.67-41.97L96.34-41.97L96.34-70.3C96.34-73.89 93.43-76.8 89.84-76.8C86.25-76.8 83.34-73.89 83.34-70.3L83.34-41.97L55-41.97C51.41-41.97 48.5-39.06 48.5-35.47C48.5-31.88 51.41-28.97 55-28.97L83.34-28.97L83.34-0.63Z"/>
  </g>
  <g id="Medium-L" transform="matrix(1 0 0 1 1656.56 1556)">
   <path class="multicolor-0:tintColor hierarchical-0:secondary SFSymbolsPreview007AFF" d="M124.7 47.44C113.85 52.15 102.26 54.5 89.96 54.5C77.65 54.5 66.07 52.15 55.21 47.44C44.35 42.8 34.78 36.32 26.47 28.01C18.23 19.71 11.76 10.12 7.05-0.74C2.35-11.6 0-23.19 0-35.5C0-47.81 2.35-59.4 7.05-70.26C11.76-81.12 18.23-90.68 26.47-98.93C34.78-107.23 44.33-113.74 55.12-118.44C65.98-123.15 77.56-125.5 89.87-125.5C102.24-125.5 113.85-123.15 124.7-118.44C135.56-113.74 145.14-107.23 153.44-98.93C161.74-90.68 168.24-81.12 172.95-70.26C177.65-59.4 180-47.81 180-35.5C180-23.19 177.65-11.6 172.95-0.74C168.24 10.12 161.74 19.71 153.44 28.01C145.14 36.32 135.56 42.8 124.7 47.44Z"/>
   <path class="multicolor-1:tintColor hierarchical-1:primary SFSymbolsPreviewFFFFFF" d="M84.34-0.63C84.34 2.57 86.94 5.17 90.14 5.17C93.34 5.17 95.94 2.57 95.94-0.63L95.94-29.67L124.97-29.67C128.17-29.67 130.77-32.26 130.77-35.47C130.77-38.67 128.17-41.27 124.97-41.27L95.94-41.27L95.94-70.3C95.94-73.5 93.34-76.1 90.14-76.1C86.94-76.1 84.34-73.5 84.34-70.3L84.34-41.27L55.3-41.27C52.1-41.27 49.5-38.67 49.5-35.47C49.5-32.26 52.1-29.67 55.3-29.67L84.34-29.67L84.34-0.63Z"/>
  </g>
  <g id="Regular-L" transform="matrix(1 0 0 1 1359.84 1556)">
   <path class="multicolor-0:tintColor hierarchical-0:secondary SFSymbolsPreview007AFF" d="M124.7 47.74C113.85 52.45 102.26 54.8 89.96 54.8C77.65 54.8 66.07 52.45 55.21 47.74C44.35 43.1 34.77 36.62 26.47 28.31C18.23 20.01 11.76 10.43 7.05-0.44C2.35-11.3 0-22.89 0-35.2C0-47.51 2.35-59.1 7.05-69.96C11.76-80.82 18.23-90.38 26.47-98.63C34.77-106.93 44.32-113.44 55.12-118.14C65.98-122.85 77.56-125.2 89.87-125.2C102.23-125.2 113.85-122.85 124.7-118.14C135.56-113.44 145.14-106.93 153.44-98.63C161.74-90.38 168.24-80.82 172.95-69.96C177.65-59.1 180-47.51 180-35.2C180-22.89 177.65-11.3 172.95-0.44C168.24 10.43 161.74 20.01 153.44 28.31C145.14 36.62 135.56 43.1 124.7 47.74Z"/>
   <path class="multicolor-1:tintColor hierarchical-1:primary SFSymbolsPreviewFFFFFF" d="M85.34-0.38C85.34 2.3 87.51 4.47 90.19 4.47C92.87 4.47 95.04 2.3 95.04-0.38L95.04-30.15L124.67-30.15C127.35-30.15 129.52-32.32 129.52-35C129.52-37.68 127.35-39.85 124.67-39.85L95.04-39.85L95.04-70.05C95.04-72.73 92.87-74.9 90.19-74.9C87.51-74.9 85.34-72.73 85.34-70.05L85.34-39.85L55-39.85C52.32-39.85 50.15-37.68 50.15-35C50.15-32.32 52.32-30.15 55-30.15L85.34-30.15L85.34-0.38Z"/>
  </g>
  <g id="Light-L" transform="matrix(1 0 0 1 1063.13 1556)">
   <path class="multicolor-0:tintColor hierarchical-0:secondary SFSymbolsPreview007AFF" d="M124.7 46.94C113.85 51.65 102.26 54 89.96 54C77.65 54 66.07 51.65 55.21 46.94C44.35 42.3 34.78 35.82 26.47 27.51C18.23 19.21 11.76 9.62 7.05-1.24C2.35-12.1 0-23.69 0-36C0-48.31 2.35-59.9 7.05-70.76C11.76-81.62 18.23-91.18 26.47-99.43C34.78-107.73 44.33-114.24 55.12-118.94C65.98-123.65 77.56-126 89.87-126C102.24-126 113.85-123.65 124.7-118.94C135.56-114.24 145.14-107.73 153.44-99.43C161.74-91.18 168.24-81.62 172.95-70.76C177.65-59.9 180-48.31 180-36C180-23.69 177.65-12.1 172.95-1.24C168.24 9.62 161.74 19.21 153.44 27.51C145.14 35.82 135.56 42.3 124.7 46.94Z"/>
   <path class="multicolor-1:tintColor hierarchical-1:primary SFSymbolsPreviewFFFFFF" d="M86.84-1.03C86.84 0.79 88.32 2.27 90.14 2.27C91.96 2.27 93.44 0.79 93.44-1.03L93.44-32.57L124.97-32.57C126.79-32.57 128.27-34.05 128.27-35.87C128.27-37.69 126.79-39.17 124.97-39.17L93.44-39.17L93.44-70.7C93.44-72.52 91.96-74 90.14-74C88.32-74 86.84-72.52 86.84-70.7L86.84-39.17L55.3-39.17C53.48-39.17 52-37.69 52-35.87C52-34.05 53.48-32.57 55.3-32.57L86.84-32.57L86.84-1.03Z"/>
  </g>
  <g id="Thin-L" transform="matrix(1 0 0 1 766.422 1556)">
   <path class="multicolor-0:tintColor hierarchical-0:secondary SFSymbolsPreview007AFF" d="M124.702 45.34C113.846 50.05 102.264 52.4 89.956 52.4C77.649 52.4 66.067 50.05 55.21 45.34C44.354 40.7 34.775 34.22 26.473 25.91C18.229 17.61 11.756 8.02 7.054-2.84C2.351-13.7 0-25.29 0-37.6C0-49.91 2.351-61.5 7.054-72.36C11.756-83.22 18.229-92.78 26.473-101.03C34.775-109.33 44.325-115.84 55.123-120.54C65.98-125.25 77.562-127.6 89.869-127.6C102.235-127.6 113.846-125.25 124.702-120.54C135.559-115.84 145.138-109.33 153.44-101.03C161.742-92.78 168.244-83.22 172.946-72.36C177.649-61.5 180-49.91 180-37.6C180-25.29 177.649-13.7 172.946-2.84C168.244 8.02 161.742 17.61 153.44 25.91C145.138 34.22 135.559 40.7 124.702 45.34Z"/>
   <path class="multicolor-1:tintColor hierarchical-1:primary SFSymbolsPreviewFFFFFF" d="M87.64-2.78C87.64-1.68 88.535-0.78 89.64-0.78C90.744-0.78 91.64-1.68 91.64-2.78L91.64-35.62L124.47-35.62C125.574-35.62 126.47-36.51 126.47-37.62C126.47-38.72 125.574-39.62 124.47-39.62L91.64-39.62L91.64-72.45C91.64-73.56 90.744-74.45 89.64-74.45C88.535-74.45 87.64-73.56 87.64-72.45L87.64-39.62L54.8-39.62C53.695-39.62 52.8-38.72 52.8-37.62C52.8-36.51 53.695-35.62 54.8-35.62L87.64-35.62L87.64-2.78Z"/>
  </g>
  <g id="Ultralight-L" transform="matrix(1 0 0 1 469.711 1556)">
   <path class="multicolor-0:tintColor hierarchical-0:secondary SFSymbolsPreview007AFF" d="M124.702 47.94C113.846 52.65 102.264 55 89.956 55C77.649 55 66.067 52.65 55.21 47.94C44.354 43.3 34.775 36.82 26.473 28.51C18.229 20.21 11.756 10.62 7.054-0.24C2.351-11.1 0-22.69 0-35C0-47.31 2.351-58.9 7.054-69.76C11.756-80.62 18.229-90.18 26.473-98.43C34.775-106.73 44.325-113.24 55.123-117.94C65.98-122.65 77.562-125 89.869-125C102.235-125 113.846-122.65 124.702-117.94C135.559-113.24 145.138-106.73 153.44-98.43C161.742-90.18 168.244-80.62 172.946-69.76C177.649-58.9 180-47.31 180-35C180-22.69 177.649-11.1 172.946-0.24C168.244 10.62 161.742 20.21 153.44 28.51C145.138 36.82 135.559 43.3 124.702 47.94Z"/>
   <path class="multicolor-1:tintColor hierarchical-1:primary SFSymbolsPreviewFFFFFF" d="M88.875-0.46C88.875 0.16 89.379 0.67 90 0.67C90.621 0.67 91.125 0.16 91.125-0.46L91.125-34.17L124.83-34.17C125.451-34.17 125.955-34.68 125.955-35.3C125.955-35.92 125.451-36.42 124.83-36.42L91.125-36.42L91.125-70.13C91.125-70.75 90.621-71.25 90-71.25C89.379-71.25 88.875-70.75 88.875-70.13L88.875-36.42L55.16-36.42C54.539-36.42 54.035-35.92 54.035-35.3C54.035-34.68 54.539-34.17 55.16-34.17L88.875-34.17L88.875-0.46Z"/>
  </g>
  <g id="Black-M" transform="matrix(1 0 0 1 2858.4 1126)">
   <path class="multicolor-0:tintColor hierarchical-0:secondary SFSymbolsPreview007AFF" d="M103.92 34.32C94.87 38.24 85.22 40.2 74.96 40.2C64.71 40.2 55.06 38.24 46.01 34.32C36.96 30.45 28.98 25.05 22.06 18.13C15.19 11.21 9.8 3.22 5.88-5.83C1.96-14.88 0-24.54 0-34.8C0-45.06 1.96-54.72 5.88-63.77C9.8-72.82 15.19-80.78 22.06-87.65C28.98-94.58 36.94-100 45.94-103.92C54.98-107.84 64.63-109.8 74.89-109.8C85.2-109.8 94.87-107.84 103.92-103.92C112.97-100 120.95-94.58 127.87-87.65C134.78-80.78 140.2-72.82 144.12-63.77C148.04-54.72 150-45.06 150-34.8C150-24.54 148.04-14.88 144.12-5.83C140.2 3.22 134.78 11.21 127.87 18.13C120.95 25.05 112.97 30.45 103.92 34.32Z"/>
   <path class="multicolor-1:tintColor hierarchical-1:primary SFSymbolsPreviewFFFFFF" d="M65.5-1.96C65.5 3.29 69.75 7.54 75 7.54C80.25 7.54 84.5 3.29 84.5-1.96L84.5-25.3L107.83-25.3C113.08-25.3 117.33-29.55 117.33-34.8C117.33-40.05 113.08-44.3 107.83-44.3L84.5-44.3L84.5-67.63C84.5-72.88 80.25-77.13 75-77.13C69.75-77.13 65.5-72.88 65.5-67.63L65.5-44.3L42.16-44.3C36.91-44.3 32.66-40.05 32.66-34.8C32.66-29.55 36.91-25.3 42.16-25.3L65.5-25.3L65.5-1.96Z"/>
  </g>
  <g id="Heavy-M" transform="matrix(1 0 0 1 2561.69 1126)">
   <path class="multicolor-0:tintColor hierarchical-0:secondary SFSymbolsPreview007AFF" d="M103.92 34.32C94.87 38.24 85.22 40.2 74.96 40.2C64.71 40.2 55.06 38.24 46.01 34.32C36.96 30.45 28.98 25.05 22.06 18.13C15.19 11.21 9.8 3.22 5.88-5.83C1.96-14.88 0-24.54 0-34.8C0-45.06 1.96-54.72 5.88-63.77C9.8-72.82 15.19-80.78 22.06-87.65C28.98-94.58 36.94-100 45.94-103.92C54.98-107.84 64.63-109.8 74.89-109.8C85.2-109.8 94.87-107.84 103.92-103.92C112.97-100 120.95-94.58 127.87-87.65C134.78-80.78 140.2-72.82 144.12-63.77C148.04-54.72 150-45.06 150-34.8C150-24.54 148.04-14.88 144.12-5.83C140.2 3.22 134.78 11.21 127.87 18.13C120.95 25.05 112.97 30.45 103.92 34.32Z"/>
   <path class="multicolor-1:tintColor hierarchical-1:primary SFSymbolsPreviewFFFFFF" d="M66.5-1.96C66.5 2.73 70.31 6.54 75 6.54C79.69 6.54 83.5 2.73 83.5-1.96L83.5-26.3L107.83-26.3C112.52-26.3 116.33-30.1 116.33-34.8C116.33-39.49 112.52-43.3 107.83-43.3L83.5-43.3L83.5-67.63C83.5-72.33 79.69-76.13 75-76.13C70.31-76.13 66.5-72.33 66.5-67.63L66.5-43.3L42.16-43.3C37.47-43.3 33.66-39.49 33.66-34.8C33.66-30.1 37.47-26.3 42.16-26.3L66.5-26.3L66.5-1.96Z"/>
  </g>
  <g id="Bold-M" transform="matrix(1 0 0 1 2264.98 1126)">
   <path class="multicolor-0:tintColor hierarchical-0:secondary SFSymbolsPreview007AFF" d="M103.92 34.32C94.87 38.24 85.22 40.2 74.96 40.2C64.71 40.2 55.06 38.24 46.01 34.32C36.96 30.45 28.98 25.05 22.06 18.13C15.19 11.21 9.8 3.22 5.88-5.83C1.96-14.88 0-24.54 0-34.8C0-45.06 1.96-54.72 5.88-63.77C9.8-72.82 15.19-80.78 22.06-87.65C28.98-94.58 36.94-100 45.94-103.92C54.98-107.84 64.63-109.8 74.89-109.8C85.2-109.8 94.87-107.84 103.92-103.92C112.97-100 120.95-94.58 127.87-87.65C134.78-80.78 140.2-72.82 144.12-63.77C148.04-54.72 150-45.06 150-34.8C150-24.54 148.04-14.88 144.12-5.83C140.2 3.22 134.78 11.21 127.87 18.13C120.95 25.05 112.97 30.45 103.92 34.32Z"/>
   <path class="multicolor-1:tintColor hierarchical-1:primary SFSymbolsPreviewFFFFFF" d="M68-1.96C68 1.91 71.13 5.04 75 5.04C78.87 5.04 82 1.91 82-1.96L82-27.8L107.83-27.8C111.7-27.8 114.83-30.93 114.83-34.8C114.83-38.66 111.7-41.8 107.83-41.8L82-41.8L82-67.63C82-71.5 78.87-74.63 75-74.63C71.13-74.63 68-71.5 68-67.63L68-41.8L42.16-41.8C38.29-41.8 35.16-38.66 35.16-34.8C35.16-30.93 38.29-27.8 42.16-27.8L68-27.8L68-1.96Z"/>
  </g>
  <g id="Semibold-M" transform="matrix(1 0 0 1 1968.27 1126)">
   <path class="multicolor-0:tintColor hierarchical-0:secondary SFSymbolsPreview007AFF" d="M103.92 34.32C94.87 38.24 85.22 40.2 74.96 40.2C64.71 40.2 55.06 38.24 46.01 34.32C36.96 30.45 28.98 25.05 22.06 18.13C15.19 11.21 9.8 3.22 5.88-5.83C1.96-14.88 0-24.54 0-34.8C0-45.06 1.96-54.72 5.88-63.77C9.8-72.82 15.19-80.78 22.06-87.65C28.98-94.58 36.94-100 45.94-103.92C54.98-107.84 64.63-109.8 74.89-109.8C85.2-109.8 94.87-107.84 103.92-103.92C112.97-100 120.95-94.58 127.87-87.65C134.78-80.78 140.2-72.82 144.12-63.77C148.04-54.72 150-45.06 150-34.8C150-24.54 148.04-14.88 144.12-5.83C140.2 3.22 134.78 11.21 127.87 18.13C120.95 25.05 112.97 30.45 103.92 34.32Z"/>
   <path class="multicolor-1:tintColor hierarchical-1:primary SFSymbolsPreviewFFFFFF" d="M69-1.96C69 1.35 71.69 4.04 75 4.04C78.31 4.04 81 1.35 81-1.96L81-28.8L107.83-28.8C111.14-28.8 113.83-31.49 113.83-34.8C113.83-38.11 111.14-40.8 107.83-40.8L81-40.8L81-67.63C81-70.94 78.31-73.63 75-73.63C71.69-73.63 69-70.94 69-67.63L69-40.8L42.16-40.8C38.85-40.8 36.16-38.11 36.16-34.8C36.16-31.49 38.85-28.8 42.16-28.8L69-28.8L69-1.96Z"/>
  </g>
  <g id="Medium-M" transform="matrix(1 0 0 1 1671.56 1126)">
   <path class="multicolor-0:tintColor hierarchical-0:secondary SFSymbolsPreview007AFF" d="M103.92 34.32C94.87 38.24 85.22 40.2 74.96 40.2C64.71 40.2 55.06 38.24 46.01 34.32C36.96 30.45 28.98 25.05 22.06 18.13C15.19 11.21 9.8 3.22 5.88-5.83C1.96-14.88 0-24.54 0-34.8C0-45.06 1.96-54.72 5.88-63.77C9.8-72.82 15.19-80.78 22.06-87.65C28.98-94.58 36.94-100 45.94-103.92C54.98-107.84 64.63-109.8 74.89-109.8C85.2-109.8 94.87-107.84 103.92-103.92C112.97-100 120.95-94.58 127.87-87.65C134.78-80.78 140.2-72.82 144.12-63.77C148.04-54.72 150-45.06 150-34.8C150-24.54 148.04-14.88 144.12-5.83C140.2 3.22 134.78 11.21 127.87 18.13C120.95 25.05 112.97 30.45 103.92 34.32Z"/>
   <path class="multicolor-1:tintColor hierarchical-1:primary SFSymbolsPreviewFFFFFF" d="M69.7-1.96C69.7 0.97 72.07 3.34 75 3.34C77.93 3.34 80.3 0.97 80.3-1.96L80.3-29.5L107.83-29.5C110.76-29.5 113.13-31.87 113.13-34.8C113.13-37.73 110.76-40.1 107.83-40.1L80.3-40.1L80.3-67.63C80.3-70.56 77.93-72.93 75-72.93C72.07-72.93 69.7-70.56 69.7-67.63L69.7-40.1L42.16-40.1C39.23-40.1 36.86-37.73 36.86-34.8C36.86-31.87 39.23-29.5 42.16-29.5L69.7-29.5L69.7-1.96Z"/>
  </g>
  <g id="Regular-M" transform="matrix(1 0 0 1 1374.84 1126)">
   <path class="multicolor-0:tintColor hierarchical-0:secondary SFSymbolsPreview007AFF" d="M103.92 33.82C94.87 37.74 85.22 39.7 74.96 39.7C64.71 39.7 55.06 37.74 46.01 33.82C36.96 29.95 28.98 24.55 22.06 17.63C15.19 10.71 9.8 2.72 5.88-6.33C1.96-15.38 0-25.04 0-35.3C0-45.56 1.96-55.22 5.88-64.27C9.8-73.32 15.19-81.28 22.06-88.15C28.98-95.08 36.94-100.5 45.94-104.42C54.98-108.34 64.63-110.3 74.89-110.3C85.2-110.3 94.87-108.34 103.92-104.42C112.97-100.5 120.95-95.08 127.87-88.15C134.78-81.28 140.2-73.32 144.12-64.27C148.04-55.22 150-45.56 150-35.3C150-25.04 148.04-15.38 144.12-6.33C140.2 2.72 134.78 10.71 127.87 17.63C120.95 24.55 112.97 29.95 103.92 33.82Z"/>
   <path class="multicolor-1:tintColor hierarchical-1:primary SFSymbolsPreviewFFFFFF" d="M70.65-2.46C70.65-0.06 72.6 1.89 75 1.89C77.4 1.89 79.35-0.06 79.35-2.46L79.35-30.95L107.83-30.95C110.23-30.95 112.18-32.9 112.18-35.3C112.18-37.7 110.23-39.65 107.83-39.65L79.35-39.65L79.35-68.13C79.35-70.54 77.4-72.48 75-72.48C72.6-72.48 70.65-70.54 70.65-68.13L70.65-39.65L42.16-39.65C39.76-39.65 37.81-37.7 37.81-35.3C37.81-32.9 39.76-30.95 42.16-30.95L70.65-30.95L70.65-2.46Z"/>
  </g>
  <g id="Light-M" transform="matrix(1 0 0 1 1078.13 1126)">
   <path class="multicolor-0:tintColor hierarchical-0:secondary SFSymbolsPreview007AFF" d="M103.92 34.32C94.87 38.24 85.22 40.2 74.96 40.2C64.71 40.2 55.06 38.24 46.01 34.32C36.96 30.45 28.98 25.05 22.06 18.13C15.19 11.21 9.8 3.22 5.88-5.83C1.96-14.88 0-24.54 0-34.8C0-45.06 1.96-54.72 5.88-63.77C9.8-72.82 15.19-80.78 22.06-87.65C28.98-94.58 36.94-100 45.94-103.92C54.98-107.84 64.63-109.8 74.89-109.8C85.2-109.8 94.87-107.84 103.92-103.92C112.97-100 120.95-94.58 127.87-87.65C134.78-80.78 140.2-72.82 144.12-63.77C148.04-54.72 150-45.06 150-34.8C150-24.54 148.04-14.88 144.12-5.83C140.2 3.22 134.78 11.21 127.87 18.13C120.95 25.05 112.97 30.45 103.92 34.32Z"/>
   <path class="multicolor-1:tintColor hierarchical-1:primary SFSymbolsPreviewFFFFFF" d="M71.7-1.96C71.7-0.14 73.18 1.34 75 1.34C76.82 1.34 78.3-0.14 78.3-1.96L78.3-31.5L107.83-31.5C109.65-31.5 111.13-32.98 111.13-34.8C111.13-36.62 109.65-38.1 107.83-38.1L78.3-38.1L78.3-67.63C78.3-69.46 76.82-70.93 75-70.93C73.18-70.93 71.7-69.46 71.7-67.63L71.7-38.1L42.16-38.1C40.34-38.1 38.86-36.62 38.86-34.8C38.86-32.98 40.34-31.5 42.16-31.5L71.7-31.5L71.7-1.96Z"/>
  </g>
  <g id="Thin-M" transform="matrix(1 0 0 1 781.422 1126)">
   <path class="multicolor-0:tintColor hierarchical-0:secondary SFSymbolsPreview007AFF" d="M103.919 34.32C94.872 38.24 85.221 40.2 74.964 40.2C64.708 40.2 55.056 38.24 46.009 34.32C36.962 30.45 28.98 25.05 22.061 18.13C15.192 11.21 9.797 3.22 5.878-5.83C1.96-14.88 0-24.54 0-34.8C0-45.06 1.96-54.71 5.878-63.77C9.797-72.82 15.192-80.78 22.061-87.65C28.98-94.57 36.938-100 45.937-103.92C54.983-107.84 64.635-109.8 74.892-109.8C85.196-109.8 94.872-107.84 103.919-103.92C112.966-100 120.949-94.57 127.867-87.65C134.785-80.78 140.204-72.82 144.122-63.77C148.041-54.71 150-45.06 150-34.8C150-24.54 148.041-14.88 144.122-5.83C140.204 3.22 134.785 11.21 127.867 18.13C120.949 25.05 112.966 30.45 103.919 34.32Z"/>
   <path class="multicolor-1:tintColor hierarchical-1:primary SFSymbolsPreviewFFFFFF" d="M73.201-1.96C73.201-0.96 74.006-0.16 75.001-0.16C75.995-0.16 76.801-0.96 76.801-1.96L76.801-33L107.831-33C108.825-33 109.631-33.8 109.631-34.8C109.631-35.79 108.825-36.6 107.831-36.6L76.801-36.6L76.801-67.63C76.801-68.62 75.995-69.43 75.001-69.43C74.006-69.43 73.201-68.62 73.201-67.63L73.201-36.6L42.161-36.6C41.167-36.6 40.361-35.79 40.361-34.8C40.361-33.8 41.167-33 42.161-33L73.201-33L73.201-1.96Z"/>
  </g>
  <g id="Ultralight-M" transform="matrix(1 0 0 1 484.711 1126)">
   <path class="multicolor-0:tintColor hierarchical-0:secondary SFSymbolsPreview007AFF" d="M103.919 34.32C94.872 38.24 85.22 40.2 74.964 40.2C64.707 40.2 55.056 38.24 46.009 34.32C36.962 30.45 28.979 25.05 22.061 18.13C15.191 11.21 9.797 3.22 5.878-5.83C1.959-14.88 0-24.54 0-34.8C0-45.06 1.959-54.72 5.878-63.77C9.797-72.82 15.191-80.78 22.061-87.65C28.979-94.58 36.938-100 45.936-103.92C54.983-107.84 64.635-109.8 74.891-109.8C85.196-109.8 94.872-107.84 103.919-103.92C112.966-100 120.948-94.58 127.866-87.65C134.785-80.78 140.203-72.82 144.122-63.77C148.041-54.72 150-45.06 150-34.8C150-24.54 148.041-14.88 144.122-5.83C140.203 3.22 134.785 11.21 127.866 18.13C120.948 25.05 112.966 30.45 103.919 34.32Z"/>
   <path class="multicolor-1:tintColor hierarchical-1:primary SFSymbolsPreviewFFFFFF" d="M73.875-1.96C73.875-1.34 74.379-0.83 75-0.83C75.621-0.83 76.125-1.34 76.125-1.96L76.125-33.67L107.83-33.67C108.451-33.67 108.955-34.18 108.955-34.8C108.955-35.42 108.451-35.92 107.83-35.92L76.125-35.92L76.125-67.63C76.125-68.25 75.621-68.75 75-68.75C74.379-68.75 73.875-68.25 73.875-67.63L73.875-35.92L42.16-35.92C41.539-35.92 41.035-35.42 41.035-34.8C41.035-34.18 41.539-33.67 42.16-33.67L73.875-33.67L73.875-1.96Z"/>
  </g>
  <g id="Black-S" transform="matrix(1 0 0 1 2879.4 696)">
   <path class="multicolor-0:tintColor hierarchical-0:secondary SFSymbolsPreview007AFF" d="M74.82 13.967C68.31 16.79 61.36 18.201 53.97 18.201C46.59 18.201 39.64 16.79 33.13 13.967C26.61 11.179 20.87 7.293 15.88 2.31C10.94-2.674 7.05-8.424 4.23-14.941C1.41-21.458 0-28.411 0-35.799C0-43.187 1.41-50.14 4.23-56.657C7.05-63.173 10.94-68.906 15.88-73.855C20.87-78.839 26.6-82.742 33.07-85.565C39.59-88.387 46.54-89.799 53.92-89.799C61.34-89.799 68.31-88.387 74.82-85.565C81.34-82.742 87.08-78.839 92.06-73.855C97.05-68.906 100.95-63.173 103.77-56.657C106.59-50.14 108-43.187 108-35.799C108-28.411 106.59-21.458 103.77-14.941C100.95-8.424 97.05-2.674 92.06 2.31C87.08 7.293 81.34 11.179 74.82 13.967Z"/>
   <path class="multicolor-1:tintColor hierarchical-1:primary SFSymbolsPreviewFFFFFF" d="M44.84-7.83C44.84-2.583 49.09 1.67 54.34 1.67C59.59 1.67 63.84-2.583 63.84-7.83L63.84-26.168L82.17-26.168C87.42-26.168 91.67-30.421 91.67-35.668C91.67-40.915 87.42-45.168 82.17-45.168L63.84-45.168L63.84-63.5C63.84-68.747 59.59-73 54.34-73C49.09-73 44.84-68.747 44.84-63.5L44.84-45.168L26.5-45.168C21.25-45.168 17-40.915 17-35.668C17-30.421 21.25-26.168 26.5-26.168L44.84-26.168L44.84-7.83Z"/>
  </g>
  <g id="Heavy-S" transform="matrix(1 0 0 1 2582.69 696)">
   <path class="multicolor-0:tintColor hierarchical-0:secondary SFSymbolsPreview007AFF" d="M74.82 13.967C68.31 16.79 61.36 18.201 53.97 18.201C46.59 18.201 39.64 16.79 33.13 13.967C26.61 11.179 20.87 7.293 15.88 2.31C10.94-2.674 7.05-8.424 4.23-14.941C1.41-21.458 0-28.411 0-35.799C0-43.187 1.41-50.14 4.23-56.657C7.05-63.173 10.94-68.906 15.88-73.855C20.87-78.839 26.6-82.742 33.07-85.565C39.59-88.387 46.54-89.799 53.92-89.799C61.34-89.799 68.31-88.387 74.82-85.565C81.34-82.742 87.08-78.839 92.06-73.855C97.05-68.906 100.95-63.173 103.77-56.657C106.59-50.14 108-43.187 108-35.799C108-28.411 106.59-21.458 103.77-14.941C100.95-8.424 97.05-2.674 92.06 2.31C87.08 7.293 81.34 11.179 74.82 13.967Z"/>
   <path class="multicolor-1:tintColor hierarchical-1:primary SFSymbolsPreviewFFFFFF" d="M45.34-8.33C45.34-3.636 49.15 0.17 53.84 0.17C58.53 0.17 62.34-3.636 62.34-8.33L62.34-27.668L81.67-27.668C86.36-27.668 90.17-31.473 90.17-36.168C90.17-40.862 86.36-44.668 81.67-44.668L62.34-44.668L62.34-64C62.34-68.694 58.53-72.5 53.84-72.5C49.15-72.5 45.34-68.694 45.34-64L45.34-44.668L26-44.668C21.31-44.668 17.5-40.862 17.5-36.168C17.5-31.473 21.31-27.668 26-27.668L45.34-27.668L45.34-8.33Z"/>
  </g>
  <g id="Bold-S" transform="matrix(1 0 0 1 2285.98 696)">
   <path class="multicolor-0:tintColor hierarchical-0:secondary SFSymbolsPreview007AFF" d="M74.82 13.967C68.31 16.79 61.36 18.201 53.97 18.201C46.59 18.201 39.64 16.79 33.13 13.967C26.61 11.179 20.87 7.293 15.88 2.31C10.94-2.674 7.05-8.424 4.23-14.941C1.41-21.458 0-28.411 0-35.799C0-43.187 1.41-50.14 4.23-56.657C7.05-63.173 10.94-68.906 15.88-73.855C20.87-78.839 26.6-82.742 33.07-85.565C39.59-88.387 46.54-89.799 53.92-89.799C61.34-89.799 68.31-88.387 74.82-85.565C81.34-82.742 87.08-78.839 92.06-73.855C97.05-68.906 100.95-63.173 103.77-56.657C106.59-50.14 108-43.187 108-35.799C108-28.411 106.59-21.458 103.77-14.941C100.95-8.424 97.05-2.674 92.06 2.31C87.08 7.293 81.34 11.179 74.82 13.967Z"/>
   <path class="multicolor-1:tintColor hierarchical-1:primary SFSymbolsPreviewFFFFFF" d="M46.84-8.33C46.84-4.464 49.97-1.33 53.84-1.33C57.71-1.33 60.84-4.464 60.84-8.33L60.84-29.168L81.67-29.168C85.54-29.168 88.67-32.302 88.67-36.168C88.67-40.034 85.54-43.168 81.67-43.168L60.84-43.168L60.84-64C60.84-67.866 57.71-71 53.84-71C49.97-71 46.84-67.866 46.84-64L46.84-43.168L26-43.168C22.13-43.168 19-40.034 19-36.168C19-32.302 22.13-29.168 26-29.168L46.84-29.168L46.84-8.33Z"/>
  </g>
  <g id="Semibold-S" transform="matrix(1 0 0 1 1989.27 696)">
   <path class="multicolor-0:tintColor hierarchical-0:secondary SFSymbolsPreview007AFF" d="M74.82 13.967C68.31 16.79 61.36 18.201 53.97 18.201C46.59 18.201 39.64 16.79 33.13 13.967C26.61 11.179 20.87 7.293 15.88 2.31C10.94-2.674 7.05-8.424 4.23-14.941C1.41-21.458 0-28.411 0-35.799C0-43.187 1.41-50.14 4.23-56.657C7.05-63.173 10.94-68.906 15.88-73.855C20.87-78.839 26.6-82.742 33.07-85.565C39.59-88.387 46.54-89.799 53.92-89.799C61.34-89.799 68.31-88.387 74.82-85.565C81.34-82.742 87.08-78.839 92.06-73.855C97.05-68.906 100.95-63.173 103.77-56.657C106.59-50.14 108-43.187 108-35.799C108-28.411 106.59-21.458 103.77-14.941C100.95-8.424 97.05-2.674 92.06 2.31C87.08 7.293 81.34 11.179 74.82 13.967Z"/>
   <path class="multicolor-1:tintColor hierarchical-1:primary SFSymbolsPreviewFFFFFF" d="M47.84-8.33C47.84-5.016 50.53-2.33 53.84-2.33C57.15-2.33 59.84-5.016 59.84-8.33L59.84-30.168L81.67-30.168C84.98-30.168 87.67-32.854 87.67-36.168C87.67-39.482 84.98-42.168 81.67-42.168L59.84-42.168L59.84-64C59.84-67.314 57.15-70 53.84-70C50.53-70 47.84-67.314 47.84-64L47.84-42.168L26-42.168C22.69-42.168 20-39.482 20-36.168C20-32.854 22.69-30.168 26-30.168L47.84-30.168L47.84-8.33Z"/>
  </g>
  <g id="Medium-S" transform="matrix(1 0 0 1 1692.56 696)">
   <path class="multicolor-0:tintColor hierarchical-0:secondary SFSymbolsPreview007AFF" d="M74.82 13.967C68.31 16.79 61.36 18.201 53.97 18.201C46.59 18.201 39.64 16.79 33.13 13.967C26.61 11.179 20.87 7.293 15.88 2.31C10.94-2.674 7.05-8.424 4.23-14.941C1.41-21.458 0-28.411 0-35.799C0-43.187 1.41-50.14 4.23-56.657C7.05-63.173 10.94-68.906 15.88-73.855C20.87-78.839 26.6-82.742 33.07-85.565C39.59-88.387 46.54-89.799 53.92-89.799C61.34-89.799 68.31-88.387 74.82-85.565C81.34-82.742 87.08-78.839 92.06-73.855C97.05-68.906 100.95-63.173 103.77-56.657C106.59-50.14 108-43.187 108-35.799C108-28.411 106.59-21.458 103.77-14.941C100.95-8.424 97.05-2.674 92.06 2.31C87.08 7.293 81.34 11.179 74.82 13.967Z"/>
   <path class="multicolor-1:tintColor hierarchical-1:primary SFSymbolsPreviewFFFFFF" d="M48.84-8.03C48.84-5.103 51.21-2.73 54.14-2.73C57.07-2.73 59.44-5.103 59.44-8.03L59.44-30.568L81.97-30.568C84.9-30.568 87.27-32.941 87.27-35.868C87.27-38.795 84.9-41.168 81.97-41.168L59.44-41.168L59.44-63.7C59.44-66.627 57.07-69 54.14-69C51.21-69 48.84-66.627 48.84-63.7L48.84-41.168L26.3-41.168C23.37-41.168 21-38.795 21-35.868C21-32.941 23.37-30.568 26.3-30.568L48.84-30.568L48.84-8.03Z"/>
  </g>
  <g id="Regular-S" transform="matrix(1 0 0 1 1395.84 696)">
   <path class="multicolor-0:tintColor hierarchical-0:secondary SFSymbolsPreview007AFF" d="M74.82 13.965C68.31 16.788 61.36 18.199 53.97 18.199C46.59 18.199 39.64 16.788 33.13 13.965C26.61 11.177 20.87 7.291 15.88 2.308C10.94-2.676 7.05-8.426 4.23-14.943C1.41-21.46 0-28.413 0-35.801C0-43.189 1.41-50.142 4.23-56.658C7.05-63.175 10.94-68.908 15.88-73.857C20.87-78.84 26.6-82.744 33.07-85.567C39.59-88.389 46.54-89.801 53.92-89.801C61.34-89.801 68.31-88.389 74.82-85.567C81.34-82.744 87.08-78.84 92.06-73.857C97.04-68.908 100.95-63.175 103.77-56.658C106.59-50.142 108-43.189 108-35.801C108-28.413 106.59-21.46 103.77-14.943C100.95-8.426 97.04-2.676 92.06 2.308C87.08 7.291 81.34 11.177 74.82 13.965Z"/>
   <path class="multicolor-1:tintColor hierarchical-1:primary SFSymbolsPreviewFFFFFF" d="M49.84-7.98C49.84-5.578 51.79-3.63 54.19-3.63C56.59-3.63 58.54-5.578 58.54-7.98L58.54-31.468L82.02-31.468C84.42-31.468 86.37-33.415 86.37-35.818C86.37-38.22 84.42-40.168 82.02-40.168L58.54-40.168L58.54-63.65C58.54-66.052 56.59-68 54.19-68C51.79-68 49.84-66.052 49.84-63.65L49.84-40.168L26.35-40.168C23.95-40.168 22-38.22 22-35.818C22-33.415 23.95-31.468 26.35-31.468L49.84-31.468L49.84-7.98Z"/>
  </g>
  <g id="Light-S" transform="matrix(1 0 0 1 1099.13 696)">
   <path class="multicolor-0:tintColor hierarchical-0:secondary SFSymbolsPreview007AFF" d="M74.82 13.967C68.31 16.79 61.36 18.201 53.97 18.201C46.59 18.201 39.64 16.79 33.13 13.967C26.61 11.179 20.87 7.293 15.88 2.31C10.94-2.674 7.05-8.424 4.23-14.941C1.41-21.458 0-28.411 0-35.799C0-43.187 1.41-50.14 4.23-56.657C7.05-63.173 10.94-68.906 15.88-73.855C20.87-78.839 26.6-82.742 33.07-85.565C39.59-88.387 46.54-89.799 53.92-89.799C61.34-89.799 68.31-88.387 74.82-85.565C81.34-82.742 87.08-78.839 92.06-73.855C97.05-68.906 100.95-63.173 103.77-56.657C106.59-50.14 108-43.187 108-35.799C108-28.411 106.59-21.458 103.77-14.941C100.95-8.424 97.05-2.674 92.06 2.31C87.08 7.293 81.34 11.179 74.82 13.967Z"/>
   <path class="multicolor-1:tintColor hierarchical-1:primary SFSymbolsPreviewFFFFFF" d="M50.84-8.03C50.84-6.207 52.32-4.73 54.14-4.73C55.96-4.73 57.44-6.207 57.44-8.03L57.44-32.568L81.97-32.568C83.79-32.568 85.27-34.045 85.27-35.868C85.27-37.69 83.79-39.168 81.97-39.168L57.44-39.168L57.44-63.7C57.44-65.523 55.96-67 54.14-67C52.32-67 50.84-65.523 50.84-63.7L50.84-39.168L26.3-39.168C24.48-39.168 23-37.69 23-35.868C23-34.045 24.48-32.568 26.3-32.568L50.84-32.568L50.84-8.03Z"/>
  </g>
  <g id="Thin-S" transform="matrix(1 0 0 1 802.422 696)">
   <path class="multicolor-0:tintColor hierarchical-0:secondary SFSymbolsPreview007AFF" d="M74.821 13.967C68.308 16.79 61.358 18.201 53.974 18.201C46.589 18.201 39.64 16.79 33.126 13.967C26.612 11.179 20.865 7.293 15.884 2.31C10.938-2.674 7.054-8.424 4.232-14.941C1.411-21.458 0-28.411 0-35.799C0-43.187 1.411-50.14 4.232-56.657C7.054-63.173 10.938-68.906 15.884-73.855C20.865-78.839 26.595-82.742 33.074-85.565C39.588-88.387 46.537-89.799 53.922-89.799C61.341-89.799 68.308-88.387 74.821-85.565C81.335-82.742 87.083-78.839 92.064-73.855C97.045-68.906 100.946-63.173 103.768-56.657C106.589-50.14 108-43.187 108-35.799C108-28.411 106.589-21.458 103.768-14.941C100.946-8.424 97.045-2.674 92.064 2.31C87.083 7.293 81.335 11.179 74.821 13.967Z"/>
   <path class="multicolor-1:tintColor hierarchical-1:primary SFSymbolsPreviewFFFFFF" d="M52.04-8.331C52.04-7.337 52.846-6.531 53.84-6.531C54.834-6.531 55.64-7.337 55.64-8.331L55.64-34.369L81.67-34.369C82.664-34.369 83.47-35.175 83.47-36.169C83.47-37.163 82.664-37.969 81.67-37.969L55.64-37.969L55.64-64.001C55.64-64.995 54.834-65.801 53.84-65.801C52.846-65.801 52.04-64.995 52.04-64.001L52.04-37.969L26-37.969C25.006-37.969 24.2-37.163 24.2-36.169C24.2-35.175 25.006-34.369 26-34.369L52.04-34.369L52.04-8.331Z"/>
  </g>
  <g id="Ultralight-S" transform="matrix(1 0 0 1 505.711 696)">
   <path class="multicolor-0:tintColor hierarchical-0:secondary SFSymbolsPreview007AFF" d="M74.821 13.967C68.308 16.79 61.358 18.201 53.974 18.201C46.589 18.201 39.64 16.79 33.126 13.967C26.612 11.179 20.865 7.293 15.884 2.31C10.938-2.674 7.054-8.424 4.232-14.941C1.411-21.458 0-28.411 0-35.799C0-43.187 1.411-50.14 4.232-56.657C7.054-63.173 10.938-68.906 15.884-73.855C20.865-78.839 26.595-82.742 33.074-85.565C39.588-88.387 46.537-89.799 53.922-89.799C61.341-89.799 68.308-88.387 74.821-85.565C81.335-82.742 87.083-78.839 92.064-73.855C97.045-68.906 100.946-63.173 103.768-56.657C106.589-50.14 108-43.187 108-35.799C108-28.411 106.589-21.458 103.768-14.941C100.946-8.424 97.045-2.674 92.064 2.31C87.083 7.293 81.335 11.179 74.821 13.967Z"/>
   <path class="multicolor-1:tintColor hierarchical-1:primary SFSymbolsPreviewFFFFFF" d="M52.84-8.205C52.84-7.584 53.344-7.08 53.965-7.08C54.586-7.08 55.09-7.584 55.09-8.205L55.09-34.918L81.795-34.918C82.416-34.918 82.92-35.422 82.92-36.043C82.92-36.664 82.416-37.168 81.795-37.168L55.09-37.168L55.09-63.875C55.09-64.496 54.586-65 53.965-65C53.344-65 52.84-64.496 52.84-63.875L52.84-37.168L26.125-37.168C25.504-37.168 25-36.664 25-36.043C25-35.422 25.504-34.918 26.125-34.918L52.84-34.918L52.84-8.205Z"/>
  </g>
 </g>
</svg>
