<svg width="192" height="192" viewBox="0 0 192 192" fill="none" xmlns="http://www.w3.org/2000/svg"><circle cx="96" cy="96" r="88" fill="#108468"/><circle cx="122" cy="70" r="15.5" stroke="#F0A7FD"/><path d="M132.942 58.312a3.998 3.998 0 0 1 0 5.657l-16.97 16.97a4 4 0 0 1-5.657-5.657l16.971-16.97a3.999 3.999 0 0 1 5.656 0Z" fill="#1A73E8"/><path d="M44 52a8 8 0 0 1 8-8h44v52H44V52Z" fill="#4EF9A6"/><path d="M44 96h52v52H52a8 8 0 0 1-8-8V96Z" fill="#fff"/><path d="M96 96h52v44a8 8 0 0 1-8 8H96V96Z" fill="#4EF9A6"/><path d="M96 44.001h44a8 8 0 0 1 8 8v44H96v-52Z" fill="#C6FFE3"/><path d="M86 70a4 4 0 0 1-4 4H58a4 4 0 1 1 0-8h24a4 4 0 0 1 4 4Z" fill="#108468"/><rect x="137" y="119.001" width="30" height="8" rx="4" transform="rotate(-180 137 119.001)" fill="#108468"/><rect x="137" y="133.001" width="30" height="8" rx="4" transform="rotate(-180 137 133.001)" fill="#108468"/><path d="M70 137.5a4 4 0 0 1-4-4v-23a4 4 0 0 1 8 0v23a4 4 0 0 1-4 4Z" fill="#108468"/><path d="M85.5 122a4 4 0 0 1-4 4h-23a4 4 0 0 1 0-8h23a4 4 0 0 1 4 4Z" fill="#108468"/><path fill-rule="evenodd" clip-rule="evenodd" d="M127.661 81.313a4 4 0 0 0 5.657-5.657L127.66 70l5.657-5.657a4 4 0 0 0-5.656-5.657l-5.658 5.657-5.656-5.656a3.999 3.999 0 0 0-5.656 0 3.998 3.998 0 0 0 0 5.657L116.347 70l-5.657 5.656a4 4 0 0 0 5.657 5.657l5.656-5.656 5.658 5.657Z" fill="#108468"/></svg>