<svg width="192" height="192" viewBox="0 0 192 192" fill="none" xmlns="http://www.w3.org/2000/svg"><circle cx="96" cy="96" r="88" fill="#1A73E8"/><path d="M156 64a8 8 0 0 0-8-8H44a8 8 0 0 0-8 8v70a8 8 0 0 0 8 8h104a8 8 0 0 0 8-8V64Z" fill="#fff"/><circle cx="144" cy="68" r="6" fill="#80F9F9"/><circle cx="96" cy="99" r="35" fill="#8AB4F8"/><circle cx="96" cy="99" r="25" fill="#1A73E8"/><path d="M72.338 41.274A8 8 0 0 1 79.859 36h32.281a8 8 0 0 1 7.521 5.274L125 56H67l5.338-14.726Z" fill="#8AB4F8"/></svg>