<svg width="192" height="192" viewBox="0 0 192 192" fill="none" xmlns="http://www.w3.org/2000/svg"><g clip-path="url(#a)"><path d="M96 184c48.601 0 88-39.399 88-88S144.601 8 96 8 8 47.399 8 96s39.399 88 88 88Z" fill="#fff"/><path opacity=".1" d="M183.99 96c-.22 38.38-25.27 70.9-59.99 82.48A88.463 88.463 0 0 1 96 183c-48.43.01-87.73-38.9-88-87v.5C8 144.82 47.4 184 96 184c9.79 0 19.2-1.59 28-4.52 34.87-11.63 60-44.39 60-82.98 0-.17-.01-.33-.01-.5Z" fill="#000"/><path opacity=".4" d="M184 96c0-38.81-25.13-71.75-60-83.45A87.916 87.916 0 0 0 96 8C47.4 8 8 47.4 8 96" fill="#fff"/><path d="M61 57.82c19.33 0 35 15.67 35 35V96H29.18C27.42 96 26 94.58 26 92.82c0-19.33 15.67-35 35-35Z" fill="#FBBC04"/><path d="M134.18 61c0 19.33-15.67 35-35 35H96V29.18c0-1.76 1.42-3.18 3.18-3.18 19.33 0 35 15.67 35 35Z" fill="#EA4335"/><path d="M131 134.18c-19.33 0-35-15.67-35-35V96h66.82c1.76 0 3.18 1.42 3.18 3.18 0 19.33-15.67 35-35 35Z" fill="#4285F4"/><path d="M57.82 131c0-19.33 15.67-35 35-35H96v66.82c0 1.76-1.42 3.18-3.18 3.18-19.33 0-35-15.67-35-35Z" fill="#34A853"/></g><defs><clipPath id="a"><path fill="#fff" d="M0 0h192v192H0z"/></clipPath></defs></svg>