<svg width="192" height="192" viewBox="0 0 192 192" fill="none" xmlns="http://www.w3.org/2000/svg"><mask id="a" style="mask-type:alpha" maskUnits="userSpaceOnUse" x="8" y="8" width="176" height="176"><circle cx="96" cy="96" r="88" fill="#C4C4C4"/></mask><g mask="url(#a)"><path fill="#5F6368" d="M0 0h192v192H0z"/><path fill-rule="evenodd" clip-rule="evenodd" d="M139.201 96c0 1.957-.144 3.843-.36 5.655l12.024 9.57c1.152.87 1.44 2.392.72 3.697l-11.52 20.083c-.72 1.305-2.232 1.813-3.528 1.305l-14.328-5.8c-2.952 2.247-6.193 4.205-9.721 5.655l-2.16 15.37c-.144 1.45-1.368 2.465-2.808 2.465H84.48c-1.44 0-2.592-1.015-2.88-2.465l-2.16-15.37c-3.528-1.45-6.697-3.335-9.72-5.655l-14.329 5.8c-1.296.435-2.808 0-3.528-1.305l-11.52-20.083c-.648-1.232-.36-2.827.72-3.697l12.168-9.57A36.686 36.686 0 0 1 52.799 96c0-1.885.216-3.843.504-5.655l-12.168-9.57c-1.152-.87-1.44-2.393-.72-3.698l11.52-20.082c.72-1.305 2.232-1.813 3.528-1.305l14.328 5.8c2.953-2.248 6.193-4.205 9.72-5.655l2.16-15.37C81.889 39.015 83.04 38 84.48 38h23.04c1.44 0 2.664 1.015 2.88 2.465l2.16 15.37c3.528 1.45 6.697 3.335 9.721 5.655l14.328-5.8c1.296-.435 2.808 0 3.528 1.305l11.52 20.083c.648 1.232.36 2.827-.72 3.697l-12.168 9.57a36 36 0 0 1 .432 5.655ZM115 96c0 10.493-8.507 19-19 19s-19-8.507-19-19 8.507-19 19-19 19 8.507 19 19Z" fill="#fff"/><path fill-rule="evenodd" clip-rule="evenodd" d="M96 131c19.33 0 35-15.67 35-35s-15.67-35-35-35-35 15.67-35 35 15.67 35 35 35Zm0-8c14.912 0 27-12.088 27-27s-12.088-27-27-27-27 12.088-27 27 12.088 27 27 27Z" fill="#8AB4F8"/><path fill-rule="evenodd" clip-rule="evenodd" d="M96 123c14.912 0 27-12.088 27-27s-12.088-27-27-27-27 12.088-27 27 12.088 27 27 27Zm0-8c10.493 0 19-8.507 19-19s-8.507-19-19-19-19 8.507-19 19 8.507 19 19 19Z" fill="#4285F4"/></g></svg>