<?xml version="1.0" encoding="UTF-8"?>
<!--Generator: Apple Native CoreSVG 175-->
<!DOCTYPE svg PUBLIC "-//W3C//DTD SVG 1.1//EN" "http://www.w3.org/Graphics/SVG/1.1/DTD/svg11.dtd">
<svg version="1.1" xmlns="http://www.w3.org/2000/svg" xmlns:xlink="http://www.w3.org/1999/xlink" width="3300" height="2200">
       <!--glyph: "", point size: 100.0, font version: "17.3d3e1", template writer version: "65.1"-->
       <g id="Notes">
              <rect height="2200" id="artboard" style="fill:white;opacity:1" width="3300" x="0" y="0" />
              <line style="fill:none;stroke:black;opacity:1;stroke-width:0.5;" x1="263" x2="3036" y1="292" y2="292" />
              <text style="stroke:none;fill:black;font-family:sans-serif;font-size:13;font-weight:bold;" transform="matrix(1 0 0 1 263 322)">Weight/Scale Variations</text>
              <text style="stroke:none;fill:black;font-family:sans-serif;font-size:13;text-anchor:middle;" transform="matrix(1 0 0 1 559.711 322)">Ultralight</text>
              <text style="stroke:none;fill:black;font-family:sans-serif;font-size:13;text-anchor:middle;" transform="matrix(1 0 0 1 856.422 322)">Thin</text>
              <text style="stroke:none;fill:black;font-family:sans-serif;font-size:13;text-anchor:middle;" transform="matrix(1 0 0 1 1153.13 322)">Light</text>
              <text style="stroke:none;fill:black;font-family:sans-serif;font-size:13;text-anchor:middle;" transform="matrix(1 0 0 1 1449.84 322)">Regular</text>
              <text style="stroke:none;fill:black;font-family:sans-serif;font-size:13;text-anchor:middle;" transform="matrix(1 0 0 1 1746.56 322)">Medium</text>
              <text style="stroke:none;fill:black;font-family:sans-serif;font-size:13;text-anchor:middle;" transform="matrix(1 0 0 1 2043.27 322)">Semibold</text>
              <text style="stroke:none;fill:black;font-family:sans-serif;font-size:13;text-anchor:middle;" transform="matrix(1 0 0 1 2339.98 322)">Bold</text>
              <text style="stroke:none;fill:black;font-family:sans-serif;font-size:13;text-anchor:middle;" transform="matrix(1 0 0 1 2636.69 322)">Heavy</text>
              <text style="stroke:none;fill:black;font-family:sans-serif;font-size:13;text-anchor:middle;" transform="matrix(1 0 0 1 2933.4 322)">Black</text>
              <line style="fill:none;stroke:black;opacity:1;stroke-width:0.5;" x1="263" x2="3036" y1="1903" y2="1903" />
              <g transform="matrix(1 0 0 1 263 1933)">
                     <path d="M9.24805 0.830078Q10.8691 0.830078 12.2949 0.214844Q13.7207-0.400391 14.8096-1.49414Q15.8984-2.58789 16.5186-4.01367Q17.1387-5.43945 17.1387-7.05078Q17.1387-8.66211 16.5186-10.0879Q15.8984-11.5137 14.8047-12.6074Q13.7109-13.7012 12.2852-14.3164Q10.8594-14.9316 9.23828-14.9316Q7.62695-14.9316 6.20117-14.3164Q4.77539-13.7012 3.69141-12.6074Q2.60742-11.5137 1.9873-10.0879Q1.36719-8.66211 1.36719-7.05078Q1.36719-5.43945 1.9873-4.01367Q2.60742-2.58789 3.69629-1.49414Q4.78516-0.400391 6.21094 0.214844Q7.63672 0.830078 9.24805 0.830078ZM9.24805-0.654297Q7.91992-0.654297 6.7627-1.14746Q5.60547-1.64062 4.73145-2.51953Q3.85742-3.39844 3.36426-4.56055Q2.87109-5.72266 2.87109-7.05078Q2.87109-8.37891 3.35938-9.54102Q3.84766-10.7031 4.72168-11.582Q5.5957-12.4609 6.75293-12.9541Q7.91016-13.4473 9.23828-13.4473Q10.5762-13.4473 11.7334-12.9541Q12.8906-12.4609 13.7695-11.582Q14.6484-10.7031 15.1465-9.54102Q15.6445-8.37891 15.6445-7.05078Q15.6445-5.72266 15.1514-4.56055Q14.6582-3.39844 13.7842-2.51953Q12.9102-1.64062 11.748-1.14746Q10.5859-0.654297 9.24805-0.654297ZM5.6543-7.05078Q5.6543-6.72852 5.85938-6.52832Q6.06445-6.32812 6.40625-6.32812L8.51562-6.32812L8.51562-4.20898Q8.51562-3.88672 8.71094-3.67676Q8.90625-3.4668 9.23828-3.4668Q9.56055-3.4668 9.77051-3.67676Q9.98047-3.88672 9.98047-4.20898L9.98047-6.32812L12.0898-6.32812Q12.4219-6.32812 12.627-6.52832Q12.832-6.72852 12.832-7.05078Q12.832-7.38281 12.627-7.58789Q12.4219-7.79297 12.0898-7.79297L9.98047-7.79297L9.98047-9.90234Q9.98047-10.2344 9.77051-10.4443Q9.56055-10.6543 9.23828-10.6543Q8.90625-10.6543 8.71094-10.4443Q8.51562-10.2344 8.51562-9.90234L8.51562-7.79297L6.40625-7.79297Q6.06445-7.79297 5.85938-7.58789Q5.6543-7.38281 5.6543-7.05078Z" />
              </g>
              <g transform="matrix(1 0 0 1 281.867 1933)">
                     <path d="M11.709 2.91016Q13.75 2.91016 15.5518 2.12891Q17.3535 1.34766 18.7305-0.0292969Q20.1074-1.40625 20.8887-3.20801Q21.6699-5.00977 21.6699-7.05078Q21.6699-9.0918 20.8887-10.8936Q20.1074-12.6953 18.7305-14.0723Q17.3535-15.4492 15.5469-16.2305Q13.7402-17.0117 11.6992-17.0117Q9.6582-17.0117 7.85645-16.2305Q6.05469-15.4492 4.68262-14.0723Q3.31055-12.6953 2.5293-10.8936Q1.74805-9.0918 1.74805-7.05078Q1.74805-5.00977 2.5293-3.20801Q3.31055-1.40625 4.6875-0.0292969Q6.06445 1.34766 7.86621 2.12891Q9.66797 2.91016 11.709 2.91016ZM11.709 1.25Q9.98047 1.25 8.47656 0.605469Q6.97266-0.0390625 5.83496-1.17676Q4.69727-2.31445 4.05762-3.81836Q3.41797-5.32227 3.41797-7.05078Q3.41797-8.7793 4.05762-10.2832Q4.69727-11.7871 5.83008-12.9297Q6.96289-14.0723 8.4668-14.7119Q9.9707-15.3516 11.6992-15.3516Q13.4277-15.3516 14.9316-14.7119Q16.4355-14.0723 17.5781-12.9297Q18.7207-11.7871 19.3652-10.2832Q20.0098-8.7793 20.0098-7.05078Q20.0098-5.32227 19.3701-3.81836Q18.7305-2.31445 17.5928-1.17676Q16.4551-0.0390625 14.9463 0.605469Q13.4375 1.25 11.709 1.25ZM7.17773-7.05078Q7.17773-6.69922 7.41211-6.47461Q7.64648-6.25 8.01758-6.25L10.8887-6.25L10.8887-3.36914Q10.8887-2.99805 11.1133-2.76855Q11.3379-2.53906 11.6895-2.53906Q12.0605-2.53906 12.29-2.76855Q12.5195-2.99805 12.5195-3.36914L12.5195-6.25L15.4004-6.25Q15.7715-6.25 16.001-6.47461Q16.2305-6.69922 16.2305-7.05078Q16.2305-7.42188 16.001-7.65137Q15.7715-7.88086 15.4004-7.88086L12.5195-7.88086L12.5195-10.752Q12.5195-11.1328 12.29-11.3623Q12.0605-11.5918 11.6895-11.5918Q11.3379-11.5918 11.1133-11.3574Q10.8887-11.123 10.8887-10.752L10.8887-7.88086L8.01758-7.88086Q7.63672-7.88086 7.40723-7.65137Q7.17773-7.42188 7.17773-7.05078Z" />
              </g>
              <g transform="matrix(1 0 0 1 305.646 1933)">
                     <path d="M14.9707 5.66406Q17.0605 5.66406 18.96 5.01465Q20.8594 4.36523 22.4512 3.19336Q24.043 2.02148 25.2197 0.429688Q26.3965-1.16211 27.0459-3.06641Q27.6953-4.9707 27.6953-7.05078Q27.6953-9.14062 27.0459-11.04Q26.3965-12.9395 25.2197-14.5312Q24.043-16.123 22.4512-17.2998Q20.8594-18.4766 18.9551-19.126Q17.0508-19.7754 14.9609-19.7754Q12.8711-19.7754 10.9717-19.126Q9.07227-18.4766 7.48535-17.2998Q5.89844-16.123 4.72168-14.5312Q3.54492-12.9395 2.90039-11.04Q2.25586-9.14062 2.25586-7.05078Q2.25586-4.9707 2.90527-3.06641Q3.55469-1.16211 4.72656 0.429688Q5.89844 2.02148 7.49023 3.19336Q9.08203 4.36523 10.9814 5.01465Q12.8809 5.66406 14.9707 5.66406ZM14.9707 3.84766Q13.1641 3.84766 11.5283 3.2959Q9.89258 2.74414 8.53516 1.74805Q7.17773 0.751953 6.17676-0.610352Q5.17578-1.97266 4.62891-3.6084Q4.08203-5.24414 4.08203-7.05078Q4.08203-8.86719 4.62891-10.5029Q5.17578-12.1387 6.17188-13.501Q7.16797-14.8633 8.52539-15.8594Q9.88281-16.8555 11.5186-17.4023Q13.1543-17.9492 14.9609-17.9492Q16.7773-17.9492 18.4131-17.4023Q20.0488-16.8555 21.4111-15.8594Q22.7734-14.8633 23.7695-13.501Q24.7656-12.1387 25.3174-10.5029Q25.8691-8.86719 25.8691-7.05078Q25.8789-5.24414 25.332-3.6084Q24.7852-1.97266 23.7842-0.610352Q22.7832 0.751953 21.4209 1.74805Q20.0586 2.74414 18.4229 3.2959Q16.7871 3.84766 14.9707 3.84766ZM9.19922-7.05078Q9.19922-6.66992 9.45801-6.4209Q9.7168-6.17188 10.1172-6.17188L14.0625-6.17188L14.0625-2.2168Q14.0625-1.81641 14.3115-1.55762Q14.5605-1.29883 14.9512-1.29883Q15.3516-1.29883 15.6104-1.55273Q15.8691-1.80664 15.8691-2.2168L15.8691-6.17188L19.8242-6.17188Q20.2246-6.17188 20.4785-6.4209Q20.7324-6.66992 20.7324-7.05078Q20.7324-7.46094 20.4785-7.71484Q20.2246-7.96875 19.8242-7.96875L15.8691-7.96875L15.8691-11.9141Q15.8691-12.3242 15.6104-12.583Q15.3516-12.8418 14.9512-12.8418Q14.5605-12.8418 14.3115-12.583Q14.0625-12.3242 14.0625-11.9141L14.0625-7.96875L10.1172-7.96875Q9.70703-7.96875 9.45312-7.71484Q9.19922-7.46094 9.19922-7.05078Z" />
              </g>
              <text style="stroke:none;fill:black;font-family:sans-serif;font-size:13;font-weight:bold;" transform="matrix(1 0 0 1 263 1953)">Design Variations</text>
              <text style="stroke:none;fill:black;font-family:sans-serif;font-size:13;" transform="matrix(1 0 0 1 263 1971)">Symbols are supported in up to nine weights and three scales.</text>
              <text style="stroke:none;fill:black;font-family:sans-serif;font-size:13;" transform="matrix(1 0 0 1 263 1989)">For optimal layout with text and other symbols, vertically align</text>
              <text style="stroke:none;fill:black;font-family:sans-serif;font-size:13;" transform="matrix(1 0 0 1 263 2007)">symbols with the adjacent text.</text>
              <line style="fill:none;stroke:#00AEEF;stroke-width:0.5;opacity:1.0;" x1="776" x2="776" y1="1919" y2="1933" />
              <g transform="matrix(1 0 0 1 776 1933)">
                     <path d="M3.31055 0.15625Q3.70117 0.15625 3.91602-0.00976562Q4.13086-0.175781 4.26758-0.585938L5.52734-4.0332L11.2891-4.0332L12.5488-0.585938Q12.6855-0.175781 12.9004-0.00976562Q13.1152 0.15625 13.4961 0.15625Q13.8867 0.15625 14.1162-0.0585938Q14.3457-0.273438 14.3457-0.644531Q14.3457-0.869141 14.2383-1.17188L9.6582-13.3691Q9.48242-13.8184 9.17969-14.043Q8.87695-14.2676 8.4082-14.2676Q7.5-14.2676 7.17773-13.3789L2.59766-1.16211Q2.49023-0.859375 2.49023-0.634766Q2.49023-0.263672 2.70996-0.0537109Q2.92969 0.15625 3.31055 0.15625ZM6.00586-5.51758L8.37891-12.0898L8.42773-12.0898L10.8008-5.51758Z" />
              </g>
              <line style="fill:none;stroke:#00AEEF;stroke-width:0.5;opacity:1.0;" x1="793.197" x2="793.197" y1="1919" y2="1933" />
              <text style="stroke:none;fill:black;font-family:sans-serif;font-size:13;font-weight:bold;" transform="matrix(1 0 0 1 776 1953)">Margins</text>
              <text style="stroke:none;fill:black;font-family:sans-serif;font-size:13;" transform="matrix(1 0 0 1 776 1971)">Leading and trailing margins on the left and right side of each symbol</text>
              <text style="stroke:none;fill:black;font-family:sans-serif;font-size:13;" transform="matrix(1 0 0 1 776 1989)">can be adjusted by modifying the x-location of the margin guidelines.</text>
              <text style="stroke:none;fill:black;font-family:sans-serif;font-size:13;" transform="matrix(1 0 0 1 776 2007)">Modifications are automatically applied proportionally to all</text>
              <text style="stroke:none;fill:black;font-family:sans-serif;font-size:13;" transform="matrix(1 0 0 1 776 2025)">scales and weights.</text>
              <g transform="matrix(1 0 0 1 1289 1933)">
                     <path d="M2.8418 1.86523L4.54102 3.57422Q5.18555 4.22852 5.90332 4.17969Q6.62109 4.13086 7.31445 3.35938L18.0078-8.42773L17.041-9.4043L6.42578 2.27539Q6.16211 2.57812 5.89355 2.61719Q5.625 2.65625 5.27344 2.30469L4.10156 1.14258Q3.75 0.791016 3.79395 0.522461Q3.83789 0.253906 4.14062-0.0195312L15.6152-10.8203L14.6387-11.7871L3.04688-0.898438Q2.30469-0.214844 2.25098 0.498047Q2.19727 1.21094 2.8418 1.86523ZM9.25781-16.3281Q8.94531-16.0254 8.90625-15.6348Q8.86719-15.2441 9.04297-14.9512Q9.21875-14.6777 9.55566-14.541Q9.89258-14.4043 10.3809-14.5215Q11.4746-14.7754 12.5977-14.7314Q13.7207-14.6875 14.7949-13.9844L14.209-12.5293Q13.9551-11.9043 14.0674-11.4404Q14.1797-10.9766 14.5801-10.5664L16.875-8.25195Q17.2363-7.88086 17.5781-7.82227Q17.9199-7.76367 18.3398-7.8418L19.4043-8.03711L20.0684-7.36328L20.0293-6.80664Q20-6.43555 20.1221-6.12305Q20.2441-5.81055 20.6055-5.44922L21.3672-4.70703Q21.7285-4.3457 22.1533-4.33105Q22.5781-4.31641 22.9297-4.66797L25.8398-7.58789Q26.1914-7.93945 26.1816-8.35449Q26.1719-8.76953 25.8105-9.13086L25.0391-9.89258Q24.6875-10.2539 24.3799-10.3857Q24.0723-10.5176 23.7109-10.4883L23.1348-10.4395L22.4902-11.0742L22.7344-12.1973Q22.832-12.6172 22.6953-12.9834Q22.5586-13.3496 22.1191-13.7891L19.9219-15.9766Q18.6719-17.2168 17.2607-17.8369Q15.8496-18.457 14.4189-18.4814Q12.9883-18.5059 11.665-17.959Q10.3418-17.4121 9.25781-16.3281ZM10.752-15.957Q11.6602-16.6211 12.7002-16.9043Q13.7402-17.1875 14.8047-17.085Q15.8691-16.9824 16.8701-16.5137Q17.8711-16.0449 18.7012-15.2051L21.1328-12.793Q21.3086-12.6172 21.3525-12.4512Q21.3965-12.2852 21.3379-12.0312L21.0156-10.5469L22.5195-9.0625L23.5059-9.12109Q23.6914-9.13086 23.7891-9.09668Q23.8867-9.0625 24.0332-8.91602L24.6094-8.33984L22.168-5.89844L21.5918-6.47461Q21.4453-6.62109 21.4062-6.71875Q21.3672-6.81641 21.377-7.01172L21.4453-7.98828L19.9512-9.47266L18.4277-9.21875Q18.1836-9.16992 18.042-9.2041Q17.9004-9.23828 17.7148-9.41406L15.7129-11.416Q15.5176-11.5918 15.4932-11.7529Q15.4688-11.9141 15.5859-12.1875L16.4648-14.2773Q15.293-15.3711 13.8281-15.791Q12.3633-16.2109 10.8398-15.7617Q10.7227-15.7324 10.6885-15.8057Q10.6543-15.8789 10.752-15.957Z" />
              </g>
              <text style="stroke:none;fill:black;font-family:sans-serif;font-size:13;font-weight:bold;" transform="matrix(1 0 0 1 1289 1953)">Exporting</text>
              <text style="stroke:none;fill:black;font-family:sans-serif;font-size:13;" transform="matrix(1 0 0 1 1289 1971)">Symbols should be outlined when exporting to ensure the</text>
              <text style="stroke:none;fill:black;font-family:sans-serif;font-size:13;" transform="matrix(1 0 0 1 1289 1989)">design is preserved when submitting to Xcode.</text>
              <text id="template-version" style="stroke:none;fill:black;font-family:sans-serif;font-size:13;text-anchor:end;" transform="matrix(1 0 0 1 3036 1933)">Template v.2.0</text>
              <text style="stroke:none;fill:black;font-family:sans-serif;font-size:13;text-anchor:end;" transform="matrix(1 0 0 1 3036 1951)">Requires Xcode 12 or greater</text>
              <text id="descriptive-name" style="stroke:none;fill:black;font-family:sans-serif;font-size:13;text-anchor:end;" transform="matrix(1 0 0 1 3036 1969)">Generated from language.cr</text>
              <text style="stroke:none;fill:black;font-family:sans-serif;font-size:13;text-anchor:end;" transform="matrix(1 0 0 1 3036 1987)">Typeset at 100 points</text>
              <text style="stroke:none;fill:black;font-family:sans-serif;font-size:13;" transform="matrix(1 0 0 1 263 726)">Small</text>
              <text style="stroke:none;fill:black;font-family:sans-serif;font-size:13;" transform="matrix(1 0 0 1 263 1156)">Medium</text>
              <text style="stroke:none;fill:black;font-family:sans-serif;font-size:13;" transform="matrix(1 0 0 1 263 1586)">Large</text>
       </g>
       <g id="Guides">
              <g id="H-reference" style="fill:#27AAE1;stroke:none;" transform="matrix(1 0 0 1 339 696)">
                     <path d="M0.993347 0L3.6377 0L29.3282-67.1326L30.0301-67.1326L30.0301-70.459L28.1227-70.459ZM11.6882-24.4797L46.9818-24.4797L46.2311-26.7288L12.4382-26.7288ZM55.1193 0L57.7637 0L30.6381-70.459L29.4327-70.459L29.4327-67.1326Z" />
              </g>
              <line id="Baseline-S" style="fill:none;stroke:#27AAE1;opacity:1;stroke-width:0.5;" x1="263" x2="3036" y1="696" y2="696" />
              <line id="Capline-S" style="fill:none;stroke:#27AAE1;opacity:1;stroke-width:0.5;" x1="263" x2="3036" y1="625.541" y2="625.541" />
              <g id="H-reference" style="fill:#27AAE1;stroke:none;" transform="matrix(1 0 0 1 339 1126)">
                     <path d="M0.993347 0L3.6377 0L29.3282-67.1326L30.0301-67.1326L30.0301-70.459L28.1227-70.459ZM11.6882-24.4797L46.9818-24.4797L46.2311-26.7288L12.4382-26.7288ZM55.1193 0L57.7637 0L30.6381-70.459L29.4327-70.459L29.4327-67.1326Z" />
              </g>
              <line id="Baseline-M" style="fill:none;stroke:#27AAE1;opacity:1;stroke-width:0.5;" x1="263" x2="3036" y1="1126" y2="1126" />
              <line id="Capline-M" style="fill:none;stroke:#27AAE1;opacity:1;stroke-width:0.5;" x1="263" x2="3036" y1="1055.54" y2="1055.54" />
              <g id="H-reference" style="fill:#27AAE1;stroke:none;" transform="matrix(1 0 0 1 339 1556)">
                     <path d="M0.993347 0L3.6377 0L29.3282-67.1326L30.0301-67.1326L30.0301-70.459L28.1227-70.459ZM11.6882-24.4797L46.9818-24.4797L46.2311-26.7288L12.4382-26.7288ZM55.1193 0L57.7637 0L30.6381-70.459L29.4327-70.459L29.4327-67.1326Z" />
              </g>
              <line id="Baseline-L" style="fill:none;stroke:#27AAE1;opacity:1;stroke-width:0.5;" x1="263" x2="3036" y1="1556" y2="1556" />
              <line id="Capline-L" style="fill:none;stroke:#27AAE1;opacity:1;stroke-width:0.5;" x1="263" x2="3036" y1="1485.54" y2="1485.54" />
              <line id="left-margin" style="fill:none;stroke:#00AEEF;stroke-width:0.5;opacity:1.0;" x1="1388.56" x2="1388.56" y1="1030.78" y2="1150.12" />
              <line id="right-margin" style="fill:none;stroke:#00AEEF;stroke-width:0.5;opacity:1.0;" x1="1511.13" x2="1511.13" y1="1030.78" y2="1150.12" />
       </g>
       <g id="Symbols">
              <g id="Black-L" transform="matrix(1 0 0 1 2851.73 1556)">
                     <path d="M61.48-102.01C65.9-102.01 69.48-98.43 69.48-94.01L69.48-88.2L109.19-88.2C113.61-88.2 117.19-84.61 117.19-80.2C117.19-75.78 113.61-72.2 109.19-72.2L96.38-72.2C90.34-53.53 82.86-41.55 72.37-29.65C76.05-25.96 79.96-22.32 84.26-18.34L78.35-2C77.08-3.18 75.83-4.33 74.61-5.46L74.61-5.46C69.92-9.79 65.55-13.83 61.34-18.04C57.97-14.69 54.36-11.19 50.46-7.42L50.46-7.42C45.23-2.36 39.49 3.2 33.17 9.55C30.05 12.68 24.99 12.69 21.85 9.58C18.72 6.46 18.71 1.4 21.83-1.74C28.68-8.62 34.71-14.48 40.05-19.66L40.05-19.66L40.05-19.67C43.86-23.36 47.32-26.72 50.48-29.87C45.43-35.94 40.42-42.89 35.15-51.62C32.87-55.41 34.09-60.33 37.88-62.61C41.66-64.89 46.58-63.67 48.86-59.89C53.25-52.59 57.37-46.74 61.55-41.59C69.41-50.68 74.85-59.43 79.48-72.2L13.78-72.2C9.36-72.2 5.78-75.78 5.78-80.2C5.78-84.61 9.36-88.2 13.78-88.2L53.48-88.2L53.48-94.01C53.48-98.43 57.07-102.01 61.48-102.01ZM92.97 29.9C98.87 29.9 102.15 26.88 104.2 19.45L105.48 14.78L129.58 14.78L130.86 19.8C132.71 26.98 136.04 29.9 142.45 29.9C148.75 29.9 153.32 25.5 153.32 19.34C153.32 16.98 152.91 14.93 151.88 12.11L135.17-33.62C131.84-42.74 126.5-46.64 117.22-46.64C108.56-46.64 103.18-42.59 100-33.62L83.44 12.11C82.46 14.73 81.9 17.5 81.9 19.39C81.9 25.96 86.05 29.9 92.97 29.9ZM109.58-1.42L116.92-28.29L117.33-28.29L125.02-1.42L109.58-1.42Z" />
              </g>
              <g id="Heavy-L" transform="matrix(1 0 0 1 2556.03 1556)">
                     <path d="M60.73-101.26C64.74-101.26 67.98-98.01 67.98-94.01L67.98-87.45L108.44-87.45C112.44-87.45 115.69-84.2 115.69-80.2C115.69-76.19 112.44-72.95 108.44-72.95L95.08-72.95C88.96-53.82 81.38-41.75 70.59-29.62C74.69-25.48 79.06-21.44 83.93-16.93L78.57-2.12C77.13-3.45 75.73-4.75 74.36-6.02C69.48-10.53 64.95-14.72 60.59-19.1C57.09-15.61 53.31-11.95 49.22-7.99C43.98-2.92 38.23 2.65 31.89 9.02C29.06 11.86 24.47 11.87 21.63 9.05C18.79 6.22 18.78 1.63 21.61-1.21C28.43-8.07 34.45-13.91 39.79-19.09L39.79-19.09C43.81-22.99 47.44-26.52 50.74-29.82C45.57-35.99 40.44-43.06 35.05-52.01C32.98-55.44 34.08-59.9 37.51-61.96C40.94-64.03 45.4-62.93 47.46-59.5C52.08-51.85 56.39-45.77 60.78-40.42C69.21-50.05 74.93-59.21 79.79-72.95L13.03-72.95C9.02-72.95 5.78-76.19 5.78-80.2C5.78-84.2 9.02-87.45 13.03-87.45L53.48-87.45L53.48-94.01C53.48-98.01 56.73-101.26 60.73-101.26ZM91.97 29.75C96.99 29.75 99.81 27.19 101.61 20.93L104.12 13.04L129.45 13.04L131.96 21.24C133.6 27.29 136.42 29.75 141.85 29.75C147.34 29.75 151.29 26.01 151.29 20.73C151.29 18.78 150.93 17.03 150.06 14.62L131.65-35.52C128.83-43.21 124.32-46.49 116.58-46.49C109.24-46.49 104.68-43.05 101.96-35.52L83.71 14.62C82.89 16.88 82.38 19.19 82.38 20.78C82.38 26.37 86.02 29.75 91.97 29.75ZM107.86-1.17L116.27-29.67L116.68-29.67L125.34-1.17L107.86-1.17Z" />
              </g>
              <g id="Bold-L" transform="matrix(1 0 0 1 2260.67 1556)">
                     <path d="M59.48-100.12C62.8-100.12 65.48-97.44 65.48-94.12L65.48-86.31L107.19-86.31C110.5-86.31 113.19-83.63 113.19-80.31C113.19-77 110.5-74.31 107.19-74.31L92.92-74.31C86.67-54.41 78.92-42.22 67.62-29.69C72.02-25.21 76.68-20.89 81.91-16.05L81.91-16.05L81.91-16.05C82.35-15.65 82.79-15.24 83.23-14.83L78.8-2.57C77.14-4.12 75.52-5.61 73.94-7.07C68.73-11.88 63.94-16.31 59.34-21C55.62-17.26 51.58-13.34 47.16-9.06L47.16-9.06L47.15-9.06C41.91-3.98 36.13 1.61 29.75 8.02C27.41 10.37 23.61 10.38 21.26 8.04C18.92 5.7 18.91 1.91 21.24-0.44C28.03-7.26 34.02-13.07 39.35-18.25L39.35-18.25L39.35-18.25C43.72-22.49 47.64-26.3 51.19-29.87C45.8-36.19 40.49-43.45 34.87-52.77C33.16-55.61 34.07-59.3 36.91-61.01C39.75-62.72 43.43-61.81 45.14-58.97C50.12-50.72 54.75-44.28 59.5-38.62C68.88-49.12 75.07-58.93 80.3-74.31L11.78-74.31C8.47-74.31 5.78-77 5.78-80.31C5.78-83.63 8.47-86.31 11.78-86.31L53.48-86.31L53.48-94.12C53.48-97.44 56.17-100.12 59.48-100.12ZM90.46 29.48C94.56 29.48 96.87 27.43 98.3 22.5L102.2 10.97L128.91 10.97L132.81 22.66C134.19 27.48 136.5 29.48 140.86 29.48C145.37 29.48 148.6 26.45 148.6 22.2C148.6 20.66 148.34 19.27 147.63 17.28L127.32-37.79C125.12-43.84 121.53-46.5 115.48-46.5C109.64-46.5 106-43.74 103.84-37.74L83.64 17.28C82.98 19.17 82.62 20.92 82.62 22.2C82.62 26.66 85.64 29.48 90.46 29.48ZM105.59-1.03L115.17-31.33L115.53-31.33L125.32-1.03L105.59-1.03Z" />
              </g>
              <g id="Semibold-L" transform="matrix(1 0 0 1 1964.82 1556)">
                     <path d="M58.73-99.38C61.63-99.38 63.98-97.02 63.98-94.12L63.98-85.56L106.44-85.56C109.34-85.56 111.69-83.21 111.69-80.31C111.69-77.41 109.34-75.06 106.44-75.06L91.62-75.06C85.29-54.69 77.46-42.45 65.84-29.67C70.4-24.99 75.23-20.52 80.66-15.49L80.66-15.49C81.6-14.63 82.55-13.74 83.52-12.84L79.63-2.11C77.59-4.03 75.61-5.86 73.69-7.63L73.69-7.63C68.29-12.63 63.34-17.2 58.59-22.07C54.75-18.18 50.54-14.11 45.92-9.64L45.92-9.64L45.92-9.64L45.92-9.64L45.92-9.63C40.66-4.55 34.88 1.05 28.47 7.49C26.42 9.55 23.1 9.56 21.04 7.51C18.99 5.47 18.98 2.14 21.03 0.09C27.78-6.7 33.76-12.51 39.09-17.67L39.09-17.67C43.67-22.12 47.77-26.1 51.46-29.83C45.93-36.25 40.51-43.62 34.76-53.16C33.26-55.64 34.06-58.87 36.54-60.37C39.03-61.87 42.25-61.07 43.75-58.58C48.94-49.98 53.77-43.32 58.73-37.48C68.68-48.5 75.14-58.68 80.59-75.06L11.03-75.06C8.13-75.06 5.78-77.41 5.78-80.31C5.78-83.21 8.13-85.56 11.03-85.56L53.48-85.56L53.48-94.12C53.48-97.02 55.83-99.38 58.73-99.38ZM89.51 29.37C92.94 29.37 94.89 27.68 96.12 23.68L100.99 9.63L128.62 9.63L133.49 23.79C134.67 27.73 136.67 29.37 140.26 29.37C144.11 29.37 146.88 26.86 146.88 23.27C146.88 22.09 146.62 20.91 146 19.22L124.47-39.23C122.63-44.2 119.65-46.35 114.78-46.35C109.96-46.35 106.99-44.1 105.19-39.17L83.71 19.22C83.1 20.81 82.84 22.25 82.84 23.27C82.84 27.02 85.46 29.37 89.51 29.37ZM104.12-0.82L114.53-32.41L114.88-32.41L125.39-0.82L104.12-0.82Z" />
              </g>
              <g id="Medium-L" transform="matrix(1 0 0 1 1668.84 1556)">
                     <path d="M57.98-97.62C60.47-97.62 62.48-95.61 62.48-93.12L62.48-83.81L105.69-83.81C108.17-83.81 110.19-81.8 110.19-79.31C110.19-76.83 108.17-74.81 105.69-74.81L90.31-74.81C83.91-53.97 75.99-41.68 64.06-28.66C68.78-23.77 73.78-19.14 79.41-13.93L79.41-13.93C80.42-13 81.45-12.05 82.49-11.08L79.16-1.88C77.19-3.72 75.29-5.48 73.44-7.19L73.44-7.19L73.44-7.19L73.44-7.19C67.84-12.37 62.73-17.09 57.85-22.14C53.87-18.11 49.5-13.88 44.68-9.21L44.68-9.21L44.68-9.21C39.42-4.12 33.62 1.5 27.19 7.96C25.43 9.73 22.58 9.73 20.82 7.98C19.06 6.23 19.05 3.38 20.81 1.62C27.54-5.15 33.5-10.93 38.82-16.09L38.82-16.1L38.82-16.1L38.82-16.1L38.82-16.1C43.62-20.75 47.9-24.9 51.73-28.79C46.07-35.31 40.54-42.78 34.65-52.55C33.37-54.68 34.05-57.44 36.18-58.73C38.31-60.01 41.08-59.32 42.36-57.2C47.76-48.23 52.79-41.37 57.97-35.34C68.49-46.89 75.22-57.41 80.88-74.81L10.28-74.81C7.79-74.81 5.78-76.83 5.78-79.31C5.78-81.8 7.79-83.81 10.28-83.81L53.48-83.81L53.48-93.12C53.48-95.61 55.5-97.62 57.98-97.62ZM88.6 30.33C91.58 30.33 93.27 28.89 94.34 25.56L99.93 9.66L128.23 9.66L133.87 25.61C134.9 28.89 136.59 30.33 139.67 30.33C143 30.33 145.41 28.12 145.41 25.1C145.41 24.12 145.2 23.15 144.69 21.71L122.13-39.35C120.59-43.45 118.13-45.3 114.13-45.3C110.08-45.3 107.57-43.4 106.08-39.3L83.58 21.71C83.06 23.1 82.86 24.22 82.86 25.1C82.86 28.22 85.17 30.33 88.6 30.33ZM102.85 0.28L113.88-32.17L114.19-32.17L125.31 0.28L102.85 0.28Z" />
              </g>
              <g id="Regular-L" transform="matrix(1 0 0 1 1372.87 1556)">
                     <path d="M57.48-101.12C59.69-101.12 61.48-99.33 61.48-97.12L61.48-87.31L105.19-87.31C107.4-87.31 109.19-85.52 109.19-83.31C109.19-81.1 107.4-79.31 105.19-79.31L89.44-79.31C82.99-58.16 75.02-45.83 62.88-32.65C67.71-27.62 72.81-22.89 78.58-17.56C79.63-16.58 80.71-15.59 81.81-14.57L78.85-6.39C76.93-8.18 75.07-9.9 73.27-11.56L73.27-11.57C67.53-16.87 62.33-21.68 57.35-26.86C53.29-22.73 48.82-18.4 43.85-13.59L43.85-13.59L43.85-13.59C38.59-8.5 32.78-2.87 26.33 3.61C24.77 5.18 22.24 5.18 20.68 3.62C19.11 2.07 19.1-0.47 20.66-2.03C27.38-8.78 33.33-14.56 38.65-19.71L38.65-19.71L38.65-19.71C43.59-24.51 47.98-28.77 51.92-32.77C46.16-39.36 40.56-46.89 34.58-56.81C33.44-58.7 34.05-61.16 35.94-62.3C37.83-63.44 40.29-62.83 41.43-60.94C46.98-51.74 52.13-44.74 57.45-38.59C68.36-50.48 75.27-61.23 81.06-79.31L9.78-79.31C7.57-79.31 5.78-81.1 5.78-83.31C5.78-85.52 7.57-87.31 9.78-87.31L53.48-87.31L53.48-97.12C53.48-99.33 55.27-101.12 57.48-101.12ZM87.95 26.22C90.25 26.22 91.59 25.15 92.46 22.68L98.97 4.33L128.25 4.33L134.81 22.68C135.68 25.15 137.01 26.22 139.32 26.22C141.99 26.22 143.93 24.53 143.93 22.17C143.93 21.51 143.78 20.74 143.37 19.61L119.53-44.79C118.4-47.81 116.56-49.2 113.74-49.2C110.71-49.2 108.81-47.76 107.69-44.73L83.9 19.61C83.49 20.74 83.33 21.51 83.33 22.17C83.33 24.53 85.28 26.22 87.95 26.22ZM101.64-3.51L113.48-37.25L113.79-37.25L125.63-3.51L101.64-3.51Z" />
              </g>
              <g id="Light-L" transform="matrix(1 0 0 1 1076.78 1556)">
                     <path d="M56.48-98.12C58.14-98.12 59.48-96.78 59.48-95.12L59.48-84.31L104.19-84.31C105.84-84.31 107.19-82.97 107.19-81.31C107.19-79.66 105.84-78.31 104.19-78.31L87.7-78.31C81.15-56.53 73.08-44.16 60.5-30.64C65.56-25.32 70.88-20.39 76.92-14.81L76.92-14.81C78.06-13.75 79.24-12.66 80.44-11.54L78.22-5.41C76.4-7.11 74.64-8.73 72.93-10.31L72.93-10.32L72.93-10.32C66.93-15.87 61.53-20.86 56.35-26.3C52.13-21.98 47.45-17.44 42.2-12.36C36.93-7.25 31.1-1.61 24.62 4.91C23.45 6.08 21.55 6.08 20.38 4.92C19.21 3.75 19.2 1.85 20.37 0.67C27.05-6.04 32.99-11.8 38.3-16.95C43.53-22.03 48.16-26.51 52.28-30.73C46.34-37.44 40.59-45.11 34.44-55.32C33.58-56.74 34.04-58.59 35.46-59.44C36.87-60.3 38.72-59.84 39.57-58.42C45.41-48.74 50.82-41.48 56.43-35.09C68.1-47.66 75.36-58.84 81.43-78.31L8.78-78.31C7.12-78.31 5.78-79.66 5.78-81.31C5.78-82.97 7.12-84.31 8.78-84.31L53.48-84.31L53.48-95.12C53.48-96.78 54.83-98.12 56.48-98.12ZM86.13 28.22C87.87 28.22 88.9 27.45 89.56 25.5L97.15 4.84L128.07 4.84L135.65 25.5C136.37 27.4 137.35 28.22 139.14 28.22C141.19 28.22 142.68 26.94 142.68 25.15C142.68 24.58 142.52 23.97 142.22 23.1L117.04-43.86C116.17-46.17 114.84-47.2 112.68-47.2C110.43-47.2 109.04-46.12 108.17-43.86L83.05 23.1C82.69 24.02 82.59 24.63 82.59 25.15C82.59 26.94 84.08 28.22 86.13 28.22ZM99.2-1.21L112.48-37.81L112.79-37.81L126.01-1.21L99.2-1.21Z" />
              </g>
              <g id="Thin-L" transform="matrix(1 0 0 1 780.777 1556)">
                     <path d="M55.485-95.12C56.59-95.12 57.485-94.23 57.485-93.12L57.485-81.31L103.19-81.31C104.295-81.31 105.19-80.42 105.19-79.31C105.19-78.21 104.295-77.31 103.19-77.31L85.881-77.31C85.878-77.13 85.851-76.95 85.797-76.77C79.181-54.69 71.051-42.4 58.132-28.64C63.408-23.02 68.957-17.89 75.255-12.06L75.255-12.06C76.496-10.91 77.767-9.73 79.07-8.52L77.589-4.43C75.876-6.03 74.215-7.57 72.599-9.06L72.599-9.06C66.326-14.87 60.724-20.05 55.365-25.74C50.984-21.23 46.083-16.48 40.551-11.12L40.55-11.12C35.276-6.01 29.43-0.35 22.916 6.2C22.137 6.98 20.871 6.99 20.088 6.21C19.305 5.43 19.302 4.16 20.081 3.38C26.727-3.3 32.646-9.04 37.948-14.18L37.948-14.18L37.949-14.18L37.949-14.18L37.949-14.18C43.479-19.54 48.338-24.25 52.65-28.7C46.525-35.54 40.628-43.33 34.294-53.84C33.724-54.79 34.028-56.01 34.974-56.59C35.92-57.16 37.149-56.85 37.72-55.9C43.84-45.75 49.506-38.23 55.419-31.6C67.845-44.86 75.452-56.44 81.782-77.31L7.78-77.31C6.676-77.31 5.78-78.21 5.78-79.31C5.78-80.42 6.676-81.31 7.78-81.31L53.485-81.31L53.485-93.12C53.485-94.23 54.381-95.12 55.485-95.12ZM84.002 30.27C85.078 30.27 85.642 29.81 86.104 28.58L95.024 4.84L128.196 4.84L137.168 28.58C137.578 29.76 138.193 30.27 139.219 30.27C140.449 30.27 141.27 29.5 141.27 28.38C141.27 28.07 141.167 27.61 141.013 27.1L114.097-43.35C113.584-44.68 112.866-45.25 111.636-45.25C110.405-45.25 109.636-44.63 109.124-43.3L82.258 27.1C82.053 27.71 81.951 28.07 81.951 28.43C81.951 29.5 82.771 30.27 84.002 30.27ZM96.357 1.2L111.482-39.2L111.738-39.2L126.914 1.2L96.357 1.2Z" />
              </g>
              <g id="Ultralight-L" transform="matrix(1 0 0 1 484.456 1556)">
                     <path d="M54.86-93.5C55.62-93.5 56.235-92.88 56.235-92.12L56.235-79.69L102.565-79.69C103.324-79.69 103.94-79.07 103.94-78.31C103.94-77.55 103.324-76.94 102.565-76.94L84.498-76.94C84.639-76.64 84.675-76.29 84.573-75.95C77.923-53.75 69.764-41.53 56.649-27.64C62.066-21.83 67.752-16.57 74.215-10.59L74.215-10.59L74.215-10.59C76.205-8.75 78.269-6.84 80.422-4.82L79.403-2.01C76.964-4.3 74.633-6.46 72.389-8.53L72.389-8.53C65.945-14.49 60.222-19.79 54.747-25.65C50.268-21.01 45.233-16.13 39.519-10.6L39.518-10.6L39.517-10.6L39.517-10.6C34.239-5.48 28.382 0.19 21.848 6.76C21.313 7.3 20.442 7.3 19.904 6.76C19.365 6.23 19.363 5.36 19.899 4.82C26.525-1.84 32.432-7.57 37.73-12.7L37.73-12.7C43.445-18.24 48.45-23.1 52.88-27.68C46.636-34.6 40.651-42.47 34.204-53.16C33.812-53.81 34.021-54.66 34.672-55.05C35.322-55.44 36.167-55.23 36.559-54.58C42.859-44.13 48.684-36.45 54.784-29.68C67.646-43.31 75.46-55.11 81.939-76.74C81.959-76.81 81.985-76.87 82.014-76.94L7.155-76.94C6.396-76.94 5.78-77.55 5.78-78.31C5.78-79.07 6.396-79.69 7.155-79.69L53.485-79.69L53.485-92.12C53.485-92.88 54.101-93.5 54.86-93.5ZM82.813 31.27C83.479 31.27 83.889 31.02 84.197 30.15L93.836 4.82L128.135 4.82L137.774 30.15C138.081 30.97 138.44 31.27 139.158 31.27C139.978 31.27 140.491 30.76 140.491 30.04C140.491 29.79 140.388 29.48 140.234 29.12L112.446-43.07C112.139-43.89 111.729-44.25 111.011-44.25C110.242-44.25 109.832-43.89 109.524-43.07L81.736 29.12C81.531 29.53 81.48 29.84 81.48 30.09C81.48 30.76 81.992 31.27 82.813 31.27ZM94.758 2.46L110.857-39.94L111.113-39.94L127.212 2.46L94.758 2.46Z" />
              </g>
              <g id="Black-M" transform="matrix(1 0 0 1 2866.38 1126)">
                     <path d="M50.88-91.17C55.03-91.17 58.38-87.81 58.38-83.67L58.38-80.29L88.48-80.29C92.63-80.29 95.98-76.93 95.98-72.79C95.98-68.64 92.63-65.29 88.48-65.29L79.25-65.29C74.62-51.3 68.91-42.03 61.1-33C63.36-30.77 65.72-28.55 68.28-26.18L62.73-10.86C61.95-11.58 61.19-12.29 60.44-12.98L60.44-12.98L60.44-12.98C57.05-16.12 53.85-19.07 50.77-22.11C48.34-19.7 45.74-17.19 42.98-14.51L42.97-14.51L42.97-14.51L42.97-14.51C38.86-10.53 34.36-6.17 29.41-1.2C26.49 1.73 21.74 1.75 18.8-1.18C15.87-4.1 15.86-8.85 18.78-11.78C24.22-17.25 29-21.89 33.22-25.99L33.22-25.99L33.22-25.99L33.22-25.99L33.22-25.99C35.89-28.59 38.34-30.96 40.59-33.2C36.81-37.82 33.05-43.11 29.11-49.65C26.97-53.2 28.11-57.81 31.66-59.94C35.21-62.08 39.81-60.94 41.95-57.39C45.07-52.22 48.01-47.98 50.96-44.23C56.26-50.53 60.08-56.74 63.35-65.29L13.28-65.29C9.14-65.29 5.78-68.64 5.78-72.79C5.78-76.93 9.14-80.29 13.28-80.29L43.38-80.29L43.38-83.67C43.38-87.81 46.74-91.17 50.88-91.17ZM75.18 14.18C79.95 14.18 82.61 11.73 84.27 5.71L85.31 1.93L104.81 1.93L105.85 6C107.34 11.81 110.04 14.18 115.23 14.18C120.33 14.18 124.03 10.61 124.03 5.63C124.03 3.72 123.7 2.06 122.87-0.23L109.34-37.25C106.64-44.63 102.32-47.79 94.81-47.79C87.8-47.79 83.44-44.51 80.86-37.25L67.46-0.23C66.67 1.89 66.21 4.13 66.21 5.67C66.21 10.98 69.58 14.18 75.18 14.18ZM88.63-11.18L94.56-32.93L94.89-32.93L101.12-11.18L88.63-11.18Z" />
              </g>
              <g id="Heavy-M" transform="matrix(1 0 0 1 2572.37 1126)">
                     <path d="M48.33-87.95C51.92-87.95 54.83-85.04 54.83-81.45L54.83-77.52L84.39-77.52C87.98-77.52 90.89-74.61 90.89-71.02C90.89-67.43 87.98-64.52 84.39-64.52L75.04-64.52C70.52-50.68 64.93-41.69 57.18-32.83C59.7-30.32 62.36-27.84 65.26-25.15L60.45-11.88C59.61-12.66 58.77-13.43 57.95-14.19L57.95-14.19L57.95-14.19L57.95-14.19C54.52-17.36 51.32-20.32 48.22-23.4C45.76-20.95 43.13-18.4 40.3-15.66L40.3-15.66C36.35-11.84 32.02-7.65 27.25-2.87C24.72-0.32 20.61-0.31 18.06-2.85C15.52-5.38 15.51-9.49 18.04-12.04C23.23-17.26 27.8-21.69 31.84-25.61L31.84-25.61C34.59-28.29 37.1-30.72 39.4-33.01C35.66-37.53 31.94-42.72 28.05-49.19C26.19-52.26 27.18-56.26 30.26-58.11C33.33-59.96 37.33-58.97 39.18-55.9C42.37-50.61 45.37-46.32 48.39-42.55C53.99-49.09 57.93-55.45 61.28-64.52L48.34-64.52L48.33-64.52L48.33-64.52L12.28-64.52C8.69-64.52 5.78-67.43 5.78-71.02C5.78-74.61 8.69-77.52 12.28-77.52L41.83-77.52L41.83-81.45C41.83-85.04 44.74-87.95 48.33-87.95ZM70.6 13.92C74.67 13.92 76.95 11.84 78.4 6.78L80.43 0.39L100.94 0.39L102.97 7.03C104.3 11.93 106.58 13.92 110.98 13.92C115.42 13.92 118.62 10.89 118.62 6.61C118.62 5.04 118.33 3.63 117.62 1.68L102.72-38.92C100.44-45.14 96.79-47.8 90.52-47.8C84.58-47.8 80.89-45.02 78.69-38.92L63.92 1.68C63.25 3.5 62.84 5.37 62.84 6.66C62.84 11.18 65.78 13.92 70.6 13.92ZM83.46-11.11L90.27-34.18L90.6-34.18L97.62-11.11L83.46-11.11Z" />
              </g>
              <g id="Bold-M" transform="matrix(1 0 0 1 2276.92 1126)">
                     <path d="M46.96-91.27C49.79-91.27 52.09-88.98 52.09-86.15L52.09-80.84L83.02-80.84C85.85-80.84 88.14-78.54 88.14-75.71C88.14-72.88 85.85-70.59 83.02-70.59L72.66-70.59C68-55.91 62.22-46.76 53.92-37.47C57.12-34.24 60.51-31.1 64.3-27.59L64.3-27.59L64.3-27.59L64.3-27.59C64.9-27.03 65.51-26.47 66.12-25.9L62.33-15.42C60.66-16.99 59.06-18.47 57.5-19.91C53.71-23.41 50.22-26.64 46.85-30.04C44.15-27.33 41.22-24.49 38.03-21.41L38.03-21.41L38.03-21.41C34.07-17.58 29.72-13.36 24.91-8.53C22.91-6.53 19.67-6.52 17.66-8.52C15.66-10.51 15.65-13.76 17.64-15.76C22.79-20.93 27.33-25.34 31.36-29.25L31.36-29.25L31.36-29.26C34.5-32.3 37.33-35.04 39.89-37.62C35.92-42.32 31.99-47.72 27.85-54.59C26.39-57.02 27.17-60.17 29.6-61.63C32.02-63.09 35.17-62.31 36.63-59.88C40.22-53.93 43.57-49.23 46.99-45.11C53.63-52.63 58.09-59.74 61.86-70.59L46.97-70.59L46.96-70.59L46.96-70.59L10.91-70.59C8.08-70.59 5.78-72.88 5.78-75.71C5.78-78.54 8.08-80.84 10.91-80.84L41.84-80.84L41.84-86.15C41.84-88.98 44.13-91.27 46.96-91.27ZM69.02 9.1C72.34 9.1 74.21 7.44 75.37 3.46L78.52-5.88L100.15-5.88L103.3 3.58C104.42 7.48 106.29 9.1 109.82 9.1C113.47 9.1 116.09 6.65 116.09 3.21C116.09 1.96 115.88 0.84 115.3-0.78L98.86-45.35C97.08-50.25 94.17-52.41 89.27-52.41C84.54-52.41 81.6-50.17 79.85-45.31L63.5-0.78C62.96 0.76 62.67 2.17 62.67 3.21C62.67 6.82 65.12 9.1 69.02 9.1ZM81.26-15.59L89.02-40.12L89.32-40.12L97.24-15.59L81.26-15.59Z" />
              </g>
              <g id="Semibold-M" transform="matrix(1 0 0 1 1980.92 1126)">
                     <path d="M46.33-85.65C48.82-85.65 50.83-83.63 50.83-81.15L50.83-75.21L82.39-75.21C84.87-75.21 86.89-73.2 86.89-70.71C86.89-68.23 84.87-66.21 82.39-66.21L71.58-66.21C66.85-51.15 60.99-41.93 52.44-32.45C55.76-29.06 59.3-25.79 63.26-22.12L63.26-22.12L63.26-22.12C63.65-21.76 64.04-21.39 64.44-21.02L61.11-11.83C59.8-13.05 58.53-14.23 57.28-15.38C53.34-19.03 49.71-22.38 46.22-25.93C43.41-23.1 40.34-20.13 36.99-16.89L36.99-16.89C33.03-13.05 28.66-8.82 23.84-3.97C22.08-2.21 19.23-2.21 17.47-3.96C15.71-5.71 15.7-8.56 17.46-10.32C22.58-15.47 27.11-19.87 31.14-23.78C34.45-26.99 37.42-29.88 40.11-32.58C36.03-37.37 32.01-42.86 27.76-49.92C26.47-52.04 27.16-54.81 29.29-56.09C31.42-57.38 34.18-56.69 35.47-54.56C39.23-48.31 42.75-43.43 46.34-39.15C53.46-47.11 58.15-54.54 62.11-66.21L46.34-66.21L46.33-66.21L46.33-66.21L10.28-66.21C7.79-66.21 5.78-68.23 5.78-70.71C5.78-73.2 7.79-75.21 10.28-75.21L41.83-75.21L41.83-81.15C41.83-83.63 43.85-85.65 46.33-85.65ZM68.22 14.02C71 14.02 72.58 12.65 73.58 9.41L77.52-1.96L99.89-1.96L103.83 9.5C104.79 12.69 106.41 14.02 109.31 14.02C112.43 14.02 114.67 11.99 114.67 9.08C114.67 8.13 114.46 7.17 113.96 5.8L96.53-41.51C95.04-45.54 92.63-47.28 88.69-47.28C84.78-47.28 82.38-45.46 80.92-41.47L63.53 5.8C63.04 7.09 62.83 8.25 62.83 9.08C62.83 12.11 64.95 14.02 68.22 14.02ZM80.05-10.43L88.48-35.99L88.77-35.99L97.28-10.43L80.05-10.43Z" />
              </g>
              <g id="Medium-M" transform="matrix(1 0 0 1 1684.63 1126)">
                     <path d="M46.08-84.34C48.43-84.34 50.33-82.43 50.33-80.09L50.33-73.9L82.14-73.9C84.48-73.9 86.39-72 86.39-69.65C86.39-67.3 84.48-65.4 82.14-65.4L71.14-65.4C66.39-50.18 60.5-40.94 51.84-31.38C55.23-27.92 58.81-24.6 62.84-20.87C63.52-20.24 64.21-19.6 64.92-18.94L61.77-10.26C60.2-11.73 58.67-13.14 57.2-14.51L57.2-14.51C53.19-18.21 49.51-21.62 45.97-25.23C43.12-22.34 40-19.32 36.58-16.02C32.61-12.18 28.24-7.95 23.41-3.09C21.75-1.42 19.06-1.42 17.4-3.07C15.73-4.73 15.73-7.42 17.38-9.08C22.5-14.22 27.02-18.61 31.05-22.52L31.05-22.52C34.43-25.81 37.47-28.75 40.2-31.51C36.07-36.33 32.02-41.85 27.72-48.98C26.51-50.99 27.16-53.6 29.17-54.82C31.18-56.03 33.79-55.38 35-53.37C38.84-47 42.42-42.05 46.09-37.7C53.39-45.84 58.17-53.39 62.21-65.4L46.09-65.4L46.08-65.4L46.08-65.4L10.03-65.4C7.68-65.4 5.78-67.3 5.78-69.65C5.78-72 7.68-73.9 10.03-73.9L41.83-73.9L41.83-80.09C41.83-82.43 43.73-84.34 46.08-84.34ZM67.85 15.04C70.26 15.04 71.63 13.88 72.5 11.18L77.02-1.69L99.93-1.69L104.5 11.22C105.33 13.88 106.7 15.04 109.19 15.04C111.88 15.04 113.84 13.25 113.84 10.81C113.84 10.02 113.67 9.23 113.25 8.07L94.99-41.37C93.75-44.69 91.76-46.18 88.52-46.18C85.24-46.18 83.21-44.64 82-41.32L63.78 8.07C63.37 9.19 63.2 10.1 63.2 10.81C63.2 13.34 65.07 15.04 67.85 15.04ZM79.39-9.28L88.31-35.55L88.56-35.55L97.57-9.28L79.39-9.28Z" />
              </g>
              <g id="Regular-M" transform="matrix(1 0 0 1 1388.56 1126)">
                     <path d="M45.59-83.84C47.66-83.84 49.34-82.16 49.34-80.09L49.34-73.4L81.64-73.4C83.71-73.4 85.39-71.72 85.39-69.65C85.39-67.58 83.71-65.9 81.64-65.9L70.28-65.9C65.48-50.37 59.53-41.09 50.66-31.37C54.15-27.77 57.85-24.35 62.02-20.49L62.02-20.49C62.74-19.82 63.48-19.14 64.24-18.43L61.46-10.77C59.94-12.19 58.47-13.56 57.03-14.88L57.03-14.88C52.89-18.71 49.11-22.21 45.48-25.94C42.54-22.96 39.31-19.84 35.76-16.4L35.76-16.4L35.76-16.4C31.79-12.55 27.41-8.31 22.56-3.44C21.1-1.97 18.73-1.97 17.26-3.43C15.79-4.89 15.78-7.26 17.24-8.73C22.34-13.85 26.86-18.23 30.88-22.14C34.41-25.56 37.56-28.62 40.39-31.48C36.17-36.36 32.04-41.96 27.66-49.24C26.59-51.01 27.16-53.32 28.93-54.39C30.7-55.46 33.01-54.89 34.08-53.11C38.06-46.5 41.77-41.41 45.58-36.94C53.27-45.43 58.23-53.22 62.41-65.9L45.59-65.9L45.59-65.9L45.58-65.9L9.53-65.9C7.46-65.9 5.78-67.58 5.78-69.65C5.78-71.72 7.46-73.4 9.53-73.4L41.84-73.4L41.84-80.09C41.84-82.16 43.52-83.84 45.59-83.84ZM67.23 14.95C69.1 14.95 70.18 14.08 70.88 12.09L76.15-2.77L99.85-2.77L105.17 12.09C105.87 14.08 106.95 14.95 108.82 14.95C110.98 14.95 112.55 13.58 112.55 11.68C112.55 11.14 112.43 10.51 112.1 9.6L92.8-42.53C91.88-44.98 90.39-46.1 88.11-46.1C85.66-46.1 84.12-44.94 83.21-42.49L63.95 9.6C63.62 10.51 63.5 11.14 63.5 11.68C63.5 13.58 65.07 14.95 67.23 14.95ZM78.31-9.12L87.9-36.43L88.15-36.43L97.74-9.12L78.31-9.12Z" />
              </g>
              <g id="Light-M" transform="matrix(1 0 0 1 1092.32 1126)">
                     <path d="M44.84-87.09C46.49-87.09 47.84-85.74 47.84-84.09L47.84-76.65L80.89-76.65C82.55-76.65 83.89-75.31 83.89-73.65C83.89-71.99 82.55-70.65 80.89-70.65L68.98-70.65C64.1-54.65 58.07-45.33 48.88-35.36C52.54-31.55 56.4-27.97 60.77-23.93L60.77-23.93L60.77-23.93L60.77-23.93L60.77-23.93C61.98-22.81 63.24-21.65 64.53-20.44L62.31-14.3C60.39-16.11 58.55-17.8 56.78-19.44C52.44-23.45 48.51-27.1 44.74-31.01C41.67-27.89 38.28-24.61 34.52-20.97L34.52-20.97C30.55-17.12 26.15-12.87 21.28-7.97C20.11-6.79 18.21-6.79 17.04-7.96C15.86-9.13 15.86-11.03 17.03-12.2C22.1-17.3 26.6-21.67 30.62-25.56C34.36-29.19 37.69-32.42 40.66-35.45C36.31-40.43 32.07-46.13 27.55-53.63C26.69-55.05 27.15-56.89 28.57-57.75C29.99-58.6 31.83-58.14 32.69-56.72C36.88-49.76 40.79-44.46 44.82-39.81C53.07-48.81 58.3-56.95 62.69-70.65L44.84-70.65L44.84-70.65L44.83-70.65L8.78-70.65C7.13-70.65 5.78-71.99 5.78-73.65C5.78-75.31 7.13-76.65 8.78-76.65L41.84-76.65L41.84-84.09C41.84-85.74 43.18-87.09 44.84-87.09ZM65.82 10.95C67.23 10.95 68.06 10.33 68.6 8.75L74.74-7.97L99.77-7.97L105.91 8.75C106.49 10.29 107.28 10.95 108.73 10.95C110.39 10.95 111.6 9.92 111.6 8.46C111.6 8.01 111.47 7.51 111.22 6.8L90.84-47.4C90.14-49.27 89.06-50.1 87.32-50.1C85.49-50.1 84.37-49.23 83.66-47.4L63.33 6.8C63.04 7.55 62.95 8.05 62.95 8.46C62.95 9.92 64.16 10.95 65.82 10.95ZM76.4-12.87L87.15-42.5L87.4-42.5L98.11-12.87L76.4-12.87Z" />
              </g>
              <g id="Thin-M" transform="matrix(1 0 0 1 796.408 1126)">
                     <path d="M43.583-83.84C44.549-83.84 45.333-83.05 45.333-82.09L45.333-73.4L79.636-73.4C80.603-73.4 81.386-72.61 81.386-71.65C81.386-70.68 80.603-69.9 79.636-69.9L66.773-69.9C66.761-69.82 66.743-69.74 66.719-69.66C61.732-53.01 55.6-43.7 45.911-33.35C49.844-29.18 53.986-25.34 58.683-21C60.013-19.77 61.388-18.49 62.816-17.16L61.519-13.58C59.729-15.26 58.013-16.85 56.358-18.38L56.358-18.38C51.682-22.7 47.496-26.57 43.49-30.82C40.217-27.45 36.563-23.91 32.451-19.93L32.451-19.93L32.451-19.93L32.45-19.93C28.466-16.07 24.052-11.79 19.137-6.85C18.455-6.17 17.347-6.16 16.662-6.85C15.977-7.53 15.975-8.63 16.656-9.32C21.688-14.38 26.165-18.72 30.174-22.61L30.174-22.61C34.284-26.59 37.9-30.1 41.114-33.4C36.53-38.54 32.108-44.4 27.363-52.27C26.864-53.1 27.131-54.18 27.959-54.67C28.786-55.17 29.862-54.91 30.361-54.08C34.918-46.52 39.139-40.9 43.537-35.94C52.747-45.8 58.413-54.46 63.135-69.9L43.586-69.9L43.583-69.9L43.58-69.9L7.53-69.9C6.563-69.9 5.78-70.68 5.78-71.65C5.78-72.61 6.563-73.4 7.53-73.4L41.833-73.4L41.833-82.09C41.833-83.05 42.616-83.84 43.583-83.84ZM63.648 13C64.52 13 64.977 12.62 65.35 11.63L72.572-7.59L99.425-7.59L106.688 11.63C107.02 12.58 107.518 13 108.348 13C109.344 13 110.008 12.38 110.008 11.46C110.008 11.21 109.925 10.84 109.801 10.43L88.011-46.6C87.596-47.68 87.015-48.14 86.019-48.14C85.023-48.14 84.4-47.64 83.985-46.56L62.237 10.43C62.071 10.92 61.988 11.21 61.988 11.5C61.988 12.38 62.652 13 63.648 13ZM73.651-10.53L85.894-43.24L86.102-43.24L98.387-10.53L73.651-10.53Z" />
              </g>
              <g id="Ultralight-M" transform="matrix(1 0 0 1 502.664 1126)">
                     <path d="M41.032-79.57C41.722-79.57 42.282-79.01 42.282-78.32L42.282-69.73L75.033-69.73C75.723-69.73 76.283-69.17 76.283-68.48C76.283-67.79 75.723-67.23 75.033-67.23L62.511-67.23C62.531-67.06 62.518-66.89 62.467-66.72C57.742-50.94 51.939-42.2 42.676-32.36C46.476-28.3 50.47-24.61 55.006-20.41L55.007-20.41L55.007-20.41L55.008-20.41C56.299-19.21 57.634-17.98 59.021-16.68L58.095-14.12C56.448-15.67 54.869-17.13 53.346-18.54L53.346-18.54L53.346-18.54C48.827-22.72 44.799-26.44 40.947-30.55C37.797-27.3 34.266-23.88 30.272-20.01L30.272-20.01L30.272-20.01C26.512-16.36 22.341-12.32 17.693-7.65C17.206-7.16 16.414-7.16 15.925-7.65C15.436-8.13 15.434-8.93 15.921-9.41C20.652-14.17 24.868-18.26 28.646-21.92L28.646-21.92L28.646-21.92L28.646-21.92C32.639-25.79 36.143-29.19 39.25-32.4C34.852-37.3 30.624-42.87 26.078-50.41C25.721-51 25.912-51.77 26.503-52.13C27.094-52.48 27.862-52.29 28.219-51.7C32.631-44.38 36.714-38.98 40.981-34.21C49.971-43.78 55.453-52.11 60.01-67.23L7.03-67.23C6.339-67.23 5.78-67.79 5.78-68.48C5.78-69.17 6.339-69.73 7.03-69.73L39.782-69.73L39.782-78.32C39.782-79.01 40.341-79.57 41.032-79.57ZM59.03 11.95C59.551 11.95 59.871 11.75 60.111 11.07L67.639-8.71L94.425-8.71L101.952 11.07C102.192 11.71 102.473 11.95 103.033 11.95C103.674 11.95 104.074 11.55 104.074 10.99C104.074 10.79 103.994 10.54 103.874 10.26L82.173-46.11C81.933-46.75 81.612-47.03 81.052-47.03C80.451-47.03 80.131-46.75 79.891-46.11L58.189 10.26C58.029 10.58 57.989 10.83 57.989 11.03C57.989 11.55 58.39 11.95 59.03 11.95ZM68.359-10.56L80.932-43.67L81.132-43.67L93.704-10.56L68.359-10.56Z" />
              </g>
              <g id="Black-S" transform="matrix(1 0 0 1 2880.53 696)">
                     <path d="M39.15-75.219C42.19-75.219 44.65-72.756 44.65-69.719L44.65-67.148L67.02-67.148C70.06-67.148 72.52-64.686 72.52-61.648C72.52-58.611 70.06-56.148 67.02-56.148L60.14-56.148C56.7-45.742 52.46-38.861 46.65-32.152C48.36-30.46 50.16-28.772 52.1-26.97L48.03-15.738C47.44-16.288 46.85-16.829 46.28-17.362L46.27-17.363L46.27-17.365L46.27-17.365L46.27-17.365C43.74-19.701 41.37-21.899 39.07-24.166C37.26-22.366 35.32-20.493 33.25-18.491L33.25-18.491L33.25-18.491L33.25-18.49L33.25-18.49C30.2-15.539 26.86-12.31 23.19-8.625C21.05-6.472 17.57-6.464 15.41-8.606C13.26-10.749 13.25-14.231 15.4-16.384C19.43-20.436 22.97-23.873 26.09-26.91L26.09-26.911L26.1-26.911C28.09-28.852 29.92-30.629 31.61-32.3C28.79-35.735 25.99-39.666 23.06-44.531C21.49-47.132 22.33-50.513 24.93-52.081C27.53-53.649 30.91-52.812 32.48-50.21C34.81-46.345 37-43.181 39.21-40.385C43.18-45.103 46.04-49.736 48.48-56.148L11.28-56.148C8.24-56.148 5.78-58.611 5.78-61.648C5.78-64.686 8.24-67.148 11.28-67.148L33.65-67.148L33.65-69.719C33.65-72.756 36.11-75.219 39.15-75.219ZM57.22 7.421C60.99 7.421 63.08 5.491 64.39 0.748L65.21-2.229L80.58-2.229L81.4 0.977C82.58 5.557 84.7 7.421 88.79 7.421C92.82 7.421 95.73 4.608 95.73 0.682C95.73-0.823 95.47-2.131 94.81-3.931L84.15-33.112C82.02-38.936 78.62-41.422 72.7-41.422C67.17-41.422 63.73-38.837 61.71-33.112L51.14-3.931C50.52-2.262 50.16-0.496 50.16 0.715C50.16 4.902 52.81 7.421 57.22 7.421ZM67.82-12.567L72.5-29.71L72.76-29.71L77.67-12.567L67.82-12.567Z" />
              </g>
              <g id="Heavy-S" transform="matrix(1 0 0 1 2584.47 696)">
                     <path d="M38.65-75.461C41.41-75.461 43.65-73.222 43.65-70.461L43.65-67.391L66.52-67.391C69.29-67.391 71.52-65.152 71.52-62.391C71.52-59.629 69.29-57.391 66.52-57.391L59.28-57.391C55.78-46.682 51.46-39.728 45.46-32.869C47.7-30.634 50.09-28.423 52.75-25.968L52.75-25.967L52.75-25.967L52.75-25.967L52.75-25.967L52.75-25.966C52.88-25.841 53.02-25.715 53.16-25.588L49.46-15.372C48.31-16.445 47.19-17.475 46.11-18.478L46.11-18.48L46.11-18.48L46.1-18.481L46.1-18.481C43.45-20.935 40.97-23.231 38.57-25.614C36.66-23.717 34.62-21.74 32.42-19.616L32.42-19.615L32.42-19.615C29.37-16.66 26.02-13.421 22.34-9.72C20.39-7.763 17.22-7.755 15.27-9.703C13.31-11.651 13.3-14.816 15.25-16.774C19.27-20.808 22.79-24.235 25.92-27.269C28.05-29.342 30-31.232 31.78-33.007C28.89-36.509 26.01-40.521 22.99-45.531C21.56-47.896 22.32-50.969 24.69-52.395C27.05-53.821 30.13-53.059 31.55-50.694C34.03-46.589 36.35-43.268 38.7-40.34C43.05-45.419 46.1-50.348 48.7-57.391L10.78-57.391C8.02-57.391 5.78-59.629 5.78-62.391C5.78-65.152 8.02-67.391 10.78-67.391L33.65-67.391L33.65-70.461C33.65-73.222 35.89-75.461 38.65-75.461ZM56.56 6.584C59.77 6.584 61.56 4.949 62.71 0.958L64.31-4.081L80.47-4.081L82.08 1.154C83.12 5.014 84.92 6.584 88.39 6.584C91.89 6.584 94.41 4.196 94.41 0.827C94.41-0.417 94.18-1.529 93.63-3.066L81.88-35.062C80.08-39.969 77.2-42.062 72.26-42.062C67.58-42.062 64.67-39.871 62.94-35.062L51.29-3.066C50.77-1.627 50.44-0.155 50.44 0.859C50.44 4.425 52.76 6.584 56.56 6.584ZM66.7-13.143L72.07-31.332L72.33-31.332L77.86-13.143L66.7-13.143Z" />
              </g>
              <g id="Bold-S" transform="matrix(1 0 0 1 2288.53 696)">
                     <path d="M38.03-74.297C40.45-74.297 42.41-72.338 42.41-69.922L42.41-66.227L65.9-66.227C68.32-66.227 70.28-64.268 70.28-61.852C70.28-59.435 68.32-57.477 65.9-57.477L58.2-57.477C54.64-46.386 50.23-39.352 43.98-32.304C46.36-29.912 48.89-27.571 51.71-24.96C52.43-24.295 53.17-23.612 53.92-22.907L50.68-13.956C49.02-15.525 47.43-16.994 45.9-18.409L45.9-18.409L45.9-18.409C43.09-21.012 40.47-23.431 37.95-25.959C35.93-23.941 33.75-21.833 31.4-19.553L31.4-19.553C28.34-16.593 24.98-13.342 21.28-9.622C19.57-7.909 16.8-7.902 15.09-9.607C13.38-11.311 13.37-14.081 15.07-15.794C19.07-19.806 22.58-23.221 25.7-26.249L25.7-26.25C28.01-28.492 30.11-30.522 32.01-32.427C29.01-36.011 26.03-40.122 22.9-45.315C21.66-47.384 22.32-50.073 24.39-51.321C26.46-52.568 29.15-51.902 30.4-49.832C33.05-45.428 35.54-41.916 38.06-38.828C42.88-44.352 46.17-49.631 48.97-57.477L10.16-57.477C7.74-57.477 5.78-59.435 5.78-61.852C5.78-64.268 7.74-66.227 10.16-66.227L33.66-66.227L33.66-69.922C33.66-72.338 35.62-74.297 38.03-74.297ZM55.78 7.022C58.39 7.022 59.87 5.714 60.78 2.573L63.27-4.788L80.31-4.788L82.8 2.671C83.68 5.747 85.15 7.022 87.93 7.022C90.81 7.022 92.87 5.092 92.87 2.377C92.87 1.396 92.71 0.512 92.25-0.764L79.3-35.899C77.89-39.76 75.6-41.461 71.74-41.461C68.01-41.461 65.69-39.694 64.31-35.867L51.42-0.764C51 0.447 50.77 1.559 50.77 2.377C50.77 5.223 52.7 7.022 55.78 7.022ZM65.43-12.443L71.54-31.777L71.77-31.777L78.02-12.443L65.43-12.443Z" />
              </g>
              <g id="Semibold-S" transform="matrix(1 0 0 1 1992.38 696)">
                     <path d="M37.53-74.797C39.67-74.797 41.41-73.062 41.41-70.922L41.41-66.727L65.4-66.727C67.54-66.727 69.28-64.992 69.28-62.852C69.28-60.711 67.54-58.977 65.4-58.977L57.34-58.977C53.72-47.577 49.25-40.49 42.8-33.286C45.28-30.765 47.92-28.321 50.88-25.585L50.88-25.585C51.64-24.877 52.43-24.15 53.24-23.396L50.37-15.468C48.76-16.987 47.22-18.411 45.73-19.783C42.79-22.505 40.07-25.022 37.45-27.669C35.34-25.554 33.06-23.342 30.57-20.935L30.57-20.935C27.51-17.971 24.14-14.711 20.42-10.974C18.91-9.457 16.46-9.452 14.94-10.961C13.42-12.471 13.42-14.924 14.93-16.441C18.9-20.436 22.41-23.841 25.53-26.866L25.53-26.866L25.53-26.867C27.98-29.245 30.19-31.388 32.19-33.397C29.1-37.046 26.05-41.234 22.83-46.573C21.73-48.406 22.32-50.787 24.15-51.892C25.98-52.997 28.36-52.407 29.47-50.574C32.27-45.93 34.89-42.271 37.55-39.056C42.75-44.933 46.23-50.477 49.18-58.977L9.66-58.977C7.52-58.977 5.78-60.711 5.78-62.852C5.78-64.992 7.52-66.727 9.66-66.727L33.66-66.727L33.66-70.922C33.66-73.062 35.39-74.797 37.53-74.797ZM55.15 5.96C57.34 5.96 58.58 4.881 59.37 2.329L62.47-6.635L80.11-6.635L83.21 2.395C83.97 4.914 85.24 5.96 87.53 5.96C89.99 5.96 91.75 4.357 91.75 2.067C91.75 1.315 91.59 0.562 91.2-0.517L77.46-37.812C76.28-40.985 74.38-42.359 71.27-42.359C68.2-42.359 66.3-40.92 65.16-37.779L51.45-0.517C51.06 0.497 50.89 1.413 50.89 2.067C50.89 4.456 52.56 5.96 55.15 5.96ZM64.47-13.309L71.11-33.461L71.34-33.461L78.05-13.309L64.47-13.309Z" />
              </g>
              <g id="Medium-S" transform="matrix(1 0 0 1 1696.09 696)">
                     <path d="M37.15-75.422C39.08-75.422 40.65-73.855 40.65-71.922L40.65-67.352L65.02-67.352C66.96-67.352 68.52-65.785 68.52-63.852C68.52-61.919 66.96-60.352 65.02-60.352L56.68-60.352C53.03-48.72 48.51-41.597 41.9-34.274C44.47-31.655 47.19-29.133 50.25-26.304L50.25-26.304L50.25-26.303L50.25-26.301C51.05-25.562 51.87-24.802 52.72-24.013L50.13-16.852C48.56-18.333 47.05-19.724 45.6-21.064L45.6-21.064L45.6-21.064L45.6-21.064L45.6-21.064L45.6-21.064C42.56-23.877 39.76-26.466 37.07-29.202C34.9-27.015 32.53-24.725 29.94-22.221C26.88-19.254 23.51-15.988 19.78-12.239C18.41-10.869 16.2-10.863 14.83-12.227C13.46-13.59 13.45-15.807 14.81-17.177C18.78-21.159 22.28-24.557 25.39-27.579C27.95-30.06 30.24-32.287 32.32-34.376C29.16-38.074 26.06-42.317 22.77-47.767C21.78-49.422 22.31-51.573 23.96-52.571C25.62-53.569 27.77-53.036 28.77-51.381C31.68-46.558 34.39-42.79 37.16-39.481C42.65-45.621 46.26-51.356 49.32-60.352L9.28-60.352C7.35-60.352 5.78-61.919 5.78-63.852C5.78-65.785 7.35-67.352 9.28-67.352L33.65-67.352L33.65-71.922C33.65-73.855 35.22-75.422 37.15-75.422ZM54.67 4.926C56.56 4.926 57.64 4.01 58.33 1.884L61.9-8.258L79.96-8.258L83.55 1.917C84.21 4.01 85.29 4.926 87.25 4.926C89.38 4.926 90.92 3.52 90.92 1.589C90.92 0.968 90.78 0.346 90.46-0.57L76.06-39.533C75.08-42.15 73.51-43.328 70.96-43.328C68.37-43.328 66.77-42.118 65.82-39.5L51.46-0.57C51.13 0.313 51 1.033 51 1.589C51 3.585 52.48 4.926 54.67 4.926ZM63.76-14.245L70.8-34.953L70.99-34.953L78.09-14.245L63.76-14.245Z" />
              </g>
              <g id="Regular-S" transform="matrix(1 0 0 1 1399.94 696)">
                     <path d="M36.65-75.695C38.31-75.695 39.65-74.352 39.65-72.695L39.65-67.625L64.52-67.625C66.18-67.625 67.52-66.282 67.52-64.625C67.52-62.968 66.18-61.625 64.52-61.625L55.82-61.625C52.11-49.681 47.53-42.519 40.72-35.035C43.39-32.281 46.23-29.656 49.42-26.703L49.42-26.703L49.42-26.703L49.42-26.703C50.27-25.92 51.14-25.114 52.04-24.276L49.81-18.138C48.29-19.569 46.84-20.915 45.43-22.212L45.43-22.212C42.26-25.146 39.36-27.831 36.57-30.689C34.31-28.406 31.84-26.011 29.12-23.377L29.12-23.376L29.12-23.376C26.05-20.405 22.67-17.129 18.92-13.365C17.75-12.191 15.85-12.186 14.68-13.355C13.5-14.524 13.5-16.423 14.67-17.597C18.61-21.562 22.11-24.95 25.22-27.968L25.22-27.969C27.92-30.588 30.33-32.928 32.5-35.124C29.26-38.886 26.08-43.2 22.7-48.798C21.85-50.217 22.3-52.061 23.72-52.916C25.14-53.772 26.99-53.315 27.84-51.896C30.89-46.834 33.73-42.926 36.65-39.494C42.52-45.982 46.32-51.959 49.52-61.625L8.78-61.625C7.12-61.625 5.78-62.968 5.78-64.625C5.78-66.282 7.12-67.625 8.78-67.625L33.65-67.625L33.65-72.695C33.65-74.352 34.99-75.695 36.65-75.695ZM54.07 4.088C55.54 4.088 56.39 3.401 56.95 1.831L61.1-9.881L79.78-9.881L83.97 1.831C84.53 3.401 85.38 4.088 86.85 4.088C88.55 4.088 89.79 3.009 89.79 1.504C89.79 1.079 89.7 0.588 89.43-0.132L74.22-41.222C73.5-43.152 72.32-44.035 70.52-44.035C68.59-44.035 67.38-43.119 66.66-41.189L51.48-0.132C51.22 0.588 51.12 1.079 51.12 1.504C51.12 3.009 52.37 4.088 54.07 4.088ZM62.8-14.886L70.36-36.413L70.56-36.413L78.11-14.886L62.8-14.886Z" />
              </g>
              <g id="Light-S" transform="matrix(1 0 0 1 1103.62 696)">
                     <path d="M36.03-76.07C37.34-76.07 38.41-75.007 38.41-73.695L38.41-68L63.9-68C65.22-68 66.28-66.937 66.28-65.625C66.28-64.313 65.22-63.25 63.9-63.25L54.74-63.25C50.97-50.914 46.32-43.714 39.24-36.024C42.05-33.096 45.03-30.343 48.38-27.236L48.38-27.235L48.38-27.235L48.38-27.235L48.38-27.235L48.39-27.233C49.29-26.397 50.22-25.535 51.19-24.637L49.43-19.778C47.97-21.145 46.58-22.434 45.23-23.677L45.23-23.679L45.23-23.679L45.23-23.679L45.23-23.679C41.89-26.767 38.86-29.57 35.96-32.585C33.59-30.18 30.98-27.655 28.09-24.854C25.02-21.878 21.62-18.591 17.86-14.806C16.93-13.876 15.43-13.873 14.5-14.798C13.57-15.723 13.57-17.227 14.49-18.157C18.42-22.1 21.9-25.476 25-28.489L25-28.489L25-28.489L25-28.489L25-28.49C27.88-31.283 30.44-33.764 32.73-36.096C29.38-39.938 26.1-44.338 22.62-50.121C21.94-51.244 22.3-52.704 23.43-53.381C24.55-54.058 26.01-53.697 26.69-52.573C29.92-47.214 32.92-43.134 36.02-39.549C42.36-46.469 46.38-52.733 49.76-63.25L8.16-63.25C6.85-63.25 5.78-64.313 5.78-65.625C5.78-66.937 6.85-68 8.16-68L33.66-68L33.66-73.695C33.66-75.007 34.72-76.07 36.03-76.07ZM52.93 3.088C54.04 3.088 54.69 2.598 55.12 1.354L59.96-11.83L79.69-11.83L84.53 1.354C84.99 2.565 85.61 3.088 86.75 3.088C88.06 3.088 89.01 2.271 89.01 1.125C89.01 0.766 88.91 0.373 88.72-0.183L72.65-42.909C72.1-44.381 71.25-45.035 69.87-45.035C68.43-45.035 67.55-44.348 66.99-42.909L50.96-0.183C50.73 0.406 50.67 0.798 50.67 1.125C50.67 2.271 51.62 3.088 52.93 3.088ZM61.27-15.69L69.74-39.048L69.94-39.048L78.38-15.69L61.27-15.69Z" />
              </g>
              <g id="Thin-S" transform="matrix(1 0 0 1 807.477 696)">
                     <path d="M35.152-73.195C35.981-73.195 36.652-72.524 36.652-71.695L36.652-65.125L63.026-65.125C63.854-65.125 64.526-64.453 64.526-63.625C64.526-62.797 63.854-62.125 63.026-62.125L53.204-62.125C53.197-62.097 53.19-62.069 53.181-62.04C49.335-49.201 44.602-41.987 37.158-34.017C40.166-30.834 43.334-27.903 46.925-24.58C47.91-23.668 48.928-22.726 49.982-21.742L48.871-18.673C47.506-19.954 46.197-21.164 44.934-22.333L44.933-22.333L44.932-22.334C41.358-25.64 38.152-28.605 35.084-31.845C32.576-29.27 29.782-26.563 26.644-23.523L26.644-23.523L26.643-23.523C23.564-20.54 20.154-17.237 16.359-13.423C15.775-12.836 14.825-12.834 14.238-13.418C13.651-14.002 13.648-14.952 14.233-15.539C18.127-19.453 21.592-22.813 24.692-25.819L24.692-25.819L24.692-25.819L24.692-25.82C27.827-28.86 30.589-31.538 33.047-34.063C29.53-38.017 26.131-42.53 22.488-48.573C22.06-49.282 22.289-50.204 22.998-50.632C23.708-51.059 24.63-50.831 25.057-50.122C28.539-44.346 31.766-40.035 35.124-36.24C42.131-43.759 46.46-50.396 50.072-62.125L7.28-62.125C6.452-62.125 5.78-62.797 5.78-63.625C5.78-64.453 6.452-65.125 7.28-65.125L33.652-65.125L33.652-71.695C33.652-72.524 34.324-73.195 35.152-73.195ZM51.327 5.119C52.014 5.119 52.374 4.824 52.668 4.039L58.361-11.108L79.527-11.108L85.252 4.039C85.514 4.792 85.907 5.119 86.561 5.119C87.346 5.119 87.87 4.628 87.87 3.908C87.87 3.712 87.804 3.417 87.706 3.09L70.531-41.86C70.204-42.71 69.746-43.07 68.96-43.07C68.175-43.07 67.685-42.678 67.357-41.827L50.215 3.09C50.084 3.483 50.019 3.712 50.019 3.941C50.019 4.628 50.542 5.119 51.327 5.119ZM59.211-13.431L68.862-39.21L69.026-39.21L78.709-13.431L59.211-13.431Z" />
              </g>
              <g id="Ultralight-S" transform="matrix(1 0 0 1 511.066 696)">
                     <path d="M34.652-72.695C35.205-72.695 35.652-72.248 35.652-71.695L35.652-64.625L62.526-64.625C63.078-64.625 63.526-64.177 63.526-63.625C63.526-63.073 63.078-62.625 62.526-62.625L52.233-62.625C52.255-62.482 52.247-62.332 52.202-62.184C48.328-49.251 43.571-42.089 35.972-34.017C39.091-30.684 42.369-27.651 46.093-24.206L46.093-24.205L46.094-24.204C47.436-22.962 48.837-21.667 50.308-20.284L49.567-18.235C47.885-19.822 46.29-21.297 44.764-22.708L44.764-22.709L44.764-22.709C41.055-26.14 37.75-29.197 34.589-32.569C32.002-29.897 29.101-27.086 25.818-23.906L25.818-23.906L25.818-23.905C22.735-20.919 19.316-17.606 15.505-13.776C15.115-13.384 14.482-13.383 14.091-13.772C13.699-14.162 13.698-14.795 14.087-15.187C17.965-19.083 21.42-22.433 24.516-25.435L24.517-25.436L24.517-25.436L24.517-25.436C27.799-28.619 30.679-31.411 33.231-34.048C29.619-38.066 26.149-42.639 22.416-48.831C22.131-49.304 22.283-49.918 22.756-50.204C23.229-50.489 23.844-50.336 24.129-49.863C27.754-43.85 31.109-39.412 34.615-35.499C42.003-43.356 46.505-50.193 50.247-62.625L6.78-62.625C6.228-62.625 5.78-63.073 5.78-63.625C5.78-64.177 6.228-64.625 6.78-64.625L33.652-64.625L33.652-71.695C33.652-72.248 34.1-72.695 34.652-72.695ZM50.467 5.119C50.893 5.119 51.154 4.955 51.351 4.399L57.501-11.762L79.387-11.762L85.538 4.399C85.734 4.922 85.963 5.119 86.421 5.119C86.944 5.119 87.271 4.792 87.271 4.333C87.271 4.17 87.206 3.974 87.108 3.745L69.376-42.318C69.18-42.841 68.918-43.07 68.46-43.07C67.97-43.07 67.708-42.841 67.512-42.318L49.78 3.745C49.649 4.006 49.617 4.203 49.617 4.366C49.617 4.792 49.944 5.119 50.467 5.119ZM58.09-13.267L68.362-40.322L68.526-40.322L78.798-13.267L58.09-13.267Z" />
              </g>
       </g>
</svg>