<svg xmlns="http://www.w3.org/2000/svg" width="12" height="12" viewBox="0 0 12 12"><path d="M 8.5 6 C 8.5 5.02 7.93 4.17 7.11 3.76 L 7.11 4.99 L 8.47 6.35 C 8.49 6.24 8.5 6.12 8.5 6 Z M 9.89 6 C 9.89 6.52 9.78 7.01 9.59 7.47 L 10.43 8.31 C 10.79 7.62 11 6.83 11 6 C 11 3.62 9.34 1.63 7.11 1.13 L 7.11 2.27 C 8.72 2.75 9.89 4.24 9.89 6 Z M 1.71 1 L 1 1.71 L 3.63 4.33 L 1 4.33 L 1 7.67 L 3.22 7.67 L 6 10.44 L 6 6.71 L 8.36 9.07 C 7.99 9.36 7.57 9.58 7.11 9.72 L 7.11 10.87 C 7.88 10.69 8.57 10.34 9.16 9.86 L 10.29 11 L 11 10.29 L 6 5.29 L 1.71 1 Z M 6 1.56 L 4.84 2.72 L 6 3.88 L 6 1.56 Z" /></svg>
