<svg xmlns="http://www.w3.org/2000/svg" width="20" height="20" viewBox="0 0 20 20"><path d="M 17.4 5.57 A 2.12 2.12 0 0 0 15.94 5 H 4.06 c -0.55 0 -1.07 0.2 -1.46 0.56 c -0.39 0.37 -0.6 0.85 -0.6 1.36 v 6.14 c 0 0.52 0.21 1 0.6 1.36 c 0.39 0.37 0.91 0.56 1.46 0.56 h 2.85 c 0.37 0 0.74 -0.09 1.06 -0.28 c 0.32 -0.18 0.58 -0.43 0.76 -0.74 l 0.81 -1.4 a 0.48 0.48 0 0 1 0.13 -0.62 a 0.56 0.56 0 0 1 0.67 0 c 0.2 0.15 0.25 0.41 0.13 0.62 l 0.81 1.4 c 0.18 0.3 0.44 0.56 0.76 0.74 c 0.32 0.18 0.68 0.28 1.06 0.28 h 2.85 c 0.55 0 1.07 -0.2 1.46 -0.56 c 0.39 -0.36 0.6 -0.85 0.6 -1.36 V 6.93 c 0 -0.51 -0.21 -1 -0.6 -1.36 Z M 6.5 11.5 c -1.11 0 -2 -0.9 -2 -2 c 0 -1.1 0.9 -2 2 -2 c 1.1 0 2 0.9 2 2 c 0 1.1 -0.89 2 -2 2 Z m 7 0 c -1.11 0 -2 -0.9 -2 -2 c 0 -1.1 0.9 -2 2 -2 c 1.1 0 2 0.9 2 2 c 0 1.1 -0.89 2 -2 2 Z" /></svg>
