<svg xmlns="http://www.w3.org/2000/svg" width="20" height="20" viewBox="0 0 20 20"><path d="M17.4 5.57A2.12 2.12 0 0 0 15.94 5H4.06c-.55 0-1.07.2-1.46.56-.39.37-.6.85-.6 1.36v6.14c0 .52.21 1 .6 1.36.39.37.91.56 1.46.56h2.85c.37 0 .74-.09 1.06-.28.32-.18.58-.43.76-.74l.81-1.4a.48.48 0 0 1 .13-.62.56.56 0 0 1 .67 0c.2.15.25.41.13.62l.81 1.4c.18.3.44.56.76.74.32.18.68.28 1.06.28h2.85c.55 0 1.07-.2 1.46-.56.39-.36.6-.85.6-1.36V6.93c0-.51-.21-1-.6-1.36zM6.5 11.5a2 2 0 1 1-.001-3.999A2 2 0 0 1 6.5 11.5zm7 0a2 2 0 1 1-.001-3.999A2 2 0 0 1 13.5 11.5z"/></svg>