/* XPM */
static char * linux_icon_chromium_32_xpm[] = {
"32 32 91 1",
" 	c None",
".	c #1A68D2",
"+	c #1967D3",
"@	c #1A66D2",
"#	c #1967D2",
"$	c #1A67D2",
"%	c #1967D1",
"&	c #1A66D3",
"*	c #1A68D3",
"=	c #1866D1",
"-	c #3B7FE2",
";	c #538DDD",
">	c #9ABDEB",
",	c #E2ECFA",
"'	c #FFFFFF",
")	c #F0F5FE",
"!	c #E1EBFD",
"~	c #B8D1FA",
"{	c #AECBFA",
"]	c #669CF4",
"^	c #619AF4",
"/	c #1E6AD4",
"(	c #2771D4",
"_	c #9ABCEC",
":	c #D4E5FB",
"<	c #A9CAF6",
"[	c #B8D3F8",
"}	c #DCE8FD",
"|	c #B3CEFA",
"1	c #ADCAFA",
"2	c #669DF6",
"3	c #4485E6",
"4	c #D3E3F6",
"5	c #C6DCF9",
"6	c #458DEC",
"7	c #1A73E8",
"8	c #3784EB",
"9	c #2771D9",
"0	c #8CB9F4",
"a	c #538FED",
"b	c #367AD7",
"c	c #C2D8FB",
"d	c #679EF6",
"e	c #2C74DB",
"f	c #A9C6EE",
"g	c #3684EB",
"h	c #5396EE",
"i	c #DBE8FD",
"j	c #659DF5",
"k	c #5C96F1",
"l	c #D3E3F7",
"m	c #E3EEFC",
"n	c #F5F8FE",
"o	c #4082E4",
"p	c #A9CBF6",
"q	c #B8D3F7",
"r	c #4988E9",
"s	c #E3ECF9",
"t	c #D3E5FB",
"u	c #669EF5",
"v	c #ADCAF4",
"w	c #ADCBFA",
"x	c #669CF5",
"y	c #8CB5F8",
"z	c #B8D1FB",
"A	c #AFCCFA",
"B	c #BCD4FB",
"C	c #8DB9F3",
"D	c #D7E5FD",
"E	c #70A3F7",
"F	c #E3ECFE",
"G	c #5396ED",
"H	c #E7EFFE",
"I	c #AFCBFA",
"J	c #659CF4",
"K	c #94BAF8",
"L	c #79A9F7",
"M	c #C5DAFB",
"N	c #E2EDFE",
"O	c #EBF3FE",
"P	c #6FA2F6",
"Q	c #93B9F8",
"R	c #ADCBF9",
"S	c #78A8F7",
"T	c #A5C5F9",
"U	c #81AEF7",
"V	c #669BF5",
"W	c #8EB7F8",
"X	c #ADCCFA",
"Y	c #679CF6",
"Z	c #AECBF9",
"            .+@##@+$            ",
"         %@###########$         ",
"       #################&       ",
"      ####################      ",
"     ######################     ",
"    ########################    ",
"   ##########################   ",
"  *##########################=  ",
"  -#########;>,'')!~{{{{{{{{{{  ",
" ]^/######(_'':<[:''}|{{{{{{{{1 ",
" 223#####(4'5677778<')|{{{{{{{{ ",
" 2229####_'0777777770'}{{{{{{{{ ",
"]222a###b'<77777777775'c{{{{{{{1",
"d2222e##f'g7777777777h'i{{{{{{{{",
"j2222k/#l:777777777777mn{{{{{{{{",
"222222o#'[777777777777p'{{{{{{{{",
"222222^/'<777777777777q'{{{{{{{{",
"j222222rs:777777777777t){{{{{{{{",
"u2222222v'677777777778'!{{{{{{{w",
"x2222222y'57777777777<'z{{{{{{{A",
" 22222222B'C77777777C'D{{{{{{{{ ",
" j2222222EF'<g7777G5'HI{{{{{{{{ ",
" J22222222EB'':[<m''BK{{{{{{{{A ",
"  2222222222LMN''OByP{{{{{{{{{  ",
"  J22222222222222222Q{{{{{{{{R  ",
"   2222222222222222S{{{{{{{{{   ",
"    222222222222222T{{{{{{{{    ",
"     2222222222222U{{{{{{{{     ",
"      22222222222PT{{{{{{{      ",
"       V222222222W{{{{{{X       ",
"         x222222P{{{{{1         ",
"            xYj2QZ{1            "};
