<svg width="320" height="320" fill="none" xmlns="http://www.w3.org/2000/svg">
<g clip-path="url(#clip0)">
<path d="M75.6721 50.2773H219.113C222.667 50.2773 225.792 53.1708 226.098 56.6799L234.615 159.244H78.3681L69.7899 56.7414C69.4835 53.1708 72.1182 50.2773 75.6721 50.2773Z" stroke="#1A73E8" stroke-width="4" stroke-miterlimit="10" stroke-linecap="round" stroke-linejoin="round"/>
<path d="M275.004 165.512H80.093C78.6837 165.512 77.5195 164.372 77.5195 162.993V160.113C77.5195 159.393 78.071 158.854 78.8063 158.854H276.291C277.026 158.854 277.577 159.393 277.577 160.113V162.933C277.577 164.372 276.413 165.512 275.004 165.512Z" fill="#1A73E8"/>
<path fill-rule="evenodd" clip-rule="evenodd" d="M131 166V157H135V166H131ZM85.0625 161.534C85.0625 160.705 85.7341 160.034 86.5625 160.034H92.8124C93.6408 160.034 94.3124 160.705 94.3124 161.534C94.3124 162.362 93.6408 163.034 92.8124 163.034H86.5625C85.7341 163.034 85.0625 162.362 85.0625 161.534ZM99.1562 160.034C98.3278 160.034 97.6562 160.705 97.6562 161.534C97.6562 162.362 98.3278 163.034 99.1562 163.034H99.9528C100.781 163.034 101.453 162.362 101.453 161.534C101.453 160.705 100.781 160.034 99.9528 160.034H99.1562Z" fill="white"/>
<path d="M80.1987 57.9493L216.716 57.8877C218.003 57.8877 219.167 58.9343 219.289 60.2271L227.745 152.756L86.6325 152.818L78.1154 60.2886C77.9929 58.9958 78.912 57.9493 80.1987 57.9493Z" fill="#D2E3FC"/>
</g>
<line x1="22.3516" y1="226.768" x2="303.003" y2="226.768" stroke="#4285F4" stroke-width="4" stroke-linecap="round" stroke-linejoin="bevel"/>
<path fill-rule="evenodd" clip-rule="evenodd" d="M168.631 188.441C168.631 187.337 167.736 186.441 166.631 186.441C165.527 186.441 164.631 187.337 164.631 188.441V206.135L159.26 201.373C158.434 200.64 157.17 200.716 156.437 201.543C155.704 202.369 155.78 203.633 156.607 204.366L165.304 212.077C165.675 212.406 166.145 212.579 166.622 212.581C167.153 212.584 167.684 212.376 168.08 211.962L176.382 203.264C177.145 202.465 177.115 201.199 176.316 200.437C175.517 199.674 174.251 199.703 173.488 200.502L168.631 205.591V188.441Z" fill="#FBBC04"/>
<path d="M85.2406 199.482C85.4551 199.702 85.6154 199.97 85.7091 200.264C85.8027 200.558 85.8271 200.871 85.7802 201.177C85.7334 201.484 85.6165 201.775 85.439 202.03C85.2615 202.284 85.028 202.493 84.7571 202.642C83.044 203.564 81.0851 203.907 79.1726 203.618C77.2601 203.329 75.4964 202.425 74.1446 201.04C72.7927 199.655 71.9251 197.864 71.6712 195.933C71.4173 194.002 71.7906 192.035 72.7355 190.326C72.8875 190.055 73.0997 189.823 73.3552 189.649C73.6107 189.474 73.9026 189.361 74.2078 189.319C74.513 189.277 74.8231 189.307 75.1137 189.406C75.4043 189.506 75.6675 189.672 75.8824 189.892L85.2406 199.482Z" fill="#EA4335"/>
<path d="M21.3112 161.097L13.2594 177.262C13.1098 177.564 13.0423 177.902 13.0636 178.242C13.085 178.582 13.1944 178.912 13.381 179.2C13.5676 179.488 13.8247 179.722 14.1267 179.88C14.4286 180.039 14.7647 180.115 15.1012 180.101L33.144 179.336C33.4812 179.323 33.8072 179.221 34.0889 179.039C34.3706 178.857 34.5981 178.602 34.7482 178.3C34.8984 177.998 34.9658 177.659 34.9438 177.318C34.9218 176.977 34.811 176.647 34.6228 176.36L24.6319 160.96C24.4463 160.671 24.1894 160.435 23.8872 160.276C23.585 160.117 23.2483 160.041 22.9112 160.055C22.5741 160.069 22.2485 160.172 21.9675 160.356C21.6865 160.539 21.4601 160.795 21.3112 161.097Z" fill="#5EF1F2"/>
<path fill-rule="evenodd" clip-rule="evenodd" d="M41.6682 170.807L55.942 177.429C60.4466 179.519 62.4041 184.865 60.3141 189.37C58.224 193.875 52.878 195.832 48.3733 193.742L34.0995 187.12C29.5948 185.03 27.6373 179.684 29.7274 175.179C31.8174 170.674 37.1635 168.717 41.6682 170.807ZM40.4067 173.526C37.4036 172.132 33.8396 173.437 32.4462 176.44C31.0528 179.443 32.3578 183.008 35.3609 184.401L49.6347 191.023C52.6378 192.417 56.2019 191.112 57.5952 188.109C58.9886 185.106 57.6836 181.542 54.6805 180.148L40.4067 173.526Z" fill="#34A853"/>
<path fill-rule="evenodd" clip-rule="evenodd" d="M31.9355 172.219C31.0287 173.018 30.2691 174.013 29.7278 175.18C29.0758 176.585 28.8177 178.072 28.9079 179.517L31.9039 179.39C31.8332 178.409 32.0033 177.397 32.4466 176.441C32.7409 175.807 33.132 175.249 33.5942 174.775L31.9355 172.219Z" fill="#E8EAED"/>
<defs>
<clipPath id="clip0">
<rect width="222.186" height="126.512" fill="white" transform="translate(66.2109 39)"/>
</clipPath>
</defs>
</svg>