<?xml version="1.0" encoding="UTF-8"?>
<svg width="320px" height="320px" viewBox="0 0 320 320" version="1.1" xmlns="http://www.w3.org/2000/svg" xmlns:xlink="http://www.w3.org/1999/xlink" jetway-hooks="{}">
    <title>Error </title>
    <g jetway-hook-id="6CABDB8E-5876-4B1E-BAC3-15A7DD38CBF2" id="Error-" stroke="none" stroke-width="1" fill="none" fill-rule="evenodd">
        <path d="M12.4341204,237.962019 L308.43412,237.962019 C313.404683,237.962019 317.43412,241.991457 317.43412,246.962019 L317.43412,251.962019 C317.43412,254.171158 315.643259,255.962019 313.43412,255.962019 L7.43412044,255.962019 C5.22498144,255.962019 3.43412044,254.171158 3.43412044,251.962019 L3.43412044,246.962019 C3.43412044,241.991457 7.4635577,237.962019 12.4341204,237.962019 Z" jetway-hook-id="64836986-3925-4161-8183-11EEBF7EC462" id="Rectangle" fill="#D2E3FC" transform="translate(160.434120, 246.962019) rotate(-10.000000) translate(-160.434120, -246.962019) "></path>
        <path d="M169.270796,255.872944 L185.386924,286.570332 C185.900366,287.548316 185.52378,288.757354 184.545796,289.270796 C184.259037,289.421345 183.940005,289.5 183.616129,289.5 L151.383871,289.5 C150.279302,289.5 149.383871,288.604569 149.383871,287.5 C149.383871,287.176123 149.462527,286.857092 149.613076,286.570332 L165.729204,255.872944 C166.242646,254.894961 167.451684,254.518375 168.429668,255.031816 C168.788864,255.220394 169.082218,255.513749 169.270796,255.872944 Z" jetway-hook-id="93173743-9344-4DB2-AE25-5BBF3CC31A90" id="Rectangle" fill="#E6E7EA"></path>
        <circle jetway-hook-id="400B0709-16A8-4819-8C72-B9F05940D2A6" id="Oval" fill="#EA4335" cx="241.080614" cy="194.5" r="28.5"></circle>
        <path d="M139.507779,235.592376 C135.407382,220.157833 119.247397,211.069853 104.411459,216.007989 C100.778791,217.216712 97.5747427,219.123902 94.8836113,221.532797 C93.29797,222.952674 91.8942977,224.544665 90.693137,226.272682 L86.1962649,231.360603 C82.2168675,235.862534 76.6168566,238.588787 70.6247524,238.941409 C67.3051152,239.136652 63.8963858,239.104248 60.5934234,239.664258 C49.0409656,241.620707 41.4228722,253.172099 45.2304867,264.614526" jetway-hook-id="02B6EC43-CE6B-467E-86D1-3596962543CA" id="Fill-1" fill="#8AB4F8" transform="translate(91.874374, 239.636675) rotate(7.000000) translate(-91.874374, -239.636675) "></path>
        <path d="M269.605871,40.7756007 L290.931601,65.0695361 C295.957515,70.812202 295.403729,79.5646185 289.695215,84.6207336 C283.985601,89.6757413 275.283558,89.1198566 270.256543,83.3771906 L248.930813,59.0832553 C243.904899,53.3405893 244.457584,44.5870655 250.167199,39.5320577 C255.876814,34.4759427 264.578856,35.0329348 269.605871,40.7756007 Z" jetway-hook-id="77AD08F9-31BE-4237-886A-6DB3EED8ABAD" id="Fill-7" fill="#FBBC05" transform="translate(269.931019, 62.076172) rotate(252.000000) translate(-269.931019, -62.076172) "></path>
        <path d="M224.012136,138.549378 L197.922956,108.535994 C196.718631,107.149899 194.474269,107.595088 193.88229,109.337607 L181.084132,147.069421 C180.493511,148.810574 181.999256,150.543533 183.794202,150.187109 L222.682898,142.470045 C224.477844,142.113621 225.216461,139.935472 224.012136,138.549378 Z" jetway-hook-id="7145EB3F-545D-4B12-8838-F041EB36E950" id="Stroke-3" stroke="#F882FF" stroke-width="5" stroke-linecap="round" stroke-linejoin="round" transform="translate(202.777716, 128.975798) rotate(-48.000000) translate(-202.777716, -128.975798) "></path>
        <path d="M202.052401,118.419705 L182.065522,144.007289 C180.862534,145.547082 178.645325,145.814172 177.114394,144.60422 L151.675676,124.501643 C150.143146,123.291691 149.877593,121.063256 151.080581,119.521855 L171.06746,93.9358789 C172.270448,92.3944775 174.487657,92.1273871 176.018587,93.3373389 L201.457306,113.439916 C202.989836,114.649868 203.255389,116.879912 202.052401,118.419705" jetway-hook-id="AB7A8023-200B-4C56-BAC4-242B7B4BB6FA" id="Fill-13" fill="#E6E7EA" transform="translate(176.566491, 118.970840) rotate(-48.000000) translate(-176.566491, -118.970840) "></path>
        <path d="M182.533034,116.738172 C183.864782,112.806516 188.934785,111.797771 191.651176,114.933397 L191.651176,114.933397 L200.176194,124.769589 L196.445194,129.518589 L187.826287,119.573526 L182.668194,134.826589 L177.728194,130.944589 Z" jetway-hook-id="7C6D0661-73EE-45A9-9975-1A81E09F38F4" id="Combined-Shape" fill="#FFFFFF" transform="translate(189.100677, 124.417444) rotate(-48.000000) translate(-189.100677, -124.417444) "></path>
        <path d="M58.5329099,172.408576 C58.5329099,169.081641 59.1404632,166.303649 60.35557,164.074603 C61.5706767,161.845556 63.8202662,159.233912 67.1043384,156.23967 C69.6659148,153.844276 71.5214156,151.798211 72.6708409,150.101474 C73.8202662,148.404737 74.3949788,146.358672 74.3949788,143.963278 C74.3949788,140.76942 73.3769164,138.191045 71.3407916,136.228154 C69.3046669,134.265262 66.4803647,133.283816 62.8678852,133.283816 C59.583813,133.283816 56.9893959,134.231992 55.084634,136.128346 C53.1798721,138.024699 51.7348803,140.370188 50.7496586,143.164814 L42.9664074,139.871148 C44.2800363,136.011903 46.6117276,132.601794 49.9614813,129.640822 C53.311235,126.679849 57.6133696,125.199363 62.8678852,125.199363 C66.8087719,125.199363 70.3063089,126.014462 73.3604961,127.64466 C76.4146833,129.274859 78.7792153,131.52054 80.4540921,134.381704 C82.128969,137.242869 82.9664074,140.436727 82.9664074,143.963278 C82.9664074,146.491749 82.4409558,148.837239 81.3900527,150.999747 C80.3391496,153.162255 79.2061447,154.92553 77.991038,156.289574 C76.7759312,157.653617 75.2159969,159.233912 73.311235,161.030457 C71.1437473,163.026618 69.5509723,164.922971 68.5329099,166.719516 C67.5148475,168.516061 67.0058163,170.612031 67.0058163,173.007424 L67.0058163,177.199363 L58.5329099,177.199363 L58.5329099,172.408576 Z M62.2418958,199.196912 C60.4676175,199.196912 58.9492448,198.565679 57.6867776,197.303212 C56.4243105,196.040744 55.7930769,194.488251 55.7930769,192.645731 C55.7930769,190.871453 56.4243105,189.35308 57.6867776,188.090613 C58.9492448,186.828146 60.4676175,186.196912 62.2418958,186.196912 C64.0844154,186.196912 65.6369089,186.828146 66.8993761,188.090613 C68.1618433,189.35308 68.7930769,190.871453 68.7930769,192.645731 C68.7930769,194.488251 68.1618433,196.040744 66.8993761,197.303212 C65.6369089,198.565679 64.0844154,199.196912 62.2418958,199.196912 Z" jetway-hook-id="80A5C16E-1229-4191-A1D8-11B07A2703B6" id="Shape" fill="#4285F4" fill-rule="nonzero" transform="translate(62.823278, 162.481340) rotate(21.000000) translate(-62.823278, -162.481340) "></path>
        <path d="M56,250 C75.882251,250 92,233.882251 92,214 C92,194.117749 75.882251,178 56,178 C36.117749,178 20,194.117749 20,214 C20,233.882251 36.117749,250 56,250 Z" jetway-hook-id="2084CB87-23D2-4490-AF3F-223F5E838587" id="Oval" stroke="#E6E7EA" stroke-width="5" stroke-linecap="round" stroke-linejoin="round" stroke-dasharray="9,8"></path>
    </g>
</svg>