<svg width="320px" height="320px" version="1.1" xmlns="http://www.w3.org/2000/svg" xmlns:xlink="http://www.w3.org/1999/xlink" jetway-hooks="{}">
<g jetway-hook-id="D459EF5B-E5B7-43C7-B957-9C8E566D8D56" id="Insert-Firmware" stroke="none" stroke-width="1" fill="none" fill-rule="evenodd">
<path d="M151,91 L427,91 L427,268 C427,270.209139 425.209139,272 423,272 L155,272 C152.790861,272 151,270.209139 151,268 L151,91 L151,91 Z" jetway-hook-id="071562A0-07F9-40F1-A048-7BF12C874C2F" id="Rectangle" stroke="#D2E3FC" stroke-width="4"></path>
<path d="M374.610656,207 L179.389611,207 C175.308546,207 171.999733,203.685184 171.999733,199.596053 L171.999733,118.404483 C171.999733,114.315352 175.308546,111 179.389611,111 L374.610656,111 C378.691722,111 382,114.315352 382,118.404483 L382,199.596053 C382,203.685184 378.691722,207 374.610656,207" jetway-hook-id="8A16E879-FBEA-4102-8AA7-43F297D1D7A2" id="Fill-1" fill="#D2E3FC"></path>
<rect jetway-hook-id="9F7CADD4-FFFF-49B7-8B0B-A64ED4076607" id="Rectangle" fill="#D2E3FC" x="250" y="218" width="77" height="40" rx="4"></rect>
<path d="M149.501977,102.228902 C152.032357,104.752623 154.373332,107.466156 156.501733,110.346329 L156.501733,194.653671 C154.373332,197.533844 152.032357,200.247377 149.501977,202.771098 Z" jetway-hook-id="D79CE8F2-7B6C-4523-8BB3-B80D0E075F72" id="Combined-Shape" fill="#8AB4F8"></path>
<circle jetway-hook-id="577AD4AC-41CA-4F86-9EBD-2018B52B3182" id="Oval" stroke="#4285F4" stroke-width="3" cx="100.5" cy="152.5" r="71"></circle>
<path d="M143,78.5 L397,78.5 C400.313708,78.5 403,81.1862915 403,84.5 C403,87.8137085 400.313708,90.5 397,90.5 L143,90.5 C140.790861,90.5 139,88.709139 139,86.5 L139,82.5 C139,80.290861 140.790861,78.5 143,78.5 Z" jetway-hook-id="D42845D2-F973-4F2C-A51C-C959E738D180" id="Rectangle" stroke="#D2E3FC" stroke-width="4"></path>
<path d="M119,140 L137,140 C138.104569,140 139,140.895431 139,142 L139,164 C139,165.104569 138.104569,166 137,166 L119,166 L119,166 L119,140 Z" jetway-hook-id="E706D6D1-A13A-4389-BEE8-1F8D7DC47D24" id="Rectangle" fill="#4285F4"></path>
<path d="M65,136 L117,136 C118.104569,136 119,136.895431 119,138 L119,167 C119,168.104569 118.104569,169 117,169 L65,169 C58.372583,169 53,163.627417 53,157 L53,148 C53,141.372583 58.372583,136 65,136 Z" jetway-hook-id="6C411BCB-C802-469D-86CF-AB14446EED89" id="Rectangle" fill="#D2E3FC"></path>
<rect jetway-hook-id="CA1BCC96-AB34-4805-A30F-64A17AFEE47E" id="Rectangle" fill="#FFFFFF" x="124" y="144" width="4" height="6"></rect>
<rect jetway-hook-id="B7F06CB9-23A6-4D55-96C4-27BCAF90A35B" id="Rectangle-Copy" fill="#FFFFFF" x="124" y="156" width="4" height="6"></rect>
</g>
</svg>