<?xml version="1.0" encoding="UTF-8"?>
<svg width="320px" height="320px" version="1.1" xmlns="http://www.w3.org/2000/svg" xmlns:xlink="http://www.w3.org/1999/xlink" jetway-hooks="{}">
    <g jetway-hook-id="F8B77ACC-9508-4B93-86DB-B07DE0C3BF55" id="Calibrating---Clamshell" stroke="none" stroke-width="1" fill="none" fill-rule="evenodd">
        <rect jetway-hook-id="A59D5F1C-9873-4097-8DCC-5014DC13CE80" id="Rectangle" fill="#D2E3FC" x="9" y="68.5" width="300" height="218" rx="4"></rect>
        <rect jetway-hook-id="17BCB16F-D94D-435E-A705-F85970B9BD35" id="Rectangle" stroke="#4285F4" stroke-width="3" fill="#FFFFFF" transform="translate(209.000000, 183.500000) rotate(-94.000000) translate(-209.000000, -183.500000) " x="133" y="128.5" width="152" height="110" rx="4"></rect>
        <rect jetway-hook-id="7FD34411-2DA7-476B-AC19-443D7AF4DFA7" id="Rectangle-Copy" stroke="#4285F4" stroke-width="3" fill="#FFFFFF" transform="translate(97.000000, 191.500000) rotate(-94.000000) translate(-97.000000, -191.500000) " x="21" y="136.5" width="152" height="110" rx="4"></rect>
        <path d="M131.5,161.5 L257.5,161.5 C258.604569,161.5 259.5,162.395431 259.5,163.5 L259.5,206.5 C259.5,207.604569 258.604569,208.5 257.5,208.5 L131.5,208.5 C130.395431,208.5 129.5,207.604569 129.5,206.5 L129.5,163.5 C129.5,162.395431 130.395431,161.5 131.5,161.5 Z" jetway-hook-id="8C95A251-1ACB-4585-ADC4-2384D9EA4F92" id="Clip-2" fill="#D2E3FC" transform="translate(194.500000, 185.000000) rotate(-94.000000) translate(-194.500000, -185.000000) "></path>
        <rect jetway-hook-id="77F0B9CB-F125-46FE-9A09-53869F07BC6E" id="Rectangle-Copy" fill="#D2E3FC" transform="translate(96.000000, 191.500000) rotate(-94.000000) translate(-96.000000, -191.500000) " x="28" y="144.5" width="136" height="94" rx="4"></rect>
        <rect jetway-hook-id="12BC5120-5458-4A7C-9052-34CDDE2FCC73" id="Rectangle" fill="#D2E3FC" transform="translate(242.003654, 181.104635) rotate(-94.000000) translate(-242.003654, -181.104635) " x="218.503654" y="167.104635" width="47" height="28" rx="2"></rect>
        <rect jetway-hook-id="4C190833-456A-4A0F-9088-34BEAA806622" id="Rectangle-Copy-2" fill="#4285F4" transform="translate(156.651218, 184.512180) rotate(-94.000000) translate(-156.651218, -184.512180) " x="122.651218" y="181.51218" width="68" height="6" rx="2"></rect>
        <path d="M302.354382,293.067381 C288.470833,297.142369 279.404431,298.398607 275.155176,296.836095 C253.73219,288.958552 243.970483,277.908834 239.032666,276.057153 C229.371169,272.434091 234.201917,266.395656 241.44804,266.395656 C246.278789,266.395656 253.524912,268.408467 263.186409,272.434091 C255.940286,261.967469 250.304413,255.526471 246.278789,253.111097 C240.240353,249.488035 231.786543,244.657287 228.163482,242.241912 C224.54042,239.826538 225.748107,233.788102 231.786543,233.788102 C233.747745,233.788102 239.81154,228.518828 244.522537,228.063706 C254.31645,227.117531 265.22979,231.000309 270.12247,234.262096 C273.656223,236.617932 283.037553,244.933608 296.356034,257.206262 C299.282732,259.903142 306.489494,261.588477 317.976321,262.262267 L302.354382,293.067381 Z" jetway-hook-id="51D78C70-233A-4F09-8009-81BD3255371A" id="Path-6" fill="#FFFFFF" transform="translate(272.050916, 262.702381) rotate(41.000000) translate(-272.050916, -262.702381) "></path>
        <path d="M301.05957,286.643816 C288.760801,292.490599 277.665054,292.838717 267.772329,287.688171 C252.93324,279.962351 248.810119,273.3553 239.148622,269.732239 C229.487125,266.109177 234.317874,260.070741 241.563996,260.070741 C246.394745,260.070741 253.640868,262.083553 263.302365,266.109177 C258.752266,258.818376 253.116393,252.377378 246.394745,246.786182 C236.312274,238.39939 231.902499,238.332372 228.279438,235.916998 C224.656376,233.501624 225.864063,227.463188 231.902499,227.463188 C237.940935,227.463188 248.810119,233.501624 256.056242,238.332372 C260.886991,241.552871 265.315177,245.578495 269.340801,250.409244" jetway-hook-id="FBC5C51E-8F93-42F4-9835-2D714E36651D" id="Path-6" stroke="#4285F4" stroke-width="3" stroke-linecap="round" stroke-linejoin="round" transform="translate(263.650518, 259.384855) rotate(41.000000) translate(-263.650518, -259.384855) "></path>
        <path d="M250.949372,226.008577 C256.027883,221.33573 262.124833,220.842759 269.240221,224.529664 C276.35561,228.216568 284.43299,234.528981 293.472361,243.466903" jetway-hook-id="49FF6ABA-5218-4777-BAF2-5C4A8BA745BC" id="Path-7-Copy" stroke="#4285F4" stroke-width="3" stroke-linecap="round" stroke-linejoin="round" transform="translate(272.210867, 232.778755) rotate(39.000000) translate(-272.210867, -232.778755) "></path>
        <path d="M260.490048,226.789977 C265.027174,223.995561 270.281718,224.145566 276.253678,227.239993 C283.369067,230.926897 290.959238,237.360002 299.024192,246.539306" jetway-hook-id="F4B0DCCE-62BE-4170-AD87-7A727408414F" id="Path-7-Copy-3" stroke="#4285F4" stroke-width="3" stroke-linecap="round" stroke-linejoin="round" transform="translate(279.757120, 235.670122) rotate(39.000000) translate(-279.757120, -235.670122) "></path>
        <path d="M267.953794,245.267214 C279.262298,243.879783 293.551841,265.618015 298.844347,269.980633 C306.895986,276.615319 315.029981,279.179445 323.246333,277.673013" jetway-hook-id="82FDF6CB-6A3B-4B3C-B5A1-787F3D34BF4F" id="Path-7-Copy-4" stroke="#4285F4" stroke-width="3" stroke-linecap="round" stroke-linejoin="round" transform="translate(295.600063, 261.647392) rotate(39.000000) translate(-295.600063, -261.647392) "></path>
        <path d="M51.0550759,218.234683 C48.5548046,219.629067 45.7368679,222.447004 42.6012658,226.688493 C40.9910162,225.883368 39.7833291,225.883368 38.9782043,226.688493 C34.4601992,234.218502 32.9397685,235.142303 30.5243942,249.634549 C29.2286721,259.568419 32.3024154,271.835411 32,286.5 C31.9558782,288.639534 30.6225449,291.972867 28,296.5 L69,300.5 C75.5054297,287.010539 92.3940737,262.037187 96.9471879,256.880672 C103.776859,249.145901 96.3675789,245.205643 89.969632,248.607492 C85.7043342,250.875391 80.2513453,256.054447 73.6106655,264.144661 C75.0948309,251.501333 77.0471462,243.168387 79.4676116,239.145822 C83.0983096,233.111975 88.2946818,224.877853 90.3597056,221.04428 C92.4247295,217.210707 88.5235311,212.446059 83.1919088,215.280933 C77.8602864,218.115807 71.0982401,228.550202 66.9681924,236.217349 C64.2148272,241.32878 62.1309542,247.008867 60.7165732,253.257611 C61.8627434,242.587127 63.1319475,237.557678 65.5473218,230.311555 C67.8676495,223.350572 74.0011319,218.234683 74.0011319,213.403934 C74.0011319,208.573186 69.1703833,207.365499 65.5473218,209.780873 C63.4268833,211.194499 61.1890596,213.734479 58.5889273,217.772284 C57.0935117,218.234683 54.8054829,216.143107 51.0550759,218.234683 Z" jetway-hook-id="E2D4A768-C2F9-4817-8A79-BDD99865738A" id="Path-6" fill="#FFFFFF"></path>
        <path d="M10.8693289,234.469327 C13.3208868,229.154132 19.3149257,231.786855 28.8514455,242.367495 C35.5760555,249.828359 41.707939,261.84199 47.2470961,278.408389 C48.7912362,283.026572 52.3319805,286.49158 57.8693289,288.803412" jetway-hook-id="5092D08B-DAE4-4452-BE06-3CA5A36B928F" id="Path-7-Copy-2" stroke="#4285F4" stroke-width="3" stroke-linecap="round" transform="translate(34.369329, 260.303412) scale(-1, 1) rotate(28.000000) translate(-34.369329, -260.303412) "></path>
        <path d="M69,300.5 C78,287.5 92.3940737,262.037187 96.9471879,256.880672 C103.776859,249.145901 96.3675789,245.205643 89.969632,248.607492 C85.7043342,250.875391 80.2513453,256.054447 73.6106655,264.144661 C75.0948309,251.501333 77.0471462,243.168387 79.4676116,239.145822 C83.0983096,233.111975 88.2946818,224.877853 90.3597056,221.04428 C92.4247295,217.210707 88.5235311,212.446059 83.1919088,215.280933 C77.8602864,218.115807 71.0982401,228.550202 66.9681924,236.217349 C64.2148272,241.32878 62.1309542,247.008867 60.7165732,253.257611 C61.8627434,242.587127 63.1319475,237.557678 65.5473218,230.311555 C67.8676495,223.350572 74.0011319,218.234683 74.0011319,213.403934 C74.0011319,208.573186 69.1703833,207.365499 65.5473218,209.780873 C61.9242603,212.196247 57.9584995,217.89995 52.4282952,228.744976 C48.7414993,235.975004 46.8078727,244.578538 46.6274153,254.555579" jetway-hook-id="FDEA6814-BA30-4C19-9AD1-7512EDB9077D" id="Path-6" stroke="#4285F4" stroke-width="3" stroke-linecap="round" stroke-linejoin="round"></path>
        <path d="M25.5450164,227.803668 C30.6235274,223.130821 36.7204772,222.63785 43.8358658,226.324755 C50.9512543,230.011659 58.5414257,236.444764 66.6063799,245.624068" jetway-hook-id="9F307619-1C8D-46DA-BC62-3CF807D53959" id="Path-7-Copy" stroke="#4285F4" stroke-width="3" stroke-linecap="round" stroke-linejoin="round" transform="translate(46.075698, 234.754883) scale(-1, 1) rotate(36.000000) translate(-46.075698, -234.754883) "></path>
        <circle jetway-hook-id="65EEB697-520C-4124-9320-FBD4D6631D47" id="Oval" fill="#34A853" cx="232.210526" cy="55.5" r="5"></circle>
        <path d="M208.685659,72.4382727 L207.003145,94.4073775 C206.943305,95.1852468 207.753051,95.7363431 208.460305,95.3987174 L228.421941,85.8641183 C229.129196,85.5258592 229.203677,84.5535227 228.555626,84.1126456 L210.277141,71.6781399 C209.629089,71.2378963 208.745499,71.65977 208.685659,72.4382727" jetway-hook-id="854A7B90-1FD8-4803-BCD8-8EA85FDC5C05" id="Fill-3" fill="#F882FF" transform="translate(218.000015, 83.500008) rotate(-15.000000) translate(-218.000015, -83.500008) "></path>
        <path d="M52.4740682,31.5 L41.1399669,31.5 C40.4257726,31.5 39.7653349,31.8873903 39.4086644,32.5148413 L33.7411871,42.4847254 C33.3845166,43.113043 33.3845166,43.886957 33.7411871,44.5152746 L39.4086644,54.4851587 C39.7653349,55.1134763 40.4257726,55.5 41.1399669,55.5 L52.4740682,55.5 C53.1882625,55.5 53.8478469,55.1134763 54.2053707,54.4851587 L59.872848,44.5152746 C60.2295185,43.886957 60.2295185,43.113043 59.872848,42.4847254 L54.2053707,32.5148413 C53.8478469,31.8873903 53.1882625,31.5 52.4740682,31.5 Z" jetway-hook-id="C4A3D20A-B240-4E4A-8E32-98B975D26E26" id="Stroke-6" stroke="#FBBC05" stroke-width="3" stroke-linejoin="round"></path>
        <path d="M65.4087544,31.2277327 C74.3760317,28.7306453 84.0080602,29.7716357 92.4531482,33.571271 C96.8402646,35.5452436 100.647844,38.4812156 104.25309,41.6203076 C107.630156,44.5607127 111.52618,48.3925892 115.681482,50.8695259" jetway-hook-id="59C4409A-2C7D-4A27-9844-A8038F2F60DB" id="Stroke-1" stroke="#8AB4F8" stroke-width="2.628" stroke-linecap="round" stroke-linejoin="round" transform="translate(90.545118, 40.369526) rotate(-169.000000) translate(-90.545118, -40.369526) "></path>
        <path d="M278.364324,17.8572666 C277.84481,18.9499073 277.45895,20.0999362 277.21203,21.2816796 C277.21203,21.2816796 275.975919,24.9575433 275.975919,24.9575433 C274.921034,28.0942603 272.751609,30.3980936 269.944874,31.9951461 C266.058336,34.204591 261.576772,35.2451292 259.757718,39.8022036 C258.328299,43.3836789 258.950508,47.6598532 261.374403,50.8509379 C261.501261,51.0170616 261.631895,51.1801648 261.766304,51.3402476 C266.311297,56.718879 274.318458,56.7234097 278.593122,51.672495 C279.823947,50.2181577 280.810118,48.5418189 281.87784,46.9651542 C283.785242,44.1508682 286.760366,42.268385 290.150044,41.7330137 L293.980704,41.1274174 C295.187366,41.0813558 296.385722,40.893334 297.554629,40.5618418 C299.967197,39.8769592 302.234785,38.5796844 304.12633,36.6375476 C309.366022,31.2551407 309.742065,22.4611576 305.015092,16.1469479 C299.369907,8.60644346 288.911667,7.22082103 282.166291,12.9196181 C280.514871,14.3150569 279.247045,16.0019673 278.364324,17.8572666" jetway-hook-id="E79D391F-DC1C-46FE-B959-7C83C96A7076" id="Fill-1" fill="#D2E3FC"></path>
    </g>
</svg>