<svg width="320" height="320" fill="none" xmlns="http://www.w3.org/2000/svg">
<g clip-path="url(#clip0)">
<path d="M80.6495 217.55L13.4416 79.6322C11.2954 75.34 13.1027 70.1441 17.5079 67.9979L155.425 0.902978C159.718 -1.24316 164.913 0.564115 167.06 4.96934L234.155 142.887C236.301 147.179 234.493 152.375 230.088 154.521L92.2838 221.503C87.8786 223.649 82.6826 221.842 80.6495 217.55Z" fill="#E8F0FE"/>
<path d="M182.083 70.709L178.808 68.1111C178.808 67.7722 178.808 67.4333 178.808 67.0945C178.808 66.7556 178.808 66.4168 178.808 66.0779L182.083 63.4799C183.326 62.5763 183.665 60.882 182.874 59.4136L178.921 52.6363C178.243 51.2809 176.549 50.7161 174.967 51.2809L171.127 52.8622C170.562 52.5234 169.997 52.1845 169.433 51.8456L168.868 47.7793C168.642 46.1979 167.399 45.0684 165.705 45.0684H157.798C156.217 45.0684 154.861 46.1979 154.748 47.7793L154.184 51.8456C153.619 52.1845 153.054 52.5234 152.489 52.8622L148.649 51.2809C147.18 50.7161 145.486 51.2809 144.808 52.6363L140.855 59.5265C140.064 60.882 140.403 62.5763 141.646 63.5929L144.921 66.1908C144.921 66.5297 144.921 66.8686 144.921 67.2074C144.921 67.5463 144.921 67.8852 144.921 68.224L141.646 70.822C140.403 71.7256 140.177 73.4199 140.855 74.8883L144.808 81.6656C145.486 83.0211 147.18 83.5858 148.649 83.0211L152.489 81.3267C153.054 81.6656 153.619 82.0045 154.184 82.3433L154.748 86.4097C154.974 87.9911 156.217 89.1206 157.911 89.1206H165.818C167.399 89.1206 168.755 87.9911 168.981 86.5226L169.545 82.4563C170.11 82.1174 170.675 81.7786 171.24 81.4397L175.08 83.0211C176.549 83.5858 178.243 83.0211 178.921 81.6656L182.874 74.7754C183.665 73.307 183.326 71.7256 182.083 70.709ZM161.865 74.6624C157.685 74.6624 154.41 71.2738 154.41 67.2074C154.41 63.0281 157.798 59.7524 161.865 59.7524C165.931 59.7524 169.32 63.1411 169.32 67.2074C169.32 71.2738 165.931 74.6624 161.865 74.6624Z" fill="#1A73E8"/>
<path d="M173.497 316.95H103.804C99.8507 316.95 96.575 313.674 96.575 309.721V276.738H180.726V309.721C180.726 313.674 177.45 316.95 173.497 316.95Z" fill="#1A73E8"/>
<path d="M119.503 301.814L122.665 302.265L122.214 305.428L119.051 304.976C119.503 306.558 120.745 307.687 122.439 307.913C124.699 308.252 126.732 306.671 126.958 304.411C127.296 302.152 125.715 300.119 123.456 299.78C121.875 299.554 120.406 300.345 119.503 301.814Z" fill="#1A73E8"/>
<path d="M124.587 305.315L137.689 307.122V307.235L140.626 309.381C140.852 309.607 141.078 309.833 141.417 309.833L160.28 312.431C162.087 312.657 163.669 311.414 163.895 309.607L164.008 309.155C164.234 307.348 162.991 305.767 161.184 305.541L142.433 302.943C142.095 302.943 141.756 302.943 141.53 303.169L138.141 304.411V304.524L125.038 302.717" fill="#1A73E8"/>
<path d="M225.682 299.894C225.795 301.701 225.682 301.701 225.682 303.621C225.682 305.315 225.682 307.123 225.005 308.704C224.101 310.963 221.164 311.189 219.809 313.109C219.018 314.239 219.244 316.385 219.357 317.401L251.888 317.289L251.662 300.119" fill="#1A73E8"/>
<path d="M261.491 299.894C261.604 301.701 261.491 301.701 261.491 303.621C261.491 305.315 261.491 307.123 260.813 308.704C259.909 310.963 256.972 311.189 255.617 313.109C254.826 314.239 255.052 316.385 255.165 317.401L287.696 317.289L287.47 300.119" fill="#1A73E8"/>
<path d="M235.963 120.634C235.963 120.522 235.963 120.522 235.963 120.634C237.77 119.279 240.481 120.634 242.288 122.668C243.983 124.588 244.773 126.508 245.79 128.993C246.355 130.462 247.371 132.608 247.936 133.963L237.883 130.574C237.318 129.332 236.866 128.089 236.302 126.847C235.963 125.943 235.511 125.04 235.285 124.023C234.833 122.555 235.172 121.199 235.963 120.634Z" fill="#1A73E8"/>
<path d="M0 318.306H320" stroke="#D2E3FC" stroke-width="2.5" stroke-miterlimit="10" stroke-linecap="round" stroke-linejoin="round"/>
<path d="M242.289 148.76L242.628 143.451" stroke="#1A73E8" stroke-width="2.5" stroke-miterlimit="10" stroke-linecap="round" stroke-linejoin="round"/>
<path d="M253.582 147.857L252.001 142.661" stroke="#1A73E8" stroke-width="2.5" stroke-miterlimit="10" stroke-linecap="round" stroke-linejoin="round"/>
<path d="M195.75 157.12C200.381 156.668 210.095 154.296 215.178 152.941C227.829 149.439 233.364 150.004 239.915 149.439L251.211 148.422C253.583 148.197 255.503 148.084 257.988 147.971C259.343 147.858 260.699 147.858 262.054 148.084C265.669 148.535 269.396 150.23 272.22 152.489C283.177 161.299 299.103 173.16 293.23 189.425C290.519 196.993 283.629 202.754 276.512 206.255" stroke="#1A73E8" stroke-width="2.5" stroke-miterlimit="10" stroke-linecap="round" stroke-linejoin="round"/>
<path d="M266.91 185.471L233.701 187.956C232.233 187.843 231.668 187.053 231.216 185.697C230.765 184.342 230.878 182.196 230.991 180.162C230.991 179.146 230.878 177.79 230.539 175.192" stroke="#1A73E8" stroke-width="2.5" stroke-miterlimit="10" stroke-linecap="round" stroke-linejoin="round"/>
<path d="M266.911 185.471L268.492 158.813" stroke="#1A73E8" stroke-width="2.5" stroke-miterlimit="10" stroke-linecap="round" stroke-linejoin="round"/>
<path d="M233.592 188.295C222.748 224.327 221.28 262.28 220.602 299.894H251.552L251.665 259.682C252.229 249.29 253.924 239.011 256.522 228.959L259.233 218.68C260.588 213.597 261.605 208.401 262.395 203.205" stroke="#1A73E8" stroke-width="2.5" stroke-miterlimit="10" stroke-linecap="round" stroke-linejoin="round"/>
<path d="M266.46 185.471C278.433 199.929 281.144 231.669 282.5 240.592L286.792 299.894H256.746L252.68 248.273" stroke="#1A73E8" stroke-width="2.5" stroke-miterlimit="10" stroke-linecap="round" stroke-linejoin="round"/>
<path d="M168.077 122.442C165.592 121.651 163.446 119.731 162.543 117.359C161.639 114.987 161.978 112.05 163.672 110.017C165.366 108.097 168.303 107.193 170.675 108.096C171.127 108.322 172.031 108.661 172.483 109C173.047 109.452 173.951 110.13 174.29 110.356" stroke="#1A73E8" stroke-width="2.5" stroke-miterlimit="10" stroke-linecap="round" stroke-linejoin="round"/>
<path d="M162.317 116.568C160.623 116.681 159.493 118.602 159.719 120.296C159.945 121.99 161.188 123.346 162.656 124.249C163.786 124.927 165.028 125.379 166.384 125.605" stroke="#1A73E8" stroke-width="2.5" stroke-miterlimit="10" stroke-linecap="round" stroke-linejoin="round"/>
<path d="M94.9973 91.9446L44.2807 79.2937C41.2309 78.503 38.52 81.3269 39.3107 84.3767L53.7689 134.641C54.6725 137.691 58.513 138.595 60.6591 136.336L96.9175 98.7219C99.1766 96.4628 98.047 92.7353 94.9973 91.9446Z" stroke="#34A853" stroke-width="2.5" stroke-miterlimit="10"/>
<path d="M112.727 48.1176L98.8333 50.8285C98.0426 50.9414 97.3649 51.5062 97.139 52.2969L92.6208 65.6255C92.3949 66.4162 92.5079 67.2069 93.0726 67.8846L102.335 78.5023C102.9 79.0671 103.69 79.406 104.481 79.293L118.374 76.5821C119.165 76.4692 119.843 75.9044 120.069 75.1137L124.7 61.7851C124.926 60.9944 124.813 60.2037 124.248 59.526L114.986 48.9083C114.308 48.2305 113.517 48.0046 112.727 48.1176Z" fill="#FCC934"/>
<path d="M240.03 149.89L245 186.713L241.385 186.939L236.754 149.89" fill="#1A73E8"/>
<path d="M263.523 147.856L263.184 186.261H259.57L260.134 148.647" fill="#1A73E8"/>
<path d="M246.578 144.129C251.756 144.129 255.953 139.932 255.953 134.754C255.953 129.576 251.756 125.379 246.578 125.379C241.4 125.379 237.203 129.576 237.203 134.754C237.203 139.932 241.4 144.129 246.578 144.129Z" stroke="#1A73E8" stroke-width="2.5" stroke-miterlimit="10"/>
<path d="M255.505 137.691C256.409 134.867 256.07 131.592 254.15 128.994C250.987 124.814 245.113 124.024 241.047 127.186C239.804 128.09 238.901 129.22 238.336 130.575L255.505 137.691Z" stroke="#1A73E8" stroke-width="2.5" stroke-miterlimit="10" stroke-linecap="round" stroke-linejoin="round"/>
<path d="M137.239 140.062C137.239 138.594 137.127 137.126 136.788 135.657L136.336 130.913C135.997 126.734 137.239 122.555 139.95 119.392L143.339 115.325L144.694 113.405C145.033 112.953 145.259 112.502 145.485 111.937C148.535 105.272 145.598 97.3657 138.934 94.3159C132.269 91.2661 124.363 94.203 121.313 100.867C121.087 101.432 120.861 101.884 120.748 102.449C120.748 102.449 120.296 104.595 120.296 104.708L119.393 110.017C118.715 114.083 116.343 117.81 112.954 120.182L109.114 122.893C107.871 123.571 106.629 124.475 105.499 125.378C103.24 127.412 101.433 130.122 100.303 133.172C97.2536 141.87 101.094 151.81 109.227 156.102C118.941 161.298 130.914 157.232 135.545 147.405C136.562 145.145 137.127 142.547 137.239 140.062Z" stroke="white" stroke-width="2.5" stroke-miterlimit="10" stroke-linecap="round" stroke-linejoin="round"/>
<path d="M131.14 187.956C135.07 187.956 138.256 184.77 138.256 180.84C138.256 176.91 135.07 173.724 131.14 173.724C127.21 173.724 124.024 176.91 124.024 180.84C124.024 184.77 127.21 187.956 131.14 187.956Z" fill="#F882FF"/>
<path d="M154.635 164.574C156.569 164.574 158.137 163.007 158.137 161.073C158.137 159.139 156.569 157.571 154.635 157.571C152.701 157.571 151.134 159.139 151.134 161.073C151.134 163.007 152.701 164.574 154.635 164.574Z" fill="#1A73E8"/>
<path d="M267.699 176.321L272.443 181.63L268.829 187.956" stroke="#1A73E8" stroke-width="2.5" stroke-miterlimit="10" stroke-linecap="round" stroke-linejoin="round"/>
<path d="M247.145 195.524L240.48 195.976L241.045 202.979C241.158 205.125 242.401 207.158 244.321 208.175C246.693 209.53 249.743 209.304 251.889 207.61C253.583 206.254 254.487 204.108 254.374 201.962L253.809 194.959L247.145 195.524Z" stroke="#1A73E8" stroke-width="2.5" stroke-miterlimit="10" stroke-linecap="round" stroke-linejoin="round"/>
<path d="M173.725 118.489L169.094 114.987L173.273 100.529L178.582 101.885L173.725 118.489Z" fill="#1A73E8" stroke="#1A73E8" stroke-width="2.5" stroke-miterlimit="10" stroke-linecap="round" stroke-linejoin="round"/>
<path d="M167.285 143.113L161.977 141.531L164.123 133.851L168.189 139.95L167.285 143.113Z" fill="#1A73E8" stroke="#1A73E8" stroke-width="2.5" stroke-miterlimit="10" stroke-linecap="round" stroke-linejoin="round"/>
<path d="M181.857 88.7819L180.388 94.6555L174.741 93.1871L176.209 87.3135C173.272 87.7653 170.787 89.9114 169.997 92.8482C168.98 96.9146 171.352 100.981 175.418 101.998C179.485 103.014 183.551 100.642 184.568 96.5757C185.358 93.6389 184.229 90.5892 181.857 88.7819Z" fill="#1A73E8" stroke="#1A73E8" stroke-width="2.5" stroke-miterlimit="10" stroke-linecap="round" stroke-linejoin="round"/>
<path d="M151.471 284.644L152.488 281.256L152.375 281.143L162.993 270.525L165.252 269.282C165.478 269.17 165.704 268.944 165.817 268.718L167.172 265.668L167.059 265.555L165.929 264.425L165.817 264.312L162.767 265.668C162.541 265.781 162.315 266.007 162.202 266.233L160.959 268.492L150.342 279.11L150.229 278.997L146.84 280.013C146.501 280.013 146.275 280.126 146.049 280.352L132.608 293.794C131.365 295.036 131.365 297.069 132.608 298.425L132.947 298.764C134.189 300.006 136.222 300.006 137.578 298.764L151.019 285.322C151.358 285.322 151.471 284.983 151.471 284.644Z" fill="#D2E3FC"/>
<path d="M113.86 298.538L106.969 296.505L101.773 301.475L103.468 308.478L110.358 310.511L115.554 305.541L113.86 298.538ZM107.76 306.219C106.179 305.767 105.388 304.186 105.84 302.604C106.292 301.023 107.873 300.232 109.454 300.684C111.036 301.136 111.826 302.717 111.375 304.299C110.923 305.767 109.341 306.671 107.76 306.219Z" fill="white"/>
<path d="M168.19 288.712L161.525 285.888L155.765 290.18L156.668 297.296L163.333 300.12L169.093 295.828L168.19 288.712ZM161.3 295.602C159.831 294.924 159.153 293.343 159.831 291.874C160.509 290.406 162.09 289.728 163.559 290.406C165.027 291.084 165.705 292.665 165.027 294.133C164.462 295.602 162.768 296.28 161.3 295.602Z" fill="white"/>
<path d="M151.471 284.644L152.488 281.256L152.375 281.143L162.993 270.525L165.252 269.282C165.478 269.17 165.704 268.944 165.817 268.718L167.172 265.668L167.059 265.555L165.929 264.425L165.817 264.312L162.767 265.668C162.541 265.781 162.315 266.007 162.202 266.233L160.959 268.492L150.342 279.11L150.229 278.997L146.84 280.013C146.501 280.013 146.275 280.126 146.049 280.352L132.608 293.794C131.365 295.036 131.365 297.069 132.608 298.425L132.947 298.764C134.189 300.006 136.222 300.006 137.578 298.764L151.019 285.322C151.358 285.322 151.471 284.983 151.471 284.644Z" fill="#FCC934"/>
<path d="M104.595 177.79C103.24 180.501 100.303 182.195 97.0272 181.857L79.7452 179.485C75.7917 178.92 72.9679 175.305 73.5327 171.352C73.6456 170.561 73.8715 169.77 74.2104 169.093C75.5658 166.382 78.5027 164.688 81.6654 165.026L98.9474 167.398C102.901 167.963 105.725 171.578 105.16 175.531C105.16 176.435 104.934 177.112 104.595 177.79Z" fill="#EA4335"/>
<path d="M235.056 173.384C222.631 177.677 202.412 182.534 189.535 178.354C183.209 176.321 178.917 171.464 176.206 165.477C174.738 162.202 173.608 158.7 172.705 155.199C171.01 149.212 168.751 143.338 167.848 137.126C167.848 137.126 176.884 135.206 184.678 132.721C186.937 132.043 189.196 131.365 189.196 131.365C189.196 131.365 190.664 134.754 190.89 135.319C194.731 144.468 195.973 148.76 198.797 155.989" stroke="#1A73E8" stroke-width="2.5" stroke-miterlimit="10" stroke-linecap="round" stroke-linejoin="round"/>
<path d="M160.283 122.668C159.606 124.362 160.283 126.283 161.526 127.525C162.768 128.768 164.463 129.558 166.157 130.01" stroke="#1A73E8" stroke-width="2.5" stroke-miterlimit="10" stroke-linecap="round" stroke-linejoin="round"/>
<path d="M161.862 128.203C161.523 128.994 161.636 129.897 161.862 130.688C162.201 131.479 162.653 132.157 163.218 132.721C164.573 134.19 166.945 135.884 168.753 136.901" stroke="#1A73E8" stroke-width="2.5" stroke-miterlimit="10" stroke-linecap="round" stroke-linejoin="round"/>
<path d="M189.309 131.365C189.422 129.445 188.631 127.638 187.841 126.056C186.146 122.894 184.113 120.07 182.08 117.246C180.273 114.874 178.578 111.937 175.754 110.695C174.964 110.356 174.06 110.243 173.269 110.582C172.366 110.92 172.027 111.824 172.14 112.728C172.366 114.309 173.157 115.89 174.06 117.246C175.077 118.714 176.319 119.844 177.562 121.086C175.754 120.183 174.06 118.94 172.705 118.037C171.349 117.246 169.09 115.1 167.848 113.744" stroke="#1A73E8" stroke-width="2.5" stroke-miterlimit="10" stroke-linecap="round" stroke-linejoin="round"/>
</g>
<defs>
<clipPath id="clip0">
<rect width="320" height="320" fill="white"/>
</clipPath>
</defs>
</svg>