<svg width="320" height="320" fill="none" xmlns="http://www.w3.org/2000/svg">
<g clip-path="url(#clip0)">
<path d="M215.319 264.665C216.242 247.817 202.713 233.827 186.007 234.032C181.908 234.032 178.013 234.951 174.529 236.482C172.479 237.401 170.532 238.524 168.687 239.852L162.435 243.528C156.901 246.796 150.341 247.715 144.089 246.081C140.605 245.162 137.223 244.039 133.636 243.528C121.234 241.69 109.653 250.88 109.756 263.644" fill="#FBBC05"/>
<path d="M143.782 232.602C141.835 228.926 143.372 224.331 147.062 222.493L147.165 222.391C150.854 220.45 155.466 221.982 157.311 225.658C159.258 229.334 157.721 233.929 154.031 235.767L153.929 235.869C150.239 237.81 145.627 236.38 143.782 232.602Z" fill="#D2E3FC"/>
<path d="M177.808 175.725L164.997 191.961C164.177 192.982 162.845 193.085 161.82 192.37L145.524 179.606C144.499 178.789 144.397 177.461 145.114 176.44L157.925 160.204C158.745 159.183 160.077 159.081 161.102 159.796L177.398 172.56C178.32 173.275 178.525 174.704 177.808 175.725Z" fill="#EA4335"/>
<path d="M221.878 57.0703C221.878 88.521 213.474 112.211 194.514 134.37C187.75 142.232 183.035 149.891 183.035 160" stroke="#8AB4F8" stroke-width="4.6162" stroke-miterlimit="10" stroke-linecap="round" stroke-linejoin="round"/>
<path d="M100.122 57.0703C100.02 85.3555 108.526 112.211 127.487 134.37C134.251 142.232 138.965 150.503 138.965 160" stroke="#8AB4F8" stroke-width="4.6162" stroke-miterlimit="10" stroke-linecap="round" stroke-linejoin="round"/>
<path d="M131.791 105.472C137.12 100.775 145.217 101.285 149.932 106.595L169.814 128.958C174.529 134.268 174.016 142.335 168.687 147.032C163.358 151.729 155.261 151.218 150.546 145.908L130.664 123.444C125.949 118.236 126.564 110.169 131.791 105.472Z" fill="#34A853"/>
<path d="M159.872 89.8484L154.953 88.6231C154.645 88.521 154.338 88.6231 154.133 88.8273L150.648 92.5033C150.443 92.8097 150.443 93.116 150.443 93.3203L151.878 98.2217C151.981 98.528 152.186 98.7322 152.493 98.7322L157.413 99.9576C157.72 100.06 158.028 99.9576 158.233 99.7534L161.717 96.0773C161.922 95.8731 162.025 95.5667 161.922 95.2604L160.487 90.359C160.385 90.1548 160.18 89.9505 159.872 89.8484Z" fill="#FBBC05"/>
<path d="M172.581 113.947C169.404 107.718 171.864 100.059 178.218 96.894L178.423 96.7919C184.675 93.6264 192.362 96.0771 195.539 102.408C198.716 108.637 196.256 116.295 189.902 119.461L189.697 119.563C183.445 122.729 175.758 120.278 172.581 113.947Z" stroke="#F882FF" stroke-width="4.6162" stroke-miterlimit="10" stroke-linecap="round" stroke-linejoin="round"/>
<path d="M224.441 57.0704H97.5593C93.9722 57.0704 91 54.1092 91 50.5352C91 46.9613 93.9722 44 97.5593 44H224.441C228.028 44 231 46.9613 231 50.5352C231 54.1092 228.028 57.0704 224.441 57.0704Z" fill="#1A73E8"/>
<path d="M100.122 262.93C100.122 231.479 108.526 207.789 127.487 185.63C134.251 177.768 138.965 170.109 138.965 160" stroke="#8AB4F8" stroke-width="4.6162" stroke-miterlimit="10" stroke-linecap="round" stroke-linejoin="round"/>
<path d="M221.878 262.93C221.981 234.644 213.474 207.789 194.514 185.63C187.75 177.768 183.035 169.496 183.035 160" stroke="#8AB4F8" stroke-width="4.6162" stroke-miterlimit="10" stroke-linecap="round" stroke-linejoin="round"/>
<path d="M97.5593 262.93H224.441C228.028 262.93 231 265.891 231 269.465C231 273.039 228.028 276 224.441 276H97.5593C93.9722 276 91 273.039 91 269.465C91 265.891 93.9722 262.93 97.5593 262.93Z" fill="#1A73E8"/>
<path d="M158.041 189.185L151.263 209.014C150.853 210.341 151.981 211.566 153.313 211.362L182.625 205.542C184.06 205.338 184.572 203.806 183.65 202.683L169.287 186.286" stroke="#4285F4" stroke-width="4.6162" stroke-miterlimit="10" stroke-linecap="round" stroke-linejoin="round"/>
<mask id="mask0" mask-type="alpha" maskUnits="userSpaceOnUse" x="144" y="159" width="35" height="34">
<path d="M177.808 175.725L164.997 191.961C164.177 192.982 162.845 193.085 161.82 192.37L145.524 179.606C144.499 178.789 144.397 177.461 145.114 176.44L157.925 160.204C158.745 159.183 160.077 159.081 161.102 159.796L177.398 172.56C178.32 173.275 178.525 174.704 177.808 175.725Z" fill="#EA4335"/>
</mask>
<g mask="url(#mask0)">
<path d="M183.65 202.683L163.972 180.218C163.049 179.197 161.41 179.503 160.897 180.831L151.263 209.014C150.853 210.341 151.981 211.567 153.313 211.363L182.625 205.542C184.06 205.338 184.572 203.806 183.65 202.683Z" stroke="white" stroke-width="4.6162" stroke-miterlimit="10" stroke-linecap="round" stroke-linejoin="round"/>
</g>
</g>
<defs>
<clipPath id="clip0">
<rect width="140" height="232" fill="white" transform="translate(91 44)"/>
</clipPath>
</defs>
</svg>