<svg width="20" height="20" viewBox="0 0 20 20" fill="none" xmlns="http://www.w3.org/2000/svg"><path fill-rule="evenodd" clip-rule="evenodd" d="M3.18333 2L2 3.175L4.24167 5.41667C3.15833 6.825 2.50833 8.58333 2.50833 10.4917C2.50833 12.7917 3.44167 14.875 4.95 16.3833L6.13333 15.2C4.925 14 4.175 12.3333 4.175 10.4917C4.175 9.03333 4.65 7.7 5.43333 6.60833L6.625 7.8C6.13333 8.575 5.84167 9.5 5.84167 10.4917C5.84167 11.875 6.40833 13.1167 7.30833 14.025L8.49167 12.8417C7.88333 12.2417 7.50833 11.4167 7.50833 10.4917C7.50833 9.96666 7.63333 9.46667 7.85 9.025L9.19167 10.3667C9.19167 10.3875 9.1875 10.4083 9.18333 10.4292C9.17917 10.45 9.175 10.4708 9.175 10.4917C9.175 10.95 9.36667 11.3667 9.66667 11.6667C9.96667 11.9667 10.3833 12.1583 10.8417 12.1583C10.8773 12.1583 10.9128 12.1523 10.9536 12.1453L10.975 12.1417L17.325 18.4917L18.5 17.3167L3.18333 2ZM15.5917 12.05C15.75 11.5583 15.8417 11.0333 15.8417 10.4917C15.8417 7.73333 13.6 5.49167 10.8417 5.49167C10.3 5.49167 9.775 5.575 9.28333 5.74167L10.7083 7.16667C10.75 7.15833 10.8 7.15833 10.8417 7.15833C12.6833 7.15833 14.175 8.65 14.175 10.4917C14.175 10.5333 14.175 10.5833 14.1667 10.625L15.5917 12.05ZM17.5083 10.4917C17.5083 6.80833 14.525 3.825 10.8417 3.825C9.825 3.825 8.86667 4.05 8 4.45833L6.76667 3.225C7.975 2.54167 9.35833 2.15833 10.8417 2.15833C15.4417 2.15833 19.175 5.89167 19.175 10.4917C19.175 11.975 18.7833 13.3667 18.1083 14.5667L16.8667 13.325C17.2833 12.4667 17.5083 11.5083 17.5083 10.4917Z" fill="#1B1B1F"/></svg>
