<svg width="20" height="20" viewBox="0 0 20 20" fill="none" xmlns="http://www.w3.org/2000/svg"><path d="M15.5 10.5C15.5 7.78374 13.2583 5.5 10.5 5.5C7.74167 5.5 5.5 7.78374 5.5 10.5C5.5 12.4786 6.50833 14.1171 8 15L9 13.5C7.84167 12.9285 7.16667 11.8503 7 10.5C7.16667 8.71761 8.65833 7.19794 10.5 7C12.3417 7.19794 13.8333 8.71761 14 10.5C13.8333 11.8503 13.1583 12.9285 12 13.5L13 15C14.4917 14.1171 15.5 12.4786 15.5 10.5Z" fill="#1B1B1F"/><path d="M10.5 12C11.3284 12 12 11.3284 12 10.5C12 9.67157 11.3284 9 10.5 9C9.67157 9 9 9.67157 9 10.5C9 11.3284 9.67157 12 10.5 12Z" fill="#1B1B1F"/></svg>
