<svg width="26" height="36" viewBox="0 0 26 36" fill="none" xmlns="http://www.w3.org/2000/svg"><path d="M20.719 18.41H5.281v2.863H20.72v-2.864zm-4.062 4.908H5.28v2.864h11.376v-2.864z" fill="#fff"/><path d="M17.063 9l4.188.205L26 9l-8.938-9-.203 5.494L17.062 9z" fill="#0066DA"/><path d="M20.719 13.5H5.281v2.864H20.72V13.5z" fill="#fff"/><path d="M17.063 9V0H2.438A2.445 2.445 0 0 0 0 2.455v31.09A2.445 2.445 0 0 0 2.438 36h21.125A2.445 2.445 0 0 0 26 33.545V9h-8.938zm-.813 16.773H5.687v-2.046H16.25v2.046zm4.063-4.91H5.688v-2.045h14.625v2.046zm0-4.909H5.688V13.91h14.625v2.045z" fill="#2684FC"/></svg>