<svg width="26" height="36" viewBox="0 0 26 36" fill="none" xmlns="http://www.w3.org/2000/svg"><path d="M23.563 36H2.438A2.445 2.445 0 0 1 0 33.545V2.455A2.445 2.445 0 0 1 2.438 0h14.624L26 9v24.545A2.445 2.445 0 0 1 23.562 36z" fill="#00AC47"/><path d="M17.063 0L26 9h-8.938V0z" fill="#00832D"/><path d="M19.094 13.91H4.875v11.862h16.25V13.909h-2.031zM6.906 15.954h5.078v2.863H6.906v-2.863zm0 7.772v-2.863h5.078v2.863H6.906zm12.188 0h-5.078v-2.863h5.078v2.863zm0-4.909h-5.078v-2.863h5.078v2.863z" fill="#fff"/></svg>