<svg id="illo_no_scanner" xmlns="http://www.w3.org/2000/svg" width="257" height="256" viewBox="0 0 257 256" fill="none">
<g clip-path="url(#clip0_2_30972)">
<path d="M101.744 174.4C102.444 175 106.744 178.8 112.044 177.8C117.344 176.8 120.344 171.7 120.644 171.1C122.444 167.9 122.044 165.3 124.244 164.3C124.905 163.944 125.657 163.792 126.405 163.864C127.152 163.935 127.862 164.226 128.444 164.7C130.644 166.4 129.544 170.8 129.144 172.8C128.693 174.992 127.734 177.047 126.344 178.8C124.519 180.925 122.177 182.544 119.544 183.5C116.767 184.297 113.821 184.297 111.044 183.5" stroke="var(--cros-sys-illo-color1)" stroke-width="2" stroke-linecap="round" stroke-linejoin="round" />
<path d="M97.1439 201C103.744 201 110.344 200.9 116.844 199.6C123.344 198.3 129.544 196.7 132.644 191.2C134.244 188.2 134.444 184.6 134.544 181.1C134.585 180.195 134.518 179.289 134.344 178.4C134.22 177.95 133.993 177.534 133.681 177.187C133.368 176.84 132.979 176.57 132.544 176.4" stroke="var(--cros-sys-illo-color1)" stroke-width="2" stroke-linecap="round" stroke-linejoin="round" />
<path d="M115.344 189.4L120.344 188.7C122.348 188.554 124.282 187.899 125.962 186.796C127.642 185.694 129.013 184.181 129.944 182.4C131.033 180.361 131.808 178.17 132.244 175.9C132.644 174.1 132.744 173 132.144 171.7C131.685 170.547 130.835 169.591 129.744 169" stroke="var(--cros-sys-illo-color1)" stroke-width="2" stroke-linecap="round" stroke-linejoin="round" />
<path d="M101.744 174.4C102.122 173.28 102.625 172.207 103.244 171.2L103.644 170.4L104.544 169.1C105.744 167.2 106.944 165.2 107.044 162.9C107.111 162.589 107.111 162.267 107.042 161.956C106.973 161.645 106.837 161.353 106.644 161.1C106.336 160.729 105.915 160.469 105.445 160.361C104.976 160.252 104.483 160.301 104.044 160.5C103.137 160.805 102.315 161.319 101.644 162C100.144 163.8 95.8439 169.1 90.1439 176.4" stroke="var(--cros-sys-illo-color1)" stroke-width="2" stroke-linecap="round" stroke-linejoin="round" />
<path d="M111.344 133L105.544 120.3L93.3439 119.8L90.0439 130.2" stroke="var(--cros-sys-illo-color1)" stroke-width="2" stroke-linecap="round" stroke-linejoin="round" />
<path d="M103.344 124C110.137 124 115.644 118.493 115.644 111.7C115.644 104.907 110.137 99.4 103.344 99.4C96.5508 99.4 91.0439 104.907 91.0439 111.7C91.0439 118.493 96.5508 124 103.344 124Z" fill="var(--cros-sys-illo-base)" stroke="var(--cros-sys-illo-color1)" stroke-width="2" stroke-linecap="round" stroke-linejoin="round" />
<path d="M106.044 114.7C108.218 114.91 110.392 114.304 112.144 113" stroke="var(--cros-sys-illo-color1)" stroke-width="2" stroke-linecap="round" stroke-linejoin="round" />
<path d="M109.744 101.9C108.588 100.88 107.198 100.163 105.696 99.8143C104.195 99.4652 102.631 99.4947 101.144 99.9C98.2439 100.6 95.4439 101 93.4439 103.3C91.4439 105.6 91.2439 107.8 90.6439 109.6C90.3244 110.534 90.1556 111.513 90.1439 112.5C90.1439 114 90.6439 113.7 91.7439 113.3C96.015 111.65 100.076 109.502 103.844 106.9C105.92 105.367 107.891 103.697 109.744 101.9Z" fill="var(--cros-sys-illo-color1)" />
<path d="M97.8439 102.8C96.6439 103.3 95.9439 105.8 94.5439 106.5C94.7439 106.4 92.1439 104.7 93.1439 103.4C94.2101 102.061 95.4948 100.911 96.9439 100L101.744 96.5L106.344 92.9L108.444 91.6C109.255 91.0947 110.188 90.8183 111.144 90.8C111.643 90.7675 112.142 90.8602 112.596 91.0698C113.05 91.2793 113.445 91.5991 113.744 92C113.98 92.5773 114.084 93.1999 114.05 93.8226C114.015 94.4453 113.842 95.0524 113.544 95.6C114.636 95.0087 115.819 94.6032 117.044 94.4C117.416 94.2831 117.81 94.2584 118.193 94.3281C118.577 94.3978 118.937 94.5598 119.244 94.8C119.756 95.3092 120.074 95.9812 120.144 96.7C120.444 99.7 118.544 102.4 116.644 104.7L115.344 105.8C114.944 105.9 113.344 103.5 112.544 103C108.544 100.6 106.844 98.9 97.8439 102.8Z" fill="var(--cros-sys-illo-color1)" />
<path d="M117.144 193.7L122.244 193.1C124.644 192.632 126.924 191.679 128.944 190.3C130.094 189.325 131.045 188.136 131.744 186.8C132.922 184.792 133.734 182.591 134.144 180.3C134.562 178.925 134.527 177.453 134.044 176.1C133.753 175.299 133.231 174.603 132.544 174.1" stroke="var(--cros-sys-illo-color1)" stroke-width="2" stroke-linecap="round" stroke-linejoin="round" />
<path d="M101.044 214.2C86.4439 226.1 66.5439 227.7 51.8439 218.6C33.9439 207.6 31.5439 185.5 34.2439 172.1C38.1439 152.8 55.1439 136.8 77.8439 131.6C81.8451 130.636 85.9314 130.066 90.0439 129.9C91.206 131.728 92.7429 133.288 94.553 134.478C96.363 135.667 98.405 136.459 100.544 136.8C102.621 136.986 104.714 136.705 106.669 135.979C108.624 135.252 110.392 134.098 111.844 132.6C113.818 132.914 115.762 133.381 117.661 133.996M125.744 198C129.635 202.086 134.43 205.202 139.744 207.1C156.144 212.6 176.544 204.6 191.844 187.2L173.844 158.6L151.644 167.7C150.704 165.555 148.98 160.904 146.947 157.464" stroke="var(--cros-sys-illo-color1)" stroke-width="2" stroke-linecap="round" stroke-linejoin="round" />
<path d="M101.044 214.2C97.4439 201.3 93.7439 188.5 90.0439 175.6L71.1439 183.2L70.3439 167.2" stroke="var(--cros-sys-illo-color1)" stroke-width="2" stroke-linecap="round" stroke-linejoin="round" />
<path d="M99.3439 206.7H116.244L118.644 199.3" stroke="var(--cros-sys-illo-color1)" stroke-width="2" stroke-linecap="round" stroke-linejoin="round" />
<path d="M130.244 52.6C129.63 52.7016 129.051 52.9564 128.562 53.341C128.072 53.7256 127.688 54.2274 127.444 54.8L123.244 64.7C122.998 65.2731 122.915 65.9028 123.003 66.5201C123.091 67.1374 123.348 67.7185 123.744 68.2L128.244 74.3L132.044 52.4L130.244 52.6Z" fill="var(--cros-sys-illo-color3)" />
<path fill-rule="evenodd" clip-rule="evenodd" d="M132.544 49.7C155.644 17.6 200.744 14 225.844 37.3C248.444 58.2 251.144 97.3 228.144 124L140.717 158.817C144.369 155.986 146.721 151.556 146.721 146.577C146.721 138.029 139.791 131.1 131.244 131.1C124.061 131.1 118.022 135.992 116.276 142.627L116.244 142.6L128.244 74.3L130.244 76.8C130.601 77.301 131.087 77.6958 131.65 77.9423C132.214 78.1889 132.834 78.2779 133.444 78.2L144.144 76.9C144.77 76.7968 145.361 76.5425 145.866 76.1591C146.372 75.7757 146.776 75.2749 147.044 74.7L151.244 64.8C151.49 64.2269 151.573 63.5972 151.485 62.9799C151.396 62.3626 151.14 61.7815 150.744 61.3L144.244 52.7C143.887 52.1735 143.386 51.7612 142.801 51.5129C142.215 51.2645 141.57 51.1906 140.944 51.3L132.044 52.4L132.544 49.7Z" fill="var(--cros-sys-illo-color1-2)" />
<path d="M131.244 161.2C139.362 161.2 145.944 154.619 145.944 146.5C145.944 138.381 139.362 131.8 131.244 131.8C123.125 131.8 116.544 138.381 116.544 146.5C116.544 154.619 123.125 161.2 131.244 161.2Z" fill="var(--cros-sys-illo-color1-2)" />
<path fill-rule="evenodd" clip-rule="evenodd" d="M131.244 132.8C123.678 132.8 117.544 138.934 117.544 146.5C117.544 154.066 123.678 160.2 131.244 160.2C138.81 160.2 144.944 154.066 144.944 146.5C144.944 138.934 138.81 132.8 131.244 132.8ZM115.544 146.5C115.544 137.829 122.573 130.8 131.244 130.8C139.915 130.8 146.944 137.829 146.944 146.5C146.944 155.171 139.915 162.2 131.244 162.2C122.573 162.2 115.544 155.171 115.544 146.5Z" fill="var(--cros-sys-illo-color1)" />
<path d="M114.011 156.753C113.786 157.612 113.741 158.507 113.878 159.384C114.014 160.26 114.331 161.102 114.808 161.858C115.284 162.613 115.912 163.269 116.654 163.784C117.396 164.3 118.236 164.666 119.126 164.86C120.753 165.235 122.463 165.039 123.956 164.308" stroke="var(--cros-sys-illo-color1)" stroke-width="2" stroke-linecap="round" stroke-linejoin="round" />
<path d="M106.844 70C101.944 65.3 98.1439 64.3 95.3439 64.4C89.8439 64.6 88.1439 69.5 82.2439 70.1C76.3439 70.7 73.1439 68.2 69.7439 65.7" stroke="var(--cros-sys-illo-secondary)" stroke-width="2" stroke-linecap="round" stroke-linejoin="round" />
<path d="M132.844 134.8C130.253 134.612 127.673 135.285 125.503 136.713C123.333 138.142 121.696 140.246 120.844 142.7C118.944 148.3 121.844 154.8 127.744 157.4" stroke="var(--cros-sys-illo-base)" stroke-width="2" stroke-linecap="round" stroke-linejoin="round" />
<path d="M187.444 151.3L187.244 151.5C189.844 150.3 191.844 148.1 194.144 146.4L196.344 144.9C199.114 143.133 202.024 141.594 205.044 140.3C206.644 139.7 209.144 138.6 210.444 140.2C210.689 140.644 210.818 141.143 210.818 141.65C210.818 142.157 210.689 142.656 210.444 143.1C209.603 144.173 208.547 145.058 207.344 145.7L203.544 148.3C201.044 150.1 198.444 151.8 195.844 153.4L207.644 145.8C208.844 145.1 210.944 143.8 212.344 143.7C213.744 143.6 215.244 144.5 214.644 146.2C214.25 147.108 213.63 147.899 212.844 148.5C210.844 149.9 208.744 151.3 206.544 152.6C204.344 153.9 201.144 155.9 198.444 157.7C201.044 155.9 203.744 154.2 206.544 152.6L210.644 150.3C211.744 149.7 213.744 148.1 214.844 148.8C217.444 150.4 214.744 153 213.744 153.7L200.644 162L208.844 156.8C210.193 155.732 211.765 154.98 213.444 154.6C213.667 154.521 213.904 154.486 214.14 154.499C214.377 154.511 214.609 154.57 214.822 154.673C215.036 154.775 215.227 154.918 215.385 155.094C215.544 155.271 215.665 155.477 215.744 155.7C215.933 156.115 216.014 156.571 215.979 157.026C215.944 157.48 215.794 157.919 215.544 158.3C214.653 159.323 213.607 160.2 212.444 160.9C208.744 163.4 207.044 164.6 203.444 167.4C199.844 170.2 199.244 172.6 196.444 175.1C194.08 177.149 191.273 178.621 188.244 179.4" stroke="var(--cros-sys-illo-color1)" stroke-width="2" stroke-linecap="round" stroke-linejoin="round" />
<path d="M187.744 163.8C188.523 161.796 188.846 159.643 188.69 157.499C188.535 155.354 187.904 153.271 186.844 151.4C186.544 151 187.944 148.9 188.244 148.4C188.544 147.9 189.744 145.1 189.544 143.5C189.547 143.055 189.385 142.625 189.089 142.293C188.794 141.961 188.386 141.749 187.944 141.7C186.844 141.5 186.044 142.4 185.244 143.2C180.89 147.671 177.428 152.932 175.044 158.7" stroke="var(--cros-sys-illo-color1)" stroke-width="2" stroke-linecap="round" stroke-linejoin="round" />
<path d="M209.544 106C210.351 105.48 211.253 105.125 212.198 104.954C213.143 104.783 214.112 104.8 215.05 105.004C215.989 105.209 216.877 105.596 217.665 106.145C218.454 106.693 219.126 107.391 219.644 108.2V108.4L228.844 123.3C229.877 124.998 230.194 127.036 229.725 128.967C229.256 130.898 228.04 132.565 226.344 133.6V133.6C225.517 134.113 224.597 134.459 223.636 134.616C222.676 134.773 221.693 134.739 220.746 134.516C219.798 134.293 218.904 133.886 218.114 133.317C217.325 132.748 216.655 132.028 216.144 131.2H216.044L206.944 116.3C205.929 114.65 205.602 112.669 206.032 110.78C206.462 108.892 207.615 107.248 209.244 106.2L209.544 106Z" stroke="var(--cros-sys-illo-color4)" stroke-width="2" stroke-linecap="round" stroke-linejoin="round" />
<path d="M184.944 105.9C201.568 105.9 215.044 92.4238 215.044 75.8C215.044 59.1762 201.568 45.7 184.944 45.7C168.32 45.7 154.844 59.1762 154.844 75.8C154.844 92.4238 168.32 105.9 184.944 105.9Z" stroke="var(--cros-sys-illo-color1)" stroke-width="2" stroke-linecap="round" stroke-linejoin="round" stroke-dasharray="6 6" />
<path d="M181.244 79.1C181.774 77.7724 182.635 76.6021 183.744 75.7C185.191 74.6841 186.773 73.8763 188.444 73.3C189.754 72.8362 191.025 72.2677 192.244 71.6C193.144 70.9834 193.84 70.1132 194.244 69.1C194.542 68.4401 194.696 67.7242 194.696 67C194.696 66.2758 194.542 65.5599 194.244 64.9C193.903 64.2004 193.427 63.5752 192.844 63.0603C192.26 62.5455 191.58 62.1511 190.844 61.9C189.526 61.2797 188.015 61.2078 186.644 61.7C185.342 62.2298 184.179 63.0508 183.244 64.1L180.244 61.1C181.689 59.5295 183.514 58.3584 185.544 57.7C187.82 57.0263 190.261 57.1677 192.444 58.1C194.144 58.8028 195.652 59.8996 196.844 61.3C197.911 62.591 198.605 64.1487 198.852 65.8052C199.098 67.4617 198.888 69.1541 198.244 70.7C197.652 72.2707 196.564 73.605 195.144 74.5C193.643 75.4333 192.03 76.1725 190.344 76.7C189.168 77.1046 188.056 77.6772 187.044 78.4C186.236 79.1637 185.59 80.0818 185.144 81.1L184.344 83L180.344 81.3L181.244 79.1ZM176.544 90.2C176.336 89.8047 176.213 89.3704 176.183 88.9248C176.154 88.4792 176.217 88.0324 176.37 87.6129C176.524 87.1935 176.763 86.8107 177.073 86.4893C177.383 86.1679 177.757 85.9149 178.17 85.7466C178.584 85.5784 179.028 85.4985 179.475 85.5123C179.921 85.526 180.36 85.6331 180.762 85.8265C181.165 86.0199 181.522 86.2954 181.812 86.6353C182.102 86.9752 182.317 87.3719 182.444 87.8C182.645 88.1679 182.751 88.5806 182.751 89C182.751 89.4194 182.645 89.8321 182.444 90.2C182.299 90.5884 182.072 90.9412 181.778 91.2345C181.485 91.5277 181.132 91.7547 180.744 91.9C180.376 92.1013 179.963 92.2068 179.544 92.2068C179.125 92.2068 178.712 92.1013 178.344 91.9C177.94 91.761 177.571 91.5375 177.26 91.2443C176.95 90.9512 176.706 90.5951 176.544 90.2Z" fill="var(--cros-sys-illo-color1)" />
<path d="M238.344 154.7C240.553 154.7 242.344 152.909 242.344 150.7C242.344 148.491 240.553 146.7 238.344 146.7C236.135 146.7 234.344 148.491 234.344 150.7C234.344 152.909 236.135 154.7 238.344 154.7Z" fill="var(--cros-sys-illo-color5)" />
<path d="M84.1439 131.1C88.4439 139.7 97.0439 144.4 104.944 143C107.366 142.62 109.673 141.704 111.697 140.32C113.721 138.936 115.411 137.119 116.644 135" stroke="var(--cros-sys-illo-color1)" stroke-width="2" stroke-linecap="round" stroke-linejoin="round" />
<path d="M114.199 156.264L114.987 156.88L115.129 156.697L115.177 156.471L114.199 156.264ZM105.871 166.915L105.083 166.299L105.006 166.397L104.956 166.511L105.871 166.915ZM107.712 175.644L107.113 176.444H107.113L107.712 175.644ZM116.361 174.522L117.065 175.233L117.115 175.184L117.158 175.128L116.361 174.522ZM124.16 164.261L123.845 163.312C123.654 163.375 123.486 163.495 123.364 163.656L124.16 164.261ZM117.845 143.87C117.959 143.329 117.614 142.799 117.074 142.684C116.533 142.57 116.003 142.915 115.888 143.456L117.845 143.87ZM136.797 161.122C137.322 160.948 137.606 160.382 137.432 159.858C137.258 159.334 136.692 159.05 136.168 159.224L136.797 161.122ZM113.411 155.648L105.083 166.299L106.658 167.531L114.987 156.88L113.411 155.648ZM105.871 166.915C104.956 166.511 104.956 166.511 104.955 166.512C104.955 166.512 104.955 166.512 104.955 166.513C104.955 166.513 104.954 166.514 104.954 166.515C104.953 166.517 104.952 166.519 104.951 166.521C104.949 166.526 104.946 166.532 104.943 166.54C104.937 166.554 104.928 166.575 104.918 166.6C104.898 166.651 104.87 166.721 104.836 166.811C104.77 166.989 104.684 167.242 104.595 167.554C104.418 168.175 104.229 169.045 104.188 170.035C104.104 172.025 104.625 174.58 107.113 176.444L108.312 174.843C106.52 173.501 106.12 171.692 106.186 170.119C106.219 169.327 106.372 168.617 106.518 168.101C106.591 167.846 106.661 167.642 106.712 167.506C106.737 167.438 106.757 167.387 106.77 167.355C106.777 167.339 106.781 167.328 106.784 167.322C106.785 167.319 106.786 167.317 106.786 167.316C106.787 167.316 106.786 167.316 106.786 167.316C106.786 167.316 106.786 167.317 106.786 167.317C106.786 167.317 106.786 167.318 106.786 167.318C106.786 167.318 106.785 167.318 105.871 166.915ZM107.113 176.444C109.626 178.327 112.193 177.976 114.028 177.208C114.938 176.827 115.689 176.339 116.21 175.95C116.472 175.754 116.68 175.581 116.824 175.454C116.897 175.391 116.954 175.338 116.994 175.301C117.015 175.282 117.031 175.266 117.042 175.255C117.048 175.249 117.053 175.245 117.057 175.241C117.059 175.239 117.06 175.237 117.062 175.236C117.062 175.236 117.063 175.235 117.064 175.234C117.064 175.234 117.064 175.234 117.064 175.234C117.065 175.233 117.065 175.233 116.361 174.522C115.658 173.812 115.658 173.812 115.658 173.811C115.658 173.811 115.659 173.811 115.659 173.811C115.659 173.811 115.659 173.81 115.659 173.81C115.66 173.81 115.66 173.81 115.659 173.81C115.659 173.811 115.657 173.812 115.655 173.815C115.65 173.819 115.641 173.828 115.628 173.84C115.602 173.864 115.561 173.902 115.506 173.95C115.395 174.047 115.228 174.187 115.014 174.347C114.582 174.669 113.973 175.062 113.256 175.363C111.836 175.957 110.078 176.166 108.312 174.843L107.113 176.444ZM117.158 175.128L124.957 164.866L123.364 163.656L115.565 173.917L117.158 175.128ZM115.888 143.456L113.221 156.057L115.177 156.471L117.845 143.87L115.888 143.456ZM124.475 165.21L136.797 161.122L136.168 159.224L123.845 163.312L124.475 165.21Z" fill="var(--cros-sys-illo-color1)" />
</g>
<defs>
<clipPath id="clip0_2_30972">
<rect width="256" height="256" fill="var(--cros-sys-illo-base)" transform="translate(0.743896)" />
</clipPath>
</defs>
</svg>