<svg id="illo_loading_scanner" xmlns="http://www.w3.org/2000/svg" width="257" height="256" viewBox="0 0 257 256" fill="none">
<g clip-path="url(#clip0_3_31049)">
<path d="M95.7439 185.8H29.0439C28.5415 185.827 28.0388 185.752 27.5665 185.578C27.0943 185.404 26.6624 185.136 26.2974 184.79C25.9323 184.443 25.6417 184.026 25.4434 183.564C25.2451 183.101 25.1432 182.603 25.1439 182.1V40.6C25.1306 40.1009 25.2158 39.6042 25.3946 39.138C25.5733 38.6719 25.8422 38.2455 26.1858 37.8833C26.5294 37.5212 26.941 37.2302 27.3971 37.0272C27.8532 36.8242 28.3449 36.713 28.8439 36.7H124.944C125.971 36.6987 126.959 37.0926 127.704 37.8C128.449 38.5074 128.893 39.4742 128.944 40.5V153.9L95.7439 185.8Z" fill="var(--cros-sys-illo-color1-2)" />
<path d="M137.798 167.021C132.258 170.686 128.378 176.614 127.418 178.171C127.261 178.425 127.174 178.709 127.167 179.007C127.132 180.561 127.249 185.898 130.112 191.484C133.516 198.125 140.028 206.7 140.028 206.7C140.028 206.7 138.943 200.835 147.18 199.01C153.548 197.6 156.37 202.691 157.322 205.074C157.592 205.748 158.229 206.239 158.955 206.239C159.998 206.239 160.754 205.254 160.468 204.251C159.697 201.555 158.169 196.442 156.177 190.936C153.872 184.568 152.948 168.899 152.66 162.561C152.599 161.209 151.253 160.309 149.998 160.817C147.031 162.017 142.004 164.238 137.798 167.021Z" fill="var(--cros-sys-illo-base)" />
<path d="M152.244 160.6L172.644 156.7C171.444 167.333 171.444 178.067 172.644 188.7C173.338 194.767 174.44 200.781 175.944 206.7H160.644C158.035 198.831 156.029 190.774 154.644 182.6C153.34 175.33 152.538 167.98 152.244 160.6Z" fill="var(--cros-sys-illo-color1-2)" stroke="var(--cros-sys-illo-color1)" stroke-width="2" stroke-linecap="round" stroke-linejoin="round" />
<path d="M171.244 156.3L152.444 159.8C147.138 161.056 143.544 162.6 139.044 166C134.26 169.649 130.017 173.959 126.444 178.8" stroke="var(--cros-sys-illo-color1)" stroke-width="2" stroke-linecap="round" stroke-linejoin="round" />
<path d="M165.444 145.6C166.144 147.4 167.144 150.3 168.444 153.9C169.744 157.5 170.544 158.8 170.244 160.5C169.944 162.2 167.044 166.6 163.344 166.2C161.804 166.031 160.379 165.31 159.33 164.17C158.282 163.03 157.683 161.548 157.644 160C157.444 157.8 157.344 155.6 157.144 153.4C158.897 153.443 160.616 152.917 162.044 151.9C163.011 151.138 163.812 150.186 164.397 149.103C164.982 148.019 165.338 146.827 165.444 145.6Z" fill="var(--cros-sys-illo-base)" stroke="var(--cros-sys-illo-color1)" stroke-width="2" stroke-linecap="round" stroke-linejoin="round" />
<path d="M166.252 144.627C167.037 138.659 162.88 133.189 156.967 132.411C151.053 131.632 145.622 135.839 144.836 141.808C144.051 147.776 148.208 153.246 154.121 154.024C160.035 154.803 165.466 150.595 166.252 144.627Z" fill="var(--cros-sys-illo-base)" stroke="var(--cros-sys-illo-color1)" stroke-width="2" stroke-miterlimit="10" stroke-linecap="round" />
<path d="M144.344 139.7L152.744 134.8L166.144 143.8C167.644 138.5 163.644 133 157.744 131.7C151.844 130.4 145.044 133.9 144.344 139.7Z" fill="var(--cros-sys-illo-color1)" />
<path d="M149.344 146.1C149.482 146.609 149.734 147.081 150.08 147.479C150.427 147.877 150.859 148.192 151.344 148.4C151.97 148.598 152.641 148.598 153.267 148.401C153.893 148.205 154.444 147.82 154.844 147.3" stroke="var(--cros-sys-illo-color1)" stroke-width="2" stroke-linecap="round" stroke-linejoin="round" />
<path d="M191.389 184.907L189.905 196.036L175.722 201.311C173.196 189.2 171.674 174.472 173.608 156.923C177.912 156.185 179.209 156.074 182.406 156.27C187.09 155.728 194.465 157.131 199.844 159.2C211.844 163.9 225.344 176.6 226.844 192.9C228.744 213.3 211.744 234.8 185.944 239L172.444 204.2L194.244 196C194.165 193.738 191.866 187.115 191.389 184.907Z" fill="var(--cros-sys-illo-base)" />
<path d="M169.644 156.6L171.244 156.3C199.144 151 223.944 170 226.544 192.4C228.944 213.2 211.544 235.8 185.644 238.6L172.144 203.8L193.944 195.5L191.644 185.5" stroke="var(--cros-sys-illo-color1)" stroke-width="2" stroke-linecap="round" stroke-linejoin="round" />
<path d="M159.344 130.7C158.544 128.8 155.544 128 152.344 127.8C146.761 126.484 140.956 126.416 135.344 127.6C131.045 128.585 126.543 129.839 122.836 132.229C117.12 135.678 112.752 140.959 109.344 146.7C105.044 154 102.944 163 103.944 167.6C109.834 173.107 113.016 173.431 123.444 168C123.344 167.5 122.944 166 122.344 164C121.744 162 121.444 160.8 121.744 160C123.444 158.798 126.094 156.766 127.644 155.1C130.558 152.007 132.775 148.324 134.144 144.3C136.385 142.42 139.743 141.2 142.616 140.655C148.342 140.655 150.944 141.6 152.544 139.4C152.868 138.967 153.044 138.441 153.044 137.9C153.795 137.783 154.512 137.509 155.15 137.095C155.788 136.681 156.331 136.138 156.744 135.5C156.99 135.213 157.162 134.869 157.244 134.5H157.344C157.756 134.384 158.14 134.182 158.467 133.906C158.795 133.63 159.06 133.287 159.244 132.9C159.528 132.2 159.563 131.423 159.344 130.7Z" fill="var(--cros-sys-illo-base)" />
<path d="M129.644 134.1C133.834 132.319 138.299 131.271 142.844 131C147.444 130.7 156.144 131 156.944 134C157.012 134.781 156.799 135.561 156.344 136.2C155.936 136.812 155.406 137.333 154.786 137.729C154.166 138.125 153.471 138.387 152.744 138.5" fill="var(--cros-sys-illo-base)" />
<path d="M129.644 134.1C133.834 132.319 138.299 131.271 142.844 131C147.444 130.7 156.144 131 156.944 134C157.012 134.781 156.799 135.561 156.344 136.2C155.936 136.812 155.406 137.333 154.786 137.729C154.166 138.125 153.471 138.387 152.744 138.5" stroke="var(--cros-sys-illo-color1)" stroke-width="2" stroke-linecap="round" stroke-linejoin="round" />
<path d="M121.344 160.1C123.166 159.084 124.876 157.877 126.444 156.5C133.544 150.4 132.044 145.7 136.944 142.7C141.844 139.7 150.644 143.1 152.544 139.4C152.87 138.714 152.94 137.934 152.744 137.2C151.344 133.8 141.144 135.1 139.344 135.4C135.985 135.818 132.693 136.658 129.544 137.9" stroke="var(--cros-sys-illo-color1)" stroke-width="2" stroke-linecap="round" stroke-linejoin="round" />
<path d="M129.944 131.2C134.104 129.875 138.396 129.003 142.744 128.6C146.544 128.3 157.444 127.4 158.944 131.3C159.08 131.671 159.14 132.065 159.123 132.46C159.106 132.855 159.011 133.242 158.844 133.6C158.654 133.972 158.386 134.299 158.058 134.558C157.73 134.817 157.35 135.002 156.944 135.1" stroke="var(--cros-sys-illo-color1)" stroke-width="2" stroke-linecap="round" stroke-linejoin="round" />
<path d="M151.144 127.5C146.194 126.227 141.034 125.997 135.99 126.823C130.946 127.649 126.129 129.514 121.844 132.3C115.882 136.216 111.054 141.63 107.844 148C106.064 151.486 104.849 155.233 104.244 159.1" stroke="var(--cros-sys-illo-color1)" stroke-width="2" stroke-linecap="round" stroke-linejoin="round" />
<path d="M121.339 160.1C123.338 167.469 125.338 174.838 127.238 182.305L135.248 206.106C133.673 204.945 131.727 204.259 129.621 204.259C124.809 204.259 120.834 207.839 120.214 212.481C115.644 212.944 110.486 212.46 105.341 209.914C91.0436 202.84 83.8448 181.126 93.8432 160.591L121.339 160.1Z" fill="var(--cros-sys-illo-base)" />
<path d="M121.339 160.1C123.338 167.469 125.338 174.838 127.238 182.305L135.248 206.106C133.673 204.945 131.727 204.259 129.621 204.259C124.809 204.259 120.834 207.839 120.214 212.481C115.644 212.944 110.486 212.46 105.341 209.914C91.0436 202.84 83.8448 181.126 93.8432 160.591L121.339 160.1Z" stroke="var(--cros-sys-illo-color1)" stroke-width="2" stroke-linecap="round" stroke-linejoin="round" />
<path d="M121.344 216.4L111.944 198.3C111.645 196.643 111.869 194.934 112.586 193.411C113.303 191.888 114.476 190.625 115.944 189.8C117.388 189.02 119.029 188.68 120.664 188.822C122.299 188.964 123.856 189.583 125.144 190.6C128.844 196.2 132.91 202.714 136.61 208.314" stroke="var(--cros-sys-illo-color1)" stroke-width="2" stroke-linecap="round" stroke-linejoin="round" />
<path d="M140.451 209.608L131.644 191.4C131.444 190.354 131.457 189.278 131.683 188.237C131.909 187.196 132.344 186.211 132.96 185.342C133.577 184.474 134.363 183.739 135.271 183.181C136.179 182.624 137.19 182.256 138.244 182.1C139.424 181.863 140.643 181.902 141.805 182.214C142.967 182.526 144.042 183.103 144.944 183.9L156.947 203.971" stroke="var(--cros-sys-illo-color1)" stroke-width="2" stroke-linecap="round" stroke-linejoin="round" />
<path d="M127.244 195.9C127.033 195.165 127.076 194.38 127.367 193.672C127.657 192.964 128.177 192.375 128.844 192C129.601 191.577 130.48 191.426 131.335 191.571C132.19 191.717 132.969 192.15 133.544 192.8L137.744 200.6L131.644 203.9L127.244 195.9Z" fill="var(--cros-sys-illo-base)" stroke="var(--cros-sys-illo-color1)" stroke-width="2" stroke-linecap="round" stroke-linejoin="round" />
<path d="M135.329 205.785C137.24 205.493 138.566 203.795 138.29 201.994C138.014 200.192 136.242 198.969 134.331 199.261C132.42 199.554 131.095 201.251 131.37 203.053C131.646 204.854 133.419 206.078 135.329 205.785Z" fill="var(--cros-sys-illo-base)" stroke="var(--cros-sys-illo-color1)" stroke-width="2" stroke-linecap="round" stroke-linejoin="round" />
<path d="M128.544 198.3C127.911 197.553 127.135 196.939 126.263 196.493C125.39 196.048 124.438 195.781 123.461 195.706C122.484 195.632 121.503 195.752 120.573 196.06C119.643 196.368 118.783 196.857 118.044 197.5C116.727 198.593 115.843 200.12 115.55 201.805C115.257 203.491 115.574 205.227 116.444 206.7" stroke="var(--cros-sys-illo-color1)" stroke-width="2" stroke-linecap="round" stroke-linejoin="round" />
<path d="M149.144 191C148.132 189.521 146.618 188.459 144.882 188.012C143.146 187.565 141.307 187.763 139.707 188.57C138.106 189.376 136.853 190.736 136.179 192.397C135.505 194.058 135.457 195.906 136.044 197.6" stroke="var(--cros-sys-illo-color1)" stroke-width="2" stroke-linecap="round" stroke-linejoin="round" />
<path d="M129.544 222.1C134.349 222.1 138.244 218.205 138.244 213.4C138.244 208.595 134.349 204.7 129.544 204.7C124.739 204.7 120.844 208.595 120.844 213.4C120.844 218.205 124.739 222.1 129.544 222.1Z" fill="var(--cros-sys-illo-color1-1)" stroke="var(--cros-sys-illo-color1)" stroke-width="2" stroke-miterlimit="10" />
<path d="M149.044 216.5C153.849 216.5 157.744 212.605 157.744 207.8C157.744 202.995 153.849 199.1 149.044 199.1C144.239 199.1 140.344 202.995 140.344 207.8C140.344 212.605 144.239 216.5 149.044 216.5Z" fill="var(--cros-sys-illo-color1-1)" stroke="var(--cros-sys-illo-color1)" stroke-width="2" stroke-miterlimit="10" />
<path d="M180.544 227.1C178.344 221.6 176.244 216.1 174.044 210.7H167.344C158.344 210.5 156.844 209.8 153.244 209.8C143.344 210 133.944 216.1 131.744 220C131.536 220.265 131.392 220.574 131.323 220.903C131.254 221.233 131.261 221.574 131.344 221.9C131.344 222.1 131.444 222.2 131.544 222.4L132.944 222C132.364 222.772 131.955 223.658 131.744 224.6C131.55 224.988 131.449 225.416 131.449 225.85C131.449 226.284 131.55 226.712 131.744 227.1C131.932 227.519 132.247 227.869 132.644 228.1L133.044 227.9C132.932 228.082 132.864 228.287 132.844 228.5C132.795 229.103 132.909 229.709 133.172 230.254C133.436 230.799 133.841 231.264 134.344 231.6C135.075 232 135.905 232.185 136.737 232.132C137.57 232.079 138.369 231.79 139.044 231.3C139.049 231.716 139.14 232.126 139.313 232.505C139.485 232.884 139.734 233.223 140.044 233.5C142.244 235.7 146.544 232.3 155.144 231.4C161.944 230.8 163.444 231.4 168.944 230.4C172.918 229.768 176.808 228.695 180.544 227.2" fill="var(--cros-sys-illo-base)" />
<path d="M174.444 210.8H167.344C158.444 210.6 156.844 209.9 153.344 209.9C143.444 210.1 134.044 216.2 131.844 220.1C131.445 220.648 131.266 221.326 131.344 222L131.644 222.5" stroke="var(--cros-sys-illo-color1)" stroke-width="2" stroke-linecap="round" stroke-linejoin="round" />
<path d="M180.644 227.2C176.908 228.695 173.018 229.768 169.044 230.4C163.544 231.4 162.044 230.8 155.244 231.4C146.644 232.3 142.344 235.7 140.044 233.5C139.694 233.13 139.431 232.687 139.275 232.202C139.12 231.718 139.075 231.204 139.144 230.7C139.744 227.3 146.344 225.8 150.244 224.9C152.687 224.413 155.159 224.079 157.644 223.9" stroke="var(--cros-sys-illo-color1)" stroke-width="2" stroke-linecap="round" stroke-linejoin="round" />
<path d="M154.644 218.9C151.179 219.392 147.765 220.195 144.444 221.3C139.444 223 133.244 225.1 132.944 228.5C132.884 229.094 132.983 229.693 133.228 230.238C133.474 230.782 133.859 231.252 134.344 231.6C135.115 232.004 135.984 232.18 136.852 232.11C137.719 232.039 138.549 231.723 139.244 231.2" stroke="var(--cros-sys-illo-color1)" stroke-width="2" stroke-linecap="round" stroke-linejoin="round" />
<path d="M151.544 214.8C148.479 215.313 145.442 215.98 142.444 216.8C138.144 218 136.344 218.9 134.744 220.2C133.369 221.353 132.361 222.882 131.844 224.6C131.65 224.988 131.549 225.416 131.549 225.85C131.549 226.284 131.65 226.712 131.844 227.1C132.032 227.519 132.347 227.869 132.744 228.1" stroke="var(--cros-sys-illo-color1)" stroke-width="2" stroke-linecap="round" stroke-linejoin="round" />
<path d="M191.644 185.5L190.944 196" stroke="var(--cros-sys-illo-color1)" stroke-width="2" stroke-miterlimit="10" stroke-linecap="round" />
<path d="M155.844 92.4L154.644 98.6L158.344 97.6L157.944 95.9C157.581 94.5616 156.854 93.3501 155.844 92.4Z" fill="var(--cros-sys-illo-color2)" />
<path d="M159.544 103.2L158.644 98.9L155.044 99.9C154.824 99.9993 154.578 100.024 154.343 99.9696C153.903 99.8681 153.437 99.4806 153.327 99.0416C153.275 98.8302 153.28 98.6084 153.344 98.4L154.644 91.7C153.333 91.0911 151.861 90.916 150.444 91.2L143.144 92.8C141.527 93.1823 140.122 94.1787 139.226 95.5784C138.33 96.9781 138.014 98.6713 138.344 100.3L140.044 107.6C140.21 108.403 140.534 109.166 140.997 109.843C141.46 110.52 142.053 111.099 142.741 111.546C143.43 111.992 144.2 112.297 145.007 112.444C145.814 112.591 146.642 112.576 147.444 112.4L154.844 110.8C155.649 110.623 156.41 110.288 157.084 109.813C157.758 109.339 158.33 108.735 158.768 108.037C159.206 107.338 159.5 106.56 159.633 105.746C159.766 104.933 159.736 104.101 159.544 103.3V103.2Z" fill="var(--cros-sys-illo-color2)" />
<path d="M157.744 82.6L170.544 94.2L158.344 97.6L158.644 98.9L170.944 95.5C171.295 95.3455 171.573 95.0626 171.722 94.7092C171.871 94.3559 171.879 93.959 171.744 93.6C171.641 93.4884 171.571 93.3496 171.544 93.2H171.444L158.644 81.7C158.446 81.5512 158.219 81.4472 157.977 81.3954C157.735 81.3436 157.485 81.3452 157.244 81.4C156.813 81.6364 156.49 82.0307 156.344 82.5L154.644 91.7L155.844 92.5L157.744 82.6Z" fill="var(--cros-sys-illo-color1)" />
<path d="M241.444 103.8C243.653 103.8 245.444 102.009 245.444 99.8C245.444 97.5909 243.653 95.8 241.444 95.8C239.235 95.8 237.444 97.5909 237.444 99.8C237.444 102.009 239.235 103.8 241.444 103.8Z" fill="var(--cros-sys-illo-color5)" />
<path d="M24.4439 202H94.6439" stroke="var(--cros-sys-illo-color1)" stroke-width="2" stroke-linecap="round" stroke-linejoin="round" />
<path d="M158.044 206.7H172.244" stroke="var(--cros-sys-illo-color1)" stroke-width="2" stroke-linecap="round" stroke-linejoin="round" />
<path d="M227.444 202H237.844" stroke="var(--cros-sys-illo-color1)" stroke-width="2" stroke-linecap="round" stroke-linejoin="round" />
<path d="M171.944 85.3C171.654 84.5719 171.513 83.7934 171.527 83.0099C171.542 82.2265 171.713 81.4538 172.029 80.737C172.346 80.0202 172.802 79.3736 173.371 78.835C173.94 78.2964 174.611 77.8766 175.344 77.6H175.544L188.844 72.4C190.345 71.835 192.006 71.8735 193.479 72.5075C194.952 73.1415 196.122 74.3216 196.744 75.8C197.271 77.3273 197.192 78.9988 196.522 80.4691C195.852 81.9394 194.643 83.0961 193.144 83.7L179.844 88.8C179.099 89.1192 178.295 89.2813 177.485 89.2762C176.674 89.2711 175.873 89.099 175.132 88.7706C174.39 88.4422 173.725 87.9645 173.176 87.3674C172.628 86.7702 172.208 86.0665 171.944 85.3Z" fill="var(--cros-sys-illo-color3)" />
<path d="M212.944 88C213.606 87.9753 214.255 87.8046 214.844 87.5L216.944 87.1C217.834 86.8552 218.766 86.7999 219.679 86.9377C220.592 87.0755 221.466 87.4034 222.244 87.9C223.046 88.584 223.959 89.1252 224.944 89.5C225.605 89.8939 226.339 90.1521 227.101 90.2597C227.863 90.3673 228.639 90.322 229.384 90.1266C230.129 89.9311 230.827 89.5893 231.438 89.1212C232.049 88.6531 232.561 88.068 232.944 87.4C233.336 86.7249 233.59 85.9787 233.692 85.2046C233.793 84.4305 233.74 83.6439 233.536 82.8905C233.331 82.1371 232.979 81.4318 232.5 80.8154C232.02 80.1991 231.424 79.684 230.744 79.3L229.044 78.6L224.444 78.2C222.826 78.0674 221.321 77.3151 220.244 76.1L218.844 74.5L217.444 73.1C216.339 72.2051 215.036 71.5879 213.644 71.3C211.674 70.8869 209.622 71.1947 207.86 72.1674C206.098 73.1401 204.744 74.713 204.044 76.6C203.663 77.6637 203.495 78.7921 203.55 79.9207C203.605 81.0493 203.881 82.156 204.364 83.1776C204.847 84.1991 205.527 85.1155 206.364 85.8743C207.201 86.6332 208.18 87.2196 209.244 87.6H209.544C210.644 87.936 211.796 88.0715 212.944 88Z" fill="var(--cros-sys-illo-color1-2)" />
<path d="M162.344 122C164.127 120.855 166.288 120.455 168.363 120.885C170.438 121.315 172.262 122.541 173.444 124.3C174.04 125.223 174.444 126.256 174.633 127.338C174.822 128.421 174.792 129.53 174.544 130.6C174.935 130.092 175.409 129.653 175.944 129.3C177.671 128.146 179.776 127.699 181.823 128.053C183.871 128.406 185.704 129.533 186.944 131.2C187.401 131.801 188.075 132.2 188.822 132.312C189.569 132.425 190.33 132.241 190.944 131.8H191.044L191.544 131.5C193.086 130.571 194.891 130.176 196.68 130.375C198.469 130.573 200.143 131.355 201.444 132.6C201.999 133.2 202.47 133.873 202.844 134.6C202.993 134.923 203.206 135.212 203.471 135.45C203.736 135.687 204.046 135.868 204.384 135.98C204.721 136.093 205.078 136.135 205.433 136.104C205.787 136.073 206.131 135.969 206.444 135.8C206.644 135.8 206.744 135.7 206.944 135.5L211.644 132C212.891 131.096 214.437 130.706 215.964 130.911C217.49 131.115 218.879 131.899 219.844 133.1C220.424 133.872 220.833 134.758 221.044 135.7C221.273 136.721 221.222 137.784 220.896 138.778C220.57 139.772 219.981 140.66 219.192 141.346C218.403 142.033 217.443 142.494 216.413 142.679C215.384 142.865 214.323 142.768 213.344 142.4L206.244 140.1C205.606 139.896 204.915 139.937 204.305 140.214C203.695 140.491 203.21 140.985 202.944 141.6C202.356 142.85 201.451 143.925 200.318 144.716C199.185 145.507 197.865 145.987 196.489 146.109C195.113 146.23 193.728 145.988 192.475 145.408C191.221 144.827 190.142 143.928 189.344 142.8C188.905 142.205 188.248 141.809 187.518 141.696C186.787 141.584 186.042 141.765 185.444 142.2H185.344L185.044 142.4C183.329 143.621 181.202 144.116 179.124 143.779C177.046 143.442 175.185 142.3 173.944 140.6C173.299 139.624 172.867 138.522 172.677 137.368C172.488 136.213 172.545 135.031 172.844 133.9C172.429 134.386 171.959 134.822 171.444 135.2C170.591 135.792 169.629 136.209 168.614 136.429C167.599 136.649 166.551 136.666 165.529 136.481C164.508 136.295 163.533 135.909 162.66 135.347C161.787 134.784 161.034 134.054 160.444 133.2C159.816 132.346 159.366 131.375 159.121 130.343C158.876 129.312 158.841 128.242 159.019 127.197C159.196 126.152 159.582 125.153 160.153 124.26C160.724 123.368 161.469 122.599 162.344 122Z" fill="var(--cros-sys-illo-color1)" />
<path d="M75.0439 55.1C73.6778 55.9699 72.5922 57.2162 71.918 58.6888C71.2439 60.1614 71.0097 61.7974 71.2439 63.4C71.2678 65.282 71.8224 67.1191 72.8439 68.7C73.3347 69.4938 73.9906 70.1726 74.7671 70.6903C75.5436 71.2079 76.4224 71.5523 77.3439 71.7C78.5133 71.8313 79.6968 71.6613 80.782 71.2062C81.8672 70.7511 82.8179 70.0261 83.5439 69.1C84.9788 67.1857 85.814 64.8889 85.9439 62.5C86.1373 60.5219 85.7184 58.5322 84.7439 56.8C83.7036 55.3047 82.1283 54.2664 80.3439 53.9C78.4918 53.6778 76.6197 54.1016 75.0439 55.1" stroke="var(--cros-sys-illo-base)" stroke-width="2" stroke-linecap="round" stroke-linejoin="round" />
<path d="M71.7439 59.3C70.5765 62.082 68.9543 64.6504 66.9439 66.9C65.1439 68.6 62.1439 70.1 59.5439 69.9" stroke="var(--cros-sys-illo-base)" stroke-width="2" stroke-linecap="round" stroke-linejoin="round" />
<path d="M89.2439 55.9C84.7439 64.1 85.2439 73.9 84.0439 83.1C83.6857 86.638 82.6322 90.0703 80.9439 93.2C78.6439 96.9 73.7439 100 69.3439 98.4C67.8196 97.8333 66.5581 96.7239 65.8015 95.2844C65.0449 93.845 64.8463 92.1769 65.2439 90.6C65.864 88.4305 66.9956 86.4414 68.5439 84.8C73.3439 79.6 80.4439 77.6 87.1439 75.8C93.8439 74 101.444 72.5 107.644 68.7" stroke="var(--cros-sys-illo-base)" stroke-width="2" stroke-linecap="round" stroke-linejoin="round" />
<path d="M134.644 84.3H18.9439V87.3H134.644V84.3Z" fill="var(--cros-sys-illo-color1)" />
<path d="M47.2439 110.4H110.744" stroke="var(--cros-sys-illo-base)" stroke-width="2" stroke-miterlimit="10" stroke-linecap="round" />
<path d="M47.2439 136.1H110.744" stroke="var(--cros-sys-illo-base)" stroke-width="2" stroke-miterlimit="10" stroke-linecap="round" />
<path d="M47.2439 123H110.744" stroke="var(--cros-sys-illo-base)" stroke-width="2" stroke-miterlimit="10" stroke-linecap="round" />
</g>
<defs>
<clipPath id="clip0_3_31049">
<rect width="256" height="256" fill="var(--cros-sys-illo-base)" transform="translate(0.243896)" />
</clipPath>
</defs>
</svg>