<svg id="illo_ready_to_scan" xmlns="http://www.w3.org/2000/svg" width="257" height="256" viewBox="0 0 257 256" fill="none">
<path d="M31.4861 225.122H226.017" stroke="var(--cros-sys-illo-color1-2)" stroke-width="2" stroke-miterlimit="10" stroke-linecap="round" />
<path d="M96.5642 155.433C98.0258 153.113 100.317 151.436 102.97 150.745C109.845 149.027 116.252 156.527 127.502 164.886C128.674 165.824 138.986 173.558 148.752 177.933C166.642 186.214 193.986 188.714 205.158 175.355C207.091 172.984 208.526 170.247 209.377 167.308" stroke="var(--cros-sys-illo-color1)" stroke-width="2" stroke-linecap="round" stroke-linejoin="round" />
<path d="M115.47 165.745C114.748 165.102 113.879 164.644 112.94 164.413C112 164.181 111.019 164.183 110.08 164.417C109.767 164.452 109.466 164.554 109.196 164.716C108.927 164.877 108.695 165.095 108.517 165.355C108.017 165.939 107.693 166.652 107.583 167.413C107.472 168.173 107.579 168.95 107.892 169.652" stroke="var(--cros-sys-illo-color1-2)" stroke-width="2" stroke-linecap="round" stroke-linejoin="round" />
<path d="M128.205 136.214C128.082 136.78 128.081 137.365 128.202 137.931C128.323 138.497 128.564 139.03 128.908 139.496C129.174 139.973 129.558 140.374 130.023 140.661C130.488 140.949 131.018 141.112 131.564 141.136C132.191 141.101 132.803 140.929 133.357 140.632C133.91 140.335 134.392 139.921 134.767 139.417" stroke="var(--cros-sys-illo-color1-2)" stroke-width="2" stroke-linecap="round" stroke-linejoin="round" />
<path d="M30.4705 154.73C39.4548 157.308 48.9079 159.886 58.6736 162.308C65.8611 164.105 72.8142 165.746 79.6111 167.152C79.6111 167.152 82.1892 167.699 97.1111 169.652C108.361 171.058 113.517 171.449 115.314 168.636C115.742 167.935 115.982 167.134 116.009 166.313C116.036 165.492 115.851 164.677 115.47 163.949C114.767 162.308 113.049 161.058 104.064 159.105C95.0798 157.152 92.8923 157.23 92.1892 155.355C91.4861 153.48 93.0486 151.683 94.2986 150.433" stroke="var(--cros-sys-illo-color1)" stroke-width="2" stroke-linecap="round" stroke-linejoin="round" />
<path d="M93.5173 122.542C91.0173 120.042 86.9548 120.824 84.0642 121.683C81.1735 122.542 76.8767 124.495 73.3611 126.058L64.6892 130.042C60.1579 132.152 52.5798 132.855 38.9861 126.996" stroke="var(--cros-sys-illo-color1)" stroke-width="2" stroke-linecap="round" stroke-linejoin="round" />
<path d="M94.2986 150.433C95.5486 149.496 104.142 143.714 109.845 141.214C111.143 140.588 112.549 140.217 113.986 140.12C116.048 140.124 118.089 140.522 120.002 141.292C123.439 142.542 125.47 144.027 129.142 144.886C132.814 145.746 134.142 145.511 135.705 143.558C137.267 141.605 135.08 139.027 132.658 138.011L130.939 137.23L126.877 134.808C124.064 132.933 122.58 131.527 119.299 130.511C117.895 130.062 116.458 129.722 115.002 129.496C111.902 129.269 108.787 129.56 105.783 130.355C102.409 131.119 99.1512 132.327 96.0954 133.949" stroke="var(--cros-sys-illo-color1)" stroke-width="2" stroke-linecap="round" stroke-linejoin="round" />
<path d="M90.3923 129.886C94.3023 128.015 98.3507 126.447 102.502 125.199C105.555 124.471 108.733 124.444 111.799 125.121C114.845 125.746 118.908 128.089 120.549 130.824" stroke="var(--cros-sys-illo-color1)" stroke-width="2" stroke-linecap="round" stroke-linejoin="round" />
<path d="M102.502 125.199C100.52 123.465 97.9435 122.569 95.3142 122.699C92.3679 123.063 89.4955 123.88 86.7986 125.12L83.9861 126.449" stroke="var(--cros-sys-illo-color1)" stroke-width="2" stroke-linecap="round" stroke-linejoin="round" />
<path d="M113.205 140.199C115.002 140.589 116.408 141.917 117.814 143.011C119.117 144.193 120.664 145.074 122.345 145.589C123.177 145.892 124.072 145.98 124.946 145.843C125.821 145.706 126.646 145.35 127.345 144.808" stroke="var(--cros-sys-illo-color1)" stroke-width="2" stroke-linecap="round" stroke-linejoin="round" />
<path d="M56.0955 132.542C53.9861 141.449 51.7986 150.355 49.6892 159.183L41.2517 157.621L47.8923 130.824L56.0955 132.542Z" fill="var(--cros-sys-illo-color1)" stroke="var(--cros-sys-illo-color1)" stroke-width="2" stroke-linecap="round" stroke-linejoin="round" />
<path d="M51.4861 148.089C55.4988 148.089 58.7517 144.836 58.7517 140.824C58.7517 136.811 55.4988 133.558 51.4861 133.558C47.4734 133.558 44.2205 136.811 44.2205 140.824C44.2205 144.836 47.4734 148.089 51.4861 148.089Z" fill="var(--cros-sys-illo-base)" stroke="var(--cros-sys-illo-color1)" stroke-width="2" stroke-linecap="round" stroke-linejoin="round" />
<path d="M53.5173 139.027L50.783 140.98L54.4548 141.839" stroke="var(--cros-sys-illo-color1)" stroke-width="2" stroke-linecap="round" stroke-linejoin="round" />
<path d="M187.04 57.7437L183.593 58.7584C182.848 58.9776 182.39 59.6533 182.571 60.2675L218.621 182.754C218.801 183.368 219.552 183.688 220.297 183.469L223.745 182.455C224.49 182.235 224.947 181.56 224.766 180.945L188.717 58.4587C188.536 57.8445 187.785 57.5244 187.04 57.7437Z" fill="var(--cros-sys-illo-color1-2)" />
<path d="M206.794 207.552C208.52 207.552 209.919 206.153 209.919 204.427C209.919 202.701 208.52 201.302 206.794 201.302C205.068 201.302 203.669 202.701 203.669 204.427C203.669 206.153 205.068 207.552 206.794 207.552Z" fill="var(--cros-sys-illo-color2)" />
<path d="M94.1423 79.183C94.3329 80.2376 94.9324 81.1743 95.8104 81.7889C96.6884 82.4034 97.7737 82.6462 98.8298 82.4642H98.9861L108.517 80.5892C109.582 80.3466 110.508 79.6933 111.093 78.7715C111.678 77.8497 111.876 76.7341 111.642 75.6674V75.6674C111.435 74.6109 110.816 73.6802 109.922 73.0796C109.029 72.479 107.933 72.2577 106.877 72.4642H106.799L97.3454 74.4955C96.321 74.7041 95.4164 75.2995 94.8198 76.158C94.2232 77.0166 93.9806 78.072 94.1423 79.1049V79.183Z" fill="var(--cros-sys-illo-color4)" />
<path d="M187.987 154.239L187.918 154.276C184.292 156.187 182.897 160.667 184.803 164.282C186.709 167.896 191.193 169.277 194.819 167.365L194.888 167.328C198.514 165.417 199.908 160.937 198.003 157.322C196.097 153.708 191.613 152.328 187.987 154.239Z" fill="var(--cros-sys-illo-color1-2)" />
<path d="M72.1892 80.1205L74.0642 75.5111C74.0996 75.3736 74.1809 75.2523 74.2945 75.1671C74.4081 75.0819 74.5473 75.0379 74.6892 75.0424L79.6111 74.3393C79.7555 74.3372 79.8989 74.3637 80.033 74.4174C80.1671 74.471 80.2892 74.5507 80.3924 74.6518L83.3611 78.558C83.4503 78.6657 83.5054 78.7975 83.5194 78.9367C83.5333 79.0759 83.5054 79.216 83.4392 79.3393L81.6423 83.9486C81.5905 84.0617 81.5148 84.1621 81.4204 84.2431C81.326 84.324 81.2151 84.3835 81.0955 84.4174L76.1736 85.1205C76.0286 85.1273 75.8838 85.1029 75.7491 85.049C75.6143 84.9951 75.4927 84.9129 75.3923 84.808L72.3454 80.9018C72.2583 80.7938 72.1986 80.6664 72.1714 80.5303C72.1441 80.3943 72.1503 80.2537 72.1892 80.1205V80.1205Z" fill="var(--cros-sys-illo-color3)" />
<path d="M136.017 70.7455H136.095C139.022 69.2187 142.432 68.9036 145.589 69.8682C148.746 70.8328 151.397 72.9998 152.97 75.9017V75.9017C154.512 78.834 154.827 82.2584 153.846 85.4225C152.864 88.5867 150.667 91.2318 147.736 92.7768H147.658C144.726 94.3186 141.301 94.6333 138.137 93.6518C134.973 92.6704 132.328 90.473 130.783 87.5424V87.5424C130.021 86.0963 129.552 84.5141 129.403 82.8866C129.254 81.259 129.428 79.6179 129.914 78.0576C130.4 76.4972 131.19 75.0481 132.237 73.7933C133.284 72.5386 134.569 71.5029 136.017 70.7455V70.7455Z" stroke="var(--cros-sys-illo-color5)" stroke-width="2" stroke-linecap="round" stroke-linejoin="round" />
<path d="M189.455 128.792C188.887 127.278 187.978 125.915 186.799 124.808V124.808C186.188 124.13 185.477 123.55 184.689 123.089L182.58 121.449C181.766 120.831 181.084 120.056 180.574 119.171C180.064 118.285 179.737 117.306 179.611 116.292C179.41 115.574 179.253 114.843 179.142 114.105C179.042 112.4 178.618 110.729 177.892 109.183L177.189 110.042L176.408 110.745C176.85 111.928 177.139 113.162 177.267 114.417L177.58 116.683C178.059 119.145 179.352 121.374 181.252 123.011L183.439 124.73H183.595C184.247 125.158 184.849 125.656 185.392 126.214C186.815 127.69 187.761 129.558 188.11 131.578C188.458 133.598 188.192 135.676 187.345 137.542C186.785 138.795 185.966 139.916 184.943 140.832C183.92 141.747 182.715 142.436 181.408 142.855C179.135 143.58 176.679 143.476 174.476 142.56C172.273 141.645 170.466 139.977 169.377 137.855C168.583 136.368 168.206 134.695 168.283 133.011C168.266 132.244 168.371 131.479 168.595 130.745V130.745L168.986 128.011C169.362 125.338 168.69 122.623 167.111 120.433L166.408 119.495L164.767 117.23L164.611 116.839L162.502 117.152C162.62 117.545 162.805 117.915 163.049 118.245C163.576 119.109 164.15 119.944 164.767 120.746L165.47 121.605C166.13 122.461 166.602 123.445 166.858 124.495C167.114 125.544 167.147 126.636 166.955 127.699L166.642 130.355C166.392 131.218 166.261 132.112 166.252 133.011C166.145 136.164 167.281 139.232 169.414 141.555C171.547 143.878 174.508 145.271 177.658 145.433H178.283C179.532 145.422 180.772 145.211 181.955 144.808C183.53 144.341 184.987 143.541 186.227 142.463C187.467 141.385 188.461 140.053 189.142 138.558C189.87 137.041 190.273 135.389 190.327 133.708C190.381 132.027 190.084 130.353 189.455 128.792Z" fill="var(--cros-sys-illo-color1)" />
<path d="M162.267 110.745C162.647 109.562 163.286 108.478 164.137 107.573C164.989 106.667 166.031 105.963 167.189 105.511L167.658 105.355C169.096 104.857 170.641 104.746 172.136 105.034C173.63 105.322 175.023 105.999 176.174 106.995C176.877 107.612 177.459 108.354 177.892 109.183C181.327 105.135 183.167 99.9734 183.067 94.6656C182.966 89.3578 180.932 84.2692 177.345 80.3549C177.097 80.0233 176.727 79.8042 176.316 79.7456C175.906 79.687 175.49 79.7937 175.158 80.0424C175.019 80.105 174.908 80.2161 174.845 80.3549L147.267 109.73C147.102 109.914 146.976 110.129 146.894 110.363C146.813 110.596 146.778 110.844 146.793 111.091C146.807 111.337 146.87 111.579 146.979 111.801C147.087 112.024 147.238 112.222 147.424 112.386H147.502C151.79 115.667 157.111 117.302 162.502 116.995C161.641 115.016 161.558 112.784 162.267 110.745Z" fill="var(--cros-sys-illo-color2)" />
<path d="M170.47 106.917C169.729 106.906 168.991 107.011 168.283 107.23H167.97C167.081 107.597 166.28 108.15 165.62 108.85C164.96 109.55 164.456 110.383 164.142 111.292C163.829 112.159 163.709 113.083 163.79 114C163.871 114.918 164.151 115.807 164.611 116.605C169.08 115.897 173.21 113.791 176.408 110.589C176.08 109.74 175.543 108.987 174.845 108.402C173.63 107.366 172.065 106.835 170.47 106.917V106.917Z" fill="var(--cros-sys-illo-color2)" />
<rect x="57.4294" y="185.287" width="161.519" height="37.7483" rx="10" stroke="var(--cros-sys-illo-color1)" stroke-width="2" />
<line x1="57.321" y1="213.272" x2="218.948" y2="213.272" stroke="var(--cros-sys-illo-color1)" stroke-width="2" />
</svg>