<svg xmlns="http://www.w3.org/2000/svg" viewBox="0 0 256 256">
  <g id="Layer_2" data-name="Layer 2"><g><rect width="256" height="256" fill="#fff"/><path d="M101,174.4c.7.6,5,4.4,10.3,3.4s8.3-6.1,8.6-6.7c1.8-3.2,1.4-5.8,3.6-6.8a4,4,0,0,1,4.2.4c2.2,1.7,1.1,6.1.7,8.1a14.5,14.5,0,0,1-2.8,6,15.2,15.2,0,0,1-6.8,4.7,14.5,14.5,0,0,1-8.5,0" fill="none" stroke="#4285f4" stroke-linecap="round" stroke-linejoin="round" stroke-width="2"/><path d="M96.4,201c6.6,0,13.2-.1,19.7-1.4s12.7-2.9,15.8-8.4c1.6-3,1.8-6.6,1.9-10.1a12.3,12.3,0,0,0-.2-2.7,3.3,3.3,0,0,0-1.8-2" fill="none" stroke="#4285f4" stroke-linecap="round" stroke-linejoin="round" stroke-width="2"/><path d="M114.6,189.4a37.4,37.4,0,0,0,5-.7,15.3,15.3,0,0,0,6.7-2.7,14.3,14.3,0,0,0,2.9-3.6,21,21,0,0,0,2.3-6.5c.4-1.8.5-2.9-.1-4.2A5.9,5.9,0,0,0,129,169" fill="none" stroke="#4285f4" stroke-linecap="round" stroke-linejoin="round" stroke-width="2"/><path d="M101,174.4a22.2,22.2,0,0,1,1.5-3.2l.4-.8.9-1.3c1.2-1.9,2.4-3.9,2.5-6.2a2.3,2.3,0,0,0-.4-1.8,2.3,2.3,0,0,0-2.6-.6,6.6,6.6,0,0,0-2.4,1.5c-1.5,1.8-5.8,7.1-11.5,14.4" fill="none" stroke="#4285f4" stroke-linecap="round" stroke-linejoin="round" stroke-width="2"/><path d="M110.6,133l-5.8-12.7-12.2-.5-3.3,10.4" fill="none" stroke="#4285f4" stroke-linecap="round" stroke-linejoin="round" stroke-width="2"/><circle cx="102.6" cy="111.7" r="12.3" fill="#fff" stroke="#4285f4" stroke-linecap="round" stroke-linejoin="round" stroke-width="2"/><path d="M105.3,114.7a8,8,0,0,0,6.1-1.7" fill="none" stroke="#4285f4" stroke-linecap="round" stroke-linejoin="round" stroke-width="2"/><path d="M109,101.9a9.5,9.5,0,0,0-8.6-2c-2.9.7-5.7,1.1-7.7,3.4s-2.2,4.5-2.8,6.3a9.3,9.3,0,0,0-.5,2.9c0,1.5.5,1.2,1.6.8a53.9,53.9,0,0,0,12.1-6.4A55.7,55.7,0,0,0,109,101.9Z" fill="#4285f4"/><path d="M97.1,102.8c-1.2.5-1.9,3-3.3,3.7.2-.1-2.4-1.8-1.4-3.1a17.5,17.5,0,0,1,3.8-3.4l4.8-3.5,4.6-3.6,2.1-1.3a6.5,6.5,0,0,1,2.7-.8A3.2,3.2,0,0,1,113,92a4.2,4.2,0,0,1-.2,3.6,11.2,11.2,0,0,1,3.5-1.2,2.8,2.8,0,0,1,2.2.4,3.1,3.1,0,0,1,.9,1.9c.3,3-1.6,5.7-3.5,8l-1.3,1.1c-.4.1-2-2.3-2.8-2.8-4-2.4-5.7-4.1-14.7-.2" fill="#4285f4"/><path d="M116.4,193.7a42.3,42.3,0,0,0,5.1-.6,16,16,0,0,0,6.7-2.8,10.6,10.6,0,0,0,2.8-3.5,18.9,18.9,0,0,0,2.4-6.5,7.3,7.3,0,0,0-.1-4.2,5.7,5.7,0,0,0-1.5-2" fill="none" stroke="#4285f4" stroke-linecap="round" stroke-linejoin="round" stroke-width="2"/><path d="M100.3,214.2c-14.6,11.9-34.5,13.5-49.2,4.4-17.9-11-20.3-33.1-17.6-46.5,3.9-19.3,20.9-35.3,43.6-40.5a69,69,0,0,1,12.2-1.7,15,15,0,0,0,10.5,6.9,13.7,13.7,0,0,0,11.3-4.2,45.2,45.2,0,0,1,8.8,2.5c18.9,7.4,27.8,25.3,31,32.6l22.2-9.1,18,28.6c-15.3,17.4-35.7,25.4-52.1,19.9a35.1,35.1,0,0,1-14-9.1" fill="none" stroke="#4285f4" stroke-linecap="round" stroke-linejoin="round" stroke-width="2"/><path d="M100.3,214.2c-3.6-12.9-7.3-25.7-11-38.6l-18.9,7.6-.8-16" fill="none" stroke="#4285f4" stroke-linecap="round" stroke-linejoin="round" stroke-width="2"/><polyline points="98.6 206.7 115.5 206.7 117.9 199.3" fill="none" stroke="#4285f4" stroke-linecap="round" stroke-linejoin="round" stroke-width="2"/><path d="M225.1,37.3C200,14,154.9,17.6,131.8,49.7l-.5,2.7,8.9-1.1a3.5,3.5,0,0,1,3.3,1.4l6.5,8.6a3.4,3.4,0,0,1,.5,3.5l-4.2,9.9a3.7,3.7,0,0,1-2.9,2.2l-10.7,1.3a3.2,3.2,0,0,1-3.2-1.4l-2-2.5-12,68.3,21,17.6L227.4,124C250.4,97.3,247.7,58.2,225.1,37.3Z" fill="#d2e3fc"/><path d="M129.5,52.6a3.7,3.7,0,0,0-2.8,2.2l-4.2,9.9a3.4,3.4,0,0,0,.5,3.5l4.5,6.1,3.8-21.9Z" fill="#fbbc05"/><path d="M104.9,166.9l8.7-10.5,3.5-14.8,21,17.5-14.8,5.6-7.6,9.4c-2.5,4-7.7,4.6-10.4,2.2A7.1,7.1,0,0,1,104.9,166.9Z" fill="#d2e3fc" stroke="#4285f4" stroke-linecap="round" stroke-linejoin="round" stroke-width="2"/><circle cx="130.5" cy="146.5" r="14.7" fill="#d2e3fc" stroke="#4285f4" stroke-linecap="round" stroke-linejoin="round" stroke-width="2"/><path d="M113.6,156.1a7.3,7.3,0,0,0,10.5,8.2" fill="#d2e3fc" stroke="#4285f4" stroke-linecap="round" stroke-linejoin="round" stroke-width="2"/><path d="M111.8,74c-6.8-4.7-11.4-4.9-14.5-3.9-6.2,2-6.9,9-13.4,11.6s-10.8.2-15.3-2.1" fill="none" stroke="#e6e7ea" stroke-linecap="round" stroke-linejoin="round" stroke-width="2.63"/><path d="M132.1,134.8a11.9,11.9,0,0,0-12,7.9c-1.9,5.6,1,12.1,6.9,14.7" fill="none" stroke="#fff" stroke-linecap="round" stroke-linejoin="round" stroke-width="2"/><path d="M186.7,151.3l-.2.2c2.6-1.2,4.6-3.4,6.9-5.1l2.2-1.5a72.3,72.3,0,0,1,8.7-4.6c1.6-.6,4.1-1.7,5.4-.1a2.8,2.8,0,0,1,0,2.9,8.6,8.6,0,0,1-3.1,2.6l-3.8,2.6c-2.5,1.8-5.1,3.5-7.7,5.1l11.8-7.6c1.2-.7,3.3-2,4.7-2.1s2.9.8,2.3,2.5a5.8,5.8,0,0,1-1.8,2.3,61.6,61.6,0,0,1-6.3,4.1c-3.2,1.9-5.4,3.3-8.1,5.1q3.9-2.7,8.1-5.1l4.1-2.3c1.1-.6,3.1-2.2,4.2-1.5,2.6,1.6-.1,4.2-1.1,4.9L199.9,162l8.2-5.2a12.3,12.3,0,0,1,4.6-2.2,1.9,1.9,0,0,1,2.3,1.1,2.7,2.7,0,0,1-.2,2.6,11,11,0,0,1-3.1,2.6c-3.7,2.5-5.4,3.7-9,6.5s-4.2,5.2-7,7.7a19.1,19.1,0,0,1-8.2,4.3" fill="none" stroke="#4285f4" stroke-linecap="round" stroke-linejoin="round" stroke-width="2"/><path d="M187,163.8a14.6,14.6,0,0,0-.9-12.4c-.3-.4,1.1-2.5,1.4-3s1.5-3.3,1.3-4.9a1.8,1.8,0,0,0-1.6-1.8c-1.1-.2-1.9.7-2.7,1.5a50.3,50.3,0,0,0-10.2,15.5" fill="none" stroke="#4285f4" stroke-linecap="round" stroke-linejoin="round" stroke-width="2"/><path d="M208.8,106h0a7.3,7.3,0,0,1,10.2,2.4l9.2,14.9a7.5,7.5,0,0,1-2.5,10.3h0a7.4,7.4,0,0,1-10.3-2.5l-9.1-14.9A7.3,7.3,0,0,1,208.8,106Z" fill="none" stroke="#ea4335" stroke-linecap="round" stroke-linejoin="round" stroke-width="2"/><circle cx="184.2" cy="73.8" r="30.1" fill="none" stroke="#4285f4" stroke-linecap="round" stroke-linejoin="round" stroke-width="2" stroke-dasharray="6"/><path d="M179.8,77.4a8.4,8.4,0,0,1,2.5-3.4,18.3,18.3,0,0,1,4.7-2.4,29.3,29.3,0,0,0,3.8-1.7,5.6,5.6,0,0,0,2-2.5,5.1,5.1,0,0,0,0-4.2,5.7,5.7,0,0,0-3.4-3,5.2,5.2,0,0,0-4.2-.2,8.8,8.8,0,0,0-3.4,2.4l-3-3a11.9,11.9,0,0,1,5.3-3.4,9.8,9.8,0,0,1,6.9.4,12.2,12.2,0,0,1,4.4,3.2,9.2,9.2,0,0,1,1.4,9.4,8.5,8.5,0,0,1-3.1,3.8,23.8,23.8,0,0,1-4.8,2.2,12.6,12.6,0,0,0-3.3,1.7,7.7,7.7,0,0,0-1.9,2.7l-.8,1.9-4-1.7Zm-4.7,11.1a3.4,3.4,0,0,1,1.8-4.2,3.3,3.3,0,0,1,4.1,1.8,2.5,2.5,0,0,1,0,2.4,2.9,2.9,0,0,1-1.7,1.7,2.5,2.5,0,0,1-2.4,0A3.3,3.3,0,0,1,175.1,88.5Z" fill="#4285f4"/><circle cx="231.5" cy="152.7" r="4" fill="#f882ff"/><path d="M83.4,131.1c4.3,8.6,12.9,13.3,20.8,11.9s10.7-6.6,11.7-8" fill="none" stroke="#4285f4" stroke-linecap="round" stroke-linejoin="round" stroke-width="2"/></g></g>
</svg>