<svg xmlns="http://www.w3.org/2000/svg" viewBox="0 0 256 256"><g id="Layer_2" data-name="Layer 2">
<g><rect width="256" height="256" fill="#fff"/><path d="M95.5,186.8H28.8a3.8,3.8,0,0,1-3.9-3.9V41.6a3.8,3.8,0,0,1,3.9-3.9h95.9a3.9,3.9,0,0,1,4,3.9V154.9Z" fill="#d2e3fc"/><path d="M152,160.6l20.4-3.9a141.7,141.7,0,0,0,0,32,135.2,135.2,0,0,0,3.3,18H160.4a169.4,169.4,0,0,1-6-24.1A173.1,173.1,0,0,1,152,160.6Z" fill="#d2e3fc" stroke="#4285f4" stroke-linecap="round" stroke-linejoin="round" stroke-width="2"/><path d="M171,156.3l-18.8,3.5c-2.9.1-8.9,2.8-13.4,6.2a62.6,62.6,0,0,0-12.6,12.8" fill="none" stroke="#4285f4" stroke-linecap="round" stroke-linejoin="round" stroke-width="2"/><path d="M165.2,145.6c.7,1.8,1.7,4.7,3,8.3s2.1,4.9,1.8,6.6-3.2,6.1-6.9,5.7a6.5,6.5,0,0,1-5.7-6.2c-.2-2.2-.3-4.4-.5-6.6a8.4,8.4,0,0,0,4.9-1.5A8.9,8.9,0,0,0,165.2,145.6Z" fill="#fff" stroke="#4285f4" stroke-linecap="round" stroke-linejoin="round" stroke-width="2"/><ellipse cx="155.2" cy="143.1" rx="10.9" ry="10.8" transform="translate(-6.8 278.4) rotate(-82.5)" fill="#fff" stroke="#4285f4" stroke-linecap="round" stroke-miterlimit="10" stroke-width="2"/><path d="M144.1,139.7l8.4-4.9,13.4,9c1.5-5.3-2.5-10.8-8.4-12.1S144.8,133.9,144.1,139.7Z" fill="#4285f4"/><path d="M149.1,146.1a4,4,0,0,0,2,2.3,3.2,3.2,0,0,0,3.5-1.1" fill="none" stroke="#4285f4" stroke-linecap="round" stroke-linejoin="round" stroke-width="2"/><g id="Sleeve"><path d="M177.9,158.3c1.9-3.7,13.9-2.1,21.7.9,12,4.7,25.5,17.4,27,33.7,1.9,20.4-15.1,41.9-40.9,46.1l-13.5-34.8L194,196a33.7,33.7,0,0,0-1.7-10c-2.5-7-6.7-10.7-12.6-22C177.8,160.4,177.4,159.3,177.9,158.3Z" fill="#fff"/><path d="M169.4,156.6l1.6-.3c27.9-5.3,52.7,13.7,55.3,36.1,2.4,20.8-15,43.4-40.9,46.2l-13.5-34.8,21.8-8.3-2.3-10" fill="none" stroke="#4285f4" stroke-linecap="round" stroke-linejoin="round" stroke-width="2"/></g><path id="Had_Fill" data-name="Had Fill" d="M159.1,130.7c-.8-1.9-3.8-2.7-7-2.9a37.2,37.2,0,0,0-17-.2,36.2,36.2,0,0,0-12.1,5.1,40.1,40.1,0,0,0-13.9,14c-4.3,7.3-6.4,16.3-5.4,20.9a29.8,29.8,0,0,1,.7,4.4,24.3,24.3,0,0,1-.4,6l19.2-10c-.1-.5-.5-2-1.1-4s-.9-3.2-.6-4,.8-1.5,3-2.1a36.9,36.9,0,0,0,2.9-2.8,29.7,29.7,0,0,0,6.5-10.8,16.6,16.6,0,0,1,7.8-3.7c4.7-.8,9,1,10.6-1.2a2.4,2.4,0,0,0,.5-1.5,5.3,5.3,0,0,0,3.7-2.4,2.3,2.3,0,0,0,.5-1h.1a3.2,3.2,0,0,0,1.9-1.6A3.1,3.1,0,0,0,159.1,130.7Z" fill="#fff"/><g id="Hand_Srtoke" data-name="Hand Srtoke"><path d="M129.4,134.1a39.2,39.2,0,0,1,13.2-3.1c4.6-.3,13.3,0,14.1,3a3,3,0,0,1-.6,2.2,5.2,5.2,0,0,1-3.6,2.3" fill="#fff" stroke="#4285f4" stroke-linecap="round" stroke-linejoin="round" stroke-width="2"/><path d="M121.1,160.1a30.9,30.9,0,0,0,5.1-3.6c7.1-6.1,5.6-10.8,10.5-13.8s13.7.4,15.6-3.3a2.7,2.7,0,0,0,.2-2.2c-1.4-3.4-11.6-2.1-13.4-1.8a38.9,38.9,0,0,0-9.8,2.5" fill="none" stroke="#4285f4" stroke-linecap="round" stroke-linejoin="round" stroke-width="2"/><path d="M129.7,131.2a61.1,61.1,0,0,1,12.8-2.6c3.8-.3,14.7-1.2,16.2,2.7a2.9,2.9,0,0,1-.1,2.3,3,3,0,0,1-1.9,1.5" fill="none" stroke="#4285f4" stroke-linecap="round" stroke-linejoin="round" stroke-width="2"/><path d="M150.9,127.5a36.7,36.7,0,0,0-29.3,4.8,40.2,40.2,0,0,0-14,15.7,36,36,0,0,0-3.6,11.1" fill="none" stroke="#4285f4" stroke-linecap="round" stroke-linejoin="round" stroke-width="2"/></g><path d="M127,182.7c-1.9-7.6-3.9-15.1-5.9-22.6l-27.5.5c-10,20.9-2.8,43,11.5,50.2s28.7-1.8,30.3-2.7" fill="#fff" stroke="#4285f4" stroke-linecap="round" stroke-linejoin="round" stroke-width="2"/><g id="Scope"><path d="M121.1,216.4l-9.4-18.1a8.1,8.1,0,0,1,4-8.5,8.2,8.2,0,0,1,9.2.8c3.7,5.6,7.6,12.1,11.3,17.7" fill="#fff" stroke="#4285f4" stroke-linecap="round" stroke-linejoin="round" stroke-width="2"/><path d="M140.3,209.2l-8.9-17.8a8.1,8.1,0,0,1,13.3-7.5l11.5,19.4" fill="#fff" stroke="#4285f4" stroke-linecap="round" stroke-linejoin="round" stroke-width="2"/><path d="M127,195.9a3.5,3.5,0,0,1,1.6-3.9,3.7,3.7,0,0,1,4.7.8l4.2,7.8-6.1,3.3Z" fill="#fff" stroke="#4285f4" stroke-linecap="round" stroke-linejoin="round" stroke-width="2"/><ellipse cx="134.6" cy="202.5" rx="3.5" ry="3.3" transform="translate(-29.1 22.7) rotate(-8.7)" fill="#fff" stroke="#4285f4" stroke-linecap="round" stroke-linejoin="round" stroke-width="2"/><path d="M128.3,198.3a7.4,7.4,0,0,0-12.1,8.4" fill="none" stroke="#4285f4" stroke-linecap="round" stroke-linejoin="round" stroke-width="2"/><path d="M148.9,191a7.6,7.6,0,0,0-8.6-2.9,7.8,7.8,0,0,0-4.5,9.5" fill="none" stroke="#4285f4" stroke-linecap="round" stroke-linejoin="round" stroke-width="2"/><circle cx="129.3" cy="213.4" r="8.7" fill="#7cb1f2" stroke="#4285f4" stroke-miterlimit="10" stroke-width="2"/><circle cx="148.8" cy="207.8" r="8.7" fill="#7cb1f2" stroke="#4285f4" stroke-miterlimit="10" stroke-width="2"/></g><path id="Hand_Fill" data-name="Hand Fill" d="M149.9,224.8l-4.5,1.1.8,4.1,34.1-2.9c-2.2-5.5-4.3-11-6.5-16.4h-6.7c-9-.2-10.5-.9-14.1-.9-9.9.2-19.3,6.3-21.5,10.2a2.4,2.4,0,0,0-.4,1.9c0,.2.1.3.2.5l1.4-.4a6.3,6.3,0,0,0-1.2,2.6,3.2,3.2,0,0,0,0,2.5,4.7,4.7,0,0,0,.9,1l.4-.2a1.4,1.4,0,0,0-.2.6,3.6,3.6,0,0,0,1.5,3.1,4.5,4.5,0,0,0,4.7-.3,3.7,3.7,0,0,0,1,2.2c2.2,2.2,6.5-1.2,15.1-2.1,6.8-.6,8.3,0,13.8-1a53.5,53.5,0,0,0,11.6-3.2C172.5,224.5,161.8,222.3,149.9,224.8Z" fill="#fff"/><g id="Hand"><path d="M174.2,210.8h-7.1c-8.9-.2-10.5-.9-14-.9-9.9.2-19.3,6.3-21.5,10.2a3,3,0,0,0-.5,1.9l.3.5" fill="none" stroke="#4285f4" stroke-linecap="round" stroke-linejoin="round" stroke-width="2"/><path d="M180.4,227.2a53.5,53.5,0,0,1-11.6,3.2c-5.5,1-7,.4-13.8,1-8.6.9-12.9,4.3-15.2,2.1a3.8,3.8,0,0,1-.9-2.8c.6-3.4,7.2-4.9,11.1-5.8a42.2,42.2,0,0,1,7.4-1" fill="none" stroke="#4285f4" stroke-linecap="round" stroke-linejoin="round" stroke-width="2"/><path d="M154.4,218.9a55.1,55.1,0,0,0-10.2,2.4c-5,1.7-11.2,3.8-11.5,7.2a3.8,3.8,0,0,0,1.4,3.1,4.7,4.7,0,0,0,4.9-.4" fill="none" stroke="#4285f4" stroke-linecap="round" stroke-linejoin="round" stroke-width="2"/><path d="M151.3,214.8a88.7,88.7,0,0,0-9.1,2c-4.3,1.2-6.1,2.1-7.7,3.4a8.8,8.8,0,0,0-2.9,4.4,3.2,3.2,0,0,0,0,2.5,4.7,4.7,0,0,0,.9,1" fill="none" stroke="#4285f4" stroke-linecap="round" stroke-linejoin="round" stroke-width="2"/></g><line x1="191.4" y1="185.5" x2="190.7" y2="196" fill="#4285f4" stroke="#4285f4" stroke-linecap="round" stroke-miterlimit="10" stroke-width="2"/><path d="M155.6,92.4l-1.2,6.2,3.7-1-.4-1.7A6.6,6.6,0,0,0,155.6,92.4Z" fill="#39b54a"/><path d="M159.3,103.2l-.9-4.3-3.6,1a1.4,1.4,0,0,1-1.3-.3h-.1a1.3,1.3,0,0,1-.3-1.2l1.3-6.7a6.7,6.7,0,0,0-4.2-.5l-7.3,1.6a6.4,6.4,0,0,0-4.8,7.5l1.7,7.3a6.3,6.3,0,0,0,7.4,4.8l7.4-1.6A6.3,6.3,0,0,0,159.3,103.2Z" fill="#34a853"/><path d="M157.5,82.6l12.8,11.6-12.2,3.4.3,1.3,12.3-3.4a1.5,1.5,0,0,0,.6-2.3.1.1,0,0,1-.1-.1L158.4,81.6a1.7,1.7,0,0,0-1.4-.3,1.7,1.7,0,0,0-.9,1.1l-1.7,9.2,1.2.8Z" fill="#4285f4"/><circle cx="241.2" cy="99.8" r="4" fill="#f882ff"/><line x1="24.2" y1="200.5" x2="94.4" y2="200.5" fill="none" stroke="#4285f4" stroke-linecap="round" stroke-linejoin="round" stroke-width="2"/><line x1="157.8" y1="206.7" x2="172" y2="206.7" fill="none" stroke="#4285f4" stroke-linecap="round" stroke-linejoin="round" stroke-width="2"/><line x1="225.5" y1="208" x2="235.9" y2="208" fill="none" stroke="#4285f4" stroke-linecap="round" stroke-linejoin="round" stroke-width="2"/><path d="M171.7,85.3h0a6,6,0,0,1,3.6-7.8l13.3-5.2a6.1,6.1,0,0,1,7.9,3.4h0a6.2,6.2,0,0,1-3.6,7.9l-13.3,5.1A6.1,6.1,0,0,1,171.7,85.3Z" fill="#fbbc05"/><path d="M212.7,88a5.9,5.9,0,0,0,1.9-.5l2.1-.4a6.6,6.6,0,0,1,5.3.8,14.8,14.8,0,0,0,2.7,1.6,5.9,5.9,0,1,0,4.1-10.9,34.2,34.2,0,0,0-4.6-.4,6.8,6.8,0,0,1-4.2-2.1l-1.4-1.6-1.4-1.4a7.9,7.9,0,0,0-3.8-1.8,8.4,8.4,0,0,0-9.6,5.3,8.6,8.6,0,0,0,5.5,11.1A10,10,0,0,0,212.7,88Z" fill="#d2e3fc"/><path d="M162.1,122a8,8,0,0,1,12.2,8.6,5.8,5.8,0,0,1,1.4-1.3,8,8,0,0,1,11,1.9h0a2.9,2.9,0,0,0,4.1.5l.5-.3a8,8,0,0,1,9.9,1.1,6.6,6.6,0,0,1,1.4,2,2.7,2.7,0,0,0,4.1.9l4.7-3.5a5.9,5.9,0,0,1,9.4,3.7h0a5.9,5.9,0,0,1-7.7,6.7L206,140a2.7,2.7,0,0,0-3.3,1.5,8.5,8.5,0,0,1-2.6,3.1,8,8,0,0,1-11-1.9h0a2.8,2.8,0,0,0-4-.6l-.3.2a7.9,7.9,0,0,1-12.2-8.5,8.6,8.6,0,0,1-1.4,1.3,7.9,7.9,0,0,1-11-2A8,8,0,0,1,162.1,122Z" fill="#4285f4"/><path d="M33.4,31.9H25.7a7.6,7.6,0,0,0-7.8,7.3v7.3" fill="none" stroke="aqua" stroke-linecap="round" stroke-linejoin="round" stroke-width="3"/><path d="M120.9,32.4h7.7a7.6,7.6,0,0,1,7.8,7.3v7.2" fill="none" stroke="aqua" stroke-linecap="round" stroke-linejoin="round" stroke-width="3"/><path d="M34.2,192.3H26.4a7.6,7.6,0,0,1-7.7-7.3v-7.3" fill="none" stroke="aqua" stroke-linecap="round" stroke-linejoin="round" stroke-width="3"/><path d="M74.8,55.1A8.5,8.5,0,0,0,71,63.4a11,11,0,0,0,1.6,5.3,6.8,6.8,0,0,0,4.5,3,6.9,6.9,0,0,0,6.2-2.6,11.6,11.6,0,0,0,2.4-6.6,9.2,9.2,0,0,0-1.2-5.7,6.7,6.7,0,0,0-4.4-2.9,8,8,0,0,0-5.3,1.2" fill="none" stroke="#fff" stroke-linecap="round" stroke-linejoin="round" stroke-width="3"/><path d="M71.5,59.3a24.6,24.6,0,0,1-4.8,7.6c-1.8,1.7-4.8,3.2-7.4,3" fill="none" stroke="#fff" stroke-linecap="round" stroke-linejoin="round" stroke-width="3"/><path d="M89,55.9c-4.5,8.2-4,18-5.2,27.2a27,27,0,0,1-3.1,10.1c-2.3,3.7-7.2,6.8-11.6,5.2A6.7,6.7,0,0,1,65,90.6a14.6,14.6,0,0,1,3.3-5.8c4.8-5.2,11.9-7.2,18.6-9s14.3-3.3,20.5-7.1" fill="none" stroke="#fff" stroke-linecap="round" stroke-linejoin="round" stroke-width="3"/><rect x="18.7" y="83.6" width="115.7" height="4.41" fill="#4285f4"/><line x1="47" y1="110.4" x2="110.5" y2="110.4" fill="#fff" stroke="#fff" stroke-linecap="round" stroke-miterlimit="10" stroke-width="2"/><line x1="47" y1="136.1" x2="110.5" y2="136.1" fill="#fff" stroke="#fff" stroke-linecap="round" stroke-miterlimit="10" stroke-width="2"/><line x1="47" y1="123" x2="110.5" y2="123" fill="#fff" stroke="#fff" stroke-linecap="round" stroke-miterlimit="10" stroke-width="2"/></g></g>
</svg>