<svg width="520" height="320" fill="none" xmlns="http://www.w3.org/2000/svg"><path fill="#fff" d="M0 0h520v320H0z"/><g clip-path="url(#clip0)"><path d="M375.3 252.5H132.4c-6 0-10.8-4.9-10.8-10.8V76.1h264.6v165.5c0 6.1-4.9 10.9-10.9 10.9z" fill="#fff" stroke="#D2E3FC" stroke-width="3" stroke-miterlimit="10" stroke-linecap="round" stroke-linejoin="round"/><path d="M104.7 71.2h298.4c2.4 0 4.3 1.9 4.3 4.3v4.9c0 1.2-1 2.2-2.2 2.2H102.5c-1.2 0-2.2-1-2.2-2.2v-4.9c.1-2.3 2-4.3 4.4-4.3z" fill="#fff" stroke="#D2E3FC" stroke-width="3" stroke-miterlimit="10" stroke-linecap="round" stroke-linejoin="round"/><path d="M215.1 181.1h77.6c2.3 0 4.1 1.8 4.1 4.1v48.6c0 2.3-1.8 4.1-4.1 4.1h-77.6c-2.3 0-4.1-1.8-4.1-4.1v-48.6c0-2.3 1.8-4.1 4.1-4.1zM370.2 167.6H138c-.9 0-1.7-.8-1.7-1.7V97c0-.9.8-1.7 1.7-1.7h232.2c.9 0 1.7.8 1.7 1.7v68.9c0 .9-.8 1.7-1.7 1.7z" fill="#D2E3FC"/><path d="M369 104.5h-16.8c-1.7 0-3-1.4-3-3v-3.1c0-1.7 1.4-3 3-3H369c1.7 0 3 1.4 3 3v3.1c.1 1.6-1.3 3-3 3z" fill="#255FDB"/><path d="M447.4 102.6c2.762 0 5-2.239 5-5 0-2.7614-2.238-5-5-5-2.761 0-5 2.2386-5 5 0 2.761 2.239 5 5 5z" fill="#D2E3FC"/><path d="M361.7 127c14.746 0 26.7-11.954 26.7-26.7 0-14.746-11.954-26.7-26.7-26.7-14.746 0-26.7 11.954-26.7 26.7 0 14.746 11.954 26.7 26.7 26.7z" stroke="#34A853" stroke-width="3" stroke-miterlimit="10" stroke-linecap="round" stroke-linejoin="round"/><path d="M361.7 144.8c24.577 0 44.5-19.923 44.5-44.5 0-24.5767-19.923-44.5-44.5-44.5-24.576 0-44.5 19.9233-44.5 44.5 0 24.577 19.924 44.5 44.5 44.5z" stroke="#FBBC05" stroke-width="3" stroke-miterlimit="10" stroke-linecap="round" stroke-linejoin="round"/><path d="M387 239.1c-7.3-8.2-15.1-17.1-17.5-28.1-2.9-13.3 4.7-23.4 10.1-34.8-7-19.7-15-41.3-18.7-55.1-1.2-4.4-3.9-15.7 4.7-18.7 6-2 10.9 2.9 12.6 6.5 3.2 7.1 7.7 21.2 10.9 29.9 2.7 7.5 2.6 6.5 2.6 6.5 6.3-1.3 13.4-2.5 18.7 1.1 5.1 3.5 6.7 5 6.7 5 3.2-.5 6.4-1.9 9.6-1.5 4.4.6 7.6 4.3 9.6 8.2l.3.6.7-.2c4.2-.8 9.1-1.8 13.2-.3 3.9 1.4 6.9 5.1 8.8 8.6 5.8 10.4 9.8 22.6 13.2 33.9 3.7 12.2 6 25.1 4.2 37.9" fill="#fff"/><path d="M65.0004 123.6c1.4 5.4-.7 11.2-5.6 14.4l-26.6 17c-6.1 3.9-14.3 2.2-18.2-4-.8-1.2-1.3-2.5-1.7-3.8-1.4-5.3.7-11.2 5.6-14.3l26.6-17.1c6.1-3.9 14.3-2.2 18.2 4 .8 1.1 1.3 2.4 1.7 3.8z" fill="#fff" stroke="#E6E7EA" stroke-width="3" stroke-miterlimit="10" stroke-linecap="round" stroke-linejoin="round"/><mask id="a" maskUnits="userSpaceOnUse" x="136" y="95" width="236" height="73"><path d="M370.2 167.6H138c-.9 0-1.7-.8-1.7-1.7V97c0-.9.8-1.7 1.7-1.7h232.2c.9 0 1.7.8 1.7 1.7v68.9c0 .9-.8 1.7-1.7 1.7z" fill="#D2E3FC"/></mask><g mask="url(#a)" stroke-width="3" stroke-miterlimit="10" stroke-linecap="round" stroke-linejoin="round"><path d="M361.7 127c14.746 0 26.7-11.954 26.7-26.7 0-14.746-11.954-26.7-26.7-26.7-14.746 0-26.7 11.954-26.7 26.7 0 14.746 11.954 26.7 26.7 26.7z" stroke="#4285F4"/><path d="M361.7 144.8c24.577 0 44.5-19.923 44.5-44.5 0-24.5767-19.923-44.5-44.5-44.5-24.576 0-44.5 19.9233-44.5 44.5 0 24.577 19.924 44.5 44.5 44.5z" stroke="#fff"/></g><path d="M472.5 61c-7.9 0-14.3-6.4-14.3-14.3s6.4-14.3 14.3-14.3 14.3 6.4 14.3 14.3S480.4 61 472.5 61z" fill="#fff" stroke="#5EF1F2" stroke-width="3" stroke-miterlimit="10" stroke-linecap="round" stroke-linejoin="round"/><path d="M390.4 209.1c-5.7-21.5-23.3-65.4-29.5-88.1-1.2-4.4-3.9-15.7 4.7-18.7 6-2 10.9 2.9 12.6 6.6 3.2 7.1 7.7 21.2 10.9 29.9 2.9 7.9 9.3 24.2 12.3 32" fill="#fff"/><path d="M390.4 209.1c-5.7-21.5-23.3-65.4-29.5-88.1-1.2-4.4-3.9-15.7 4.7-18.7 6-2 10.9 2.9 12.6 6.6 3.2 7.1 7.7 21.2 10.9 29.9 2.9 7.9 9.3 24.2 12.3 32" stroke="#4285F4" stroke-width="3" stroke-miterlimit="10" stroke-linecap="round" stroke-linejoin="round"/><path d="M391.7 145.4c6.3-1.3 13.4-2.5 18.7 1.1 7.3 4.9 11.8 16 14.8 25.1M417.2 151.5c3.2-.5 6.3-1.9 9.6-1.5 4.4.6 7.6 4.3 9.6 8.3 2 4 3.2 9.5 5.7 15.2M379.6 176.2c-5.5 11.4-13.5 21.7-10.1 34.8 5 19.7 11.8 27.8 28.2 44.4M437.3 158.6c4.2-.8 9-1.8 13.2-.3 3.9 1.4 6.9 5.1 8.8 8.6 5.8 10.4 9.8 22.6 13.2 34 4.1 13.5 6.5 26 10.3 41.2" stroke="#4285F4" stroke-width="3" stroke-miterlimit="10" stroke-linecap="round" stroke-linejoin="round"/><path d="M375.1 112.5c-.8-2.3-2.2-4.7-4.6-5.3-2.4-.6-4.9 1.2-5.8 3.5-.9 2.3-.3 5 1 7.1 1.8 3 5.2 5.2 8.5 3.3 3.1-1.9 1.9-5.8.9-8.6z" stroke="#D2E3FC" stroke-width="3" stroke-miterlimit="10" stroke-linecap="round" stroke-linejoin="round"/></g><defs><clipPath id="clip0"><path fill="#fff" transform="translate(11 31)" d="M0 0h477.3v225.9H0z"/></clipPath></defs></svg>