<?xml version="1.0" encoding="UTF-8"?>
<!--Generator: Apple Native CoreSVG 232.5-->
<!DOCTYPE svg
PUBLIC "-//W3C//DTD SVG 1.1//EN"
       "http://www.w3.org/Graphics/SVG/1.1/DTD/svg11.dtd">
<svg version="1.1" xmlns="http://www.w3.org/2000/svg" xmlns:xlink="http://www.w3.org/1999/xlink" width="3300" height="2200">
 <!--glyph: "", point size: 100.0, font version: "19.0d7e1", template writer version: "128"-->
 <style>.monochrome-0 {}
.monochrome-1 {}
.monochrome-2 {}
.monochrome-3 {}

.multicolor-0:white {}
.multicolor-1:custom {fill:#4183F0}
.multicolor-2:custom {fill:#EA4335}
.multicolor-3:custom {fill:#FBBC04}
.multicolor-4:custom {fill:#34A853}

.hierarchical-0:primary {}
.hierarchical-1:primary {}
.hierarchical-2:primary {}
.hierarchical-3:primary {}

.SFSymbolsPreview34A853 {fill:#34A853;opacity:1.0}
.SFSymbolsPreview4183F0 {fill:#4183F0;opacity:1.0}
.SFSymbolsPreviewEA4335 {fill:#EA4335;opacity:1.0}
.SFSymbolsPreviewFBBC04 {fill:#FBBC04;opacity:1.0}
.SFSymbolsPreviewFFFFFF {fill:#FFFFFF;opacity:1.0}
</style>
 <g id="Notes">
  <rect height="2200" id="artboard" style="fill:white;opacity:1" width="3300" x="0" y="0"/>
  <line style="fill:none;stroke:black;opacity:1;stroke-width:0.5;" x1="263" x2="3036" y1="292" y2="292"/>
  <text style="stroke:none;fill:black;font-family:sans-serif;font-size:13;font-weight:bold;" transform="matrix(1 0 0 1 263 322)">Weight/Scale Variations</text>
  <text style="stroke:none;fill:black;font-family:sans-serif;font-size:13;text-anchor:middle;" transform="matrix(1 0 0 1 559.711 322)">Ultralight</text>
  <text style="stroke:none;fill:black;font-family:sans-serif;font-size:13;text-anchor:middle;" transform="matrix(1 0 0 1 856.422 322)">Thin</text>
  <text style="stroke:none;fill:black;font-family:sans-serif;font-size:13;text-anchor:middle;" transform="matrix(1 0 0 1 1153.13 322)">Light</text>
  <text style="stroke:none;fill:black;font-family:sans-serif;font-size:13;text-anchor:middle;" transform="matrix(1 0 0 1 1449.84 322)">Regular</text>
  <text style="stroke:none;fill:black;font-family:sans-serif;font-size:13;text-anchor:middle;" transform="matrix(1 0 0 1 1746.56 322)">Medium</text>
  <text style="stroke:none;fill:black;font-family:sans-serif;font-size:13;text-anchor:middle;" transform="matrix(1 0 0 1 2043.27 322)">Semibold</text>
  <text style="stroke:none;fill:black;font-family:sans-serif;font-size:13;text-anchor:middle;" transform="matrix(1 0 0 1 2339.98 322)">Bold</text>
  <text style="stroke:none;fill:black;font-family:sans-serif;font-size:13;text-anchor:middle;" transform="matrix(1 0 0 1 2636.69 322)">Heavy</text>
  <text style="stroke:none;fill:black;font-family:sans-serif;font-size:13;text-anchor:middle;" transform="matrix(1 0 0 1 2933.4 322)">Black</text>
  <line style="fill:none;stroke:black;opacity:1;stroke-width:0.5;" x1="263" x2="3036" y1="1903" y2="1903"/>
  <g transform="matrix(0.2 0 0 0.2 263 1933)">
   <path d="m46.2402 4.15039c21.5332 0 39.4531-17.8711 39.4531-39.4043s-17.9688-39.4043-39.502-39.4043c-21.4844 0-39.3555 17.8711-39.3555 39.4043s17.9199 39.4043 39.4043 39.4043Zm0-7.42188c-17.7246 0-31.8848-14.209-31.8848-31.9824s14.1113-31.9824 31.8359-31.9824c17.7734 0 32.0312 14.209 32.0312 31.9824s-14.209 31.9824-31.9824 31.9824Zm-17.9688-31.9824c0 2.14844 1.51367 3.61328 3.75977 3.61328h10.498v10.5957c0 2.19727 1.46484 3.71094 3.61328 3.71094 2.24609 0 3.71094-1.51367 3.71094-3.71094v-10.5957h10.5957c2.19727 0 3.71094-1.46484 3.71094-3.61328 0-2.19727-1.51367-3.71094-3.71094-3.71094h-10.5957v-10.5469c0-2.24609-1.46484-3.75977-3.71094-3.75977-2.14844 0-3.61328 1.51367-3.61328 3.75977v10.5469h-10.498c-2.24609 0-3.75977 1.51367-3.75977 3.71094Z"/>
  </g>
  <g transform="matrix(0.2 0 0 0.2 281.506 1933)">
   <path d="m58.5449 14.5508c27.2461 0 49.8047-22.6074 49.8047-49.8047 0-27.2461-22.6074-49.8047-49.8535-49.8047-27.1973 0-49.7559 22.5586-49.7559 49.8047 0 27.1973 22.6074 49.8047 49.8047 49.8047Zm0-8.30078c-23.0469 0-41.4551-18.457-41.4551-41.5039s18.3594-41.5039 41.4062-41.5039 41.5527 18.457 41.5527 41.5039-18.457 41.5039-41.5039 41.5039Zm-22.6562-41.5039c0 2.39258 1.66016 4.00391 4.15039 4.00391h14.3555v14.4043c0 2.44141 1.66016 4.15039 4.05273 4.15039 2.44141 0 4.15039-1.66016 4.15039-4.15039v-14.4043h14.4043c2.44141 0 4.15039-1.61133 4.15039-4.00391 0-2.44141-1.70898-4.15039-4.15039-4.15039h-14.4043v-14.3555c0-2.49023-1.70898-4.19922-4.15039-4.19922-2.39258 0-4.05273 1.70898-4.05273 4.19922v14.3555h-14.3555c-2.49023 0-4.15039 1.70898-4.15039 4.15039Z"/>
  </g>
  <g transform="matrix(0.2 0 0 0.2 304.924 1933)">
   <path d="m74.8535 28.3203c34.8145 0 63.623-28.8086 63.623-63.5742 0-34.8145-28.8574-63.623-63.6719-63.623-34.7656 0-63.5254 28.8086-63.5254 63.623 0 34.7656 28.8086 63.5742 63.5742 63.5742Zm0-9.08203c-30.1758 0-54.4434-24.3164-54.4434-54.4922 0-30.2246 24.2188-54.4922 54.3945-54.4922 30.2246 0 54.541 24.2676 54.541 54.4922 0 30.1758-24.2676 54.4922-54.4922 54.4922Zm-28.8574-54.4922c0 2.58789 1.85547 4.39453 4.58984 4.39453h19.7266v19.7754c0 2.68555 1.85547 4.58984 4.44336 4.58984 2.68555 0 4.54102-1.85547 4.54102-4.58984v-19.7754h19.7754c2.68555 0 4.58984-1.80664 4.58984-4.39453 0-2.73438-1.85547-4.58984-4.58984-4.58984h-19.7754v-19.7266c0-2.73438-1.85547-4.63867-4.54102-4.63867-2.58789 0-4.44336 1.9043-4.44336 4.63867v19.7266h-19.7266c-2.73438 0-4.58984 1.85547-4.58984 4.58984Z"/>
  </g>
  <text style="stroke:none;fill:black;font-family:sans-serif;font-size:13;font-weight:bold;" transform="matrix(1 0 0 1 263 1953)">Design Variations</text>
  <text style="stroke:none;fill:black;font-family:sans-serif;font-size:13;" transform="matrix(1 0 0 1 263 1971)">Symbols are supported in up to nine weights and three scales.</text>
  <text style="stroke:none;fill:black;font-family:sans-serif;font-size:13;" transform="matrix(1 0 0 1 263 1989)">For optimal layout with text and other symbols, vertically align</text>
  <text style="stroke:none;fill:black;font-family:sans-serif;font-size:13;" transform="matrix(1 0 0 1 263 2007)">symbols with the adjacent text.</text>
  <line style="fill:none;stroke:#00AEEF;stroke-width:0.5;opacity:1.0;" x1="776" x2="776" y1="1919" y2="1933"/>
  <g transform="matrix(0.2 0 0 0.2 776 1933)">
   <path d="m16.5527 0.78125c2.58789 0 3.85742-0.976562 4.78516-3.71094l6.29883-17.2363h28.8086l6.29883 17.2363c0.927734 2.73438 2.19727 3.71094 4.73633 3.71094 2.58789 0 4.24805-1.5625 4.24805-4.00391 0-0.830078-0.146484-1.61133-0.537109-2.63672l-22.9004-60.9863c-1.12305-2.97852-3.125-4.49219-6.25-4.49219-3.02734 0-5.07812 1.46484-6.15234 4.44336l-22.9004 61.084c-0.390625 1.02539-0.537109 1.80664-0.537109 2.63672 0 2.44141 1.5625 3.95508 4.10156 3.95508Zm13.4766-28.3691 11.8652-32.8613h0.244141l11.8652 32.8613Z"/>
  </g>
  <line style="fill:none;stroke:#00AEEF;stroke-width:0.5;opacity:1.0;" x1="792.836" x2="792.836" y1="1919" y2="1933"/>
  <text style="stroke:none;fill:black;font-family:sans-serif;font-size:13;font-weight:bold;" transform="matrix(1 0 0 1 776 1953)">Margins</text>
  <text style="stroke:none;fill:black;font-family:sans-serif;font-size:13;" transform="matrix(1 0 0 1 776 1971)">Leading and trailing margins on the left and right side of each symbol</text>
  <text style="stroke:none;fill:black;font-family:sans-serif;font-size:13;" transform="matrix(1 0 0 1 776 1989)">can be adjusted by modifying the x-location of the margin guidelines.</text>
  <text style="stroke:none;fill:black;font-family:sans-serif;font-size:13;" transform="matrix(1 0 0 1 776 2007)">Modifications are automatically applied proportionally to all</text>
  <text style="stroke:none;fill:black;font-family:sans-serif;font-size:13;" transform="matrix(1 0 0 1 776 2025)">scales and weights.</text>
  <g transform="matrix(0.2 0 0 0.2 1289 1933)">
   <path d="m14.209 9.32617 8.49609 8.54492c4.29688 4.3457 9.22852 4.05273 13.8672-1.07422l53.4668-58.9355-4.83398-4.88281-53.0762 58.3984c-1.75781 2.00195-3.41797 2.49023-5.76172 0.146484l-5.85938-5.81055c-2.34375-2.29492-1.80664-4.00391 0.195312-5.81055l57.373-54.0039-4.88281-4.83398-57.959 54.4434c-4.93164 4.58984-5.32227 9.47266-1.02539 13.8184Zm32.0801-90.9668c-2.09961 2.05078-2.24609 4.93164-1.07422 6.88477 1.17188 1.80664 3.4668 2.97852 6.68945 2.14844 7.32422-1.70898 14.9414-2.00195 22.0703 2.68555l-2.92969 7.27539c-1.70898 4.15039-0.830078 7.08008 1.85547 9.81445l11.4746 11.5723c2.44141 2.44141 4.49219 2.53906 7.32422 2.05078l5.32227-0.976562 3.32031 3.36914-0.195312 2.7832c-0.195312 2.49023 0.439453 4.39453 2.88086 6.78711l3.80859 3.71094c2.39258 2.39258 5.46875 2.53906 7.8125 0.195312l14.5508-14.5996c2.34375-2.34375 2.24609-5.32227-0.146484-7.71484l-3.85742-3.80859c-2.39258-2.39258-4.24805-3.17383-6.64062-2.97852l-2.88086 0.244141-3.22266-3.17383 1.2207-5.61523c0.634766-2.83203-0.146484-5.0293-3.07617-7.95898l-10.9863-10.9375c-16.6992-16.6016-38.8672-16.2109-53.3203-1.75781Zm7.4707 1.85547c12.1582-8.88672 28.6133-7.37305 39.7461 3.75977l12.1582 12.0605c1.17188 1.17188 1.36719 2.09961 1.02539 3.80859l-1.61133 7.42188 7.51953 7.42188 4.93164-0.292969c1.26953-0.0488281 1.66016 0.0488281 2.63672 1.02539l2.88086 2.88086-12.207 12.207-2.88086-2.88086c-0.976562-0.976562-1.12305-1.36719-1.07422-2.68555l0.341797-4.88281-7.4707-7.42188-7.61719 1.26953c-1.61133 0.341797-2.34375 0.195312-3.56445-0.976562l-10.0098-10.0098c-1.26953-1.17188-1.41602-2.00195-0.634766-3.85742l4.39453-10.4492c-7.8125-7.27539-17.9688-10.4004-28.125-7.42188-0.78125 0.195312-1.07422-0.439453-0.439453-0.976562Z"/>
  </g>
  <text style="stroke:none;fill:black;font-family:sans-serif;font-size:13;font-weight:bold;" transform="matrix(1 0 0 1 1289 1953)">Exporting</text>
  <text style="stroke:none;fill:black;font-family:sans-serif;font-size:13;" transform="matrix(1 0 0 1 1289 1971)">Symbols should be outlined when exporting to ensure the</text>
  <text style="stroke:none;fill:black;font-family:sans-serif;font-size:13;" transform="matrix(1 0 0 1 1289 1989)">design is preserved when submitting to Xcode.</text>
  <text id="template-version" style="stroke:none;fill:black;font-family:sans-serif;font-size:13;text-anchor:end;" transform="matrix(1 0 0 1 3036 1933)">Template v.4.0</text>
  <text style="stroke:none;fill:black;font-family:sans-serif;font-size:13;text-anchor:end;" transform="matrix(1 0 0 1 3036 1951)">Requires Xcode 14 or greater</text>
  <text id="descriptive-name" style="stroke:none;fill:black;font-family:sans-serif;font-size:13;text-anchor:end;" transform="matrix(1 0 0 1 3036 1969)">Generated from chrome.cr</text>
  <text style="stroke:none;fill:black;font-family:sans-serif;font-size:13;text-anchor:end;" transform="matrix(1 0 0 1 3036 1987)">Typeset at 100.0 points</text>
  <text style="stroke:none;fill:black;font-family:sans-serif;font-size:13;" transform="matrix(1 0 0 1 263 726)">Small</text>
  <text style="stroke:none;fill:black;font-family:sans-serif;font-size:13;" transform="matrix(1 0 0 1 263 1156)">Medium</text>
  <text style="stroke:none;fill:black;font-family:sans-serif;font-size:13;" transform="matrix(1 0 0 1 263 1586)">Large</text>
 </g>
 <g id="Guides">
  <g id="H-reference" style="fill:#27AAE1;stroke:none;" transform="matrix(1 0 0 1 339 696)">
   <path d="M0.993654 0L3.63775 0L29.3281-67.1323L30.0303-67.1323L30.0303-70.459L28.1226-70.459ZM11.6885-24.4799L46.9815-24.4799L46.2315-26.7285L12.4385-26.7285ZM55.1196 0L57.7637 0L30.6382-70.459L29.4326-70.459L29.4326-67.1323Z"/>
  </g>
  <line id="Baseline-S" style="fill:none;stroke:#27AAE1;opacity:1;stroke-width:0.5;" x1="263" x2="3036" y1="696" y2="696"/>
  <line id="Capline-S" style="fill:none;stroke:#27AAE1;opacity:1;stroke-width:0.5;" x1="263" x2="3036" y1="625.541" y2="625.541"/>
  <g id="H-reference" style="fill:#27AAE1;stroke:none;" transform="matrix(1 0 0 1 339 1126)">
   <path d="M0.993654 0L3.63775 0L29.3281-67.1323L30.0303-67.1323L30.0303-70.459L28.1226-70.459ZM11.6885-24.4799L46.9815-24.4799L46.2315-26.7285L12.4385-26.7285ZM55.1196 0L57.7637 0L30.6382-70.459L29.4326-70.459L29.4326-67.1323Z"/>
  </g>
  <line id="Baseline-M" style="fill:none;stroke:#27AAE1;opacity:1;stroke-width:0.5;" x1="263" x2="3036" y1="1126" y2="1126"/>
  <line id="Capline-M" style="fill:none;stroke:#27AAE1;opacity:1;stroke-width:0.5;" x1="263" x2="3036" y1="1055.54" y2="1055.54"/>
  <g id="H-reference" style="fill:#27AAE1;stroke:none;" transform="matrix(1 0 0 1 339 1556)">
   <path d="M0.993654 0L3.63775 0L29.3281-67.1323L30.0303-67.1323L30.0303-70.459L28.1226-70.459ZM11.6885-24.4799L46.9815-24.4799L46.2315-26.7285L12.4385-26.7285ZM55.1196 0L57.7637 0L30.6382-70.459L29.4326-70.459L29.4326-67.1323Z"/>
  </g>
  <line id="Baseline-L" style="fill:none;stroke:#27AAE1;opacity:1;stroke-width:0.5;" x1="263" x2="3036" y1="1556" y2="1556"/>
  <line id="Capline-L" style="fill:none;stroke:#27AAE1;opacity:1;stroke-width:0.5;" x1="263" x2="3036" y1="1485.54" y2="1485.54"/>
  <line id="left-margin-Regular-M" style="fill:none;stroke:#00AEEF;stroke-width:0.5;opacity:1.0;" x1="1391.32" x2="1391.32" y1="1030.79" y2="1150.12"/>
  <line id="right-margin-Regular-M" style="fill:none;stroke:#00AEEF;stroke-width:0.5;opacity:1.0;" x1="1508.37" x2="1508.37" y1="1030.79" y2="1150.12"/>
 </g>
 <g id="Symbols">
  <g id="Black-L" transform="matrix(1 0 0 1 2856.93 1556)">
   <path class="multicolor-0:white SFSymbolsPreviewFFFFFF" d="M76.56 5C98.94 5 117.07-13.13 117.07-35.51C117.07-57.87 98.94-76 76.56-76C54.2-76 36.07-57.87 36.07-35.51C36.07-13.13 54.2 5 76.56 5Z"/>
   <path class="monochrome-0 multicolor-1:custom hierarchical-0:primary SFSymbolsPreview4183F0" d="M76.62-8.28C91.48-8.28 103.52-20.32 103.52-35.18C103.52-50.03 91.48-62.07 76.62-62.07C61.77-62.07 49.73-50.03 49.73-35.18C49.73-20.32 61.77-8.28 76.62-8.28Z"/>
   <path class="monochrome-1 multicolor-2:custom hierarchical-1:primary SFSymbolsPreviewEA4335" d="M76.62-69.15L135.46-69.15C129.5-79.48 120.92-88.06 110.59-94.03C100.26-99.99 88.55-103.13 76.62-103.13C64.69-103.13 52.97-99.99 42.65-94.02C32.32-88.06 23.74-79.48 17.78-69.15L47.2-18.19L47.21-18.19C44.22-23.35 42.65-29.21 42.65-35.18C42.65-41.14 44.22-47 47.2-52.17C50.18-57.33 54.47-61.62 59.63-64.6C64.8-67.59 70.66-69.16 76.62-69.15Z"/>
   <path class="monochrome-2 multicolor-3:custom hierarchical-2:primary SFSymbolsPreviewFBBC04" d="M106.04-18.19L76.63 32.76C88.55 32.76 100.27 29.62 110.6 23.66C120.93 17.7 129.51 9.12 135.47-1.21C141.43-11.54 144.57-23.26 144.57-35.18C144.57-47.11 141.42-58.83 135.46-69.16L76.62-69.16L76.61-69.15C82.58-69.15 88.44-67.59 93.61-64.61C98.77-61.63 103.06-57.34 106.05-52.17C109.03-47.01 110.6-41.15 110.6-35.18C110.6-29.22 109.03-23.36 106.04-18.19Z"/>
   <path class="monochrome-3 multicolor-4:custom hierarchical-3:primary SFSymbolsPreview34A853" d="M47.2-18.19L17.78-69.14C11.82-58.82 8.68-47.1 8.68-35.17C8.68-23.24 11.82-11.53 17.78-1.2C23.74 9.13 32.32 17.71 42.65 23.67C52.98 29.63 64.7 32.77 76.63 32.76L106.05-18.19L106.05-18.2C103.07-13.03 98.78-8.74 93.61-5.76C88.45-2.77 82.59-1.2 76.63-1.2C70.66-1.2 64.8-2.77 59.64-5.75C54.47-8.73 50.18-13.02 47.2-18.19Z"/>
  </g>
  <g id="Heavy-L" transform="matrix(1 0 0 1 2561.16 1556)">
   <path class="multicolor-0:white SFSymbolsPreviewFFFFFF" d="M75.85 0C95.18 0 110.84-15.66 110.84-34.99C110.84-54.32 95.18-70 75.85-70C56.52-70 40.84-54.32 40.84-34.99C40.84-15.66 56.52 0 75.85 0Z"/>
   <path class="monochrome-0 multicolor-1:custom hierarchical-0:primary SFSymbolsPreview4183F0" d="M75.69-8.64C90.34-8.64 102.21-20.51 102.21-35.16C102.21-49.81 90.34-61.69 75.69-61.69C61.04-61.69 49.16-49.81 49.16-35.16C49.16-20.51 61.04-8.64 75.69-8.64Z"/>
   <path class="monochrome-1 multicolor-2:custom hierarchical-1:primary SFSymbolsPreviewEA4335" d="M75.69-68.67L133.71-68.67C127.83-78.85 119.37-87.31 109.18-93.2C99-99.08 87.44-102.17 75.68-102.17C63.92-102.17 52.36-99.07 42.18-93.19C31.99-87.31 23.54-78.85 17.66-68.66L46.67-18.41L46.68-18.41C43.73-23.5 42.18-29.28 42.18-35.16C42.18-41.04 43.73-46.82 46.67-51.91C49.61-57.01 53.84-61.24 58.93-64.18C64.03-67.12 69.8-68.67 75.69-68.67Z"/>
   <path class="monochrome-2 multicolor-3:custom hierarchical-2:primary SFSymbolsPreviewFBBC04" d="M104.7-18.41L75.69 31.84C87.45 31.84 99.01 28.75 109.19 22.86C119.38 16.98 127.84 8.52 133.72-1.66C139.6-11.85 142.69-23.4 142.69-35.17C142.69-46.93 139.59-58.48 133.71-68.67L75.68-68.67L75.68-68.66C81.56-68.67 87.34-67.12 92.43-64.18C97.53-61.24 101.76-57.01 104.7-51.92C107.64-46.83 109.19-41.05 109.19-35.16C109.19-29.28 107.64-23.5 104.7-18.41Z"/>
   <path class="monochrome-3 multicolor-4:custom hierarchical-3:primary SFSymbolsPreview34A853" d="M46.67-18.41L17.66-68.66C11.78-58.47 8.68-46.92 8.68-35.16C8.68-23.4 11.77-11.84 17.66-1.65C23.54 8.53 32 16.99 42.19 22.87C52.37 28.75 63.93 31.84 75.69 31.84L104.7-18.41L104.7-18.42C101.76-13.32 97.54-9.09 92.44-6.15C87.35-3.21 81.57-1.66 75.69-1.66C69.81-1.65 64.03-3.2 58.93-6.14C53.84-9.09 49.61-13.32 46.67-18.41Z"/>
  </g>
  <g id="Bold-L" transform="matrix(1 0 0 1 2265.62 1556)">
   <path class="multicolor-0:white SFSymbolsPreviewFFFFFF" d="M74.38 3C95.36 3 112.38-14.02 112.38-35C112.38-55.98 95.36-73 74.38-73C53.4-73 36.38-55.98 36.38-35C36.38-14.02 53.4 3 74.38 3Z"/>
   <path class="monochrome-0 multicolor-1:custom hierarchical-0:primary SFSymbolsPreview4183F0" d="M74.51-9.24C88.9-9.24 100.57-20.91 100.57-35.3C100.57-49.69 88.9-61.36 74.51-61.36C60.12-61.36 48.45-49.69 48.45-35.3C48.45-20.91 60.12-9.24 74.51-9.24Z"/>
   <path class="monochrome-1 multicolor-2:custom hierarchical-1:primary SFSymbolsPreviewEA4335" d="M74.51-68.22L131.51-68.22C125.74-78.23 117.43-86.54 107.42-92.31C97.41-98.09 86.06-101.13 74.51-101.13C62.95-101.13 51.6-98.09 41.6-92.31C31.59-86.53 23.28-78.22 17.51-68.21L46.01-18.85L46.01-18.84C43.12-23.84 41.6-29.52 41.6-35.3C41.6-41.08 43.12-46.75 46-51.76C48.89-56.76 53.05-60.92 58.05-63.81C63.06-66.7 68.73-68.22 74.51-68.22Z"/>
   <path class="monochrome-2 multicolor-3:custom hierarchical-2:primary SFSymbolsPreviewFBBC04" d="M103.02-18.85L74.51 30.52C86.07 30.52 97.42 27.48 107.43 21.7C117.44 15.92 125.75 7.61 131.52-2.39C137.3-12.4 140.34-23.75 140.34-35.31C140.34-46.86 137.29-58.21 131.51-68.22L74.51-68.22L74.5-68.21C80.28-68.22 85.96-66.7 90.96-63.81C95.97-60.92 100.13-56.77 103.02-51.76C105.91-46.76 107.43-41.08 107.43-35.31C107.43-29.53 105.91-23.85 103.02-18.85Z"/>
   <path class="monochrome-3 multicolor-4:custom hierarchical-3:primary SFSymbolsPreview34A853" d="M46.01-18.85L17.51-68.21C11.73-58.2 8.69-46.85 8.68-35.3C8.68-23.74 11.73-12.39 17.5-2.38C23.28 7.62 31.59 15.93 41.6 21.71C51.61 27.48 62.96 30.52 74.52 30.52L103.02-18.85C100.13-13.85 95.98-9.69 90.97-6.8C85.97-3.91 80.29-2.39 74.52-2.39C68.74-2.39 63.06-3.91 58.06-6.8C53.05-9.69 48.9-13.84 46.01-18.85Z"/>
  </g>
  <g id="Semibold-L" transform="matrix(1 0 0 1 1969.72 1556)">
   <path class="multicolor-0:white SFSymbolsPreviewFFFFFF" d="M73.77 3C95.05 3 112.28-14.23 112.28-35.5C112.28-56.75 95.05-74 73.77-74C52.51-74 35.28-56.75 35.28-35.5C35.28-14.23 52.51 3 73.77 3Z"/>
   <path class="monochrome-0 multicolor-1:custom hierarchical-0:primary SFSymbolsPreview4183F0" d="M73.7-9.45C87.92-9.45 99.44-20.97 99.44-35.19C99.44-49.4 87.92-60.93 73.7-60.93C59.49-60.93 47.97-49.4 47.97-35.19C47.97-20.97 59.49-9.45 73.7-9.45Z"/>
   <path class="monochrome-1 multicolor-2:custom hierarchical-1:primary SFSymbolsPreviewEA4335" d="M73.7-67.7L130-67.7C124.3-77.58 116.09-85.79 106.21-91.5C96.32-97.2 85.11-100.21 73.7-100.21C62.29-100.21 51.07-97.2 41.19-91.49C31.31-85.78 23.1-77.57 17.4-67.69L45.55-18.93L45.56-18.93C42.7-23.87 41.19-29.48 41.19-35.18C41.19-40.89 42.69-46.5 45.54-51.44C48.4-56.38 52.5-60.49 57.45-63.34C62.39-66.2 68-67.7 73.7-67.7Z"/>
   <path class="monochrome-2 multicolor-3:custom hierarchical-2:primary SFSymbolsPreviewFBBC04" d="M101.85-18.93L73.7 29.82C85.12 29.82 96.33 26.82 106.21 21.12C116.1 15.41 124.31 7.2 130.01-2.68C135.72-12.57 138.72-23.78 138.72-35.19C138.72-46.61 135.71-57.82 130-67.7L73.7-67.7L73.69-67.69C79.4-67.7 85.01-66.2 89.95-63.35C94.9-60.49 99-56.39 101.86-51.45C104.71-46.51 106.21-40.9 106.21-35.19C106.21-29.48 104.71-23.88 101.86-18.93L101.85-18.93Z"/>
   <path class="monochrome-3 multicolor-4:custom hierarchical-3:primary SFSymbolsPreview34A853" d="M45.55-18.93L17.4-67.69C11.69-57.8 8.68-46.59 8.68-35.18C8.68-23.77 11.69-12.55 17.4-2.67C23.1 7.21 31.31 15.42 41.2 21.12C51.08 26.83 62.29 29.83 73.71 29.83L101.86-18.93L101.86-18.94C99.01-13.99 94.9-9.89 89.96-7.03C85.02-4.18 79.41-2.67 73.7-2.67C68-2.67 62.39-4.17 57.45-7.03C52.5-9.88 48.4-13.99 45.55-18.93Z"/>
  </g>
  <g id="Medium-L" transform="matrix(1 0 0 1 1673.63 1556)">
   <path class="multicolor-0:white SFSymbolsPreviewFFFFFF" d="M72.86 1C93.02 1 109.37-15.13 109.37-35.01C109.37-54.89 93.02-71 72.86-71C52.71-71 36.37-54.89 36.37-35.01C36.37-15.13 52.71 1 72.86 1Z"/>
   <path class="monochrome-0 multicolor-1:custom hierarchical-0:primary SFSymbolsPreview4183F0" d="M73.08-9.5C87.16-9.5 98.58-20.92 98.58-35C98.58-49.08 87.16-60.49 73.08-60.49C59-60.49 47.59-49.08 47.59-35C47.59-20.92 59-9.5 73.08-9.5Z"/>
   <path class="monochrome-1 multicolor-2:custom hierarchical-1:primary SFSymbolsPreviewEA4335" d="M73.08-67.2L128.85-67.2C123.2-76.99 115.07-85.12 105.28-90.77C95.49-96.43 84.38-99.4 73.08-99.4C61.77-99.4 50.67-96.42 40.88-90.77C31.09-85.12 22.96-76.98 17.31-67.19L45.19-18.9L45.2-18.89C42.37-23.79 40.88-29.34 40.88-34.99C40.88-40.65 42.36-46.2 45.19-51.1C48.02-55.99 52.08-60.06 56.98-62.89C61.87-65.71 67.43-67.2 73.08-67.2Z"/>
   <path class="monochrome-2 multicolor-3:custom hierarchical-2:primary SFSymbolsPreviewFBBC04" d="M100.97-18.9L73.08 29.4C84.39 29.4 95.5 26.42 105.29 20.77C115.08 15.12 123.21 6.99 128.86-2.8C134.51-12.59 137.49-23.7 137.48-35C137.48-46.31 134.5-57.41 128.85-67.2L73.08-67.2L73.07-67.2C78.73-67.2 84.28-65.72 89.18-62.89C94.08-60.07 98.14-56 100.97-51.11C103.8-46.21 105.29-40.66 105.29-35C105.29-29.35 103.8-23.79 100.97-18.9Z"/>
   <path class="monochrome-3 multicolor-4:custom hierarchical-3:primary SFSymbolsPreview34A853" d="M45.19-18.9L17.31-67.19C11.66-57.4 8.68-46.3 8.68-34.99C8.68-23.69 11.66-12.58 17.31-2.79C22.96 7 31.09 15.13 40.88 20.78C50.68 26.43 61.78 29.4 73.09 29.4L100.97-18.9C98.15-14.01 94.08-9.94 89.19-7.11C84.29-4.28 78.74-2.79 73.08-2.79C67.43-2.79 61.88-4.28 56.98-7.11C52.09-9.93 48.02-14 45.19-18.9Z"/>
  </g>
  <g id="Regular-L" transform="matrix(1 0 0 1 1377.72 1556)">
   <path class="multicolor-0:white SFSymbolsPreviewFFFFFF" d="M72.27-1C91.61-1 107.28-16.44 107.28-35.49C107.28-54.56 91.61-70 72.27-70C52.95-70 37.28-54.56 37.28-35.49C37.28-16.44 52.95-1 72.27-1Z"/>
   <path class="monochrome-0 multicolor-1:custom hierarchical-0:primary SFSymbolsPreview4183F0" d="M72.28-10.27C86.19-10.27 97.46-21.54 97.46-35.44C97.46-49.35 86.19-60.62 72.28-60.62C58.38-60.62 47.11-49.35 47.11-35.44C47.11-21.54 58.38-10.27 72.28-10.27Z"/>
   <path class="monochrome-1 multicolor-2:custom hierarchical-1:primary SFSymbolsPreviewEA4335" d="M72.28-67.24L127.35-67.24C121.77-76.91 113.74-84.94 104.08-90.52C94.41-96.11 83.44-99.04 72.28-99.04C61.11-99.04 50.15-96.1 40.48-90.52C30.81-84.94 22.79-76.9 17.21-67.24L44.74-19.54L44.75-19.54C41.96-24.37 40.48-29.86 40.48-35.44C40.48-41.02 41.95-46.51 44.74-51.34C47.53-56.18 51.55-60.19 56.38-62.98C61.22-65.78 66.7-67.24 72.28-67.24Z"/>
   <path class="monochrome-2 multicolor-3:custom hierarchical-2:primary SFSymbolsPreviewFBBC04" d="M99.82-19.55L72.29 28.15C83.45 28.15 94.42 25.21 104.08 19.63C113.75 14.05 121.78 6.02 127.36-3.65C132.94-13.32 135.88-24.29 135.88-35.45C135.88-46.61 132.94-57.58 127.35-67.25L72.28-67.25L72.27-67.24C77.86-67.24 83.34-65.78 88.18-62.99C93.01-60.2 97.03-56.18 99.82-51.35C102.61-46.51 104.08-41.03 104.08-35.45C104.08-29.86 102.61-24.38 99.82-19.55Z"/>
   <path class="monochrome-3 multicolor-4:custom hierarchical-3:primary SFSymbolsPreview34A853" d="M44.74-19.54L17.21-67.23C11.62-57.57 8.68-46.6 8.68-35.44C8.68-24.27 11.62-13.31 17.21-3.64C22.79 6.03 30.82 14.06 40.49 19.64C50.16 25.22 61.12 28.15 72.29 28.15L99.82-19.54L99.82-19.55C97.03-14.71 93.02-10.7 88.19-7.9C83.35-5.11 77.87-3.64 72.28-3.64C66.7-3.64 61.22-5.11 56.38-7.9C51.55-10.69 47.53-14.71 44.74-19.54Z"/>
  </g>
  <g id="Light-L" transform="matrix(1 0 0 1 1081.93 1556)">
   <path class="multicolor-0:white SFSymbolsPreviewFFFFFF" d="M71.57 3C92.83 3 110.07-14.24 110.07-35.5C110.07-56.76 92.83-74 71.57-74C50.29-74 33.07-56.76 33.07-35.5C33.07-14.24 50.29 3 71.57 3Z"/>
   <path class="monochrome-0 multicolor-1:custom hierarchical-0:primary SFSymbolsPreview4183F0" d="M71.36-10.59C85.06-10.59 96.17-21.7 96.17-35.4C96.17-49.1 85.06-60.21 71.36-60.21C57.65-60.21 46.55-49.1 46.55-35.4C46.55-21.7 57.65-10.59 71.36-10.59Z"/>
   <path class="monochrome-1 multicolor-2:custom hierarchical-1:primary SFSymbolsPreviewEA4335" d="M71.36-66.74L125.63-66.74C120.13-76.27 112.22-84.18 102.69-89.69C93.16-95.19 82.36-98.08 71.35-98.08C60.35-98.08 49.54-95.18 40.02-89.68C30.49-84.18 22.58-76.26 17.08-66.73L44.22-19.73C41.47-24.49 40.02-29.9 40.02-35.4C40.02-40.9 41.46-46.31 44.21-51.07C46.96-55.84 50.92-59.79 55.69-62.54C60.45-65.3 65.86-66.74 71.36-66.74Z"/>
   <path class="monochrome-2 multicolor-3:custom hierarchical-2:primary SFSymbolsPreviewFBBC04" d="M98.5-19.73L71.36 27.27C82.36 27.27 93.17 24.38 102.7 18.88C112.23 13.38 120.14 5.46 125.64-4.07C131.14-13.59 134.04-24.4 134.03-35.41C134.03-46.41 131.13-57.22 125.63-66.74L71.36-66.74L71.35-66.74C76.85-66.74 82.26-65.29 87.02-62.55C91.79-59.8 95.75-55.84 98.5-51.08C101.25-46.31 102.7-40.91 102.7-35.4C102.7-29.9 101.25-24.5 98.5-19.73Z"/>
   <path class="monochrome-3 multicolor-4:custom hierarchical-3:primary SFSymbolsPreview34A853" d="M44.22-19.73L17.08-66.73C11.58-57.21 8.68-46.4 8.68-35.4C8.68-24.39 11.58-13.59 17.08-4.06C22.58 5.47 30.49 13.38 40.02 18.88C49.55 24.38 60.36 27.27 71.36 27.27L98.5-19.73L98.5-19.74C95.75-14.97 91.79-11.02 87.03-8.26C82.27-5.51 76.86-4.06 71.36-4.06C65.86-4.06 60.45-5.51 55.69-8.26C50.92-11.01 46.97-14.97 44.22-19.73Z"/>
  </g>
  <g id="Thin-L" transform="matrix(1 0 0 1 786.445 1556)">
   <path class="multicolor-0:white SFSymbolsPreviewFFFFFF" d="M70.055-1C89.109-1 104.555-16.45 104.555-35.49C104.555-54.55 89.109-70 70.055-70C51.001-70 35.555-54.55 35.555-35.49C35.555-16.45 51.001-1 70.055-1Z"/>
   <path class="monochrome-0 multicolor-1:custom hierarchical-0:primary SFSymbolsPreview4183F0" d="M70.133-11.19C83.568-11.19 94.459-22.08 94.459-35.51C94.459-48.95 83.568-59.84 70.133-59.84C56.698-59.84 45.807-48.95 45.807-35.51C45.807-22.08 56.698-11.19 70.133-11.19Z"/>
   <path class="monochrome-1 multicolor-2:custom hierarchical-1:primary SFSymbolsPreviewEA4335" d="M70.133-66.24L123.346-66.24C117.954-75.58 110.197-83.34 100.855-88.74C91.514-94.13 80.916-96.97 70.129-96.97C59.342-96.97 48.745-94.13 39.404-88.73C30.063-83.34 22.307-75.58 16.916-66.23L43.523-20.15L43.529-20.15C40.83-24.82 39.408-30.12 39.406-35.51C39.404-40.9 40.823-46.2 43.52-50.88C46.216-55.55 50.095-59.43 54.767-62.13C59.439-64.82 64.739-66.24 70.133-66.24Z"/>
   <path class="monochrome-2 multicolor-3:custom hierarchical-2:primary SFSymbolsPreviewFBBC04" d="M96.742-20.15L70.136 25.93C80.923 25.93 91.52 23.1 100.862 17.7C110.205 12.31 117.962 4.55 123.355-4.79C128.748-14.13 131.586-24.73 131.584-35.52C131.582-46.31 128.741-56.9 123.344-66.24L70.131-66.24L70.125-66.24C75.519-66.24 80.819-64.82 85.492-62.13C90.165-59.43 94.045-55.55 96.743-50.88C99.441-46.21 100.862-40.91 100.861-35.52C100.861-30.12 99.441-24.82 96.742-20.15Z"/>
   <path class="monochrome-3 multicolor-4:custom hierarchical-3:primary SFSymbolsPreview34A853" d="M43.523-20.15L16.916-66.23C11.521-56.89 8.681-46.3 8.68-35.51C8.68-24.72 11.52-14.12 16.914-4.78C22.308 4.56 30.067 12.32 39.41 17.71C48.753 23.1 59.351 25.94 70.138 25.93L96.744-20.15L96.744-20.16C94.049-15.49 90.171-11.6 85.5-8.91C80.829-6.21 75.53-4.79 70.136-4.78C64.741-4.78 59.441-6.2 54.77-8.9C50.098-11.6 46.219-15.48 43.523-20.15Z"/>
  </g>
  <g id="Ultralight-L" transform="matrix(1 0 0 1 490.359 1556)">
   <path class="multicolor-0:white SFSymbolsPreviewFFFFFF" d="M69.64-4C87.315-4 101.641-18.1 101.641-35.5C101.641-52.9 87.315-67 69.64-67C51.967-67 37.641-52.9 37.641-35.5C37.641-18.1 51.967-4 69.64-4Z"/>
   <path class="monochrome-0 multicolor-1:custom hierarchical-0:primary SFSymbolsPreview4183F0" d="M69.508-11.25C82.807-11.25 93.587-22.03 93.587-35.33C93.587-48.63 82.807-59.41 69.508-59.41C56.21-59.41 45.43-48.63 45.43-35.33C45.43-22.03 56.21-11.25 69.508-11.25Z"/>
   <path class="monochrome-1 multicolor-2:custom hierarchical-1:primary SFSymbolsPreviewEA4335" d="M69.508-65.74L122.18-65.74C116.843-74.99 109.165-82.67 99.918-88.01C90.671-93.35 80.181-96.16 69.504-96.16C58.827-96.16 48.337-93.34 39.091-88C29.845-82.66 22.168-74.98 16.832-65.73L43.168-20.12L43.175-20.12C40.503-24.74 39.095-29.98 39.093-35.32C39.092-40.66 40.496-45.91 43.165-50.53C45.834-55.16 49.674-59 54.298-61.67C58.923-64.34 64.169-65.74 69.508-65.74Z"/>
   <path class="monochrome-2 multicolor-3:custom hierarchical-2:primary SFSymbolsPreviewFBBC04" d="M95.846-20.12L69.511 25.5C80.188 25.5 90.678 22.69 99.925 17.35C109.172 12.01 116.851 4.33 122.189-4.92C127.527-14.16 130.336-24.65 130.334-35.33C130.332-46.01 127.519-56.5 122.178-65.74L69.506-65.74L69.5-65.74C74.839-65.74 80.086-64.34 84.711-61.67C89.336-59 93.177-55.16 95.848-50.54C98.518-45.91 99.924-40.67 99.924-35.33C99.924-29.99 98.516-24.74 95.846-20.12Z"/>
   <path class="monochrome-3 multicolor-4:custom hierarchical-3:primary SFSymbolsPreview34A853" d="M43.168-20.12L16.832-65.73C11.492-56.49 8.681-46 8.68-35.32C8.68-24.64 11.491-14.15 16.83-4.91C22.17 4.34 29.849 12.02 39.097 17.35C48.345 22.69 58.835 25.5 69.513 25.5L95.849-20.12L95.849-20.13C93.181-15.5 89.343-11.66 84.719-8.99C80.096-6.32 74.85-4.91 69.511-4.91C64.171-4.91 58.925-6.31 54.301-8.98C49.677-11.65 45.837-15.49 43.168-20.12Z"/>
  </g>
  <g id="Black-M" transform="matrix(1 0 0 1 2871.56 1126)">
   <path class="multicolor-0:white SFSymbolsPreviewFFFFFF" d="M61.96-4C79.35-4 93.45-17.88 93.45-35.01C93.45-52.13 79.35-66 61.96-66C44.55-66 30.45-52.13 30.45-35.01C30.45-17.88 44.55-4 61.96-4Z"/>
   <path class="monochrome-0 multicolor-1:custom hierarchical-0:primary SFSymbolsPreview4183F0" d="M62-13.68C73.65-13.68 83.1-23.13 83.1-34.79C83.1-46.45 73.65-55.89 62-55.89C50.34-55.89 40.89-46.45 40.89-34.79C40.89-23.13 50.34-13.68 62-13.68Z"/>
   <path class="monochrome-1 multicolor-2:custom hierarchical-1:primary SFSymbolsPreviewEA4335" d="M62-61.45L108.17-61.45C103.49-69.56 96.76-76.29 88.65-80.97C80.55-85.65 71.35-88.11 61.99-88.11C52.64-88.11 43.44-85.64 35.34-80.96C27.23-76.28 20.5-69.55 15.83-61.44L38.91-21.46L38.92-21.46C36.57-25.51 35.34-30.11 35.34-34.79C35.34-39.47 36.57-44.07 38.91-48.12C41.25-52.17 44.61-55.54 48.67-57.88C52.72-60.22 57.32-61.45 62-61.45Z"/>
   <path class="monochrome-2 multicolor-3:custom hierarchical-2:primary SFSymbolsPreviewFBBC04" d="M85.09-21.46L62 18.52C71.36 18.53 80.55 16.06 88.66 11.38C96.77 6.7 103.5-0.03 108.18-8.13C112.85-16.24 115.32-25.43 115.32-34.79C115.31-44.15 112.85-53.35 108.17-61.45L62-61.45L61.99-61.45C66.67-61.45 71.27-60.22 75.32-57.88C79.38-55.54 82.75-52.17 85.09-48.12C87.43-44.07 88.66-39.47 88.66-34.79C88.66-30.11 87.43-25.51 85.09-21.46Z"/>
   <path class="monochrome-3 multicolor-4:custom hierarchical-3:primary SFSymbolsPreview34A853" d="M38.91-21.46L15.83-61.44C11.15-53.34 8.68-44.14 8.68-34.78C8.68-25.42 11.14-16.23 15.82-8.12C20.5-0.02 27.24 6.71 35.34 11.39C43.45 16.07 52.64 18.53 62 18.53L85.09-21.46C82.75-17.41 79.38-14.04 75.33-11.7C71.28-9.36 66.68-8.13 62-8.13C57.32-8.13 52.72-9.36 48.67-11.7C44.62-14.04 41.25-17.4 38.91-21.46Z"/>
  </g>
  <g id="Heavy-M" transform="matrix(1 0 0 1 2575.68 1126)">
   <path class="multicolor-0:white SFSymbolsPreviewFFFFFF" d="M61.32-4C78.43-4 92.32-17.88 92.32-35.01C92.32-52.12 78.43-66 61.32-66C44.19-66 30.32-52.12 30.32-35.01C30.32-17.88 44.19-4 61.32-4Z"/>
   <path class="monochrome-0 multicolor-1:custom hierarchical-0:primary SFSymbolsPreview4183F0" d="M61.17-14.21C72.64-14.21 81.95-23.51 81.95-34.99C81.95-46.46 72.64-55.76 61.17-55.76C49.69-55.76 40.39-46.46 40.39-34.99C40.39-23.51 49.69-14.21 61.17-14.21Z"/>
   <path class="monochrome-1 multicolor-2:custom hierarchical-1:primary SFSymbolsPreviewEA4335" d="M61.17-61.23L106.62-61.23C102.01-69.21 95.39-75.84 87.41-80.44C79.43-85.05 70.38-87.48 61.16-87.47C51.95-87.47 42.9-85.05 34.92-80.44C26.94-75.83 20.32-69.2 15.71-61.22L38.44-21.86C36.14-25.85 34.92-30.37 34.92-34.98C34.92-39.59 36.13-44.12 38.44-48.11C40.74-52.1 44.05-55.41 48.04-57.71C52.03-60.02 56.56-61.23 61.17-61.23Z"/>
   <path class="monochrome-2 multicolor-3:custom hierarchical-2:primary SFSymbolsPreviewFBBC04" d="M83.89-21.87L61.17 17.5C70.38 17.5 79.43 15.07 87.41 10.47C95.39 5.86 102.02-0.77 106.63-8.75C111.23-16.73 113.66-25.78 113.65-34.99C113.65-44.2 111.23-53.25 106.62-61.23L61.17-61.23L61.16-61.23C65.77-61.23 70.3-60.02 74.29-57.72C78.28-55.42 81.59-52.1 83.9-48.11C86.2-44.12 87.41-39.6 87.41-34.99C87.41-30.38 86.2-25.85 83.9-21.87L83.89-21.87Z"/>
   <path class="monochrome-3 multicolor-4:custom hierarchical-3:primary SFSymbolsPreview34A853" d="M38.44-21.86L15.71-61.22C11.11-53.25 8.68-44.2 8.68-34.98C8.68-25.77 11.1-16.72 15.71-8.74C20.32-0.76 26.95 5.87 34.93 10.47C42.91 15.08 51.96 17.5 61.17 17.5L83.9-21.86L83.9-21.87C81.59-17.88 78.28-14.56 74.29-12.26C70.3-9.95 65.78-8.74 61.17-8.74C56.56-8.74 52.04-9.95 48.05-12.25C44.06-14.56 40.74-17.87 38.44-21.86Z"/>
  </g>
  <g id="Bold-M" transform="matrix(1 0 0 1 2279.89 1126)">
   <path class="multicolor-0:white SFSymbolsPreviewFFFFFF" d="M60.11-6C75.02-6 87.11-18.32 87.11-33.5C87.11-48.68 75.02-61 60.11-61C45.2-61 33.11-48.68 33.11-33.5C33.11-18.32 45.2-6 60.11-6Z"/>
   <path class="monochrome-0 multicolor-1:custom hierarchical-0:primary SFSymbolsPreview4183F0" d="M60.24-13.27C71.51-13.27 80.65-22.41 80.65-33.68C80.65-44.95 71.51-54.09 60.24-54.09C48.97-54.09 39.83-44.95 39.83-33.68C39.83-22.41 48.97-13.27 60.24-13.27Z"/>
   <path class="monochrome-1 multicolor-2:custom hierarchical-1:primary SFSymbolsPreviewEA4335" d="M60.24-59.46L104.89-59.46C100.36-67.3 93.86-73.81 86.02-78.34C78.18-82.86 69.29-85.25 60.24-85.24C51.19-85.24 42.3-82.86 34.46-78.33C26.62-73.81 20.12-67.3 15.59-59.46L37.92-20.79C35.66-24.71 34.46-29.16 34.46-33.68C34.46-38.21 35.65-42.65 37.91-46.57C40.18-50.49 43.43-53.75 47.35-56.01C51.27-58.27 55.72-59.47 60.24-59.46Z"/>
   <path class="monochrome-2 multicolor-3:custom hierarchical-2:primary SFSymbolsPreviewFBBC04" d="M82.57-20.8L60.25 17.87C69.3 17.87 78.19 15.49 86.02 10.96C93.86 6.44 100.37-0.07 104.9-7.91C109.42-15.75 111.8-24.64 111.8-33.69C111.8-42.74 109.41-51.63 104.89-59.47L60.24-59.47L60.24-59.46C64.76-59.47 69.21-58.28 73.13-56.01C77.05-53.75 80.3-50.5 82.57-46.58C84.83-42.66 86.02-38.21 86.02-33.69C86.02-29.16 84.83-24.72 82.57-20.8Z"/>
   <path class="monochrome-3 multicolor-4:custom hierarchical-3:primary SFSymbolsPreview34A853" d="M37.92-20.8L15.59-59.46C11.07-51.62 8.69-42.73 8.68-33.68C8.68-24.63 11.07-15.74 15.59-7.9C20.12-0.06 26.63 6.44 34.47 10.97C42.31 15.49 51.2 17.87 60.25 17.87L82.57-20.8C80.31-16.88 77.05-13.63 73.14-11.36C69.22-9.1 64.77-7.9 60.25-7.9C55.72-7.9 51.27-9.09 47.35-11.36C43.43-13.62 40.18-16.88 37.92-20.8Z"/>
  </g>
  <g id="Semibold-M" transform="matrix(1 0 0 1 1983.82 1126)">
   <path class="multicolor-0:white SFSymbolsPreviewFFFFFF" d="M59.67-8C74.31-8 86.18-19.87 86.18-34.51C86.18-49.14 74.31-61 59.67-61C45.04-61 33.18-49.14 33.18-34.51C33.18-19.87 45.04-8 59.67-8Z"/>
   <path class="monochrome-0 multicolor-1:custom hierarchical-0:primary SFSymbolsPreview4183F0" d="M59.6-14.41C70.73-14.41 79.76-23.44 79.76-34.57C79.76-45.7 70.73-54.72 59.6-54.72C48.47-54.72 39.45-45.7 39.45-34.57C39.45-23.44 48.47-14.41 59.6-14.41Z"/>
   <path class="monochrome-1 multicolor-2:custom hierarchical-1:primary SFSymbolsPreviewEA4335" d="M59.6-60.03L103.69-60.03C99.22-67.77 92.8-74.2 85.06-78.67C77.32-83.14 68.54-85.49 59.6-85.49C50.66-85.49 41.88-83.13 34.14-78.66C26.4-74.19 19.97-67.76 15.51-60.02L37.55-21.84L37.56-21.84C35.32-25.71 34.14-30.1 34.14-34.57C34.14-39.04 35.32-43.43 37.55-47.3C39.78-51.17 43-54.38 46.87-56.62C50.74-58.85 55.13-60.03 59.6-60.03Z"/>
   <path class="monochrome-2 multicolor-3:custom hierarchical-2:primary SFSymbolsPreviewFBBC04" d="M81.65-21.84L59.6 16.34C68.54 16.34 77.32 13.99 85.06 9.52C92.8 5.05 99.23-1.37 103.7-9.11C108.17-16.86 110.52-25.64 110.52-34.57C110.52-43.51 108.16-52.29 103.69-60.03L59.6-60.03L59.59-60.03C64.06-60.03 68.46-58.86 72.33-56.62C76.2-54.39 79.41-51.17 81.65-47.3C83.89-43.43 85.06-39.04 85.06-34.57C85.06-30.1 83.88-25.71 81.65-21.84Z"/>
   <path class="monochrome-3 multicolor-4:custom hierarchical-3:primary SFSymbolsPreview34A853" d="M37.55-21.84L15.51-60.02C11.04-52.28 8.68-43.5 8.68-34.57C8.68-25.63 11.04-16.85 15.51-9.11C19.97-1.37 26.4 5.06 34.14 9.53C41.89 14 50.67 16.35 59.61 16.34L81.65-21.84L81.65-21.85C79.42-17.97 76.2-14.76 72.33-12.52C68.46-10.29 64.07-9.11 59.6-9.11C55.13-9.11 50.74-10.28 46.87-12.52C43-14.75 39.79-17.97 37.55-21.84Z"/>
  </g>
  <g id="Medium-M" transform="matrix(1 0 0 1 1687.6 1126)">
   <path class="multicolor-0:white SFSymbolsPreviewFFFFFF" d="M58.91-7C74.64-7 87.4-19.54 87.4-35.01C87.4-50.46 74.64-63 58.91-63C43.16-63 30.4-50.46 30.4-35.01C30.4-19.54 43.16-7 58.91-7Z"/>
   <path class="monochrome-0 multicolor-1:custom hierarchical-0:primary SFSymbolsPreview4183F0" d="M59.12-15.02C70.14-15.02 79.08-23.96 79.08-34.99C79.08-46.01 70.14-54.95 59.12-54.95C48.09-54.95 39.15-46.01 39.15-34.99C39.15-23.96 48.09-15.02 59.12-15.02Z"/>
   <path class="monochrome-1 multicolor-2:custom hierarchical-1:primary SFSymbolsPreviewEA4335" d="M59.12-60.2L102.79-60.2C98.36-67.87 92-74.24 84.33-78.67C76.66-83.09 67.96-85.42 59.11-85.42C50.26-85.42 41.56-83.09 33.9-78.66C26.23-74.23 19.87-67.87 15.44-60.2L37.28-22.38C35.07-26.21 33.9-30.56 33.9-34.98C33.9-39.41 35.06-43.76 37.27-47.6C39.49-51.43 42.67-54.61 46.5-56.83C50.34-59.04 54.69-60.21 59.12-60.2Z"/>
   <path class="monochrome-2 multicolor-3:custom hierarchical-2:primary SFSymbolsPreviewFBBC04" d="M80.95-22.38L59.12 15.44C67.97 15.44 76.67 13.11 84.33 8.68C92 4.26 98.37-2.11 102.79-9.78C107.22-17.44 109.55-26.14 109.55-34.99C109.55-43.85 107.21-52.54 102.78-60.21L59.11-60.21L59.11-60.2C63.54-60.21 67.89-59.04 71.72-56.83C75.55-54.62 78.74-51.43 80.95-47.6C83.17-43.77 84.33-39.42 84.33-34.99C84.33-30.56 83.17-26.21 80.95-22.38Z"/>
   <path class="monochrome-3 multicolor-4:custom hierarchical-3:primary SFSymbolsPreview34A853" d="M37.28-22.38L15.44-60.2C11.01-52.53 8.68-43.84 8.68-34.98C8.68-26.13 11.01-17.43 15.44-9.77C19.87-2.1 26.23 4.27 33.9 8.69C41.57 13.12 50.27 15.44 59.12 15.44L80.95-22.38L80.95-22.39C78.74-18.55 75.56-15.37 71.73-13.15C67.89-10.94 63.54-9.77 59.12-9.77C54.69-9.77 50.34-10.93 46.51-13.15C42.67-15.36 39.49-18.54 37.28-22.38Z"/>
  </g>
  <g id="Regular-M" transform="matrix(1 0 0 1 1391.32 1126)">
   <path class="multicolor-0:white SFSymbolsPreviewFFFFFF" d="M58.68-7C74.14-7 86.68-19.54 86.68-35C86.68-50.46 74.14-63 58.68-63C43.22-63 30.68-50.46 30.68-35C30.68-19.54 43.22-7 58.68-7Z"/>
   <path class="monochrome-0 multicolor-1:custom hierarchical-0:primary SFSymbolsPreview4183F0" d="M58.68-15.21C69.61-15.21 78.47-24.07 78.47-35C78.47-45.93 69.61-54.79 58.68-54.79C47.75-54.79 38.89-45.93 38.89-35C38.89-24.07 47.75-15.21 58.68-15.21Z"/>
   <path class="monochrome-1 multicolor-2:custom hierarchical-1:primary SFSymbolsPreviewEA4335" d="M58.68-60L101.97-60C97.59-67.6 91.28-73.91 83.68-78.3C76.07-82.69 67.45-85 58.68-85C49.9-85 41.28-82.69 33.68-78.3C26.08-73.91 19.77-67.6 15.38-59.99L37.03-22.5C34.84-26.3 33.68-30.61 33.68-35C33.68-39.39 34.83-43.7 37.03-47.5C39.22-51.3 42.38-54.46 46.18-56.65C49.98-58.85 54.29-60 58.68-60Z"/>
   <path class="monochrome-2 multicolor-3:custom hierarchical-2:primary SFSymbolsPreviewFBBC04" d="M80.33-22.5L58.68 14.99C67.46 15 76.08 12.69 83.68 8.3C91.28 3.91 97.59-2.4 101.98-10C106.37-17.6 108.68-26.23 108.68-35C108.68-43.78 106.36-52.4 101.97-60L58.68-60L58.67-60C63.06-60 67.37-58.85 71.18-56.65C74.98-54.46 78.13-51.3 80.33-47.5C82.52-43.7 83.68-39.39 83.68-35C83.68-30.61 82.52-26.3 80.33-22.5Z"/>
   <path class="monochrome-3 multicolor-4:custom hierarchical-3:primary SFSymbolsPreview34A853" d="M37.03-22.5L15.38-59.99C10.99-52.39 8.68-43.77 8.68-34.99C8.68-26.22 10.99-17.6 15.38-10C19.77-2.39 26.08 3.92 33.68 8.3C41.28 12.69 49.91 15 58.68 15L80.33-22.5C78.14-18.7 74.98-15.54 71.18-13.35C67.38-11.15 63.07-10 58.68-10C54.29-10 49.98-11.15 46.18-13.35C42.38-15.54 39.22-18.7 37.03-22.5Z"/>
  </g>
  <g id="Light-M" transform="matrix(1 0 0 1 1095.63 1126)">
   <path class="multicolor-0:white SFSymbolsPreviewFFFFFF" d="M57.86-8C72.5-8 84.37-20.09 84.37-34.99C84.37-49.91 72.5-62 57.86-62C43.24-62 31.37-49.91 31.37-34.99C31.37-20.09 43.24-8 57.86-8Z"/>
   <path class="monochrome-0 multicolor-1:custom hierarchical-0:primary SFSymbolsPreview4183F0" d="M57.65-15.64C68.36-15.64 77.04-24.32 77.04-35.02C77.04-45.73 68.36-54.41 57.65-54.41C46.95-54.41 38.27-45.73 38.27-35.02C38.27-24.32 46.95-15.64 57.65-15.64Z"/>
   <path class="monochrome-1 multicolor-2:custom hierarchical-1:primary SFSymbolsPreviewEA4335" d="M57.65-59.51L100.06-59.51C95.76-66.96 89.58-73.14 82.14-77.44C74.69-81.74 66.25-84 57.65-84C49.05-84 40.61-81.74 33.16-77.44C25.72-73.14 19.54-66.95 15.24-59.51L36.45-22.78C34.3-26.5 33.17-30.72 33.17-35.02C33.16-39.32 34.3-43.54 36.44-47.27C38.59-50.99 41.68-54.08 45.41-56.23C49.13-58.38 53.35-59.51 57.65-59.51Z"/>
   <path class="monochrome-2 multicolor-3:custom hierarchical-2:primary SFSymbolsPreviewFBBC04" d="M78.86-22.78L57.66 13.94C66.25 13.95 74.7 11.68 82.14 7.39C89.59 3.09 95.77-3.09 100.07-10.54C104.37-17.98 106.63-26.43 106.63-35.03C106.62-43.62 104.36-52.07 100.06-59.51L57.65-59.51C61.95-59.51 66.17-58.38 69.89-56.23C73.62-54.08 76.71-50.99 78.86-47.27C81.01-43.55 82.14-39.32 82.14-35.03C82.14-30.73 81.01-26.5 78.86-22.78Z"/>
   <path class="monochrome-3 multicolor-4:custom hierarchical-3:primary SFSymbolsPreview34A853" d="M36.45-22.78L15.24-59.51C10.94-52.06 8.68-43.62 8.68-35.02C8.68-26.43 10.94-17.98 15.24-10.54C19.54-3.09 25.72 3.09 33.17 7.39C40.61 11.68 49.06 13.95 57.66 13.94L78.86-22.78L78.86-22.79C76.71-19.06 73.62-15.97 69.9-13.82C66.18-11.67 61.95-10.54 57.66-10.54C53.36-10.54 49.13-11.67 45.41-13.82C41.69-15.97 38.6-19.06 36.45-22.78Z"/>
  </g>
  <g id="Thin-M" transform="matrix(1 0 0 1 800.02 1126)">
   <path class="multicolor-0:white SFSymbolsPreviewFFFFFF" d="M56.481-8C71.668-8 83.98-20.31 83.98-35.5C83.98-50.68 71.668-63 56.481-63C41.293-63 28.98-50.68 28.98-35.5C28.98-20.31 41.293-8 56.481-8Z"/>
   <path class="monochrome-0 multicolor-1:custom hierarchical-0:primary SFSymbolsPreview4183F0" d="M56.559-16.17C67.026-16.17 75.511-24.65 75.511-35.12C75.511-45.58 67.026-54.07 56.559-54.07C46.092-54.07 37.606-45.58 37.606-35.12C37.606-24.65 46.092-16.17 56.559-16.17Z"/>
   <path class="monochrome-1 multicolor-2:custom hierarchical-1:primary SFSymbolsPreviewEA4335" d="M56.558-59.06L98.017-59.06C93.816-66.34 87.772-72.38 80.494-76.58C73.216-80.78 64.959-83 56.555-83C48.151-83 39.895-80.78 32.617-76.58C25.339-72.38 19.297-66.33 15.096-59.05L35.826-23.15L35.831-23.14C33.728-26.78 32.62-30.91 32.618-35.11C32.617-39.32 33.722-43.45 35.823-47.09C37.924-50.73 40.947-53.75 44.587-55.85C48.226-57.95 52.356-59.06 56.558-59.06Z"/>
   <path class="monochrome-2 multicolor-3:custom hierarchical-2:primary SFSymbolsPreviewFBBC04" d="M77.289-23.15L56.56 12.76C64.965 12.76 73.221 10.55 80.5 6.34C87.778 2.14 93.822-3.9 98.024-11.18C102.225-18.46 104.437-26.72 104.435-35.12C104.434-43.53 102.22-51.78 98.015-59.06L56.557-59.06L56.552-59.06C60.754-59.06 64.884-57.95 68.524-55.85C72.165-53.75 75.188-50.73 77.29-47.09C79.392-43.45 80.499-39.32 80.499-35.12C80.499-30.92 79.391-26.79 77.289-23.15Z"/>
   <path class="monochrome-3 multicolor-4:custom hierarchical-3:primary SFSymbolsPreview34A853" d="M35.826-23.15L15.096-59.05C10.893-51.77 8.68-43.52 8.68-35.11C8.68-26.71 10.892-18.45 15.095-11.17C19.298-3.9 25.342 2.15 32.621 6.35C39.901 10.55 48.157 12.76 56.562 12.76L77.291-23.15C75.191-19.51 72.17-16.49 68.531-14.39C64.892-12.28 60.763-11.18 56.56-11.17C52.357-11.17 48.228-12.28 44.589-14.38C40.949-16.48 37.927-19.51 35.826-23.15Z"/>
  </g>
  <g id="Ultralight-M" transform="matrix(1 0 0 1 503.874 1126)">
   <path class="multicolor-0:white SFSymbolsPreviewFFFFFF" d="M55.626-8C70.814-8 83.126-20.31 83.126-35.51C83.126-50.69 70.814-63 55.626-63C40.439-63 28.126-50.69 28.126-35.51C28.126-20.31 40.439-8 55.626-8Z"/>
   <path class="monochrome-0 multicolor-1:custom hierarchical-0:primary SFSymbolsPreview4183F0" d="M55.993-16.76C66.337-16.76 74.722-25.14 74.722-35.49C74.722-45.83 66.337-54.21 55.993-54.21C45.65-54.21 37.264-45.83 37.264-35.49C37.264-25.14 45.65-16.76 55.993-16.76Z"/>
   <path class="monochrome-1 multicolor-2:custom hierarchical-1:primary SFSymbolsPreviewEA4335" d="M55.994-59.14L96.963-59.14C92.811-66.34 86.839-72.31 79.647-76.46C72.454-80.62 64.295-82.8 55.99-82.8C47.685-82.8 39.526-80.61 32.335-76.46C25.143-72.31 19.171-66.33 15.021-59.14L35.505-23.66L35.511-23.65C33.432-27.25 32.337-31.33 32.336-35.48C32.335-39.64 33.427-43.72 35.503-47.31C37.579-50.91 40.566-53.9 44.163-55.97C47.76-58.05 51.84-59.14 55.994-59.14Z"/>
   <path class="monochrome-2 multicolor-3:custom hierarchical-2:primary SFSymbolsPreviewFBBC04" d="M76.48-23.66L55.995 11.82C64.3 11.82 72.459 9.64 79.652 5.49C86.845 1.33 92.817-4.64 96.969-11.83C101.122-19.03 103.307-27.18 103.305-35.49C103.304-43.79 101.116-51.95 96.961-59.14L55.992-59.14L55.987-59.14C60.14-59.14 64.221-58.05 67.818-55.98C71.416-53.9 74.403-50.91 76.481-47.32C78.558-43.72 79.651-39.64 79.651-35.49C79.651-31.33 78.557-27.25 76.48-23.66Z"/>
   <path class="monochrome-3 multicolor-4:custom hierarchical-3:primary SFSymbolsPreview34A853" d="M35.505-23.66L15.021-59.14C10.867-51.94 8.68-43.79 8.68-35.48C8.68-27.18 10.866-19.02 15.019-11.82C19.172-4.63 25.146 1.34 32.339 5.49C39.532 9.64 47.692 11.83 55.997 11.82L76.481-23.66C74.407-20.06 71.421-17.08 67.825-15C64.229-12.92 60.149-11.83 55.995-11.83C51.842-11.82 47.762-12.92 44.165-14.99C40.568-17.07 37.581-20.06 35.505-23.66Z"/>
  </g>
  <g id="Black-S" transform="matrix(1 0 0 1 2882.89 696)">
   <path class="multicolor-0:white SFSymbolsPreviewFFFFFF" d="M50.61-9C65.25-9 77.11-20.642 77.11-35.001C77.11-49.36 65.25-61 50.61-61C35.97-61 24.11-49.36 24.11-35.001C24.11-20.642 35.97-9 50.61-9Z"/>
   <path class="monochrome-0 multicolor-1:custom hierarchical-0:primary SFSymbolsPreview4183F0" d="M50.66-18.392C59.84-18.392 67.28-25.833 67.28-35.011C67.28-44.189 59.84-51.629 50.66-51.629C41.48-51.629 34.04-44.189 34.04-35.011C34.04-25.833 41.48-18.392 50.66-18.392Z"/>
   <path class="monochrome-1 multicolor-2:custom hierarchical-1:primary SFSymbolsPreviewEA4335" d="M50.66-56.001L87.01-56.001C83.33-62.383 78.03-67.683 71.65-71.368C65.27-75.053 58.03-76.993 50.66-76.992C43.29-76.992 36.05-75.051 29.67-71.365C23.29-67.679 17.99-62.379 14.31-55.996L32.48-24.513L32.5-24.518C30.65-27.706 29.67-31.326 29.67-35.012C29.67-38.697 30.63-42.319 32.48-45.512C34.32-48.704 36.97-51.355 40.16-53.197C43.35-55.038 46.98-56.005 50.66-56.001Z"/>
   <path class="monochrome-2 multicolor-3:custom hierarchical-2:primary SFSymbolsPreviewFBBC04" d="M68.84-24.509L50.66 6.973C58.03 6.974 65.27 5.035 71.65 1.351C78.04-2.334 83.34-7.634 87.02-14.016C90.7-20.398 92.64-27.638 92.64-35.007C92.64-42.376 90.7-49.615 87.01-55.996L50.66-55.996L50.65-55.98C54.34-55.987 57.96-55.022 61.16-53.183C64.35-51.344 67-48.695 68.85-45.503C70.69-42.312 71.66-38.691 71.66-35.005C71.66-31.319 70.69-27.699 68.84-24.509Z"/>
   <path class="monochrome-3 multicolor-4:custom hierarchical-3:primary SFSymbolsPreview34A853" d="M32.48-24.51L14.31-55.992C10.62-49.611 8.68-42.371 8.68-35.002C8.68-27.633 10.62-20.394 14.31-14.012C17.99-7.63 23.29-2.331 29.67 1.352C36.06 5.036 43.3 6.974 50.67 6.972L68.84-24.51L68.83-24.522C66.99-21.326 64.35-18.672 61.16-16.825C57.97-14.979 54.35-14.006 50.66-14.004C46.97-14.003 43.35-14.974 40.16-16.818C36.97-18.662 34.32-21.315 32.48-24.51Z"/>
  </g>
  <g id="Heavy-S" transform="matrix(1 0 0 1 2586.79 696)">
   <path class="multicolor-0:white SFSymbolsPreviewFFFFFF" d="M50.2-9C64.57-9 76.21-20.641 76.21-35.001C76.21-49.359 64.57-61 50.2-61C35.85-61 24.21-49.359 24.21-35.001C24.21-20.641 35.85-9 50.2-9Z"/>
   <path class="monochrome-0 multicolor-1:custom hierarchical-0:primary SFSymbolsPreview4183F0" d="M50.05-18.938C59.1-18.938 66.43-26.271 66.43-35.317C66.43-44.362 59.1-51.695 50.05-51.695C41.01-51.695 33.68-44.362 33.68-35.317C33.68-26.271 41.01-18.938 50.05-18.938Z"/>
   <path class="monochrome-1 multicolor-2:custom hierarchical-1:primary SFSymbolsPreviewEA4335" d="M50.05-56.006L85.88-56.006C82.25-62.297 77.03-67.521 70.74-71.152C64.45-74.784 57.31-76.696 50.05-76.695C42.79-76.695 35.65-74.782 29.36-71.149C23.07-67.517 17.85-62.292 14.22-56.001L32.14-24.973L32.15-24.977C30.33-28.119 29.37-31.687 29.37-35.32C29.36-38.952 30.31-42.522 32.13-45.669C33.95-48.815 36.56-51.428 39.7-53.243C42.85-55.058 46.42-56.011 50.05-56.006Z"/>
   <path class="monochrome-2 multicolor-3:custom hierarchical-2:primary SFSymbolsPreviewFBBC04" d="M67.97-24.967L50.06 6.062C57.32 6.063 64.45 4.152 70.74 0.52C77.03-3.111 82.26-8.334 85.89-14.625C89.52-20.915 91.43-28.05 91.43-35.313C91.43-42.576 89.51-49.711 85.88-56L50.05-56L50.05-55.984C53.68-55.991 57.25-55.04 60.4-53.228C63.55-51.415 66.16-48.804 67.98-45.659C69.8-42.513 70.75-38.944 70.75-35.311C70.75-31.679 69.79-28.111 67.97-24.967Z"/>
   <path class="monochrome-3 multicolor-4:custom hierarchical-3:primary SFSymbolsPreview34A853" d="M32.14-24.968L14.22-55.996C10.59-49.707 8.68-42.572 8.68-35.309C8.68-28.046 10.59-20.91 14.22-14.621C17.85-8.331 23.08-3.108 29.37 0.522C35.66 4.153 42.8 6.063 50.06 6.061L67.97-24.968L67.96-24.979C66.15-21.83 63.54-19.213 60.4-17.393C57.25-15.573 53.69-14.615 50.05-14.613C46.42-14.612 42.85-15.569 39.71-17.386C36.56-19.204 33.95-21.82 32.14-24.968Z"/>
  </g>
  <g id="Bold-S" transform="matrix(1 0 0 1 2290.75 696)">
   <path class="multicolor-0:white SFSymbolsPreviewFFFFFF" d="M49.25-11C62.51-11 73.25-21.746 73.25-35C73.25-48.254 62.51-59 49.25-59C35.99-59 25.25-48.254 25.25-35C25.25-21.746 35.99-11 49.25-11Z"/>
   <path class="monochrome-0 multicolor-1:custom hierarchical-0:primary SFSymbolsPreview4183F0" d="M49.38-19.042C58.28-19.042 65.49-26.256 65.49-35.154C65.49-44.052 58.28-51.266 49.38-51.266C40.48-51.266 33.27-44.052 33.27-35.154C33.27-26.256 40.48-19.042 49.38-19.042Z"/>
   <path class="monochrome-1 multicolor-2:custom hierarchical-1:primary SFSymbolsPreviewEA4335" d="M49.38-55.504L84.62-55.504C81.05-61.692 75.91-66.83 69.73-70.403C63.54-73.975 56.52-75.856 49.38-75.855C42.23-75.855 35.21-73.973 29.03-70.4C22.84-66.827 17.7-61.687 14.13-55.499L31.75-24.976L31.77-24.981C29.98-28.072 29.03-31.581 29.03-35.155C29.02-38.728 29.96-42.239 31.75-45.335C33.53-48.43 36.1-51 39.2-52.785C42.29-54.571 45.81-55.508 49.38-55.504Z"/>
   <path class="monochrome-2 multicolor-3:custom hierarchical-2:primary SFSymbolsPreviewFBBC04" d="M67-24.973L49.38 5.55C56.53 5.551 63.54 3.671 69.73 0.099C75.92-3.474 81.06-8.612 84.63-14.799C88.2-20.987 90.08-28.006 90.08-35.151C90.08-42.295 88.2-49.314 84.62-55.5L49.38-55.5L49.37-55.484C52.95-55.491 56.46-54.556 59.56-52.773C62.65-50.99 65.22-48.421 67.01-45.327C68.8-42.233 69.74-38.722 69.74-35.149C69.74-31.575 68.79-28.065 67-24.973Z"/>
   <path class="monochrome-3 multicolor-4:custom hierarchical-3:primary SFSymbolsPreview34A853" d="M31.76-24.974L14.13-55.496C10.56-49.309 8.68-42.291 8.68-35.146C8.68-28.001 10.56-20.983 14.13-14.795C17.7-8.608 22.84-3.471 29.03 0.1C35.22 3.672 42.24 5.551 49.38 5.549L67.01-24.974L66.99-24.985C65.21-21.887 62.65-19.313 59.55-17.523C56.46-15.733 52.95-14.789 49.38-14.788C45.81-14.787 42.29-15.728 39.2-17.516C36.11-19.304 33.54-21.877 31.76-24.974Z"/>
  </g>
  <g id="Semibold-S" transform="matrix(1 0 0 1 1994.51 696)">
   <path class="multicolor-0:white SFSymbolsPreviewFFFFFF" d="M48.98-12C61.97-12 72.49-22.521 72.49-35.499C72.49-48.479 61.97-59 48.98-59C36.01-59 25.49-48.479 25.49-35.499C25.49-22.521 36.01-12 48.98-12Z"/>
   <path class="monochrome-0 multicolor-1:custom hierarchical-0:primary SFSymbolsPreview4183F0" d="M48.91-19.481C57.71-19.481 64.84-26.612 64.84-35.408C64.84-44.205 57.71-51.336 48.91-51.336C40.12-51.336 32.99-44.205 32.99-35.408C32.99-26.612 40.12-19.481 48.91-19.481Z"/>
   <path class="monochrome-1 multicolor-2:custom hierarchical-1:primary SFSymbolsPreviewEA4335" d="M48.91-55.525L83.76-55.525C80.23-61.643 75.15-66.722 69.03-70.254C62.91-73.786 55.97-75.645 48.91-75.645C41.85-75.644 34.91-73.784 28.79-70.251C22.68-66.719 17.6-61.638 14.07-55.52L31.49-25.347L31.51-25.351C29.73-28.407 28.8-31.876 28.8-35.409C28.79-38.941 29.72-42.412 31.48-45.472C33.25-48.532 35.79-51.073 38.85-52.838C41.91-54.603 45.38-55.53 48.91-55.525Z"/>
   <path class="monochrome-2 multicolor-3:custom hierarchical-2:primary SFSymbolsPreviewFBBC04" d="M66.34-25.341L48.92 4.833C55.98 4.834 62.92 2.975 69.03-0.556C75.15-4.087 80.23-9.167 83.76-15.284C87.29-21.401 89.15-28.34 89.15-35.403C89.15-42.466 87.29-49.404 83.75-55.52L48.91-55.52L48.91-55.504C52.44-55.511 55.91-54.586 58.97-52.823C62.04-51.061 64.58-48.522 66.35-45.463C68.11-42.404 69.04-38.934 69.04-35.401C69.04-31.868 68.11-28.398 66.34-25.341Z"/>
   <path class="monochrome-3 multicolor-4:custom hierarchical-3:primary SFSymbolsPreview34A853" d="M31.49-25.342L14.07-55.516C10.54-49.399 8.68-42.461 8.68-35.398C8.68-28.335 10.54-21.396 14.07-15.28C17.6-9.163 22.68-4.085 28.8-0.554C34.92 2.976 41.86 4.834 48.92 4.832L66.34-25.342L66.33-25.353C64.57-22.29 62.03-19.746 58.97-17.976C55.92-16.206 52.45-15.274 48.91-15.273C45.38-15.272 41.91-16.202 38.85-17.969C35.79-19.737 33.25-22.281 31.49-25.342Z"/>
  </g>
  <g id="Medium-S" transform="matrix(1 0 0 1 1698.15 696)">
   <path class="multicolor-0:white SFSymbolsPreviewFFFFFF" d="M48.85-11C62.1-11 72.85-21.745 72.85-35C72.85-48.255 62.1-59 48.85-59C35.6-59 24.85-48.255 24.85-35C24.85-21.745 35.6-11 48.85-11Z"/>
   <path class="monochrome-0 multicolor-1:custom hierarchical-0:primary SFSymbolsPreview4183F0" d="M48.56-19.281C57.28-19.281 64.35-26.349 64.35-35.068C64.35-43.787 57.28-50.855 48.56-50.855C39.84-50.855 32.77-43.787 32.77-35.068C32.77-26.349 39.84-19.281 48.56-19.281Z"/>
   <path class="monochrome-1 multicolor-2:custom hierarchical-1:primary SFSymbolsPreviewEA4335" d="M48.56-55.007L83.09-55.007C79.59-61.071 74.56-66.106 68.5-69.606C62.43-73.107 55.56-74.95 48.56-74.949C41.56-74.949 34.68-73.105 28.62-69.604C22.55-66.102 17.52-61.066 14.02-55.003L31.29-25.095L31.31-25.099C29.55-28.128 28.62-31.567 28.62-35.068C28.61-38.57 29.53-42.01 31.28-45.043C33.03-48.076 35.55-50.594 38.58-52.344C41.62-54.093 45.06-55.012 48.56-55.007Z"/>
   <path class="monochrome-2 multicolor-3:custom hierarchical-2:primary SFSymbolsPreviewFBBC04" d="M65.83-25.092L48.56 4.816C55.56 4.817 62.44 2.975 68.5-0.525C74.56-4.025 79.6-9.06 83.1-15.123C86.6-21.186 88.44-28.064 88.44-35.064C88.44-42.065 86.59-48.942 83.09-55.004L48.56-55.004L48.55-54.989C52.05-54.995 55.5-54.079 58.53-52.332C61.56-50.584 64.09-48.068 65.84-45.036C67.59-42.004 68.51-38.564 68.51-35.063C68.51-31.561 67.58-28.122 65.83-25.092Z"/>
   <path class="monochrome-3 multicolor-4:custom hierarchical-3:primary SFSymbolsPreview34A853" d="M31.29-25.092L14.02-55C10.52-48.938 8.68-42.06 8.68-35.06C8.68-28.059 10.52-21.182 14.02-15.119C17.52-9.057 22.56-4.023 28.62-0.523C34.69 2.976 41.56 4.817 48.56 4.815L65.83-25.093L65.82-25.104C64.07-22.068 61.56-19.546 58.53-17.792C55.5-16.038 52.06-15.113 48.56-15.112C45.06-15.111 41.62-16.033 38.59-17.785C35.55-19.537 33.04-22.057 31.29-25.092Z"/>
  </g>
  <g id="Regular-S" transform="matrix(1 0 0 1 1401.9 696)">
   <path class="multicolor-0:white SFSymbolsPreviewFFFFFF" d="M48.09-12C61.35-12 72.1-22.52 72.1-35.5C72.1-48.478 61.35-59 48.09-59C34.84-59 24.1-48.478 24.1-35.5C24.1-22.52 34.84-12 48.09-12Z"/>
   <path class="monochrome-0 multicolor-1:custom hierarchical-0:primary SFSymbolsPreview4183F0" d="M48.1-19.72C56.72-19.72 63.71-26.706 63.71-35.325C63.71-43.943 56.72-50.93 48.1-50.93C39.48-50.93 32.5-43.943 32.5-35.325C32.5-26.706 39.48-19.72 48.1-19.72Z"/>
   <path class="monochrome-1 multicolor-2:custom hierarchical-1:primary SFSymbolsPreviewEA4335" d="M48.1-55.034L82.24-55.034C78.78-61.028 73.8-66.005 67.81-69.465C61.82-72.925 55.02-74.747 48.1-74.746C41.18-74.746 34.38-72.923 28.39-69.462C22.4-66.001 17.42-61.023 13.96-55.03L31.03-25.467L31.05-25.471C29.31-28.465 28.39-31.864 28.39-35.325C28.39-38.786 29.3-42.187 31.03-45.185C32.75-48.183 35.24-50.672 38.24-52.401C41.24-54.13 44.64-55.039 48.1-55.034Z"/>
   <path class="monochrome-2 multicolor-3:custom hierarchical-2:primary SFSymbolsPreviewFBBC04" d="M65.17-25.464L48.1 4.099C55.02 4.1 61.82 2.279 67.82-1.181C73.81-4.641 78.78-9.617 82.24-15.61C85.7-21.603 87.52-28.402 87.52-35.322C87.52-42.242 85.7-49.039 82.24-55.031L48.1-55.031L48.1-55.016C51.56-55.023 54.96-54.117 57.96-52.39C60.96-50.663 63.45-48.175 65.18-45.178C66.91-42.182 67.82-38.781 67.82-35.32C67.82-31.859 66.91-28.459 65.17-25.464Z"/>
   <path class="monochrome-3 multicolor-4:custom hierarchical-3:primary SFSymbolsPreview34A853" d="M31.03-25.465L13.97-55.027C10.5-49.035 8.68-42.237 8.68-35.317C8.68-28.397 10.5-21.599 13.96-15.606C17.42-9.614 22.4-4.638 28.39-1.179C34.39 2.28 41.19 4.1 48.11 4.098L65.17-25.465L65.16-25.476C63.44-22.475 60.95-19.982 57.96-18.248C54.96-16.514 51.56-15.601 48.1-15.599C44.64-15.598 41.24-16.51 38.24-18.242C35.25-19.973 32.76-22.466 31.03-25.465Z"/>
  </g>
  <g id="Light-S" transform="matrix(1 0 0 1 1105.92 696)">
   <path class="multicolor-0:white SFSymbolsPreviewFFFFFF" d="M47.08-11C60.34-11 71.08-21.746 71.08-35.001C71.08-48.254 60.34-59 47.08-59C33.82-59 23.08-48.254 23.08-35.001C23.08-21.746 33.82-11 47.08-11Z"/>
   <path class="monochrome-0 multicolor-1:custom hierarchical-0:primary SFSymbolsPreview4183F0" d="M47.37-19.797C55.83-19.797 62.68-26.654 62.68-35.112C62.68-43.569 55.83-50.426 47.37-50.426C38.91-50.426 32.06-43.569 32.06-35.112C32.06-26.654 38.91-19.797 47.37-19.797Z"/>
   <path class="monochrome-1 multicolor-2:custom hierarchical-1:primary SFSymbolsPreviewEA4335" d="M47.37-54.453L80.87-54.453C77.48-60.334 72.59-65.218 66.71-68.614C60.83-72.01 54.16-73.797 47.37-73.797C40.58-73.796 33.91-72.008 28.03-68.611C22.14-65.215 17.26-60.33 13.87-54.448L30.62-25.436L30.63-25.44C28.93-28.378 28.03-31.714 28.03-35.111C28.02-38.507 28.91-41.845 30.61-44.787C32.31-47.729 34.75-50.172 37.69-51.869C40.64-53.566 43.97-54.457 47.37-54.453Z"/>
   <path class="monochrome-2 multicolor-3:custom hierarchical-2:primary SFSymbolsPreviewFBBC04" d="M64.12-25.433L47.37 3.579C54.16 3.58 60.83 1.793 66.72-1.603C72.6-4.998 77.48-9.882 80.88-15.763C84.27-21.645 86.06-28.316 86.06-35.107C86.05-41.898 84.27-48.569 80.87-54.449L47.37-54.449L47.36-54.434C50.76-54.441 54.1-53.552 57.04-51.857C59.99-50.162 62.43-47.721 64.13-44.78C65.83-41.839 66.72-38.502 66.72-35.105C66.72-31.709 65.82-28.373 64.12-25.433Z"/>
   <path class="monochrome-3 multicolor-4:custom hierarchical-3:primary SFSymbolsPreview34A853" d="M30.62-25.434L13.87-54.445C10.47-48.565 8.69-41.893 8.68-35.102C8.68-28.311 10.47-21.64 13.87-15.759C17.26-9.878 22.15-4.995 28.03-1.601C33.91 1.794 40.58 3.58 47.37 3.578L64.12-25.434L64.11-25.445C62.42-22.5 59.98-20.053 57.04-18.352C54.1-16.65 50.77-15.754 47.37-15.752C43.97-15.751 40.64-16.646 37.7-18.345C34.76-20.045 32.31-22.491 30.62-25.434Z"/>
  </g>
  <g id="Thin-S" transform="matrix(1 0 0 1 810.176 696)">
   <path class="multicolor-0:white SFSymbolsPreviewFFFFFF" d="M46.325-15C57.645-15 66.824-24.179 66.824-35.501C66.824-46.823 57.645-56 46.325-56C35.003-56 25.824-46.823 25.824-35.501C25.824-24.179 35.003-15 46.325-15Z"/>
   <path class="monochrome-0 multicolor-1:custom hierarchical-0:primary SFSymbolsPreview4183F0" d="M46.402-20.217C54.648-20.217 61.334-26.903 61.334-35.15C61.334-43.397 54.648-50.082 46.402-50.082C38.155-50.082 31.469-43.397 31.469-35.15C31.469-26.903 38.155-20.217 46.402-20.217Z"/>
   <path class="monochrome-1 multicolor-2:custom hierarchical-1:primary SFSymbolsPreviewEA4335" d="M46.402-54.009L79.066-54.009C75.756-59.744 70.994-64.507 65.26-67.818C59.526-71.129 53.021-72.872 46.399-72.871C39.777-72.871 33.273-71.127 27.539-67.815C21.805-64.503 17.044-59.74 13.735-54.005L30.067-25.716L30.082-25.72C28.42-28.585 27.543-31.838 27.54-35.15C27.536-38.461 28.405-41.716 30.06-44.585C31.715-47.453 34.097-49.835 36.966-51.49C39.835-53.144 43.09-54.013 46.402-54.009Z"/>
   <path class="monochrome-2 multicolor-3:custom hierarchical-2:primary SFSymbolsPreviewFBBC04" d="M62.735-25.715L46.402 2.573C53.024 2.574 59.529 0.831 65.264-2.479C70.998-5.79 75.76-10.552 79.071-16.287C82.381-22.021 84.123-28.526 84.122-35.148C84.121-41.77 82.376-48.274 79.064-54.008L46.4-54.008L46.396-53.993C49.707-54 52.963-53.133 55.833-51.48C58.703-49.827 61.086-47.447 62.743-44.58C64.4-41.712 65.272-38.458 65.27-35.146C65.269-31.834 64.394-28.581 62.735-25.715Z"/>
   <path class="monochrome-3 multicolor-4:custom hierarchical-3:primary SFSymbolsPreview34A853" d="M30.068-25.712L13.736-54C10.424-48.266 8.68-41.761 8.68-35.14C8.68-28.518 10.423-22.013 13.734-16.279C17.046-10.544 21.808-5.783 27.543-2.473C33.278 0.837 39.784 2.578 46.405 2.576L62.737-25.712L62.727-25.723C61.076-22.851 58.698-20.466 55.832-18.807C52.966-17.147 49.713-16.273 46.401-16.272C43.089-16.271 39.835-17.143 36.968-18.8C34.1-20.457 31.72-22.841 30.068-25.712Z"/>
  </g>
  <g id="Ultralight-S" transform="matrix(1 0 0 1 513.965 696)">
   <path class="multicolor-0:white SFSymbolsPreviewFFFFFF" d="M45.535-16C56.304-16 65.035-24.731 65.035-35.501C65.035-46.269 56.304-55 45.535-55C34.765-55 26.035-46.269 26.035-35.501C26.035-24.731 34.765-16 45.535-16Z"/>
   <path class="monochrome-0 multicolor-1:custom hierarchical-0:primary SFSymbolsPreview4183F0" d="M45.901-20.691C54.038-20.691 60.635-27.288 60.635-35.426C60.635-43.563 54.038-50.16 45.901-50.16C37.763-50.16 31.167-43.563 31.167-35.426C31.167-27.288 37.763-20.691 45.901-20.691Z"/>
   <path class="monochrome-1 multicolor-2:custom hierarchical-1:primary SFSymbolsPreviewEA4335" d="M45.901-54.036L78.132-54.036C74.866-59.695 70.168-64.395 64.509-67.662C58.851-70.929 52.432-72.649 45.898-72.648C39.364-72.648 32.946-70.927 27.288-67.659C21.63-64.391 16.932-59.691 13.667-54.032L29.783-26.119L29.797-26.122C28.158-28.95 27.292-32.159 27.289-35.427C27.285-38.695 28.143-41.906 29.776-44.737C31.409-47.567 33.76-49.918 36.59-51.55C39.421-53.183 42.633-54.041 45.901-54.036Z"/>
   <path class="monochrome-2 multicolor-3:custom hierarchical-2:primary SFSymbolsPreviewFBBC04" d="M62.018-26.118L45.902 1.796C52.436 1.797 58.855 0.077 64.514-3.189C70.172-6.456 74.871-11.155 78.138-16.814C81.404-22.473 83.123-28.892 83.122-35.425C83.121-41.959 81.399-48.378 78.131-54.035L45.899-54.035L45.896-54.021C49.164-54.027 52.375-53.172 55.208-51.541C58.04-49.91 60.392-47.562 62.027-44.732C63.662-41.902 64.522-38.692 64.52-35.424C64.519-32.156 63.656-28.946 62.018-26.118Z"/>
   <path class="monochrome-3 multicolor-4:custom hierarchical-3:primary SFSymbolsPreview34A853" d="M29.784-26.114L13.668-54.027C10.4-48.369 8.68-41.951 8.68-35.417C8.679-28.883 10.399-22.464 13.667-16.806C16.934-11.148 21.634-6.449 27.293-3.183C32.952 0.082 39.371 1.801 45.905 1.799L62.021-26.114L62.01-26.125C60.382-23.291 58.035-20.937 55.207-19.3C52.378-17.663 49.168-16.8 45.9-16.799C42.632-16.798 39.422-17.659 36.592-19.294C33.763-20.929 31.415-23.282 29.784-26.114Z"/>
  </g>
 </g>
</svg>
