<svg width="120" height="116" viewBox="0 0 120 116" fill="none" xmlns="http://www.w3.org/2000/svg"><g filter="url(#a)"><g clip-path="url(#b)"><rect x="4" width="240" height="122" rx="8" fill="#fff"/><path fill-rule="evenodd" clip-rule="evenodd" d="M89.164 49.53c-3.181 0-5.854-2.588-5.854-5.765 0-3.176 2.673-5.765 5.854-5.765 1.761 0 3.014.687 3.957 1.592L92.01 40.7c-.676-.632-1.594-1.127-2.847-1.127-2.325 0-4.142 1.87-4.142 4.192s1.817 4.193 4.142 4.193c1.507 0 2.363-.608 2.915-1.152.453-.452.744-1.096.856-1.982h-3.77v-1.579h5.308c.055.279.086.62.086.985 0 1.183-.322 2.644-1.364 3.685-1.017 1.052-2.307 1.616-4.03 1.616" fill="#4285F4"/><path fill-rule="evenodd" clip-rule="evenodd" d="M101.246 45.884c0-1.347-.957-2.265-2.064-2.265-1.106 0-2.063.924-2.063 2.265 0 1.33.957 2.265 2.063 2.265 1.107 0 2.064-.93 2.064-2.265m1.61 0c0 2.153-1.647 3.737-3.673 3.737-2.027 0-3.674-1.584-3.674-3.737 0-2.165 1.647-3.737 3.674-3.737 2.026 0 3.673 1.572 3.673 3.737" fill="#E94235"/><path fill-rule="evenodd" clip-rule="evenodd" d="M109.43 45.884c0-1.347-.957-2.265-2.063-2.265-1.107 0-2.064.924-2.064 2.265 0 1.33.957 2.265 2.064 2.265 1.106.007 2.063-.93 2.063-2.265m1.603 0c0 2.153-1.647 3.737-3.673 3.737-2.02 0-3.673-1.584-3.673-3.737 0-2.165 1.647-3.737 3.673-3.737s3.673 1.572 3.673 3.737" fill="#FABB05"/><path fill-rule="evenodd" clip-rule="evenodd" d="M117.507 45.895c0-1.312-.867-2.276-1.969-2.276-1.119 0-2.055.958-2.055 2.276 0 1.299.936 2.244 2.055 2.244 1.102 0 1.969-.945 1.969-2.244Zm1.428-3.519v6.689c0 2.754-1.606 3.879-3.507 3.879-1.791 0-2.861-1.212-3.267-2.2l1.409-.591c.252.61.868 1.324 1.858 1.324 1.219 0 1.969-.765 1.969-2.188v-.535h-.056c-.362.455-1.064.846-1.944.846-1.846 0-3.532-1.623-3.532-3.712 0-2.1 1.692-3.741 3.532-3.741.88 0 1.582.397 1.944.832h.056v-.602h1.538Z" fill="#4285F4"/><rect x="61" y="57.501" width="91" height="7.15" rx="3.575" fill="#E8EAED"/><path fill="#DADCE0" d="M4 0h240v23H4z"/><path fill="#fff" d="M4 12.67h239.97v10.905H4z"/><mask id="c" style="mask-type:alpha" maskUnits="userSpaceOnUse" x="8" y="15" width="5" height="6"><path fill-rule="evenodd" clip-rule="evenodd" d="M10.778 19.598 9.45 18.27h2.801a.295.295 0 0 0 0-.59H9.45l1.328-1.328-.026-.025a.295.295 0 0 0-.389-.39l-.025-.025L8.42 17.83l-.02.026a.293.293 0 0 0 0 .24l.02.026 1.918 1.917.025-.025a.295.295 0 0 0 .39-.39l.025-.025Z" fill="#fff"/></mask><g mask="url(#c)"><path fill="#BDC1C6" d="M8.125 15.617h4.715v4.715H8.125z"/></g><mask id="d" style="mask-type:alpha" maskUnits="userSpaceOnUse" x="17" y="15" width="5" height="6"><path fill-rule="evenodd" clip-rule="evenodd" d="m19.62 19.598 1.329-1.328h-2.802a.295.295 0 0 1 0-.59h2.802l-1.328-1.328.025-.025a.295.295 0 0 1 .39-.39l.025-.025 1.918 1.917-.026.026a.294.294 0 0 1 0 .24l.026.026-1.918 1.917-.026-.025a.294.294 0 0 1-.389-.39l-.025-.025Z" fill="#fff"/></mask><g mask="url(#d)"><path fill="#BDC1C6" d="M17.558 15.617h4.715v4.715h-4.715z"/></g><path fill-rule="evenodd" clip-rule="evenodd" d="M31.408 15.912v1.768h-1.769l.771-.776c-.28-.276-.64-.402-1.065-.402-.859 0-1.474.619-1.474 1.473 0 .855.615 1.474 1.474 1.474.677 0 1.202-.35 1.4-.934l.004-.012c.048-.103.207-.18.292-.18.115 0 .305.067.305.243a.617.617 0 0 1-.038.166c-.295.755-1.085 1.306-1.954 1.306a2.068 2.068 0 0 1-2.072-2.063c0-1.14.927-2.063 2.072-2.063.568 0 1.083.228 1.457.597l.597-.597Z" fill="#000"/><mask id="e" style="mask-type:alpha" maskUnits="userSpaceOnUse" x="27" y="15" width="5" height="6"><path fill-rule="evenodd" clip-rule="evenodd" d="M31.408 15.912v1.768h-1.769l.771-.776c-.28-.276-.64-.402-1.065-.402-.859 0-1.474.619-1.474 1.473 0 .855.615 1.474 1.474 1.474.677 0 1.202-.35 1.4-.934l.004-.012c.048-.103.207-.18.292-.18.115 0 .305.067.305.243a.617.617 0 0 1-.038.166c-.295.755-1.085 1.306-1.954 1.306a2.068 2.068 0 0 1-2.072-2.063c0-1.14.927-2.063 2.072-2.063.568 0 1.083.228 1.457.597l.597-.597Z" fill="#fff"/></mask><g mask="url(#e)"><path fill="#5F6368" d="M26.987 15.617h4.715v4.715h-4.715z"/></g><path fill-rule="evenodd" clip-rule="evenodd" d="M39 15a3 3 0 1 0 0 6h179a3 3 0 1 0 0-6H39Z" fill="#F1F3F4"/><path fill="#202124" fill-opacity=".28" d="M85.634 4.715h.295v5.894h-.295z"/><path d="M15.2 4.99a2.358 2.358 0 0 1 2.357-2.358h65.98a2.358 2.358 0 0 1 2.357 2.358v7.662H15.2V4.99Z" fill="#fff"/><path fill-rule="evenodd" clip-rule="evenodd" d="M15.2 10.295v2.358h-2.653v-.019a2.358 2.358 0 0 0 2.652-2.34Zm70.694 0v2.358h2.653v-.019a2.358 2.358 0 0 1-2.652-2.34Z" fill="#DADCE0"/><path fill-rule="evenodd" clip-rule="evenodd" d="M79.953 6.483a.21.21 0 0 1 .172.09l.796.796.793-.79a.21.21 0 1 1 .32.271l.001.003-.818.81.79.791a.21.21 0 1 1-.29.297l-.796-.794-.791.784a.21.21 0 1 1-.316-.27l.813-.809-.804-.803a.21.21 0 0 1 .13-.376Z" fill="#5F6368"/><g clip-path="url(#f)"><path d="M21.129 8.715V6.783h.028l1.352 1.932h.302V6.223h-.307v1.94h-.028l-1.352-1.94h-.302v2.492h.307Zm3.512-.482c-.077.164-.24.252-.48.252-.316 0-.521-.233-.537-.6V7.87h1.338v-.114c0-.578-.305-.935-.808-.935-.51 0-.839.38-.839.965 0 .589.323.962.84.962.407 0 .697-.197.783-.515h-.297Zm-.49-1.15c.295 0 .492.218.499.547h-1.026c.023-.33.23-.547.527-.547Zm3.62-.23h-.3l-.366 1.489h-.027l-.416-1.489h-.285l-.416 1.489h-.028l-.366-1.489h-.3l.521 1.862h.3l.415-1.44h.027l.417 1.44h.302l.521-1.862Zm1.519-.481v.481h-.3v.249h.3v1.13c0 .355.154.497.537.497a.995.995 0 0 0 .174-.018v-.25a1.255 1.255 0 0 1-.138.007c-.193 0-.276-.093-.276-.313V7.102H30v-.249h-.414v-.481h-.297Zm1.678 2.376a.643.643 0 0 0 .574-.308h.027v.275h.284V7.44c0-.386-.254-.62-.709-.62-.397 0-.69.197-.73.496h.3c.042-.147.197-.231.42-.231.278 0 .421.126.421.355v.17l-.537.032c-.433.026-.678.218-.678.551 0 .34.268.555.628.555Zm.056-.261c-.216 0-.377-.11-.377-.3 0-.187.125-.285.408-.304l.5-.033v.17c0 .267-.226.467-.531.467Zm2.303.26c.472 0 .78-.381.78-.963 0-.585-.307-.963-.78-.963-.255 0-.482.126-.583.326h-.028V6.114h-.297v2.6h.283v-.296h.028c.117.207.338.33.597.33Zm-.069-1.659c.34 0 .542.26.542.696 0 .435-.202.696-.542.696-.338 0-.549-.266-.549-.696 0-.43.21-.696.55-.696Z" fill="#202124"/></g><path fill-rule="evenodd" clip-rule="evenodd" d="M92.358 5.59c.162 0 .294.132.294.295v1.179h1.18a.295.295 0 0 1 0 .59h-1.18v1.178a.295.295 0 1 1-.589 0V7.653h-1.179a.295.295 0 1 1 0-.589h1.179V5.885c0-.163.132-.295.295-.295Z" fill="#000"/><mask id="g" style="mask-type:alpha" maskUnits="userSpaceOnUse" x="90" y="5" width="5" height="5"><path fill-rule="evenodd" clip-rule="evenodd" d="M92.358 5.59c.162 0 .294.132.294.295v1.179h1.18a.295.295 0 0 1 0 .59h-1.18v1.178a.295.295 0 1 1-.589 0V7.653h-1.179a.295.295 0 1 1 0-.589h1.179V5.885c0-.163.132-.295.295-.295Z" fill="#fff"/></mask><g mask="url(#g)"><path fill="#5F6368" d="M94.716 9.716H90V5h4.715z"/></g><path stroke="#000" stroke-opacity=".14" stroke-width=".3" d="M4 25.85h256"/></g></g><defs><clipPath id="b"><rect x="4" width="240" height="122" rx="8" fill="#fff"/></clipPath><clipPath id="f"><path fill="#fff" transform="translate(20.504 4.715)" d="M0 0h51.869v5.894H0z"/></clipPath><filter id="a" x="0" y="0" width="248" height="130" filterUnits="userSpaceOnUse" color-interpolation-filters="sRGB"><feFlood flood-opacity="0" result="BackgroundImageFix"/><feColorMatrix in="SourceAlpha" values="0 0 0 0 0 0 0 0 0 0 0 0 0 0 0 0 0 0 127 0" result="hardAlpha"/><feOffset dy="4"/><feGaussianBlur stdDeviation="2"/><feComposite in2="hardAlpha" operator="out"/><feColorMatrix values="0 0 0 0 0 0 0 0 0 0 0 0 0 0 0 0 0 0 0.25 0"/><feBlend in2="BackgroundImageFix" result="effect1_dropShadow_2338_309339"/><feBlend in="SourceGraphic" in2="effect1_dropShadow_2338_309339" result="shape"/></filter></defs></svg>