<svg xmlns="http://www.w3.org/2000/svg" xmlns:xlink="http://www.w3.org/1999/xlink" width="20px" height="20px" viewBox="0 0 24 24"><path fill="var(--color-sys-on-surface-subtle)" d="M 2.398438 20.398438 L 2.398438 3.601562 L 12 3.601562 L 12 7.199219 L 21.601562 7.199219 L 21.601562 20.398438 Z M 4.199219 18.601562 L 6 18.601562 L 6 16.800781 L 4.199219 16.800781 Z M 4.199219 14.800781 L 6 14.800781 L 6 13 L 4.199219 13 Z M 4.199219 11 L 6 11 L 6 9.199219 L 4.199219 9.199219 Z M 4.199219 7.199219 L 6 7.199219 L 6 5.398438 L 4.199219 5.398438 Z M 8.398438 18.601562 L 10.199219 18.601562 L 10.199219 16.800781 L 8.398438 16.800781 Z M 8.398438 14.800781 L 10.199219 14.800781 L 10.199219 13 L 8.398438 13 Z M 8.398438 11 L 10.199219 11 L 10.199219 9.199219 L 8.398438 9.199219 Z M 8.398438 7.199219 L 10.199219 7.199219 L 10.199219 5.398438 L 8.398438 5.398438 Z M 12 18.601562 L 19.800781 18.601562 L 19.800781 9 L 12 9 L 12 11 L 13.800781 11 L 13.800781 12.800781 L 12 12.800781 L 12 14.800781 L 13.800781 14.800781 L 13.800781 16.601562 L 12 16.601562 Z M 16.199219 12.800781 L 16.199219 11 L 18 11 L 18 12.800781 Z M 16.199219 16.601562 L 16.199219 14.800781 L 18 14.800781 L 18 16.601562 Z M 16.199219 16.601562 "/></svg>
