<svg id="miniNewTabPage" width="240" height="126" viewBox="0 0 240 126" xmlns="http://www.w3.org/2000/svg"><g clip-path="url(#a)"><path fill="var(--color-side-panel-customize-chrome-mini-ntp-background)" d="M0 0h240v126H0z"/><path d="M0 0h240v40H0V0Z" fill="var(--color-side-panel-customize-chrome-mini-ntp-tab-strip-background)"/><rect x="6" y="6" width="28" height="28" rx="10" fill="var(--color-side-panel-customize-chrome-mini-ntp-caron-container)"/><g clip-path="url(#b)"><path d="m24 19-4 4-4-4 1.06-1.06L20 20.88l2.94-2.94L24 19Z" fill="var(--color-side-panel-customize-chrome-mini-ntp-caron)"/></g><path fill="var(--color-side-panel-customize-chrome-mini-ntp-background)" d="M0 86h240v40H0zm0-38a8 8 0 0 1 8-8h224a8 8 0 0 1 8 8v38H0V48Z"/><g clip-path="url(#c)"><path d="M22 69.083 15.917 63 22 56.917l1.23 1.229-3.98 3.979h8.833v1.75H19.25l3.98 3.98L22 69.082Z" fill="var(--color-side-panel-customize-chrome-mini-ntp-arrows-and-refresh-button)"/></g><g clip-path="url(#d)"><path d="m58 69.083-1.23-1.229 3.98-3.979h-8.833v-1.75h8.833l-3.98-3.98L58 56.918 64.083 63 58 69.083Z" fill="var(--color-side-panel-customize-chrome-mini-ntp-arrows-and-refresh-button)"/></g><g clip-path="url(#e)"><path d="M93.98 69.167c-1.71 0-3.168-.598-4.376-1.792-1.194-1.208-1.791-2.667-1.791-4.375 0-1.708.597-3.16 1.791-4.354 1.209-1.209 2.667-1.813 4.375-1.813.93 0 1.792.195 2.584.584a6.203 6.203 0 0 1 2.041 1.541v-2.125h1.584v5.25h-5.25V60.5h2.708a4.378 4.378 0 0 0-3.667-1.938c-1.236 0-2.285.431-3.146 1.292-.86.861-1.291 1.91-1.291 3.146s.43 2.285 1.291 3.146c.861.86 1.91 1.291 3.146 1.291 1.153 0 2.14-.374 2.959-1.124a4.404 4.404 0 0 0 1.416-2.813h1.771c-.125 1.597-.778 2.944-1.958 4.042-1.167 1.083-2.563 1.625-4.188 1.625Z" fill="var(--color-side-panel-customize-chrome-mini-ntp-arrows-and-refresh-button)"/></g><path d="M120 63c0-7.18 5.82-13 13-13h107v26H133c-7.18 0-13-5.82-13-13Z" fill="var(--color-side-panel-customize-chrome-mini-ntp-omnibox)"/><path d="M40 16c0-5.523 4.477-10 10-10h190v34H40V16Z" fill="var(--color-side-panel-customize-chrome-mini-ntp-background)"/><path fill-rule="evenodd" clip-rule="evenodd" d="M40 28v12H28c6.627 0 12-5.373 12-12Z" fill="var(--color-side-panel-customize-chrome-mini-ntp-background)"/><g clip-path="url(#f)"><g clip-path="url(#g)"><path d="M53.25 20c0 .76.27 1.4.81 1.94s1.19.81 1.94.81 1.4-.27 1.94-.81.81-1.19.81-1.94-.27-1.4-.81-1.94-1.19-.81-1.94-.81-1.4.27-1.94.81-.81 1.19-.81 1.94ZM56 24.25c.15 0 .3 0 .44-.02.14-.01.28-.04.42-.07L55.22 27c-1.76-.2-3.24-.95-4.43-2.26C49.6 23.42 49 21.86 49 20.05c0-.49.05-.96.14-1.42.09-.47.23-.91.42-1.33l2.8 4.85c.36.63.86 1.14 1.5 1.52.64.38 1.35.58 2.14.58Zm0-8.4c-.93 0-1.76.27-2.48.82-.72.54-1.23 1.23-1.51 2.07l-1.65-2.84c.64-.86 1.45-1.55 2.42-2.07.98-.53 2.05-.79 3.22-.79 1.17 0 2.22.26 3.19.77.97.5 1.77 1.18 2.42 2.03h-5.6l-.01.01Zm6.41 1.4c.2.43.34.88.44 1.35.1.47.16.95.16 1.45 0 1.81-.59 3.37-1.79 4.67-1.18 1.31-2.64 2.06-4.37 2.27l2.8-4.85c.18-.3.31-.63.4-.98.1-.36.16-.74.16-1.12 0-.55-.1-1.06-.3-1.52-.19-.48-.45-.9-.79-1.28h3.29v.01Z" fill="var(--color-side-panel-customize-chrome-mini-ntp-chrome-logo)"/></g></g><path fill="var(--color-side-panel-customize-chrome-mini-ntp-border)" d="M0 86h240v-1H0z"/></g><defs><clipPath id="a"><path fill="var(--color-side-panel-customize-chrome-mini-ntp-background)" d="M0 0h240v126H0z"/></clipPath><clipPath id="b"><path fill="var(--color-side-panel-customize-chrome-mini-ntp-background)" transform="rotate(-90 20 8)" d="M0 0h16v16H0z"/></clipPath><clipPath id="c"><path fill="var(--color-side-panel-customize-chrome-mini-ntp-background)" transform="translate(12 53)" d="M0 0h20v20H0z"/></clipPath><clipPath id="d"><path fill="var(--color-side-panel-customize-chrome-mini-ntp-background)" transform="translate(48 53)" d="M0 0h20v20H0z"/></clipPath><clipPath id="e"><path fill="var(--color-side-panel-customize-chrome-mini-ntp-background)" transform="translate(84 53)" d="M0 0h20v20H0z"/></clipPath><clipPath id="f"><path fill="var(--color-side-panel-customize-chrome-mini-ntp-background)" transform="translate(48 12)" d="M0 0h16v16H0z"/></clipPath><clipPath id="g"><path fill="var(--color-side-panel-customize-chrome-mini-ntp-background)" transform="translate(48 12)" d="M0 0h16v16H0z"/></clipPath></defs></svg>