<svg width="128" height="128" viewBox="0 0 128 128" fill="none" xmlns="http://www.w3.org/2000/svg"><g clip-path="url(#a)"><path fill="#D3E3FD" d="M0 0h128v128H0z"/><path fill="#fff" d="M0 36h128v92H0z"/><path d="M0 20.48a3.413 3.413 0 0 1 3.413-3.413H128v19.2H0V20.48Z" fill="#fff"/><g clip-path="url(#b)"><path d="m9.388 29.729-2.596-2.596 2.596-2.595.524.524-1.697 1.698h3.769v.747h-3.77l1.698 1.697-.524.525Z" fill="#474747"/></g><path d="m24.747 29.729-.525-.525 1.698-1.697h-3.769v-.747h3.77l-1.699-1.698.525-.524 2.595 2.595-2.595 2.596Z" fill="#474747"/><g clip-path="url(#c)"><path d="M40.097 29.764A2.559 2.559 0 0 1 38.23 29a2.559 2.559 0 0 1-.764-1.867c0-.729.255-1.348.764-1.857a2.544 2.544 0 0 1 1.867-.774c.397 0 .764.083 1.102.249.338.16.628.38.871.658v-.907h.676v2.24h-2.24v-.675h1.155a1.868 1.868 0 0 0-1.564-.827c-.528 0-.975.184-1.342.551a1.827 1.827 0 0 0-.551 1.342c0 .528.183.975.55 1.343.368.367.816.55 1.343.55.492 0 .913-.16 1.262-.48a1.88 1.88 0 0 0 .605-1.2h.755a2.55 2.55 0 0 1-.835 1.725 2.535 2.535 0 0 1-1.787.693Z" fill="#474747"/></g><path d="M51.2 26.55a7.33 7.33 0 0 1 7.33-7.33H128v14.66H58.53a7.33 7.33 0 0 1-7.33-7.33Z" fill="#FDFCFB"/><path d="M51.2 26.55a7.33 7.33 0 0 1 7.33-7.33H128v14.66H58.53a7.33 7.33 0 0 1-7.33-7.33Z" fill="#6991D6" fill-opacity=".12"/><path d="M0 3.413A3.413 3.413 0 0 1 3.413 0H128v17.067H0V3.413Z" fill="#D3E3FD"/><rect x="2.56" y="2.56" width="11.947" height="11.947" rx="4.267" fill="#ECF3FE"/><g clip-path="url(#d)"><path d="M10.24 8.107 8.533 9.813 6.827 8.107l.452-.452 1.254 1.254 1.255-1.254.452.452Z" fill="#041E49"/></g><path d="M17.067 6.827a4.267 4.267 0 0 1 4.266-4.267h85.334a4.266 4.266 0 0 1 4.266 4.267v10.24H17.067V6.827Z" fill="#fff"/><path fill-rule="evenodd" clip-rule="evenodd" d="M17.067 11.947v5.12h-5.12a5.12 5.12 0 0 0 5.12-5.12Zm93.885 0h-.019v5.12h5.12a5.12 5.12 0 0 1-5.101-5.12Z" fill="#fff"/><g clip-path="url(#e)"><g clip-path="url(#f)"><path d="M22.72 8.533c0 .324.115.597.345.828.23.23.508.345.828.345.32 0 .597-.115.828-.345.23-.23.345-.508.345-.828 0-.32-.115-.597-.345-.828a1.131 1.131 0 0 0-.828-.345c-.32 0-.597.115-.828.345-.23.23-.345.508-.345.828Zm1.173 1.813c.064 0 .128 0 .188-.008.06-.004.12-.017.179-.03l-.7 1.212a2.919 2.919 0 0 1-1.89-.964 2.889 2.889 0 0 1-.764-2.002c0-.209.022-.41.06-.605.038-.201.098-.389.18-.568l1.194 2.07c.154.268.367.486.64.648.273.162.576.247.913.247Zm0-3.584a1.7 1.7 0 0 0-1.058.35c-.307.23-.525.525-.645.883l-.704-1.211A3.088 3.088 0 0 1 22.52 5.9a2.836 2.836 0 0 1 1.374-.338c.5 0 .947.111 1.361.329.414.213.755.503 1.032.866h-2.389l-.004.004Zm2.735.598a2.992 2.992 0 0 1 .256 1.194c0 .773-.252 1.438-.764 1.993a2.903 2.903 0 0 1-1.864.968l1.194-2.069c.077-.128.133-.269.17-.418.044-.154.07-.316.07-.478 0-.235-.044-.452-.129-.648a1.8 1.8 0 0 0-.337-.547h1.404v.005Z" fill="#1F1F1F"/></g></g><path fill="#E1E3E1" d="M0 36.565h128v-.425H0z"/></g><defs><clipPath id="a"><path d="M0 3a3 3 0 0 1 3-3h125v128H0V3Z" fill="#fff"/></clipPath><clipPath id="b"><path fill="#fff" transform="translate(5.12 22.4)" d="M0 0h8.533v8.533H0z"/></clipPath><clipPath id="c"><path fill="#fff" transform="translate(35.84 22.4)" d="M0 0h8.533v8.533H0z"/></clipPath><clipPath id="d"><path fill="#fff" transform="rotate(-90 8.533 3.414)" d="M0 0h6.827v6.827H0z"/></clipPath><clipPath id="e"><path fill="#fff" transform="translate(20.48 5.12)" d="M0 0h6.827v6.827H0z"/></clipPath><clipPath id="f"><path fill="#fff" transform="translate(20.48 5.12)" d="M0 0h6.827v6.827H0z"/></clipPath></defs></svg>