<svg width="12" height="12" viewBox="0 0 12 12" fill="none" xmlns="http://www.w3.org/2000/svg"><path fill-rule="evenodd" clip-rule="evenodd" d="M5.333 1.333h-4v4H0v-4C0 .6.6 0 1.333 0h4v1.333Zm.094 6.86L4 6.473 2 9.047h8L7.427 5.613l-2 2.58Zm5.24-1.526v4h-4V12h4C11.4 12 12 11.4 12 10.667v-4h-1.333Zm-9.334 0v4h4V12h-4C.6 12 0 11.4 0 10.667v-4h1.333Zm9.334-5.334v4H12v-4C12 .6 11.4 0 10.667 0h-4v1.333h4Zm-1.334 2c0 .367-.3.667-.666.667A.669.669 0 0 1 8 3.333c0-.366.3-.666.667-.666.366 0 .666.3.666.666Z" fill="#fff"/></svg>