<svg id="miniToolbar" width="280" height="147" viewBox="0 0 280 147" fill="none" xmlns="http://www.w3.org/2000/svg"><g clip-path="url(#clip0_2799_42031)"><rect width="280" height="147" rx="8" fill="var(--color-sys-header)" /><path d="M-915 47C-915 42.5817 -911.418 39 -907 39H277C281.418 39 285 42.5817 285 47V81H-915V47Z" fill="var(--color-sys-base)" /><rect x="-795" y="46" width="880" height="30" rx="15" fill="var(--color-sys-omnibox-container)" /><g clip-path="url(#clip1_2799_42031)"><path d="M58.4375 63.7708L61 62.2292L63.5833 63.7708L62.8958 60.875L65.1458 58.9583L62.1875 58.7083L61 55.9583L59.8125 58.7083L56.8542 58.9583L59.125 60.875L58.4375 63.7708ZM55.8125 67.3542L57.1875 61.5208L52.6042 57.6042L58.625 57.0833L61 51.5833L63.375 57.1042L69.3958 57.6042L64.8125 61.5208L66.1875 67.3542L61 64.25L55.8125 67.3542Z" fill="var(--color-sys-on-surface-secondary)" /></g><g clip-path="url(#clip2_2799_42031)"><path d="M105.5 67.1667C105.042 67.1667 104.646 67.0069 104.313 66.6875C103.993 66.3542 103.833 65.9583 103.833 65.5V61.9167C104.347 61.8889 104.785 61.6944 105.146 61.3333C105.507 60.9583 105.688 60.5139 105.688 60C105.688 59.4861 105.507 59.0486 105.146 58.6875C104.785 58.3125 104.347 58.1111 103.833 58.0833V54.5C103.833 54.0417 103.993 53.6528 104.313 53.3333C104.646 53 105.042 52.8333 105.5 52.8333H108.854C108.896 52.2639 109.118 51.7847 109.521 51.3958C109.924 50.9931 110.417 50.7917 111 50.7917C111.569 50.7917 112.056 50.9931 112.458 51.3958C112.875 51.7847 113.104 52.2639 113.146 52.8333H116.5C116.958 52.8333 117.347 53 117.667 53.3333C118 53.6528 118.167 54.0417 118.167 54.5V57.8542C118.736 57.8958 119.215 58.1181 119.604 58.5208C120.007 58.9236 120.208 59.4167 120.208 60C120.208 60.5694 120.007 61.0625 119.604 61.4792C119.215 61.8819 118.736 62.1042 118.167 62.1458V65.5C118.167 65.9583 118 66.3542 117.667 66.6875C117.347 67.0069 116.958 67.1667 116.5 67.1667H105.5ZM105.563 65.4375H116.438V54.5625H105.563V56.8333C106.146 57.1389 106.597 57.5764 106.917 58.1458C107.25 58.7153 107.417 59.3333 107.417 60C107.417 60.6806 107.25 61.3056 106.917 61.875C106.597 62.4444 106.146 62.8819 105.563 63.1875V65.4375Z" fill="var(--color-sys-on-surface-secondary)" /></g><rect x="133" y="52" width="2" height="16" rx="1" fill="var(--color-sys-header)" /><path d="M150.395 61.9895L149.735 61.7029L150.395 61.9895C150.946 60.7204 150.946 59.2796 150.395 58.0105L150.148 57.4423C148.968 54.7255 151.726 51.9682 154.442 53.1481L155.011 53.3949C156.28 53.946 157.72 53.946 158.989 53.3949L159.558 53.1481C162.274 51.9682 165.032 54.7255 163.852 57.4423L163.605 58.0105C163.054 59.2796 163.054 60.7204 163.605 61.9895L163.852 62.5577C165.032 65.2745 162.274 68.0318 159.558 66.8519L158.989 66.6051L158.673 67.3335L158.989 66.6051C157.72 66.054 156.28 66.054 155.011 66.6051L154.442 66.8519C151.726 68.0318 148.968 65.2745 150.148 62.5577L150.395 61.9895Z" stroke="var(--color-sys-tertiary)" stroke-width="1.73" /><path d="M192.713 55.5135L192.724 55.5213L192.735 55.5288L194.441 56.7043C195.301 57.2968 195.564 57.4901 195.732 57.7075C196.003 58.059 196.144 58.4894 196.135 58.9284C196.129 59.199 196.033 59.5052 195.69 60.4854L195.021 62.4043L195.016 62.4171L195.012 62.4299L194.394 64.3962C194.085 65.3769 193.98 65.678 193.823 65.8994C193.569 66.2591 193.198 66.5257 192.769 66.6537C192.503 66.733 192.176 66.7378 191.138 66.7222L189.013 66.6903L189 66.6901L188.987 66.6903L186.862 66.7222C185.824 66.7378 185.497 66.733 185.231 66.6537C184.802 66.5257 184.431 66.2591 184.177 65.8994C184.02 65.678 183.915 65.3769 183.606 64.3962L182.988 62.4299L182.984 62.4171L182.979 62.4043L182.31 60.4854C181.967 59.5052 181.871 59.199 181.865 58.9284C181.856 58.4894 181.997 58.059 182.268 57.7075C182.436 57.4901 182.699 57.2968 183.559 56.7043L185.265 55.5288L185.276 55.5213L185.287 55.5135L186.994 54.2591C187.822 53.6502 188.088 53.467 188.349 53.3781C188.77 53.2341 189.23 53.2341 189.651 53.3781C189.912 53.467 190.178 53.6502 191.006 54.2591L192.713 55.5135Z" stroke="var(--color-sys-tertiary)" stroke-width="1.73" /><rect x="211" y="52" width="2" height="16" rx="1" fill="var(--color-sys-header)" /><g clip-path="url(#clip3_2799_42031)"><path d="M229.958 63.9792C230.708 63.4653 231.507 63.0833 232.354 62.8333C233.201 62.5833 234.083 62.4583 235 62.4583C235.917 62.4583 236.799 62.5903 237.646 62.8542C238.507 63.1042 239.306 63.4861 240.042 64C240.514 63.4167 240.861 62.7917 241.083 62.125C241.319 61.4444 241.438 60.7361 241.438 60C241.438 58.2222 240.806 56.7083 239.542 55.4583C238.292 54.1944 236.778 53.5625 235 53.5625C233.208 53.5625 231.688 54.1944 230.438 55.4583C229.188 56.7083 228.563 58.2222 228.563 60C228.563 60.7361 228.674 61.4444 228.896 62.125C229.132 62.7917 229.486 63.4097 229.958 63.9792ZM235 61.5417C234.153 61.5417 233.431 61.25 232.833 60.6667C232.25 60.0694 231.958 59.3472 231.958 58.5C231.958 57.6667 232.25 56.9583 232.833 56.375C233.431 55.7778 234.153 55.4792 235 55.4792C235.847 55.4792 236.563 55.7778 237.146 56.375C237.743 56.9583 238.042 57.6667 238.042 58.5C238.042 59.3472 237.743 60.0694 237.146 60.6667C236.563 61.25 235.847 61.5417 235 61.5417ZM235 68.1667C233.875 68.1667 232.813 67.9583 231.813 67.5417C230.826 67.1111 229.958 66.5278 229.208 65.7917C228.472 65.0417 227.889 64.1736 227.458 63.1875C227.042 62.1875 226.833 61.125 226.833 60C226.833 58.8611 227.042 57.7986 227.458 56.8125C227.889 55.8264 228.472 54.9653 229.208 54.2292C229.958 53.4792 230.826 52.8958 231.813 52.4792C232.813 52.0486 233.875 51.8333 235 51.8333C236.139 51.8333 237.201 52.0486 238.188 52.4792C239.174 52.8958 240.035 53.4792 240.771 54.2292C241.521 54.9653 242.104 55.8333 242.521 56.8333C242.951 57.8194 243.167 58.875 243.167 60C243.167 61.125 242.951 62.1875 242.521 63.1875C242.104 64.1736 241.521 65.0417 240.771 65.7917C240.035 66.5278 239.167 67.1111 238.167 67.5417C237.181 67.9583 236.125 68.1667 235 68.1667ZM235 66.4375C235.708 66.4375 236.382 66.3264 237.021 66.1042C237.674 65.8819 238.292 65.5556 238.875 65.125C238.264 64.7639 237.639 64.4931 237 64.3125C236.375 64.1181 235.708 64.0208 235 64.0208C234.292 64.0208 233.618 64.1111 232.979 64.2917C232.34 64.4722 231.722 64.75 231.125 65.125C231.708 65.5556 232.319 65.8819 232.958 66.1042C233.611 66.3264 234.292 66.4375 235 66.4375ZM235 59.9792C235.403 59.9792 235.743 59.8403 236.021 59.5625C236.313 59.2708 236.458 58.9167 236.458 58.5C236.458 58.0972 236.313 57.7569 236.021 57.4792C235.743 57.1875 235.403 57.0417 235 57.0417C234.597 57.0417 234.25 57.1875 233.958 57.4792C233.681 57.7569 233.542 58.0972 233.542 58.5C233.542 58.9167 233.681 59.2708 233.958 59.5625C234.25 59.8403 234.597 59.9792 235 59.9792Z" fill="var(--color-sys-on-surface-secondary)" /></g><g clip-path="url(#clip4_2799_42031)"><path d="M263 66.2292C262.569 66.2292 262.194 66.0764 261.875 65.7708C261.569 65.4514 261.417 65.0764 261.417 64.6458C261.417 64.2153 261.569 63.8472 261.875 63.5417C262.194 63.2361 262.569 63.0833 263 63.0833C263.444 63.0833 263.819 63.2361 264.125 63.5417C264.431 63.8472 264.583 64.2222 264.583 64.6667C264.583 65.0972 264.424 65.4653 264.104 65.7708C263.799 66.0764 263.431 66.2292 263 66.2292ZM263 61.5833C262.569 61.5833 262.194 61.4306 261.875 61.125C261.569 60.8056 261.417 60.4306 261.417 60C261.417 59.5556 261.569 59.1806 261.875 58.875C262.194 58.5694 262.569 58.4167 263 58.4167C263.444 58.4167 263.819 58.5764 264.125 58.8958C264.431 59.2014 264.583 59.5694 264.583 60C264.583 60.4306 264.424 60.8056 264.104 61.125C263.799 61.4306 263.431 61.5833 263 61.5833ZM263 56.9167C262.569 56.9167 262.194 56.7639 261.875 56.4583C261.569 56.1528 261.417 55.7778 261.417 55.3333C261.417 54.9028 261.569 54.5347 261.875 54.2292C262.194 53.9236 262.569 53.7708 263 53.7708C263.444 53.7708 263.819 53.9236 264.125 54.2292C264.431 54.5347 264.583 54.9097 264.583 55.3542C264.583 55.7847 264.424 56.1528 264.104 56.4583C263.799 56.7639 263.431 56.9167 263 56.9167Z" fill="var(--color-sys-on-surface-secondary)" /></g><path d="M-915 8C-915 3.58172 -911.418 0 -907 0H277C281.418 0 285 3.58172 285 8V36H-915V8Z" fill="var(--color-sys-header)" /><path fill-rule="evenodd" clip-rule="evenodd" d="M231 14H223V22H231V14ZM229 16H225V20H229V16Z" fill="var(--color-sys-on-header-primary)" /><path d="M221 18H219V26H227V24H221V18Z" fill="var(--color-sys-on-header-primary)" /><path fill-rule="evenodd" clip-rule="evenodd" d="M271 15.41L269.59 14L265 18.59L260.41 14L259 15.41L263.59 20L259 24.59L260.41 26L265 21.41L269.59 26L271 24.59L266.41 20L271 15.41Z" fill="var(--color-sys-on-header-primary)" /><path fill-rule="evenodd" clip-rule="evenodd" d="M179 26H191V24H179V26Z" fill="var(--color-sys-on-header-primary)" /><rect width="1200" height="67" transform="translate(-915 81)" fill="var(--color-sys-base)" /><rect width="1195" height="1" transform="matrix(1 0 0 -1 -915 81)" fill="var(--color-sys-surface-variant)" /></g><defs><clipPath id="clip0_2799_42031"><rect width="280" height="147" rx="8" fill="var(--color-sys-base)" /></clipPath><clipPath id="clip1_2799_42031"><rect width="20" height="20" fill="var(--color-sys-base)" transform="translate(51 50)" /></clipPath><clipPath id="clip2_2799_42031"><rect width="20" height="20" fill="var(--color-sys-base)" transform="translate(101 50)" /></clipPath><clipPath id="clip3_2799_42031"><rect width="20" height="20" fill="var(--color-sys-base)" transform="translate(225 50)" /></clipPath><clipPath id="clip4_2799_42031"><rect width="20" height="20" fill="var(--color-sys-base)" transform="translate(253 50)" /></clipPath></defs></svg>