<svg width="256" height="130" viewBox="0 0 256 130" fill="none" xmlns="http://www.w3.org/2000/svg"><rect width="256" height="130" rx="8" fill="#fff"/><path fill-rule="evenodd" clip-rule="evenodd" d="M110.164 50.53c-3.181 0-5.854-2.588-5.854-5.765 0-3.176 2.673-5.765 5.854-5.765 1.761 0 3.014.687 3.956 1.592l-1.11 1.108c-.676-.632-1.593-1.127-2.846-1.127-2.326 0-4.143 1.87-4.143 4.192s1.817 4.193 4.143 4.193c1.507 0 2.363-.608 2.915-1.152.452-.452.744-1.096.855-1.982h-3.77v-1.579h5.308c.056.279.087.62.087.985 0 1.183-.322 2.644-1.364 3.685-1.017 1.052-2.307 1.616-4.031 1.616" fill="#4285F4"/><path fill-rule="evenodd" clip-rule="evenodd" d="M122.246 46.884c0-1.347-.958-2.265-2.064-2.265s-2.064.924-2.064 2.265c0 1.33.958 2.265 2.064 2.265s2.064-.93 2.064-2.265m1.61 0c0 2.153-1.647 3.737-3.674 3.737-2.026 0-3.673-1.584-3.673-3.737 0-2.165 1.647-3.737 3.673-3.737 2.027 0 3.674 1.572 3.674 3.737" fill="#E94235"/><path fill-rule="evenodd" clip-rule="evenodd" d="M130.43 46.884c0-1.347-.957-2.265-2.063-2.265-1.107 0-2.064.924-2.064 2.265 0 1.33.957 2.265 2.064 2.265 1.106.007 2.063-.93 2.063-2.265m1.603 0c0 2.153-1.647 3.737-3.673 3.737-2.02 0-3.673-1.584-3.673-3.737 0-2.165 1.647-3.737 3.673-3.737s3.673 1.572 3.673 3.737" fill="#FABB05"/><path fill-rule="evenodd" clip-rule="evenodd" d="M138.507 46.895c0-1.312-.868-2.276-1.969-2.276-1.12 0-2.055.958-2.055 2.276 0 1.299.935 2.244 2.055 2.244 1.101 0 1.969-.945 1.969-2.244Zm1.427-3.519v6.689c0 2.754-1.606 3.879-3.507 3.879-1.79 0-2.86-1.212-3.266-2.2l1.409-.591c.252.61.867 1.324 1.857 1.324 1.219 0 1.969-.765 1.969-2.188v-.535h-.055c-.363.455-1.065.846-1.945.846-1.845 0-3.531-1.623-3.531-3.712 0-2.1 1.692-3.741 3.531-3.741.88 0 1.582.397 1.945.832h.055v-.602h1.538Z" fill="#4285F4"/><path fill-rule="evenodd" clip-rule="evenodd" d="M141.321 50.345h1.663V39.409h-1.663v10.936Z" fill="#34A853"/><path fill-rule="evenodd" clip-rule="evenodd" d="m145.382 46.766 3.319-1.386c-.185-.468-.73-.792-1.381-.792-.83 0-1.981.736-1.938 2.178m3.895 1.347 1.263.849c-.409.611-1.393 1.66-3.096 1.66-2.112 0-3.628-1.642-3.628-3.738 0-2.221 1.535-3.737 3.448-3.737 1.926 0 2.867 1.54 3.177 2.377l.167.424-4.959 2.072c.377.748.971 1.135 1.801 1.135.831 0 1.406-.418 1.827-1.042" fill="#E94235"/><path fill-rule="evenodd" clip-rule="evenodd" d="M82 62.076c0-1.974 1.6-3.575 3.575-3.575h83.85a3.575 3.575 0 0 1 0 7.15h-83.85A3.575 3.575 0 0 1 82 62.076Zm9.102 20.476a3.9 3.9 0 1 0 0-7.8 3.9 3.9 0 0 0 0 7.8Zm40.297-3.9a3.9 3.9 0 1 1-7.8 0 3.9 3.9 0 0 1 7.8 0Zm-22.1 3.9a3.9 3.9 0 1 0 0-7.8 3.9 3.9 0 0 0 0 7.8Zm40.298-3.9a3.9 3.9 0 1 1-7.8 0 3.9 3.9 0 0 1 7.8 0Zm14.3 3.9a3.9 3.9 0 1 0 0-7.8 3.9 3.9 0 0 0 0 7.8Zm-68.895 16.9a3.9 3.9 0 1 1-7.8 0 3.9 3.9 0 0 1 7.8 0Zm32.497 3.9a3.9 3.9 0 1 0 0-7.8 3.9 3.9 0 0 0 0 7.8Zm-14.3-3.9a3.9 3.9 0 1 1-7.8 0 3.9 3.9 0 0 1 7.8 0Zm32.498 3.9a3.9 3.9 0 1 0 0-7.8 3.9 3.9 0 0 0 0 7.8Zm22.1-3.9a3.9 3.9 0 1 1-7.8 0 3.9 3.9 0 0 1 7.8 0Z" fill="#E8EAED"/><path stroke="#000" stroke-opacity=".14" stroke-width=".3" d="M0 25.85h256"/><rect width="256" height="23" rx="8" fill="#DADCE0"/><path fill="#fff" d="M0 12.67h255.97v10.905H0z"/><mask id="a" style="mask-type:alpha" maskUnits="userSpaceOnUse" x="4" y="15" width="5" height="6"><path fill-rule="evenodd" clip-rule="evenodd" d="M6.777 19.598 5.45 18.27h2.802a.295.295 0 0 0 0-.59H5.449l1.329-1.328-.026-.025a.294.294 0 0 0-.27-.415.293.293 0 0 0-.12.026l-.025-.026L4.42 17.83l-.021.026a.294.294 0 0 0 0 .24l.02.026 1.918 1.917.026-.025a.295.295 0 0 0 .389-.39l.026-.025Z" fill="#fff"/></mask><g mask="url(#a)"><path fill="#BDC1C6" d="M4.125 15.617H8.84v4.715H4.125z"/></g><mask id="b" style="mask-type:alpha" maskUnits="userSpaceOnUse" x="13" y="15" width="5" height="6"><path fill-rule="evenodd" clip-rule="evenodd" d="m15.62 19.598 1.329-1.328h-2.802a.295.295 0 0 1 0-.59h2.802l-1.328-1.328.025-.025a.295.295 0 0 1 .39-.39l.025-.025 1.918 1.917-.026.026a.294.294 0 0 1 0 .24l.026.026-1.918 1.917-.026-.025a.294.294 0 0 1-.389-.39l-.025-.025Z" fill="#fff"/></mask><g mask="url(#b)"><path fill="#BDC1C6" d="M13.558 15.617h4.715v4.715h-4.715z"/></g><path fill-rule="evenodd" clip-rule="evenodd" d="M27.407 15.912v1.768H25.64l.77-.776c-.28-.276-.639-.402-1.065-.402-.858 0-1.473.619-1.473 1.473 0 .855.615 1.474 1.473 1.474.677 0 1.203-.35 1.4-.934l.005-.012c.048-.103.206-.18.292-.18.114 0 .305.067.305.243a.617.617 0 0 1-.038.166c-.296.755-1.085 1.306-1.955 1.306a2.068 2.068 0 0 1-2.072-2.063c0-1.14.928-2.063 2.072-2.063.569 0 1.083.228 1.457.597l.597-.597Z" fill="#000"/><mask id="c" style="mask-type:alpha" maskUnits="userSpaceOnUse" x="23" y="15" width="5" height="6"><path fill-rule="evenodd" clip-rule="evenodd" d="M27.407 15.912v1.768H25.64l.77-.776c-.28-.276-.639-.402-1.065-.402-.858 0-1.473.619-1.473 1.473 0 .855.615 1.474 1.473 1.474.677 0 1.203-.35 1.4-.934l.005-.012c.048-.103.206-.18.292-.18.114 0 .305.067.305.243a.617.617 0 0 1-.038.166c-.296.755-1.085 1.306-1.955 1.306a2.068 2.068 0 0 1-2.072-2.063c0-1.14.928-2.063 2.072-2.063.569 0 1.083.228 1.457.597l.597-.597Z" fill="#fff"/></mask><g mask="url(#c)"><path fill="#5F6368" d="M22.987 15.617h4.715v4.715h-4.715z"/></g><path fill-rule="evenodd" clip-rule="evenodd" d="M35 15a3 3 0 1 0 0 6h195a3 3 0 1 0 0-6H35Z" fill="#F1F3F4"/><circle cx="239.76" cy="17.975" r="3.242" fill="#1A73E8"/><g clip-path="url(#d)"><circle cx="239.76" cy="17.974" r="3.242" fill="#C4C4C4"/></g><path fill-rule="evenodd" clip-rule="evenodd" d="M248.896 16.647a.441.441 0 1 1 .442.442.441.441 0 0 1-.442-.442Zm0 1.473a.441.441 0 1 1 .442.442.441.441 0 0 1-.442-.442Zm0 1.474a.441.441 0 1 1 .442.442.441.441 0 0 1-.442-.442Z" fill="#000"/><mask id="e" style="mask-type:alpha" maskUnits="userSpaceOnUse" x="248" y="16" width="2" height="5"><path fill-rule="evenodd" clip-rule="evenodd" d="M248.896 16.647a.441.441 0 1 1 .442.442.441.441 0 0 1-.442-.442Zm0 1.473a.441.441 0 1 1 .442.442.441.441 0 0 1-.442-.442Zm0 1.474a.441.441 0 1 1 .442.442.441.441 0 0 1-.442-.442Z" fill="#fff"/></mask><g mask="url(#e)"><path fill="#9AA0A6" d="M246.833 15.615h4.715v4.715h-4.715z"/></g><path fill="#202124" fill-opacity=".28" d="M81.634 4.714h.295v5.894h-.295z"/><path d="M11.2 4.989a2.358 2.358 0 0 1 2.357-2.358h65.98a2.358 2.358 0 0 1 2.357 2.358v7.663H11.2V4.989Z" fill="#fff"/><path fill-rule="evenodd" clip-rule="evenodd" d="M11.2 10.293v2.358H8.546v-.018a2.358 2.358 0 0 0 2.652-2.34Zm70.694 0v2.358h2.653v-.018a2.358 2.358 0 0 1-2.652-2.34Z" fill="#DADCE0"/><path fill-rule="evenodd" clip-rule="evenodd" d="M75.953 6.482a.21.21 0 0 1 .172.09l.796.796.793-.79a.21.21 0 1 1 .32.271l.001.003-.818.81.79.791a.21.21 0 1 1-.29.297l-.796-.794-.791.784a.21.21 0 1 1-.316-.27l.813-.809-.804-.803a.21.21 0 0 1 .13-.376Z" fill="#5F6368"/><g clip-path="url(#f)"><path d="M17.13 8.714V6.782h.027l1.352 1.932h.302V6.222h-.307v1.94h-.028l-1.352-1.94h-.302v2.492h.307Zm3.512-.482c-.078.164-.24.252-.48.252-.316 0-.522-.233-.537-.6v-.015h1.338v-.114c0-.578-.306-.935-.808-.935-.512 0-.84.38-.84.965 0 .589.323.962.84.962.407 0 .697-.197.784-.515h-.297Zm-.49-1.15c.294 0 .491.218.498.547h-1.025c.022-.33.23-.547.526-.547Zm3.619-.23h-.3l-.365 1.489h-.028l-.416-1.489h-.285l-.416 1.489h-.028l-.366-1.489h-.3l.521 1.862h.3l.415-1.44h.028l.416 1.44h.302l.522-1.862Zm1.52-.481v.481h-.301v.249h.3v1.13c0 .355.154.497.537.497a.995.995 0 0 0 .175-.018v-.25a1.253 1.253 0 0 1-.139.007c-.193 0-.276-.093-.276-.313V7.101h.415v-.249h-.415v-.481h-.297Zm1.678 2.376a.643.643 0 0 0 .573-.308h.028v.275h.283V7.439c0-.386-.254-.62-.708-.62-.397 0-.69.197-.73.496h.3c.041-.147.197-.231.42-.231.277 0 .42.126.42.355v.17l-.536.033c-.434.025-.679.217-.679.55 0 .34.268.555.629.555Zm.055-.261c-.216 0-.377-.11-.377-.3 0-.187.125-.285.408-.304l.5-.033v.17c0 .267-.226.467-.531.467Zm2.303.26c.472 0 .781-.381.781-.963 0-.585-.307-.963-.78-.963-.256 0-.482.126-.584.326h-.028V6.113h-.297v2.6h.283v-.296h.028c.117.207.338.33.598.33Zm-.069-1.659c.34 0 .543.261.543.696 0 .435-.202.696-.543.696-.338 0-.549-.266-.549-.696 0-.43.21-.696.55-.696Z" fill="#202124"/></g><path fill-rule="evenodd" clip-rule="evenodd" d="M88.358 5.59c.162 0 .294.131.294.294v1.179h1.18a.295.295 0 0 1 0 .59h-1.18V8.83a.295.295 0 1 1-.589 0V7.652h-1.179a.295.295 0 1 1 0-.589h1.179V5.884c0-.163.132-.295.295-.295Z" fill="#000"/><mask id="g" style="mask-type:alpha" maskUnits="userSpaceOnUse" x="86" y="5" width="5" height="5"><path fill-rule="evenodd" clip-rule="evenodd" d="M88.358 5.59c.162 0 .294.131.294.294v1.179h1.18a.295.295 0 0 1 0 .59h-1.18V8.83a.295.295 0 1 1-.589 0V7.652h-1.179a.295.295 0 1 1 0-.589h1.179V5.884c0-.163.132-.295.295-.295Z" fill="#fff"/></mask><g mask="url(#g)"><path fill="#5F6368" d="M90.716 9.716H86V5h4.715z"/></g><path d="m249.487 8.529-1.319-1.316.279-.28 1.04 1.042 1.039-1.041.279.279-1.318 1.316Z" fill="#5F6368"/><defs><clipPath id="d"><rect x="236.519" y="14.733" width="6.484" height="6.484" rx="3.242" fill="#fff"/></clipPath><clipPath id="f"><path fill="#fff" transform="translate(16.504 4.714)" d="M0 0h51.869v5.894H0z"/></clipPath></defs></svg>