<svg width="14" height="14" viewBox="0 0 14 14" fill="none" xmlns="http://www.w3.org/2000/svg"><path d="M7 13.4a6.236 6.236 0 0 1-2.483-.5 6.624 6.624 0 0 1-2.05-1.367A6.624 6.624 0 0 1 1.1 9.483 6.237 6.237 0 0 1 .6 7c0-.889.167-1.717.5-2.483A6.421 6.421 0 0 1 4.517 1.1 6.237 6.237 0 0 1 7 .6a6.16 6.16 0 0 1 2.483.5 6.287 6.287 0 0 1 2.034 1.383A6.286 6.286 0 0 1 12.9 4.517c.333.766.5 1.594.5 2.483 0 .3-.022.595-.067.883a5.48 5.48 0 0 1-.166.85 2.02 2.02 0 0 0-.517-.35 1.855 1.855 0 0 0-.6-.166c.056-.2.094-.4.117-.6.022-.2.033-.406.033-.617 0-1.444-.506-2.672-1.517-3.683C9.673 2.306 8.444 1.8 7 1.8s-2.672.506-3.683 1.517C2.306 4.327 1.8 5.556 1.8 7c0 1.445.506 2.672 1.517 3.684C4.327 11.694 5.556 12.2 7 12.2c.578 0 1.122-.083 1.633-.25a5.19 5.19 0 0 0 1.434-.75c.1.189.227.35.383.484.156.133.328.244.517.333a6.419 6.419 0 0 1-1.834 1.017A6.15 6.15 0 0 1 7 13.4Zm4.8-2.4a.772.772 0 0 1-.567-.233A.772.772 0 0 1 11 10.2c0-.222.078-.411.233-.567A.772.772 0 0 1 11.8 9.4c.222 0 .411.078.567.233a.772.772 0 0 1 .233.567.772.772 0 0 1-.233.567.772.772 0 0 1-.567.233ZM9.233 9.833 6.4 7V3h1.2v3.5l2.483 2.483-.85.85Z" fill="#0B57D0"/></svg>