<?xml version="1.0" encoding="UTF-8"?>
<!--Generator: Apple Native CoreSVG 175-->
<!DOCTYPE svg
PUBLIC "-//W3C//DTD SVG 1.1//EN"
       "http://www.w3.org/Graphics/SVG/1.1/DTD/svg11.dtd">
<svg version="1.1" xmlns="http://www.w3.org/2000/svg" xmlns:xlink="http://www.w3.org/1999/xlink" width="3300" height="2200">
 <!--glyph: "", point size: 100.0, font version: "17.3d3e1", template writer version: "65.1"-->
 <g id="Notes">
  <rect height="2200" id="artboard" style="fill:white;opacity:1" width="3300" x="0" y="0"/>
  <line style="fill:none;stroke:black;opacity:1;stroke-width:0.5;" x1="263" x2="3036" y1="292" y2="292"/>
  <text style="stroke:none;fill:black;font-family:sans-serif;font-size:13;font-weight:bold;" transform="matrix(1 0 0 1 263 322)">Weight/Scale Variations</text>
  <text style="stroke:none;fill:black;font-family:sans-serif;font-size:13;text-anchor:middle;" transform="matrix(1 0 0 1 559.711 322)">Ultralight</text>
  <text style="stroke:none;fill:black;font-family:sans-serif;font-size:13;text-anchor:middle;" transform="matrix(1 0 0 1 856.422 322)">Thin</text>
  <text style="stroke:none;fill:black;font-family:sans-serif;font-size:13;text-anchor:middle;" transform="matrix(1 0 0 1 1153.13 322)">Light</text>
  <text style="stroke:none;fill:black;font-family:sans-serif;font-size:13;text-anchor:middle;" transform="matrix(1 0 0 1 1449.84 322)">Regular</text>
  <text style="stroke:none;fill:black;font-family:sans-serif;font-size:13;text-anchor:middle;" transform="matrix(1 0 0 1 1746.56 322)">Medium</text>
  <text style="stroke:none;fill:black;font-family:sans-serif;font-size:13;text-anchor:middle;" transform="matrix(1 0 0 1 2043.27 322)">Semibold</text>
  <text style="stroke:none;fill:black;font-family:sans-serif;font-size:13;text-anchor:middle;" transform="matrix(1 0 0 1 2339.98 322)">Bold</text>
  <text style="stroke:none;fill:black;font-family:sans-serif;font-size:13;text-anchor:middle;" transform="matrix(1 0 0 1 2636.69 322)">Heavy</text>
  <text style="stroke:none;fill:black;font-family:sans-serif;font-size:13;text-anchor:middle;" transform="matrix(1 0 0 1 2933.4 322)">Black</text>
  <line style="fill:none;stroke:black;opacity:1;stroke-width:0.5;" x1="263" x2="3036" y1="1903" y2="1903"/>
  <g transform="matrix(1 0 0 1 263 1933)">
   <path d="M9.24805 0.830078Q10.8691 0.830078 12.2949 0.214844Q13.7207-0.400391 14.8096-1.49414Q15.8984-2.58789 16.5186-4.01367Q17.1387-5.43945 17.1387-7.05078Q17.1387-8.66211 16.5186-10.0879Q15.8984-11.5137 14.8047-12.6074Q13.7109-13.7012 12.2852-14.3164Q10.8594-14.9316 9.23828-14.9316Q7.62695-14.9316 6.20117-14.3164Q4.77539-13.7012 3.69141-12.6074Q2.60742-11.5137 1.9873-10.0879Q1.36719-8.66211 1.36719-7.05078Q1.36719-5.43945 1.9873-4.01367Q2.60742-2.58789 3.69629-1.49414Q4.78516-0.400391 6.21094 0.214844Q7.63672 0.830078 9.24805 0.830078ZM9.24805-0.654297Q7.91992-0.654297 6.7627-1.14746Q5.60547-1.64062 4.73145-2.51953Q3.85742-3.39844 3.36426-4.56055Q2.87109-5.72266 2.87109-7.05078Q2.87109-8.37891 3.35938-9.54102Q3.84766-10.7031 4.72168-11.582Q5.5957-12.4609 6.75293-12.9541Q7.91016-13.4473 9.23828-13.4473Q10.5762-13.4473 11.7334-12.9541Q12.8906-12.4609 13.7695-11.582Q14.6484-10.7031 15.1465-9.54102Q15.6445-8.37891 15.6445-7.05078Q15.6445-5.72266 15.1514-4.56055Q14.6582-3.39844 13.7842-2.51953Q12.9102-1.64062 11.748-1.14746Q10.5859-0.654297 9.24805-0.654297ZM5.6543-7.05078Q5.6543-6.72852 5.85938-6.52832Q6.06445-6.32812 6.40625-6.32812L8.51562-6.32812L8.51562-4.20898Q8.51562-3.88672 8.71094-3.67676Q8.90625-3.4668 9.23828-3.4668Q9.56055-3.4668 9.77051-3.67676Q9.98047-3.88672 9.98047-4.20898L9.98047-6.32812L12.0898-6.32812Q12.4219-6.32812 12.627-6.52832Q12.832-6.72852 12.832-7.05078Q12.832-7.38281 12.627-7.58789Q12.4219-7.79297 12.0898-7.79297L9.98047-7.79297L9.98047-9.90234Q9.98047-10.2344 9.77051-10.4443Q9.56055-10.6543 9.23828-10.6543Q8.90625-10.6543 8.71094-10.4443Q8.51562-10.2344 8.51562-9.90234L8.51562-7.79297L6.40625-7.79297Q6.06445-7.79297 5.85938-7.58789Q5.6543-7.38281 5.6543-7.05078Z"/>
  </g>
  <g transform="matrix(1 0 0 1 281.867 1933)">
   <path d="M11.709 2.91016Q13.75 2.91016 15.5518 2.12891Q17.3535 1.34766 18.7305-0.0292969Q20.1074-1.40625 20.8887-3.20801Q21.6699-5.00977 21.6699-7.05078Q21.6699-9.0918 20.8887-10.8936Q20.1074-12.6953 18.7305-14.0723Q17.3535-15.4492 15.5469-16.2305Q13.7402-17.0117 11.6992-17.0117Q9.6582-17.0117 7.85645-16.2305Q6.05469-15.4492 4.68262-14.0723Q3.31055-12.6953 2.5293-10.8936Q1.74805-9.0918 1.74805-7.05078Q1.74805-5.00977 2.5293-3.20801Q3.31055-1.40625 4.6875-0.0292969Q6.06445 1.34766 7.86621 2.12891Q9.66797 2.91016 11.709 2.91016ZM11.709 1.25Q9.98047 1.25 8.47656 0.605469Q6.97266-0.0390625 5.83496-1.17676Q4.69727-2.31445 4.05762-3.81836Q3.41797-5.32227 3.41797-7.05078Q3.41797-8.7793 4.05762-10.2832Q4.69727-11.7871 5.83008-12.9297Q6.96289-14.0723 8.4668-14.7119Q9.9707-15.3516 11.6992-15.3516Q13.4277-15.3516 14.9316-14.7119Q16.4355-14.0723 17.5781-12.9297Q18.7207-11.7871 19.3652-10.2832Q20.0098-8.7793 20.0098-7.05078Q20.0098-5.32227 19.3701-3.81836Q18.7305-2.31445 17.5928-1.17676Q16.4551-0.0390625 14.9463 0.605469Q13.4375 1.25 11.709 1.25ZM7.17773-7.05078Q7.17773-6.69922 7.41211-6.47461Q7.64648-6.25 8.01758-6.25L10.8887-6.25L10.8887-3.36914Q10.8887-2.99805 11.1133-2.76855Q11.3379-2.53906 11.6895-2.53906Q12.0605-2.53906 12.29-2.76855Q12.5195-2.99805 12.5195-3.36914L12.5195-6.25L15.4004-6.25Q15.7715-6.25 16.001-6.47461Q16.2305-6.69922 16.2305-7.05078Q16.2305-7.42188 16.001-7.65137Q15.7715-7.88086 15.4004-7.88086L12.5195-7.88086L12.5195-10.752Q12.5195-11.1328 12.29-11.3623Q12.0605-11.5918 11.6895-11.5918Q11.3379-11.5918 11.1133-11.3574Q10.8887-11.123 10.8887-10.752L10.8887-7.88086L8.01758-7.88086Q7.63672-7.88086 7.40723-7.65137Q7.17773-7.42188 7.17773-7.05078Z"/>
  </g>
  <g transform="matrix(1 0 0 1 305.646 1933)">
   <path d="M14.9707 5.66406Q17.0605 5.66406 18.96 5.01465Q20.8594 4.36523 22.4512 3.19336Q24.043 2.02148 25.2197 0.429688Q26.3965-1.16211 27.0459-3.06641Q27.6953-4.9707 27.6953-7.05078Q27.6953-9.14062 27.0459-11.04Q26.3965-12.9395 25.2197-14.5312Q24.043-16.123 22.4512-17.2998Q20.8594-18.4766 18.9551-19.126Q17.0508-19.7754 14.9609-19.7754Q12.8711-19.7754 10.9717-19.126Q9.07227-18.4766 7.48535-17.2998Q5.89844-16.123 4.72168-14.5312Q3.54492-12.9395 2.90039-11.04Q2.25586-9.14062 2.25586-7.05078Q2.25586-4.9707 2.90527-3.06641Q3.55469-1.16211 4.72656 0.429688Q5.89844 2.02148 7.49023 3.19336Q9.08203 4.36523 10.9814 5.01465Q12.8809 5.66406 14.9707 5.66406ZM14.9707 3.84766Q13.1641 3.84766 11.5283 3.2959Q9.89258 2.74414 8.53516 1.74805Q7.17773 0.751953 6.17676-0.610352Q5.17578-1.97266 4.62891-3.6084Q4.08203-5.24414 4.08203-7.05078Q4.08203-8.86719 4.62891-10.5029Q5.17578-12.1387 6.17188-13.501Q7.16797-14.8633 8.52539-15.8594Q9.88281-16.8555 11.5186-17.4023Q13.1543-17.9492 14.9609-17.9492Q16.7773-17.9492 18.4131-17.4023Q20.0488-16.8555 21.4111-15.8594Q22.7734-14.8633 23.7695-13.501Q24.7656-12.1387 25.3174-10.5029Q25.8691-8.86719 25.8691-7.05078Q25.8789-5.24414 25.332-3.6084Q24.7852-1.97266 23.7842-0.610352Q22.7832 0.751953 21.4209 1.74805Q20.0586 2.74414 18.4229 3.2959Q16.7871 3.84766 14.9707 3.84766ZM9.19922-7.05078Q9.19922-6.66992 9.45801-6.4209Q9.7168-6.17188 10.1172-6.17188L14.0625-6.17188L14.0625-2.2168Q14.0625-1.81641 14.3115-1.55762Q14.5605-1.29883 14.9512-1.29883Q15.3516-1.29883 15.6104-1.55273Q15.8691-1.80664 15.8691-2.2168L15.8691-6.17188L19.8242-6.17188Q20.2246-6.17188 20.4785-6.4209Q20.7324-6.66992 20.7324-7.05078Q20.7324-7.46094 20.4785-7.71484Q20.2246-7.96875 19.8242-7.96875L15.8691-7.96875L15.8691-11.9141Q15.8691-12.3242 15.6104-12.583Q15.3516-12.8418 14.9512-12.8418Q14.5605-12.8418 14.3115-12.583Q14.0625-12.3242 14.0625-11.9141L14.0625-7.96875L10.1172-7.96875Q9.70703-7.96875 9.45312-7.71484Q9.19922-7.46094 9.19922-7.05078Z"/>
  </g>
  <text style="stroke:none;fill:black;font-family:sans-serif;font-size:13;font-weight:bold;" transform="matrix(1 0 0 1 263 1953)">Design Variations</text>
  <text style="stroke:none;fill:black;font-family:sans-serif;font-size:13;" transform="matrix(1 0 0 1 263 1971)">Symbols are supported in up to nine weights and three scales.</text>
  <text style="stroke:none;fill:black;font-family:sans-serif;font-size:13;" transform="matrix(1 0 0 1 263 1989)">For optimal layout with text and other symbols, vertically align</text>
  <text style="stroke:none;fill:black;font-family:sans-serif;font-size:13;" transform="matrix(1 0 0 1 263 2007)">symbols with the adjacent text.</text>
  <line style="fill:none;stroke:#00AEEF;stroke-width:0.5;opacity:1.0;" x1="776" x2="776" y1="1919" y2="1933"/>
  <g transform="matrix(1 0 0 1 776 1933)">
   <path d="M3.31055 0.15625Q3.70117 0.15625 3.91602-0.00976562Q4.13086-0.175781 4.26758-0.585938L5.52734-4.0332L11.2891-4.0332L12.5488-0.585938Q12.6855-0.175781 12.9004-0.00976562Q13.1152 0.15625 13.4961 0.15625Q13.8867 0.15625 14.1162-0.0585938Q14.3457-0.273438 14.3457-0.644531Q14.3457-0.869141 14.2383-1.17188L9.6582-13.3691Q9.48242-13.8184 9.17969-14.043Q8.87695-14.2676 8.4082-14.2676Q7.5-14.2676 7.17773-13.3789L2.59766-1.16211Q2.49023-0.859375 2.49023-0.634766Q2.49023-0.263672 2.70996-0.0537109Q2.92969 0.15625 3.31055 0.15625ZM6.00586-5.51758L8.37891-12.0898L8.42773-12.0898L10.8008-5.51758Z"/>
  </g>
  <line style="fill:none;stroke:#00AEEF;stroke-width:0.5;opacity:1.0;" x1="793.197" x2="793.197" y1="1919" y2="1933"/>
  <text style="stroke:none;fill:black;font-family:sans-serif;font-size:13;font-weight:bold;" transform="matrix(1 0 0 1 776 1953)">Margins</text>
  <text style="stroke:none;fill:black;font-family:sans-serif;font-size:13;" transform="matrix(1 0 0 1 776 1971)">Leading and trailing margins on the left and right side of each symbol</text>
  <text style="stroke:none;fill:black;font-family:sans-serif;font-size:13;" transform="matrix(1 0 0 1 776 1989)">can be adjusted by modifying the x-location of the margin guidelines.</text>
  <text style="stroke:none;fill:black;font-family:sans-serif;font-size:13;" transform="matrix(1 0 0 1 776 2007)">Modifications are automatically applied proportionally to all</text>
  <text style="stroke:none;fill:black;font-family:sans-serif;font-size:13;" transform="matrix(1 0 0 1 776 2025)">scales and weights.</text>
  <g transform="matrix(1 0 0 1 1289 1933)">
   <path d="M2.8418 1.86523L4.54102 3.57422Q5.18555 4.22852 5.90332 4.17969Q6.62109 4.13086 7.31445 3.35938L18.0078-8.42773L17.041-9.4043L6.42578 2.27539Q6.16211 2.57812 5.89355 2.61719Q5.625 2.65625 5.27344 2.30469L4.10156 1.14258Q3.75 0.791016 3.79395 0.522461Q3.83789 0.253906 4.14062-0.0195312L15.6152-10.8203L14.6387-11.7871L3.04688-0.898438Q2.30469-0.214844 2.25098 0.498047Q2.19727 1.21094 2.8418 1.86523ZM9.25781-16.3281Q8.94531-16.0254 8.90625-15.6348Q8.86719-15.2441 9.04297-14.9512Q9.21875-14.6777 9.55566-14.541Q9.89258-14.4043 10.3809-14.5215Q11.4746-14.7754 12.5977-14.7314Q13.7207-14.6875 14.7949-13.9844L14.209-12.5293Q13.9551-11.9043 14.0674-11.4404Q14.1797-10.9766 14.5801-10.5664L16.875-8.25195Q17.2363-7.88086 17.5781-7.82227Q17.9199-7.76367 18.3398-7.8418L19.4043-8.03711L20.0684-7.36328L20.0293-6.80664Q20-6.43555 20.1221-6.12305Q20.2441-5.81055 20.6055-5.44922L21.3672-4.70703Q21.7285-4.3457 22.1533-4.33105Q22.5781-4.31641 22.9297-4.66797L25.8398-7.58789Q26.1914-7.93945 26.1816-8.35449Q26.1719-8.76953 25.8105-9.13086L25.0391-9.89258Q24.6875-10.2539 24.3799-10.3857Q24.0723-10.5176 23.7109-10.4883L23.1348-10.4395L22.4902-11.0742L22.7344-12.1973Q22.832-12.6172 22.6953-12.9834Q22.5586-13.3496 22.1191-13.7891L19.9219-15.9766Q18.6719-17.2168 17.2607-17.8369Q15.8496-18.457 14.4189-18.4814Q12.9883-18.5059 11.665-17.959Q10.3418-17.4121 9.25781-16.3281ZM10.752-15.957Q11.6602-16.6211 12.7002-16.9043Q13.7402-17.1875 14.8047-17.085Q15.8691-16.9824 16.8701-16.5137Q17.8711-16.0449 18.7012-15.2051L21.1328-12.793Q21.3086-12.6172 21.3525-12.4512Q21.3965-12.2852 21.3379-12.0312L21.0156-10.5469L22.5195-9.0625L23.5059-9.12109Q23.6914-9.13086 23.7891-9.09668Q23.8867-9.0625 24.0332-8.91602L24.6094-8.33984L22.168-5.89844L21.5918-6.47461Q21.4453-6.62109 21.4062-6.71875Q21.3672-6.81641 21.377-7.01172L21.4453-7.98828L19.9512-9.47266L18.4277-9.21875Q18.1836-9.16992 18.042-9.2041Q17.9004-9.23828 17.7148-9.41406L15.7129-11.416Q15.5176-11.5918 15.4932-11.7529Q15.4688-11.9141 15.5859-12.1875L16.4648-14.2773Q15.293-15.3711 13.8281-15.791Q12.3633-16.2109 10.8398-15.7617Q10.7227-15.7324 10.6885-15.8057Q10.6543-15.8789 10.752-15.957Z"/>
  </g>
  <text style="stroke:none;fill:black;font-family:sans-serif;font-size:13;font-weight:bold;" transform="matrix(1 0 0 1 1289 1953)">Exporting</text>
  <text style="stroke:none;fill:black;font-family:sans-serif;font-size:13;" transform="matrix(1 0 0 1 1289 1971)">Symbols should be outlined when exporting to ensure the</text>
  <text style="stroke:none;fill:black;font-family:sans-serif;font-size:13;" transform="matrix(1 0 0 1 1289 1989)">design is preserved when submitting to Xcode.</text>
  <text id="template-version" style="stroke:none;fill:black;font-family:sans-serif;font-size:13;text-anchor:end;" transform="matrix(1 0 0 1 3036 1933)">Template v.2.0</text>
  <text style="stroke:none;fill:black;font-family:sans-serif;font-size:13;text-anchor:end;" transform="matrix(1 0 0 1 3036 1951)">Requires Xcode 12 or greater</text>
  <text id="descriptive-name" style="stroke:none;fill:black;font-family:sans-serif;font-size:13;text-anchor:end;" transform="matrix(1 0 0 1 3036 1969)">Generated from password.cr</text>
  <text style="stroke:none;fill:black;font-family:sans-serif;font-size:13;text-anchor:end;" transform="matrix(1 0 0 1 3036 1987)">Typeset at 100 points</text>
  <text style="stroke:none;fill:black;font-family:sans-serif;font-size:13;" transform="matrix(1 0 0 1 263 726)">Small</text>
  <text style="stroke:none;fill:black;font-family:sans-serif;font-size:13;" transform="matrix(1 0 0 1 263 1156)">Medium</text>
  <text style="stroke:none;fill:black;font-family:sans-serif;font-size:13;" transform="matrix(1 0 0 1 263 1586)">Large</text>
 </g>
 <g id="Guides">
  <g id="H-reference" style="fill:#27AAE1;stroke:none;" transform="matrix(1 0 0 1 339 696)">
   <path d="M0.993347 0L3.6377 0L29.3282-67.1326L30.0301-67.1326L30.0301-70.459L28.1227-70.459ZM11.6882-24.4797L46.9818-24.4797L46.2311-26.7288L12.4382-26.7288ZM55.1193 0L57.7637 0L30.6381-70.459L29.4327-70.459L29.4327-67.1326Z"/>
  </g>
  <line id="Baseline-S" style="fill:none;stroke:#27AAE1;opacity:1;stroke-width:0.5;" x1="263" x2="3036" y1="696" y2="696"/>
  <line id="Capline-S" style="fill:none;stroke:#27AAE1;opacity:1;stroke-width:0.5;" x1="263" x2="3036" y1="625.541" y2="625.541"/>
  <g id="H-reference" style="fill:#27AAE1;stroke:none;" transform="matrix(1 0 0 1 339 1126)">
   <path d="M0.993347 0L3.6377 0L29.3282-67.1326L30.0301-67.1326L30.0301-70.459L28.1227-70.459ZM11.6882-24.4797L46.9818-24.4797L46.2311-26.7288L12.4382-26.7288ZM55.1193 0L57.7637 0L30.6381-70.459L29.4327-70.459L29.4327-67.1326Z"/>
  </g>
  <line id="Baseline-M" style="fill:none;stroke:#27AAE1;opacity:1;stroke-width:0.5;" x1="263" x2="3036" y1="1126" y2="1126"/>
  <line id="Capline-M" style="fill:none;stroke:#27AAE1;opacity:1;stroke-width:0.5;" x1="263" x2="3036" y1="1055.54" y2="1055.54"/>
  <g id="H-reference" style="fill:#27AAE1;stroke:none;" transform="matrix(1 0 0 1 339 1556)">
   <path d="M0.993347 0L3.6377 0L29.3282-67.1326L30.0301-67.1326L30.0301-70.459L28.1227-70.459ZM11.6882-24.4797L46.9818-24.4797L46.2311-26.7288L12.4382-26.7288ZM55.1193 0L57.7637 0L30.6381-70.459L29.4327-70.459L29.4327-67.1326Z"/>
  </g>
  <line id="Baseline-L" style="fill:none;stroke:#27AAE1;opacity:1;stroke-width:0.5;" x1="263" x2="3036" y1="1556" y2="1556"/>
  <line id="Capline-L" style="fill:none;stroke:#27AAE1;opacity:1;stroke-width:0.5;" x1="263" x2="3036" y1="1485.54" y2="1485.54"/>
  <line id="left-margin" style="fill:none;stroke:#00AEEF;stroke-width:0.5;opacity:1.0;" x1="1377.65" x2="1377.65" y1="1030.78" y2="1150.12"/>
  <line id="right-margin" style="fill:none;stroke:#00AEEF;stroke-width:0.5;opacity:1.0;" x1="1522.04" x2="1522.04" y1="1030.78" y2="1150.12"/>
 </g>
 <g id="Symbols">
  <g id="Black-L" transform="matrix(1 0 0 1 2843.89 1556)">
   <path d="M50.22-63.88C34.34-63.88 21.46-51 21.46-35.12C21.46-19.23 34.34-6.35 50.22-6.35C61.86-6.35 71.89-13.26 76.42-23.23L78.15-27.04L117.4-27.04L117.4-11.9L128.01-11.9L128.01-17.06C128.01-20.99 131.2-24.17 135.12-24.17C139.05-24.17 142.24-20.99 142.24-17.06L142.24-11.9L152.85-11.9L152.85-39.68C152.85-41.61 151.28-43.18 149.35-43.18L78.16-43.18L76.43-46.99C71.9-56.97 61.86-63.88 50.22-63.88ZM8.46-35.12C8.46-58.18 27.16-76.88 50.22-76.88C65.61-76.88 79.05-68.55 86.29-56.18L149.35-56.18C158.46-56.18 165.85-48.79 165.85-39.68L165.85-8.4C165.85-3.15 161.6 1.1 156.35 1.1L113.9 1.1C108.65 1.1 104.4-3.15 104.4-8.4L104.4-14.04L86.28-14.04C79.04-1.67 65.61 6.65 50.22 6.65C27.16 6.65 8.46-12.05 8.46-35.12ZM35.38-35.12C35.38-43.32 42.02-49.96 50.22-49.96C58.42-49.96 65.07-43.32 65.07-35.12C65.07-26.92 58.42-20.27 50.22-20.27C42.02-20.27 35.38-26.92 35.38-35.12ZM50.22-36.96C49.2-36.96 48.38-36.14 48.38-35.12C48.38-34.1 49.2-33.27 50.22-33.27C51.24-33.27 52.07-34.1 52.07-35.12C52.07-36.14 51.24-36.96 50.22-36.96Z"/>
  </g>
  <g id="Heavy-L" transform="matrix(1 0 0 1 2547.67 1556)">
   <path d="M51.3-65.96C34.27-65.96 20.46-52.15 20.46-35.12C20.46-18.08 34.27-4.27 51.3-4.27C64.35-4.27 75.52-12.38 80.02-23.84L81.52-27.65L118.48-27.65L118.48-13.63L128.43-13.63L128.43-18.76C128.43-22.75 131.67-25.99 135.66-25.99C139.66-25.99 142.9-22.75 142.9-18.76L142.9-13.63L152.85-13.63L152.85-37.34C152.85-37.67 152.81-37.98 152.74-38.28L152.65-38.64L152.61-39.02C152.39-41.01 150.69-42.57 148.64-42.57L81.52-42.57L80.03-46.37C75.53-57.85 64.35-65.96 51.3-65.96ZM8.46-35.12C8.46-58.78 27.64-77.96 51.3-77.96C67.97-77.96 82.4-68.44 89.49-54.57L148.64-54.57C156.75-54.57 163.45-48.53 164.5-40.7C164.73-39.61 164.85-38.49 164.85-37.34L164.85-10.63C164.85-5.66 160.82-1.63 155.85-1.63L115.48-1.63C110.5-1.63 106.48-5.66 106.48-10.63L106.48-15.65L89.48-15.65C82.39-1.78 67.96 7.73 51.3 7.73C27.64 7.73 8.46-11.45 8.46-35.12ZM36.89-35.11C36.89-43.07 43.34-49.53 51.3-49.53C59.26-49.53 65.72-43.07 65.72-35.11C65.72-27.15 59.26-20.7 51.3-20.7C43.34-20.7 36.89-27.15 36.89-35.11ZM51.3-37.53C49.97-37.53 48.89-36.44 48.89-35.11C48.89-33.78 49.97-32.7 51.3-32.7C52.64-32.7 53.72-33.78 53.72-35.11C53.72-36.44 52.64-37.53 51.3-37.53Z"/>
  </g>
  <g id="Bold-L" transform="matrix(1 0 0 1 2251.46 1556)">
   <path d="M50.8-67.46C33.49-67.46 19.46-53.43 19.46-36.12C19.46-18.81 33.49-4.78 50.8-4.78C64.46-4.78 76.09-13.51 80.38-25.72L81.67-29.39L119.94-29.39L119.94-14.14L129.66-14.14L129.66-19.77C129.66-23.48 132.68-26.5 136.39-26.5C140.11-26.5 143.13-23.48 143.13-19.77L143.13-14.14L152.85-14.14L152.85-38.34C152.85-40.83 150.84-42.84 148.35-42.84L81.67-42.84L80.38-46.52C76.09-58.73 64.46-67.46 50.8-67.46ZM8.46-36.12C8.46-59.51 27.42-78.46 50.8-78.46C67.87-78.46 82.56-68.37 89.27-53.84L148.35-53.84C156.91-53.84 163.85-46.9 163.85-38.34L163.85-11.64C163.85-6.94 160.05-3.14 155.35-3.14L117.44-3.14C112.74-3.14 108.94-6.94 108.94-11.64L108.94-18.39L89.27-18.39C82.56-3.87 67.87 6.22 50.8 6.22C27.42 6.22 8.46-12.73 8.46-36.12ZM36.89-36.12C36.89-43.8 43.12-50.03 50.8-50.03C58.49-50.03 64.72-43.8 64.72-36.12C64.72-28.44 58.49-22.21 50.8-22.21C43.12-22.21 36.89-28.44 36.89-36.12ZM50.8-39.03C49.2-39.03 47.89-37.73 47.89-36.12C47.89-34.51 49.2-33.21 50.8-33.21C52.41-33.21 53.72-34.51 53.72-36.12C53.72-37.73 52.41-39.03 50.8-39.03Z"/>
  </g>
  <g id="Semibold-L" transform="matrix(1 0 0 1 1955.25 1556)">
   <path d="M48.03-65.69C31.7-65.69 18.46-52.45 18.46-36.12C18.46-19.78 31.7-6.54 48.03-6.54C60.59-6.54 71.34-14.37 75.62-25.44L76.86-28.63L118.01-28.63L118.01-13.06L129.17-13.06L129.17-19.42C129.17-22.87 131.97-25.67 135.43-25.67C138.88-25.67 141.69-22.87 141.69-19.42L141.69-13.06L152.85-13.06L152.85-38.6C152.85-41.36 150.61-43.6 147.85-43.6L76.86-43.6L75.63-46.79C71.34-57.86 60.6-65.69 48.03-65.69ZM8.46-36.12C8.46-57.97 26.18-75.69 48.03-75.69C63.62-75.69 77.1-66.68 83.55-53.6L147.85-53.6C156.13-53.6 162.85-46.88 162.85-38.6L162.85-11.06C162.85-6.64 159.27-3.06 154.85-3.06L116.01-3.06C111.59-3.06 108.01-6.64 108.01-11.06L108.01-18.63L83.55-18.63C77.09-5.55 63.62 3.46 48.03 3.46C26.18 3.46 8.46-14.26 8.46-36.12ZM34.44-36.12C34.44-43.62 40.53-49.7 48.03-49.7C55.54-49.7 61.62-43.62 61.62-36.12C61.62-28.61 55.54-22.53 48.03-22.53C40.53-22.53 34.44-28.61 34.44-36.12ZM48.03-39.7C46.05-39.7 44.44-38.1 44.44-36.12C44.44-34.13 46.05-32.53 48.03-32.53C50.02-32.53 51.62-34.13 51.62-36.12C51.62-38.1 50.02-39.7 48.03-39.7Z"/>
  </g>
  <g id="Medium-L" transform="matrix(1 0 0 1 1659.04 1556)">
   <path d="M47.53-64.53C30.92-64.53 17.46-51.06 17.46-34.45C17.46-17.84 30.92-4.37 47.53-4.37C60.31-4.37 71.23-12.34 75.59-23.59L76.7-26.46L117.01-26.46L117.01-10.89L129.17-10.89L129.17-17.75C129.17-20.93 131.75-23.51 134.93-23.51C138.11-23.51 140.68-20.93 140.68-17.75L140.68-10.89L152.85-10.89L152.85-36.93C152.85-39.97 150.38-42.43 147.35-42.43L76.7-42.43L75.59-45.3C71.23-56.56 60.31-64.53 47.53-64.53ZM8.46-34.45C8.46-56.03 25.95-73.53 47.53-73.53C63.03-73.53 76.42-64.5 82.73-51.43L147.35-51.43C155.35-51.43 161.85-44.94 161.85-36.93L161.85-9.39C161.85-5.25 158.49-1.89 154.35-1.89L115.51-1.89C111.36-1.89 108.01-5.25 108.01-9.39L108.01-17.46L82.73-17.46C76.41-4.4 63.03 4.63 47.53 4.63C25.95 4.63 8.46-12.87 8.46-34.45ZM34.44-34.45C34.44-41.68 40.3-47.54 47.53-47.54C54.76-47.54 60.62-41.68 60.62-34.45C60.62-27.22 54.76-21.36 47.53-21.36C40.3-21.36 34.44-27.22 34.44-34.45ZM47.53-38.54C45.27-38.54 43.44-36.71 43.44-34.45C43.44-32.19 45.27-30.36 47.53-30.36C49.79-30.36 51.62-32.19 51.62-34.45C51.62-36.71 49.79-38.54 47.53-38.54Z"/>
  </g>
  <g id="Regular-L" transform="matrix(1 0 0 1 1362.83 1556)">
   <path d="M47.04-66.24C30.15-66.24 16.46-52.55 16.46-35.67C16.46-18.78 30.15-5.09 47.04-5.09C60.02-5.09 71.13-13.19 75.56-24.63L76.55-27.18L116.01-27.18L116.01-11.61L129.17-11.61L129.17-18.97C129.17-21.87 131.53-24.22 134.43-24.22C137.33-24.22 139.69-21.87 139.69-18.97L139.69-11.61L152.85-11.61L152.85-38.15C152.85-41.46 150.16-44.15 146.85-44.15L76.55-44.15L75.56-46.71C71.13-58.14 60.02-66.24 47.04-66.24ZM8.46-35.67C8.46-56.97 25.73-74.24 47.04-74.24C62.45-74.24 75.74-65.2 81.92-52.15L146.85-52.15C154.58-52.15 160.85-45.88 160.85-38.15L160.85-10.61C160.85-6.74 157.72-3.61 153.85-3.61L115.01-3.61C111.14-3.61 108.01-6.74 108.01-10.61L108.01-19.18L81.92-19.18C75.74-6.13 62.45 2.91 47.04 2.91C25.73 2.91 8.46-14.36 8.46-35.67ZM34.45-35.67C34.45-42.62 40.08-48.26 47.04-48.26C53.99-48.26 59.63-42.62 59.63-35.67C59.63-28.72 53.99-23.08 47.04-23.08C40.08-23.08 34.45-28.72 34.45-35.67ZM47.04-40.26C44.5-40.26 42.45-38.2 42.45-35.67C42.45-33.13 44.5-31.08 47.04-31.08C49.57-31.08 51.63-33.13 51.63-35.67C51.63-38.2 49.57-40.26 47.04-40.26Z"/>
  </g>
  <g id="Light-L" transform="matrix(1 0 0 1 1067.37 1556)">
   <path d="M45.78-66.4C28.21-66.4 13.96-52.15 13.96-34.58C13.96-17 28.21-2.75 45.78-2.75C59.3-2.75 70.86-11.18 75.47-23.09L76.15-24.84L113.51-24.84L113.51-9.52C113.51-9.38 113.62-9.27 113.76-9.27L129.17-9.27L129.17-17.88C129.17-20.09 130.96-21.88 133.18-21.88C135.39-21.88 137.19-20.09 137.19-17.88L137.19-9.27L152.6-9.27C152.74-9.27 152.85-9.38 152.85-9.52L152.85-37.06C152.85-41.06 149.6-44.31 145.6-44.31L76.15-44.31L75.47-46.07C70.87-57.97 59.31-66.4 45.78-66.4ZM8.46-34.58C8.46-55.19 25.17-71.9 45.78-71.9C60.98-71.9 74.05-62.83 79.87-49.81L145.6-49.81C152.64-49.81 158.35-44.1 158.35-37.06L158.35-9.52C158.35-6.34 155.77-3.77 152.6-3.77L113.76-3.77C110.58-3.77 108.01-6.34 108.01-9.52L108.01-19.34L79.87-19.34C74.04-6.33 60.98 2.75 45.78 2.75C25.17 2.75 8.46-13.96 8.46-34.58ZM34.44-34.58C34.44-40.84 39.52-45.92 45.78-45.92C52.05-45.92 57.12-40.84 57.12-34.58C57.12-28.32 52.05-23.24 45.78-23.24C39.52-23.24 34.44-28.32 34.44-34.58ZM45.78-40.42C42.56-40.42 39.94-37.81 39.94-34.58C39.94-31.35 42.56-28.74 45.78-28.74C49.01-28.74 51.62-31.35 51.62-34.58C51.62-37.81 49.01-40.42 45.78-40.42Z"/>
  </g>
  <g id="Thin-L" transform="matrix(1 0 0 1 771.657 1556)">
   <path d="M44.787-67.96C26.657-67.96 11.96-53.27 11.96-35.14C11.96-17.01 26.657-2.31 44.787-2.31C59.182-2.31 71.417-11.58 75.844-24.47L76.25-25.66L114.031-25.66L114.031-11.33C114.031-10.64 114.59-10.08 115.281-10.08L130.436-10.08C130.433-10.13 130.432-10.18 130.432-10.23L130.432-18.43C130.432-20.1 131.779-21.44 133.44-21.44C135.102-21.44 136.449-20.1 136.449-18.43L136.449-10.23C136.449-10.18 136.447-10.13 136.445-10.08L151.6-10.08C152.29-10.08 152.85-10.64 152.85-11.33L152.85-36.36C152.85-40.91 149.156-44.61 144.6-44.61L76.253-44.61L75.847-45.79C71.423-58.69 59.186-67.96 44.787-67.96ZM8.46-35.14C8.46-55.2 24.724-71.46 44.787-71.46C60.283-71.46 73.509-61.76 78.73-48.11L144.6-48.11C151.089-48.11 156.35-42.84 156.35-36.36L156.35-11.33C156.35-8.7 154.223-6.58 151.6-6.58L115.281-6.58C112.657-6.58 110.531-8.7 110.531-11.33L110.531-22.16L78.725-22.16C73.502-8.51 60.279 1.19 44.787 1.19C24.724 1.19 8.46-15.07 8.46-35.14ZM34.447-35.14C34.447-40.85 39.076-45.48 44.787-45.48C50.497-45.48 55.127-40.85 55.127-35.14C55.127-29.43 50.497-24.8 44.787-24.8C39.076-24.8 34.447-29.43 34.447-35.14ZM44.787-41.98C41.009-41.98 37.947-38.92 37.947-35.14C37.947-31.36 41.009-28.3 44.787-28.3C48.564-28.3 51.627-31.36 51.627-35.14C51.627-38.92 48.564-41.98 44.787-41.98Z"/>
  </g>
  <g id="Ultralight-L" transform="matrix(1 0 0 1 475.571 1556)">
   <path d="M44.163-68.69C25.687-68.69 10.71-53.71 10.71-35.23C10.71-16.76 25.687-1.78 44.163-1.78C59.286-1.78 72.069-11.82 76.207-25.59L76.448-26.4L112.779-26.4L112.779-12.69C112.779-11.66 113.619-10.82 114.654-10.82L128.159-10.82L128.159-18.78C128.159-21.35 130.244-23.43 132.815-23.43C135.386-23.43 137.47-21.35 137.47-18.78L137.47-10.82L150.975-10.82C152.01-10.82 152.85-11.66 152.85-12.69L152.85-35.2C152.85-36.09 152.72-36.95 152.478-37.75L152.466-37.8L152.457-37.84C151.681-41.41 148.502-44.08 144.702-44.08L76.445-44.08L76.204-44.88C72.063-58.65 59.283-68.69 44.163-68.69ZM8.46-35.23C8.46-54.95 24.445-70.94 44.163-70.94C60.009-70.94 73.441-60.61 78.108-46.33L144.702-46.33C149.568-46.33 153.634-42.92 154.646-38.36C154.942-37.36 155.1-36.3 155.1-35.2L155.1-12.69C155.1-10.41 153.253-8.57 150.975-8.57L114.654-8.57C112.376-8.57 110.529-10.41 110.529-12.69L110.529-24.15L78.111-24.15C73.447-9.86 60.012 0.47 44.163 0.47C24.445 0.47 8.46-15.51 8.46-35.23ZM34.448-35.24C34.448-40.6 38.798-44.95 44.163-44.95C49.529-44.95 53.878-40.6 53.878-35.24C53.878-29.87 49.529-25.52 44.163-25.52C38.798-25.52 34.448-29.87 34.448-35.24ZM44.163-42.7C40.04-42.7 36.698-39.36 36.698-35.24C36.698-31.11 40.04-27.77 44.163-27.77C48.286-27.77 51.628-31.11 51.628-35.24C51.628-39.36 48.286-42.7 44.163-42.7Z"/>
  </g>
  <g id="Black-M" transform="matrix(1 0 0 1 2857.03 1126)">
   <path d="M43.81-57.57C31.47-57.57 21.46-47.57 21.46-35.23C21.46-22.89 31.47-12.88 43.81-12.88C52.84-12.88 60.64-18.25 64.16-25.99L65.89-29.8L99.94-29.8L99.94-17.42L106.25-17.42L106.25-20.45C106.25-24.32 109.39-27.45 113.25-27.45C117.12-27.45 120.25-24.32 120.25-20.45L120.25-17.42L126.57-17.42L126.57-37.14C126.57-39.08 125-40.64 123.07-40.64L105.44-40.64C105.43-40.64 105.41-40.64 105.4-40.64C105.38-40.64 105.37-40.64 105.35-40.64L105.3-40.64L65.9-40.64L64.16-44.45C60.64-52.2 52.85-57.57 43.81-57.57ZM8.46-35.23C8.46-54.75 24.29-70.57 43.81-70.57C56.59-70.57 67.77-63.79 73.98-53.64L105.21-53.64C105.29-53.64 105.36-53.64 105.44-53.64L123.07-53.64C132.18-53.64 139.57-46.26 139.57-37.14L139.57-13.92C139.57-8.68 135.32-4.42 130.07-4.42L96.44-4.42C91.19-4.42 86.94-8.68 86.94-13.92L86.94-16.8L73.97-16.8C67.77-6.66 56.58 0.12 43.81 0.12C24.29 0.12 8.46-15.71 8.46-35.23ZM30.48-35.23C30.48-42.59 36.45-48.55 43.8-48.55C51.16-48.55 57.13-42.59 57.13-35.23C57.13-27.87 51.16-21.9 43.8-21.9C36.45-21.9 30.48-27.87 30.48-35.23ZM43.8-35.55C43.62-35.55 43.48-35.41 43.48-35.23C43.48-35.05 43.62-34.9 43.8-34.9C43.99-34.9 44.13-35.05 44.13-35.23C44.13-35.41 43.99-35.55 43.8-35.55Z"/>
  </g>
  <g id="Heavy-M" transform="matrix(1 0 0 1 2561.29 1126)">
   <path d="M44.35-59.11C31.16-59.11 20.46-48.42 20.46-35.22C20.46-22.02 31.16-11.33 44.35-11.33C54.46-11.33 63.11-17.6 66.6-26.49L68.1-30.29L99.99-30.29L99.99-18.92L105.8-18.92L105.8-21.95C105.8-25.81 108.94-28.95 112.8-28.95C116.67-28.95 119.8-25.81 119.8-21.95L119.8-18.92L125.62-18.92L125.62-35.14C125.62-35.44 125.59-35.73 125.53-36L125.46-36.32L125.42-36.64C125.21-38.6 123.54-40.13 121.52-40.13L68.1-40.13L66.61-43.94C63.12-52.84 54.46-59.11 44.35-59.11ZM8.46-35.22C8.46-55.04 24.53-71.11 44.35-71.11C58.07-71.11 69.98-63.42 76.02-52.13L121.52-52.13C129.62-52.13 136.31-46.08 137.32-38.25C137.52-37.24 137.62-36.2 137.62-35.14L137.62-15.92C137.62-10.95 133.59-6.92 128.62-6.92L96.99-6.92C92.02-6.92 87.99-10.95 87.99-15.92L87.99-18.29L76.01-18.29C69.97-7.01 58.06 0.67 44.35 0.67C24.53 0.67 8.46-15.4 8.46-35.22ZM31.53-35.22C31.53-42.3 37.27-48.04 44.35-48.04C51.44-48.04 57.18-42.3 57.18-35.22C57.18-28.13 51.44-22.39 44.35-22.39C37.27-22.39 31.53-28.13 31.53-35.22ZM44.35-36.04C43.9-36.04 43.53-35.67 43.53-35.22C43.53-34.76 43.9-34.39 44.35-34.39C44.81-34.39 45.18-34.76 45.18-35.22C45.18-35.67 44.81-36.04 44.35-36.04Z"/>
  </g>
  <g id="Bold-M" transform="matrix(1 0 0 1 2265.08 1126)">
   <path d="M43.85-59.61C30.38-59.61 19.46-48.69 19.46-35.22C19.46-21.74 30.38-10.82 43.85-10.82C54.48-10.82 63.53-17.62 66.87-27.12L68.17-30.79L100.99-30.79L100.99-18.42L106.8-18.42L106.8-21.94C106.8-25.53 109.72-28.44 113.3-28.44C116.89-28.44 119.8-25.53 119.8-21.94L119.8-18.42L125.62-18.42L125.62-35.13C125.62-35.51 125.58-35.86 125.5-36.2L125.44-36.43L125.4-36.66C125.15-38.34 123.68-39.63 121.93-39.63L68.17-39.63L66.88-43.31C63.53-52.81 54.48-59.61 43.85-59.61ZM8.46-35.22C8.46-54.76 24.3-70.61 43.85-70.61C57.88-70.61 69.99-62.45 75.72-50.63L121.93-50.63C129.11-50.63 135.07-45.42 136.24-38.56C136.49-37.45 136.62-36.31 136.62-35.13L136.62-15.92C136.62-11.22 132.82-7.42 128.12-7.42L98.49-7.42C93.79-7.42 89.99-11.22 89.99-15.92L89.99-19.79L75.72-19.79C69.99-7.98 57.88 0.18 43.85 0.18C24.3 0.18 8.46-15.67 8.46-35.22ZM31.53-35.21C31.53-42.02 37.05-47.54 43.85-47.54C50.66-47.54 56.18-42.02 56.18-35.21C56.18-28.41 50.66-22.89 43.85-22.89C37.05-22.89 31.53-28.41 31.53-35.21ZM43.85-36.54C43.12-36.54 42.53-35.95 42.53-35.21C42.53-34.48 43.12-33.89 43.85-33.89C44.59-33.89 45.18-34.48 45.18-35.21C45.18-35.95 44.59-36.54 43.85-36.54Z"/>
  </g>
  <g id="Semibold-M" transform="matrix(1 0 0 1 1970.07 1126)">
   <path d="M40.94-57.7C28.52-57.7 18.46-47.63 18.46-35.22C18.46-22.81 28.52-12.74 40.94-12.74C50.48-12.74 58.65-18.69 61.91-27.1L63.14-30.3L97.57-30.3L97.57-17.92L104.39-17.92L104.39-21.95C104.39-25.26 107.08-27.95 110.39-27.95C113.7-27.95 116.39-25.26 116.39-21.95L116.39-17.92L123.21-17.92L123.21-35.14C123.21-35.55 123.16-35.95 123.07-36.32L123.02-36.53L122.98-36.74C122.69-38.66 121.02-40.14 119.01-40.14L63.14-40.14L61.91-43.33C58.65-51.75 50.48-57.7 40.94-57.7ZM8.46-35.22C8.46-53.16 23-67.7 40.94-67.7C53.5-67.7 64.39-60.56 69.79-50.14L119.01-50.14C125.96-50.14 131.71-45.1 132.83-38.47C133.08-37.39 133.21-36.28 133.21-35.14L133.21-15.92C133.21-11.5 129.62-7.92 125.21-7.92L95.57-7.92C91.15-7.92 87.57-11.5 87.57-15.92L87.57-20.3L69.79-20.3C64.39-9.87 53.5-2.74 40.94-2.74C23-2.74 8.46-17.28 8.46-35.22ZM29.11-35.22C29.11-41.75 34.41-47.05 40.94-47.05C47.47-47.05 52.76-41.75 52.76-35.22C52.76-28.69 47.47-23.4 40.94-23.4C34.41-23.4 29.11-28.69 29.11-35.22ZM40.94-37.05C39.93-37.05 39.11-36.23 39.11-35.22C39.11-34.21 39.93-33.4 40.94-33.4C41.95-33.4 42.76-34.21 42.76-35.22C42.76-36.23 41.95-37.05 40.94-37.05Z"/>
  </g>
  <g id="Medium-M" transform="matrix(1 0 0 1 1673.86 1126)">
   <path d="M40.44-57.78C27.75-57.78 17.46-47.5 17.46-34.81C17.46-22.12 27.75-11.83 40.44-11.83C50.2-11.83 58.54-17.91 61.87-26.51L62.99-29.38L96.57-29.38L96.57-17.01L104.39-17.01L104.39-21.53C104.39-24.57 106.85-27.03 109.89-27.03C112.93-27.03 115.39-24.57 115.39-21.53L115.39-17.01L123.21-17.01L123.21-34.72C123.21-35.18 123.15-35.61 123.05-36.03L123.01-36.21L122.98-36.4C122.65-38.57 120.77-40.22 118.51-40.22L62.99-40.22L61.87-43.1C58.54-51.7 50.2-57.78 40.44-57.78ZM8.46-34.81C8.46-52.47 22.78-66.78 40.44-66.78C52.92-66.78 63.72-59.64 68.99-49.22L118.51-49.22C125.21-49.22 130.77-44.35 131.84-37.96C132.08-36.92 132.21-35.83 132.21-34.72L132.21-15.51C132.21-11.36 128.85-8.01 124.71-8.01L95.07-8.01C90.93-8.01 87.57-11.36 87.57-15.51L87.57-20.38L68.99-20.38C63.72-9.97 52.92-2.83 40.44-2.83C22.78-2.83 8.46-17.14 8.46-34.81ZM29.11-34.8C29.11-41.06 34.18-46.13 40.44-46.13C46.69-46.13 51.76-41.06 51.76-34.8C51.76-28.55 46.69-23.48 40.44-23.48C34.18-23.48 29.11-28.55 29.11-34.8ZM40.44-37.13C39.15-37.13 38.11-36.09 38.11-34.8C38.11-33.52 39.15-32.48 40.44-32.48C41.72-32.48 42.76-33.52 42.76-34.8C42.76-36.09 41.72-37.13 40.44-37.13Z"/>
  </g>
  <g id="Regular-M" transform="matrix(1 0 0 1 1377.65 1126)">
   <path d="M39.94-59.03C26.97-59.03 16.46-48.52 16.46-35.55C16.46-22.59 26.97-12.07 39.94-12.07C49.91-12.07 58.44-18.29 61.84-27.08L62.83-29.63L95.57-29.63L95.57-17.25L104.39-17.25L104.39-22.28C104.39-25.04 106.63-27.28 109.39-27.28C112.15-27.28 114.39-25.04 114.39-22.28L114.39-17.25L123.21-17.25L123.21-35.47C123.21-35.96 123.15-36.44 123.04-36.89L123-37.06L122.97-37.23C122.6-39.63 120.52-41.47 118.01-41.47L62.83-41.47L61.84-44.03C58.44-52.81 49.91-59.03 39.94-59.03ZM8.46-35.55C8.46-52.94 22.55-67.03 39.94-67.03C52.33-67.03 63.04-59.87 68.18-49.47L118.01-49.47C124.47-49.47 129.82-44.77 130.85-38.61C131.09-37.6 131.21-36.55 131.21-35.47L131.21-16.25C131.21-12.39 128.07-9.25 124.21-9.25L94.57-9.25C90.71-9.25 87.57-12.39 87.57-16.25L87.57-21.63L68.18-21.63C63.04-11.23 52.33-4.07 39.94-4.07C22.55-4.07 8.46-18.17 8.46-35.55ZM29.11-35.55C29.11-41.53 33.96-46.38 39.94-46.38C45.92-46.38 50.76-41.53 50.76-35.55C50.76-29.57 45.92-24.72 39.94-24.72C33.96-24.72 29.11-29.57 29.11-35.55ZM39.94-38.38C38.38-38.38 37.11-37.11 37.11-35.55C37.11-33.99 38.38-32.72 39.94-32.72C41.5-32.72 42.76-33.99 42.76-35.55C42.76-37.11 41.5-38.38 39.94-38.38Z"/>
  </g>
  <g id="Light-M" transform="matrix(1 0 0 1 1082.19 1126)">
   <path d="M38.69-59.95C25.03-59.95 13.96-48.88 13.96-35.23C13.96-21.57 25.03-10.5 38.69-10.5C49.19-10.5 58.17-17.05 61.76-26.3L62.44-28.06L93.07-28.06L93.07-15.93C93.07-15.79 93.19-15.68 93.32-15.68L104.39-15.68L104.39-21.95C104.39-24.03 106.07-25.7 108.14-25.7C110.21-25.7 111.89-24.03 111.89-21.95L111.89-15.68L122.96-15.68C123.1-15.68 123.21-15.79 123.21-15.93L123.21-35.15C123.21-35.74 123.14-36.31 123-36.86L122.98-36.97L122.96-37.09C122.5-40.09 119.9-42.4 116.76-42.4L62.44-42.4L61.76-44.15C58.17-53.4 49.19-59.95 38.69-59.95ZM8.46-35.23C8.46-51.92 21.99-65.45 38.69-65.45C50.86-65.45 61.35-58.26 66.14-47.9L116.76-47.9C122.61-47.9 127.46-43.63 128.38-38.04C128.59-37.11 128.71-36.14 128.71-35.15L128.71-15.93C128.71-12.75 126.13-10.18 122.96-10.18L93.32-10.18C90.15-10.18 87.57-12.75 87.57-15.93L87.57-22.56L66.14-22.56C61.35-12.2 50.86-5 38.69-5C21.99-5 8.46-18.53 8.46-35.23ZM29.11-35.23C29.11-40.51 33.4-44.8 38.69-44.8C43.98-44.8 48.27-40.51 48.27-35.23C48.27-29.94 43.98-25.65 38.69-25.65C33.4-25.65 29.11-29.94 29.11-35.23ZM38.69-39.3C36.44-39.3 34.61-37.48 34.61-35.23C34.61-32.97 36.44-31.15 38.69-31.15C40.94-31.15 42.77-32.97 42.77-35.23C42.77-37.48 40.94-39.3 38.69-39.3Z"/>
  </g>
  <g id="Thin-M" transform="matrix(1 0 0 1 786.43 1126)">
   <path d="M37.738-60.91C23.556-60.91 12.06-49.41 12.06-35.23C12.06-21.05 23.556-9.55 37.738-9.55C48.997-9.55 58.568-16.8 62.031-26.89L62.448-28.11L93.174-28.11L93.174-16.93C93.174-16.26 93.712-15.73 94.374-15.73L105.439-15.73L105.439-21.96C105.439-23.48 106.67-24.71 108.189-24.71C109.708-24.71 110.939-23.48 110.939-21.96L110.939-15.73L122.004-15.73C122.667-15.73 123.204-16.26 123.204-16.93L123.204-34.15C123.204-34.67 123.155-35.18 123.062-35.68L123.031-35.84L123.031-36.04C123.031-39.52 120.207-42.35 116.722-42.35L62.451-42.35L62.034-43.56C58.574-53.66 49-60.91 37.738-60.91ZM8.46-35.23C8.46-51.4 21.568-64.51 37.738-64.51C50.128-64.51 60.716-56.81 64.992-45.95L116.722-45.95C122.149-45.95 126.557-41.58 126.63-36.18C126.745-35.52 126.804-34.84 126.804-34.15L126.804-16.93C126.804-14.28 124.655-12.13 122.004-12.13L94.374-12.13C91.723-12.13 89.574-14.28 89.574-16.93L89.574-24.51L64.988-24.51C60.71-13.65 50.124-5.95 37.738-5.95C21.568-5.95 8.46-19.06 8.46-35.23ZM29.161-35.23C29.161-39.97 33.001-43.81 37.738-43.81C42.474-43.81 46.314-39.97 46.314-35.23C46.314-30.5 42.474-26.66 37.738-26.66C33.001-26.66 29.161-30.5 29.161-35.23ZM37.738-40.31C34.934-40.31 32.661-38.04 32.661-35.23C32.661-32.43 34.934-30.16 37.738-30.16C40.541-30.16 42.814-32.43 42.814-35.23C42.814-38.04 40.541-40.31 37.738-40.31Z"/>
  </g>
  <g id="Ultralight-M" transform="matrix(1 0 0 1 490.397 1126)">
   <path d="M37.062-61.61C22.508-61.61 10.71-49.81 10.71-35.26C10.71-20.7 22.508-8.91 37.062-8.91C48.975-8.91 59.045-16.81 62.305-27.67L62.545-28.47L91.819-28.47L91.819-17.96C91.819-16.93 92.659-16.09 93.694-16.09L105.418-16.09C105.396-16.21 105.384-16.34 105.384-16.47L105.384-23.99C105.384-25.16 106.335-26.11 107.509-26.11C108.683-26.11 109.634-25.16 109.634-23.99L109.634-16.47C109.634-16.34 109.623-16.21 109.6-16.09L121.324-16.09C122.36-16.09 123.199-16.93 123.199-17.96L123.199-33.18C123.199-33.8 123.137-34.4 123.019-34.97L122.985-35.14L123-35.3C123.02-35.52 123.031-35.75 123.031-35.98C123.031-39.34 120.311-42.06 116.956-42.06L114.404-42.06L114.324-42.06L102.694-42.06L102.607-42.06L62.543-42.06L62.303-42.86C59.04-53.71 48.973-61.61 37.062-61.61ZM8.46-35.26C8.46-51.06 21.266-63.86 37.062-63.86C49.698-63.86 60.417-55.67 64.204-44.31L102.603-44.31C102.633-44.31 102.664-44.31 102.694-44.31L114.324-44.31C114.352-44.31 114.38-44.31 114.408-44.31L116.956-44.31C121.554-44.31 125.281-40.58 125.281-35.98C125.281-35.74 125.272-35.5 125.255-35.26C125.382-34.59 125.449-33.89 125.449-33.18L125.449-17.96C125.449-15.68 123.602-13.84 121.324-13.84L93.694-13.84C91.416-13.84 89.569-15.68 89.569-17.96L89.569-26.22L64.206-26.22C60.422-14.85 49.701-6.66 37.062-6.66C21.266-6.66 8.46-19.46 8.46-35.26ZM29.111-35.26C29.111-39.65 32.671-43.21 37.062-43.21C41.454-43.21 45.014-39.65 45.014-35.26C45.014-30.87 41.454-27.31 37.062-27.31C32.671-27.31 29.111-30.87 29.111-35.26ZM37.062-40.96C33.914-40.96 31.361-38.41 31.361-35.26C31.361-32.11 33.914-29.56 37.062-29.56C40.211-29.56 42.764-32.11 42.764-35.26C42.764-38.41 40.211-40.96 37.062-40.96Z"/>
  </g>
  <g id="Black-S" transform="matrix(1 0 0 1 2872.2 696)">
   <path d="M35.97-49.742C27.96-49.742 21.46-43.243 21.46-35.226C21.46-27.209 27.96-20.71 35.97-20.71C41.6-20.71 46.49-23.907 48.9-28.612L50.71-32.145L80.97-32.145L80.97-23.675L86.09-23.675L86.09-25.343C86.09-27 87.44-28.343 89.09-28.343C90.75-28.343 92.09-27 92.09-25.343L92.09-23.675L96.22-23.675L96.22-35.815C96.22-37.195 95.1-38.315 93.72-38.315L50.71-38.315L48.9-41.845C46.48-46.548 41.6-49.742 35.97-49.742ZM8.46-35.226C8.46-50.422 20.78-62.742 35.97-62.742C45.17-62.742 53.31-58.228 58.3-51.315L93.72-51.315C102.28-51.315 109.22-44.375 109.22-35.815L109.22-20.175C109.22-14.928 104.96-10.675 99.72-10.675L77.47-10.675C72.57-10.675 68.53-14.382 68.02-19.145L58.3-19.145C53.31-12.227 45.17-7.71 35.97-7.71C20.78-7.71 8.46-20.029 8.46-35.226ZM26.34-35.227C26.34-40.549 30.65-44.863 35.97-44.863C41.3-44.863 45.61-40.549 45.61-35.227C45.61-29.905 41.3-25.591 35.97-25.591C30.65-25.591 26.34-29.905 26.34-35.227ZM35.97-31.863C37.83-31.863 39.34-33.369 39.34-35.227C39.34-37.085 37.83-38.591 35.97-38.591C34.12-38.591 32.61-37.085 32.61-35.227C32.61-33.369 34.12-31.863 35.97-31.863Z"/>
  </g>
  <g id="Heavy-S" transform="matrix(1 0 0 1 2575.99 696)">
   <path d="M35.47-50.238C27.18-50.238 20.46-43.515 20.46-35.222C20.46-26.929 27.18-20.206 35.47-20.206C41.29-20.206 46.35-23.514 48.84-28.38L50.52-31.641L79.97-31.641L79.97-23.171L85.59-23.171L85.59-25.339C85.59-26.996 86.94-28.339 88.59-28.339C90.25-28.339 91.59-26.996 91.59-25.339L91.59-23.171L96.22-23.171L96.22-35.811C96.22-37.468 94.87-38.811 93.22-38.811L50.52-38.811L48.84-42.069C46.34-46.932 41.29-50.238 35.47-50.238ZM8.46-35.222C8.46-50.142 20.55-62.238 35.47-62.238C44.59-62.238 52.65-57.716 57.54-50.811L93.22-50.811C101.5-50.811 108.22-44.095 108.22-35.811L108.22-20.171C108.22-15.2 104.19-11.171 99.22-11.171L76.97-11.171C72.17-11.171 68.26-14.917 67.98-19.641L57.54-19.641C52.66-12.731 44.6-8.206 35.47-8.206C20.55-8.206 8.46-20.302 8.46-35.222ZM26.34-35.223C26.34-40.269 30.43-44.359 35.47-44.359C40.52-44.359 44.61-40.269 44.61-35.223C44.61-30.178 40.52-26.087 35.47-26.087C30.43-26.087 26.34-30.178 26.34-35.223ZM35.47-32.359C37.06-32.359 38.34-33.641 38.34-35.223C38.34-36.805 37.06-38.087 35.47-38.087C33.89-38.087 32.61-36.805 32.61-35.223C32.61-33.641 33.89-32.359 35.47-32.359Z"/>
  </g>
  <g id="Bold-S" transform="matrix(1 0 0 1 2279.78 696)">
   <path d="M34.97-50.238C26.4-50.238 19.46-43.291 19.46-34.722C19.46-26.153 26.4-19.206 34.97-19.206C41.28-19.206 46.71-22.966 49.14-28.388L50.6-31.639L79.97-31.639L79.97-22.169L85.09-22.169L85.09-24.839C85.09-26.496 86.44-27.839 88.09-27.839C89.75-27.839 91.09-26.496 91.09-24.839L91.09-22.169L96.22-22.169L96.22-34.309C96.22-36.242 94.65-37.809 92.72-37.809L50.6-37.809L49.14-41.06C46.71-46.48 41.28-50.238 34.97-50.238ZM8.46-34.722C8.46-49.366 20.33-61.238 34.97-61.238C44.45-61.238 52.75-56.268 57.44-48.809L92.72-48.809C100.73-48.809 107.22-42.317 107.22-34.309L107.22-19.669C107.22-14.975 103.41-11.169 98.72-11.169L77.47-11.169C72.77-11.169 68.97-14.975 68.97-19.669L68.97-20.639L57.44-20.639C52.76-13.178 44.45-8.206 34.97-8.206C20.33-8.206 8.46-20.078 8.46-34.722ZM26.34-34.723C26.34-39.493 30.2-43.359 34.97-43.359C39.74-43.359 43.61-39.493 43.61-34.723C43.61-29.954 39.74-26.087 34.97-26.087C30.2-26.087 26.34-29.954 26.34-34.723ZM34.97-32.359C36.28-32.359 37.34-33.417 37.34-34.723C37.34-36.029 36.28-37.087 34.97-37.087C33.67-37.087 32.61-36.029 32.61-34.723C32.61-33.417 33.67-32.359 34.97-32.359Z"/>
  </g>
  <g id="Semibold-S" transform="matrix(1 0 0 1 1983.57 696)">
   <path d="M34.47-52.898C25.63-52.898 18.46-45.727 18.46-36.882C18.46-28.037 25.63-20.866 34.47-20.866C41.27-20.866 47.09-25.104 49.41-31.1L50.65-34.294L78.97-34.294L78.97-24.826L84.59-24.826L84.59-27C84.59-28.656 85.94-30 87.59-30C89.25-30 90.59-28.656 90.59-27L90.59-24.826L96.22-24.826L96.22-35.468C96.22-37.677 94.43-39.468 92.22-39.468L50.65-39.468L49.42-42.663C47.09-48.659 41.27-52.898 34.47-52.898ZM8.46-36.882C8.46-51.25 20.1-62.898 34.47-62.898C44.28-62.898 52.81-57.471 57.25-49.468L92.22-49.468C99.95-49.468 106.22-43.2 106.22-35.468L106.22-22.826C106.22-18.408 102.64-14.826 98.22-14.826L76.97-14.826C72.55-14.826 68.97-18.408 68.97-22.826L68.97-24.294L57.24-24.294C52.81-16.292 44.28-10.866 34.47-10.866C20.1-10.866 8.46-22.514 8.46-36.882ZM26.34-36.883C26.34-41.377 29.98-45.019 34.47-45.019C38.97-45.019 42.61-41.377 42.61-36.883C42.61-32.39 38.97-28.747 34.47-28.747C29.98-28.747 26.34-32.39 26.34-36.883ZM34.47-35.019C35.5-35.019 36.34-35.854 36.34-36.883C36.34-37.913 35.5-38.747 34.47-38.747C33.44-38.747 32.61-37.913 32.61-36.883C32.61-35.854 33.44-35.019 34.47-35.019Z"/>
  </g>
  <g id="Medium-S" transform="matrix(1 0 0 1 1687.36 696)">
   <path d="M33.97-52.398C24.85-52.398 17.46-45.004 17.46-35.882C17.46-26.761 24.85-19.366 33.97-19.366C40.98-19.366 46.99-23.737 49.38-29.919L50.49-32.794L77.97-32.794L77.97-23.326L83.09-23.326L83.09-26C83.09-28.209 84.88-30 87.09-30C89.3-30 91.09-28.209 91.09-26L91.09-23.326L96.22-23.326L96.22-34.468C96.22-36.953 94.21-38.968 91.72-38.968L50.49-38.968L49.38-41.843C46.99-48.026 40.99-52.398 33.97-52.398ZM8.46-35.882C8.46-49.974 19.88-61.398 33.97-61.398C43.7-61.398 52.14-55.959 56.45-47.968L91.72-47.968C99.18-47.968 105.22-41.924 105.22-34.468L105.22-21.826C105.22-17.684 101.86-14.326 97.72-14.326L76.47-14.326C72.32-14.326 68.97-17.684 68.97-21.826L68.97-23.794L56.45-23.794C52.14-15.804 43.7-10.366 33.97-10.366C19.88-10.366 8.46-21.79 8.46-35.882ZM24.25-35.884C24.25-41.253 28.6-45.605 33.97-45.605C39.34-45.605 43.69-41.253 43.69-35.884C43.69-30.515 39.34-26.163 33.97-26.163C28.6-26.163 24.25-30.515 24.25-35.884ZM33.97-36.605C33.57-36.605 33.25-36.282 33.25-35.884C33.25-35.486 33.57-35.163 33.97-35.163C34.37-35.163 34.69-35.486 34.69-35.884C34.69-36.282 34.37-36.605 33.97-36.605Z"/>
  </g>
  <g id="Regular-S" transform="matrix(1 0 0 1 1391.14 696)">
   <path d="M33.47-52.898C24.08-52.898 16.46-45.28 16.46-35.882C16.46-26.485 24.08-18.866 33.47-18.866C40.7-18.866 46.88-23.371 49.35-29.739L50.34-32.294L76.97-32.294L76.97-22.826L81.83-22.826L81.83-25.731C81.83-28.362 83.96-30.496 86.59-30.496C89.22-30.496 91.36-28.362 91.36-25.731L91.36-22.826L96.22-22.826L96.22-34.468C96.22-37.23 93.98-39.468 91.22-39.468L50.34-39.468L49.35-42.024C46.88-48.393 40.7-52.898 33.47-52.898ZM8.46-35.882C8.46-49.698 19.66-60.898 33.47-60.898C43.11-60.898 51.47-55.446 55.65-47.468L91.22-47.468C98.4-47.468 104.22-41.648 104.22-34.468L104.22-21.826C104.22-17.96 101.09-14.826 97.22-14.826L75.97-14.826C72.1-14.826 68.97-17.96 68.97-21.826L68.97-24.294L55.65-24.294C51.47-16.317 43.11-10.866 33.47-10.866C19.66-10.866 8.46-22.066 8.46-35.882ZM24.25-35.884C24.25-40.977 28.38-45.105 33.47-45.105C38.57-45.105 42.69-40.977 42.69-35.884C42.69-30.791 38.57-26.663 33.47-26.663C28.38-26.663 24.25-30.791 24.25-35.884ZM33.47-37.105C32.8-37.105 32.25-36.558 32.25-35.884C32.25-35.21 32.8-34.663 33.47-34.663C34.15-34.663 34.69-35.21 34.69-35.884C34.69-36.558 34.15-37.105 33.47-37.105Z"/>
  </g>
  <g id="Light-S" transform="matrix(1 0 0 1 1095.93 696)">
   <path d="M31.97-53.398C21.75-53.398 13.46-45.108 13.46-34.882C13.46-24.656 21.75-16.366 31.97-16.366C39.84-16.366 46.56-21.271 49.25-28.197L49.86-29.794L73.97-29.794L73.97-20.826C73.97-20.55 74.19-20.326 74.47-20.326L81.83-20.326L81.83-24.731C81.83-26.534 83.29-27.996 85.09-27.996C86.9-27.996 88.36-26.534 88.36-24.731L88.36-20.326L95.72-20.326C96-20.326 96.22-20.55 96.22-20.826L96.22-33.468C96.22-37.058 93.31-39.968 89.72-39.968L49.87-39.968L49.25-41.565C46.56-48.493 39.84-53.398 31.97-53.398ZM8.46-34.882C8.46-47.87 18.99-58.398 31.97-58.398C41.35-58.398 49.45-52.906 53.22-44.968L89.72-44.968C96.07-44.968 101.22-39.819 101.22-33.468L101.22-20.826C101.22-17.789 98.76-15.326 95.72-15.326L74.47-15.326C71.43-15.326 68.97-17.789 68.97-20.826L68.97-24.794L53.22-24.794C49.45-16.858 41.35-11.366 31.97-11.366C18.99-11.366 8.46-21.895 8.46-34.882ZM24.25-34.884C24.25-39.148 27.71-42.605 31.97-42.605C36.24-42.605 39.69-39.148 39.69-34.884C39.69-30.62 36.24-27.163 31.97-27.163C27.71-27.163 24.25-30.62 24.25-34.884ZM31.97-37.605C30.47-37.605 29.25-36.387 29.25-34.884C29.25-33.381 30.47-32.163 31.97-32.163C33.48-32.163 34.69-33.381 34.69-34.884C34.69-36.387 33.48-37.605 31.97-37.605Z"/>
  </g>
  <g id="Thin-S" transform="matrix(1 0 0 1 799.971 696)">
   <path d="M31.226-54.148C20.586-54.148 11.96-45.522 11.96-34.882C11.96-24.242 20.586-15.616 31.226-15.616C39.411-15.616 46.407-20.721 49.198-27.926L49.631-29.044L72.469-29.044L72.469-20.826C72.469-20.136 73.028-19.576 73.719-19.576L81.831-19.576L81.831-24.731C81.831-26.12 82.957-27.246 84.346-27.246C85.735-27.246 86.861-26.12 86.861-24.731L86.861-19.576L94.973-19.576C95.663-19.576 96.223-20.136 96.223-20.826L96.223-33.468C96.223-37.472 92.977-40.718 88.973-40.718L49.632-40.718L49.199-41.836C46.409-49.043 39.411-54.148 31.226-54.148ZM8.46-34.882C8.46-47.455 18.653-57.648 31.226-57.648C40.475-57.648 48.432-52.133 51.995-44.218L88.973-44.218C94.91-44.218 99.723-39.405 99.723-33.468L99.723-20.826C99.723-18.203 97.596-16.076 94.973-16.076L73.719-16.076C71.095-16.076 68.969-18.203 68.969-20.826L68.969-25.544L51.994-25.544C48.43-17.63 40.474-12.116 31.226-12.116C18.653-12.116 8.46-22.309 8.46-34.882ZM24.255-34.884C24.255-38.734 27.376-41.855 31.226-41.855C35.076-41.855 38.197-38.734 38.197-34.884C38.197-31.034 35.076-27.913 31.226-27.913C27.376-27.913 24.255-31.034 24.255-34.884ZM31.226-38.355C29.309-38.355 27.755-36.801 27.755-34.884C27.755-32.967 29.309-31.413 31.226-31.413C33.143-31.413 34.697-32.967 34.697-34.884C34.697-36.801 33.143-38.355 31.226-38.355Z"/>
  </g>
  <g id="Ultralight-S" transform="matrix(1 0 0 1 503.76 696)">
   <path d="M30.726-54.652C19.81-54.652 10.96-45.802 10.96-34.886C10.96-23.97 19.81-15.12 30.726-15.12C39.124-15.12 46.302-20.358 49.165-27.749L49.474-28.548L71.469-28.548L71.469-20.83C71.469-19.864 72.252-19.08 73.219-19.08L81.831-19.08L81.831-24.735C81.831-25.847 82.733-26.75 83.846-26.75C84.958-26.75 85.861-25.847 85.861-24.735L85.861-19.08L94.473-19.08C95.439-19.08 96.223-19.864 96.223-20.83L96.223-33.472C96.223-37.752 92.753-41.222 88.473-41.222L49.475-41.222L49.165-42.021C46.303-49.413 39.125-54.652 30.726-54.652ZM8.46-34.886C8.46-47.183 18.429-57.152 30.726-57.152C39.886-57.152 47.751-51.622 51.169-43.722L88.473-43.722C94.134-43.722 98.723-39.133 98.723-33.472L98.723-20.83C98.723-18.483 96.82-16.58 94.473-16.58L73.219-16.58C70.871-16.58 68.969-18.483 68.969-20.83L68.969-26.048L51.168-26.048C47.749-18.149 39.885-12.62 30.726-12.62C18.429-12.62 8.46-22.589 8.46-34.886ZM24.255-34.888C24.255-38.462 27.152-41.359 30.726-41.359C34.3-41.359 37.197-38.462 37.197-34.888C37.197-31.314 34.3-28.417 30.726-28.417C27.152-28.417 24.255-31.314 24.255-34.888ZM30.726-38.859C28.533-38.859 26.755-37.081 26.755-34.888C26.755-32.695 28.533-30.917 30.726-30.917C32.919-30.917 34.697-32.695 34.697-34.888C34.697-37.081 32.919-38.859 30.726-38.859Z"/>
  </g>
 </g>
</svg>
