<svg xmlns="http://www.w3.org/2000/svg" version="1.1" width="3300" height="2000"><g id="Notes"><style>
    text {
      font-family: monospace;
      text-anchor: middle;
    }
    text.emphasis {
      font-weight:bold;
    }
    text.lanchor {
      text-anchor: start;
    }
  </style><rect height="2200" id="artboard" fill="white" width="3300" x="0" y="0"/><line id="" style="fill:none;stroke:black;stroke-width:0.5;" x1="263" x2="3036" y1="292" y2="292"/><text class="lanchor emphasis" transform="matrix(1 0 0 1 263 322)">Weight/Scale Variations</text><text transform="matrix(1 0 0 1 559.711 322)">Ultralight</text><text transform="matrix(1 0 0 1 856.422 322)">Thin</text><text transform="matrix(1 0 0 1 1153.13 322)">Light</text><text transform="matrix(1 0 0 1 1449.84 322)">Regular</text><text transform="matrix(1 0 0 1 1746.56 322)">Medium</text><text transform="matrix(1 0 0 1 2043.27 322)">Semibold</text><text transform="matrix(1 0 0 1 2339.98 322)">Bold</text><text transform="matrix(1 0 0 1 2636.69 322)">Heavy</text><text transform="matrix(1 0 0 1 2933.4 322)">Black</text><text id="template-version" style="text-anchor: end;" transform="matrix(1 0 0 1 3036 1933)">Template v.1.0</text><text class="lanchor" transform="matrix(1 0 0 1 263 726)">Small</text><text class="lanchor" transform="matrix(1 0 0 1 263 1156)">Medium</text><text class="lanchor" transform="matrix(1 0 0 1 263 1586)">Large</text></g><g id="Guides"><g id="H-reference" style="fill:#27AAE1;stroke:none;" transform="matrix(1 0 0 1 339 696)"><path d="M 54.9316 0 L 57.666 0 L 30.5664 -70.459 L 28.0762 -70.459 L 0.976562 0 L 3.66211 0 L 12.9395 -24.4629 L 45.7031 -24.4629 Z M 29.1992 -67.0898 L 29.4434 -67.0898 L 44.8242 -26.709 L 13.8184 -26.709 Z"/></g><line id="Baseline-S" style="fill:none;stroke:#27AAE1;opacity:1;stroke-width:0.577;" x1="263" x2="3036" y1="696" y2="696"/><line id="Capline-S" style="fill:none;stroke:#27AAE1;opacity:1;stroke-width:0.577;" x1="263" x2="3036" y1="625.541" y2="625.541"/><g id="H-reference" style="fill:#27AAE1;stroke:none;" transform="matrix(1 0 0 1 339 1126)"><path d="M 54.9316 0 L 57.666 0 L 30.5664 -70.459 L 28.0762 -70.459 L 0.976562 0 L 3.66211 0 L 12.9395 -24.4629 L 45.7031 -24.4629 Z M 29.1992 -67.0898 L 29.4434 -67.0898 L 44.8242 -26.709 L 13.8184 -26.709 Z"/></g><line id="Baseline-M" style="fill:none;stroke:#27AAE1;opacity:1;stroke-width:0.577;" x1="263" x2="3036" y1="1126" y2="1126"/><line id="Capline-M" style="fill:none;stroke:#27AAE1;opacity:1;stroke-width:0.577;" x1="263" x2="3036" y1="1055.54" y2="1055.54"/><g id="H-reference" style="fill:#27AAE1;stroke:none;" transform="matrix(1 0 0 1 339 1556)"><path d="M 54.9316 0 L 57.666 0 L 30.5664 -70.459 L 28.0762 -70.459 L 0.976562 0 L 3.66211 0 L 12.9395 -24.4629 L 45.7031 -24.4629 Z M 29.1992 -67.0898 L 29.4434 -67.0898 L 44.8242 -26.709 L 13.8184 -26.709 Z"/></g><line id="Baseline-L" style="fill:none;stroke:#27AAE1;opacity:1;stroke-width:0.577;" x1="263" x2="3036" y1="1556" y2="1556"/><line id="Capline-L" style="fill:none;stroke:#27AAE1;opacity:1;stroke-width:0.577;" x1="263" x2="3036" y1="1485.54" y2="1485.54"/><rect height="119.336" id="left-margin" style="fill:darkred;stroke:none;opacity:0.4;" width="12.4512" x="1394.06" y="1030.79"/><rect height="119.336" id="right-margin" style="fill:darkgreen;stroke:none;opacity:0.4;" width="12.4512" x="1502.5112" y="1030.79"/><rect x="1406.5112" y="1045" width="96" height="96" fill="none" stroke="blue" stroke-dasharray="5"/><rect x="1394.06" y="1030.79" width="120.9024" height="119.336" fill="none" stroke="blue"/></g><g id="Symbols"><g id="Bold-L" transform="matrix(1 0 0 1 2266 1556)"><path d="M48.6975 -34.74625 Q48.6975 -22.813749999999985 57.082499999999996 -14.428749999999994 Q65.4675 -6.043750000000003 77.4 -6.043750000000003 Q89.3325 -6.043750000000003 97.7175 -14.428749999999994 Q106.10249999999999 -22.813749999999985 106.10249999999999 -34.74625 Q106.10249999999999 -46.678749999999994 97.7175 -55.06374999999999 Q89.3325 -63.44875 77.4 -63.44875 Q65.4675 -63.44875 57.082499999999996 -55.06374999999999 Q48.6975 -46.678749999999994 48.6975 -34.74625 Z M77.4 8.46875 Q79.6575 8.46875 81.83437500000001 8.226875000000007 Q84.01125 7.984999999999999 86.1075 7.501250000000013 L69.3375 36.6875 Q42.2475 33.62375 23.865000000000002 13.386875000000018 Q5.4825 -6.8500000000000085 5.4825 -34.74625 Q5.4825 -42.32499999999999 6.93375 -49.339375 Q8.385 -56.35375 11.2875 -62.964999999999996 L40.15125 -13.299999999999997 Q45.795 -3.625 55.550625000000004 2.421875 Q65.30625 8.46875 77.4 8.46875 Z M77.4 -77.96124999999999 Q63.048750000000005 -77.96124999999999 51.841875 -69.57624999999999 Q40.635 -61.19125 36.4425 -48.129999999999995 L19.51125 -77.31625 Q29.508750000000003 -90.53875 44.505 -98.60125 Q59.50125 -106.66375 77.4 -106.66375 Q95.1375 -106.66375 110.05312500000001 -98.84312499999999 Q124.96875 -91.0225 134.805 -77.96124999999999 H77.4 Z M143.02875 -63.44875 Q146.0925 -56.67624999999999 147.70499999999998 -49.58124999999999 Q149.3175 -42.48625 149.3175 -34.74625 Q149.3175 -7.01124999999999 131.09625 13.14500000000001 Q112.875 33.30125000000001 85.94624999999999 36.526250000000005 L114.64874999999999 -13.299999999999997 Q117.39 -17.976249999999993 119.0025 -23.378124999999997 Q120.615 -28.779999999999987 120.615 -34.74625 Q120.615 -43.131249999999994 117.63187500000001 -50.38749999999999 Q114.64874999999999 -57.64374999999999 109.48875000000001 -63.44875 H143.02875 Z"/></g><g id="Semibold-L" transform="matrix(1 0 0 1 1970.27 1556)"><path d="M49.987500000000004 -34.74625 Q49.987500000000004 -23.2975 57.96937500000001 -15.315624999999997 Q65.95125 -7.333749999999995 77.4 -7.333749999999995 Q88.84875000000001 -7.333749999999995 96.830625 -15.315624999999997 Q104.8125 -23.2975 104.8125 -34.74625 Q104.8125 -46.19499999999999 96.830625 -54.176874999999995 Q88.84875000000001 -62.15874999999999 77.4 -62.15874999999999 Q65.95125 -62.15874999999999 57.96937500000001 -54.176874999999995 Q49.987500000000004 -46.19499999999999 49.987500000000004 -34.74625 Z M77.4 6.533750000000012 Q79.49625 6.533750000000012 81.5925 6.2918750000000045 Q83.68875 6.049999999999997 85.78500000000001 5.566249999999997 L69.66000000000001 33.462500000000006 Q43.86 30.560000000000002 26.28375 11.210000000000008 Q8.707500000000001 -8.14 8.707500000000001 -34.74625 Q8.707500000000001 -42.0025 10.078125 -48.694374999999994 Q11.44875 -55.38625 14.190000000000001 -61.67499999999999 L41.76375 -14.267499999999998 Q47.085 -4.914999999999992 56.518125 0.8093750000000028 Q65.95125 6.533750000000012 77.4 6.533750000000012 Z M77.4 -76.02625 Q63.69375 -76.02625 52.970625000000005 -68.044375 Q42.2475 -60.06249999999999 38.21625 -47.646249999999995 L22.09125 -75.38125 Q31.605000000000004 -88.12 45.956250000000004 -95.77937499999999 Q60.3075 -103.43875 77.4 -103.43875 Q94.33125 -103.43875 108.60187499999999 -95.940625 Q122.8725 -88.4425 132.225 -76.02625 H77.4 Z M140.12625 -62.15874999999999 Q143.02875 -55.70875 144.56062500000002 -48.936249999999994 Q146.0925 -42.16374999999999 146.0925 -34.74625 Q146.0925 -8.14 128.6775 11.048750000000013 Q111.2625 30.23750000000001 85.62375 33.30125000000001 L113.03625 -14.267499999999998 Q115.61625000000001 -18.621250000000003 117.14812500000001 -23.861874999999998 Q118.67999999999999 -29.102499999999992 118.67999999999999 -34.74625 Q118.67999999999999 -42.80875 115.85812499999999 -49.74249999999999 Q113.03625 -56.67624999999999 108.03750000000001 -62.15874999999999 H140.12625 Z"/></g><g id="Medium-L" transform="matrix(1 0 0 1 1674.31 1556)"><path d="M50.955000000000005 -34.74625 Q50.955000000000005 -23.781249999999986 58.695 -16.04124999999999 Q66.435 -8.301249999999982 77.4 -8.301249999999982 Q88.365 -8.301249999999982 96.105 -16.04124999999999 Q103.84500000000001 -23.781249999999986 103.84500000000001 -34.74625 Q103.84500000000001 -45.71124999999999 96.105 -53.45124999999999 Q88.365 -61.19125 77.4 -61.19125 Q66.435 -61.19125 58.695 -53.45124999999999 Q50.955000000000005 -45.71124999999999 50.955000000000005 -34.74625 Z M77.4 5.08250000000001 Q79.49625 5.08250000000001 81.511875 4.840625000000003 Q83.5275 4.59875000000001 85.4625 4.115000000000023 L69.9825 31.04374999999999 Q44.988749999999996 28.30250000000001 28.057499999999997 9.597499999999997 Q11.12625 -9.107499999999987 11.12625 -34.74625 Q11.12625 -41.67999999999999 12.41625 -48.21062499999999 Q13.70625 -54.741249999999994 16.447499999999998 -60.70749999999999 L43.05375 -14.912499999999994 Q48.0525 -5.882499999999993 57.16312500000001 -0.4000000000000057 Q66.27375 5.08250000000001 77.4 5.08250000000001 Z M77.4 -74.57499999999999 Q64.1775 -74.57499999999999 53.8575 -66.835 Q43.5375 -59.09499999999999 39.667500000000004 -47.162499999999994 L24.02625 -73.92999999999999 Q33.2175 -86.185 47.004374999999996 -93.60249999999999 Q60.791250000000005 -101.02 77.4 -101.02 Q93.84750000000001 -101.02 107.55375000000001 -93.844375 Q121.26 -86.66874999999999 130.45125000000002 -74.57499999999999 H77.4 Z M138.03 -61.19125 Q140.77125 -55.06374999999999 142.2225 -48.4525 Q143.67374999999998 -41.84125 143.67374999999998 -34.74625 Q143.67374999999998 -9.107499999999987 126.90375 9.436250000000015 Q110.13374999999999 27.980000000000018 85.30125 31.04374999999999 L111.90750000000001 -14.912499999999994 Q114.32625000000002 -19.26625 115.7775 -24.265 Q117.22875 -29.263749999999987 117.22875 -34.74625 Q117.22875 -42.48625 114.4875 -49.178124999999994 Q111.74625 -55.86999999999999 106.90875 -61.19125 H138.03 Z"/></g><g id="Regular-L" transform="matrix(1 0 0 1 1378.56 1556)"><path d="M51.6 -34.74625 Q51.6 -24.10374999999999 59.17875000000001 -16.52499999999999 Q66.7575 -8.946249999999992 77.4 -8.946249999999992 Q88.0425 -8.946249999999992 95.62125 -16.52499999999999 Q103.2 -24.10374999999999 103.2 -34.74625 Q103.2 -45.38874999999999 95.62125 -52.967499999999994 Q88.0425 -60.54625 77.4 -60.54625 Q66.7575 -60.54625 59.17875000000001 -52.967499999999994 Q51.6 -45.38874999999999 51.6 -34.74625 Z M77.4 3.9537499999999994 Q79.49625 3.9537499999999994 81.43125 3.792500000000018 Q83.36625000000001 3.6312499999999943 85.30125 3.147500000000008 L70.14375 29.27000000000001 Q45.795 26.528750000000002 29.3475 8.388125000000002 Q12.9 -9.752499999999998 12.9 -34.74625 Q12.9 -41.51875 14.190000000000001 -47.888125 Q15.48 -54.257499999999986 18.06 -60.06249999999999 L43.86 -15.396249999999995 Q48.85875 -6.688749999999985 57.7275 -1.3674999999999926 Q66.59625 3.9537499999999994 77.4 3.9537499999999994 Z M77.4 -73.44624999999999 Q64.5 -73.44624999999999 54.5025 -65.948125 Q44.505 -58.44999999999999 40.635 -46.84 L25.477500000000003 -72.96249999999999 Q34.346250000000005 -84.895 47.810625 -92.07062499999999 Q61.275 -99.24624999999999 77.4 -99.24624999999999 Q93.36375 -99.24624999999999 106.7475 -92.231875 Q120.13125000000001 -85.2175 129.0 -73.44624999999999 H77.4 Z M136.4175 -60.54625 Q139.15875 -54.57999999999999 140.52937500000002 -48.129999999999995 Q141.9 -41.67999999999999 141.9 -34.74625 Q141.9 -9.752499999999998 125.533125 8.307500000000005 Q109.16625 26.367500000000007 85.14 29.27000000000001 L110.94 -15.396249999999995 Q113.35875 -19.58874999999999 114.72937500000002 -24.506874999999994 Q116.10000000000001 -29.424999999999997 116.10000000000001 -34.74625 Q116.10000000000001 -42.32499999999999 113.439375 -48.855624999999996 Q110.77875 -55.38625 106.10249999999999 -60.54625 H136.4175 Z"/></g><g id="Light-L" transform="matrix(1 0 0 1 1082.77 1556)"><path d="M53.535000000000004 -34.74625 Q53.535000000000004 -24.909999999999997 60.549375 -17.895624999999995 Q67.56375 -10.881249999999994 77.4 -10.881249999999994 Q87.23625 -10.881249999999994 94.25062500000001 -17.895624999999995 Q101.265 -24.909999999999997 101.265 -34.74625 Q101.265 -44.582499999999996 94.25062500000001 -51.59687499999999 Q87.23625 -58.61124999999999 77.4 -58.61124999999999 Q67.56375 -58.61124999999999 60.549375 -51.59687499999999 Q53.535000000000004 -44.582499999999996 53.535000000000004 -34.74625 Z M77.4 1.0512500000000102 Q79.33500000000001 1.0512500000000102 81.10875 0.8093750000000028 Q82.8825 0.5675000000000097 84.65625 0.24500000000000455 L70.6275 24.27125000000001 Q48.21375 21.691249999999997 33.05625 5.0018750000000125 Q17.89875 -11.687499999999986 17.89875 -34.74625 Q17.89875 -41.035 19.108125 -46.92062499999999 Q20.3175 -52.80624999999999 22.575 -58.1275 L46.440000000000005 -16.847499999999997 Q51.11625 -8.784999999999982 59.259375 -3.866874999999993 Q67.4025 1.0512500000000102 77.4 1.0512500000000102 Z M77.4 -70.54374999999999 Q65.4675 -70.54374999999999 56.27625 -63.61 Q47.085 -56.67624999999999 43.5375 -45.8725 L29.508750000000003 -70.06 Q37.7325 -81.18625 50.14875000000001 -87.71687499999999 Q62.565 -94.2475 77.4 -94.2475 Q92.07375 -94.2475 104.409375 -87.7975 Q116.74500000000002 -81.3475 124.96875 -70.54374999999999 H77.4 Z M131.9025 -58.61124999999999 Q134.32125 -53.12875 135.61124999999998 -47.162499999999994 Q136.90125 -41.19624999999999 136.90125 -34.74625 Q136.90125 -11.687499999999986 121.824375 5.0018750000000125 Q106.7475 21.691249999999997 84.495 24.27125000000001 L108.36000000000001 -16.847499999999997 Q110.61749999999999 -20.717499999999987 111.90750000000001 -25.313125 Q113.1975 -29.908749999999998 113.1975 -34.74625 Q113.1975 -41.67999999999999 110.69812500000002 -47.72687499999999 Q108.19874999999999 -53.77374999999999 104.00625000000001 -58.61124999999999 H131.9025 Z"/></g><g id="Thin-L" transform="matrix(1 0 0 1 787.282 1556)"><path d="M55.63125 -34.74625 Q55.63125 -25.554999999999993 61.92 -19.26625 Q68.20875 -12.977499999999992 77.4 -12.977499999999992 Q86.59125 -12.977499999999992 92.88000000000001 -19.26625 Q99.16875 -25.554999999999993 99.16875 -34.74625 Q99.16875 -43.937499999999986 92.88000000000001 -50.226249999999986 Q86.59125 -56.515 77.4 -56.515 Q68.20875 -56.515 61.92 -50.226249999999986 Q55.63125 -43.937499999999986 55.63125 -34.74625 Z M77.4 -2.012500000000003 Q79.17375 -2.012500000000003 80.866875 -2.254374999999982 Q82.56 -2.4962500000000034 84.01125 -2.8187500000000085 L71.27250000000001 19.272500000000008 Q50.6325 17.015000000000015 36.765 1.7768750000000182 Q22.8975 -13.461249999999993 22.8975 -34.74625 Q22.8975 -40.39 23.945625 -45.8725 Q24.993750000000002 -51.355 27.25125 -56.192499999999995 L49.019999999999996 -18.459999999999994 Q53.2125 -11.04249999999999 60.710625 -6.527500000000003 Q68.20875 -2.012500000000003 77.4 -2.012500000000003 Z M77.4 -67.47999999999999 Q66.59625 -67.47999999999999 58.130624999999995 -61.11062499999999 Q49.665 -54.741249999999994 46.27875 -44.90499999999999 L33.54 -67.1575 Q41.11875 -77.31625 52.486875 -83.2825 Q63.855000000000004 -89.24875 77.4 -89.24875 Q90.945 -89.24875 102.151875 -83.363125 Q113.35875 -77.47749999999999 121.09875 -67.47999999999999 H77.4 Z M127.3875 -56.515 Q129.645 -51.677499999999995 130.77375 -46.114374999999995 Q131.9025 -40.55124999999998 131.9025 -34.74625 Q131.9025 -13.622499999999988 118.11562500000001 1.6962500000000205 Q104.32875000000001 17.015000000000015 83.85000000000001 19.272500000000008 L105.77999999999999 -18.459999999999994 Q107.87625000000001 -22.007499999999993 109.005 -26.11937499999999 Q110.13374999999999 -30.23124999999999 110.13374999999999 -34.74625 Q110.13374999999999 -41.19624999999999 107.87625000000001 -46.678749999999994 Q105.61875 -52.161249999999995 101.74875 -56.515 H127.3875 Z"/></g><g id="Ultralight-L" transform="matrix(1 0 0 1 491.205 1556)"><path d="M56.760000000000005 -34.74625 Q56.760000000000005 -26.038749999999993 62.72625 -20.07249999999999 Q68.69250000000001 -14.106249999999989 77.4 -14.106249999999989 Q86.1075 -14.106249999999989 92.07375 -20.07249999999999 Q98.03999999999999 -26.038749999999993 98.03999999999999 -34.74625 Q98.03999999999999 -43.45375 92.07375 -49.41999999999999 Q86.1075 -55.38625 77.4 -55.38625 Q68.69250000000001 -55.38625 62.72625 -49.41999999999999 Q56.760000000000005 -43.45375 56.760000000000005 -34.74625 Z M77.4 -3.7862499999999955 Q79.0125 -3.7862499999999955 80.625 -4.028125000000003 Q82.2375 -4.269999999999982 83.68875 -4.592499999999987 L71.595 16.370000000000005 Q52.083749999999995 14.112499999999997 38.941874999999996 -0.2387499999999818 Q25.8 -14.590000000000003 25.8 -34.74625 Q25.8 -40.067499999999995 26.848125 -45.22749999999999 Q27.896250000000002 -50.38749999999999 29.992500000000003 -55.06374999999999 L50.6325 -19.26625 Q54.66375 -12.332499999999982 61.678125 -8.059375000000003 Q68.69250000000001 -3.7862499999999955 77.4 -3.7862499999999955 Z M77.4 -65.70624999999998 Q67.08 -65.70624999999998 59.098124999999996 -59.74 Q51.11625 -53.77374999999999 48.0525 -44.42125 L35.95875 -65.38374999999999 Q43.05375 -75.05875 53.776875000000004 -80.70249999999999 Q64.5 -86.34625 77.4 -86.34625 Q90.13875 -86.34625 100.78125 -80.70249999999999 Q111.42375 -75.05875 118.67999999999999 -65.70624999999998 H77.4 Z M124.64625 -55.38625 Q126.74249999999999 -50.709999999999994 127.87125 -45.469375 Q129.0 -40.22874999999999 129.0 -34.74625 Q129.0 -14.751249999999985 115.93875000000001 -0.31937499999997954 Q102.8775 14.112499999999997 83.5275 16.370000000000005 L104.16749999999999 -19.26625 Q106.10249999999999 -22.652500000000003 107.23125 -26.60312499999999 Q108.36000000000001 -30.553749999999994 108.36000000000001 -34.74625 Q108.36000000000001 -40.71249999999999 106.26375000000002 -45.953124999999986 Q104.16749999999999 -51.193749999999994 100.45875 -55.38625 H124.64625 Z"/></g><g id="Bold-M" transform="matrix(1 0 0 1 2281.8 1126)"><path d="M37.0 -34.85499999999999 Q37.0 -25.22999999999999 43.69 -18.539999999999992 Q50.375 -11.85499999999999 60.0 -11.85499999999999 Q69.625 -11.85499999999999 76.315 -18.539999999999992 Q83.0 -25.22999999999999 83.0 -34.85499999999999 Q83.0 -44.47999999999999 76.315 -51.169999999999995 Q69.625 -57.85499999999999 60.0 -57.85499999999999 Q50.375 -57.85499999999999 43.69 -51.169999999999995 Q37.0 -44.47999999999999 37.0 -34.85499999999999 Z M60.0 -0.22999999999998977 Q61.75 -0.22999999999998977 63.5 -0.4199999999999875 Q65.25 -0.6049999999999898 67.0 -0.9799999999999898 L53.5 22.39500000000001 Q31.75 20.02000000000001 17.064999999999998 3.7700000000000102 Q2.375 -12.47999999999999 2.375 -34.85499999999999 Q2.375 -40.85499999999999 3.565 -46.53999999999999 Q4.75 -52.22999999999999 7.0 -57.47999999999999 L30.125 -17.60499999999999 Q34.625 -9.85499999999999 42.5 -5.039999999999992 Q50.375 -0.22999999999998977 60.0 -0.22999999999998977 Z M60.0 -69.47999999999999 Q48.375 -69.47999999999999 39.44 -62.79499999999999 Q30.5 -56.10499999999999 27.125 -45.60499999999999 L13.625 -68.97999999999999 Q21.5 -79.60499999999999 33.565 -86.04499999999999 Q45.625 -92.47999999999999 60.0 -92.47999999999999 Q74.25 -92.47999999999999 86.19 -86.29499999999999 Q98.125 -80.10499999999999 106.0 -69.47999999999999 H60.0 Z M112.75 -57.85499999999999 Q115.125 -52.47999999999999 116.375 -46.72999999999999 Q117.625 -40.97999999999999 117.625 -34.85499999999999 Q117.625 -12.60499999999999 103.065 3.5800000000000125 Q88.5 19.77000000000001 66.875 22.27000000000001 L89.875 -17.60499999999999 Q92.0 -21.47999999999999 93.315 -25.794999999999987 Q94.625 -30.10499999999999 94.625 -34.85499999999999 Q94.625 -41.60499999999999 92.25 -47.419999999999995 Q89.875 -53.22999999999999 85.75 -57.85499999999999 H112.75 Z"/></g><g id="Semibold-M" transform="matrix(1 0 0 1 1985.97 1126)"><path d="M38.25 -34.85499999999999 Q38.25 -25.85499999999999 44.625 -19.47999999999999 Q51.0 -13.10499999999999 60.0 -13.10499999999999 Q69.0 -13.10499999999999 75.375 -19.47999999999999 Q81.75 -25.85499999999999 81.75 -34.85499999999999 Q81.75 -43.85499999999999 75.375 -50.22999999999999 Q69.0 -56.60499999999999 60.0 -56.60499999999999 Q51.0 -56.60499999999999 44.625 -50.22999999999999 Q38.25 -43.85499999999999 38.25 -34.85499999999999 Z M60.0 -2.2299999999999898 Q61.75 -2.2299999999999898 63.375 -2.4199999999999875 Q65.0 -2.6049999999999898 66.625 -2.9799999999999898 L53.875 19.02000000000001 Q33.375 16.77000000000001 19.564999999999998 1.5200000000000102 Q5.75 -13.72999999999999 5.75 -34.85499999999999 Q5.75 -40.47999999999999 6.8149999999999995 -45.85499999999999 Q7.875 -51.22999999999999 10.0 -56.22999999999999 L31.875 -18.60499999999999 Q36.0 -11.22999999999999 43.440000000000005 -6.72999999999999 Q50.875 -2.2299999999999898 60.0 -2.2299999999999898 Z M60.0 -67.47999999999999 Q49.125 -67.47999999999999 40.69 -61.16999999999999 Q32.25 -54.85499999999999 29.0 -44.97999999999999 L16.25 -66.97999999999999 Q23.75 -77.10499999999999 35.065 -83.10499999999999 Q46.375 -89.10499999999999 60.0 -89.10499999999999 Q73.375 -89.10499999999999 84.69 -83.29499999999999 Q96.0 -77.47999999999999 103.375 -67.47999999999999 H60.0 Z M109.625 -56.60499999999999 Q112.0 -51.47999999999999 113.125 -46.10499999999999 Q114.25 -40.72999999999999 114.25 -34.85499999999999 Q114.25 -13.85499999999999 100.565 1.3950000000000102 Q86.875 16.64500000000001 66.5 19.02000000000001 L88.25 -18.60499999999999 Q90.25 -22.22999999999999 91.44 -26.294999999999987 Q92.625 -30.35499999999999 92.625 -34.85499999999999 Q92.625 -41.22999999999999 90.375 -46.72999999999999 Q88.125 -52.22999999999999 84.25 -56.60499999999999 H109.625 Z"/></g><g id="Medium-M" transform="matrix(1 0 0 1 1689.91 1126)"><path d="M39.25 -34.85499999999999 Q39.25 -26.22999999999999 45.309999999999995 -20.169999999999987 Q51.375 -14.10499999999999 60.0 -14.10499999999999 Q68.625 -14.10499999999999 74.69 -20.169999999999987 Q80.75 -26.22999999999999 80.75 -34.85499999999999 Q80.75 -43.47999999999999 74.69 -49.54499999999999 Q68.625 -55.60499999999999 60.0 -55.60499999999999 Q51.375 -55.60499999999999 45.309999999999995 -49.54499999999999 Q39.25 -43.47999999999999 39.25 -34.85499999999999 Z M60.0 -3.7299999999999898 Q61.625 -3.7299999999999898 63.19 -3.8549999999999898 Q64.75 -3.9799999999999898 66.375 -4.35499999999999 L54.125 16.64500000000001 Q34.625 14.39500000000001 21.375 -0.16499999999997783 Q8.125 -14.72999999999999 8.125 -34.85499999999999 Q8.125 -40.22999999999999 9.190000000000001 -45.35499999999999 Q10.25 -50.47999999999999 12.375 -55.22999999999999 L33.125 -19.35499999999999 Q37.125 -12.35499999999999 44.25 -8.039999999999992 Q51.375 -3.7299999999999898 60.0 -3.7299999999999898 Z M60.0 -65.97999999999999 Q49.625 -65.97999999999999 41.559999999999995 -59.97999999999999 Q33.5 -53.97999999999999 30.5 -44.60499999999999 L18.25 -65.60499999999999 Q25.375 -75.10499999999999 36.190000000000005 -80.91999999999999 Q47.0 -86.72999999999999 60.0 -86.72999999999999 Q72.875 -86.72999999999999 83.625 -81.10499999999999 Q94.375 -75.47999999999999 101.375 -65.97999999999999 H60.0 Z M107.375 -55.60499999999999 Q109.625 -50.72999999999999 110.75 -45.539999999999985 Q111.875 -40.35499999999999 111.875 -34.85499999999999 Q111.875 -14.72999999999999 98.69 -0.22999999999998977 Q85.5 14.27000000000001 66.25 16.52000000000001 L86.875 -19.35499999999999 Q88.875 -22.72999999999999 90.0 -26.669999999999987 Q91.125 -30.60499999999999 91.125 -34.85499999999999 Q91.125 -40.97999999999999 89.0 -46.22999999999999 Q86.875 -51.47999999999999 83.125 -55.60499999999999 H107.375 Z"/></g><g id="Regular-M" transform="matrix(1 0 0 1 1394.06 1126)"><path d="M40.0 -34.85499999999999 Q40.0 -26.60499999999999 45.875 -20.72999999999999 Q51.75 -14.85499999999999 60.0 -14.85499999999999 Q68.25 -14.85499999999999 74.125 -20.72999999999999 Q80.0 -26.60499999999999 80.0 -34.85499999999999 Q80.0 -43.10499999999999 74.125 -48.97999999999999 Q68.25 -54.85499999999999 60.0 -54.85499999999999 Q51.75 -54.85499999999999 45.875 -48.97999999999999 Q40.0 -43.10499999999999 40.0 -34.85499999999999 Z M60.0 -4.85499999999999 Q61.625 -4.85499999999999 63.125 -4.97999999999999 Q64.625 -5.10499999999999 66.125 -5.47999999999999 L54.375 14.77000000000001 Q35.5 12.64500000000001 22.75 -1.4199999999999875 Q10.0 -15.47999999999999 10.0 -34.85499999999999 Q10.0 -40.10499999999999 11.0 -45.04499999999999 Q12.0 -49.97999999999999 14.0 -54.47999999999999 L34.0 -19.85499999999999 Q37.875 -13.10499999999999 44.75 -8.97999999999999 Q51.625 -4.85499999999999 60.0 -4.85499999999999 Z M60.0 -64.85499999999999 Q50.0 -64.85499999999999 42.25 -59.04499999999999 Q34.5 -53.22999999999999 31.5 -44.22999999999999 L19.75 -64.47999999999999 Q26.625 -73.72999999999999 37.06 -79.29499999999999 Q47.5 -84.85499999999999 60.0 -84.85499999999999 Q72.375 -84.85499999999999 82.75 -79.41999999999999 Q93.125 -73.97999999999999 100.0 -64.85499999999999 H60.0 Z M105.75 -54.85499999999999 Q107.875 -50.22999999999999 108.94 -45.22999999999999 Q110.0 -40.22999999999999 110.0 -34.85499999999999 Q110.0 -15.47999999999999 97.31 -1.4799999999999898 Q84.625 12.52000000000001 66.0 14.77000000000001 L86.0 -19.85499999999999 Q87.875 -23.10499999999999 88.94 -26.919999999999987 Q90.0 -30.72999999999999 90.0 -34.85499999999999 Q90.0 -40.72999999999999 87.935 -45.79499999999999 Q85.875 -50.85499999999999 82.25 -54.85499999999999 H105.75 Z"/></g><g id="Light-M" transform="matrix(1 0 0 1 1098.18 1126)"><path d="M41.5 -34.85499999999999 Q41.5 -27.22999999999999 46.94 -21.789999999999992 Q52.375 -16.35499999999999 60.0 -16.35499999999999 Q67.625 -16.35499999999999 73.065 -21.789999999999992 Q78.5 -27.22999999999999 78.5 -34.85499999999999 Q78.5 -42.47999999999999 73.065 -47.91999999999999 Q67.625 -53.35499999999999 60.0 -53.35499999999999 Q52.375 -53.35499999999999 46.94 -47.91999999999999 Q41.5 -42.47999999999999 41.5 -34.85499999999999 Z M60.0 -7.10499999999999 Q61.5 -7.10499999999999 62.875 -7.2949999999999875 Q64.25 -7.47999999999999 65.625 -7.72999999999999 L54.75 10.89500000000001 Q37.375 8.89500000000001 25.625 -4.039999999999992 Q13.875 -16.97999999999999 13.875 -34.85499999999999 Q13.875 -39.72999999999999 14.815000000000001 -44.289999999999985 Q15.75 -48.85499999999999 17.5 -52.97999999999999 L36.0 -20.97999999999999 Q39.625 -14.72999999999999 45.940000000000005 -10.914999999999992 Q52.25 -7.10499999999999 60.0 -7.10499999999999 Z M60.0 -62.60499999999999 Q50.75 -62.60499999999999 43.625 -57.22999999999999 Q36.5 -51.85499999999999 33.75 -43.47999999999999 L22.875 -62.22999999999999 Q29.25 -70.85499999999999 38.875 -75.91999999999999 Q48.5 -80.97999999999999 60.0 -80.97999999999999 Q71.375 -80.97999999999999 80.94 -75.97999999999999 Q90.5 -70.97999999999999 96.875 -62.60499999999999 H60.0 Z M102.25 -53.35499999999999 Q104.125 -49.10499999999999 105.125 -44.47999999999999 Q106.125 -39.85499999999999 106.125 -34.85499999999999 Q106.125 -16.97999999999999 94.44000000000001 -4.039999999999992 Q82.75 8.89500000000001 65.5 10.89500000000001 L84.0 -20.97999999999999 Q85.75 -23.97999999999999 86.75 -27.544999999999987 Q87.75 -31.10499999999999 87.75 -34.85499999999999 Q87.75 -40.22999999999999 85.815 -44.919999999999995 Q83.875 -49.60499999999999 80.625 -53.35499999999999 H102.25 Z"/></g><g id="Thin-M" transform="matrix(1 0 0 1 802.565 1126)"><path d="M43.125 -34.85499999999999 Q43.125 -27.72999999999999 48.0 -22.85499999999999 Q52.875 -17.97999999999999 60.0 -17.97999999999999 Q67.125 -17.97999999999999 72.0 -22.85499999999999 Q76.875 -27.72999999999999 76.875 -34.85499999999999 Q76.875 -41.97999999999999 72.0 -46.85499999999999 Q67.125 -51.72999999999999 60.0 -51.72999999999999 Q52.875 -51.72999999999999 48.0 -46.85499999999999 Q43.125 -41.97999999999999 43.125 -34.85499999999999 Z M60.0 -9.47999999999999 Q61.375 -9.47999999999999 62.69 -9.670000000000002 Q64.0 -9.85499999999999 65.125 -10.10499999999999 L55.25 7.02000000000001 Q39.25 5.27000000000001 28.5 -6.539999999999992 Q17.75 -18.35499999999999 17.75 -34.85499999999999 Q17.75 -39.22999999999999 18.565 -43.47999999999999 Q19.375 -47.72999999999999 21.125 -51.47999999999999 L38.0 -22.22999999999999 Q41.25 -16.47999999999999 47.065 -12.97999999999999 Q52.875 -9.47999999999999 60.0 -9.47999999999999 Z M60.0 -60.22999999999999 Q51.625 -60.22999999999999 45.065 -55.29499999999999 Q38.5 -50.35499999999999 35.875 -42.72999999999999 L26.0 -59.97999999999999 Q31.875 -67.85499999999999 40.685 -72.47999999999999 Q49.5 -77.10499999999999 60.0 -77.10499999999999 Q70.5 -77.10499999999999 79.19 -72.54499999999999 Q87.875 -67.97999999999999 93.875 -60.22999999999999 H60.0 Z M98.75 -51.72999999999999 Q100.5 -47.97999999999999 101.375 -43.669999999999995 Q102.25 -39.35499999999999 102.25 -34.85499999999999 Q102.25 -18.47999999999999 91.56 -6.60499999999999 Q80.875 5.27000000000001 65.0 7.02000000000001 L82.0 -22.22999999999999 Q83.625 -24.97999999999999 84.5 -28.169999999999987 Q85.375 -31.35499999999999 85.375 -34.85499999999999 Q85.375 -39.85499999999999 83.625 -44.10499999999999 Q81.875 -48.35499999999999 78.875 -51.72999999999999 H98.75 Z"/></g><g id="Ultralight-M" transform="matrix(1 0 0 1 506.415 1126)"><path d="M44.0 -34.85499999999999 Q44.0 -28.10499999999999 48.625 -23.47999999999999 Q53.25 -18.85499999999999 60.0 -18.85499999999999 Q66.75 -18.85499999999999 71.375 -23.47999999999999 Q76.0 -28.10499999999999 76.0 -34.85499999999999 Q76.0 -41.60499999999999 71.375 -46.22999999999999 Q66.75 -50.85499999999999 60.0 -50.85499999999999 Q53.25 -50.85499999999999 48.625 -46.22999999999999 Q44.0 -41.60499999999999 44.0 -34.85499999999999 Z M60.0 -10.85499999999999 Q61.25 -10.85499999999999 62.5 -11.044999999999987 Q63.75 -11.22999999999999 64.875 -11.47999999999999 L55.5 4.77000000000001 Q40.375 3.0200000000000102 30.19 -8.10499999999999 Q20.0 -19.22999999999999 20.0 -34.85499999999999 Q20.0 -38.97999999999999 20.81 -42.97999999999999 Q21.625 -46.97999999999999 23.25 -50.60499999999999 L39.25 -22.85499999999999 Q42.375 -17.47999999999999 47.809999999999995 -14.169999999999987 Q53.25 -10.85499999999999 60.0 -10.85499999999999 Z M60.0 -58.85499999999999 Q52.0 -58.85499999999999 45.815 -54.22999999999999 Q39.625 -49.60499999999999 37.25 -42.35499999999999 L27.875 -58.60499999999999 Q33.375 -66.10499999999999 41.69 -70.47999999999999 Q50.0 -74.85499999999999 60.0 -74.85499999999999 Q69.875 -74.85499999999999 78.125 -70.47999999999999 Q86.375 -66.10499999999999 92.0 -58.85499999999999 H60.0 Z M96.625 -50.85499999999999 Q98.25 -47.22999999999999 99.125 -43.16999999999999 Q100.0 -39.10499999999999 100.0 -34.85499999999999 Q100.0 -19.35499999999999 89.875 -8.169999999999987 Q79.75 3.0200000000000102 64.75 4.77000000000001 L80.75 -22.85499999999999 Q82.25 -25.47999999999999 83.125 -28.544999999999987 Q84.0 -31.60499999999999 84.0 -34.85499999999999 Q84.0 -39.47999999999999 82.375 -43.54499999999999 Q80.75 -47.60499999999999 77.875 -50.85499999999999 H96.625 Z"/></g><g id="Bold-S" transform="matrix(1 0 0 1 2294.23 696)"><path d="M30.771 -35.13058599999999 Q30.771 -28.12899999999999 35.55234 -23.347659999999998 Q40.338414 -18.56158599999999 47.34 -18.56158599999999 Q54.341586 -18.56158599999999 59.12766 -23.347659999999998 Q63.909 -28.12899999999999 63.909 -35.13058599999999 Q63.909 -42.132172 59.12766 -46.918245999999996 Q54.341586 -51.699586 47.34 -51.699586 Q40.338414 -51.699586 35.55234 -46.918245999999996 Q30.771 -42.132172 30.771 -35.13058599999999 Z M47.34 -10.177672000000001 Q48.5235 -10.177672000000001 49.853754 -10.277085999999983 Q51.184008 -10.376499999999993 52.466922000000004 -10.670007999999996 L41.4225 8.360671999999994 Q24.952914 6.585421999999994 14.202 -5.888667999999996 Q3.451086 -18.367492 3.451086 -35.13058599999999 Q3.451086 -39.96399999999999 4.535172 -44.650659999999995 Q5.623991999999999 -49.33258599999999 7.69275 -53.872491999999994 L25.937586 -22.70383599999999 Q29.194578 -16.885749999999987 34.91325 -13.534077999999994 Q40.631922 -10.177672000000001 47.34 -10.177672000000001 Z M47.34 -60.083499999999994 Q39.0555 -60.083499999999994 32.645664 -55.250085999999996 Q26.235827999999998 -50.41667199999999 23.769414 -42.723921999999995 L12.724992 -61.958164 Q18.737172 -70.043836 27.859589999999997 -74.531668 Q36.982008 -79.0195 47.34 -79.0195 Q58.190328 -79.0195 67.705668 -73.991992 Q77.22100800000001 -68.95974999999999 83.337336 -60.083499999999994 H47.34 Z M87.97192199999999 -51.699586 Q89.652492 -47.656749999999995 90.43833599999999 -43.51449999999999 Q91.228914 -39.372249999999994 91.228914 -35.13058599999999 Q91.228914 -17.576914000000002 79.88625 -5.443671999999992 Q68.54358599999999 6.684836000000004 50.8905 8.5595 L68.742414 -22.70383599999999 Q70.31883599999999 -25.66258599999999 71.303508 -28.720749999999995 Q72.29291400000001 -31.778914 72.29291400000001 -35.13058599999999 Q72.29291400000001 -39.76517199999999 70.565004 -44.00683599999999 Q68.84182799999999 -48.24849999999999 65.883078 -51.699586 H87.97192199999999 Z"/></g><g id="Semibold-S" transform="matrix(1 0 0 1 1998.1 696)"><path d="M31.755672 -35.13058599999999 Q31.755672 -28.621335999999992 36.295578 -24.086163999999997 Q40.83075 -19.550991999999994 47.34 -19.550991999999994 Q53.84925 -19.550991999999994 58.384422 -24.086163999999997 Q62.924327999999996 -28.621335999999992 62.924327999999996 -35.13058599999999 Q62.924327999999996 -41.63983599999999 58.384422 -46.17500799999999 Q53.84925 -50.71491399999999 47.34 -50.71491399999999 Q40.83075 -50.71491399999999 36.295578 -46.17500799999999 Q31.755672 -41.63983599999999 31.755672 -35.13058599999999 Z M47.34 -11.758827999999994 Q48.5235 -11.758827999999994 49.75434 -11.85350799999999 Q50.989914000000006 -11.952922000000001 52.173414 -12.251164000000003 L41.716007999999995 5.700164000000015 Q26.235827999999998 4.024328000000011 16.176078 -7.663917999999995 Q6.116328 -19.352163999999995 6.116328 -35.13058599999999 Q6.116328 -39.670491999999996 7.101 -44.106249999999996 Q8.085672 -48.542007999999996 10.05975 -52.88308599999999 L27.319914 -23.494414 Q30.278664 -17.969835999999987 35.651754 -14.86433199999999 Q41.029578 -11.758827999999994 47.34 -11.758827999999994 Z M47.34 -58.50707799999999 Q39.64725 -58.50707799999999 33.630336 -53.96717199999999 Q27.613422 -49.431999999999995 25.246422 -42.23158599999999 L14.79375 -60.37700799999999 Q20.512422 -68.07449199999999 29.04309 -72.212008 Q37.578492 -76.35899199999999 47.34 -76.35899199999999 Q57.499164 -76.35899199999999 66.522168 -71.62499199999999 Q75.545172 -66.890992 81.268578 -58.50707799999999 H47.34 Z M85.505508 -50.71491399999999 Q87.18607800000001 -46.86617199999999 87.87250800000001 -43.022164 Q88.563672 -39.173421999999995 88.563672 -35.13058599999999 Q88.563672 -18.56158599999999 77.912172 -7.171582000000001 Q67.260672 4.218422000000004 50.596992 5.993672000000004 L67.4595 -23.494414 Q68.936508 -26.254335999999988 69.8265 -29.113671999999994 Q70.716492 -31.973007999999993 70.716492 -35.13058599999999 Q70.716492 -39.471664 69.087996 -43.46715999999999 Q67.4595 -47.457921999999996 64.699578 -50.71491399999999 H85.505508 Z"/></g><g id="Medium-S" transform="matrix(1 0 0 1 1701.85 696)"><path d="M32.54625 -35.13058599999999 Q32.54625 -28.919577999999994 36.835254 -24.62583999999999 Q41.128992000000004 -20.33683599999999 47.34 -20.33683599999999 Q53.551007999999996 -20.33683599999999 57.844745999999994 -24.62583999999999 Q62.13375 -28.919577999999994 62.13375 -35.13058599999999 Q62.13375 -41.34632799999999 57.844745999999994 -45.635332 Q53.551007999999996 -49.924336 47.34 -49.924336 Q41.128992000000004 -49.924336 36.835254 -45.635332 Q32.54625 -41.34632799999999 32.54625 -35.13058599999999 Z M47.34 -12.94232799999999 Q48.424085999999996 -12.94232799999999 49.607586 -12.989667999999995 Q50.79108599999999 -13.037007999999986 51.974585999999995 -13.335249999999988 L41.914835999999994 3.8255000000000052 Q27.2205 2.1496640000000156 17.605746 -8.994171999999992 Q7.990991999999999 -20.138007999999992 7.990991999999999 -35.13058599999999 Q7.990991999999999 -39.471664 8.975664 -43.71332799999999 Q9.960336 -47.95499199999999 11.934414 -52.092507999999995 L28.304586 -24.086163999999997 Q31.163922 -18.859827999999993 36.295578 -15.901077999999998 Q41.4225 -12.94232799999999 47.34 -12.94232799999999 Z M47.34 -57.323578 Q40.040172 -57.323578 34.3215 -53.02983999999999 Q28.602828 -48.740835999999994 26.429922 -41.93807799999999 L16.370172 -59.29292199999999 Q21.795336 -66.493336 29.933082000000002 -70.48883199999999 Q38.070828 -74.48432799999999 47.34 -74.48432799999999 Q57.101507999999995 -74.48432799999999 65.68425 -69.897082 Q74.266992 -65.30983599999999 79.687422 -57.323578 H47.34 Z M83.73499199999999 -49.924336 Q85.311414 -46.274421999999994 86.00257800000001 -42.57716799999999 Q86.689008 -38.879914 86.689008 -35.13058599999999 Q86.689008 -19.252749999999992 76.435164 -8.454495999999992 Q66.176586 2.3484920000000074 50.398164 4.024328000000011 L66.375414 -24.086163999999997 Q67.852422 -26.651991999999993 68.69033999999999 -29.411913999999996 Q69.53299200000001 -32.17183599999999 69.53299200000001 -35.13058599999999 Q69.53299200000001 -39.27283599999999 68.00391 -43.069503999999995 Q66.474828 -46.86617199999999 63.809585999999996 -49.924336 H83.73499199999999 Z"/></g><g id="Regular-S" transform="matrix(1 0 0 1 1405.73 696)"><path d="M33.138 -35.13058599999999 Q33.138 -29.21308599999999 37.28025 -25.070835999999993 Q41.4225 -20.92858599999999 47.34 -20.92858599999999 Q53.2575 -20.92858599999999 57.39975 -25.070835999999993 Q61.542 -29.21308599999999 61.542 -35.13058599999999 Q61.542 -41.04808599999999 57.39975 -45.190335999999995 Q53.2575 -49.33258599999999 47.34 -49.33258599999999 Q41.4225 -49.33258599999999 37.28025 -45.190335999999995 Q33.138 -41.04808599999999 33.138 -35.13058599999999 Z M47.34 -13.827585999999997 Q48.424085999999996 -13.827585999999997 49.560246 -13.879660000000001 Q50.691672000000004 -13.926999999999992 51.780492 -14.220507999999995 L42.11366400000001 2.3484920000000074 Q27.911664 0.7673360000000002 18.689832 -9.983577999999994 Q9.468 -20.734491999999996 9.468 -35.13058599999999 Q9.468 -39.372249999999994 10.405332 -43.46715999999999 Q11.342664 -47.55733599999999 13.217327999999998 -51.50549199999999 L28.99575 -24.479085999999988 Q31.755672 -19.45157799999999 36.6885 -16.63958199999999 Q41.621328 -13.827585999999997 47.34 -13.827585999999997 Z M47.34 -56.43358599999999 Q40.338414 -56.43358599999999 34.86591 -52.291335999999994 Q29.388672 -48.149086 27.2205 -41.63983599999999 L17.553672000000002 -58.407664 Q22.780008000000002 -65.40924999999999 30.624246000000003 -69.205918 Q38.46375 -73.002586 47.34 -73.002586 Q56.708586 -73.002586 64.99308599999999 -68.56682799999999 Q73.277586 -64.126336 78.603336 -56.43358599999999 H47.34 Z M82.452078 -49.33258599999999 Q83.929086 -45.881499999999996 84.57291 -42.330999999999996 Q85.212 -38.780499999999996 85.212 -35.13058599999999 Q85.212 -19.844499999999996 75.351078 -9.439167999999995 Q65.485422 0.9661640000000062 50.199335999999995 2.64200000000001 L65.68425 -24.479085999999988 Q67.06657799999999 -26.945499999999996 67.852422 -29.60600799999999 Q68.643 -32.271249999999995 68.643 -35.13058599999999 Q68.643 -39.07400799999999 67.165992 -42.723921999999995 Q65.68425 -46.373836 63.118422 -49.33258599999999 H82.452078 Z"/></g><g id="Light-S" transform="matrix(1 0 0 1 1109.75 696)"><path d="M34.3215 -35.13058599999999 Q34.3215 -29.70542199999999 38.118168 -25.908753999999995 Q41.914835999999994 -22.11208599999999 47.34 -22.11208599999999 Q52.765164000000006 -22.11208599999999 56.561832 -25.908753999999995 Q60.3585 -29.70542199999999 60.3585 -35.13058599999999 Q60.3585 -40.555749999999996 56.561832 -44.35241799999999 Q52.765164000000006 -48.149086 47.34 -48.149086 Q41.914835999999994 -48.149086 38.118168 -44.35241799999999 Q34.3215 -40.555749999999996 34.3215 -35.13058599999999 Z M47.34 -15.602835999999996 Q48.324672 -15.602835999999996 49.361418 -15.702249999999992 Q50.398164 -15.801664000000002 51.382836 -16.000491999999994 L42.407172 -0.7096719999999834 Q29.388672 -2.1914139999999946 20.957417999999997 -12.052335999999983 Q12.526164 -21.917991999999998 12.526164 -35.13058599999999 Q12.526164 -39.07400799999999 13.411422 -42.875409999999995 Q14.301414 -46.67207799999999 15.97725 -50.321991999999995 L30.572172000000002 -25.369077999999995 Q33.138 -20.734491999999996 37.625832 -18.168663999999993 Q42.11366400000001 -15.602835999999996 47.34 -15.602835999999996 Z M47.34 -54.65833599999999 Q40.930164000000005 -54.65833599999999 35.949996 -50.861667999999995 Q30.969828 -47.06499999999999 28.99575 -41.04808599999999 L20.020086 -56.632414 Q24.8535 -63.14166399999999 32.053914 -66.54540999999999 Q39.254328 -69.94442199999999 47.34 -69.94442199999999 Q55.918008 -69.94442199999999 63.563418 -65.85424599999999 Q71.208828 -61.75933599999999 76.136922 -54.65833599999999 H47.34 Z M79.687422 -48.149086 Q80.97033599999999 -44.991507999999996 81.562086 -41.73924999999999 Q82.153836 -38.486991999999994 82.153836 -35.13058599999999 Q82.153836 -21.02799999999999 73.078758 -11.460585999999992 Q64.008414 -1.8931719999999927 49.806414000000004 -0.41616399999999487 L64.107828 -25.369077999999995 Q65.386008 -27.636663999999996 66.129246 -30.10307799999999 Q66.86775 -32.569492 66.86775 -35.13058599999999 Q66.86775 -38.681085999999986 65.485422 -42.03749199999999 Q64.107828 -45.389163999999994 61.835508 -48.149086 H79.687422 Z"/></g><g id="Thin-S" transform="matrix(1 0 0 1 814.015 696)"><path d="M35.604414 -35.13058599999999 Q35.604414 -30.10307799999999 38.956086 -26.746671999999997 Q42.312492000000006 -23.394999999999996 47.34 -23.394999999999996 Q52.367507999999994 -23.394999999999996 55.723914 -26.746671999999997 Q59.075585999999994 -30.10307799999999 59.075585999999994 -35.13058599999999 Q59.075585999999994 -40.16282799999999 55.723914 -43.51449999999999 Q52.367507999999994 -46.86617199999999 47.34 -46.86617199999999 Q42.312492000000006 -46.86617199999999 38.956086 -43.51449999999999 Q35.604414 -40.16282799999999 35.604414 -35.13058599999999 Z M47.34 -17.477499999999992 Q48.229992 -17.477499999999992 49.214664000000006 -17.576914000000002 Q50.199335999999995 -17.676327999999998 50.989914000000006 -17.87042199999999 L42.804828 -3.7678359999999884 Q30.870414 -5.050749999999994 23.225004 -14.026414000000003 Q15.584328 -23.00207799999999 15.584328 -35.13058599999999 Q15.584328 -38.681085999999986 16.370172 -42.23158599999999 Q17.16075 -45.78208599999999 18.836586 -49.13849199999999 L32.153328 -26.35374999999999 Q34.420913999999996 -22.11208599999999 38.511089999999996 -19.79715999999999 Q42.606 -17.477499999999992 47.34 -17.477499999999992 Z M47.34 -52.783671999999996 Q41.621328 -52.783671999999996 37.081422 -49.33258599999999 Q32.54625 -45.881499999999996 30.671586 -40.456335999999986 L22.4865 -54.857164 Q26.926992 -60.774663999999994 33.483582 -63.83282799999999 Q40.040172 -66.890992 47.34 -66.890992 Q55.231578 -66.890992 62.18109 -63.14166399999999 Q69.135336 -59.39233599999999 73.769922 -52.783671999999996 H47.34 Z M76.9275 -46.86617199999999 Q78.111 -44.106249999999996 78.603336 -41.100159999999995 Q79.095672 -38.08933599999999 79.095672 -35.13058599999999 Q79.095672 -22.211499999999994 70.811172 -13.48200399999999 Q62.526672 -4.752508000000006 49.413492000000005 -3.474328 L62.526672 -26.35374999999999 Q63.710172 -28.422507999999993 64.353996 -30.595413999999998 Q64.99308599999999 -32.76358599999999 64.99308599999999 -35.13058599999999 Q64.99308599999999 -38.38757799999999 63.762246 -41.39366799999999 Q62.526672 -44.404492 60.457914 -46.86617199999999 H76.9275 Z"/></g><g id="Ultralight-S" transform="matrix(1 0 0 1 517.792 696)"><path d="M36.295578 -35.13058599999999 Q36.295578 -30.396585999999992 39.448422 -27.23900799999999 Q42.606 -24.086163999999997 47.34 -24.086163999999997 Q52.074 -24.086163999999997 55.231578 -27.23900799999999 Q58.384422 -30.396585999999992 58.384422 -35.13058599999999 Q58.384422 -39.86458599999999 55.231578 -43.022164 Q52.074 -46.17500799999999 47.34 -46.17500799999999 Q42.606 -46.17500799999999 39.448422 -43.022164 Q36.295578 -39.86458599999999 36.295578 -35.13058599999999 Z M47.34 -18.56158599999999 Q48.130578 -18.56158599999999 49.06791 -18.660999999999994 Q50.000507999999996 -18.760413999999997 50.79108599999999 -18.95450799999999 L42.998922 -5.543085999999988 Q31.755672 -6.825999999999993 24.559991999999998 -15.257254000000003 Q17.359578 -23.68850799999999 17.359578 -35.13058599999999 Q17.359578 -38.486991999999994 18.145422 -41.838663999999994 Q18.936 -45.190335999999995 20.512422 -48.44732799999999 L33.138 -26.846085999999993 Q35.306172000000004 -22.902663999999994 39.10284 -20.734491999999996 Q42.899508 -18.56158599999999 47.34 -18.56158599999999 Z M47.34 -51.699586 Q41.914835999999994 -51.699586 37.673172 -48.49466799999999 Q33.431508 -45.28974999999999 31.755672 -40.16282799999999 L23.963508 -53.77307799999999 Q28.110491999999997 -59.39233599999999 34.27416 -62.251672 Q40.437827999999996 -65.111008 47.34 -65.111008 Q54.734508 -65.111008 61.343172 -61.51316799999999 Q67.951836 -57.91532799999999 72.29291400000001 -51.699586 H47.34 Z M75.251664 -46.17500799999999 Q76.33575 -43.51449999999999 76.828086 -40.702504 Q77.320422 -37.89050799999999 77.320422 -35.13058599999999 Q77.320422 -22.902663999999994 69.480918 -14.717577999999989 Q61.641414000000005 -6.532491999999991 49.214664000000006 -5.249578 L61.542 -26.846085999999993 Q62.626085999999994 -28.820164 63.26991 -30.888921999999994 Q63.909 -32.962413999999995 63.909 -35.13058599999999 Q63.909 -38.08933599999999 62.77284 -40.948671999999995 Q61.641414000000005 -43.808007999999994 59.667336 -46.17500799999999 H75.251664 Z"/></g></g></svg>