<svg width="108" height="24" viewBox="0 0 108 24" fill="none" xmlns="http://www.w3.org/2000/svg">
<g clip-path="url(#clip0_3714_41654)">
<path d="M12 17.9987C15.3137 17.9987 18 15.3124 18 11.9987C18 8.68495 15.3137 5.99866 12 5.99866C8.68629 5.99866 6 8.68495 6 11.9987C6 15.3124 8.68629 17.9987 12 17.9987Z" fill="white"/>
<path d="M6.80347 15L1.60814 6.00146C0.55471 7.82548 7.26763e-05 9.89469 7.1418e-09 12.0011C-7.2662e-05 14.1074 0.554422 16.1767 1.60773 18.0007C2.66104 19.8248 4.17603 21.3395 6.00038 22.3923C7.82472 23.4452 9.89411 23.9992 12.0005 23.9986L17.1958 15V14.9985C16.6695 15.911 15.9123 16.6688 15.0003 17.1958C14.0882 17.7228 13.0534 18.0003 12.0001 18.0005C10.9467 18.0006 9.91186 17.7234 8.99964 17.1967C8.08741 16.67 7.32996 15.9124 6.80347 15V15Z" fill="#669DF6"/>
<path d="M17.1955 14.9998L12.0002 23.9983C14.1066 23.9986 16.1759 23.4443 18.0001 22.3912C19.8243 21.3381 21.339 19.8233 22.3921 17.999C23.4451 16.1748 23.9993 14.1055 23.999 11.9991C23.9986 9.89276 23.4437 7.82362 22.39 5.99976H11.9993L11.998 6.00056C13.0514 6.00002 14.0863 6.27687 14.9988 6.80326C15.9112 7.32964 16.6689 8.087 17.1957 8.99917C17.7225 9.91133 17.9999 10.9461 17.9998 11.9995C17.9998 13.0529 17.7224 14.0876 17.1955 14.9998H17.1955Z" fill="#AECBFA"/>
<path d="M12 16.75C14.6234 16.75 16.75 14.6234 16.75 12C16.75 9.37665 14.6234 7.25 12 7.25C9.37665 7.25 7.25 9.37665 7.25 12C7.25 14.6234 9.37665 16.75 12 16.75Z" fill="#1A73E8"/>
<path d="M12.0008 5.99999H22.3915C21.3385 4.17568 19.8239 2.66075 17.9998 1.60751C16.1756 0.554269 14.1064 -0.000149468 12 3.02258e-08C9.89364 0.000149528 7.82445 0.554862 6.00047 1.60836C4.1765 2.66186 2.66204 4.17701 1.60938 6.00146L6.80468 15L6.80602 15.0007C6.27889 14.0887 6.00118 13.054 6.00084 12.0007C6.0005 10.9473 6.27754 9.91243 6.80409 9.00012C7.33063 8.08781 8.08813 7.33023 9.00038 6.80357C9.91264 6.27692 10.9475 5.99977 12.0008 5.99999V5.99999Z" fill="#1967D2"/>
</g>
<path d="M33.4744 18.6266C32.157 18.6266 31.0731 18.1835 30.2228 17.2972C29.3724 16.399 28.9473 15.2792 28.9473 13.9378C28.9473 12.5964 29.3724 11.4826 30.2228 10.5963C31.0731 9.69805 32.157 9.24893 33.4744 9.24893C34.4565 9.24893 35.2709 9.48846 35.9177 9.96753C36.5644 10.4466 37.0375 11.0514 37.3369 11.782L35.8278 12.4108C35.3727 11.3089 34.5523 10.758 33.3666 10.758C32.6361 10.758 31.9893 11.0574 31.4264 11.6562C30.8755 12.2551 30.6 13.0156 30.6 13.9378C30.6 14.86 30.8755 15.6205 31.4264 16.2193C31.9893 16.8181 32.6361 17.1176 33.3666 17.1176C34.6002 17.1176 35.4506 16.5666 35.9177 15.4648L37.3908 16.0936C37.0914 16.8122 36.6063 17.417 35.9356 17.908C35.2769 18.3871 34.4565 18.6266 33.4744 18.6266Z" fill="#5F6368"/>
<path d="M40.489 5.4763V9.53637L40.4172 10.758H40.489C40.7286 10.3388 41.1058 9.98549 41.6208 9.69805C42.1358 9.39864 42.6867 9.24893 43.2736 9.24893C44.3635 9.24893 45.1958 9.58428 45.7707 10.255C46.3456 10.9257 46.633 11.8239 46.633 12.9497V18.3392H44.9802V13.2012C44.9802 11.5724 44.2557 10.758 42.8065 10.758C42.1238 10.758 41.5669 11.0334 41.1358 11.5844C40.7046 12.1233 40.489 12.7521 40.489 13.4707V18.3392H38.8362V5.4763H40.489Z" fill="#5F6368"/>
<path d="M50.4782 18.3392H48.8254V9.53637H50.4064V10.9736H50.4782C50.6459 10.4945 50.9872 10.0993 51.5022 9.78788C52.0292 9.47649 52.5382 9.32079 53.0292 9.32079C53.5203 9.32079 53.9335 9.39265 54.2688 9.53637L53.64 11.0814C53.4245 10.9975 53.131 10.9556 52.7598 10.9556C52.1609 10.9556 51.628 11.1951 51.1609 11.6742C50.7058 12.1413 50.4782 12.7581 50.4782 13.5246V18.3392Z" fill="#5F6368"/>
<path d="M55.5443 10.5963C56.3947 9.69805 57.4785 9.24893 58.796 9.24893C60.1134 9.24893 61.1973 9.69805 62.0476 10.5963C62.898 11.4826 63.3231 12.5964 63.3231 13.9378C63.3231 15.2792 62.898 16.399 62.0476 17.2972C61.1973 18.1835 60.1134 18.6266 58.796 18.6266C57.4785 18.6266 56.3947 18.1835 55.5443 17.2972C54.694 16.399 54.2688 15.2792 54.2688 13.9378C54.2688 12.5964 54.694 11.4826 55.5443 10.5963ZM56.7659 16.2552C57.3408 16.8301 58.0175 17.1176 58.796 17.1176C59.5744 17.1176 60.2451 16.8301 60.808 16.2552C61.3829 15.6684 61.6704 14.8959 61.6704 13.9378C61.6704 12.9796 61.3829 12.2131 60.808 11.6383C60.2451 11.0514 59.5744 10.758 58.796 10.758C58.0175 10.758 57.3408 11.0514 56.7659 11.6383C56.203 12.2131 55.9216 12.9796 55.9216 13.9378C55.9216 14.8959 56.203 15.6684 56.7659 16.2552Z" fill="#5F6368"/>
<path d="M64.9355 18.3392V9.53637H66.5164V10.758H66.5882C66.8398 10.3388 67.223 9.98549 67.738 9.69805C68.265 9.39864 68.786 9.24893 69.3009 9.24893C70.6663 9.24893 71.5945 9.81183 72.0855 10.9376C72.8041 9.81183 73.8281 9.24893 75.1575 9.24893C76.1995 9.24893 76.9839 9.58428 77.5109 10.255C78.0379 10.9137 78.3014 11.8119 78.3014 12.9497V18.3392H76.6486V13.2012C76.6486 12.3149 76.4869 11.6862 76.1635 11.3149C75.8402 10.9436 75.3491 10.758 74.6904 10.758C74.0437 10.758 73.5047 11.0334 73.0736 11.5844C72.6544 12.1353 72.4448 12.7641 72.4448 13.4707V18.3392H70.792V13.2012C70.792 12.3149 70.6304 11.6862 70.307 11.3149C69.9836 10.9436 69.4926 10.758 68.8339 10.758C68.1871 10.758 67.6482 11.0334 67.217 11.5844C66.7978 12.1353 66.5882 12.7641 66.5882 13.4707V18.3392H64.9355Z" fill="#5F6368"/>
<path d="M82.0302 7.32669C81.8027 7.55424 81.5272 7.66802 81.2038 7.66802C80.8805 7.66802 80.605 7.55424 80.3774 7.32669C80.1499 7.09913 80.0361 6.82367 80.0361 6.5003C80.0361 6.17693 80.1499 5.90147 80.3774 5.67391C80.605 5.44636 80.8805 5.33258 81.2038 5.33258C81.5272 5.33258 81.8027 5.44636 82.0302 5.67391C82.2578 5.90147 82.3715 6.17693 82.3715 6.5003C82.3715 6.82367 82.2578 7.09913 82.0302 7.32669ZM82.0302 18.3392H80.3774V9.53637H82.0302V18.3392Z" fill="#5F6368"/>
<path d="M91.906 18.3392H90.3251V17.1176H90.2532C90.0017 17.5367 89.6185 17.896 89.1035 18.1955C88.5885 18.4829 88.0435 18.6266 87.4687 18.6266C86.3668 18.6266 85.5285 18.2913 84.9536 17.6206C84.3907 16.9499 84.1092 16.0516 84.1092 14.9258V9.53637H85.762V14.6564C85.762 16.2972 86.4866 17.1176 87.9358 17.1176C88.6184 17.1176 89.1753 16.8421 89.6065 16.2912C90.0377 15.7403 90.2532 15.1055 90.2532 14.3869V9.53637H91.906V18.3392Z" fill="#5F6368"/>
<path d="M93.9179 18.3392V9.53637H95.4988V10.758H95.5707C95.8222 10.3388 96.2055 9.98549 96.7205 9.69805C97.2474 9.39864 97.7684 9.24893 98.2834 9.24893C99.6487 9.24893 100.577 9.81183 101.068 10.9376C101.787 9.81183 102.811 9.24893 104.14 9.24893C105.182 9.24893 105.966 9.58428 106.493 10.255C107.02 10.9137 107.284 11.8119 107.284 12.9497V18.3392H105.631V13.2012C105.631 12.3149 105.469 11.6862 105.146 11.3149C104.823 10.9436 104.332 10.758 103.673 10.758C103.026 10.758 102.487 11.0334 102.056 11.5844C101.637 12.1353 101.427 12.7641 101.427 13.4707V18.3392H99.7745V13.2012C99.7745 12.3149 99.6128 11.6862 99.2894 11.3149C98.9661 10.9436 98.475 10.758 97.8163 10.758C97.1696 10.758 96.6306 11.0334 96.1995 11.5844C95.7803 12.1353 95.5707 12.7641 95.5707 13.4707V18.3392H93.9179Z" fill="#5F6368"/>
<defs>
<clipPath id="clip0_3714_41654">
<rect width="24" height="24" fill="white"/>
</clipPath>
</defs>
</svg>
