<svg width="3300" height="2200" viewBox="0 0 3300 2200" fill="none" xmlns="http://www.w3.org/2000/svg">
<g id="incognito.cr" clip-path="url(#clip0_2689_5244)">
<g id="Notes">
<path id="artboard" d="M3300 0H0V2200H3300V0Z" fill="white"/>
<path id="Vector" d="M263 292H3036" stroke="black" stroke-width="0.5"/>
<text id="Weight/Scale Variations" fill="black" style="white-space: pre" xml:space="preserve" font-family="Inter" font-size="13" font-weight="bold" letter-spacing="0em"><tspan x="263" y="321.727">Weight/Scale Variations</tspan></text>
<text id="Ultralight" fill="black" style="white-space: pre" xml:space="preserve" font-family="Inter" font-size="13" letter-spacing="0em"><tspan x="531.661" y="321.727">Ultralight</tspan></text>
<text id="Thin" fill="black" style="white-space: pre" xml:space="preserve" font-family="Inter" font-size="13" letter-spacing="0em"><tspan x="843.066" y="321.727">Thin</tspan></text>
<text id="Light" fill="black" style="white-space: pre" xml:space="preserve" font-family="Inter" font-size="13" letter-spacing="0em"><tspan x="1137.77" y="321.727">Light</tspan></text>
<text id="Regular" fill="black" style="white-space: pre" xml:space="preserve" font-family="Inter" font-size="13" letter-spacing="0em"><tspan x="1426.58" y="321.727">Regular</tspan></text>
<text id="Medium" fill="black" style="white-space: pre" xml:space="preserve" font-family="Inter" font-size="13" letter-spacing="0em"><tspan x="1721.99" y="321.727">Medium</tspan></text>
<text id="Semibold" fill="black" style="white-space: pre" xml:space="preserve" font-family="Inter" font-size="13" letter-spacing="0em"><tspan x="2014.65" y="321.727">Semibold</tspan></text>
<text id="Bold" fill="black" style="white-space: pre" xml:space="preserve" font-family="Inter" font-size="13" letter-spacing="0em"><tspan x="2326.29" y="321.727">Bold</tspan></text>
<text id="Heavy" fill="black" style="white-space: pre" xml:space="preserve" font-family="Inter" font-size="13" letter-spacing="0em"><tspan x="2617.32" y="321.727">Heavy</tspan></text>
<text id="Black" fill="black" style="white-space: pre" xml:space="preserve" font-family="Inter" font-size="13" letter-spacing="0em"><tspan x="2916.8" y="321.727">Black</tspan></text>
<path id="Vector_2" d="M263 1903H3036" stroke="black" stroke-width="0.5"/>
<g id="Group">
<path id="Vector_3" d="M272.248 1933.83C276.604 1933.83 280.139 1930.3 280.139 1925.95C280.139 1921.59 276.604 1918.07 272.248 1918.07C267.902 1918.07 264.367 1921.59 264.367 1925.95C264.367 1930.3 267.902 1933.83 272.248 1933.83ZM272.248 1932.35C268.713 1932.35 265.861 1929.48 265.861 1925.95C265.861 1922.41 268.713 1919.55 272.248 1919.55C275.783 1919.55 278.645 1922.41 278.645 1925.95C278.645 1929.48 275.783 1932.35 272.248 1932.35ZM272.971 1928.79V1923.1C272.971 1922.65 272.678 1922.35 272.229 1922.35C271.799 1922.35 271.506 1922.65 271.506 1923.1V1928.79C271.506 1929.23 271.799 1929.53 272.229 1929.53C272.678 1929.53 272.971 1929.23 272.971 1928.79ZM269.406 1926.67H275.09C275.529 1926.67 275.832 1926.38 275.832 1925.95C275.832 1925.51 275.529 1925.21 275.09 1925.21H269.406C268.957 1925.21 268.654 1925.51 268.654 1925.95C268.654 1926.38 268.957 1926.67 269.406 1926.67Z" fill="black"/>
</g>
<g id="Group_2">
<path id="Vector_4" d="M293.215 1935.91C298.713 1935.91 303.176 1931.45 303.176 1925.95C303.176 1920.45 298.713 1915.99 293.215 1915.99C287.717 1915.99 283.254 1920.45 283.254 1925.95C283.254 1931.45 287.717 1935.91 293.215 1935.91ZM293.215 1934.25C288.625 1934.25 284.914 1930.54 284.914 1925.95C284.914 1921.36 288.625 1917.65 293.215 1917.65C297.805 1917.65 301.516 1921.36 301.516 1925.95C301.516 1930.54 297.805 1934.25 293.215 1934.25ZM294.025 1929.63V1922.25C294.025 1921.75 293.684 1921.41 293.195 1921.41C292.717 1921.41 292.385 1921.75 292.385 1922.25V1929.63C292.385 1930.12 292.717 1930.46 293.195 1930.46C293.684 1930.46 294.025 1930.13 294.025 1929.63ZM289.514 1926.75H296.906C297.395 1926.75 297.736 1926.43 297.736 1925.95C297.736 1925.46 297.395 1925.12 296.906 1925.12H289.514C289.016 1925.12 288.684 1925.46 288.684 1925.95C288.684 1926.43 289.016 1926.75 289.514 1926.75Z" fill="black"/>
</g>
<g id="Group_3">
<path id="Vector_5" d="M319.895 1938.66C326.916 1938.66 332.619 1932.97 332.619 1925.95C332.619 1918.93 326.916 1913.22 319.895 1913.22C312.873 1913.22 307.18 1918.93 307.18 1925.95C307.18 1932.97 312.873 1938.66 319.895 1938.66ZM319.895 1936.85C313.869 1936.85 308.996 1931.97 308.996 1925.95C308.996 1919.92 313.869 1915.05 319.895 1915.05C325.92 1915.05 330.793 1919.92 330.793 1925.95C330.793 1931.97 325.92 1936.85 319.895 1936.85ZM320.783 1930.78V1921.09C320.783 1920.54 320.412 1920.16 319.875 1920.16C319.358 1920.16 318.987 1920.54 318.987 1921.09V1930.78C318.987 1931.32 319.358 1931.7 319.875 1931.7C320.412 1931.7 320.783 1931.33 320.783 1930.78ZM315.041 1926.83H324.739C325.276 1926.83 325.656 1926.47 325.656 1925.95C325.656 1925.4 325.285 1925.03 324.739 1925.03H315.041C314.494 1925.03 314.123 1925.4 314.123 1925.95C314.123 1926.47 314.494 1926.83 315.041 1926.83Z" fill="black"/>
</g>
<text id="Design Variations" fill="black" style="white-space: pre" xml:space="preserve" font-family="Inter" font-size="13" font-weight="bold" letter-spacing="0em"><tspan x="263" y="1952.73">Design Variations</tspan></text>
<text id="Symbols are supported in up to nine weights and three scales." fill="black" style="white-space: pre" xml:space="preserve" font-family="Inter" font-size="13" letter-spacing="0em"><tspan x="263" y="1970.73">Symbols are supported in up to nine weights and three scales.</tspan></text>
<text id="For optimal layout with text and other symbols, vertically align" fill="black" style="white-space: pre" xml:space="preserve" font-family="Inter" font-size="13" letter-spacing="0em"><tspan x="263" y="1988.73">For optimal layout with text and other symbols, vertically align</tspan></text>
<text id="symbols with the adjacent text." fill="black" style="white-space: pre" xml:space="preserve" font-family="Inter" font-size="13" letter-spacing="0em"><tspan x="263" y="2006.73">symbols with the adjacent text.</tspan></text>
<path id="Vector_6" d="M776 1919V1933" stroke="#00AEEF" stroke-width="0.5"/>
<g id="Group_4">
<path id="Vector_7" d="M779.311 1933.16C779.828 1933.16 780.082 1932.96 780.268 1932.41L784.379 1920.91H784.428L788.549 1932.41C788.734 1932.96 788.988 1933.16 789.496 1933.16C790.014 1933.16 790.346 1932.84 790.346 1932.36C790.346 1932.19 790.316 1932.03 790.238 1931.83L785.658 1919.63C785.434 1919.04 785.033 1918.73 784.408 1918.73C783.803 1918.73 783.393 1919.03 783.178 1919.62L778.598 1931.84C778.52 1932.04 778.49 1932.2 778.49 1932.37C778.49 1932.85 778.803 1933.16 779.311 1933.16ZM781.352 1928.97H787.484C787.885 1928.97 788.217 1928.63 788.217 1928.23C788.217 1927.82 787.885 1927.5 787.484 1927.5H781.352C780.951 1927.5 780.619 1927.82 780.619 1928.23C780.619 1928.63 780.951 1928.97 781.352 1928.97Z" fill="black"/>
</g>
<path id="Vector_8" d="M792.836 1919V1933" stroke="#00AEEF" stroke-width="0.5"/>
<text id="Margins" fill="black" style="white-space: pre" xml:space="preserve" font-family="Inter" font-size="13" font-weight="bold" letter-spacing="0em"><tspan x="776" y="1952.73">Margins</tspan></text>
<text id="Leading and trailing margins on the left and right side of each symbol" fill="black" style="white-space: pre" xml:space="preserve" font-family="Inter" font-size="13" letter-spacing="0em"><tspan x="776" y="1970.73">Leading and trailing margins on the left and right side of each symbol</tspan></text>
<text id="can be adjusted by modifying the x-location of the margin guidelines." fill="black" style="white-space: pre" xml:space="preserve" font-family="Inter" font-size="13" letter-spacing="0em"><tspan x="776" y="1988.73">can be adjusted by modifying the x-location of the margin guidelines.</tspan></text>
<text id="Modifications are automatically applied proportionally to all" fill="black" style="white-space: pre" xml:space="preserve" font-family="Inter" font-size="13" letter-spacing="0em"><tspan x="776" y="2006.73">Modifications are automatically applied proportionally to all</tspan></text>
<text id="scales and weights." fill="black" style="white-space: pre" xml:space="preserve" font-family="Inter" font-size="13" letter-spacing="0em"><tspan x="776" y="2024.73">scales and weights.</tspan></text>
<g id="Group_5">
<path id="Vector_9" d="M1291.84 1935.63L1293.41 1937.2C1294.27 1938.08 1295.28 1938.02 1296.19 1936.99L1308.33 1923.35L1307.35 1922.37L1295.3 1935.91C1294.94 1936.3 1294.61 1936.4 1294.14 1935.93L1293.1 1934.9C1292.64 1934.45 1292.74 1934.11 1293.14 1933.74L1306.64 1921.31L1305.66 1920.34L1292.05 1932.86C1291.05 1933.78 1290.98 1934.76 1291.84 1935.63ZM1300.82 1916.13C1300.41 1916.53 1300.37 1917.11 1300.6 1917.49C1300.83 1917.85 1301.29 1918.1 1301.92 1917.94C1303.09 1917.61 1304.44 1917.46 1305.7 1918.13L1305.16 1919.55C1304.84 1920.35 1305.02 1920.93 1305.5 1921.44L1307.55 1923.5C1308.02 1923.98 1308.46 1923.99 1308.97 1923.89L1309.86 1923.74L1310.38 1924.25L1310.34 1924.7C1310.32 1925.16 1310.45 1925.56 1310.89 1926L1311.57 1926.66C1312.03 1927.12 1312.67 1927.16 1313.13 1926.7L1315.73 1924.09C1316.19 1923.62 1316.16 1923.02 1315.69 1922.56L1315.01 1921.88C1314.57 1921.44 1314.2 1921.27 1313.74 1921.3L1313.27 1921.35L1312.78 1920.86L1312.98 1919.92C1313.11 1919.38 1312.94 1918.93 1312.41 1918.4L1310.15 1916.16C1307.56 1913.6 1303.03 1913.96 1300.82 1916.13ZM1302.23 1916.54C1303.99 1915.27 1307.43 1915.41 1308.97 1916.94L1311.43 1919.38C1311.64 1919.58 1311.68 1919.74 1311.62 1920.04L1311.32 1921.37L1312.67 1922.71L1313.55 1922.66C1313.78 1922.65 1313.85 1922.67 1314.02 1922.83L1314.53 1923.33L1312.36 1925.5L1311.86 1925C1311.7 1924.83 1311.67 1924.76 1311.68 1924.52L1311.73 1923.65L1310.4 1922.31L1309.03 1922.54C1308.75 1922.6 1308.62 1922.58 1308.39 1922.36L1306.61 1920.59C1306.39 1920.38 1306.37 1920.25 1306.51 1919.91L1307.43 1917.62C1306.21 1916.35 1304.02 1916.11 1302.31 1916.7C1302.17 1916.75 1302.12 1916.62 1302.23 1916.54Z" fill="black"/>
</g>
<text id="Exporting" fill="black" style="white-space: pre" xml:space="preserve" font-family="Inter" font-size="13" font-weight="bold" letter-spacing="0em"><tspan x="1289" y="1952.73">Exporting</tspan></text>
<text id="Symbols should be outlined when exporting to ensure the" fill="black" style="white-space: pre" xml:space="preserve" font-family="Inter" font-size="13" letter-spacing="0em"><tspan x="1289" y="1970.73">Symbols should be outlined when exporting to ensure the</tspan></text>
<text id="design is preserved when submitting to Xcode." fill="black" style="white-space: pre" xml:space="preserve" font-family="Inter" font-size="13" letter-spacing="0em"><tspan x="1289" y="1988.73">design is preserved when submitting to Xcode.</tspan></text>
<text id="template-version" fill="black" style="white-space: pre" xml:space="preserve" font-family="Inter" font-size="13" letter-spacing="0em"><tspan x="2948.26" y="1932.73">Template v.7.0</tspan></text>
<text id="Requires Xcode 26 or greater" fill="black" style="white-space: pre" xml:space="preserve" font-family="Inter" font-size="13" letter-spacing="0em"><tspan x="2856.34" y="1950.73">Requires Xcode 26 or greater</tspan></text>
<text id="descriptive-name" fill="black" style="white-space: pre" xml:space="preserve" font-family="Inter" font-size="13" letter-spacing="0em"><tspan x="2863.08" y="1968.73">Generated from incognito.cr</tspan></text>
<text id="Typeset at 100.0 points" fill="black" style="white-space: pre" xml:space="preserve" font-family="Inter" font-size="13" letter-spacing="0em"><tspan x="2892.56" y="1986.73">Typeset at 100.0 points</tspan></text>
<text id="Small" fill="black" style="white-space: pre" xml:space="preserve" font-family="Inter" font-size="13" letter-spacing="0em"><tspan x="263" y="725.727">Small</tspan></text>
<text id="Medium_2" fill="black" style="white-space: pre" xml:space="preserve" font-family="Inter" font-size="13" letter-spacing="0em"><tspan x="263" y="1155.73">Medium</tspan></text>
<text id="Large" fill="black" style="white-space: pre" xml:space="preserve" font-family="Inter" font-size="13" letter-spacing="0em"><tspan x="263" y="1585.73">Large</tspan></text>
</g>
<g id="Guides">
<g id="H-reference">
<path id="Vector_10" d="M339.994 696H342.638L368.328 628.868H369.03V625.541H367.123L339.994 696ZM350.688 671.52H385.981L385.231 669.272H351.438L350.688 671.52ZM394.12 696H396.764L369.638 625.541H368.433V628.868L394.12 696Z" fill="#27AAE1"/>
</g>
<path id="Baseline-S" d="M263 696H3036" stroke="#27AAE1" stroke-width="0.5"/>
<path id="Capline-S" d="M263 625.541H3036" stroke="#27AAE1" stroke-width="0.5"/>
<g id="H-reference_2">
<path id="Vector_11" d="M339.994 1126H342.638L368.328 1058.87H369.03V1055.54H367.123L339.994 1126ZM350.688 1101.52H385.981L385.231 1099.27H351.438L350.688 1101.52ZM394.12 1126H396.764L369.638 1055.54H368.433V1058.87L394.12 1126Z" fill="#27AAE1"/>
</g>
<path id="Baseline-M" d="M263 1126H3036" stroke="#27AAE1" stroke-width="0.5"/>
<path id="Capline-M" d="M263 1055.54H3036" stroke="#27AAE1" stroke-width="0.5"/>
<g id="H-reference_3">
<path id="Vector_12" d="M339.994 1556H342.638L368.328 1488.87H369.03V1485.54H367.123L339.994 1556ZM350.688 1531.52H385.981L385.231 1529.27H351.438L350.688 1531.52ZM394.12 1556H396.764L369.638 1485.54H368.433V1488.87L394.12 1556Z" fill="#27AAE1"/>
</g>
<path id="Baseline-L" d="M263 1556H3036" stroke="#27AAE1" stroke-width="0.5"/>
<path id="Capline-L" d="M263 1485.54H3036" stroke="#27AAE1" stroke-width="0.5"/>
<path id="right-margin-Regular-M" d="M1508.37 1030.79V1150.12" stroke="#00AEEF" stroke-width="0.5"/>
<path id="left-margin-Regular-M" d="M1391.32 1030.79V1150.12" stroke="#00AEEF" stroke-width="0.5"/>
<path id="right-margin-Black-S" d="M2980.64 600.785V720.121" stroke="#00AEEF" stroke-width="0.5"/>
<path id="left-margin-Black-S" d="M2886.16 600.785V720.121" stroke="#00AEEF" stroke-width="0.5"/>
<path id="right-margin-Regular-S" d="M1494.52 600.785V720.121" stroke="#00AEEF" stroke-width="0.5"/>
<path id="left-margin-Regular-S" d="M1405.17 600.785V720.121" stroke="#00AEEF" stroke-width="0.5"/>
<path id="right-margin-Ultralight-S" d="M602.188 600.785V720.121" stroke="#00AEEF" stroke-width="0.5"/>
<path id="left-margin-Ultralight-S" d="M517.235 600.785V720.121" stroke="#00AEEF" stroke-width="0.5"/>
</g>
<g id="Symbols">
<g id="Black-L">
<path id="Vector (Stroke)" d="M2942.87 1455.35C2948.51 1453.97 2954.39 1456.79 2956.82 1462.13L2975.71 1503.68H2995.61C3000.2 1503.68 3003.93 1507.41 3003.93 1512C3003.93 1516.6 3000.2 1520.32 2995.61 1520.32H2868.82C2864.22 1520.32 2860.5 1516.6 2860.5 1512C2860.5 1507.41 2864.23 1503.68 2868.82 1503.68H2886.46L2905.16 1462.17L2905.41 1461.66C2908.04 1456.46 2914.04 1453.84 2919.68 1455.5L2930.99 1458.83L2942.32 1455.5L2942.87 1455.35ZM2933.5 1475.44C2932.66 1475.68 2931.81 1475.79 2930.98 1475.77C2930.16 1475.79 2929.32 1475.68 2928.49 1475.44L2918.73 1472.56L2904.71 1503.68H2957.43L2943.28 1472.56L2933.5 1475.44Z" fill="black"/>
<path id="Union" d="M2967.04 1525.83C2981.53 1526.19 2993.17 1538.06 2993.17 1552.64L2993.16 1553.33C2992.79 1567.82 2980.93 1579.46 2966.35 1579.46L2965.66 1579.45C2954.39 1579.16 2944.85 1571.93 2941.16 1561.87C2941.06 1561.82 2940.96 1561.76 2940.86 1561.7C2936.12 1558.78 2933.43 1558.05 2931.4 1558.05C2929.37 1558.05 2926.68 1558.78 2921.94 1561.7C2921.84 1561.76 2921.74 1561.81 2921.64 1561.87C2917.88 1572.13 2908.02 1579.46 2896.45 1579.46L2895.76 1579.45C2881.5 1579.09 2870 1567.59 2869.64 1553.33L2869.63 1552.64C2869.63 1537.83 2881.64 1525.82 2896.45 1525.82L2897.14 1525.83C2908.37 1526.11 2917.88 1533.29 2921.6 1543.29C2924.75 1542.11 2927.98 1541.41 2931.4 1541.41C2934.82 1541.41 2938.06 1542.11 2941.2 1543.29C2945 1533.09 2954.82 1525.82 2966.35 1525.82L2967.04 1525.83ZM2896.45 1542.46C2890.83 1542.46 2886.27 1547.02 2886.27 1552.64C2886.27 1558.26 2890.83 1562.82 2896.45 1562.82C2902.08 1562.82 2906.63 1558.26 2906.63 1552.64C2906.63 1547.02 2902.08 1542.46 2896.45 1542.46ZM2966.35 1542.46C2960.73 1542.46 2956.17 1547.02 2956.17 1552.64C2956.17 1558.26 2960.73 1562.82 2966.35 1562.82C2971.97 1562.82 2976.53 1558.26 2976.53 1552.64C2976.53 1547.02 2971.97 1542.46 2966.35 1542.46Z" fill="black"/>
</g>
<g id="Heavy-L">
<path id="Vector (Stroke)_2" d="M2647.87 1453.35C2653.51 1451.97 2659.39 1454.79 2661.82 1460.13L2680.71 1501.68H2700.61C2705.2 1501.68 2708.93 1505.41 2708.93 1510C2708.93 1514.6 2705.2 1518.32 2700.61 1518.32H2573.82C2569.22 1518.32 2565.5 1514.6 2565.5 1510C2565.5 1505.41 2569.23 1501.68 2573.82 1501.68H2591.46L2610.16 1460.17L2610.41 1459.66C2613.04 1454.46 2619.04 1451.84 2624.68 1453.5L2635.99 1456.83L2647.32 1453.5L2647.87 1453.35ZM2638.5 1473.44C2637.66 1473.68 2636.81 1473.79 2635.98 1473.77C2635.16 1473.79 2634.32 1473.68 2633.49 1473.44L2623.73 1470.56L2609.71 1501.68H2662.43L2648.28 1470.56L2638.5 1473.44Z" fill="black"/>
<path id="Union_2" d="M2672.04 1523.83C2686.53 1524.19 2698.17 1536.06 2698.17 1550.64L2698.16 1551.33C2697.79 1565.82 2685.93 1577.46 2671.35 1577.46L2670.66 1577.45C2659.39 1577.16 2649.85 1569.93 2646.16 1559.87C2646.06 1559.82 2645.96 1559.76 2645.86 1559.7C2641.12 1556.78 2638.43 1556.05 2636.4 1556.05C2634.37 1556.05 2631.68 1556.78 2626.94 1559.7C2626.84 1559.76 2626.74 1559.81 2626.64 1559.87C2622.88 1570.13 2613.02 1577.46 2601.45 1577.46L2600.76 1577.45C2586.5 1577.09 2575 1565.59 2574.64 1551.33L2574.63 1550.64C2574.63 1535.83 2586.64 1523.82 2601.45 1523.82L2602.14 1523.83C2613.37 1524.11 2622.88 1531.29 2626.6 1541.29C2629.75 1540.11 2632.98 1539.41 2636.4 1539.41C2639.82 1539.41 2643.06 1540.11 2646.2 1541.29C2650 1531.09 2659.82 1523.82 2671.35 1523.82L2672.04 1523.83ZM2601.45 1540.46C2595.83 1540.46 2591.27 1545.02 2591.27 1550.64C2591.27 1556.26 2595.83 1560.82 2601.45 1560.82C2607.08 1560.82 2611.63 1556.26 2611.63 1550.64C2611.63 1545.02 2607.08 1540.46 2601.45 1540.46ZM2671.35 1540.46C2665.73 1540.46 2661.17 1545.02 2661.17 1550.64C2661.17 1556.26 2665.73 1560.82 2671.35 1560.82C2676.97 1560.82 2681.53 1556.26 2681.53 1550.64C2681.53 1545.02 2676.97 1540.46 2671.35 1540.46Z" fill="black"/>
</g>
<g id="Bold-L">
<path id="Vector (Stroke)_3" d="M2350.63 1457.16C2355.46 1456.14 2360.38 1458.52 2362.59 1462.94L2362.8 1463.39L2381.79 1506.16H2402.76C2406.65 1506.16 2409.8 1509.31 2409.8 1513.2C2409.8 1517.09 2406.65 1520.24 2402.76 1520.24H2276.04C2272.15 1520.24 2269 1517.09 2269 1513.2C2269 1509.31 2272.15 1506.16 2276.04 1506.16H2294.76L2313.56 1463.43L2313.77 1462.98C2316.04 1458.39 2321.23 1455.99 2326.23 1457.27L2338.18 1460.35L2350.14 1457.27L2350.63 1457.16ZM2340.09 1474.39C2339.45 1474.56 2338.81 1474.63 2338.18 1474.61C2337.55 1474.63 2336.91 1474.56 2336.27 1474.39L2325.35 1471.58L2310.14 1506.16H2366.38L2351.03 1471.58L2340.09 1474.39Z" fill="black"/>
<path id="Union_3" d="M2375.69 1526.57C2390.18 1526.93 2401.82 1538.8 2401.82 1553.38L2401.81 1554.07C2401.44 1568.56 2389.58 1580.2 2375 1580.2L2374.31 1580.19C2362.94 1579.9 2353.33 1572.54 2349.71 1562.35C2345.17 1559.61 2342.34 1558.79 2340.05 1558.79C2337.75 1558.79 2334.93 1559.61 2330.38 1562.35C2326.69 1572.75 2316.77 1580.2 2305.1 1580.2L2304.41 1580.19C2290.15 1579.83 2278.65 1568.33 2278.29 1554.07L2278.28 1553.38C2278.28 1538.57 2290.29 1526.56 2305.1 1526.56L2305.79 1526.57C2317.89 1526.87 2327.99 1535.18 2331 1546.4C2333.93 1545.33 2336.92 1544.71 2340.05 1544.71C2343.18 1544.71 2346.16 1545.33 2349.1 1546.4C2352.17 1534.97 2362.6 1526.56 2375 1526.56L2375.69 1526.57ZM2305.1 1540.64C2298.06 1540.64 2292.36 1546.34 2292.36 1553.38C2292.36 1560.42 2298.07 1566.12 2305.1 1566.12C2312.14 1566.12 2317.84 1560.42 2317.84 1553.38C2317.84 1546.34 2312.14 1540.64 2305.1 1540.64ZM2375 1540.64C2367.96 1540.64 2362.26 1546.34 2362.26 1553.38C2362.26 1560.42 2367.96 1566.12 2375 1566.12C2382.03 1566.12 2387.74 1560.42 2387.74 1553.38C2387.74 1546.34 2382.03 1540.64 2375 1540.64Z" fill="black"/>
</g>
<g id="Semibold-L">
<path id="Vector (Stroke)_4" d="M2054.79 1456.92C2059.24 1455.96 2063.79 1458.17 2065.79 1462.26L2065.98 1462.68L2085.01 1506.65C2085.09 1506.83 2085.15 1507 2085.21 1507.18H2106.8C2110.16 1507.18 2112.88 1509.9 2112.88 1513.26C2112.88 1516.62 2110.16 1519.34 2106.8 1519.34H1980.08C1976.72 1519.34 1974 1516.62 1974 1513.26C1974 1509.9 1976.72 1507.18 1980.08 1507.18H1999.43C1999.49 1506.98 1999.57 1506.77 1999.65 1506.57L2018.47 1462.71C2020.34 1458.33 2025.05 1455.93 2029.67 1456.92L2030.11 1457.03L2042.22 1460.22L2054.34 1457.02L2054.79 1456.92ZM2043.93 1472.35C2043.35 1472.5 2042.77 1472.56 2042.21 1472.54C2041.65 1472.56 2041.08 1472.5 2040.52 1472.35L2028.88 1469.28L2012.62 1507.18H2071.99L2055.58 1469.27L2043.93 1472.35Z" fill="black"/>
<path id="Union_4" d="M2079.09 1526.63C2093.58 1527 2105.22 1538.86 2105.22 1553.44L2105.21 1554.13C2104.84 1568.63 2092.98 1580.26 2078.4 1580.26L2077.7 1580.25C2065.83 1579.95 2055.88 1571.94 2052.67 1561.03C2048.58 1558.69 2045.82 1557.9 2043.45 1557.9C2041.08 1557.9 2038.32 1558.69 2034.23 1561.03C2030.95 1572.15 2020.68 1580.26 2008.5 1580.26L2007.81 1580.25C1993.55 1579.89 1982.05 1568.4 1981.69 1554.13L1981.68 1553.44C1981.68 1538.63 1993.69 1526.62 2008.5 1526.62L2009.19 1526.63C2021.62 1526.94 2031.95 1535.71 2034.64 1547.4C2037.51 1546.34 2040.42 1545.74 2043.45 1545.74C2046.48 1545.74 2049.38 1546.34 2052.26 1547.4C2055 1535.5 2065.66 1526.62 2078.4 1526.62L2079.09 1526.63ZM2008.5 1538.78C2000.4 1538.78 1993.84 1545.35 1993.84 1553.44C1993.84 1561.54 2000.4 1568.1 2008.5 1568.1C2016.6 1568.1 2023.16 1561.54 2023.16 1553.44C2023.16 1545.35 2016.6 1538.78 2008.5 1538.78ZM2078.4 1538.78C2070.3 1538.78 2063.74 1545.35 2063.74 1553.44C2063.74 1561.54 2070.3 1568.1 2078.4 1568.1C2086.49 1568.1 2093.06 1561.54 2093.06 1553.44C2093.06 1545.35 2086.49 1538.78 2078.4 1538.78Z" fill="black"/>
</g>
<g id="Medium-L">
<path id="Vector (Stroke)_5" d="M1758.28 1457.4C1762.45 1456.51 1766.7 1458.57 1768.57 1462.4L1768.75 1462.79L1787.78 1506.76C1787.91 1507.07 1788.01 1507.37 1788.09 1507.68H1810.16C1813.16 1507.68 1815.6 1510.12 1815.6 1513.12C1815.6 1516.13 1813.16 1518.56 1810.16 1518.56H1683.44C1680.44 1518.56 1678 1516.13 1678 1513.12C1678 1510.12 1680.44 1507.68 1683.44 1507.68H1703.28C1703.35 1507.34 1703.46 1507.01 1703.6 1506.68L1722.41 1462.82L1722.59 1462.43C1724.45 1458.59 1728.71 1456.51 1732.89 1457.41L1733.31 1457.51L1745.58 1460.74L1757.87 1457.5L1758.28 1457.4ZM1747.12 1471.59C1746.61 1471.72 1746.09 1471.78 1745.58 1471.76C1745.07 1471.78 1744.56 1471.72 1744.04 1471.59L1731.87 1468.38L1715.01 1507.68H1776.33L1759.31 1468.37L1747.12 1471.59Z" fill="black"/>
<path id="Union_5" d="M1781.81 1526.49C1796.3 1526.86 1807.94 1538.72 1807.94 1553.3L1807.93 1553.99C1807.56 1568.49 1795.7 1580.12 1781.12 1580.12L1780.42 1580.11C1768.24 1579.81 1758.08 1571.37 1755.15 1560.02C1751.3 1557.89 1748.58 1557.12 1746.17 1557.12C1743.76 1557.12 1741.03 1557.89 1737.19 1560.02C1734.21 1571.58 1723.71 1580.12 1711.22 1580.12L1710.53 1580.11C1696.27 1579.75 1684.77 1568.26 1684.41 1553.99L1684.4 1553.3C1684.4 1538.49 1696.41 1526.48 1711.22 1526.48L1711.91 1526.49C1724.56 1526.81 1735.04 1535.89 1737.49 1547.89C1740.34 1546.84 1743.2 1546.24 1746.17 1546.24C1749.14 1546.24 1751.99 1546.84 1754.84 1547.89C1757.34 1535.67 1768.16 1526.48 1781.12 1526.48L1781.81 1526.49ZM1711.22 1537.36C1702.42 1537.36 1695.28 1544.5 1695.28 1553.3C1695.28 1562.11 1702.42 1569.24 1711.22 1569.24C1720.02 1569.24 1727.16 1562.11 1727.16 1553.3C1727.16 1544.5 1720.02 1537.36 1711.22 1537.36ZM1781.12 1537.36C1772.31 1537.36 1765.18 1544.5 1765.18 1553.3C1765.18 1562.11 1772.31 1569.24 1781.12 1569.24C1789.92 1569.24 1797.06 1562.11 1797.06 1553.3C1797.06 1544.5 1789.92 1537.36 1781.12 1537.36Z" fill="black"/>
</g>
<g id="Regular-L">
<path id="Vector (Stroke)_6" d="M1461.46 1458.95C1465.42 1457.93 1469.54 1459.83 1471.34 1463.46L1471.51 1463.82L1491.02 1507.91H1513.52C1516.17 1507.91 1518.32 1510.05 1518.32 1512.71C1518.32 1515.36 1516.17 1517.51 1513.52 1517.51H1410.54C1410.5 1517.51 1410.46 1517.51 1410.42 1517.51H1386.8C1384.15 1517.51 1382 1515.36 1382 1512.71C1382 1510.05 1384.15 1507.91 1386.8 1507.91H1407.35L1426.37 1463.89L1426.54 1463.53C1428.27 1459.98 1432.2 1458.06 1436.07 1458.86L1436.45 1458.95L1448.94 1462.17L1461.46 1458.95ZM1450.29 1471.73C1449.83 1471.85 1449.37 1471.89 1448.92 1471.88C1448.49 1471.89 1448.04 1471.84 1447.59 1471.73L1434.86 1468.46L1417.81 1507.91H1480.53L1463.06 1468.45L1450.29 1471.73Z" fill="black"/>
<path id="Union_6" d="M1485.81 1526.08C1500.3 1526.44 1511.94 1538.31 1511.94 1552.89L1511.93 1553.58C1511.56 1568.07 1499.7 1579.71 1485.12 1579.71L1484.42 1579.7C1471.94 1579.38 1461.57 1570.53 1458.94 1558.77C1455.31 1556.81 1452.61 1556.06 1450.17 1556.06C1447.73 1556.06 1445.03 1556.81 1441.39 1558.77C1438.71 1570.75 1428.01 1579.71 1415.22 1579.71L1414.53 1579.7C1400.27 1579.34 1388.77 1567.84 1388.41 1553.58L1388.4 1552.89C1388.4 1538.08 1400.41 1526.07 1415.22 1526.07L1415.91 1526.08C1428.79 1526.4 1439.4 1535.8 1441.62 1548.12C1444.44 1547.06 1447.25 1546.46 1450.17 1546.46C1453.09 1546.46 1455.9 1547.06 1458.72 1548.12C1460.97 1535.58 1471.93 1526.07 1485.12 1526.07L1485.81 1526.08ZM1415.22 1535.67C1405.71 1535.67 1398 1543.38 1398 1552.89C1398 1562.4 1405.71 1570.11 1415.22 1570.11C1424.73 1570.11 1432.44 1562.4 1432.44 1552.89C1432.44 1543.38 1424.73 1535.67 1415.22 1535.67ZM1485.12 1535.67C1475.61 1535.67 1467.9 1543.38 1467.9 1552.89C1467.9 1562.4 1475.61 1570.11 1485.12 1570.11C1494.63 1570.11 1502.34 1562.4 1502.34 1552.89C1502.34 1543.38 1494.63 1535.67 1485.12 1535.67Z" fill="black"/>
</g>
<g id="Light-L">
<path id="Vector (Stroke)_7" d="M1163.67 1458.7C1167.34 1457.73 1171.17 1459.59 1172.68 1463.08L1192.53 1508.93H1215.56C1217.68 1508.93 1219.4 1510.65 1219.4 1512.77C1219.4 1514.89 1217.68 1516.61 1215.56 1516.61H1088.84C1086.72 1516.61 1085 1514.89 1085 1512.77C1085 1510.65 1086.72 1508.93 1088.84 1508.93H1109.69L1129.28 1463.11C1130.78 1459.61 1134.62 1457.73 1138.3 1458.7L1150.98 1462.05L1163.67 1458.7ZM1152.11 1469.69C1151.74 1469.79 1151.37 1469.83 1151 1469.81C1150.99 1469.81 1150.99 1469.81 1150.98 1469.81C1150.98 1469.81 1150.97 1469.81 1150.96 1469.81C1150.6 1469.83 1150.22 1469.79 1149.85 1469.69L1136.34 1466.13L1118.04 1508.93H1184.16L1165.63 1466.13L1152.11 1469.69Z" fill="black"/>
<path id="Union_7" d="M1187.06 1526.14C1201.55 1526.51 1213.19 1538.37 1213.19 1552.95L1213.18 1553.64C1212.81 1568.14 1200.95 1579.77 1186.37 1579.77L1185.68 1579.76C1172.77 1579.44 1162.12 1569.99 1159.95 1557.62C1156.57 1555.89 1153.91 1555.17 1151.42 1555.17C1148.94 1555.17 1146.27 1555.89 1142.89 1557.62C1140.68 1570.21 1129.69 1579.77 1116.47 1579.77L1115.78 1579.76C1101.52 1579.4 1090.02 1567.91 1089.66 1553.64L1089.65 1552.95C1089.65 1538.14 1101.66 1526.13 1116.47 1526.13L1117.17 1526.14C1130.37 1526.48 1141.21 1536.36 1143.02 1549.15C1145.82 1548.08 1148.58 1547.49 1151.42 1547.49C1154.27 1547.49 1157.02 1548.08 1159.82 1549.15C1161.66 1536.14 1172.85 1526.13 1186.37 1526.13L1187.06 1526.14ZM1116.47 1533.81C1105.9 1533.81 1097.33 1542.38 1097.33 1552.95C1097.33 1563.52 1105.9 1572.09 1116.47 1572.09C1127.04 1572.09 1135.6 1563.53 1135.61 1552.97L1135.59 1552.93C1135.6 1552.93 1135.61 1552.92 1135.61 1552.92C1135.6 1542.36 1127.03 1533.81 1116.47 1533.81ZM1186.37 1533.81C1175.81 1533.81 1167.25 1542.36 1167.23 1552.92C1167.24 1552.93 1167.24 1552.93 1167.25 1552.93L1167.23 1552.97C1167.24 1563.53 1175.8 1572.09 1186.37 1572.09C1196.94 1572.09 1205.51 1563.52 1205.51 1552.95C1205.51 1542.38 1196.94 1533.81 1186.37 1533.81Z" fill="black"/>
</g>
<g id="Thin-L">
<path id="Vector (Stroke)_8" d="M867.841 1461.6C870.836 1460.85 873.94 1462.34 875.22 1465.15L895.377 1509.38H919.28C920.694 1509.38 921.84 1510.53 921.84 1511.94C921.84 1513.36 920.694 1514.5 919.28 1514.5H792.56C791.146 1514.5 790 1513.36 790 1511.94C790 1510.53 791.146 1509.38 792.56 1509.38H814.291L834.185 1465.18C835.457 1462.36 838.57 1460.85 841.576 1461.6L854.701 1464.89L867.841 1461.6ZM870.561 1467.27C870.305 1466.71 869.684 1466.41 869.085 1466.56L855.479 1469.97C855.216 1470.04 854.953 1470.06 854.696 1470.04C854.443 1470.06 854.184 1470.04 853.925 1469.97L840.332 1466.57C839.731 1466.42 839.108 1466.72 838.854 1467.28L819.906 1509.38H889.751L870.561 1467.27Z" fill="black"/>
<path id="Union_8" d="M891.249 1525.31C905.742 1525.68 917.378 1537.54 917.378 1552.12L917.369 1552.82C917.002 1567.31 905.139 1578.94 890.558 1578.94L889.865 1578.94C876.423 1578.59 865.44 1568.36 863.918 1555.25C860.776 1553.74 858.14 1553.06 855.61 1553.06C853.079 1553.06 850.441 1553.74 847.299 1555.25C845.75 1568.59 834.416 1578.94 820.661 1578.94L819.969 1578.94C805.706 1578.57 794.21 1567.08 793.849 1552.82L793.84 1552.12C793.84 1537.31 805.849 1525.3 820.661 1525.3L821.353 1525.31C835.01 1525.66 846.128 1536.21 847.365 1549.63C850.152 1548.53 852.848 1547.94 855.61 1547.94C858.371 1547.94 861.066 1548.53 863.853 1549.63C865.11 1535.99 876.586 1525.3 890.558 1525.3L891.249 1525.31ZM820.661 1530.42C808.677 1530.42 798.96 1540.14 798.96 1552.12C798.96 1564.11 808.677 1573.82 820.661 1573.82C832.646 1573.82 842.361 1564.11 842.361 1552.12C842.361 1540.14 832.646 1530.42 820.661 1530.42ZM890.558 1530.42C878.573 1530.42 868.856 1540.14 868.856 1552.12C868.857 1564.11 878.573 1573.82 890.558 1573.82C902.542 1573.82 912.257 1564.11 912.258 1552.12C912.258 1540.14 902.542 1530.42 890.558 1530.42Z" fill="black"/>
</g>
<g id="Ultralight-L">
<path id="Vector (Stroke)_9" d="M571.115 1459.32C573.661 1458.68 576.298 1459.95 577.386 1462.34L597.8 1507.13H622.32C623.204 1507.13 623.92 1507.85 623.92 1508.73C623.92 1509.62 623.204 1510.33 622.32 1510.33H495.6C494.716 1510.33 494 1509.62 494 1508.73C494 1507.85 494.716 1507.13 495.6 1507.13H517.951L538.101 1462.37C539.182 1459.96 541.829 1458.68 544.384 1459.32L557.742 1462.67L571.115 1459.32ZM574.475 1463.67C574.027 1462.68 572.941 1462.16 571.892 1462.42L558.285 1465.83C558.101 1465.88 557.916 1465.89 557.737 1465.87C557.561 1465.88 557.379 1465.88 557.197 1465.83L543.606 1462.43C542.554 1462.16 541.464 1462.69 541.019 1463.68L521.46 1507.13H594.284L574.475 1463.67Z" fill="black"/>
<path id="Union_9" d="M593.969 1522.1C608.462 1522.47 620.098 1534.33 620.098 1548.91L620.089 1549.61C619.722 1564.1 607.859 1575.73 593.278 1575.73L592.585 1575.73C578.766 1575.38 567.543 1564.57 566.53 1550.93C563.554 1549.56 560.954 1548.9 558.415 1548.89C555.82 1548.87 553.169 1549.53 550.126 1550.93C549.096 1564.8 537.516 1575.73 523.381 1575.73L522.689 1575.73C508.426 1575.36 496.93 1563.87 496.569 1549.61L496.56 1548.91C496.56 1534.1 508.569 1522.09 523.381 1522.09L524.073 1522.1C538.069 1522.46 549.399 1533.53 550.159 1547.43C552.996 1546.27 555.691 1545.67 558.433 1545.69C561.103 1545.7 563.733 1546.3 566.498 1547.43C567.27 1533.31 578.965 1522.09 593.278 1522.09L593.969 1522.1ZM523.381 1525.29C510.336 1525.29 499.76 1535.87 499.76 1548.91C499.76 1561.96 510.336 1572.53 523.381 1572.53C536.426 1572.53 547.001 1561.96 547.001 1548.91C547.001 1535.87 536.426 1525.29 523.381 1525.29ZM593.278 1525.29C580.232 1525.29 569.656 1535.87 569.656 1548.91C569.657 1561.96 580.233 1572.53 593.278 1572.53C606.323 1572.53 616.897 1561.96 616.898 1548.91C616.898 1535.87 606.323 1525.29 593.278 1525.29Z" fill="black"/>
</g>
<g id="Black-M">
<path id="Vector (Stroke)_10" d="M2941.11 1038.55C2946.01 1037.11 2951.21 1039.4 2953.47 1043.93L2953.68 1044.38L2968.16 1077.14H2983.05C2987.2 1077.14 2990.55 1080.5 2990.55 1084.64C2990.55 1088.79 2987.2 1092.14 2983.05 1092.14H2884C2879.86 1092.14 2876.5 1088.79 2876.5 1084.64C2876.5 1080.5 2879.86 1077.14 2884 1077.14H2897.12L2911.46 1044.41C2913.52 1039.72 2918.64 1037.22 2923.57 1038.42L2924.04 1038.55L2932.57 1041.06L2941.11 1038.55ZM2934.81 1056.04C2934.07 1056.26 2933.31 1056.35 2932.57 1056.34C2931.84 1056.35 2931.08 1056.26 2930.34 1056.04L2923.61 1054.06L2913.5 1077.14H2951.76L2941.56 1054.05L2934.81 1056.04Z" fill="black"/>
<path id="Union_10" d="M2960.74 1095.44C2972.06 1095.73 2981.15 1105 2981.15 1116.39L2981.14 1116.93C2980.85 1128.25 2971.59 1137.34 2960.2 1137.34L2959.65 1137.34C2951.37 1137.13 2944.28 1132.1 2941.07 1124.96C2940.62 1124.79 2940.18 1124.58 2939.76 1124.32C2936.12 1122.08 2934.21 1121.62 2932.89 1121.62C2931.58 1121.62 2929.66 1122.08 2926.03 1124.32C2925.6 1124.58 2925.16 1124.79 2924.71 1124.96C2921.44 1132.26 2914.11 1137.34 2905.59 1137.34L2905.05 1137.34C2893.91 1137.06 2884.92 1128.07 2884.64 1116.93L2884.63 1116.39C2884.63 1104.82 2894.02 1095.44 2905.59 1095.44L2906.13 1095.44C2914.55 1095.66 2921.73 1100.84 2924.86 1108.16C2927.42 1107.2 2930.07 1106.62 2932.89 1106.62C2935.71 1106.62 2938.36 1107.2 2940.92 1108.16C2944.12 1100.68 2951.54 1095.44 2960.2 1095.44L2960.74 1095.44ZM2905.59 1110.44C2902.3 1110.44 2899.63 1113.1 2899.63 1116.39C2899.63 1119.68 2902.3 1122.34 2905.59 1122.34C2908.88 1122.34 2911.54 1119.68 2911.54 1116.39C2911.54 1113.1 2908.88 1110.44 2905.59 1110.44ZM2960.2 1110.44C2956.91 1110.44 2954.24 1113.1 2954.24 1116.39C2954.24 1119.68 2956.91 1122.34 2960.2 1122.34C2963.48 1122.34 2966.15 1119.68 2966.15 1116.39C2966.15 1113.1 2963.48 1110.44 2960.2 1110.44Z" fill="black"/>
</g>
<g id="Heavy-M">
<path id="Vector (Stroke)_11" d="M2644.85 1037.39C2649.26 1036.3 2653.85 1038.51 2655.75 1042.68L2670.51 1075.14H2686.05C2689.64 1075.14 2692.55 1078.05 2692.55 1081.64C2692.55 1085.23 2689.64 1088.14 2686.05 1088.14H2587C2583.41 1088.14 2580.5 1085.23 2580.5 1081.64C2580.5 1078.05 2583.41 1075.14 2587 1075.14H2600.78L2615.39 1042.71L2615.58 1042.31C2617.64 1038.25 2622.33 1036.21 2626.73 1037.5L2635.57 1040.1L2644.42 1037.5L2644.85 1037.39ZM2637.53 1053.08C2636.87 1053.27 2636.21 1053.35 2635.56 1053.34C2634.92 1053.35 2634.27 1053.27 2633.62 1053.08L2625.99 1050.83L2615.04 1075.14H2656.23L2645.17 1050.83L2637.53 1053.08Z" fill="black"/>
<path id="Union_11" d="M2663.74 1092.44C2675.06 1092.73 2684.15 1102 2684.15 1113.39L2684.14 1113.93C2683.85 1125.25 2674.59 1134.34 2663.2 1134.34L2662.65 1134.34C2653.85 1134.11 2646.4 1128.46 2643.52 1120.61C2643.44 1120.56 2643.36 1120.52 2643.28 1120.47C2639.58 1118.19 2637.47 1117.62 2635.89 1117.62C2634.31 1117.62 2632.2 1118.19 2628.5 1120.47C2628.43 1120.52 2628.35 1120.56 2628.27 1120.61C2625.33 1128.62 2617.63 1134.34 2608.59 1134.34L2608.05 1134.34C2596.91 1134.06 2587.92 1125.07 2587.64 1113.93L2587.63 1113.39C2587.63 1101.82 2597.02 1092.44 2608.59 1092.44L2609.13 1092.44C2617.9 1092.67 2625.33 1098.28 2628.23 1106.09C2630.69 1105.17 2633.22 1104.62 2635.89 1104.62C2638.56 1104.62 2641.09 1105.17 2643.55 1106.09C2646.51 1098.12 2654.19 1092.44 2663.2 1092.44L2663.74 1092.44ZM2608.59 1105.44C2604.2 1105.44 2600.63 1109 2600.63 1113.39C2600.63 1117.78 2604.2 1121.34 2608.59 1121.34C2612.98 1121.34 2616.54 1117.78 2616.54 1113.39C2616.54 1109 2612.98 1105.44 2608.59 1105.44ZM2663.2 1105.44C2658.8 1105.44 2655.24 1109 2655.24 1113.39C2655.24 1117.78 2658.8 1121.34 2663.2 1121.34C2667.59 1121.34 2671.15 1117.78 2671.15 1113.39C2671.15 1109 2667.59 1105.44 2663.2 1105.44Z" fill="black"/>
</g>
<g id="Bold-M">
<path id="Vector (Stroke)_12" d="M2347.77 1041.22C2351.55 1040.43 2355.39 1042.29 2357.11 1045.74L2357.28 1046.09L2372.11 1079.5H2388.5C2391.54 1079.5 2394 1081.96 2394 1085C2394 1088.04 2391.54 1090.5 2388.5 1090.5H2289.5C2286.46 1090.5 2284 1088.04 2284 1085C2284 1081.96 2286.46 1079.5 2289.5 1079.5H2304.13L2318.81 1046.12L2318.98 1045.76C2320.75 1042.18 2324.8 1040.3 2328.71 1041.31L2338.05 1043.71L2347.39 1041.31L2347.77 1041.22ZM2339.54 1054.68C2339.04 1054.81 2338.54 1054.87 2338.05 1054.85C2337.56 1054.87 2337.06 1054.81 2336.56 1054.68L2328.03 1052.49L2316.14 1079.5H2360.08L2348.08 1052.49L2339.54 1054.68Z" fill="black"/>
<path id="Union_12" d="M2367.35 1095.44C2378.67 1095.73 2387.76 1105 2387.76 1116.39L2387.76 1116.93C2387.47 1128.25 2378.2 1137.34 2366.81 1137.34L2366.27 1137.34C2357.39 1137.11 2349.88 1131.36 2347.06 1123.4C2343.5 1121.26 2341.3 1120.62 2339.51 1120.62C2337.71 1120.62 2335.51 1121.26 2331.96 1123.4C2329.07 1131.52 2321.32 1137.34 2312.2 1137.34L2311.66 1137.34C2300.52 1137.06 2291.54 1128.07 2291.26 1116.93L2291.25 1116.39C2291.25 1104.82 2300.63 1095.44 2312.2 1095.44L2312.74 1095.44C2322.19 1095.68 2330.08 1102.18 2332.44 1110.94C2334.73 1110.1 2337.06 1109.62 2339.51 1109.62C2341.95 1109.62 2344.28 1110.1 2346.57 1110.94C2348.97 1102.01 2357.12 1095.44 2366.81 1095.44L2367.35 1095.44ZM2312.2 1106.44C2306.71 1106.44 2302.25 1110.89 2302.25 1116.39C2302.25 1121.89 2306.71 1126.34 2312.2 1126.34C2317.7 1126.34 2322.16 1121.89 2322.16 1116.39C2322.16 1110.89 2317.7 1106.44 2312.2 1106.44ZM2366.81 1106.44C2361.31 1106.44 2356.86 1110.89 2356.86 1116.39C2356.86 1121.89 2361.31 1126.34 2366.81 1126.34C2372.31 1126.34 2376.76 1121.89 2376.76 1116.39C2376.76 1110.89 2372.31 1106.44 2366.81 1106.44Z" fill="black"/>
</g>
<g id="Semibold-M">
<path id="Vector (Stroke)_13" d="M2052.12 1040.98C2055.6 1040.23 2059.15 1041.96 2060.71 1045.16L2060.86 1045.48L2075.73 1079.83C2075.79 1079.97 2075.84 1080.11 2075.88 1080.25H2092.75C2095.37 1080.25 2097.5 1082.38 2097.5 1085C2097.5 1087.62 2095.37 1089.75 2092.75 1089.75H1993.75C1991.13 1089.75 1989 1087.62 1989 1085C1989 1082.38 1991.13 1080.25 1993.75 1080.25H2008.87C2008.91 1080.09 2008.97 1079.93 2009.04 1079.77L2023.74 1045.51C2025.21 1042.09 2028.88 1040.21 2032.49 1040.98L2032.84 1041.07L2042.3 1043.56L2051.77 1041.06L2052.12 1040.98ZM2043.63 1053.04C2043.18 1053.15 2042.73 1053.2 2042.29 1053.19C2041.85 1053.2 2041.41 1053.15 2040.97 1053.04L2031.87 1050.64L2019.17 1080.25H2065.56L2052.74 1050.63L2043.63 1053.04Z" fill="black"/>
<path id="Union_13" d="M2071.1 1095.44C2082.42 1095.73 2091.51 1105 2091.51 1116.39L2091.51 1116.93C2091.22 1128.25 2081.95 1137.34 2070.56 1137.34L2070.02 1137.34C2060.74 1137.1 2052.97 1130.84 2050.46 1122.32C2047.26 1120.49 2045.11 1119.87 2043.26 1119.87C2041.41 1119.87 2039.25 1120.49 2036.05 1122.32C2033.5 1131.01 2025.47 1137.34 2015.95 1137.34L2015.41 1137.34C2004.27 1137.06 1995.29 1128.07 1995.01 1116.93L1995 1116.39C1995 1104.82 2004.38 1095.44 2015.95 1095.44L2016.49 1095.44C2026.2 1095.69 2034.27 1102.54 2036.37 1111.67C2038.62 1110.84 2040.89 1110.37 2043.26 1110.37C2045.63 1110.37 2047.89 1110.84 2050.14 1111.67C2052.28 1102.37 2060.61 1095.44 2070.56 1095.44L2071.1 1095.44ZM2015.95 1104.94C2009.63 1104.94 2004.5 1110.07 2004.5 1116.39C2004.5 1122.72 2009.63 1127.84 2015.95 1127.84C2022.28 1127.84 2027.41 1122.72 2027.41 1116.39C2027.41 1110.07 2022.28 1104.94 2015.95 1104.94ZM2070.56 1104.94C2064.24 1104.94 2059.11 1110.07 2059.11 1116.39C2059.11 1122.72 2064.24 1127.84 2070.56 1127.84C2076.89 1127.84 2082.01 1122.72 2082.01 1116.39C2082.01 1110.07 2076.89 1104.94 2070.56 1104.94Z" fill="black"/>
</g>
<g id="Medium-M">
<path id="Vector (Stroke)_14" d="M1755.72 1041.47C1758.98 1040.77 1762.3 1042.38 1763.76 1045.37L1763.9 1045.68L1778.77 1080.03C1778.87 1080.27 1778.95 1080.51 1779 1080.75H1796.25C1798.6 1080.75 1800.5 1082.65 1800.5 1085C1800.5 1087.35 1798.6 1089.25 1796.25 1089.25H1697.25C1694.9 1089.25 1693 1087.35 1693 1085C1693 1082.65 1694.9 1080.75 1697.25 1080.75H1712.75C1712.81 1080.49 1712.89 1080.22 1713 1079.97L1727.7 1045.7L1727.84 1045.4C1729.29 1042.39 1732.62 1040.77 1735.88 1041.47L1736.21 1041.55L1745.8 1044.08L1755.4 1041.55L1755.72 1041.47ZM1747 1052.55C1746.6 1052.66 1746.19 1052.7 1745.8 1052.69C1745.4 1052.7 1745 1052.66 1744.59 1052.55L1735.08 1050.04L1721.91 1080.75H1769.82L1756.52 1050.04L1747 1052.55Z" fill="black"/>
<path id="Union_14" d="M1774.1 1095.44C1785.42 1095.73 1794.51 1105 1794.51 1116.39L1794.51 1116.93C1794.22 1128.25 1784.95 1137.34 1773.56 1137.34L1773.02 1137.34C1763.5 1137.1 1755.56 1130.51 1753.27 1121.64C1750.27 1119.97 1748.14 1119.37 1746.26 1119.37C1744.38 1119.37 1742.24 1119.97 1739.24 1121.64C1736.91 1130.67 1728.71 1137.34 1718.95 1137.34L1718.41 1137.34C1707.27 1137.06 1698.29 1128.07 1698.01 1116.93L1698 1116.39C1698 1104.82 1707.38 1095.44 1718.95 1095.44L1719.49 1095.44C1729.38 1095.69 1737.56 1102.79 1739.48 1112.17C1741.7 1111.34 1743.93 1110.87 1746.26 1110.87C1748.58 1110.87 1750.81 1111.34 1753.03 1112.17C1754.99 1102.62 1763.44 1095.44 1773.56 1095.44L1774.1 1095.44ZM1718.95 1103.94C1712.08 1103.94 1706.5 1109.51 1706.5 1116.39C1706.5 1123.27 1712.08 1128.84 1718.95 1128.84C1725.83 1128.84 1731.41 1123.27 1731.41 1116.39C1731.41 1109.51 1725.83 1103.94 1718.95 1103.94ZM1773.56 1103.94C1766.68 1103.94 1761.11 1109.51 1761.11 1116.39C1761.11 1123.27 1766.68 1128.84 1773.56 1128.84C1780.44 1128.84 1786.01 1123.27 1786.01 1116.39C1786.01 1109.51 1780.44 1103.94 1773.56 1103.94Z" fill="black"/>
</g>
<g id="Regular-M">
<path id="Vector (Stroke)_15" d="M1459.08 1043C1462.17 1042.2 1465.39 1043.69 1466.8 1046.53L1466.93 1046.81L1482.17 1081.25H1499.75C1501.82 1081.25 1503.5 1082.93 1503.5 1085C1503.5 1087.07 1501.82 1088.75 1499.75 1088.75H1419.3C1419.27 1088.75 1419.24 1088.75 1419.21 1088.75H1400.75C1398.68 1088.75 1397 1087.07 1397 1085C1397 1082.93 1398.68 1081.25 1400.75 1081.25H1416.8L1431.66 1046.87L1431.79 1046.58C1433.15 1043.81 1436.22 1042.3 1439.24 1042.94L1439.54 1043.01L1449.3 1045.52L1459.08 1043ZM1450.35 1052.99C1449.99 1053.08 1449.64 1053.12 1449.28 1053.1C1448.94 1053.11 1448.59 1053.08 1448.24 1052.99L1438.29 1050.43L1424.97 1081.25H1473.97L1460.33 1050.42L1450.35 1052.99Z" fill="black"/>
<path id="Union_15" d="M1478.1 1095.44C1489.42 1095.73 1498.51 1105 1498.51 1116.39L1498.51 1116.93C1498.22 1128.25 1488.95 1137.34 1477.56 1137.34L1477.02 1137.34C1467.27 1137.09 1459.17 1130.18 1457.11 1120.98C1454.27 1119.46 1452.16 1118.87 1450.26 1118.87C1448.35 1118.87 1446.24 1119.46 1443.4 1120.99C1441.31 1130.35 1432.95 1137.34 1422.95 1137.34L1422.41 1137.34C1411.27 1137.06 1402.29 1128.07 1402.01 1116.93L1402 1116.39C1402 1104.82 1411.38 1095.44 1422.95 1095.44L1423.49 1095.44C1433.55 1095.7 1441.85 1103.04 1443.58 1112.66C1445.78 1111.84 1447.98 1111.37 1450.26 1111.37C1452.54 1111.37 1454.73 1111.84 1456.94 1112.66C1458.7 1102.87 1467.26 1095.44 1477.56 1095.44L1478.1 1095.44ZM1422.95 1102.94C1415.52 1102.94 1409.5 1108.96 1409.5 1116.39C1409.5 1123.82 1415.52 1129.84 1422.95 1129.84C1430.38 1129.84 1436.41 1123.82 1436.41 1116.39C1436.41 1108.96 1430.38 1102.94 1422.95 1102.94ZM1477.56 1102.94C1470.13 1102.94 1464.11 1108.96 1464.11 1116.39C1464.11 1123.82 1470.13 1129.84 1477.56 1129.84C1484.99 1129.84 1491.01 1123.82 1491.01 1116.39C1491.01 1108.96 1484.99 1102.94 1477.56 1102.94Z" fill="black"/>
</g>
<g id="Light-M">
<path id="Vector (Stroke)_16" d="M1161.46 1042.76C1164.33 1042 1167.32 1043.45 1168.5 1046.17L1184.01 1082H1202C1203.66 1082 1205 1083.34 1205 1085C1205 1086.66 1203.66 1088 1202 1088H1103C1101.34 1088 1100 1086.66 1100 1085C1100 1083.34 1101.34 1082 1103 1082H1119.29L1134.6 1046.2C1135.77 1043.47 1138.77 1042 1141.64 1042.76L1151.55 1045.37L1161.46 1042.76ZM1152.43 1051.34C1152.14 1051.42 1151.85 1051.45 1151.56 1051.44C1151.56 1051.44 1151.55 1051.44 1151.55 1051.44C1151.54 1051.44 1151.54 1051.44 1151.54 1051.44C1151.25 1051.45 1150.95 1051.42 1150.66 1051.34L1140.11 1048.56L1125.82 1082H1177.47L1162.99 1048.56L1152.43 1051.34Z" fill="black"/>
<path id="Union_16" d="M1179.74 1095.44C1191.06 1095.73 1200.15 1105 1200.15 1116.39L1200.14 1116.93C1199.85 1128.25 1190.59 1137.34 1179.2 1137.34L1178.65 1137.34C1168.57 1137.08 1160.25 1129.7 1158.56 1120.04C1155.91 1118.68 1153.83 1118.12 1151.89 1118.12C1149.95 1118.12 1147.87 1118.68 1145.23 1120.04C1143.5 1129.87 1134.92 1137.34 1124.59 1137.34L1124.05 1137.34C1112.91 1137.06 1103.92 1128.07 1103.64 1116.93L1103.63 1116.39C1103.63 1104.82 1113.02 1095.44 1124.59 1095.44L1125.13 1095.44C1135.45 1095.71 1143.91 1103.43 1145.33 1113.42C1147.52 1112.58 1149.67 1112.12 1151.89 1112.12C1154.11 1112.12 1156.27 1112.58 1158.45 1113.42C1159.89 1103.25 1168.63 1095.44 1179.2 1095.44L1179.74 1095.44ZM1124.59 1101.44C1116.33 1101.44 1109.63 1108.13 1109.63 1116.39C1109.63 1124.65 1116.33 1131.34 1124.59 1131.34C1132.84 1131.34 1139.53 1124.66 1139.54 1116.4L1139.53 1116.38C1139.53 1116.37 1139.54 1116.37 1139.54 1116.37C1139.53 1108.12 1132.84 1101.44 1124.59 1101.44ZM1179.2 1101.44C1170.95 1101.44 1164.25 1108.12 1164.24 1116.37C1164.25 1116.37 1164.25 1116.37 1164.26 1116.38L1164.24 1116.4C1164.25 1124.66 1170.94 1131.34 1179.2 1131.34C1187.45 1131.34 1194.15 1124.65 1194.15 1116.39C1194.15 1108.13 1187.45 1101.44 1179.2 1101.44Z" fill="black"/>
</g>
<g id="Thin-M">
<path id="Vector (Stroke)_17" d="M865.813 1045.67C868.153 1045.08 870.578 1046.25 871.578 1048.44L887.326 1083H906C907.105 1083 908 1083.9 908 1085C908 1086.1 907.105 1087 906 1087H807C805.895 1087 805 1086.1 805 1085C805 1083.9 805.895 1083 807 1083H823.978L839.52 1048.47C840.513 1046.26 842.946 1045.08 845.294 1045.67L855.548 1048.24L865.813 1045.67ZM867.938 1050.1C867.738 1049.66 867.253 1049.43 866.785 1049.55L856.155 1052.21C855.95 1052.26 855.744 1052.28 855.544 1052.27C855.346 1052.28 855.144 1052.26 854.941 1052.21L844.322 1049.55C843.853 1049.43 843.366 1049.67 843.167 1050.11L828.364 1083H882.931L867.938 1050.1Z" fill="black"/>
<path id="Union_17" d="M884.101 1095.44C895.423 1095.73 904.514 1105 904.514 1116.39L904.507 1116.93C904.22 1128.25 894.952 1137.34 883.561 1137.34L883.02 1137.34C872.518 1137.07 863.937 1129.08 862.748 1118.83C860.294 1117.65 858.235 1117.12 856.258 1117.12C854.28 1117.12 852.22 1117.65 849.765 1118.83C848.555 1129.26 839.7 1137.34 828.954 1137.34L828.413 1137.34C817.27 1137.06 808.289 1128.07 808.007 1116.93L808 1116.39C808 1104.82 817.382 1095.44 828.954 1095.44L829.494 1095.44C840.164 1095.71 848.85 1103.96 849.816 1114.44C851.994 1113.58 854.1 1113.12 856.258 1113.12C858.415 1113.12 860.52 1113.58 862.697 1114.44C863.68 1103.78 872.645 1095.44 883.561 1095.44L884.101 1095.44ZM828.954 1099.44C819.591 1099.44 812 1107.03 812 1116.39C812 1125.75 819.591 1133.34 828.954 1133.34C838.317 1133.34 845.907 1125.75 845.907 1116.39C845.907 1107.03 838.317 1099.44 828.954 1099.44ZM883.561 1099.44C874.197 1099.44 866.606 1107.03 866.606 1116.39C866.607 1125.75 874.198 1133.34 883.561 1133.34C892.923 1133.34 900.513 1125.75 900.514 1116.39C900.514 1107.03 892.924 1099.44 883.561 1099.44Z" fill="black"/>
</g>
<g id="Ultralight-M">
<path id="Vector (Stroke)_18" d="M569.246 1043.39C571.235 1042.9 573.295 1043.89 574.146 1045.75L590.094 1080.75H609.25C609.94 1080.75 610.5 1081.31 610.5 1082C610.5 1082.69 609.94 1083.25 609.25 1083.25H510.25C509.56 1083.25 509 1082.69 509 1082C509 1081.31 509.56 1080.75 510.25 1080.75H527.712L543.454 1045.78C544.299 1043.9 546.366 1042.9 548.362 1043.4L558.799 1046.01L569.246 1043.39ZM571.871 1046.79C571.521 1046.02 570.672 1045.61 569.854 1045.82L559.223 1048.48C559.079 1048.52 558.935 1048.53 558.795 1048.51C558.657 1048.52 558.515 1048.52 558.373 1048.48L547.755 1045.82C546.933 1045.62 546.081 1046.03 545.733 1046.8L530.453 1080.75H587.347L571.871 1046.79Z" fill="black"/>
<path id="Union_18" d="M587.101 1092.44C598.423 1092.73 607.514 1102 607.514 1113.39L607.507 1113.93C607.22 1125.25 597.952 1134.34 586.561 1134.34L586.02 1134.34C575.223 1134.06 566.456 1125.62 565.664 1114.96C563.339 1113.89 561.308 1113.38 559.324 1113.37C557.297 1113.36 555.225 1113.87 552.849 1114.96C552.044 1125.8 542.997 1134.34 531.954 1134.34L531.413 1134.34C520.27 1134.06 511.289 1125.07 511.007 1113.93L511 1113.39C511 1101.82 520.382 1092.44 531.954 1092.44L532.494 1092.44C543.429 1092.72 552.28 1101.38 552.874 1112.23C555.09 1111.33 557.196 1110.86 559.338 1110.87C561.424 1110.88 563.479 1111.35 565.639 1112.23C566.242 1101.2 575.379 1092.44 586.561 1092.44L587.101 1092.44ZM531.954 1094.94C521.763 1094.94 513.5 1103.2 513.5 1113.39C513.5 1123.58 521.763 1131.84 531.954 1131.84C542.145 1131.84 550.407 1123.58 550.407 1113.39C550.407 1103.2 542.146 1094.94 531.954 1094.94ZM586.561 1094.94C576.369 1094.94 568.106 1103.2 568.106 1113.39C568.107 1123.58 576.369 1131.84 586.561 1131.84C596.752 1131.84 605.013 1123.58 605.014 1113.39C605.014 1103.2 596.752 1094.94 586.561 1094.94Z" fill="black"/>
</g>
<g id="Black-S">
<path id="Vector_13" d="M2933.4 702.738C2956.59 702.738 2975.39 683.94 2975.39 660.746C2975.39 637.553 2956.59 618.754 2933.4 618.754C2910.2 618.754 2891.41 637.553 2891.41 660.746C2891.41 683.94 2910.2 702.738 2933.4 702.738ZM2933.4 688.578C2918.02 688.578 2905.57 676.127 2905.57 660.746C2905.57 645.365 2918.02 632.914 2933.4 632.914C2948.78 632.914 2961.23 645.365 2961.23 660.746C2961.23 676.127 2948.78 688.578 2933.4 688.578ZM2932.23 666.947C2935.16 666.947 2937.4 665.678 2937.99 663.871C2938.04 663.725 2938.09 663.529 2938.13 663.432C2938.77 662.211 2940.62 661.088 2942.24 660.111C2946.39 657.572 2947.75 655.522 2947.75 651.762C2947.75 645.414 2941.7 640.727 2933.5 640.727C2927.05 640.727 2922.02 643.119 2920.17 647.025C2919.77 647.856 2919.58 648.637 2919.58 649.565C2919.58 652.006 2921.44 654.252 2924.41 654.252C2926.22 654.252 2927.78 653.715 2928.81 652.348L2928.95 652.152C2929.98 650.785 2930.91 650.492 2931.98 650.492C2933.2 650.492 2934.33 651.566 2934.33 652.543C2934.33 654.154 2932.76 654.936 2930.03 656.791C2927.39 658.598 2925.78 660.258 2925.78 662.309C2925.78 662.357 2925.78 662.357 2925.78 662.406C2925.78 665.385 2928.08 666.947 2932.23 666.947ZM2932.27 680.18C2935.89 680.18 2938.43 678.275 2938.43 674.906C2938.43 671.586 2935.89 669.633 2932.27 669.633C2928.66 669.633 2926.02 671.537 2926.02 674.906C2926.02 678.275 2928.66 680.18 2932.27 680.18Z" stroke="black" stroke-width="0.5"/>
</g>
<g id="Heavy-S">
<path id="Vector_14" d="M2636.68 702.127C2659.54 702.127 2678.07 683.605 2678.07 660.746C2678.07 637.886 2659.54 619.364 2636.68 619.364C2613.83 619.364 2595.3 637.886 2595.3 660.746C2595.3 683.605 2613.83 702.127 2636.68 702.127ZM2636.68 689.557C2620.75 689.557 2607.88 676.668 2607.88 660.746C2607.88 644.823 2620.75 631.934 2636.68 631.934C2652.6 631.934 2665.49 644.823 2665.49 660.746C2665.49 676.668 2652.6 689.557 2636.68 689.557ZM2635.6 667.373C2638.35 667.373 2640.38 666.081 2640.83 664.297C2640.87 664.162 2640.9 663.99 2640.94 663.892C2641.43 662.476 2643.14 661.306 2644.98 660.157C2649.01 657.664 2650.74 655.567 2650.74 651.554C2650.74 645.114 2644.7 640.726 2636.87 640.726C2630.35 640.726 2625.46 643.269 2623.77 647.048C2623.41 647.843 2623.23 648.602 2623.23 649.472C2623.23 651.786 2625.01 653.744 2627.62 653.744C2629.35 653.744 2630.75 653.184 2631.73 651.898L2632.04 651.518C2633.21 649.99 2634.33 649.57 2635.64 649.57C2637.33 649.57 2638.69 650.828 2638.69 652.231C2638.69 654.073 2637.1 654.947 2634.24 656.894C2631.6 658.712 2629.84 660.465 2629.84 662.954C2629.84 663.002 2629.84 663.037 2629.84 663.086C2629.84 665.903 2631.88 667.373 2635.6 667.373ZM2635.61 680.248C2638.93 680.248 2641.36 678.344 2641.36 675.205C2641.36 672.093 2638.94 670.162 2635.61 670.162C2632.27 670.162 2629.78 672.067 2629.78 675.205C2629.78 678.333 2632.29 680.248 2635.61 680.248Z" stroke="black" stroke-width="0.5"/>
</g>
<g id="Bold-S">
<path id="Vector_15" d="M2339.96 701.444C2362.45 701.444 2380.69 683.231 2380.69 660.746C2380.69 638.261 2362.45 620.048 2339.96 620.048C2317.5 620.048 2299.27 638.261 2299.27 660.746C2299.27 683.231 2317.5 701.444 2339.96 701.444ZM2339.96 690.653C2323.44 690.653 2310.08 677.274 2310.08 660.746C2310.08 644.218 2323.44 630.839 2339.96 630.839C2356.49 630.839 2369.87 644.218 2369.87 660.746C2369.87 677.274 2356.49 690.653 2339.96 690.653ZM2338.99 667.851C2341.55 667.851 2343.33 666.532 2343.63 664.774C2343.65 664.652 2343.68 664.506 2343.7 664.408C2344.02 662.772 2345.58 661.552 2347.68 660.209C2351.56 657.768 2353.71 655.619 2353.71 651.322C2353.71 644.779 2347.68 640.727 2340.26 640.727C2333.67 640.727 2328.93 643.436 2327.42 647.074C2327.1 647.831 2326.93 648.563 2326.93 649.369C2326.93 651.542 2328.64 653.178 2330.83 653.178C2332.47 653.178 2333.69 652.592 2334.62 651.395L2335.11 650.81C2336.45 649.101 2337.77 648.539 2339.35 648.539C2341.58 648.539 2343.19 650.004 2343.19 651.884C2343.19 653.983 2341.58 654.96 2338.57 657.011C2335.94 658.842 2334.01 660.697 2334.01 663.676C2334.01 663.725 2334.01 663.798 2334.01 663.847C2334.01 666.483 2335.76 667.851 2338.99 667.851ZM2338.96 680.326C2341.94 680.326 2344.26 678.422 2344.26 675.541C2344.26 672.66 2341.97 670.756 2338.96 670.756C2335.94 670.756 2333.59 672.66 2333.59 675.541C2333.59 678.397 2335.96 680.326 2338.96 680.326Z" stroke="black" stroke-width="0.5"/>
</g>
<g id="Semibold-S">
<path id="Vector_16" d="M2043.25 700.973C2065.48 700.973 2083.51 682.973 2083.51 660.746C2083.51 638.518 2065.48 620.519 2043.25 620.519C2021.06 620.519 2003.03 638.518 2003.03 660.746C2003.03 682.973 2021.06 700.973 2043.25 700.973ZM2043.25 691.408C2026.31 691.408 2012.62 677.692 2012.62 660.746C2012.62 643.8 2026.31 630.083 2043.25 630.083C2060.2 630.083 2073.92 643.8 2073.92 660.746C2073.92 677.692 2060.2 691.408 2043.25 691.408ZM2042.35 668.179C2044.78 668.179 2046.39 666.843 2046.58 665.103C2046.59 664.99 2046.61 664.861 2046.62 664.763C2046.83 662.977 2048.28 661.72 2050.56 660.244C2054.34 657.838 2056.78 655.654 2056.78 651.162C2056.78 644.548 2050.75 640.726 2043.62 640.726C2036.97 640.726 2032.34 643.552 2030.95 647.092C2030.66 647.822 2030.5 648.537 2030.5 649.298C2030.5 651.373 2032.16 652.786 2034.07 652.786C2035.64 652.786 2036.74 652.183 2037.63 651.049L2038.24 650.321C2039.7 648.487 2041.16 647.828 2042.94 647.828C2045.52 647.828 2047.31 649.435 2047.31 651.644C2047.31 653.921 2045.68 654.969 2042.58 657.09C2039.94 658.93 2037.9 660.857 2037.9 664.173C2037.9 664.222 2037.9 664.322 2037.9 664.371C2037.9 666.883 2039.46 668.179 2042.35 668.179ZM2042.3 680.379C2045.04 680.379 2047.28 678.475 2047.28 675.772C2047.28 673.051 2045.08 671.164 2042.3 671.164C2039.48 671.164 2037.25 673.069 2037.25 675.772C2037.25 678.442 2039.52 680.379 2042.3 680.379Z" stroke="black" stroke-width="0.5"/>
</g>
<g id="Medium-S">
<path id="Vector_17" d="M1746.54 700.616C1768.57 700.616 1786.45 682.778 1786.45 660.746C1786.45 638.714 1768.57 620.876 1746.54 620.876C1724.54 620.876 1706.67 638.714 1706.67 660.746C1706.67 682.778 1724.54 700.616 1746.54 700.616ZM1746.54 691.981C1729.27 691.981 1715.34 678.009 1715.34 660.746C1715.34 643.483 1729.27 629.511 1746.54 629.511C1763.8 629.511 1777.77 643.483 1777.77 660.746C1777.77 678.009 1763.8 691.981 1746.54 691.981ZM1745.68 668.429C1748.01 668.429 1749.5 667.079 1749.6 665.352C1749.61 665.246 1749.62 665.131 1749.63 665.033C1749.74 663.132 1751.12 661.849 1753.53 660.271C1757.24 657.893 1759.89 655.682 1759.89 651.041C1759.89 644.373 1753.88 640.727 1746.95 640.727C1740.27 640.727 1735.72 643.64 1734.42 647.105C1734.15 647.815 1734 648.517 1734 649.244C1734 651.245 1735.61 652.49 1737.31 652.49C1738.84 652.49 1739.84 651.873 1740.7 650.786L1741.41 649.95C1742.96 648.022 1744.53 647.289 1746.44 647.289C1749.3 647.289 1751.23 649.004 1751.23 651.462C1751.23 653.874 1749.58 654.976 1746.41 657.151C1743.77 658.998 1741.64 660.978 1741.64 664.551C1741.64 664.6 1741.64 664.72 1741.64 664.769C1741.64 667.186 1743.06 668.429 1745.68 668.429ZM1745.61 680.42C1748.19 680.42 1750.36 678.516 1750.36 675.947C1750.36 673.348 1748.23 671.475 1745.61 671.475C1742.96 671.475 1740.8 673.379 1740.8 675.947C1740.8 678.476 1743 680.42 1745.61 680.42Z" stroke="black" stroke-width="0.5"/>
</g>
<g id="Regular-S">
<path id="Vector_18" d="M1449.82 700.15C1471.6 700.15 1489.27 682.523 1489.27 660.746C1489.27 638.969 1471.6 621.342 1449.82 621.342C1428.09 621.342 1410.42 638.969 1410.42 660.746C1410.42 682.523 1428.09 700.15 1449.82 700.15ZM1449.82 692.729C1432.14 692.729 1417.89 678.422 1417.89 660.746C1417.89 643.07 1432.14 628.764 1449.82 628.764C1467.5 628.764 1481.8 643.07 1481.8 660.746C1481.8 678.422 1467.5 692.729 1449.82 692.729ZM1449.04 668.754C1451.24 668.754 1452.55 667.387 1452.55 665.678C1452.55 665.58 1452.55 665.482 1452.55 665.385C1452.55 663.334 1453.82 662.016 1456.41 660.307C1460.03 657.963 1462.95 655.717 1462.95 650.883C1462.95 644.145 1456.95 640.727 1450.31 640.727C1443.57 640.727 1439.13 643.754 1437.95 647.123C1437.71 647.807 1437.56 648.49 1437.56 649.174C1437.56 651.078 1439.13 652.104 1440.54 652.104C1442.01 652.104 1442.89 651.469 1443.72 650.443L1444.55 649.467C1446.21 647.416 1447.92 646.586 1450.02 646.586C1453.24 646.586 1455.34 648.441 1455.34 651.225C1455.34 653.813 1453.68 654.984 1450.41 657.23C1447.77 659.086 1445.52 661.137 1445.52 665.043C1445.52 665.092 1445.52 665.238 1445.52 665.287C1445.52 667.582 1446.74 668.754 1449.04 668.754ZM1448.94 680.473C1451.28 680.473 1453.38 678.568 1453.38 676.176C1453.38 673.734 1451.33 671.879 1448.94 671.879C1446.5 671.879 1444.45 673.783 1444.45 676.176C1444.45 678.52 1446.55 680.473 1448.94 680.473Z" stroke="black" stroke-width="0.5"/>
</g>
<g id="Light-S">
<path id="Vector_19" d="M1153.11 699.424C1174.48 699.424 1191.82 682.115 1191.82 660.746C1191.82 639.377 1174.48 622.068 1153.11 622.068C1131.78 622.068 1114.44 639.377 1114.44 660.746C1114.44 682.115 1131.78 699.424 1153.11 699.424ZM1153.11 693.727C1134.88 693.727 1120.15 678.982 1120.15 660.746C1120.15 642.51 1134.88 627.765 1153.11 627.765C1171.35 627.765 1186.09 642.51 1186.09 660.746C1186.09 678.982 1171.35 693.727 1153.11 693.727ZM1152.38 668.618C1154.06 668.618 1155.09 667.538 1155.09 666.177C1155.09 665.958 1155.09 665.74 1155.09 665.521C1155.09 663.334 1156.28 661.97 1159.04 660.125C1162.79 657.645 1165.25 655.399 1165.25 651.004C1165.25 644.977 1159.85 641.559 1153.48 641.559C1147.03 641.559 1142.83 644.753 1141.88 648.349C1141.7 648.957 1141.6 649.519 1141.6 650.158C1141.6 651.684 1142.78 652.512 1143.94 652.512C1145.13 652.512 1145.88 651.968 1146.43 651.079L1147.01 650.269C1148.14 647.825 1150.35 646.162 1153.25 646.162C1156.99 646.162 1159.37 648.26 1159.37 651.285C1159.37 653.888 1157.83 655.242 1154.4 657.624C1151.56 659.616 1149.65 661.636 1149.65 665.24C1149.65 665.455 1149.65 665.707 1149.65 665.908C1149.65 667.673 1150.63 668.618 1152.38 668.618ZM1152.3 679.776C1154.34 679.776 1156.1 678.099 1156.1 676.07C1156.1 673.977 1154.37 672.363 1152.3 672.363C1150.2 672.363 1148.45 674.01 1148.45 676.07C1148.45 678.065 1150.24 679.776 1152.3 679.776Z" stroke="black" stroke-width="0.5"/>
</g>
<g id="Thin-S">
<path id="Vector_20" d="M856.415 698.463C877.244 698.463 894.146 681.574 894.146 660.746C894.146 639.918 877.244 623.029 856.415 623.029C835.601 623.029 818.699 639.918 818.699 660.746C818.699 681.574 835.601 698.463 856.415 698.463ZM856.415 695.049C837.439 695.049 822.091 679.723 822.091 660.746C822.091 641.77 837.439 626.443 856.415 626.443C875.392 626.443 890.718 641.77 890.718 660.746C890.718 679.723 875.392 695.049 856.415 695.049ZM855.74 668.438C856.742 668.438 857.392 667.738 857.392 666.838C857.392 666.459 857.392 666.08 857.392 665.701C857.392 663.334 858.486 661.91 861.46 659.885C865.39 657.225 867.23 654.979 867.23 651.164C867.23 646.078 862.63 642.66 856.623 642.66C850.552 642.66 846.671 646.074 846.027 649.971C845.923 650.478 845.882 650.881 845.882 651.459C845.882 652.484 846.566 653.053 847.384 653.053C848.216 653.053 848.779 652.629 848.976 651.92L849.208 651.33C849.638 648.365 852.507 645.602 856.47 645.602C860.888 645.602 863.656 648.02 863.656 651.365C863.656 653.988 862.277 655.582 858.619 658.145C855.525 660.316 854.052 662.297 854.052 665.5C854.052 665.935 854.052 666.328 854.052 666.729C854.052 667.793 854.71 668.438 855.74 668.438ZM855.677 678.855C857.318 678.855 858.644 677.479 858.644 675.93C858.644 674.297 857.332 673.004 855.677 673.004C854.044 673.004 852.697 674.311 852.697 675.93C852.697 677.465 854.058 678.855 855.677 678.855Z" stroke="black" stroke-width="0.5"/>
</g>
<g id="Ultralight-S">
<path id="Vector_21" d="M559.71 697.971C580.261 697.971 596.938 681.297 596.938 660.746C596.938 640.195 580.261 623.521 559.71 623.521C539.162 623.521 522.485 640.195 522.485 660.746C522.485 681.297 539.162 697.971 559.71 697.971ZM559.71 695.726C540.354 695.726 524.688 680.102 524.688 660.746C524.688 641.39 540.354 625.767 559.71 625.767C579.065 625.767 594.689 641.39 594.689 660.746C594.689 680.102 579.065 695.726 559.71 695.726ZM559.064 668.345C559.718 668.345 560.173 667.841 560.173 667.176C560.173 666.715 560.173 666.254 560.173 665.793C560.173 663.334 561.216 661.879 564.303 659.762C568.325 657.009 569.847 654.763 569.847 651.246C569.847 646.642 565.658 643.224 559.835 643.224C553.959 643.224 550.242 646.751 549.751 650.801C549.689 651.258 549.679 651.578 549.679 652.125C549.679 652.894 550.106 653.33 550.75 653.33C551.398 653.33 551.868 652.967 551.88 652.351L551.939 651.873C552.009 648.642 555.217 645.314 559.723 645.314C564.49 645.314 567.452 647.896 567.452 651.406C567.452 654.039 566.155 655.756 562.384 658.411C559.157 660.675 557.91 662.635 557.91 665.633C557.91 666.182 557.91 666.646 557.91 667.149C557.91 667.854 558.404 668.345 559.064 668.345ZM559.012 678.384C560.448 678.384 561.548 677.161 561.548 675.858C561.548 674.461 560.451 673.332 559.012 673.332C557.615 673.332 556.473 674.464 556.473 675.858C556.473 677.157 557.619 678.384 559.012 678.384Z" stroke="black" stroke-width="0.5"/>
</g>
</g>
</g>
<defs>
<clipPath id="clip0_2689_5244">
<rect width="3300" height="2200" fill="white"/>
</clipPath>
</defs>
</svg>
