<svg width="528" height="528" viewBox="0 0 528 528" xmlns="http://www.w3.org/2000/svg" xmlns:xlink="http://www.w3.org/1999/xlink"><defs><path id="a" d="M.233.057h78.145v149.21H.233z"/></defs><g fill="none" fill-rule="evenodd"><path d="M107.21 264.887v-2.835c0-85.38 69.46-154.842 154.842-154.842h2.834c29.817 0 58.346 8.373 82.906 24.004l3.11-5.387c-25.496-16.169-55.09-24.826-86.016-24.826h-2.834C173.248 101 101 173.249 101 262.052v2.835c0 3.398.115 6.782.332 10.15h6.216a152.183 152.183 0 0 1-.339-10.15" fill="#4285F4"/><g transform="translate(347.56 125.77)"><mask id="b" fill="#fff"><use xlink:href="#a"/></mask><path d="M26.816 26.793C56.062 56.038 72.17 94.923 72.17 136.284v2.833c0 3.397-.135 6.78-.354 10.15h6.219c.21-3.371.344-6.753.344-10.15v-2.833c0-43.02-16.752-83.464-47.172-113.881A162.458 162.458 0 0 0 3.342.057L.233 5.445a156.13 156.13 0 0 1 26.583 21.348" fill="#EA4335" mask="url(#b)"/></g><path d="M419.376 275.038c-.823 12.718-3.169 25.228-7.056 37.308-20.66 64.23-79.907 107.383-147.433 107.383h-2.836c-24.766 0-49.089-5.92-70.918-17.174l-3.104 5.378c22.772 11.795 48.165 18.006 74.022 18.006h2.836c70.233 0 131.857-44.886 153.346-111.691 4.084-12.694 6.53-25.845 7.361-39.21h-6.218z" fill="#FBBC05"/><path d="M182.91 398.004c-43.772-26.08-72-72.535-75.363-122.967h-6.215c3.371 52.612 32.76 101.108 78.4 128.303a160.123 160.123 0 0 0 8.297 4.593l3.104-5.379a153.921 153.921 0 0 1-8.224-4.55" fill="#34A853"/><g><path d="M210.5 264.5L248 302m70-78l-73 75" stroke="#1E8E3E" stroke-width="8"/></g></g></svg>