<?xml version="1.0" encoding="UTF-8"?>
<!--Generator: Apple Native CoreSVG 149-->
<!DOCTYPE svg
PUBLIC "-//W3C//DTD SVG 1.1//EN"
       "http://www.w3.org/Graphics/SVG/1.1/DTD/svg11.dtd">
<svg version="1.1" xmlns="http://www.w3.org/2000/svg" xmlns:xlink="http://www.w3.org/1999/xlink" width="3300" height="2200">
 <!--glyph: "", point size: 100.0, font version: "17.0d8e1", template writer version: "58"-->
 <g id="Notes">
  <rect height="2200" id="artboard" style="fill:white;opacity:1" width="3300" x="0" y="0"/>
  <line style="fill:none;stroke:black;opacity:1;stroke-width:0.5;" x1="263" x2="3036" y1="292" y2="292"/>
  <text style="stroke:none;fill:black;font-family:SF Pro,SF Pro Display,SF Pro Text,sans-serif;font-size:13;font-weight:bold;" transform="matrix(1 0 0 1 263 322)">Weight/Scale Variations</text>
  <text style="stroke:none;fill:black;font-family:SF Pro,SF Pro Display,SF Pro Text,sans-serif;font-size:13;text-anchor:middle;" transform="matrix(1 0 0 1 559.711 322)">Ultralight</text>
  <text style="stroke:none;fill:black;font-family:SF Pro,SF Pro Display,SF Pro Text,sans-serif;font-size:13;text-anchor:middle;" transform="matrix(1 0 0 1 856.422 322)">Thin</text>
  <text style="stroke:none;fill:black;font-family:SF Pro,SF Pro Display,SF Pro Text,sans-serif;font-size:13;text-anchor:middle;" transform="matrix(1 0 0 1 1153.13 322)">Light</text>
  <text style="stroke:none;fill:black;font-family:SF Pro,SF Pro Display,SF Pro Text,sans-serif;font-size:13;text-anchor:middle;" transform="matrix(1 0 0 1 1449.84 322)">Regular</text>
  <text style="stroke:none;fill:black;font-family:SF Pro,SF Pro Display,SF Pro Text,sans-serif;font-size:13;text-anchor:middle;" transform="matrix(1 0 0 1 1746.56 322)">Medium</text>
  <text style="stroke:none;fill:black;font-family:SF Pro,SF Pro Display,SF Pro Text,sans-serif;font-size:13;text-anchor:middle;" transform="matrix(1 0 0 1 2043.27 322)">Semibold</text>
  <text style="stroke:none;fill:black;font-family:SF Pro,SF Pro Display,SF Pro Text,sans-serif;font-size:13;text-anchor:middle;" transform="matrix(1 0 0 1 2339.98 322)">Bold</text>
  <text style="stroke:none;fill:black;font-family:SF Pro,SF Pro Display,SF Pro Text,sans-serif;font-size:13;text-anchor:middle;" transform="matrix(1 0 0 1 2636.69 322)">Heavy</text>
  <text style="stroke:none;fill:black;font-family:SF Pro,SF Pro Display,SF Pro Text,sans-serif;font-size:13;text-anchor:middle;" transform="matrix(1 0 0 1 2933.4 322)">Black</text>
  <line style="fill:none;stroke:black;opacity:1;stroke-width:0.5;" x1="263" x2="3036" y1="1903" y2="1903"/>
  <g transform="matrix(1 0 0 1 263 1933)">
   <path d="M9.24805 0.830078Q10.8691 0.830078 12.2949 0.214844Q13.7207-0.400391 14.8096-1.49414Q15.8984-2.58789 16.5186-4.01367Q17.1387-5.43945 17.1387-7.05078Q17.1387-8.66211 16.5186-10.0879Q15.8984-11.5137 14.8047-12.6074Q13.7109-13.7012 12.2852-14.3164Q10.8594-14.9316 9.23828-14.9316Q7.62695-14.9316 6.20117-14.3164Q4.77539-13.7012 3.69141-12.6074Q2.60742-11.5137 1.9873-10.0879Q1.36719-8.66211 1.36719-7.05078Q1.36719-5.43945 1.9873-4.01367Q2.60742-2.58789 3.69629-1.49414Q4.78516-0.400391 6.21094 0.214844Q7.63672 0.830078 9.24805 0.830078ZM9.24805-0.654297Q7.91992-0.654297 6.7627-1.14746Q5.60547-1.64062 4.73145-2.51953Q3.85742-3.39844 3.36426-4.56055Q2.87109-5.72266 2.87109-7.05078Q2.87109-8.37891 3.35938-9.54102Q3.84766-10.7031 4.72168-11.582Q5.5957-12.4609 6.75293-12.9541Q7.91016-13.4473 9.23828-13.4473Q10.5762-13.4473 11.7334-12.9541Q12.8906-12.4609 13.7695-11.582Q14.6484-10.7031 15.1465-9.54102Q15.6445-8.37891 15.6445-7.05078Q15.6445-5.72266 15.1514-4.56055Q14.6582-3.39844 13.7842-2.51953Q12.9102-1.64062 11.748-1.14746Q10.5859-0.654297 9.24805-0.654297ZM5.83984-7.04102Q5.83984-6.71875 6.04492-6.51855Q6.25-6.31836 6.5918-6.31836L8.50586-6.31836L8.50586-4.39453Q8.50586-4.0625 8.70605-3.85742Q8.90625-3.65234 9.22852-3.65234Q9.56055-3.65234 9.76562-3.85742Q9.9707-4.0625 9.9707-4.39453L9.9707-6.31836L11.8945-6.31836Q12.2266-6.31836 12.4316-6.51855Q12.6367-6.71875 12.6367-7.04102Q12.6367-7.37305 12.4316-7.57812Q12.2266-7.7832 11.8945-7.7832L9.9707-7.7832L9.9707-9.69727Q9.9707-10.0391 9.76562-10.2441Q9.56055-10.4492 9.22852-10.4492Q8.90625-10.4492 8.70605-10.2441Q8.50586-10.0391 8.50586-9.69727L8.50586-7.7832L6.5918-7.7832Q6.25-7.7832 6.04492-7.57812Q5.83984-7.37305 5.83984-7.04102Z"/>
  </g>
  <g transform="matrix(1 0 0 1 281.867 1933)">
   <path d="M11.709 2.91016Q13.75 2.91016 15.5518 2.12891Q17.3535 1.34766 18.7305-0.0292969Q20.1074-1.40625 20.8887-3.20801Q21.6699-5.00977 21.6699-7.05078Q21.6699-9.0918 20.8887-10.8936Q20.1074-12.6953 18.7305-14.0723Q17.3535-15.4492 15.5469-16.2305Q13.7402-17.0117 11.6992-17.0117Q9.6582-17.0117 7.85645-16.2305Q6.05469-15.4492 4.68262-14.0723Q3.31055-12.6953 2.5293-10.8936Q1.74805-9.0918 1.74805-7.05078Q1.74805-5.00977 2.5293-3.20801Q3.31055-1.40625 4.6875-0.0292969Q6.06445 1.34766 7.86621 2.12891Q9.66797 2.91016 11.709 2.91016ZM11.709 1.25Q9.98047 1.25 8.47656 0.605469Q6.97266-0.0390625 5.83496-1.17676Q4.69727-2.31445 4.05762-3.81836Q3.41797-5.32227 3.41797-7.05078Q3.41797-8.7793 4.05762-10.2832Q4.69727-11.7871 5.83008-12.9297Q6.96289-14.0723 8.4668-14.7119Q9.9707-15.3516 11.6992-15.3516Q13.4277-15.3516 14.9316-14.7119Q16.4355-14.0723 17.5781-12.9297Q18.7207-11.7871 19.3652-10.2832Q20.0098-8.7793 20.0098-7.05078Q20.0098-5.32227 19.3701-3.81836Q18.7305-2.31445 17.5928-1.17676Q16.4551-0.0390625 14.9463 0.605469Q13.4375 1.25 11.709 1.25ZM7.39258-7.04102Q7.39258-6.68945 7.62695-6.46484Q7.86133-6.24023 8.23242-6.24023L10.8789-6.24023L10.8789-3.57422Q10.8789-3.21289 11.1035-2.9834Q11.3281-2.75391 11.6797-2.75391Q12.0508-2.75391 12.2852-2.9834Q12.5195-3.21289 12.5195-3.57422L12.5195-6.24023L15.1758-6.24023Q15.5371-6.24023 15.7715-6.46484Q16.0059-6.68945 16.0059-7.04102Q16.0059-7.41211 15.7715-7.6416Q15.5371-7.87109 15.1758-7.87109L12.5195-7.87109L12.5195-10.5176Q12.5195-10.8984 12.2852-11.1279Q12.0508-11.3574 11.6797-11.3574Q11.3281-11.3574 11.1035-11.1279Q10.8789-10.8984 10.8789-10.5176L10.8789-7.87109L8.23242-7.87109Q7.85156-7.87109 7.62207-7.6416Q7.39258-7.41211 7.39258-7.04102Z"/>
  </g>
  <g transform="matrix(1 0 0 1 305.646 1933)">
   <path d="M14.9707 5.66406Q17.0605 5.66406 18.96 5.01465Q20.8594 4.36523 22.4512 3.19336Q24.043 2.02148 25.2197 0.429688Q26.3965-1.16211 27.0459-3.06641Q27.6953-4.9707 27.6953-7.05078Q27.6953-9.14062 27.0459-11.04Q26.3965-12.9395 25.2197-14.5312Q24.043-16.123 22.4512-17.2998Q20.8594-18.4766 18.9551-19.126Q17.0508-19.7754 14.9609-19.7754Q12.8711-19.7754 10.9717-19.126Q9.07227-18.4766 7.48535-17.2998Q5.89844-16.123 4.72168-14.5312Q3.54492-12.9395 2.90039-11.04Q2.25586-9.14062 2.25586-7.05078Q2.25586-4.9707 2.90527-3.06641Q3.55469-1.16211 4.72656 0.429688Q5.89844 2.02148 7.49023 3.19336Q9.08203 4.36523 10.9814 5.01465Q12.8809 5.66406 14.9707 5.66406ZM14.9707 3.84766Q13.1641 3.84766 11.5283 3.2959Q9.89258 2.74414 8.53516 1.74805Q7.17773 0.751953 6.17676-0.610352Q5.17578-1.97266 4.62891-3.6084Q4.08203-5.24414 4.08203-7.05078Q4.08203-8.86719 4.62891-10.5029Q5.17578-12.1387 6.17188-13.501Q7.16797-14.8633 8.52539-15.8594Q9.88281-16.8555 11.5186-17.4023Q13.1543-17.9492 14.9609-17.9492Q16.7773-17.9492 18.4131-17.4023Q20.0488-16.8555 21.4111-15.8594Q22.7734-14.8633 23.7695-13.501Q24.7656-12.1387 25.3174-10.5029Q25.8691-8.86719 25.8691-7.05078Q25.8789-5.24414 25.332-3.6084Q24.7852-1.97266 23.7842-0.610352Q22.7832 0.751953 21.4209 1.74805Q20.0586 2.74414 18.4229 3.2959Q16.7871 3.84766 14.9707 3.84766ZM9.45312-7.04102Q9.45312-6.66016 9.71191-6.41113Q9.9707-6.16211 10.3711-6.16211L14.0625-6.16211L14.0625-2.46094Q14.0625-2.06055 14.3115-1.80664Q14.5605-1.55273 14.9414-1.55273Q15.3516-1.55273 15.6055-1.80664Q15.8594-2.06055 15.8594-2.46094L15.8594-6.16211L19.5605-6.16211Q19.9609-6.16211 20.2148-6.41113Q20.4688-6.66016 20.4688-7.04102Q20.4688-7.45117 20.2148-7.70508Q19.9609-7.95898 19.5605-7.95898L15.8594-7.95898L15.8594-11.6504Q15.8594-12.0605 15.6055-12.3145Q15.3516-12.5684 14.9414-12.5684Q14.5605-12.5684 14.3115-12.3096Q14.0625-12.0508 14.0625-11.6504L14.0625-7.95898L10.3711-7.95898Q9.96094-7.95898 9.70703-7.70508Q9.45312-7.45117 9.45312-7.04102Z"/>
  </g>
  <text style="stroke:none;fill:black;font-family:SF Pro,SF Pro Display,SF Pro Text,sans-serif;font-size:13;font-weight:bold;" transform="matrix(1 0 0 1 263 1953)">Design Variations</text>
  <text style="stroke:none;fill:black;font-family:SF Pro,SF Pro Display,SF Pro Text,sans-serif;font-size:13;" transform="matrix(1 0 0 1 263 1971)">Symbols are supported in up to nine weights and three scales.</text>
  <text style="stroke:none;fill:black;font-family:SF Pro,SF Pro Display,SF Pro Text,sans-serif;font-size:13;" transform="matrix(1 0 0 1 263 1989)">For optimal layout with text and other symbols, vertically align</text>
  <text style="stroke:none;fill:black;font-family:SF Pro,SF Pro Display,SF Pro Text,sans-serif;font-size:13;" transform="matrix(1 0 0 1 263 2007)">symbols with the adjacent text.</text>
  <line style="fill:none;stroke:#00AEEF;stroke-width:0.5;opacity:1.0;" x1="776" x2="776" y1="1919" y2="1933"/>
  <g transform="matrix(1 0 0 1 776 1933)">
   <path d="M3.31055 0.15625Q3.70117 0.15625 3.91602-0.00976562Q4.13086-0.175781 4.26758-0.585938L5.52734-4.0332L11.2891-4.0332L12.5488-0.585938Q12.6855-0.175781 12.9004-0.00976562Q13.1152 0.15625 13.4961 0.15625Q13.8867 0.15625 14.1162-0.0585938Q14.3457-0.273438 14.3457-0.644531Q14.3457-0.869141 14.2383-1.17188L9.6582-13.3691Q9.48242-13.8184 9.17969-14.043Q8.87695-14.2676 8.4082-14.2676Q7.5-14.2676 7.17773-13.3789L2.59766-1.16211Q2.49023-0.859375 2.49023-0.634766Q2.49023-0.263672 2.70996-0.0537109Q2.92969 0.15625 3.31055 0.15625ZM6.00586-5.51758L8.37891-12.0898L8.42773-12.0898L10.8008-5.51758Z"/>
  </g>
  <line style="fill:none;stroke:#00AEEF;stroke-width:0.5;opacity:1.0;" x1="793.197" x2="793.197" y1="1919" y2="1933"/>
  <text style="stroke:none;fill:black;font-family:SF Pro,SF Pro Display,SF Pro Text,sans-serif;font-size:13;font-weight:bold;" transform="matrix(1 0 0 1 776 1953)">Margins</text>
  <text style="stroke:none;fill:black;font-family:SF Pro,SF Pro Display,SF Pro Text,sans-serif;font-size:13;" transform="matrix(1 0 0 1 776 1971)">Leading and trailing margins on the left and right side of each symbol</text>
  <text style="stroke:none;fill:black;font-family:SF Pro,SF Pro Display,SF Pro Text,sans-serif;font-size:13;" transform="matrix(1 0 0 1 776 1989)">can be adjusted by modifying the x-location of the margin guidelines.</text>
  <text style="stroke:none;fill:black;font-family:SF Pro,SF Pro Display,SF Pro Text,sans-serif;font-size:13;" transform="matrix(1 0 0 1 776 2007)">Modifications are automatically applied proportionally to all</text>
  <text style="stroke:none;fill:black;font-family:SF Pro,SF Pro Display,SF Pro Text,sans-serif;font-size:13;" transform="matrix(1 0 0 1 776 2025)">scales and weights.</text>
  <g transform="matrix(1 0 0 1 1289 1933)">
   <path d="M2.8418 1.86523L4.54102 3.57422Q5.18555 4.22852 5.90332 4.17969Q6.62109 4.13086 7.31445 3.35938L18.0078-8.42773L17.041-9.4043L6.42578 2.27539Q6.16211 2.57812 5.89355 2.61719Q5.625 2.65625 5.27344 2.30469L4.10156 1.14258Q3.75 0.791016 3.79395 0.522461Q3.83789 0.253906 4.14062-0.0195312L15.6152-10.8203L14.6387-11.7871L3.04688-0.898438Q2.30469-0.214844 2.25098 0.498047Q2.19727 1.21094 2.8418 1.86523ZM9.25781-16.3281Q8.94531-16.0254 8.90625-15.6348Q8.86719-15.2441 9.04297-14.9512Q9.21875-14.6777 9.55566-14.541Q9.89258-14.4043 10.3809-14.5215Q11.4746-14.7754 12.5977-14.7314Q13.7207-14.6875 14.7949-13.9844L14.209-12.5293Q13.9551-11.9043 14.0674-11.4404Q14.1797-10.9766 14.5801-10.5664L16.875-8.25195Q17.2363-7.88086 17.5781-7.82227Q17.9199-7.76367 18.3398-7.8418L19.4043-8.03711L20.0684-7.36328L20.0293-6.80664Q20-6.43555 20.1221-6.12305Q20.2441-5.81055 20.6055-5.44922L21.3672-4.70703Q21.7285-4.3457 22.1533-4.33105Q22.5781-4.31641 22.9297-4.66797L25.8398-7.58789Q26.1914-7.93945 26.1816-8.35449Q26.1719-8.76953 25.8105-9.13086L25.0391-9.89258Q24.6875-10.2539 24.3799-10.3857Q24.0723-10.5176 23.7109-10.4883L23.1348-10.4395L22.4902-11.0742L22.7344-12.1973Q22.832-12.6172 22.6953-12.9834Q22.5586-13.3496 22.1191-13.7891L19.9219-15.9766Q18.6719-17.2168 17.2607-17.8369Q15.8496-18.457 14.4189-18.4814Q12.9883-18.5059 11.665-17.959Q10.3418-17.4121 9.25781-16.3281ZM10.752-15.957Q11.6602-16.6211 12.7002-16.9043Q13.7402-17.1875 14.8047-17.085Q15.8691-16.9824 16.8701-16.5137Q17.8711-16.0449 18.7012-15.2051L21.1328-12.793Q21.3086-12.6172 21.3525-12.4512Q21.3965-12.2852 21.3379-12.0312L21.0156-10.5469L22.5195-9.0625L23.5059-9.12109Q23.6914-9.13086 23.7891-9.09668Q23.8867-9.0625 24.0332-8.91602L24.6094-8.33984L22.168-5.89844L21.5918-6.47461Q21.4453-6.62109 21.4062-6.71875Q21.3672-6.81641 21.377-7.01172L21.4453-7.98828L19.9512-9.47266L18.4277-9.21875Q18.1836-9.16992 18.042-9.2041Q17.9004-9.23828 17.7148-9.41406L15.7129-11.416Q15.5176-11.5918 15.4932-11.7529Q15.4688-11.9141 15.5859-12.1875L16.4648-14.2773Q15.293-15.3711 13.8281-15.791Q12.3633-16.2109 10.8398-15.7617Q10.7227-15.7324 10.6885-15.8057Q10.6543-15.8789 10.752-15.957Z"/>
  </g>
  <text style="stroke:none;fill:black;font-family:SF Pro,SF Pro Display,SF Pro Text,sans-serif;font-size:13;font-weight:bold;" transform="matrix(1 0 0 1 1289 1953)">Exporting</text>
  <text style="stroke:none;fill:black;font-family:SF Pro,SF Pro Display,SF Pro Text,sans-serif;font-size:13;" transform="matrix(1 0 0 1 1289 1971)">Symbols should be outlined when exporting to ensure the</text>
  <text style="stroke:none;fill:black;font-family:SF Pro,SF Pro Display,SF Pro Text,sans-serif;font-size:13;" transform="matrix(1 0 0 1 1289 1989)">design is preserved when submitting to Xcode.</text>
  <text id="template-version" style="stroke:none;fill:black;font-family:SF Pro,SF Pro Display,SF Pro Text,sans-serif;font-size:13;text-anchor:end;" transform="matrix(1 0 0 1 3036 1933)">Template v.2.0</text>
  <text style="stroke:none;fill:black;font-family:SF Pro,SF Pro Display,SF Pro Text,sans-serif;font-size:13;text-anchor:end;" transform="matrix(1 0 0 1 3036 1951)">Requires Xcode 13 or greater</text>
  <text id="descriptive-name" style="stroke:none;fill:black;font-family:SF Pro,SF Pro Display,SF Pro Text,sans-serif;font-size:13;text-anchor:end;" transform="matrix(1 0 0 1 3036 1969)">Generated from square.number.cr</text>
  <text style="stroke:none;fill:black;font-family:SF Pro,SF Pro Display,SF Pro Text,sans-serif;font-size:13;text-anchor:end;" transform="matrix(1 0 0 1 3036 1987)">Typeset at 100 points</text>
  <text style="stroke:none;fill:black;font-family:SF Pro,SF Pro Display,SF Pro Text,sans-serif;font-size:13;" transform="matrix(1 0 0 1 263 726)">Small</text>
  <text style="stroke:none;fill:black;font-family:SF Pro,SF Pro Display,SF Pro Text,sans-serif;font-size:13;" transform="matrix(1 0 0 1 263 1156)">Medium</text>
  <text style="stroke:none;fill:black;font-family:SF Pro,SF Pro Display,SF Pro Text,sans-serif;font-size:13;" transform="matrix(1 0 0 1 263 1586)">Large</text>
 </g>
 <g id="Guides">
  <g id="H-reference" style="fill:#27AAE1;stroke:none;" transform="matrix(1 0 0 1 339 696)">
   <path d="M0.993347 0L3.6377 0L29.3282-67.1326L30.0301-67.1326L30.0301-70.459L28.1227-70.459ZM11.6882-24.4797L46.9818-24.4797L46.2311-26.7288L12.4382-26.7288ZM55.1193 0L57.7637 0L30.6381-70.459L29.4327-70.459L29.4327-67.1326Z"/>
  </g>
  <line id="Baseline-S" style="fill:none;stroke:#27AAE1;opacity:1;stroke-width:0.5;" x1="263" x2="3036" y1="696" y2="696"/>
  <line id="Capline-S" style="fill:none;stroke:#27AAE1;opacity:1;stroke-width:0.5;" x1="263" x2="3036" y1="625.541" y2="625.541"/>
  <g id="H-reference" style="fill:#27AAE1;stroke:none;" transform="matrix(1 0 0 1 339 1126)">
   <path d="M0.993347 0L3.6377 0L29.3282-67.1326L30.0301-67.1326L30.0301-70.459L28.1227-70.459ZM11.6882-24.4797L46.9818-24.4797L46.2311-26.7288L12.4382-26.7288ZM55.1193 0L57.7637 0L30.6381-70.459L29.4327-70.459L29.4327-67.1326Z"/>
  </g>
  <line id="Baseline-M" style="fill:none;stroke:#27AAE1;opacity:1;stroke-width:0.5;" x1="263" x2="3036" y1="1126" y2="1126"/>
  <line id="Capline-M" style="fill:none;stroke:#27AAE1;opacity:1;stroke-width:0.5;" x1="263" x2="3036" y1="1055.54" y2="1055.54"/>
  <g id="H-reference" style="fill:#27AAE1;stroke:none;" transform="matrix(1 0 0 1 339 1556)">
   <path d="M0.993347 0L3.6377 0L29.3282-67.1326L30.0301-67.1326L30.0301-70.459L28.1227-70.459ZM11.6882-24.4797L46.9818-24.4797L46.2311-26.7288L12.4382-26.7288ZM55.1193 0L57.7637 0L30.6381-70.459L29.4327-70.459L29.4327-67.1326Z"/>
  </g>
  <line id="Baseline-L" style="fill:none;stroke:#27AAE1;opacity:1;stroke-width:0.5;" x1="263" x2="3036" y1="1556" y2="1556"/>
  <line id="Capline-L" style="fill:none;stroke:#27AAE1;opacity:1;stroke-width:0.5;" x1="263" x2="3036" y1="1485.54" y2="1485.54"/>
  <line id="left-margin" style="fill:none;stroke:#00AEEF;stroke-width:0.5;opacity:1.0;" x1="1392.2" x2="1392.2" y1="1030.78" y2="1150.12"/>
  <line id="right-margin" style="fill:none;stroke:#00AEEF;stroke-width:0.5;opacity:1.0;" x1="1507.49" x2="1507.49" y1="1030.78" y2="1150.12"/>
 </g>
 <g id="Symbols">
  <g id="Black-L" transform="matrix(1 0 0 1 2857.5 1556)">
   <path d="M88.866-103.019C106.891-103.001 116.39-102.745 123.77-98.99C130.73-95.44 136.39-89.78 139.94-82.82C143.832-75.17 143.965-65.2435 143.97-45.9033L143.97-24.0067C143.965-4.66647 143.832 5.26 139.94 12.91C136.39 19.87 130.73 25.53 123.77 29.08C116.12 32.9726 106.193 33.1053 86.8531 33.1098L64.9565 33.1098C45.6163 33.1053 35.6898 32.9726 28.0398 29.08C21.0798 25.53 15.4198 19.87 11.8698 12.91C8.11455 5.53 7.85852-3.96861 7.84106-21.9938L7.84106-47.9162C7.85852-65.9414 8.11455-75.44 11.8698-82.82C15.4198-89.78 21.0798-95.44 28.0398-98.99C35.4198-102.745 44.9184-103.001 62.9436-103.019ZM87.5124-89.0195L64.2972-89.0195C55.2004-89.0147 48.8636-88.97 43.8798-88.56C38.5698-88.13 36.0498-87.36 34.3998-86.51C30.0698-84.31 26.5498-80.79 24.3498-76.46C23.4998-74.81 22.7298-72.29 22.2998-66.98C21.8898-62.0053 21.845-55.661 21.8403-46.5628L21.8403-23.3474C21.845-14.2507 21.8898-7.91378 22.2998-2.93C22.7298 2.37 23.4998 4.9 24.3498 6.55C26.5498 10.88 30.0698 14.4 34.3998 16.6C36.0498 17.44 38.5698 18.22 43.8798 18.65C48.9851 19.07 55.5104 19.1067 64.9678 19.1097L86.8418 19.1097C96.2992 19.1067 102.824 19.07 107.93 18.65C113.24 18.22 115.76 17.44 117.41 16.6C121.74 14.4 125.26 10.88 127.46 6.55C128.31 4.9 129.08 2.37 129.51-2.93C129.93-8.03533 129.966-14.5606 129.97-24.018L129.97-45.8921C129.966-55.3507 129.93-61.884 129.51-66.98C129.08-72.29 128.31-74.81 127.46-76.46C125.26-80.79 121.74-84.31 117.41-86.51C115.76-87.36 113.24-88.13 107.93-88.56C102.946-88.97 96.6091-89.0147 87.5124-89.0195Z"/>
  </g>
  <g id="Heavy-L" transform="matrix(1 0 0 1 2561.83 1556)">
   <path d="M86.766-101.999C104.791-101.981 114.29-101.725 121.67-97.97C128.63-94.42 134.29-88.76 137.84-81.8C141.732-74.15 141.865-64.2235 141.87-44.8833L141.87-25.0867C141.865-5.74647 141.732 4.18 137.84 11.83C134.29 18.79 128.63 24.45 121.67 28C114.02 31.8926 104.093 32.0253 84.7531 32.0298L64.9565 32.0298C45.6163 32.0253 35.6898 31.8926 28.0398 28C21.0798 24.45 15.4198 18.79 11.8698 11.83C8.11455 4.45 7.85852-5.04861 7.84106-23.0738L7.84106-46.8962C7.85852-64.9214 8.11455-74.42 11.8698-81.8C15.4198-88.76 21.0798-94.42 28.0398-97.97C35.4198-101.725 44.9184-101.981 62.9436-101.999ZM85.4715-88.9994L64.238-88.9994C55.1733-88.9945 48.8089-88.9491 43.7998-88.54C38.4298-88.1 35.7598-87.31 33.9398-86.38C29.4298-84.08 25.7598-80.41 23.4598-75.9C22.5298-74.08 21.7398-71.41 21.2998-66.04C20.8907-61.0309 20.8452-54.6664 20.8404-45.6018L20.8404-24.3682C20.8452-15.3036 20.8907-8.93909 21.2998-3.93C21.7398 1.44 22.5298 4.11 23.4598 5.93C25.7598 10.44 29.4298 14.11 33.9398 16.41C35.7598 17.34 38.4298 18.13 43.7998 18.57C48.6836 18.9689 54.856 19.022 63.5632 19.029L64.923 19.0297C65.153 19.0298 65.3847 19.0299 65.6181 19.0299L84.0914 19.0299C84.3249 19.0299 84.5566 19.0298 84.7866 19.0297L86.1463 19.029C94.8536 19.022 101.026 18.9689 105.91 18.57C111.28 18.13 113.95 17.34 115.77 16.41C120.28 14.11 123.95 10.44 126.25 5.93C127.18 4.11 127.97 1.44 128.41-3.93C128.809-8.81386 128.862-14.9862 128.869-23.6934L128.87-25.0532C128.87-25.2832 128.87-25.5149 128.87-25.7484L128.87-44.2216C128.87-44.4551 128.87-44.6868 128.87-44.9168L128.869-46.2766C128.862-54.9838 128.809-61.1561 128.41-66.04C127.97-71.41 127.18-74.08 126.25-75.9C123.95-80.41 120.28-84.08 115.77-86.38C113.95-87.31 111.28-88.1 105.91-88.54C100.901-88.9491 94.5362-88.9945 85.4715-88.9994Z"/>
  </g>
  <g id="Bold-L" transform="matrix(1 0 0 1 2266.29 1556)">
   <path d="M84.426-100.819C102.451-100.801 111.95-100.545 119.33-96.79C126.29-93.24 131.95-87.58 135.5-80.62C139.392-72.97 139.525-63.0435 139.53-43.7033L139.53-26.2467C139.525-6.90647 139.392 3.02 135.5 10.67C131.95 17.63 126.29 23.29 119.33 26.84C111.68 30.7326 101.753 30.8653 82.4131 30.8698L64.9565 30.8698C45.6163 30.8653 35.6898 30.7326 28.0398 26.84C21.0798 23.29 15.4198 17.63 11.8698 10.67C8.11455 3.29 7.85852-6.20861 7.84106-24.2338L7.84106-45.7162C7.85852-63.7414 8.11455-73.24 11.8698-80.62C15.4198-87.58 21.0798-93.24 28.0398-96.79C35.4198-100.545 44.9184-100.801 62.9436-100.819ZM83.124-89.8194L64.2456-89.8194C55.1951-89.8145 48.7389-89.7682 43.6298-89.35C38.1398-88.9 35.1798-88.08 33.0398-86.99C28.1398-84.49 24.1698-80.52 21.6698-75.62C20.5798-73.48 19.7598-70.52 19.3098-65.03C18.8916-59.9209 18.8453-53.4647 18.8404-44.4142L18.8404-25.5358C18.8453-16.4853 18.8916-10.0291 19.3098-4.92C19.7598 0.570001 20.5798 3.53 21.6698 5.67C24.1698 10.57 28.1398 14.54 33.0398 17.04C35.1798 18.13 38.1398 18.95 43.6298 19.4C48.6111 19.8077 54.8731 19.8619 63.5716 19.869L64.9292 19.8697C65.1588 19.8698 65.3899 19.8699 65.6227 19.8699L81.7468 19.8699C81.9796 19.8699 82.2108 19.8698 82.4403 19.8697L83.7979 19.869C92.4965 19.8619 98.7584 19.8077 103.74 19.4C109.23 18.95 112.19 18.13 114.33 17.04C119.23 14.54 123.2 10.57 125.7 5.67C126.79 3.53 127.61 0.570001 128.06-4.92C128.468-9.90136 128.522-16.1633 128.529-24.8618L128.53-26.2194C128.53-26.449 128.53-26.6801 128.53-26.913L128.53-43.037C128.53-43.2699 128.53-43.501 128.53-43.7306L128.529-45.0882C128.522-53.7867 128.468-60.0486 128.06-65.03C127.61-70.52 126.79-73.48 125.7-75.62C123.2-80.52 119.23-84.49 114.33-86.99C112.19-88.08 109.23-88.9 103.74-89.35C98.6307-89.7682 92.1745-89.8145 83.124-89.8194Z"/>
  </g>
  <g id="Semibold-L" transform="matrix(1 0 0 1 1970.41 1556)">
   <path d="M100.871-100.04L44.8411-100.04C24.4065-100.04 7.84106-83.4745 7.84106-63.04L7.84106-7.01C7.84106 13.4245 24.4065 29.99 44.8411 29.99L100.871 29.99C121.306 29.99 137.871 13.4245 137.871-7.01L137.871-63.04C137.871-83.4745 121.306-100.04 100.871-100.04ZM44.8411-90.04L100.871-90.04C115.783-90.04 127.871-77.9517 127.871-63.04L127.871-7.01C127.871 7.90169 115.783 19.99 100.871 19.99L44.8411 19.99C29.9294 19.99 17.8411 7.90169 17.8411-7.01L17.8411-63.04C17.8411-77.9517 29.9294-90.04 44.8411-90.04Z"/>
  </g>
  <g id="Medium-L" transform="matrix(1 0 0 1 1674.31 1556)">
   <path d="M81.546-99.4087C99.5712-99.3913 109.07-99.1352 116.45-95.38C123.41-91.83 129.07-86.17 132.62-79.21C136.512-71.56 136.645-61.6335 136.65-42.2933L136.65-27.7167C136.645-8.37647 136.512 1.55 132.62 9.2C129.07 16.16 123.41 21.82 116.45 25.37C108.8 29.2626 98.8733 29.3953 79.5331 29.3998L64.9565 29.3998C45.6163 29.3953 35.6898 29.2626 28.0398 25.37C21.0798 21.82 15.4198 16.16 11.8698 9.2C8.11455 1.82 7.85852-7.67861 7.84106-25.7038L7.84106-44.3062C7.85852-62.3314 8.11455-71.83 11.8698-79.21C15.4198-86.17 21.0798-91.83 28.0398-95.38C35.4198-99.1352 44.9184-99.3913 62.9436-99.4087ZM80.3018-90.4094L64.1878-90.4094C55.1782-90.4042 48.6577-90.3563 43.4698-89.93C37.8598-89.48 34.6098-88.62 32.1298-87.36C26.8598-84.67 22.5798-80.39 19.8898-75.12C18.6298-72.64 17.7698-69.39 17.3098-63.78C16.8926-58.5921 16.8455-52.0716 16.8404-43.062L16.8404-26.948C16.8455-17.9384 16.8926-11.4179 17.3098-6.23C17.7698-0.619999 18.6298 2.64 19.8898 5.11C22.5798 10.38 26.8598 14.67 32.1298 17.35C34.6098 18.61 37.8598 19.47 43.4698 19.93C48.5247 20.3365 54.8447 20.3916 63.4996 20.3989L64.8858 20.3997C65.1201 20.3998 65.356 20.3998 65.5937 20.3999L78.8959 20.3999C79.1335 20.3998 79.3695 20.3998 79.6038 20.3997L80.9899 20.3989C89.6449 20.3916 95.9649 20.3365 101.02 19.93C106.63 19.47 109.88 18.61 112.36 17.35C117.63 14.67 121.91 10.38 124.6 5.11C125.86 2.64 126.72-0.619999 127.18-6.23C127.586-11.2849 127.641-17.6049 127.649-26.2599L127.649-27.646C127.65-27.8803 127.65-28.1163 127.65-28.3539L127.65-41.6561C127.65-41.8937 127.65-42.1297 127.649-42.364L127.649-43.7501C127.641-52.4051 127.586-58.7251 127.18-63.78C126.72-69.39 125.86-72.64 124.6-75.12C121.91-80.39 117.63-84.67 112.36-87.36C109.88-88.62 106.63-89.48 101.02-89.93C95.8319-90.3563 89.3113-90.4042 80.3018-90.4094Z"/>
  </g>
  <g id="Regular-L" transform="matrix(1 0 0 1 1378.4 1556)">
   <path d="M79.936-98.6287C97.9612-98.6113 107.46-98.3552 114.84-94.6C121.8-91.05 127.46-85.39 131.01-78.43C134.902-70.78 135.035-60.8535 135.04-41.5133L135.04-28.5467C135.035-9.20647 134.902 0.720001 131.01 8.37C127.46 15.33 121.8 20.99 114.84 24.54C107.19 28.4326 97.2633 28.5653 77.9231 28.5698L64.9565 28.5698C45.6163 28.5653 35.6898 28.4326 28.0398 24.54C21.0798 20.99 15.4198 15.33 11.8698 8.37C8.11455 0.990001 7.85852-8.50861 7.84106-26.5338L7.84106-43.5262C7.85852-61.5514 8.11455-71.05 11.8698-78.43C15.4198-85.39 21.0798-91.05 28.0398-94.6C35.4198-98.3552 44.9184-98.6113 62.9436-98.6287ZM78.7538-90.6293L64.1257-90.6293C55.1569-90.6239 48.6103-90.5752 43.3898-90.15C37.7098-89.69 34.3198-88.82 31.6698-87.47C26.2198-84.69 21.7798-80.25 18.9998-74.8C17.6498-72.15 16.7798-68.76 16.3198-63.08C15.8945-57.8595 15.8459-51.3129 15.8404-42.3441L15.8404-27.7159C15.8459-18.7471 15.8945-12.2005 16.3198-6.98C16.7798-1.31 17.6498 2.09 18.9998 4.73C21.7798 10.19 26.2198 14.63 31.6698 17.41C34.3198 18.75 37.7098 19.63 43.3898 20.09C48.4729 20.504 54.8132 20.5611 63.4227 20.5688L64.8388 20.5697C65.0782 20.5698 65.3193 20.5698 65.5621 20.5699L77.3174 20.5699C77.5602 20.5698 77.8013 20.5698 78.0407 20.5697L79.4569 20.5688C88.0663 20.5611 94.4067 20.504 99.4898 20.09C105.17 19.63 108.56 18.75 111.21 17.41C116.66 14.63 121.1 10.19 123.88 4.73C125.23 2.09 126.1-1.31 126.56-6.98C126.974-12.0631 127.031-18.4034 127.039-27.0129L127.039-28.4291C127.04-28.6684 127.04-28.9095 127.04-29.1524L127.04-40.9076C127.04-41.1505 127.04-41.3915 127.039-41.6309L127.039-43.0471C127.031-51.6566 126.974-57.9969 126.56-63.08C126.1-68.76 125.23-72.15 123.88-74.8C121.1-80.25 116.66-84.69 111.21-87.47C108.56-88.82 105.17-89.69 99.4898-90.15C94.2693-90.5752 87.7227-90.6239 78.7538-90.6293Z"/>
  </g>
  <g id="Light-L" transform="matrix(1 0 0 1 1082.62 1556)">
   <path d="M78.076-97.6987C96.1012-97.6813 105.6-97.4252 112.98-93.67C119.94-90.12 125.6-84.46 129.15-77.5C133.042-69.85 133.175-59.9235 133.18-40.5833L133.18-29.4767C133.175-10.1365 133.042-0.209999 129.15 7.44C125.6 14.4 119.94 20.06 112.98 23.61C105.33 27.5026 95.4033 27.6353 76.0631 27.6398L64.9565 27.6398C45.6163 27.6353 35.6898 27.5026 28.0398 23.61C21.0798 20.06 15.4198 14.4 11.8698 7.44C8.11455 0.0600008 7.85852-9.43861 7.84106-27.4638L7.84106-42.5962C7.85852-60.6214 8.11455-70.12 11.8698-77.5C15.4198-84.46 21.0798-90.12 28.0398-93.67C35.4198-97.4252 44.9184-97.6813 62.9436-97.6987ZM76.282-92.1996L64.7376-92.1996C55.4724-92.1959 48.638-92.154 43.1898-91.71C37.3598-91.24 33.5898-90.32 30.5398-88.77C24.6098-85.75 19.7898-80.93 16.7698-75C15.2198-71.95 14.2998-68.18 13.8298-62.35C13.3888-57.049 13.3447-50.4358 13.3403-41.5481L13.3403-28.5119C13.3447-19.6242 13.3888-13.011 13.8298-7.71C14.2998-1.88 15.2198 1.89 16.7698 4.94C19.7898 10.87 24.6098 15.69 30.5398 18.71C33.5898 20.26 37.3598 21.18 43.1898 21.65C48.638 22.1033 55.4724 22.1372 64.7376 22.1398L76.282 22.1398C85.5472 22.1372 92.3815 22.1033 97.8298 21.65C103.66 21.18 107.43 20.26 110.48 18.71C116.41 15.69 121.23 10.87 124.25 4.94C125.8 1.89 126.72-1.88 127.19-7.71C127.643-13.1582 127.677-19.9926 127.68-29.2578L127.68-40.8022C127.677-50.0674 127.643-56.9017 127.19-62.35C126.72-68.18 125.8-71.95 124.25-75C121.23-80.93 116.41-85.75 110.48-88.77C107.43-90.32 103.66-91.24 97.8298-91.71C92.3815-92.154 85.5472-92.1959 76.282-92.1996Z"/>
  </g>
  <g id="Thin-L" transform="matrix(1 0 0 1 787.132 1556)">
   <path d="M75.6364-96.4787C93.6633-96.4613 103.162-96.2052 110.537-92.45C117.499-88.9 123.16-83.24 126.707-76.28C130.602-68.63 130.735-58.7035 130.74-39.3633L130.74-30.6967C130.735-11.3565 130.602-1.43 126.707 6.22C123.16 13.18 117.499 18.84 110.537 22.39C102.893 26.2826 92.9654 26.4153 73.6233 26.4198L64.9563 26.4198C45.6142 26.4153 35.687 26.2826 28.0418 22.39C21.0798 18.84 15.4198 13.18 11.8718 6.22C8.11469-1.16 7.85852-10.6586 7.84106-28.6838L7.84106-41.3762C7.85852-59.4014 8.11469-68.9 11.8718-76.28C15.4198-83.24 21.0798-88.9 28.0418-92.45C35.4171-96.2052 44.9163-96.4613 62.9432-96.4787ZM74.6578-92.9795L63.9215-92.9795C55.0779-92.9748 48.402-92.9297 43.0228-92.49C37.0698-92 33.0128-91.05 29.6308-89.33C23.3278-86.12 18.2028-80.99 14.9908-74.69C13.2678-71.31 12.3188-67.25 11.8318-61.3C11.392-55.9154 11.3453-49.2421 11.3404-40.3985L11.3404-29.6615C11.3453-20.8179 11.392-14.1446 11.8318-8.76C12.3188-2.81 13.2678 1.25 14.9908 4.63C18.2028 10.93 23.3278 16.06 29.6308 19.27C33.0128 20.99 37.0698 21.94 43.0228 22.43C48.5557 22.8823 55.4605 22.9171 64.6848 22.9198L73.8945 22.9198C83.1181 22.9171 90.0229 22.8823 95.5558 22.43C101.51 21.94 105.567 20.99 108.948 19.27C115.252 16.06 120.377 10.93 123.588 4.63C125.312 1.25 126.261-2.81 126.747-8.76C127.174-13.9908 127.231-20.4376 127.239-28.9088L127.24-30.4249C127.24-30.6811 127.24-30.9392 127.24-31.199L127.24-38.861C127.24-39.1208 127.24-39.3789 127.24-39.6351L127.239-41.1512C127.231-49.6224 127.174-56.0692 126.747-61.3C126.261-67.25 125.312-71.31 123.588-74.69C120.377-80.99 115.252-86.12 108.948-89.33C105.567-91.05 101.51-92 95.5558-92.49C90.1765-92.9297 83.5006-92.9748 74.6578-92.9795Z"/>
  </g>
  <g id="Ultralight-L" transform="matrix(1 0 0 1 491.031 1556)">
   <path d="M74.4164-95.8387C92.4433-95.8213 101.942-95.5652 109.318-91.81C116.28-88.26 121.94-82.6 125.487-75.64C129.382-67.99 129.515-58.0635 129.52-38.7233L129.52-31.2767C129.515-11.9365 129.382-2.01 125.487 5.64C121.94 12.6 116.28 18.26 109.318 21.81C101.673 25.7026 91.7454 25.8353 72.4033 25.8398L64.9563 25.8398C45.6142 25.8353 35.687 25.7026 28.0418 21.81C21.0798 18.26 15.4198 12.6 11.8728 5.64C8.11476-1.74 7.85853-11.2386 7.84106-29.2638L7.84106-40.7362C7.85853-58.7614 8.11476-68.26 11.8728-75.64C15.4198-82.6 21.0798-88.26 28.0418-91.81C35.4171-95.5652 44.9163-95.8213 62.9432-95.8387ZM73.5138-93.5894L63.8458-93.5894C55.0463-93.5845 48.3412-93.5374 42.9218-93.09C36.8908-92.6 32.6508-91.63 29.0638-89.8C22.5248-86.47 17.2088-81.15 13.8778-74.62C12.0498-71.03 11.0788-66.79 10.5868-60.76C10.1439-55.3379 10.0957-48.6349 10.0904-39.8345L10.0904-30.1655C10.0957-21.3651 10.1439-14.6621 10.5868-9.24C11.0788-3.21 12.0498 1.03 13.8778 4.62C17.2088 11.15 22.5248 16.47 29.0638 19.8C32.6508 21.63 36.8908 22.6 42.9218 23.09C48.5006 23.5505 55.4418 23.5869 64.6277 23.5898L72.7319 23.5898C81.9177 23.5869 88.859 23.5505 94.4378 23.09C100.469 22.6 104.709 21.63 108.296 19.8C114.835 16.47 120.151 11.15 123.483 4.62C125.31 1.03 126.281-3.21 126.773-9.24C127.203-14.5026 127.261-20.9719 127.269-29.3945L127.27-30.9475C127.27-31.21 127.27-31.4743 127.27-31.7405L127.27-38.2595C127.27-38.5257 127.27-38.79 127.27-39.0525L127.269-40.6055C127.261-49.0281 127.203-55.4974 126.773-60.76C126.281-66.79 125.31-71.03 123.483-74.62C120.151-81.15 114.835-86.47 108.296-89.8C104.709-91.63 100.469-92.6 94.4378-93.09C89.0184-93.5374 82.3132-93.5845 73.5138-93.5894Z"/>
  </g>
  <g id="Black-M" transform="matrix(1 0 0 1 2872.21 1126)">
   <path d="M71.3979-88.2789C85.4886-88.2648 92.9213-88.0606 98.7-85.12C104.15-82.34 108.59-77.9 111.37-72.45C114.398-66.4987 114.525-58.7934 114.53-43.8682L114.53-26.0018C114.525-11.0766 114.398-3.37125 111.37 2.58C108.59 8.03 104.15 12.47 98.7 15.25C92.7488 18.2783 85.0434 18.4045 70.1182 18.4098L52.2518 18.4098C37.3266 18.4045 29.6213 18.2783 23.67 15.25C18.22 12.47 13.78 8.03 11 2.58C8.05944-3.19875 7.85524-10.6314 7.84106-24.7221L7.84106-45.1479C7.85524-59.2386 8.05944-66.6712 11-72.45C13.78-77.9 18.22-82.34 23.67-85.12C29.4488-88.0606 36.8814-88.2648 50.9721-88.2789ZM70.0537-74.2797L52.3163-74.2797C45.0422-74.2764 40.1432-74.2432 36.33-73.93C32.36-73.61 30.83-73.05 30.03-72.64C27.21-71.21 24.91-68.91 23.47-66.09C23.07-65.29 22.51-63.76 22.19-59.79C21.8768-55.9768 21.8436-51.0778 21.8403-43.8037L21.8403-26.0663C21.8436-18.7922 21.8768-13.8932 22.19-10.08C22.51-6.11 23.07-4.58 23.47-3.78C24.91-0.96 27.21 1.34 30.03 2.78C30.83 3.18 32.36 3.74 36.33 4.06C40.1432 4.37316 45.0422 4.40636 52.3163 4.40966L70.0537 4.40966C77.3278 4.40636 82.2268 4.37316 86.04 4.06C90.01 3.74 91.54 3.18 92.34 2.78C95.16 1.34 97.46-0.96 98.9-3.78C99.3-4.58 99.86-6.11 100.18-10.08C100.493-13.8932 100.526-18.7922 100.53-26.0663L100.53-43.8037C100.526-51.0778 100.493-55.9768 100.18-59.79C99.86-63.76 99.3-65.29 98.9-66.09C97.46-68.91 95.16-71.21 92.34-72.64C91.54-73.05 90.01-73.61 86.04-73.93C82.2268-74.2432 77.3278-74.2764 70.0537-74.2797Z"/>
  </g>
  <g id="Heavy-M" transform="matrix(1 0 0 1 2576.33 1126)">
   <path d="M69.7379-87.4489C83.8286-87.4348 91.2613-87.2306 97.04-84.29C102.49-81.51 106.93-77.07 109.71-71.61C112.738-65.6683 112.865-57.9633 112.87-43.0382L112.87-26.8318C112.865-11.9066 112.738-4.20125 109.71 1.75C106.93 7.2 102.49 11.64 97.04 14.42C91.0888 17.4483 83.3834 17.5745 68.4582 17.5798L52.2518 17.5798C37.3266 17.5745 29.6213 17.4483 23.67 14.42C18.22 11.64 13.78 7.2 11 1.75C8.05944-4.02875 7.85524-11.4614 7.84106-25.5521L7.84106-44.3179C7.85524-58.4085 8.05944-65.8406 11-71.61C13.78-77.07 18.22-81.51 23.67-84.29C29.4488-87.2306 36.8814-87.4348 50.9721-87.4489ZM68.3922-74.4497L52.3178-74.4497C45.0458-74.4464 40.1092-74.4132 36.25-74.1C32.22-73.77 30.54-73.2 29.58-72.71C26.57-71.17 24.12-68.72 22.58-65.71C22.09-64.75 21.52-63.07 21.19-59.04C20.8768-55.1808 20.8436-50.2357 20.8403-42.9702L20.8403-26.8976C20.8436-19.6244 20.8768-14.68 21.19-10.83C21.52-6.8 22.09-5.12 22.58-4.16C24.12-1.14 26.57 1.3 29.58 2.84C30.54 3.33 32.22 3.9 36.25 4.23C40.1092 4.54316 45.0458 4.57636 52.3178 4.57966L68.3922 4.57966C75.6642 4.57636 80.6008 4.54316 84.46 4.23C88.49 3.9 90.17 3.33 91.13 2.84C94.14 1.3 96.59-1.14 98.13-4.16C98.62-5.12 99.19-6.8 99.52-10.83C99.8332-14.68 99.8664-19.6244 99.8697-26.8976L99.8697-42.9702C99.8664-50.2357 99.8332-55.1808 99.52-59.04C99.19-63.07 98.62-64.75 98.13-65.71C96.59-68.72 94.14-71.17 91.13-72.71C90.17-73.2 88.49-73.77 84.46-74.1C80.6008-74.4132 75.6642-74.4464 68.3922-74.4497Z"/>
  </g>
  <g id="Bold-M" transform="matrix(1 0 0 1 2280.55 1126)">
   <path d="M67.8779-86.5689C81.9686-86.5548 89.4013-86.3506 95.18-83.41C100.63-80.63 105.07-76.19 107.85-70.73C110.878-64.7883 111.005-57.0833 111.01-42.1582L111.01-27.8118C111.005-12.8866 110.878-5.18125 107.85 0.77C105.07 6.22 100.63 10.66 95.18 13.44C89.2288 16.4683 81.5234 16.5945 66.5982 16.5998L52.2518 16.5998C37.3266 16.5945 29.6213 16.4683 23.67 13.44C18.22 10.66 13.78 6.22 11 0.77C8.05944-5.00875 7.85524-12.4414 7.84106-26.5321L7.84106-43.4379C7.85524-57.5285 8.05944-64.9606 11-70.73C13.78-76.19 18.22-80.63 23.67-83.41C29.4488-86.3506 36.8814-86.5548 50.9721-86.5689ZM66.5758-75.5696L52.2742-75.5696C45.0452-75.5661 40.023-75.5316 36.09-75.21C31.93-74.87 29.96-74.27 28.67-73.61C25.28-71.88 22.53-69.13 20.8-65.74C20.14-64.45 19.54-62.48 19.2-58.32C18.8784-54.387 18.8439-49.3648 18.8404-42.1358L18.8404-27.8342C18.8439-20.6052 18.8784-15.583 19.2-11.65C19.54-7.49 20.14-5.52 20.8-4.23C22.53-0.84 25.28 1.91 28.67 3.64C29.96 4.3 31.93 4.9 36.09 5.24C40.023 5.56162 45.0452 5.59614 52.2742 5.59963L66.5758 5.59963C73.8048 5.59614 78.827 5.56162 82.76 5.24C86.92 4.9 88.89 4.3 90.18 3.64C93.57 1.91 96.32-0.84 98.05-4.23C98.71-5.52 99.31-7.49 99.65-11.65C99.9716-15.583 100.006-20.6052 100.01-27.8342L100.01-42.1358C100.006-49.3648 99.9716-54.387 99.65-58.32C99.31-62.48 98.71-64.45 98.05-65.74C96.32-69.13 93.57-71.88 90.18-73.61C88.89-74.27 86.92-74.87 82.76-75.21C78.827-75.5316 73.8048-75.5661 66.5758-75.5696Z"/>
  </g>
  <g id="Semibold-M" transform="matrix(1 0 0 1 1984.5 1126)">
   <path d="M66.5679-85.9289C80.6586-85.9148 88.0913-85.7106 93.87-82.77C99.32-79.99 103.76-75.55 106.54-70.1C109.568-64.1487 109.695-56.4434 109.7-41.5182L109.7-28.4818C109.695-13.5566 109.568-5.85125 106.54 0.1C103.76 5.55 99.32 9.99 93.87 12.77C87.9188 15.7983 80.2134 15.9245 65.2882 15.9298L52.2518 15.9298C37.3266 15.9245 29.6213 15.7983 23.67 12.77C18.22 9.99 13.78 5.55 11 0.1C8.05944-5.67875 7.85524-13.1114 7.84106-27.2021L7.84106-42.7979C7.85524-56.8886 8.05944-64.3212 11-70.1C13.78-75.55 18.22-79.99 23.67-82.77C29.4488-85.7106 36.8814-85.9148 50.9721-85.9289ZM65.3175-75.9296L52.2225-75.9296C45.0239-75.926 39.9792-75.8908 36.01-75.57C31.79-75.22 29.67-74.6 28.21-73.86C24.64-72.04 21.73-69.13 19.91-65.56C19.17-64.1 18.55-61.98 18.2-57.76C17.8792-53.7908 17.844-48.7461 17.8404-41.5475L17.8404-28.4525C17.844-21.2539 17.8792-16.2092 18.2-12.24C18.55-8.02 19.17-5.9 19.91-4.44C21.73-0.87 24.64 2.04 28.21 3.86C29.67 4.6 31.79 5.22 36.01 5.57C39.9792 5.89083 45.0239 5.92597 52.2225 5.9296L65.3175 5.9296C72.5161 5.92597 77.5608 5.89083 81.53 5.57C85.75 5.22 87.87 4.6 89.33 3.86C92.9 2.04 95.81-0.87 97.63-4.44C98.37-5.9 98.99-8.02 99.34-12.24C99.6608-16.2092 99.696-21.2539 99.6996-28.4525L99.6996-41.5475C99.696-48.7461 99.6608-53.7908 99.34-57.76C98.99-61.98 98.37-64.1 97.63-65.56C95.81-69.13 92.9-72.04 89.33-73.86C87.87-74.6 85.75-75.22 81.53-75.57C77.5608-75.8908 72.5161-75.926 65.3175-75.9296Z"/>
  </g>
  <g id="Medium-M" transform="matrix(1 0 0 1 1688.28 1126)">
   <path d="M65.5879-85.4389C79.6786-85.4248 87.1113-85.2206 92.89-82.28C98.34-79.5 102.78-75.06 105.56-69.61C108.588-63.6587 108.715-55.9534 108.72-41.0282L108.72-28.9718C108.715-14.0466 108.588-6.34125 105.56-0.39C102.78 5.06 98.34 9.5 92.89 12.28C86.9388 15.3083 79.2334 15.4345 64.3082 15.4398L52.2518 15.4398C37.3266 15.4345 29.6213 15.3083 23.67 12.28C18.22 9.5 13.78 5.06 11-0.39C8.05944-6.16875 7.85524-13.6014 7.84106-27.6921L7.84106-42.3079C7.85524-56.3986 8.05944-63.8312 11-69.61C13.78-75.06 18.22-79.5 23.67-82.28C29.4488-85.2206 36.8814-85.4248 50.9721-85.4389ZM64.3339-76.4396L52.2261-76.4396C45.0356-76.4359 39.945-76.4 35.93-76.07C31.65-75.72 29.38-75.09 27.76-74.26C24-72.34 20.94-69.28 19.02-65.52C18.19-63.9 17.55-61.63 17.21-57.35C16.88-53.335 16.8441-48.2444 16.8404-41.0539L16.8404-28.9461C16.8441-21.7556 16.88-16.665 17.21-12.65C17.55-8.37 18.19-6.1 19.02-4.48C20.94-0.72 24 2.34 27.76 4.26C29.38 5.09 31.65 5.73 35.93 6.08C39.945 6.40083 45.0356 6.43597 52.2261 6.4396L64.3339 6.4396C71.5244 6.43597 76.615 6.40083 80.63 6.08C84.91 5.73 87.18 5.09 88.8 4.26C92.56 2.34 95.62-0.72 97.54-4.48C98.37-6.1 99.01-8.37 99.35-12.65C99.68-16.665 99.7159-21.7556 99.7196-28.9461L99.7196-41.0539C99.7159-48.2444 99.68-53.335 99.35-57.35C99.01-61.63 98.37-63.9 97.54-65.52C95.62-69.28 92.56-72.34 88.8-74.26C87.18-75.09 84.91-75.72 80.63-76.07C76.615-76.4 71.5244-76.4359 64.3339-76.4396Z"/>
  </g>
  <g id="Regular-M" transform="matrix(1 0 0 1 1392.2 1126)">
   <path d="M64.3179-84.8089C78.4086-84.7948 85.8413-84.5906 91.62-81.65C97.07-78.87 101.51-74.43 104.29-68.97C107.318-63.0283 107.445-55.3233 107.45-40.3982L107.45-29.6118C107.445-14.6866 107.318-6.98125 104.29-1.03C101.51 4.42 97.07 8.86 91.62 11.64C85.6688 14.6683 77.9634 14.7945 63.0382 14.7998L52.2518 14.7998C37.3266 14.7945 29.6213 14.6683 23.67 11.64C18.22 8.86 13.78 4.42 11-1.03C8.05944-6.80875 7.85524-14.2414 7.84106-28.3321L7.84106-41.6779C7.85524-55.7685 8.05944-63.2006 11-68.97C13.78-74.43 18.22-78.87 23.67-81.65C29.4488-84.5906 36.8814-84.7948 50.9721-84.8089ZM63.1162-76.8096L52.1738-76.8096C45.0205-76.8057 39.8994-76.7691 35.84-76.44C31.5-76.09 29.09-75.43 27.31-74.52C23.35-72.51 20.14-69.29 18.13-65.34C17.22-63.56 16.56-61.15 16.21-56.8C15.8809-52.7497 15.8443-47.6295 15.8404-40.4762L15.8404-29.5338C15.8443-22.3805 15.8809-17.2594 16.21-13.2C16.56-8.86 17.22-6.45 18.13-4.66C20.14-0.71 23.35 2.5 27.31 4.51C29.09 5.42 31.5 6.08 35.84 6.43C39.8994 6.76829 45.0205 6.79728 52.1738 6.79977L63.1162 6.79977C70.2695 6.79728 75.3906 6.76829 79.45 6.43C83.79 6.08 86.2 5.42 87.98 4.51C91.94 2.5 95.15-0.71 97.16-4.66C98.07-6.45 98.73-8.86 99.08-13.2C99.4091-17.2594 99.4457-22.3805 99.4496-29.5338L99.4496-40.4762C99.4457-47.6295 99.4091-52.7497 99.08-56.8C98.73-61.15 98.07-63.56 97.16-65.34C95.15-69.29 91.94-72.51 87.98-74.52C86.2-75.43 83.79-76.09 79.45-76.44C75.3906-76.7691 70.2695-76.8057 63.1162-76.8096Z"/>
  </g>
  <g id="Light-M" transform="matrix(1 0 0 1 1096.32 1126)">
   <path d="M62.6579-83.9789C76.7486-83.9648 84.1813-83.7606 89.96-80.82C95.41-78.04 99.85-73.6 102.63-68.14C105.658-62.1983 105.785-54.4933 105.79-39.5682L105.79-30.4418C105.785-15.5166 105.658-7.81125 102.63-1.86C99.85 3.59 95.41 8.03 89.96 10.81C84.0088 13.8383 76.3034 13.9645 61.3782 13.9698L52.2518 13.9698C37.3266 13.9645 29.6213 13.8383 23.67 10.81C18.22 8.03 13.78 3.59 11-1.86C8.05944-7.63875 7.85524-15.0714 7.84106-29.1621L7.84106-40.8479C7.85524-54.9385 8.05944-62.3706 11-68.14C13.78-73.6 18.22-78.04 23.67-80.82C29.4488-83.7606 36.8814-83.9648 50.9721-83.9789ZM61.5084-78.4795L52.1216-78.4795C45.0111-78.4754 39.7976-78.4374 35.64-78.1C31.15-77.73 28.37-77.04 26.17-75.92C21.75-73.66 18.15-70.07 15.9-65.65C14.78-63.45 14.08-60.67 13.72-56.18C13.3735-52.0224 13.343-46.8089 13.3403-39.6984L13.3403-30.3116C13.343-23.2011 13.3735-17.9876 13.72-13.83C14.08-9.33 14.78-6.56 15.9-4.36C18.15 0.0600002 21.75 3.66 26.17 5.91C28.37 7.03 31.15 7.73 35.64 8.09C39.7976 8.43647 45.0111 8.46704 52.1216 8.46974L61.5084 8.46974C68.6189 8.46704 73.8324 8.43647 77.99 8.09C82.49 7.73 85.26 7.03 87.46 5.91C91.88 3.66 95.48 0.0600002 97.73-4.36C98.85-6.56 99.55-9.33 99.91-13.83C100.256-17.9876 100.287-23.2011 100.29-30.3116L100.29-39.6984C100.287-46.8089 100.256-52.0224 99.91-56.18C99.55-60.67 98.85-63.45 97.73-65.65C95.48-70.07 91.88-73.66 87.46-75.92C85.26-77.04 82.49-77.73 77.99-78.1C73.8324-78.4374 68.6189-78.4754 61.5084-78.4795Z"/>
  </g>
  <g id="Thin-M" transform="matrix(1 0 0 1 800.682 1126)">
   <path d="M60.5083-82.8589C74.6005-82.8448 82.0328-82.6406 87.806-79.7C93.262-76.92 97.699-72.48 100.479-67.03C103.508-61.0787 103.635-53.3734 103.64-38.4482L103.64-31.4718C103.635-16.5466 103.508-8.84125 100.479-2.89C97.699 2.56 93.262 7 87.806 9.78C81.8605 12.8083 74.1553 12.9345 59.2284 12.9398L52.2516 12.9398C37.3247 12.9345 29.6195 12.8083 23.674 9.78C18.218 7 13.781 2.56 11.001-2.89C8.05951-8.66875 7.85524-16.1014 7.84106-30.1921L7.84106-39.7279C7.85524-53.8186 8.05951-61.2512 11.001-67.03C13.781-72.48 18.218-76.92 23.674-79.7C29.4472-82.6406 36.8795-82.8448 50.9717-82.8589ZM59.4154-79.3597L52.0648-79.3597C44.9954-79.3569 39.7144-79.3255 35.478-78.98C30.859-78.6 27.789-77.87 25.263-76.58C20.465-74.14 16.564-70.23 14.119-65.44C12.832-62.91 12.101-59.84 11.723-55.22C11.3775-50.9836 11.3437-45.706 11.3404-38.6356L11.3404-31.2844C11.3437-24.214 11.3775-18.9364 11.723-14.7C12.101-10.08 12.832-7.01 14.119-4.48C16.564 0.32 20.465 4.22 25.263 6.66C27.789 7.95 30.859 8.68 35.478 9.06C39.7144 9.40545 44.9945 9.43686 52.0646 9.43971L59.4154 9.43971C66.4855 9.43686 71.7656 9.40545 76.002 9.06C80.622 8.68 83.691 7.95 86.217 6.66C91.015 4.22 94.916 0.32 97.361-4.48C98.648-7.01 99.379-10.08 99.757-14.7C100.102-18.9364 100.136-24.214 100.14-31.2844L100.14-38.6356C100.136-45.706 100.102-50.9836 99.757-55.22C99.379-59.84 98.648-62.91 97.361-65.44C94.916-70.23 91.015-74.14 86.217-76.58C83.691-77.87 80.622-78.6 76.002-78.98C71.7656-79.3255 66.4855-79.3569 59.4154-79.3597Z"/>
  </g>
  <g id="Ultralight-M" transform="matrix(1 0 0 1 504.531 1126)">
   <path d="M59.3883-82.3189C73.4805-82.3048 80.9128-82.1006 86.686-79.16C92.143-76.38 96.579-71.94 99.359-66.48C102.388-60.5383 102.515-52.8333 102.52-37.9082L102.52-32.0518C102.515-17.1266 102.388-9.42125 99.359-3.47C96.579 1.98 92.143 6.42 86.686 9.2C80.7405 12.2283 73.0353 12.3545 58.1084 12.3598L52.2517 12.3598C37.3256 12.3545 29.6195 12.2283 23.674 9.2C18.218 6.42 13.781 1.98 11.001-3.47C8.05951-9.24875 7.85524-16.6814 7.84106-30.7721L7.84106-39.1879C7.85524-53.2785 8.05951-60.7106 11.001-66.48C13.781-71.94 18.218-76.38 23.674-79.16C29.4472-82.1006 36.8803-82.3048 50.9719-82.3189ZM58.2917-80.0697L52.0683-80.0697C45.0046-80.0668 39.6696-80.0345 35.376-79.68C30.68-79.3 27.428-78.54 24.696-77.15C19.663-74.59 15.57-70.5 13.006-65.46C11.614-62.73 10.861-59.48 10.478-54.78C10.1271-50.4891 10.0935-45.1569 10.0903-38.0921L10.0903-31.8679C10.0935-24.8031 10.1271-19.47 10.478-15.17C10.861-10.48 11.614-7.23 13.006-4.49C15.57 0.54 19.663 4.63 24.696 7.2C27.428 8.59 30.68 9.34 35.376 9.72C39.6696 10.0745 45.0046 10.1068 52.0683 10.1097L58.2917 10.1097C65.3554 10.1068 70.6904 10.0745 74.984 9.72C79.681 9.34 82.933 8.59 85.664 7.2C90.698 4.63 94.79 0.54 97.355-4.49C98.746-7.23 99.499-10.48 99.882-15.17C100.233-19.47 100.266-24.8031 100.27-31.8679L100.27-38.0921C100.266-45.1569 100.233-50.4891 99.882-54.78C99.499-59.48 98.746-62.73 97.355-65.46C94.79-70.5 90.698-74.59 85.664-77.15C82.933-78.54 79.681-79.3 74.984-79.68C70.6904-80.0345 65.3554-80.0668 58.2917-80.0697Z"/>
  </g>
  <g id="Black-S" transform="matrix(1 0 0 1 2883.57 696)">
   <path d="M56.4492-76.9478C67.9002-76.933 73.9814-76.7446 78.7198-74.333C83.2298-72.032 86.8998-68.361 89.1998-63.845C91.697-58.9517 91.8141-52.6166 91.8195-40.3954L91.8195-29.5226C91.8141-17.3014 91.697-10.9663 89.1998-6.073C86.8998-1.558 83.2298 2.114 78.7198 4.415C73.8207 6.90838 67.4863 7.02525 55.266 7.03073L44.3936 7.03073C32.1733 7.02525 25.8389 6.90838 20.9398 4.415C16.4298 2.114 12.7598-1.558 10.4598-6.073C8.0445-10.8059 7.8558-16.8875 7.84106-28.3394L7.84106-41.5786C7.8558-53.0305 8.0445-59.1121 10.4598-63.845C12.7598-68.361 16.4298-72.032 20.9398-74.333C25.6782-76.7446 31.7595-76.933 43.2104-76.9478ZM55.2003-62.9486L44.4593-62.9486C38.527-62.945 34.6286-62.9143 31.6198-62.669C28.4798-62.412 27.5598-61.994 27.2998-61.859C25.4198-60.901 23.8898-59.371 22.9298-57.489C22.7998-57.225 22.3798-56.309 22.1198-53.172C21.8736-50.1641 21.8436-46.2642 21.8402-40.33L21.8402-29.5882C21.8436-23.6548 21.8736-19.7548 22.1198-16.746C22.3798-13.61 22.7998-12.694 22.9298-12.429C23.8898-10.548 25.4198-9.018 27.2998-8.059C27.5598-7.924 28.4798-7.506 31.6198-7.25C34.7257-6.99588 38.7794-6.97119 45.0398-6.96916L54.6198-6.96916C60.8802-6.97119 64.9339-6.99588 68.0398-7.25C71.1798-7.506 72.0998-7.924 72.3598-8.059C74.2398-9.018 75.7698-10.548 76.7298-12.429C76.7634-12.4974 76.8162-12.6091 76.8807-12.7912L76.931-12.9413C77.1141-13.516 77.3637-14.6216 77.5398-16.746C77.7939-19.8519 77.8177-23.9074 77.8197-30.1688L77.8197-39.7493C77.8177-46.0116 77.7939-50.0671 77.5398-53.172C77.2798-56.309 76.8598-57.225 76.7298-57.489C75.7698-59.371 74.2398-60.901 72.3598-61.859C72.2927-61.8938 72.1817-61.9475 71.9998-62.0124L71.8498-62.0631C71.2753-62.2469 70.1669-62.4949 68.0398-62.669C65.031-62.9143 61.1327-62.945 55.2003-62.9486Z"/>
  </g>
  <g id="Heavy-S" transform="matrix(1 0 0 1 2587.47 696)">
   <path d="M55.2292-76.3578C66.6802-76.343 72.7614-76.1547 77.4998-73.744C82.0098-71.443 85.6798-67.771 87.9798-63.255C90.477-58.3617 90.5941-52.0275 90.5995-39.8055L90.5995-30.1526C90.5941-17.9314 90.477-11.5964 87.9798-6.704C85.6798-2.188 82.0098 1.484 77.4998 3.785C72.6007 6.27838 66.2663 6.39525 54.046 6.40073L44.3936 6.40073C32.1733 6.39525 25.8389 6.27838 20.9398 3.785C16.4298 1.484 12.7598-2.188 10.4598-6.704C8.0445-11.436 7.8558-17.5175 7.84106-28.9694L7.84106-40.9888C7.8558-52.4413 8.0445-58.5221 10.4598-63.255C12.7598-67.771 16.4298-71.443 20.9398-73.744C25.6782-76.1547 31.7595-76.343 43.2104-76.3578ZM53.9788-63.3586L44.4608-63.3586C38.5298-63.3552 34.5942-63.3249 31.5398-63.076C28.3398-62.814 27.2798-62.379 26.8498-62.16C24.7798-61.106 23.0898-59.423 22.0398-57.353C21.8198-56.924 21.3898-55.862 21.1198-52.664C20.8736-49.6096 20.8436-45.6665 20.8402-39.7372L20.8402-30.221C20.8436-24.2925 20.8736-20.3494 21.1198-17.295C21.3898-14.097 21.8198-13.034 22.0398-12.605C23.0898-10.536 24.7798-8.853 26.8498-7.798C27.2798-7.58 28.3398-7.144 31.5398-6.883C34.6928-6.62512 38.7847-6.60109 45.0411-6.59915L53.3986-6.59915C59.655-6.60109 63.7469-6.62512 66.8998-6.883C70.0998-7.144 71.1698-7.58 71.5898-7.798C73.6598-8.853 75.3498-10.536 76.3998-12.605C76.6198-13.034 77.0498-14.097 77.3198-17.295C77.5739-20.4479 77.5977-24.5478 77.5997-30.801L77.5997-39.1572C77.5977-45.4112 77.5739-49.5111 77.3198-52.664C77.0498-55.862 76.6198-56.924 76.3998-57.353C75.3498-59.423 73.6598-61.106 71.5898-62.16C71.1698-62.379 70.0998-62.814 66.8998-63.076C63.8454-63.3249 59.9098-63.3552 53.9788-63.3586Z"/>
  </g>
  <g id="Bold-S" transform="matrix(1 0 0 1 2291.41 696)">
   <path d="M53.9192-75.6788C65.3702-75.664 71.4514-75.4756 76.1898-73.064C80.6998-70.763 84.3698-67.091 86.6698-62.575C89.167-57.6826 89.2841-51.3476 89.2895-39.1264L89.2895-30.7835C89.2841-18.5615 89.167-12.2273 86.6698-7.334C84.3698-2.818 80.6998 0.854 76.1898 3.154C71.2907 5.64738 64.9563 5.76425 52.736 5.76973L44.3936 5.76973C32.1733 5.76425 25.8389 5.64738 20.9398 3.154C16.4298 0.854 12.7598-2.818 10.4598-7.334C8.0445-12.0669 7.8558-18.1477 7.84106-29.6002L7.84106-40.3096C7.8558-51.7615 8.0445-57.843 10.4598-62.575C12.7598-67.091 16.4298-70.763 20.9398-73.064C25.6782-75.4756 31.7595-75.664 43.2104-75.6788ZM52.7136-64.6796L44.416-64.6796C38.5268-64.6761 34.5062-64.6454 31.3698-64.389C28.0498-64.118 26.6998-63.649 25.9398-63.263C23.4898-62.016 21.4998-60.028 20.2598-57.582C19.8698-56.824 19.3998-55.469 19.1298-52.147C18.8753-49.0106 18.8439-44.9941 18.8403-39.1042L18.8403-30.8058C18.8439-24.9159 18.8753-20.8993 19.1298-17.762C19.3998-14.44 19.8698-13.086 20.2598-12.328C21.4998-9.882 23.4898-7.893 25.9398-6.647C26.6998-6.26 28.0498-5.792 31.3698-5.52C34.6107-5.25509 38.7959-5.23198 45.0112-5.23015L52.1184-5.23015C58.3338-5.23198 62.5189-5.25509 65.7598-5.52C69.0798-5.792 70.4298-6.26 71.1898-6.647C73.6398-7.893 75.6298-9.882 76.8698-12.328C77.2598-13.086 77.7298-14.44 77.9998-17.762C78.2628-21.0038 78.2876-25.1846 78.2896-31.4011L78.2896-38.5089C78.2876-44.7254 78.2628-48.9061 77.9998-52.147C77.7298-55.469 77.2598-56.824 76.8698-57.582C75.6298-60.028 73.6398-62.016 71.1898-63.263C70.4298-63.649 69.0798-64.118 65.7598-64.389C62.6234-64.6454 58.6028-64.6761 52.7136-64.6796Z"/>
  </g>
  <g id="Semibold-S" transform="matrix(1 0 0 1 1995.19 696)">
   <path d="M52.9392-75.2368C64.3902-75.222 70.4714-75.0336 75.2098-72.622C79.7198-70.321 83.3898-66.65 85.6898-62.134C88.187-57.2407 88.3041-50.9065 88.3095-38.6845L88.3095-31.3216C88.3041-19.1004 88.187-12.7654 85.6898-7.873C83.3898-3.357 79.7198 0.315 75.2098 2.616C70.3107 5.10938 63.9763 5.22625 51.756 5.23173L44.3936 5.23173C32.1733 5.22625 25.8389 5.10938 20.9398 2.616C16.4298 0.315 12.7598-3.357 10.4598-7.873C8.0445-12.605 7.8558-18.6865 7.84106-30.1384L7.84106-39.8678C7.8558-51.3203 8.0445-57.4011 10.4598-62.134C12.7598-66.65 16.4298-70.321 20.9398-72.622C25.6782-75.0336 31.7595-75.222 43.2104-75.2368ZM51.7321-65.2376L44.4175-65.2376C38.5295-65.2344 34.4716-65.205 31.2898-64.945C27.9098-64.668 26.4098-64.182 25.4798-63.712C22.8498-62.37 20.7098-60.228 19.3698-57.594C18.8998-56.672 18.4098-55.171 18.1298-51.787C17.8753-48.6052 17.8439-44.5449 17.8403-38.6594L17.8403-31.3469C17.8439-25.4621 17.8753-21.4017 18.1298-18.219C18.4098-14.836 18.8998-13.335 19.3698-12.412C20.7098-9.778 22.8498-7.636 25.4798-6.294C26.4098-5.824 27.9098-5.339 31.2898-5.062C34.5777-4.79333 38.801-4.76999 45.0125-4.76815L51.1371-4.76815C57.3486-4.76999 61.5719-4.79333 64.8598-5.062C68.2398-5.339 69.7398-5.824 70.6698-6.294C73.2998-7.636 75.4398-9.778 76.7798-12.412C77.2498-13.335 77.7398-14.836 78.0198-18.219C78.2828-21.5078 78.3076-25.7338 78.3096-31.9415L78.3096-38.0647C78.3076-44.2732 78.2828-48.4991 78.0198-51.787C77.7398-55.171 77.2498-56.672 76.7798-57.594C75.4398-60.228 73.2998-62.37 70.6698-63.712C69.7398-64.182 68.2398-64.668 64.8598-64.945C61.678-65.205 57.6201-65.2344 51.7321-65.2376Z"/>
  </g>
  <g id="Medium-S" transform="matrix(1 0 0 1 1698.82 696)">
   <path d="M52.2592-74.8488C63.7102-74.834 69.7914-74.6456 74.5298-72.234C79.0398-69.933 82.7098-66.261 85.0098-61.745C87.507-56.8517 87.6241-50.5175 87.6295-38.2964L87.6295-31.6135C87.6241-19.3915 87.507-13.0573 85.0098-8.164C82.7098-3.648 79.0398 0.0240003 74.5298 2.325C69.6307 4.81742 63.2963 4.93425 51.076 4.93973L44.3936 4.93973C32.1733 4.93425 25.8389 4.81742 20.9398 2.325C16.4298 0.0240003 12.7598-3.648 10.4598-8.164C8.0445-12.8969 7.8558-18.9777 7.84106-30.4302L7.84106-39.4796C7.8558-50.9313 8.0445-57.0121 10.4598-61.745C12.7598-66.261 16.4298-69.933 20.9398-72.234C25.6782-74.6456 31.7595-74.834 43.2104-74.8488ZM51.0483-65.8496L44.4213-65.8496C38.5404-65.8464 34.4371-65.8166 31.2098-65.553C27.7598-65.271 26.1198-64.768 25.0298-64.215C22.2098-62.777 19.9098-60.482 18.4698-57.659C17.9198-56.573 17.4198-54.925 17.1398-51.48C16.8762-48.2518 16.8439-44.1484 16.8403-38.2683L16.8403-31.6415C16.8439-25.7606 16.8762-21.6572 17.1398-18.429C17.4198-14.984 17.9198-13.336 18.4698-12.25C19.9098-9.427 22.2098-7.133 25.0298-5.695C26.1198-5.141 27.7598-4.638 31.2098-4.357C34.5447-4.08458 38.8149-4.06189 45.0154-4.06014L50.4543-4.06014C56.6547-4.06189 60.925-4.08458 64.2598-4.357C67.7098-4.638 69.3498-5.141 70.4398-5.695C73.2598-7.133 75.5598-9.427 76.9998-12.25C77.5498-13.336 78.0498-14.984 78.3298-18.429C78.6022-21.7648 78.6276-26.0351 78.6296-32.2355L78.6296-37.6743C78.6276-43.8739 78.6022-48.1442 78.3298-51.48C78.0498-54.925 77.5498-56.573 76.9998-57.659C75.5598-60.482 73.2598-62.777 70.4398-64.215C69.3498-64.768 67.7098-65.271 64.2598-65.553C61.0325-65.8166 56.9292-65.8464 51.0483-65.8496Z"/>
  </g>
  <g id="Regular-S" transform="matrix(1 0 0 1 1402.57 696)">
   <path d="M51.3292-74.4068C62.7802-74.392 68.8614-74.2036 73.5998-71.792C78.1098-69.491 81.7798-65.82 84.0798-61.304C86.577-56.4107 86.6941-50.0756 86.6995-37.8544L86.6995-32.1016C86.6941-19.8804 86.577-13.5453 84.0798-8.652C81.7798-4.137 78.1098-0.465 73.5998 1.836C68.7007 4.32938 62.3663 4.44625 50.146 4.45173L44.3936 4.45173C32.1733 4.44625 25.8389 4.32938 20.9398 1.836C16.4298-0.465 12.7598-4.137 10.4598-8.652C8.0445-13.3849 7.8558-19.4665 7.84106-30.9184L7.84106-39.0376C7.8558-50.4895 8.0445-56.5711 10.4598-61.304C12.7598-65.82 16.4298-69.491 20.9398-71.792C25.6782-74.2036 31.7595-74.392 43.2104-74.4068ZM50.1696-66.4076L44.3701-66.4076C38.5254-66.4043 34.3923-66.3744 31.1298-66.108C27.6198-65.821 25.8298-65.302 24.5798-64.664C21.5698-63.13 19.1198-60.683 17.5798-57.672C16.9498-56.421 16.4298-54.627 16.1398-51.12C15.877-47.8566 15.8441-43.7251 15.8403-37.8785L15.8403-32.0778C15.8441-26.2317 15.877-22.0995 16.1398-18.837C16.4298-15.329 16.9498-13.536 17.5798-12.284C19.1198-9.274 21.5698-6.826 24.5798-5.292C25.8298-4.655 27.6198-4.135 31.1298-3.849C34.5048-3.57244 38.8114-3.54988 44.9808-3.54814L49.5588-3.54814C55.7282-3.54988 60.0348-3.57244 63.4098-3.849C66.9198-4.135 68.7098-4.655 69.9598-5.292C72.9698-6.826 75.4198-9.274 76.9598-12.284C77.5898-13.536 78.1098-15.329 78.3998-18.837C78.6717-22.212 78.6975-26.5178 78.6996-32.6887L78.6996-37.2675C78.6975-43.4391 78.6717-47.7441 78.3998-51.12C78.1098-54.627 77.5898-56.421 76.9598-57.672C75.4198-60.683 72.9698-63.13 69.9598-64.664C68.7098-65.302 66.9198-65.821 63.4098-66.108C60.1473-66.3744 56.0142-66.4043 50.1696-66.4076Z"/>
  </g>
  <g id="Light-S" transform="matrix(1 0 0 1 1106.6 696)">
   <path d="M49.6043-73.6788C61.2252-73.664 67.3914-73.4756 72.1298-71.064C76.6398-68.763 80.3098-65.091 82.6098-60.575C85.107-55.6826 85.2241-49.2586 85.2295-36.8584L85.2295-33.1116C85.2241-20.7114 85.107-14.2873 82.6098-9.394C80.3098-4.878 76.6398-1.206 72.1298 1.094C67.2307 3.58738 60.8055 3.70425 48.4035 3.70973L44.6575 3.70973C32.2641 3.70425 25.8389 3.58738 20.9398 1.094C16.4298-1.206 12.7598-4.878 10.4598-9.394C8.0445-14.1269 7.8558-20.2918 7.84106-31.911L7.84106-38.059C7.8558-49.6782 8.0445-55.843 10.4598-60.575C12.7598-65.091 16.4298-68.763 20.9398-71.064C25.6782-73.4756 31.8444-73.664 43.4575-73.6788ZM48.4792-68.1796L44.583-68.1796C38.6993-68.1764 34.404-68.1465 30.9898-67.871C27.2698-67.57 25.0998-67.006 23.4398-66.163C19.9598-64.39 17.1298-61.56 15.3598-58.079C14.5098-56.424 13.9498-54.247 13.6498-50.527C13.3698-47.1137 13.3427-42.8234 13.3401-36.934L13.3401-33.036C13.3427-27.1464 13.3698-22.8554 13.6498-19.443C13.9498-15.722 14.5098-13.545 15.3598-11.891C17.1298-8.41 19.9598-5.58 23.4398-3.806C25.0998-2.963 27.2698-2.399 30.9898-2.099C34.5259-1.81368 39.0072-1.79177 45.2195-1.79013L47.8419-1.79013C54.0624-1.79177 58.5437-1.81368 62.0798-2.099C65.7998-2.399 67.9698-2.963 69.6298-3.806C73.1098-5.58 75.9398-8.41 77.7098-11.891C78.5598-13.545 79.1198-15.722 79.4198-19.443C79.6998-22.8554 79.7269-27.1464 79.7295-33.036L79.7295-36.934C79.7269-42.8234 79.6998-47.1137 79.4198-50.527C79.1198-54.247 78.5598-56.424 77.7098-58.079C75.9398-61.56 73.1098-64.39 69.6298-66.163C67.9698-67.006 65.7998-67.57 62.0798-67.871C58.6656-68.1465 54.3703-68.1764 48.4792-68.1796Z"/>
  </g>
  <g id="Thin-S" transform="matrix(1 0 0 1 810.862 696)">
   <path d="M48.581-72.6977C59.3991-72.683 65.1644-72.5041 69.6967-70.321C74.5927-67.962 78.5427-64.012 80.9017-59.116C83.1628-54.4218 83.274-48.405 83.2795-36.8217L83.2795-33.1363C83.274-21.553 83.1628-15.5362 80.9017-10.842C78.5427-5.947 74.5927-1.997 69.6967 0.362C65.0026 2.624 58.9857 2.73525 47.4024 2.74072L43.7171 2.74072C32.1338 2.73525 26.1169 2.624 21.4227 0.362C16.5277-1.997 12.5777-5.947 10.2187-10.842C8.03475-15.3743 7.85573-21.1396 7.84106-31.9577L7.84106-38.0003C7.85573-48.8184 8.03475-54.5837 10.2187-59.116C12.5777-64.012 16.5277-67.962 21.4227-70.321C25.9551-72.5041 31.7204-72.683 42.5385-72.6977ZM47.5057-69.1986L43.6138-69.1986C38.1552-69.1956 34.0863-69.1675 30.8147-68.912C27.2027-68.631 24.8557-68.09 22.9417-67.167C18.7607-65.153 15.3867-61.779 13.3717-57.597C12.4497-55.683 11.9077-53.336 11.6267-49.725C11.3721-46.4526 11.3434-42.3836 11.3402-36.9249L11.3402-33.0331C11.3434-27.5744 11.3721-23.5055 11.6267-20.234C11.9077-16.622 12.4497-14.275 13.3717-12.361C15.3867-8.18 18.7607-4.806 22.9417-2.791C24.8557-1.869 27.2027-1.327 30.8147-1.046C34.2121-0.781586 38.4693-0.76075 44.2498-0.759134L46.8697-0.759134C52.6502-0.76075 56.9075-0.781586 60.3057-1.046C63.9167-1.327 66.2637-1.869 68.1777-2.791C72.3597-4.806 75.7337-8.18 77.7477-12.361C78.6707-14.275 79.2117-16.622 79.4927-20.234C79.7581-23.6313 79.7781-27.8886 79.7796-33.6691L79.7796-36.2889C79.7781-42.0694 79.7581-46.3267 79.4927-49.725C79.2117-53.336 78.6707-55.683 77.7477-57.597C75.7337-61.779 72.3597-65.153 68.1777-67.167C66.2637-68.09 63.9167-68.631 60.3057-68.912C57.0333-69.1675 52.9643-69.1956 47.5057-69.1986Z"/>
  </g>
  <g id="Ultralight-S" transform="matrix(1 0 0 1 514.641 696)">
   <path d="M48.0288-72.2077C58.4275-72.1936 63.978-72.0245 68.3698-69.995C73.5418-67.604 77.6948-63.451 80.0858-58.278C82.1891-53.7266 82.2942-47.9315 82.2995-36.7842L82.2995-33.1738C82.2942-22.0265 82.1891-16.2315 80.0858-11.68C77.6948-6.507 73.5418-2.354 68.3698 0.037C63.8183 2.1403 58.0223 2.24546 46.875 2.25072L43.2647 2.25072C32.1182 2.24546 26.3222 2.1403 21.7708 0.037C16.5988-2.354 12.4458-6.507 10.0548-11.68C8.02436-16.0718 7.85516-21.6214 7.84106-32.02L7.84106-37.938C7.85516-48.3366 8.02436-53.8863 10.0548-58.278C12.4458-63.451 16.5988-67.604 21.7708-69.995C26.1625-72.0245 31.713-72.1936 42.111-72.2077ZM47.0071-69.9586L43.1327-69.9586C37.9074-69.9557 33.9552-69.9292 30.7588-69.689C27.2028-69.421 24.7638-68.899 22.7148-67.952C18.0278-65.786 14.2638-62.022 12.0968-57.334C11.1498-55.285 10.6278-52.847 10.3608-49.29C10.1206-46.0945 10.0933-42.1416 10.0902-36.9161L10.0902-33.0419C10.0933-27.8164 10.1206-23.8635 10.3608-20.668C10.6278-17.111 11.1498-14.673 12.0968-12.624C14.2638-7.936 18.0278-4.172 22.7148-2.006C24.7638-1.059 27.2028-0.537 30.7588-0.269C34.0831-0.0192143 38.2248-0.0005102 43.7659 0.0008874L46.3738 0.0008874C51.9158-0.0005102 56.0575-0.0192143 59.3818-0.269C62.9378-0.537 65.3768-1.059 67.4258-2.006C72.1128-4.172 75.8768-7.936 78.0438-12.624C78.9908-14.673 79.5128-17.111 79.7798-20.668C80.0296-23.9914 80.0483-28.1338 80.0497-33.6751L80.0497-36.2829C80.0483-41.8242 80.0296-45.9666 79.7798-49.29C79.5128-52.847 78.9908-55.285 78.0438-57.334C75.8768-62.022 72.1128-65.786 67.4258-67.952C65.3768-68.899 62.9378-69.421 59.3818-69.689C56.1853-69.9292 52.2332-69.9557 47.0071-69.9586Z"/>
  </g>
 </g>
</svg>
